<?xml version="1.0" encoding="utf-8"?>
<!-- Generator: Adobe Illustrator 19.2.1, SVG Export Plug-In . SVG Version: 6.00 Build 0)  -->
<svg version="1.1" xmlns="http://www.w3.org/2000/svg" xmlns:xlink="http://www.w3.org/1999/xlink" x="0px" y="0px" width="24px"
	 height="24px" viewBox="0 0 24 24" enable-background="new 0 0 24 24" xml:space="preserve">
<g id="Filled_Icons_1_">
	<g id="Filled_Icons">
	</g>
	<g id="New_icons">
		<g>
			<path d="M11.325,21.694c-0.095-0.122-0.241-0.194-0.396-0.194H7.071c-0.155,0-0.301,0.072-0.395,0.194
				c-0.095,0.122-0.127,0.282-0.088,0.431C6.872,23.229,7.864,24,9,24c1.135,0,2.127-0.771,2.413-1.875
				C11.452,21.976,11.419,21.816,11.325,21.694z"/>
			<path d="M17.5,1.5C13.916,1.5,11,4.416,11,8s2.916,6.5,6.5,6.5S24,11.584,24,8S21.084,1.5,17.5,1.5z M21.597,6.399l-4.096,4.357
				c-0.092,0.098-0.219,0.154-0.353,0.158c-0.003,0-0.007,0-0.011,0c-0.13,0-0.255-0.05-0.348-0.141l-2.925-2.84
				c-0.198-0.192-0.203-0.509-0.011-0.707c0.192-0.198,0.509-0.203,0.707-0.01l2.561,2.485l3.748-3.987
				c0.188-0.202,0.506-0.211,0.706-0.022C21.776,5.882,21.786,6.199,21.597,6.399z"/>
			<path d="M17.5,19.5c-0.827,0-1.5-0.673-1.5-1.5v-2.651c-3.419-0.697-6-3.727-6-7.349c0-1.069,0.229-2.086,0.634-3.008
				C10.163,4.684,9.604,4.5,9,4.5c-1.542,0-2.815,1.169-2.982,2.666C3.567,8.319,2,10.771,2,13.5V18c0,0.827-0.673,1.5-1.5,1.5
				C0.224,19.5,0,19.724,0,20s0.224,0.5,0.5,0.5h17c0.276,0,0.5-0.224,0.5-0.5S17.776,19.5,17.5,19.5z"/>
		</g>
	</g>
</g>
<g id="Invisible_Shape">
	<rect fill="none" width="24" height="24"/>
</g>
</svg>
