<?xml version="1.0" encoding="utf-8"?>
<!-- Generator: Adobe Illustrator 19.2.1, SVG Export Plug-In . SVG Version: 6.00 Build 0)  -->
<svg version="1.1" xmlns="http://www.w3.org/2000/svg" xmlns:xlink="http://www.w3.org/1999/xlink" x="0px" y="0px" width="24px"
	 height="24px" viewBox="0 0 24 24" enable-background="new 0 0 24 24" xml:space="preserve">
<g id="Filled_Icons_1_">
	<g id="Filled_Icons">
		<g>
			<path d="M19.5,1c-1.785,0-3.325,1.047-4.052,2.557c2.859,0.946,5.203,3.033,6.486,5.722C23.175,8.477,24,7.084,24,5.5
				C24,3.019,21.981,1,19.5,1z"/>
			<path d="M8.988,3.423C8.236,1.984,6.732,1,5,1C2.519,1,0.5,3.019,0.5,5.5c0,1.423,0.666,2.69,1.699,3.516
				C3.575,6.321,6.028,4.268,8.988,3.423z"/>
			<path d="M12,4C6.486,4,2,8.486,2,14s4.486,10,10,10c5.514,0,10-4.486,10-10S17.514,4,12,4z M13,14.5c0,0.276-0.224,0.5-0.5,0.5
				h-4C8.224,15,8,14.776,8,14.5S8.224,14,8.5,14H12V8.5C12,8.224,12.224,8,12.5,8S13,8.224,13,8.5V14.5z"/>
			<path d="M18.821,22.614c-0.264,0.21-0.537,0.409-0.82,0.594l0.646,0.646c0.195,0.195,0.512,0.195,0.707,0
				c0.195-0.195,0.195-0.512,0-0.707L18.821,22.614z"/>
			<path d="M5.179,22.614l-0.533,0.533c-0.195,0.195-0.195,0.512,0,0.707c0.195,0.195,0.512,0.195,0.707,0l0.646-0.646
				C5.716,23.022,5.443,22.824,5.179,22.614z"/>
		</g>
	</g>
	<g id="New_icons">
	</g>
</g>
<g id="Invisible_Shape">
	<rect fill="none" width="24" height="24"/>
</g>
</svg>
