<?xml version="1.0" encoding="utf-8"?>
<!-- Generator: Adobe Illustrator 19.2.1, SVG Export Plug-In . SVG Version: 6.00 Build 0)  -->
<svg version="1.1" xmlns="http://www.w3.org/2000/svg" xmlns:xlink="http://www.w3.org/1999/xlink" x="0px" y="0px" width="24px"
	 height="24px" viewBox="0 0 24 24" enable-background="new 0 0 24 24" xml:space="preserve">
<g id="Filled_Icons_1_">
	<g id="Filled_Icons">
		<g>
			<path d="M3.5,17H5L16.63,5.249c-0.488-0.431-1.041-0.796-1.648-1.082C14.815,2.669,13.542,1.5,12,1.5S9.185,2.669,9.018,4.166
				C6.567,5.319,5,7.772,5,10.5v4C5,15.327,4.327,16,3.5,16C3.224,16,3,16.224,3,16.5S3.224,17,3.5,17z"/>
			<path d="M20.5,16c-0.827,0-1.5-0.673-1.5-1.5v-4c0-0.984-0.206-1.932-0.583-2.796L9,17h11.5c0.276,0,0.5-0.224,0.5-0.5
				S20.776,16,20.5,16z"/>
			<path d="M14,18h-4c-0.276,0-0.5,0.224-0.5,0.5c0,1.379,1.122,2.5,2.5,2.5s2.5-1.121,2.5-2.5C14.5,18.224,14.276,18,14,18z"/>
			<path d="M23.854,0.147c-0.194-0.194-0.511-0.196-0.707,0l-23,23c-0.196,0.196-0.194,0.513,0,0.707
				c0.001,0.002,0.004,0.002,0.005,0.004c0.191,0.184,0.505,0.184,0.696,0c0.002-0.002,0.004-0.002,0.005-0.004l23-23
				C24.049,0.659,24.05,0.342,23.854,0.147z"/>
		</g>
	</g>
	<g id="New_icons">
	</g>
</g>
<g id="Invisible_Shape">
	<rect fill="none" width="24" height="24"/>
</g>
</svg>
