<?xml version="1.0" encoding="utf-8"?>
<!-- Generator: Adobe Illustrator 19.2.1, SVG Export Plug-In . SVG Version: 6.00 Build 0)  -->
<svg version="1.1" xmlns="http://www.w3.org/2000/svg" xmlns:xlink="http://www.w3.org/1999/xlink" x="0px" y="0px" width="24px"
	 height="24px" viewBox="0 0 24 24" enable-background="new 0 0 24 24" xml:space="preserve">
<g id="Filled_Icons_1_">
	<g id="Filled_Icons">
	</g>
	<g id="New_icons">
		<g>
			<path d="M20.5,2H17V0.5C17,0.224,16.776,0,16.5,0h-3C13.224,0,13,0.224,13,0.5V2H8V0.5C8,0.224,7.776,0,7.5,0h-3
				C4.224,0,4,0.224,4,0.5V2H0.5C0.224,2,0,2.224,0,2.5V7h21V2.5C21,2.224,20.776,2,20.5,2z M7,4H5V1h2V4z M16,4h-2V1h2V4z"/>
			<path d="M11.007,17.786c-0.01-0.191-0.01-0.377,0-0.569c-1.025-0.593-1.151-1.48-0.753-2.167l1.499-2.599
				c0.396-0.685,1.266-1,2.256-0.429c0.159-0.101,0.322-0.196,0.49-0.283c0-1.158,0.683-1.74,1.5-1.74h3c0.817,0,1.5,0.583,1.5,1.74
				c0.167,0.087,0.331,0.182,0.49,0.283L21,12.017V8H0v10.5C0,18.776,0.224,19,0.5,19h9.575
				C10.16,18.357,10.473,18.094,11.007,17.786z"/>
			<path d="M23.695,18.769l-0.765-0.442c0.093-0.613,0.092-1.044,0.001-1.652l0.766-0.442c0.234-0.133,0.324-0.438,0.183-0.683
				l-1.5-2.599c-0.138-0.239-0.443-0.322-0.683-0.182l-0.765,0.441c-0.43-0.345-0.912-0.624-1.433-0.828V11.5
				c0-0.276-0.224-0.5-0.5-0.5h-3c-0.276,0-0.5,0.224-0.5,0.5v0.882c-0.521,0.204-1.003,0.483-1.433,0.828l-0.765-0.441
				c-0.237-0.138-0.545-0.057-0.683,0.182l-1.5,2.599c-0.142,0.245-0.052,0.55,0.183,0.683l0.766,0.442
				c-0.091,0.608-0.092,1.039,0.001,1.652l-0.765,0.442c-0.239,0.138-0.321,0.443-0.183,0.682l1.5,2.599
				c0.137,0.241,0.446,0.32,0.683,0.183l0.765-0.441c0.429,0.344,0.911,0.623,1.431,0.828V23.5c0,0.276,0.224,0.5,0.5,0.5h3
				c0.276,0,0.5-0.224,0.5-0.5v-0.881c0.52-0.205,1.002-0.484,1.431-0.828l0.765,0.441c0.237,0.138,0.546,0.058,0.683-0.183
				l1.5-2.599C24.017,19.212,23.935,18.907,23.695,18.769z M17.5,20c-1.379,0-2.5-1.121-2.5-2.5s1.121-2.5,2.5-2.5
				s2.5,1.121,2.5,2.5S18.879,20,17.5,20z"/>
		</g>
	</g>
</g>
<g id="Invisible_Shape">
	<rect fill="none" width="24" height="24"/>
</g>
</svg>
