<?xml version="1.0" encoding="utf-8"?>
<!-- Generator: Adobe Illustrator 19.2.1, SVG Export Plug-In . SVG Version: 6.00 Build 0)  -->
<svg version="1.1" xmlns="http://www.w3.org/2000/svg" xmlns:xlink="http://www.w3.org/1999/xlink" x="0px" y="0px" width="24px"
	 height="24px" viewBox="0 0 24 24" enable-background="new 0 0 24 24" xml:space="preserve">
<g id="Filled_Icons_1_">
	<g id="Filled_Icons">
	</g>
	<g id="New_icons">
		<g>
			<path d="M20.5,2H17V0.5C17,0.224,16.776,0,16.5,0h-3C13.224,0,13,0.224,13,0.5V2H8V0.5C8,0.224,7.776,0,7.5,0h-3
				C4.224,0,4,0.224,4,0.5V2H0.5C0.224,2,0,2.224,0,2.5V7h21V2.5C21,2.224,20.776,2,20.5,2z M7,4H5V1h2V4z M16,4h-2V1h2V4z"/>
			<path d="M19.441,11.44c0.422-0.423,1.031-0.529,1.559-0.343V8H0v10.5C0,18.776,0.224,19,0.5,19h11.394L19.441,11.44z"/>
			<rect x="13.609" y="16.234" transform="matrix(0.7071 -0.7071 0.7071 0.7071 -8.1038 17.4385)" width="6.78" height="4.535"/>
			<path d="M23.354,14.646l-2.5-2.5c-0.195-0.195-0.512-0.195-0.707,0l-1.647,1.647l3.207,3.207l1.647-1.647
				C23.549,15.159,23.549,14.842,23.354,14.646z"/>
			<path d="M15.346,23.067l-2.917-2.917l-0.911,3.226c-0.046,0.168-0.011,0.353,0.121,0.484c0.131,0.131,0.315,0.166,0.483,0.122
				L15.346,23.067z"/>
		</g>
	</g>
</g>
<g id="Invisible_Shape">
	<rect fill="none" width="24" height="24"/>
</g>
</svg>
