<?xml version="1.0" encoding="utf-8"?>
<!-- Generator: Adobe Illustrator 19.2.1, SVG Export Plug-In . SVG Version: 6.00 Build 0)  -->
<svg version="1.1" xmlns="http://www.w3.org/2000/svg" xmlns:xlink="http://www.w3.org/1999/xlink" x="0px" y="0px" width="24px"
	 height="24px" viewBox="0 0 24 24" enable-background="new 0 0 24 24" xml:space="preserve">
<g id="Filled_Icons_1_">
	<g id="Filled_Icons">
	</g>
	<g id="New_icons">
		<g>
			<path d="M23.5,2H20V0.5C20,0.224,19.776,0,19.5,0h-3C16.225,0,16,0.224,16,0.5V2H8V0.5C8,0.224,7.776,0,7.5,0h-3
				C4.225,0,4,0.224,4,0.5V2H0.5C0.225,2,0,2.224,0,2.5V7h24V2.5C24,2.224,23.776,2,23.5,2z M7,4H5V1h2V4z M19,4h-2V1h2V4z"/>
			<path d="M0,8v15.5C0,23.776,0.225,24,0.5,24h23c0.276,0,0.5-0.224,0.5-0.5V8H0z M7.123,21.482
				c-0.168,0.044-0.352,0.009-0.483-0.122c-0.132-0.132-0.167-0.316-0.121-0.484L7.43,17.65l2.917,2.917L7.123,21.482z M11.207,20
				L8,16.793l4.795-4.795l3.207,3.208L11.207,20z M18.355,12.851l-1.646,1.646l-3.207-3.207l1.646-1.647
				c0.188-0.188,0.52-0.188,0.707,0l2.5,2.5C18.551,12.339,18.551,12.656,18.355,12.851z"/>
		</g>
	</g>
</g>
<g id="Invisible_Shape">
	<rect fill="none" width="24" height="24"/>
</g>
</svg>
