<?xml version="1.0" encoding="utf-8"?>
<!-- Generator: Adobe Illustrator 19.2.1, SVG Export Plug-In . SVG Version: 6.00 Build 0)  -->
<svg version="1.1" xmlns="http://www.w3.org/2000/svg" xmlns:xlink="http://www.w3.org/1999/xlink" x="0px" y="0px" width="24px"
	 height="24px" viewBox="0 0 24 24" enable-background="new 0 0 24 24" xml:space="preserve">
<g id="Filled_Icons_1_">
	<g id="Filled_Icons">
	</g>
	<g id="New_icons">
		<g>
			<path d="M20.5,2H17V0.5C17,0.224,16.776,0,16.5,0h-3C13.224,0,13,0.224,13,0.5V2H8V0.5C8,0.224,7.776,0,7.5,0h-3
				C4.224,0,4,0.224,4,0.5V2H0.5C0.224,2,0,2.224,0,2.5V7h21V2.5C21,2.224,20.776,2,20.5,2z M7,4H5V1h2V4z M16,4h-2V1h2V4z"/>
			<path d="M17.5,11c-3.584,0-6.5,2.916-6.5,6.5s2.916,6.5,6.5,6.5s6.5-2.916,6.5-6.5S21.084,11,17.5,11z M17.5,22.003
				c-0.383,0-0.691-0.309-0.691-0.692c0-0.381,0.309-0.69,0.691-0.69c0.382,0,0.691,0.31,0.691,0.69
				C18.191,21.694,17.882,22.003,17.5,22.003z M18,18.463V19c0,0.276-0.224,0.5-0.5,0.5S17,19.276,17,19v-0.991
				c0-0.276,0.224-0.5,0.5-0.5c0.869,0,1.5-0.635,1.5-1.509c0-0.869-0.631-1.5-1.5-1.5S16,15.131,16,16c0,0.276-0.224,0.5-0.5,0.5
				S15,16.276,15,16c0-1.425,1.075-2.5,2.5-2.5S20,14.575,20,16C20,17.257,19.169,18.243,18,18.463z"/>
			<path d="M10,17.5c0-4.142,3.358-7.5,7.5-7.5c1.265,0,2.455,0.316,3.5,0.869V8H0v10.5C0,18.776,0.224,19,0.5,19h9.65
				C10.052,18.516,10,18.014,10,17.5z"/>
		</g>
	</g>
</g>
<g id="Invisible_Shape">
	<rect fill="none" width="24" height="24"/>
</g>
</svg>
