<?xml version="1.0" encoding="utf-8"?>
<!-- Generator: Adobe Illustrator 19.2.1, SVG Export Plug-In . SVG Version: 6.00 Build 0)  -->
<svg version="1.1" xmlns="http://www.w3.org/2000/svg" xmlns:xlink="http://www.w3.org/1999/xlink" x="0px" y="0px" width="24px"
	 height="24px" viewBox="0 0 24 24" enable-background="new 0 0 24 24" xml:space="preserve">
<g id="Filled_Icons_1_">
	<g id="Filled_Icons">
	</g>
	<g id="New_icons">
		<g>
			<path d="M20.5,2H17V0.5C17,0.224,16.776,0,16.5,0h-3C13.224,0,13,0.224,13,0.5V2H8V0.5C8,0.224,7.776,0,7.5,0h-3
				C4.224,0,4,0.224,4,0.5V2H0.5C0.224,2,0,2.224,0,2.5V7h21V2.5C21,2.224,20.776,2,20.5,2z M7,4H5V1h2V4z M16,4h-2V1h2V4z"/>
			<path d="M11.058,18.913C11.019,18.776,11,18.639,11,18.5v-7.332c0-0.562,0.31-1.072,0.808-1.331
				c0.484-0.253,1.104-0.214,1.555,0.103c1.282,0.898,2.26,1.018,2.953,0.134c0.562-0.718,1.807-0.718,2.37,0
				c0.568,0.725,1.341,0.764,2.315,0.252V8H0v10.5C0,18.776,0.224,19,0.5,19h10.585C11.073,18.964,11.064,18.933,11.058,18.913z"/>
			<path d="M22.731,10.726c-0.166-0.087-0.365-0.074-0.518,0.033c-1.772,1.241-3.306,1.222-4.316-0.066
				c-0.189-0.243-0.605-0.243-0.795,0c-1.012,1.292-2.538,1.311-4.316,0.066c-0.152-0.107-0.352-0.12-0.518-0.033
				C12.104,10.811,12,10.982,12,11.168V18.5c0,0.046,0.006,0.093,0.019,0.137c0.035,0.122,0.896,2.981,5.346,4.227
				c0.044,0.012,0.089,0.018,0.135,0.018s0.091-0.006,0.135-0.018c4.45-1.247,5.312-4.105,5.346-4.227
				C22.994,18.593,23,18.546,23,18.5v-7.332C23,10.982,22.896,10.811,22.731,10.726z M20,17h-2v2c0,0.276-0.224,0.5-0.5,0.5
				S17,19.276,17,19v-2h-2c-0.276,0-0.5-0.224-0.5-0.5S14.724,16,15,16h2v-2c0-0.276,0.224-0.5,0.5-0.5S18,13.724,18,14v2h2
				c0.276,0,0.5,0.224,0.5,0.5S20.276,17,20,17z"/>
		</g>
	</g>
</g>
<g id="Invisible_Shape">
	<rect fill="none" width="24" height="24"/>
</g>
</svg>
