<?xml version="1.0" encoding="utf-8"?>
<!-- Generator: Adobe Illustrator 19.2.1, SVG Export Plug-In . SVG Version: 6.00 Build 0)  -->
<svg version="1.1" xmlns="http://www.w3.org/2000/svg" xmlns:xlink="http://www.w3.org/1999/xlink" x="0px" y="0px" width="24px"
	 height="24px" viewBox="0 0 24 24" enable-background="new 0 0 24 24" xml:space="preserve">
<g id="Filled_Icons_1_">
	<g id="Filled_Icons">
	</g>
	<g id="New_icons">
		<g>
			<path d="M23.5,2H20V0.5C20,0.224,19.776,0,19.5,0h-3C16.225,0,16,0.224,16,0.5V2H8V0.5C8,0.224,7.776,0,7.5,0h-3
				C4.225,0,4,0.224,4,0.5V2H0.5C0.225,2,0,2.224,0,2.5V7h24V2.5C24,2.224,23.776,2,23.5,2z M7,4H5V1h2V4z M19,4h-2V1h2V4z"/>
			<path d="M12,10c-1.654,0-3,1.346-3,3h6C15,11.346,13.654,10,12,10z"/>
			<path d="M0,8v15.5C0,23.776,0.225,24,0.5,24h23c0.276,0,0.5-0.224,0.5-0.5V8H0z M17,20.5c0,0.276-0.224,0.5-0.5,0.5h-9
				C7.224,21,7,20.776,7,20.5v-7C7,13.224,7.224,13,7.5,13H8c0-2.206,1.794-4,4-4s4,1.794,4,4h0.5c0.276,0,0.5,0.224,0.5,0.5V20.5z"
				/>
			<path d="M12.5,16.847l-0.001,1.654c0,0.276-0.224,0.5-0.5,0.5c-0.276,0-0.5-0.224-0.5-0.5l0.001-1.654
				C11.206,16.672,11,16.365,11,16c0-0.552,0.448-1,1-1s1,0.448,1,1C13,16.365,12.793,16.672,12.5,16.847z"/>
		</g>
	</g>
</g>
<g id="Invisible_Shape">
	<rect fill="none" width="24" height="24"/>
</g>
</svg>
