<?xml version="1.0" encoding="utf-8"?>
<!-- Generator: Adobe Illustrator 19.2.1, SVG Export Plug-In . SVG Version: 6.00 Build 0)  -->
<svg version="1.1" xmlns="http://www.w3.org/2000/svg" xmlns:xlink="http://www.w3.org/1999/xlink" x="0px" y="0px" width="24px"
	 height="24px" viewBox="0 0 24 24" enable-background="new 0 0 24 24" xml:space="preserve">
<g id="Filled_Icons_1_">
	<g id="Filled_Icons">
	</g>
	<g id="New_icons">
		<g>
			<path d="M20.5,2H17V0.5C17,0.224,16.776,0,16.5,0h-3C13.224,0,13,0.224,13,0.5V2H8V0.5C8,0.224,7.776,0,7.5,0h-3
				C4.224,0,4,0.224,4,0.5V2H0.5C0.224,2,0,2.224,0,2.5V7h21V2.5C21,2.224,20.776,2,20.5,2z M7,4H5V1h2V4z M16,4h-2V1h2V4z"/>
			<path d="M21,14.707L14.707,21c0.77,0.616,1.733,1,2.793,1c2.481,0,4.5-2.018,4.5-4.5C22,16.44,21.616,15.477,21,14.707z"/>
			<path d="M20.294,14c-0.77-0.615-1.733-1-2.794-1c-2.481,0-4.5,2.019-4.5,4.5c0,1.06,0.384,2.023,1,2.793L20.294,14z"/>
			<path d="M17.5,11c-3.584,0-6.5,2.915-6.5,6.5c0,3.584,2.916,6.5,6.5,6.5s6.5-2.916,6.5-6.5C24,13.915,21.084,11,17.5,11z
				 M17.5,23c-3.033,0-5.5-2.467-5.5-5.5s2.467-5.5,5.5-5.5s5.5,2.467,5.5,5.5S20.533,23,17.5,23z"/>
			<path d="M10,17.5c0-4.142,3.358-7.5,7.5-7.5c1.265,0,2.455,0.316,3.5,0.869V8H0v10.5C0,18.776,0.224,19,0.5,19h9.65
				C10.052,18.515,10,18.014,10,17.5z"/>
		</g>
	</g>
</g>
<g id="Invisible_Shape">
	<rect fill="none" width="24" height="24"/>
</g>
</svg>
