<?xml version="1.0" encoding="utf-8"?>
<!-- Generator: Adobe Illustrator 19.2.1, SVG Export Plug-In . SVG Version: 6.00 Build 0)  -->
<svg version="1.1" xmlns="http://www.w3.org/2000/svg" xmlns:xlink="http://www.w3.org/1999/xlink" x="0px" y="0px" width="24px"
	 height="24px" viewBox="0 0 24 24" enable-background="new 0 0 24 24" xml:space="preserve">
<g id="Filled_Icons_1_">
	<g id="Filled_Icons">
	</g>
	<g id="New_icons">
		<g>
			<path d="M23.5,2H20V0.5C20,0.224,19.776,0,19.5,0h-3C16.225,0,16,0.224,16,0.5V2H8V0.5C8,0.224,7.776,0,7.5,0h-3
				C4.225,0,4,0.224,4,0.5V2H0.5C0.225,2,0,2.224,0,2.5V7h24V2.5C24,2.224,23.776,2,23.5,2z M7,4H5V1h2V4z M19,4h-2V1h2V4z"/>
			<path d="M0,8v15.5C0,23.776,0.225,24,0.5,24h23c0.276,0,0.5-0.224,0.5-0.5V8H0z M12.045,15.048c1.403,0,2.545,1.142,2.545,2.544
				c0,1.232-0.88,2.262-2.045,2.495V21c0,0.276-0.224,0.5-0.5,0.5c-0.276,0-0.5-0.224-0.5-0.5v-0.913
				C10.38,19.854,9.5,18.824,9.5,17.592c0-0.276,0.224-0.5,0.5-0.5s0.5,0.224,0.5,0.5c0,0.852,0.693,1.545,1.545,1.545
				c0.852,0,1.545-0.693,1.545-1.545c0-0.852-0.693-1.544-1.545-1.544c-1.403,0-2.545-1.142-2.545-2.546
				c0-1.232,0.88-2.261,2.045-2.494v-0.914c0-0.276,0.224-0.5,0.5-0.5c0.276,0,0.5,0.224,0.5,0.5v0.914
				c1.165,0.232,2.045,1.262,2.045,2.494c0,0.276-0.224,0.5-0.5,0.5c-0.276,0-0.5-0.224-0.5-0.5c0-0.852-0.693-1.545-1.545-1.545
				c-0.852,0-1.545,0.693-1.545,1.545C10.5,14.354,11.193,15.048,12.045,15.048z"/>
		</g>
	</g>
</g>
<g id="Invisible_Shape">
	<rect fill="none" width="24" height="24"/>
</g>
</svg>
