<?xml version="1.0" encoding="utf-8"?>
<!-- Generator: Adobe Illustrator 19.2.1, SVG Export Plug-In . SVG Version: 6.00 Build 0)  -->
<svg version="1.1" xmlns="http://www.w3.org/2000/svg" xmlns:xlink="http://www.w3.org/1999/xlink" x="0px" y="0px" width="24px"
	 height="24px" viewBox="0 0 24 24" enable-background="new 0 0 24 24" xml:space="preserve">
<g id="Filled_Icons_1_">
	<g id="Filled_Icons">
	</g>
	<g id="New_icons">
		<g>
			<path d="M20.5,2H17V0.5C17,0.224,16.776,0,16.5,0h-3C13.224,0,13,0.224,13,0.5V2H8V0.5C8,0.224,7.776,0,7.5,0h-3
				C4.224,0,4,0.224,4,0.5V2H0.5C0.224,2,0,2.224,0,2.5V7h21V2.5C21,2.224,20.776,2,20.5,2z M7,4H5V1h2V4z M16,4h-2V1h2V4z"/>
			<path d="M14.028,14c0.25-2.247,2.16-4,4.472-4c0.928,0,1.783,0.292,2.5,0.774V8H0v10.5C0,18.776,0.224,19,0.5,19H12v-3.5
				c0-0.827,0.673-1.5,1.5-1.5H14.028z"/>
			<path d="M23.5,15H22v-0.5c0-1.93-1.57-3.5-3.5-3.5S15,12.57,15,14.5V15h-1.5c-0.276,0-0.5,0.224-0.5,0.5v8
				c0,0.276,0.224,0.5,0.5,0.5h10c0.276,0,0.5-0.224,0.5-0.5v-8C24,15.224,23.776,15,23.5,15z M19,19.347V21
				c0,0.276-0.224,0.5-0.5,0.5S18,21.276,18,21v-1.653c-0.293-0.175-0.5-0.482-0.5-0.847c0-0.552,0.448-1,1-1s1,0.448,1,1
				C19.5,18.865,19.293,19.172,19,19.347z M21,15h-5v-0.5c0-1.379,1.121-2.5,2.5-2.5s2.5,1.121,2.5,2.5V15z"/>
		</g>
	</g>
</g>
<g id="Invisible_Shape">
	<rect fill="none" width="24" height="24"/>
</g>
</svg>
