<?xml version="1.0" encoding="utf-8"?>
<!-- Generator: Adobe Illustrator 19.2.1, SVG Export Plug-In . SVG Version: 6.00 Build 0)  -->
<svg version="1.1" xmlns="http://www.w3.org/2000/svg" xmlns:xlink="http://www.w3.org/1999/xlink" x="0px" y="0px" width="24px"
	 height="24px" viewBox="0 0 24 24" enable-background="new 0 0 24 24" xml:space="preserve">
<g id="Filled_Icons_1_">
	<g id="Filled_Icons">
	</g>
	<g id="New_icons">
		<path d="M20.5,2H17V0.5C17,0.224,16.776,0,16.5,0h-3C13.224,0,13,0.224,13,0.5V2H8V0.5C8,0.224,7.776,0,7.5,0h-3
			C4.224,0,4,0.224,4,0.5V2H0.5C0.224,2,0,2.224,0,2.5V7h21V2.5C21,2.224,20.776,2,20.5,2z M7,4H5V1h2V4z M16,4h-2V1h2V4z"/>
		<path d="M17.5,11c-3.584,0-6.5,2.916-6.5,6.5s2.916,6.5,6.5,6.5s6.5-2.916,6.5-6.5S21.084,11,17.5,11z M21.597,15.9l-4.096,4.357
			c-0.092,0.097-0.219,0.154-0.353,0.158c-0.003,0-0.007,0-0.011,0c-0.13,0-0.255-0.051-0.348-0.141l-2.925-2.84
			c-0.198-0.192-0.203-0.509-0.011-0.707c0.192-0.199,0.509-0.203,0.707-0.011l2.561,2.485l3.748-3.987
			c0.188-0.202,0.506-0.211,0.706-0.022C21.776,15.383,21.786,15.699,21.597,15.9z"/>
		<path d="M10,17.5c0-4.142,3.358-7.5,7.5-7.5c1.265,0,2.455,0.316,3.5,0.869V8H0v10.5C0,18.776,0.224,19,0.5,19h9.65
			C10.052,18.516,10,18.014,10,17.5z"/>
	</g>
</g>
<g id="Invisible_Shape">
	<rect fill="none" width="24" height="24"/>
</g>
</svg>
