<?xml version="1.0" encoding="utf-8"?>
<!-- Generator: Adobe Illustrator 19.2.1, SVG Export Plug-In . SVG Version: 6.00 Build 0)  -->
<svg version="1.1" xmlns="http://www.w3.org/2000/svg" xmlns:xlink="http://www.w3.org/1999/xlink" x="0px" y="0px" width="24px"
	 height="24px" viewBox="0 0 24 24" enable-background="new 0 0 24 24" xml:space="preserve">
<g id="Filled_Icons_1_">
	<g id="Filled_Icons">
	</g>
	<g id="New_icons">
		<g>
			<path d="M23.5,2H20V0.5C20,0.224,19.776,0,19.5,0h-3C16.225,0,16,0.224,16,0.5V2H8V0.5C8,0.224,7.776,0,7.5,0h-3
				C4.225,0,4,0.224,4,0.5V2H0.5C0.225,2,0,2.224,0,2.5V7h24V2.5C24,2.224,23.776,2,23.5,2z M7,4H5V1h2V4z M19,4h-2V1h2V4z"/>
			<path d="M0,8v15.5C0,23.776,0.225,24,0.5,24h23c0.276,0,0.5-0.224,0.5-0.5V8H0z M17.205,19.292c0.391,0.39,0.391,1.024,0,1.414
				c-0.391,0.391-1.023,0.391-1.414,0l-3.793-3.792l-3.792,3.792c-0.39,0.391-1.024,0.391-1.414,0c-0.391-0.391-0.391-1.024,0-1.414
				l3.792-3.792l-3.792-3.792c-0.391-0.391-0.391-1.024,0-1.415c0.39-0.39,1.024-0.39,1.415,0.001l3.792,3.792l3.792-3.792
				c0.391-0.391,1.024-0.391,1.415,0c0.39,0.39,0.39,1.025-0.001,1.415L13.413,15.5L17.205,19.292z"/>
		</g>
	</g>
</g>
<g id="Invisible_Shape">
	<rect fill="none" width="24" height="24"/>
</g>
</svg>
