<?xml version="1.0" encoding="utf-8"?>
<!-- Generator: Adobe Illustrator 19.2.1, SVG Export Plug-In . SVG Version: 6.00 Build 0)  -->
<svg version="1.1" xmlns="http://www.w3.org/2000/svg" xmlns:xlink="http://www.w3.org/1999/xlink" x="0px" y="0px" width="24px"
	 height="24px" viewBox="0 0 24 24" enable-background="new 0 0 24 24" xml:space="preserve">
<g id="Filled_Icons_1_">
	<g id="Filled_Icons">
	</g>
	<g id="New_icons">
		<g>
			<path d="M23.5,2H20V0.5C20,0.224,19.776,0,19.5,0h-3C16.225,0,16,0.224,16,0.5V2H8V0.5C8,0.224,7.776,0,7.5,0h-3
				C4.225,0,4,0.224,4,0.5V2H0.5C0.225,2,0,2.224,0,2.5V7h24V2.5C24,2.224,23.776,2,23.5,2z M7,4H5V1h2V4z M19,4h-2V1h2V4z"/>
			<path d="M0,8v15.5C0,23.776,0.225,24,0.5,24h23c0.276,0,0.5-0.224,0.5-0.5V8H0z M17.791,13.907l-3.168,2.265l1.834,4.125
				c0.092,0.208,0.033,0.452-0.146,0.594c-0.178,0.141-0.43,0.145-0.611,0.009L12,18.125l-3.7,2.774
				c-0.181,0.136-0.433,0.132-0.611-0.009c-0.178-0.142-0.238-0.386-0.146-0.594l1.834-4.127l-3.168-2.263
				c-0.177-0.126-0.252-0.352-0.186-0.559C6.09,13.141,6.283,13,6.5,13h3.67l1.37-3.197c0.157-0.368,0.762-0.368,0.919,0L13.83,13
				h3.67c0.217,0,0.41,0.141,0.476,0.347C18.042,13.555,17.968,13.78,17.791,13.907z"/>
		</g>
	</g>
</g>
<g id="Invisible_Shape">
	<rect fill="none" width="24" height="24"/>
</g>
</svg>
