<?xml version="1.0" encoding="utf-8"?>
<!-- Generator: Adobe Illustrator 19.2.1, SVG Export Plug-In . SVG Version: 6.00 Build 0)  -->
<svg version="1.1" xmlns="http://www.w3.org/2000/svg" xmlns:xlink="http://www.w3.org/1999/xlink" x="0px" y="0px" width="24px"
	 height="24px" viewBox="0 0 24 24" enable-background="new 0 0 24 24" xml:space="preserve">
<g id="Filled_Icons_1_">
	<g id="Filled_Icons">
	</g>
	<g id="New_icons">
		<g>
			<path d="M20.5,2H17V0.5C17,0.224,16.776,0,16.5,0h-3C13.224,0,13,0.224,13,0.5V2H8V0.5C8,0.224,7.776,0,7.5,0h-3
				C4.224,0,4,0.224,4,0.5V2H0.5C0.224,2,0,2.224,0,2.5V7h21V2.5C21,2.224,20.776,2,20.5,2z M7,4H5V1h2V4z M16,4h-2V1h2V4z"/>
			<path d="M23.971,15.327C23.898,15.131,23.711,15,23.5,15h-3.191l-1.854-3.726C18.371,11.104,18.188,11,18,11
				c-0.19,0-0.363,0.107-0.447,0.277L15.699,15h-3.191c-0.211,0-0.398,0.133-0.471,0.33c-0.07,0.199-0.012,0.42,0.15,0.555
				l2.738,2.281l-1.391,4.17c-0.07,0.202-0.014,0.434,0.17,0.566c0.178,0.131,0.408,0.121,0.578,0.003l3.723-2.545l3.719,2.542
				c0.17,0.118,0.4,0.128,0.578-0.003c0.184-0.133,0.241-0.364,0.17-0.566l-1.391-4.17l2.738-2.281
				C23.982,15.748,24.041,15.526,23.971,15.327z"/>
			<path d="M13.753,18.497l-2.214-1.845c-0.485-0.404-0.665-1.069-0.45-1.663C11.305,14.396,11.869,14,12.5,14h2.575l1.592-3.173
				C16.922,10.32,17.44,10,18.008,10c0.001,0,0.002,0,0.003,0c0.568,0.001,1.087,0.323,1.34,0.832L20.929,14H21l0-6H0v10.5
				C0,18.776,0.224,19,0.5,19h13.086L13.753,18.497z"/>
		</g>
	</g>
</g>
<g id="Invisible_Shape">
	<rect fill="none" width="24" height="24"/>
</g>
</svg>
