<?xml version="1.0" encoding="utf-8"?>
<!-- Generator: Adobe Illustrator 19.2.1, SVG Export Plug-In . SVG Version: 6.00 Build 0)  -->
<svg version="1.1" xmlns="http://www.w3.org/2000/svg" xmlns:xlink="http://www.w3.org/1999/xlink" x="0px" y="0px" width="24px"
	 height="24px" viewBox="0 0 24 24" enable-background="new 0 0 24 24" xml:space="preserve">
<g id="Filled_Icons_1_">
	<g id="Filled_Icons">
	</g>
	<g id="New_icons">
		<g>
			<path d="M20.5,2H17V0.5C17,0.224,16.776,0,16.5,0h-3C13.224,0,13,0.224,13,0.5V2H8V0.5C8,0.224,7.776,0,7.5,0h-3
				C4.224,0,4,0.224,4,0.5V2H0.5C0.224,2,0,2.224,0,2.5V7h21V2.5C21,2.224,20.776,2,20.5,2z M7,4H5V1h2V4z M16,4h-2V1h2V4z"/>
			<path d="M23.758,15.571l-7.5-4.5c-0.158-0.094-0.357-0.094-0.516,0l-7.5,4.5c-0.236,0.143-0.312,0.449-0.171,0.686
				c0.142,0.236,0.448,0.312,0.687,0.171L16,12.083l7.242,4.346c0.238,0.142,0.545,0.065,0.686-0.171
				C24.07,16.021,23.994,15.714,23.758,15.571z"/>
			<path d="M16,13.25l-5,3v5.25c0,0.276,0.224,0.5,0.5,0.5H14v-4.5c0-0.276,0.224-0.5,0.5-0.5h3c0.276,0,0.5,0.224,0.5,0.5V22h2.5
				c0.276,0,0.5-0.224,0.5-0.5v-5.25L16,13.25z"/>
			<path d="M0,8v10.5C0,18.776,0.224,19,0.5,19H10v-2.15l-0.729,0.437c-0.711,0.426-1.632,0.196-2.059-0.515
				c-0.426-0.71-0.195-1.632,0.515-2.058c0.002-0.002,7.5-4.5,7.5-4.5c0.468-0.28,1.077-0.28,1.543,0L21,12.75V8H0z"/>
		</g>
	</g>
</g>
<g id="Invisible_Shape">
	<rect fill="none" width="24" height="24"/>
</g>
</svg>
