<?xml version="1.0" encoding="utf-8"?>
<!-- Generator: Adobe Illustrator 19.2.1, SVG Export Plug-In . SVG Version: 6.00 Build 0)  -->
<svg version="1.1" xmlns="http://www.w3.org/2000/svg" xmlns:xlink="http://www.w3.org/1999/xlink" x="0px" y="0px" width="24px"
	 height="24px" viewBox="0 0 24 24" enable-background="new 0 0 24 24" xml:space="preserve">
<g id="Filled_Icons_1_">
	<g id="Filled_Icons">
	</g>
	<g id="New_icons">
		<g>
			<path d="M20.5,2H17V0.5C17,0.224,16.776,0,16.5,0h-3C13.224,0,13,0.224,13,0.5V2H8V0.5C8,0.224,7.776,0,7.5,0h-3
				C4.224,0,4,0.224,4,0.5V2H0.5C0.224,2,0,2.224,0,2.5V7h21V2.5C21,2.224,20.776,2,20.5,2z M7,4H5V1h2V4z M16,4h-2V1h2V4z"/>
			<path d="M11.5,17c0-3.038,2.462-5.5,5.5-5.5c1.578,0,2.997,0.668,4,1.732V8H0v10.5C0,18.776,0.224,19,0.5,19h11.381
				C11.638,18.379,11.5,17.706,11.5,17z"/>
			<path d="M23.354,22.646L20.5,19.793c0.616-0.77,1-1.733,1-2.793c0-2.481-2.018-4.5-4.499-4.5c-2.481,0-4.501,2.019-4.501,4.5
				c0,2.48,2.019,4.5,4.501,4.5c1.059,0,2.022-0.385,2.792-1l2.854,2.854c0.195,0.195,0.512,0.195,0.707,0
				C23.549,23.159,23.549,22.842,23.354,22.646z M17.001,20.5c-1.931,0-3.501-1.57-3.501-3.5s1.57-3.5,3.501-3.5
				c1.929,0,3.499,1.57,3.499,3.5S18.93,20.5,17.001,20.5z"/>
		</g>
	</g>
</g>
<g id="Invisible_Shape">
	<rect fill="none" width="24" height="24"/>
</g>
</svg>
