<?xml version="1.0" encoding="utf-8"?>
<!-- Generator: Adobe Illustrator 19.2.1, SVG Export Plug-In . SVG Version: 6.00 Build 0)  -->
<svg version="1.1" xmlns="http://www.w3.org/2000/svg" xmlns:xlink="http://www.w3.org/1999/xlink" x="0px" y="0px" width="24px"
	 height="24px" viewBox="0 0 24 24" enable-background="new 0 0 24 24" xml:space="preserve">
<g id="Filled_Icons_1_">
	<g id="Filled_Icons">
	</g>
	<g id="New_icons">
		<g>
			<path d="M20.5,2H17V0.5C17,0.224,16.776,0,16.5,0h-3C13.224,0,13,0.224,13,0.5V2H8V0.5C8,0.224,7.776,0,7.5,0h-3
				C4.224,0,4,0.224,4,0.5V2H0.5C0.224,2,0,2.224,0,2.5V7h21V2.5C21,2.224,20.776,2,20.5,2z M7,4H5V1h2V4z M16,4h-2V1h2V4z"/>
			<path d="M10,17.5c0-4.142,3.358-7.5,7.5-7.5c1.265,0,2.455,0.316,3.5,0.869V8H0v10.5C0,18.776,0.224,19,0.5,19h9.65
				C10.052,18.516,10,18.014,10,17.5z"/>
			<path d="M17.5,11c-3.59,0-6.5,2.91-6.5,6.5s2.91,6.5,6.5,6.5s6.5-2.91,6.5-6.5S21.09,11,17.5,11z M20,17
				c-0.195,0.195-0.512,0.195-0.707,0L18,15.707V20.5c0,0.276-0.224,0.5-0.5,0.5S17,20.776,17,20.5v-4.793L15.707,17
				c-0.195,0.195-0.512,0.195-0.707,0s-0.195-0.512,0-0.707l2.146-2.146c0.195-0.195,0.512-0.195,0.707,0L20,16.293
				C20.195,16.488,20.195,16.805,20,17z"/>
		</g>
	</g>
</g>
<g id="Invisible_Shape">
	<rect fill="none" width="24" height="24"/>
</g>
</svg>
