<?xml version="1.0" encoding="utf-8"?>
<!-- Generator: Adobe Illustrator 19.2.1, SVG Export Plug-In . SVG Version: 6.00 Build 0)  -->
<svg version="1.1" xmlns="http://www.w3.org/2000/svg" xmlns:xlink="http://www.w3.org/1999/xlink" x="0px" y="0px" width="24px"
	 height="24px" viewBox="0 0 24 24" enable-background="new 0 0 24 24" xml:space="preserve">
<g id="Filled_Icons_1_">
	<g id="Filled_Icons">
	</g>
	<g id="New_icons">
		<g>
			<path d="M20.5,2H17V0.5C17,0.224,16.776,0,16.5,0h-3C13.224,0,13,0.224,13,0.5V2H8V0.5C8,0.224,7.776,0,7.5,0h-3
				C4.224,0,4,0.224,4,0.5V2H0.5C0.224,2,0,2.224,0,2.5V7h21V2.5C21,2.224,20.776,2,20.5,2z M7,4H5V1h2V4z M16,4h-2V1h2V4z"/>
			<path d="M9,17.5c0-1.93,1.57-3.5,3.5-3.5c0.789,0,1.539,0.266,2.148,0.748l2.353-1.176C17,13.548,17,13.524,17,13.5
				c0-1.93,1.57-3.5,3.5-3.5c0.171,0,0.335,0.026,0.5,0.051V8H0v10.5C0,18.776,0.224,19,0.5,19h8.851C9.133,18.544,9,18.039,9,17.5z
				"/>
			<path d="M20.5,18c-0.891,0-1.668,0.472-2.111,1.175l-3.428-1.286C14.981,17.761,15,17.633,15,17.5
				c0-0.224-0.039-0.438-0.095-0.645l3.638-1.818C19.001,15.619,19.704,16,20.5,16c1.378,0,2.5-1.122,2.5-2.5S21.878,11,20.5,11
				S18,12.122,18,13.5c0,0.224,0.039,0.436,0.095,0.644l-3.639,1.818C13.998,15.381,13.296,15,12.5,15c-1.378,0-2.5,1.122-2.5,2.5
				s1.122,2.5,2.5,2.5c0.891,0,1.668-0.472,2.111-1.174l3.428,1.286C18.019,20.239,18,20.367,18,20.5c0,1.378,1.122,2.5,2.5,2.5
				s2.5-1.122,2.5-2.5S21.878,18,20.5,18z M20.5,12c0.827,0,1.5,0.673,1.5,1.5S21.327,15,20.5,15S19,14.327,19,13.5
				S19.673,12,20.5,12z M12.5,19c-0.827,0-1.5-0.673-1.5-1.5s0.673-1.5,1.5-1.5s1.5,0.673,1.5,1.5S13.327,19,12.5,19z M20.5,22
				c-0.827,0-1.5-0.673-1.5-1.5s0.673-1.5,1.5-1.5s1.5,0.673,1.5,1.5S21.327,22,20.5,22z"/>
		</g>
	</g>
</g>
<g id="Invisible_Shape">
	<rect fill="none" width="24" height="24"/>
</g>
</svg>
