<?xml version="1.0" encoding="utf-8"?>
<!-- Generator: Adobe Illustrator 19.2.1, SVG Export Plug-In . SVG Version: 6.00 Build 0)  -->
<svg version="1.1" xmlns="http://www.w3.org/2000/svg" xmlns:xlink="http://www.w3.org/1999/xlink" x="0px" y="0px" width="24px"
	 height="24px" viewBox="0 0 24 24" enable-background="new 0 0 24 24" xml:space="preserve">
<g id="Filled_Icons_1_">
	<g id="Filled_Icons">
		<g>
			<path d="M21,0H3C1.346,0,0,1.346,0,3v18c0,1.654,1.346,3,3,3h18c1.654,0,3-1.346,3-3V3C24,1.346,22.654,0,21,0z M12,20
				c-4.411,0-8-3.589-8-8s3.589-8,8-8s8,3.589,8,8S16.411,20,12,20z"/>
			<g>
				<path d="M15,13h-3.5c-0.276,0-0.5-0.224-0.5-0.5V7c0-0.276,0.224-0.5,0.5-0.5S12,6.724,12,7v5h3c0.276,0,0.5,0.224,0.5,0.5
					S15.276,13,15,13z"/>
			</g>
		</g>
	</g>
	<g id="New_icons">
	</g>
</g>
<g id="Invisible_Shape">
	<rect fill="none" width="24" height="24"/>
</g>
</svg>
