<?xml version="1.0" encoding="utf-8"?>
<!-- Generator: Adobe Illustrator 19.2.1, SVG Export Plug-In . SVG Version: 6.00 Build 0)  -->
<svg version="1.1" xmlns="http://www.w3.org/2000/svg" xmlns:xlink="http://www.w3.org/1999/xlink" x="0px" y="0px" width="24px"
	 height="24px" viewBox="0 0 24 24" enable-background="new 0 0 24 24" xml:space="preserve">
<g id="Filled_Icons_1_">
	<g id="Filled_Icons">
		<path d="M12,0C5.383,0,0,5.383,0,12s5.383,12,12,12s12-5.383,12-12S18.617,0,12,0z M18.354,18.354
			c-0.195,0.195-0.512,0.195-0.707,0l-4.638-4.637C12.711,13.893,12.37,14,12,14c-1.102,0-2-0.896-2-2c0-0.737,0.405-1.375,1-1.722
			V6.5C11,6.224,11.224,6,11.5,6S12,6.224,12,6.5V10c1.103,0,2,0.896,2,2c0,0.37-0.108,0.713-0.284,1.011l4.637,4.636
			C18.549,17.842,18.549,18.159,18.354,18.354z"/>
	</g>
	<g id="New_icons">
	</g>
</g>
<g id="Invisible_Shape">
	<rect fill="none" width="24" height="24"/>
</g>
</svg>
