<?xml version="1.0" encoding="utf-8"?>
<!-- Generator: Adobe Illustrator 19.2.1, SVG Export Plug-In . SVG Version: 6.00 Build 0)  -->
<svg version="1.1" xmlns="http://www.w3.org/2000/svg" xmlns:xlink="http://www.w3.org/1999/xlink" x="0px" y="0px" width="24px"
	 height="24px" viewBox="0 0 24 24" enable-background="new 0 0 24 24" xml:space="preserve">
<g id="Filled_Icons_1_">
	<g id="Filled_Icons">
		<path d="M19.426,4.732c-0.079-0.132-0.215-0.22-0.367-0.239c-0.152-0.02-0.306,0.033-0.415,0.142
			c-0.679,0.676-1.577,1.393-2.186,1.697c-0.141-1.584-0.817-2.176-1.373-2.664c-0.622-0.544-1.071-0.939-0.601-3.042
			c0.037-0.163-0.01-0.333-0.125-0.453c-0.114-0.121-0.281-0.175-0.445-0.149c-2.5,0.418-4.128,1.25-4.978,2.542
			C8.274,3.576,8.085,4.841,8.364,6.419C6.812,6.07,5.367,4.646,5.351,4.63C5.248,4.527,5.107,4.476,4.962,4.485
			c-0.145,0.01-0.277,0.082-0.364,0.199c-0.032,0.043-3.091,4.235,0.21,7.814c-0.514,1.055-0.811,2.235-0.811,3.485
			c0,4.411,3.589,8,8,8c4.411,0,8-3.589,8-8c0-1.197-0.272-2.33-0.746-3.351C21.788,10.41,20.507,6.531,19.426,4.732z
			 M15.877,19.829c-0.182,0.208-0.498,0.229-0.706,0.047l-4-3.5C11.062,16.281,11,16.144,11,16v-4c0-0.276,0.224-0.5,0.5-0.5
			S12,11.724,12,12v3.773l3.829,3.351C16.038,19.306,16.058,19.621,15.877,19.829z M11.998,7.983c-2.786,0-5.241,1.433-6.673,3.599
			C3.432,9.283,4.512,6.769,5.1,5.748c0.744,0.625,2.293,1.737,3.895,1.748c0.116-0.027,0.3-0.069,0.395-0.19
			c0.096-0.122,0.13-0.279,0.093-0.43c-0.401-1.622-0.307-2.853,0.29-3.76c0.611-0.93,1.79-1.578,3.596-1.97
			c-0.289,1.912,0.264,2.58,1.058,3.275c0.547,0.48,1.063,0.932,1.058,2.562c-0.001,0.133,0.052,0.261,0.146,0.354
			c0.094,0.094,0.221,0.147,0.354,0.147c0.88,0,2.155-1.025,2.876-1.677c0.583,1.22,1.687,4.145-0.098,5.928
			C17.346,9.485,14.847,7.983,11.998,7.983z"/>
	</g>
	<g id="New_icons">
	</g>
</g>
<g id="Invisible_Shape">
	<rect fill="none" width="24" height="24"/>
</g>
</svg>
