<?xml version="1.0" encoding="utf-8"?>
<!-- Generator: Adobe Illustrator 19.2.1, SVG Export Plug-In . SVG Version: 6.00 Build 0)  -->
<svg version="1.1" xmlns="http://www.w3.org/2000/svg" xmlns:xlink="http://www.w3.org/1999/xlink" x="0px" y="0px" width="24px"
	 height="24px" viewBox="0 0 24 24" enable-background="new 0 0 24 24" xml:space="preserve">
<g id="Filled_Icons_1_">
	<g id="Filled_Icons">
		<path d="M21,23h-1.172l-4.782-11l4.782-11H21c0.275,0,0.5-0.224,0.5-0.5S21.275,0,21,0H3C2.724,0,2.5,0.224,2.5,0.5S2.724,1,3,1
			h1.172l4.783,11L4.172,23H3c-0.276,0-0.5,0.224-0.5,0.5S2.724,24,3,24h18c0.275,0,0.5-0.224,0.5-0.5S21.275,23,21,23z M9.08,5.229
			C9.172,5.086,9.33,5,9.5,5h5c0.17,0,0.329,0.086,0.42,0.229c0.092,0.143,0.106,0.323,0.035,0.477l-2.5,5.5
			C12.374,11.385,12.196,11.5,12,11.5c-0.196,0-0.374-0.115-0.455-0.293l-2.5-5.5C8.974,5.553,8.988,5.372,9.08,5.229z M16.01,22
			c-0.004,0-0.007,0-0.01,0H8c-0.181,0-0.348-0.098-0.437-0.256c-0.088-0.158-0.084-0.351,0.011-0.506l4-6.5
			c0.182-0.296,0.67-0.296,0.852,0l3.955,6.426c0.08,0.089,0.13,0.207,0.13,0.336C16.51,21.776,16.286,22,16.01,22z"/>
	</g>
	<g id="New_icons">
	</g>
</g>
<g id="Invisible_Shape">
	<rect fill="none" width="24" height="24"/>
</g>
</svg>
