<?xml version="1.0" encoding="utf-8"?>
<!-- Generator: Adobe Illustrator 19.2.1, SVG Export Plug-In . SVG Version: 6.00 Build 0)  -->
<svg version="1.1" xmlns="http://www.w3.org/2000/svg" xmlns:xlink="http://www.w3.org/1999/xlink" x="0px" y="0px" width="24px"
	 height="24px" viewBox="0 0 24 24" enable-background="new 0 0 24 24" xml:space="preserve">
<g id="Filled_Icons_1_">
	<g id="Filled_Icons">
		<path d="M20.5,23H19v-4.5c0-2.939-1.822-5.455-4.393-6.491C16.915,11.077,19,8.657,19,5.5V1h1.5C20.776,1,21,0.776,21,0.5
			S20.776,0,20.5,0h-17C3.224,0,3,0.224,3,0.5S3.224,1,3.5,1H5v4.5c0,3.173,2.106,5.583,4.393,6.509C6.822,13.045,5,15.561,5,18.5
			V23H3.5C3.224,23,3,23.224,3,23.5S3.224,24,3.5,24h17c0.276,0,0.5-0.224,0.5-0.5S20.776,23,20.5,23z M7.137,9
			C6.424,8.014,6,6.807,6,5.5V1h12v4.5c0,1.307-0.424,2.514-1.136,3.5H7.137z M18,19h-2.793l-2.853-2.854
			c-0.195-0.195-0.512-0.195-0.707,0L8.793,19H6v-0.5c0-3.309,2.692-6,6-6s6,2.691,6,6V19z"/>
	</g>
	<g id="New_icons">
	</g>
</g>
<g id="Invisible_Shape">
	<rect fill="none" width="24" height="24"/>
</g>
</svg>
