<?xml version="1.0" encoding="utf-8"?>
<!-- Generator: Adobe Illustrator 19.2.1, SVG Export Plug-In . SVG Version: 6.00 Build 0)  -->
<svg version="1.1" xmlns="http://www.w3.org/2000/svg" xmlns:xlink="http://www.w3.org/1999/xlink" x="0px" y="0px" width="24px"
	 height="24px" viewBox="0 0 24 24" enable-background="new 0 0 24 24" xml:space="preserve">
<g id="Filled_Icons_1_">
	<g id="Filled_Icons">
		<g>
			<path d="M9,1h1v1.5C10,2.776,10.224,3,10.5,3h3C13.776,3,14,2.776,14,2.5V1h1c0.276,0,0.5-0.224,0.5-0.5S15.276,0,15,0H9
				C8.724,0,8.5,0.224,8.5,0.5S8.724,1,9,1z"/>
			<path d="M19.404,7.303L20.5,6.207l0.146,0.146c0.196,0.196,0.512,0.196,0.707,0c0.195-0.195,0.196-0.511,0-0.707l-1-0.999
				c-0.196-0.196-0.512-0.195-0.707,0c-0.195,0.195-0.196,0.511,0,0.707L19.793,5.5l-1.096,1.096C16.922,4.988,14.577,4,12,4
				C6.486,4,2,8.486,2,14s4.486,10,10,10c5.514,0,10-4.486,10-10C22,11.423,21.012,9.078,19.404,7.303z M12.354,14.354
				c-0.195,0.195-0.512,0.195-0.707,0l-4.498-4.5c-0.195-0.195-0.195-0.512,0-0.707c0.195-0.195,0.512-0.195,0.707,0l4.498,4.5
				C12.549,13.842,12.549,14.159,12.354,14.354z"/>
		</g>
	</g>
	<g id="New_icons">
	</g>
</g>
<g id="Invisible_Shape">
	<rect fill="none" width="24" height="24"/>
</g>
</svg>
