<?xml version="1.0" encoding="utf-8"?>
<!-- Generator: Adobe Illustrator 19.2.1, SVG Export Plug-In . SVG Version: 6.00 Build 0)  -->
<svg version="1.1" xmlns="http://www.w3.org/2000/svg" xmlns:xlink="http://www.w3.org/1999/xlink" x="0px" y="0px" width="24px"
	 height="24px" viewBox="0 0 24 24" enable-background="new 0 0 24 24" xml:space="preserve">
<g id="Filled_Icons_1_">
	<g id="Filled_Icons">
		<path d="M12,0C5.383,0,0,5.383,0,12s5.383,12,12,12s12-5.383,12-12S18.617,0,12,0z M2.5,12C2.224,12,2,11.777,2,11.5
			S2.224,11,2.5,11h2.001c0.276,0,0.5,0.224,0.5,0.5S4.777,12,4.501,12H2.5z M7.05,17.656L5.636,19.07
			c-0.195,0.195-0.511,0.196-0.707,0c-0.195-0.195-0.195-0.512,0-0.707l1.415-1.414c0.195-0.195,0.512-0.195,0.707,0
			C7.246,17.145,7.246,17.461,7.05,17.656z M7.051,7.051c-0.195,0.195-0.512,0.195-0.707,0L4.93,5.636
			c-0.195-0.195-0.196-0.511,0-0.707c0.195-0.195,0.512-0.195,0.707,0l1.414,1.415C7.246,6.539,7.246,6.854,7.051,7.051z M12.5,21.5
			c0,0.276-0.224,0.5-0.5,0.5s-0.5-0.224-0.5-0.5v-2c0-0.276,0.224-0.5,0.5-0.5s0.5,0.224,0.5,0.5V21.5z M12.5,4.5
			C12.5,4.776,12.276,5,12,5s-0.5-0.224-0.5-0.5v-2C11.5,2.224,11.724,2,12,2s0.5,0.224,0.5,0.5V4.5z M16.95,6.343l1.414-1.414
			c0.196-0.196,0.512-0.195,0.707,0c0.196,0.196,0.196,0.511,0,0.707L17.657,7.05c-0.195,0.195-0.511,0.196-0.707,0
			C16.754,6.854,16.754,6.538,16.95,6.343z M19.071,19.071c-0.196,0.196-0.511,0.196-0.707,0l-1.414-1.414
			c-0.195-0.195-0.196-0.512,0-0.708c0.195-0.195,0.512-0.195,0.707,0l1.414,1.415C19.268,18.56,19.267,18.876,19.071,19.071z
			 M21.5,12h-2c-0.276,0-0.5-0.223-0.5-0.5c0-0.276,0.224-0.5,0.5-0.5H21.5c0.278,0,0.5,0.224,0.5,0.5C22,11.777,21.777,12,21.5,12z
			"/>
	</g>
	<g id="New_icons">
	</g>
</g>
<g id="Invisible_Shape">
	<rect fill="none" width="24" height="24"/>
</g>
</svg>
