<?xml version="1.0" encoding="utf-8"?>
<!-- Generator: Adobe Illustrator 19.2.1, SVG Export Plug-In . SVG Version: 6.00 Build 0)  -->
<svg version="1.1" xmlns="http://www.w3.org/2000/svg" xmlns:xlink="http://www.w3.org/1999/xlink" x="0px" y="0px" width="24px"
	 height="24px" viewBox="0 0 24 24" enable-background="new 0 0 24 24" xml:space="preserve">
<g id="Filled_Icons_1_">
	<g id="Filled_Icons">
		<g>
			<g>
				<path d="M3.5,13h-2C1.224,13,1,12.776,1,12.5S1.224,12,1.5,12h2C3.776,12,4,12.224,4,12.5S3.776,13,3.5,13z"/>
			</g>
			<g>
				<path d="M15.949,18.657c-0.195-0.194-0.195-0.512,0-0.707c0.195-0.195,0.512-0.195,0.707,0l1.415,1.414
					c0.195,0.195,0.195,0.512,0,0.707c-0.195,0.195-0.512,0.195-0.707,0L15.949,18.657z"/>
			</g>
			<g>
				<path d="M6.05,8.051C5.854,8.245,5.538,8.246,5.343,8.05L3.929,6.637c-0.195-0.195-0.195-0.512,0-0.707
					c0.195-0.195,0.512-0.195,0.707,0L6.05,7.343C6.245,7.538,6.245,7.854,6.05,8.051z"/>
			</g>
			<g>
				<path d="M3.929,20.071c-0.195-0.195-0.195-0.512,0-0.707l1.414-1.414c0.196-0.195,0.512-0.195,0.707,0
					c0.196,0.196,0.196,0.512,0.001,0.708l-1.414,1.413C4.441,20.267,4.125,20.267,3.929,20.071z"/>
			</g>
			<g>
				<path d="M10.5,23c-0.276,0-0.5-0.224-0.5-0.5v-2c0-0.276,0.224-0.5,0.5-0.5s0.5,0.224,0.5,0.5v2C11,22.776,10.776,23,10.5,23z"
					/>
			</g>
			<path d="M10.5,1C10.224,1,10,1.224,10,1.5v11c0,0.276,0.224,0.5,0.5,0.5h12c0.276,0,0.5-0.224,0.5-0.5C23,6.159,17.393,1,10.5,1z
				 M18.07,6.637l-1.414,1.414c-0.195,0.195-0.512,0.195-0.707,0c-0.195-0.195-0.195-0.512,0-0.707l1.414-1.414
				c0.196-0.195,0.512-0.195,0.707,0C18.266,6.125,18.266,6.441,18.07,6.637z"/>
		</g>
	</g>
	<g id="New_icons">
	</g>
</g>
<g id="Invisible_Shape">
	<rect fill="none" width="24" height="24"/>
</g>
</svg>
