<?xml version="1.0" encoding="utf-8"?>
<!-- Generator: Adobe Illustrator 19.2.1, SVG Export Plug-In . SVG Version: 6.00 Build 0)  -->
<svg version="1.1" xmlns="http://www.w3.org/2000/svg" xmlns:xlink="http://www.w3.org/1999/xlink" x="0px" y="0px" width="24px"
	 height="24px" viewBox="0 0 24 24" enable-background="new 0 0 24 24" xml:space="preserve">
<g id="Filled_Icons_1_">
	<g id="Filled_Icons">
		<g>
			<g>
				<path d="M8.354,10.354L8.354,10.354c-0.195,0.195-0.513,0.195-0.707,0l-1.5-1.501C5.95,8.657,5.95,8.341,6.146,8.144l0,0
					C6.341,7.95,6.658,7.95,6.853,8.146l1.5,1.501C8.549,9.842,8.548,10.159,8.354,10.354z"/>
			</g>
			<path d="M19.02,6.188l1.23-1.231l0.396,0.397c0.196,0.195,0.512,0.195,0.707,0c0.196-0.196,0.196-0.512,0-0.707l-1.5-1.5
				c-0.196-0.195-0.511-0.195-0.707,0c-0.195,0.195-0.196,0.512,0,0.707l0.396,0.397l-1.253,1.254
				C16.576,4.049,14.392,3.139,12,3.026V1h0.5C12.776,1,13,0.776,13,0.5S12.776,0,12.5,0h-2C10.224,0,10,0.224,10,0.5
				S10.224,1,10.5,1H11v12H1.5C1.224,13,1,13.224,1,13.5C1,19.29,5.71,24,11.5,24S22,19.29,22,13.5
				C22,10.659,20.86,8.08,19.02,6.188z M8.354,17.354l-1.5,1.5c-0.195,0.195-0.512,0.195-0.707,0c-0.195-0.196-0.195-0.512,0-0.707
				l1.5-1.5c0.195-0.195,0.512-0.195,0.707,0C8.549,16.842,8.549,17.158,8.354,17.354z M12,20.5c0,0.276-0.224,0.5-0.5,0.5
				S11,20.776,11,20.5v-2c0-0.276,0.224-0.5,0.5-0.5s0.5,0.224,0.5,0.5V20.5z M14.646,9.646l1.5-1.5
				c0.195-0.195,0.512-0.195,0.707,0c0.195,0.195,0.195,0.512,0,0.707l-1.5,1.5c-0.195,0.195-0.512,0.195-0.707,0
				S14.451,9.842,14.646,9.646z M16.854,18.853c-0.195,0.196-0.512,0.196-0.707,0l-1.5-1.499c-0.195-0.196-0.195-0.512,0-0.707
				c0.195-0.195,0.512-0.195,0.707,0l1.5,1.499C17.049,18.342,17.049,18.658,16.854,18.853z M18.5,14h-2c-0.276,0-0.5-0.224-0.5-0.5
				s0.224-0.5,0.5-0.5h2c0.276,0,0.5,0.224,0.5,0.5S18.776,14,18.5,14z"/>
		</g>
	</g>
	<g id="New_icons">
	</g>
</g>
<g id="Invisible_Shape">
	<rect fill="none" width="24" height="24"/>
</g>
</svg>
