<?xml version="1.0" encoding="utf-8"?>
<!-- Generator: Adobe Illustrator 19.2.1, SVG Export Plug-In . SVG Version: 6.00 Build 0)  -->
<svg version="1.1" xmlns="http://www.w3.org/2000/svg" xmlns:xlink="http://www.w3.org/1999/xlink" x="0px" y="0px" width="24px"
	 height="24px" viewBox="0 0 24 24" enable-background="new 0 0 24 24" xml:space="preserve">
<g id="Filled_Icons_1_">
	<g id="Filled_Icons">
		<path d="M20.02,6.188l1.23-1.231l0.396,0.397c0.195,0.195,0.512,0.195,0.707,0c0.196-0.196,0.195-0.512,0-0.707l-1.5-1.5
			c-0.195-0.195-0.511-0.195-0.707,0c-0.195,0.195-0.195,0.512,0,0.707l0.396,0.397l-1.254,1.254
			C17.576,4.049,15.392,3.139,13,3.026V1h0.5C13.776,1,14,0.776,14,0.5S13.776,0,13.5,0h-2C11.224,0,11,0.224,11,0.5
			S11.224,1,11.5,1H12v2.026C6.443,3.29,2,7.879,2,13.5C2,19.29,6.71,24,12.5,24S23,19.29,23,13.5C23,10.659,21.86,8.08,20.02,6.188
			z M7.148,8.146c0.195-0.194,0.512-0.194,0.707,0l1.499,1.501c0.195,0.195,0.195,0.512,0,0.707s-0.512,0.195-0.707,0L7.148,8.852
			C6.952,8.658,6.952,8.341,7.148,8.146z M5,13.5C5,13.224,5.224,13,5.5,13h2C7.776,13,8,13.224,8,13.5S7.776,14,7.5,14h-2
			C5.224,14,5,13.776,5,13.5z M9.354,17.354l-1.5,1.499c-0.196,0.196-0.511,0.196-0.707,0c-0.195-0.195-0.196-0.511,0-0.707
			l1.499-1.499c0.196-0.196,0.512-0.195,0.707,0C9.549,16.843,9.549,17.157,9.354,17.354z M13,20.5c0,0.276-0.224,0.5-0.5,0.5
			S12,20.776,12,20.5v-2c0-0.276,0.224-0.5,0.5-0.5s0.5,0.224,0.5,0.5V20.5z M13,8.5C13,8.776,12.776,9,12.5,9S12,8.776,12,8.5v-2
			C12,6.224,12.224,6,12.5,6S13,6.224,13,6.5V8.5z M15.646,9.646l1.5-1.501c0.196-0.195,0.512-0.195,0.708,0
			c0.196,0.195,0.195,0.512,0,0.707l-1.5,1.501c-0.195,0.195-0.511,0.196-0.707,0C15.451,10.158,15.451,9.842,15.646,9.646z
			 M17.854,18.853c-0.195,0.195-0.512,0.196-0.707,0l-1.5-1.499c-0.195-0.195-0.195-0.512,0-0.707c0.195-0.195,0.511-0.195,0.707,0
			l1.5,1.499C18.049,18.341,18.049,18.657,17.854,18.853z M19.5,14h-2c-0.276,0-0.5-0.224-0.5-0.5s0.224-0.5,0.5-0.5h2
			c0.276,0,0.5,0.224,0.5,0.5S19.776,14,19.5,14z"/>
	</g>
	<g id="New_icons">
	</g>
</g>
<g id="Invisible_Shape">
	<rect fill="none" width="24" height="24"/>
</g>
</svg>
