<?xml version="1.0" encoding="utf-8"?>
<!-- Generator: Adobe Illustrator 19.2.1, SVG Export Plug-In . SVG Version: 6.00 Build 0)  -->
<svg version="1.1" xmlns="http://www.w3.org/2000/svg" xmlns:xlink="http://www.w3.org/1999/xlink" x="0px" y="0px" width="24px"
	 height="24px" viewBox="0 0 24 24" enable-background="new 0 0 24 24" xml:space="preserve">
<g id="Filled_Icons_1_">
	<g id="Filled_Icons">
		<g>
			<path d="M13.5,0C6.725,0,1,5.495,1,12s5.725,12,12.5,12c0.276,0,0.5-0.224,0.5-0.5v-23C14,0.224,13.776,0,13.5,0z M3.5,12
				C3.225,12,3,11.776,3,11.5S3.225,11,3.5,11h2C5.776,11,6,11.224,6,11.5S5.776,12,5.5,12H3.5z M8.051,17.656L6.637,19.07
				c-0.193,0.193-0.509,0.198-0.707,0c-0.195-0.195-0.195-0.512,0-0.707l1.414-1.414c0.195-0.195,0.512-0.195,0.707,0
				C8.246,17.145,8.246,17.461,8.051,17.656z M8.051,7.051c-0.192,0.192-0.508,0.199-0.707,0L5.93,5.637
				c-0.195-0.194-0.195-0.512,0-0.707s0.512-0.195,0.707,0l1.414,1.414C8.246,6.54,8.246,6.856,8.051,7.051z"/>
			<path d="M22.5,11h-2c-0.275,0-0.5,0.224-0.5,0.5s0.225,0.5,0.5,0.5h2c0.276,0,0.5-0.224,0.5-0.5S22.776,11,22.5,11z"/>
			<path d="M18.657,7.051l1.414-1.414c0.194-0.194,0.194-0.512,0-0.707c-0.195-0.195-0.512-0.195-0.707,0l-1.415,1.414
				c-0.194,0.196-0.194,0.512,0,0.707C18.149,7.248,18.464,7.244,18.657,7.051z"/>
			<path d="M18.657,16.949c-0.196-0.195-0.513-0.195-0.708,0c-0.194,0.195-0.194,0.512,0,0.707l1.415,1.414
				c0.191,0.194,0.51,0.197,0.707,0c0.194-0.195,0.194-0.512,0-0.707L18.657,16.949z"/>
		</g>
	</g>
	<g id="New_icons">
	</g>
</g>
<g id="Invisible_Shape">
	<rect fill="none" width="24" height="24"/>
</g>
</svg>
