<?xml version="1.0" encoding="utf-8"?>
<!-- Generator: Adobe Illustrator 19.2.1, SVG Export Plug-In . SVG Version: 6.00 Build 0)  -->
<svg version="1.1" xmlns="http://www.w3.org/2000/svg" xmlns:xlink="http://www.w3.org/1999/xlink" x="0px" y="0px" width="24px"
	 height="24px" viewBox="0 0 24 24" enable-background="new 0 0 24 24" xml:space="preserve">
<g id="Filled_Icons_1_">
	<g id="Filled_Icons">
		<g>
			<path d="M12.5,0C12.224,0,12,0.224,12,0.5V11H0.5C0.224,11,0,11.224,0,11.5C0,18.394,5.383,24,12,24s12-5.383,12-12
				C24,5.495,18.734,0,12.5,0z M7.05,17.658L5.636,19.07c-0.195,0.196-0.512,0.195-0.707,0c-0.195-0.195-0.195-0.512,0-0.707
				l1.414-1.413c0.195-0.196,0.512-0.195,0.707,0C7.245,17.146,7.245,17.462,7.05,17.658z M13,21.5c0,0.276-0.224,0.5-0.5,0.5
				S12,21.776,12,21.5v-2c0-0.276,0.224-0.5,0.5-0.5s0.5,0.224,0.5,0.5V21.5z M16.949,6.343l1.414-1.413
				c0.195-0.195,0.512-0.195,0.707,0c0.195,0.195,0.195,0.512,0,0.707l-1.414,1.414c-0.196,0.195-0.512,0.195-0.707,0
				C16.754,6.854,16.753,6.539,16.949,6.343z M19.071,19.07c-0.195,0.195-0.512,0.196-0.707,0l-1.414-1.413
				c-0.195-0.195-0.195-0.512,0-0.708c0.195-0.195,0.512-0.195,0.707,0l1.414,1.413C19.267,18.559,19.267,18.875,19.071,19.07z
				 M21.5,12h-2c-0.276,0-0.5-0.224-0.5-0.5s0.224-0.5,0.5-0.5h2c0.276,0,0.5,0.224,0.5,0.5S21.776,12,21.5,12z"/>
			<path d="M4.93,4.93c-0.195,0.195-0.195,0.512,0,0.707l1.414,1.414c0.196,0.195,0.512,0.195,0.707,0
				c0.196-0.196,0.196-0.512,0-0.708L5.637,4.93C5.442,4.734,5.126,4.734,4.93,4.93z"/>
		</g>
	</g>
	<g id="New_icons">
	</g>
</g>
<g id="Invisible_Shape">
	<rect fill="none" width="24" height="24"/>
</g>
</svg>
