<?xml version="1.0" encoding="utf-8"?>
<!-- Generator: Adobe Illustrator 19.2.1, SVG Export Plug-In . SVG Version: 6.00 Build 0)  -->
<svg version="1.1" xmlns="http://www.w3.org/2000/svg" xmlns:xlink="http://www.w3.org/1999/xlink" x="0px" y="0px" width="24px"
	 height="24px" viewBox="0 0 24 24" enable-background="new 0 0 24 24" xml:space="preserve">
<g id="Filled_Icons_1_">
	<g id="Filled_Icons">
		<path d="M21.5,13h-2c-0.276,0-0.5,0.224-0.5,0.5s0.224,0.5,0.5,0.5h2c0.276,0,0.5-0.224,0.5-0.5S21.776,13,21.5,13z"/>
		<g>
			<path d="M17.646,10.354c-0.195-0.195-0.195-0.512,0-0.707l1.5-1.5c0.195-0.195,0.512-0.195,0.707,0
				c0.195,0.195,0.195,0.512,0,0.707l-1.5,1.5C18.158,10.549,17.842,10.549,17.646,10.354z"/>
		</g>
		<g>
			<path d="M19.854,18.854c-0.195,0.195-0.512,0.195-0.707,0l-1.5-1.5c-0.195-0.195-0.195-0.512,0-0.707
				c0.195-0.195,0.512-0.195,0.707,0l1.5,1.5C20.049,18.342,20.049,18.658,19.854,18.854z"/>
		</g>
		<path d="M15.5,0h-2C13.224,0,13,0.224,13,0.5S13.224,1,13.5,1H14v2.013c-2.521,0.114-4.852,1.085-6.674,2.606L5.957,4.25
			l0.397-0.397c0.195-0.195,0.195-0.512,0-0.707c-0.195-0.195-0.512-0.195-0.707,0l-1.5,1.5c-0.195,0.195-0.195,0.512,0,0.707
			s0.512,0.195,0.707,0L5.25,4.957l1.336,1.337C4.687,8.191,3.5,10.74,3.5,13.5c0,5.691,5.037,10.5,11,10.5
			c0.276,0,0.5-0.224,0.5-0.5V1h0.5C15.776,1,16,0.776,16,0.5S15.776,0,15.5,0z M6.5,13.5C6.5,13.224,6.724,13,7,13h2
			c0.276,0,0.5,0.224,0.5,0.5S9.276,14,9,14H7C6.724,14,6.5,13.776,6.5,13.5z M10.854,17.354l-1.501,1.499
			c-0.195,0.195-0.512,0.195-0.707,0c-0.195-0.195-0.195-0.513,0-0.707l1.501-1.499c0.195-0.195,0.512-0.195,0.707,0
			C11.049,16.842,11.048,17.158,10.854,17.354z M10.854,10.354c-0.195,0.195-0.512,0.195-0.707,0l-1.501-1.5
			c-0.195-0.195-0.195-0.512,0-0.707c0.195-0.195,0.512-0.195,0.707,0l1.501,1.5C11.049,9.842,11.049,10.158,10.854,10.354z"/>
	</g>
	<g id="New_icons">
	</g>
</g>
<g id="Invisible_Shape">
	<rect fill="none" width="24" height="24"/>
</g>
</svg>
