<?xml version="1.0" encoding="utf-8"?>
<!-- Generator: Adobe Illustrator 19.2.1, SVG Export Plug-In . SVG Version: 6.00 Build 0)  -->
<svg version="1.1" xmlns="http://www.w3.org/2000/svg" xmlns:xlink="http://www.w3.org/1999/xlink" x="0px" y="0px" width="24px"
	 height="24px" viewBox="0 0 24 24" enable-background="new 0 0 24 24" xml:space="preserve">
<g id="Filled_Icons_1_">
	<g id="Filled_Icons">
		<g>
			<path d="M3.5,12h-2C1.224,12,1,11.776,1,11.5S1.224,11,1.5,11h2C3.776,11,4,11.224,4,11.5S3.776,12,3.5,12z"/>
			<path d="M6.05,7.051C5.854,7.245,5.538,7.246,5.343,7.05L3.929,5.637c-0.195-0.195-0.195-0.512,0-0.707
				c0.195-0.195,0.512-0.195,0.707,0L6.05,6.343C6.245,6.538,6.245,6.854,6.05,7.051z"/>
			<path d="M3.929,19.071c-0.195-0.195-0.195-0.512,0-0.707l1.414-1.414c0.196-0.195,0.512-0.195,0.707,0
				c0.196,0.196,0.196,0.512,0.001,0.708l-1.414,1.413C4.441,19.267,4.125,19.267,3.929,19.071z"/>
			<path d="M10.5,0C10.224,0,10,0.224,10,0.5v23c0,0.276,0.224,0.5,0.5,0.5C17.276,24,23,18.505,23,12S17.276,0,10.5,0z
				 M15.95,6.343l1.414-1.413c0.195-0.195,0.512-0.195,0.707,0c0.195,0.195,0.195,0.512,0,0.707L16.657,7.05
				c-0.195,0.196-0.512,0.195-0.707,0.001C15.755,6.854,15.755,6.538,15.95,6.343z M18.071,19.071c-0.196,0.195-0.512,0.195-0.708,0
				l-1.414-1.413c-0.196-0.196-0.195-0.512,0-0.708c0.195-0.195,0.511-0.195,0.707,0l1.414,1.414
				C18.266,18.56,18.266,18.876,18.071,19.071z M20.5,12h-2c-0.276,0-0.5-0.224-0.5-0.5s0.224-0.5,0.5-0.5h2
				c0.276,0,0.5,0.224,0.5,0.5S20.776,12,20.5,12z"/>
		</g>
	</g>
	<g id="New_icons">
	</g>
</g>
<g id="Invisible_Shape">
	<rect fill="none" width="24" height="24"/>
</g>
</svg>
