<?xml version="1.0" encoding="utf-8"?>
<!-- Generator: Adobe Illustrator 19.2.1, SVG Export Plug-In . SVG Version: 6.00 Build 0)  -->
<svg version="1.1" xmlns="http://www.w3.org/2000/svg" xmlns:xlink="http://www.w3.org/1999/xlink" x="0px" y="0px" width="24px"
	 height="24px" viewBox="0 0 24 24" enable-background="new 0 0 24 24" xml:space="preserve">
<g id="Filled_Icons_1_">
	<g id="Filled_Icons">
		<g>
			<path d="M6,15.5C6,15.224,5.776,15,5.5,15h-2C3.224,15,3,15.224,3,15.5S3.224,16,3.5,16h2C5.776,16,6,15.776,6,15.5z"/>
			<path d="M10.5,20c-0.276,0-0.5,0.224-0.5,0.5v2c0,0.276,0.224,0.5,0.5,0.5s0.5-0.224,0.5-0.5v-2C11,20.224,10.776,20,10.5,20z"/>
			<path d="M18.02,8.188l1.229-1.229l0.396,0.395c0.195,0.196,0.513,0.195,0.708,0c0.195-0.195,0.195-0.512,0-0.707l-1.502-1.5
				c-0.195-0.195-0.512-0.195-0.707,0c-0.195,0.195-0.194,0.513,0,0.707l0.397,0.398l-1.253,1.253
				C15.576,6.049,13.392,5.139,11,5.026V3h0.5C11.776,3,12,2.776,12,2.5S11.776,2,11.5,2h-2C9.224,2,9,2.224,9,2.5S9.224,3,9.5,3H10
				v12.5c0,0.276,0.224,0.5,0.5,0.5h10c0.276,0,0.5-0.224,0.5-0.5C21,12.659,19.86,10.08,18.02,8.188z M15.854,10.854l-1.5,1.5
				c-0.195,0.195-0.512,0.195-0.707,0c-0.196-0.196-0.195-0.512,0-0.707l1.5-1.5c0.195-0.195,0.511-0.196,0.707,0
				C16.049,10.342,16.049,10.658,15.854,10.854z"/>
			<g>
				<path d="M7.353,12.354c-0.195,0.195-0.513,0.196-0.708,0l-1.5-1.5c-0.195-0.195-0.195-0.512,0-0.707
					c0.195-0.195,0.512-0.195,0.707,0l1.501,1.5C7.548,11.841,7.549,12.158,7.353,12.354z"/>
			</g>
			<g>
				<path d="M5.146,20.852L5.146,20.852c-0.195-0.195-0.195-0.512,0-0.707l1.5-1.499c0.195-0.195,0.512-0.194,0.707,0.001l0,0
					c0.195,0.195,0.195,0.512,0,0.707l-1.501,1.498C5.657,21.048,5.341,21.047,5.146,20.852z"/>
			</g>
			<g>
				<path d="M15.854,20.854c-0.195,0.196-0.512,0.195-0.707,0l-1.5-1.5c-0.195-0.195-0.195-0.511,0-0.707
					c0.195-0.195,0.512-0.195,0.707,0l1.5,1.5C16.049,20.342,16.049,20.658,15.854,20.854z"/>
			</g>
		</g>
	</g>
	<g id="New_icons">
	</g>
</g>
<g id="Invisible_Shape">
	<rect fill="none" width="24" height="24"/>
</g>
</svg>
