<?xml version="1.0" encoding="utf-8"?>
<!-- Generator: Adobe Illustrator 19.2.1, SVG Export Plug-In . SVG Version: 6.00 Build 0)  -->
<svg version="1.1" xmlns="http://www.w3.org/2000/svg" xmlns:xlink="http://www.w3.org/1999/xlink" x="0px" y="0px" width="24px"
	 height="24px" viewBox="0 0 24 24" enable-background="new 0 0 24 24" xml:space="preserve">
<g id="Filled_Icons_1_">
	<g id="Filled_Icons">
		<g>
			<g>
				<path d="M5.5,14h-2C3.224,14,3,13.776,3,13.5S3.224,13,3.5,13h2C5.776,13,6,13.224,6,13.5S5.776,14,5.5,14z"/>
			</g>
			<g>
				<path d="M6.647,10.356L6.647,10.356l-1.5-1.502c-0.195-0.195-0.195-0.512,0-0.707c0.195-0.195,0.512-0.195,0.707,0l0,0
					l1.5,1.502c0.195,0.195,0.195,0.512,0,0.707C7.158,10.551,6.842,10.551,6.647,10.356z"/>
			</g>
			<g>
				<path d="M5.147,18.853c-0.195-0.195-0.196-0.511,0-0.707l1.5-1.499c0.196-0.196,0.512-0.195,0.707,0
					c0.195,0.195,0.196,0.511,0,0.707l-1.499,1.499C5.658,19.049,5.342,19.048,5.147,18.853z"/>
			</g>
			<path d="M18.02,6.188l1.23-1.231l0.396,0.397c0.195,0.195,0.512,0.195,0.707,0c0.196-0.196,0.195-0.512,0-0.707l-1.5-1.5
				c-0.195-0.195-0.511-0.196-0.707,0c-0.195,0.195-0.195,0.512,0,0.707l0.396,0.397l-1.254,1.254
				C15.576,4.049,13.392,3.139,11,3.026V1h0.5C11.776,1,12,0.776,12,0.5S11.776,0,11.5,0h-2C9.224,0,9,0.224,9,0.5S9.224,1,9.5,1H10
				v22.5c0,0.276,0.224,0.5,0.5,0.5C16.29,24,21,19.29,21,13.5C21,10.659,19.86,8.08,18.02,6.188z M13.646,9.649l1.5-1.502
				c0.195-0.195,0.512-0.195,0.707,0c0.195,0.196,0.195,0.513,0,0.707l-1.5,1.502c-0.195,0.196-0.512,0.196-0.707,0
				C13.452,10.161,13.451,9.844,13.646,9.649z M15.853,18.853c-0.195,0.196-0.511,0.197-0.707,0l-1.5-1.499
				c-0.196-0.196-0.195-0.511,0-0.707c0.195-0.195,0.511-0.195,0.707,0l1.499,1.499C16.049,18.343,16.048,18.658,15.853,18.853z
				 M17.5,14h-2c-0.276,0-0.5-0.224-0.5-0.5c0-0.276,0.224-0.5,0.5-0.5h2c0.276,0,0.5,0.224,0.5,0.5C18,13.777,17.776,14,17.5,14z"
				/>
		</g>
	</g>
	<g id="New_icons">
	</g>
</g>
<g id="Invisible_Shape">
	<rect fill="none" width="24" height="24"/>
</g>
</svg>
