<?xml version="1.0" encoding="utf-8"?>
<!-- Generator: Adobe Illustrator 19.2.1, SVG Export Plug-In . SVG Version: 6.00 Build 0)  -->
<svg version="1.1" xmlns="http://www.w3.org/2000/svg" xmlns:xlink="http://www.w3.org/1999/xlink" x="0px" y="0px" width="24px"
	 height="24px" viewBox="0 0 24 24" enable-background="new 0 0 24 24" xml:space="preserve">
<g id="Filled_Icons_1_">
	<g id="Filled_Icons">
		<g>
			<path d="M16,5.667V0.5C16,0.224,15.776,0,15.5,0h-7C8.224,0,8,0.224,8,0.5v5.167C5.901,6.998,4.5,9.336,4.5,12
				s1.401,5.002,3.5,6.333V23.5C8,23.776,8.224,24,8.5,24h7c0.276,0,0.5-0.224,0.5-0.5v-5.167c2.1-1.331,3.5-3.669,3.5-6.333
				S18.1,6.998,16,5.667z M12,18.5c-3.584,0-6.5-2.916-6.5-6.5S8.416,5.5,12,5.5c3.585,0,6.5,2.916,6.5,6.5S15.585,18.5,12,18.5z"/>
			<g>
				<path d="M11,12V9c0-0.276,0.224-0.5,0.5-0.5S12,8.724,12,9v2.77l3.325,2.851c0.21,0.18,0.234,0.496,0.054,0.704
					c-0.18,0.21-0.495,0.234-0.705,0.054l-3.5-3C11.064,12.285,11,12.146,11,12z"/>
			</g>
		</g>
	</g>
	<g id="New_icons">
	</g>
</g>
<g id="Invisible_Shape">
	<rect fill="none" width="24" height="24"/>
</g>
</svg>
