<?xml version="1.0" encoding="utf-8"?>
<!-- Generator: Adobe Illustrator 19.2.1, SVG Export Plug-In . SVG Version: 6.00 Build 0)  -->
<svg version="1.1" xmlns="http://www.w3.org/2000/svg" xmlns:xlink="http://www.w3.org/1999/xlink" x="0px" y="0px" width="24px"
	 height="24px" viewBox="0 0 24 24" enable-background="new 0 0 24 24" xml:space="preserve">
<g id="Filled_Icons_1_">
	<g id="Filled_Icons">
		<g>
			<path d="M23.354,4.647L21.707,3l-2.034,1.967L21.707,7l1.646-1.647C23.549,5.159,23.549,4.842,23.354,4.647z"/>
			<path d="M21,2.293l-1.646-1.646c-0.195-0.195-0.512-0.195-0.707,0L17,2.293l2.034,2.034L21,2.293z"/>
			<path d="M16.293,3l-2.399,2.398C13.141,5.144,12.338,5,11.5,5C7.365,5,4,8.365,4,12.5c0,0.838,0.144,1.641,0.399,2.394
				l-4.252,4.252C0.053,19.24,0,19.367,0,19.5v4C0,23.776,0.224,24,0.5,24h4c0.132,0,0.26-0.053,0.353-0.146l4.253-4.252
				C9.859,19.855,10.662,20,11.5,20c4.135,0,7.5-3.364,7.5-7.5c0-0.838-0.144-1.641-0.399-2.394L21,7.707L16.293,3z M3.5,21
				C3.222,21,3,20.776,3,20.5S3.222,20,3.5,20C3.774,20,4,20.224,4,20.5S3.774,21,3.5,21z M5,19.5c-0.278,0-0.5-0.224-0.5-0.5
				s0.222-0.5,0.5-0.5c0.274,0,0.5,0.224,0.5,0.5S5.274,19.5,5,19.5z M11.5,19C7.916,19,5,16.084,5,12.5S7.916,6,11.5,6
				S18,8.916,18,12.5S15.085,19,11.5,19z"/>
			<g>
				<path d="M11,12.5V10c0-0.276,0.224-0.5,0.5-0.5S12,9.724,12,10v2.293l2.854,2.853c0.195,0.195,0.195,0.512,0,0.707
					c-0.195,0.195-0.512,0.195-0.707,0l-3-3C11.053,12.761,11,12.633,11,12.5z"/>
			</g>
		</g>
	</g>
	<g id="New_icons">
	</g>
</g>
<g id="Invisible_Shape">
	<rect fill="none" width="24" height="24"/>
</g>
</svg>
