<?xml version="1.0" encoding="utf-8"?>
<!-- Generator: Adobe Illustrator 16.0.3, SVG Export Plug-In . SVG Version: 6.00 Build 0)  -->
<!DOCTYPE svg PUBLIC "-//W3C//DTD SVG 1.1//EN" "http://www.w3.org/Graphics/SVG/1.1/DTD/svg11.dtd">
<svg version="1.1" xmlns="http://www.w3.org/2000/svg" xmlns:xlink="http://www.w3.org/1999/xlink" x="0px" y="0px" width="24px"
	 height="24px" viewBox="0 0 24 24" enable-background="new 0 0 24 24" xml:space="preserve">
<g id="Outline_Icons">
	<g>
		<polyline fill="none" stroke="#000000" stroke-linecap="round" stroke-linejoin="round" stroke-miterlimit="10" points="9.876,14 
			5.882,13.015 6.842,9.031 		"/>
		<g>
			<g>
				<path d="M2.5,2C2.223,2,2,2.224,2,2.5S2.223,3,2.5,3C2.775,3,3,2.776,3,2.5S2.775,2,2.5,2L2.5,2z"/>
			</g>
		</g>
		<g>
			<g>
				<path d="M4.5,2C4.223,2,4,2.224,4,2.5S4.223,3,4.5,3C4.775,3,5,2.776,5,2.5S4.775,2,4.5,2L4.5,2z"/>
			</g>
		</g>
		<g>
			<g>
				<path d="M6.5,2C6.223,2,6,2.224,6,2.5S6.223,3,6.5,3C6.775,3,7,2.776,7,2.5S6.775,2,6.5,2L6.5,2z"/>
			</g>
		</g>
		<g>
			<g>
				<path d="M8.5,2C8.223,2,8,2.224,8,2.5S8.223,3,8.5,3C8.775,3,9,2.776,9,2.5S8.775,2,8.5,2L8.5,2z"/>
			</g>
		</g>
		<g>
			<g>
				<path d="M2.5,22C2.223,22,2,22.224,2,22.5S2.223,23,2.5,23C2.775,23,3,22.776,3,22.5S2.775,22,2.5,22L2.5,22z"/>
			</g>
		</g>
		<g>
			<g>
				<path d="M4.5,22C4.223,22,4,22.224,4,22.5S4.223,23,4.5,23C4.775,23,5,22.776,5,22.5S4.775,22,4.5,22L4.5,22z"/>
			</g>
		</g>
		<g>
			<g>
				<path d="M6.5,22C6.223,22,6,22.224,6,22.5S6.223,23,6.5,23C6.775,23,7,22.776,7,22.5S6.775,22,6.5,22L6.5,22z"/>
			</g>
		</g>
		<g>
			<g>
				<path d="M8.5,22C8.223,22,8,22.224,8,22.5S8.223,23,8.5,23C8.775,23,9,22.776,9,22.5S8.775,22,8.5,22L8.5,22z"/>
			</g>
		</g>
		<g>
			<g>
				<path d="M10.5,2C10.223,2,10,2.224,10,2.5S10.223,3,10.5,3C10.775,3,11,2.776,11,2.5S10.775,2,10.5,2L10.5,2z"/>
			</g>
		</g>
		<g>
			<g>
				<path d="M10.5,22c-0.277,0-0.5,0.224-0.5,0.5s0.223,0.5,0.5,0.5c0.275,0,0.5-0.224,0.5-0.5S10.775,22,10.5,22L10.5,22z"/>
			</g>
		</g>
		<g>
			<g>
				<path d="M0.5,2C0.223,2,0,2.224,0,2.5S0.223,3,0.5,3C0.775,3,1,2.776,1,2.5S0.775,2,0.5,2L0.5,2z"/>
			</g>
		</g>
		<g>
			<g>
				<path d="M0.5,4C0.223,4,0,4.224,0,4.5S0.223,5,0.5,5C0.775,5,1,4.776,1,4.5S0.775,4,0.5,4L0.5,4z"/>
			</g>
		</g>
		<g>
			<g>
				<path d="M0.5,6C0.223,6,0,6.224,0,6.5S0.223,7,0.5,7C0.775,7,1,6.776,1,6.5S0.775,6,0.5,6L0.5,6z"/>
			</g>
		</g>
		<g>
			<g>
				<path d="M0.5,8C0.223,8,0,8.224,0,8.5S0.223,9,0.5,9C0.775,9,1,8.776,1,8.5S0.775,8,0.5,8L0.5,8z"/>
			</g>
		</g>
		<g>
			<g>
				<path d="M0.5,10C0.223,10,0,10.224,0,10.5S0.223,11,0.5,11C0.775,11,1,10.776,1,10.5S0.775,10,0.5,10L0.5,10z"/>
			</g>
		</g>
		<g>
			<g>
				<path d="M0.5,12C0.223,12,0,12.224,0,12.5S0.223,13,0.5,13C0.775,13,1,12.776,1,12.5S0.775,12,0.5,12L0.5,12z"/>
			</g>
		</g>
		<g>
			<g>
				<path d="M0.5,14C0.223,14,0,14.224,0,14.5S0.223,15,0.5,15C0.775,15,1,14.776,1,14.5S0.775,14,0.5,14L0.5,14z"/>
			</g>
		</g>
		<g>
			<g>
				<path d="M0.5,16C0.223,16,0,16.224,0,16.5S0.223,17,0.5,17C0.775,17,1,16.776,1,16.5S0.775,16,0.5,16L0.5,16z"/>
			</g>
		</g>
		<g>
			<g>
				<path d="M0.5,18C0.223,18,0,18.224,0,18.5S0.223,19,0.5,19C0.775,19,1,18.776,1,18.5S0.775,18,0.5,18L0.5,18z"/>
			</g>
		</g>
		<g>
			<g>
				<path d="M0.5,20C0.223,20,0,20.224,0,20.5S0.223,21,0.5,21C0.775,21,1,20.776,1,20.5S0.775,20,0.5,20L0.5,20z"/>
			</g>
		</g>
		<g>
			<g>
				<path d="M0.5,22C0.223,22,0,22.224,0,22.5S0.223,23,0.5,23C0.775,23,1,22.776,1,22.5S0.775,22,0.5,22L0.5,22z"/>
			</g>
		</g>
		<polyline fill="none" stroke="#000000" stroke-linecap="round" stroke-linejoin="round" stroke-miterlimit="10" points="
			14.5,22.5 23.5,22.5 23.5,2.5 14.5,2.5 		"/>
		
			<line fill="none" stroke="#000000" stroke-linecap="round" stroke-linejoin="round" stroke-miterlimit="10" x1="12.5" y1="13.5" x2="12.5" y2="23.5"/>
		
			<line fill="none" stroke="#000000" stroke-linecap="round" stroke-linejoin="round" stroke-miterlimit="10" x1="12.5" y1="0.5" x2="12.5" y2="7.5"/>
		<path fill="none" stroke="#000000" stroke-linecap="round" stroke-linejoin="round" stroke-miterlimit="10" d="M5.882,13.003
			C7.645,11.445,9.962,10.5,12.5,10.5c2.513,0,4.81,0.927,6.567,2.458"/>
	</g>
</g>
<g id="Invisible_Shape">
	<rect fill="none" width="24" height="24"/>
</g>
</svg>
