<?xml version="1.0" encoding="utf-8"?>
<!-- Generator: Adobe Illustrator 19.2.1, SVG Export Plug-In . SVG Version: 6.00 Build 0)  -->
<svg version="1.1" xmlns="http://www.w3.org/2000/svg" xmlns:xlink="http://www.w3.org/1999/xlink" x="0px" y="0px" width="24px"
	 height="24px" viewBox="0 0 24 24" enable-background="new 0 0 24 24" xml:space="preserve">
<g id="Filled_Icons_1_">
	<g id="Filled_Icons">
		<path d="M20.512,0h-17c-1.931,0-3.5,1.57-3.5,3.5v17c0,1.931,1.569,3.5,3.5,3.5h17c1.93,0,3.5-1.569,3.5-3.5v-17
			C24.012,1.57,22.441,0,20.512,0z M7.012,19c-1.104,0-2-0.897-2-2s0.896-2,2-2c1.103,0,2,0.898,2,2S8.114,19,7.012,19z M13.012,19
			c0-4.411-3.59-8-8-8v-1c4.963,0,9,4.037,9,9H13.012z M18.012,19c0-7.168-5.832-13-13-13V5c7.719,0,14,6.28,14,14H18.012z"/>
	</g>
	<g id="New_icons">
	</g>
</g>
<g id="Invisible_Shape">
	<rect fill="none" width="24" height="24"/>
</g>
</svg>
