<?xml version="1.0" encoding="utf-8"?>
<!-- Generator: Adobe Illustrator 19.2.1, SVG Export Plug-In . SVG Version: 6.00 Build 0)  -->
<svg version="1.1" xmlns="http://www.w3.org/2000/svg" xmlns:xlink="http://www.w3.org/1999/xlink" x="0px" y="0px" width="24px"
	 height="24px" viewBox="0 0 24 24" enable-background="new 0 0 24 24" xml:space="preserve">
<g id="Filled_Icons_1_">
	<g id="Filled_Icons">
		<path d="M23.854,15.646L20,11.793V7.288C20.882,6.901,21.5,6.023,21.5,5c0-1.378-1.121-2.5-2.5-2.5
			c-1.022,0-1.901,0.619-2.288,1.5h-4.505L8.354,0.147c-0.195-0.195-0.512-0.195-0.707,0C5.475,2.318,4.278,5.196,4.278,8.25
			c0,2.659,0.909,5.184,2.578,7.227l-6.732,7.693C-0.158,23.491,0.07,24,0.5,24h14c0.43,0,0.658-0.509,0.376-0.829l-3.972-4.539
			c1.501,0.705,3.144,1.089,4.846,1.089c3.054,0,5.932-1.196,8.104-3.368C24.049,16.158,24.049,15.842,23.854,15.646z M13.207,5
			H16.5c0,0.509,0.154,0.981,0.416,1.376L15.75,7.543L13.207,5z M19,10.793L16.457,8.25l1.166-1.167C18.019,7.346,18.491,7.5,19,7.5
			V10.793z"/>
	</g>
	<g id="New_icons">
	</g>
</g>
<g id="Invisible_Shape">
	<rect fill="none" width="24" height="24"/>
</g>
</svg>
