<?xml version="1.0" encoding="utf-8"?>
<!-- Generator: Adobe Illustrator 19.2.1, SVG Export Plug-In . SVG Version: 6.00 Build 0)  -->
<svg version="1.1" xmlns="http://www.w3.org/2000/svg" xmlns:xlink="http://www.w3.org/1999/xlink" x="0px" y="0px" width="24px"
	 height="24px" viewBox="0 0 24 24" enable-background="new 0 0 24 24" xml:space="preserve">
<g id="Filled_Icons_1_">
	<g id="Filled_Icons">
	</g>
	<g id="New_icons">
		<g>
			<path d="M15.5,8h-4.943C10.212,8.591,10,9.269,10,10v1.5c0,0.829-0.672,1.5-1.5,1.5S7,12.329,7,11.5V10
				c0-0.695,0.106-1.365,0.295-2H0.5C0.224,8,0,8.224,0,8.5v15C0,23.776,0.224,24,0.5,24h15c0.276,0,0.5-0.224,0.5-0.5v-15
				C16,8.224,15.776,8,15.5,8z"/>
			<path d="M23.854,4.147l-4-4c-0.195-0.195-0.512-0.195-0.707,0c-0.195,0.195-0.195,0.512,0,0.707L22.293,4H14
				c-3.309,0-6,2.691-6,6v1.5C8,11.776,8.224,12,8.5,12S9,11.776,9,11.5V10c0-2.757,2.243-5,5-5h8.293l-3.146,3.146
				c-0.195,0.195-0.195,0.512,0,0.707c0.195,0.195,0.512,0.195,0.707,0l4-4C24.049,4.658,24.049,4.342,23.854,4.147z"/>
		</g>
	</g>
</g>
<g id="Invisible_Shape">
	<rect fill="none" width="24" height="24"/>
</g>
</svg>
