<?xml version="1.0" encoding="utf-8"?>
<!-- Generator: Adobe Illustrator 19.2.1, SVG Export Plug-In . SVG Version: 6.00 Build 0)  -->
<svg version="1.1" xmlns="http://www.w3.org/2000/svg" xmlns:xlink="http://www.w3.org/1999/xlink" x="0px" y="0px" width="24px"
	 height="24px" viewBox="0 0 24 24" enable-background="new 0 0 24 24" xml:space="preserve">
<g id="Filled_Icons_1_">
	<g id="Filled_Icons">
	</g>
	<g id="New_icons">
		<g>
			<path d="M19.5,8H13v5.5c0,0.829-0.672,1.5-1.5,1.5S10,14.329,10,13.5V8H3.5C3.224,8,3,8.224,3,8.5v15C3,23.776,3.224,24,3.5,24
				h16c0.276,0,0.5-0.224,0.5-0.5v-15C20,8.224,19.776,8,19.5,8z"/>
			<path d="M16.354,4.647l-4.5-4.5c-0.195-0.195-0.512-0.195-0.707,0l-4.5,4.5c-0.195,0.195-0.195,0.512,0,0.707
				s0.512,0.195,0.707,0L11,1.707V13.5c0,0.276,0.224,0.5,0.5,0.5s0.5-0.224,0.5-0.5V1.707l3.646,3.646
				c0.195,0.195,0.512,0.195,0.707,0C16.549,5.158,16.549,4.842,16.354,4.647z"/>
		</g>
	</g>
</g>
<g id="Invisible_Shape">
	<rect fill="none" width="24" height="24"/>
</g>
</svg>
