<?xml version="1.0" encoding="utf-8"?>
<!-- Generator: Adobe Illustrator 19.2.1, SVG Export Plug-In . SVG Version: 6.00 Build 0)  -->
<svg version="1.1" xmlns="http://www.w3.org/2000/svg" xmlns:xlink="http://www.w3.org/1999/xlink" x="0px" y="0px" width="24px"
	 height="24px" viewBox="0 0 24 24" enable-background="new 0 0 24 24" xml:space="preserve">
<g id="Filled_Icons_1_">
	<g id="Filled_Icons">
		<g>
			<path d="M23.697,10.335l-1.271-0.733c0.11-0.713,0.115-1.462-0.005-2.204l1.267-0.732c0.239-0.138,0.321-0.444,0.183-0.683
				l-2-3.465c-0.138-0.239-0.447-0.323-0.686-0.181l-1.233,0.729c-0.555-0.472-1.122-0.849-1.87-1.113V0.5
				c0-0.276-0.224-0.5-0.5-0.5h-4c-0.276,0-0.5,0.224-0.5,0.5v1.452c-0.7,0.244-1.32,0.601-1.944,1.119l-1.29-0.736
				C9.612,2.2,9.306,2.28,9.167,2.518L7.158,5.982C7.019,6.224,7.103,6.528,7.34,6.666l1.264,0.732c-0.06,0.37-0.09,0.74-0.09,1.102
				c0,0.371,0.029,0.741,0.087,1.104l-1.268,0.731c-0.239,0.139-0.321,0.444-0.183,0.684l1.999,3.465
				c0.137,0.237,0.439,0.319,0.679,0.185l1.309-0.739c0.624,0.519,1.244,0.876,1.945,1.121V16.5c0,0.276,0.224,0.5,0.5,0.5h4
				c0.276,0,0.5-0.224,0.5-0.5v-1.451c0.747-0.265,1.316-0.643,1.873-1.115l1.248,0.731c0.255,0.146,0.555,0.047,0.687-0.183
				l1.991-3.465C24.019,10.778,23.935,10.474,23.697,10.335z M15.511,11.5c-1.656,0-3-1.342-3-3c0-1.657,1.344-3,3-3
				c1.657,0,3,1.343,3,3C18.511,10.158,17.168,11.5,15.511,11.5z"/>
			<path d="M17.942,20H9.5C9.224,20,9,19.776,9,19.5S9.224,19,9.5,19h2c0.938,0.047,0.186-0.557-0.016-0.703
				C11.283,18.151,9.703,17,8.188,17H6.5C6.224,17,6,17.224,6,17.5v5C6,22.776,6.224,23,6.5,23h15c0.275,0,0.5-0.224,0.5-0.5
				C22,21.162,20.222,20.59,17.942,20z"/>
			<path d="M4.5,16h-4C0.224,16,0,16.224,0,16.5v7C0,23.776,0.224,24,0.5,24h4C4.775,24,5,23.776,5,23.5v-7
				C5,16.224,4.775,16,4.5,16z"/>
		</g>
	</g>
	<g id="New_icons">
	</g>
</g>
<g id="Invisible_Shape">
	<rect fill="none" width="24" height="24"/>
</g>
</svg>
