<?xml version="1.0" encoding="utf-8"?>
<!-- Generator: Adobe Illustrator 19.2.1, SVG Export Plug-In . SVG Version: 6.00 Build 0)  -->
<svg version="1.1" xmlns="http://www.w3.org/2000/svg" xmlns:xlink="http://www.w3.org/1999/xlink" x="0px" y="0px" width="24px"
	 height="24px" viewBox="0 0 24 24" enable-background="new 0 0 24 24" xml:space="preserve">
<g id="Filled_Icons_1_">
	<g id="Filled_Icons">
		<g>
			<path d="M12.951,19h3.508c2.075-3.826,5.054-9.714,5.054-11.987C21.513,3.145,18.367,0,14.501,0S7.489,3.145,7.489,7.013
				c0,1.929,2.144,6.459,4.061,10.125C12.263,17.586,13.079,18.167,12.951,19z M14.501,4.407c1.438,0,2.604,1.168,2.604,2.606
				c0,1.438-1.166,2.604-2.604,2.604c-1.44,0-2.606-1.166-2.606-2.604C11.896,5.575,13.061,4.407,14.501,4.407z"/>
			<g>
				<path d="M17.942,20H9.5C9.224,20,9,19.776,9,19.5S9.224,19,9.5,19h2c0.938,0.047,0.186-0.557-0.016-0.703
					C11.283,18.151,9.703,17,8.188,17H6.5C6.224,17,6,17.224,6,17.5v5C6,22.776,6.224,23,6.5,23h15c0.275,0,0.5-0.224,0.5-0.5
					C22,21.162,20.222,20.59,17.942,20z"/>
				<path d="M4.5,16h-4C0.224,16,0,16.224,0,16.5v7C0,23.776,0.224,24,0.5,24h4C4.775,24,5,23.776,5,23.5v-7
					C5,16.224,4.775,16,4.5,16z"/>
			</g>
		</g>
	</g>
	<g id="New_icons">
	</g>
</g>
<g id="Invisible_Shape">
	<rect fill="none" width="24" height="24"/>
</g>
</svg>
