<?xml version="1.0" encoding="utf-8"?>
<!-- Generator: Adobe Illustrator 19.2.1, SVG Export Plug-In . SVG Version: 6.00 Build 0)  -->
<svg version="1.1" xmlns="http://www.w3.org/2000/svg" xmlns:xlink="http://www.w3.org/1999/xlink" x="0px" y="0px" width="24px"
	 height="24px" viewBox="0 0 24 24" enable-background="new 0 0 24 24" xml:space="preserve">
<g id="Filled_Icons_1_">
	<g id="Filled_Icons">
		<g>
			<path d="M17.942,20H9.5C9.224,20,9,19.776,9,19.5S9.224,19,9.5,19h2c0.938,0.047,0.186-0.557-0.016-0.703
				C11.283,18.151,9.703,17,8.188,17H6.5C6.224,17,6,17.224,6,17.5v5C6,22.776,6.224,23,6.5,23h15c0.275,0,0.5-0.224,0.5-0.5
				C22,21.162,20.222,20.59,17.942,20z"/>
			<path d="M4.5,16h-4C0.224,16,0,16.224,0,16.5v7C0,23.776,0.224,24,0.5,24h4C4.775,24,5,23.776,5,23.5v-7
				C5,16.224,4.775,16,4.5,16z"/>
			<path d="M6.5,16h1.688c1.588,0,4.994,1.499,4.764,3h4.991c0.118,0,0.197,0.018,0.302,0.045C21.642,17.447,24,14.003,24,10
				c0-5.523-4.478-10-10-10S4,4.477,4,10c0,2.286,0.775,4.387,2.067,6.071C6.205,16.029,6.349,16,6.5,16z M13,5
				c0-0.276,0.224-0.5,0.5-0.5S14,4.724,14,5v5h4.5c0.276,0,0.5,0.224,0.5,0.5S18.776,11,18.5,11h-5c-0.276,0-0.5-0.224-0.5-0.5V5z"
				/>
		</g>
	</g>
	<g id="New_icons">
	</g>
</g>
<g id="Invisible_Shape">
	<rect fill="none" width="24" height="24"/>
</g>
</svg>
