<?xml version="1.0" encoding="utf-8"?>
<!-- Generator: Adobe Illustrator 19.2.1, SVG Export Plug-In . SVG Version: 6.00 Build 0)  -->
<svg version="1.1" xmlns="http://www.w3.org/2000/svg" xmlns:xlink="http://www.w3.org/1999/xlink" x="0px" y="0px" width="24px"
	 height="24px" viewBox="0 0 24 24" enable-background="new 0 0 24 24" xml:space="preserve">
<g id="Filled_Icons_1_">
	<g id="Filled_Icons">
	</g>
	<g id="New_icons">
		<g>
			<path d="M12,12.5c0,1.396-1.751,2.035-2.65,0.963C8.108,11.975,7.5,10.169,7.5,8h-7C0.224,8,0,8.224,0,8.5v15
				C0,23.776,0.224,24,0.5,24h15c0.276,0,0.5-0.224,0.5-0.5V10h-4V12.5z"/>
			<path d="M10.116,12.821c0.299,0.356,0.879,0.149,0.879-0.319L11,10c0-0.491,0-1,2-1h5v2.5c0,0.458,0.565,0.673,0.87,0.336l5-5.5
				c0.173-0.191,0.173-0.482,0-0.673l-5-5.5C18.563-0.174,18,0.044,18,0.5V3h-5C9.892,3,8.5,5.762,8.5,8.5
				C8.5,10.864,10.051,12.742,10.116,12.821z"/>
		</g>
	</g>
</g>
<g id="Invisible_Shape">
	<rect fill="none" width="24" height="24"/>
</g>
</svg>
