<?xml version="1.0" encoding="utf-8"?>
<!-- Generator: Adobe Illustrator 19.2.1, SVG Export Plug-In . SVG Version: 6.00 Build 0)  -->
<svg version="1.1" xmlns="http://www.w3.org/2000/svg" xmlns:xlink="http://www.w3.org/1999/xlink" x="0px" y="0px" width="24px"
	 height="24px" viewBox="0 0 24 24" enable-background="new 0 0 24 24" xml:space="preserve">
<g id="Filled_Icons_1_">
	<g id="Filled_Icons">
		<g>
			<g>
				<path d="M11.5,19h-2C9.224,19,9,19.224,9,19.5S9.224,20,9.5,20h8.442C20.222,20.59,22,21.162,22,22.5c0,0.276-0.225,0.5-0.5,0.5
					h-15C6.224,23,6,22.776,6,22.5v-5C6,17.224,6.224,17,6.5,17h1.688c1.516,0,3.096,1.151,3.297,1.297
					C11.686,18.443,12.438,19.047,11.5,19z"/>
				<path d="M4.5,16h-4C0.224,16,0,16.224,0,16.5v7C0,23.776,0.224,24,0.5,24h4C4.775,24,5,23.776,5,23.5v-7
					C5,16.224,4.775,16,4.5,16z"/>
			</g>
			<path d="M22.971,7.332C22.899,7.133,22.711,7,22.5,7h-5.929l-2.1-5.949c-0.141-0.399-0.803-0.399-0.943,0L11.429,7H5.5
				C5.289,7,5.101,7.133,5.029,7.332c-0.071,0.199-0.01,0.422,0.154,0.555l4.908,4.015L8.888,15.56
				c1.229,0.163,2.154,0.648,2.839,1.152L14,15.061l5.255,3.806c0.171,0.123,0.404,0.135,0.583,0.003
				c0.18-0.13,0.24-0.356,0.175-0.556l-2.104-6.412l4.908-4.015C22.98,7.754,23.042,7.531,22.971,7.332z"/>
		</g>
	</g>
	<g id="New_icons">
	</g>
</g>
<g id="Invisible_Shape">
	<rect fill="none" width="24" height="24"/>
</g>
</svg>
