<?xml version="1.0" encoding="utf-8"?>
<!-- Generator: Adobe Illustrator 19.2.1, SVG Export Plug-In . SVG Version: 6.00 Build 0)  -->
<svg version="1.1" xmlns="http://www.w3.org/2000/svg" xmlns:xlink="http://www.w3.org/1999/xlink" x="0px" y="0px" width="24px"
	 height="24px" viewBox="0 0 24 24" enable-background="new 0 0 24 24" xml:space="preserve">
<g id="Filled_Icons_1_">
	<g id="Filled_Icons">
		<path d="M12.012,0c-6.628,0-12,5.373-12,12s5.372,12,12,12c6.627,0,12-5.373,12-12S18.639,0,12.012,0z M15.719,22H8.281
			c-0.275,0-0.5-0.224-0.5-0.5c0-2.197,1.772-5.5,4.219-5.5s4.219,3.303,4.219,5.5C16.219,21.776,15.994,22,15.719,22z M9,12.021
			c0-1.643,1.336-2.978,2.979-2.978c1.642,0,2.978,1.336,2.978,2.978S13.62,15,11.979,15C10.336,15,9,13.664,9,12.021z
			 M16.039,16.734c-0.195-0.195-0.195-0.512,0-0.707c2.23-2.231,2.221-5.834,0-8.055s-5.834-2.221-8.055,0
			c-2.228,2.225-2.227,5.829,0,8.055c0.195,0.195,0.195,0.512,0,0.707c-0.195,0.195-0.512,0.195-0.707,0
			c-2.617-2.615-2.619-6.852,0-9.469c2.609-2.61,6.858-2.611,9.469,0c2.607,2.609,2.626,6.841,0,9.469
			C16.551,16.93,16.234,16.93,16.039,16.734z M19.08,19.066c-0.195,0.195-0.512,0.195-0.707,0c-0.195-0.195-0.195-0.512,0-0.707
			c3.519-3.519,3.519-9.21,0-12.729c-3.509-3.509-9.219-3.509-12.727,0c-3.509,3.51-3.509,9.219,0,12.729
			c0.195,0.195,0.2,0.512,0.005,0.707c-0.195,0.195-0.518,0.195-0.713,0c-3.898-3.899-3.898-10.243,0-14.143
			c3.9-3.898,10.244-3.898,14.143,0C22.982,8.826,22.996,15.149,19.08,19.066z"/>
	</g>
	<g id="New_icons">
	</g>
</g>
<g id="Invisible_Shape">
	<rect fill="none" width="24" height="24"/>
</g>
</svg>
