<?xml version="1.0" encoding="utf-8"?>
<!-- Generator: Adobe Illustrator 19.2.1, SVG Export Plug-In . SVG Version: 6.00 Build 0)  -->
<svg version="1.1" xmlns="http://www.w3.org/2000/svg" xmlns:xlink="http://www.w3.org/1999/xlink" x="0px" y="0px" width="24px"
	 height="24px" viewBox="0 0 24 24" enable-background="new 0 0 24 24" xml:space="preserve">
<g id="Filled_Icons_1_">
	<g id="Filled_Icons">
		<g>
			<circle cx="12" cy="12.018" r="0.982"/>
			<path d="M1.5,12c0-2.816,1.096-5.464,3.088-7.455c0.293-0.293,0.293-0.768,0-1.06c-0.293-0.293-0.768-0.293-1.061,0
				C1.252,5.759,0,8.783,0,12c0,3.217,1.252,6.242,3.527,8.516c0.293,0.293,0.768,0.293,1.061,0c0.293-0.293,0.293-0.768,0-1.061
				C2.596,17.464,1.5,14.816,1.5,12z"/>
			<path d="M5.5,12c0-1.768,0.688-3.428,1.938-4.678c0.293-0.293,0.293-0.768,0-1.061c-0.293-0.293-0.768-0.293-1.061,0
				C4.844,7.794,4,9.832,4,12s0.844,4.206,2.377,5.738c0.293,0.293,0.767,0.293,1.061,0c0.293-0.293,0.293-0.768,0-1.061
				C6.188,15.428,5.5,13.768,5.5,12z"/>
			<path d="M9.5,12c0-0.718,0.279-1.393,0.787-1.9c0.293-0.292,0.293-0.768,0-1.061c-0.293-0.293-0.768-0.292-1.061,0
				C8.436,9.83,8,10.881,8,12s0.436,2.17,1.227,2.961c0.293,0.292,0.767,0.293,1.061,0c0.293-0.293,0.293-0.769,0-1.061
				C9.779,13.393,9.5,12.719,9.5,12z"/>
			<path d="M22.5,12c0-2.816-1.096-5.464-3.088-7.455c-0.293-0.293-0.293-0.768,0-1.06c0.293-0.293,0.768-0.293,1.061,0
				C22.748,5.759,24,8.783,24,12c0,3.217-1.252,6.242-3.527,8.516c-0.293,0.293-0.768,0.293-1.061,0
				c-0.293-0.293-0.293-0.768,0-1.061C21.404,17.464,22.5,14.816,22.5,12z"/>
			<path d="M18.5,12c0-1.768-0.688-3.428-1.938-4.678c-0.293-0.293-0.293-0.768,0-1.061c0.293-0.293,0.768-0.293,1.06,0
				C19.156,7.794,20,9.832,20,12s-0.844,4.206-2.377,5.738c-0.293,0.293-0.767,0.293-1.06,0c-0.293-0.293-0.293-0.768,0-1.061
				C17.812,15.428,18.5,13.768,18.5,12z"/>
			<path d="M14.5,12c0-0.718-0.279-1.393-0.787-1.9c-0.293-0.292-0.293-0.768,0-1.061c0.293-0.293,0.768-0.292,1.061,0
				C15.564,9.83,16,10.881,16,12s-0.436,2.17-1.227,2.961c-0.293,0.292-0.767,0.293-1.061,0c-0.293-0.293-0.293-0.769,0-1.061
				C14.221,13.393,14.5,12.719,14.5,12z"/>
		</g>
	</g>
	<g id="New_icons">
	</g>
</g>
<g id="Invisible_Shape">
	<rect fill="none" width="24" height="24"/>
</g>
</svg>
