<?xml version="1.0" encoding="utf-8"?>
<!-- Generator: Adobe Illustrator 19.2.1, SVG Export Plug-In . SVG Version: 6.00 Build 0)  -->
<svg version="1.1" xmlns="http://www.w3.org/2000/svg" xmlns:xlink="http://www.w3.org/1999/xlink" x="0px" y="0px" width="24px"
	 height="24px" viewBox="0 0 24 24" enable-background="new 0 0 24 24" xml:space="preserve">
<g id="Filled_Icons_1_">
	<g id="Filled_Icons">
	</g>
	<g id="New_icons">
		<g>
			<path d="M12.5,4c-0.553,0-1-0.448-1-1V1c0-0.552,0.447-1,1-1s1,0.448,1,1v2C13.5,3.552,13.053,4,12.5,4z"/>
			<path d="M7.5,9h-2c-0.553,0-1-0.448-1-1c0-0.552,0.447-1,1-1h2c0.553,0,1,0.448,1,1C8.5,8.552,8.053,9,7.5,9z"/>
			<path d="M19.5,9h-2c-0.553,0-1-0.448-1-1c0-0.552,0.447-1,1-1h2c0.553,0,1,0.448,1,1C20.5,8.552,20.053,9,19.5,9z"/>
			<polygon points="9.844,15.732 12.5,18.19 15.156,15.732 14.885,15 10.115,15 			"/>
			<polygon points="11.764,18.872 9.468,16.748 7.074,23.21 			"/>
			<polygon points="13.236,18.872 17.926,23.21 15.532,16.748 			"/>
			<polygon points="12.5,19.554 7.694,24 17.306,24 			"/>
			<path d="M14.515,14L13,9.911V7.5C13,7.224,12.776,7,12.5,7S12,7.224,12,7.5v2.411L10.485,14H14.515z"/>
			<g>
				<path d="M9.707,5.207c-0.391,0.391-1.024,0.39-1.414,0l-1.501-1.5c-0.391-0.39-0.391-1.024,0-1.414
					c0.391-0.391,1.023-0.39,1.414,0l1.501,1.5C10.097,4.184,10.099,4.816,9.707,5.207z"/>
			</g>
			<g>
				<path d="M9.707,12.207l-1.5,1.5c-0.391,0.391-1.023,0.391-1.414,0c-0.391-0.39-0.391-1.023,0-1.415l1.5-1.5
					c0.391-0.391,1.023-0.39,1.414,0C10.098,11.184,10.098,11.815,9.707,12.207z"/>
			</g>
			<g>
				<g>
					<path d="M15.293,5.207c0.391,0.391,1.024,0.39,1.414,0l1.501-1.5c0.391-0.39,0.391-1.024,0-1.414
						c-0.391-0.391-1.023-0.39-1.414,0l-1.501,1.5C14.903,4.184,14.901,4.816,15.293,5.207z"/>
				</g>
				<g>
					<path d="M15.293,12.207l1.5,1.5c0.391,0.391,1.023,0.391,1.414,0c0.391-0.39,0.391-1.023,0-1.415l-1.5-1.5
						c-0.391-0.391-1.023-0.39-1.414,0C14.902,11.184,14.902,11.815,15.293,12.207z"/>
				</g>
			</g>
		</g>
	</g>
</g>
<g id="Invisible_Shape">
	<rect fill="none" width="24" height="24"/>
</g>
</svg>
