<?xml version="1.0" encoding="utf-8"?>
<!-- Generator: Adobe Illustrator 19.2.1, SVG Export Plug-In . SVG Version: 6.00 Build 0)  -->
<svg version="1.1" xmlns="http://www.w3.org/2000/svg" xmlns:xlink="http://www.w3.org/1999/xlink" x="0px" y="0px" width="24px"
	 height="24px" viewBox="0 0 24 24" enable-background="new 0 0 24 24" xml:space="preserve">
<g id="Filled_Icons_1_">
	<g id="Filled_Icons">
		<g>
			<polygon points="9.537,21 14.495,21 12.014,19.348 			"/>
			<polygon points="10.141,18.1 9.168,20.044 11.111,18.747 			"/>
			<polygon points="12.915,18.746 14.85,20.035 13.883,18.101 			"/>
			<polygon points="13.432,17.199 13.148,16.63 10.875,16.63 10.591,17.198 12.014,18.146 			"/>
			<polygon points="12.012,14.357 11.375,15.63 12.648,15.63 			"/>
			<path d="M12.012,0c-6.628,0-12,5.373-12,12s5.372,12,12,12c6.627,0,12-5.373,12-12S18.639,0,12.012,0z M16.142,22H7.881
				c-0.369,0-0.614-0.388-0.447-0.724l4.078-8.155v-1.534c0-0.276,0.224-0.5,0.5-0.5c0.275,0,0.5,0.224,0.5,0.5v1.534l4.077,8.155
				C16.755,21.611,16.51,22,16.142,22z M8.621,12c0-1.87,1.521-3.391,3.391-3.391c1.869,0,3.391,1.521,3.391,3.391
				c0,0.41-0.263,0.617-0.533,0.604c-0.273-0.017-0.485-0.226-0.473-0.499c0-1.523-1.14-2.496-2.385-2.496s-2.385,0.972-2.385,2.496
				c0.013,0.273-0.199,0.482-0.473,0.499C8.884,12.617,8.621,12.41,8.621,12z M16.754,16.011c-0.225-0.161-0.276-0.474-0.115-0.697
				c0.699-0.976,1.068-2.121,1.068-3.314c0-3.141-2.555-5.695-5.695-5.695S6.316,8.859,6.316,12c0,1.193,0.369,2.338,1.068,3.314
				c0.161,0.224,0.109,0.537-0.115,0.697c-0.225,0.161-0.537,0.109-0.697-0.115C5.75,14.75,5.316,13.403,5.316,12
				c0-3.692,3.003-6.695,6.695-6.695c3.691,0,6.695,3.003,6.695,6.695c0,1.403-0.434,2.75-1.256,3.896
				C17.291,16.12,16.979,16.172,16.754,16.011z M19.234,18.912c-0.191,0.199-0.506,0.207-0.706,0.016
				c-0.199-0.19-0.206-0.507-0.016-0.706c1.612-1.684,2.499-3.894,2.499-6.221c0-4.963-4.037-9-9-9s-9,4.037-9,9
				c0,2.328,0.887,4.537,2.499,6.221c0.19,0.199,0.184,0.516-0.016,0.707c-0.2,0.191-0.516,0.184-0.707-0.016
				C2.997,17.041,2.012,14.586,2.012,12c0-5.514,4.485-10,10-10c5.514,0,10,4.486,10,10C22.012,14.586,21.025,17.041,19.234,18.912z
				"/>
		</g>
	</g>
	<g id="New_icons">
	</g>
</g>
<g id="Invisible_Shape">
	<rect fill="none" width="24" height="24"/>
</g>
</svg>
