<?xml version="1.0" encoding="utf-8"?>
<!-- Generator: Adobe Illustrator 16.0.3, SVG Export Plug-In . SVG Version: 6.00 Build 0)  -->
<!DOCTYPE svg PUBLIC "-//W3C//DTD SVG 1.1//EN" "http://www.w3.org/Graphics/SVG/1.1/DTD/svg11.dtd">
<svg version="1.1" xmlns="http://www.w3.org/2000/svg" xmlns:xlink="http://www.w3.org/1999/xlink" x="0px" y="0px" width="24px"
	 height="24px" viewBox="0 0 24 24" enable-background="new 0 0 24 24" xml:space="preserve">
<g id="Outline_Icons">
	<g>
		<path fill="none" stroke="#000000" stroke-linecap="round" stroke-linejoin="round" stroke-miterlimit="10" d="M15.26,17.258
			c0.041,0.693,0.58,1.242,1.24,1.242c0.686,0,1.24-0.594,1.24-1.327c0-1.08-1.024-1.111-1.241-1.173
			c-0.217-0.064-1.241-0.096-1.241-1.176c0-0.731,0.557-1.324,1.242-1.324c0.658,0,1.197,0.549,1.238,1.24"/>
		<polygon fill="none" stroke="#000000" stroke-linecap="round" stroke-linejoin="round" stroke-miterlimit="10" points="21.5,23.5 
			2.5,23.5 2.5,0.5 15.5,0.5 21.5,6.5 		"/>
		<polyline fill="none" stroke="#000000" stroke-linecap="round" stroke-linejoin="round" stroke-miterlimit="10" points="15.5,0.5 
			15.5,6.5 21.5,6.5 		"/>
		<path fill="none" stroke="#000000" stroke-linecap="round" stroke-linejoin="round" stroke-miterlimit="10" d="M5.5,18.499V13.5
			h1.25C7.44,13.5,8,14.059,8,14.75C8,15.439,7.44,16,6.75,16H5.5"/>
		<path fill="none" stroke="#000000" stroke-linecap="round" stroke-linejoin="round" stroke-miterlimit="10" d="M10.5,18.499V13.5
			h1.25c0.69,0,1.25,0.559,1.25,1.25c0,0.689-0.56,1.25-1.25,1.25H10.5"/>
	</g>
</g>
<g id="Invisible_Shape">
	<rect fill="none" width="24" height="24"/>
</g>
</svg>
