<?xml version="1.0" encoding="utf-8"?>
<!-- Generator: Adobe Illustrator 16.0.3, SVG Export Plug-In . SVG Version: 6.00 Build 0)  -->
<!DOCTYPE svg PUBLIC "-//W3C//DTD SVG 1.1//EN" "http://www.w3.org/Graphics/SVG/1.1/DTD/svg11.dtd">
<svg version="1.1" xmlns="http://www.w3.org/2000/svg" xmlns:xlink="http://www.w3.org/1999/xlink" x="0px" y="0px" width="24px"
	 height="24px" viewBox="0 0 24 24" enable-background="new 0 0 24 24" xml:space="preserve">
<g id="Outline_Icons">
	<g>
		<path fill="none" stroke="#000000" stroke-linecap="round" stroke-linejoin="round" stroke-miterlimit="10" d="M1.5,12.5l-1,0.026
			L0.5,2.5c0-1.104,0.896-2,2-2h19c1.104,0,2,0.896,2,2v10h-1"/>
		<polygon fill="none" stroke="#000000" stroke-linejoin="round" stroke-miterlimit="10" points="2.5,10.5 21.5,10.5 19.5,14.5 
			4.5,14.5 		"/>
		
			<line fill="none" stroke="#000000" stroke-linecap="round" stroke-linejoin="round" stroke-miterlimit="10" x1="3.5" y1="2.5" x2="20.5" y2="2.5"/>
		
			<line fill="none" stroke="#000000" stroke-linecap="round" stroke-linejoin="round" stroke-miterlimit="10" x1="3.5" y1="4.5" x2="20.5" y2="4.5"/>
		<g>
			<path d="M17.5,6C17.224,6,17,6.224,17,6.5S17.224,7,17.5,7C17.777,7,18,6.776,18,6.5S17.777,6,17.5,6L17.5,6z"/>
		</g>
		<g>
			<path d="M19.5,6C19.224,6,19,6.224,19,6.5S19.224,7,19.5,7C19.777,7,20,6.776,20,6.5S19.777,6,19.5,6L19.5,6z"/>
		</g>
		<line fill="none" stroke="#000000" stroke-linejoin="round" stroke-miterlimit="10" x1="0.5" y1="8.5" x2="23.5" y2="8.5"/>
		<path fill="none" stroke="#000000" stroke-linecap="round" stroke-linejoin="round" stroke-miterlimit="10" d="M5.5,16.5
			c1.743,1.742-1.706,4.294,0,6"/>
		<path fill="none" stroke="#000000" stroke-linecap="round" stroke-linejoin="round" stroke-miterlimit="10" d="M11.5,16.5
			c1.743,1.742-1.706,4.294,0,6"/>
		<path fill="none" stroke="#000000" stroke-linecap="round" stroke-linejoin="round" stroke-miterlimit="10" d="M18,16.5
			c1.743,1.742-1.706,4.294,0,6"/>
	</g>
</g>
<g id="invisible_shape">
	<rect fill="none" width="24" height="24"/>
</g>
</svg>
