<?xml version="1.0" encoding="utf-8"?>
<!-- Generator: Adobe Illustrator 16.0.3, SVG Export Plug-In . SVG Version: 6.00 Build 0)  -->
<!DOCTYPE svg PUBLIC "-//W3C//DTD SVG 1.1//EN" "http://www.w3.org/Graphics/SVG/1.1/DTD/svg11.dtd">
<svg version="1.1" xmlns="http://www.w3.org/2000/svg" xmlns:xlink="http://www.w3.org/1999/xlink" x="0px" y="0px" width="24px"
	 height="24px" viewBox="0 0 24 24" enable-background="new 0 0 24 24" xml:space="preserve">
<g id="Outline_Icons">
	<g>
		<path fill="none" stroke="#000000" stroke-linejoin="round" stroke-miterlimit="10" d="M23.5,22c0,0.828-0.672,1.5-1.5,1.5H2
			c-0.829,0-1.5-0.672-1.5-1.5s0.671-1.5,1.5-1.5h20C22.828,20.5,23.5,21.172,23.5,22z"/>
		<path fill="none" stroke="#000000" stroke-linejoin="round" stroke-miterlimit="10" d="M1.5,16.115
			c0-2.858,2.692-4.943,5.448-4.253l12.425,3.105c1.25,0.312,2.127,1.436,2.127,2.725c0,1.551-1.257,2.808-2.808,2.808H5.885
			C3.463,20.5,1.5,18.537,1.5,16.115z"/>
		<path fill="none" stroke="#000000" stroke-linecap="round" stroke-linejoin="round" stroke-miterlimit="10" d="M14.5,0.5h3
			c1.104,0,2,0.896,2,2l-1.79,12.053"/>
		
			<line fill="none" stroke="#000000" stroke-linecap="round" stroke-linejoin="round" stroke-miterlimit="10" x1="8.5" y1="12.25" x2="8.5" y2="8.5"/>
		
			<line fill="none" stroke="#000000" stroke-linecap="round" stroke-linejoin="round" stroke-miterlimit="10" x1="7.521" y1="18.5" x2="11.5" y2="18.5"/>
		
			<line fill="none" stroke="#000000" stroke-linecap="round" stroke-linejoin="round" stroke-miterlimit="10" x1="9.5" y1="18.5" x2="6.531" y2="14.531"/>
		<path fill="none" stroke="#000000" stroke-linecap="round" stroke-linejoin="round" stroke-miterlimit="10" d="M4.5,6.746
			c0-1.138,1.07-1.978,2.179-1.701l4.97,1.242C12.926,6.606,12.694,8.5,11.377,8.5H6.254C5.285,8.5,4.5,7.715,4.5,6.746z"/>
	</g>
</g>
<g id="invisible_shape">
	<rect fill="none" width="24" height="24"/>
</g>
</svg>
