<?xml version="1.0" encoding="utf-8"?>
<!-- Generator: Adobe Illustrator 16.0.3, SVG Export Plug-In . SVG Version: 6.00 Build 0)  -->
<!DOCTYPE svg PUBLIC "-//W3C//DTD SVG 1.1//EN" "http://www.w3.org/Graphics/SVG/1.1/DTD/svg11.dtd">
<svg version="1.1" xmlns="http://www.w3.org/2000/svg" xmlns:xlink="http://www.w3.org/1999/xlink" x="0px" y="0px" width="24px"
	 height="24px" viewBox="0 0 24 24" enable-background="new 0 0 24 24" xml:space="preserve">
<g id="Outline_Icons">
	<g>
		<polygon fill="none" stroke="#000000" stroke-linejoin="round" stroke-miterlimit="10" points="12,1 13,3.5 15.5,3.5 13.5,5.19 
			14.25,7.911 12,6.146 9.75,7.89 10.5,5.194 8.5,3.5 11,3.5 		"/>
		<polygon fill="none" stroke="#000000" stroke-linejoin="round" stroke-miterlimit="10" points="4,7 5,9.5 7.5,9.5 5.5,11.19 
			6.25,13.911 4,12.146 1.75,13.89 2.5,11.194 0.5,9.5 3,9.5 		"/>
		<polygon fill="none" stroke="#000000" stroke-linejoin="round" stroke-miterlimit="10" points="20,7 21,9.5 23.5,9.5 21.5,11.19 
			22.25,13.911 20,12.146 17.75,13.89 18.5,11.194 16.5,9.5 19,9.5 		"/>
		<polygon fill="none" stroke="#000000" stroke-linejoin="round" stroke-miterlimit="10" points="17,16 18,18.5 20.5,18.5 
			18.5,20.19 19.25,22.911 17,21.146 14.75,22.89 15.5,20.194 13.5,18.5 16,18.5 		"/>
		<polygon fill="none" stroke="#000000" stroke-linejoin="round" stroke-miterlimit="10" points="7,16 8,18.5 10.5,18.5 8.5,20.19 
			9.25,22.911 7,21.146 4.75,22.89 5.5,20.194 3.5,18.5 6,18.5 		"/>
	</g>
</g>
<g id="invisible_shape">
	<rect fill="none" width="24" height="24"/>
</g>
</svg>
