<?xml version="1.0" encoding="utf-8"?>
<!-- Generator: Adobe Illustrator 16.0.3, SVG Export Plug-In . SVG Version: 6.00 Build 0)  -->
<!DOCTYPE svg PUBLIC "-//W3C//DTD SVG 1.1//EN" "http://www.w3.org/Graphics/SVG/1.1/DTD/svg11.dtd">
<svg version="1.1" xmlns="http://www.w3.org/2000/svg" xmlns:xlink="http://www.w3.org/1999/xlink" x="0px" y="0px" width="24px"
	 height="24px" viewBox="0 0 24 24" enable-background="new 0 0 24 24" xml:space="preserve">
<g id="Outline_Icons">
	<g>
		<g>
			<g>
				<path fill="none" stroke="#000000" stroke-linejoin="round" stroke-miterlimit="10" d="M6.417,19.535
					c0,0,0.723-4.213-1.336-6.535c-0.112-0.127-0.106-0.313,0.008-0.438c0.71-0.777,2.513,0.021,4.325,3.346
					c0.474,0.867,1.462,0.822,2.32,0.332c1.632-0.932,3.801-3.359,5.297-3.739c1.969-0.5,2.648,0.7,2.27,1.079l-8.589,8.588
					L6.417,19.535z"/>
			</g>
		</g>
		<polygon fill="none" stroke="#000000" stroke-linecap="round" stroke-linejoin="round" stroke-miterlimit="10" points="9.38,23.5 
			10.712,22.167 6.417,19.535 2.814,23.5 		"/>
		
			<line fill="none" stroke="#000000" stroke-linecap="round" stroke-linejoin="round" stroke-miterlimit="10" x1="23.5" y1="11.5" x2="0.583" y2="11.5"/>
		<path fill="none" stroke="#000000" stroke-linecap="round" stroke-linejoin="round" stroke-miterlimit="10" d="M21.475,11.5
			c0.009-0.167,0.025-0.331,0.025-0.5c0-5.247-4.253-9.5-9.5-9.5S2.5,5.753,2.5,11c0,0.169,0.017,0.333,0.025,0.5H21.475z"/>
		<path fill="none" stroke="#000000" stroke-linecap="round" stroke-linejoin="round" stroke-miterlimit="10" d="M12,4
			C8.821,4,6.129,6.081,5.211,8.955"/>
		
			<line fill="none" stroke="#000000" stroke-linecap="round" stroke-linejoin="round" stroke-miterlimit="10" x1="11.5" y1="1.5" x2="11.5" y2="0.5"/>
	</g>
</g>
<g id="invisible_shape">
	<rect fill="none" width="24" height="24"/>
</g>
</svg>
