<?xml version="1.0" encoding="utf-8"?>
<!-- Generator: Adobe Illustrator 16.0.3, SVG Export Plug-In . SVG Version: 6.00 Build 0)  -->
<!DOCTYPE svg PUBLIC "-//W3C//DTD SVG 1.1//EN" "http://www.w3.org/Graphics/SVG/1.1/DTD/svg11.dtd">
<svg version="1.1" xmlns="http://www.w3.org/2000/svg" xmlns:xlink="http://www.w3.org/1999/xlink" x="0px" y="0px" width="24px"
	 height="24px" viewBox="0 0 24 24" enable-background="new 0 0 24 24" xml:space="preserve">
<g id="Outline_Icons">
	<g>
		<path fill="none" stroke="#000000" stroke-linecap="round" stroke-linejoin="round" stroke-miterlimit="10" d="M22.5,8.5
			c0-3.314-2.687-6-6-6h-9c-3.314,0-6,2.686-6,6v12c0,1.104,0.896,2,2,2h17c1.104,0,2-0.896,2-2V8.5z"/>
		<path fill="none" stroke="#000000" stroke-linecap="round" stroke-linejoin="round" stroke-miterlimit="10" d="M14.5,22.5v-8.67
			c0-0.971-0.698-1.799-1.654-1.966c-4.219-0.742-6.277-1.987-6.344-9.282"/>
		<path fill="none" stroke="#000000" stroke-linecap="round" stroke-linejoin="round" stroke-miterlimit="10" d="M11.75,11.562
			c0,0,5.616,0.382,5.747-8.979"/>
		<path fill="none" stroke="#000000" stroke-linecap="round" stroke-linejoin="round" stroke-miterlimit="10" d="M9.217,16.434
			C9.217,17.777,8,18.867,8,18.867s-1.217-1.09-1.217-2.434S8,14,8,14S9.217,15.09,9.217,16.434z"/>
		<path fill="none" stroke="#000000" stroke-linecap="round" stroke-linejoin="round" stroke-miterlimit="10" d="M10.633,19.558
			C9.317,19.834,8,18.867,8,18.867s0.815-1.414,2.131-1.691c1.315-0.278,2.633,0.688,2.633,0.688S11.948,19.28,10.633,19.558z"/>
		<path fill="none" stroke="#000000" stroke-linecap="round" stroke-linejoin="round" stroke-miterlimit="10" d="M5.367,19.558
			C6.682,19.834,8,18.867,8,18.867s-0.815-1.414-2.131-1.691c-1.315-0.278-2.633,0.688-2.633,0.688S4.052,19.28,5.367,19.558z"/>
	</g>
</g>
<g id="invisible_shape">
	<rect fill="none" width="24" height="24"/>
</g>
</svg>
