<?xml version="1.0" encoding="utf-8"?>
<!-- Generator: Adobe Illustrator 16.0.3, SVG Export Plug-In . SVG Version: 6.00 Build 0)  -->
<!DOCTYPE svg PUBLIC "-//W3C//DTD SVG 1.1//EN" "http://www.w3.org/Graphics/SVG/1.1/DTD/svg11.dtd">
<svg version="1.1" xmlns="http://www.w3.org/2000/svg" xmlns:xlink="http://www.w3.org/1999/xlink" x="0px" y="0px" width="24px"
	 height="24px" viewBox="0 0 24 24" enable-background="new 0 0 24 24" xml:space="preserve">
<g id="Outline_Icons">
	<g>
		<path fill="none" stroke="#000000" stroke-linecap="round" stroke-linejoin="round" stroke-miterlimit="10" d="M23,21.5
			c0-2-2.229-2-2.229,0c0,2.021-2.5,2.021-2.5,0c0-2-2.5-2-2.5,0c0.003,2.017-2.493,2.02-2.496,0.003
			c-0.003-2.006-2.504-2.002-2.504-0.003c0,2.021-2.5,2.021-2.5,0c0-2-2.5-2-2.5,0c0,2.042-2.5,2.042-2.5,0c0-2-2.271-2-2.271,0"/>
		<path fill="none" stroke="#000000" stroke-linecap="round" stroke-linejoin="round" stroke-miterlimit="10" d="M23,16.5
			c0-2-2.229-2-2.229,0c0,2.021-2.5,2.021-2.5,0c0-2-2.5-2-2.5,0c0.003,2.017-2.493,2.02-2.496,0.003
			c-0.003-2.006-2.504-2.002-2.504-0.003c0,2.021-2.5,2.021-2.5,0c0-2-2.5-2-2.5,0c0,2.042-2.5,2.042-2.5,0c0-2-2.271-2-2.271,0"/>
		<path fill="none" stroke="#000000" stroke-linecap="round" stroke-linejoin="round" stroke-miterlimit="10" d="M11.5,15.125V3
			c0-1.381,1.119-2.5,2.5-2.5s2.5,1.119,2.5,2.5v1"/>
		<path fill="none" stroke="#000000" stroke-linecap="round" stroke-linejoin="round" stroke-miterlimit="10" d="M18.5,17.422V3
			c0-1.381,1.119-2.5,2.5-2.5s2.5,1.119,2.5,2.5v1"/>
		
			<line fill="none" stroke="#000000" stroke-linecap="round" stroke-linejoin="round" stroke-miterlimit="10" x1="11.5" y1="9.5" x2="18.5" y2="9.5"/>
		
			<line fill="none" stroke="#000000" stroke-linecap="round" stroke-linejoin="round" stroke-miterlimit="10" x1="11.5" y1="6.5" x2="18.5" y2="6.5"/>
		
			<line fill="none" stroke="#000000" stroke-linecap="round" stroke-linejoin="round" stroke-miterlimit="10" x1="11.5" y1="12.5" x2="18.5" y2="12.5"/>
	</g>
</g>
<g id="invisible_shape">
	<rect fill="none" width="24" height="24"/>
</g>
</svg>
