<?xml version="1.0" encoding="utf-8"?>
<!-- Generator: Adobe Illustrator 16.0.3, SVG Export Plug-In . SVG Version: 6.00 Build 0)  -->
<!DOCTYPE svg PUBLIC "-//W3C//DTD SVG 1.1//EN" "http://www.w3.org/Graphics/SVG/1.1/DTD/svg11.dtd">
<svg version="1.1" xmlns="http://www.w3.org/2000/svg" xmlns:xlink="http://www.w3.org/1999/xlink" x="0px" y="0px" width="24px"
	 height="24px" viewBox="0 0 24 24" enable-background="new 0 0 24 24" xml:space="preserve">
<g id="Outline_Icons">
	<g>
		<g>
			
				<line fill="none" stroke="#000000" stroke-linecap="round" stroke-linejoin="round" stroke-miterlimit="10" x1="4.501" y1="0.5" x2="9.501" y2="5.5"/>
			
				<line fill="none" stroke="#000000" stroke-linecap="round" stroke-linejoin="round" stroke-miterlimit="10" x1="15.501" y1="0.5" x2="10.501" y2="5.5"/>
		</g>
		<path fill="none" stroke="#000000" stroke-linejoin="round" stroke-miterlimit="10" d="M23.5,21.5c0,1.104-0.896,2-2,2h-19
			c-1.105,0-2-0.896-2-2v-14c0-1.104,0.895-2,2-2h19c1.104,0,2,0.896,2,2V21.5z"/>
		<path fill="none" stroke="#000000" stroke-linecap="round" stroke-linejoin="round" stroke-miterlimit="10" d="M17.5,17.5
			c0,2.209-1.791,4-4,4h-7c-2.209,0-4-1.791-4-4v-6c0-2.209,1.791-4,4-4h7c2.209,0,4,1.791,4,4V17.5z"/>
		<rect x="19.5" y="8.5" fill="none" stroke="#000000" stroke-linejoin="round" stroke-miterlimit="10" width="2" height="8"/>
		<rect x="19.5" y="18.5" fill="none" stroke="#000000" stroke-linejoin="round" stroke-miterlimit="10" width="2" height="3"/>
		
			<line fill="none" stroke="#000000" stroke-linejoin="round" stroke-miterlimit="10" x1="12.828" y1="11.672" x2="7.172" y2="17.329"/>
		<circle fill="none" stroke="#000000" stroke-linejoin="round" stroke-miterlimit="10" cx="10" cy="14.5" r="4"/>
	</g>
</g>
<g id="invisible_shape">
	<rect fill="none" width="24" height="24"/>
</g>
</svg>
