<?xml version="1.0" encoding="utf-8"?>
<!-- Generator: Adobe Illustrator 19.2.0, SVG Export Plug-In . SVG Version: 6.00 Build 0)  -->
<svg version="1.1" xmlns="http://www.w3.org/2000/svg" xmlns:xlink="http://www.w3.org/1999/xlink" x="0px" y="0px" width="24px"
	 height="24px" viewBox="0 0 24 24" enable-background="new 0 0 24 24" xml:space="preserve">
<g id="Filled_Icons">
	<g>
		<g>
			<polygon points="0,13.994 4.072,13.994 4.637,9.826 0,4.526 			"/>
			<path d="M6.51,17.483c-0.004,0.003-0.377,0.168-0.823,0.168c-1.235,0-1.603-1.345-1.671-2.651H0v2
				c0,2.211,1.262,3.531,3.375,3.531c2.629,0,3.748-2.281,3.795-2.378C7.37,17.733,6.931,17.289,6.51,17.483z"/>
		</g>
		<path d="M8,7.5C8,6.672,8.671,6,9.5,6h0.489L3.52,0.564c-0.857-0.716-2.099-0.659-2.887,0.13C-0.157,1.482-0.214,2.724,0.509,3.59
			L8,12.152V7.5z"/>
		<path d="M21.5,12H18V9.5C18,8.121,16.878,7,15.5,7h-6C9.224,7,9,7.224,9,7.5v10c0,0.276,0.224,0.5,0.5,0.494h12
			C21.776,18,22,17.776,22,17.5v-5C22,12.224,21.776,12,21.5,12z M14.5,12c0,0.276-0.224,0.5-0.5,0.5h-2.5
			c-0.276,0-0.5-0.224-0.5-0.5V9.5C11,9.224,11.224,9,11.5,9H14c0.276,0,0.5,0.224,0.5,0.5V12z"/>
		<path d="M21.5,19h-11C9.122,19,8,20.121,8,21.5s1.122,2.5,2.5,2.494h11C22.878,24,24,22.879,24,21.5S22.878,19,21.5,19z M11.5,23
			c-0.827,0-1.5-0.673-1.5-1.5s0.673-1.5,1.5-1.5s1.5,0.673,1.5,1.5S12.327,23,11.5,23z M16,23c-0.827,0-1.5-0.673-1.5-1.5
			S15.173,20,16,20c0.827,0,1.5,0.673,1.5,1.5S16.827,23,16,23z M20.5,23c-0.827,0-1.5-0.673-1.5-1.5s0.673-1.5,1.5-1.5
			s1.5,0.673,1.5,1.5S21.327,23,20.5,23z"/>
	</g>
</g>
<g id="invisible_shape">
	<rect fill="none" width="24" height="24"/>
</g>
</svg>
