<?xml version="1.0" encoding="utf-8"?>
<!-- Generator: Adobe Illustrator 19.2.0, SVG Export Plug-In . SVG Version: 6.00 Build 0)  -->
<svg version="1.1" xmlns="http://www.w3.org/2000/svg" xmlns:xlink="http://www.w3.org/1999/xlink" x="0px" y="0px" width="24px"
	 height="24px" viewBox="0 0 24 24" enable-background="new 0 0 24 24" xml:space="preserve">
<g id="Filled_Icons">
	<g>
		<path d="M2,22v1.5C2,23.776,2.224,24,2.5,24h4C6.776,24,7,23.776,7,23.5V22H2z"/>
		<path d="M18.757,12l-0.764-4.582C17.953,7.177,17.745,7,17.5,7h-12C5.255,7,5.047,7.177,5.007,7.418L4.243,12H18.757z M15,9
			c0-0.276,0.224-0.5,0.5-0.5S16,8.724,16,9v1.984c0,0.276-0.224,0.5-0.5,0.5s-0.5-0.224-0.5-0.5V9z M13,9
			c0-0.276,0.224-0.5,0.5-0.5S14,8.724,14,9v1.984c0,0.276-0.224,0.5-0.5,0.5s-0.5-0.224-0.5-0.5V9z M11,9
			c0-0.276,0.224-0.5,0.5-0.5S12,8.724,12,9v1.984c0,0.276-0.224,0.5-0.5,0.5s-0.5-0.224-0.5-0.5V9z M9,9c0-0.276,0.224-0.5,0.5-0.5
			S10,8.724,10,9v1.984c0,0.276-0.224,0.5-0.5,0.5S9,11.261,9,10.984V9z M7,9c0-0.276,0.224-0.5,0.5-0.5S8,8.724,8,9v1.984
			c0,0.276-0.224,0.5-0.5,0.5S7,11.261,7,10.984V9z"/>
		<path d="M16,3V2.5C16,2.224,15.776,2,15.5,2h-8C7.224,2,7,2.224,7,2.5V3H16z"/>
		<rect x="7" y="4" width="9" height="2"/>
		<path d="M16,22v1.5c0,0.276,0.224,0.5,0.5,0.5h4c0.276,0,0.5-0.224,0.5-0.5V22H16z"/>
		<path d="M21.996,13.438C21.965,13.188,21.752,13,21.5,13h-20c-0.252,0-0.465,0.188-0.496,0.438l-1,7
			C-0.034,20.734,0.198,21,0.5,21h22c0.302,0,0.534-0.266,0.496-0.563L21.996,13.438z M19,18H4c-0.276,0-0.5-0.224-0.5-0.5
			S3.724,17,4,17h15c0.276,0,0.5,0.224,0.5,0.5S19.276,18,19,18z"/>
	</g>
</g>
<g id="invisible_shape">
	<rect fill="none" width="24" height="24"/>
</g>
</svg>
