<?xml version="1.0" encoding="utf-8"?>
<!-- Generator: Adobe Illustrator 19.2.0, SVG Export Plug-In . SVG Version: 6.00 Build 0)  -->
<svg version="1.1" xmlns="http://www.w3.org/2000/svg" xmlns:xlink="http://www.w3.org/1999/xlink" x="0px" y="0px" width="24px"
	 height="24px" viewBox="0 0 24 24" enable-background="new 0 0 24 24" xml:space="preserve">
<g id="Filled_Icons">
	<g>
		<path d="M15.009,14.743l-2.322,2.322c-0.586,0.586-1.535,0.586-2.121,0c-0.586-0.586-0.586-1.536,0-2.121l2.322-2.322
			l-0.988-0.989c-1.101-1.099-2.954-0.734-3.319,0.671L4.644,22.339c-0.072,0.184-0.028,0.395,0.112,0.535
			c0.147,0.147,0.363,0.182,0.536,0.112l9.969-3.923c1.504-0.378,1.831-2.236,0.731-3.338L15.009,14.743z"/>
		<path d="M19.47,5.491c0.895-0.858,0.924-2.284,0.062-3.182c-0.835-0.865-2.32-0.89-3.177-0.065L12.231,6.11
			c-0.893,0.859-0.927,2.28-0.06,3.182c0.004,0.004,0.009,0.006,0.012,0.01c0.001,0.001,0.001,0.001,0.001,0.001l2.733,2.704
			l-3.644,3.645c-0.195,0.195-0.195,0.512,0,0.707c0.195,0.195,0.512,0.195,0.707,0l4-4c0.195-0.197,0.197-0.513-0.002-0.709
			l-1.733-1.715c0.414-0.084,0.796-0.281,1.103-0.577L19.47,5.491z"/>
	</g>
</g>
<g id="invisible_shape">
	<rect fill="none" width="24" height="24"/>
</g>
</svg>
