<?xml version="1.0" encoding="utf-8"?>
<!-- Generator: Adobe Illustrator 19.2.0, SVG Export Plug-In . SVG Version: 6.00 Build 0)  -->
<svg version="1.1" xmlns="http://www.w3.org/2000/svg" xmlns:xlink="http://www.w3.org/1999/xlink" x="0px" y="0px" width="24px"
	 height="24px" viewBox="0 0 24 24" enable-background="new 0 0 24 24" xml:space="preserve">
<g id="Filled_Icons">
	<g>
		<polygon points="14.798,1 3.203,1 0.475,6 17.505,5.999 		"/>
		<path d="M24,8V6.318L21.234,3H18v14H9.5c3.817,0,7.053-2.529,8.123-6H0.377c1.07,3.471,4.306,6,8.123,6H0v4h0.185
			C0.599,19.839,1.698,19,3,19c1.302,0,2.401,0.839,2.815,2h12.369c0.414-1.161,1.513-2,2.815-2c1.302,0,2.401,0.839,2.815,2H24v-8
			h-3v-1h3v-1h-3v-1h3V9h-3V8H24z"/>
		<circle cx="21" cy="22" r="2"/>
		<circle cx="3" cy="22" r="2"/>
	</g>
</g>
<g id="invisible_shape">
	<rect fill="none" width="24" height="24"/>
</g>
</svg>
