<?xml version="1.0" encoding="utf-8"?>
<!-- Generator: Adobe Illustrator 19.2.0, SVG Export Plug-In . SVG Version: 6.00 Build 0)  -->
<svg version="1.1" xmlns="http://www.w3.org/2000/svg" xmlns:xlink="http://www.w3.org/1999/xlink" x="0px" y="0px" width="24px"
	 height="24px" viewBox="0 0 24 24" enable-background="new 0 0 24 24" xml:space="preserve">
<g id="Filled_Icons">
	<path d="M23.5,8C23.776,8,24,7.775,24,7.5C24,7.223,23.776,7,23.5,7H22V5h1.5C23.776,5,24,4.775,24,4.5C24,4.223,23.776,4,23.5,4
		H22V1c0-0.277-0.224-0.5-0.5-0.5S21,0.723,21,1v3h-2V1c0-0.277-0.224-0.5-0.5-0.5S18,0.723,18,1v3h-2V1c0-0.277-0.224-0.5-0.5-0.5
		S15,0.723,15,1v3h-2V1c0-0.277-0.224-0.5-0.5-0.5S12,0.723,12,1v3h-2V1c0-0.277-0.224-0.5-0.5-0.5S9,0.723,9,1v3H7V2H0v22h24v-8h-2
		v-2h1.5c0.276,0,0.5-0.225,0.5-0.5c0-0.277-0.224-0.5-0.5-0.5H22v-2h1.5c0.276,0,0.5-0.225,0.5-0.5c0-0.277-0.224-0.5-0.5-0.5H22V8
		H23.5z M21,5v2h-2V5H21z M18,5v2h-2V5H18z M11.306,14H12v0.416L11.306,14z M10,13v-2h2v2H10z M14.639,16l-1.642-0.985L13,15v-1h2v2
		H14.639z M13,13v-2h2v2H13z M13,10V8h2v2H13z M12,10h-2V8h2V10z M16,16v-2h2v2H16z M16,13v-2h2v2H16z M16,10V8h2v2H16z M15,5v2h-2
		V5H15z M12,5v2h-2V5H12z M9,5v2H7V5H9z M21,16h-2v-2h2V16z M21,13h-2v-2h2V13z M21,10h-2V8h2V10z"/>
</g>
<g id="invisible_shape">
	<rect fill="none" width="24" height="24"/>
</g>
</svg>
