<?xml version="1.0" encoding="utf-8"?>
<!-- Generator: Adobe Illustrator 19.2.0, SVG Export Plug-In . SVG Version: 6.00 Build 0)  -->
<svg version="1.1" xmlns="http://www.w3.org/2000/svg" xmlns:xlink="http://www.w3.org/1999/xlink" x="0px" y="0px" width="24px"
	 height="24px" viewBox="0 0 24 24" enable-background="new 0 0 24 24" xml:space="preserve">
<g id="Filled_Icons">
	<path d="M20.854,6.147l-6-6C14.76,0.053,14.633,0,14.5,0h-11C3.224,0,3,0.223,3,0.5v23C3,23.775,3.224,24,3.5,24h17
		c0.276,0,0.5-0.225,0.5-0.5v-17C21,6.367,20.947,6.24,20.854,6.147z M14.541,19c-0.005,0-0.012,0-0.02,0H8.5
		c-0.275,0-0.499-0.223-0.5-0.498V14.71l3.549-3.236L15,14.663V18.5C15,18.775,14.817,19,14.541,19z M16.867,14.338
		c-0.188,0.205-0.502,0.217-0.706,0.029l-4.609-4.251l-4.652,4.253c-0.203,0.186-0.52,0.172-0.706-0.032
		c-0.187-0.204-0.172-0.521,0.032-0.706l4.99-4.563c0.189-0.176,0.484-0.174,0.676,0.002l4.947,4.561
		C17.042,13.819,17.055,14.135,16.867,14.338z M15,6.5c-0.276,0-0.5-0.225-0.5-0.5V0.793L20.207,6.5H15z"/>
</g>
<g id="invisible_shape">
	<rect fill="none" width="24" height="24"/>
</g>
</svg>
