<?xml version="1.0" encoding="utf-8"?>
<!-- Generator: Adobe Illustrator 19.2.0, SVG Export Plug-In . SVG Version: 6.00 Build 0)  -->
<svg version="1.1" xmlns="http://www.w3.org/2000/svg" xmlns:xlink="http://www.w3.org/1999/xlink" x="0px" y="0px" width="24px"
	 height="24px" viewBox="0 0 24 24" enable-background="new 0 0 24 24" xml:space="preserve">
<g id="Filled_Icons">
	<g>
		<path d="M5.197,22.756c0.303-0.53,1.788-3.048,3.909-5.515C8.102,16.43,6.905,16,5.57,16c-3.66,0-5.48,7.077-5.556,7.378
			C-0.064,23.693,0.175,24,0.5,24h4.597C4.952,23.593,4.978,23.14,5.197,22.756z"/>
		<path d="M8.048,11.845c-0.195,0.195-0.195,0.512,0,0.708l2.824,2.823c1.7-1.618,3.644-2.944,5.656-3.281l-0.291-1.152
			c-0.022-0.088-0.067-0.168-0.131-0.231l-3.109-3.109c-0.188-0.188-0.52-0.188-0.707,0L10.523,9.37L4.158,3.006l2.121-2.121
			c0.195-0.195,0.195-0.512,0-0.707c-0.195-0.195-0.512-0.195-0.707,0L0.623,5.127c-0.195,0.195-0.195,0.512,0,0.707
			c0.195,0.195,0.512,0.195,0.707,0l2.121-2.121l6.364,6.364L8.048,11.845z"/>
		<path d="M17.5,13c-5.517,0-11.195,9.833-11.435,10.252C5.874,23.59,6.12,24,6.5,24h17c0.283,0,0.512-0.238,0.499-0.521
			C23.981,23.053,23.494,13,17.5,13z"/>
	</g>
</g>
<g id="invisible_shape">
	<rect fill="none" width="24" height="24"/>
</g>
</svg>
