<?xml version="1.0" encoding="utf-8"?>
<!-- Generator: Adobe Illustrator 19.2.0, SVG Export Plug-In . SVG Version: 6.00 Build 0)  -->
<svg version="1.1" xmlns="http://www.w3.org/2000/svg" xmlns:xlink="http://www.w3.org/1999/xlink" x="0px" y="0px" width="24px"
	 height="24px" viewBox="0 0 24 24" enable-background="new 0 0 24 24" xml:space="preserve">
<g id="Filled_Icons">
	<g>
		<path d="M7.499,18H0.5C0.224,18,0,18.224,0,18.5v5C0,23.776,0.224,24,0.5,24h6.999c0.277,0,0.5-0.224,0.5-0.5v-5
			C7.999,18.224,7.776,18,7.499,18z"/>
		<path d="M23.5,18h-5c-0.276,0-0.5,0.224-0.5,0.5v5c0,0.276,0.224,0.5,0.5,0.5h5c0.276,0,0.5-0.224,0.5-0.5v-5
			C24,18.224,23.776,18,23.5,18z"/>
		<path d="M0.5,17h4C4.776,17,5,16.776,5,16.5v-5C5,11.224,4.776,11,4.5,11h-4C0.224,11,0,11.224,0,11.5v5C0,16.776,0.224,17,0.5,17
			z"/>
		<path d="M0.5,10h7C7.776,10,8,9.776,8,9.5v-5C8,4.224,7.776,4,7.5,4h-7C0.224,4,0,4.224,0,4.5v5C0,9.776,0.224,10,0.5,10z"/>
		<path d="M11.074,20.77c-0.556,0.213-1.184,0.083-1.603-0.339c-0.251-0.251-0.385-0.577-0.418-0.917
			C9.032,19.512,9.023,19.5,9,19.5v4C9,23.776,9.224,24,9.5,24h7c0.276,0,0.5-0.224,0.5-0.5v-5c0-0.012-0.006-0.021-0.007-0.033
			L11.074,20.77z"/>
		<path d="M6.5,11C6.224,11,6,11.224,6,11.5v5C6,16.776,6.224,17,6.5,17h3.344l2.333-6H6.5z"/>
		<path d="M9.5,10h3.065l0.042-0.108c0.431-1.434,1.915-2.364,3.594-1.885l-0.316-0.364c-0.002-0.002-0.005-0.004-0.007-0.006
			C15.027,6.671,14.841,5.214,15.642,4H9.5C9.224,4,9,4.224,9,4.5v5C9,9.776,9.224,10,9.5,10z"/>
		<path d="M10.531,19.876c0.153,0,8.98-3.46,9.122-3.516c1.507-0.38,1.828-2.239,0.732-3.338l-0.433-0.433l-2.491,2.197
			c-0.622,0.548-1.568,0.488-2.117-0.133c-0.548-0.621-0.489-1.569,0.133-2.117l2.35-2.073l-0.941-0.941
			c-1.102-1.103-2.954-0.733-3.319,0.672l-3.5,9C9.937,19.524,10.183,19.876,10.531,19.876z"/>
		<path d="M16.638,6.989L16.638,6.989l2.878,3.317l-3.378,2.981c-0.207,0.183-0.227,0.499-0.044,0.706
			c0.185,0.208,0.5,0.226,0.705,0.044l3.75-3.309c0.207-0.182,0.228-0.495,0.047-0.703L18.51,7.621
			c0.348-0.068,0.675-0.227,0.947-0.468l3.853-3.5c0.847-0.746,0.893-2.012,0.178-2.823c-0.701-0.794-2.02-0.885-2.827-0.172
			l-3.856,3.501c-0.822,0.727-0.907,1.991-0.176,2.822C16.632,6.984,16.635,6.986,16.638,6.989z"/>
	</g>
</g>
<g id="invisible_shape">
	<rect fill="none" width="24" height="24"/>
</g>
</svg>
