<?xml version="1.0" encoding="utf-8"?>
<!-- Generator: Adobe Illustrator 19.2.0, SVG Export Plug-In . SVG Version: 6.00 Build 0)  -->
<svg version="1.1" xmlns="http://www.w3.org/2000/svg" xmlns:xlink="http://www.w3.org/1999/xlink" x="0px" y="0px" width="24px"
	 height="24px" viewBox="0 0 24 24" enable-background="new 0 0 24 24" xml:space="preserve">
<g id="Filled_Icons">
	<g>
		<path d="M23.5,5h-1.38l-3.001,3h1.38c0.276,0,0.5,0.224,0.501,0.499V12h-5v1h5v1h-5v1h5v5.5c0,0.276-0.224,0.5-0.5,0.5H18v-4.5
			c0-0.276-0.224-0.5-0.5-0.5h-5c-0.276,0-0.5,0.224-0.5,0.5V21H8v-4.5C8,16.224,7.776,16,7.5,16H3v-2h5v-1H3V8.5
			C3,8.224,3.224,8,3.5,8h6.938c0,0,0.19-0.582,0.207-0.62c0.074-0.161,0.166-0.314,0.293-0.44L12.877,5H0.5C0.224,5,0,5.224,0,5.5
			v18C0,23.776,0.224,24,0.5,24h23c0.276,0,0.5-0.224,0.5-0.5v-18C24,5.224,23.776,5,23.5,5z M17,17v1h-4v-1H17z M13,19h4v2h-4.001
			L13,19z M3,20.5V17h4v4H3.5C3.224,21,3,20.776,3,20.5z"/>
		<g>
			<path d="M11.436,8.146l-0.92,3.217c-0.05,0.175-0.001,0.363,0.128,0.491c0.133,0.133,0.326,0.177,0.491,0.127l3.217-0.919
				L11.436,8.146z"/>
			<rect x="12.609" y="4.232" transform="matrix(0.7071 -0.7071 0.7071 0.7071 0.0897 13.2156)" width="6.78" height="4.535"/>
			<path d="M22.354,2.645l-2.5-2.5c-0.195-0.195-0.512-0.195-0.707,0l-1.647,1.647l3.207,3.207l1.647-1.647
				C22.549,3.157,22.549,2.841,22.354,2.645z"/>
		</g>
	</g>
</g>
<g id="invisible_shape">
	<rect fill="none" width="24" height="24"/>
</g>
</svg>
