<?xml version="1.0" encoding="utf-8"?>
<!-- Generator: Adobe Illustrator 19.2.0, SVG Export Plug-In . SVG Version: 6.00 Build 0)  -->
<svg version="1.1" xmlns="http://www.w3.org/2000/svg" xmlns:xlink="http://www.w3.org/1999/xlink" x="0px" y="0px" width="24px"
	 height="24px" viewBox="0 0 24 24" enable-background="new 0 0 24 24" xml:space="preserve">
<g id="Filled_Icons">
	<path d="M22.5,14H21v-0.5c0-5.489-4.097-10.177-9.53-10.902c-1.302-0.176-2.142,0.311-3.061,1.077C9.014,3.56,9.572,3.5,10,3.5
		c3.738,0,6.912,2.046,8.938,5.761c0.133,0.241,0.043,0.546-0.199,0.678C18.5,10.07,18.194,9.984,18.06,9.739
		C16.218,6.361,13.356,4.5,10,4.5c-4.67,0-8.752,3.691-8.977,8.585C0.431,13.286,0,13.841,0,14.5v1C0,16.327,0.674,17,1.502,17H2v3
		c0,1.103,0.898,2,2.001,2s2.001-0.897,2.001-2c0-0.552,0.448-1,1-1h10.5c1.207,0,2.216-0.861,2.448-2h2.55
		c0.826,0,1.5-0.673,1.5-1.5C24,14.672,23.326,14,22.5,14z M22.5,16H1.502C1.226,16,1,15.775,1,15.5v-1C1,14.225,1.226,14,1.502,14
		H11v0.5c0,0.276,0.224,0.5,0.5,0.5h11c0.275,0,0.5,0.225,0.5,0.5S22.775,16,22.5,16z"/>
</g>
<g id="invisible_shape">
	<rect fill="none" width="24" height="24"/>
</g>
</svg>
