<?xml version="1.0" encoding="utf-8"?>
<!-- Generator: Adobe Illustrator 19.2.0, SVG Export Plug-In . SVG Version: 6.00 Build 0)  -->
<svg version="1.1" xmlns="http://www.w3.org/2000/svg" xmlns:xlink="http://www.w3.org/1999/xlink" x="0px" y="0px" width="24px"
	 height="24px" viewBox="0 0 24 24" enable-background="new 0 0 24 24" xml:space="preserve">
<g id="Filled_Icons">
	<g>
		<path d="M23.5,11.017h-1.867l-5.859-3.349c-0.237-0.138-0.544-0.056-0.683,0.186c-0.137,0.239-0.054,0.545,0.186,0.682l4.34,2.48
			H4.383L9.748,7.95c0.24-0.137,0.323-0.442,0.187-0.682C9.796,7.026,9.487,6.945,9.252,7.082l-6.885,3.935H0.5
			c-0.276,0-0.5,0.223-0.5,0.5v10c0,0.275,0.224,0.5,0.5,0.5h23c0.276,0,0.5-0.225,0.5-0.5v-10C24,11.239,23.776,11.017,23.5,11.017
			z M5,19.517c0,0.275-0.224,0.5-0.5,0.5S4,19.792,4,19.517v-6c0-0.277,0.224-0.5,0.5-0.5s0.5,0.223,0.5,0.5V19.517z M10,19.517
			c0,0.275-0.224,0.5-0.5,0.5S9,19.792,9,19.517v-6c0-0.277,0.224-0.5,0.5-0.5s0.5,0.223,0.5,0.5V19.517z M15,19.517
			c0,0.275-0.224,0.5-0.5,0.5s-0.5-0.225-0.5-0.5v-6c0-0.277,0.224-0.5,0.5-0.5s0.5,0.223,0.5,0.5V19.517z M20,19.517
			c0,0.275-0.224,0.5-0.5,0.5s-0.5-0.225-0.5-0.5v-6c0-0.277,0.224-0.5,0.5-0.5s0.5,0.223,0.5,0.5V19.517z"/>
		<g>
			<path d="M12.5,8.017c-1.379,0-2.5-1.122-2.5-2.5c0-1.162,0.889-2.199,2-2.445V0.517c0-0.277,0.224-0.5,0.5-0.5s0.5,0.223,0.5,0.5
				v3c0,0.275-0.224,0.5-0.5,0.5c-0.693,0-1.5,0.654-1.5,1.5c0,0.826,0.673,1.5,1.5,1.5s1.5-0.674,1.5-1.5
				c0-0.277,0.224-0.5,0.5-0.5s0.5,0.223,0.5,0.5C15,6.894,13.879,8.017,12.5,8.017z"/>
		</g>
	</g>
</g>
<g id="invisible_shape">
	<rect fill="none" width="24" height="24"/>
</g>
</svg>
