<?xml version="1.0" encoding="utf-8"?>
<!-- Generator: Adobe Illustrator 19.2.0, SVG Export Plug-In . SVG Version: 6.00 Build 0)  -->
<svg version="1.1" xmlns="http://www.w3.org/2000/svg" xmlns:xlink="http://www.w3.org/1999/xlink" x="0px" y="0px" width="24px"
	 height="24px" viewBox="0 0 24 24" enable-background="new 0 0 24 24" xml:space="preserve">
<g id="Filled_Icons">
	<g>
		<path d="M5,0.994h2V4H5.5C5.224,4,5,4.224,5,4.5v4.494l5-0.025V4.5C10,4.224,9.776,4,9.5,4H8V0.5C8,0.224,7.776,0,7.5,0H5
			C4.724,0,4.5,0.224,4.5,0.5S4.724,1,5,0.994z"/>
		<path d="M4,15c2.757,0,5,2.243,5,5c0,0.343-0.035,0.677-0.102,0.994h2.787C11.25,20.089,11,19.074,11,18c0-3.859,3.14-7,7-7
			c2.548,0,4.775,1.373,6,3.413V5.5C24,4.121,22.878,3,21.5,3h-5.266c-1.236,0-2.3,0.923-2.475,2.147L13.066,10H5.5
			C3.019,10,1,12.019,1,14.5v1.525C1.838,15.391,2.87,15,4,15z M15.924,5.418c0.04-0.241,0.249-0.418,0.493-0.424H19.5
			C19.776,5,20,5.224,20,5.5v2.994c0,0.276-0.224,0.5-0.5,0.5H16c-0.313,0-0.544-0.281-0.493-0.582L15.924,5.418z"/>
		<path d="M4,16c-2.206,0-4,1.794-4,4s1.794,3.994,4,3.994c2.206,0,4-1.788,4-3.994S6.206,16,4,16z M4,21.5
			c-0.827,0-1.5-0.673-1.5-1.5s0.673-1.5,1.5-1.5s1.5,0.673,1.5,1.5S4.827,21.5,4,21.5z"/>
		<path d="M18,12c-3.309,0-6,2.691-6,6s2.691,5.994,6,5.994s6-2.686,6-5.994S21.309,12,18,12z M18,20.5c-1.378,0-2.5-1.121-2.5-2.5
			s1.122-2.5,2.5-2.5c1.378,0,2.5,1.121,2.5,2.5S19.378,20.5,18,20.5z"/>
	</g>
</g>
<g id="invisible_shape">
	<rect fill="none" width="24" height="24"/>
</g>
</svg>
