<?xml version="1.0" encoding="utf-8"?>
<!-- Generator: Adobe Illustrator 19.2.0, SVG Export Plug-In . SVG Version: 6.00 Build 0)  -->
<svg version="1.1" xmlns="http://www.w3.org/2000/svg" xmlns:xlink="http://www.w3.org/1999/xlink" x="0px" y="0px" width="24px"
	 height="24px" viewBox="0 0 24 24" enable-background="new 0 0 24 24" xml:space="preserve">
<g id="Filled_Icons">
	<g>
		<circle cx="6.5" cy="19.5" r="3.5"/>
		<path d="M14.794,7.067C14.171,5.256,12.45,3.994,10.5,3.994c-1.951,0-3.673,1.262-4.296,3.073C4.749,6.642,3.196,7.318,2.57,8.974
			h15.851C17.799,7.379,16.295,6.629,14.794,7.067z"/>
		<path d="M23.875,7.148c-0.196-0.197-0.512-0.197-0.707-0.002L20.294,10H0.5c-0.397,0-0.636,0.443-0.417,0.776l3.516,5.313
			C4.384,15.42,5.389,15,6.5,15c2.481,0,4.5,2.02,4.5,4.5c0,0.171-0.032,0.334-0.051,0.5H11.5c0.133,0,0.26-0.053,0.354-0.146
			l2.426-2.426l4.493,3.854c0.286,0.245,0.998,0.32,1.548-0.04c0.426-0.278,0.68-0.748,0.68-1.255v-9.278l2.873-2.854
			C24.068,7.66,24.069,7.344,23.875,7.148z M20,19.986c0,0.326-0.313,0.575-0.643,0.479l-4.368-3.747L20,11.707V19.986z"/>
	</g>
</g>
<g id="invisible_shape">
	<rect fill="none" width="24" height="24"/>
</g>
</svg>
