<?xml version="1.0" encoding="utf-8"?>
<!-- Generator: Adobe Illustrator 19.2.0, SVG Export Plug-In . SVG Version: 6.00 Build 0)  -->
<svg version="1.1" xmlns="http://www.w3.org/2000/svg" xmlns:xlink="http://www.w3.org/1999/xlink" x="0px" y="0px" width="24px"
	 height="24px" viewBox="0 0 24 24" enable-background="new 0 0 24 24" xml:space="preserve">
<g id="Filled_Icons">
	<g>
		<path d="M16,14.5c0-2.28-1.72-4-4-4s-4,1.72-4,4C8,15.328,7.328,16,6.5,16H3.63c-0.125,0.542-0.13,0.971-0.13,1.001
			C3.5,17.276,3.724,17.5,4,17.5h1.697c0.106,0.503,0.26,0.76,0.464,1.062c0.006,0.009,0.012,0.018,0.018,0.026
			c-1.038,1.521-0.051,3.161,0.665,3.852c0.197,0.191,0.513,0.186,0.705-0.011l1.228-1.259c0.359,0.188,0.8,0.359,1.331,0.52
			c0.344,1.816,2.328,2.31,3.391,2.31C13.775,24,14,23.776,14,23.5v-1.697c0.502-0.106,0.759-0.26,1.061-0.465
			c0.009-0.006,0.018-0.012,0.027-0.019c0.438,0.299,0.915,0.45,1.424,0.45c1.337,0,2.384-1.069,2.428-1.114
			c0.191-0.198,0.186-0.514-0.011-0.706l-1.259-1.227c0.186-0.359,0.358-0.8,0.52-1.331c0.796-0.15,1.418-0.631,1.819-1.391H17.5
			C16.671,16,16,15.328,16,14.5z M12,18.5c-1.654,0-3-1.346-3-3s1.346-3,3-3s3,1.346,3,3S13.654,18.5,12,18.5z"/>
		<path d="M12,3.5c-6.169,0-11,4.832-11,11c0,0.276,0.224,0.5,0.5,0.494h5C6.776,15,7,14.776,7,14.5c0-2.804,2.196-5,5-5
			s5,2.196,5,5c0,0.276,0.224,0.5,0.5,0.494h5C22.776,15,23,14.776,23,14.5C23,8.332,18.169,3.5,12,3.5z"/>
		<rect x="1" y="2.994" width="4" height="1"/>
		<path d="M5,4.994H1v4.643C1.864,7.639,3.252,6.233,5,4.994z"/>
		<path d="M5,1.5C4.776,0.64,3.929,0,3,0C2.07,0,1.224,0.64,1,1.5v0.494h4V1.5z"/>
	</g>
</g>
<g id="invisible_shape">
	<rect fill="none" width="24" height="24"/>
</g>
</svg>
