<?xml version="1.0" encoding="utf-8"?>
<!-- Generator: Adobe Illustrator 16.0.3, SVG Export Plug-In . SVG Version: 6.00 Build 0)  -->
<!DOCTYPE svg PUBLIC "-//W3C//DTD SVG 1.1//EN" "http://www.w3.org/Graphics/SVG/1.1/DTD/svg11.dtd">
<svg version="1.1" xmlns="http://www.w3.org/2000/svg" xmlns:xlink="http://www.w3.org/1999/xlink" x="0px" y="0px" width="24px"
	 height="24px" viewBox="0 0 24 24" enable-background="new 0 0 24 24" xml:space="preserve">
<g id="Outline_Icons">
	<g>
		<circle fill="none" stroke="#000000" stroke-linejoin="round" stroke-miterlimit="10" cx="8.5" cy="2.5" r="2"/>
		<polyline fill="none" stroke="#000000" stroke-linecap="round" stroke-linejoin="round" stroke-miterlimit="10" points="
			11.5,23.5 11.5,19.5 15.5,19.5 15.5,15.5 19.5,15.5 19.5,11.5 23.5,11.5 		"/>
		
			<line fill="none" stroke="#000000" stroke-linecap="round" stroke-linejoin="round" stroke-miterlimit="10" x1="23.5" y1="17.5" x2="17.5" y2="23.5"/>
		<polyline fill="none" stroke="#000000" stroke-linecap="round" stroke-linejoin="round" stroke-miterlimit="10" points="
			20.5,23.5 17.5,23.5 17.5,20.5 		"/>
		<path fill="none" stroke="#000000" stroke-linecap="round" stroke-linejoin="round" stroke-miterlimit="10" d="M13,17l-1.5-3v-1
			l1.29-1.612c0.44-0.55,0.559-1.292,0.311-1.952l-0.614-1.638C12.194,7.018,11.448,6.5,10.614,6.5H6.149
			c-0.711,0-1.369,0.378-1.728,0.992L3,9.929l-1.469,0.787C1.205,10.891,1,11.231,1,11.603c0,0.324,0.156,0.628,0.418,0.817
			c0.263,0.189,0.601,0.241,0.907,0.139L4,12l2.5-2.5V15L4,22h2l3-6l1.5,2"/>
	</g>
</g>
<g id="invisible_shape">
	<rect fill="none" width="24" height="24"/>
</g>
</svg>
