<?xml version="1.0" encoding="utf-8"?>
<!-- Generator: Adobe Illustrator 19.2.1, SVG Export Plug-In . SVG Version: 6.00 Build 0)  -->
<svg version="1.1" xmlns="http://www.w3.org/2000/svg" xmlns:xlink="http://www.w3.org/1999/xlink" x="0px" y="0px" width="24px"
	 height="24px" viewBox="0 0 24 24" enable-background="new 0 0 24 24" xml:space="preserve">
<g id="Filled_Icons_1_">
	<g id="Filled_Icons">
		<g>
			<g>
				<path d="M18.5,13c-3.032,0-5.5,2.467-5.5,5.5c0,3.033,2.468,5.5,5.5,5.5s5.5-2.467,5.5-5.5C24,15.467,21.532,13,18.5,13z
					 M15.231,17.346c0.833-2.349,3.811-3.129,5.798-1.371V15.85c0-0.276,0.224-0.5,0.5-0.5c0.276,0,0.5,0.224,0.5,0.5v1.665
					c0,0.276-0.224,0.5-0.5,0.5h-1.666c-0.276,0-0.5-0.224-0.5-0.5c0-0.276,0.224-0.5,0.5-0.5h0.795
					c-1.243-1.534-3.793-1.281-4.483,0.665c-0.094,0.262-0.38,0.395-0.639,0.305C15.276,17.892,15.14,17.606,15.231,17.346z
					 M22.162,19.659c-0.833,2.346-3.804,3.129-5.798,1.37v0.125c0,0.277-0.224,0.5-0.5,0.5c-0.276,0-0.5-0.223-0.5-0.5v-1.665
					c0-0.276,0.224-0.5,0.5-0.5h1.666c0.276,0,0.5,0.224,0.5,0.5c0,0.276-0.224,0.5-0.5,0.5h-0.795
					c1.243,1.533,3.793,1.281,4.483-0.665c0.094-0.26,0.383-0.396,0.639-0.305C22.118,19.112,22.254,19.398,22.162,19.659z"/>
			</g>
			<path d="M20,0.5C20,0.224,19.776,0,19.5,0c0,0-0.001,0-0.002,0l0,0l-6.257,0.008c-0.132,0-0.259,0.053-0.353,0.146L0.646,12.397
				c-0.195,0.195-0.195,0.512,0,0.707l6.25,6.25c0.195,0.195,0.511,0.195,0.707,0L19.845,7.111c0.094-0.094,0.146-0.221,0.148-0.354
				L20,0.5L20,0.5L20,0.5z M17.414,5.416c-0.779,0.779-2.049,0.779-2.828,0c-0.78-0.78-0.779-2.049,0-2.828
				c0.779-0.78,2.049-0.781,2.828-0.001C18.193,3.366,18.193,4.636,17.414,5.416z"/>
		</g>
	</g>
	<g id="New_icons">
	</g>
</g>
<g id="Invisible_Shape">
	<rect fill="none" width="24" height="24"/>
</g>
</svg>
