<?xml version="1.0" encoding="utf-8"?>
<!-- Generator: Adobe Illustrator 19.2.1, SVG Export Plug-In . SVG Version: 6.00 Build 0)  -->
<svg version="1.1" xmlns="http://www.w3.org/2000/svg" xmlns:xlink="http://www.w3.org/1999/xlink" x="0px" y="0px" width="24px"
	 height="24px" viewBox="0 0 24 24" enable-background="new 0 0 24 24" xml:space="preserve">
<g id="Filled_Icons_1_">
	<g id="Filled_Icons">
		<g>
			<path d="M18.5,13c-3.033,0-5.5,2.469-5.5,5.5c0,3.033,2.467,5.5,5.5,5.5s5.5-2.467,5.5-5.5C24,15.469,21.533,13,18.5,13z
				 M18.5,17.94c0.915,0,1.659,0.745,1.659,1.661c0,0.739-0.489,1.358-1.159,1.571v0.359c0,0.277-0.224,0.5-0.5,0.5
				s-0.5-0.223-0.5-0.5v-0.359c-0.67-0.213-1.159-0.832-1.159-1.571c0-0.277,0.224-0.5,0.5-0.5c0.276,0,0.5,0.223,0.5,0.5
				c0,0.363,0.296,0.657,0.659,0.657s0.659-0.294,0.659-0.657c0-0.364-0.296-0.661-0.659-0.661c-0.915,0-1.659-0.744-1.659-1.657
				c0-0.741,0.489-1.361,1.159-1.575v-0.357c0-0.275,0.224-0.5,0.5-0.5s0.5,0.225,0.5,0.5v0.357c0.67,0.214,1.159,0.834,1.159,1.575
				c0,0.275-0.224,0.5-0.5,0.5c-0.276,0-0.5-0.225-0.5-0.5c0-0.364-0.296-0.66-0.659-0.66s-0.659,0.296-0.659,0.66
				C17.841,17.645,18.137,17.94,18.5,17.94z"/>
			<path d="M20,0.5C20,0.224,19.776,0,19.5,0c-0.001,0-0.001,0-0.002,0l0,0l-6.257,0.008c-0.132,0-0.259,0.053-0.353,0.147
				L0.646,12.397c-0.195,0.195-0.195,0.512,0,0.707l6.25,6.25c0.195,0.195,0.511,0.195,0.707,0L19.845,7.111
				c0.094-0.094,0.146-0.221,0.148-0.353L20,0.5L20,0.5L20,0.5z M17.414,5.416c-0.779,0.779-2.049,0.779-2.828,0
				c-0.78-0.78-0.779-2.049,0-2.828c0.779-0.78,2.049-0.781,2.828-0.001C18.193,3.366,18.193,4.636,17.414,5.416z"/>
		</g>
	</g>
	<g id="New_icons">
	</g>
</g>
<g id="Invisible_Shape">
	<rect fill="none" width="24" height="24"/>
</g>
</svg>
