<?xml version="1.0" encoding="utf-8"?>
<!-- Generator: Adobe Illustrator 19.2.1, SVG Export Plug-In . SVG Version: 6.00 Build 0)  -->
<svg version="1.1" xmlns="http://www.w3.org/2000/svg" xmlns:xlink="http://www.w3.org/1999/xlink" x="0px" y="0px" width="24px"
	 height="24px" viewBox="0 0 24 24" enable-background="new 0 0 24 24" xml:space="preserve">
<g id="Filled_Icons_1_">
	<g id="Filled_Icons">
		<path d="M16,0.007H8c-2.206,0-4,1.794-4,4v19.5c0,0.441,0.536,0.669,0.853,0.354L9.5,19.214l4.646,4.647
			C14.464,24.176,15,23.948,15,23.507v-19c0-0.869,0.631-1.5,1.5-1.5c0.275,0,0.5,0.224,0.5,0.5c0,0.275-0.225,0.5-0.5,0.5
			c-0.318,0-0.5,0.182-0.5,0.5V7h3.5C19.775,7.007,20,6.782,20,6.507v-2.5C20,1.801,18.205,0.007,16,0.007z"/>
	</g>
	<g id="New_icons">
	</g>
</g>
<g id="Invisible_Shape">
	<rect fill="none" width="24" height="24"/>
</g>
</svg>
