<?xml version="1.0" encoding="utf-8"?>
<!-- Generator: Adobe Illustrator 19.2.1, SVG Export Plug-In . SVG Version: 6.00 Build 0)  -->
<svg version="1.1" xmlns="http://www.w3.org/2000/svg" xmlns:xlink="http://www.w3.org/1999/xlink" x="0px" y="0px" width="24px"
	 height="24px" viewBox="0 0 24 24" enable-background="new 0 0 24 24" xml:space="preserve">
<g id="Filled_Icons_1_">
	<g id="Filled_Icons">
		<path d="M23.851,14.656L9.352,0.148C9.258,0.055,9.131,0.001,8.999,0.001L0.5,0.002C0.224,0.001-0.004,0.223,0.001,0.501L-0.001,9
			c-0.001,0.133,0.055,0.26,0.148,0.354l14.5,14.501c0.261,0.263,0.715,0.16,0.831-0.206l1.924-6.248l6.247-1.932
			C24.012,15.355,24.118,14.931,23.851,14.656z M5.5,8C4.121,8,3,6.878,3,5.5C3,4.121,4.121,3,5.5,3C6.878,3,8,4.121,8,5.5
			C8,6.878,6.878,8,5.5,8z"/>
	</g>
	<g id="New_icons">
	</g>
</g>
<g id="Invisible_Shape">
	<rect fill="none" width="24" height="24"/>
</g>
</svg>
