<?xml version="1.0" encoding="utf-8"?>
<!-- Generator: Adobe Illustrator 19.2.1, SVG Export Plug-In . SVG Version: 6.00 Build 0)  -->
<svg version="1.1" xmlns="http://www.w3.org/2000/svg" xmlns:xlink="http://www.w3.org/1999/xlink" x="0px" y="0px" width="24px"
	 height="24px" viewBox="0 0 24 24" enable-background="new 0 0 24 24" xml:space="preserve">
<g id="Filled_Icons_1_">
	<g id="Filled_Icons">
		<g>
			<path d="M0,23.507c0,0.275,0.224,0.5,0.5,0.5h23c0.275,0,0.5-0.225,0.5-0.5v-22c0-0.276-0.225-0.5-0.5-0.5H12v-0.5
				c0-0.276-0.225-0.5-0.5-0.5h-8c-0.276,0-0.5,0.224-0.5,0.5v0.5H0.5c-0.276,0-0.5,0.224-0.5,0.5V23.507z M3.5,16h17
				c0.275,0.007,0.5,0.231,0.5,0.507c0,0.275-0.225,0.5-0.5,0.5h-17c-0.276,0-0.5-0.225-0.5-0.5C3,16.231,3.224,16.007,3.5,16z
				 M14.5,10h6c0.275,0.007,0.5,0.231,0.5,0.507c0,0.275-0.225,0.5-0.5,0.5h-6c-0.276,0-0.5-0.225-0.5-0.5
				C14,10.231,14.224,10.007,14.5,10z M14,7.507c0-0.276,0.224-0.5,0.5-0.507h6C20.775,7.007,21,7.231,21,7.507
				c0,0.275-0.225,0.5-0.5,0.5h-6C14.224,8.007,14,7.782,14,7.507z M14.5,13h6c0.275,0.007,0.5,0.231,0.5,0.507
				c0,0.275-0.225,0.5-0.5,0.5h-6c-0.276,0-0.5-0.225-0.5-0.5C14,13.231,14.224,13.007,14.5,13z M3.5,19h13
				c0.275,0.007,0.5,0.231,0.5,0.507c0,0.275-0.225,0.5-0.5,0.5h-13c-0.276,0-0.5-0.225-0.5-0.5C3,19.231,3.224,19.007,3.5,19z M4,1
				h7v11.3L7.853,9.152c-0.191-0.191-0.511-0.196-0.707,0L4,12.3V1z"/>
		</g>
	</g>
	<g id="New_icons">
	</g>
</g>
<g id="Invisible_Shape">
	<rect fill="none" width="24" height="24"/>
</g>
</svg>
