<?xml version="1.0" encoding="utf-8"?>
<!-- Generator: Adobe Illustrator 19.2.1, SVG Export Plug-In . SVG Version: 6.00 Build 0)  -->
<svg version="1.1" xmlns="http://www.w3.org/2000/svg" xmlns:xlink="http://www.w3.org/1999/xlink" x="0px" y="0px" width="24px"
	 height="24px" viewBox="0 0 24 24" enable-background="new 0 0 24 24" xml:space="preserve">
<g id="Filled_Icons_1_">
	<g id="Filled_Icons">
		<g>
			<path d="M18.5,13c-3.033,0-5.5,2.468-5.5,5.5c0,3.032,2.467,5.5,5.5,5.5s5.5-2.468,5.5-5.5C24,15.468,21.533,13,18.5,13z
				 M20.854,17.854c-0.195,0.195-0.512,0.195-0.707,0L19,16.707V21.5c0,0.276-0.224,0.5-0.5,0.5S18,21.776,18,21.5v-4.793
				l-1.146,1.147c-0.195,0.195-0.512,0.195-0.707,0c-0.195-0.195-0.195-0.512,0-0.707l2-2c0.195-0.195,0.512-0.195,0.707,0l2,2
				C21.049,17.342,21.049,17.658,20.854,17.854z"/>
			<path d="M20,0.5C20,0.224,19.776,0,19.5,0c0,0-0.001,0-0.002,0l0,0l-6.257,0.008c-0.132,0-0.259,0.053-0.353,0.146L0.646,12.397
				c-0.195,0.195-0.195,0.512,0,0.707l6.25,6.25c0.195,0.195,0.511,0.195,0.707,0L19.845,7.111c0.094-0.094,0.146-0.221,0.148-0.354
				L20,0.5L20,0.5L20,0.5z M17.414,5.416c-0.779,0.779-2.049,0.779-2.828,0c-0.78-0.78-0.779-2.049,0-2.828
				c0.779-0.78,2.049-0.781,2.828-0.001C18.193,3.366,18.193,4.636,17.414,5.416z"/>
		</g>
	</g>
	<g id="New_icons">
	</g>
</g>
<g id="Invisible_Shape">
	<rect fill="none" width="24" height="24"/>
</g>
</svg>
