<?xml version="1.0" encoding="utf-8"?>
<!-- Generator: Adobe Illustrator 19.2.1, SVG Export Plug-In . SVG Version: 6.00 Build 0)  -->
<svg version="1.1" xmlns="http://www.w3.org/2000/svg" xmlns:xlink="http://www.w3.org/1999/xlink" x="0px" y="0px" width="24px"
	 height="24px" viewBox="0 0 24 24" enable-background="new 0 0 24 24" xml:space="preserve">
<g id="Filled_Icons_1_">
	<g id="Filled_Icons">
		<path d="M23.854,14.647L9.346,0.16C9.252,0.066,9.125,0.014,8.992,0.014L0.5,0C0.224,0,0,0.224,0,0.5L0.008,9
			c0,0.132,0.053,0.259,0.147,0.353l14.491,14.501c0.195,0.195,0.512,0.195,0.707,0l8.501-8.5
			C24.049,15.158,24.049,14.842,23.854,14.647z M5.5,8.007c-1.379,0-2.5-1.122-2.5-2.5c0-1.379,1.121-2.5,2.5-2.5
			c1.378,0,2.5,1.121,2.5,2.5C8,6.885,6.878,8.007,5.5,8.007z"/>
	</g>
	<g id="New_icons">
	</g>
</g>
<g id="Invisible_Shape">
	<rect fill="none" width="24" height="24"/>
</g>
</svg>
