<?xml version="1.0" encoding="utf-8"?>
<!-- Generator: Adobe Illustrator 19.2.1, SVG Export Plug-In . SVG Version: 6.00 Build 0)  -->
<svg version="1.1" xmlns="http://www.w3.org/2000/svg" xmlns:xlink="http://www.w3.org/1999/xlink" x="0px" y="0px" width="24px"
	 height="24px" viewBox="0 0 24 24" enable-background="new 0 0 24 24" xml:space="preserve">
<g id="Filled_Icons_1_">
	<g id="Filled_Icons">
		<g>
			<g>
				<rect x="15.318" y="16.724" transform="matrix(0.7071 -0.7071 0.7071 0.7071 -8.1569 18.2904)" width="5.364" height="4.536"/>
				<path d="M23.854,15.637l-2.501-2.499c-0.195-0.195-0.512-0.195-0.707,0L19,14.785l3.207,3.206l1.646-1.648
					C24.049,16.148,24.049,15.832,23.854,15.637z"/>
				<path d="M16.847,23.067l-2.916-2.916l-0.911,3.225c-0.047,0.168-0.012,0.353,0.121,0.484c0.131,0.131,0.314,0.166,0.482,0.122
					L16.847,23.067z"/>
			</g>
			<path d="M20,0.5C20,0.224,19.776,0,19.5,0c0,0-0.001,0-0.002,0l0,0l-6.257,0.008c-0.132,0-0.259,0.053-0.353,0.147L0.646,12.397
				c-0.195,0.195-0.195,0.512,0,0.707l6.25,6.25c0.195,0.195,0.511,0.195,0.707,0L19.845,7.111c0.094-0.094,0.146-0.221,0.148-0.353
				L20,0.5L20,0.5L20,0.5z M17.414,5.416c-0.779,0.779-2.049,0.779-2.828,0c-0.78-0.78-0.779-2.049,0-2.828
				c0.779-0.78,2.049-0.781,2.828-0.001C18.193,3.366,18.193,4.636,17.414,5.416z"/>
		</g>
	</g>
	<g id="New_icons">
	</g>
</g>
<g id="Invisible_Shape">
	<rect fill="none" width="24" height="24"/>
</g>
</svg>
