<?xml version="1.0" encoding="utf-8"?>
<!-- Generator: Adobe Illustrator 19.2.1, SVG Export Plug-In . SVG Version: 6.00 Build 0)  -->
<svg version="1.1" xmlns="http://www.w3.org/2000/svg" xmlns:xlink="http://www.w3.org/1999/xlink" x="0px" y="0px" width="24px"
	 height="24px" viewBox="0 0 24 24" enable-background="new 0 0 24 24" xml:space="preserve">
<g id="Filled_Icons_1_">
	<g id="Filled_Icons">
		<g>
			<path d="M7.853,2.152C7.76,2.06,7.632,2.007,7.5,2.007h-7c-0.276,0-0.5,0.224-0.5,0.5v7C0,9.64,0.053,9.767,0.147,9.86l14,14
				c0.237,0.237,0.666,0.173,0.817-0.168l1.921-4.801l4.801-1.921c0.33-0.132,0.423-0.562,0.168-0.818L7.853,2.152z M5,9.007
				c-1.103,0-2-0.897-2-2c0-1.102,0.897-2,2-2c1.102,0,2,0.897,2,2C7,8.109,6.102,9.007,5,9.007z"/>
			<path d="M23.835,13.134L10.854,0.152C10.76,0.06,10.632,0.007,10.5,0.007h-7c-0.276,0-0.5,0.224-0.5,0.5
				C3,0.782,3.224,1.007,3.5,1h6.793l12.276,12.283l-0.727,0.242c-0.262,0.088-0.403,0.371-0.316,0.633
				c0.088,0.261,0.37,0.405,0.633,0.316l1.502-0.507C24.021,13.844,24.12,13.397,23.835,13.134z"/>
		</g>
	</g>
	<g id="New_icons">
	</g>
</g>
<g id="Invisible_Shape">
	<rect fill="none" width="24" height="24"/>
</g>
</svg>
