<?xml version="1.0" encoding="utf-8"?>
<!-- Generator: Adobe Illustrator 19.2.1, SVG Export Plug-In . SVG Version: 6.00 Build 0)  -->
<svg version="1.1" xmlns="http://www.w3.org/2000/svg" xmlns:xlink="http://www.w3.org/1999/xlink" x="0px" y="0px" width="24px"
	 height="24px" viewBox="0 0 24 24" enable-background="new 0 0 24 24" xml:space="preserve">
<g id="Filled_Icons_1_">
	<g id="Filled_Icons">
		<g>
			<path d="M22.673,20.116c-0.854-0.31-1.815,0.048-2.317,0.766l-3.373-1.205c0.016-0.19,0.043-0.268-0.028-0.596l3.543-1.771
				c0.612,0.706,1.596,0.879,2.395,0.479c0.991-0.493,1.392-1.693,0.897-2.684c-0.499-0.999-1.7-1.384-2.683-0.895
				c-0.778,0.39-1.259,1.263-1.056,2.204l-3.552,1.775C16.133,17.772,15.6,17.5,15,17.5c-1.102,0-2,0.898-2,2c0,1.103,0.898,2,2,2
				c0.688,0,1.294-0.349,1.654-0.879l3.36,1.2c-0.088,0.962,0.493,1.771,1.312,2.062c1.045,0.374,2.188-0.18,2.557-1.21
				C24.256,21.628,23.711,20.486,22.673,20.116z M21.554,15.106c0.478-0.239,1.086-0.062,1.341,0.447
				c0.246,0.495,0.047,1.097-0.448,1.342c-0.482,0.243-1.099,0.032-1.339-0.446c-0.001-0.001-0.001-0.001-0.001-0.001
				s-0.001-0.002-0.002-0.003C20.856,15.946,21.065,15.349,21.554,15.106z M15,20.5c-0.552,0-1-0.448-1-1c0-0.552,0.448-1,1-1
				s1,0.448,1,1C16,20.052,15.552,20.5,15,20.5z M22.941,22.337c-0.181,0.504-0.765,0.787-1.278,0.604
				c-0.514-0.184-0.79-0.749-0.605-1.272c0.001-0.002,0.003-0.003,0.004-0.005l0.001-0.009c0.19-0.515,0.76-0.783,1.273-0.598
				C22.856,21.243,23.129,21.813,22.941,22.337z"/>
			<path d="M20,0.5C20,0.224,19.776,0,19.5,0c0,0-0.001,0-0.002,0l0,0l-6.257,0.008c-0.132,0-0.259,0.053-0.353,0.147L0.646,12.397
				c-0.195,0.195-0.195,0.512,0,0.707l6.25,6.25c0.195,0.195,0.511,0.195,0.707,0L19.845,7.111c0.094-0.094,0.146-0.221,0.148-0.353
				L20,0.5L20,0.5L20,0.5z M17.414,5.416c-0.779,0.779-2.049,0.779-2.828,0c-0.78-0.78-0.779-2.049,0-2.828
				c0.779-0.78,2.049-0.781,2.828-0.001C18.193,3.366,18.193,4.636,17.414,5.416z"/>
		</g>
	</g>
	<g id="New_icons">
	</g>
</g>
<g id="Invisible_Shape">
	<rect fill="none" width="24" height="24"/>
</g>
</svg>
