<?xml version="1.0" encoding="utf-8"?>
<!-- Generator: Adobe Illustrator 19.2.1, SVG Export Plug-In . SVG Version: 6.00 Build 0)  -->
<svg version="1.1" xmlns="http://www.w3.org/2000/svg" xmlns:xlink="http://www.w3.org/1999/xlink" x="0px" y="0px" width="24px"
	 height="24px" viewBox="0 0 24 24" enable-background="new 0 0 24 24" xml:space="preserve">
<g id="Filled_Icons_1_">
	<g id="Filled_Icons">
		<g>
			<path d="M21.272,14.818c-0.771,0-1.674,0.38-2.272,1.368c-0.599-0.988-1.501-1.368-2.272-1.368c-1.341,0-2.728,1.117-2.728,2.984
				c0,2.604,4.225,5.752,4.706,6.102C18.794,23.969,18.896,24,19,24s0.206-0.031,0.294-0.096C19.775,23.555,24,20.407,24,17.803
				C24,15.936,22.613,14.818,21.272,14.818z"/>
			<path d="M20,0.5C20,0.224,19.776,0,19.5,0c-0.001,0-0.001,0-0.002,0l0,0l-6.257,0.008c-0.132,0-0.259,0.053-0.353,0.147
				L0.646,12.397c-0.195,0.195-0.195,0.512,0,0.707l6.25,6.25c0.195,0.195,0.511,0.195,0.707,0L19.845,7.111
				c0.094-0.094,0.146-0.221,0.148-0.353L20,0.5L20,0.5L20,0.5z M17.414,5.416c-0.779,0.779-2.049,0.779-2.828,0
				c-0.78-0.78-0.779-2.049,0-2.828c0.779-0.78,2.049-0.781,2.828-0.001C18.193,3.366,18.193,4.636,17.414,5.416z"/>
		</g>
	</g>
	<g id="New_icons">
	</g>
</g>
<g id="Invisible_Shape">
	<rect fill="none" width="24" height="24"/>
</g>
</svg>
