<?xml version="1.0" encoding="utf-8"?>
<!-- Generator: Adobe Illustrator 16.0.3, SVG Export Plug-In . SVG Version: 6.00 Build 0)  -->
<!DOCTYPE svg PUBLIC "-//W3C//DTD SVG 1.1//EN" "http://www.w3.org/Graphics/SVG/1.1/DTD/svg11.dtd">
<svg version="1.1" xmlns="http://www.w3.org/2000/svg" xmlns:xlink="http://www.w3.org/1999/xlink" x="0px" y="0px" width="24px"
	 height="24px" viewBox="0 0 24 24" enable-background="new 0 0 24 24" xml:space="preserve">
<g id="Outline_Icons">
	<g>
		<g>
			<path fill="none" stroke="#000000" stroke-linejoin="round" stroke-miterlimit="10" d="M21.875,16.418l1.072-0.619l-1.5-2.598
				l-1.081,0.623c-0.53-0.485-1.164-0.847-1.866-1.07V11.5h-3v1.254c-0.702,0.224-1.336,0.585-1.866,1.07l-1.081-0.623l-1.5,2.598
				l1.072,0.619c-0.166,0.748-0.167,1.414,0,2.165l-1.07,0.618l1.5,2.598l1.079-0.622c0.53,0.484,1.164,0.847,1.866,1.069V23.5h3
				v-1.254c0.702-0.223,1.336-0.585,1.866-1.069l1.079,0.622l1.5-2.598l-1.07-0.618C22.042,17.832,22.041,17.166,21.875,16.418z"/>
			<circle fill="none" stroke="#000000" stroke-linejoin="round" stroke-miterlimit="10" cx="17" cy="17.5" r="2"/>
		</g>
		<g>
			<path fill="none" stroke="#000000" stroke-linecap="round" stroke-linejoin="round" stroke-miterlimit="10" d="M12,23.5
				C5.648,23.5,0.5,18.352,0.5,12C0.5,5.65,5.648,0.5,12,0.5c6.351,0,11.5,5.15,11.5,11.5"/>
			<polyline fill="none" stroke="#000000" stroke-linecap="round" stroke-linejoin="round" stroke-miterlimit="10" points="
				9.5,17.5 9.5,15 4.5,11 6.752,7.5 12.5,7.5 12.5,4.5 11,3.5 15.363,1 			"/>
			<polyline fill="none" stroke="#000000" stroke-linecap="round" stroke-linejoin="round" stroke-miterlimit="10" points="
				20.5,4.255 18.752,7.5 17.002,7.5 15.252,9.25 			"/>
		</g>
	</g>
</g>
<g id="invisible_shape">
	<rect fill="none" width="24" height="24"/>
</g>
</svg>
