<?xml version="1.0" encoding="utf-8"?>
<!-- Generator: Adobe Illustrator 16.0.3, SVG Export Plug-In . SVG Version: 6.00 Build 0)  -->
<!DOCTYPE svg PUBLIC "-//W3C//DTD SVG 1.1//EN" "http://www.w3.org/Graphics/SVG/1.1/DTD/svg11.dtd">
<svg version="1.1" xmlns="http://www.w3.org/2000/svg" xmlns:xlink="http://www.w3.org/1999/xlink" x="0px" y="0px" width="24px"
	 height="24px" viewBox="0 0 24 24" enable-background="new 0 0 24 24" xml:space="preserve">
<g id="Outline_Icons">
	<g>
		<g>
			
				<circle fill="none" stroke="#000000" stroke-linecap="round" stroke-linejoin="round" stroke-miterlimit="10" cx="12" cy="8" r="7"/>
			<path fill="none" stroke="#000000" stroke-linecap="round" stroke-linejoin="round" stroke-miterlimit="10" d="M12.326,1.009
				c0,0,0.965,1.396,0.534,2.688c-1.075,0.644-1.29,2.151-1.075,1.936c0.215-0.216,1.291,0.43,1.291,0.43
				c0.432,0,0.646-0.645,0.646-0.645C14.799,5.418,14.368,7.786,14.582,8c0.216,0.216,0.861-0.215,0.862,0.432
				c-0.001,0.645-0.218,1.074-0.218,1.074c1.078,1.077,0.001,2.154-0.213,2.368c-0.217,0.216-1.506-0.216-1.723-0.432
				c-0.214-0.213-0.215-0.643-0.432-0.859c-0.214-0.214-1.074-0.214-1.074-0.214c-0.859-0.862-1.291,0-1.938,0.645
				c-0.646,0.647-1.505-0.213-1.505-0.213S6.836,9.291,7.695,8c0.861-1.294,1.293-0.861,1.293-0.861
				c0.859,0,1.291-1.292,1.721-1.722c0,0-1.291-1.721-1.508-1.075C8.986,4.986,8.435,5.207,7.912,4.771
				c-0.736-0.609,0.8-2.954,0.8-2.954"/>
		</g>
		
			<line fill="none" stroke="#000000" stroke-linecap="round" stroke-linejoin="round" stroke-miterlimit="10" x1="7" y1="3" x2="4.5" y2="0.5"/>
		<path fill="none" stroke="#000000" stroke-linecap="round" stroke-linejoin="round" stroke-miterlimit="10" d="M5.5,23.5
			c0-1.381,3.134-3,7-3s7,1.619,7,3H5.5z"/>
		<path fill="none" stroke="#000000" stroke-linecap="round" stroke-linejoin="round" stroke-miterlimit="10" d="M17,13l3,3
			c0,5-7.5,4.5-7.5,4.5"/>
		<path fill="none" stroke="#000000" stroke-linecap="round" stroke-linejoin="round" stroke-miterlimit="10" d="M18.718,14.717
			c-3.71,3.71-9.726,3.71-13.435,0c-3.711-3.709-3.711-9.725,0-13.435"/>
	</g>
</g>
<g id="invisible_shape">
	<rect fill="none" width="24" height="24"/>
</g>
</svg>
