<?xml version="1.0" encoding="utf-8"?>
<!-- Generator: Adobe Illustrator 16.0.3, SVG Export Plug-In . SVG Version: 6.00 Build 0)  -->
<!DOCTYPE svg PUBLIC "-//W3C//DTD SVG 1.1//EN" "http://www.w3.org/Graphics/SVG/1.1/DTD/svg11.dtd">
<svg version="1.1" xmlns="http://www.w3.org/2000/svg" xmlns:xlink="http://www.w3.org/1999/xlink" x="0px" y="0px" width="24px"
	 height="24px" viewBox="0 0 24 24" enable-background="new 0 0 24 24" xml:space="preserve">
<g id="Outline_Icons">
	<g>
		<g>
			<path fill="none" stroke="#000000" stroke-linecap="round" stroke-linejoin="round" stroke-miterlimit="10" d="M15.788,9.79
				c0,1.812-3.288,5.752-3.288,5.752s-3.287-3.94-3.287-5.752c0-1.818,1.471-3.29,3.287-3.29S15.788,7.971,15.788,9.79z"/>
			<path fill="none" stroke="#000000" stroke-linecap="round" stroke-linejoin="round" stroke-miterlimit="10" d="M13.733,9.79
				c0,0.679-0.553,1.23-1.233,1.23c-0.682,0-1.232-0.551-1.232-1.23c0-0.683,0.551-1.234,1.232-1.234
				C13.181,8.555,13.733,9.106,13.733,9.79z"/>
		</g>
		<g>
			<path fill="none" stroke="#000000" stroke-linecap="round" stroke-linejoin="round" stroke-miterlimit="10" d="M18.477,5.495
				C16.918,3.664,14.595,2.5,12,2.5c-4.694,0-8.5,3.806-8.5,8.5v2.5"/>
			<g>
				<polyline fill="none" stroke="#000000" stroke-linecap="round" stroke-linejoin="round" stroke-miterlimit="10" points="
					6.5,9.5 3.5,13.5 0.5,9.5 				"/>
			</g>
		</g>
		<g>
			<path fill="none" stroke="#000000" stroke-linecap="round" stroke-linejoin="round" stroke-miterlimit="10" d="M5.523,16.505
				C7.082,18.338,9.405,19.5,12,19.5c4.694,0,8.5-3.806,8.5-8.5V8.5"/>
			<g>
				<polyline fill="none" stroke="#000000" stroke-linecap="round" stroke-linejoin="round" stroke-miterlimit="10" points="
					17.5,12.5 20.5,8.5 23.5,12.5 				"/>
			</g>
		</g>
	</g>
</g>
<g id="invisible_shape">
	<rect fill="none" width="24" height="24"/>
</g>
</svg>
