<?xml version="1.0" encoding="utf-8"?>
<!-- Generator: Adobe Illustrator 16.0.3, SVG Export Plug-In . SVG Version: 6.00 Build 0)  -->
<!DOCTYPE svg PUBLIC "-//W3C//DTD SVG 1.1//EN" "http://www.w3.org/Graphics/SVG/1.1/DTD/svg11.dtd">
<svg version="1.1" xmlns="http://www.w3.org/2000/svg" xmlns:xlink="http://www.w3.org/1999/xlink" x="0px" y="0px" width="24px"
	 height="24px" viewBox="0 0 24 24" enable-background="new 0 0 24 24" xml:space="preserve">
<g id="Outline_Icons">
	<g>
		<path fill="none" stroke="#000000" stroke-linejoin="round" stroke-miterlimit="10" d="M16.5,11.5c0,0.552-0.447,1-1,1h-8
			c-0.553,0-1-0.448-1-1v-4c0-0.552,0.447-1,1-1h2l0.224-0.447C9.893,5.714,10.239,5.5,10.618,5.5h2.264
			c0.379,0,0.726,0.214,0.895,0.553L14,6.5h1.5c0.553,0,1,0.448,1,1V11.5z"/>
		<circle fill="none" stroke="#000000" stroke-linejoin="round" stroke-miterlimit="10" cx="11.5" cy="9.5" r="1.5"/>
		<path fill="none" stroke="#000000" stroke-linecap="round" stroke-linejoin="round" stroke-miterlimit="10" d="M20.5,10
			c0,7-9,13.5-9,13.5s-9-6.5-9-13.5c0-5.246,3.753-9.5,9-9.5C16.746,0.5,20.5,4.754,20.5,10z"/>
	</g>
</g>
<g id="invisible_shape">
	<rect fill="none" width="24" height="24"/>
</g>
</svg>
