<?xml version="1.0" encoding="utf-8"?>
<!-- Generator: Adobe Illustrator 16.0.3, SVG Export Plug-In . SVG Version: 6.00 Build 0)  -->
<!DOCTYPE svg PUBLIC "-//W3C//DTD SVG 1.1//EN" "http://www.w3.org/Graphics/SVG/1.1/DTD/svg11.dtd">
<svg version="1.1" xmlns="http://www.w3.org/2000/svg" xmlns:xlink="http://www.w3.org/1999/xlink" x="0px" y="0px" width="24px"
	 height="24px" viewBox="0 0 24 24" enable-background="new 0 0 24 24" xml:space="preserve">
<g id="Outline_Icons">
	<g>
		<path fill="none" stroke="#000000" stroke-linecap="round" stroke-linejoin="round" stroke-miterlimit="10" d="M14.309,4.136
			c0,2.007-3.637,6.364-3.637,6.364S7.036,6.144,7.036,4.136c0-2.008,1.627-3.636,3.636-3.636S14.309,2.128,14.309,4.136z"/>
		
			<circle fill="none" stroke="#000000" stroke-linecap="round" stroke-linejoin="round" stroke-miterlimit="10" cx="10.672" cy="4.136" r="1.364"/>
		<path fill="none" stroke="#000000" stroke-linecap="round" stroke-linejoin="round" stroke-miterlimit="10" d="M22.945,10.772
			c0,1.809-3.273,5.728-3.273,5.728s-3.272-3.918-3.272-5.728c0-1.807,1.464-3.272,3.272-3.272
			C21.479,7.5,22.945,8.965,22.945,10.772z"/>
		
			<circle fill="none" stroke="#000000" stroke-linecap="round" stroke-linejoin="round" stroke-miterlimit="10" cx="19.672" cy="10.772" r="1.227"/>
		<g>
			<path fill="none" stroke="#000000" stroke-linecap="round" stroke-linejoin="round" stroke-miterlimit="10" d="M8.761,15.319
				c-0.368,2.2-4.091,5.95-4.091,8.181c0-2.231-3.622-5.621-4.09-8.181C0.115,12.778,1.695,10.5,4.67,10.5
				C7.646,10.5,9.195,12.731,8.761,15.319z"/>
			
				<circle fill="none" stroke="#000000" stroke-linecap="round" stroke-linejoin="round" stroke-miterlimit="10" cx="4.67" cy="14.407" r="1.873"/>
		</g>
		
			<line fill="none" stroke="#000000" stroke-linecap="round" stroke-linejoin="round" stroke-miterlimit="10" x1="11.59" y1="12" x2="16.496" y2="15.27"/>
		
			<line fill="none" stroke="#000000" stroke-linecap="round" stroke-linejoin="round" stroke-miterlimit="10" x1="7.225" y1="22.31" x2="17.172" y2="17.667"/>
	</g>
</g>
<g id="invisible_shape">
	<rect fill="none" width="24" height="24"/>
</g>
</svg>
