<?xml version="1.0" encoding="utf-8"?>
<!-- Generator: Adobe Illustrator 16.0.3, SVG Export Plug-In . SVG Version: 6.00 Build 0)  -->
<!DOCTYPE svg PUBLIC "-//W3C//DTD SVG 1.1//EN" "http://www.w3.org/Graphics/SVG/1.1/DTD/svg11.dtd">
<svg version="1.1" xmlns="http://www.w3.org/2000/svg" xmlns:xlink="http://www.w3.org/1999/xlink" x="0px" y="0px" width="24px"
	 height="24px" viewBox="0 0 24 24" enable-background="new 0 0 24 24" xml:space="preserve">
<g id="Outline_Icons">
	<g>
		<path fill="none" stroke="#000000" stroke-linecap="round" stroke-linejoin="round" stroke-miterlimit="10" d="M20.5,10
			c0,7-9,13.5-9,13.5s-9-6.5-9-13.5c0-5.246,3.753-9.5,9-9.5C16.746,0.5,20.5,4.754,20.5,10z"/>
		<path fill="none" stroke="#000000" stroke-linecap="round" stroke-linejoin="round" stroke-miterlimit="10" d="M15.5,12.5h-8v-7
			c0-0.552,0.447-1,1-1h6c0.553,0,1,0.448,1,1V12.5z"/>
		
			<rect x="7.5" y="6.5" fill="none" stroke="#000000" stroke-linecap="round" stroke-linejoin="round" stroke-miterlimit="10" width="8" height="2"/>
		<g>
			<path d="M9.5,10.016c-0.276,0-0.5,0.224-0.5,0.5c0,0.276,0.224,0.5,0.5,0.5c0.275,0,0.5-0.224,0.5-0.5
				C10,10.24,9.775,10.016,9.5,10.016L9.5,10.016z"/>
		</g>
		<g>
			<path d="M13.5,10.016c-0.276,0-0.5,0.224-0.5,0.5c0,0.276,0.224,0.5,0.5,0.5c0.275,0,0.5-0.224,0.5-0.5
				C14,10.24,13.775,10.016,13.5,10.016L13.5,10.016z"/>
		</g>
		
			<line fill="none" stroke="#000000" stroke-linecap="round" stroke-linejoin="round" stroke-miterlimit="10" x1="9" y1="12.5" x2="7.031" y2="15"/>
		
			<line fill="none" stroke="#000000" stroke-linecap="round" stroke-linejoin="round" stroke-miterlimit="10" x1="14.031" y1="12.5" x2="16" y2="15"/>
	</g>
</g>
<g id="invisible_shape">
	<rect fill="none" width="24" height="24"/>
</g>
</svg>
