<?xml version="1.0" encoding="utf-8"?>
<!-- Generator: Adobe Illustrator 16.0.3, SVG Export Plug-In . SVG Version: 6.00 Build 0)  -->
<!DOCTYPE svg PUBLIC "-//W3C//DTD SVG 1.1//EN" "http://www.w3.org/Graphics/SVG/1.1/DTD/svg11.dtd">
<svg version="1.1" xmlns="http://www.w3.org/2000/svg" xmlns:xlink="http://www.w3.org/1999/xlink" x="0px" y="0px" width="24px"
	 height="24px" viewBox="0 0 24 24" enable-background="new 0 0 24 24" xml:space="preserve">
<g id="Outline_Icons">
	<g>
		<path fill="none" stroke="#000000" stroke-linecap="round" stroke-linejoin="round" stroke-miterlimit="10" d="M15.5,11.5h-8v-7
			c0-0.553,0.447-1,1-1h6c0.553,0,1,0.447,1,1V11.5z"/>
		
			<rect x="7.5" y="5.5" fill="none" stroke="#000000" stroke-linecap="round" stroke-linejoin="round" stroke-miterlimit="10" width="8" height="2"/>
		<g>
			<path d="M9.5,9.016c-0.276,0-0.5,0.223-0.5,0.5c0,0.276,0.224,0.5,0.5,0.5c0.275,0,0.5-0.224,0.5-0.5
				C10,9.239,9.775,9.016,9.5,9.016L9.5,9.016z"/>
		</g>
		<g>
			<path d="M13.5,9.016c-0.276,0-0.5,0.223-0.5,0.5c0,0.276,0.224,0.5,0.5,0.5c0.275,0,0.5-0.224,0.5-0.5
				C14,9.239,13.775,9.016,13.5,9.016L13.5,9.016z"/>
		</g>
		
			<line fill="none" stroke="#000000" stroke-linecap="round" stroke-linejoin="round" stroke-miterlimit="10" x1="9" y1="11.5" x2="6.489" y2="14.732"/>
		
			<line fill="none" stroke="#000000" stroke-linecap="round" stroke-linejoin="round" stroke-miterlimit="10" x1="14" y1="11.5" x2="16.511" y2="14.732"/>
		<path fill="none" stroke="#000000" stroke-linecap="round" stroke-linejoin="round" stroke-miterlimit="10" d="M19.5,8.5
			c0-4.418-3.582-8-8-8s-8,3.582-8,8c0,3.558,2.324,6.57,5.536,7.61L11.5,23.5l2.464-7.39C17.176,15.07,19.5,12.058,19.5,8.5z"/>
	</g>
</g>
<g id="invisible_shape">
	<rect fill="none" width="24" height="24"/>
</g>
</svg>
