<?xml version="1.0" encoding="utf-8"?>
<!-- Generator: Adobe Illustrator 16.0.3, SVG Export Plug-In . SVG Version: 6.00 Build 0)  -->
<!DOCTYPE svg PUBLIC "-//W3C//DTD SVG 1.1//EN" "http://www.w3.org/Graphics/SVG/1.1/DTD/svg11.dtd">
<svg version="1.1" xmlns="http://www.w3.org/2000/svg" xmlns:xlink="http://www.w3.org/1999/xlink" x="0px" y="0px" width="24px"
	 height="24px" viewBox="0 0 24 24" enable-background="new 0 0 24 24" xml:space="preserve">
<g id="Outline_Icons">
	<g>
		<path fill="none" stroke="#000000" stroke-linejoin="round" stroke-miterlimit="10" d="M12,13.5c0,0.276-0.224,0.5-0.5,0.5l0,0
			c-0.276,0-0.5-0.224-0.5-0.5l0,0c0-0.277,0.224-0.5,0.5-0.5l0,0C11.776,13,12,13.223,12,13.5L12,13.5z"/>
		<path fill="none" stroke="#000000" stroke-linecap="round" stroke-linejoin="round" stroke-miterlimit="10" d="M19.5,8.5
			c0-4.418-3.582-8-8-8s-8,3.582-8,8c0,3.558,2.324,6.57,5.536,7.61L11.5,23.5l2.464-7.39C17.176,15.07,19.5,12.058,19.5,8.5z"/>
		<path fill="none" stroke="#000000" stroke-linecap="round" stroke-linejoin="round" stroke-miterlimit="10" d="M8.5,6.5
			c0-1.657,1.343-3,3-3s3,1.343,3,3s-1.343,3-3,3v1"/>
	</g>
</g>
<g id="invisible_shape">
	<rect fill="none" width="24" height="24"/>
</g>
</svg>
