<?xml version="1.0" encoding="utf-8"?>
<!-- Generator: Adobe Illustrator 16.0.3, SVG Export Plug-In . SVG Version: 6.00 Build 0)  -->
<!DOCTYPE svg PUBLIC "-//W3C//DTD SVG 1.1//EN" "http://www.w3.org/Graphics/SVG/1.1/DTD/svg11.dtd">
<svg version="1.1" xmlns="http://www.w3.org/2000/svg" xmlns:xlink="http://www.w3.org/1999/xlink" x="0px" y="0px" width="24px"
	 height="24px" viewBox="0 0 24 24" enable-background="new 0 0 24 24" xml:space="preserve">
<g id="Outline_Icons">
	<g>
		
			<line fill="none" stroke="#000000" stroke-linecap="round" stroke-linejoin="round" stroke-miterlimit="10" x1="11.5" y1="10.5" x2="11.5" y2="13.5"/>
		
			<line fill="none" stroke="#000000" stroke-linecap="round" stroke-linejoin="round" stroke-miterlimit="10" x1="10" y1="13.5" x2="13" y2="13.5"/>
		<g>
			<path d="M10.5,3C10.224,3,10,3.223,10,3.5C10,3.776,10.224,4,10.5,4C10.775,4,11,3.776,11,3.5C11,3.223,10.775,3,10.5,3L10.5,3z"
				/>
		</g>
		<g>
			<path d="M12.5,2C12.224,2,12,2.223,12,2.5C12,2.776,12.224,3,12.5,3C12.775,3,13,2.776,13,2.5C13,2.223,12.775,2,12.5,2L12.5,2z"
				/>
		</g>
		<g>
			<path d="M13.5,3C13.224,3,13,3.223,13,3.5C13,3.776,13.224,4,13.5,4C13.775,4,14,3.776,14,3.5C14,3.223,13.775,3,13.5,3L13.5,3z"
				/>
		</g>
		<path fill="none" stroke="#000000" stroke-linecap="round" stroke-linejoin="round" stroke-miterlimit="10" d="M8.5,7.5
			c0,1.657,1.343,3,3,3c1.656,0,3-1.343,3-3v-2h-6V7.5z"/>
		<path fill="none" stroke="#000000" stroke-linecap="round" stroke-linejoin="round" stroke-miterlimit="10" d="M19.5,8.5
			c0-4.418-3.582-8-8-8s-8,3.582-8,8c0,3.558,2.324,6.57,5.536,7.61L11.5,23.5l2.464-7.39C17.176,15.07,19.5,12.058,19.5,8.5z"/>
	</g>
</g>
<g id="invisible_shape">
	<rect fill="none" width="24" height="24"/>
</g>
</svg>
