<?xml version="1.0" encoding="utf-8"?>
<!-- Generator: Adobe Illustrator 16.0.3, SVG Export Plug-In . SVG Version: 6.00 Build 0)  -->
<!DOCTYPE svg PUBLIC "-//W3C//DTD SVG 1.1//EN" "http://www.w3.org/Graphics/SVG/1.1/DTD/svg11.dtd">
<svg version="1.1" xmlns="http://www.w3.org/2000/svg" xmlns:xlink="http://www.w3.org/1999/xlink" x="0px" y="0px" width="24px"
	 height="24px" viewBox="0 0 24 24" enable-background="new 0 0 24 24" xml:space="preserve">
<g id="Outline_Icons">
	<g>
		<path fill="none" stroke="#000000" stroke-linecap="round" stroke-linejoin="round" stroke-miterlimit="10" d="M23.498,23.389
			c-2.505,0.521-4.06-1.979-4.06-1.979h-0.004c0,0-1.186,2.056-3.621,2.056c-2.334,0-3.615-2.056-3.615-2.056h-0.004
			c0,0-1.185,2.056-3.62,2.056c-2.335,0-3.615-2.056-3.615-2.056H4.955c0,0-2.004,2.542-4.455,2.02"/>
		<path fill="none" stroke="#000000" stroke-linecap="round" stroke-linejoin="round" stroke-miterlimit="10" d="M23.498,19.389
			c-2.505,0.521-4.06-1.979-4.06-1.979h-0.004c0,0-1.186,2.056-3.621,2.056c-2.334,0-3.615-2.056-3.615-2.056h-0.004
			c0,0-1.185,2.056-3.62,2.056c-2.335,0-3.615-2.056-3.615-2.056H4.955c0,0-2.004,2.542-4.455,2.02"/>
		<path fill="none" stroke="#000000" stroke-linecap="round" stroke-linejoin="round" stroke-miterlimit="10" d="M20,15.5
			c0-1.933,1.567-3.5,3.5-3.5"/>
		<path fill="none" stroke="#000000" stroke-linecap="round" stroke-linejoin="round" stroke-miterlimit="10" d="M0.5,12
			C2.433,12,4,13.567,4,15.5"/>
		
			<line fill="none" stroke="#000000" stroke-linecap="round" stroke-linejoin="round" stroke-miterlimit="10" x1="3.372" y1="13.5" x2="20.629" y2="13.5"/>
		<path fill="none" stroke="#000000" stroke-linecap="round" stroke-linejoin="round" stroke-miterlimit="10" d="M22.499,12.146
			c0,0-0.999-9.646-5.499-9.646H7c-4.5,0-5.5,9.646-5.5,9.646"/>
		<polyline fill="none" stroke="#000000" stroke-linecap="round" stroke-linejoin="round" stroke-miterlimit="10" points="
			19.647,3.853 16,13.5 12,2.5 8.5,13.5 4.352,3.852 		"/>
	</g>
</g>
<g id="invisible_shape">
	<rect fill="none" width="24" height="24"/>
</g>
</svg>
