<?xml version="1.0" encoding="utf-8"?>
<!-- Generator: Adobe Illustrator 16.0.3, SVG Export Plug-In . SVG Version: 6.00 Build 0)  -->
<!DOCTYPE svg PUBLIC "-//W3C//DTD SVG 1.1//EN" "http://www.w3.org/Graphics/SVG/1.1/DTD/svg11.dtd">
<svg version="1.1" xmlns="http://www.w3.org/2000/svg" xmlns:xlink="http://www.w3.org/1999/xlink" x="0px" y="0px" width="24px"
	 height="24px" viewBox="0 0 24 24" enable-background="new 0 0 24 24" xml:space="preserve">
<g id="Outline_Icons">
	<g>
		<path fill="none" stroke="#000000" stroke-linejoin="round" stroke-miterlimit="10" d="M23.505,17.5c0,1.104-0.896,2-2,2h-19
			c-1.105,0-2-0.896-2-2v-10c0-1.105,0.895-2,2-2h19c1.104,0,2,0.895,2,2V17.5z"/>
		<line fill="none" stroke="#000000" stroke-linejoin="round" stroke-miterlimit="10" x1="2.505" y1="8" x2="2.505" y2="17"/>
		<line fill="none" stroke="#000000" stroke-linejoin="round" stroke-miterlimit="10" x1="4.505" y1="8" x2="4.505" y2="15"/>
		<line fill="none" stroke="#000000" stroke-linejoin="round" stroke-miterlimit="10" x1="6.505" y1="8" x2="6.505" y2="15"/>
		<line fill="none" stroke="#000000" stroke-linejoin="round" stroke-miterlimit="10" x1="9.505" y1="8" x2="9.505" y2="15"/>
		<line fill="none" stroke="#000000" stroke-linejoin="round" stroke-miterlimit="10" x1="11.505" y1="8" x2="11.505" y2="15"/>
		<line fill="none" stroke="#000000" stroke-linejoin="round" stroke-miterlimit="10" x1="15.505" y1="8" x2="15.505" y2="15"/>
		<line fill="none" stroke="#000000" stroke-linejoin="round" stroke-miterlimit="10" x1="17.505" y1="8" x2="17.505" y2="15"/>
		<line fill="none" stroke="#000000" stroke-linejoin="round" stroke-miterlimit="10" x1="19.505" y1="8" x2="19.505" y2="15"/>
		<line fill="none" stroke="#000000" stroke-linejoin="round" stroke-miterlimit="10" x1="21.505" y1="8" x2="21.505" y2="17"/>
		<g>
			<polygon points="5,16 4,16 4,17 5,17 5,16 			"/>
		</g>
		<g>
			<polygon points="7,16 6,16 6,17 7,17 7,16 			"/>
		</g>
		<g>
			<polygon points="10,16 9,16 9,17 10,17 10,16 			"/>
		</g>
		<g>
			<polygon points="12,16 11,16 11,17 12,17 12,16 			"/>
		</g>
		<g>
			<polygon points="16,16 15,16 15,17 16,17 16,16 			"/>
		</g>
		<g>
			<polygon points="18,16 17,16 17,17 18,17 18,16 			"/>
		</g>
		<g>
			<polygon points="20,16 19,16 19,17 20,17 20,16 			"/>
		</g>
	</g>
</g>
<g id="Invisible_Shape">
	<rect fill="none" width="24" height="24"/>
</g>
</svg>
