<?xml version="1.0" encoding="utf-8"?>
<!-- Generator: Adobe Illustrator 16.0.3, SVG Export Plug-In . SVG Version: 6.00 Build 0)  -->
<!DOCTYPE svg PUBLIC "-//W3C//DTD SVG 1.1//EN" "http://www.w3.org/Graphics/SVG/1.1/DTD/svg11.dtd">
<svg version="1.1" xmlns="http://www.w3.org/2000/svg" xmlns:xlink="http://www.w3.org/1999/xlink" x="0px" y="0px" width="24px"
	 height="24px" viewBox="0 0 24 24" enable-background="new 0 0 24 24" xml:space="preserve">
<g id="Outline_Icons">
	<g>
		<polyline fill="none" stroke="#000000" stroke-linecap="round" stroke-linejoin="round" stroke-miterlimit="10" points="
			0.502,18.531 0.502,21.5 3.471,21.5 		"/>
		<polyline fill="none" stroke="#000000" stroke-linecap="round" stroke-linejoin="round" stroke-miterlimit="10" points="
			3.471,2.5 0.502,2.5 0.502,5.469 		"/>
		<polyline fill="none" stroke="#000000" stroke-linecap="round" stroke-linejoin="round" stroke-miterlimit="10" points="
			23.502,5.469 23.502,2.5 20.533,2.5 		"/>
		<polyline fill="none" stroke="#000000" stroke-linecap="round" stroke-linejoin="round" stroke-miterlimit="10" points="
			20.533,21.5 23.502,21.5 23.502,18.531 		"/>
		<line fill="none" stroke="#000000" stroke-linejoin="round" stroke-miterlimit="10" x1="3.502" y1="7" x2="3.502" y2="17"/>
		<line fill="none" stroke="#000000" stroke-linejoin="round" stroke-miterlimit="10" x1="5.502" y1="7" x2="5.502" y2="14"/>
		<line fill="none" stroke="#000000" stroke-linejoin="round" stroke-miterlimit="10" x1="7.502" y1="7" x2="7.502" y2="14"/>
		<line fill="none" stroke="#000000" stroke-linejoin="round" stroke-miterlimit="10" x1="10.502" y1="7" x2="10.502" y2="14"/>
		<line fill="none" stroke="#000000" stroke-linejoin="round" stroke-miterlimit="10" x1="12.502" y1="7" x2="12.502" y2="14"/>
		<line fill="none" stroke="#000000" stroke-linejoin="round" stroke-miterlimit="10" x1="14.502" y1="7" x2="14.502" y2="14"/>
		<line fill="none" stroke="#000000" stroke-linejoin="round" stroke-miterlimit="10" x1="16.502" y1="7" x2="16.502" y2="14"/>
		<line fill="none" stroke="#000000" stroke-linejoin="round" stroke-miterlimit="10" x1="18.502" y1="7" x2="18.502" y2="14"/>
		<line fill="none" stroke="#000000" stroke-linejoin="round" stroke-miterlimit="10" x1="20.502" y1="7" x2="20.502" y2="17"/>
		<g>
			<polygon points="6,15 5.002,15 5.002,16 6,16 6,15 			"/>
		</g>
		<g>
			<polygon points="8,15 7.002,15 7.002,16 8,16 8,15 			"/>
		</g>
		<g>
			<polygon points="11,15 10.002,15 10.002,16 11,16 11,15 			"/>
		</g>
		<g>
			<polygon points="13,15 12.002,15 12.002,16 13,16 13,15 			"/>
		</g>
		<g>
			<polygon points="15,15 14.002,15 14.002,16 15,16 15,15 			"/>
		</g>
		<g>
			<polygon points="17,15 16.002,15 16.002,16 17,16 17,15 			"/>
		</g>
		<g>
			<polygon points="19,15 18.002,15 18.002,16 19,16 19,15 			"/>
		</g>
	</g>
</g>
<g id="Invisible_Shape">
	<rect fill="none" width="24" height="24"/>
</g>
</svg>
