<?xml version="1.0" encoding="utf-8"?>
<!-- Generator: Adobe Illustrator 16.0.3, SVG Export Plug-In . SVG Version: 6.00 Build 0)  -->
<!DOCTYPE svg PUBLIC "-//W3C//DTD SVG 1.1//EN" "http://www.w3.org/Graphics/SVG/1.1/DTD/svg11.dtd">
<svg version="1.1" xmlns="http://www.w3.org/2000/svg" xmlns:xlink="http://www.w3.org/1999/xlink" x="0px" y="0px" width="24px"
	 height="24px" viewBox="0 0 24 24" enable-background="new 0 0 24 24" xml:space="preserve">
<g id="Outline_Icons">
	<g>
		<path fill="none" stroke="#000000" stroke-linecap="round" stroke-linejoin="round" stroke-miterlimit="10" d="M23.5,15
			c-1.657,0-3-1.343-3-3c0-1.656,1.343-3,3-3V4.5h-23V9c1.656,0,3,1.344,3,3c0,1.657-1.344,3-3,3v4.5h23V15z"/>
		<g>
			<g>
				<polygon points="19,6 18,6 18,7 19,7 19,6 				"/>
			</g>
		</g>
		<g>
			<g>
				<polygon points="19,8 18,8 18,9 19,9 19,8 				"/>
			</g>
		</g>
		<g>
			<g>
				<polygon points="19,10 18,10 18,11 19,11 19,10 				"/>
			</g>
		</g>
		<g>
			<g>
				<polygon points="19,13 18,13 18,14 19,14 19,13 				"/>
			</g>
		</g>
		<g>
			<g>
				<polygon points="19,15 18,15 18,16 19,16 19,15 				"/>
			</g>
		</g>
		<g>
			<g>
				<polygon points="19,17 18,17 18,18 19,18 19,17 				"/>
			</g>
		</g>
		
			<line fill="none" stroke="#000000" stroke-linecap="round" stroke-linejoin="round" stroke-miterlimit="10" x1="7" y1="16" x2="15" y2="8"/>
		
			<circle fill="none" stroke="#000000" stroke-linecap="round" stroke-linejoin="round" stroke-miterlimit="10" cx="8" cy="9" r="1.5"/>
		
			<circle fill="none" stroke="#000000" stroke-linecap="round" stroke-linejoin="round" stroke-miterlimit="10" cx="14" cy="15" r="1.5"/>
	</g>
</g>
<g id="Invisible_Shape">
	<rect fill="none" width="24" height="24"/>
</g>
</svg>
