<?xml version="1.0" encoding="utf-8"?>
<!-- Generator: Adobe Illustrator 16.0.3, SVG Export Plug-In . SVG Version: 6.00 Build 0)  -->
<!DOCTYPE svg PUBLIC "-//W3C//DTD SVG 1.1//EN" "http://www.w3.org/Graphics/SVG/1.1/DTD/svg11.dtd">
<svg version="1.1" xmlns="http://www.w3.org/2000/svg" xmlns:xlink="http://www.w3.org/1999/xlink" x="0px" y="0px" width="24px"
	 height="24px" viewBox="0 0 24 24" enable-background="new 0 0 24 24" xml:space="preserve">
<g id="Outline_Icons">
	<g>
		
			<rect x="0.5" y="18.5" fill="none" stroke="#000000" stroke-linecap="round" stroke-linejoin="round" stroke-miterlimit="10" width="23" height="5"/>
		<polygon fill="none" stroke="#000000" stroke-linecap="round" stroke-linejoin="round" stroke-miterlimit="10" points="20.5,12.5 
			3.5,12.5 0.5,18.5 23.5,18.5 		"/>
		<polyline fill="none" stroke="#000000" stroke-linecap="round" stroke-linejoin="round" stroke-miterlimit="10" points="8.5,21.5 
			8.5,20.5 14.5,20.5 14.5,21.5 		"/>
		<g>
			<g>
				<polygon points="8,16 7,16 7,17 8,17 8,16 				"/>
			</g>
		</g>
		<g>
			<g>
				<polygon points="5,16 4,16 4,17 5,17 5,16 				"/>
			</g>
		</g>
		<g>
			<g>
				<polygon points="11,16 10,16 10,17 11,17 11,16 				"/>
			</g>
		</g>
		<g>
			<g>
				<polygon points="14,16 13,16 13,17 14,17 14,16 				"/>
			</g>
		</g>
		<g>
			<g>
				<polygon points="17,16 16,16 16,17 17,17 17,16 				"/>
			</g>
		</g>
		<g>
			<g>
				<polygon points="20,16 19,16 19,17 20,17 20,16 				"/>
			</g>
		</g>
		<g>
			<g>
				<polygon points="17,14 16,14 16,15 17,15 17,14 				"/>
			</g>
		</g>
		<g>
			<g>
				<polygon points="14,14 13,14 13,15 14,15 14,14 				"/>
			</g>
		</g>
		<g>
			<g>
				<polygon points="11,14 10,14 10,15 11,15 11,14 				"/>
			</g>
		</g>
		<g>
			<g>
				<polygon points="8,14 7,14 7,15 8,15 8,14 				"/>
			</g>
		</g>
		
			<rect x="3.5" y="6.5" fill="none" stroke="#000000" stroke-linecap="round" stroke-linejoin="round" stroke-miterlimit="10" width="17" height="6"/>
		
			<rect x="5.5" y="8.5" fill="none" stroke="#000000" stroke-linecap="round" stroke-linejoin="round" stroke-miterlimit="10" width="5.5" height="2"/>
		
			<line fill="none" stroke="#000000" stroke-linecap="round" stroke-linejoin="round" stroke-miterlimit="10" x1="14" y1="9.5" x2="18.5" y2="9.5"/>
		<polygon fill="none" stroke="#000000" stroke-linecap="round" stroke-linejoin="round" stroke-miterlimit="10" points="9.5,2.5 
			5.5,3.5 5.5,6.5 9.5,6.5 		"/>
		<path fill="none" stroke="#000000" stroke-linecap="round" stroke-linejoin="round" stroke-miterlimit="10" d="M20.5,2.5
			c0,0.55-0.449,1-1,1h-4c-0.55,0-1-0.45-1-1v-1c0-0.549,0.45-1,1-1h4c0.551,0,1,0.451,1,1V2.5z"/>
		
			<line fill="none" stroke="#000000" stroke-linecap="round" stroke-linejoin="round" stroke-miterlimit="10" x1="17.5" y1="3.5" x2="17.5" y2="6.5"/>
	</g>
</g>
<g id="Invisible_Shape">
	<rect fill="none" width="24" height="24"/>
</g>
</svg>
