<?xml version="1.0" encoding="utf-8"?>
<!-- Generator: Adobe Illustrator 16.0.3, SVG Export Plug-In . SVG Version: 6.00 Build 0)  -->
<!DOCTYPE svg PUBLIC "-//W3C//DTD SVG 1.1//EN" "http://www.w3.org/Graphics/SVG/1.1/DTD/svg11.dtd">
<svg version="1.1" xmlns="http://www.w3.org/2000/svg" xmlns:xlink="http://www.w3.org/1999/xlink" x="0px" y="0px" width="24px"
	 height="24px" viewBox="0 0 24 24" enable-background="new 0 0 24 24" xml:space="preserve">
<g id="Outline_Icons">
	<g>
		<g>
			<polygon points="14,23 13,23 13,24 14,24 14,23 			"/>
		</g>
		<g>
			<polygon points="16,23 15,23 15,24 16,24 16,23 			"/>
		</g>
		<g>
			<polygon points="20,23 19,23 19,24 20,24 20,23 			"/>
		</g>
		<g>
			<polygon points="22,23 21,23 21,24 22,24 22,23 			"/>
		</g>
		<polyline fill="none" stroke="#000000" stroke-linecap="round" stroke-linejoin="round" stroke-miterlimit="10" points="
			9.479,23.5 0.5,23.5 0.5,8.5 19.5,8.5 19.5,15.521 		"/>
		<path fill="none" stroke="#000000" stroke-linecap="round" stroke-linejoin="round" stroke-miterlimit="10" d="M5.5,6.5V5
			c0-2.485,2.015-4.5,4.5-4.5s4.5,2.015,4.5,4.5v1.5"/>
		<line fill="none" stroke="#000000" stroke-linejoin="round" stroke-miterlimit="10" x1="13.5" y1="17" x2="13.5" y2="22"/>
		<line fill="none" stroke="#000000" stroke-linejoin="round" stroke-miterlimit="10" x1="11.5" y1="17" x2="11.5" y2="24"/>
		<line fill="none" stroke="#000000" stroke-linejoin="round" stroke-miterlimit="10" x1="15.5" y1="17" x2="15.5" y2="22"/>
		<line fill="none" stroke="#000000" stroke-linejoin="round" stroke-miterlimit="10" x1="17.5" y1="17" x2="17.5" y2="24"/>
		<line fill="none" stroke="#000000" stroke-linejoin="round" stroke-miterlimit="10" x1="19.5" y1="17" x2="19.5" y2="22"/>
		<line fill="none" stroke="#000000" stroke-linejoin="round" stroke-miterlimit="10" x1="21.5" y1="17" x2="21.5" y2="22"/>
		<line fill="none" stroke="#000000" stroke-linejoin="round" stroke-miterlimit="10" x1="23.5" y1="17" x2="23.5" y2="24"/>
	</g>
</g>
<g id="Invisible_Shape">
	<rect fill="none" width="24" height="24"/>
</g>
</svg>
