<?xml version="1.0" encoding="utf-8"?>
<!-- Generator: Adobe Illustrator 16.0.3, SVG Export Plug-In . SVG Version: 6.00 Build 0)  -->
<!DOCTYPE svg PUBLIC "-//W3C//DTD SVG 1.1//EN" "http://www.w3.org/Graphics/SVG/1.1/DTD/svg11.dtd">
<svg version="1.1" xmlns="http://www.w3.org/2000/svg" xmlns:xlink="http://www.w3.org/1999/xlink" x="0px" y="0px" width="24px"
	 height="24px" viewBox="0 0 24 24" enable-background="new 0 0 24 24" xml:space="preserve">
<g id="Outline_Icons">
	<g>
		
			<rect x="0.5" y="7.5" fill="none" stroke="#000000" stroke-linecap="round" stroke-linejoin="round" stroke-miterlimit="10" width="23" height="16"/>
		<path fill="none" stroke="#000000" stroke-linecap="round" stroke-linejoin="round" stroke-miterlimit="10" d="M16.5,6
			c0-2.485-2.015-4.5-4.5-4.5S7.5,3.515,7.5,6v1.5h9V6z"/>
		<g>
			<polyline fill="none" stroke="#000000" stroke-linecap="round" stroke-linejoin="round" stroke-miterlimit="10" points="
				19.22,20.5 17.5,20.5 17.5,16.5 19.22,16.5 			"/>
			
				<line fill="none" stroke="#000000" stroke-linecap="round" stroke-linejoin="round" stroke-miterlimit="10" x1="17.5" y1="18.5" x2="18.75" y2="18.5"/>
		</g>
		<g>
			<polyline fill="none" stroke="#000000" stroke-linecap="round" stroke-linejoin="round" stroke-miterlimit="10" points="
				15.22,20.5 13.5,20.5 13.5,16.5 15.22,16.5 			"/>
			
				<line fill="none" stroke="#000000" stroke-linecap="round" stroke-linejoin="round" stroke-miterlimit="10" x1="13.5" y1="18.5" x2="14.75" y2="18.5"/>
		</g>
		<g>
			<polyline fill="none" stroke="#000000" stroke-linecap="round" stroke-linejoin="round" stroke-miterlimit="10" points="
				4.5,20.5 4.5,16.5 6.22,16.5 			"/>
			
				<line fill="none" stroke="#000000" stroke-linecap="round" stroke-linejoin="round" stroke-miterlimit="10" x1="4.5" y1="18.5" x2="5.751" y2="18.5"/>
		</g>
		<path fill="none" stroke="#000000" stroke-linecap="round" stroke-linejoin="round" stroke-miterlimit="10" d="M4.5,14.5v-4h0.714
			c0.879,0,1.35,0.908,1.35,2c0,1.093-0.471,2-1.35,2H4.5z"/>
		<g>
			<path fill="none" stroke="#000000" stroke-linecap="round" stroke-linejoin="round" stroke-miterlimit="10" d="M8.5,20.5v-4
				h0.947c0.805,0,0.946,0.454,0.946,1s-0.142,1-0.946,1H8.5"/>
			
				<line fill="none" stroke="#000000" stroke-linecap="round" stroke-linejoin="round" stroke-miterlimit="10" x1="9.447" y1="18.5" x2="10.5" y2="20.5"/>
		</g>
		<g>
			
				<line fill="none" stroke="#000000" stroke-linecap="round" stroke-linejoin="round" stroke-miterlimit="10" x1="14.5" y1="14.5" x2="14.5" y2="10.5"/>
			
				<line fill="none" stroke="#000000" stroke-linecap="round" stroke-linejoin="round" stroke-miterlimit="10" x1="13.5" y1="10.5" x2="15.5" y2="10.5"/>
		</g>
		<path fill="none" stroke="#000000" stroke-linecap="round" stroke-linejoin="round" stroke-miterlimit="10" d="M9.5,10.5v3.087
			c0,0,0,0.913,1,0.913c0.998,0,1-0.913,1-0.913V10.5"/>
		<g>
			
				<line fill="none" stroke="#000000" stroke-linecap="round" stroke-linejoin="round" stroke-miterlimit="10" x1="18.5" y1="14.5" x2="18.5" y2="12.5"/>
			<polyline fill="none" stroke="#000000" stroke-linecap="round" stroke-linejoin="round" stroke-miterlimit="10" points="
				17.5,10.5 18.5,12.5 19.5,10.5 			"/>
		</g>
	</g>
</g>
<g id="Invisible_Shape">
	<rect fill="none" width="24" height="24"/>
</g>
</svg>
