<?xml version="1.0" encoding="utf-8"?>
<!-- Generator: Adobe Illustrator 16.0.3, SVG Export Plug-In . SVG Version: 6.00 Build 0)  -->
<!DOCTYPE svg PUBLIC "-//W3C//DTD SVG 1.1//EN" "http://www.w3.org/Graphics/SVG/1.1/DTD/svg11.dtd">
<svg version="1.1" xmlns="http://www.w3.org/2000/svg" xmlns:xlink="http://www.w3.org/1999/xlink" x="0px" y="0px" width="24px"
	 height="24px" viewBox="0 0 24 24" enable-background="new 0 0 24 24" xml:space="preserve">
<g id="Outline_Icons">
	<g>
		<g>
			
				<line fill="none" stroke="#000000" stroke-linecap="round" stroke-linejoin="round" stroke-miterlimit="10" x1="2.5" y1="13" x2="2.507" y2="10.338"/>
			<polyline fill="none" stroke="#000000" stroke-linecap="round" stroke-linejoin="round" stroke-miterlimit="10" points="
				21.5,20.5 21.507,22.5 2.507,22.5 2.5,20.5 			"/>
			
				<line fill="none" stroke="#000000" stroke-linecap="round" stroke-linejoin="round" stroke-miterlimit="10" x1="21.507" y1="10.338" x2="21.5" y2="13"/>
			<polygon fill="none" stroke="#000000" stroke-linecap="round" stroke-linejoin="round" stroke-miterlimit="10" points="
				21.507,2.5 2.507,2.5 0.507,6.5 23.507,6.5 			"/>
			<path fill="none" stroke="#000000" stroke-linecap="round" stroke-linejoin="round" stroke-miterlimit="10" d="M23.507,7.5
				c0,2.302-2.76,4.228-5,2c-1.454,2.31-4.658,2.73-6.5,0.64c-1.862,2.117-5.065,1.638-6.5-0.64c-2.214,2.206-5,0.327-5-2v-1h23V7.5
				z"/>
			<polyline fill="none" stroke="#000000" stroke-linecap="round" stroke-linejoin="round" stroke-miterlimit="10" points="
				5.507,9.5 5.507,6.5 6.507,2.5 			"/>
			<polyline fill="none" stroke="#000000" stroke-linecap="round" stroke-linejoin="round" stroke-miterlimit="10" points="
				12.007,10.146 12.007,6.5 12.007,2.5 			"/>
			<polyline fill="none" stroke="#000000" stroke-linecap="round" stroke-linejoin="round" stroke-miterlimit="10" points="
				18.507,9.5 18.507,6.5 17.507,2.5 			"/>
		</g>
		<g>
			<g>
				<polyline fill="none" stroke="#000000" stroke-linecap="round" stroke-linejoin="round" stroke-miterlimit="10" points="
					21.007,18.5 19.5,18.5 19.5,14.5 21.007,14.5 				"/>
				
					<line fill="none" stroke="#000000" stroke-linecap="round" stroke-linejoin="round" stroke-miterlimit="10" x1="19.5" y1="16.283" x2="20.5" y2="16.283"/>
			</g>
			<path fill="none" stroke="#000000" stroke-linecap="round" stroke-linejoin="round" stroke-miterlimit="10" d="M5.5,15.436
				C5.379,14.874,5.106,14.5,4.521,14.5c-0.906,0-1.021,0.895-1.021,2c0,1.104,0.114,2,1.021,2c0.586,0,0.858-0.374,0.979-0.936"/>
			<polyline fill="none" stroke="#000000" stroke-linecap="round" stroke-linejoin="round" stroke-miterlimit="10" points="
				9.007,18.5 7.5,18.5 7.5,14.5 			"/>
			<path fill="none" stroke="#000000" stroke-linecap="round" stroke-linejoin="round" stroke-miterlimit="10" d="M13.5,16.5
				c0,1.106-0.558,2-1.5,2s-1.5-0.894-1.5-2c0-1.102,0.558-2,1.5-2S13.5,15.398,13.5,16.5z"/>
			<path fill="none" stroke="#000000" stroke-linecap="round" stroke-linejoin="round" stroke-miterlimit="10" d="M15.5,17.562
				c0.03,0.523,0.437,0.937,0.935,0.937c0.518,0,0.937-0.448,0.937-1c0-0.815-0.771-0.953-0.936-0.999
				c-0.163-0.049-0.936-0.187-0.936-1.001c0-0.553,0.418-0.999,0.936-0.999c0.498,0,0.905,0.412,0.936,0.935"/>
		</g>
	</g>
</g>
<g id="Invisible_Shape">
	<rect fill="none" width="24" height="24"/>
</g>
</svg>
