<?xml version="1.0" encoding="utf-8"?>
<!-- Generator: Adobe Illustrator 19.2.1, SVG Export Plug-In . SVG Version: 6.00 Build 0)  -->
<svg version="1.1" xmlns="http://www.w3.org/2000/svg" xmlns:xlink="http://www.w3.org/1999/xlink" x="0px" y="0px" width="24px"
	 height="24px" viewBox="0 0 24 24" enable-background="new 0 0 24 24" xml:space="preserve">
<g id="Filled_Icons_1_">
	<g id="Filled_Icons">
		<g>
			<g>
				<circle cx="11.5" cy="11.5" r="2.5"/>
			</g>
			<path d="M7,12.5H5c-0.552,0-1-0.448-1-1c0-0.552,0.448-1,1-1h2c0.552,0,1,0.448,1,1C8,12.052,7.552,12.5,7,12.5z"/>
			<path d="M6.197,16.803L6.197,16.803c-0.391-0.392-0.391-1.024,0-1.415l1.414-1.412c0.391-0.39,1.024-0.39,1.414,0h0
				c0.39,0.392,0.39,1.026-0.001,1.414l-1.414,1.413C7.22,17.193,6.587,17.193,6.197,16.803z"/>
			<path d="M11.5,19c-0.552,0-1-0.448-1-1v-2c0-0.552,0.448-1,1-1s1,0.448,1,1v2C12.5,18.552,12.052,19,11.5,19z"/>
			<path d="M18,12.5L18,12.5l-2,0c-0.553,0-1-0.447-1-1c0-0.552,0.448-1,1-1l0,0l2,0c0.553,0,1,0.448,1,1
				C19,12.052,18.552,12.5,18,12.5z"/>
			<path d="M11.5,8c-0.552,0-1-0.448-1-1V5c0-0.552,0.448-1,1-1s1,0.448,1,1v2C12.5,7.552,12.052,8,11.5,8z"/>
			<path d="M9.024,9.026c-0.391,0.391-1.023,0.391-1.414,0L6.195,7.612c-0.391-0.391-0.391-1.024,0-1.414
				C6.586,5.807,7.22,5.807,7.61,6.197l1.414,1.414C9.415,8.002,9.415,8.635,9.024,9.026z"/>
			<path d="M16.803,16.803L16.803,16.803c0.391-0.392,0.391-1.024,0-1.415l-1.414-1.412c-0.391-0.39-1.024-0.39-1.414,0h0
				c-0.39,0.392-0.39,1.026,0.001,1.414l1.414,1.413C15.78,17.193,16.413,17.193,16.803,16.803z"/>
			<path d="M13.976,9.026c0.391,0.391,1.023,0.391,1.414,0l1.415-1.414c0.391-0.391,0.391-1.024,0-1.414
				c-0.391-0.391-1.024-0.391-1.415-0.001l-1.414,1.414C13.585,8.002,13.585,8.635,13.976,9.026z"/>
		</g>
	</g>
	<g id="New_icons">
	</g>
</g>
<g id="Invisible_Shape">
	<rect fill="none" width="24" height="24"/>
</g>
</svg>
