<?xml version="1.0" encoding="utf-8"?>
<!-- Generator: Adobe Illustrator 19.2.1, SVG Export Plug-In . SVG Version: 6.00 Build 0)  -->
<svg version="1.1" xmlns="http://www.w3.org/2000/svg" xmlns:xlink="http://www.w3.org/1999/xlink" x="0px" y="0px" width="24px"
	 height="24px" viewBox="0 0 24 24" enable-background="new 0 0 24 24" xml:space="preserve">
<g id="Filled_Icons_1_">
	<g id="Filled_Icons">
		<g>
			<circle cx="12" cy="12.5" r="3"/>
			<path d="M19.5,0h-15C2.019,0,0,2.019,0,4.5v15C0,21.982,2.019,24,4.5,24h15c2.481,0,4.5-2.018,4.5-4.5v-15
				C24,2.019,21.981,0,19.5,0z M19.308,14.735l-1.75,3.031c-0.138,0.241-0.443,0.321-0.682,0.183l-1.247-0.72
				c-0.438,0.342-0.924,0.62-1.44,0.83V19.5c0,0.276-0.224,0.5-0.5,0.5h-3.5c-0.276,0-0.5-0.224-0.5-0.5v-1.445
				c-0.524-0.212-1.006-0.492-1.438-0.829l-1.252,0.723c-0.238,0.138-0.544,0.058-0.682-0.183l-1.75-3.031
				c-0.139-0.239-0.057-0.545,0.182-0.683l1.253-0.724c-0.075-0.54-0.08-1.096-0.001-1.658l-1.25-0.722
				c-0.239-0.138-0.321-0.442-0.184-0.683l1.75-3.031c0.139-0.239,0.444-0.321,0.684-0.183l1.247,0.72
				c0.438-0.342,0.924-0.621,1.441-0.83V5.5c0-0.276,0.224-0.5,0.5-0.5h3.5c0.276,0,0.5,0.224,0.5,0.5v1.444
				c0.524,0.212,1.006,0.491,1.438,0.828l1.248-0.72c0.239-0.139,0.545-0.057,0.684,0.183l1.75,3.031
				c0.138,0.241,0.056,0.545-0.184,0.683l-1.248,0.72c0.076,0.542,0.081,1.099,0.001,1.663l1.248,0.721
				C19.364,14.19,19.446,14.496,19.308,14.735z"/>
		</g>
	</g>
	<g id="New_icons">
	</g>
</g>
<g id="Invisible_Shape">
	<rect fill="none" width="24" height="24"/>
</g>
</svg>
