<?xml version="1.0" encoding="utf-8"?>
<!-- Generator: Adobe Illustrator 19.2.1, SVG Export Plug-In . SVG Version: 6.00 Build 0)  -->
<svg version="1.1" xmlns="http://www.w3.org/2000/svg" xmlns:xlink="http://www.w3.org/1999/xlink" x="0px" y="0px" width="24px"
	 height="24px" viewBox="0 0 24 24" enable-background="new 0 0 24 24" xml:space="preserve">
<g id="Filled_Icons_1_">
	<g id="Filled_Icons">
		<path d="M23.738,8.519L22.551,7.83c0.087-0.559,0.088-1.107,0.003-1.659l1.195-0.689C23.988,5.344,24.07,5.04,23.933,4.8
			l-1.499-2.599c-0.137-0.236-0.439-0.321-0.676-0.187l-1.25,0.693c-0.395-0.349-0.806-0.652-1.507-0.865V0.5
			c0-0.276-0.224-0.5-0.5-0.5h-3.004c-0.276,0-0.5,0.224-0.5,0.5v1.343c-0.701,0.212-1.112,0.516-1.507,0.865l-1.25-0.693
			c-0.237-0.135-0.539-0.049-0.676,0.187L10.067,4.8C9.93,5.04,10.012,5.344,10.251,5.482l1.195,0.689
			c-0.085,0.552-0.084,1.1,0.003,1.659l-1.188,0.689c-0.239,0.14-0.319,0.445-0.181,0.684l1.515,2.598
			c0.053,0.093,0.135,0.152,0.224,0.193c-0.021,0.008-0.042,0.009-0.062,0.021l-1.249,0.693c-0.395-0.349-0.806-0.652-1.507-0.865
			V10.5c0-0.276-0.224-0.5-0.5-0.5H5.498c-0.276,0-0.5,0.224-0.5,0.5v1.343c-0.701,0.212-1.112,0.516-1.507,0.865l-1.25-0.693
			c-0.237-0.135-0.539-0.049-0.676,0.187L0.068,14.8c-0.138,0.239-0.056,0.544,0.184,0.682l1.195,0.689
			c-0.085,0.552-0.084,1.1,0.003,1.659L0.262,18.52c-0.239,0.14-0.319,0.445-0.181,0.684l1.515,2.598
			c0.138,0.237,0.439,0.318,0.678,0.183l1.22-0.69c0.398,0.352,0.81,0.652,1.504,0.862V23.5c0,0.276,0.224,0.5,0.5,0.5h3.004
			c0.276,0,0.5-0.224,0.5-0.5v-1.344c0.694-0.21,1.105-0.511,1.504-0.862l1.22,0.69c0.239,0.135,0.54,0.054,0.678-0.183l1.515-2.598
			c0.139-0.238,0.059-0.544-0.181-0.684l-1.188-0.689c0.087-0.559,0.088-1.106,0.003-1.659l1.195-0.689
			c0.239-0.138,0.321-0.443,0.184-0.682l-1.498-2.599c-0.054-0.092-0.136-0.153-0.227-0.195c0.022-0.009,0.045-0.011,0.066-0.022
			l1.22-0.69c0.399,0.352,0.81,0.652,1.504,0.862V13.5c0,0.276,0.224,0.5,0.5,0.5h3.004c0.276,0,0.5-0.224,0.5-0.5v-1.344
			c0.694-0.21,1.105-0.511,1.504-0.862l1.22,0.69c0.239,0.135,0.541,0.054,0.678-0.183l1.515-2.598
			C24.058,8.965,23.978,8.659,23.738,8.519z M7.001,19.5c-1.378,0-2.5-1.122-2.5-2.5s1.122-2.5,2.5-2.5s2.5,1.122,2.5,2.5
			S8.379,19.5,7.001,19.5z M17,9.5c-1.378,0-2.5-1.122-2.5-2.5s1.122-2.5,2.5-2.5s2.5,1.122,2.5,2.5S18.378,9.5,17,9.5z"/>
	</g>
	<g id="New_icons">
	</g>
</g>
<g id="Invisible_Shape">
	<rect fill="none" width="24" height="24"/>
</g>
</svg>
