<?xml version="1.0" encoding="utf-8"?>
<!-- Generator: Adobe Illustrator 19.2.1, SVG Export Plug-In . SVG Version: 6.00 Build 0)  -->
<svg version="1.1" xmlns="http://www.w3.org/2000/svg" xmlns:xlink="http://www.w3.org/1999/xlink" x="0px" y="0px" width="24px"
	 height="24px" viewBox="0 0 24 24" enable-background="new 0 0 24 24" xml:space="preserve">
<g id="Filled_Icons_1_">
	<g id="Filled_Icons">
	</g>
	<g id="New_icons">
		<g>
			<path d="M24,17V5.088C24,3.937,23.103,3,22,3H2C0.897,3,0,3.937,0,5.088V17H24z M17,10.571l0-4.571c0-0.276,0.224-0.5,0.5-0.5
				c0.276,0,0.5,0.224,0.5,0.5l0,4.571c0.86,0.224,1.5,1,1.5,1.929s-0.64,1.706-1.5,1.929V15c0,0.276-0.224,0.5-0.5,0.5
				S17,15.276,17,15v-0.571c-0.86-0.224-1.5-1-1.5-1.929S16.14,10.794,17,10.571z M11.5,6.571V6c0-0.276,0.224-0.5,0.5-0.5
				s0.5,0.224,0.5,0.5v0.571c0.86,0.224,1.5,1,1.5,1.929s-0.64,1.706-1.5,1.929l0,4.571c0,0.276-0.224,0.5-0.5,0.5
				c-0.276,0-0.5-0.224-0.5-0.5l0-4.571c-0.86-0.224-1.5-1-1.5-1.929S10.64,6.794,11.5,6.571z M6,10.571l0.001-4.571
				c0-0.276,0.224-0.5,0.5-0.5c0.276,0,0.5,0.224,0.5,0.5L7,10.571c0.86,0.224,1.5,1,1.5,1.929S7.86,14.206,7,14.429V15
				c0,0.276-0.224,0.5-0.5,0.5S6,15.276,6,15v-0.571c-0.86-0.224-1.5-1-1.5-1.929S5.14,10.794,6,10.571z"/>
			<path d="M0,18v1.912C0,21.063,0.897,22,2,22h9.5v1H5c-0.276,0-0.5,0.224-0.5,0.5S4.724,24,5,24h14c0.276,0,0.5-0.224,0.5-0.5
				S19.276,23,19,23h-6.5v-1H22c1.103,0,2-0.937,2-2.088V18H0z M12,21c-0.551,0-1-0.449-1-1s0.449-1,1-1s1,0.449,1,1
				S12.551,21,12,21z"/>
		</g>
	</g>
</g>
<g id="Invisible_Shape">
	<rect fill="none" width="24" height="24"/>
</g>
</svg>
