<?xml version="1.0" encoding="utf-8"?>
<!-- Generator: Adobe Illustrator 19.2.1, SVG Export Plug-In . SVG Version: 6.00 Build 0)  -->
<svg version="1.1" xmlns="http://www.w3.org/2000/svg" xmlns:xlink="http://www.w3.org/1999/xlink" x="0px" y="0px" width="24px"
	 height="24px" viewBox="0 0 24 24" enable-background="new 0 0 24 24" xml:space="preserve">
<g id="Filled_Icons_1_">
	<g id="Filled_Icons">
	</g>
	<g id="New_icons">
		<g>
			<path d="M0,18v1.912C0,21.063,0.897,22,2,22h9.5v1H5c-0.276,0-0.5,0.224-0.5,0.5S4.724,24,5,24h14c0.276,0,0.5-0.224,0.5-0.5
				S19.276,23,19,23h-6.5v-1H22c1.103,0,2-0.937,2-2.088V18H0z M12,21c-0.551,0-1-0.449-1-1s0.449-1,1-1s1,0.449,1,1
				S12.551,21,12,21z"/>
			<g>
				<path d="M22,3H2C0.897,3,0,3.937,0,5.088V17h24V5.088C24,3.937,23.103,3,22,3z M17.514,11.451l-1.5,2.598
					c-0.139,0.24-0.443,0.321-0.684,0.183l-0.85-0.49c-0.153,0.101-0.316,0.183-0.481,0.265V15c0,0.276-0.224,0.5-0.5,0.5h-3
					c-0.276,0-0.5-0.224-0.5-0.5v-0.982c-0.166-0.083-0.325-0.176-0.478-0.277L8.67,14.232c-0.24,0.138-0.545,0.058-0.684-0.183
					l-1.5-2.598c-0.138-0.239-0.057-0.544,0.184-0.683l0.859-0.496C7.519,10.09,7.512,9.909,7.523,9.725L6.67,9.232
					C6.431,9.094,6.349,8.79,6.486,8.549l1.5-2.598C8.125,5.712,8.431,5.63,8.67,5.768l0.85,0.491C9.672,6.157,9.836,6.076,10,5.994
					V5c0-0.276,0.224-0.5,0.5-0.5h3C13.776,4.5,14,4.724,14,5v0.982c0.167,0.083,0.325,0.176,0.478,0.278l0.852-0.493
					c0.239-0.138,0.545-0.056,0.684,0.183l1.5,2.598c0.138,0.24,0.056,0.544-0.184,0.683l-0.859,0.496
					c0.011,0.182,0.018,0.363,0.006,0.548l0.853,0.492C17.57,10.907,17.651,11.212,17.514,11.451z"/>
				<circle cx="12" cy="10" r="2.5"/>
			</g>
		</g>
	</g>
</g>
<g id="Invisible_Shape">
	<rect fill="none" width="24" height="24"/>
</g>
</svg>
