<?xml version="1.0" encoding="utf-8"?>
<!-- Generator: Adobe Illustrator 19.2.1, SVG Export Plug-In . SVG Version: 6.00 Build 0)  -->
<svg version="1.1" xmlns="http://www.w3.org/2000/svg" xmlns:xlink="http://www.w3.org/1999/xlink" x="0px" y="0px" width="24px"
	 height="24px" viewBox="0 0 24 24" enable-background="new 0 0 24 24" xml:space="preserve">
<g id="Filled_Icons_1_">
	<g id="Filled_Icons">
	</g>
	<g id="New_icons">
		<g>
			<path d="M0,18v1.912C0,21.063,0.897,22,2,22h9.5v1H5c-0.276,0-0.5,0.224-0.5,0.5S4.724,24,5,24h14c0.276,0,0.5-0.224,0.5-0.5
				S19.276,23,19,23h-6.5v-1H22c1.103,0,2-0.937,2-2.088V18H0z M12,21c-0.551,0-1-0.449-1-1s0.449-1,1-1s1,0.449,1,1
				S12.551,21,12,21z"/>
			<path d="M22,3H2C0.897,3,0,3.937,0,5.088V17h24V5.088C24,3.937,23.103,3,22,3z M19.5,13h-1.571c-0.223,0.86-0.999,1.5-1.929,1.5
				c-0.93,0-1.706-0.64-1.929-1.5H4.5C4.224,13,4,12.776,4,12.5S4.224,12,4.5,12h9.571c0.224-0.86,1-1.5,1.929-1.5
				c0.93,0,1.706,0.64,1.929,1.5H19.5c0.276,0,0.5,0.224,0.5,0.5S19.776,13,19.5,13z M19.5,8H9.929C9.706,8.86,8.93,9.5,8,9.5
				S6.294,8.86,6.071,8H4.5C4.224,8,4,7.776,4,7.5S4.224,7,4.5,7h1.571C6.294,6.14,7.07,5.5,8,5.5S9.706,6.14,9.929,7H19.5
				C19.776,7,20,7.224,20,7.5S19.776,8,19.5,8z"/>
		</g>
	</g>
</g>
<g id="Invisible_Shape">
	<rect fill="none" width="24" height="24"/>
</g>
</svg>
