<?xml version="1.0" encoding="utf-8"?>
<!-- Generator: Adobe Illustrator 19.2.1, SVG Export Plug-In . SVG Version: 6.00 Build 0)  -->
<svg version="1.1" xmlns="http://www.w3.org/2000/svg" xmlns:xlink="http://www.w3.org/1999/xlink" x="0px" y="0px" width="24px"
	 height="24px" viewBox="0 0 24 24" enable-background="new 0 0 24 24" xml:space="preserve">
<g id="Filled_Icons_1_">
	<g id="Filled_Icons">
		<path d="M12,4C5.383,4,0,9.383,0,16v4.5C0,20.776,0.224,21,0.5,21h23c0.276,0,0.5-0.224,0.5-0.5V16C24,9.383,18.617,4,12,4z
			 M14.408,8.879l0.766-1.848c0.105-0.256,0.398-0.376,0.653-0.271c0.255,0.106,0.376,0.398,0.271,0.653l-0.766,1.848
			c-0.105,0.254-0.397,0.377-0.653,0.269C14.424,9.427,14.303,9.134,14.408,8.879z M11.5,6.5C11.5,6.224,11.724,6,12,6
			s0.5,0.224,0.5,0.5v2C12.5,8.776,12.276,9,12,9s-0.5-0.224-0.5-0.5V6.5z M4.5,17h-2C2.224,17,2,16.776,2,16.5S2.224,16,2.5,16h2
			C4.776,16,5,16.224,5,16.5S4.776,17,4.5,17z M5.532,13.322c-0.105,0.255-0.397,0.377-0.653,0.271l-1.847-0.765
			c-0.255-0.106-0.376-0.399-0.271-0.654c0.105-0.255,0.399-0.376,0.653-0.271l1.847,0.766C5.518,12.774,5.639,13.066,5.532,13.322z
			 M7.049,11.05L7.049,11.05c-0.196,0.195-0.513,0.196-0.707,0L4.93,9.635c-0.195-0.195-0.195-0.512,0-0.707h0.001
			C5.127,8.734,5.443,8.734,5.638,8.93l1.411,1.414C7.244,10.54,7.244,10.856,7.049,11.05z M9.321,9.533
			C9.065,9.639,8.773,9.518,8.668,9.262L7.903,7.414c-0.106-0.255,0.015-0.547,0.27-0.653c0.256-0.105,0.548,0.016,0.654,0.27
			L9.592,8.88C9.697,9.135,9.576,9.427,9.321,9.533z M13.415,17.414c-0.781,0.781-2.048,0.781-2.829,0
			c-0.781-0.781-0.781-2.047,0.001-2.828c0.658-0.658,1.658-0.754,2.425-0.303l4.636-4.636c0.195-0.195,0.512-0.195,0.707,0
			c0.195,0.195,0.195,0.512,0,0.707l-4.636,4.636C14.169,15.756,14.072,16.756,13.415,17.414z M18.466,13.321
			c-0.105-0.255,0.016-0.547,0.272-0.653l1.848-0.765c0.255-0.105,0.547,0.016,0.653,0.271c0.105,0.256-0.016,0.547-0.271,0.652
			l-1.848,0.765C18.864,13.697,18.571,13.576,18.466,13.321z M21.5,17h-2c-0.276,0-0.5-0.224-0.5-0.5s0.224-0.5,0.5-0.5h2
			c0.276,0,0.5,0.224,0.5,0.5S21.776,17,21.5,17z"/>
	</g>
	<g id="New_icons">
	</g>
</g>
<g id="Invisible_Shape">
	<rect fill="none" width="24" height="24"/>
</g>
</svg>
