<?xml version="1.0" encoding="utf-8"?>
<!-- Generator: Adobe Illustrator 19.2.1, SVG Export Plug-In . SVG Version: 6.00 Build 0)  -->
<svg version="1.1" xmlns="http://www.w3.org/2000/svg" xmlns:xlink="http://www.w3.org/1999/xlink" x="0px" y="0px" width="24px"
	 height="24px" viewBox="0 0 24 24" enable-background="new 0 0 24 24" xml:space="preserve">
<g id="Filled_Icons_1_">
	<g id="Filled_Icons">
		<g>
			<path d="M5.5,0h-2C2.673,0,2,0.673,2,1.5v5C2,7.327,2.673,8,3.5,8h2C6.327,8,7,7.327,7,6.5v-5C7,0.673,6.327,0,5.5,0z"/>
			<path d="M21.5,1h-13C8.224,1,8,1.224,8,1.5v5C8,6.776,8.224,7,8.5,7H10v7H9.5C9.224,14,9,14.224,9,14.5v9
				C9,23.776,9.224,24,9.5,24h4c0.276,0,0.5-0.224,0.5-0.5v-9c0-0.276-0.224-0.5-0.5-0.5H13V7h5c0.276,0,0.5-0.224,0.5-0.5
				c0-1.654,1.346-3,3-3C21.776,3.5,22,3.276,22,3V1.5C22,1.224,21.776,1,21.5,1z M12,14h-1V7h1V14z"/>
		</g>
	</g>
	<g id="New_icons">
	</g>
</g>
<g id="Invisible_Shape">
	<rect fill="none" width="24" height="24"/>
</g>
</svg>
