<?xml version="1.0" encoding="utf-8"?>
<!-- Generator: Adobe Illustrator 19.2.1, SVG Export Plug-In . SVG Version: 6.00 Build 0)  -->
<svg version="1.1" xmlns="http://www.w3.org/2000/svg" xmlns:xlink="http://www.w3.org/1999/xlink" x="0px" y="0px" width="24px"
	 height="24px" viewBox="0 0 24 24" enable-background="new 0 0 24 24" xml:space="preserve">
<g id="Filled_Icons_1_">
	<g id="Filled_Icons">
		<g>
			<path d="M13.336,6.957L0.147,20.146c-0.195,0.195-0.195,0.512,0,0.707l2.499,2.499c0.196,0.196,0.512,0.196,0.707,0.001
				l13.19-13.189L13.336,6.957z"/>
			<path d="M23.854,7.646l-7.001-7c-0.195-0.195-0.512-0.195-0.707,0c-1.163,1.164-3.128,1.165-4.292,0.001l0,0
				C11.76,0.553,11.632,0.498,11.5,0.5c-0.133,0-0.26,0.052-0.354,0.146l-1,1c-0.196,0.195-0.196,0.512,0,0.708l9.5,9.5
				c0.196,0.196,0.512,0.195,0.707,0l3.5-3.5C24.049,8.157,24.05,7.842,23.854,7.646z"/>
		</g>
	</g>
	<g id="New_icons">
	</g>
</g>
<g id="Invisible_Shape">
	<rect fill="none" width="24" height="24"/>
</g>
</svg>
