<?xml version="1.0" encoding="utf-8"?>
<!-- Generator: Adobe Illustrator 19.2.1, SVG Export Plug-In . SVG Version: 6.00 Build 0)  -->
<svg version="1.1" xmlns="http://www.w3.org/2000/svg" xmlns:xlink="http://www.w3.org/1999/xlink" x="0px" y="0px" width="24px"
	 height="24px" viewBox="0 0 24 24" enable-background="new 0 0 24 24" xml:space="preserve">
<g id="Filled_Icons_1_">
	<g id="Filled_Icons">
		<path d="M23.854,1.646l-1.5-1.5c-0.195-0.195-0.511-0.195-0.707,0l-3,3c-0.195,0.195-0.195,0.512,0,0.707l0.397,0.397
			L8.571,14.722l-1.768-1.768c-0.195-0.195-0.512-0.195-0.707,0c-0.195,0.196-0.195,0.512,0,0.707l0.707,0.707l-6.217,6.218
			c-0.781,0.781-0.781,2.047,0,2.828c0.781,0.781,2.046,0.781,2.828,0l6.218-6.218l0.707,0.707c0.196,0.196,0.514,0.194,0.707,0
			c0.196-0.195,0.196-0.512,0-0.707l-1.767-1.768L19.75,4.957l0.396,0.397c0.195,0.195,0.511,0.195,0.707,0l3-3
			C24.049,2.159,24.049,1.842,23.854,1.646z"/>
	</g>
	<g id="New_icons">
	</g>
</g>
<g id="Invisible_Shape">
	<rect fill="none" width="24" height="24"/>
</g>
</svg>
