<?xml version="1.0" encoding="utf-8"?>
<!-- Generator: Adobe Illustrator 19.2.1, SVG Export Plug-In . SVG Version: 6.00 Build 0)  -->
<svg version="1.1" xmlns="http://www.w3.org/2000/svg" xmlns:xlink="http://www.w3.org/1999/xlink" x="0px" y="0px" width="24px"
	 height="24px" viewBox="0 0 24 24" enable-background="new 0 0 24 24" xml:space="preserve">
<g id="Filled_Icons_1_">
	<g id="Filled_Icons">
		<path d="M22.5,0h-21C0.673,0,0,0.673,0,1.5v20C0,22.327,0.673,23,1.5,23h21c0.827,0,1.5-0.673,1.5-1.5v-20
			C24,0.673,23.327,0,22.5,0z M20.521,18h-8.071c-0.232,1.14-1.242,2-2.449,2s-2.217-0.86-2.449-2H3.52c-0.276,0-0.5-0.224-0.5-0.5
			S3.244,17,3.52,17h4.03c0.232-1.14,1.242-2,2.449-2s2.217,0.86,2.449,2h8.071c0.276,0,0.5,0.224,0.5,0.5S20.797,18,20.521,18z
			 M20.521,12H10.449C10.217,13.14,9.207,14,8,14s-2.217-0.86-2.449-2H3.52c-0.276,0-0.5-0.224-0.5-0.5S3.244,11,3.52,11h2.03
			C5.783,9.86,6.793,9,8,9s2.217,0.86,2.449,2h10.071c0.276,0,0.5,0.224,0.5,0.5S20.797,12,20.521,12z M20.521,6h-6.071
			C14.217,7.14,13.207,8,12,8S9.783,7.14,9.551,6H3.52c-0.276,0-0.5-0.224-0.5-0.5S3.244,5,3.52,5h6.03C9.783,3.86,10.793,3,12,3
			s2.217,0.86,2.449,2h6.071c0.276,0,0.5,0.224,0.5,0.5S20.797,6,20.521,6z"/>
	</g>
	<g id="New_icons">
	</g>
</g>
<g id="Invisible_Shape">
	<rect fill="none" width="24" height="24"/>
</g>
</svg>
