<?xml version="1.0" encoding="utf-8"?>
<!-- Generator: Adobe Illustrator 19.2.1, SVG Export Plug-In . SVG Version: 6.00 Build 0)  -->
<svg version="1.1" xmlns="http://www.w3.org/2000/svg" xmlns:xlink="http://www.w3.org/1999/xlink" x="0px" y="0px" width="24px"
	 height="24px" viewBox="0 0 24 24" enable-background="new 0 0 24 24" xml:space="preserve">
<g id="Filled_Icons_1_">
	<g id="Filled_Icons">
		<g>
			<path d="M23.5,0h-23C0.224,0,0,0.224,0,0.5v23C0,23.776,0.224,24,0.5,24h23c0.276,0,0.5-0.224,0.5-0.5v-23
				C24,0.224,23.776,0,23.5,0z M17.5,21h-11C4.57,20.955,3,19.384,3,17.455s1.57-3.5,3.5-3.5h11c1.93,0,3.5,1.57,3.5,3.5
				S19.43,20.955,17.5,21z M17.5,10h-11C4.57,10,3,8.43,3,6.5S4.57,3,6.5,3h11C19.43,3,21,4.57,21,6.5S19.43,10,17.5,10z"/>
			<circle cx="6.5" cy="6.5" r="2.5"/>
			<circle cx="17.5" cy="17.455" r="2.5"/>
		</g>
	</g>
	<g id="New_icons">
	</g>
</g>
<g id="Invisible_Shape">
	<rect fill="none" width="24" height="24"/>
</g>
</svg>
