<?xml version="1.0" encoding="utf-8"?>
<!-- Generator: Adobe Illustrator 19.2.1, SVG Export Plug-In . SVG Version: 6.00 Build 0)  -->
<svg version="1.1" xmlns="http://www.w3.org/2000/svg" xmlns:xlink="http://www.w3.org/1999/xlink" x="0px" y="0px" width="24px"
	 height="24px" viewBox="0 0 24 24" enable-background="new 0 0 24 24" xml:space="preserve">
<g id="Filled_Icons_1_">
	<g id="Filled_Icons">
		<g>
			<path d="M17,14H9c-1.378-0.018-2.5,1.104-2.5,2.482c0,1.378,1.122,2.5,2.5,2.518h8c1.378-0.018,2.5-1.14,2.5-2.518
				C19.5,15.104,18.378,13.982,17,14z"/>
			<g>
				<g>
					<path d="M13,13c-0.552,0-1-0.448-1-1V1c0-0.552,0.448-1,1-1s1,0.448,1,1v11C14,12.552,13.552,13,13,13z"/>
				</g>
				<g>
					<path d="M13,24c-0.552,0-1-0.448-1-1v-2c0-0.552,0.448-1,1-1s1,0.448,1,1v2C14,23.552,13.552,24,13,24z"/>
				</g>
			</g>
		</g>
	</g>
	<g id="New_icons">
	</g>
</g>
<g id="Invisible_Shape">
	<rect fill="none" width="24" height="24"/>
</g>
</svg>
