<?xml version="1.0" encoding="utf-8"?>
<!-- Generator: Adobe Illustrator 19.2.1, SVG Export Plug-In . SVG Version: 6.00 Build 0)  -->
<svg version="1.1" xmlns="http://www.w3.org/2000/svg" xmlns:xlink="http://www.w3.org/1999/xlink" x="0px" y="0px" width="24px"
	 height="24px" viewBox="0 0 24 24" enable-background="new 0 0 24 24" xml:space="preserve">
<g id="Filled_Icons_1_">
	<g id="Filled_Icons">
		<g>
			<circle cx="3.5" cy="20.5" r="0.5"/>
			<circle cx="20.5" cy="3.5" r="0.5"/>
			<circle cx="3.5" cy="3.5" r="0.5"/>
			<circle cx="20.5" cy="20.5" r="0.5"/>
			<path d="M23.5,0h-23C0.224,0,0,0.224,0,0.5v23C0,23.776,0.224,24,0.5,24h23c0.276,0,0.5-0.224,0.5-0.5v-23
				C24,0.224,23.776,0,23.5,0z M3.5,22C2.673,22,2,21.327,2,20.5S2.673,19,3.5,19S5,19.673,5,20.5S4.327,22,3.5,22z M3.5,5
				C2.673,5,2,4.327,2,3.5S2.673,2,3.5,2S5,2.673,5,3.5S4.327,5,3.5,5z M16,17.5c0,0.276-0.224,0.5-0.5,0.5h-7
				C8.224,18,8,17.776,8,17.5V16h8V17.5z M16,15H8V6.5C8,6.224,8.224,6,8.5,6h7C15.776,6,16,6.224,16,6.5V15z M20.5,22
				c-0.827,0-1.5-0.673-1.5-1.5s0.673-1.5,1.5-1.5s1.5,0.673,1.5,1.5S21.327,22,20.5,22z M20.5,5C19.673,5,19,4.327,19,3.5
				S19.673,2,20.5,2S22,2.673,22,3.5S21.327,5,20.5,5z"/>
		</g>
	</g>
	<g id="New_icons">
	</g>
</g>
<g id="Invisible_Shape">
	<rect fill="none" width="24" height="24"/>
</g>
</svg>
