<?xml version="1.0" encoding="utf-8"?>
<!-- Generator: Adobe Illustrator 19.2.1, SVG Export Plug-In . SVG Version: 6.00 Build 0)  -->
<svg version="1.1" xmlns="http://www.w3.org/2000/svg" xmlns:xlink="http://www.w3.org/1999/xlink" x="0px" y="0px" width="24px"
	 height="24px" viewBox="0 0 24 24" enable-background="new 0 0 24 24" xml:space="preserve">
<g id="Filled_Icons_1_">
	<g id="Filled_Icons">
		<g>
			<path d="M22.5,7h-6.029C16.221,4.753,14.312,3,12,3S7.779,4.753,7.53,7H1.5C1.224,7,1,7.224,1,7.5V12h9v-1
				c0-0.276,0.224-0.5,0.5-0.5h3c0.276,0,0.5,0.224,0.5,0.5v1h9V7.5C23,7.224,22.776,7,22.5,7z M8.54,7c0.244-1.693,1.7-3,3.46-3
				s3.216,1.307,3.46,3H8.54z"/>
			<path d="M14,15c0,0.276-0.224,0.5-0.5,0.5h-3c-0.276,0-0.5-0.224-0.5-0.5v-2H1v8.5C1,21.776,1.224,22,1.5,22h21
				c0.276,0,0.5-0.224,0.5-0.5V13h-9V15z"/>
		</g>
	</g>
	<g id="New_icons">
	</g>
</g>
<g id="Invisible_Shape">
	<rect fill="none" width="24" height="24"/>
</g>
</svg>
