<?xml version="1.0" encoding="utf-8"?>
<!-- Generator: Adobe Illustrator 19.2.1, SVG Export Plug-In . SVG Version: 6.00 Build 0)  -->
<svg version="1.1" xmlns="http://www.w3.org/2000/svg" xmlns:xlink="http://www.w3.org/1999/xlink" x="0px" y="0px" width="24px"
	 height="24px" viewBox="0 0 24 24" enable-background="new 0 0 24 24" xml:space="preserve">
<g id="Filled_Icons_1_">
	<g id="Filled_Icons">
		<path d="M23,11h-4.823l-1.749-4.372c-0.164-0.408-0.576-0.659-1.013-0.625c-0.438,0.038-0.801,0.358-0.893,0.788l-1.874,8.741
			L10.488,1.844c-0.073-0.461-0.455-0.811-0.92-0.842C9.098,0.971,8.676,1.266,8.542,1.714L5.756,11H1c-0.552,0-1,0.448-1,1
			c0,0.552,0.448,1,1,1h5.5c0.442,0,0.831-0.29,0.958-0.713l1.739-5.796l2.315,14.665c0.075,0.476,0.479,0.83,0.96,0.842
			C12.482,22,12.491,22,12.5,22c0.47,0,0.878-0.329,0.977-0.79l2.312-10.792l0.781,1.953C16.723,12.752,17.091,13,17.5,13H23
			c0.552,0,1-0.448,1-1C24,11.448,23.552,11,23,11z"/>
	</g>
	<g id="New_icons">
	</g>
</g>
<g id="Invisible_Shape">
	<rect fill="none" width="24" height="24"/>
</g>
</svg>
