<?xml version="1.0" encoding="utf-8"?>
<!-- Generator: Adobe Illustrator 19.2.1, SVG Export Plug-In . SVG Version: 6.00 Build 0)  -->
<svg version="1.1" xmlns="http://www.w3.org/2000/svg" xmlns:xlink="http://www.w3.org/1999/xlink" x="0px" y="0px" width="24px"
	 height="24px" viewBox="0 0 24 24" enable-background="new 0 0 24 24" xml:space="preserve">
<g id="Filled_Icons_1_">
	<g id="Filled_Icons">
		<g>
			<g>
				<path d="M18.07,15.219l-2.522-2.517l-2.835,2.841l2.53,2.524c-0.546,1.618-0.139,3.397,1.082,4.616
					c1.308,1.308,3.17,1.678,4.863,0.961c0.155-0.065,0.266-0.204,0.297-0.37c0.031-0.165-0.024-0.334-0.145-0.451l-1.835-1.767
					V19.5h1.557l1.767,1.835c0.117,0.122,0.288,0.175,0.451,0.145c0.166-0.03,0.304-0.142,0.37-0.297
					c0.712-1.682,0.335-3.605-0.96-4.9C21.475,15.07,19.692,14.668,18.07,15.219z"/>
				<path d="M5.938,8.783l2.518,2.512l2.835-2.841L8.766,5.935c0.546-1.616,0.139-3.397-1.082-4.616
					C6.376,0.011,4.513-0.36,2.821,0.357c-0.155,0.065-0.266,0.204-0.297,0.37C2.493,0.892,2.548,1.061,2.669,1.178l1.835,1.767
					v1.558H2.947L1.181,2.666C1.064,2.544,0.893,2.491,0.729,2.521C0.564,2.552,0.425,2.663,0.36,2.818
					c-0.711,1.681-0.334,3.605,0.96,4.899C2.533,8.932,4.315,9.333,5.938,8.783z"/>
			</g>
			<path d="M8.786,18.067c0.551,1.623,0.149,3.405-1.065,4.619c-1.295,1.294-3.218,1.671-4.9,0.96
				c-0.155-0.065-0.266-0.204-0.297-0.37c-0.03-0.163,0.023-0.334,0.145-0.451l1.835-1.767v-1.557H2.947l-1.767,1.835
				c-0.117,0.121-0.286,0.176-0.451,0.145c-0.165-0.03-0.304-0.142-0.37-0.297c-0.717-1.692-0.347-3.554,0.961-4.863
				c1.219-1.22,2.999-1.628,4.616-1.082l9.285-9.304c-0.551-1.623-0.149-3.405,1.065-4.617c1.295-1.296,3.218-1.673,4.9-0.962
				c0.155,0.065,0.266,0.204,0.297,0.37c0.03,0.164-0.024,0.334-0.145,0.451l-1.835,1.767v1.557h1.557l1.767-1.835
				c0.117-0.121,0.286-0.175,0.451-0.145c0.166,0.031,0.304,0.142,0.37,0.297c0.717,1.692,0.347,3.554-0.961,4.863
				c-1.219,1.221-2.999,1.628-4.616,1.082L8.786,18.067z"/>
		</g>
	</g>
	<g id="New_icons">
	</g>
</g>
<g id="Invisible_Shape">
	<rect fill="none" width="24" height="24"/>
</g>
</svg>
