<?xml version="1.0" encoding="utf-8"?>
<!-- Generator: Adobe Illustrator 19.2.1, SVG Export Plug-In . SVG Version: 6.00 Build 0)  -->
<svg version="1.1" xmlns="http://www.w3.org/2000/svg" xmlns:xlink="http://www.w3.org/1999/xlink" x="0px" y="0px" width="24px"
	 height="24px" viewBox="0 0 24 24" enable-background="new 0 0 24 24" xml:space="preserve">
<g id="Filled_Icons_1_">
	<g id="Filled_Icons">
	</g>
	<g id="New_icons">
		<g>
			<path d="M18,10.5v2c0,0.276,0.224,0.5,0.5,0.5h5c0.276,0,0.5-0.224,0.5-0.5v-2c0-0.276-0.224-0.5-0.5-0.5h-5
				C18.224,10,18,10.224,18,10.5z"/>
			<path d="M7,12.5v-2C7,10.224,6.776,10,6.5,10h-5C1.224,10,1,10.224,1,10.5v2C1,12.776,1.224,13,1.5,13h5
				C6.776,13,7,12.776,7,12.5z"/>
			<path d="M13.5,17h-2c-0.276,0-0.5,0.224-0.5,0.5v5c0,0.276,0.224,0.5,0.5,0.5h2c0.276,0,0.5-0.224,0.5-0.5v-5
				C14,17.224,13.776,17,13.5,17z"/>
			<path d="M11.5,6h2C13.776,6,14,5.776,14,5.5v-5C14,0.224,13.776,0,13.5,0h-2C11.224,0,11,0.224,11,0.5v5
				C11,5.776,11.224,6,11.5,6z"/>
			<path d="M17.096,14.682l-1.414,1.414c-0.195,0.195-0.196,0.512,0,0.707l3.535,3.535c0.195,0.196,0.512,0.195,0.707,0l1.414-1.414
				c0.195-0.195,0.195-0.512,0-0.707l-3.535-3.535C17.607,14.486,17.291,14.486,17.096,14.682z"/>
			<path d="M7.902,8.318l1.415-1.415c0.195-0.195,0.195-0.512,0-0.707L5.781,2.66c-0.195-0.195-0.512-0.195-0.707,0L3.66,4.075
				c-0.195,0.195-0.195,0.512,0,0.707l3.535,3.536C7.391,8.514,7.707,8.514,7.902,8.318z"/>
			<path d="M9.317,16.096l-1.415-1.414c-0.195-0.195-0.512-0.195-0.707,0L3.66,18.217c-0.195,0.195-0.195,0.512,0,0.707l1.414,1.414
				c0.195,0.195,0.512,0.195,0.707,0l3.536-3.535C9.513,16.607,9.513,16.291,9.317,16.096z"/>
			<path d="M15.681,6.903l1.415,1.415c0.195,0.195,0.512,0.195,0.707,0l3.535-3.536c0.195-0.195,0.195-0.512,0-0.707L19.924,2.66
				c-0.195-0.195-0.512-0.195-0.707,0l-3.536,3.536C15.485,6.392,15.485,6.708,15.681,6.903z"/>
		</g>
	</g>
</g>
<g id="Invisible_Shape">
	<rect fill="none" width="24" height="24"/>
</g>
</svg>
