<?xml version="1.0" encoding="utf-8"?>
<!-- Generator: Adobe Illustrator 19.2.1, SVG Export Plug-In . SVG Version: 6.00 Build 0)  -->
<svg version="1.1" xmlns="http://www.w3.org/2000/svg" xmlns:xlink="http://www.w3.org/1999/xlink" x="0px" y="0px" width="24px"
	 height="24px" viewBox="0 0 24 24" enable-background="new 0 0 24 24" xml:space="preserve">
<g id="Filled_Icons_1_">
	<g id="Filled_Icons">
	</g>
	<g id="New_icons">
		<g>
			<path d="M10.257,22.778c-0.269-0.054-0.446-0.318-0.393-0.588l1.463-7.356c0.053-0.27,0.314-0.449,0.588-0.393
				c0.395,0.078,0.788,0.077,1.165-0.001c0.273-0.057,0.542,0.123,0.595,0.394l1.463,7.356c0.053,0.27-0.124,0.534-0.393,0.588
				C13.248,23.073,11.754,23.074,10.257,22.778z"/>
			<path d="M1.222,9.257C1.275,8.987,1.54,8.811,1.81,8.863l7.356,1.463c0.27,0.053,0.449,0.314,0.393,0.588
				c-0.078,0.395-0.077,0.788,0.001,1.165c0.057,0.273-0.123,0.542-0.394,0.595L1.81,14.137c-0.27,0.053-0.534-0.124-0.588-0.393
				C0.927,12.248,0.926,10.754,1.222,9.257z"/>
			<path d="M14.743,0.222c0.269,0.054,0.446,0.318,0.393,0.588l-1.463,7.356c-0.053,0.27-0.314,0.449-0.588,0.393
				c-0.395-0.078-0.788-0.077-1.165,0.001c-0.273,0.057-0.542-0.123-0.595-0.394L9.863,0.81c-0.053-0.27,0.124-0.534,0.393-0.588
				C11.752-0.073,13.246-0.074,14.743,0.222z"/>
			<path d="M23.778,13.743c-0.054,0.269-0.318,0.446-0.588,0.393l-7.356-1.463c-0.27-0.053-0.449-0.314-0.393-0.588
				c0.078-0.395,0.077-0.788-0.001-1.165c-0.057-0.273,0.123-0.542,0.394-0.595l7.356-1.463c0.27-0.053,0.534,0.124,0.588,0.393
				C24.073,10.752,24.074,12.246,23.778,13.743z"/>
			<path d="M2.938,17.889c-0.152-0.229-0.09-0.541,0.138-0.694l6.236-4.167c0.229-0.154,0.54-0.096,0.693,0.138
				c0.224,0.334,0.503,0.612,0.824,0.823c0.233,0.153,0.296,0.471,0.142,0.699l-4.166,6.236C6.65,21.15,6.339,21.213,6.11,21.06
				C4.875,20.232,3.801,19.178,2.938,17.889z"/>
			<path d="M6.11,1.939c0.228-0.152,0.54-0.091,0.694,0.138l4.166,6.236c0.154,0.229,0.096,0.539-0.137,0.693
				C10.5,9.229,10.222,9.508,10.01,9.83c-0.152,0.232-0.47,0.296-0.698,0.142L3.075,5.805C2.848,5.651,2.785,5.34,2.938,5.111
				C3.79,3.838,4.852,2.781,6.11,1.939z"/>
			<path d="M22.06,5.111c0.152,0.228,0.09,0.54-0.138,0.693l-6.236,4.167c-0.228,0.154-0.54,0.096-0.693-0.138
				C14.769,9.5,14.49,9.223,14.169,9.011c-0.233-0.153-0.296-0.47-0.142-0.698l4.166-6.236c0.154-0.229,0.466-0.29,0.694-0.138
				C20.15,2.784,21.214,3.847,22.06,5.111z"/>
			<path d="M18.888,21.06c-0.228,0.152-0.54,0.09-0.694-0.137l-4.166-6.236c-0.154-0.229-0.096-0.541,0.137-0.693
				c0.334-0.225,0.612-0.503,0.824-0.824c0.152-0.234,0.47-0.297,0.698-0.143l6.236,4.167c0.228,0.153,0.29,0.466,0.138,0.694
				C21.234,19.121,20.18,20.195,18.888,21.06z"/>
		</g>
	</g>
</g>
<g id="Invisible_Shape">
	<rect fill="none" width="24" height="24"/>
</g>
</svg>
