<?xml version="1.0" encoding="utf-8"?>
<!-- Generator: Adobe Illustrator 19.2.1, SVG Export Plug-In . SVG Version: 6.00 Build 0)  -->
<svg version="1.1" xmlns="http://www.w3.org/2000/svg" xmlns:xlink="http://www.w3.org/1999/xlink" x="0px" y="0px" width="24px"
	 height="24px" viewBox="0 0 24 24" enable-background="new 0 0 24 24" xml:space="preserve">
<g id="Filled_Icons_1_">
	<g id="Filled_Icons">
		<g>
			<g>
				<path d="M11.5,23c-0.553,0-1-0.448-1-1v-2c0-0.552,0.447-1,1-1s1,0.448,1,1v2C12.5,22.552,12.053,23,11.5,23z"/>
			</g>
			<g>
				<path d="M21,13.5h-2c-0.553,0-1-0.448-1-1c0-0.552,0.447-1,1-1h2c0.553,0,1,0.448,1,1C22,13.052,21.553,13.5,21,13.5z"/>
			</g>
			<g>
				<path d="M11.5,6c-0.553,0-1-0.448-1-1V1c0-0.552,0.447-1,1-1s1,0.448,1,1v4C12.5,5.552,12.053,6,11.5,6z"/>
			</g>
			<g>
				<path d="M4,13.5H2c-0.553,0-1-0.448-1-1c0-0.552,0.447-1,1-1h2c0.553,0,1,0.448,1,1C5,13.052,4.553,13.5,4,13.5z"/>
			</g>
			<g>
				<path d="M20.659,9.788l-1.848,0.766c-0.511,0.212-1.095-0.031-1.306-0.541c-0.212-0.51,0.029-1.094,0.541-1.307l1.848-0.765
					c0.51-0.212,1.095,0.031,1.307,0.541C21.412,8.992,21.17,9.577,20.659,9.788z"/>
			</g>
			<g>
				<path d="M4.954,16.294L3.105,17.06c-0.51,0.21-1.095-0.031-1.307-0.542c-0.211-0.51,0.031-1.095,0.541-1.306l1.849-0.766
					c0.511-0.212,1.095,0.031,1.307,0.541C5.707,15.498,5.464,16.083,4.954,16.294z"/>
			</g>
			<g>
				<path d="M18.924,6.489L17.51,7.903c-0.391,0.391-1.024,0.391-1.414,0c-0.391-0.39-0.392-1.023,0-1.415l1.414-1.414
					c0.391-0.39,1.023-0.39,1.414-0.001C19.315,5.465,19.315,6.099,18.924,6.489z"/>
			</g>
			<g>
				<path d="M6.904,18.51l-1.415,1.415c-0.391,0.39-1.023,0.391-1.415,0c-0.39-0.391-0.39-1.024,0-1.414l1.415-1.415
					c0.391-0.391,1.023-0.39,1.414,0C7.295,17.486,7.294,18.119,6.904,18.51z"/>
			</g>
			<g>
				<path d="M16.096,18.51l1.415,1.415c0.391,0.39,1.024,0.391,1.415,0c0.39-0.391,0.39-1.024,0-1.414l-1.415-1.415
					c-0.391-0.391-1.023-0.39-1.414,0C15.705,17.486,15.706,18.119,16.096,18.51z"/>
			</g>
			<g>
				<path d="M16.06,4.106l-0.766,1.847c-0.211,0.511-0.796,0.752-1.307,0.541c-0.51-0.211-0.753-0.795-0.541-1.307l0.766-1.848
					c0.211-0.509,0.796-0.752,1.306-0.541C16.028,3.011,16.271,3.596,16.06,4.106z"/>
			</g>
			<g>
				<path d="M20.659,15.212l-1.848-0.766c-0.511-0.212-1.095,0.031-1.306,0.541c-0.212,0.51,0.029,1.095,0.541,1.307l1.848,0.766
					c0.51,0.21,1.095-0.031,1.307-0.542C21.412,16.009,21.17,15.423,20.659,15.212z"/>
			</g>
			<g>
				<path d="M4.954,8.706L3.105,7.94c-0.51-0.212-1.095,0.031-1.307,0.541C1.588,8.992,1.83,9.577,2.34,9.788l1.849,0.766
					c0.511,0.212,1.095-0.031,1.307-0.541C5.707,9.502,5.464,8.918,4.954,8.706z"/>
			</g>
			<g>
				<path d="M6.904,6.49L5.489,5.075c-0.391-0.39-1.023-0.391-1.415,0c-0.39,0.391-0.39,1.024,0,1.414l1.415,1.415
					c0.391,0.391,1.023,0.39,1.414,0C7.295,7.514,7.294,6.881,6.904,6.49z"/>
			</g>
			<g>
				<path d="M9.554,5.189L8.787,3.341c-0.212-0.51-0.796-0.753-1.307-0.542c-0.51,0.212-0.753,0.797-0.541,1.307l0.766,1.849
					c0.211,0.511,0.797,0.751,1.307,0.541C9.523,6.284,9.764,5.699,9.554,5.189z"/>
			</g>
			<g>
				<path d="M7.289,22.162c-0.51-0.212-0.751-0.797-0.54-1.307l0.767-1.849c0.212-0.51,0.797-0.751,1.307-0.54
					c0.512,0.212,0.753,0.797,0.541,1.307l-0.768,1.848C8.385,22.132,7.801,22.374,7.289,22.162z"/>
			</g>
			<g>
				<path d="M15.708,22.162c-0.511,0.211-1.095-0.032-1.306-0.542l-0.763-1.848c-0.211-0.51,0.031-1.095,0.542-1.306
					c0.511-0.211,1.096,0.032,1.307,0.543l0.763,1.848C16.462,21.367,16.219,21.951,15.708,22.162z"/>
			</g>
		</g>
	</g>
	<g id="New_icons">
	</g>
</g>
<g id="Invisible_Shape">
	<rect fill="none" width="24" height="24"/>
</g>
</svg>
