<?xml version="1.0" encoding="utf-8"?>
<!-- Generator: Adobe Illustrator 19.2.1, SVG Export Plug-In . SVG Version: 6.00 Build 0)  -->
<svg version="1.1" xmlns="http://www.w3.org/2000/svg" xmlns:xlink="http://www.w3.org/1999/xlink" x="0px" y="0px" width="24px"
	 height="24px" viewBox="0 0 24 24" enable-background="new 0 0 24 24" xml:space="preserve">
<g id="Filled_Icons_1_">
	<g id="Filled_Icons">
		<g>
			<path d="M14.431,14.211c-0.066-0.114-0.176-0.198-0.304-0.232c-0.129-0.035-0.265-0.018-0.379,0.051
				c-1.066,0.617-2.431,0.615-3.497,0c-0.114-0.068-0.252-0.086-0.379-0.051c-0.128,0.034-0.237,0.118-0.304,0.232l-3.751,6.496
				C5.68,20.946,5.762,21.252,6,21.391C7.819,22.443,9.894,23,12,23s4.18-0.557,6-1.609c0.238-0.139,0.32-0.444,0.182-0.684
				L14.431,14.211z"/>
			<path d="M17.999,0.609c-0.249-0.144-0.549-0.049-0.684,0.183l-3.751,6.497c-0.138,0.238-0.056,0.544,0.184,0.682
				C14.714,8.53,15.5,10.113,15.5,11.5c0,0.276,0.224,0.5,0.5,0.5h7.5c0.275,0,0.5-0.224,0.5-0.5
				C24,7.062,21.588,2.685,17.999,0.609z"/>
			<path d="M8.5,11.5c0-1.387,0.785-2.971,1.751-3.529c0.239-0.138,0.321-0.443,0.183-0.682l-3.75-6.497
				C6.548,0.559,6.245,0.467,6,0.609C2.411,2.685,0,7.062,0,11.5C0,11.776,0.224,12,0.5,12H8C8.275,12,8.5,11.776,8.5,11.5z"/>
			<path d="M9.5,11c0,1.379,1.121,2.5,2.5,2.5c1.378,0,2.5-1.121,2.5-2.5c0-1.356-1.144-2.5-2.5-2.5S9.5,9.644,9.5,11z"/>
		</g>
	</g>
	<g id="New_icons">
	</g>
</g>
<g id="Invisible_Shape">
	<rect fill="none" width="24" height="24"/>
</g>
</svg>
