<?xml version="1.0" encoding="utf-8"?>
<!-- Generator: Adobe Illustrator 19.2.1, SVG Export Plug-In . SVG Version: 6.00 Build 0)  -->
<svg version="1.1" xmlns="http://www.w3.org/2000/svg" xmlns:xlink="http://www.w3.org/1999/xlink" x="0px" y="0px" width="24px"
	 height="24px" viewBox="0 0 24 24" enable-background="new 0 0 24 24" xml:space="preserve">
<g id="Filled_Icons_1_">
	<g id="Filled_Icons">
		<path d="M12,0C5.383,0,0,5.383,0,12s5.383,12,12,12s12-5.383,12-12S18.617,0,12,0z M12,11c0.552,0,1,0.448,1,1s-0.448,1-1,1
			s-1-0.448-1-1S11.448,11,12,11z M3.5,13C3.224,13,3,12.776,3,12.5c0-3.293,1.894-6.778,4.504-8.288
			c0.232-0.138,0.543-0.061,0.683,0.183l3.001,5.199c0.139,0.239,0.057,0.544-0.182,0.683C10.461,10.593,10,11.61,10,12.5
			c0,0.276-0.224,0.5-0.5,0.5H3.5z M16.497,19.788c-2.794,1.617-6.206,1.613-8.994,0c-0.239-0.138-0.321-0.443-0.183-0.683
			l3.002-5.2c0.142-0.245,0.448-0.316,0.684-0.183c0.633,0.369,1.355,0.369,1.988,0c0.247-0.141,0.548-0.053,0.684,0.183l3.002,5.2
			C16.818,19.345,16.736,19.65,16.497,19.788z M20.5,13h-6c-0.276,0-0.5-0.224-0.5-0.5c0-0.89-0.461-1.907-1.006-2.224
			c-0.238-0.139-0.32-0.443-0.182-0.683l3.001-5.199c0.14-0.243,0.45-0.32,0.683-0.183C19.106,5.722,21,9.207,21,12.5
			C21,12.776,20.776,13,20.5,13z"/>
	</g>
	<g id="New_icons">
	</g>
</g>
<g id="Invisible_Shape">
	<rect fill="none" width="24" height="24"/>
</g>
</svg>
