<?xml version="1.0" encoding="utf-8"?>
<!-- Generator: Adobe Illustrator 19.2.1, SVG Export Plug-In . SVG Version: 6.00 Build 0)  -->
<svg version="1.1" xmlns="http://www.w3.org/2000/svg" xmlns:xlink="http://www.w3.org/1999/xlink" x="0px" y="0px" width="24px"
	 height="24px" viewBox="0 0 24 24" enable-background="new 0 0 24 24" xml:space="preserve">
<g id="Filled_Icons_1_">
	<g id="Filled_Icons">
		<path d="M22.854,12.15l-11-11c-0.195-0.195-0.512-0.195-0.707,0l-11,11c-0.195,0.195-0.195,0.512,0,0.707l11.006,11
			c0.194,0.19,0.501,0.19,0.695,0l11.006-11C23.049,12.662,23.049,12.346,22.854,12.15z M10.999,7.004
			c0.001-0.276,0.225-0.5,0.501-0.5c0.275,0,0.5,0.224,0.499,0.5v8c0.001,0.276-0.224,0.5-0.499,0.5c-0.276,0-0.5-0.224-0.501-0.5
			V7.004z M11.5,19.504c-0.553,0-1-0.447-1-1c0-0.552,0.447-1,1-1c0.551,0,1,0.448,1,1C12.5,19.057,12.051,19.504,11.5,19.504z"/>
	</g>
	<g id="New_icons">
	</g>
</g>
<g id="Invisible_Shape">
	<rect fill="none" width="24" height="24"/>
</g>
</svg>
