<?xml version="1.0" encoding="utf-8"?>
<!-- Generator: Adobe Illustrator 19.2.1, SVG Export Plug-In . SVG Version: 6.00 Build 0)  -->
<svg version="1.1" xmlns="http://www.w3.org/2000/svg" xmlns:xlink="http://www.w3.org/1999/xlink" x="0px" y="0px" width="24px"
	 height="24px" viewBox="0 0 24 24" enable-background="new 0 0 24 24" xml:space="preserve">
<g id="Filled_Icons_1_">
	<g id="Filled_Icons">
		<path d="M23.854,6.977l-6.802-6.831C16.959,0.053,16.831,0,16.698,0H7.244C7.11,0,6.982,0.054,6.889,0.149L0.145,6.98
			C0.052,7.073,0,7.2,0,7.331v9.453c0,0.133,0.053,0.26,0.147,0.354l6.744,6.716C6.985,23.948,7.112,24,7.244,24h9.454
			c0.132,0,0.258-0.052,0.352-0.144l6.802-6.716C23.946,17.046,24,16.918,24,16.784V7.331C24,7.199,23.947,7.072,23.854,6.977z
			 M18.678,10.804c-1.508,2.832-1.896,3.3-1.896,4.485c0,2.304-0.645,4.199-3.074,4.199c-0.482,0-1.953,0-2.39,0
			c-0.841,0-1.644-0.345-2.224-0.951l-3.591-4.781c-1-0.916,0.385-2.426,1.384-1.512l2.04,1.781L7.822,6.386
			C7.703,5.833,8.055,5.288,8.607,5.168C9.161,5.05,9.706,5.401,9.825,5.955l1.15,5.341V4.804c0-0.565,0.458-1.024,1.024-1.024
			c0.565,0,1.024,0.459,1.024,1.024v6.488l1.15-5.09c0.119-0.553,0.663-0.904,1.217-0.786c0.554,0.12,0.905,0.665,0.786,1.218
			l-1.104,6.024l1.858-2.926c0.297-0.482,0.928-0.634,1.409-0.337C18.823,9.691,18.975,10.322,18.678,10.804z"/>
	</g>
	<g id="New_icons">
	</g>
</g>
<g id="Invisible_Shape">
	<rect fill="none" width="24" height="24"/>
</g>
</svg>
