<?xml version="1.0" encoding="utf-8"?>
<!-- Generator: Adobe Illustrator 19.2.1, SVG Export Plug-In . SVG Version: 6.00 Build 0)  -->
<svg version="1.1" xmlns="http://www.w3.org/2000/svg" xmlns:xlink="http://www.w3.org/1999/xlink" x="0px" y="0px" width="24px"
	 height="24px" viewBox="0 0 24 24" enable-background="new 0 0 24 24" xml:space="preserve">
<g id="Filled_Icons_1_">
	<g id="Filled_Icons">
		<path d="M23,11.024c0-0.552-0.447-1-1-1s-1,0.448-1,1v3.334l-5.251-6.016c-0.359-0.407-0.974-0.453-1.391-0.106l-5.256,4.38
			L1.746,4.339C1.379,3.927,0.747,3.89,0.335,4.257c-0.413,0.367-0.45,0.999-0.083,1.412l8,9c0.358,0.403,0.972,0.448,1.388,0.103
			l5.253-4.377l4.828,5.609h-4.722c-0.553,0-1,0.448-1,1s0.447,1,1,1H22c0.543,0,0.98-0.463,0.994-0.97
			c0-0.011,0.006-0.02,0.006-0.03V11.024z"/>
	</g>
	<g id="New_icons">
	</g>
</g>
<g id="Invisible_Shape">
	<rect fill="none" width="24" height="24"/>
</g>
</svg>
