<?xml version="1.0" encoding="utf-8"?>
<!-- Generator: Adobe Illustrator 19.2.1, SVG Export Plug-In . SVG Version: 6.00 Build 0)  -->
<svg version="1.1" xmlns="http://www.w3.org/2000/svg" xmlns:xlink="http://www.w3.org/1999/xlink" x="0px" y="0px" width="24px"
	 height="24px" viewBox="0 0 24 24" enable-background="new 0 0 24 24" xml:space="preserve">
<g id="Filled_Icons_1_">
	<g id="Filled_Icons">
		<path d="M22.994,7.005c-0.015-0.58-0.535-0.97-0.994-0.97h-6.97c-0.553,0-1,0.448-1,1c0,0.552,0.447,1,1,1h4.722l-4.859,5.578
			L9.64,9.236C9.224,8.891,8.611,8.936,8.252,9.339l-7.999,8.997c-0.367,0.413-0.33,1.045,0.083,1.413
			c0.412,0.366,1.041,0.329,1.408-0.081l7.358-8.275l5.256,4.379c0.416,0.347,1.032,0.302,1.391-0.105L21,9.68v3.334
			c0,0.553,0.447,1,1,1s1-0.447,1-1V7.035C23,7.024,22.994,7.016,22.994,7.005z"/>
	</g>
	<g id="New_icons">
	</g>
</g>
<g id="Invisible_Shape">
	<rect fill="none" width="24" height="24"/>
</g>
</svg>
