<?xml version="1.0" encoding="utf-8"?>
<!-- Generator: Adobe Illustrator 16.0.3, SVG Export Plug-In . SVG Version: 6.00 Build 0)  -->
<!DOCTYPE svg PUBLIC "-//W3C//DTD SVG 1.1//EN" "http://www.w3.org/Graphics/SVG/1.1/DTD/svg11.dtd">
<svg version="1.1" xmlns="http://www.w3.org/2000/svg" xmlns:xlink="http://www.w3.org/1999/xlink" x="0px" y="0px" width="24px"
	 height="24px" viewBox="0 0 24 24" enable-background="new 0 0 24 24" xml:space="preserve">
<g id="Outline_Icons">
	<g>
		<path fill="none" stroke="#000000" stroke-linejoin="round" stroke-miterlimit="10" d="M12,13.913
			c0.881,0,0.294,0.587,2.055,0.587s3.521-3.521,3.521-5.869c0-2.349-1.468-4.109-3.229-4.109S12.587,5.108,12,5.108
			S10.848,4.5,9.5,4.5c0,4.5-3.076,4.13-3.076,4.13c0,2.349,1.761,5.87,3.521,5.87C11.707,14.5,11.119,13.913,12,13.913z"/>
		<path fill="none" stroke="#000000" stroke-linecap="round" stroke-linejoin="round" stroke-miterlimit="10" d="M12,5.108V3.674
			C12,3.028,11.472,2.5,10.826,2.5H9.652"/>
		<path fill="none" stroke="#000000" stroke-linejoin="round" stroke-miterlimit="10" d="M13.358,3.142
			C14.817,3.142,16,1.959,16,0.5C14.541,0.5,13.358,1.684,13.358,3.142z"/>
		<path fill="none" stroke="#000000" stroke-linecap="round" stroke-linejoin="round" stroke-miterlimit="10" d="M0.5,22.5h5
			c1.104,0,2-0.896,2-2v-2c0-1.104-0.896-2-2-2h-5"/>
		<path fill="none" stroke="#000000" stroke-linejoin="round" stroke-miterlimit="10" d="M5.5,22.5H22c1.104,0,1.5-0.896,1.5-2v-2
			c0-1.104-0.396-2-1.5-2H5.5"/>
		<line fill="none" stroke="#000000" stroke-linejoin="round" stroke-miterlimit="10" x1="19.5" y1="16.5" x2="19.5" y2="22.5"/>
		<line fill="none" stroke="#000000" stroke-linejoin="round" stroke-miterlimit="10" x1="17.5" y1="16.5" x2="17.5" y2="22.5"/>
		<line fill="none" stroke="#000000" stroke-linejoin="round" stroke-miterlimit="10" x1="13.5" y1="16.5" x2="13.5" y2="22.5"/>
		<line fill="none" stroke="#000000" stroke-linejoin="round" stroke-miterlimit="10" x1="11.5" y1="16.5" x2="11.5" y2="22.5"/>
		
			<line fill="none" stroke="#000000" stroke-linecap="round" stroke-linejoin="round" stroke-miterlimit="10" x1="5.5" y1="20.5" x2="1.5" y2="20.5"/>
		
			<line fill="none" stroke="#000000" stroke-linecap="round" stroke-linejoin="round" stroke-miterlimit="10" x1="5.5" y1="18.5" x2="1.5" y2="18.5"/>
	</g>
</g>
<g id="invisible_shape">
	<rect fill="none" width="24" height="24"/>
</g>
</svg>
