<?xml version="1.0" encoding="utf-8"?>
<!-- Generator: Adobe Illustrator 16.0.3, SVG Export Plug-In . SVG Version: 6.00 Build 0)  -->
<!DOCTYPE svg PUBLIC "-//W3C//DTD SVG 1.1//EN" "http://www.w3.org/Graphics/SVG/1.1/DTD/svg11.dtd">
<svg version="1.1" xmlns="http://www.w3.org/2000/svg" xmlns:xlink="http://www.w3.org/1999/xlink" x="0px" y="0px" width="24px"
	 height="24px" viewBox="0 0 24 24" enable-background="new 0 0 24 24" xml:space="preserve">
<g id="Outline_Icons">
	<g>
		<g>
			<path fill="none" stroke="#000000" stroke-linejoin="round" stroke-miterlimit="10" d="M23.5,17.5c0,0.553-0.447,1-1,1h-21
				c-0.551,0-1-0.447-1-1v-15c0-0.553,0.449-1,1-1h21c0.553,0,1,0.447,1,1V17.5z"/>
			
				<line fill="none" stroke="#000000" stroke-linecap="round" stroke-linejoin="round" stroke-miterlimit="10" x1="7" y1="21.5" x2="17" y2="21.5"/>
			<line fill="none" stroke="#000000" stroke-linejoin="round" stroke-miterlimit="10" x1="10.5" y1="18.5" x2="10.5" y2="21.5"/>
			<line fill="none" stroke="#000000" stroke-linejoin="round" stroke-miterlimit="10" x1="13.5" y1="18.5" x2="13.5" y2="21.5"/>
		</g>
		<polygon fill="none" stroke="#000000" stroke-linecap="round" stroke-linejoin="round" stroke-miterlimit="10" points="12.5,11 
			19.5,8 12.5,5 5.5,8 		"/>
		<polyline fill="none" stroke="#000000" stroke-linecap="round" stroke-linejoin="round" stroke-miterlimit="10" points="8.5,9.5 
			8.5,13 12.5,15 16.5,13 16.5,9.5 		"/>
		
			<line fill="none" stroke="#000000" stroke-linecap="round" stroke-linejoin="round" stroke-miterlimit="10" x1="5.5" y1="8" x2="5.5" y2="11.5"/>
		<polyline fill="none" stroke="#000000" stroke-linecap="round" stroke-linejoin="round" stroke-miterlimit="10" points="5.5,11.5 
			4.5,14.5 6.5,14.5 5.5,11.5 		"/>
	</g>
</g>
<g id="invisible_shape">
	<rect fill="none" width="24" height="24"/>
</g>
</svg>
