<?xml version="1.0" encoding="utf-8"?>
<!-- Generator: Adobe Illustrator 16.0.3, SVG Export Plug-In . SVG Version: 6.00 Build 0)  -->
<!DOCTYPE svg PUBLIC "-//W3C//DTD SVG 1.1//EN" "http://www.w3.org/Graphics/SVG/1.1/DTD/svg11.dtd">
<svg version="1.1" xmlns="http://www.w3.org/2000/svg" xmlns:xlink="http://www.w3.org/1999/xlink" x="0px" y="0px" width="24px"
	 height="24px" viewBox="0 0 24 24" enable-background="new 0 0 24 24" xml:space="preserve">
<g id="Outline_Icons">
	<g>
		<circle fill="none" stroke="#000000" stroke-miterlimit="10" cx="12" cy="12" r="11.5"/>
		<line fill="none" stroke="#000000" stroke-linejoin="round" stroke-miterlimit="10" x1="12" y1="3.5" x2="12" y2="8.87"/>
		<path fill="none" stroke="#000000" stroke-linejoin="round" stroke-miterlimit="10" d="M14.845,13.902l4.137,1.949
			C16.995,17.215,14.591,18,12,18c-2.592,0-4.995-0.784-6.981-2.148l4.137-1.949"/>
		<path fill="none" stroke="#000000" stroke-linejoin="round" stroke-miterlimit="10" d="M18.981,15.852
			c0-5.257-2.794-9.809-6.981-12.352c-4.186,2.543-6.981,7.097-6.981,12.352"/>
		<path fill="none" stroke="#000000" stroke-linejoin="round" stroke-miterlimit="10" d="M9.155,13.902
			c0-2.141,1.14-3.996,2.845-5.032c1.706,1.036,2.845,2.891,2.845,5.032c-0.81,0.556-1.789,0.875-2.845,0.875
			S9.965,14.458,9.155,13.902z"/>
	</g>
</g>
<g id="invisible_shape">
	<rect fill="none" width="24" height="24"/>
</g>
</svg>
