<?xml version="1.0" encoding="utf-8"?>
<!-- Generator: Adobe Illustrator 16.0.3, SVG Export Plug-In . SVG Version: 6.00 Build 0)  -->
<!DOCTYPE svg PUBLIC "-//W3C//DTD SVG 1.1//EN" "http://www.w3.org/Graphics/SVG/1.1/DTD/svg11.dtd">
<svg version="1.1" xmlns="http://www.w3.org/2000/svg" xmlns:xlink="http://www.w3.org/1999/xlink" x="0px" y="0px" width="24px"
	 height="24px" viewBox="0 0 24 24" enable-background="new 0 0 24 24" xml:space="preserve">
<g id="Outline_Icons">
	<g>
		<path fill="none" stroke="#000000" stroke-linecap="round" stroke-linejoin="round" stroke-miterlimit="10" d="M19.5,9
			c0,0.828-0.672,1.5-1.5,1.5H6c-0.828,0-1.5-0.672-1.5-1.5V3c0-0.828,0.672-1.5,1.5-1.5h12c0.828,0,1.5,0.672,1.5,1.5V9z"/>
		
			<circle fill="none" stroke="#000000" stroke-linecap="round" stroke-linejoin="round" stroke-miterlimit="10" cx="8" cy="6" r="1.5"/>
		
			<circle fill="none" stroke="#000000" stroke-linecap="round" stroke-linejoin="round" stroke-miterlimit="10" cx="16" cy="6" r="1.5"/>
		
			<line fill="none" stroke="#000000" stroke-linecap="round" stroke-linejoin="round" stroke-miterlimit="10" x1="10.5" y1="12.5" x2="13.5" y2="12.5"/>
		
			<line fill="none" stroke="#000000" stroke-linecap="round" stroke-linejoin="round" stroke-miterlimit="10" x1="10.5" y1="14.5" x2="13.5" y2="14.5"/>
		<polygon fill="none" stroke="#000000" stroke-linecap="round" stroke-linejoin="round" stroke-miterlimit="10" points="19.5,16.5 
			4.5,16.5 6,23.5 18,23.5 		"/>
		<polyline fill="none" stroke="#000000" stroke-linejoin="round" stroke-miterlimit="10" points="19,19.5 22.5,16.75 22,14.5 		"/>
		<path fill="none" stroke="#000000" stroke-linecap="round" stroke-linejoin="round" stroke-miterlimit="10" d="M22.999,10.498
			C23.313,10.916,23.5,11.437,23.5,12c0,1.381-1.119,2.5-2.5,2.5c-0.817,0-1.543-0.392-1.999-0.998"/>
		<polyline fill="none" stroke="#000000" stroke-linejoin="round" stroke-miterlimit="10" points="5,19.5 1.5,16.75 2,14.5 		"/>
		<path fill="none" stroke="#000000" stroke-linecap="round" stroke-linejoin="round" stroke-miterlimit="10" d="M1.001,10.498
			C0.687,10.916,0.5,11.437,0.5,12c0,1.381,1.119,2.5,2.5,2.5c0.817,0,1.543-0.392,1.999-0.998"/>
		<rect x="8.5" y="19.5" fill="none" stroke="#000000" stroke-linejoin="round" stroke-miterlimit="10" width="7" height="4"/>
	</g>
</g>
<g id="invisible_shape">
	<rect fill="none" width="24" height="24"/>
</g>
</svg>
