<?xml version="1.0" encoding="utf-8"?>
<!-- Generator: Adobe Illustrator 16.0.3, SVG Export Plug-In . SVG Version: 6.00 Build 0)  -->
<!DOCTYPE svg PUBLIC "-//W3C//DTD SVG 1.1//EN" "http://www.w3.org/Graphics/SVG/1.1/DTD/svg11.dtd">
<svg version="1.1" xmlns="http://www.w3.org/2000/svg" xmlns:xlink="http://www.w3.org/1999/xlink" x="0px" y="0px" width="24px"
	 height="24px" viewBox="0 0 24 24" enable-background="new 0 0 24 24" xml:space="preserve">
<g id="Outline_Icons">
	<g>
		<path fill="none" stroke="#000000" stroke-linecap="round" stroke-linejoin="round" stroke-miterlimit="10" d="M11.5,16.5h-3
			c-1.587,0-2.872-0.736-2.979-2.296C4.319,15.307,0.5,12.999,0.5,9.5s3.22-5.835,4.508-5.079C5.052,2.802,6.37,1.5,8,1.5
			c0.901,0,1.7,0.405,2.25,1.034C10.8,1.905,11.599,1.5,12.5,1.5c1.292,0,2.384,0.821,2.806,1.967C15.854,2.876,16.631,2.5,17.5,2.5
			c1.656,0,3,1.343,3,3c1.656,0,3,1.343,3,3c0,0.901-0.405,1.7-1.035,2.25c0.823,0.719,1.264,1.864,0.914,3.107
			c-0.254,0.906-0.968,1.654-1.856,1.965c-0.962,0.335-1.862,0.169-2.578-0.269c-0.23,1.229-1.208,2.188-2.444,2.396V22.5h-3v-4.535
			c0-1.913,1.552-3.465,3.465-3.465H17"/>
		<path fill="none" stroke="#000000" stroke-linecap="round" stroke-linejoin="round" stroke-miterlimit="10" d="M13.522,18.585
			C13.076,18.849,12.556,19,12,19c-2.5,0-3.583-1.344-4-2.5"/>
		<path fill="none" stroke="#000000" stroke-linecap="round" stroke-linejoin="round" stroke-miterlimit="10" d="M22.5,11
			c0,0-4,1.5-6.5-1"/>
		<path fill="none" stroke="#000000" stroke-linecap="round" stroke-linejoin="round" stroke-miterlimit="10" d="M1,7.541
			c0,0,4.5-0.5,5.5,2"/>
		<path fill="none" stroke="#000000" stroke-linecap="round" stroke-linejoin="round" stroke-miterlimit="10" d="M10.5,2.5V5
			c0,0.828,0.672,1.5,1.5,1.5s1.5-0.672,1.5-1.5"/>
		<path fill="none" stroke="#000000" stroke-linecap="round" stroke-linejoin="round" stroke-miterlimit="10" d="M10.5,2.5V5
			c0,0.828-0.672,1.5-1.5,1.5S7.5,5.828,7.5,5"/>
		<path fill="none" stroke="#000000" stroke-linecap="round" stroke-linejoin="round" stroke-miterlimit="10" d="M9,16.5
			c0,0-0.5-4.5,2.5-5.5"/>
		<path fill="none" stroke="#000000" stroke-linecap="round" stroke-linejoin="round" stroke-miterlimit="10" d="M19.5,11
			c0,0,1-2,0-3.5"/>
	</g>
</g>
<g id="invisible_shape">
	<rect fill="none" width="24" height="24"/>
</g>
</svg>
