<?xml version="1.0" encoding="utf-8"?>
<!-- Generator: Adobe Illustrator 19.2.1, SVG Export Plug-In . SVG Version: 6.00 Build 0)  -->
<svg version="1.1" xmlns="http://www.w3.org/2000/svg" xmlns:xlink="http://www.w3.org/1999/xlink" x="0px" y="0px" width="24px"
	 height="24px" viewBox="0 0 24 24" enable-background="new 0 0 24 24" xml:space="preserve">
<g id="Filled_Icons">
	<g>
		<path d="M19.854,6.147l-6-6C13.76,0.053,13.633,0,13.5,0h-13C0.225,0,0,0.224,0,0.5v23C0,23.776,0.225,24,0.5,24h19
			c0.275,0,0.5-0.224,0.5-0.5v-17C20,6.367,19.947,6.24,19.854,6.147z M10,21c-3.309,0-6-2.691-6-6s2.691-6,6-6s6,2.691,6,6
			S13.309,21,10,21z M13,7V1l6,6H13z"/>
		<g>
			<path d="M8.5,13h-2C6.224,13,6,13.224,6,13.5S6.224,14,6.5,14H7v3.5C7,17.776,7.224,18,7.5,18S8,17.776,8,17.5V14h0.5
				C8.776,14,9,13.776,9,13.5S8.776,13,8.5,13z"/>
			<path d="M13.1,13.2L12,14.667L10.9,13.2c-0.286-0.381-0.9-0.183-0.9,0.3v4c0,0.276,0.224,0.5,0.5,0.5s0.5-0.224,0.5-0.5V15
				l0.6,0.8c0.189,0.252,0.611,0.252,0.801,0L13,15v2.5c0,0.276,0.224,0.5,0.5,0.5s0.5-0.224,0.5-0.5v-4
				C14,13.015,13.384,12.824,13.1,13.2z"/>
		</g>
	</g>
</g>
<g id="Invisible_Shape">
	<rect fill="none" width="24" height="24"/>
</g>
</svg>
