<?xml version="1.0" encoding="utf-8"?>
<!-- Generator: Adobe Illustrator 19.2.1, SVG Export Plug-In . SVG Version: 6.00 Build 0)  -->
<svg version="1.1" xmlns="http://www.w3.org/2000/svg" xmlns:xlink="http://www.w3.org/1999/xlink" x="0px" y="0px" width="24px"
	 height="24px" viewBox="0 0 24 24" enable-background="new 0 0 24 24" xml:space="preserve">
<g id="Filled_Icons">
	<g>
		<path d="M19.854,6.147l-6-6C13.76,0.053,13.633,0,13.5,0h-13C0.225,0,0,0.224,0,0.5v23C0,23.776,0.225,24,0.5,24h19
			c0.275,0,0.5-0.224,0.5-0.5v-17C20,6.367,19.947,6.24,19.854,6.147z M10,21c-3.309,0-6-2.691-6-6s2.691-6,6-6s6,2.691,6,6
			S13.309,21,10,21z M13,7V1l6,6H13z"/>
		<path d="M11.508,14.3C11.811,13.949,12,13.498,12,13c0-1.102-0.898-2-2-2s-2,0.898-2,2c0,0.498,0.189,0.949,0.492,1.3
			C7.18,14.875,6.5,16.193,6.5,17.5C6.5,17.776,6.724,18,7,18h6c0.276,0,0.5-0.224,0.5-0.5C13.5,16.193,12.82,14.875,11.508,14.3z"
			/>
	</g>
</g>
<g id="Invisible_Shape">
	<rect fill="none" width="24" height="24"/>
</g>
</svg>
