<?xml version="1.0" encoding="utf-8"?>
<!-- Generator: Adobe Illustrator 19.2.1, SVG Export Plug-In . SVG Version: 6.00 Build 0)  -->
<svg version="1.1" xmlns="http://www.w3.org/2000/svg" xmlns:xlink="http://www.w3.org/1999/xlink" x="0px" y="0px" width="24px"
	 height="24px" viewBox="0 0 24 24" enable-background="new 0 0 24 24" xml:space="preserve">
<g id="Filled_Icons">
	<g>
		<path d="M19.854,6.147l-6-6C13.76,0.053,13.633,0,13.5,0h-13C0.225,0,0,0.224,0,0.5v23C0,23.776,0.225,24,0.5,24h19
			c0.275,0,0.5-0.224,0.5-0.5v-17C20,6.367,19.947,6.24,19.854,6.147z M10,21c-3.309,0-6-2.691-6-6s2.691-6,6-6s6,2.691,6,6
			S13.309,21,10,21z M13,7V1l6,6H13z"/>
		<path d="M10.46,15.383c0.669-0.231,1.04-0.798,1.04-1.633c0-1.112-0.658-1.75-1.805-1.75H8.5C8.224,12,8,12.224,8,12.5v5
			C8,17.776,8.224,18,8.5,18S9,17.776,9,17.5v-2h0.393l1.164,2.231c0.124,0.239,0.422,0.342,0.675,0.212
			c0.245-0.128,0.34-0.43,0.212-0.675L10.46,15.383z M9,13h0.695c0.677,0,0.805,0.264,0.805,0.75s-0.128,0.75-0.805,0.75H9V13z"/>
	</g>
</g>
<g id="Invisible_Shape">
	<rect fill="none" width="24" height="24"/>
</g>
</svg>
