<?xml version="1.0" encoding="utf-8"?>
<!-- Generator: Adobe Illustrator 19.2.1, SVG Export Plug-In . SVG Version: 6.00 Build 0)  -->
<svg version="1.1" xmlns="http://www.w3.org/2000/svg" xmlns:xlink="http://www.w3.org/1999/xlink" x="0px" y="0px" width="24px"
	 height="24px" viewBox="0 0 24 24" enable-background="new 0 0 24 24" xml:space="preserve">
<g id="Filled_Icons">
	<g>
		<path d="M8.279,13.684c0.342,0,0.531,0.132,0.654,0.455c0.098,0.258,0.388,0.386,0.644,0.289c0.259-0.099,0.388-0.388,0.289-0.646
			c-0.269-0.707-0.834-1.098-1.588-1.098c-0.535,0-1.779,0.226-1.779,2.317c0,2.091,1.244,2.316,1.779,2.316
			c0.753,0,1.316-0.388,1.586-1.093c0.099-0.258-0.03-0.547-0.288-0.646c-0.256-0.099-0.546,0.03-0.646,0.288
			c-0.123,0.319-0.311,0.45-0.652,0.45c-0.233,0-0.779,0-0.779-1.316C7.5,13.684,8.046,13.684,8.279,13.684z"/>
		<path d="M11.879,13.684c0.343,0,0.531,0.131,0.653,0.453c0.098,0.258,0.388,0.389,0.645,0.291
			c0.259-0.098,0.389-0.386,0.291-0.644c-0.269-0.709-0.833-1.1-1.589-1.1c-0.535,0-1.779,0.226-1.779,2.316
			c0,2.092,1.244,2.316,1.779,2.316c0.753,0,1.316-0.387,1.586-1.092c0.099-0.258-0.03-0.547-0.288-0.646
			c-0.256-0.099-0.547,0.03-0.646,0.288c-0.123,0.319-0.312,0.449-0.652,0.449c-0.233,0-0.779,0-0.779-1.316
			S11.646,13.684,11.879,13.684z"/>
		<path d="M19.854,6.147l-6-6C13.76,0.053,13.633,0,13.5,0h-13C0.225,0,0,0.224,0,0.5v23C0,23.776,0.225,24,0.5,24h19
			c0.275,0,0.5-0.224,0.5-0.5v-17C20,6.367,19.947,6.24,19.854,6.147z M10,21c-3.309,0-6-2.691-6-6s2.691-6,6-6s6,2.691,6,6
			S13.309,21,10,21z M13,7V1l6,6H13z"/>
	</g>
</g>
<g id="Invisible_Shape">
	<rect fill="none" width="24" height="24"/>
</g>
</svg>
