<?xml version="1.0" encoding="utf-8"?>
<!-- Generator: Adobe Illustrator 19.2.1, SVG Export Plug-In . SVG Version: 6.00 Build 0)  -->
<svg version="1.1" xmlns="http://www.w3.org/2000/svg" xmlns:xlink="http://www.w3.org/1999/xlink" x="0px" y="0px" width="24px"
	 height="24px" viewBox="0 0 24 24" enable-background="new 0 0 24 24" xml:space="preserve">
<g id="Filled_Icons">
	<g>
		<path d="M19.854,6.147l-6-6C13.76,0.053,13.633,0,13.5,0h-13C0.225,0,0,0.224,0,0.5v23C0,23.776,0.225,24,0.5,24h19
			c0.275,0,0.5-0.224,0.5-0.5v-17C20,6.367,19.947,6.24,19.854,6.147z M10,21c-3.309,0-6-2.691-6-6s2.691-6,6-6s6,2.691,6,6
			S13.309,21,10,21z M13,7V1l6,6H13z"/>
		<g>
			<path d="M10,18c-0.912,0-2-0.521-2-3s1.088-3,2-3c1.391,0,1.766,0.99,1.968,1.521c0.098,0.259-0.032,0.547-0.29,0.646
				c-0.261,0.095-0.547-0.033-0.646-0.29C10.807,13.28,10.631,13,10,13c-0.247,0-1,0-1,2s0.753,2,1,2
				c0.631,0,0.799-0.266,1.03-0.872c0.099-0.258,0.39-0.385,0.646-0.288c0.258,0.099,0.387,0.388,0.288,0.646
				C11.762,17.015,11.386,18,10,18z"/>
		</g>
	</g>
</g>
<g id="Invisible_Shape">
	<rect fill="none" width="24" height="24"/>
</g>
</svg>
