<?xml version="1.0" encoding="utf-8"?>
<!-- Generator: Adobe Illustrator 19.2.1, SVG Export Plug-In . SVG Version: 6.00 Build 0)  -->
<svg version="1.1" xmlns="http://www.w3.org/2000/svg" xmlns:xlink="http://www.w3.org/1999/xlink" x="0px" y="0px" width="24px"
	 height="24px" viewBox="0 0 24 24" enable-background="new 0 0 24 24" xml:space="preserve">
<g id="Filled_Icons_1_">
	<g id="Filled_Icons">
		<g>
			<path d="M20.854,3.148l-3-3.001C17.76,0.053,17.633,0,17.5,0h-5C12.224,0,12,0.224,12,0.5V4h-0.5C11.224,4,11,4.224,11,4.5
				C11,4.776,11.224,5,11.5,5H12v5.5c0,0.276,0.224,0.5,0.5,0.5h8c0.275,0,0.5-0.224,0.5-0.5V3.501
				C21,3.368,20.947,3.241,20.854,3.148z M17,4V1l3,3H17z"/>
			<path d="M17.854,13.147C17.76,13.053,17.633,13,17.5,13h-5c-0.276,0-0.5,0.224-0.5,0.5V19h-0.5c-0.276,0-0.5,0.224-0.5,0.5
				c0,0.276,0.224,0.5,0.5,0.5H12v3.5c0,0.276,0.224,0.5,0.5,0.5h8c0.275,0,0.5-0.224,0.5-0.5v-7c0-0.132-0.053-0.26-0.146-0.353
				L17.854,13.147z M17,17v-3l3,3H17z"/>
			<path d="M2.5,2C2.775,2,3,1.776,3,1.5v-1C3,0.224,2.775,0,2.5,0C2.224,0,2,0.224,2,0.5v1C2,1.776,2.224,2,2.5,2z"/>
			<path d="M2.5,8C2.775,8,3,7.776,3,7.5v-1C3,6.224,2.775,6,2.5,6C2.224,6,2,6.224,2,6.5v1C2,7.776,2.224,8,2.5,8z"/>
			<path d="M3.5,4H3V3.5C3,3.224,2.775,3,2.5,3C2.224,3,2,3.224,2,3.5v1C2,4.776,2.224,5,2.5,5h1C3.775,5,4,4.776,4,4.5
				C4,4.224,3.775,4,3.5,4z"/>
			<path d="M2.5,11C2.775,11,3,10.776,3,10.5v-1C3,9.224,2.775,9,2.5,9C2.224,9,2,9.224,2,9.5v1C2,10.776,2.224,11,2.5,11z"/>
			<path d="M2.5,14C2.775,14,3,13.776,3,13.5v-1C3,12.224,2.775,12,2.5,12C2.224,12,2,12.224,2,12.5v1C2,13.776,2.224,14,2.5,14z"/>
			<path d="M2.5,17C2.775,17,3,16.776,3,16.5v-1C3,15.224,2.775,15,2.5,15C2.224,15,2,15.224,2,15.5v1C2,16.776,2.224,17,2.5,17z"/>
			<path d="M3.5,19H3v-0.5C3,18.224,2.775,18,2.5,18C2.224,18,2,18.224,2,18.5v1C2,19.776,2.224,20,2.5,20h1
				C3.775,20,4,19.776,4,19.5C4,19.224,3.775,19,3.5,19z"/>
			<path d="M6.5,4h-1C5.224,4,5,4.224,5,4.5C5,4.776,5.224,5,5.5,5h1C6.775,5,7,4.776,7,4.5C7,4.224,6.775,4,6.5,4z"/>
			<path d="M9.5,4h-1C8.224,4,8,4.224,8,4.5C8,4.776,8.224,5,8.5,5h1C9.775,5,10,4.776,10,4.5C10,4.224,9.775,4,9.5,4z"/>
			<path d="M6.5,19h-1C5.224,19,5,19.224,5,19.5C5,19.776,5.224,20,5.5,20h1C6.775,20,7,19.776,7,19.5C7,19.224,6.775,19,6.5,19z"/>
			<path d="M9.5,19h-1C8.224,19,8,19.224,8,19.5C8,19.776,8.224,20,8.5,20h1c0.275,0,0.5-0.224,0.5-0.5C10,19.224,9.775,19,9.5,19z"
				/>
		</g>
	</g>
	<g id="New_icons">
	</g>
</g>
<g id="Invisible_Shape">
	<rect fill="none" width="24" height="24"/>
</g>
</svg>
