<?xml version="1.0" encoding="utf-8"?>
<!-- Generator: Adobe Illustrator 19.2.1, SVG Export Plug-In . SVG Version: 6.00 Build 0)  -->
<svg version="1.1" xmlns="http://www.w3.org/2000/svg" xmlns:xlink="http://www.w3.org/1999/xlink" x="0px" y="0px" width="24px"
	 height="24px" viewBox="0 0 24 24" enable-background="new 0 0 24 24" xml:space="preserve">
<g id="Filled_Icons_1_">
	<g id="Filled_Icons">
		<path d="M18.161,15.204L14.63,8.144c1.13-0.818,1.87-2.145,1.87-3.643C16.5,2.019,14.481,0,12,0S7.5,2.019,7.5,4.501
			c0,1.498,0.739,2.824,1.869,3.643L5.84,15.204C2.945,14.297,0,16.478,0,19.5C0,21.981,2.019,24,4.5,24c2.312,0,4.221-1.753,4.47-4
			h6.06c0.25,2.247,2.158,4,4.471,4c2.481,0,4.5-2.019,4.5-4.5C24,16.47,21.045,14.298,18.161,15.204z M15.029,19H8.97
			c-0.161-1.448-1.013-2.688-2.216-3.389l3.484-6.971c1.139,0.486,2.418,0.473,3.522,0l3.485,6.97
			C16.042,16.312,15.19,17.552,15.029,19z"/>
	</g>
	<g id="New_icons">
	</g>
</g>
<g id="Invisible_Shape">
	<rect fill="none" width="24" height="24"/>
</g>
</svg>
