<?xml version="1.0" encoding="utf-8"?>
<!-- Generator: Adobe Illustrator 19.2.1, SVG Export Plug-In . SVG Version: 6.00 Build 0)  -->
<svg version="1.1" xmlns="http://www.w3.org/2000/svg" xmlns:xlink="http://www.w3.org/1999/xlink" x="0px" y="0px" width="24px"
	 height="24px" viewBox="0 0 24 24" enable-background="new 0 0 24 24" xml:space="preserve">
<g id="Filled_Icons_1_">
	<g id="Filled_Icons">
		<path d="M22.016,0.178c-1.559-0.562-3.277,0.246-3.838,1.807C17.674,3.382,18.276,4.9,19.53,5.606l-2.501,6.948
			c-0.887-0.159-1.773,0.094-2.44,0.648l-2.526-2.166c0.822-1.368,0.436-3.151-0.907-4.04C9.773,6.082,7.911,6.462,6.997,7.844
			c-0.858,1.297-0.564,3.009,0.618,3.972l-3.6,6.371c-1.353-0.49-2.897,0.045-3.627,1.339c-0.816,1.442-0.307,3.271,1.137,4.086
			c1.442,0.816,3.273,0.307,4.088-1.136c0.73-1.295,0.391-2.893-0.726-3.797l3.596-6.364c1.001,0.36,2.113,0.156,2.926-0.52
			l2.521,2.161c-0.984,1.646-0.205,3.732,1.555,4.366c1.559,0.562,3.277-0.246,3.838-1.806c0.504-1.398-0.099-2.917-1.353-3.623
			l2.501-6.948c1.415,0.256,2.848-0.53,3.352-1.929C24.384,2.457,23.575,0.739,22.016,0.178z"/>
	</g>
	<g id="New_icons">
	</g>
</g>
<g id="Invisible_Shape">
	<rect fill="none" width="24" height="24"/>
</g>
</svg>
