<?xml version="1.0" encoding="utf-8"?>
<!-- Generator: Adobe Illustrator 19.2.1, SVG Export Plug-In . SVG Version: 6.00 Build 0)  -->
<svg version="1.1" xmlns="http://www.w3.org/2000/svg" xmlns:xlink="http://www.w3.org/1999/xlink" x="0px" y="0px" width="24px"
	 height="24px" viewBox="0 0 24 24" enable-background="new 0 0 24 24" xml:space="preserve">
<g id="Filled_Icons_1_">
	<g id="Filled_Icons">
		<path d="M23.5,18h-2.025c-0.257-3.351-3.06-6-6.475-6h-3V6h2.5C14.776,6,15,5.776,15,5.5v-5C15,0.224,14.776,0,14.5,0h-5
			C9.224,0,9,0.224,9,0.5v5C9,5.776,9.224,6,9.5,6H11v6H9c-3.415,0-6.218,2.649-6.475,6H0.5C0.224,18,0,18.224,0,18.5v5
			C0,23.776,0.224,24,0.5,24h5C5.776,24,6,23.776,6,23.5v-5C6,18.224,5.776,18,5.5,18H3.525C3.779,15.201,6.137,13,9,13h2v5H9.5
			C9.224,18,9,18.224,9,18.5v5C9,23.776,9.224,24,9.5,24h5c0.276,0,0.5-0.224,0.5-0.5v-5c0-0.276-0.224-0.5-0.5-0.5H12v-5h3
			c2.863,0,5.221,2.201,5.475,5H18.5c-0.276,0-0.5,0.224-0.5,0.5v5c0,0.276,0.224,0.5,0.5,0.5h5c0.276,0,0.5-0.224,0.5-0.5v-5
			C24,18.224,23.776,18,23.5,18z"/>
	</g>
	<g id="New_icons">
	</g>
</g>
<g id="Invisible_Shape">
	<rect fill="none" width="24" height="24"/>
</g>
</svg>
