<?xml version="1.0" encoding="utf-8"?>
<!-- Generator: Adobe Illustrator 19.2.1, SVG Export Plug-In . SVG Version: 6.00 Build 0)  -->
<svg version="1.1" xmlns="http://www.w3.org/2000/svg" xmlns:xlink="http://www.w3.org/1999/xlink" x="0px" y="0px" width="24px"
	 height="24px" viewBox="0 0 24 24" enable-background="new 0 0 24 24" xml:space="preserve">
<g id="Filled_Icons_1_">
	<g id="Filled_Icons">
		<path d="M20.478,18.048C20.243,14.675,17.432,12,14,12h-2V5.949C13.416,5.71,14.5,4.483,14.5,3c0-1.654-1.346-3-3-3s-3,1.346-3,3
			c0,1.483,1.084,2.71,2.5,2.949V12H9c-3.432,0-6.243,2.675-6.477,6.048C1.096,18.278,0,19.509,0,21c0,1.654,1.346,3,3,3
			s3-1.346,3-3c0-1.476-1.072-2.698-2.477-2.947C3.752,15.23,6.119,13,9,13h2v5.051C9.584,18.29,8.5,19.517,8.5,21
			c0,1.654,1.346,3,3,3s3-1.346,3-3c0-1.483-1.084-2.71-2.5-2.949V13h2c2.881,0,5.248,2.23,5.478,5.053
			C18.072,18.302,17,19.524,17,21c0,1.654,1.346,3,3,3s3-1.346,3-3C23,19.509,21.904,18.278,20.478,18.048z"/>
	</g>
	<g id="New_icons">
	</g>
</g>
<g id="Invisible_Shape">
	<rect fill="none" width="24" height="24"/>
</g>
</svg>
