<?xml version="1.0" encoding="utf-8"?>
<!-- Generator: Adobe Illustrator 19.2.1, SVG Export Plug-In . SVG Version: 6.00 Build 0)  -->
<svg version="1.1" xmlns="http://www.w3.org/2000/svg" xmlns:xlink="http://www.w3.org/1999/xlink" x="0px" y="0px" width="24px"
	 height="24px" viewBox="0 0 24 24" enable-background="new 0 0 24 24" xml:space="preserve">
<g id="Filled_Icons_1_">
	<g id="Filled_Icons">
		<path d="M23.5,14H21v-2.5c0-0.276-0.225-0.5-0.5-0.5H14v-1h3.5c0.275,0,0.5-0.224,0.5-0.5v-9C18,0.224,17.775,0,17.5,0h-9
			C8.224,0,8,0.224,8,0.5v9C8,9.776,8.224,10,8.5,10H13v1H3.5C3.224,11,3,11.224,3,11.5V14H0.5C0.224,14,0,14.224,0,14.5v9
			C0,23.776,0.224,24,0.5,24h9c0.275,0,0.5-0.224,0.5-0.5v-9c0-0.276-0.225-0.5-0.5-0.5H4v-2h16v2h-5.5c-0.276,0-0.5,0.224-0.5,0.5
			v9c0,0.276,0.224,0.5,0.5,0.5h9c0.275,0,0.5-0.224,0.5-0.5v-9C24,14.224,23.775,14,23.5,14z M7.5,16C7.775,16,8,16.224,8,16.5
			C8,16.776,7.775,17,7.5,17h-5C2.224,17,2,16.776,2,16.5C2,16.224,2.224,16,2.5,16H7.5z M10.5,3C10.224,3.001,10,2.776,10,2.501
			c0-0.276,0.224-0.5,0.5-0.501h5C15.775,2.001,16,2.225,16,2.501c0,0.275-0.225,0.5-0.5,0.499H10.5z M21.5,17h-5
			c-0.276,0-0.5-0.224-0.5-0.5c0-0.276,0.224-0.5,0.5-0.5h5c0.275,0,0.5,0.224,0.5,0.5C22,16.776,21.775,17,21.5,17z"/>
	</g>
	<g id="New_icons">
	</g>
</g>
<g id="Invisible_Shape">
	<rect fill="none" width="24" height="24"/>
</g>
</svg>
