<?xml version="1.0" encoding="utf-8"?>
<!-- Generator: Adobe Illustrator 19.2.1, SVG Export Plug-In . SVG Version: 6.00 Build 0)  -->
<svg version="1.1" xmlns="http://www.w3.org/2000/svg" xmlns:xlink="http://www.w3.org/1999/xlink" x="0px" y="0px" width="24px"
	 height="24px" viewBox="0 0 24 24" enable-background="new 0 0 24 24" xml:space="preserve">
<g id="Filled_Icons">
	<g>
		<path d="M17.5,11c-3.584,0-6.5,2.916-6.5,6.5s2.916,6.5,6.5,6.5s6.5-2.916,6.5-6.5S21.084,11,17.5,11z M13.035,16.014
			c1.135-3.208,5.287-4.051,7.742-1.484v-0.568c0-0.277,0.224-0.5,0.5-0.5c0.276,0,0.5,0.223,0.5,0.5v2.221
			c0,0.275-0.224,0.5-0.5,0.5h-2.223c-0.275,0-0.5-0.225-0.5-0.5c0-0.276,0.225-0.5,0.5-0.5h1.379
			c-1.579-2.395-5.434-2.215-6.457,0.666c-0.089,0.252-0.366,0.4-0.638,0.305C13.078,16.56,12.942,16.274,13.035,16.014z
			 M21.965,18.986c-1.137,3.213-5.293,4.047-7.742,1.486v0.567c0,0.276-0.223,0.5-0.5,0.5c-0.275,0-0.5-0.224-0.5-0.5v-2.222
			c0-0.276,0.225-0.5,0.5-0.5h2.223c0.276,0,0.5,0.224,0.5,0.5c0,0.275-0.224,0.5-0.5,0.5h-1.379
			c1.577,2.396,5.435,2.215,6.457-0.667c0.092-0.26,0.378-0.396,0.638-0.304C21.922,18.44,22.058,18.726,21.965,18.986z"/>
		<g>
			<path d="M10.068,16.541C9.436,16.83,8.74,17,8,17c-2.762,0-5-2.238-5-5s2.238-5,5-5c2.606,0,4.721,2,4.954,4.545
				c1.138-0.87,2.529-1.42,4.046-1.519V5.5c0-0.133-0.053-0.26-0.146-0.353l-5-5C11.76,0.053,11.632,0,11.5,0h-11
				C0.224,0,0,0.224,0,0.5v21C0,21.776,0.224,22,0.5,22h11.01C10.37,20.486,9.808,18.586,10.068,16.541z M11,1l5,5h-5V1z"/>
			<path d="M7.5,9.5C7.224,9.5,7,9.724,7,10v2.5C7,12.776,7.224,13,7.5,13H9c0.276,0,0.5-0.224,0.5-0.5S9.276,12,9,12H8v-2
				C8,9.724,7.776,9.5,7.5,9.5z"/>
		</g>
	</g>
</g>
<g id="Invisible_Shape">
	<rect fill="none" width="24" height="24"/>
</g>
</svg>
