<?xml version="1.0" encoding="utf-8"?>
<!-- Generator: Adobe Illustrator 19.2.1, SVG Export Plug-In . SVG Version: 6.00 Build 0)  -->
<svg version="1.1" xmlns="http://www.w3.org/2000/svg" xmlns:xlink="http://www.w3.org/1999/xlink" x="0px" y="0px" width="24px"
	 height="24px" viewBox="0 0 24 24" enable-background="new 0 0 24 24" xml:space="preserve">
<g id="Filled_Icons">
	<g>
		<g>
			<path d="M12,19.5v-4.527C11.089,16.197,9.644,17,8,17c-2.762,0-5-2.238-5-5s2.238-5,5-5c2.355,0,4.316,1.633,4.847,3.825
				c0.525-0.257,1.086-0.185,1.513,0.113c1.105,0.772,1.977,0.964,2.641,0.448V5.5c0-0.133-0.053-0.26-0.146-0.353l-5-5
				C11.76,0.053,11.632,0,11.5,0h-11C0.224,0,0,0.224,0,0.5v21C0,21.776,0.224,22,0.5,22h12.802C12.461,21.087,12,20.165,12,19.5z
				 M11,1l5,5h-5V1z"/>
			<path d="M7.5,9.5C7.224,9.5,7,9.724,7,10v2.5C7,12.776,7.224,13,7.5,13H9c0.276,0,0.5-0.224,0.5-0.5S9.276,12,9,12H8v-2
				C8,9.724,7.776,9.5,7.5,9.5z"/>
		</g>
		<path d="M23.213,11.759c-1.771,1.241-3.306,1.222-4.315-0.066c-0.189-0.243-0.605-0.243-0.795,0
			c-1.013,1.292-2.538,1.311-4.315,0.066C13.457,11.528,13,11.765,13,12.168V19.5c0,0.969,1.848,3.379,5.365,4.365
			c0.084,0.022,0.179,0.024,0.27,0C22.152,22.879,24,20.469,24,19.5v-7.332C24,11.765,23.543,11.528,23.213,11.759z M21,18h-2v2
			c0,0.276-0.224,0.5-0.5,0.5S18,20.276,18,20v-2h-2c-0.276,0-0.5-0.224-0.5-0.5S15.724,17,16,17h2v-2c0-0.276,0.224-0.5,0.5-0.5
			S19,14.724,19,15v2h2c0.276,0,0.5,0.224,0.5,0.5S21.276,18,21,18z"/>
	</g>
	<g>
		<path d="M23.212,11.711c-1.485,1.05-3.184,1.373-4.314-0.065c-0.178-0.229-0.589-0.229-0.776-0.017
			c-0.006,0.006-0.015,0.008-0.02,0.016c-0.97,1.236-2.412,1.292-4.092,0.205c-0.16-0.103-0.326-0.223-0.498-0.227
			C13.228,11.617,13,11.871,13,12.119l0,0v7.332c0,1.06,2.032,3.421,5.366,4.365c0.011,0.004,0.219,0.013,0.273-0.002
			c3.514-0.986,5.36-3.396,5.36-4.363v-7.332C24,11.743,23.532,11.488,23.212,11.711z M21,18h-2v2l0,0l0,0
			c0,0.276-0.224,0.5-0.5,0.5S18,20.276,18,20l0,0l0,0v-2h-2c-0.276,0-0.5-0.224-0.5-0.5S15.724,17,16,17h2v-2
			c0-0.276,0.224-0.5,0.5-0.5S19,14.724,19,15v2h2c0.276,0,0.5,0.224,0.5,0.5S21.276,18,21,18z"/>
	</g>
</g>
<g id="Invisible_Shape">
	<rect fill="none" width="24" height="24"/>
</g>
</svg>
