<?xml version="1.0" encoding="utf-8"?>
<!-- Generator: Adobe Illustrator 19.2.1, SVG Export Plug-In . SVG Version: 6.00 Build 0)  -->
<svg version="1.1" xmlns="http://www.w3.org/2000/svg" xmlns:xlink="http://www.w3.org/1999/xlink" x="0px" y="0px" width="24px"
	 height="24px" viewBox="0 0 24 24" enable-background="new 0 0 24 24" xml:space="preserve">
<g id="Filled_Icons">
	<g>
		<g>
			<path d="M7.5,9.5C7.224,9.5,7,9.724,7,10v2.5C7,12.776,7.224,13,7.5,13H9c0.276,0,0.5-0.224,0.5-0.5S9.276,12,9,12H8v-2
				C8,9.724,7.776,9.5,7.5,9.5z"/>
			<path d="M12,18.901c-0.576,0.192-1.256,0.034-1.652-0.441c-0.528-0.636-0.442-1.582,0.189-2.112l0.214-0.179
				C9.961,16.692,9.018,17,8,17c-2.762,0-5-2.238-5-5s2.238-5,5-5s5,2.238,5,5c0,1.352-0.542,2.574-1.414,3.475l4.954-4.128
				c0.138-0.114,0.294-0.198,0.46-0.254V5.5c0-0.133-0.053-0.26-0.146-0.353l-5-5C11.76,0.053,11.632,0,11.5,0h-11
				C0.224,0,0,0.224,0,0.5v21C0,21.776,0.224,22,0.5,22H12V18.901z M11,1l5,5h-5V1z"/>
		</g>
		<g>
			<path d="M17.5,14.453l-4.5,3.75V23.5c0,0.276,0.224,0.5,0.5,0.5h8c0.276,0,0.5-0.224,0.5-0.5v-5.297L17.5,14.453z"/>
			<g>
				<path d="M23.18,17.885L17.5,13.15l-5.68,4.734c-0.213,0.176-0.528,0.147-0.705-0.065c-0.177-0.213-0.148-0.527,0.064-0.705l6-5
					c0.185-0.153,0.455-0.153,0.641,0l6,5c0.212,0.178,0.24,0.492,0.064,0.705C23.708,18.031,23.394,18.062,23.18,17.885z"/>
			</g>
		</g>
	</g>
</g>
<g id="Invisible_Shape">
	<rect fill="none" width="24" height="24"/>
</g>
</svg>
