<?xml version="1.0" encoding="utf-8"?>
<!-- Generator: Adobe Illustrator 19.2.1, SVG Export Plug-In . SVG Version: 6.00 Build 0)  -->
<svg version="1.1" xmlns="http://www.w3.org/2000/svg" xmlns:xlink="http://www.w3.org/1999/xlink" x="0px" y="0px" width="24px"
	 height="24px" viewBox="0 0 24 24" enable-background="new 0 0 24 24" xml:space="preserve">
<g id="Filled_Icons">
	<g>
		<path d="M12,10c-2.757,0-5,2.243-5,5s2.243,5,5,5s5-2.243,5-5S14.757,10,12,10z M13.5,16h-2c-0.276,0-0.5-0.224-0.5-0.5v-3
			c0-0.276,0.224-0.5,0.5-0.5s0.5,0.224,0.5,0.5V15h1.5c0.276,0,0.5,0.224,0.5,0.5S13.776,16,13.5,16z"/>
		<path d="M20.854,6.147l-6-6C14.76,0.053,14.632,0,14.5,0h-11C3.224,0,3,0.224,3,0.5v23C3,23.776,3.224,24,3.5,24h17
			c0.276,0,0.5-0.224,0.5-0.5v-17C21,6.367,20.947,6.24,20.854,6.147z M12,21c-3.309,0-6-2.69-6-6c0-3.309,2.691-6,6-6
			c3.308,0,6,2.691,6,6C18,18.31,15.308,21,12,21z M14,7V1l6,6H14z"/>
	</g>
</g>
<g id="Invisible_Shape">
	<rect fill="none" width="24" height="24"/>
</g>
</svg>
