<?xml version="1.0" encoding="utf-8"?>
<!-- Generator: Adobe Illustrator 19.2.1, SVG Export Plug-In . SVG Version: 6.00 Build 0)  -->
<svg version="1.1" xmlns="http://www.w3.org/2000/svg" xmlns:xlink="http://www.w3.org/1999/xlink" x="0px" y="0px" width="24px"
	 height="24px" viewBox="0 0 24 24" enable-background="new 0 0 24 24" xml:space="preserve">
<g id="Filled_Icons">
	<g>
		<g>
			<path d="M12.938,19.146l-0.919,3.218c-0.05,0.174-0.001,0.362,0.127,0.49c0.13,0.131,0.32,0.176,0.491,0.128l3.217-0.92
				L12.938,19.146z"/>
			<rect x="14.109" y="15.232" transform="matrix(0.707 -0.7072 0.7072 0.707 -7.2488 17.503)" width="6.78" height="4.535"/>
			<path d="M23.854,13.646l-2.5-2.5c-0.188-0.188-0.52-0.188-0.707,0L19,12.792l3.207,3.207l1.647-1.647
				C24.049,14.157,24.049,13.841,23.854,13.646z"/>
		</g>
		<g>
			<path d="M9.5,12.5C9.5,12.224,9.276,12,9,12H8v-2c0-0.276-0.224-0.5-0.5-0.5S7,9.724,7,10v2.5C7,12.776,7.224,13,7.5,13H9
				C9.276,13,9.5,12.776,9.5,12.5z"/>
			<path d="M12.148,18.379c0.074-0.16,0.166-0.314,0.292-0.439L17,13.379V5.5c0-0.133-0.053-0.26-0.146-0.353l-5-5
				C11.76,0.053,11.632,0,11.5,0h-11C0.224,0,0,0.224,0,0.5v21C0,21.776,0.224,22,0.5,22h10.583
				C11.163,21.72,12.028,18.638,12.148,18.379z M11,1l5,5h-5V1z M3,12c0-2.757,2.243-5,5-5s5,2.243,5,5s-2.243,5-5,5S3,14.757,3,12z
				"/>
		</g>
	</g>
</g>
<g id="Invisible_Shape">
	<rect fill="none" width="24" height="24"/>
</g>
</svg>
