<?xml version="1.0" encoding="utf-8"?>
<!-- Generator: Adobe Illustrator 19.2.1, SVG Export Plug-In . SVG Version: 6.00 Build 0)  -->
<svg version="1.1" xmlns="http://www.w3.org/2000/svg" xmlns:xlink="http://www.w3.org/1999/xlink" x="0px" y="0px" width="24px"
	 height="24px" viewBox="0 0 24 24" enable-background="new 0 0 24 24" xml:space="preserve">
<g id="Filled_Icons">
	<g>
		<g>
			<path d="M7.5,9.5C7.224,9.5,7,9.724,7,10v2.5C7,12.776,7.224,13,7.5,13H9c0.276,0,0.5-0.224,0.5-0.5S9.276,12,9,12H8v-2
				C8,9.724,7.776,9.5,7.5,9.5z"/>
			<path d="M13.754,19.499l-2.214-1.844c-0.511-0.425-0.718-1.137-0.361-1.825C10.313,16.55,9.215,17,8,17c-2.762,0-5-2.238-5-5
				s2.238-5,5-5s5,2.238,5,5c0,1.213-0.449,2.31-1.167,3.175c0.204-0.102,0.426-0.173,0.668-0.173h2.572l1.578-3.168
				c0.086-0.174,0.21-0.315,0.349-0.44V5.5c0-0.133-0.053-0.26-0.146-0.353l-5-5C11.76,0.053,11.632,0,11.5,0h-11
				C0.224,0,0,0.224,0,0.5v21C0,21.776,0.224,22,0.5,22h12.42L13.754,19.499z M11,1l5,5h-5V1z"/>
		</g>
		<path d="M23.493,16.002h-3.191l-1.854-3.726c-0.177-0.356-0.715-0.376-0.902,0.003l-1.854,3.723h-3.191
			c-0.468,0-0.679,0.587-0.32,0.885l2.738,2.281l-1.391,4.17c-0.162,0.465,0.353,0.846,0.748,0.569l3.723-2.545l3.719,2.542
			c0.397,0.276,0.911-0.107,0.748-0.57l-1.391-4.168l2.738-2.281C24.168,16.591,23.965,16.002,23.493,16.002z"/>
	</g>
</g>
<g id="Invisible_Shape">
	<rect fill="none" width="24" height="24"/>
</g>
</svg>
