<?xml version="1.0" encoding="utf-8"?>
<!-- Generator: Adobe Illustrator 19.2.0, SVG Export Plug-In . SVG Version: 6.00 Build 0)  -->
<svg version="1.1" xmlns="http://www.w3.org/2000/svg" xmlns:xlink="http://www.w3.org/1999/xlink" x="0px" y="0px" width="24px"
	 height="24px" viewBox="0 0 24 24" enable-background="new 0 0 24 24" xml:space="preserve">
<g id="Filled_Icons">
	<g>
		<path d="M9.765,5.329l4.866,1.89l-2.167-5.319c-0.05-0.122-0.146-0.219-0.267-0.27l-3.5-1.5C8.512,0.049,8.299,0.088,8.153,0.228
			C8.009,0.366,7.961,0.579,8.032,0.766L9.765,5.329z"/>
		<g>
			<path d="M18.5,13.006c-3.033,0-5.5,2.468-5.5,5.5c0,3.033,2.467,5.5,5.5,5.5c3.032,0,5.5-2.467,5.5-5.5
				C24,15.474,21.532,13.006,18.5,13.006z M21.352,17.361l-3.025,3c-0.094,0.094-0.22,0.145-0.352,0.145
				c-0.164,0.008-0.263-0.054-0.356-0.149l-1.975-2.006c-0.193-0.196-0.192-0.513,0.006-0.707c0.196-0.193,0.513-0.191,0.707,0.006
				l1.622,1.648l2.669-2.647c0.196-0.193,0.512-0.193,0.708,0.004C21.549,16.85,21.548,17.167,21.352,17.361z"/>
		</g>
		<path d="M14.266,13.585c1.139-0.981,2.617-1.579,4.234-1.579c0.905,0,1.767,0.187,2.551,0.523c0.004-0.335-0.057-0.67-0.19-0.988
			c-0.255-0.617-0.736-1.098-1.363-1.358L5.399,4.707L4.474,1.931C4.429,1.795,4.328,1.685,4.197,1.63l-3.5-1.5
			C0.544,0.062,0.364,0.079,0.225,0.171C0.084,0.264,0,0.42,0,0.588v6.5c0,0.205,0.124,0.389,0.315,0.465l6.428,2.57l-6.454,3.012
			C0.106,13.22-0.007,13.406,0,13.607c0.008,0.201,0.136,0.378,0.324,0.449l4,1.5c0.057,0.021,0.116,0.031,0.176,0.031
			c0.047,0,0.095-0.007,0.141-0.021l8.342-2.453L14.266,13.585z"/>
	</g>
</g>
<g id="invisible_shape">
	<rect fill="none" width="24" height="24"/>
</g>
</svg>
