<?xml version="1.0" encoding="utf-8"?>
<!-- Generator: Adobe Illustrator 19.2.0, SVG Export Plug-In . SVG Version: 6.00 Build 0)  -->
<svg version="1.1" xmlns="http://www.w3.org/2000/svg" xmlns:xlink="http://www.w3.org/1999/xlink" x="0px" y="0px" width="24px"
	 height="24px" viewBox="0 0 24 24" enable-background="new 0 0 24 24" xml:space="preserve">
<g id="Filled_Icons">
	<g>
		<path d="M19.5,0h-15C2.019,0,0,2.019,0,4.5v15C0,21.981,2.019,24,4.5,24h15c2.481,0,4.5-2.019,4.5-4.5v-15
			C24,2.019,21.981,0,19.5,0z M10.5,7l3.019,1.892L11.15,9.837L8.466,8.051L10.5,7z M19.237,10.436l-3.456,1.523l-2.771,5.062
			l-2.273,1.182l1.926-5L8.12,14.993L3.56,12.049l2.004-1.153l2.655,1.188L18.248,8.08c0.636-0.254,1.358,0.038,1.64,0.662
			C20.176,9.382,19.893,10.146,19.237,10.436z"/>
	</g>
</g>
<g id="invisible_shape">
	<rect fill="none" width="24" height="24"/>
</g>
</svg>
