<?xml version="1.0" encoding="utf-8"?>
<!-- Generator: Adobe Illustrator 19.2.0, SVG Export Plug-In . SVG Version: 6.00 Build 0)  -->
<svg version="1.1" xmlns="http://www.w3.org/2000/svg" xmlns:xlink="http://www.w3.org/1999/xlink" x="0px" y="0px" width="24px"
	 height="24px" viewBox="0 0 24 24" enable-background="new 0 0 24 24" xml:space="preserve">
<g id="Filled_Icons">
	<g>
		<path d="M10.293,8h5.414l-3.853-3.853C11.76,4.053,11.633,4,11.5,4h-4C7.298,4,7.115,4.122,7.038,4.31
			C6.96,4.496,7.003,4.711,7.147,4.853L10.293,8z"/>
		<path d="M21.5,9H6.707L4.853,7.147C4.76,7.053,4.633,7,4.5,7h-4C0.327,7,0.166,7.091,0.074,7.237
			c-0.091,0.148-0.1,0.332-0.021,0.486l3,6C3.138,13.894,3.31,14,3.5,14h6.793l-5.147,5.146c-0.144,0.144-0.187,0.358-0.108,0.546
			C5.115,19.879,5.298,20,5.5,20h5c0.133,0,0.26-0.052,0.354-0.146L16.707,14H21.5c1.378,0,2.5-1.121,2.5-2.5
			C24,10.122,22.878,9,21.5,9z"/>
	</g>
</g>
<g id="invisible_shape">
	<rect fill="none" width="24" height="24"/>
</g>
</svg>
