<?xml version="1.0" encoding="utf-8"?>
<!-- Generator: Adobe Illustrator 19.2.0, SVG Export Plug-In . SVG Version: 6.00 Build 0)  -->
<svg version="1.1" xmlns="http://www.w3.org/2000/svg" xmlns:xlink="http://www.w3.org/1999/xlink" x="0px" y="0px" width="24px"
	 height="24px" viewBox="0 0 24 24" enable-background="new 0 0 24 24" xml:space="preserve">
<g id="Filled_Icons">
	<g>
		<path d="M11.765,9.747l4.865,1.89l-2.167-5.319c-0.049-0.121-0.145-0.219-0.266-0.271l-3.5-1.5
			c-0.185-0.08-0.398-0.041-0.543,0.099c-0.144,0.138-0.192,0.351-0.121,0.538L11.765,9.747z"/>
		<path d="M22.861,15.958c-0.255-0.617-0.736-1.097-1.363-1.357L7.399,9.125L6.474,6.348C6.429,6.213,6.328,6.102,6.197,6.046
			l-3.5-1.5c-0.154-0.067-0.332-0.05-0.472,0.043C2.085,4.682,2,4.838,2,5.006v6.5c0,0.205,0.124,0.389,0.315,0.465l6.428,2.57
			l-6.454,3.012C2.106,17.639,1.993,17.824,2,18.025c0.008,0.201,0.136,0.379,0.324,0.449l4,1.5
			c0.057,0.021,0.116,0.031,0.176,0.031c0.047,0,0.095-0.007,0.141-0.021l8.342-2.453l4.613,1.692
			c1.289,0.531,2.74-0.082,3.266-1.354C23.117,17.254,23.117,16.574,22.861,15.958z"/>
	</g>
</g>
<g id="invisible_shape">
	<rect fill="none" width="24" height="24"/>
</g>
</svg>
