<?xml version="1.0" encoding="utf-8"?>
<!-- Generator: Adobe Illustrator 19.2.0, SVG Export Plug-In . SVG Version: 6.00 Build 0)  -->
<svg version="1.1" xmlns="http://www.w3.org/2000/svg" xmlns:xlink="http://www.w3.org/1999/xlink" x="0px" y="0px" width="24px"
	 height="24px" viewBox="0 0 24 24" enable-background="new 0 0 24 24" xml:space="preserve">
<g id="Filled_Icons">
	<g>
		<path d="M5.694,6.261l4.366,1.807l4.888-2.126L9.773,3.806C9.65,3.756,9.512,3.755,9.39,3.807L5.694,5.338
			C5.508,5.415,5.386,5.597,5.386,5.799C5.386,6.001,5.508,6.184,5.694,6.261z"/>
		<path d="M23.809,5.951c-0.515-1.241-1.994-1.881-3.274-1.349L7.081,10.455L4.29,9.059C4.16,8.994,4.006,8.989,3.87,9.046l-3.5,1.5
			c-0.153,0.066-0.263,0.203-0.295,0.365c-0.031,0.163,0.021,0.331,0.138,0.448l4.5,4.5c0.142,0.142,0.354,0.184,0.539,0.111
			l6.449-2.58l-2.603,6.94c-0.072,0.193-0.02,0.41,0.134,0.547c0.094,0.085,0.213,0.128,0.334,0.128
			c0.077,0,0.153-0.017,0.224-0.052l4-2c0.097-0.049,0.176-0.127,0.224-0.224l3.913-7.823l4.529-1.688
			C23.729,8.691,24.339,7.231,23.809,5.951z"/>
	</g>
</g>
<g id="invisible_shape">
	<rect fill="none" width="24" height="24"/>
</g>
</svg>
