<?xml version="1.0" encoding="utf-8"?>
<!-- Generator: Adobe Illustrator 19.2.0, SVG Export Plug-In . SVG Version: 6.00 Build 0)  -->
<svg version="1.1" xmlns="http://www.w3.org/2000/svg" xmlns:xlink="http://www.w3.org/1999/xlink" x="0px" y="0px" width="24px"
	 height="24px" viewBox="0 0 24 24" enable-background="new 0 0 24 24" xml:space="preserve">
<g id="Filled_Icons">
	<path d="M22.854,1.153c-1.132-1.132-3.073-1.133-4.207,0l-2.853,2.853c-1.566,0-2.984-0.009-4.268-0.018
		c-1.101-0.007-2.102-0.014-3.01-0.014C2.92,3.975,0,4.109,0,7.006c0,2.327,2.078,2.41,5.225,2.536
		c1.306,0.052,2.884,0.116,4.703,0.329l-5.135,5.135H2.5c-1.378,0-2.5,1.122-2.5,2.5c0,1.87,1.374,2.259,2.828,2.67
		c0.247,0.071,0.507,0.143,0.774,0.226c0.078,0.25,0.147,0.496,0.213,0.733c0.399,1.411,0.811,2.871,2.685,2.871
		c1.378,0,2.5-1.121,2.5-2.5v-2.292l5.135-5.135c0.214,1.826,0.278,3.406,0.331,4.714c0.126,3.14,0.209,5.213,2.534,5.213
		c0.931,0,1.584-0.224,2.056-0.703c1.13-1.148,1.091-3.629,1.005-9.066c-0.027-1.705-0.058-3.698-0.06-6.023l2.854-2.854
		C24.032,4.179,24.031,2.332,22.854,1.153z"/>
</g>
<g id="invisible_shape">
	<rect fill="none" width="24" height="24"/>
</g>
</svg>
