<?xml version="1.0" encoding="utf-8"?>
<!-- Generator: Adobe Illustrator 19.2.0, SVG Export Plug-In . SVG Version: 6.00 Build 0)  -->
<svg version="1.1" xmlns="http://www.w3.org/2000/svg" xmlns:xlink="http://www.w3.org/1999/xlink" x="0px" y="0px" width="24px"
	 height="24px" viewBox="0 0 24 24" enable-background="new 0 0 24 24" xml:space="preserve">
<g id="Filled_Icons">
	<g>
		<path d="M5.661,2.844l4.366,1.807l4.888-2.126L9.739,0.389c-0.123-0.05-0.26-0.051-0.382,0L5.661,1.92
			C5.474,1.998,5.352,2.18,5.352,2.382C5.352,2.584,5.475,2.767,5.661,2.844z"/>
		<g>
			<path d="M18.5,13.006c-3.033,0-5.5,2.468-5.5,5.5c0,3.033,2.467,5.5,5.5,5.5c3.032,0,5.5-2.467,5.5-5.5
				C24,15.474,21.532,13.006,18.5,13.006z M21.352,17.361l-3.025,3c-0.094,0.094-0.22,0.145-0.352,0.145
				c-0.164,0.008-0.263-0.054-0.356-0.149l-1.975-2.006c-0.193-0.196-0.192-0.513,0.006-0.707c0.196-0.193,0.513-0.191,0.707,0.006
				l1.622,1.648l2.669-2.647c0.196-0.193,0.512-0.193,0.708,0.004C21.549,16.85,21.548,17.167,21.352,17.361z"/>
		</g>
		<path d="M15.17,12.935l2.723-5.445l4.529-1.688c0.617-0.255,1.098-0.736,1.354-1.353c0.255-0.617,0.255-1.297,0-1.914
			c-0.515-1.241-1.993-1.88-3.274-1.349L7.048,7.037L4.257,5.642C4.126,5.576,3.972,5.572,3.836,5.63l-3.5,1.5
			C0.184,7.194,0.073,7.332,0.042,7.494C0.011,7.658,0.063,7.826,0.18,7.942l4.5,4.5c0.142,0.142,0.353,0.185,0.539,0.111
			l6.449-2.58l-2.603,6.939c-0.072,0.193-0.019,0.41,0.134,0.548c0.094,0.085,0.214,0.129,0.335,0.129
			c0.076,0,0.152-0.017,0.224-0.054l2.674-1.336C12.953,14.829,13.926,13.681,15.17,12.935z"/>
	</g>
</g>
<g id="invisible_shape">
	<rect fill="none" width="24" height="24"/>
</g>
</svg>
