<?xml version="1.0" encoding="utf-8"?>
<!-- Generator: Adobe Illustrator 19.2.0, SVG Export Plug-In . SVG Version: 6.00 Build 0)  -->
<svg version="1.1" xmlns="http://www.w3.org/2000/svg" xmlns:xlink="http://www.w3.org/1999/xlink" x="0px" y="0px" width="24px"
	 height="24px" viewBox="0 0 24 24" enable-background="new 0 0 24 24" xml:space="preserve">
<g id="Filled_Icons">
	<g>
		<path d="M19.5,4H17V1.5C17,1.224,16.776,1,16.5,1S16,1.224,16,1.5V4h-4V0.5C12,0.224,11.776,0,11.5,0S11,0.224,11,0.5V4H7V1.5
			C7,1.224,6.776,1,6.5,1S6,1.224,6,1.5V4H3.5C3.169,4,2.928,4.317,3.019,4.637l2,7C5.081,11.852,5.277,12,5.5,12h12
			c0.223,0,0.419-0.148,0.481-0.363l2-7C20.072,4.317,19.831,4,19.5,4z M5.306,9L4.734,7H8l0,2H5.306z M14,9H9V7h5V9z M17.694,9H15
			l0-2h3.266L17.694,9z"/>
		<g>
			<path d="M15.89,13H7.11L4.515,23.379C4.436,23.693,4.674,24,5,24h13c0.326,0,0.564-0.307,0.485-0.621L15.89,13z"/>
		</g>
	</g>
</g>
<g id="invisible_shape">
	<rect fill="none" width="24" height="24"/>
</g>
</svg>
