<?xml version="1.0" encoding="utf-8"?>
<!-- Generator: Adobe Illustrator 19.2.0, SVG Export Plug-In . SVG Version: 6.00 Build 0)  -->
<svg version="1.1" xmlns="http://www.w3.org/2000/svg" xmlns:xlink="http://www.w3.org/1999/xlink" x="0px" y="0px" width="24px"
	 height="24px" viewBox="0 0 24 24" enable-background="new 0 0 24 24" xml:space="preserve">
<g id="Filled_Icons">
	<g>
		<path d="M9.765,5.329l4.866,1.89l-2.167-5.319c-0.05-0.122-0.146-0.219-0.267-0.27l-3.5-1.5C8.512,0.049,8.299,0.088,8.153,0.228
			C8.009,0.366,7.961,0.579,8.032,0.766L9.765,5.329z"/>
		<g>
			<g>
				<path d="M21.294,16.419l-4.878,4.877c1.35,0.984,3.356,0.887,4.559-0.315C21.636,20.319,22,19.44,22,18.506
					C22,17.74,21.744,17.021,21.294,16.419z"/>
				<path d="M20.586,15.713c-0.601-0.451-1.321-0.707-2.087-0.707c-0.934,0-1.814,0.365-2.475,1.026
					c-1.244,1.242-1.34,3.19-0.318,4.56L20.586,15.713z"/>
				<path d="M22.389,14.618c-1.039-1.039-2.42-1.611-3.89-1.611c-1.468,0-2.85,0.572-3.889,1.611C13.572,15.656,13,17.037,13,18.506
					c0,1.469,0.572,2.851,1.61,3.89c1.039,1.038,2.42,1.61,3.889,1.61c1.47,0,2.851-0.572,3.89-1.61
					C23.428,21.356,24,19.975,24,18.506C24,17.037,23.428,15.656,22.389,14.618z M21.682,21.688c-0.85,0.85-1.98,1.318-3.183,1.318
					c-1.201,0-2.332-0.468-3.182-1.318c-1.755-1.755-1.754-4.609,0-6.363c0.85-0.85,1.98-1.318,3.182-1.318
					c1.203,0,2.333,0.469,3.183,1.318S23,17.304,23,18.506C23,19.707,22.531,20.838,21.682,21.688z"/>
			</g>
		</g>
		<path d="M14.266,13.585c1.139-0.981,2.617-1.579,4.234-1.579c0.905,0,1.767,0.187,2.551,0.523c0.004-0.335-0.057-0.67-0.19-0.988
			c-0.255-0.617-0.736-1.098-1.363-1.358L5.399,4.707L4.474,1.931C4.429,1.795,4.328,1.685,4.197,1.63l-3.5-1.5
			C0.544,0.062,0.364,0.079,0.225,0.171C0.084,0.264,0,0.42,0,0.588v6.5c0,0.205,0.124,0.389,0.315,0.465l6.428,2.57l-6.454,3.012
			C0.106,13.22-0.007,13.406,0,13.607c0.008,0.201,0.136,0.378,0.324,0.449l4,1.5c0.057,0.021,0.116,0.031,0.176,0.031
			c0.047,0,0.095-0.007,0.141-0.021l8.342-2.453L14.266,13.585z"/>
	</g>
</g>
<g id="invisible_shape">
	<rect fill="none" width="24" height="24"/>
</g>
</svg>
