<?xml version="1.0" encoding="utf-8"?>
<!-- Generator: Adobe Illustrator 19.2.0, SVG Export Plug-In . SVG Version: 6.00 Build 0)  -->
<svg version="1.1" xmlns="http://www.w3.org/2000/svg" xmlns:xlink="http://www.w3.org/1999/xlink" x="0px" y="0px" width="24px"
	 height="24px" viewBox="0 0 24 24" enable-background="new 0 0 24 24" xml:space="preserve">
<g id="Filled_Icons">
	<g>
		<path d="M21.5,23c-0.694,0-1.5-0.655-1.5-1.5c0-0.276-0.225-0.5-0.5-0.5c-0.276,0-0.5,0.224-0.5,0.5c0,0.845-0.807,1.5-1.5,1.5
			c-0.694,0-1.5-0.655-1.5-1.5c0-0.276-0.225-0.5-0.5-0.5c-0.276,0-0.5,0.224-0.5,0.5c0,0.845-0.807,1.5-1.5,1.5
			c-0.694,0-1.5-0.655-1.5-1.5c0-0.276-0.225-0.5-0.5-0.5c-0.276,0-0.5,0.224-0.5,0.5c0,0.845-0.807,1.5-1.5,1.5
			C8.806,23,8,22.345,8,21.5C8,21.224,7.775,21,7.5,21C7.224,21,7,21.224,7,21.5C7,22.345,6.193,23,5.5,23C4.806,23,4,22.345,4,21.5
			C4,21.224,3.775,21,3.5,21C3.224,21,3,21.224,3,21.5C3,22.345,2.193,23,1.5,23C1.224,23,1,23.224,1,23.5S1.224,24,1.5,24
			c0.797,0,1.535-0.418,2-1.04C3.964,23.582,4.703,24,5.5,24s1.535-0.418,2-1.04C7.964,23.582,8.703,24,9.5,24s1.535-0.418,2-1.04
			c0.464,0.622,1.203,1.04,2,1.04s1.535-0.418,2-1.04c0.464,0.622,1.203,1.04,2,1.04s1.535-0.418,2-1.04
			c0.464,0.622,1.203,1.04,2,1.04c0.275,0,0.5-0.224,0.5-0.5S21.775,23,21.5,23z"/>
		<path d="M1.5,20c0.797,0,1.535-0.418,2-1.04C3.964,19.582,4.703,20,5.5,20s1.535-0.418,2-1.04C7.964,19.582,8.703,20,9.5,20
			s1.535-0.418,2-1.04c0.464,0.622,1.203,1.04,2,1.04s1.535-0.418,2-1.04c0.464,0.622,1.203,1.04,2,1.04s1.535-0.418,2-1.04
			c0.464,0.622,1.203,1.04,2,1.04c0.275,0,0.5-0.224,0.5-0.5S21.775,19,21.5,19c-0.694,0-1.5-0.655-1.5-1.5
			c0-0.276-0.225-0.5-0.5-0.5c-0.276,0-0.5,0.224-0.5,0.5c0,0.845-0.807,1.5-1.5,1.5c-0.694,0-1.5-0.655-1.5-1.5
			c0-0.276-0.225-0.5-0.5-0.5c-0.276,0-0.5,0.224-0.5,0.5c0,0.845-0.807,1.5-1.5,1.5c-0.694,0-1.5-0.655-1.5-1.5
			c0-0.276-0.225-0.5-0.5-0.5c-0.276,0-0.5,0.224-0.5,0.5c0,0.845-0.807,1.5-1.5,1.5C8.806,19,8,18.345,8,17.5
			C8,17.224,7.775,17,7.5,17C7.224,17,7,17.224,7,17.5C7,18.345,6.193,19,5.5,19C4.806,19,4,18.345,4,17.5C4,17.224,3.775,17,3.5,17
			C3.224,17,3,17.224,3,17.5C3,18.345,2.193,19,1.5,19C1.224,19,1,19.224,1,19.5S1.224,20,1.5,20z"/>
		<path d="M4.487,15.96C4.549,15.986,4.615,16,4.683,16H17.5c0.077,0,0.154-0.018,0.224-0.052C18.877,15.37,19.5,13.741,19.5,12.5
			c0-0.276-0.225-0.5-0.5-0.5h-8v-2h7.5c0.275,0,0.5-0.224,0.5-0.5S18.775,9,18.5,9h-0.764L11,0.82V0.5C11,0.224,10.775,0,10.5,0
			C10.224,0,10,0.224,10,0.5V12H3c-0.276,0-0.5,0.224-0.5,0.5C2.5,13.804,3.114,15.38,4.487,15.96z"/>
	</g>
</g>
<g id="invisible_shape">
	<rect fill="none" width="24" height="24"/>
</g>
</svg>
