<?xml version="1.0" encoding="utf-8"?>
<!-- Generator: Adobe Illustrator 19.2.0, SVG Export Plug-In . SVG Version: 6.00 Build 0)  -->
<svg version="1.1" xmlns="http://www.w3.org/2000/svg" xmlns:xlink="http://www.w3.org/1999/xlink" x="0px" y="0px" width="24px"
	 height="24px" viewBox="0 0 24 24" enable-background="new 0 0 24 24" xml:space="preserve">
<g id="Filled_Icons">
	<g>
		<path d="M9.455,18.5C4.884,18.5,0,19.815,0,23.5C0,23.777,0.224,24,0.5,24h17.91c0.276,0,0.5-0.223,0.5-0.5
			C18.91,19.815,14.026,18.5,9.455,18.5z"/>
		<path d="M23.505,10.588c-1.506-3.522-5.069-4.189-7.266-4.244l3.447-1.379c0.372-0.15,0.428-0.656,0.092-0.881
			c-0.977-0.65-2.024-0.981-3.113-0.981c-2.103,0-3.85,1.239-4.665,2.692c-0.815-1.453-2.563-2.692-4.665-2.692
			c-1.088,0-2.136,0.33-3.112,0.981C3.887,4.309,3.941,4.815,4.314,4.965l3.446,1.379c-2.197,0.054-5.76,0.722-7.266,4.244
			c-0.137,0.318,0.088,0.678,0.433,0.697c3.451,0.181,6.565,0.226,9.745-1.407l-4.306,7.834C7.379,17.57,8.423,17.5,9.455,17.5
			c0.876,0,1.762,0.052,2.629,0.153L12.159,16H10c-0.276,0.005-0.5-0.223-0.5-0.5c0-0.275,0.224-0.5,0.5-0.505h2.204L12.25,14H11
			c-0.276,0-0.5-0.223-0.5-0.5c0-0.275,0.224-0.5,0.5-0.505h1.296l0.152-3.351c2.747,2.268,6.845,1.847,10.624,1.642
			C23.413,11.267,23.642,10.912,23.505,10.588z"/>
	</g>
</g>
<g id="invisible_shape">
	<rect fill="none" width="24" height="24"/>
</g>
</svg>
