<?xml version="1.0" encoding="utf-8"?>
<!-- Generator: Adobe Illustrator 19.2.0, SVG Export Plug-In . SVG Version: 6.00 Build 0)  -->
<svg version="1.1" xmlns="http://www.w3.org/2000/svg" xmlns:xlink="http://www.w3.org/1999/xlink" x="0px" y="0px" width="24px"
	 height="24px" viewBox="0 0 24 24" enable-background="new 0 0 24 24" xml:space="preserve">
<g id="Filled_Icons">
	<g>
		<path d="M12,11.006c3.023,0,5.484-2.46,5.484-5.483c0-3.024-2.461-5.485-5.484-5.485c-3.024,0-5.484,2.461-5.484,5.485
			C6.516,8.546,8.976,11.006,12,11.006z M11.582,5.731l1.684-2.554c0.153-0.23,0.462-0.293,0.693-0.143
			c0.231,0.152,0.294,0.463,0.142,0.693l-1.684,2.554c-0.153,0.23-0.463,0.293-0.693,0.142C11.494,6.272,11.431,5.962,11.582,5.731z
			"/>
		<path d="M23.5,23h-5.146C18.751,22.524,19,21.919,19,21.251v-3.5C19,16.234,17.767,15,16.25,15H15.5v-0.5
			c0-1.378-1.122-2.5-2.5-2.5h-2c-1.378,0-2.5,1.122-2.5,2.5V15H7.75C6.233,15,5,16.234,5,17.751v3.5
			C5,21.919,5.249,22.524,5.647,23H1.5C1.224,23,1,23.224,1,23.5S1.224,24,1.5,24h22c0.276,0,0.5-0.224,0.5-0.5S23.776,23,23.5,23z
			 M9.5,14.5c0-0.827,0.673-1.5,1.5-1.5h2c0.827,0,1.5,0.673,1.5,1.5V15h-5V14.5z M15.5,21h-7C8.224,21,8,20.776,8,20.5
			S8.224,20,8.5,20h7c0.276,0,0.5,0.224,0.5,0.5S15.776,21,15.5,21z M15.5,19h-7C8.224,19,8,18.776,8,18.5S8.224,18,8.5,18h7
			c0.276,0,0.5,0.224,0.5,0.5S15.776,19,15.5,19z"/>
	</g>
</g>
<g id="invisible_shape">
	<rect fill="none" width="24" height="24"/>
</g>
</svg>
