<?xml version="1.0" encoding="utf-8"?>
<!-- Generator: Adobe Illustrator 19.2.0, SVG Export Plug-In . SVG Version: 6.00 Build 0)  -->
<svg version="1.1" xmlns="http://www.w3.org/2000/svg" xmlns:xlink="http://www.w3.org/1999/xlink" x="0px" y="0px" width="24px"
	 height="24px" viewBox="0 0 24 24" enable-background="new 0 0 24 24" xml:space="preserve">
<g id="Filled_Icons">
	<g>
		<g>
			<circle cx="12" cy="9.5" r="2.5"/>
			<path d="M15.5,13H8.521c-0.276,0-0.5,0.224-0.5,0.5c0,3.999,1.001,4.985,2,5.858V23.5c0,0.276,0.224,0.5,0.5,0.5H13.5
				c0.276,0,0.5-0.224,0.5-0.5v-4.131c1.052-0.864,2-1.854,2-5.869C16,13.224,15.776,13,15.5,13z"/>
		</g>
		<path d="M16.521,3h-9c-1.378,0-2.5,1.116-2.5,2.494V24H6V5.994h12.021V24H19V5.494C19.021,4.116,17.899,3,16.521,3z"/>
		<g>
			<path d="M23.5,16h-2.958c-0.276,0-0.5-0.224-0.5-0.5s0.224-0.5,0.5-0.5H23.5c0.276,0,0.5,0.224,0.5,0.5S23.776,16,23.5,16z"/>
		</g>
		<g>
			<path d="M20.521,12.313c-0.191,0-0.373-0.11-0.456-0.295c-0.113-0.252,0-0.548,0.251-0.661l2.646-1.186
				c0.252-0.112,0.548,0,0.661,0.252c0.113,0.251,0.001,0.548-0.252,0.66l-2.646,1.187C20.659,12.299,20.59,12.313,20.521,12.313z"
				/>
		</g>
		<g>
			<path d="M23.166,20.834c-0.068,0-0.138-0.014-0.204-0.044l-2.646-1.188c-0.252-0.113-0.364-0.409-0.251-0.661
				c0.112-0.25,0.408-0.363,0.661-0.25l2.646,1.188c0.251,0.113,0.364,0.409,0.251,0.662C23.54,20.725,23.357,20.834,23.166,20.834z
				"/>
		</g>
		<g>
			<path d="M3.5,16H0.542c-0.276,0-0.5-0.224-0.5-0.5s0.224-0.5,0.5-0.5H3.5C3.776,15,4,15.224,4,15.5S3.776,16,3.5,16z"/>
		</g>
		<g>
			<path d="M3.52,12.313c-0.068,0-0.138-0.014-0.204-0.044L0.67,11.082c-0.251-0.112-0.364-0.409-0.251-0.66
				c0.112-0.252,0.408-0.364,0.66-0.252l2.647,1.186c0.252,0.113,0.365,0.409,0.252,0.661C3.895,12.202,3.712,12.313,3.52,12.313z"
				/>
		</g>
		<g>
			<path d="M0.875,20.834c-0.19,0-0.373-0.109-0.456-0.295c-0.113-0.252,0-0.548,0.251-0.661l2.647-1.188
				c0.252-0.115,0.548-0.002,0.661,0.251c0.113,0.251,0,0.547-0.252,0.66L1.079,20.79C1.013,20.82,0.944,20.834,0.875,20.834z"/>
		</g>
		<g>
			<path d="M13.521,0h-3c-0.276,0-0.5,0.224-0.5,0.5v1.494h4V0.5C14.021,0.224,13.798,0,13.521,0z"/>
		</g>
	</g>
</g>
<g id="invisible_shape">
	<rect fill="none" width="24" height="24"/>
</g>
</svg>
