<?xml version="1.0" encoding="utf-8"?>
<!-- Generator: Adobe Illustrator 19.2.0, SVG Export Plug-In . SVG Version: 6.00 Build 0)  -->
<svg version="1.1" xmlns="http://www.w3.org/2000/svg" xmlns:xlink="http://www.w3.org/1999/xlink" x="0px" y="0px" width="24px"
	 height="24px" viewBox="0 0 24 24" enable-background="new 0 0 24 24" xml:space="preserve">
<g id="Filled_Icons">
	<g>
		<g>
			<path d="M19.528,7c-0.418-1.314-1.094-2.517-1.978-3.537l-0.071,0.215l-1.484,2.772c-0.073,0.133-0.213,0.218-0.368,0.218
				l-1.286,0.001L14.008,7H19.528z"/>
			<path d="M10,16.1l-2.465-1.139c-0.148-0.067-0.241-0.216-0.242-0.377l0.001-1.891L3.482,9.485
				C3.322,9.351,3.287,9.117,3.399,8.942l1.877-2.917c0.076-0.12,0.208-0.191,0.35-0.191h4.583V3.993L8.961,3.278
				c-0.13-0.073-0.21-0.212-0.211-0.36c0.001-0.15,0.08-0.289,0.21-0.361l3.764-2.17C11.856,0.142,10.945,0.001,10,0
				C4.486,0,0,4.486,0,10c0,5.515,4.486,10,10,10V16.1z"/>
		</g>
		<path d="M21.5,8h-8C12.122,8,11,9.122,11,10.5v11c0,1.379,1.122,2.5,2.5,2.5h8c1.378,0,2.5-1.121,2.5-2.5v-11
			C24,9.122,22.878,8,21.5,8z M13,15.5c0-0.171,0.031-0.334,0.051-0.5H16v1h-2.949C13.031,15.834,13,15.671,13,15.5z M17,15h1v1h-1
			V15z M19,15h2.949C21.968,15.166,22,15.329,22,15.5s-0.032,0.334-0.051,0.5H19V15z M21.724,14H19v-2.724
			C20.271,11.729,21.271,12.729,21.724,14z M18.015,11.052C18.011,11.077,18,11.1,18,11.126V14h-1v-2.949
			C17.166,11.032,17.329,11,17.5,11C17.676,11,17.844,11.033,18.015,11.052z M16,11.276V14h-2.724
			C13.729,12.729,14.729,11.729,16,11.276z M13.276,17H16v2.724C14.729,19.271,13.729,18.271,13.276,17z M17,19.949V17h1v2.949
			C17.834,19.969,17.671,20,17.5,20S17.166,19.969,17,19.949z M19,19.724V17h2.724C21.271,18.271,20.271,19.271,19,19.724z"/>
	</g>
</g>
<g id="invisible_shape">
	<rect fill="none" width="24" height="24"/>
</g>
</svg>
