<?xml version="1.0" encoding="utf-8"?>
<!-- Generator: Adobe Illustrator 19.2.0, SVG Export Plug-In . SVG Version: 6.00 Build 0)  -->
<svg version="1.1" xmlns="http://www.w3.org/2000/svg" xmlns:xlink="http://www.w3.org/1999/xlink" x="0px" y="0px" width="24px"
	 height="24px" viewBox="0 0 24 24" enable-background="new 0 0 24 24" xml:space="preserve">
<g id="Filled_Icons">
	<path d="M20.5,4H20V0.5C20,0.224,19.776,0,19.5,0h-14C4.122,0,3,1.122,3,2.5v19C3,22.879,4.122,24,5.5,24h15
		c0.276,0,0.5-0.224,0.5-0.5v-19C21,4.224,20.776,4,20.5,4z M9,19.761C7.821,19.144,6.856,18.179,6.239,17H9V19.761z M9,16H5.818
		C5.613,15.369,5.5,14.699,5.5,14c0-0.697,0.113-1.369,0.318-2H9V16z M9,11H6.239C6.856,9.821,7.821,8.856,9,8.24V11z M14,20.182
		c-0.631,0.205-1.302,0.318-2,0.318c-0.698,0-1.369-0.113-2-0.318V17h4V20.182z M14,16h-4v-4h4V16z M14,11h-4V7.818
		C10.631,7.613,11.302,7.5,12,7.5c0.698,0,1.369,0.113,2,0.318V11z M15,19.761V17h2.761C17.145,18.179,16.179,19.144,15,19.761z
		 M18.182,16H15v-4h3.182c0.205,0.631,0.318,1.303,0.318,2C18.5,14.699,18.387,15.369,18.182,16z M15,11V8.24
		c1.179,0.616,2.145,1.582,2.761,2.76H15z M19,4h-1V2.5C18,2.224,17.776,2,17.5,2h-12C5.224,2,5,2.224,5,2.5S5.224,3,5.5,3H17v1H5.5
		C4.673,4,4,3.327,4,2.5S4.673,1,5.5,1H19V4z"/>
</g>
<g id="invisible_shape">
	<rect fill="none" width="24" height="24"/>
</g>
</svg>
