<?xml version="1.0" encoding="utf-8"?>
<!-- Generator: Adobe Illustrator 19.2.0, SVG Export Plug-In . SVG Version: 6.00 Build 0)  -->
<svg version="1.1" xmlns="http://www.w3.org/2000/svg" xmlns:xlink="http://www.w3.org/1999/xlink" x="0px" y="0px" width="24px"
	 height="24px" viewBox="0 0 24 24" enable-background="new 0 0 24 24" xml:space="preserve">
<g id="Filled_Icons">
	<g>
		<path d="M23.5,4H4v1H3V4H0.5C0.224,4,0,4.224,0,4.5v15C0,19.776,0.224,20,0.5,20h23c0.276,0,0.5-0.224,0.5-0.5v-15
			C24,4.224,23.776,4,23.5,4z M4,19H3v-1h1V19z M4,17H3v-1h1V17z M4,15H3v-1h1V15z M4,13H3v-1h1V13z M4,11H3v-1h1V11z M4,9H3V8h1V9z
			 M4,7H3V6h1V7z M12.5,6.5l2.894,1.81l-2.401,0.993l-2.527-1.752L12.5,6.5z M21.415,9.236c-0.122,0.318-0.366,0.574-0.678,0.712
			l-2.956,1.459L15,16l-2.273,1.182l1.937-4.531l-4.543,1.79L5.56,11.497l2.004-1.154l2.655,1.188l9.529-3.94
			c0.636-0.253,1.358,0.039,1.64,0.663C21.527,8.563,21.537,8.918,21.415,9.236z"/>
	</g>
</g>
<g id="invisible_shape">
	<rect fill="none" width="24" height="24"/>
</g>
</svg>
