<?xml version="1.0" encoding="utf-8"?>
<!-- Generator: Adobe Illustrator 19.2.0, SVG Export Plug-In . SVG Version: 6.00 Build 0)  -->
<svg version="1.1" xmlns="http://www.w3.org/2000/svg" xmlns:xlink="http://www.w3.org/1999/xlink" x="0px" y="0px" width="24px"
	 height="24px" viewBox="0 0 24 24" enable-background="new 0 0 24 24" xml:space="preserve">
<g id="Filled_Icons">
	<g>
		<path d="M11,11H7.5C7.224,11,7,11.224,7,11.5V14h9v-2.5c0-0.276-0.224-0.5-0.5-0.5H12V9h1V1h-3v8h1V11z"/>
		<path d="M17,8.5v-7C17,1.224,16.776,1,16.5,1H14v8h2.5C16.776,9,17,8.776,17,8.5z"/>
		<path d="M6.5,9H9V1H6.5C6.224,1,6,1.224,6,1.5v7C6,8.776,6.224,9,6.5,9z"/>
		<path d="M18.837,8.232c0.057,0.021,0.115,0.03,0.173,0.03c0.204,0,0.395-0.125,0.469-0.327C19.824,6.994,20,6.007,20,5
			c0-1-0.173-1.98-0.513-2.911c-0.096-0.259-0.382-0.392-0.642-0.297c-0.26,0.095-0.393,0.381-0.298,0.641
			C18.848,3.253,19,4.117,19,5c0,0.889-0.155,1.761-0.46,2.591C18.445,7.85,18.578,8.137,18.837,8.232z"/>
		<path d="M21.443,0.291c-0.118-0.249-0.415-0.356-0.666-0.237c-0.249,0.118-0.355,0.417-0.237,0.666
			C21.177,2.062,21.5,3.502,21.5,5c0,1.467-0.31,2.878-0.921,4.195c-0.116,0.25-0.007,0.548,0.244,0.664
			c0.068,0.031,0.139,0.046,0.209,0.046c0.19,0,0.37-0.107,0.454-0.29C22.159,8.166,22.5,6.612,22.5,5
			C22.5,3.352,22.145,1.769,21.443,0.291z"/>
		<path d="M4,8.263c0.057,0,0.115-0.01,0.172-0.03C4.432,8.137,4.564,7.85,4.469,7.591C4.165,6.761,4.01,5.889,4.01,5
			c0-0.881,0.151-1.746,0.45-2.568c0.095-0.26-0.04-0.546-0.299-0.64C3.899,1.697,3.614,1.831,3.52,2.091
			C3.182,3.022,3.01,4.002,3.01,5c0,1.007,0.175,1.994,0.521,2.936C3.605,8.138,3.796,8.263,4,8.263z"/>
		<path d="M2.43,9.195C1.819,7.878,1.51,6.467,1.51,5c0-1.498,0.322-2.938,0.959-4.28c0.119-0.249,0.013-0.548-0.237-0.666
			C1.982-0.064,1.685,0.042,1.565,0.291C0.865,1.769,0.51,3.352,0.51,5c0,1.612,0.341,3.166,1.013,4.616
			c0.085,0.182,0.266,0.29,0.455,0.29c0.07,0,0.142-0.015,0.209-0.046C2.438,9.743,2.546,9.445,2.43,9.195z"/>
		<path d="M18.985,15.379C18.929,15.157,18.729,15,18.5,15h-1H16H7H6H4.5c-0.229,0-0.43,0.157-0.485,0.379l-2,8
			c-0.037,0.149-0.004,0.308,0.091,0.429C2.2,23.93,2.346,24,2.5,24H9v-5.5C9,18.224,9.224,18,9.5,18h4c0.276,0,0.5,0.224,0.5,0.5
			V24h6.5c0.153,0,0.299-0.07,0.394-0.192c0.095-0.121,0.129-0.279,0.091-0.429L18.985,15.379z"/>
	</g>
</g>
<g id="invisible_shape">
	<rect fill="none" width="24" height="24"/>
</g>
</svg>
