<?xml version="1.0" encoding="utf-8"?>
<!-- Generator: Adobe Illustrator 19.2.0, SVG Export Plug-In . SVG Version: 6.00 Build 0)  -->
<svg version="1.1" xmlns="http://www.w3.org/2000/svg" xmlns:xlink="http://www.w3.org/1999/xlink" x="0px" y="0px" width="24px"
	 height="24px" viewBox="0 0 24 24" enable-background="new 0 0 24 24" xml:space="preserve">
<g id="Filled_Icons">
	<g>
		<rect x="17" y="13" width="7" height="8"/>
		<path d="M19,24h3c1.103,0,2-0.896,2-2h-7C17,23.104,17.896,24,19,24z"/>
		<path d="M18.5,6c0.548,0,1.159,0.413,1.396,1H19.5C19.224,7,19,7.224,19,7.5v1.843c-1.036,0.494-1.791,1.482-1.961,2.657h6.921
			c-0.17-1.175-0.924-2.163-1.96-2.657V7.5C22,7.224,21.776,7,21.5,7h-0.557c-0.246-1.11-1.282-2-2.443-2h-1C15.144,5,14,6.31,14,9
			v7.75C14,20.898,12.065,23,8.25,23C4.804,23,2,20.196,2,16.75V13c0-1.787,1.348-3.263,3.079-3.472C5.313,10.374,6.08,11,7,11
			c1.102,0,2-0.896,2-2c0-1.102-0.898-2-2-2C6.063,7,5.279,7.65,5.063,8.523C2.786,8.743,1,10.666,1,13v3.75
			C1,20.748,4.252,24,8.25,24c4.352,0,6.75-2.573,6.75-7.25V9c0-2.636,1.201-3,2.5-3H18.5z"/>
		<path d="M3.5,6H5c1.252,0,2-0.935,2-2.5v-3C7,0.224,6.776,0,6.5,0h-2C3.198,0,2.099,0.839,1.685,2C1.627,2,1.565,2,1.5,2
			C1.224,2,1,2.224,1,2.5v1C1,3.776,1.224,4,1.5,4C1.5,5.102,2.397,6,3.5,6z"/>
		<path d="M10,6h1.5c1.103,0,2-0.898,2-2C13.776,4,14,3.776,14,3.5v-1C14,2.224,13.776,2,13.5,2c-0.065,0-0.127,0-0.185,0
			c-0.414-1.161-1.514-2-2.815-2h-2C8.224,0,8,0.224,8,0.5v3C8,5.065,8.748,6,10,6z"/>
	</g>
</g>
<g id="invisible_shape">
	<rect fill="none" width="24" height="24"/>
</g>
</svg>
