<?xml version="1.0" encoding="utf-8"?>
<!-- Generator: Adobe Illustrator 19.2.0, SVG Export Plug-In . SVG Version: 6.00 Build 0)  -->
<svg version="1.1" xmlns="http://www.w3.org/2000/svg" xmlns:xlink="http://www.w3.org/1999/xlink" x="0px" y="0px" width="24px"
	 height="24px" viewBox="0 0 24 24" enable-background="new 0 0 24 24" xml:space="preserve">
<g id="Filled_Icons">
	<g>
		<g>
			<path d="M19,7.621L7.148,19.474l0.46,0.789C8.421,21.332,9.764,22,11.165,22H14.5c2.481,0,4.5-2.019,4.5-4.5V7.621z"/>
			<path d="M16,6.379V4.5c0-0.551-0.448-1-1-1s-1,0.449-1,1v3C14,7.776,13.776,8,13.5,8S13,7.776,13,7.5v-5c0-0.551-0.448-1-1-1
				s-1,0.449-1,1v7c0,0.276-0.224,0.5-0.5,0.5S10,9.776,10,9.5v-5c0-0.551-0.448-1-1-1s-1,0.449-1,1v9.879L16,6.379z"/>
			<path d="M7.12,14.825l-2.656-3.102c-0.098-0.08-0.233-0.122-0.375-0.122c-0.183,0-0.378,0.068-0.522,0.212
				c-0.241,0.241-0.273,0.619-0.076,0.897c0.051,0.091,0.897,1.855,1.935,3.808l0.16,0.274l1.811-1.811
				C7.291,14.96,7.193,14.91,7.12,14.825z"/>
		</g>
		<g>
			<path d="M3,22c-0.128,0-0.256-0.049-0.353-0.146c-0.195-0.195-0.195-0.512,0-0.707l19.5-19.5c0.195-0.195,0.512-0.195,0.707,0
				c0.195,0.195,0.195,0.512,0,0.707l-19.5,19.5C3.256,21.951,3.128,22,3,22z"/>
		</g>
	</g>
</g>
<g id="invisible_shape">
	<rect fill="none" width="24" height="24"/>
</g>
</svg>
