<?xml version="1.0" encoding="utf-8"?>
<!-- Generator: Adobe Illustrator 19.2.0, SVG Export Plug-In . SVG Version: 6.00 Build 0)  -->
<svg version="1.1" xmlns="http://www.w3.org/2000/svg" xmlns:xlink="http://www.w3.org/1999/xlink" x="0px" y="0px" width="24px"
	 height="24px" viewBox="0 0 24 24" enable-background="new 0 0 24 24" xml:space="preserve">
<g id="Filled_Icons">
	<g>
		<path d="M11.409,6.052L7.659,12h8.682l-3.75-5.948l3.332-5.285C16.07,0.533,16,0.224,15.767,0.077
			C15.535-0.068,15.225,0,15.077,0.233L12,5.114L8.923,0.233C8.776-0.001,8.467-0.069,8.233,0.077C8,0.224,7.93,0.533,8.077,0.767
			L11.409,6.052z"/>
		<path d="M23.423,23.233L18.232,15H5.768l-5.191,8.233c-0.098,0.153-0.102,0.349-0.015,0.508c0.029,0.053,0.078,0.088,0.123,0.127
			L0.604,24H1h6.691l3.861-7.724c0.17-0.339,0.725-0.339,0.895,0L16.309,24H23h0.396l-0.082-0.132
			c0.045-0.039,0.094-0.073,0.123-0.127C23.525,23.582,23.521,23.387,23.423,23.233z"/>
	</g>
</g>
<g id="invisible_shape">
	<rect fill="none" width="24" height="24"/>
</g>
</svg>
