<?xml version="1.0" encoding="utf-8"?>
<!-- Generator: Adobe Illustrator 19.2.0, SVG Export Plug-In . SVG Version: 6.00 Build 0)  -->
<svg version="1.1" xmlns="http://www.w3.org/2000/svg" xmlns:xlink="http://www.w3.org/1999/xlink" x="0px" y="0px" width="24px"
	 height="24px" viewBox="0 0 24 24" enable-background="new 0 0 24 24" xml:space="preserve">
<g id="Filled_Icons">
	<g>
		<g>
			<path d="M22.842,6.884c-0.472-0.99-1.07-1.907-1.781-2.727c-0.134,0.399-1.667,3.208-1.867,3.581
				c-0.017,0.032-0.049,0.048-0.071,0.073C21.275,6.953,21.752,6.622,22.842,6.884z"/>
			<path d="M20.354,13.426l-2.526,4.614c-0.143,0.261-0.361,0.474-0.625,0.611l-2.273,1.182c-0.219,0.112-0.456,0.168-0.691,0.168
				c-0.505,0-0.995-0.251-1.282-0.724c-0.609,0.483-0.502,0.253-3.914-1.323c-0.177-0.08-0.289-0.259-0.29-0.453l0.001-2.268
				l-0.037-0.031l-2.469-1.594c-0.365-0.236-0.596-0.618-0.659-1.039l-1.409-1.186c-0.192-0.162-0.234-0.441-0.099-0.653
				l2.251-3.505c0.092-0.143,0.25-0.229,0.42-0.229h4.558l0.943-0.481l0-1.722l-1.499-0.857c-0.338-0.191-0.334-0.681-0.001-0.866
				l4.517-2.604C14.227,0.17,13.134,0.001,12,0C5.384,0,0,5.384,0,12.001c0,6.617,5.384,12,12.001,12
				c6.719,0,12.181-5.561,11.985-12.308C23.469,12.126,23.312,12.122,20.354,13.426z"/>
		</g>
		<path d="M13.581,10.025l3.489-1.393l-2.804-1.757c-0.15-0.094-0.339-0.102-0.495-0.021l-2.034,1.051
			c-0.34,0.177-0.362,0.652-0.047,0.861L13.581,10.025z"/>
		<g>
			<path d="M23.845,8.836c-0.379-0.843-1.417-1.266-2.281-0.921l-9.832,3.925l-2.462-1.101c-0.146-0.064-0.315-0.057-0.454,0.023
				l-2.004,1.153c-0.325,0.188-0.334,0.652-0.021,0.853l4.56,2.944c0.136,0.089,0.305,0.104,0.455,0.046l3.483-1.374l-1.517,3.938
				c-0.166,0.429,0.291,0.836,0.697,0.624l2.274-1.182c0.088-0.046,0.161-0.117,0.208-0.204l2.689-4.914l3.302-1.453
				C23.845,10.794,24.247,9.731,23.845,8.836z"/>
		</g>
	</g>
</g>
<g id="invisible_shape">
	<rect fill="none" width="24" height="24"/>
</g>
</svg>
