<?xml version="1.0" encoding="utf-8"?>
<!-- Generator: Adobe Illustrator 16.0.3, SVG Export Plug-In . SVG Version: 6.00 Build 0)  -->
<!DOCTYPE svg PUBLIC "-//W3C//DTD SVG 1.1//EN" "http://www.w3.org/Graphics/SVG/1.1/DTD/svg11.dtd">
<svg version="1.1" xmlns="http://www.w3.org/2000/svg" xmlns:xlink="http://www.w3.org/1999/xlink" x="0px" y="0px" width="24px"
	 height="24px" viewBox="0 0 24 24" enable-background="new 0 0 24 24" xml:space="preserve">
<g id="Outline_Icons">
	<g>
		<g>
			<g>
				<g>
					<path d="M14.5,18c-0.276,0-0.5,0.224-0.5,0.5s0.224,0.5,0.5,0.5s0.5-0.224,0.5-0.5S14.776,18,14.5,18L14.5,18z"/>
				</g>
			</g>
			<g>
				<g>
					<path d="M20.5,19.5c-0.275,0-0.5,0.224-0.5,0.5s0.225,0.5,0.5,0.5c0.277,0,0.5-0.224,0.5-0.5S20.777,19.5,20.5,19.5L20.5,19.5z
						"/>
				</g>
			</g>
			<g>
				<g>
					<path d="M20.5,22.5c-0.275,0-0.5,0.224-0.5,0.5s0.225,0.5,0.5,0.5c0.277,0,0.5-0.224,0.5-0.5S20.777,22.5,20.5,22.5L20.5,22.5z
						"/>
				</g>
			</g>
			<g>
				<g>
					<path d="M14.5,21c-0.276,0-0.5,0.224-0.5,0.5s0.224,0.5,0.5,0.5s0.5-0.224,0.5-0.5S14.776,21,14.5,21L14.5,21z"/>
				</g>
			</g>
			<g>
				<g>
					<path d="M18.5,21c-0.275,0-0.5,0.224-0.5,0.5s0.225,0.5,0.5,0.5c0.277,0,0.5-0.224,0.5-0.5S18.777,21,18.5,21L18.5,21z"/>
				</g>
			</g>
			<g>
				<g>
					<path d="M16.5,22.5c-0.275,0-0.5,0.224-0.5,0.5s0.225,0.5,0.5,0.5c0.277,0,0.5-0.224,0.5-0.5S16.777,22.5,16.5,22.5L16.5,22.5z
						"/>
				</g>
			</g>
			<g>
				<g>
					<path d="M18.5,18c-0.275,0-0.5,0.224-0.5,0.5s0.225,0.5,0.5,0.5c0.277,0,0.5-0.224,0.5-0.5S18.777,18,18.5,18L18.5,18z"/>
				</g>
			</g>
			<g>
				<g>
					<path d="M16.5,19.5c-0.275,0-0.5,0.224-0.5,0.5s0.225,0.5,0.5,0.5c0.277,0,0.5-0.224,0.5-0.5S16.777,19.5,16.5,19.5L16.5,19.5z
						"/>
				</g>
			</g>
			<g>
				<g>
					<path d="M12.5,19.5c-0.276,0-0.5,0.224-0.5,0.5s0.224,0.5,0.5,0.5S13,20.276,13,20S12.776,19.5,12.5,19.5L12.5,19.5z"/>
				</g>
			</g>
			<g>
				<g>
					<path d="M12.5,22.5c-0.276,0-0.5,0.224-0.5,0.5s0.224,0.5,0.5,0.5S13,23.276,13,23S12.776,22.5,12.5,22.5L12.5,22.5z"/>
				</g>
			</g>
			<g>
				<g>
					<path d="M10.5,21c-0.276,0-0.5,0.224-0.5,0.5s0.224,0.5,0.5,0.5s0.5-0.224,0.5-0.5S10.776,21,10.5,21L10.5,21z"/>
				</g>
			</g>
			<g>
				<g>
					<path d="M8.5,22.5C8.224,22.5,8,22.724,8,23s0.224,0.5,0.5,0.5S9,23.276,9,23S8.776,22.5,8.5,22.5L8.5,22.5z"/>
				</g>
			</g>
			<g>
				<g>
					<path d="M10.5,18c-0.276,0-0.5,0.224-0.5,0.5s0.224,0.5,0.5,0.5s0.5-0.224,0.5-0.5S10.776,18,10.5,18L10.5,18z"/>
				</g>
			</g>
			<g>
				<g>
					<path d="M8.5,19.5C8.224,19.5,8,19.724,8,20s0.224,0.5,0.5,0.5S9,20.276,9,20S8.776,19.5,8.5,19.5L8.5,19.5z"/>
				</g>
			</g>
		</g>
		
			<line fill="none" stroke="#000000" stroke-linecap="round" stroke-linejoin="round" stroke-miterlimit="10" x1="2.224" y1="2.223" x2="3" y2="3"/>
		
			<line fill="none" stroke="#000000" stroke-linecap="round" stroke-linejoin="round" stroke-miterlimit="10" x1="12.776" y1="2.223" x2="12" y2="3"/>
		<path fill="none" stroke="#000000" stroke-linecap="round" stroke-linejoin="round" stroke-miterlimit="10" d="M21.988,19.633
			C22.909,18.9,23.5,17.77,23.5,16.5c0-1.373-0.693-2.585-1.748-3.306c0.916-2.109-0.801-4.457-3.123-4.169
			C17.834,6.965,15.84,5.5,13.5,5.5c-2.877,0-5.234,2.21-5.477,5.024C5.486,10.764,3.5,12.899,3.5,15.5
			c0,1.831,0.984,3.433,2.452,4.304"/>
		<path fill="none" stroke="#000000" stroke-linecap="round" stroke-linejoin="round" stroke-miterlimit="10" d="M4.174,9.723
			C3.748,9.087,3.5,8.322,3.5,7.5c0-2.209,1.791-4,4-4c0.961,0,1.842,0.339,2.532,0.903"/>
		
			<line fill="none" stroke="#000000" stroke-linecap="round" stroke-linejoin="round" stroke-miterlimit="10" x1="0.5" y1="6.5" x2="1.5" y2="6.5"/>
		
			<line fill="none" stroke="#000000" stroke-linecap="round" stroke-linejoin="round" stroke-miterlimit="10" x1="7.5" y1="0.5" x2="7.5" y2="1.5"/>
	</g>
</g>
<g id="Invisible_Shape">
	<rect fill="none" width="24" height="24"/>
</g>
</svg>
