<?xml version="1.0" encoding="utf-8"?>
<!-- Generator: Adobe Illustrator 16.0.3, SVG Export Plug-In . SVG Version: 6.00 Build 0)  -->
<!DOCTYPE svg PUBLIC "-//W3C//DTD SVG 1.1//EN" "http://www.w3.org/Graphics/SVG/1.1/DTD/svg11.dtd">
<svg version="1.1" xmlns="http://www.w3.org/2000/svg" xmlns:xlink="http://www.w3.org/1999/xlink" x="0px" y="0px" width="24px"
	 height="24px" viewBox="0 0 24 24" enable-background="new 0 0 24 24" xml:space="preserve">
<g id="Outline_Icons">
	<g>
		<path fill="none" stroke="#000000" stroke-linecap="round" stroke-linejoin="round" stroke-miterlimit="10" d="M18.751,16.194
			c0.917-2.109-0.8-4.457-3.123-4.169C14.834,9.965,12.84,8.5,10.5,8.5c-2.877,0-5.234,2.21-5.477,5.024
			C2.486,13.764,0.5,15.899,0.5,18.5c0,2.762,2.238,5,5,5h11c2.209,0,4-1.79,4-4C20.5,18.127,19.807,16.915,18.751,16.194z"/>
		<path fill="none" stroke="#000000" stroke-linecap="round" stroke-linejoin="round" stroke-miterlimit="10" d="M22.013,14.332
			c0.519-0.116,1.017-0.29,1.487-0.514c-5.335-2.54-5.317-10.107,0-12.636c-4.091-1.944-8.854,0.443-9.824,4.788"/>
	</g>
</g>
<g id="Invisible_Shape">
	<rect fill="none" width="24" height="24"/>
</g>
</svg>
