<?xml version="1.0" encoding="utf-8"?>
<!-- Generator: Adobe Illustrator 16.0.3, SVG Export Plug-In . SVG Version: 6.00 Build 0)  -->
<!DOCTYPE svg PUBLIC "-//W3C//DTD SVG 1.1//EN" "http://www.w3.org/Graphics/SVG/1.1/DTD/svg11.dtd">
<svg version="1.1" xmlns="http://www.w3.org/2000/svg" xmlns:xlink="http://www.w3.org/1999/xlink" x="0px" y="0px" width="24px"
	 height="24px" viewBox="0 0 24 24" enable-background="new 0 0 24 24" xml:space="preserve">
<g id="Outline_Icons">
	<g>
		<g>
			<g>
				<g>
					<path d="M11.5,18c-0.275,0-0.5,0.224-0.5,0.5s0.225,0.5,0.5,0.5c0.277,0,0.5-0.224,0.5-0.5S11.777,18,11.5,18L11.5,18z"/>
				</g>
			</g>
			<g>
				<g>
					<path d="M17.5,19.5c-0.275,0-0.5,0.224-0.5,0.5s0.225,0.5,0.5,0.5c0.277,0,0.5-0.224,0.5-0.5S17.777,19.5,17.5,19.5L17.5,19.5z
						"/>
				</g>
			</g>
			<g>
				<g>
					<path d="M17.5,22.5c-0.275,0-0.5,0.224-0.5,0.5s0.225,0.5,0.5,0.5c0.277,0,0.5-0.224,0.5-0.5S17.777,22.5,17.5,22.5L17.5,22.5z
						"/>
				</g>
			</g>
			<g>
				<g>
					<path d="M11.5,21c-0.275,0-0.5,0.224-0.5,0.5s0.225,0.5,0.5,0.5c0.277,0,0.5-0.224,0.5-0.5S11.777,21,11.5,21L11.5,21z"/>
				</g>
			</g>
			<g>
				<g>
					<path d="M15.5,21c-0.275,0-0.5,0.224-0.5,0.5s0.225,0.5,0.5,0.5c0.277,0,0.5-0.224,0.5-0.5S15.777,21,15.5,21L15.5,21z"/>
				</g>
			</g>
			<g>
				<g>
					<path d="M13.5,22.5c-0.275,0-0.5,0.224-0.5,0.5s0.225,0.5,0.5,0.5c0.277,0,0.5-0.224,0.5-0.5S13.777,22.5,13.5,22.5L13.5,22.5z
						"/>
				</g>
			</g>
			<g>
				<g>
					<path d="M15.5,18c-0.275,0-0.5,0.224-0.5,0.5s0.225,0.5,0.5,0.5c0.277,0,0.5-0.224,0.5-0.5S15.777,18,15.5,18L15.5,18z"/>
				</g>
			</g>
			<g>
				<g>
					<path d="M13.5,19.5c-0.275,0-0.5,0.224-0.5,0.5s0.225,0.5,0.5,0.5c0.277,0,0.5-0.224,0.5-0.5S13.777,19.5,13.5,19.5L13.5,19.5z
						"/>
				</g>
			</g>
			<g>
				<g>
					<path d="M9.5,19.5C9.225,19.5,9,19.724,9,20s0.225,0.5,0.5,0.5c0.277,0,0.5-0.224,0.5-0.5S9.777,19.5,9.5,19.5L9.5,19.5z"/>
				</g>
			</g>
			<g>
				<g>
					<path d="M9.5,22.5C9.225,22.5,9,22.724,9,23s0.225,0.5,0.5,0.5c0.277,0,0.5-0.224,0.5-0.5S9.777,22.5,9.5,22.5L9.5,22.5z"/>
				</g>
			</g>
			<g>
				<g>
					<path d="M7.5,21C7.225,21,7,21.224,7,21.5S7.225,22,7.5,22C7.777,22,8,21.776,8,21.5S7.777,21,7.5,21L7.5,21z"/>
				</g>
			</g>
			<g>
				<g>
					<path d="M5.5,22.5C5.225,22.5,5,22.724,5,23s0.225,0.5,0.5,0.5C5.777,23.5,6,23.276,6,23S5.777,22.5,5.5,22.5L5.5,22.5z"/>
				</g>
			</g>
			<g>
				<g>
					<path d="M7.5,18C7.225,18,7,18.224,7,18.5S7.225,19,7.5,19C7.777,19,8,18.776,8,18.5S7.777,18,7.5,18L7.5,18z"/>
				</g>
			</g>
			<g>
				<g>
					<path d="M5.5,19.5C5.225,19.5,5,19.724,5,20s0.225,0.5,0.5,0.5C5.777,20.5,6,20.276,6,20S5.777,19.5,5.5,19.5L5.5,19.5z"/>
				</g>
			</g>
		</g>
		<path fill="none" stroke="#000000" stroke-linecap="round" stroke-linejoin="round" stroke-miterlimit="10" d="M18.988,19.633
			C19.909,18.9,20.5,17.77,20.5,16.5c0-1.373-0.693-2.585-1.748-3.306c0.916-2.109-0.801-4.457-3.123-4.169
			C14.834,6.965,12.84,5.5,10.5,5.5c-2.877,0-5.234,2.21-5.477,5.024C2.486,10.764,0.5,12.899,0.5,15.5
			c0,1.831,0.984,3.433,2.451,4.304"/>
		<path fill="none" stroke="#000000" stroke-linecap="round" stroke-linejoin="round" stroke-miterlimit="10" d="M22.266,11.985
			c0.431-0.097,0.844-0.241,1.234-0.427c-4.433-2.108-4.414-8.395,0-10.491c-3.396-1.614-7.352,0.368-8.157,3.975"/>
	</g>
</g>
<g id="Invisible_Shape">
	<rect fill="none" width="24" height="24"/>
</g>
</svg>
