<?xml version="1.0" encoding="utf-8"?>
<!-- Generator: Adobe Illustrator 16.0.3, SVG Export Plug-In . SVG Version: 6.00 Build 0)  -->
<!DOCTYPE svg PUBLIC "-//W3C//DTD SVG 1.1//EN" "http://www.w3.org/Graphics/SVG/1.1/DTD/svg11.dtd">
<svg version="1.1" xmlns="http://www.w3.org/2000/svg" xmlns:xlink="http://www.w3.org/1999/xlink" x="0px" y="0px" width="24px"
	 height="24px" viewBox="0 0 24 24" enable-background="new 0 0 24 24" xml:space="preserve">
<g id="Outline_Icons">
	<g>
		<polygon fill="none" stroke="#000000" stroke-linejoin="round" stroke-miterlimit="10" points="16.091,6.09 19,5 16.091,3.908 
			15,1 13.909,3.908 11,5 13.909,6.09 15,9 		"/>
		<polygon fill="none" stroke="#000000" stroke-linejoin="round" stroke-miterlimit="10" points="20.545,11.545 22,11 
			20.545,10.454 20,9 19.455,10.454 18,11 19.455,11.545 20,13 		"/>
		<path fill="none" stroke="#000000" stroke-linecap="round" stroke-linejoin="round" stroke-miterlimit="10" d="M17,15.5
			c-5.72,0-9.798-5.537-8.126-10.994C4.238,4.574,0.5,8.348,0.5,13c0,4.693,3.806,8.5,8.5,8.5c3.826,0,7.061-2.529,8.126-6.007
			C17.084,15.494,17.043,15.5,17,15.5z"/>
	</g>
</g>
<g id="Invisible_Shape">
	<rect fill="none" width="24" height="24"/>
</g>
</svg>
