<?xml version="1.0" encoding="utf-8"?>
<!-- Generator: Adobe Illustrator 16.0.3, SVG Export Plug-In . SVG Version: 6.00 Build 0)  -->
<!DOCTYPE svg PUBLIC "-//W3C//DTD SVG 1.1//EN" "http://www.w3.org/Graphics/SVG/1.1/DTD/svg11.dtd">
<svg version="1.1" xmlns="http://www.w3.org/2000/svg" xmlns:xlink="http://www.w3.org/1999/xlink" x="0px" y="0px" width="24px"
	 height="24px" viewBox="0 0 24 24" enable-background="new 0 0 24 24" xml:space="preserve">
<g id="Outline_Icons">
	<g>
		<path fill="none" stroke="#000000" stroke-linejoin="round" stroke-miterlimit="10" d="M23.493,23.479l0.005-3.021
			c-2.505,0.521-4.06-1.979-4.06-1.979h-0.004c-1.487,2.58-5.445,2.875-7.236,0h-0.004c-1.489,2.586-5.449,2.87-7.235,0H4.955
			c0,0-2.004,2.542-4.455,2.021l-0.007,2.979H23.493z"/>
		<path fill="none" stroke="#000000" stroke-linejoin="round" stroke-miterlimit="10" d="M23.493,20.479l0.005-4.021
			c-2.505,0.521-4.06-1.979-4.06-1.979h-0.004c-1.487,2.58-5.445,2.875-7.236,0h-0.004c-1.489,2.586-5.449,2.87-7.235,0H4.955
			c0,0-2.004,2.542-4.455,2.021l-0.007,3.979"/>
		<polyline fill="none" stroke="#000000" stroke-linecap="round" stroke-linejoin="round" stroke-miterlimit="10" points="6,11 
			8.5,13.5 11,11 		"/>
		
			<line fill="none" stroke="#000000" stroke-linecap="round" stroke-linejoin="round" stroke-miterlimit="10" x1="8.5" y1="5.5" x2="8.5" y2="13.5"/>
		<polyline fill="none" stroke="#000000" stroke-linecap="round" stroke-linejoin="round" stroke-miterlimit="10" points="13,11 
			15.5,13.5 18,11 		"/>
		
			<line fill="none" stroke="#000000" stroke-linecap="round" stroke-linejoin="round" stroke-miterlimit="10" x1="15.5" y1="5.5" x2="15.5" y2="13.5"/>
	</g>
</g>
<g id="Invisible_Shape">
	<rect fill="none" width="24" height="24"/>
</g>
</svg>
