<?xml version="1.0" encoding="utf-8"?>
<!-- Generator: Adobe Illustrator 16.0.3, SVG Export Plug-In . SVG Version: 6.00 Build 0)  -->
<!DOCTYPE svg PUBLIC "-//W3C//DTD SVG 1.1//EN" "http://www.w3.org/Graphics/SVG/1.1/DTD/svg11.dtd">
<svg version="1.1" xmlns="http://www.w3.org/2000/svg" xmlns:xlink="http://www.w3.org/1999/xlink" x="0px" y="0px" width="24px"
	 height="24px" viewBox="0 0 24 24" enable-background="new 0 0 24 24" xml:space="preserve">
<g id="Outline_Icons">
	<g>
		<path fill="none" stroke="#000000" stroke-linecap="round" stroke-linejoin="round" stroke-miterlimit="10" d="M16.26,17.258
			c0.041,0.693,0.58,1.242,1.24,1.242c0.686,0,1.24-0.594,1.24-1.327c0-1.08-1.024-1.112-1.241-1.173
			c-0.217-0.064-1.241-0.096-1.241-1.175c0-0.732,0.557-1.325,1.242-1.325c0.658,0,1.197,0.548,1.238,1.241"/>
		<path fill="none" stroke="#000000" stroke-linecap="round" stroke-linejoin="round" stroke-miterlimit="10" d="M6.262,14.74
			C6.283,14.258,6.504,13.5,7.5,13.5c1.057,0,1.24,0.85,1.24,1.323C8.74,15.299,8.443,16,7.387,16c1.057,0,1.354,0.701,1.354,1.177
			c0,0.473-0.184,1.323-1.24,1.323c-0.996,0-1.217-0.757-1.238-1.239"/>
		<polygon fill="none" stroke="#000000" stroke-linecap="round" stroke-linejoin="round" stroke-miterlimit="10" points="21.5,23.5 
			2.5,23.5 2.5,0.5 15.5,0.5 21.5,6.5 		"/>
		<polyline fill="none" stroke="#000000" stroke-linecap="round" stroke-linejoin="round" stroke-miterlimit="10" points="15.5,0.5 
			15.5,6.5 21.5,6.5 		"/>
		<path fill="none" stroke="#000000" stroke-linecap="round" stroke-linejoin="round" stroke-miterlimit="10" d="M11.5,18.5v-5h1
			c1.152,0,2,1.068,2,2.5c0,1.432-0.848,2.5-2,2.5H11.5z"/>
	</g>
</g>
<g id="Invisible_Shape">
	<rect fill="none" width="24" height="24"/>
</g>
</svg>
