<?xml version="1.0" encoding="utf-8"?>
<!-- Generator: Adobe Illustrator 16.0.3, SVG Export Plug-In . SVG Version: 6.00 Build 0)  -->
<!DOCTYPE svg PUBLIC "-//W3C//DTD SVG 1.1//EN" "http://www.w3.org/Graphics/SVG/1.1/DTD/svg11.dtd">
<svg version="1.1" xmlns="http://www.w3.org/2000/svg" xmlns:xlink="http://www.w3.org/1999/xlink" x="0px" y="0px" width="24px"
	 height="24px" viewBox="0 0 24 24" enable-background="new 0 0 24 24" xml:space="preserve">
<g id="Outline_Icons">
	<g>
		
			<rect x="0.5" y="6.5" fill="none" stroke="#000000" stroke-linecap="round" stroke-linejoin="round" stroke-miterlimit="10" width="23" height="12"/>
		<path fill="none" stroke="#000000" stroke-linecap="round" stroke-linejoin="round" stroke-miterlimit="10" d="M5.5,11
			c0-0.829,0.672-1.5,1.5-1.5s1.5,0.671,1.5,1.5c0,0.828-0.672,1.5-1.5,1.5"/>
		<path fill="none" stroke="#000000" stroke-linecap="round" stroke-linejoin="round" stroke-miterlimit="10" d="M5.5,14
			c0,0.828,0.672,1.5,1.5,1.5s1.5-0.672,1.5-1.5c0-0.829-0.672-1.5-1.5-1.5"/>
		<path fill="none" stroke="#000000" stroke-linecap="round" stroke-linejoin="round" stroke-miterlimit="10" d="M10.5,15.5V9.501
			h1.438c1.562,0,2.562,1.567,2.562,2.999s-1,3-2.562,3H10.5z"/>
		<path fill="none" stroke="#000000" stroke-linecap="round" stroke-linejoin="round" stroke-miterlimit="10" d="M16.5,14.258
			c0.041,0.693,0.58,1.242,1.24,1.242c0.686,0,1.24-0.594,1.24-1.327c0-1.08-1.021-1.762-1.238-1.824
			c-0.217-0.064-1.242-0.445-1.242-1.524c0-0.732,0.557-1.325,1.242-1.325c0.658,0,1.197,0.548,1.238,1.241"/>
	</g>
</g>
<g id="Invisible_Shape">
	<rect fill="none" width="24" height="24"/>
</g>
</svg>
