<?xml version="1.0" encoding="utf-8"?>
<!-- Generator: Adobe Illustrator 19.2.1, SVG Export Plug-In . SVG Version: 6.00 Build 0)  -->
<svg version="1.1" xmlns="http://www.w3.org/2000/svg" xmlns:xlink="http://www.w3.org/1999/xlink" x="0px" y="0px" width="24px"
	 height="24px" viewBox="0 0 24 24" enable-background="new 0 0 24 24" xml:space="preserve">
<g id="Filled_Icons_1_">
	<g id="Filled_Icons">
		<path d="M20.5,4H20V0.5C20,0.224,19.776,0,19.5,0h-14C4.121,0,3,1.122,3,2.5v19C3,22.878,4.121,24,5.5,24h15
			c0.276,0,0.5-0.224,0.5-0.5v-19C21,4.224,20.776,4,20.5,4z M17,19H7c0-2.542,0.669-4.654,3.163-5.633C9.457,12.818,9,11.962,9,11
			c0-1.654,1.346-3,3-3s3,1.346,3,3c0,0.962-0.457,1.818-1.163,2.367C16.336,14.347,17,16.465,17,19z M19,4h-1V2.5
			C18,2.224,17.776,2,17.5,2h-12C5.224,2,5,2.224,5,2.5C5,2.776,5.224,3,5.5,3H17v1H5.5C4.673,4,4,3.327,4,2.5S4.673,1,5.5,1H19V4z"
			/>
	</g>
	<g id="New_icons">
	</g>
</g>
<g id="Invisible_Shape">
	<rect fill="none" width="24" height="24"/>
</g>
</svg>
