<?xml version="1.0" encoding="utf-8"?>
<!-- Generator: Adobe Illustrator 19.2.1, SVG Export Plug-In . SVG Version: 6.00 Build 0)  -->
<svg version="1.1" xmlns="http://www.w3.org/2000/svg" xmlns:xlink="http://www.w3.org/1999/xlink" x="0px" y="0px" width="24px"
	 height="24px" viewBox="0 0 24 24" enable-background="new 0 0 24 24" xml:space="preserve">
<g id="Filled_Icons_1_">
	<g id="Filled_Icons">
		<g>
			<path d="M4.5,2C4.224,2,4,2.224,4,2.5S4.224,3,4.5,3h16C20.776,3,21,2.776,21,2.5S20.776,2,20.5,2H4.5z"/>
			<g>
				<path d="M9.529,16.999c0.07,0,0.141-0.015,0.207-0.045l5.5-2.5c0.179-0.081,0.293-0.259,0.293-0.455
					c0-0.196-0.114-0.374-0.293-0.455l-5.5-2.5c-0.155-0.071-0.335-0.057-0.478,0.035c-0.144,0.092-0.229,0.25-0.229,0.42v5
					c0,0.17,0.086,0.328,0.229,0.42C9.341,16.972,9.435,16.999,9.529,16.999z"/>
				<path d="M21.5,4h-17C3.673,4,3,3.327,3,2.5S3.673,1,4.5,1h17C21.776,1,22,0.776,22,0.5S21.776,0,21.5,0h-17
					C3.121,0,2,1.122,2,2.5v19C2,22.878,3.121,24,4.5,24h17c0.276,0,0.5-0.224,0.5-0.5v-19C22,4.224,21.776,4,21.5,4z M19,20.485
					c0,0.276-0.224,0.5-0.5,0.515h-13C5.224,20.985,5,20.761,5,20.485V19h14V20.485z M19,18H5v-8h14V18z M19,9H5V7.485
					c0-0.276,0.224-0.5,0.5-0.5h13c0.276,0,0.5,0.224,0.5,0.5V9z"/>
			</g>
		</g>
	</g>
	<g id="New_icons">
	</g>
</g>
<g id="Invisible_Shape">
	<rect fill="none" width="24" height="24"/>
</g>
</svg>
