<?xml version="1.0" encoding="utf-8"?>
<!-- Generator: Adobe Illustrator 19.2.1, SVG Export Plug-In . SVG Version: 6.00 Build 0)  -->
<svg version="1.1" xmlns="http://www.w3.org/2000/svg" xmlns:xlink="http://www.w3.org/1999/xlink" x="0px" y="0px" width="24px"
	 height="24px" viewBox="0 0 24 24" enable-background="new 0 0 24 24" xml:space="preserve">
<g id="Filled_Icons_1_">
	<g id="Filled_Icons">
	</g>
	<g id="New_icons">
		<g>
			<path d="M4.5,2C4.224,2,4,2.224,4,2.5S4.224,3,4.5,3h16C20.776,3,21,2.776,21,2.5S20.776,2,20.5,2H4.5z"/>
			<path d="M21.5,4h-17C3.673,4,3,3.327,3,2.5S3.673,1,4.5,1h17C21.776,1,22,0.776,22,0.5S21.776,0,21.5,0h-17
				C3.121,0,2,1.122,2,2.5v19C2,22.878,3.121,24,4.5,24h17c0.276,0,0.5-0.224,0.5-0.5v-19C22,4.224,21.776,4,21.5,4z M12.294,19.404
				C12.207,19.469,12.104,19.5,12,19.5s-0.207-0.031-0.294-0.096C11.473,19.234,6,15.219,6,12.037C6,9.823,7.639,8.5,9.223,8.5
				c0.951,0,2.071,0.492,2.777,1.785C12.706,8.992,13.826,8.5,14.777,8.5C16.361,8.5,18,9.823,18,12.037
				C18,15.219,12.527,19.234,12.294,19.404z"/>
		</g>
	</g>
</g>
<g id="Invisible_Shape">
	<rect fill="none" width="24" height="24"/>
</g>
</svg>
