<?xml version="1.0" encoding="utf-8"?>
<!-- Generator: Adobe Illustrator 19.2.1, SVG Export Plug-In . SVG Version: 6.00 Build 0)  -->
<svg version="1.1" xmlns="http://www.w3.org/2000/svg" xmlns:xlink="http://www.w3.org/1999/xlink" x="0px" y="0px" width="24px"
	 height="24px" viewBox="0 0 24 24" enable-background="new 0 0 24 24" xml:space="preserve">
<g id="Filled_Icons_1_">
	<g id="Filled_Icons">
	</g>
	<g id="New_icons">
		<g>
			<path d="M4.5,2C4.224,2,4,2.224,4,2.5S4.224,3,4.5,3h16C20.776,3,21,2.776,21,2.5S20.776,2,20.5,2H4.5z"/>
			<g>
				<path d="M18.03,21.801l-2.103-0.789C15.297,21.621,14.443,22,13.5,22c-1.93,0-3.5-1.57-3.5-3.5s1.57-3.5,3.5-3.5
					c0.811,0,1.548,0.288,2.142,0.752l2.365-1.183c0-0.023-0.007-0.045-0.007-0.069c0-1.93,1.57-3.5,3.5-3.5
					c0.171,0,0.335,0.027,0.5,0.051V4.5C22,4.224,21.776,4,21.5,4h-17C3.673,4,3,3.327,3,2.5S3.673,1,4.5,1h17
					C21.776,1,22,0.776,22,0.5S21.776,0,21.5,0h-17C3.121,0,2,1.122,2,2.5v19C2,22.878,3.121,24,4.5,24h14.575
					C18.493,23.429,18.105,22.661,18.03,21.801z"/>
			</g>
			<path d="M21.5,19c-0.891,0-1.668,0.471-2.111,1.174l-3.428-1.286C15.981,18.761,16,18.633,16,18.5
				c0-0.224-0.039-0.437-0.095-0.643l3.638-1.819C20.002,16.619,20.704,17,21.5,17c1.379,0,2.5-1.122,2.5-2.5S22.879,12,21.5,12
				S19,13.122,19,14.5c0,0.224,0.039,0.437,0.095,0.644l-3.638,1.819C14.999,16.381,14.297,16,13.5,16c-1.379,0-2.5,1.122-2.5,2.5
				s1.121,2.5,2.5,2.5c0.891,0,1.668-0.471,2.111-1.174l3.428,1.286C19.02,21.239,19,21.367,19,21.5c0,1.378,1.121,2.5,2.5,2.5
				s2.5-1.122,2.5-2.5S22.879,19,21.5,19z M21.5,13c0.827,0,1.5,0.673,1.5,1.5S22.327,16,21.5,16S20,15.327,20,14.5
				S20.673,13,21.5,13z M13.5,20c-0.827,0-1.5-0.673-1.5-1.5s0.673-1.5,1.5-1.5s1.5,0.673,1.5,1.5S14.327,20,13.5,20z M21.5,23
				c-0.827,0-1.5-0.673-1.5-1.5s0.673-1.5,1.5-1.5s1.5,0.673,1.5,1.5S22.327,23,21.5,23z"/>
		</g>
	</g>
</g>
<g id="Invisible_Shape">
	<rect fill="none" width="24" height="24"/>
</g>
</svg>
