<?xml version="1.0" encoding="utf-8"?>
<!-- Generator: Adobe Illustrator 19.2.1, SVG Export Plug-In . SVG Version: 6.00 Build 0)  -->
<svg version="1.1" xmlns="http://www.w3.org/2000/svg" xmlns:xlink="http://www.w3.org/1999/xlink" x="0px" y="0px" width="24px"
	 height="24px" viewBox="0 0 24 24" enable-background="new 0 0 24 24" xml:space="preserve">
<g id="Filled_Icons_1_">
	<g id="Filled_Icons">
		<g>
			<path d="M0,1.5V18c0,0.276,0.224,0.5,0.5,0.5c5.913,0,10.5,1.613,10.5,3V3.329C9.096,1.847,4.747,1,0.5,1C0.224,1,0,1.224,0,1.5z
				 M2.533,5.501c2.599,0.176,4.959,0.627,6.646,1.272C9.436,6.872,9.565,7.16,9.467,7.418c-0.1,0.261-0.392,0.388-0.646,0.288
				c-1.596-0.61-3.853-1.038-6.355-1.208C2.19,6.481,1.982,6.243,2.001,5.966C2.02,5.691,2.255,5.478,2.533,5.501z M2.533,8.501
				c2.599,0.176,4.959,0.627,6.646,1.272c0.258,0.099,0.387,0.387,0.288,0.646c-0.1,0.261-0.392,0.388-0.646,0.288
				c-1.596-0.61-3.853-1.038-6.355-1.208C2.19,9.481,1.982,9.243,2.001,8.966C2.02,8.691,2.255,8.477,2.533,8.501z M2.533,11.501
				c2.599,0.176,4.959,0.627,6.646,1.272c0.258,0.099,0.387,0.387,0.288,0.646c-0.1,0.261-0.392,0.388-0.646,0.288
				c-1.596-0.61-3.853-1.038-6.355-1.208c-0.275-0.018-0.483-0.256-0.465-0.532C2.02,11.691,2.255,11.48,2.533,11.501z
				 M2.533,14.501c2.599,0.176,4.959,0.627,6.646,1.272c0.258,0.099,0.387,0.387,0.288,0.646c-0.1,0.261-0.392,0.388-0.646,0.288
				c-1.596-0.61-3.853-1.038-6.355-1.208c-0.275-0.018-0.483-0.256-0.465-0.532C2.02,14.691,2.255,14.477,2.533,14.501z"/>
			<path d="M22.5,1C19.31,1,14.277,1.557,12,3.329V21.5c0-1.387,4.586-3,10.5-3c0.276,0,0.5-0.224,0.5-0.5V1.5
				C23,1.224,22.776,1,22.5,1z M17,2.52c0.69-0.11,2.084-0.326,3-0.426v6.911l-1.118-1.327c-0.188-0.225-0.528-0.239-0.735-0.032
				L17,8.793V2.52z M20.533,15.498c-2.501,0.169-4.758,0.598-6.354,1.208c-0.261,0.101-0.549-0.033-0.647-0.288
				c-0.098-0.258,0.031-0.547,0.289-0.646c1.688-0.645,4.047-1.096,6.644-1.272c0.285-0.023,0.515,0.19,0.533,0.465
				C21.018,15.243,20.809,15.481,20.533,15.498z M20.533,12.498c-2.501,0.169-4.758,0.598-6.354,1.208
				c-0.261,0.101-0.549-0.033-0.647-0.288c-0.098-0.258,0.031-0.547,0.289-0.646c1.688-0.645,4.047-1.096,6.644-1.272
				c0.285-0.02,0.515,0.19,0.533,0.465C21.018,12.243,20.809,12.481,20.533,12.498z"/>
		</g>
	</g>
	<g id="New_icons">
	</g>
</g>
<g id="Invisible_Shape">
	<rect fill="none" width="24" height="24"/>
</g>
</svg>
