<?xml version="1.0" encoding="utf-8"?>
<!-- Generator: Adobe Illustrator 19.2.1, SVG Export Plug-In . SVG Version: 6.00 Build 0)  -->
<svg version="1.1" xmlns="http://www.w3.org/2000/svg" xmlns:xlink="http://www.w3.org/1999/xlink" x="0px" y="0px" width="24px"
	 height="24px" viewBox="0 0 24 24" enable-background="new 0 0 24 24" xml:space="preserve">
<g id="Filled_Icons_1_">
	<g id="Filled_Icons">
		<g>
			<g>
				<circle cx="16.5" cy="16.5" r="1"/>
				<path d="M16.5,9C12.364,9,9,12.365,9,16.5c0,4.136,3.364,7.5,7.5,7.5s7.5-3.364,7.5-7.5C24,12.365,20.636,9,16.5,9z M16.5,19
					c-1.379,0-2.5-1.122-2.5-2.5s1.121-2.5,2.5-2.5s2.5,1.122,2.5,2.5S17.879,19,16.5,19z"/>
			</g>
			<path d="M4.5,2C4.224,2,4,2.224,4,2.5S4.224,3,4.5,3h16C20.776,3,21,2.776,21,2.5S20.776,2,20.5,2H4.5z"/>
			<g>
				<path d="M8,16.5C8,11.813,11.814,8,16.5,8c2.098,0,4.016,0.768,5.5,2.031V4.5C22,4.224,21.776,4,21.5,4h-17
					C3.673,4,3,3.327,3,2.5S3.673,1,4.5,1h17C21.776,1,22,0.776,22,0.5S21.776,0,21.5,0h-17C3.121,0,2,1.122,2,2.5v19
					C2,22.878,3.121,24,4.5,24h8.009C9.829,22.568,8,19.745,8,16.5z"/>
			</g>
		</g>
	</g>
	<g id="New_icons">
	</g>
</g>
<g id="Invisible_Shape">
	<rect fill="none" width="24" height="24"/>
</g>
</svg>
