<?xml version="1.0" encoding="utf-8"?>
<!-- Generator: Adobe Illustrator 19.2.1, SVG Export Plug-In . SVG Version: 6.00 Build 0)  -->
<svg version="1.1" xmlns="http://www.w3.org/2000/svg" xmlns:xlink="http://www.w3.org/1999/xlink" x="0px" y="0px" width="24px"
	 height="24px" viewBox="0 0 24 24" enable-background="new 0 0 24 24" xml:space="preserve">
<g id="Filled_Icons_1_">
	<g id="Filled_Icons">
	</g>
	<g id="New_icons">
		<g>
			<path d="M4.5,2C4.224,2,4,2.224,4,2.5S4.224,3,4.5,3h16C20.776,3,21,2.776,21,2.5S20.776,2,20.5,2H4.5z"/>
			<path d="M21.5,4h-17C3.673,4,3,3.327,3,2.5S3.673,1,4.5,1h17C21.776,1,22,0.776,22,0.5S21.776,0,21.5,0h-17
				C3.121,0,2,1.122,2,2.5v19C2,22.878,3.121,24,4.5,24h17c0.276,0,0.5-0.224,0.5-0.5v-19C22,4.224,21.776,4,21.5,4z M8.5,8
				c1.102,0,2,0.897,2,2c0,1.102-0.898,2-2,2s-2-0.898-2-2C6.5,8.897,7.398,8,8.5,8z M18.914,19.78C18.821,19.917,18.666,20,18.5,20
				h-11c-0.18,0-0.347-0.097-0.436-0.253c-0.088-0.157-0.086-0.349,0.007-0.504l3-5c0.083-0.139,0.229-0.228,0.391-0.241
				c0.159-0.011,0.318,0.053,0.422,0.178l1.99,2.389l2.171-4.775c0.082-0.183,0.26-0.289,0.467-0.293
				c0.2,0.005,0.378,0.128,0.452,0.314l3,7.5C19.025,19.469,19.007,19.644,18.914,19.78z"/>
		</g>
	</g>
</g>
<g id="Invisible_Shape">
	<rect fill="none" width="24" height="24"/>
</g>
</svg>
