<?xml version="1.0" encoding="utf-8"?>
<!-- Generator: Adobe Illustrator 19.2.1, SVG Export Plug-In . SVG Version: 6.00 Build 0)  -->
<svg version="1.1" xmlns="http://www.w3.org/2000/svg" xmlns:xlink="http://www.w3.org/1999/xlink" x="0px" y="0px" width="24px"
	 height="24px" viewBox="0 0 24 24" enable-background="new 0 0 24 24" xml:space="preserve">
<g id="Filled_Icons_1_">
	<g id="Filled_Icons">
		<path d="M21,4.5C21,4.224,20.776,4,20.5,4H20V0.5C20,0.224,19.776,0,19.5,0h-14C4.121,0,3,1.122,3,2.5v19
			C3,22.878,4.121,24,5.5,24h15c0.276,0,0.5-0.224,0.5-0.5V4.5z M17,14.293l-2.5-2.5l-2.5,2.5V4h5V14.293z M19,4h-1V3.5
			C18,3.224,17.776,3,17.5,3h-6.001C11.224,3,11,3.224,11,3.5V4H5.5C4.673,4,4,3.327,4,2.5S4.673,1,5.5,1H19V4z"/>
	</g>
	<g id="New_icons">
	</g>
</g>
<g id="Invisible_Shape">
	<rect fill="none" width="24" height="24"/>
</g>
</svg>
