<?xml version="1.0" encoding="utf-8"?>
<!-- Generator: Adobe Illustrator 19.2.1, SVG Export Plug-In . SVG Version: 6.00 Build 0)  -->
<svg version="1.1" xmlns="http://www.w3.org/2000/svg" xmlns:xlink="http://www.w3.org/1999/xlink" x="0px" y="0px" width="24px"
	 height="24px" viewBox="0 0 24 24" enable-background="new 0 0 24 24" xml:space="preserve">
<g id="Filled_Icons_1_">
	<g id="Filled_Icons">
		<g>
			<path d="M21.5,4h-17C3.673,4,3,3.327,3,2.5S3.673,1,4.5,1h17C21.776,1,22,0.776,22,0.5C22,0.224,21.776,0,21.5,0h-17
				C3.121,0,2,1.122,2,2.5v19C2,22.878,3.121,24,4.5,24h17c0.276,0,0.5-0.224,0.5-0.5v-19C22,4.224,21.776,4,21.5,4z M16,19H7
				c-0.276,0-0.5-0.224-0.5-0.5c0-3.049,1.606-4.523,3.163-5.133C8.957,12.818,8.5,11.962,8.5,11c0-1.654,1.346-3,3-3s3,1.346,3,3
				c0,0.962-0.457,1.818-1.163,2.367c1.557,0.611,3.163,2.084,3.163,5.133C16.5,18.776,16.276,19,16,19z"/>
			<path d="M4.5,2C4.224,2,4,2.224,4,2.5C4,2.776,4.224,3,4.5,3h16C20.776,3,21,2.776,21,2.5C21,2.224,20.776,2,20.5,2H4.5z"/>
		</g>
	</g>
	<g id="New_icons">
	</g>
</g>
<g id="Invisible_Shape">
	<rect fill="none" width="24" height="24"/>
</g>
</svg>
