<?xml version="1.0" encoding="utf-8"?>
<!-- Generator: Adobe Illustrator 19.2.1, SVG Export Plug-In . SVG Version: 6.00 Build 0)  -->
<svg version="1.1" xmlns="http://www.w3.org/2000/svg" xmlns:xlink="http://www.w3.org/1999/xlink" x="0px" y="0px" width="24px"
	 height="24px" viewBox="0 0 24 24" enable-background="new 0 0 24 24" xml:space="preserve">
<g id="Filled_Icons_1_">
	<g id="Filled_Icons">
		<g>
			<path d="M21.5,3H19V1.5C19,1.224,18.775,1,18.5,1h-15C3.224,1,3,1.224,3,1.5v2h1.5c0.551,0,1,0.449,1,1c0,0.552-0.449,1-1,1H3v1
				h1.5c0.551,0,1,0.449,1,1c0,0.552-0.449,1-1,1H3v1h1.5c0.551,0,1,0.449,1,1c0,0.552-0.449,1-1,1H3v1h1.5c0.551,0,1,0.449,1,1
				c0,0.552-0.449,1-1,1H3v1h1.5c0.551,0,1,0.449,1,1c0,0.552-0.449,1-1,1H3v1h1.5c0.551,0,1,0.449,1,1c0,0.552-0.449,1-1,1H3v2
				C3,22.776,3.224,23,3.5,23h15c0.275,0,0.5-0.224,0.5-0.5V20h2.5c0.275,0,0.5-0.224,0.5-0.5v-16C22,3.224,21.775,3,21.5,3z
				 M15,9.5c0,0.276-0.225,0.5-0.5,0.5h-6C8.224,10,8,9.776,8,9.5v-4C8,5.224,8.224,5,8.5,5h6C14.775,5,15,5.224,15,5.5V9.5z M21,19
				h-2v-3h2V19z M21,15h-2v-3h2V15z M21,11h-2V8h2V11z M21,7h-2V4h2V7z"/>
			<path d="M2.5,5h2C4.775,5,5,4.775,5,4.5C5,4.225,4.775,4,4.5,4h-2C2.224,4,2,4.225,2,4.5C2,4.775,2.224,5,2.5,5z"/>
			<path d="M2.5,8h2C4.775,8,5,7.775,5,7.5C5,7.225,4.775,7,4.5,7h-2C2.224,7,2,7.225,2,7.5C2,7.775,2.224,8,2.5,8z"/>
			<path d="M2.5,11h2C4.775,11,5,10.775,5,10.5C5,10.225,4.775,10,4.5,10h-2C2.224,10,2,10.225,2,10.5C2,10.775,2.224,11,2.5,11z"/>
			<path d="M2.5,14h2C4.775,14,5,13.775,5,13.5C5,13.225,4.775,13,4.5,13h-2C2.224,13,2,13.225,2,13.5C2,13.775,2.224,14,2.5,14z"/>
			<path d="M2.5,17h2C4.775,17,5,16.775,5,16.5C5,16.225,4.775,16,4.5,16h-2C2.224,16,2,16.225,2,16.5C2,16.775,2.224,17,2.5,17z"/>
			<path d="M5,19.5C5,19.225,4.775,19,4.5,19h-2C2.224,19,2,19.225,2,19.5C2,19.775,2.224,20,2.5,20h2C4.775,20,5,19.775,5,19.5z"/>
		</g>
	</g>
	<g id="New_icons">
	</g>
</g>
<g id="Invisible_Shape">
	<rect fill="none" width="24" height="24"/>
</g>
</svg>
