<?xml version="1.0" encoding="utf-8"?>
<!-- Generator: Adobe Illustrator 19.2.1, SVG Export Plug-In . SVG Version: 6.00 Build 0)  -->
<svg version="1.1" xmlns="http://www.w3.org/2000/svg" xmlns:xlink="http://www.w3.org/1999/xlink" x="0px" y="0px" width="24px"
	 height="24px" viewBox="0 0 24 24" enable-background="new 0 0 24 24" xml:space="preserve">
<g id="Filled_Icons_1_">
	<g id="Filled_Icons">
		<g>
			<path d="M0,1.5V18c0,0.276,0.224,0.5,0.5,0.5c5.913,0,10.5,1.613,10.5,3V3.329C9.096,1.847,4.747,1,0.5,1C0.224,1,0,1.224,0,1.5z
				"/>
			<path d="M22.5,1C18.252,1,13.903,1.847,12,3.329V21.5c0-1.387,4.586-3,10.5-3c0.276,0,0.5-0.224,0.5-0.5V1.5
				C23,1.224,22.776,1,22.5,1z"/>
		</g>
	</g>
	<g id="New_icons">
	</g>
</g>
<g id="Invisible_Shape">
	<rect fill="none" width="24" height="24"/>
</g>
</svg>
