<?xml version="1.0" encoding="utf-8"?>
<!-- Generator: Adobe Illustrator 19.2.1, SVG Export Plug-In . SVG Version: 6.00 Build 0)  -->
<svg version="1.1" xmlns="http://www.w3.org/2000/svg" xmlns:xlink="http://www.w3.org/1999/xlink" x="0px" y="0px" width="24px"
	 height="24px" viewBox="0 0 24 24" enable-background="new 0 0 24 24" xml:space="preserve">
<g id="Filled_Icons_1_">
	<g id="Filled_Icons">
		<path d="M20.5,4H20V0.5C20,0.224,19.776,0,19.5,0h-14C4.121,0,3,1.122,3,2.5v19C3,22.878,4.121,24,5.5,24h15
			c0.276,0,0.5-0.224,0.5-0.5v-19C21,4.224,20.776,4,20.5,4z M17.625,18.625l-0.694,0.694c-0.796,0.795-2.007,0.867-2.878,0.288
			c-3.107-2.053-5.835-4.781-7.889-7.889C5.566,10.815,5.688,9.605,6.452,8.84l0.694-0.694c0.637-0.638,1.752-0.64,2.393-0.002
			l1.265,1.267c0.633,0.631,0.735,1.656-0.1,2.491c0.959,1.128,2.042,2.21,3.165,3.164c0.83-0.818,1.89-0.701,2.492-0.097
			l1.264,1.263C18.283,16.887,18.291,17.96,17.625,18.625z M19,4h-1V2.5C18,2.224,17.776,2,17.5,2h-12C5.224,2,5,2.224,5,2.5
			C5,2.776,5.224,3,5.5,3H17v1H5.5C4.673,4,4,3.327,4,2.5S4.673,1,5.5,1H19V4z"/>
	</g>
	<g id="New_icons">
	</g>
</g>
<g id="Invisible_Shape">
	<rect fill="none" width="24" height="24"/>
</g>
</svg>
