<?xml version="1.0" encoding="utf-8"?>
<!-- Generator: Adobe Illustrator 19.2.1, SVG Export Plug-In . SVG Version: 6.00 Build 0)  -->
<svg version="1.1" xmlns="http://www.w3.org/2000/svg" xmlns:xlink="http://www.w3.org/1999/xlink" x="0px" y="0px" width="24px"
	 height="24px" viewBox="0 0 24 24" enable-background="new 0 0 24 24" xml:space="preserve">
<g id="Filled_Icons_1_">
	<g id="Filled_Icons">
		<g>
			<path d="M23,3.5C23,3.224,22.776,3,22.5,3H22c0,9.086,0,6.48,0,15.5c0,0.276-0.224,0.5-0.5,0.5h-7c-1.164,0-1.5,0.336-1.5,1.5
				c0,0.276-0.224,0.5-0.5,0.5h-2c-0.276,0-0.5-0.224-0.5-0.5c0-1.164-0.337-1.5-1.5-1.5h-7C1.224,19,1,18.776,1,18.5
				C1,9.488,1,12.084,1,3H0.5C0.224,3,0,3.224,0,3.5v16C0,19.776,0.224,20,0.5,20h6c0.901,0,3,0.244,3,2.5
				c0,0.276,0.224,0.5,0.5,0.5h3c0.276,0,0.5-0.224,0.5-0.5c0-2.256,2.098-2.5,3-2.5h6c0.276,0,0.5-0.224,0.5-0.5V3.5z"/>
			<path d="M14.5,18h6c0.276,0,0.5-0.224,0.5-0.5v-16C21,1.224,20.776,1,20.5,1h-6c-0.904,0-1.822,0.201-2.5,0.812V20h0.025
				C12.174,18.639,12.971,18,14.5,18z"/>
			<path d="M8.5,18c1.529,0,2.326,0.639,2.475,2H11V1.812C10.322,1.203,9.408,1,8.5,1h-6C2.224,1,2,1.224,2,1.5v16
				C2,17.776,2.224,18,2.5,18H8.5z"/>
		</g>
	</g>
	<g id="New_icons">
	</g>
</g>
<g id="Invisible_Shape">
	<rect fill="none" width="24" height="24"/>
</g>
</svg>
