<?xml version="1.0" encoding="utf-8"?>
<!-- Generator: Adobe Illustrator 19.2.1, SVG Export Plug-In . SVG Version: 6.00 Build 0)  -->
<svg version="1.1" xmlns="http://www.w3.org/2000/svg" xmlns:xlink="http://www.w3.org/1999/xlink" x="0px" y="0px" width="24px"
	 height="24px" viewBox="0 0 24 24" enable-background="new 0 0 24 24" xml:space="preserve">
<g id="Filled_Icons_1_">
	<g id="Filled_Icons">
	</g>
	<g id="New_icons">
		<g>
			<g>
				<rect x="14.111" y="16.234" transform="matrix(0.7071 -0.7071 0.7071 0.7071 -7.9567 17.7937)" width="6.78" height="4.535"/>
				<path d="M23.855,14.646l-2.5-2.5c-0.195-0.195-0.512-0.195-0.707,0l-1.647,1.647l3.207,3.207l1.647-1.647
					C24.051,15.159,24.051,14.842,23.855,14.646z"/>
				<path d="M15.848,23.067l-2.917-2.917l-0.911,3.226c-0.046,0.168-0.011,0.353,0.121,0.484c0.131,0.131,0.316,0.166,0.483,0.122
					L15.848,23.067z"/>
			</g>
			<g>
				<path d="M4.5,2C4.224,2,4,2.224,4,2.5S4.224,3,4.5,3h16C20.776,3,21,2.776,21,2.5S20.776,2,20.5,2H4.5z"/>
				<g>
					<path d="M11.058,23.089l1-3.5c0.07-0.245,0.201-0.468,0.382-0.649l7.502-7.5c0.567-0.568,1.47-0.573,2.059-0.042V4.5
						C22,4.224,21.776,4,21.5,4h-17C3.673,4,3,3.327,3,2.5S3.673,1,4.5,1h17C21.776,1,22,0.776,22,0.5S21.776,0,21.5,0h-17
						C3.121,0,2,1.122,2,2.5v19C2,22.878,3.121,24,4.5,24h6.598C10.994,23.71,10.971,23.395,11.058,23.089z"/>
				</g>
			</g>
		</g>
	</g>
</g>
<g id="Invisible_Shape">
	<rect fill="none" width="24" height="24"/>
</g>
</svg>
