<?xml version="1.0" encoding="utf-8"?>
<!-- Generator: Adobe Illustrator 19.2.1, SVG Export Plug-In . SVG Version: 6.00 Build 0)  -->
<svg version="1.1" xmlns="http://www.w3.org/2000/svg" xmlns:xlink="http://www.w3.org/1999/xlink" x="0px" y="0px" width="24px"
	 height="24px" viewBox="0 0 24 24" enable-background="new 0 0 24 24" xml:space="preserve">
<g id="Filled_Icons_1_">
	<g id="Filled_Icons">
		<g>
			<path d="M18,19v2.5c0,1.378,1.121,2.5,2.5,2.5c1.378,0,2.5-1.122,2.5-2.5V19H18z"/>
			<path d="M22.5,0C22.224,0,22,0.224,22,0.5V5c0,1.123-0.352,2-1.5,2C19.361,7,19,6.136,19,5V0.5C19,0.224,18.776,0,18.5,0
				S18,0.224,18,0.5V16h5V0.5C23,0.224,22.776,0,22.5,0z"/>
			<rect x="18" y="17" width="5" height="1"/>
			<path d="M20.5,6C20.776,6,21,5.776,21,5.5v-4C21,1.224,20.776,1,20.5,1S20,1.224,20,1.5v4C20,5.776,20.224,6,20.5,6z"/>
			<path d="M12,19v2.5c0,1.378,1.121,2.5,2.5,2.5c1.378,0,2.5-1.122,2.5-2.5V19H12z"/>
			<rect x="12" y="17" width="5" height="1"/>
			<path d="M16.5,0C16.224,0,16,0.224,16,0.5V5c0,1.123-0.352,2-1.5,2C13.361,7,13,6.136,13,5V0.5C13,0.224,12.776,0,12.5,0
				S12,0.224,12,0.5V16h5V0.5C17,0.224,16.776,0,16.5,0z"/>
			<path d="M14.5,6C14.776,6,15,5.776,15,5.5v-4C15,1.224,14.776,1,14.5,1S14,1.224,14,1.5v4C14,5.776,14.224,6,14.5,6z"/>
			<rect x="6" y="17" width="5" height="1"/>
			<path d="M6,19v2.5C6,22.878,7.121,24,8.5,24c1.378,0,2.5-1.122,2.5-2.5V19H6z"/>
			<path d="M10.5,0C10.224,0,10,0.224,10,0.5V5c0,1.123-0.352,2-1.5,2C7.361,7,7,6.136,7,5V0.5C7,0.224,6.776,0,6.5,0S6,0.224,6,0.5
				V16h5V0.5C11,0.224,10.776,0,10.5,0z"/>
			<path d="M8.5,6C8.776,6,9,5.776,9,5.5v-4C9,1.224,8.776,1,8.5,1S8,1.224,8,1.5v4C8,5.776,8.224,6,8.5,6z"/>
			<rect y="17" width="5" height="1"/>
			<path d="M0,19v2.5C0,22.878,1.121,24,2.5,24C3.878,24,5,22.878,5,21.5V19H0z"/>
			<path d="M4.5,0C4.224,0,4,0.224,4,0.5V5c0,1.123-0.352,2-1.5,2C1.361,7,1,6.136,1,5V0.5C1,0.224,0.776,0,0.5,0S0,0.224,0,0.5V16
				h5V0.5C5,0.224,4.776,0,4.5,0z"/>
			<path d="M2.5,6C2.776,6,3,5.776,3,5.5v-4C3,1.224,2.776,1,2.5,1S2,1.224,2,1.5v4C2,5.776,2.224,6,2.5,6z"/>
		</g>
	</g>
	<g id="New_icons">
	</g>
</g>
<g id="Invisible_Shape">
	<rect fill="none" width="24" height="24"/>
</g>
</svg>
