<?xml version="1.0" encoding="utf-8"?>
<!-- Generator: Adobe Illustrator 19.2.1, SVG Export Plug-In . SVG Version: 6.00 Build 0)  -->
<svg version="1.1" xmlns="http://www.w3.org/2000/svg" xmlns:xlink="http://www.w3.org/1999/xlink" x="0px" y="0px" width="24px"
	 height="24px" viewBox="0 0 24 24" enable-background="new 0 0 24 24" xml:space="preserve">
<g id="Filled_Icons_1_">
	<g id="Filled_Icons">
	</g>
	<g id="New_icons">
		<g>
			<path d="M17.5,11c-3.59,0-6.5,2.911-6.5,6.5c0,3.59,2.91,6.5,6.5,6.5s6.5-2.91,6.5-6.5C24,13.911,21.09,11,17.5,11z M20,17
				c-0.195,0.195-0.512,0.195-0.707,0L18,15.707V20.5c0,0.276-0.224,0.5-0.5,0.5S17,20.776,17,20.5v-4.793L15.707,17
				c-0.195,0.195-0.512,0.195-0.707,0s-0.195-0.512,0-0.707l2.146-2.146c0.195-0.195,0.512-0.195,0.707,0L20,16.293
				C20.195,16.488,20.195,16.805,20,17z"/>
			<path d="M4.5,2C4.224,2,4,2.224,4,2.5S4.224,3,4.5,3h16C20.776,3,21,2.776,21,2.5S20.776,2,20.5,2H4.5z"/>
			<path d="M10,17.5c0-4.135,3.364-7.5,7.5-7.5c1.69,0,3.245,0.568,4.5,1.515V4.5C22,4.224,21.776,4,21.5,4h-17
				C3.673,4,3,3.327,3,2.5S3.673,1,4.5,1h17C21.776,1,22,0.776,22,0.5S21.776,0,21.5,0h-17C3.121,0,2,1.122,2,2.5v19
				C2,22.878,3.121,24,4.5,24h9.274C11.523,22.704,10,20.279,10,17.5z"/>
		</g>
	</g>
</g>
<g id="Invisible_Shape">
	<rect fill="none" width="24" height="24"/>
</g>
</svg>
