<?xml version="1.0" encoding="utf-8"?>
<!-- Generator: Adobe Illustrator 19.2.1, SVG Export Plug-In . SVG Version: 6.00 Build 0)  -->
<svg version="1.1" xmlns="http://www.w3.org/2000/svg" xmlns:xlink="http://www.w3.org/1999/xlink" x="0px" y="0px" width="24px"
	 height="24px" viewBox="0 0 24 24" enable-background="new 0 0 24 24" xml:space="preserve">
<g id="Filled_Icons_1_">
	<g id="Filled_Icons">
		<g>
			<path d="M19.5,4h-13C5.673,4,5,3.327,5,2.5S5.673,1,6.5,1h13C19.775,1,20,0.776,20,0.5C20,0.224,19.775,0,19.5,0h-13
				C5.121,0,4,1.122,4,2.5c0,10.307,0,3.69,0,14C4,17.878,5.121,19,6.5,19H11v-7c0-0.827,0.673-1.5,1.5-1.5
				c0.826,0,1.5,0.673,1.5,1.5v7h5.5c0.275,0,0.5-0.224,0.5-0.5v-14C20,4.224,19.775,4,19.5,4z"/>
			<path d="M6.5,2C6.224,2,6,2.224,6,2.5C6,2.776,6.224,3,6.5,3h12C18.775,3,19,2.776,19,2.5C19,2.224,18.775,2,18.5,2H6.5z"/>
			<path d="M15.354,20.646c-0.195-0.195-0.512-0.195-0.707,0L13,22.293V12c0-0.276-0.224-0.5-0.5-0.5S12,11.724,12,12v10.293
				l-1.646-1.646c-0.195-0.195-0.512-0.195-0.707,0c-0.195,0.195-0.195,0.512,0,0.707l2.5,2.5C12.244,23.951,12.372,24,12.5,24
				s0.256-0.049,0.354-0.146l2.5-2.5C15.549,21.159,15.549,20.842,15.354,20.646z"/>
		</g>
	</g>
	<g id="New_icons">
	</g>
</g>
<g id="Invisible_Shape">
	<rect fill="none" width="24" height="24"/>
</g>
</svg>
