<?xml version="1.0" encoding="utf-8"?>
<!-- Generator: Adobe Illustrator 19.2.1, SVG Export Plug-In . SVG Version: 6.00 Build 0)  -->
<svg version="1.1" xmlns="http://www.w3.org/2000/svg" xmlns:xlink="http://www.w3.org/1999/xlink" x="0px" y="0px" width="24px"
	 height="24px" viewBox="0 0 24 24" enable-background="new 0 0 24 24" xml:space="preserve">
<g id="Filled_Icons_1_">
	<g id="Filled_Icons">
		<g>
			<path d="M19.5,4c-0.029,0-0.03,0-13.027,1.5C5.658,5.486,5,4.818,5,4c0-1.068,0-1.156,4.556-1.778
				c1.892-0.257,4.485-0.611,8.03-1.229c0.272-0.047,0.454-0.306,0.406-0.578c-0.047-0.272-0.302-0.454-0.578-0.407
				c-3.526,0.614-6.108,0.966-7.993,1.224C5.04,1.829,4,1.971,4,4v16.5C4,23.269,6.289,24,7.5,24c0.021,0,0.041-0.001,0.062-0.004
				l12-1.5C19.812,22.465,20,22.252,20,22V4.5C20,4.224,19.776,4,19.5,4z"/>
			<path d="M6.504,4.066c0.033,0.251,0.248,0.435,0.495,0.435c0.022,0,0.044-0.002,0.065-0.003l11.5-1.5
				c0.273-0.037,0.467-0.288,0.431-0.562c-0.035-0.273-0.293-0.47-0.56-0.431l-11.5,1.5C6.661,3.54,6.468,3.791,6.504,4.066z"/>
		</g>
	</g>
	<g id="New_icons">
	</g>
</g>
<g id="Invisible_Shape">
	<rect fill="none" width="24" height="24"/>
</g>
</svg>
