<?xml version="1.0" encoding="utf-8"?>
<!-- Generator: Adobe Illustrator 19.2.1, SVG Export Plug-In . SVG Version: 6.00 Build 0)  -->
<svg version="1.1" xmlns="http://www.w3.org/2000/svg" xmlns:xlink="http://www.w3.org/1999/xlink" x="0px" y="0px" width="24px"
	 height="24px" viewBox="0 0 24 24" enable-background="new 0 0 24 24" xml:space="preserve">
<g id="Filled_Icons_1_">
	<g id="Filled_Icons">
		<g>
			<g>
				<path d="M20.5,3h-16C4.224,3,4,2.776,4,2.5S4.224,2,4.5,2h16C20.776,2,21,2.224,21,2.5S20.776,3,20.5,3z"/>
			</g>
			<g>
				<path d="M3.5,8h-2C1.224,8,1,7.776,1,7.5S1.224,7,1.5,7h2C3.776,7,4,7.224,4,7.5S3.776,8,3.5,8z"/>
			</g>
			<g>
				<path d="M3.5,11h-2C1.224,11,1,10.776,1,10.5S1.224,10,1.5,10h2C3.776,10,4,10.224,4,10.5S3.776,11,3.5,11z"/>
			</g>
			<g>
				<path d="M3.5,14h-2C1.224,14,1,13.776,1,13.5S1.224,13,1.5,13h2C3.776,13,4,13.224,4,13.5S3.776,14,3.5,14z"/>
			</g>
			<g>
				<path d="M3.5,17h-2C1.224,17,1,16.776,1,16.5S1.224,16,1.5,16h2C3.776,16,4,16.224,4,16.5S3.776,17,3.5,17z"/>
			</g>
			<g>
				<path d="M3.5,20h-2C1.224,20,1,19.776,1,19.5S1.224,19,1.5,19h2C3.776,19,4,19.224,4,19.5S3.776,20,3.5,20z"/>
			</g>
			<g>
				<path d="M3,2.5C3,1.673,3.673,1,4.5,1h17C21.776,1,22,0.776,22,0.5S21.776,0,21.5,0h-17C3.121,0,2,1.122,2,2.5v4h1.5
					c0.553,0,1,0.448,1,1c0,0.552-0.447,1-1,1H2v1h1.5c0.553,0,1,0.448,1,1c0,0.552-0.447,1-1,1H2v1h1.5c0.553,0,1,0.448,1,1
					c0,0.552-0.447,1-1,1H2v1h1.5c0.553,0,1,0.448,1,1c0,0.552-0.447,1-1,1H2v1h1.5c0.553,0,1,0.448,1,1c0,0.552-0.447,1-1,1H2v1
					C2,22.878,3.121,24,4.5,24h17c0.276,0,0.5-0.224,0.5-0.5v-19C22,4.224,21.776,4,21.5,4h-17C3.673,4,3,3.327,3,2.5z M12.5,7
					c2.394,0,4.343,1.948,4.343,4.343c0,2.208-3.524,7.609-3.926,8.218c-0.196,0.3-0.638,0.3-0.834,0
					c-0.402-0.608-3.926-6.009-3.926-8.218C8.157,8.948,10.106,7,12.5,7z"/>
				<circle cx="12.5" cy="11.343" r="2.037"/>
			</g>
		</g>
	</g>
	<g id="New_icons">
	</g>
</g>
<g id="Invisible_Shape">
	<rect fill="none" width="24" height="24"/>
</g>
</svg>
