<?xml version="1.0" encoding="utf-8"?>
<!-- Generator: Adobe Illustrator 19.2.1, SVG Export Plug-In . SVG Version: 6.00 Build 0)  -->
<svg version="1.1" xmlns="http://www.w3.org/2000/svg" xmlns:xlink="http://www.w3.org/1999/xlink" x="0px" y="0px" width="24px"
	 height="24px" viewBox="0 0 24 24" enable-background="new 0 0 24 24" xml:space="preserve">
<g id="Filled_Icons_1_">
	<g id="Filled_Icons">
	</g>
	<g id="New_icons">
		<g>
			<path d="M4.5,2C4.224,2,4,2.224,4,2.5S4.224,3,4.5,3h16C20.776,3,21,2.776,21,2.5S20.776,2,20.5,2H4.5z"/>
			<g>
				<path d="M20.169,22.29C19.35,22.757,18.441,23,17.501,23C14.468,23,12,20.533,12,17.5s2.468-5.5,5.501-5.5
					c1.859,0,3.503,0.931,4.499,2.347V4.5C22,4.224,21.776,4,21.5,4h-17C3.673,4,3,3.327,3,2.5S3.673,1,4.5,1h17
					C21.776,1,22,0.776,22,0.5S21.776,0,21.5,0h-17C3.121,0,2,1.122,2,2.5v19C2,22.878,3.121,24,4.5,24h17.379L20.169,22.29z"/>
			</g>
			<path d="M23.854,23.146L21,20.293c0.616-0.77,1-1.733,1-2.793c0-2.481-2.018-4.5-4.499-4.5C15.019,13,13,15.019,13,17.5
				c0,2.48,2.019,4.5,4.501,4.5c1.059,0,2.022-0.385,2.792-1l2.854,2.854c0.195,0.195,0.512,0.195,0.707,0
				C24.049,23.659,24.049,23.342,23.854,23.146z M17.501,21C15.57,21,14,19.43,14,17.5s1.57-3.5,3.501-3.5
				C19.43,14,21,15.57,21,17.5S19.43,21,17.501,21z"/>
		</g>
	</g>
</g>
<g id="Invisible_Shape">
	<rect fill="none" width="24" height="24"/>
</g>
</svg>
