<?xml version="1.0" encoding="utf-8"?>
<!-- Generator: Adobe Illustrator 19.2.1, SVG Export Plug-In . SVG Version: 6.00 Build 0)  -->
<svg version="1.1" xmlns="http://www.w3.org/2000/svg" xmlns:xlink="http://www.w3.org/1999/xlink" x="0px" y="0px" width="24px"
	 height="24px" viewBox="0 0 24 24" enable-background="new 0 0 24 24" xml:space="preserve">
<g id="Filled_Icons_1_">
	<g id="Filled_Icons">
		<g>
			<path d="M23.5,12h-7c-0.276,0-0.5,0.224-0.5,0.5V14H8v-1.5C8,12.224,7.776,12,7.5,12h-7C0.224,12,0,12.224,0,12.5v8
				C0,20.776,0.224,21,0.5,21h23c0.276,0,0.5-0.224,0.5-0.5v-8C24,12.224,23.776,12,23.5,12z"/>
			<path d="M9.5,12C9.224,12,9,12.224,9,12.5C9,12.776,9.224,13,9.5,13h5c0.276,0,0.5-0.224,0.5-0.5c0-0.276-0.224-0.5-0.5-0.5H9.5z
				"/>
			<path d="M2.5,11h19c0.276,0,0.5-0.224,0.5-0.5c0-0.276-0.224-0.5-0.5-0.5h-19C2.224,10,2,10.224,2,10.5C2,10.776,2.224,11,2.5,11
				z"/>
			<path d="M2.5,9h19C21.776,9,22,8.776,22,8.5C22,8.224,21.776,8,21.5,8h-19C2.224,8,2,8.224,2,8.5C2,8.776,2.224,9,2.5,9z"/>
			<path d="M2.5,7h19C21.776,7,22,6.776,22,6.5C22,6.224,21.776,6,21.5,6h-19C2.224,6,2,6.224,2,6.5C2,6.776,2.224,7,2.5,7z"/>
			<path d="M2.5,5h19C21.776,5,22,4.776,22,4.5C22,4.224,21.776,4,21.5,4h-19C2.224,4,2,4.224,2,4.5C2,4.776,2.224,5,2.5,5z"/>
		</g>
	</g>
	<g id="New_icons">
	</g>
</g>
<g id="Invisible_Shape">
	<rect fill="none" width="24" height="24"/>
</g>
</svg>
