<?xml version="1.0" encoding="utf-8"?>
<!-- Generator: Adobe Illustrator 19.2.1, SVG Export Plug-In . SVG Version: 6.00 Build 0)  -->
<svg version="1.1" xmlns="http://www.w3.org/2000/svg" xmlns:xlink="http://www.w3.org/1999/xlink" x="0px" y="0px" width="24px"
	 height="24px" viewBox="0 0 24 24" enable-background="new 0 0 24 24" xml:space="preserve">
<g id="Filled_Icons_1_">
	<g id="Filled_Icons">
		<g>
			<path d="M10.5,12h-10C0.224,12,0,12.224,0,12.5v10C0,22.776,0.224,23,0.5,23h10c0.276,0,0.5-0.224,0.5-0.5v-10
				C11,12.224,10.776,12,10.5,12z M5.5,15H3v2.5C3,17.776,2.776,18,2.5,18S2,17.776,2,17.5v-3C2,14.224,2.224,14,2.5,14h3
				C5.776,14,6,14.224,6,14.5C6,14.776,5.776,15,5.5,15z"/>
			<path d="M23.5,12h-10c-0.276,0-0.5,0.224-0.5,0.5v10c0,0.276,0.224,0.5,0.5,0.5h10c0.276,0,0.5-0.224,0.5-0.5v-10
				C24,12.224,23.776,12,23.5,12z M18.5,15H16v2.5c0,0.276-0.224,0.5-0.5,0.5S15,17.776,15,17.5v-3c0-0.276,0.224-0.5,0.5-0.5h3
				c0.276,0,0.5,0.224,0.5,0.5C19,14.776,18.776,15,18.5,15z"/>
			<path d="M7.5,11h10c0.276,0,0.5-0.224,0.5-0.5v-10C18,0.224,17.776,0,17.5,0h-10C7.224,0,7,0.224,7,0.5v10
				C7,10.776,7.224,11,7.5,11z M9,2.5C9,2.224,9.224,2,9.5,2h3C12.776,2,13,2.224,13,2.5C13,2.776,12.776,3,12.5,3H10v2.5
				C10,5.776,9.776,6,9.5,6S9,5.776,9,5.5V2.5z"/>
		</g>
	</g>
	<g id="New_icons">
	</g>
</g>
<g id="Invisible_Shape">
	<rect fill="none" width="24" height="24"/>
</g>
</svg>
