<?xml version="1.0" encoding="utf-8"?>
<!-- Generator: Adobe Illustrator 19.2.1, SVG Export Plug-In . SVG Version: 6.00 Build 0)  -->
<svg version="1.1" xmlns="http://www.w3.org/2000/svg" xmlns:xlink="http://www.w3.org/1999/xlink" x="0px" y="0px" width="24px"
	 height="24px" viewBox="0 0 24 24" enable-background="new 0 0 24 24" xml:space="preserve">
<g id="Filled_Icons_1_">
	<g id="Filled_Icons">
		<g>
			<path d="M18,8.64V2.622l-5,1.396v6.96l4.685-1.875C17.875,9.028,18,8.844,18,8.64z"/>
			<path d="M12.5,3.103l5.173-1.428l-5.03-1.514c-0.093-0.028-0.192-0.028-0.286,0l-5.03,1.514L12.5,3.103z"/>
			<path d="M7.314,9.104L12,10.979v-6.96L7,2.622V8.64C7,8.844,7.124,9.028,7.314,9.104z"/>
			<path d="M14,17.14c0,0.189,0.106,0.363,0.275,0.447L18,19.449v-4.951l-4-1.366V17.14z"/>
			<path d="M18.676,10.671c-0.113-0.043-0.238-0.043-0.352,0c0,0-4.011,1.506-4.016,1.509c0,0,4.186,1.423,4.191,1.423
				c0.005,0,4.191-1.423,4.191-1.423C22.685,12.178,18.676,10.671,18.676,10.671z"/>
			<path d="M19,14.498v4.951l3.724-1.862C22.893,17.502,23,17.329,23,17.14v-4.008L19,14.498z"/>
			<path d="M6.658,11.165c-0.102-0.034-0.215-0.034-0.316,0l-5.357,1.785L6.5,15.103l5.515-2.152L6.658,11.165z"/>
			<path d="M0,21.64c0,0.215,0.138,0.406,0.342,0.475L6,24v-8.018L0,13.64V21.64z"/>
			<path d="M7,24l5.658-1.885C12.862,22.046,13,21.855,13,21.64v-8l-6,2.342V24z"/>
		</g>
	</g>
	<g id="New_icons">
	</g>
</g>
<g id="Invisible_Shape">
	<rect fill="none" width="24" height="24"/>
</g>
</svg>
