<?xml version="1.0" encoding="utf-8"?>
<!-- Generator: Adobe Illustrator 19.2.1, SVG Export Plug-In . SVG Version: 6.00 Build 0)  -->
<svg version="1.1" xmlns="http://www.w3.org/2000/svg" xmlns:xlink="http://www.w3.org/1999/xlink" x="0px" y="0px" width="24px"
	 height="24px" viewBox="0 0 24 24" enable-background="new 0 0 24 24" xml:space="preserve">
<g id="Filled_Icons_1_">
	<g id="Filled_Icons">
		<path d="M22.5,5H16V2c0-0.551-0.449-1-1-1H9C8.448,1,8,1.449,8,2v3H1.5C0.673,5,0,5.673,0,6.5v14C0,21.327,0.673,22,1.5,22h21
			c0.826,0,1.5-0.673,1.5-1.5v-14C24,5.673,23.326,5,22.5,5z M9,4h6v1H9V4z M21,18H3v-1h18V18z M21,14H3v-1h18V14z M21,10H3V9h18V10
			z"/>
	</g>
	<g id="New_icons">
	</g>
</g>
<g id="Invisible_Shape">
	<rect fill="none" width="24" height="24"/>
</g>
</svg>
