<?xml version="1.0" encoding="utf-8"?>
<!-- Generator: Adobe Illustrator 19.2.1, SVG Export Plug-In . SVG Version: 6.00 Build 0)  -->
<svg version="1.1" xmlns="http://www.w3.org/2000/svg" xmlns:xlink="http://www.w3.org/1999/xlink" x="0px" y="0px" width="24px"
	 height="24px" viewBox="0 0 24 24" enable-background="new 0 0 24 24" xml:space="preserve">
<g id="Filled_Icons_1_">
	<g id="Filled_Icons">
	</g>
	<g id="New_icons">
		<g>
			<path d="M17.501,11C13.916,11,11,13.916,11,17.5s2.916,6.5,6.501,6.5c3.584,0,6.5-2.916,6.5-6.5S21.085,11,17.501,11z M20.228,18
				h-5.454c-0.276,0-0.5-0.224-0.5-0.5s0.224-0.5,0.5-0.5h5.454c0.276,0,0.5,0.224,0.5,0.5S20.504,18,20.228,18z"/>
			<g>
				<g>
					<path d="M13.5,10h-8C5.224,10,5,9.776,5,9.5S5.224,9,5.5,9h8C13.776,9,14,9.224,14,9.5S13.776,10,13.5,10z"/>
				</g>
				<g>
					<path d="M12,12H5.5C5.224,12,5,11.776,5,11.5S5.224,11,5.5,11H12c0.276,0,0.5,0.224,0.5,0.5S12.276,12,12,12z"/>
				</g>
				<g>
					<path d="M10.5,14h-5C5.224,14,5,13.776,5,13.5S5.224,13,5.5,13h5c0.276,0,0.5,0.224,0.5,0.5S10.776,14,10.5,14z"/>
				</g>
				<g>
					<path d="M10,16H5.5C5.224,16,5,15.776,5,15.5S5.224,15,5.5,15H10c0.276,0,0.5,0.224,0.5,0.5S10.276,16,10,16z"/>
				</g>
				<g>
					<path d="M14.5,2h-2.55c-0.232-1.14-1.243-2-2.45-2S7.282,0.86,7.05,2H4.5C4.224,2,4,2.224,4,2.5v3C4,5.776,4.224,6,4.5,6h10
						C14.776,6,15,5.776,15,5.5v-3C15,2.224,14.776,2,14.5,2z"/>
				</g>
				<g>
					<g>
						<path d="M17,4.5v5.526c0.633-0.043,1.208-0.037,2,0.125V2.5C19,2.224,18.776,2,18.5,2H16v2h0.5C16.776,4,17,4.224,17,4.5z"/>
					</g>
					<g>
						<path d="M11.514,22H2.5C2.224,22,2,21.776,2,21.5v-17C2,4.224,2.224,4,2.5,4H3V2H0.5C0.224,2,0,2.224,0,2.5v21
							C0,23.776,0.224,24,0.5,24h13.274C12.892,23.492,12.124,22.81,11.514,22z"/>
					</g>
				</g>
			</g>
		</g>
	</g>
</g>
<g id="Invisible_Shape">
	<rect fill="none" width="24" height="24"/>
</g>
</svg>
