<?xml version="1.0" encoding="utf-8"?>
<!-- Generator: Adobe Illustrator 19.2.1, SVG Export Plug-In . SVG Version: 6.00 Build 0)  -->
<svg version="1.1" xmlns="http://www.w3.org/2000/svg" xmlns:xlink="http://www.w3.org/1999/xlink" x="0px" y="0px" width="24px"
	 height="24px" viewBox="0 0 24 24" enable-background="new 0 0 24 24" xml:space="preserve">
<g id="Filled_Icons_1_">
	<g id="Filled_Icons">
	</g>
	<g id="New_icons">
		<g>
			<g>
				<path d="M21,1c0-0.276-0.224-0.5-0.5-0.5H18v2h0.5C18.776,2.5,19,2.724,19,3v12.5h-4.5c-0.276,0-0.5,0.224-0.5,0.5v4.5H4.5
					C4.224,20.5,4,20.276,4,20V3c0-0.276,0.224-0.5,0.5-0.5H5v-2H2.5C2.224,0.5,2,0.724,2,1v21c0,0.276,0.224,0.5,0.5,0.5h18
					c0.276,0,0.5-0.224,0.5-0.5V1z M19,16.5l-4,4v-4H19z"/>
				<path d="M16.5,0.5h-2.55c-0.232-1.14-1.243-2-2.45-2s-2.218,0.86-2.45,2H6.5C6.224,0.5,6,0.724,6,1v3c0,0.276,0.224,0.5,0.5,0.5
					h10C16.776,4.5,17,4.276,17,4V1C17,0.724,16.776,0.5,16.5,0.5z"/>
			</g>
			<g>
				<path d="M7.147,13.854c-0.195-0.195-0.195-0.512,0-0.707l0.793-0.793c0.584-0.585,1.537-0.585,2.121,0
					c0.358,0.357,0.604,0.275,0.879,0c0.552-0.553,1.465-0.656,2.207,0.086c0.189,0.188,0.518,0.188,0.707,0l0.793-0.793
					c0.195-0.195,0.512-0.195,0.707,0s0.195,0.512,0,0.707l-0.793,0.793c-0.584,0.585-1.537,0.585-2.121,0
					c-0.275-0.275-0.521-0.357-0.879,0c-0.552,0.553-1.465,0.656-2.207-0.086c-0.189-0.188-0.518-0.188-0.707,0l-0.793,0.793
					C7.658,14.049,7.342,14.049,7.147,13.854z"/>
			</g>
			<g>
				<path d="M7.147,9.854c-0.195-0.195-0.195-0.512,0-0.707l0.793-0.793c0.584-0.585,1.537-0.585,2.121,0
					c0.358,0.357,0.604,0.275,0.879,0c0.552-0.553,1.465-0.656,2.207,0.086c0.189,0.188,0.518,0.188,0.707,0l0.793-0.793
					c0.195-0.195,0.512-0.195,0.707,0s0.195,0.512,0,0.707l-0.793,0.793c-0.584,0.585-1.537,0.585-2.121,0
					c-0.275-0.275-0.521-0.357-0.879,0c-0.552,0.553-1.465,0.656-2.207-0.086c-0.189-0.188-0.518-0.188-0.707,0L7.853,9.854
					C7.658,10.049,7.342,10.049,7.147,9.854z"/>
			</g>
		</g>
	</g>
</g>
<g id="Invisible_Shape">
	<rect fill="none" width="24" height="24"/>
</g>
</svg>
