<?xml version="1.0" encoding="utf-8"?>
<!-- Generator: Adobe Illustrator 19.2.1, SVG Export Plug-In . SVG Version: 6.00 Build 0)  -->
<svg version="1.1" xmlns="http://www.w3.org/2000/svg" xmlns:xlink="http://www.w3.org/1999/xlink" x="0px" y="0px" width="24px"
	 height="24px" viewBox="0 0 24 24" enable-background="new 0 0 24 24" xml:space="preserve">
<g id="Filled_Icons_1_">
	<g id="Filled_Icons">
	</g>
	<g id="New_icons">
		<g>
			<g>
				<path d="M16.5,10h-8C8.224,10,8,9.776,8,9.5S8.224,9,8.5,9h8C16.776,9,17,9.224,17,9.5S16.776,10,16.5,10z"/>
			</g>
			<g>
				<path d="M16.5,12h-8C8.224,12,8,11.776,8,11.5S8.224,11,8.5,11h8c0.276,0,0.5,0.224,0.5,0.5S16.776,12,16.5,12z"/>
			</g>
			<g>
				<path d="M16.5,14h-8C8.224,14,8,13.776,8,13.5S8.224,13,8.5,13h8c0.276,0,0.5,0.224,0.5,0.5S16.776,14,16.5,14z"/>
			</g>
			<g>
				<path d="M13,16H8.5C8.224,16,8,15.776,8,15.5S8.224,15,8.5,15H13c0.276,0,0.5,0.224,0.5,0.5S13.276,16,13,16z"/>
			</g>
			<g>
				<path d="M21.5,2H19v2h0.5C19.776,4,20,4.224,20,4.5V17h-4.5c-0.276,0-0.5,0.224-0.5,0.5V22H5.5C5.224,22,5,21.776,5,21.5v-17
					C5,4.224,5.224,4,5.5,4H6V2H3.5C3.224,2,3,2.224,3,2.5v21C3,23.776,3.224,24,3.5,24h18c0.276,0,0.5-0.224,0.5-0.5v-21
					C22,2.224,21.776,2,21.5,2z M20,18l-4,4v-4H20z"/>
				<path d="M17.5,2h-2.55c-0.232-1.14-1.243-2-2.45-2s-2.218,0.86-2.45,2H7.5C7.224,2,7,2.224,7,2.5v3C7,5.776,7.224,6,7.5,6h10
					C17.776,6,18,5.776,18,5.5v-3C18,2.224,17.776,2,17.5,2z"/>
			</g>
		</g>
	</g>
</g>
<g id="Invisible_Shape">
	<rect fill="none" width="24" height="24"/>
</g>
</svg>
