<?xml version="1.0" encoding="utf-8"?>
<!-- Generator: Adobe Illustrator 19.2.1, SVG Export Plug-In . SVG Version: 6.00 Build 0)  -->
<svg version="1.1" xmlns="http://www.w3.org/2000/svg" xmlns:xlink="http://www.w3.org/1999/xlink" x="0px" y="0px" width="24px"
	 height="24px" viewBox="0 0 24 24" enable-background="new 0 0 24 24" xml:space="preserve">
<g id="Filled_Icons_1_">
	<g id="Filled_Icons">
		<g>
			<path d="M2,21c0,1.654,1.346,3,3,3h13c1.654,0,3-1.346,3-3v-5H2V21z M8.5,19H14c0.369,0,0.613,0.39,0.447,0.724l-1,2
				C13.362,21.894,13.189,22,13,22H9.5c-0.189,0-0.362-0.106-0.447-0.276l-1-2C7.886,19.394,8.128,19,8.5,19z"/>
			<path d="M2,15h19V8H2V15z M8.5,10H14c0.369,0,0.613,0.39,0.447,0.724l-1,2C13.362,12.894,13.189,13,13,13H9.5
				c-0.189,0-0.362-0.106-0.447-0.276l-1-2C7.886,10.394,8.128,10,8.5,10z"/>
			<path d="M18,0H5C3.346,0,2,1.346,2,3v4h19V3C21,1.346,19.654,0,18,0z M14.447,3.724l-1,2C13.362,5.894,13.189,6,13,6H9.5
				C9.311,6,9.138,5.894,9.053,5.724l-1-2C7.886,3.394,8.128,3,8.5,3H14C14.369,3,14.613,3.39,14.447,3.724z"/>
		</g>
	</g>
	<g id="New_icons">
	</g>
</g>
<g id="Invisible_Shape">
	<rect fill="none" width="24" height="24"/>
</g>
</svg>
