<?xml version="1.0" encoding="utf-8"?>
<!-- Generator: Adobe Illustrator 19.2.1, SVG Export Plug-In . SVG Version: 6.00 Build 0)  -->
<svg version="1.1" xmlns="http://www.w3.org/2000/svg" xmlns:xlink="http://www.w3.org/1999/xlink" x="0px" y="0px" width="24px"
	 height="24px" viewBox="0 0 24 24" enable-background="new 0 0 24 24" xml:space="preserve">
<g id="Filled_Icons_1_">
	<g id="Filled_Icons">
		<g>
			<path d="M6,14h12v-4H6V14z M10.5,11h3c0.276,0,0.5,0.224,0.5,0.5c0,0.276-0.224,0.5-0.5,0.5h-3c-0.276,0-0.5-0.224-0.5-0.5
				C10,11.224,10.224,11,10.5,11z"/>
			<path d="M6,21h12v-4H6V21z M10.5,18h3c0.276,0,0.5,0.224,0.5,0.5c0,0.276-0.224,0.5-0.5,0.5h-3c-0.276,0-0.5-0.224-0.5-0.5
				C10,18.224,10.224,18,10.5,18z"/>
			<path d="M6,7h12V3H6V7z M10.5,4h3C13.776,4,14,4.224,14,4.5C14,4.776,13.776,5,13.5,5h-3C10.224,5,10,4.776,10,4.5
				C10,4.224,10.224,4,10.5,4z"/>
			<path d="M20.5,0h-17C3.224,0,3,0.224,3,0.5v23C3,23.776,3.224,24,3.5,24h17c0.276,0,0.5-0.224,0.5-0.5v-23
				C21,0.224,20.776,0,20.5,0z M19,21.5c0,0.276-0.224,0.5-0.5,0.5h-13C5.224,22,5,21.776,5,21.5v-5C5,16.224,5.224,16,5.5,16h13
				c0.276,0,0.5,0.224,0.5,0.5V21.5z M19,14.5c0,0.276-0.224,0.5-0.5,0.5h-13C5.224,15,5,14.776,5,14.5v-5C5,9.224,5.224,9,5.5,9h13
				C18.776,9,19,9.224,19,9.5V14.5z M19,7.5C19,7.776,18.776,8,18.5,8h-13C5.224,8,5,7.776,5,7.5v-5C5,2.224,5.224,2,5.5,2h13
				C18.776,2,19,2.224,19,2.5V7.5z"/>
		</g>
	</g>
	<g id="New_icons">
	</g>
</g>
<g id="Invisible_Shape">
	<rect fill="none" width="24" height="24"/>
</g>
</svg>
