<?xml version="1.0" encoding="utf-8"?>
<!-- Generator: Adobe Illustrator 19.2.1, SVG Export Plug-In . SVG Version: 6.00 Build 0)  -->
<svg version="1.1" xmlns="http://www.w3.org/2000/svg" xmlns:xlink="http://www.w3.org/1999/xlink" x="0px" y="0px" width="24px"
	 height="24px" viewBox="0 0 24 24" enable-background="new 0 0 24 24" xml:space="preserve">
<g id="Filled_Icons_1_">
	<g id="Filled_Icons">
		<g>
			<path d="M5,9h14V4H5V9z M10.5,6h3C13.776,6,14,6.224,14,6.5C14,6.776,13.776,7,13.5,7h-3C10.224,7,10,6.776,10,6.5
				C10,6.224,10.224,6,10.5,6z"/>
			<path d="M5,18h14v-5H5V18z M10.5,15h3c0.276,0,0.5,0.224,0.5,0.5c0,0.276-0.224,0.5-0.5,0.5h-3c-0.276,0-0.5-0.224-0.5-0.5
				C10,15.224,10.224,15,10.5,15z"/>
			<path d="M23.5,0h-23C0.224,0,0,0.224,0,0.5C0,0.776,0.224,1,0.5,1H1v18.5C1,20.878,2.121,22,3.5,22H5v0.5
				C5,22.776,5.224,23,5.5,23S6,22.776,6,22.5V22h12v0.5c0,0.276,0.224,0.5,0.5,0.5s0.5-0.224,0.5-0.5V22h1.5
				c1.378,0,2.5-1.122,2.5-2.5V1h0.5C23.776,1,24,0.776,24,0.5C24,0.224,23.776,0,23.5,0z M20,18.5c0,0.276-0.224,0.5-0.5,0.5h-15
				C4.224,19,4,18.776,4,18.5v-6C4,12.224,4.224,12,4.5,12h15c0.276,0,0.5,0.224,0.5,0.5V18.5z M20,9.5c0,0.276-0.224,0.5-0.5,0.5
				h-15C4.224,10,4,9.776,4,9.5v-6C4,3.224,4.224,3,4.5,3h15C19.776,3,20,3.224,20,3.5V9.5z"/>
		</g>
	</g>
	<g id="New_icons">
	</g>
</g>
<g id="Invisible_Shape">
	<rect fill="none" width="24" height="24"/>
</g>
</svg>
