<?xml version="1.0" encoding="utf-8"?>
<!-- Generator: Adobe Illustrator 19.2.1, SVG Export Plug-In . SVG Version: 6.00 Build 0)  -->
<svg version="1.1" xmlns="http://www.w3.org/2000/svg" xmlns:xlink="http://www.w3.org/1999/xlink" x="0px" y="0px" width="24px"
	 height="24px" viewBox="0 0 24 24" enable-background="new 0 0 24 24" xml:space="preserve">
<g id="Filled_Icons_1_">
	<g id="Filled_Icons">
		<path d="M18.805,9.838C19.497,8.918,20,7.559,20,6.5V4c0-2.598-5.152-4-10-4S0,1.402,0,4v2.5c0,1.238,0.686,2.894,1.561,3.768
			L8,16.706V22.5C8,23.327,8.673,24,9.5,24h1c0.827,0,1.5-0.673,1.5-1.5v-3.048C12.781,19.812,13.631,20,14.5,20
			c3.309,0,6-2.691,6-6C20.5,12.443,19.884,10.955,18.805,9.838z M10,7C4.696,7,1,5.419,1,4c0-1.418,3.696-3,9-3s9,1.582,9,3
			C19,5.419,15.304,7,10,7z M14.5,19c-0.884,0-1.739-0.244-2.5-0.687v-1.607l6.131-6.13C19.004,11.502,19.5,12.724,19.5,14
			C19.5,16.757,17.257,19,14.5,19z"/>
	</g>
	<g id="New_icons">
	</g>
</g>
<g id="Invisible_Shape">
	<rect fill="none" width="24" height="24"/>
</g>
</svg>
