<?xml version="1.0" encoding="utf-8"?>
<!-- Generator: Adobe Illustrator 19.2.1, SVG Export Plug-In . SVG Version: 6.00 Build 0)  -->
<svg version="1.1" xmlns="http://www.w3.org/2000/svg" xmlns:xlink="http://www.w3.org/1999/xlink" x="0px" y="0px" width="24px"
	 height="24px" viewBox="0 0 24 24" enable-background="new 0 0 24 24" xml:space="preserve">
<g id="Filled_Icons_1_">
	<g id="Filled_Icons">
		<g>
			<path d="M23.5,11h-10c-0.276,0-0.5,0.224-0.5,0.5v12c0,0.276,0.224,0.5,0.5,0.5h10c0.275,0,0.5-0.224,0.5-0.5v-12
				C24,11.224,23.775,11,23.5,11z M21.5,22h-6c-0.276,0-0.5-0.224-0.5-0.5c0-0.276,0.224-0.5,0.5-0.5h6c0.275,0,0.5,0.224,0.5,0.5
				C22,21.776,21.775,22,21.5,22z M21.5,20h-6c-0.276,0-0.5-0.224-0.5-0.5c0-0.276,0.224-0.5,0.5-0.5h6c0.275,0,0.5,0.224,0.5,0.5
				C22,19.776,21.775,20,21.5,20z M21.5,18h-6c-0.276,0-0.5-0.224-0.5-0.5c0-0.276,0.224-0.5,0.5-0.5h6c0.275,0,0.5,0.224,0.5,0.5
				C22,17.776,21.775,18,21.5,18z M21.5,16h-6c-0.276,0-0.5-0.224-0.5-0.5c0-0.276,0.224-0.5,0.5-0.5h6c0.275,0,0.5,0.224,0.5,0.5
				C22,15.776,21.775,16,21.5,16z M21.5,14h-4c-0.276,0-0.5-0.224-0.5-0.5c0-0.276,0.224-0.5,0.5-0.5h4c0.275,0,0.5,0.224,0.5,0.5
				C22,13.776,21.775,14,21.5,14z"/>
			<path d="M18.5,0h-18C0.058,0-0.17,0.539,0.147,0.854L8,8.707V16c0,0.447,0.541,0.666,0.854,0.354l2-2
				C10.947,14.261,11,14.133,11,14V8.707l7.854-7.853C19.168,0.539,18.943,0,18.5,0z"/>
		</g>
	</g>
	<g id="New_icons">
	</g>
</g>
<g id="Invisible_Shape">
	<rect fill="none" width="24" height="24"/>
</g>
</svg>
