<?xml version="1.0" encoding="utf-8"?>
<!-- Generator: Adobe Illustrator 19.2.1, SVG Export Plug-In . SVG Version: 6.00 Build 0)  -->
<svg version="1.1" xmlns="http://www.w3.org/2000/svg" xmlns:xlink="http://www.w3.org/1999/xlink" x="0px" y="0px" width="24px"
	 height="24px" viewBox="0 0 24 24" enable-background="new 0 0 24 24" xml:space="preserve">
<g id="Filled_Icons_1_">
	<g id="Filled_Icons">
	</g>
	<g id="New_icons">
		<g>
			<g>
				<path d="M18.5,24h-13C5.224,24,5,23.776,5,23.5S5.224,23,5.5,23h13c0.276,0,0.5,0.224,0.5,0.5S18.776,24,18.5,24z"/>
			</g>
			<g>
				<g>
					<path d="M15.561,20.56C15.278,20.844,14.901,21,14.5,21H4v0.5C4,21.776,4.224,22,4.5,22h15c0.276,0,0.5-0.224,0.5-0.5v-5.379
						L15.561,20.56z"/>
				</g>
			</g>
			<g>
				<path d="M20.5,2H17v2.5C17,5.329,16.328,6,15.5,6S14,5.329,14,4.5V2h-1v2.5C13,5.329,12.328,6,11.5,6S10,5.329,10,4.5V2H9v2.5
					C9,5.329,8.328,6,7.5,6S6,5.329,6,4.5V2H3.5C3.224,2,3,2.224,3,2.5v17C3,19.776,3.224,20,3.5,20h11
					c0.139,0,0.264-0.056,0.354-0.147l5.998-5.999C20.943,13.764,21,13.639,21,13.5v-11C21,2.224,20.776,2,20.5,2z M15,18.293V14
					h4.293L15,18.293z"/>
			</g>
			<g>
				<g>
					<path d="M7.5,5C7.224,5,7,4.776,7,4.5v-4C7,0.224,7.224,0,7.5,0S8,0.224,8,0.5v4C8,4.776,7.776,5,7.5,5z"/>
				</g>
			</g>
			<g>
				<g>
					<path d="M11.5,5C11.224,5,11,4.776,11,4.5v-4C11,0.224,11.224,0,11.5,0S12,0.224,12,0.5v4C12,4.776,11.776,5,11.5,5z"/>
				</g>
			</g>
			<g>
				<g>
					<path d="M15.5,5C15.224,5,15,4.776,15,4.5v-4C15,0.224,15.224,0,15.5,0S16,0.224,16,0.5v4C16,4.776,15.776,5,15.5,5z"/>
				</g>
			</g>
		</g>
	</g>
</g>
<g id="Invisible_Shape">
	<rect fill="none" width="24" height="24"/>
</g>
</svg>
