<?xml version="1.0" encoding="utf-8"?>
<!-- Generator: Adobe Illustrator 19.2.1, SVG Export Plug-In . SVG Version: 6.00 Build 0)  -->
<svg version="1.1" xmlns="http://www.w3.org/2000/svg" xmlns:xlink="http://www.w3.org/1999/xlink" x="0px" y="0px" width="24px"
	 height="24px" viewBox="0 0 24 24" enable-background="new 0 0 24 24" xml:space="preserve">
<g id="Filled_Icons_1_">
	<g id="Filled_Icons">
	</g>
	<g id="New_icons">
		<g>
			<g>
				<path d="M22.5,2H21v3c0,0.829-0.672,1.5-1.5,1.5S18,5.829,18,5V2h-2v3c0,0.829-0.672,1.5-1.5,1.5S13,5.829,13,5V2h-2v3
					c0,0.829-0.672,1.5-1.5,1.5S8,5.829,8,5V2H6v3c0,0.829-0.672,1.5-1.5,1.5S3,5.829,3,5V2H1.5C1.224,2,1,2.224,1,2.5v21
					C1,23.776,1.224,24,1.5,24h15c0.139,0,0.264-0.056,0.354-0.147l5.998-5.999C22.943,17.764,23,17.639,23,17.5v-15
					C23,2.224,22.776,2,22.5,2z M17,22.293V18h4.293L17,22.293z"/>
			</g>
			<g>
				<path d="M4.5,5.5C4.224,5.5,4,5.276,4,5V0.5C4,0.224,4.224,0,4.5,0S5,0.224,5,0.5V5C5,5.276,4.776,5.5,4.5,5.5z"/>
			</g>
			<g>
				<path d="M9.5,5.5C9.224,5.5,9,5.276,9,5V0.5C9,0.224,9.224,0,9.5,0S10,0.224,10,0.5V5C10,5.276,9.776,5.5,9.5,5.5z"/>
			</g>
			<g>
				<path d="M14.5,5.5C14.224,5.5,14,5.276,14,5V0.5C14,0.224,14.224,0,14.5,0S15,0.224,15,0.5V5C15,5.276,14.776,5.5,14.5,5.5z"/>
			</g>
			<g>
				<path d="M19.5,5.5C19.224,5.5,19,5.276,19,5V0.5C19,0.224,19.224,0,19.5,0S20,0.224,20,0.5V5C20,5.276,19.776,5.5,19.5,5.5z"/>
			</g>
		</g>
	</g>
</g>
<g id="Invisible_Shape">
	<rect fill="none" width="24" height="24"/>
</g>
</svg>
