<?xml version="1.0" encoding="utf-8"?>
<!-- Generator: Adobe Illustrator 19.2.1, SVG Export Plug-In . SVG Version: 6.00 Build 0)  -->
<svg version="1.1" xmlns="http://www.w3.org/2000/svg" xmlns:xlink="http://www.w3.org/1999/xlink" x="0px" y="0px" width="24px"
	 height="24px" viewBox="0 0 24 24" enable-background="new 0 0 24 24" xml:space="preserve">
<g id="Filled_Icons_1_">
	<g id="Filled_Icons">
	</g>
	<g id="New_icons">
		<g>
			<g>
				<path d="M19.5,24h-15C4.224,24,4,23.776,4,23.5S4.224,23,4.5,23h15c0.276,0,0.5,0.224,0.5,0.5S19.776,24,19.5,24z"/>
			</g>
			<path d="M15.561,20.56C15.278,20.844,14.901,21,14.5,21H3v0.5C3,21.776,3.224,22,3.5,22h17c0.276,0,0.5-0.224,0.5-0.5v-6.379
				L15.561,20.56z"/>
			<path d="M21.5,0h-19C2.224,0,2,0.224,2,0.5v19C2,19.776,2.224,20,2.5,20h12c0.139,0,0.264-0.056,0.354-0.147l6.998-6.999
				C21.943,12.764,22,12.639,22,12.5v-12C22,0.224,21.776,0,21.5,0z M15,18.293V13h5.293L15,18.293z"/>
		</g>
	</g>
</g>
<g id="Invisible_Shape">
	<rect fill="none" width="24" height="24"/>
</g>
</svg>
