<?xml version="1.0" encoding="utf-8"?>
<!-- Generator: Adobe Illustrator 19.2.1, SVG Export Plug-In . SVG Version: 6.00 Build 0)  -->
<svg version="1.1" xmlns="http://www.w3.org/2000/svg" xmlns:xlink="http://www.w3.org/1999/xlink" x="0px" y="0px" width="24px"
	 height="24px" viewBox="0 0 24 24" enable-background="new 0 0 24 24" xml:space="preserve">
<g id="Filled_Icons_1_">
	<g id="Filled_Icons">
	</g>
	<g id="New_icons">
		<path d="M23.5,0h-23C0.224,0,0,0.224,0,0.5v23C0,23.776,0.224,24,0.5,24h15c0.139,0,0.264-0.056,0.354-0.147l7.998-7.999
			C23.943,15.764,24,15.639,24,15.5v-15C24,0.224,23.776,0,23.5,0z M10.354,14.354c-0.746,0.746-1.961,0.746-2.707,0
			c-0.356-0.356-0.938-0.356-1.293,0l-1,1c-0.195,0.195-0.512,0.195-0.707,0c-0.195-0.195-0.195-0.512,0-0.707l1-1
			c0.746-0.746,1.961-0.746,2.707,0c0.355,0.356,0.938,0.356,1.293,0c0.195-0.195,0.512-0.195,0.707,0S10.549,14.159,10.354,14.354z
			 M15.646,9.354c-0.355-0.356-0.938-0.356-1.293,0c-0.746,0.746-1.961,0.746-2.707,0c-0.355-0.356-0.938-0.356-1.293,0
			c-0.746,0.746-1.961,0.746-2.707,0c-0.356-0.356-0.938-0.356-1.293,0l-1,1c-0.195,0.195-0.512,0.195-0.707,0
			c-0.195-0.195-0.195-0.512,0-0.707l1-1c0.746-0.746,1.961-0.746,2.707,0c0.355,0.356,0.938,0.356,1.293,0
			c0.746-0.746,1.961-0.746,2.707,0c0.355,0.356,0.938,0.356,1.293,0c0.746-0.746,1.961-0.746,2.707,0
			c0.355,0.356,0.938,0.356,1.293,0l1-1c0.195-0.195,0.512-0.195,0.707,0c0.195,0.195,0.195,0.512,0,0.707l-1,1
			C17.607,10.1,16.393,10.1,15.646,9.354z M16,22.293V16h6.293L16,22.293z"/>
	</g>
</g>
<g id="Invisible_Shape">
	<rect fill="none" width="24" height="24"/>
</g>
</svg>
