<?xml version="1.0" encoding="utf-8"?>
<!-- Generator: Adobe Illustrator 19.2.1, SVG Export Plug-In . SVG Version: 6.00 Build 0)  -->
<svg version="1.1" xmlns="http://www.w3.org/2000/svg" xmlns:xlink="http://www.w3.org/1999/xlink" x="0px" y="0px" width="24px"
	 height="24px" viewBox="0 0 24 24" enable-background="new 0 0 24 24" xml:space="preserve">
<g id="Filled_Icons_1_">
	<g id="Filled_Icons">
		<path d="M23.5,2h-23C0.224,2,0,2.224,0,2.5v18C0,20.776,0.224,21,0.5,21h23c0.276,0,0.5-0.224,0.5-0.5v-18
			C24,2.224,23.776,2,23.5,2z M10.5,18h-7C3.224,18,3,17.776,3,17.5C3,17.224,3.224,17,3.5,17h7c0.276,0,0.5,0.224,0.5,0.5
			C11,17.776,10.776,18,10.5,18z M10.5,16h-7C3.224,16,3,15.776,3,15.5C3,15.224,3.224,15,3.5,15h7c0.276,0,0.5,0.224,0.5,0.5
			C11,15.776,10.776,16,10.5,16z M10.5,14h-7C3.224,14,3,13.776,3,13.5C3,13.224,3.224,13,3.5,13h7c0.276,0,0.5,0.224,0.5,0.5
			C11,13.776,10.776,14,10.5,14z M10.5,12h-6C4.224,12,4,11.776,4,11.5C4,11.224,4.224,11,4.5,11h6c0.276,0,0.5,0.224,0.5,0.5
			C11,11.776,10.776,12,10.5,12z M19.5,18h-6c-0.276,0-0.5-0.224-0.5-0.5c0-0.276,0.224-0.5,0.5-0.5h6c0.276,0,0.5,0.224,0.5,0.5
			C20,17.776,19.776,18,19.5,18z M20.5,16h-7c-0.276,0-0.5-0.224-0.5-0.5c0-0.276,0.224-0.5,0.5-0.5h7c0.276,0,0.5,0.224,0.5,0.5
			C21,15.776,20.776,16,20.5,16z M20.5,14h-7c-0.276,0-0.5-0.224-0.5-0.5c0-0.276,0.224-0.5,0.5-0.5h7c0.276,0,0.5,0.224,0.5,0.5
			C21,13.776,20.776,14,20.5,14z M20.5,12h-7c-0.276,0-0.5-0.224-0.5-0.5c0-0.276,0.224-0.5,0.5-0.5h7c0.276,0,0.5,0.224,0.5,0.5
			C21,11.776,20.776,12,20.5,12z M22,8.5C22,8.776,21.776,9,21.5,9h-19C2.224,9,2,8.776,2,8.5v-3C2,5.224,2.224,5,2.5,5h19
			C21.776,5,22,5.224,22,5.5V8.5z"/>
	</g>
	<g id="New_icons">
	</g>
</g>
<g id="Invisible_Shape">
	<rect fill="none" width="24" height="24"/>
</g>
</svg>
