<?xml version="1.0" encoding="utf-8"?>
<!-- Generator: Adobe Illustrator 19.2.1, SVG Export Plug-In . SVG Version: 6.00 Build 0)  -->
<svg version="1.1" xmlns="http://www.w3.org/2000/svg" xmlns:xlink="http://www.w3.org/1999/xlink" x="0px" y="0px" width="24px"
	 height="24px" viewBox="0 0 24 24" enable-background="new 0 0 24 24" xml:space="preserve">
<g id="Filled_Icons_1_">
	<g id="Filled_Icons">
		<g>
			<path d="M2,3.5v19C2,23.327,2.673,24,3.5,24H5V2H3.5C2.673,2,2,2.673,2,3.5z"/>
			<path d="M20.5,2H18V0.5C18,0.224,17.776,0,17.5,0h-4C13.224,0,13,0.224,13,0.5V2H6v22h14.5c0.276,0,0.5-0.224,0.5-0.5v-21
				C21,2.224,20.776,2,20.5,2z M17,9.292l-1.146-1.146c-0.195-0.195-0.512-0.195-0.707,0L14,9.292V1h3V9.292z"/>
		</g>
	</g>
	<g id="New_icons">
	</g>
</g>
<g id="Invisible_Shape">
	<rect fill="none" width="24" height="24"/>
</g>
</svg>
