<?xml version="1.0" encoding="utf-8"?>
<!-- Generator: Adobe Illustrator 19.2.1, SVG Export Plug-In . SVG Version: 6.00 Build 0)  -->
<svg version="1.1" xmlns="http://www.w3.org/2000/svg" xmlns:xlink="http://www.w3.org/1999/xlink" x="0px" y="0px" width="24px"
	 height="24px" viewBox="0 0 24 24" enable-background="new 0 0 24 24" xml:space="preserve">
<g id="Filled_Icons_1_">
	<g id="Filled_Icons">
		<g>
			<path d="M23.5,1h-23C0.224,1,0,1.224,0,1.5v9C0,10.776,0.224,11,0.5,11h23c0.276,0,0.5-0.224,0.5-0.5v-9
				C24,1.224,23.776,1,23.5,1z"/>
			<path d="M23.5,13h-23C0.224,13,0,13.224,0,13.5v9C0,22.776,0.224,23,0.5,23h23c0.276,0,0.5-0.224,0.5-0.5v-9
				C24,13.224,23.776,13,23.5,13z"/>
		</g>
	</g>
	<g id="New_icons">
	</g>
</g>
<g id="Invisible_Shape">
	<rect fill="none" width="24" height="24"/>
</g>
</svg>
