<?xml version="1.0" encoding="utf-8"?>
<!-- Generator: Adobe Illustrator 19.2.1, SVG Export Plug-In . SVG Version: 6.00 Build 0)  -->
<svg version="1.1" xmlns="http://www.w3.org/2000/svg" xmlns:xlink="http://www.w3.org/1999/xlink" x="0px" y="0px" width="24px"
	 height="24px" viewBox="0 0 24 24" enable-background="new 0 0 24 24" xml:space="preserve">
<g id="Filled_Icons_1_">
	<g id="Filled_Icons">
		<g>
			<path d="M4.5,5h-4C0.224,5,0,5.224,0,5.5v13C0,18.776,0.224,19,0.5,19h4C4.776,19,5,18.776,5,18.5v-13C5,5.224,4.776,5,4.5,5z"/>
			<path d="M23.5,5h-4C19.224,5,19,5.224,19,5.5v13c0,0.276,0.224,0.5,0.5,0.5h4c0.276,0,0.5-0.224,0.5-0.5v-13
				C24,5.224,23.776,5,23.5,5z"/>
			<path d="M17.5,1h-11C6.224,1,6,1.224,6,1.5v21C6,22.776,6.224,23,6.5,23h11c0.276,0,0.5-0.224,0.5-0.5v-21
				C18,1.224,17.776,1,17.5,1z"/>
		</g>
	</g>
	<g id="New_icons">
	</g>
</g>
<g id="Invisible_Shape">
	<rect fill="none" width="24" height="24"/>
</g>
</svg>
