<?xml version="1.0" encoding="utf-8"?>
<!-- Generator: Adobe Illustrator 19.2.1, SVG Export Plug-In . SVG Version: 6.00 Build 0)  -->
<svg version="1.1" xmlns="http://www.w3.org/2000/svg" xmlns:xlink="http://www.w3.org/1999/xlink" x="0px" y="0px" width="24px"
	 height="24px" viewBox="0 0 24 24" enable-background="new 0 0 24 24" xml:space="preserve">
<g id="Filled_Icons_1_">
	<g id="Filled_Icons">
		<g>
			<path d="M14.5,0h-6C8.224,0,8,0.224,8,0.5v6C8,6.776,8.224,7,8.5,7h6C14.775,7,15,6.776,15,6.5v-6C15,0.224,14.775,0,14.5,0z"/>
			<path d="M6.5,0h-6C0.224,0,0,0.224,0,0.5v6C0,6.776,0.224,7,0.5,7h6C6.775,7,7,6.776,7,6.5v-6C7,0.224,6.775,0,6.5,0z"/>
			<path d="M22.5,0h-6C16.224,0,16,0.224,16,0.5v6C16,6.776,16.224,7,16.5,7h6C22.775,7,23,6.776,23,6.5v-6
				C23,0.224,22.775,0,22.5,0z"/>
			<path d="M14.5,8h-6C8.224,8,8,8.224,8,8.5v6C8,14.776,8.224,15,8.5,15h6c0.275,0,0.5-0.224,0.5-0.5v-6C15,8.224,14.775,8,14.5,8z
				"/>
			<path d="M6.5,8h-6C0.224,8,0,8.224,0,8.5v6C0,14.776,0.224,15,0.5,15h6C6.775,15,7,14.776,7,14.5v-6C7,8.224,6.775,8,6.5,8z"/>
			<path d="M22.5,8h-6C16.224,8,16,8.224,16,8.5v6c0,0.276,0.224,0.5,0.5,0.5h6c0.275,0,0.5-0.224,0.5-0.5v-6
				C23,8.224,22.775,8,22.5,8z"/>
			<path d="M14.5,16h-6C8.224,16,8,16.224,8,16.5v6C8,22.776,8.224,23,8.5,23h6c0.275,0,0.5-0.224,0.5-0.5v-6
				C15,16.224,14.775,16,14.5,16z"/>
			<path d="M6.5,16h-6C0.224,16,0,16.224,0,16.5v6C0,22.776,0.224,23,0.5,23h6C6.775,23,7,22.776,7,22.5v-6
				C7,16.224,6.775,16,6.5,16z"/>
			<path d="M22.5,16h-6c-0.276,0-0.5,0.224-0.5,0.5v6c0,0.276,0.224,0.5,0.5,0.5h6c0.275,0,0.5-0.224,0.5-0.5v-6
				C23,16.224,22.775,16,22.5,16z"/>
		</g>
	</g>
	<g id="New_icons">
	</g>
</g>
<g id="Invisible_Shape">
	<rect fill="none" width="24" height="24"/>
</g>
</svg>
