<?xml version="1.0" encoding="utf-8"?>
<!-- Generator: Adobe Illustrator 19.2.1, SVG Export Plug-In . SVG Version: 6.00 Build 0)  -->
<svg version="1.1" xmlns="http://www.w3.org/2000/svg" xmlns:xlink="http://www.w3.org/1999/xlink" x="0px" y="0px" width="24px"
	 height="24px" viewBox="0 0 24 24" enable-background="new 0 0 24 24" xml:space="preserve">
<g id="Filled_Icons_1_">
	<g id="Filled_Icons">
		<g>
			<path d="M6.5,0h-6C0.224,0,0,0.224,0,0.5v22C0,22.776,0.224,23,0.5,23h6C6.776,23,7,22.776,7,22.5v-22C7,0.224,6.776,0,6.5,0z"/>
			<path d="M14.5,0h-6C8.224,0,8,0.224,8,0.5v22C8,22.776,8.224,23,8.5,23h6c0.276,0,0.5-0.224,0.5-0.5v-22
				C15,0.224,14.776,0,14.5,0z"/>
			<path d="M22.5,0h-6C16.224,0,16,0.224,16,0.5v22c0,0.276,0.224,0.5,0.5,0.5h6c0.276,0,0.5-0.224,0.5-0.5v-22
				C23,0.224,22.776,0,22.5,0z"/>
		</g>
	</g>
	<g id="New_icons">
	</g>
</g>
<g id="Invisible_Shape">
	<rect fill="none" width="24" height="24"/>
</g>
</svg>
