<?xml version="1.0" encoding="utf-8"?>
<!-- Generator: Adobe Illustrator 19.2.1, SVG Export Plug-In . SVG Version: 6.00 Build 0)  -->
<svg version="1.1" xmlns="http://www.w3.org/2000/svg" xmlns:xlink="http://www.w3.org/1999/xlink" x="0px" y="0px" width="24px"
	 height="24px" viewBox="0 0 24 24" enable-background="new 0 0 24 24" xml:space="preserve">
<g id="Filled_Icons_1_">
	<g id="Filled_Icons">
		<g>
			<path d="M4.5,2h-4C0.224,2,0,2.224,0,2.5v19C0,21.776,0.224,22,0.5,22h4C4.776,22,5,21.776,5,21.5v-19C5,2.224,4.776,2,4.5,2z"/>
			<path d="M23.5,2h-4C19.224,2,19,2.224,19,2.5v19c0,0.276,0.224,0.5,0.5,0.5h4c0.276,0,0.5-0.224,0.5-0.5v-19
				C24,2.224,23.776,2,23.5,2z"/>
			<path d="M17.5,2h-11C6.224,2,6,2.224,6,2.5v19C6,21.776,6.224,22,6.5,22h11c0.276,0,0.5-0.224,0.5-0.5v-19
				C18,2.224,17.776,2,17.5,2z"/>
		</g>
	</g>
	<g id="New_icons">
	</g>
</g>
<g id="Invisible_Shape">
	<rect fill="none" width="24" height="24"/>
</g>
</svg>
