<?xml version="1.0" encoding="utf-8"?>
<!-- Generator: Adobe Illustrator 16.0.3, SVG Export Plug-In . SVG Version: 6.00 Build 0)  -->
<!DOCTYPE svg PUBLIC "-//W3C//DTD SVG 1.1//EN" "http://www.w3.org/Graphics/SVG/1.1/DTD/svg11.dtd">
<svg version="1.1" xmlns="http://www.w3.org/2000/svg" xmlns:xlink="http://www.w3.org/1999/xlink" x="0px" y="0px" width="24px"
	 height="24px" viewBox="0 0 24 24" enable-background="new 0 0 24 24" xml:space="preserve">
<g id="Outline_Icons_1_">
	<g id="Outline_Icons">
		<g>
			<g>
				<g>
					<polyline fill="none" stroke="#000000" stroke-linecap="round" stroke-linejoin="round" stroke-miterlimit="10" points="
						23.5,15 23.5,17.5 21,17.5 					"/>
					<path fill="none" stroke="#000000" stroke-linecap="round" stroke-linejoin="round" stroke-miterlimit="10" d="M14.5,17.5
						c0.618-1.746,2.541-3,4.5-3s3.882,1.252,4.5,3"/>
				</g>
				<g>
					<polyline fill="none" stroke="#000000" stroke-linecap="round" stroke-linejoin="round" stroke-miterlimit="10" points="
						14.5,23 14.5,20.5 17,20.5 					"/>
					<path fill="none" stroke="#000000" stroke-linecap="round" stroke-linejoin="round" stroke-miterlimit="10" d="M23.5,20.5
						c-0.618,1.746-2.541,3-4.5,3s-3.882-1.252-4.5-3"/>
				</g>
			</g>
			<g>
				<polyline fill="none" stroke="#000000" stroke-linecap="round" stroke-linejoin="round" stroke-miterlimit="10" points="
					13.941,13.799 10,12.387 10,10.343 				"/>
				<path fill="none" stroke="#000000" stroke-linecap="round" stroke-linejoin="round" stroke-miterlimit="10" d="M6,10.343v2.044
					l-3.941,1.412C1.115,14.137,0.5,15.031,0.5,16.031v1.489H11"/>
				
					<ellipse fill="none" stroke="#000000" stroke-linecap="round" stroke-linejoin="round" stroke-miterlimit="10" cx="8" cy="6.256" rx="3.947" ry="4.74"/>
				<path fill="none" stroke="#000000" stroke-linecap="round" stroke-linejoin="round" stroke-miterlimit="10" d="M11.916,5.83
					c-0.132,0.018-0.241,0.006-0.374,0.033c-1.345,0.258-2.208-0.228-2.949-1.525C8.149,5.189,6.762,5.863,5.621,5.863
					c-0.562,0-1.045-0.115-1.528-0.369"/>
				<path fill="none" stroke="#000000" stroke-linecap="round" stroke-linejoin="round" stroke-miterlimit="10" d="M14.5,1.52
					c2.18,0,3.947,2.121,3.947,4.736c0,2.617-1.768,4.74-3.947,4.74"/>
				<path fill="none" stroke="#000000" stroke-linecap="round" stroke-linejoin="round" stroke-miterlimit="10" d="M18.416,5.83
					c-0.132,0.018-0.241,0.006-0.374,0.033c-1.345,0.258-2.208-0.228-2.949-1.525"/>
				
					<line fill="none" stroke="#000000" stroke-linecap="round" stroke-linejoin="round" stroke-miterlimit="10" x1="16.5" y1="12.02" x2="16.5" y2="10.343"/>
			</g>
		</g>
	</g>
	<g id="New_icons_1_">
	</g>
</g>
<g id="Invisible_Shape">
	<rect fill="none" width="24" height="24"/>
</g>
</svg>
