<?xml version="1.0" encoding="utf-8"?>
<!-- Generator: Adobe Illustrator 16.0.3, SVG Export Plug-In . SVG Version: 6.00 Build 0)  -->
<!DOCTYPE svg PUBLIC "-//W3C//DTD SVG 1.1//EN" "http://www.w3.org/Graphics/SVG/1.1/DTD/svg11.dtd">
<svg version="1.1" xmlns="http://www.w3.org/2000/svg" xmlns:xlink="http://www.w3.org/1999/xlink" x="0px" y="0px" width="24px"
	 height="24px" viewBox="0 0 24 24" enable-background="new 0 0 24 24" xml:space="preserve">
<g id="Outline_Icons_1_">
	<g id="Outline_Icons">
		<g>
			<g>
				<path fill="none" stroke="#000000" stroke-linejoin="round" stroke-miterlimit="10" d="M20,20c0,0.277-0.224,0.5-0.5,0.5l0,0
					c-0.276,0-0.5-0.223-0.5-0.5l0,0c0-0.275,0.224-0.5,0.5-0.5l0,0C19.776,19.5,20,19.725,20,20L20,20z"/>
				
					<rect x="15.5" y="17.5" fill="none" stroke="#000000" stroke-linecap="round" stroke-linejoin="round" stroke-miterlimit="10" width="8" height="6"/>
				
					<line fill="none" stroke="#000000" stroke-linecap="round" stroke-linejoin="round" stroke-miterlimit="10" x1="19.5" y1="21.5" x2="19.5" y2="20.5"/>
				<path fill="none" stroke="#000000" stroke-linecap="round" stroke-linejoin="round" stroke-miterlimit="10" d="M16.5,17.5v-1
					c0-1.656,1.343-3,3-3c1.656,0,3,1.344,3,3v1"/>
			</g>
			<g>
				<polyline fill="none" stroke="#000000" stroke-linecap="round" stroke-linejoin="round" stroke-miterlimit="10" points="
					13.941,13.779 10,12.367 10,10.322 				"/>
				<path fill="none" stroke="#000000" stroke-linecap="round" stroke-linejoin="round" stroke-miterlimit="10" d="M6,10.322v2.045
					l-3.941,1.412C1.115,14.117,0.5,15.012,0.5,16.012V17.5H11"/>
				
					<ellipse fill="none" stroke="#000000" stroke-linecap="round" stroke-linejoin="round" stroke-miterlimit="10" cx="8" cy="6.236" rx="3.947" ry="4.74"/>
				<path fill="none" stroke="#000000" stroke-linecap="round" stroke-linejoin="round" stroke-miterlimit="10" d="M11.916,5.811
					c-0.132,0.018-0.241,0.006-0.374,0.033c-1.345,0.258-2.208-0.229-2.949-1.525C8.149,5.17,6.762,5.844,5.621,5.844
					c-0.562,0-1.045-0.115-1.528-0.369"/>
				<path fill="none" stroke="#000000" stroke-linecap="round" stroke-linejoin="round" stroke-miterlimit="10" d="M14.5,1.5
					c2.18,0,3.947,2.121,3.947,4.736c0,2.617-1.768,4.74-3.947,4.74"/>
				<path fill="none" stroke="#000000" stroke-linecap="round" stroke-linejoin="round" stroke-miterlimit="10" d="M18.416,5.811
					c-0.132,0.018-0.241,0.006-0.374,0.033c-1.345,0.258-2.208-0.229-2.949-1.525"/>
				
					<line fill="none" stroke="#000000" stroke-linecap="round" stroke-linejoin="round" stroke-miterlimit="10" x1="16.5" y1="12" x2="16.5" y2="10.322"/>
			</g>
		</g>
	</g>
	<g id="New_icons_1_">
	</g>
</g>
<g id="Invisible_Shape">
	<rect fill="none" width="24" height="24"/>
</g>
</svg>
