<?xml version="1.0" encoding="utf-8"?>
<!-- Generator: Adobe Illustrator 16.0.3, SVG Export Plug-In . SVG Version: 6.00 Build 0)  -->
<!DOCTYPE svg PUBLIC "-//W3C//DTD SVG 1.1//EN" "http://www.w3.org/Graphics/SVG/1.1/DTD/svg11.dtd">
<svg version="1.1" xmlns="http://www.w3.org/2000/svg" xmlns:xlink="http://www.w3.org/1999/xlink" x="0px" y="0px" width="24px"
	 height="24px" viewBox="0 0 24 24" enable-background="new 0 0 24 24" xml:space="preserve">
<g id="Outline_Icons_1_">
	<g id="Outline_Icons">
		<g>
			<g>
				<g>
					<path fill="none" stroke="#000000" stroke-linejoin="round" stroke-miterlimit="10" d="M6,16.323v2.044l-3.941,1.412
						C1.115,20.117,0.5,21.012,0.5,22.012V23.5h15v-1.488c0-1-0.616-1.895-1.559-2.233L10,18.367v-2.045"/>
					<path fill="none" stroke="#000000" stroke-linejoin="round" stroke-miterlimit="10" d="M11.947,12.236
						c0,2.618-1.768,4.741-3.947,4.741c-2.181,0-3.947-2.123-3.947-4.741C4.053,9.621,5.819,7.5,8,7.5
						C10.18,7.5,11.947,9.621,11.947,12.236z"/>
					<path fill="none" stroke="#000000" stroke-linejoin="round" stroke-miterlimit="10" d="M11.916,11.811
						c-0.132,0.018-0.241,0.006-0.374,0.033c-1.345,0.258-2.208-0.229-2.949-1.525c-0.443,0.852-1.831,1.525-2.972,1.525
						c-0.562,0-1.045-0.115-1.528-0.369"/>
				</g>
				<g>
					<path fill="none" stroke="#000000" stroke-linecap="round" stroke-linejoin="round" stroke-miterlimit="10" d="M14,7.5
						c2.18,0,3.947,2.121,3.947,4.736c0,2.618-1.768,4.741-3.947,4.741"/>
					<path fill="none" stroke="#000000" stroke-linecap="round" stroke-linejoin="round" stroke-miterlimit="10" d="M17.916,11.811
						c-0.132,0.018-0.241,0.006-0.374,0.033c-1.345,0.258-2.208-0.229-2.949-1.525"/>
					<path fill="none" stroke="#000000" stroke-linecap="round" stroke-linejoin="round" stroke-miterlimit="10" d="M18.031,23.5
						H21.5v-1.488c0-1-0.616-1.895-1.559-2.233L16,18.367v-2.045"/>
				</g>
			</g>
			
				<line fill="none" stroke="#000000" stroke-linecap="round" stroke-linejoin="round" stroke-miterlimit="10" x1="17.521" y1="4.5" x2="23.521" y2="4.5"/>
		</g>
	</g>
	<g id="New_icons_1_">
	</g>
</g>
<g id="Invisible_Shape">
	<rect fill="none" width="24" height="24"/>
</g>
</svg>
