<?xml version="1.0" encoding="utf-8"?>
<!-- Generator: Adobe Illustrator 16.0.3, SVG Export Plug-In . SVG Version: 6.00 Build 0)  -->
<!DOCTYPE svg PUBLIC "-//W3C//DTD SVG 1.1//EN" "http://www.w3.org/Graphics/SVG/1.1/DTD/svg11.dtd">
<svg version="1.1" xmlns="http://www.w3.org/2000/svg" xmlns:xlink="http://www.w3.org/1999/xlink" x="0px" y="0px" width="24px"
	 height="24px" viewBox="0 0 24 24" enable-background="new 0 0 24 24" xml:space="preserve">
<g id="Outline_Icons_1_">
	<g id="Outline_Icons">
		<g>
			<g>
				<circle fill="none" stroke="#000000" stroke-linejoin="round" stroke-miterlimit="10" cx="18.499" cy="18.498" r="5"/>
				
					<line fill="none" stroke="#000000" stroke-linecap="round" stroke-linejoin="round" stroke-miterlimit="10" x1="16.249" y1="16.248" x2="20.749" y2="20.748"/>
				
					<line fill="none" stroke="#000000" stroke-linecap="round" stroke-linejoin="round" stroke-miterlimit="10" x1="20.749" y1="16.248" x2="16.249" y2="20.748"/>
			</g>
			<path fill="none" stroke="#000000" stroke-linecap="round" stroke-linejoin="round" stroke-miterlimit="10" d="M13.967,13.318
				c-0.778-0.258-1.616-0.533-2.467-0.854v-2.5c0,0,1.5-0.619,1.5-3c0.783,0,0.783-2.071,0-2.071c0-0.233,0.828-1.606,0.5-2.929
				c-0.474-1.905-6.026-1.905-6.5,0c-2.369-0.477-1,2.681-1,3c-0.783,0-0.783,2,0,2c0,2.381,1.5,3,1.5,3v2.5
				c-2.777,1.056-6.088,1.756-6.5,3C0.526,16.894,0.5,19.5,0.5,19.5H11"/>
		</g>
	</g>
	<g id="New_icons_1_">
	</g>
</g>
<g id="Invisible_Shape">
	<rect fill="none" width="24" height="24"/>
</g>
</svg>
