<?xml version="1.0" encoding="utf-8"?>
<!-- Generator: Adobe Illustrator 16.0.3, SVG Export Plug-In . SVG Version: 6.00 Build 0)  -->
<!DOCTYPE svg PUBLIC "-//W3C//DTD SVG 1.1//EN" "http://www.w3.org/Graphics/SVG/1.1/DTD/svg11.dtd">
<svg version="1.1" xmlns="http://www.w3.org/2000/svg" xmlns:xlink="http://www.w3.org/1999/xlink" x="0px" y="0px" width="24px"
	 height="24px" viewBox="0 0 24 24" enable-background="new 0 0 24 24" xml:space="preserve">
<g id="Outline_Icons_1_">
	<g id="Outline_Icons">
		<g>
			<g>
				<circle fill="none" stroke="#000000" stroke-linejoin="round" stroke-miterlimit="10" cx="18" cy="18" r="3.5"/>
				
					<line fill="none" stroke="#000000" stroke-linecap="round" stroke-linejoin="round" stroke-miterlimit="10" x1="23.5" y1="23.5" x2="20.474" y2="20.475"/>
			</g>
			<path fill="none" stroke="#000000" stroke-linecap="round" stroke-linejoin="round" stroke-miterlimit="10" d="M14.466,13.354
				C13.688,13.096,12.5,12.82,12,12.5V10c0,0,1.5-0.619,1.5-3c0.5,0,0.5-2.07,0-2.07c0-0.235,0.732-1.608,0.403-2.93
				C13.43,0.096,7.925,0.096,7.452,2C5.084,1.525,6.5,4.681,6.5,5c-1,0-1,2,0,2c0,2.381,1.5,3,1.5,3v2.5
				c-3,1.057-6.185,1.756-6.597,3c-0.474,1.43-0.903,4-0.903,4h11"/>
		</g>
	</g>
	<g id="New_icons_1_">
	</g>
</g>
<g id="Invisible_Shape">
	<rect fill="none" width="24" height="24"/>
</g>
</svg>
