<?xml version="1.0" encoding="utf-8"?>
<!-- Generator: Adobe Illustrator 16.0.3, SVG Export Plug-In . SVG Version: 6.00 Build 0)  -->
<!DOCTYPE svg PUBLIC "-//W3C//DTD SVG 1.1//EN" "http://www.w3.org/Graphics/SVG/1.1/DTD/svg11.dtd">
<svg version="1.1" xmlns="http://www.w3.org/2000/svg" xmlns:xlink="http://www.w3.org/1999/xlink" x="0px" y="0px" width="24px"
	 height="24px" viewBox="0 0 24 24" enable-background="new 0 0 24 24" xml:space="preserve">
<g id="Outline_Icons_1_">
	<g id="Outline_Icons">
		<g>
			<path fill="none" stroke="#000000" stroke-linecap="round" stroke-linejoin="round" stroke-miterlimit="10" d="M19.001,23.5
				c1.671-1.214,4.499-3.779,4.499-5.697c0-1.555-1.133-2.484-2.228-2.484c-1.218,0-1.671,0.84-2.272,1.833
				c-0.602-0.993-1.055-1.833-2.272-1.833c-1.095,0-2.228,0.929-2.228,2.484C14.5,19.721,17.328,22.286,19.001,23.5L19.001,23.5z"/>
			<g>
				
					<line fill="none" stroke="#000000" stroke-linecap="round" stroke-linejoin="round" stroke-miterlimit="10" x1="12.5" y1="14.5" x2="12.5" y2="11.696"/>
				<path fill="none" stroke="#000000" stroke-linecap="round" stroke-linejoin="round" stroke-miterlimit="10" d="M7.5,11.696V14.5
					l-5.009,1.789C1.297,16.716,0.5,17.847,0.5,19.114V21.5h12"/>
				<ellipse fill="none" stroke="#000000" stroke-linejoin="round" stroke-miterlimit="10" cx="10" cy="6.5" rx="5" ry="6"/>
				<path fill="none" stroke="#000000" stroke-linejoin="round" stroke-miterlimit="10" d="M14.953,5.953
					C14.785,5.974,14.669,5.967,14.5,6c-1.703,0.328-2.797-0.289-3.734-1.93C10.203,5.148,8.444,6,7,6
					C6.289,6,5.677,5.854,5.064,5.534"/>
			</g>
		</g>
	</g>
	<g id="New_icons_1_">
	</g>
</g>
<g id="Invisible_Shape">
	<rect fill="none" width="24" height="24"/>
</g>
</svg>
