<?xml version="1.0" encoding="utf-8"?>
<!-- Generator: Adobe Illustrator 16.0.3, SVG Export Plug-In . SVG Version: 6.00 Build 0)  -->
<!DOCTYPE svg PUBLIC "-//W3C//DTD SVG 1.1//EN" "http://www.w3.org/Graphics/SVG/1.1/DTD/svg11.dtd">
<svg version="1.1" xmlns="http://www.w3.org/2000/svg" xmlns:xlink="http://www.w3.org/1999/xlink" x="0px" y="0px" width="24px"
	 height="24px" viewBox="0 0 24 24" enable-background="new 0 0 24 24" xml:space="preserve">
<g id="Outline_Icons_1_">
	<g id="Outline_Icons">
		<g>
			<path fill="none" stroke="#000000" stroke-linecap="round" stroke-linejoin="round" stroke-miterlimit="10" d="M18.999,23.499
				c1.671-1.214,4.499-3.779,4.499-5.697c0-1.555-1.133-2.484-2.228-2.484c-1.218,0-1.671,0.84-2.272,1.833
				c-0.602-0.993-1.055-1.833-2.272-1.833c-1.095,0-2.228,0.93-2.228,2.484C14.498,19.72,17.326,22.285,18.999,23.499L18.999,23.499
				z"/>
			<path fill="none" stroke="#000000" stroke-linecap="round" stroke-linejoin="round" stroke-miterlimit="10" d="M14.466,13.354
				C13.688,13.096,12.5,12.82,12,12.5V10c0,0,1.5-0.619,1.5-3c0.5,0,0.5-2.07,0-2.07c0-0.235,0.715-1.608,0.386-2.93
				c-0.474-1.904-5.969-1.904-6.443,0C5.075,1.525,6.5,4.681,6.5,5c-1,0-1,2,0,2c0,2.381,1.5,3,1.5,3v2.5
				c-3,1.057-6.201,1.756-6.614,3c-0.474,1.43-0.886,4-0.886,4h11"/>
		</g>
	</g>
	<g id="New_icons_1_">
	</g>
</g>
<g id="Invisible_Shape">
	<rect fill="none" width="24" height="24"/>
</g>
</svg>
