<?xml version="1.0" encoding="utf-8"?>
<!-- Generator: Adobe Illustrator 16.0.3, SVG Export Plug-In . SVG Version: 6.00 Build 0)  -->
<!DOCTYPE svg PUBLIC "-//W3C//DTD SVG 1.1//EN" "http://www.w3.org/Graphics/SVG/1.1/DTD/svg11.dtd">
<svg version="1.1" xmlns="http://www.w3.org/2000/svg" xmlns:xlink="http://www.w3.org/1999/xlink" x="0px" y="0px" width="24px"
	 height="24px" viewBox="0 0 24 24" enable-background="new 0 0 24 24" xml:space="preserve">
<g id="Outline_Icons_1_">
	<g id="Outline_Icons">
		<g>
			<g>
				<circle fill="none" stroke="#000000" stroke-linejoin="round" stroke-miterlimit="10" cx="18.499" cy="18.499" r="5"/>
				
					<line fill="none" stroke="#000000" stroke-linejoin="round" stroke-miterlimit="10" x1="14.964" y1="22.034" x2="22.035" y2="14.964"/>
			</g>
			<path fill="none" stroke="#000000" stroke-linecap="round" stroke-linejoin="round" stroke-miterlimit="10" d="M14.033,13.318
				c-0.777-0.258-1.533-0.533-2.533-0.854v-2.5c0,0,1.5-0.619,1.5-3c1,0,1-2.071,0-2.071c0-0.233,0.896-1.606,0.568-2.929
				c-0.475-1.905-6.061-1.905-6.534,0C4.666,1.488,6,4.646,6,4.964c-0.5,0-0.5,2,0,2c0,2.381,1.5,3,1.5,3v2.5
				c-2.5,1.055-6.02,1.756-6.432,3C0.594,16.894,0.5,19.5,0.5,19.5H11"/>
		</g>
	</g>
	<g id="New_icons_1_">
	</g>
</g>
<g id="Invisible_Shape">
	<rect fill="none" width="24" height="24"/>
</g>
</svg>
