<?xml version="1.0" encoding="utf-8"?>
<!-- Generator: Adobe Illustrator 16.0.3, SVG Export Plug-In . SVG Version: 6.00 Build 0)  -->
<!DOCTYPE svg PUBLIC "-//W3C//DTD SVG 1.1//EN" "http://www.w3.org/Graphics/SVG/1.1/DTD/svg11.dtd">
<svg version="1.1" xmlns="http://www.w3.org/2000/svg" xmlns:xlink="http://www.w3.org/1999/xlink" x="0px" y="0px" width="24px"
	 height="24px" viewBox="0 0 24 24" enable-background="new 0 0 24 24" xml:space="preserve">
<g id="Outline_Icons_1_">
	<g id="Outline_Icons">
		<g>
			<g>
				<circle fill="none" stroke="#000000" stroke-linejoin="round" stroke-miterlimit="10" cx="18.5" cy="18.5" r="5"/>
				<g>
					<path fill="none" stroke="#000000" stroke-linecap="round" stroke-linejoin="round" stroke-miterlimit="10" d="M17.341,19.6
						c0,0.641,0.519,1.16,1.159,1.16c0.64,0,1.159-0.52,1.159-1.16c0-0.639-0.52-1.158-1.159-1.158c-0.641,0-1.159-0.52-1.159-1.161
						c0-0.638,0.519-1.158,1.159-1.158c0.64,0,1.159,0.52,1.159,1.158"/>
					
						<line fill="none" stroke="#000000" stroke-linecap="round" stroke-linejoin="round" stroke-miterlimit="10" x1="18.5" y1="20.76" x2="18.5" y2="21.531"/>
					
						<line fill="none" stroke="#000000" stroke-linecap="round" stroke-linejoin="round" stroke-miterlimit="10" x1="18.5" y1="15.35" x2="18.5" y2="16.123"/>
				</g>
			</g>
			<path fill="none" stroke="#000000" stroke-linecap="round" stroke-linejoin="round" stroke-miterlimit="10" d="M13.967,13.354
				c-0.777-0.258-1.615-0.533-2.466-0.854V10c0,0,1.5-0.619,1.5-3c0.782,0,0.782-2.072,0-2.072c0-0.233,0.828-1.606,0.5-2.928
				c-0.474-1.904-6.026-1.904-6.5,0c-2.369-0.477-1,2.681-1,3c-0.783,0-0.783,2,0,2c0,2.381,1.5,3,1.5,3v2.5
				c-2.778,1.055-6.088,1.756-6.5,3c-0.474,1.428-0.5,4-0.5,4h10.5"/>
		</g>
	</g>
	<g id="New_icons_1_">
	</g>
</g>
<g id="Invisible_Shape">
	<rect fill="none" width="24" height="24"/>
</g>
</svg>
