<?xml version="1.0" encoding="utf-8"?>
<!-- Generator: Adobe Illustrator 16.0.3, SVG Export Plug-In . SVG Version: 6.00 Build 0)  -->
<!DOCTYPE svg PUBLIC "-//W3C//DTD SVG 1.1//EN" "http://www.w3.org/Graphics/SVG/1.1/DTD/svg11.dtd">
<svg version="1.1" xmlns="http://www.w3.org/2000/svg" xmlns:xlink="http://www.w3.org/1999/xlink" x="0px" y="0px" width="24px"
	 height="24px" viewBox="0 0 24 24" enable-background="new 0 0 24 24" xml:space="preserve">
<g id="Outline_Icons">
	<g>
		<g>
			<g>
				<path d="M0.5,1C0.223,1,0,1.224,0,1.5S0.223,2,0.5,2C0.775,2,1,1.776,1,1.5S0.775,1,0.5,1L0.5,1z"/>
			</g>
		</g>
		<g>
			<g>
				<path d="M2.5,1C2.223,1,2,1.224,2,1.5S2.223,2,2.5,2C2.775,2,3,1.776,3,1.5S2.775,1,2.5,1L2.5,1z"/>
			</g>
		</g>
		<g>
			<g>
				<path d="M4.5,1C4.223,1,4,1.224,4,1.5S4.223,2,4.5,2C4.775,2,5,1.776,5,1.5S4.775,1,4.5,1L4.5,1z"/>
			</g>
		</g>
		<g>
			<g>
				<path d="M6.5,1C6.223,1,6,1.224,6,1.5S6.223,2,6.5,2C6.775,2,7,1.776,7,1.5S6.775,1,6.5,1L6.5,1z"/>
			</g>
		</g>
		<g>
			<g>
				<path d="M8.5,1C8.223,1,8,1.224,8,1.5S8.223,2,8.5,2C8.775,2,9,1.776,9,1.5S8.775,1,8.5,1L8.5,1z"/>
			</g>
		</g>
		<g>
			<g>
				<path d="M10.5,1C10.223,1,10,1.224,10,1.5S10.223,2,10.5,2C10.775,2,11,1.776,11,1.5S10.775,1,10.5,1L10.5,1z"/>
			</g>
		</g>
		<g>
			<g>
				<path d="M12.5,1C12.223,1,12,1.224,12,1.5S12.223,2,12.5,2C12.775,2,13,1.776,13,1.5S12.775,1,12.5,1L12.5,1z"/>
			</g>
		</g>
		<g>
			<g>
				<path d="M2.5,23C2.223,23,2,23.224,2,23.5S2.223,24,2.5,24C2.775,24,3,23.776,3,23.5S2.775,23,2.5,23L2.5,23z"/>
			</g>
		</g>
		<g>
			<g>
				<path d="M4.5,23C4.223,23,4,23.224,4,23.5S4.223,24,4.5,24C4.775,24,5,23.776,5,23.5S4.775,23,4.5,23L4.5,23z"/>
			</g>
		</g>
		<g>
			<g>
				<path d="M6.5,23C6.223,23,6,23.224,6,23.5S6.223,24,6.5,24C6.775,24,7,23.776,7,23.5S6.775,23,6.5,23L6.5,23z"/>
			</g>
		</g>
		<g>
			<g>
				<path d="M8.5,23C8.223,23,8,23.224,8,23.5S8.223,24,8.5,24C8.775,24,9,23.776,9,23.5S8.775,23,8.5,23L8.5,23z"/>
			</g>
		</g>
		<g>
			<g>
				<path d="M10.5,23c-0.277,0-0.5,0.224-0.5,0.5s0.223,0.5,0.5,0.5c0.275,0,0.5-0.224,0.5-0.5S10.775,23,10.5,23L10.5,23z"/>
			</g>
		</g>
		<g>
			<g>
				<path d="M12.5,23c-0.277,0-0.5,0.224-0.5,0.5s0.223,0.5,0.5,0.5c0.275,0,0.5-0.224,0.5-0.5S12.775,23,12.5,23L12.5,23z"/>
			</g>
		</g>
		<g>
			<g>
				<path d="M14.5,23c-0.277,0-0.5,0.224-0.5,0.5s0.223,0.5,0.5,0.5c0.275,0,0.5-0.224,0.5-0.5S14.775,23,14.5,23L14.5,23z"/>
			</g>
		</g>
		<g>
			<g>
				<path d="M16.5,23c-0.277,0-0.5,0.224-0.5,0.5s0.223,0.5,0.5,0.5c0.275,0,0.5-0.224,0.5-0.5S16.775,23,16.5,23L16.5,23z"/>
			</g>
		</g>
		<g>
			<g>
				<path d="M18.5,23c-0.277,0-0.5,0.224-0.5,0.5s0.223,0.5,0.5,0.5c0.275,0,0.5-0.224,0.5-0.5S18.775,23,18.5,23L18.5,23z"/>
			</g>
		</g>
		<g>
			<g>
				<path d="M20.5,23c-0.277,0-0.5,0.224-0.5,0.5s0.223,0.5,0.5,0.5c0.275,0,0.5-0.224,0.5-0.5S20.775,23,20.5,23L20.5,23z"/>
			</g>
		</g>
		<g>
			<g>
				<path d="M14.5,1C14.223,1,14,1.224,14,1.5S14.223,2,14.5,2C14.775,2,15,1.776,15,1.5S14.775,1,14.5,1L14.5,1z"/>
			</g>
		</g>
		<g>
			<g>
				<path d="M16.5,1C16.223,1,16,1.224,16,1.5S16.223,2,16.5,2C16.775,2,17,1.776,17,1.5S16.775,1,16.5,1L16.5,1z"/>
			</g>
		</g>
		<g>
			<g>
				<path d="M18.5,1C18.223,1,18,1.224,18,1.5S18.223,2,18.5,2C18.775,2,19,1.776,19,1.5S18.775,1,18.5,1L18.5,1z"/>
			</g>
		</g>
		<g>
			<g>
				<path d="M20.5,1C20.223,1,20,1.224,20,1.5S20.223,2,20.5,2C20.775,2,21,1.776,21,1.5S20.775,1,20.5,1L20.5,1z"/>
			</g>
		</g>
		<g>
			<g>
				<path d="M2.5,12C2.223,12,2,12.224,2,12.5S2.223,13,2.5,13C2.775,13,3,12.776,3,12.5S2.775,12,2.5,12L2.5,12z"/>
			</g>
		</g>
		<g>
			<g>
				<path d="M4.5,12C4.223,12,4,12.224,4,12.5S4.223,13,4.5,13C4.775,13,5,12.776,5,12.5S4.775,12,4.5,12L4.5,12z"/>
			</g>
		</g>
		<g>
			<g>
				<path d="M6.5,12C6.223,12,6,12.224,6,12.5S6.223,13,6.5,13C6.775,13,7,12.776,7,12.5S6.775,12,6.5,12L6.5,12z"/>
			</g>
		</g>
		<g>
			<g>
				<path d="M8.5,12C8.223,12,8,12.224,8,12.5S8.223,13,8.5,13C8.775,13,9,12.776,9,12.5S8.775,12,8.5,12L8.5,12z"/>
			</g>
		</g>
		<g>
			<g>
				<path d="M10.5,12c-0.277,0-0.5,0.224-0.5,0.5s0.223,0.5,0.5,0.5c0.275,0,0.5-0.224,0.5-0.5S10.775,12,10.5,12L10.5,12z"/>
			</g>
		</g>
		<g>
			<g>
				<path d="M12.5,12c-0.277,0-0.5,0.224-0.5,0.5s0.223,0.5,0.5,0.5c0.275,0,0.5-0.224,0.5-0.5S12.775,12,12.5,12L12.5,12z"/>
			</g>
		</g>
		<g>
			<g>
				<path d="M14.5,12c-0.277,0-0.5,0.224-0.5,0.5s0.223,0.5,0.5,0.5c0.275,0,0.5-0.224,0.5-0.5S14.775,12,14.5,12L14.5,12z"/>
			</g>
		</g>
		<g>
			<g>
				<path d="M16.5,12c-0.277,0-0.5,0.224-0.5,0.5s0.223,0.5,0.5,0.5c0.275,0,0.5-0.224,0.5-0.5S16.775,12,16.5,12L16.5,12z"/>
			</g>
		</g>
		<g>
			<g>
				<path d="M18.5,12c-0.277,0-0.5,0.224-0.5,0.5s0.223,0.5,0.5,0.5c0.275,0,0.5-0.224,0.5-0.5S18.775,12,18.5,12L18.5,12z"/>
			</g>
		</g>
		<g>
			<g>
				<path d="M20.5,12c-0.277,0-0.5,0.224-0.5,0.5s0.223,0.5,0.5,0.5c0.275,0,0.5-0.224,0.5-0.5S20.775,12,20.5,12L20.5,12z"/>
			</g>
		</g>
		<g>
			<g>
				<path d="M11.5,3C11.224,3,11,3.223,11,3.5C11,3.775,11.224,4,11.5,4S12,3.775,12,3.5C12,3.223,11.776,3,11.5,3L11.5,3z"/>
			</g>
		</g>
		<g>
			<g>
				<path d="M11.5,5C11.224,5,11,5.223,11,5.5C11,5.775,11.224,6,11.5,6S12,5.775,12,5.5C12,5.223,11.776,5,11.5,5L11.5,5z"/>
			</g>
		</g>
		<g>
			<g>
				<path d="M11.5,7C11.224,7,11,7.223,11,7.5C11,7.775,11.224,8,11.5,8S12,7.775,12,7.5C12,7.223,11.776,7,11.5,7L11.5,7z"/>
			</g>
		</g>
		<g>
			<g>
				<path d="M11.5,9C11.224,9,11,9.223,11,9.5c0,0.275,0.224,0.5,0.5,0.5S12,9.775,12,9.5C12,9.223,11.776,9,11.5,9L11.5,9z"/>
			</g>
		</g>
		<g>
			<g>
				<path d="M11.5,11c-0.276,0-0.5,0.223-0.5,0.5c0,0.275,0.224,0.5,0.5,0.5s0.5-0.225,0.5-0.5C12,11.223,11.776,11,11.5,11L11.5,11
					z"/>
			</g>
		</g>
		<g>
			<g>
				<path d="M11.5,13c-0.276,0-0.5,0.223-0.5,0.5c0,0.275,0.224,0.5,0.5,0.5s0.5-0.225,0.5-0.5C12,13.223,11.776,13,11.5,13L11.5,13
					z"/>
			</g>
		</g>
		<g>
			<g>
				<path d="M11.5,15c-0.276,0-0.5,0.223-0.5,0.5c0,0.275,0.224,0.5,0.5,0.5s0.5-0.225,0.5-0.5C12,15.223,11.776,15,11.5,15L11.5,15
					z"/>
			</g>
		</g>
		<g>
			<g>
				<path d="M11.5,17c-0.276,0-0.5,0.223-0.5,0.5c0,0.275,0.224,0.5,0.5,0.5s0.5-0.225,0.5-0.5C12,17.223,11.776,17,11.5,17L11.5,17
					z"/>
			</g>
		</g>
		<g>
			<g>
				<path d="M11.5,19c-0.276,0-0.5,0.223-0.5,0.5c0,0.275,0.224,0.5,0.5,0.5s0.5-0.225,0.5-0.5C12,19.223,11.776,19,11.5,19L11.5,19
					z"/>
			</g>
		</g>
		<g>
			<g>
				<path d="M11.5,21c-0.276,0-0.5,0.223-0.5,0.5c0,0.275,0.224,0.5,0.5,0.5s0.5-0.225,0.5-0.5C12,21.223,11.776,21,11.5,21L11.5,21
					z"/>
			</g>
		</g>
		<g>
			<g>
				<path d="M0.5,3C0.223,3,0,3.224,0,3.5S0.223,4,0.5,4C0.775,4,1,3.776,1,3.5S0.775,3,0.5,3L0.5,3z"/>
			</g>
		</g>
		<g>
			<g>
				<path d="M0.5,5C0.223,5,0,5.224,0,5.5S0.223,6,0.5,6C0.775,6,1,5.776,1,5.5S0.775,5,0.5,5L0.5,5z"/>
			</g>
		</g>
		<g>
			<g>
				<path d="M0.5,7C0.223,7,0,7.224,0,7.5S0.223,8,0.5,8C0.775,8,1,7.776,1,7.5S0.775,7,0.5,7L0.5,7z"/>
			</g>
		</g>
		<g>
			<g>
				<path d="M0.5,9C0.223,9,0,9.224,0,9.5S0.223,10,0.5,10C0.775,10,1,9.776,1,9.5S0.775,9,0.5,9L0.5,9z"/>
			</g>
		</g>
		<g>
			<g>
				<path d="M0.5,11C0.223,11,0,11.224,0,11.5S0.223,12,0.5,12C0.775,12,1,11.776,1,11.5S0.775,11,0.5,11L0.5,11z"/>
			</g>
		</g>
		<g>
			<g>
				<path d="M0.5,13C0.223,13,0,13.224,0,13.5S0.223,14,0.5,14C0.775,14,1,13.776,1,13.5S0.775,13,0.5,13L0.5,13z"/>
			</g>
		</g>
		<g>
			<g>
				<path d="M0.5,15C0.223,15,0,15.224,0,15.5S0.223,16,0.5,16C0.775,16,1,15.776,1,15.5S0.775,15,0.5,15L0.5,15z"/>
			</g>
		</g>
		<g>
			<g>
				<path d="M0.5,17C0.223,17,0,17.224,0,17.5S0.223,18,0.5,18C0.775,18,1,17.776,1,17.5S0.775,17,0.5,17L0.5,17z"/>
			</g>
		</g>
		<g>
			<g>
				<path d="M0.5,19C0.223,19,0,19.224,0,19.5S0.223,20,0.5,20C0.775,20,1,19.776,1,19.5S0.775,19,0.5,19L0.5,19z"/>
			</g>
		</g>
		<g>
			<g>
				<path d="M0.5,21C0.223,21,0,21.224,0,21.5S0.223,22,0.5,22C0.775,22,1,21.776,1,21.5S0.775,21,0.5,21L0.5,21z"/>
			</g>
		</g>
		<g>
			<g>
				<path d="M0.5,23C0.223,23,0,23.224,0,23.5S0.223,24,0.5,24C0.775,24,1,23.776,1,23.5S0.775,23,0.5,23L0.5,23z"/>
			</g>
		</g>
		
			<line fill="none" stroke="#000000" stroke-linecap="round" stroke-linejoin="round" stroke-miterlimit="10" x1="22.5" y1="1.5" x2="22.5" y2="23.5"/>
	</g>
</g>
<g id="Invisible_Shape">
	<rect fill="none" width="24" height="24"/>
</g>
</svg>
