<?xml version="1.0" encoding="utf-8"?>
<!-- Generator: Adobe Illustrator 16.0.3, SVG Export Plug-In . SVG Version: 6.00 Build 0)  -->
<!DOCTYPE svg PUBLIC "-//W3C//DTD SVG 1.1//EN" "http://www.w3.org/Graphics/SVG/1.1/DTD/svg11.dtd">
<svg version="1.1" xmlns="http://www.w3.org/2000/svg" xmlns:xlink="http://www.w3.org/1999/xlink" x="0px" y="0px" width="24px"
	 height="24px" viewBox="0 0 24 24" enable-background="new 0 0 24 24" xml:space="preserve">
<g id="Outline_Icons">
	<g>
		<g>
			<g>
				<path d="M0.5,0C0.223,0,0,0.224,0,0.5S0.223,1,0.5,1C0.775,1,1,0.776,1,0.5S0.775,0,0.5,0L0.5,0z"/>
			</g>
		</g>
		<g>
			<g>
				<path d="M2.5,0C2.223,0,2,0.224,2,0.5S2.223,1,2.5,1C2.775,1,3,0.776,3,0.5S2.775,0,2.5,0L2.5,0z"/>
			</g>
		</g>
		<g>
			<g>
				<path d="M4.5,0C4.223,0,4,0.224,4,0.5S4.223,1,4.5,1C4.775,1,5,0.776,5,0.5S4.775,0,4.5,0L4.5,0z"/>
			</g>
		</g>
		<g>
			<g>
				<path d="M6.5,0C6.223,0,6,0.224,6,0.5S6.223,1,6.5,1C6.775,1,7,0.776,7,0.5S6.775,0,6.5,0L6.5,0z"/>
			</g>
		</g>
		<g>
			<g>
				<path d="M8.5,0C8.223,0,8,0.224,8,0.5S8.223,1,8.5,1C8.775,1,9,0.776,9,0.5S8.775,0,8.5,0L8.5,0z"/>
			</g>
		</g>
		<g>
			<g>
				<path d="M10.5,0C10.223,0,10,0.224,10,0.5S10.223,1,10.5,1C10.775,1,11,0.776,11,0.5S10.775,0,10.5,0L10.5,0z"/>
			</g>
		</g>
		<g>
			<g>
				<path d="M12.5,0C12.223,0,12,0.224,12,0.5S12.223,1,12.5,1C12.775,1,13,0.776,13,0.5S12.775,0,12.5,0L12.5,0z"/>
			</g>
		</g>
		<g>
			<g>
				<path d="M2.5,22C2.223,22,2,22.224,2,22.5S2.223,23,2.5,23C2.775,23,3,22.776,3,22.5S2.775,22,2.5,22L2.5,22z"/>
			</g>
		</g>
		<g>
			<g>
				<path d="M4.5,22C4.223,22,4,22.224,4,22.5S4.223,23,4.5,23C4.775,23,5,22.776,5,22.5S4.775,22,4.5,22L4.5,22z"/>
			</g>
		</g>
		<g>
			<g>
				<path d="M6.5,22C6.223,22,6,22.224,6,22.5S6.223,23,6.5,23C6.775,23,7,22.776,7,22.5S6.775,22,6.5,22L6.5,22z"/>
			</g>
		</g>
		<g>
			<g>
				<path d="M8.5,22C8.223,22,8,22.224,8,22.5S8.223,23,8.5,23C8.775,23,9,22.776,9,22.5S8.775,22,8.5,22L8.5,22z"/>
			</g>
		</g>
		<g>
			<g>
				<path d="M10.5,22c-0.277,0-0.5,0.224-0.5,0.5s0.223,0.5,0.5,0.5c0.275,0,0.5-0.224,0.5-0.5S10.775,22,10.5,22L10.5,22z"/>
			</g>
		</g>
		<g>
			<g>
				<path d="M12.5,22c-0.277,0-0.5,0.224-0.5,0.5s0.223,0.5,0.5,0.5c0.275,0,0.5-0.224,0.5-0.5S12.775,22,12.5,22L12.5,22z"/>
			</g>
		</g>
		<g>
			<g>
				<path d="M14.5,22c-0.277,0-0.5,0.224-0.5,0.5s0.223,0.5,0.5,0.5c0.275,0,0.5-0.224,0.5-0.5S14.775,22,14.5,22L14.5,22z"/>
			</g>
		</g>
		<g>
			<g>
				<path d="M16.5,22c-0.277,0-0.5,0.224-0.5,0.5s0.223,0.5,0.5,0.5c0.275,0,0.5-0.224,0.5-0.5S16.775,22,16.5,22L16.5,22z"/>
			</g>
		</g>
		<g>
			<g>
				<path d="M18.5,22c-0.277,0-0.5,0.224-0.5,0.5s0.223,0.5,0.5,0.5c0.275,0,0.5-0.224,0.5-0.5S18.775,22,18.5,22L18.5,22z"/>
			</g>
		</g>
		<g>
			<g>
				<path d="M20.5,22c-0.277,0-0.5,0.224-0.5,0.5s0.223,0.5,0.5,0.5c0.275,0,0.5-0.224,0.5-0.5S20.775,22,20.5,22L20.5,22z"/>
			</g>
		</g>
		<g>
			<g>
				<path d="M14.5,0C14.223,0,14,0.224,14,0.5S14.223,1,14.5,1C14.775,1,15,0.776,15,0.5S14.775,0,14.5,0L14.5,0z"/>
			</g>
		</g>
		<g>
			<g>
				<path d="M16.5,0C16.223,0,16,0.224,16,0.5S16.223,1,16.5,1C16.775,1,17,0.776,17,0.5S16.775,0,16.5,0L16.5,0z"/>
			</g>
		</g>
		<g>
			<g>
				<path d="M18.5,0C18.223,0,18,0.224,18,0.5S18.223,1,18.5,1C18.775,1,19,0.776,19,0.5S18.775,0,18.5,0L18.5,0z"/>
			</g>
		</g>
		<g>
			<g>
				<path d="M20.5,0C20.223,0,20,0.224,20,0.5S20.223,1,20.5,1C20.775,1,21,0.776,21,0.5S20.775,0,20.5,0L20.5,0z"/>
			</g>
		</g>
		<g>
			<g>
				<path d="M2.5,11C2.223,11,2,11.224,2,11.5S2.223,12,2.5,12C2.775,12,3,11.776,3,11.5S2.775,11,2.5,11L2.5,11z"/>
			</g>
		</g>
		<g>
			<g>
				<path d="M4.5,11C4.223,11,4,11.224,4,11.5S4.223,12,4.5,12C4.775,12,5,11.776,5,11.5S4.775,11,4.5,11L4.5,11z"/>
			</g>
		</g>
		<g>
			<g>
				<path d="M6.5,11C6.223,11,6,11.224,6,11.5S6.223,12,6.5,12C6.775,12,7,11.776,7,11.5S6.775,11,6.5,11L6.5,11z"/>
			</g>
		</g>
		<g>
			<g>
				<path d="M8.5,11C8.223,11,8,11.224,8,11.5S8.223,12,8.5,12C8.775,12,9,11.776,9,11.5S8.775,11,8.5,11L8.5,11z"/>
			</g>
		</g>
		<g>
			<g>
				<path d="M10.5,11c-0.277,0-0.5,0.224-0.5,0.5s0.223,0.5,0.5,0.5c0.275,0,0.5-0.224,0.5-0.5S10.775,11,10.5,11L10.5,11z"/>
			</g>
		</g>
		<g>
			<g>
				<path d="M12.5,11c-0.277,0-0.5,0.224-0.5,0.5s0.223,0.5,0.5,0.5c0.275,0,0.5-0.224,0.5-0.5S12.775,11,12.5,11L12.5,11z"/>
			</g>
		</g>
		<g>
			<g>
				<path d="M14.5,11c-0.277,0-0.5,0.224-0.5,0.5s0.223,0.5,0.5,0.5c0.275,0,0.5-0.224,0.5-0.5S14.775,11,14.5,11L14.5,11z"/>
			</g>
		</g>
		<g>
			<g>
				<path d="M16.5,11c-0.277,0-0.5,0.224-0.5,0.5s0.223,0.5,0.5,0.5c0.275,0,0.5-0.224,0.5-0.5S16.775,11,16.5,11L16.5,11z"/>
			</g>
		</g>
		<g>
			<g>
				<path d="M18.5,11c-0.277,0-0.5,0.224-0.5,0.5s0.223,0.5,0.5,0.5c0.275,0,0.5-0.224,0.5-0.5S18.775,11,18.5,11L18.5,11z"/>
			</g>
		</g>
		<g>
			<g>
				<path d="M20.5,11c-0.277,0-0.5,0.224-0.5,0.5s0.223,0.5,0.5,0.5c0.275,0,0.5-0.224,0.5-0.5S20.775,11,20.5,11L20.5,11z"/>
			</g>
		</g>
		<g>
			<g>
				<path d="M11.5,2C11.224,2,11,2.223,11,2.5C11,2.775,11.224,3,11.5,3S12,2.775,12,2.5C12,2.223,11.776,2,11.5,2L11.5,2z"/>
			</g>
		</g>
		<g>
			<g>
				<path d="M11.5,4C11.224,4,11,4.223,11,4.5C11,4.775,11.224,5,11.5,5S12,4.775,12,4.5C12,4.223,11.776,4,11.5,4L11.5,4z"/>
			</g>
		</g>
		<g>
			<g>
				<path d="M11.5,6C11.224,6,11,6.223,11,6.5C11,6.775,11.224,7,11.5,7S12,6.775,12,6.5C12,6.223,11.776,6,11.5,6L11.5,6z"/>
			</g>
		</g>
		<g>
			<g>
				<path d="M11.5,8C11.224,8,11,8.223,11,8.5C11,8.775,11.224,9,11.5,9S12,8.775,12,8.5C12,8.223,11.776,8,11.5,8L11.5,8z"/>
			</g>
		</g>
		<g>
			<g>
				<path d="M11.5,10c-0.276,0-0.5,0.223-0.5,0.5c0,0.275,0.224,0.5,0.5,0.5s0.5-0.225,0.5-0.5C12,10.223,11.776,10,11.5,10L11.5,10
					z"/>
			</g>
		</g>
		<g>
			<g>
				<path d="M11.5,12c-0.276,0-0.5,0.223-0.5,0.5c0,0.275,0.224,0.5,0.5,0.5s0.5-0.225,0.5-0.5C12,12.223,11.776,12,11.5,12L11.5,12
					z"/>
			</g>
		</g>
		<g>
			<g>
				<path d="M11.5,14c-0.276,0-0.5,0.223-0.5,0.5c0,0.275,0.224,0.5,0.5,0.5s0.5-0.225,0.5-0.5C12,14.223,11.776,14,11.5,14L11.5,14
					z"/>
			</g>
		</g>
		<g>
			<g>
				<path d="M11.5,16c-0.276,0-0.5,0.223-0.5,0.5c0,0.275,0.224,0.5,0.5,0.5s0.5-0.225,0.5-0.5C12,16.223,11.776,16,11.5,16L11.5,16
					z"/>
			</g>
		</g>
		<g>
			<g>
				<path d="M11.5,18c-0.276,0-0.5,0.223-0.5,0.5c0,0.275,0.224,0.5,0.5,0.5s0.5-0.225,0.5-0.5C12,18.223,11.776,18,11.5,18L11.5,18
					z"/>
			</g>
		</g>
		<g>
			<g>
				<path d="M11.5,20c-0.276,0-0.5,0.223-0.5,0.5c0,0.275,0.224,0.5,0.5,0.5s0.5-0.225,0.5-0.5C12,20.223,11.776,20,11.5,20L11.5,20
					z"/>
			</g>
		</g>
		<g>
			<g>
				<path d="M0.5,2C0.223,2,0,2.224,0,2.5S0.223,3,0.5,3C0.775,3,1,2.776,1,2.5S0.775,2,0.5,2L0.5,2z"/>
			</g>
		</g>
		<g>
			<g>
				<path d="M0.5,4C0.223,4,0,4.224,0,4.5S0.223,5,0.5,5C0.775,5,1,4.776,1,4.5S0.775,4,0.5,4L0.5,4z"/>
			</g>
		</g>
		<g>
			<g>
				<path d="M22.5,0C22.223,0,22,0.224,22,0.5S22.223,1,22.5,1C22.775,1,23,0.776,23,0.5S22.775,0,22.5,0L22.5,0z"/>
			</g>
		</g>
		<g>
			<g>
				<path d="M22.5,2C22.223,2,22,2.224,22,2.5S22.223,3,22.5,3C22.775,3,23,2.776,23,2.5S22.775,2,22.5,2L22.5,2z"/>
			</g>
		</g>
		<g>
			<g>
				<path d="M22.5,4C22.223,4,22,4.224,22,4.5S22.223,5,22.5,5C22.775,5,23,4.776,23,4.5S22.775,4,22.5,4L22.5,4z"/>
			</g>
		</g>
		<g>
			<g>
				<path d="M0.5,6C0.223,6,0,6.224,0,6.5S0.223,7,0.5,7C0.775,7,1,6.776,1,6.5S0.775,6,0.5,6L0.5,6z"/>
			</g>
		</g>
		<g>
			<g>
				<path d="M22.5,6C22.223,6,22,6.224,22,6.5S22.223,7,22.5,7C22.775,7,23,6.776,23,6.5S22.775,6,22.5,6L22.5,6z"/>
			</g>
		</g>
		<g>
			<g>
				<path d="M0.5,8C0.223,8,0,8.224,0,8.5S0.223,9,0.5,9C0.775,9,1,8.776,1,8.5S0.775,8,0.5,8L0.5,8z"/>
			</g>
		</g>
		<g>
			<g>
				<path d="M22.5,8C22.223,8,22,8.224,22,8.5S22.223,9,22.5,9C22.775,9,23,8.776,23,8.5S22.775,8,22.5,8L22.5,8z"/>
			</g>
		</g>
		<g>
			<g>
				<path d="M0.5,10C0.223,10,0,10.224,0,10.5S0.223,11,0.5,11C0.775,11,1,10.776,1,10.5S0.775,10,0.5,10L0.5,10z"/>
			</g>
		</g>
		<g>
			<g>
				<path d="M22.5,10c-0.277,0-0.5,0.224-0.5,0.5s0.223,0.5,0.5,0.5c0.275,0,0.5-0.224,0.5-0.5S22.775,10,22.5,10L22.5,10z"/>
			</g>
		</g>
		<g>
			<g>
				<path d="M0.5,12C0.223,12,0,12.224,0,12.5S0.223,13,0.5,13C0.775,13,1,12.776,1,12.5S0.775,12,0.5,12L0.5,12z"/>
			</g>
		</g>
		<g>
			<g>
				<path d="M22.5,12c-0.277,0-0.5,0.224-0.5,0.5s0.223,0.5,0.5,0.5c0.275,0,0.5-0.224,0.5-0.5S22.775,12,22.5,12L22.5,12z"/>
			</g>
		</g>
		<g>
			<g>
				<path d="M0.5,14C0.223,14,0,14.224,0,14.5S0.223,15,0.5,15C0.775,15,1,14.776,1,14.5S0.775,14,0.5,14L0.5,14z"/>
			</g>
		</g>
		<g>
			<g>
				<path d="M22.5,14c-0.277,0-0.5,0.224-0.5,0.5s0.223,0.5,0.5,0.5c0.275,0,0.5-0.224,0.5-0.5S22.775,14,22.5,14L22.5,14z"/>
			</g>
		</g>
		<g>
			<g>
				<path d="M0.5,16C0.223,16,0,16.224,0,16.5S0.223,17,0.5,17C0.775,17,1,16.776,1,16.5S0.775,16,0.5,16L0.5,16z"/>
			</g>
		</g>
		<g>
			<g>
				<path d="M22.5,16c-0.277,0-0.5,0.224-0.5,0.5s0.223,0.5,0.5,0.5c0.275,0,0.5-0.224,0.5-0.5S22.775,16,22.5,16L22.5,16z"/>
			</g>
		</g>
		<g>
			<g>
				<path d="M0.5,18C0.223,18,0,18.224,0,18.5S0.223,19,0.5,19C0.775,19,1,18.776,1,18.5S0.775,18,0.5,18L0.5,18z"/>
			</g>
		</g>
		<g>
			<g>
				<path d="M22.5,18c-0.277,0-0.5,0.224-0.5,0.5s0.223,0.5,0.5,0.5c0.275,0,0.5-0.224,0.5-0.5S22.775,18,22.5,18L22.5,18z"/>
			</g>
		</g>
		<g>
			<g>
				<path d="M0.5,20C0.223,20,0,20.224,0,20.5S0.223,21,0.5,21C0.775,21,1,20.776,1,20.5S0.775,20,0.5,20L0.5,20z"/>
			</g>
		</g>
		<g>
			<g>
				<path d="M22.5,20c-0.277,0-0.5,0.224-0.5,0.5s0.223,0.5,0.5,0.5c0.275,0,0.5-0.224,0.5-0.5S22.775,20,22.5,20L22.5,20z"/>
			</g>
		</g>
		<g>
			<g>
				<path d="M0.5,22C0.223,22,0,22.224,0,22.5S0.223,23,0.5,23C0.775,23,1,22.776,1,22.5S0.775,22,0.5,22L0.5,22z"/>
			</g>
		</g>
		<g>
			<g>
				<path d="M22.5,22c-0.277,0-0.5,0.224-0.5,0.5s0.223,0.5,0.5,0.5c0.275,0,0.5-0.224,0.5-0.5S22.775,22,22.5,22L22.5,22z"/>
			</g>
		</g>
	</g>
</g>
<g id="Invisible_Shape">
	<rect fill="none" width="24" height="24"/>
</g>
</svg>
