<?xml version="1.0" encoding="utf-8"?>
<!-- Generator: Adobe Illustrator 19.2.0, SVG Export Plug-In . SVG Version: 6.00 Build 0)  -->
<svg version="1.1" xmlns="http://www.w3.org/2000/svg" xmlns:xlink="http://www.w3.org/1999/xlink" x="0px" y="0px" width="24px"
	 height="24px" viewBox="0 0 24 24" enable-background="new 0 0 24 24" xml:space="preserve">
<g id="Filled_Icons">
	<path d="M22.95,3.44c-0.039-0.541-0.456-0.988-0.994-1.064c-0.022-0.003-0.135-0.011-0.157-0.011c-0.484,0-0.922,0.305-1.088,0.76
		c-0.576,1.58-1.916,3.981-2.527,5.045C16.565,7.059,12.821,6.996,12,6.996S7.438,7.059,5.818,8.168
		c-0.61-1.076-1.952-3.508-2.529-5.09C3.123,2.624,2.687,2.317,2.203,2.317c-0.023,0-0.138,0.009-0.161,0.012
		C1.506,2.403,1.088,2.85,1.049,3.391C1.018,3.826,1,5.84,1,6.428c0,4.684,1.072,15.578,11,15.578c9.928,0,11-10.895,11-15.578
		C23,5.833,22.982,3.881,22.95,3.44z M12.694,14.006h-1.389c-0.576,0-0.759,0.306-0.812,0.563c-0.083,0.413-0.327,0.598-0.791,0.598
		c-1.241,0-2.541-1.28-2.832-2.382c-0.159-0.603-0.007-1.042,0.453-1.303c0.745-0.422,2.595-0.695,4.715-0.695
		c2.086,0,3.905,0.268,4.636,0.682c0.459,0.261,0.611,0.694,0.455,1.288c-0.288,1.09-1.589,2.358-2.833,2.358
		c-0.472,0-0.716-0.168-0.792-0.548C13.453,14.311,13.269,14.006,12.694,14.006z"/>
</g>
<g id="invisible_shape">
	<rect fill="none" width="24" height="24"/>
</g>
</svg>
