<?xml version="1.0" encoding="utf-8"?>
<!-- Generator: Adobe Illustrator 19.2.0, SVG Export Plug-In . SVG Version: 6.00 Build 0)  -->
<svg version="1.1" xmlns="http://www.w3.org/2000/svg" xmlns:xlink="http://www.w3.org/1999/xlink" x="0px" y="0px" width="24px"
	 height="24px" viewBox="0 0 24 24" enable-background="new 0 0 24 24" xml:space="preserve">
<g id="Filled_Icons">
	<path d="M22.798,16.176L9.931,3.59C9.178,2.855,8.185,2.449,7.133,2.449c-1.085,0-2.101,0.427-2.859,1.202L0.428,7.583
		C0.147,7.87-0.005,8.249,0,8.649c0.005,0.401,0.165,0.775,0.451,1.056c0.573,0.561,1.56,0.55,2.122-0.024l3.001-3.068l0.293-0.003
		l0.567,0.555l-3.497,3.574c-0.192,0.197-0.19,0.515,0.008,0.707c0.098,0.096,0.224,0.143,0.35,0.143c0.13,0,0.26-0.05,0.357-0.15
		l3.496-3.574l0.729,0.713l-3.508,3.56c-0.194,0.196-0.192,0.513,0.005,0.707c0.098,0.097,0.224,0.144,0.351,0.144
		c0.13,0,0.259-0.05,0.357-0.148l3.511-3.563l0.705,0.689l-3.499,3.57c-0.193,0.197-0.191,0.514,0.007,0.707
		c0.098,0.096,0.224,0.143,0.35,0.143c0.13,0,0.26-0.05,0.357-0.15l3.5-3.57l0.726,0.709l-3.509,3.56
		c-0.194,0.196-0.192,0.513,0.005,0.707c0.098,0.096,0.224,0.144,0.351,0.144c0.129,0,0.258-0.05,0.356-0.148l3.512-3.563
		l0.692,0.678l-3.489,3.583c-0.192,0.198-0.189,0.515,0.009,0.708c0.098,0.094,0.223,0.141,0.349,0.141
		c0.131,0,0.261-0.051,0.359-0.151l3.487-3.581l0.575,0.563l0.003,0.293l-3.001,3.068c-0.281,0.286-0.434,0.666-0.429,1.067
		c0.004,0.4,0.165,0.775,0.45,1.055c0.574,0.563,1.563,0.55,2.123-0.023l3.001-3.068l0.293-0.003l3.426,3.352
		c0.47,0.46,1.09,0.713,1.747,0.713c0.678,0,1.313-0.267,1.787-0.751C23.8,18.727,23.782,17.141,22.798,16.176z"/>
</g>
<g id="invisible_shape">
	<rect fill="none" width="24" height="24"/>
</g>
</svg>
