<?xml version="1.0" encoding="utf-8"?>
<!-- Generator: Adobe Illustrator 19.2.0, SVG Export Plug-In . SVG Version: 6.00 Build 0)  -->
<svg version="1.1" xmlns="http://www.w3.org/2000/svg" xmlns:xlink="http://www.w3.org/1999/xlink" x="0px" y="0px" width="24px"
	 height="24px" viewBox="0 0 24 24" enable-background="new 0 0 24 24" xml:space="preserve">
<g id="Filled_Icons">
	<g>
		<path d="M18.438,0.759C18.352,0.603,18.19,0.505,18.012,0.5c-0.179,0.004-0.344,0.087-0.438,0.238l-0.155,0.255
			C16.482,2.533,15.514,4.126,12,4.126C6.597,4.126,5.091,7.269,4.67,9h14.608C20.429,6.643,20.16,3.882,18.438,0.759z"/>
		<path d="M23.5,14h-23C0.224,14,0,14.224,0,14.5v6C0,21.879,1.122,23,2.5,23h19c1.378,0,2.5-1.121,2.5-2.5v-6
			C24,14.224,23.776,14,23.5,14z M20,20.5c0,0.276-0.224,0.5-0.5,0.5h-15C4.224,21,4,20.776,4,20.5v-4C4,16.224,4.224,16,4.5,16h15
			c0.276,0,0.5,0.224,0.5,0.5V20.5z"/>
		<path d="M22,12.5c0-1.378-1.122-2.5-2.5-2.5H4.507H4.5C3.122,10,2,11.122,2,12.5V13h20V12.5z"/>
	</g>
</g>
<g id="invisible_shape">
	<rect fill="none" width="24" height="24"/>
</g>
</svg>
