<?xml version="1.0" encoding="utf-8"?>
<!-- Generator: Adobe Illustrator 19.2.0, SVG Export Plug-In . SVG Version: 6.00 Build 0)  -->
<svg version="1.1" xmlns="http://www.w3.org/2000/svg" xmlns:xlink="http://www.w3.org/1999/xlink" x="0px" y="0px" width="24px"
	 height="24px" viewBox="0 0 24 24" enable-background="new 0 0 24 24" xml:space="preserve">
<g id="Filled_Icons">
	<g>
		<g>
			<path d="M3.5,14h-3C0.224,14,0,14.223,0,14.5v8C0,22.775,0.224,23,0.5,23h3C3.775,23,4,22.775,4,22.5v-8
				C4,14.223,3.775,14,3.5,14z"/>
			<path d="M23.854,18.146c-1.175-1.174-2.186-1.5-3.512-1.121l-3.008,0.998c0.026,0.156,0.041,0.316,0.041,0.477
				c0,0.641-0.207,1.242-0.585,1.695C16.352,20.721,15.732,21,15,21H9.5C9.224,21,9,20.775,9,20.5C9,20.223,9.224,20,9.5,20H15
				c0.432,0,0.775-0.15,1.021-0.445c0.225-0.27,0.354-0.652,0.354-1.055c0-0.559-0.29-1.5-1.375-1.5h-3
				c-0.133,0-0.26-0.053-0.354-0.146C11.09,16.295,9.569,15,7.5,15h-2C5.224,15,5,15.223,5,15.5V21c0,0.215,0.138,0.406,0.342,0.473
				c1.584,0.529,2.831,0.982,3.833,1.346c2.004,0.729,3.13,1.123,4.141,1.123c1.212,0,2.258-0.568,4.453-1.807
				c1.368-0.774,3.241-1.832,5.955-3.188c0.144-0.072,0.245-0.209,0.271-0.367C24.019,18.42,23.967,18.26,23.854,18.146z"/>
		</g>
		<path d="M22.009,6.365c-0.437-1.342-1.866-2.162-3.245-1.853C18.631,3.105,17.442,2,16,2s-2.631,1.105-2.764,2.512
			c-1.384-0.306-2.81,0.512-3.244,1.853c-0.229,0.706-0.17,1.458,0.166,2.118c0.297,0.583,0.777,1.032,1.369,1.287
			c-0.72,1.218-0.407,2.811,0.759,3.658c0.478,0.348,1.041,0.531,1.63,0.531c0.798,0,1.559-0.347,2.084-0.939
			c0.523,0.592,1.285,0.939,2.084,0.939c0.589,0,1.152-0.183,1.63-0.53c0.601-0.436,0.994-1.079,1.11-1.813
			c0.102-0.644-0.023-1.291-0.352-1.846C21.77,9.209,22.454,7.736,22.009,6.365z M16,10.588c-1.252,0-2.271-1.019-2.271-2.272
			c0-1.252,1.019-2.269,2.271-2.269s2.271,1.018,2.271,2.269C18.271,9.568,17.252,10.588,16,10.588z"/>
	</g>
</g>
<g id="invisible_shape">
	<rect fill="none" width="24" height="24"/>
</g>
</svg>
