<?xml version="1.0" encoding="utf-8"?>
<!-- Generator: Adobe Illustrator 19.2.0, SVG Export Plug-In . SVG Version: 6.00 Build 0)  -->
<svg version="1.1" xmlns="http://www.w3.org/2000/svg" xmlns:xlink="http://www.w3.org/1999/xlink" x="0px" y="0px" width="24px"
	 height="24px" viewBox="0 0 24 24" enable-background="new 0 0 24 24" xml:space="preserve">
<g id="Filled_Icons">
	<path d="M21.5,0h-19C1.122,0,0,1.122,0,2.5v19C0,22.879,1.122,24,2.5,24h19c1.378,0,2.5-1.121,2.5-2.5v-19
		C24,1.122,22.878,0,21.5,0z M7,20c0,1.103-0.898,2-2,2c-1.103,0-2-0.897-2-2V8.994h4V20z M7.108,8H2.89L2.01,3.599
		C2,2.409,3.55,2.02,5,2.02S8,2.409,8,3.5L7.108,8z M15,20.666C15,21.402,14.402,22,13.667,22h-3.334C9.598,22,9,21.402,9,20.666
		v-3.333C9,16.598,9.598,16,10.333,16h3.334C14.402,16,15,16.598,15,17.333V20.666z M15,13.666C15,14.402,14.402,15,13.667,15
		h-3.334C9.598,15,9,14.402,9,13.666v-3.333C9,9.598,9.598,9,10.333,9h3.334C14.402,9,15,9.598,15,10.333V13.666z M15,6.666
		C15,7.402,14.402,8,13.667,8h-3.334C9.598,8,9,7.402,9,6.666V3.333C9,2.598,9.598,2,10.333,2h3.334C14.402,2,15,2.598,15,3.333
		V6.666z M22,20.666C22,21.402,21.402,22,20.667,22h-3.334C16.598,22,16,21.402,16,20.666v-3.333C16,16.598,16.598,16,17.333,16
		h3.334C21.402,16,22,16.598,22,17.333V20.666z M22,13.666C22,14.402,21.402,15,20.667,15h-3.334C16.598,15,16,14.402,16,13.666
		v-3.333C16,9.598,16.598,9,17.333,9h3.334C21.402,9,22,9.598,22,10.333V13.666z M22,6.666C22,7.402,21.402,8,20.667,8h-3.334
		C16.598,8,16,7.402,16,6.666V3.333C16,2.598,16.598,2,17.333,2h3.334C21.402,2,22,2.598,22,3.333V6.666z"/>
</g>
<g id="invisible_shape">
	<rect fill="none" width="24" height="24"/>
</g>
</svg>
