<?xml version="1.0" encoding="utf-8"?>
<!-- Generator: Adobe Illustrator 19.2.0, SVG Export Plug-In . SVG Version: 6.00 Build 0)  -->
<svg version="1.1" xmlns="http://www.w3.org/2000/svg" xmlns:xlink="http://www.w3.org/1999/xlink" x="0px" y="0px" width="24px"
	 height="24px" viewBox="0 0 24 24" enable-background="new 0 0 24 24" xml:space="preserve">
<g id="Filled_Icons">
	<g>
		<polygon points="13.424,17.623 14.847,16.199 7.828,9.121 6.41,10.541 		"/>
		<path d="M19.421,11.16c-0.076,0.041-0.157,0.059-0.237,0.059c-0.178,0-0.35-0.095-0.44-0.263
			c-0.131-0.243-0.041-0.546,0.203-0.677l4.471-2.409c-0.015-0.037-0.023-0.073-0.039-0.111c-0.305-0.736-0.708-1.455-1.18-2.142
			l-4.897,3.362c-0.087,0.061-0.186,0.088-0.283,0.088c-0.16,0-0.316-0.075-0.413-0.217c-0.156-0.228-0.099-0.539,0.129-0.695
			l4.871-3.344c-0.707-0.885-1.528-1.691-2.406-2.385l-3.335,4.797c-0.097,0.14-0.253,0.215-0.412,0.215
			c-0.099,0-0.197-0.029-0.285-0.09c-0.227-0.158-0.283-0.47-0.125-0.697l3.352-4.82c-0.742-0.506-1.512-0.922-2.278-1.23
			l-2.397,4.439c-0.09,0.167-0.263,0.262-0.44,0.262c-0.08,0-0.161-0.018-0.237-0.06c-0.242-0.132-0.333-0.435-0.202-0.678
			l2.315-4.287c-0.615-0.171-1.221-0.272-1.798-0.272c-1.486,0-2.583,0.526-3.545,1.493L8.237,8.113l7.596,7.66l6.658-1.586
			c1.473-1.477,1.815-3.281,1.249-5.356L19.421,11.16z"/>
		<path d="M5.703,11.248l-4.244,4.247c-1.943,1.944-1.943,5.107,0,7.05c1.947,1.948,5.099,1.95,7.046,0l4.212-4.215L5.703,11.248z"
			/>
	</g>
</g>
<g id="invisible_shape">
	<rect fill="none" width="24" height="24"/>
</g>
</svg>
