<?xml version="1.0" encoding="utf-8"?>
<!-- Generator: Adobe Illustrator 19.2.0, SVG Export Plug-In . SVG Version: 6.00 Build 0)  -->
<svg version="1.1" xmlns="http://www.w3.org/2000/svg" xmlns:xlink="http://www.w3.org/1999/xlink" x="0px" y="0px" width="24px"
	 height="24px" viewBox="0 0 24 24" enable-background="new 0 0 24 24" xml:space="preserve">
<g id="Filled_Icons">
	<g>
		<path d="M5.294,18C3.868,16.407,3,14.306,3,12c0-4.971,4.028-9,9-9c4.971,0,9,4.029,9,9c0,2.307-0.87,4.407-2.297,6h3.689
			C23.438,16.188,24,14.119,24,12c0-6.616-5.384-12-12-12C5.383,0,0,5.384,0,12c0,2.131,0.569,4.209,1.606,6H5.294z"/>
		<path d="M23.5,19h-7c-0.133,0-0.26,0.053-0.354,0.146L14.293,21H9.707l-1.853-1.854C7.76,19.053,7.633,19,7.5,19h-7
			C0.224,19,0,19.224,0,19.5v1C0,22.725,1.64,24,4.5,24h15c2.86,0,4.5-1.275,4.5-3.5v-1C24,19.224,23.776,19,23.5,19z"/>
	</g>
</g>
<g id="invisible_shape">
	<rect fill="none" width="24" height="24"/>
</g>
</svg>
