<?xml version="1.0" encoding="utf-8"?>
<!-- Generator: Adobe Illustrator 19.2.0, SVG Export Plug-In . SVG Version: 6.00 Build 0)  -->
<svg version="1.1" xmlns="http://www.w3.org/2000/svg" xmlns:xlink="http://www.w3.org/1999/xlink" x="0px" y="0px" width="24px"
	 height="24px" viewBox="0 0 24 24" enable-background="new 0 0 24 24" xml:space="preserve">
<g id="Filled_Icons">
	<g>
		<path d="M15.718,3.915c-2.367,0-3.366,0.493-4.218,1.255c-0.853-0.762-1.851-1.255-4.218-1.255C2.493,3.915,0.043,8.276,0,16.878
			c-0.001,0.189,0.105,0.362,0.274,0.448c0.168,0.086,0.371,0.068,0.524-0.045c2.537-1.883,3.853-5.403,4.227-7.283
			c2.153,0.72,4.329,0.67,6.476-0.142c2.147,0.813,4.323,0.862,6.475,0.142c0.375,1.88,1.69,5.4,4.228,7.283
			c0.088,0.066,0.192,0.099,0.298,0.099c0.077,0,0.154-0.018,0.226-0.054c0.169-0.086,0.275-0.26,0.274-0.448
			C22.956,8.276,20.507,3.915,15.718,3.915z"/>
		<path d="M14.031,12.578c-0.62-0.111-1.239-0.636-1.415-0.793c-0.155-0.14-0.356-0.217-0.564-0.217h-1.104
			c-0.208,0-0.408,0.076-0.565,0.217c-0.175,0.157-0.796,0.683-1.419,0.794c-0.408,0.073-0.691,0.431-0.691,0.868
			c0,2.195,1.567,8.059,3.223,8.059c1.657,0,3.226-5.857,3.226-8.049C14.721,13.014,14.438,12.652,14.031,12.578z"/>
	</g>
</g>
<g id="invisible_shape">
	<rect fill="none" width="24" height="24"/>
</g>
</svg>
