<?xml version="1.0" encoding="utf-8"?>
<!-- Generator: Adobe Illustrator 19.2.0, SVG Export Plug-In . SVG Version: 6.00 Build 0)  -->
<svg version="1.1" xmlns="http://www.w3.org/2000/svg" xmlns:xlink="http://www.w3.org/1999/xlink" x="0px" y="0px" width="24px"
	 height="24px" viewBox="0 0 24 24" enable-background="new 0 0 24 24" xml:space="preserve">
<g id="Filled_Icons">
	<g>
		<path d="M14.552,20.06c-1.531,1.205-3.457,1.932-5.552,1.932c-2.096,0-4.021-0.727-5.552-1.932L1.1,23.191
			c-0.113,0.151-0.131,0.354-0.047,0.523c0.085,0.17,0.258,0.277,0.447,0.277h15c0.19,0,0.362-0.107,0.447-0.277
			c0.084-0.169,0.066-0.372-0.048-0.523L14.552,20.06z"/>
		<path d="M4,3.992h0.5c0.276,0,0.5-0.225,0.5-0.5c0-0.277-0.224-0.5-0.5-0.5H4c-0.276,0-0.5,0.223-0.5,0.5
			C3.5,3.768,3.724,3.992,4,3.992z"/>
		<path d="M1.5,3.992H2c0.276,0,0.5-0.225,0.5-0.5c0-0.277-0.224-0.5-0.5-0.5H1.5c-0.276,0-0.5,0.223-0.5,0.5
			C1,3.768,1.224,3.992,1.5,3.992z"/>
		<path d="M15.067,3.006H12V1.492c0-0.277-0.224-0.5-0.5-0.492h-5C6.224,0.992,6,1.215,6,1.492V3h1.997C7.998,3,7.999,3,8,3
			c0.274,0,0.498,0.225,0.5,0.5C8.502,3.776,8.279,3.998,8.003,4H6v2h6V4h3.067C15.393,5.6,17.204,6.773,19,6.964V0.049
			C17.204,0.238,15.393,1.412,15.067,3.006z"/>
		<path d="M20,0.049v6.915c1.98-0.21,4-1.61,4-3.458C24,1.658,21.98,0.258,20,0.049z"/>
	</g>
	<path d="M14.249,7H3.75C2.073,8.463,1,10.596,1,12.992c0,4.41,3.589,8,8,8s8-3.59,8-8C17,10.596,15.926,8.463,14.249,7z"/>
</g>
<g id="invisible_shape">
	<rect fill="none" width="24" height="24"/>
</g>
</svg>
