<?xml version="1.0" encoding="utf-8"?>
<!-- Generator: Adobe Illustrator 19.2.0, SVG Export Plug-In . SVG Version: 6.00 Build 0)  -->
<svg version="1.1" xmlns="http://www.w3.org/2000/svg" xmlns:xlink="http://www.w3.org/1999/xlink" x="0px" y="0px" width="24px"
	 height="24px" viewBox="0 0 24 24" enable-background="new 0 0 24 24" xml:space="preserve">
<g id="Filled_Icons">
	<g>
		<path d="M19,0.5C19,0.224,18.776,0,18.5,0S18,0.224,18,0.5V3h-1V0.5C17,0.224,16.776,0,16.5,0S16,0.224,16,0.5V3h-1V0.5
			C15,0.224,14.776,0,14.5,0S14,0.224,14,0.5V3h-1V0.5C13,0.224,12.776,0,12.5,0S12,0.224,12,0.5V3h-1V0.5C11,0.224,10.776,0,10.5,0
			S10,0.224,10,0.5V3H9V0.5C9,0.224,8.776,0,8.5,0S8,0.224,8,0.5V3H7V0.5C7,0.224,6.776,0,6.5,0S6,0.224,6,0.5V3H5V0.5
			C5,0.224,4.776,0,4.5,0S4,0.224,4,0.5v3c0,0.002,0.025,0.158,0.025,0.158l1,3C5.094,6.862,5.285,7,5.5,7h12
			c0.215,0,0.406-0.138,0.474-0.342l1-3c0,0,0.026-0.156,0.026-0.158V0.5z"/>
		<g>
			<path d="M17,18.5v-9c0-0.117-0.042-0.231-0.117-0.321L15.893,8H7.091L6.114,9.182C6.04,9.271,6,9.385,6,9.5v9
				c0,2.949,2.399,5.5,5.5,5.5C14.604,24,17,21.445,17,18.5z M8,17h7v1H8V17z M11.5,11c1.93,0,3.5,1.57,3.5,3.5V16H8v-1.5
				C8,12.57,9.57,11,11.5,11z M11.5,23c-1.421,0-2.675-0.675-3.5-1.706V19h7v2.294C14.175,22.325,12.921,23,11.5,23z"/>
		</g>
	</g>
</g>
<g id="invisible_shape">
	<rect fill="none" width="24" height="24"/>
</g>
</svg>
