<?xml version="1.0" encoding="utf-8"?>
<!-- Generator: Adobe Illustrator 19.2.0, SVG Export Plug-In . SVG Version: 6.00 Build 0)  -->
<svg version="1.1" xmlns="http://www.w3.org/2000/svg" xmlns:xlink="http://www.w3.org/1999/xlink" x="0px" y="0px" width="24px"
	 height="24px" viewBox="0 0 24 24" enable-background="new 0 0 24 24" xml:space="preserve">
<g id="Filled_Icons">
	<g>
		<path d="M11.75,12H11v1.5h0.75c0.413,0,0.75-0.337,0.75-0.75C12.5,12.336,12.163,12,11.75,12z"/>
		<path d="M18.5,9h-1.293l-5.354-5.353c-0.195-0.195-0.512-0.195-0.707,0L5.793,9H4.5C3.121,9,2,10.121,2,11.5v4
			C2,16.878,3.121,18,4.5,18h14c1.379,0,2.5-1.122,2.5-2.5v-4C21,10.121,19.879,9,18.5,9z M11.5,4.707L15.793,9H7.207L11.5,4.707z
			 M6.937,16c-0.758,0-1.389-0.619-1.436-1.408c-0.017-0.275,0.193-0.513,0.47-0.529c0.283-0.019,0.512,0.194,0.528,0.47
			C6.515,14.795,6.707,15,6.937,15c0.24,0,0.437-0.225,0.437-0.501c0-0.274-0.136-0.405-0.517-0.504
			C5.719,13.693,5.5,13.018,5.5,12.499C5.5,11.672,6.144,11,6.938,11c0.758,0,1.388,0.617,1.435,1.405
			c0.017,0.276-0.193,0.513-0.469,0.528c-0.287,0.019-0.513-0.193-0.529-0.469C7.358,12.204,7.167,12,6.938,12
			C6.696,12,6.5,12.224,6.5,12.499c0,0.271,0.136,0.403,0.518,0.504c1.19,0.308,1.355,1.067,1.355,1.496
			C8.373,15.326,7.728,16,6.937,16z M11.75,14.5H11v1c0,0.275-0.224,0.5-0.5,0.5S10,15.775,10,15.5v-4c0-0.277,0.224-0.5,0.5-0.5
			h1.25c0.965,0,1.75,0.785,1.75,1.75S12.715,14.5,11.75,14.5z M17.133,15.981C17.089,15.994,17.044,16,17,16
			c-0.22,0-0.421-0.146-0.482-0.367l-0.169-0.611h-0.911l-0.169,0.611c-0.072,0.266-0.346,0.422-0.615,0.349
			c-0.266-0.073-0.422-0.349-0.348-0.615l1.107-4C15.473,11.149,15.67,11,15.894,11c0.225,0,0.422,0.149,0.481,0.366l1.106,4
			C17.556,15.633,17.399,15.908,17.133,15.981z"/>
		<polygon points="15.715,14.021 16.073,14.021 15.894,13.375 		"/>
	</g>
</g>
<g id="invisible_shape">
	<rect fill="none" width="24" height="24"/>
</g>
</svg>
