<?xml version="1.0" encoding="utf-8"?>
<!-- Generator: Adobe Illustrator 19.2.0, SVG Export Plug-In . SVG Version: 6.00 Build 0)  -->
<svg version="1.1" xmlns="http://www.w3.org/2000/svg" xmlns:xlink="http://www.w3.org/1999/xlink" x="0px" y="0px" width="24px"
	 height="24px" viewBox="0 0 24 24" enable-background="new 0 0 24 24" xml:space="preserve">
<g id="Filled_Icons">
	<g>
		<polygon points="14.928,11.021 15.286,11.021 15.107,10.375 		"/>
		<path d="M10.75,9H10v1.5h0.75c0.413,0,0.75-0.337,0.75-0.75C11.5,9.336,11.163,9,10.75,9z"/>
		<path d="M23,0H2C1.447,0,1,0.447,1,1c0,0.552,0.447,1,1,1h3v2H4.5C3.121,4,2,5.121,2,6.5v8C2,15.878,3.121,17,4.5,17h13
			c1.379,0,2.5-1.122,2.5-2.5v-8C20,5.121,18.879,4,17.5,4H17V2h5v21c0,0.552,0.447,1,1,1s1-0.448,1-1V1C24,0.447,23.553,0,23,0z
			 M6,2h10v2H6V2z M6.437,13c-0.758,0-1.389-0.619-1.436-1.408c-0.017-0.275,0.193-0.513,0.47-0.529
			c0.273-0.016,0.513,0.193,0.528,0.47C6.015,11.795,6.207,12,6.437,12c0.24,0,0.437-0.225,0.437-0.501
			c0-0.274-0.136-0.405-0.517-0.504C5.219,10.693,5,10.018,5,9.499C5,8.672,5.644,8,6.438,8c0.758,0,1.388,0.617,1.435,1.405
			c0.017,0.276-0.193,0.513-0.469,0.528C7.106,9.943,6.891,9.74,6.874,9.465C6.858,9.204,6.667,9,6.438,9C6.196,9,6,9.224,6,9.499
			c0,0.271,0.136,0.403,0.518,0.504c1.19,0.308,1.355,1.067,1.355,1.496C7.873,12.326,7.228,13,6.437,13z M10.75,11.5H10v1
			c0,0.275-0.224,0.5-0.5,0.5S9,12.775,9,12.5v-4C9,8.223,9.224,8,9.5,8h1.25c0.965,0,1.75,0.785,1.75,1.75S11.715,11.5,10.75,11.5z
			 M16.346,12.981C16.302,12.994,16.257,13,16.213,13c-0.22,0-0.421-0.146-0.482-0.367l-0.169-0.611H14.65l-0.169,0.611
			c-0.073,0.266-0.347,0.422-0.615,0.349c-0.266-0.073-0.422-0.349-0.348-0.615l1.107-4C14.686,8.149,14.883,8,15.107,8
			s0.422,0.149,0.481,0.366l1.106,4C16.769,12.633,16.612,12.908,16.346,12.981z"/>
	</g>
</g>
<g id="invisible_shape">
	<rect fill="none" width="24" height="24"/>
</g>
</svg>
