<?xml version="1.0" encoding="utf-8"?>
<!-- Generator: Adobe Illustrator 19.2.0, SVG Export Plug-In . SVG Version: 6.00 Build 0)  -->
<svg version="1.1" xmlns="http://www.w3.org/2000/svg" xmlns:xlink="http://www.w3.org/1999/xlink" x="0px" y="0px" width="24px"
	 height="24px" viewBox="0 0 24 24" enable-background="new 0 0 24 24" xml:space="preserve">
<g id="Filled_Icons">
	<g>
		<g>
			<path d="M18.693,18C18.892,18.286,19,18.624,19,19c0,0.437-0.173,0.841-0.501,1.166C17.974,20.69,17.05,21,16.024,21
				c-0.009,0-0.018,0-0.027,0H6c-0.56,0.025-1.226-0.242-1.606-0.62C4.136,20.125,4,19.821,4,19.5C4,19.224,4.224,19,4.5,19
				S5,19.224,5,19.5c0,0.063,0.061,0.133,0.097,0.169C5.291,19.861,5.673,19.978,5.994,20H16c0.007,0,0.015,0,0.021,0
				c0.747,0,1.439-0.212,1.772-0.543C17.933,19.319,18,19.17,18,19c0-0.69-0.861-1-1.715-1H5.143c-1.378,0-2.5,0.896-2.5,2
				c0,1.103,1.122,2,2.5,2h13.714c1.378,0,2.5-0.897,2.5-2C21.357,19.029,20.455,18,18.693,18z"/>
			<path d="M20,16H4c-2.206,0-4,1.795-4,4c0,2.206,1.794,4,4,4h16c2.206,0,4-1.794,4-4C24,17.795,22.206,16,20,16z M18.857,23H5.143
				c-1.93,0-3.5-1.346-3.5-3s1.57-3,3.5-3h13.714c1.93,0,3.5,1.346,3.5,3S20.787,23,18.857,23z"/>
		</g>
		<path d="M21.516,3.816C21.176,1.605,19.306,0,17.068,0H6.932C4.694,0,2.824,1.605,2.484,3.816L0.548,16.398
			C1.447,15.537,2.66,15,4,15h16c1.34,0,2.553,0.537,3.452,1.398L21.516,3.816z M11.094,4.681L9.337,5.054l1.139,1.805
			c0.147,0.233,0.077,0.542-0.156,0.69c-0.083,0.053-0.175,0.077-0.267,0.077c-0.166,0-0.328-0.082-0.423-0.233L8.537,5.66
			l-1.07,1.742C7.373,7.556,7.208,7.641,7.04,7.641c-0.089,0-0.18-0.023-0.261-0.074C6.544,7.422,6.47,7.114,6.614,6.879
			l1.119-1.822L5.938,4.681c-0.27-0.057-0.443-0.322-0.387-0.592c0.057-0.271,0.322-0.442,0.592-0.387l1.884,0.395L8.016,2.169
			C8.014,1.894,8.236,1.668,8.513,1.666c0.271-0.037,0.501,0.221,0.503,0.497l0.012,1.934l1.858-0.395
			c0.273-0.058,0.536,0.116,0.594,0.385C11.536,4.357,11.364,4.623,11.094,4.681z M18.104,11.506l-0.951,0.201l0.641,1.017
			c0.147,0.233,0.077,0.542-0.156,0.689c-0.083,0.052-0.175,0.077-0.267,0.077c-0.166,0-0.328-0.083-0.423-0.233l-0.595-0.943
			l-0.582,0.948c-0.094,0.154-0.259,0.238-0.427,0.238c-0.089,0-0.179-0.023-0.261-0.073c-0.235-0.145-0.31-0.453-0.165-0.688
			l0.63-1.027l-0.979-0.205c-0.271-0.057-0.443-0.32-0.387-0.592c0.057-0.27,0.323-0.443,0.592-0.387l1.068,0.225l-0.006-1.095
			c-0.002-0.276,0.221-0.501,0.497-0.503c0.26-0.023,0.501,0.221,0.503,0.498l0.006,1.1l1.053-0.225
			c0.269-0.058,0.535,0.116,0.593,0.386C18.546,11.184,18.374,11.449,18.104,11.506z M18.289,3.852l-0.952,0.202l0.641,1.016
			c0.147,0.233,0.077,0.542-0.156,0.689c-0.083,0.052-0.175,0.077-0.267,0.077c-0.166,0-0.328-0.083-0.423-0.233L16.537,4.66
			l-0.582,0.947c-0.095,0.153-0.259,0.238-0.427,0.238c-0.089,0-0.18-0.024-0.261-0.074c-0.235-0.145-0.31-0.452-0.165-0.688
			l0.631-1.027l-0.98-0.205c-0.27-0.057-0.443-0.321-0.387-0.592c0.057-0.27,0.322-0.443,0.592-0.387l1.068,0.224l-0.007-1.093
			c-0.002-0.276,0.221-0.501,0.497-0.503c0.266-0.01,0.501,0.22,0.503,0.497l0.007,1.099l1.053-0.224
			c0.274-0.054,0.536,0.116,0.593,0.386C18.731,3.529,18.559,3.794,18.289,3.852z"/>
	</g>
</g>
<g id="invisible_shape">
	<rect fill="none" width="24" height="24"/>
</g>
</svg>
