<?xml version="1.0" encoding="utf-8"?>
<!-- Generator: Adobe Illustrator 19.2.0, SVG Export Plug-In . SVG Version: 6.00 Build 0)  -->
<svg version="1.1" xmlns="http://www.w3.org/2000/svg" xmlns:xlink="http://www.w3.org/1999/xlink" x="0px" y="0px" width="24px"
	 height="24px" viewBox="0 0 24 24" enable-background="new 0 0 24 24" xml:space="preserve">
<g id="Filled_Icons">
	<g>
		<path d="M21.714,17.483c-0.5-0.825-1.615-1.184-2.605-0.851c-0.14-1.155-1.038-2.05-2.123-2.05c-1.082,0-1.979,0.89-2.122,2.041
			c-0.983-0.315-2.082,0.042-2.579,0.859c-0.689,1.136-0.07,2.65,1.196,3.206c-0.559,0.89-0.502,2.023,0.206,2.73
			c0.834,0.837,2.435,0.734,3.313-0.293c0.458,0.537,1.15,0.879,1.861,0.879h0.001c0.558,0,1.073-0.208,1.45-0.586
			c0.707-0.707,0.765-1.842,0.206-2.73c0.621-0.274,1.16-0.82,1.38-1.522C22.081,18.582,22.017,17.983,21.714,17.483z M17,21.014
			c-0.822,0-1.488-0.667-1.488-1.488c0-0.822,0.666-1.488,1.488-1.488s1.488,0.666,1.488,1.488
			C18.488,20.347,17.822,21.014,17,21.014z"/>
		<path d="M9.5,8.006c1.59,0,2.879-1.289,2.879-2.879c0-2.322-1.673-4.513-3.959-5.037C9.725,1.05,9.652,2.912,9.14,3.688
			C8.788,3.399,8.474,3.084,8.419,2.608C7.218,3.084,6.621,4.025,6.621,5.127C6.621,6.717,7.91,8.006,9.5,8.006z"/>
		<path d="M7,11.512V12c0,0.275,0.224,0.5,0.5,0.5S8,12.275,8,12v-0.5C8,11.224,8.224,11,8.5,11h2c0.276,0,0.5,0.224,0.5,0.5v2
			c0,0.275,0.224,0.5,0.5,0.5s0.5-0.225,0.5-0.5v-2c0-0.276,0.224-0.5,0.5-0.5H15v-0.494c0-0.827-0.673-1.5-1.5-1.5h-8
			c-0.827,0-1.5,0.673-1.5,1.5V11h2.5C6.776,11.012,7,11.235,7,11.512z"/>
		<path d="M12.228,21.074c-1.235-1.037-1.605-2.777-0.798-4.108c0.562-0.927,1.592-1.456,2.718-1.462
			c0.2-0.45,0.495-0.842,0.852-1.155V12h-2v1.5c0,0.827-0.673,1.5-1.5,1.5S10,14.327,10,13.5V12H9c0,0.827-0.673,1.5-1.5,1.5
			c-0.823,0-1.494-0.667-1.5-1.5H4v10.494c0,0.828,0.672,1.5,1.499,1.496L12.887,24C12.168,23.205,11.943,22.103,12.228,21.074z"/>
	</g>
</g>
<g id="invisible_shape">
	<rect fill="none" width="24" height="24"/>
</g>
</svg>
