<?xml version="1.0" encoding="utf-8"?>
<!-- Generator: Adobe Illustrator 19.2.0, SVG Export Plug-In . SVG Version: 6.00 Build 0)  -->
<svg version="1.1" xmlns="http://www.w3.org/2000/svg" xmlns:xlink="http://www.w3.org/1999/xlink" x="0px" y="0px" width="24px"
	 height="24px" viewBox="0 0 24 24" enable-background="new 0 0 24 24" xml:space="preserve">
<g id="Filled_Icons">
	<g>
		<path d="M20.971,12.139c-0.051-0.145-0.166-0.257-0.31-0.306c-0.045-0.015-1.103-0.366-2.493-0.366
			c-0.414,0-0.814,0.032-1.2,0.094c-0.947,1.823-2.37,3.094-3.215,3.736l0.142,0.65C14.18,15.979,14.492,16,14.826,16
			c0.842,0,1.629-0.129,2.342-0.383c2.347-0.837,3.699-2.955,3.756-3.045C21.005,12.443,21.022,12.283,20.971,12.139z"/>
		<path d="M16.586,4.125c-0.047-0.145-0.158-0.262-0.302-0.315c-0.141-0.054-0.302-0.038-0.434,0.04
			c-0.107,0.066-2.479,1.527-3.69,4.128l1.355,6.235c0.92-0.762,2.255-2.111,2.953-3.973C17.573,7.288,16.626,4.254,16.586,4.125z"
			/>
		<g>
			<polygon points="13.099,17 11.359,9 5.336,9 7.076,17 			"/>
			<polygon points="13.316,18 7.293,18 7.51,19 13.533,19 			"/>
			<polygon points="5.119,8 11.142,8 10.924,7 4.901,7 			"/>
			<path d="M7.727,20l0.784,3.605C8.561,23.836,8.765,24,9,24h5c0.151,0,0.294-0.068,0.39-0.187
				c0.095-0.118,0.131-0.272,0.099-0.421L13.75,20H7.727z"/>
			<path d="M10.707,6L9.488,0.393C9.439,0.164,9.235,0,9,0H4C3.849,0,3.706,0.068,3.61,0.185C3.516,0.304,3.48,0.458,3.512,0.605
				L4.684,6H10.707z"/>
		</g>
	</g>
</g>
<g id="invisible_shape">
	<rect fill="none" width="24" height="24"/>
</g>
</svg>
