<?xml version="1.0" encoding="utf-8"?>
<!-- Generator: Adobe Illustrator 19.2.0, SVG Export Plug-In . SVG Version: 6.00 Build 0)  -->
<svg version="1.1" xmlns="http://www.w3.org/2000/svg" xmlns:xlink="http://www.w3.org/1999/xlink" x="0px" y="0px" width="24px"
	 height="24px" viewBox="0 0 24 24" enable-background="new 0 0 24 24" xml:space="preserve">
<g id="Filled_Icons">
	<g>
		<path d="M13.229,21.048c-1.235-1.039-1.605-2.777-0.798-4.108c0.562-0.927,1.583-1.475,2.718-1.462
			c0.2-0.449,0.495-0.842,0.852-1.154V8.5C16,7.122,14.878,6,13.5,6h-8C4.122,6,3,7.122,3,8.5v13C3,22.879,4.122,24,5.5,24H13h0.904
			C13.17,23.199,12.94,22.086,13.229,21.048z"/>
		<path d="M22.714,17.458c-0.5-0.825-1.615-1.183-2.605-0.852c-0.14-1.154-1.038-2.049-2.123-2.049c-1.082,0-1.979,0.89-2.122,2.04
			c-0.984-0.315-2.082,0.042-2.579,0.86c-0.665,1.098-0.12,2.615,1.196,3.205c-0.559,0.89-0.501,2.023,0.206,2.731
			c0.822,0.82,2.418,0.752,3.313-0.293c0.454,0.53,1.144,0.879,1.862,0.879c0.558,0,1.072-0.209,1.45-0.586
			c0.707-0.707,0.765-1.841,0.206-2.731C22.827,20.079,23.383,18.563,22.714,17.458z M18,20.988c-0.822,0-1.488-0.667-1.488-1.488
			c0-0.822,0.666-1.488,1.488-1.488s1.488,0.666,1.488,1.488C19.488,20.321,18.822,20.988,18,20.988z"/>
		<path d="M3.937,3.5c0.145,0,0.287-0.063,0.386-0.182L6.235,1H9v2.5H8.5c-0.205,0-0.389,0.125-0.465,0.315L7.361,5h4.277
			l-0.674-1.185C10.888,3.625,10.704,3.5,10.5,3.5H10V1h3c0.276,0,0.5-0.224,0.5-0.5S13.276,0,13,0H6
			C5.851,0,5.709,0.066,5.614,0.182l-2.062,2.5C3.376,2.895,3.406,3.21,3.619,3.386C3.712,3.463,3.825,3.5,3.937,3.5z"/>
	</g>
</g>
<g id="invisible_shape">
	<rect fill="none" width="24" height="24"/>
</g>
</svg>
