<?xml version="1.0" encoding="utf-8"?>
<!-- Generator: Adobe Illustrator 19.2.0, SVG Export Plug-In . SVG Version: 6.00 Build 0)  -->
<svg version="1.1" xmlns="http://www.w3.org/2000/svg" xmlns:xlink="http://www.w3.org/1999/xlink" x="0px" y="0px" width="24px"
	 height="24px" viewBox="0 0 24 24" enable-background="new 0 0 24 24" xml:space="preserve">
<g id="Filled_Icons">
	<g>
		<g>
			<path d="M21.683,14.428c-0.52,0.844-1.173,1.646-1.993,2.282c-1.679,1.302-3.656,1.635-5.238,1.635
				c-1.076,0-1.959-0.152-2.452-0.26c-0.493,0.107-1.377,0.26-2.452,0.26c-1.582,0-3.559-0.332-5.237-1.635
				c-0.87-0.677-1.549-1.538-2.084-2.44C1.109,15.163,0.5,16.216,0.5,17.313c0,3.26,4.836,5.718,11.25,5.718
				c2.104,0,4.836-0.323,5.986-0.943C17.898,22,18,21.831,18,21.646V19h4.875c0.262,0,0.479-0.202,0.498-0.463
				C23.492,16.938,22.903,15.54,21.683,14.428z"/>
		</g>
		<g>
			<path d="M5.075,12.619c-0.716-1.551-0.908-3.242-0.879-4.734C2.818,7.902,1.795,8.189,1.737,8.207
				C1.502,8.274,1.352,8.503,1.38,8.746c0.024,0.199,0.617,4.901,3.543,7.174c1.468,1.139,3.211,1.432,4.616,1.432
				c0.151,0,0.284-0.011,0.426-0.017C8.444,16.591,6.241,15.14,5.075,12.619z"/>
			<path d="M22.262,8.207c-0.057-0.017-1.08-0.304-2.458-0.322c0.028,1.492-0.163,3.184-0.88,4.734
				c-1.165,2.521-3.369,3.972-4.89,4.716c0.142,0.006,0.275,0.017,0.426,0.017c1.405,0,3.148-0.293,4.616-1.432
				c2.926-2.272,3.519-6.975,3.543-7.174C22.648,8.503,22.498,8.274,22.262,8.207z"/>
		</g>
		<g>
			<path d="M7.447,9.521c0-1.827,0.567-3.487,1.243-4.824c-1.215-0.72-2.228-1.019-2.287-1.034c-0.258-0.075-0.53,0.072-0.612,0.329
				c-0.06,0.188-1.452,4.649,0.192,8.208c0.884,1.912,2.442,3.137,3.734,3.876C8.713,14.623,7.447,12.254,7.447,9.521z"/>
			<path d="M18.209,3.991c-0.083-0.257-0.354-0.405-0.613-0.329c-0.057,0.016-1.07,0.311-2.287,1.032
				c0.676,1.338,1.244,2.998,1.244,4.826c0,2.733-1.266,5.102-2.271,6.555c1.292-0.739,2.85-1.964,3.734-3.876
				C19.661,8.641,18.269,4.179,18.209,3.991z"/>
		</g>
		<path d="M12.358,2.152c-0.189-0.194-0.529-0.194-0.718,0c-0.13,0.134-3.193,3.335-3.193,7.368c0,4.034,3.063,7.235,3.193,7.37
			c0.095,0.097,0.224,0.151,0.359,0.151c0.135,0,0.265-0.055,0.358-0.151c0.131-0.135,3.194-3.336,3.194-7.37
			C15.553,5.487,12.489,2.286,12.358,2.152z"/>
	</g>
</g>
<g id="invisible_shape">
	<rect fill="none" width="24" height="24"/>
</g>
</svg>
