<?xml version="1.0" encoding="utf-8"?>
<!-- Generator: Adobe Illustrator 19.2.0, SVG Export Plug-In . SVG Version: 6.00 Build 0)  -->
<svg version="1.1" xmlns="http://www.w3.org/2000/svg" xmlns:xlink="http://www.w3.org/1999/xlink" x="0px" y="0px" width="24px"
	 height="24px" viewBox="0 0 24 24" enable-background="new 0 0 24 24" xml:space="preserve">
<g id="Filled_Icons">
	<g>
		<path d="M16.523,2.14c0.103,0.252,0.174,0.505,0.212,0.753c0.12,0.802-0.059,1.72-0.674,2.577c3.117,1.1,4.94,3.562,4.94,6.967
			c0,2.225-0.223,4.148-0.652,5.784C22.625,16.544,24,13.908,24,11C24,6.558,20.762,2.867,16.523,2.14z"/>
		<path d="M3.02,12.436c0-4.693,3.44-7.608,8.979-7.608c1.091,0,2.098,0.116,3.016,0.333c0.627-0.708,0.827-1.47,0.729-2.121
			C15.519,1.527,13.656,0,10,0C4.485,0,0,4.486,0,10c0,2.879,1.29,5.571,3.497,7.478C3.185,16.007,3.02,14.334,3.02,12.436z"/>
		<g>
			<path d="M9.5,14C9.224,14,9,13.776,9,13.5S9.224,13,9.5,13h0.929c-0.182-0.699-0.73-1.247-1.429-1.429V12.5
				C9,12.776,8.776,13,8.5,13S8,12.776,8,12.5v-0.929C7.301,11.753,6.753,12.301,6.571,13H7.5C7.776,13,8,13.224,8,13.5
				S7.776,14,7.5,14H6.571C6.753,14.699,7.301,15.247,8,15.429V14.5C8,14.224,8.224,14,8.5,14S9,14.224,9,14.5v0.929
				c0.699-0.182,1.247-0.73,1.429-1.429H9.5z"/>
			<path d="M16.5,14c-0.276,0-0.5-0.224-0.5-0.5s0.224-0.5,0.5-0.5h0.929c-0.182-0.699-0.729-1.247-1.429-1.429V12.5
				c0,0.276-0.224,0.5-0.5,0.5S15,12.776,15,12.5v-0.929c-0.699,0.182-1.247,0.73-1.429,1.429H14.5c0.276,0,0.5,0.224,0.5,0.5
				S14.776,14,14.5,14h-0.929c0.182,0.699,0.73,1.247,1.429,1.429V14.5c0-0.276,0.224-0.5,0.5-0.5s0.5,0.224,0.5,0.5v0.929
				c0.699-0.182,1.247-0.73,1.429-1.429H16.5z"/>
			<path d="M12,5.828c-4.922,0-7.979,2.532-7.979,6.608C4.021,15.297,4.021,24,12,24c5.309,0,8-3.891,8-11.564
				C20,8.36,16.935,5.828,12,5.828z M5.5,13.5c0-1.654,1.346-3,3-3s3,1.346,3,3s-1.346,3-3,3S5.5,15.154,5.5,13.5z M14,20h-4
				c-0.276,0-0.5-0.224-0.5-0.5S9.724,19,10,19h4c0.276,0,0.5,0.224,0.5,0.5S14.276,20,14,20z M15.5,16.5c-1.654,0-3-1.346-3-3
				s1.346-3,3-3s3,1.346,3,3S17.154,16.5,15.5,16.5z"/>
		</g>
	</g>
</g>
<g id="invisible_shape">
	<rect fill="none" width="24" height="24"/>
</g>
</svg>
