<?xml version="1.0" encoding="utf-8"?>
<!-- Generator: Adobe Illustrator 19.2.0, SVG Export Plug-In . SVG Version: 6.00 Build 0)  -->
<svg version="1.1" xmlns="http://www.w3.org/2000/svg" xmlns:xlink="http://www.w3.org/1999/xlink" x="0px" y="0px" width="24px"
	 height="24px" viewBox="0 0 24 24" enable-background="new 0 0 24 24" xml:space="preserve">
<g id="Filled_Icons">
	<g>
		<path d="M14.229,20.987c-1.235-1.035-1.606-2.775-0.8-4.108c0.563-0.927,1.569-1.506,2.718-1.462
			c0.076-0.172,0.171-0.333,0.272-0.488c-0.854-2.644-2.124-5.346-3.14-7.311c-0.533-1.031-0.292-2.28,0.585-3.039l1.962-1.694
			C15.936,2.789,16,2.651,16,2.506v-2c0-0.276-0.224-0.5-0.5-0.5h-12c-0.276,0-0.5,0.224-0.5,0.5v2c0,0.146,0.063,0.283,0.173,0.379
			l1.962,1.694C6.012,5.338,6.252,6.587,5.72,7.618c-2.145,4.149-5.451,11.593-3.49,14.813c0.636,1.045,1.736,1.574,3.27,1.574H6
			v-3.5c0-0.276,0.224-0.5,0.5-0.5h6c0.276,0,0.5,0.224,0.5,0.5v3.5h0.5c0.489,0,0.918-0.073,1.318-0.181
			C14.162,23.031,13.954,21.978,14.229,20.987z M9.5,19.006c-1.59,0-2.879-1.288-2.879-2.878c0-1.102,0.598-2.043,1.799-2.518
			c0.055,0.476,0.368,0.79,0.721,1.079c0.512-0.776,0.585-2.639-0.721-3.599c2.286,0.525,3.959,2.715,3.959,5.038
			C12.379,17.718,11.09,19.006,9.5,19.006z"/>
		<path d="M23.714,17.396c-0.5-0.824-1.615-1.183-2.605-0.851c-0.139-1.155-1.038-2.05-2.123-2.05c-1.083,0-1.98,0.89-2.122,2.04
			c-0.987-0.314-2.083,0.042-2.579,0.86c-0.612,1.01-0.203,2.381,0.91,3.056c0.092,0.056,0.188,0.106,0.286,0.149
			c-0.558,0.889-0.501,2.023,0.205,2.732c0.838,0.838,2.44,0.729,3.314-0.293c0.498,0.576,1.198,0.878,1.862,0.878
			c0.558,0,1.073-0.208,1.45-0.586c0.707-0.708,0.765-1.843,0.206-2.731C23.807,20.031,24.393,18.517,23.714,17.396z M19,20.927
			c-0.822,0-1.489-0.667-1.489-1.488c0-0.822,0.667-1.488,1.489-1.488s1.488,0.666,1.488,1.488
			C20.488,20.26,19.822,20.927,19,20.927z"/>
	</g>
</g>
<g id="invisible_shape">
	<rect fill="none" width="24" height="24"/>
</g>
</svg>
