<?xml version="1.0" encoding="utf-8"?>
<!-- Generator: Adobe Illustrator 19.2.0, SVG Export Plug-In . SVG Version: 6.00 Build 0)  -->
<svg version="1.1" xmlns="http://www.w3.org/2000/svg" xmlns:xlink="http://www.w3.org/1999/xlink" x="0px" y="0px" width="24px"
	 height="24px" viewBox="0 0 24 24" enable-background="new 0 0 24 24" xml:space="preserve">
<g id="Filled_Icons">
	<g>
		<g>
			<path d="M15.5,2.5C15.224,2.5,15,2.276,15,2V0.5C15,0.224,15.224,0,15.5,0S16,0.224,16,0.5V2C16,2.276,15.776,2.5,15.5,2.5z"/>
		</g>
		<g>
			<path d="M19.596,4.903c-0.128,0-0.256-0.049-0.353-0.146c-0.195-0.195-0.195-0.512,0-0.706l1.415-1.415
				c0.195-0.195,0.512-0.195,0.707,0c0.195,0.196,0.195,0.513,0,0.707l-1.415,1.414C19.852,4.854,19.724,4.903,19.596,4.903z"/>
		</g>
		<g>
			<path d="M23.5,9h-2C21.224,9,21,8.776,21,8.5S21.224,8,21.5,8h2C23.776,8,24,8.224,24,8.5S23.776,9,23.5,9z"/>
		</g>
		<g>
			<path d="M21.011,15c-0.128,0-0.256-0.049-0.354-0.146l-1.415-1.414c-0.195-0.194-0.195-0.512,0-0.707
				c0.195-0.195,0.512-0.195,0.707,0l1.415,1.414c0.195,0.195,0.195,0.512,0,0.707C21.267,14.951,21.139,15,21.011,15z"/>
		</g>
		<g>
			<path d="M15.5,17c-0.276,0-0.5-0.224-0.5-0.5V15c0-0.276,0.224-0.5,0.5-0.5S16,14.724,16,15v1.5C16,16.776,15.776,17,15.5,17z"/>
		</g>
		<path d="M10.5,7h-8C1.122,7,0,8.122,0,9.5v12C0,22.879,1.122,24,2.5,24h8.002C11.879,24,13,22.879,13,21.502V9.5
			C13,8.122,11.878,7,10.5,7z M11,17.5c0,0.276-0.224,0.5-0.5,0.5h-8C2.224,18,2,17.776,2,17.5v-4C2,13.224,2.224,13,2.5,13h8
			c0.276,0,0.5,0.224,0.5,0.5V17.5z"/>
		<path d="M15.5,4c-1.405,0-2.646,0.66-3.472,1.672C13.454,6.114,14.5,7.431,14.5,9v3.879c0.323,0.074,0.655,0.121,1,0.121
			c2.481,0,4.5-2.018,4.5-4.5C20,6.019,17.981,4,15.5,4z"/>
		<path d="M10,1H3C2.851,1,2.71,1.066,2.614,1.182l-2.063,2.5C0.376,3.895,0.406,4.21,0.619,4.386
			c0.213,0.176,0.527,0.145,0.704-0.067L3.235,2H6v2.5H5.5c-0.205,0-0.389,0.125-0.465,0.314L4.361,6h4.277L7.964,4.814
			C7.888,4.625,7.704,4.5,7.5,4.5H7V2h3c0.276,0,0.5-0.224,0.5-0.5S10.276,1,10,1z"/>
	</g>
</g>
<g id="invisible_shape">
	<rect fill="none" width="24" height="24"/>
</g>
</svg>
