<?xml version="1.0" encoding="utf-8"?>
<!-- Generator: Adobe Illustrator 19.2.0, SVG Export Plug-In . SVG Version: 6.00 Build 0)  -->
<svg version="1.1" xmlns="http://www.w3.org/2000/svg" xmlns:xlink="http://www.w3.org/1999/xlink" x="0px" y="0px" width="24px"
	 height="24px" viewBox="0 0 24 24" enable-background="new 0 0 24 24" xml:space="preserve">
<g id="Filled_Icons">
	<path d="M22.213,4.621l-3.535-3.536c-0.094-0.093-0.221-0.146-0.354-0.146c-0.133,0-0.26,0.053-0.354,0.146L16.916,2.14l2.47,2.483
		c0.195,0.194,0.193,0.512-0.002,0.706c-0.197,0.196-0.513,0.193-0.707-0.002l-2.467-2.48l-0.701,0.7l2.464,2.49
		c0.194,0.196,0.192,0.513-0.004,0.707c-0.195,0.193-0.514,0.193-0.707-0.004l-2.46-2.486l-0.711,0.711l2.467,2.486
		c0.194,0.195,0.194,0.513-0.003,0.707c-0.196,0.194-0.514,0.192-0.707-0.004l-2.463-2.482l-1.071,1.07
		c-0.195,0.195-0.195,0.512,0,0.707l3.182,3.183l-1.606,1.607l-4.588,1.816c-0.064,0.025-0.121,0.064-0.17,0.111l-8.485,8.486
		c-0.195,0.195-0.195,0.512,0,0.707c0.195,0.195,0.512,0.195,0.707,0l8.412-8.413l4.588-1.817c0.064-0.024,0.121-0.063,0.17-0.111
		l2.03-2.029c0.001-0.002,0.002-0.002,0.003-0.003l5.656-5.657C22.408,5.133,22.408,4.816,22.213,4.621z"/>
</g>
<g id="invisible_shape">
	<rect fill="none" width="24" height="24"/>
</g>
</svg>
