<?xml version="1.0" encoding="utf-8"?>
<!-- Generator: Adobe Illustrator 19.2.0, SVG Export Plug-In . SVG Version: 6.00 Build 0)  -->
<svg version="1.1" xmlns="http://www.w3.org/2000/svg" xmlns:xlink="http://www.w3.org/1999/xlink" x="0px" y="0px" width="24px"
	 height="24px" viewBox="0 0 24 24" enable-background="new 0 0 24 24" xml:space="preserve">
<g id="Filled_Icons">
	<g>
		<path d="M16.898,1.197c-0.189-0.249-0.607-0.249-0.797,0C15.914,1.445,11.5,7.299,11.5,10c0,2.85,2.149,5,5,5s5-2.15,5-5
			C21.5,7.299,17.086,1.445,16.898,1.197z M16.5,13c-1.563,0-2.833-1.271-2.833-2.834c0-0.275,0.224-0.5,0.5-0.5
			c0.276,0,0.5,0.225,0.5,0.5c0,1.012,0.822,1.834,1.833,1.834c0.276,0,0.5,0.223,0.5,0.5C17,12.775,16.776,13,16.5,13z"/>
		<path d="M3.5,14.009h-3c-0.276,0-0.5,0.223-0.5,0.5V22.5C0,22.775,0.224,23,0.5,23h3C3.775,23,4,22.775,4,22.5v-7.991
			C4,14.231,3.775,14.009,3.5,14.009z"/>
		<path d="M23.854,18.146c-1.175-1.174-2.186-1.5-3.512-1.121l-3.008,0.998c0.026,0.156,0.041,0.316,0.041,0.477
			c0,0.641-0.207,1.242-0.585,1.695C16.352,20.721,15.732,21,15,21H9.5C9.224,21,9,20.775,9,20.5C9,20.223,9.224,20,9.5,20H15
			c0.432,0,0.775-0.15,1.021-0.445c0.225-0.27,0.354-0.652,0.354-1.055c0-0.559-0.29-1.5-1.375-1.5h-3
			c-0.133,0-0.26-0.053-0.354-0.146C11.09,16.295,9.569,15,7.5,15h-2C5.224,15,5,15.223,5,15.5V21c0,0.215,0.138,0.406,0.342,0.473
			c1.584,0.529,2.831,0.982,3.833,1.346c2.004,0.729,3.13,1.123,4.141,1.123c1.212,0,2.258-0.568,4.453-1.807
			c1.368-0.774,3.241-1.832,5.955-3.188c0.144-0.072,0.245-0.209,0.271-0.367C24.019,18.42,23.967,18.26,23.854,18.146z"/>
	</g>
</g>
<g id="invisible_shape">
	<rect fill="none" width="24" height="24"/>
</g>
</svg>
