<?xml version="1.0" encoding="utf-8"?>
<!-- Generator: Adobe Illustrator 16.0.3, SVG Export Plug-In . SVG Version: 6.00 Build 0)  -->
<!DOCTYPE svg PUBLIC "-//W3C//DTD SVG 1.1//EN" "http://www.w3.org/Graphics/SVG/1.1/DTD/svg11.dtd">
<svg version="1.1" xmlns="http://www.w3.org/2000/svg" xmlns:xlink="http://www.w3.org/1999/xlink" x="0px" y="0px" width="24px"
	 height="24px" viewBox="0 0 24 24" enable-background="new 0 0 24 24" xml:space="preserve">
<g id="Outline_Icons">
	<g>
		<g>
			<path fill="none" stroke="#000000" stroke-linecap="round" stroke-linejoin="round" stroke-miterlimit="10" d="M6.083,10.602
				c0,0.768,0.622,1.391,1.391,1.391c0.768,0,1.39-0.623,1.39-1.391s-0.623-1.393-1.39-1.393c-0.769,0-1.391-0.621-1.391-1.391
				c0-0.768,0.622-1.391,1.391-1.391c0.768,0,1.39,0.623,1.39,1.391"/>
			
				<line fill="none" stroke="#000000" stroke-linecap="round" stroke-linejoin="round" stroke-miterlimit="10" x1="7.474" y1="11.992" x2="7.474" y2="12.918"/>
			
				<line fill="none" stroke="#000000" stroke-linecap="round" stroke-linejoin="round" stroke-miterlimit="10" x1="7.474" y1="5.5" x2="7.474" y2="6.428"/>
		</g>
		<g>
			<path fill="none" stroke="#000000" stroke-linecap="round" stroke-linejoin="round" stroke-miterlimit="10" d="M15.083,10.602
				c0,0.768,0.622,1.391,1.391,1.391c0.768,0,1.39-0.623,1.39-1.391s-0.623-1.393-1.39-1.393c-0.769,0-1.391-0.621-1.391-1.391
				c0-0.768,0.622-1.391,1.391-1.391c0.768,0,1.39,0.623,1.39,1.391"/>
			
				<line fill="none" stroke="#000000" stroke-linecap="round" stroke-linejoin="round" stroke-miterlimit="10" x1="16.474" y1="11.992" x2="16.474" y2="12.918"/>
			
				<line fill="none" stroke="#000000" stroke-linecap="round" stroke-linejoin="round" stroke-miterlimit="10" x1="16.474" y1="5.5" x2="16.474" y2="6.428"/>
		</g>
		
			<circle fill="none" stroke="#000000" stroke-linecap="round" stroke-linejoin="round" stroke-miterlimit="10" cx="12" cy="12" r="11.5"/>
		<path fill="none" stroke="#000000" stroke-linecap="round" stroke-linejoin="round" stroke-miterlimit="10" d="M18.5,15
			c-2.855,5.08-10.378,4.881-13,0.016"/>
	</g>
</g>
<g id="Invisible_Shape">
	<rect fill="none" width="24" height="24"/>
</g>
</svg>
