<?xml version="1.0" encoding="utf-8"?>
<!-- Generator: Adobe Illustrator 16.0.3, SVG Export Plug-In . SVG Version: 6.00 Build 0)  -->
<!DOCTYPE svg PUBLIC "-//W3C//DTD SVG 1.1//EN" "http://www.w3.org/Graphics/SVG/1.1/DTD/svg11.dtd">
<svg version="1.1" xmlns="http://www.w3.org/2000/svg" xmlns:xlink="http://www.w3.org/1999/xlink" x="0px" y="0px" width="24px"
	 height="24px" viewBox="0 0 24 24" enable-background="new 0 0 24 24" xml:space="preserve">
<g id="Outline_Icons">
	<g>
		
			<circle fill="none" stroke="#000000" stroke-linecap="round" stroke-linejoin="round" stroke-miterlimit="10" cx="12" cy="12" r="11.5"/>
		<path fill="none" stroke="#000000" stroke-linecap="round" stroke-linejoin="round" stroke-miterlimit="10" d="M5.569,10.494
			c-0.208-0.49-0.324-1.029-0.324-1.596c0-1.814,1.47-3.283,3.283-3.283c1.45,0,2.626,1.176,2.626,2.625
			c0,1.16-0.94,2.102-2.101,2.102c-0.929,0-1.682-0.752-1.682-1.68c0-0.744,0.603-1.346,1.345-1.346"/>
		<path fill="none" stroke="#000000" stroke-linecap="round" stroke-linejoin="round" stroke-miterlimit="10" d="M13.569,10.494
			c-0.208-0.49-0.324-1.029-0.324-1.596c0-1.814,1.47-3.283,3.283-3.283c1.45,0,2.626,1.176,2.626,2.625
			c0,1.16-0.94,2.102-2.101,2.102c-0.929,0-1.682-0.752-1.682-1.68c0-0.744,0.603-1.346,1.345-1.346"/>
		
			<line fill="none" stroke="#000000" stroke-linecap="round" stroke-linejoin="round" stroke-miterlimit="10" x1="8" y1="15.5" x2="17" y2="15.5"/>
		<path fill="none" stroke="#000000" stroke-linecap="round" stroke-linejoin="round" stroke-miterlimit="10" d="M16.5,15.5h-4v2
			c0,1.105,0.896,2,2,2c1.104,0,2-0.895,2-2V15.5z"/>
		
			<line fill="none" stroke="#000000" stroke-linecap="round" stroke-linejoin="round" stroke-miterlimit="10" x1="14.5" y1="15.5" x2="14.5" y2="17"/>
	</g>
</g>
<g id="Invisible_Shape">
	<rect fill="none" width="24" height="24"/>
</g>
</svg>
