<?xml version="1.0" encoding="utf-8"?>
<!-- Generator: Adobe Illustrator 19.2.1, SVG Export Plug-In . SVG Version: 6.00 Build 0)  -->
<svg version="1.1" xmlns="http://www.w3.org/2000/svg" xmlns:xlink="http://www.w3.org/1999/xlink" x="0px" y="0px" width="24px"
	 height="24px" viewBox="0 0 24 24" enable-background="new 0 0 24 24" xml:space="preserve">
<g id="Filled_Icons_1_">
	<g id="Filled_Icons">
		<g>
			<g>
				<path d="M6.499,12c-0.276,0-0.5,0.224-0.5,0.5v5c0,0.276,0.224,0.5,0.5,0.5c0.276,0,0.5-0.224,0.5-0.5v-5
					C6.999,12.224,6.776,12,6.499,12z"/>
				<path d="M18.938,12.582c-0.248-0.118-0.547-0.018-0.669,0.23l-2.188,4.469c-0.121,0.248-0.018,0.548,0.23,0.669
					c0.252,0.122,0.549,0.017,0.669-0.229l2.188-4.469C19.289,13.003,19.186,12.703,18.938,12.582z"/>
				<path d="M17.5,10H14V8.5C14,8.224,13.776,8,13.5,8H12V3.5C12,3.224,11.776,3,11.5,3C11.223,3,11,3.224,11,3.5V8H9.5
					C9.223,8,9,8.224,9,8.5V10h-3.5c-2.481,0-4.5,2.019-4.5,4.5v5c0,2.481,2.019,4.5,4.5,4.5h12c2.482,0,4.5-2.019,4.5-4.5v-5
					C22,12.019,19.981,10,17.5,10z M8.5,12h6c0.445,0,0.667,0.541,0.353,0.854l-2,2C12.759,14.947,12.632,15,12.5,15h-2
					c-0.133,0-0.26-0.053-0.354-0.146l-2-2C7.832,12.541,8.055,12,8.5,12z M6.531,21c-1.93,0-3.5-1.57-3.5-3.5
					c0-1.568,1.044-2.884,2.469-3.327V12.5c0-0.553,0.448-1,1-1c0.552,0,1,0.447,1,1v1.653c1.457,0.424,2.531,1.755,2.531,3.347
					C10.031,19.43,8.46,21,6.531,21z M13,22h-3c-0.276,0-0.5-0.224-0.5-0.5c0-0.276,0.224-0.5,0.5-0.5h3c0.276,0,0.5,0.224,0.5,0.5
					C13.5,21.776,13.276,22,13,22z M16.531,21c-1.93,0-3.5-1.57-3.5-3.5c0-2.102,1.874-3.81,4.072-3.442l0.718-1.466
					c0.243-0.495,0.843-0.702,1.337-0.459c0.496,0.243,0.702,0.842,0.458,1.338l-0.718,1.468c0.692,0.64,1.133,1.547,1.133,2.561
					C20.031,19.43,18.46,21,16.531,21z"/>
			</g>
			<g>
				<path d="M20.004,7.042c-0.267-0.07-0.426-0.344-0.356-0.611c0.241-0.912,0.363-1.858,0.363-2.812
					c0-1.014-0.137-2.016-0.408-2.979c-0.075-0.267,0.08-0.542,0.346-0.617c0.266-0.074,0.543,0.081,0.617,0.346
					c0.295,1.052,0.445,2.145,0.445,3.25c0,1.04-0.133,2.073-0.396,3.068C20.544,6.958,20.264,7.112,20.004,7.042z"/>
			</g>
			<g>
				<path d="M16.962,6.486c-0.262-0.088-0.403-0.371-0.315-0.633c0.242-0.72,0.365-1.472,0.365-2.235
					c0-0.831-0.143-1.643-0.426-2.411c-0.095-0.26,0.038-0.547,0.297-0.642c0.258-0.092,0.547,0.038,0.642,0.297
					c0.324,0.881,0.488,1.808,0.488,2.757c0,0.873-0.14,1.731-0.417,2.554C17.509,6.43,17.229,6.575,16.962,6.486z"/>
			</g>
			<g>
				<path d="M13.738,5.868c-0.235-0.145-0.309-0.452-0.165-0.688c0.287-0.468,0.439-1.008,0.439-1.562
					c0-0.584-0.167-1.148-0.482-1.631c-0.151-0.231-0.086-0.541,0.145-0.692c0.231-0.15,0.542-0.085,0.692,0.145
					c0.421,0.646,0.645,1.399,0.645,2.178c0,0.739-0.203,1.461-0.586,2.086C14.279,5.941,13.97,6.013,13.738,5.868z"/>
			</g>
			<g>
				<path d="M2.382,6.686C2.12,5.69,1.987,4.657,1.987,3.618c0-1.108,0.15-2.202,0.445-3.25c0.075-0.267,0.353-0.421,0.617-0.346
					C3.315,0.098,3.47,0.374,3.395,0.64C3.124,1.6,2.987,2.602,2.987,3.618c0,0.953,0.122,1.899,0.362,2.813
					c0.07,0.267-0.089,0.54-0.356,0.61C2.734,7.112,2.454,6.958,2.382,6.686z"/>
			</g>
			<g>
				<path d="M5.402,6.172C5.127,5.349,4.987,4.489,4.987,3.618c0-0.948,0.164-1.875,0.487-2.756c0.096-0.26,0.383-0.39,0.641-0.298
					C6.374,0.66,6.507,0.947,6.412,1.206C6.13,1.977,5.987,2.788,5.987,3.618c0,0.763,0.123,1.516,0.364,2.235
					c0.088,0.262-0.053,0.546-0.315,0.633C5.786,6.574,5.493,6.441,5.402,6.172z"/>
			</g>
			<g>
				<path d="M9,5.942c-0.168,0-0.332-0.085-0.427-0.238C8.189,5.079,7.987,4.357,7.987,3.618c0-0.776,0.222-1.529,0.642-2.177
					c0.15-0.231,0.46-0.295,0.691-0.148c0.232,0.15,0.298,0.46,0.148,0.692C9.153,2.471,8.987,3.035,8.987,3.618
					c0,0.555,0.152,1.095,0.439,1.562C9.57,5.416,9.497,5.724,9.261,5.868C9.18,5.919,9.089,5.942,9,5.942z"/>
			</g>
		</g>
	</g>
	<g id="New_icons">
	</g>
</g>
<g id="Invisible_Shape">
	<rect fill="none" width="24" height="24"/>
</g>
</svg>
