<?xml version="1.0" encoding="utf-8"?>
<!-- Generator: Adobe Illustrator 19.2.1, SVG Export Plug-In . SVG Version: 6.00 Build 0)  -->
<svg version="1.1" xmlns="http://www.w3.org/2000/svg" xmlns:xlink="http://www.w3.org/1999/xlink" x="0px" y="0px" width="24px"
	 height="24px" viewBox="0 0 24 24" enable-background="new 0 0 24 24" xml:space="preserve">
<g id="Filled_Icons_1_">
	<g id="Filled_Icons">
		<g>
			<path d="M8.809,16.944C8.648,16.648,8.573,16.326,8.54,16H4.499C4.223,16,4,15.776,4,15.5v-13C4,2.224,4.223,2,4.499,2h16
				C20.776,2,21,2.224,21,2.5v10.471c0.469,0.168,2.625,0.893,3,1.161V2.5C24,1.121,22.878,0,21.5,0h-19c-1.378,0-2.5,1.121-2.5,2.5
				v13c0,1.379,1.122,2.5,2.5,2.5h6.892L8.809,16.944z M22,8.5c0.276,0,0.5,0.224,0.5,0.5c0,0.276-0.224,0.5-0.5,0.5
				c-0.275,0-0.5-0.224-0.5-0.5C21.5,8.724,21.724,8.5,22,8.5z M2.5,10c-0.551,0-1-0.448-1-1c0-0.552,0.449-1,1-1s1,0.448,1,1
				C3.5,9.552,3.051,10,2.5,10z"/>
			<path d="M23.079,14.779L18,12.957V7.97c0-0.893-0.491-1.47-1.25-1.47h-1.448C14.535,6.5,14,7.105,14,7.97v7.843l-0.826-0.987
				c-0.27-0.346-0.726-0.561-1.2-0.561l-0.99,0.019c-1.137,0-1.823,1.216-1.299,2.178l3.735,6.774
				C13.678,23.707,14.169,24,14.703,24h6.386c0.595,0,1.126-0.356,1.379-0.988C22.488,22.924,24,16.31,24,16.22
				C24,15.517,23.629,14.949,23.079,14.779z"/>
		</g>
	</g>
	<g id="New_icons">
	</g>
</g>
<g id="Invisible_Shape">
	<rect fill="none" width="24" height="24"/>
</g>
</svg>
