<?xml version="1.0" encoding="utf-8"?>
<!-- Generator: Adobe Illustrator 19.2.1, SVG Export Plug-In . SVG Version: 6.00 Build 0)  -->
<svg version="1.1" xmlns="http://www.w3.org/2000/svg" xmlns:xlink="http://www.w3.org/1999/xlink" x="0px" y="0px" width="24px"
	 height="24px" viewBox="0 0 24 24" enable-background="new 0 0 24 24" xml:space="preserve">
<g id="Filled_Icons_1_">
	<g id="Filled_Icons">
		<g>
			<path d="M14,19.951l-1.923-2.778c-0.893-1.013-0.846-2.545,0.112-3.502c0.992-0.99,2.709-1.088,3.811,0.217V8.982
				c0-1.102-0.897-2-2-1.982h-7c-1.103-0.018-2,0.88-2,1.982v11c0,1.103,0.897,2,2,2h7.116C14.046,21.668,14,21.349,14,21.021
				V19.951z M12.5,9.982c0.276,0,0.5,0.224,0.5,0.5c0,0.275-0.224,0.5-0.5,0.5c-0.276,0-0.5-0.225-0.5-0.5
				C12,10.206,12.223,9.982,12.5,9.982z M12.5,11.982c0.276,0,0.5,0.224,0.5,0.5c0,0.275-0.224,0.5-0.5,0.5
				c-0.276,0-0.5-0.225-0.5-0.5C12,12.206,12.223,11.982,12.5,11.982z M8.5,18.982c-0.276,0-0.5-0.225-0.5-0.5
				c0-0.276,0.224-0.5,0.5-0.5c0.276,0,0.5,0.224,0.5,0.5C9,18.758,8.776,18.982,8.5,18.982z M8.5,16.982
				c-0.276,0-0.5-0.225-0.5-0.5c0-0.276,0.224-0.5,0.5-0.5c0.276,0,0.5,0.224,0.5,0.5C9,16.758,8.776,16.982,8.5,16.982z
				 M8.5,14.982c-0.276,0-0.5-0.225-0.5-0.5c0-0.276,0.224-0.5,0.5-0.5c0.276,0,0.5,0.224,0.5,0.5C9,14.758,8.776,14.982,8.5,14.982
				z M8.5,12.982c-0.276,0-0.5-0.225-0.5-0.5c0-0.276,0.224-0.5,0.5-0.5c0.276,0,0.5,0.224,0.5,0.5
				C9,12.758,8.776,12.982,8.5,12.982z M8.5,10.982c-0.276,0-0.5-0.225-0.5-0.5c0-0.276,0.224-0.5,0.5-0.5
				c0.276,0,0.5,0.224,0.5,0.5C9,10.758,8.776,10.982,8.5,10.982z M10.5,18.982c-0.276,0-0.5-0.225-0.5-0.5
				c0-0.276,0.224-0.5,0.5-0.5c0.276,0,0.5,0.224,0.5,0.5C11,18.758,10.776,18.982,10.5,18.982z M10.5,16.982
				c-0.276,0-0.5-0.225-0.5-0.5c0-0.276,0.224-0.5,0.5-0.5c0.276,0,0.5,0.224,0.5,0.5C11,16.758,10.776,16.982,10.5,16.982z
				 M10.5,14.982c-0.276,0-0.5-0.225-0.5-0.5c0-0.276,0.224-0.5,0.5-0.5c0.276,0,0.5,0.224,0.5,0.5
				C11,14.758,10.776,14.982,10.5,14.982z M10.5,12.982c-0.276,0-0.5-0.225-0.5-0.5c0-0.276,0.224-0.5,0.5-0.5
				c0.276,0,0.5,0.224,0.5,0.5C11,12.758,10.776,12.982,10.5,12.982z M10.5,10.982c-0.276,0-0.5-0.225-0.5-0.5
				c0-0.276,0.224-0.5,0.5-0.5c0.276,0,0.5,0.224,0.5,0.5C11,10.758,10.776,10.982,10.5,10.982z"/>
			<path d="M6.124,2.326c1.316-0.88,2.852-1.345,4.438-1.345c1.585,0,3.119,0.465,4.436,1.345c0.233,0.154,0.542,0.09,0.694-0.139
				c0.153-0.23,0.091-0.54-0.139-0.693c-1.481-0.989-3.208-1.513-4.991-1.513c-1.785,0-3.511,0.524-4.993,1.513
				C5.339,1.648,5.278,1.958,5.431,2.188C5.584,2.417,5.894,2.48,6.124,2.326z"/>
			<path d="M14.582,3.852c0.154-0.23,0.092-0.54-0.138-0.693c-1.151-0.77-2.494-1.177-3.882-1.177S7.832,2.389,6.679,3.158
				C6.449,3.312,6.387,3.622,6.541,3.852c0.153,0.23,0.464,0.292,0.693,0.138c0.988-0.658,2.139-1.008,3.328-1.008
				c1.189,0,2.34,0.349,3.326,1.008C14.124,4.145,14.433,4.076,14.582,3.852z"/>
			<path d="M7.788,4.822C7.558,4.976,7.497,5.286,7.65,5.516c0.152,0.229,0.463,0.291,0.693,0.138c1.315-0.878,3.118-0.879,4.438,0
				c0.228,0.152,0.539,0.092,0.693-0.139c0.153-0.228,0.091-0.539-0.139-0.693C11.687,3.722,9.432,3.724,7.788,4.822z"/>
			<path d="M22.433,23.234L21,19.85c0-1.686,0-2.742,0-4.426c0-1.615-1.853-4.193-3.176-5.321l-0.002-0.002
				C17.501,9.828,17,10.054,17,10.482v6.136l-1.896-2.24c-0.623-0.618-1.608-0.601-2.208,0c-0.589,0.589-0.613,1.533-0.055,2.15
				c0.037,0.042,2.038,2.936,2.069,2.981C14.968,19.594,15,19.692,15,19.794c0,2.437,0.046,2.417,1.178,3.998
				C16.271,23.923,16.422,24,16.583,24h0.001H22C22.385,23.998,22.622,23.563,22.433,23.234z"/>
		</g>
	</g>
	<g id="New_icons">
	</g>
</g>
<g id="Invisible_Shape">
	<rect fill="none" width="24" height="24"/>
</g>
</svg>
