<?xml version="1.0" encoding="utf-8"?>
<!-- Generator: Adobe Illustrator 19.2.1, SVG Export Plug-In . SVG Version: 6.00 Build 0)  -->
<svg version="1.1" xmlns="http://www.w3.org/2000/svg" xmlns:xlink="http://www.w3.org/1999/xlink" x="0px" y="0px" width="24px"
	 height="24px" viewBox="0 0 24 24" enable-background="new 0 0 24 24" xml:space="preserve">
<g id="Filled_Icons_1_">
	<g id="Filled_Icons">
		<g>
			<path d="M15.002,19.469L13.986,18H2V2h13v10.44L15,12.439c0.745,0,1.433,0.294,1.999,0.963V2c0-1.102-0.897-2-2-2H2
				c-1.104,0-2,0.898-2,2v18c0,1.102,0.897,1.996,1.998,2h13.668C14.987,20.756,15.002,20.331,15.002,19.469z M4.999,20
				c-0.277,0-0.5-0.225-0.5-0.5c0-0.276,0.223-0.5,0.5-0.5c0.275,0,0.5,0.224,0.5,0.5C5.499,19.775,5.275,20,4.999,20z M9.5,20h-3
				v-1h3V20z M11,20c-0.277,0-0.5-0.225-0.5-0.5c0-0.276,0.223-0.5,0.5-0.5c0.275,0,0.5,0.224,0.5,0.5C11.5,19.775,11.275,20,11,20z
				"/>
			<path d="M21.002,19.333L21,12.5c0.003-1.861-0.166-2.606-2.176-4.322l-0.002-0.001C18.496,7.902,18,8.135,18,8.559v7.576
				l-1.893-2.239c-0.607-0.602-1.642-0.566-2.208,0c-0.528,0.528-0.519,1.644-0.037,2.168l2.052,2.964
				c0.058,0.084,0.089,0.183,0.089,0.284c0,0.915-0.077,1.225,0.821,2.687h0.001c0.389,0.63,0.905,1.34,1.287,1.813
				C18.206,23.931,18.35,24,18.502,24h5c0.004,0,0.007,0,0.01,0c0.276,0,0.5-0.224,0.5-0.5
				C24.012,23.255,21.154,19.535,21.002,19.333z"/>
			<rect x="4.999" y="13" width="7" height="1"/>
			<rect x="4.999" y="11" width="7" height="1"/>
			<rect x="4.999" y="9" width="7" height="1"/>
			<rect x="4.999" y="7" width="7" height="1"/>
			<rect x="4.999" y="5" width="4" height="1"/>
		</g>
	</g>
	<g id="New_icons">
	</g>
</g>
<g id="Invisible_Shape">
	<rect fill="none" width="24" height="24"/>
</g>
</svg>
