<?xml version="1.0" encoding="utf-8"?>
<!-- Generator: Adobe Illustrator 19.2.1, SVG Export Plug-In . SVG Version: 6.00 Build 0)  -->
<svg version="1.1" xmlns="http://www.w3.org/2000/svg" xmlns:xlink="http://www.w3.org/1999/xlink" x="0px" y="0px" width="24px"
	 height="24px" viewBox="0 0 24 24" enable-background="new 0 0 24 24" xml:space="preserve">
<g id="Filled_Icons_1_">
	<g id="Filled_Icons">
		<g>
			<path d="M19,18h-14v-2H2v5.5c0,1.378,1.121,2.5,2.5,2.5h15c1.378,0,2.5-1.122,2.5-2.5V16h-3V18z M6.499,21
				c-0.276,0-0.5-0.225-0.5-0.5c0-0.276,0.224-0.5,0.5-0.5c0.275,0,0.5,0.224,0.5,0.5C6.999,20.775,6.775,21,6.499,21z M8.5,21
				c-0.276,0-0.5-0.225-0.5-0.5c0-0.276,0.224-0.5,0.5-0.5C8.775,20,9,20.224,9,20.5C9,20.775,8.775,21,8.5,21z M14,21
				c0,0.552-0.449,1-1,1h-2c-0.552,0-1-0.448-1-1v-1c0-0.552,0.448-1,1-1h2c0.551,0,1,0.448,1,1V21z M15.5,21
				c-0.276,0-0.5-0.225-0.5-0.5c0-0.276,0.224-0.5,0.5-0.5c0.275,0,0.5,0.224,0.5,0.5C16,20.775,15.775,21,15.5,21z M17.5,21
				c-0.276,0-0.5-0.225-0.5-0.5c0-0.276,0.224-0.5,0.5-0.5c0.275,0,0.5,0.224,0.5,0.5C18,20.775,17.775,21,17.5,21z"/>
			<rect x="2" y="13" width="3" height="2"/>
			<path d="M19.5,0h-15C3.121,0,2,1.122,2,2.5V9h3V2h14v7h3V2.5C22,1.122,20.877,0,19.5,0z"/>
			<rect x="19" y="10" width="3" height="2"/>
			<rect x="19" y="13" width="3" height="2"/>
			<rect x="2" y="10" width="3" height="2"/>
			<path d="M7.999,14h8c0.275,0,0.5-0.224,0.5-0.5c0-0.276-0.225-0.5-0.5-0.5h-8c-0.276,0-0.5,0.224-0.5,0.5
				C7.499,13.776,7.723,14,7.999,14z"/>
			<path d="M7.999,12h8c0.275,0,0.5-0.224,0.5-0.5c0-0.276-0.225-0.5-0.5-0.5h-8c-0.276,0-0.5,0.224-0.5,0.5
				C7.499,11.776,7.723,12,7.999,12z"/>
			<path d="M7.999,10h8c0.275,0,0.5-0.224,0.5-0.5C16.5,9.224,16.275,9,16,9h-8c-0.276,0-0.5,0.224-0.5,0.5
				C7.499,9.776,7.723,10,7.999,10z"/>
			<path d="M7.999,8h8c0.275,0,0.5-0.224,0.5-0.5C16.5,7.224,16.275,7,16,7h-8c-0.276,0-0.5,0.224-0.5,0.5
				C7.499,7.776,7.723,8,7.999,8z"/>
			<path d="M7.999,6h5c0.275,0,0.5-0.224,0.5-0.5C13.5,5.224,13.275,5,13,5h-5c-0.276,0-0.5,0.224-0.5,0.5
				C7.499,5.776,7.723,6,7.999,6z"/>
		</g>
	</g>
	<g id="New_icons">
	</g>
</g>
<g id="Invisible_Shape">
	<rect fill="none" width="24" height="24"/>
</g>
</svg>
