<?xml version="1.0" encoding="utf-8"?>
<!-- Generator: Adobe Illustrator 19.2.1, SVG Export Plug-In . SVG Version: 6.00 Build 0)  -->
<svg version="1.1" xmlns="http://www.w3.org/2000/svg" xmlns:xlink="http://www.w3.org/1999/xlink" x="0px" y="0px" width="24px"
	 height="24px" viewBox="0 0 24 24" enable-background="new 0 0 24 24" xml:space="preserve">
<g id="Filled_Icons_1_">
	<g id="Filled_Icons">
		<g>
			<g>
				<rect x="3" y="5" width="2" height="1"/>
				<rect x="3" y="7" width="2" height="1"/>
				<rect x="3" y="9" width="2" height="1"/>
				<rect x="3" y="11" width="2" height="1"/>
				<rect x="9" y="7" width="2" height="1"/>
				<rect x="9" y="9" width="2" height="1"/>
				<rect x="9" y="11" width="2" height="1"/>
				<rect x="5.999" y="9" width="2" height="1"/>
				<rect x="5.999" y="11" width="2" height="1"/>
				<polygon points="6.499,20 7.999,19 6.499,18 				"/>
				<path d="M22.5,6C21.672,6,21,6.673,21,7.5v3c0,0.651,0.419,1.201,1,1.408V19c0,1.103-0.897,2-2,2c-1.104,0-2-0.897-2-2V5
					c0-1.102-0.897-2-2-2h-2V2c0-1.102-0.897-2-2-2H2c-1.104,0-2,0.898-2,2v20c0,1.103,0.897,2,2,2h10c1.103,0,2-0.897,2-2V4h2
					c0.551,0,1,0.448,1,1v14c0,1.654,1.346,3,3,3c1.654,0,3-1.346,3-3v-7.092c0.581-0.207,1-0.757,1-1.408v-3
					C24,6.673,23.327,6,22.5,6z M6.999,22c-1.654,0-3-1.346-3-3c0-1.654,1.346-3,3-3s3,1.346,3,3C10,20.654,8.654,22,6.999,22z
					 M13,14h-12V2c0-0.552,0.448-1,1-1h10c0.551,0,1,0.448,1,1V14z"/>
			</g>
			<path d="M20,7.529C19.005,7.648,18.5,8.14,18.5,9c0,0.86,0.506,1.353,1.5,1.471V7.529z"/>
		</g>
	</g>
	<g id="New_icons">
	</g>
</g>
<g id="Invisible_Shape">
	<rect fill="none" width="24" height="24"/>
</g>
</svg>
