<?xml version="1.0" encoding="utf-8"?>
<!-- Generator: Adobe Illustrator 19.2.1, SVG Export Plug-In . SVG Version: 6.00 Build 0)  -->
<svg version="1.1" xmlns="http://www.w3.org/2000/svg" xmlns:xlink="http://www.w3.org/1999/xlink" x="0px" y="0px" width="24px"
	 height="24px" viewBox="0 0 24 24" enable-background="new 0 0 24 24" xml:space="preserve">
<g id="Filled_Icons_1_">
	<g id="Filled_Icons">
		<g>
			<path d="M22,0H2c-1.104,0-2,0.898-2,2v13c0,1.103,0.897,2,2,2h8v-2H2V2h20v13h-3v2h3c1.103,0,2-0.897,2-2V2
				C24,0.898,23.102,0,22,0z"/>
			<path d="M11,23h7V12h-7V23z M15.5,14.5c0.275,0,0.5,0.224,0.5,0.5c0,0.275-0.225,0.5-0.5,0.5c-0.276,0-0.5-0.225-0.5-0.5
				C15,14.724,15.223,14.5,15.5,14.5z M15.5,16.5c0.275,0,0.5,0.224,0.5,0.5c0,0.275-0.225,0.5-0.5,0.5c-0.276,0-0.5-0.225-0.5-0.5
				C15,16.724,15.223,16.5,15.5,16.5z M15.5,18.5c0.275,0,0.5,0.224,0.5,0.5c0,0.275-0.225,0.5-0.5,0.5c-0.276,0-0.5-0.225-0.5-0.5
				C15,18.724,15.223,18.5,15.5,18.5z M13.5,14.5c0.275,0,0.5,0.224,0.5,0.5c0,0.275-0.225,0.5-0.5,0.5c-0.276,0-0.5-0.225-0.5-0.5
				C13,14.724,13.223,14.5,13.5,14.5z M13.5,16.5c0.275,0,0.5,0.224,0.5,0.5c0,0.275-0.225,0.5-0.5,0.5c-0.276,0-0.5-0.225-0.5-0.5
				C13,16.724,13.223,16.5,13.5,16.5z M13.5,18.5c0.275,0,0.5,0.224,0.5,0.5c0,0.275-0.225,0.5-0.5,0.5c-0.276,0-0.5-0.225-0.5-0.5
				C13,18.724,13.223,18.5,13.5,18.5z"/>
			<path d="M18.154,6.537c-2.147-1.319-4.85-1.377-7.053-0.152c-0.242,0.135-0.328,0.438-0.194,0.681
				c0.134,0.24,0.438,0.327,0.681,0.193c1.887-1.05,4.203-1,6.043,0.13c0.237,0.145,0.543,0.069,0.688-0.164
				C18.462,6.989,18.389,6.681,18.154,6.537z"/>
			<path d="M17.275,8.928c0.144-0.235,0.07-0.543-0.165-0.688c-1.534-0.94-3.465-0.983-5.038-0.108
				c-0.241,0.134-0.328,0.439-0.194,0.68c0.135,0.241,0.439,0.328,0.68,0.194c1.259-0.699,2.802-0.666,4.03,0.087
				C16.826,9.237,17.133,9.16,17.275,8.928z"/>
			<path d="M13.047,9.887c-0.241,0.134-0.328,0.439-0.194,0.681c0.134,0.241,0.439,0.327,0.68,0.194
				c0.629-0.35,1.399-0.335,2.008,0.039c0.238,0.145,0.545,0.068,0.688-0.166c0.145-0.234,0.07-0.543-0.165-0.688
				C15.147,9.386,13.991,9.362,13.047,9.887z"/>
		</g>
	</g>
	<g id="New_icons">
	</g>
</g>
<g id="Invisible_Shape">
	<rect fill="none" width="24" height="24"/>
</g>
</svg>
