<?xml version="1.0" encoding="utf-8"?>
<!-- Generator: Adobe Illustrator 19.2.1, SVG Export Plug-In . SVG Version: 6.00 Build 0)  -->
<svg version="1.1" xmlns="http://www.w3.org/2000/svg" xmlns:xlink="http://www.w3.org/1999/xlink" x="0px" y="0px" width="24px"
	 height="24px" viewBox="0 0 24 24" enable-background="new 0 0 24 24" xml:space="preserve">
<g id="Filled_Icons_1_">
	<g id="Filled_Icons">
	</g>
	<g id="New_icons">
		<g>
			<g>
				<path d="M11,3.5c1.445,0,2.807,0.365,4,1.004V0.5C15,0.224,14.776,0,14.5,0h-7C7.224,0,7,0.224,7,0.5v4.004
					C8.193,3.865,9.555,3.5,11,3.5z"/>
				<path d="M11,20.5c-1.445,0-2.807-0.365-4-1.004V23.5C7,23.776,7.224,24,7.5,24h7c0.276,0,0.5-0.224,0.5-0.5v-4.004
					C13.807,20.135,12.445,20.5,11,20.5z"/>
			</g>
			<path d="M11,4.5c-4.136,0-7.5,3.364-7.5,7.5c0,4.136,3.364,7.5,7.5,7.5s7.5-3.364,7.5-7.5C18.5,7.864,15.136,4.5,11,4.5z
				 M12.5,16h-3C9.224,16,9,15.776,9,15.5C9,15.224,9.224,15,9.5,15h3c0.276,0,0.5,0.224,0.5,0.5C13,15.776,12.776,16,12.5,16z
				 M15.5,14H7c-0.276,0-0.5-0.224-0.5-0.5C6.5,13.224,6.724,13,7,13c0.425,0,0.959-0.304,1.001-0.453L8,10.5c0-1.654,1.346-3,3-3
				s3,1.346,3,3v2.119C14.115,12.725,15.011,13,15.5,13c0.276,0,0.5,0.224,0.5,0.5C16,13.776,15.776,14,15.5,14z"/>
		</g>
	</g>
</g>
<g id="Invisible_Shape">
	<rect fill="none" width="24" height="24"/>
</g>
</svg>
