<?xml version="1.0" encoding="utf-8"?>
<!-- Generator: Adobe Illustrator 19.2.1, SVG Export Plug-In . SVG Version: 6.00 Build 0)  -->
<svg version="1.1" xmlns="http://www.w3.org/2000/svg" xmlns:xlink="http://www.w3.org/1999/xlink" x="0px" y="0px" width="24px"
	 height="24px" viewBox="0 0 24 24" enable-background="new 0 0 24 24" xml:space="preserve">
<g id="Filled_Icons_1_">
	<g id="Filled_Icons">
		<g>
			<path d="M3,20v1.5c0,1.379,1.122,2.5,2.5,2.5h11c1.378,0,2.5-1.121,2.5-2.5V20H3z M11,22.5c-0.551,0-1-0.448-1-1
				c0-0.552,0.449-1,1-1s1,0.448,1,1C12,22.052,11.551,22.5,11,22.5z"/>
			<path d="M18.644,1.234C18.208,0.499,17.415,0,16.5,0h-11C4.121,0,3,1.121,3,2.5V4h12.879L18.644,1.234z M13.5,3h-5
				c-0.276,0-0.5-0.224-0.5-0.5c0-0.276,0.224-0.5,0.5-0.5h5C13.776,2,14,2.224,14,2.5C14,2.776,13.776,3,13.5,3z"/>
			<path d="M13.06,15.061c-0.164,0.164-0.366,0.289-0.586,0.363l-3,1c-0.539,0.179-1.133,0.039-1.535-0.363
				c-0.402-0.401-0.542-0.996-0.362-1.535l1-3c0.073-0.221,0.198-0.422,0.362-0.586L14.878,5l0,0H3v14h16V9.121L13.06,15.061z"/>
			<g>
				<path d="M9.428,12.135l-0.902,2.707c-0.06,0.18-0.013,0.378,0.121,0.512c0.134,0.134,0.332,0.181,0.512,0.121l2.707-0.902
					L9.428,12.135z"/>
				<path d="M22.353,1.647c-0.747-0.746-1.961-0.745-2.707,0L10,11.293L12.707,14l9.647-9.646C23.1,3.607,23.1,2.393,22.353,1.647z"
					/>
			</g>
		</g>
	</g>
	<g id="New_icons">
	</g>
</g>
<g id="Invisible_Shape">
	<rect fill="none" width="24" height="24"/>
</g>
</svg>
