<?xml version="1.0" encoding="utf-8"?>
<!-- Generator: Adobe Illustrator 19.2.1, SVG Export Plug-In . SVG Version: 6.00 Build 0)  -->
<svg version="1.1" xmlns="http://www.w3.org/2000/svg" xmlns:xlink="http://www.w3.org/1999/xlink" x="0px" y="0px" width="24px"
	 height="24px" viewBox="0 0 24 24" enable-background="new 0 0 24 24" xml:space="preserve">
<g id="Filled_Icons_1_">
	<g id="Filled_Icons">
	</g>
	<g id="New_icons">
		<g>
			<path d="M11,3.5c1.445,0,2.807,0.365,4,1.004V0.5C15,0.224,14.776,0,14.5,0h-7C7.224,0,7,0.224,7,0.5v4.004
				C8.193,3.865,9.555,3.5,11,3.5z"/>
			<path d="M11,20.5c-1.445,0-2.807-0.365-4-1.004V23.5C7,23.776,7.224,24,7.5,24h7c0.276,0,0.5-0.224,0.5-0.5v-4.004
				C13.807,20.135,12.445,20.5,11,20.5z"/>
			<path d="M11,4.5c-4.136,0-7.5,3.364-7.5,7.5s3.364,7.5,7.5,7.5s7.5-3.364,7.5-7.5S15.136,4.5,11,4.5z M15,13.5
				c0,0.276-0.224,0.5-0.5,0.5h-1v1.5c0,0.418-0.485,0.651-0.812,0.391L10.325,14H7.5C7.224,14,7,13.776,7,13.5v-5
				C7,8.224,7.224,8,7.5,8h7C14.776,8,15,8.224,15,8.5V13.5z"/>
		</g>
	</g>
</g>
<g id="Invisible_Shape">
	<rect fill="none" width="24" height="24"/>
</g>
</svg>
