<?xml version="1.0" encoding="utf-8"?>
<!-- Generator: Adobe Illustrator 19.2.1, SVG Export Plug-In . SVG Version: 6.00 Build 0)  -->
<svg version="1.1" xmlns="http://www.w3.org/2000/svg" xmlns:xlink="http://www.w3.org/1999/xlink" x="0px" y="0px" width="24px"
	 height="24px" viewBox="0 0 24 24" enable-background="new 0 0 24 24" xml:space="preserve">
<g id="Filled_Icons_1_">
	<g id="Filled_Icons">
	</g>
	<g id="New_icons">
		<g>
			<path d="M12,3.5c1.445,0,2.807,0.365,4,1.004V0.5C16,0.224,15.776,0,15.5,0h-7C8.224,0,8,0.224,8,0.5v4.004
				C9.193,3.865,10.555,3.5,12,3.5z"/>
			<path d="M12,20.5c-1.445,0-2.807-0.365-4-1.004V23.5C8,23.776,8.224,24,8.5,24h7c0.276,0,0.5-0.224,0.5-0.5v-4.004
				C14.807,20.135,13.445,20.5,12,20.5z"/>
			<g>
				<path d="M12,4.5c-4.136,0-7.5,3.364-7.5,7.5c0,4.136,3.364,7.5,7.5,7.5s7.5-3.364,7.5-7.5C19.5,7.864,16.136,4.5,12,4.5z M9,11
					c-0.827,0-1.5-0.673-1.5-1.5C7.5,8.673,8.173,8,9,8s1.5,0.673,1.5,1.5C10.5,10.327,9.827,11,9,11z M13.5,15h2
					c0.276,0,0.5,0.224,0.5,0.5c0,0.276-0.224,0.5-0.5,0.5h-2c-1.378,0-2.5-1.121-2.5-2.5v-1c0-1.379,1.122-2.5,2.5-2.5h2
					c0.276,0,0.5,0.224,0.5,0.5c0,0.276-0.224,0.5-0.5,0.5h-2c-0.827,0-1.5,0.673-1.5,1.5v1C12,14.327,12.673,15,13.5,15z"/>
				<circle cx="9" cy="9.5" r="0.5"/>
			</g>
		</g>
	</g>
</g>
<g id="Invisible_Shape">
	<rect fill="none" width="24" height="24"/>
</g>
</svg>
