<?xml version="1.0" encoding="utf-8"?>
<!-- Generator: Adobe Illustrator 19.2.1, SVG Export Plug-In . SVG Version: 6.00 Build 0)  -->
<svg version="1.1" xmlns="http://www.w3.org/2000/svg" xmlns:xlink="http://www.w3.org/1999/xlink" x="0px" y="0px" width="24px"
	 height="24px" viewBox="0 0 24 24" enable-background="new 0 0 24 24" xml:space="preserve">
<g id="Filled_Icons_1_">
	<g id="Filled_Icons">
		<path d="M16.5,0h-9C6.121,0,5,1.122,5,2.5v19C5,22.878,6.121,24,7.5,24h9c1.378,0,2.5-1.122,2.5-2.5v-19C19,1.122,17.878,0,16.5,0
			z M9.5,2h5C14.776,2,15,2.224,15,2.5C15,2.776,14.776,3,14.5,3h-5C9.224,3,9,2.776,9,2.5C9,2.224,9.224,2,9.5,2z M12,22.5
			c-0.552,0-1-0.448-1-1c0-0.553,0.448-1,1-1c0.553,0,1,0.447,1,1C13,22.052,12.553,22.5,12,22.5z M18,19H6V5h12V19z"/>
	</g>
	<g id="New_icons">
	</g>
</g>
<g id="Invisible_Shape">
	<rect fill="none" width="24" height="24"/>
</g>
</svg>
