<?xml version="1.0" encoding="utf-8"?>
<!-- Generator: Adobe Illustrator 19.2.1, SVG Export Plug-In . SVG Version: 6.00 Build 0)  -->
<svg version="1.1" xmlns="http://www.w3.org/2000/svg" xmlns:xlink="http://www.w3.org/1999/xlink" x="0px" y="0px" width="24px"
	 height="24px" viewBox="0 0 24 24" enable-background="new 0 0 24 24" xml:space="preserve">
<g id="Filled_Icons_1_">
	<g id="Filled_Icons">
	</g>
	<g id="New_icons">
		<g>
			<g>
				<path d="M17.5,20h-11c-0.01,0-0.019-0.003-0.028-0.003L6.807,21h10.387l0.334-1.003C17.519,19.997,17.51,20,17.5,20z"/>
				<path d="M7,22v1.5C7,23.776,7.224,24,7.5,24h9c0.276,0,0.5-0.224,0.5-0.5V22H7z"/>
			</g>
			<g>
				<path d="M17,2V0.5C17,0.224,16.776,0,16.5,0h-9C7.224,0,7,0.224,7,0.5V2H17z"/>
				<path d="M6.807,3L6.472,4.003C6.481,4.003,6.49,4,6.5,4h11c0.01,0,0.019,0.003,0.028,0.003L17.193,3H6.807z"/>
			</g>
			<path d="M17.5,5h-11C5.122,5,4,6.121,4,7.5v9C4,17.879,5.122,19,6.5,19h11c1.378,0,2.5-1.121,2.5-2.5v-9
				C20,6.121,18.878,5,17.5,5z M16.352,12.856l-4.042,4c-0.194,0.193-0.51,0.193-0.705-0.002l-4-4C7.291,12.541,7.513,12,7.958,12
				H10V7.5C10,7.224,10.224,7,10.5,7h3C13.776,7,14,7.224,14,7.5V12h2C16.446,12,16.669,12.542,16.352,12.856z"/>
		</g>
	</g>
</g>
<g id="Invisible_Shape">
	<rect fill="none" width="24" height="24"/>
</g>
</svg>
