<?xml version="1.0" encoding="utf-8"?>
<!-- Generator: Adobe Illustrator 19.2.1, SVG Export Plug-In . SVG Version: 6.00 Build 0)  -->
<svg version="1.1" xmlns="http://www.w3.org/2000/svg" xmlns:xlink="http://www.w3.org/1999/xlink" x="0px" y="0px" width="24px"
	 height="24px" viewBox="0 0 24 24" enable-background="new 0 0 24 24" xml:space="preserve">
<g id="Filled_Icons_1_">
	<g id="Filled_Icons">
	</g>
	<g id="New_icons">
		<g>
			<g>
				<path d="M12,20.5c-1.445,0-2.807-0.365-4-1.004V23.5C8,23.776,8.224,24,8.5,24h7c0.276,0,0.5-0.224,0.5-0.5v-4.004
					C14.807,20.135,13.445,20.5,12,20.5z"/>
				<path d="M12,3.5c1.445,0,2.807,0.365,4,1.004V0.5C16,0.224,15.776,0,15.5,0h-7C8.224,0,8,0.224,8,0.5v4.004
					C9.193,3.865,10.555,3.5,12,3.5z"/>
			</g>
			<path d="M12,4.5c-4.136,0-7.5,3.364-7.5,7.5c0,4.136,3.364,7.5,7.5,7.5s7.5-3.364,7.5-7.5C19.5,7.864,16.136,4.5,12,4.5z
				 M11.812,10.891c-0.218,0.173-0.53,0.137-0.703-0.078L10,9.426V15c0,0.276-0.224,0.5-0.5,0.5S9,15.276,9,15V9.426l-1.109,1.387
				c-0.172,0.215-0.486,0.251-0.703,0.078c-0.215-0.173-0.251-0.487-0.078-0.703l2-2.5c0.19-0.236,0.591-0.236,0.781,0l2,2.5
				C12.063,10.403,12.028,10.718,11.812,10.891z M16.891,13.313l-2,2.5c-0.201,0.25-0.58,0.25-0.781,0l-2-2.5
				c-0.172-0.216-0.137-0.53,0.078-0.703c0.216-0.172,0.531-0.137,0.703,0.078L14,14.074V9c0-0.276,0.224-0.5,0.5-0.5S15,8.724,15,9
				v5.074l1.109-1.387c0.173-0.214,0.488-0.249,0.703-0.078C17.028,12.782,17.063,13.097,16.891,13.313z"/>
		</g>
	</g>
</g>
<g id="Invisible_Shape">
	<rect fill="none" width="24" height="24"/>
</g>
</svg>
