<?xml version="1.0" encoding="utf-8"?>
<!-- Generator: Adobe Illustrator 19.2.1, SVG Export Plug-In . SVG Version: 6.00 Build 0)  -->
<svg version="1.1" xmlns="http://www.w3.org/2000/svg" xmlns:xlink="http://www.w3.org/1999/xlink" x="0px" y="0px" width="24px"
	 height="24px" viewBox="0 0 24 24" enable-background="new 0 0 24 24" xml:space="preserve">
<g id="Filled_Icons_1_">
	<g id="Filled_Icons">
	</g>
	<g id="New_icons">
		<g>
			<g>
				<path d="M12,3.5c1.445,0,2.807,0.365,4,1.004V0.5C16,0.224,15.776,0,15.5,0h-7C8.224,0,8,0.224,8,0.5v4.004
					C9.193,3.865,10.555,3.5,12,3.5z"/>
				<path d="M12,20.5c-1.445,0-2.807-0.365-4-1.004V23.5C8,23.776,8.224,24,8.5,24h7c0.276,0,0.5-0.224,0.5-0.5v-4.004
					C14.807,20.135,13.445,20.5,12,20.5z"/>
			</g>
			<path d="M12,4.5c-4.136,0-7.5,3.364-7.5,7.5c0,4.136,3.364,7.5,7.5,7.5s7.5-3.364,7.5-7.5C19.5,7.864,16.136,4.5,12,4.5z M10,9.5
				c0-1.102,0.897-2,2-2s2,0.898,2,2V11c0,1.103-0.897,2-2,2s-2-0.897-2-2V9.5z M12.5,14.949V16.5c0,0.276-0.224,0.5-0.5,0.5
				s-0.5-0.224-0.5-0.5v-1.551C9.532,14.7,8,13.035,8,11c0-0.276,0.224-0.5,0.5-0.5S9,10.724,9,11c0,1.654,1.346,3,3,3s3-1.346,3-3
				c0-0.276,0.224-0.5,0.5-0.5S16,10.724,16,11C16,13.035,14.468,14.7,12.5,14.949z"/>
		</g>
	</g>
</g>
<g id="Invisible_Shape">
	<rect fill="none" width="24" height="24"/>
</g>
</svg>
