<?xml version="1.0" encoding="utf-8"?>
<!-- Generator: Adobe Illustrator 19.2.1, SVG Export Plug-In . SVG Version: 6.00 Build 0)  -->
<svg version="1.1" xmlns="http://www.w3.org/2000/svg" xmlns:xlink="http://www.w3.org/1999/xlink" x="0px" y="0px" width="24px"
	 height="24px" viewBox="0 0 24 24" enable-background="new 0 0 24 24" xml:space="preserve">
<g id="Filled_Icons_1_">
	<g id="Filled_Icons">
	</g>
	<g id="New_icons">
		<g>
			<path d="M11,3.5c1.445,0,2.807,0.365,4,1.004V0.5C15,0.224,14.776,0,14.5,0h-7C7.224,0,7,0.224,7,0.5v4.004
				C8.193,3.865,9.555,3.5,11,3.5z"/>
			<path d="M11,20.5c-1.445,0-2.807-0.365-4-1.004V23.5C7,23.776,7.224,24,7.5,24h7c0.276,0,0.5-0.224,0.5-0.5v-4.004
				C13.807,20.135,12.445,20.5,11,20.5z"/>
			<path d="M11,4.5c-4.136,0-7.5,3.364-7.5,7.5s3.364,7.5,7.5,7.5s7.5-3.364,7.5-7.5S15.136,4.5,11,4.5z M10.987,17
				c-0.827,0-1.5-0.673-1.5-1.5c0-0.827,0.673-1.5,1.5-1.5c0.827,0,1.5,0.673,1.5,1.5C12.487,16.327,11.814,17,10.987,17z
				 M13.434,13.189c-0.122,0.248-0.423,0.349-0.67,0.226c-1.111-0.552-2.449-0.551-3.554,0.001
				c-0.071,0.036-0.148,0.053-0.223,0.053c-0.184,0-0.36-0.102-0.448-0.276c-0.123-0.247-0.023-0.548,0.224-0.671
				c1.384-0.69,3.054-0.691,4.444-0.003C13.456,12.642,13.557,12.941,13.434,13.189z M14.435,11.466
				c-0.128,0.245-0.432,0.338-0.675,0.212c-1.722-0.899-3.821-0.901-5.548,0.002c-0.074,0.038-0.153,0.057-0.231,0.057
				c-0.18,0-0.354-0.098-0.444-0.269c-0.127-0.245-0.033-0.547,0.212-0.675c1.988-1.038,4.491-1.036,6.474-0.002
				C14.468,10.919,14.562,11.221,14.435,11.466z M15.441,9.742c-0.09,0.168-0.263,0.264-0.441,0.264c-0.08,0-0.161-0.019-0.236-0.06
				C12.461,8.713,9.539,8.71,7.235,9.934C6.99,10.062,6.688,9.971,6.559,9.727c-0.13-0.243-0.037-0.546,0.207-0.676
				c2.592-1.379,5.879-1.375,8.471,0.015C15.479,9.195,15.571,9.499,15.441,9.742z"/>
		</g>
	</g>
</g>
<g id="Invisible_Shape">
	<rect fill="none" width="24" height="24"/>
</g>
</svg>
