<?xml version="1.0" encoding="utf-8"?>
<!-- Generator: Adobe Illustrator 19.2.1, SVG Export Plug-In . SVG Version: 6.00 Build 0)  -->
<svg version="1.1" xmlns="http://www.w3.org/2000/svg" xmlns:xlink="http://www.w3.org/1999/xlink" x="0px" y="0px" width="24px"
	 height="24px" viewBox="0 0 24 24" enable-background="new 0 0 24 24" xml:space="preserve">
<g id="Filled_Icons_1_">
	<g id="Filled_Icons">
	</g>
	<g id="New_icons">
		<g>
			<g>
				<path d="M12,3.5c1.445,0,2.807,0.365,4,1.004V0.5C16,0.224,15.776,0,15.5,0h-7C8.224,0,8,0.224,8,0.5v4.004
					C9.193,3.865,10.555,3.5,12,3.5z"/>
				<path d="M12,20.5c-1.445,0-2.807-0.365-4-1.004V23.5C8,23.776,8.224,24,8.5,24h7c0.276,0,0.5-0.224,0.5-0.5v-4.004
					C14.807,20.135,13.445,20.5,12,20.5z"/>
			</g>
			<g>
				<circle cx="12" cy="10.5" r="1"/>
				<path d="M12,4.5c-4.136,0-7.5,3.364-7.5,7.5c0,4.136,3.364,7.5,7.5,7.5s7.5-3.364,7.5-7.5C19.5,7.864,16.136,4.5,12,4.5z
					 M12.411,16.784C12.318,16.919,12.164,17,12,17s-0.318-0.081-0.411-0.216C11.273,16.327,8.5,12.264,8.5,10.5
					C8.5,8.57,10.07,7,12,7s3.5,1.57,3.5,3.5C15.5,12.264,12.727,16.327,12.411,16.784z"/>
			</g>
		</g>
	</g>
</g>
<g id="Invisible_Shape">
	<rect fill="none" width="24" height="24"/>
</g>
</svg>
