<?xml version="1.0" encoding="utf-8"?>
<!-- Generator: Adobe Illustrator 19.2.1, SVG Export Plug-In . SVG Version: 6.00 Build 0)  -->
<svg version="1.1" xmlns="http://www.w3.org/2000/svg" xmlns:xlink="http://www.w3.org/1999/xlink" x="0px" y="0px" width="24px"
	 height="24px" viewBox="0 0 24 24" enable-background="new 0 0 24 24" xml:space="preserve">
<g id="Filled_Icons_1_">
	<g id="Filled_Icons">
	</g>
	<g id="New_icons">
		<g>
			<path d="M17.5,20h-11c-0.01,0-0.019-0.003-0.028-0.003L6.807,21h10.387l0.334-1.003C17.519,19.997,17.51,20,17.5,20z"/>
			<path d="M7,22v1.5C7,23.776,7.224,24,7.5,24h9c0.276,0,0.5-0.224,0.5-0.5V22H7z"/>
			<path d="M17,2V0.5C17,0.224,16.776,0,16.5,0h-9C7.224,0,7,0.224,7,0.5V2H17z"/>
			<path d="M6.807,3L6.472,4.003C6.481,4.003,6.49,4,6.5,4h11c0.01,0,0.019,0.003,0.028,0.003L17.193,3H6.807z"/>
			<g>
				<circle cx="9" cy="9.5" r="0.5"/>
				<path d="M17.5,5h-11C5.122,5,4,6.121,4,7.5v9C4,17.879,5.122,19,6.5,19h11c1.378,0,2.5-1.121,2.5-2.5v-9
					C20,6.121,18.878,5,17.5,5z M9,11c-0.827,0-1.5-0.673-1.5-1.5S8.173,8,9,8s1.5,0.673,1.5,1.5S9.827,11,9,11z M13.5,15h2
					c0.276,0,0.5,0.224,0.5,0.5S15.776,16,15.5,16h-2c-1.378,0-2.5-1.121-2.5-2.5v-1c0-1.379,1.122-2.5,2.5-2.5h2
					c0.276,0,0.5,0.224,0.5,0.5S15.776,11,15.5,11h-2c-0.827,0-1.5,0.673-1.5,1.5v1C12,14.327,12.673,15,13.5,15z"/>
			</g>
		</g>
	</g>
</g>
<g id="Invisible_Shape">
	<rect fill="none" width="24" height="24"/>
</g>
</svg>
