<?xml version="1.0" encoding="utf-8"?>
<!-- Generator: Adobe Illustrator 19.2.1, SVG Export Plug-In . SVG Version: 6.00 Build 0)  -->
<svg version="1.1" xmlns="http://www.w3.org/2000/svg" xmlns:xlink="http://www.w3.org/1999/xlink" x="0px" y="0px" width="24px"
	 height="24px" viewBox="0 0 24 24" enable-background="new 0 0 24 24" xml:space="preserve">
<g id="Filled_Icons_1_">
	<g id="Filled_Icons">
	</g>
	<g id="New_icons">
		<g>
			<path d="M17.5,20h-11c-0.01,0-0.019-0.003-0.028-0.003L6.807,21h10.387l0.334-1.003C17.519,19.997,17.51,20,17.5,20z"/>
			<path d="M7,22v1.5C7,23.776,7.224,24,7.5,24h9c0.276,0,0.5-0.224,0.5-0.5V22H7z"/>
			<path d="M17,2V0.5C17,0.224,16.776,0,16.5,0h-9C7.224,0,7,0.224,7,0.5V2H17z"/>
			<path d="M6.807,3L6.472,4.003C6.481,4.003,6.49,4,6.5,4h11c0.01,0,0.019,0.003,0.028,0.003L17.193,3H6.807z"/>
			<path d="M17.5,5h-11C5.122,5,4,6.121,4,7.5v9C4,17.879,5.122,19,6.5,19h11c1.378,0,2.5-1.121,2.5-2.5v-9
				C20,6.121,18.878,5,17.5,5z M14.045,10.337l0.625-1.363c0.115-0.25,0.41-0.36,0.663-0.246c0.251,0.114,0.361,0.411,0.246,0.662
				l-0.625,1.363c-0.114,0.25-0.411,0.362-0.663,0.246C14.04,10.885,13.93,10.588,14.045,10.337z M11.5,8.5
				C11.5,8.224,11.724,8,12,8s0.5,0.224,0.5,0.5V10c0,0.276-0.224,0.5-0.5,0.5s-0.5-0.224-0.5-0.5V8.5z M8.667,8.728
				C8.92,8.613,9.215,8.724,9.33,8.974l0.625,1.363c0.115,0.251,0.005,0.548-0.246,0.662c-0.252,0.116-0.549,0.004-0.663-0.246
				L8.42,9.39C8.305,9.139,8.415,8.842,8.667,8.728z M17,14.5c0,0.771-0.729,1.5-1.5,1.5h-1c-0.675,0-1.5-0.692-1.5-1.5v-1.964
				c-0.661-0.046-1.384-0.044-2,0V14.5c0,0.771-0.729,1.5-1.5,1.5h-1C7.729,16,7,15.271,7,14.5v-1c0-2.695,10-2.698,10,0V14.5z"/>
		</g>
	</g>
</g>
<g id="Invisible_Shape">
	<rect fill="none" width="24" height="24"/>
</g>
</svg>
