<?xml version="1.0" encoding="utf-8"?>
<!-- Generator: Adobe Illustrator 19.2.1, SVG Export Plug-In . SVG Version: 6.00 Build 0)  -->
<svg version="1.1" xmlns="http://www.w3.org/2000/svg" xmlns:xlink="http://www.w3.org/1999/xlink" x="0px" y="0px" width="24px"
	 height="24px" viewBox="0 0 24 24" enable-background="new 0 0 24 24" xml:space="preserve">
<g id="Filled_Icons_1_">
	<g id="Filled_Icons">
	</g>
	<g id="New_icons">
		<g>
			<path d="M17.5,20h-11c-0.01,0-0.019-0.003-0.028-0.003L6.807,21h10.387l0.334-1.003C17.519,19.997,17.51,20,17.5,20z"/>
			<path d="M7,22v1.5C7,23.776,7.224,24,7.5,24h9c0.276,0,0.5-0.224,0.5-0.5V22H7z"/>
			<path d="M17,2V0.5C17,0.224,16.776,0,16.5,0h-9C7.224,0,7,0.224,7,0.5V2H17z"/>
			<path d="M6.807,3L6.472,4.003C6.481,4.003,6.49,4,6.5,4h11c0.01,0,0.019,0.003,0.028,0.003L17.193,3H6.807z"/>
			<g>
				<circle cx="11.999" cy="12" r="2.241"/>
				<path d="M17.5,5h-11C5.122,5,4,6.121,4,7.5v9C4,17.879,5.122,19,6.5,19h11c1.378,0,2.5-1.121,2.5-2.5v-9
					C20,6.121,18.878,5,17.5,5z M16.433,13.303l-1.088,1.884c-0.14,0.243-0.448,0.318-0.683,0.183l-0.5-0.289
					c-0.176,0.122-0.367,0.231-0.566,0.326v0.583c0,0.276-0.224,0.5-0.5,0.5h-2.175c-0.276,0-0.5-0.224-0.5-0.5v-0.583
					c-0.179-0.084-0.377-0.191-0.575-0.327L9.339,15.37c-0.239,0.137-0.545,0.056-0.682-0.184l-1.09-1.884
					c-0.139-0.237-0.057-0.545,0.183-0.684l0.501-0.288c-0.02-0.223-0.021-0.439,0-0.661l-0.5-0.29
					c-0.239-0.139-0.32-0.444-0.182-0.683l1.09-1.884c0.138-0.24,0.444-0.323,0.683-0.183l0.504,0.291
					c0.197-0.137,0.396-0.244,0.575-0.328V8.012c0-0.276,0.224-0.5,0.5-0.5h2.175c0.276,0,0.5,0.224,0.5,0.5v0.583
					c0.2,0.094,0.39,0.203,0.566,0.325l0.497-0.289c0.245-0.14,0.548-0.055,0.685,0.183l1.088,1.884
					c0.138,0.239,0.056,0.545-0.183,0.683l-0.501,0.29c0.021,0.223,0.021,0.439,0,0.661l0.501,0.288
					C16.492,12.759,16.569,13.066,16.433,13.303z"/>
			</g>
		</g>
	</g>
</g>
<g id="Invisible_Shape">
	<rect fill="none" width="24" height="24"/>
</g>
</svg>
