<?xml version="1.0" encoding="utf-8"?>
<!-- Generator: Adobe Illustrator 19.2.1, SVG Export Plug-In . SVG Version: 6.00 Build 0)  -->
<svg version="1.1" xmlns="http://www.w3.org/2000/svg" xmlns:xlink="http://www.w3.org/1999/xlink" x="0px" y="0px" width="24px"
	 height="24px" viewBox="0 0 24 24" enable-background="new 0 0 24 24" xml:space="preserve">
<g id="Filled_Icons_1_">
	<g id="Filled_Icons">
	</g>
	<g id="New_icons">
		<g>
			<g>
				<path d="M12,3.5c1.445,0,2.807,0.365,4,1.004V0.5C16,0.224,15.776,0,15.5,0h-7C8.224,0,8,0.224,8,0.5v4.004
					C9.193,3.865,10.555,3.5,12,3.5z"/>
				<path d="M12,20.5c-1.445,0-2.807-0.365-4-1.004V23.5C8,23.776,8.224,24,8.5,24h7c0.276,0,0.5-0.224,0.5-0.5v-4.004
					C14.807,20.135,13.445,20.5,12,20.5z"/>
			</g>
			<path d="M12,4.5c-4.136,0-7.5,3.364-7.5,7.5c0,4.136,3.364,7.5,7.5,7.5s7.5-3.364,7.5-7.5C19.5,7.864,16.136,4.5,12,4.5z
				 M15.074,16.055l-0.455,0.455c-0.558,0.559-1.443,0.65-2.107,0.212c-2.06-1.361-3.869-3.171-5.233-5.233
				c-0.436-0.66-0.348-1.546,0.211-2.106l0.455-0.456c0.501-0.501,1.315-0.5,1.816-0.001l0.831,0.833
				c0.5,0.498,0.502,1.311-0.001,1.814l-1.137,1.136c0.566,0.656,1.183,1.273,1.838,1.839l1.137-1.137
				c0.482-0.484,1.329-0.483,1.814-0.001l0.83,0.832C15.569,14.732,15.583,15.546,15.074,16.055z M15.854,8.854L13.707,11H14.5
				c0.276,0,0.5,0.224,0.5,0.5c0,0.276-0.224,0.5-0.5,0.5h-2c-0.276,0-0.5-0.224-0.5-0.5v-2C12,9.224,12.224,9,12.5,9
				S13,9.224,13,9.5v0.793l2.146-2.146c0.195-0.195,0.512-0.195,0.707,0C16.049,8.342,16.049,8.658,15.854,8.854z"/>
		</g>
	</g>
</g>
<g id="Invisible_Shape">
	<rect fill="none" width="24" height="24"/>
</g>
</svg>
