<?xml version="1.0" encoding="utf-8"?>
<!-- Generator: Adobe Illustrator 19.2.1, SVG Export Plug-In . SVG Version: 6.00 Build 0)  -->
<svg version="1.1" xmlns="http://www.w3.org/2000/svg" xmlns:xlink="http://www.w3.org/1999/xlink" x="0px" y="0px" width="24px"
	 height="24px" viewBox="0 0 24 24" enable-background="new 0 0 24 24" xml:space="preserve">
<g id="Filled_Icons_1_">
	<g id="Filled_Icons">
	</g>
	<g id="New_icons">
		<g>
			<g>
				<path d="M17.5,20h-11c-0.01,0-0.019-0.003-0.028-0.003L6.807,21h10.387l0.334-1.003C17.519,19.997,17.51,20,17.5,20z"/>
				<path d="M7,22v1.5C7,23.776,7.224,24,7.5,24h9c0.276,0,0.5-0.224,0.5-0.5V22H7z"/>
			</g>
			<g>
				<path d="M17,2V0.5C17,0.224,16.776,0,16.5,0h-9C7.224,0,7,0.224,7,0.5V2H17z"/>
				<path d="M6.807,3L6.472,4.003C6.481,4.003,6.49,4,6.5,4h11c0.01,0,0.019,0.003,0.028,0.003L17.193,3H6.807z"/>
			</g>
			<path d="M17.5,5h-11C5.122,5,4,6.121,4,7.5v9C4,17.879,5.122,19,6.5,19h11c1.378,0,2.5-1.121,2.5-2.5v-9
				C20,6.121,18.878,5,17.5,5z M12,11.5c1.103,0,2,0.898,2,2c0,0.929-0.64,1.705-1.5,1.929V16c0,0.276-0.224,0.5-0.5,0.5
				s-0.5-0.224-0.5-0.5v-0.571c-0.86-0.224-1.5-1-1.5-1.929c0-0.276,0.224-0.5,0.5-0.5s0.5,0.224,0.5,0.5c0,0.552,0.449,1,1,1
				s1-0.448,1-1s-0.449-1-1-1c-1.103,0-2-0.898-2-2c0-0.929,0.64-1.705,1.5-1.929V8c0-0.276,0.224-0.5,0.5-0.5s0.5,0.224,0.5,0.5
				v0.571c0.86,0.224,1.5,1,1.5,1.929c0,0.276-0.224,0.5-0.5,0.5S13,10.776,13,10.5c0-0.552-0.449-1-1-1s-1,0.448-1,1
				S11.449,11.5,12,11.5z"/>
		</g>
	</g>
</g>
<g id="Invisible_Shape">
	<rect fill="none" width="24" height="24"/>
</g>
</svg>
