<?xml version="1.0" encoding="utf-8"?>
<!-- Generator: Adobe Illustrator 19.2.1, SVG Export Plug-In . SVG Version: 6.00 Build 0)  -->
<svg version="1.1" xmlns="http://www.w3.org/2000/svg" xmlns:xlink="http://www.w3.org/1999/xlink" x="0px" y="0px" width="24px"
	 height="24px" viewBox="0 0 24 24" enable-background="new 0 0 24 24" xml:space="preserve">
<g id="Filled_Icons_1_">
	<g id="Filled_Icons">
	</g>
	<g id="New_icons">
		<g>
			<g>
				<path d="M11,3.5c1.445,0,2.807,0.365,4,1.004V0.5C15,0.224,14.776,0,14.5,0h-7C7.224,0,7,0.224,7,0.5v4.004
					C8.193,3.865,9.555,3.5,11,3.5z"/>
				<path d="M11,20.5c-1.445,0-2.807-0.365-4-1.004V23.5C7,23.776,7.224,24,7.5,24h7c0.276,0,0.5-0.224,0.5-0.5v-4.004
					C13.807,20.135,12.445,20.5,11,20.5z"/>
			</g>
			<path d="M11,4.5c-4.136,0-7.5,3.364-7.5,7.5s3.364,7.5,7.5,7.5s7.5-3.364,7.5-7.5S15.136,4.5,11,4.5z M15.812,10.891l-2.24,1.792
				l0.909,3.18c0.06,0.211-0.024,0.436-0.208,0.557c-0.182,0.119-0.424,0.107-0.593-0.035L11,14.15l-2.68,2.233
				c-0.169,0.141-0.409,0.155-0.593,0.035c-0.184-0.12-0.268-0.346-0.208-0.557l0.909-3.18l-2.24-1.792
				c-0.166-0.133-0.229-0.355-0.159-0.556C6.099,10.134,6.288,10,6.5,10h2.67l1.37-3.197c0.157-0.367,0.762-0.367,0.919,0L12.83,10
				h2.67c0.212,0,0.401,0.134,0.472,0.335C16.042,10.535,15.978,10.758,15.812,10.891z"/>
		</g>
	</g>
</g>
<g id="Invisible_Shape">
	<rect fill="none" width="24" height="24"/>
</g>
</svg>
