<?xml version="1.0" encoding="utf-8"?>
<!-- Generator: Adobe Illustrator 19.2.1, SVG Export Plug-In . SVG Version: 6.00 Build 0)  -->
<svg version="1.1" xmlns="http://www.w3.org/2000/svg" xmlns:xlink="http://www.w3.org/1999/xlink" x="0px" y="0px" width="24px"
	 height="24px" viewBox="0 0 24 24" enable-background="new 0 0 24 24" xml:space="preserve">
<g id="Filled_Icons_1_">
	<g id="Filled_Icons">
	</g>
	<g id="New_icons">
		<g>
			<g>
				<path d="M17.5,20h-11c-0.01,0-0.019-0.003-0.028-0.003L6.807,21h10.387l0.334-1.003C17.519,19.997,17.51,20,17.5,20z"/>
				<path d="M7,22v1.5C7,23.776,7.224,24,7.5,24h9c0.276,0,0.5-0.224,0.5-0.5V22H7z"/>
			</g>
			<g>
				<path d="M17,2V0.5C17,0.224,16.776,0,16.5,0h-9C7.224,0,7,0.224,7,0.5V2H17z"/>
				<path d="M6.807,3L6.472,4.003C6.481,4.003,6.49,4,6.5,4h11c0.01,0,0.019,0.003,0.028,0.003L17.193,3H6.807z"/>
			</g>
			<path d="M17.5,5h-11C5.122,5,4,6.121,4,7.5v9C4,17.879,5.122,19,6.5,19h11c1.378,0,2.5-1.121,2.5-2.5v-9
				C20,6.121,18.878,5,17.5,5z M11.988,17c-0.827,0-1.5-0.673-1.5-1.5c0-0.827,0.673-1.5,1.5-1.5c0.827,0,1.5,0.673,1.5,1.5
				C13.488,16.327,12.815,17,11.988,17z M14.434,13.189c-0.122,0.249-0.423,0.347-0.67,0.226c-1.111-0.552-2.448-0.551-3.553,0.001
				c-0.24,0.122-0.545,0.027-0.67-0.224c-0.123-0.247-0.023-0.548,0.224-0.671c1.383-0.69,3.053-0.691,4.444-0.003
				C14.456,12.642,14.557,12.941,14.434,13.189z M15.436,11.466c-0.128,0.244-0.428,0.338-0.675,0.212
				c-1.725-0.901-3.824-0.9-5.548,0.002c-0.25,0.129-0.548,0.029-0.675-0.212c-0.127-0.245-0.033-0.547,0.212-0.675
				c1.986-1.036,4.49-1.037,6.474-0.002C15.468,10.919,15.563,11.221,15.436,11.466z M16.441,9.742
				c-0.132,0.246-0.439,0.334-0.677,0.204c-2.304-1.234-5.226-1.237-7.529-0.013C7.99,10.064,7.688,9.971,7.559,9.727
				c-0.13-0.243-0.037-0.546,0.207-0.676c2.592-1.379,5.879-1.375,8.471,0.015C16.479,9.195,16.571,9.499,16.441,9.742z"/>
		</g>
	</g>
</g>
<g id="Invisible_Shape">
	<rect fill="none" width="24" height="24"/>
</g>
</svg>
