<?xml version="1.0" encoding="utf-8"?>
<!-- Generator: Adobe Illustrator 19.2.1, SVG Export Plug-In . SVG Version: 6.00 Build 0)  -->
<svg version="1.1" xmlns="http://www.w3.org/2000/svg" xmlns:xlink="http://www.w3.org/1999/xlink" x="0px" y="0px" width="24px"
	 height="24px" viewBox="0 0 24 24" enable-background="new 0 0 24 24" xml:space="preserve">
<g id="Filled_Icons_1_">
	<g id="Filled_Icons">
	</g>
	<g id="New_icons">
		<g>
			<path d="M17.5,20h-11c-0.01,0-0.019-0.003-0.028-0.003L6.807,21h10.387l0.334-1.003C17.519,19.997,17.51,20,17.5,20z"/>
			<path d="M7,22v1.5C7,23.776,7.224,24,7.5,24h9c0.276,0,0.5-0.224,0.5-0.5V22H7z"/>
			<path d="M17,2V0.5C17,0.224,16.776,0,16.5,0h-9C7.224,0,7,0.224,7,0.5V2H17z"/>
			<path d="M6.807,3L6.472,4.003C6.481,4.003,6.49,4,6.5,4h11c0.01,0,0.019,0.003,0.028,0.003L17.193,3H6.807z"/>
			<path d="M17.5,5h-11C5.122,5,4,6.121,4,7.5v9C4,17.879,5.122,19,6.5,19h11c1.378,0,2.5-1.121,2.5-2.5v-9
				C20,6.121,18.878,5,17.5,5z M15.074,16.055l-0.455,0.455c-0.563,0.562-1.45,0.647-2.108,0.211
				c-2.061-1.361-3.871-3.171-5.232-5.232c-0.437-0.66-0.348-1.547,0.21-2.106l0.457-0.456c0.499-0.5,1.314-0.502,1.815,0
				l0.832,0.832c0.5,0.498,0.503,1.311-0.002,1.813l-1.136,1.136c0.566,0.656,1.182,1.273,1.838,1.838l1.136-1.136
				c0.5-0.5,1.314-0.5,1.815,0l0.83,0.831C15.569,14.732,15.583,15.546,15.074,16.055z M15.854,8.854L13.707,11H14.5
				c0.276,0,0.5,0.224,0.5,0.5S14.776,12,14.5,12h-2c-0.276,0-0.5-0.224-0.5-0.5v-2C12,9.224,12.224,9,12.5,9S13,9.224,13,9.5v0.793
				l2.146-2.147c0.195-0.195,0.512-0.195,0.707,0C16.049,8.342,16.049,8.658,15.854,8.854z"/>
		</g>
	</g>
</g>
<g id="Invisible_Shape">
	<rect fill="none" width="24" height="24"/>
</g>
</svg>
