<?xml version="1.0" encoding="utf-8"?>
<!-- Generator: Adobe Illustrator 19.2.1, SVG Export Plug-In . SVG Version: 6.00 Build 0)  -->
<svg version="1.1" xmlns="http://www.w3.org/2000/svg" xmlns:xlink="http://www.w3.org/1999/xlink" x="0px" y="0px" width="24px"
	 height="24px" viewBox="0 0 24 24" enable-background="new 0 0 24 24" xml:space="preserve">
<g id="Filled_Icons_1_">
	<g id="Filled_Icons">
		<g>
			<g>
				<rect x="4.999" y="14" width="3" height="2"/>
				<rect x="5.999" y="17" width="1" height="2"/>
				<path d="M22.75,14.5h-1c1,0,0.969-2,0-2h-2c1.672,0,1.656-2,0-2.5h-6c-2.762,0.5-4.25,1-4.25,1h-1.5v2h0.5
					C8.776,13,9,13.224,9,13.5v3C9,16.776,8.776,17,8.5,17h-0.5v2h1.5c0,0,2.25,2,4.25,2c0.6,0,1.587,0,3,0
					c0.828,0,1.75-1.171,1.75-2v-0.5h3.25c1.688,0,1.688-2,0-2h1C23.687,16.5,23.671,14.5,22.75,14.5z"/>
				<path d="M4.999,17h-0.5C4.223,17,4,16.776,4,16.5v-3c0-0.276,0.224-0.5,0.5-0.5h0.5v-2h-5v8h5V17z"/>
				<rect x="5.999" y="11" width="1" height="2"/>
			</g>
			<g>
				<path d="M11.437,4.466c-2.636-1.758-6.239-1.758-8.875,0c-0.23,0.152-0.54,0.09-0.693-0.139
					c-0.153-0.229-0.091-0.54,0.139-0.693c2.965-1.979,7.02-1.979,9.984,0c0.23,0.153,0.292,0.464,0.139,0.693
					C11.976,4.559,11.665,4.617,11.437,4.466z"/>
			</g>
			<g>
				<path d="M10.327,6.13c-1.974-1.317-4.679-1.318-6.654,0c-0.23,0.151-0.541,0.091-0.694-0.139
					c-0.153-0.229-0.091-0.54,0.138-0.693c2.305-1.539,5.461-1.539,7.766,0c0.229,0.153,0.292,0.464,0.138,0.693
					C10.867,6.221,10.558,6.283,10.327,6.13z"/>
			</g>
			<g>
				<path d="M9.22,7.794c-1.321-0.879-3.121-0.879-4.439,0C4.55,7.946,4.24,7.885,4.087,7.655c-0.153-0.229-0.091-0.54,0.139-0.693
					c1.647-1.1,3.897-1.1,5.547,0c0.23,0.153,0.292,0.463,0.139,0.693C9.762,7.882,9.452,7.948,9.22,7.794z"/>
			</g>
		</g>
	</g>
	<g id="New_icons">
	</g>
</g>
<g id="Invisible_Shape">
	<rect fill="none" width="24" height="24"/>
</g>
</svg>
