<?xml version="1.0" encoding="utf-8"?>
<!-- Generator: Adobe Illustrator 19.2.1, SVG Export Plug-In . SVG Version: 6.00 Build 0)  -->
<svg version="1.1" xmlns="http://www.w3.org/2000/svg" xmlns:xlink="http://www.w3.org/1999/xlink" x="0px" y="0px" width="24px"
	 height="24px" viewBox="0 0 24 24" enable-background="new 0 0 24 24" xml:space="preserve">
<g id="Filled_Icons_1_">
	<g id="Filled_Icons">
	</g>
	<g id="New_icons">
		<g>
			<g>
				<path d="M17.5,20h-11c-0.01,0-0.019-0.003-0.028-0.003L6.807,21h10.387l0.334-1.003C17.519,19.997,17.51,20,17.5,20z"/>
				<path d="M7,22v1.5C7,23.776,7.224,24,7.5,24h9c0.276,0,0.5-0.224,0.5-0.5V22H7z"/>
			</g>
			<g>
				<path d="M17,2V0.5C17,0.224,16.776,0,16.5,0h-9C7.224,0,7,0.224,7,0.5V2H17z"/>
				<path d="M6.807,3L6.472,4.003C6.481,4.003,6.49,4,6.5,4h11c0.01,0,0.019,0.003,0.028,0.003L17.193,3H6.807z"/>
			</g>
			<path d="M17.5,5h-11C5.122,5,4,6.121,4,7.5v9C4,17.879,5.122,19,6.5,19h11c1.378,0,2.5-1.121,2.5-2.5v-9
				C20,6.121,18.878,5,17.5,5z M16.812,10.891l-2.24,1.792l0.909,3.18c0.06,0.211-0.024,0.436-0.208,0.557
				c-0.182,0.119-0.424,0.107-0.593-0.035L12,14.15l-2.68,2.233c-0.169,0.141-0.409,0.155-0.593,0.035
				c-0.184-0.12-0.268-0.346-0.208-0.557l0.909-3.18l-2.24-1.792c-0.166-0.133-0.229-0.355-0.159-0.556
				C7.099,10.134,7.288,10,7.5,10h2.67l1.37-3.197c0.157-0.367,0.762-0.367,0.919,0L13.83,10h2.67c0.212,0,0.401,0.134,0.472,0.335
				C17.042,10.535,16.978,10.758,16.812,10.891z"/>
		</g>
	</g>
</g>
<g id="Invisible_Shape">
	<rect fill="none" width="24" height="24"/>
</g>
</svg>
