<?xml version="1.0" encoding="utf-8"?>
<!-- Generator: Adobe Illustrator 19.2.1, SVG Export Plug-In . SVG Version: 6.00 Build 0)  -->
<svg version="1.1" xmlns="http://www.w3.org/2000/svg" xmlns:xlink="http://www.w3.org/1999/xlink" x="0px" y="0px" width="24px"
	 height="24px" viewBox="0 0 24 24" enable-background="new 0 0 24 24" xml:space="preserve">
<g id="Filled_Icons_1_">
	<g id="Filled_Icons">
	</g>
	<g id="New_icons">
		<g>
			<g>
				<path d="M17.5,20h-11c-0.01,0-0.019-0.003-0.028-0.003L6.807,21h10.387l0.334-1.003C17.519,19.997,17.51,20,17.5,20z"/>
				<path d="M7,22v1.5C7,23.776,7.224,24,7.5,24h9c0.276,0,0.5-0.224,0.5-0.5V22H7z"/>
			</g>
			<g>
				<path d="M17,2V0.5C17,0.224,16.776,0,16.5,0h-9C7.224,0,7,0.224,7,0.5V2H17z"/>
				<path d="M6.807,3L6.472,4.003C6.481,4.003,6.49,4,6.5,4h11c0.01,0,0.019,0.003,0.028,0.003L17.193,3H6.807z"/>
			</g>
			<g>
				<path d="M14.104,11.898l1.216-1.014c0.212-0.177,0.241-0.492,0.064-0.704c-0.177-0.211-0.491-0.24-0.705-0.063L12,12.35
					l-2.68-2.233C9.107,9.939,8.793,9.969,8.616,10.18c-0.177,0.212-0.148,0.527,0.064,0.704l1.216,1.014l-1.249,1.249
					c-0.195,0.195-0.195,0.512,0,0.707s0.512,0.195,0.707,0l1.313-1.314l1.013,0.844c0.187,0.155,0.454,0.155,0.641,0l1.013-0.844
					l1.313,1.314c0.195,0.195,0.512,0.195,0.707,0s0.195-0.512,0-0.707L14.104,11.898z"/>
				<path d="M17.5,5h-11C5.122,5,4,6.121,4,7.5v9C4,17.879,5.122,19,6.5,19h11c1.378,0,2.5-1.121,2.5-2.5v-9
					C20,6.121,18.878,5,17.5,5z M17,14c0,1.102-0.897,2-2,2H9c-1.103,0-2-0.898-2-2v-4c0-1.102,0.897-2,2-2h6c1.103,0,2,0.898,2,2
					V14z"/>
			</g>
		</g>
	</g>
</g>
<g id="Invisible_Shape">
	<rect fill="none" width="24" height="24"/>
</g>
</svg>
