<?xml version="1.0" encoding="utf-8"?>
<!-- Generator: Adobe Illustrator 19.2.1, SVG Export Plug-In . SVG Version: 6.00 Build 0)  -->
<svg version="1.1" xmlns="http://www.w3.org/2000/svg" xmlns:xlink="http://www.w3.org/1999/xlink" x="0px" y="0px" width="24px"
	 height="24px" viewBox="0 0 24 24" enable-background="new 0 0 24 24" xml:space="preserve">
<g id="Filled_Icons_1_">
	<g id="Filled_Icons">
	</g>
	<g id="New_icons">
		<g>
			<g>
				<path d="M11,3.5c1.445,0,2.807,0.365,4,1.004V0.5C15,0.224,14.776,0,14.5,0h-7C7.224,0,7,0.224,7,0.5v4.004
					C8.193,3.865,9.555,3.5,11,3.5z"/>
				<path d="M11,20.5c-1.445,0-2.807-0.365-4-1.004V23.5C7,23.776,7.224,24,7.5,24h7c0.276,0,0.5-0.224,0.5-0.5v-4.004
					C13.807,20.135,12.445,20.5,11,20.5z"/>
			</g>
			<g>
				<path d="M7.1,10.2c0.207-0.278,0.627-0.262,0.816,0.023l1.522,2.283l2.115-4.23c0.207-0.413,0.805-0.346,0.928,0.086
					l1.646,5.765l0.925-1.851C15.138,12.107,15.311,12,15.5,12h3c0-4.136-3.364-7.5-7.5-7.5S3.5,7.864,3.5,12h2.25L7.1,10.2z"/>
				<path d="M15.809,13l-1.362,2.724c-0.205,0.409-0.804,0.349-0.928-0.086l-1.646-5.765l-1.925,3.851
					c-0.158,0.316-0.632,0.4-0.863,0.054l-1.608-2.412L6.4,12.8C6.306,12.926,6.157,13,6,13H3.575c0.492,3.663,3.629,6.5,7.425,6.5
					s6.934-2.837,7.425-6.5H15.809z"/>
			</g>
		</g>
	</g>
</g>
<g id="Invisible_Shape">
	<rect fill="none" width="24" height="24"/>
</g>
</svg>
