<?xml version="1.0" encoding="utf-8"?>
<!-- Generator: Adobe Illustrator 19.2.1, SVG Export Plug-In . SVG Version: 6.00 Build 0)  -->
<svg version="1.1" xmlns="http://www.w3.org/2000/svg" xmlns:xlink="http://www.w3.org/1999/xlink" x="0px" y="0px" width="24px"
	 height="24px" viewBox="0 0 24 24" enable-background="new 0 0 24 24" xml:space="preserve">
<g id="Filled_Icons_1_">
	<g id="Filled_Icons">
		<path d="M18.5,0h-13C4.121,0,3,1.122,3,2.5v19c0,1.378,1.121,2.5,2.5,2.5h13c1.378,0,2.5-1.122,2.5-2.5v-19
			C21,1.122,19.877,0,18.5,0z M12,1.5c0.276,0,0.5,0.224,0.5,0.5c0,0.276-0.224,0.5-0.5,0.5c-0.276,0-0.5-0.224-0.5-0.5
			C11.5,1.724,11.723,1.5,12,1.5z M12,22.5c-0.553,0-1-0.448-1-1c0-0.553,0.447-1,1-1c0.552,0,1,0.447,1,1
			C13,22.052,12.551,22.5,12,22.5z M19,19.5c0,0.276-0.224,0.5-0.5,0.5h-13c-0.276,0-0.5-0.224-0.5-0.5v-16
			c0-0.276,0.224-0.5,0.5-0.5h13C18.776,3,19,3.224,19,3.5V19.5z"/>
	</g>
	<g id="New_icons">
	</g>
</g>
<g id="Invisible_Shape">
	<rect fill="none" width="24" height="24"/>
</g>
</svg>
