<?xml version="1.0" encoding="utf-8"?>
<!-- Generator: Adobe Illustrator 19.2.1, SVG Export Plug-In . SVG Version: 6.00 Build 0)  -->
<svg version="1.1" xmlns="http://www.w3.org/2000/svg" xmlns:xlink="http://www.w3.org/1999/xlink" x="0px" y="0px" width="24px"
	 height="24px" viewBox="0 0 24 24" enable-background="new 0 0 24 24" xml:space="preserve">
<g id="Filled_Icons_1_">
	<g id="Filled_Icons">
		<g>
			<path d="M6.499,3c0-0.276-0.224-0.5-0.5-0.5C4.07,2.5,2.5,4.07,2.5,6c0,0.276,0.224,0.5,0.5,0.5S3.5,6.276,3.5,6
				c0-1.379,1.122-2.5,2.5-2.5C6.276,3.5,6.499,3.276,6.499,3z"/>
			<path d="M6.499,0.5c0-0.276-0.224-0.5-0.5-0.5c-3.309,0-6,2.691-6,6c0,0.276,0.224,0.5,0.5,0.5s0.5-0.224,0.5-0.5
				c0-2.757,2.243-5,5-5C6.276,1,6.499,0.776,6.499,0.5z"/>
			<path d="M20.849,5H7.172C5.995,5,4.999,6.023,4.999,7.234V8h18V7.234C23,6.023,22.015,5,20.849,5z"/>
			<g>
				<path d="M16.5,11c-0.276,0-0.5,0.225-0.5,0.5v8.021c0,0.236-0.165,0.439-0.396,0.489c-0.231,0.048-0.464-0.07-0.561-0.285
					c-0.575-1.289-1.469-1.865-2.099-1.865c-0.518,0-0.476,0.348-0.196,0.776L15.658,24h5.435l0.78-5.188
					c0.094-0.405-0.146-0.813-0.545-0.928l-3.967-1.148C17.146,16.673,17,16.478,17,16.255V11.5C17,11.225,16.775,11,16.5,11z"/>
				<path d="M4.999,9v10.849C4.999,21.035,5.974,22,7.172,22h6.281l-1.54-2.813c-0.535-0.816-0.369-1.392-0.223-1.662
					c0.461-0.853,1.953-1.07,3.309,0.337V11.5c0-0.827,0.673-1.5,1.5-1.5c0.827,0,1.5,0.673,1.5,1.5v4.379l3.606,1.044
					c0.908,0.263,1.452,1.188,1.243,2.108L23,18.5V9H4.999z"/>
			</g>
		</g>
	</g>
	<g id="New_icons">
	</g>
</g>
<g id="Invisible_Shape">
	<rect fill="none" width="24" height="24"/>
</g>
</svg>
