<?xml version="1.0" encoding="utf-8"?>
<!-- Generator: Adobe Illustrator 16.0.3, SVG Export Plug-In . SVG Version: 6.00 Build 0)  -->
<!DOCTYPE svg PUBLIC "-//W3C//DTD SVG 1.1//EN" "http://www.w3.org/Graphics/SVG/1.1/DTD/svg11.dtd">
<svg version="1.1" xmlns="http://www.w3.org/2000/svg" xmlns:xlink="http://www.w3.org/1999/xlink" x="0px" y="0px" width="24px"
	 height="24px" viewBox="0 0 24 24" enable-background="new 0 0 24 24" xml:space="preserve">
<g id="Outline_Icons">
	<g>
		<g>
			<g>
				<path d="M0.5,2C0.223,2,0,2.223,0,2.5S0.223,3,0.5,3C0.775,3,1,2.776,1,2.5S0.775,2,0.5,2L0.5,2z"/>
			</g>
		</g>
		<g>
			<g>
				<path d="M0.5,4C0.223,4,0,4.223,0,4.5S0.223,5,0.5,5C0.775,5,1,4.776,1,4.5S0.775,4,0.5,4L0.5,4z"/>
			</g>
		</g>
		<g>
			<g>
				<path d="M0.5,6C0.223,6,0,6.223,0,6.5S0.223,7,0.5,7C0.775,7,1,6.776,1,6.5S0.775,6,0.5,6L0.5,6z"/>
			</g>
		</g>
		<g>
			<g>
				<path d="M0.5,8C0.223,8,0,8.223,0,8.5S0.223,9,0.5,9C0.775,9,1,8.776,1,8.5S0.775,8,0.5,8L0.5,8z"/>
			</g>
		</g>
		<g>
			<g>
				<path d="M0.5,10C0.223,10,0,10.223,0,10.5S0.223,11,0.5,11C0.775,11,1,10.776,1,10.5S0.775,10,0.5,10L0.5,10z"/>
			</g>
		</g>
		<g>
			<g>
				<path d="M0.5,12C0.223,12,0,12.223,0,12.5S0.223,13,0.5,13C0.775,13,1,12.776,1,12.5S0.775,12,0.5,12L0.5,12z"/>
			</g>
		</g>
		<g>
			<g>
				<path d="M0.5,14C0.223,14,0,14.223,0,14.5S0.223,15,0.5,15C0.775,15,1,14.776,1,14.5S0.775,14,0.5,14L0.5,14z"/>
			</g>
		</g>
		<g>
			<g>
				<path d="M0.5,16C0.223,16,0,16.223,0,16.5S0.223,17,0.5,17C0.775,17,1,16.776,1,16.5S0.775,16,0.5,16L0.5,16z"/>
			</g>
		</g>
		<g>
			<g>
				<path d="M0.5,18C0.223,18,0,18.223,0,18.5S0.223,19,0.5,19C0.775,19,1,18.776,1,18.5S0.775,18,0.5,18L0.5,18z"/>
			</g>
		</g>
		<g>
			<g>
				<path d="M1.5,20C1.223,20,1,20.223,1,20.5S1.223,21,1.5,21C1.775,21,2,20.776,2,20.5S1.775,20,1.5,20L1.5,20z"/>
			</g>
		</g>
		<g>
			<g>
				<path d="M9.5,21C9.223,21,9,21.223,9,21.5S9.223,22,9.5,22c0.275,0,0.5-0.224,0.5-0.5S9.775,21,9.5,21L9.5,21z"/>
			</g>
		</g>
		<g>
			<g>
				<path d="M7.5,21C7.223,21,7,21.223,7,21.5S7.223,22,7.5,22C7.775,22,8,21.776,8,21.5S7.775,21,7.5,21L7.5,21z"/>
			</g>
		</g>
		<g>
			<g>
				<path d="M11.5,21c-0.277,0-0.5,0.224-0.5,0.5s0.223,0.5,0.5,0.5c0.275,0,0.5-0.224,0.5-0.5S11.775,21,11.5,21L11.5,21z"/>
			</g>
		</g>
		<g>
			<g>
				<path d="M13.5,21c-0.277,0-0.5,0.224-0.5,0.5s0.223,0.5,0.5,0.5c0.275,0,0.5-0.224,0.5-0.5S13.775,21,13.5,21L13.5,21z"/>
			</g>
		</g>
		<g>
			<g>
				<path d="M15.5,21c-0.277,0-0.5,0.224-0.5,0.5s0.223,0.5,0.5,0.5c0.275,0,0.5-0.224,0.5-0.5S15.775,21,15.5,21L15.5,21z"/>
			</g>
		</g>
		<g>
			<g>
				<path d="M17.5,21c-0.277,0-0.5,0.224-0.5,0.5s0.223,0.5,0.5,0.5c0.275,0,0.5-0.224,0.5-0.5S17.775,21,17.5,21L17.5,21z"/>
			</g>
		</g>
		<g>
			<g>
				<path d="M19.5,21c-0.277,0-0.5,0.224-0.5,0.5s0.223,0.5,0.5,0.5c0.275,0,0.5-0.224,0.5-0.5S19.775,21,19.5,21L19.5,21z"/>
			</g>
		</g>
		<g>
			<g>
				<path d="M21.5,21c-0.277,0-0.5,0.224-0.5,0.5s0.223,0.5,0.5,0.5c0.275,0,0.5-0.224,0.5-0.5S21.775,21,21.5,21L21.5,21z"/>
			</g>
		</g>
		<g>
			<g>
				<path d="M23.5,20c-0.277,0-0.5,0.224-0.5,0.5s0.223,0.5,0.5,0.5c0.275,0,0.5-0.224,0.5-0.5S23.775,20,23.5,20L23.5,20z"/>
			</g>
		</g>
		<g>
			<g>
				<path d="M23.5,18c-0.277,0-0.5,0.224-0.5,0.5s0.223,0.5,0.5,0.5c0.275,0,0.5-0.224,0.5-0.5S23.775,18,23.5,18L23.5,18z"/>
			</g>
		</g>
		<g>
			<g>
				<path d="M23.5,16c-0.277,0-0.5,0.224-0.5,0.5s0.223,0.5,0.5,0.5c0.275,0,0.5-0.224,0.5-0.5S23.775,16,23.5,16L23.5,16z"/>
			</g>
		</g>
		<g>
			<g>
				<path d="M23.5,14c-0.277,0-0.5,0.224-0.5,0.5s0.223,0.5,0.5,0.5c0.275,0,0.5-0.224,0.5-0.5S23.775,14,23.5,14L23.5,14z"/>
			</g>
		</g>
		<g>
			<g>
				<path d="M23.5,12c-0.277,0-0.5,0.224-0.5,0.5s0.223,0.5,0.5,0.5c0.275,0,0.5-0.224,0.5-0.5S23.775,12,23.5,12L23.5,12z"/>
			</g>
		</g>
		<g>
			<g>
				<path d="M23.5,10c-0.277,0-0.5,0.224-0.5,0.5s0.223,0.5,0.5,0.5c0.275,0,0.5-0.224,0.5-0.5S23.775,10,23.5,10L23.5,10z"/>
			</g>
		</g>
		<g>
			<g>
				<path d="M23.5,8C23.223,8,23,8.223,23,8.5S23.223,9,23.5,9C23.775,9,24,8.776,24,8.5S23.775,8,23.5,8L23.5,8z"/>
			</g>
		</g>
		<g>
			<g>
				<path d="M23.5,6C23.223,6,23,6.223,23,6.5S23.223,7,23.5,7C23.775,7,24,6.776,24,6.5S23.775,6,23.5,6L23.5,6z"/>
			</g>
		</g>
		<g>
			<g>
				<path d="M21.5,6C21.223,6,21,6.223,21,6.5S21.223,7,21.5,7C21.775,7,22,6.776,22,6.5S21.775,6,21.5,6L21.5,6z"/>
			</g>
		</g>
		<g>
			<g>
				<path d="M19.5,6C19.223,6,19,6.223,19,6.5S19.223,7,19.5,7C19.775,7,20,6.776,20,6.5S19.775,6,19.5,6L19.5,6z"/>
			</g>
		</g>
		<g>
			<g>
				<path d="M17.5,6C17.223,6,17,6.223,17,6.5S17.223,7,17.5,7C17.775,7,18,6.776,18,6.5S17.775,6,17.5,6L17.5,6z"/>
			</g>
		</g>
		<g>
			<g>
				<path d="M15.5,6C15.223,6,15,6.223,15,6.5S15.223,7,15.5,7C15.775,7,16,6.776,16,6.5S15.775,6,15.5,6L15.5,6z"/>
			</g>
		</g>
		<g>
			<g>
				<path d="M13.5,6C13.223,6,13,6.223,13,6.5S13.223,7,13.5,7C13.775,7,14,6.776,14,6.5S13.775,6,13.5,6L13.5,6z"/>
			</g>
		</g>
		<g>
			<g>
				<path d="M11.5,6C11.223,6,11,6.223,11,6.5S11.223,7,11.5,7C11.775,7,12,6.776,12,6.5S11.775,6,11.5,6L11.5,6z"/>
			</g>
		</g>
		<g>
			<g>
				<path d="M9.5,6C9.223,6,9,6.223,9,6.5S9.223,7,9.5,7C9.775,7,10,6.776,10,6.5S9.775,6,9.5,6L9.5,6z"/>
			</g>
		</g>
		<g>
			<g>
				<path d="M7.5,6C7.223,6,7,6.223,7,6.5S7.223,7,7.5,7C7.775,7,8,6.776,8,6.5S7.775,6,7.5,6L7.5,6z"/>
			</g>
		</g>
		<g>
			<g>
				<path d="M5.5,6C5.223,6,5,6.223,5,6.5S5.223,7,5.5,7C5.775,7,6,6.776,6,6.5S5.775,6,5.5,6L5.5,6z"/>
			</g>
		</g>
		<g>
			<g>
				<path d="M5.5,8C5.223,8,5,8.223,5,8.5S5.223,9,5.5,9C5.775,9,6,8.776,6,8.5S5.775,8,5.5,8L5.5,8z"/>
			</g>
		</g>
		<g>
			<g>
				<path d="M5.5,10C5.223,10,5,10.223,5,10.5S5.223,11,5.5,11C5.775,11,6,10.776,6,10.5S5.775,10,5.5,10L5.5,10z"/>
			</g>
		</g>
		<g>
			<g>
				<path d="M5.5,12C5.223,12,5,12.223,5,12.5S5.223,13,5.5,13C5.775,13,6,12.776,6,12.5S5.775,12,5.5,12L5.5,12z"/>
			</g>
		</g>
		<g>
			<g>
				<path d="M5.5,14C5.223,14,5,14.223,5,14.5S5.223,15,5.5,15C5.775,15,6,14.776,6,14.5S5.775,14,5.5,14L5.5,14z"/>
			</g>
		</g>
		<g>
			<g>
				<path d="M5.5,16C5.223,16,5,16.223,5,16.5S5.223,17,5.5,17C5.775,17,6,16.776,6,16.5S5.775,16,5.5,16L5.5,16z"/>
			</g>
		</g>
		<g>
			<g>
				<path d="M5.5,18C5.223,18,5,18.223,5,18.5S5.223,19,5.5,19C5.775,19,6,18.776,6,18.5S5.775,18,5.5,18L5.5,18z"/>
			</g>
		</g>
		<g>
			<g>
				<path d="M4.5,20C4.223,20,4,20.223,4,20.5S4.223,21,4.5,21C4.775,21,5,20.776,5,20.5S4.775,20,4.5,20L4.5,20z"/>
			</g>
		</g>
		<g>
			<g>
				<path d="M2.5,2C2.223,2,2,2.223,2,2.5S2.223,3,2.5,3C2.775,3,3,2.776,3,2.5S2.775,2,2.5,2L2.5,2z"/>
			</g>
		</g>
		<g>
			<g>
				<path d="M4.5,2C4.223,2,4,2.223,4,2.5S4.223,3,4.5,3C4.775,3,5,2.776,5,2.5S4.775,2,4.5,2L4.5,2z"/>
			</g>
		</g>
		<g>
			<g>
				<path d="M6.5,2C6.223,2,6,2.223,6,2.5S6.223,3,6.5,3C6.775,3,7,2.776,7,2.5S6.775,2,6.5,2L6.5,2z"/>
			</g>
		</g>
		<g>
			<g>
				<path d="M8.5,2C8.223,2,8,2.223,8,2.5S8.223,3,8.5,3C8.775,3,9,2.776,9,2.5S8.775,2,8.5,2L8.5,2z"/>
			</g>
		</g>
		<g>
			<g>
				<path d="M8.5,4C8.223,4,8,4.223,8,4.5S8.223,5,8.5,5C8.775,5,9,4.776,9,4.5S8.775,4,8.5,4L8.5,4z"/>
			</g>
		</g>
		<g>
			<g>
				<path d="M10.5,4C10.223,4,10,4.223,10,4.5S10.223,5,10.5,5C10.775,5,11,4.776,11,4.5S10.775,4,10.5,4L10.5,4z"/>
			</g>
		</g>
		<g>
			<g>
				<path d="M12.5,4C12.223,4,12,4.223,12,4.5S12.223,5,12.5,5C12.775,5,13,4.776,13,4.5S12.775,4,12.5,4L12.5,4z"/>
			</g>
		</g>
		<g>
			<g>
				<path d="M14.5,4C14.223,4,14,4.223,14,4.5S14.223,5,14.5,5C14.775,5,15,4.776,15,4.5S14.775,4,14.5,4L14.5,4z"/>
			</g>
		</g>
		<g>
			<g>
				<path d="M16.5,4C16.223,4,16,4.223,16,4.5S16.223,5,16.5,5C16.775,5,17,4.776,17,4.5S16.775,4,16.5,4L16.5,4z"/>
			</g>
		</g>
		<g>
			<g>
				<path d="M18.5,4C18.223,4,18,4.223,18,4.5S18.223,5,18.5,5C18.775,5,19,4.776,19,4.5S18.775,4,18.5,4L18.5,4z"/>
			</g>
		</g>
		<g>
			<g>
				<path d="M20.5,4C20.223,4,20,4.223,20,4.5S20.223,5,20.5,5C20.775,5,21,4.776,21,4.5S20.775,4,20.5,4L20.5,4z"/>
			</g>
		</g>
	</g>
</g>
<g id="Invisible_Shape">
	<rect fill="none" width="24" height="24"/>
</g>
</svg>
