<?xml version="1.0" encoding="utf-8"?>
<!-- Generator: Adobe Illustrator 16.0.3, SVG Export Plug-In . SVG Version: 6.00 Build 0)  -->
<!DOCTYPE svg PUBLIC "-//W3C//DTD SVG 1.1//EN" "http://www.w3.org/Graphics/SVG/1.1/DTD/svg11.dtd">
<svg version="1.1" xmlns="http://www.w3.org/2000/svg" xmlns:xlink="http://www.w3.org/1999/xlink" x="0px" y="0px" width="24px"
	 height="24px" viewBox="0 0 24 24" enable-background="new 0 0 24 24" xml:space="preserve">
<g id="Outline_Icons_1_">
	<g id="Outline_Icons">
		<g>
			
				<ellipse fill="none" stroke="#000000" stroke-linecap="round" stroke-linejoin="round" stroke-miterlimit="10" cx="12" cy="3.5" rx="8.5" ry="3"/>
			<path fill="none" stroke="#000000" stroke-linecap="round" stroke-linejoin="round" stroke-miterlimit="10" d="M20.5,7.5
				c0,1.657-3.806,3-8.5,3c-4.693,0-8.5-1.343-8.5-3"/>
			<path fill="none" stroke="#000000" stroke-linecap="round" stroke-linejoin="round" stroke-miterlimit="10" d="M20.5,11.5
				c0,1.657-3.806,3-8.5,3c-4.693,0-8.5-1.343-8.5-3"/>
			<path fill="none" stroke="#000000" stroke-linecap="round" stroke-linejoin="round" stroke-miterlimit="10" d="M20.5,3.5v12
				c0,1.657-3.806,3-8.5,3c-4.693,0-8.5-1.343-8.5-3v-12"/>
			
				<line fill="none" stroke="#000000" stroke-linecap="round" stroke-linejoin="round" stroke-miterlimit="10" x1="5" y1="23.5" x2="18" y2="23.5"/>
			
				<line fill="none" stroke="#000000" stroke-linecap="round" stroke-linejoin="round" stroke-miterlimit="10" x1="11.5" y1="18.5" x2="11.5" y2="23.5"/>
			<g>
				<g>
					<g>
						<path d="M1,23c-0.276,0-0.5,0.224-0.5,0.5C0.5,23.777,0.724,24,1,24s0.5-0.223,0.5-0.5C1.5,23.224,1.276,23,1,23L1,23z"/>
					</g>
				</g>
			</g>
			<g>
				<g>
					<g>
						<path d="M3,23c-0.276,0-0.5,0.224-0.5,0.5C2.5,23.777,2.724,24,3,24s0.5-0.223,0.5-0.5C3.5,23.224,3.276,23,3,23L3,23z"/>
					</g>
				</g>
			</g>
			<g>
				<g>
					<g>
						<path d="M20,23c-0.276,0-0.5,0.224-0.5,0.5c0,0.277,0.224,0.5,0.5,0.5s0.5-0.223,0.5-0.5C20.5,23.224,20.276,23,20,23L20,23z"
							/>
					</g>
				</g>
			</g>
			<g>
				<g>
					<g>
						<path d="M22,23c-0.276,0-0.5,0.224-0.5,0.5c0,0.277,0.224,0.5,0.5,0.5s0.5-0.223,0.5-0.5C22.5,23.224,22.276,23,22,23L22,23z"
							/>
					</g>
				</g>
			</g>
		</g>
	</g>
	<g id="New_icons_1_">
	</g>
</g>
<g id="Invisible_Shape">
	<rect fill="none" width="24" height="24"/>
</g>
</svg>
