<?xml version="1.0" encoding="utf-8"?>
<!-- Generator: Adobe Illustrator 16.0.3, SVG Export Plug-In . SVG Version: 6.00 Build 0)  -->
<!DOCTYPE svg PUBLIC "-//W3C//DTD SVG 1.1//EN" "http://www.w3.org/Graphics/SVG/1.1/DTD/svg11.dtd">
<svg version="1.1" xmlns="http://www.w3.org/2000/svg" xmlns:xlink="http://www.w3.org/1999/xlink" x="0px" y="0px" width="24px"
	 height="24px" viewBox="0 0 24 24" enable-background="new 0 0 24 24" xml:space="preserve">
<g id="Outline_Icons_1_">
	<g id="Outline_Icons">
		<g>
			
				<rect x="0.5" y="0.5" fill="none" stroke="#000000" stroke-linecap="round" stroke-linejoin="round" stroke-miterlimit="10" width="23" height="6"/>
			
				<circle fill="none" stroke="#000000" stroke-linecap="round" stroke-linejoin="round" stroke-miterlimit="10" cx="14" cy="3.5" r="0.5"/>
			
				<circle fill="none" stroke="#000000" stroke-linecap="round" stroke-linejoin="round" stroke-miterlimit="10" cx="17" cy="3.5" r="0.5"/>
			
				<circle fill="none" stroke="#000000" stroke-linecap="round" stroke-linejoin="round" stroke-miterlimit="10" cx="20" cy="3.5" r="0.5"/>
			
				<circle fill="none" stroke="#000000" stroke-linecap="round" stroke-linejoin="round" stroke-miterlimit="10" cx="3.5" cy="3.5" r="1"/>
			<polyline fill="none" stroke="#000000" stroke-linecap="round" stroke-linejoin="round" stroke-miterlimit="10" points="0.5,6.5 
				0.5,12.5 23.5,12.5 23.5,6.5 			"/>
			
				<circle fill="none" stroke="#000000" stroke-linecap="round" stroke-linejoin="round" stroke-miterlimit="10" cx="14" cy="9.5" r="0.5"/>
			
				<circle fill="none" stroke="#000000" stroke-linecap="round" stroke-linejoin="round" stroke-miterlimit="10" cx="17" cy="9.5" r="0.5"/>
			
				<circle fill="none" stroke="#000000" stroke-linecap="round" stroke-linejoin="round" stroke-miterlimit="10" cx="20" cy="9.5" r="0.5"/>
			
				<circle fill="none" stroke="#000000" stroke-linecap="round" stroke-linejoin="round" stroke-miterlimit="10" cx="3.5" cy="9.5" r="1"/>
			
				<line fill="none" stroke="#000000" stroke-linecap="round" stroke-linejoin="round" stroke-miterlimit="10" x1="5.5" y1="18.5" x2="18.5" y2="18.5"/>
			
				<line fill="none" stroke="#000000" stroke-linecap="round" stroke-linejoin="round" stroke-miterlimit="10" x1="12.5" y1="12.5" x2="12.5" y2="18.5"/>
			<g>
				<g>
					<g>
						<path d="M1.5,18C1.224,18,1,18.224,1,18.5S1.224,19,1.5,19S2,18.776,2,18.5S1.776,18,1.5,18L1.5,18z"/>
					</g>
				</g>
			</g>
			<g>
				<g>
					<g>
						<path d="M3.5,18C3.224,18,3,18.224,3,18.5S3.224,19,3.5,19S4,18.776,4,18.5S3.776,18,3.5,18L3.5,18z"/>
					</g>
				</g>
			</g>
			<g>
				<g>
					<g>
						<path d="M20.5,18c-0.276,0-0.5,0.224-0.5,0.5s0.224,0.5,0.5,0.5s0.5-0.224,0.5-0.5S20.776,18,20.5,18L20.5,18z"/>
					</g>
				</g>
			</g>
			<g>
				<g>
					<g>
						<path d="M22.5,18c-0.276,0-0.5,0.224-0.5,0.5s0.224,0.5,0.5,0.5s0.5-0.224,0.5-0.5S22.776,18,22.5,18L22.5,18z"/>
					</g>
				</g>
			</g>
		</g>
	</g>
	<g id="New_icons_1_">
	</g>
</g>
<g id="Invisible_Shape">
	<rect fill="none" width="24" height="24"/>
</g>
</svg>
