<?xml version="1.0" encoding="utf-8"?>
<!-- Generator: Adobe Illustrator 16.0.3, SVG Export Plug-In . SVG Version: 6.00 Build 0)  -->
<!DOCTYPE svg PUBLIC "-//W3C//DTD SVG 1.1//EN" "http://www.w3.org/Graphics/SVG/1.1/DTD/svg11.dtd">
<svg version="1.1" xmlns="http://www.w3.org/2000/svg" xmlns:xlink="http://www.w3.org/1999/xlink" x="0px" y="0px" width="24px"
	 height="24px" viewBox="0 0 24 24" enable-background="new 0 0 24 24" xml:space="preserve">
<g id="Outline_Icons_1_">
	<g id="Outline_Icons">
		<g>
			
				<rect x="0.5" y="5.5" fill="none" stroke="#000000" stroke-linecap="round" stroke-linejoin="round" stroke-miterlimit="10" width="23" height="6"/>
			<polyline fill="none" stroke="#000000" stroke-linecap="round" stroke-linejoin="round" stroke-miterlimit="10" points="0.5,5.5 
				6.5,0.5 17.5,0.5 23.5,5.5 			"/>
			
				<circle fill="none" stroke="#000000" stroke-linecap="round" stroke-linejoin="round" stroke-miterlimit="10" cx="14" cy="8.5" r="0.5"/>
			
				<circle fill="none" stroke="#000000" stroke-linecap="round" stroke-linejoin="round" stroke-miterlimit="10" cx="17" cy="8.5" r="0.5"/>
			
				<circle fill="none" stroke="#000000" stroke-linecap="round" stroke-linejoin="round" stroke-miterlimit="10" cx="20" cy="8.5" r="0.5"/>
			
				<circle fill="none" stroke="#000000" stroke-linecap="round" stroke-linejoin="round" stroke-miterlimit="10" cx="3.5" cy="8.5" r="1"/>
			<path fill="none" stroke="#000000" stroke-linecap="round" stroke-linejoin="round" stroke-miterlimit="10" d="M23.5,11.5v4
				c0,1.104-0.895,2-2,2h-19c-1.104,0-2-0.896-2-2v-4"/>
			
				<circle fill="none" stroke="#000000" stroke-linecap="round" stroke-linejoin="round" stroke-miterlimit="10" cx="14" cy="14.5" r="0.5"/>
			
				<circle fill="none" stroke="#000000" stroke-linecap="round" stroke-linejoin="round" stroke-miterlimit="10" cx="17" cy="14.5" r="0.5"/>
			
				<circle fill="none" stroke="#000000" stroke-linecap="round" stroke-linejoin="round" stroke-miterlimit="10" cx="20" cy="14.5" r="0.5"/>
			
				<circle fill="none" stroke="#000000" stroke-linecap="round" stroke-linejoin="round" stroke-miterlimit="10" cx="3.5" cy="14.5" r="1"/>
			
				<line fill="none" stroke="#000000" stroke-linecap="round" stroke-linejoin="round" stroke-miterlimit="10" x1="5.5" y1="23.5" x2="18.5" y2="23.5"/>
			
				<line fill="none" stroke="#000000" stroke-linecap="round" stroke-linejoin="round" stroke-miterlimit="10" x1="12.5" y1="17.5" x2="12.5" y2="23.5"/>
			<g>
				<g>
					<g>
						<path d="M1.5,23C1.224,23,1,23.224,1,23.5S1.224,24,1.5,24S2,23.776,2,23.5S1.776,23,1.5,23L1.5,23z"/>
					</g>
				</g>
			</g>
			<g>
				<g>
					<g>
						<path d="M3.5,23C3.224,23,3,23.224,3,23.5S3.224,24,3.5,24S4,23.776,4,23.5S3.776,23,3.5,23L3.5,23z"/>
					</g>
				</g>
			</g>
			<g>
				<g>
					<g>
						<path d="M20.5,23c-0.275,0-0.5,0.224-0.5,0.5s0.225,0.5,0.5,0.5c0.276,0,0.5-0.224,0.5-0.5S20.776,23,20.5,23L20.5,23z"/>
					</g>
				</g>
			</g>
			<g>
				<g>
					<g>
						<path d="M22.5,23c-0.275,0-0.5,0.224-0.5,0.5s0.225,0.5,0.5,0.5c0.276,0,0.5-0.224,0.5-0.5S22.776,23,22.5,23L22.5,23z"/>
					</g>
				</g>
			</g>
		</g>
	</g>
	<g id="New_icons_1_">
	</g>
</g>
<g id="Invisible_Shape">
	<rect fill="none" width="24" height="24"/>
</g>
</svg>
