<?xml version="1.0" encoding="utf-8"?>
<!-- Generator: Adobe Illustrator 16.0.3, SVG Export Plug-In . SVG Version: 6.00 Build 0)  -->
<!DOCTYPE svg PUBLIC "-//W3C//DTD SVG 1.1//EN" "http://www.w3.org/Graphics/SVG/1.1/DTD/svg11.dtd">
<svg version="1.1" xmlns="http://www.w3.org/2000/svg" xmlns:xlink="http://www.w3.org/1999/xlink" x="0px" y="0px" width="24px"
	 height="24px" viewBox="0 0 24 24" enable-background="new 0 0 24 24" xml:space="preserve">
<g id="Outline_Icons">
	<g>
		
			<line fill="none" stroke="#000000" stroke-linecap="round" stroke-linejoin="round" stroke-miterlimit="10" x1="10.5" y1="8.035" x2="11.631" y2="9.167"/>
		
			<line fill="none" stroke="#000000" stroke-linecap="round" stroke-linejoin="round" stroke-miterlimit="10" x1="10.5" y1="11.035" x2="11.666" y2="9.87"/>
		
			<line fill="none" stroke="#000000" stroke-linecap="round" stroke-linejoin="round" stroke-miterlimit="10" x1="5.5" y1="21.5" x2="5.5" y2="23.5"/>
		
			<line fill="none" stroke="#000000" stroke-linecap="round" stroke-linejoin="round" stroke-miterlimit="10" x1="18.5" y1="21.5" x2="18.5" y2="23.5"/>
		<path fill="none" stroke="#000000" stroke-linejoin="round" stroke-miterlimit="10" d="M21.5,19.537c0,1.104-0.895,1.963-2,1.963
			h-15c-1.104,0-2-0.858-2-1.963v-1.559c0-0.875,0.569-1.647,1.405-1.907C5.8,15.48,9.254,14.537,12,14.537s6.2,0.943,8.095,1.534
			c0.835,0.259,1.405,1.032,1.405,1.907V19.537z"/>
		<path fill="none" stroke="#000000" stroke-linejoin="round" stroke-miterlimit="10" d="M21.409,17.396
			c1.213-0.385,2.091-1.52,2.091-2.858c0-1.659-1.343-3.002-3-3.002s-3,1.343-3,3.002c0,0.29,0.044,0.572,0.121,0.837"/>
		<path fill="none" stroke="#000000" stroke-linejoin="round" stroke-miterlimit="10" d="M6.379,15.375
			C6.456,15.109,6.5,14.827,6.5,14.537c0-1.657-1.343-3.002-3-3.002s-3,1.345-3,3.002c0,1.339,0.878,2.474,2.091,2.858"/>
		<g>
			<path fill="none" stroke="#000000" stroke-linejoin="round" stroke-miterlimit="10" d="M20.755,11.512
				C20.909,10.856,21,10.175,21,9.471C21,4.515,16.983,0.5,12.029,0.5c-4.955,0-8.972,4.015-8.972,8.971
				c0,0.704,0.091,1.383,0.244,2.039"/>
		</g>
		
			<line fill="none" stroke="#000000" stroke-linecap="round" stroke-linejoin="round" stroke-miterlimit="10" x1="12.335" y1="9.871" x2="13.5" y2="11.035"/>
		
			<line fill="none" stroke="#000000" stroke-linecap="round" stroke-linejoin="round" stroke-miterlimit="10" x1="12.368" y1="9.169" x2="13.5" y2="8.035"/>
		<path fill="none" stroke="#000000" stroke-linecap="round" stroke-linejoin="round" stroke-miterlimit="10" d="M12.5,9.5
			c0,0.276-0.224,0.5-0.5,0.5l0,0c-0.276,0-0.5-0.224-0.5-0.5l0,0C11.5,9.224,11.724,9,12,9l0,0C12.276,9,12.5,9.224,12.5,9.5
			L12.5,9.5z"/>
	</g>
</g>
<g id="invisible_shape">
	<rect fill="none" width="24" height="24"/>
</g>
</svg>
