<?xml version="1.0" encoding="utf-8"?>
<!-- Generator: Adobe Illustrator 16.0.3, SVG Export Plug-In . SVG Version: 6.00 Build 0)  -->
<!DOCTYPE svg PUBLIC "-//W3C//DTD SVG 1.1//EN" "http://www.w3.org/Graphics/SVG/1.1/DTD/svg11.dtd">
<svg version="1.1" xmlns="http://www.w3.org/2000/svg" xmlns:xlink="http://www.w3.org/1999/xlink" x="0px" y="0px" width="24px"
	 height="24px" viewBox="0 0 24 24" enable-background="new 0 0 24 24" xml:space="preserve">
<g id="Outline_Icons">
	<g>
		<path fill="none" stroke="#000000" stroke-linecap="round" stroke-linejoin="round" stroke-miterlimit="10" d="M19,13.5
			l0.936-6.089c0.267-1.73-0.236-3.489-1.377-4.817c-1.14-1.33-2.803-2.094-4.554-2.094H9.992c-1.75,0-3.413,0.764-4.554,2.094
			c-1.14,1.329-1.643,3.087-1.376,4.817L5,13.5"/>
		
			<line fill="none" stroke="#000000" stroke-linecap="round" stroke-linejoin="round" stroke-miterlimit="10" x1="6.5" y1="22.5" x2="6.5" y2="23.5"/>
		
			<line fill="none" stroke="#000000" stroke-linecap="round" stroke-linejoin="round" stroke-miterlimit="10" x1="17.5" y1="22.5" x2="17.5" y2="23.5"/>
		<path fill="none" stroke="#000000" stroke-linejoin="round" stroke-miterlimit="10" d="M21.5,12.5c-1.935,0-3.5,1.567-3.5,3.5v1.5
			c0,0-1.5-1-6-1s-6,1-6,1V16c0-1.933-1.568-3.5-3.5-3.5c-1.105,0-2,0.895-2,2c0,0.832,0.507,1.546,1.23,1.847
			C2.195,16.54,2.5,16.996,2.5,17.5v2c0,1.657,1.342,3,3,3h13c1.655,0,3-1.343,3-3v-2c0-0.504,0.302-0.96,0.768-1.153
			C22.99,16.046,23.5,15.332,23.5,14.5C23.5,13.395,22.604,12.5,21.5,12.5z"/>
		<polyline fill="none" stroke="#000000" stroke-linecap="round" stroke-linejoin="round" stroke-miterlimit="10" points="15,10 
			13.5,9 15,8 		"/>
		<polyline fill="none" stroke="#000000" stroke-linecap="round" stroke-linejoin="round" stroke-miterlimit="10" points="9,10 
			10.5,9 9,8 		"/>
		
			<circle fill="none" stroke="#000000" stroke-linecap="round" stroke-linejoin="round" stroke-miterlimit="10" cx="12" cy="9" r="1.5"/>
	</g>
</g>
<g id="invisible_shape">
	<rect fill="none" width="24" height="24"/>
</g>
</svg>
