<?xml version="1.0" encoding="utf-8"?>
<!-- Generator: Adobe Illustrator 16.0.3, SVG Export Plug-In . SVG Version: 6.00 Build 0)  -->
<!DOCTYPE svg PUBLIC "-//W3C//DTD SVG 1.1//EN" "http://www.w3.org/Graphics/SVG/1.1/DTD/svg11.dtd">
<svg version="1.1" xmlns="http://www.w3.org/2000/svg" xmlns:xlink="http://www.w3.org/1999/xlink" x="0px" y="0px" width="24px"
	 height="24px" viewBox="0 0 24 24" enable-background="new 0 0 24 24" xml:space="preserve">
<g id="Outline_Icons">
	<g>
		<g>
			<path fill="none" stroke="#000000" stroke-miterlimit="10" d="M20.5,20.5V19c0-0.828-0.672-1.5-1.5-1.5H9
				c-3.59,0-6.5-2.91-6.5-6.5V5c0-0.828-0.672-1.5-1.5-1.5C0.724,3.5,0.5,3.276,0.5,3V1c0-0.276,0.224-0.5,0.5-0.5
				c2.485,0,4.5,2.015,4.5,4.5v6c0,1.933,1.567,3.5,3.5,3.5h10.5c2.209,0,4,1.791,4,4c0,1.105-0.896,2-2,2H20.5z"/>
		</g>
		<path fill="none" stroke="#000000" stroke-linecap="round" stroke-miterlimit="10" d="M2.604,11.96L11.5,8.5
			c4.143,0,7.5,3.358,7.5,7.5s-3.357,7.5-7.5,7.5H2"/>
	</g>
</g>
<g id="invisible_shape">
	<rect fill="none" width="24" height="24"/>
</g>
</svg>
