<?xml version="1.0" encoding="utf-8"?>
<!-- Generator: Adobe Illustrator 16.0.3, SVG Export Plug-In . SVG Version: 6.00 Build 0)  -->
<!DOCTYPE svg PUBLIC "-//W3C//DTD SVG 1.1//EN" "http://www.w3.org/Graphics/SVG/1.1/DTD/svg11.dtd">
<svg version="1.1" xmlns="http://www.w3.org/2000/svg" xmlns:xlink="http://www.w3.org/1999/xlink" x="0px" y="0px" width="24px"
	 height="24px" viewBox="0 0 24 24" enable-background="new 0 0 24 24" xml:space="preserve">
<g id="Outline_Icons">
	<g>
		
			<rect x="1.5" y="7.5" fill="none" stroke="#000000" stroke-linecap="round" stroke-linejoin="round" stroke-miterlimit="10" width="21" height="14"/>
		
			<line fill="none" stroke="#000000" stroke-linecap="round" stroke-linejoin="round" stroke-miterlimit="10" x1="1.5" y1="21.5" x2="1.5" y2="23.5"/>
		
			<line fill="none" stroke="#000000" stroke-linecap="round" stroke-linejoin="round" stroke-miterlimit="10" x1="22.5" y1="21.5" x2="22.5" y2="23.5"/>
		
			<rect x="0.5" y="4.5" fill="none" stroke="#000000" stroke-linecap="round" stroke-linejoin="round" stroke-miterlimit="10" width="23" height="3"/>
		
			<rect x="3.5" y="15.5" fill="none" stroke="#000000" stroke-linecap="round" stroke-linejoin="round" stroke-miterlimit="10" width="17" height="4"/>
		
			<rect x="13.5" y="9.5" fill="none" stroke="#000000" stroke-linecap="round" stroke-linejoin="round" stroke-miterlimit="10" width="7" height="4"/>
		
			<rect x="3.5" y="9.5" fill="none" stroke="#000000" stroke-linecap="round" stroke-linejoin="round" stroke-miterlimit="10" width="7" height="4"/>
		<g>
			<g>
				<path d="M12,17c-0.277,0-0.5,0.224-0.5,0.5c0,0.275,0.223,0.5,0.5,0.5c0.275,0,0.5-0.225,0.5-0.5C12.5,17.224,12.275,17,12,17
					L12,17z"/>
			</g>
		</g>
		<g>
			<g>
				<path d="M7,11c-0.277,0-0.5,0.224-0.5,0.5C6.5,11.775,6.723,12,7,12c0.275,0,0.5-0.225,0.5-0.5C7.5,11.224,7.275,11,7,11L7,11z"
					/>
			</g>
		</g>
		<g>
			<g>
				<path d="M17,11c-0.277,0-0.5,0.224-0.5,0.5c0,0.275,0.223,0.5,0.5,0.5c0.275,0,0.5-0.225,0.5-0.5C17.5,11.224,17.275,11,17,11
					L17,11z"/>
			</g>
		</g>
	</g>
</g>
<g id="invisible_shape">
	<rect fill="none" width="24" height="24"/>
</g>
</svg>
