<?xml version="1.0" encoding="utf-8"?>
<!-- Generator: Adobe Illustrator 16.0.3, SVG Export Plug-In . SVG Version: 6.00 Build 0)  -->
<!DOCTYPE svg PUBLIC "-//W3C//DTD SVG 1.1//EN" "http://www.w3.org/Graphics/SVG/1.1/DTD/svg11.dtd">
<svg version="1.1" xmlns="http://www.w3.org/2000/svg" xmlns:xlink="http://www.w3.org/1999/xlink" x="0px" y="0px" width="24px"
	 height="24px" viewBox="0 0 24 24" enable-background="new 0 0 24 24" xml:space="preserve">
<g id="Outline_Icons">
	<g>
		
			<line fill="none" stroke="#000000" stroke-linecap="round" stroke-linejoin="round" stroke-miterlimit="10" x1="6.5" y1="22.5" x2="6.5" y2="23.5"/>
		
			<line fill="none" stroke="#000000" stroke-linecap="round" stroke-linejoin="round" stroke-miterlimit="10" x1="17.5" y1="22.5" x2="17.5" y2="23.5"/>
		<path fill="none" stroke="#000000" stroke-linejoin="round" stroke-miterlimit="10" d="M5.5,15.5c0-1.933-1.5-3.5-3-3.5
			c-1.105,0-2,0.895-2,2c0,0.832,0.507,1.547,1.23,1.848C2.195,16.04,2.5,16.496,2.5,17v2.5c0,1.656,1.342,3,3,3h18v-3h-18V15.5z"/>
		<rect x="5.5" y="17.5" fill="none" stroke="#000000" stroke-linejoin="round" stroke-miterlimit="10" width="18" height="2"/>
		<path fill="none" stroke="#000000" stroke-linejoin="round" stroke-miterlimit="10" d="M3,12c0-2.485,2.015-4.5,4.5-4.5h0.452
			c1.581,0,3.046,0.829,3.858,2.186l1.106,1.843c0.362,0.603,1.013,0.971,1.716,0.971H20.5c1.657,0,3,1.343,3,3v2"/>
	</g>
</g>
<g id="invisible_shape">
	<rect fill="none" width="24" height="24"/>
</g>
</svg>
