<?xml version="1.0" encoding="utf-8"?>
<!-- Generator: Adobe Illustrator 16.0.3, SVG Export Plug-In . SVG Version: 6.00 Build 0)  -->
<!DOCTYPE svg PUBLIC "-//W3C//DTD SVG 1.1//EN" "http://www.w3.org/Graphics/SVG/1.1/DTD/svg11.dtd">
<svg version="1.1" xmlns="http://www.w3.org/2000/svg" xmlns:xlink="http://www.w3.org/1999/xlink" x="0px" y="0px" width="24px"
	 height="24px" viewBox="0 0 24 24" enable-background="new 0 0 24 24" xml:space="preserve">
<g id="Outline_Icons">
	<g>
		<path fill="none" stroke="#000000" stroke-linecap="round" stroke-linejoin="round" stroke-miterlimit="10" d="M18.5,22.5
			c0,0.55-0.45,1-1,1h-9c-0.55,0-1-0.45-1-1v-13c0-0.55,0.45-1,1-1h9c0.55,0,1,0.45,1,1V22.5z"/>
		
			<rect x="5.5" y="10.5" fill="none" stroke="#000000" stroke-linecap="round" stroke-linejoin="round" stroke-miterlimit="10" width="2" height="6"/>
		
			<line fill="none" stroke="#000000" stroke-linecap="round" stroke-linejoin="round" stroke-miterlimit="10" x1="5.5" y1="13.5" x2="7.5" y2="13.5"/>
		
			<line fill="none" stroke="#000000" stroke-linecap="round" stroke-linejoin="round" stroke-miterlimit="10" x1="9.5" y1="21.5" x2="16.5" y2="21.5"/>
		
			<rect x="9.5" y="10.5" fill="none" stroke="#000000" stroke-linecap="round" stroke-linejoin="round" stroke-miterlimit="10" width="7" height="9"/>
		<g>
			<g>
				<path d="M13.5,13c-0.277,0-0.5,0.225-0.5,0.5c0,0.276,0.223,0.5,0.5,0.5c0.275,0,0.5-0.224,0.5-0.5C14,13.225,13.775,13,13.5,13
					L13.5,13z"/>
			</g>
		</g>
		<g>
			<g>
				<path d="M13.5,16c-0.277,0-0.5,0.225-0.5,0.5c0,0.276,0.223,0.5,0.5,0.5c0.275,0,0.5-0.224,0.5-0.5C14,16.225,13.775,16,13.5,16
					L13.5,16z"/>
			</g>
		</g>
		<path fill="none" stroke="#000000" stroke-linecap="round" stroke-linejoin="round" stroke-miterlimit="10" d="M3.5,16.5
			c0,0.55-0.45,1-1,1l0,0c-0.55,0-1-0.45-1-1v-3c0-0.55,0.45-1,1-1l0,0c0.55,0,1,0.45,1,1V16.5z"/>
		<path fill="none" stroke="#000000" stroke-linecap="round" stroke-linejoin="round" stroke-miterlimit="10" d="M22.5,16.5
			c0,0.55-0.45,1-1,1l0,0c-0.55,0-1-0.45-1-1v-3c0-0.55,0.45-1,1-1l0,0c0.55,0,1,0.45,1,1V16.5z"/>
		<path fill="none" stroke="#000000" stroke-linecap="round" stroke-linejoin="round" stroke-miterlimit="10" d="M22.5,15h1v-3
			c0-6.352-5.149-11.5-11.5-11.5C5.648,0.5,0.5,5.648,0.5,12v3h1"/>
	</g>
</g>
<g id="Invisible_Shape">
	<rect fill="none" width="24" height="24"/>
</g>
</svg>
