<?xml version="1.0" encoding="utf-8"?>
<!-- Generator: Adobe Illustrator 16.0.3, SVG Export Plug-In . SVG Version: 6.00 Build 0)  -->
<!DOCTYPE svg PUBLIC "-//W3C//DTD SVG 1.1//EN" "http://www.w3.org/Graphics/SVG/1.1/DTD/svg11.dtd">
<svg version="1.1" xmlns="http://www.w3.org/2000/svg" xmlns:xlink="http://www.w3.org/1999/xlink" x="0px" y="0px" width="24px"
	 height="24px" viewBox="0 0 24 24" enable-background="new 0 0 24 24" xml:space="preserve">
<g id="Outline_Icons">
	<g>
		<path fill="none" stroke="#000000" stroke-linecap="round" stroke-linejoin="round" stroke-miterlimit="10" d="M9,17.5
			c-4.694,0-8.5-3.806-8.5-8.5S4.306,0.5,9,0.5s8.5,3.806,8.5,8.5"/>
		
			<circle fill="none" stroke="#000000" stroke-linecap="round" stroke-linejoin="round" stroke-miterlimit="10" cx="9" cy="9" r="1.5"/>
		<g>
			<path fill="none" stroke="#000000" stroke-linecap="round" stroke-linejoin="round" stroke-miterlimit="10" d="M19.402,12.971
				l3.107,3.108c1.32,1.32,1.32,3.46,0,4.781l-1.595,1.594c-0.817,0.818-1.999,1.161-3.129,0.91
				c-2.118-0.473-5.278-1.588-5.278-1.588c-0.389-0.067-0.673-0.404-0.674-0.799c0.001-0.424,0.328-0.775,0.75-0.809l2.754,0.213
				l-4.782-4.781c-0.396-0.396-0.396-1.039,0.001-1.435c0.396-0.396,1.038-0.396,1.434-0.001l2.869,2.869"/>
			<path fill="none" stroke="#000000" stroke-linecap="round" stroke-linejoin="round" stroke-miterlimit="10" d="M13.903,16.079
				l-2.869-2.869c-0.396-0.396-0.396-1.039-0.001-1.435c0.397-0.397,1.039-0.396,1.436-0.001l2.869,2.869"/>
			<path fill="none" stroke="#000000" stroke-linecap="round" stroke-linejoin="round" stroke-miterlimit="10" d="M16.294,15.601
				l-2.869-2.869c-0.396-0.396-0.396-1.039,0-1.434c0.396-0.396,1.039-0.396,1.435-0.002l2.869,2.869"/>
			<path fill="none" stroke="#000000" stroke-linecap="round" stroke-linejoin="round" stroke-miterlimit="10" d="M18.445,14.883
				l-2.151-2.151c-0.396-0.396-0.396-1.039-0.001-1.435c0.396-0.396,1.039-0.396,1.436,0l2.869,2.869"/>
		</g>
		<path fill="none" stroke="#000000" stroke-linecap="round" stroke-linejoin="round" stroke-miterlimit="10" d="M3.5,9
			c0-3.038,2.462-5.5,5.5-5.5"/>
	</g>
</g>
<g id="Invisible_Shape">
	<rect fill="none" width="24" height="24"/>
</g>
</svg>
