<?xml version="1.0" encoding="utf-8"?>
<!-- Generator: Adobe Illustrator 16.0.3, SVG Export Plug-In . SVG Version: 6.00 Build 0)  -->
<!DOCTYPE svg PUBLIC "-//W3C//DTD SVG 1.1//EN" "http://www.w3.org/Graphics/SVG/1.1/DTD/svg11.dtd">
<svg version="1.1" xmlns="http://www.w3.org/2000/svg" xmlns:xlink="http://www.w3.org/1999/xlink" x="0px" y="0px" width="24px"
	 height="24px" viewBox="0 0 24 24" enable-background="new 0 0 24 24" xml:space="preserve">
<g id="Outline_Icons">
	<g>
		<path fill="none" stroke="#000000" stroke-linecap="round" stroke-linejoin="round" stroke-miterlimit="10" d="M22.5,9
			c0-3.59-2.91-6.5-6.5-6.5S9.5,5.41,9.5,9c0,4.817,4,4.609,4,9c0,2.485,2.015,4.5,4.5,4.5s4.5-2.015,4.5-4.5"/>
		<path fill="none" stroke="#000000" stroke-linecap="round" stroke-linejoin="round" stroke-miterlimit="10" d="M4.868,1.868
			C2.787,3.949,1.5,6.824,1.5,10s1.287,6.051,3.368,8.132"/>
		<path fill="none" stroke="#000000" stroke-linecap="round" stroke-linejoin="round" stroke-miterlimit="10" d="M7.697,4.697
			C6.34,6.054,5.5,7.929,5.5,10c0,2.07,0.84,3.946,2.197,5.303"/>
		<path fill="none" stroke="#000000" stroke-linecap="round" stroke-linejoin="round" stroke-miterlimit="10" d="M19,9
			c0-1.656-1.344-3-3-3c-1.657,0-3,1.344-3,3c0,2.377,2,2.168,2,4c0,1.104,0.896,2,2,2s2-0.896,2-2"/>
	</g>
</g>
<g id="Invisible_Shape">
	<rect fill="none" width="24" height="24"/>
</g>
</svg>
