<?xml version="1.0" encoding="utf-8"?>
<!-- Generator: Adobe Illustrator 16.0.3, SVG Export Plug-In . SVG Version: 6.00 Build 0)  -->
<!DOCTYPE svg PUBLIC "-//W3C//DTD SVG 1.1//EN" "http://www.w3.org/Graphics/SVG/1.1/DTD/svg11.dtd">
<svg version="1.1" xmlns="http://www.w3.org/2000/svg" xmlns:xlink="http://www.w3.org/1999/xlink" x="0px" y="0px" width="24px"
	 height="24px" viewBox="0 0 24 24" enable-background="new 0 0 24 24" xml:space="preserve">
<g id="Outline_Icons">
	<g>
		<path fill="none" stroke="#000000" stroke-linejoin="round" stroke-miterlimit="10" d="M12.5,8.5c0-1.101-0.9-2-2-2h-8
			c-1.1,0-2,0.899-2,2v13c0,1.101,0.9,2,2,2h8c1.1,0,2-0.899,2-2V8.5z"/>
		<rect x="2.5" y="9.5" fill="none" stroke="#000000" stroke-linejoin="round" stroke-miterlimit="10" width="8" height="4"/>
		<circle fill="none" stroke="#000000" stroke-linejoin="round" stroke-miterlimit="10" cx="6.5" cy="18.5" r="3"/>
		<circle fill="none" stroke="#000000" stroke-linejoin="round" stroke-miterlimit="10" cx="6.5" cy="18.5" r="0.5"/>
		<path fill="none" stroke="#000000" stroke-linejoin="round" stroke-miterlimit="10" d="M9.5,6.5V4c0-0.828,0.671-1.5,1.5-1.5h8
			h2.5c1.104,0,2,0.896,2,2s-0.896,2-2,2h-4c-1.104,0-2,0.896-2,2s0.896,2,2,2h4c1.104,0,2,0.896,2,2s-0.896,2-2,2h-3
			c-1.104,0-2,0.896-2,2v2"/>
		<polyline fill="none" stroke="#000000" stroke-linejoin="round" stroke-miterlimit="10" points="18.902,21.5 15.5,21.5 15.5,18.5 
			18.901,18.5 		"/>
		<path fill="none" stroke="#000000" stroke-linejoin="round" stroke-miterlimit="10" d="M21.5,23c-1.657,0-3-1.343-3-3s1.343-3,3-3
			V23z"/>
	</g>
</g>
<g id="Invisible_Shape">
	<rect fill="none" width="24" height="24"/>
</g>
</svg>
