<?xml version="1.0" encoding="utf-8"?>
<!-- Generator: Adobe Illustrator 16.0.3, SVG Export Plug-In . SVG Version: 6.00 Build 0)  -->
<!DOCTYPE svg PUBLIC "-//W3C//DTD SVG 1.1//EN" "http://www.w3.org/Graphics/SVG/1.1/DTD/svg11.dtd">
<svg version="1.1" xmlns="http://www.w3.org/2000/svg" xmlns:xlink="http://www.w3.org/1999/xlink" x="0px" y="0px" width="24px"
	 height="24px" viewBox="0 0 24 24" enable-background="new 0 0 24 24" xml:space="preserve">
<g id="Outline_Icons">
	<g>
		<path fill="none" stroke="#000000" stroke-linecap="round" stroke-linejoin="round" stroke-miterlimit="10" d="M13.499,3.752
			C14.139,3.588,14.809,3.5,15.5,3.5c4.418,0,8,3.581,8,8c0,4.418-3.582,8-8,8c-0.69,0-1.36-0.088-1.999-0.252"/>
		
			<circle fill="none" stroke="#000000" stroke-linecap="round" stroke-linejoin="round" stroke-miterlimit="10" cx="15.5" cy="11.5" r="2"/>
		<g>
			<g>
				<path d="M15.5,11c-0.277,0-0.5,0.224-0.5,0.5s0.223,0.5,0.5,0.5c0.275,0,0.5-0.224,0.5-0.5S15.775,11,15.5,11L15.5,11z"/>
			</g>
		</g>
		
			<rect x="0.5" y="2.5" fill="none" stroke="#000000" stroke-linecap="round" stroke-linejoin="round" stroke-miterlimit="10" width="13" height="18"/>
		<g>
			<path fill="none" stroke="#000000" stroke-linecap="round" stroke-linejoin="round" stroke-miterlimit="10" d="M5.5,15.731
				C5.5,16.5,4.769,16.5,4,16.5S2.481,16.153,2.481,15s0.787-1.5,1.556-1.5c0.77,0,1.463,0,1.463,0C5.5,14.5,5.5,14.963,5.5,15.731z
				"/>
			<polyline fill="none" stroke="#000000" stroke-linecap="round" stroke-linejoin="round" stroke-miterlimit="10" points="
				5.5,13.5 5.5,9.581 10.5,6.506 10.5,11.5 			"/>
			<path fill="none" stroke="#000000" stroke-linecap="round" stroke-linejoin="round" stroke-miterlimit="10" d="M10.5,14.193
				c0,0.77-0.925,0.77-1.693,0.77c-0.77,0-1.616-0.578-1.616-1.731S7.881,11.5,8.65,11.5c0.769,0,0.85,0,1.85,0
				C10.5,12.5,10.5,13.425,10.5,14.193z"/>
		</g>
	</g>
</g>
<g id="Invisible_Shape">
	<rect fill="none" width="24" height="24"/>
</g>
</svg>
