<?xml version="1.0" encoding="utf-8"?>
<!-- Generator: Adobe Illustrator 16.0.3, SVG Export Plug-In . SVG Version: 6.00 Build 0)  -->
<!DOCTYPE svg PUBLIC "-//W3C//DTD SVG 1.1//EN" "http://www.w3.org/Graphics/SVG/1.1/DTD/svg11.dtd">
<svg version="1.1" xmlns="http://www.w3.org/2000/svg" xmlns:xlink="http://www.w3.org/1999/xlink" x="0px" y="0px" width="24px"
	 height="24px" viewBox="0 0 24 24" enable-background="new 0 0 24 24" xml:space="preserve">
<g id="Outline_Icons">
	<g>
		<path fill="none" stroke="#000000" stroke-linejoin="round" stroke-miterlimit="10" d="M9.5,20.5c0,1.5-1.343,3-3,3
			c-1.656,0-3-1.343-3-3c0-1.656,1.344-3,3-3c0.547,0,2.5,0,3,0C9.5,18.5,9.5,19.391,9.5,20.5z"/>
		<path fill="none" stroke="#000000" stroke-linejoin="round" stroke-miterlimit="10" d="M20.5,16.5c0,1.5-1.343,3-3,3
			c-1.656,0-3-1.343-3-3c0-1.656,1.344-3,3-3c0.547,0,2.5,0,3,0C20.5,14.5,20.5,15.5,20.5,16.5z"/>
		<polyline fill="none" stroke="#000000" stroke-linejoin="round" stroke-miterlimit="10" points="9.5,17.5 9.5,5.5 20.5,1 
			20.5,13.5 		"/>
		<line fill="none" stroke="#000000" stroke-linejoin="round" stroke-miterlimit="10" x1="9.5" y1="9" x2="20.5" y2="4.5"/>
	</g>
</g>
<g id="Invisible_Shape">
	<rect fill="none" width="24" height="24"/>
</g>
</svg>
