<?xml version="1.0" encoding="utf-8"?>
<!-- Generator: Adobe Illustrator 16.0.3, SVG Export Plug-In . SVG Version: 6.00 Build 0)  -->
<!DOCTYPE svg PUBLIC "-//W3C//DTD SVG 1.1//EN" "http://www.w3.org/Graphics/SVG/1.1/DTD/svg11.dtd">
<svg version="1.1" xmlns="http://www.w3.org/2000/svg" xmlns:xlink="http://www.w3.org/1999/xlink" x="0px" y="0px" width="24px"
	 height="24px" viewBox="0 0 24 24" enable-background="new 0 0 24 24" xml:space="preserve">
<g id="Outline_Icons">
	<g>
		<g>
			<line fill="none" stroke="#000000" stroke-linecap="round" stroke-miterlimit="10" x1="18.5" y1="21.5" x2="18.5" y2="15.5"/>
			<polyline fill="none" stroke="#000000" stroke-linecap="round" stroke-linejoin="round" stroke-miterlimit="10" points="
				20.5,17.5 18.5,15.5 16.5,17.5 			"/>
			<circle fill="none" stroke="#000000" stroke-miterlimit="10" cx="18.5" cy="18.5" r="5"/>
		</g>
		<g>
			<path fill="none" stroke="#000000" stroke-linecap="round" stroke-linejoin="round" stroke-miterlimit="10" d="M7.5,14.514
				c0,1-1,1-2,1s-2-0.507-2-2.007s1-2.007,2-2.007s1.5,0,2,0C7.5,12.5,7.5,13.514,7.5,14.514z"/>
			<polyline fill="none" stroke="#000000" stroke-linecap="round" stroke-linejoin="round" stroke-miterlimit="10" points="
				7.5,11.5 7.5,6.5 13.5,2.5 13.5,8.5 			"/>
			<polyline fill="none" stroke="#000000" stroke-linecap="round" stroke-linejoin="round" stroke-miterlimit="10" points="
				11.5,18.5 0.5,18.5 0.5,0.5 18.5,0.5 18.5,11.5 			"/>
			<path fill="none" stroke="#000000" stroke-linecap="round" stroke-linejoin="round" stroke-miterlimit="10" d="M13.5,11.514
				c0,1-1,1-2,1s-2-0.507-2-2.007s1-2.007,2-2.007s1.5,0,2,0C13.5,9.5,13.5,10.514,13.5,11.514z"/>
		</g>
	</g>
</g>
<g id="Invisible_Shape">
	<rect fill="none" width="24" height="24"/>
</g>
</svg>
