<?xml version="1.0" encoding="utf-8"?>
<!-- Generator: Adobe Illustrator 16.0.3, SVG Export Plug-In . SVG Version: 6.00 Build 0)  -->
<!DOCTYPE svg PUBLIC "-//W3C//DTD SVG 1.1//EN" "http://www.w3.org/Graphics/SVG/1.1/DTD/svg11.dtd">
<svg version="1.1" xmlns="http://www.w3.org/2000/svg" xmlns:xlink="http://www.w3.org/1999/xlink" x="0px" y="0px" width="24px"
	 height="24px" viewBox="0 0 24 24" enable-background="new 0 0 24 24" xml:space="preserve">
<g id="Outline_Icons">
	<g>
		<g>
			<path fill="none" stroke="#000000" stroke-linejoin="round" stroke-miterlimit="10" d="M20,19.999c0,0.277-0.224,0.5-0.5,0.5l0,0
				c-0.276,0-0.5-0.223-0.5-0.5l0,0c0-0.275,0.224-0.5,0.5-0.5l0,0C19.776,19.499,20,19.724,20,19.999L20,19.999z"/>
			
				<rect x="15.5" y="17.499" fill="none" stroke="#000000" stroke-linecap="round" stroke-linejoin="round" stroke-miterlimit="10" width="8" height="6"/>
			
				<line fill="none" stroke="#000000" stroke-linecap="round" stroke-linejoin="round" stroke-miterlimit="10" x1="19.5" y1="21.499" x2="19.5" y2="20.499"/>
			<path fill="none" stroke="#000000" stroke-linecap="round" stroke-linejoin="round" stroke-miterlimit="10" d="M16.5,17.499v-1
				c0-1.656,1.343-3,3-3c1.656,0,3,1.344,3,3v1"/>
		</g>
		<g>
			<path fill="none" stroke="#000000" stroke-linecap="round" stroke-linejoin="round" stroke-miterlimit="10" d="M7.5,14.514
				c0,1-1,1-2,1s-2-0.507-2-2.007s1-2.007,2-2.007s1.5,0,2,0C7.5,12.5,7.5,13.514,7.5,14.514z"/>
			<polyline fill="none" stroke="#000000" stroke-linecap="round" stroke-linejoin="round" stroke-miterlimit="10" points="
				7.5,11.5 7.5,6.5 13.5,2.5 13.5,8.5 			"/>
			<polyline fill="none" stroke="#000000" stroke-linecap="round" stroke-linejoin="round" stroke-miterlimit="10" points="
				13.5,18.5 0.5,18.5 0.5,0.5 18.5,0.5 18.5,11.5 			"/>
			<path fill="none" stroke="#000000" stroke-linecap="round" stroke-linejoin="round" stroke-miterlimit="10" d="M13.5,11.514
				c0,1-1,1-2,1s-2-0.507-2-2.007s1-2.007,2-2.007s1.5,0,2,0C13.5,9.5,13.5,10.514,13.5,11.514z"/>
		</g>
	</g>
</g>
<g id="Invisible_Shape">
	<rect fill="none" width="24" height="24"/>
</g>
</svg>
