<?xml version="1.0" encoding="utf-8"?>
<!-- Generator: Adobe Illustrator 16.0.3, SVG Export Plug-In . SVG Version: 6.00 Build 0)  -->
<!DOCTYPE svg PUBLIC "-//W3C//DTD SVG 1.1//EN" "http://www.w3.org/Graphics/SVG/1.1/DTD/svg11.dtd">
<svg version="1.1" xmlns="http://www.w3.org/2000/svg" xmlns:xlink="http://www.w3.org/1999/xlink" x="0px" y="0px" width="24px"
	 height="24px" viewBox="0 0 24 24" enable-background="new 0 0 24 24" xml:space="preserve">
<g id="Outline_Icons">
	<g>
		<circle fill="none" stroke="#000000" stroke-linejoin="round" stroke-miterlimit="10" cx="12" cy="12" r="2"/>
		<circle fill="none" stroke="#000000" stroke-linejoin="round" stroke-miterlimit="10" cx="12" cy="12" r="8.5"/>
		<path fill="none" stroke="#000000" stroke-linejoin="round" stroke-miterlimit="10" d="M20.971,17.436
			C21.935,15.849,22.5,13.992,22.5,12s-0.565-3.849-1.529-5.436l1.797-1.797c0.977-0.977,0.977-2.559,0-3.535s-2.559-0.977-3.535,0
			l-1.797,1.797C15.849,2.065,13.992,1.5,12,1.5S8.151,2.065,6.564,3.029L4.768,1.232c-0.977-0.977-2.559-0.977-3.535,0
			s-0.977,2.559,0,3.535l1.797,1.797C2.064,8.151,1.5,10.008,1.5,12s0.564,3.849,1.529,5.436l-1.797,1.797
			c-0.977,0.977-0.977,2.559,0,3.535s2.559,0.977,3.535,0l1.797-1.797C8.151,21.934,10.008,22.5,12,22.5s3.849-0.566,5.436-1.529
			l1.797,1.797c0.977,0.977,2.559,0.977,3.535,0s0.977-2.559,0-3.535L20.971,17.436z"/>
		<path fill="none" stroke="#000000" stroke-linejoin="round" stroke-miterlimit="10" d="M3.5,3c0,0.276-0.224,0.5-0.5,0.5l0,0
			C2.724,3.5,2.5,3.276,2.5,3l0,0c0-0.276,0.224-0.5,0.5-0.5l0,0C3.276,2.5,3.5,2.724,3.5,3L3.5,3z"/>
		<path fill="none" stroke="#000000" stroke-linejoin="round" stroke-miterlimit="10" d="M21.5,3c0,0.276-0.224,0.5-0.5,0.5l0,0
			c-0.276,0-0.5-0.224-0.5-0.5l0,0c0-0.276,0.224-0.5,0.5-0.5l0,0C21.276,2.5,21.5,2.724,21.5,3L21.5,3z"/>
		<path fill="none" stroke="#000000" stroke-linejoin="round" stroke-miterlimit="10" d="M21.5,21c0,0.276-0.224,0.5-0.5,0.5l0,0
			c-0.276,0-0.5-0.224-0.5-0.5l0,0c0-0.276,0.224-0.5,0.5-0.5l0,0C21.276,20.5,21.5,20.724,21.5,21L21.5,21z"/>
		<path fill="none" stroke="#000000" stroke-linejoin="round" stroke-miterlimit="10" d="M3.5,21c0,0.276-0.224,0.5-0.5,0.5l0,0
			c-0.276,0-0.5-0.224-0.5-0.5l0,0c0-0.276,0.224-0.5,0.5-0.5l0,0C3.276,20.5,3.5,20.724,3.5,21L3.5,21z"/>
	</g>
</g>
<g id="Invisible_Shape">
	<rect fill="none" width="24" height="24"/>
</g>
</svg>
