<?xml version="1.0" encoding="utf-8"?>
<!-- Generator: Adobe Illustrator 16.0.3, SVG Export Plug-In . SVG Version: 6.00 Build 0)  -->
<!DOCTYPE svg PUBLIC "-//W3C//DTD SVG 1.1//EN" "http://www.w3.org/Graphics/SVG/1.1/DTD/svg11.dtd">
<svg version="1.1" xmlns="http://www.w3.org/2000/svg" xmlns:xlink="http://www.w3.org/1999/xlink" x="0px" y="0px" width="24px"
	 height="24px" viewBox="0 0 24 24" enable-background="new 0 0 24 24" xml:space="preserve">
<g id="Outline_Icons">
	<g>
		<circle fill="none" stroke="#000000" stroke-linejoin="round" stroke-miterlimit="10" cx="11.99" cy="5.997" r="1.5"/>
		<circle fill="none" stroke="#000000" stroke-linejoin="round" stroke-miterlimit="10" cx="11.99" cy="14.997" r="5.5"/>
		<circle fill="none" stroke="#000000" stroke-linejoin="round" stroke-miterlimit="10" cx="11.99" cy="14.997" r="2"/>
		<path fill="none" stroke="#000000" stroke-linejoin="round" stroke-miterlimit="10" d="M20.5,21.497c0,1.099-0.9,2.001-2,2.003
			l-13,0.023c-1.1,0.002-2-0.896-2-1.995v-19c0-1.101,0.9-2.003,2-2.005l13-0.023c1.1-0.002,2,0.896,2,1.997V21.497z"/>
		<path fill="none" stroke="#000000" stroke-linejoin="round" stroke-miterlimit="10" d="M6.5,3c0,0.276-0.224,0.5-0.5,0.5l0,0
			C5.724,3.5,5.5,3.276,5.5,3l0,0c0-0.276,0.224-0.5,0.5-0.5l0,0C6.276,2.5,6.5,2.724,6.5,3L6.5,3z"/>
		<path fill="none" stroke="#000000" stroke-linejoin="round" stroke-miterlimit="10" d="M18.5,3c0,0.276-0.224,0.5-0.5,0.5l0,0
			c-0.276,0-0.5-0.224-0.5-0.5l0,0c0-0.276,0.224-0.5,0.5-0.5l0,0C18.276,2.5,18.5,2.724,18.5,3L18.5,3z"/>
		<path fill="none" stroke="#000000" stroke-linejoin="round" stroke-miterlimit="10" d="M18.5,21c0,0.276-0.224,0.5-0.5,0.5l0,0
			c-0.276,0-0.5-0.224-0.5-0.5l0,0c0-0.276,0.224-0.5,0.5-0.5l0,0C18.276,20.5,18.5,20.724,18.5,21L18.5,21z"/>
		<path fill="none" stroke="#000000" stroke-linejoin="round" stroke-miterlimit="10" d="M6.5,21c0,0.276-0.224,0.5-0.5,0.5l0,0
			c-0.276,0-0.5-0.224-0.5-0.5l0,0c0-0.276,0.224-0.5,0.5-0.5l0,0C6.276,20.5,6.5,20.724,6.5,21L6.5,21z"/>
	</g>
</g>
<g id="Invisible_Shape">
	<rect fill="none" width="24" height="24"/>
</g>
</svg>
