<?xml version="1.0" encoding="utf-8"?>
<!-- Generator: Adobe Illustrator 16.0.3, SVG Export Plug-In . SVG Version: 6.00 Build 0)  -->
<!DOCTYPE svg PUBLIC "-//W3C//DTD SVG 1.1//EN" "http://www.w3.org/Graphics/SVG/1.1/DTD/svg11.dtd">
<svg version="1.1" xmlns="http://www.w3.org/2000/svg" xmlns:xlink="http://www.w3.org/1999/xlink" x="0px" y="0px" width="24px"
	 height="24px" viewBox="0 0 24 24" enable-background="new 0 0 24 24" xml:space="preserve">
<g id="Outline_Icons">
	<g>
		<path fill="none" stroke="#000000" stroke-linejoin="round" stroke-miterlimit="10" d="M23.5,19.5c0,2.199-1.8,4-4,4h-15
			c-2.2,0-4-1.801-4-4v-15c0-2.201,1.8-4,4-4h15c2.2,0,4,1.799,4,4V19.5z"/>
		<circle fill="none" stroke="#000000" stroke-linejoin="round" stroke-miterlimit="10" cx="12" cy="12" r="2"/>
		<circle fill="none" stroke="#000000" stroke-linejoin="round" stroke-miterlimit="10" cx="12" cy="12" r="6.5"/>
		<circle fill="none" stroke="#000000" stroke-linejoin="round" stroke-miterlimit="10" cx="12" cy="12" r="9"/>
		<path fill="none" stroke="#000000" stroke-linejoin="round" stroke-miterlimit="10" d="M4,4c0,0.276-0.224,0.5-0.5,0.5l0,0
			C3.224,4.5,3,4.276,3,4l0,0c0-0.276,0.224-0.5,0.5-0.5l0,0C3.776,3.5,4,3.724,4,4L4,4z"/>
		<path fill="none" stroke="#000000" stroke-linejoin="round" stroke-miterlimit="10" d="M21,4c0,0.276-0.224,0.5-0.5,0.5l0,0
			C20.224,4.5,20,4.276,20,4l0,0c0-0.276,0.224-0.5,0.5-0.5l0,0C20.776,3.5,21,3.724,21,4L21,4z"/>
		<path fill="none" stroke="#000000" stroke-linejoin="round" stroke-miterlimit="10" d="M21,20.5c0,0.276-0.224,0.5-0.5,0.5l0,0
			c-0.276,0-0.5-0.224-0.5-0.5l0,0c0-0.276,0.224-0.5,0.5-0.5l0,0C20.776,20,21,20.224,21,20.5L21,20.5z"/>
		<path fill="none" stroke="#000000" stroke-linejoin="round" stroke-miterlimit="10" d="M4,20.5C4,20.776,3.776,21,3.5,21l0,0
			C3.224,21,3,20.776,3,20.5l0,0C3,20.224,3.224,20,3.5,20l0,0C3.776,20,4,20.224,4,20.5L4,20.5z"/>
	</g>
</g>
<g id="Invisible_Shape">
	<rect fill="none" width="24" height="24"/>
</g>
</svg>
