<?xml version="1.0" encoding="utf-8"?>
<!-- Generator: Adobe Illustrator 16.0.3, SVG Export Plug-In . SVG Version: 6.00 Build 0)  -->
<!DOCTYPE svg PUBLIC "-//W3C//DTD SVG 1.1//EN" "http://www.w3.org/Graphics/SVG/1.1/DTD/svg11.dtd">
<svg version="1.1" xmlns="http://www.w3.org/2000/svg" xmlns:xlink="http://www.w3.org/1999/xlink" x="0px" y="0px" width="24px"
	 height="24px" viewBox="0 0 24 24" enable-background="new 0 0 24 24" xml:space="preserve">
<g id="Outline_Icons">
	<g>
		<path fill="none" stroke="#000000" stroke-linejoin="round" stroke-miterlimit="10" d="M23.5,16.434
			c0,0.455-0.307,0.853-0.748,0.967l-21,5.479C1.118,23.045,0.5,22.566,0.5,21.911V1.5c0-0.655,0.623-1.133,1.252-0.968l21,5.479
			C23.193,6.126,23.5,6.523,23.5,6.979V16.434z"/>
		<line fill="none" stroke="#000000" stroke-linejoin="round" stroke-miterlimit="10" x1="6.5" y1="21.706" x2="6.5" y2="1.771"/>
		
			<line fill="none" stroke="#000000" stroke-linecap="round" stroke-linejoin="round" stroke-miterlimit="10" x1="12.5" y1="20.075" x2="12.5" y2="16.706"/>
		
			<line fill="none" stroke="#000000" stroke-linecap="round" stroke-linejoin="round" stroke-miterlimit="10" x1="12.5" y1="6.706" x2="12.5" y2="3.336"/>
		<line fill="none" stroke="#000000" stroke-linejoin="round" stroke-miterlimit="10" x1="18.5" y1="18.51" x2="18.5" y2="4.901"/>
		
			<line fill="none" stroke="#000000" stroke-linecap="round" stroke-linejoin="round" stroke-miterlimit="10" x1="14.055" y1="13.76" x2="23.448" y2="23.186"/>
		<circle fill="none" stroke="#000000" stroke-linejoin="round" stroke-miterlimit="10" cx="11.933" cy="11.639" r="3"/>
		<g>
			<path d="M3.5,2.706c-0.276,0-0.5,0.224-0.5,0.5c0,0.275,0.224,0.5,0.5,0.5S4,3.481,4,3.206C4,2.93,3.776,2.706,3.5,2.706
				L3.5,2.706z"/>
		</g>
		<g>
			<path d="M9.5,4.706c-0.276,0-0.5,0.224-0.5,0.5c0,0.275,0.224,0.5,0.5,0.5s0.5-0.225,0.5-0.5C10,4.93,9.776,4.706,9.5,4.706
				L9.5,4.706z"/>
		</g>
		<g>
			<path d="M9.5,17.706c-0.276,0-0.5,0.224-0.5,0.5c0,0.275,0.224,0.5,0.5,0.5s0.5-0.225,0.5-0.5C10,17.93,9.776,17.706,9.5,17.706
				L9.5,17.706z"/>
		</g>
		<g>
			<path d="M15.5,16.706c-0.276,0-0.5,0.224-0.5,0.5c0,0.275,0.224,0.5,0.5,0.5s0.5-0.225,0.5-0.5
				C16,16.93,15.776,16.706,15.5,16.706L15.5,16.706z"/>
		</g>
		<g>
			<path d="M15.5,5.706c-0.276,0-0.5,0.224-0.5,0.5c0,0.275,0.224,0.5,0.5,0.5s0.5-0.225,0.5-0.5C16,5.93,15.776,5.706,15.5,5.706
				L15.5,5.706z"/>
		</g>
		<g>
			<path d="M21,6.706c-0.276,0-0.5,0.224-0.5,0.5c0,0.275,0.224,0.5,0.5,0.5s0.5-0.225,0.5-0.5C21.5,6.93,21.276,6.706,21,6.706
				L21,6.706z"/>
		</g>
		<g>
			<path d="M21,15.706c-0.276,0-0.5,0.224-0.5,0.5c0,0.275,0.224,0.5,0.5,0.5s0.5-0.225,0.5-0.5C21.5,15.93,21.276,15.706,21,15.706
				L21,15.706z"/>
		</g>
		<g>
			<path d="M3.5,19.706c-0.276,0-0.5,0.224-0.5,0.5c0,0.275,0.224,0.5,0.5,0.5s0.5-0.225,0.5-0.5C4,19.93,3.776,19.706,3.5,19.706
				L3.5,19.706z"/>
		</g>
	</g>
</g>
<g id="Invisible_Shape">
	<rect fill="none" width="24" height="24"/>
</g>
</svg>
