<?xml version="1.0" encoding="utf-8"?>
<!-- Generator: Adobe Illustrator 16.0.3, SVG Export Plug-In . SVG Version: 6.00 Build 0)  -->
<!DOCTYPE svg PUBLIC "-//W3C//DTD SVG 1.1//EN" "http://www.w3.org/Graphics/SVG/1.1/DTD/svg11.dtd">
<svg version="1.1" xmlns="http://www.w3.org/2000/svg" xmlns:xlink="http://www.w3.org/1999/xlink" x="0px" y="0px" width="24px"
	 height="24px" viewBox="0 0 24 24" enable-background="new 0 0 24 24" xml:space="preserve">
<g id="Outline_Icons">
	<g>
		<g>
			<path fill="none" stroke="#000000" stroke-linecap="round" stroke-linejoin="round" stroke-miterlimit="10" d="M22.5,16.911
				c0,0.878-0.671,1.589-1.5,1.589H2c-0.829,0-1.5-0.71-1.5-1.589V2.089C0.5,1.211,1.171,0.5,2,0.5h19c0.829,0,1.5,0.711,1.5,1.589
				V16.911z"/>
			
				<line fill="none" stroke="#000000" stroke-linecap="round" stroke-linejoin="round" stroke-miterlimit="10" x1="5" y1="20.5" x2="18" y2="20.5"/>
			
				<line fill="none" stroke="#000000" stroke-linecap="round" stroke-linejoin="round" stroke-miterlimit="10" x1="11.5" y1="18.5" x2="11.5" y2="20.5"/>
			<circle fill="none" stroke="#000000" stroke-linejoin="round" stroke-miterlimit="10" cx="11.5" cy="16.5" r="0.5"/>
			<line fill="none" stroke="#000000" stroke-linejoin="round" stroke-miterlimit="10" x1="0.5" y1="14.5" x2="22.5" y2="14.5"/>
		</g>
		<g>
			<g>
				<polygon points="6,12 5,12 5,13 6,13 6,12 				"/>
			</g>
			<g>
				<polygon points="8,12 7,12 7,13 8,13 8,12 				"/>
			</g>
			<g>
				<polygon points="10,12 9,12 9,13 10,13 10,12 				"/>
			</g>
			<g>
				<polygon points="12,12 11,12 11,13 12,13 12,12 				"/>
			</g>
			<g>
				<polygon points="14,12 13,12 13,13 14,13 14,12 				"/>
			</g>
			<g>
				<polygon points="16,12 15,12 15,13 16,13 16,12 				"/>
			</g>
			<g>
				<polygon points="18,12 17,12 17,13 18,13 18,12 				"/>
			</g>
			<g>
				<polygon points="7,11 6,11 6,12 7,12 7,11 				"/>
			</g>
			<g>
				<polygon points="9,11 8,11 8,12 9,12 9,11 				"/>
			</g>
			<g>
				<polygon points="11,11 10,11 10,12 11,12 11,11 				"/>
			</g>
			<g>
				<polygon points="13,11 12,11 12,12 13,12 13,11 				"/>
			</g>
			<g>
				<polygon points="15,11 14,11 14,12 15,12 15,11 				"/>
			</g>
			<g>
				<polygon points="17,11 16,11 16,12 17,12 17,11 				"/>
			</g>
			<g>
				<polygon points="6,10 5,10 5,11 6,11 6,10 				"/>
			</g>
			<g>
				<polygon points="8,10 7,10 7,11 8,11 8,10 				"/>
			</g>
			<g>
				<polygon points="10,10 9,10 9,11 10,11 10,10 				"/>
			</g>
			<g>
				<polygon points="12,10 11,10 11,11 12,11 12,10 				"/>
			</g>
			<g>
				<polygon points="14,10 13,10 13,11 14,11 14,10 				"/>
			</g>
			<g>
				<polygon points="16,10 15,10 15,11 16,11 16,10 				"/>
			</g>
			<g>
				<polygon points="18,10 17,10 17,11 18,11 18,10 				"/>
			</g>
			<g>
				<polygon points="7,9 6,9 6,10 7,10 7,9 				"/>
			</g>
			<g>
				<polygon points="9,9 8,9 8,10 9,10 9,9 				"/>
			</g>
			<g>
				<polygon points="11,9 10,9 10,10 11,10 11,9 				"/>
			</g>
			<g>
				<polygon points="13,9 12,9 12,10 13,10 13,9 				"/>
			</g>
			<g>
				<polygon points="15,9 14,9 14,10 15,10 15,9 				"/>
			</g>
			<g>
				<polygon points="17,9 16,9 16,10 17,10 17,9 				"/>
			</g>
			<g>
				<polygon points="6,8 5,8 5,9 6,9 6,8 				"/>
			</g>
			<g>
				<polygon points="8,8 7,8 7,9 8,9 8,8 				"/>
			</g>
			<g>
				<polygon points="10,8 9,8 9,9 10,9 10,8 				"/>
			</g>
			<g>
				<polygon points="12,8 11,8 11,9 12,9 12,8 				"/>
			</g>
			<g>
				<polygon points="14,8 13,8 13,9 14,9 14,8 				"/>
			</g>
			<g>
				<polygon points="16,8 15,8 15,9 16,9 16,8 				"/>
			</g>
			<g>
				<polygon points="18,8 17,8 17,9 18,9 18,8 				"/>
			</g>
			<g>
				<polygon points="7,7 6,7 6,8 7,8 7,7 				"/>
			</g>
			<g>
				<polygon points="9,7 8,7 8,8 9,8 9,7 				"/>
			</g>
			<g>
				<polygon points="11,7 10,7 10,8 11,8 11,7 				"/>
			</g>
			<g>
				<polygon points="13,7 12,7 12,8 13,8 13,7 				"/>
			</g>
			<g>
				<polygon points="15,7 14,7 14,8 15,8 15,7 				"/>
			</g>
			<g>
				<polygon points="17,7 16,7 16,8 17,8 17,7 				"/>
			</g>
			<g>
				<polygon points="6,6 5,6 5,7 6,7 6,6 				"/>
			</g>
			<g>
				<polygon points="8,6 7,6 7,7 8,7 8,6 				"/>
			</g>
			<g>
				<polygon points="10,6 9,6 9,7 10,7 10,6 				"/>
			</g>
			<g>
				<polygon points="12,6 11,6 11,7 12,7 12,6 				"/>
			</g>
			<g>
				<polygon points="14,6 13,6 13,7 14,7 14,6 				"/>
			</g>
			<g>
				<polygon points="16,6 15,6 15,7 16,7 16,6 				"/>
			</g>
			<g>
				<polygon points="18,6 17,6 17,7 18,7 18,6 				"/>
			</g>
			<g>
				<polygon points="7,5 6,5 6,6 7,6 7,5 				"/>
			</g>
			<g>
				<polygon points="9,5 8,5 8,6 9,6 9,5 				"/>
			</g>
			<g>
				<polygon points="11,5 10,5 10,6 11,6 11,5 				"/>
			</g>
			<g>
				<polygon points="13,5 12,5 12,6 13,6 13,5 				"/>
			</g>
			<g>
				<polygon points="15,5 14,5 14,6 15,6 15,5 				"/>
			</g>
			<g>
				<polygon points="17,5 16,5 16,6 17,6 17,5 				"/>
			</g>
			<g>
				<polygon points="6,4 5,4 5,5 6,5 6,4 				"/>
			</g>
			<g>
				<polygon points="8,4 7,4 7,5 8,5 8,4 				"/>
			</g>
			<g>
				<polygon points="10,4 9,4 9,5 10,5 10,4 				"/>
			</g>
			<g>
				<polygon points="12,4 11,4 11,5 12,5 12,4 				"/>
			</g>
			<g>
				<polygon points="14,4 13,4 13,5 14,5 14,4 				"/>
			</g>
			<g>
				<polygon points="16,4 15,4 15,5 16,5 16,4 				"/>
			</g>
			<g>
				<polygon points="18,4 17,4 17,5 18,5 18,4 				"/>
			</g>
			<g>
				<polygon points="7,3 6,3 6,4 7,4 7,3 				"/>
			</g>
			<g>
				<polygon points="9,3 8,3 8,4 9,4 9,3 				"/>
			</g>
			<g>
				<polygon points="11,3 10,3 10,4 11,4 11,3 				"/>
			</g>
			<g>
				<polygon points="13,3 12,3 12,4 13,4 13,3 				"/>
			</g>
			<g>
				<polygon points="15,3 14,3 14,4 15,4 15,3 				"/>
			</g>
			<g>
				<polygon points="17,3 16,3 16,4 17,4 17,3 				"/>
			</g>
			<g>
				<polygon points="6,2 5,2 5,3 6,3 6,2 				"/>
			</g>
			<g>
				<polygon points="8,2 7,2 7,3 8,3 8,2 				"/>
			</g>
			<g>
				<polygon points="10,2 9,2 9,3 10,3 10,2 				"/>
			</g>
			<g>
				<polygon points="12,2 11,2 11,3 12,3 12,2 				"/>
			</g>
			<g>
				<polygon points="14,2 13,2 13,3 14,3 14,2 				"/>
			</g>
			<g>
				<polygon points="16,2 15,2 15,3 16,3 16,2 				"/>
			</g>
			<g>
				<polygon points="18,2 17,2 17,3 18,3 18,2 				"/>
			</g>
		</g>
	</g>
</g>
<g id="Invisible_Shape">
	<rect x="0" fill="none" width="24" height="24"/>
</g>
</svg>
