<?xml version="1.0" encoding="utf-8"?>
<!-- Generator: Adobe Illustrator 16.0.3, SVG Export Plug-In . SVG Version: 6.00 Build 0)  -->
<!DOCTYPE svg PUBLIC "-//W3C//DTD SVG 1.1//EN" "http://www.w3.org/Graphics/SVG/1.1/DTD/svg11.dtd">
<svg version="1.1" xmlns="http://www.w3.org/2000/svg" xmlns:xlink="http://www.w3.org/1999/xlink" x="0px" y="0px" width="24px"
	 height="24px" viewBox="0 0 24 24" enable-background="new 0 0 24 24" xml:space="preserve">
<g id="Outline_Icons">
	<g>
		<path fill="none" stroke="#000000" stroke-linecap="round" stroke-linejoin="round" stroke-miterlimit="10" d="M13.5,13.456
			c-0.828,0-2,0.671-2,1.5v7.5c0,0.553,1.107,1.044,1.659,1.044h1c0.552,0,1.341-0.491,1.341-1.044v-7.5
			C15.5,14.127,14.328,13.456,13.5,13.456z"/>
		<path fill="none" stroke="#000000" stroke-linecap="round" stroke-linejoin="round" stroke-miterlimit="10" d="M5.5,3.5h-1
			c-0.55,0-1,0.451-1,1v4c0,0.55,0.45,1,1,1h8c0.55,0,1,0.451,1,1v2.938"/>
		
			<rect x="5.5" y="0.5" fill="none" stroke="#000000" stroke-linecap="round" stroke-linejoin="round" stroke-miterlimit="10" width="15" height="6"/>
		
			<line fill="none" stroke="#000000" stroke-linecap="round" stroke-linejoin="round" stroke-miterlimit="10" x1="20.5" y1="3.5" x2="21.5" y2="3.5"/>
	</g>
</g>
<g id="Invisible_Shape">
	<rect x="0" fill="none" width="24" height="24"/>
</g>
</svg>
