<?xml version="1.0" encoding="utf-8"?>
<!-- Generator: Adobe Illustrator 16.0.3, SVG Export Plug-In . SVG Version: 6.00 Build 0)  -->
<!DOCTYPE svg PUBLIC "-//W3C//DTD SVG 1.1//EN" "http://www.w3.org/Graphics/SVG/1.1/DTD/svg11.dtd">
<svg version="1.1" xmlns="http://www.w3.org/2000/svg" xmlns:xlink="http://www.w3.org/1999/xlink" x="0px" y="0px" width="24px"
	 height="24px" viewBox="0 0 24 24" enable-background="new 0 0 24 24" xml:space="preserve">
<g id="Outline_Icons">
	<g>
		<path fill="none" stroke="#000000" stroke-linecap="round" stroke-linejoin="round" stroke-miterlimit="10" d="M14.977,10.5
			c-0.706,0-1.191-0.713-0.928-1.372C14.348,8.383,14.5,7.587,14.5,6.786V3c0-1.381-1.119-2.5-2.5-2.5S9.5,1.619,9.5,3v3.786
			c0,0.802,0.153,1.597,0.451,2.343c0.263,0.654-0.22,1.372-0.928,1.372H4c-0.828,0-1.5,0.671-1.5,1.5v3.5h19V12
			c0-0.829-0.672-1.5-1.5-1.5H14.977z"/>
		<polygon fill="none" stroke="#000000" stroke-linecap="round" stroke-linejoin="round" stroke-miterlimit="10" points="20.5,23.5 
			8.5,23.5 8.5,19.5 6.5,23.5 3.5,23.5 3.5,15.5 20.5,15.5 		"/>
		
			<line fill="none" stroke="#000000" stroke-linecap="round" stroke-linejoin="round" stroke-miterlimit="10" x1="18.5" y1="18.5" x2="18.5" y2="23.5"/>
		
			<line fill="none" stroke="#000000" stroke-linecap="round" stroke-linejoin="round" stroke-miterlimit="10" x1="16.5" y1="19.5" x2="16.5" y2="23.5"/>
		
			<line fill="none" stroke="#000000" stroke-linecap="round" stroke-linejoin="round" stroke-miterlimit="10" x1="14.5" y1="21" x2="14.5" y2="23.5"/>
		
			<circle fill="none" stroke="#000000" stroke-linecap="round" stroke-linejoin="round" stroke-miterlimit="10" cx="12" cy="3" r="0.5"/>
	</g>
</g>
<g id="Invisible_Shape">
	<rect x="0" fill="none" width="24" height="24"/>
</g>
</svg>
