<?xml version="1.0" encoding="utf-8"?>
<!-- Generator: Adobe Illustrator 16.0.3, SVG Export Plug-In . SVG Version: 6.00 Build 0)  -->
<!DOCTYPE svg PUBLIC "-//W3C//DTD SVG 1.1//EN" "http://www.w3.org/Graphics/SVG/1.1/DTD/svg11.dtd">
<svg version="1.1" xmlns="http://www.w3.org/2000/svg" xmlns:xlink="http://www.w3.org/1999/xlink" x="0px" y="0px" width="24px"
	 height="24px" viewBox="0 0 24 24" enable-background="new 0 0 24 24" xml:space="preserve">
<g id="Outline_Icons">
	<g>
		<path fill="none" stroke="#000000" stroke-linecap="round" stroke-linejoin="round" stroke-miterlimit="10" d="M11.312,14.487
			C5.281,14.049,0.5,8.011,0.5,8.011s5.148-6.5,11.5-6.5s11.5,6.5,11.5,6.5s-1.405,1.776-3.653,3.47"/>
		
			<circle fill="none" stroke="#000000" stroke-linecap="round" stroke-linejoin="round" stroke-miterlimit="10" cx="12" cy="8.011" r="4"/>
		<path fill="none" stroke="#000000" stroke-linecap="round" stroke-linejoin="round" stroke-miterlimit="10" d="M12,6.011
			c1.104,0,2,0.896,2,2c0,1.105-0.896,2-2,2s-2-0.895-2-2"/>
		<g>
			
				<rect x="12.5" y="16.5" fill="none" stroke="#000000" stroke-linecap="round" stroke-linejoin="round" stroke-miterlimit="10" width="9" height="7"/>
			
				<line fill="none" stroke="#000000" stroke-linecap="round" stroke-linejoin="round" stroke-miterlimit="10" x1="17" y1="21.5" x2="17" y2="19.5"/>
			<path fill="none" stroke="#000000" stroke-linecap="round" stroke-linejoin="round" stroke-miterlimit="10" d="M14,16.5v-1
				c0-1.657,1.343-3,3-3c1.656,0,3,1.343,3,3v1"/>
			<path fill="none" stroke="#000000" stroke-linejoin="round" stroke-miterlimit="10" d="M17.5,19c0,0.277-0.224,0.5-0.5,0.5l0,0
				c-0.276,0-0.5-0.223-0.5-0.5l0,0c0-0.276,0.224-0.5,0.5-0.5l0,0C17.276,18.5,17.5,18.724,17.5,19L17.5,19z"/>
		</g>
	</g>
</g>
<g id="Invisible_Shape">
	<rect x="0" fill="none" width="24" height="24"/>
</g>
</svg>
