<?xml version="1.0" encoding="utf-8"?>
<!-- Generator: Adobe Illustrator 16.0.3, SVG Export Plug-In . SVG Version: 6.00 Build 0)  -->
<!DOCTYPE svg PUBLIC "-//W3C//DTD SVG 1.1//EN" "http://www.w3.org/Graphics/SVG/1.1/DTD/svg11.dtd">
<svg version="1.1" xmlns="http://www.w3.org/2000/svg" xmlns:xlink="http://www.w3.org/1999/xlink" x="0px" y="0px" width="24px"
	 height="24px" viewBox="0 0 24 24" enable-background="new 0 0 24 24" xml:space="preserve">
<g id="Outline_Icons">
	<g>
		<g>
			<polygon fill="none" stroke="#000000" stroke-linejoin="round" stroke-miterlimit="10" points="17.5,12.5 13.5,6.5 15.5,6.5 
				11.5,0.5 7.5,6.5 9.5,6.5 5.5,12.5 8.5,12.5 4,18.5 19,18.5 14.5,12.5 			"/>
			
				<line fill="none" stroke="#000000" stroke-linecap="round" stroke-linejoin="round" stroke-miterlimit="10" x1="11.5" y1="18.5" x2="11.5" y2="23.5"/>
		</g>
		<g>
			<path d="M11.5,11c-0.276,0-0.5,0.225-0.5,0.5c0,0.277,0.224,0.5,0.5,0.5c0.275,0,0.5-0.223,0.5-0.5C12,11.225,11.775,11,11.5,11
				L11.5,11z"/>
		</g>
		<g>
			<path d="M14.5,16c-0.276,0-0.5,0.225-0.5,0.5c0,0.277,0.224,0.5,0.5,0.5c0.275,0,0.5-0.223,0.5-0.5C15,16.225,14.775,16,14.5,16
				L14.5,16z"/>
		</g>
		<g>
			<path d="M9.5,10C9.224,10,9,10.225,9,10.5C9,10.777,9.224,11,9.5,11c0.275,0,0.5-0.223,0.5-0.5C10,10.225,9.775,10,9.5,10L9.5,10
				z"/>
		</g>
		<g>
			<path d="M11.5,4C11.224,4,11,4.225,11,4.5C11,4.777,11.224,5,11.5,5C11.775,5,12,4.777,12,4.5C12,4.225,11.775,4,11.5,4L11.5,4z"
				/>
		</g>
		<g>
			<path d="M13.5,14c-0.276,0-0.5,0.225-0.5,0.5c0,0.277,0.224,0.5,0.5,0.5c0.275,0,0.5-0.223,0.5-0.5C14,14.225,13.775,14,13.5,14
				L13.5,14z"/>
		</g>
		<g>
			<path d="M13.5,10c-0.276,0-0.5,0.225-0.5,0.5c0,0.277,0.224,0.5,0.5,0.5c0.275,0,0.5-0.223,0.5-0.5C14,10.225,13.775,10,13.5,10
				L13.5,10z"/>
		</g>
		<g>
			<path d="M7.5,16C7.224,16,7,16.225,7,16.5C7,16.777,7.224,17,7.5,17C7.775,17,8,16.777,8,16.5C8,16.225,7.775,16,7.5,16L7.5,16z"
				/>
		</g>
		<g>
			<path d="M10.5,16c-0.276,0-0.5,0.225-0.5,0.5c0,0.277,0.224,0.5,0.5,0.5c0.275,0,0.5-0.223,0.5-0.5C11,16.225,10.775,16,10.5,16
				L10.5,16z"/>
		</g>
		<g>
			<path d="M11.5,6C11.224,6,11,6.225,11,6.5C11,6.777,11.224,7,11.5,7C11.775,7,12,6.777,12,6.5C12,6.225,11.775,6,11.5,6L11.5,6z"
				/>
		</g>
		
			<line fill="none" stroke="#000000" stroke-linejoin="round" stroke-miterlimit="10" x1="7.396" y1="9.656" x2="14.329" y2="7.744"/>
		
			<line fill="none" stroke="#000000" stroke-linejoin="round" stroke-miterlimit="10" x1="6.729" y1="14.875" x2="14.664" y2="12.719"/>
	</g>
</g>
<g id="invisible_shape">
	<rect fill="none" width="24" height="24"/>
</g>
</svg>
