<?xml version="1.0" encoding="utf-8"?>
<!-- Generator: Adobe Illustrator 16.0.3, SVG Export Plug-In . SVG Version: 6.00 Build 0)  -->
<!DOCTYPE svg PUBLIC "-//W3C//DTD SVG 1.1//EN" "http://www.w3.org/Graphics/SVG/1.1/DTD/svg11.dtd">
<svg version="1.1" xmlns="http://www.w3.org/2000/svg" xmlns:xlink="http://www.w3.org/1999/xlink" x="0px" y="0px" width="24px"
	 height="24px" viewBox="0 0 24 24" enable-background="new 0 0 24 24" xml:space="preserve">
<g id="Outline_Icons">
	<g>
		<path fill="none" stroke="#000000" stroke-linecap="round" stroke-linejoin="round" stroke-miterlimit="10" d="M14.81,0.69
			C14.357,0.239,13.215,0.618,12,1.533C10.785,0.618,9.642,0.239,9.189,0.69C8.738,1.142,9.118,2.286,10.033,3.5
			C9.118,4.714,8.738,5.858,9.189,6.31C9.642,6.761,10.785,6.382,12,5.467c1.215,0.915,2.357,1.294,2.81,0.843
			s0.072-1.596-0.843-2.81C14.882,2.286,15.262,1.142,14.81,0.69z"/>
		<g>
			
				<line fill="none" stroke="#000000" stroke-linejoin="round" stroke-miterlimit="10" x1="18.155" y1="19.004" x2="16.377" y2="14.671"/>
			<polyline fill="none" stroke="#000000" stroke-linejoin="round" stroke-miterlimit="10" points="6.167,23.5 4.5,23.5 
				6.466,18.388 			"/>
			
				<line fill="none" stroke="#000000" stroke-linejoin="round" stroke-miterlimit="10" x1="8.713" y1="12.545" x2="6.466" y2="18.388"/>
			
				<line fill="none" stroke="#000000" stroke-linejoin="round" stroke-miterlimit="10" x1="14.6" y1="10.338" x2="16.377" y2="14.671"/>
			<polyline fill="none" stroke="#000000" stroke-linejoin="round" stroke-miterlimit="10" points="6.167,23.5 20,23.5 
				18.155,19.004 			"/>
			
				<line fill="none" stroke="#000000" stroke-linejoin="round" stroke-miterlimit="10" x1="12.852" y1="6.077" x2="14.6" y2="10.338"/>
			
				<line fill="none" stroke="#000000" stroke-linejoin="round" stroke-miterlimit="10" x1="11.178" y1="6.137" x2="8.713" y2="12.545"/>
			
				<line fill="none" stroke="#000000" stroke-linejoin="round" stroke-miterlimit="10" x1="6.167" y1="23.5" x2="18.155" y2="19.004"/>
			
				<line fill="none" stroke="#000000" stroke-linejoin="round" stroke-miterlimit="10" x1="6.466" y1="18.388" x2="16.377" y2="14.671"/>
			
				<line fill="none" stroke="#000000" stroke-linejoin="round" stroke-miterlimit="10" x1="14.6" y1="10.338" x2="8.713" y2="12.545"/>
		</g>
	</g>
</g>
<g id="invisible_shape">
	<rect fill="none" width="24" height="24"/>
</g>
</svg>
