<?xml version="1.0" encoding="utf-8"?>
<!-- Generator: Adobe Illustrator 16.0.3, SVG Export Plug-In . SVG Version: 6.00 Build 0)  -->
<!DOCTYPE svg PUBLIC "-//W3C//DTD SVG 1.1//EN" "http://www.w3.org/Graphics/SVG/1.1/DTD/svg11.dtd">
<svg version="1.1" xmlns="http://www.w3.org/2000/svg" xmlns:xlink="http://www.w3.org/1999/xlink" x="0px" y="0px" width="24px"
	 height="24px" viewBox="0 0 24 24" enable-background="new 0 0 24 24" xml:space="preserve">
<g id="Outline_Icons">
	<g>
		<path fill="none" stroke="#000000" stroke-linejoin="round" stroke-miterlimit="10" d="M4.608,18.458
			C2.688,16.555,1.5,13.916,1.5,11C1.5,5.201,6.201,0.5,12,0.5S22.5,5.201,22.5,11c0,2.899-1.176,5.524-3.075,7.425"/>
		<polygon fill="none" stroke="#000000" stroke-linecap="round" stroke-linejoin="round" stroke-miterlimit="10" points="4.5,18.5 
			19.5,18.5 21.5,23.5 2.5,23.5 		"/>
		<circle fill="none" stroke="#000000" stroke-linejoin="round" stroke-miterlimit="10" cx="12" cy="15" r="3.5"/>
		<circle fill="none" stroke="#000000" stroke-linejoin="round" stroke-miterlimit="10" cx="12" cy="9" r="2.5"/>
		
			<line fill="none" stroke="#000000" stroke-linecap="round" stroke-linejoin="round" stroke-miterlimit="10" x1="14.906" y1="13.049" x2="17" y2="12"/>
		
			<line fill="none" stroke="#000000" stroke-linecap="round" stroke-linejoin="round" stroke-miterlimit="10" x1="9.094" y1="13.049" x2="7" y2="12"/>
		<g>
			<path d="M17.5,6C17.224,6,17,6.224,17,6.5C17,6.775,17.224,7,17.5,7S18,6.775,18,6.5C18,6.224,17.776,6,17.5,6L17.5,6z"/>
		</g>
		<g>
			<path d="M17.5,9C17.224,9,17,9.224,17,9.5c0,0.275,0.224,0.5,0.5,0.5S18,9.775,18,9.5C18,9.224,17.776,9,17.5,9L17.5,9z"/>
		</g>
		<g>
			<path d="M5.5,10C5.224,10,5,10.224,5,10.5C5,10.775,5.224,11,5.5,11C5.775,11,6,10.775,6,10.5C6,10.224,5.775,10,5.5,10L5.5,10z"
				/>
		</g>
		<g>
			<path d="M14.5,4C14.224,4,14,4.224,14,4.5C14,4.775,14.224,5,14.5,5C14.775,5,15,4.775,15,4.5C15,4.224,14.775,4,14.5,4L14.5,4z"
				/>
		</g>
		<g>
			<path d="M12.5,2C12.224,2,12,2.224,12,2.5C12,2.775,12.224,3,12.5,3C12.775,3,13,2.775,13,2.5C13,2.224,12.775,2,12.5,2L12.5,2z"
				/>
		</g>
		<g>
			<path d="M4.5,13C4.224,13,4,13.224,4,13.5C4,13.775,4.224,14,4.5,14C4.775,14,5,13.775,5,13.5C5,13.224,4.775,13,4.5,13L4.5,13z"
				/>
		</g>
		<g>
			<path d="M4.5,7C4.224,7,4,7.224,4,7.5C4,7.775,4.224,8,4.5,8C4.775,8,5,7.775,5,7.5C5,7.224,4.775,7,4.5,7L4.5,7z"/>
		</g>
		<g>
			<path d="M7.5,6C7.224,6,7,6.224,7,6.5C7,6.775,7.224,7,7.5,7C7.775,7,8,6.775,8,6.5C8,6.224,7.775,6,7.5,6L7.5,6z"/>
		</g>
		<g>
			<path d="M20.5,8C20.224,8,20,8.224,20,8.5C20,8.775,20.224,9,20.5,9S21,8.775,21,8.5C21,8.224,20.776,8,20.5,8L20.5,8z"/>
		</g>
		<g>
			<path d="M8.5,3C8.224,3,8,3.224,8,3.5C8,3.775,8.224,4,8.5,4C8.775,4,9,3.775,9,3.5C9,3.224,8.775,3,8.5,3L8.5,3z"/>
		</g>
		<g>
			<path d="M19.5,13c-0.276,0-0.5,0.224-0.5,0.5c0,0.275,0.224,0.5,0.5,0.5s0.5-0.225,0.5-0.5C20,13.224,19.776,13,19.5,13L19.5,13z
				"/>
		</g>
	</g>
</g>
<g id="invisible_shape">
	<rect fill="none" width="24" height="24"/>
</g>
</svg>
