<?xml version="1.0" encoding="utf-8"?>
<!-- Generator: Adobe Illustrator 16.0.3, SVG Export Plug-In . SVG Version: 6.00 Build 0)  -->
<!DOCTYPE svg PUBLIC "-//W3C//DTD SVG 1.1//EN" "http://www.w3.org/Graphics/SVG/1.1/DTD/svg11.dtd">
<svg version="1.1" xmlns="http://www.w3.org/2000/svg" xmlns:xlink="http://www.w3.org/1999/xlink" x="0px" y="0px" width="24px"
	 height="24px" viewBox="0 0 24 24" enable-background="new 0 0 24 24" xml:space="preserve">
<g id="Outline_Icons_1_">
	<g id="Outline_Icons">
		<g>
			<polygon fill="none" stroke="#000000" stroke-linecap="round" stroke-linejoin="round" stroke-miterlimit="10" points="
				23.5,17.482 11.5,17.482 7.5,21.482 7.5,17.482 0.5,17.482 0.5,2.482 23.5,2.482 			"/>
			<polyline fill="none" stroke="#000000" stroke-linecap="round" stroke-linejoin="round" stroke-miterlimit="10" points="
				12.5,14.482 12.5,8.482 10.5,8.482 			"/>
			
				<line fill="none" stroke="#000000" stroke-linecap="round" stroke-linejoin="round" stroke-miterlimit="10" x1="10.5" y1="14.482" x2="14.5" y2="14.482"/>
			<path fill="none" stroke="#000000" stroke-linejoin="round" stroke-miterlimit="10" d="M12.5,5.982c0,0.276-0.224,0.5-0.5,0.5
				l0,0c-0.276,0-0.5-0.224-0.5-0.5l0,0c0-0.276,0.224-0.5,0.5-0.5l0,0C12.276,5.482,12.5,5.706,12.5,5.982L12.5,5.982z"/>
		</g>
	</g>
	<g id="New_icons_1_">
	</g>
</g>
<g id="Invisible_Shape">
	<rect fill="none" width="24" height="24"/>
</g>
</svg>
