<?xml version="1.0" encoding="utf-8"?>
<!-- Generator: Adobe Illustrator 16.0.3, SVG Export Plug-In . SVG Version: 6.00 Build 0)  -->
<!DOCTYPE svg PUBLIC "-//W3C//DTD SVG 1.1//EN" "http://www.w3.org/Graphics/SVG/1.1/DTD/svg11.dtd">
<svg version="1.1" xmlns="http://www.w3.org/2000/svg" xmlns:xlink="http://www.w3.org/1999/xlink" x="0px" y="0px" width="24px"
	 height="24px" viewBox="0 0 24 24" enable-background="new 0 0 24 24" xml:space="preserve">
<g id="Outline_Icons_1_">
	<g id="Outline_Icons">
		<g>
			<path fill="none" stroke="#000000" stroke-linejoin="round" stroke-miterlimit="10" d="M23.5,10.741
				c0,5.181-5.148,9.381-11.5,9.381c-1.418,0-2.775-0.208-4.029-0.592l-6.608,3.076L3.95,17.44c-2.129-1.703-3.45-4.075-3.45-6.699
				c0-5.184,5.148-9.383,11.5-9.383S23.5,5.558,23.5,10.741z"/>
			<rect x="7.5" y="10.482" fill="none" stroke="#000000" stroke-linejoin="round" stroke-miterlimit="10" width="2" height="2"/>
			<path fill="none" stroke="#000000" stroke-linecap="round" stroke-linejoin="round" stroke-miterlimit="10" d="M9.5,11.982v2
				c0,0.549-0.45,1-1,1"/>
			
				<line fill="none" stroke="#000000" stroke-linecap="round" stroke-linejoin="round" stroke-miterlimit="10" x1="9.5" y1="5.858" x2="9.5" y2="8.358"/>
			<path fill="none" stroke="#000000" stroke-linecap="round" stroke-linejoin="round" stroke-miterlimit="10" d="M13.5,5.858
				c1.65,0,3,1.35,3,3v3c0,1.648-1.35,3-3,3"/>
		</g>
	</g>
	<g id="New_icons_1_">
	</g>
</g>
<g id="Invisible_Shape">
	<rect fill="none" width="24" height="24"/>
</g>
</svg>
