<?xml version="1.0" encoding="utf-8"?>
<!-- Generator: Adobe Illustrator 16.0.3, SVG Export Plug-In . SVG Version: 6.00 Build 0)  -->
<!DOCTYPE svg PUBLIC "-//W3C//DTD SVG 1.1//EN" "http://www.w3.org/Graphics/SVG/1.1/DTD/svg11.dtd">
<svg version="1.1" xmlns="http://www.w3.org/2000/svg" xmlns:xlink="http://www.w3.org/1999/xlink" x="0px" y="0px" width="24px"
	 height="24px" viewBox="0 0 24 24" enable-background="new 0 0 24 24" xml:space="preserve">
<g id="Outline_Icons_1_">
	<g id="Outline_Icons">
		<g>
			<path fill="none" stroke="#000000" stroke-linecap="round" stroke-linejoin="round" stroke-miterlimit="10" d="M19.001,21.5
				c1.671-1.214,4.499-3.779,4.499-5.697c0-1.555-1.133-2.484-2.228-2.484c-1.218,0-1.671,0.84-2.272,1.833
				c-0.602-0.993-1.055-1.833-2.272-1.833c-1.095,0-2.228,0.93-2.228,2.484C14.5,17.721,17.328,20.286,19.001,21.5L19.001,21.5z"/>
			<g>
				<path fill="none" stroke="#000000" stroke-linecap="round" stroke-linejoin="round" stroke-miterlimit="10" d="M12,15h-0.5l-4,4
					v-4H7c-3.575,0-6.5-2.925-6.5-6.5s2.925-7,6.5-7h8c3.575,0,6.5,3.425,6.5,7c0,0.885-0.18,1.729-0.504,2.5"/>
			</g>
		</g>
	</g>
	<g id="New_icons_1_">
	</g>
</g>
<g id="Invisible_Shape">
	<rect fill="none" width="24" height="24"/>
</g>
</svg>
