<?xml version="1.0" encoding="utf-8"?>
<!-- Generator: Adobe Illustrator 16.0.3, SVG Export Plug-In . SVG Version: 6.00 Build 0)  -->
<!DOCTYPE svg PUBLIC "-//W3C//DTD SVG 1.1//EN" "http://www.w3.org/Graphics/SVG/1.1/DTD/svg11.dtd">
<svg version="1.1" xmlns="http://www.w3.org/2000/svg" xmlns:xlink="http://www.w3.org/1999/xlink" x="0px" y="0px" width="24px"
	 height="24px" viewBox="0 0 24 24" enable-background="new 0 0 24 24" xml:space="preserve">
<g id="Outline_Icons_1_">
	<g id="Outline_Icons">
		<g>
			<g>
				<path fill="none" stroke="#000000" stroke-linejoin="round" stroke-miterlimit="10" d="M19,20c0,0.277-0.224,0.5-0.5,0.5l0,0
					c-0.276,0-0.5-0.223-0.5-0.5l0,0c0-0.275,0.224-0.5,0.5-0.5l0,0C18.776,19.5,19,19.725,19,20L19,20z"/>
				
					<rect x="14.5" y="17.5" fill="none" stroke="#000000" stroke-linecap="round" stroke-linejoin="round" stroke-miterlimit="10" width="8" height="6"/>
				
					<line fill="none" stroke="#000000" stroke-linecap="round" stroke-linejoin="round" stroke-miterlimit="10" x1="18.5" y1="21.5" x2="18.5" y2="20.5"/>
				<path fill="none" stroke="#000000" stroke-linecap="round" stroke-linejoin="round" stroke-miterlimit="10" d="M15.5,17.5v-1
					c0-1.656,1.343-3,3-3c1.656,0,3,1.344,3,3v1"/>
			</g>
			<g>
				<g>
					<path fill="none" stroke="#000000" stroke-linecap="round" stroke-linejoin="round" stroke-miterlimit="10" d="M13,15h-1.5
						l-4,4v-4H7c-3.575,0-6.5-2.924-6.5-6.5c0-3.574,2.925-7,6.5-7h8c3.575,0,6.5,3.426,6.5,7c0,0.885-0.18,1.73-0.504,2.5"/>
				</g>
			</g>
		</g>
	</g>
	<g id="New_icons_1_">
	</g>
</g>
<g id="Invisible_Shape">
	<rect fill="none" width="24" height="24"/>
</g>
</svg>
