<?xml version="1.0" encoding="utf-8"?>
<!-- Generator: Adobe Illustrator 16.0.3, SVG Export Plug-In . SVG Version: 6.00 Build 0)  -->
<!DOCTYPE svg PUBLIC "-//W3C//DTD SVG 1.1//EN" "http://www.w3.org/Graphics/SVG/1.1/DTD/svg11.dtd">
<svg version="1.1" xmlns="http://www.w3.org/2000/svg" xmlns:xlink="http://www.w3.org/1999/xlink" x="0px" y="0px" width="24px"
	 height="24px" viewBox="0 0 24 24" enable-background="new 0 0 24 24" xml:space="preserve">
<g id="Outline_Icons_1_">
	<g id="Outline_Icons">
		<g>
			<g>
				<polyline fill="none" stroke="#000000" stroke-linecap="round" stroke-linejoin="round" stroke-miterlimit="10" points="14,9.5 
					15.5,9.5 15.5,13.5 20,9.5 23.5,9.5 23.5,0.5 8.5,0.5 8.5,4.5 				"/>
				<g>
					<g>
						<polygon points="20,5 19,5 19,6 20,6 20,5 						"/>
					</g>
				</g>
				<g>
					<g>
						<polygon points="17,5 16,5 16,6 17,6 17,5 						"/>
					</g>
				</g>
				<g>
					<g>
						<polygon points="14,5 13,5 13,6 14,6 14,5 						"/>
					</g>
				</g>
			</g>
			<path fill="none" stroke="#000000" stroke-linejoin="round" stroke-miterlimit="10" d="M7.76,23.5h7.74c0,0,0-1,0-2.5
				c0-0.5-3-2-5.5-3v-2c0,0,0.92-0.35,0.92-2.5c0.696,0,0.961-2-0.008-2c0-0.211,0.746-1.308,0.448-2.5C10.86,7,5.93,7,5.43,9
				C3.325,8.57,5,11.212,5,11.5c-1,0-1,2,0,2C5,15.65,6,16,6,16v2c-2.5,1-5.5,2.5-5.5,3c0,1,0,2.5,0,2.5H7.76z"/>
		</g>
	</g>
	<g id="New_icons_1_">
	</g>
</g>
<g id="Invisible_Shape">
	<rect fill="none" width="24" height="24"/>
</g>
</svg>
