<?xml version="1.0" encoding="utf-8"?>
<!-- Generator: Adobe Illustrator 16.0.3, SVG Export Plug-In . SVG Version: 6.00 Build 0)  -->
<!DOCTYPE svg PUBLIC "-//W3C//DTD SVG 1.1//EN" "http://www.w3.org/Graphics/SVG/1.1/DTD/svg11.dtd">
<svg version="1.1" xmlns="http://www.w3.org/2000/svg" xmlns:xlink="http://www.w3.org/1999/xlink" x="0px" y="0px" width="24px"
	 height="24px" viewBox="0 0 24 24" enable-background="new 0 0 24 24" xml:space="preserve">
<g id="Outline_Icons_1_">
	<g id="Outline_Icons">
		<g>
			<path fill="none" stroke="#000000" stroke-linejoin="round" stroke-miterlimit="10" d="M10.5,6.5c0-3.314,2.91-6,6.5-6
				s6.5,2.687,6.5,6c0,2.496-1.65,4.636-4,5.539C19,12.5,16,15,15.5,15.5c0-0.5-0.004-2.5,0-3.07
				c-0.531-0.074-1.04-0.209-1.521-0.396"/>
			<g>
				<g>
					<g>
						<polygon points="20,6 19,6 19,7 20,7 20,6 						"/>
					</g>
				</g>
			</g>
			<g>
				<g>
					<g>
						<polygon points="17.5,6 16.5,6 16.5,7 17.5,7 17.5,6 						"/>
					</g>
				</g>
			</g>
			<g>
				<g>
					<g>
						<polygon points="15,6 14,6 14,7 15,7 15,6 						"/>
					</g>
				</g>
			</g>
			<path fill="none" stroke="#000000" stroke-linejoin="round" stroke-miterlimit="10" d="M7.919,23.5H15.5c0,0,0-1,0-2.5
				c0-0.5-3-2-5.5-3v-2c0,0,1-0.35,1-2.5c0.695,0,1-2,0.032-2c0-0.211,0.766-1.308,0.468-2.5C11,7,6,7,5.5,9
				C3.395,8.57,5,11.212,5,11.5c-1,0-0.695,2,0,2C5,15.65,6,16,6,16v2c-2.5,1-5.5,2.5-5.5,3c0,1,0,2.5,0,2.5H7.919z"/>
		</g>
	</g>
	<g id="New_icons_1_">
	</g>
</g>
<g id="Invisible_Shape">
	<rect fill="none" width="24" height="24"/>
</g>
</svg>
