<?xml version="1.0" encoding="utf-8"?>
<!-- Generator: Adobe Illustrator 16.0.3, SVG Export Plug-In . SVG Version: 6.00 Build 0)  -->
<!DOCTYPE svg PUBLIC "-//W3C//DTD SVG 1.1//EN" "http://www.w3.org/Graphics/SVG/1.1/DTD/svg11.dtd">
<svg version="1.1" xmlns="http://www.w3.org/2000/svg" xmlns:xlink="http://www.w3.org/1999/xlink" x="0px" y="0px" width="24px"
	 height="24px" viewBox="0 0 24 24" enable-background="new 0 0 24 24" xml:space="preserve">
<g id="Outline_Icons_1_">
	<g id="Outline_Icons">
		<g>
			<path fill="none" stroke="#000000" stroke-linejoin="round" stroke-miterlimit="10" d="M6,16.203v2.166L2.059,19.78
				C1.115,20.117,0.5,21.011,0.5,22.012V23.5h15v-1.488c0-1.001-0.615-1.895-1.559-2.231L10,18.369v-2.307"/>
			
				<ellipse fill="none" stroke="#000000" stroke-linejoin="round" stroke-miterlimit="10" cx="7.901" cy="12.052" rx="3.947" ry="4.737"/>
			<path fill="none" stroke="#000000" stroke-linejoin="round" stroke-miterlimit="10" d="M11.812,11.625
				c-0.133,0.017-0.225,0.008-0.358,0.033c-1.345,0.259-2.208-0.229-2.948-1.523c-0.444,0.851-1.832,1.523-2.973,1.523
				c-0.562,0-1.057-0.103-1.541-0.356"/>
			<path fill="none" stroke="#000000" stroke-linejoin="round" stroke-miterlimit="10" d="M10.5,6.5c0-3.314,2.91-6,6.5-6
				s6.5,2.686,6.5,6c0,2.496-1.65,4.636-4,5.539C19,12.5,15.996,15,15.496,15.5c0-0.5,0-2.5,0.004-3.07
				c-0.531-0.074-1.04-0.209-1.521-0.396"/>
			<g>
				<g>
					<g>
						<polygon points="20,6.5 19,6.5 19,7.5 20,7.5 20,6.5 						"/>
					</g>
				</g>
			</g>
			<g>
				<g>
					<g>
						<polygon points="17.5,6.5 16.5,6.5 16.5,7.5 17.5,7.5 17.5,6.5 						"/>
					</g>
				</g>
			</g>
			<g>
				<g>
					<g>
						<polygon points="15,6.5 14,6.5 14,7.5 15,7.5 15,6.5 						"/>
					</g>
				</g>
			</g>
		</g>
	</g>
	<g id="New_icons_1_">
	</g>
</g>
<g id="Invisible_Shape">
	<rect fill="none" width="24" height="24"/>
</g>
</svg>
