<?xml version="1.0" encoding="utf-8"?>
<!-- Generator: Adobe Illustrator 16.0.3, SVG Export Plug-In . SVG Version: 6.00 Build 0)  -->
<!DOCTYPE svg PUBLIC "-//W3C//DTD SVG 1.1//EN" "http://www.w3.org/Graphics/SVG/1.1/DTD/svg11.dtd">
<svg version="1.1" xmlns="http://www.w3.org/2000/svg" xmlns:xlink="http://www.w3.org/1999/xlink" x="0px" y="0px" width="24px"
	 height="24px" viewBox="0 0 24 24" enable-background="new 0 0 24 24" xml:space="preserve">
<g id="Outline_Icons_1_">
	<g id="Outline_Icons">
		<g>
			<path fill="none" stroke="#000000" stroke-linejoin="round" stroke-miterlimit="10" d="M13,9.5h1.5v2l2.5-2h2
				c2.485,0,4.5-2.015,4.5-4.5S21.485,0.5,19,0.5h-6c-2.485,0-4.492,2.015-4.492,4.5"/>
			<g>
				<path fill="none" stroke="#000000" stroke-linejoin="round" stroke-miterlimit="10" d="M6,16.188v2.182l-3.941,1.412
					C1.115,20.117,0.5,21.011,0.5,22.012V23.5h15v-1.488c0-1.001-0.615-1.895-1.559-2.23L10,18.369v-2.322"/>
				
					<ellipse fill="none" stroke="#000000" stroke-linejoin="round" stroke-miterlimit="10" cx="7.901" cy="12.052" rx="3.947" ry="4.737"/>
				<path fill="none" stroke="#000000" stroke-linejoin="round" stroke-miterlimit="10" d="M11.828,11.625
					c-0.133,0.017-0.24,0.008-0.374,0.033c-1.345,0.259-2.208-0.229-2.948-1.523c-0.444,0.851-1.832,1.523-2.973,1.523
					c-0.562,0-1.057-0.103-1.541-0.356"/>
			</g>
			<g>
				<g>
					<g>
						<polygon points="20,5 19,5 19,6 20,6 20,5 						"/>
					</g>
				</g>
			</g>
			<g>
				<g>
					<g>
						<polygon points="17,5 16,5 16,6 17,6 17,5 						"/>
					</g>
				</g>
			</g>
			<g>
				<g>
					<g>
						<polygon points="14,5 13,5 13,6 14,6 14,5 						"/>
					</g>
				</g>
			</g>
		</g>
	</g>
	<g id="New_icons_1_">
	</g>
</g>
<g id="Invisible_Shape">
	<rect fill="none" width="24" height="24"/>
</g>
</svg>
