<?xml version="1.0" encoding="utf-8"?>
<!-- Generator: Adobe Illustrator 16.0.3, SVG Export Plug-In . SVG Version: 6.00 Build 0)  -->
<!DOCTYPE svg PUBLIC "-//W3C//DTD SVG 1.1//EN" "http://www.w3.org/Graphics/SVG/1.1/DTD/svg11.dtd">
<svg version="1.1" xmlns="http://www.w3.org/2000/svg" xmlns:xlink="http://www.w3.org/1999/xlink" x="0px" y="0px" width="24px"
	 height="24px" viewBox="0 0 24 24" enable-background="new 0 0 24 24" xml:space="preserve">
<g id="Outline_Icons_1_">
	<g id="Outline_Icons">
		<g>
			<g>
				<path fill="none" stroke="#000000" stroke-linejoin="round" stroke-miterlimit="10" d="M5.75,16.295v2.115l-3.941,1.396
					c-0.943,0.333-1.559,1.216-1.559,2.205v1.472h15v-1.472c0-0.989-0.615-1.872-1.559-2.205L9.75,18.41v-2.287"/>
				
					<ellipse fill="none" stroke="#000000" stroke-linejoin="round" stroke-miterlimit="10" cx="7.651" cy="12.165" rx="3.947" ry="4.684"/>
				<path fill="none" stroke="#000000" stroke-linejoin="round" stroke-miterlimit="10" d="M11.562,11.748
					c-0.133,0.016-0.225,0.002-0.358,0.027c-1.345,0.256-2.208-0.227-2.948-1.506c-0.444,0.841-1.832,1.506-2.973,1.506
					c-0.562,0-1.045-0.113-1.528-0.364"/>
			</g>
			<path fill="none" stroke="#000000" stroke-linejoin="round" stroke-miterlimit="10" d="M13.744,10.482c0.5,1,1.5,1.5,2.5,1.5
				c1.027,0,1.948-0.693,2.5-1.5c7,0,6.373-10-0.101-10c-1.436,0-2.474,0.545-3.399,1.5c-2.668-1.333-5.729,0.312-6.377,2.963"/>
			<circle fill="none" stroke="#000000" stroke-linejoin="round" stroke-miterlimit="10" cx="17.25" cy="14.982" r="1"/>
			<path fill="none" stroke="#000000" stroke-linejoin="round" stroke-miterlimit="10" d="M14.25,5.982c0,0.276-0.224,0.5-0.5,0.5
				l0,0c-0.276,0-0.5-0.224-0.5-0.5l0,0c0-0.276,0.224-0.5,0.5-0.5l0,0C14.026,5.482,14.25,5.706,14.25,5.982L14.25,5.982z"/>
			<path fill="none" stroke="#000000" stroke-linejoin="round" stroke-miterlimit="10" d="M14.25,16.482c0,0.276-0.224,0.5-0.5,0.5
				l0,0c-0.276,0-0.5-0.224-0.5-0.5l0,0c0-0.276,0.224-0.5,0.5-0.5l0,0C14.026,15.982,14.25,16.206,14.25,16.482L14.25,16.482z"/>
			<path fill="none" stroke="#000000" stroke-linejoin="round" stroke-miterlimit="10" d="M17.25,5.982c0,0.276-0.224,0.5-0.5,0.5
				l0,0c-0.276,0-0.5-0.224-0.5-0.5l0,0c0-0.276,0.224-0.5,0.5-0.5l0,0C17.026,5.482,17.25,5.706,17.25,5.982L17.25,5.982z"/>
			<path fill="none" stroke="#000000" stroke-linejoin="round" stroke-miterlimit="10" d="M20.25,5.982c0,0.276-0.224,0.5-0.5,0.5
				l0,0c-0.276,0-0.5-0.224-0.5-0.5l0,0c0-0.276,0.224-0.5,0.5-0.5l0,0C20.026,5.482,20.25,5.706,20.25,5.982L20.25,5.982z"/>
		</g>
	</g>
	<g id="New_icons_1_">
	</g>
</g>
<g id="Invisible_Shape">
	<rect fill="none" width="24" height="24"/>
</g>
</svg>
