<?xml version="1.0" encoding="utf-8"?>
<!-- Generator: Adobe Illustrator 16.0.3, SVG Export Plug-In . SVG Version: 6.00 Build 0)  -->
<!DOCTYPE svg PUBLIC "-//W3C//DTD SVG 1.1//EN" "http://www.w3.org/Graphics/SVG/1.1/DTD/svg11.dtd">
<svg version="1.1" xmlns="http://www.w3.org/2000/svg" xmlns:xlink="http://www.w3.org/1999/xlink" x="0px" y="0px" width="24px"
	 height="24px" viewBox="0 0 24 24" enable-background="new 0 0 24 24" xml:space="preserve">
<g id="Outline_Icons_1_">
	<g id="Outline_Icons">
	</g>
	<g id="New_icons_1_">
		<g>
			<g>
				<path fill="none" stroke="#000000" stroke-linejoin="round" stroke-miterlimit="10" d="M0.5,14.5V17c0,0.824,0.175,1.5,1,1.5v5
					h3v-5c0.824,0,0.999-0.677,1-1.5v-2.5H0.5z"/>
				<circle fill="none" stroke="#000000" stroke-linejoin="round" stroke-miterlimit="10" cx="3" cy="11" r="1.5"/>
			</g>
			<g>
				<polygon fill="none" stroke="#000000" stroke-linejoin="round" stroke-miterlimit="10" points="8.5,10.5 11.5,10.5 11.5,14 
					15,10.5 23.5,10.5 23.5,0.5 8.5,0.5 				"/>
			</g>
			
				<line fill="none" stroke="#000000" stroke-linecap="round" stroke-linejoin="round" stroke-miterlimit="10" x1="16.5" y1="3" x2="16.5" y2="6"/>
			<g>
				<g>
					<g>
						<path d="M16.5,7.5c-0.302,0-0.545,0.245-0.545,0.546s0.243,0.546,0.545,0.546c0.301,0,0.545-0.245,0.545-0.546
							S16.801,7.5,16.5,7.5L16.5,7.5z"/>
					</g>
				</g>
			</g>
		</g>
	</g>
</g>
<g id="Invisible_Shape">
	<rect fill="none" width="24" height="24"/>
</g>
</svg>
