<?xml version="1.0" encoding="utf-8"?>
<!-- Generator: Adobe Illustrator 16.0.3, SVG Export Plug-In . SVG Version: 6.00 Build 0)  -->
<!DOCTYPE svg PUBLIC "-//W3C//DTD SVG 1.1//EN" "http://www.w3.org/Graphics/SVG/1.1/DTD/svg11.dtd">
<svg version="1.1" xmlns="http://www.w3.org/2000/svg" xmlns:xlink="http://www.w3.org/1999/xlink" x="0px" y="0px" width="24px"
	 height="24px" viewBox="0 0 24 24" enable-background="new 0 0 24 24" xml:space="preserve">
<g id="Outline_Icons">
	<g>
		<g>
			
				<line fill="none" stroke="#000000" stroke-linecap="round" stroke-linejoin="round" stroke-miterlimit="10" x1="10.5" y1="6.521" x2="10.5" y2="8.5"/>
			
				<line fill="none" stroke="#000000" stroke-linecap="round" stroke-linejoin="round" stroke-miterlimit="10" x1="12.5" y1="6.521" x2="12.5" y2="8.5"/>
			
				<line fill="none" stroke="#000000" stroke-linecap="round" stroke-linejoin="round" stroke-miterlimit="10" x1="10.5" y1="14.521" x2="10.5" y2="16.5"/>
			
				<line fill="none" stroke="#000000" stroke-linecap="round" stroke-linejoin="round" stroke-miterlimit="10" x1="12.5" y1="14.521" x2="12.5" y2="16.5"/>
			<path fill="none" stroke="#000000" stroke-linecap="round" stroke-linejoin="round" stroke-miterlimit="10" d="M14.5,10
				c0,0.828-0.672,1.5-1.5,1.5H9.5v-3H13C13.828,8.5,14.5,9.172,14.5,10z"/>
			<path fill="none" stroke="#000000" stroke-linecap="round" stroke-linejoin="round" stroke-miterlimit="10" d="M14.5,13
				c0,0.828-0.672,1.5-1.5,1.5H9.5v-3H13C13.828,11.5,14.5,12.172,14.5,13z"/>
			<circle fill="none" stroke="#000000" stroke-linejoin="round" stroke-miterlimit="10" cx="11.5" cy="11.5" r="7"/>
		</g>
		<circle fill="none" stroke="#000000" stroke-linejoin="round" stroke-miterlimit="10" cx="11.5" cy="11.5" r="11"/>
		<path fill="none" stroke="#000000" stroke-miterlimit="10" d="M7.846,17.472c1.059,2.394,2.472,4.188,3.193,5.019"/>
		<path fill="none" stroke="#000000" stroke-miterlimit="10" d="M11.039,0.509c-0.721,0.831-2.135,2.626-3.193,5.02"/>
		<line fill="none" stroke="#000000" stroke-linejoin="round" stroke-miterlimit="10" x1="2.279" y1="5.5" x2="7.858" y2="5.5"/>
		<line fill="none" stroke="#000000" stroke-linejoin="round" stroke-miterlimit="10" x1="0.5" y1="11.5" x2="4.5" y2="11.5"/>
		<line fill="none" stroke="#000000" stroke-linejoin="round" stroke-miterlimit="10" x1="1.699" y1="16.5" x2="6.602" y2="16.5"/>
		<path fill="none" stroke="#000000" stroke-miterlimit="10" d="M15.154,17.472c-1.059,2.394-2.472,4.188-3.193,5.019"/>
		<path fill="none" stroke="#000000" stroke-miterlimit="10" d="M11.961,0.509c0.721,0.831,2.135,2.626,3.193,5.02"/>
		<line fill="none" stroke="#000000" stroke-linejoin="round" stroke-miterlimit="10" x1="20.721" y1="5.5" x2="15.142" y2="5.5"/>
		<line fill="none" stroke="#000000" stroke-linejoin="round" stroke-miterlimit="10" x1="22.5" y1="11.5" x2="18.5" y2="11.5"/>
		
			<line fill="none" stroke="#000000" stroke-linejoin="round" stroke-miterlimit="10" x1="21.301" y1="16.5" x2="16.398" y2="16.5"/>
	</g>
</g>
<g id="Invisible_Shape">
	<rect fill="none" width="24" height="24"/>
</g>
</svg>
