<?xml version="1.0" encoding="utf-8"?>
<!-- Generator: Adobe Illustrator 16.0.3, SVG Export Plug-In . SVG Version: 6.00 Build 0)  -->
<!DOCTYPE svg PUBLIC "-//W3C//DTD SVG 1.1//EN" "http://www.w3.org/Graphics/SVG/1.1/DTD/svg11.dtd">
<svg version="1.1" xmlns="http://www.w3.org/2000/svg" xmlns:xlink="http://www.w3.org/1999/xlink" x="0px" y="0px" width="24px"
	 height="24px" viewBox="0 0 24 24" enable-background="new 0 0 24 24" xml:space="preserve">
<g id="Outline_Icons">
	<g>
		<path fill="none" stroke="#000000" stroke-linecap="round" stroke-linejoin="round" stroke-miterlimit="10" d="M5.289,14.462
			c0,1.22,0.99,2.211,2.211,2.211c1.222,0,2.212-0.991,2.212-2.211c0-1.222-0.99-2.212-2.212-2.212
			c-1.221,0-2.211-0.991-2.211-2.212c0-1.221,0.99-2.21,2.211-2.21c1.222,0,2.212,0.99,2.212,2.21"/>
		
			<line fill="none" stroke="#000000" stroke-linecap="round" stroke-linejoin="round" stroke-miterlimit="10" x1="7.5" y1="6.5" x2="7.5" y2="18"/>
		<path fill="none" stroke="#000000" stroke-linejoin="round" stroke-miterlimit="10" d="M17.855,2.531L15.912,7.5h3.427
			l-7.187,7.761L14.459,9.5h-2.736l3.35-8.396C13.951,0.719,12.752,0.5,11.5,0.5c-6.074,0-11,4.925-11,11s4.926,11,11,11
			c6.075,0,11-4.925,11-11C22.5,7.794,20.662,4.524,17.855,2.531z"/>
	</g>
</g>
<g id="Invisible_Shape">
	<rect fill="none" width="24" height="24"/>
</g>
</svg>
