<?xml version="1.0" encoding="utf-8"?>
<!-- Generator: Adobe Illustrator 19.2.0, SVG Export Plug-In . SVG Version: 6.00 Build 0)  -->
<svg version="1.1" xmlns="http://www.w3.org/2000/svg" xmlns:xlink="http://www.w3.org/1999/xlink" x="0px" y="0px" width="24px"
	 height="24px" viewBox="0 0 24 24" enable-background="new 0 0 24 24" xml:space="preserve">
<g id="Filled_Icons">
	<g>
		<path d="M16.407,13.008l-8,1.5C8.171,14.553,8,14.761,8,15v8.5C8,23.776,8.224,24,8.5,24h8c0.276,0,0.5-0.224,0.5-0.5v-10
			c0-0.149-0.066-0.29-0.181-0.385C16.705,13.019,16.553,12.981,16.407,13.008z"/>
		<path d="M12.5,12c2.481,0,4.5-2.019,4.5-4.5c0-3.496-2.531-6.715-5.888-7.487c-0.232-0.053-0.468,0.064-0.567,0.278
			c-0.099,0.216-0.032,0.472,0.158,0.611c1.339,0.984,1.445,2.71,1.131,3.756c-0.188-0.219-0.307-0.444-0.338-0.714
			C11.479,3.79,11.391,3.65,11.257,3.57c-0.134-0.08-0.298-0.092-0.441-0.036C9.026,4.245,8,5.69,8,7.5C8,9.981,10.019,12,12.5,12z"
			/>
	</g>
</g>
<g id="invisible_shape">
	<rect fill="none" width="24" height="24"/>
</g>
</svg>
