<?xml version="1.0" encoding="utf-8"?>
<!-- Generator: Adobe Illustrator 19.2.0, SVG Export Plug-In . SVG Version: 6.00 Build 0)  -->
<svg version="1.1" xmlns="http://www.w3.org/2000/svg" xmlns:xlink="http://www.w3.org/1999/xlink" x="0px" y="0px" width="24px"
	 height="24px" viewBox="0 0 24 24" enable-background="new 0 0 24 24" xml:space="preserve">
<g id="Filled_Icons">
	<g>
		<path d="M3,8c0-0.639-0.762-1.81-1.089-2.284c-0.186-0.271-0.637-0.271-0.822,0C0.762,6.19,0,7.361,0,8c0,0.827,0.673,1.5,1.5,1.5
			S3,8.827,3,8z"/>
		<path d="M5.5,7C6.327,7,7,6.327,7,5.5c0-0.639-0.762-1.81-1.089-2.284c-0.186-0.271-0.637-0.271-0.822,0C4.762,3.69,4,4.861,4,5.5
			C4,6.327,4.673,7,5.5,7z"/>
		<path d="M21.5,10c-0.276,0-0.5,0.224-0.5,0.5v1c0,2.482-2.019,4.5-4.5,4.5c-2.313,0-4.201-1.76-4.45-4.007
			C12.682,12.615,13.546,13,14.5,13c1.93,0,3.5-1.57,3.5-3.5V8c0-0.276-0.224-0.5-0.5-0.5S17,7.724,17,8v1.5
			c0,1.378-1.121,2.5-2.5,2.5S12,10.878,12,9.5V2.966c1.392-0.16,2.656-0.975,3.377-2.214C15.571,0.42,15.332,0,14.945,0H8.055
			C7.668,0,7.429,0.42,7.623,0.752C8.344,1.991,9.608,2.807,11,2.966V9.5c0,1.378-1.121,2.5-2.5,2.5S6,10.878,6,9.5V8
			c0-0.276-0.224-0.5-0.5-0.5S5,7.724,5,8v1.5C5,11.43,6.57,13,8.5,13c0.954,0,1.818-0.385,2.45-1.007C10.701,14.24,8.813,16,6.5,16
			C4.019,16,2,13.982,2,11.5v-1C2,10.224,1.776,10,1.5,10S1,10.224,1,10.5v1C1,14.533,3.468,17,6.5,17
			c1.859,0,3.504-0.931,4.5-2.348V16c0,0.276,0.224,0.5,0.5,0.5S12,16.276,12,16v-1.348C12.996,16.069,14.641,17,16.5,17
			c3.032,0,5.5-2.467,5.5-5.5v-1C22,10.224,21.776,10,21.5,10z"/>
		<path d="M21.911,5.716c-0.186-0.271-0.637-0.271-0.822,0C20.762,6.19,20,7.361,20,8c0,0.827,0.673,1.5,1.5,1.5S23,8.827,23,8
			C23,7.361,22.238,6.19,21.911,5.716z"/>
		<path d="M17.5,7C18.327,7,19,6.327,19,5.5c0-0.639-0.762-1.81-1.089-2.284c-0.186-0.271-0.637-0.271-0.822,0
			C16.762,3.69,16,4.861,16,5.5C16,6.327,16.673,7,17.5,7z"/>
		<path d="M11.5,17c-0.827,0-1.5,0.673-1.5,1.5c0,0.639,0.762,1.81,1.089,2.284c0.197,0.288,0.625,0.288,0.822,0
			C12.238,20.31,13,19.139,13,18.5C13,17.673,12.327,17,11.5,17z"/>
		<path d="M16.5,20c-0.827,0-1.5,0.673-1.5,1.5c0,0.639,0.762,1.81,1.089,2.284c0.197,0.288,0.625,0.288,0.822,0
			C17.238,23.31,18,22.139,18,21.5C18,20.673,17.327,20,16.5,20z"/>
		<path d="M17,19v-1c0-0.276-0.224-0.5-0.5-0.5S16,17.724,16,18v1c0,0.276,0.224,0.5,0.5,0.5S17,19.276,17,19z"/>
		<path d="M6.5,20C5.673,20,5,20.673,5,21.5c0,0.639,0.762,1.81,1.089,2.284c0.197,0.288,0.625,0.288,0.822,0
			C7.238,23.31,8,22.139,8,21.5C8,20.673,7.327,20,6.5,20z"/>
		<path d="M7,19v-1c0-0.276-0.224-0.5-0.5-0.5S6,17.724,6,18v1c0,0.276,0.224,0.5,0.5,0.5S7,19.276,7,19z"/>
	</g>
</g>
<g id="invisible_shape">
	<rect fill="none" width="24" height="24"/>
</g>
</svg>
