<?xml version="1.0" encoding="utf-8"?>
<!-- Generator: Adobe Illustrator 19.2.0, SVG Export Plug-In . SVG Version: 6.00 Build 0)  -->
<svg version="1.1" xmlns="http://www.w3.org/2000/svg" xmlns:xlink="http://www.w3.org/1999/xlink" x="0px" y="0px" width="24px"
	 height="24px" viewBox="0 0 24 24" enable-background="new 0 0 24 24" xml:space="preserve">
<g id="Filled_Icons">
	<g>
		<g>
			<path d="M20,12v-1.5c0-0.277-0.224-0.5-0.5-0.5h-7c-0.276,0-0.5,0.223-0.5,0.5V12H20z"/>
			<path d="M9,13V0.5C9,0.223,8.776,0,8.5,0h-2C4.019,0,2,2.019,2,4.5v5C2,11.982,4.019,14,6.5,14H8v7.5c0,1.378,1.121,2.5,2.5,2.5
				h9c1.379,0,2.5-1.122,2.5-2.5V13H9z"/>
		</g>
		<g>
			<path d="M13.367,9h4.857c0.633-0.627,1.025-1.494,1.025-2.454c0-2.788-2.007-5.415-4.75-6.046
				c1.566,1.152,1.479,3.387,0.864,4.318c-0.423-0.345-0.799-0.725-0.864-1.296c-1.44,0.571-2.158,1.701-2.158,3.024
				C12.342,7.506,12.734,8.373,13.367,9z"/>
		</g>
	</g>
</g>
<g id="invisible_shape">
	<rect fill="none" width="24" height="24"/>
</g>
</svg>
