<?xml version="1.0" encoding="utf-8"?>
<!-- Generator: Adobe Illustrator 19.2.0, SVG Export Plug-In . SVG Version: 6.00 Build 0)  -->
<svg version="1.1" xmlns="http://www.w3.org/2000/svg" xmlns:xlink="http://www.w3.org/1999/xlink" x="0px" y="0px" width="24px"
	 height="24px" viewBox="0 0 24 24" enable-background="new 0 0 24 24" xml:space="preserve">
<g id="Filled_Icons">
	<g>
		<path d="M19.124,14.44c-0.199-2.971-1.516-6.347-2.795-8.44h-8.71c-1.292,2.058-2.597,5.354-2.797,8.324
			C4.695,16.205,5.021,17.776,5.755,19h12.478C18.938,17.803,19.248,16.271,19.124,14.44z M12,17.125c-1.934,0-3.5-1.567-3.5-3.5
			c0-1.34,0.727-2.485,2.188-3.062c0.065,0.577,0.447,0.96,0.875,1.312c0.623-0.943,0.712-3.208-0.875-4.375
			c2.779,0.64,4.813,3.303,4.813,6.125C15.5,15.559,13.933,17.125,12,17.125z"/>
		<path d="M23.575,19.06L20.84,4.95C20.581,3.803,19.578,3,18.401,3H16V1h1c0.276,0,0.5-0.224,0.5-0.5S17.276,0,17,0h-1.5h-7H7
			C6.724,0,6.5,0.224,6.5,0.5S6.724,1,7,1h1v2H5.599c-1.177,0-2.18,0.803-2.441,1.964L0.429,19.046
			c-0.292,1.292,0.477,2.59,1.752,2.956L3.226,22.3C3.087,22.677,3,23.077,3,23.5C3,23.776,3.224,24,3.5,24h17
			c0.276,0,0.5-0.224,0.5-0.5c0-0.423-0.087-0.825-0.226-1.201l1.045-0.297C23.094,21.636,23.863,20.338,23.575,19.06z
			 M21.545,21.04l-1.264,0.36c-0.64-0.845-1.642-1.4-2.781-1.4h-0.018H6.514H6.5c-1.139,0-2.143,0.555-2.782,1.4l-1.262-0.36
			c-0.765-0.219-1.228-0.998-1.049-1.788L4.137,5.17C4.291,4.482,4.893,4,5.599,4H8v0.5c0,0.219,0.143,0.4,0.338,0.467
			C8.33,4.977,8.322,4.991,8.314,5h7.34c-0.007-0.007-0.014-0.019-0.019-0.027C15.844,4.913,16,4.729,16,4.5V4h2.401
			c0.706,0,1.308,0.482,1.459,1.155l2.736,14.112C22.771,20.042,22.309,20.82,21.545,21.04z"/>
	</g>
</g>
<g id="invisible_shape">
	<rect fill="none" width="24" height="24"/>
</g>
</svg>
