<?xml version="1.0" encoding="utf-8"?>
<!-- Generator: Adobe Illustrator 19.2.0, SVG Export Plug-In . SVG Version: 6.00 Build 0)  -->
<svg version="1.1" xmlns="http://www.w3.org/2000/svg" xmlns:xlink="http://www.w3.org/1999/xlink" x="0px" y="0px" width="24px"
	 height="24px" viewBox="0 0 24 24" enable-background="new 0 0 24 24" xml:space="preserve">
<g id="Filled_Icons">
	<g>
		<path d="M21.5,7h-19C2.224,7,2,7.224,2,7.5v2C2,9.776,2.224,10,2.5,10h1.576L5.91,21H4.5C4.224,21,4,21.224,4,21.5v2
			C4,23.776,4.224,24,4.5,24h15c0.276,0,0.5-0.224,0.5-0.5v-2c0-0.276-0.224-0.5-0.5-0.5h-1.41l1.834-11H21.5
			c0.276,0,0.5-0.224,0.5-0.5v-2C22,7.224,21.776,7,21.5,7z M17.076,21H6.924L5.09,10h13.82L17.076,21z"/>
		<path d="M6.029,6h11.941l-3.214-1.929c-0.003-0.002-0.008-0.001-0.011-0.003C14.877,3.734,15,3.332,15,3c0-1.654-1.346-3-3-3
			S9,1.346,9,3c0,0.331,0.123,0.734,0.254,1.068C9.251,4.07,9.246,4.069,9.243,4.071L6.029,6z"/>
		<path d="M12,20.506c1.933,0,3.5-1.568,3.5-3.5c0-2.825-2.033-5.485-4.813-6.125c1.587,1.168,1.498,3.433,0.875,4.375
			c-0.428-0.352-0.81-0.734-0.875-1.312C9.227,14.523,8.5,15.665,8.5,17.006C8.5,18.938,10.066,20.506,12,20.506z"/>
	</g>
</g>
<g id="invisible_shape">
	<rect fill="none" width="24" height="24"/>
</g>
</svg>
