<?xml version="1.0" encoding="utf-8"?>
<!-- Generator: Adobe Illustrator 19.2.0, SVG Export Plug-In . SVG Version: 6.00 Build 0)  -->
<svg version="1.1" xmlns="http://www.w3.org/2000/svg" xmlns:xlink="http://www.w3.org/1999/xlink" x="0px" y="0px" width="24px"
	 height="24px" viewBox="0 0 24 24" enable-background="new 0 0 24 24" xml:space="preserve">
<g id="Filled_Icons">
	<g>
		<path d="M5.709,20h11.582C18.324,19.177,19,17.922,19,16.5v-6c0-1.954-1.258-3.602-3-4.224V1h2c0.276,0,0.5-0.224,0.5-0.5
			C18.5,0.223,18.276,0,18,0H5C4.724,0,4.5,0.223,4.5,0.5C4.5,0.776,4.724,1,5,1h2v5.276C5.258,6.898,4,8.546,4,10.5v6
			C4,17.922,4.676,19.177,5.709,20z M11.5,18c-1.808,0-3.273-1.465-3.273-3.273c0-1.254,0.68-2.323,2.046-2.863
			c0.061,0.54,0.417,0.898,0.817,1.226c0.584-0.882,0.666-2.999-0.817-4.09c2.599,0.598,4.5,3.086,4.5,5.727
			C14.773,16.535,13.307,18,11.5,18z M8,1h7v5.051C14.834,6.031,14.671,6,14.5,6H12V4h1c0.276,0,0.5-0.224,0.5-0.5
			C13.5,3.223,13.276,3,13,3h-3C9.724,3,9.5,3.223,9.5,3.5C9.5,3.776,9.724,4,10,4h1v2H8.5C8.329,6,8.166,6.031,8,6.051V1z"/>
		<path d="M18.931,21H4.069C3.415,21.636,3,22.518,3,23.5V24h17v-0.5C20,22.518,19.585,21.636,18.931,21z"/>
	</g>
</g>
<g id="invisible_shape">
	<rect fill="none" width="24" height="24"/>
</g>
</svg>
