<?xml version="1.0" encoding="utf-8"?>
<!-- Generator: Adobe Illustrator 19.2.0, SVG Export Plug-In . SVG Version: 6.00 Build 0)  -->
<svg version="1.1" xmlns="http://www.w3.org/2000/svg" xmlns:xlink="http://www.w3.org/1999/xlink" x="0px" y="0px" width="24px"
	 height="24px" viewBox="0 0 24 24" enable-background="new 0 0 24 24" xml:space="preserve">
<g id="Filled_Icons">
	<g>
		<path d="M15.5,8h-8C7.224,8,7,8.224,7,8.5v11C7,19.776,7.224,20,7.5,20h8c0.276,0,0.5-0.224,0.5-0.5v-11C16,8.224,15.776,8,15.5,8
			z"/>
		<path d="M11.5,22c-0.276,0-0.5,0.224-0.5,0.5v1c0,0.276,0.224,0.5,0.5,0.5s0.5-0.224,0.5-0.5v-1C12,22.224,11.776,22,11.5,22z"/>
		<path d="M14.682,20.975c-0.195-0.195-0.512-0.195-0.707,0c-0.195,0.195-0.195,0.512,0,0.707l0.707,0.707
			c0.195,0.195,0.512,0.195,0.707,0c0.195-0.195,0.195-0.511,0-0.707L14.682,20.975z"/>
		<path d="M8.318,20.975l-0.707,0.707c-0.195,0.196-0.195,0.512,0,0.707c0.195,0.195,0.512,0.195,0.707,0l0.707-0.707
			c0.195-0.195,0.195-0.512,0-0.707C8.83,20.78,8.514,20.78,8.318,20.975z"/>
		<path d="M16.5,0h-10C6.224,0,6,0.224,6,0.5C6,1.878,7.121,3,8.5,3H11v3H9.5C9.224,6,9,6.224,9,6.5V7h5V6.5
			C14,6.224,13.776,6,13.5,6H12V3h2.5C15.879,3,17,1.878,17,0.5C17,0.224,16.776,0,16.5,0z"/>
	</g>
</g>
<g id="invisible_shape">
	<rect fill="none" width="24" height="24"/>
</g>
</svg>
