<?xml version="1.0" encoding="utf-8"?>
<!-- Generator: Adobe Illustrator 19.2.0, SVG Export Plug-In . SVG Version: 6.00 Build 0)  -->
<svg version="1.1" xmlns="http://www.w3.org/2000/svg" xmlns:xlink="http://www.w3.org/1999/xlink" x="0px" y="0px" width="24px"
	 height="24px" viewBox="0 0 24 24" enable-background="new 0 0 24 24" xml:space="preserve">
<g id="Filled_Icons">
	<g>
		<path d="M16,6.757V6c0-1.762-1.314-3.21-3.01-3.45C12.992,2.532,13,2.518,13,2.5v-2C13,0.224,12.776,0,12.5,0S12,0.224,12,0.5v2
			c0,0.018,0.008,0.032,0.01,0.05C10.314,2.79,9,4.238,9,6v0.757C5.951,8.133,4,11.136,4,14.5C4,14.776,4.224,15,4.5,15h4.56
			c0.717,1.237,2.002,2,3.44,2s2.725-0.763,3.44-2h4.56c0.276,0,0.5-0.224,0.5-0.5C21,11.136,19.049,8.133,16,6.757z M12.5,16
			c-0.869,0-1.668-0.369-2.227-1h4.453C14.168,15.631,13.369,16,12.5,16z"/>
		<path d="M12.5,19.5c-0.276,0-0.5,0.224-0.5,0.5v1.5c0,0.276,0.224,0.5,0.5,0.5s0.5-0.224,0.5-0.5V20
			C13,19.724,12.776,19.5,12.5,19.5z"/>
		<path d="M16.433,18.812c-0.138-0.239-0.444-0.321-0.683-0.183c-0.239,0.138-0.321,0.444-0.183,0.683l0.75,1.299
			c0.138,0.24,0.446,0.321,0.683,0.183c0.239-0.138,0.321-0.444,0.183-0.683L16.433,18.812z"/>
		<path d="M20.111,16.817l-1.299-0.75c-0.237-0.136-0.545-0.056-0.683,0.183c-0.139,0.239-0.057,0.545,0.183,0.683l1.299,0.75
			c0.24,0.138,0.547,0.056,0.683-0.183C20.433,17.261,20.351,16.955,20.111,16.817z"/>
		<path d="M9.25,18.629c-0.238-0.136-0.545-0.056-0.683,0.183l-0.75,1.299C7.679,20.351,7.761,20.656,8,20.794
			c0.236,0.138,0.545,0.057,0.683-0.183l0.75-1.299C9.571,19.073,9.489,18.767,9.25,18.629z"/>
		<path d="M6.188,16.067l-1.299,0.75c-0.239,0.138-0.321,0.444-0.183,0.683c0.136,0.239,0.442,0.321,0.683,0.183l1.299-0.75
			c0.239-0.138,0.321-0.444,0.183-0.683C6.732,16.01,6.425,15.929,6.188,16.067z"/>
	</g>
</g>
<g id="invisible_shape">
	<rect fill="none" width="24" height="24"/>
</g>
</svg>
