<?xml version="1.0" encoding="utf-8"?>
<!-- Generator: Adobe Illustrator 19.2.0, SVG Export Plug-In . SVG Version: 6.00 Build 0)  -->
<svg version="1.1" xmlns="http://www.w3.org/2000/svg" xmlns:xlink="http://www.w3.org/1999/xlink" x="0px" y="0px" width="24px"
	 height="24px" viewBox="0 0 24 24" enable-background="new 0 0 24 24" xml:space="preserve">
<g id="Filled_Icons">
	<path d="M22.188,5.312c0-1.283-1.883-4.449-2.26-5.071c-0.182-0.299-0.674-0.299-0.855,0c-0.377,0.622-2.26,3.788-2.26,5.071
		c0,1.311,0.944,2.402,2.188,2.637V9.5c0,3.415-2.649,6.218-6,6.475V7.949c1.243-0.234,2.188-1.326,2.188-2.637
		c0-1.283-1.883-4.449-2.26-5.071c-0.182-0.299-0.674-0.299-0.855,0c-0.377,0.622-2.26,3.788-2.26,5.071
		c0,1.311,0.944,2.402,2.188,2.637v8.026c-3.351-0.257-6-3.06-6-6.475V7.949c1.243-0.234,2.188-1.326,2.188-2.637
		c0-1.283-1.883-4.449-2.26-5.071c-0.182-0.299-0.674-0.299-0.855,0c-0.377,0.622-2.26,3.788-2.26,5.071
		c0,1.311,0.944,2.402,2.188,2.637V9.5c0,3.967,3.098,7.215,7,7.475V23H8c-0.276,0-0.5,0.223-0.5,0.5C7.5,23.776,7.724,24,8,24h9
		c0.276,0,0.5-0.224,0.5-0.5c0-0.277-0.224-0.5-0.5-0.5h-4v-6.025c3.902-0.26,7-3.508,7-7.475V7.949
		C21.243,7.714,22.188,6.623,22.188,5.312z"/>
</g>
<g id="invisible_shape">
	<rect fill="none" width="24" height="24"/>
</g>
</svg>
