<?xml version="1.0" encoding="utf-8"?>
<!-- Generator: Adobe Illustrator 19.2.0, SVG Export Plug-In . SVG Version: 6.00 Build 0)  -->
<svg version="1.1" xmlns="http://www.w3.org/2000/svg" xmlns:xlink="http://www.w3.org/1999/xlink" x="0px" y="0px" width="24px"
	 height="24px" viewBox="0 0 24 24" enable-background="new 0 0 24 24" xml:space="preserve">
<g id="Filled_Icons">
	<g>
		<path d="M13.5,17c4.687,0,8.5-3.813,8.5-8.5S18.187,0,13.5,0h-4C8.121,0,7,1.122,7,2.5v0.526C4.201,3.279,2,5.636,2,8.5
			C2,8.776,2.224,9,2.5,9h10C12.776,9,13,8.776,13,8.5c0-2.864-2.201-5.221-5-5.474V2.5C8,1.673,8.673,1,9.5,1h4
			C17.636,1,21,4.365,21,8.5c0,4.136-3.364,7.5-7.5,7.5h-2c-0.276,0-0.5,0.224-0.5,0.5V19H9.5C7.57,19,6,20.57,6,22.5v1
			C6,23.776,6.224,24,6.5,24h10c0.276,0,0.5-0.224,0.5-0.5v-1c0-1.93-1.57-3.5-3.5-3.5H12v-2H13.5z"/>
		<path d="M7.5,12C7.776,12,8,11.776,8,11.5v-1C8,10.224,7.776,10,7.5,10S7,10.224,7,10.5v1C7,11.776,7.224,12,7.5,12z"/>
		<path d="M11.224,11.447c0.247-0.124,0.347-0.424,0.224-0.671l-0.5-1c-0.124-0.248-0.423-0.347-0.671-0.224
			c-0.247,0.124-0.347,0.425-0.224,0.671l0.5,1C10.675,11.467,10.971,11.572,11.224,11.447z"/>
		<path d="M4.724,9.553C4.477,9.431,4.177,9.53,4.053,9.776l-0.5,1c-0.123,0.247-0.023,0.547,0.224,0.671
			c0.253,0.125,0.549,0.019,0.671-0.224l0.5-1C5.07,9.977,4.971,9.677,4.724,9.553z"/>
	</g>
</g>
<g id="invisible_shape">
	<rect fill="none" width="24" height="24"/>
</g>
</svg>
