<?xml version="1.0" encoding="utf-8"?>
<!-- Generator: Adobe Illustrator 19.2.0, SVG Export Plug-In . SVG Version: 6.00 Build 0)  -->
<svg version="1.1" xmlns="http://www.w3.org/2000/svg" xmlns:xlink="http://www.w3.org/1999/xlink" x="0px" y="0px" width="24px"
	 height="24px" viewBox="0 0 24 24" enable-background="new 0 0 24 24" xml:space="preserve">
<g id="Filled_Icons">
	<path d="M12,1h-1V0.5C11,0.224,10.776,0,10.5,0S10,0.224,10,0.5V1H9C4.206,1,0,4.973,0,9.5v3c0,0.19,0.107,0.362,0.276,0.447
		C0.444,13.031,0.648,13.015,0.8,12.9l1.653-1.239l1.193,1.192c0.195,0.195,0.512,0.195,0.707,0L5.5,11.707l1.147,1.147
		c0.195,0.195,0.512,0.195,0.707,0L8.5,11.707l1.5,1.5V23H7.5C7.224,23,7,23.224,7,23.5S7.224,24,7.5,24h6
		c0.276,0,0.5-0.224,0.5-0.5S13.776,23,13.5,23H11v-9.793l1-1V17c0,0.276,0.224,0.5,0.5,0.5S13,17.276,13,17v-4.793l0.646,0.647
		c0.195,0.195,0.512,0.195,0.707,0l1.146-1.147l1.146,1.147c0.195,0.195,0.512,0.195,0.707,0l1.193-1.192L20.2,12.9
		c0.151,0.115,0.355,0.131,0.523,0.047C20.893,12.862,21,12.69,21,12.5v-3C21,4.973,16.794,1,12,1z"/>
</g>
<g id="invisible_shape">
	<rect fill="none" width="24" height="24"/>
</g>
</svg>
