<?xml version="1.0" encoding="utf-8"?>
<!-- Generator: Adobe Illustrator 19.2.0, SVG Export Plug-In . SVG Version: 6.00 Build 0)  -->
<svg version="1.1" xmlns="http://www.w3.org/2000/svg" xmlns:xlink="http://www.w3.org/1999/xlink" x="0px" y="0px" width="24px"
	 height="24px" viewBox="0 0 24 24" enable-background="new 0 0 24 24" xml:space="preserve">
<g id="Filled_Icons">
	<path d="M22.5,23H20V12.5c0-5.069-3.995-9.212-9-9.474V3c0-1.653-1.346-3-3-3S5,1.347,5,3v2.177c-2.441,1.155-4,3.6-4,6.323v2
		C1,13.776,1.224,14,1.5,14h13c0.276,0,0.5-0.224,0.5-0.5v-2c0-2.72-1.56-5.168-4-6.323V4.026c4.453,0.259,8,3.956,8,8.474V23h-4.5
		c-0.276,0-0.5,0.223-0.5,0.5c0,0.276,0.224,0.5,0.5,0.5h8c0.276,0,0.5-0.224,0.5-0.5C23,23.223,22.776,23,22.5,23z"/>
</g>
<g id="invisible_shape">
	<rect fill="none" width="24" height="24"/>
</g>
</svg>
