<?xml version="1.0" encoding="utf-8"?>
<!-- Generator: Adobe Illustrator 19.2.0, SVG Export Plug-In . SVG Version: 6.00 Build 0)  -->
<svg version="1.1" xmlns="http://www.w3.org/2000/svg" xmlns:xlink="http://www.w3.org/1999/xlink" x="0px" y="0px" width="24px"
	 height="24px" viewBox="0 0 24 24" enable-background="new 0 0 24 24" xml:space="preserve">
<g id="Filled_Icons">
	<g>
		<path d="M23,10h-2c-0.276,0-0.5,0.224-0.5,0.5S20.724,11,21,11h2c0.276,0,0.5-0.224,0.5-0.5S23.276,10,23,10z"/>
		<path d="M20.854,6.353l1.5-1.5c0.195-0.195,0.195-0.512,0-0.707c-0.195-0.195-0.512-0.195-0.707,0l-1.5,1.5
			c-0.195,0.195-0.195,0.512,0,0.707C20.342,6.549,20.658,6.549,20.854,6.353z"/>
		<path d="M20.854,14.646c-0.195-0.195-0.512-0.195-0.707,0c-0.195,0.195-0.195,0.512,0,0.707l1.5,1.5
			c0.195,0.195,0.512,0.195,0.707,0c0.195-0.195,0.195-0.512,0-0.707L20.854,14.646z"/>
		<path d="M3,10.5C3,10.224,2.776,10,2.5,10h-2C0.224,10,0,10.224,0,10.5S0.224,11,0.5,11h2C2.776,11,3,10.776,3,10.5z"/>
		<path d="M1.854,4.147c-0.195-0.195-0.512-0.195-0.707,0s-0.195,0.512,0,0.707l1.5,1.5c0.195,0.195,0.512,0.195,0.707,0
			c0.195-0.195,0.195-0.512,0-0.707L1.854,4.147z"/>
		<path d="M2.647,14.646l-1.5,1.5c-0.195,0.195-0.195,0.512,0,0.707c0.195,0.195,0.512,0.195,0.707,0l1.5-1.5
			c0.195-0.195,0.195-0.512,0-0.707C3.158,14.451,2.842,14.451,2.647,14.646z"/>
		<path d="M14.038,6.126C14.536,7.174,14.86,8.529,14.962,10h1.942C16.593,8.314,15.512,6.896,14.038,6.126z"/>
		<path d="M14.029,15.878C15.792,14.961,17,13.121,17,11h-2C15,12.858,14.644,14.595,14.029,15.878z"/>
		<path d="M8.971,15.878C8.356,14.595,8,12.858,8,11H6C6,13.121,7.208,14.961,8.971,15.878z"/>
		<path d="M8.962,6.126C7.488,6.896,6.407,8.314,6.096,10h1.942C8.14,8.529,8.464,7.174,8.962,6.126z"/>
		<path d="M7.5,6h2.67c-0.601,0.94-1.006,2.398-1.128,4H11V6h1v4h1.958c-0.122-1.602-0.526-3.06-1.128-4h2.67
			C15.776,6,16,5.776,16,5.5v-2C16,3.224,15.776,3,15.5,3H12V0.5C12,0.224,11.776,0,11.5,0S11,0.224,11,0.5V3H7.5
			C7.224,3,7,3.224,7,3.5v2C7,5.776,7.224,6,7.5,6z"/>
		<path d="M15.5,16h-2.67c0.726-1.133,1.17-3.016,1.17-5h-2v5h-1v-5H9c0,1.984,0.444,3.867,1.17,5H7.5C7.224,16,7,16.224,7,16.5v2
			V21c0,0.276,0.224,0.5,0.5,0.5S8,21.276,8,21v-2h1v2c0,0.276,0.224,0.5,0.5,0.5S10,21.276,10,21v-2h1v1.418l-0.975,2.924
			c-0.051,0.152-0.025,0.32,0.069,0.451C10.189,23.923,10.339,24,10.5,24h2c0.161,0,0.311-0.077,0.405-0.208
			c0.095-0.13,0.12-0.298,0.069-0.451L12,20.418V19h1v2c0,0.276,0.224,0.5,0.5,0.5S14,21.276,14,21v-2h1v2
			c0,0.276,0.224,0.5,0.5,0.5S16,21.276,16,21v-2.5v-2C16,16.224,15.776,16,15.5,16z"/>
	</g>
</g>
<g id="invisible_shape">
	<rect fill="none" width="24" height="24"/>
</g>
</svg>
