<?xml version="1.0" encoding="utf-8"?>
<!-- Generator: Adobe Illustrator 19.2.0, SVG Export Plug-In . SVG Version: 6.00 Build 0)  -->
<svg version="1.1" xmlns="http://www.w3.org/2000/svg" xmlns:xlink="http://www.w3.org/1999/xlink" x="0px" y="0px" width="24px"
	 height="24px" viewBox="0 0 24 24" enable-background="new 0 0 24 24" xml:space="preserve">
<g id="Filled_Icons">
	<path d="M23.5,23H12V2.994h1.579l2.718,2.787L15.16,6.918c-0.145,0.144-0.187,0.363-0.106,0.551l2.121,4.949
		c0.065,0.153,0.202,0.263,0.365,0.294c0.031,0.006,0.063,0.009,0.095,0.009c0.131,0,0.259-0.051,0.354-0.146l5.656-5.657
		c0.117-0.117,0.169-0.285,0.138-0.448c-0.031-0.163-0.142-0.299-0.294-0.365l-4.949-2.122c-0.189-0.081-0.406-0.039-0.551,0.107
		l-0.984,0.983L14.146,2.15C14.053,2.055,13.924,2,13.789,2H12V1c0-0.277-0.224-0.5-0.5-0.5S11,0.723,11,1v4H8.852
		c-0.154,0-0.3,0.071-0.395,0.194L6.532,7.67L5.47,6.836C5.309,6.71,5.087,6.692,4.911,6.796L0.25,9.493
		C0.106,9.575,0.013,9.725,0.001,9.89c-0.012,0.166,0.06,0.327,0.19,0.429l6.291,4.942c0.089,0.07,0.198,0.106,0.309,0.106
		c0.051,0,0.103-0.008,0.152-0.024c0.158-0.05,0.28-0.176,0.327-0.335L8.786,9.84c0.058-0.197-0.01-0.407-0.171-0.533l-1.297-1.02
		l1.778-2.294H11V23H0.5C0.224,23,0,23.223,0,23.5c0,0.276,0.224,0.5,0.5,0.494h23C23.776,24,24,23.776,24,23.5
		C24,23.223,23.776,23,23.5,23z"/>
</g>
<g id="invisible_shape">
	<rect fill="none" width="24" height="24"/>
</g>
</svg>
