<?xml version="1.0" encoding="utf-8"?>
<!-- Generator: Adobe Illustrator 19.2.0, SVG Export Plug-In . SVG Version: 6.00 Build 0)  -->
<svg version="1.1" xmlns="http://www.w3.org/2000/svg" xmlns:xlink="http://www.w3.org/1999/xlink" x="0px" y="0px" width="24px"
	 height="24px" viewBox="0 0 24 24" enable-background="new 0 0 24 24" xml:space="preserve">
<g id="Filled_Icons">
	<g>
		<g>
			<path d="M20.636,5c-1.452-1.193-3.261-1.904-5.185-1.979C15.45,3.014,15.447,3.007,15.446,3H8.554
				C8.553,3.007,8.55,3.014,8.549,3.021C6.625,3.096,4.816,3.807,3.364,5H20.636z"/>
			<path d="M15.134,2C14.573,0.823,13.39,0,12,0S9.427,0.823,8.866,2H15.134z"/>
			<path d="M23.916,9.223C22.454,7.03,22.242,6.649,21.68,6H2.32C1.758,6.649,1.546,7.03,0.084,9.223C-0.138,9.555,0.102,10,0.5,10
				h23C23.897,10,24.138,9.555,23.916,9.223z"/>
		</g>
		<path d="M16.5,21H14V11h-4v10H9v-1c0-0.276-0.224-0.5-0.5-0.5S8,19.724,8,20v1H7.5C6.121,21,5,22.122,5,23.5
			C5,23.776,5.224,24,5.5,24h13c0.276,0,0.5-0.224,0.5-0.5C19,22.122,17.879,21,16.5,21z"/>
	</g>
</g>
<g id="invisible_shape">
	<rect fill="none" width="24" height="24"/>
</g>
</svg>
