<?xml version="1.0" encoding="utf-8"?>
<!-- Generator: Adobe Illustrator 19.2.0, SVG Export Plug-In . SVG Version: 6.00 Build 0)  -->
<svg version="1.1" xmlns="http://www.w3.org/2000/svg" xmlns:xlink="http://www.w3.org/1999/xlink" x="0px" y="0px" width="24px"
	 height="24px" viewBox="0 0 24 24" enable-background="new 0 0 24 24" xml:space="preserve">
<g id="Filled_Icons">
	<path d="M12,1.009V0.5C12,0.224,11.775,0,11.5,0C11.224,0,11,0.224,11,0.5v0.515C4.753,1.314,0.116,6.152,0.116,12.5
		c0,0.276,0.224,0.5,0.5,0.5H11v10H8.5C8.224,23,8,23.224,8,23.5C8,23.776,8.224,24,8.5,24h6c0.275,0,0.5-0.224,0.5-0.5
		c0-0.276-0.225-0.5-0.5-0.5H12V13h1v2.5c0,0.276,0.224,0.5,0.5,0.5c0.275,0,0.5-0.224,0.5-0.5V13h8.616c0.276,0,0.5-0.224,0.5-0.5
		C23.116,6.073,18.364,1.199,12,1.009z"/>
</g>
<g id="invisible_shape">
	<rect fill="none" width="24" height="24"/>
</g>
</svg>
