<?xml version="1.0" encoding="utf-8"?>
<!-- Generator: Adobe Illustrator 19.2.0, SVG Export Plug-In . SVG Version: 6.00 Build 0)  -->
<svg version="1.1" xmlns="http://www.w3.org/2000/svg" xmlns:xlink="http://www.w3.org/1999/xlink" x="0px" y="0px" width="24px"
	 height="24px" viewBox="0 0 24 24" enable-background="new 0 0 24 24" xml:space="preserve">
<g id="Filled_Icons">
	<g>
		<path d="M11.5,5C7.916,5,5,7.916,5,11.5c0,2.832,1.831,5.319,4.5,6.181V18.5c0,0.276,0.224,0.5,0.5,0.5h3
			c0.275,0,0.5-0.224,0.5-0.5v-0.819c2.668-0.863,4.5-3.35,4.5-6.181C18,7.916,15.084,5,11.5,5z"/>
		<path d="M12,22h-1c-0.276,0-0.5,0.224-0.5,0.5c0,0.276,0.224,0.5,0.5,0.5h1c0.275,0,0.5-0.224,0.5-0.5
			C12.5,22.224,12.275,22,12,22z"/>
		<path d="M13,20h-3c-0.276,0-0.5,0.224-0.5,0.5c0,0.276,0.224,0.5,0.5,0.5h3c0.275,0,0.5-0.224,0.5-0.5
			C13.5,20.224,13.275,20,13,20z"/>
		<path d="M11.5,4C11.775,4,12,3.776,12,3.5v-2C12,1.224,11.775,1,11.5,1C11.224,1,11,1.224,11,1.5v2C11,3.776,11.224,4,11.5,4z"/>
		<path d="M21.5,11h-2c-0.276,0-0.5,0.224-0.5,0.5c0,0.276,0.224,0.5,0.5,0.5h2c0.275,0,0.5-0.224,0.5-0.5
			C22,11.224,21.775,11,21.5,11z"/>
		<path d="M3.5,11h-2C1.224,11,1,11.224,1,11.5C1,11.776,1.224,12,1.5,12h2C3.775,12,4,11.776,4,11.5C4,11.224,3.775,11,3.5,11z"/>
		<path d="M5.488,6.199c0.098,0.097,0.226,0.146,0.354,0.146c0.128,0,0.256-0.049,0.353-0.146c0.195-0.195,0.195-0.512,0-0.707
			L4.074,3.369c-0.195-0.196-0.512-0.196-0.707,0c-0.195,0.195-0.195,0.511,0,0.708L5.488,6.199z"/>
		<path d="M17.155,6.345c0.128,0,0.256-0.049,0.354-0.146l2.122-2.122c0.195-0.197,0.195-0.513,0-0.708
			c-0.195-0.196-0.512-0.196-0.707,0l-2.122,2.122c-0.195,0.195-0.195,0.512,0,0.707C16.899,6.296,17.027,6.345,17.155,6.345z"/>
	</g>
</g>
<g id="invisible_shape">
	<rect fill="none" width="24" height="24"/>
</g>
</svg>
