<?xml version="1.0" encoding="utf-8"?>
<!-- Generator: Adobe Illustrator 19.2.0, SVG Export Plug-In . SVG Version: 6.00 Build 0)  -->
<svg version="1.1" xmlns="http://www.w3.org/2000/svg" xmlns:xlink="http://www.w3.org/1999/xlink" x="0px" y="0px" width="24px"
	 height="24px" viewBox="0 0 24 24" enable-background="new 0 0 24 24" xml:space="preserve">
<g id="Filled_Icons">
	<path d="M16.5,13H16V4c0-1.378-1.121-2.5-2.5-2.5c-0.821,0-1.544,0.402-2,1.015C11.044,1.902,10.321,1.5,9.5,1.5
		C8.121,1.5,7,2.622,7,4v9H6.5C6.224,13,6,13.223,6,13.5v1c0,2.865,2.201,5.221,5,5.475V21.5c0,0.276,0.224,0.5,0.5,0.5
		s0.5-0.224,0.5-0.5v-1.525c2.799-0.254,5-2.61,5-5.475v-1C17,13.223,16.776,13,16.5,13z M13.5,2.5C14.327,2.5,15,3.172,15,4v9h-3V4
		C12,3.172,12.673,2.5,13.5,2.5z M8,4c0-0.828,0.673-1.5,1.5-1.5S11,3.172,11,4v9H8V4z"/>
</g>
<g id="invisible_shape">
	<rect fill="none" width="24" height="24"/>
</g>
</svg>
