<?xml version="1.0" encoding="utf-8"?>
<!-- Generator: Adobe Illustrator 19.2.0, SVG Export Plug-In . SVG Version: 6.00 Build 0)  -->
<svg version="1.1" xmlns="http://www.w3.org/2000/svg" xmlns:xlink="http://www.w3.org/1999/xlink" x="0px" y="0px" width="24px"
	 height="24px" viewBox="0 0 24 24" enable-background="new 0 0 24 24" xml:space="preserve">
<g id="Filled_Icons">
	<g>
		<path d="M11.5,0C6.813,0,3,3.814,3,8.5c0,4.519,3.546,8.214,8,8.476v-4.269l-0.646,0.648c-0.195,0.194-0.512,0.194-0.707,0
			l-1.5-1.5c-0.195-0.195-0.195-0.512,0-0.707c0.195-0.196,0.512-0.196,0.707,0L10,12.294l1.146-1.146
			c0.046-0.046,0.102-0.083,0.163-0.108c0.122-0.051,0.26-0.051,0.382,0c0.062,0.024,0.117,0.062,0.163,0.108L13,12.294l1.146-1.146
			c0.195-0.196,0.512-0.196,0.707,0c0.195,0.195,0.195,0.511,0,0.707l-1.5,1.5C13.256,13.451,13.128,13.5,13,13.5
			s-0.256-0.049-0.354-0.146L12,12.707v4.269c4.453-0.261,8-3.957,8-8.476C20,3.814,16.187,0,11.5,0z"/>
		<path d="M14,18H9c-0.276,0-0.5,0.224-0.5,0.5C8.5,18.776,8.724,19,9,19h5c0.275,0,0.5-0.224,0.5-0.5C14.5,18.224,14.275,18,14,18z
			"/>
		<path d="M14,20H9c-0.276,0-0.5,0.224-0.5,0.5C8.5,20.776,8.724,21,9,21h5c0.275,0,0.5-0.224,0.5-0.5C14.5,20.224,14.275,20,14,20z
			"/>
		<path d="M14,22H9c-0.276,0-0.5,0.224-0.5,0.5C8.5,22.776,8.724,23,9,23h2v0.5c0,0.276,0.224,0.5,0.5,0.5
			c0.275,0,0.5-0.224,0.5-0.5V23h2c0.275,0,0.5-0.224,0.5-0.5C14.5,22.224,14.275,22,14,22z"/>
	</g>
</g>
<g id="invisible_shape">
	<rect fill="none" width="24" height="24"/>
</g>
</svg>
