<?xml version="1.0" encoding="utf-8"?>
<!-- Generator: Adobe Illustrator 19.2.0, SVG Export Plug-In . SVG Version: 6.00 Build 0)  -->
<svg version="1.1" xmlns="http://www.w3.org/2000/svg" xmlns:xlink="http://www.w3.org/1999/xlink" x="0px" y="0px" width="24px"
	 height="24px" viewBox="0 0 24 24" enable-background="new 0 0 24 24" xml:space="preserve">
<g id="Filled_Icons">
	<g>
		<path d="M12.646,14.721l0.143,0.182c0.451,0.578,0.42,1.396-0.075,1.937l-1.632,1.784c-0.663,0.722-1.603,1.135-2.578,1.135
			c-0.019,0-0.112-0.003-0.132-0.003C7.343,19.717,6.39,19.23,5.754,18.42c-0.636-0.814-0.88-1.856-0.671-2.863
			c0.205-1.003,0.843-1.865,1.748-2.359l2.123-1.158c0.616-0.335,1.366-0.188,1.828,0.328l3.744-3.08
			c-0.787-1.16-1.842-2.119-3.101-2.706c-0.143-0.066-0.31-0.062-0.448,0.013c-0.139,0.075-0.234,0.211-0.257,0.367
			c-0.137,0.917-0.575,1.907-1.119,2.569C8.914,8.735,8.5,7.615,8.5,6.5c0-1.635,1.264-3.146,2.439-3.858
			c0.204-0.124,0.292-0.376,0.209-0.602c-0.083-0.224-0.317-0.354-0.551-0.319C4.654,2.715,0,8.108,0,14c0,4.411,3.589,8,8,8
			s8-3.589,8-8c0-0.63-0.092-1.248-0.231-1.852L12.646,14.721z"/>
		<path d="M22.69,4.511c-0.176-0.215-0.492-0.244-0.703-0.069L10.64,13.781l-0.573-0.733c-0.151-0.193-0.421-0.247-0.633-0.13
			l-2.123,1.157c-0.646,0.354-1.102,0.968-1.248,1.686c-0.149,0.718,0.024,1.462,0.477,2.042c0.454,0.578,1.135,0.925,1.869,0.954
			c0.006,0,0.088,0.003,0.094,0.003c0.697,0,1.367-0.294,1.841-0.81l1.632-1.783c0.165-0.181,0.175-0.454,0.024-0.647l-0.744-0.95
			l11.366-9.354C22.836,5.039,22.866,4.723,22.69,4.511z M8.502,18.252L8.502,18.252l0.001,0.007L8.502,18.252z"/>
	</g>
</g>
<g id="invisible_shape">
	<rect fill="none" width="24" height="24"/>
</g>
</svg>
