<?xml version="1.0" encoding="utf-8"?>
<!-- Generator: Adobe Illustrator 19.2.0, SVG Export Plug-In . SVG Version: 6.00 Build 0)  -->
<svg version="1.1" xmlns="http://www.w3.org/2000/svg" xmlns:xlink="http://www.w3.org/1999/xlink" x="0px" y="0px" width="24px"
	 height="24px" viewBox="0 0 24 24" enable-background="new 0 0 24 24" xml:space="preserve">
<g id="Filled_Icons">
	<g>
		<path d="M10.658,0.026c-0.178-0.059-0.373-0.015-0.508,0.118c-0.134,0.128-0.184,0.323-0.129,0.503l0.036,0.117
			c0.45,1.467,1.173,3.821,0.353,5.818C10.056,6.11,9.614,5.498,9.406,5.21C9.313,5.078,9.161,5,9,5H8.999
			C8.838,5,8.686,5.078,8.593,5.21C8.43,5.44,7,7.493,7,9c0,2.756,2.243,5,5,5s5-2.244,5-5C17,5.092,14.273,1.234,10.658,0.026z"/>
		<path d="M15,15H9c-0.154,0-0.3,0.071-0.394,0.192c-0.095,0.122-0.128,0.279-0.091,0.429l2,8C10.57,23.843,10.771,24,11,24h2
			c0.229,0,0.429-0.157,0.484-0.379l2-8c0.038-0.15,0.004-0.307-0.091-0.429C15.299,15.071,15.153,15,15,15z"/>
	</g>
</g>
<g id="invisible_shape">
	<rect fill="none" width="24" height="24"/>
</g>
</svg>
