<?xml version="1.0" encoding="utf-8"?>
<!-- Generator: Adobe Illustrator 16.0.3, SVG Export Plug-In . SVG Version: 6.00 Build 0)  -->
<!DOCTYPE svg PUBLIC "-//W3C//DTD SVG 1.1//EN" "http://www.w3.org/Graphics/SVG/1.1/DTD/svg11.dtd">
<svg version="1.1" xmlns="http://www.w3.org/2000/svg" xmlns:xlink="http://www.w3.org/1999/xlink" x="0px" y="0px" width="24px"
	 height="24px" viewBox="0 0 24 24" enable-background="new 0 0 24 24" xml:space="preserve">
<g id="Outline_Icons">
	<g>
		<polyline fill="none" stroke="#000000" stroke-linejoin="round" stroke-miterlimit="10" points="4.759,16.938 0.5,10.5 20.5,10.5 
			11.5,19.5 9.5,19.5 		"/>
		<circle fill="none" stroke="#000000" stroke-linejoin="round" stroke-miterlimit="10" cx="6.5" cy="19.5" r="3"/>
		
			<line fill="none" stroke="#000000" stroke-linecap="round" stroke-linejoin="round" stroke-miterlimit="10" x1="20.5" y1="10.5" x2="23.52" y2="7.5"/>
		<path fill="none" stroke="#000000" stroke-linecap="round" stroke-linejoin="round" stroke-miterlimit="10" d="M20.5,10.583v9.402
			c0,0.338-0.17,0.652-0.453,0.838c-0.282,0.185-0.639,0.214-0.948,0.078l-4.845-4.155"/>
		<path fill="none" stroke="#000000" stroke-linejoin="round" stroke-miterlimit="10" d="M18.217,10.5
			c0-1.819-1.152-3.026-2.572-3.026c-0.429,0-0.83,0.105-1.186,0.292c-0.376-1.853-2.007-3.245-3.96-3.245
			c-1.955,0-3.585,1.393-3.961,3.245C6.183,7.579,5.782,7.474,5.355,7.474c-1.422,0-2.573,1.181-2.573,3.026"/>
	</g>
</g>
<g id="invisible_shape">
	<rect fill="none" width="24" height="24"/>
</g>
</svg>
