<?xml version="1.0" encoding="utf-8"?>
<!-- Generator: Adobe Illustrator 16.0.3, SVG Export Plug-In . SVG Version: 6.00 Build 0)  -->
<!DOCTYPE svg PUBLIC "-//W3C//DTD SVG 1.1//EN" "http://www.w3.org/Graphics/SVG/1.1/DTD/svg11.dtd">
<svg version="1.1" xmlns="http://www.w3.org/2000/svg" xmlns:xlink="http://www.w3.org/1999/xlink" x="0px" y="0px" width="24px"
	 height="24px" viewBox="0 0 24 24" enable-background="new 0 0 24 24" xml:space="preserve">
<g id="Outline_Icons">
	<g>
		<path fill="none" stroke="#000000" stroke-linejoin="round" stroke-miterlimit="10" d="M4.571,14.5C3.998,15.36,4,16.5,4,16.5
			h2.121c0.128,1,0.358,1.074,0.668,1.617c-1.461,1.664,0.402,3.463,0.402,3.463l1.501-1.539c0.522,0.346,1.252,0.589,1.871,0.759
			C10.705,23.012,13.5,23,13.5,23v-2.121c1-0.128,1.074-0.359,1.617-0.669c1.664,1.462,3.463-0.402,3.463-0.402l-1.539-1.501
			c0.346-0.521,0.589-1.252,0.759-1.87c1.324-0.086,1.849-1.119,2.059-1.937"/>
		<circle fill="none" stroke="#000000" stroke-linejoin="round" stroke-miterlimit="10" cx="12" cy="15" r="2.5"/>
		<path fill="none" stroke="#000000" stroke-linejoin="round" stroke-miterlimit="10" d="M6.5,14.5C6.5,11.356,8.962,9,12,9
			s5.5,2.356,5.5,5.5h5C22.5,8.5,17.798,4,12,4S1.5,8.5,1.5,14.5H6.5z"/>
		<path fill="none" stroke="#000000" stroke-linejoin="round" stroke-miterlimit="10" d="M4.5,7V2c0-0.829-0.672-1.5-1.5-1.5
			S1.5,1.171,1.5,2v12"/>
		
			<line fill="none" stroke="#000000" stroke-linecap="round" stroke-linejoin="round" stroke-miterlimit="10" x1="1.5" y1="3.5" x2="4.5" y2="3.5"/>
		
			<line fill="none" stroke="#000000" stroke-linecap="round" stroke-linejoin="round" stroke-miterlimit="10" x1="1.5" y1="6.5" x2="4.5" y2="6.5"/>
	</g>
</g>
<g id="invisible_shape">
	<rect fill="none" width="24" height="24"/>
</g>
</svg>
