<?xml version="1.0" encoding="utf-8"?>
<!-- Generator: Adobe Illustrator 16.0.3, SVG Export Plug-In . SVG Version: 6.00 Build 0)  -->
<!DOCTYPE svg PUBLIC "-//W3C//DTD SVG 1.1//EN" "http://www.w3.org/Graphics/SVG/1.1/DTD/svg11.dtd">
<svg version="1.1" xmlns="http://www.w3.org/2000/svg" xmlns:xlink="http://www.w3.org/1999/xlink" x="0px" y="0px" width="24px"
	 height="24px" viewBox="0 0 24 24" enable-background="new 0 0 24 24" xml:space="preserve">
<g id="Outline_Icons_1_">
	<g id="Outline_Icons">
	</g>
	<g id="New_icons_1_">
		<g>
			<g>
				
					<rect x="7.5" y="9.5" fill="none" stroke="#000000" stroke-linecap="round" stroke-linejoin="round" stroke-miterlimit="10" width="9" height="7"/>
				
					<line fill="none" stroke="#000000" stroke-linecap="round" stroke-linejoin="round" stroke-miterlimit="10" x1="12" y1="14.5" x2="12" y2="12.5"/>
				<path fill="none" stroke="#000000" stroke-linecap="round" stroke-linejoin="round" stroke-miterlimit="10" d="M9,9.5v-1
					c0-1.657,1.344-3,3-3s3,1.343,3,3v1"/>
				<path fill="none" stroke="#000000" stroke-linejoin="round" stroke-miterlimit="10" d="M12.5,12c0,0.276-0.224,0.5-0.5,0.5l0,0
					c-0.276,0-0.5-0.224-0.5-0.5l0,0c0-0.276,0.224-0.5,0.5-0.5l0,0C12.276,11.5,12.5,11.724,12.5,12L12.5,12z"/>
			</g>
			<circle fill="none" stroke="#000000" stroke-linejoin="round" stroke-miterlimit="10" cx="12" cy="12" r="11.5"/>
		</g>
	</g>
</g>
<g id="Invisible_Shape">
	<rect fill="none" width="24" height="24"/>
</g>
</svg>
