<?xml version="1.0" encoding="utf-8"?>
<!-- Generator: Adobe Illustrator 16.0.3, SVG Export Plug-In . SVG Version: 6.00 Build 0)  -->
<!DOCTYPE svg PUBLIC "-//W3C//DTD SVG 1.1//EN" "http://www.w3.org/Graphics/SVG/1.1/DTD/svg11.dtd">
<svg version="1.1" xmlns="http://www.w3.org/2000/svg" xmlns:xlink="http://www.w3.org/1999/xlink" x="0px" y="0px" width="24px"
	 height="24px" viewBox="0 0 24 24" enable-background="new 0 0 24 24" xml:space="preserve">
<g id="Outline_Icons">
	<g>
		<path fill="none" stroke="#000000" stroke-linejoin="round" stroke-miterlimit="10" d="M8.042,23.484
			c0-0.525,0.402-0.964,0.926-1.007C14.45,22.02,18.042,17.496,18.042,12c0-5.543-3.655-10.082-9.219-10.473
			C8.384,1.496,8.042,1.131,8.042,0.691V0.5h-2v1.252c0,0.945,0.714,1.732,1.653,1.83c6.171,0.635,7.847,4.865,7.847,8.438
			c0,3.375-1.693,7.72-7.809,8.392c-0.965,0.105-1.691,0.918-1.691,1.889V23.5h2V23.484z"/>
		
			<line fill="none" stroke="#000000" stroke-linecap="round" stroke-linejoin="round" stroke-miterlimit="10" x1="0.542" y1="11.5" x2="22.948" y2="11.5"/>
		<polyline fill="none" stroke="#000000" stroke-linecap="round" stroke-linejoin="round" stroke-miterlimit="10" points="
			19.562,8.043 23.036,11.527 19.558,15 		"/>
		<polyline fill="none" stroke="#000000" stroke-linejoin="round" stroke-miterlimit="10" points="6.698,3.25 0.5,11.5 
			6.542,20.968 		"/>
	</g>
</g>
<g id="invisible_shape">
	<rect fill="none" width="24" height="24"/>
</g>
</svg>
