<?xml version="1.0" encoding="utf-8"?>
<!-- Generator: Adobe Illustrator 16.0.3, SVG Export Plug-In . SVG Version: 6.00 Build 0)  -->
<!DOCTYPE svg PUBLIC "-//W3C//DTD SVG 1.1//EN" "http://www.w3.org/Graphics/SVG/1.1/DTD/svg11.dtd">
<svg version="1.1" xmlns="http://www.w3.org/2000/svg" xmlns:xlink="http://www.w3.org/1999/xlink" x="0px" y="0px" width="24px"
	 height="24px" viewBox="0 0 24 24" enable-background="new 0 0 24 24" xml:space="preserve">
<g id="Outline_Icons">
	<g>
		<path fill="none" stroke="#000000" stroke-linejoin="round" stroke-miterlimit="10" d="M12.576,9.752
			c-0.856-1.34-3.427-0.861-3.427,1.531c0.054,2.178,3.427,3.827,3.427,3.827s3.373-1.649,3.427-3.827
			C16.003,8.891,13.434,8.412,12.576,9.752z"/>
		<rect x="0.5" y="15.5" fill="none" stroke="#000000" stroke-linejoin="round" stroke-miterlimit="10" width="4" height="7"/>
		<path fill="none" stroke="#000000" stroke-linecap="round" stroke-linejoin="round" stroke-miterlimit="10" d="M4.5,21.062
			c10.5,3.5,7,3.5,19-2.5c-1.063-1.062-1.902-1.313-3-1l-4.434,1.471"/>
		<path fill="none" stroke="#000000" stroke-linecap="round" stroke-linejoin="round" stroke-miterlimit="10" d="M4.5,16.5h3
			c2.353,0,4,1.5,4.5,2c0,0,1.5,0,3,0c1.594,0,1.594,2,0,2H9.5"/>
		<rect x="19.5" y="1.5" fill="none" stroke="#000000" stroke-linejoin="round" stroke-miterlimit="10" width="4" height="7"/>
		<path fill="none" stroke="#000000" stroke-linecap="round" stroke-linejoin="round" stroke-miterlimit="10" d="M19.5,7.5h-3
			c-2.353,0-4-1.5-4.5-2c0,0-1.5,0-3,0c-1.594,0-1.594-2,0-2h5.5"/>
		<path fill="none" stroke="#000000" stroke-linecap="round" stroke-linejoin="round" stroke-miterlimit="10" d="M19.5,2.875
			c-10.5-3.5-7-3.5-19,2.5c1.062,1.062,1.902,1.313,3,1L7.91,4.91"/>
	</g>
</g>
<g id="invisible_shape">
	<rect fill="none" width="24" height="24"/>
</g>
</svg>
