<?xml version="1.0" encoding="utf-8"?>
<!-- Generator: Adobe Illustrator 16.0.3, SVG Export Plug-In . SVG Version: 6.00 Build 0)  -->
<!DOCTYPE svg PUBLIC "-//W3C//DTD SVG 1.1//EN" "http://www.w3.org/Graphics/SVG/1.1/DTD/svg11.dtd">
<svg version="1.1" xmlns="http://www.w3.org/2000/svg" xmlns:xlink="http://www.w3.org/1999/xlink" x="0px" y="0px" width="24px"
	 height="24px" viewBox="0 0 24 24" enable-background="new 0 0 24 24" xml:space="preserve">
<g id="Outline_Icons">
	<g>
		<path fill="none" stroke="#000000" stroke-linejoin="round" stroke-miterlimit="10" d="M7.435,13.961c0,0,6.935-5.045,6.935-8.779
			c0-4.311-5.674-5.676-6.935-0.432C6.174-0.494,0.5,0.871,0.5,5.182C0.5,8.916,7.435,13.961,7.435,13.961z"/>
		<path fill="none" stroke="#000000" stroke-linecap="round" stroke-linejoin="round" stroke-miterlimit="10" d="M3.852,3.494
			C3.097,3.872,2.519,4.697,2.519,5.82c0,0.162,0.02,0.325,0.056,0.494"/>
		<path fill="none" stroke="#000000" stroke-linejoin="round" stroke-miterlimit="10" d="M12.662,9.086
			c0.78,2.392,2.212,4.693,2.212,4.693s6.631-1.646,7.75-4.404c1.291-3.184-2.49-5.889-4.991-2.395
			c0.458-3.047-1.775-4.266-3.553-3.537"/>
		<path fill="none" stroke="#000000" stroke-linecap="round" stroke-linejoin="round" stroke-miterlimit="10" d="M7.32,13.918
			c-0.281,8.062,3.344,6.609,5.51,9.582"/>
		<path fill="none" stroke="#000000" stroke-linecap="round" stroke-linejoin="round" stroke-miterlimit="10" d="M14.874,13.779
			c0,0-3.022,1.357-3.022,4.857S12.83,23.5,12.83,23.5"/>
	</g>
</g>
<g id="invisible_shape">
	<rect fill="none" width="24" height="24"/>
</g>
</svg>
