<?xml version="1.0" encoding="utf-8"?>
<!-- Generator: Adobe Illustrator 16.0.3, SVG Export Plug-In . SVG Version: 6.00 Build 0)  -->
<!DOCTYPE svg PUBLIC "-//W3C//DTD SVG 1.1//EN" "http://www.w3.org/Graphics/SVG/1.1/DTD/svg11.dtd">
<svg version="1.1" xmlns="http://www.w3.org/2000/svg" xmlns:xlink="http://www.w3.org/1999/xlink" x="0px" y="0px" width="24px"
	 height="24px" viewBox="0 0 24 24" enable-background="new 0 0 24 24" xml:space="preserve">
<g id="Outline_Icons">
	<g>
		<path fill="none" stroke="#000000" stroke-linejoin="round" stroke-miterlimit="10" d="M11.5,9.553c0,0,5-3.6,5-6.268
			c0-3.076-4.091-4.049-5-0.308c-0.909-3.741-5-2.769-5,0.308C6.5,5.953,11.5,9.553,11.5,9.553z"/>
		<path fill="none" stroke="#000000" stroke-linejoin="round" stroke-miterlimit="10" d="M9,13c0-1.932-1.566-3.5-3.5-3.5
			C3.567,9.5,2,11.068,2,13c0,0.773,0.259,1.482,0.684,2.062L1.5,23.5H9l-3.051-7.045C7.668,16.232,9,14.779,9,13z"/>
		
			<line fill="none" stroke="#000000" stroke-linecap="round" stroke-linejoin="round" stroke-miterlimit="10" x1="6.5" y1="12" x2="6.5" y2="11.5"/>
		<path fill="none" stroke="#000000" stroke-linecap="round" stroke-linejoin="round" stroke-miterlimit="10" d="M8.414,15
			C7.509,15,6.641,14.641,6,14"/>
		<path fill="none" stroke="#000000" stroke-linejoin="round" stroke-miterlimit="10" d="M14,13c0-1.932,1.566-3.5,3.5-3.5
			c1.933,0,3.5,1.568,3.5,3.5c0,0.773-0.259,1.482-0.684,2.062L21.5,23.5H14l3.051-7.045C15.332,16.232,14,14.779,14,13z"/>
		
			<line fill="none" stroke="#000000" stroke-linecap="round" stroke-linejoin="round" stroke-miterlimit="10" x1="16.5" y1="12" x2="16.5" y2="11.5"/>
		<path fill="none" stroke="#000000" stroke-linecap="round" stroke-linejoin="round" stroke-miterlimit="10" d="M14.586,15
			c0.905,0,1.773-0.359,2.414-1"/>
	</g>
</g>
<g id="invisible_shape">
	<rect fill="none" width="24" height="24"/>
</g>
</svg>
