<?xml version="1.0" encoding="utf-8"?>
<!-- Generator: Adobe Illustrator 16.0.3, SVG Export Plug-In . SVG Version: 6.00 Build 0)  -->
<!DOCTYPE svg PUBLIC "-//W3C//DTD SVG 1.1//EN" "http://www.w3.org/Graphics/SVG/1.1/DTD/svg11.dtd">
<svg version="1.1" xmlns="http://www.w3.org/2000/svg" xmlns:xlink="http://www.w3.org/1999/xlink" x="0px" y="0px" width="24px"
	 height="24px" viewBox="0 0 24 24" enable-background="new 0 0 24 24" xml:space="preserve">
<g id="Outline_Icons">
	<g>
		<path fill="none" stroke="#000000" stroke-linejoin="round" stroke-miterlimit="10" d="M18.281,8.365c0,0,3-2.182,3-3.799
			c0-1.865-2.454-2.455-3-0.186c-0.545-2.27-3-1.68-3,0.186C15.281,6.184,18.281,8.365,18.281,8.365z"/>
		<path fill="none" stroke="#000000" stroke-linejoin="round" stroke-miterlimit="10" d="M12.166,4.336c0,0,0.928-2.125,0.417-2.996
			c-0.59-1.006-2.1-0.547-1.677,0.848C9.896,1.137,8.759,2.23,9.348,3.236C9.858,4.107,12.166,4.336,12.166,4.336z"/>
		<path fill="none" stroke="#000000" stroke-linejoin="round" stroke-miterlimit="10" d="M18.151,15.068
			c0,0,3.664,0.577,4.808-0.564c1.318-1.319,0-3.471-1.99-2.254c1.219-1.988-0.935-3.309-2.253-1.988
			C17.573,11.404,18.151,15.068,18.151,15.068z"/>
		<g>
			<path fill="none" stroke="#000000" stroke-linejoin="round" stroke-miterlimit="10" d="M4.5,21.201
				c0,1.15-0.732,2.299-2.003,2.299c-1.27,0-1.966-0.572-1.966-1.845c0-1.269,0.993-2.155,2.263-2.155c0.419,0,1.706,0,1.706,0
				S4.5,20.35,4.5,21.201z"/>
			<path fill="none" stroke="#000000" stroke-linejoin="round" stroke-miterlimit="10" d="M13.5,18.701
				C13.5,19.85,12.484,21,11.214,21c-1.27,0-2.293-1.07-2.293-2.342c0-1.27,1.036-2.158,2.307-2.158c0.419,0,1.272,0,2.272,0
				C13.5,17.5,13.5,17.934,13.5,18.701z"/>
			<polyline fill="none" stroke="#000000" stroke-linejoin="round" stroke-miterlimit="10" points="4.5,20.25 4.5,9.701 13.5,6.25 
				13.5,17.816 			"/>
			
				<line fill="none" stroke="#000000" stroke-linejoin="round" stroke-miterlimit="10" x1="4.521" y1="12.668" x2="13.527" y2="8.934"/>
		</g>
	</g>
</g>
<g id="invisible_shape">
	<rect fill="none" width="24" height="24"/>
</g>
</svg>
