<?xml version="1.0" encoding="utf-8"?>
<!-- Generator: Adobe Illustrator 16.0.3, SVG Export Plug-In . SVG Version: 6.00 Build 0)  -->
<!DOCTYPE svg PUBLIC "-//W3C//DTD SVG 1.1//EN" "http://www.w3.org/Graphics/SVG/1.1/DTD/svg11.dtd">
<svg version="1.1" xmlns="http://www.w3.org/2000/svg" xmlns:xlink="http://www.w3.org/1999/xlink" x="0px" y="0px" width="24px"
	 height="24px" viewBox="0 0 24 24" enable-background="new 0 0 24 24" xml:space="preserve">
<g id="Outline_Icons">
	<g>
		<path fill="none" stroke="#000000" stroke-linejoin="round" stroke-miterlimit="10" d="M22.287,3.236
			c-0.471-0.775-1.564-0.972-2.443-0.438c-0.111,0.067-0.213,0.143-0.306,0.226c0.054-0.186,0.09-0.379,0.09-0.585
			c0-1.027-0.735-1.861-1.642-1.861s-1.643,0.834-1.643,1.861c0,0.196,0.035,0.381,0.084,0.558c-0.084-0.071-0.173-0.14-0.271-0.198
			c-0.88-0.533-1.974-0.337-2.444,0.438c-0.47,0.776-0.137,1.837,0.742,2.369c0.307,0.187,0.64,0.278,0.963,0.293
			c-0.076,0.058-0.151,0.115-0.221,0.185C14.47,6.811,14.4,7.919,15.041,8.562c0.641,0.641,1.751,0.57,2.479-0.156
			C17.747,8.177,17.902,7.91,18,7.633c0.098,0.277,0.253,0.544,0.48,0.772c0.728,0.727,1.837,0.797,2.479,0.156
			c0.641-0.643,0.571-1.751-0.156-2.479c-0.069-0.069-0.146-0.127-0.221-0.185c0.323-0.015,0.655-0.106,0.963-0.293
			C22.424,5.073,22.757,4.013,22.287,3.236z"/>
		<circle fill="none" stroke="#000000" stroke-linejoin="round" stroke-miterlimit="10" cx="18" cy="5.019" r="1.488"/>
		<path fill="none" stroke="#000000" stroke-linecap="round" stroke-linejoin="round" stroke-miterlimit="10" d="M14.71,6.507
			c-1.604,1.443-2.274,3.651-2.472,5.993"/>
		<path fill="none" stroke="#000000" stroke-linejoin="round" stroke-miterlimit="10" d="M3.213,3.236
			c0.471-0.775,1.564-0.972,2.443-0.438C5.768,2.865,5.869,2.94,5.962,3.023c-0.054-0.186-0.09-0.379-0.09-0.585
			c0-1.027,0.735-1.861,1.642-1.861s1.643,0.834,1.643,1.861c0,0.196-0.035,0.381-0.084,0.558c0.084-0.071,0.173-0.14,0.271-0.198
			c0.88-0.533,1.974-0.337,2.444,0.438c0.47,0.776,0.137,1.837-0.742,2.369c-0.307,0.187-0.64,0.278-0.963,0.293
			c0.076,0.058,0.151,0.115,0.221,0.185c0.728,0.728,0.797,1.836,0.156,2.479C9.818,9.202,8.708,9.132,7.98,8.405
			C7.753,8.177,7.598,7.91,7.5,7.633C7.402,7.91,7.247,8.177,7.02,8.405C6.292,9.132,5.183,9.202,4.541,8.562
			C3.9,7.919,3.97,6.811,4.697,6.083c0.069-0.069,0.146-0.127,0.221-0.185C4.595,5.884,4.263,5.792,3.955,5.605
			C3.076,5.073,2.743,4.013,3.213,3.236z"/>
		<circle fill="none" stroke="#000000" stroke-linejoin="round" stroke-miterlimit="10" cx="7.5" cy="5.019" r="1.488"/>
		<path fill="none" stroke="#000000" stroke-linecap="round" stroke-linejoin="round" stroke-miterlimit="10" d="M9,9
			c0,0,0.424,1.378,0.784,3.5"/>
		<path fill="none" stroke="#000000" stroke-linecap="round" stroke-linejoin="round" stroke-miterlimit="10" d="M4.792,23.5h12.416
			c0.674,0,1.31-0.334,1.679-0.898c0.307-0.469,0.513-1.007,0.583-1.594c0.021-0.168,0.03-0.337,0.03-0.508
			c0-2.434-2.057-4.524-5.007-5.466L15.5,12.5h-9l1.007,2.534C4.557,15.976,2.5,18.066,2.5,20.5c0,0.171,0.011,0.34,0.03,0.508
			c0.07,0.587,0.276,1.125,0.584,1.594C3.482,23.166,4.118,23.5,4.792,23.5z"/>
		
			<line fill="none" stroke="#000000" stroke-linecap="round" stroke-linejoin="round" stroke-miterlimit="10" x1="3" y1="19.5" x2="19" y2="19.5"/>
		
			<line fill="none" stroke="#000000" stroke-linecap="round" stroke-linejoin="round" stroke-miterlimit="10" x1="3" y1="21.5" x2="19" y2="21.5"/>
	</g>
</g>
<g id="invisible_shape">
	<rect fill="none" width="24" height="24"/>
</g>
</svg>
