<?xml version="1.0" encoding="utf-8"?>
<!-- Generator: Adobe Illustrator 16.0.3, SVG Export Plug-In . SVG Version: 6.00 Build 0)  -->
<!DOCTYPE svg PUBLIC "-//W3C//DTD SVG 1.1//EN" "http://www.w3.org/Graphics/SVG/1.1/DTD/svg11.dtd">
<svg version="1.1" xmlns="http://www.w3.org/2000/svg" xmlns:xlink="http://www.w3.org/1999/xlink" x="0px" y="0px" width="24px"
	 height="24px" viewBox="0 0 24 24" enable-background="new 0 0 24 24" xml:space="preserve">
<g id="Outline_Icons">
	<g>
		<g>
			<path fill="none" stroke="#000000" stroke-linejoin="round" stroke-miterlimit="10" d="M17.685,10.57
				c3.168,0,5.759,2.568,5.759,5.736v1.434c0,3.168-2.614,5.76-5.782,5.76h-5.736H7.101c-5.214,0-4.497-7.182-4.497-7.182
				s-1.875-0.551-2.1-2.115c-0.021-0.137,0.041-0.275,0.155-0.352c0.115-0.076,0.264-0.082,0.383-0.012
				c1.592,0.949,3.24,0.869,4.937-0.06c0.118-0.063,0.262-0.058,0.373,0.019s0.171,0.207,0.154,0.34
				c-0.17,1.369-2.109,2.168-2.109,2.168s-0.161,3.586,2.879,3.586C11.22,19.893,10.514,10.57,17.685,10.57z"/>
			<path fill="none" stroke="#000000" stroke-linejoin="round" stroke-miterlimit="10" d="M14.27,8.607c0,0,2.198-2.988,1.709-4.529
				c-0.565-1.777-3.083-1.596-2.916,0.731c-1.207-1.997-3.367-0.69-2.803,1.086C10.75,7.435,14.27,8.607,14.27,8.607z"/>
			<path fill="none" stroke="#000000" stroke-linejoin="round" stroke-miterlimit="10" d="M5.881,6.24c0,0,1.969-1.432,1.969-2.493
				c0-1.224-1.61-1.61-1.969-0.122C5.523,2.137,3.912,2.523,3.912,3.747C3.912,4.809,5.881,6.24,5.881,6.24z"/>
			<path fill="none" stroke="#000000" stroke-linejoin="round" stroke-miterlimit="10" d="M18.84,5.146c0,0,3.17,0.5,4.158-0.487
				c1.141-1.141,0-3.004-1.722-1.949c1.055-1.721-0.808-2.861-1.948-1.721C18.34,1.977,18.84,5.146,18.84,5.146z"/>
		</g>
		
			<line fill="none" stroke="#000000" stroke-linecap="round" stroke-linejoin="round" stroke-miterlimit="10" x1="19.5" y1="15" x2="19.5" y2="14.5"/>
		<path fill="none" stroke="#000000" stroke-linecap="round" stroke-linejoin="round" stroke-miterlimit="10" d="M22.729,20.5
			c-1.5,0-2.645-0.359-3.285-1"/>
	</g>
</g>
<g id="invisible_shape">
	<rect fill="none" width="24" height="24"/>
</g>
</svg>
