<?xml version="1.0" encoding="utf-8"?>
<!-- Generator: Adobe Illustrator 19.2.1, SVG Export Plug-In . SVG Version: 6.00 Build 0)  -->
<svg version="1.1" xmlns="http://www.w3.org/2000/svg" xmlns:xlink="http://www.w3.org/1999/xlink" x="0px" y="0px" width="24px"
	 height="24px" viewBox="0 0 24 24" enable-background="new 0 0 24 24" xml:space="preserve">
<g id="Filled_Icons_1_">
	<g id="Filled_Icons">
		<path d="M17.472,0c-0.165,0.001-0.317,0.08-0.409,0.214l-5.693,8.133c-0.766,0.095-1.475,0.438-2.03,0.994
			c-0.556,0.555-0.898,1.264-0.993,2.03l-8.133,5.692C0.079,17.155,0,17.308,0,17.472c0,2.072,4.086,6.156,6.158,6.157
			c0.162,0,0.315-0.08,0.409-0.215l5.481-7.83l5.776,5.776c0.195,0.196,0.512,0.195,0.707,0c0.098-0.098,0.146-0.226,0.146-0.354
			v-2.328l2.328,0c0.128,0,0.256-0.049,0.354-0.147c0.195-0.195,0.196-0.511,0-0.707l-5.775-5.776l7.83-5.48
			c0.135-0.095,0.213-0.247,0.215-0.409C23.627,4.086,19.543,0,17.472,0z M15.703,8.633l-1.804,1.804
			c0.644,0.97,0.538,2.29-0.317,3.146c-0.855,0.855-2.176,0.96-3.146,0.318l-1.803,1.803c-0.196,0.196-0.513,0.196-0.708,0
			c-0.196-0.196-0.195-0.512,0.001-0.707l1.803-1.803c-0.643-0.971-0.538-2.292,0.317-3.147c0.856-0.856,2.176-0.961,3.146-0.317
			l1.804-1.804c0.195-0.195,0.512-0.196,0.707,0C15.898,8.121,15.898,8.438,15.703,8.633z"/>
	</g>
	<g id="New_icons">
	</g>
</g>
<g id="Invisible_Shape">
	<rect fill="none" width="24" height="24"/>
</g>
</svg>
