<?xml version="1.0" encoding="utf-8"?>
<!-- Generator: Adobe Illustrator 19.2.1, SVG Export Plug-In . SVG Version: 6.00 Build 0)  -->
<svg version="1.1" xmlns="http://www.w3.org/2000/svg" xmlns:xlink="http://www.w3.org/1999/xlink" x="0px" y="0px" width="24px"
	 height="24px" viewBox="0 0 24 24" enable-background="new 0 0 24 24" xml:space="preserve">
<g id="Filled_Icons_1_">
	<g id="Filled_Icons">
		<g>
			<path d="M22,5.5c-1.104,0-2,0.897-2,2c0,0.663,0.328,1.248,0.826,1.612l-3.303,3.172l-4.551-4.981
				C13.869,6.922,14.5,6.034,14.5,5c0-1.379-1.122-2.5-2.5-2.5c-1.379,0-2.5,1.121-2.5,2.5c0,1.034,0.63,1.922,1.526,2.303
				l-4.548,4.979L3.196,9.093C3.682,8.727,4,8.152,4,7.5c0-1.103-0.898-2-2-2c-1.104,0-2,0.897-2,2c0,1.088,0.875,1.973,1.957,1.995
				l2.059,8.128C4.071,17.845,4.272,18,4.5,18h15c0.229,0,0.427-0.155,0.484-0.375l2.087-8.132C23.141,9.454,24,8.578,24,7.5
				C24,6.397,23.103,5.5,22,5.5z"/>
			<path d="M20,19H4c-1.313,0-2,1.006-2,2s0.687,2,2,2h16c1.305,0,1.988-1.006,1.988-2C21.988,20.006,21.305,19,20,19z"/>
		</g>
	</g>
	<g id="New_icons">
	</g>
</g>
<g id="Invisible_Shape">
	<rect fill="none" width="24" height="24"/>
</g>
</svg>
