<?xml version="1.0" encoding="utf-8"?>
<!-- Generator: Adobe Illustrator 19.2.1, SVG Export Plug-In . SVG Version: 6.00 Build 0)  -->
<svg version="1.1" xmlns="http://www.w3.org/2000/svg" xmlns:xlink="http://www.w3.org/1999/xlink" x="0px" y="0px" width="24px"
	 height="24px" viewBox="0 0 24 24" enable-background="new 0 0 24 24" xml:space="preserve">
<g id="Filled_Icons_1_">
	<g id="Filled_Icons">
		<g>
			<path d="M22,4.917c-1.104,0-2,0.897-2,2c0,0.891,0.59,1.639,1.396,1.897C21.031,10.016,19.84,13,17,13
				c-2.944,0-4.107-4.549-4.416-6.076C13.68,6.659,14.5,5.676,14.5,4.5C14.5,3.121,13.378,2,12,2c-1.379,0-2.5,1.121-2.5,2.5
				c0,1.176,0.818,2.159,1.915,2.424C11.107,8.451,9.943,13,7,13c-2.852,0-4.029-3.062-4.384-4.274C3.416,8.463,4,7.719,4,6.832
				c0-1.103-0.898-2-2-2c-1.104,0-2,0.897-2,2c0,0.956,0.675,1.755,1.572,1.952l1.936,10.804C3.551,19.827,3.758,20,4,20h16
				c0.241,0,0.448-0.173,0.492-0.41l1.955-10.728C23.334,8.657,24,7.865,24,6.917C24,5.813,23.103,4.917,22,4.917z"/>
			<path d="M20,21H4c-0.276,0-0.5,0.224-0.5,0.5S3.724,22,4,22h16c0.275,0,0.5-0.224,0.5-0.5S20.275,21,20,21z"/>
		</g>
	</g>
	<g id="New_icons">
	</g>
</g>
<g id="Invisible_Shape">
	<rect fill="none" width="24" height="24"/>
</g>
</svg>
