<?xml version="1.0" encoding="utf-8"?>
<!-- Generator: Adobe Illustrator 19.2.1, SVG Export Plug-In . SVG Version: 6.00 Build 0)  -->
<svg version="1.1" xmlns="http://www.w3.org/2000/svg" xmlns:xlink="http://www.w3.org/1999/xlink" x="0px" y="0px" width="24px"
	 height="24px" viewBox="0 0 24 24" enable-background="new 0 0 24 24" xml:space="preserve">
<g id="Filled_Icons_1_">
	<g id="Filled_Icons">
	</g>
	<g id="New_icons">
		<g>
			<path d="M10.877,9.66l0.562-1.098l-2.943-5.75C8.369,2.566,8.066,2.471,7.822,2.595C7.576,2.721,7.478,3.022,7.604,3.268
				L10.877,9.66z"/>
			<path d="M15.505,2.812c0.127-0.245,0.431-0.342,0.673-0.217c0.246,0.126,0.344,0.427,0.218,0.673l-9.451,18.46
				c-0.127,0.245-0.431,0.342-0.673,0.217c-0.246-0.126-0.344-0.427-0.218-0.674L15.505,2.812z"/>
			<path d="M17.056,21.729c0.127,0.245,0.431,0.342,0.673,0.217c0.246-0.126,0.344-0.427,0.218-0.674l-4.823-9.419l-0.562,1.099
				L17.056,21.729z"/>
			<g>
				<path d="M3.757,13.929c-0.395,0.237-0.879-0.147-0.731-0.587l1.323-3.969L0.396,8.529C-0.06,8.432-0.148,7.812,0.271,7.595
					L6.943,4.17l3.08,6.017L3.757,13.929z"/>
			</g>
			<g>
				<path d="M20.243,13.929c0.394,0.237,0.879-0.147,0.731-0.587l-1.323-3.969l3.953-0.844c0.455-0.097,0.544-0.716,0.124-0.934
					L17.057,4.17l-3.08,6.017L20.243,13.929z"/>
			</g>
		</g>
	</g>
</g>
<g id="Invisible_Shape">
	<rect fill="none" width="24" height="24"/>
</g>
</svg>
