<?xml version="1.0" encoding="utf-8"?>
<!-- Generator: Adobe Illustrator 19.2.1, SVG Export Plug-In . SVG Version: 6.00 Build 0)  -->
<svg version="1.1" xmlns="http://www.w3.org/2000/svg" xmlns:xlink="http://www.w3.org/1999/xlink" x="0px" y="0px" width="24px"
	 height="24px" viewBox="0 0 24 24" enable-background="new 0 0 24 24" xml:space="preserve">
<g id="Filled_Icons_1_">
	<g id="Filled_Icons">
		<g>
			<path d="M15.339,0.141c-0.188-0.188-0.52-0.188-0.707,0l-6.01,6.011L6.853,4.383c-0.195-0.196-0.512-0.196-0.707,0l-4.951,4.95
				c-0.196,0.196-0.194,0.513,0,0.707l8.486,8.485c0.195,0.195,0.512,0.195,0.707,0l2.123-2.123l1.766,1.769l0,0l0,0
				c0.195,0.195,0.512,0.195,0.707,0l8.84-8.839c0.195-0.195,0.195-0.512,0-0.707L15.339,0.141z M14.716,14.198
				c-0.362,0.998-0.564,1.761-0.654,2.342l-0.843-0.844L14.716,14.198z"/>
			<path d="M11.293,23.672c0.385,0.387,1.019,0.395,1.414,0c0.391-0.391,0.391-1.024,0-1.414l-11-11
				c-0.391-0.391-1.024-0.391-1.414,0c-0.391,0.391-0.391,1.023,0,1.414L11.293,23.672z"/>
		</g>
	</g>
	<g id="New_icons">
	</g>
</g>
<g id="Invisible_Shape">
	<rect fill="none" width="24" height="24"/>
</g>
</svg>
