<?xml version="1.0" encoding="utf-8"?>
<!-- Generator: Adobe Illustrator 19.2.1, SVG Export Plug-In . SVG Version: 6.00 Build 0)  -->
<svg version="1.1" xmlns="http://www.w3.org/2000/svg" xmlns:xlink="http://www.w3.org/1999/xlink" x="0px" y="0px" width="24px"
	 height="24px" viewBox="0 0 24 24" enable-background="new 0 0 24 24" xml:space="preserve">
<g id="Filled_Icons_1_">
	<g id="Filled_Icons">
		<g>
			<g>
				<path d="M1,24c-0.553,0-1-0.448-1-1V1c0-0.552,0.447-1,1-1s1,0.448,1,1v22C2,23.552,1.553,24,1,24z"/>
			</g>
			<path d="M23.272,2.748c-3.3,1.684-5.388,1.115-8.702-0.525C11.657,0.779,8.518-0.767,3.263,2.06C3.101,2.147,3,2.316,3,2.5v15
				c0,0.376,0.4,0.62,0.737,0.44c4.552-2.452,7.42-1.19,10.456,0.197c2.776,1.268,5.576,2.532,9.531,0.544
				C23.894,18.598,24,18.425,24,18.235V3.193C24,2.825,23.606,2.577,23.272,2.748z M18.295,8.904l-2.797,2.041l1.067,3.291
				c0.066,0.206-0.007,0.432-0.182,0.559c-0.174,0.128-0.41,0.128-0.588,0L13,12.768l-2.796,2.031c-0.174,0.126-0.41,0.129-0.588,0
				c-0.175-0.127-0.248-0.353-0.182-0.559l0,0c0,0,0-0.003,0-0.004l1.068-3.292l-2.798-2.04C7.53,8.776,7.458,8.551,7.524,8.345
				C7.592,8.14,7.783,8,8,8h3.456l1.068-3.285c0.135-0.411,0.816-0.411,0.951,0L14.544,8H18c0.217,0,0.408,0.14,0.476,0.345
				C18.542,8.551,18.47,8.776,18.295,8.904z"/>
		</g>
	</g>
	<g id="New_icons">
	</g>
</g>
<g id="Invisible_Shape">
	<rect fill="none" width="24" height="24"/>
</g>
</svg>
