<?xml version="1.0" encoding="utf-8"?>
<!-- Generator: Adobe Illustrator 19.2.1, SVG Export Plug-In . SVG Version: 6.00 Build 0)  -->
<svg version="1.1" xmlns="http://www.w3.org/2000/svg" xmlns:xlink="http://www.w3.org/1999/xlink" x="0px" y="0px" width="24px"
	 height="24px" viewBox="0 0 24 24" enable-background="new 0 0 24 24" xml:space="preserve">
<g id="Filled_Icons_1_">
	<g id="Filled_Icons">
		<g>
			<path d="M21.5,1h-17C4.224,1,4,1.224,4,1.5v12C4,13.776,4.224,14,4.5,14h17c0.275,0,0.5-0.224,0.5-0.5v-12
				C22,1.224,21.775,1,21.5,1z"/>
			<path d="M2,0C1.447,0,1,0.448,1,1v22c0,0.552,0.447,1,1,1s1-0.448,1-1V1C3,0.448,2.553,0,2,0z"/>
		</g>
	</g>
	<g id="New_icons">
	</g>
</g>
<g id="Invisible_Shape">
	<rect fill="none" width="24" height="24"/>
</g>
</svg>
