<?xml version="1.0" encoding="utf-8"?>
<!-- Generator: Adobe Illustrator 19.2.1, SVG Export Plug-In . SVG Version: 6.00 Build 0)  -->
<svg version="1.1" xmlns="http://www.w3.org/2000/svg" xmlns:xlink="http://www.w3.org/1999/xlink" x="0px" y="0px" width="24px"
	 height="24px" viewBox="0 0 24 24" enable-background="new 0 0 24 24" xml:space="preserve">
<g id="Filled_Icons_1_">
	<g id="Filled_Icons">
		<g>
			<path d="M2,0C1.447,0,1,0.448,1,1v22c0,0.552,0.447,1,1,1c0.552,0,1-0.448,1-1V1C3,0.448,2.552,0,2,0z"/>
			<path d="M21.369,2.71C19.4,3.233,13.5,4.384,13.5,2.5c0-3.127-6.232-1.511-9.167-0.472C4.133,2.099,4,2.288,4,2.5v12
				c0,0.35,0.348,0.587,0.666,0.471c1.822-0.6,7.834-2.338,7.834-0.471c0,3.07,6.152,2.002,9.128,1.219
				C21.848,15.66,22,15.462,22,15.235V3.193C22,2.869,21.693,2.625,21.369,2.71z"/>
		</g>
	</g>
	<g id="New_icons">
	</g>
</g>
<g id="Invisible_Shape">
	<rect fill="none" width="24" height="24"/>
</g>
</svg>
