<?xml version="1.0" encoding="utf-8"?>
<!-- Generator: Adobe Illustrator 19.2.1, SVG Export Plug-In . SVG Version: 6.00 Build 0)  -->
<svg version="1.1" xmlns="http://www.w3.org/2000/svg" xmlns:xlink="http://www.w3.org/1999/xlink" x="0px" y="0px" width="24px"
	 height="24px" viewBox="0 0 24 24" enable-background="new 0 0 24 24" xml:space="preserve">
<g id="Filled_Icons_1_">
	<g id="Filled_Icons">
		<g>
			<path d="M7,0H2.5C1.121,0,0,1.121,0,2.5V5h7V0z"/>
			<rect x="8" width="8" height="5"/>
			<path d="M0,23.5C0,23.776,0.224,24,0.5,24h23c0.275,0,0.5-0.224,0.5-0.5V6H0V23.5z M7,13.5C7,13.224,7.224,13,7.5,13H10v-2.5
				c0-0.276,0.224-0.5,0.5-0.5h3c0.275,0,0.5,0.224,0.5,0.5V13h2.5c0.275,0,0.5,0.224,0.5,0.5v3c0,0.276-0.225,0.5-0.5,0.5H14v2.5
				c0,0.276-0.225,0.5-0.5,0.5h-3c-0.276,0-0.5-0.224-0.5-0.5V17H7.5C7.224,17,7,16.776,7,16.5V13.5z"/>
			<path d="M21.5,0H17v5h7V2.5C24,1.121,22.878,0,21.5,0z"/>
		</g>
	</g>
	<g id="New_icons">
	</g>
</g>
<g id="Invisible_Shape">
	<rect fill="none" width="24" height="24"/>
</g>
</svg>
