<?xml version="1.0" encoding="utf-8"?>
<!-- Generator: Adobe Illustrator 19.2.1, SVG Export Plug-In . SVG Version: 6.00 Build 0)  -->
<svg version="1.1" xmlns="http://www.w3.org/2000/svg" xmlns:xlink="http://www.w3.org/1999/xlink" x="0px" y="0px" width="24px"
	 height="24px" viewBox="0 0 24 24" enable-background="new 0 0 24 24" xml:space="preserve">
<g id="Filled_Icons_1_">
	<g id="Filled_Icons">
		<g>
			<path d="M11.252,22.543l-1.496-2.592c-0.398-0.686-0.27-1.578,0.752-2.166c-0.011-0.191-0.011-0.377-0.001-0.569
				c-1.009-0.586-1.159-1.462-0.753-2.167l1.5-2.599c0.395-0.686,1.227-1.02,2.257-0.429c0.158-0.101,0.322-0.195,0.489-0.283
				c0-1.157,0.683-1.74,1.5-1.74h3c0.817,0,1.5,0.583,1.5,1.74c0.167,0.087,0.331,0.182,0.489,0.283
				c0.341-0.197,0.55-0.331,0.998-0.317C22.111,10.227,22.5,8.7,22.5,7.179c0-4.315-2.813-6.573-5.593-6.573
				c-2.063,0-4.337,1.259-5.407,4.022C10.445,1.91,8.229,0.67,6.219,0.67C2.465,0.67,0.5,4.243,0.5,7.772
				c0,6.194,5.951,12.464,10.724,15.646c0.328,0.218,0.545,0.012,0.833-0.221C11.72,23.075,11.431,22.857,11.252,22.543z"/>
			<path d="M23.195,18.769l-0.765-0.441c0.093-0.613,0.092-1.044,0.001-1.652l0.766-0.442c0.234-0.133,0.324-0.438,0.183-0.683
				l-1.5-2.599c-0.138-0.239-0.443-0.322-0.683-0.183l-0.765,0.441c-0.43-0.345-0.912-0.624-1.433-0.828V11.5
				c0-0.276-0.224-0.5-0.5-0.5h-3c-0.276,0-0.5,0.224-0.5,0.5v0.882c-0.521,0.204-1.003,0.483-1.433,0.828l-0.765-0.441
				c-0.237-0.138-0.545-0.057-0.683,0.183l-1.5,2.599c-0.142,0.245-0.052,0.55,0.183,0.683l0.766,0.442
				c-0.091,0.608-0.092,1.039,0.001,1.652l-0.765,0.441c-0.239,0.138-0.321,0.443-0.183,0.683l1.5,2.599
				c0.137,0.241,0.446,0.32,0.683,0.183l0.765-0.441c0.429,0.344,0.911,0.623,1.431,0.827V23.5c0,0.276,0.224,0.5,0.5,0.5h3
				c0.276,0,0.5-0.224,0.5-0.5v-0.882c0.52-0.204,1.002-0.483,1.431-0.827l0.765,0.441c0.237,0.138,0.546,0.058,0.683-0.183
				l1.5-2.599C23.517,19.212,23.435,18.906,23.195,18.769z M17,20c-1.379,0-2.5-1.121-2.5-2.5S15.621,15,17,15s2.5,1.121,2.5,2.5
				S18.379,20,17,20z"/>
		</g>
	</g>
	<g id="New_icons">
	</g>
</g>
<g id="Invisible_Shape">
	<rect fill="none" width="24" height="24"/>
</g>
</svg>
