<?xml version="1.0" encoding="utf-8"?>
<!-- Generator: Adobe Illustrator 19.2.1, SVG Export Plug-In . SVG Version: 6.00 Build 0)  -->
<svg version="1.1" xmlns="http://www.w3.org/2000/svg" xmlns:xlink="http://www.w3.org/1999/xlink" x="0px" y="0px" width="24px"
	 height="24px" viewBox="0 0 24 24" enable-background="new 0 0 24 24" xml:space="preserve">
<g id="Filled_Icons_1_">
	<g id="Filled_Icons">
		<g>
			<path d="M19.458,10.037c0.352,2.871-1.421,5.51-3.458,7.565V18.5c0,1.103,0.896,2,2,2V18c0-0.276,0.224-0.5,0.5-0.5
				c0.275,0,0.5,0.224,0.5,0.5v3c0,1.565,0.747,2.5,2,2.5c1.252,0,2-0.935,2-2.5v-7C23,11.844,21.834,10.045,19.458,10.037z"/>
			<path d="M4.535,10.037C2.181,10.045,1,11.833,1,14v7c0,1.565,0.747,2.5,2,2.5c1.252,0,2-0.935,2-2.5v-3
				c0-0.276,0.224-0.5,0.5-0.5C5.775,17.5,6,17.724,6,18v2.5c1.102,0,2-0.897,2-2v-0.774C5.874,15.642,4.206,13.007,4.535,10.037z"
				/>
			<path d="M12,5c2.229,0,6-0.422,6-2c0-1.579-3.771-2-6-2S6,1.421,6,3C6,4.578,9.771,5,12,5z M12,2
				c3.021,0,4.863,0.665,5.002,0.978C16.862,3.335,15.021,4,12,4S7.137,3.335,6.996,3.02C7.136,2.665,8.977,2,12,2z"/>
			<path d="M14.984,6.85c-1.029,0-2.271,0.501-2.983,1.814c-0.702-1.322-1.941-1.93-3.074-1.93c-1.709,0-3.438,1.398-3.438,4.069
				c0,4.774,5.997,8.469,6.252,8.623c0.167,0.102,0.376,0.095,0.535-0.01c0.255-0.168,6.235-4.172,6.235-8.613
				C18.511,8.208,16.737,6.85,14.984,6.85z"/>
		</g>
	</g>
	<g id="New_icons">
	</g>
</g>
<g id="Invisible_Shape">
	<rect fill="none" width="24" height="24"/>
</g>
</svg>
