<?xml version="1.0" encoding="utf-8"?>
<!-- Generator: Adobe Illustrator 19.2.1, SVG Export Plug-In . SVG Version: 6.00 Build 0)  -->
<svg version="1.1" xmlns="http://www.w3.org/2000/svg" xmlns:xlink="http://www.w3.org/1999/xlink" x="0px" y="0px" width="24px"
	 height="24px" viewBox="0 0 24 24" enable-background="new 0 0 24 24" xml:space="preserve">
<g id="Filled_Icons_1_">
	<g id="Filled_Icons">
		<g>
			<path d="M17.5,24c3.59,0,6.5-2.91,6.5-6.5S21.09,11,17.5,11S11,13.91,11,17.5S13.91,24,17.5,24z M15,18
				c0.195-0.195,0.512-0.195,0.707,0L17,19.293V14.5c0-0.276,0.224-0.5,0.5-0.5s0.5,0.224,0.5,0.5v4.793L19.293,18
				c0.195-0.195,0.512-0.195,0.707,0s0.195,0.512,0,0.706l-2.146,2.147c-0.195,0.195-0.512,0.195-0.707,0L15,18.706
				C14.805,18.512,14.805,18.195,15,18z"/>
			<path d="M10,17.5c0-4.136,3.364-7.5,7.5-7.5c1.539,0,2.972,0.467,4.163,1.266c0.52-1.34,0.837-2.715,0.837-4.086
				c0-4.315-2.813-6.573-5.593-6.573c-2.063,0-4.337,1.259-5.407,4.022C10.445,1.91,8.229,0.67,6.219,0.67
				C2.465,0.67,0.5,4.243,0.5,7.772c0,3.518,1.862,7.344,5.387,11.065c2.634,2.781,5.228,4.508,5.337,4.581
				c0.084,0.056,0.18,0.083,0.276,0.083c0.107,0,0.216-0.035,0.306-0.104c0.053-0.041,0.251-0.196,0.555-0.447
				C10.911,21.58,10,19.646,10,17.5z"/>
		</g>
	</g>
	<g id="New_icons">
	</g>
</g>
<g id="Invisible_Shape">
	<rect fill="none" width="24" height="24"/>
</g>
</svg>
