<?xml version="1.0" encoding="utf-8"?>
<!-- Generator: Adobe Illustrator 19.2.1, SVG Export Plug-In . SVG Version: 6.00 Build 0)  -->
<svg version="1.1" xmlns="http://www.w3.org/2000/svg" xmlns:xlink="http://www.w3.org/1999/xlink" x="0px" y="0px" width="24px"
	 height="24px" viewBox="0 0 24 24" enable-background="new 0 0 24 24" xml:space="preserve">
<g id="Filled_Icons_1_">
	<g id="Filled_Icons">
		<g>
			<g>
				<rect x="14.109" y="16.234" transform="matrix(0.7071 -0.7071 0.7071 0.7071 -7.9573 17.792)" width="6.78" height="4.535"/>
				<path d="M23.854,14.646l-2.5-2.5c-0.195-0.195-0.512-0.195-0.707,0l-1.647,1.647l3.207,3.207l1.647-1.647
					C24.049,15.159,24.049,14.842,23.854,14.646z"/>
				<path d="M15.846,23.067l-2.917-2.917l-0.911,3.226c-0.046,0.168-0.011,0.353,0.121,0.484c0.131,0.131,0.315,0.166,0.483,0.122
					L15.846,23.067z"/>
			</g>
			<path d="M12.097,19.492c0.074-0.193,0.19-0.402,0.341-0.552l7.502-7.501c0.476-0.477,1.184-0.545,1.751-0.246
				c0.503-1.317,0.81-2.667,0.81-4.014c0-4.315-2.813-6.573-5.593-6.573c-2.063,0-4.337,1.259-5.407,4.022
				C10.445,1.91,8.229,0.67,6.219,0.67C2.465,0.67,0.5,4.243,0.5,7.772c0,6.062,5.604,12.101,10.527,15.512
				C11.08,22.933,12.011,19.736,12.097,19.492z"/>
		</g>
	</g>
	<g id="New_icons">
	</g>
</g>
<g id="Invisible_Shape">
	<rect fill="none" width="24" height="24"/>
</g>
</svg>
