<?xml version="1.0" encoding="utf-8"?>
<!-- Generator: Adobe Illustrator 19.2.1, SVG Export Plug-In . SVG Version: 6.00 Build 0)  -->
<svg version="1.1" xmlns="http://www.w3.org/2000/svg" xmlns:xlink="http://www.w3.org/1999/xlink" x="0px" y="0px" width="24px"
	 height="24px" viewBox="0 0 24 24" enable-background="new 0 0 24 24" xml:space="preserve">
<g id="Filled_Icons_1_">
	<g id="Filled_Icons">
		<g>
			<g>
				<path d="M12,17.5c0-3.033,2.468-5.5,5.501-5.5c1.242,0,2.386,0.419,3.308,1.117C21.819,11.214,22.5,9.192,22.5,7.18
					c0-4.315-2.813-6.573-5.593-6.573c-2.063,0-4.337,1.259-5.407,4.022C10.445,1.91,8.229,0.67,6.219,0.67
					C2.465,0.67,0.5,4.243,0.5,7.772c0,3.518,1.862,7.344,5.387,11.065c2.634,2.781,5.228,4.508,5.337,4.581
					c0.084,0.056,0.18,0.083,0.276,0.083c0.107,0,0.216-0.035,0.306-0.104c0.116-0.09,0.936-0.733,2.07-1.77
					C12.729,20.617,12,19.144,12,17.5z"/>
			</g>
			<path d="M23.854,23.146L21,20.293c0.616-0.77,1-1.733,1-2.793c0-2.481-2.018-4.5-4.499-4.5C15.019,13,13,15.019,13,17.5
				c0,2.48,2.019,4.5,4.501,4.5c1.059,0,2.022-0.385,2.792-1l2.854,2.854c0.195,0.195,0.512,0.195,0.707,0
				C24.049,23.659,24.049,23.342,23.854,23.146z M17.501,21C15.57,21,14,19.43,14,17.5s1.57-3.5,3.501-3.5
				C19.43,14,21,15.57,21,17.5S19.43,21,17.501,21z"/>
			<path d="M23.854,23.146L21,20.293c0.616-0.77,1-1.733,1-2.793c0-2.481-2.018-4.5-4.499-4.5C15.019,13,13,15.019,13,17.5
				c0,2.48,2.019,4.5,4.501,4.5c1.059,0,2.022-0.385,2.792-1l2.854,2.854c0.195,0.195,0.512,0.195,0.707,0
				C24.049,23.659,24.049,23.342,23.854,23.146z M17.501,21C15.57,21,14,19.43,14,17.5s1.57-3.5,3.501-3.5
				C19.43,14,21,15.57,21,17.5S19.43,21,17.501,21z"/>
		</g>
	</g>
	<g id="New_icons">
	</g>
</g>
<g id="Invisible_Shape">
	<rect fill="none" width="24" height="24"/>
</g>
</svg>
