<?xml version="1.0" encoding="utf-8"?>
<!-- Generator: Adobe Illustrator 19.2.1, SVG Export Plug-In . SVG Version: 6.00 Build 0)  -->
<svg version="1.1" xmlns="http://www.w3.org/2000/svg" xmlns:xlink="http://www.w3.org/1999/xlink" x="0px" y="0px" width="24px"
	 height="24px" viewBox="0 0 24 24" enable-background="new 0 0 24 24" xml:space="preserve">
<g id="Filled_Icons_1_">
	<g id="Filled_Icons">
		<path d="M12,0C5.383,0,0,5.383,0,12c0,6.616,5.383,12,12,12c6.616,0,12-5.384,12-12C24,5.383,18.616,0,12,0z M12.294,18.404
			c-0.179,0.129-0.414,0.126-0.589,0C11.473,18.235,6,14.218,6,11.037C6,8.823,7.639,7.5,9.223,7.5c0.951,0,2.07,0.492,2.777,1.784
			C12.705,7.992,13.825,7.5,14.776,7.5C16.361,7.5,18,8.823,18,11.037C18,14.218,12.526,18.235,12.294,18.404z"/>
	</g>
	<g id="New_icons">
	</g>
</g>
<g id="Invisible_Shape">
	<rect fill="none" width="24" height="24"/>
</g>
</svg>
