<?xml version="1.0" encoding="utf-8"?>
<!-- Generator: Adobe Illustrator 19.2.1, SVG Export Plug-In . SVG Version: 6.00 Build 0)  -->
<svg version="1.1" xmlns="http://www.w3.org/2000/svg" xmlns:xlink="http://www.w3.org/1999/xlink" x="0px" y="0px" width="24px"
	 height="24px" viewBox="0 0 24 24" enable-background="new 0 0 24 24" xml:space="preserve">
<g id="Filled_Icons_1_">
	<g id="Filled_Icons">
		<g>
			<path d="M23.947,23.276l-6-12c-0.17-0.338-0.725-0.338-0.895,0l-6,12c-0.077,0.155-0.069,0.339,0.021,0.486
				C11.166,23.91,11.327,24,11.5,24h12c0.173,0,0.334-0.09,0.426-0.237C24.017,23.615,24.024,23.432,23.947,23.276z M17.5,22
				c-0.276,0-0.5-0.224-0.5-0.5s0.224-0.5,0.5-0.5s0.5,0.224,0.5,0.5S17.776,22,17.5,22z M18,20c0,0.276-0.224,0.5-0.5,0.5
				S17,20.276,17,20v-3.5c0-0.276,0.224-0.5,0.5-0.5s0.5,0.224,0.5,0.5V20z"/>
			<path d="M16.158,10.829C16.412,10.321,16.932,10,17.5,10s1.088,0.321,1.342,0.829l1.534,3.069
				C21.624,11.773,22.5,9.469,22.5,7.18c0-4.315-2.813-6.573-5.593-6.573c-2.063,0-4.337,1.259-5.407,4.022
				C10.445,1.91,8.229,0.67,6.219,0.67C2.465,0.67,0.5,4.243,0.5,7.772c0,3.518,1.862,7.344,5.387,11.065
				c1.67,1.763,3.321,3.1,4.336,3.863L16.158,10.829z"/>
		</g>
	</g>
	<g id="New_icons">
	</g>
</g>
<g id="Invisible_Shape">
	<rect fill="none" width="24" height="24"/>
</g>
</svg>
