<?xml version="1.0" encoding="utf-8"?>
<!-- Generator: Adobe Illustrator 19.2.1, SVG Export Plug-In . SVG Version: 6.00 Build 0)  -->
<svg version="1.1" xmlns="http://www.w3.org/2000/svg" xmlns:xlink="http://www.w3.org/1999/xlink" x="0px" y="0px" width="24px"
	 height="24px" viewBox="0 0 24 24" enable-background="new 0 0 24 24" xml:space="preserve">
<g id="Filled_Icons_1_">
	<g id="Filled_Icons">
		<g>
			<path d="M23.971,16.327C23.898,16.13,23.711,16,23.5,16h-3.191l-1.854-3.726C18.371,12.104,18.188,12,18,12
				c-0.19,0-0.363,0.107-0.447,0.277L15.699,16h-3.191c-0.211,0-0.398,0.133-0.471,0.33c-0.07,0.198-0.012,0.42,0.15,0.555
				l2.738,2.281l-1.391,4.17c-0.07,0.202-0.014,0.434,0.17,0.566c0.178,0.131,0.408,0.121,0.578,0.003l3.723-2.545l3.719,2.542
				c0.17,0.118,0.4,0.128,0.578-0.003c0.184-0.133,0.241-0.364,0.17-0.566l-1.391-4.17l2.738-2.281
				C23.982,16.748,24.041,16.526,23.971,16.327z"/>
			<path d="M13.753,19.497l-2.213-1.845C10.466,16.758,11.1,15,12.5,15h2.574l1.592-3.173c0.556-1.106,2.133-1.101,2.684,0.004
				l1.028,2.063C21.625,11.771,22.5,9.468,22.5,7.18c0-4.315-2.813-6.573-5.593-6.573c-2.063,0-4.337,1.259-5.407,4.022
				C10.445,1.91,8.229,0.67,6.219,0.67C2.465,0.67,0.5,4.243,0.5,7.772c0,6.194,5.951,12.464,10.724,15.646
				c0.179,0.119,0.413,0.109,0.582-0.021c0.07-0.054,0.396-0.31,0.892-0.729L13.753,19.497z"/>
		</g>
	</g>
	<g id="New_icons">
	</g>
</g>
<g id="Invisible_Shape">
	<rect fill="none" width="24" height="24"/>
</g>
</svg>
