<?xml version="1.0" encoding="utf-8"?>
<!-- Generator: Adobe Illustrator 19.2.1, SVG Export Plug-In . SVG Version: 6.00 Build 0)  -->
<svg version="1.1" xmlns="http://www.w3.org/2000/svg" xmlns:xlink="http://www.w3.org/1999/xlink" x="0px" y="0px" width="24px"
	 height="24px" viewBox="0 0 24 24" enable-background="new 0 0 24 24" xml:space="preserve">
<g id="Filled_Icons_1_">
	<g id="Filled_Icons">
	</g>
	<g id="New_icons">
		<g>
			<path d="M14,15.5c0-0.827,0.673-1.5,1.5-1.5h4.625c1.379-2.091,2.37-4.394,2.37-6.726c0-4.291-2.839-6.463-5.476-6.664
				c-2.061-0.157-4.437,0.919-5.518,3.513C10.422,1.53,8.055,0.452,5.981,0.61C3.344,0.812,0.505,2.983,0.505,7.274
				c0,7.021,8.915,13.836,10.702,15.13c0.191,0.134,0.414,0.12,0.586,0c0.415-0.301,1.224-0.91,2.207-1.74V15.5z"/>
			<g>
				<path d="M23.5,15h-8c-0.276,0-0.5,0.224-0.5,0.5v8c0,0.276,0.224,0.5,0.5,0.5h8c0.276,0,0.5-0.224,0.5-0.5v-8
					C24,15.224,23.776,15,23.5,15z M20,22h-2.5c-0.276,0-0.5-0.224-0.5-0.5s0.224-0.5,0.5-0.5H20c0.276,0,0.5,0.224,0.5,0.5
					S20.276,22,20,22z M21.5,20h-4c-0.276,0-0.5-0.224-0.5-0.5s0.224-0.5,0.5-0.5h4c0.276,0,0.5,0.224,0.5,0.5S21.776,20,21.5,20z
					 M21.5,18h-4c-0.276,0-0.5-0.224-0.5-0.5s0.224-0.5,0.5-0.5h4c0.276,0,0.5,0.224,0.5,0.5S21.776,18,21.5,18z"/>
			</g>
		</g>
	</g>
</g>
<g id="Invisible_Shape">
	<rect fill="none" width="24" height="24"/>
</g>
</svg>
