<?xml version="1.0" encoding="utf-8"?>
<!-- Generator: Adobe Illustrator 19.2.1, SVG Export Plug-In . SVG Version: 6.00 Build 0)  -->
<svg version="1.1" xmlns="http://www.w3.org/2000/svg" xmlns:xlink="http://www.w3.org/1999/xlink" x="0px" y="0px" width="24px"
	 height="24px" viewBox="0 0 24 24" enable-background="new 0 0 24 24" xml:space="preserve">
<g id="Filled_Icons_1_">
	<g id="Filled_Icons">
		<g>
			<rect x="11" y="10" width="2" height="4"/>
			<path d="M12,0C5.383,0,0,5.383,0,12c0,6.617,5.383,12,12,12s12-5.383,12-12C24,5.383,18.617,0,12,0z M9,14.5
				C9,14.776,8.776,15,8.5,15S8,14.776,8,14.5V12H6v2.5C6,14.776,5.776,15,5.5,15S5,14.776,5,14.5v-5C5,9.224,5.224,9,5.5,9
				S6,9.224,6,9.5V11h2V9.5C8,9.224,8.224,9,8.5,9S9,9.224,9,9.5V14.5z M14,14.5c0,0.276-0.224,0.5-0.5,0.5h-3
				c-0.276,0-0.5-0.224-0.5-0.5v-5C10,9.224,10.224,9,10.5,9h3C13.776,9,14,9.224,14,9.5V14.5z M19.5,10H18v4.5
				c0,0.276-0.224,0.5-0.5,0.5S17,14.776,17,14.5V10h-1.5C15.224,10,15,9.776,15,9.5S15.224,9,15.5,9h4C19.776,9,20,9.224,20,9.5
				S19.776,10,19.5,10z"/>
		</g>
	</g>
	<g id="New_icons">
	</g>
</g>
<g id="Invisible_Shape">
	<rect fill="none" width="24" height="24"/>
</g>
</svg>
