<?xml version="1.0" encoding="utf-8"?>
<!-- Generator: Adobe Illustrator 19.2.1, SVG Export Plug-In . SVG Version: 6.00 Build 0)  -->
<svg version="1.1" xmlns="http://www.w3.org/2000/svg" xmlns:xlink="http://www.w3.org/1999/xlink" x="0px" y="0px" width="24px"
	 height="24px" viewBox="0 0 24 24" enable-background="new 0 0 24 24" xml:space="preserve">
<g id="Filled_Icons_1_">
	<g id="Filled_Icons">
		<g>
			<rect x="11" y="9" width="2" height="5"/>
			<path d="M21.5,5h-19C1.121,5,0,6.122,0,7.5v8C0,16.878,1.121,18,2.5,18h19c1.379,0,2.5-1.122,2.5-2.5v-8
				C24,6.122,22.879,5,21.5,5z M9,14.5C9,14.776,8.776,15,8.5,15S8,14.776,8,14.5V12H6v2.5C6,14.776,5.776,15,5.5,15
				S5,14.776,5,14.5v-6C5,8.224,5.224,8,5.5,8S6,8.224,6,8.5V11h2V8.5C8,8.224,8.224,8,8.5,8S9,8.224,9,8.5V14.5z M14,14.5
				c0,0.276-0.224,0.5-0.5,0.5h-3c-0.276,0-0.5-0.224-0.5-0.5v-6C10,8.224,10.224,8,10.5,8h3C13.776,8,14,8.224,14,8.5V14.5z
				 M19.5,9H18v5.5c0,0.276-0.224,0.5-0.5,0.5S17,14.776,17,14.5V9h-1.5C15.224,9,15,8.776,15,8.5S15.224,8,15.5,8h4
				C19.776,8,20,8.224,20,8.5S19.776,9,19.5,9z"/>
		</g>
	</g>
	<g id="New_icons">
	</g>
</g>
<g id="Invisible_Shape">
	<rect fill="none" width="24" height="24"/>
</g>
</svg>
