<?xml version="1.0" encoding="utf-8"?>
<!-- Generator: Adobe Illustrator 19.2.1, SVG Export Plug-In . SVG Version: 6.00 Build 0)  -->
<svg version="1.1" xmlns="http://www.w3.org/2000/svg" xmlns:xlink="http://www.w3.org/1999/xlink" x="0px" y="0px" width="24px"
	 height="24px" viewBox="0 0 24 24" enable-background="new 0 0 24 24" xml:space="preserve">
<g id="Filled_Icons_1_">
	<g id="Filled_Icons">
		<path d="M9.001,0.035C8.792-0.048,8.554,0.02,8.419,0.199c-0.135,0.178-0.135,0.425,0,0.603c2.486,3.278,2.625,8.449,0.408,11.429
			C8.311,11.512,7.982,10.759,7.808,9.9C7.774,9.734,7.659,9.597,7.501,9.535C7.343,9.473,7.164,9.494,7.026,9.594
			c-2.833,2.03-3.975,5.488-2.907,8.809C5.212,21.803,8.233,24,11.817,24c3.991,0,6.718-2.31,7.48-6.338
			C20.455,11.559,16.593,3.02,9.001,0.035z M11.773,21c-1.451,0-2.691-1.038-2.947-2.469c-0.029-0.166,0.026-0.336,0.148-0.451
			c0.123-0.116,0.294-0.162,0.459-0.124c0.055,0.013,0.115,0.019,0.179,0.019c0.668,0,1.61-0.682,2.101-1.521
			c0.216-0.368,0.524-1.08,0.17-1.71c-0.087-0.155-0.085-0.345,0.004-0.498C11.976,14.094,12.141,14,12.317,14
			c0.554,0,1.055,0.214,1.448,0.62c0.793,0.817,1.04,2.291,1.007,3.395C14.722,19.688,13.403,21,11.773,21z"/>
	</g>
	<g id="New_icons">
	</g>
</g>
<g id="Invisible_Shape">
	<rect fill="none" width="24" height="24"/>
</g>
</svg>
