<?xml version="1.0" encoding="utf-8"?>
<!-- Generator: Adobe Illustrator 19.2.1, SVG Export Plug-In . SVG Version: 6.00 Build 0)  -->
<svg version="1.1" xmlns="http://www.w3.org/2000/svg" xmlns:xlink="http://www.w3.org/1999/xlink" x="0px" y="0px" width="24px"
	 height="24px" viewBox="0 0 24 24" enable-background="new 0 0 24 24" xml:space="preserve">
<g id="Filled_Icons_1_">
	<g id="Filled_Icons">
		<g>
			<path d="M4.636,10.284C5.132,9.683,5.71,9.153,6.345,8.696L2.226,0H0.5C0.134,0-0.11,0.384,0.049,0.715
				C0.094,0.81,4.576,10.199,4.636,10.284z"/>
			<path d="M9.271,7.312L5.952,0.286C5.87,0.111,5.693,0,5.5,0H3.331l3.861,8.151C7.84,7.788,8.537,7.508,9.271,7.312z"/>
			<path d="M18.364,10.284c-0.496-0.602-1.074-1.131-1.709-1.588L20.774,0H22.5c0.366,0,0.61,0.384,0.451,0.715
				C22.906,0.81,18.424,10.199,18.364,10.284z"/>
			<path d="M13.729,7.312l3.318-7.026C17.13,0.111,17.307,0,17.5,0h2.169l-3.861,8.151C15.16,7.788,14.463,7.508,13.729,7.312z"/>
			<path d="M11.5,8c-4.418,0-8,3.582-8,8s3.582,8,8,8s8-3.581,8-8S15.918,8,11.5,8z M16.31,14.893l-2.24,1.79l0.91,3.18
				c0.059,0.2-0.021,0.411-0.181,0.54c-0.17,0.12-0.39,0.13-0.569,0.02l-2.731-1.71l-2.731,1.71c-0.18,0.11-0.399,0.1-0.569-0.02
				c-0.16-0.129-0.24-0.34-0.181-0.54l0.91-3.18l-2.24-1.79c-0.17-0.14-0.229-0.36-0.16-0.56c0.07-0.2,0.261-0.33,0.471-0.33h2.689
				l1.371-2.729c0.159-0.341,0.719-0.341,0.89,0l1.36,2.729H16c0.21,0,0.4,0.13,0.47,0.33C16.54,14.533,16.48,14.753,16.31,14.893z"
				/>
		</g>
	</g>
	<g id="New_icons">
	</g>
</g>
<g id="Invisible_Shape">
	<rect fill="none" width="24" height="24"/>
</g>
</svg>
