<?xml version="1.0" encoding="utf-8"?>
<!-- Generator: Adobe Illustrator 19.2.1, SVG Export Plug-In . SVG Version: 6.00 Build 0)  -->
<svg version="1.1" xmlns="http://www.w3.org/2000/svg" xmlns:xlink="http://www.w3.org/1999/xlink" x="0px" y="0px" width="24px"
	 height="24px" viewBox="0 0 24 24" enable-background="new 0 0 24 24" xml:space="preserve">
<g id="Filled_Icons_1_">
	<g id="Filled_Icons">
		<g>
			<polygon points="14,0 13,0 13,6.71 14,9.21 			"/>
			<path d="M16.633,13C16.654,12.912,19,3.091,19,3V0.5C19,0.224,18.775,0,18.5,0H15v11.711L15.516,13H16.633z"/>
			<path d="M8.367,13h1.117L10,11.711V0H6.5C6.224,0,6,0.224,6,0.5V3C6,3.091,8.346,12.912,8.367,13z"/>
			<polygon points="12,0 11,0 11,9.21 12,6.71 			"/>
			<path d="M19.968,14.327c-0.073-0.195-0.26-0.324-0.468-0.324h-4.661l-1.875-4.685c-0.15-0.38-0.777-0.38-0.928,0l-1.875,4.685
				H5.5c-0.208,0-0.394,0.129-0.468,0.324c-0.073,0.194-0.018,0.416,0.139,0.552l3.765,3.294l-1.418,5.199
				c-0.057,0.207,0.026,0.428,0.205,0.547c0.178,0.119,0.413,0.111,0.584-0.021l4.193-3.261l4.193,3.261
				c0.171,0.133,0.406,0.14,0.584,0.021c0.179-0.119,0.262-0.34,0.205-0.547l-1.418-5.199l3.765-3.294
				C19.986,14.743,20.041,14.521,19.968,14.327z"/>
		</g>
	</g>
	<g id="New_icons">
	</g>
</g>
<g id="Invisible_Shape">
	<rect fill="none" width="24" height="24"/>
</g>
</svg>
