<?xml version="1.0" encoding="utf-8"?>
<!-- Generator: Adobe Illustrator 19.2.1, SVG Export Plug-In . SVG Version: 6.00 Build 0)  -->
<svg version="1.1" xmlns="http://www.w3.org/2000/svg" xmlns:xlink="http://www.w3.org/1999/xlink" x="0px" y="0px" width="24px"
	 height="24px" viewBox="0 0 24 24" enable-background="new 0 0 24 24" xml:space="preserve">
<g id="Filled_Icons_1_">
	<g id="Filled_Icons">
		<g>
			<path d="M9.354,13l1.119-4.104C10.66,8.21,11.289,7.731,12,7.731s1.338,0.478,1.525,1.165L14.646,13h1.048l2.298-12.409
				C18.048,0.288,17.815,0,17.5,0H14v7c0,0.276-0.225,0.5-0.5,0.5C13.224,7.5,13,7.276,13,7V0h-2v7c0,0.276-0.225,0.5-0.5,0.5
				C10.224,7.5,10,7.276,10,7V0H6.5C6.188,0,5.95,0.282,6.008,0.591L8.306,13H9.354z"/>
			<path d="M12,19.633l4.193,3.261c0.178,0.139,0.428,0.141,0.607,0.004c0.181-0.135,0.248-0.375,0.164-0.584l-1.857-4.645
				l3.693-2.771c0.172-0.129,0.242-0.353,0.174-0.558C18.906,14.138,18.716,14,18.5,14h-4.236c-0.225,0-0.422-0.151-0.482-0.369
				L12.562,9.16C12.493,8.907,12.262,8.731,12,8.731s-0.493,0.176-0.562,0.429l-1.219,4.472C10.158,13.849,9.961,14,9.736,14H5.5
				c-0.216,0-0.406,0.138-0.475,0.342c-0.068,0.204,0.002,0.429,0.174,0.558l3.693,2.771l-1.857,4.645
				c-0.084,0.209-0.017,0.449,0.164,0.584c0.18,0.136,0.43,0.134,0.607-0.004L12,19.633z"/>
		</g>
	</g>
	<g id="New_icons">
	</g>
</g>
<g id="Invisible_Shape">
	<rect fill="none" width="24" height="24"/>
</g>
</svg>
