<?xml version="1.0" encoding="utf-8"?>
<!-- Generator: Adobe Illustrator 19.2.1, SVG Export Plug-In . SVG Version: 6.00 Build 0)  -->
<svg version="1.1" xmlns="http://www.w3.org/2000/svg" xmlns:xlink="http://www.w3.org/1999/xlink" x="0px" y="0px" width="24px"
	 height="24px" viewBox="0 0 24 24" enable-background="new 0 0 24 24" xml:space="preserve">
<g id="Filled_Icons_1_">
	<g id="Filled_Icons">
	</g>
	<g id="New_icons">
		<g>
			<g>
				<path d="M5.5,8h-5C0.224,8,0,8.224,0,8.5v3c0,1.083,0.336,1.73,1,1.932V17.5C1,17.776,1.224,18,1.5,18h3
					C4.776,18,5,17.776,5,17.5v-4.068c0.663-0.202,0.999-0.849,1-1.932v-3C6,8.224,5.776,8,5.5,8z"/>
				<circle cx="3" cy="5" r="2"/>
				<path d="M23.5,8h-5C18.224,8,18,8.224,18,8.5v3c0,1.083,0.336,1.73,1,1.932V17.5c0,0.276,0.224,0.5,0.5,0.5h3
					c0.276,0,0.5-0.224,0.5-0.5v-4.068c0.663-0.202,0.999-0.849,1-1.932v-3C24,8.224,23.776,8,23.5,8z"/>
				<circle cx="21" cy="5" r="2"/>
				<path d="M14.5,5h-5C9.224,5,9,5.224,9,5.5v3c0,1.083,0.336,1.73,1,1.932V14.5c0,0.276,0.224,0.5,0.5,0.5h3
					c0.276,0,0.5-0.224,0.5-0.5v-4.068c0.663-0.202,0.999-0.849,1-1.932v-3C15,5.224,14.776,5,14.5,5z"/>
				<circle cx="12" cy="2" r="2"/>
			</g>
			<path d="M23.5,19H17v-2.5c0-0.276-0.224-0.5-0.5-0.5h-9C7.224,16,7,16.224,7,16.5V19H0.5C0.224,19,0,19.224,0,19.5v4
				C0,23.776,0.224,24,0.5,24h23c0.276,0,0.5-0.224,0.5-0.5v-4C24,19.224,23.776,19,23.5,19z"/>
		</g>
	</g>
</g>
<g id="Invisible_Shape">
	<rect fill="none" width="24" height="24"/>
</g>
</svg>
