<?xml version="1.0" encoding="utf-8"?>
<!-- Generator: Adobe Illustrator 19.2.1, SVG Export Plug-In . SVG Version: 6.00 Build 0)  -->
<svg version="1.1" xmlns="http://www.w3.org/2000/svg" xmlns:xlink="http://www.w3.org/1999/xlink" x="0px" y="0px" width="24px"
	 height="24px" viewBox="0 0 24 24" enable-background="new 0 0 24 24" xml:space="preserve">
<g id="Filled_Icons_1_">
	<g id="Filled_Icons">
		<path d="M23.95,11.29c-0.002-0.005-0.001-0.01-0.003-0.014l-1.5-3C22.362,8.107,22.19,8,22,8h-5V6.5c0-0.075-0.02-0.147-0.05-0.21
			c-0.002-0.005-0.001-0.01-0.003-0.014l-1.5-3C15.362,3.107,15.189,3,15,3H9C8.811,3,8.638,3.107,8.553,3.276l-1.5,3
			C7.051,6.28,7.052,6.285,7.05,6.29C7.019,6.353,7,6.425,7,6.5V8H2C1.811,8,1.638,8.107,1.553,8.276l-1.5,3
			C0.051,11.28,0.052,11.285,0.05,11.29C0.02,11.354,0,11.425,0,11.5v9C0,20.776,0.224,21,0.5,21h23c0.276,0,0.5-0.224,0.5-0.5v-9
			C24,11.425,23.98,11.354,23.95,11.29z M4.99,18c0.276,0,0.5,0.224,0.5,0.5S5.267,19,4.99,19H3.117
			c-0.401,0-0.642-0.454-0.409-0.786l1.703-2.434c0.228-0.343-0.022-0.696-0.347-0.696c-0.234,0-0.426,0.183-0.436,0.416
			c-0.012,0.275-0.253,0.493-0.522,0.477c-0.276-0.011-0.49-0.245-0.478-0.521c0.034-0.771,0.664-1.373,1.436-1.373
			c1.111,0,1.862,1.245,1.169,2.264L4.077,18H4.99z M7,11H1.309l1-2H7V11z M13,15.894c0,0.276-0.224,0.5-0.5,0.5s-0.5-0.224-0.5-0.5
			v-3.842c-0.483,0.082-0.785-0.514-0.43-0.854l0.584-0.56C12.468,10.337,13,10.559,13,11V15.894z M8.309,6l1-2h5.383l1,2H8.309z
			 M21.371,17.499c0,0.747-0.444,1.501-1.436,1.501c-0.833,0-1.395-0.555-1.434-1.413c-0.013-0.276,0.2-0.51,0.477-0.523
			c0.32-0.022,0.51,0.202,0.521,0.477C19.521,18,19.78,18,19.935,18c0.142,0,0.436,0,0.436-0.501c0-0.5-0.294-0.5-0.436-0.5
			c-0.276,0-0.5-0.224-0.5-0.5c0-0.275,0.224-0.5,0.5-0.5c0.142,0,0.436,0,0.436-0.5C20.371,15,20.077,15,19.935,15
			c-0.155,0-0.415,0-0.436,0.458c-0.012,0.276-0.197,0.498-0.521,0.477c-0.276-0.013-0.489-0.247-0.477-0.522
			C18.54,14.555,19.103,14,19.935,14c0.991,0,1.436,0.753,1.436,1.499c0,0.361-0.106,0.722-0.326,1
			C21.265,16.777,21.371,17.139,21.371,17.499z M17,11V9h4.691l1,2H17z"/>
	</g>
	<g id="New_icons">
	</g>
</g>
<g id="Invisible_Shape">
	<rect fill="none" width="24" height="24"/>
</g>
</svg>
