<?xml version="1.0" encoding="utf-8"?>
<!-- Generator: Adobe Illustrator 19.2.1, SVG Export Plug-In . SVG Version: 6.00 Build 0)  -->
<svg version="1.1" xmlns="http://www.w3.org/2000/svg" xmlns:xlink="http://www.w3.org/1999/xlink" x="0px" y="0px" width="24px"
	 height="24px" viewBox="0 0 24 24" enable-background="new 0 0 24 24" xml:space="preserve">
<g id="Filled_Icons_1_">
	<g id="Filled_Icons">
		<g>
			<rect y="7" width="8" height="4"/>
			<path d="M18.01,1.379C17.443,0.812,16.69,0.5,15.889,0.5c-0.801,0-1.555,0.312-2.121,0.879C13.111,2.035,12.439,4.03,12,5.552
				c-0.44-1.522-1.112-3.517-1.768-4.173C9.665,0.812,8.912,0.5,8.11,0.5c-0.802,0-1.555,0.312-2.122,0.879
				c-1.169,1.17-1.169,3.073,0,4.242C6.455,6.088,8.911,7.063,9,7.095V11h6V7.095c0.088-0.031,2.544-1.008,3.011-1.474
				C19.18,4.452,19.18,2.548,18.01,1.379z M6.695,4.914c-0.779-0.779-0.779-2.048,0-2.828C7.074,1.708,7.576,1.5,8.11,1.5
				c0.534,0,1.036,0.208,1.415,0.586c0.547,0.547,1.303,2.903,1.777,4.698C9.548,6.268,7.246,5.464,6.695,4.914z M17.303,4.914
				c-0.549,0.55-2.852,1.354-4.607,1.87c0.476-1.795,1.231-4.15,1.779-4.698c0.377-0.378,0.88-0.586,1.414-0.586
				s1.037,0.208,1.414,0.586C18.082,2.866,18.082,4.135,17.303,4.914z"/>
			<rect x="16" y="7" width="8" height="4"/>
			<rect x="16" y="12" width="7" height="12"/>
			<rect x="1" y="12" width="7" height="12"/>
			<rect x="9" y="12" width="6" height="12"/>
		</g>
	</g>
	<g id="New_icons">
	</g>
</g>
<g id="Invisible_Shape">
	<rect fill="none" width="24" height="24"/>
</g>
</svg>
