<?xml version="1.0" encoding="utf-8"?>
<!-- Generator: Adobe Illustrator 19.2.1, SVG Export Plug-In . SVG Version: 6.00 Build 0)  -->
<svg version="1.1" xmlns="http://www.w3.org/2000/svg" xmlns:xlink="http://www.w3.org/1999/xlink" x="0px" y="0px" width="24px"
	 height="24px" viewBox="0 0 24 24" enable-background="new 0 0 24 24" xml:space="preserve">
<g id="Filled_Icons_1_">
	<g id="Filled_Icons">
		<g>
			<path d="M12,19.131l6.195,4.766C18.528,24.149,19,23.913,19,23.5v-3.959l-7-5.41l-7,5.41V23.5c0,0.413,0.472,0.649,0.805,0.397
				L12,19.131z"/>
			<path d="M11.714,3.104c0.182-0.139,0.431-0.138,0.61-0.001L19,8.229V0.5C19,0.224,18.776,0,18.5,0h-13C5.224,0,5,0.224,5,0.5
				v7.777L11.714,3.104z"/>
			<path d="M12,4.131L5,9.54v3.737l6.711-5.174c0.175-0.126,0.403-0.126,0.578,0L19,13.277V9.54L12,4.131z"/>
			<path d="M12,9.131l-7,5.41v3.737l6.711-5.174c0.175-0.126,0.403-0.126,0.578,0L19,18.277V14.54L12,9.131z"/>
		</g>
	</g>
	<g id="New_icons">
	</g>
</g>
<g id="Invisible_Shape">
	<rect fill="none" width="24" height="24"/>
</g>
</svg>
