<?xml version="1.0" encoding="utf-8"?>
<!-- Generator: Adobe Illustrator 19.2.1, SVG Export Plug-In . SVG Version: 6.00 Build 0)  -->
<svg version="1.1" xmlns="http://www.w3.org/2000/svg" xmlns:xlink="http://www.w3.org/1999/xlink" x="0px" y="0px" width="24px"
	 height="24px" viewBox="0 0 24 24" enable-background="new 0 0 24 24" xml:space="preserve">
<g id="Filled_Icons_1_">
	<g id="Filled_Icons">
		<g>
			<path d="M11.694,13.104c0.182-0.139,0.431-0.138,0.61,0L19,18.243V0.5C19,0.224,18.776,0,18.5,0h-13C5.224,0,5,0.224,5,0.5
				v17.763L11.694,13.104z"/>
			<path d="M12.001,14.132H12l-0.001-0.001v0.001L5,19.526V23.5c0,0.413,0.474,0.649,0.805,0.397L12,19.145l6.195,4.752
				C18.526,24.149,19,23.913,19,23.5v-3.974L12.001,14.132z"/>
		</g>
	</g>
	<g id="New_icons">
	</g>
</g>
<g id="Invisible_Shape">
	<rect fill="none" width="24" height="24"/>
</g>
</svg>
