<?xml version="1.0" encoding="utf-8"?>
<!-- Generator: Adobe Illustrator 19.2.1, SVG Export Plug-In . SVG Version: 6.00 Build 0)  -->
<svg version="1.1" xmlns="http://www.w3.org/2000/svg" xmlns:xlink="http://www.w3.org/1999/xlink" x="0px" y="0px" width="24px"
	 height="24px" viewBox="0 0 24 24" enable-background="new 0 0 24 24" xml:space="preserve">
<g id="Filled_Icons_1_">
	<g id="Filled_Icons">
	</g>
	<g id="New_icons">
		<g>
			<g>
				<g>
					<path d="M11.5,19h-2C9.224,19,9,19.224,9,19.5S9.224,20,9.5,20h8.442C20.222,20.59,22,21.162,22,22.5
						c0,0.276-0.225,0.5-0.5,0.5h-15C6.224,23,6,22.776,6,22.5v-5C6,17.224,6.224,17,6.5,17h1.688c1.516,0,3.096,1.151,3.297,1.297
						C11.686,18.443,12.438,19.047,11.5,19z"/>
					<path d="M4.5,16h-4C0.224,16,0,16.224,0,16.5v7C0,23.776,0.224,24,0.5,24h4C4.775,24,5,23.776,5,23.5v-7
						C5,16.224,4.775,16,4.5,16z"/>
				</g>
			</g>
			<path d="M23.5,5h-4.661l-1.875-4.686c-0.15-0.38-0.777-0.38-0.928,0L14.161,5H9.5C9.039,5,8.824,5.574,9.171,5.877l3.765,3.294
				l-1.418,5.199c-0.126,0.462,0.412,0.82,0.789,0.525l4.193-3.261l4.193,3.261c0.377,0.295,0.915-0.063,0.789-0.525L20.065,9.17
				l3.765-3.294C24.176,5.574,23.961,5,23.5,5z"/>
		</g>
	</g>
</g>
<g id="Invisible_Shape">
	<rect fill="none" width="24" height="24"/>
</g>
</svg>
