<?xml version="1.0" encoding="utf-8"?>
<!-- Generator: Adobe Illustrator 19.2.1, SVG Export Plug-In . SVG Version: 6.00 Build 0)  -->
<svg version="1.1" xmlns="http://www.w3.org/2000/svg" xmlns:xlink="http://www.w3.org/1999/xlink" x="0px" y="0px" width="24px"
	 height="24px" viewBox="0 0 24 24" enable-background="new 0 0 24 24" xml:space="preserve">
<g id="Filled_Icons_1_">
	<g id="Filled_Icons">
		<g>
			<path d="M23.5,5h-9C14.224,5,14,5.224,14,5.5v3C14,8.776,14.224,9,14.5,9h9C23.776,9,24,8.776,24,8.5v-3
				C24,5.224,23.776,5,23.5,5z"/>
			<path d="M17.081,14.661L22.518,10h-8.08c-0.828,0-1.5-0.671-1.5-1.5v-3c0-0.633,0.394-1.172,0.949-1.393l-1.419-3.783
				c-0.085-0.226-0.321-0.344-0.557-0.301c-0.187,0.034-0.333,0.178-0.388,0.355L8.654,8H0.5C0.291,8,0.104,8.131,0.031,8.327
				c-0.073,0.196-0.016,0.417,0.144,0.552l6.744,5.782l-2.888,8.685c-0.065,0.201-0.006,0.427,0.174,0.558
				c0.179,0.131,0.412,0.12,0.583-0.003l7.232-5.256l7.185,5.259c0.176,0.129,0.414,0.128,0.59,0.001
				c0.176-0.128,0.248-0.356,0.18-0.562L17.081,14.661z"/>
		</g>
	</g>
	<g id="New_icons">
	</g>
</g>
<g id="Invisible_Shape">
	<rect fill="none" width="24" height="24"/>
</g>
</svg>
