<?xml version="1.0" encoding="utf-8"?>
<!-- Generator: Adobe Illustrator 19.2.1, SVG Export Plug-In . SVG Version: 6.00 Build 0)  -->
<svg version="1.1" xmlns="http://www.w3.org/2000/svg" xmlns:xlink="http://www.w3.org/1999/xlink" x="0px" y="0px" width="24px"
	 height="24px" viewBox="0 0 24 24" enable-background="new 0 0 24 24" xml:space="preserve">
<g id="Filled_Icons_1_">
	<g id="Filled_Icons">
		<g>
			<path d="M6.43,20.312c1.598,0.229,2.972,0.607,3.743,0.941C11.062,21.637,11.902,22,13.5,22H19c1.103,0,2-0.897,2-2
				c0-0.411-0.125-0.794-0.339-1.112C21.44,18.614,22,17.871,22,17c0-0.411-0.125-0.794-0.339-1.112C22.44,15.614,23,14.871,23,14
				c0-0.411-0.125-0.794-0.339-1.112C23.44,12.614,24,11.871,24,11c0-1.102-0.897-2-2-2h-6.299c0.422-1.29,1.198-4.018,0.78-5.508
				c-0.638-2.271-1.963-2.448-2.353-2.448c-0.929,0-1.628,0.763-1.628,1.774c0,3.158-3.45,8-6,8c-0.276,0-0.5,0.223-0.5,0.5v8.5
				C6,20.066,6.183,20.277,6.43,20.312z"/>
			<path d="M0.5,22h4C4.775,22,5,21.776,5,21.5v-12C5,9.224,4.775,9,4.5,9h-4C0.224,9,0,9.224,0,9.5v12C0,21.776,0.224,22,0.5,22z
				 M3.5,19C3.775,19,4,19.223,4,19.5C4,19.775,3.775,20,3.5,20C3.224,20,3,19.775,3,19.5C3,19.223,3.224,19,3.5,19z"/>
		</g>
	</g>
	<g id="New_icons">
	</g>
</g>
<g id="Invisible_Shape">
	<rect fill="none" width="24" height="24"/>
</g>
</svg>
