<?xml version="1.0" encoding="utf-8"?>
<!-- Generator: Adobe Illustrator 19.2.1, SVG Export Plug-In . SVG Version: 6.00 Build 0)  -->
<svg version="1.1" xmlns="http://www.w3.org/2000/svg" xmlns:xlink="http://www.w3.org/1999/xlink" x="0px" y="0px" width="24px"
	 height="24px" viewBox="0 0 24 24" enable-background="new 0 0 24 24" xml:space="preserve">
<g id="Filled_Icons_1_">
	<g id="Filled_Icons">
		<g>
			<path d="M17.57,2.732c-1.598-0.229-2.972-0.607-3.743-0.94c-0.89-0.385-1.729-0.748-3.327-0.748H5c-1.102,0-2,0.898-2,2
				c0,0.411,0.125,0.794,0.339,1.112C2.56,4.431,2,5.173,2,6.044c0,0.411,0.125,0.794,0.339,1.112C1.56,7.431,1,8.173,1,9.044
				c0,0.411,0.125,0.794,0.339,1.112C0.56,10.431,0,11.173,0,12.044C0,13.146,0.897,14,2,14h6.299
				c-0.422,1.29-1.198,4.062-0.78,5.552C8.156,21.823,9.481,22,9.872,22c0.929,0,1.628-0.763,1.628-1.774c0-3.158,3.45-8,6-8
				c0.276,0,0.5-0.223,0.5-0.5v-8.5C18,2.977,17.817,2.767,17.57,2.732z"/>
			<path d="M23.5,1.044h-4c-0.275,0-0.5,0.224-0.5,0.5V13.5c0,0.276,0.225,0.5,0.5,0.5h4c0.276,0,0.5-0.224,0.5-0.5V1.544
				C24,1.268,23.776,1.044,23.5,1.044z M20.5,4.044c-0.275,0-0.5-0.223-0.5-0.5c0-0.275,0.225-0.5,0.5-0.5
				c0.276,0,0.5,0.225,0.5,0.5C21,3.821,20.776,4.044,20.5,4.044z"/>
		</g>
	</g>
	<g id="New_icons">
	</g>
</g>
<g id="Invisible_Shape">
	<rect fill="none" width="24" height="24"/>
</g>
</svg>
