<?xml version="1.0" encoding="utf-8"?>
<!-- Generator: Adobe Illustrator 19.2.1, SVG Export Plug-In . SVG Version: 6.00 Build 0)  -->
<svg version="1.1" xmlns="http://www.w3.org/2000/svg" xmlns:xlink="http://www.w3.org/1999/xlink" x="0px" y="0px" width="24px"
	 height="24px" viewBox="0 0 24 24" enable-background="new 0 0 24 24" xml:space="preserve">
<g id="Filled_Icons_1_">
	<g id="Filled_Icons">
		<path d="M23,11c0-1.103-0.897-2-2-2h-7.359C13.928,7.824,14.5,5.283,14.5,3.719c0-1.957-1.17-2.849-2.256-2.849
			C11.25,0.87,10.5,1.57,10.5,2.5c0,4.42-3.689,7.5-7,7.5h-3C0.224,10,0,10.224,0,10.5v9C0,19.776,0.224,20,0.5,20
			c4.583,0,6.15,0.673,7.41,1.214C8.852,21.619,9.74,22,11.5,22H18c1.103,0,2-0.897,2-2c0-0.412-0.125-0.794-0.339-1.112
			C20.44,18.614,21,17.871,21,17c0-0.412-0.125-0.794-0.339-1.112C21.44,15.614,22,14.871,22,14c0-0.412-0.125-0.794-0.339-1.112
			C22.44,12.614,23,11.871,23,11z"/>
	</g>
	<g id="New_icons">
	</g>
</g>
<g id="Invisible_Shape">
	<rect fill="none" width="24" height="24"/>
</g>
</svg>
