<?xml version="1.0" encoding="utf-8"?>
<!-- Generator: Adobe Illustrator 19.2.1, SVG Export Plug-In . SVG Version: 6.00 Build 0)  -->
<svg version="1.1" xmlns="http://www.w3.org/2000/svg" xmlns:xlink="http://www.w3.org/1999/xlink" x="0px" y="0px" width="24px"
	 height="24px" viewBox="0 0 24 24" enable-background="new 0 0 24 24" xml:space="preserve">
<g id="Filled_Icons_1_">
	<g id="Filled_Icons">
	</g>
	<g id="New_icons">
		<g>
			<path d="M20.462,11.309C20.385,11.122,20.202,11,20,11H5c-0.202,0-0.385,0.122-0.462,0.309c-0.077,0.187-0.034,0.402,0.108,0.545
				l3,3C7.74,14.947,7.867,15,8,15h9c0.133,0,0.26-0.053,0.354-0.146l3-3C20.496,11.71,20.539,11.496,20.462,11.309z"/>
			<g>
				<path d="M9.321,16l1.69,7.608C11.062,23.838,11.266,24,11.5,24h2c0.234,0,0.438-0.162,0.488-0.392L15.679,16H9.321z"/>
			</g>
			<g>
				<path d="M16.238,10c1.38-2.056,1.013-5.25-2.054-6.465c-0.309-0.122-0.645,0.084-0.682,0.408
					c-0.03,0.271-0.148,0.497-0.337,0.716c-0.314-1.047-0.209-2.772,1.13-3.756c0.431-0.315,0.131-1.007-0.408-0.89
					C9.074,1.12,6.684,6.903,8.762,10H16.238z M12,7c0-0.276,0.224-0.5,0.5-0.5S13,6.724,13,7v1.5C13,8.776,12.776,9,12.5,9
					S12,8.776,12,8.5V7z"/>
			</g>
		</g>
	</g>
</g>
<g id="Invisible_Shape">
	<rect fill="none" width="24" height="24"/>
</g>
</svg>
