<?xml version="1.0" encoding="utf-8"?>
<!-- Generator: Adobe Illustrator 19.2.1, SVG Export Plug-In . SVG Version: 6.00 Build 0)  -->
<svg version="1.1" xmlns="http://www.w3.org/2000/svg" xmlns:xlink="http://www.w3.org/1999/xlink" x="0px" y="0px" width="24px"
	 height="24px" viewBox="0 0 24 24" enable-background="new 0 0 24 24" xml:space="preserve">
<g id="Filled_Icons_1_">
	<g id="Filled_Icons">
		<path d="M22,10.051V9.5C22,8.121,20.878,7,19.5,7h-0.025C19.216,3.098,15.967,0,12,0S4.784,3.098,4.525,7H4.5
			C3.122,7,2,8.121,2,9.5v0.551c-1.14,0.232-2,1.241-2,2.449s0.86,2.217,2,2.449V15.5C2,16.879,3.122,18,4.5,18h2
			C6.776,18,7,17.776,7,17.5v-10C7,7.224,6.776,7,6.5,7H5.525C5.782,3.649,8.585,1,12,1s6.218,2.649,6.475,6H17.5
			C17.224,7,17,7.224,17,7.5v10c0,0.276,0.224,0.5,0.5,0.5h2c0,1.654-1.346,3-3,3h-1.05c-0.232-1.142-1.24-2-2.45-2
			c-1.381,0-2.5,1.119-2.5,2.5S11.619,24,13,24c1.21,0,2.218-0.858,2.45-2h1.05c2.044,0,4-1.56,4-4.212
			c0.881-0.387,1.5-1.266,1.5-2.288v-0.551c1.14-0.232,2-1.241,2-2.449S23.14,10.283,22,10.051z"/>
	</g>
	<g id="New_icons">
	</g>
</g>
<g id="Invisible_Shape">
	<rect fill="none" width="24" height="24"/>
</g>
</svg>
