<?xml version="1.0" encoding="utf-8"?>
<!-- Generator: Adobe Illustrator 19.2.1, SVG Export Plug-In . SVG Version: 6.00 Build 0)  -->
<svg version="1.1" xmlns="http://www.w3.org/2000/svg" xmlns:xlink="http://www.w3.org/1999/xlink" x="0px" y="0px" width="24px"
	 height="24px" viewBox="0 0 24 24" enable-background="new 0 0 24 24" xml:space="preserve">
<g id="Filled_Icons_1_">
	<g id="Filled_Icons">
	</g>
	<g id="New_icons">
		<g>
			<g>
				<path d="M11,6V5H6.5C6.224,5,6,4.776,6,4.5S6.224,4,6.5,4H11V2H3.5C2.122,2,1,3.121,1,4.5V6H11z"/>
				<path d="M11,7.5V7H1v12h16V9h-4.5C11.671,9,11,8.328,11,7.5z M9,8c1.465,0,2.718,0.977,3.239,2.356
					c-0.534,0.424-0.781,0.758-1.417,0.656c-0.232-0.034-0.654-0.154-0.881-0.577c-0.164-0.306-0.569-0.345-0.794-0.117
					c-0.85,0.852-2.199,0.794-2.763,0.396l-0.576-0.472C6.353,8.924,7.577,8,9,8z M14.5,18h-11c0-0.771,0.581-1.543,1.323-1.755
					L7,15.623v-0.765c-1.001-0.756-1.632-2.044-1.457-3.543c1.174,0.962,2.807,0.816,3.875,0.072c0.425,0.422,1.015,0.64,1.619,0.64
					c0.738,0,0.955-0.204,1.432-0.582c0.117,1.458-0.494,2.677-1.47,3.413v0.765l2.175,0.622C13.918,16.457,14.5,17.229,14.5,18z"/>
				<path d="M1,20v1.5C1,22.879,2.122,24,3.5,24h11c1.378,0,2.5-1.121,2.5-2.5V20H1z M9,23c-0.551,0-1-0.448-1-1s0.449-1,1-1
					s1,0.448,1,1S9.551,23,9,23z"/>
			</g>
			<path d="M22.276,1.053L20,2.191V0.5C20,0.224,19.776,0,19.5,0h-7C12.224,0,12,0.224,12,0.5v7C12,7.776,12.224,8,12.5,8h7
				C19.776,8,20,7.776,20,7.5V5.809l2.276,1.139C22.611,7.113,23,6.869,23,6.5v-5C23,1.13,22.609,0.885,22.276,1.053z"/>
		</g>
	</g>
</g>
<g id="Invisible_Shape">
	<rect fill="none" width="24" height="24"/>
</g>
</svg>
