<?xml version="1.0" encoding="utf-8"?>
<!-- Generator: Adobe Illustrator 19.2.1, SVG Export Plug-In . SVG Version: 6.00 Build 0)  -->
<svg version="1.1" xmlns="http://www.w3.org/2000/svg" xmlns:xlink="http://www.w3.org/1999/xlink" x="0px" y="0px" width="24px"
	 height="24px" viewBox="0 0 24 24" enable-background="new 0 0 24 24" xml:space="preserve">
<g id="Filled_Icons_1_">
	<g id="Filled_Icons">
	</g>
	<g id="New_icons">
		<g>
			<path d="M23.276,1.053L21,2.191V0.5C21,0.224,20.776,0,20.5,0h-7C13.224,0,13,0.224,13,0.5v7C13,7.776,13.224,8,13.5,8h7
				C20.776,8,21,7.776,21,7.5V5.809l2.276,1.139C23.609,7.112,24,6.87,24,6.5v-5C24,1.128,23.607,0.886,23.276,1.053z"/>
			<g>
				<path d="M19,18V9h-5.5C12.671,9,12,8.328,12,7.5V6H2C0.897,6,0,6.937,0,8.088V18H19z M9.5,8c1.465,0,2.718,0.977,3.239,2.356
					c-0.534,0.424-0.781,0.758-1.417,0.656c-0.232-0.034-0.654-0.154-0.881-0.577c-0.164-0.306-0.569-0.345-0.794-0.117
					c-0.85,0.852-2.199,0.794-2.763,0.396l-0.576-0.472C6.853,8.924,8.077,8,9.5,8z M5.323,16.245L7.5,15.623v-0.765
					c-1.001-0.756-1.632-2.044-1.457-3.543c1.174,0.962,2.807,0.816,3.875,0.072c0.425,0.422,1.015,0.64,1.619,0.64
					c0.738,0,0.955-0.204,1.432-0.582c0.117,1.458-0.494,2.677-1.47,3.413v0.765l2.175,0.622c0.403,0.115,0.748,0.4,0.989,0.756
					H4.335C4.576,16.646,4.92,16.36,5.323,16.245z"/>
				<path d="M0,19v1c0,1.103,0.897,2,2,2h7v1H5c-0.276,0-0.5,0.224-0.5,0.5S4.724,24,5,24h9c0.276,0,0.5-0.224,0.5-0.5
					S14.276,23,14,23h-4v-1h7c1.103,0,2-0.937,2-2.088V19H0z"/>
			</g>
		</g>
	</g>
</g>
<g id="Invisible_Shape">
	<rect fill="none" width="24" height="24"/>
</g>
</svg>
