<?xml version="1.0" encoding="utf-8"?>
<!-- Generator: Adobe Illustrator 19.2.0, SVG Export Plug-In . SVG Version: 6.00 Build 0)  -->
<svg version="1.1" xmlns="http://www.w3.org/2000/svg" xmlns:xlink="http://www.w3.org/1999/xlink" x="0px" y="0px" width="24px"
	 height="24px" viewBox="0 0 24 24" enable-background="new 0 0 24 24" xml:space="preserve">
<g id="Filled_Icons">
	<path d="M23.923,10.618c-0.051-0.123-0.124-0.234-0.217-0.326l-2.999-2.999c-0.391-0.391-1.023-0.391-1.414,0
		c-0.391,0.391-0.391,1.023,0,1.414L20.586,10H2c-0.074,0-0.14,0.027-0.209,0.042l5.088-6.188c0.236,0.112,0.492,0.191,0.766,0.22
		c4.998,0.515,6.692,2.406,7.2,4.927h3.535c-0.8-4.969-4.557-7.629-9.521-7.977C8.681,1.01,8.542,0.862,8.542,0.686V0.494
		c0-0.276-0.224-0.5-0.5-0.5h-2c-0.276,0-0.5,0.224-0.5,0.5v1.252c0,0.568,0.207,1.087,0.546,1.494l-5.996,7.471
		c-0.12,0.17-0.123,0.396-0.007,0.568l5.86,8.698c-0.253,0.382-0.403,0.835-0.403,1.323V22.5c0,0.276,0.224,0.5,0.5,0.5h2
		c0.276,0,0.5-0.239,0.5-0.516c0-0.263,0.205-0.486,0.468-0.508c4.968-0.416,8.606-4.002,9.376-8.977h-3.57
		c-0.505,2.266-2.118,5.363-7.137,5.915c-0.37,0.04-0.706,0.171-1.003,0.356l-4.935-7.324C1.826,11.971,1.908,12,2,12h18.586
		l-1.293,1.293c-0.391,0.391-0.391,1.023,0,1.414C19.488,14.902,19.744,15,20,15s0.512-0.098,0.707-0.293l2.999-2.999
		c0.093-0.092,0.166-0.203,0.217-0.326C24.024,11.138,24.024,10.862,23.923,10.618z"/>
</g>
<g id="invisible_shape">
	<rect fill="none" width="24" height="24"/>
</g>
</svg>
