<?xml version="1.0" encoding="utf-8"?>
<!-- Generator: Adobe Illustrator 19.2.0, SVG Export Plug-In . SVG Version: 6.00 Build 0)  -->
<svg version="1.1" xmlns="http://www.w3.org/2000/svg" xmlns:xlink="http://www.w3.org/1999/xlink" x="0px" y="0px" width="24px"
	 height="24px" viewBox="0 0 24 24" enable-background="new 0 0 24 24" xml:space="preserve">
<g id="Filled_Icons">
	<g>
		<g>
			<path d="M7.5,0h-3C4.224,0,4,0.224,4,0.5v4C4,4.776,4.224,5,4.5,5h3C7.776,5,8,4.776,8,4.5v-4C8,0.224,7.776,0,7.5,0z"/>
			<path d="M19.5,0h-3C16.224,0,16,0.224,16,0.5v4C16,4.776,16.224,5,16.5,5h3C19.776,5,20,4.776,20,4.5v-4
				C20,0.224,19.776,0,19.5,0z"/>
		</g>
		<g>
			<circle cx="11.952" cy="17.5" r="2.5"/>
			<path d="M0,8v15.5C0,23.776,0.224,24,0.5,24h23c0.276,0,0.5-0.224,0.5-0.5V8H0z M11.952,22c-2.481,0-4.5-2.019-4.5-4.5
				c0-1.856,1.13-3.452,2.738-4.14l-1.073-1.104c-0.164-0.168-0.188-0.428-0.059-0.624l0.929-1.408
				C10.079,10.084,10.236,10,10.404,10H13.5c0.168,0,0.325,0.084,0.417,0.225l0.929,1.408c0.13,0.196,0.105,0.456-0.059,0.624
				l-1.073,1.104c1.608,0.688,2.738,2.283,2.738,4.14C16.452,19.981,14.434,22,11.952,22z"/>
			<path d="M24,7V2.5C24,2.224,23.776,2,23.5,2H21v2.5C21,5.328,20.328,6,19.5,6h-3C15.672,6,15,5.328,15,4.5V2H9v2.5
				C9,5.328,8.328,6,7.5,6h-3C3.672,6,3,5.328,3,4.5V2H0.5C0.224,2,0,2.224,0,2.5V7H24z"/>
		</g>
	</g>
</g>
<g id="invisible_shape">
	<rect fill="none" width="24" height="24"/>
</g>
</svg>
