<?xml version="1.0" encoding="utf-8"?>
<!-- Generator: Adobe Illustrator 19.2.0, SVG Export Plug-In . SVG Version: 6.00 Build 0)  -->
<svg version="1.1" xmlns="http://www.w3.org/2000/svg" xmlns:xlink="http://www.w3.org/1999/xlink" x="0px" y="0px" width="24px"
	 height="24px" viewBox="0 0 24 24" enable-background="new 0 0 24 24" xml:space="preserve">
<g id="Filled_Icons">
	<g>
		<path d="M13.99,8.517c-0.534,0-1.031,0.177-1.414,0.492c-0.383-0.315-0.88-0.492-1.414-0.492c-1.249,0-2.513,0.95-2.513,2.779
			c0.061,2.453,3.559,4.19,3.707,4.264c0.069,0.034,0.145,0.051,0.22,0.051c0.075,0,0.15-0.017,0.22-0.051
			c0.148-0.073,3.646-1.811,3.707-4.276C16.503,9.467,15.239,8.517,13.99,8.517z"/>
		<g>
			<g>
				<path d="M23.5,1h-3C20.224,1,20,1.224,20,1.5v7c0,0.276,0.224,0.5,0.5,0.494h3C23.776,9,24,8.776,24,8.5v-7
					C24,1.224,23.776,1,23.5,1z"/>
			</g>
			<g>
				<path d="M5.188,2.381C3.906,3.063,2.312,3.91,0.276,4.928C0.133,5,0.032,5.137,0.007,5.295c-0.026,0.159,0.026,0.32,0.14,0.434
					C1.321,6.902,2.333,7.226,3.657,6.85l3.517-1.167C7.063,5.388,7,5.564,7,5.244c0-0.567,0.17-1.102,0.477-1.506
					C7.843,3.259,8.384,2.994,9,2.994h5.5c0.276,0,0.5,0.224,0.5,0.5c0,0.276-0.224,0.5-0.5,0.5H9c-0.789,0-1,0.786-1,1.25
					c0,0.464,0.211,1.25,1,1.25h2.798c0.743,0.7,2.429,1.506,4.702,1.5H19V2.18c-0.841-0.285-1.59-0.544-2.256-0.775
					C10.92-0.618,10.811-0.61,5.188,2.381z"/>
			</g>
		</g>
		<g>
			<g>
				<path d="M0.5,22.994h3C3.776,23,4,22.776,4,22.5v-7C4,15.224,3.776,15,3.5,15h-3C0.224,15,0,15.224,0,15.5v7
					C0,22.776,0.224,23,0.5,22.994z"/>
			</g>
			<g>
				<path d="M18.813,21.619c1.281-0.682,2.876-1.529,4.911-2.547c0.144-0.072,0.244-0.209,0.27-0.367
					c0.026-0.159-0.026-0.32-0.14-0.434c-1.175-1.174-2.187-1.497-3.511-1.121l-3.517,1.167C16.938,18.612,17,18.424,17,18.744
					c0,0.567-0.17,1.608-0.478,2.012c-0.365,0.48-0.906,0.238-1.522,0.238H9.5c-0.276,0-0.5-0.224-0.5-0.5
					c0-0.276,0.224-0.5,0.5-0.5H15c0.789,0,1-0.786,1-1.25c0-0.464-0.211-1.25-1-1.25h-2.798C11.459,16.794,9.773,16,7.5,16H5v5.82
					c0.841,0.285,1.59,0.544,2.256,0.775C13.08,24.618,13.189,24.61,18.813,21.619z"/>
			</g>
		</g>
	</g>
</g>
<g id="invisible_shape">
	<rect fill="none" width="24" height="24"/>
</g>
</svg>
