<?xml version="1.0" encoding="utf-8"?>
<!-- Generator: Adobe Illustrator 19.2.0, SVG Export Plug-In . SVG Version: 6.00 Build 0)  -->
<svg version="1.1" xmlns="http://www.w3.org/2000/svg" xmlns:xlink="http://www.w3.org/1999/xlink" x="0px" y="0px" width="24px"
	 height="24px" viewBox="0 0 24 24" enable-background="new 0 0 24 24" xml:space="preserve">
<g id="Filled_Icons">
	<path d="M23.111,8.602c-0.797-1.923-2.646-3.197-4.586-3.088c0.054-1.071-0.304-2.15-1.023-3.045
		c-0.976-1.214-2.494-1.939-4.06-1.939c-1.552,0-3.052,0.681-4.347,1.976c-3.141,3.298-1.723,9.708-1.064,12.046l-7.739,7.74
		c-0.391,0.391-0.391,1.023,0,1.414C0.488,23.902,0.744,24,1,24s0.512-0.098,0.707-0.293l7.716-7.717
		c1.202,0.341,3.577,0.908,6.054,0.908c2.658,0,4.696-0.658,6.066-1.963C23.398,13.08,23.984,10.713,23.111,8.602z M18.33,12.914
		c-0.806,0.767-1.986,1.152-3.518,1.152c-1.951,0-3.797-0.625-3.874-0.652c-0.147-0.05-0.261-0.164-0.311-0.311
		c-0.071-0.206-1.708-5.075,0.489-7.384c0.963-0.963,1.927-1.163,2.568-1.163c0.935,0,1.84,0.433,2.423,1.157
		c0.38,0.473,0.592,1.033,0.615,1.602c1.073,0.044,2.078,0.776,2.522,1.849C19.766,10.419,19.424,11.82,18.33,12.914z"/>
</g>
<g id="invisible_shape">
	<rect fill="none" width="24" height="24"/>
</g>
</svg>
