<?xml version="1.0" encoding="utf-8"?>
<!-- Generator: Adobe Illustrator 19.2.0, SVG Export Plug-In . SVG Version: 6.00 Build 0)  -->
<svg version="1.1" xmlns="http://www.w3.org/2000/svg" xmlns:xlink="http://www.w3.org/1999/xlink" x="0px" y="0px" width="24px"
	 height="24px" viewBox="0 0 24 24" enable-background="new 0 0 24 24" xml:space="preserve">
<g id="Filled_Icons">
	<g>
		<path d="M16.908,0.559c-2.064,0-4.337,1.259-5.408,4.022c-1.055-2.719-3.271-3.958-5.28-3.958c-2.843,0-5.72,2.439-5.72,7.102
			c0,8.455,10.286,15.354,10.725,15.644c0.083,0.056,0.18,0.083,0.275,0.083c0.108,0,0.216-0.035,0.306-0.104
			C12.243,23.009,22.5,14.979,22.5,7.133C22.5,2.816,19.687,0.559,16.908,0.559z M15.99,15.604c-0.047,0.234-0.252,0.402-0.49,0.402
			H15v1.5c0,0.276-0.224,0.5-0.5,0.5H13v-2.5c0-0.276-0.224-0.5-0.5-0.5s-0.5,0.224-0.5,0.5v2.5h-1v-2.5c0-0.276-0.224-0.5-0.5-0.5
			s-0.5,0.224-0.5,0.5v2.5H8.5c-0.276,0-0.5-0.224-0.5-0.5v-1.5H7.5c-0.238,0-0.443-0.168-0.49-0.402l-1-5
			C6,9.127,7.121,8.006,8.5,8h6c1.379,0.006,2.5,1.127,2.5,2.506L15.99,15.604z"/>
		<circle cx="9.5" cy="12.006" r="1"/>
		<circle cx="13.5" cy="12.006" r="1"/>
	</g>
</g>
<g id="invisible_shape">
	<rect fill="none" width="24" height="24"/>
</g>
</svg>
