<?xml version="1.0" encoding="utf-8"?>
<!-- Generator: Adobe Illustrator 19.2.0, SVG Export Plug-In . SVG Version: 6.00 Build 0)  -->
<svg version="1.1" xmlns="http://www.w3.org/2000/svg" xmlns:xlink="http://www.w3.org/1999/xlink" x="0px" y="0px" width="24px"
	 height="24px" viewBox="0 0 24 24" enable-background="new 0 0 24 24" xml:space="preserve">
<g id="Filled_Icons">
	<g>
		<path d="M23,11h-1.927C20.609,6.763,17.237,3.391,13,2.927V1c0-0.553-0.447-1-1-1s-1,0.447-1,1v1.927
			C6.763,3.391,3.391,6.763,2.927,11H1c-0.553,0-1,0.447-1,1s0.447,1,1,1h1.927c0.464,4.237,3.836,7.609,8.073,8.073V23
			c0,0.553,0.447,1,1,1s1-0.447,1-1v-1.927c4.237-0.464,7.609-3.836,8.073-8.073H23c0.553,0,1-0.447,1-1S23.553,11,23,11z
			 M13,19.053v-0.791c0-0.553-0.447-1-1-1s-1,0.447-1,1v0.791C7.869,18.609,5.391,16.131,4.947,13h0.792c0.553,0,1-0.447,1-1
			s-0.447-1-1-1H4.947C5.391,7.869,7.869,5.391,11,4.947V5.74c0,0.553,0.447,1,1,1s1-0.447,1-1V4.947
			c3.131,0.443,5.609,2.922,6.053,6.053h-0.792c-0.553,0-1,0.447-1,1s0.447,1,1,1h0.792C18.609,16.131,16.131,18.609,13,19.053z"/>
		<path d="M13.964,8.481c-0.662,0-1.434,0.311-1.964,1.113c-0.53-0.803-1.302-1.113-1.965-1.113c-1.192,0-2.427,0.982-2.427,2.627
			c0,2.267,3.68,4.981,4.1,5.283c0.087,0.063,0.189,0.094,0.292,0.094s0.205-0.031,0.292-0.094c0.42-0.303,4.099-3.017,4.099-5.283
			C16.391,9.463,15.157,8.481,13.964,8.481z"/>
	</g>
</g>
<g id="invisible_shape">
	<rect fill="none" width="24" height="24"/>
</g>
</svg>
