<?xml version="1.0" encoding="utf-8"?>
<!-- Generator: Adobe Illustrator 19.2.0, SVG Export Plug-In . SVG Version: 6.00 Build 0)  -->
<svg version="1.1" xmlns="http://www.w3.org/2000/svg" xmlns:xlink="http://www.w3.org/1999/xlink" x="0px" y="0px" width="24px"
	 height="24px" viewBox="0 0 24 24" enable-background="new 0 0 24 24" xml:space="preserve">
<g id="Filled_Icons">
	<g>
		<path d="M23,22h-8.354c1.086-0.778,1.966-1.819,2.552-3.031C17.483,19.018,19.683,19,20,19c2.28,0,4-1.935,4-4.5S22.28,10,20,10
			h-2V9.5C18,9.224,17.776,9,17.5,9h-15C2.224,9,2,9.224,2,9.5v6c0,2.678,1.327,5.047,3.354,6.5H1c-0.553,0-1,0.447-1,1s0.447,1,1,1
			h22c0.553,0,1-0.447,1-1S23.553,22,23,22z M20,12c1.313,0,2,1.258,2,2.5c0,1.212-0.701,2.5-2,2.5h-2.146
			C17.947,16.514,18,16.013,18,15.5V12H20z"/>
		<path d="M9.708,7.207C9.795,7.269,9.898,7.301,10,7.301s0.205-0.031,0.292-0.094C10.672,6.934,14,4.477,14,2.414
			C14,0.903,12.864,0,11.768,0C11.174,0,10.486,0.271,10,0.963C9.515,0.271,8.827,0,8.233,0C7.136,0,6,0.903,6,2.414
			C6,4.477,9.328,6.934,9.708,7.207z"/>
	</g>
</g>
<g id="invisible_shape">
	<rect fill="none" width="24" height="24"/>
</g>
</svg>
