<?xml version="1.0" encoding="utf-8"?>
<!-- Generator: Adobe Illustrator 19.2.0, SVG Export Plug-In . SVG Version: 6.00 Build 0)  -->
<svg version="1.1" xmlns="http://www.w3.org/2000/svg" xmlns:xlink="http://www.w3.org/1999/xlink" x="0px" y="0px" width="24px"
	 height="24px" viewBox="0 0 24 24" enable-background="new 0 0 24 24" xml:space="preserve">
<g id="Filled_Icons">
	<path d="M21.63,4.539c-0.073-0.02-7.399-2.018-9.769-4.393c-0.188-0.188-0.535-0.188-0.725,0C8.769,2.522,1.443,4.519,1.37,4.539
		C1.151,4.598,1,4.796,1,5.022c0,8.569,0.761,15.405,10.326,18.947C11.383,23.989,11.441,24,11.5,24s0.117-0.011,0.174-0.031
		C21.239,20.427,22,13.591,22,5.022C22,4.796,21.849,4.598,21.63,4.539z M11.793,17.617c-0.087,0.063-0.189,0.094-0.292,0.094
		c-0.103,0-0.205-0.031-0.292-0.094C10.964,17.44,5.21,13.261,5.21,9.955c0-2.295,1.712-3.666,3.367-3.666
		c1.003,0,2.187,0.52,2.924,1.891c0.736-1.37,1.919-1.891,2.922-1.891c1.655,0,3.367,1.371,3.367,3.666
		C17.79,13.261,12.038,17.44,11.793,17.617z"/>
</g>
<g id="invisible_shape">
	<rect fill="none" width="24" height="24"/>
</g>
</svg>
