<?xml version="1.0" encoding="utf-8"?>
<!-- Generator: Adobe Illustrator 19.2.0, SVG Export Plug-In . SVG Version: 6.00 Build 0)  -->
<svg version="1.1" xmlns="http://www.w3.org/2000/svg" xmlns:xlink="http://www.w3.org/1999/xlink" x="0px" y="0px" width="24px"
	 height="24px" viewBox="0 0 24 24" enable-background="new 0 0 24 24" xml:space="preserve">
<g id="Filled_Icons">
	<g>
		<path d="M23.485,22.857l-0.625-4.533c-0.037-0.274-0.299-0.465-0.563-0.427c-0.274,0.037-0.465,0.29-0.427,0.563l0.428,3.109
			l-2.595-2.597c-0.232,0.249-0.463,0.489-0.696,0.718l2.604,2.604l-3.124-0.447c-0.277-0.033-0.526,0.15-0.566,0.424
			c-0.039,0.273,0.151,0.527,0.424,0.566l4.585,0.656C22.953,23.498,22.977,23.5,23,23.5c0.131,0,0.258-0.052,0.353-0.146
			c0,0,0.002-0.004,0.003-0.005c0.003-0.003,0.006-0.004,0.009-0.006C23.496,23.212,23.531,23.025,23.485,22.857z"/>
		<path d="M6.893,2.84C6.887,2.721,6.837,2.607,6.755,2.522L4.678,0.356c-0.136-0.142-0.34-0.191-0.522-0.128
			C3.971,0.291,3.84,0.454,3.819,0.647L3.719,1.576L7.003,4.86L6.893,2.84z"/>
		<path d="M0.669,3.798c-0.193,0.02-0.356,0.151-0.42,0.336C0.186,4.317,0.236,4.522,0.377,4.655l2.166,2.078
			c0.086,0.083,0.199,0.133,0.318,0.139l2.021,0.109L1.598,3.697L0.669,3.798z"/>
		<path d="M22.318,11.35c0-3.199-2.096-4.873-4.166-4.873c-1.458,0-3.056,0.84-3.894,2.675c-0.825-1.804-2.382-2.629-3.802-2.629
			c-0.502,0-1.004,0.109-1.481,0.311l0.093,0.093c0.586,0.586,0.586,1.535,0,2.121C8.775,9.34,8.392,9.486,8.008,9.486
			c-0.384,0-0.768-0.147-1.061-0.439L6.831,8.931c-0.386,0.772-0.634,1.711-0.634,2.845c0,6.199,7.514,10.106,7.833,10.27
			c0.072,0.036,0.149,0.055,0.227,0.055c0.092,0,0.184-0.025,0.265-0.075C14.841,21.825,22.318,17.101,22.318,11.35z"/>
		<path d="M7.654,8.34C7.752,8.438,7.88,8.486,8.008,8.486S8.264,8.438,8.361,8.34c0.195-0.195,0.195-0.512,0-0.707L2.859,2.131
			c-0.195-0.195-0.512-0.195-0.707,0c-0.195,0.195-0.195,0.512,0,0.707L7.654,8.34z"/>
	</g>
</g>
<g id="invisible_shape">
	<rect fill="none" width="24" height="24"/>
</g>
</svg>
