<?xml version="1.0" encoding="utf-8"?>
<!-- Generator: Adobe Illustrator 19.2.0, SVG Export Plug-In . SVG Version: 6.00 Build 0)  -->
<svg version="1.1" xmlns="http://www.w3.org/2000/svg" xmlns:xlink="http://www.w3.org/1999/xlink" x="0px" y="0px" width="24px"
	 height="24px" viewBox="0 0 24 24" enable-background="new 0 0 24 24" xml:space="preserve">
<g id="Filled_Icons">
	<path d="M21.74,5.207c-0.913-0.504-2.29-0.598-3.574,0.459c-0.14-1.255-0.771-1.956-1.205-2.297
		c-0.463-0.363-1.023-0.558-1.605-0.604c0.321,0.697,0.514,1.505,0.514,2.416c0,2.002-1.378,4.111-2.972,5.889
		c0.482,1.088,0.986,2.004,1.285,2.523c-0.923,0.573-2.831,2.113-2.831,5.044c0,1.291,0.133,2.299,0.304,3.077
		c-0.276-0.191-0.554-0.369-0.829-0.538c-1.67-1.025-3.113-1.926-3.012-6.873c0.782-0.58,7.055-5.343,7.055-9.121
		c0-2.711-2-4.33-3.934-4.33c-1.21,0-2.646,0.657-3.5,2.403c-0.854-1.746-2.29-2.403-3.5-2.403C2,0.852,0,2.471,0,5.182
		c0,3.514,5.426,7.879,6.817,8.941c-0.148,5.663,1.697,6.807,3.485,7.905c0.778,0.478,1.513,0.929,2.123,1.767
		c0.037,0.051,0.088,0.084,0.138,0.116c0.016,0.01,0.025,0.027,0.042,0.035C12.675,23.981,12.752,24,12.83,24
		c0.095,0,0.189-0.033,0.272-0.089c0.005-0.003,0.01-0.001,0.014-0.004l0,0c0.003-0.002,0.006-0.001,0.009-0.003
		c0.202-0.148,0.252-0.416,0.14-0.633c-0.01-0.019-0.013-0.041-0.025-0.06c-0.009-0.013-0.888-1.324-0.888-4.575
		c0-2.975,2.374-4.229,2.692-4.385c0.575-0.146,6.873-1.804,8.043-4.689C23.874,7.623,23.005,5.903,21.74,5.207z M4.076,3.941
		C3.414,4.273,3.019,4.976,3.019,5.82c0,0.123,0.015,0.25,0.045,0.389c0.058,0.27-0.114,0.536-0.384,0.595
		C2.644,6.811,2.608,6.814,2.573,6.814c-0.23,0-0.438-0.16-0.488-0.395C2.04,6.211,2.019,6.015,2.019,5.82
		c0-1.231,0.602-2.268,1.608-2.773C3.872,2.923,4.174,3.022,4.299,3.27C4.422,3.517,4.322,3.817,4.076,3.941z"/>
</g>
<g id="invisible_shape">
	<rect fill="none" width="24" height="24"/>
</g>
</svg>
