<?xml version="1.0" encoding="utf-8"?>
<!-- Generator: Adobe Illustrator 19.2.0, SVG Export Plug-In . SVG Version: 6.00 Build 0)  -->
<svg version="1.1" xmlns="http://www.w3.org/2000/svg" xmlns:xlink="http://www.w3.org/1999/xlink" x="0px" y="0px" width="24px"
	 height="24px" viewBox="0 0 24 24" enable-background="new 0 0 24 24" xml:space="preserve">
<g id="Filled_Icons">
	<g>
		<g>
			<path d="M23.896,2.61c0.001-0.667-0.261-1.296-0.735-1.771c-0.947-0.949-2.588-0.947-3.535,0L8.97,11.494
				c-0.782-0.32-1.632-0.488-2.478-0.488c-1.733,0-3.363,0.674-4.588,1.898c-2.533,2.534-2.533,6.659,0,9.193
				C3.131,23.325,4.763,24,6.499,24c1.736,0,3.368-0.675,4.597-1.902c1.855-1.858,2.402-4.657,1.41-7.068L23.16,4.375
				C23.633,3.902,23.894,3.275,23.896,2.61z M21.393,3.315L9.968,14.747c0.475,0.447,0.802,1.108,0.802,1.95
				c0,2.238-3.598,4.92-4.008,5.219c-0.088,0.063-0.19,0.096-0.294,0.096c-0.104,0-0.206-0.032-0.294-0.096
				c-0.41-0.299-4.008-2.981-4.008-5.219c0-1.627,1.211-2.599,2.383-2.599c0.647,0,1.399,0.304,1.919,1.087
				c0.52-0.783,1.272-1.087,1.92-1.087c0.232,0,0.465,0.049,0.691,0.123L20.685,2.607c0.195-0.195,0.512-0.195,0.707,0
				C21.588,2.803,21.588,3.119,21.393,3.315z"/>
		</g>
		<g>
			<path d="M21.947,9c-0.13,0-0.26-0.051-0.358-0.151l-0.672-0.689c-0.192-0.197-0.188-0.514,0.01-0.707
				c0.197-0.192,0.514-0.188,0.707,0.01l0.672,0.689c0.192,0.197,0.188,0.514-0.01,0.707C22.199,8.953,22.073,9,21.947,9z"/>
		</g>
		<g>
			<path d="M18.447,12.553c-0.128,0-0.256-0.049-0.354-0.146l-0.707-0.707c-0.195-0.195-0.195-0.512,0-0.707
				c0.195-0.195,0.512-0.195,0.707,0l0.707,0.707c0.195,0.195,0.195,0.512,0,0.707C18.703,12.504,18.575,12.553,18.447,12.553z"/>
		</g>
		<g>
			<path d="M14.912,16.088c-0.128,0-0.256-0.049-0.353-0.147l-0.708-0.707c-0.195-0.195-0.195-0.512,0-0.707
				c0.195-0.195,0.512-0.195,0.707,0l0.708,0.707c0.195,0.195,0.195,0.512,0,0.707C15.168,16.039,15.04,16.088,14.912,16.088z"/>
		</g>
	</g>
</g>
<g id="invisible_shape">
	<rect fill="none" width="24" height="24"/>
</g>
</svg>
