<?xml version="1.0" encoding="utf-8"?>
<!-- Generator: Adobe Illustrator 19.2.0, SVG Export Plug-In . SVG Version: 6.00 Build 0)  -->
<svg version="1.1" xmlns="http://www.w3.org/2000/svg" xmlns:xlink="http://www.w3.org/1999/xlink" x="0px" y="0px" width="24px"
	 height="24px" viewBox="0 0 24 24" enable-background="new 0 0 24 24" xml:space="preserve">
<g id="Filled_Icons">
	<g>
		<path d="M18.281,8.865c0.104,0,0.206-0.032,0.294-0.096c0.328-0.238,3.206-2.384,3.206-4.203c0-1.35-1.01-2.157-1.985-2.157
			c-0.506,0-1.088,0.221-1.515,0.781c-0.427-0.56-1.009-0.781-1.515-0.781c-0.976,0-1.985,0.808-1.985,2.157
			c0,1.819,2.878,3.965,3.206,4.203C18.075,8.833,18.178,8.865,18.281,8.865z"/>
		<path d="M12.117,4.834c0.017,0.001,0.032,0.002,0.049,0.002c0.197,0,0.378-0.116,0.458-0.3c0.172-0.393,0.999-2.411,0.391-3.449
			c-0.29-0.494-0.781-0.789-1.313-0.789c-0.438,0-0.835,0.197-1.09,0.541c-0.104,0.139-0.178,0.295-0.224,0.464
			C10.261,1.27,10.144,1.26,10.045,1.26c-0.485,0-0.922,0.256-1.168,0.686C8.609,2.412,8.624,2.989,8.916,3.489
			C9.525,4.527,11.689,4.791,12.117,4.834z"/>
		<path d="M23.84,12.54c-0.331-0.798-1.146-1.253-2.032-1.13c0.061-0.439-0.011-0.86-0.216-1.227
			c-0.598-1.065-2.257-1.248-3.229-0.275c-1.285,1.285-0.768,4.837-0.705,5.238c0.034,0.214,0.202,0.382,0.416,0.416
			c0.04,0.006,0.979,0.152,2.072,0.152c1.532,0,2.598-0.289,3.167-0.857C23.961,14.209,24.163,13.32,23.84,12.54z"/>
		<path d="M13.321,5.783l-9,3.451C4.128,9.309,4,9.494,4,9.701v2.967v6.582H2.794c-1.679,0-2.763,0.944-2.763,2.406
			C0.031,23.168,0.907,24,2.497,24C4.123,24,5,22.558,5,21.201v-8.199l8-3.319v5.567h-1.773c-1.548,0-2.807,1.274-2.807,2.842
			s1.253,2.842,2.793,2.842c1.484,0,2.786-1.308,2.786-2.799V6.25c0-0.165-0.081-0.318-0.217-0.412
			C13.648,5.745,13.475,5.724,13.321,5.783z"/>
	</g>
</g>
<g id="invisible_shape">
	<rect fill="none" width="24" height="24"/>
</g>
</svg>
