<?xml version="1.0" encoding="utf-8"?>
<!-- Generator: Adobe Illustrator 19.2.0, SVG Export Plug-In . SVG Version: 6.00 Build 0)  -->
<svg version="1.1" xmlns="http://www.w3.org/2000/svg" xmlns:xlink="http://www.w3.org/1999/xlink" x="0px" y="0px" width="24px"
	 height="24px" viewBox="0 0 24 24" enable-background="new 0 0 24 24" xml:space="preserve">
<g id="Filled_Icons">
	<g>
		<path d="M4.5,5h3C7.776,5,8,4.776,8,4.5v-4C8,0.224,7.776,0,7.5,0h-3C4.224,0,4,0.224,4,0.5v4C4,4.776,4.224,5,4.5,5z"/>
		<path d="M16.5,5h3C19.776,5,20,4.776,20,4.5v-4C20,0.224,19.776,0,19.5,0h-3C16.224,0,16,0.224,16,0.5v4C16,4.776,16.224,5,16.5,5
			z"/>
		<path d="M23.5,2H21v2.5C21,5.328,20.328,6,19.5,6h-3C15.672,6,15,5.328,15,4.5V2H9v2.5C9,5.328,8.328,6,7.5,6h-3
			C3.672,6,3,5.328,3,4.5V2H0.5C0.224,2,0,2.224,0,2.5V7h24V2.5C24,2.224,23.776,2,23.5,2z"/>
		<path d="M0,23.5C0,23.776,0.224,24,0.5,24h23c0.276,0,0.5-0.224,0.5-0.5V8H0V23.5z M9.419,12.019
			c0.85-0.107,1.905,0.219,2.581,1.318c0.676-1.1,1.731-1.424,2.581-1.318C15.783,12.164,17,13.211,17,14.93
			c0,2.554-4.229,5.635-4.71,5.977C12.203,20.969,12.102,21,12,21s-0.203-0.031-0.29-0.093C11.229,20.565,7,17.483,7,14.93
			C7,13.211,8.217,12.164,9.419,12.019z"/>
	</g>
</g>
<g id="invisible_shape">
	<rect fill="none" width="24" height="24"/>
</g>
</svg>
