<?xml version="1.0" encoding="utf-8"?>
<!-- Generator: Adobe Illustrator 19.2.0, SVG Export Plug-In . SVG Version: 6.00 Build 0)  -->
<svg version="1.1" xmlns="http://www.w3.org/2000/svg" xmlns:xlink="http://www.w3.org/1999/xlink" x="0px" y="0px" width="24px"
	 height="24px" viewBox="0 0 24 24" enable-background="new 0 0 24 24" xml:space="preserve">
<g id="Filled_Icons">
	<g>
		<path d="M3.115,19C3.045,19.828,3,20.161,3,20.5c0,0.168,0.013,0.334,0.03,0.5h17.94C20.987,20.835,21,20.668,21,20.5
			c0-0.339-0.045-0.672-0.115-1.5H3.115z"/>
		<path d="M3.695,22.875C4.156,23.579,4.94,24,5.792,24h12.416c0.852,0,1.636-0.42,2.097-1.125c0.182-0.278,0.328-0.57,0.438-0.875
			H3.256C3.367,22.305,3.513,22.598,3.695,22.875z"/>
		<path d="M23.715,2.977L23.715,2.977c-0.521-0.856-1.609-1.184-2.605-0.85c-0.139-1.155-1.038-2.05-2.123-2.05
			c-1.083,0-1.98,0.89-2.123,2.041C15.872,1.8,14.8,2.13,14.285,2.977c-0.63,1.041-0.186,2.514,1.098,3.153
			c-0.002,0.002-0.005,0.002-0.007,0.004C13.769,7.581,13.049,9.721,12.794,12h-1.587c-0.202-1.109-0.413-1.982-0.557-2.528
			c0.433-0.057,0.842-0.236,1.163-0.558c0.706-0.708,0.764-1.842,0.205-2.731c1.321-0.595,1.859-2.109,1.196-3.206
			c-0.516-0.848-1.591-1.175-2.578-0.858c-0.143-1.151-1.04-2.041-2.123-2.041c-1.085,0-1.984,0.895-2.123,2.05
			c-0.996-0.333-2.085-0.006-2.605,0.85v0.001C3.113,4.089,3.681,5.602,4.982,6.183c-0.559,0.89-0.502,2.024,0.205,2.732
			C6.111,9.84,7.675,9.607,8.5,8.621c0.288,0.337,0.654,0.581,1.081,0.731c0.11,0.396,0.358,1.345,0.6,2.648H7.5
			c-0.166,0-0.32,0.082-0.414,0.219c-0.093,0.138-0.111,0.312-0.051,0.466l0.814,2.049C5.728,15.527,4.175,16.896,3.454,18h17.092
			c-0.721-1.104-2.274-2.473-4.396-3.267l0.814-2.049c0.061-0.154,0.042-0.328-0.051-0.466C16.82,12.082,16.666,12,16.5,12h-2.7
			c0.181-1.521,0.585-2.952,1.354-4.092c0.078,0.374,0.252,0.725,0.533,1.007c0.391,0.391,0.91,0.583,1.448,0.583
			c0.733,0,1.429-0.356,1.864-0.877c0.88,1.026,2.417,1.185,3.313,0.293c0.706-0.708,0.764-1.842,0.204-2.731
			C23.822,5.602,24.386,4.087,23.715,2.977z M8.5,7.007c-1.097,0-1.988-0.892-1.988-1.988c0-1.096,0.892-1.987,1.988-1.987
			s1.988,0.892,1.988,1.987C10.488,6.115,9.597,7.007,8.5,7.007z M19,7.007c-1.097,0-1.988-0.892-1.988-1.988
			c0-1.096,0.892-1.987,1.988-1.987s1.988,0.892,1.988,1.987C20.988,6.115,20.097,7.007,19,7.007z"/>
	</g>
</g>
<g id="invisible_shape">
	<rect fill="none" width="24" height="24"/>
</g>
</svg>
