<?xml version="1.0" encoding="utf-8"?>
<!-- Generator: Adobe Illustrator 19.2.0, SVG Export Plug-In . SVG Version: 6.00 Build 0)  -->
<svg version="1.1" xmlns="http://www.w3.org/2000/svg" xmlns:xlink="http://www.w3.org/1999/xlink" x="0px" y="0px" width="24px"
	 height="24px" viewBox="0 0 24 24" enable-background="new 0 0 24 24" xml:space="preserve">
<g id="Filled_Icons">
	<g>
		<path d="M13.269,8.67C14.183,9.218,15,10.117,15,11.5v0.917c1.81-1.086,3-2.883,3-4.917c0-1.269-0.47-2.443-1.26-3.412
			c0.058,0.234,0.093,0.474,0.093,0.72C16.833,6.541,15.362,8.032,13.269,8.67z"/>
		<path d="M8.514,7.531c0.029-0.475,0.135-1.23,0.427-1.994C7.767,5.07,6.957,4.223,6.842,3.208c-0.418,0.473-0.675,1.015-0.675,1.6
			C6.167,5.965,7.113,6.971,8.514,7.531z"/>
		<path d="M9.898,5.81c-0.335,0.826-0.39,1.682-0.396,2.017C9.977,7.931,10.474,8,11,8c2.665,0,4.833-1.432,4.833-3.192
			c0-0.58-0.253-1.116-0.663-1.585c-0.184,1.531-1.936,2.7-4.163,2.7C10.618,5.923,10.252,5.876,9.898,5.81z"/>
		<path d="M11.007,4.923c0.441,0,0.714-0.485,0.714-0.936c0-0.265-0.092-0.502-0.257-0.669C11.257,3.11,10.924,3,10.5,3
			C10.224,3,10,2.776,10,2.5S10.224,2,10.5,2c0.88,0,1.396,0.334,1.674,0.614c0.353,0.355,0.547,0.843,0.547,1.373
			c0,0.22-0.038,0.44-0.104,0.65c0.939-0.346,1.589-0.972,1.589-1.676C14.206,1.898,12.741,1,11.007,1
			C9.273,1,7.808,1.898,7.808,2.962C7.808,4.024,9.273,4.923,11.007,4.923z"/>
		<path d="M16.862,16.843c-0.546,0.443-2.186,1.521-3.204,1.183c-0.585-0.193-1.174-0.118-1.658,0.153V13.43
			c0.705-0.089,1.378-0.263,2-0.517V11.5c0-2.051-2.62-2.502-2.646-2.507c-0.006-0.001-0.01-0.005-0.015-0.006
			C11.227,8.992,11.114,9,11,9C7.783,9,5.167,7.119,5.167,4.808c0-0.246,0.036-0.486,0.093-0.721C4.47,5.056,4,6.229,4,7.5
			c0,3.309,3.141,6,7,6v10c0,0.276,0.224,0.5,0.5,0.5s0.5-0.224,0.5-0.5v-1.998c0.453,0.318,0.979,0.476,1.521,0.476
			c0.723,0,1.466-0.249,2.069-0.657c1.266-0.855,1.993-3.652,2.072-3.969c0.052-0.209-0.035-0.428-0.217-0.543
			C17.265,16.692,17.029,16.707,16.862,16.843z"/>
	</g>
</g>
<g id="invisible_shape">
	<rect fill="none" width="24" height="24"/>
</g>
</svg>
