<?xml version="1.0" encoding="utf-8"?>
<!-- Generator: Adobe Illustrator 19.2.0, SVG Export Plug-In . SVG Version: 6.00 Build 0)  -->
<svg version="1.1" xmlns="http://www.w3.org/2000/svg" xmlns:xlink="http://www.w3.org/1999/xlink" x="0px" y="0px" width="24px"
	 height="24px" viewBox="0 0 24 24" enable-background="new 0 0 24 24" xml:space="preserve">
<g id="Filled_Icons">
	<g>
		<path d="M17.392,9.689C14.715,6.296,9.985,3,5.5,3C3.88,3,2.02,3.414,0,4.455v11.091C2.028,16.591,3.894,17,5.5,17
			c4.496,0,9.22-3.301,11.892-6.689C17.536,10.129,17.536,9.871,17.392,9.689z M5.5,14.5C3.019,14.5,1,12.481,1,10
			c0-2.481,2.019-4.5,4.5-4.5S10,7.519,10,10C10,12.481,7.981,14.5,5.5,14.5z"/>
		<g>
			<path d="M5.5,12.5C4.121,12.5,3,11.379,3,10c0-0.276,0.224-0.5,0.5-0.5S4,9.724,4,10c0,0.827,0.673,1.5,1.5,1.5S7,10.827,7,10
				S6.327,8.5,5.5,8.5C5.224,8.5,5,8.276,5,8c0-0.276,0.224-0.5,0.5-0.5C6.879,7.5,8,8.621,8,10S6.879,12.5,5.5,12.5z"/>
		</g>
		<path d="M17.382,14.266c-0.182-0.293-0.664-0.293-0.846,0c-0.301,0.477-2.931,4.709-2.931,6.381c0,1.85,1.504,3.354,3.353,3.354
			s3.354-1.504,3.354-3.354C20.313,18.975,17.683,14.742,17.382,14.266z"/>
	</g>
</g>
<g id="invisible_shape">
	<rect fill="none" width="24" height="24"/>
</g>
</svg>
