<?xml version="1.0" encoding="utf-8"?>
<!-- Generator: Adobe Illustrator 19.2.0, SVG Export Plug-In . SVG Version: 6.00 Build 0)  -->
<svg version="1.1" xmlns="http://www.w3.org/2000/svg" xmlns:xlink="http://www.w3.org/1999/xlink" x="0px" y="0px" width="24px"
	 height="24px" viewBox="0 0 24 24" enable-background="new 0 0 24 24" xml:space="preserve">
<g id="Filled_Icons">
	<g>
		<g>
			<g>
				<path d="M23.5,24h-23C0.224,24,0,23.776,0,23.5S0.224,23,0.5,23h23c0.276,0,0.5,0.224,0.5,0.5S23.776,24,23.5,24z"/>
			</g>
		</g>
		<path d="M20,17c-0.803,0-1.679-0.35-2.405-0.933c-0.808,0.74-1.855,1.183-2.845,1.183c-0.951,0-1.956-0.409-2.75-1.098
			c-0.794,0.688-1.799,1.098-2.75,1.098c-0.989,0-2.037-0.442-2.845-1.183C5.679,16.65,4.803,17,4,17c-1.042,0-2.197-0.602-3-1.525
			V19.5C1,20.879,2.121,22,3.5,22h17c1.379,0,2.5-1.121,2.5-2.5v-4.025C22.197,16.398,21.042,17,20,17z"/>
		<g>
			<path d="M22.5,10h-3.519c-0.026-3.075-0.359-5.936-2.862-6.012C17.165,3.925,18,3.062,18,2c0-1.102-0.897-2-2-2s-2,0.897-2,2
				c0,1.067,0.844,1.935,1.898,1.99c-2.516,0.093-2.852,2.944-2.88,6.01H10L9.999,7.231c0.015-0.104,0.18-0.423,0.301-0.656
				C10.611,5.971,11,5.22,11,4.5C11,4.224,10.776,4,10.5,4H8H5.5C5.224,4,5,4.224,5,4.5c0,0.72,0.389,1.471,0.7,2.074
				C5.821,6.808,5.986,7.127,6,7.215V10H1.5C1.224,10,1,10.224,1,10.5V13c0,1.74,1.792,3,3,3c0.794,0,1.841-0.545,2.465-1.412
				c0.62,1.001,1.76,1.662,2.785,1.662c1.007,0,2.123-0.637,2.75-1.607c0.627,0.971,1.743,1.607,2.75,1.607
				c1.025,0,2.165-0.661,2.785-1.662C18.159,15.455,19.206,16,20,16c1.208,0,3-1.26,3-3v-2.5C23,10.224,22.776,10,22.5,10z"/>
			<circle cx="8" cy="2" r="2"/>
		</g>
	</g>
</g>
<g id="invisible_shape">
	<rect fill="none" width="24" height="24"/>
</g>
</svg>
