<?xml version="1.0" encoding="utf-8"?>
<!-- Generator: Adobe Illustrator 19.2.0, SVG Export Plug-In . SVG Version: 6.00 Build 0)  -->
<svg version="1.1" xmlns="http://www.w3.org/2000/svg" xmlns:xlink="http://www.w3.org/1999/xlink" x="0px" y="0px" width="24px"
	 height="24px" viewBox="0 0 24 24" enable-background="new 0 0 24 24" xml:space="preserve">
<g id="Filled_Icons">
	<g>
		<g>
			<path d="M14.476,2.386c-0.519,0-0.999,0.207-1.35,0.584c-0.15,0.161-0.311,0.391-0.423,0.706c-0.439-0.308-0.86-0.37-1.13-0.37
				c-0.588,0-1.152,0.292-1.511,0.782c-0.399,0.546-0.502,1.261-0.279,1.96c0.552,1.731,3.943,2.906,4.328,3.034
				c0.22,0.07,0.438-0.012,0.561-0.179c0.241-0.326,2.334-3.243,1.783-4.977C16.157,2.99,15.38,2.386,14.476,2.386z"/>
			<path d="M6.875,2.16c-0.327,0-0.696,0.121-0.994,0.421C5.583,2.281,5.214,2.16,4.888,2.16c-0.726,0-1.476,0.594-1.476,1.588
				c0,1.252,1.811,2.633,2.175,2.896C5.675,6.708,5.777,6.74,5.881,6.74c0.103,0,0.206-0.032,0.294-0.096
				C6.538,6.381,8.35,5,8.35,3.748C8.35,2.754,7.6,2.16,6.875,2.16z"/>
			<path d="M23.822,2.933c-0.287-0.693-0.983-1.102-1.743-1.027c0.034-0.363-0.033-0.711-0.204-1.017
				c-0.538-0.959-2.027-1.127-2.9-0.254c-1.136,1.136-0.684,4.239-0.629,4.59c0.034,0.214,0.202,0.382,0.416,0.416
				c0.034,0.005,0.852,0.133,1.803,0.133c1.345,0,2.282-0.257,2.787-0.762C23.933,4.431,24.113,3.634,23.822,2.933z"/>
		</g>
		<path d="M22.729,21c-1.631,0-2.889-0.396-3.639-1.146c-0.195-0.195-0.195-0.512,0-0.707c0.195-0.195,0.512-0.195,0.707,0
			C20.348,19.697,21.389,20,22.729,20h0.784c0.274-0.702,0.431-1.463,0.431-2.26v-1.434c0-3.438-2.808-6.236-6.259-6.236
			c-4.428,0-6.066,3.31-7.381,5.969c-1.028,2.079-1.726,3.353-3.028,3.353c-0.677,0-1.196-0.198-1.587-0.605
			c-0.624-0.649-0.759-1.67-0.786-2.167c0.619-0.319,1.941-1.143,2.1-2.419c0.04-0.32-0.101-0.632-0.368-0.815
			c-0.261-0.179-0.615-0.196-0.896-0.043c-1.588,0.869-3.052,0.896-4.442,0.066c-0.277-0.164-0.643-0.154-0.914,0.026
			c-0.275,0.184-0.422,0.514-0.373,0.839c0.201,1.397,1.432,2.103,2.071,2.381c-0.048,1.074-0.023,4.108,1.628,5.932
			C4.557,23.524,5.698,24,7.101,24h10.561c2.265,0,4.247-1.204,5.353-3H22.729z M19,14.5c0-0.276,0.224-0.5,0.5-0.5
			s0.5,0.224,0.5,0.5V15c0,0.276-0.224,0.5-0.5,0.5S19,15.276,19,15V14.5z"/>
	</g>
</g>
<g id="invisible_shape">
	<rect fill="none" width="24" height="24"/>
</g>
</svg>
