<?xml version="1.0" encoding="utf-8"?>
<!-- Generator: Adobe Illustrator 16.0.3, SVG Export Plug-In . SVG Version: 6.00 Build 0)  -->
<!DOCTYPE svg PUBLIC "-//W3C//DTD SVG 1.1//EN" "http://www.w3.org/Graphics/SVG/1.1/DTD/svg11.dtd">
<svg version="1.1" xmlns="http://www.w3.org/2000/svg" xmlns:xlink="http://www.w3.org/1999/xlink" x="0px" y="0px" width="24px"
	 height="24px" viewBox="0 0 24 24" enable-background="new 0 0 24 24" xml:space="preserve">
<g id="Outline_Icons_1_">
	<g id="Outline_Icons">
		<g>
			<g>
				<path fill="none" stroke="#000000" stroke-linecap="round" stroke-linejoin="round" stroke-miterlimit="10" d="M15.5,14.5v7
					c0,1.104-0.896,2-2,2h-7c-1.104,0-2-0.896-2-2v-15c0-1.104,0.896-2,2-2h3"/>
				
					<line fill="none" stroke="#000000" stroke-linecap="round" stroke-linejoin="round" stroke-miterlimit="10" x1="9.5" y1="8.5" x2="4.5" y2="8.5"/>
				
					<line fill="none" stroke="#000000" stroke-linecap="round" stroke-linejoin="round" stroke-miterlimit="10" x1="15.5" y1="19.5" x2="4.5" y2="19.5"/>
				
					<line fill="none" stroke="#000000" stroke-linecap="round" stroke-linejoin="round" stroke-miterlimit="10" x1="8.5" y1="6.5" x2="9.5" y2="6.5"/>
				<path fill="none" stroke="#000000" stroke-linejoin="round" stroke-miterlimit="10" d="M10.5,21.5c0,0.276-0.224,0.5-0.5,0.5
					l0,0c-0.276,0-0.5-0.224-0.5-0.5l0,0c0-0.276,0.224-0.5,0.5-0.5l0,0C10.276,21,10.5,21.224,10.5,21.5L10.5,21.5z"/>
			</g>
			<path fill="none" stroke="#000000" stroke-linejoin="round" stroke-miterlimit="10" d="M14.5,10.996c0,0.75-0.672,1.5-1.5,1.5
				s-1.5-0.672-1.5-1.5c0-0.829,0.672-1.5,1.5-1.5c0.273,0,1.25,0,1.5,0C14.5,9.996,14.5,10.44,14.5,10.996z"/>
			<path fill="none" stroke="#000000" stroke-linejoin="round" stroke-miterlimit="10" d="M20.5,7.977c0,0.75-0.672,1.5-1.5,1.5
				s-1.5-0.672-1.5-1.5s0.672-1.5,1.5-1.5c0.273,0,1.25,0,1.5,0C20.5,6.977,20.5,7.477,20.5,7.977z"/>
			<polyline fill="none" stroke="#000000" stroke-linejoin="round" stroke-miterlimit="10" points="14.5,9.983 14.5,3.279 20.5,0.5 
				20.5,6.983 			"/>
		</g>
	</g>
	<g id="New_icons_1_">
	</g>
</g>
<g id="Invisible_Shape">
	<rect fill="none" width="24" height="24"/>
</g>
</svg>
