<?xml version="1.0" encoding="utf-8"?>
<!-- Generator: Adobe Illustrator 16.0.3, SVG Export Plug-In . SVG Version: 6.00 Build 0)  -->
<!DOCTYPE svg PUBLIC "-//W3C//DTD SVG 1.1//EN" "http://www.w3.org/Graphics/SVG/1.1/DTD/svg11.dtd">
<svg version="1.1" xmlns="http://www.w3.org/2000/svg" xmlns:xlink="http://www.w3.org/1999/xlink" x="0px" y="0px" width="24px"
	 height="24px" viewBox="0 0 24 24" enable-background="new 0 0 24 24" xml:space="preserve">
<g id="Outline_Icons_1_">
	<g id="Outline_Icons">
	</g>
	<g id="New_icons_1_">
		<g>
			<g>
				<path fill="none" stroke="#000000" stroke-linecap="round" stroke-linejoin="round" stroke-miterlimit="10" d="M14.5,14.5v7
					c0,1.104-0.896,2-2,2h-7c-1.104,0-2-0.896-2-2v-15c0-1.105,0.896-2,2-2h3"/>
				
					<line fill="none" stroke="#000000" stroke-linecap="round" stroke-linejoin="round" stroke-miterlimit="10" x1="8.5" y1="8.5" x2="3.5" y2="8.5"/>
				
					<line fill="none" stroke="#000000" stroke-linecap="round" stroke-linejoin="round" stroke-miterlimit="10" x1="14.5" y1="19.5" x2="3.5" y2="19.5"/>
				
					<line fill="none" stroke="#000000" stroke-linecap="round" stroke-linejoin="round" stroke-miterlimit="10" x1="7.5" y1="6.5" x2="8.5" y2="6.5"/>
				<path fill="none" stroke="#000000" stroke-linejoin="round" stroke-miterlimit="10" d="M9.5,21.5C9.5,21.775,9.276,22,9,22l0,0
					c-0.276,0-0.5-0.225-0.5-0.5l0,0C8.5,21.223,8.724,21,9,21l0,0C9.276,21,9.5,21.223,9.5,21.5L9.5,21.5z"/>
			</g>
			<path fill="none" stroke="#000000" stroke-linecap="round" stroke-linejoin="round" stroke-miterlimit="10" d="M20.5,9.33V6.5
				c0-1.75-0.863-3.367-2.382-4c0-0.895-0.726-1.5-1.618-1.5c-0.895,0-1.618,0.605-1.618,1.5c-1.521,0.633-2.382,2.25-2.382,4v2.83
				c0,0.715-0.785,1.17-1.5,1.17h11C21.285,10.5,20.5,10.045,20.5,9.33z"/>
			<path fill="none" stroke="#000000" stroke-linecap="round" stroke-linejoin="round" stroke-miterlimit="10" d="M18.5,10.5
				c0,1.104-0.896,2-2,2s-2-0.896-2-2"/>
		</g>
	</g>
</g>
<g id="Invisible_Shape">
	<rect fill="none" width="24" height="24"/>
</g>
</svg>
