<?xml version="1.0" encoding="utf-8"?>
<!-- Generator: Adobe Illustrator 16.0.3, SVG Export Plug-In . SVG Version: 6.00 Build 0)  -->
<!DOCTYPE svg PUBLIC "-//W3C//DTD SVG 1.1//EN" "http://www.w3.org/Graphics/SVG/1.1/DTD/svg11.dtd">
<svg version="1.1" xmlns="http://www.w3.org/2000/svg" xmlns:xlink="http://www.w3.org/1999/xlink" x="0px" y="0px" width="24px"
	 height="24px" viewBox="0 0 24 24" enable-background="new 0 0 24 24" xml:space="preserve">
<g id="Outline_Icons_1_">
	<g id="Outline_Icons">
	</g>
	<g id="New_icons_1_">
		<g>
			<g>
				<path fill="none" stroke="#000000" stroke-linejoin="round" stroke-miterlimit="10" d="M15.397,15.117l1-1.732l-1-0.577
					c0.137-0.579,0.136-1.038,0-1.614l0.999-0.576l-1-1.732l-0.999,0.576C14.006,9.092,13.529,8.821,13,8.662V7.5h-2v1.162
					c-0.529,0.159-1.006,0.43-1.397,0.799L8.604,8.885l-1,1.732l0.999,0.576c-0.136,0.576-0.137,1.035,0,1.614l-1,0.577l1,1.732
					l1-0.578c0.392,0.369,0.869,0.64,1.397,0.799V16.5h2v-1.162c0.528-0.159,1.006-0.43,1.397-0.799L15.397,15.117z"/>
				<circle fill="none" stroke="#000000" stroke-linejoin="round" stroke-miterlimit="10" cx="12" cy="12" r="1.5"/>
			</g>
			<g>
				<path fill="none" stroke="#000000" stroke-linecap="round" stroke-linejoin="round" stroke-miterlimit="10" d="M18.5,21.5
					c0,1.104-0.896,2-2,2h-9c-1.104,0-2-0.896-2-2v-19c0-1.105,0.896-2,2-2h9c1.104,0,2,0.895,2,2V21.5z"/>
				
					<line fill="none" stroke="#000000" stroke-linecap="round" stroke-linejoin="round" stroke-miterlimit="10" x1="18.5" y1="4.5" x2="5.5" y2="4.5"/>
				
					<line fill="none" stroke="#000000" stroke-linecap="round" stroke-linejoin="round" stroke-miterlimit="10" x1="18.5" y1="19.5" x2="5.5" y2="19.5"/>
				
					<line fill="none" stroke="#000000" stroke-linecap="round" stroke-linejoin="round" stroke-miterlimit="10" x1="9.5" y1="2.5" x2="14.5" y2="2.5"/>
				<path fill="none" stroke="#000000" stroke-linejoin="round" stroke-miterlimit="10" d="M12.5,21.5c0,0.277-0.224,0.5-0.5,0.5
					l0,0c-0.276,0-0.5-0.223-0.5-0.5l0,0c0-0.275,0.224-0.5,0.5-0.5l0,0C12.276,21,12.5,21.225,12.5,21.5L12.5,21.5z"/>
			</g>
		</g>
	</g>
</g>
<g id="Invisible_Shape">
	<rect fill="none" width="24" height="24"/>
</g>
</svg>
