<?xml version="1.0" encoding="utf-8"?>
<!-- Generator: Adobe Illustrator 16.0.3, SVG Export Plug-In . SVG Version: 6.00 Build 0)  -->
<!DOCTYPE svg PUBLIC "-//W3C//DTD SVG 1.1//EN" "http://www.w3.org/Graphics/SVG/1.1/DTD/svg11.dtd">
<svg version="1.1" xmlns="http://www.w3.org/2000/svg" xmlns:xlink="http://www.w3.org/1999/xlink" x="0px" y="0px" width="24px"
	 height="24px" viewBox="0 0 24 24" enable-background="new 0 0 24 24" xml:space="preserve">
<g id="Outline_Icons_1_">
	<g id="Outline_Icons">
		<g>
			<path fill="none" stroke="#000000" stroke-linecap="round" stroke-linejoin="round" stroke-miterlimit="10" d="M17.5,16.5
				c0,0.55-0.45,1-1,1h-9c-0.55,0-1-0.45-1-1v-11c0-0.55,0.45-1,1-1h9c0.55,0,1,0.45,1,1V16.5z"/>
			<path fill="none" stroke="#000000" stroke-linecap="round" stroke-linejoin="round" stroke-miterlimit="10" d="M19.5,20.5
				c0,1.65-1.35,3-3,3h-9c-1.65,0-3-1.35-3-3v-17c0-1.649,1.35-3,3-3h9c1.65,0,3,1.351,3,3V20.5z"/>
			
				<line fill="none" stroke="#000000" stroke-linecap="round" stroke-linejoin="round" stroke-miterlimit="10" x1="9.5" y1="2.5" x2="14.5" y2="2.5"/>
			<g>
				<g>
					<g>
						<polygon points="9,20 8,20 8,21 9,21 9,20 						"/>
					</g>
				</g>
			</g>
			<g>
				<g>
					<g>
						<polygon points="16,20 15,20 15,21 16,21 16,20 						"/>
					</g>
				</g>
			</g>
			
				<rect x="10.5" y="19.5" fill="none" stroke="#000000" stroke-linecap="round" stroke-linejoin="round" stroke-miterlimit="10" width="3" height="2"/>
		</g>
	</g>
	<g id="New_icons_1_">
	</g>
</g>
<g id="Invisible_Shape">
	<rect fill="none" width="24" height="24"/>
</g>
</svg>
