<?xml version="1.0" encoding="utf-8"?>
<!-- Generator: Adobe Illustrator 16.0.3, SVG Export Plug-In . SVG Version: 6.00 Build 0)  -->
<!DOCTYPE svg PUBLIC "-//W3C//DTD SVG 1.1//EN" "http://www.w3.org/Graphics/SVG/1.1/DTD/svg11.dtd">
<svg version="1.1" xmlns="http://www.w3.org/2000/svg" xmlns:xlink="http://www.w3.org/1999/xlink" x="0px" y="0px" width="24px"
	 height="24px" viewBox="0 0 24 24" enable-background="new 0 0 24 24" xml:space="preserve">
<g id="Outline_Icons_1_">
	<g id="Outline_Icons">
		<g>
			<path fill="none" stroke="#000000" stroke-linecap="round" stroke-linejoin="round" stroke-miterlimit="10" d="M18.5,20.5
				c0,1.656-1.344,3-3,3h-8c-1.657,0-3-1.344-3-3v-16c0-2.209,1.791-4,4-4h6c2.209,0,4,1.791,4,4V20.5z"/>
			
				<rect x="6.5" y="4.5" fill="none" stroke="#000000" stroke-linecap="round" stroke-linejoin="round" stroke-miterlimit="10" width="10" height="9"/>
			
				<line fill="none" stroke="#000000" stroke-linecap="round" stroke-linejoin="round" stroke-miterlimit="10" x1="9.5" y1="2.5" x2="13.5" y2="2.5"/>
			<g>
				<g>
					<g>
						<polygon points="9,16 8,16 8,17 9,17 9,16 						"/>
					</g>
				</g>
			</g>
			<g>
				<g>
					<g>
						<polygon points="12,16 11,16 11,17 12,17 12,16 						"/>
					</g>
				</g>
			</g>
			<g>
				<g>
					<g>
						<polygon points="15,16 14,16 14,17 15,17 15,16 						"/>
					</g>
				</g>
			</g>
			<g>
				<g>
					<g>
						<polygon points="9,18 8,18 8,19 9,19 9,18 						"/>
					</g>
				</g>
			</g>
			<g>
				<g>
					<g>
						<polygon points="12,18 11,18 11,19 12,19 12,18 						"/>
					</g>
				</g>
			</g>
			<g>
				<g>
					<g>
						<polygon points="15,18 14,18 14,19 15,19 15,18 						"/>
					</g>
				</g>
			</g>
			<g>
				<g>
					<g>
						<polygon points="9,20 8,20 8,21 9,21 9,20 						"/>
					</g>
				</g>
			</g>
			<g>
				<g>
					<g>
						<polygon points="12,20 11,20 11,21 12,21 12,20 						"/>
					</g>
				</g>
			</g>
			<g>
				<g>
					<g>
						<polygon points="15,20 14,20 14,21 15,21 15,20 						"/>
					</g>
				</g>
			</g>
		</g>
	</g>
	<g id="New_icons_1_">
	</g>
</g>
<g id="Invisible_Shape">
	<rect fill="none" width="24" height="24"/>
</g>
</svg>
