<?xml version="1.0" encoding="utf-8"?>
<!-- Generator: Adobe Illustrator 16.0.3, SVG Export Plug-In . SVG Version: 6.00 Build 0)  -->
<!DOCTYPE svg PUBLIC "-//W3C//DTD SVG 1.1//EN" "http://www.w3.org/Graphics/SVG/1.1/DTD/svg11.dtd">
<svg version="1.1" xmlns="http://www.w3.org/2000/svg" xmlns:xlink="http://www.w3.org/1999/xlink" x="0px" y="0px" width="24px"
	 height="24px" viewBox="0 0 24 24" enable-background="new 0 0 24 24" xml:space="preserve">
<g id="Outline_Icons_1_">
	<g id="Outline_Icons">
		<g>
			
				<rect x="4.5" y="4.5" fill="none" stroke="#000000" stroke-linecap="round" stroke-linejoin="round" stroke-miterlimit="10" width="14" height="9"/>
			
				<line fill="none" stroke="#000000" stroke-linecap="round" stroke-linejoin="round" stroke-miterlimit="10" x1="9" y1="2.5" x2="14" y2="2.5"/>
			<g>
				<g>
					<g>
						<polygon points="7,16 6,16 6,17 7,17 7,16 						"/>
					</g>
				</g>
			</g>
			<g>
				<g>
					<g>
						<polygon points="9,16 8,16 8,17 9,17 9,16 						"/>
					</g>
				</g>
			</g>
			<g>
				<g>
					<g>
						<polygon points="11,16 10,16 10,17 11,17 11,16 						"/>
					</g>
				</g>
			</g>
			<g>
				<g>
					<g>
						<polygon points="7,18 6,18 6,19 7,19 7,18 						"/>
					</g>
				</g>
			</g>
			<g>
				<g>
					<g>
						<polygon points="9,18 8,18 8,19 9,19 9,18 						"/>
					</g>
				</g>
			</g>
			<g>
				<g>
					<g>
						<polygon points="11,18 10,18 10,19 11,19 11,18 						"/>
					</g>
				</g>
			</g>
			<g>
				<g>
					<g>
						<polygon points="7,20 6,20 6,21 7,21 7,20 						"/>
					</g>
				</g>
			</g>
			<g>
				<g>
					<g>
						<polygon points="9,20 8,20 8,21 9,21 9,20 						"/>
					</g>
				</g>
			</g>
			<g>
				<g>
					<g>
						<polygon points="11,20 10,20 10,21 11,21 11,20 						"/>
					</g>
				</g>
			</g>
			<g>
				<g>
					<g>
						<polygon points="13,16 12,16 12,17 13,17 13,16 						"/>
					</g>
				</g>
			</g>
			<g>
				<g>
					<g>
						<polygon points="13,18 12,18 12,19 13,19 13,18 						"/>
					</g>
				</g>
			</g>
			<g>
				<g>
					<g>
						<polygon points="13,20 12,20 12,21 13,21 13,20 						"/>
					</g>
				</g>
			</g>
			<g>
				<g>
					<g>
						<polygon points="15,16 14,16 14,17 15,17 15,16 						"/>
					</g>
				</g>
			</g>
			<g>
				<g>
					<g>
						<polygon points="15,18 14,18 14,19 15,19 15,18 						"/>
					</g>
				</g>
			</g>
			<g>
				<g>
					<g>
						<polygon points="15,20 14,20 14,21 15,21 15,20 						"/>
					</g>
				</g>
			</g>
			<g>
				<g>
					<g>
						<polygon points="17,16 16,16 16,17 17,17 17,16 						"/>
					</g>
				</g>
			</g>
			<g>
				<g>
					<g>
						<polygon points="17,18 16,18 16,19 17,19 17,18 						"/>
					</g>
				</g>
			</g>
			<g>
				<g>
					<g>
						<polygon points="17,20 16,20 16,21 17,21 17,20 						"/>
					</g>
				</g>
			</g>
			<path fill="none" stroke="#000000" stroke-linecap="round" stroke-linejoin="round" stroke-miterlimit="10" d="M20.5,20.5
				c0,1.65-1.35,3-3,3h-12c-1.65,0-3-1.35-3-3V2c0-0.825,0.675-1.5,1.5-1.5h15c0.825,0,1.5,0.675,1.5,1.5V20.5z"/>
		</g>
	</g>
	<g id="New_icons_1_">
	</g>
</g>
<g id="Invisible_Shape">
	<rect fill="none" width="24" height="24"/>
</g>
</svg>
