<?xml version="1.0" encoding="utf-8"?>
<!-- Generator: Adobe Illustrator 16.0.3, SVG Export Plug-In . SVG Version: 6.00 Build 0)  -->
<!DOCTYPE svg PUBLIC "-//W3C//DTD SVG 1.1//EN" "http://www.w3.org/Graphics/SVG/1.1/DTD/svg11.dtd">
<svg version="1.1" xmlns="http://www.w3.org/2000/svg" xmlns:xlink="http://www.w3.org/1999/xlink" x="0px" y="0px" width="24px"
	 height="24px" viewBox="0 0 24 24" enable-background="new 0 0 24 24" xml:space="preserve">
<g id="Outline_Icons_1_">
	<g id="Outline_Icons">
		<g>
			<path fill="none" stroke="#000000" stroke-linecap="round" stroke-linejoin="round" stroke-miterlimit="10" d="M11.5,14.5v7
				c0,1.104-0.896,2-2,2h-7c-1.104,0-2-0.896-2-2v-15c0-1.104,0.896-2,2-2h3"/>
			
				<line fill="none" stroke="#000000" stroke-linecap="round" stroke-linejoin="round" stroke-miterlimit="10" x1="5.5" y1="8.5" x2="0.5" y2="8.5"/>
			
				<line fill="none" stroke="#000000" stroke-linecap="round" stroke-linejoin="round" stroke-miterlimit="10" x1="11.5" y1="19.5" x2="0.5" y2="19.5"/>
			
				<line fill="none" stroke="#000000" stroke-linecap="round" stroke-linejoin="round" stroke-miterlimit="10" x1="4.5" y1="6.5" x2="5.5" y2="6.5"/>
			<path fill="none" stroke="#000000" stroke-linecap="round" stroke-linejoin="round" stroke-miterlimit="10" d="M23.5,8
				c0,0.828-0.672,1.5-1.5,1.5h-5.5l-3,3v-3H10C9.172,9.5,8.5,8.828,8.5,8V2c0-0.828,0.672-1.5,1.5-1.5h12
				c0.828,0,1.5,0.672,1.5,1.5V8z"/>
			<g>
				<g>
					<g>
						<path d="M16.5,4C16.224,4,16,4.225,16,4.5C16,4.776,16.224,5,16.5,5S17,4.776,17,4.5C17,4.225,16.776,4,16.5,4L16.5,4z"/>
					</g>
				</g>
			</g>
			<g>
				<g>
					<g>
						<path d="M19.5,4C19.224,4,19,4.225,19,4.5C19,4.776,19.224,5,19.5,5S20,4.776,20,4.5C20,4.225,19.776,4,19.5,4L19.5,4z"/>
					</g>
				</g>
			</g>
			<g>
				<g>
					<g>
						<path d="M13.531,4c-0.276,0-0.5,0.225-0.5,0.5c0,0.276,0.224,0.5,0.5,0.5s0.5-0.224,0.5-0.5C14.031,4.225,13.808,4,13.531,4
							L13.531,4z"/>
					</g>
				</g>
			</g>
			<path fill="none" stroke="#000000" stroke-linejoin="round" stroke-miterlimit="10" d="M6.5,21.5C6.5,21.776,6.276,22,6,22l0,0
				c-0.276,0-0.5-0.224-0.5-0.5l0,0C5.5,21.224,5.724,21,6,21l0,0C6.276,21,6.5,21.224,6.5,21.5L6.5,21.5z"/>
		</g>
	</g>
	<g id="New_icons_1_">
	</g>
</g>
<g id="Invisible_Shape">
	<rect fill="none" width="24" height="24"/>
</g>
</svg>
