<?xml version="1.0" encoding="utf-8"?>
<!-- Generator: Adobe Illustrator 16.0.3, SVG Export Plug-In . SVG Version: 6.00 Build 0)  -->
<!DOCTYPE svg PUBLIC "-//W3C//DTD SVG 1.1//EN" "http://www.w3.org/Graphics/SVG/1.1/DTD/svg11.dtd">
<svg version="1.1" xmlns="http://www.w3.org/2000/svg" xmlns:xlink="http://www.w3.org/1999/xlink" x="0px" y="0px" width="24px"
	 height="24px" viewBox="0 0 24 24" enable-background="new 0 0 24 24" xml:space="preserve">
<g id="Outline_Icons_1_">
	<g id="Outline_Icons">
		<g>
			<g>
				<path fill="none" stroke="#000000" stroke-linecap="round" stroke-linejoin="round" stroke-miterlimit="10" d="M9.93,14.175
					c0,1.144,0.926,2.07,2.07,2.07c1.143,0,2.068-0.927,2.068-2.07c0-1.143-0.926-2.07-2.068-2.07c-1.145,0-2.07-0.927-2.07-2.07
					c0-1.143,0.926-2.07,2.07-2.07c1.143,0,2.068,0.928,2.068,2.07"/>
				
					<line fill="none" stroke="#000000" stroke-linecap="round" stroke-linejoin="round" stroke-miterlimit="10" x1="12" y1="16.245" x2="12" y2="17.625"/>
				
					<line fill="none" stroke="#000000" stroke-linecap="round" stroke-linejoin="round" stroke-miterlimit="10" x1="12" y1="6.583" x2="12" y2="7.964"/>
			</g>
			<g>
				<path fill="none" stroke="#000000" stroke-linecap="round" stroke-linejoin="round" stroke-miterlimit="10" d="M18.5,21.5
					c0,1.104-0.896,2-2,2h-9c-1.105,0-2-0.896-2-2v-19c0-1.104,0.895-2,2-2h9c1.104,0,2,0.896,2,2V21.5z"/>
				
					<line fill="none" stroke="#000000" stroke-linecap="round" stroke-linejoin="round" stroke-miterlimit="10" x1="18.5" y1="4.5" x2="5.5" y2="4.5"/>
				
					<line fill="none" stroke="#000000" stroke-linecap="round" stroke-linejoin="round" stroke-miterlimit="10" x1="18.5" y1="19.5" x2="5.5" y2="19.5"/>
				
					<line fill="none" stroke="#000000" stroke-linecap="round" stroke-linejoin="round" stroke-miterlimit="10" x1="9.5" y1="2.5" x2="14.5" y2="2.5"/>
				<path fill="none" stroke="#000000" stroke-linejoin="round" stroke-miterlimit="10" d="M12.5,21.5c0,0.276-0.224,0.5-0.5,0.5
					l0,0c-0.276,0-0.5-0.224-0.5-0.5l0,0c0-0.276,0.224-0.5,0.5-0.5l0,0C12.276,21,12.5,21.224,12.5,21.5L12.5,21.5z"/>
			</g>
		</g>
	</g>
	<g id="New_icons_1_">
	</g>
</g>
<g id="Invisible_Shape">
	<rect fill="none" width="24" height="24"/>
</g>
</svg>
