<?xml version="1.0" encoding="utf-8"?>
<!-- Generator: Adobe Illustrator 16.0.3, SVG Export Plug-In . SVG Version: 6.00 Build 0)  -->
<!DOCTYPE svg PUBLIC "-//W3C//DTD SVG 1.1//EN" "http://www.w3.org/Graphics/SVG/1.1/DTD/svg11.dtd">
<svg version="1.1" xmlns="http://www.w3.org/2000/svg" xmlns:xlink="http://www.w3.org/1999/xlink" x="0px" y="0px" width="24px"
	 height="24px" viewBox="0 0 24 24" enable-background="new 0 0 24 24" xml:space="preserve">
<g id="Outline_Icons_1_">
	<g id="Outline_Icons">
	</g>
	<g id="New_icons_1_">
		<g>
			<path fill="none" stroke="#000000" stroke-linecap="round" stroke-linejoin="round" stroke-miterlimit="10" d="M17.5,16.5v-1
				c0-1.105-0.896-2-2-2h-1c-1.104,0-2,0.895-2,2v5c0,1.104,0.896,2,2,2h1c1.104,0,2-0.896,2-2v-2.001h-3"/>
			<path fill="none" stroke="#000000" stroke-linecap="round" stroke-linejoin="round" stroke-miterlimit="10" d="M9,13.5
				l-4.5,0.001V17.5l2.42-0.002c1.771,0,2.08,1.539,2.08,2.395C9,20.747,8.691,22.5,6.92,22.5H4.5"/>
			<path fill="none" stroke="#000000" stroke-linecap="round" stroke-linejoin="round" stroke-miterlimit="10" d="M5.874,10.02
				C7.062,8.486,8.922,7.5,11.015,7.5c2.09,0,3.95,0.986,5.139,2.52"/>
			<path fill="none" stroke="#000000" stroke-linecap="round" stroke-linejoin="round" stroke-miterlimit="10" d="M4.001,7.836
				c1.649-2.047,4.177-3.357,7.014-3.357c2.83,0,5.355,1.307,7.006,3.349"/>
			<path fill="none" stroke="#000000" stroke-linecap="round" stroke-linejoin="round" stroke-miterlimit="10" d="M2,5.855
				C4.105,3.201,7.359,1.5,11.015,1.5c3.658,0,6.916,1.706,9.022,4.367"/>
		</g>
	</g>
</g>
<g id="Invisible_Shape">
	<rect fill="none" width="24" height="24"/>
</g>
</svg>
