<?xml version="1.0" encoding="utf-8"?>
<!-- Generator: Adobe Illustrator 16.0.3, SVG Export Plug-In . SVG Version: 6.00 Build 0)  -->
<!DOCTYPE svg PUBLIC "-//W3C//DTD SVG 1.1//EN" "http://www.w3.org/Graphics/SVG/1.1/DTD/svg11.dtd">
<svg version="1.1" xmlns="http://www.w3.org/2000/svg" xmlns:xlink="http://www.w3.org/1999/xlink" x="0px" y="0px" width="24px"
	 height="24px" viewBox="0 0 24 24" enable-background="new 0 0 24 24" xml:space="preserve">
<g id="Outline_Icons">
	<g>
		<polyline fill="none" stroke="#000000" stroke-linejoin="round" stroke-miterlimit="10" points="14.5,23.5 0.5,23.5 0.5,0.5 
			23.5,0.5 23.5,17.5 		"/>
		<path fill="none" stroke="#000000" stroke-linejoin="round" stroke-miterlimit="10" d="M6.5,4.5c0-1.105-0.896-2-2-2s-2,0.895-2,2
			v5h4V4.5z"/>
		<path fill="none" stroke="#000000" stroke-linejoin="round" stroke-miterlimit="10" d="M12.5,4.5c0-1.105-0.896-2-2-2
			s-2,0.895-2,2v5h4V4.5z"/>
		<path fill="none" stroke="#000000" stroke-linejoin="round" stroke-miterlimit="10" d="M6.5,14.5c0-1.105-0.896-2-2-2
			s-2,0.895-2,2v5h4V14.5z"/>
		<path fill="none" stroke="#000000" stroke-linejoin="round" stroke-miterlimit="10" d="M12.5,14.5c0-1.105-0.896-2-2-2
			s-2,0.895-2,2v5h4V14.5z"/>
		<path fill="none" stroke="#000000" stroke-linejoin="round" stroke-miterlimit="10" d="M21.5,11.5c0-1.105-0.896-2-2-2h-1
			c-1.104,0-2,0.895-2,2v6h5V11.5z"/>
		<circle fill="none" stroke="#000000" stroke-linejoin="round" stroke-miterlimit="10" cx="19" cy="5" r="2"/>
		<rect x="14.5" y="17.5" fill="none" stroke="#000000" stroke-linejoin="round" stroke-miterlimit="10" width="9" height="6"/>
		<line fill="none" stroke="#000000" stroke-linejoin="round" stroke-miterlimit="10" x1="14.5" y1="19.5" x2="23.5" y2="19.5"/>
		<line fill="none" stroke="#000000" stroke-linejoin="round" stroke-miterlimit="10" x1="14.5" y1="21.5" x2="23.5" y2="21.5"/>
		<line fill="none" stroke="#000000" stroke-linejoin="round" stroke-miterlimit="10" x1="14.5" y1="0.5" x2="14.5" y2="17.5"/>
	</g>
</g>
<g id="invisible_shape">
	<rect fill="none" width="24" height="24"/>
</g>
</svg>
