<?xml version="1.0" encoding="utf-8"?>
<!-- Generator: Adobe Illustrator 16.0.3, SVG Export Plug-In . SVG Version: 6.00 Build 0)  -->
<!DOCTYPE svg PUBLIC "-//W3C//DTD SVG 1.1//EN" "http://www.w3.org/Graphics/SVG/1.1/DTD/svg11.dtd">
<svg version="1.1" xmlns="http://www.w3.org/2000/svg" xmlns:xlink="http://www.w3.org/1999/xlink" x="0px" y="0px" width="24px"
	 height="24px" viewBox="0 0 24 24" enable-background="new 0 0 24 24" xml:space="preserve">
<g id="Outline_Icons">
	<g>
		<path fill="none" stroke="#000000" stroke-linecap="round" stroke-linejoin="round" stroke-miterlimit="10" d="M19.5,23.5l-2-14
			h-11l-2,14h6v-4c0-0.83,0.672-1.5,1.5-1.5s1.5,0.67,1.5,1.5v4H19.5z"/>
		
			<line fill="none" stroke="#000000" stroke-linecap="round" stroke-linejoin="round" stroke-miterlimit="10" x1="10.5" y1="13.5" x2="12.5" y2="13.5"/>
		
			<line fill="none" stroke="#000000" stroke-linecap="round" stroke-linejoin="round" stroke-miterlimit="10" x1="11.5" y1="12.5" x2="11.5" y2="14.5"/>
		
			<line fill="none" stroke="#000000" stroke-linecap="round" stroke-linejoin="round" stroke-miterlimit="10" x1="11.5" y1="0.5" x2="11.5" y2="6.5"/>
		<polygon fill="none" stroke="#000000" stroke-linecap="round" stroke-linejoin="round" stroke-miterlimit="10" points="12,1.5 
			11.5,1.5 11.5,0.5 12,0.5 14,1 		"/>
		<polyline fill="none" stroke="#000000" stroke-linejoin="round" stroke-miterlimit="10" points="19.5,23.5 23.5,23.5 23.5,13.5 
			20.5,13.5 20.5,15.5 18.375,15.5 		"/>
		<polyline fill="none" stroke="#000000" stroke-linejoin="round" stroke-miterlimit="10" points="5.625,15.5 3.5,15.5 3.5,13.5 
			0.5,13.5 0.5,23.5 4.5,23.5 		"/>
		<path fill="none" stroke="#000000" stroke-linecap="round" stroke-linejoin="round" stroke-miterlimit="10" d="M10,5V4.5H8V5
			c0,0.828-0.573,1.5-1.281,1.5C6.045,6.5,5.5,5.828,5.5,5V4.5h-2V8c0,0.828,0.672,1.5,1.5,1.5h14c0.828,0,1.5-0.672,1.5-1.5V4.5h-2
			V5c0,0.828-0.672,1.5-1.5,1.5S15.5,5.828,15.5,5V4.5h-2V5c0,0.828-0.804,1.5-1.797,1.5C10.762,6.5,10,5.828,10,5z"/>
	</g>
</g>
<g id="invisible_shape">
	<rect fill="none" width="24" height="24"/>
</g>
</svg>
