<?xml version="1.0" encoding="utf-8"?>
<!-- Generator: Adobe Illustrator 16.0.3, SVG Export Plug-In . SVG Version: 6.00 Build 0)  -->
<!DOCTYPE svg PUBLIC "-//W3C//DTD SVG 1.1//EN" "http://www.w3.org/Graphics/SVG/1.1/DTD/svg11.dtd">
<svg version="1.1" xmlns="http://www.w3.org/2000/svg" xmlns:xlink="http://www.w3.org/1999/xlink" x="0px" y="0px" width="24px"
	 height="24px" viewBox="0 0 24 24" enable-background="new 0 0 24 24" xml:space="preserve">
<g id="Outline_Icons">
	<g>
		<rect x="2.5" y="21.5" fill="none" stroke="#000000" stroke-linejoin="round" stroke-miterlimit="10" width="19" height="2"/>
		<rect x="3.5" y="14.5" fill="none" stroke="#000000" stroke-linejoin="round" stroke-miterlimit="10" width="17" height="7"/>
		<rect x="14.5" y="16.5" fill="none" stroke="#000000" stroke-linejoin="round" stroke-miterlimit="10" width="4" height="5"/>
		<rect x="3.5" y="18.5" fill="none" stroke="#000000" stroke-linejoin="round" stroke-miterlimit="10" width="8" height="3"/>
		<line fill="none" stroke="#000000" stroke-linejoin="round" stroke-miterlimit="10" x1="9.5" y1="18.5" x2="9.5" y2="21.5"/>
		<line fill="none" stroke="#000000" stroke-linejoin="round" stroke-miterlimit="10" x1="7.5" y1="18.5" x2="7.5" y2="21.5"/>
		<line fill="none" stroke="#000000" stroke-linejoin="round" stroke-miterlimit="10" x1="5.5" y1="18.5" x2="5.5" y2="21.5"/>
		
			<line fill="none" stroke="#000000" stroke-linecap="round" stroke-linejoin="round" stroke-miterlimit="10" x1="6.5" y1="16.5" x2="11.5" y2="16.5"/>
		<polygon fill="none" stroke="#000000" stroke-linecap="round" stroke-linejoin="round" stroke-miterlimit="10" points="19.5,10.5 
			4.5,10.5 1.5,14.5 22.5,14.5 		"/>
		
			<rect x="7.5" y="6.5" fill="none" stroke="#000000" stroke-linecap="round" stroke-linejoin="round" stroke-miterlimit="10" width="9" height="4"/>
		<polyline fill="none" stroke="#000000" stroke-linecap="round" stroke-linejoin="round" stroke-miterlimit="10" points="10,3.5 
			7.5,3.5 5.5,6.5 18.5,6.5 16.5,3.5 14,3.5 		"/>
		<polygon fill="none" stroke="#000000" stroke-linecap="round" stroke-linejoin="round" stroke-miterlimit="10" points="14,4.5 
			10,4.5 10,2 12,0.5 14,2 		"/>
		
			<line fill="none" stroke="#000000" stroke-linecap="round" stroke-linejoin="round" stroke-miterlimit="10" x1="9.5" y1="8.5" x2="11" y2="8.5"/>
		
			<line fill="none" stroke="#000000" stroke-linecap="round" stroke-linejoin="round" stroke-miterlimit="10" x1="13" y1="8.5" x2="14.5" y2="8.5"/>
	</g>
</g>
<g id="invisible_shape">
	<rect fill="none" width="24" height="24"/>
</g>
</svg>
