<?xml version="1.0" encoding="utf-8"?>
<!-- Generator: Adobe Illustrator 16.0.3, SVG Export Plug-In . SVG Version: 6.00 Build 0)  -->
<!DOCTYPE svg PUBLIC "-//W3C//DTD SVG 1.1//EN" "http://www.w3.org/Graphics/SVG/1.1/DTD/svg11.dtd">
<svg version="1.1" xmlns="http://www.w3.org/2000/svg" xmlns:xlink="http://www.w3.org/1999/xlink" x="0px" y="0px" width="24px"
	 height="24px" viewBox="0 0 24 24" enable-background="new 0 0 24 24" xml:space="preserve">
<g id="Outline_Icons">
	<g>
		<path fill="none" stroke="#000000" stroke-linecap="round" stroke-linejoin="round" stroke-miterlimit="10" d="M9.5,11.5
			c0-1.104-0.896-2-2-2H5.34c-1.04,0-1.907,0.798-1.993,1.834l-0.667,10c-0.046,0.557,0.143,1.108,0.521,1.521
			C3.581,23.266,4.114,23.5,4.674,23.5H7.5c1.104,0,2-0.896,2-2V11.5z"/>
		<path fill="none" stroke="#000000" stroke-linecap="round" stroke-linejoin="round" stroke-miterlimit="10" d="M14.5,11.5
			c0-1.104,0.896-2,2-2h2.16c1.04,0,1.907,0.798,1.993,1.834l0.667,10c0.046,0.557-0.143,1.108-0.521,1.521
			c-0.379,0.411-0.913,0.646-1.472,0.646H16.5c-1.104,0-2-0.896-2-2V11.5z"/>
		
			<rect x="0.5" y="5.5" fill="none" stroke="#000000" stroke-linecap="round" stroke-linejoin="round" stroke-miterlimit="10" width="23" height="4"/>
	</g>
</g>
<g id="invisible_shape">
	<rect fill="none" width="24" height="24"/>
</g>
</svg>
