<?xml version="1.0" encoding="utf-8"?>
<!-- Generator: Adobe Illustrator 16.0.3, SVG Export Plug-In . SVG Version: 6.00 Build 0)  -->
<!DOCTYPE svg PUBLIC "-//W3C//DTD SVG 1.1//EN" "http://www.w3.org/Graphics/SVG/1.1/DTD/svg11.dtd">
<svg version="1.1" xmlns="http://www.w3.org/2000/svg" xmlns:xlink="http://www.w3.org/1999/xlink" x="0px" y="0px" width="24px"
	 height="24px" viewBox="0 0 24 24" enable-background="new 0 0 24 24" xml:space="preserve">
<g id="Outline_Icons">
	<g>
		
			<rect x="3.5" y="15.5" fill="none" stroke="#000000" stroke-linecap="round" stroke-linejoin="round" stroke-miterlimit="10" width="17" height="8"/>
		<path fill="none" stroke="#000000" stroke-linecap="round" stroke-linejoin="round" stroke-miterlimit="10" d="M8.5,19
			c0-0.829-0.672-1.5-1.5-1.5S5.5,18.171,5.5,19v4.5h3V19z"/>
		<path fill="none" stroke="#000000" stroke-linecap="round" stroke-linejoin="round" stroke-miterlimit="10" d="M13.5,19
			c0-0.829-0.672-1.5-1.5-1.5s-1.5,0.671-1.5,1.5v4.5h3V19z"/>
		<path fill="none" stroke="#000000" stroke-linecap="round" stroke-linejoin="round" stroke-miterlimit="10" d="M18.5,19
			c0-0.829-0.672-1.5-1.5-1.5s-1.5,0.671-1.5,1.5v4.5h3V19z"/>
		
			<rect x="20.5" y="12.5" fill="none" stroke="#000000" stroke-linecap="round" stroke-linejoin="round" stroke-miterlimit="10" width="3" height="11"/>
		<path fill="none" stroke="#000000" stroke-linecap="round" stroke-linejoin="round" stroke-miterlimit="10" d="M23.5,11
			c0,0.829-0.671,1.5-1.5,1.5s-1.5-0.671-1.5-1.5c0-0.828,1.5-2.5,1.5-2.5S23.5,10.172,23.5,11z"/>
		
			<rect x="0.5" y="12.5" fill="none" stroke="#000000" stroke-linecap="round" stroke-linejoin="round" stroke-miterlimit="10" width="3" height="11"/>
		<path fill="none" stroke="#000000" stroke-linecap="round" stroke-linejoin="round" stroke-miterlimit="10" d="M3.5,11
			c0,0.829-0.671,1.5-1.5,1.5S0.5,11.829,0.5,11C0.5,10.172,2,8.5,2,8.5S3.5,10.172,3.5,11z"/>
		<path fill="none" stroke="#000000" stroke-linecap="round" stroke-linejoin="round" stroke-miterlimit="10" d="M17.5,11.5
			c0,2.486-2,4-5.5,4s-5.5-1.514-5.5-4C6.5,9.015,12,6,12,6S17.5,9.015,17.5,11.5z"/>
		<path fill="none" stroke="#000000" stroke-linecap="round" stroke-linejoin="round" stroke-miterlimit="10" d="M14.355,3.075
			c-0.181,0.495-0.556,0.918-1.077,1.146c-1.012,0.443-2.191-0.019-2.634-1.03C10.202,2.179,10.663,1,11.675,0.557"/>
		
			<line fill="none" stroke="#000000" stroke-linecap="round" stroke-linejoin="round" stroke-miterlimit="10" x1="12" y1="6" x2="12" y2="4.327"/>
	</g>
</g>
<g id="invisible_shape">
	<rect fill="none" width="24" height="24"/>
</g>
</svg>
