<?xml version="1.0" encoding="utf-8"?>
<!-- Generator: Adobe Illustrator 16.0.3, SVG Export Plug-In . SVG Version: 6.00 Build 0)  -->
<!DOCTYPE svg PUBLIC "-//W3C//DTD SVG 1.1//EN" "http://www.w3.org/Graphics/SVG/1.1/DTD/svg11.dtd">
<svg version="1.1" xmlns="http://www.w3.org/2000/svg" xmlns:xlink="http://www.w3.org/1999/xlink" x="0px" y="0px" width="24px"
	 height="24px" viewBox="0 0 24 24" enable-background="new 0 0 24 24" xml:space="preserve">
<g id="Outline_Icons">
	<g>
		<path fill="none" stroke="#000000" stroke-linejoin="round" stroke-miterlimit="10" d="M8.5,14.5h7c0.5,4.5,8,9,8,9h-23
			C0.5,23.5,8.5,19,8.5,14.5z"/>
		<g>
			<path fill="none" stroke="#000000" stroke-linecap="round" stroke-linejoin="round" stroke-miterlimit="10" d="M16.865,3.67
				C15.943,2.082,14.111,1,12,1C9.888,1,8.057,2.082,7.135,3.67"/>
			<path fill="none" stroke="#000000" stroke-linecap="round" stroke-linejoin="round" stroke-miterlimit="10" d="M9.5,10.5
				c1.351,0.679,3.648,0.68,5,0"/>
			<path fill="none" stroke="#000000" stroke-linecap="round" stroke-linejoin="round" stroke-miterlimit="10" d="M9.004,4.104
				C6.834,3.057,3.841,3.991,3.527,5.792c0.43,0.259,0.749,0.671,0.889,1.165"/>
			<path fill="none" stroke="#000000" stroke-linecap="round" stroke-linejoin="round" stroke-miterlimit="10" d="M3.527,5.792
				C2.18,4.979,0.5,5.959,0.5,7.5c0,1.604,1.791,2.54,3.106,1.664C4.348,11.23,8.104,11.369,9.5,10.5"/>
			<path fill="none" stroke="#000000" stroke-linecap="round" stroke-linejoin="round" stroke-miterlimit="10" d="M19.734,7.077
				c0.173-0.33,0.432-0.603,0.751-0.793c0.25-2.076-3.113-3.331-5.495-2.179"/>
			<path fill="none" stroke="#000000" stroke-linecap="round" stroke-linejoin="round" stroke-miterlimit="10" d="M14.5,10.5
				c1.215,0.757,4.615,0.828,5.723-0.974C21.533,10.624,23.5,9.686,23.5,8c0-1.527-1.66-2.52-3.014-1.716"/>
		</g>
		<path fill="none" stroke="#000000" stroke-linecap="round" stroke-linejoin="round" stroke-miterlimit="10" d="M9.5,10.5
			c1,1,1,2,1,4"/>
		<path fill="none" stroke="#000000" stroke-linecap="round" stroke-linejoin="round" stroke-miterlimit="10" d="M14.5,10.5
			c-1,1-1,2-1,4"/>
	</g>
</g>
<g id="invisible_shape">
	<rect fill="none" width="24" height="24"/>
</g>
</svg>
