<?xml version="1.0" encoding="utf-8"?>
<!-- Generator: Adobe Illustrator 19.2.1, SVG Export Plug-In . SVG Version: 6.00 Build 0)  -->
<svg version="1.1" xmlns="http://www.w3.org/2000/svg" xmlns:xlink="http://www.w3.org/1999/xlink" x="0px" y="0px" width="24px"
	 height="24px" viewBox="0 0 24 24" enable-background="new 0 0 24 24" xml:space="preserve">
<g id="Filled_Icons">
	<g>
		<polygon points="13,13 13,11.262 11.905,13 		"/>
		<path d="M23.5,6h-23C0.224,6,0,6.224,0,6.5v12C0,18.776,0.224,19,0.5,19h23c0.276,0,0.5-0.224,0.5-0.5v-12
			C24,6.224,23.776,6,23.5,6z M9,15.5C9,15.776,8.776,16,8.5,16S8,15.776,8,15.5v-4.349l-1.084,1.626
			c-0.185,0.277-0.647,0.277-0.832,0L5,11.151V15.5C5,15.776,4.776,16,4.5,16S4,15.776,4,15.5v-6c0-0.492,0.643-0.688,0.916-0.277
			L6.5,11.599l1.584-2.376C8.36,8.809,9,9.01,9,9.5V15.5z M15,14h-1v1.5c0,0.276-0.224,0.5-0.5,0.5S13,15.776,13,15.5V14h-2
			c-0.394,0-0.632-0.436-0.423-0.766l2.5-3.973c0.118-0.188,0.348-0.273,0.562-0.213C13.852,9.109,14,9.306,14,9.528V13h1
			c0.276,0,0.5,0.224,0.5,0.5S15.276,14,15,14z M20.475,9.658l-2,6C18.406,15.862,18.215,16,18,16s-0.406-0.138-0.475-0.342l-2-6
			c-0.087-0.262,0.055-0.545,0.316-0.633c0.262-0.086,0.545,0.055,0.633,0.316L18,13.919l1.525-4.577
			c0.088-0.262,0.371-0.402,0.633-0.316C20.42,9.113,20.562,9.396,20.475,9.658z"/>
	</g>
</g>
<g id="Invisible_Shape">
	<rect fill="none" width="24" height="24"/>
</g>
</svg>
