<?xml version="1.0" encoding="utf-8"?>
<!-- Generator: Adobe Illustrator 19.2.1, SVG Export Plug-In . SVG Version: 6.00 Build 0)  -->
<svg version="1.1" xmlns="http://www.w3.org/2000/svg" xmlns:xlink="http://www.w3.org/1999/xlink" x="0px" y="0px" width="24px"
	 height="24px" viewBox="0 0 24 24" enable-background="new 0 0 24 24" xml:space="preserve">
<g id="Filled_Icons">
	<g>
		<polygon points="7.472,17 8.528,17 8,15.24 		"/>
		<path d="M21.854,6.147l-6-6C15.76,0.053,15.633,0,15.5,0h-13C2.225,0,2,0.224,2,0.5v23C2,23.776,2.225,24,2.5,24h19
			c0.276,0,0.5-0.224,0.5-0.5v-17C22,6.367,21.947,6.24,21.854,6.147z M9.644,18.979c-0.269,0.08-0.545-0.075-0.622-0.335L8.828,18
			H7.172l-0.193,0.644c-0.078,0.266-0.357,0.414-0.622,0.335c-0.265-0.08-0.415-0.358-0.335-0.623l1.5-5
			c0.127-0.423,0.83-0.423,0.957,0l1.5,5C10.059,18.621,9.908,18.899,9.644,18.979z M14.479,13.644l-1.5,5
			C12.915,18.855,12.721,19,12.5,19s-0.415-0.145-0.479-0.356l-1.5-5c-0.08-0.264,0.07-0.543,0.335-0.623
			c0.262-0.078,0.543,0.071,0.622,0.335L12.5,16.76l1.021-3.404c0.079-0.264,0.361-0.413,0.622-0.335
			C14.408,13.101,14.559,13.379,14.479,13.644z M17,18.5c0,0.276-0.224,0.5-0.5,0.5S16,18.776,16,18.5v-5c0-0.276,0.224-0.5,0.5-0.5
			s0.5,0.224,0.5,0.5V18.5z M15,7V1l6,6H15z"/>
	</g>
</g>
<g id="Invisible_Shape">
	<rect fill="none" width="24" height="24"/>
</g>
</svg>
