<?xml version="1.0" encoding="utf-8"?>
<!-- Generator: Adobe Illustrator 19.2.1, SVG Export Plug-In . SVG Version: 6.00 Build 0)  -->
<svg version="1.1" xmlns="http://www.w3.org/2000/svg" xmlns:xlink="http://www.w3.org/1999/xlink" x="0px" y="0px" width="24px"
	 height="24px" viewBox="0 0 24 24" enable-background="new 0 0 24 24" xml:space="preserve">
<g id="Filled_Icons">
	<g>
		<path d="M17.5,11c-3.584,0-6.5,2.916-6.5,6.5s2.916,6.5,6.5,6.5s6.5-2.916,6.5-6.5S21.084,11,17.5,11z M17.5,22.003
			c-0.383,0-0.691-0.309-0.691-0.691c0-0.38,0.309-0.689,0.691-0.689c0.382,0,0.691,0.309,0.691,0.689
			C18.191,21.694,17.882,22.003,17.5,22.003z M18,18.463V19c0,0.276-0.224,0.5-0.5,0.5S17,19.276,17,19v-0.991
			c0-0.276,0.224-0.5,0.5-0.5c0.869,0,1.5-0.636,1.5-1.509c0-0.869-0.631-1.5-1.5-1.5S16,15.131,16,16c0,0.276-0.224,0.5-0.5,0.5
			S15,16.276,15,16c0-1.425,1.074-2.5,2.5-2.5S20,14.575,20,16C20,17.258,19.17,18.243,18,18.463z"/>
		<path d="M10,17.5c0-3.967,3.098-7.215,7-7.474V5.5c0-0.133-0.053-0.26-0.146-0.353l-5-5C11.76,0.053,11.633,0,11.5,0h-11
			C0.225,0,0,0.224,0,0.5v21C0,21.776,0.225,22,0.5,22h11.014C10.568,20.745,10,19.19,10,17.5z M11,1l5,5h-5V1z M5,14.25V7.5
			c0-0.393,0.433-0.632,0.765-0.423l5.4,3.374c0.312,0.194,0.316,0.65,0,0.848l-5.4,3.375C5.436,14.881,5,14.646,5,14.25z"/>
	</g>
</g>
<g id="Invisible_Shape">
	<rect fill="none" width="24" height="24"/>
</g>
</svg>
