<?xml version="1.0" encoding="utf-8"?>
<!-- Generator: Adobe Illustrator 19.2.1, SVG Export Plug-In . SVG Version: 6.00 Build 0)  -->
<svg version="1.1" xmlns="http://www.w3.org/2000/svg" xmlns:xlink="http://www.w3.org/1999/xlink" x="0px" y="0px" width="24px"
	 height="24px" viewBox="0 0 24 24" enable-background="new 0 0 24 24" xml:space="preserve">
<g id="Filled_Icons">
	<path d="M23.5,6h-23C0.224,6,0,6.224,0,6.5v12C0,18.776,0.224,19,0.5,19h23c0.276,0,0.5-0.224,0.5-0.5v-12
		C24,6.224,23.776,6,23.5,6z M9,10H7v2h1.5C8.776,12,9,12.224,9,12.5S8.776,13,8.5,13H7v2.499c0,0.276-0.224,0.5-0.5,0.5
		S6,15.775,6,15.499V9.5C6,9.224,6.224,9,6.5,9H9c0.276,0,0.5,0.224,0.5,0.5S9.276,10,9,10z M13.981,16H11.5
		c-0.276,0-0.5-0.224-0.5-0.5v-6C11,9.224,11.224,9,11.5,9S12,9.224,12,9.5V15h1.981c0.276,0,0.5,0.224,0.5,0.5S14.257,16,13.981,16
		z M19.975,9.658l-2,6C17.906,15.862,17.715,16,17.5,16s-0.406-0.138-0.475-0.342l-2-6c-0.087-0.262,0.055-0.545,0.316-0.633
		c0.263-0.086,0.545,0.055,0.633,0.316l1.525,4.577l1.525-4.577c0.089-0.262,0.372-0.402,0.633-0.316
		C19.92,9.113,20.062,9.396,19.975,9.658z"/>
</g>
<g id="Invisible_Shape">
	<rect fill="none" width="24" height="24"/>
</g>
</svg>
