<?xml version="1.0" encoding="utf-8"?>
<!-- Generator: Adobe Illustrator 19.2.1, SVG Export Plug-In . SVG Version: 6.00 Build 0)  -->
<svg version="1.1" xmlns="http://www.w3.org/2000/svg" xmlns:xlink="http://www.w3.org/1999/xlink" x="0px" y="0px" width="24px"
	 height="24px" viewBox="0 0 24 24" enable-background="new 0 0 24 24" xml:space="preserve">
<g id="Filled_Icons">
	<g>
		<path d="M21.484,19c-0.891,0-1.668,0.471-2.11,1.173l-3.429-1.285c0.052-0.338,0.069-0.569-0.056-1.031l3.638-1.819
			C19.986,16.619,20.688,17,21.484,17c1.379,0,2.5-1.122,2.5-2.5s-1.121-2.5-2.5-2.5c-1.591,0-2.848,1.501-2.405,3.144l-3.638,1.819
			C14.982,16.38,14.28,16,13.484,16c-1.379,0-2.5,1.122-2.5,2.5c0,1.378,1.121,2.5,2.5,2.5c0.891,0,1.669-0.471,2.111-1.175
			l3.428,1.286C18.778,22.71,20.017,24,21.484,24c1.379,0,2.5-1.122,2.5-2.5C23.984,20.121,22.863,19,21.484,19z M21.484,13
			c0.827,0,1.5,0.673,1.5,1.5c0,0.828-0.673,1.5-1.5,1.5c-0.827,0-1.5-0.672-1.5-1.5C19.984,13.672,20.657,13,21.484,13z M13.484,20
			c-0.827,0-1.5-0.672-1.5-1.5c0-0.827,0.673-1.5,1.5-1.5c0.827,0,1.5,0.673,1.5,1.5C14.984,19.327,14.311,20,13.484,20z M21.484,23
			c-0.827,0-1.5-0.672-1.5-1.5c0-0.827,0.673-1.5,1.5-1.5c0.827,0,1.5,0.673,1.5,1.5C22.984,22.327,22.312,23,21.484,23z"/>
		<g>
			<path d="M9.984,18.5c0-1.93,1.57-3.5,3.5-3.5c0.811,0,1.548,0.288,2.142,0.752L17,15.066V5.5c0-0.133-0.053-0.259-0.146-0.353
				l-5-5C11.76,0.053,11.633,0,11.5,0h-11C0.225,0,0,0.224,0,0.5v21C0,21.776,0.225,22,0.5,22h12.984
				C11.555,22,9.984,20.43,9.984,18.5z M11,1l5,5h-5V1z M5,14.25V7.5c0-0.392,0.433-0.632,0.765-0.423l5.4,3.374
				c0.312,0.194,0.316,0.651,0,0.848l-5.4,3.375C5.434,14.882,5,14.642,5,14.25z"/>
		</g>
	</g>
</g>
<g id="Invisible_Shape">
	<rect fill="none" width="24" height="24"/>
</g>
</svg>
