<?xml version="1.0" encoding="utf-8"?>
<!-- Generator: Adobe Illustrator 19.2.1, SVG Export Plug-In . SVG Version: 6.00 Build 0)  -->
<svg version="1.1" xmlns="http://www.w3.org/2000/svg" xmlns:xlink="http://www.w3.org/1999/xlink" x="0px" y="0px" width="24px"
	 height="24px" viewBox="0 0 24 24" enable-background="new 0 0 24 24" xml:space="preserve">
<g id="Filled_Icons">
	<g>
		<path d="M12,17.5c0-2.864,2.201-5.221,5-5.474V5.5c0-0.133-0.053-0.259-0.146-0.353l-5-5C11.76,0.053,11.633,0,11.5,0h-11
			C0.225,0,0,0.224,0,0.5v21C0,21.776,0.225,22,0.5,22h13.848C12.931,21.004,12,19.36,12,17.5z M11,1l5,5h-5V1z M11.165,11.299
			l-5.4,3.375C5.436,14.881,5,14.646,5,14.25V7.5c0-0.392,0.433-0.632,0.765-0.423l5.4,3.374
			C11.477,10.646,11.481,11.102,11.165,11.299z"/>
		<path d="M23.854,23.146L21,20.293c0.616-0.77,1-1.733,1-2.793c0-2.481-2.018-4.5-4.499-4.5C15.019,13,13,15.019,13,17.5
			c0,2.48,2.019,4.5,4.501,4.5c1.059,0,2.022-0.385,2.792-1l2.854,2.854c0.195,0.194,0.512,0.194,0.707,0
			C24.049,23.659,24.049,23.342,23.854,23.146z M17.501,21C15.57,21,14,19.43,14,17.5c0-1.929,1.57-3.5,3.501-3.5
			C19.43,14,21,15.571,21,17.5C21,19.43,19.43,21,17.501,21z"/>
	</g>
</g>
<g id="Invisible_Shape">
	<rect fill="none" width="24" height="24"/>
</g>
</svg>
