<?xml version="1.0" encoding="utf-8"?>
<!-- Generator: Adobe Illustrator 19.2.1, SVG Export Plug-In . SVG Version: 6.00 Build 0)  -->
<svg version="1.1" xmlns="http://www.w3.org/2000/svg" xmlns:xlink="http://www.w3.org/1999/xlink" x="0px" y="0px" width="24px"
	 height="24px" viewBox="0 0 24 24" enable-background="new 0 0 24 24" xml:space="preserve">
<g id="Filled_Icons">
	<g>
		<path d="M23.212,11.739c-1.485,1.05-3.184,1.373-4.314-0.065c-0.178-0.229-0.589-0.23-0.776-0.017
			c-0.006,0.007-0.015,0.009-0.02,0.016c-0.97,1.236-2.411,1.293-4.092,0.205c-0.659-0.429-1.009-0.13-1.011,0.271l0,0v7.332
			c0,1.06,2.031,3.42,5.366,4.365c0.011,0.002,0.219,0.012,0.273-0.002C22.154,22.856,24,20.448,24,19.48v-7.332
			C24,11.771,23.531,11.518,23.212,11.739z M21,18h-2v2c0,0.276-0.224,0.5-0.5,0.5S18,20.276,18,20v-2h-2
			c-0.276,0-0.5-0.224-0.5-0.5S15.724,17,16,17h2v-2c0-0.276,0.224-0.5,0.5-0.5S19,14.724,19,15v2h2c0.276,0,0.5,0.224,0.5,0.5
			S21.276,18,21,18z"/>
		<path d="M12,12.12c0.002-1,1.121-2.046,2.519-1.134c1.067,0.693,1.862,0.836,2.481,0.353V5.5c0-0.133-0.053-0.26-0.146-0.353l-5-5
			C11.76,0.053,11.633,0,11.5,0h-11C0.225,0,0,0.224,0,0.5v21C0,21.776,0.225,22,0.5,22h12.85C12.497,21.115,12,20.193,12,19.452
			V12.12z M11,1l5,5h-5V1z M11.165,11.299l-5.4,3.375C5.435,14.881,5,14.644,5,14.25V7.5c0-0.391,0.43-0.631,0.765-0.424l5.4,3.375
			C11.479,10.648,11.479,11.102,11.165,11.299z"/>
	</g>
</g>
<g id="Invisible_Shape">
	<rect fill="none" width="24" height="24"/>
</g>
</svg>
