<?xml version="1.0" encoding="utf-8"?>
<!-- Generator: Adobe Illustrator 19.2.1, SVG Export Plug-In . SVG Version: 6.00 Build 0)  -->
<svg version="1.1" xmlns="http://www.w3.org/2000/svg" xmlns:xlink="http://www.w3.org/1999/xlink" x="0px" y="0px" width="24px"
	 height="24px" viewBox="0 0 24 24" enable-background="new 0 0 24 24" xml:space="preserve">
<g id="Filled_Icons">
	<g>
		<path d="M12.742,10H12v2.001h0.742c1.167,0,1.258-0.766,1.258-1C14,10.767,13.909,10,12.742,10z"/>
		<polygon points="18,13 18,11.262 16.905,13 		"/>
		<path d="M23.5,6h-23C0.224,6,0,6.224,0,6.5v12C0,18.776,0.224,19,0.5,19h23c0.276,0,0.5-0.224,0.5-0.5v-12
			C24,6.224,23.776,6,23.5,6z M9,15.5C9,15.776,8.776,16,8.5,16S8,15.776,8,15.5v-4.349l-1.084,1.626
			c-0.185,0.277-0.647,0.277-0.832,0L5,11.151V15.5C5,15.776,4.776,16,4.5,16S4,15.776,4,15.5v-6c0-0.49,0.641-0.689,0.916-0.277
			L6.5,11.599l1.584-2.376C8.36,8.807,9,9.012,9,9.5V15.5z M12.742,13.001H12v2.498c0,0.276-0.224,0.5-0.5,0.5s-0.5-0.224-0.5-0.5
			V9.5C11,9.224,11.224,9,11.5,9h1.242C14.294,9,15,10.037,15,11.001C15,11.965,14.294,13.001,12.742,13.001z M20,14h-1v1.5
			c0,0.276-0.224,0.5-0.5,0.5S18,15.776,18,15.5V14h-2c-0.396,0-0.631-0.439-0.423-0.766l2.5-3.973C18.34,8.845,19,9.025,19,9.528
			V13h1c0.276,0,0.5,0.224,0.5,0.5S20.276,14,20,14z"/>
	</g>
</g>
<g id="Invisible_Shape">
	<rect fill="none" width="24" height="24"/>
</g>
</svg>
