<?xml version="1.0" encoding="utf-8"?>
<!-- Generator: Adobe Illustrator 19.2.1, SVG Export Plug-In . SVG Version: 6.00 Build 0)  -->
<svg version="1.1" xmlns="http://www.w3.org/2000/svg" xmlns:xlink="http://www.w3.org/1999/xlink" x="0px" y="0px" width="24px"
	 height="24px" viewBox="0 0 24 24" enable-background="new 0 0 24 24" xml:space="preserve">
<g id="Filled_Icons">
	<g>
		<path d="M10.5,12.5c0-1.207-0.602-2.5-1.5-2.5s-1.5,1.293-1.5,2.5S8.116,15,9.033,15C9.939,15,10.5,13.702,10.5,12.5z"/>
		<path d="M23.5,6h-23C0.224,6,0,6.224,0,6.5v12C0,18.776,0.224,19,0.5,19h23c0.276,0,0.5-0.224,0.5-0.5v-12
			C24,6.224,23.776,6,23.5,6z M11.354,16.354c-0.218,0.218-0.47,0.29-0.719,0.29c-0.264,0-1.252-0.289-1.264-0.286
			c-0.317,0.337-0.914,0.084-0.828-0.426C7.256,15.606,6.5,14.035,6.5,12.5C6.5,10.779,7.436,9,9,9s2.5,1.779,2.5,3.5
			c0,1.191-0.435,2.422-1.243,3.057c0.149,0.049,0.338,0.106,0.399,0.085C11.116,15.179,11.827,15.88,11.354,16.354z M17,10h-1v5.5
			c0,0.276-0.224,0.5-0.5,0.5S15,15.776,15,15.5V10h-0.981c-0.276,0-0.5-0.224-0.5-0.5s0.224-0.5,0.5-0.5H17
			c0.276,0,0.5,0.224,0.5,0.5S17.276,10,17,10z"/>
	</g>
</g>
<g id="Invisible_Shape">
	<rect fill="none" width="24" height="24"/>
</g>
</svg>
