<?xml version="1.0" encoding="utf-8"?>
<!-- Generator: Adobe Illustrator 19.2.1, SVG Export Plug-In . SVG Version: 6.00 Build 0)  -->
<svg version="1.1" xmlns="http://www.w3.org/2000/svg" xmlns:xlink="http://www.w3.org/1999/xlink" x="0px" y="0px" width="24px"
	 height="24px" viewBox="0 0 24 24" enable-background="new 0 0 24 24" xml:space="preserve">
<g id="Filled_Icons">
	<g>
		<path d="M17.481,11c-3.584,0-6.5,2.916-6.5,6.5s2.916,6.5,6.5,6.5c3.584,0,6.5-2.916,6.5-6.5S21.065,11,17.481,11z M17.481,16.927
			c1.043,0,1.891,0.849,1.891,1.892c0,0.869-0.592,1.594-1.391,1.816v0.502c0,0.276-0.224,0.5-0.5,0.5c-0.276,0-0.5-0.224-0.5-0.5
			v-0.502c-0.799-0.221-1.391-0.947-1.391-1.816c0-0.276,0.224-0.5,0.5-0.5c0.276,0,0.5,0.224,0.5,0.5
			c0,0.492,0.399,0.891,0.891,0.891c0.491,0,0.891-0.399,0.891-0.891s-0.399-0.892-0.891-0.892c-1.043,0-1.891-0.848-1.891-1.89
			c0-0.868,0.592-1.595,1.391-1.816v-0.502c0-0.277,0.224-0.5,0.5-0.5c0.276,0,0.5,0.223,0.5,0.5v0.502
			c0.799,0.221,1.391,0.948,1.391,1.816c0,0.276-0.224,0.5-0.5,0.5c-0.276,0-0.5-0.224-0.5-0.5c0-0.491-0.399-0.892-0.891-0.892
			c-0.491,0-0.891,0.4-0.891,0.892S16.99,16.927,17.481,16.927z"/>
		<path d="M10,17.5c0-3.967,3.098-7.215,7-7.474V5.5c0-0.133-0.053-0.259-0.146-0.353l-5-5C11.76,0.053,11.633,0,11.5,0h-11
			C0.225,0,0,0.224,0,0.5v21C0,21.776,0.225,22,0.5,22h11.014C10.568,20.745,10,19.19,10,17.5z M11,1l5,5h-5V1z M5,14.25V7.5
			c0-0.392,0.433-0.632,0.765-0.423l5.4,3.374c0.312,0.194,0.316,0.651,0,0.848l-5.4,3.375C5.434,14.882,5,14.642,5,14.25z"/>
	</g>
</g>
<g id="Invisible_Shape">
	<rect fill="none" width="24" height="24"/>
</g>
</svg>
