<?xml version="1.0" encoding="utf-8"?>
<!-- Generator: Adobe Illustrator 19.2.1, SVG Export Plug-In . SVG Version: 6.00 Build 0)  -->
<svg version="1.1" xmlns="http://www.w3.org/2000/svg" xmlns:xlink="http://www.w3.org/1999/xlink" x="0px" y="0px" width="24px"
	 height="24px" viewBox="0 0 24 24" enable-background="new 0 0 24 24" xml:space="preserve">
<g id="Filled_Icons">
	<g>
		<path d="M17.5,11c-3.584,0-6.5,2.916-6.5,6.5s2.916,6.5,6.5,6.5s6.5-2.916,6.5-6.5S21.084,11,17.5,11z M21.597,15.9l-4.096,4.357
			c-0.198,0.209-0.521,0.203-0.712,0.017l-2.926-2.841c-0.197-0.19-0.203-0.509-0.01-0.706c0.191-0.198,0.508-0.203,0.707-0.011
			l2.561,2.485l3.747-3.987c0.188-0.201,0.507-0.211,0.706-0.021C21.775,15.383,21.785,15.699,21.597,15.9z"/>
		<path d="M10,17.5c0-3.967,3.098-7.215,7-7.474V5.5c0-0.133-0.053-0.259-0.146-0.353l-5-5C11.76,0.053,11.633,0,11.5,0h-11
			C0.225,0,0,0.224,0,0.5v21C0,21.776,0.225,22,0.5,22h11.014C10.568,20.745,10,19.19,10,17.5z M11,1l5,5h-5V1z M5,14.25V7.5
			c0-0.392,0.433-0.632,0.765-0.423l5.4,3.374c0.312,0.194,0.316,0.651,0,0.848l-5.4,3.375C5.436,14.881,5,14.646,5,14.25z"/>
	</g>
</g>
<g id="Invisible_Shape">
	<rect fill="none" width="24" height="24"/>
</g>
</svg>
