<?xml version="1.0" encoding="utf-8"?>
<!-- Generator: Adobe Illustrator 19.2.1, SVG Export Plug-In . SVG Version: 6.00 Build 0)  -->
<svg version="1.1" xmlns="http://www.w3.org/2000/svg" xmlns:xlink="http://www.w3.org/1999/xlink" x="0px" y="0px" width="24px"
	 height="24px" viewBox="0 0 24 24" enable-background="new 0 0 24 24" xml:space="preserve">
<g id="Filled_Icons">
	<g>
		<path d="M12.742,10H12v2.001h0.742c1.167,0,1.258-0.766,1.258-1C14,10.767,13.909,10,12.742,10z"/>
		<path d="M23.5,6h-23C0.224,6,0,6.224,0,6.5v12C0,18.776,0.224,19,0.5,19h23c0.276,0,0.5-0.224,0.5-0.5v-12
			C24,6.224,23.776,6,23.5,6z M9,15.5C9,15.776,8.776,16,8.5,16S8,15.776,8,15.5v-4.349l-1.084,1.626
			c-0.185,0.277-0.647,0.277-0.832,0L5,11.151V15.5C5,15.776,4.776,16,4.5,16S4,15.776,4,15.5v-6c0-0.221,0.144-0.415,0.356-0.479
			c0.212-0.064,0.438,0.019,0.56,0.201L6.5,11.599l1.584-2.376c0.122-0.184,0.349-0.268,0.561-0.201C8.856,9.085,9,9.279,9,9.5V15.5
			z M12.742,13.001H12v2.498c0,0.276-0.224,0.5-0.5,0.5s-0.5-0.224-0.5-0.5V9.5C11,9.224,11.224,9,11.5,9h1.242
			C14.294,9,15,10.037,15,11.001C15,11.965,14.294,13.001,12.742,13.001z M18,16c-1.374,0-2-1.814-2-3.5c0-2.322,0.673-3.5,2-3.5
			c1.111,0,1.78,0.469,1.987,1.39c0.061,0.27-0.108,0.537-0.377,0.598c-0.272,0.066-0.538-0.107-0.598-0.377
			C18.94,10.288,18.808,10,18,10c-0.247,0-1,0-1,2.5c0,1.356,0.458,2.5,1,2.5c0.774,0,0.966-0.512,0.996-2H18
			c-0.276,0-0.5-0.224-0.5-0.5S17.724,12,18,12h1.5c0.276,0,0.5,0.224,0.5,0.5C20,13.977,20,16,18,16z"/>
	</g>
</g>
<g id="Invisible_Shape">
	<rect fill="none" width="24" height="24"/>
</g>
</svg>
