<?xml version="1.0" encoding="utf-8"?>
<!-- Generator: Adobe Illustrator 19.2.1, SVG Export Plug-In . SVG Version: 6.00 Build 0)  -->
<svg version="1.1" xmlns="http://www.w3.org/2000/svg" xmlns:xlink="http://www.w3.org/1999/xlink" x="0px" y="0px" width="24px"
	 height="24px" viewBox="0 0 24 24" enable-background="new 0 0 24 24" xml:space="preserve">
<g id="Filled_Icons">
	<g>
		<path d="M21.854,6.147l-6-6C15.76,0.053,15.633,0,15.5,0h-13C2.225,0,2,0.224,2,0.5v23C2,23.776,2.225,24,2.5,24h19
			c0.276,0,0.5-0.224,0.5-0.5v-17C22,6.367,21.947,6.24,21.854,6.147z M10,18.502c0,0.276-0.224,0.5-0.5,0.5S9,18.778,9,18.502
			v-3.576l-1.109,1.388c-0.189,0.237-0.592,0.237-0.781,0L6,14.926v3.576c0,0.276-0.224,0.5-0.5,0.5S5,18.778,5,18.502V13.5
			c0-0.47,0.594-0.682,0.891-0.312L7.5,15.2l1.609-2.013C9.406,12.818,10,13.03,10,13.5V18.502z M12.75,16.5H12v2
			c0,0.276-0.224,0.5-0.5,0.5S11,18.776,11,18.5v-5c0-0.276,0.224-0.5,0.5-0.5h1.25c0.965,0,1.75,0.785,1.75,1.75
			S13.715,16.5,12.75,16.5z M17,19c-2,0-2-2.102-2-3s0-3,2-3c1.06,0,1.631,0.429,1.847,1.39c0.061,0.27-0.108,0.537-0.377,0.598
			c-0.273,0.061-0.538-0.109-0.598-0.378C17.767,14.145,17.633,14,17,14c-0.547,0-1,0.15-1,2s0.453,2,1,2c0.231,0,0.731,0,0.932-1
			H17c-0.276,0-0.5-0.224-0.5-0.5S16.724,16,17,16h1.5c0.288,0,0.52,0.245,0.499,0.536C18.854,18.573,17.831,19,17,19z M15,7V1l6,6
			H15z"/>
		<path d="M12.75,14H12v1.5h0.75c0.413,0,0.75-0.336,0.75-0.75S13.163,14,12.75,14z"/>
	</g>
</g>
<g id="Invisible_Shape">
	<rect fill="none" width="24" height="24"/>
</g>
</svg>
