<?xml version="1.0" encoding="utf-8"?>
<!-- Generator: Adobe Illustrator 19.2.1, SVG Export Plug-In . SVG Version: 6.00 Build 0)  -->
<svg version="1.1" xmlns="http://www.w3.org/2000/svg" xmlns:xlink="http://www.w3.org/1999/xlink" x="0px" y="0px" width="24px"
	 height="24px" viewBox="0 0 24 24" enable-background="new 0 0 24 24" xml:space="preserve">
<g id="Filled_Icons">
	<g>
		<path d="M21.854,6.147l-6-6C15.76,0.053,15.633,0,15.5,0h-13C2.225,0,2,0.224,2,0.5v23C2,23.776,2.225,24,2.5,24h19
			c0.276,0,0.5-0.224,0.5-0.5v-17C22,6.367,21.947,6.24,21.854,6.147z M10,18.502c0,0.276-0.224,0.5-0.5,0.5S9,18.778,9,18.502
			v-3.576l-1.109,1.388c-0.189,0.237-0.592,0.237-0.781,0L6,14.926v3.576c0,0.276-0.224,0.5-0.5,0.5S5,18.778,5,18.502V13.5
			c0-0.47,0.594-0.682,0.891-0.312L7.5,15.2l1.609-2.013C9.406,12.818,10,13.03,10,13.5V18.502z M13,19c-2,0-2-2.102-2-3s0-3,2-3
			s2,2.102,2,3S15,19,13,19z M19.479,13.644l-1.5,5C17.915,18.855,17.721,19,17.5,19s-0.415-0.145-0.479-0.356l-1.5-5
			c-0.08-0.264,0.07-0.543,0.335-0.623c0.263-0.078,0.543,0.071,0.622,0.335L17.5,16.76l1.021-3.404
			c0.079-0.264,0.359-0.413,0.622-0.335C19.408,13.101,19.559,13.379,19.479,13.644z M15,7V1l6,6H15z"/>
		<path d="M13,14c-0.547,0-1,0.15-1,2s0.453,2,1,2s1-0.15,1-2S13.547,14,13,14z"/>
	</g>
</g>
<g id="Invisible_Shape">
	<rect fill="none" width="24" height="24"/>
</g>
</svg>
