<?xml version="1.0" encoding="utf-8"?>
<!-- Generator: Adobe Illustrator 19.2.1, SVG Export Plug-In . SVG Version: 6.00 Build 0)  -->
<svg version="1.1" xmlns="http://www.w3.org/2000/svg" xmlns:xlink="http://www.w3.org/1999/xlink" x="0px" y="0px" width="24px"
	 height="24px" viewBox="0 0 24 24" enable-background="new 0 0 24 24" xml:space="preserve">
<g id="Filled_Icons">
	<g>
		<polygon points="13,16 13,15.151 12.435,16 		"/>
		<path d="M21.854,6.147l-6-6C15.76,0.053,15.633,0,15.5,0h-13C2.225,0,2,0.224,2,0.5v23C2,23.776,2.225,24,2.5,24h19
			c0.276,0,0.5-0.224,0.5-0.5v-17C22,6.367,21.947,6.24,21.854,6.147z M10,18.5c0,0.276-0.224,0.5-0.5,0.5S9,18.776,9,18.5v-3.576
			l-1.109,1.387c-0.189,0.237-0.592,0.237-0.781,0L6,14.924V18.5C6,18.776,5.776,19,5.5,19S5,18.776,5,18.5v-5.002
			c0-0.471,0.597-0.68,0.891-0.312L7.5,15.199l1.609-2.013C9.403,12.818,10,13.027,10,13.498V18.5z M14.5,17H14v1.5
			c0,0.276-0.224,0.5-0.5,0.5S13,18.776,13,18.5V17h-1.5c-0.398,0-0.638-0.445-0.416-0.777l2-3C13.362,12.806,14,13.014,14,13.5V16
			h0.5c0.276,0,0.5,0.224,0.5,0.5S14.776,17,14.5,17z M19.479,13.644l-1.5,5C17.915,18.855,17.721,19,17.5,19
			s-0.415-0.145-0.479-0.356l-1.5-5c-0.08-0.264,0.07-0.543,0.335-0.623c0.262-0.078,0.543,0.071,0.622,0.335L17.5,16.76
			l1.021-3.404c0.079-0.264,0.361-0.413,0.622-0.335C19.408,13.101,19.559,13.379,19.479,13.644z M15,7V1l6,6H15z"/>
	</g>
</g>
<g id="Invisible_Shape">
	<rect fill="none" width="24" height="24"/>
</g>
</svg>
