<?xml version="1.0" encoding="utf-8"?>
<!-- Generator: Adobe Illustrator 19.2.1, SVG Export Plug-In . SVG Version: 6.00 Build 0)  -->
<svg version="1.1" xmlns="http://www.w3.org/2000/svg" xmlns:xlink="http://www.w3.org/1999/xlink" x="0px" y="0px" width="24px"
	 height="24px" viewBox="0 0 24 24" enable-background="new 0 0 24 24" xml:space="preserve">
<g id="Filled_Icons">
	<g>
		<path d="M21.854,6.147l-6-6C15.76,0.053,15.633,0,15.5,0h-13C2.225,0,2,0.224,2,0.5v23C2,23.776,2.225,24,2.5,24h19
			c0.276,0,0.5-0.224,0.5-0.5v-17C22,6.367,21.947,6.24,21.854,6.147z M11.817,19.357c-0.178,0.174-0.388,0.229-0.594,0.229
			c-0.18,0-0.937-0.176-0.951-0.173c-0.352,0.267-0.852-0.04-0.774-0.482C8.016,18.596,8,16.813,8,16c0-0.898,0-3,2-3s2,2.102,2,3
			c0,0.643-0.013,1.892-0.746,2.556C11.769,18.31,12.214,18.967,11.817,19.357z M15.5,14H15v4.5c0,0.276-0.224,0.5-0.5,0.5
			S14,18.776,14,18.5V14h-0.5c-0.276,0-0.5-0.224-0.5-0.5s0.224-0.5,0.5-0.5h2c0.276,0,0.5,0.224,0.5,0.5S15.776,14,15.5,14z M15,7
			V1l6,6H15z"/>
		<path d="M11,16c0-1.85-0.453-2-1-2s-1,0.15-1,2s0.453,2,1,2S11,17.85,11,16z"/>
	</g>
</g>
<g id="Invisible_Shape">
	<rect fill="none" width="24" height="24"/>
</g>
</svg>
