<?xml version="1.0" encoding="utf-8"?>
<!-- Generator: Adobe Illustrator 19.2.1, SVG Export Plug-In . SVG Version: 6.00 Build 0)  -->
<svg version="1.1" xmlns="http://www.w3.org/2000/svg" xmlns:xlink="http://www.w3.org/1999/xlink" x="0px" y="0px" width="24px"
	 height="24px" viewBox="0 0 24 24" enable-background="new 0 0 24 24" xml:space="preserve">
<g id="Filled_Icons">
	<g>
		<path d="M12.056,19.588c0.07-0.246,0.202-0.469,0.382-0.648L17,14.377V5.5c0-0.133-0.053-0.26-0.146-0.353l-5-5
			C11.76,0.053,11.633,0,11.5,0h-11C0.225,0,0,0.224,0,0.5v21C0,21.776,0.225,22,0.5,22h10.866L12.056,19.588z M11,1l5,5h-5V1z
			 M5,14.25V7.5c0-0.393,0.433-0.632,0.765-0.423l5.4,3.374c0.312,0.194,0.316,0.65,0,0.848l-5.4,3.375
			C5.436,14.881,5,14.646,5,14.25z"/>
		<g>
			<rect x="14.11" y="16.231" transform="matrix(0.707 -0.7072 0.7072 0.707 -7.9551 17.7969)" width="6.781" height="4.536"/>
			<path d="M23.855,14.644l-2.5-2.5c-0.195-0.194-0.512-0.194-0.707,0l-1.647,1.647l3.207,3.207l1.647-1.646
				C24.051,15.156,24.051,14.84,23.855,14.644z"/>
			<path d="M15.848,23.065l-2.917-2.916l-0.911,3.224c-0.046,0.168-0.011,0.354,0.121,0.485c0.131,0.13,0.316,0.165,0.483,0.123
				L15.848,23.065z"/>
		</g>
	</g>
</g>
<g id="Invisible_Shape">
	<rect fill="none" width="24" height="24"/>
</g>
</svg>
