<?xml version="1.0" encoding="utf-8"?>
<!-- Generator: Adobe Illustrator 19.2.1, SVG Export Plug-In . SVG Version: 6.00 Build 0)  -->
<svg version="1.1" xmlns="http://www.w3.org/2000/svg" xmlns:xlink="http://www.w3.org/1999/xlink" x="0px" y="0px" width="24px"
	 height="24px" viewBox="0 0 24 24" enable-background="new 0 0 24 24" xml:space="preserve">
<g id="Filled_Icons">
	<path d="M21.854,6.147l-6-6C15.76,0.053,15.633,0,15.5,0h-13C2.225,0,2,0.224,2,0.5v23C2,23.776,2.225,24,2.5,24h19
		c0.276,0,0.5-0.224,0.5-0.5v-17C22,6.367,21.947,6.24,21.854,6.147z M8.5,14H7v1h1c0.276,0,0.5,0.224,0.5,0.5S8.276,16,8,16H7v2.5
		C7,18.776,6.776,19,6.5,19S6,18.776,6,18.5v-5C6,13.224,6.224,13,6.5,13h2C8.776,13,9,13.224,9,13.5S8.776,14,8.5,14z M14,19h-2.5
		c-0.276,0-0.5-0.224-0.5-0.5v-5c0-0.276,0.224-0.5,0.5-0.5s0.5,0.224,0.5,0.5V18h2c0.276,0,0.5,0.224,0.5,0.5S14.276,19,14,19z
		 M18.479,13.644l-1.5,5C16.915,18.855,16.721,19,16.5,19s-0.415-0.145-0.479-0.356l-1.5-5c-0.08-0.264,0.07-0.543,0.335-0.623
		c0.263-0.078,0.543,0.071,0.622,0.335L16.5,16.76l1.021-3.404c0.079-0.264,0.359-0.413,0.622-0.335
		C18.408,13.101,18.559,13.379,18.479,13.644z M15,7V1l6,6H15z"/>
</g>
<g id="Invisible_Shape">
	<rect fill="none" width="24" height="24"/>
</g>
</svg>
