<?xml version="1.0" encoding="utf-8"?>
<!-- Generator: Adobe Illustrator 19.2.1, SVG Export Plug-In . SVG Version: 6.00 Build 0)  -->
<svg version="1.1" xmlns="http://www.w3.org/2000/svg" xmlns:xlink="http://www.w3.org/1999/xlink" x="0px" y="0px" width="24px"
	 height="24px" viewBox="0 0 24 24" enable-background="new 0 0 24 24" xml:space="preserve">
<g id="Filled_Icons">
	<g>
		<path d="M17,10.026V5.5c0-0.133-0.053-0.26-0.146-0.353l-5-5C11.76,0.053,11.633,0,11.5,0h-11C0.225,0,0,0.225,0,0.5v21
			C0,21.777,0.225,22,0.5,22h11.014C10.568,20.746,10,19.19,10,17.5C10,13.533,13.098,10.285,17,10.026z M11,1l5,5h-5V1z M5,14.25
			V7.5c0-0.392,0.432-0.631,0.765-0.423l5.4,3.374c0.314,0.197,0.312,0.654,0,0.848l-5.4,3.375C5.442,14.879,5,14.65,5,14.25z"/>
		<path d="M17.5,11c-3.584,0-6.5,2.916-6.5,6.5s2.916,6.5,6.5,6.5s6.5-2.916,6.5-6.5S21.084,11,17.5,11z M18,21
			c0,0.276-0.224,0.5-0.5,0.5S17,21.276,17,21v-4c0-0.276,0.224-0.5,0.5-0.5S18,16.724,18,17V21z M17.5,15.5
			c-0.414,0-0.75-0.336-0.75-0.75S17.086,14,17.5,14s0.75,0.336,0.75,0.75S17.914,15.5,17.5,15.5z"/>
	</g>
</g>
<g id="Invisible_Shape">
	<rect fill="none" width="24" height="24"/>
</g>
</svg>
