<?xml version="1.0" encoding="utf-8"?>
<!-- Generator: Adobe Illustrator 19.2.1, SVG Export Plug-In . SVG Version: 6.00 Build 0)  -->
<svg version="1.1" xmlns="http://www.w3.org/2000/svg" xmlns:xlink="http://www.w3.org/1999/xlink" x="0px" y="0px" width="24px"
	 height="24px" viewBox="0 0 24 24" enable-background="new 0 0 24 24" xml:space="preserve">
<g id="Filled_Icons">
	<g>
		<path d="M12,18.895c-0.575,0.192-1.252,0.043-1.651-0.432c-0.528-0.64-0.441-1.586,0.188-2.113l6.002-5.003
			c0.138-0.114,0.295-0.198,0.461-0.253V5.5c0-0.133-0.053-0.26-0.146-0.353l-5-5C11.76,0.053,11.633,0,11.5,0h-11
			C0.225,0,0,0.224,0,0.5v21C0,21.776,0.225,22,0.5,22H12V18.895z M11,1l5,5h-5V1z M5,14.25V7.5c0-0.393,0.433-0.632,0.765-0.423
			l5.4,3.374c0.312,0.194,0.316,0.65,0,0.848l-5.4,3.375C5.436,14.881,5,14.646,5,14.25z"/>
		<g>
			<path d="M17.5,14.453l-4.5,3.75V23.5c0,0.276,0.224,0.5,0.5,0.5h8c0.276,0,0.5-0.224,0.5-0.5v-5.297L17.5,14.453z"/>
			<g>
				<path d="M23.18,17.885L17.5,13.15l-5.68,4.734c-0.213,0.176-0.527,0.147-0.705-0.065c-0.176-0.213-0.147-0.527,0.064-0.705l6-5
					c0.185-0.153,0.455-0.153,0.641,0l6,5c0.212,0.178,0.24,0.492,0.065,0.705C23.708,18.031,23.394,18.062,23.18,17.885z"/>
			</g>
		</g>
	</g>
</g>
<g id="Invisible_Shape">
	<rect fill="none" width="24" height="24"/>
</g>
</svg>
