<?xml version="1.0" encoding="utf-8"?>
<!-- Generator: Adobe Illustrator 19.2.1, SVG Export Plug-In . SVG Version: 6.00 Build 0)  -->
<svg version="1.1" xmlns="http://www.w3.org/2000/svg" xmlns:xlink="http://www.w3.org/1999/xlink" x="0px" y="0px" width="24px"
	 height="24px" viewBox="0 0 24 24" enable-background="new 0 0 24 24" xml:space="preserve">
<g id="Filled_Icons_1_">
	<g id="Filled_Icons">
		<g>
			<path d="M12.011,6h-0.002C11.457,6,11.01,6.446,11,6.998v9.5c0.009,0.552,0.436,1.001,0.989,1.002h0.001
				c0.553,0,1.01-0.446,1.01-0.998v-9.5C13.001,6.449,12.564,6.001,12.011,6z"/>
			<g>
				<path d="M12,24C5.383,24,0,18.617,0,12C0,5.383,5.383,0,12,0s12,5.383,12,12C24,18.617,18.617,24,12,24z M12,2
					C6.486,2,2,6.486,2,12c0,5.514,4.486,10,10,10s10-4.486,10-10C22,6.486,17.514,2,12,2z"/>
			</g>
		</g>
	</g>
	<g id="New_icons">
	</g>
</g>
<g id="Invisible_Shape">
	<rect fill="none" width="24" height="24"/>
</g>
</svg>
