<?xml version="1.0" encoding="utf-8"?>
<!-- Generator: Adobe Illustrator 19.2.1, SVG Export Plug-In . SVG Version: 6.00 Build 0)  -->
<svg version="1.1" xmlns="http://www.w3.org/2000/svg" xmlns:xlink="http://www.w3.org/1999/xlink" x="0px" y="0px" width="24px"
	 height="24px" viewBox="0 0 24 24" enable-background="new 0 0 24 24" xml:space="preserve">
<g id="Filled_Icons_1_">
	<g id="Filled_Icons">
		<path d="M17,6C11.706,6,9.747,16,6,16c-2.206,0-4-1.794-4-4c0-2.206,1.794-4,4-4c0.504,0.001,0.996,0.172,1.456,0.479L5.972,8.89
			C5.439,9.036,5.127,9.587,5.273,10.12c0.123,0.442,0.525,0.733,0.964,0.733l3.376-0.896c0.422-0.117,0.719-0.494,0.733-0.932
			l0.109-3.328c0.018-0.552-0.415-1.014-0.967-1.032C8.929,4.638,8.475,5.081,8.457,5.633L8.421,6.727C7.673,6.262,6.85,6.001,6,6
			c-3.309,0-6,2.691-6,6c0,3.309,2.691,6,6,6c5.241-0.002,7.179-10,11-10c2.206,0,4,1.794,4,4c0,2.206-1.794,4-4,4
			c-2.104-0.004-3.285-1.692-3.326-1.76c-0.283-0.475-0.897-0.63-1.371-0.346c-0.475,0.283-0.629,0.896-0.346,1.371
			C12.024,15.378,13.744,17.994,17,18c3.309,0,6-2.691,6-6C23,8.691,20.309,6,17,6z"/>
	</g>
	<g id="New_icons">
	</g>
</g>
<g id="Invisible_Shape">
	<rect fill="none" width="24" height="24"/>
</g>
</svg>
