<?xml version="1.0" encoding="utf-8"?>
<!-- Generator: Adobe Illustrator 19.2.1, SVG Export Plug-In . SVG Version: 6.00 Build 0)  -->
<svg version="1.1" xmlns="http://www.w3.org/2000/svg" xmlns:xlink="http://www.w3.org/1999/xlink" x="0px" y="0px" width="24px"
	 height="24px" viewBox="0 0 24 24" enable-background="new 0 0 24 24" xml:space="preserve">
<g id="Filled_Icons_1_">
	<g id="Filled_Icons">
		<g>
			<path d="M13,17c0.553,0,1-0.447,1-1V8c0-0.875-1.055-1.334-1.693-0.721l-2.971,2.857c-0.397,0.383-0.41,1.016-0.027,1.414
				c0.383,0.398,1.016,0.41,1.414,0.027L12,10.35V16C12,16.553,12.447,17,13,17z"/>
			<path d="M22,4H3.414l1.793-1.793c0.391-0.391,0.391-1.023,0-1.414c-0.391-0.391-1.023-0.391-1.414,0l-3.5,3.5
				c-0.391,0.391-0.391,1.023,0,1.414l3.5,3.5c0.391,0.391,1.023,0.391,1.414,0c0.391-0.391,0.391-1.023,0-1.414L3.414,6H21v5.5
				c0,0.553,0.447,1,1,1s1-0.447,1-1V5C23,4.447,22.553,4,22,4z"/>
			<path d="M23.707,18.293l-3.5-3.5c-0.391-0.391-1.023-0.391-1.414,0c-0.391,0.391-0.391,1.023,0,1.414L20.586,18H3.016v-5
				c0-0.553-0.447-1-1-1c-0.553,0-1,0.447-1,1v6c0,0.553,0.447,1,1,1h18.57l-1.793,1.793c-0.391,0.391-0.391,1.023,0,1.414
				c0.391,0.391,1.023,0.391,1.414,0l3.5-3.5C24.098,19.316,24.098,18.684,23.707,18.293z"/>
		</g>
	</g>
	<g id="New_icons">
	</g>
</g>
<g id="Invisible_Shape">
	<rect fill="none" width="24" height="24"/>
</g>
</svg>
