<?xml version="1.0" encoding="utf-8"?>
<!-- Generator: Adobe Illustrator 19.2.1, SVG Export Plug-In . SVG Version: 6.00 Build 0)  -->
<svg version="1.1" xmlns="http://www.w3.org/2000/svg" xmlns:xlink="http://www.w3.org/1999/xlink" x="0px" y="0px" width="24px"
	 height="24px" viewBox="0 0 24 24" enable-background="new 0 0 24 24" xml:space="preserve">
<g id="Filled_Icons_1_">
	<g id="Filled_Icons">
		<g>
			<path d="M17,5V1c0-0.846-0.989-1.309-1.641-0.769l-6,5C8.644,5.829,9.067,7,10,7h7c2.757,0,5,2.243,5,5c0,2.757-2.243,5-5,5
				c-0.553,0-1,0.447-1,1c0,0.553,0.447,1,1,1c3.859,0,7-3.141,7-7C24,8.141,20.859,5,17,5z"/>
			<path d="M7,19v4c0,0.846,0.989,1.309,1.641,0.769l6-5C15.356,18.171,14.933,17,14,17H7c-2.757,0-5-2.243-5-5c0-2.757,2.243-5,5-5
				c0.553,0,1-0.447,1-1c0-0.553-0.447-1-1-1c-3.859,0-7,3.141-7,7C0,15.859,3.141,19,7,19z"/>
		</g>
	</g>
	<g id="New_icons">
	</g>
</g>
<g id="Invisible_Shape">
	<rect fill="none" width="24" height="24"/>
</g>
</svg>
