<?xml version="1.0" encoding="utf-8"?>
<!-- Generator: Adobe Illustrator 19.2.1, SVG Export Plug-In . SVG Version: 6.00 Build 0)  -->
<svg version="1.1" xmlns="http://www.w3.org/2000/svg" xmlns:xlink="http://www.w3.org/1999/xlink" x="0px" y="0px" width="24px"
	 height="24px" viewBox="0 0 24 24" enable-background="new 0 0 24 24" xml:space="preserve">
<g id="Filled_Icons_1_">
	<g id="Filled_Icons">
		<path d="M19.207,3.793l-3.5-3.5c-0.391-0.391-1.023-0.391-1.414,0l-3.5,3.5c-0.391,0.391-0.391,1.023,0,1.414
			c0.391,0.391,1.023,0.391,1.414,0L14,3.414v11.218L6.555,9.668C5.89,9.226,5,9.704,5,10.5v12c0,0.553,0.447,1,1,1s1-0.447,1-1
			V12.368l7.445,4.964C15.11,17.774,16,17.296,16,16.5V3.414l1.793,1.793c0.391,0.391,1.023,0.391,1.414,0
			C19.598,4.816,19.598,4.184,19.207,3.793z"/>
	</g>
	<g id="New_icons">
	</g>
</g>
<g id="Invisible_Shape">
	<rect fill="none" width="24" height="24"/>
</g>
</svg>
