<?xml version="1.0" encoding="utf-8"?>
<!-- Generator: Adobe Illustrator 19.2.1, SVG Export Plug-In . SVG Version: 6.00 Build 0)  -->
<svg version="1.1" xmlns="http://www.w3.org/2000/svg" xmlns:xlink="http://www.w3.org/1999/xlink" x="0px" y="0px" width="24px"
	 height="24px" viewBox="0 0 24 24" enable-background="new 0 0 24 24" xml:space="preserve">
<g id="Filled_Icons_1_">
	<g id="Filled_Icons">
		<path d="M23.207,7.293l-3.5-3.5c-0.391-0.391-1.023-0.391-1.414,0l-3.5,3.5c-0.391,0.391-0.391,1.023,0,1.414
			c0.391,0.391,1.023,0.391,1.414,0L18,6.914V16c0,1.379-1.121,2.5-2.5,2.5S13,17.379,13,16V8c0-2.481-2.019-4.5-4.5-4.5
			S4,5.519,4,8v9.086l-1.793-1.793c-0.391-0.391-1.023-0.391-1.414,0c-0.391,0.391-0.391,1.023,0,1.414l3.5,3.5
			c0.391,0.391,1.023,0.391,1.414,0l3.5-3.5c0.391-0.391,0.391-1.023,0-1.414c-0.391-0.391-1.023-0.391-1.414,0L6,17.086V8
			c0-1.379,1.121-2.5,2.5-2.5S11,6.621,11,8v8c0,2.481,2.019,4.5,4.5,4.5S20,18.481,20,16V6.914l1.793,1.793
			c0.391,0.391,1.023,0.391,1.414,0C23.598,8.316,23.598,7.684,23.207,7.293z"/>
	</g>
	<g id="New_icons">
	</g>
</g>
<g id="Invisible_Shape">
	<rect fill="none" width="24" height="24"/>
</g>
</svg>
