<?xml version="1.0" encoding="utf-8"?>
<!-- Generator: Adobe Illustrator 19.2.1, SVG Export Plug-In . SVG Version: 6.00 Build 0)  -->
<svg version="1.1" xmlns="http://www.w3.org/2000/svg" xmlns:xlink="http://www.w3.org/1999/xlink" x="0px" y="0px" width="24px"
	 height="24px" viewBox="0 0 24 24" enable-background="new 0 0 24 24" xml:space="preserve">
<g id="Filled_Icons_1_">
	<g id="Filled_Icons">
		<path d="M16,12H7c-1.379,0-2.5-1.121-2.5-2.5C4.5,8.121,5.621,7,7,7h10.086l-2.293,2.293c-0.391,0.391-0.391,1.023,0,1.414
			c0.391,0.391,1.023,0.391,1.414,0l4-4c0.391-0.391,0.391-1.023,0-1.414l-4-4c-0.391-0.391-1.023-0.391-1.414,0
			c-0.391,0.391-0.391,1.023,0,1.414L17.086,5H7C4.519,5,2.5,7.019,2.5,9.5C2.5,11.981,4.519,14,7,14h9c1.379,0,2.5,1.121,2.5,2.5
			c0,1.379-1.121,2.5-2.5,2.5H4.5c-0.553,0-1,0.447-1,1c0,0.553,0.447,1,1,1H16c2.481,0,4.5-2.019,4.5-4.5
			C20.5,14.019,18.481,12,16,12z"/>
	</g>
	<g id="New_icons">
	</g>
</g>
<g id="Invisible_Shape">
	<rect fill="none" width="24" height="24"/>
</g>
</svg>
