<?xml version="1.0" encoding="utf-8"?>
<!-- Generator: Adobe Illustrator 19.2.1, SVG Export Plug-In . SVG Version: 6.00 Build 0)  -->
<svg version="1.1" xmlns="http://www.w3.org/2000/svg" xmlns:xlink="http://www.w3.org/1999/xlink" x="0px" y="0px" width="24px"
	 height="24px" viewBox="0 0 24 24" enable-background="new 0 0 24 24" xml:space="preserve">
<g id="Filled_Icon">
	<g>
		<path d="M23.5,18c-7.364,0-5.707,0-9,0c-0.276,0-0.5,0.224-0.5,0.5V19h-4v-0.5c0-0.276-0.224-0.5-0.5-0.5c-3.293,0-1.635,0-9,0
			C0.224,18,0,18.224,0,18.5v2C0,21.327,0.673,22,1.5,22h21c0.827,0,1.5-0.673,1.5-1.5v-2C24,18.224,23.776,18,23.5,18z"/>
		<path d="M9.5,17c0.653,0,1.209,0.418,1.415,1h2.17c0.206-0.582,0.762-1,1.415-1H23V6c0-1.103-0.897-2-2-2H3C1.898,4,1,4.897,1,6
			v11H9.5z M6.184,10.113l5.5-4.5c0.184-0.15,0.449-0.15,0.633,0l5.425,4.438c0.503,0.247,0.261,1.011-0.241,0.948H16v4.5
			c0,0.276-0.224,0.5-0.5,0.5h-2l0,0v-3.5c0-0.276-0.224-0.5-0.5-0.5h-2c-0.276,0-0.5,0.224-0.5,0.5V16l0,0h-2
			C8.224,16,8,15.776,8,15.5V11H6.5C6.034,11,5.819,10.41,6.184,10.113z"/>
	</g>
</g>
<g id="Invisible_Shape">
	<rect fill="none" width="24" height="24"/>
</g>
</svg>
