<?xml version="1.0" encoding="utf-8"?>
<!-- Generator: Adobe Illustrator 19.2.1, SVG Export Plug-In . SVG Version: 6.00 Build 0)  -->
<svg version="1.1" xmlns="http://www.w3.org/2000/svg" xmlns:xlink="http://www.w3.org/1999/xlink" x="0px" y="0px" width="24px"
	 height="24px" viewBox="0 0 24 24" enable-background="new 0 0 24 24" xml:space="preserve">
<g id="Filled_Icon">
	<g>
		<path d="M23.5,18c-7.364,0-5.707,0-9,0c-0.276,0-0.5,0.224-0.5,0.5V19h-4v-0.5c0-0.276-0.224-0.5-0.5-0.5c-3.293,0-1.635,0-9,0
			C0.224,18,0,18.224,0,18.5v2C0,21.327,0.673,22,1.5,22h21c0.827,0,1.5-0.673,1.5-1.5v-2C24,18.224,23.776,18,23.5,18z"/>
		<path d="M9.5,17c0.653,0,1.209,0.418,1.415,1h2.17c0.206-0.582,0.762-1,1.415-1H23V6c0-1.103-0.897-2-2-2H3C1.898,4,1,4.897,1,6
			v11H9.5z M7.5,6.892c0-0.407,0.462-0.642,0.786-0.409c1.45,1.012,2.641,0.757,3.316-0.106c0.189-0.243,0.604-0.243,0.794-0.001
			c0.679,0.865,1.867,1.118,3.317,0.107C16.041,6.25,16.5,6.485,16.5,6.892v5.926c0,0.802-1.463,2.734-4.365,3.548
			c-0.092,0.024-0.176,0.025-0.27,0C8.963,15.552,7.5,13.619,7.5,12.817V6.892z"/>
		<path d="M10.016,11.5H11.5V13c0,0.276,0.224,0.5,0.5,0.5s0.5-0.224,0.5-0.5v-1.5H14c0.276,0,0.5-0.224,0.5-0.5s-0.224-0.5-0.5-0.5
			h-1.5V9c0-0.276-0.224-0.5-0.5-0.5S11.5,8.724,11.5,9v1.5h-1.484c-0.276,0-0.5,0.224-0.5,0.5S9.739,11.5,10.016,11.5z"/>
	</g>
</g>
<g id="Invisible_Shape">
	<rect fill="none" width="24" height="24"/>
</g>
</svg>
