<?xml version="1.0" encoding="utf-8"?>
<!-- Generator: Adobe Illustrator 19.2.1, SVG Export Plug-In . SVG Version: 6.00 Build 0)  -->
<svg version="1.1" xmlns="http://www.w3.org/2000/svg" xmlns:xlink="http://www.w3.org/1999/xlink" x="0px" y="0px" width="24px"
	 height="24px" viewBox="0 0 24 24" enable-background="new 0 0 24 24" xml:space="preserve">
<g id="Filled_Icon">
	<g>
		<path d="M9.5,17c0.653,0,1.209,0.418,1.415,1h2.17c0.206-0.582,0.762-1,1.415-1H23V6c0-1.103-0.897-2-2-2H3C1.898,4,1,4.897,1,6
			v11H9.5z M9.727,7.002c0.771,0,1.674,0.377,2.273,1.356c0.599-0.98,1.501-1.356,2.273-1.356c1.341,0,2.727,1.107,2.727,2.96
			c0,2.581-4.226,5.698-4.708,6.046c-0.174,0.125-0.41,0.125-0.584,0C11.226,15.66,7,12.543,7,9.962
			C7,8.109,8.387,7.002,9.727,7.002z"/>
		<path d="M23.5,18c-7.364,0-5.707,0-9,0c-0.276,0-0.5,0.224-0.5,0.5V19h-4v-0.5c0-0.276-0.224-0.5-0.5-0.5c-3.293,0-1.635,0-9,0
			C0.224,18,0,18.224,0,18.5v2C0,21.327,0.673,22,1.5,22h21c0.827,0,1.5-0.673,1.5-1.5v-2C24,18.224,23.776,18,23.5,18z"/>
	</g>
</g>
<g id="Invisible_Shape">
	<rect fill="none" width="24" height="24"/>
</g>
</svg>
