<?xml version="1.0" encoding="utf-8"?>
<!-- Generator: Adobe Illustrator 19.2.1, SVG Export Plug-In . SVG Version: 6.00 Build 0)  -->
<svg version="1.1" xmlns="http://www.w3.org/2000/svg" xmlns:xlink="http://www.w3.org/1999/xlink" x="0px" y="0px" width="24px"
	 height="24px" viewBox="0 0 24 24" enable-background="new 0 0 24 24" xml:space="preserve">
<g id="Filled_Icon">
	<g>
		<path d="M23.5,18H23h-8.5c-0.276,0-0.5,0.224-0.5,0.5V19h-4v-0.5c0-0.276-0.224-0.5-0.5-0.5H1H0.5C0.224,18,0,18.224,0,18.5v2
			C0,21.327,0.673,22,1.5,22h21c0.827,0,1.5-0.673,1.5-1.5v-2C24,18.224,23.776,18,23.5,18z"/>
		<path d="M21,3H3C1.898,3,1,3.897,1,5v12h8.5c0.653,0,1.209,0.418,1.415,1h2.17c0.206-0.582,0.762-1,1.415-1H23V5
			C23,3.897,22.103,3,21,3z M16,15.5H8c-0.276,0-0.5-0.224-0.5-0.5c0-1.84,1.112-3.42,2.697-4.117C9.475,10.334,9,9.475,9,8.5
			c0-1.654,1.346-3,3-3s3,1.346,3,3c0,0.975-0.475,1.834-1.197,2.383C15.388,11.58,16.5,13.16,16.5,15
			C16.5,15.276,16.276,15.5,16,15.5z"/>
	</g>
</g>
<g id="Invisible_Shape">
	<rect fill="none" width="24" height="24"/>
</g>
</svg>
