<?xml version="1.0" encoding="utf-8"?>
<!-- Generator: Adobe Illustrator 19.2.1, SVG Export Plug-In . SVG Version: 6.00 Build 0)  -->
<svg version="1.1" xmlns="http://www.w3.org/2000/svg" xmlns:xlink="http://www.w3.org/1999/xlink" x="0px" y="0px" width="24px"
	 height="24px" viewBox="0 0 24 24" enable-background="new 0 0 24 24" xml:space="preserve">
<g id="Filled_Icon">
	<g>
		<path d="M23.5,18c-7.364,0-5.707,0-9,0c-0.276,0-0.5,0.224-0.5,0.5V19h-4v-0.5c0-0.276-0.224-0.5-0.5-0.5c-3.293,0-1.635,0-9,0
			C0.224,18,0,18.224,0,18.5v2C0,21.327,0.673,22,1.5,22h21c0.827,0,1.5-0.673,1.5-1.5v-2C24,18.224,23.776,18,23.5,18z"/>
		<path d="M9.5,17c0.653,0,1.209,0.418,1.415,1h2.17c0.206-0.582,0.762-1,1.415-1H23V6c0-1.103-0.897-2-2-2H3C1.898,4,1,4.897,1,6
			v11H9.5z M9.5,15.984c-0.552,0-1-0.449-1-1c0-0.551,0.448-1,1-1s1,0.449,1,1C10.5,15.535,10.052,15.984,9.5,15.984z M14.5,15.984
			c-0.552,0-1-0.449-1-1c0-0.551,0.448-1,1-1s1,0.449,1,1C15.5,15.535,15.052,15.984,14.5,15.984z M6,6.5h2.5C8.776,6.5,9,6.724,9,7
			v1.5h6.5C15.776,8.5,16,8.724,16,9v4c0,0.276-0.224,0.5-0.5,0.5h-7C8.224,13.5,8,13.276,8,13V7.5H6C5.724,7.5,5.5,7.276,5.5,7
			S5.724,6.5,6,6.5z"/>
	</g>
</g>
<g id="Invisible_Shape">
	<rect fill="none" width="24" height="24"/>
</g>
</svg>
