<?xml version="1.0" encoding="utf-8"?>
<!-- Generator: Adobe Illustrator 19.2.1, SVG Export Plug-In . SVG Version: 6.00 Build 0)  -->
<svg version="1.1" xmlns="http://www.w3.org/2000/svg" xmlns:xlink="http://www.w3.org/1999/xlink" x="0px" y="0px" width="24px"
	 height="24px" viewBox="0 0 24 24" enable-background="new 0 0 24 24" xml:space="preserve">
<g id="Filled_Icon">
	<g>
		<path d="M21,2.5C21,1.121,19.878,0,18.5,0h-16C1.121,0,0,1.121,0,2.5V4h21V2.5z M3.5,3C3.223,3,3,2.776,3,2.5S3.223,2,3.5,2
			C3.775,2,4,2.224,4,2.5S3.775,3,3.5,3z M5.5,3C5.223,3,5,2.776,5,2.5S5.223,2,5.5,2C5.775,2,6,2.224,6,2.5S5.775,3,5.5,3z M7.5,3
			C7.223,3,7,2.776,7,2.5S7.223,2,7.5,2C7.775,2,8,2.224,8,2.5S7.775,3,7.5,3z"/>
		<path d="M12.501,15h2.572l1.577-3.168c0.551-1.112,2.146-1.104,2.693-0.002L21,14.998V5H0v9.5C0,15.879,1.121,17,2.5,17h8.597
			C10.743,16.006,11.468,15,12.501,15z"/>
		<path d="M23.493,16h-3.191l-1.854-3.724c-0.177-0.356-0.715-0.376-0.902,0.003l-1.854,3.723h-3.191
			c-0.468,0-0.679,0.587-0.32,0.885l2.738,2.281l-1.391,4.17c-0.162,0.465,0.353,0.846,0.748,0.569l3.723-2.545l3.719,2.542
			c0.397,0.276,0.911-0.107,0.748-0.569l-1.391-4.17l2.738-2.281C24.168,16.591,23.965,16,23.493,16z"/>
	</g>
</g>
<g id="Invisible_Shape">
	<rect fill="none" width="24" height="24"/>
</g>
</svg>
