<?xml version="1.0" encoding="utf-8"?>
<!-- Generator: Adobe Illustrator 19.2.1, SVG Export Plug-In . SVG Version: 6.00 Build 0)  -->
<svg version="1.1" xmlns="http://www.w3.org/2000/svg" xmlns:xlink="http://www.w3.org/1999/xlink" x="0px" y="0px" width="24px"
	 height="24px" viewBox="0 0 24 24" enable-background="new 0 0 24 24" xml:space="preserve">
<g id="Filled_Icon">
	<g>
		<path d="M23,6.513V16.5c0,1.93-1.57,3.5-3.5,3.5H4.513c0.456,0.604,1.174,1,1.987,1h15c1.378,0,2.5-1.121,2.5-2.5v-10
			C24,7.687,23.604,6.97,23,6.513z"/>
		<path d="M22,16.5v-10c0-0.718-0.326-1.473-1-1.987c0,7.027,0,4.953,0,11.987c0,0.827-0.673,1.5-1.5,1.5H2.513
			c0.481,0.642,1.238,1,1.987,1h15C20.878,19,22,17.879,22,16.5z"/>
		<path d="M17.5,17c1.378,0,2.5-1.121,2.5-2.5V7H0v7.5C0,15.879,1.121,17,2.5,17H17.5z"/>
		<path d="M20,6V4.5C20,3.121,18.878,2,17.5,2h-15C1.121,2,0,3.121,0,4.5V6H20z M3.5,5C3.224,5,3,4.776,3,4.5S3.224,4,3.5,4
			S4,4.224,4,4.5S3.776,5,3.5,5z M5.5,5C5.224,5,5,4.776,5,4.5S5.224,4,5.5,4S6,4.224,6,4.5S5.776,5,5.5,5z M7.5,5
			C7.224,5,7,4.776,7,4.5S7.224,4,7.5,4S8,4.224,8,4.5S7.776,5,7.5,5z"/>
	</g>
</g>
<g id="Invisible_Shape">
	<rect fill="none" width="24" height="24"/>
</g>
</svg>
