<?xml version="1.0" encoding="utf-8"?>
<!-- Generator: Adobe Illustrator 19.2.1, SVG Export Plug-In . SVG Version: 6.00 Build 0)  -->
<svg version="1.1" xmlns="http://www.w3.org/2000/svg" xmlns:xlink="http://www.w3.org/1999/xlink" x="0px" y="0px" width="24px"
	 height="24px" viewBox="0 0 24 24" enable-background="new 0 0 24 24" xml:space="preserve">
<g id="Filled_Icon">
	<g>
		<path d="M24,7V4.5C24,3.121,22.879,2,21.5,2h-19C1.121,2,0,3.121,0,4.5V7H24z M10,4c0.552,0,1,0.449,1,1s-0.448,1-1,1S9,5.551,9,5
			S9.448,4,10,4z M7,4c0.552,0,1,0.449,1,1S7.552,6,7,6S6,5.551,6,5S6.448,4,7,4z M4,4c0.552,0,1,0.449,1,1S4.552,6,4,6S3,5.551,3,5
			S3.448,4,4,4z"/>
		<path d="M0,8v10.5C0,19.879,1.121,21,2.5,21h19c1.379,0,2.5-1.121,2.5-2.5V8H0z M11,17.404c-0.021-0.107-2.982-5.034-3.039-5.129
			c-0.163-0.273-0.581-0.352-0.818-0.059C2.312,18.17,3,17.5,3,17.5v-7C3,10.224,3.224,10,3.5,10h7c0.276,0,0.5,0.224,0.5,0.5
			V17.404z M21,17.404c-0.021-0.107-2.982-5.034-3.039-5.129c-0.164-0.275-0.58-0.351-0.818-0.059C12.312,18.17,13,17.5,13,17.5v-7
			c0-0.276,0.224-0.5,0.5-0.5h7c0.276,0,0.5,0.224,0.5,0.5V17.404z"/>
	</g>
</g>
<g id="Invisible_Shape">
	<rect fill="none" width="24" height="24"/>
</g>
</svg>
