<?xml version="1.0" encoding="utf-8"?>
<!-- Generator: Adobe Illustrator 19.2.1, SVG Export Plug-In . SVG Version: 6.00 Build 0)  -->
<svg version="1.1" xmlns="http://www.w3.org/2000/svg" xmlns:xlink="http://www.w3.org/1999/xlink" x="0px" y="0px" width="24px"
	 height="24px" viewBox="0 0 24 24" enable-background="new 0 0 24 24" xml:space="preserve">
<g id="Filled_Icon">
	<g>
		<path d="M21,2.5C21,1.121,19.878,0,18.5,0h-16C1.121,0,0,1.121,0,2.5V4h21V2.5z M3.5,3C3.223,3,3,2.776,3,2.5S3.223,2,3.5,2
			C3.775,2,4,2.224,4,2.5S3.775,3,3.5,3z M5.5,3C5.223,3,5,2.776,5,2.5S5.223,2,5.5,2C5.775,2,6,2.224,6,2.5S5.775,3,5.5,3z M7.5,3
			C7.223,3,7,2.776,7,2.5S7.223,2,7.5,2C7.775,2,8,2.224,8,2.5S7.775,3,7.5,3z"/>
		<path d="M12,15.5c0-0.827,0.673-1.5,1.5-1.5h0.527c0.371-3.337,4.158-5.123,6.973-3.226V5H0v9.5C0,15.879,1.121,17,2.5,17H12V15.5
			z"/>
		<path d="M23.5,15H22v-0.5c0-1.929-1.57-3.5-3.5-3.5S15,12.571,15,14.5V15h-1.5c-0.276,0-0.5,0.224-0.5,0.5v8
			c0,0.276,0.224,0.5,0.5,0.5h10c0.276,0,0.5-0.224,0.5-0.5v-8C24,15.224,23.776,15,23.5,15z M19,19.348V21
			c0,0.276-0.224,0.5-0.5,0.5S18,21.276,18,21v-1.652c-0.293-0.176-0.5-0.483-0.5-0.848c0-0.551,0.448-1,1-1s1,0.449,1,1
			C19.5,18.865,19.293,19.172,19,19.348z M21,15h-5v-0.5c0-1.378,1.121-2.5,2.5-2.5s2.5,1.122,2.5,2.5V15z"/>
	</g>
</g>
<g id="Invisible_Shape">
	<rect fill="none" width="24" height="24"/>
</g>
</svg>
