<?xml version="1.0" encoding="utf-8"?>
<!-- Generator: Adobe Illustrator 19.2.1, SVG Export Plug-In . SVG Version: 6.00 Build 0)  -->
<svg version="1.1" xmlns="http://www.w3.org/2000/svg" xmlns:xlink="http://www.w3.org/1999/xlink" x="0px" y="0px" width="24px"
	 height="24px" viewBox="0 0 24 24" enable-background="new 0 0 24 24" xml:space="preserve">
<g id="Filled_Icon">
	<g>
		<g>
			<path d="M24,4V2.5C24,1.121,22.879,0,21.5,0h-16C4.121,0,3,1.121,3,2.5V4H24z M10.5,2C10.776,2,11,2.224,11,2.5S10.776,3,10.5,3
				S10,2.776,10,2.5S10.224,2,10.5,2z M8.5,2C8.776,2,9,2.224,9,2.5S8.776,3,8.5,3C8.225,3,8,2.776,8,2.5S8.225,2,8.5,2z M6.5,2
				C6.777,2,7,2.224,7,2.5S6.777,3,6.5,3C6.225,3,6,2.776,6,2.5S6.225,2,6.5,2z"/>
			<path d="M3,5v8.5C3,14.879,4.121,16,5.5,16h2.366l5.009-5H12c-0.828,0-1.5-0.672-1.5-1.5S11.172,8,12,8h4.5c0,0,0,0,0.001,0
				h0.001C17.333,8.002,18,8.68,18,9.5v3.958c0,0.829-0.672,1.5-1.5,1.5s-1.5-0.671-1.5-1.5v-0.341L12.112,16H21.5
				c1.379,0,2.5-1.121,2.5-2.5V5H3z"/>
		</g>
		<path d="M16.997,9.486C16.987,9.189,16.75,9,16.5,9H12c-0.276,0-0.5,0.224-0.5,0.5S11.724,10,12,10h3.291l-8.559,8.545
			c-0.195,0.195-0.195,0.512,0,0.707c0.195,0.195,0.512,0.195,0.707,0L16,10.706v2.752c0,0.276,0.224,0.5,0.5,0.5s0.5-0.224,0.5-0.5
			V9.5C17,9.495,16.997,9.491,16.997,9.486z"/>
		<path d="M8.5,21h-7C1.224,21,1,21.224,1,21.5v2C1,23.776,1.224,24,1.5,24h7C8.776,24,9,23.776,9,23.5v-2C9,21.224,8.776,21,8.5,21
			z"/>
	</g>
</g>
<g id="Invisible_Shape">
	<rect fill="none" width="24" height="24"/>
</g>
</svg>
