<?xml version="1.0" encoding="utf-8"?>
<!-- Generator: Adobe Illustrator 19.2.1, SVG Export Plug-In . SVG Version: 6.00 Build 0)  -->
<svg version="1.1" xmlns="http://www.w3.org/2000/svg" xmlns:xlink="http://www.w3.org/1999/xlink" x="0px" y="0px" width="24px"
	 height="24px" viewBox="0 0 24 24" enable-background="new 0 0 24 24" xml:space="preserve">
<g id="Filled_Icon">
	<g>
		<path d="M19.525,0h-17C1.133,0,0,1.121,0,2.5V4h22V2.5C22,1.121,20.89,0,19.525,0z M3.525,3c-0.275,0-0.5-0.224-0.5-0.5
			S3.25,2,3.525,2c0.277,0,0.5,0.224,0.5,0.5S3.803,3,3.525,3z M5.525,3c-0.275,0-0.5-0.224-0.5-0.5S5.25,2,5.525,2
			c0.277,0,0.5,0.224,0.5,0.5S5.803,3,5.525,3z M7.525,3c-0.275,0-0.5-0.224-0.5-0.5S7.25,2,7.525,2c0.277,0,0.5,0.224,0.5,0.5
			S7.803,3,7.525,3z"/>
		<path d="M0,13.5C0,14.879,1.133,16,2.525,16H10v-4c0-0.827,0.673-1.5,1.5-1.5c0.826,0,1.5,0.673,1.5,1.5v4h6.525
			C20.89,16,22,14.879,22,13.5V5H0V13.5z"/>
		<path d="M15.88,19.147L15.88,19.147l-0.001-0.002c-0.191-0.189-0.512-0.189-0.703-0.002c-0.001,0.002-0.002,0.002-0.003,0.003
			L12,22.319V12c0-0.275-0.225-0.5-0.5-0.5c-0.276,0-0.5,0.225-0.5,0.5v10.267l-3.12-3.12c-0.192-0.192-0.509-0.199-0.707,0
			c-0.199,0.199-0.193,0.514,0,0.707l3.918,3.918c0.211,0.293,0.579,0.287,0.789,0.082l4-4v-0.001
			C16.074,19.658,16.074,19.343,15.88,19.147z"/>
	</g>
</g>
<g id="Invisible_Shape">
	<rect fill="none" width="24" height="24"/>
</g>
</svg>
