<?xml version="1.0" encoding="utf-8"?>
<!-- Generator: Adobe Illustrator 19.2.1, SVG Export Plug-In . SVG Version: 6.00 Build 0)  -->
<svg version="1.1" xmlns="http://www.w3.org/2000/svg" xmlns:xlink="http://www.w3.org/1999/xlink" x="0px" y="0px" width="24px"
	 height="24px" viewBox="0 0 24 24" enable-background="new 0 0 24 24" xml:space="preserve">
<g id="Filled_Icon">
	<g>
		<g>
			<path d="M21,4V2.5C21,1.121,19.879,0,18.5,0h-16C1.121,0,0,1.121,0,2.5V4H21z M7.5,2C7.776,2,8,2.224,8,2.5S7.776,3,7.5,3
				S7,2.776,7,2.5S7.224,2,7.5,2z M5.5,2C5.776,2,6,2.224,6,2.5S5.776,3,5.5,3C5.225,3,5,2.776,5,2.5S5.225,2,5.5,2z M3.5,2
				C3.776,2,4,2.224,4,2.5S3.776,3,3.5,3C3.225,3,3,2.776,3,2.5S3.225,2,3.5,2z"/>
			<path d="M0,5v8.5C0,14.879,1.121,16,2.5,16h8.373l-5.847-5.837C4.439,9.578,4.439,8.628,5.024,8.042
				C5.61,7.455,6.56,7.455,7.146,8.04L14,14.883V14c0-0.828,0.672-1.5,1.5-1.5S17,13.172,17,14v2h1.5c1.379,0,2.5-1.121,2.5-2.5V5H0
				z"/>
		</g>
		<path d="M15.5,13.5c-0.276,0-0.5,0.224-0.5,0.5v3.294L6.439,8.748c-0.195-0.195-0.512-0.195-0.707,0
			c-0.195,0.195-0.195,0.513,0,0.707L14.291,18H11c-0.276,0-0.5,0.224-0.5,0.5S10.724,19,11,19h4.5c0.283,0,0.5-0.231,0.5-0.5V14
			C16,13.724,15.776,13.5,15.5,13.5z"/>
		<path d="M23.5,21h-9c-0.276,0-0.5,0.224-0.5,0.5v2c0,0.276,0.224,0.5,0.5,0.5h9c0.276,0,0.5-0.224,0.5-0.5v-2
			C24,21.224,23.776,21,23.5,21z"/>
	</g>
</g>
<g id="Invisible_Shape">
	<rect fill="none" width="24" height="24"/>
</g>
</svg>
