<?xml version="1.0" encoding="utf-8"?>
<!-- Generator: Adobe Illustrator 19.2.1, SVG Export Plug-In . SVG Version: 6.00 Build 0)  -->
<svg version="1.1" xmlns="http://www.w3.org/2000/svg" xmlns:xlink="http://www.w3.org/1999/xlink" x="0px" y="0px" width="24px"
	 height="24px" viewBox="0 0 24 24" enable-background="new 0 0 24 24" xml:space="preserve">
<g id="Filled_Icon">
	<g>
		<path d="M0,8v10.5C0,19.879,1.121,21,2.5,21h19c1.379,0,2.5-1.121,2.5-2.5V8H0z M9.161,12.391c0.202-0.188,0.52-0.174,0.706,0.027
			L12,14.729v-4.705c0-0.276,0.224-0.5,0.5-0.5s0.5,0.224,0.5,0.5v4.705l2.133-2.311c0.188-0.201,0.505-0.215,0.706-0.027
			c0.203,0.188,0.216,0.503,0.028,0.707c-0.057,0.061-2.949,3.196-3.008,3.255c-0.199,0.207-0.52,0.207-0.719,0
			c-0.107-0.111-2.899-3.138-3.008-3.255C8.945,12.894,8.958,12.578,9.161,12.391z M18,18c0,0.276-0.224,0.5-0.5,0.5h-10
			C7.224,18.5,7,18.276,7,18v-1.992c0-0.276,0.224-0.5,0.5-0.5s0.5,0.224,0.5,0.5V17.5h9v-1.492c0-0.276,0.224-0.5,0.5-0.5
			s0.5,0.224,0.5,0.5V18z"/>
		<path d="M24,7V4.5C24,3.121,22.879,2,21.5,2h-19C1.121,2,0,3.121,0,4.5V7H24z M10,4c0.552,0,1,0.449,1,1s-0.448,1-1,1S9,5.551,9,5
			S9.448,4,10,4z M7,4c0.552,0,1,0.449,1,1S7.552,6,7,6S6,5.551,6,5S6.448,4,7,4z M4,4c0.552,0,1,0.449,1,1S4.552,6,4,6S3,5.551,3,5
			S3.448,4,4,4z"/>
	</g>
</g>
<g id="Invisible_Shape">
	<rect fill="none" width="24" height="24"/>
</g>
</svg>
