<?xml version="1.0" encoding="utf-8"?>
<!-- Generator: Adobe Illustrator 19.2.1, SVG Export Plug-In . SVG Version: 6.00 Build 0)  -->
<svg version="1.1" xmlns="http://www.w3.org/2000/svg" xmlns:xlink="http://www.w3.org/1999/xlink" x="0px" y="0px" width="24px"
	 height="24px" viewBox="0 0 24 24" enable-background="new 0 0 24 24" xml:space="preserve">
<g id="Filled_Icon">
	<g>
		<path d="M21,4V2.5C21,1.121,19.879,0,18.5,0h-16C1.121,0,0,1.121,0,2.5V4H21z M7.5,2C7.776,2,8,2.224,8,2.5S7.776,3,7.5,3
			S7,2.776,7,2.5S7.224,2,7.5,2z M5.5,2C5.776,2,6,2.224,6,2.5S5.776,3,5.5,3S5,2.776,5,2.5S5.224,2,5.5,2z M3.5,2
			C3.776,2,4,2.224,4,2.5S3.776,3,3.5,3S3,2.776,3,2.5S3.224,2,3.5,2z"/>
		<path d="M11,13.531c0-0.828,0.672-1.5,1.5-1.5c0.359,0,0.685,0.132,0.943,0.343c0.685-0.694,3.706-1.214,4.69-1.214
			c1.641,0,2.433,0.78,2.682,1.625c0.059,0,0.122-0.005,0.185-0.008V5H0v9.5C0,15.879,1.121,17,2.5,17H11V13.531z"/>
		<path d="M23.349,13.33c-0.772,0.206-3.442,0.887-3.442,0.084c0-2.023-3.65-1.126-5.569-0.473C14.135,13.012,14,13.201,14,13.414
			v5.783c0,0.35,0.346,0.582,0.663,0.473c0.021-0.008,2.117-0.727,3.471-0.727c0.232,0,0.772,0.025,0.772,0.254
			c0,1.892,2.928,1.452,4.743,0.893C23.857,20.025,24,19.832,24,19.613v-5.807C24,13.467,23.669,13.229,23.349,13.33z"/>
		<g>
			<path d="M12.5,24c-0.276,0-0.5-0.224-0.5-0.5v-10c0-0.276,0.224-0.5,0.5-0.5s0.5,0.224,0.5,0.5v10C13,23.776,12.776,24,12.5,24z"
				/>
		</g>
	</g>
</g>
<g id="Invisible_Shape">
	<rect fill="none" width="24" height="24"/>
</g>
</svg>
