<?xml version="1.0" encoding="utf-8"?>
<!-- Generator: Adobe Illustrator 19.2.1, SVG Export Plug-In . SVG Version: 6.00 Build 0)  -->
<svg version="1.1" xmlns="http://www.w3.org/2000/svg" xmlns:xlink="http://www.w3.org/1999/xlink" x="0px" y="0px" width="24px"
	 height="24px" viewBox="0 0 24 24" enable-background="new 0 0 24 24" xml:space="preserve">
<g id="Filled_Icon">
	<g>
		<g>
			<path d="M21,4V2.5C21,1.121,19.879,0,18.5,0h-16C1.121,0,0,1.121,0,2.5V4H21z M7.5,2C7.776,2,8,2.224,8,2.5S7.776,3,7.5,3
				S7,2.776,7,2.5S7.224,2,7.5,2z M5.5,2C5.776,2,6,2.224,6,2.5S5.776,3,5.5,3S5,2.776,5,2.5S5.224,2,5.5,2z M3.5,2
				C3.776,2,4,2.224,4,2.5S3.776,3,3.5,3S3,2.776,3,2.5S3.224,2,3.5,2z"/>
			<path d="M16.516,14.999h3.179l-1.465-1.358c-0.607-0.564-0.643-1.512-0.079-2.12c0.565-0.608,1.513-0.643,2.12-0.079L21,12.118V5
				H0v9.5C0,15.879,1.121,17,2.5,17h9.775C13.285,15.778,14.811,14.999,16.516,14.999z"/>
		</g>
		<path d="M23.84,16.117l-4.25-3.942c-0.2-0.186-0.517-0.177-0.706,0.026c-0.189,0.202-0.177,0.519,0.026,0.707l3.332,3.091h-5.727
			c-2.481,0-4.5,2.019-4.5,4.5v3c0,0.276,0.224,0.5,0.5,0.5c0.276,0,0.5-0.224,0.5-0.5v-3c0-1.93,1.57-3.5,3.5-3.5h5.711
			l-3.32,3.137c-0.2,0.189-0.209,0.506-0.02,0.707c0.191,0.201,0.506,0.208,0.707,0.02l4.203-3.972
			C24.067,16.687,24.054,16.315,23.84,16.117z"/>
	</g>
</g>
<g id="Invisible_Shape">
	<rect fill="none" width="24" height="24"/>
</g>
</svg>
