<?xml version="1.0" encoding="utf-8"?>
<!-- Generator: Adobe Illustrator 19.2.1, SVG Export Plug-In . SVG Version: 6.00 Build 0)  -->
<svg version="1.1" xmlns="http://www.w3.org/2000/svg" xmlns:xlink="http://www.w3.org/1999/xlink" x="0px" y="0px" width="24px"
	 height="24px" viewBox="0 0 24 24" enable-background="new 0 0 24 24" xml:space="preserve">
<g id="Filled_Icon">
	<g>
		<path d="M24,5V2.5C24,1.121,22.879,0,21.5,0h-19C1.121,0,0,1.121,0,2.5V5H24z M10,2c0.552,0,1,0.449,1,1s-0.448,1-1,1S9,3.551,9,3
			S9.448,2,10,2z M7,2c0.552,0,1,0.449,1,1S7.552,4,7,4S6,3.551,6,3S6.448,2,7,2z M4,2c0.552,0,1,0.449,1,1S4.552,4,4,4S3,3.551,3,3
			S3.448,2,4,2z"/>
		<path d="M0,6v15.5C0,22.879,1.121,24,2.5,24h19c1.379,0,2.5-1.121,2.5-2.5V6H0z M8,21H4c-0.276,0-0.5-0.224-0.5-0.5S3.724,20,4,20
			h4c0.276,0,0.5,0.224,0.5,0.5S8.276,21,8,21z M8,19H4c-0.276,0-0.5-0.224-0.5-0.5S3.724,18,4,18h4c0.276,0,0.5,0.224,0.5,0.5
			S8.276,19,8,19z M11,16.5c0,0.276-0.224,0.5-0.5,0.5h-7C3.224,17,3,16.776,3,16.5v-8C3,8.224,3.224,8,3.5,8h7
			C10.776,8,11,8.224,11,8.5V16.5z M21,20.5c0,0.276-0.224,0.5-0.5,0.5h-7c-0.276,0-0.5-0.224-0.5-0.5v-5c0-0.276,0.224-0.5,0.5-0.5
			h7c0.276,0,0.5,0.224,0.5,0.5V20.5z M21,13.5c0,0.276-0.224,0.5-0.5,0.5h-7c-0.276,0-0.5-0.224-0.5-0.5v-5
			C13,8.224,13.224,8,13.5,8h7C20.776,8,21,8.224,21,8.5V13.5z"/>
		<path d="M4.043,16h5.912c-0.14-1.119-0.733-2.061-1.553-2.577C8.771,13.061,9,12.557,9,12c0-1.102-0.898-2-2-2s-2,0.898-2,2
			c0,0.557,0.229,1.06,0.598,1.423C4.777,13.939,4.183,14.881,4.043,16z"/>
	</g>
</g>
<g id="Invisible_Shape">
	<rect fill="none" width="24" height="24"/>
</g>
</svg>
