<?xml version="1.0" encoding="utf-8"?>
<!-- Generator: Adobe Illustrator 19.2.1, SVG Export Plug-In . SVG Version: 6.00 Build 0)  -->
<svg version="1.1" xmlns="http://www.w3.org/2000/svg" xmlns:xlink="http://www.w3.org/1999/xlink" x="0px" y="0px" width="24px"
	 height="24px" viewBox="0 0 24 24" enable-background="new 0 0 24 24" xml:space="preserve">
<g id="Filled_Icon">
	<g>
		<path d="M0,18.5C0,19.879,1.121,21,2.5,21h19c1.378,0,2.5-1.121,2.5-2.5V8H0V18.5z M19,10h2v2h-2V10z M19,13h2v2h-2V13z M19,16h2
			v2h-2V16z M15,10h2v2h-2V10z M15,13h2v2h-2V13z M15,16h2v2h-2V16z M11,10h2v2h-2V10z M11,13h2v2h-2V13z M11,16h2v2h-2V16z M7,10h2
			v2H7V10z M7,13h2v2H7V13z M7,16h2v2H7V16z M3,10h2v2H3V10z M3,13h2v2H3V13z M3,16h2v2H3V16z"/>
		<path d="M21.5,2h-19C1.121,2,0,3.121,0,4.5V7h24V4.5C24,3.121,22.878,2,21.5,2z M4,6C3.448,6,3,5.552,3,5s0.448-1,1-1
			c0.551,0,1,0.448,1,1S4.551,6,4,6z M7,6C6.448,6,6,5.552,6,5s0.448-1,1-1c0.551,0,1,0.448,1,1S7.551,6,7,6z M10,6
			C9.448,6,9,5.552,9,5s0.448-1,1-1c0.551,0,1,0.448,1,1S10.551,6,10,6z"/>
	</g>
</g>
<g id="Invisible_Shape">
	<rect fill="none" width="24" height="24"/>
</g>
</svg>
