<?xml version="1.0" encoding="utf-8"?>
<!-- Generator: Adobe Illustrator 19.2.1, SVG Export Plug-In . SVG Version: 6.00 Build 0)  -->
<svg version="1.1" xmlns="http://www.w3.org/2000/svg" xmlns:xlink="http://www.w3.org/1999/xlink" x="0px" y="0px" width="24px"
	 height="24px" viewBox="0 0 24 24" enable-background="new 0 0 24 24" xml:space="preserve">
<g id="Filled_Icon">
	<g>
		<path d="M17.5,11c-3.584,0-6.5,2.916-6.5,6.5s2.916,6.5,6.5,6.5s6.5-2.916,6.5-6.5S21.084,11,17.5,11z M17.5,16.928
			c1.043,0,1.891,0.849,1.891,1.893c0,0.869-0.592,1.594-1.391,1.815v0.502c0,0.276-0.224,0.5-0.5,0.5s-0.5-0.224-0.5-0.5v-0.502
			c-0.799-0.221-1.391-0.945-1.391-1.815c0-0.276,0.224-0.5,0.5-0.5c0.276,0,0.5,0.224,0.5,0.5c0,0.491,0.399,0.891,0.891,0.891
			s0.891-0.399,0.891-0.891c0-0.492-0.399-0.893-0.891-0.893c-1.043,0-1.891-0.848-1.891-1.891c0-0.869,0.592-1.594,1.391-1.814
			v-0.504c0-0.276,0.224-0.5,0.5-0.5s0.5,0.224,0.5,0.5v0.504c0.799,0.221,1.391,0.945,1.391,1.814c0,0.276-0.224,0.5-0.5,0.5
			c-0.276,0-0.5-0.224-0.5-0.5c0-0.491-0.399-0.891-0.891-0.891s-0.891,0.399-0.891,0.891S17.009,16.928,17.5,16.928z"/>
		<g>
			<path d="M21,2.5C21,1.121,19.878,0,18.5,0h-16C1.121,0,0,1.121,0,2.5V4h21V2.5z M3.5,3C3.223,3,3,2.776,3,2.5S3.223,2,3.5,2
				C3.775,2,4,2.224,4,2.5S3.775,3,3.5,3z M5.5,3C5.223,3,5,2.776,5,2.5S5.223,2,5.5,2C5.775,2,6,2.224,6,2.5S5.775,3,5.5,3z M7.5,3
				C7.223,3,7,2.776,7,2.5S7.223,2,7.5,2C7.775,2,8,2.224,8,2.5S7.775,3,7.5,3z"/>
			<path d="M21,10.871V5H0v9.5C0,15.879,1.121,17,2.5,17h7.525C10.383,11.604,16.202,8.331,21,10.871z"/>
		</g>
	</g>
</g>
<g id="Invisible_Shape">
	<rect fill="none" width="24" height="24"/>
</g>
</svg>
