<?xml version="1.0" encoding="utf-8"?>
<!-- Generator: Adobe Illustrator 19.2.1, SVG Export Plug-In . SVG Version: 6.00 Build 0)  -->
<svg version="1.1" xmlns="http://www.w3.org/2000/svg" xmlns:xlink="http://www.w3.org/1999/xlink" x="0px" y="0px" width="24px"
	 height="24px" viewBox="0 0 24 24" enable-background="new 0 0 24 24" xml:space="preserve">
<g id="Filled_Icon">
	<g>
		<path d="M23.5,2h-23C0.224,2,0,2.224,0,2.5V7h24V2.5C24,2.224,23.776,2,23.5,2z M14,6c-0.552,0-1-0.448-1-1s0.448-1,1-1
			c0.551,0,1,0.448,1,1S14.551,6,14,6z M17,6c-0.552,0-1-0.448-1-1s0.448-1,1-1c0.551,0,1,0.448,1,1S17.551,6,17,6z M20,6
			c-0.552,0-1-0.448-1-1s0.448-1,1-1c0.551,0,1,0.448,1,1S20.551,6,20,6z"/>
		<path d="M0,21.5C0,21.776,0.224,22,0.5,22h23c0.276,0,0.5-0.224,0.5-0.5V8H0V21.5z"/>
	</g>
</g>
<g id="Invisible_Shape">
	<rect fill="none" width="24" height="24"/>
</g>
</svg>
