<?xml version="1.0" encoding="utf-8"?>
<!-- Generator: Adobe Illustrator 19.2.1, SVG Export Plug-In . SVG Version: 6.00 Build 0)  -->
<svg version="1.1" xmlns="http://www.w3.org/2000/svg" xmlns:xlink="http://www.w3.org/1999/xlink" x="0px" y="0px" width="24px"
	 height="24px" viewBox="0 0 24 24" enable-background="new 0 0 24 24" xml:space="preserve">
<g id="Filled_Icon">
	<g>
		<path d="M21.5,2h-19C1.121,2,0,3.121,0,4.5V7h24V4.5C24,3.121,22.879,2,21.5,2z M4,6C3.449,6,3,5.552,3,5s0.449-1,1-1s1,0.448,1,1
			S4.551,6,4,6z M7,6C6.449,6,6,5.552,6,5s0.449-1,1-1s1,0.448,1,1S7.551,6,7,6z M10,6C9.449,6,9,5.552,9,5s0.449-1,1-1s1,0.448,1,1
			S10.551,6,10,6z"/>
		<g>
			<circle cx="12" cy="16" r="1"/>
			<path d="M12,10c-1.102,0-2,0.898-2,2v1h4v-1C14,10.898,13.102,10,12,10z"/>
			<path d="M0,8v10.5C0,19.879,1.121,21,2.5,21h19c1.379,0,2.5-1.121,2.5-2.5V8H0z M16,18.5c0,0.276-0.224,0.5-0.5,0.5h-7
				C8.224,19,8,18.776,8,18.5v-5C8,13.224,8.224,13,8.5,13H9v-1c0-1.654,1.346-3,3-3s3,1.346,3,3v1h0.5c0.276,0,0.5,0.224,0.5,0.5
				V18.5z"/>
		</g>
	</g>
</g>
<g id="Invisible_Shape">
	<rect fill="none" width="24" height="24"/>
</g>
</svg>
