<?xml version="1.0" encoding="utf-8"?>
<!-- Generator: Adobe Illustrator 19.2.1, SVG Export Plug-In . SVG Version: 6.00 Build 0)  -->
<svg version="1.1" xmlns="http://www.w3.org/2000/svg" xmlns:xlink="http://www.w3.org/1999/xlink" x="0px" y="0px" width="24px"
	 height="24px" viewBox="0 0 24 24" enable-background="new 0 0 24 24" xml:space="preserve">
<g id="Filled_Icon">
	<g>
		<path d="M0,12.5C0,13.879,1.121,15,2.5,15h15c1.378,0,2.5-1.121,2.5-2.5V4H0V12.5z"/>
		<path d="M17.5,0h-15C1.121,0,0,1.121,0,2.5V3h20V2.5C20,1.121,18.878,0,17.5,0z M3,2.5C2.724,2.5,2.5,2.276,2.5,2S2.724,1.5,3,1.5
			c0.275,0,0.5,0.224,0.5,0.5S3.275,2.5,3,2.5z M5,2.5C4.724,2.5,4.5,2.276,4.5,2S4.724,1.5,5,1.5c0.275,0,0.5,0.224,0.5,0.5
			S5.275,2.5,5,2.5z M7,2.5C6.724,2.5,6.5,2.276,6.5,2S6.724,1.5,7,1.5c0.275,0,0.5,0.224,0.5,0.5S7.275,2.5,7,2.5z"/>
	</g>
</g>
<g id="Invisible_Shape">
	<rect fill="none" width="24" height="24"/>
</g>
</svg>
