<?xml version="1.0" encoding="utf-8"?>
<!-- Generator: Adobe Illustrator 19.2.1, SVG Export Plug-In . SVG Version: 6.00 Build 0)  -->
<svg version="1.1" xmlns="http://www.w3.org/2000/svg" xmlns:xlink="http://www.w3.org/1999/xlink" x="0px" y="0px" width="24px"
	 height="24px" viewBox="0 0 24 24" enable-background="new 0 0 24 24" xml:space="preserve">
<g id="Filled_Icon">
	<g>
		<path d="M24,7V4.5C24,3.121,22.879,2,21.5,2h-19C1.121,2,0,3.121,0,4.5V7H24z M10,4c0.552,0,1,0.449,1,1s-0.448,1-1,1S9,5.551,9,5
			S9.448,4,10,4z M7,4c0.552,0,1,0.449,1,1S7.552,6,7,6S6,5.551,6,5S6.448,4,7,4z M4,4c0.552,0,1,0.449,1,1S4.552,6,4,6S3,5.551,3,5
			S3.448,4,4,4z"/>
		<path d="M23.515,11c-0.276,0-0.5-0.224-0.5-0.5s0.224-0.5,0.5-0.5H24V8H0v2h0.499c0.276,0,0.5,0.224,0.5,0.5S0.775,11,0.499,11H0
			v7.5C0,19.879,1.121,21,2.5,21h19c1.379,0,2.5-1.121,2.5-2.5V11H23.515z M11.5,10h0.999c0.276,0,0.5,0.224,0.5,0.5
			s-0.224,0.5-0.5,0.5H11.5c-0.276,0-0.5-0.224-0.5-0.5S11.224,10,11.5,10z M3.499,11H2.5C2.224,11,2,10.776,2,10.5S2.224,10,2.5,10
			h0.999c0.276,0,0.5,0.224,0.5,0.5S3.775,11,3.499,11z M6.499,11H5.5C5.224,11,5,10.776,5,10.5S5.224,10,5.5,10h0.999
			c0.276,0,0.5,0.224,0.5,0.5S6.775,11,6.499,11z M8,10.5C8,10.224,8.224,10,8.5,10h0.999c0.276,0,0.5,0.224,0.5,0.5
			S9.775,11,9.499,11H8.5C8.224,11,8,10.776,8,10.5z M15.864,15.601l-3,3.189c-0.002,0.002-0.005,0.003-0.006,0.005
			c-0.211,0.211-0.521,0.195-0.717,0c-0.001-0.002-0.004-0.003-0.006-0.005l-3-3.189c-0.189-0.201-0.18-0.518,0.021-0.707
			c0.201-0.189,0.518-0.18,0.707,0.021L12,17.185v-4.662c0-0.276,0.224-0.5,0.5-0.5s0.5,0.224,0.5,0.5v4.662l2.136-2.27
			c0.19-0.201,0.506-0.21,0.707-0.021C16.044,15.083,16.054,15.399,15.864,15.601z M15.515,11h-1c-0.276,0-0.5-0.224-0.5-0.5
			s0.224-0.5,0.5-0.5h1c0.276,0,0.5,0.224,0.5,0.5S15.791,11,15.515,11z M18.515,11h-1c-0.276,0-0.5-0.224-0.5-0.5
			s0.224-0.5,0.5-0.5h1c0.276,0,0.5,0.224,0.5,0.5S18.791,11,18.515,11z M21.499,11H20.5c-0.276,0-0.5-0.224-0.5-0.5
			s0.224-0.5,0.5-0.5h0.999c0.276,0,0.5,0.224,0.5,0.5S21.775,11,21.499,11z"/>
	</g>
</g>
<g id="Invisible_Shape">
	<rect fill="none" width="24" height="24"/>
</g>
</svg>
