<?xml version="1.0" encoding="utf-8"?>
<!-- Generator: Adobe Illustrator 19.2.1, SVG Export Plug-In . SVG Version: 6.00 Build 0)  -->
<svg version="1.1" xmlns="http://www.w3.org/2000/svg" xmlns:xlink="http://www.w3.org/1999/xlink" x="0px" y="0px" width="24px"
	 height="24px" viewBox="0 0 24 24" enable-background="new 0 0 24 24" xml:space="preserve">
<g id="Filled_Icon">
	<g>
		<path d="M21.5,2h-19C1.121,2,0,3.121,0,4.5V7h24V4.5C24,3.121,22.879,2,21.5,2z M4,6C3.448,6,3,5.551,3,5s0.448-1,1-1s1,0.449,1,1
			S4.552,6,4,6z M7,6C6.448,6,6,5.551,6,5s0.448-1,1-1s1,0.449,1,1S7.552,6,7,6z M10,6C9.448,6,9,5.551,9,5s0.448-1,1-1s1,0.449,1,1
			S10.552,6,10,6z"/>
		<path d="M15.493,18.636c-0.478-0.697-0.743-1.528-0.743-2.386c0-2.344,1.906-4.25,4.25-4.25c2.344,0,4.25,1.906,4.25,4.25
			c0,0.857-0.266,1.688-0.743,2.386c0.594,0.426,1.096,0.954,1.493,1.552c0-4.174,0-7.962,0-12.188H0c0,9.185,0-2.601,0,10.5
			C0,19.879,1.121,21,2.5,21c4.232,0,7.721,0,11.055,0C13.985,20.065,14.644,19.245,15.493,18.636z M8.5,10h10
			c0.276,0,0.5,0.224,0.5,0.5S18.776,11,18.5,11h-10C8.224,11,8,10.776,8,10.5S8.224,10,8.5,10z M8.5,13h4
			c0.276,0,0.5,0.224,0.5,0.5S12.776,14,12.5,14h-4C8.224,14,8,13.776,8,13.5S8.224,13,8.5,13z M5.5,17h-1C4.224,17,4,16.776,4,16.5
			S4.224,16,4.5,16h1C5.776,16,6,16.224,6,16.5S5.776,17,5.5,17z M5.5,14h-1C4.224,14,4,13.776,4,13.5S4.224,13,4.5,13h1
			C5.776,13,6,13.224,6,13.5S5.776,14,5.5,14z M5.5,11h-1C4.224,11,4,10.776,4,10.5S4.224,10,4.5,10h1C5.776,10,6,10.224,6,10.5
			S5.776,11,5.5,11z M12.5,17h-4C8.224,17,8,16.776,8,16.5S8.224,16,8.5,16h4c0.276,0,0.5,0.224,0.5,0.5S12.776,17,12.5,17z"/>
		<path d="M20.896,18.879c0.816-0.592,1.354-1.546,1.354-2.629c0-1.792-1.458-3.25-3.25-3.25s-3.25,1.458-3.25,3.25
			c0,1.083,0.538,2.037,1.354,2.629C15.286,19.627,14,21.414,14,23.5c0,0.276,0.224,0.5,0.5,0.5h9c0.276,0,0.5-0.224,0.5-0.5
			C24,21.414,22.714,19.627,20.896,18.879z"/>
	</g>
</g>
<g id="Invisible_Shape">
	<rect fill="none" width="24" height="24"/>
</g>
</svg>
