<?xml version="1.0" encoding="utf-8"?>
<!-- Generator: Adobe Illustrator 19.2.1, SVG Export Plug-In . SVG Version: 6.00 Build 0)  -->
<svg version="1.1" xmlns="http://www.w3.org/2000/svg" xmlns:xlink="http://www.w3.org/1999/xlink" x="0px" y="0px" width="24px"
	 height="24px" viewBox="0 0 24 24" enable-background="new 0 0 24 24" xml:space="preserve">
<g id="Filled_Icon">
	<g>
		<path d="M0,8v10.5C0,19.879,1.121,21,2.5,21h19c1.379,0,2.5-1.121,2.5-2.5V8H0z M8,19.5c-0.552,0-1-0.449-1-1s0.448-1,1-1
			s1,0.449,1,1S8.552,19.5,8,19.5z M12.356,19.5c0-2.953-2.403-5.356-5.356-5.356v-1c3.505,0,6.356,2.852,6.356,6.356H12.356z
			 M15.989,19.5c0-4.956-4.032-8.989-8.989-8.989v-1c5.508,0,9.989,4.481,9.989,9.989H15.989z"/>
		<path d="M24,7V4.5C24,3.121,22.879,2,21.5,2h-19C1.121,2,0,3.121,0,4.5V7H24z M10,4c0.552,0,1,0.449,1,1s-0.448,1-1,1S9,5.551,9,5
			S9.448,4,10,4z M7,4c0.552,0,1,0.449,1,1S7.552,6,7,6S6,5.551,6,5S6.448,4,7,4z M4,4c0.552,0,1,0.449,1,1S4.552,6,4,6S3,5.551,3,5
			S3.448,4,4,4z"/>
	</g>
</g>
<g id="Invisible_Shape">
	<rect fill="none" width="24" height="24"/>
</g>
</svg>
