<?xml version="1.0" encoding="utf-8"?>
<!-- Generator: Adobe Illustrator 19.2.1, SVG Export Plug-In . SVG Version: 6.00 Build 0)  -->
<svg version="1.1" xmlns="http://www.w3.org/2000/svg" xmlns:xlink="http://www.w3.org/1999/xlink" x="0px" y="0px" width="24px"
	 height="24px" viewBox="0 0 24 24" enable-background="new 0 0 24 24" xml:space="preserve">
<g id="Filled_Icon">
	<g>
		<path d="M4.5,16h-4C0.224,16,0,16.224,0,16.5v7C0,23.776,0.224,24,0.5,24h4C4.775,24,5,23.776,5,23.5v-7C5,16.224,4.775,16,4.5,16
			z M2.5,22C2.224,22,2,21.776,2,21.5S2.224,21,2.5,21C2.775,21,3,21.224,3,21.5S2.775,22,2.5,22z"/>
		<path d="M19.442,20H9.5C9.224,20,9,19.776,9,19.5S9.224,19,9.5,19h2.616c0.466,0,0.679-0.584,0.321-0.883
			C11.734,17.527,10.773,17,9.5,17h-3C6.224,17,6,17.224,6,17.5v5C6,22.776,6.224,23,6.5,23H23c0.275,0,0.5-0.224,0.5-0.5
			C23.5,21.162,21.722,20.59,19.442,20z"/>
		<path d="M21.562,12.75V3.98c-0.021,0.003-0.041,0.013-0.062,0.013H3.125c-0.023,0-0.041-0.01-0.062-0.013v8.821
			C3.062,14.014,4.048,15,5.26,15h14.053C20.553,15,21.562,13.991,21.562,12.75z"/>
		<path d="M21.5,2.993c0.021,0,0.041,0.01,0.062,0.013V2.25c0-1.241-1.01-2.25-2.25-2.25h-14c-1.241,0-2.25,1.009-2.25,2.25v0.756
			c0.022-0.003,0.04-0.013,0.062-0.013H21.5z M9.688,0.993c0.241,0,0.438,0.196,0.438,0.437S9.929,1.868,9.688,1.868
			c-0.242,0-0.438-0.196-0.438-0.438S9.445,0.993,9.688,0.993z M7.938,0.993c0.241,0,0.438,0.196,0.438,0.437
			S8.179,1.868,7.938,1.868C7.695,1.868,7.5,1.672,7.5,1.431S7.695,0.993,7.938,0.993z M6.188,0.993
			c0.241,0,0.438,0.196,0.438,0.437S6.429,1.868,6.188,1.868c-0.242,0-0.438-0.196-0.438-0.438S5.945,0.993,6.188,0.993z"/>
	</g>
</g>
<g id="Invisible_Shape">
	<rect fill="none" width="24" height="24"/>
</g>
</svg>
