<?xml version="1.0" encoding="utf-8"?>
<!-- Generator: Adobe Illustrator 19.2.1, SVG Export Plug-In . SVG Version: 6.00 Build 0)  -->
<svg version="1.1" xmlns="http://www.w3.org/2000/svg" xmlns:xlink="http://www.w3.org/1999/xlink" x="0px" y="0px" width="24px"
	 height="24px" viewBox="0 0 24 24" enable-background="new 0 0 24 24" xml:space="preserve">
<g id="Filled_Icon">
	<g>
		<path d="M21.5,2h-19C1.121,2,0,3.121,0,4.5V7h24V4.5C24,3.121,22.879,2,21.5,2z M4,6C3.449,6,3,5.552,3,5s0.449-1,1-1s1,0.448,1,1
			S4.551,6,4,6z M7,6C6.449,6,6,5.552,6,5s0.449-1,1-1s1,0.448,1,1S7.551,6,7,6z M10,6C9.449,6,9,5.552,9,5s0.449-1,1-1s1,0.448,1,1
			S10.551,6,10,6z"/>
		<path d="M0,18.5C0,19.879,1.121,21,2.5,21h19c1.379,0,2.5-1.121,2.5-2.5V8H0V18.5z M7,9.5C7,9.224,7.224,9,7.5,9h8
			C15.776,9,16,9.224,16,9.5v2c0,0.276-0.224,0.5-0.5,0.5S15,11.776,15,11.5V10h-3v8.5c0,0.276-0.224,0.5-0.5,0.5S11,18.776,11,18.5
			V10H8v1.5C8,11.776,7.776,12,7.5,12S7,11.776,7,11.5V9.5z"/>
	</g>
</g>
<g id="Invisible_Shape">
	<rect fill="none" width="24" height="24"/>
</g>
</svg>
