<?xml version="1.0" encoding="utf-8"?>
<!-- Generator: Adobe Illustrator 19.2.1, SVG Export Plug-In . SVG Version: 6.00 Build 0)  -->
<svg version="1.1" xmlns="http://www.w3.org/2000/svg" xmlns:xlink="http://www.w3.org/1999/xlink" x="0px" y="0px" width="24px"
	 height="24px" viewBox="0 0 24 24" enable-background="new 0 0 24 24" xml:space="preserve">
<g id="Filled_Icon">
	<g>
		<path d="M4,14.5C4,15.879,5.121,17,6.5,17h11c1.378,0,2.5-1.121,2.5-2.5V10H4V14.5z"/>
		<path d="M17.5,6h-11C5.121,6,4,7.121,4,8.5V9h16V8.5C20,7.121,18.878,6,17.5,6z M7,8.5C6.724,8.5,6.5,8.276,6.5,8
			c0-0.276,0.224-0.5,0.5-0.5c0.275,0,0.5,0.224,0.5,0.5C7.5,8.276,7.275,8.5,7,8.5z M9,8.5C8.724,8.5,8.5,8.276,8.5,8
			c0-0.276,0.224-0.5,0.5-0.5c0.275,0,0.5,0.224,0.5,0.5C9.5,8.276,9.275,8.5,9,8.5z M11,8.5c-0.276,0-0.5-0.224-0.5-0.5
			c0-0.276,0.224-0.5,0.5-0.5c0.275,0,0.5,0.224,0.5,0.5C11.5,8.276,11.275,8.5,11,8.5z"/>
	</g>
</g>
<g id="Invisible_Shape">
	<rect fill="none" width="24" height="24"/>
</g>
</svg>
