<?xml version="1.0" encoding="utf-8"?>
<!-- Generator: Adobe Illustrator 19.2.1, SVG Export Plug-In . SVG Version: 6.00 Build 0)  -->
<svg version="1.1" xmlns="http://www.w3.org/2000/svg" xmlns:xlink="http://www.w3.org/1999/xlink" x="0px" y="0px" width="24px"
	 height="24px" viewBox="0 0 24 24" enable-background="new 0 0 24 24" xml:space="preserve">
<g id="Filled_Icon">
	<g>
		<path d="M0,21.5C0,21.776,0.224,22,0.5,22h23c0.276,0,0.5-0.224,0.5-0.5V8H0V21.5z M9.5,10h9c0.276,0,0.5,0.224,0.5,0.5
			S18.776,11,18.5,11h-9C9.224,11,9,10.776,9,10.5S9.224,10,9.5,10z M9.5,13h9c0.276,0,0.5,0.224,0.5,0.5S18.776,14,18.5,14h-9
			C9.224,14,9,13.776,9,13.5S9.224,13,9.5,13z M9.5,16h9c0.276,0,0.5,0.224,0.5,0.5S18.776,17,18.5,17h-9C9.224,17,9,16.776,9,16.5
			S9.224,16,9.5,16z M5.5,10h1C6.776,10,7,10.224,7,10.5S6.776,11,6.5,11h-1C5.224,11,5,10.776,5,10.5S5.224,10,5.5,10z M5.5,13h1
			C6.776,13,7,13.224,7,13.5S6.776,14,6.5,14h-1C5.224,14,5,13.776,5,13.5S5.224,13,5.5,13z M5.5,16h1C6.776,16,7,16.224,7,16.5
			S6.776,17,6.5,17h-1C5.224,17,5,16.776,5,16.5S5.224,16,5.5,16z"/>
		<path d="M23.5,2h-23C0.224,2,0,2.224,0,2.5V7h24V2.5C24,2.224,23.776,2,23.5,2z M14,6c-0.552,0-1-0.448-1-1s0.448-1,1-1
			c0.551,0,1,0.448,1,1S14.551,6,14,6z M17,6c-0.552,0-1-0.448-1-1s0.448-1,1-1c0.551,0,1,0.448,1,1S17.551,6,17,6z M20,6
			c-0.552,0-1-0.448-1-1s0.448-1,1-1c0.551,0,1,0.448,1,1S20.551,6,20,6z"/>
	</g>
</g>
<g id="Invisible_Shape">
	<rect fill="none" width="24" height="24"/>
</g>
</svg>
