<?xml version="1.0" encoding="utf-8"?>
<!-- Generator: Adobe Illustrator 19.2.1, SVG Export Plug-In . SVG Version: 6.00 Build 0)  -->
<svg version="1.1" xmlns="http://www.w3.org/2000/svg" xmlns:xlink="http://www.w3.org/1999/xlink" x="0px" y="0px" width="24px"
	 height="24px" viewBox="0 0 24 24" enable-background="new 0 0 24 24" xml:space="preserve">
<g id="Filled_Icon">
	<g>
		<path d="M21,2.5C21,1.121,19.878,0,18.5,0h-16C1.121,0,0,1.121,0,2.5V4h21V2.5z M3.5,3C3.223,3,3,2.776,3,2.5S3.223,2,3.5,2
			C3.775,2,4,2.224,4,2.5S3.775,3,3.5,3z M5.5,3C5.223,3,5,2.776,5,2.5S5.223,2,5.5,2C5.775,2,6,2.224,6,2.5S5.775,3,5.5,3z M7.5,3
			C7.223,3,7,2.776,7,2.5S7.223,2,7.5,2C7.775,2,8,2.224,8,2.5S7.775,3,7.5,3z"/>
		<path d="M15.648,15.749l2.358-1.18c-0.045-1.735,1.188-3.242,2.993-3.511V5H0v9.5C0,15.879,1.121,17,2.5,17h7.852
			C11.331,14.952,13.911,14.373,15.648,15.749z"/>
		<path d="M21.5,19c-0.891,0-1.668,0.472-2.111,1.175l-3.428-1.286c0.052-0.338,0.069-0.57-0.056-1.032l3.638-1.818
			C20.002,16.619,20.703,17,21.5,17c1.379,0,2.5-1.121,2.5-2.5c0-1.378-1.121-2.5-2.5-2.5c-1.59,0-2.848,1.499-2.405,3.144
			l-3.639,1.819C14.998,16.381,14.296,16,13.5,16c-1.379,0-2.5,1.122-2.5,2.5c0,1.379,1.121,2.5,2.5,2.5
			c0.891,0,1.668-0.471,2.111-1.173l3.428,1.286C18.792,22.708,20.032,24,21.5,24c1.379,0,2.5-1.121,2.5-2.5
			C24,20.122,22.879,19,21.5,19z M21.5,13c0.827,0,1.5,0.673,1.5,1.5S22.327,16,21.5,16S20,15.327,20,14.5S20.673,13,21.5,13z
			 M13.5,20c-0.827,0-1.5-0.673-1.5-1.5s0.673-1.5,1.5-1.5s1.5,0.673,1.5,1.5S14.327,20,13.5,20z M21.5,23
			c-0.827,0-1.5-0.673-1.5-1.5s0.673-1.5,1.5-1.5s1.5,0.673,1.5,1.5S22.327,23,21.5,23z"/>
	</g>
</g>
<g id="Invisible_Shape">
	<rect fill="none" width="24" height="24"/>
</g>
</svg>
