<?xml version="1.0" encoding="utf-8"?>
<!-- Generator: Adobe Illustrator 19.2.1, SVG Export Plug-In . SVG Version: 6.00 Build 0)  -->
<svg version="1.1" xmlns="http://www.w3.org/2000/svg" xmlns:xlink="http://www.w3.org/1999/xlink" x="0px" y="0px" width="24px"
	 height="24px" viewBox="0 0 24 24" enable-background="new 0 0 24 24" xml:space="preserve">
<g id="Filled_Icon">
	<path d="M21,2.5C21,1.121,19.878,0,18.5,0h-16C1.121,0,0,1.121,0,2.5V4h21V2.5z M3.5,3C3.223,3,3,2.776,3,2.5S3.223,2,3.5,2
		C3.775,2,4,2.224,4,2.5S3.775,3,3.5,3z M5.5,3C5.223,3,5,2.776,5,2.5S5.223,2,5.5,2C5.775,2,6,2.224,6,2.5S5.775,3,5.5,3z M7.5,3
		C7.223,3,7,2.776,7,2.5S7.223,2,7.5,2C7.775,2,8,2.224,8,2.5S7.775,3,7.5,3z"/>
	<g>
		<path d="M7.723,16.717l7.505-4.503c0.473-0.281,1.077-0.278,1.54-0.003L21,14.75V5H0v9.5C0,15.879,1.121,17,2.5,17h4.893
			C7.488,16.894,7.595,16.795,7.723,16.717z"/>
		<g>
			<path d="M23.758,17.571l-7.5-4.5c-0.158-0.094-0.357-0.094-0.516,0l-7.5,4.5c-0.236,0.143-0.312,0.449-0.171,0.686
				c0.142,0.236,0.448,0.314,0.687,0.171L16,14.083l7.242,4.346c0.238,0.143,0.545,0.065,0.686-0.171
				C24.07,18.021,23.994,17.715,23.758,17.571z"/>
			<path d="M16,15.25l-5,3v5.25c0,0.276,0.224,0.5,0.5,0.5H14v-4.5c0-0.276,0.224-0.5,0.5-0.5h3c0.276,0,0.5,0.224,0.5,0.5V24h2.5
				c0.276,0,0.5-0.224,0.5-0.5v-5.25L16,15.25z"/>
		</g>
	</g>
</g>
<g id="Invisible_Shape">
	<rect fill="none" width="24" height="24"/>
</g>
</svg>
