<?xml version="1.0" encoding="utf-8"?>
<!-- Generator: Adobe Illustrator 19.2.1, SVG Export Plug-In . SVG Version: 6.00 Build 0)  -->
<svg version="1.1" xmlns="http://www.w3.org/2000/svg" xmlns:xlink="http://www.w3.org/1999/xlink" x="0px" y="0px" width="24px"
	 height="24px" viewBox="0 0 24 24" enable-background="new 0 0 24 24" xml:space="preserve">
<g id="Filled_Icon">
	<g>
		<path d="M24.001,7V4.5c0-1.379-1.121-2.5-2.5-2.5h-19c-1.379,0-2.5,1.121-2.5,2.5V7H24.001z M10.001,4c0.552,0,1,0.449,1,1
			s-0.448,1-1,1c-0.552,0-1-0.449-1-1S9.449,4,10.001,4z M7.001,4c0.552,0,1,0.449,1,1s-0.448,1-1,1c-0.552,0-1-0.449-1-1
			S6.449,4,7.001,4z M4.001,4c0.552,0,1,0.449,1,1s-0.448,1-1,1c-0.552,0-1-0.449-1-1S3.449,4,4.001,4z"/>
		<path d="M23.5,18c-0.276,0-0.5-0.224-0.5-0.5s0.224-0.5,0.5-0.5h0.501V8h-24v9h0.498c0.276,0,0.5,0.224,0.5,0.5S0.775,18,0.499,18
			H0.001v0.5c0,1.379,1.121,2.5,2.5,2.5h19c1.379,0,2.5-1.121,2.5-2.5V18H23.5z M3.5,18H2.501c-0.276,0-0.5-0.224-0.5-0.5
			s0.224-0.5,0.5-0.5H3.5C3.776,17,4,17.224,4,17.5S3.776,18,3.5,18z M6.5,18H5.501c-0.276,0-0.5-0.224-0.5-0.5s0.224-0.5,0.5-0.5
			H6.5C6.776,17,7,17.224,7,17.5S6.776,18,6.5,18z M9.5,18H8.501c-0.276,0-0.5-0.224-0.5-0.5s0.224-0.5,0.5-0.5H9.5
			c0.276,0,0.5,0.224,0.5,0.5S9.776,18,9.5,18z M12.5,18h-0.999c-0.276,0-0.5-0.224-0.5-0.5s0.224-0.5,0.5-0.5H12.5
			c0.276,0,0.5,0.224,0.5,0.5S12.776,18,12.5,18z M12.5,16.008c-0.276,0-0.5-0.224-0.5-0.5v-4.705l-2.133,2.311
			c-0.186,0.201-0.503,0.215-0.706,0.027c-0.203-0.188-0.216-0.504-0.028-0.707l3-3.25c0.002-0.002,0.005-0.002,0.008-0.004
			c0.198-0.209,0.521-0.209,0.719,0c0.003,0.002,0.006,0.002,0.008,0.004l3,3.25c0.188,0.203,0.175,0.519-0.028,0.707
			c-0.2,0.186-0.515,0.177-0.706-0.027L13,10.803v4.705C13,15.784,12.776,16.008,12.5,16.008z M15.5,18h-0.999
			c-0.276,0-0.5-0.224-0.5-0.5s0.224-0.5,0.5-0.5H15.5c0.276,0,0.5,0.224,0.5,0.5S15.776,18,15.5,18z M18.516,18h-1
			c-0.276,0-0.5-0.224-0.5-0.5s0.224-0.5,0.5-0.5h1c0.276,0,0.5,0.224,0.5,0.5S18.792,18,18.516,18z M21.516,18h-1
			c-0.276,0-0.5-0.224-0.5-0.5s0.224-0.5,0.5-0.5h1c0.276,0,0.5,0.224,0.5,0.5S21.792,18,21.516,18z"/>
	</g>
</g>
<g id="Invisible_Shape">
	<rect fill="none" width="24" height="24"/>
</g>
</svg>
