<?xml version="1.0" encoding="utf-8"?>
<!-- Generator: Adobe Illustrator 19.2.1, SVG Export Plug-In . SVG Version: 6.00 Build 0)  -->
<svg version="1.1" xmlns="http://www.w3.org/2000/svg" xmlns:xlink="http://www.w3.org/1999/xlink" x="0px" y="0px" width="24px"
	 height="24px" viewBox="0 0 24 24" enable-background="new 0 0 24 24" xml:space="preserve">
<g id="Filled_Icon">
	<g>
		<path d="M24,7V4.5C24,3.121,22.879,2,21.5,2h-19C1.121,2,0,3.121,0,4.5V7H24z M10,4c0.552,0,1,0.448,1,1s-0.448,1-1,1S9,5.552,9,5
			S9.448,4,10,4z M7,4c0.552,0,1,0.448,1,1S7.552,6,7,6S6,5.552,6,5S6.448,4,7,4z M4,4c0.552,0,1,0.448,1,1S4.552,6,4,6S3,5.552,3,5
			S3.448,4,4,4z"/>
		<path d="M0,8v10.5C0,19.879,1.121,21,2.5,21h19c1.379,0,2.5-1.121,2.5-2.5V8H0z M7,17.5C7,17.776,6.776,18,6.5,18h-3
			C3.224,18,3,17.776,3,17.5v-2C3,15.224,3.224,15,3.5,15h3C6.776,15,7,15.224,7,15.5V17.5z M7,12.5C7,12.776,6.776,13,6.5,13h-3
			C3.224,13,3,12.776,3,12.5v-2C3,10.224,3.224,10,3.5,10h3C6.776,10,7,10.224,7,10.5V12.5z M20.5,17h-11C9.224,17,9,16.776,9,16.5
			S9.224,16,9.5,16h11c0.276,0,0.5,0.224,0.5,0.5S20.776,17,20.5,17z M20.5,12h-11C9.224,12,9,11.776,9,11.5S9.224,11,9.5,11h11
			c0.276,0,0.5,0.224,0.5,0.5S20.776,12,20.5,12z"/>
	</g>
</g>
<g id="Invisible_Shape">
	<rect fill="none" width="24" height="24"/>
</g>
</svg>
