<?xml version="1.0" encoding="utf-8"?>
<!-- Generator: Adobe Illustrator 19.2.1, SVG Export Plug-In . SVG Version: 6.00 Build 0)  -->
<svg version="1.1" xmlns="http://www.w3.org/2000/svg" xmlns:xlink="http://www.w3.org/1999/xlink" x="0px" y="0px" width="24px"
	 height="24px" viewBox="0 0 24 24" enable-background="new 0 0 24 24" xml:space="preserve">
<g id="Filled_Icon">
	<g>
		<path d="M21.5,2h-19C1.121,2,0,3.121,0,4.5V7h24V4.5C24,3.121,22.879,2,21.5,2z M4,6C3.449,6,3,5.552,3,5s0.449-1,1-1s1,0.448,1,1
			S4.551,6,4,6z M7,6C6.449,6,6,5.552,6,5s0.449-1,1-1s1,0.448,1,1S7.551,6,7,6z M10,6C9.449,6,9,5.552,9,5s0.449-1,1-1s1,0.448,1,1
			S10.551,6,10,6z"/>
		<path d="M0,8v10.5C0,19.879,1.121,21,2.5,21h19c1.379,0,2.5-1.121,2.5-2.5V8H0z M10.854,15.854L8.707,18h0.749
			c0.276,0,0.5,0.224,0.5,0.5S9.732,19,9.456,19H7.5C7.228,19,7,18.779,7,18.5v-1.957c0-0.276,0.224-0.5,0.5-0.5s0.5,0.224,0.5,0.5
			v0.75l2.146-2.146c0.195-0.195,0.512-0.195,0.707,0S11.049,15.658,10.854,15.854z M10.854,12.854
			c-0.195,0.195-0.512,0.195-0.707,0L8,10.707v0.75c0,0.276-0.224,0.5-0.5,0.5S7,11.733,7,11.457V9.5C7,9.219,7.231,9,7.5,9h1.956
			c0.276,0,0.5,0.224,0.5,0.5S9.732,10,9.456,10H8.707l2.147,2.146C11.049,12.342,11.049,12.658,10.854,12.854z M17,18.5
			c0,0.279-0.229,0.5-0.5,0.5h-1.956c-0.276,0-0.5-0.224-0.5-0.5s0.224-0.5,0.5-0.5h0.749l-2.147-2.146
			c-0.195-0.195-0.195-0.512,0-0.707s0.512-0.195,0.707,0L16,17.293v-0.75c0-0.276,0.224-0.5,0.5-0.5s0.5,0.224,0.5,0.5V18.5z
			 M17,11.457c0,0.276-0.224,0.5-0.5,0.5s-0.5-0.224-0.5-0.5v-0.75l-2.146,2.147c-0.195,0.195-0.512,0.195-0.707,0
			s-0.195-0.512,0-0.707L15.293,10h-0.749c-0.276,0-0.5-0.224-0.5-0.5s0.224-0.5,0.5-0.5H16.5C16.77,9,17,9.219,17,9.5V11.457z"/>
	</g>
</g>
<g id="Invisible_Shape">
	<rect fill="none" width="24" height="24"/>
</g>
</svg>
