<?xml version="1.0" encoding="utf-8"?>
<!-- Generator: Adobe Illustrator 19.2.1, SVG Export Plug-In . SVG Version: 6.00 Build 0)  -->
<svg version="1.1" xmlns="http://www.w3.org/2000/svg" xmlns:xlink="http://www.w3.org/1999/xlink" x="0px" y="0px" width="24px"
	 height="24px" viewBox="0 0 24 24" enable-background="new 0 0 24 24" xml:space="preserve">
<g id="Filled_Icon">
	<g>
		<path d="M0,18.5C0,19.879,1.121,21,2.5,21h19c1.379,0,2.5-1.121,2.5-2.5V8H0V18.5z M7.531,15h2.172l0.578-2h-1.75
			c-0.276,0-0.5-0.224-0.5-0.5s0.224-0.5,0.5-0.5h2.039l0.465-1.607c0.076-0.265,0.351-0.421,0.619-0.342
			c0.266,0.077,0.418,0.354,0.342,0.619L11.611,12h1.959l0.465-1.607c0.077-0.265,0.351-0.421,0.619-0.342
			c0.266,0.077,0.418,0.354,0.342,0.619L14.611,12H16.5c0.276,0,0.5,0.224,0.5,0.5S16.776,13,16.5,13h-2.178l-0.578,2H15.5
			c0.276,0,0.5,0.224,0.5,0.5S15.776,16,15.5,16h-2.046l-0.474,1.639c-0.078,0.269-0.36,0.418-0.619,0.342
			c-0.266-0.077-0.418-0.354-0.342-0.619L12.413,16h-1.959l-0.474,1.639c-0.078,0.269-0.36,0.418-0.619,0.342
			c-0.266-0.077-0.418-0.354-0.342-0.619L9.413,16H7.531c-0.276,0-0.5-0.224-0.5-0.5S7.255,15,7.531,15z"/>
		<polygon points="13.281,13 11.322,13 10.744,15 12.703,15 		"/>
		<path d="M21.5,2h-19C1.121,2,0,3.121,0,4.5V7h24V4.5C24,3.121,22.879,2,21.5,2z M4,6C3.449,6,3,5.552,3,5s0.449-1,1-1s1,0.448,1,1
			S4.551,6,4,6z M7,6C6.449,6,6,5.552,6,5s0.449-1,1-1s1,0.448,1,1S7.551,6,7,6z M10,6C9.449,6,9,5.552,9,5s0.449-1,1-1s1,0.448,1,1
			S10.551,6,10,6z"/>
	</g>
</g>
<g id="Invisible_Shape">
	<rect fill="none" width="24" height="24"/>
</g>
</svg>
