<?xml version="1.0" encoding="utf-8"?>
<!-- Generator: Adobe Illustrator 19.2.1, SVG Export Plug-In . SVG Version: 6.00 Build 0)  -->
<svg version="1.1" xmlns="http://www.w3.org/2000/svg" xmlns:xlink="http://www.w3.org/1999/xlink" x="0px" y="0px" width="24px"
	 height="24px" viewBox="0 0 24 24" enable-background="new 0 0 24 24" xml:space="preserve">
<g id="Filled_Icon">
	<g>
		<g>
			<path d="M24,4V2.5C24,1.121,22.879,0,21.5,0h-16C4.121,0,3,1.121,3,2.5V4H24z M10.5,2C10.776,2,11,2.224,11,2.5S10.776,3,10.5,3
				S10,2.776,10,2.5S10.224,2,10.5,2z M8.5,2C8.776,2,9,2.224,9,2.5S8.776,3,8.5,3S8,2.776,8,2.5S8.224,2,8.5,2z M6.5,2
				C6.776,2,7,2.224,7,2.5S6.776,3,6.5,3S6,2.776,6,2.5S6.224,2,6.5,2z"/>
			<path d="M3,8h6.5c1.379,0,2.5,1.121,2.5,2.5V16h9.5c1.379,0,2.5-1.121,2.5-2.5V5H3V8z"/>
		</g>
		<path d="M9.5,9h-8C0.673,9,0,9.673,0,10.5v11C0,22.327,0.673,23,1.5,23h8c0.827,0,1.5-0.673,1.5-1.5v-11C11,9.673,10.327,9,9.5,9z
			 M7.268,17.94l-2.828,2.828c-0.195,0.195-0.512,0.195-0.707,0c-0.195-0.195-0.195-0.512,0-0.707l2.828-2.828
			c0.195-0.195,0.512-0.195,0.707,0C7.463,17.428,7.463,17.744,7.268,17.94z M7.353,14.354l-2.5,2.5
			c-0.195,0.195-0.512,0.195-0.707,0c-0.195-0.195-0.195-0.512,0-0.707L6.293,14l-2.147-2.146c-0.195-0.195-0.195-0.512,0-0.707
			s0.512-0.195,0.707,0l2.5,2.5C7.549,13.842,7.549,14.158,7.353,14.354z"/>
		<path d="M19.854,19.271l-1.999-2c-0.198-0.194-0.512-0.193-0.709,0l-1.999,2c-0.195,0.195-0.195,0.512,0,0.707
			c0.195,0.195,0.512,0.195,0.707,0L17,18.832v1.793C17,21.261,16.646,22,16.188,22H13c-0.276,0-0.5,0.224-0.5,0.5S12.724,23,13,23
			h3.188C17.307,23,18,21.768,18,20.625v-1.793l1.146,1.146c0.195,0.195,0.512,0.195,0.707,0
			C20.049,19.783,20.049,19.467,19.854,19.271z"/>
	</g>
</g>
<g id="Invisible_Shape">
	<rect fill="none" width="24" height="24"/>
</g>
</svg>
