<?xml version="1.0" encoding="utf-8"?>
<!-- Generator: Adobe Illustrator 19.2.1, SVG Export Plug-In . SVG Version: 6.00 Build 0)  -->
<svg version="1.1" xmlns="http://www.w3.org/2000/svg" xmlns:xlink="http://www.w3.org/1999/xlink" x="0px" y="0px" width="24px"
	 height="24px" viewBox="0 0 24 24" enable-background="new 0 0 24 24" xml:space="preserve">
<g id="Filled_Icon">
	<g>
		<path d="M17.5,24c3.59,0,6.5-2.91,6.5-6.5c0-3.589-2.91-6.5-6.5-6.5S11,13.911,11,17.5C11,21.09,13.91,24,17.5,24z M15,18
			c0.195-0.195,0.512-0.195,0.707,0L17,19.293V14.5c0-0.276,0.224-0.5,0.5-0.5s0.5,0.224,0.5,0.5v4.793L19.293,18
			c0.195-0.195,0.512-0.195,0.707,0s0.195,0.512,0,0.707l-2.146,2.147c-0.195,0.194-0.512,0.194-0.707,0L15,18.707
			C14.805,18.512,14.805,18.195,15,18z"/>
		<g>
			<path d="M21,2.5C21,1.121,19.878,0,18.5,0h-16C1.121,0,0,1.121,0,2.5V4h21V2.5z M3.5,3C3.223,3,3,2.776,3,2.5S3.223,2,3.5,2
				C3.775,2,4,2.224,4,2.5S3.775,3,3.5,3z M5.5,3C5.223,3,5,2.776,5,2.5S5.223,2,5.5,2C5.775,2,6,2.224,6,2.5S5.775,3,5.5,3z M7.5,3
				C7.223,3,7,2.776,7,2.5S7.223,2,7.5,2C7.775,2,8,2.224,8,2.5S7.775,3,7.5,3z"/>
			<path d="M21,10.871V5H0v9.5C0,15.879,1.121,17,2.5,17h7.525C10.383,11.604,16.202,8.331,21,10.871z"/>
		</g>
	</g>
</g>
<g id="Invisible_Shape">
	<rect fill="none" width="24" height="24"/>
</g>
</svg>
