<?xml version="1.0" encoding="utf-8"?>
<!-- Generator: Adobe Illustrator 19.2.1, SVG Export Plug-In . SVG Version: 6.00 Build 0)  -->
<svg version="1.1" xmlns="http://www.w3.org/2000/svg" xmlns:xlink="http://www.w3.org/1999/xlink" x="0px" y="0px" width="24px"
	 height="24px" viewBox="0 0 24 24" enable-background="new 0 0 24 24" xml:space="preserve">
<g id="Filled_Icon">
	<g>
		<g>
			<path d="M21,4V2.5C21,1.121,19.879,0,18.5,0h-16C1.121,0,0,1.121,0,2.5V4H21z M7.5,2C7.776,2,8,2.224,8,2.5S7.776,3,7.5,3
				S7,2.776,7,2.5S7.224,2,7.5,2z M5.5,2C5.776,2,6,2.224,6,2.5S5.776,3,5.5,3S5,2.776,5,2.5S5.224,2,5.5,2z M3.5,2
				C3.776,2,4,2.224,4,2.5S3.776,3,3.5,3S3,2.776,3,2.5S3.224,2,3.5,2z"/>
			<path d="M13.661,10.85c0.065-0.208,0.259-0.35,0.478-0.35h4.725c0.324,0,0.562,0.306,0.485,0.619L18.766,13.5H21V5H0v9.5
				C0,15.879,1.121,17,2.5,17h9.225L13.661,10.85z"/>
		</g>
		<polygon points="14.61,11.499 18.15,11.499 17.426,14.499 20.089,14.499 14.307,23.2 15.447,17.499 12.722,17.499 		"/>
	</g>
</g>
<g id="Invisible_Shape">
	<rect fill="none" width="24" height="24"/>
</g>
</svg>
