<?xml version="1.0" encoding="utf-8"?>
<!-- Generator: Adobe Illustrator 19.2.1, SVG Export Plug-In . SVG Version: 6.00 Build 0)  -->
<svg version="1.1" xmlns="http://www.w3.org/2000/svg" xmlns:xlink="http://www.w3.org/1999/xlink" x="0px" y="0px" width="24px"
	 height="24px" viewBox="0 0 24 24" enable-background="new 0 0 24 24" xml:space="preserve">
<g id="Filled_Icon">
	<g>
		<path d="M24,5V2.5C24,1.121,22.879,0,21.5,0h-19C1.121,0,0,1.121,0,2.5V5H24z M10,2c0.552,0,1,0.449,1,1s-0.448,1-1,1S9,3.551,9,3
			S9.448,2,10,2z M7,2c0.552,0,1,0.449,1,1S7.552,4,7,4S6,3.551,6,3S6.448,2,7,2z M4,2c0.552,0,1,0.449,1,1S4.552,4,4,4S3,3.551,3,3
			S3.448,2,4,2z"/>
		<g>
			<path d="M17.501,12c3.407,0,6.091,3.123,5.378,6.584C23.554,18.136,24,17.371,24,16.5V6H0v10.5C0,17.879,1.121,19,2.5,19h9.713
				C11.21,15.471,13.877,12,17.501,12z M20.5,11.5H19c-0.276,0-0.5-0.224-0.5-0.5s0.224-0.5,0.5-0.5h1.5c0.276,0,0.5,0.224,0.5,0.5
				S20.776,11.5,20.5,11.5z M16.531,7.5H20.5C20.776,7.5,21,7.724,21,8c0,0.276-0.224,0.5-0.5,0.5h-3.969
				c-0.276,0-0.5-0.224-0.5-0.5C16.031,7.724,16.255,7.5,16.531,7.5z M15.969,11c0,0.276-0.224,0.5-0.5,0.5h-4.953
				c-0.276,0-0.5-0.224-0.5-0.5s0.224-0.5,0.5-0.5h4.953C15.745,10.5,15.969,10.724,15.969,11z M9.516,7.5h4.969
				c0.276,0,0.5,0.224,0.5,0.5c0,0.276-0.224,0.5-0.5,0.5H9.516c-0.276,0-0.5-0.224-0.5-0.5C9.016,7.724,9.239,7.5,9.516,7.5z
				 M3.516,7.5h3.953c0.276,0,0.5,0.224,0.5,0.5c0,0.276-0.224,0.5-0.5,0.5H3.516c-0.276,0-0.5-0.224-0.5-0.5
				C3.016,7.724,3.239,7.5,3.516,7.5z M3.516,10.5h4.953c0.276,0,0.5,0.224,0.5,0.5s-0.224,0.5-0.5,0.5H3.516
				c-0.276,0-0.5-0.224-0.5-0.5S3.239,10.5,3.516,10.5z M5.469,14.5H3.516c-0.276,0-0.5-0.224-0.5-0.5s0.224-0.5,0.5-0.5h1.953
				c0.276,0,0.5,0.224,0.5,0.5S5.745,14.5,5.469,14.5z M11.469,14.5H7.516c-0.276,0-0.5-0.224-0.5-0.5s0.224-0.5,0.5-0.5h3.953
				c0.276,0,0.5,0.224,0.5,0.5S11.745,14.5,11.469,14.5z"/>
		</g>
		<path d="M23.854,23.146L21,20.293c0.616-0.77,1-1.733,1-2.793c0-2.481-2.018-4.5-4.499-4.5C15.019,13,13,15.019,13,17.5
			c0,2.48,2.019,4.5,4.501,4.5c1.059,0,2.022-0.385,2.792-1l2.854,2.854c0.195,0.194,0.512,0.194,0.707,0
			C24.049,23.659,24.049,23.342,23.854,23.146z M17.501,21C15.57,21,14,19.43,14,17.5c0-1.929,1.57-3.5,3.501-3.5
			C19.43,14,21,15.571,21,17.5C21,19.43,19.43,21,17.501,21z"/>
	</g>
</g>
<g id="Invisible_Shape">
	<rect fill="none" width="24" height="24"/>
</g>
</svg>
