<?xml version="1.0" encoding="utf-8"?>
<!-- Generator: Adobe Illustrator 19.2.1, SVG Export Plug-In . SVG Version: 6.00 Build 0)  -->
<svg version="1.1" xmlns="http://www.w3.org/2000/svg" xmlns:xlink="http://www.w3.org/1999/xlink" x="0px" y="0px" width="24px"
	 height="24px" viewBox="0 0 24 24" enable-background="new 0 0 24 24" xml:space="preserve">
<g id="Filled_Icon">
	<g>
		<path d="M24,7V4.5C24,3.121,22.879,2,21.5,2h-19C1.121,2,0,3.121,0,4.5V7H24z M10,4c0.552,0,1,0.449,1,1s-0.448,1-1,1S9,5.551,9,5
			S9.448,4,10,4z M7,4c0.552,0,1,0.449,1,1S7.552,6,7,6S6,5.551,6,5S6.448,4,7,4z M4,4c0.552,0,1,0.449,1,1S4.552,6,4,6S3,5.551,3,5
			S3.448,4,4,4z"/>
		<g>
			<path d="M11,16.003c-1.084,0-2,0.544-2,1.188c0,0.644,0.916,1.188,2,1.188s2-0.544,2-1.188C13,16.547,12.084,16.003,11,16.003z"
				/>
			<path d="M0,8v10.5C0,19.879,1.121,21,2.5,21h19c1.379,0,2.5-1.121,2.5-2.5V8H0z M16.884,12.823
				c-0.176,0.213-0.491,0.24-0.704,0.063L14,11.068v6.122c0,1.227-1.317,2.188-3,2.188s-3-0.961-3-2.188
				c0-1.226,1.317-2.187,3-2.187c0.779,0,1.472,0.212,2,0.556V10c0-0.423,0.494-0.654,0.82-0.384l3,2.503
				C17.032,12.296,17.06,12.611,16.884,12.823z"/>
		</g>
	</g>
</g>
<g id="Invisible_Shape">
	<rect fill="none" width="24" height="24"/>
</g>
</svg>
