<?xml version="1.0" encoding="utf-8"?>
<!-- Generator: Adobe Illustrator 19.2.1, SVG Export Plug-In . SVG Version: 6.00 Build 0)  -->
<svg version="1.1" xmlns="http://www.w3.org/2000/svg" xmlns:xlink="http://www.w3.org/1999/xlink" x="0px" y="0px" width="24px"
	 height="24px" viewBox="0 0 24 24" enable-background="new 0 0 24 24" xml:space="preserve">
<g id="Filled_Icon">
	<g>
		<path d="M24,7V4.5C24,3.121,22.879,2,21.5,2h-19C1.121,2,0,3.121,0,4.5V7H24z M10,4c0.552,0,1,0.448,1,1s-0.448,1-1,1S9,5.552,9,5
			S9.448,4,10,4z M7,4c0.552,0,1,0.448,1,1S7.552,6,7,6S6,5.552,6,5S6.448,4,7,4z M4,4c0.552,0,1,0.448,1,1S4.552,6,4,6S3,5.552,3,5
			S3.448,4,4,4z"/>
		<path d="M0,8v10.5C0,19.879,1.121,21,2.5,21h19c1.379,0,2.5-1.121,2.5-2.5V8H0z M14,15.502c0,0.276-0.224,0.5-0.5,0.5h-10
			c-0.276,0-0.5-0.224-0.5-0.5v-4c0-0.276,0.224-0.5,0.5-0.5h10c0.276,0,0.5,0.224,0.5,0.5V15.502z M21.354,11.854l-3.5,3.5
			c-0.195,0.195-0.512,0.195-0.707,0l-2-2c-0.195-0.195-0.195-0.512,0-0.707s0.512-0.195,0.707,0l1.646,1.647l3.146-3.147
			c0.195-0.195,0.512-0.195,0.707,0C21.549,11.342,21.549,11.658,21.354,11.854z"/>
		<circle cx="9" cy="13.502" r="1"/>
		<circle cx="6" cy="13.502" r="1"/>
	</g>
</g>
<g id="Invisible_Shape">
	<rect fill="none" width="24" height="24"/>
</g>
</svg>
