<?xml version="1.0" encoding="utf-8"?>
<!-- Generator: Adobe Illustrator 19.2.1, SVG Export Plug-In . SVG Version: 6.00 Build 0)  -->
<svg version="1.1" xmlns="http://www.w3.org/2000/svg" xmlns:xlink="http://www.w3.org/1999/xlink" x="0px" y="0px" width="24px"
	 height="24px" viewBox="0 0 24 24" enable-background="new 0 0 24 24" xml:space="preserve">
<g id="Filled_Icon">
	<g>
		<path d="M21.5,2h-19C1.121,2,0,3.121,0,4.5V7h24V4.5C24,3.121,22.879,2,21.5,2z M4,6C3.449,6,3,5.552,3,5s0.449-1,1-1s1,0.448,1,1
			S4.551,6,4,6z M7,6C6.449,6,6,5.552,6,5s0.449-1,1-1s1,0.448,1,1S7.551,6,7,6z M10,6C9.449,6,9,5.552,9,5s0.449-1,1-1s1,0.448,1,1
			S10.551,6,10,6z"/>
		<path d="M0,8v10.5C0,19.879,1.121,21,2.5,21h19c1.379,0,2.5-1.121,2.5-2.5V8H0z M17.52,14c0,0-1.472,0-1.52,0v4.5
			c0,0.276-0.224,0.5-0.5,0.5c0,0-2,0.002-2,0v-3.5C13.496,15.227,13.273,15,13,15h-2c-0.276,0-0.5,0.224-0.5,0.5V19h-2
			C8.224,19,8,18.776,8,18.5V14H6.5c-0.481,0-0.685-0.62-0.294-0.904l5.5-4c0.176-0.127,0.412-0.127,0.588,0l5.426,3.945
			c0.177,0.077,0.3,0.254,0.3,0.459C18.02,13.776,17.796,14,17.52,14z"/>
	</g>
</g>
<g id="Invisible_Shape">
	<rect fill="none" width="24" height="24"/>
</g>
</svg>
