<?xml version="1.0" encoding="utf-8"?>
<!-- Generator: Adobe Illustrator 19.2.1, SVG Export Plug-In . SVG Version: 6.00 Build 0)  -->
<svg version="1.1" xmlns="http://www.w3.org/2000/svg" xmlns:xlink="http://www.w3.org/1999/xlink" x="0px" y="0px" width="24px"
	 height="24px" viewBox="0 0 24 24" enable-background="new 0 0 24 24" xml:space="preserve">
<g id="Filled_Icon">
	<g>
		<path d="M24,5V2.5C24,1.121,22.879,0,21.5,0h-19C1.121,0,0,1.121,0,2.5V5H24z M10,2c0.552,0,1,0.449,1,1s-0.448,1-1,1S9,3.551,9,3
			S9.448,2,10,2z M7,2c0.552,0,1,0.449,1,1S7.552,4,7,4S6,3.551,6,3S6.448,2,7,2z M4,2c0.552,0,1,0.449,1,1S4.552,4,4,4S3,3.551,3,3
			S3.448,2,4,2z"/>
		<path d="M0,6v15.5C0,22.879,1.121,24,2.5,24h19c1.379,0,2.5-1.121,2.5-2.5V6H0z M7,21.5C7,21.776,6.776,22,6.5,22h-3
			C3.224,22,3,21.776,3,21.5v-8C3,13.224,3.224,13,3.5,13h3C6.776,13,7,13.224,7,13.5V21.5z M21,21.5c0,0.276-0.224,0.5-0.5,0.5h-11
			C9.224,22,9,21.776,9,21.5v-3C9,18.224,9.224,18,9.5,18h11c0.276,0,0.5,0.224,0.5,0.5V21.5z M21,16.5c0,0.276-0.224,0.5-0.5,0.5
			h-11C9.224,17,9,16.776,9,16.5v-3C9,13.224,9.224,13,9.5,13h11c0.276,0,0.5,0.224,0.5,0.5V16.5z M21,11.5
			c0,0.276-0.224,0.5-0.5,0.5h-17C3.224,12,3,11.776,3,11.5v-3C3,8.224,3.224,8,3.5,8h17C20.776,8,21,8.224,21,8.5V11.5z"/>
	</g>
</g>
<g id="Invisible_Shape">
	<rect fill="none" width="24" height="24"/>
</g>
</svg>
