<?xml version="1.0" encoding="utf-8"?>
<!-- Generator: Adobe Illustrator 19.2.1, SVG Export Plug-In . SVG Version: 6.00 Build 0)  -->
<svg version="1.1" xmlns="http://www.w3.org/2000/svg" xmlns:xlink="http://www.w3.org/1999/xlink" x="0px" y="0px" width="24px"
	 height="24px" viewBox="0 0 24 24" enable-background="new 0 0 24 24" xml:space="preserve">
<g id="Filled_Icon">
	<g>
		<path d="M21,2.5C21,1.121,19.878,0,18.5,0h-16C1.121,0,0,1.121,0,2.5V4h21V2.5z M3.5,3C3.223,3,3,2.776,3,2.5S3.223,2,3.5,2
			C3.775,2,4,2.224,4,2.5S3.775,3,3.5,3z M5.5,3C5.223,3,5,2.776,5,2.5S5.223,2,5.5,2C5.775,2,6,2.224,6,2.5S5.775,3,5.5,3z M7.5,3
			C7.223,3,7,2.776,7,2.5S7.223,2,7.5,2C7.775,2,8,2.224,8,2.5S7.775,3,7.5,3z"/>
		<path d="M16.033,11.079c0.276-0.559,0.839-0.906,1.467-0.906s1.191,0.35,1.47,0.912L21,15.146V5H0v9.5C0,15.879,1.121,17,2.5,17
			h10.572L16.033,11.079z"/>
		<path d="M23.984,23.352l-5.91-11.821c-0.109-0.221-0.329-0.357-0.574-0.357s-0.464,0.135-0.571,0.351l-5.876,11.752
			c-0.078,0.155-0.069,0.339,0.021,0.486C11.166,23.91,11.326,24,11.5,24h12c0.004,0,0.008,0,0.01,0c0.276,0,0.5-0.224,0.5-0.5
			C24.01,23.448,23.999,23.398,23.984,23.352z M17,16.409c0-0.276,0.224-0.5,0.5-0.5s0.5,0.224,0.5,0.5v3.272
			c0,0.276-0.224,0.5-0.5,0.5s-0.5-0.224-0.5-0.5V16.409z M17.5,21.863c-0.302,0-0.546-0.244-0.546-0.545
			c0-0.301,0.244-0.545,0.546-0.545c0.301,0,0.545,0.244,0.545,0.545C18.045,21.619,17.801,21.863,17.5,21.863z"/>
	</g>
</g>
<g id="Invisible_Shape">
	<rect fill="none" width="24" height="24"/>
</g>
</svg>
