<?xml version="1.0" encoding="utf-8"?>
<!-- Generator: Adobe Illustrator 19.2.1, SVG Export Plug-In . SVG Version: 6.00 Build 0)  -->
<svg version="1.1" xmlns="http://www.w3.org/2000/svg" xmlns:xlink="http://www.w3.org/1999/xlink" x="0px" y="0px" width="24px"
	 height="24px" viewBox="0 0 24 24" enable-background="new 0 0 24 24" xml:space="preserve">
<g id="Filled_Icon">
	<g>
		<g>
			<path d="M21,4V2.5C21,1.121,19.879,0,18.5,0h-16C1.121,0,0,1.121,0,2.5V4H21z M7.5,2C7.776,2,8,2.224,8,2.5S7.776,3,7.5,3
				S7,2.776,7,2.5S7.224,2,7.5,2z M5.5,2C5.776,2,6,2.224,6,2.5S5.776,3,5.5,3S5,2.776,5,2.5S5.224,2,5.5,2z M3.5,2
				C3.776,2,4,2.224,4,2.5S3.776,3,3.5,3S3,2.776,3,2.5S3.224,2,3.5,2z"/>
			<path d="M13.317,15.731c0.274-0.274,0.63-0.408,0.989-0.426c0.018-0.358,0.151-0.714,0.426-0.988l2.121-2.122
				c1.123-1.122,2.819-1.306,4.146-0.582V5H0v9.5C0,15.879,1.121,17,2.5,17h9.55L13.317,15.731z"/>
		</g>
		<g>
			<path d="M21.096,12.902c-0.975-0.975-2.56-0.975-3.535,0l-2.121,2.122c-0.195,0.195-0.195,0.512,0,0.707
				c0.195,0.195,0.512,0.195,0.707,0l2.121-2.121c0.586-0.586,1.537-0.585,2.121-0.001c0.585,0.585,0.585,1.537,0,2.122
				l-2.121,2.121c-0.195,0.195-0.195,0.512,0,0.707c0.195,0.195,0.512,0.195,0.707,0l2.121-2.121
				C22.07,15.463,22.07,13.877,21.096,12.902z"/>
			<path d="M16.854,19.268l-2.121,2.121c-0.587,0.585-1.538,0.582-2.121,0c-0.585-0.585-0.585-1.537,0-2.122l2.12-2.121
				c0.195-0.195,0.195-0.512,0-0.707c-0.195-0.195-0.512-0.195-0.707,0l-2.12,2.121c-0.975,0.976-0.975,2.561,0,3.536
				s2.56,0.974,3.535,0l2.121-2.121c0.195-0.195,0.195-0.512,0-0.707C17.365,19.072,17.049,19.072,16.854,19.268z"/>
			<path d="M14.379,19.62c0.195,0.195,0.512,0.195,0.707,0l3.535-3.535c0.195-0.195,0.195-0.512,0-0.707
				c-0.195-0.195-0.512-0.195-0.707,0l-3.535,3.535C14.184,19.108,14.184,19.425,14.379,19.62z"/>
		</g>
	</g>
</g>
<g id="Invisible_Shape">
	<rect fill="none" width="24" height="24"/>
</g>
</svg>
