<?xml version="1.0" encoding="utf-8"?>
<!-- Generator: Adobe Illustrator 19.2.1, SVG Export Plug-In . SVG Version: 6.00 Build 0)  -->
<svg version="1.1" xmlns="http://www.w3.org/2000/svg" xmlns:xlink="http://www.w3.org/1999/xlink" x="0px" y="0px" width="24px"
	 height="24px" viewBox="0 0 24 24" enable-background="new 0 0 24 24" xml:space="preserve">
<g id="Filled_Icon">
	<g>
		<path d="M17.5,11c-3.584,0-6.5,2.916-6.5,6.5s2.916,6.5,6.5,6.5s6.5-2.916,6.5-6.5S21.084,11,17.5,11z M22.05,14.405
			c0,0-0.584,2.255-0.592,2.274c-0.099,0.252-0.375,0.369-0.581,0.305l-2.218-0.564c-0.268-0.068-0.429-0.341-0.36-0.608
			c0.067-0.268,0.339-0.431,0.607-0.36l1.202,0.306c-0.896-1.436-2.539-1.953-3.985-1.53c-1.885,0.548-2.964,2.518-2.414,4.396
			c0.54,1.861,2.491,2.97,4.398,2.416c0.264-0.08,0.543,0.074,0.619,0.34c0.078,0.265-0.074,0.544-0.34,0.619
			c-2.371,0.697-4.926-0.647-5.639-3.093c-0.702-2.41,0.676-4.934,3.096-5.639c1.776-0.518,3.808,0.056,5.005,1.803l0.233-0.912
			c0.067-0.268,0.34-0.43,0.608-0.36C21.957,13.865,22.118,14.138,22.05,14.405z"/>
		<g>
			<path d="M21,2.5C21,1.121,19.878,0,18.5,0h-16C1.121,0,0,1.121,0,2.5V4h21V2.5z M3.5,3C3.223,3,3,2.776,3,2.5S3.223,2,3.5,2
				C3.775,2,4,2.224,4,2.5S3.775,3,3.5,3z M5.5,3C5.223,3,5,2.776,5,2.5S5.223,2,5.5,2C5.775,2,6,2.224,6,2.5S5.775,3,5.5,3z M7.5,3
				C7.223,3,7,2.776,7,2.5S7.223,2,7.5,2C7.775,2,8,2.224,8,2.5S7.775,3,7.5,3z"/>
			<path d="M21,10.871V5H0v9.5C0,15.879,1.121,17,2.5,17h7.525C10.383,11.604,16.202,8.331,21,10.871z"/>
		</g>
	</g>
</g>
<g id="Invisible_Shape">
	<rect fill="none" width="24" height="24"/>
</g>
</svg>
