<?xml version="1.0" encoding="utf-8"?>
<!-- Generator: Adobe Illustrator 19.2.1, SVG Export Plug-In . SVG Version: 6.00 Build 0)  -->
<svg version="1.1" xmlns="http://www.w3.org/2000/svg" xmlns:xlink="http://www.w3.org/1999/xlink" x="0px" y="0px" width="24px"
	 height="24px" viewBox="0 0 24 24" enable-background="new 0 0 24 24" xml:space="preserve">
<g id="Filled_Icon">
	<g>
		<path d="M24.001,7V4.5c0-1.379-1.121-2.5-2.5-2.5h-19c-1.379,0-2.5,1.121-2.5,2.5V7H24.001z M10.001,4c0.552,0,1,0.449,1,1
			s-0.448,1-1,1c-0.552,0-1-0.449-1-1S9.449,4,10.001,4z M7.001,4c0.552,0,1,0.449,1,1s-0.448,1-1,1c-0.552,0-1-0.449-1-1
			S6.449,4,7.001,4z M4.001,4c0.552,0,1,0.449,1,1s-0.448,1-1,1c-0.552,0-1-0.449-1-1S3.449,4,4.001,4z"/>
		<path d="M8,8v1c0,0.276-0.224,0.5-0.5,0.5S7,9.276,7,9V8H0.001v10.5c0,1.379,1.121,2.5,2.5,2.5H7v-1c0-0.276,0.224-0.5,0.5-0.5
			S8,19.724,8,20v1h13.501c1.379,0,2.5-1.121,2.5-2.5V8H8z M8,18c0,0.276-0.224,0.5-0.5,0.5S7,18.276,7,18v-1
			c0-0.276,0.224-0.5,0.5-0.5S8,16.724,8,17V18z M8,15c0,0.276-0.224,0.5-0.5,0.5S7,15.276,7,15v-1c0-0.276,0.224-0.5,0.5-0.5
			S8,13.724,8,14V15z M8,12c0,0.276-0.224,0.5-0.5,0.5S7,12.276,7,12v-1c0-0.276,0.224-0.5,0.5-0.5S8,10.724,8,11V12z
			 M19.723,15.856c-0.001,0.001-0.002,0.003-0.003,0.004l-3.123,3c-0.205,0.195-0.522,0.182-0.707-0.015
			c-0.191-0.198-0.186-0.516,0.014-0.706L18.131,16h-7.615c-0.276,0-0.5-0.224-0.5-0.5s0.224-0.5,0.5-0.5h7.615l-2.228-2.14
			c-0.199-0.191-0.205-0.508-0.014-0.706c0.192-0.201,0.508-0.205,0.707-0.015l3.123,3c0.001,0.001,0.002,0.003,0.003,0.004
			C19.924,15.341,19.922,15.661,19.723,15.856z"/>
	</g>
</g>
<g id="Invisible_Shape">
	<rect fill="none" width="24" height="24"/>
</g>
</svg>
