<?xml version="1.0" encoding="utf-8"?>
<!-- Generator: Adobe Illustrator 19.2.1, SVG Export Plug-In . SVG Version: 6.00 Build 0)  -->
<svg version="1.1" xmlns="http://www.w3.org/2000/svg" xmlns:xlink="http://www.w3.org/1999/xlink" x="0px" y="0px" width="24px"
	 height="24px" viewBox="0 0 24 24" enable-background="new 0 0 24 24" xml:space="preserve">
<g id="Filled_Icon">
	<g>
		<path d="M21.003,2.5c0-1.379-1.122-2.5-2.5-2.5h-16c-1.379,0-2.5,1.121-2.5,2.5V4h21V2.5z M3.503,3c-0.277,0-0.5-0.224-0.5-0.5
			S3.226,2,3.503,2c0.275,0,0.5,0.224,0.5,0.5S3.778,3,3.503,3z M5.503,3c-0.277,0-0.5-0.224-0.5-0.5S5.226,2,5.503,2
			c0.275,0,0.5,0.224,0.5,0.5S5.778,3,5.503,3z M7.503,3c-0.277,0-0.5-0.224-0.5-0.5S7.226,2,7.503,2c0.275,0,0.5,0.224,0.5,0.5
			S7.778,3,7.503,3z"/>
		<path d="M15.003,12.5c0-0.276,0.224-0.5,0.5-0.5h5.5V5h-21v9.5c0,1.379,1.121,2.5,2.5,2.5h12.5V12.5z"/>
		<path d="M23.503,19c-1.447,0-2.553,0-4,0c-0.276,0-0.5,0.224-0.5,0.5v4c0,0.276,0.224,0.5,0.5,0.5h4c0.276,0,0.5-0.224,0.5-0.5v-4
			C24.003,19.224,23.779,19,23.503,19z"/>
		<path d="M17.503,19c-1.447,0-2.553,0-4,0c-0.276,0-0.5,0.224-0.5,0.5v4c0,0.276,0.224,0.5,0.5,0.5h4c0.276,0,0.5-0.224,0.5-0.5v-4
			C18.003,19.224,17.779,19,17.503,19z"/>
		<path d="M21.003,17.5c0-2.012,0-2.531,0-4c0-0.275-0.224-0.5-0.5-0.5h-4c-0.276,0-0.5,0.225-0.5,0.5v4c0,0.276,0.224,0.5,0.5,0.5
			c1.447,0,2.553,0,4,0C20.779,18,21.003,17.776,21.003,17.5z"/>
	</g>
</g>
<g id="Invisible_Shape">
	<rect fill="none" width="24" height="24"/>
</g>
</svg>
