<?xml version="1.0" encoding="utf-8"?>
<!-- Generator: Adobe Illustrator 19.2.1, SVG Export Plug-In . SVG Version: 6.00 Build 0)  -->
<svg version="1.1" xmlns="http://www.w3.org/2000/svg" xmlns:xlink="http://www.w3.org/1999/xlink" x="0px" y="0px" width="24px"
	 height="24px" viewBox="0 0 24 24" enable-background="new 0 0 24 24" xml:space="preserve">
<g id="Filled_Icon">
	<g>
		<path d="M24,7V4.5C24,3.121,22.879,2,21.5,2h-19C1.121,2,0,3.121,0,4.5V7H24z M10,4c0.552,0,1,0.449,1,1s-0.448,1-1,1S9,5.551,9,5
			S9.448,4,10,4z M7,4c0.552,0,1,0.449,1,1S7.552,6,7,6S6,5.551,6,5S6.448,4,7,4z M4,4c0.552,0,1,0.449,1,1S4.552,6,4,6S3,5.551,3,5
			S3.448,4,4,4z"/>
		<circle cx="12.197" cy="14.001" r="1.261"/>
		<path d="M0,8v10.5C0,19.879,1.121,21,2.5,21h19c1.379,0,2.5-1.121,2.5-2.5V8H0z M17.197,14.394c0,1.03-0.839,1.868-1.869,1.868
			c-0.602,0-1.133-0.291-1.476-0.733c-0.413,0.448-1,0.733-1.655,0.733c-1.246,0-2.261-1.015-2.261-2.262
			c0-1.246,1.015-2.259,2.261-2.259c1.108,0,2.261,0.74,2.261,2.652c0,0.478,0.391,0.868,0.87,0.868s0.869-0.39,0.869-0.868
			c0-2.943-2.013-4.394-4-4.394c-2.206,0-4,1.795-4,4c0,3.246,3.661,5.097,6.26,3.307c0.227-0.154,0.539-0.099,0.695,0.129
			c0.156,0.228,0.099,0.539-0.129,0.695C11.761,20.375,7.197,18.047,7.197,14c0-2.757,2.243-5,5-5
			C14.694,9,17.197,10.854,17.197,14.394z"/>
	</g>
</g>
<g id="Invisible_Shape">
	<rect fill="none" width="24" height="24"/>
</g>
</svg>
