<?xml version="1.0" encoding="utf-8"?>
<!-- Generator: Adobe Illustrator 19.2.1, SVG Export Plug-In . SVG Version: 6.00 Build 0)  -->
<svg version="1.1" xmlns="http://www.w3.org/2000/svg" xmlns:xlink="http://www.w3.org/1999/xlink" x="0px" y="0px" width="24px"
	 height="24px" viewBox="0 0 24 24" enable-background="new 0 0 24 24" xml:space="preserve">
<g id="Filled_Icon">
	<g>
		<path d="M17,8v1c0,0.276-0.224,0.5-0.5,0.5S16,9.276,16,9V8H0.001v10.5c0,1.379,1.121,2.5,2.5,2.5H16v-1
			c0-0.276,0.224-0.5,0.5-0.5S17,19.724,17,20v1h4.501c1.379,0,2.5-1.121,2.5-2.5V8H17z M12.5,16H4.795l2.31,2.133
			c0.203,0.188,0.216,0.504,0.028,0.707c-0.191,0.204-0.506,0.213-0.706,0.027l-3.25-3c-0.002-0.002-0.003-0.005-0.005-0.007
			c-0.195-0.186-0.224-0.499,0.005-0.728l3.25-3c0.203-0.188,0.52-0.174,0.706,0.027c0.188,0.203,0.175,0.519-0.028,0.707L4.795,15
			H12.5c0.276,0,0.5,0.224,0.5,0.5S12.776,16,12.5,16z M17,18c0,0.276-0.224,0.5-0.5,0.5S16,18.276,16,18v-1
			c0-0.276,0.224-0.5,0.5-0.5S17,16.724,17,17V18z M17,15c0,0.276-0.224,0.5-0.5,0.5S16,15.276,16,15v-1c0-0.276,0.224-0.5,0.5-0.5
			S17,13.724,17,14V15z M17,12c0,0.276-0.224,0.5-0.5,0.5S16,12.276,16,12v-1c0-0.276,0.224-0.5,0.5-0.5S17,10.724,17,11V12z"/>
		<path d="M24.001,7V4.5c0-1.379-1.121-2.5-2.5-2.5h-19c-1.379,0-2.5,1.121-2.5,2.5V7H24.001z M10.001,4c0.552,0,1,0.449,1,1
			s-0.448,1-1,1c-0.552,0-1-0.449-1-1S9.449,4,10.001,4z M7.001,4c0.552,0,1,0.449,1,1s-0.448,1-1,1c-0.552,0-1-0.449-1-1
			S6.449,4,7.001,4z M4.001,4c0.552,0,1,0.449,1,1s-0.448,1-1,1c-0.552,0-1-0.449-1-1S3.449,4,4.001,4z"/>
	</g>
</g>
<g id="Invisible_Shape">
	<rect fill="none" width="24" height="24"/>
</g>
</svg>
