<?xml version="1.0" encoding="utf-8"?>
<!-- Generator: Adobe Illustrator 19.2.1, SVG Export Plug-In . SVG Version: 6.00 Build 0)  -->
<svg version="1.1" xmlns="http://www.w3.org/2000/svg" xmlns:xlink="http://www.w3.org/1999/xlink" x="0px" y="0px" width="24px"
	 height="24px" viewBox="0 0 24 24" enable-background="new 0 0 24 24" xml:space="preserve">
<g id="Filled_Icon">
	<g>
		<path d="M21,6V4.5C21,3.121,19.878,2,18.5,2h-16C1.121,2,0,3.121,0,4.5V6C7.981,6,13.164,6,21,6z M3.5,5C3.224,5,3,4.776,3,4.5
			S3.224,4,3.5,4C3.775,4,4,4.224,4,4.5S3.775,5,3.5,5z M5.5,5C5.224,5,5,4.776,5,4.5S5.224,4,5.5,4C5.775,4,6,4.224,6,4.5
			S5.775,5,5.5,5z M7.5,5C7.223,5,7,4.776,7,4.5S7.223,4,7.5,4C7.775,4,8,4.224,8,4.5S7.775,5,7.5,5z"/>
		<path d="M21,15.5V7C13.193,7,7.981,7,0,7v8.5C0,16.879,1.121,18,2.5,18h16C19.878,18,21,16.879,21,15.5z"/>
		<path d="M22,11v4.5c0,1.93-1.57,3.5-3.5,3.5H3v0.5C3,20.879,4.121,22,5.5,22h16c1.378,0,2.5-1.121,2.5-2.5V11H22z"/>
		<path d="M24,10V8.5c0-1.207-0.86-2.217-2-2.449V10H24z"/>
	</g>
</g>
<g id="Invisible_Shape">
	<rect fill="none" width="24" height="24"/>
</g>
</svg>
