<?xml version="1.0" encoding="utf-8"?>
<!-- Generator: Adobe Illustrator 19.2.1, SVG Export Plug-In . SVG Version: 6.00 Build 0)  -->
<svg version="1.1" xmlns="http://www.w3.org/2000/svg" xmlns:xlink="http://www.w3.org/1999/xlink" x="0px" y="0px" width="24px"
	 height="24px" viewBox="0 0 24 24" enable-background="new 0 0 24 24" xml:space="preserve">
<g id="Filled_Icon">
	<g>
		<path d="M0,13.5C0,14.879,1.133,16,2.526,16h3.5c0-0.4,0.156-0.777,0.439-1.061l4-4c0.631-0.633,1.694-0.578,2.254,0.134
			l3.867,3.866c0.283,0.283,0.439,0.66,0.439,1.061h2.5C20.89,16,22,14.879,22,13.5V5H0V13.5z"/>
		<path d="M19.526,0h-17C1.133,0,0,1.121,0,2.5V4h22V2.5C22,1.121,20.89,0,19.526,0z M3.526,3c-0.276,0-0.5-0.224-0.5-0.5
			S3.25,2,3.526,2c0.276,0,0.5,0.224,0.5,0.5S3.803,3,3.526,3z M5.526,3c-0.276,0-0.5-0.224-0.5-0.5S5.25,2,5.526,2
			c0.276,0,0.5,0.224,0.5,0.5S5.803,3,5.526,3z M7.526,3c-0.276,0-0.5-0.224-0.5-0.5S7.25,2,7.526,2c0.276,0,0.5,0.224,0.5,0.5
			S7.803,3,7.526,3z"/>
		<path d="M15.854,15.648v-0.001l-3.937-3.943c-0.003-0.004-0.008-0.006-0.011-0.01c-0.203-0.254-0.561-0.246-0.76-0.047l-4,4
			c-0.196,0.195-0.195,0.513,0,0.707c0.001,0.001,0.002,0.001,0.003,0.002c0.191,0.188,0.512,0.188,0.703-0.002h0.001l3.173-3.173
			V23.5c0,0.016,0.007,0.029,0.009,0.044c0.022,0.25,0.225,0.447,0.479,0.453C11.519,23.998,11.523,24,11.526,24
			c0.275,0,0.5-0.225,0.474-0.5V13.233c0.602,0.596,2.597,2.57,3.146,3.12c0.001,0.001,0.002,0.001,0.003,0.002
			c0.191,0.188,0.512,0.188,0.703-0.002h0.001v-0.001C16.048,16.158,16.05,15.844,15.854,15.648z"/>
	</g>
</g>
<g id="Invisible_Shape">
	<rect fill="none" width="24" height="24"/>
</g>
</svg>
