<?xml version="1.0" encoding="utf-8"?>
<!-- Generator: Adobe Illustrator 19.2.1, SVG Export Plug-In . SVG Version: 6.00 Build 0)  -->
<svg version="1.1" xmlns="http://www.w3.org/2000/svg" xmlns:xlink="http://www.w3.org/1999/xlink" x="0px" y="0px" width="24px"
	 height="24px" viewBox="0 0 24 24" enable-background="new 0 0 24 24" xml:space="preserve">
<g id="Filled_Icon">
	<g>
		<path d="M14.501,13.683l2.242-1.246c0.241-0.134,0.328-0.438,0.194-0.679c-0.136-0.243-0.441-0.328-0.681-0.195L12,13.928
			c-1.532-0.851-0.554-0.307-4.257-2.365c-0.241-0.133-0.546-0.048-0.681,0.195c-0.134,0.24-0.047,0.545,0.194,0.679l2.242,1.246
			L7.18,15.615c-0.212,0.178-0.24,0.493-0.063,0.705c0.175,0.212,0.49,0.24,0.704,0.065l2.616-2.182l1.32,0.733
			c0.153,0.085,0.333,0.085,0.486,0l1.32-0.733l2.616,2.182c0.214,0.176,0.529,0.147,0.704-0.065
			c0.177-0.212,0.148-0.527-0.064-0.705L14.501,13.683z"/>
		<path d="M24,7V4.5C24,3.121,22.879,2,21.5,2h-19C1.121,2,0,3.121,0,4.5V7H24z M10,4c0.552,0,1,0.449,1,1s-0.448,1-1,1S9,5.551,9,5
			S9.448,4,10,4z M7,4c0.552,0,1,0.449,1,1S7.552,6,7,6S6,5.551,6,5S6.448,4,7,4z M4,4c0.552,0,1,0.449,1,1S4.552,6,4,6S3,5.551,3,5
			S3.448,4,4,4z"/>
		<path d="M0,8v10.5C0,19.879,1.121,21,2.5,21h19c1.379,0,2.5-1.121,2.5-2.5V8H0z M19,17c0,1.103-0.897,2-2,2H7
			c-1.102,0-2-0.897-2-2v-6c0-1.104,0.898-2,2-2h10c1.103,0,2,0.896,2,2V17z"/>
	</g>
</g>
<g id="Invisible_Shape">
	<rect fill="none" width="24" height="24"/>
</g>
</svg>
