<?xml version="1.0" encoding="utf-8"?>
<!-- Generator: Adobe Illustrator 19.2.0, SVG Export Plug-In . SVG Version: 6.00 Build 0)  -->
<svg version="1.1" xmlns="http://www.w3.org/2000/svg" xmlns:xlink="http://www.w3.org/1999/xlink" x="0px" y="0px" width="24px"
	 height="24px" viewBox="0 0 24 24" enable-background="new 0 0 24 24" xml:space="preserve">
<g id="Filled_Icons">
	<path d="M10,20.999c-0.277,0-0.447,0.034-0.727,0.075c-0.472-1.213-1.643-2.075-3.023-2.075c-1.708,0-3.093,1.322-3.225,2.996
		C1.602,22.205,1,22.999,1,23.999h12C13,22.342,11.656,20.999,10,20.999z"/>
	<g>
		<g>
			<path d="M1.5,7C1.224,7,1,6.776,1,6.5v-2C1,4.224,1.224,4,1.5,4S2,4.224,2,4.5v2C2,6.776,1.776,7,1.5,7z"/>
		</g>
		<g>
			<path d="M1.5,13C1.224,13,1,12.776,1,12.5v-2C1,10.224,1.224,10,1.5,10S2,10.224,2,10.5v2C2,12.776,1.776,13,1.5,13z"/>
		</g>
		<path d="M10,5V3H9C7.696,3,6.597,3.838,6.184,5H10z"/>
		<path d="M14.816,5C14.403,3.838,13.304,3,12,3h-1v2H14.816z"/>
		<path d="M4,6.217C3.823,6.295,3.653,6.386,3.5,6.5L2,8.5l1.498,1.999C3.651,10.614,3.822,10.705,4,10.783V6.217z"/>
		<path d="M22.5,3l-3,3H5v5h2v1.653c-0.293,0.174-0.5,0.48-0.5,0.847c0,0.553,0.448,1,1,1s1-0.447,1-1
			c0-0.366-0.207-0.673-0.5-0.847V11h2.781l3.406,3.987C14.857,15.616,15.759,16,16.75,16H20l-2.5-5H19c2.762,0,5-2.238,5-5V3H22.5z
			"/>
	</g>
</g>
<g id="invisible_shape">
	<rect fill="none" width="24" height="24"/>
</g>
</svg>
