<?xml version="1.0" encoding="utf-8"?>
<!-- Generator: Adobe Illustrator 19.2.0, SVG Export Plug-In . SVG Version: 6.00 Build 0)  -->
<svg version="1.1" xmlns="http://www.w3.org/2000/svg" xmlns:xlink="http://www.w3.org/1999/xlink" x="0px" y="0px" width="24px"
	 height="24px" viewBox="0 0 24 24" enable-background="new 0 0 24 24" xml:space="preserve">
<g id="Filled_Icons">
	<g>
		<path d="M22.5,12.5c-0.276,0-0.5,0.224-0.5,0.5v2c0,0.276,0.224,0.5,0.5,0.5S23,15.276,23,15v-2C23,12.724,22.776,12.5,22.5,12.5z
			"/>
		<path d="M22.5,10.5c0.276,0,0.5-0.224,0.5-0.5V8c0-0.276-0.224-0.5-0.5-0.5S22,7.724,22,8v2C22,10.276,22.224,10.5,22.5,10.5z"/>
		<path d="M23.004,22.5L23.004,22.5c-0.002,0-0.002,0-0.003,0c-0.747,0-1.429-0.381-1.825-1.019
			c-0.197-0.316-0.66-0.295-0.844-0.001c-0.001,0.003-0.003,0.004-0.005,0.006c-0.396,0.635-1.078,1.014-1.825,1.014
			c-0.004-0.001-0.004-0.001-0.005,0c-0.747,0-1.429-0.381-1.825-1.019c-0.175-0.282-0.639-0.342-0.848,0.009
			c-0.396,0.632-1.076,1.01-1.822,1.01c-0.004-0.001-0.004-0.001-0.005,0c-0.747,0-1.429-0.381-1.825-1.018
			c-0.189-0.293-0.651-0.341-0.853,0.018c-0.397,0.626-1.073,1-1.813,1c-0.003-0.001-0.003-0.001-0.005,0
			c-0.747,0-1.429-0.381-1.825-1.019C7.5,21.198,7.037,21.139,6.828,21.49c-0.396,0.632-1.076,1.01-1.822,1.01
			c-0.003-0.001-0.003-0.001-0.005,0c-0.747,0-1.429-0.381-1.825-1.018c-0.187-0.291-0.65-0.339-0.854,0.018
			c-0.397,0.626-1.072,1-1.812,1c-0.001,0-0.001,0-0.002,0H0.508c-0.276,0-0.499,0.224-0.5,0.499c0,0.276,0.223,0.501,0.5,0.501
			c0.001,0,0.002,0,0.003,0c0.864,0,1.659-0.356,2.246-0.961C3.342,23.144,4.137,23.5,5,23.5c0.002,0,0.004,0,0.007,0
			c0.865,0,1.661-0.357,2.248-0.963C7.84,23.143,8.636,23.5,9.5,23.5c0.002,0,0.004,0,0.007,0c0.864,0,1.659-0.356,2.246-0.961
			c0.585,0.604,1.38,0.961,2.244,0.961c0.002,0,0.004,0,0.007,0c0.865,0,1.661-0.357,2.248-0.963
			c0.586,0.605,1.381,0.963,2.246,0.963c0.002,0,0.004,0,0.007,0c0.866,0,1.663-0.358,2.25-0.966
			c0.586,0.607,1.382,0.966,2.249,0.966c0.001,0,0.002,0,0.003,0c0.276,0,0.5-0.225,0.5-0.501C23.503,22.724,23.28,22.5,23.004,22.5
			z"/>
		<g>
			<path d="M13,9h3.837c-0.433-1.442-1.754-2.5-3.337-2.5c-0.171,0-0.335,0.026-0.5,0.05V9z"/>
			<path d="M23,11h-2.5c0-0.552-0.447-1-1-1h-7C12.224,10,12,9.776,12,9.5V6.851c-0.351,0.168-0.675,0.381-0.949,0.649L7.5,11H6
				L4.499,8.998C4.043,8.392,3.317,8,2.5,8H0c0,0.561,0.185,1.078,0.496,1.496L4.5,15h1.973L5.46,18H2c0,1.68,1.374,3,2.998,3
				C4.999,21,5,21,5.001,21h0.005c0.746,0,1.426-0.378,1.822-1.01c0.208-0.35,0.668-0.291,0.848-0.009
				C8.072,20.619,8.754,21,9.501,21h0.005c0.741,0,1.416-0.374,1.813-1c0.203-0.36,0.666-0.307,0.853-0.018
				C12.568,20.619,13.25,21,13.997,21h0.005c0.746,0,1.426-0.378,1.822-1.01c0.205-0.343,0.653-0.297,0.841-0.017
				c0.386,0.604,0.966,0.932,1.612,0.998C19.803,20.83,21,19.562,21,18h-3.46l-1.013-3H17l2.916-3H23c0.276,0,0.5-0.224,0.5-0.5
				S23.276,11,23,11z M8,12h6.5c0.276,0,0.5,0.224,0.5,0.5S14.776,13,14.5,13H8c-0.276,0-0.5-0.224-0.5-0.5S7.724,12,8,12z
				 M6.516,18l1.018-3h7.933l1.018,3H6.516z"/>
		</g>
	</g>
</g>
<g id="invisible_shape">
	<rect fill="none" width="24" height="24"/>
</g>
</svg>
