<?xml version="1.0" encoding="utf-8"?>
<!-- Generator: Adobe Illustrator 19.2.0, SVG Export Plug-In . SVG Version: 6.00 Build 0)  -->
<svg version="1.1" xmlns="http://www.w3.org/2000/svg" xmlns:xlink="http://www.w3.org/1999/xlink" x="0px" y="0px" width="24px"
	 height="24px" viewBox="0 0 24 24" enable-background="new 0 0 24 24" xml:space="preserve">
<g id="Filled_Icons">
	<g>
		<path d="M22.5,11.5c-0.276,0-0.5,0.224-0.5,0.5v2c0,0.276,0.224,0.5,0.5,0.5S23,14.276,23,14v-2C23,11.724,22.776,11.5,22.5,11.5z
			"/>
		<path d="M22.5,9.5C22.776,9.5,23,9.276,23,9V7c0-0.276-0.224-0.5-0.5-0.5S22,6.724,22,7v2C22,9.276,22.224,9.5,22.5,9.5z"/>
		<path d="M14.5,5.5c-0.171,0-0.335,0.026-0.5,0.05V8h3.837C17.405,6.558,16.083,5.5,14.5,5.5z"/>
		<path d="M2,23H0.5C0.224,23,0,23.224,0,23.5S0.224,24,0.5,24H2c0.276,0,0.5-0.224,0.5-0.5S2.276,23,2,23z"/>
		<path d="M14.5,23h-10C4.224,23,4,23.224,4,23.5S4.224,24,4.5,24h10c0.276,0,0.5-0.224,0.5-0.5S14.776,23,14.5,23z"/>
		<path d="M5,4h1.5C6.776,4,7,3.776,7,3.5S6.776,3,6.5,3H5C4.724,3,4.5,3.224,4.5,3.5S4.724,4,5,4z"/>
		<path d="M8.5,4H17c0.276,0,0.5-0.224,0.5-0.5S17.276,3,17,3H8.5C8.224,3,8,3.224,8,3.5S8.224,4,8.5,4z"/>
		<path d="M23.5,10h-2c0-0.552-0.447-1-1-1h-7C13.224,9,13,8.776,13,8.5V5.851c-0.351,0.168-0.675,0.381-0.949,0.649L8.5,10H7
			L5.499,7.998C5.043,7.392,4.317,7,3.5,7H1c0,0.561,0.185,1.078,0.496,1.496L5.5,14h1.86l-0.75,3H3c0,1.656,1.343,3,3,3h13
			c1.657,0,3-1.344,3-3h-3.61l-0.75-3H18l2.916-3H23.5c0.276,0,0.5-0.224,0.5-0.5S23.776,10,23.5,10z M9,11h6.5
			c0.276,0,0.5,0.224,0.5,0.5S15.776,12,15.5,12H9c-0.276,0-0.5-0.224-0.5-0.5S8.724,11,9,11z M7.64,17l0.75-3h8.22l0.75,3H7.64z"/>
	</g>
</g>
<g id="invisible_shape">
	<rect fill="none" width="24" height="24"/>
</g>
</svg>
