<?xml version="1.0" encoding="utf-8"?>
<!-- Generator: Adobe Illustrator 19.2.0, SVG Export Plug-In . SVG Version: 6.00 Build 0)  -->
<svg version="1.1" xmlns="http://www.w3.org/2000/svg" xmlns:xlink="http://www.w3.org/1999/xlink" x="0px" y="0px" width="24px"
	 height="24px" viewBox="0 0 24 24" enable-background="new 0 0 24 24" xml:space="preserve">
<g id="Filled_Icons">
	<g>
		<path d="M7.401,18.194C6.012,18.658,5,19.957,5,21.5C5,21.776,5.224,22,5.5,22h2.408C7.705,21.355,7.712,20.994,7.401,18.194z"/>
		<path d="M16.599,18.194c-0.314,2.827-0.306,3.169-0.507,3.806H18.5c0.276,0,0.5-0.224,0.5-0.5
			C19,19.957,17.988,18.658,16.599,18.194z"/>
		<path d="M7,4h2.658C9.622,4.203,9.595,4.392,9.573,4.569C10.322,4.203,11.149,4,12,4s1.678,0.203,2.427,0.569
			C14.405,4.392,14.379,4.203,14.342,4H17c0.276,0,0.5-0.224,0.5-0.5S17.276,3,17,3h-2.907C13.754,1.963,13.137,1,12,1
			c-1.138,0-1.756,0.963-2.094,2H7C6.724,3,6.5,3.224,6.5,3.5S6.724,4,7,4z"/>
		<path d="M12,5c-2.691,0-4.799,2.344-4.5,5.028l1.227,11.043C8.912,22.741,10.319,24,12,24s3.087-1.259,3.273-2.929L16.5,10.028
			C16.798,7.342,14.69,5,12,5z M14.406,10.378l-0.331,3.175C14.049,13.807,13.835,14,13.578,14h-3.234
			c-0.261,0-0.477-0.199-0.499-0.46l-0.253-3.18c-0.073-0.668,0.141-1.329,0.604-1.848c0.921-1.031,2.697-1.023,3.607-0.008
			C14.262,9.018,14.481,9.7,14.406,10.378z"/>
		<g>
			<path d="M17.065,14H19V7h-2.093c0.493,0.959,0.707,2.049,0.587,3.139L17.065,14z"/>
			<rect x="20" y="7" width="1" height="7"/>
			<path d="M22,7.051v6.898c1.14-0.232,2-1.242,2-2.449v-2C24,8.293,23.14,7.283,22,7.051z"/>
		</g>
		<g>
			<path d="M2,7.051C0.86,7.283,0,8.293,0,9.5v2c0,1.207,0.86,2.217,2,2.449V7.051z"/>
			<rect x="3" y="7" width="1" height="7"/>
			<path d="M7.093,7H5v7h1.936l-0.43-3.861C6.385,9.049,6.6,7.959,7.093,7z"/>
		</g>
	</g>
</g>
<g id="invisible_shape">
	<rect fill="none" width="24" height="24"/>
</g>
</svg>
