<?xml version="1.0" encoding="utf-8"?>
<!-- Generator: Adobe Illustrator 19.2.0, SVG Export Plug-In . SVG Version: 6.00 Build 0)  -->
<svg version="1.1" xmlns="http://www.w3.org/2000/svg" xmlns:xlink="http://www.w3.org/1999/xlink" x="0px" y="0px" width="24px"
	 height="24px" viewBox="0 0 24 24" enable-background="new 0 0 24 24" xml:space="preserve">
<g id="Filled_Icons">
	<g>
		<path d="M11.5,4C11.776,4,12,4.224,12,4.5S11.776,5,11.5,5H3.649c-0.165,0.724-0.156,1.314,0,2h20.23c0.159-0.701,0.161-1.293,0-2
			H19.5C19.224,5,19,4.776,19,4.5S19.224,4,19.5,4h4.012C23,2.5,21.245,1,19.481,1H8C6.244,1.004,4.5,2.5,4.018,4H11.5z M16.5,4h1
			C17.776,4,18,4.224,18,4.5S17.776,5,17.5,5h-1C16.224,5,16,4.776,16,4.5S16.224,4,16.5,4z M13.5,4h1C14.776,4,15,4.224,15,4.5
			S14.776,5,14.5,5h-1C13.224,5,13,4.776,13,4.5S13.224,4,13.5,4z"/>
		<path d="M4.019,8c0.481,1.5,2.25,2.999,4.009,2.999V11H19.5c1.763,0,3.5-1.5,4.012-3H4.019z"/>
		<polygon points="10.333,12 11,14 15.5,14 16.167,12 		"/>
		<path d="M12.862,20.69l-0.006,0.001c-2.032-3.388-7.12-2.7-8.182,1.098l-0.01,0.001C3.531,20.935,1,21.825,1,24h16.5
			C17.5,21.579,15.109,19.915,12.862,20.69z"/>
		<path d="M2.528,5.999c0-0.783,0.167-1.527,0.464-2.202L1,3v6l1.993-0.797C2.696,7.527,2.528,6.783,2.528,5.999z"/>
	</g>
</g>
<g id="invisible_shape">
	<rect fill="none" width="24" height="24"/>
</g>
</svg>
