<?xml version="1.0" encoding="utf-8"?>
<!-- Generator: Adobe Illustrator 19.2.0, SVG Export Plug-In . SVG Version: 6.00 Build 0)  -->
<svg version="1.1" xmlns="http://www.w3.org/2000/svg" xmlns:xlink="http://www.w3.org/1999/xlink" x="0px" y="0px" width="24px"
	 height="24px" viewBox="0 0 24 24" enable-background="new 0 0 24 24" xml:space="preserve">
<g id="Filled_Icons">
	<g>
		<path d="M4,19.242V21h1.5C5.776,21,6,21.224,6,21.5S5.776,22,5.5,22H4v0.5C4,22.776,4.224,23,4.5,23h6c0.276,0,0.5-0.224,0.5-0.5
			v-1.509C8.383,20.953,5.97,20.309,4,19.242z"/>
		<path d="M23.478,21.353l-1.533-4.983c-1.33,1.75-3.428,3.145-5.962,3.929l0.553,1.388C16.611,21.875,16.795,22,17,22h6
			C23.333,22,23.578,21.679,23.478,21.353z"/>
		<path d="M21.948,7.638l1.529-4.991C23.576,2.327,23.336,2,23,2h-6c-0.206,0-0.39,0.126-0.465,0.317l-0.546,1.387
			C18.522,4.489,20.62,5.886,21.948,7.638z"/>
		<path d="M17.992,14c-0.829,0-1.5-0.671-1.5-1.5c0-0.828,0.671-1.5,1.5-1.5h4.402c-0.695-3.939-5.427-7-11.152-7
			c-6.203,0-11.25,3.589-11.25,8s5.047,8,11.25,8c5.231,0,9.626-2.555,10.88-6H17.992z"/>
		<g>
			<path d="M23.472,13h-5.479c-0.276,0-0.5-0.224-0.5-0.5s0.224-0.5,0.5-0.5h5.479c0.276,0,0.5,0.224,0.5,0.5S23.748,13,23.472,13z"
				/>
		</g>
	</g>
</g>
<g id="invisible_shape">
	<rect fill="none" width="24" height="24"/>
</g>
</svg>
