<?xml version="1.0" encoding="utf-8"?>
<!-- Generator: Adobe Illustrator 19.2.0, SVG Export Plug-In . SVG Version: 6.00 Build 0)  -->
<svg version="1.1" xmlns="http://www.w3.org/2000/svg" xmlns:xlink="http://www.w3.org/1999/xlink" x="0px" y="0px" width="24px"
	 height="24px" viewBox="0 0 24 24" enable-background="new 0 0 24 24" xml:space="preserve">
<g id="Filled_Icons">
	<g>
		<circle cx="19.5" cy="19.506" r="1"/>
		<path d="M18.424,15.141l-1.763-4.785l1.46-0.365c0.268-0.066,0.431-0.338,0.363-0.605c-0.066-0.269-0.339-0.434-0.605-0.364
			l-2,0.5c-0.286,0.071-0.452,0.375-0.349,0.658l0.507,1.376l-6.78,2.333l-0.765-1.882H9.5c0.276,0,0.5-0.224,0.5-0.5
			c0-0.276-0.224-0.5-0.5-0.5H7.759c-0.002,0-0.004,0-0.006,0H6.5c-0.276,0-0.5,0.224-0.5,0.5c0,0.276,0.224,0.5,0.5,0.5h0.913
			l0.984,2.422l-1.281,1.424c-0.738-0.529-1.641-0.846-2.616-0.846c-2.481,0-4.5,2.019-4.5,4.5c0,2.481,2.019,4.5,4.5,4.5
			c2.312,0,4.221-1.754,4.47-4h1.998c0.011,0,0.021,0.002,0.031,0.002c0.153,0,0.304-0.071,0.402-0.203l5.132-6.904l0.953,2.586
			C16.014,16.228,15,17.748,15,19.506c0,2.481,2.019,4.5,4.5,4.5s4.5-2.019,4.5-4.5C24,16.657,21.339,14.433,18.424,15.141z
			 M4.5,22.506c-1.654,0-3-1.346-3-3c0-1.654,1.346-3,3-3s3,1.346,3,3C7.5,21.16,6.154,22.506,4.5,22.506z M8.97,19.006
			c-0.105-0.949-0.509-1.808-1.111-2.484l0.957-1.064l1.441,3.549H8.97z M11.129,18.495l-1.495-3.68l5.685-1.956L11.129,18.495z
			 M19.5,22.506c-1.654,0-3-1.346-3-3c0-1.654,1.346-3,3-3s3,1.346,3,3C22.5,21.16,21.154,22.506,19.5,22.506z"/>
		<circle cx="4.5" cy="19.506" r="1"/>
	</g>
</g>
<g id="invisible_shape">
	<rect fill="none" width="24" height="24"/>
</g>
</svg>
