<?xml version="1.0" encoding="utf-8"?>
<!-- Generator: Adobe Illustrator 19.2.0, SVG Export Plug-In . SVG Version: 6.00 Build 0)  -->
<svg version="1.1" xmlns="http://www.w3.org/2000/svg" xmlns:xlink="http://www.w3.org/1999/xlink" x="0px" y="0px" width="24px"
	 height="24px" viewBox="0 0 24 24" enable-background="new 0 0 24 24" xml:space="preserve">
<g id="Filled_Icons">
	<g>
		<circle cx="19.5" cy="19.5" r="1"/>
		<path d="M19.5,15c-0.522,0-1.021,0.094-1.488,0.258l-1.128-4.176l2.405,0.279c0.273,0.041,0.464,0.295,0.426,0.566
			c-0.04,0.273-0.299,0.462-0.567,0.424c-0.276-0.043-0.527,0.15-0.566,0.423c-0.039,0.274,0.15,0.528,0.423,0.566
			c0.821,0.121,1.581-0.45,1.7-1.271c0.116-0.818-0.454-1.58-1.285-1.7l-3.152-0.367c-0.336-0.048-0.634,0.276-0.54,0.627l0.64,2.37
			h-7.56l-0.998-2.371l1.034,0.345c0.271,0.091,0.548-0.063,0.632-0.315c0.088-0.263-0.054-0.546-0.315-0.633l-3-1
			C5.894,8.936,5.613,9.08,5.525,9.342C5.438,9.604,5.58,9.887,5.842,9.974l0.703,0.235l1.374,3.261l-1.356,2.035
			C5.943,15.184,5.243,15,4.5,15C2.019,15,0,17.02,0,19.5C0,21.981,2.019,24,4.5,24c2.312,0,4.221-1.754,4.47-4h1.999
			c0.01,0,0.021,0.002,0.031,0.002c0.128,0,0.256-0.05,0.354-0.148l5.404-5.405l0.338,1.253C15.838,16.502,15,17.902,15,19.5
			c0,2.481,2.019,4.5,4.5,4.5s4.5-2.019,4.5-4.5C24,17.02,21.981,15,19.5,15z M4.5,22.5c-1.654,0-3-1.346-3-3s1.346-3,3-3
			s3,1.346,3,3S6.154,22.5,4.5,22.5z M8.97,19c-0.13-1.176-0.716-2.215-1.575-2.94l0.989-1.484L10.247,19H8.97z M11.172,18.621
			L9.227,14h6.566L11.172,18.621z M19.5,22.5c-1.654,0-3-1.346-3-3s1.346-3,3-3s3,1.346,3,3S21.154,22.5,19.5,22.5z"/>
		<circle cx="4.5" cy="19.5" r="1"/>
	</g>
</g>
<g id="invisible_shape">
	<rect fill="none" width="24" height="24"/>
</g>
</svg>
