<?xml version="1.0" encoding="utf-8"?>
<!-- Generator: Adobe Illustrator 19.2.0, SVG Export Plug-In . SVG Version: 6.00 Build 0)  -->
<svg version="1.1" xmlns="http://www.w3.org/2000/svg" xmlns:xlink="http://www.w3.org/1999/xlink" x="0px" y="0px" width="24px"
	 height="24px" viewBox="0 0 24 24" enable-background="new 0 0 24 24" xml:space="preserve">
<g id="Filled_Icons">
	<g>
		<circle cx="19.5" cy="19.506" r="1"/>
		<path d="M19.5,15.006c-0.514,0-1.006,0.091-1.467,0.25l-1.53-5.804C16.529,9.201,16.742,9.006,17,9.006c0.827,0,1.5-0.673,1.5-1.5
			c0-0.827-0.673-1.5-1.5-1.5h-2c-0.276,0-0.5,0.224-0.5,0.5c0,0.276,0.224,0.5,0.5,0.5h2c0.275,0,0.5,0.224,0.5,0.5
			c0,0.275-0.225,0.5-0.5,0.5c-0.827,0-1.5,0.673-1.5,1.5c0,0.043,0.005,0.086,0.017,0.127l0.838,3.179
			c-0.64-0.136-1.595-0.286-2.717-0.286c-1.527,0-3.301,0.281-4.975,1.188l-1.355-2.708H8.5c0.276,0,0.5-0.224,0.5-0.5
			c0-0.276-0.224-0.5-0.5-0.5h-3c-0.276,0-0.5,0.224-0.5,0.5c0,0.276,0.224,0.5,0.5,0.5h0.69l1.616,3.231
			c-0.48,0.337-0.943,0.739-1.386,1.205c-0.584-0.277-1.233-0.436-1.921-0.436c-2.481,0-4.5,2.019-4.5,4.5
			c0,2.481,2.019,4.5,4.5,4.5c2.312,0,4.221-1.76,4.47-4.006H12c0.227,0,0.425-0.147,0.483-0.367
			c0.01-0.036,0.952-3.439,4.251-5.383l0.38,1.446C15.847,16.493,15,17.9,15,19.506c0,2.481,2.019,4.5,4.5,4.5s4.5-2.019,4.5-4.5
			C24,17.025,21.981,15.006,19.5,15.006z M4.5,22.506c-1.654,0-3-1.346-3-3c0-1.654,1.346-3,3-3s3,1.346,3,3
			C7.5,21.16,6.154,22.506,4.5,22.506z M8.97,19.006c-0.135-1.219-0.759-2.289-1.669-3.016c0.313-0.311,0.636-0.588,0.968-0.829
			l1.922,3.845H8.97z M11.633,19.006h-0.324l-2.194-4.388c1.521-0.839,3.135-1.093,4.523-1.093c0.802,0,1.518,0.085,2.071,0.182
			C13.054,15.487,11.963,18.049,11.633,19.006z M19.5,22.506c-1.654,0-3-1.346-3-3c0-1.654,1.346-3,3-3s3,1.346,3,3
			C22.5,21.16,21.154,22.506,19.5,22.506z"/>
		<circle cx="4.5" cy="19.506" r="1"/>
	</g>
</g>
<g id="invisible_shape">
	<rect fill="none" width="24" height="24"/>
</g>
</svg>
