<?xml version="1.0" encoding="utf-8"?>
<!-- Generator: Adobe Illustrator 19.2.0, SVG Export Plug-In . SVG Version: 6.00 Build 0)  -->
<svg version="1.1" xmlns="http://www.w3.org/2000/svg" xmlns:xlink="http://www.w3.org/1999/xlink" x="0px" y="0px" width="24px"
	 height="24px" viewBox="0 0 24 24" enable-background="new 0 0 24 24" xml:space="preserve">
<g id="Filled_Icons">
	<g>
		<path d="M18,10.788v-5.18c0.748,0.205,2,0.787,2,2.398c0,0.276,0.224,0.5,0.5,0.5s0.5-0.224,0.5-0.5
			c0-2.539-2.263-3.399-3.459-3.498C17.261,4.478,17,4.707,17,5.006v2h-1c-1.774,0-3.467,0.403-5,1.1V6h1.5
			C12.776,6,13,5.782,13,5.506c0-0.276-0.224-0.5-0.5-0.5h-4c-0.276,0-0.5,0.224-0.5,0.5C8,5.782,8.224,6,8.5,6H10v2.615
			c-2.438,1.388-4.353,3.571-5.317,6.146c-0.02,0-0.038-0.006-0.058-0.006C2.074,14.756,0,16.831,0,19.381
			c0,2.551,2.074,4.625,4.625,4.625c2.55,0,4.625-2.074,4.625-4.625c0-2.174-1.515-3.991-3.54-4.482C7.291,10.924,11.359,8,16,8h1
			v2.775c-3.478,0.196-6.25,3.08-6.25,6.605c0,3.653,2.972,6.625,6.625,6.625c3.652,0,6.625-2.972,6.625-6.625
			C24,13.939,21.36,11.104,18,10.788z M8,19.381c0,1.861-1.515,3.375-3.375,3.375c-1.861,0-3.375-1.514-3.375-3.375
			c0-1.86,1.514-3.375,3.375-3.375C6.485,16.006,8,17.521,8,19.381z M17.375,22.756c-2.964,0-5.375-2.411-5.375-5.375
			c0-2.964,2.411-5.375,5.375-5.375s5.375,2.411,5.375,5.375C22.75,20.345,20.339,22.756,17.375,22.756z"/>
		<circle cx="17.375" cy="17.381" r="1"/>
		<circle cx="4.625" cy="19.381" r="1"/>
	</g>
</g>
<g id="invisible_shape">
	<rect fill="none" width="24" height="24"/>
</g>
</svg>
