<?xml version="1.0" encoding="utf-8"?>
<!-- Generator: Adobe Illustrator 19.2.0, SVG Export Plug-In . SVG Version: 6.00 Build 0)  -->
<svg version="1.1" xmlns="http://www.w3.org/2000/svg" xmlns:xlink="http://www.w3.org/1999/xlink" x="0px" y="0px" width="24px"
	 height="24px" viewBox="0 0 24 24" enable-background="new 0 0 24 24" xml:space="preserve">
<g id="Filled_Icons">
	<g>
		<path d="M23.5,17H22v-5c0-1.656-1.344-3-3-3h-2v2h3v3h-3v3h-4V7.5C13,7.224,12.776,7,12.5,7h-9C3.224,7,3,7.224,3,7.5
			S3.224,8,3.5,8H8c2.206,0,4,1.794,4,4v5H6.5v-2h-4v2h-2c0,1.815,0.81,3.438,2.083,4.538c-1,0.353-0.326,1.217-2.079,1.217
			c-0.276,0-0.5,0.224-0.5,0.5c0,0.276,0.224,0.5,0.5,0.5c0.865,0,1.662-0.357,2.248-0.962C3.339,23.398,4.135,23.755,5,23.755
			c0.866,0,1.664-0.358,2.25-0.964c0.587,0.605,1.384,0.964,2.25,0.964c0.865,0,1.662-0.357,2.248-0.962
			c0.587,0.605,1.383,0.962,2.248,0.962c0.866,0,1.664-0.358,2.25-0.964c0.587,0.605,1.384,0.964,2.25,0.964
			c0.867,0,1.665-0.359,2.252-0.966c0.587,0.607,1.385,0.966,2.252,0.966c0.276,0,0.5-0.224,0.5-0.5c0-0.276-0.224-0.5-0.5-0.5
			c-0.748,0-1.431-0.381-1.827-1.018C22.586,20.64,23.5,18.928,23.5,17z"/>
		<rect x="17" y="12" width="2" height="1"/>
		<path d="M4.5,11C4.776,11,5,10.776,5,10.5V10c0-0.276-0.224-0.5-0.5-0.5S4,9.724,4,10v0.5C4,10.776,4.224,11,4.5,11z"/>
		<path d="M4,13c0,0.276,0.224,0.5,0.5,0.5S5,13.276,5,13v-0.5C5,12.224,4.776,12,4.5,12S4,12.224,4,12.5V13z"/>
		<path d="M14,5.245c0.551,0,1,0.448,1,1c0,0.276,0.224,0.5,0.5,0.5s0.5-0.224,0.5-0.5c0-0.552,0.449-1,1-1
			c0.276,0,0.5-0.224,0.5-0.5s-0.224-0.5-0.5-0.5c-0.6,0-1.133,0.272-1.5,0.691c-0.367-0.42-0.9-0.691-1.5-0.691
			c-0.276,0-0.5,0.224-0.5,0.5S13.724,5.245,14,5.245z"/>
		<path d="M23.5,2.245c-1.171,0-2.23,0.614-2.841,1.558c-0.569-0.821-1.513-1.354-2.56-1.354c-0.276,0-0.5,0.224-0.5,0.5
			c0,0.276,0.224,0.5,0.5,0.5c1.004,0,1.878,0.712,2.078,1.691c0.027,0.134,0.108,0.239,0.212,0.311
			c0.002,0.001,0.005,0.002,0.008,0.004c0.048,0.031,0.099,0.053,0.155,0.066c0.007,0.002,0.013,0.007,0.021,0.009
			c0.026,0.006,0.052,0.007,0.078,0.009c0.005,0,0.01,0.002,0.015,0.002c0.001,0,0.003,0,0.005,0c0.001,0,0.003,0,0.004,0
			c0.004,0,0.008-0.002,0.012-0.002c0.026-0.001,0.052-0.002,0.078-0.008c0.009-0.002,0.015-0.008,0.023-0.01
			c0.055-0.014,0.105-0.035,0.152-0.065c0.003-0.002,0.006-0.004,0.009-0.006c0.105-0.07,0.186-0.175,0.214-0.309
			c0.228-1.1,1.21-1.898,2.334-1.898c0.276,0,0.5-0.224,0.5-0.5S23.776,2.245,23.5,2.245z"/>
	</g>
</g>
<g id="invisible_shape">
	<rect fill="none" width="24" height="24"/>
</g>
</svg>
