<?xml version="1.0" encoding="utf-8"?>
<!-- Generator: Adobe Illustrator 19.2.0, SVG Export Plug-In . SVG Version: 6.00 Build 0)  -->
<svg version="1.1" xmlns="http://www.w3.org/2000/svg" xmlns:xlink="http://www.w3.org/1999/xlink" x="0px" y="0px" width="24px"
	 height="24px" viewBox="0 0 24 24" enable-background="new 0 0 24 24" xml:space="preserve">
<g id="Filled_Icons">
	<g>
		<rect x="2" y="10" width="3" height="3"/>
		<rect x="6" y="10" width="4" height="3"/>
		<rect x="11" y="10" width="7" height="3"/>
		<path d="M24,1c0-0.276-0.224-0.5-0.5-0.5S23,0.724,23,1v2.512C22.581,3.195,22.065,3,21.5,3H19v2h2.5C21.776,5,22,5.224,22,5.5v3
			C22,8.776,21.776,9,21.5,9H19v8h5V1z"/>
		<path d="M7.771,7.5c0.123,0,0.245-0.045,0.341-0.135C8.314,7.177,8.324,6.86,8.136,6.658C8.048,6.564,8,6.442,8,6.313
			c0-0.28,0.228-0.509,0.509-0.509c0.281,0,0.509,0.228,0.509,0.509c0,0.125-0.046,0.245-0.129,0.34
			C8.705,6.859,8.725,7.176,8.931,7.358c0.207,0.185,0.523,0.166,0.706-0.043c0.245-0.276,0.38-0.633,0.38-1.002
			c0-0.656-0.423-1.21-1.01-1.417L9.003,2.086L14.306,9H18L8.856,0.151C8.754,0.049,8.623,0,8.5,0c0,0,0,0-0.001,0
			C8.26,0,8,0.199,8,0.5l0,0v0.001l0.008,4.396C7.423,5.104,7,5.658,7,6.313c0,0.384,0.144,0.748,0.405,1.028
			C7.504,7.446,7.637,7.5,7.771,7.5z"/>
		<path d="M24,18H1c0,1.471,0.638,2.789,1.649,3.704C2.243,22.199,1.653,22.5,1.003,22.5c-0.001,0-0.001,0-0.002,0h0
			c-0.276,0-0.499,0.224-0.5,0.499c0,0.277,0.193,0.47,0.503,0.501c0.864,0,1.659-0.356,2.246-0.961
			c0.586,0.604,1.38,0.961,2.244,0.961c0.002,0,0.004,0,0.007,0c0.865,0,1.661-0.357,2.248-0.963
			C8.333,23.143,9.128,23.5,9.992,23.5c0.002,0,0.004,0,0.007,0c0.874,0,1.676-0.366,2.264-0.982
			c0.582,0.607,1.362,0.982,2.226,0.982c0.002,0,0.004,0,0.007,0c0.865,0,1.661-0.357,2.248-0.963
			c0.586,0.605,1.381,0.963,2.246,0.963c0.002,0,0.004,0,0.007,0c0.866,0,1.663-0.358,2.25-0.966
			c0.586,0.607,1.382,0.966,2.249,0.966c0.001,0,0.002,0,0.003,0c0.276,0,0.5-0.225,0.5-0.501c0-0.275-0.224-0.499-0.5-0.499h0
			c-0.001,0-0.001,0-0.002,0c-0.539,0-1.041-0.204-1.429-0.555C23.241,21.031,24,19.605,24,18z"/>
		<rect x="2" y="14" width="8" height="3"/>
		<rect x="11" y="14" width="3" height="3"/>
		<rect x="15" y="14" width="3" height="3"/>
	</g>
</g>
<g id="invisible_shape">
	<rect fill="none" width="24" height="24"/>
</g>
</svg>
