<?xml version="1.0" encoding="utf-8"?>
<!-- Generator: Adobe Illustrator 19.2.0, SVG Export Plug-In . SVG Version: 6.00 Build 0)  -->
<svg version="1.1" xmlns="http://www.w3.org/2000/svg" xmlns:xlink="http://www.w3.org/1999/xlink" x="0px" y="0px" width="24px"
	 height="24px" viewBox="0 0 24 24" enable-background="new 0 0 24 24" xml:space="preserve">
<g id="Filled_Icons">
	<g>
		<path d="M4.247,2.159l0.39-0.264C5.078,1.637,5.583,1.5,6.1,1.5c1.402,0,2.469,0.786,2.926,2.158
			C9.114,3.923,9.4,4.061,9.658,3.975c0.262-0.088,0.403-0.371,0.316-0.633C9.381,1.563,7.933,0.5,6.1,0.5
			c-0.694,0-1.374,0.185-1.996,0.55L3.685,1.332C2.983,1.808,1.943,1.68,1.375,1.035C1.192,0.827,0.877,0.808,0.67,0.99
			C0.462,1.172,0.442,1.488,0.624,1.695C1.517,2.709,3.144,2.911,4.247,2.159z"/>
		<path d="M24,23.499C24,23.224,23.776,23,23.5,23h0c-0.001,0-0.002,0-0.002,0c-0.747,0-1.429-0.381-1.825-1.019
			c-0.062-0.099-0.195-0.2-0.345-0.225c-0.2-0.032-0.402,0.063-0.504,0.229C20.427,22.621,19.745,23,18.998,23
			c-0.003,0-0.004,0-0.005,0c-0.554,0-1.07-0.211-1.462-0.579c3.326-0.458,5.95-3.093,6.395-6.421H13.467
			c-0.2,1.523-1.296,3-2.967,3H0v4.5h0.004c0,0.275,0.724,0.5,0.999,0.5c0.001,0,0.002,0,0.003,0c0.864,0,1.659-0.356,2.246-0.961
			C3.838,23.644,4.633,24,5.496,24c0.002,0,0.004,0,0.007,0c0.865,0,1.661-0.357,2.248-0.963C8.336,23.643,9.132,24,9.996,24
			c0.002,0,0.004,0,0.007,0c0.864,0,1.659-0.356,2.246-0.961C12.834,23.644,13.629,24,14.492,24c0.002,0,0.004,0,0.007,0
			c0.865,0,1.661-0.357,2.248-0.963C17.333,23.643,18.128,24,18.992,24c0.002,0,0.004,0,0.007,0c0.866,0,1.663-0.358,2.25-0.966
			C21.834,23.642,22.631,24,23.497,24c0.001,0,0.002,0,0.002,0C23.777,24,24,23.775,24,23.499z"/>
		<rect x="9" y="5" width="2" height="3"/>
		<rect x="3" y="5" width="2" height="3"/>
		<rect x="5" y="17" width="2" height="1"/>
		<rect y="17" width="2" height="1"/>
		<rect x="3" y="17" width="1" height="1"/>
		<rect x="8" y="17" width="1" height="1"/>
		<circle cx="9.5" cy="12.5" r="1"/>
		<circle cx="3.5" cy="12.5" r="1"/>
		<path d="M12.5,15h4c0-2.221-0.966-4.627-2.5-6H0v7h12.5V15z M3.5,14.5c-1.103,0-2-0.898-2-2s0.897-2,2-2s2,0.898,2,2
			S4.603,14.5,3.5,14.5z M9.5,14.5c-1.103,0-2-0.898-2-2s0.897-2,2-2s2,0.898,2,2S10.603,14.5,9.5,14.5z"/>
		<path d="M10.5,17H10v1h0.5c0.699,0,1.24-0.422,1.584-1H10.5z"/>
	</g>
</g>
<g id="invisible_shape">
	<rect fill="none" width="24" height="24"/>
</g>
</svg>
