<?xml version="1.0" encoding="utf-8"?>
<!-- Generator: Adobe Illustrator 19.2.0, SVG Export Plug-In . SVG Version: 6.00 Build 0)  -->
<svg version="1.1" xmlns="http://www.w3.org/2000/svg" xmlns:xlink="http://www.w3.org/1999/xlink" x="0px" y="0px" width="24px"
	 height="24px" viewBox="0 0 24 24" enable-background="new 0 0 24 24" xml:space="preserve">
<g id="Filled_Icons">
	<g>
		<path d="M14,2V0.5C14,0.224,13.776,0,13.5,0h-4C9.224,0,9,0.224,9,0.5V2H14z"/>
		<g>
			<path d="M14,8H9C8.724,8,8.5,7.776,8.5,7.5S8.724,7,9,7h5c0.276,0,0.5,0.224,0.5,0.5S14.276,8,14,8z"/>
		</g>
		<g>
			<path d="M3.635,11.757l0.654,2.612L11,12.037V9l0.001-0.003L6,10.174V7.518C6,6.69,6.673,6.018,7.5,6h8
				C16.327,6.018,17,6.69,17,7.518v2.656l-5.001-1.177L12,9v3.037l6.714,2.334l0.652-2.614l0.519,0.122
				c0.255,0.065,0.537-0.095,0.601-0.372c0.063-0.268-0.103-0.538-0.372-0.601L18,10.408V7.518c0-1.379-1.122-2.5-2.5-2.5H14V3H9
				v2.018H7.5c-1.378,0-2.5,1.121-2.5,2.5v2.891l-2.115,0.498c-0.269,0.063-0.435,0.332-0.372,0.601
				c0.063,0.269,0.332,0.439,0.602,0.372L3.635,11.757z"/>
			<path d="M20.43,22.978c-0.148-0.232-0.458-0.301-0.69-0.153c-0.43,0.273-1.24,0.125-1.24-0.432c0-0.921-0.653-1.442-1.396-1.568
				l1.366-5.478L12,13.096V19c0,0.276-0.224,0.5-0.5,0.5S11,19.276,11,19v-5.904l-6.467,2.248l1.408,5.619
				C5.407,21.195,5,21.668,5,22.393c0,0.563-0.81,0.734-1.238,0.463c-0.235-0.146-0.543-0.078-0.69,0.155
				c-0.148,0.233-0.078,0.542,0.155,0.691C4.292,24.372,6,23.795,6,22.393c0-0.607,0.673-0.625,0.75-0.625
				c0.403,0,0.75,0.204,0.75,0.625c0,0.497,0.206,0.936,0.578,1.234C9.015,24.376,11,23.999,11,22.393
				c0-0.607,0.673-0.625,0.75-0.625c0.403,0,0.75,0.204,0.75,0.625c0,0.497,0.206,0.936,0.578,1.234
				c0.315,0.252,0.731,0.391,1.172,0.391c0.87,0,1.75-0.559,1.75-1.625c0-0.607,0.673-0.625,0.75-0.625
				c0.403,0,0.75,0.204,0.75,0.625c0,1.411,1.72,1.945,2.776,1.275C20.509,23.52,20.578,23.211,20.43,22.978z"/>
		</g>
	</g>
</g>
<g id="invisible_shape">
	<rect fill="none" width="24" height="24"/>
</g>
</svg>
