<?xml version="1.0" encoding="utf-8"?>
<!-- Generator: Adobe Illustrator 19.2.0, SVG Export Plug-In . SVG Version: 6.00 Build 0)  -->
<svg version="1.1" xmlns="http://www.w3.org/2000/svg" xmlns:xlink="http://www.w3.org/1999/xlink" x="0px" y="0px" width="24px"
	 height="24px" viewBox="0 0 24 24" enable-background="new 0 0 24 24" xml:space="preserve">
<g id="Filled_Icons">
	<g>
		<path d="M13.5,3.5C13.776,3.5,14,3.276,14,3c0-0.827,0.673-1.5,1.5-1.5c0.65,0,1.216,0.807,1.642,1.299
			C17.901,3.573,18.916,4,20,4c1.822,0,3.496-1.203,3.98-2.86c0.077-0.265-0.075-0.542-0.34-0.619
			c-0.267-0.08-0.543,0.074-0.62,0.34C22.658,2.1,21.388,3,20,3c-0.813,0-1.574-0.32-2.123-0.878C17.188,1.326,16.56,0.5,15.5,0.5
			C14.122,0.5,13,1.621,13,3C13,3.276,13.224,3.5,13.5,3.5z"/>
		<path d="M11,3.5c0.276,0,0.5-0.224,0.5-0.5c0-0.635,0.292-1.219,0.8-1.601c0.221-0.165,0.265-0.479,0.1-0.699
			c-0.165-0.22-0.479-0.267-0.7-0.1C10.949,1.164,10.5,2.062,10.5,3C10.5,3.276,10.724,3.5,11,3.5z"/>
		<rect x="20" y="12" width="1" height="1"/>
		<rect x="17" y="12" width="2" height="1"/>
		<rect x="10" y="5" width="4" height="1"/>
		<g>
			<path d="M23.478,19C23.805,18.31,24,17.603,24,17H9c0-1.104-0.896-2-2-2H1c0,1.347,0.561,2.523,1.659,4H23.478z"/>
			<path d="M22.996,22.495L22.996,22.495c-0.001,0-0.002,0-0.003,0c-0.717,0-1.367-0.356-1.77-0.948
				c0.637-0.338,1.206-0.9,1.665-1.547H3.532c0.794,0.785,1.773,1.454,2.946,1.904c-0.393,0.376-0.918,0.591-1.479,0.591
				c-0.004,0-0.004,0-0.005,0c-0.746,0-1.428-0.379-1.824-1.016c-0.026-0.041-0.062-0.073-0.1-0.107
				c-0.016-0.014-0.029-0.032-0.047-0.044c-0.003-0.002-0.004-0.005-0.007-0.007c-0.015-0.01-0.032-0.011-0.048-0.018
				c-0.043-0.023-0.087-0.042-0.135-0.051c-0.006-0.001-0.012,0-0.018-0.001c-0.112-0.017-0.23-0.001-0.335,0.064
				c-0.073,0.045-0.124,0.109-0.164,0.179c-0.397,0.626-1.072,1-1.812,1c-0.001,0-0.001,0-0.002,0H0.5c-0.276,0-0.5,0.224-0.5,0.499
				c-0.001,0.276,0.223,0.501,0.5,0.501c0,0,0.002,0,0.003,0c0.864,0,1.659-0.356,2.245-0.96c0.586,0.604,1.381,0.96,2.244,0.96
				c0.002,0,0.004,0,0.007,0c0.865,0,1.661-0.357,2.247-0.963c0.586,0.605,1.382,0.963,2.246,0.963c0.002,0,0.004,0,0.007,0
				c0.864,0,1.659-0.356,2.245-0.96c0.586,0.604,1.381,0.96,2.244,0.96c0.002,0,0.004,0,0.007,0c0.865,0,1.661-0.357,2.247-0.963
				c0.586,0.605,1.382,0.963,2.246,0.963c0.002,0,0.004,0,0.007,0c0.866,0,1.663-0.358,2.249-0.966
				c0.587,0.607,1.383,0.966,2.249,0.966c0.001,0,0.002,0,0.003,0c0.276,0,0.5-0.225,0.5-0.501
				C23.496,22.719,23.272,22.495,22.996,22.495z"/>
		</g>
		<g>
			<path d="M23.478,19C23.805,18.31,24,17.603,24,17H9c0-1.104-0.896-2-2-2H1c0,1.347,0.561,2.523,1.659,4H23.478z"/>
			<path d="M22.996,22.495L22.996,22.495c-0.001,0-0.002,0-0.003,0c-0.717,0-1.367-0.356-1.77-0.948
				c0.637-0.338,1.206-0.9,1.665-1.547H3.532c0.794,0.785,1.773,1.454,2.946,1.904c-0.393,0.376-0.918,0.591-1.479,0.591
				c-0.004,0-0.004,0-0.005,0c-0.746,0-1.428-0.379-1.824-1.016c-0.026-0.041-0.062-0.073-0.1-0.107
				c-0.016-0.014-0.029-0.032-0.047-0.044c-0.003-0.002-0.004-0.005-0.007-0.007c-0.015-0.01-0.032-0.011-0.048-0.018
				c-0.043-0.023-0.087-0.042-0.135-0.051c-0.006-0.001-0.012,0-0.018-0.001c-0.112-0.017-0.23-0.001-0.335,0.064
				c-0.073,0.045-0.124,0.109-0.164,0.179c-0.397,0.626-1.072,1-1.812,1c-0.001,0-0.001,0-0.002,0H0.5c-0.276,0-0.5,0.224-0.5,0.499
				c-0.001,0.276,0.223,0.501,0.5,0.501c0,0,0.002,0,0.003,0c0.864,0,1.659-0.356,2.245-0.96c0.586,0.604,1.381,0.96,2.244,0.96
				c0.002,0,0.004,0,0.007,0c0.865,0,1.661-0.357,2.247-0.963c0.586,0.605,1.382,0.963,2.246,0.963c0.002,0,0.004,0,0.007,0
				c0.864,0,1.659-0.356,2.245-0.96c0.586,0.604,1.381,0.96,2.244,0.96c0.002,0,0.004,0,0.007,0c0.865,0,1.661-0.357,2.247-0.963
				c0.586,0.605,1.382,0.963,2.246,0.963c0.002,0,0.004,0,0.007,0c0.866,0,1.663-0.358,2.249-0.966
				c0.587,0.607,1.383,0.966,2.249,0.966c0.001,0,0.002,0,0.003,0c0.276,0,0.5-0.225,0.5-0.501
				C23.496,22.719,23.272,22.495,22.996,22.495z"/>
		</g>
		<path d="M11.5,8c0.946,0,1.814,0.332,2.5,0.884V7h-4v1H11.5z"/>
		<path d="M16,14v-2h-1.5c0-1.657-1.343-3-3-3H8v1h3v2H8v2.184C8.849,14.485,9.515,15.151,9.816,16H21v-2H16z"/>
	</g>
</g>
<g id="invisible_shape">
	<rect fill="none" width="24" height="24"/>
</g>
</svg>
