<?xml version="1.0" encoding="utf-8"?>
<!-- Generator: Adobe Illustrator 19.2.0, SVG Export Plug-In . SVG Version: 6.00 Build 0)  -->
<svg version="1.1" xmlns="http://www.w3.org/2000/svg" xmlns:xlink="http://www.w3.org/1999/xlink" x="0px" y="0px" width="24px"
	 height="24px" viewBox="0 0 24 24" enable-background="new 0 0 24 24" xml:space="preserve">
<g id="Filled_Icons">
	<path d="M23.021,11.006h-1.572c-0.193-1.87-0.934-3.578-2.055-4.968l1.099-1.099c0.39-0.391,0.39-1.024,0-1.414
		c-0.391-0.392-1.024-0.392-1.415,0l-1.095,1.094C16.592,3.488,14.877,2.74,13,2.543V1.006c0-0.552-0.448-1-1-1
		c-0.552,0-1,0.448-1,1v1.537C9.123,2.74,7.407,3.488,6.017,4.619L4.921,3.525c-0.39-0.392-1.023-0.392-1.414,0
		c-0.391,0.39-0.391,1.023,0,1.414l1.1,1.099c-1.121,1.39-1.862,3.098-2.055,4.968H1c-0.552,0-1,0.448-1,1c0,0.553,0.448,1,1,1
		h1.556c0.2,1.871,0.946,3.58,2.074,4.967l-1.123,1.122c-0.391,0.391-0.391,1.024,0,1.414c0.391,0.391,1.024,0.392,1.414,0
		l1.127-1.126C7.434,20.5,9.136,21.24,11,21.435v1.591c0,0.553,0.448,1,1,1c0.552,0,1-0.447,1-1v-1.591
		c1.864-0.195,3.566-0.935,4.952-2.053l1.126,1.126c0.392,0.392,1.024,0.39,1.415,0c0.39-0.391,0.39-1.023,0-1.414l-1.123-1.122
		c1.128-1.387,1.874-3.096,2.073-4.967h1.577c0.552,0,1-0.447,1-1C24.021,11.454,23.573,11.006,23.021,11.006z M19.428,11.006h-3.57
		c-0.094-0.36-0.236-0.698-0.421-1.013l2.53-2.529C18.736,8.477,19.254,9.686,19.428,11.006z M12,14.006c-1.103,0-2-0.898-2-2
		c0-1.103,0.897-2,2-2c1.102,0,2,0.897,2,2C14,13.108,13.102,14.006,12,14.006z M16.557,6.046l-2.531,2.53
		C13.708,8.389,13.365,8.243,13,8.148V4.564C14.327,4.742,15.543,5.267,16.557,6.046z M11,4.564v3.584
		c-0.366,0.095-0.709,0.24-1.026,0.428l-2.53-2.53C8.457,5.267,9.673,4.742,11,4.564z M6.033,7.464l2.529,2.53
		c-0.184,0.315-0.327,0.651-0.421,1.012H4.572C4.746,9.686,5.264,8.477,6.033,7.464z M4.577,13h3.564
		c0.096,0.372,0.24,0.715,0.429,1.032l-2.514,2.514C5.28,15.536,4.757,14.326,4.577,13z M7.475,17.957l2.513-2.515
		c0.314,0.185,0.652,0.328,1.013,0.422v3.551C9.686,19.238,8.482,18.723,7.475,17.957z M13,19.415v-3.551
		c0.36-0.094,0.698-0.237,1.012-0.421l2.514,2.514C15.518,18.723,14.314,19.238,13,19.415z M17.943,16.546l-2.514-2.514
		c0.188-0.317,0.333-0.66,0.428-1.032h3.565C19.243,14.326,18.72,15.536,17.943,16.546z"/>
</g>
<g id="invisible_shape">
	<rect fill="none" width="24" height="24"/>
</g>
</svg>
