<?xml version="1.0" encoding="utf-8"?>
<!-- Generator: Adobe Illustrator 19.2.0, SVG Export Plug-In . SVG Version: 6.00 Build 0)  -->
<svg version="1.1" xmlns="http://www.w3.org/2000/svg" xmlns:xlink="http://www.w3.org/1999/xlink" x="0px" y="0px" width="24px"
	 height="24px" viewBox="0 0 24 24" enable-background="new 0 0 24 24" xml:space="preserve">
<g id="Filled_Icons">
	<g>
		<path d="M22.904,14.206C22.81,14.077,22.66,14,22.5,14H13v-2h3.5c0.075,0,0.15-0.017,0.219-0.05C16.853,11.885,20,10.306,20,6
			c0-4.305-3.147-5.885-3.281-5.949C16.65,0.018,16.575,0,16.5,0h-11C5.269,0,5.07,0.158,5.015,0.382
			C4.96,0.604,5.065,0.838,5.269,0.944C5.381,1.002,8,2.413,8,6c0,3.588-2.619,4.998-2.731,5.057
			c-0.204,0.107-0.309,0.339-0.255,0.563C5.07,11.843,5.269,12,5.5,12H12v2H1.5c-0.16,0-0.311,0.077-0.405,0.206
			c-0.093,0.13-0.12,0.297-0.07,0.449c0.074,0.229,0.146,0.472,0.221,0.722c0.4,1.352,0.905,3.049,2.293,3.964l3.401-3.401
			c0.586-0.586,1.535-0.586,2.121,0c0.586,0.586,0.586,1.536,0,2.121L7.121,20h1.258l4.061-4.061c0.586-0.586,1.535-0.586,2.121,0
			c0.586,0.586,0.586,1.536,0,2.121L12.621,20h1.258l4.061-4.061c0.586-0.586,1.535-0.586,2.121,0c0.586,0.586,0.586,1.536,0,2.121
			l-1.934,1.935c3.265-0.053,4.061-2.709,4.64-4.657c0.071-0.236,0.14-0.467,0.21-0.683C23.024,14.503,22.998,14.336,22.904,14.206z
			"/>
		<g>
			<path d="M1.568,23.932c-0.128,0-0.256-0.049-0.353-0.146c-0.196-0.195-0.196-0.512,0-0.707l6.432-6.432
				c0.195-0.195,0.512-0.195,0.707,0c0.195,0.195,0.195,0.512,0,0.707l-6.433,6.432C1.823,23.883,1.695,23.932,1.568,23.932z"/>
		</g>
		<g>
			<path d="M7.068,23.932c-0.128,0-0.256-0.049-0.354-0.146c-0.196-0.195-0.196-0.512,0-0.707l6.432-6.432
				c0.195-0.195,0.512-0.195,0.707,0c0.195,0.195,0.195,0.512,0,0.707l-6.433,6.432C7.323,23.883,7.195,23.932,7.068,23.932z"/>
		</g>
		<g>
			<path d="M12.568,23.932c-0.128,0-0.256-0.049-0.353-0.146c-0.196-0.195-0.196-0.512,0-0.707l6.432-6.432
				c0.195-0.195,0.512-0.195,0.707,0c0.195,0.195,0.195,0.512,0,0.707l-6.433,6.432C12.823,23.883,12.695,23.932,12.568,23.932z"/>
		</g>
	</g>
</g>
<g id="invisible_shape">
	<rect fill="none" width="24" height="24"/>
</g>
</svg>
