<?xml version="1.0" encoding="utf-8"?>
<!-- Generator: Adobe Illustrator 19.2.0, SVG Export Plug-In . SVG Version: 6.00 Build 0)  -->
<svg version="1.1" xmlns="http://www.w3.org/2000/svg" xmlns:xlink="http://www.w3.org/1999/xlink" x="0px" y="0px" width="24px"
	 height="24px" viewBox="0 0 24 24" enable-background="new 0 0 24 24" xml:space="preserve">
<g id="Filled_Icons">
	<g>
		<path d="M22.5,4.006h-3.503c-0.019-2.208-1.803-4-3.997-4H8c-2.194,0-3.977,1.792-3.997,4H0.5c-0.276,0-0.5,0.224-0.5,0.5v5
			c0,0.276,0.224,0.5,0.5,0.494h1.793l1.21,1.216C2.62,11.602,2,12.482,2,13.506V17c0.315-0.103,0.648-0.169,1-0.175h17
			c0.353,0.006,0.685,0.072,1,0.175v-3.494c0-1.024-0.62-1.903-1.503-2.29L20.707,10H22.5c0.276,0.006,0.5-0.218,0.5-0.494v-5
			C23,4.229,22.776,4.006,22.5,4.006z M15.5,2.006c0.276,0,0.5,0.224,0.5,0.5c0,0.276-0.224,0.5-0.5,0.5S15,2.782,15,2.506
			C15,2.23,15.224,2.006,15.5,2.006z M12,5.5C12,5.224,12.224,5,12.5,5h5C17.776,5,18,5.224,18,5.5v5.006c0,0.276-0.224,0.5-0.5,0.5
			h-5c-0.276,0-0.5-0.224-0.5-0.5V5.5z M7.5,2.006c0.276,0,0.5,0.224,0.5,0.5c0,0.276-0.224,0.5-0.5,0.5S7,2.782,7,2.506
			C7,2.23,7.224,2.006,7.5,2.006z M5,5.5C5,5.224,5.224,5,5.5,5h5C10.776,5,11,5.224,11,5.5v5.006c0,0.276-0.224,0.5-0.5,0.5h-5
			c-0.276,0-0.5-0.224-0.5-0.5V5.5z M3,5.006h1v5.293l-1-1V5.006z M5.5,16.006c-0.827,0-1.5-0.673-1.5-1.5
			c0-0.827,0.673-1.5,1.5-1.5s1.5,0.673,1.5,1.5C7,15.333,6.327,16.006,5.5,16.006z M13.5,16.006H9.484c-0.276,0-0.5-0.224-0.5-0.5
			c0-0.276,0.224-0.5,0.5-0.506H13.5c0.276,0.006,0.5,0.229,0.5,0.506C14,15.782,13.776,16.006,13.5,16.006z M13.5,14.006H9.484
			c-0.276,0-0.5-0.224-0.5-0.5c0-0.276,0.224-0.5,0.5-0.506H13.5c0.276,0.006,0.5,0.229,0.5,0.506
			C14,13.782,13.776,14.006,13.5,14.006z M17.5,16.006c-0.827,0-1.5-0.673-1.5-1.5c0-0.827,0.673-1.5,1.5-1.5s1.5,0.673,1.5,1.5
			C19,15.333,18.327,16.006,17.5,16.006z M20,9.299l-1,1V5.006h1V9.299z"/>
		<path d="M3,23.5C3,23.776,3.224,24,3.5,24h3C6.776,24,7,23.776,7,23.5V22H3V23.5z"/>
		<path d="M16,23.5c0,0.276,0.224,0.5,0.5,0.5h3c0.276,0,0.5-0.224,0.5-0.5V22h-4V23.5z"/>
		<path d="M20,18H3c-1.103,0.006-2,0.535-2,1.5S1.897,21,3,21h17c1.103,0,2-0.535,2-1.5S21.103,18.006,20,18z"/>
	</g>
</g>
<g id="invisible_shape">
	<rect fill="none" width="24" height="24"/>
</g>
</svg>
