<?xml version="1.0" encoding="utf-8"?>
<!-- Generator: Adobe Illustrator 19.2.0, SVG Export Plug-In . SVG Version: 6.00 Build 0)  -->
<svg version="1.1" xmlns="http://www.w3.org/2000/svg" xmlns:xlink="http://www.w3.org/1999/xlink" x="0px" y="0px" width="24px"
	 height="24px" viewBox="0 0 24 24" enable-background="new 0 0 24 24" xml:space="preserve">
<g id="Filled_Icons">
	<g>
		<path d="M3.84,18.549c0.657-0.803,1.917-0.713,2.451,0.187c0.029,0.048,0.773,1.244,2.203,1.244c1.49,0,2.167-1.158,2.195-1.207
			c0.573-1.04,2.08-1.02,2.635,0.021c0.02,0.035,0.687,1.186,2.17,1.186c1.423,0,2.191-1.203,2.223-1.255
			c0.505-0.856,1.765-0.998,2.443-0.178c0.305,0.366,1.218,1.212,2.191,1.45c0.537-1.102,0.976-2.392,1.145-3.39
			c0.052-0.31-0.189-0.584-0.493-0.584l-7.661,0.004l5.375-3.037c0.266-0.15,0.336-0.504,0.148-0.743l-6.969-8.906
			C13.601,2.966,13,3.175,13,3.648v12.38l-1,0.001V0.648c0-0.467-0.586-0.676-0.884-0.32L1.148,12.233
			c-0.219,0.265-0.115,0.663,0.2,0.786L8.97,16.03l-7.969,0.004c-0.148,0-0.287,0.065-0.382,0.178
			c-0.096,0.112-0.136,0.261-0.111,0.406c0.165,0.976,0.672,2.319,1.171,3.383C2.647,19.759,3.54,18.91,3.84,18.549z"/>
		<path d="M23.396,21.011c-0.188,0.04-0.38,0.061-0.573,0.061c-1.87,0-3.42-1.868-3.435-1.888c-0.236-0.286-0.652-0.219-0.818,0.062
			c-0.01,0.018-1.051,1.734-3.077,1.734c-2.091,0-3.015-1.647-3.052-1.715c-0.186-0.348-0.688-0.353-0.879-0.005
			c-0.039,0.07-0.975,1.72-3.068,1.72c-2.007,0-3.021-1.663-3.063-1.733c-0.171-0.288-0.59-0.342-0.819-0.061
			c-0.015,0.018-1.555,1.887-3.435,1.887c-0.193,0-0.386-0.021-0.573-0.061C0.288,20.948,0,21.185,0,21.5v2
			C0,23.776,0.224,24,0.5,24h23c0.276,0,0.5-0.224,0.5-0.5v-2C24,21.187,23.715,20.948,23.396,21.011z"/>
	</g>
</g>
<g id="invisible_shape">
	<rect fill="none" width="24" height="24"/>
</g>
</svg>
