<?xml version="1.0" encoding="utf-8"?>
<!-- Generator: Adobe Illustrator 19.2.0, SVG Export Plug-In . SVG Version: 6.00 Build 0)  -->
<svg version="1.1" xmlns="http://www.w3.org/2000/svg" xmlns:xlink="http://www.w3.org/1999/xlink" x="0px" y="0px" width="24px"
	 height="24px" viewBox="0 0 24 24" enable-background="new 0 0 24 24" xml:space="preserve">
<g id="Filled_Icons">
	<g>
		<path d="M8.149,20c0.365,0.764,0.392,1.354,0.301,2h7.101c-0.092-0.642-0.066-1.234,0.301-2H8.149z"/>
		<path d="M23.5,0h-18C4.122,0,3,1.121,3,2.5V15H1.5c-0.245,0-0.453,0.177-0.493,0.418L0.41,19h2.148
			c1.36-1.331,3.516-1.336,4.884,0h9.116c1.36-1.331,3.516-1.336,4.884,0H24V0.5C24,0.224,23.776,0,23.5,0z M8,14.5
			C8,14.776,7.776,15,7.5,15h-3C4.224,15,4,14.776,4,14.5v-3C4,11.224,4.224,11,4.5,11h3C7.776,11,8,11.224,8,11.5V14.5z M8,7.5
			C8,7.776,7.776,8,7.5,8h-3C4.224,8,4,7.776,4,7.5v-3C4,4.224,4.224,4,4.5,4h3C7.776,4,8,4.224,8,4.5V7.5z M13,14.5
			c0,0.276-0.224,0.5-0.5,0.5h-3C9.224,15,9,14.776,9,14.5v-3C9,11.224,9.224,11,9.5,11h3c0.276,0,0.5,0.224,0.5,0.5V14.5z M13,7.5
			C13,7.776,12.776,8,12.5,8h-3C9.224,8,9,7.776,9,7.5v-3C9,4.224,9.224,4,9.5,4h3C12.776,4,13,4.224,13,4.5V7.5z M18,14.5
			c0,0.276-0.224,0.5-0.5,0.5h-3c-0.276,0-0.5-0.224-0.5-0.5v-3c0-0.276,0.224-0.5,0.5-0.5h3c0.276,0,0.5,0.224,0.5,0.5V14.5z
			 M18,7.5C18,7.776,17.776,8,17.5,8h-3C14.224,8,14,7.776,14,7.5v-3C14,4.224,14.224,4,14.5,4h3C17.776,4,18,4.224,18,4.5V7.5z
			 M23,14.5c0,0.276-0.224,0.5-0.5,0.5h-3c-0.276,0-0.5-0.224-0.5-0.5v-3c0-0.276,0.224-0.5,0.5-0.5h3c0.276,0,0.5,0.224,0.5,0.5
			V14.5z M23,7.5C23,7.776,22.776,8,22.5,8h-3C19.224,8,19,7.776,19,7.5v-3C19,4.224,19.224,4,19.5,4h3C22.776,4,23,4.224,23,4.5
			V7.5z"/>
		<path d="M0.243,20l-0.236,1.418C-0.044,21.719,0.188,22,0.5,22h1.051c-0.092-0.642-0.066-1.234,0.301-2H0.243z"/>
		<path d="M22.45,22h1.05c0.276,0,0.5-0.224,0.5-0.5V20h-1.851C22.515,20.764,22.542,21.354,22.45,22z"/>
		<circle cx="5" cy="21.5" r="2.5"/>
		<circle cx="19" cy="21.5" r="2.5"/>
	</g>
</g>
<g id="invisible_shape">
	<rect fill="none" width="24" height="24"/>
</g>
</svg>
