<?xml version="1.0" encoding="utf-8"?>
<!-- Generator: Adobe Illustrator 19.2.0, SVG Export Plug-In . SVG Version: 6.00 Build 0)  -->
<svg version="1.1" xmlns="http://www.w3.org/2000/svg" xmlns:xlink="http://www.w3.org/1999/xlink" x="0px" y="0px" width="24px"
	 height="24px" viewBox="0 0 24 24" enable-background="new 0 0 24 24" xml:space="preserve">
<g id="Filled_Icons">
	<path d="M23.5,7H20V4c0-2.206-1.795-4-4-4H8C5.794,0,4,1.794,4,4v3H0.5C0.224,7,0,7.224,0,7.5v7C0,14.776,0.224,15,0.5,15h2
		C2.776,15,3,14.776,3,14.5V8h1v13.5c0,0.65,0.419,1.201,1,1.407V23.5C5,23.776,5.224,24,5.5,24h2C7.776,24,8,23.776,8,23.5V23h8
		v0.5c0,0.276,0.224,0.5,0.5,0.5h2c0.276,0,0.5-0.224,0.5-0.5v-0.593c0.58-0.206,1-0.757,1-1.407V8h1v6.5c0,0.276,0.224,0.5,0.5,0.5
		h2c0.276,0,0.5-0.224,0.5-0.5v-7C24,7.224,23.776,7,23.5,7z M8.5,2.5C8.5,2.224,8.724,2,9,2h6c0.276,0,0.5,0.224,0.5,0.5v2
		C15.5,4.776,15.276,5,15,5H9C8.724,5,8.5,4.776,8.5,4.5V2.5z M9.5,20h-3C6.224,20,6,19.776,6,19.5S6.224,19,6.5,19h3
		c0.276,0,0.5,0.224,0.5,0.5S9.776,20,9.5,20z M17.5,20h-3c-0.276,0-0.5-0.224-0.5-0.5s0.224-0.5,0.5-0.5h3
		c0.276,0,0.5,0.224,0.5,0.5S17.776,20,17.5,20z M19,15H5V7h14V15z"/>
</g>
<g id="invisible_shape">
	<rect fill="none" width="24" height="24"/>
</g>
</svg>
