<?xml version="1.0" encoding="utf-8"?>
<!-- Generator: Adobe Illustrator 19.2.0, SVG Export Plug-In . SVG Version: 6.00 Build 0)  -->
<svg version="1.1" xmlns="http://www.w3.org/2000/svg" xmlns:xlink="http://www.w3.org/1999/xlink" x="0px" y="0px" width="24px"
	 height="24px" viewBox="0 0 24 24" enable-background="new 0 0 24 24" xml:space="preserve">
<g id="Filled_Icons">
	<path d="M4,16v-6h9v6H4z M5.5,8C5.224,8,5,7.776,5,7.5v-3C5,4.224,5.224,4,5.5,4h13C18.776,4,19,4.224,19,4.5v3
		C19,7.776,18.776,8,18.5,8H5.5z M17,10h2v6h-2V10z M20.5,10c0.276,0,0.5-0.224,0.5-0.5v-6C21,1.57,19.43,0,17.5,0h-11
		C4.528,0,3,1.612,3,3v18.492c0,0.277,0.224,0.5,0.5,0.5H4V23.5C4,23.776,4.224,24,4.5,24h3C7.776,24,8,23.776,8,23.5v-1.508h8V23.5
		c0,0.276,0.224,0.5,0.5,0.5h3c0.276,0,0.5-0.224,0.5-0.5v-1.508h0.5c0.276,0,0.5-0.223,0.5-0.5V16.5c0-0.276-0.224-0.5-0.5-0.5H20
		v-6H20.5z M7,23H5v-1h2V23z M7,20H4v-2h3V20z M8.383,21l0.9-2h5.434l0.899,2H8.383z M19,23h-2v-1h2V23z M20,20h-3v-2h3V20z"/>
</g>
<g id="invisible_shape">
	<rect fill="none" width="24" height="24"/>
</g>
</svg>
