<?xml version="1.0" encoding="utf-8"?>
<!-- Generator: Adobe Illustrator 19.2.0, SVG Export Plug-In . SVG Version: 6.00 Build 0)  -->
<svg version="1.1" xmlns="http://www.w3.org/2000/svg" xmlns:xlink="http://www.w3.org/1999/xlink" x="0px" y="0px" width="24px"
	 height="24px" viewBox="0 0 24 24" enable-background="new 0 0 24 24" xml:space="preserve">
<g id="Filled_Icons">
	<g>
		<circle cx="18.252" cy="18.5" r="2.5"/>
		<path d="M23.5,5h-12C9.019,5,7,7.019,7,9.5V18H0.563c-0.276,0-0.5,0.224-0.5,0.5s0.224,0.5,0.5,0.5h14.24
			c-0.325-2.184,1.385-4,3.449-4c2.062,0,3.774,1.815,3.449,4H23.5c0.276,0,0.5-0.224,0.5-0.5v-13C24,5.224,23.776,5,23.5,5z
			 M16,11.5c0,0.276-0.224,0.5-0.5,0.5h-3c-0.276,0-0.5-0.224-0.5-0.5v-3C12,8.224,12.224,8,12.5,8h3C15.776,8,16,8.224,16,8.5V11.5
			z M21,11.5c0,0.276-0.224,0.5-0.5,0.5h-3c-0.276,0-0.5-0.224-0.5-0.5v-3C17,8.224,17.224,8,17.5,8h3C20.776,8,21,8.224,21,8.5
			V11.5z"/>
	</g>
</g>
<g id="invisible_shape">
	<rect fill="none" width="24" height="24"/>
</g>
</svg>
