<?xml version="1.0" encoding="utf-8"?>
<!-- Generator: Adobe Illustrator 19.2.0, SVG Export Plug-In . SVG Version: 6.00 Build 0)  -->
<svg version="1.1" xmlns="http://www.w3.org/2000/svg" xmlns:xlink="http://www.w3.org/1999/xlink" x="0px" y="0px" width="24px"
	 height="24px" viewBox="0 0 24 24" enable-background="new 0 0 24 24" xml:space="preserve">
<g id="Filled_Icons">
	<g>
		<path d="M18.926,15.219L18.839,15h-1.077H11.5H4.238l1.6-4H10v-1H5.5c-0.205,0-0.389,0.124-0.465,0.314l-1.962,4.904l-1.927,1.928
			C1.053,17.24,1,17.367,1,17.5V19h5c0.276,0,0.5,0.224,0.5,0.5S6.276,20,6,20H1v1.5C1,21.776,1.224,22,1.5,22H2v1.5
			C2,23.776,2.224,24,2.5,24h3C5.776,24,6,23.776,6,23.5V22h10v1.5c0,0.276,0.224,0.5,0.5,0.5h3c0.276,0,0.5-0.224,0.5-0.5V22h0.5
			c0.276,0,0.5-0.224,0.5-0.5V20h-5c-0.276,0-0.5-0.224-0.5-0.5S15.724,19,16,19h5v-1.5c0-0.133-0.053-0.26-0.146-0.354
			L18.926,15.219z"/>
		<path d="M22.5,0h-11C11.224,0,11,0.224,11,0.5v13c0,0.276,0.224,0.5,0.5,0.5h11c0.276,0,0.5-0.224,0.5-0.5v-13
			C23,0.224,22.776,0,22.5,0z M21,11.5c0,0.276-0.224,0.5-0.5,0.5h-7c-0.276,0-0.5-0.224-0.5-0.5v-9C13,2.224,13.224,2,13.5,2h7
			C20.776,2,21,2.224,21,2.5V11.5z"/>
		<g>
			<path d="M15.834,6.736l-0.75-1.125c-0.153-0.229-0.091-0.54,0.139-0.693c0.229-0.154,0.54-0.091,0.693,0.139l0.432,0.648
				l1.779-1.578c0.205-0.183,0.523-0.165,0.706,0.042c0.184,0.207,0.165,0.522-0.042,0.706l-2.208,1.959
				C16.356,7.032,16.004,6.991,15.834,6.736z"/>
		</g>
		<g>
			<path d="M15.834,9.715l-0.75-1.124c-0.153-0.229-0.091-0.54,0.139-0.693c0.228-0.153,0.539-0.091,0.693,0.139l0.432,0.646
				l1.779-1.577c0.206-0.185,0.522-0.165,0.705,0.042c0.184,0.207,0.165,0.523-0.042,0.706l-2.209,1.958
				C16.356,10.012,16.001,9.968,15.834,9.715z"/>
		</g>
	</g>
</g>
<g id="invisible_shape">
	<rect fill="none" width="24" height="24"/>
</g>
</svg>
