<?xml version="1.0" encoding="utf-8"?>
<!-- Generator: Adobe Illustrator 19.2.0, SVG Export Plug-In . SVG Version: 6.00 Build 0)  -->
<svg version="1.1" xmlns="http://www.w3.org/2000/svg" xmlns:xlink="http://www.w3.org/1999/xlink" x="0px" y="0px" width="24px"
	 height="24px" viewBox="0 0 24 24" enable-background="new 0 0 24 24" xml:space="preserve">
<g id="Filled_Icons">
	<g>
		<path d="M21,8.006h-1v-0.5c0-2.48-2.019-4.5-4.5-4.5h-8c-2.481,0-4.5,2.02-4.5,4.5v0.5H2.041c-1.102,0-2,0.897-2,2
			c0,1.102,0.897,2,2,2c1.536,0,1.461,0.011,1.461,0.011c1.135,0,2.405,0.399,3.773,1.137H7.47l3.13-2.347
			c0.533-0.4,1.267-0.4,1.8,0l3.131,2.347h0.194c2.027-1.093,2.969-1.069,3.969-1.147H21c1.103,0,2-0.898,2-2
			C23,8.903,22.103,8.006,21,8.006z M5.892,9.394C5.144,9.495,4.519,9.721,4,10.053V7.506C4,5.576,5.57,4.006,7.5,4h8
			C17.43,4.006,19,5.576,19,7.506v2.62c-0.546-0.385-1.18-0.643-1.89-0.739C13.409,8.88,9.635,8.882,5.892,9.394z"/>
		<path d="M3,22v1.506c0,0.276,0.224,0.5,0.5,0.494h3C6.776,24.006,7,23.782,7,23.506V22H3z"/>
		<path d="M16,22v1.506c0,0.276,0.224,0.5,0.5,0.494h3c0.276,0.006,0.5-0.218,0.5-0.494V22H16z"/>
		<g>
			<polygon points="15,14.006 14,13.256 14,21 15,21 			"/>
			<polygon points="13,12.506 12,11.756 12,21 13,21 			"/>
			<path d="M7,14.149c-1.296-0.731-2.477-1.133-3.498-1.133c-2.374,0-3.437,1.951-3.437,3.886c0,2.263,1.4,4.098,3.744,4.098H7
				V14.149z M4,18.506c-0.827,0-1.5-0.673-1.5-1.5c0-0.827,0.673-1.5,1.5-1.5s1.5,0.673,1.5,1.5C5.5,17.833,4.827,18.506,4,18.506z"
				/>
			<polygon points="10,21 11,21 11,11.756 10,12.506 			"/>
			<path d="M19.498,13.017c-1.021,0-2.202,0.402-3.498,1.133V21h3.19c1.112,0,2.108-0.033,2.804-1.012
				c0.597-0.841,0.94-1.965,0.94-3.086C22.934,14.968,21.872,13.017,19.498,13.017z M19,18.506c-0.827,0-1.5-0.673-1.5-1.5
				c0-0.827,0.673-1.5,1.5-1.5s1.5,0.673,1.5,1.5C20.5,17.833,19.827,18.506,19,18.506z"/>
			<polygon points="9,13.256 8,14.006 8,21 9,21 			"/>
		</g>
	</g>
</g>
<g id="invisible_shape">
	<rect fill="none" width="24" height="24"/>
</g>
</svg>
