<?xml version="1.0" encoding="utf-8"?>
<!-- Generator: Adobe Illustrator 19.2.0, SVG Export Plug-In . SVG Version: 6.00 Build 0)  -->
<svg version="1.1" xmlns="http://www.w3.org/2000/svg" xmlns:xlink="http://www.w3.org/1999/xlink" x="0px" y="0px" width="24px"
	 height="24px" viewBox="0 0 24 24" enable-background="new 0 0 24 24" xml:space="preserve">
<g id="Filled_Icons">
	<g>
		<path d="M12,4.006c-4.411,0-8,3.589-8,8c0,4.411,3.589,8,8,8s8-3.589,8-8C20,7.595,16.411,4.006,12,4.006z M18,12.006
			c0,0.994-0.247,1.93-0.677,2.757l-1.722-1.854l2.392-1.052C17.994,11.908,18,11.957,18,12.006z M6,12.006
			c0-0.049,0.006-0.098,0.008-0.149l2.392,1.052l-1.723,1.854C6.247,13.936,6,13,6,12.006z M10.5,12.006c0-0.827,0.673-1.5,1.5-1.5
			s1.5,0.673,1.5,1.5c0,0.827-0.673,1.5-1.5,1.5S10.5,12.833,10.5,12.006z M16.556,8.111L14.083,9.21
			C14.055,9.189,14.029,9.162,14,9.142V6.356C15,6.711,15.879,7.32,16.556,8.111z M10,6.356v2.786
			C9.97,9.162,9.945,9.189,9.916,9.21L7.444,8.111C8.122,7.32,9,6.711,10,6.356z M9.579,17.492l1.914-2.037
			c0.485,0.068,0.528,0.068,1.014,0l1.913,2.037C12.892,18.169,11.146,18.185,9.579,17.492z"/>
		<path d="M12,0.006c-6.617,0-12,5.383-12,12c0,6.617,5.383,12,12,12c6.616,0,12-5.383,12-12C24,5.389,18.616,0.006,12,0.006z
			 M12,21.006c-4.963,0-9-4.037-9-9c0-4.963,4.037-9,9-9c4.962,0,9,4.037,9,9C21,16.969,16.962,21.006,12,21.006z"/>
	</g>
</g>
<g id="invisible_shape">
	<rect fill="none" width="24" height="24"/>
</g>
</svg>
