<?xml version="1.0" encoding="utf-8"?>
<!-- Generator: Adobe Illustrator 19.2.0, SVG Export Plug-In . SVG Version: 6.00 Build 0)  -->
<svg version="1.1" xmlns="http://www.w3.org/2000/svg" xmlns:xlink="http://www.w3.org/1999/xlink" x="0px" y="0px" width="24px"
	 height="24px" viewBox="0 0 24 24" enable-background="new 0 0 24 24" xml:space="preserve">
<g id="Filled_Icons">
	<g>
		<path d="M23.5,6h-23C0.224,6,0,6.224,0,6.5v14C0,20.776,0.224,21,0.5,21h23c0.276,0,0.5-0.224,0.5-0.5v-14
			C24,6.224,23.776,6,23.5,6z M8,13H3c-0.552,0-1-0.447-1-1s0.448-1,1-1h5c0.552,0,1,0.447,1,1S8.552,13,8,13z M20.5,13H19v1.5
			c0,0.553-0.448,1-1,1c-0.552,0-1-0.447-1-1V13h-1.5c-0.552,0-1-0.447-1-1s0.448-1,1-1H17V9.5c0-0.553,0.448-1,1-1
			c0.552,0,1,0.447,1,1V11h1.5c0.552,0,1,0.447,1,1S21.052,13,20.5,13z"/>
		<g>
			<path d="M21,5V3.5C21,3.224,20.776,3,20.5,3h-4C16.224,3,16,3.224,16,3.5V5H21z"/>
		</g>
		<g>
			<path d="M8,5V3.5C8,3.224,7.776,3,7.5,3h-4C3.224,3,3,3.224,3,3.5V5H8z"/>
		</g>
	</g>
</g>
<g id="invisible_shape">
	<rect fill="none" width="24" height="24"/>
</g>
</svg>
