<?xml version="1.0" encoding="utf-8"?>
<!-- Generator: Adobe Illustrator 19.2.0, SVG Export Plug-In . SVG Version: 6.00 Build 0)  -->
<svg version="1.1" xmlns="http://www.w3.org/2000/svg" xmlns:xlink="http://www.w3.org/1999/xlink" x="0px" y="0px" width="24px"
	 height="24px" viewBox="0 0 24 24" enable-background="new 0 0 24 24" xml:space="preserve">
<g id="Filled_Icons">
	<g>
		<path d="M12,19c-0.276,0-0.5-0.224-0.5-0.5S11.724,18,12,18h5v-0.5c0-0.133-0.053-0.26-0.146-0.354l-1.927-1.928l-1.962-4.904
			C12.888,10.124,12.704,10,12.5,10h-8c-0.205,0-0.389,0.124-0.465,0.314l-1.962,4.904l-1.927,1.928C0.053,17.24,0,17.367,0,17.5V18
			h5c0.276,0,0.5,0.224,0.5,0.5S5.276,19,5,19H0v1.5C0,20.776,0.224,21,0.5,21H1v1.5C1,22.776,1.224,23,1.5,23h3
			C4.776,23,5,22.776,5,22.5V21h7v1.5c0,0.276,0.224,0.5,0.5,0.5h3c0.276,0,0.5-0.224,0.5-0.5V21h0.5c0.276,0,0.5-0.224,0.5-0.5V19
			H12z M3.238,15l1.6-4h7.323l1.601,4H3.238z"/>
		<g>
			<path d="M23.929,11.259L19,16.206v2.338l5-4.997V11.5C24,11.41,23.97,11.331,23.929,11.259z"/>
			<polygon points="19,22.293 24,17.293 24,14.961 19,19.957 			"/>
			<path d="M23.5,23c0.276,0,0.5-0.224,0.5-0.5v-3.793L19.707,23H23.5z"/>
			<path d="M19,14.79L22.776,11h-3.091L8.45,1.37C8.241,1.19,7.926,1.216,7.745,1.425C7.565,1.634,7.59,1.95,7.8,2.13L19,11.731
				V14.79z"/>
		</g>
	</g>
</g>
<g id="invisible_shape">
	<rect fill="none" width="24" height="24"/>
</g>
</svg>
