<?xml version="1.0" encoding="utf-8"?>
<!-- Generator: Adobe Illustrator 19.2.0, SVG Export Plug-In . SVG Version: 6.00 Build 0)  -->
<svg version="1.1" xmlns="http://www.w3.org/2000/svg" xmlns:xlink="http://www.w3.org/1999/xlink" x="0px" y="0px" width="24px"
	 height="24px" viewBox="0 0 24 24" enable-background="new 0 0 24 24" xml:space="preserve">
<g id="Filled_Icons">
	<g>
		<g>
			<circle cx="4.5" cy="18.506" r="2.25"/>
			<circle cx="16.5" cy="18.506" r="2.25"/>
		</g>
		<circle cx="4.5" cy="18.506" r="2.25"/>
		<path d="M23.5,18H23v-4.494c0-0.276-0.225-0.5-0.5-0.5H22v-1.113l1.562-0.402c0.268-0.069,0.428-0.342,0.358-0.609
			c-0.068-0.268-0.342-0.43-0.608-0.359l-2.906,0.75c-0.267,0.07-0.427,0.342-0.358,0.609c0.07,0.274,0.349,0.427,0.608,0.359
			L21,12.15v0.856h-0.367l-6.885-3.934c-0.076-0.044-0.161-0.066-0.248-0.066H8c-0.189,0-0.362,0.106-0.447,0.276L5.69,13.006H2
			c-1.104,0-2,0.896-2,2V18.5C0,18.776,0.224,19,0.5,19h0.801c-0.322-2.04,1.267-3.744,3.199-3.744c1.93,0,3.521,1.709,3.199,3.744
			h5.602c-0.321-2.032,1.267-3.744,3.199-3.744c1.929,0,3.522,1.7,3.199,3.744H23.5c0.275,0,0.5-0.224,0.5-0.5S23.775,18,23.5,18z
			 M10.5,12.006H9.809l-0.861,1.724c-0.12,0.237-0.412,0.351-0.672,0.224c-0.246-0.124-0.347-0.424-0.223-0.671l1-2
			c0.085-0.17,0.258-0.276,0.447-0.276h1c0.275,0,0.5,0.224,0.5,0.5C11,11.782,10.775,12.006,10.5,12.006z"/>
		<circle cx="16.5" cy="18.506" r="2.25"/>
	</g>
</g>
<g id="invisible_shape">
	<rect fill="none" width="24" height="24"/>
</g>
</svg>
