<?xml version="1.0" encoding="utf-8"?>
<!-- Generator: Adobe Illustrator 19.2.0, SVG Export Plug-In . SVG Version: 6.00 Build 0)  -->
<svg version="1.1" xmlns="http://www.w3.org/2000/svg" xmlns:xlink="http://www.w3.org/1999/xlink" x="0px" y="0px" width="24px"
	 height="24px" viewBox="0 0 24 24" enable-background="new 0 0 24 24" xml:space="preserve">
<g id="Filled_Icons">
	<g>
		<path d="M17,19h5v-1.5c0-0.133-0.053-0.26-0.146-0.354l-1.927-1.928l-1.962-4.904C17.888,10.124,17.704,10,17.5,10h-11
			c-0.205,0-0.389,0.124-0.465,0.314l-1.962,4.904l-1.927,1.928C2.053,17.24,2,17.367,2,17.5V19h5c0.276,0,0.5,0.224,0.5,0.5
			S7.276,20,7,20H2v1.5C2,21.776,2.224,22,2.5,22H3v1.5C3,23.776,3.224,24,3.5,24h3C6.776,24,7,23.776,7,23.5V22h10v1.5
			c0,0.276,0.224,0.5,0.5,0.5h3c0.276,0,0.5-0.224,0.5-0.5V22h0.5c0.276,0,0.5-0.224,0.5-0.5V20h-5c-0.276,0-0.5-0.224-0.5-0.5
			S16.724,19,17,19z M5.238,15l1.6-4h10.323l1.601,4H5.238z"/>
		<path d="M17.974,6.982c0.195,0.195,0.512,0.195,0.707,0c0.195-0.195,0.195-0.512,0-0.707c-1.813-1.813-4.206-2.768-6.678-2.768
			h-0.001h0c-0.001,0-0.002,0-0.002,0c-2.457,0-4.851,0.939-6.678,2.768c-0.195,0.195-0.195,0.512,0,0.707s0.512,0.195,0.707,0
			C7.68,5.33,9.854,4.508,12,4.508h0.002C14.166,4.508,16.33,5.339,17.974,6.982z"/>
		<path d="M3.496,4.557c4.689-4.688,12.319-4.688,17.008,0c0.195,0.195,0.512,0.195,0.707,0c0.195-0.195,0.195-0.512,0-0.707
			c-5.078-5.078-13.342-5.076-18.422,0c-0.195,0.195-0.195,0.512,0,0.707C2.984,4.752,3.301,4.752,3.496,4.557z"/>
		<path d="M7.851,8.7c-0.195,0.195-0.195,0.512,0,0.707c0.192,0.193,0.51,0.197,0.707,0c1.899-1.895,4.987-1.895,6.886,0
			c0.195,0.195,0.512,0.195,0.707,0c0.195-0.195,0.195-0.512,0-0.707C13.862,6.413,10.139,6.413,7.851,8.7z"/>
	</g>
</g>
<g id="invisible_shape">
	<rect fill="none" width="24" height="24"/>
</g>
</svg>
