<?xml version="1.0" encoding="utf-8"?>
<!-- Generator: Adobe Illustrator 19.2.0, SVG Export Plug-In . SVG Version: 6.00 Build 0)  -->
<svg version="1.1" xmlns="http://www.w3.org/2000/svg" xmlns:xlink="http://www.w3.org/1999/xlink" x="0px" y="0px" width="24px"
	 height="24px" viewBox="0 0 24 24" enable-background="new 0 0 24 24" xml:space="preserve">
<g id="Filled_Icons">
	<g>
		<path d="M8.083,10.519c-0.195-0.195-0.512-0.195-0.707,0l-1.414,1.414c-0.195,0.195-0.195,0.512,0,0.707l1.414,1.414
			c0.195,0.195,0.512,0.195,0.707,0l1.414-1.414c0.195-0.195,0.195-0.512,0-0.707L8.083,10.519z"/>
		<path d="M10.911,7.691c-0.195-0.195-0.512-0.195-0.707,0L8.79,9.106c-0.195,0.195-0.195,0.512,0,0.707l1.414,1.414
			c0.195,0.195,0.512,0.195,0.707,0l1.414-1.414c0.195-0.195,0.195-0.512,0-0.707L10.911,7.691z"/>
		<path d="M16.297,7.906c0.542,1.233,1.771,2.1,3.203,2.1c0.171,0,0.335-0.026,0.5-0.051v3.051c0,0.276,0.224,0.5,0.5,0.5
			s0.5-0.224,0.5-0.5V9.654c1.178-0.563,2-1.758,2-3.148c0-1.93-1.57-3.5-3.5-3.5c-0.275,0-0.54,0.039-0.797,0.1
			c-0.542-1.233-1.771-2.1-3.203-2.1c-1.975,0-3.677,1.673-3.467,3.832c-1.86-1.04-4-0.633-5.364,0.732l-4.95,4.949
			c-1.754,1.754-1.754,4.609,0,6.364l1.415,1.413c1.756,1.759,4.604,1.76,6.363,0l4.95-4.949c1.367-1.366,1.774-3.514,0.726-5.375
			C15.514,8.006,15.688,8.05,16.297,7.906z M19.5,4.006c1.378,0,2.5,1.121,2.5,2.5c0,0.813-0.396,1.53-1,1.987V8.006
			c0-0.276-0.224-0.5-0.5-0.5S20,7.729,20,8.006v0.949c-0.162,0.033-0.329,0.051-0.5,0.051c-1.012,0-1.881-0.608-2.274-1.474
			C18.28,6.928,19,5.805,19,4.506c0-0.149-0.026-0.292-0.044-0.437C19.132,4.03,19.313,4.006,19.5,4.006z M17.001,6.492
			c0.004-0.808,0.398-1.519,0.997-1.973C17.994,5.327,17.601,6.038,17.001,6.492z M15.5,2.006c1.012,0,1.881,0.607,2.273,1.474
			C16.72,4.084,16,5.207,16,6.506c0,0.149,0.026,0.292,0.044,0.437c-0.176,0.039-0.356,0.063-0.544,0.063
			c-1.375,0-2.5-1.124-2.5-2.5C13,3.127,14.122,2.006,15.5,2.006z M13.74,7.691c0.735,0.735,1.078,1.762,1.021,2.514L9.497,15.47
			c-0.976,0.974-2.561,0.975-3.535,0l-1.414-1.415c-0.967-0.965-0.986-2.549,0-3.535l5.263-5.264c1.014,0,1.863,0.37,2.515,1.021
			C12.349,6.301,13.722,7.674,13.74,7.691z"/>
		<path d="M22,11.057v1.949c0,0.828-0.672,1.5-1.5,1.5c-0.829,0-1.5-0.672-1.5-1.5v-1.949c-1.14,0.233-2,1.241-2,2.449v3
			c0,0.276,0.224,0.5,0.5,0.494h6c0.276,0.006,0.5-0.218,0.5-0.494v-3C24,12.298,23.14,11.289,22,11.057z"/>
		<path d="M19,21.506c0,0.08,0.02,0.16,0.057,0.231l1.042,2c0.189,0.364,0.716,0.357,0.895-0.016l0.958-2
			C21.983,21.654,22,21.581,22,21.506v-3.5h-3V21.506z"/>
	</g>
</g>
<g id="invisible_shape">
	<rect fill="none" width="24" height="24"/>
</g>
</svg>
