<?xml version="1.0" encoding="utf-8"?>
<!-- Generator: Adobe Illustrator 19.2.0, SVG Export Plug-In . SVG Version: 6.00 Build 0)  -->
<svg version="1.1" xmlns="http://www.w3.org/2000/svg" xmlns:xlink="http://www.w3.org/1999/xlink" x="0px" y="0px" width="24px"
	 height="24px" viewBox="0 0 24 24" enable-background="new 0 0 24 24" xml:space="preserve">
<g id="Filled_Icons">
	<g>
		<g>
			<path d="M16.799,11.602c0.566-0.758,1.836-0.758,2.402,0c0.231,0.31,0.59,0.801,1,1.398H21v-1.5c0-0.133-0.053-0.26-0.146-0.354
				l-1.927-1.928l-1.962-4.904C16.888,4.124,16.704,4,16.5,4h-11C5.295,4,5.111,4.124,5.035,4.314L3.073,9.219l-1.927,1.928
				C1.053,11.24,1,11.367,1,11.5V13h5c0.276,0,0.5,0.224,0.5,0.5S6.276,14,6,14H1v1.5C1,15.776,1.224,16,1.5,16H2v1.5
				C2,17.776,2.224,18,2.5,18h3C5.776,18,6,17.776,6,17.5V16h7.954L16.799,11.602z M4.238,9l1.6-4h10.323l1.601,4H4.238z"/>
		</g>
		<path d="M18.4,12.2c-0.188-0.252-0.612-0.252-0.801,0c-0.4,0.536-3.907,5.287-3.907,7.492C13.692,22.067,15.625,24,18,24
			s4.308-1.933,4.308-4.308C22.308,17.487,18.8,12.736,18.4,12.2z M17.935,21.876c-0.207,0.181-0.524,0.161-0.706-0.049
			C16.437,20.918,16,19.752,16,18.544c0-0.276,0.224-0.5,0.5-0.5s0.5,0.224,0.5,0.5c0,0.966,0.349,1.899,0.983,2.627
			C18.165,21.379,18.143,21.694,17.935,21.876z"/>
	</g>
</g>
<g id="invisible_shape">
	<rect fill="none" width="24" height="24"/>
</g>
</svg>
