<?xml version="1.0" encoding="utf-8"?>
<!-- Generator: Adobe Illustrator 19.2.0, SVG Export Plug-In . SVG Version: 6.00 Build 0)  -->
<svg version="1.1" xmlns="http://www.w3.org/2000/svg" xmlns:xlink="http://www.w3.org/1999/xlink" x="0px" y="0px" width="24px"
	 height="24px" viewBox="0 0 24 24" enable-background="new 0 0 24 24" xml:space="preserve">
<g id="Filled_Icons">
	<path d="M24,14.5v-2c0-0.276-0.224-0.5-0.5-0.5h-3c-0.104,0-0.195,0.039-0.275,0.094l-1.251-3.752C18.906,8.138,18.715,8,18.5,8
		h-13C5.284,8,5.094,8.138,5.025,8.342l-1.25,3.752C3.695,12.039,3.603,12,3.5,12h-3C0.224,12,0,12.224,0,12.5v2
		C0,14.776,0.224,15,0.5,15h1.793l-2.146,2.146c-0.046,0.046-0.083,0.101-0.108,0.162C0.013,17.367,0,17.434,0,17.5V20v1.5
		C0,21.776,0.224,22,0.5,22H1v1.5C1,23.776,1.224,24,1.5,24h3C4.776,24,5,23.776,5,23.5V22h3v0.5C8,22.776,8.224,23,8.5,23h7
		c0.276,0,0.5-0.224,0.5-0.5V22h3v1.5c0,0.276,0.224,0.5,0.5,0.5h3c0.276,0,0.5-0.224,0.5-0.5V22h0.5c0.276,0,0.5-0.224,0.5-0.5V20
		v-2.5c0-0.066-0.014-0.133-0.039-0.192c-0.025-0.062-0.063-0.116-0.108-0.162L21.707,15H23.5C23.776,15,24,14.776,24,14.5z M1,14
		v-1h2v1H1z M4,23H2v-1h2V23z M4,19H1v-1h3V19z M15,22H9v-2h6V22z M11.5,17.5v-1c0-0.276,0.224-0.5,0.5-0.5s0.5,0.224,0.5,0.5v1
		c0,0.276-0.224,0.5-0.5,0.5S11.5,17.776,11.5,17.5z M4.193,14L5.86,9H18.14l1.666,5H4.193z M22,23h-2v-1h2V23z M23,18v1h-3v-1H23z
		 M23,14h-2v-1h2V14z"/>
</g>
<g id="invisible_shape">
	<rect fill="none" width="24" height="24"/>
</g>
</svg>
