<?xml version="1.0" encoding="utf-8"?>
<!-- Generator: Adobe Illustrator 19.2.0, SVG Export Plug-In . SVG Version: 6.00 Build 0)  -->
<svg version="1.1" xmlns="http://www.w3.org/2000/svg" xmlns:xlink="http://www.w3.org/1999/xlink" x="0px" y="0px" width="24px"
	 height="24px" viewBox="0 0 24 24" enable-background="new 0 0 24 24" xml:space="preserve">
<g id="Filled_Icons">
	<g>
		<g>
			<path d="M20,13l-0.446,0.002c-0.489,0.003-1.179,0.007-1.543-0.002c-1.045-0.011-1.721,0.153-2.126,0.55
				c-0.132,0.13-0.231,0.281-0.295,0.45h-0.538l1.14-2.28c0.123-0.247,0.023-0.547-0.224-0.671
				c-0.247-0.125-0.547-0.023-0.671,0.224L13.933,14h-3.518c-0.099-0.279-0.282-0.518-0.514-0.693l2.453-2.453
				c0.195-0.195,0.195-0.512,0-0.707s-0.512-0.195-0.707,0L8.793,13H4.5C2.019,13,0,15.019,0,17.5v2C0,19.776,0.224,20,0.5,20h2.917
				C3.159,19.557,3,19.049,3,18.5c0-1.654,1.346-3,3-3s3,1.346,3,3c0,0.549-0.159,1.057-0.417,1.5h7.334
				c-0.258-0.443-0.417-0.951-0.417-1.5c0-1.654,1.346-3,3-3s3,1.346,3,3c0,0.549-0.159,1.057-0.417,1.5H23.5
				c0.276,0,0.5-0.224,0.5-0.5v-2C24,13.78,21.825,13,20,13z"/>
		</g>
		<path d="M6,16.5c-1.103,0-2,0.897-2,2s0.897,2,2,2s2-0.897,2-2S7.103,16.5,6,16.5z"/>
		<path d="M18.5,16.5c-1.103,0-2,0.897-2,2s0.897,2,2,2s2-0.897,2-2S19.603,16.5,18.5,16.5z"/>
	</g>
</g>
<g id="invisible_shape">
	<rect fill="none" width="24" height="24"/>
</g>
</svg>
