<?xml version="1.0" encoding="utf-8"?>
<!-- Generator: Adobe Illustrator 19.2.0, SVG Export Plug-In . SVG Version: 6.00 Build 0)  -->
<svg version="1.1" xmlns="http://www.w3.org/2000/svg" xmlns:xlink="http://www.w3.org/1999/xlink" x="0px" y="0px" width="24px"
	 height="24px" viewBox="0 0 24 24" enable-background="new 0 0 24 24" xml:space="preserve">
<g id="Filled_Icons">
	<g>
		<g>
			<circle cx="6.5" cy="19.979" r="3"/>
			<circle cx="16.5" cy="19.979" r="3"/>
		</g>
		<path d="M23.5,17L23,16.979v-5.502c0.027-0.167-0.057-0.321-0.194-0.414L22,10.546V2.5C22,2.224,21.776,2,21.5,2S21,2.224,21,2.5
			v7.38l-4.223-2.816C16.695,7.009,16.599,6.979,16.5,7h-9C7.224,6.979,7,7.203,7,7.479v3.566l-6.571,0.938
			C0.183,12.019,0,12.231,0,12.479v5c0,0.276,0.224,0.5,0.5,0.5h2c0.276,0,0.5-0.224,0.5-0.5c0-1.378,1.122-2.5,2.5-2.5h2
			c1.378,0,2.5,1.122,2.5,2.5c0,0.276,0.224,0.5,0.5,0.5h2c0.276,0,0.5-0.224,0.5-0.5c0-1.378,1.122-2.5,2.5-2.5h2
			c1.378,0,2.5,1.122,2.5,2.5c0,0.276,0.224,0.5,0.5,0.5h3c0.276,0,0.5-0.224,0.5-0.5S23.776,17,23.5,17z M11,10.979
			c0,0.276-0.224,0.5-0.5,0.5h-2c-0.276,0-0.5-0.224-0.5-0.5v-2.5c0-0.276,0.224-0.5,0.5-0.5h2c0.276,0,0.5,0.224,0.5,0.5V10.979z"
			/>
	</g>
</g>
<g id="invisible_shape">
	<rect fill="none" width="24" height="24"/>
</g>
</svg>
