<?xml version="1.0" encoding="utf-8"?>
<!-- Generator: Adobe Illustrator 19.2.0, SVG Export Plug-In . SVG Version: 6.00 Build 0)  -->
<svg version="1.1" xmlns="http://www.w3.org/2000/svg" xmlns:xlink="http://www.w3.org/1999/xlink" x="0px" y="0px" width="24px"
	 height="24px" viewBox="0 0 24 24" enable-background="new 0 0 24 24" xml:space="preserve">
<g id="Filled_Icons">
	<g>
		<path d="M4.5,23c-1.329,0-2.548-0.474-3.5-1.261V23.5C1,23.776,1.224,24,1.5,24h3C4.776,24,5,23.776,5,23.5V23H4.5z"/>
		<path d="M19.5,23H19v0.5c0,0.276,0.224,0.5,0.5,0.5h3c0.276,0,0.5-0.224,0.5-0.5v-1.761C22.048,22.526,20.828,23,19.5,23z"/>
		<g>
			<path d="M24,13.5v-2c0-0.276-0.224-0.5-0.5-0.5h-3c-0.247,0-0.441,0.182-0.483,0.416l-2.069-4.14C17.862,7.107,17.69,7,17.5,7
				h-11C6.311,7,6.138,7.107,6.053,7.276l-2.07,4.14C3.941,11.182,3.747,11,3.5,11h-3C0.224,11,0,11.224,0,11.5v2
				C0,13.776,0.224,14,0.5,14h1.206C0.675,14.825,0,16.079,0,17.5C0,19.981,2.019,22,4.5,22h3.591c0.212,0.598,0.773,1,1.409,1h5
				c0.636,0,1.197-0.402,1.409-1H19.5c2.481,0,4.5-2.019,4.5-4.5c0-1.421-0.675-2.675-1.706-3.5H23.5C23.776,14,24,13.776,24,13.5z
				 M6.809,8H17.19l2.5,5H4.309L6.809,8z M22,18.5c0,0.276-0.224,0.5-0.5,0.5h-5.64l-0.887,2.658C14.906,21.862,14.715,22,14.5,22
				h-5c-0.215,0-0.406-0.138-0.474-0.342L8.14,19H2.5C2.224,19,2,18.776,2,18.5v-2C2,16.224,2.224,16,2.5,16h2.19l1-2h3.624
				l-1.004,2H10v-2h4v2h1.694l-0.99-2h3.612l0.993,2h2.19c0.276,0,0.5,0.224,0.5,0.5V18.5z"/>
			<rect x="3" y="17" width="18" height="1"/>
		</g>
	</g>
</g>
<g id="invisible_shape">
	<rect fill="none" width="24" height="24"/>
</g>
</svg>
