<?xml version="1.0" encoding="utf-8"?>
<!-- Generator: Adobe Illustrator 19.2.0, SVG Export Plug-In . SVG Version: 6.00 Build 0)  -->
<svg version="1.1" xmlns="http://www.w3.org/2000/svg" xmlns:xlink="http://www.w3.org/1999/xlink" x="0px" y="0px" width="24px"
	 height="24px" viewBox="0 0 24 24" enable-background="new 0 0 24 24" xml:space="preserve">
<g id="Filled_Icons">
	<g>
		<circle cx="5.5" cy="18.5" r="2.5"/>
		<path d="M5.521,13c1.995,0,4.436,1.367,6.339,2.361c0.951-1.205,2.22-2.377,4.641-2.377c3.037,0,5.552,2.591,6.5,3.715V14.5
			c0-3.584-2.916-6.5-6.5-6.5H12c-0.189,0-0.362,0.107-0.447,0.276L9.69,12H3.347c-0.736,0-1.358,0.527-1.479,1.254l-0.263,1.578
			C2.489,13.872,3.769,13,5.521,13z M11.553,11.276l1-2C12.638,9.107,12.811,9,13,9h1c0.276,0,0.5,0.224,0.5,0.5v2
			c0,0.276-0.204,0.501-0.479,0.501C14.014,12,14.007,12,14,12.001L12,12C11.627,12,11.387,11.606,11.553,11.276z"/>
		<path d="M23.5,18H23v-0.009c-0.154,0-0.307-0.063-0.404-0.197c-0.028-0.038-2.814-3.809-6.096-3.809
			c-2.186,0-3.224,1.144-4.1,2.315c-0.147,0.195-0.414,0.259-0.632,0.144C9.768,15.393,7.284,14,5.521,14
			c-2.39,0-3.77,2.108-4.299,3.131L1.077,18H0.5C0.224,18,0,18.224,0,18.5S0.224,19,0.5,19h1.551c-0.325-2.184,1.385-4,3.449-4
			c2.062,0,3.774,1.815,3.449,4h4.102c-0.325-2.184,1.385-4,3.449-4c2.062,0,3.774,1.815,3.449,4H23.5c0.276,0,0.5-0.224,0.5-0.5
			S23.776,18,23.5,18z"/>
		<circle cx="16.5" cy="18.5" r="2.5"/>
	</g>
</g>
<g id="invisible_shape">
	<rect fill="none" width="24" height="24"/>
</g>
</svg>
