<?xml version="1.0" encoding="utf-8"?>
<!-- Generator: Adobe Illustrator 19.2.0, SVG Export Plug-In . SVG Version: 6.00 Build 0)  -->
<svg version="1.1" xmlns="http://www.w3.org/2000/svg" xmlns:xlink="http://www.w3.org/1999/xlink" x="0px" y="0px" width="24px"
	 height="24px" viewBox="0 0 24 24" enable-background="new 0 0 24 24" xml:space="preserve">
<g id="Filled_Icons">
	<path d="M12,0.006c-6.627,0-12,5.373-12,12c0,6.627,5.373,12,12,12c6.627,0,12-5.373,12-12C24,5.379,18.627,0.006,12,0.006z
		 M12.542,20.705c-3.535,0.127-6.748-1.863-8.222-5.039c-0.116-0.251-0.007-0.548,0.244-0.664c0.25-0.119,0.548-0.007,0.663,0.242
		c1.311,2.824,4.178,4.599,7.277,4.461c4.253-0.155,7.573-3.727,7.416-7.982c-0.16-4.307-3.787-7.58-7.982-7.416
		c-2.167,0.079-4.217,1.07-5.624,2.719c-1.177,1.377-1.801,3.115-1.827,4.981l2.177-2.488C6.847,9.309,7.162,9.289,7.37,9.471
		c0.208,0.182,0.228,0.497,0.047,0.705l-3.023,3.456c-0.209,0.244-0.606,0.227-0.792-0.052L1.011,9.692
		C0.857,9.463,0.92,9.152,1.149,8.999c0.23-0.153,0.541-0.091,0.694,0.139l1.655,2.483c0.104-1.959,0.804-3.779,2.056-5.246
		c1.588-1.859,3.902-2.977,6.348-3.068c4.843-0.161,8.843,3.59,9.019,8.379C21.098,16.492,17.35,20.527,12.542,20.705z
		 M7.904,13.271c-0.276,0-0.5-0.224-0.5-0.5c0-0.276,0.224-0.5,0.5-0.5c1.055,0,1.937,0.741,2.165,1.729h4.305
		c0.229-0.987,1.11-1.729,2.166-1.729c0.276,0,0.5,0.224,0.5,0.5c0,0.276-0.224,0.5-0.5,0.5c-0.677,0-1.228,0.551-1.228,1.229
		c0,0.677,0.551,1.227,1.228,1.227c0.276,0,0.5,0.224,0.5,0.5c0,0.276-0.224,0.5-0.5,0.5c-1.056,0-1.938-0.74-2.166-1.728h-4.305
		c-0.228,0.987-1.11,1.728-2.165,1.728c-0.276,0-0.5-0.224-0.5-0.5c0-0.276,0.224-0.5,0.5-0.5c0.676,0,1.227-0.551,1.227-1.227
		C9.131,13.822,8.581,13.271,7.904,13.271z M10.361,8.606c-0.011,0.275-0.244,0.476-0.52,0.479c-0.275-0.012-0.49-0.243-0.479-0.521
		c0.068-1.71,2.651-1.663,2.651,0.055c0,0.365-0.141,0.613-0.247,0.769l-0.955,1.364h0.692c0.276,0,0.5,0.224,0.5,0.5
		c0,0.276-0.224,0.5-0.5,0.5H9.851c-0.403,0-0.642-0.454-0.41-0.787l1.503-2.147C11.288,8.324,10.385,8.054,10.361,8.606z
		 M15.093,9.992c0,0.196-0.113,0.366-0.278,0.448v0.812c0,0.276-0.224,0.5-0.5,0.5c-0.276,0-0.5-0.224-0.5-0.5v-0.76H12.79
		c-0.398,0-0.642-0.452-0.41-0.785l1.524-2.196c0.273-0.393,0.911-0.211,0.911,0.285v1.748C14.98,9.626,15.093,9.796,15.093,9.992z"
		/>
</g>
<g id="invisible_shape">
	<rect fill="none" width="24" height="24"/>
</g>
</svg>
