<?xml version="1.0" encoding="utf-8"?>
<!-- Generator: Adobe Illustrator 19.2.0, SVG Export Plug-In . SVG Version: 6.00 Build 0)  -->
<svg version="1.1" xmlns="http://www.w3.org/2000/svg" xmlns:xlink="http://www.w3.org/1999/xlink" x="0px" y="0px" width="24px"
	 height="24px" viewBox="0 0 24 24" enable-background="new 0 0 24 24" xml:space="preserve">
<g id="Filled_Icons">
	<g>
		<path d="M14,13.509c0-1.2,1.356-1.923,2.354-1.232c0.843,0.587,1.527,0.651,1.962,0.098c0.387-0.493,1.095-0.639,1.683-0.452V11.5
			c0-0.133-0.053-0.26-0.146-0.354l-1.927-1.928l-1.962-4.904C15.888,4.124,15.704,4,15.5,4h-11C4.295,4,4.111,4.124,4.035,4.314
			L2.073,9.219l-1.927,1.928C0.053,11.24,0,11.367,0,11.5V13h5c0.276,0,0.5,0.224,0.5,0.5S5.276,14,5,14H0v1.5
			C0,15.776,0.224,16,0.5,16H1v1.5C1,17.776,1.224,18,1.5,18h3C4.776,18,5,17.776,5,17.5V16h9V13.509z M3.238,9l1.6-4h10.323
			l1.601,4H3.238z"/>
		<path d="M23.213,13.1c-1.449,1.013-2.639,0.756-3.315-0.108c-0.189-0.241-0.605-0.241-0.795,0
			c-0.681,0.867-1.868,1.12-3.317,0.107C15.451,12.867,15,13.11,15,13.509v5.925c0,0.802,1.463,2.735,4.365,3.549
			c0.096,0.023,0.174,0.023,0.27,0C22.537,22.169,24,20.235,24,19.434v-5.925C24,13.108,23.546,12.865,23.213,13.1z M21.519,18H20
			v1.466c0,0.277-0.224,0.5-0.5,0.5s-0.5-0.223-0.5-0.5V18h-1.522c-0.276,0-0.5-0.224-0.5-0.5s0.224-0.5,0.5-0.5H19v-1.521
			c0-0.276,0.224-0.5,0.5-0.5s0.5,0.224,0.5,0.5V17h1.519c0.276,0,0.5,0.224,0.5,0.5S21.795,18,21.519,18z"/>
	</g>
</g>
<g id="invisible_shape">
	<rect fill="none" width="24" height="24"/>
</g>
</svg>
