<?xml version="1.0" encoding="utf-8"?>
<!-- Generator: Adobe Illustrator 19.2.0, SVG Export Plug-In . SVG Version: 6.00 Build 0)  -->
<svg version="1.1" xmlns="http://www.w3.org/2000/svg" xmlns:xlink="http://www.w3.org/1999/xlink" x="0px" y="0px" width="24px"
	 height="24px" viewBox="0 0 24 24" enable-background="new 0 0 24 24" xml:space="preserve">
<g id="Filled_Icons">
	<g>
		<circle cx="4.5" cy="18.5" r="2.5"/>
		<circle cx="18.5" cy="18.5" r="2.5"/>
		<path d="M23.5,18H23v-3c0-1.102-0.897-2-2-2h-1.191l-1.862-3.724C17.862,9.107,17.69,9,17.5,9H8C7.811,9,7.638,9.107,7.553,9.276
			L5.69,13H2c-1.103,0-2,0.898-2,2v3.5C0,18.776,0.224,19,0.5,19h0.551c-0.325-2.184,1.385-4,3.449-4c2.062,0,3.774,1.815,3.449,4
			h7.102c-0.325-2.184,1.385-4,3.449-4c2.062,0,3.774,1.815,3.449,4H23.5c0.276,0,0.5-0.224,0.5-0.5S23.776,18,23.5,18z M11,12.5
			c0,0.276-0.224,0.5-0.5,0.5H8c-0.371,0-0.614-0.392-0.447-0.724l1-2C8.638,10.107,8.811,10,9,10h1.5c0.276,0,0.5,0.224,0.5,0.5
			V12.5z"/>
		<path d="M12,6c-1.207,0-2.217,0.86-2.449,2h4.898C14.217,6.86,13.207,6,12,6z"/>
	</g>
</g>
<g id="invisible_shape">
	<rect fill="none" width="24" height="24"/>
</g>
</svg>
