<?xml version="1.0" encoding="utf-8"?>
<!-- Generator: Adobe Illustrator 19.2.0, SVG Export Plug-In . SVG Version: 6.00 Build 0)  -->
<svg version="1.1" xmlns="http://www.w3.org/2000/svg" xmlns:xlink="http://www.w3.org/1999/xlink" x="0px" y="0px" width="24px"
	 height="24px" viewBox="0 0 24 24" enable-background="new 0 0 24 24" xml:space="preserve">
<g id="Filled_Icons">
	<g>
		<path d="M18.5,12c0.517,0,1.018,0.067,1.5,0.182V11.5c0-0.133-0.053-0.26-0.146-0.354l-1.927-1.928l-1.962-4.904
			C15.888,4.124,15.704,4,15.5,4h-11C4.295,4,4.111,4.124,4.035,4.314L2.073,9.219l-1.927,1.928C0.053,11.24,0,11.367,0,11.5V13h5
			c0.276,0,0.5,0.224,0.5,0.5S5.276,14,5,14H0v1.5C0,15.776,0.224,16,0.5,16H1v1.5C1,17.776,1.224,18,1.5,18h3
			C4.776,18,5,17.776,5,17.5V16h7.502C13.483,13.653,15.802,12,18.5,12z M3.238,9l1.6-4h10.323l1.601,4H3.238z"/>
		<g>
			<path d="M21.293,16.414l-4.879,4.879C16.998,21.73,17.716,22,18.5,22c1.93,0,3.5-1.57,3.5-3.5
				C22,17.715,21.731,16.998,21.293,16.414z"/>
			<path d="M18.5,13c-3.037,0-5.5,2.463-5.5,5.5s2.463,5.5,5.5,5.5s5.5-2.463,5.5-5.5S21.537,13,18.5,13z M18.5,23
				c-2.481,0-4.5-2.018-4.5-4.5c0-2.481,2.019-4.5,4.5-4.5s4.5,2.019,4.5,4.5C23,20.982,20.981,23,18.5,23z"/>
			<path d="M18.5,15c-1.93,0-3.5,1.57-3.5,3.5c0,0.785,0.269,1.502,0.707,2.086l4.879-4.879C20.002,15.269,19.284,15,18.5,15z"/>
		</g>
	</g>
</g>
<g id="invisible_shape">
	<rect fill="none" width="24" height="24"/>
</g>
</svg>
