<?xml version="1.0" encoding="utf-8"?>
<!-- Generator: Adobe Illustrator 19.2.0, SVG Export Plug-In . SVG Version: 6.00 Build 0)  -->
<svg version="1.1" xmlns="http://www.w3.org/2000/svg" xmlns:xlink="http://www.w3.org/1999/xlink" x="0px" y="0px" width="24px"
	 height="24px" viewBox="0 0 24 24" enable-background="new 0 0 24 24" xml:space="preserve">
<g id="Filled_Icons">
	<g>
		<path d="M19.413,13.418l-0.786-4.982C18.519,7.745,17.922,7,17.146,7H6.854C6.08,7,5.481,7.745,5.372,8.436l-0.786,4.983
			C2.275,13.143,0.017,14.896,0,17.5c0,1.955,1.255,3.617,3,4.237V23.5C3,23.776,3.224,24,3.5,24h3C6.776,24,7,23.776,7,23.5V22h2
			v0.5C9,22.776,9.224,23,9.5,23h5c0.276,0,0.5-0.224,0.5-0.5V22h2v1.5c0,0.276,0.224,0.5,0.5,0.5h3c0.276,0,0.5-0.224,0.5-0.5
			v-1.763c1.744-0.62,3-2.289,3-4.269C23.982,14.921,21.747,13.14,19.413,13.418z M6.359,8.592C6.405,8.304,6.66,8,6.854,8h10.292
			c0.194,0,0.447,0.304,0.492,0.592l0.79,4.996C16.813,12.262,14.502,11.5,12,11.5c-2.503,0-4.814,0.762-6.43,2.089L6.359,8.592z
			 M3,17.5c0-0.552,0.448-1,1-1c0.551,0,1,0.448,1,1c0,0.551-0.449,1-1,1C3.448,18.5,3,18.051,3,17.5z M6,23H4v-1l2-0.028V23z
			 M14,22h-4v-2h4V22z M13.607,16.538c-0.993,0.612-2.21,0.619-3.178,0.023l-3.945-2.427C7.901,13.102,9.906,12.5,12,12.5
			c2.093,0,4.098,0.602,5.515,1.633L13.607,16.538z M20,23h-2v-1.073l2-0.041V23z M20,18.5c-0.552,0-1-0.449-1-1
			c0-0.552,0.448-1,1-1c0.551,0,1,0.448,1,1C21,18.051,20.551,18.5,20,18.5z"/>
		<circle cx="12" cy="15.5" r="0.5"/>
	</g>
</g>
<g id="invisible_shape">
	<rect fill="none" width="24" height="24"/>
</g>
</svg>
