<?xml version="1.0" encoding="utf-8"?>
<!-- Generator: Adobe Illustrator 19.2.0, SVG Export Plug-In . SVG Version: 6.00 Build 0)  -->
<svg version="1.1" xmlns="http://www.w3.org/2000/svg" xmlns:xlink="http://www.w3.org/1999/xlink" x="0px" y="0px" width="24px"
	 height="24px" viewBox="0 0 24 24" enable-background="new 0 0 24 24" xml:space="preserve">
<g id="Filled_Icons">
	<g>
		<circle cx="4.5" cy="18.5" r="2.25"/>
		<path d="M23.5,18H23v-3c0-1.104-0.897-2-2-2h-1.191l-1.861-3.724C17.862,9.106,17.69,9,17.5,9H8C7.811,9,7.638,9.106,7.553,9.276
			L5.69,13H2c-1.104,0-2,0.896-2,2v3.5C0,18.776,0.224,19,0.5,19h0.801c-0.322-2.039,1.267-3.75,3.199-3.75
			c1.929,0,3.521,1.706,3.199,3.75h7.602c-0.322-2.039,1.267-3.75,3.199-3.75c1.929,0,3.521,1.706,3.199,3.75H23.5
			c0.275,0,0.5-0.224,0.5-0.5S23.775,18,23.5,18z M10.5,12H9.809l-0.861,1.724c-0.12,0.239-0.412,0.35-0.672,0.224
			c-0.246-0.124-0.347-0.424-0.223-0.671l1-2C9.138,11.106,9.311,11,9.5,11h1c0.275,0,0.5,0.224,0.5,0.5S10.775,12,10.5,12z"/>
		<circle cx="18.5" cy="18.5" r="2.25"/>
	</g>
</g>
<g id="invisible_shape">
	<rect fill="none" width="24" height="24"/>
</g>
</svg>
