<?xml version="1.0" encoding="utf-8"?>
<!-- Generator: Adobe Illustrator 19.2.0, SVG Export Plug-In . SVG Version: 6.00 Build 0)  -->
<svg version="1.1" xmlns="http://www.w3.org/2000/svg" xmlns:xlink="http://www.w3.org/1999/xlink" x="0px" y="0px" width="24px"
	 height="24px" viewBox="0 0 24 24" enable-background="new 0 0 24 24" xml:space="preserve">
<g id="Filled_Icons">
	<g>
		<path d="M15,20c-0.276,0-0.5-0.224-0.5-0.5S14.724,19,15,19h5v-1.5c0-0.133-0.053-0.26-0.146-0.354l-1.927-1.928l-1.962-4.904
			C15.888,10.124,15.704,10,15.5,10h-11c-0.205,0-0.389,0.124-0.465,0.314l-1.962,4.904l-1.927,1.928C0.053,17.24,0,17.367,0,17.5
			V19h5c0.276,0,0.5,0.224,0.5,0.5S5.276,20,5,20H0v1.5C0,21.776,0.224,22,0.5,22H1v1.5C1,23.776,1.224,24,1.5,24h3
			C4.776,24,5,23.776,5,23.5V22h10v1.5c0,0.276,0.224,0.5,0.5,0.5h3c0.276,0,0.5-0.224,0.5-0.5V22h0.5c0.276,0,0.5-0.224,0.5-0.5V20
			H15z M3.238,15l1.6-4h10.323l1.601,4H3.238z"/>
		<g>
			<path d="M9.5,3C9.224,3,9,2.776,9,2.5v-2C9,0.224,9.224,0,9.5,0S10,0.224,10,0.5v2C10,2.776,9.776,3,9.5,3z"/>
		</g>
		<g>
			<path d="M12.099,3.22l-0.498-1.938c-0.069-0.267,0.092-0.539,0.36-0.608c0.269-0.068,0.54,0.092,0.608,0.36l0.499,1.938
				c0.069,0.267-0.092,0.539-0.36,0.608C12.441,3.648,12.168,3.489,12.099,3.22z"/>
		</g>
		<g>
			<path d="M12.305,8.216l-0.498-1.938c-0.068-0.267,0.093-0.539,0.36-0.608c0.268-0.066,0.54,0.092,0.609,0.36l0.498,1.938
				c0.069,0.267-0.092,0.539-0.359,0.608C12.648,8.644,12.375,8.485,12.305,8.216z"/>
		</g>
		<g>
			<path d="M14.826,6.466l-0.498-1.938c-0.069-0.267,0.092-0.539,0.359-0.608c0.268-0.066,0.54,0.092,0.609,0.36l0.498,1.938
				c0.069,0.267-0.093,0.539-0.36,0.608C15.17,6.894,14.896,6.736,14.826,6.466z"/>
		</g>
		<g>
			<path d="M3.627,6.826C3.36,6.757,3.198,6.484,3.268,6.218L3.766,4.28c0.069-0.269,0.343-0.428,0.608-0.36
				c0.268,0.069,0.429,0.342,0.36,0.608L4.236,6.466C4.167,6.735,3.894,6.894,3.627,6.826z"/>
		</g>
		<g>
			<path d="M6.323,3.583C6.055,3.518,5.891,3.246,5.956,2.978l0.477-1.942c0.065-0.269,0.34-0.432,0.604-0.366
				C7.306,0.736,7.47,1.007,7.404,1.274L6.927,3.217C6.862,3.485,6.591,3.649,6.323,3.583z"/>
		</g>
		<g>
			<path d="M6.169,8.58C5.901,8.515,5.737,8.243,5.804,7.976l0.477-1.941c0.067-0.269,0.336-0.43,0.605-0.366
				c0.269,0.065,0.432,0.337,0.366,0.604L6.774,8.214C6.71,8.475,6.448,8.646,6.169,8.58z"/>
		</g>
		<g>
			<path d="M9.5,9C9.224,9,9,8.776,9,8.5v-2C9,6.224,9.224,6,9.5,6S10,6.224,10,6.5v2C10,8.776,9.776,9,9.5,9z"/>
		</g>
	</g>
</g>
<g id="invisible_shape">
	<rect fill="none" width="24" height="24"/>
</g>
</svg>
