<?xml version="1.0" encoding="utf-8"?>
<!-- Generator: Adobe Illustrator 19.2.0, SVG Export Plug-In . SVG Version: 6.00 Build 0)  -->
<svg version="1.1" xmlns="http://www.w3.org/2000/svg" xmlns:xlink="http://www.w3.org/1999/xlink" x="0px" y="0px" width="24px"
	 height="24px" viewBox="0 0 24 24" enable-background="new 0 0 24 24" xml:space="preserve">
<g id="Filled_Icons">
	<g>
		<g>
			<path d="M12.31,4l-0.888,1.787C13.058,6.42,14.762,5.539,15.314,4H12.31z"/>
			<path d="M16.5,2h-1.183c-0.413-1.164-1.514-2.005-2.817-2.005c-1.654,0-3,1.346-3,3c0,0.913,0.418,1.722,1.064,2.273l0.989-1.99
				C11.637,3.107,11.81,3,12,3h4.5C16.776,3,17,2.776,17,2.5S16.776,2,16.5,2z"/>
		</g>
		<circle cx="6.5" cy="21.5" r="2.5"/>
		<path d="M7.5,7h-7C0.224,7,0,7.224,0,7.5v6.995c0,0.276,0.224,0.5,0.5,0.5h7c0.276,0,0.5-0.224,0.5-0.5V7.5C8,7.224,7.776,7,7.5,7
			z M5.5,10H4.707L3,11.707V12.5C3,12.776,2.776,13,2.5,13S2,12.776,2,12.5v-1c0-0.133,0.053-0.26,0.147-0.354l2-2
			C4.24,9.053,4.367,9,4.5,9h1C5.776,9,6,9.224,6,9.5S5.776,10,5.5,10z"/>
		<path d="M20,17.051V15.31l1.276,0.638C21.612,16.114,22,15.868,22,15.5V12c0-0.37-0.391-0.612-0.724-0.447L20,12.19
			c0-0.373-0.089-0.69-0.5-0.69H18c-0.276,0-0.5,0.224-0.5,0.5s0.224,0.5,0.5,0.5h1V20h-7v-1c0-0.771-0.301-1.468-0.78-2H13
			c0.276,0,0.5-0.224,0.5-0.5S13.276,16,13,16H5.25C3.458,16,2,17.458,2,19.25v1.25C2,20.776,2.224,21,2.5,21S3,20.776,3,20.5v-1.25
			C3,18.01,4.009,17,5.25,17H9c1.103,0,2,0.897,2,2v1.5c0,0.276,0.224,0.5,0.5,0.5h11c0.276,0,0.5-0.224,0.5-0.5
			C23,18.741,21.691,17.296,20,17.051z"/>
		<g>
			<path d="M7,2H4.5C4.224,2,4,1.776,4,1.5S4.224,1,4.5,1H7c0.276,0,0.5,0.224,0.5,0.5S7.276,2,7,2z"/>
		</g>
		<g>
			<path d="M2.5,2h-1C1.224,2,1,1.776,1,1.5S1.224,1,1.5,1h1C2.776,1,3,1.224,3,1.5S2.776,2,2.5,2z"/>
		</g>
		<g>
			<path d="M7.5,5h-4C3.224,5,3,4.776,3,4.5S3.224,4,3.5,4h4C7.776,4,8,4.224,8,4.5S7.776,5,7.5,5z"/>
		</g>
		<g>
			<path d="M1.5,5h-1C0.224,5,0,4.776,0,4.5S0.224,4,0.5,4h1C1.776,4,2,4.224,2,4.5S1.776,5,1.5,5z"/>
		</g>
		<g>
			<path d="M16,18.25c0,0.414-0.336,0.75-0.75,0.75s-0.75-0.336-0.75-0.75V18c0,0,0-2.005-0.457-2.777
				c-0.294-0.496-0.922-0.728-1.543-0.728l-1,0.005c-0.828,0-1.5-0.671-1.5-1.5V9.5c0-1,0.5-2,1.5-2.005
				c0.509-0.003,1.069,0.111,1.516,0.266L18,9.995c0.111,0.092,0.182,0.231,0.182,0.386c0,0.276-0.224,0.5-0.5,0.5L13.5,9.495v2.5
				h0.25c1.242,0,2.25,1.008,2.25,2.25V18.25z"/>
		</g>
		<path d="M17.051,22c0.232,1.14,1.242,2,2.449,2s2.217-0.86,2.449-2H17.051z"/>
	</g>
</g>
<g id="invisible_shape">
	<rect fill="none" width="24" height="24"/>
</g>
</svg>
