<?xml version="1.0" encoding="utf-8"?>
<!-- Generator: Adobe Illustrator 19.2.0, SVG Export Plug-In . SVG Version: 6.00 Build 0)  -->
<svg version="1.1" xmlns="http://www.w3.org/2000/svg" xmlns:xlink="http://www.w3.org/1999/xlink" x="0px" y="0px" width="24px"
	 height="24px" viewBox="0 0 24 24" enable-background="new 0 0 24 24" xml:space="preserve">
<g id="Filled_Icons">
	<path d="M12,0C5.383,0,0,5.383,0,12c0,6.616,5.383,12,12,12s12-5.384,12-12C24,5.383,18.617,0,12,0z M11.99,21.02
		c-1.385,0-2.511-1.127-2.511-2.51c0-0.646,0.252-1.229,0.654-1.675c-0.004-0.005-0.01-0.006-0.014-0.011l-6-7
		C3.94,9.615,3.965,9.3,4.175,9.12C4.384,8.941,4.699,8.964,4.88,9.174l6,7c0.019,0.023,0.026,0.049,0.041,0.074
		C11.246,16.093,11.606,16,11.99,16c1.384,0,2.51,1.125,2.51,2.51C14.5,19.893,13.374,21.02,11.99,21.02z M14.5,8
		C14.776,8,15,8.223,15,8.5C15,8.775,14.776,9,14.5,9H11v3h4.499c0.276,0,0.5,0.223,0.5,0.5c0,0.275-0.224,0.5-0.5,0.5H10.5
		c-0.276,0-0.5-0.225-0.5-0.5v-7C10,5.223,10.224,5,10.5,5h5C15.776,5,16,5.223,16,5.5C16,5.775,15.776,6,15.5,6H11v2H14.5z"/>
</g>
<g id="invisible_shape">
	<rect fill="none" width="24" height="24"/>
</g>
</svg>
