<?xml version="1.0" encoding="utf-8"?>
<!-- Generator: Adobe Illustrator 19.2.0, SVG Export Plug-In . SVG Version: 6.00 Build 0)  -->
<svg version="1.1" xmlns="http://www.w3.org/2000/svg" xmlns:xlink="http://www.w3.org/1999/xlink" x="0px" y="0px" width="24px"
	 height="24px" viewBox="0 0 24 24" enable-background="new 0 0 24 24" xml:space="preserve">
<g id="Filled_Icons">
	<path d="M12,0C5.383,0,0,5.383,0,12c0,6.616,5.383,12,12,12s12-5.384,12-12C24,5.383,18.617,0,12,0z M9,12.5v-7
		C9,5.223,9.224,5,9.5,5H15c0.276,0,0.5,0.223,0.5,0.5C15.5,5.775,15.276,6,15,6h-5v2h4c0.276,0,0.5,0.223,0.5,0.5
		C14.5,8.775,14.276,9,14,9h-4v3.5c0,0.275-0.224,0.5-0.5,0.5S9,12.775,9,12.5z M19.88,9.824l-6,7
		c-0.004,0.005-0.01,0.006-0.014,0.011c0.401,0.445,0.653,1.028,0.653,1.675c0,1.383-1.126,2.51-2.51,2.51S9.5,19.893,9.5,18.51
		c0-1.385,1.126-2.51,2.51-2.51c0.384,0,0.744,0.094,1.069,0.248c0.015-0.024,0.023-0.052,0.041-0.074l6-7
		c0.182-0.21,0.498-0.232,0.705-0.054C20.035,9.3,20.06,9.615,19.88,9.824z"/>
</g>
<g id="invisible_shape">
	<rect fill="none" width="24" height="24"/>
</g>
</svg>
