<?xml version="1.0" encoding="utf-8"?>
<!-- Generator: Adobe Illustrator 19.2.0, SVG Export Plug-In . SVG Version: 6.00 Build 0)  -->
<svg version="1.1" xmlns="http://www.w3.org/2000/svg" xmlns:xlink="http://www.w3.org/1999/xlink" x="0px" y="0px" width="24px"
	 height="24px" viewBox="0 0 24 24" enable-background="new 0 0 24 24" xml:space="preserve">
<g id="Filled_Icons">
	<g>
		<path d="M23.833,10.873c0.206-0.184,0.224-0.5,0.04-0.706c-0.183-0.206-0.499-0.225-0.706-0.041C21.984,11.18,20,13.085,20,14v1.5
			v3v3c0,0.826-0.673,1.5-1.5,1.5S17,22.326,17,21.5V8c0-1.103-0.897-2-2-2h-1V2.5C14,2.223,13.776,2,13.5,2h-13
			C0.224,2,0,2.223,0,2.5V10h14V7h1c0.552,0,1,0.448,1,1v13.5c0,1.378,1.121,2.5,2.5,2.5s2.5-1.122,2.5-2.5v-2.691l1.724-0.861
			C22.893,17.861,23,17.69,23,17.5v-2c0-0.277-0.224-0.5-0.5-0.5H21l-0.001-0.987C21.065,13.586,22.518,12.045,23.833,10.873z
			 M12,8.5C12,8.775,11.776,9,11.5,9h-9C2.224,9,2,8.775,2,8.5v-4C2,4.223,2.224,4,2.5,4h9C11.776,4,12,4.223,12,4.5V8.5z"/>
		<path d="M0,11v12.5C0,23.775,0.224,24,0.5,24h13c0.276,0,0.5-0.225,0.5-0.5V11H0z M10,14H5v2h4c0.276,0,0.5,0.223,0.5,0.5
			C9.5,16.775,9.276,17,9,17H5v3.5C5,20.775,4.776,21,4.5,21S4,20.775,4,20.5v-7C4,13.223,4.224,13,4.5,13H10
			c0.276,0,0.5,0.223,0.5,0.5C10.5,13.775,10.276,14,10,14z"/>
	</g>
</g>
<g id="invisible_shape">
	<rect fill="none" width="24" height="24"/>
</g>
</svg>
