<?xml version="1.0" encoding="utf-8"?>
<!-- Generator: Adobe Illustrator 19.2.0, SVG Export Plug-In . SVG Version: 6.00 Build 0)  -->
<svg version="1.1" xmlns="http://www.w3.org/2000/svg" xmlns:xlink="http://www.w3.org/1999/xlink" x="0px" y="0px" width="24px"
	 height="24px" viewBox="0 0 24 24" enable-background="new 0 0 24 24" xml:space="preserve">
<g id="Filled_Icons">
	<g>
		<path d="M8,16.5c0,0.553,0.448,1,1,1s1-0.447,1-1v-2.512l4,0.005V16.5c0,0.553,0.448,1,1,1s1-0.447,1-1v-2.505L20,14v2.5
			c0,0.553,0.448,1,1,1s1-0.447,1-1v-8c0-0.553-0.448-1-1-1s-1,0.447-1,1v3.515l-4-0.005V8.5c0-0.553-0.448-1-1-1s-1,0.447-1,1
			v3.508l-4-0.005V8.5c0-0.553-0.448-1-1-1s-1,0.447-1,1v3.501L7.384,12C5.654,11.552,4.5,10.151,4.5,8.484c0-0.553-0.448-1-1-1
			s-1,0.447-1,1V8.5c0,0.004,0,0.008,0,0.012c0.018,3.604,3.323,5.474,4.762,5.474L8,13.986V16.5z"/>
		<path d="M3,4.655V3.081h0.177l0.855,1.79C4.15,5.118,4.448,5.226,4.699,5.106c0.249-0.119,0.354-0.418,0.235-0.667L4.221,2.945
			c0.423-0.182,0.763-0.58,0.763-1.401c0-1.27-0.811-1.537-1.491-1.537H2.5c-0.276,0-0.5,0.224-0.5,0.5v4.148
			c0,0.276,0.224,0.5,0.5,0.5S3,4.932,3,4.655z M3,1.007h0.492c0.422,0,0.491,0.075,0.491,0.537c0,0.462-0.069,0.537-0.491,0.537
			H3.47c-0.001,0-0.001,0-0.001,0H3V1.007z"/>
		<path d="M9.011,1.48v3.175c0,0.276,0.224,0.5,0.5,0.5c0.276,0,0.5-0.224,0.5-0.5V0.507c0-0.2-0.12-0.381-0.304-0.46
			c-0.183-0.079-0.396-0.04-0.542,0.099L8.67,0.619C8.47,0.81,8.463,1.127,8.654,1.326C8.752,1.428,8.881,1.48,9.011,1.48z"/>
		<path d="M15.981,21.502v-2.166c0-0.495-0.636-0.68-0.911-0.285l-1.831,2.638c-0.23,0.332,0.008,0.785,0.411,0.785h1.331v1.011
			c0,0.276,0.224,0.5,0.5,0.5c0.276,0,0.5-0.224,0.5-0.5v-1.039c0.194-0.069,0.333-0.254,0.333-0.472
			C16.315,21.756,16.175,21.571,15.981,21.502z"/>
		<path d="M20.731,20.488c-0.193,0-0.368,0.034-0.531,0.086c0.101-0.442,0.379-0.829,1.047-0.829c0.276,0,0.5-0.224,0.5-0.5
			s-0.224-0.5-0.5-0.5c-1.548,0-2.098,1.245-2.098,2.311v1.157c0,1.048,0.621,1.726,1.582,1.726c0.961,0,1.582-0.678,1.582-1.726
			C22.313,21.165,21.692,20.488,20.731,20.488z M20.731,22.938c-0.159,0-0.582,0-0.582-0.726c0-0.725,0.423-0.725,0.582-0.725
			c0.159,0,0.582,0,0.582,0.725C21.313,22.938,20.891,22.938,20.731,22.938z"/>
		<path d="M20.664,4.148h-0.901c-0.276,0-0.5,0.224-0.5,0.5c0,0.276,0.224,0.5,0.5,0.5h0.901c0.851,0,1.401-0.603,1.401-1.537
			s-0.55-1.536-1.401-1.536h-0.401V1h1.303c0.276,0,0.5-0.224,0.5-0.5S21.842,0,21.565,0h-1.803c-0.276,0-0.5,0.224-0.5,0.5v2.075
			c0,0.276,0.224,0.5,0.5,0.5h0.901c0.12,0,0.401,0,0.401,0.536C21.065,4.148,20.784,4.148,20.664,4.148z"/>
		<path d="M10.906,20.257c0-0.821-0.669-1.489-1.492-1.489c-0.803,0-1.458,0.627-1.491,1.428c-0.011,0.276,0.203,0.509,0.479,0.521
			c0.278,0.004,0.509-0.205,0.52-0.479c0.011-0.263,0.226-0.469,0.492-0.469c0.271,0,0.492,0.22,0.492,0.489
			c0,0.249-1.763,2.668-1.906,2.872c-0.232,0.332,0.007,0.787,0.41,0.787h1.984c0.276,0,0.5-0.224,0.5-0.5s-0.224-0.5-0.5-0.5H9.371
			C10.463,21.356,10.906,20.967,10.906,20.257z"/>
		<path d="M14.763,4.237c-0.163,0-0.466,0-0.49-0.514c-0.013-0.276-0.254-0.52-0.522-0.476c-0.275,0.012-0.489,0.246-0.477,0.521
			c0.041,0.892,0.625,1.469,1.489,1.469c1.102,0,1.492-0.84,1.492-1.559c0-0.364-0.102-0.759-0.343-1.06
			c0.241-0.302,0.343-0.696,0.343-1.061C16.255,0.84,15.864,0,14.763,0c-0.864,0-1.448,0.577-1.489,1.47
			c-0.013,0.275,0.201,0.51,0.477,0.521c0.272,0.02,0.51-0.199,0.522-0.477C14.296,1,14.6,1,14.763,1c0.16,0,0.492,0,0.492,0.559
			c0,0.561-0.345,0.561-0.492,0.561c-0.276,0-0.5,0.224-0.5,0.5c0,0.276,0.224,0.5,0.5,0.5c0.16,0,0.492,0,0.492,0.56
			C15.255,4.237,14.922,4.237,14.763,4.237z"/>
	</g>
</g>
<g id="invisible_shape">
	<rect fill="none" width="24" height="24"/>
</g>
</svg>
