<?xml version="1.0" encoding="utf-8"?>
<!-- Generator: Adobe Illustrator 19.2.0, SVG Export Plug-In . SVG Version: 6.00 Build 0)  -->
<svg version="1.1" xmlns="http://www.w3.org/2000/svg" xmlns:xlink="http://www.w3.org/1999/xlink" x="0px" y="0px" width="24px"
	 height="24px" viewBox="0 0 24 24" enable-background="new 0 0 24 24" xml:space="preserve">
<g id="Filled_Icons">
	<g>
		<path d="M13.5,21H11v-6c0-0.553-0.447-1-1-1H5V8c0-0.048-0.021-0.088-0.027-0.135C6.707,7.428,8,5.867,8,4c0-2.206-1.794-4-4-4
			S0,1.794,0,4c0,1.867,1.293,3.428,3.027,3.865C3.02,7.912,3,7.952,3,8v7c0,0.552,0.447,1,1,1h5v6c0,0.552,0.447,1,1,1h3.5
			c0.553,0,1-0.448,1-1C14.5,21.447,14.053,21,13.5,21z"/>
		<path d="M16.5,9C16.776,9,17,8.775,17,8.5v-2h1.75c0.965,0,1.75-0.785,1.75-1.75S19.715,3,18.75,3H16.5C16.224,3,16,3.223,16,3.5
			v5C16,8.775,16.224,9,16.5,9z M17,4h1.75c0.413,0,0.75,0.336,0.75,0.75c0,0.413-0.337,0.75-0.75,0.75H17V4z"/>
		<path d="M17.5,17h-1c-0.276,0-0.5,0.223-0.5,0.5v5c0,0.275,0.224,0.5,0.5,0.5h1c1.654,0,3-1.346,3-3S19.154,17,17.5,17z M17.5,22
			H17v-4h0.5c1.103,0,2,0.896,2,2C19.5,21.103,18.603,22,17.5,22z"/>
		<path d="M16.5,16c0.276,0,0.5-0.225,0.5-0.5v-3.195l2.071,3.452C19.163,15.91,19.327,16,19.5,16c0.044,0,0.089-0.006,0.134-0.019
			C19.85,15.922,20,15.725,20,15.5v-5c0-0.277-0.224-0.5-0.5-0.5S19,10.223,19,10.5v3.194l-2.071-3.452
			c-0.115-0.192-0.342-0.283-0.563-0.225C16.15,10.078,16,10.275,16,10.5v5C16,15.775,16.224,16,16.5,16z"/>
	</g>
</g>
<g id="invisible_shape">
	<rect fill="none" width="24" height="24"/>
</g>
</svg>
