<?xml version="1.0" encoding="utf-8"?>
<!-- Generator: Adobe Illustrator 19.2.0, SVG Export Plug-In . SVG Version: 6.00 Build 0)  -->
<svg version="1.1" xmlns="http://www.w3.org/2000/svg" xmlns:xlink="http://www.w3.org/1999/xlink" x="0px" y="0px" width="24px"
	 height="24px" viewBox="0 0 24 24" enable-background="new 0 0 24 24" xml:space="preserve">
<g id="Filled_Icons">
	<path d="M12,0C5.383,0,0,5.383,0,12s5.383,12,12,12c6.616,0,12-5.383,12-12S18.616,0,12,0z M10.531,16H5.5
		C5.224,16,5,15.776,5,15.5S5.224,15,5.5,15h5.031c0.277,0,0.5,0.224,0.5,0.5S10.808,16,10.531,16z M10.531,13H5.5
		C5.224,13,5,12.776,5,12.5S5.224,12,5.5,12h5.031c0.277,0,0.5,0.224,0.5,0.5S10.808,13,10.531,13z M10.531,10H5.5
		C5.224,10,5,9.776,5,9.5S5.224,9,5.5,9h5.031c0.277,0,0.5,0.224,0.5,0.5S10.808,10,10.531,10z M14.762,17.429
		c-1.497,0-2.762-1.232-2.762-2.69v-4.382c0-1.458,1.265-2.69,2.762-2.69c2.731,0,4.952,2.19,4.952,4.882
		C19.714,15.239,17.492,17.429,14.762,17.429z"/>
</g>
<g id="invisible_shape">
	<rect fill="none" width="24" height="24"/>
</g>
</svg>
