<?xml version="1.0" encoding="utf-8"?>
<!-- Generator: Adobe Illustrator 19.2.0, SVG Export Plug-In . SVG Version: 6.00 Build 0)  -->
<svg version="1.1" xmlns="http://www.w3.org/2000/svg" xmlns:xlink="http://www.w3.org/1999/xlink" x="0px" y="0px" width="24px"
	 height="24px" viewBox="0 0 24 24" enable-background="new 0 0 24 24" xml:space="preserve">
<g id="Filled_Icons">
	<path d="M23.5,10h-2.212l-1.105-1.916C20.044,7.845,19.737,7.763,19.5,7.9c-0.24,0.139-0.321,0.444-0.184,0.684L19.557,9H11V7.5
		C11,7.224,10.775,7,10.5,7H10V6h8.5C18.775,6,19,5.776,19,5.5S18.775,5,18.5,5H10V4.5C10,4.224,9.775,4,9.5,4
		C9.224,4,9,4.224,9,4.5V5H0.5C0.224,5,0,5.224,0,5.5S0.224,6,0.5,6H9v1H8.5C8.224,7,8,7.224,8,7.5V9c-3.171,0-7,2.676-7,6
		c0,2.201,0.707,3.654,1.874,3.943l-0.265,1.059H1V20c0-0.276-0.225-0.5-0.5-0.5C0.224,19.5,0,19.724,0,20c0,0.551,0.448,1,1,1h11.5
		c0.275,0,0.5-0.224,0.5-0.5S12.775,20,12.5,20h-1.608l-0.298-1.205c2.453-1.17,3.183-4.727,3.356-5.885l5.843-1.32l-0.477,0.825
		c-0.138,0.239-0.057,0.545,0.184,0.683c0.232,0.137,0.542,0.059,0.683-0.183L21.288,11H23.5c0.275,0,0.5-0.224,0.5-0.5
		S23.775,10,23.5,10z M6.5,11.5C6.775,11.5,7,11.724,7,12v2.5C7,14.776,6.775,15,6.5,15H4c-0.276,0-0.5-0.224-0.5-0.5
		C3.5,12.57,4.57,11.5,6.5,11.5z M3.64,20l0.25-1h5.725l0.247,1H3.64z M11.5,13h-1c-0.276,0-0.5-0.224-0.5-0.5s0.224-0.5,0.5-0.5h1
		c0.275,0,0.5,0.224,0.5,0.5S11.775,13,11.5,13z"/>
</g>
<g id="invisible_shape">
	<rect fill="none" width="24" height="24"/>
</g>
</svg>
