<?xml version="1.0" encoding="utf-8"?>
<!-- Generator: Adobe Illustrator 19.2.0, SVG Export Plug-In . SVG Version: 6.00 Build 0)  -->
<svg version="1.1" xmlns="http://www.w3.org/2000/svg" xmlns:xlink="http://www.w3.org/1999/xlink" x="0px" y="0px" width="24px"
	 height="24px" viewBox="0 0 24 24" enable-background="new 0 0 24 24" xml:space="preserve">
<g id="Filled_Icons">
	<g>
		<path d="M23.021,8h-1.958C21.04,7.996,21.021,8.008,21,8.009V5.996c0-0.552-0.448-1-1-1c-0.552,0-1,0.448-1,1v2.008
			C18.993,8.004,18.986,8,18.979,8h-1.938c-0.553,0-1,0.444-1,0.996c0,0.553,0.447,1,1,1h1.938c0.008,0,0.014-0.004,0.021-0.004
			L19,9.995v1.97c0,0.553,0.448,1,1,1c0.552,0,1-0.447,1-1V9.996c0-0.005-0.003-0.009-0.003-0.013
			c0.022,0.001,0.042,0.013,0.065,0.013h1.958c0.552,0,1-0.447,1-1C24.021,8.444,23.573,7.996,23.021,8z"/>
		<path d="M17.042,10.996c-1.103,0-2-0.898-2-2c0-1.09,0.877-1.975,1.961-1.996H11V4h6.479c0.276,0,0.5-0.224,0.5-0.5
			S17.756,3,17.479,3H11V2c0-0.276-0.224-0.5-0.5-0.5S10,1.724,10,2v1H3.5C3.224,3,3,3.224,3,3.5S3.224,4,3.5,4H10v3H8.5
			C3.813,7,0,10.814,0,15.5C0,16.879,1.122,18,2.5,18h1.379l-1.231,3H1.5C1.224,21,1,20.776,1,20.5S0.776,20,0.5,20S0,20.224,0,20.5
			C0,21.327,0.673,22,1.5,22h11c0.827,0,1.5-0.673,1.5-1.5c0-0.276-0.224-0.5-0.5-0.5S13,20.224,13,20.5S12.776,21,12.5,21h-1.148
			l-1.255-3.055c2.007-0.267,2.314-1.844,2.549-3.147c0.289-1.603,0.538-2.986,3.03-3.298c0.171-0.021,1.75,0.143,1.823,0
			l0.063-0.504H17.042z M2.5,14c-0.36,0-0.595-0.363-0.464-0.688c0.783-1.935,2.342-2.993,4.276-3.775C6.644,9.403,7,9.648,7,10v3.5
			C7,13.776,6.776,14,6.5,14H2.5z M10.271,21H3.728l1.232-3h4.08L10.271,21z"/>
		<path d="M23.021,8c0,0-1.999,0.008-2.021,0.009V5.996c0-0.552-0.448-1-1-1c-0.552,0-1,0.448-1,1v2.008L17.042,8
			c-0.553,0-1,0.444-1,0.996c0,0.553,0.447,1,1,1h1.938c0.008,0,0.014-0.004,0.021-0.004L19,9.995v1.97c0,0.553,0.448,1,1,1
			c0.552,0,1-0.447,1-1V9.996c0-0.005-0.003-0.009-0.003-0.013c0.022,0.001,0.042,0.013,0.065,0.013h1.958c0.552,0,1-0.447,1-1
			C24.021,8.444,23.573,7.996,23.021,8z"/>
	</g>
</g>
<g id="invisible_shape">
	<rect fill="none" width="24" height="24"/>
</g>
</svg>
