<?xml version="1.0" encoding="utf-8"?>
<!-- Generator: Adobe Illustrator 19.2.0, SVG Export Plug-In . SVG Version: 6.00 Build 0)  -->
<svg version="1.1" xmlns="http://www.w3.org/2000/svg" xmlns:xlink="http://www.w3.org/1999/xlink" x="0px" y="0px" width="24px"
	 height="24px" viewBox="0 0 24 24" enable-background="new 0 0 24 24" xml:space="preserve">
<g id="Filled_Icons">
	<g>
		<path d="M23,12.006c0-6.009-4.941-11-11-11c-6.065,0-11,4.936-11,11c0,2.244,0.676,4.406,1.956,6.255
			c0.064,0.094,0.16,0.162,0.27,0.194l12.671,3.723c0.115,0.033,0.232,0.024,0.333-0.017C20.291,20.47,23,16.491,23,12.006z
			 M22,12.006c0,2.267-0.778,4.386-2.102,6.099C13.998,16.947,7.5,13.826,7.5,8.506C7.5,8.229,7.724,8.006,8,8h13.159
			C21.697,9.232,22,10.584,22,12.006z"/>
		<circle cx="12" cy="11.006" r="1"/>
	</g>
</g>
<g id="invisible_shape">
	<rect fill="none" width="24" height="24"/>
</g>
</svg>
