<?xml version="1.0" encoding="utf-8"?>
<!-- Generator: Adobe Illustrator 19.2.0, SVG Export Plug-In . SVG Version: 6.00 Build 0)  -->
<svg version="1.1" xmlns="http://www.w3.org/2000/svg" xmlns:xlink="http://www.w3.org/1999/xlink" x="0px" y="0px" width="24px"
	 height="24px" viewBox="0 0 24 24" enable-background="new 0 0 24 24" xml:space="preserve">
<g id="Filled_Icons">
	<g>
		<path d="M18.496,19c-1.378,0-2.5,1.121-2.5,2.5c0,1.315,1.073,2.5,2.5,2.5c1.378,0,2.5-1.121,2.5-2.5S19.875,19,18.496,19z"/>
		<path d="M23.496,13h-8.5V8.983c1.347-0.041,2.33-0.227,3.004-0.446V7h-7v1.54c0.673,0.216,1.658,0.402,3,0.443V13h-3.504
			c-0.827,0-1.5,0.673-1.5,1.5s0.673,1.5,1.5,1.5h0.75c1.155,0,2.099,0.879,2.225,2H7.735c-0.807-0.976-1.945-1.665-3.239-1.904
			v-2.09l3.269-2.084C8.186,11.652,7.994,11,7.496,11h-6.5c-0.276,0-0.5,0.224-0.5,0.5c0,1.388,1.092,3,2.5,3
			c0.169,0,0.335-0.032,0.5-0.066V16c-1.201,0-2.342,0.381-3.3,1.101c-0.221,0.165-0.265,0.479-0.1,0.7
			c0.167,0.22,0.48,0.267,0.7,0.099C1.58,17.312,2.514,17,3.496,17c2.311,0,4.197,1.756,4.449,4h-2c-0.232-1.14-1.242-2-2.449-2
			c-1.378,0-2.5,1.121-2.5,2.5s1.122,2.5,2.5,2.5c1.207,0,2.217-0.86,2.449-2h9.102c-0.323-2.187,1.386-4,3.449-4
			c2.062,0,3.773,1.813,3.449,4h1.551c0.276,0,0.5-0.224,0.5-0.5v-8C23.996,13.224,23.772,13,23.496,13z M13.5,21H8.971
			c-0.065-0.715-0.269-1.39-0.582-2H13.5V21z"/>
		<path d="M12.703,1.662C9.875,2.123,7.361,3.662,5.647,6h4.425C10.321,4.084,11.28,2.525,12.703,1.662z"/>
		<path d="M11.074,6h6.851c-0.307-2.096-1.582-3.611-3.431-3.99C12.65,2.388,11.38,3.904,11.074,6z"/>
		<path d="M18.928,6h4.419c-1.714-2.338-4.227-3.877-7.055-4.338C17.717,2.526,18.678,4.084,18.928,6z"/>
		<path d="M19,8.262C19.529,8.746,20.274,9,21.243,9c0.004,0,0.008,0,0.012,0c1.262,0,2.16-0.414,2.67-1.231
			c0.06-0.096,0.085-0.208,0.073-0.32L23.946,7H19V8.262z"/>
		<path d="M7.743,9c0.004,0,0.008,0,0.012,0C8.725,9,9.471,8.746,10,8.262V7H5.048L4.999,7.445C4.987,7.557,5.012,7.669,5.071,7.764
			C5.581,8.584,6.48,9,7.743,9z"/>
	</g>
</g>
<g id="invisible_shape">
	<rect fill="none" width="24" height="24"/>
</g>
</svg>
