<?xml version="1.0" encoding="utf-8"?>
<!-- Generator: Adobe Illustrator 19.2.0, SVG Export Plug-In . SVG Version: 6.00 Build 0)  -->
<svg version="1.1" xmlns="http://www.w3.org/2000/svg" xmlns:xlink="http://www.w3.org/1999/xlink" x="0px" y="0px" width="24px"
	 height="24px" viewBox="0 0 24 24" enable-background="new 0 0 24 24" xml:space="preserve">
<g id="Filled_Icons">
	<g>
		<path d="M10.5,22h-8C1.658,22,1,22.299,1,23s0.658,1.006,1.5,1h8c0.841,0.006,1.5-0.299,1.5-1S11.341,22,10.5,22z"/>
		<path d="M23.5,4H22v5h1.5C23.776,9,24,8.776,24,8.5v-4C24,4.224,23.776,4,23.5,4z"/>
		<path d="M21,5h-4.5C16.224,5,16,5.224,16,5.5v2C16,7.776,16.224,8,16.5,8H18v4.023c0,4.411-3.589,8-8,8V7.528
			c0-0.276-0.224-0.5-0.5-0.5H7V4h5.5C12.776,4.006,13,3.782,13,3.506v-3c0-0.276-0.224-0.5-0.5-0.5h-12c-0.276,0-0.5,0.224-0.5,0.5
			v3C0,3.782,0.224,4.006,0.5,4H6v3.028H3.5c-0.276,0-0.5,0.224-0.5,0.5V21h7.443C15.199,20.767,19,16.836,19,12.023V8h2V5z"/>
	</g>
</g>
<g id="invisible_shape">
	<rect fill="none" width="24" height="24"/>
</g>
</svg>
