<?xml version="1.0" encoding="utf-8"?>
<!-- Generator: Adobe Illustrator 19.2.0, SVG Export Plug-In . SVG Version: 6.00 Build 0)  -->
<svg version="1.1" xmlns="http://www.w3.org/2000/svg" xmlns:xlink="http://www.w3.org/1999/xlink" x="0px" y="0px" width="24px"
	 height="24px" viewBox="0 0 24 24" enable-background="new 0 0 24 24" xml:space="preserve">
<g id="Filled_Icons">
	<g>
		<path d="M16,18v2.5h3V18h-1v0.5c0,0.276-0.224,0.5-0.5,0.5S17,18.776,17,18.5V18H16z"/>
		<path d="M5,17.999v2.5h3v-2.5H7V18.5C7,18.776,6.776,19,6.5,19S6,18.776,6,18.5v-0.501H5z"/>
		<path d="M22.994,16.77l-7.996-8.059L14.5,3.25c-0.5-2-2.5-3-2.5-3s-2,1-2.5,3L9.002,8.711L1,16.762
			C0.683,17.079,0.486,17.517,0.486,18c0,0.967,0.783,2,1.75,2H4v-2.501c0-0.276,0.224-0.5,0.5-0.5h4c0.276,0,0.5,0.224,0.5,0.5V20
			h1.25c0.689,0,1.25,0.56,1.25,1.25c0,0.276,0.224,0.5,0.5,0.5s0.5-0.224,0.5-0.5c0-0.69,0.561-1.25,1.25-1.25H15v-2.5
			c0-0.276,0.224-0.5,0.5-0.5h4c0.276,0,0.5,0.224,0.5,0.5V20h1.75c0.967,0,1.75-1.033,1.75-2
			C23.5,17.521,23.307,17.086,22.994,16.77z M9,14.5C9,14.776,8.776,15,8.5,15S8,14.776,8,14.5V12c0-0.276,0.224-0.5,0.5-0.5
			S9,11.724,9,12V14.5z M13,8.25c0,0.553-0.447,1-1,1s-1-0.447-1-1v-4c0-0.552,0.447-1,1-1s1,0.448,1,1V8.25z M16,14.5
			c0,0.276-0.224,0.5-0.5,0.5S15,14.776,15,14.5V12c0-0.276,0.224-0.5,0.5-0.5S16,11.724,16,12V14.5z"/>
	</g>
	<g>
		<path d="M6.5,23.5C6.224,23.5,6,23.276,6,23v-1.5C6,21.224,6.224,21,6.5,21S7,21.224,7,21.5V23C7,23.276,6.776,23.5,6.5,23.5z"/>
	</g>
	<g>
		<path d="M17.5,23.5c-0.276,0-0.5-0.224-0.5-0.5v-1.5c0-0.276,0.224-0.5,0.5-0.5s0.5,0.224,0.5,0.5V23
			C18,23.276,17.776,23.5,17.5,23.5z"/>
	</g>
	<g>
		<path d="M4.5,23C4.224,23,4,22.776,4,22.5v-1C4,21.224,4.224,21,4.5,21S5,21.224,5,21.5v1C5,22.776,4.776,23,4.5,23z"/>
	</g>
	<g>
		<path d="M8.5,23C8.224,23,8,22.776,8,22.5v-1C8,21.224,8.224,21,8.5,21S9,21.224,9,21.5v1C9,22.776,8.776,23,8.5,23z"/>
	</g>
	<g>
		<path d="M15.5,23c-0.276,0-0.5-0.224-0.5-0.5v-1c0-0.276,0.224-0.5,0.5-0.5s0.5,0.224,0.5,0.5v1C16,22.776,15.776,23,15.5,23z"/>
	</g>
	<g>
		<path d="M19.5,23c-0.276,0-0.5-0.224-0.5-0.5v-1c0-0.276,0.224-0.5,0.5-0.5s0.5,0.224,0.5,0.5v1C20,22.776,19.776,23,19.5,23z"/>
	</g>
</g>
<g id="invisible_shape">
	<rect fill="none" width="24" height="24"/>
</g>
</svg>
