<?xml version="1.0" encoding="utf-8"?>
<!-- Generator: Adobe Illustrator 19.2.0, SVG Export Plug-In . SVG Version: 6.00 Build 0)  -->
<svg version="1.1" xmlns="http://www.w3.org/2000/svg" xmlns:xlink="http://www.w3.org/1999/xlink" x="0px" y="0px" width="24px"
	 height="24px" viewBox="0 0 24 24" enable-background="new 0 0 24 24" xml:space="preserve">
<g id="Filled_Icons">
	<path d="M13,9.025V5h4.75C18.44,5,19,4.69,19,4s-0.56-1-1.25-1H14c-1.458,0-2.825-0.89-4.003-1.572C9.997,1.428,9.5,1,8,1
		C7.5,1,6,1,6,1c0,2.209,1.791,4,4,4h2v4.025C8.092,9.283,5,12.526,5,16.5c0,4.143,3.357,7.5,7.5,7.5c4.142,0,7.5-3.357,7.5-7.5
		C20,12.526,16.907,9.283,13,9.025z M17.975,16H14c-0.031,0-0.058,0.012-0.086,0.018c-0.019-0.056-0.039-0.109-0.064-0.161
		c0.001-0.001,0.003-0.002,0.004-0.003l2.872-2.872C17.42,13.814,17.872,14.857,17.975,16z M11.854,17.854
		c0.001-0.001,0.001-0.003,0.003-0.004c0.052,0.025,0.106,0.045,0.161,0.065C12.012,17.942,12,17.969,12,18v3.975
		c-1.143-0.104-2.185-0.555-3.019-1.249L11.854,17.854z M12.982,17.914c0.056-0.02,0.109-0.039,0.161-0.065
		c0.001,0.001,0.002,0.003,0.003,0.004l2.872,2.872c-0.834,0.694-1.876,1.146-3.019,1.249V18C13,17.969,12.988,17.942,12.982,17.914
		z M16.019,12.274l-2.872,2.872c-0.001,0.001-0.001,0.003-0.003,0.004c-0.052-0.025-0.106-0.045-0.161-0.064
		C12.988,15.058,13,15.031,13,15v-3.975C14.143,11.129,15.185,11.58,16.019,12.274z M12.018,15.086
		c-0.056,0.02-0.109,0.039-0.161,0.064c-0.001-0.001-0.002-0.003-0.003-0.004l-2.872-2.872c0.834-0.694,1.876-1.146,3.019-1.249V15
		C12,15.031,12.012,15.058,12.018,15.086z M8.274,12.981l2.872,2.872c0.001,0.001,0.003,0.002,0.004,0.003
		c-0.025,0.052-0.045,0.106-0.064,0.161C11.058,16.012,11.031,16,11,16H7.025C7.128,14.857,7.58,13.814,8.274,12.981z M7.025,17H11
		c0.031,0,0.057-0.012,0.086-0.018c0.019,0.056,0.039,0.109,0.064,0.161c-0.001,0.001-0.003,0.002-0.004,0.003l-2.872,2.872
		C7.58,19.185,7.128,18.143,7.025,17z M16.726,20.019l-2.872-2.872c-0.001-0.001-0.003-0.002-0.004-0.003
		c0.025-0.052,0.045-0.106,0.064-0.161C13.942,16.988,13.969,17,14,17h3.975C17.872,18.143,17.42,19.185,16.726,20.019z"/>
</g>
<g id="invisible_shape">
	<rect fill="none" width="24" height="24"/>
</g>
</svg>
