<?xml version="1.0" encoding="utf-8"?>
<!-- Generator: Adobe Illustrator 19.2.0, SVG Export Plug-In . SVG Version: 6.00 Build 0)  -->
<svg version="1.1" xmlns="http://www.w3.org/2000/svg" xmlns:xlink="http://www.w3.org/1999/xlink" x="0px" y="0px" width="24px"
	 height="24px" viewBox="0 0 24 24" enable-background="new 0 0 24 24" xml:space="preserve">
<g id="Filled_Icons">
	<g>
		<path d="M11,0C8.243,0,6,2.243,6,5h10C16,2.243,13.757,0,11,0z"/>
		<path d="M10.485,9.74L11,11.79l0.515-2.05c0.03-0.118,0.102-0.223,0.203-0.291l4.542-3.095C16.173,6.306,16.092,6.039,16,6H6
			C5.908,6.039,5.827,6.306,5.74,6.354l4.542,3.095C10.383,9.519,10.455,9.622,10.485,9.74z"/>
		<path d="M9.561,10.169L4.963,7.035C4.752,7.328,4.602,7.654,4.531,8h-3c-0.276,0-0.5,0.224-0.5,0.5S1.255,9,1.531,9h2.996
			C4.529,9.008,4.528,9.016,4.53,9.023l0.043,0.198l5.642,3.546L9.561,10.169z"/>
		<path d="M20.469,8h-3c-0.071-0.346-0.221-0.671-0.432-0.964l-4.598,3.133L11.79,12.75l5.639-3.529l0.042-0.196
			c0.002-0.008,0-0.017,0.003-0.024h2.996c0.276,0,0.5-0.224,0.5-0.5S20.745,8,20.469,8z"/>
		<path d="M4.877,10.642l1.82,8.496c0.157,0.731,0.657,1.32,1.303,1.628V18c0-1.654,1.346-3,3-3s3,1.346,3,3v2.766
			c0.646-0.308,1.146-0.896,1.303-1.628l1.841-8.592L11,14.356L4.877,10.642z"/>
		<path d="M11,16c-1.103,0-2,0.897-2,2v4c0,1.103,0.897,2,2,2s2-0.897,2-2v-4C13,16.897,12.103,16,11,16z"/>
	</g>
</g>
<g id="invisible_shape">
	<rect fill="none" width="24" height="24"/>
</g>
</svg>
