<?xml version="1.0" encoding="utf-8"?>
<!-- Generator: Adobe Illustrator 19.2.0, SVG Export Plug-In . SVG Version: 6.00 Build 0)  -->
<svg version="1.1" xmlns="http://www.w3.org/2000/svg" xmlns:xlink="http://www.w3.org/1999/xlink" x="0px" y="0px" width="24px"
	 height="24px" viewBox="0 0 24 24" enable-background="new 0 0 24 24" xml:space="preserve">
<g id="Filled_Icons">
	<g>
		<path d="M2.5,4H4v5h16V4h1.5C21.776,4,22,3.776,22,3.5S21.776,3,21.5,3h-19C2.224,3,2,3.224,2,3.5S2.224,4,2.5,4z"/>
		<path d="M19,2V0.506c0-0.276-0.224-0.5-0.5-0.5h-4c-0.276,0-0.5,0.224-0.5,0.5V2H19z"/>
		<path d="M2.5,11H4v5h16v-5h1.5c0.276,0,0.5-0.224,0.5-0.5S21.776,10,21.5,10h-19C2.224,10,2,10.224,2,10.5S2.224,11,2.5,11z"/>
		<path d="M21.5,23h-19C2.224,23.006,2,23.229,2,23.506c0,0.276,0.224,0.5,0.5,0.494h19c0.276,0.006,0.5-0.218,0.5-0.494
			C22,23.229,21.776,23.006,21.5,23z"/>
		<path d="M2.5,18H4v4h16v-4h1.5c0.276,0,0.5-0.224,0.5-0.5S21.776,17,21.5,17h-19C2.224,17,2,17.224,2,17.5S2.224,18,2.5,18z"/>
	</g>
</g>
<g id="invisible_shape">
	<rect fill="none" width="24" height="24"/>
</g>
</svg>
