<?xml version="1.0" encoding="utf-8"?>
<!-- Generator: Adobe Illustrator 19.2.0, SVG Export Plug-In . SVG Version: 6.00 Build 0)  -->
<svg version="1.1" xmlns="http://www.w3.org/2000/svg" xmlns:xlink="http://www.w3.org/1999/xlink" x="0px" y="0px" width="24px"
	 height="24px" viewBox="0 0 24 24" enable-background="new 0 0 24 24" xml:space="preserve">
<g id="Filled_Icons">
	<g>
		<g>
			<path d="M15,9H8C7.724,9,7.5,8.776,7.5,8.5S7.724,8,8,8h7c0.276,0,0.5,0.224,0.5,0.5S15.276,9,15,9z"/>
		</g>
		<g>
			<path d="M13.538,3.797c-0.225-0.16-0.276-0.473-0.116-0.697c1.022-1.428,2.896-2.023,4.557-1.451
				c0.261,0.09,0.399,0.375,0.31,0.636c-0.091,0.261-0.374,0.398-0.636,0.309c-1.249-0.432-2.652,0.018-3.418,1.088
				C14.076,3.905,13.764,3.959,13.538,3.797z"/>
		</g>
		<g>
			<path d="M8.764,3.682c-0.766-1.07-2.172-1.52-3.417-1.088C5.085,2.683,4.801,2.545,4.711,2.284
				c-0.09-0.261,0.048-0.546,0.31-0.636C6.681,1.076,8.555,1.671,9.577,3.1c0.161,0.225,0.109,0.537-0.115,0.697
				C9.233,3.96,8.922,3.903,8.764,3.682z"/>
		</g>
		<g>
			<path d="M11.5,3.506c-0.276,0-0.5-0.224-0.5-0.5v-2.5c0-0.276,0.224-0.5,0.5-0.5s0.5,0.224,0.5,0.5v2.5
				C12,3.282,11.776,3.506,11.5,3.506z"/>
		</g>
		<g>
			<polygon points="13.945,10 9.028,10 11.491,11.455 			"/>
			<polygon points="8.632,10.592 6.862,14.844 10.646,12.074 			"/>
			<path d="M6.212,16.404L3.59,22.701l6.891-3.879C10.358,18.754,6.324,16.488,6.212,16.404z"/>
			<polygon points="16.137,14.875 14.344,10.606 12.335,12.076 			"/>
			<path d="M11.964,4.82c-0.153-0.381-0.777-0.381-0.929,0L10,7h3L11.964,4.82z"/>
			<polygon points="7.207,15.83 11.499,18.248 15.768,15.845 11.489,12.695 			"/>
			<path d="M19.429,22.715l-2.575-6.132c-0.137-0.045-0.077,0.005-0.203-0.089l-4.133,2.328L19.429,22.715z"/>
			<path d="M21,23.006h-3.092l-6.409-3.61l-6.412,3.61H2c-0.276,0-0.5,0.224-0.5,0.5c0,0.276,0.224,0.5,0.5,0.494h19
				c0.276,0.006,0.5-0.218,0.5-0.494C21.5,23.229,21.276,23.006,21,23.006z"/>
		</g>
	</g>
</g>
<g id="invisible_shape">
	<rect fill="none" width="24" height="24"/>
</g>
</svg>
