<?xml version="1.0" encoding="utf-8"?>
<!-- Generator: Adobe Illustrator 19.2.0, SVG Export Plug-In . SVG Version: 6.00 Build 0)  -->
<svg version="1.1" xmlns="http://www.w3.org/2000/svg" xmlns:xlink="http://www.w3.org/1999/xlink" x="0px" y="0px" width="24px"
	 height="24px" viewBox="0 0 24 24" enable-background="new 0 0 24 24" xml:space="preserve">
<g id="Filled_Icons">
	<g>
		<path d="M23.832,9.873c0.207-0.184,0.225-0.5,0.041-0.705c-0.184-0.207-0.5-0.225-0.705-0.041C21.985,10.18,20,12.084,20,13v1.5v3
			v3c0,0.826-0.673,1.5-1.5,1.5S17,21.326,17,20.5V7c0-1.103-0.897-2-2-2h-1V1.5C14,1.224,13.777,1,13.5,1h-13
			C0.224,1,0,1.224,0,1.5V9h14V6h1c0.551,0,1,0.449,1,1v13.5c0,1.378,1.122,2.5,2.5,2.5c1.378,0,2.5-1.122,2.5-2.5v-2.691
			l1.724-0.861C22.893,16.862,23,16.69,23,16.5v-2c0-0.276-0.223-0.5-0.5-0.5H21l-0.001-0.986
			C21.065,12.586,22.517,11.045,23.832,9.873z M12,7.5C12,7.775,11.777,8,11.5,8h-9C2.224,8,2,7.775,2,7.5v-4C2,3.224,2.224,3,2.5,3
			h9C11.777,3,12,3.224,12,3.5V7.5z"/>
		<path d="M0,22.5C0,22.775,0.224,23,0.5,23h13c0.277,0,0.5-0.225,0.5-0.5V10H0V22.5z M8,13.5C8,13.224,8.224,13,8.5,13h2
			c0.277,0,0.5,0.224,0.5,0.5v4c0,0.275-0.223,0.5-0.5,0.5h-2C8.224,18,8,17.775,8,17.5V13.5z M8.5,19h2c0.277,0,0.5,0.224,0.5,0.5
			c0,0.275-0.223,0.5-0.5,0.5h-2C8.224,20,8,19.775,8,19.5C8,19.224,8.224,19,8.5,19z"/>
	</g>
</g>
<g id="invisible_shape">
	<rect fill="none" width="24" height="24"/>
</g>
</svg>
