<?xml version="1.0" encoding="utf-8"?>
<!-- Generator: Adobe Illustrator 19.2.0, SVG Export Plug-In . SVG Version: 6.00 Build 0)  -->
<svg version="1.1" xmlns="http://www.w3.org/2000/svg" xmlns:xlink="http://www.w3.org/1999/xlink" x="0px" y="0px" width="24px"
	 height="24px" viewBox="0 0 24 24" enable-background="new 0 0 24 24" xml:space="preserve">
<g id="Filled_Icons">
	<g>
		<path d="M3.91,10.947c-0.486-0.671-0.336-1.609,0.336-2.095c0.672-0.484,1.61-0.333,2.094,0.337l3.577,4.946
			c0.028-0.003,0.055-0.01,0.083-0.013v-7.85C7.859,6.438,4.316,6.882,0.237,9.402c-0.276,0.171-0.319,0.553-0.091,0.779
			l5.032,5.031c0.146,0.146,0.369,0.19,0.565,0.1c0.333-0.156,0.672-0.297,1.016-0.424L3.91,10.947z"/>
		<path d="M11.5,4.006c-0.276,0-0.5-0.224-0.5-0.5v-1c0-0.276,0.224-0.5,0.5-0.5S12,2.23,12,2.506v1
			C12,3.782,11.776,4.006,11.5,4.006z"/>
		<path d="M11.5,7.006c-0.276,0-0.5-0.224-0.5-0.5v-1c0-0.276,0.224-0.5,0.5-0.5s0.5,0.224,0.5,0.5v1
			C12,6.782,11.776,7.006,11.5,7.006z"/>
		<path d="M11.5,10.006c-0.276,0-0.5-0.224-0.5-0.5v-1c0-0.276,0.224-0.5,0.5-0.5s0.5,0.224,0.5,0.5v1
			C12,9.782,11.776,10.006,11.5,10.006z"/>
		<path d="M11.5,13.006c-0.276,0-0.5-0.224-0.5-0.5v-1c0-0.276,0.224-0.5,0.5-0.5s0.5,0.224,0.5,0.5v1
			C12,12.782,11.776,13.006,11.5,13.006z"/>
		<path d="M11.5,16.006c-0.276,0-0.5-0.224-0.5-0.5v-1c0-0.276,0.224-0.5,0.5-0.5s0.5,0.224,0.5,0.5v1
			C12,15.782,11.776,16.006,11.5,16.006z"/>
		<g>
			<path d="M22.782,9.403c-2.932-1.811-6.299-2.896-9.737-3.14C13.029,6.262,13.016,6.269,13,6.269v7.852
				c1.483,0.161,2.921,0.561,4.274,1.192c0.2,0.092,0.422,0.044,0.565-0.1l5.033-5.031C23.1,9.955,23.057,9.574,22.782,9.403z"/>
		</g>
		<g>
			<path d="M22.782,9.403C19.461,7.352,15.594,6.375,13,6.269v7.852c1.483,0.161,2.921,0.561,4.274,1.192
				c0.2,0.092,0.422,0.044,0.565-0.1l5.033-5.031C23.1,9.955,23.057,9.574,22.782,9.403z"/>
		</g>
		<path d="M11.51,17.006c-0.235,0-0.459,0.043-0.675,0.104L5.53,9.775C5.368,9.553,5.055,9.502,4.832,9.663
			c-0.224,0.162-0.274,0.475-0.112,0.698l5.219,7.216c-0.562,0.459-0.929,1.148-0.929,1.929c0,1.379,1.121,2.5,2.5,2.5
			c1.378,0,2.5-1.121,2.5-2.5C14.01,18.127,12.888,17.006,11.51,17.006z"/>
	</g>
</g>
<g id="invisible_shape">
	<rect fill="none" width="24" height="24"/>
</g>
</svg>
