<?xml version="1.0" encoding="utf-8"?>
<!-- Generator: Adobe Illustrator 19.2.0, SVG Export Plug-In . SVG Version: 6.00 Build 0)  -->
<svg version="1.1" xmlns="http://www.w3.org/2000/svg" xmlns:xlink="http://www.w3.org/1999/xlink" x="0px" y="0px" width="24px"
	 height="24px" viewBox="0 0 24 24" enable-background="new 0 0 24 24" xml:space="preserve">
<g id="Filled_Icons">
	<g>
		<path d="M7,5V3.5C7,3.224,6.776,3,6.5,3h-4C2.224,3,2,3.224,2,3.5V5H7z"/>
		<path d="M19.5,1h-9C9.122,1,8,2.121,8,3.5V6H1.5C1.224,6,1,6.224,1,6.5v16C1,23.327,1.673,24,2.5,24h18c0.827,0,1.5-0.673,1.5-1.5
			v-19C22,2.121,20.878,1,19.5,1z M17.156,19.027c0.39,0.391,0.39,1.024,0,1.414c-0.392,0.391-1.024,0.391-1.415,0L11.5,16.198
			l-4.242,4.243c-0.391,0.391-1.023,0.391-1.414,0c-0.391-0.391-0.391-1.023,0-1.414l4.242-4.243l-4.242-4.243
			c-0.391-0.391-0.391-1.023,0-1.414c0.391-0.391,1.023-0.391,1.414,0L11.5,13.37l4.241-4.243c0.391-0.391,1.023-0.391,1.415,0
			c0.39,0.391,0.39,1.023,0,1.414l-4.242,4.243L17.156,19.027z M18.5,6h-7C10.673,6,10,5.327,10,4.5S10.673,3,11.5,3h7
			C19.327,3,20,3.673,20,4.5S19.327,6,18.5,6z"/>
	</g>
</g>
<g id="invisible_shape">
	<rect fill="none" width="24" height="24"/>
</g>
</svg>
