<?xml version="1.0" encoding="utf-8"?>
<!-- Generator: Adobe Illustrator 19.2.0, SVG Export Plug-In . SVG Version: 6.00 Build 0)  -->
<svg version="1.1" xmlns="http://www.w3.org/2000/svg" xmlns:xlink="http://www.w3.org/1999/xlink" x="0px" y="0px" width="24px"
	 height="24px" viewBox="0 0 24 24" enable-background="new 0 0 24 24" xml:space="preserve">
<g id="Filled_Icons">
	<g>
		<path d="M17,9.506c0-4.687-3.814-8.5-8.5-8.5c-4.688,0-8.5,3.813-8.5,8.5c0,4.686,3.813,8.5,8.5,8.5H9v-3H8.5
			c-0.572,0-1.148-0.086-1.666-0.247c-0.264-0.083-0.411-0.363-0.329-0.627c0.082-0.264,0.362-0.412,0.626-0.328
			c0.417,0.131,0.903,0.202,1.368,0.202H9v-3H8.5c-0.829,0-1.504-0.673-1.504-1.5c0-0.827,0.675-1.5,1.504-1.5
			c0.827,0,1.5,0.673,1.5,1.5V24h7V9.506z M4.222,12.143c-0.249,0.122-0.549,0.016-0.668-0.229
			c-0.731-1.495-0.741-3.261-0.018-4.776c0.119-0.249,0.417-0.356,0.667-0.235c0.249,0.119,0.355,0.417,0.236,0.667
			c-0.587,1.227-0.586,2.673,0.015,3.906C4.573,11.723,4.47,12.021,4.222,12.143z M11.111,5.211
			c-0.118,0.249-0.418,0.354-0.666,0.235C9.21,4.854,7.739,4.862,6.509,5.469C6.258,5.592,5.961,5.486,5.84,5.242
			c-0.123-0.248-0.02-0.548,0.227-0.67c1.506-0.742,3.301-0.751,4.811-0.028C11.126,4.663,11.231,4.962,11.111,5.211z M14,22.506
			c0,0.276-0.224,0.5-0.5,0.5s-0.5-0.224-0.5-0.5v-5c0-0.276,0.224-0.5,0.5-0.5s0.5,0.224,0.5,0.5V22.506z M14,13.537
			c0,0.276-0.224,0.5-0.5,0.5s-0.5-0.224-0.5-0.5v-5c0-0.276,0.224-0.5,0.5-0.5s0.5,0.224,0.5,0.5V13.537z"/>
		<path d="M18,11v3h4.5c0.276,0,0.5,0.224,0.5,0.5S22.776,15,22.5,15H18v2.994h6V11H18z"/>
	</g>
</g>
<g id="invisible_shape">
	<rect fill="none" width="24" height="24"/>
</g>
</svg>
