<?xml version="1.0" encoding="utf-8"?>
<!-- Generator: Adobe Illustrator 19.2.0, SVG Export Plug-In . SVG Version: 6.00 Build 0)  -->
<svg version="1.1" xmlns="http://www.w3.org/2000/svg" xmlns:xlink="http://www.w3.org/1999/xlink" x="0px" y="0px" width="24px"
	 height="24px" viewBox="0 0 24 24" enable-background="new 0 0 24 24" xml:space="preserve">
<g id="Filled_Icons">
	<g>
		<path d="M23.993,21.519c-0.001-0.306-0.279-0.552-0.604-0.487c-0.186,0.04-0.377,0.06-0.568,0.06c-1.87,0-3.417-1.886-3.432-1.904
			c-0.232-0.286-0.653-0.226-0.821,0.061C18.558,19.266,17.524,21,15.5,21c-2.091,0-3.021-1.666-3.059-1.735
			c-0.174-0.326-0.709-0.326-0.883,0C11.549,19.282,10.61,21,8.5,21c-2.007,0-3.026-1.682-3.069-1.753
			c-0.183-0.308-0.605-0.322-0.819-0.064c-0.015,0.02-1.565,1.888-3.435,1.888c-0.193,0-0.386-0.021-0.573-0.061
			C0.288,20.947,0,21.185,0,21.5v2C0,23.776,0.224,24,0.5,24h23c0.276,0,0.501-0.226,0.5-0.502L23.993,21.519z"/>
		<g>
			<path d="M0.812,20.033c1.239,0.255,2.639-1.016,3.029-1.485c0.644-0.773,1.918-0.726,2.455,0.197C6.319,18.782,7.085,20,8.5,20
				c1.493,0,2.169-1.193,2.176-1.205c0.069-0.13,0.158-0.244,0.259-0.346c-1.634-0.268-2.954-1.682-2.931-3.5
				c-1.673-0.246-2.534-1.637-2.573-1.702c-0.183-0.308-0.606-0.321-0.819-0.063c-0.015,0.019-1.565,1.888-3.435,1.888
				c-0.193,0-0.386-0.02-0.573-0.061C0.283,14.949,0,15.186,0,15.5v4.595C0.258,20.002,0.537,19.973,0.812,20.033z"/>
			<path d="M14.996,14.95c0.029,1.489-0.889,2.769-2.185,3.296c0.211,0.136,0.391,0.319,0.513,0.549C13.343,18.826,14.03,20,15.5,20
				c1.433,0,2.197-1.243,2.204-1.255c0.54-0.927,1.82-0.985,2.465-0.185c0.382,0.466,1.78,1.75,3.012,1.493
				c0.277-0.06,0.559-0.03,0.819,0.065V15.5c0-0.314-0.283-0.55-0.604-0.489c-0.188,0.04-0.38,0.061-0.573,0.061
				c-1.87,0-3.42-1.868-3.435-1.888c-0.237-0.288-0.656-0.217-0.82,0.064C18.558,13.266,17.524,15,15.5,15
				C15.319,15,15.159,14.973,14.996,14.95z"/>
		</g>
		<path d="M16.5,6C16.776,6,17,5.776,17,5.5S16.776,5,16.5,5H12V3h4.5C16.776,3,17,2.776,17,2.5S16.776,2,16.5,2H12V1.006
			c0-0.276-0.224-0.5-0.5-0.5S11,0.729,11,1.006v11.551c-1.14,0.233-2,1.242-2,2.449c0,1.379,1.122,2.5,2.5,2.5
			c1.378,0,2.5-1.121,2.5-2.5c0-1.207-0.86-2.217-2-2.449V9h4.5C16.776,9,17,8.776,17,8.5S16.776,8,16.5,8H12V6H16.5z M13,15.006
			c0,0.827-0.673,1.5-1.5,1.5s-1.5-0.673-1.5-1.5c0-0.827,0.673-1.5,1.5-1.5S13,14.179,13,15.006z"/>
	</g>
</g>
<g id="invisible_shape">
	<rect fill="none" width="24" height="24"/>
</g>
</svg>
