<?xml version="1.0" encoding="utf-8"?>
<!-- Generator: Adobe Illustrator 19.2.0, SVG Export Plug-In . SVG Version: 6.00 Build 0)  -->
<svg version="1.1" xmlns="http://www.w3.org/2000/svg" xmlns:xlink="http://www.w3.org/1999/xlink" x="0px" y="0px" width="24px"
	 height="24px" viewBox="0 0 24 24" enable-background="new 0 0 24 24" xml:space="preserve">
<g id="Filled_Icons">
	<g>
		<path d="M23.702,22.293l-2.334-2.306l-1.415,1.414l2.344,2.315c0.392,0.387,1.025,0.384,1.413-0.009
			C24.1,23.315,24.096,22.682,23.702,22.293z"/>
		<path d="M23.483,15.75l-4.949-4.949c-0.077-0.076-0.176-0.126-0.283-0.142l-2.475-0.353c-0.159-0.018-0.313,0.029-0.424,0.141
			l-4.95,4.949c-0.111,0.111-0.163,0.269-0.142,0.424l0.354,2.476c0.016,0.107,0.064,0.207,0.142,0.283l4.95,4.949
			c0.195,0.195,0.512,0.195,0.707,0l7.07-7.071C23.679,16.262,23.679,15.945,23.483,15.75z M20.655,16.457l-4.242,4.242
			c-0.195,0.195-0.512,0.195-0.707,0l-2.829-2.827c-0.195-0.195-0.195-0.512,0-0.707l4.243-4.243c0.188-0.188,0.52-0.188,0.707,0
			l2.828,2.828C20.851,15.945,20.851,16.262,20.655,16.457z"/>
		<path d="M20.301,6.025h-3.29c-0.276,0-0.5,0.223-0.5,0.5c0,0.275,0.224,0.5,0.5,0.475h4.5c0.285,0.025,0.5-0.215,0.489-0.475v-4.5
			c0.011-0.277-0.213-0.5-0.489-0.5c-0.276,0-0.5,0.223-0.5,0.5v3.294l-4.788-4.775c-0.195-0.193-0.512-0.194-0.707,0.001
			c-0.194,0.197-0.194,0.514,0.001,0.708L20.301,6.025z"/>
		<path d="M2.724,17.025h3.287c0.276,0,0.5-0.225,0.5-0.5c0-0.277-0.224-0.5-0.5-0.5h-4.5c-0.009,0-0.016,0.004-0.024,0.004
			c-0.292,0.016-0.476,0.245-0.476,0.496v4.5c0,0.275,0.224,0.5,0.5,0.5c0.276,0,0.5-0.225,0.5-0.5v-3.301l5.154,5.118
			c0.098,0.097,0.225,0.146,0.353,0.146c0.128,0,0.257-0.049,0.355-0.146c0.194-0.197,0.193-0.514-0.003-0.708L2.724,17.025z"/>
		<path d="M2.986,4.465L4.4,3.051L1.715,0.307c-0.387-0.396-1.02-0.402-1.414-0.016c-0.395,0.387-0.402,1.02-0.016,1.414
			L2.986,4.465z"/>
		<path d="M13.289,10.547c0.975-0.975,0.975-2.561,0-3.535L11.106,4.83l1.061-1.062c0.195-0.194,0.195-0.511,0-0.707L9.339,0.233
			c-0.188-0.188-0.52-0.188-0.707,0L0.147,8.719c-0.195,0.195-0.195,0.512,0,0.707l2.829,2.828c0.192,0.193,0.51,0.197,0.707,0
			l1.061-1.06l2.182,2.182c0.979,0.981,2.561,0.977,3.535,0L13.289,10.547z M8.339,10.547L6.864,9.072l2.121-2.121l1.475,1.475
			c0.195,0.195,0.195,0.512,0,0.707l-1.414,1.414C8.847,10.745,8.531,10.739,8.339,10.547z"/>
	</g>
</g>
<g id="invisible_shape">
	<rect fill="none" width="24" height="24"/>
</g>
</svg>
