<?xml version="1.0" encoding="utf-8"?>
<!-- Generator: Adobe Illustrator 19.2.0, SVG Export Plug-In . SVG Version: 6.00 Build 0)  -->
<svg version="1.1" xmlns="http://www.w3.org/2000/svg" xmlns:xlink="http://www.w3.org/1999/xlink" x="0px" y="0px" width="24px"
	 height="24px" viewBox="0 0 24 24" enable-background="new 0 0 24 24" xml:space="preserve">
<g id="Filled_Icons">
	<g>
		<path d="M3.507,18.815l0.967-4.83C4.017,13.39,3.306,13,2.5,13C1.122,13,0,14.122,0,15.5v6C0,22.879,1.122,24,2.5,24
			c1.096,0,2.019-0.713,2.356-1.696C3.705,21.449,3.254,20.084,3.507,18.815z"/>
		<path d="M20.5,13c-0.806,0-1.517,0.39-1.974,0.984l0.966,4.83c0.254,1.273-0.2,2.635-1.348,3.489C18.481,23.287,19.404,24,20.5,24
			c1.378,0,2.5-1.121,2.5-2.5v-6C23,14.122,21.878,13,20.5,13z"/>
		<path d="M21.5,1h-3.663C17.933,1.314,18,1.645,18,1.994v1h3.5c0.276,0,0.5-0.224,0.5-0.5v-1C22,1.218,21.776,0.994,21.5,1z"/>
		<path d="M5.163,1H1.5C1.224,0.994,1,1.218,1,1.494v1c0,0.276,0.224,0.5,0.5,0.5H5v-1C5,1.645,5.067,1.314,5.163,1z"/>
		<path d="M18.512,19.011l-1.2-6C17.079,11.846,16.048,11,14.86,11H13V6h1.5C15.878,6,17,4.879,17,3.5v-1C17,1.122,15.878,0,14.5,0
			h-6C7.122,0,6,1.122,6,2.5v1C6,4.879,7.122,6,8.5,6H10v5H8.14c-1.188,0-2.22,0.846-2.451,2.011l-1.2,6
			C4.179,20.557,5.36,22,6.939,22H11V6h1v16h4.06C17.64,22,18.821,20.557,18.512,19.011z"/>
	</g>
</g>
<g id="invisible_shape">
	<rect fill="none" width="24" height="24"/>
</g>
</svg>
