<?xml version="1.0" encoding="utf-8"?>
<!-- Generator: Adobe Illustrator 19.2.0, SVG Export Plug-In . SVG Version: 6.00 Build 0)  -->
<svg version="1.1" xmlns="http://www.w3.org/2000/svg" xmlns:xlink="http://www.w3.org/1999/xlink" x="0px" y="0px" width="24px"
	 height="24px" viewBox="0 0 24 24" enable-background="new 0 0 24 24" xml:space="preserve">
<g id="Filled_Icons">
	<g>
		<path d="M15.5,9.123c-0.28,0-0.936,0-0.936,1.191c0,1.192,0.656,1.192,0.936,1.192c0.279,0,0.934,0,0.934-1.192
			C16.434,9.123,15.779,9.123,15.5,9.123z"/>
		<path d="M8.564,9.123c-0.279,0-0.935,0-0.935,1.191c0,1.192,0.655,1.192,0.935,1.192c0.28,0,0.936,0,0.936-1.192
			C9.5,9.123,8.845,9.123,8.564,9.123z"/>
		<path d="M23.5,0.048h-23c-0.276,0-0.5,0.224-0.5,0.5c0,16.374,7.946,23.458,12,23.458s12-7.084,12-23.458
			C24,0.271,23.776,0.048,23.5,0.048z M8.564,13.506c-1.783,0-2.935-1.253-2.935-3.192v-2.07c0-1.954,1.01-4.237,3.856-4.237
			c0.553,0,1,0.447,1,1c0,0.553-0.447,1-1,1c-0.908,0-1.484,0.413-1.726,1.224c0.253-0.063,0.517-0.106,0.804-0.106
			c1.783,0,2.936,1.252,2.936,3.191C11.5,12.253,10.348,13.506,8.564,13.506z M15.5,13.506c-1.784,0-2.936-1.253-2.936-3.192v-2.07
			c0-1.954,1.01-4.237,3.858-4.237c0.552,0,1,0.447,1,1c0,0.553-0.448,1-1,1c-0.91,0-1.486,0.413-1.727,1.224
			c0.252-0.063,0.517-0.106,0.805-0.106c1.782,0,2.934,1.252,2.934,3.191C18.434,12.253,17.282,13.506,15.5,13.506z"/>
	</g>
</g>
<g id="invisible_shape">
	<rect fill="none" width="24" height="24"/>
</g>
</svg>
