<?xml version="1.0" encoding="utf-8"?>
<!-- Generator: Adobe Illustrator 19.2.0, SVG Export Plug-In . SVG Version: 6.00 Build 0)  -->
<svg version="1.1" xmlns="http://www.w3.org/2000/svg" xmlns:xlink="http://www.w3.org/1999/xlink" x="0px" y="0px" width="24px"
	 height="24px" viewBox="0 0 24 24" enable-background="new 0 0 24 24" xml:space="preserve">
<g id="Filled_Icons">
	<g>
		<g>
			<g>
				<path d="M11.643,3.006h-0.151c-2.276,0.039-4.418,0.959-6.032,2.59c-1.625,1.643-2.499,3.795-2.458,6.059
					c0.082,4.684,3.752,8.352,8.356,8.352l0.151-0.001c4.762-0.082,8.57-3.962,8.49-8.648C19.917,6.674,16.247,3.006,11.643,3.006z
					 M11,7.506c0-0.277,0.224-0.5,0.5-0.5s0.5,0.223,0.5,0.5v5.09c0,0.277-0.224,0.5-0.5,0.5s-0.5-0.223-0.5-0.5V7.506z
					 M11.513,15.868H11.5c-0.396,0-0.721-0.317-0.727-0.715c-0.007-0.401,0.313-0.732,0.715-0.739H11.5h0.001
					c0.395,0,0.72,0.316,0.726,0.715C12.234,15.529,11.914,15.861,11.513,15.868z"/>
			</g>
		</g>
		<g>
			<g>
				<path d="M3.657,19.916C1.333,17.748,0,14.683,0,11.506c0-3.199,1.282-6.172,3.612-8.368c0.2-0.189,0.518-0.18,0.706,0.021
					c0.189,0.201,0.181,0.518-0.02,0.707C2.171,5.87,1,8.584,1,11.506c0,2.9,1.217,5.7,3.339,7.68
					c0.202,0.188,0.212,0.504,0.024,0.706C4.171,20.097,3.855,20.103,3.657,19.916z"/>
			</g>
		</g>
		<g>
			<path d="M18.634,19.894c-0.189-0.202-0.177-0.519,0.025-0.706C20.782,17.207,22,14.408,22,11.506
				c0-2.932-1.179-5.652-3.319-7.661C18.48,3.656,18.47,3.34,18.658,3.139c0.19-0.202,0.505-0.213,0.707-0.023
				C21.675,5.283,23,8.342,23,11.506c0,3.178-1.334,6.244-3.659,8.412C19.135,20.109,18.82,20.093,18.634,19.894z"/>
		</g>
	</g>
</g>
<g id="invisible_shape">
	<rect fill="none" width="24" height="24"/>
</g>
</svg>
