<?xml version="1.0" encoding="utf-8"?>
<!-- Generator: Adobe Illustrator 19.2.0, SVG Export Plug-In . SVG Version: 6.00 Build 0)  -->
<svg version="1.1" xmlns="http://www.w3.org/2000/svg" xmlns:xlink="http://www.w3.org/1999/xlink" x="0px" y="0px" width="24px"
	 height="24px" viewBox="0 0 24 24" enable-background="new 0 0 24 24" xml:space="preserve">
<g id="Filled_Icons">
	<path d="M12,0C5.383,0,0,5.383,0,12s5.383,12,12,12s12-5.383,12-12S18.617,0,12,0z M18.737,8.668l1.848-0.765
		c0.255-0.106,0.548,0.016,0.653,0.271c0.105,0.255-0.016,0.548-0.271,0.653L19.12,9.592c-0.247,0.104-0.546-0.011-0.653-0.271
		C18.361,9.066,18.482,8.773,18.737,8.668z M15.038,4.879l0.766-1.847c0.105-0.255,0.398-0.377,0.653-0.271
		c0.255,0.105,0.376,0.399,0.271,0.653l-0.766,1.847c-0.106,0.258-0.403,0.376-0.653,0.27C15.053,5.427,14.932,5.134,15.038,4.879z
		 M12,2.685c0-0.276,0.224-0.5,0.5-0.5s0.5,0.224,0.5,0.5v2c0,0.276-0.224,0.5-0.5,0.5S12,4.962,12,4.686V2.685z M8.174,2.761
		c0.254-0.107,0.548,0.016,0.653,0.27l0.765,1.848c0.106,0.255-0.016,0.548-0.271,0.653c-0.248,0.105-0.546-0.011-0.653-0.27
		L7.903,3.414C7.798,3.159,7.919,2.866,8.174,2.761z M1.944,11.5c0-0.276,0.224-0.5,0.5-0.5h2c0.276,0,0.5,0.224,0.5,0.5
		S4.72,12,4.444,12h-2C2.168,12,1.944,11.776,1.944,11.5z M5.262,15.332l-1.849,0.765c-0.25,0.105-0.546-0.013-0.653-0.271
		c-0.105-0.256,0.016-0.548,0.271-0.653l1.849-0.765c0.254-0.107,0.547,0.016,0.653,0.271C5.638,14.935,5.517,15.227,5.262,15.332z
		 M5.533,9.321C5.426,9.579,5.129,9.697,4.879,9.592L3.032,8.826C2.777,8.721,2.656,8.428,2.762,8.173
		c0.105-0.255,0.399-0.378,0.653-0.271l1.847,0.766C5.518,8.773,5.639,9.066,5.533,9.321z M6.343,7.05L4.93,5.636
		c-0.195-0.195-0.195-0.512,0-0.707s0.512-0.195,0.707,0L7.05,6.343c0.195,0.195,0.195,0.512,0,0.707S6.538,7.245,6.343,7.05z
		 M17,19.5c0,0.276-0.224,0.5-0.5,0.5h-9C7.224,20,7,19.776,7,19.5v-3C7,16.224,7.224,16,7.5,16h9c0.276,0,0.5,0.224,0.5,0.5V19.5z
		 M13.717,10.99C13.892,11.288,14,11.631,14,12c0,1.102-0.897,2-2,2s-2-0.898-2-2s0.897-2,2-2c0.37,0,0.712,0.107,1.01,0.283
		l4.646-4.647c0.195-0.195,0.512-0.195,0.707,0c0.195,0.195,0.195,0.512,0,0.707L13.717,10.99z M21.238,15.827
		c-0.107,0.258-0.404,0.376-0.653,0.271l-1.847-0.766c-0.255-0.105-0.377-0.398-0.271-0.653c0.105-0.256,0.398-0.377,0.653-0.271
		l1.847,0.766C21.223,15.279,21.344,15.572,21.238,15.827z M21.499,12l-2-0.001c-0.276,0-0.5-0.224-0.5-0.5
		c0-0.276,0.224-0.5,0.5-0.5l2,0.001c0.276,0,0.5,0.224,0.5,0.5S21.775,12,21.499,12z"/>
</g>
<g id="invisible_shape">
	<rect fill="none" width="24" height="24"/>
</g>
</svg>
