<?xml version="1.0" encoding="utf-8"?>
<!-- Generator: Adobe Illustrator 19.2.0, SVG Export Plug-In . SVG Version: 6.00 Build 0)  -->
<svg version="1.1" xmlns="http://www.w3.org/2000/svg" xmlns:xlink="http://www.w3.org/1999/xlink" x="0px" y="0px" width="24px"
	 height="24px" viewBox="0 0 24 24" enable-background="new 0 0 24 24" xml:space="preserve">
<g id="Filled_Icons">
	<g>
		<path d="M5.836,8.693C5.303,9.68,5,10.809,5,12.006c0,0.377,0.038,0.744,0.096,1.105c2.69,0.499,4.75,2.797,4.889,5.596
			c0.638,0.192,1.314,0.299,2.015,0.299c0.7,0,1.377-0.106,2.015-0.299c0.139-2.799,2.199-5.097,4.89-5.596
			C18.962,12.75,19,12.383,19,12.006c0-1.197-0.303-2.326-0.836-3.313C14.125,7.791,9.873,7.792,5.836,8.693z M14,12.006
			c0,1.102-0.898,2-2,2c-1.103,0-2-0.898-2-2c0-1.103,0.897-2,2-2C13.102,10.006,14,10.903,14,12.006z"/>
		<path d="M12,0.006c-6.617,0-12,5.383-12,12c0,6.617,5.383,12,12,12c6.616,0,12-5.383,12-12C24,5.389,18.616,0.006,12,0.006z
			 M12,20.006c-4.411,0-8-3.589-8-8c0-4.411,3.589-8,8-8s8,3.589,8,8C20,16.417,16.411,20.006,12,20.006z"/>
	</g>
</g>
<g id="invisible_shape">
	<rect fill="none" width="24" height="24"/>
</g>
</svg>
