<?xml version="1.0" encoding="utf-8"?>
<!-- Generator: Adobe Illustrator 19.2.0, SVG Export Plug-In . SVG Version: 6.00 Build 0)  -->
<svg version="1.1" xmlns="http://www.w3.org/2000/svg" xmlns:xlink="http://www.w3.org/1999/xlink" x="0px" y="0px" width="24px"
	 height="24px" viewBox="0 0 24 24" enable-background="new 0 0 24 24" xml:space="preserve">
<g id="Filled_Icons">
	<g>
		<g>
			<path d="M20.975,15.999C20.987,15.835,21,15.669,21,15.5c0-3.584-2.916-6.5-6.5-6.5H13V7.5C13,7.224,12.776,7,12.5,7H10V5.5
				C10,4.122,8.878,3,7.5,3H6C5.724,3,5.5,3.224,5.5,3.5S5.724,4,6,4h1.5C8.327,4,9,4.673,9,5.5V7H7.5C7.224,7,7,7.224,7,7.5V9H6.5
				C2.916,9,0,11.916,0,15.5c0,0.169,0.013,0.336,0.025,0.5L20.975,15.999z M15,11c1.103,0,2,0.898,2,2s-0.897,2-2,2
				c-1.103,0-2-0.898-2-2S13.897,11,15,11z M10,11c1.102,0,2,0.898,2,2s-0.898,2-2,2c-1.103,0-2-0.898-2-2S8.897,11,10,11z M5,11
				c1.102,0,2,0.898,2,2s-0.898,2-2,2c-1.103,0-2-0.898-2-2S3.897,11,5,11z"/>
			<path d="M1.031,19.001C2.189,20.802,4.205,22,6.5,22h8c2.295,0,4.312-1.198,5.468-3L1.031,19.001z"/>
		</g>
		<path d="M23.5,17H23v-2.5c0-0.276-0.224-0.5-0.5-0.5S22,14.224,22,14.5V17H0.842c-0.276,0-0.5,0.224-0.5,0.5s0.224,0.5,0.5,0.5H22
			v2.5c0,0.276,0.224,0.5,0.5,0.5s0.5-0.224,0.5-0.5V18h0.5c0.276,0,0.5-0.224,0.5-0.5S23.776,17,23.5,17z"/>
	</g>
</g>
<g id="invisible_shape">
	<rect fill="none" width="24" height="24"/>
</g>
</svg>
