<?xml version="1.0" encoding="utf-8"?>
<!-- Generator: Adobe Illustrator 19.2.0, SVG Export Plug-In . SVG Version: 6.00 Build 0)  -->
<svg version="1.1" xmlns="http://www.w3.org/2000/svg" xmlns:xlink="http://www.w3.org/1999/xlink" x="0px" y="0px" width="24px"
	 height="24px" viewBox="0 0 24 24" enable-background="new 0 0 24 24" xml:space="preserve">
<g id="Filled_Icons">
	<g>
		<rect x="11" y="4" width="2" height="2"/>
		<path d="M8.05,6H10V4.055C9.023,4.255,8.25,5.023,8.05,6z"/>
		<path d="M14,4.055V6h1.95C15.75,5.023,14.977,4.255,14,4.055z"/>
		<path d="M11.5,2.5C11.776,2.5,12,2.276,12,2V0.5C12,0.224,11.776,0,11.5,0S11,0.224,11,0.5V2C11,2.276,11.224,2.5,11.5,2.5z"/>
		<path d="M14.854,2.353l1-1c0.195-0.195,0.195-0.512,0-0.707c-0.195-0.195-0.512-0.195-0.707,0l-1,1
			c-0.195,0.195-0.195,0.512,0,0.707C14.342,2.549,14.658,2.549,14.854,2.353z"/>
		<path d="M8.646,2.353c0.195,0.195,0.512,0.195,0.707,0c0.195-0.195,0.195-0.512,0-0.707l-1-1c-0.195-0.195-0.512-0.195-0.707,0
			s-0.195,0.512,0,0.707L8.646,2.353z"/>
		<path d="M1,23.5C1,23.776,1.224,24,1.5,24h3C4.776,24,5,23.776,5,23.5V23H1V23.5z"/>
		<path d="M19,23.5c0,0.276,0.224,0.5,0.5,0.5h3c0.276,0,0.5-0.224,0.5-0.5V23h-4V23.5z"/>
		<path d="M24,13.5v-2c0-0.276-0.224-0.5-0.5-0.5h-3c-0.104,0-0.195,0.039-0.275,0.094l-1.25-3.752C18.906,7.138,18.715,7,18.5,7
			h-13C5.285,7,5.094,7.138,5.026,7.342l-1.25,3.752C3.695,11.039,3.604,11,3.5,11h-3C0.224,11,0,11.224,0,11.5v2
			C0,13.776,0.224,14,0.5,14h1.966l-2.357,2.974C0.038,17.062,0,17.172,0,17.284V19.5c0,0.815,0.398,1.532,1.002,1.989
			C1.002,21.493,1,21.496,1,21.5V22h22v-0.5c0-0.004-0.002-0.007-0.002-0.011C23.603,21.032,24,20.315,24,19.5v-2.216
			c0-0.112-0.038-0.223-0.108-0.311L21.534,14H23.5C23.776,14,24,13.776,24,13.5z M5.86,8H18.14l1.667,5H4.194L5.86,8z M2.5,21
			C1.673,21,1,20.327,1,19.5V18h1.5c1.76,0,3.221,1.306,3.464,3H2.5z M16,20H8c-0.276,0-0.5-0.224-0.5-0.5S7.724,19,8,19h8
			c0.276,0,0.5,0.224,0.5,0.5S16.276,20,16,20z M23,18v1.5c0,0.827-0.673,1.5-1.5,1.5h-3.464c0.243-1.694,1.704-3,3.464-3H23z"/>
	</g>
</g>
<g id="invisible_shape">
	<rect fill="none" width="24" height="24"/>
</g>
</svg>
