<?xml version="1.0" encoding="utf-8"?>
<!-- Generator: Adobe Illustrator 19.2.0, SVG Export Plug-In . SVG Version: 6.00 Build 0)  -->
<svg version="1.1" xmlns="http://www.w3.org/2000/svg" xmlns:xlink="http://www.w3.org/1999/xlink" x="0px" y="0px" width="24px"
	 height="24px" viewBox="0 0 24 24" enable-background="new 0 0 24 24" xml:space="preserve">
<g id="Filled_Icons">
	<g>
		<path d="M13.5,0h-3C9.121,0,8,1.122,8,2.5v14C8,17.327,8.673,18,9.5,18H11v5.5c0,0.276,0.224,0.5,0.5,0.5
			c0.275,0,0.5-0.224,0.5-0.5V18h2.5c0.826,0,1.5-0.673,1.5-1.5v-14C16,1.122,14.878,0,13.5,0z M12,16c-1.104,0-2-0.898-2-2
			s0.896-2,2-2c1.102,0,2,0.898,2,2S13.102,16,12,16z M12,11c-1.104,0-2-0.898-2-2s0.896-2,2-2c1.102,0,2,0.898,2,2S13.102,11,12,11
			z M12,6c-1.104,0-2-0.898-2-2s0.896-2,2-2c1.102,0,2,0.898,2,2S13.102,6,12,6z"/>
		<path d="M20,2h-3v4.207l3.354-3.353C20.666,2.541,20.446,2,20,2z"/>
		<path d="M20,7h-3v4.207l3.354-3.353C20.666,7.541,20.446,7,20,7z"/>
		<path d="M20,12h-3v4.207l3.354-3.354C20.666,12.541,20.446,12,20,12z"/>
		<path d="M3.647,2.853L7,6.207V2H4C3.556,2,3.331,2.54,3.647,2.853z"/>
		<path d="M3.647,7.853L7,11.207V7H4C3.556,7,3.331,7.54,3.647,7.853z"/>
		<path d="M3.647,12.854L7,16.207V12H4C3.556,12,3.331,12.54,3.647,12.854z"/>
	</g>
</g>
<g id="invisible_shape">
	<rect fill="none" width="24" height="24"/>
</g>
</svg>
