<?xml version="1.0" encoding="utf-8"?>
<!-- Generator: Adobe Illustrator 19.2.0, SVG Export Plug-In . SVG Version: 6.00 Build 0)  -->
<svg version="1.1" xmlns="http://www.w3.org/2000/svg" xmlns:xlink="http://www.w3.org/1999/xlink" x="0px" y="0px" width="24px"
	 height="24px" viewBox="0 0 24 24" enable-background="new 0 0 24 24" xml:space="preserve">
<g id="Filled_Icons">
	<g>
		<path d="M15.5,0h-7C7.121,0,6,1.122,6,2.5v19C6,22.879,7.121,24,8.5,24h7c1.378,0,2.5-1.121,2.5-2.5v-19C18,1.122,16.878,0,15.5,0
			z M12,22c-1.654,0-3-1.346-3-3s1.346-3,3-3s3,1.346,3,3S13.654,22,12,22z M12,15c-1.654,0-3-1.346-3-3s1.346-3,3-3s3,1.346,3,3
			S13.654,15,12,15z M12,8c-1.654,0-3-1.346-3-3s1.346-3,3-3s3,1.346,3,3S13.654,8,12,8z"/>
		<path d="M0.147,2.853L5,7.707V2H0.5C0.056,2-0.169,2.54,0.147,2.853z"/>
		<path d="M0.147,9.854L5,14.707V9H0.5C0.056,9-0.169,9.54,0.147,9.854z"/>
		<path d="M0.147,16.854L5,21.707V16H0.5C0.056,16-0.169,16.54,0.147,16.854z"/>
		<path d="M23.5,2H19v5.707l4.854-4.853C24.166,2.541,23.946,2,23.5,2z"/>
		<path d="M23.5,9H19v5.707l4.854-4.853C24.166,9.541,23.946,9,23.5,9z"/>
		<path d="M23.5,16H19v5.707l4.854-4.854C24.166,16.541,23.946,16,23.5,16z"/>
	</g>
</g>
<g id="invisible_shape">
	<rect fill="none" width="24" height="24"/>
</g>
</svg>
