<?xml version="1.0" encoding="utf-8"?>
<!-- Generator: Adobe Illustrator 19.2.0, SVG Export Plug-In . SVG Version: 6.00 Build 0)  -->
<svg version="1.1" xmlns="http://www.w3.org/2000/svg" xmlns:xlink="http://www.w3.org/1999/xlink" x="0px" y="0px" width="24px"
	 height="24px" viewBox="0 0 24 24" enable-background="new 0 0 24 24" xml:space="preserve">
<g id="Filled_Icons">
	<g>
		<circle cx="5" cy="20.506" r="2.5"/>
		<circle cx="19" cy="20.506" r="2.5"/>
		<path d="M6,17.163C6.547,17.328,7.043,17.61,7.442,18H10v-2H6V17.163z"/>
		<rect x="6" y="14" width="4" height="1"/>
		<rect x="6" y="12" width="4" height="1"/>
		<path d="M18.5,8.006H11V18h5.559c1.368-1.325,3.519-1.328,4.884,0.006h0.21C23.069,17.01,24,15.365,24,13.506
			C24,10.475,21.532,8.006,18.5,8.006z"/>
		<path d="M12.5,5H14v2h4V5h1.516C19.792,5.006,20,4.782,20,4.506c0-0.276-0.208-0.5-0.484-0.5H12.5c-0.276,0-0.5,0.224-0.5,0.5
			C12,4.782,12.224,5.006,12.5,5z"/>
		<path d="M5,17.006L4.999,8.031C2.201,8.285,0,10.643,0,13.506c0,1.861,0.932,3.506,2.352,4.5h0.207
			C3.19,17.391,4.05,17.006,5,17.006z"/>
		<rect x="6.001" y="10" width="3.999" height="1"/>
		<path d="M8.149,19.006C8.497,19.732,8.547,20.346,8.45,21h7.101c-0.098-0.657-0.049-1.264,0.301-1.994H8.149z"/>
		<rect x="6" y="8.006" width="3.999" height="0.994"/>
	</g>
</g>
<g id="invisible_shape">
	<rect fill="none" width="24" height="24"/>
</g>
</svg>
