<?xml version="1.0" encoding="utf-8"?>
<!-- Generator: Adobe Illustrator 19.2.0, SVG Export Plug-In . SVG Version: 6.00 Build 0)  -->
<svg version="1.1" xmlns="http://www.w3.org/2000/svg" xmlns:xlink="http://www.w3.org/1999/xlink" x="0px" y="0px" width="24px"
	 height="24px" viewBox="0 0 24 24" enable-background="new 0 0 24 24" xml:space="preserve">
<g id="Filled_Icons">
	<g>
		<path d="M23.964,23.313l-3.558-8.847c-0.189,0.397-0.391,0.785-0.611,1.162L20.347,17h-1.458c-0.264,0.352-0.542,0.684-0.833,1
			h2.693l1.207,3H2.032l1.194-3h2.718c-0.291-0.316-0.57-0.648-0.833-1H3.624l0.561-1.407c-0.22-0.379-0.422-0.771-0.61-1.171
			l-3.539,8.893c-0.103,0.257,0.023,0.547,0.279,0.649c0.262,0.103,0.549-0.026,0.65-0.279L1.635,22h20.723l0.679,1.687
			c0.104,0.258,0.395,0.38,0.65,0.277C23.943,23.861,24.066,23.57,23.964,23.313z"/>
		<path d="M12,0C6.071,0,3.102,3.379,3.102,8.166C3.102,13.525,7.07,20,12,20c4.929,0,8.897-6.475,8.897-11.834
			C20.897,3.398,17.952,0,12,0z M14.991,18.012c-1.977,1.312-4.006,1.313-5.983,0C8.671,17.535,8.5,17.027,8.5,16.5
			c0-1.654,1.57-3,3.5-3s3.5,1.346,3.5,3C15.5,17.027,15.329,17.535,14.991,18.012z M16.947,9.724C16.862,9.894,16.69,10,16.5,10h-9
			c-0.189,0-0.362-0.106-0.447-0.276l-2-4C4.886,5.394,5.127,5,5.5,5h13c0.37,0,0.613,0.392,0.447,0.724L16.947,9.724z"/>
	</g>
</g>
<g id="invisible_shape">
	<rect fill="none" width="24" height="24"/>
</g>
</svg>
