<?xml version="1.0" encoding="utf-8"?>
<!-- Generator: Adobe Illustrator 19.2.0, SVG Export Plug-In . SVG Version: 6.00 Build 0)  -->
<svg version="1.1" xmlns="http://www.w3.org/2000/svg" xmlns:xlink="http://www.w3.org/1999/xlink" x="0px" y="0px" width="24px"
	 height="24px" viewBox="0 0 24 24" enable-background="new 0 0 24 24" xml:space="preserve">
<g id="Filled_Icons">
	<g>
		<path d="M23.5,20c0.276,0,0.5-0.224,0.5-0.5S23.776,19,23.5,19H23v-1h-6v1H7v-1H1v1H0.5C0.224,19,0,19.224,0,19.5S0.224,20,0.5,20
			h1h2.013C3.195,20.419,3,20.935,3,21.5s0.195,1.08,0.513,1.5H0.5C0.224,23,0,23.224,0,23.5S0.224,24,0.5,24h23
			c0.276,0,0.5-0.224,0.5-0.5S23.776,23,23.5,23h-3.014C20.804,22.58,21,22.065,21,21.5s-0.196-1.081-0.514-1.5H22.5H23.5z M5.5,22
			h1.407C6.7,22.58,6.15,23,5.5,23C4.673,23,4,22.327,4,21.5S4.673,20,5.5,20c0.65,0,1.2,0.419,1.407,1H5.5
			C5.224,21,5,21.224,5,21.5S5.224,22,5.5,22z M9,20v1H7.949c-0.076-0.372-0.241-0.708-0.463-1H9z M7.486,23
			c0.222-0.292,0.387-0.629,0.463-1h8.101c0.076,0.371,0.241,0.708,0.463,1H7.486z M16.05,21H15v-1h1.513
			C16.291,20.292,16.126,20.628,16.05,21z M18.5,23c-0.651,0-1.201-0.42-1.408-1H18.5c0.276,0,0.5-0.224,0.5-0.5S18.776,21,18.5,21
			h-1.408c0.207-0.581,0.757-1,1.408-1c0.827,0,1.5,0.673,1.5,1.5S19.327,23,18.5,23z"/>
		<path d="M23.5,9H20V8h1.5C21.776,8,22,7.776,22,7.5S21.776,7,21.5,7h-7V5.707l1.854-1.853c0.195-0.195,0.195-0.512,0-0.707
			L14.207,1H23.5C23.776,1,24,0.776,24,0.5S23.776,0,23.5,0h-23C0.224,0,0,0.224,0,0.5S0.224,1,0.5,1h9.293L7.647,3.147
			c-0.195,0.195-0.195,0.512,0,0.707L9.5,5.707V7h-7C2.224,7,2,7.224,2,7.5S2.224,8,2.5,8H4v1H0.5C0.224,9,0,9.224,0,9.5
			S0.224,10,0.5,10H1v7h6v-7h10v7h6v-7h0.5c0.276,0,0.5-0.224,0.5-0.5S23.776,9,23.5,9z M10.207,5l-1.5-1.5l2.5-2.5h1.586l2.5,2.5
			l-1.5,1.5H10.207z"/>
		<path d="M15.5,16c0.276,0,0.5-0.224,0.5-0.5v-4c0-0.276-0.224-0.5-0.5-0.5h-7C8.224,11,8,11.224,8,11.5v4
			C8,15.776,8.224,16,8.5,16H15.5z"/>
	</g>
</g>
<g id="invisible_shape">
	<rect fill="none" width="24" height="24"/>
</g>
</svg>
