<?xml version="1.0" encoding="utf-8"?>
<!-- Generator: Adobe Illustrator 19.2.0, SVG Export Plug-In . SVG Version: 6.00 Build 0)  -->
<svg version="1.1" xmlns="http://www.w3.org/2000/svg" xmlns:xlink="http://www.w3.org/1999/xlink" x="0px" y="0px" width="24px"
	 height="24px" viewBox="0 0 24 24" enable-background="new 0 0 24 24" xml:space="preserve">
<g id="Filled_Icons">
	<path d="M16,22v1.5c0,0.276,0.224,0.5,0.5,0.5h3c0.276,0,0.5-0.224,0.5-0.5V22H16z"/>
	<path d="M3,22v1.5C3,23.776,3.224,24,3.5,24h3C6.776,24,7,23.776,7,23.5V22H3z"/>
	<g>
		<polygon points="3.129,21 4.872,21 7.919,17 6.176,17 		"/>
		<polygon points="10.824,17 9.176,17 6.129,21 7.872,21 		"/>
		<polygon points="11.5,17.888 9.129,21 13.871,21 		"/>
		<path d="M4.919,17H1.5C1.224,17,1,17.224,1,17.5v3C1,20.776,1.224,21,1.5,21h0.372L4.919,17z"/>
		<polygon points="13.824,17 12.176,17 15.128,21 16.871,21 		"/>
		<path d="M21.5,17h-3.419l3.047,4H21.5c0.276,0,0.5-0.224,0.5-0.5v-3C22,17.224,21.776,17,21.5,17z"/>
		<polygon points="16.824,17 15.081,17 18.128,21 19.871,21 		"/>
	</g>
	<path d="M22.5,5H22v5h0.5c0.276,0,0.5-0.224,0.5-0.5v-4C23,5.224,22.776,5,22.5,5z"/>
	<path d="M1,5H0.5C0.224,5,0,5.224,0,5.5v4C0,9.776,0.224,10,0.5,10H1V5z"/>
	<g>
		<path d="M20,2V1.5C20,1.224,19.776,1,19.5,1h-3C16.224,1,16,1.224,16,1.5V2H20z"/>
		<path d="M15,2V0.5C15,0.224,14.776,0,14.5,0h-6C8.224,0,8,0.224,8,0.5V2H15z"/>
		<path d="M7,2V1.5C7,1.224,6.776,1,6.5,1h-3C3.224,1,3,1.224,3,1.5V2H7z"/>
	</g>
	<path d="M20.5,3h-18C2.224,3,2,3.224,2,3.5V16h19V3.5C21,3.224,20.776,3,20.5,3z M3,9.5v-5C3,4.224,3.224,4,3.5,4h7
		C10.776,4,11,4.224,11,4.5v5c0,0.276-0.224,0.5-0.5,0.5h-7C3.224,10,3,9.776,3,9.5z M6,15c-0.827,0-1.5-0.673-1.5-1.5
		S5.173,12,6,12s1.5,0.673,1.5,1.5S6.827,15,6,15z M14,15H9c-0.276,0-0.5-0.224-0.5-0.5S8.724,14,9,14h5c0.276,0,0.5,0.224,0.5,0.5
		S14.276,15,14,15z M14,13H9c-0.276,0-0.5-0.224-0.5-0.5S8.724,12,9,12h5c0.276,0,0.5,0.224,0.5,0.5S14.276,13,14,13z M17,15
		c-0.827,0-1.5-0.673-1.5-1.5S16.173,12,17,12s1.5,0.673,1.5,1.5S17.827,15,17,15z M20,9.5c0,0.276-0.224,0.5-0.5,0.5h-7
		C12.224,10,12,9.776,12,9.5v-5C12,4.224,12.224,4,12.5,4h7C19.776,4,20,4.224,20,4.5V9.5z"/>
</g>
<g id="invisible_shape">
	<rect fill="none" width="24" height="24"/>
</g>
</svg>
