<?xml version="1.0" encoding="utf-8"?>
<!-- Generator: Adobe Illustrator 19.2.0, SVG Export Plug-In . SVG Version: 6.00 Build 0)  -->
<svg version="1.1" xmlns="http://www.w3.org/2000/svg" xmlns:xlink="http://www.w3.org/1999/xlink" x="0px" y="0px" width="24px"
	 height="24px" viewBox="0 0 24 24" enable-background="new 0 0 24 24" xml:space="preserve">
<g id="Filled_Icons">
	<g>
		<g>
			<g>
				<circle cx="5" cy="21.5" r="2.5"/>
			</g>
			<g>
				<circle cx="19" cy="21.5" r="2.5"/>
			</g>
		</g>
		<g>
			<rect x="10" y="12" width="2" height="7"/>
			<path d="M0.801,1.521L20.383,10H13.5c-0.276,0-0.5,0.224-0.5,0.5v2V19h3.559c0.631-0.617,1.491-1,2.441-1s1.81,0.383,2.441,1
				h2.558v-8.5c0-0.276-0.223-0.5-0.5-0.5H22.9L1.198,0.604C0.943,0.491,0.65,0.61,0.54,0.864C0.431,1.117,0.547,1.411,0.801,1.521z
				"/>
			<path d="M2.559,19c1.363-1.334,3.52-1.333,4.883,0H9v-8.5C9,10.224,8.776,10,8.5,10H5c-0.182,0-0.349,0.099-0.438,0.257
				l-2.466,4.439l-1.95,1.95C0.053,16.74,0,16.867,0,17v2H2.559z M3.553,14.276l1.5-3C5.138,11.107,5.311,11,5.5,11h1
				C6.776,11,7,11.224,7,11.5v3C7,14.776,6.776,15,6.5,15H4C3.629,15,3.386,14.608,3.553,14.276z"/>
			<path d="M15.851,20H8.148c0.349,0.729,0.399,1.338,0.301,2h7.102C15.453,21.34,15.502,20.73,15.851,20z"/>
			<path d="M1.851,20H0v1.5C0,21.776,0.224,22,0.5,22h1.051C1.453,21.34,1.502,20.73,1.851,20z"/>
			<path d="M22.148,20c0.349,0.729,0.399,1.338,0.301,2h1.05c0.277,0,0.5-0.224,0.5-0.5V20H22.148z"/>
		</g>
	</g>
</g>
<g id="invisible_shape">
	<rect fill="none" width="24" height="24"/>
</g>
</svg>
