<?xml version="1.0" encoding="utf-8"?>
<!-- Generator: Adobe Illustrator 19.2.0, SVG Export Plug-In . SVG Version: 6.00 Build 0)  -->
<svg version="1.1" xmlns="http://www.w3.org/2000/svg" xmlns:xlink="http://www.w3.org/1999/xlink" x="0px" y="0px" width="24px"
	 height="24px" viewBox="0 0 24 24" enable-background="new 0 0 24 24" xml:space="preserve">
<g id="Filled_Icons">
	<g>
		<g>
			<path d="M4.064,6.064C4.257,5.433,4.839,5,5.5,5h14c0.66,0,1.241,0.431,1.435,1.062L22,9.547V3.5C22,3.224,21.776,3,21.5,3h-18
				C3.224,3,3,3.224,3,3.5v6.069L4.064,6.064z"/>
		</g>
		<g>
			<g>
				<path d="M16,2h3.648c-0.563-1.178-1.758-2-3.148-2H16V2z"/>
			</g>
			<g>
				<path d="M9,2V0H8.5C7.109,0,5.915,0.822,5.351,2H9z"/>
			</g>
			<g>
				<rect x="10" width="5" height="2"/>
			</g>
		</g>
		<path d="M4,15c2,0,3.125,1,3.125,3H8v-2.5C8,15.224,8.224,15,8.5,15h8c0.276,0,0.5,0.224,0.5,0.5V18h1c0-1.657,1.343-3,3-3v3h1v-5
			c0-0.049-0.007-0.1-0.022-0.148l-2-6.5C19.914,6.144,19.72,6,19.5,6h-14C5.28,6,5.086,6.144,5.022,6.352l-2,6.5
			C3.007,12.9,3,12.951,3,13v5h1V15z M5.869,7h13.262l1.846,6H4.023L5.869,7z"/>
		<path d="M2.5,21h20.222C22.894,20.705,23,20.367,23,20c0-0.365-0.106-0.704-0.278-1H2.5C2.429,19,2,19.617,2,20S2.429,21,2.5,21z"
			/>
		<path d="M4,22v1.5C4,23.776,4.224,24,4.5,24h3C7.776,24,8,23.776,8,23.5V22H4z"/>
		<path d="M17,22v1.5c0,0.276,0.224,0.5,0.5,0.5h3c0.276,0,0.5-0.224,0.5-0.5V22H17z"/>
	</g>
</g>
<g id="invisible_shape">
	<rect fill="none" width="24" height="24"/>
</g>
</svg>
