<?xml version="1.0" encoding="utf-8"?>
<!-- Generator: Adobe Illustrator 19.2.0, SVG Export Plug-In . SVG Version: 6.00 Build 0)  -->
<svg version="1.1" xmlns="http://www.w3.org/2000/svg" xmlns:xlink="http://www.w3.org/1999/xlink" x="0px" y="0px" width="24px"
	 height="24px" viewBox="0 0 24 24" enable-background="new 0 0 24 24" xml:space="preserve">
<g id="Filled_Icons">
	<g>
		<circle cx="5" cy="21.5" r="2.5"/>
		<circle cx="19" cy="21.5" r="2.5"/>
		<path d="M8.148,20c0.35,0.729,0.399,1.341,0.301,2h7.102c-0.098-0.657-0.049-1.271,0.3-2H8.148z"/>
		<path d="M22.148,20c0.35,0.729,0.399,1.341,0.301,2H23.5c0.276,0,0.5-0.224,0.5-0.5V20H22.148z"/>
		<path d="M21.441,19h2.558v-2.5c0-0.276-0.223-0.5-0.5-0.5H11v3h5.559C17.922,17.666,20.079,17.667,21.441,19z"/>
		<path d="M20.999,3.258v6.298c-1.125,0.251-2,1.325-2,2.569c0,1.423,1.146,2.625,2.5,2.625c1.473,0,2.5-0.925,2.5-2.25
			c0-0.276-0.223-0.5-0.5-0.5c-0.276,0-0.5,0.224-0.5,0.5c0,0.923-0.808,1.25-1.5,1.25c-0.799,0-1.5-0.76-1.5-1.625
			s0.701-1.625,1.5-1.625c0.277,0,0.5-0.224,0.5-0.5V0.5l0,0c0-0.473-0.598-0.677-0.899-0.3L11,13.667V15h5.596L20.999,3.258z"/>
		<path d="M7.441,19H10V9.5C10,9.224,9.776,9,9.5,9H5C4.818,9,4.651,9.099,4.563,9.257l-2.466,4.439l-1.95,1.95
			C0.053,15.74,0,15.867,0,16v3h2.559C3.922,17.666,6.079,17.667,7.441,19z M4.053,13.776l1.5-3C5.638,10.607,5.811,10.5,6,10.5h1.5
			C7.776,10.5,8,10.724,8,11v3c0,0.276-0.224,0.5-0.5,0.5h-3C4.129,14.5,3.886,14.108,4.053,13.776z"/>
		<path d="M0,20v1.5C0,21.776,0.224,22,0.5,22h1.051c-0.098-0.657-0.049-1.271,0.3-2H0z"/>
	</g>
</g>
<g id="invisible_shape">
	<rect fill="none" width="24" height="24"/>
</g>
</svg>
