<?xml version="1.0" encoding="utf-8"?>
<!-- Generator: Adobe Illustrator 19.2.0, SVG Export Plug-In . SVG Version: 6.00 Build 0)  -->
<svg version="1.1" xmlns="http://www.w3.org/2000/svg" xmlns:xlink="http://www.w3.org/1999/xlink" x="0px" y="0px" width="24px"
	 height="24px" viewBox="0 0 24 24" enable-background="new 0 0 24 24" xml:space="preserve">
<g id="Filled_Icons">
	<g>
		<g>
			<path d="M13,9V5.5C13,5.224,12.776,5,12.5,5h-1C8.802,5,6.483,6.653,5.502,9H13z"/>
			<path d="M23.5,21H23v-3.5c0-0.276-0.224-0.5-0.5-0.5H15V4.5C15,3.673,15.673,3,16.5,3H17c0.276,0,0.5-0.224,0.5-0.5
				S17.276,2,17,2h-0.5C15.122,2,14,3.122,14,4.5V17h-1v-7H5.182C5.067,10.482,5,10.983,5,11.5V15H2.5
				c-0.244,0-0.453,0.177-0.493,0.418L1.071,21H0.5C0.224,21,0,21.224,0,21.5S0.224,22,0.5,22h1.551c-0.325-2.184,1.385-4,3.449-4
				c2.062,0,3.774,1.815,3.449,4h4.102c-0.325-2.184,1.385-4,3.449-4c2.062,0,3.774,1.815,3.449,4H23.5c0.276,0,0.5-0.224,0.5-0.5
				S23.776,21,23.5,21z M10,14.5c0,0.276-0.224,0.5-0.5,0.5h-2C7.224,15,7,14.776,7,14.5v-2C7,12.224,7.224,12,7.5,12h2
				c0.276,0,0.5,0.224,0.5,0.5V14.5z"/>
		</g>
		<g>
			<circle cx="5.5" cy="21.5" r="2.5"/>
		</g>
		<g>
			<circle cx="16.5" cy="21.5" r="2.5"/>
		</g>
	</g>
</g>
<g id="invisible_shape">
	<rect fill="none" width="24" height="24"/>
</g>
</svg>
