<?xml version="1.0" encoding="utf-8"?>
<!-- Generator: Adobe Illustrator 19.2.0, SVG Export Plug-In . SVG Version: 6.00 Build 0)  -->
<svg version="1.1" xmlns="http://www.w3.org/2000/svg" xmlns:xlink="http://www.w3.org/1999/xlink" x="0px" y="0px" width="24px"
	 height="24px" viewBox="0 0 24 24" enable-background="new 0 0 24 24" xml:space="preserve">
<g id="Filled_Icons">
	<g>
		<path d="M19,22c0,1.103,0.897,2,2,2c1.103,0,2-0.897,2-2v-1h-4V22z"/>
		<path d="M1,22c0,1.103,0.897,2,2,2c1.102,0,2-0.897,2-2v-1H1V22z"/>
		<path d="M20.5,14c-0.171,0-0.339,0.018-0.5,0.051V18.5c0,0.539-0.133,1.044-0.352,1.5H22.5c0.276,0,0.5-0.224,0.5-0.5v-3
			C23,15.122,21.878,14,20.5,14z"/>
		<path d="M1.5,20h2.851C4.133,19.544,4,19.039,4,18.5v-4.449C3.838,14.018,3.671,14,3.5,14C2.122,14,1,15.122,1,16.5v3
			C1,19.776,1.224,20,1.5,20z"/>
		<path d="M12,17c-1.103,0-2,0.897-2,2v3c0,1.103,0.897,2,2,2c1.102,0,2-0.897,2-2v-3C14,17.897,13.102,17,12,17z"/>
		<path d="M18.855,10l-2.089-6H18c0.276,0,0.5-0.224,0.5-0.5S18.276,3,18,3H6C5.724,3,5.5,3.224,5.5,3.5S5.724,4,6,4h1.291l-2.143,6
			H18.855z"/>
		<path d="M19,11H5v7.5C5,19.879,6.122,21,7.5,21H9v-2c0-1.654,1.346-3,3-3s3,1.346,3,3v2h1.5c1.378,0,2.5-1.121,2.5-2.5V11z M8,16
			c-0.827,0-1.5-0.673-1.5-1.5S7.173,13,8,13s1.5,0.673,1.5,1.5S8.827,16,8,16z M16,16c-0.827,0-1.5-0.673-1.5-1.5S15.173,13,16,13
			c0.827,0,1.5,0.673,1.5,1.5S16.827,16,16,16z"/>
		<path d="M15,0.5C15,0.224,14.776,0,14.5,0h-5C9.224,0,9,0.224,9,0.5V2h6V0.5z"/>
	</g>
</g>
<g id="invisible_shape">
	<rect fill="none" width="24" height="24"/>
</g>
</svg>
