<?xml version="1.0" encoding="utf-8"?>
<!-- Generator: Adobe Illustrator 19.2.0, SVG Export Plug-In . SVG Version: 6.00 Build 0)  -->
<svg version="1.1" xmlns="http://www.w3.org/2000/svg" xmlns:xlink="http://www.w3.org/1999/xlink" x="0px" y="0px" width="24px"
	 height="24px" viewBox="0 0 24 24" enable-background="new 0 0 24 24" xml:space="preserve">
<g id="Filled_Icons">
	<g>
		<circle cx="5" cy="21.5" r="2.5"/>
		<circle cx="19" cy="21.5" r="2.5"/>
		<path d="M23.5,3h-19C4.311,3,4.138,3.107,4.053,3.276l-3,6C0.886,9.608,1.129,10,1.5,10h8c0.276,0,0.5,0.224,0.5,0.5V12h14V3.5
			C24,3.224,23.776,3,23.5,3z M10,8.5C10,8.776,9.776,9,9.5,9h-4C5.161,9,4.917,8.667,5.026,8.342l1-3C6.094,5.138,6.285,5,6.5,5h3
			C9.776,5,10,5.224,10,5.5V8.5z M22,8.5C22,8.776,21.776,9,21.5,9h-9C12.224,9,12,8.776,12,8.5v-3C12,5.224,12.224,5,12.5,5h9
			C21.776,5,22,5.224,22,5.5V8.5z"/>
		<path d="M7.441,19H9v-8H4.15l-2.054,3.696l-1.95,1.95C0.053,16.74,0,16.867,0,17v2h2.559C3.922,17.666,6.079,17.667,7.441,19z
			 M3.553,15.276l1.5-3C5.138,12.107,5.311,12,5.5,12h2C7.776,12,8,12.224,8,12.5v3C8,15.776,7.776,16,7.5,16H4
			c-0.173,0-0.334-0.09-0.426-0.237C3.483,15.615,3.475,15.432,3.553,15.276z"/>
		<path d="M10,19h6.575c1.357-1.333,3.49-1.334,4.85,0H24v-6H10V19z"/>
		<path d="M15.86,20H8.148c0.363,0.759,0.395,1.359,0.301,2h7.102C15.446,21.293,15.573,20.607,15.86,20z"/>
		<path d="M22.449,22H23.5c0.276,0,0.5-0.224,0.5-0.5V20h-1.86C22.427,20.607,22.554,21.293,22.449,22z"/>
		<path d="M0,20v1.5C0,21.776,0.224,22,0.5,22h1.051c-0.095-0.641-0.063-1.241,0.3-2H0z"/>
	</g>
</g>
<g id="invisible_shape">
	<rect fill="none" width="24" height="24"/>
</g>
</svg>
