<?xml version="1.0" encoding="utf-8"?>
<!-- Generator: Adobe Illustrator 19.2.0, SVG Export Plug-In . SVG Version: 6.00 Build 0)  -->
<svg version="1.1" xmlns="http://www.w3.org/2000/svg" xmlns:xlink="http://www.w3.org/1999/xlink" x="0px" y="0px" width="24px"
	 height="24px" viewBox="0 0 24 24" enable-background="new 0 0 24 24" xml:space="preserve">
<g id="Filled_Icons">
	<g>
		<rect x="3" y="19" width="19" height="2"/>
		<path d="M5,23.25C5,23.664,5.586,24,6,24s1-0.336,1-0.75V22l-2,0.018V23.25z"/>
		<path d="M18,23.25c0,0.414,0.586,0.75,1,0.75s1-0.336,1-0.75V22l-2,0.018V23.25z"/>
		<path d="M13,8h8V7c0-1.142-0.229-2.14-0.637-3H13V8z"/>
		<path d="M12.5,0C9.424,0,6.738,0.997,5.246,3h14.509C18.262,0.997,15.576,0,12.5,0z"/>
		<path d="M5.262,9c3.459,1.071,6.166,3.778,7.238,7.211c1.072-3.434,3.778-6.14,7.237-7.211H5.262z"/>
		<path d="M12,4H4.637C4.228,4.86,4,5.858,4,7v1h8V4z"/>
		<path d="M21,9.704c-4.109,0.835-7.264,4.15-7.886,8.296H21V9.704z M17.5,16.5c-0.828,0-1.5-0.672-1.5-1.5s0.672-1.5,1.5-1.5
			S19,14.172,19,15S18.328,16.5,17.5,16.5z"/>
		<path d="M4,9.704V18h7.887C11.263,13.854,8.108,10.539,4,9.704z M7.5,16.5C6.672,16.5,6,15.828,6,15s0.672-1.5,1.5-1.5
			S9,14.172,9,15S8.328,16.5,7.5,16.5z"/>
		<path d="M3,8.5H2.5C1.672,8.5,1,9.172,1,10c0,0.45,0.198,0.854,0.512,1.129L3,12.248V8.5z"/>
		<path d="M22.5,8.5H22v3.748l1.488-1.12C23.802,10.852,24,10.449,24,10C24,9.172,23.328,8.5,22.5,8.5z"/>
	</g>
</g>
<g id="invisible_shape">
	<rect fill="none" width="24" height="24"/>
</g>
</svg>
