<?xml version="1.0" encoding="utf-8"?>
<!-- Generator: Adobe Illustrator 19.2.0, SVG Export Plug-In . SVG Version: 6.00 Build 0)  -->
<svg version="1.1" xmlns="http://www.w3.org/2000/svg" xmlns:xlink="http://www.w3.org/1999/xlink" x="0px" y="0px" width="24px"
	 height="24px" viewBox="0 0 24 24" enable-background="new 0 0 24 24" xml:space="preserve">
<g id="Filled_Icons">
	<path d="M19.5,14.5h-1.585c0.051-0.326,0.085-0.659,0.085-1v-1.513c0.419,0.317,0.935,0.513,1.5,0.513c0.276,0,0.5-0.224,0.5-0.5V8
		c0-0.276-0.224-0.5-0.5-0.5c-0.565,0-1.081,0.195-1.5,0.513V8c0-1.102-0.897-2-2-2h-1.5C14.224,6,14,6.224,14,6.5S14.224,7,14.5,7
		H16c0.551,0,1,0.448,1,1v5.5c0,2.352-1.484,4.364-3.566,5.149c-0.245-1.585-1.161-2.914-2.429-3.743
		C11.583,14.697,12,14.149,12,13.5v-2c0-0.276-0.224-0.5-0.5-0.5h-10C1.224,11,1,11.224,1,11.5v0.999
		c0,0.133,0.053,0.26,0.146,0.354l1.786,1.787C1.19,15.564,0,17.395,0,19.5C0,19.776,0.224,20,0.5,20h11
		c1.237,0,2.378-0.333,3.441-1H23.5c0.276,0,0.5-0.224,0.5-0.5C24,16.294,21.981,14.5,19.5,14.5z"/>
	<path d="M16.043,20C16.019,20.166,16,20.333,16,20.5c0,1.93,1.57,3.5,3.5,3.5s3.5-1.57,3.5-3.5c0-0.168-0.019-0.335-0.043-0.5
		H16.043z"/>
	<path d="M2.051,21c0.245,1.691,1.69,3,3.449,3s3.204-1.309,3.449-3H2.051z"/>
</g>
<g id="invisible_shape">
	<rect fill="none" width="24" height="24"/>
</g>
</svg>
