<?xml version="1.0" encoding="utf-8"?>
<!-- Generator: Adobe Illustrator 19.2.0, SVG Export Plug-In . SVG Version: 6.00 Build 0)  -->
<svg version="1.1" xmlns="http://www.w3.org/2000/svg" xmlns:xlink="http://www.w3.org/1999/xlink" x="0px" y="0px" width="24px"
	 height="24px" viewBox="0 0 24 24" enable-background="new 0 0 24 24" xml:space="preserve">
<g id="Filled_Icons">
	<g>
		<path d="M7.854,9.93C7.808,9.884,7.752,9.848,7.691,9.822c-0.122-0.051-0.26-0.051-0.382,0C7.248,9.848,7.192,9.884,7.146,9.93
			l-2.999,3c-0.195,0.195-0.195,0.512,0,0.707s0.512,0.195,0.707,0L7,11.49v10.793c0,0.276,0.224,0.5,0.5,0.5S8,22.56,8,22.283
			V11.49l2.146,2.146c0.098,0.098,0.226,0.147,0.354,0.147s0.256-0.049,0.354-0.147c0.195-0.195,0.195-0.512,0-0.707L7.854,9.93z"/>
		<path d="M19.854,12.93l-3-3c-0.046-0.046-0.102-0.082-0.163-0.107c-0.122-0.051-0.26-0.051-0.382,0
			c-0.061,0.025-0.117,0.061-0.163,0.107l-3,3c-0.195,0.195-0.195,0.512,0,0.707s0.512,0.195,0.707,0L16,11.49v10.793
			c0,0.276,0.224,0.5,0.5,0.5s0.5-0.224,0.5-0.5V11.49l2.146,2.146c0.098,0.098,0.226,0.147,0.354,0.147s0.256-0.049,0.354-0.147
			C20.049,13.441,20.049,13.125,19.854,12.93z"/>
	</g>
	<g>
		<path d="M7.854,9.93c-0.197-0.195-0.513-0.192-0.708,0l-2.999,3c-0.195,0.195-0.195,0.512,0,0.707s0.512,0.195,0.707,0L7,11.49
			v10.793c0,0.276,0.224,0.5,0.5,0.5S8,22.56,8,22.283V11.49l2.146,2.146c0.195,0.195,0.512,0.195,0.707,0s0.195-0.512,0-0.707
			L7.854,9.93z"/>
		<path d="M23.73,5.057c-7.803-4.056-15.714-4.056-23.462,0C0.066,5.162-0.039,5.391,0.013,5.612l3,13
			c0.081,0.351,0.491,0.5,0.777,0.295c0.735-0.524,1.472-0.971,2.21-1.352v-3.65l-0.439,0.439C5.277,14.627,4.9,14.783,4.5,14.783
			s-0.777-0.156-1.06-0.439c-0.585-0.585-0.585-1.536,0-2.121l3-3C7.038,8.628,7.985,8.65,8.557,9.219l3.003,3.004
			c0.585,0.585,0.585,1.536,0,2.121c-0.586,0.586-1.535,0.586-2.121,0L9,13.904v2.49c1.993-0.508,3.993-0.505,6,0.016v-2.506
			l-0.439,0.439c-0.586,0.586-1.535,0.586-2.121,0c-0.585-0.585-0.585-1.536,0-2.121l3-3c0.596-0.592,1.542-0.576,2.118-0.004
			l3.003,3.004c0.585,0.585,0.585,1.536,0,2.121c-0.586,0.586-1.535,0.586-2.121,0L18,13.904v3.669
			c0.737,0.379,1.475,0.82,2.213,1.337c0.29,0.201,0.694,0.048,0.774-0.298l3-13C24.039,5.391,23.933,5.161,23.73,5.057z"/>
		<path d="M19.854,12.93l-3-3c-0.195-0.192-0.511-0.195-0.708,0l-3,3c-0.195,0.195-0.195,0.512,0,0.707s0.512,0.195,0.707,0
			L16,11.49v10.793c0,0.276,0.224,0.5,0.5,0.5s0.5-0.224,0.5-0.5V11.49l2.146,2.146c0.195,0.195,0.512,0.195,0.707,0
			C20.049,13.441,20.049,13.125,19.854,12.93z"/>
	</g>
</g>
<g id="invisible_shape">
	<rect fill="none" width="24" height="24"/>
</g>
</svg>
