<?xml version="1.0" encoding="utf-8"?>
<!-- Generator: Adobe Illustrator 16.0.3, SVG Export Plug-In . SVG Version: 6.00 Build 0)  -->
<!DOCTYPE svg PUBLIC "-//W3C//DTD SVG 1.1//EN" "http://www.w3.org/Graphics/SVG/1.1/DTD/svg11.dtd">
<svg version="1.1" xmlns="http://www.w3.org/2000/svg" xmlns:xlink="http://www.w3.org/1999/xlink" x="0px" y="0px" width="24px"
	 height="24px" viewBox="0 0 24 24" enable-background="new 0 0 24 24" xml:space="preserve">
<g id="Outline_Icons">
	<g>
		<rect x="14.5" y="20.5" fill="none" stroke="#000000" stroke-linejoin="round" stroke-miterlimit="10" width="6" height="3"/>
		<path fill="none" stroke="#000000" stroke-linecap="round" stroke-linejoin="round" stroke-miterlimit="10" d="M19.5,20.5v-1.531
			c0,0,3.187-3.155,4-3.969c0-1.374,0-8.062,0-8.062S21,6.032,21,13l-2.969,2.969l0.688-3c0.344-1.437-0.971-2.051-1.688-0.937
			c-0.66,1.026-1.531,3.961-1.531,3.961V20.5"/>
		<rect x="3.5" y="20.5" fill="none" stroke="#000000" stroke-linejoin="round" stroke-miterlimit="10" width="6" height="3"/>
		<path fill="none" stroke="#000000" stroke-linecap="round" stroke-linejoin="round" stroke-miterlimit="10" d="M4.5,20.5v-1.531
			c0,0-3-3.155-4-3.969c0-1.374,0-8.062,0-8.062S3,6.032,3,13l2.969,2.969l-0.688-3c-0.344-1.437,0.971-2.051,1.688-0.937
			c0.66,1.026,1.531,3.961,1.531,3.961V20.5"/>
		<polygon fill="none" stroke="#000000" stroke-linejoin="round" stroke-miterlimit="10" points="11.5,6.5 6.5,3.5 6.5,9.5 
			11.5,12.5 17.5,9.5 17.5,3.5 		"/>
		<polygon fill="none" stroke="#000000" stroke-linejoin="round" stroke-miterlimit="10" points="12,0.5 6.5,3.5 11.5,6.5 17.5,3.5 
					"/>
		<line fill="none" stroke="#000000" stroke-linejoin="round" stroke-miterlimit="10" x1="11.5" y1="6.5" x2="11.5" y2="12.5"/>
	</g>
</g>
<g id="Invisible_Shape">
	<rect fill="none" width="24" height="24"/>
</g>
</svg>
