<?xml version="1.0" encoding="utf-8"?>
<!-- Generator: Adobe Illustrator 19.2.0, SVG Export Plug-In . SVG Version: 6.00 Build 0)  -->
<svg version="1.1" xmlns="http://www.w3.org/2000/svg" xmlns:xlink="http://www.w3.org/1999/xlink" x="0px" y="0px" width="24px"
	 height="24px" viewBox="0 0 24 24" enable-background="new 0 0 24 24" xml:space="preserve">
<g id="Filled_Icons">
	<g>
		<g>
			<path d="M24,7.999V2.525c0-1.378-1.122-2.5-2.5-2.5h-19c-1.378,0-2.5,1.122-2.5,2.5v5.474H24z M17.5,7.025
				c-0.276,0-0.5-0.224-0.5-0.5c0-0.275,0.224-0.5,0.5-0.5c0.277,0,0.5,0.225,0.5,0.5C18,6.802,17.777,7.025,17.5,7.025z
				 M19.5,7.025c-0.276,0-0.5-0.224-0.5-0.5c0-0.275,0.224-0.5,0.5-0.5c0.277,0,0.5,0.225,0.5,0.5C20,6.802,19.777,7.025,19.5,7.025
				z M3.516,1.999h17c0.276,0.026,0.5,0.25,0.5,0.526s-0.224,0.5-0.5,0.5h-17c-0.276,0-0.5-0.224-0.5-0.5S3.239,2.025,3.516,1.999z
				 M3.516,3.999h17c0.276,0.026,0.5,0.25,0.5,0.526c0,0.276-0.224,0.5-0.5,0.5h-17c-0.276,0-0.5-0.224-0.5-0.5
				C3.016,4.249,3.239,4.025,3.516,3.999z"/>
			<path d="M0,9v3.525c0,0.276,0.224,0.5,0.5,0.5h1.573l1.085,2.171c0.254,0.509,0.773,0.829,1.342,0.803h15
				c0.568,0.026,1.087-0.294,1.342-0.803l1.085-2.171H23.5c0.276,0,0.5-0.224,0.5-0.5V9H0z M21.947,10.749l-2,4
				c-0.085,0.169-0.258,0.276-0.447,0.276h-15c-0.189,0-0.362-0.107-0.447-0.276l-2-4c-0.078-0.154-0.069-0.339,0.021-0.486
				c0.092-0.146,0.253-0.237,0.426-0.264h19c0.173,0.026,0.334,0.117,0.425,0.264C22.017,10.41,22.024,10.595,21.947,10.749z"/>
		</g>
		<g>
			<path d="M17.979,23.999c-0.128,0-0.256-0.049-0.354-0.146c-1.083-1.082-0.533-2.44-0.091-3.531
				c0.47-1.158,0.726-1.899,0.115-2.511c-0.195-0.194-0.195-0.511,0-0.707c0.195-0.195,0.512-0.195,0.707,0
				c1.11,1.11,0.553,2.487,0.104,3.594c-0.461,1.137-0.713,1.863-0.129,2.449c0.195,0.195,0.195,0.512,0,0.706
				C18.234,23.95,18.106,23.999,17.979,23.999z"/>
		</g>
		<g>
			<path d="M11.563,23.999c-0.128,0-0.256-0.049-0.354-0.146c-1.082-1.082-0.533-2.44-0.091-3.531
				c0.469-1.158,0.726-1.899,0.115-2.511c-0.195-0.194-0.195-0.511,0-0.707c0.195-0.195,0.512-0.195,0.707,0
				c1.11,1.11,0.553,2.487,0.104,3.593c-0.46,1.138-0.713,1.864-0.128,2.45c0.195,0.195,0.195,0.512,0,0.706
				C11.818,23.95,11.69,23.999,11.563,23.999z"/>
		</g>
		<g>
			<path d="M5.563,23.999c-0.128,0-0.256-0.049-0.353-0.146c-1.082-1.082-0.533-2.44-0.091-3.531
				c0.469-1.158,0.726-1.899,0.115-2.511c-0.195-0.194-0.195-0.511,0-0.707c0.195-0.195,0.512-0.195,0.707,0
				c1.11,1.11,0.553,2.487,0.104,3.593c-0.46,1.138-0.713,1.864-0.128,2.45c0.195,0.195,0.195,0.512,0,0.706
				C5.818,23.95,5.69,23.999,5.563,23.999z"/>
		</g>
	</g>
</g>
<g id="invisible_shape">
	<rect fill="none" width="24" height="24"/>
</g>
</svg>
