<?xml version="1.0" encoding="utf-8"?>
<!-- Generator: Adobe Illustrator 19.2.0, SVG Export Plug-In . SVG Version: 6.00 Build 0)  -->
<svg version="1.1" xmlns="http://www.w3.org/2000/svg" xmlns:xlink="http://www.w3.org/1999/xlink" x="0px" y="0px" width="24px"
	 height="24px" viewBox="0 0 24 24" enable-background="new 0 0 24 24" xml:space="preserve">
<g id="Filled_Icons">
	<g>
		<path d="M9.801,4.873l1.816-0.839c0.251-0.115,0.36-0.411,0.245-0.662c-0.116-0.251-0.412-0.361-0.664-0.245L9.382,3.964
			c-0.25,0.117-0.36,0.414-0.244,0.665C9.253,4.878,9.55,4.988,9.801,4.873z"/>
		<path d="M15.566,10.116l0.786-1.84c0.108-0.254-0.01-0.549-0.264-0.656c-0.252-0.109-0.548,0.01-0.656,0.264l-0.786,1.84
			c-0.108,0.253,0.009,0.548,0.263,0.656C15.164,10.487,15.458,10.372,15.566,10.116z"/>
		<path d="M11.434,8.055c0.189,0.194,0.509,0.201,0.707,0.004l1.422-1.407c0.196-0.193,0.198-0.511,0.004-0.707
			c-0.194-0.196-0.511-0.197-0.707-0.002l-1.422,1.404C11.241,7.542,11.239,7.858,11.434,8.055z"/>
		<path d="M23.5,14H22V2.954c0-0.982-0.579-1.878-1.477-2.281c-0.897-0.402-1.951-0.24-2.706,0.433l-0.585,0.587
			c-1.105-0.75-2.703-0.648-3.667,0.316l-0.559,0.557c-0.195,0.196-0.195,0.512,0,0.709l3.352,3.352
			c0.195,0.195,0.512,0.195,0.707,0l0.559-0.559c0.998-0.998,1.1-2.553,0.317-3.672l0.563-0.563c0.439-0.392,1.071-0.489,1.61-0.247
			C20.652,1.827,21,2.364,21,2.954V14h-6v5.5c0,0.829-0.672,1.5-1.5,1.5h-7C5.671,21,5,20.329,5,19.5V14H0.5
			C0.224,14,0,14.223,0,14.5C0,19.738,4.262,24,9.5,24h5c5.238,0,9.5-4.262,9.5-9.5C24,14.223,23.776,14,23.5,14z"/>
		<path d="M6.5,20h7c0.276,0,0.5-0.225,0.5-0.5v-6c0-0.827-0.673-1.5-1.5-1.5h-5C6.673,12,6,12.673,6,13.5v6
			C6,19.775,6.224,20,6.5,20z"/>
	</g>
</g>
<g id="invisible_shape">
	<rect fill="none" width="24" height="24"/>
</g>
</svg>
