<?xml version="1.0" encoding="utf-8"?>
<!-- Generator: Adobe Illustrator 19.2.0, SVG Export Plug-In . SVG Version: 6.00 Build 0)  -->
<svg version="1.1" xmlns="http://www.w3.org/2000/svg" xmlns:xlink="http://www.w3.org/1999/xlink" x="0px" y="0px" width="24px"
	 height="24px" viewBox="0 0 24 24" enable-background="new 0 0 24 24" xml:space="preserve">
<g id="Filled_Icons">
	<g>
		<path d="M23.924,16L22,4.46V2c0-1.104-0.897-2-2-2H4C2.897,0,2,0.898,2,2.001V4.46L0.076,16H23.924z M18.898,4l0.278,2H14V4
			H18.898z M5.352,4H10v2H5.074L5.352,4z M2.923,5h1.281L4.005,6.432C3.985,6.575,4.027,6.72,4.123,6.829C4.218,6.938,4.356,7,4.5,7
			h6.042C10.814,7,10.994,6.783,11,6.511V5h2l0.01,1.511C13.016,6.783,13.238,7,13.51,7h6.24c0.145,0,0.282-0.063,0.377-0.171
			c0.096-0.109,0.139-0.254,0.118-0.398L20.047,5h1.03l0.5,3H2.423L2.923,5z"/>
		<path d="M0,17v4.001C0,22.103,0.897,23,2,23h1v0.5C3,23.776,3.224,24,3.5,24S4,23.776,4,23.5V23h16v0.5c0,0.276,0.224,0.5,0.5,0.5
			s0.5-0.224,0.5-0.5V23h1c1.103,0,2-0.897,2-1.999V17H0z"/>
	</g>
</g>
<g id="invisible_shape">
	<rect fill="none" width="24" height="24"/>
</g>
</svg>
