<?xml version="1.0" encoding="utf-8"?>
<!-- Generator: Adobe Illustrator 19.2.0, SVG Export Plug-In . SVG Version: 6.00 Build 0)  -->
<svg version="1.1" xmlns="http://www.w3.org/2000/svg" xmlns:xlink="http://www.w3.org/1999/xlink" x="0px" y="0px" width="24px"
	 height="24px" viewBox="0 0 24 24" enable-background="new 0 0 24 24" xml:space="preserve">
<g id="Filled_Icons">
	<g>
		<path d="M20,4.409V2.002C20,0.898,19.103,0,18,0H6C4.897,0,4,0.898,4,2.002v2.407L0.153,16h23.692L20,4.409z M7.86,4h8.279
			l0.666,2H7.193L7.86,4z M3.721,8l1.126-3h1.626L6.025,6.343C5.975,6.494,6,6.663,6.094,6.793C6.188,6.924,6.339,7,6.5,7h11
			c0.004,0,0.007,0.001,0.01,0c0.276,0,0.5-0.224,0.5-0.5c0-0.09-0.024-0.174-0.066-0.246L17.526,5h1.627l1.125,3H3.721z"/>
		<path d="M0,17v4.002C0,22.104,0.896,23,2,23h1v0.5C3,23.776,3.224,24,3.5,24S4,23.776,4,23.5V23h16v0.5c0,0.276,0.224,0.5,0.5,0.5
			s0.5-0.224,0.5-0.5V23h1c1.103,0,2-0.896,2-1.998V17H0z"/>
	</g>
</g>
<g id="invisible_shape">
	<rect fill="none" width="24" height="24"/>
</g>
</svg>
