<?xml version="1.0" encoding="utf-8"?>
<!-- Generator: Adobe Illustrator 19.2.0, SVG Export Plug-In . SVG Version: 6.00 Build 0)  -->
<svg version="1.1" xmlns="http://www.w3.org/2000/svg" xmlns:xlink="http://www.w3.org/1999/xlink" x="0px" y="0px" width="24px"
	 height="24px" viewBox="0 0 24 24" enable-background="new 0 0 24 24" xml:space="preserve">
<g id="Filled_Icons">
	<g>
		<path d="M17.5,0h-2C15.224,0,15,0.224,15,0.5v4C15,4.776,15.224,5,15.5,5h2C17.776,5,18,4.776,18,4.5v-4C18,0.224,17.776,0,17.5,0
			z"/>
		<path d="M8.5,0h-2C6.224,0,6,0.224,6,0.5v4C6,4.776,6.224,5,6.5,5h2C8.776,5,9,4.776,9,4.5v-4C9,0.224,8.776,0,8.5,0z"/>
		<g>
			<path d="M23.5,15H0.541c-0.276,0-0.5,0.224-0.5,0.5s0.224,0.5,0.5,0.5H2v7.5C2,23.776,2.224,24,2.5,24H10v-4.5
				c0-0.276,0.224-0.5,0.5-0.5h3c0.276,0,0.5,0.224,0.5,0.5V24h7.5c0.276,0,0.5-0.224,0.5-0.5V16h1.5c0.276,0,0.5-0.224,0.5-0.5
				S23.776,15,23.5,15z M8,20.5C8,20.776,7.776,21,7.5,21h-3C4.224,21,4,20.776,4,20.5v-3C4,17.224,4.224,17,4.5,17h3
				C7.776,17,8,17.224,8,17.5V20.5z M20,20.5c0,0.276-0.224,0.5-0.5,0.5h-3c-0.276,0-0.5-0.224-0.5-0.5v-3
				c0-0.276,0.224-0.5,0.5-0.5h3c0.276,0,0.5,0.224,0.5,0.5V20.5z"/>
			<path d="M0.5,9H2v5h20V9h1.459c0.276,0,0.5-0.224,0.5-0.5S23.735,8,23.459,8H0.541H0.5C0.224,8,0,8.224,0,8.5S0.224,9,0.5,9z
				 M17,9.5C17,9.224,17.224,9,17.5,9h2C19.776,9,20,9.224,20,9.5v2c0,0.276-0.224,0.5-0.5,0.5h-2c-0.276,0-0.5-0.224-0.5-0.5V9.5z
				 M13,9.5C13,9.224,13.224,9,13.5,9h2C15.776,9,16,9.224,16,9.5v2c0,0.276-0.224,0.5-0.5,0.5h-2c-0.276,0-0.5-0.224-0.5-0.5V9.5z
				 M8,9.5C8,9.224,8.224,9,8.5,9h2C10.776,9,11,9.224,11,9.5v2c0,0.276-0.224,0.5-0.5,0.5h-2C8.224,12,8,11.776,8,11.5V9.5z M4,9.5
				C4,9.224,4.224,9,4.5,9h2C6.776,9,7,9.224,7,9.5v2C7,11.776,6.776,12,6.5,12h-2C4.224,12,4,11.776,4,11.5V9.5z"/>
			<path d="M22.828,7l-2.382-4.725C20.361,2.106,20.189,2,20,2h-1v2.5C19,5.329,18.328,6,17.5,6h-2C14.671,6,14,5.329,14,4.5V2h-4
				v2.5C10,5.329,9.328,6,8.5,6h-2C5.671,6,5,5.329,5,4.5V2H4C3.81,2,3.638,2.106,3.553,2.276L1.19,7H22.828z"/>
		</g>
	</g>
</g>
<g id="invisible_shape">
	<rect fill="none" width="24" height="24"/>
</g>
</svg>
