<?xml version="1.0" encoding="utf-8"?>
<!-- Generator: Adobe Illustrator 19.2.0, SVG Export Plug-In . SVG Version: 6.00 Build 0)  -->
<svg version="1.1" xmlns="http://www.w3.org/2000/svg" xmlns:xlink="http://www.w3.org/1999/xlink" x="0px" y="0px" width="24px"
	 height="24px" viewBox="0 0 24 24" enable-background="new 0 0 24 24" xml:space="preserve">
<g id="Filled_Icons">
	<g>
		<path d="M22.5,3H9.252C8.634,1.209,6.939,0,5,0C2.519,0,0.5,2.019,0.5,4.5S2.519,9,5,9c1.919,0,3.611-1.222,4.243-3.016H14v1.5
			c0,0.276,0.224,0.5,0.5,0.5h2c0.276,0,0.5-0.224,0.5-0.5v-1.5h1v1.5c0,0.276,0.224,0.5,0.5,0.5h2c0.276,0,0.5-0.224,0.5-0.5v-1.5
			h1.5c0.827,0,1.5-0.673,1.5-1.5C24,3.657,23.327,2.984,22.5,3z M5,6.5c-1.103,0-2-0.897-2-2c0-1.102,0.897-2,2-2
			c1.102,0,2,0.898,2,2C7,5.603,6.102,6.5,5,6.5z"/>
		<path d="M20.707,16H3.293l-1.146,1.146C2.053,17.241,2,17.367,2,17.5V19h5c0.276,0,0.5,0.224,0.5,0.5S7.276,20,7,20H2v1.5
			C2,21.776,2.224,22,2.5,22H3v1.5C3,23.776,3.224,24,3.5,24h3C6.776,24,7,23.776,7,23.5V22h10v1.5c0,0.276,0.224,0.5,0.5,0.5h3
			c0.276,0,0.5-0.224,0.5-0.5V22h0.5c0.276,0,0.5-0.224,0.5-0.5V20h-5c-0.276,0-0.5-0.224-0.5-0.5S16.724,19,17,19h5v-1.5
			c0-0.133-0.053-0.259-0.146-0.354L20.707,16z"/>
		<path d="M17.5,10h-11c-0.205,0-0.389,0.124-0.465,0.315L4.161,15h15.678l-1.875-4.685C17.888,10.124,17.704,10,17.5,10z"/>
	</g>
</g>
<g id="invisible_shape">
	<rect fill="none" width="24" height="24"/>
</g>
</svg>
