<?xml version="1.0" encoding="utf-8"?>
<!-- Generator: Adobe Illustrator 19.2.0, SVG Export Plug-In . SVG Version: 6.00 Build 0)  -->
<svg version="1.1" xmlns="http://www.w3.org/2000/svg" xmlns:xlink="http://www.w3.org/1999/xlink" x="0px" y="0px" width="24px"
	 height="24px" viewBox="0 0 24 24" enable-background="new 0 0 24 24" xml:space="preserve">
<g id="Filled_Icons">
	<path d="M12-0.006c-3.309,0-6,2.691-6,6c0,0.276,0.224,0.5,0.5,0.5S7,6.271,7,5.994c0-2.757,2.243-5,5-5s5,2.243,5,5
		c0,2.757-2.243,5-5,5c-3.477,0-6,2.943-6,7v5.5c0,0.276,0.224,0.5,0.5,0.5h11c0.276,0,0.5-0.224,0.5-0.5v-17.5
		C18,2.685,15.309-0.006,12-0.006z M9.5,19.994h5c0.276,0,0.5,0.224,0.5,0.5c0,0.276-0.224,0.5-0.5,0.5h-5
		c-0.276,0-0.5-0.224-0.5-0.5C9,20.218,9.224,19.994,9.5,19.994z"/>
</g>
<g id="invisible_shape">
	<rect fill="none" width="24" height="24"/>
</g>
</svg>
