<?xml version="1.0" encoding="utf-8"?>
<!-- Generator: Adobe Illustrator 19.2.0, SVG Export Plug-In . SVG Version: 6.00 Build 0)  -->
<svg version="1.1" xmlns="http://www.w3.org/2000/svg" xmlns:xlink="http://www.w3.org/1999/xlink" x="0px" y="0px" width="24px"
	 height="24px" viewBox="0 0 24 24" enable-background="new 0 0 24 24" xml:space="preserve">
<g id="Filled_Icons">
	<g>
		<path d="M3.291,11.652c0.478,1.818,1.537,3.399,2.975,4.527l3.565-4.832c-0.311-0.281-0.546-0.637-0.685-1.041L3.291,11.652z"/>
		<path d="M13.981,9.307l5.936,1.355c0.053-0.381,0.089-0.767,0.089-1.161c0-3.347-1.949-6.238-4.767-7.624l-2.219,5.653
			C13.563,7.949,13.924,8.584,13.981,9.307z"/>
		<path d="M19.721,11.642l-5.865-1.338c-0.137,0.401-0.37,0.756-0.677,1.037l3.598,4.815C18.2,15.025,19.249,13.45,19.721,11.642z"
			/>
		<path d="M11.5,7c0.215,0,0.42,0.036,0.619,0.087l2.197-5.599C13.435,1.179,12.491,1,11.505,1c-1.016,0-1.986,0.189-2.89,0.517
			l2.258,5.574C11.074,7.037,11.282,7,11.5,7z"/>
		<path d="M15.956,16.728l-3.642-4.875C12.058,11.942,11.786,12,11.5,12c-0.282,0-0.549-0.058-0.802-0.144l-3.61,4.894
			C8.377,17.537,9.886,18,11.505,18C13.138,18,14.66,17.529,15.956,16.728z"/>
		<path d="M9.019,9.31c0.055-0.722,0.414-1.354,0.954-1.775L7.696,1.913C4.919,3.312,3.005,6.184,3.005,9.5
			c0,0.398,0.037,0.787,0.09,1.171L9.019,9.31z"/>
		<path d="M18,20v1.994h-1V20h-1v1.994h-1V20h-1v-1.35c-0.798,0.218-1.634,0.344-2.5,0.344S9.798,18.868,9,18.65V20H5
			c-1.103,0-2,0.896-2,2s0.897,1.994,2,1.994h13c1.103,0,2-0.891,2-1.994S19.103,20,18,20z"/>
	</g>
</g>
<g id="invisible_shape">
	<rect fill="none" width="24" height="24"/>
</g>
</svg>
