<?xml version="1.0" encoding="utf-8"?>
<!-- Generator: Adobe Illustrator 19.2.0, SVG Export Plug-In . SVG Version: 6.00 Build 0)  -->
<svg version="1.1" xmlns="http://www.w3.org/2000/svg" xmlns:xlink="http://www.w3.org/1999/xlink" x="0px" y="0px" width="24px"
	 height="24px" viewBox="0 0 24 24" enable-background="new 0 0 24 24" xml:space="preserve">
<g id="Filled_Icons">
	<g>
		<path d="M10.509,14.549c-1.66,0.658-2.486,1.957-2.486,3.481c0,2.196,1.78,3.977,3.977,3.977c2.196,0,3.977-1.78,3.977-3.977
			c0-3.21-2.311-6.233-5.469-6.961c1.803,1.327,1.702,3.9,0.994,4.973C11.016,15.642,10.583,15.207,10.509,14.549z"/>
		<rect x="2" y="18" width="4" height="2"/>
		<rect x="2" y="15" width="4" height="2"/>
		<path d="M18,23H6v-2H2v2.5C2,23.776,2.224,24,2.5,24h3.002H21.5c0.276,0,0.5-0.224,0.5-0.5V21h-4V23z"/>
		<rect x="2" y="12" width="4" height="2"/>
		<rect x="18" y="15" width="4" height="2"/>
		<rect x="18" y="12" width="4" height="2"/>
		<path d="M23.894,4.192C23.799,4.071,23.653,4,23.5,4h-23C0.346,4,0.2,4.071,0.106,4.192C0.011,4.313-0.023,4.472,0.015,4.621l1,4
			C1.07,8.844,1.27,9,1.5,9H2v2h4V9h12v2h4V9h0.5c0.229,0,0.429-0.156,0.485-0.379l1-4C24.022,4.472,23.989,4.313,23.894,4.192z"/>
		<rect x="18" y="18" width="4" height="2"/>
	</g>
</g>
<g id="invisible_shape">
	<rect fill="none" width="24" height="24"/>
</g>
</svg>
