<?xml version="1.0" encoding="utf-8"?>
<!-- Generator: Adobe Illustrator 19.2.0, SVG Export Plug-In . SVG Version: 6.00 Build 0)  -->
<svg version="1.1" xmlns="http://www.w3.org/2000/svg" xmlns:xlink="http://www.w3.org/1999/xlink" x="0px" y="0px" width="24px"
	 height="24px" viewBox="0 0 24 24" enable-background="new 0 0 24 24" xml:space="preserve">
<g id="Filled_Icons">
	<g>
		<path d="M12,8c-4.411,0-8,3.589-8,8s3.589,8,8,8s8-3.589,8-8S16.411,8,12,8z M12,20.5c-1.726,0-3.115-1.402-3.115-3.115
			c0-0.964,1.038-2.423,1.038-2.423s0.818,1.143,1.038,1.385c1.023-1.637,0.348-3.714,0-4.847c2.405,0.804,4.154,3.374,4.154,5.885
			C15.115,19.091,13.734,20.5,12,20.5z"/>
		<g>
			<path d="M3.5,9.5C3.224,9.5,3,9.276,3,9c0-3.308,2.691-6,6-6c0.276,0,0.5,0.224,0.5,0.5S9.276,4,9,4C6.243,4,4,6.243,4,9
				C4,9.276,3.776,9.5,3.5,9.5z"/>
		</g>
		<g>
			<path d="M0.5,9.5C0.224,9.5,0,9.276,0,9c0-4.962,4.037-9,9-9c0.276,0,0.5,0.224,0.5,0.5S9.276,1,9,1C4.589,1,1,4.589,1,9
				C1,9.276,0.776,9.5,0.5,9.5z"/>
		</g>
		<g>
			<path d="M20.5,9.5C20.224,9.5,20,9.276,20,9c0-2.757-2.243-5-5-5c-0.276,0-0.5-0.224-0.5-0.5S14.724,3,15,3c3.309,0,6,2.692,6,6
				C21,9.276,20.776,9.5,20.5,9.5z"/>
		</g>
		<g>
			<path d="M23.5,9.5C23.224,9.5,23,9.276,23,9c0-4.411-3.589-8-8-8c-0.276,0-0.5-0.224-0.5-0.5S14.724,0,15,0c4.962,0,9,4.038,9,9
				C24,9.276,23.776,9.5,23.5,9.5z"/>
		</g>
	</g>
</g>
<g id="invisible_shape">
	<rect fill="none" width="24" height="24"/>
</g>
</svg>
