<?xml version="1.0" encoding="utf-8"?>
<!-- Generator: Adobe Illustrator 19.2.0, SVG Export Plug-In . SVG Version: 6.00 Build 0)  -->
<svg version="1.1" xmlns="http://www.w3.org/2000/svg" xmlns:xlink="http://www.w3.org/1999/xlink" x="0px" y="0px" width="24px"
	 height="24px" viewBox="0 0 24 24" enable-background="new 0 0 24 24" xml:space="preserve">
<g id="Filled_Icons">
	<g>
		<path d="M22,11V9.5C22,9.224,21.776,9,21.5,9h-15C6.224,9,6,9.224,6,9.5V11H22z"/>
		<path d="M7.371,8h13.173c-0.576-2.626-2.655-4.712-5.254-5.266c0.105-0.208,0.171-0.441,0.171-0.691
			c0-0.852-0.692-1.544-1.543-1.544c-0.852,0-1.544,0.692-1.544,1.544c0,0.251,0.066,0.484,0.173,0.694
			C9.987,3.297,7.939,5.379,7.371,8z"/>
		<path d="M23.5,12h-19C4.224,12,4,12.224,4,12.5V16H3V9.969C3,8.608,1.893,7.5,0.531,7.5c-0.276,0-0.5,0.224-0.5,0.5
			c0,0.276,0.224,0.5,0.5,0.5C1.341,8.5,2,9.159,2,9.969V16.5C2,16.776,2.224,17,2.5,17H4v4.5C4,21.776,4.224,22,4.5,22H8v-4.999
			c0-0.276,0.224-0.5,0.5-0.5s0.5,0.224,0.5,0.5V22h4v-4.999c0-0.276,0.224-0.5,0.5-0.5s0.5,0.224,0.5,0.5V22h5v-4.999
			c0-0.276,0.224-0.5,0.5-0.5s0.5,0.224,0.5,0.5V22h3.5c0.276,0,0.5-0.224,0.5-0.5v-9C24,12.224,23.776,12,23.5,12z"/>
	</g>
	<path d="M17.512,23c0.456,0.604,1.174,1,1.988,1s1.532-0.396,1.988-1H17.512z"/>
	<path d="M6.512,23c0.456,0.604,1.174,1,1.988,1s1.532-0.396,1.988-1H6.512z"/>
</g>
<g id="invisible_shape">
	<rect fill="none" width="24" height="24"/>
</g>
</svg>
