<?xml version="1.0" encoding="utf-8"?>
<!-- Generator: Adobe Illustrator 19.2.0, SVG Export Plug-In . SVG Version: 6.00 Build 0)  -->
<svg version="1.1" xmlns="http://www.w3.org/2000/svg" xmlns:xlink="http://www.w3.org/1999/xlink" x="0px" y="0px" width="24px"
	 height="24px" viewBox="0 0 24 24" enable-background="new 0 0 24 24" xml:space="preserve">
<g id="Filled_Icons">
	<g>
		<path d="M6,3.884l-4.402-0.88c-0.148-0.027-0.3,0.01-0.415,0.103C1.067,3.203,1,3.345,1,3.494v8c0,0.15,0.067,0.292,0.183,0.387
			c0.09,0.074,0.203,0.113,0.317,0.113c0.032,0,0.065-0.003,0.098-0.009L6,11.104V3.884z"/>
		<path d="M17.5,13.994c-0.09,0-0.18-0.008-0.269-0.024l-1.597-0.29l-0.171,0.814H14.59l0.327-1.962l2.493,0.454
			c0.029,0.005,0.059,0.008,0.09,0.008c3.032,0,5.5-2.467,5.5-5.5c0-3.027-2.459-5.491-5.574-5.491c-0.005,0-0.011,0-0.016,0
			L7,3.895v7.197l6.934,1.261l-0.427,2.559c-0.024,0.146,0.017,0.293,0.112,0.405c0.095,0.112,0.234,0.177,0.381,0.177h1.252
			l-0.105,0.5H18.5c0.276,0,0.5,0.224,0.5,0.5c0,0.276-0.224,0.5-0.5,0.5h-3.564l-0.21,1H18c0.276,0,0.5,0.224,0.5,0.5
			c0,0.276-0.224,0.5-0.5,0.5h-3.484l-0.093,0.441c-0.142,0.671,0,1.309,0.397,1.8c0.398,0.49,0.994,0.76,1.68,0.76h2.274
			c1.229,0,2.293-0.917,2.473-2.133l1.21-8.174C21.265,13.097,19.486,13.994,17.5,13.994z M18,4.494c1.654,0,3,1.347,3,3
			c0,1.654-1.346,3-3,3s-3-1.346-3-3C15,5.841,16.346,4.494,18,4.494z"/>
	</g>
</g>
<g id="invisible_shape">
	<rect fill="none" width="24" height="24"/>
</g>
</svg>
