<?xml version="1.0" encoding="utf-8"?>
<!-- Generator: Adobe Illustrator 19.2.0, SVG Export Plug-In . SVG Version: 6.00 Build 0)  -->
<svg version="1.1" xmlns="http://www.w3.org/2000/svg" xmlns:xlink="http://www.w3.org/1999/xlink" x="0px" y="0px" width="24px"
	 height="24px" viewBox="0 0 24 24" enable-background="new 0 0 24 24" xml:space="preserve">
<g id="Filled_Icons">
	<g>
		<path d="M21.5,5H16V4c0-1.103-0.898-2-2-2h-4C8.896,2,8,2.897,8,4v1H2.5C1.121,5,0,6.121,0,7.5v12C0,20.878,1.121,22,2.5,22h19
			c1.378,0,2.5-1.122,2.5-2.5v-12C24,6.121,22.878,5,21.5,5z M15,17.5c-1.144,0-2.218-0.568-2.869-1.5H6.5
			c-0.133,0-0.26-0.052-0.353-0.146l-1.5-1.5c-0.195-0.194-0.195-0.511,0-0.707l1.5-1.5C6.24,12.053,6.367,12,6.5,12h5.631
			c0.651-0.932,1.725-1.5,2.869-1.5c1.93,0,3.5,1.57,3.5,3.5S16.93,17.5,15,17.5z M9,4c0-0.551,0.448-1,1-1h4c0.551,0,1,0.449,1,1v1
			H9V4z"/>
		<circle cx="15" cy="14" r="1"/>
	</g>
</g>
<g id="invisible_shape">
	<rect fill="none" width="24" height="24"/>
</g>
</svg>
