<?xml version="1.0" encoding="utf-8"?>
<!-- Generator: Adobe Illustrator 19.2.0, SVG Export Plug-In . SVG Version: 6.00 Build 0)  -->
<svg version="1.1" xmlns="http://www.w3.org/2000/svg" xmlns:xlink="http://www.w3.org/1999/xlink" x="0px" y="0px" width="24px"
	 height="24px" viewBox="0 0 24 24" enable-background="new 0 0 24 24" xml:space="preserve">
<g id="Filled_Icons">
	<g>
		<path d="M18,12.057v11.898c1.691-0.244,3-1.69,3-3.449v-5C21,13.747,19.691,12.302,18,12.057z"/>
		<path d="M3,15.506v5c0,1.759,1.309,3.205,3,3.449V12.057C4.309,12.302,3,13.747,3,15.506z"/>
		<path d="M15,11.506c0-1.378-1.122-2.5-2.5-2.5h-1c-1.378,0-2.5,1.122-2.5,2.5v0.5H8V24h8V12.006h-1V11.506z M14,12.006h-4v-0.5
			c0-0.827,0.673-1.5,1.5-1.5h1c0.827,0,1.5,0.673,1.5,1.5V12.006z"/>
		<path d="M22.5,3H9.252C8.634,1.209,6.939,0,5,0C2.519,0,0.5,2.019,0.5,4.5S2.519,9,5,9c1.919,0,3.611-1.222,4.243-3.016H14v1.5
			c0,0.276,0.224,0.5,0.5,0.5h2c0.276,0,0.5-0.224,0.5-0.5v-1.5h1v1.5c0,0.276,0.224,0.5,0.5,0.5h2c0.276,0,0.5-0.224,0.5-0.5v-1.5
			h1.5c0.827,0,1.5-0.673,1.5-1.5C24,3.657,23.327,2.984,22.5,3z M5,6.5c-1.103,0-2-0.897-2-2c0-1.102,0.897-2,2-2
			c1.102,0,2,0.898,2,2C7,5.603,6.102,6.5,5,6.5z"/>
	</g>
</g>
<g id="invisible_shape">
	<rect fill="none" width="24" height="24"/>
</g>
</svg>
