<?xml version="1.0" encoding="utf-8"?>
<!-- Generator: Adobe Illustrator 19.2.0, SVG Export Plug-In . SVG Version: 6.00 Build 0)  -->
<svg version="1.1" xmlns="http://www.w3.org/2000/svg" xmlns:xlink="http://www.w3.org/1999/xlink" x="0px" y="0px" width="24px"
	 height="24px" viewBox="0 0 24 24" enable-background="new 0 0 24 24" xml:space="preserve">
<g id="Filled_Icons">
	<path d="M21.5,10H21V9c0-0.276-0.224-0.5-0.5-0.5S20,8.724,20,9v1h-1.001C18.993,4.502,15.856,0.031,12,0.031S5.007,4.502,5,10H4V9
		c0-0.276-0.224-0.5-0.5-0.5S3,8.724,3,9v1H2.5C2.224,10,2,10.224,2,10.5S2.224,11,2.5,11H3v12.5C3,23.776,3.224,24,3.5,24
		S4,23.776,4,23.5V22h16v1.5c0,0.276,0.224,0.5,0.5,0.5s0.5-0.224,0.5-0.5V11h0.5c0.276,0,0.5-0.224,0.5-0.5S21.776,10,21.5,10z
		 M12,2.016c0.276,0,0.5,0.225,0.5,0.5c0,0.276-0.224,0.5-0.5,0.5c-2.154,0-3.974,3.204-3.974,6.996c0,0.276-0.224,0.5-0.5,0.5
		c-0.277,0-0.5-0.224-0.5-0.5C7.026,5.528,9.211,2.016,12,2.016z M20,21H4V11h1.035c0.348,5.045,3.338,9,6.965,9
		s6.617-3.955,6.965-9H20V21z"/>
</g>
<g id="invisible_shape">
	<rect fill="none" width="24" height="24"/>
</g>
</svg>
