<?xml version="1.0" encoding="utf-8"?>
<!-- Generator: Adobe Illustrator 19.2.0, SVG Export Plug-In . SVG Version: 6.00 Build 0)  -->
<svg version="1.1" xmlns="http://www.w3.org/2000/svg" xmlns:xlink="http://www.w3.org/1999/xlink" x="0px" y="0px" width="24px"
	 height="24px" viewBox="0 0 24 24" enable-background="new 0 0 24 24" xml:space="preserve">
<g id="Filled_Icons">
	<path d="M21.251,19.635C22.967,17.559,24,14.898,24,12c0-6.616-5.384-12-12-12C5.383,0,0,5.384,0,12
		c0,6.768,5.659,12.346,12.648,11.967l-0.956-3.21l8.245-4.161L21.251,19.635z M11.403,19.783l-0.81-2.72
		c-1.364-0.153-0.697-0.054-2.237-0.358C6.116,16.266,4,15.852,4,12.848c0-1.893,1.353-3.504,3.22-3.829l3.7-0.807l1.655-4.227
		c0.1-0.255,0.387-0.381,0.641-0.285c2.724,1.02,4.266,5.792,4.481,7.715l1.843,4.263L11.403,19.783z"/>
</g>
<g id="invisible_shape">
	<rect fill="none" width="24" height="24"/>
</g>
</svg>
