<?xml version="1.0" encoding="utf-8"?>
<!-- Generator: Adobe Illustrator 19.2.0, SVG Export Plug-In . SVG Version: 6.00 Build 0)  -->
<svg version="1.1" xmlns="http://www.w3.org/2000/svg" xmlns:xlink="http://www.w3.org/1999/xlink" x="0px" y="0px" width="24px"
	 height="24px" viewBox="0 0 24 24" enable-background="new 0 0 24 24" xml:space="preserve">
<g id="Filled_Icons">
	<g>
		<path d="M21.5,5H11.102l4.104-4.104c0.195-0.194,0.195-0.511,0-0.707c-0.195-0.195-0.512-0.195-0.707,0L9.689,5H9.373L4.562,0.189
			c-0.195-0.195-0.512-0.195-0.707,0c-0.195,0.196-0.195,0.513,0,0.707L7.959,5H2.5C1.122,5,0,6.122,0,7.5v14
			C0,22.88,1.122,24,2.5,24h19c1.378,0,2.5-1.12,2.5-2.5v-14C24,6.122,22.878,5,21.5,5z M17.5,17.5c0,2.482-2.019,4.5-4.5,4.5H6
			c-2.481,0-4.5-2.018-4.5-4.5v-6C1.5,9.019,3.519,7,6,7h7c2.481,0,4.5,2.019,4.5,4.5V17.5z M22,21.5c0,0.276-0.224,0.5-0.5,0.5h-2
			c-0.276,0-0.5-0.224-0.5-0.5v-3c0-0.276,0.224-0.5,0.5-0.5h2c0.276,0,0.5,0.224,0.5,0.5V21.5z M22,16.5c0,0.276-0.224,0.5-0.5,0.5
			h-2c-0.276,0-0.5-0.224-0.5-0.5v-8C19,8.224,19.224,8,19.5,8h2C21.776,8,22,8.224,22,8.5V16.5z"/>
		<g>
			<path d="M10.878,12.415c-2.249-1.496-4.964,1.202-3.463,3.465L10.878,12.415z"/>
			<path d="M11.585,13.122l-3.459,3.461C10.415,18.047,13.076,15.37,11.585,13.122z"/>
			<path d="M9.5,10C7.019,10,5,12.007,5,14.5C5,16.98,7.006,19,9.499,19C11.989,19,14,16.983,14,14.5C14,12.016,11.987,10,9.5,10z
				 M9.499,18C7.55,18,6,16.418,6,14.5c0-4.578,7-4.597,7,0C13,16.434,11.435,18,9.499,18z"/>
		</g>
	</g>
</g>
<g id="invisible_shape">
	<rect fill="none" width="24" height="24"/>
</g>
</svg>
