<?xml version="1.0" encoding="utf-8"?>
<!-- Generator: Adobe Illustrator 19.2.0, SVG Export Plug-In . SVG Version: 6.00 Build 0)  -->
<svg version="1.1" xmlns="http://www.w3.org/2000/svg" xmlns:xlink="http://www.w3.org/1999/xlink" x="0px" y="0px" width="24px"
	 height="24px" viewBox="0 0 24 24" enable-background="new 0 0 24 24" xml:space="preserve">
<g id="Filled_Icons">
	<g>
		<path d="M4.5,14h0.523H16v-3H4.5C4.224,11,4,11.224,4,11.5v2C4,13.776,4.224,14,4.5,14z"/>
		<path d="M17,14h6v-0.091c0.581-0.208,1-0.758,1-1.409v-10C24,1.122,22.878,0,21.5,0h-2C18.122,0,17,1.122,17,2.5V6v5V14z
			 M20.5,2.5C21.327,2.5,22,3.173,22,4s-0.673,1.5-1.5,1.5S19,4.827,19,4S19.673,2.5,20.5,2.5z"/>
		<path d="M5.173,15c0.517,2.11,2.298,3.728,4.501,3.969l-0.668,4.458c-0.022,0.142,0.021,0.29,0.116,0.4
			C9.216,23.937,9.354,24,9.5,24h10c0.276,0,0.5-0.224,0.5-0.5v-5.734l2.777-1.85C22.916,15.823,23,15.668,23,15.5V15H5.173z"/>
	</g>
</g>
<g id="invisible_shape">
	<rect fill="none" width="24" height="24"/>
</g>
</svg>
