<?xml version="1.0" encoding="utf-8"?>
<!-- Generator: Adobe Illustrator 16.0.3, SVG Export Plug-In . SVG Version: 6.00 Build 0)  -->
<!DOCTYPE svg PUBLIC "-//W3C//DTD SVG 1.1//EN" "http://www.w3.org/Graphics/SVG/1.1/DTD/svg11.dtd">
<svg version="1.1" xmlns="http://www.w3.org/2000/svg" xmlns:xlink="http://www.w3.org/1999/xlink" x="0px" y="0px" width="24px"
	 height="24px" viewBox="0 0 24 24" enable-background="new 0 0 24 24" xml:space="preserve">
<g id="Outline_Icons">
	<g>
		<polyline fill="none" stroke="#000000" stroke-linejoin="round" stroke-miterlimit="10" points="14.517,13.517 22.649,4.593 
			18.699,1.528 19.078,4.301 16.247,4.688 16.626,7.462 13.769,7.812 14.148,10.5 9.843,10.5 10.222,7.812 7.365,7.427 7.745,4.671 
			4.914,4.292 5.292,1.523 1.342,4.591 9.457,13.516 		"/>
		<path fill="none" stroke="#000000" stroke-linejoin="round" stroke-miterlimit="10" d="M18.555,21.66c0,0,4.94,2.888,4.94-2.675
			c0-3.75-4.307-3.337-3.5-6.969C20.455,9.95,22.615,9.543,24,9.5"/>
		<polygon fill="none" stroke="#000000" stroke-linejoin="round" stroke-miterlimit="10" points="20.214,20.412 14.517,13.5 
			9.474,13.5 3.777,20.412 6.938,22.792 11.996,16.661 17.052,22.792 		"/>
	</g>
</g>
<g id="invisible_shape">
	<rect fill="none" width="24" height="24"/>
</g>
</svg>
