<?xml version="1.0" encoding="utf-8"?>
<!-- Generator: Adobe Illustrator 16.0.3, SVG Export Plug-In . SVG Version: 6.00 Build 0)  -->
<!DOCTYPE svg PUBLIC "-//W3C//DTD SVG 1.1//EN" "http://www.w3.org/Graphics/SVG/1.1/DTD/svg11.dtd">
<svg version="1.1" xmlns="http://www.w3.org/2000/svg" xmlns:xlink="http://www.w3.org/1999/xlink" x="0px" y="0px" width="24px"
	 height="24px" viewBox="0 0 24 24" enable-background="new 0 0 24 24" xml:space="preserve">
<g id="Outline_Icons">
	<g>
		<path fill="none" stroke="#000000" stroke-linecap="round" stroke-linejoin="round" stroke-miterlimit="10" d="M3.349,20.493
			C1.601,19.084,0.5,17.02,0.5,14.495h6c1.381,0,2.5,0.619,2.5,2.005h14.5c0,1.517-0.566,2.906-1.5,3.963"/>
		<path fill="none" stroke="#000000" stroke-linecap="round" stroke-linejoin="round" stroke-miterlimit="10" d="M6.5,14.495v-6h5
			c1.381,0,2.5,1.619,2.5,3h6.5v5"/>
		<polyline fill="none" stroke="#000000" stroke-linecap="round" stroke-linejoin="round" stroke-miterlimit="10" points="
			8.5,8.495 8.5,4.495 13.5,4.495 13.5,9.495 		"/>
		
			<line fill="none" stroke="#000000" stroke-linecap="round" stroke-linejoin="round" stroke-miterlimit="10" x1="8.5" y1="6.495" x2="13.5" y2="6.495"/>
		<path fill="none" stroke="#000000" stroke-linecap="round" stroke-linejoin="round" stroke-miterlimit="10" d="M23,0.995
			c-0.425,1.455-1.908,2.5-3.5,2.5c-0.979,0-1.865-0.402-2.501-1.051C16.396,1.828,15.989,0.995,15,0.995c-1.104,0-2,0.896-2,2"/>
		<path fill="none" stroke="#000000" stroke-linecap="round" stroke-linejoin="round" stroke-miterlimit="10" d="M10.5,2.995
			c0-0.817,0.393-1.544,1-2"/>
		
			<line fill="none" stroke="#000000" stroke-linecap="round" stroke-linejoin="round" stroke-miterlimit="10" x1="20.5" y1="11.495" x2="21.5" y2="11.495"/>
		<path fill="none" stroke="#000000" stroke-linecap="round" stroke-linejoin="round" stroke-miterlimit="10" d="M7.247,21.746
			c-0.469,0.751-1.302,1.25-2.251,1.249c-0.95,0.001-1.785-0.501-2.253-1.254"/>
		<path fill="none" stroke="#000000" stroke-linecap="round" stroke-linejoin="round" stroke-miterlimit="10" d="M11.747,21.746
			c-0.469,0.751-1.302,1.25-2.251,1.249c-0.95,0.001-1.785-0.501-2.253-1.254"/>
		<path fill="none" stroke="#000000" stroke-linecap="round" stroke-linejoin="round" stroke-miterlimit="10" d="M16.243,21.746
			c-0.469,0.751-1.302,1.25-2.251,1.249c-0.95,0.001-1.785-0.501-2.253-1.254"/>
		<path fill="none" stroke="#000000" stroke-linecap="round" stroke-linejoin="round" stroke-miterlimit="10" d="M20.743,21.746
			c-0.469,0.751-1.302,1.25-2.251,1.249c-0.95,0.001-1.785-0.501-2.253-1.254"/>
		<path fill="none" stroke="#000000" stroke-linecap="round" stroke-linejoin="round" stroke-miterlimit="10" d="M22.996,22.995
			c-0.95,0.001-1.785-0.501-2.253-1.254"/>
		<path fill="none" stroke="#000000" stroke-linecap="round" stroke-linejoin="round" stroke-miterlimit="10" d="M2.751,21.746
			c-0.469,0.751-1.302,1.25-2.251,1.249"/>
		<polyline fill="none" stroke="#000000" stroke-linecap="round" stroke-linejoin="round" stroke-miterlimit="10" points="
			6.5,12.495 10.5,12.495 10.5,10.495 6.5,10.495 		"/>
		<polyline fill="none" stroke="#000000" stroke-linecap="round" stroke-linejoin="round" stroke-miterlimit="10" points="
			15.5,11.495 15.5,13.495 20.5,13.495 		"/>
		
			<line fill="none" stroke="#000000" stroke-linecap="round" stroke-linejoin="round" stroke-miterlimit="10" x1="18.5" y1="13.5" x2="18.5" y2="11.5"/>
		<line fill="none" stroke="#000000" stroke-linejoin="round" stroke-miterlimit="10" x1="1.591" y1="18.5" x2="23.157" y2="18.5"/>
	</g>
</g>
<g id="invisible_shape">
	<rect fill="none" width="24" height="24"/>
</g>
</svg>
