<?xml version="1.0" encoding="utf-8"?>
<!-- Generator: Adobe Illustrator 16.0.3, SVG Export Plug-In . SVG Version: 6.00 Build 0)  -->
<!DOCTYPE svg PUBLIC "-//W3C//DTD SVG 1.1//EN" "http://www.w3.org/Graphics/SVG/1.1/DTD/svg11.dtd">
<svg version="1.1" xmlns="http://www.w3.org/2000/svg" xmlns:xlink="http://www.w3.org/1999/xlink" x="0px" y="0px" width="24px"
	 height="24px" viewBox="0 0 24 24" enable-background="new 0 0 24 24" xml:space="preserve">
<g id="Outline_Icons">
	<g>
		<path fill="none" stroke="#000000" stroke-linecap="round" stroke-linejoin="round" stroke-miterlimit="10" d="M1.501,21.497
			C0.872,20.661,0.5,19.621,0.5,18.495h23c0,1.126-0.372,2.165-1,3"/>
		<path fill="none" stroke="#000000" stroke-linecap="round" stroke-linejoin="round" stroke-miterlimit="10" d="M23.5,18.495v-12.5
			c0-1.381-1.119-2.5-2.5-2.5h-2.5v15"/>
		<polyline fill="none" stroke="#000000" stroke-linecap="round" stroke-linejoin="round" stroke-miterlimit="10" points="
			18.5,5.495 22,5.495 22,8.5 18.5,8.5 		"/>
		
			<line fill="none" stroke="#000000" stroke-linecap="round" stroke-linejoin="round" stroke-miterlimit="10" x1="23.5" y1="6" x2="23.5" y2="1.495"/>
		
			<line fill="none" stroke="#000000" stroke-linecap="round" stroke-linejoin="round" stroke-miterlimit="10" x1="1.5" y1="14.495" x2="18.5" y2="14.495"/>
		
			<line fill="none" stroke="#000000" stroke-linecap="round" stroke-linejoin="round" stroke-miterlimit="10" x1="10.5" y1="10.495" x2="10.5" y2="18.495"/>
		
			<line fill="none" stroke="#000000" stroke-linecap="round" stroke-linejoin="round" stroke-miterlimit="10" x1="14.5" y1="14.495" x2="14.5" y2="18.495"/>
		
			<line fill="none" stroke="#000000" stroke-linecap="round" stroke-linejoin="round" stroke-miterlimit="10" x1="5.5" y1="10.495" x2="5.5" y2="14.495"/>
		<path fill="none" stroke="#000000" stroke-linecap="round" stroke-linejoin="round" stroke-miterlimit="10" d="M7.247,22.246
			c-0.469,0.751-1.302,1.25-2.251,1.249c-0.95,0.001-1.785-0.501-2.253-1.254"/>
		<path fill="none" stroke="#000000" stroke-linecap="round" stroke-linejoin="round" stroke-miterlimit="10" d="M11.747,22.246
			c-0.469,0.751-1.302,1.25-2.251,1.249c-0.95,0.001-1.785-0.501-2.253-1.254"/>
		<path fill="none" stroke="#000000" stroke-linecap="round" stroke-linejoin="round" stroke-miterlimit="10" d="M16.243,22.246
			c-0.469,0.751-1.302,1.25-2.251,1.249c-0.95,0.001-1.785-0.501-2.253-1.254"/>
		<path fill="none" stroke="#000000" stroke-linecap="round" stroke-linejoin="round" stroke-miterlimit="10" d="M20.743,22.246
			c-0.469,0.751-1.302,1.25-2.251,1.249c-0.95,0.001-1.785-0.501-2.253-1.254"/>
		<path fill="none" stroke="#000000" stroke-linecap="round" stroke-linejoin="round" stroke-miterlimit="10" d="M22.996,23.495
			c-0.95,0.001-1.785-0.501-2.253-1.254"/>
		<path fill="none" stroke="#000000" stroke-linecap="round" stroke-linejoin="round" stroke-miterlimit="10" d="M2.751,22.246
			c-0.469,0.751-1.302,1.25-2.251,1.249"/>
		
			<line fill="none" stroke="#000000" stroke-linecap="round" stroke-linejoin="round" stroke-miterlimit="10" x1="8" y1="0.995" x2="8.009" y2="5.8"/>
		<path fill="none" stroke="#000000" stroke-linecap="round" stroke-linejoin="round" stroke-miterlimit="10" d="M7.271,7.495
			C7.103,7.314,7,7.074,7,6.809C7,6.251,7.451,5.8,8.009,5.8s1.009,0.451,1.009,1.009c0,0.257-0.097,0.492-0.255,0.671"/>
		<path fill="none" stroke="#000000" stroke-linecap="round" stroke-linejoin="round" stroke-miterlimit="10" d="M1.5,18.495v-8h17
			v-0.5L8.828,0.617C8.74,0.541,8.625,0.495,8.5,0.495c-0.276,0-0.5,0.224-0.5,0.5c0,0.139,0.056,0.264,0.146,0.354l6.354,9.146"/>
	</g>
</g>
<g id="invisible_shape">
	<rect fill="none" width="24" height="24"/>
</g>
</svg>
