<?xml version="1.0" encoding="utf-8"?>
<!-- Generator: Adobe Illustrator 16.0.3, SVG Export Plug-In . SVG Version: 6.00 Build 0)  -->
<!DOCTYPE svg PUBLIC "-//W3C//DTD SVG 1.1//EN" "http://www.w3.org/Graphics/SVG/1.1/DTD/svg11.dtd">
<svg version="1.1" xmlns="http://www.w3.org/2000/svg" xmlns:xlink="http://www.w3.org/1999/xlink" x="0px" y="0px" width="24px"
	 height="24px" viewBox="0 0 24 24" enable-background="new 0 0 24 24" xml:space="preserve">
<g id="Outline_Icons">
	<g>
		<g>
			
				<line fill="none" stroke="#000000" stroke-linecap="round" stroke-linejoin="round" stroke-miterlimit="10" x1="2" y1="2.5" x2="21" y2="2.5"/>
			<polyline fill="none" stroke="#000000" stroke-linejoin="round" stroke-miterlimit="10" points="14.934,21.454 18,16.5 
				11.5,14.5 5,16.5 8.099,21.442 			"/>
			<path fill="none" stroke="#000000" stroke-linejoin="round" stroke-miterlimit="10" d="M4,2.5h15l2,9
				c-5.492,1.341-13.158,1.326-19,0L4,2.5z"/>
			
				<line fill="none" stroke="#000000" stroke-linecap="round" stroke-linejoin="round" stroke-miterlimit="10" x1="11.5" y1="14.5" x2="11.5" y2="12.5"/>
			
				<line fill="none" stroke="#000000" stroke-linecap="round" stroke-linejoin="round" stroke-miterlimit="10" x1="11.5" y1="2.482" x2="11.5" y2="0.482"/>
		</g>
		<path fill="none" stroke="#000000" stroke-linecap="round" stroke-linejoin="round" stroke-miterlimit="10" d="M0.5,21.5
			c2.451,0.521,4.5-2,4.5-2s1.159,1.979,3.493,1.979C10.928,21.479,12,19.5,12,19.5s1.058,1.979,3.493,1.979
			C17.828,21.479,19,19.5,19,19.5s2.049,2.521,4.5,2v2h-23V21.5z"/>
	</g>
</g>
<g id="invisible_shape">
	<rect fill="none" width="24" height="24"/>
</g>
</svg>
