<?xml version="1.0" encoding="utf-8"?>
<!-- Generator: Adobe Illustrator 16.0.3, SVG Export Plug-In . SVG Version: 6.00 Build 0)  -->
<!DOCTYPE svg PUBLIC "-//W3C//DTD SVG 1.1//EN" "http://www.w3.org/Graphics/SVG/1.1/DTD/svg11.dtd">
<svg version="1.1" xmlns="http://www.w3.org/2000/svg" xmlns:xlink="http://www.w3.org/1999/xlink" x="0px" y="0px" width="24px"
	 height="24px" viewBox="0 0 24 24" enable-background="new 0 0 24 24" xml:space="preserve">
<g id="Outline_Icons">
	<g>
		<path fill="none" stroke="#000000" stroke-linecap="round" stroke-linejoin="round" stroke-miterlimit="10" d="M6.999,12.495H5v-3
			c-2.485,0-4.5,2.015-4.5,4.5c0,1.493,0.727,2.815,1.846,3.635"/>
		<path fill="none" stroke="#000000" stroke-linecap="round" stroke-linejoin="round" stroke-miterlimit="10" d="M21.376,17.817
			c1.275-0.794,2.124-2.209,2.124-3.822c0-2.485-2.015-4.5-4.5-4.5v3h-4.501"/>
		<path fill="none" stroke="#000000" stroke-linecap="round" stroke-linejoin="round" stroke-miterlimit="10" d="M7.251,20.25
			C6.782,21.002,5.949,21.5,5,21.5c-0.95,0-1.785-0.501-2.253-1.254"/>
		<path fill="none" stroke="#000000" stroke-linecap="round" stroke-linejoin="round" stroke-miterlimit="10" d="M11.751,20.25
			c-0.469,0.752-1.302,1.25-2.251,1.25c-0.95,0-1.785-0.501-2.253-1.254"/>
		<path fill="none" stroke="#000000" stroke-linecap="round" stroke-linejoin="round" stroke-miterlimit="10" d="M16.247,20.25
			c-0.469,0.752-1.302,1.25-2.251,1.25c-0.95,0-1.785-0.501-2.253-1.254"/>
		<path fill="none" stroke="#000000" stroke-linecap="round" stroke-linejoin="round" stroke-miterlimit="10" d="M20.747,20.25
			c-0.469,0.752-1.302,1.25-2.251,1.25c-0.95,0-1.785-0.501-2.253-1.254"/>
		<path fill="none" stroke="#000000" stroke-linecap="round" stroke-linejoin="round" stroke-miterlimit="10" d="M23,21.5
			c-0.95,0-1.785-0.501-2.253-1.254"/>
		<path fill="none" stroke="#000000" stroke-linecap="round" stroke-linejoin="round" stroke-miterlimit="10" d="M2.755,20.25
			c-0.469,0.752-1.302,1.25-2.251,1.25"/>
		<polyline fill="none" stroke="#000000" stroke-linecap="round" stroke-linejoin="round" stroke-miterlimit="10" points="
			13.5,14.495 21,14.495 21,9.995 		"/>
		<polyline fill="none" stroke="#000000" stroke-linecap="round" stroke-linejoin="round" stroke-miterlimit="10" points="3,9.995 
			3,14.495 4.999,14.495 		"/>
		<path fill="none" stroke="#000000" stroke-linecap="round" stroke-linejoin="round" stroke-miterlimit="10" d="M11.242,14.874
			c0.586-0.586,0.586-1.535,0-2.121c-0.585-0.586-1.535-0.586-2.121,0L7,14.874l2.121,2.121L11.242,14.874z"/>
		
			<line fill="none" stroke="#000000" stroke-linecap="round" stroke-linejoin="round" stroke-miterlimit="10" x1="11.5" y1="12.313" x2="16" y2="7.813"/>
		
			<line fill="none" stroke="#000000" stroke-linecap="round" stroke-linejoin="round" stroke-miterlimit="10" x1="15" y1="6.813" x2="17" y2="8.813"/>
		<path fill="none" stroke="#000000" stroke-linecap="round" stroke-linejoin="round" stroke-miterlimit="10" d="M7.251,17.246
			C6.782,17.997,5.949,18.496,5,18.495c-0.95,0.001-1.785-0.501-2.253-1.254"/>
		<path fill="none" stroke="#000000" stroke-linecap="round" stroke-linejoin="round" stroke-miterlimit="10" d="M11.751,17.246
			c-0.469,0.751-1.302,1.25-2.251,1.249c-0.95,0.001-1.785-0.501-2.253-1.254"/>
		<path fill="none" stroke="#000000" stroke-linecap="round" stroke-linejoin="round" stroke-miterlimit="10" d="M16.247,17.246
			c-0.469,0.751-1.302,1.25-2.251,1.249c-0.95,0.001-1.785-0.501-2.253-1.254"/>
		<path fill="none" stroke="#000000" stroke-linecap="round" stroke-linejoin="round" stroke-miterlimit="10" d="M20.747,17.246
			c-0.469,0.751-1.302,1.25-2.251,1.249c-0.95,0.001-1.785-0.501-2.253-1.254"/>
		<path fill="none" stroke="#000000" stroke-linecap="round" stroke-linejoin="round" stroke-miterlimit="10" d="M23,18.495
			c-0.95,0.001-1.785-0.501-2.253-1.254"/>
		<path fill="none" stroke="#000000" stroke-linecap="round" stroke-linejoin="round" stroke-miterlimit="10" d="M2.755,17.246
			c-0.469,0.751-1.302,1.25-2.251,1.249"/>
	</g>
</g>
<g id="invisible_shape">
	<rect fill="none" width="24" height="24"/>
</g>
</svg>
