<?xml version="1.0" encoding="utf-8"?>
<!-- Generator: Adobe Illustrator 16.0.3, SVG Export Plug-In . SVG Version: 6.00 Build 0)  -->
<!DOCTYPE svg PUBLIC "-//W3C//DTD SVG 1.1//EN" "http://www.w3.org/Graphics/SVG/1.1/DTD/svg11.dtd">
<svg version="1.1" xmlns="http://www.w3.org/2000/svg" xmlns:xlink="http://www.w3.org/1999/xlink" x="0px" y="0px" width="24px"
	 height="24px" viewBox="0 0 24 24" enable-background="new 0 0 24 24" xml:space="preserve">
<g id="Outline_Icons">
	<g>
		<path fill="none" stroke="#000000" stroke-linecap="round" stroke-linejoin="round" stroke-miterlimit="10" d="M14.5,21.5h5
			c2.209,0,4-1.791,4-4c-0.019-2.804-3.102-4.554-5.505-3.075l-4.126,2.539c-1.115,0.687-2.547,0.734-3.702,0.023l-4.165-2.562
			C3.606,12.95,0.519,14.698,0.5,17.5c0,2.209,1.791,4,4,4h5"/>
		<g>
			<path fill="none" stroke="#000000" stroke-linecap="round" stroke-linejoin="round" stroke-miterlimit="10" d="M18.402,14.212
				C16.943,12.871,14.622,12,12,12c-2.623,0-4.943,0.871-6.402,2.212"/>
		</g>
		
			<circle fill="none" stroke="#000000" stroke-linecap="round" stroke-linejoin="round" stroke-miterlimit="10" cx="4" cy="17.5" r="1.5"/>
		
			<circle fill="none" stroke="#000000" stroke-linecap="round" stroke-linejoin="round" stroke-miterlimit="10" cx="20" cy="17.5" r="1.5"/>
		
			<rect x="9.5" y="19.5" fill="none" stroke="#000000" stroke-linecap="round" stroke-linejoin="round" stroke-miterlimit="10" width="5" height="3"/>
		<g>
			<g>
				<path d="M12,15c-0.276,0-0.5,0.224-0.5,0.5S11.723,16,12,16c0.276,0,0.5-0.224,0.5-0.5S12.275,15,12,15L12,15z"/>
			</g>
		</g>
		<path fill="none" stroke="#000000" stroke-linecap="round" stroke-linejoin="round" stroke-miterlimit="10" d="M5,14l0.866-5.486
			C5.943,8.027,6.362,7.5,6.854,7.5h10.292c0.49,0,0.91,0.527,0.986,1.014L19,14"/>
		<polyline fill="none" stroke="#000000" stroke-linecap="round" stroke-linejoin="round" stroke-miterlimit="10" points="
			3.5,21.375 3.5,23.5 6.5,23.5 6.5,21.5 		"/>
		<polyline fill="none" stroke="#000000" stroke-linecap="round" stroke-linejoin="round" stroke-miterlimit="10" points="
			17.5,21.5 17.5,23.5 20.5,23.5 20.5,21.375 		"/>
	</g>
</g>
<g id="invisible_shape">
	<rect fill="none" width="24" height="24"/>
</g>
</svg>
