<?xml version="1.0" encoding="utf-8"?>
<!-- Generator: Adobe Illustrator 16.0.3, SVG Export Plug-In . SVG Version: 6.00 Build 0)  -->
<!DOCTYPE svg PUBLIC "-//W3C//DTD SVG 1.1//EN" "http://www.w3.org/Graphics/SVG/1.1/DTD/svg11.dtd">
<svg version="1.1" xmlns="http://www.w3.org/2000/svg" xmlns:xlink="http://www.w3.org/1999/xlink" x="0px" y="0px" width="24px"
	 height="24px" viewBox="0 0 24 24" enable-background="new 0 0 24 24" xml:space="preserve">
<g id="Outline_Icons">
	<g>
		<g>
			<g>
				<polyline fill="none" stroke="#000000" stroke-linecap="round" stroke-linejoin="round" stroke-miterlimit="10" points="
					0.5,9.001 3.5,13.501 7,9.501 				"/>
				<path fill="none" stroke="#000000" stroke-linecap="round" stroke-linejoin="round" stroke-miterlimit="10" d="M3.531,13.438
					C2.78,7.223,7.406,2.7,12.649,2.507c5.243-0.192,9.65,3.901,9.843,9.145s-3.901,9.65-9.144,9.843
					c-3.942,0.146-7.411-2.133-8.973-5.501"/>
			</g>
			<line fill="none" stroke="#000000" stroke-linejoin="round" stroke-miterlimit="10" x1="10" y1="15.5" x2="16" y2="15.5"/>
			<path fill="none" stroke="#000000" stroke-linecap="round" stroke-linejoin="round" stroke-miterlimit="10" d="M18,17.5
				c-1.104,0-2-0.896-2-2c0-1.104,0.896-2,2-2"/>
			<path fill="none" stroke="#000000" stroke-linecap="round" stroke-linejoin="round" stroke-miterlimit="10" d="M8,13.5
				c1.104,0,2,0.896,2,2c0,1.104-0.896,2-2,2"/>
		</g>
		<polyline fill="none" stroke="#000000" stroke-linecap="round" stroke-linejoin="round" stroke-miterlimit="10" points="
			15.5,11.5 15.5,7.5 13.5,10 15.5,10 		"/>
		<path fill="none" stroke="#000000" stroke-linecap="round" stroke-linejoin="round" stroke-miterlimit="10" d="M10.088,8.414
			c0.021-0.509,0.44-0.914,0.956-0.914C11.572,7.5,12,7.927,12,8.453c0,0.273-0.109,0.451-0.184,0.562l-1.74,2.485h1.913"/>
	</g>
</g>
<g id="invisible_shape">
	<rect fill="none" width="24" height="24"/>
</g>
</svg>
