<?xml version="1.0" encoding="utf-8"?>
<!-- Generator: Adobe Illustrator 16.0.3, SVG Export Plug-In . SVG Version: 6.00 Build 0)  -->
<!DOCTYPE svg PUBLIC "-//W3C//DTD SVG 1.1//EN" "http://www.w3.org/Graphics/SVG/1.1/DTD/svg11.dtd">
<svg version="1.1" xmlns="http://www.w3.org/2000/svg" xmlns:xlink="http://www.w3.org/1999/xlink" x="0px" y="0px" width="24px"
	 height="24px" viewBox="0 0 24 24" enable-background="new 0 0 24 24" xml:space="preserve">
<g id="Outline_Icons">
	<g>
		
			<rect x="3.5" y="14.5" fill="none" stroke="#000000" stroke-linecap="round" stroke-linejoin="round" stroke-miterlimit="10" width="3" height="2"/>
		<polyline fill="none" stroke="#000000" stroke-linecap="round" stroke-linejoin="round" stroke-miterlimit="10" points="
			21.5,10.5 19.5,8.5 4.5,8.5 2.5,10.5 2.5,14.5 10.955,14.5 		"/>
		<polygon fill="none" stroke="#000000" stroke-linecap="round" stroke-linejoin="round" stroke-miterlimit="10" points="17.5,3.5 
			6.5,3.5 4.5,8.5 19.5,8.5 		"/>
		
			<line fill="none" stroke="#000000" stroke-linecap="round" stroke-linejoin="round" stroke-miterlimit="10" x1="2.5" y1="12.5" x2="7" y2="12.5"/>
		<g>
			<path fill="none" stroke="#000000" stroke-linejoin="round" stroke-miterlimit="10" d="M12.5,21.012c0,0.75-0.671,1.5-1.5,1.5
				c-0.828,0-1.5-0.67-1.5-1.5c0-0.828,0.672-1.512,1.5-1.512c1.146,0,0.359,0,1.5,0C12.5,20,12.5,20.457,12.5,21.012z"/>
			<path fill="none" stroke="#000000" stroke-linejoin="round" stroke-miterlimit="10" d="M18.5,17.994c0,0.75-0.671,1.5-1.5,1.5
				c-0.828,0-1.5-0.672-1.5-1.5S16.171,16.5,17,16.5c0.273,0,1.25,0,1.5,0C18.5,17,18.5,17.494,18.5,17.994z"/>
			<polyline fill="none" stroke="#000000" stroke-linejoin="round" stroke-miterlimit="10" points="12.5,20 12.5,13.297 
				18.5,10.518 18.5,17 			"/>
		</g>
	</g>
</g>
<g id="invisible_shape">
	<rect fill="none" width="24" height="24"/>
</g>
</svg>
