<?xml version="1.0" encoding="utf-8"?>
<!-- Generator: Adobe Illustrator 16.0.3, SVG Export Plug-In . SVG Version: 6.00 Build 0)  -->
<!DOCTYPE svg PUBLIC "-//W3C//DTD SVG 1.1//EN" "http://www.w3.org/Graphics/SVG/1.1/DTD/svg11.dtd">
<svg version="1.1" xmlns="http://www.w3.org/2000/svg" xmlns:xlink="http://www.w3.org/1999/xlink" x="0px" y="0px" width="24px"
	 height="24px" viewBox="0 0 24 24" enable-background="new 0 0 24 24" xml:space="preserve">
<g id="Outline_Icons">
	<g>
		<path fill="none" stroke="#000000" stroke-linejoin="round" stroke-miterlimit="10" d="M9.143,17.938
			c-1.562,1.562-4.095,1.562-5.656,0l-1.415-1.413c-1.562-1.562-1.562-4.096,0-5.657l4.95-4.949c1.562-1.562,4.095-1.562,5.656,0
			l1.415,1.414c1.562,1.562,1.562,4.095,0,5.656L9.143,17.938z"/>
		<path fill="none" stroke="#000000" stroke-linejoin="round" stroke-miterlimit="10" d="M10.911,4.856l-6.01,6.011
			c-0.781,0.781-0.781,2.048,0,2.828l1.414,1.415c0.781,0.78,2.047,0.78,2.828,0L15.154,9.1"/>
		
			<rect x="6.729" y="11.281" transform="matrix(0.7071 0.7071 -0.7071 0.7071 10.9479 -1.8681)" fill="none" stroke="#000000" stroke-linejoin="round" stroke-miterlimit="10" width="2" height="2"/>
		
			<rect x="9.557" y="8.453" transform="matrix(0.7071 0.7071 -0.7071 0.7071 9.7765 -4.6963)" fill="none" stroke="#000000" stroke-linejoin="round" stroke-miterlimit="10" width="2" height="2"/>
		<circle fill="none" stroke="#000000" stroke-linejoin="round" stroke-miterlimit="10" cx="15.5" cy="4.5" r="3"/>
		<circle fill="none" stroke="#000000" stroke-linejoin="round" stroke-miterlimit="10" cx="19.5" cy="6.5" r="3"/>
		<path fill="none" stroke="#000000" stroke-linejoin="round" stroke-miterlimit="10" d="M17.5,13.5c0-1.104,0.896-2,2-2h2
			c1.104,0,2,0.896,2,2v3h-6V13.5z"/>
		<polygon fill="none" stroke="#000000" stroke-linejoin="round" stroke-miterlimit="10" points="21.5,16.5 19.5,16.5 19.5,21.5 
			20.542,23.5 21.5,21.5 		"/>
		
			<line fill="none" stroke="#000000" stroke-linecap="round" stroke-linejoin="round" stroke-miterlimit="10" x1="20.5" y1="13" x2="20.5" y2="8"/>
	</g>
</g>
<g id="invisible_shape">
	<rect fill="none" width="24" height="24"/>
</g>
</svg>
