<?xml version="1.0" encoding="utf-8"?>
<!-- Generator: Adobe Illustrator 16.0.3, SVG Export Plug-In . SVG Version: 6.00 Build 0)  -->
<!DOCTYPE svg PUBLIC "-//W3C//DTD SVG 1.1//EN" "http://www.w3.org/Graphics/SVG/1.1/DTD/svg11.dtd">
<svg version="1.1" xmlns="http://www.w3.org/2000/svg" xmlns:xlink="http://www.w3.org/1999/xlink" x="0px" y="0px" width="24px"
	 height="24px" viewBox="0 0 24 24" enable-background="new 0 0 24 24" xml:space="preserve">
<g id="Outline_Icons">
	<g>
		
			<circle fill="none" stroke="#000000" stroke-linecap="round" stroke-linejoin="round" stroke-miterlimit="10" cx="12.5" cy="2.995" r="2.5"/>
		<polyline fill="none" stroke="#000000" stroke-linecap="round" stroke-linejoin="round" stroke-miterlimit="10" points="16,2.495 
			12,2.495 10.825,4.851 		"/>
		<path fill="none" stroke="#000000" stroke-linecap="round" stroke-linejoin="round" stroke-miterlimit="10" d="M19.5,17.495
			c1.656,0,3,1.344,3,3h-11v-1.5c0-1.381-1.119-2.5-2.5-2.5H5.25c-1.519,0-2.75,1.231-2.75,2.75v1.25"/>
		<polyline fill="none" stroke="#000000" stroke-linecap="round" stroke-linejoin="round" stroke-miterlimit="10" points="
			18,11.995 19.5,11.995 19.5,20.495 		"/>
		
			<circle fill="none" stroke="#000000" stroke-linecap="round" stroke-linejoin="round" stroke-miterlimit="10" cx="6.5" cy="20.995" r="2"/>
		<path fill="none" stroke="#000000" stroke-linecap="round" stroke-linejoin="round" stroke-miterlimit="10" d="M21.5,20.995
			c0,1.104-0.896,2-2,2s-2-0.896-2-2"/>
		
			<line fill="none" stroke="#000000" stroke-linecap="round" stroke-linejoin="round" stroke-miterlimit="10" x1="9" y1="16.495" x2="13" y2="16.495"/>
		
			<rect x="0.5" y="7.495" fill="none" stroke="#000000" stroke-linecap="round" stroke-linejoin="round" stroke-miterlimit="10" width="7" height="7"/>
		<polyline fill="none" stroke="#000000" stroke-linecap="round" stroke-linejoin="round" stroke-miterlimit="10" points="
			2.5,12.495 2.5,11.495 4.5,9.495 5.5,9.495 		"/>
		<polyline fill="none" stroke="#000000" stroke-linecap="round" stroke-linejoin="round" stroke-miterlimit="10" points="
			19.5,12.995 21.5,11.995 21.5,15.495 19.5,14.495 		"/>
		
			<line fill="none" stroke="#000000" stroke-linecap="round" stroke-linejoin="round" stroke-miterlimit="10" x1="7.5" y1="1.495" x2="5" y2="1.495"/>
		
			<line fill="none" stroke="#000000" stroke-linecap="round" stroke-linejoin="round" stroke-miterlimit="10" x1="3" y1="1.495" x2="2" y2="1.495"/>
		
			<line fill="none" stroke="#000000" stroke-linecap="round" stroke-linejoin="round" stroke-miterlimit="10" x1="7.5" y1="4.495" x2="3.5" y2="4.495"/>
		
			<line fill="none" stroke="#000000" stroke-linecap="round" stroke-linejoin="round" stroke-miterlimit="10" x1="1.5" y1="4.495" x2="0.5" y2="4.495"/>
	</g>
	<path fill="none" stroke="#000000" stroke-linecap="round" stroke-linejoin="round" stroke-miterlimit="10" d="M16.5,18
		c0,0.553-0.448,1-1,1s-1-0.447-1-1c0,0,0-2.005-0.457-2.777c-0.294-0.496-0.922-0.728-1.543-0.728H11c-0.828,0-1.5-0.671-1.5-1.5
		v-3.5c0-1.104,0.896-2,2-2c0.509,0,1.069,0.111,1.516,0.266L18,9.995c0.111,0.092,0.182,0.23,0.182,0.386
		c0,0.276-0.224,0.5-0.5,0.5L13.5,9.495v2.5h0.25c1.242,0,2.75,1.008,2.75,2.25V18z"/>
</g>
<g id="invisible_shape">
	<rect fill="none" width="24" height="24"/>
</g>
</svg>
