<?xml version="1.0" encoding="utf-8"?>
<!-- Generator: Adobe Illustrator 16.0.3, SVG Export Plug-In . SVG Version: 6.00 Build 0)  -->
<!DOCTYPE svg PUBLIC "-//W3C//DTD SVG 1.1//EN" "http://www.w3.org/Graphics/SVG/1.1/DTD/svg11.dtd">
<svg version="1.1" xmlns="http://www.w3.org/2000/svg" xmlns:xlink="http://www.w3.org/1999/xlink" x="0px" y="0px" width="24px"
	 height="24px" viewBox="0 0 24 24" enable-background="new 0 0 24 24" xml:space="preserve">
<g id="Outline_Icons">
	<g>
		<g>
			<path fill="none" stroke="#000000" stroke-linecap="round" stroke-linejoin="round" stroke-miterlimit="10" d="M2.5,8.5V8.484
				c0,2.209,1.791,4,4,4l14,0.016"/>
			
				<line fill="none" stroke="#000000" stroke-linecap="round" stroke-linejoin="round" stroke-miterlimit="10" x1="8.5" y1="16.5" x2="8.5" y2="8.5"/>
			
				<line fill="none" stroke="#000000" stroke-linecap="round" stroke-linejoin="round" stroke-miterlimit="10" x1="14.5" y1="16.5" x2="14.5" y2="8.5"/>
			
				<line fill="none" stroke="#000000" stroke-linecap="round" stroke-linejoin="round" stroke-miterlimit="10" x1="20.5" y1="16.5" x2="20.5" y2="8.5"/>
		</g>
		<g>
			<path fill="none" stroke="#000000" stroke-linecap="round" stroke-linejoin="round" stroke-miterlimit="10" d="M1.5,4.648V0.5
				h0.992c0.844,0,0.991,0.464,0.991,1.037S3.336,2.5,2.492,2.5H1.5"/>
			
				<line fill="none" stroke="#000000" stroke-linecap="round" stroke-linejoin="round" stroke-miterlimit="10" x1="2.492" y1="2.574" x2="3.483" y2="4.648"/>
		</g>
		<polyline fill="none" stroke="#000000" stroke-linecap="round" stroke-linejoin="round" stroke-miterlimit="10" points="8.5,4.5 
			8.5,0.5 7.5,1 		"/>
		<polyline fill="none" stroke="#000000" stroke-linecap="round" stroke-linejoin="round" stroke-miterlimit="10" points="
			14.5,23.5 14.5,19.352 12.5,21.989 15,21.989 		"/>
		<g>
			<path fill="none" stroke="#000000" stroke-linecap="round" stroke-linejoin="round" stroke-miterlimit="10" d="M20.582,21.05
				c0.922,0,1.082,0.788,1.082,1.225c0,0.438-0.16,1.226-1.082,1.226c-0.921,0-1.082-0.788-1.082-1.226
				C19.5,21.838,19.661,21.05,20.582,21.05z"/>
			<path fill="none" stroke="#000000" stroke-linecap="round" stroke-linejoin="round" stroke-miterlimit="10" d="M21.098,19.307
				c-1.361,0-1.598,1.165-1.598,1.811v1.157"/>
		</g>
		<path fill="none" stroke="#000000" stroke-linecap="round" stroke-linejoin="round" stroke-miterlimit="10" d="M21.303,0.5H19.5v2
			h0.901c0.768,0,0.901,0.631,0.901,1c0,0.37-0.134,1-0.901,1H19.5"/>
		<path fill="none" stroke="#000000" stroke-linecap="round" stroke-linejoin="round" stroke-miterlimit="10" d="M7.707,20.377
			c0.021-0.528,0.458-0.948,0.991-0.948c0.548,0,0.992,0.443,0.992,0.989c0,0.283-0.114,0.467-0.19,0.582l-1.806,2.5h1.984"/>
		<g>
			<path fill="none" stroke="#000000" stroke-linecap="round" stroke-linejoin="round" stroke-miterlimit="10" d="M13.519,1.492
				C13.536,1.105,13.712,0.5,14.508,0.5c0.845,0,0.992,0.681,0.992,1.059s-0.147,1.061-0.992,1.061"/>
			<path fill="none" stroke="#000000" stroke-linecap="round" stroke-linejoin="round" stroke-miterlimit="10" d="M13.519,3.746
				c0.018,0.387,0.193,0.991,0.989,0.991c0.845,0,0.992-0.681,0.992-1.059c0-0.379-0.147-1.06-0.992-1.06"/>
		</g>
	</g>
</g>
<g id="invisible_shape">
	<rect fill="none" width="24" height="24"/>
</g>
</svg>
