<?xml version="1.0" encoding="utf-8"?>
<!-- Generator: Adobe Illustrator 16.0.3, SVG Export Plug-In . SVG Version: 6.00 Build 0)  -->
<!DOCTYPE svg PUBLIC "-//W3C//DTD SVG 1.1//EN" "http://www.w3.org/Graphics/SVG/1.1/DTD/svg11.dtd">
<svg version="1.1" xmlns="http://www.w3.org/2000/svg" xmlns:xlink="http://www.w3.org/1999/xlink" x="0px" y="0px" width="24px"
	 height="24px" viewBox="0 0 24 24" enable-background="new 0 0 24 24" xml:space="preserve">
<g id="Outline_Icons">
	<g>
		
			<circle fill="none" stroke="#000000" stroke-linecap="round" stroke-linejoin="round" stroke-miterlimit="10" cx="3.496" cy="20.5" r="3"/>
		
			<circle fill="none" stroke="#000000" stroke-linecap="round" stroke-linejoin="round" stroke-miterlimit="10" cx="18.496" cy="20.5" r="3"/>
		
			<line fill="none" stroke="#000000" stroke-linecap="round" stroke-linejoin="round" stroke-miterlimit="10" x1="6.496" y1="20.5" x2="15.496" y2="20.5"/>
		<path fill="none" stroke="#000000" stroke-linecap="round" stroke-linejoin="round" stroke-miterlimit="10" d="M0.496,16.5
			c0.836-0.628,1.875-1,3-1c2.762,0,5,2.239,5,5"/>
		
			<line fill="none" stroke="#000000" stroke-linecap="round" stroke-linejoin="round" stroke-miterlimit="10" x1="3.996" y1="13" x2="3.996" y2="15.5"/>
		
			<line fill="none" stroke="#000000" stroke-linecap="round" stroke-linejoin="round" stroke-miterlimit="10" x1="7.496" y1="17.5" x2="13.996" y2="17.5"/>
		<path fill="none" stroke="#000000" stroke-linecap="round" stroke-linejoin="round" stroke-miterlimit="10" d="M0.996,10.5
			c0,1.105,0.896,2.5,2,2.5c0.364,0,0.706-0.098,1-0.269l3.5-2.231H0.996z"/>
		<path fill="none" stroke="#000000" stroke-linecap="round" stroke-linejoin="round" stroke-miterlimit="10" d="M13.996,20.501
			V17.25c0-1.519-1.231-2.75-2.75-2.75h-0.75c-0.553,0-1-0.447-1-1c0-0.552,0.447-1,1-1h13v8h-2"/>
		<path fill="none" stroke="#000000" stroke-linecap="round" stroke-linejoin="round" stroke-miterlimit="10" d="M14.496,6.505
			c-0.469,0.751-1.302,1.25-2.251,1.25c-0.95,0-1.785-0.502-2.253-1.255"/>
		<path fill="none" stroke="#000000" stroke-linecap="round" stroke-linejoin="round" stroke-miterlimit="10" d="M18.996,6.505
			c-0.469,0.751-1.302,1.25-2.251,1.25c-0.95,0-1.785-0.502-2.253-1.255"/>
		<path fill="none" stroke="#000000" stroke-linecap="round" stroke-linejoin="round" stroke-miterlimit="10" d="M10,6.505
			c-0.469,0.751-1.302,1.25-2.251,1.25c-0.95,0-1.785-0.502-2.253-1.255L5.551,6c1.849-3,5.164-5,8.945-5
			c3.783,0,7.099,2.001,8.947,5.001L23.5,6.505c-0.469,0.751-1.302,1.25-2.251,1.25c-0.95,0-1.785-0.502-2.253-1.255"/>
		<path fill="none" stroke="#000000" stroke-linecap="round" stroke-linejoin="round" stroke-miterlimit="10" d="M9.994,6.409
			c0-2.696,1.94-4.94,4.502-5.409"/>
		<path fill="none" stroke="#000000" stroke-linecap="round" stroke-linejoin="round" stroke-miterlimit="10" d="M18.996,6.409
			c0-2.696-1.94-4.94-4.502-5.409"/>
		
			<line fill="none" stroke="#000000" stroke-linecap="round" stroke-linejoin="round" stroke-miterlimit="10" x1="14.496" y1="1" x2="14.496" y2="12.495"/>
		
			<line fill="none" stroke="#000000" stroke-linecap="round" stroke-linejoin="round" stroke-miterlimit="10" x1="11.246" y1="14.5" x2="23.496" y2="14.5"/>
	</g>
</g>
<g id="invisible_shape">
	<rect fill="none" width="24" height="24"/>
</g>
</svg>
