<?xml version="1.0" encoding="utf-8"?>
<!-- Generator: Adobe Illustrator 16.0.3, SVG Export Plug-In . SVG Version: 6.00 Build 0)  -->
<!DOCTYPE svg PUBLIC "-//W3C//DTD SVG 1.1//EN" "http://www.w3.org/Graphics/SVG/1.1/DTD/svg11.dtd">
<svg version="1.1" xmlns="http://www.w3.org/2000/svg" xmlns:xlink="http://www.w3.org/1999/xlink" x="0px" y="0px" width="24px"
	 height="24px" viewBox="0 0 24 24" enable-background="new 0 0 24 24" xml:space="preserve">
<g id="Outline_Icons">
	<g>
		<path fill="none" stroke="#000000" stroke-linejoin="round" stroke-miterlimit="10" d="M9.5,20.5H9
			c-0.875,0-1.631-0.611-1.814-1.467L5.018,8.919C4.751,7.676,5.702,6.5,6.974,6.5h8.052c1.271,0,2.222,1.176,1.955,2.419
			l-2.167,10.114C14.63,19.889,13.875,20.5,13,20.5h-0.5"/>
		<path fill="none" stroke="#000000" stroke-linejoin="round" stroke-miterlimit="10" d="M12.5,18c0-0.828-0.672-1.5-1.5-1.5
			c-0.829,0-1.5,0.672-1.5,1.5v4c0,0.828,0.671,1.5,1.5,1.5c0.828,0,1.5-0.672,1.5-1.5V18z"/>
		<polyline fill="none" stroke="#000000" stroke-linejoin="round" stroke-miterlimit="10" points="5.478,11.064 11,14.479 16.5,11 
					"/>
		<polyline fill="none" stroke="#000000" stroke-linejoin="round" stroke-miterlimit="10" points="5.351,7.332 10,10.5 11,14.479 		
			"/>
		<polyline fill="none" stroke="#000000" stroke-linejoin="round" stroke-miterlimit="10" points="16.649,7.332 12,10.5 11,14.479 
					"/>
		<path fill="none" stroke="#000000" stroke-linejoin="round" stroke-miterlimit="10" d="M6.5,6.558V5c0-2.485,2.015-4.5,4.5-4.5
			s4.5,2.015,4.5,4.5v1.557"/>
		
			<line fill="none" stroke="#000000" stroke-linecap="round" stroke-linejoin="round" stroke-miterlimit="10" x1="16.757" y1="7.5" x2="20.468" y2="7.5"/>
		
			<line fill="none" stroke="#000000" stroke-linecap="round" stroke-linejoin="round" stroke-miterlimit="10" x1="5.243" y1="7.5" x2="1.531" y2="7.5"/>
	</g>
</g>
<g id="invisible_shape">
	<rect fill="none" width="24" height="24"/>
</g>
</svg>
