<?xml version="1.0" encoding="utf-8"?>
<!-- Generator: Adobe Illustrator 16.0.3, SVG Export Plug-In . SVG Version: 6.00 Build 0)  -->
<!DOCTYPE svg PUBLIC "-//W3C//DTD SVG 1.1//EN" "http://www.w3.org/Graphics/SVG/1.1/DTD/svg11.dtd">
<svg version="1.1" xmlns="http://www.w3.org/2000/svg" xmlns:xlink="http://www.w3.org/1999/xlink" x="0px" y="0px" width="24px"
	 height="24px" viewBox="0 0 24 24" enable-background="new 0 0 24 24" xml:space="preserve">
<g id="Outline_Icons">
	<g>
		<line fill="none" stroke="#000000" stroke-linejoin="round" stroke-miterlimit="10" x1="10.5" y1="5.5" x2="10.5" y2="21.5"/>
		<line fill="none" stroke="#000000" stroke-linejoin="round" stroke-miterlimit="10" x1="12.5" y1="5.5" x2="12.5" y2="21.5"/>
		<path fill="none" stroke="#000000" stroke-linejoin="round" stroke-miterlimit="10" d="M10.5,11.5h-2.36
			c-0.953,0-1.774,0.673-1.961,1.608l-1.2,6C4.73,20.348,5.68,21.5,6.939,21.5h9.121c1.26,0,2.208-1.153,1.961-2.392l-1.2-6
			c-0.187-0.936-1.008-1.608-1.961-1.608H12.5"/>
		<path fill="none" stroke="#000000" stroke-linejoin="round" stroke-miterlimit="10" d="M22.5,21.5c0,1.104-0.896,2-2,2
			s-2-0.896-2-2v-6c0-1.104,0.896-2,2-2s2,0.896,2,2V21.5z"/>
		<path fill="none" stroke="#000000" stroke-linejoin="round" stroke-miterlimit="10" d="M4.5,21.5c0,1.104-0.896,2-2,2
			s-2-0.896-2-2v-6c0-1.104,0.896-2,2-2s2,0.896,2,2V21.5z"/>
		<path fill="none" stroke="#000000" stroke-linejoin="round" stroke-miterlimit="10" d="M16.5,3.5c0,1.104-0.896,2-2,2h-6
			c-1.104,0-2-0.896-2-2v-1c0-1.104,0.896-2,2-2h6c1.104,0,2,0.896,2,2V3.5z"/>
		<rect x="16.5" y="1.5" fill="none" stroke="#000000" stroke-linejoin="round" stroke-miterlimit="10" width="5" height="2"/>
		<rect x="1.5" y="1.5" fill="none" stroke="#000000" stroke-linejoin="round" stroke-miterlimit="10" width="5" height="2"/>
	</g>
</g>
<g id="invisible_shape">
	<rect fill="none" width="24" height="24"/>
</g>
</svg>
