<?xml version="1.0" encoding="utf-8"?>
<!-- Generator: Adobe Illustrator 16.0.3, SVG Export Plug-In . SVG Version: 6.00 Build 0)  -->
<!DOCTYPE svg PUBLIC "-//W3C//DTD SVG 1.1//EN" "http://www.w3.org/Graphics/SVG/1.1/DTD/svg11.dtd">
<svg version="1.1" xmlns="http://www.w3.org/2000/svg" xmlns:xlink="http://www.w3.org/1999/xlink" x="0px" y="0px" width="24px"
	 height="24px" viewBox="0 0 24 24" enable-background="new 0 0 24 24" xml:space="preserve">
<g id="Outline_Icons">
	<g>
		<g>
			<path fill="none" stroke="#000000" stroke-linecap="round" stroke-linejoin="round" stroke-miterlimit="10" d="M19.499,11.36
				c0.076,4.419-3.581,8.063-7.999,8.14c-4.418,0.077-7.922-3.443-7.999-7.86C3.423,7.222,7.082,3.576,11.5,3.5
				C15.917,3.423,19.421,6.943,19.499,11.36z"/>
			
				<line fill="none" stroke="#000000" stroke-linecap="round" stroke-linejoin="round" stroke-miterlimit="10" x1="11.5" y1="12.5" x2="11.5" y2="7.499"/>
			<g>
				<g>
					<path d="M11.501,14.546L11.501,14.546h-0.014c-0.401,0.007-0.722,0.338-0.715,0.739C10.779,15.683,11.104,16,11.5,16h0.013
						c0.401-0.007,0.722-0.339,0.715-0.739C12.221,14.862,11.896,14.546,11.501,14.546L11.501,14.546z"/>
				</g>
			</g>
		</g>
		<path fill="none" stroke="#000000" stroke-linecap="round" stroke-linejoin="round" stroke-miterlimit="10" d="M3.998,19.545
			C1.845,17.537,0.5,14.676,0.5,11.5c0-3.154,1.327-5.998,3.455-8.004"/>
		<path fill="none" stroke="#000000" stroke-linecap="round" stroke-linejoin="round" stroke-miterlimit="10" d="M19.023,3.475
			c2.14,2.008,3.477,4.86,3.477,8.025c0,3.177-1.347,6.039-3.5,8.047"/>
	</g>
</g>
<g id="invisible_shape">
	<rect fill="none" width="24" height="24"/>
</g>
</svg>
