<?xml version="1.0" encoding="utf-8"?>
<!-- Generator: Adobe Illustrator 16.0.3, SVG Export Plug-In . SVG Version: 6.00 Build 0)  -->
<!DOCTYPE svg PUBLIC "-//W3C//DTD SVG 1.1//EN" "http://www.w3.org/Graphics/SVG/1.1/DTD/svg11.dtd">
<svg version="1.1" xmlns="http://www.w3.org/2000/svg" xmlns:xlink="http://www.w3.org/1999/xlink" x="0px" y="0px" width="24px"
	 height="24px" viewBox="0 0 24 24" enable-background="new 0 0 24 24" xml:space="preserve">
<g id="Outline_Icons">
	<g>
		<path fill="none" stroke="#000000" stroke-linejoin="round" stroke-miterlimit="10" d="M10.5,20.5h-3c-1.104,0-2-0.896-2-2l0-8
			c0,0,2.426-6.794,2.381-6.668C7.953,3.633,8.141,3.5,8.352,3.5h7.355c0.213,0,0.402,0.135,0.472,0.336
			C16.227,3.973,18.5,10.5,18.5,10.5l0,8c0,1.104-0.896,2-2,2h-3"/>
		<path fill="none" stroke="#000000" stroke-linejoin="round" stroke-miterlimit="10" d="M10.5,19c0-0.828,0.672-1.5,1.5-1.5
			s1.5,0.672,1.5,1.5v3c0,0.828-0.672,1.5-1.5,1.5s-1.5-0.672-1.5-1.5V19z"/>
		<line fill="none" stroke="#000000" stroke-linejoin="round" stroke-miterlimit="10" x1="5.5" y1="10.5" x2="18.5" y2="10.5"/>
		
			<line fill="none" stroke="#000000" stroke-linecap="round" stroke-linejoin="round" stroke-miterlimit="10" x1="6" y1="3.5" x2="18" y2="3.5"/>
		
			<rect x="9.5" y="0.5" fill="none" stroke="#000000" stroke-linecap="round" stroke-linejoin="round" stroke-miterlimit="10" width="5" height="3"/>
		
			<circle fill="none" stroke="#000000" stroke-linecap="round" stroke-linejoin="round" stroke-miterlimit="10" cx="16" cy="14.5" r="1"/>
		
			<circle fill="none" stroke="#000000" stroke-linecap="round" stroke-linejoin="round" stroke-miterlimit="10" cx="8" cy="14.5" r="1"/>
		<path fill="none" stroke="#000000" stroke-linecap="round" stroke-linejoin="round" stroke-miterlimit="10" d="M4.5,19.5V22
			c0,0.828-0.672,1.5-1.5,1.5S1.5,22.828,1.5,22v-2.5"/>
		<path fill="none" stroke="#000000" stroke-linecap="round" stroke-linejoin="round" stroke-miterlimit="10" d="M1.5,19.5v-3
			c0-1.104,0.896-2,2-2c1.104,0,2,0.896,2,2v3H1.5z"/>
		<path fill="none" stroke="#000000" stroke-linecap="round" stroke-linejoin="round" stroke-miterlimit="10" d="M19.5,19.5V22
			c0,0.828,0.672,1.5,1.5,1.5s1.5-0.672,1.5-1.5v-2.5"/>
		<path fill="none" stroke="#000000" stroke-linecap="round" stroke-linejoin="round" stroke-miterlimit="10" d="M22.5,19.5v-3
			c0-1.104-0.896-2-2-2c-1.104,0-2,0.896-2,2v3H22.5z"/>
	</g>
</g>
<g id="invisible_shape">
	<rect fill="none" width="24" height="24"/>
</g>
</svg>
