<?xml version="1.0" encoding="utf-8"?>
<!-- Generator: Adobe Illustrator 16.0.3, SVG Export Plug-In . SVG Version: 6.00 Build 0)  -->
<!DOCTYPE svg PUBLIC "-//W3C//DTD SVG 1.1//EN" "http://www.w3.org/Graphics/SVG/1.1/DTD/svg11.dtd">
<svg version="1.1" xmlns="http://www.w3.org/2000/svg" xmlns:xlink="http://www.w3.org/1999/xlink" x="0px" y="0px" width="24px"
	 height="24px" viewBox="0 0 24 24" enable-background="new 0 0 24 24" xml:space="preserve">
<g id="Outline_Icons">
	<g>
		<path fill="none" stroke="#000000" stroke-linecap="round" stroke-linejoin="round" stroke-miterlimit="10" d="M8.5,20.5
			c0,1.657-1.343,3-3,3c-1.658,0-3-1.343-3-3"/>
		<path fill="none" stroke="#000000" stroke-linecap="round" stroke-linejoin="round" stroke-miterlimit="10" d="M17.296,16H19.5
			c2.209,0,4,1.566,4,3.5h-8.704"/>
		<path fill="none" stroke="#000000" stroke-linecap="round" stroke-linejoin="round" stroke-miterlimit="10" d="M11.5,14.5
			c0,0.552-0.448,1-1,1h-7l-2-2.001V12.5h10V14.5z"/>
		<path fill="none" stroke="#000000" stroke-linecap="round" stroke-linejoin="round" stroke-miterlimit="10" d="M19.5,13
			c-1.105,0-2-0.896-2-2c0-1.104,0.895-2,2-2V13z"/>
		<path fill="none" stroke="#000000" stroke-linecap="round" stroke-linejoin="round" stroke-miterlimit="10" d="M14.5,7.5H16
			c0.828,0,1.5,0.672,1.5,1.5v5.5c0,3.314-2.687,6-6,6h-11c0-2.762,2.238-5,5-5H8c2.582,0,4.707,1.957,4.972,4.469l0.021,0.344"/>
		<path fill="none" stroke="#000000" stroke-linecap="round" stroke-linejoin="round" stroke-miterlimit="10" d="M16.673,19.5
			c-0.11,0.314-0.174,0.648-0.174,1c0,1.656,1.342,3,3,3c1.657,0,3-1.344,3-3c0-0.352-0.062-0.686-0.175-1"/>
	</g>
</g>
<g id="invisible_shape">
	<rect fill="none" width="24" height="24"/>
</g>
</svg>
