<?xml version="1.0" encoding="utf-8"?>
<!-- Generator: Adobe Illustrator 19.2.0, SVG Export Plug-In . SVG Version: 6.00 Build 0)  -->
<svg version="1.1" xmlns="http://www.w3.org/2000/svg" xmlns:xlink="http://www.w3.org/1999/xlink" x="0px" y="0px" width="24px"
	 height="24px" viewBox="0 0 24 24" enable-background="new 0 0 24 24" xml:space="preserve">
<g id="Filled_Icons">
	<g>
		<path d="M3.499,9.977c2.138,0,3.929,1.5,4.384,3.502c1.368-0.27,2.81-0.464,4.116-0.464c1.306,0,2.747,0.195,4.115,0.464
			c0.456-2.002,2.246-3.502,4.385-3.502c0.306,0,0.604,0.031,0.894,0.091c0.07-0.285,0.106-0.491,0.106-0.617
			c0-5.224-4.249-9.474-9.472-9.474c-5.223,0-9.471,4.25-9.471,9.474c0,0.124,0.043,0.321,0.132,0.604
			C2.951,10.008,3.222,9.977,3.499,9.977z M10.999,8.477c0-0.097,0.019-0.192,0.045-0.281c-0.036-0.022-0.074-0.04-0.105-0.072
			l-0.793-0.793c-0.195-0.195-0.195-0.511,0-0.707c0.195-0.195,0.512-0.195,0.707,0l0.793,0.794c0.031,0.033,0.049,0.07,0.07,0.105
			c0.09-0.026,0.184-0.046,0.283-0.046c0.099,0,0.192,0.02,0.283,0.046c0.022-0.037,0.039-0.075,0.07-0.106l0.793-0.794
			c0.195-0.195,0.512-0.195,0.707,0c0.195,0.196,0.195,0.512,0,0.707L13.06,8.125c-0.031,0.033-0.069,0.05-0.106,0.07
			c0.026,0.091,0.046,0.186,0.046,0.283c0,0.1-0.019,0.195-0.046,0.284c0.037,0.022,0.075,0.04,0.106,0.07l0.793,0.793
			c0.195,0.196,0.195,0.512,0,0.707c-0.098,0.098-0.226,0.146-0.354,0.146c-0.128,0-0.256-0.048-0.353-0.146L12.352,9.54
			c-0.031-0.032-0.049-0.071-0.07-0.107c-0.091,0.027-0.184,0.044-0.283,0.044c-0.1,0-0.193-0.017-0.283-0.044
			c-0.022,0.036-0.039,0.075-0.07,0.105l-0.793,0.793c-0.098,0.098-0.226,0.146-0.354,0.146c-0.128,0-0.256-0.048-0.353-0.146
			c-0.195-0.195-0.195-0.511,0-0.707l0.793-0.793c0.031-0.031,0.069-0.048,0.105-0.07C11.018,8.67,10.999,8.578,10.999,8.477z"/>
		<path d="M6.905,13.688c-0.36-1.551-1.749-2.71-3.406-2.71c-1.93,0-3.5,1.571-3.5,3.5c0,1.016,0.436,1.928,1.129,2.569
			c0.306-1.137,1.16-2.064,2.33-2.429C4.325,14.348,5.551,13.994,6.905,13.688z"/>
		<path d="M20.499,10.977c-1.658,0-3.047,1.16-3.407,2.71c1.355,0.306,2.581,0.66,3.448,0.929c1.169,0.365,2.024,1.292,2.329,2.429
			c0.692-0.641,1.13-1.553,1.13-2.569C23.999,12.549,22.429,10.977,20.499,10.977z"/>
		<path d="M20.243,15.573c-1.864-0.583-5.412-1.558-8.244-1.558c-2.832,0-6.38,0.975-8.243,1.557
			c-0.788,0.246-1.383,0.846-1.631,1.594c-0.082,0.25-0.126,0.517-0.126,0.791v1.558c0,1.358,1.121,2.462,2.5,2.462H5v1.5
			c0,0.277,0.224,0.5,0.5,0.5s0.5-0.223,0.5-0.5v-1.5h12v1.5c0,0.277,0.224,0.5,0.5,0.5s0.5-0.223,0.5-0.5v-1.5h0.499
			c1.378,0,2.5-1.104,2.5-2.462v-1.558c0-0.137-0.012-0.272-0.033-0.404C21.817,16.628,21.162,15.858,20.243,15.573z"/>
	</g>
</g>
<g id="invisible_shape">
	<rect fill="none" width="24" height="24"/>
</g>
</svg>
