<?xml version="1.0" encoding="utf-8"?>
<!-- Generator: Adobe Illustrator 19.2.0, SVG Export Plug-In . SVG Version: 6.00 Build 0)  -->
<svg version="1.1" xmlns="http://www.w3.org/2000/svg" xmlns:xlink="http://www.w3.org/1999/xlink" x="0px" y="0px" width="24px"
	 height="24px" viewBox="0 0 24 24" enable-background="new 0 0 24 24" xml:space="preserve">
<g id="Filled_Icons">
	<g>
		<circle cx="11.999" cy="9" r="1"/>
		<path d="M4.306,11.339c1.694,0.658,2.943,2.216,3.16,4.083c1.271-0.281,2.792-0.421,4.533-0.421c1.743,0,3.266,0.142,4.538,0.421
			c0.227-1.863,1.45-3.398,3.11-4.064l0.78-3.87c0.289-1.876-0.254-3.779-1.49-5.22C17.7,0.827,15.902,0,14.004,0H9.991
			C8.093,0,6.294,0.827,5.058,2.269C3.82,3.71,3.277,5.614,3.57,7.506L4.306,11.339z M8.646,8.354c-0.195-0.195-0.195-0.512,0-0.707
			c0.195-0.196,0.512-0.196,0.707,0l0.749,0.75C10.359,7.59,11.107,7,11.999,7c0.891,0,1.639,0.59,1.897,1.397l0.75-0.75
			c0.195-0.196,0.512-0.196,0.707,0c0.195,0.195,0.195,0.512,0,0.707L14.706,9l0.646,0.647c0.195,0.195,0.195,0.512,0,0.707
			c-0.098,0.098-0.226,0.146-0.354,0.146c-0.128,0-0.256-0.049-0.353-0.146l-0.75-0.75C13.638,10.411,12.89,11,11.999,11
			c-0.892,0-1.64-0.589-1.897-1.396l-0.749,0.75C9.255,10.451,9.127,10.5,8.999,10.5c-0.128,0-0.256-0.049-0.353-0.146
			c-0.195-0.195-0.195-0.512,0-0.707L9.292,9L8.646,8.354z"/>
		<path d="M21.499,12c-2.206,0-4,1.795-4,4.001v0.655l-0.632-0.123c-0.891-0.244-2.459-0.532-4.868-0.532
			c-2.41,0-3.977,0.289-4.869,0.532l-0.631,0.172v-0.655c0-2.115-1.577-3.824-3.592-4.031C2.773,12.006,2.637,12,2.499,12
			c-1.379,0-2.5,1.123-2.5,2.501c0,0.141,0.014,0.28,0.037,0.414c0.119,0.717,0.543,1.348,1.167,1.725
			c0.082,0.05,0.171,0.092,0.261,0.132c0.025,0.012,0.048,0.026,0.073,0.037c0.013,0.005,0.021,0.015,0.033,0.02
			c0.26,0.125,0.429,0.381,0.429,0.671v2c0,1.93,1.57,3.499,3.5,3.499H6v0.5C6,23.776,6.224,24,6.5,24S7,23.776,7,23.5V23h10v0.5
			c0,0.276,0.224,0.5,0.5,0.5s0.5-0.224,0.5-0.5V23h0.499c1.93,0,3.5-1.569,3.5-3.499v-2c0-0.076,0.011-0.15,0.032-0.22
			c0.001,0,0.002-0.002,0.002-0.004c0.043-0.137,0.125-0.261,0.236-0.353c0.014-0.012,0.032-0.017,0.047-0.029
			c0.045-0.03,0.09-0.063,0.143-0.085c0.818-0.341,1.384-1.077,1.512-1.935c0.019-0.123,0.028-0.247,0.028-0.373
			C23.999,13.123,22.877,12,21.499,12z"/>
	</g>
</g>
<g id="invisible_shape">
	<rect fill="none" width="24" height="24"/>
</g>
</svg>
