<?xml version="1.0" encoding="utf-8"?>
<!-- Generator: Adobe Illustrator 19.2.0, SVG Export Plug-In . SVG Version: 6.00 Build 0)  -->
<svg version="1.1" xmlns="http://www.w3.org/2000/svg" xmlns:xlink="http://www.w3.org/1999/xlink" x="0px" y="0px" width="24px"
	 height="24px" viewBox="0 0 24 24" enable-background="new 0 0 24 24" xml:space="preserve">
<g id="Filled_Icons">
	<path d="M23.5,16H20v-1h1c1.103,0,2-0.898,2-2c0-1.102-0.897-2-2-2h-1v-1h1c1.103,0,2-0.898,2-2c0-1.102-0.897-2-2-2H3
		C1.896,6,1,6.898,1,8c0,1.102,0.896,2,2,2h1v1H3c-1.104,0-2,0.898-2,2c0,1.102,0.896,2,2,2h1v1H0.5C0.224,16,0,16.224,0,16.5v3
		C0,19.776,0.224,20,0.5,20H2v3.5C2,23.776,2.224,24,2.5,24C2.775,24,3,23.776,3,23.5V23h18v0.5c0,0.276,0.224,0.5,0.5,0.5
		c0.275,0,0.5-0.224,0.5-0.5V20h1.5c0.275,0,0.5-0.224,0.5-0.5v-3C24,16.224,23.775,16,23.5,16z M5,10h14v1H5V10z M5,15h14v1H5V15z
		 M21,22H3v-2h18V22z"/>
</g>
<g id="invisible_shape">
	<rect fill="none" width="24" height="24"/>
</g>
</svg>
