<?xml version="1.0" encoding="utf-8"?>
<!-- Generator: Adobe Illustrator 19.2.0, SVG Export Plug-In . SVG Version: 6.00 Build 0)  -->
<svg version="1.1" xmlns="http://www.w3.org/2000/svg" xmlns:xlink="http://www.w3.org/1999/xlink" x="0px" y="0px" width="24px"
	 height="24px" viewBox="0 0 24 24" enable-background="new 0 0 24 24" xml:space="preserve">
<g id="Filled_Icons">
	<path d="M19.998,15.491c-0.004-0.1-0.04-0.202-0.082-0.268L18,12.35c0-6.551,0-5.098,0-11.85C18,0.224,17.776,0,17.5,0
		S17,0.224,17,0.5V1H7V0.5C7,0.224,6.776,0,6.5,0S6,0.224,6,0.5c0,6.748,0,5.294,0,11.85l-1.916,2.873
		c-0.036,0.051-0.08,0.166-0.082,0.268C4.002,15.494,4,15.498,4,15.5v2v6C4,23.776,4.224,24,4.5,24S5,23.776,5,23.5V18h1v1.5
		C6,19.776,6.224,20,6.5,20S7,19.776,7,19.5V18h10v1.5c0,0.276,0.224,0.5,0.5,0.5s0.5-0.224,0.5-0.5V18h1v5.5
		c0,0.276,0.224,0.5,0.5,0.5s0.5-0.224,0.5-0.5v-6v-2C20,15.498,19.998,15.494,19.998,15.491z M7,5h10v1H7V5z M7,10h10v2H7V10z
		 M19,17H5v-1h14V17z"/>
</g>
<g id="invisible_shape">
	<rect fill="none" width="24" height="24"/>
</g>
</svg>
