<?xml version="1.0" encoding="utf-8"?>
<!-- Generator: Adobe Illustrator 19.2.0, SVG Export Plug-In . SVG Version: 6.00 Build 0)  -->
<svg version="1.1" xmlns="http://www.w3.org/2000/svg" xmlns:xlink="http://www.w3.org/1999/xlink" x="0px" y="0px" width="24px"
	 height="24px" viewBox="0 0 24 24" enable-background="new 0 0 24 24" xml:space="preserve">
<g id="Filled_Icons">
	<g>
		<path d="M21.5,7C20.121,7,19,8.122,19,9.5c0,0.276,0.224,0.5,0.5,0.5h1.41l-0.834,5H19v1h1.5c0.244,0,0.453-0.177,0.493-0.418
			L21.924,10H23.5c0.276,0,0.5-0.224,0.5-0.5C24,8.122,22.879,7,21.5,7z"/>
		<path d="M17.748,21.025c-0.44-0.485-1.94-1.835-4.748-1.99V18h-1v1.035c-2.808,0.155-4.308,1.504-4.748,1.99
			C6.543,21.145,6,21.758,6,22.5C6,23.327,6.673,24,7.5,24S9,23.327,9,22.5c0-0.485-0.235-0.912-0.593-1.186
			c0.597-0.489,1.762-1.166,3.593-1.279c0,0-0.005,1.022,0,1.052c-0.59,0.203-1,0.756-1,1.413c0,0.827,0.673,1.5,1.5,1.5
			s1.5-0.673,1.5-1.5c0-0.657-0.41-1.21-1-1.413c0.005-0.029,0-1.053,0-1.053c1.84,0.114,3,0.789,3.595,1.278
			C16.235,21.586,16,22.015,16,22.5c0,0.827,0.673,1.5,1.5,1.5s1.5-0.673,1.5-1.5C19,21.758,18.457,21.145,17.748,21.025z"/>
		<path d="M17.398,14.49c-1.569-0.325-3.179-0.487-4.815-0.487c-1.64,0-3.306,0.163-4.988,0.488C7.225,14.5,7,14.724,7,15v1.5
			C7,16.776,7.225,17,7.5,17h10c0.275,0,0.5-0.224,0.5-0.5V15c0-0.276-0.225-0.5-0.5-0.5C17.466,14.5,17.432,14.498,17.398,14.49z"
			/>
		<path d="M16.591,13.329C17.192,11.635,19,6.458,19,5.5c0-2.688-2.477-5.185-5.408-5.451c-0.693-0.063-1.49-0.063-2.184,0
			C8.487,0.315,6.011,2.81,6,5.498c-0.004,0.962,1.816,6.164,2.413,7.846C11.164,12.901,13.923,12.894,16.591,13.329z"/>
		<path d="M6,15H4.924L4.09,10H5.5C5.776,10,6,9.776,6,9.5C6,8.122,4.879,7,3.5,7S1,8.122,1,9.5C1,9.776,1.224,10,1.5,10h1.576
			l0.931,5.582C4.047,15.823,4.256,16,4.5,16H6V15z"/>
	</g>
</g>
<g id="invisible_shape">
	<rect fill="none" width="24" height="24"/>
</g>
</svg>
