<?xml version="1.0" encoding="utf-8"?>
<!-- Generator: Adobe Illustrator 19.2.0, SVG Export Plug-In . SVG Version: 6.00 Build 0)  -->
<svg version="1.1" xmlns="http://www.w3.org/2000/svg" xmlns:xlink="http://www.w3.org/1999/xlink" x="0px" y="0px" width="24px"
	 height="24px" viewBox="0 0 24 24" enable-background="new 0 0 24 24" xml:space="preserve">
<g id="Filled_Icons">
	<g>
		<path d="M11.583,0C6.292,0,0.261,6.268,0.261,11.766c0,2.119,0.905,3.894,2.617,5.133c1.839,1.332,4.575,2.028,8.122,2.09V23H5
			c-0.276,0-0.5,0.223-0.5,0.5C4.5,23.776,4.724,24,5,24h13c0.276,0,0.5-0.224,0.5-0.5c0-0.277-0.224-0.5-0.5-0.5h-6v-4.011
			c3.49-0.062,6.177-0.741,7.972-2.035c1.674-1.206,2.558-2.945,2.558-5.027C22.529,6.465,16.596,0,11.583,0z M15.927,15H6.986
			c-3.59-1.085-3.824-3.312-3.644-4.529c0.508-3.43,5.464-7.556,8.194-7.556c2.329,0,7.488,4.126,8.016,7.644
			C19.913,12.964,18.236,14.27,15.927,15z"/>
		<g>
			<path d="M18.546,11.593c-1.861-0.664-6.327-0.704-7.32-0.704c-2.079,0-5.372,0.102-6.866,0.682C4.58,12.66,5.526,13.477,7.206,14
				h8.569C17.428,13.479,18.348,12.668,18.546,11.593z"/>
			<path d="M19.426,12.252l0.03-0.07l-0.007-0.006C19.441,12.201,19.434,12.226,19.426,12.252z"/>
		</g>
	</g>
</g>
<g id="invisible_shape">
	<rect fill="none" width="24" height="24"/>
</g>
</svg>
