<?xml version="1.0" encoding="utf-8"?>
<!-- Generator: Adobe Illustrator 19.2.0, SVG Export Plug-In . SVG Version: 6.00 Build 0)  -->
<svg version="1.1" xmlns="http://www.w3.org/2000/svg" xmlns:xlink="http://www.w3.org/1999/xlink" x="0px" y="0px" width="24px"
	 height="24px" viewBox="0 0 24 24" enable-background="new 0 0 24 24" xml:space="preserve">
<g id="Filled_Icons">
	<path d="M22,15h-1.994c-0.492-2.792-3.091-4.801-5.947-4.524l-6.828,0.769c0.161-0.412,0.195-0.875,0.051-1.327L4.547,1.343
		C4.212,0.292,3.088-0.29,2.034,0.045C0.983,0.38,0.401,1.507,0.735,2.558l2.735,8.574c0.162,0.509,0.513,0.925,0.987,1.169
		c0.05,0.026,0.103,0.037,0.154,0.059l1.814,4.082L1.593,23.21c-0.16,0.224-0.108,0.537,0.116,0.697C1.798,23.97,1.899,24,2,24
		c0.155,0,0.31-0.073,0.407-0.209l4.27-5.977C6.989,18.511,7.688,19,8.5,19h10.977l0.526,4.557C20.032,23.812,20.249,24,20.499,24
		c0.02,0,0.039-0.001,0.059-0.002c0.274-0.033,0.471-0.281,0.44-0.555L20.484,19H22c1.103,0,2-0.897,2-2C24,15.897,23.103,15,22,15z
		 M5.755,12.466c0.847-0.167,8.407-0.996,8.407-0.996c2.271-0.214,4.329,1.339,4.809,3.529H8.5c-0.532,0-1.015,0.212-1.373,0.553
		L5.755,12.466z"/>
</g>
<g id="invisible_shape">
	<rect fill="none" width="24" height="24"/>
</g>
</svg>
