<?xml version="1.0" encoding="utf-8"?>
<!-- Generator: Adobe Illustrator 19.2.0, SVG Export Plug-In . SVG Version: 6.00 Build 0)  -->
<svg version="1.1" xmlns="http://www.w3.org/2000/svg" xmlns:xlink="http://www.w3.org/1999/xlink" x="0px" y="0px" width="24px"
	 height="24px" viewBox="0 0 24 24" enable-background="new 0 0 24 24" xml:space="preserve">
<g id="Filled_Icons">
	<g>
		<path d="M16.393,18C16.778,17.249,17,16.4,17,15.5c0-0.523-0.096-1.02-0.232-1.5H9c-1.062,0-1.99-0.558-2.524-1.392l-3.628,1.728
			C4.034,16.517,6.348,18,9,18H16.393z"/>
		<path d="M20.908,14.248C20.962,14.659,21,15.075,21,15.5c0,1.516-0.366,2.944-1,4.217V21h1.5c1.379,0,2.5-1.122,2.5-2.5
			C24,16.513,22.697,14.843,20.908,14.248z"/>
		<path d="M2,5v5.308l4-1.905V5c0-2.757-2.243-5-5-5C0.448,0,0,0.449,0,1v2c0,0.551,0.448,1,1,1S2,4.449,2,5z"/>
		<path d="M11.5,7h-0.227L0.649,12.06L1.645,13.8l10.074-4.797C15.202,9.119,18,11.989,18,15.5c0,3.584-2.916,6.5-6.5,6.5h-9v2h9
			c4.687,0,8.5-3.813,8.5-8.5C20,10.813,16.187,7,11.5,7z"/>
	</g>
</g>
<g id="invisible_shape">
	<rect fill="none" width="24" height="24"/>
</g>
</svg>
