<?xml version="1.0" encoding="utf-8"?>
<!-- Generator: Adobe Illustrator 19.2.0, SVG Export Plug-In . SVG Version: 6.00 Build 0)  -->
<svg version="1.1" xmlns="http://www.w3.org/2000/svg" xmlns:xlink="http://www.w3.org/1999/xlink" x="0px" y="0px" width="24px"
	 height="24px" viewBox="0 0 24 24" enable-background="new 0 0 24 24" xml:space="preserve">
<g id="Filled_Icons">
	<g>
		<path d="M4.998,15.5V16H11V9H6.498c-2.139,0-3.931,1.502-4.385,3.506C3.714,12.567,4.998,13.885,4.998,15.5z"/>
		<path d="M18.999,15.5c-0.001-0.801,0.311-1.554,0.878-2.122c0.539-0.539,1.249-0.843,2.007-0.872C21.43,10.502,19.638,9,17.498,9
			H12v7h6.998L18.999,15.5z"/>
		<path d="M21.999,13.5c-0.134,0-0.266,0.013-0.394,0.039c-0.385,0.076-0.738,0.265-1.021,0.548
			c-0.378,0.377-0.586,0.879-0.585,1.414l-0.001,1c0,0.276-0.224,0.5-0.5,0.5H12h-0.001h-0.001H4.499c-0.276,0-0.5-0.224-0.5-0.5
			l-0.001-1c0-0.689-0.35-1.299-0.882-1.657C2.797,13.627,2.412,13.5,1.998,13.5c-0.138,0-0.272,0.015-0.402,0.04
			c-0.911,0.188-1.598,0.995-1.598,1.961l0.001,3.999c0,1.208,0.859,2.218,2.001,2.45v1.55C1.999,23.776,2.223,24,2.499,24
			c0.276,0,0.5-0.224,0.5-0.5V22H21v1.5c-0.001,0.276,0.223,0.5,0.499,0.5c0.276,0,0.5-0.224,0.5-0.5v-1.55
			c1.14-0.233,2-1.242,2-2.45v-4C23.999,14.398,23.102,13.5,21.999,13.5z"/>
	</g>
</g>
<g id="invisible_shape">
	<rect fill="none" width="24" height="24"/>
</g>
</svg>
