<?xml version="1.0" encoding="utf-8"?>
<!-- Generator: Adobe Illustrator 19.2.0, SVG Export Plug-In . SVG Version: 6.00 Build 0)  -->
<svg version="1.1" xmlns="http://www.w3.org/2000/svg" xmlns:xlink="http://www.w3.org/1999/xlink" x="0px" y="0px" width="24px"
	 height="24px" viewBox="0 0 24 24" enable-background="new 0 0 24 24" xml:space="preserve">
<g id="Filled_Icons">
	<g>
		<rect x="6" y="9" width="12" height="3"/>
		<path d="M14,19h4v-4h-4V19z M16,16.5c0.277,0,0.5,0.223,0.5,0.5c0,0.278-0.223,0.5-0.5,0.5c-0.276,0-0.5-0.222-0.5-0.5
			C15.5,16.723,15.724,16.5,16,16.5z"/>
		<path d="M6,19h4v-4H6V19z M8,16.5c0.277,0,0.5,0.223,0.5,0.5c0,0.278-0.223,0.5-0.5,0.5c-0.276,0-0.5-0.222-0.5-0.5
			C7.5,16.723,7.724,16.5,8,16.5z"/>
		<path d="M22,0H2C1.724,0,1.5,0.223,1.5,0.5C1.5,0.776,1.724,1,2,1h1v20.5C3,21.776,3.224,22,3.5,22H6v1.5
			C6,23.776,6.224,24,6.5,24S7,23.776,7,23.5V22h10v1.5c0,0.276,0.224,0.5,0.5,0.5s0.5-0.224,0.5-0.5V22h2.5
			c0.276,0,0.5-0.224,0.5-0.5V1h1c0.276,0,0.5-0.224,0.5-0.5C22.5,0.223,22.276,0,22,0z M11,19.5c0,0.276-0.224,0.5-0.5,0.5h-5
			C5.224,20,5,19.776,5,19.5v-5C5,14.223,5.224,14,5.5,14h5c0.276,0,0.5,0.223,0.5,0.5V19.5z M19,19.5c0,0.276-0.224,0.5-0.5,0.5h-5
			c-0.276,0-0.5-0.224-0.5-0.5v-5c0-0.277,0.224-0.5,0.5-0.5h5c0.276,0,0.5,0.223,0.5,0.5V19.5z M19,12.5c0,0.276-0.224,0.5-0.5,0.5
			h-13C5.224,13,5,12.776,5,12.5v-4C5,8.223,5.224,8,5.5,8h13C18.776,8,19,8.223,19,8.5V12.5z M19,6.5C19,6.776,18.776,7,18.5,7h-13
			C5.224,7,5,6.776,5,6.5v-4C5,2.223,5.224,2,5.5,2h13C18.776,2,19,2.223,19,2.5V6.5z"/>
		<rect x="6" y="3" width="12" height="3"/>
	</g>
</g>
<g id="invisible_shape">
	<rect fill="none" width="24" height="24"/>
</g>
</svg>
