<?xml version="1.0" encoding="utf-8"?>
<!-- Generator: Adobe Illustrator 19.2.0, SVG Export Plug-In . SVG Version: 6.00 Build 0)  -->
<svg version="1.1" xmlns="http://www.w3.org/2000/svg" xmlns:xlink="http://www.w3.org/1999/xlink" x="0px" y="0px" width="24px"
	 height="24px" viewBox="0 0 24 24" enable-background="new 0 0 24 24" xml:space="preserve">
<g id="Filled_Icons">
	<g>
		<path d="M22.5,8h-21C1.224,8,1,8.223,1,8.5v15C1,23.775,1.224,24,1.5,24S2,23.775,2,23.5V22h20v1.5c0,0.275,0.224,0.5,0.5,0.5
			s0.5-0.225,0.5-0.5v-15C23,8.223,22.776,8,22.5,8z M3,9.5C3,9.223,3.224,9,3.5,9h7C10.776,9,11,9.223,11,9.5v4
			c0,0.275-0.224,0.5-0.5,0.5h-7C3.224,14,3,13.775,3,13.5V9.5z M21,19.5c0,0.275-0.224,0.5-0.5,0.5h-17C3.224,20,3,19.775,3,19.5
			v-4C3,15.223,3.224,15,3.5,15h17c0.276,0,0.5,0.223,0.5,0.5V19.5z M21,13.5c0,0.275-0.224,0.5-0.5,0.5h-7
			c-0.276,0-0.5-0.225-0.5-0.5v-4C13,9.223,13.224,9,13.5,9h7C20.776,9,21,9.223,21,9.5V13.5z"/>
		<path d="M23.5,3h-23C0.224,3,0,3.223,0,3.5v3C0,6.775,0.224,7,0.5,7h23C23.776,7,24,6.775,24,6.5v-3C24,3.223,23.776,3,23.5,3z"/>
		<path d="M4,19h16v-3H4V19z M12,17c0.275,0,0.5,0.223,0.5,0.5c0,0.275-0.225,0.5-0.5,0.5c-0.277,0-0.5-0.225-0.5-0.5
			C11.5,17.223,11.723,17,12,17z"/>
		<path d="M14,13h6v-3h-6V13z M17,11c0.275,0,0.5,0.223,0.5,0.5c0,0.275-0.225,0.5-0.5,0.5c-0.277,0-0.5-0.225-0.5-0.5
			C16.5,11.223,16.723,11,17,11z"/>
		<path d="M10,10H4v3h6V10z M7,12c-0.277,0-0.5-0.225-0.5-0.5C6.5,11.223,6.723,11,7,11c0.275,0,0.5,0.223,0.5,0.5
			C7.5,11.775,7.275,12,7,12z"/>
	</g>
</g>
<g id="invisible_shape">
	<rect fill="none" width="24" height="24"/>
</g>
</svg>
