<?xml version="1.0" encoding="utf-8"?>
<!-- Generator: Adobe Illustrator 19.2.0, SVG Export Plug-In . SVG Version: 6.00 Build 0)  -->
<svg version="1.1" xmlns="http://www.w3.org/2000/svg" xmlns:xlink="http://www.w3.org/1999/xlink" x="0px" y="0px" width="24px"
	 height="24px" viewBox="0 0 24 24" enable-background="new 0 0 24 24" xml:space="preserve">
<g id="Filled_Icons">
	<g>
		<path d="M10,5H5v8.994h5V5z M8,10c-0.552,0-1-0.447-1-1c0-0.551,0.448-1,1-1c0.553,0,1,0.449,1,1C9,9.553,8.553,10,8,10z"/>
		<path d="M19,5h-5v8.994h5V5z M16,10c-0.552,0-1-0.447-1-1c0-0.551,0.448-1,1-1c0.553,0,1,0.449,1,1C17,9.553,16.553,10,16,10z"/>
		<path d="M24,1.994V0.5C24,0.223,23.776,0,23.5,0h-23C0.224,0,0,0.223,0,0.5v1.494H24z"/>
		<path d="M2,17v6.516c0,0.276,0.224,0.5,0.5,0.5s0.5-0.224,0.5-0.5v-1.522h18v1.522c0,0.276,0.224,0.5,0.5,0.5s0.5-0.224,0.5-0.5
			V17H2z M12,20.5c-0.552,0-1-0.447-1-1c0-0.551,0.448-1,1-1c0.553,0,1,0.449,1,1C13,20.053,12.553,20.5,12,20.5z"/>
		<path d="M2,15.994h20V3H2V15.994z M13,4.5c0-0.277,0.224-0.5,0.5-0.506h6C19.776,4,20,4.223,20,4.5v10c0,0.276-0.224,0.5-0.5,0.5
			h-6c-0.276,0-0.5-0.224-0.5-0.5V4.5z M4,4.5C4,4.223,4.224,4,4.5,3.994h6C10.776,4,11,4.223,11,4.5v10c0,0.276-0.224,0.5-0.5,0.5
			h-6C4.224,15,4,14.776,4,14.5V4.5z"/>
	</g>
</g>
<g id="invisible_shape">
	<rect fill="none" width="24" height="24"/>
</g>
</svg>
