<?xml version="1.0" encoding="utf-8"?>
<!-- Generator: Adobe Illustrator 19.2.0, SVG Export Plug-In . SVG Version: 6.00 Build 0)  -->
<svg version="1.1" xmlns="http://www.w3.org/2000/svg" xmlns:xlink="http://www.w3.org/1999/xlink" x="0px" y="0px" width="24px"
	 height="24px" viewBox="0 0 24 24" enable-background="new 0 0 24 24" xml:space="preserve">
<g id="Filled_Icons">
	<g>
		<path d="M8,16H4.359c-0.004-0.007-0.004-0.015-0.009-0.023L2.987,7.344c-0.085-0.546-0.597-0.92-1.144-0.832
			C1.299,6.598,0.926,7.11,1.013,7.656l1.423,9.009l-1.41,6.109c-0.124,0.539,0.212,1.075,0.75,1.2C1.851,23.992,1.927,24,2.001,24
			c0.455,0,0.866-0.313,0.974-0.775L4.181,18H7v5c0,0.552,0.447,1,1,1s1-0.448,1-1v-6C9,16.448,8.553,16,8,16z"/>
		<path d="M21.565,16.666l1.423-9.009c0.087-0.546-0.286-1.058-0.831-1.144c-0.544-0.087-1.058,0.287-1.144,0.832l-1.363,8.633
			c-0.005,0.007-0.005,0.016-0.009,0.023H16c-0.553,0-1,0.448-1,1v6c0,0.552,0.447,1,1,1s1-0.448,1-1v-5h2.819l1.206,5.225
			C21.133,23.688,21.544,24,21.999,24c0.074,0,0.15-0.008,0.226-0.025c0.538-0.125,0.874-0.661,0.75-1.2L21.565,16.666z"/>
		<path d="M18,14c0.553,0,1-0.448,1-1c0-0.552-0.447-1-1-1H6c-0.553,0-1,0.448-1,1c0,0.552,0.447,1,1,1h5v9c0,0.552,0.447,1,1,1
			s1-0.448,1-1v-9H18z"/>
	</g>
</g>
<g id="invisible_shape">
	<rect fill="none" width="24" height="24"/>
</g>
</svg>
