<?xml version="1.0" encoding="utf-8"?>
<!-- Generator: Adobe Illustrator 19.2.0, SVG Export Plug-In . SVG Version: 6.00 Build 0)  -->
<svg version="1.1" xmlns="http://www.w3.org/2000/svg" xmlns:xlink="http://www.w3.org/1999/xlink" x="0px" y="0px" width="24px"
	 height="24px" viewBox="0 0 24 24" enable-background="new 0 0 24 24" xml:space="preserve">
<g id="Filled_Icons">
	<g>
		<path d="M16,1H5C3.898,1,3,1.897,3,3c0,1.102,0.898,2,2,2h11c1.103,0,2-0.898,2-2C18,1.897,17.103,1,16,1z"/>
		<path d="M14.5,8C15.327,8,16,7.327,16,6.5V6H5v0.5C5,7.327,5.673,8,6.5,8h0.398L4.009,23.408
			c-0.051,0.271,0.128,0.533,0.399,0.583c0.273,0.051,0.532-0.129,0.583-0.398L5.477,21H10v2.5c0,0.276,0.224,0.5,0.5,0.5
			s0.5-0.224,0.5-0.5V21h4.523l0.486,2.593c0.051,0.269,0.31,0.45,0.583,0.398c0.271-0.051,0.45-0.312,0.399-0.583L14.102,8H14.5z
			 M10,20H5.665l0.188-1H10V20z M10,18H6.04L7.915,8H10V18z M15.335,20H11v-1h4.148L15.335,20z M14.96,18H11V8h2.085L14.96,18z"/>
	</g>
</g>
<g id="invisible_shape">
	<rect fill="none" width="24" height="24"/>
</g>
</svg>
