<?xml version="1.0" encoding="utf-8"?>
<!-- Generator: Adobe Illustrator 19.2.0, SVG Export Plug-In . SVG Version: 6.00 Build 0)  -->
<svg version="1.1" xmlns="http://www.w3.org/2000/svg" xmlns:xlink="http://www.w3.org/1999/xlink" x="0px" y="0px" width="24px"
	 height="24px" viewBox="0 0 24 24" enable-background="new 0 0 24 24" xml:space="preserve">
<g id="Filled_Icons">
	<g>
		<path d="M11.5,6C8.468,6,6,8.9,6,12.464c0,1.271,0.318,2.454,0.859,3.455C7.837,15.329,9.55,14.5,11.5,14.5
			c2.127,0,3.788,0.699,4.717,1.272C16.711,14.803,17,13.674,17,12.464C17,8.9,14.532,6,11.5,6z"/>
		<path d="M12,4.031V0.5C12,0.224,11.776,0,11.5,0S11,0.224,11,0.5v3.531C7.098,4.341,4,8.24,4,13c0,4.962,3.364,9,7.5,9
			s7.5-4.038,7.5-9C19,8.24,15.902,4.341,12,4.031z M11.5,20C7.92,20,5,16.585,5,12.464C5,8.349,7.916,5,11.5,5S18,8.349,18,12.464
			C18,16.585,15.08,20,11.5,20z"/>
	</g>
</g>
<g id="invisible_shape">
	<rect fill="none" width="24" height="24"/>
</g>
</svg>
