<?xml version="1.0" encoding="utf-8"?>
<!-- Generator: Adobe Illustrator 19.2.0, SVG Export Plug-In . SVG Version: 6.00 Build 0)  -->
<svg version="1.1" xmlns="http://www.w3.org/2000/svg" xmlns:xlink="http://www.w3.org/1999/xlink" x="0px" y="0px" width="24px"
	 height="24px" viewBox="0 0 24 24" enable-background="new 0 0 24 24" xml:space="preserve">
<g id="Filled_Icons">
	<g>
		<polygon points="12.5,17 13,17 12.5,17 		"/>
		<path d="M21.5,14h-18C3.224,14,3,14.224,3,14.5V19h19v-4.5C22,14.224,21.776,14,21.5,14z M12.5,18c-0.552,0-1-0.449-1-1
			s0.448-1,1-1s1,0.449,1,1S13.052,18,12.5,18z"/>
		<rect x="3" y="20" width="19" height="1"/>
		<path d="M3,23.5C3,23.776,3.224,24,3.5,24h18c0.276,0,0.5-0.224,0.5-0.5V22H3V23.5z"/>
		<path d="M8.5,8H12v3.051c-1.08,0.184-1.963,0.942-2.323,1.949h5.646c-0.36-1.007-1.243-1.766-2.323-1.949V8h2v1.5
			c0,0.276,0.224,0.5,0.5,0.5S16,9.776,16,9.5V8h0.5c0.151,0,0.294-0.068,0.389-0.186c0.095-0.118,0.132-0.271,0.101-0.42l-1.5-7
			C15.439,0.165,15.235,0,15,0h-5C9.765,0,9.561,0.165,9.511,0.394l-1.5,7c-0.031,0.149,0.006,0.302,0.101,0.42
			C8.206,7.932,8.349,8,8.5,8z"/>
	</g>
</g>
<g id="invisible_shape">
	<rect fill="none" width="24" height="24"/>
</g>
</svg>
