<?xml version="1.0" encoding="utf-8"?>
<!-- Generator: Adobe Illustrator 19.2.0, SVG Export Plug-In . SVG Version: 6.00 Build 0)  -->
<svg version="1.1" xmlns="http://www.w3.org/2000/svg" xmlns:xlink="http://www.w3.org/1999/xlink" x="0px" y="0px" width="24px"
	 height="24px" viewBox="0 0 24 24" enable-background="new 0 0 24 24" xml:space="preserve">
<g id="Filled_Icons">
	<g>
		<path d="M1.5,0C1.224,0,1,0.224,1,0.5v23C1,23.776,1.224,24,1.5,24H8V0H1.5z M2.5,11C2.224,11,2,10.776,2,10.5S2.224,10,2.5,10
			S3,10.224,3,10.5S2.776,11,2.5,11z M5.5,21h-2C3.224,21,3,20.776,3,20.5S3.224,20,3.5,20h2C5.776,20,6,20.224,6,20.5
			S5.776,21,5.5,21z M5.5,19h-2C3.224,19,3,18.776,3,18.5S3.224,18,3.5,18h2C5.776,18,6,18.224,6,18.5S5.776,19,5.5,19z M5.5,7h-2
			C3.224,7,3,6.776,3,6.5S3.224,6,3.5,6h2C5.776,6,6,6.224,6,6.5S5.776,7,5.5,7z M5.5,5h-2C3.224,5,3,4.776,3,4.5S3.224,4,3.5,4h2
			C5.776,4,6,4.224,6,4.5S5.776,5,5.5,5z M5.5,3h-2C3.224,3,3,2.776,3,2.5S3.224,2,3.5,2h2C5.776,2,6,2.224,6,2.5S5.776,3,5.5,3z"/>
		<path d="M9,0v24h6V0H9z M10,10.5c0-0.276,0.224-0.5,0.5-0.5s0.5,0.224,0.5,0.5S10.776,11,10.5,11S10,10.776,10,10.5z M13,21h-2
			c-0.276,0-0.5-0.224-0.5-0.5S10.724,20,11,20h2c0.276,0,0.5,0.224,0.5,0.5S13.276,21,13,21z M13,19h-2c-0.276,0-0.5-0.224-0.5-0.5
			S10.724,18,11,18h2c0.276,0,0.5,0.224,0.5,0.5S13.276,19,13,19z M13,7h-2c-0.276,0-0.5-0.224-0.5-0.5S10.724,6,11,6h2
			c0.276,0,0.5,0.224,0.5,0.5S13.276,7,13,7z M13,5h-2c-0.276,0-0.5-0.224-0.5-0.5S10.724,4,11,4h2c0.276,0,0.5,0.224,0.5,0.5
			S13.276,5,13,5z M13,3h-2c-0.276,0-0.5-0.224-0.5-0.5S10.724,2,11,2h2c0.276,0,0.5,0.224,0.5,0.5S13.276,3,13,3z"/>
		<path d="M22.5,0H16v24h6.5c0.276,0,0.5-0.224,0.5-0.5v-23C23,0.224,22.776,0,22.5,0z M17.5,11c-0.276,0-0.5-0.224-0.5-0.5
			s0.224-0.5,0.5-0.5s0.5,0.224,0.5,0.5S17.776,11,17.5,11z M20.5,21h-2c-0.276,0-0.5-0.224-0.5-0.5s0.224-0.5,0.5-0.5h2
			c0.276,0,0.5,0.224,0.5,0.5S20.776,21,20.5,21z M20.5,19h-2c-0.276,0-0.5-0.224-0.5-0.5s0.224-0.5,0.5-0.5h2
			c0.276,0,0.5,0.224,0.5,0.5S20.776,19,20.5,19z M20.5,7h-2C18.224,7,18,6.776,18,6.5S18.224,6,18.5,6h2C20.776,6,21,6.224,21,6.5
			S20.776,7,20.5,7z M20.5,5h-2C18.224,5,18,4.776,18,4.5S18.224,4,18.5,4h2C20.776,4,21,4.224,21,4.5S20.776,5,20.5,5z M20.5,3h-2
			C18.224,3,18,2.776,18,2.5S18.224,2,18.5,2h2C20.776,2,21,2.224,21,2.5S20.776,3,20.5,3z"/>
	</g>
</g>
<g id="invisible_shape">
	<rect fill="none" width="24" height="24"/>
</g>
</svg>
