<?xml version="1.0" encoding="utf-8"?>
<!-- Generator: Adobe Illustrator 19.2.0, SVG Export Plug-In . SVG Version: 6.00 Build 0)  -->
<svg version="1.1" xmlns="http://www.w3.org/2000/svg" xmlns:xlink="http://www.w3.org/1999/xlink" x="0px" y="0px" width="24px"
	 height="24px" viewBox="0 0 24 24" enable-background="new 0 0 24 24" xml:space="preserve">
<g id="Filled_Icons">
	<g>
		<path d="M23.5,19H6v-3.5c0-2.034-1.568-4-3.5-4C1.121,11.5,0,12.622,0,14c0,1.015,0.604,1.921,1.539,2.31
			C1.819,16.425,2,16.696,2,17v2.5C2,21.43,3.57,23,5.5,23H6v0.5C6,23.776,6.224,24,6.5,24S7,23.776,7,23.5V23h10v0.5
			c0,0.276,0.224,0.5,0.5,0.5s0.5-0.224,0.5-0.5V23h5.5c0.276,0,0.5-0.224,0.5-0.5v-3C24,19.224,23.776,19,23.5,19z"/>
		<path d="M20.5,12h-5.867c-0.524,0-1.018-0.279-1.287-0.728l-1.106-1.844C11.342,7.931,9.699,7,7.952,7H7.5
			c-2.242,0-4.121,1.493-4.754,3.529C5.038,10.686,7,12.929,7,15.5V18h16.5c0.276,0,0.5-0.224,0.5-0.5v-2C24,13.57,22.43,12,20.5,12
			z"/>
	</g>
</g>
<g id="invisible_shape">
	<rect fill="none" width="24" height="24"/>
</g>
</svg>
