<?xml version="1.0" encoding="utf-8"?>
<!-- Generator: Adobe Illustrator 19.2.0, SVG Export Plug-In . SVG Version: 6.00 Build 0)  -->
<svg version="1.1" xmlns="http://www.w3.org/2000/svg" xmlns:xlink="http://www.w3.org/1999/xlink" x="0px" y="0px" width="24px"
	 height="24px" viewBox="0 0 24 24" enable-background="new 0 0 24 24" xml:space="preserve">
<g id="Filled_Icons">
	<g>
		<path d="M13.984,20.66L14,15h-4v5.55C8.86,20.783,8,21.792,8,23v0.5C8,23.776,8.224,24,8.5,24h7c0.276,0,0.5-0.224,0.5-0.5V23
			C16,21.792,15.14,20.783,13.984,20.66z"/>
		<path d="M23.5,8h-23C0.224,8,0,8.224,0,8.5C0,10.43,1.57,12,3.5,12h5.051c0.232,1.14,1.241,2,2.449,2h2
			c1.208,0,2.217-0.86,2.449-2H20.5c1.93,0,3.5-1.57,3.5-3.5C24,8.224,23.776,8,23.5,8z"/>
		<path d="M18.948,7l0.473-1.655L19.973,7h1.055l-1.053-3.158c-0.018-0.055-0.05-0.101-0.083-0.144l0.589-2.061
			C20.572,1.314,20.329,1,20,1h-5c-0.224,0-0.419,0.148-0.481,0.363L12.909,7H18.948z"/>
	</g>
</g>
<g id="invisible_shape">
	<rect fill="none" width="24" height="24"/>
</g>
</svg>
