<?xml version="1.0" encoding="utf-8"?>
<!-- Generator: Adobe Illustrator 19.2.0, SVG Export Plug-In . SVG Version: 6.00 Build 0)  -->
<svg version="1.1" xmlns="http://www.w3.org/2000/svg" xmlns:xlink="http://www.w3.org/1999/xlink" x="0px" y="0px" width="24px"
	 height="24px" viewBox="0 0 24 24" enable-background="new 0 0 24 24" xml:space="preserve">
<g id="Filled_Icons">
	<g>
		<rect x="13" y="15" width="7" height="2"/>
		<path d="M22.5,12H15c0.276,0,0.5-0.224,0.5-0.5c0-0.277-0.224-0.5-0.5-0.5h-3v-1h6.5c0.276,0,0.5-0.224,0.5-0.5v-9
			C19,0.223,18.776,0,18.5,0h-14C4.224,0,4,0.223,4,0.5v9C4,9.776,4.224,10,4.5,10H11v1H8c-0.276,0-0.5,0.223-0.5,0.5
			C7.5,11.776,7.724,12,8,12H0.5C0.224,12,0,12.223,0,12.5v11C0,23.776,0.224,24,0.5,24H4c0.188,0,0.361-0.106,0.446-0.274L6.328,20
			h10.366l1.902,3.728C18.682,23.895,18.854,24,19.042,24H22.5c0.276,0,0.5-0.224,0.5-0.5v-11C23,12.223,22.776,12,22.5,12z M5,1h13
			v8H5V1z M11,17.5c0,0.276-0.224,0.5-0.5,0.5h-8C2.224,18,2,17.776,2,17.5v-3C2,14.223,2.224,14,2.5,14h8
			c0.276,0,0.5,0.223,0.5,0.5V17.5z M21,17.5c0,0.276-0.224,0.5-0.5,0.5h-8c-0.276,0-0.5-0.224-0.5-0.5v-3
			c0-0.277,0.224-0.5,0.5-0.5h8c0.276,0,0.5,0.223,0.5,0.5V17.5z"/>
		<rect x="3" y="15" width="7" height="2"/>
	</g>
</g>
<g id="invisible_shape">
	<rect fill="none" width="24" height="24"/>
</g>
</svg>
