<?xml version="1.0" encoding="utf-8"?>
<!-- Generator: Adobe Illustrator 19.2.0, SVG Export Plug-In . SVG Version: 6.00 Build 0)  -->
<svg version="1.1" xmlns="http://www.w3.org/2000/svg" xmlns:xlink="http://www.w3.org/1999/xlink" x="0px" y="0px" width="24px"
	 height="24px" viewBox="0 0 24 24" enable-background="new 0 0 24 24" xml:space="preserve">
<g id="Filled_Icons">
	<g>
		<path d="M22.5,11h-21C1.224,11,1,11.224,1,11.5v12C1,23.776,1.224,24,1.5,24S2,23.776,2,23.5V22h20v1.5c0,0.276,0.224,0.5,0.5,0.5
			s0.5-0.224,0.5-0.5v-2v-10C23,11.224,22.776,11,22.5,11z M22,21h-8v-9h8V21z M8.5,13.5c0,0.552-0.447,1-1,1c-0.552,0-1-0.448-1-1
			c0-0.552,0.448-1,1-1C8.053,12.5,8.5,12.948,8.5,13.5z M2,16h11v5H2V16z"/>
		<path d="M7.5,10.5h2c1.76,0,3.254-1.135,3.789-2.715C13.504,7.152,12.995,6.5,12.327,6.5H9V3c0-0.551,0.448-1,1-1s1,0.449,1,1
			c0,0.276,0.224,0.5,0.5,0.5S12,3.276,12,3c0-1.103-0.898-2-2-2S8,1.897,8,3v3.5H4.673c-0.668,0-1.177,0.652-0.962,1.285
			C4.246,9.365,5.74,10.5,7.5,10.5z"/>
		<path d="M15.5,13c-0.276,0-0.5,0.224-0.5,0.5v2.793L18.293,13H15.5z"/>
		<path d="M15.5,20h0.793L21,15.293V13.5c0-0.276-0.224-0.5-0.5-0.5h-0.793L15,17.706V19.5C15,19.776,15.224,20,15.5,20z"/>
		<path d="M20.5,20c0.276,0,0.5-0.224,0.5-0.5v-2.794L17.707,20H20.5z"/>
	</g>
</g>
<g id="invisible_shape">
	<rect fill="none" width="24" height="24"/>
</g>
</svg>
