<?xml version="1.0" encoding="utf-8"?>
<!-- Generator: Adobe Illustrator 16.0.3, SVG Export Plug-In . SVG Version: 6.00 Build 0)  -->
<!DOCTYPE svg PUBLIC "-//W3C//DTD SVG 1.1//EN" "http://www.w3.org/Graphics/SVG/1.1/DTD/svg11.dtd">
<svg version="1.1" xmlns="http://www.w3.org/2000/svg" xmlns:xlink="http://www.w3.org/1999/xlink" x="0px" y="0px" width="24px"
	 height="24px" viewBox="0 0 24 24" enable-background="new 0 0 24 24" xml:space="preserve">
<g id="Outline_Icons">
	<g>
		<g>
			<path fill="none" stroke="#000000" stroke-linecap="square" stroke-linejoin="round" stroke-miterlimit="10" d="M4.5,11.504
				c0-0.55,0.45-1,1-1l7.531,0.002c0.55,0,0.696-0.332,0.324-0.737l-2.373-2.587c-0.372-0.406-0.357-1.056,0.032-1.444l0.296-0.296
				c0.389-0.389,1.02-0.383,1.401,0.014l5.61,5.824c0.382,0.396,0.384,1.048,0.006,1.447l-5.516,5.821
				c-0.378,0.399-1.006,0.407-1.395,0.019l-0.296-0.295c-0.389-0.389-0.408-1.043-0.041-1.453l2.3-2.572
				c0.367-0.41,0.217-0.746-0.333-0.746H5.5c-0.55,0-1-0.45-1-1V11.504z"/>
		</g>
		<circle fill="none" stroke="#000000" stroke-miterlimit="10" cx="12" cy="12.004" r="11.5"/>
	</g>
</g>
<g id="Frames-24px">
	<rect fill="none" width="24" height="24"/>
</g>
</svg>
