<?xml version="1.0" encoding="utf-8"?>
<!-- Generator: Adobe Illustrator 16.0.3, SVG Export Plug-In . SVG Version: 6.00 Build 0)  -->
<!DOCTYPE svg PUBLIC "-//W3C//DTD SVG 1.1//EN" "http://www.w3.org/Graphics/SVG/1.1/DTD/svg11.dtd">
<svg version="1.1" xmlns="http://www.w3.org/2000/svg" xmlns:xlink="http://www.w3.org/1999/xlink" x="0px" y="0px" width="24px"
	 height="24px" viewBox="0 0 24 24" enable-background="new 0 0 24 24" xml:space="preserve">
<g id="Outline_Icons">
	<g>
		<g>
			<path fill="none" stroke="#000000" stroke-linecap="square" stroke-linejoin="round" stroke-miterlimit="10" d="M17.642,7.07
				c0.389,0.389,0.389,1.025,0,1.414l-5.312,5.309c-0.389,0.389-0.257,0.707,0.293,0.707h2.881c0.55,0,1,0.45,1,1l-0.001,1.019
				c0,0.55-0.451,1-1,1H7.514c-0.55,0-1-0.45-1-1V8.5c0-0.55,0.45-1,1-1h1c0.55,0,1,0.45,1,1v2.913c0,0.55,0.318,0.682,0.707,0.293
				l5.322-5.321c0.389-0.389,1.025-0.389,1.414,0L17.642,7.07z"/>
		</g>
		<circle fill="none" stroke="#000000" stroke-miterlimit="10" cx="12" cy="12" r="11.5"/>
	</g>
</g>
<g id="Frames-24px">
	<rect fill="none" width="24" height="24"/>
</g>
</svg>
