<?xml version="1.0" encoding="utf-8"?>
<!-- Generator: Adobe Illustrator 16.0.3, SVG Export Plug-In . SVG Version: 6.00 Build 0)  -->
<!DOCTYPE svg PUBLIC "-//W3C//DTD SVG 1.1//EN" "http://www.w3.org/Graphics/SVG/1.1/DTD/svg11.dtd">
<svg version="1.1" xmlns="http://www.w3.org/2000/svg" xmlns:xlink="http://www.w3.org/1999/xlink" x="0px" y="0px" width="24px"
	 height="24px" viewBox="0 0 24 24" enable-background="new 0 0 24 24" xml:space="preserve">
<g id="Outline_Icons">
	<g>
		<path fill="none" stroke="#000000" d="M23.5,12.004c0-0.828-0.639-1.5-1.5-1.5s-1.5,0.672-1.5,1.5c0,0.83,0.639,1.5,1.5,1.5
			S23.5,12.834,23.5,12.004z"/>
		<path fill="none" stroke="#000000" d="M19.5,17.004c0-0.828-0.639-1.5-1.5-1.5s-1.5,0.672-1.5,1.5c0,0.83,0.639,1.5,1.5,1.5
			S19.5,17.834,19.5,17.004z"/>
		<path fill="none" stroke="#000000" d="M15.5,21.004c0-0.828-0.639-1.5-1.5-1.5s-1.5,0.672-1.5,1.5c0,0.83,0.639,1.5,1.5,1.5
			S15.5,21.834,15.5,21.004z"/>
		<path fill="none" stroke="#000000" d="M19.5,7.004c0,0.83-0.639,1.5-1.5,1.5s-1.5-0.67-1.5-1.5c0-0.828,0.639-1.5,1.5-1.5
			S19.5,6.176,19.5,7.004z"/>
		<path fill="none" stroke="#000000" d="M15.5,3.004c0,0.83-0.639,1.5-1.5,1.5s-1.5-0.67-1.5-1.5c0-0.828,0.639-1.5,1.5-1.5
			S15.5,2.176,15.5,3.004z"/>
		<path fill="none" stroke="#000000" d="M3.5,12.004c0-0.828-0.639-1.5-1.5-1.5s-1.5,0.672-1.5,1.5c0,0.83,0.639,1.5,1.5,1.5
			S3.5,12.834,3.5,12.004z"/>
		<path fill="none" stroke="#000000" d="M8.5,12.004c0-0.828-0.639-1.5-1.5-1.5s-1.5,0.672-1.5,1.5c0,0.83,0.639,1.5,1.5,1.5
			S8.5,12.834,8.5,12.004z"/>
		<path fill="none" stroke="#000000" d="M13.5,12.004c0-0.828-0.639-1.5-1.5-1.5s-1.5,0.672-1.5,1.5c0,0.83,0.639,1.5,1.5,1.5
			S13.5,12.834,13.5,12.004z"/>
		<path fill="none" stroke="#000000" d="M18.5,12.004c0-0.828-0.639-1.5-1.5-1.5s-1.5,0.672-1.5,1.5c0,0.83,0.639,1.5,1.5,1.5
			S18.5,12.834,18.5,12.004z"/>
	</g>
</g>
<g id="Frames-24px">
	<rect fill="none" width="24" height="24"/>
</g>
</svg>
