<?xml version="1.0" encoding="utf-8"?>
<!-- Generator: Adobe Illustrator 16.0.3, SVG Export Plug-In . SVG Version: 6.00 Build 0)  -->
<!DOCTYPE svg PUBLIC "-//W3C//DTD SVG 1.1//EN" "http://www.w3.org/Graphics/SVG/1.1/DTD/svg11.dtd">
<svg version="1.1" xmlns="http://www.w3.org/2000/svg" xmlns:xlink="http://www.w3.org/1999/xlink" x="0px" y="0px" width="24px"
	 height="24px" viewBox="0 0 24 24" enable-background="new 0 0 24 24" xml:space="preserve">
<g id="Outline_Icons">
	<g>
		<g>
			<path fill="none" stroke="#000000" stroke-linecap="square" stroke-linejoin="round" stroke-miterlimit="10" d="M11.5,19.5
				c-0.55,0-1-0.45-1-1l0.001-7.527c0-0.55-0.332-0.695-0.737-0.324l-2.587,2.373c-0.406,0.372-1.055,0.357-1.444-0.031
				l-0.296-0.297c-0.389-0.389-0.382-1.02,0.014-1.4l5.829-5.611c0.396-0.381,1.047-0.384,1.446-0.005l5.818,5.516
				c0.399,0.378,0.407,1.006,0.019,1.395l-0.296,0.297c-0.389,0.389-1.042,0.407-1.452,0.04l-2.569-2.3
				c-0.41-0.366-0.745-0.217-0.745,0.333V18.5c0,0.55-0.45,1-1,1H11.5z"/>
		</g>
		<circle fill="none" stroke="#000000" stroke-miterlimit="10" cx="12" cy="12.004" r="11.5"/>
	</g>
</g>
<g id="Frames-24px">
	<rect fill="none" width="24" height="24"/>
</g>
</svg>
