<?xml version="1.0" encoding="utf-8"?>
<!-- Generator: Adobe Illustrator 16.0.3, SVG Export Plug-In . SVG Version: 6.00 Build 0)  -->
<!DOCTYPE svg PUBLIC "-//W3C//DTD SVG 1.1//EN" "http://www.w3.org/Graphics/SVG/1.1/DTD/svg11.dtd">
<svg version="1.1" xmlns="http://www.w3.org/2000/svg" xmlns:xlink="http://www.w3.org/1999/xlink" x="0px" y="0px" width="24px"
	 height="24px" viewBox="0 0 24 24" enable-background="new 0 0 24 24" xml:space="preserve">
<g id="Outline_Icons">
	<g>
		<g>
			<polygon points="3.682,11.066 1.833,11.066 1.833,12.914 3.682,12.914 3.682,11.066 			"/>
		</g>
		<g>
			<polygon points="7.378,11.066 5.53,11.066 5.53,12.914 7.378,12.914 7.378,11.066 			"/>
		</g>
		<g>
			<polygon points="11.075,11.066 9.227,11.066 9.227,12.914 11.075,12.914 11.075,11.066 			"/>
		</g>
		<g>
			<polygon points="14.772,11.066 12.924,11.066 12.924,12.914 14.772,12.914 14.772,11.066 			"/>
		</g>
		<g>
			<polygon points="11.075,14.762 9.227,14.762 9.227,16.611 11.075,16.611 11.075,14.762 			"/>
		</g>
		<g>
			<polygon points="14.772,14.762 12.924,14.762 12.924,16.611 14.772,16.611 14.772,14.762 			"/>
		</g>
		<g>
			<polygon points="11.075,18.459 9.227,18.459 9.227,20.307 11.075,20.307 11.075,18.459 			"/>
		</g>
		<g>
			<polygon points="14.772,18.459 12.924,18.459 12.924,20.307 14.772,20.307 14.772,18.459 			"/>
		</g>
		<g>
			<polygon points="11.075,22.156 9.227,22.156 9.227,24.004 11.075,24.004 11.075,22.156 			"/>
		</g>
		<g>
			<polygon points="14.772,22.156 12.924,22.156 12.924,24.004 14.772,24.004 14.772,22.156 			"/>
		</g>
		<g>
			<polygon points="18.469,11.066 16.621,11.066 16.621,12.914 18.469,12.914 18.469,11.066 			"/>
		</g>
		<g>
			<polygon points="7.378,7.369 5.53,7.369 5.53,9.217 7.378,9.217 7.378,7.369 			"/>
		</g>
		<g>
			<polygon points="11.075,7.369 9.227,7.369 9.227,9.217 11.075,9.217 11.075,7.369 			"/>
		</g>
		<g>
			<polygon points="14.772,7.369 12.924,7.369 12.924,9.217 14.772,9.217 14.772,7.369 			"/>
		</g>
		<g>
			<polygon points="14.772,3.672 12.924,3.672 12.924,5.521 14.772,5.521 14.772,3.672 			"/>
		</g>
		<g>
			<polygon points="12.924,0.004 11.075,0.004 11.075,1.854 12.924,1.854 12.924,0.004 			"/>
		</g>
		<g>
			<polygon points="11.075,3.672 9.227,3.672 9.227,5.521 11.075,5.521 11.075,3.672 			"/>
		</g>
		<g>
			<polygon points="18.469,7.369 16.621,7.369 16.621,9.217 18.469,9.217 18.469,7.369 			"/>
		</g>
		<g>
			<polygon points="22.166,11.066 20.316,11.066 20.316,12.914 22.166,12.914 22.166,11.066 			"/>
		</g>
	</g>
</g>
<g id="Frames-24px">
	<rect fill="none" width="24" height="24"/>
</g>
</svg>
