<?xml version="1.0" encoding="utf-8"?>
<!-- Generator: Adobe Illustrator 19.2.1, SVG Export Plug-In . SVG Version: 6.00 Build 0)  -->
<svg version="1.1" xmlns="http://www.w3.org/2000/svg" xmlns:xlink="http://www.w3.org/1999/xlink" x="0px" y="0px" width="24px"
	 height="24px" viewBox="0 0 24 24" enable-background="new 0 0 24 24" xml:space="preserve">
<g id="Filled_Icon">
	<g>
		<path d="M23,22H12.96c-0.212-2.558-1.226-4.888-2.795-6.741l1.542-1.542c0.391-0.391,0.391-1.024,0-1.414
			c-0.391-0.391-1.023-0.391-1.414,0l-1.542,1.541C6.898,12.275,4.565,11.262,2,11.05L1.996,0.999C2,0.447,1.553,0,1,0h0
			C0.448,0.001,0,0.448,0.001,1l0.011,21.955C-0.021,23.521,0.394,24,1,24c0.019,0,22,0,22,0c0.552,0,1-0.448,1-1
			C24,22.448,23.553,22,23,22z M10.96,22H3.425l0.282-0.282c0.391-0.391,0.391-1.024,0-1.414s-1.023-0.391-1.414,0L2,20.587
			L1.997,13.05C6.726,13.519,10.49,17.281,10.96,22z"/>
		<path d="M5.707,19.718l2-2c0.391-0.391,0.391-1.024,0-1.414c-0.391-0.391-1.023-0.391-1.414,0l-2,2
			c-0.391,0.391-0.391,1.023,0,1.414C4.684,20.108,5.317,20.108,5.707,19.718z"/>
		<path d="M13.708,11.718l2-2c0.391-0.391,0.391-1.024,0-1.414c-0.391-0.391-1.023-0.391-1.414,0l-2,2
			c-0.391,0.391-0.391,1.023,0,1.414C12.684,12.108,13.317,12.108,13.708,11.718z"/>
		<path d="M17.708,7.718l2-2c0.391-0.391,0.391-1.023,0-1.414s-1.023-0.391-1.414,0l-2,2c-0.391,0.391-0.391,1.023,0,1.414
			C16.684,8.108,17.317,8.108,17.708,7.718z"/>
		<path d="M21.708,3.718l2-2c0.391-0.391,0.391-1.023,0-1.414s-1.023-0.391-1.414,0l-2,2c-0.391,0.391-0.391,1.023,0,1.414
			C20.684,4.108,21.317,4.108,21.708,3.718z"/>
	</g>
</g>
<g id="Invisible_Shape">
	<rect x="0.001" fill="none" width="24" height="24"/>
</g>
</svg>
