<?xml version="1.0" encoding="utf-8"?>
<!-- Generator: Adobe Illustrator 19.2.1, SVG Export Plug-In . SVG Version: 6.00 Build 0)  -->
<svg version="1.1" xmlns="http://www.w3.org/2000/svg" xmlns:xlink="http://www.w3.org/1999/xlink" x="0px" y="0px" width="24px"
	 height="24px" viewBox="0 0 24 24" enable-background="new 0 0 24 24" xml:space="preserve">
<g id="Filled_Icon">
	<g>
		<path d="M7,5c0.552,0,1-0.448,1-1V1c0-0.552-0.448-1-1-1S6,0.448,6,1v3C6,4.552,6.448,5,7,5z"/>
		<path d="M4,6H1C0.448,6,0,6.448,0,7c0,0.552,0.448,1,1,1h3c0.552,0,1-0.448,1-1C5,6.448,4.552,6,4,6z"/>
		<path d="M4,16H1c-0.552,0-1,0.448-1,1c0,0.552,0.448,1,1,1h3c0.552,0,1-0.448,1-1C5,16.448,4.552,16,4,16z"/>
		<path d="M17,0c-0.552,0-1,0.448-1,1v3c0,0.552,0.448,1,1,1s1-0.448,1-1V1C18,0.448,17.552,0,17,0z"/>
		<path d="M7,19c-0.552,0-1,0.448-1,1v3c0,0.552,0.448,1,1,1s1-0.448,1-1v-3C8,19.448,7.552,19,7,19z"/>
		<path d="M17,19c-0.552,0-1,0.448-1,1v3c0,0.552,0.448,1,1,1s1-0.448,1-1v-3C18,19.448,17.552,19,17,19z"/>
		<path d="M20,8h3c0.552,0,1-0.448,1-1c0-0.552-0.448-1-1-1h-3c-0.552,0-1,0.448-1,1C19,7.552,19.448,8,20,8z"/>
		<path d="M23,16h-3c-0.552,0-1,0.448-1,1c0,0.552,0.448,1,1,1h3c0.552,0,1-0.448,1-1C24,16.448,23.552,16,23,16z"/>
		<path d="M17,6H7C6.448,6,6,6.448,6,7v10c0,0.552,0.448,1,1,1h10c0.552,0,1-0.448,1-1V7C18,6.448,17.552,6,17,6z M16,16H8V8h8V16z"
			/>
	</g>
</g>
<g id="Invisible_Shape">
	<rect x="0.001" fill="none" width="24" height="24"/>
</g>
</svg>
