<?xml version="1.0" encoding="utf-8"?>
<!-- Generator: Adobe Illustrator 19.2.1, SVG Export Plug-In . SVG Version: 6.00 Build 0)  -->
<svg version="1.1" xmlns="http://www.w3.org/2000/svg" xmlns:xlink="http://www.w3.org/1999/xlink" x="0px" y="0px" width="24px"
	 height="24px" viewBox="0 0 24 24" enable-background="new 0 0 24 24" xml:space="preserve">
<g id="Filled_Icon">
	<g>
		<path d="M18,0.5C18,0.224,17.776,0,17.5,0h-17C0.224,0,0,0.224,0,0.5v17C0,17.777,0.224,18,0.5,18H5V5.5C5,5.224,5.224,5,5.5,5H18
			V0.5z"/>
		<path d="M23.5,6h-17C6.224,6,6,6.224,6,6.5v17C6,23.777,6.224,24,6.5,24h17c0.276,0,0.5-0.223,0.5-0.5v-17
			C24,6.224,23.776,6,23.5,6z"/>
	</g>
</g>
<g id="Invisible_Shape">
	<rect x="0.001" fill="none" width="24" height="24"/>
</g>
</svg>
