<?xml version="1.0" encoding="utf-8"?>
<!-- Generator: Adobe Illustrator 19.2.1, SVG Export Plug-In . SVG Version: 6.00 Build 0)  -->
<svg version="1.1" xmlns="http://www.w3.org/2000/svg" xmlns:xlink="http://www.w3.org/1999/xlink" x="0px" y="0px" width="24px"
	 height="24px" viewBox="0 0 24 24" enable-background="new 0 0 24 24" xml:space="preserve">
<g id="Filled_Icon">
	<g>
		<path d="M2.5,15c0,4.794,3.77,8.713,8.5,8.975V13.62L5.344,7.964C3.778,10.481,2.5,13.106,2.5,15z"/>
		<path d="M11,0.315c-0.461,0.539-2.186,2.59-3.962,5.101L11,9.378V0.315z"/>
		<path d="M22.578,22.37L1.13,0.922c-0.195-0.196-0.512-0.196-0.707,0c-0.195,0.195-0.195,0.511,0,0.707l21.448,21.448
			c0.196,0.195,0.511,0.195,0.707,0C22.773,22.881,22.773,22.565,22.578,22.37z"/>
		<path d="M13,1.52c-0.472-0.581-0.825-1.001-1-1.206v10.063l1,1V1.52z"/>
		<path d="M12,23.975c0.339-0.018,0.672-0.055,1-0.11V15.62l-1-1V23.975z"/>
		<path d="M15,4.095c-0.347-0.467-0.685-0.913-1-1.318v9.601l1,1V4.095z"/>
		<path d="M14,23.639c0.341-0.099,0.677-0.211,1-0.348V17.62l-1-1V23.639z"/>
		<path d="M17,6.938c-0.33-0.501-0.665-0.986-1-1.462v8.902l1,1V6.938z"/>
		<path d="M16,22.783c0.349-0.203,0.683-0.429,1-0.675V19.62l-1-1V22.783z"/>
		<path d="M18,8.527v7.851l1.88,1.88C21.26,14.74,20.134,12.082,18,8.527z"/>
		<path d="M18,21.208c0.096-0.1,0.183-0.209,0.273-0.314L18,20.62V21.208z"/>
	</g>
</g>
<g id="Invisible_Shape">
	<rect x="0.001" fill="none" width="24" height="24"/>
</g>
</svg>
