<?xml version="1.0" encoding="utf-8"?>
<!-- Generator: Adobe Illustrator 19.2.1, SVG Export Plug-In . SVG Version: 6.00 Build 0)  -->
<svg version="1.1" xmlns="http://www.w3.org/2000/svg" xmlns:xlink="http://www.w3.org/1999/xlink" x="0px" y="0px" width="24px"
	 height="24px" viewBox="0 0 24 24" enable-background="new 0 0 24 24" xml:space="preserve">
<g id="Filled_Icon">
	<g>
		<path d="M3.586,15.707l-2.439,2.44c-1.366,1.365-1.365,3.343,0,4.707c1.366,1.365,3.346,1.361,4.707,0l2.44-2.439L3.586,15.707z"
			/>
		<path d="M19.354,9.646l-5-5c-0.195-0.195-0.512-0.195-0.707,0l-9.5,9.5c-0.195,0.195-0.195,0.512,0,0.707l5,5
			c0.195,0.195,0.512,0.195,0.707,0l9.5-9.5C19.549,10.159,19.549,9.842,19.354,9.646z M16.354,10.354l-6,6
			c-0.195,0.195-0.512,0.195-0.707,0l-2-2c-0.195-0.195-0.195-0.512,0-0.707l6-6c0.195-0.195,0.512-0.195,0.707,0l2,2
			C16.549,9.842,16.549,10.159,16.354,10.354z"/>
		<g>
			<path d="M23.854,6.147L22.457,4.75L19.25,7.957l1.396,1.397c0.195,0.195,0.512,0.195,0.707,0l2.5-2.5
				C24.049,6.659,24.049,6.342,23.854,6.147z"/>
			<rect x="16.982" y="3.482" transform="matrix(0.7072 -0.707 0.707 0.7072 2.2781 15.0006)" width="4.535" height="2.536"/>
			<path d="M19.25,1.543l-1.396-1.396c-0.195-0.195-0.512-0.195-0.707,0l-2.5,2.5c-0.195,0.195-0.195,0.512,0,0.707l1.396,1.397
				L19.25,1.543z"/>
		</g>
	</g>
</g>
<g id="Invisible_Shape">
	<rect x="0.001" fill="none" width="24" height="24"/>
</g>
</svg>
