<?xml version="1.0" encoding="utf-8"?>
<!-- Generator: Adobe Illustrator 19.2.1, SVG Export Plug-In . SVG Version: 6.00 Build 0)  -->
<svg version="1.1" xmlns="http://www.w3.org/2000/svg" xmlns:xlink="http://www.w3.org/1999/xlink" x="0px" y="0px" width="24px"
	 height="24px" viewBox="0 0 24 24" enable-background="new 0 0 24 24" xml:space="preserve">
<g id="Filled_Icon">
	<g>
		<path d="M17,6.938c-0.33-0.501-0.665-0.986-1-1.462v17.307c0.349-0.203,0.683-0.429,1-0.675V6.938z"/>
		<path d="M15,4.095c-0.347-0.467-0.685-0.913-1-1.318v20.862c0.341-0.099,0.677-0.211,1-0.348V4.095z"/>
		<path d="M13,1.52c-0.472-0.581-0.825-1.001-1-1.206v23.66c0.339-0.018,0.672-0.055,1-0.11V1.52z"/>
		<path d="M18,8.527v12.681c1.545-1.616,2.5-3.8,2.5-6.208C20.5,13.248,19.406,10.868,18,8.527z"/>
		<path d="M11,0.315C9.961,1.53,2.5,10.413,2.5,15c0,4.794,3.77,8.713,8.5,8.975V0.315z"/>
	</g>
</g>
<g id="Invisible_Shape">
	<rect x="0.001" fill="none" width="24" height="24"/>
</g>
</svg>
