<?xml version="1.0" encoding="utf-8"?>
<!-- Generator: Adobe Illustrator 19.2.1, SVG Export Plug-In . SVG Version: 6.00 Build 0)  -->
<svg version="1.1" xmlns="http://www.w3.org/2000/svg" xmlns:xlink="http://www.w3.org/1999/xlink" x="0px" y="0px" width="24px"
	 height="24px" viewBox="0 0 24 24" enable-background="new 0 0 24 24" xml:space="preserve">
<g id="Filled_Icon">
	<g>
		<g>
			<rect x="8" width="2" height="5"/>
			<rect x="11" width="2" height="5"/>
			<rect x="14" width="2" height="5"/>
			<path d="M7,0H4.5C4.224,0,4,0.224,4,0.5v4C4,4.776,4.224,5,4.5,5H7V0z"/>
			<path d="M19.5,0H17v5h2.5C19.776,5,20,4.776,20,4.5v-4C20,0.224,19.776,0,19.5,0z"/>
		</g>
		<path d="M18,7.17V6H6v1.17C4.988,7.632,2,9.272,2,12.5v8C2,22.43,3.57,24,5.5,24h13c1.93,0,3.5-1.57,3.5-3.5v-8
			C22,9.272,19.012,7.632,18,7.17z M21,18H3v-5h18V18z"/>
		<g>
			<path d="M17,16H7c-0.276,0-0.5-0.224-0.5-0.5S6.724,15,7,15h10c0.276,0,0.5,0.224,0.5,0.5S17.276,16,17,16z"/>
		</g>
	</g>
</g>
<g id="Invisible_Shape">
	<rect x="0.001" fill="none" width="24" height="24"/>
</g>
</svg>
