<?xml version="1.0" encoding="utf-8"?>
<!-- Generator: Adobe Illustrator 19.2.1, SVG Export Plug-In . SVG Version: 6.00 Build 0)  -->
<svg version="1.1" xmlns="http://www.w3.org/2000/svg" xmlns:xlink="http://www.w3.org/1999/xlink" x="0px" y="0px" width="24px"
	 height="24px" viewBox="0 0 24 24" enable-background="new 0 0 24 24" xml:space="preserve">
<g id="Filled_Icon">
	<g>
		<rect x="15" y="7" width="1" height="1"/>
		<rect x="13" y="5" width="1" height="1"/>
		<rect x="10" y="10" width="1" height="1"/>
		<rect x="11" y="5" width="1" height="1"/>
		<rect x="12" y="10" width="1" height="1"/>
		<rect x="14" y="10" width="1" height="1"/>
		<rect x="7.001" y="3" width="1" height="1"/>
		<rect x="15" y="3" width="1" height="1"/>
		<rect x="15" y="5" width="1" height="1"/>
		<rect x="9" y="3" width="1" height="1"/>
		<rect x="13" y="7" width="1" height="1"/>
		<rect x="11" y="3" width="1" height="1"/>
		<rect x="8" y="10" width="1" height="1"/>
		<rect x="13" y="3" width="1" height="1"/>
		<rect x="15" y="9" width="1" height="1"/>
		<rect x="14" y="8" width="1" height="1"/>
		<rect x="8" y="8" width="1" height="1"/>
		<rect x="14" y="4" width="1" height="1"/>
		<rect x="14" y="6" width="1" height="1"/>
		<rect x="13" y="9" width="1" height="1"/>
		<rect x="9" y="9" width="1" height="1"/>
		<rect x="11" y="9" width="1" height="1"/>
		<rect x="7.001" y="7" width="1" height="1"/>
		<rect x="7.001" y="5" width="1" height="1"/>
		<rect x="9" y="5" width="1" height="1"/>
		<rect x="7.001" y="9" width="1" height="1"/>
		<rect x="8" y="4" width="1" height="1"/>
		<rect x="10" y="4" width="1" height="1"/>
		<rect x="12" y="4" width="1" height="1"/>
		<rect x="8" y="6" width="1" height="1"/>
		<rect x="15" y="11" width="1" height="1"/>
		<rect x="13" y="11" width="1" height="1"/>
		<rect x="16" y="10" width="1" height="1"/>
		<rect x="11" y="11" width="1" height="1"/>
		<rect x="9" y="11" width="1" height="1"/>
		<rect x="11" y="7" width="1" height="1"/>
		<rect x="10" y="6" width="1" height="1"/>
		<rect x="16" y="4" width="1" height="1"/>
		<rect x="16" y="8" width="1" height="1"/>
		<rect x="12" y="6" width="1" height="1"/>
		<rect x="7.001" y="11" width="1" height="1"/>
		<rect x="16" y="6" width="1" height="1"/>
		<rect x="9" y="7" width="1" height="1"/>
		<rect x="6.001" y="8" width="1" height="1"/>
		<path d="M0.001,16.911C0.001,18.063,0.897,19,2,19h9v1h-6.5c-0.276,0-0.5,0.224-0.5,0.5s0.224,0.5,0.5,0.5h14
			c0.276,0,0.5-0.224,0.5-0.5S18.777,20,18.5,20H12v-1h9c1.103,0,2-0.937,2-2.089V15h-23V16.911z M11.5,16c0.551,0,1,0.449,1,1
			s-0.449,1-1,1s-1-0.449-1-1S10.949,16,11.5,16z"/>
		<rect x="10" y="8" width="1" height="1"/>
		<rect x="6.001" y="6" width="1" height="1"/>
		<rect x="12" y="8" width="1" height="1"/>
		<rect x="6.001" y="4" width="1" height="1"/>
		<path d="M21,0H2c-1.103,0-2,0.937-2,2.089V14h23V2.089C23,0.937,22.104,0,21,0z M18,3h-1v1h1v1h-1v1h1v1h-1v1h1v1h-1v1h1v1h-1v1h1
			v1h-1v-1h-1v1h-1v-1h-1v1h-1v-1h-1v1h-1v-1h-1v1H9v-1H8v1h-1v-1h-1v1h-1v-1h1v-1h-1v-1h1V9h-1V8h1V7h-1V6h1V5h-1V4h1V3h-1V2h1v1h1
			V2h1v1h1V2h1v1h1V2h1v1h1V2h1v1h1V2h1v1h1V2h1V3z"/>
		<rect x="6.001" y="10" width="1" height="1"/>
	</g>
</g>
<g id="Invisible_Shape">
	<rect x="0.001" fill="none" width="24" height="24"/>
</g>
</svg>
