<?xml version="1.0" encoding="utf-8"?>
<!-- Generator: Adobe Illustrator 19.2.1, SVG Export Plug-In . SVG Version: 6.00 Build 0)  -->
<svg version="1.1" xmlns="http://www.w3.org/2000/svg" xmlns:xlink="http://www.w3.org/1999/xlink" x="0px" y="0px" width="24px"
	 height="24px" viewBox="0 0 24 24" enable-background="new 0 0 24 24" xml:space="preserve">
<g id="Filled_Icon">
	<path d="M11.964,0.315c-0.152-0.38-0.776-0.38-0.929,0C11.036,0.315,3,20.08,3,20.5c0,2.274,4.379,3.5,8.5,3.5s8.5-1.226,8.5-3.5
		C20,20.08,11.964,0.315,11.964,0.315z M11.5,1.847l6.55,16.373C16.391,17.421,13.905,17,11.5,17s-4.891,0.421-6.55,1.22L11.5,1.847
		z M11.5,23C7.207,23,4,21.68,4,20.5c0-1.18,3.207-2.5,7.5-2.5s7.5,1.32,7.5,2.5C19,21.68,15.792,23,11.5,23z"/>
</g>
<g id="Invisible_Shape">
	<rect x="0.001" fill="none" width="24" height="24"/>
</g>
</svg>
