<?xml version="1.0" encoding="utf-8"?>
<!-- Generator: Adobe Illustrator 19.2.1, SVG Export Plug-In . SVG Version: 6.00 Build 0)  -->
<svg version="1.1" xmlns="http://www.w3.org/2000/svg" xmlns:xlink="http://www.w3.org/1999/xlink" x="0px" y="0px" width="24px"
	 height="24px" viewBox="0 0 24 24" enable-background="new 0 0 24 24" xml:space="preserve">
<g id="Filled_Icon">
	<path d="M21.5,1h-14C7.361,1,7.236,1.056,7.146,1.147L1.147,7.146C1.056,7.236,1,7.361,1,7.5v14C1,21.776,1.224,22,1.5,22h14
		c0.139,0,0.264-0.056,0.354-0.147l5.999-5.999C21.944,15.764,22,15.639,22,15.5v-14C22,1.224,21.776,1,21.5,1z M21,15h-5V7.707l5-5
		V15z M20.293,16L16,20.293V16H20.293z M7,15.293l-5,5V8h5V15.293z M2.707,7L7,2.707V7H2.707z M8,8h7v7H8V8z M20.293,2l-5,5H8V2
		H20.293z M2.707,21l5-5H15v5H2.707z"/>
</g>
<g id="Invisible_Shape">
	<rect x="0.001" fill="none" width="24" height="24"/>
</g>
</svg>
