<?xml version="1.0" encoding="utf-8"?>
<!-- Generator: Adobe Illustrator 19.2.1, SVG Export Plug-In . SVG Version: 6.00 Build 0)  -->
<svg version="1.1" xmlns="http://www.w3.org/2000/svg" xmlns:xlink="http://www.w3.org/1999/xlink" x="0px" y="0px" width="24px"
	 height="24px" viewBox="0 0 24 24" enable-background="new 0 0 24 24" xml:space="preserve">
<g id="Filled_Icon">
	<g>
		<path d="M15.5,12H15v-0.5c0-0.276-0.224-0.5-0.5-0.5h-13C1.225,11,1,11.224,1,11.5v10C1,22.878,2.122,24,3.5,24h9
			c1.378,0,2.5-1.122,2.5-2.5V19h0.5c1.93,0,3.5-1.57,3.5-3.5C19,13.57,17.431,12,15.5,12z M15.5,18H15v-5h0.5
			c1.378,0,2.5,1.122,2.5,2.5S16.879,18,15.5,18z"/>
		<path d="M0.758,4.071C0.591,3.971,0.381,3.976,0.219,4.086C0.058,4.197-0.025,4.389,0.007,4.582l0.465,2.791l2.422-2.02
			L0.758,4.071z"/>
		<path d="M2.5,10h11c0.19,0,0.365-0.108,0.449-0.281l1.524-3.105c1.007-0.144,1.764-1.041,1.918-2.335
			c0.195-1.64-0.626-3.653-2.892-4.202c-0.44-0.106-0.784,0.379-0.536,0.76c0.528,0.806,0.209,1.282-0.354,1.994
			c-0.812,1.025-1.079,2.116-0.172,3.065C13.283,6.115,11,9.5,11.009,9.5H11v0V9L9.75,9c-0.276,0-0.5-0.223-0.5-0.5
			c0-0.276,0.224-0.5,0.5-0.5H11V7H8.5C8.225,6.999,8,6.776,8,6.499c0-0.276,0.224-0.5,0.5-0.5H11V5H9.75
			c-0.276-0.001-0.5-0.224-0.5-0.501c0-0.276,0.224-0.5,0.5-0.5H11V3H8.5C8.225,3,8,2.776,8,2.5C8,2.224,8.225,2,8.5,2H11V0.5
			c0-0.276-0.224-0.5-0.5-0.5h-4c-0.276-0.001-0.5,0.224-0.5,0.5v8.952L3.64,6.034L0.955,8.272l1.145,1.527
			C2.195,9.925,2.342,10,2.5,10z M14.394,3.453c0.38-0.481,0.897-1.133,0.839-1.982c1.809,1.235,1.349,4.173-0.043,4.173h0
			L14.336,5.36C13.609,4.85,13.837,4.15,14.394,3.453z"/>
	</g>
</g>
<g id="Invisible_Shape">
	<rect x="0.001" fill="none" width="24" height="24"/>
</g>
</svg>
