<?xml version="1.0" encoding="utf-8"?>
<!-- Generator: Adobe Illustrator 19.2.1, SVG Export Plug-In . SVG Version: 6.00 Build 0)  -->
<svg version="1.1" xmlns="http://www.w3.org/2000/svg" xmlns:xlink="http://www.w3.org/1999/xlink" x="0px" y="0px" width="24px"
	 height="24px" viewBox="0 0 24 24" enable-background="new 0 0 24 24" xml:space="preserve">
<g id="Filled_Icon">
	<g>
		<g>
			<path d="M19,24H4c-0.276,0-0.5-0.224-0.5-0.5S3.724,23,4,23h15c0.276,0,0.5,0.224,0.5,0.5S19.276,24,19,24z"/>
		</g>
		<path d="M3.529,12.797l-2.797,2.832c-0.983,0.982-0.983,2.644-0.021,3.606l1.414,1.597C2.221,20.938,2.357,21,2.5,21h5.657
			c0.137,0,0.268-0.056,0.362-0.155l1.491-1.568L3.529,12.797z"/>
		<path d="M21.512,6.777L15.855,1.12c-0.587-0.584-1.535-0.584-2.122,0L3.853,11c-0.195,0.195-0.195,0.512,0,0.707l7.071,7.072
			c0.195,0.195,0.512,0.195,0.707,0l9.88-9.88C22.102,8.31,22.095,7.358,21.512,6.777z"/>
	</g>
</g>
<g id="Invisible_Shape">
	<rect x="0.001" fill="none" width="24" height="24"/>
</g>
</svg>
