<?xml version="1.0" encoding="utf-8"?>
<!-- Generator: Adobe Illustrator 19.2.1, SVG Export Plug-In . SVG Version: 6.00 Build 0)  -->
<svg version="1.1" xmlns="http://www.w3.org/2000/svg" xmlns:xlink="http://www.w3.org/1999/xlink" x="0px" y="0px" width="24px"
	 height="24px" viewBox="0 0 24 24" enable-background="new 0 0 24 24" xml:space="preserve">
<g id="Filled_Icon">
	<g>
		<path d="M16.5,8h-9C7.224,8,7,8.223,7,8.5C7,8.776,7.224,9,7.5,9H9v7c0,1.185,0.671,2.104,1,2.484V20.5c0,0.276,0.224,0.5,0.5,0.5
			h3c0.276,0,0.5-0.224,0.5-0.5v-2.016c0.329-0.381,1-1.299,1-2.484V9h1.5C16.776,9,17,8.776,17,8.5C17,8.223,16.776,8,16.5,8z"/>
		<path d="M15,5c0-1.654-1.346-3-3-3S9,3.346,9,5v2h6V5z"/>
	</g>
</g>
<g id="Invisible_Shape">
	<rect x="0.001" fill="none" width="24" height="24"/>
</g>
</svg>
