<?xml version="1.0" encoding="utf-8"?>
<!-- Generator: Adobe Illustrator 19.2.1, SVG Export Plug-In . SVG Version: 6.00 Build 0)  -->
<svg version="1.1" xmlns="http://www.w3.org/2000/svg" xmlns:xlink="http://www.w3.org/1999/xlink" x="0px" y="0px" width="24px"
	 height="24px" viewBox="0 0 24 24" enable-background="new 0 0 24 24" xml:space="preserve">
<g id="Filled_Icon">
	<g>
		<path d="M17.5,6h-9C8.224,6,8,6.224,8,6.5C8,6.778,8.224,7,8.5,7H10v7.003c0,1.078,0.579,2.064,1.5,2.596v1.904
			c0,0.277,0.224,0.5,0.5,0.5h2c0.276,0,0.5-0.223,0.5-0.5v-1.904c0.921-0.532,1.5-1.518,1.5-2.596V7h1.5C17.776,7,18,6.778,18,6.5
			C18,6.224,17.776,6,17.5,6z M14,14.003c0,0.552-0.449,1-1,1s-1-0.448-1-1v-5.5c0-0.276,0.224-0.5,0.5-0.5h1
			c0.276,0,0.5,0.224,0.5,0.5V14.003z"/>
		<path d="M10.5,5h5C15.776,5,16,4.778,16,4.5V3.003c0-1.654-1.346-3-3-3s-3,1.346-3,3V4.5C10,4.778,10.224,5,10.5,5z"/>
		<path d="M12.588,20.219c-0.327,0.474-1.088,1.646-1.088,2.285c0,0.827,0.673,1.5,1.5,1.5s1.5-0.673,1.5-1.5
			c0-0.639-0.761-1.811-1.088-2.285C13.225,19.949,12.775,19.949,12.588,20.219z"/>
	</g>
</g>
<g id="Invisible_Shape">
	<rect x="0.001" fill="none" width="24" height="24"/>
</g>
</svg>
