<?xml version="1.0" encoding="utf-8"?>
<!-- Generator: Adobe Illustrator 19.2.1, SVG Export Plug-In . SVG Version: 6.00 Build 0)  -->
<svg version="1.1" xmlns="http://www.w3.org/2000/svg" xmlns:xlink="http://www.w3.org/1999/xlink" x="0px" y="0px" width="24px"
	 height="24px" viewBox="0 0 24 24" enable-background="new 0 0 24 24" xml:space="preserve">
<g id="Filled_Icon">
	<g>
		<path d="M6.5,8C6.224,8,6,8.223,6,8.5C6,8.776,6.224,9,6.5,9H8v2h2.5c0.276,0,0.5,0.223,0.5,0.5c0,0.276-0.224,0.5-0.5,0.5H8v1
			h2.5c0.276,0,0.5,0.223,0.5,0.5c0,0.276-0.224,0.5-0.5,0.5H8v1h2.5c0.276,0,0.5,0.223,0.5,0.5c0,0.276-0.224,0.5-0.5,0.5H8v1.5
			c0,1.846,0.987,3.425,2,4.114V23.5c0,0.276,0.224,0.5,0.5,0.5h3c0.276,0,0.5-0.224,0.5-0.5v-1.886c1.013-0.688,2-2.268,2-4.114V9
			h1.5C17.776,9,18,8.776,18,8.5C18,8.223,17.776,8,17.5,8C13.401,8,10.3,8,6.5,8z"/>
		<path d="M16,4.5C16,2.018,14.206,0,12,0S8,2.018,8,4.5V7h8V4.5z"/>
	</g>
</g>
<g id="Invisible_Shape">
	<rect x="0.001" fill="none" width="24" height="24"/>
</g>
</svg>
