<?xml version="1.0" encoding="utf-8"?>
<!-- Generator: Adobe Illustrator 19.2.1, SVG Export Plug-In . SVG Version: 6.00 Build 0)  -->
<svg version="1.1" xmlns="http://www.w3.org/2000/svg" xmlns:xlink="http://www.w3.org/1999/xlink" x="0px" y="0px" width="24px"
	 height="24px" viewBox="0 0 24 24" enable-background="new 0 0 24 24" xml:space="preserve">
<g id="Filled_Icon">
	<g>
		<path d="M6.229,20.272l-2-2.001c-0.195-0.194-0.512-0.194-0.707,0l-2.875,2.876C0.331,21.462,0.558,22,1,22h4
			c0.132,0,0.26-0.053,0.353-0.146l0.875-0.875C6.424,20.783,6.424,20.467,6.229,20.272z"/>
		<path d="M3.756,16.037c-0.196,0.196-0.194,0.513,0,0.707l4,4c0.188,0.188,0.52,0.188,0.707,0c0.757-0.758,2.184-0.891,3.184,0.109
			c0.195,0.195,0.512,0.195,0.707,0l1-1c0.195-0.195,0.195-0.512,0-0.708l-8-8c-0.195-0.194-0.512-0.194-0.707,0l-1,1
			c-0.197,0.199-0.194,0.516,0,0.708C4.646,13.852,4.523,15.271,3.756,16.037z"/>
		<path d="M23.854,6.147l-6-6c-0.186-0.187-0.486-0.195-0.684-0.023L6.029,9.765c-0.214,0.188-0.228,0.522-0.023,0.729l8,8
			c0.21,0.212,0.557,0.191,0.743-0.038L23.89,6.814C24.05,6.615,24.035,6.327,23.854,6.147z"/>
		<path d="M23.5,23h-17c-0.276,0-0.5,0.224-0.5,0.5s0.224,0.5,0.5,0.5h17c0.276,0,0.5-0.224,0.5-0.5S23.776,23,23.5,23z"/>
	</g>
</g>
<g id="Invisible_Shape">
	<rect x="0.001" fill="none" width="24" height="24"/>
</g>
</svg>
