<?xml version="1.0" encoding="utf-8"?>
<!-- Generator: Adobe Illustrator 19.2.1, SVG Export Plug-In . SVG Version: 6.00 Build 0)  -->
<svg version="1.1" xmlns="http://www.w3.org/2000/svg" xmlns:xlink="http://www.w3.org/1999/xlink" x="0px" y="0px" width="24px"
	 height="24px" viewBox="0 0 24 24" enable-background="new 0 0 24 24" xml:space="preserve">
<g id="Filled_Icon">
	<g>
		<path d="M2.5,17C2.224,17,2,16.777,2,16.5V8H0.5C0.224,8,0,8.224,0,8.5v11C0,19.777,0.224,20,0.5,20h17c0.276,0,0.5-0.223,0.5-0.5
			V17H2.5z"/>
		<path d="M5.5,13C5.224,13,5,12.777,5,12.5V4H3.5C3.224,4,3,4.224,3,4.5v11C3,15.776,3.224,16,3.5,16h17c0.276,0,0.5-0.223,0.5-0.5
			V13H5.5z"/>
		<path d="M23.5,0h-17C6.224,0,6,0.224,6,0.5v11C6,11.776,6.224,12,6.5,12h17c0.276,0,0.5-0.223,0.5-0.5v-11
			C24,0.224,23.776,0,23.5,0z"/>
	</g>
</g>
<g id="Invisible_Shape">
	<rect x="0.001" fill="none" width="24" height="24"/>
</g>
</svg>
