<?xml version="1.0" encoding="utf-8"?>
<!-- Generator: Adobe Illustrator 19.2.1, SVG Export Plug-In . SVG Version: 6.00 Build 0)  -->
<svg version="1.1" xmlns="http://www.w3.org/2000/svg" xmlns:xlink="http://www.w3.org/1999/xlink" x="0px" y="0px" width="24px"
	 height="24px" viewBox="0 0 24 24" enable-background="new 0 0 24 24" xml:space="preserve">
<g id="Filled_Icon">
	<g>
		<path d="M12.793,9.793l-12.5,12.5c-0.391,0.391-0.391,1.024,0,1.413c0.393,0.395,1.028,0.388,1.414,0l12.5-12.5
			c0.391-0.39,0.391-1.022,0-1.413C13.817,9.402,13.183,9.402,12.793,9.793z"/>
		<path d="M23,6h-2.5c-0.552,0-1,0.448-1,1c0,0.552,0.448,1,1,1H23c0.552,0,1-0.448,1-1C24,6.448,23.552,6,23,6z"/>
		<path d="M20.207,5.207l2-2c0.391-0.39,0.391-1.022,0-1.414c-0.39-0.391-1.024-0.391-1.414,0l-2,2
			c-0.391,0.391-0.391,1.024,0,1.414C19.186,5.602,19.821,5.595,20.207,5.207z"/>
		<path d="M17,0c-0.552,0-1,0.448-1,1v2.5c0,0.552,0.448,1,1,1s1-0.448,1-1V1C18,0.448,17.552,0,17,0z"/>
		<path d="M13.207,1.793c-0.39-0.391-1.024-0.391-1.414,0c-0.391,0.391-0.391,1.024,0,1.414l2,2c0.393,0.395,1.028,0.388,1.414,0
			c0.391-0.39,0.391-1.022,0-1.414L13.207,1.793z"/>
		<path d="M13.5,6h-3c-0.552,0-1,0.448-1,1c0,0.552,0.448,1,1,1h3c0.552,0,1-0.448,1-1C14.5,6.448,14.052,6,13.5,6z"/>
		<path d="M17,9.5c-0.552,0-1,0.448-1,1v3c0,0.552,0.448,1,1,1s1-0.448,1-1v-3C18,9.948,17.552,9.5,17,9.5z"/>
		<path d="M20.207,8.793c-0.39-0.391-1.024-0.391-1.414,0c-0.391,0.391-0.391,1.024,0,1.413l2,2c0.393,0.395,1.028,0.388,1.414,0
			c0.391-0.39,0.391-1.022,0-1.413L20.207,8.793z"/>
	</g>
</g>
<g id="Invisible_Shape">
	<rect x="0.001" fill="none" width="24" height="24"/>
</g>
</svg>
