<?xml version="1.0" encoding="utf-8"?>
<!-- Generator: Adobe Illustrator 19.2.1, SVG Export Plug-In . SVG Version: 6.00 Build 0)  -->
<svg version="1.1" xmlns="http://www.w3.org/2000/svg" xmlns:xlink="http://www.w3.org/1999/xlink" x="0px" y="0px" width="24px"
	 height="24px" viewBox="0 0 24 24" enable-background="new 0 0 24 24" xml:space="preserve">
<g id="Filled_Icon">
	<path d="M22.057,8.307l-1.903-1.902l0.963-2.888c0.13-0.393-0.245-0.764-0.632-0.631l-2.889,0.961l-1.902-1.902
		c-0.335-0.336-0.902-0.057-0.851,0.408l0.317,2.852L12.268,6.81c-0.4,0.223-0.316,0.821,0.13,0.925l1.994,0.459l-12.1,12.099
		c-0.391,0.391-0.391,1.024,0,1.413c0.393,0.395,1.028,0.388,1.414,0L15.806,9.609l0.46,1.993c0.103,0.446,0.705,0.527,0.924,0.13
		l1.606-2.892l2.851,0.318C22.119,9.208,22.389,8.639,22.057,8.307z"/>
</g>
<g id="Invisible_Shape">
	<rect x="0.001" fill="none" width="24" height="24"/>
</g>
</svg>
