<?xml version="1.0" encoding="utf-8"?>
<!-- Generator: Adobe Illustrator 19.2.1, SVG Export Plug-In . SVG Version: 6.00 Build 0)  -->
<svg version="1.1" xmlns="http://www.w3.org/2000/svg" xmlns:xlink="http://www.w3.org/1999/xlink" x="0px" y="0px" width="24px"
	 height="24px" viewBox="0 0 24 24" enable-background="new 0 0 24 24" xml:space="preserve">
<g id="Filled_Icon">
	<g>
		<path d="M23.492,12.168l-2.829-2.829c-0.188-0.188-0.519-0.188-0.707,0l-1.768,1.767l3.536,3.536l1.768-1.768
			C23.687,12.68,23.688,12.365,23.492,12.168z"/>
		<path d="M14.299,3.683c0.196-0.195,0.196-0.512,0-0.707l-2.828-2.829c-0.194-0.194-0.511-0.195-0.707,0L8.996,1.914l3.536,3.537
			L14.299,3.683z"/>
		<path d="M12.531,16.764c-1.562,1.563-4.094,1.564-5.657,0c-1.56-1.56-1.56-4.098,0-5.657l4.95-4.949L8.289,2.621L2.632,8.278
			c-3.509,3.509-3.509,9.219,0,12.728c3.518,3.517,9.21,3.518,12.728,0l5.657-5.657l-3.536-3.536L12.531,16.764z"/>
	</g>
</g>
<g id="Invisible_Shape">
	<rect x="0.001" fill="none" width="24" height="24"/>
</g>
</svg>
