<?xml version="1.0" encoding="utf-8"?>
<!-- Generator: Adobe Illustrator 19.2.1, SVG Export Plug-In . SVG Version: 6.00 Build 0)  -->
<svg version="1.1" xmlns="http://www.w3.org/2000/svg" xmlns:xlink="http://www.w3.org/1999/xlink" x="0px" y="0px" width="24px"
	 height="24px" viewBox="0 0 24 24" enable-background="new 0 0 24 24" xml:space="preserve">
<g id="Filled_Icon">
	<g>
		<g>
			<path d="M11,9V2.5C11,2.224,10.776,2,10.5,2H8v4c0,0.276-0.224,0.5-0.5,0.5S7,6.276,7,6V2H4v4c0,0.276-0.224,0.5-0.5,0.5
				S3,6.276,3,6V2H0.5C0.224,2,0,2.224,0,2.5V9H11z"/>
			<rect y="10" width="11" height="1"/>
			<path d="M0.005,12C0.035,14.04,1.19,15.891,3,16.816V21.5C3,22.878,4.122,24,5.5,24S8,22.878,8,21.5v-4.684
				c1.81-0.925,2.965-2.776,2.995-4.816H0.005z M6,21.5C6,21.776,5.776,22,5.5,22S5,21.776,5,21.5v-1C5,20.224,5.224,20,5.5,20
				S6,20.224,6,20.5V21.5z"/>
		</g>
		<path d="M18,9c-3.42,0-6,1.29-6,3v9c0,1.71,2.58,3,6,3s6-1.29,6-3v-9C24,10.29,21.42,9,18,9z M22,17.5c0,1.103-0.897,2-2,2
			s-2-0.897-2-2c0-0.276-0.224-0.5-0.5-0.5S17,17.224,17,17.5c0,0.827-0.673,1.5-1.5,1.5c-0.827,0-1.5-0.673-1.5-1.5v-3.231
			C15.047,14.727,16.433,15,18,15s2.953-0.273,4-0.731V17.5z M18,14c-2.862,0-5-1.056-5-2s2.138-2,5-2s5,1.056,5,2S20.862,14,18,14z
			"/>
	</g>
</g>
<g id="Invisible_Shape">
	<rect x="0.001" fill="none" width="24" height="24"/>
</g>
</svg>
