<?xml version="1.0" encoding="utf-8"?>
<!-- Generator: Adobe Illustrator 19.2.1, SVG Export Plug-In . SVG Version: 6.00 Build 0)  -->
<svg version="1.1" xmlns="http://www.w3.org/2000/svg" xmlns:xlink="http://www.w3.org/1999/xlink" x="0px" y="0px" width="24px"
	 height="24px" viewBox="0 0 24 24" enable-background="new 0 0 24 24" xml:space="preserve">
<g id="Filled_Icon">
	<g>
		<path d="M1.5,14h21c0.276,0,0.5-0.224,0.5-0.5v-10C23,3.223,22.777,3,22.5,3H15V2.5C15,2.223,14.777,2,14.5,2H12V0.5
			C12,0.223,11.777,0,11.5,0C11.224,0,11,0.223,11,0.5V2H9.5C9.224,2,9,2.223,9,2.5V3H1.5C1.224,3,1,3.223,1,3.5v10
			C1,13.776,1.224,14,1.5,14z M10,3h4v1h-4V3z"/>
		<path d="M22.5,15h-21c-0.827,0-1.5,0.673-1.5,1.5c0,0.827,0.673,1.5,1.5,1.5h4.691l-2.638,5.276
			c-0.124,0.247-0.023,0.547,0.224,0.671c0.249,0.124,0.547,0.023,0.671-0.224L7.31,18H11v5.5c0,0.276,0.224,0.5,0.5,0.5
			c0.276,0,0.5-0.224,0.5-0.5V18h4.691l2.862,5.723c0.124,0.248,0.422,0.348,0.671,0.224c0.247-0.124,0.347-0.424,0.224-0.671
			L17.81,18H22.5c0.827,0,1.5-0.673,1.5-1.5C24,15.673,23.328,15,22.5,15z"/>
	</g>
</g>
<g id="Invisible_Shape">
	<rect x="0.001" fill="none" width="24" height="24"/>
</g>
</svg>
