<?xml version="1.0" encoding="utf-8"?>
<!-- Generator: Adobe Illustrator 19.2.1, SVG Export Plug-In . SVG Version: 6.00 Build 0)  -->
<svg version="1.1" xmlns="http://www.w3.org/2000/svg" xmlns:xlink="http://www.w3.org/1999/xlink" x="0px" y="0px" width="24px"
	 height="24px" viewBox="0 0 24 24" enable-background="new 0 0 24 24" xml:space="preserve">
<g id="Filled_Icon">
	<g>
		<path d="M22.359,8.873l-8.484-8.485c-0.195-0.195-0.512-0.195-0.707,0l-2.122,2.121c-0.196,0.197-0.194,0.514,0,0.707l8.485,8.486
			c0.195,0.195,0.512,0.195,0.707,0l2.121-2.122C22.555,9.385,22.555,9.068,22.359,8.873z"/>
		<g>
			<path d="M1.216,20.973c0.063-0.269,0.336-0.438,0.6-0.375c0.269,0.062,0.436,0.331,0.374,0.599
				c-0.291,1.381,0.435,2.387,3.355,1.414c6.127-2.042,10.21-0.059,10.382,0.028c0.247,0.123,0.346,0.422,0.224,0.669
				c-0.123,0.248-0.423,0.348-0.67,0.226c-0.039-0.019-3.908-1.877-9.619,0.026C1.763,24.927,0.819,22.706,1.216,20.973z"/>
		</g>
		<g>
			<polygon points="13.262,16.742 6.022,9.469 4.66,10.955 11.778,18.102 			"/>
			<polygon points="13.999,16.066 18.425,12.009 10.739,4.323 6.698,8.731 			"/>
			<path d="M2.91,16.303l-1.764,1.762c-0.197,0.197-0.193,0.515,0,0.707L3.976,21.6c0.195,0.195,0.512,0.195,0.707,0l1.769-1.769
				L2.91,16.303z"/>
			<path d="M3.983,11.692c-0.076,0.082-0.127,0.16-0.148,0.281l-0.549,3.293l4.207,4.193l3.281-0.547
				c0.111-0.018,0.191-0.066,0.267-0.134L3.983,11.692z"/>
		</g>
	</g>
</g>
<g id="Invisible_Shape">
	<rect x="0.001" fill="none" width="24" height="24"/>
</g>
</svg>
