<?xml version="1.0" encoding="utf-8"?>
<!-- Generator: Adobe Illustrator 19.2.1, SVG Export Plug-In . SVG Version: 6.00 Build 0)  -->
<svg version="1.1" xmlns="http://www.w3.org/2000/svg" xmlns:xlink="http://www.w3.org/1999/xlink" x="0px" y="0px" width="24px"
	 height="24px" viewBox="0 0 24 24" enable-background="new 0 0 24 24" xml:space="preserve">
<g id="Filled_Icon">
	<path d="M21.5,3H21V0.5C21,0.224,20.776,0,20.5,0h-15C5.224,0,5,0.224,5,0.5V3H4.5C3.673,3,3,3.672,3,4.5v4
		C3,9.327,3.673,10,4.5,10h8c0.276,0,0.5,0.224,0.5,0.5v2.516c-0.932,0.203-2,0.927-2,1.94v7.5C11,23.398,12.417,24,13.159,24h1
		C14.993,24,16,23.312,16,22.456v-7.5c0-1.013-1.068-1.737-2-1.94V10.5C14,9.672,13.327,9,12.5,9h-8C4.224,9,4,8.775,4,8.5v-4
		C4,4.224,4.224,4,4.5,4H5v2.5C5,6.775,5.224,7,5.5,7h15C20.776,7,21,6.775,21,6.5V4h0.5C21.776,4,22,3.775,22,3.5
		C22,3.224,21.776,3,21.5,3z"/>
</g>
<g id="Invisible_Shape">
	<rect x="0.001" fill="none" width="24" height="24"/>
</g>
</svg>
