<?xml version="1.0" encoding="utf-8"?>
<!-- Generator: Adobe Illustrator 19.2.1, SVG Export Plug-In . SVG Version: 6.00 Build 0)  -->
<svg version="1.1" xmlns="http://www.w3.org/2000/svg" xmlns:xlink="http://www.w3.org/1999/xlink" x="0px" y="0px" width="24px"
	 height="24px" viewBox="0 0 24 24" enable-background="new 0 0 24 24" xml:space="preserve">
<g id="Filled_Icon">
	<g>
		<path d="M20,10h-5.023c-0.351,0-0.595-0.356-0.464-0.686C14.837,8.507,15,7.656,15,6.784V3c0-1.655-1.346-3-3-3S9,1.345,9,3v3.784
			c0,0.87,0.164,1.722,0.487,2.53C9.621,9.647,9.372,10,9.023,10H4.001c-1.103,0-2,0.896-2,2v3h20v-3C22,10.896,21.104,10,20,10z
			 M12,4c-0.551,0-1-0.449-1-1c0-0.552,0.449-1,1-1c0.552,0,1,0.448,1,1C13,3.551,12.552,4,12,4z"/>
		<path d="M20.5,16h-17C3.225,16,3,16.224,3,16.5v7C3,23.776,3.225,24,3.5,24h2.5c0.189,0,0.363-0.106,0.447-0.276l1.053-2.104V23.5
			c0,0.276,0.224,0.5,0.5,0.5h6v-2.604c0-0.276,0.224-0.5,0.5-0.5c0.276,0,0.5,0.224,0.5,0.5V24h1v-4.341c0-0.277,0.224-0.5,0.5-0.5
			c0.276,0,0.5,0.223,0.5,0.5V24h1v-5.5c0-0.276,0.224-0.5,0.5-0.5c0.276,0,0.5,0.224,0.5,0.5V24h1.5c0.276,0,0.5-0.224,0.5-0.5v-7
			C21,16.224,20.777,16,20.5,16z"/>
	</g>
</g>
<g id="Invisible_Shape">
	<rect x="0.001" fill="none" width="24" height="24"/>
</g>
</svg>
