<?xml version="1.0" encoding="utf-8"?>
<!-- Generator: Adobe Illustrator 19.2.1, SVG Export Plug-In . SVG Version: 6.00 Build 0)  -->
<svg version="1.1" xmlns="http://www.w3.org/2000/svg" xmlns:xlink="http://www.w3.org/1999/xlink" x="0px" y="0px" width="24px"
	 height="24px" viewBox="0 0 24 24" enable-background="new 0 0 24 24" xml:space="preserve">
<g id="Filled_Icon">
	<g>
		<path d="M20.997,0.456c-0.153,0-0.297,0.07-0.392,0.189l-9.824,12.39c0.878,0.899,0.492,0.504,2.32,2.373L23.864,3.796
			c0.086-0.093,0.133-0.214,0.133-0.34C24.006,1.459,23.958,0.456,20.997,0.456z"/>
		<path d="M10.154,13.825l-1.031,1.299c-1.774-0.659-3.646,0.002-4.656,1.353c-1.209,1.629-0.611,4.642-3.946,4.479
			c-0.463-0.018-0.692,0.53-0.384,0.847C1.527,23.24,3.257,24,5.142,24c4.065,0,7.841-3.647,6.294-6.796l0.984-1.062
			C10.949,14.639,11.904,15.613,10.154,13.825z"/>
	</g>
</g>
<g id="Invisible_Shape">
	<rect x="0.001" fill="none" width="24" height="24"/>
</g>
</svg>
