<?xml version="1.0" encoding="utf-8"?>
<!-- Generator: Adobe Illustrator 19.2.1, SVG Export Plug-In . SVG Version: 6.00 Build 0)  -->
<svg version="1.1" xmlns="http://www.w3.org/2000/svg" xmlns:xlink="http://www.w3.org/1999/xlink" x="0px" y="0px" width="24px"
	 height="24px" viewBox="0 0 24 24" enable-background="new 0 0 24 24" xml:space="preserve">
<g id="Filled_Icon">
	<g>
		<g>
			<path d="M12.927,8.428L10.22,7.526c-0.386-0.133-0.763,0.24-0.632,0.632l0.902,2.706L12.927,8.428z"/>
			<path d="M23.416,18.646L13.769,9l-2.707,2.707l9.646,9.646c0.75,0.752,1.963,0.747,2.707,0.001
				C24.164,20.607,24.163,19.395,23.416,18.646z"/>
		</g>
		<path d="M21.5,0h-19C1.122,0,0,1.122,0,2.5v12C0,15.878,1.122,17,2.5,17h12.441l-2-2H7.5C7.224,15,7,14.776,7,14.5v-12
			C7,2.224,7.224,2,7.5,2h14C21.776,2,22,2.224,22,2.5v12c0,0.276-0.224,0.5-0.5,0.5h-0.317l1.622,1.622
			C23.519,16.182,24,15.398,24,14.5v-12C24,1.122,22.878,0,21.5,0z M5.999,14.5c0,0.276-0.224,0.5-0.5,0.5h-3
			C2.223,15,2,14.776,2,14.5V12h0h3.999V14.5z M5.999,11H2h0V9h0h3.999V11z M5.999,8H2h0V6h0h3.999V8z M5.999,5H2h0V2.5
			C2,2.224,2.223,2,2.5,2h3c0.276,0,0.5,0.224,0.5,0.5V5z"/>
	</g>
</g>
<g id="Invisible_Shape">
	<rect x="0.001" fill="none" width="24" height="24"/>
</g>
</svg>
