<?xml version="1.0" encoding="utf-8"?>
<!-- Generator: Adobe Illustrator 19.2.1, SVG Export Plug-In . SVG Version: 6.00 Build 0)  -->
<svg version="1.1" xmlns="http://www.w3.org/2000/svg" xmlns:xlink="http://www.w3.org/1999/xlink" x="0px" y="0px" width="24px"
	 height="24px" viewBox="0 0 24 24" enable-background="new 0 0 24 24" xml:space="preserve">
<g id="Filled_Icon">
	<g>
		<path d="M15,6.553V5c0.229,0,0.429-0.156,0.485-0.379l1-4C16.565,0.307,16.327,0,16,0H9C8.674,0,8.436,0.307,8.516,0.621l1,4
			C9.571,4.844,9.771,5,10,5v1.553c-2.062,0.95-3.5,3.032-3.5,5.447c0,3.139,4.862,11.404,5.069,11.754
			C11.66,23.907,11.824,24,12,24v-9.071c-0.86-0.224-1.5-1-1.5-1.929c0-1.103,0.897-2,2-2s2,0.897,2,2c0,0.929-0.64,1.706-1.5,1.929
			V24c0.165,0,0.318-0.081,0.412-0.216C14.639,22.007,18.5,14.799,18.5,12C18.5,9.585,17.063,7.503,15,6.553z M14,6.197
			c-0.994-0.257-1.958-0.269-3,0V5h3V6.197z"/>
		<circle cx="12.5" cy="13" r="1"/>
	</g>
</g>
<g id="Invisible_Shape">
	<rect x="0.001" fill="none" width="24" height="24"/>
</g>
</svg>
