<?xml version="1.0" encoding="utf-8"?>
<!-- Generator: Adobe Illustrator 19.2.1, SVG Export Plug-In . SVG Version: 6.00 Build 0)  -->
<svg version="1.1" xmlns="http://www.w3.org/2000/svg" xmlns:xlink="http://www.w3.org/1999/xlink" x="0px" y="0px" width="24px"
	 height="24px" viewBox="0 0 24 24" enable-background="new 0 0 24 24" xml:space="preserve">
<g id="Filled_Icon">
	<g>
		<circle cx="12.5" cy="10.5" r="1.5"/>
		<path d="M10.549,23.716C10.632,23.889,10.808,24,11,24h1V12.949c-1.14-0.232-2-1.242-2-2.449C10,9.121,11.122,8,12.5,8
			S15,9.121,15,10.5c0,1.208-0.86,2.217-2,2.449V24h1c0.192,0,0.368-0.111,0.451-0.284l6-12.5c0.074-0.154,0.064-0.333-0.025-0.477
			L16.895,5H8.106l-3.531,5.739c-0.089,0.144-0.099,0.324-0.025,0.477L10.549,23.716z"/>
		<path d="M16.809,4l1.638-3.276C18.613,0.39,18.37,0,18,0H6.5C6.112,0,5.868,0.43,6.076,0.765L8.098,4H16.809z"/>
	</g>
</g>
<g id="Invisible_Shape">
	<rect x="0.001" fill="none" width="24" height="24"/>
</g>
</svg>
