<?xml version="1.0" encoding="utf-8"?>
<!-- Generator: Adobe Illustrator 19.2.1, SVG Export Plug-In . SVG Version: 6.00 Build 0)  -->
<svg version="1.1" xmlns="http://www.w3.org/2000/svg" xmlns:xlink="http://www.w3.org/1999/xlink" x="0px" y="0px" width="24px"
	 height="24px" viewBox="0 0 24 24" enable-background="new 0 0 24 24" xml:space="preserve">
<g id="Filled_Icon">
	<g>
		<rect x="5.001" y="19" width="5" height="1"/>
		<rect x="8" y="8" width="2" height="10"/>
		<path d="M7.957,3.298c-0.174-0.396-0.739-0.396-0.913,0L5.176,7h4.649L7.957,3.298z"/>
		<path d="M5.001,21.5c0,1.378,1.122,2.5,2.5,2.5s2.5-1.122,2.5-2.5V21h-5V21.5z"/>
		<rect x="5.001" y="8" width="2" height="10"/>
		<path d="M18.5,0h-6C12.225,0,12,0.224,12,0.5V3h2.5C14.776,3,15,3.224,15,3.5C15,3.777,14.776,4,14.5,4H12v3h2.5
			C14.776,7,15,7.224,15,7.5C15,7.777,14.776,8,14.5,8H12v3h2.5c0.276,0,0.5,0.224,0.5,0.5c0,0.277-0.224,0.5-0.5,0.5H12v3h2.5
			c0.276,0,0.5,0.224,0.5,0.5c0,0.277-0.224,0.5-0.5,0.5H12v3h2.5c0.276,0,0.5,0.224,0.5,0.5c0,0.277-0.224,0.5-0.5,0.5H12v3.5
			c0,0.277,0.224,0.5,0.5,0.5h6c0.276,0,0.5-0.223,0.5-0.5v-23C19,0.224,18.776,0,18.5,0z"/>
	</g>
</g>
<g id="Invisible_Shape">
	<rect x="0.001" fill="none" width="24" height="24"/>
</g>
</svg>
