<?xml version="1.0" encoding="utf-8"?>
<!-- Generator: Adobe Illustrator 19.2.1, SVG Export Plug-In . SVG Version: 6.00 Build 0)  -->
<svg version="1.1" xmlns="http://www.w3.org/2000/svg" xmlns:xlink="http://www.w3.org/1999/xlink" x="0px" y="0px" width="24px"
	 height="24px" viewBox="0 0 24 24" enable-background="new 0 0 24 24" xml:space="preserve">
<g id="Filled_Icon">
	<path d="M20.828,3.622l-4.037-3.5C16.701,0.044,16.584,0,16.464,0H7.516C7.396,0,7.279,0.044,7.188,0.123l-4.016,3.5
		C3.063,3.719,3,3.856,3,4v16c0,0.145,0.062,0.282,0.171,0.377l4.016,3.5C7.279,23.956,7.396,24,7.516,24h8.948
		c0.12,0,0.237-0.044,0.328-0.122l4.037-3.5C20.938,20.283,21,20.145,21,20V4C21,3.855,20.938,3.717,20.828,3.622z M16.016,16H8V8
		h8.016V16z M7.016,16.272l-3.016,2.628V5.099l3.016,2.628V16.272z M8,17h8.016v6H8V17z M17,7.683l3-2.587v13.809l-3-2.587V7.683z
		 M7.704,1h8.574l3.46,3l-3.46,3H7.704L4.261,4L7.704,1z M7.016,17.599v4.802L4.261,20L7.016,17.599z M17,22.359v-4.718L19.737,20
		L17,22.359z"/>
</g>
<g id="Invisible_Shape">
	<rect x="0.001" fill="none" width="24" height="24"/>
</g>
</svg>
