<?xml version="1.0" encoding="utf-8"?>
<!-- Generator: Adobe Illustrator 19.2.1, SVG Export Plug-In . SVG Version: 6.00 Build 0)  -->
<svg version="1.1" xmlns="http://www.w3.org/2000/svg" xmlns:xlink="http://www.w3.org/1999/xlink" x="0px" y="0px" width="24px"
	 height="24px" viewBox="0 0 24 24" enable-background="new 0 0 24 24" xml:space="preserve">
<g id="Filled_Icon">
	<path d="M19.931,9.06c-0.498,2.808-1.957,4.723-4,5.885c-0.429-2.423-1.475-4.317-3.909-5.858c2.268-1.308,5.041-1.504,7.898-0.062
		C20.568,4.204,16.771,0,12,0C7.236,0,3.431,4.197,4.08,9.024c2.875-1.453,5.648-1.235,7.898,0.062
		c-2.447,1.55-3.483,3.453-3.909,5.858c-2.055-1.169-3.503-3.091-3.999-5.885C1.557,10.483,0,13.099,0,16
		c0,6.068,6.582,10.027,11.977,6.914c-3.13-1.983-4.298-5.029-3.892-7.937c2.73,1.389,5.149,1.363,7.83,0
		c0.408,2.929-0.779,5.964-3.892,7.937C17.414,26.024,24,22.073,24,16C24,13.099,22.443,10.483,19.931,9.06z"/>
</g>
<g id="Invisible_Shape">
	<rect x="0.001" fill="none" width="24" height="24"/>
</g>
</svg>
