<?xml version="1.0" encoding="utf-8"?>
<!-- Generator: Adobe Illustrator 19.2.1, SVG Export Plug-In . SVG Version: 6.00 Build 0)  -->
<svg version="1.1" xmlns="http://www.w3.org/2000/svg" xmlns:xlink="http://www.w3.org/1999/xlink" x="0px" y="0px" width="24px"
	 height="24px" viewBox="0 0 24 24" enable-background="new 0 0 24 24" xml:space="preserve">
<g id="Filled_Icon">
	<path d="M23.854,5.646l-5.5-5.5c-0.188-0.188-0.52-0.188-0.707,0L14.5,3.29l2.366,2.338c0.196,0.194,0.198,0.511,0.004,0.707
		c-0.194,0.196-0.51,0.199-0.707,0.004l-2.37-2.343L12.5,5.292l2.854,2.854c0.195,0.195,0.195,0.512,0,0.707
		c-0.195,0.197-0.512,0.197-0.707,0l-2.853-2.854l-1.528,1.529l2.104,2.103c0.195,0.197,0.195,0.512,0,0.708
		c-0.196,0.195-0.511,0.195-0.707,0L9.558,8.234l-1.3,1.301l2.853,2.854c0.195,0.195,0.195,0.511,0,0.707
		c-0.196,0.197-0.511,0.197-0.707,0L7.55,10.243l-1.535,1.533l2.366,2.337c0.196,0.194,0.198,0.512,0.004,0.707
		c-0.193,0.196-0.512,0.198-0.707,0.004l-2.37-2.341l-1.294,1.293l2.854,2.853c0.195,0.197,0.195,0.512,0,0.708
		c-0.196,0.195-0.511,0.195-0.707,0l-2.853-2.854l-3.161,3.162c-0.195,0.195-0.195,0.511,0,0.707l5.5,5.501
		c0.196,0.195,0.511,0.195,0.707,0l17.5-17.501C24.049,6.157,24.049,5.841,23.854,5.646z"/>
</g>
<g id="Invisible_Shape">
	<rect x="0.001" fill="none" width="24" height="24"/>
</g>
</svg>
