<?xml version="1.0" encoding="utf-8"?>
<!-- Generator: Adobe Illustrator 19.2.1, SVG Export Plug-In . SVG Version: 6.00 Build 0)  -->
<svg version="1.1" xmlns="http://www.w3.org/2000/svg" xmlns:xlink="http://www.w3.org/1999/xlink" x="0px" y="0px" width="24px"
	 height="24px" viewBox="0 0 24 24" enable-background="new 0 0 24 24" xml:space="preserve">
<g id="Filled_Icon">
	<g>
		<path d="M23.962,14.507l-2.086-7.452l-4.394,4.394l4.583,4.607c0.193,0.196,0.512,0.197,0.708,0.001l1.061-1.061
			C23.962,14.867,24.011,14.681,23.962,14.507z"/>
		<path d="M12.521,6.511l4.406-4.406L9.474,0.019c-0.174-0.049-0.36,0-0.488,0.128l-1.061,1.06c-0.195,0.196-0.195,0.512,0,0.708
			L12.521,6.511z"/>
		<path d="M21.359,5.449l-2.828-2.828c-0.195-0.195-0.512-0.195-0.707,0L0.147,20.299c-0.195,0.195-0.195,0.512,0,0.708l2.828,2.828
			c0.195,0.195,0.512,0.195,0.707,0l2.224-2.224l-1.719-1.733c-0.194-0.196-0.193-0.512,0.003-0.707
			c0.196-0.195,0.512-0.194,0.707,0.003l1.716,1.73l1.414-1.414l-1.719-1.733c-0.194-0.196-0.193-0.513,0.003-0.707
			c0.195-0.194,0.512-0.193,0.707,0.003l1.716,1.73l1.414-1.414l-1.719-1.733c-0.194-0.195-0.193-0.513,0.003-0.707
			c0.196-0.194,0.512-0.194,0.707,0.003l1.716,1.73l1.414-1.414l-1.719-1.733c-0.194-0.196-0.193-0.513,0.003-0.707
			c0.196-0.194,0.512-0.194,0.707,0.003l1.716,1.73l1.428-1.428l-1.73-1.718c-0.196-0.194-0.197-0.51-0.003-0.707
			c0.195-0.196,0.513-0.197,0.707-0.002l1.733,1.72l6.249-6.249C21.555,5.961,21.555,5.644,21.359,5.449z"/>
	</g>
</g>
<g id="Invisible_Shape">
	<rect x="0.001" fill="none" width="24" height="24"/>
</g>
</svg>
