<?xml version="1.0" encoding="utf-8"?>
<!-- Generator: Adobe Illustrator 19.2.1, SVG Export Plug-In . SVG Version: 6.00 Build 0)  -->
<svg version="1.1" xmlns="http://www.w3.org/2000/svg" xmlns:xlink="http://www.w3.org/1999/xlink" x="0px" y="0px" width="24px"
	 height="24px" viewBox="0 0 24 24" enable-background="new 0 0 24 24" xml:space="preserve">
<g id="Filled_Icon">
	<path d="M23.789,23.093L20.197,19.5l-1.354,1.354c-0.195,0.195-0.512,0.195-0.707,0c-0.195-0.195-0.195-0.512,0-0.707l1.354-1.354
		L17.697,17l-1.354,1.354c-0.195,0.195-0.512,0.195-0.707,0c-0.195-0.195-0.195-0.512,0-0.707l1.354-1.354L15.197,14.5l-1.354,1.354
		c-0.195,0.195-0.512,0.195-0.707,0c-0.195-0.195-0.195-0.512,0-0.707l1.354-1.354l-1.79-1.79l-1.357,1.352
		c-0.196,0.193-0.511,0.195-0.708-0.002c-0.195-0.195-0.194-0.513,0.002-0.707l1.356-1.35L10.197,9.5l-1.354,1.354
		c-0.195,0.195-0.512,0.195-0.707,0c-0.195-0.195-0.195-0.512,0-0.707L9.49,8.793L7.697,7L6.344,8.354
		c-0.195,0.195-0.512,0.195-0.707,0c-0.195-0.195-0.195-0.512,0-0.707L6.99,6.293L5.197,4.5L3.844,5.853
		c-0.195,0.195-0.512,0.195-0.707,0c-0.195-0.195-0.195-0.512,0-0.707L4.49,3.793L0.844,0.147C0.525-0.173-0.022,0.066,0.001,0.5v23
		C-0.01,23.777,0.214,24,0.49,24h23c0.003,0,0.006,0,0.01,0C23.988,24,24.185,23.371,23.789,23.093z M3.99,20v-8.793L12.783,20H3.99
		z"/>
</g>
<g id="Invisible_Shape">
	<rect x="0.001" fill="none" width="24" height="24"/>
</g>
</svg>
