<?xml version="1.0" encoding="utf-8"?>
<!-- Generator: Adobe Illustrator 19.2.1, SVG Export Plug-In . SVG Version: 6.00 Build 0)  -->
<svg version="1.1" xmlns="http://www.w3.org/2000/svg" xmlns:xlink="http://www.w3.org/1999/xlink" x="0px" y="0px" width="24px"
	 height="24px" viewBox="0 0 24 24" enable-background="new 0 0 24 24" xml:space="preserve">
<g id="Filled_Icon">
	<g>
		<path d="M24,6.5C24,6.224,23.776,6,23.5,6H19v12.5c0,0.277-0.224,0.5-0.5,0.5H6v4.5C6,23.777,6.224,24,6.5,24h17
			c0.276,0,0.5-0.223,0.5-0.5V6.5z"/>
		<path d="M17.5,18c0.276,0,0.5-0.224,0.5-0.5v-17C18,0.224,17.776,0,17.5,0h-17C0.224,0,0,0.224,0,0.5v17C0,17.777,0.224,18,0.5,18
			H17.5z"/>
	</g>
</g>
<g id="Invisible_Shape">
	<rect x="0.001" fill="none" width="24" height="24"/>
</g>
</svg>
