<?xml version="1.0" encoding="utf-8"?>
<!-- Generator: Adobe Illustrator 19.2.1, SVG Export Plug-In . SVG Version: 6.00 Build 0)  -->
<svg version="1.1" xmlns="http://www.w3.org/2000/svg" xmlns:xlink="http://www.w3.org/1999/xlink" x="0px" y="0px" width="24px"
	 height="24px" viewBox="0 0 24 24" enable-background="new 0 0 24 24" xml:space="preserve">
<g id="Filled_Icon">
	<g>
		<path d="M23.854,11.646l-2.5-2.5c-0.195-0.195-0.512-0.195-0.707,0l-0.896,0.897L13.957,4.25l0.897-0.897
			c0.195-0.195,0.195-0.512,0-0.707l-2.5-2.5c-0.195-0.195-0.512-0.195-0.707,0l-2.5,2.5c-0.195,0.195-0.195,0.512,0,0.707
			l0.897,0.897L4.25,10.043L3.353,9.146c-0.195-0.195-0.512-0.195-0.707,0l-2.5,2.5c-0.195,0.195-0.195,0.512,0,0.707l2.5,2.5
			c0.195,0.195,0.512,0.195,0.707,0l2.5-2.5c0.195-0.195,0.195-0.512,0-0.707L4.957,10.75l5.793-5.793l0.896,0.897
			c0.195,0.195,0.512,0.195,0.707,0l0.896-0.897l5.793,5.793l-0.896,0.896c-0.195,0.195-0.195,0.512,0,0.707l2.5,2.5
			c0.195,0.195,0.512,0.195,0.707,0l2.5-2.5C24.049,12.159,24.049,11.842,23.854,11.646z"/>
		<path d="M12.5,22c-1.329,0-2.548-0.474-3.5-1.261V23.5C9,23.776,9.224,24,9.5,24h6c0.276,0,0.5-0.224,0.5-0.5v-2.761
			C15.048,21.526,13.829,22,12.5,22z"/>
		<path d="M13,8.345V15c0,0.276-0.224,0.5-0.5,0.5S12,15.276,12,15V8.345c-0.681,0.997-4,5.967-4,8.155c0,2.482,2.019,4.5,4.5,4.5
			s4.5-2.018,4.5-4.5C17,14.311,13.681,9.341,13,8.345z"/>
	</g>
</g>
<g id="Invisible_Shape">
	<rect x="0.001" fill="none" width="24" height="24"/>
</g>
</svg>
