<?xml version="1.0" encoding="utf-8"?>
<!-- Generator: Adobe Illustrator 19.2.1, SVG Export Plug-In . SVG Version: 6.00 Build 0)  -->
<svg version="1.1" xmlns="http://www.w3.org/2000/svg" xmlns:xlink="http://www.w3.org/1999/xlink" x="0px" y="0px" width="24px"
	 height="24px" viewBox="0 0 24 24" enable-background="new 0 0 24 24" xml:space="preserve">
<g id="Filled_Icon">
	<path d="M23.5,19h-2.244L13.128,4H13.5C13.776,4,14,3.776,14,3.5v-3C14,0.224,13.776,0,13.5,0h-3C10.224,0,10,0.224,10,0.5v3
		C10,3.776,10.224,4,10.5,4h0.373L2.744,19H0.5C0.224,19,0,19.224,0,19.5v3C0,22.776,0.224,23,0.5,23h3C3.776,23,4,22.776,4,22.5V21
		h16v1.5c0,0.276,0.224,0.5,0.5,0.5h3c0.276,0,0.5-0.224,0.5-0.5v-3C24,19.224,23.776,19,23.5,19z M4,20v-0.5
		c0-0.154-0.074-0.287-0.184-0.379L12,4.018l8.184,15.103C20.074,19.212,20,19.345,20,19.5V20H4z"/>
</g>
<g id="Invisible_Shape">
	<rect x="0.001" fill="none" width="24" height="24"/>
</g>
</svg>
