<?xml version="1.0" encoding="utf-8"?>
<!-- Generator: Adobe Illustrator 19.2.1, SVG Export Plug-In . SVG Version: 6.00 Build 0)  -->
<svg version="1.1" xmlns="http://www.w3.org/2000/svg" xmlns:xlink="http://www.w3.org/1999/xlink" x="0px" y="0px" width="24px"
	 height="24px" viewBox="0 0 24 24" enable-background="new 0 0 24 24" xml:space="preserve">
<g id="Filled_Icon">
	<path d="M23.5,0h-23C0.224,0,0,0.224,0,0.5v23C0,23.776,0.224,24,0.5,24h23c0.276,0,0.5-0.224,0.5-0.5v-23
		C24,0.224,23.776,0,23.5,0z M3,3.707l3,3c-1.334,1.667-1.334,3.921,0,5.587l-3,3V3.707z M13,12.293c1.334-1.666,1.334-3.92,0-5.587
		l3-3v11.587L13,12.293z M6.707,7.414L8.793,9.5l-2.087,2.086C5.764,10.327,5.764,8.673,6.707,7.414z M7.414,6.707
		c1.259-0.942,2.913-0.942,4.173,0L9.5,8.793L7.414,6.707z M9.5,10.207l2.086,2.087c-1.259,0.942-2.913,0.942-4.173,0L9.5,10.207z
		 M10.207,9.5l2.087-2.086c0.942,1.259,0.942,2.913,0,4.173L10.207,9.5z M12.293,6c-1.666-1.334-3.92-1.334-5.586,0l-3-3h11.586
		L12.293,6z M6.707,13c1.666,1.334,3.92,1.334,5.586,0l3,3H3.707L6.707,13z M8.5,22h-5C3.224,22,3,21.776,3,21.5S3.224,21,3.5,21h5
		C8.776,21,9,21.224,9,21.5S8.776,22,8.5,22z M10.5,19h-7C3.224,19,3,18.776,3,18.5S3.224,18,3.5,18h7c0.276,0,0.5,0.224,0.5,0.5
		S10.776,19,10.5,19z M17,21.5c0,0.276-0.224,0.5-0.5,0.5h-3c-0.276,0-0.5-0.224-0.5-0.5v-3c0-0.276,0.224-0.5,0.5-0.5h3
		c0.276,0,0.5,0.224,0.5,0.5V21.5z M22,21.5c0,0.276-0.224,0.5-0.5,0.5h-3c-0.276,0-0.5-0.224-0.5-0.5v-3c0-0.276,0.224-0.5,0.5-0.5
		h3c0.276,0,0.5,0.224,0.5,0.5V21.5z M21.5,16h-2c-0.276,0-0.5-0.224-0.5-0.5s0.224-0.5,0.5-0.5h2c0.276,0,0.5,0.224,0.5,0.5
		S21.776,16,21.5,16z M21.5,14h-2c-0.276,0-0.5-0.224-0.5-0.5s0.224-0.5,0.5-0.5h2c0.276,0,0.5,0.224,0.5,0.5S21.776,14,21.5,14z
		 M21.5,8h-2C19.224,8,19,7.776,19,7.5S19.224,7,19.5,7h2C21.776,7,22,7.224,22,7.5S21.776,8,21.5,8z M21.5,6h-2
		C19.224,6,19,5.776,19,5.5S19.224,5,19.5,5h2C21.776,5,22,5.224,22,5.5S21.776,6,21.5,6z M21.5,4h-2C19.224,4,19,3.776,19,3.5
		S19.224,3,19.5,3h2C21.776,3,22,3.224,22,3.5S21.776,4,21.5,4z"/>
</g>
<g id="Invisible_Shape">
	<rect x="0.001" fill="none" width="24" height="24"/>
</g>
</svg>
