<?xml version="1.0" encoding="utf-8"?>
<!-- Generator: Adobe Illustrator 19.2.1, SVG Export Plug-In . SVG Version: 6.00 Build 0)  -->
<svg version="1.1" xmlns="http://www.w3.org/2000/svg" xmlns:xlink="http://www.w3.org/1999/xlink" x="0px" y="0px" width="24px"
	 height="24px" viewBox="0 0 24 24" enable-background="new 0 0 24 24" xml:space="preserve">
<g id="Filled_Icon">
	<g>
		<g>
			<path d="M12,10.508c-1.378,0-2.5-1.122-2.5-2.5c0-0.276,0.224-0.5,0.5-0.5c0.276,0,0.5,0.224,0.5,0.5c0,0.827,0.673,1.5,1.5,1.5
				c0.827,0,1.5-0.673,1.5-1.5s-0.673-1.5-1.5-1.5c-0.276,0-0.5-0.223-0.5-0.5c0-0.276,0.224-0.5,0.5-0.5c1.378,0,2.5,1.122,2.5,2.5
				C14.5,9.387,13.379,10.508,12,10.508z"/>
		</g>
		<path d="M13.08,14.921C14.244,13.163,16.238,12,18.5,12c0.438,0,0.866,0.045,1.28,0.128c0.092-0.066,0.34-0.23,0.368-0.251
			c2.274-1.713,3.686-3.483,3.745-3.558C23.967,8.224,24.003,8.11,24,7.996c0.003-0.151-0.062-0.303-0.189-0.404
			c-0.004-0.004-0.009-0.007-0.014-0.01C23.037,6.66,18.118,1.008,12,1.008c-6.519,0-11.676,6.417-11.892,6.69
			c-0.144,0.183-0.144,0.439,0,0.621c0.201,0.254,4.989,6.213,11.168,6.662c0.09,0.008,0.428,0.008,0.507,0.005
			C11.784,14.986,12.725,14.959,13.08,14.921z M7.501,8.008c0-2.481,2.018-4.5,4.5-4.5c2.481,0,4.5,2.019,4.5,4.5
			s-2.019,4.5-4.5,4.5C9.519,12.508,7.501,10.49,7.501,8.008z"/>
		<path d="M18.5,13c-3.033,0-5.5,2.467-5.5,5.5s2.467,5.5,5.5,5.5s5.5-2.467,5.5-5.5S21.533,13,18.5,13z M21,19h-5
			c-0.276,0-0.5-0.224-0.5-0.5S15.724,18,16,18h5c0.276,0,0.5,0.224,0.5,0.5S21.276,19,21,19z"/>
	</g>
</g>
<g id="Invisible_Shape">
	<rect x="0.001" fill="none" width="24" height="24"/>
</g>
</svg>
