<?xml version="1.0" encoding="utf-8"?>
<!-- Generator: Adobe Illustrator 19.2.1, SVG Export Plug-In . SVG Version: 6.00 Build 0)  -->
<svg version="1.1" xmlns="http://www.w3.org/2000/svg" xmlns:xlink="http://www.w3.org/1999/xlink" x="0px" y="0px" width="24px"
	 height="24px" viewBox="0 0 24 24" enable-background="new 0 0 24 24" xml:space="preserve">
<g id="Filled_Icon">
	<g>
		<g>
			<path d="M12,10.508c-1.378,0-2.5-1.122-2.5-2.5c0-0.276,0.224-0.5,0.5-0.5s0.5,0.224,0.5,0.5c0,0.827,0.673,1.5,1.5,1.5
				s1.5-0.673,1.5-1.5s-0.673-1.5-1.5-1.5c-0.276,0-0.5-0.223-0.5-0.5c0-0.276,0.224-0.5,0.5-0.5c1.378,0,2.5,1.122,2.5,2.5
				C14.5,9.387,13.378,10.508,12,10.508z"/>
		</g>
		<path d="M23.81,7.591c-0.004-0.004-0.009-0.007-0.014-0.01C23.036,6.66,18.117,1.008,12,1.008c-6.519,0-11.676,6.417-11.892,6.69
			c-0.144,0.183-0.144,0.439,0,0.621c0.201,0.254,4.989,6.213,11.168,6.662C11.366,14.989,12,14.983,12,14.983
			c0.189,0,0.374-0.022,0.561-0.032C12.836,12.731,14.708,11,17,11c1.098,0,2.094,0.406,2.87,1.064
			c0.062-0.045,0.25-0.166,0.277-0.188c2.273-1.713,3.686-3.483,3.745-3.558C23.967,8.224,24.003,8.11,24,7.996
			C24.003,7.844,23.938,7.693,23.81,7.591z M12,12.508c-2.481,0-4.5-2.019-4.5-4.5s2.019-4.5,4.5-4.5s4.5,2.019,4.5,4.5
			S14.481,12.508,12,12.508z"/>
		<path d="M21.5,16h-1v-0.5c0-1.93-1.57-3.5-3.5-3.5s-3.5,1.57-3.5,3.5V16h-1c-0.276,0-0.5,0.224-0.5,0.5v7
			c0,0.276,0.224,0.5,0.5,0.5h9c0.276,0,0.5-0.224,0.5-0.5v-7C22,16.224,21.776,16,21.5,16z M17.5,19.847V21.5
			c0,0.276-0.224,0.5-0.5,0.5s-0.5-0.224-0.5-0.5v-1.653C16.206,19.672,16,19.365,16,19c0-0.551,0.449-1,1-1s1,0.449,1,1
			C18,19.365,17.794,19.672,17.5,19.847z M19.5,16h-5v-0.5c0-1.378,1.122-2.5,2.5-2.5s2.5,1.122,2.5,2.5V16z"/>
	</g>
</g>
<g id="Invisible_Shape">
	<rect x="0.001" fill="none" width="24" height="24"/>
</g>
</svg>
