<?xml version="1.0" encoding="utf-8"?>
<!-- Generator: Adobe Illustrator 19.2.1, SVG Export Plug-In . SVG Version: 6.00 Build 0)  -->
<svg version="1.1" xmlns="http://www.w3.org/2000/svg" xmlns:xlink="http://www.w3.org/1999/xlink" x="0px" y="0px" width="24px"
	 height="24px" viewBox="0 0 24 24" enable-background="new 0 0 24 24" xml:space="preserve">
<g id="Filled_Icon">
	<g>
		<g>
			<g>
				<path d="M12,10.5c-1.378,0-2.5-1.122-2.5-2.5c0-0.276,0.224-0.5,0.5-0.5s0.5,0.224,0.5,0.5c0,0.827,0.673,1.5,1.5,1.5
					s1.5-0.673,1.5-1.5S12.827,6.5,12,6.5c-0.276,0-0.5-0.224-0.5-0.5s0.224-0.5,0.5-0.5c1.378,0,2.5,1.122,2.5,2.5
					S13.378,10.5,12,10.5z"/>
			</g>
			<path d="M13.085,14.912c1.419-2.134,4.008-3.317,6.685-2.786c1.812-1.304,3.296-2.778,4.123-3.816
				c0.164-0.207,0.151-0.541-0.082-0.728c-0.004-0.003-0.009-0.007-0.014-0.01C23.036,6.651,18.117,1,12,1
				C5.481,1,0.324,7.417,0.108,7.69c-0.144,0.182-0.144,0.438,0,0.621C2.975,11.922,8.069,15.454,13.085,14.912z M7.5,8
				c0-2.481,2.019-4.5,4.5-4.5s4.5,2.019,4.5,4.5c0,2.482-2.019,4.5-4.5,4.5S7.5,10.482,7.5,8z"/>
		</g>
		<path d="M18.5,13c-3.033,0-5.5,2.467-5.5,5.5s2.467,5.5,5.5,5.5s5.5-2.467,5.5-5.5S21.533,13,18.5,13z M21,19h-2v2
			c0,0.276-0.224,0.5-0.5,0.5S18,21.276,18,21v-2h-2c-0.276,0-0.5-0.224-0.5-0.5S15.724,18,16,18h2v-2c0-0.276,0.224-0.5,0.5-0.5
			S19,15.724,19,16v2h2c0.276,0,0.5,0.224,0.5,0.5S21.276,19,21,19z"/>
	</g>
</g>
<g id="Invisible_Shape">
	<rect x="0.001" fill="none" width="24" height="24"/>
</g>
</svg>
