<?xml version="1.0" encoding="utf-8"?>
<!-- Generator: Adobe Illustrator 19.2.1, SVG Export Plug-In . SVG Version: 6.00 Build 0)  -->
<svg version="1.1" xmlns="http://www.w3.org/2000/svg" xmlns:xlink="http://www.w3.org/1999/xlink" x="0px" y="0px" width="24px"
	 height="24px" viewBox="0 0 24 24" enable-background="new 0 0 24 24" xml:space="preserve">
<g id="Filled_Icon">
	<g>
		<path d="M21.5,0h-19C1.122,0,0,1.122,0,2.5V5h24V2.5C24,1.122,22.878,0,21.5,0z M4,4C3.449,4,3,3.551,3,3s0.449-1,1-1s1,0.449,1,1
			S4.551,4,4,4z M7,4C6.449,4,6,3.551,6,3s0.449-1,1-1s1,0.449,1,1S7.551,4,7,4z M10,4C9.449,4,9,3.551,9,3s0.449-1,1-1s1,0.449,1,1
			S10.551,4,10,4z"/>
		<path d="M0,21.5C0,22.878,1.122,24,2.5,24h19c1.378,0,2.5-1.122,2.5-2.5V6H0V21.5z M21,16.5v4c0,0.276-0.224,0.5-0.5,0.5h-6
			c-0.276,0-0.5-0.224-0.5-0.5v-5c0-0.276,0.224-0.5,0.5-0.5H16c0.118,0,0.232,0.042,0.322,0.118L17.37,16h3.13
			C20.776,16,21,16.224,21,16.5z M10,13c0.405,0,0.771,0.163,1.041,0.424l6.484-3.677C17.368,8.784,18.112,8,19,8
			c0.827,0,1.5,0.673,1.5,1.5S19.827,11,19,11c-0.379,0-0.723-0.146-0.987-0.379l-6.531,3.703C11.593,15.273,10.852,16,10,16
			c-0.827,0-1.5-0.673-1.5-1.5S9.173,13,10,13z M3,8.5C3,8.224,3.224,8,3.5,8h3C6.776,8,7,8.224,7,8.5V11H3V8.5z M3,12h4v2H3V12z
			 M3,15h4v2H3V15z M3,18h4v2.5C7,20.776,6.776,21,6.5,21h-3C3.224,21,3,20.776,3,20.5V18z"/>
	</g>
</g>
<g id="Invisible_Shape">
	<rect x="0.001" fill="none" width="24" height="24"/>
</g>
</svg>
