<?xml version="1.0" encoding="utf-8"?>
<!-- Generator: Adobe Illustrator 16.0.3, SVG Export Plug-In . SVG Version: 6.00 Build 0)  -->
<!DOCTYPE svg PUBLIC "-//W3C//DTD SVG 1.1//EN" "http://www.w3.org/Graphics/SVG/1.1/DTD/svg11.dtd">
<svg version="1.1" xmlns="http://www.w3.org/2000/svg" xmlns:xlink="http://www.w3.org/1999/xlink" x="0px" y="0px" width="24px"
	 height="24px" viewBox="0 0 24 24" enable-background="new 0 0 24 24" xml:space="preserve">
<g id="Outline_Icons_1_">
	<g id="Outline_Icons">
		<g>
			
				<circle fill="none" stroke="#000000" stroke-linecap="round" stroke-linejoin="round" stroke-miterlimit="10" cx="11.5" cy="12.5" r="7"/>
			<polyline fill="none" stroke="#000000" stroke-linecap="round" stroke-linejoin="round" stroke-miterlimit="10" points="11.5,10 
				11.5,12.5 14.5,15.5 			"/>
			<polyline fill="none" stroke="#000000" stroke-linejoin="round" stroke-miterlimit="10" points="14,6 17.5,2.5 21.5,6.5 18,10 
							"/>
			<polyline fill="none" stroke="#000000" stroke-linejoin="round" stroke-miterlimit="10" points="5,15.047 0.5,19.5 0.5,23.5 
				4.5,23.5 8.984,19.031 			"/>
			<polyline fill="none" stroke="#000000" stroke-linecap="round" stroke-linejoin="round" stroke-miterlimit="10" points="
				17.5,2.5 19.5,0.5 23.5,4.5 21.5,6.5 			"/>
			
				<line fill="none" stroke="#000000" stroke-linecap="round" stroke-linejoin="round" stroke-miterlimit="10" x1="19.5" y1="4.5" x2="21.5" y2="2.5"/>
			<g>
				<g>
					<g>
						<path d="M3.5,20C3.222,20,3,20.224,3,20.5S3.222,21,3.5,21C3.774,21,4,20.776,4,20.5S3.774,20,3.5,20L3.5,20z"/>
					</g>
				</g>
			</g>
			<g>
				<g>
					<g>
						<path d="M5,18.5c-0.278,0-0.5,0.224-0.5,0.5s0.222,0.5,0.5,0.5c0.274,0,0.5-0.224,0.5-0.5S5.274,18.5,5,18.5L5,18.5z"/>
					</g>
				</g>
			</g>
		</g>
	</g>
	<g id="New_icons_1_">
	</g>
</g>
<g id="Invisible_Shape">
	<rect fill="none" width="24" height="24"/>
</g>
</svg>
