<?xml version="1.0" encoding="utf-8"?>
<!-- Generator: Adobe Illustrator 19.2.1, SVG Export Plug-In . SVG Version: 6.00 Build 0)  -->
<svg version="1.1" xmlns="http://www.w3.org/2000/svg" xmlns:xlink="http://www.w3.org/1999/xlink" x="0px" y="0px" width="24px"
	 height="24px" viewBox="0 0 24 24" enable-background="new 0 0 24 24" xml:space="preserve">
<g id="Filled_Icons">
	<g>
		<path d="M19.5,4H9V3h1.5C11.327,3,12,2.327,12,1.5S11.327,0,10.5,0h-4C5.673,0,5,0.673,5,1.5S5.673,3,6.5,3H8v1H4.5
			C4.311,4,4.138,4.107,4.053,4.276l-1,2C2.886,6.609,3.129,7,3.5,7h16C19.776,7,20,6.776,20,6.5v-2C20,4.224,19.776,4,19.5,4z"/>
		<g>
			<path d="M19.5,11h-2.979c-0.276,0-0.5-0.224-0.5-0.5s0.224-0.5,0.5-0.5H19.5c0.276,0,0.5,0.224,0.5,0.5S19.776,11,19.5,11z"/>
		</g>
		<g>
			<path d="M19.5,9h-2.979c-0.276,0-0.5-0.224-0.5-0.5s0.224-0.5,0.5-0.5H19.5C19.776,8,20,8.224,20,8.5S19.776,9,19.5,9z"/>
		</g>
		<g>
			<path d="M19.5,13h-2.979c-0.276,0-0.5-0.224-0.5-0.5s0.224-0.5,0.5-0.5H19.5c0.276,0,0.5,0.224,0.5,0.5S19.776,13,19.5,13z"/>
		</g>
		<g>
			<path d="M19.5,15h-2.979c-0.276,0-0.5-0.224-0.5-0.5s0.224-0.5,0.5-0.5H19.5c0.276,0,0.5,0.224,0.5,0.5S19.776,15,19.5,15z"/>
		</g>
		<path d="M14.5,8h-12C2.224,8,2,8.224,2,8.5v1C2,9.776,2.224,10,2.5,10h12c0.276,0,0.5-0.224,0.5-0.5v-1C15,8.224,14.776,8,14.5,8z
			"/>
		<path d="M14.5,13h-12C2.224,13,2,13.224,2,13.5v1C2,14.776,2.224,15,2.5,15h12c0.276,0,0.5-0.224,0.5-0.5v-1
			C15,13.224,14.776,13,14.5,13z"/>
		<g>
			<path d="M10.5,20H9v-1h6v-3H3.5c-0.371,0-0.614,0.391-0.447,0.724l1,2C4.138,18.894,4.311,19,4.5,19H8v1H6.5
				C5.673,20,5,20.673,5,21.5S5.673,23,6.5,23h4c0.827,0,1.5-0.673,1.5-1.5S11.327,20,10.5,20z"/>
			<path d="M21.729,21.586L20,20.695V16.5c0-0.276-0.224-0.5-0.5-0.5H16v4.687l-1.718,0.833C14.109,21.604,14,21.777,14,21.97v1.53
				c0,0.276,0.224,0.5,0.5,0.5h7c0.276,0,0.5-0.224,0.5-0.5v-1.469C22,21.844,21.896,21.673,21.729,21.586z"/>
		</g>
	</g>
</g>
<g id="Invisible_Shape">
	<rect fill="none" width="24" height="24"/>
</g>
</svg>
