<?xml version="1.0" encoding="utf-8"?>
<!-- Generator: Adobe Illustrator 19.2.1, SVG Export Plug-In . SVG Version: 6.00 Build 0)  -->
<svg version="1.1" xmlns="http://www.w3.org/2000/svg" xmlns:xlink="http://www.w3.org/1999/xlink" x="0px" y="0px" width="24px"
	 height="24px" viewBox="0 0 24 24" enable-background="new 0 0 24 24" xml:space="preserve">
<g id="Filled_Icons">
	<g>
		<path d="M15.928,21.014C15.283,21.642,14.42,22,13.5,22c-1.93,0-3.5-1.57-3.5-3.5c0,0.276-0.224,0.5-0.5,0.5h-1
			C8.776,19,9,19.224,9,19.5S8.776,20,8.5,20h-1C7.224,20,7,19.776,7,19.5S7.224,19,7.5,19h1C8.224,19,8,18.776,8,18.5
			S8.224,18,8.5,18h-1C7.224,18,7,17.776,7,17.5S7.224,17,7.5,17h1C8.224,17,8,16.776,8,16.5S8.224,16,8.5,16h-1
			C7.224,16,7,15.776,7,15.5S7.224,15,7.5,15h1C8.224,15,8,14.776,8,14.5S8.224,14,8.5,14h-1C7.224,14,7,13.776,7,13.5
			S7.224,13,7.5,13h1C8.224,13,8,12.776,8,12.5S8.224,12,8.5,12h-1C7.224,12,7,11.776,7,11.5S7.224,11,7.5,11h1
			C8.224,11,8,10.776,8,10.5S8.224,10,8.5,10h-1C7.224,10,7,9.776,7,9.5S7.224,9,7.5,9h1C8.776,9,9,9.224,9,9.5S8.776,10,8.5,10h1
			c0.276,0,0.5,0.224,0.5,0.5S9.776,11,9.5,11h-1C8.776,11,9,11.224,9,11.5S8.776,12,8.5,12h1c0.276,0,0.5,0.224,0.5,0.5
			S9.776,13,9.5,13h-1C8.776,13,9,13.224,9,13.5S8.776,14,8.5,14h1c0.276,0,0.5,0.224,0.5,0.5S9.776,15,9.5,15h-1
			C8.776,15,9,15.224,9,15.5S8.776,16,8.5,16h1c0.276,0,0.5,0.224,0.5,0.5S9.776,17,9.5,17h-1C8.776,17,9,17.224,9,17.5
			S8.776,18,8.5,18h1c0.276,0,0.5,0.224,0.5,0.5c0-1.93,1.57-3.5,3.5-3.5c0.789,0,1.54,0.267,2.148,0.749L18,14.572V4.5
			c0-0.133-0.053-0.26-0.146-0.353l-4-4C13.76,0.053,13.633,0,13.5,0H9v2h0.5C9.776,2,10,2.224,10,2.5v5C10,7.776,9.776,8,9.5,8h-3
			C6.224,8,6,7.776,6,7.5v-5C6,2.224,6.224,2,6.5,2S7,2.224,7,2.5V5h1v1H7v1h2V3H8.5C8.224,3,8,2.776,8,2.5V0H0.5
			C0.224,0,0,0.224,0,0.5v22C0,22.776,0.224,23,0.5,23H18v-1.209L15.928,21.014z"/>
		<path d="M21.5,19c-0.891,0-1.668,0.471-2.111,1.175l-3.428-1.286c0.052-0.338,0.069-0.57-0.056-1.032l3.638-1.819
			C20.002,16.619,20.703,17,21.5,17c1.379,0,2.5-1.121,2.5-2.5S22.879,12,21.5,12c-1.59,0-2.848,1.498-2.405,3.144l-3.639,1.819
			C14.998,16.381,14.296,16,13.5,16c-1.379,0-2.5,1.121-2.5,2.5s1.121,2.5,2.5,2.5c0.891,0,1.668-0.471,2.111-1.173l3.428,1.286
			C18.792,22.707,20.032,24,21.5,24c1.379,0,2.5-1.121,2.5-2.5S22.879,19,21.5,19z M21.5,13c0.827,0,1.5,0.673,1.5,1.5
			S22.327,16,21.5,16S20,15.327,20,14.5S20.673,13,21.5,13z M13.5,20c-0.827,0-1.5-0.673-1.5-1.5s0.673-1.5,1.5-1.5
			s1.5,0.673,1.5,1.5S14.327,20,13.5,20z M21.5,23c-0.827,0-1.5-0.673-1.5-1.5s0.673-1.5,1.5-1.5s1.5,0.673,1.5,1.5
			S22.327,23,21.5,23z"/>
	</g>
</g>
<g id="Invisible_Shape">
	<rect fill="none" width="24" height="24"/>
</g>
</svg>
