<?xml version="1.0" encoding="utf-8"?>
<!-- Generator: Adobe Illustrator 19.2.1, SVG Export Plug-In . SVG Version: 6.00 Build 0)  -->
<svg version="1.1" xmlns="http://www.w3.org/2000/svg" xmlns:xlink="http://www.w3.org/1999/xlink" x="0px" y="0px" width="24px"
	 height="24px" viewBox="0 0 24 24" enable-background="new 0 0 24 24" xml:space="preserve">
<g id="Filled_Icons">
	<g>
		<polygon points="11.472,17 12.528,17 12,15.24 		"/>
		<path d="M6.75,14H6v1.5h0.75c0.413,0,0.75-0.337,0.75-0.75C7.5,14.336,7.163,14,6.75,14z"/>
		<path d="M16.75,14H16v1.5h0.75c0.413,0,0.75-0.337,0.75-0.75C17.5,14.336,17.163,14,16.75,14z"/>
		<path d="M21.854,6.147l-6-6C15.76,0.053,15.632,0,15.5,0h-13C2.224,0,2,0.224,2,0.5v23C2,23.776,2.224,24,2.5,24h19
			c0.276,0,0.5-0.224,0.5-0.5v-17C22,6.367,21.947,6.24,21.854,6.147z M8.446,18.274c0.124,0.247,0.025,0.548-0.222,0.672
			c-0.248,0.124-0.547,0.024-0.671-0.222L6.434,16.5H6v1.999c0,0.276-0.224,0.5-0.5,0.5S5,18.775,5,18.499V13.5
			C5,13.224,5.224,13,5.5,13h1.25c0.965,0,1.75,0.785,1.75,1.75c0,0.707-0.423,1.313-1.028,1.59L8.446,18.274z M13.644,18.979
			c-0.261,0.08-0.543-0.068-0.623-0.335L12.828,18h-1.656l-0.193,0.644c-0.079,0.263-0.358,0.416-0.623,0.335
			c-0.265-0.079-0.414-0.357-0.335-0.622l1.5-5c0.127-0.424,0.831-0.424,0.958,0l1.5,5C14.058,18.621,13.908,18.899,13.644,18.979z
			 M18.446,18.274c0.124,0.247,0.025,0.548-0.222,0.672c-0.248,0.124-0.547,0.024-0.671-0.222l-1.12-2.225H16v1.999
			c0,0.276-0.224,0.5-0.5,0.5s-0.5-0.224-0.5-0.5V13.5c0-0.276,0.224-0.5,0.5-0.5h1.25c0.965,0,1.75,0.785,1.75,1.75
			c0,0.707-0.423,1.313-1.028,1.59L18.446,18.274z M15,7V1l6,6H15z"/>
	</g>
</g>
<g id="Invisible_Shape">
	<rect fill="none" width="24" height="24"/>
</g>
</svg>
