<?xml version="1.0" encoding="utf-8"?>
<!-- Generator: Adobe Illustrator 19.2.1, SVG Export Plug-In . SVG Version: 6.00 Build 0)  -->
<svg version="1.1" xmlns="http://www.w3.org/2000/svg" xmlns:xlink="http://www.w3.org/1999/xlink" x="0px" y="0px" width="24px"
	 height="24px" viewBox="0 0 24 24" enable-background="new 0 0 24 24" xml:space="preserve">
<g id="Filled_Icons">
	<path d="M11,20.5c0-0.276,0.224-0.5,0.5-0.5h-1c-0.276,0-0.5-0.224-0.5-0.5s0.224-0.5,0.5-0.5h1c-0.276,0-0.5-0.224-0.5-0.5
		s0.224-0.5,0.5-0.5h-1c-0.276,0-0.5-0.224-0.5-0.5s0.224-0.5,0.5-0.5h1c-0.276,0-0.5-0.224-0.5-0.5s0.224-0.5,0.5-0.5h-1
		c-0.276,0-0.5-0.224-0.5-0.5s0.224-0.5,0.5-0.5h1c-0.276,0-0.5-0.224-0.5-0.5s0.224-0.5,0.5-0.5h-1c-0.276,0-0.5-0.224-0.5-0.5
		s0.224-0.5,0.5-0.5h1c-0.276,0-0.5-0.224-0.5-0.5s0.224-0.5,0.5-0.5h-1c-0.276,0-0.5-0.224-0.5-0.5s0.224-0.5,0.5-0.5h1
		c-0.276,0-0.5-0.224-0.5-0.5s0.224-0.5,0.5-0.5h-1C10.224,10,10,9.776,10,9.5S10.224,9,10.5,9h1C11.776,9,12,9.224,12,9.5
		S11.776,10,11.5,10h1c0.276,0,0.5,0.224,0.5,0.5S12.776,11,12.5,11h-1c0.276,0,0.5,0.224,0.5,0.5S11.776,12,11.5,12h1
		c0.276,0,0.5,0.224,0.5,0.5S12.776,13,12.5,13h-1c0.276,0,0.5,0.224,0.5,0.5S11.776,14,11.5,14h1c0.276,0,0.5,0.224,0.5,0.5
		S12.776,15,12.5,15h-1c0.276,0,0.5,0.224,0.5,0.5S11.776,16,11.5,16h1c0.276,0,0.5,0.224,0.5,0.5S12.776,17,12.5,17h-1
		c0.276,0,0.5,0.224,0.5,0.5S11.776,18,11.5,18h1c0.276,0,0.5,0.224,0.5,0.5S12.776,19,12.5,19h-1c0.276,0,0.5,0.224,0.5,0.5
		S11.776,20,11.5,20h1c0.276,0,0.5,0.224,0.5,0.5S12.776,21,12.5,21h-1c0.276,0,0.5,0.224,0.5,0.5S11.776,22,11.5,22h-1
		c-0.276,0-0.5-0.224-0.5-0.5s0.224-0.5,0.5-0.5h1C11.224,21,11,20.776,11,20.5z M10,7h2V3h-0.5C11.224,3,11,2.776,11,2.5V1V0H3.5
		C3.224,0,3,0.224,3,0.5v23C3,23.776,3.224,24,3.5,24h17c0.276,0,0.5-0.224,0.5-0.5v-19c0-0.133-0.053-0.26-0.146-0.353l-4-4
		C16.76,0.053,16.632,0,16.5,0H12v1v1h0.5C12.776,2,13,2.224,13,2.5v5C13,7.776,12.776,8,12.5,8h-3C9.224,8,9,7.776,9,7.5v-5
		C9,2.224,9.224,2,9.5,2C9.776,2,10,2.224,10,2.5V5h1v1h-1V7z"/>
</g>
<g id="Invisible_Shape">
	<rect fill="none" width="24" height="24"/>
</g>
</svg>
