<?xml version="1.0" encoding="utf-8"?>
<!-- Generator: Adobe Illustrator 19.2.1, SVG Export Plug-In . SVG Version: 6.00 Build 0)  -->
<svg version="1.1" xmlns="http://www.w3.org/2000/svg" xmlns:xlink="http://www.w3.org/1999/xlink" x="0px" y="0px" width="24px"
	 height="24px" viewBox="0 0 24 24" enable-background="new 0 0 24 24" xml:space="preserve">
<g id="Filled_Icons">
	<g>
		<path d="M21.854,6.147l-6-6C15.76,0.053,15.632,0,15.5,0h-13C2.224,0,2,0.224,2,0.5v23C2,23.776,2.224,24,2.5,24h19
			c0.276,0,0.5-0.224,0.5-0.5v-17C22,6.367,21.947,6.24,21.854,6.147z M9.5,19H7c-0.368,0-0.614-0.391-0.447-0.724L8.691,14H7
			c-0.276,0-0.5-0.224-0.5-0.5S6.724,13,7,13h2.5c0.369,0,0.614,0.391,0.447,0.724L7.809,18H9.5c0.276,0,0.5,0.224,0.5,0.5
			S9.776,19,9.5,19z M13,18.5c0,0.276-0.224,0.5-0.5,0.5S12,18.776,12,18.5v-5c0-0.276,0.224-0.5,0.5-0.5s0.5,0.224,0.5,0.5V18.5z
			 M16.75,16.501H16V18.5c0,0.276-0.224,0.5-0.5,0.5S15,18.776,15,18.5v-4.999c0-0.276,0.224-0.5,0.5-0.5h1.25
			c0.965,0,1.75,0.785,1.75,1.75C18.5,15.716,17.715,16.501,16.75,16.501z M15,7V1l6,6H15z"/>
		<path d="M16.75,14.001H16v1.5h0.75c0.413,0,0.75-0.337,0.75-0.75C17.5,14.338,17.163,14.001,16.75,14.001z"/>
	</g>
</g>
<g id="Invisible_Shape">
	<rect fill="none" width="24" height="24"/>
</g>
</svg>
