<?xml version="1.0" encoding="utf-8"?>
<!-- Generator: Adobe Illustrator 19.2.1, SVG Export Plug-In . SVG Version: 6.00 Build 0)  -->
<svg version="1.1" xmlns="http://www.w3.org/2000/svg" xmlns:xlink="http://www.w3.org/1999/xlink" x="0px" y="0px" width="24px"
	 height="24px" viewBox="0 0 24 24" enable-background="new 0 0 24 24" xml:space="preserve">
<g id="Filled_Icons">
	<g>
		<path d="M12,19.5v-7.332c0-1.207,1.366-1.922,2.359-1.229C16.813,12.654,17,10.938,18,10.621V4.5c0-0.133-0.053-0.26-0.146-0.353
			l-4-4C13.76,0.053,13.633,0,13.5,0H9v2h0.5C9.776,2,10,2.224,10,2.5v5C10,7.776,9.776,8,9.5,8h-3C6.224,8,6,7.776,6,7.5v-5
			C6,2.224,6.224,2,6.5,2S7,2.224,7,2.5V5h1v1H7v1h2V3H8.5C8.224,3,8,2.776,8,2.5V0H0.5C0.224,0,0,0.224,0,0.5v22
			C0,22.776,0.224,23,0.5,23h13.887C12.831,21.806,12,20.412,12,19.5z M9,11.5C9,11.776,8.776,12,8.5,12h1
			c0.276,0,0.5,0.224,0.5,0.5S9.776,13,9.5,13h-1C8.776,13,9,13.224,9,13.5S8.776,14,8.5,14h1c0.276,0,0.5,0.224,0.5,0.5
			S9.776,15,9.5,15h-1C8.776,15,9,15.224,9,15.5S8.776,16,8.5,16h1c0.276,0,0.5,0.224,0.5,0.5S9.776,17,9.5,17h-1
			C8.776,17,9,17.224,9,17.5S8.776,18,8.5,18h1c0.276,0,0.5,0.224,0.5,0.5S9.776,19,9.5,19h-1C8.776,19,9,19.224,9,19.5
			S8.776,20,8.5,20h-1C7.224,20,7,19.776,7,19.5S7.224,19,7.5,19h1C8.224,19,8,18.776,8,18.5S8.224,18,8.5,18h-1
			C7.224,18,7,17.776,7,17.5S7.224,17,7.5,17h1C8.224,17,8,16.776,8,16.5S8.224,16,8.5,16h-1C7.224,16,7,15.776,7,15.5
			S7.224,15,7.5,15h1C8.224,15,8,14.776,8,14.5S8.224,14,8.5,14h-1C7.224,14,7,13.776,7,13.5S7.224,13,7.5,13h1
			C8.224,13,8,12.776,8,12.5S8.224,12,8.5,12h-1C7.224,12,7,11.776,7,11.5S7.224,11,7.5,11h1C8.224,11,8,10.776,8,10.5
			S8.224,10,8.5,10h-1C7.224,10,7,9.776,7,9.5S7.224,9,7.5,9h1C8.776,9,9,9.224,9,9.5S8.776,10,8.5,10h1c0.276,0,0.5,0.224,0.5,0.5
			S9.776,11,9.5,11h-1C8.776,11,9,11.224,9,11.5z"/>
		<path d="M23.213,11.759c-1.771,1.241-3.306,1.222-4.315-0.066c-0.189-0.243-0.605-0.243-0.795,0
			c-1.013,1.292-2.538,1.31-4.315,0.066C13.457,11.527,13,11.765,13,12.168V19.5c0,0.969,1.848,3.379,5.365,4.365
			c0.084,0.021,0.179,0.024,0.27,0C22.152,22.879,24,20.469,24,19.5v-7.332C24,11.765,23.543,11.527,23.213,11.759z M21,18h-2v2
			c0,0.276-0.224,0.5-0.5,0.5S18,20.276,18,20v-2h-2c-0.276,0-0.5-0.224-0.5-0.5S15.724,17,16,17h2v-2c0-0.276,0.224-0.5,0.5-0.5
			S19,14.724,19,15v2h2c0.276,0,0.5,0.224,0.5,0.5S21.276,18,21,18z"/>
	</g>
</g>
<g id="Invisible_Shape">
	<rect fill="none" width="24" height="24"/>
</g>
</svg>
