<?xml version="1.0" encoding="utf-8"?>
<!-- Generator: Adobe Illustrator 19.2.1, SVG Export Plug-In . SVG Version: 6.00 Build 0)  -->
<svg version="1.1" xmlns="http://www.w3.org/2000/svg" xmlns:xlink="http://www.w3.org/1999/xlink" x="0px" y="0px" width="24px"
	 height="24px" viewBox="0 0 24 24" enable-background="new 0 0 24 24" xml:space="preserve">
<g id="Filled_Icons">
	<g>
		<path d="M9,17.5C9,17.776,8.776,18,8.5,18h1c0.179,0,0.329,0.1,0.417,0.241c0.21-0.249,0.32-0.299,0.59-0.456
			c-0.01-0.191-0.01-0.377,0-0.568c-0.27-0.155-0.381-0.205-0.592-0.454C9.826,16.902,9.678,17,9.5,17h-1C8.776,17,9,17.224,9,17.5z
			"/>
		<path d="M11.252,22.543l-1.496-2.592c-0.171-0.295-0.229-0.633-0.179-0.967C9.551,18.988,9.527,19,9.5,19h-1
			C8.776,19,9,19.224,9,19.5S8.776,20,8.5,20h-1C7.224,20,7,19.776,7,19.5S7.224,19,7.5,19h1C8.224,19,8,18.776,8,18.5
			S8.224,18,8.5,18h-1C7.224,18,7,17.776,7,17.5S7.224,17,7.5,17h1C8.224,17,8,16.776,8,16.5S8.224,16,8.5,16h-1
			C7.224,16,7,15.776,7,15.5S7.224,15,7.5,15h1C8.224,15,8,14.776,8,14.5S8.224,14,8.5,14h-1C7.224,14,7,13.776,7,13.5
			S7.224,13,7.5,13h1C8.224,13,8,12.776,8,12.5S8.224,12,8.5,12h-1C7.224,12,7,11.776,7,11.5S7.224,11,7.5,11h1
			C8.224,11,8,10.776,8,10.5S8.224,10,8.5,10h-1C7.224,10,7,9.776,7,9.5S7.224,9,7.5,9h1C8.776,9,9,9.224,9,9.5S8.776,10,8.5,10h1
			c0.276,0,0.5,0.224,0.5,0.5S9.776,11,9.5,11h-1C8.776,11,9,11.224,9,11.5S8.776,12,8.5,12h1c0.276,0,0.5,0.224,0.5,0.5
			S9.776,13,9.5,13h-1C8.776,13,9,13.224,9,13.5S8.776,14,8.5,14h1c0.276,0,0.5,0.224,0.5,0.5c0,0.068-0.014,0.132-0.039,0.191
			l1.292-2.24c0.393-0.683,1.256-1.002,2.256-0.429c0.159-0.101,0.323-0.195,0.49-0.284C14,10.584,14.681,10,15.5,10H18V4.5
			c0-0.133-0.053-0.26-0.146-0.353l-4-4C13.76,0.053,13.633,0,13.5,0H9v2h0.5C9.776,2,10,2.224,10,2.5v5C10,7.776,9.776,8,9.5,8h-3
			C6.224,8,6,7.776,6,7.5v-5C6,2.224,6.224,2,6.5,2S7,2.224,7,2.5V5h1v1H7v1h2V3H8.5C8.224,3,8,2.776,8,2.5V0H0.5
			C0.224,0,0,0.224,0,0.5v22C0,22.776,0.224,23,0.5,23h11.178C11.506,22.881,11.357,22.729,11.252,22.543z"/>
		<path d="M9,15.5C9,15.776,8.776,16,8.5,16h1c0.026,0,0.049,0.012,0.075,0.016c-0.083-0.572,0.109-0.844,0.376-1.306
			C9.871,14.88,9.701,15,9.5,15h-1C8.776,15,9,15.224,9,15.5z"/>
		<path d="M23.195,18.77l-0.765-0.442c0.093-0.612,0.092-1.044,0.001-1.652l0.766-0.442c0.234-0.133,0.324-0.438,0.183-0.683
			l-1.5-2.599c-0.138-0.239-0.443-0.322-0.683-0.182l-0.765,0.441c-0.43-0.345-0.912-0.624-1.433-0.828V11.5
			c0-0.276-0.224-0.5-0.5-0.5h-3c-0.276,0-0.5,0.224-0.5,0.5v0.882c-0.521,0.204-1.003,0.483-1.433,0.828l-0.765-0.441
			c-0.237-0.139-0.545-0.058-0.683,0.182l-1.5,2.599c-0.142,0.245-0.052,0.55,0.183,0.683l0.766,0.442
			c-0.091,0.608-0.092,1.04,0.001,1.652l-0.765,0.442c-0.239,0.137-0.321,0.442-0.183,0.682l1.5,2.599
			c0.137,0.241,0.446,0.319,0.683,0.183l0.765-0.441c0.429,0.344,0.911,0.623,1.431,0.828V23.5c0,0.276,0.224,0.5,0.5,0.5h3
			c0.276,0,0.5-0.224,0.5-0.5v-0.881c0.52-0.205,1.002-0.484,1.431-0.828l0.765,0.441c0.237,0.137,0.546,0.058,0.683-0.183
			l1.5-2.599C23.517,19.212,23.435,18.906,23.195,18.77z M17,20c-1.379,0-2.5-1.121-2.5-2.5S15.621,15,17,15s2.5,1.121,2.5,2.5
			S18.379,20,17,20z"/>
	</g>
</g>
<g id="Invisible_Shape">
	<rect fill="none" width="24" height="24"/>
</g>
</svg>
