<?xml version="1.0" encoding="utf-8"?>
<!-- Generator: Adobe Illustrator 19.2.1, SVG Export Plug-In . SVG Version: 6.00 Build 0)  -->
<svg version="1.1" xmlns="http://www.w3.org/2000/svg" xmlns:xlink="http://www.w3.org/1999/xlink" x="0px" y="0px" width="24px"
	 height="24px" viewBox="0 0 24 24" enable-background="new 0 0 24 24" xml:space="preserve">
<g id="Filled_Icons">
	<g>
		<path d="M12,17.5c0-3.246,2.81-5.777,6-5.475V4.5c0-0.133-0.053-0.26-0.146-0.353l-4-4C13.76,0.053,13.633,0,13.5,0H9v2h0.5
			C9.776,2,10,2.224,10,2.5v5C10,7.776,9.776,8,9.5,8h-3C6.224,8,6,7.776,6,7.5v-5C6,2.224,6.224,2,6.5,2S7,2.224,7,2.5V5h1v1H7v1h2
			V3H8.5C8.224,3,8,2.776,8,2.5V0H0.5C0.224,0,0,0.224,0,0.5v22C0,22.776,0.224,23,0.5,23h17.001C14.468,23,12,20.532,12,17.5z
			 M9,11.5C9,11.776,8.776,12,8.5,12h1c0.276,0,0.5,0.224,0.5,0.5S9.776,13,9.5,13h-1C8.776,13,9,13.224,9,13.5S8.776,14,8.5,14h1
			c0.276,0,0.5,0.224,0.5,0.5S9.776,15,9.5,15h-1C8.776,15,9,15.224,9,15.5S8.776,16,8.5,16h1c0.276,0,0.5,0.224,0.5,0.5
			S9.776,17,9.5,17h-1C8.776,17,9,17.224,9,17.5S8.776,18,8.5,18h1c0.276,0,0.5,0.224,0.5,0.5S9.776,19,9.5,19h-1
			C8.776,19,9,19.224,9,19.5S8.776,20,8.5,20h-1C7.224,20,7,19.776,7,19.5S7.224,19,7.5,19h1C8.224,19,8,18.776,8,18.5
			S8.224,18,8.5,18h-1C7.224,18,7,17.776,7,17.5S7.224,17,7.5,17h1C8.224,17,8,16.776,8,16.5S8.224,16,8.5,16h-1
			C7.224,16,7,15.776,7,15.5S7.224,15,7.5,15h1C8.224,15,8,14.776,8,14.5S8.224,14,8.5,14h-1C7.224,14,7,13.776,7,13.5
			S7.224,13,7.5,13h1C8.224,13,8,12.776,8,12.5S8.224,12,8.5,12h-1C7.224,12,7,11.776,7,11.5S7.224,11,7.5,11h1
			C8.224,11,8,10.776,8,10.5S8.224,10,8.5,10h-1C7.224,10,7,9.776,7,9.5S7.224,9,7.5,9h1C8.776,9,9,9.224,9,9.5S8.776,10,8.5,10h1
			c0.276,0,0.5,0.224,0.5,0.5S9.776,11,9.5,11h-1C8.776,11,9,11.224,9,11.5z"/>
		<path d="M23.854,23.146L21,20.293c0.616-0.77,1-1.733,1-2.793c0-2.481-2.018-4.5-4.499-4.5C15.019,13,13,15.019,13,17.5
			c0,2.48,2.019,4.5,4.501,4.5c1.059,0,2.022-0.385,2.792-1l2.854,2.854c0.195,0.194,0.512,0.194,0.707,0
			C24.049,23.659,24.049,23.342,23.854,23.146z M17.501,21C15.57,21,14,19.43,14,17.5s1.57-3.5,3.501-3.5C19.43,14,21,15.57,21,17.5
			S19.43,21,17.501,21z"/>
	</g>
</g>
<g id="Invisible_Shape">
	<rect fill="none" width="24" height="24"/>
</g>
</svg>
