<?xml version="1.0" encoding="utf-8"?>
<!-- Generator: Adobe Illustrator 19.2.1, SVG Export Plug-In . SVG Version: 6.00 Build 0)  -->
<svg version="1.1" xmlns="http://www.w3.org/2000/svg" xmlns:xlink="http://www.w3.org/1999/xlink" x="0px" y="0px" width="24px"
	 height="24px" viewBox="0 0 24 24" enable-background="new 0 0 24 24" xml:space="preserve">
<g id="Filled_Icons">
	<g>
		<path d="M17.5,11c-3.584,0-6.5,2.916-6.5,6.5s2.916,6.5,6.5,6.5s6.5-2.916,6.5-6.5S21.084,11,17.5,11z M17.5,22.002
			c-0.383,0-0.691-0.309-0.691-0.691c0-0.38,0.309-0.69,0.691-0.69c0.382,0,0.691,0.311,0.691,0.69
			C18.191,21.693,17.882,22.002,17.5,22.002z M18,18.463V19c0,0.276-0.224,0.5-0.5,0.5S17,19.276,17,19v-0.991
			c0-0.276,0.224-0.5,0.5-0.5c0.869,0,1.5-0.636,1.5-1.509c0-0.869-0.631-1.5-1.5-1.5S16,15.131,16,16c0,0.276-0.224,0.5-0.5,0.5
			S15,16.276,15,16c0-1.425,1.074-2.5,2.5-2.5S20,14.575,20,16C20,17.258,19.17,18.243,18,18.463z"/>
		<path d="M17.854,4.147l-4-4C13.76,0.053,13.633,0,13.5,0H9v2h0.5C9.776,2,10,2.224,10,2.5v5C10,7.776,9.776,8,9.5,8h-3
			C6.224,8,6,7.776,6,7.5v-5C6,2.224,6.224,2,6.5,2S7,2.224,7,2.5V5h1v1H7v1h2V3H8.5C8.224,3,8,2.776,8,2.5V0H0.5
			C0.224,0,0,0.224,0,0.5v22C0,22.776,0.224,23,0.5,23h11.918C10.936,21.629,10,19.674,10,17.5c0-4.199,3.521-7.765,8-7.475V4.5
			C18,4.367,17.947,4.24,17.854,4.147z M9,11.5C9,11.776,8.776,12,8.5,12h1c0.276,0,0.5,0.224,0.5,0.5S9.776,13,9.5,13h-1
			C8.776,13,9,13.224,9,13.5S8.776,14,8.5,14h1c0.276,0,0.5,0.224,0.5,0.5S9.776,15,9.5,15h-1C8.776,15,9,15.224,9,15.5
			S8.776,16,8.5,16h1c0.276,0,0.5,0.224,0.5,0.5S9.776,17,9.5,17h-1C8.776,17,9,17.224,9,17.5S8.776,18,8.5,18h1
			c0.276,0,0.5,0.224,0.5,0.5S9.776,19,9.5,19h-1C8.776,19,9,19.224,9,19.5S8.776,20,8.5,20h-1C7.224,20,7,19.776,7,19.5
			S7.224,19,7.5,19h1C8.224,19,8,18.776,8,18.5S8.224,18,8.5,18h-1C7.224,18,7,17.776,7,17.5S7.224,17,7.5,17h1
			C8.224,17,8,16.776,8,16.5S8.224,16,8.5,16h-1C7.224,16,7,15.776,7,15.5S7.224,15,7.5,15h1C8.224,15,8,14.776,8,14.5
			S8.224,14,8.5,14h-1C7.224,14,7,13.776,7,13.5S7.224,13,7.5,13h1C8.224,13,8,12.776,8,12.5S8.224,12,8.5,12h-1
			C7.224,12,7,11.776,7,11.5S7.224,11,7.5,11h1C8.224,11,8,10.776,8,10.5S8.224,10,8.5,10h-1C7.224,10,7,9.776,7,9.5S7.224,9,7.5,9
			h1C8.776,9,9,9.224,9,9.5S8.776,10,8.5,10h1c0.276,0,0.5,0.224,0.5,0.5S9.776,11,9.5,11h-1C8.776,11,9,11.224,9,11.5z"/>
	</g>
</g>
<g id="Invisible_Shape">
	<rect fill="none" width="24" height="24"/>
</g>
</svg>
