<?xml version="1.0" encoding="utf-8"?>
<!-- Generator: Adobe Illustrator 19.2.0, SVG Export Plug-In . SVG Version: 6.00 Build 0)  -->
<svg version="1.1" xmlns="http://www.w3.org/2000/svg" xmlns:xlink="http://www.w3.org/1999/xlink" x="0px" y="0px" width="24px"
	 height="24px" viewBox="0 0 24 24" enable-background="new 0 0 24 24" xml:space="preserve">
<g id="Filled_Icons">
	<path d="M12-0.006c-6.991,0-11,3.645-11,10c0,6.582,7.633,13.5,11,13.5s11-6.918,11-13.5C23,3.639,18.99-0.006,12-0.006z
		 M10.416,14.423c-0.047,0.234-0.251,0.402-0.49,0.402c-2.167,0-3.833-0.626-4.949-1.86c-1.711-1.89-1.472-4.491-1.461-4.601
		c0.025-0.256,0.24-0.45,0.497-0.45c2.45,0,4.248,0.678,5.345,2.016C10.914,11.826,10.438,14.318,10.416,14.423z M14.073,14.825
		c-0.238,0-0.443-0.168-0.49-0.402c-0.021-0.104-0.497-2.597,1.059-4.494c1.097-1.338,2.895-2.016,5.344-2.016
		c0.257,0,0.473,0.194,0.498,0.45c0.011,0.11,0.249,2.712-1.461,4.601C17.906,14.199,16.24,14.825,14.073,14.825z"/>
</g>
<g id="invisible_shape">
	<rect fill="none" width="24" height="24"/>
</g>
</svg>
