<?xml version="1.0" encoding="utf-8"?>
<!-- Generator: Adobe Illustrator 19.2.0, SVG Export Plug-In . SVG Version: 6.00 Build 0)  -->
<svg version="1.1" xmlns="http://www.w3.org/2000/svg" xmlns:xlink="http://www.w3.org/1999/xlink" x="0px" y="0px" width="24px"
	 height="24px" viewBox="0 0 24 24" enable-background="new 0 0 24 24" xml:space="preserve">
<g id="Filled_Icons">
	<g>
		<path d="M16.342,5.138c0.769,0,1.457-0.429,1.796-1.118c0.235-0.478,0.272-1.021,0.099-1.527c-0.172-0.505-0.53-0.913-1.009-1.15
			c-0.973-0.475-2.204-0.054-2.678,0.912c-0.426,0.865-0.166,1.894,0.569,2.463l-0.691,1.981C13.686,6.323,12.868,6.086,12,6.019
			V3.923c0.86-0.224,1.5-1,1.5-1.929c0-1.102-0.898-2-2-2c-1.103,0-2,0.898-2,2c0,0.929,0.64,1.705,1.5,1.929v2.097
			c-0.858,0.066-1.669,0.299-2.402,0.667L7.916,4.686C8.623,4.11,8.87,3.105,8.451,2.254c-0.475-0.966-1.705-1.39-2.679-0.911
			c-0.479,0.236-0.837,0.645-1.01,1.149c-0.172,0.506-0.136,1.049,0.1,1.527c0.339,0.69,1.027,1.117,1.795,1.118
			c0.117,0,0.231-0.02,0.344-0.04l0.721,2.117C6.077,8.396,5,10.319,5,12.494v9.093c0,1.327,1.08,2.407,2.407,2.407
			c1.134,0,2.125-0.806,2.356-1.916l0.426-2.046c0.126-0.601,0.663-1.038,1.277-1.038c0.624,0,1.163,0.445,1.281,1.059l0.373,1.943
			c0.222,1.158,1.239,1.998,2.418,1.998c1.357,0,2.462-1.104,2.462-2.462v-9.038c0-2.165-1.068-4.081-2.7-5.263l0.743-2.128
			C16.142,5.118,16.24,5.138,16.342,5.138z M15.5,11.994c0,2.206-1.794,4-4,4c-2.206,0-4-1.794-4-4c0-2.206,1.794-4,4-4
			C13.706,7.994,15.5,9.788,15.5,11.994z"/>
		<circle cx="11.5" cy="11.994" r="1.5"/>
	</g>
</g>
<g id="invisible_shape">
	<rect fill="none" width="24" height="24"/>
</g>
</svg>
