<?xml version="1.0" encoding="utf-8"?>
<!-- Generator: Adobe Illustrator 19.2.0, SVG Export Plug-In . SVG Version: 6.00 Build 0)  -->
<svg version="1.1" xmlns="http://www.w3.org/2000/svg" xmlns:xlink="http://www.w3.org/1999/xlink" x="0px" y="0px" width="24px"
	 height="24px" viewBox="0 0 24 24" enable-background="new 0 0 24 24" xml:space="preserve">
<g id="Filled_Icons">
	<g>
		<path d="M11,17.994c0-1.87,0.727-3.628,2.05-4.949c1.322-1.322,3.081-2.051,4.95-2.051c0.44,0,0.874,0.044,1.298,0.123
			l-7.252-10.38c-0.121-0.175-0.34-0.256-0.544-0.195c-0.204,0.057-0.35,0.236-0.365,0.447l-0.365,5.38l-7.402-3.01
			C3.176,3.278,2.951,3.331,2.81,3.486c-0.142,0.155-0.17,0.382-0.073,0.568l3.532,6.741l-5.272,0.336
			c-0.212,0.014-0.393,0.159-0.45,0.364C0.49,11.7,0.568,11.919,0.743,12.041l10.38,7.252C11.044,18.869,11,18.435,11,17.994z
			 M12.089,6.924c0.234-0.147,0.542-0.075,0.688,0.159l1.663,2.662c0.146,0.234,0.074,0.542-0.16,0.689
			c-0.083,0.052-0.174,0.076-0.264,0.076c-0.167,0-0.33-0.083-0.425-0.235l-1.663-2.662C11.783,7.378,11.854,7.07,12.089,6.924z
			 M9,8.994c0.195-0.195,0.512-0.195,0.707,0l2.6,2.6c0.195,0.195,0.195,0.512,0,0.707c-0.097,0.098-0.225,0.146-0.353,0.146
			c-0.128,0-0.255-0.049-0.354-0.146L9,9.701C8.805,9.506,8.805,9.189,9,8.994z M10.379,14.209
			c-0.094,0.153-0.258,0.238-0.426,0.238c-0.089,0-0.18-0.023-0.262-0.074l-2.601-1.6c-0.234-0.145-0.308-0.452-0.163-0.688
			c0.144-0.234,0.45-0.312,0.688-0.164l2.601,1.6C10.45,13.666,10.524,13.974,10.379,14.209z"/>
		<path d="M23.99,18.063l-0.233,0.154c-0.562,0.371-1.212,0.567-1.882,0.567c-1.884,0-3.417-1.532-3.417-3.416
			c0-1.118,0.551-2.167,1.473-2.807l0.23-0.159l0.003-0.003c-0.682-0.264-1.412-0.406-2.164-0.406c-1.603,0-3.109,0.624-4.243,1.758
			C12.624,14.885,12,16.392,12,17.994c0,1.603,0.624,3.109,1.757,4.243c0.294,0.293,0.613,0.551,0.952,0.774l0.004-0.01l-0.06-0.166
			c-0.104-0.289-0.153-0.564-0.153-0.842c0-1.379,1.122-2.5,2.5-2.5c1.378,0,2.5,1.121,2.5,2.5c0,0.7-0.288,1.352-0.81,1.834
			l-0.131,0.121l-0.002,0.018c1.392-0.127,2.685-0.729,3.685-1.729c1.117-1.117,1.736-2.598,1.754-4.175L23.99,18.063z"/>
	</g>
</g>
<g id="invisible_shape">
	<rect fill="none" width="24" height="24"/>
</g>
</svg>
