<?xml version="1.0" encoding="utf-8"?>
<!-- Generator: Adobe Illustrator 19.2.0, SVG Export Plug-In . SVG Version: 6.00 Build 0)  -->
<svg version="1.1" xmlns="http://www.w3.org/2000/svg" xmlns:xlink="http://www.w3.org/1999/xlink" x="0px" y="0px" width="24px"
	 height="24px" viewBox="0 0 24 24" enable-background="new 0 0 24 24" xml:space="preserve">
<g id="Filled_Icons">
	<g>
		<path d="M22.613,9.098c-0.085-0.31-0.182-0.613-0.292-0.91c-0.096-0.26,0.036-0.547,0.295-0.643
			c0.26-0.099,0.547,0.035,0.643,0.295c0.12,0.324,0.227,0.655,0.319,0.992c0.073,0.267-0.084,0.541-0.35,0.615
			C22.948,9.521,22.685,9.354,22.613,9.098z"/>
		<path d="M11.099,23.967c-0.694-0.052-1.387-0.164-2.058-0.334c-0.268-0.068-0.43-0.34-0.361-0.607
			c0.066-0.268,0.336-0.431,0.607-0.362c0.614,0.156,1.249,0.259,1.886,0.307c0.275,0.021,0.482,0.261,0.462,0.536
			C11.614,23.777,11.376,23.988,11.099,23.967z M12.634,23.494c-0.026-0.275,0.175-0.52,0.449-0.547
			c0.635-0.062,1.267-0.18,1.878-0.35c0.267-0.078,0.542,0.081,0.616,0.347c0.074,0.267-0.081,0.542-0.347,0.616
			c-0.668,0.186-1.358,0.315-2.05,0.383C12.868,23.961,12.659,23.746,12.634,23.494z M7.073,22.945
			c-0.633-0.285-1.245-0.629-1.819-1.02c-0.228-0.155-0.287-0.466-0.132-0.694c0.156-0.228,0.469-0.285,0.694-0.132
			c0.527,0.358,1.088,0.673,1.667,0.935c0.252,0.113,0.364,0.409,0.251,0.661C7.619,22.948,7.323,23.056,7.073,22.945z
			 M16.515,22.592c-0.119-0.249-0.014-0.548,0.235-0.667c0.573-0.275,1.126-0.603,1.644-0.973c0.222-0.159,0.535-0.11,0.697,0.116
			c0.161,0.225,0.109,0.537-0.115,0.697c-0.564,0.404-1.168,0.761-1.794,1.061C16.938,22.943,16.635,22.844,16.515,22.592z
			 M3.638,20.607c-0.498-0.484-0.956-1.014-1.363-1.575c-0.162-0.224-0.111-0.536,0.112-0.698c0.22-0.162,0.534-0.113,0.698,0.111
			c0.373,0.516,0.793,1.002,1.25,1.445c0.198,0.192,0.202,0.509,0.01,0.707C4.157,20.791,3.84,20.804,3.638,20.607z M19.853,20.417
			c-0.197-0.194-0.199-0.511-0.006-0.707c0.446-0.454,0.855-0.949,1.216-1.474c0.158-0.229,0.472-0.285,0.695-0.128
			c0.228,0.156,0.285,0.468,0.129,0.695c-0.394,0.571-0.841,1.112-1.327,1.607C20.368,20.606,20.052,20.612,19.853,20.417z
			 M1.204,17.244C0.9,16.621,0.65,15.965,0.46,15.297c-0.076-0.266,0.078-0.542,0.344-0.617c0.262-0.076,0.542,0.078,0.617,0.344
			c0.175,0.611,0.404,1.212,0.682,1.783c0.121,0.248,0.018,0.548-0.23,0.668C1.634,17.594,1.327,17.499,1.204,17.244z
			 M22.255,17.237c-0.251-0.114-0.361-0.411-0.247-0.663c0.265-0.578,0.481-1.184,0.64-1.8c0.069-0.267,0.339-0.432,0.609-0.358
			c0.268,0.069,0.429,0.342,0.359,0.609c-0.175,0.673-0.41,1.334-0.698,1.965C22.806,17.232,22.52,17.356,22.255,17.237z
			 M0.562,13.699c-0.253,0-0.47-0.191-0.496-0.449c-0.072-0.689-0.085-1.411-0.037-2.084c0.02-0.275,0.28-0.483,0.534-0.463
			c0.275,0.02,0.483,0.258,0.464,0.533c-0.045,0.648-0.03,1.298,0.033,1.91c0.029,0.275-0.171,0.522-0.445,0.55
			C0.597,13.697,0.579,13.699,0.562,13.699z M23.423,13.429c-0.275-0.023-0.48-0.263-0.458-0.538
			c0.049-0.614,0.048-1.269-0.012-1.912c-0.025-0.275,0.178-0.519,0.452-0.544c0.268-0.027,0.518,0.177,0.544,0.452
			c0.065,0.721,0.065,1.402,0.012,2.083C23.94,13.244,23.7,13.449,23.423,13.429z M0.716,9.714C0.447,9.648,0.284,9.376,0.351,9.108
			c0.167-0.673,0.395-1.337,0.676-1.973c0.11-0.253,0.407-0.366,0.659-0.255C1.939,6.992,2.053,7.287,1.94,7.54
			C1.683,8.124,1.474,8.732,1.321,9.349C1.256,9.612,0.99,9.78,0.716,9.714z M2.172,6.005C1.943,5.851,1.882,5.54,2.036,5.311
			c0.387-0.574,0.826-1.12,1.309-1.622c0.191-0.199,0.507-0.206,0.706-0.015c0.2,0.191,0.206,0.508,0.015,0.707
			C3.624,4.842,3.221,5.342,2.866,5.869C2.712,6.097,2.402,6.159,2.172,6.005z M4.805,3.015C4.642,2.792,4.689,2.478,4.912,2.315
			c0.56-0.41,1.158-0.774,1.78-1.081c0.246-0.122,0.548-0.023,0.67,0.226c0.122,0.247,0.021,0.547-0.227,0.67
			c-0.57,0.281-1.119,0.615-1.632,0.991C5.282,3.285,4.967,3.236,4.805,3.015z M8.296,1.098C8.219,0.832,8.371,0.555,8.637,0.479
			c0.665-0.194,1.353-0.331,2.044-0.406c0.261-0.033,0.521,0.167,0.552,0.441c0.03,0.275-0.168,0.521-0.442,0.553
			c-0.634,0.068-1.265,0.194-1.874,0.371C8.648,1.516,8.373,1.361,8.296,1.098z M14.591,1.307c-0.618-0.148-1.254-0.244-1.89-0.285
			c-0.275-0.018-0.485-0.254-0.468-0.529c0.017-0.276,0.256-0.486,0.53-0.469c0.693,0.044,1.388,0.149,2.062,0.312
			c0.269,0.064,0.434,0.335,0.369,0.602C15.128,1.213,14.849,1.371,14.591,1.307z"/>
		<path d="M17.292,2.353c-0.278-0.152-0.563-0.294-0.857-0.423c-0.252-0.111-0.367-0.407-0.255-0.659
			c0.111-0.254,0.403-0.367,0.659-0.256c0.318,0.141,0.631,0.295,0.935,0.463c0.242,0.133,0.33,0.436,0.197,0.679
			C17.836,2.401,17.528,2.487,17.292,2.353z"/>
		<circle cx="20.5" cy="4.5" r="2.5"/>
		<path d="M12,4c-4.418,0-8,3.582-8,8s3.582,8,8,8s8-3.582,8-8S16.418,4,12,4z M15.09,8c2.5,1.5-0.408,3.565-0.408,3.818
			c0,0.318,0.886,1.704,0.408,2.182c-1.693,1.693-0.635,3-3,3c-0.318,0-1.5-0.682-1.5-1c0-1.63,2.014-5-1.5-5
			C8.136,11,8,9.773,8,9.773c0-2.817,3.182-3.228,3.182-2.228C11.818,8.182,13.09,6.5,13.09,6.5l-0.739-1.478
			c1.798,0.09,3.456,0.852,4.682,2.129C16.277,7.398,14.89,7.879,15.09,8z"/>
	</g>
</g>
<g id="invisible_shape">
	<rect fill="none" width="24" height="24"/>
</g>
</svg>
