<?xml version="1.0" encoding="utf-8"?>
<!-- Generator: Adobe Illustrator 19.2.0, SVG Export Plug-In . SVG Version: 6.00 Build 0)  -->
<svg version="1.1" xmlns="http://www.w3.org/2000/svg" xmlns:xlink="http://www.w3.org/1999/xlink" x="0px" y="0px" width="24px"
	 height="24px" viewBox="0 0 24 24" enable-background="new 0 0 24 24" xml:space="preserve">
<g id="Filled_Icons">
	<g>
		<path d="M11.5,5.5c-3.859,0-7,3.14-7,7c0,3.859,3.141,7,7,7s7-3.141,7-7C18.5,8.64,15.359,5.5,11.5,5.5z M11.5,18.5
			c-0.948,0-1.843-0.228-2.641-0.621C9.227,17.957,9.608,18,10,18c3.032,0,5.5-2.468,5.5-5.5C15.5,9.467,13.032,7,10,7
			C9.608,7,9.227,7.042,8.859,7.12C9.657,6.727,10.552,6.5,11.5,6.5c3.309,0,6,2.691,6,6S14.809,18.5,11.5,18.5z"/>
		<g>
			<path d="M11.5,4.5C11.224,4.5,11,4.275,11,4V2.5C11,2.223,11.224,2,11.5,2S12,2.223,12,2.5V4C12,4.275,11.776,4.5,11.5,4.5z"/>
		</g>
		<g>
			<path d="M17.156,6.843c-0.195-0.195-0.195-0.512,0-0.707l1.062-1.062c0.195-0.195,0.512-0.195,0.707,0
				c0.195,0.195,0.195,0.512,0,0.707l-1.062,1.062C17.669,7.037,17.352,7.038,17.156,6.843z"/>
		</g>
		<g>
			<path d="M21.5,13H20c-0.276,0-0.5-0.225-0.5-0.5c0-0.277,0.224-0.5,0.5-0.5h1.5c0.276,0,0.5,0.223,0.5,0.5
				C22,12.775,21.776,13,21.5,13z"/>
		</g>
		<g>
			<path d="M18.218,19.924l-1.062-1.06c-0.195-0.195-0.195-0.512,0-0.707c0.195-0.195,0.512-0.195,0.707,0l1.062,1.061
				c0.195,0.195,0.195,0.512,0,0.707C18.729,20.119,18.413,20.119,18.218,19.924z"/>
		</g>
		<g>
			<path d="M11.5,23c-0.276,0-0.5-0.225-0.5-0.5V21c0-0.277,0.224-0.5,0.5-0.5S12,20.723,12,21v1.5C12,22.775,11.776,23,11.5,23z"/>
		</g>
		<g>
			<path d="M4.075,19.924c-0.195-0.195-0.195-0.512,0-0.707l1.062-1.061c0.195-0.195,0.512-0.195,0.707,0
				c0.195,0.195,0.195,0.512,0,0.707l-1.062,1.06C4.587,20.119,4.271,20.119,4.075,19.924z"/>
		</g>
		<g>
			<path d="M3,13H1.5C1.224,13,1,12.775,1,12.5C1,12.223,1.224,12,1.5,12H3c0.276,0,0.5,0.223,0.5,0.5C3.5,12.775,3.276,13,3,13z"/>
		</g>
		<g>
			<path d="M5.137,6.843L4.075,5.781c-0.195-0.195-0.195-0.512,0-0.707c0.195-0.195,0.512-0.195,0.707,0l1.062,1.062
				c0.195,0.195,0.195,0.512,0,0.707C5.649,7.038,5.332,7.038,5.137,6.843z"/>
		</g>
	</g>
</g>
<g id="invisible_shape">
	<rect fill="none" width="24" height="24"/>
</g>
</svg>
