<?xml version="1.0" encoding="utf-8"?>
<!-- Generator: Adobe Illustrator 19.2.0, SVG Export Plug-In . SVG Version: 6.00 Build 0)  -->
<svg version="1.1" xmlns="http://www.w3.org/2000/svg" xmlns:xlink="http://www.w3.org/1999/xlink" x="0px" y="0px" width="24px"
	 height="24px" viewBox="0 0 24 24" enable-background="new 0 0 24 24" xml:space="preserve">
<g id="Filled_Icons">
	<path d="M23.925,23.206l-3.594-9.801c-1.017-2.773-0.011-5.853,2.446-7.489c0.275-0.185,0.299-0.581,0.048-0.796
		c-1.131-0.97-2.575-1.504-4.065-1.504c-1.579,0-2.797,0.532-3.926,1.384H13c-1.102,0-2,0.897-2,2v2h-1V5c0-0.277-0.224-0.5-0.5-0.5
		S9,4.723,9,5v4H8V6c0-0.277-0.224-0.5-0.5-0.5S7,5.723,7,6v3H6V7c0-0.277-0.224-0.5-0.5-0.5S5,6.723,5,7v2H3.929
		C3.705,8.139,2.929,7.5,2,7.5c-1.102,0-2,0.896-2,2c0,1.102,0.897,2,2,2c0.929,0,1.705-0.641,1.929-1.5H5v2
		c0,0.275,0.224,0.5,0.5,0.5S6,12.275,6,12v-2h1v3c0,0.275,0.224,0.5,0.5,0.5S8,13.275,8,13v-3h1v4c0,0.275,0.224,0.5,0.5,0.5
		S10,14.275,10,14v-4h1v4.5l0.025,0.158l1,3C12.094,17.861,12.285,18,12.5,18h3.266l1.111,5H14.5c-0.276,0-0.5,0.223-0.5,0.5
		c0,0.275,0.224,0.5,0.5,0.5h9c0.007,0,0.015,0,0.02,0C23.927,24,24.094,23.531,23.925,23.206z M12.86,17l-0.667-2h2.905l0.444,2
		H12.86z M18,10.5c0,0.275-0.224,0.5-0.5,0.5h-4c-0.276,0-0.5-0.225-0.5-0.5v-2C13,8.223,13.224,8,13.5,8h4
		C17.776,8,18,8.223,18,8.5V10.5z"/>
</g>
<g id="invisible_shape">
	<rect fill="none" width="24" height="24"/>
</g>
</svg>
