<?xml version="1.0" encoding="utf-8"?>
<!-- Generator: Adobe Illustrator 19.2.0, SVG Export Plug-In . SVG Version: 6.00 Build 0)  -->
<svg version="1.1" xmlns="http://www.w3.org/2000/svg" xmlns:xlink="http://www.w3.org/1999/xlink" x="0px" y="0px" width="24px"
	 height="24px" viewBox="0 0 24 24" enable-background="new 0 0 24 24" xml:space="preserve">
<g id="Filled_Icons">
	<g>
		<path d="M4,8.19c-1.938,0.484-3,1.961-3,4.31V20h3V8.19z"/>
		<path d="M20,8.168V20h3v-7.5C23,10.03,22.003,8.613,20,8.168z"/>
		<g>
			<path d="M5,20h14V8H5V20z M13,17.5c0,0.276-0.224,0.5-0.5,0.5h-3C9.224,18,9,17.776,9,17.5v-4C9,13.224,9.224,13,9.5,13h3
				c0.276,0,0.5,0.224,0.5,0.5V17.5z M16,18h-1v-4h1V18z M7,9h10v1H7V9z M7,11h10v1H7V11z"/>
			<path d="M12,0C8.14,0,5,3.141,5,7h14C19,3.141,15.86,0,12,0z M12,6c-1.102,0-2-0.898-2-2s0.898-2,2-2s2,0.898,2,2S13.102,6,12,6z
				 M15.5,6C15.224,6,15,5.775,15,5.5S15.224,5,15.5,5S16,5.225,16,5.5S15.776,6,15.5,6z"/>
		</g>
		<path d="M23.193,21h-3.387l-0.78,2.342C18.916,23.667,19.162,24,19.5,24h4c0.343,0,0.583-0.338,0.474-0.658L23.193,21z"/>
		<path d="M13.693,21h-3.387l-0.78,2.342C9.416,23.667,9.662,24,10,24h4c0.343,0,0.583-0.338,0.474-0.658L13.693,21z"/>
		<path d="M4.193,21H0.807l-0.78,2.342C-0.084,23.667,0.162,24,0.5,24h4c0.343,0,0.582-0.338,0.474-0.658L4.193,21z"/>
	</g>
</g>
<g id="invisible_shape">
	<rect fill="none" width="24" height="24"/>
</g>
</svg>
