<?xml version="1.0" encoding="utf-8"?>
<!-- Generator: Adobe Illustrator 19.2.0, SVG Export Plug-In . SVG Version: 6.00 Build 0)  -->
<svg version="1.1" xmlns="http://www.w3.org/2000/svg" xmlns:xlink="http://www.w3.org/1999/xlink" x="0px" y="0px" width="24px"
	 height="24px" viewBox="0 0 24 24" enable-background="new 0 0 24 24" xml:space="preserve">
<g id="Filled_Icons">
	<g>
		<path d="M16.989,10.545c-0.158,0.16-0.646,0.648-3.076,1.429c-0.299,0.096-0.559,0.087-0.821,0.023
			c0.547,0.588,0.541,1.506-0.033,2.077c-1.279,1.274-4.183,4.026-7.049,5.85C7.186,20.604,8.546,21,10,21c4.411,0,8-3.59,8-8
			c0-1.07-0.215-2.09-0.598-3.023C17.29,10.182,17.158,10.376,16.989,10.545z"/>
		<path d="M13.607,11.021c0.516-0.165,2.234-0.74,2.675-1.183h0c0.585-0.585,0.584-1.536,0-2.121c-0.283-0.283-0.659-0.44-1.06-0.44
			h-0.001c-0.401,0-0.778,0.156-1.061,0.44c-0.442,0.441-1.017,2.159-1.183,2.675C12.853,10.782,13.226,11.146,13.607,11.021z
			 M14.868,8.424c0.196-0.195,0.513-0.195,0.707,0c0.195,0.195,0.195,0.512,0,0.707c-0.128,0.124-0.677,0.365-1.309,0.601
			C14.503,9.102,14.745,8.552,14.868,8.424z"/>
		<path d="M12.354,12.657c-0.195-0.197-0.512-0.196-0.707-0.002c-5.735,5.708-9.873,7.554-10.481,6.946
			c-0.268-0.268-0.073-1.479,1.372-3.746c0.275,0.711,0.644,1.377,1.1,1.976c1.723-0.997,4.293-2.889,7.303-5.884
			c0.391-0.389,0.938-0.494,1.436-0.363c-0.383-0.396-0.521-0.971-0.351-1.498c0.78-2.43,1.269-2.916,1.429-3.076
			c0.299-0.299,0.672-0.492,1.068-0.602C13.235,5.522,11.678,5,10,5c-4.411,0-8,3.588-8,8c0,0.55,0.063,1.085,0.17,1.602
			c-1.997,2.913-2.579,4.837-1.71,5.706c2.093,2.093,9.737-4.799,11.892-6.944C12.548,13.169,12.549,12.852,12.354,12.657z"/>
		<path d="M23.354,0.646c-0.145-0.145-0.363-0.188-0.551-0.106l-2.475,1.061c-0.059,0.024-0.111,0.061-0.156,0.106l-1.549,1.549
			l-1.828-0.609c-0.18-0.061-0.377-0.014-0.512,0.121l-1.769,1.768c-0.195,0.195-0.195,0.512,0,0.707l0.519,0.518l1.613-1.613
			c0.195-0.195,0.512-0.195,0.707,0c0.195,0.195,0.195,0.512,0,0.707L15.74,6.467l1.793,1.793l1.613-1.613
			c0.195-0.195,0.512-0.195,0.707,0c0.195,0.195,0.195,0.512,0,0.707L18.24,8.967l0.518,0.518c0.196,0.195,0.512,0.195,0.707,0
			l1.768-1.768c0.134-0.134,0.181-0.332,0.121-0.512l-0.609-1.828l1.549-1.549c0.045-0.045,0.081-0.098,0.106-0.156l1.061-2.476
			C23.54,1.008,23.498,0.791,23.354,0.646z"/>
	</g>
</g>
<g id="invisible_shape">
	<rect fill="none" width="24" height="24"/>
</g>
</svg>
