<?xml version="1.0" encoding="utf-8"?>
<!-- Generator: Adobe Illustrator 19.2.0, SVG Export Plug-In . SVG Version: 6.00 Build 0)  -->
<svg version="1.1" xmlns="http://www.w3.org/2000/svg" xmlns:xlink="http://www.w3.org/1999/xlink" x="0px" y="0px" width="24px"
	 height="24px" viewBox="0 0 24 24" enable-background="new 0 0 24 24" xml:space="preserve">
<g id="Filled_Icons">
	<g>
		<path d="M23.772,0.142c-0.114-0.115-0.277-0.168-0.436-0.141c-0.45,0.076-4.434,0.766-5.575,1.908
			c-0.528,0.527-6.769,6.785-9.893,9.918l4.236,4.223l9.9-9.898c1.142-1.141,1.832-5.125,1.907-5.574
			C23.939,0.417,23.887,0.255,23.772,0.142z"/>
		<path d="M11.398,16.757l-4.235-4.223c-0.651,0.654-1.054,1.057-1.054,1.057c-0.194,0.195-0.194,0.512,0.002,0.707l3.52,3.519
			c0.093,0.094,0.221,0.146,0.353,0.146c0.133,0,0.26-0.053,0.353-0.146L11.398,16.757z"/>
		<path d="M16.147,14.269c0-0.203-0.122-0.385-0.308-0.463c-0.188-0.078-0.403-0.035-0.546,0.109l-4.648,4.647
			c-0.08,0.078-0.131,0.184-0.144,0.297l-0.5,4.375c-0.024,0.211,0.088,0.414,0.279,0.508c0.07,0.033,0.144,0.049,0.218,0.049
			c0.13,0,0.258-0.051,0.354-0.146l3.535-3.535c0.475-0.475,1.266-1.508,1.535-2.316c0.312-0.934,0.267-2.188,0.237-3.018
			C16.153,14.579,16.147,14.405,16.147,14.269z"/>
		<path d="M5.57,13.075l4.542-4.555c0.137-0.092,0.231-0.24,0.231-0.408c0-0.021-0.006-0.502-0.565-0.502
			c-0.44,0-2.689,0.017-3.688,0.35C5.295,8.227,4.287,9.042,3.804,9.526l-3.535,3.535c-0.152,0.152-0.189,0.385-0.092,0.578
			c0.085,0.17,0.259,0.275,0.446,0.275c0.024,0,0.05-0.002,0.075-0.006l4.593-0.691C5.397,13.2,5.494,13.151,5.57,13.075z"/>
		<path d="M6.802,15.696c-0.828-0.828-2.148-0.68-3.182,0.354c-1.045,1.045-2.134,5.412-2.254,5.906
			c-0.042,0.17,0.009,0.35,0.133,0.473c0.095,0.096,0.222,0.146,0.353,0.146c0.039,0,0.081-0.004,0.12-0.014
			c0.493-0.123,4.846-1.225,5.892-2.268c1.056-1.059,1.198-2.338,0.352-3.184L6.802,15.696z"/>
	</g>
</g>
<g id="invisible_shape">
	<rect fill="none" width="24" height="24"/>
</g>
</svg>
