<?xml version="1.0" encoding="utf-8"?>
<!-- Generator: Adobe Illustrator 19.2.0, SVG Export Plug-In . SVG Version: 6.00 Build 0)  -->
<svg version="1.1" xmlns="http://www.w3.org/2000/svg" xmlns:xlink="http://www.w3.org/1999/xlink" x="0px" y="0px" width="24px"
	 height="24px" viewBox="0 0 24 24" enable-background="new 0 0 24 24" xml:space="preserve">
<g id="Filled_Icons">
	<g>
		<path d="M21.164,5.897c0.318-1.06,0.336-2.165,0.336-2.346c0-0.275-0.224-0.498-0.499-0.499c-0.003,0-0.006,0-0.01,0
			c-0.207,0-1.295,0.02-2.338,0.335L21.164,5.897z"/>
		<path d="M23.301,9.447L15.104,1.25c-0.188-0.188-0.52-0.188-0.707,0c-2.455,2.455-2.455,6.45,0,8.904
			c2.46,2.46,6.438,2.467,8.904,0C23.496,9.959,23.496,9.643,23.301,9.447z"/>
		<g>
			<path d="M2.559,19C3.19,18.383,4.05,18,5,18s1.811,0.383,2.441,1H10V9.5C10,9.223,9.776,9,9.5,9H5
				C4.818,9,4.651,9.098,4.563,9.257l-2.466,4.439l-1.95,1.951C0.053,15.74,0,15.867,0,16v3H2.559z M4.053,14.275l1.5-3
				C5.638,11.106,5.811,11,6,11h1.5C7.776,11,8,11.223,8,11.5C8,11.775,7.776,12,7.5,12H6.309l-1.361,2.723
				c-0.119,0.238-0.41,0.351-0.671,0.225C4.029,14.823,3.93,14.523,4.053,14.275z"/>
			<path d="M11,19h5.559c0.631-0.617,1.491-1,2.441-1s1.81,0.383,2.441,1H24v-2.5c0-0.277-0.224-0.5-0.5-0.5H11V19z"/>
			<path d="M8.449,22h7.102c-0.098-0.663-0.048-1.273,0.301-2H8.148C8.497,20.727,8.547,21.337,8.449,22z"/>
			<path d="M22.148,20c0.349,0.727,0.399,1.337,0.301,2H23.5c0.276,0,0.5-0.225,0.5-0.5V20H22.148z"/>
			<path d="M1.852,20H0v1.5C0,21.775,0.224,22,0.5,22h1.051C1.453,21.337,1.503,20.727,1.852,20z"/>
		</g>
		<g>
			<g>
				<circle cx="5" cy="21.5" r="2.5"/>
			</g>
			<g>
				<circle cx="19" cy="21.5" r="2.5"/>
			</g>
		</g>
		<g>
			<path d="M17.521,12.875c-1.4-0.256-2.69-0.917-3.734-1.924L13.209,15h4.896L17.521,12.875z"/>
		</g>
	</g>
</g>
<g id="invisible_shape">
	<rect fill="none" width="24" height="24"/>
</g>
</svg>
