<?xml version="1.0" encoding="utf-8"?>
<!-- Generator: Adobe Illustrator 19.2.0, SVG Export Plug-In . SVG Version: 6.00 Build 0)  -->
<svg version="1.1" xmlns="http://www.w3.org/2000/svg" xmlns:xlink="http://www.w3.org/1999/xlink" x="0px" y="0px" width="24px"
	 height="24px" viewBox="0 0 24 24" enable-background="new 0 0 24 24" xml:space="preserve">
<g id="Filled_Icons">
	<g>
		<path d="M23.654,7.981c-0.356-0.922-1.227-1.609-2.516-1.99l-0.283,0.959c0.684,0.201,1.563,0.607,1.867,1.393
			c0.785,2.026-2.683,5.867-9.096,8.353c-6.412,2.486-11.562,1.988-12.35-0.038c-0.785-2.026,2.683-5.866,9.096-8.352
			c2.116-0.821,4.266-1.366,6.216-1.576l-0.108-0.994c-2.036,0.219-4.272,0.785-6.47,1.637C3.477,9.906-0.77,14.143,0.346,17.019
			c0.602,1.554,2.63,2.347,5.398,2.347c2.353,0,5.242-0.573,8.245-1.738C20.523,15.094,24.77,10.856,23.654,7.981z"/>
		<path d="M7.506,17.022c1.671-0.02,3.716-0.468,5.759-1.26c2.047-0.794,3.862-1.844,5.109-2.958
			c1.371-1.223,1.922-2.423,1.551-3.379c-0.822-2.119-5.35-1.68-9.189-0.189C8.044,10.279,5.78,11.76,4.68,13.195l0.793,0.607
			c0.979-1.275,3.135-2.668,5.624-3.634c4-1.552,7.469-1.481,7.897-0.38c0.203,0.522-0.277,1.371-1.285,2.27
			c-1.16,1.036-2.866,2.019-4.805,2.771c-1.935,0.75-3.855,1.174-5.409,1.192L7.506,17.022z"/>
		<circle cx="11.5" cy="12.5" r="2"/>
		<circle cx="19" cy="6" r="1.5"/>
		<circle cx="5" cy="16" r="1.5"/>
	</g>
</g>
<g id="invisible_shape">
	<rect fill="none" width="24" height="24"/>
</g>
</svg>
