<?xml version="1.0" encoding="utf-8"?>
<!-- Generator: Adobe Illustrator 19.2.0, SVG Export Plug-In . SVG Version: 6.00 Build 0)  -->
<svg version="1.1" xmlns="http://www.w3.org/2000/svg" xmlns:xlink="http://www.w3.org/1999/xlink" x="0px" y="0px" width="24px"
	 height="24px" viewBox="0 0 24 24" enable-background="new 0 0 24 24" xml:space="preserve">
<g id="Filled_Icons">
	<g>
		<path d="M20.527,21h-4.053l-0.448,1.342C15.917,22.664,16.159,23,16.5,23h4c0.341,0,0.583-0.336,0.474-0.658L20.527,21z"/>
		<path d="M20,14.828V8c0-0.833-1.079-1.359-1.295-1.456c-0.13-0.058-0.279-0.058-0.409,0C18.079,6.641,17,7.167,17,8v5.196
			L20,14.828z"/>
		<g>
			<path d="M11,21.449c-0.861-0.125-1.615-0.56-2.154-1.194l-1.305,3.048C7.399,23.633,7.64,24,8,24h3V21.449z"/>
			<path d="M15.46,23.303l-1.305-3.048c-0.54,0.634-1.293,1.069-2.154,1.194V24h3C15.36,24,15.601,23.633,15.46,23.303z"/>
		</g>
		<path d="M20.241,16.097L15,13.246V18c0,0.744-0.237,1.431-0.634,1.998L22,20c0.276,0,0.5-0.225,0.5-0.5
			C22.5,17.652,21.364,16.746,20.241,16.097z"/>
		<path d="M2.473,21h4.053l0.448,1.342C7.082,22.664,6.841,23,6.5,23h-4c-0.341,0-0.582-0.336-0.474-0.658L2.473,21z"/>
		<path d="M3,14.828V8c0-0.833,1.079-1.359,1.295-1.456c0.13-0.058,0.279-0.058,0.409,0C4.921,6.641,6,7.167,6,8v5.196L3,14.828z"/>
		<path d="M2.759,16.097L8,13.246V18c0,0.744,0.237,1.431,0.634,1.998L1,20c-0.276,0-0.5-0.225-0.5-0.5
			C0.5,17.652,1.636,16.746,2.759,16.097z"/>
		<path d="M11.5,5C10.674,5,9,6.65,9,8v10c0,1.379,1.122,2.5,2.5,2.5S14,19.379,14,18V8C14,6.65,12.326,5,11.5,5z M12,11.5
			c0,0.276-0.224,0.5-0.5,0.5S11,11.776,11,11.5v-2C11,9.224,11.224,9,11.5,9S12,9.224,12,9.5V11.5z"/>
		<path d="M11.5,0C10.718,0,7,2.496,7,5v7.652l1-0.544V8c0-1.854,2.118-4,3.5-4S15,6.146,15,8v4.108l1,0.544V5
			C16,2.496,12.282,0,11.5,0z"/>
	</g>
</g>
<g id="invisible_shape">
	<rect fill="none" width="24" height="24"/>
</g>
</svg>
