<?xml version="1.0" encoding="utf-8"?>
<!-- Generator: Adobe Illustrator 19.2.0, SVG Export Plug-In . SVG Version: 6.00 Build 0)  -->
<svg version="1.1" xmlns="http://www.w3.org/2000/svg" xmlns:xlink="http://www.w3.org/1999/xlink" x="0px" y="0px" width="24px"
	 height="24px" viewBox="0 0 24 24" enable-background="new 0 0 24 24" xml:space="preserve">
<g id="Filled_Icons">
	<g>
		<path d="M5,6.039C4.838,6.006,4.671,5.988,4.5,5.988c-1.378,0-2.5,1.121-2.5,2.5v10.797l3-2.499V6.039z"/>
		<path d="M22,8.488c0-1.379-1.122-2.5-2.5-2.5c-0.171,0-0.339,0.018-0.5,0.051v10.747l3,2.499V8.488z"/>
		<path d="M8,7.988c0-2.206,1.794-4,4-4c2.206,0,4,1.794,4,4v6.298l2,1.667V5.988c0-3.309-2.691-6-6-6s-6,2.691-6,6v9.965l2-1.667
			V7.988z"/>
		<path d="M12.99,18.391c-0.047-0.234-0.252-0.402-0.49-0.402h-1c-0.238,0-0.443,0.168-0.49,0.402l-1,5
			c-0.029,0.146,0.009,0.299,0.104,0.415c0.095,0.115,0.236,0.183,0.387,0.183h3c0.007-0.001,0.014-0.001,0.019,0
			c0.276,0,0.5-0.224,0.5-0.5c0-0.083-0.021-0.161-0.056-0.231L12.99,18.391z"/>
		<path d="M23.82,22.104L15,14.754V7.988c0-1.654-1.346-3-3-3s-3,1.346-3,3v6.766l-8.82,7.351c-0.162,0.135-0.222,0.356-0.15,0.554
			c0.072,0.198,0.26,0.33,0.471,0.33h8.57l0.959-4.794c0.14-0.701,0.756-1.206,1.471-1.206h1c0.715,0,1.331,0.505,1.471,1.206
			l0.953,4.764c0.003,0.01,0.002,0.021,0.005,0.03H23.5c0.21,0,0.398-0.132,0.47-0.33C24.042,22.461,23.981,22.239,23.82,22.104z
			 M13.387,9.806C13.291,9.921,13.149,9.988,13,9.988h-2c-0.15,0-0.292-0.067-0.387-0.183c-0.095-0.116-0.133-0.269-0.104-0.415
			l0.5-2c0.047-0.234,0.252-0.402,0.49-0.402h1c0.238,0,0.443,0.168,0.49,0.402l0.5,2C13.519,9.537,13.481,9.689,13.387,9.806z"/>
	</g>
</g>
<g id="invisible_shape">
	<rect fill="none" width="24" height="24"/>
</g>
</svg>
