<?xml version="1.0" encoding="utf-8"?>
<!-- Generator: Adobe Illustrator 19.2.0, SVG Export Plug-In . SVG Version: 6.00 Build 0)  -->
<svg version="1.1" xmlns="http://www.w3.org/2000/svg" xmlns:xlink="http://www.w3.org/1999/xlink" x="0px" y="0px" width="24px"
	 height="24px" viewBox="0 0 24 24" enable-background="new 0 0 24 24" xml:space="preserve">
<g id="Filled_Icons">
	<path d="M20.598,13.54l-3.007-7.893l4.864-4.272c0.207-0.182,0.228-0.498,0.046-0.705c-0.182-0.207-0.499-0.229-0.706-0.046
		L16.812,5H9.449C9.217,3.859,8.208,3,7,3C5.621,3,4.5,4.121,4.5,5.5c0,0.91,0.494,1.699,1.223,2.137l-1.889,5.397
		C2.242,12.822,1,14.063,1,15.5C1,16.878,2.121,18,3.5,18c0.545,0,1.045-0.18,1.456-0.477l2.912,2.688
		C7.64,20.59,7.5,21.027,7.5,21.5c0,1.378,1.121,2.5,2.5,2.5s2.5-1.122,2.5-2.5c0-1.083-0.695-1.998-1.66-2.345l0.811-5.671
		c0.715-0.043,1.345-0.386,1.773-0.907l5.186,2.729C18.125,16.966,19.393,18.5,21,18.5c1.379,0,2.5-1.122,2.5-2.5
		C23.5,14.512,22.181,13.283,20.598,13.54z M13.891,11.693C14.373,10.028,13.106,8.5,11.5,8.5C10.121,8.5,9,9.621,9,11
		c0,1.082,0.695,1.997,1.66,2.344L9.85,19.015c-0.485,0.03-0.934,0.192-1.305,0.461l-2.913-2.688C5.86,16.41,6,15.973,6,15.5
		c0-0.91-0.494-1.701-1.223-2.138l1.889-5.397C8.07,8.152,9.203,7.205,9.449,6h7.206l3.008,7.894
		c-0.224,0.143-0.419,0.322-0.587,0.527L13.891,11.693z"/>
</g>
<g id="invisible_shape">
	<rect fill="none" width="24" height="24"/>
</g>
</svg>
