<?xml version="1.0" encoding="utf-8"?>
<!-- Generator: Adobe Illustrator 19.2.1, SVG Export Plug-In . SVG Version: 6.00 Build 0)  -->
<svg version="1.1" xmlns="http://www.w3.org/2000/svg" xmlns:xlink="http://www.w3.org/1999/xlink" x="0px" y="0px" width="24px"
	 height="24px" viewBox="0 0 24 24" enable-background="new 0 0 24 24" xml:space="preserve">
<g id="Filled_Icon">
	<g>
		<path d="M16.999,7.936c-0.364,0.656-0.908,1.2-1.565,1.564c0.657,0.365,1.201,0.908,1.565,1.564
			c0.364-0.656,0.908-1.199,1.565-1.564C17.907,9.136,17.363,8.592,16.999,7.936z"/>
		<path d="M12,0C5.383,0,0,5.383,0,12s5.383,12,12,12s12-5.383,12-12S18.617,0,12,0z M7.5,13c0,0.277-0.224,0.5-0.5,0.5
			S6.5,13.277,6.5,13c0-1.654-1.346-3-3-3C3.224,10,3,9.777,3,9.5C3,9.224,3.224,9,3.5,9c1.654,0,3-1.346,3-3
			c0-0.276,0.224-0.5,0.5-0.5S7.5,5.724,7.5,6c0,1.654,1.346,3,3,3C10.776,9,11,9.224,11,9.5c0,0.277-0.224,0.5-0.5,0.5
			C8.846,10,7.5,11.346,7.5,13z M18.354,17.354C18.256,17.451,18.128,17.5,18,17.5s-0.256-0.049-0.354-0.146l-0.403-0.402
			C15.679,18.838,13.342,20,11,20c-0.276,0-0.5-0.223-0.5-0.5c0-0.276,0.224-0.5,0.5-0.5c2.078,0,4.156-1.053,5.533-2.76
			l-0.887-0.887c-0.195-0.195-0.195-0.512,0-0.707s0.512-0.195,0.707,0l2,2C18.549,16.842,18.549,17.158,18.354,17.354z M20.499,10
			c-1.654,0-3,1.346-3,3c0,0.277-0.224,0.5-0.5,0.5c-0.276,0-0.5-0.223-0.5-0.5c0-1.654-1.346-3-3-3c-0.276,0-0.5-0.223-0.5-0.5
			c0-0.276,0.224-0.5,0.5-0.5c1.654,0,3-1.346,3-3c0-0.276,0.224-0.5,0.5-0.5c0.276,0,0.5,0.224,0.5,0.5c0,1.654,1.346,3,3,3
			c0.276,0,0.5,0.224,0.5,0.5C20.999,9.777,20.775,10,20.499,10z"/>
		<path d="M7,7.936C6.636,8.592,6.092,9.136,5.435,9.5C6.092,9.865,6.636,10.408,7,11.064C7.364,10.408,7.908,9.865,8.565,9.5
			C7.908,9.136,7.364,8.592,7,7.936z"/>
	</g>
</g>
<g id="Invisible_Shape">
	<rect fill="none" width="24" height="24"/>
</g>
</svg>
