<?xml version="1.0" encoding="utf-8"?>
<!-- Generator: Adobe Illustrator 19.2.1, SVG Export Plug-In . SVG Version: 6.00 Build 0)  -->
<svg version="1.1" xmlns="http://www.w3.org/2000/svg" xmlns:xlink="http://www.w3.org/1999/xlink" x="0px" y="0px" width="24px"
	 height="24px" viewBox="0 0 24 24" enable-background="new 0 0 24 24" xml:space="preserve">
<g id="Filled_Icon">
	<path d="M12,0C5.383,0,0,5.383,0,12s5.383,12,12,12s12-5.383,12-12S18.617,0,12,0z M15.033,5.504
		c1.393,0.182,2.718,0.728,3.832,1.584c0.219,0.168,0.26,0.482,0.092,0.701c-0.169,0.221-0.486,0.258-0.701,0.092
		c-0.974-0.748-2.133-1.227-3.352-1.385c-0.274-0.035-0.467-0.285-0.431-0.561C14.508,5.662,14.752,5.467,15.033,5.504z
		 M5.135,7.088c1.114-0.856,2.439-1.402,3.832-1.584c0.271-0.037,0.524,0.158,0.56,0.432c0.036,0.275-0.157,0.525-0.431,0.561
		C7.877,6.654,6.718,7.133,5.743,7.881C5.528,8.049,5.211,8.01,5.043,7.789C4.874,7.57,4.916,7.256,5.135,7.088z M4,9.5
		C4,9.224,4.224,9,4.5,9S5,9.224,5,9.5V11c0,0.277-0.224,0.5-0.5,0.5S4,11.277,4,11V9.5z M4,14.5V13c0-0.276,0.224-0.5,0.5-0.5
		S5,12.724,5,13v1.5C5,14.777,4.776,15,4.5,15S4,14.777,4,14.5z M18.737,19.152c-0.242,0.133-0.546,0.041-0.677-0.201
		c-1.166-2.16-3.442-3.451-6.089-3.451c-2.556,0-4.812,1.299-6.035,3.474c-0.136,0.241-0.441,0.327-0.681,0.191
		c-0.241-0.135-0.326-0.44-0.191-0.68C6.467,15.99,9.048,14.5,11.971,14.5c3.021,0,5.627,1.486,6.969,3.976
		C19.071,18.719,18.98,19.021,18.737,19.152z M20,14.5c0,0.277-0.224,0.5-0.5,0.5S19,14.777,19,14.5V13c0-0.276,0.224-0.5,0.5-0.5
		S20,12.724,20,13V14.5z M20,11c0,0.277-0.224,0.5-0.5,0.5S19,11.277,19,11V9.5C19,9.224,19.224,9,19.5,9S20,9.224,20,9.5V11z"/>
</g>
<g id="Invisible_Shape">
	<rect fill="none" width="24" height="24"/>
</g>
</svg>
