<?xml version="1.0" encoding="utf-8"?>
<!-- Generator: Adobe Illustrator 19.2.1, SVG Export Plug-In . SVG Version: 6.00 Build 0)  -->
<svg version="1.1" xmlns="http://www.w3.org/2000/svg" xmlns:xlink="http://www.w3.org/1999/xlink" x="0px" y="0px" width="24px"
	 height="24px" viewBox="0 0 24 24" enable-background="new 0 0 24 24" xml:space="preserve">
<g id="Filled_Icon">
	<g>
		<path d="M18.5,7h-4C14.224,7,14,7.225,14,7.5v2c0,0.277,0.224,0.5,0.5,0.5h4c0.276,0,0.5-0.223,0.5-0.5v-2
			C19,7.225,18.776,7,18.5,7z"/>
		<path d="M9.5,7h-4C5.224,7,5,7.225,5,7.5v2C5,9.777,5.224,10,5.5,10h4C9.776,10,10,9.777,10,9.5v-2C10,7.225,9.776,7,9.5,7z"/>
		<path d="M12,0C5.383,0,0,5.383,0,12s5.383,12,12,12s12-5.383,12-12S18.617,0,12,0z M12,21c-4.411,0-8-3.088-8-7.5
			C4,13.224,4.224,13,4.5,13h15c0.276,0,0.5,0.224,0.5,0.5C20,17.912,16.411,21,12,21z M20,9.5c0,0.828-0.673,1.5-1.5,1.5h-4
			c-0.827,0-1.5-0.672-1.5-1.5V9h-2v0.5c0,0.828-0.673,1.5-1.5,1.5h-4C4.673,11,4,10.328,4,9.5v-2C4,6.674,4.673,6,5.5,6h4
			C10.327,6,11,6.674,11,7.5V8h2V7.5C13,6.674,13.673,6,14.5,6h4C19.327,6,20,6.674,20,7.5V9.5z"/>
		<path d="M12,20c3.691,0,6.725-2.373,6.982-6H5.018C5.275,17.627,8.309,20,12,20z"/>
	</g>
</g>
<g id="Invisible_Shape">
	<rect fill="none" width="24" height="24"/>
</g>
</svg>
