<?xml version="1.0" encoding="utf-8"?>
<!-- Generator: Adobe Illustrator 19.2.1, SVG Export Plug-In . SVG Version: 6.00 Build 0)  -->
<svg version="1.1" xmlns="http://www.w3.org/2000/svg" xmlns:xlink="http://www.w3.org/1999/xlink" x="0px" y="0px" width="24px"
	 height="24px" viewBox="0 0 24 24" enable-background="new 0 0 24 24" xml:space="preserve">
<g id="Filled_Icon">
	<g>
		<path d="M22.898,7C21.001,2.873,16.841,0,12,0S2.999,2.873,1.102,7C8.989,7,15.011,7,22.898,7z"/>
		<path d="M17.747,13.003c2.282,0,4.073-1.944,4.664-5.003h-9.77C13.498,11.061,15.458,13.003,17.747,13.003z"/>
		<path d="M6.253,13.003c2.289,0,4.249-1.942,5.106-5.003h-9.77C2.181,11.059,3.971,13.003,6.253,13.003z"/>
		<path d="M23.382,8.219c-0.82,4.248-3.502,5.784-5.636,5.784c-2.491,0-4.632-1.825-5.747-4.767
			c-1.115,2.941-3.256,4.767-5.747,4.767h0c-2.133,0-4.815-1.536-5.635-5.784C-1.974,16.017,3.851,24,12,24
			C20.15,24,25.973,16.015,23.382,8.219z M17.505,17.658C16.005,19.75,13.573,21,11,21c-0.276,0-0.5-0.223-0.5-0.5
			c0-0.276,0.224-0.5,0.5-0.5c2.252,0,4.379-1.092,5.692-2.924c0.16-0.226,0.472-0.277,0.698-0.115
			C17.614,17.121,17.666,17.434,17.505,17.658z"/>
	</g>
</g>
<g id="Invisible_Shape">
	<rect fill="none" width="24" height="24"/>
</g>
</svg>
