<?xml version="1.0" encoding="utf-8"?>
<!-- Generator: Adobe Illustrator 19.2.1, SVG Export Plug-In . SVG Version: 6.00 Build 0)  -->
<svg version="1.1" xmlns="http://www.w3.org/2000/svg" xmlns:xlink="http://www.w3.org/1999/xlink" x="0px" y="0px" width="24px"
	 height="24px" viewBox="0 0 24 24" enable-background="new 0 0 24 24" xml:space="preserve">
<g id="Filled_Icon">
	<g>
		<circle cx="15.5" cy="8.5" r="1"/>
		<circle cx="8.5" cy="8.5" r="1"/>
		<path d="M12,0C5.383,0,0,5.383,0,12s5.383,12,12,12s12-5.383,12-12S18.617,0,12,0z M15.5,6.5c1.103,0,2,0.897,2,2
			c0,1.102-0.897,2-2,2s-2-0.898-2-2C13.5,7.397,14.397,6.5,15.5,6.5z M8.5,6.5c1.103,0,2,0.897,2,2c0,1.102-0.897,2-2,2
			s-2-0.898-2-2C6.5,7.397,7.397,6.5,8.5,6.5z M19.5,17H19v0.5c0,0.277-0.224,0.5-0.5,0.5S18,17.777,18,17.5V17h-1v0.5
			c0,0.277-0.224,0.5-0.5,0.5S16,17.777,16,17.5V17h-1v0.5c0,0.277-0.224,0.5-0.5,0.5S14,17.777,14,17.5V17h-1v0.5
			c0,0.277-0.224,0.5-0.5,0.5S12,17.777,12,17.5V17h-1v0.5c0,0.277-0.224,0.5-0.5,0.5S10,17.777,10,17.5V17H9v0.5
			C9,17.777,8.776,18,8.5,18S8,17.777,8,17.5V17H7v0.5C7,17.777,6.776,18,6.5,18S6,17.777,6,17.5V17H5.5C5.224,17,5,16.777,5,16.5
			C5,16.224,5.224,16,5.5,16H6v-0.5C6,15.224,6.224,15,6.5,15S7,15.224,7,15.5V16h1v-0.5C8,15.224,8.224,15,8.5,15S9,15.224,9,15.5
			V16h1v-0.5c0-0.276,0.224-0.5,0.5-0.5s0.5,0.224,0.5,0.5V16h1v-0.5c0-0.276,0.224-0.5,0.5-0.5s0.5,0.224,0.5,0.5V16h1v-0.5
			c0-0.276,0.224-0.5,0.5-0.5s0.5,0.224,0.5,0.5V16h1v-0.5c0-0.276,0.224-0.5,0.5-0.5s0.5,0.224,0.5,0.5V16h1v-0.5
			c0-0.276,0.224-0.5,0.5-0.5s0.5,0.224,0.5,0.5V16h0.5c0.276,0,0.5,0.224,0.5,0.5C20,16.777,19.776,17,19.5,17z"/>
	</g>
</g>
<g id="Invisible_Shape">
	<rect fill="none" width="24" height="24"/>
</g>
</svg>
