<?xml version="1.0" encoding="utf-8"?>
<!-- Generator: Adobe Illustrator 19.2.1, SVG Export Plug-In . SVG Version: 6.00 Build 0)  -->
<svg version="1.1" xmlns="http://www.w3.org/2000/svg" xmlns:xlink="http://www.w3.org/1999/xlink" x="0px" y="0px" width="24px"
	 height="24px" viewBox="0 0 24 24" enable-background="new 0 0 24 24" xml:space="preserve">
<g id="Filled_Icon">
	<g>
		<circle cx="16" cy="10" r="1"/>
		<circle cx="8" cy="10" r="1"/>
		<circle cx="12" cy="17.5" r="2.5"/>
		<path d="M12,0C5.383,0,0,5.383,0,12s5.383,12,12,12s12-5.383,12-12S18.617,0,12,0z M6.567,4.547
			c0.184-0.205,0.501-0.225,0.706-0.043C8.51,5.6,10.189,6.203,12,6.203c1.757,0,3.417-0.623,4.677-1.752
			c0.204-0.187,0.521-0.17,0.706,0.037c0.185,0.205,0.168,0.522-0.038,0.707C15.902,6.49,14.003,7.203,12,7.203
			c-2.056,0-3.97-0.691-5.39-1.951C6.403,5.069,6.384,4.753,6.567,4.547z M6,10c0-1.104,0.897-2,2-2s2,0.896,2,2
			c0,1.102-0.897,2-2,2S6,11.102,6,10z M12,21c-1.93,0-3.5-1.57-3.5-3.5S10.07,14,12,14s3.5,1.57,3.5,3.5S13.93,21,12,21z M16,12
			c-1.103,0-2-0.898-2-2c0-1.104,0.897-2,2-2s2,0.896,2,2C18,11.102,17.103,12,16,12z"/>
	</g>
</g>
<g id="Invisible_Shape">
	<rect fill="none" width="24" height="24"/>
</g>
</svg>
