<?xml version="1.0" encoding="utf-8"?>
<!-- Generator: Adobe Illustrator 19.2.1, SVG Export Plug-In . SVG Version: 6.00 Build 0)  -->
<svg version="1.1" xmlns="http://www.w3.org/2000/svg" xmlns:xlink="http://www.w3.org/1999/xlink" x="0px" y="0px" width="24px"
	 height="24px" viewBox="0 0 24 24" enable-background="new 0 0 24 24" xml:space="preserve">
<g id="Filled_Icon">
	<path d="M12,0C5.383,0,0,5.383,0,12s5.383,12,12,12s12-5.383,12-12S18.617,0,12,0z M16.474,9.709c-1.042,0-1.891-0.848-1.891-1.891
		c0-0.867,0.592-1.594,1.391-1.814V5.5c0-0.276,0.224-0.5,0.5-0.5c0.276,0,0.5,0.224,0.5,0.5v0.504
		c0.799,0.221,1.39,0.947,1.39,1.814c0,0.277-0.224,0.5-0.5,0.5c-0.276,0-0.5-0.223-0.5-0.5c0-0.49-0.399-0.891-0.89-0.891
		c-0.491,0-0.891,0.4-0.891,0.891c0,0.492,0.399,0.891,0.891,0.891c1.042,0,1.89,0.85,1.89,1.893c0,0.868-0.591,1.594-1.39,1.814
		v0.502c0,0.277-0.224,0.5-0.5,0.5c-0.276,0-0.5-0.223-0.5-0.5v-0.502c-0.799-0.221-1.391-0.946-1.391-1.814
		c0-0.275,0.224-0.5,0.5-0.5c0.276,0,0.5,0.225,0.5,0.5c0,0.492,0.399,0.891,0.891,0.891c0.491,0,0.89-0.398,0.89-0.891
		C17.364,10.109,16.964,9.709,16.474,9.709z M7.474,9.709c-1.042,0-1.891-0.848-1.891-1.891c0-0.867,0.592-1.594,1.391-1.814V5.5
		c0-0.276,0.224-0.5,0.5-0.5c0.276,0,0.5,0.224,0.5,0.5v0.504c0.799,0.221,1.39,0.947,1.39,1.814c0,0.277-0.224,0.5-0.5,0.5
		c-0.276,0-0.5-0.223-0.5-0.5c0-0.49-0.399-0.891-0.89-0.891c-0.491,0-0.891,0.4-0.891,0.891c0,0.492,0.399,0.891,0.891,0.891
		c1.042,0,1.89,0.85,1.89,1.893c0,0.868-0.591,1.594-1.39,1.814v0.502c0,0.277-0.224,0.5-0.5,0.5c-0.276,0-0.5-0.223-0.5-0.5v-0.502
		c-0.799-0.221-1.391-0.946-1.391-1.814c0-0.275,0.224-0.5,0.5-0.5c0.276,0,0.5,0.225,0.5,0.5c0,0.492,0.399,0.891,0.891,0.891
		c0.491,0,0.89-0.398,0.89-0.891C8.364,10.109,7.964,9.709,7.474,9.709z M18.936,15.246c-1.403,2.496-3.985,3.984-6.907,3.984
		c-3.021,0-5.627-1.486-6.969-3.978c-0.131-0.243-0.041-0.546,0.203-0.677c0.244-0.133,0.546-0.041,0.677,0.203
		c1.165,2.16,3.441,3.451,6.089,3.451c2.556,0,4.812-1.299,6.035-3.475c0.135-0.242,0.438-0.328,0.681-0.191
		C18.986,14.699,19.071,15.004,18.936,15.246z"/>
</g>
<g id="Invisible_Shape">
	<rect fill="none" width="24" height="24"/>
</g>
</svg>
