<?xml version="1.0" encoding="utf-8"?>
<!-- Generator: Adobe Illustrator 19.2.1, SVG Export Plug-In . SVG Version: 6.00 Build 0)  -->
<svg version="1.1" xmlns="http://www.w3.org/2000/svg" xmlns:xlink="http://www.w3.org/1999/xlink" x="0px" y="0px" width="24px"
	 height="24px" viewBox="0 0 24 24" enable-background="new 0 0 24 24" xml:space="preserve">
<g id="Filled_Icon">
	<g>
		<path d="M18,12.75c0,0.551,0.449,1,1,1s1-0.449,1-1c0-0.324-0.468-1.15-1-1.908C18.468,11.6,18,12.426,18,12.75z"/>
		<circle cx="8.5" cy="8.5" r="1"/>
		<circle cx="15.5" cy="8.5" r="1"/>
		<path d="M12,0C5.383,0,0,5.383,0,12s5.383,12,12,12s12-5.383,12-12S18.617,0,12,0z M15.5,6.5c1.103,0,2,0.897,2,2
			c0,1.102-0.897,2-2,2s-2-0.898-2-2C13.5,7.397,14.397,6.5,15.5,6.5z M8.5,6.5c1.103,0,2,0.897,2,2c0,1.102-0.897,2-2,2
			s-2-0.898-2-2C6.5,7.397,7.397,6.5,8.5,6.5z M18.792,18.451c-0.242,0.131-0.547,0.041-0.678-0.201
			c-1.171-2.162-3.457-3.453-6.114-3.453c-2.566,0-4.831,1.299-6.059,3.476c-0.136,0.24-0.443,0.324-0.681,0.19
			c-0.241-0.135-0.326-0.441-0.19-0.682c1.408-2.494,3.999-3.984,6.93-3.984c3.031,0,5.645,1.486,6.993,3.976
			C19.125,18.017,19.035,18.32,18.792,18.451z M19,14.75c-1.103,0-2-0.898-2-2c0-0.951,1.338-2.714,1.606-3.057
			c0.189-0.244,0.599-0.244,0.788,0C19.662,10.036,21,11.799,21,12.75C21,13.852,20.103,14.75,19,14.75z"/>
	</g>
</g>
<g id="Invisible_Shape">
	<rect fill="none" width="24" height="24"/>
</g>
</svg>
