<?xml version="1.0" encoding="utf-8"?>
<!-- Generator: Adobe Illustrator 19.2.1, SVG Export Plug-In . SVG Version: 6.00 Build 0)  -->
<svg version="1.1" xmlns="http://www.w3.org/2000/svg" xmlns:xlink="http://www.w3.org/1999/xlink" x="0px" y="0px" width="24px"
	 height="24px" viewBox="0 0 24 24" enable-background="new 0 0 24 24" xml:space="preserve">
<g id="Filled_Icon">
	<path d="M12,0C5.383,0,0,5.383,0,12s5.383,12,12,12s12-5.383,12-12S18.617,0,12,0z M5.5,8.5C5.5,8.224,5.724,8,6,8h1V7
		c0-0.276,0.224-0.5,0.5-0.5S8,6.724,8,7v1h1c0.276,0,0.5,0.224,0.5,0.5C9.5,8.777,9.276,9,9,9H8v1c0,0.277-0.224,0.5-0.5,0.5
		S7,10.277,7,10V9H6C5.724,9,5.5,8.777,5.5,8.5z M14.5,19c-3.391,0-2.417-4-5-4C7.818,15,7,16.145,7,18.5C7,18.777,6.776,19,6.5,19
		S6,18.777,6,18.5C6,14.584,8.193,14,9.5,14c3.389,0,2.415,4,5,4c1.682,0,2.5-1.145,2.5-3.5c0-0.276,0.224-0.5,0.5-0.5
		s0.5,0.224,0.5,0.5C18,18.416,15.807,19,14.5,19z M18,9h-1v1c0,0.277-0.224,0.5-0.5,0.5S16,10.277,16,10V9h-1
		c-0.276,0-0.5-0.223-0.5-0.5C14.5,8.224,14.724,8,15,8h1V7c0-0.276,0.224-0.5,0.5-0.5S17,6.724,17,7v1h1c0.276,0,0.5,0.224,0.5,0.5
		C18.5,8.777,18.276,9,18,9z"/>
</g>
<g id="Invisible_Shape">
	<rect fill="none" width="24" height="24"/>
</g>
</svg>
