<?xml version="1.0" encoding="utf-8"?>
<!-- Generator: Adobe Illustrator 19.2.1, SVG Export Plug-In . SVG Version: 6.00 Build 0)  -->
<svg version="1.1" xmlns="http://www.w3.org/2000/svg" xmlns:xlink="http://www.w3.org/1999/xlink" x="0px" y="0px" width="24px"
	 height="24px" viewBox="0 0 24 24" enable-background="new 0 0 24 24" xml:space="preserve">
<g id="Filled_Icon">
	<path d="M12,0C5.383,0,0,5.383,0,12s5.383,12,12,12s12-5.383,12-12S18.617,0,12,0z M13.037,12.541l2.218-2.219
		c0.195-0.195,0.512-0.195,0.707,0c0.195,0.195,0.195,0.512,0,0.707l-2.218,2.219c-0.195,0.195-0.512,0.195-0.707,0
		C12.842,13.053,12.842,12.736,13.037,12.541z M4.956,7.502c1.591-0.141,3.119-0.699,4.419-1.617
		c0.227-0.159,0.538-0.105,0.697,0.119c0.16,0.227,0.106,0.539-0.12,0.697C8.508,7.721,6.811,8.344,5.044,8.498
		C4.795,8.531,4.527,8.336,4.502,8.045C4.477,7.769,4.681,7.527,4.956,7.502z M4.037,13.248c-0.195-0.195-0.195-0.512,0-0.707
		l2.218-2.219c0.195-0.195,0.512-0.195,0.707,0s0.195,0.512,0,0.707l-2.218,2.219C4.549,13.443,4.232,13.443,4.037,13.248z
		 M7.037,13.248c-0.195-0.195-0.195-0.512,0-0.707l2.218-2.219c0.195-0.195,0.512-0.195,0.707,0c0.195,0.195,0.195,0.512,0,0.707
		l-2.218,2.219C7.549,13.443,7.232,13.443,7.037,13.248z M14,19.5c-0.821,0-1.544-0.402-2-1.016c-0.456,0.613-1.179,1.016-2,1.016
		c-1.378,0-2.5-1.121-2.5-2.5c0-0.276,0.224-0.5,0.5-0.5c0.276,0,0.5,0.224,0.5,0.5c0,0.828,0.673,1.5,1.5,1.5s1.5-0.672,1.5-1.5
		c0-0.276,0.224-0.5,0.5-0.5s0.5,0.224,0.5,0.5c0,0.828,0.673,1.5,1.5,1.5s1.5-0.672,1.5-1.5c0-0.276,0.224-0.5,0.5-0.5
		s0.5,0.224,0.5,0.5C16.5,18.379,15.378,19.5,14,19.5z M18.962,11.029l-2.218,2.219c-0.195,0.195-0.512,0.195-0.707,0
		c-0.195-0.195-0.195-0.512,0-0.707l2.218-2.219c0.195-0.195,0.512-0.195,0.707,0C19.158,10.518,19.158,10.834,18.962,11.029z
		 M18.956,8.498c-1.767-0.154-3.464-0.777-4.909-1.797c-0.226-0.158-0.279-0.471-0.12-0.697c0.159-0.225,0.47-0.278,0.697-0.119
		c1.3,0.918,2.828,1.477,4.419,1.617c0.275,0.025,0.479,0.267,0.454,0.543C19.473,8.336,19.205,8.531,18.956,8.498z"/>
</g>
<g id="Invisible_Shape">
	<rect fill="none" width="24" height="24"/>
</g>
</svg>
