<?xml version="1.0" encoding="utf-8"?>
<!-- Generator: Adobe Illustrator 19.2.1, SVG Export Plug-In . SVG Version: 6.00 Build 0)  -->
<svg version="1.1" xmlns="http://www.w3.org/2000/svg" xmlns:xlink="http://www.w3.org/1999/xlink" x="0px" y="0px" width="24px"
	 height="24px" viewBox="0 0 24 24" enable-background="new 0 0 24 24" xml:space="preserve">
<g id="Filled_Icon">
	<g>
		<path d="M12,0C5.383,0,0,5.383,0,12s5.383,12,12,12s12-5.383,12-12S18.617,0,12,0z M5.25,8.5c0-1.103,0.897-2,2-2s2,0.897,2,2
			c0,1.102-0.897,2-2,2S5.25,9.602,5.25,8.5z M17.872,17.264c-0.229,0.152-0.54,0.092-0.694-0.137l-1.158-1.731l-1.605,2.383
			c-0.196,0.293-0.633,0.297-0.831-0.002l-1.578-2.379l-1.613,2.383c-0.195,0.287-0.631,0.297-0.832-0.006l-1.567-2.377
			l-1.177,1.729c-0.155,0.228-0.466,0.289-0.695,0.133c-0.229-0.156-0.288-0.467-0.132-0.695l1.597-2.346
			c0.207-0.303,0.641-0.281,0.831,0.006L9.984,16.6l1.612-2.38c0.233-0.345,0.664-0.249,0.831,0.004l1.577,2.376l1.603-2.379
			c0.196-0.293,0.63-0.295,0.83,0.002l1.572,2.347C18.163,16.799,18.101,17.109,17.872,17.264z M16.25,10.5c-1.103,0-2-0.898-2-2
			c0-1.103,0.897-2,2-2s2,0.897,2,2C18.25,9.602,17.353,10.5,16.25,10.5z"/>
		<circle cx="7.25" cy="8.5" r="1"/>
		<circle cx="16.25" cy="8.5" r="1"/>
	</g>
</g>
<g id="Invisible_Shape">
	<rect fill="none" width="24" height="24"/>
</g>
</svg>
