<?xml version="1.0" encoding="utf-8"?>
<!-- Generator: Adobe Illustrator 19.2.1, SVG Export Plug-In . SVG Version: 6.00 Build 0)  -->
<svg version="1.1" xmlns="http://www.w3.org/2000/svg" xmlns:xlink="http://www.w3.org/1999/xlink" x="0px" y="0px" width="24px"
	 height="24px" viewBox="0 0 24 24" enable-background="new 0 0 24 24" xml:space="preserve">
<g id="Filled_Icon">
	<path d="M12,0C5.383,0,0,5.383,0,12s5.383,12,12,12s12-5.383,12-12S18.617,0,12,0z M7,9c0,0.277-0.224,0.5-0.5,0.5S6,9.277,6,9
		c0-1.379,1.122-2.5,2.5-2.5S11,7.621,11,9c0,0.277-0.224,0.5-0.5,0.5S10,9.277,10,9c0-0.826-0.673-1.5-1.5-1.5S7,8.174,7,9z
		 M14,19.5c-0.821,0-1.544-0.402-2-1.016c-0.456,0.613-1.179,1.016-2,1.016c-1.378,0-2.5-1.121-2.5-2.5c0-0.276,0.224-0.5,0.5-0.5
		c0.276,0,0.5,0.224,0.5,0.5c0,0.828,0.673,1.5,1.5,1.5s1.5-0.672,1.5-1.5c0-0.276,0.224-0.5,0.5-0.5s0.5,0.224,0.5,0.5
		c0,0.828,0.673,1.5,1.5,1.5s1.5-0.672,1.5-1.5c0-0.276,0.224-0.5,0.5-0.5s0.5,0.224,0.5,0.5C16.5,18.379,15.378,19.5,14,19.5z
		 M17.5,9.5C17.224,9.5,17,9.277,17,9c0-0.826-0.673-1.5-1.5-1.5C14.673,7.5,14,8.174,14,9c0,0.277-0.224,0.5-0.5,0.5S13,9.277,13,9
		c0-1.379,1.122-2.5,2.5-2.5S18,7.621,18,9C18,9.277,17.776,9.5,17.5,9.5z"/>
</g>
<g id="Invisible_Shape">
	<rect fill="none" width="24" height="24"/>
</g>
</svg>
