<?xml version="1.0" encoding="utf-8"?>
<!-- Generator: Adobe Illustrator 19.2.1, SVG Export Plug-In . SVG Version: 6.00 Build 0)  -->
<svg version="1.1" xmlns="http://www.w3.org/2000/svg" xmlns:xlink="http://www.w3.org/1999/xlink" x="0px" y="0px" width="24px"
	 height="24px" viewBox="0 0 24 24" enable-background="new 0 0 24 24" xml:space="preserve">
<g id="Filled_Icon">
	<path d="M12,0C5.383,0,0,5.383,0,12s5.383,12,12,12s12-5.383,12-12S18.617,0,12,0z M5.135,8.088
		c1.114-0.856,2.439-1.402,3.832-1.584c0.271-0.041,0.524,0.158,0.56,0.432c0.036,0.275-0.157,0.525-0.431,0.561
		C7.877,7.654,6.718,8.133,5.743,8.881C5.528,9.049,5.211,9.01,5.043,8.789C4.874,8.57,4.916,8.256,5.135,8.088z M18.936,15.246
		c-1.403,2.496-3.985,3.984-6.907,3.984c-3.021,0-5.627-1.486-6.969-3.978c-0.131-0.243-0.041-0.546,0.203-0.677
		c0.245-0.133,0.546-0.041,0.677,0.203c1.165,2.162,3.441,3.451,6.089,3.451c2.556,0,4.812-1.299,6.035-3.475
		c0.136-0.241,0.438-0.328,0.681-0.191C18.986,14.699,19.071,15.004,18.936,15.246z M18.956,8.789
		c-0.169,0.221-0.486,0.258-0.701,0.092c-0.974-0.748-2.133-1.227-3.352-1.385c-0.274-0.035-0.467-0.285-0.431-0.561
		c0.035-0.273,0.286-0.473,0.56-0.432c1.393,0.182,2.718,0.728,3.832,1.584C19.083,8.256,19.125,8.57,18.956,8.789z"/>
</g>
<g id="Invisible_Shape">
	<rect fill="none" width="24" height="24"/>
</g>
</svg>
