<?xml version="1.0" encoding="utf-8"?>
<!-- Generator: Adobe Illustrator 19.2.1, SVG Export Plug-In . SVG Version: 6.00 Build 0)  -->
<svg version="1.1" xmlns="http://www.w3.org/2000/svg" xmlns:xlink="http://www.w3.org/1999/xlink" x="0px" y="0px" width="24px"
	 height="24px" viewBox="0 0 24 24" enable-background="new 0 0 24 24" xml:space="preserve">
<g id="Filled_Icon">
	<g>
		<path d="M12,20c3.691,0,6.725-2.38,6.982-6H5.018C5.275,17.62,8.308,20,12,20z"/>
		<circle cx="7.5" cy="7.5" r="1"/>
		<circle cx="16.5" cy="7.5" r="1"/>
		<path d="M12,0C5.383,0,0,5.383,0,12s5.383,12,12,12s12-5.383,12-12S18.617,0,12,0z M16.5,5.5c1.103,0,2,0.897,2,2
			c0,1.102-0.897,2-2,2s-2-0.898-2-2C14.5,6.397,15.398,5.5,16.5,5.5z M7.5,5.5c1.102,0,2,0.897,2,2c0,1.102-0.898,2-2,2
			s-2-0.898-2-2C5.5,6.397,6.398,5.5,7.5,5.5z M12,21c-4.411,0-8-3.096-8-7.506c0-0.277,0.224-0.5,0.5-0.5h15
			c0.276,0,0.5,0.223,0.5,0.5C20,17.904,16.411,21,12,21z"/>
	</g>
</g>
<g id="Invisible_Shape">
	<rect fill="none" width="24" height="24"/>
</g>
</svg>
