<?xml version="1.0" encoding="utf-8"?>
<!-- Generator: Adobe Illustrator 19.2.1, SVG Export Plug-In . SVG Version: 6.00 Build 0)  -->
<svg version="1.1" xmlns="http://www.w3.org/2000/svg" xmlns:xlink="http://www.w3.org/1999/xlink" x="0px" y="0px" width="24px"
	 height="24px" viewBox="0 0 24 24" enable-background="new 0 0 24 24" xml:space="preserve">
<g id="Filled_Icon">
	<g>
		<circle cx="15.5" cy="8.5" r="1"/>
		<circle cx="8.5" cy="8.5" r="1"/>
		<path d="M12,0C5.383,0,0,5.383,0,12s5.383,12,12,12s12-5.383,12-12S18.617,0,12,0z M8.5,10.5c-1.103,0-2-0.898-2-2
			c0-1.103,0.897-2,2-2s2,0.897,2,2C10.5,9.602,9.603,10.5,8.5,10.5z M15.5,6.5c1.103,0,2,0.897,2,2c0,1.102-0.897,2-2,2
			s-2-0.898-2-2C13.5,7.397,14.397,6.5,15.5,6.5z M19.252,15.644c-2.35,0-4.532,1.171-5.836,3.134
			c-0.151,0.227-0.461,0.293-0.693,0.139c-0.23-0.152-0.292-0.463-0.14-0.693c1.49-2.24,3.983-3.579,6.669-3.579
			c0.276,0,0.5,0.224,0.5,0.5C19.752,15.42,19.529,15.644,19.252,15.644z"/>
	</g>
</g>
<g id="Invisible_Shape">
	<rect fill="none" width="24" height="24"/>
</g>
</svg>
