<?xml version="1.0" encoding="utf-8"?>
<!-- Generator: Adobe Illustrator 19.2.1, SVG Export Plug-In . SVG Version: 6.00 Build 0)  -->
<svg version="1.1" xmlns="http://www.w3.org/2000/svg" xmlns:xlink="http://www.w3.org/1999/xlink" x="0px" y="0px" width="24px"
	 height="24px" viewBox="0 0 24 24" enable-background="new 0 0 24 24" xml:space="preserve">
<g id="Filled_Icon">
	<g>
		<path d="M10.044,16.932C10.25,18.105,11.269,19,12.5,19c1.378,0,2.5-1.121,2.5-2.5v-0.578C13.804,16.615,12.439,17,11,17
			C10.678,17,10.36,16.97,10.044,16.932z"/>
		<path d="M12,0C5.383,0,0,5.383,0,12s5.383,12,12,12s12-5.383,12-12S18.617,0,12,0z M6,10c0,0.277-0.224,0.5-0.5,0.5S5,10.277,5,10
			c0-1.379,1.122-2.5,2.5-2.5S10,8.621,10,10c0,0.277-0.224,0.5-0.5,0.5S9,10.277,9,10c0-0.826-0.673-1.5-1.5-1.5S6,9.174,6,10z
			 M18.354,14.854c-0.195,0.195-0.512,0.195-0.707,0l-0.616-0.616c-0.318,0.368-0.66,0.706-1.03,1.005V16.5c0,1.93-1.57,3.5-3.5,3.5
			c-1.848,0-3.351-1.443-3.476-3.262c-0.822-0.209-1.612-0.533-2.333-0.994c-0.232-0.148-0.3-0.459-0.151-0.691
			c0.148-0.232,0.457-0.301,0.691-0.15c2.835,1.815,6.737,1.4,9.092-1.373l-0.676-0.676c-0.195-0.195-0.195-0.512,0-0.707
			s0.512-0.195,0.707,0l2,2C18.549,14.342,18.549,14.658,18.354,14.854z M18.5,10.5c-0.276,0-0.5-0.223-0.5-0.5
			c0-0.826-0.673-1.5-1.5-1.5C15.673,8.5,15,9.174,15,10c0,0.277-0.224,0.5-0.5,0.5S14,10.277,14,10c0-1.379,1.122-2.5,2.5-2.5
			S19,8.621,19,10C19,10.277,18.776,10.5,18.5,10.5z"/>
	</g>
</g>
<g id="Invisible_Shape">
	<rect fill="none" width="24" height="24"/>
</g>
</svg>
