<?xml version="1.0" encoding="utf-8"?>
<!-- Generator: Adobe Illustrator 19.2.1, SVG Export Plug-In . SVG Version: 6.00 Build 0)  -->
<svg version="1.1" xmlns="http://www.w3.org/2000/svg" xmlns:xlink="http://www.w3.org/1999/xlink" x="0px" y="0px" width="24px"
	 height="24px" viewBox="0 0 24 24" enable-background="new 0 0 24 24" xml:space="preserve">
<g id="Filled_Icon">
	<path d="M12,0C5.383,0,0,5.383,0,12s5.383,12,12,12s12-5.383,12-12S18.617,0,12,0z M16.5,7.5c1.378,0,2.5,1.121,2.5,2.5
		c0,0.277-0.224,0.5-0.5,0.5S18,10.277,18,10c0-0.826-0.673-1.5-1.5-1.5C15.673,8.5,15,9.174,15,10c0,0.277-0.224,0.5-0.5,0.5
		S14,10.277,14,10C14,8.621,15.122,7.5,16.5,7.5z M7.5,7.5C8.878,7.5,10,8.621,10,10c0,0.277-0.224,0.5-0.5,0.5S9,10.277,9,10
		c0-0.826-0.673-1.5-1.5-1.5S6,9.174,6,10c0,0.277-0.224,0.5-0.5,0.5S5,10.277,5,10C5,8.621,6.122,7.5,7.5,7.5z M12,21
		c-4.411,0-8-3.588-8-8c0-0.276,0.224-0.5,0.5-0.5S5,12.724,5,13c0,3.861,3.14,7,7,7s7-3.139,7-7c0-0.276,0.224-0.5,0.5-0.5
		S20,12.724,20,13C20,17.412,16.411,21,12,21z"/>
</g>
<g id="Invisible_Shape">
	<rect fill="none" width="24" height="24"/>
</g>
</svg>
