<?xml version="1.0" encoding="utf-8"?>
<!-- Generator: Adobe Illustrator 19.2.1, SVG Export Plug-In . SVG Version: 6.00 Build 0)  -->
<svg version="1.1" xmlns="http://www.w3.org/2000/svg" xmlns:xlink="http://www.w3.org/1999/xlink" x="0px" y="0px" width="24px"
	 height="24px" viewBox="0 0 24 24" enable-background="new 0 0 24 24" xml:space="preserve">
<g id="Filled_Icon">
	<path d="M12,0C5.383,0,0,5.383,0,12s5.383,12,12,12s12-5.383,12-12S18.617,0,12,0z M5.604,6.856c0.195-0.195,0.512-0.195,0.707,0
		L9.375,9.92c0.195,0.195,0.195,0.512,0,0.707c-0.195,0.195-0.512,0.195-0.707,0L5.604,7.562C5.409,7.367,5.409,7.051,5.604,6.856z
		 M17.873,17.418c-0.23,0.152-0.54,0.092-0.694-0.137l-1.158-1.73l-1.605,2.383c-0.196,0.293-0.633,0.297-0.831-0.002l-1.578-2.379
		l-1.613,2.382c-0.202,0.3-0.639,0.288-0.832-0.005l-1.567-2.377l-1.177,1.729c-0.156,0.229-0.466,0.289-0.695,0.133
		c-0.228-0.156-0.288-0.467-0.132-0.695l1.597-2.346c0.189-0.277,0.627-0.303,0.831,0.006l1.567,2.375l1.612-2.379
		c0.189-0.281,0.629-0.303,0.83,0.004l1.577,2.375l1.602-2.379c0.196-0.293,0.63-0.295,0.83,0.002l1.573,2.347
		C18.164,16.953,18.103,17.264,17.873,17.418z M18.395,7.562l-3.083,3.084c-0.195,0.195-0.512,0.195-0.707,0s-0.195-0.512,0-0.706
		l3.083-3.085c0.195-0.195,0.512-0.195,0.707,0C18.59,7.051,18.59,7.367,18.395,7.562z"/>
</g>
<g id="Invisible_Shape">
	<rect fill="none" width="24" height="24"/>
</g>
</svg>
