<?xml version="1.0" encoding="utf-8"?>
<!-- Generator: Adobe Illustrator 19.2.1, SVG Export Plug-In . SVG Version: 6.00 Build 0)  -->
<svg version="1.1" xmlns="http://www.w3.org/2000/svg" xmlns:xlink="http://www.w3.org/1999/xlink" x="0px" y="0px" width="24px"
	 height="24px" viewBox="0 0 24 24" enable-background="new 0 0 24 24" xml:space="preserve">
<g id="Filled_Icon">
	<g>
		<circle cx="15.25" cy="8.5" r="1"/>
		<path d="M12,0C5.383,0,0,5.383,0,12s5.383,12,12,12s12-5.383,12-12S18.617,0,12,0z M15.25,6.5c1.103,0,2,0.897,2,2
			c0,1.102-0.897,2-2,2s-2-0.898-2-2C13.25,7.397,14.147,6.5,15.25,6.5z M8.25,6.5c1.103,0,2,0.897,2,2c0,1.102-0.897,2-2,2
			s-2-0.898-2-2C6.25,7.397,7.147,6.5,8.25,6.5z M19,17H5c-0.276,0-0.5-0.223-0.5-0.5C4.5,16.224,4.724,16,5,16h14
			c0.276,0,0.5,0.224,0.5,0.5C19.5,16.777,19.276,17,19,17z"/>
		<circle cx="8.25" cy="8.5" r="1"/>
	</g>
</g>
<g id="Invisible_Shape">
	<rect fill="none" width="24" height="24"/>
</g>
</svg>
