<?xml version="1.0" encoding="utf-8"?>
<!-- Generator: Adobe Illustrator 19.2.1, SVG Export Plug-In . SVG Version: 6.00 Build 0)  -->
<svg version="1.1" xmlns="http://www.w3.org/2000/svg" xmlns:xlink="http://www.w3.org/1999/xlink" x="0px" y="0px" width="24px"
	 height="24px" viewBox="0 0 24 24" enable-background="new 0 0 24 24" xml:space="preserve">
<g id="Filled_Icon">
	<g>
		<circle cx="7.5" cy="10" r="1"/>
		<path d="M12,0C5.383,0,0,5.383,0,12s5.383,12,12,12s12-5.383,12-12S18.617,0,12,0z M19,10c0,0.277-0.224,0.5-0.5,0.5
			c-0.271,0-0.491-0.215-0.5-0.482c-0.34-0.471-2.758-0.434-3.006,0.008c0,0.275-0.221,0.488-0.497,0.488
			C14.221,10.514,14,10.277,14,10C14,8.209,19,8.209,19,10z M7.5,8c1.103,0,2,0.896,2,2c0,1.102-0.897,2-2,2c-1.102,0-2-0.898-2-2
			C5.5,8.896,6.398,8,7.5,8z M12,21c-4.411,0-8-3.588-8-8c0-0.275,0.224-0.5,0.5-0.5S5,12.725,5,13c0,3.861,3.14,7,7,7s7-3.139,7-7
			c0-0.275,0.224-0.5,0.5-0.5S20,12.725,20,13C20,17.412,16.411,21,12,21z"/>
	</g>
</g>
<g id="Invisible_Shape">
	<rect fill="none" width="24" height="24"/>
</g>
</svg>
