<?xml version="1.0" encoding="utf-8"?>
<!-- Generator: Adobe Illustrator 19.2.1, SVG Export Plug-In . SVG Version: 6.00 Build 0)  -->
<svg version="1.1" xmlns="http://www.w3.org/2000/svg" xmlns:xlink="http://www.w3.org/1999/xlink" x="0px" y="0px" width="24px"
	 height="24px" viewBox="0 0 24 24" enable-background="new 0 0 24 24" xml:space="preserve">
<g id="Filled_Icon">
	<g>
		<path d="M12,20c3.691,0,6.725-2.373,6.982-6H5.018C5.275,17.627,8.309,20,12,20z"/>
		<path d="M12,0C5.383,0,0,5.383,0,12s5.383,12,12,12s12-5.383,12-12S18.617,0,12,0z M17,5.5c0.276,0,0.5,0.224,0.5,0.5
			c0,0.277-0.224,0.5-0.5,0.5c-0.827,0-1.5,0.674-1.5,1.5c0,0.828,0.673,1.5,1.5,1.5c0.276,0,0.5,0.224,0.5,0.5
			c0,0.277-0.224,0.5-0.5,0.5c-1.378,0-2.5-1.121-2.5-2.5S15.622,5.5,17,5.5z M7,6.5C6.724,6.5,6.5,6.277,6.5,6
			c0-0.276,0.224-0.5,0.5-0.5c1.378,0,2.5,1.121,2.5,2.5S8.378,10.5,7,10.5c-0.276,0-0.5-0.223-0.5-0.5c0-0.276,0.224-0.5,0.5-0.5
			c0.827,0,1.5-0.672,1.5-1.5C8.5,7.174,7.827,6.5,7,6.5z M12,21c-4.411,0-8-3.088-8-7.5C4,13.224,4.224,13,4.5,13h15
			c0.276,0,0.5,0.224,0.5,0.5C20,17.912,16.411,21,12,21z"/>
	</g>
</g>
<g id="Invisible_Shape">
	<rect fill="none" width="24" height="24"/>
</g>
</svg>
