<?xml version="1.0" encoding="utf-8"?>
<!-- Generator: Adobe Illustrator 19.2.1, SVG Export Plug-In . SVG Version: 6.00 Build 0)  -->
<svg version="1.1" xmlns="http://www.w3.org/2000/svg" xmlns:xlink="http://www.w3.org/1999/xlink" x="0px" y="0px" width="24px"
	 height="24px" viewBox="0 0 24 24" enable-background="new 0 0 24 24" xml:space="preserve">
<g id="Filled_Icon">
	<g>
		<path d="M12,20c3.691,0,6.725-2.38,6.982-6H5.018C5.275,17.62,8.308,20,12,20z"/>
		<path d="M12,0C5.383,0,0,5.383,0,12s5.383,12,12,12s12-5.383,12-12S18.617,0,12,0z M14.5,7.5C14.776,7.5,15,7.725,15,8
			c0,0.828,0.673,1.5,1.5,1.5C17.327,9.5,18,8.828,18,8c0-0.275,0.224-0.5,0.5-0.5S19,7.725,19,8c0,1.379-1.122,2.5-2.5,2.5
			S14,9.379,14,8C14,7.725,14.224,7.5,14.5,7.5z M5.5,7.5C5.776,7.5,6,7.725,6,8c0,0.828,0.673,1.5,1.5,1.5S9,8.828,9,8
			c0-0.275,0.224-0.5,0.5-0.5S10,7.725,10,8c0,1.379-1.122,2.5-2.5,2.5S5,9.379,5,8C5,7.725,5.224,7.5,5.5,7.5z M12,21
			c-4.411,0-8-3.096-8-7.506c0-0.277,0.224-0.5,0.5-0.5h15c0.276,0,0.5,0.223,0.5,0.5C20,17.904,16.411,21,12,21z"/>
	</g>
</g>
<g id="Invisible_Shape">
	<rect fill="none" width="24" height="24"/>
</g>
</svg>
