<?xml version="1.0" encoding="utf-8"?>
<!-- Generator: Adobe Illustrator 19.2.1, SVG Export Plug-In . SVG Version: 6.00 Build 0)  -->
<svg version="1.1" xmlns="http://www.w3.org/2000/svg" xmlns:xlink="http://www.w3.org/1999/xlink" x="0px" y="0px" width="24px"
	 height="24px" viewBox="0 0 24 24" enable-background="new 0 0 24 24" xml:space="preserve">
<g id="Filled_Icon">
	<path d="M12,0C5.383,0,0,5.383,0,12s5.383,12,12,12s12-5.383,12-12S18.617,0,12,0z M14.604,9.94l3.083-3.085
		c0.195-0.195,0.512-0.195,0.707,0c0.195,0.195,0.195,0.512,0,0.707l-3.083,3.084c-0.195,0.195-0.512,0.195-0.707,0
		S14.409,10.135,14.604,9.94z M5.604,6.856c0.195-0.195,0.512-0.195,0.707,0L9.375,9.92c0.195,0.195,0.195,0.512,0,0.707
		c-0.195,0.195-0.512,0.195-0.707,0L5.604,7.562C5.409,7.367,5.409,7.051,5.604,6.856z M18.792,18.451
		c-0.243,0.131-0.546,0.041-0.678-0.201c-1.171-2.162-3.457-3.453-6.114-3.453c-2.566,0-4.831,1.299-6.059,3.476
		c-0.136,0.24-0.443,0.324-0.681,0.19c-0.241-0.135-0.326-0.441-0.19-0.682c1.408-2.494,3.999-3.984,6.93-3.984
		c3.031,0,5.645,1.486,6.993,3.976C19.125,18.017,19.035,18.32,18.792,18.451z"/>
</g>
<g id="Invisible_Shape">
	<rect fill="none" width="24" height="24"/>
</g>
</svg>
