<?xml version="1.0" encoding="utf-8"?>
<!-- Generator: Adobe Illustrator 19.2.1, SVG Export Plug-In . SVG Version: 6.00 Build 0)  -->
<svg version="1.1" xmlns="http://www.w3.org/2000/svg" xmlns:xlink="http://www.w3.org/1999/xlink" x="0px" y="0px" width="24px"
	 height="24px" viewBox="0 0 24 24" enable-background="new 0 0 24 24" xml:space="preserve">
<g id="Filled_Icon">
	<g>
		<path d="M12,0C5.383,0,0,5.383,0,12s5.383,12,12,12s12-5.383,12-12S18.617,0,12,0z M5.043,8.789
			C4.874,8.57,4.916,8.256,5.135,8.088c1.114-0.856,2.439-1.402,3.832-1.584c0.271-0.041,0.524,0.158,0.56,0.432
			c0.036,0.275-0.157,0.525-0.431,0.561C7.877,7.654,6.718,8.133,5.743,8.881C5.528,9.049,5.211,9.01,5.043,8.789z M12,21
			c-1.93,0-3.5-2.018-3.5-4.5c0-2.481,1.57-4.5,3.5-4.5s3.5,2.019,3.5,4.5C15.5,18.982,13.93,21,12,21z M18.956,8.789
			c-0.169,0.221-0.486,0.258-0.701,0.092c-0.974-0.748-2.133-1.227-3.352-1.385c-0.274-0.035-0.467-0.285-0.431-0.561
			c0.035-0.273,0.28-0.473,0.56-0.432c1.393,0.182,2.718,0.728,3.832,1.584C19.083,8.256,19.125,8.57,18.956,8.789z"/>
		<ellipse cx="12" cy="16.5" rx="2.5" ry="3.5"/>
	</g>
</g>
<g id="Invisible_Shape">
	<rect fill="none" width="24" height="24"/>
</g>
</svg>
