<?xml version="1.0" encoding="utf-8"?>
<!-- Generator: Adobe Illustrator 19.2.1, SVG Export Plug-In . SVG Version: 6.00 Build 0)  -->
<svg version="1.1" xmlns="http://www.w3.org/2000/svg" xmlns:xlink="http://www.w3.org/1999/xlink" x="0px" y="0px" width="24px"
	 height="24px" viewBox="0 0 24 24" enable-background="new 0 0 24 24" xml:space="preserve">
<g id="Filled_Icon">
	<path d="M12,0C5.383,0,0,5.383,0,12s5.383,12,12,12s12-5.383,12-12S18.617,0,12,0z M13,8h4c0.276,0,0.5,0.224,0.5,0.5
		C17.5,8.777,17.276,9,17,9h-4c-0.276,0-0.5-0.223-0.5-0.5C12.5,8.224,12.724,8,13,8z M9,9H5C4.724,9,4.5,8.777,4.5,8.5
		C4.5,8.224,4.724,8,5,8h4c0.276,0,0.5,0.224,0.5,0.5C9.5,8.777,9.276,9,9,9z M18.936,15.246c-1.403,2.496-3.985,3.984-6.907,3.984
		c-0.276,0-0.5-0.223-0.5-0.5c0-0.276,0.224-0.5,0.5-0.5c2.556,0,4.812-1.299,6.035-3.475c0.135-0.241,0.439-0.328,0.681-0.191
		C18.986,14.699,19.071,15.004,18.936,15.246z"/>
</g>
<g id="Invisible_Shape">
	<rect fill="none" width="24" height="24"/>
</g>
</svg>
