<?xml version="1.0" encoding="utf-8"?>
<!-- Generator: Adobe Illustrator 19.2.1, SVG Export Plug-In . SVG Version: 6.00 Build 0)  -->
<svg version="1.1" xmlns="http://www.w3.org/2000/svg" xmlns:xlink="http://www.w3.org/1999/xlink" x="0px" y="0px" width="24px"
	 height="24px" viewBox="0 0 24 24" enable-background="new 0 0 24 24" xml:space="preserve">
<g id="Filled_Icon">
	<g>
		<circle cx="12" cy="18.5" r="1"/>
		<path d="M12,0C5.383,0,0,5.383,0,12s5.383,12,12,12s12-5.383,12-12S18.617,0,12,0z M8,12.5c-0.276,0-0.5-0.223-0.5-0.5
			c0-0.276,0.224-0.5,0.5-0.5c0.827,0,1.5-0.672,1.5-1.5c0-0.826-0.673-1.5-1.5-1.5C7.724,8.5,7.5,8.277,7.5,8
			c0-0.276,0.224-0.5,0.5-0.5c1.378,0,2.5,1.121,2.5,2.5S9.378,12.5,8,12.5z M12,20.5c-1.103,0-2-0.897-2-2c0-1.104,0.897-2,2-2
			s2,0.896,2,2C14,19.603,13.103,20.5,12,20.5z M16,11.5c0.276,0,0.5,0.224,0.5,0.5c0,0.277-0.224,0.5-0.5,0.5
			c-1.378,0-2.5-1.121-2.5-2.5s1.122-2.5,2.5-2.5c0.276,0,0.5,0.224,0.5,0.5c0,0.277-0.224,0.5-0.5,0.5c-0.827,0-1.5,0.674-1.5,1.5
			C14.5,10.828,15.173,11.5,16,11.5z"/>
	</g>
</g>
<g id="Invisible_Shape">
	<rect fill="none" width="24" height="24"/>
</g>
</svg>
