<?xml version="1.0" encoding="utf-8"?>
<!-- Generator: Adobe Illustrator 16.0.3, SVG Export Plug-In . SVG Version: 6.00 Build 0)  -->
<!DOCTYPE svg PUBLIC "-//W3C//DTD SVG 1.1//EN" "http://www.w3.org/Graphics/SVG/1.1/DTD/svg11.dtd">
<svg version="1.1" xmlns="http://www.w3.org/2000/svg" xmlns:xlink="http://www.w3.org/1999/xlink" x="0px" y="0px" width="24px"
	 height="24px" viewBox="0 0 24 24" enable-background="new 0 0 24 24" xml:space="preserve">
<g id="Outline_Icons_1_">
	<g id="Outline_Icons">
	</g>
	<g id="New_icons_1_">
		<g>
			<path fill="none" stroke="#000000" stroke-linecap="round" stroke-linejoin="round" stroke-miterlimit="10" d="M9,9.502
				c0-0.553,0.448-0.5,1-0.5c0.553,0,1-0.053,1,0.5"/>
			<path fill="none" stroke="#000000" stroke-linecap="round" stroke-linejoin="round" stroke-miterlimit="10" d="M13,9.502
				c0-0.553,0.448-0.5,1-0.5c0.553,0,1-0.053,1,0.5"/>
			<path fill="none" stroke="#000000" stroke-linecap="round" stroke-linejoin="round" stroke-miterlimit="10" d="M18.46,16.068
				c-1.218-0.199-2.555-0.342-3.89-0.568"/>
			<path fill="none" stroke="#000000" stroke-linecap="round" stroke-linejoin="round" stroke-miterlimit="10" d="M9.445,15.5
				C5.148,16.227,0.5,16.078,0.5,20.244V23.5h23v-3.256c0-1.952-0.982-2.951-2.484-3.538"/>
			<path fill="none" stroke="#000000" stroke-linecap="round" stroke-linejoin="round" stroke-miterlimit="10" d="M7,8.5
				c-1.5,0-1.5,3,0,3c0,3,3.5,5,5,5s5-2,5-5c1.5,0,1.5-3,0-3V8.305"/>
			<line fill="none" stroke="#000000" stroke-linejoin="round" stroke-miterlimit="10" x1="5.551" y1="6.322" x2="6.02" y2="9.25"/>
			<path fill="none" stroke="#000000" stroke-linecap="round" stroke-linejoin="round" stroke-miterlimit="10" d="M12.666,6.5H6.572
				c-1.278,0-2.447-0.803-2.84-2.018C3.04,2.336,4.414,0.5,6.25,0.5C11,0.5,13,3,13,3c7-1,8,3.5,7,4.5c-2.5,2.5-8.5-1-10.5-4"/>
			<path fill="none" stroke="#000000" stroke-linecap="round" stroke-linejoin="round" stroke-miterlimit="10" d="M13,3
				c0,0,0.5-2.5,2-2.5"/>
			<line fill="none" stroke="#000000" stroke-linejoin="round" stroke-miterlimit="10" x1="5.5" y1="16.078" x2="5.5" y2="23.5"/>
			<path fill="none" stroke="#000000" stroke-linecap="round" stroke-linejoin="round" stroke-miterlimit="10" d="M7.5,15.786V19.5
				c0,1.104,0.896,2,2,2h4"/>
			<path fill="none" stroke="#000000" stroke-linecap="round" stroke-linejoin="round" stroke-miterlimit="10" d="M9,15.572V16
				c0,1.381,1.343,2.5,3,2.5s3-1.119,3-2.5v-0.43"/>
			<path fill="none" stroke="#000000" stroke-linecap="round" stroke-linejoin="round" stroke-miterlimit="10" d="M22.807,14.875
				c-0.586,0.936-1.555,0.797-2.491,0.21s-1.485-1.396-0.899-2.333C20.003,11.816,22.015,11.43,23.5,10
				C22.862,11.96,23.393,13.939,22.807,14.875z"/>
			<path fill="none" stroke="#000000" stroke-linecap="round" stroke-linejoin="round" stroke-miterlimit="10" d="M20.316,15.085
				c-0.341-0.214-0.629-0.458-0.831-0.727L14,23.5h4l3.539-7.962C21.148,15.508,20.729,15.344,20.316,15.085z"/>
		</g>
	</g>
</g>
<g id="Invisible_Shape">
	<rect fill="none" width="24" height="24"/>
</g>
</svg>
