<?xml version="1.0" encoding="utf-8"?>
<!-- Generator: Adobe Illustrator 16.0.3, SVG Export Plug-In . SVG Version: 6.00 Build 0)  -->
<!DOCTYPE svg PUBLIC "-//W3C//DTD SVG 1.1//EN" "http://www.w3.org/Graphics/SVG/1.1/DTD/svg11.dtd">
<svg version="1.1" xmlns="http://www.w3.org/2000/svg" xmlns:xlink="http://www.w3.org/1999/xlink" x="0px" y="0px" width="24px"
	 height="24px" viewBox="0 0 24 24" enable-background="new 0 0 24 24" xml:space="preserve">
<g id="Outline_Icons_1_">
	<g id="Outline_Icons">
		<g>
			<path fill="none" stroke="#000000" stroke-linejoin="round" stroke-miterlimit="10" d="M12,19.5c-1.5,0-2.5,4-2.5,4h5
				C14.5,23.5,13.5,19.5,12,19.5z"/>
			<path fill="none" stroke="#000000" stroke-linejoin="round" stroke-miterlimit="10" d="M12,16.5c-0.729,0-2-0.557-2.5-1.057v-1
				l-0.62,0.345c-0.742,0.36-1.548,1.295-1.809,2.077l-1.033,3.078L12,16.5z"/>
			<path fill="none" stroke="#000000" stroke-linejoin="round" stroke-miterlimit="10" d="M16.438,15.943c2.5,1,5.216,1.822,6,3
				c1,1.5,1.062,4.557,1.062,4.557h-23c0,0,0.062-3.057,1.062-4.557c0.784-1.178,3.5-2,6-3"/>
			<path fill="none" stroke="#000000" stroke-linejoin="round" stroke-miterlimit="10" d="M12,16.5c0.729,0,2-0.557,2.5-1.057v-1
				l0.62,0.345c0.742,0.36,1.548,1.295,1.809,2.077l1.033,3.078L12,16.5z"/>
			<path fill="none" stroke="#000000" stroke-linejoin="round" stroke-miterlimit="10" d="M10.5,17.366V18
				c0,0.828,0.671,1.5,1.5,1.5c0.828,0,1.5-0.672,1.5-1.5v-0.634"/>
			<path fill="none" stroke="#000000" stroke-linejoin="round" stroke-miterlimit="10" d="M14.5,15.443v-3c0,0,1.531-1,1.531-3
				c0.5,0,1.016-2,0.016-2.5c0-0.298,1.347-2.803,1.008-4.5c-0.5-2.5-7.496-2.5-7.996-0.5c-3,0-0.998,4.594-0.998,5
				c-1,0.5-0.53,2.5-0.03,2.5c0,2,1.47,3,1.47,3v3"/>
		</g>
	</g>
	<g id="New_icons_1_">
	</g>
</g>
<g id="Invisible_Shape">
	<rect fill="none" width="24" height="24"/>
</g>
</svg>
