<?xml version="1.0" encoding="utf-8"?>
<!-- Generator: Adobe Illustrator 16.0.3, SVG Export Plug-In . SVG Version: 6.00 Build 0)  -->
<!DOCTYPE svg PUBLIC "-//W3C//DTD SVG 1.1//EN" "http://www.w3.org/Graphics/SVG/1.1/DTD/svg11.dtd">
<svg version="1.1" xmlns="http://www.w3.org/2000/svg" xmlns:xlink="http://www.w3.org/1999/xlink" x="0px" y="0px" width="24px"
	 height="24px" viewBox="0 0 24 24" enable-background="new 0 0 24 24" xml:space="preserve">
<g id="Outline_Icons_1_">
	<g id="Outline_Icons">
		<g>
			<path fill="none" stroke="#000000" stroke-linejoin="round" stroke-miterlimit="10" d="M18,8.636V10c1,0.5,0.5,3-1,3
				c0,3-3.5,5-5,5s-5-2-5-5c-1.5,0-2-2.5-1-3V8.636"/>
			
				<line fill="none" stroke="#000000" stroke-linecap="round" stroke-linejoin="round" stroke-miterlimit="10" x1="11.5" y1="15.5" x2="12.5" y2="15.5"/>
			<path fill="none" stroke="#000000" stroke-linecap="round" stroke-linejoin="round" stroke-miterlimit="10" d="M12,9
				C6.5,9,2,8,2,8l4.5-2.5l2.5-5l3,2"/>
			<path fill="none" stroke="#000000" stroke-linecap="round" stroke-linejoin="round" stroke-miterlimit="10" d="M12,9
				c5.5,0,10-1,10-1l-4.5-2.5l-2.5-5l-3,2"/>
			<path fill="none" stroke="#000000" stroke-linecap="round" stroke-linejoin="round" stroke-miterlimit="10" d="M11,10
				c0,0.553-0.447,1-1,1H9c-0.553,0-1-0.447-1-1V9h3V10z"/>
			<path fill="none" stroke="#000000" stroke-linecap="round" stroke-linejoin="round" stroke-miterlimit="10" d="M16,10
				c0,0.553-0.447,1-1,1h-1c-0.553,0-1-0.447-1-1V9h3V10z"/>
			<path fill="none" stroke="#000000" stroke-linecap="round" stroke-linejoin="round" stroke-miterlimit="10" d="M4.5,23.5l1.5-3
				L3,21c0,0,0.5-5,0.5-7.5c0,0,1,0,1.5,0c0,5.5,9.388,10,11,10C14.5,23.5,4.5,23.5,4.5,23.5z"/>
			<path fill="none" stroke="#000000" stroke-linejoin="round" stroke-miterlimit="10" d="M3.403,16.598
				c-1,0.5-2.902,1.305-2.902,3.647V23.5H12"/>
			<path fill="none" stroke="#000000" stroke-linejoin="round" stroke-miterlimit="10" d="M20.633,16.598
				c1,0.5,2.867,1.305,2.867,3.647V23.5H12"/>
			<path fill="none" stroke="#000000" stroke-linejoin="round" stroke-miterlimit="10" d="M19.5,23.5l-1.5-3l3,0.5
				c0,0-0.5-5-0.5-7.5c0,0-1,0-1.5,0c-0.5,4-5.05,8.579-6.662,8.579"/>
			<path fill="none" stroke="#000000" stroke-linejoin="round" stroke-miterlimit="10" d="M6.5,5.5c0,0,2.5,1,5.5,1s5.5-1,5.5-1"/>
		</g>
	</g>
	<g id="New_icons_1_">
	</g>
</g>
<g id="Invisible_Shape">
	<rect fill="none" width="24" height="24"/>
</g>
</svg>
