<?xml version="1.0" encoding="utf-8"?>
<!-- Generator: Adobe Illustrator 16.0.3, SVG Export Plug-In . SVG Version: 6.00 Build 0)  -->
<!DOCTYPE svg PUBLIC "-//W3C//DTD SVG 1.1//EN" "http://www.w3.org/Graphics/SVG/1.1/DTD/svg11.dtd">
<svg version="1.1" xmlns="http://www.w3.org/2000/svg" xmlns:xlink="http://www.w3.org/1999/xlink" x="0px" y="0px" width="24px"
	 height="24px" viewBox="0 0 24 24" enable-background="new 0 0 24 24" xml:space="preserve">
<g id="Outline_Icons_1_">
	<g id="Outline_Icons">
		<g>
			<path fill="none" stroke="#000000" stroke-linecap="round" stroke-linejoin="round" stroke-miterlimit="10" d="M9,9.502
				c0-0.553,0.447-0.5,1-0.5s1-0.053,1,0.5"/>
			<path fill="none" stroke="#000000" stroke-linecap="round" stroke-linejoin="round" stroke-miterlimit="10" d="M13,9.502
				c0-0.553,0.447-0.5,1-0.5s1-0.053,1,0.5"/>
			<path fill="none" stroke="#000000" stroke-linecap="round" stroke-linejoin="round" stroke-miterlimit="10" d="M9.385,15.5
				C5.088,16.228,0.5,16.078,0.5,20.245V23.5h23v-3.255c0-4.168-4.476-3.991-8.93-4.745"/>
			<path fill="none" stroke="#000000" stroke-linecap="round" stroke-linejoin="round" stroke-miterlimit="10" d="M12,16.5
				c1.5,0,5-2,5-5c1.5,0,1.5-3,0-3L16.504,6c-4,0-3.998-1.5-4.498-2c-0.5,0.5-0.503,2-4.503,2L7,8.5c-1.5,0-1.5,3,0,3
				C7,14.5,10.5,16.5,12,16.5z"/>
			<path fill="none" stroke="#000000" stroke-linecap="round" stroke-linejoin="round" stroke-miterlimit="10" d="M18,9.262
				L18.508,5.5c0,0,0.5-5-6.5-5s-6.5,5-6.5,5L6,9.251"/>
			
				<circle fill="none" stroke="#000000" stroke-linecap="round" stroke-linejoin="round" stroke-miterlimit="10" cx="7.5" cy="20" r="1.5"/>
			
				<line fill="none" stroke="#000000" stroke-linecap="round" stroke-linejoin="round" stroke-miterlimit="10" x1="7.5" y1="15.779" x2="7.5" y2="18.5"/>
			
				<line fill="none" stroke="#000000" stroke-linecap="round" stroke-linejoin="round" stroke-miterlimit="10" x1="17.015" y1="15.855" x2="17" y2="17.5"/>
			<path fill="none" stroke="#000000" stroke-linecap="round" stroke-linejoin="round" stroke-miterlimit="10" d="M15.5,21.5
				c-0.5,0-1-0.5-1-0.93v-1.6c0-0.984,0.5-1.471,2.5-1.471"/>
			<path fill="none" stroke="#000000" stroke-linecap="round" stroke-linejoin="round" stroke-miterlimit="10" d="M18.5,21.5
				c0.5,0,1-0.5,1-0.93v-1.6c0-0.984-0.5-1.471-2.5-1.471"/>
			
				<line fill="none" stroke="#000000" stroke-linecap="round" stroke-linejoin="round" stroke-miterlimit="10" x1="11.5" y1="16.5" x2="11.5" y2="23.5"/>
		</g>
	</g>
	<g id="New_icons_1_">
	</g>
</g>
<g id="Invisible_Shape">
	<rect fill="none" width="24" height="24"/>
</g>
</svg>
