<?xml version="1.0" encoding="utf-8"?>
<!-- Generator: Adobe Illustrator 16.0.3, SVG Export Plug-In . SVG Version: 6.00 Build 0)  -->
<!DOCTYPE svg PUBLIC "-//W3C//DTD SVG 1.1//EN" "http://www.w3.org/Graphics/SVG/1.1/DTD/svg11.dtd">
<svg version="1.1" xmlns="http://www.w3.org/2000/svg" xmlns:xlink="http://www.w3.org/1999/xlink" x="0px" y="0px" width="24px"
	 height="24px" viewBox="0 0 24 24" enable-background="new 0 0 24 24" xml:space="preserve">
<g id="Outline_Icons_1_">
	<g id="Outline_Icons">
	</g>
	<g id="New_icons_1_">
		<path fill="none" stroke="#000000" stroke-linecap="round" stroke-linejoin="round" stroke-miterlimit="10" d="M9.437,15.5
			l-6.341,1.754C1.534,17.84,0.5,19.332,0.5,21v2.5h23V21c0-1.668-1.034-3.16-2.596-3.746L14.583,15.5"/>
		<path fill="none" stroke="#000000" stroke-linecap="round" stroke-linejoin="round" stroke-miterlimit="10" d="M9,9.502
			c0-0.553,0.448-0.5,1-0.5c0.553,0,1-0.053,1,0.5"/>
		<path fill="none" stroke="#000000" stroke-linecap="round" stroke-linejoin="round" stroke-miterlimit="10" d="M13,9.502
			c0-0.553,0.448-0.5,1-0.5c0.553,0,1-0.053,1,0.5"/>
		<path fill="none" stroke="#000000" stroke-linecap="round" stroke-linejoin="round" stroke-miterlimit="10" d="M17,6.373V8.5
			c1.5,0,1.5,3,0,3c0,3-3.5,5.027-5,5.027S7,14.5,7,11.5c-1.5,0-1.5-3,0-3V6.373"/>
		<path fill="none" stroke="#000000" stroke-linecap="round" stroke-linejoin="round" stroke-miterlimit="10" d="M5.911,10.393
			C3.896,9.934,2.5,9.256,2.5,8.5C2.5,7.119,6.753,6,12,6s9.5,1.119,9.5,2.5c0,0.756-1.393,1.435-3.411,1.893"/>
		<path fill="none" stroke="#000000" stroke-linecap="round" stroke-linejoin="round" stroke-miterlimit="10" d="M20,7.151
			c-2.102-1.456-3.485-3.38-4.153-5.308C15.567,1.039,14.809,0.5,13.958,0.5h-3.915c-0.852,0-1.61,0.539-1.889,1.344
			C7.485,3.771,6.102,5.695,4,7.151"/>
		<polyline fill="none" stroke="#000000" stroke-linecap="round" stroke-linejoin="round" stroke-miterlimit="10" points="5,23.5 
			6,20.5 18,20.5 19,23.5 		"/>
		<polyline fill="none" stroke="#000000" stroke-linejoin="round" stroke-miterlimit="10" points="5.511,16.586 6,20.5 8.5,20.5 
			7.988,15.901 		"/>
		<polyline fill="none" stroke="#000000" stroke-linejoin="round" stroke-miterlimit="10" points="18.489,16.586 18,20.5 15.5,20.5 
			16.012,15.901 		"/>
	</g>
</g>
<g id="Invisible_Shape">
	<rect fill="none" width="24" height="24"/>
</g>
</svg>
