<?xml version="1.0" encoding="utf-8"?>
<!-- Generator: Adobe Illustrator 16.0.3, SVG Export Plug-In . SVG Version: 6.00 Build 0)  -->
<!DOCTYPE svg PUBLIC "-//W3C//DTD SVG 1.1//EN" "http://www.w3.org/Graphics/SVG/1.1/DTD/svg11.dtd">
<svg version="1.1" xmlns="http://www.w3.org/2000/svg" xmlns:xlink="http://www.w3.org/1999/xlink" x="0px" y="0px" width="24px"
	 height="24px" viewBox="0 0 24 24" enable-background="new 0 0 24 24" xml:space="preserve">
<g id="Outline_Icons_1_">
	<g id="Outline_Icons">
		<g>
			<path fill="none" stroke="#000000" stroke-linecap="round" stroke-linejoin="round" stroke-miterlimit="10" d="M23.5,23.5
				c0,0-0.5-3.979-2.5-5.479s-6.5,0-6.5-3.5V12c0.5,1.5,3.5,2.521,5.5,0.021c-3,0,0-15-8-10c-8-5-5,10-8,10C6,14.521,9,13.5,9.5,12
				v2.521c0,3.5-4.5,2-6.5,3.5S0.5,23.5,0.5,23.5H23.5z"/>
			<line fill="none" stroke="#000000" stroke-linejoin="round" stroke-miterlimit="10" x1="18.364" y1="17.216" x2="14" y2="23.5"/>
			<line fill="none" stroke="#000000" stroke-linejoin="round" stroke-miterlimit="10" x1="5.636" y1="17.216" x2="10" y2="23.5"/>
			<g>
				<g>
					<path d="M10,17.021c-0.276,0-0.5,0.224-0.5,0.5s0.224,0.5,0.5,0.5c0.276,0,0.5-0.224,0.5-0.5S10.276,17.021,10,17.021
						L10,17.021z"/>
				</g>
			</g>
			<g>
				<g>
					<path d="M12,17.521c-0.276,0-0.5,0.224-0.5,0.5s0.224,0.5,0.5,0.5c0.276,0,0.5-0.224,0.5-0.5S12.276,17.521,12,17.521
						L12,17.521z"/>
				</g>
			</g>
			<g>
				<g>
					<path d="M14,17.021c-0.276,0-0.5,0.224-0.5,0.5s0.224,0.5,0.5,0.5c0.276,0,0.5-0.224,0.5-0.5S14.276,17.021,14,17.021
						L14,17.021z"/>
				</g>
			</g>
			<path fill="none" stroke="#000000" stroke-linecap="round" stroke-linejoin="round" stroke-miterlimit="10" d="M9.5,12
				c0,0-1.5-0.538-1-4.096"/>
			<path fill="none" stroke="#000000" stroke-linecap="round" stroke-linejoin="round" stroke-miterlimit="10" d="M9,6.521
				c0,0.5-0.5,2-1.5,2"/>
			<path fill="none" stroke="#000000" stroke-linecap="round" stroke-linejoin="round" stroke-miterlimit="10" d="M14.5,12
				c0,0,1.5-0.538,1-4.096"/>
			<path fill="none" stroke="#000000" stroke-linecap="round" stroke-linejoin="round" stroke-miterlimit="10" d="M15,6.521
				c0,0.5,0.5,2,1.5,2"/>
		</g>
	</g>
	<g id="New_icons_1_">
	</g>
</g>
<g id="Invisible_Shape">
	<rect fill="none" width="24" height="24"/>
</g>
</svg>
