<?xml version="1.0" encoding="utf-8"?>
<!-- Generator: Adobe Illustrator 16.0.3, SVG Export Plug-In . SVG Version: 6.00 Build 0)  -->
<!DOCTYPE svg PUBLIC "-//W3C//DTD SVG 1.1//EN" "http://www.w3.org/Graphics/SVG/1.1/DTD/svg11.dtd">
<svg version="1.1" xmlns="http://www.w3.org/2000/svg" xmlns:xlink="http://www.w3.org/1999/xlink" x="0px" y="0px" width="24px"
	 height="24px" viewBox="0 0 24 24" enable-background="new 0 0 24 24" xml:space="preserve">
<g id="Outline_Icons_1_">
	<g id="Outline_Icons">
	</g>
	<g id="New_icons_1_">
		<g>
			<path fill="none" stroke="#000000" stroke-linecap="round" stroke-linejoin="round" stroke-miterlimit="10" d="M9.437,16.5
				l-6.341,1.754C1.534,18.84,0.5,20.332,0.5,22v1.5h23V22c0-1.668-1.034-3.16-2.596-3.746L14.583,16.5"/>
			<path fill="none" stroke="#000000" stroke-linecap="round" stroke-linejoin="round" stroke-miterlimit="10" d="M9,11.5
				c0-0.553,0.448-0.5,1-0.5c0.553,0,1-0.053,1,0.5"/>
			<path fill="none" stroke="#000000" stroke-linecap="round" stroke-linejoin="round" stroke-miterlimit="10" d="M13,11.5
				c0-0.553,0.448-0.5,1-0.5c0.553,0,1-0.053,1,0.5"/>
			<path fill="none" stroke="#000000" stroke-linecap="round" stroke-linejoin="round" stroke-miterlimit="10" d="M17,8.058V9.5
				c1.5,0,1.5,3,0,3c0,3-3.5,5.027-5,5.027S7,15.5,7,12.5c-1.5,0-1.5-3,0-3V8.058"/>
			<path fill="none" stroke="#000000" stroke-linecap="round" stroke-linejoin="round" stroke-miterlimit="10" d="M7.5,17.035V18.5
				c0,1.104,0.896,2,2,2h5c1.104,0,2-0.896,2-2v-1.465"/>
			
				<line fill="none" stroke="#000000" stroke-linecap="round" stroke-linejoin="round" stroke-miterlimit="10" x1="4.5" y1="17.865" x2="4.5" y2="23.5"/>
			
				<line fill="none" stroke="#000000" stroke-linecap="round" stroke-linejoin="round" stroke-miterlimit="10" x1="19.5" y1="17.865" x2="19.5" y2="23.5"/>
			<path fill="none" stroke="#000000" stroke-linecap="round" stroke-linejoin="round" stroke-miterlimit="10" d="M13.434,1.232
				C15.455,1.873,17,3.387,17,5.621L18.5,6.5C18.5,6.5,18,9,12,9S5.5,6.5,5.5,6.5L7,5.621c0-2.234,1.545-3.748,3.566-4.389"/>
			<polyline fill="none" stroke="#000000" stroke-linecap="round" stroke-linejoin="round" stroke-miterlimit="10" points="
				12.943,6.473 13.5,0.5 10.5,0.5 11.057,6.473 			"/>
			<path fill="none" stroke="#000000" stroke-linecap="round" stroke-linejoin="round" stroke-miterlimit="10" d="M17,5.621
				C15.733,6.164,13.933,6.5,12,6.5S8.267,6.164,7,5.621"/>
		</g>
	</g>
</g>
<g id="Invisible_Shape">
	<rect fill="none" width="24" height="24"/>
</g>
</svg>
