<?xml version="1.0" encoding="utf-8"?>
<!-- Generator: Adobe Illustrator 16.0.3, SVG Export Plug-In . SVG Version: 6.00 Build 0)  -->
<!DOCTYPE svg PUBLIC "-//W3C//DTD SVG 1.1//EN" "http://www.w3.org/Graphics/SVG/1.1/DTD/svg11.dtd">
<svg version="1.1" xmlns="http://www.w3.org/2000/svg" xmlns:xlink="http://www.w3.org/1999/xlink" x="0px" y="0px" width="24px"
	 height="24px" viewBox="0 0 24 24" enable-background="new 0 0 24 24" xml:space="preserve">
<g id="Outline_Icons_1_">
	<g id="Outline_Icons">
		<g>
			<path fill="none" stroke="#000000" stroke-linecap="round" stroke-linejoin="round" stroke-miterlimit="10" d="M14.694,16.355
				c4.5,2,8.807,3.145,8.807,6.645v0.5h-23V23c0-3.5,4.306-4.645,8.806-6.645"/>
			<path fill="none" stroke="#000000" stroke-linecap="round" stroke-linejoin="round" stroke-miterlimit="10" d="M8,7.5h8
				l0.674-4.717c0.082-0.574-0.089-1.155-0.469-1.594C15.826,0.752,15.274,0.5,14.695,0.5H9.306c-0.579,0-1.131,0.252-1.511,0.689
				c-0.38,0.438-0.551,1.02-0.469,1.594L8,7.5z"/>
			
				<line fill="none" stroke="#000000" stroke-linecap="round" stroke-linejoin="round" stroke-miterlimit="10" x1="12" y1="2.5" x2="12" y2="5.5"/>
			
				<line fill="none" stroke="#000000" stroke-linecap="round" stroke-linejoin="round" stroke-miterlimit="10" x1="10.5" y1="4" x2="13.5" y2="4"/>
			<path fill="none" stroke="#000000" stroke-linejoin="round" stroke-miterlimit="10" d="M7.433,3.5C1.933,5.5,4,13.5,2,15
				c0,0,4.227,0.945,5.727-0.555"/>
			<path fill="none" stroke="#000000" stroke-linejoin="round" stroke-miterlimit="10" d="M16.569,3.525C22.069,5.525,20,13.5,22,15
				c0,0-4.217,0.956-5.717-0.544"/>
			<path fill="none" stroke="#000000" stroke-linecap="round" stroke-linejoin="round" stroke-miterlimit="10" d="M9,7.5
				c0,1-1.5,3.5-3.5,3.5"/>
			<path fill="none" stroke="#000000" stroke-linecap="round" stroke-linejoin="round" stroke-miterlimit="10" d="M17,10.5
				c0,6-3.5,6.5-5,7c-1.5-0.5-5-1-5-7"/>
			<path fill="none" stroke="#000000" stroke-linecap="round" stroke-linejoin="round" stroke-miterlimit="10" d="M15,7.5
				c0,1,1.5,3.5,3.5,3.5"/>
			
				<line fill="none" stroke="#000000" stroke-linecap="round" stroke-linejoin="round" stroke-miterlimit="10" x1="7.951" y1="16.955" x2="12" y2="21.5"/>
			
				<line fill="none" stroke="#000000" stroke-linecap="round" stroke-linejoin="round" stroke-miterlimit="10" x1="12" y1="21.5" x2="16.05" y2="16.955"/>
			
				<line fill="none" stroke="#000000" stroke-linecap="round" stroke-linejoin="round" stroke-miterlimit="10" x1="12" y1="21.5" x2="12" y2="23.5"/>
			<polyline fill="none" stroke="#000000" stroke-linejoin="round" stroke-miterlimit="10" points="6.52,17.553 8,21.5 
				11.549,20.992 			"/>
			<polyline fill="none" stroke="#000000" stroke-linejoin="round" stroke-miterlimit="10" points="17.481,17.553 16,21.5 
				12.452,20.992 			"/>
			<path fill="none" stroke="#000000" stroke-linecap="round" stroke-linejoin="round" stroke-miterlimit="10" d="M9,11.002
				c0-0.553,0.448-0.5,1-0.5s1-0.053,1,0.5"/>
			<path fill="none" stroke="#000000" stroke-linecap="round" stroke-linejoin="round" stroke-miterlimit="10" d="M13,11.002
				c0-0.553,0.448-0.5,1-0.5c0.553,0,1-0.053,1,0.5"/>
		</g>
	</g>
	<g id="New_icons_1_">
	</g>
</g>
<g id="Invisible_Shape">
	<rect fill="none" width="24" height="24"/>
</g>
</svg>
