<?xml version="1.0" encoding="utf-8"?>
<!-- Generator: Adobe Illustrator 16.0.3, SVG Export Plug-In . SVG Version: 6.00 Build 0)  -->
<!DOCTYPE svg PUBLIC "-//W3C//DTD SVG 1.1//EN" "http://www.w3.org/Graphics/SVG/1.1/DTD/svg11.dtd">
<svg version="1.1" xmlns="http://www.w3.org/2000/svg" xmlns:xlink="http://www.w3.org/1999/xlink" x="0px" y="0px" width="24px"
	 height="24px" viewBox="0 0 24 24" enable-background="new 0 0 24 24" xml:space="preserve">
<g id="Outline_Icons_1_">
	<g id="Outline_Icons">
	</g>
	<g id="New_icons_1_">
		<g>
			<path fill="none" stroke="#000000" stroke-linecap="round" stroke-linejoin="round" stroke-miterlimit="10" d="M18.5,10.5v1
				c-0.188,0.934-1.047,2-2,2h-3"/>
			<path fill="none" stroke="#000000" stroke-linecap="round" stroke-linejoin="round" stroke-miterlimit="10" d="M20,9
				c0,0.828-0.672,1.5-1.5,1.5h-1v-3h1C19.328,7.5,20,8.172,20,9z"/>
			
				<line fill="none" stroke="#000000" stroke-width="2" stroke-linecap="round" stroke-linejoin="round" stroke-miterlimit="10" x1="13.5" y1="13.5" x2="11.5" y2="13.5"/>
			<path fill="none" stroke="#000000" stroke-linecap="round" stroke-linejoin="round" stroke-miterlimit="10" d="M19.731,5.983
				C18.815,2.467,17.312-0.663,12,1.992c-10-5-6.5,10.5-11,10.5c1.5,3.5,6.11,2,6.11-0.5"/>
			<path fill="none" stroke="#000000" stroke-linecap="round" stroke-linejoin="round" stroke-miterlimit="10" d="M19.481,14.51
				c1.314,0.209,2.786-0.309,3.519-2.018c-0.979,0-1.579-0.732-2.021-1.828"/>
			<path fill="none" stroke="#000000" stroke-linecap="round" stroke-linejoin="round" stroke-miterlimit="10" d="M16.5,6.492
				c-4,0-4-1.5-4.5-2c-0.5,0.5-0.5,2-4.5,2l-0.5,2c-1.5,0-1.5,3,0,3c0.5,3,3.5,4.5,5,5"/>
			<path fill="none" stroke="#000000" stroke-linecap="round" stroke-linejoin="round" stroke-miterlimit="10" d="M14.471,15.238
				c-0.896,0.644-1.814,1.035-2.471,1.254"/>
			<path fill="none" stroke="#000000" stroke-linecap="round" stroke-linejoin="round" stroke-miterlimit="10" d="M14.471,15.238
				c4.5,2,9.029,3.254,9.029,6.754V23.5h-23v-1.508c0-3.5,4.528-4.754,9.028-6.754"/>
			<path fill="none" stroke="#000000" stroke-linecap="round" stroke-linejoin="round" stroke-miterlimit="10" d="M8,15.896
				c0,3,4,7.597,4,7.597"/>
			<path fill="none" stroke="#000000" stroke-linecap="round" stroke-linejoin="round" stroke-miterlimit="10" d="M16,15.896
				c0,3-4,7.596-4,7.596"/>
			<path fill="none" stroke="#000000" stroke-linecap="round" stroke-linejoin="round" stroke-miterlimit="10" d="M9,8.994
				c0-0.553,0.448-0.5,1-0.5c0.553,0,1-0.053,1,0.5"/>
			<path fill="none" stroke="#000000" stroke-linecap="round" stroke-linejoin="round" stroke-miterlimit="10" d="M13,8.994
				c0-0.553,0.448-0.5,1-0.5c0.553,0,1-0.053,1,0.5"/>
		</g>
	</g>
</g>
<g id="Invisible_Shape">
	<rect fill="none" width="24" height="24"/>
</g>
</svg>
