<?xml version="1.0" encoding="utf-8"?>
<!-- Generator: Adobe Illustrator 16.0.3, SVG Export Plug-In . SVG Version: 6.00 Build 0)  -->
<!DOCTYPE svg PUBLIC "-//W3C//DTD SVG 1.1//EN" "http://www.w3.org/Graphics/SVG/1.1/DTD/svg11.dtd">
<svg version="1.1" xmlns="http://www.w3.org/2000/svg" xmlns:xlink="http://www.w3.org/1999/xlink" x="0px" y="0px" width="24px"
	 height="24px" viewBox="0 0 24 24" enable-background="new 0 0 24 24" xml:space="preserve">
<g id="Outline_Icons_1_">
	<g id="Outline_Icons">
	</g>
	<g id="New_icons_1_">
		<g>
			<path fill="none" stroke="#000000" stroke-linecap="round" stroke-linejoin="round" stroke-miterlimit="10" d="M8,8
				c0-0.553,0.448-0.5,1-0.5c0.553,0,1-0.053,1,0.5"/>
			<path fill="none" stroke="#000000" stroke-linecap="round" stroke-linejoin="round" stroke-miterlimit="10" d="M14,8
				c0-0.553,0.448-0.5,1-0.5c0.553,0,1-0.053,1,0.5"/>
			<path fill="none" stroke="#000000" stroke-linecap="round" stroke-linejoin="round" stroke-miterlimit="10" d="M9.317,14.354
				l-6.222,1.838C1.534,16.777,0.5,18.27,0.5,19.938V23.5h23v-3.469c0-1.668-1.034-3.254-2.596-3.84l-6.222-1.838"/>
			<path fill="none" stroke="#000000" stroke-linecap="round" stroke-linejoin="round" stroke-miterlimit="10" d="M17,5.564
				C17,2.803,14.761,0.5,12,0.5S7,2.802,7,5.563"/>
			<path fill="none" stroke="#000000" stroke-linejoin="round" stroke-miterlimit="10" d="M12,5.5H7.5c-1.104,0-2,0.895-2,2v1.774
				C5.5,10.504,6.771,11.5,8,11.5c1.684,0,3.5-1,4-3.5c0.5,2.5,2.379,3.5,4,3.5c1.229,0,2.5-0.996,2.5-2.226V7.5
				c0-1.105-0.896-2-2-2H12z"/>
			
				<circle fill="none" stroke="#000000" stroke-linecap="round" stroke-linejoin="round" stroke-miterlimit="10" cx="12" cy="14.5" r="2.5"/>
			<path fill="none" stroke="#000000" stroke-linecap="round" stroke-linejoin="round" stroke-miterlimit="10" d="M7.11,11.352
				c0.326,1.336,1.328,2.404,2.393,3.117"/>
			<path fill="none" stroke="#000000" stroke-linecap="round" stroke-linejoin="round" stroke-miterlimit="10" d="M14.497,14.469
				c1.064-0.713,2.067-1.781,2.393-3.117"/>
			<path fill="none" stroke="#000000" stroke-linejoin="round" stroke-miterlimit="10" d="M17.495,15.185
				C17.377,17.583,14.962,19.5,12,19.5s-5.377-1.917-5.495-4.315"/>
			<path fill="none" stroke="#000000" stroke-linecap="round" stroke-linejoin="round" stroke-miterlimit="10" d="M9.035,14.438
				C7.328,14.188,1.5,13.142,1.5,10.5c0-1.657,1.343-2,3-2h1"/>
			
				<circle fill="none" stroke="#000000" stroke-linecap="round" stroke-linejoin="round" stroke-miterlimit="10" cx="19.5" cy="12.5" r="1"/>
			
				<circle fill="none" stroke="#000000" stroke-linecap="round" stroke-linejoin="round" stroke-miterlimit="10" cx="21" cy="8.5" r="0.5"/>
			
				<circle fill="none" stroke="#000000" stroke-linecap="round" stroke-linejoin="round" stroke-miterlimit="10" cx="22" cy="4.5" r="0.5"/>
		</g>
	</g>
</g>
<g id="Invisible_Shape">
	<rect fill="none" width="24" height="24"/>
</g>
</svg>
