<?xml version="1.0" encoding="utf-8"?>
<!-- Generator: Adobe Illustrator 16.0.3, SVG Export Plug-In . SVG Version: 6.00 Build 0)  -->
<!DOCTYPE svg PUBLIC "-//W3C//DTD SVG 1.1//EN" "http://www.w3.org/Graphics/SVG/1.1/DTD/svg11.dtd">
<svg version="1.1" xmlns="http://www.w3.org/2000/svg" xmlns:xlink="http://www.w3.org/1999/xlink" x="0px" y="0px" width="24px"
	 height="24px" viewBox="0 0 24 24" enable-background="new 0 0 24 24" xml:space="preserve">
<g id="Outline_Icons_1_">
	<g id="Outline_Icons">
		<g>
			<path fill="none" stroke="#000000" stroke-linecap="round" stroke-linejoin="round" stroke-miterlimit="10" d="M9,9.502
				c0-0.553,0.447-0.5,1-0.5s1-0.053,1,0.5"/>
			<path fill="none" stroke="#000000" stroke-linecap="round" stroke-linejoin="round" stroke-miterlimit="10" d="M13,9.502
				c0-0.553,0.447-0.5,1-0.5s1-0.053,1,0.5"/>
			<path fill="none" stroke="#000000" stroke-linecap="round" stroke-linejoin="round" stroke-miterlimit="10" d="M9.446,15.5
				C5.149,16.228,0.5,16.078,0.5,20.245V23.5h23v-3.255c0-4.168-4.477-3.991-8.93-4.745"/>
			<path fill="none" stroke="#000000" stroke-linecap="round" stroke-linejoin="round" stroke-miterlimit="10" d="M12,16.5
				c1.5,0,5-2,5-5c1.5,0,1.5-3,0-3L16.504,6c-3.008,0-3.998-0.5-4.498-1c-0.5,0.5-1.511,1-4.503,1L7,8.5c-1.5,0-1.5,3,0,3
				C7,14.5,10.5,16.5,12,16.5z"/>
			<path fill="none" stroke="#000000" stroke-linejoin="round" stroke-miterlimit="10" d="M17.997,9.251
				c0,0,0.229-0.976,0.444-4.275c0.079-1.216-0.212-2.429-0.84-3.474L17,0.5l-1.185,1.185c-0.205,0.204-0.489,0.312-0.778,0.291
				s-0.555-0.166-0.729-0.397L13.5,0.5l-0.7,0.934c-0.188,0.251-0.485,0.4-0.8,0.4s-0.611-0.149-0.8-0.4L10.5,0.5L9.692,1.578
				C9.518,1.81,9.252,1.955,8.963,1.976S8.39,1.889,8.185,1.685L7,0.5L6.399,1.502C5.77,2.551,5.481,3.756,5.56,4.976
				c0.216,3.3,0.46,4.275,0.46,4.275"/>
			<path fill="none" stroke="#000000" stroke-linecap="round" stroke-linejoin="round" stroke-miterlimit="10" d="M7,15.855
				l1.701,3.886c0.486,1.071,1.555,1.759,2.73,1.759h1.137c1.176,0,2.244-0.688,2.73-1.759l1.703-3.886"/>
			
				<line fill="none" stroke="#000000" stroke-linecap="round" stroke-linejoin="round" stroke-miterlimit="10" x1="4.5" y1="16.271" x2="3.5" y2="23.5"/>
			
				<line fill="none" stroke="#000000" stroke-linecap="round" stroke-linejoin="round" stroke-miterlimit="10" x1="19.414" y1="16.247" x2="20.5" y2="23.5"/>
		</g>
	</g>
	<g id="New_icons_1_">
	</g>
</g>
<g id="Invisible_Shape">
	<rect fill="none" width="24" height="24"/>
</g>
</svg>
