<?xml version="1.0" encoding="utf-8"?>
<!-- Generator: Adobe Illustrator 16.0.3, SVG Export Plug-In . SVG Version: 6.00 Build 0)  -->
<!DOCTYPE svg PUBLIC "-//W3C//DTD SVG 1.1//EN" "http://www.w3.org/Graphics/SVG/1.1/DTD/svg11.dtd">
<svg version="1.1" xmlns="http://www.w3.org/2000/svg" xmlns:xlink="http://www.w3.org/1999/xlink" x="0px" y="0px" width="24px"
	 height="24px" viewBox="0 0 24 24" enable-background="new 0 0 24 24" xml:space="preserve">
<g id="Outline_Icons">
	<g>
		<polyline fill="none" stroke="#000000" stroke-linecap="round" stroke-linejoin="round" stroke-miterlimit="10" points="21.02,8 
			23.507,7 23.02,4 		"/>
		<path fill="none" stroke="#000000" stroke-linecap="round" stroke-linejoin="round" stroke-miterlimit="10" d="M0.507,6.939
			C3.157,5.152,7.328,4,12.02,4c4.699,0,8.838,1.207,11.487,3"/>
		<g>
			<path fill="none" stroke="#000000" stroke-linejoin="round" stroke-miterlimit="10" d="M9.507,8.48c0-1.323,2-1.321,2,0v4.754
				l1.003,0.246l1.5-4.816c0.313-1.148,2.075-0.73,1.802,0.454L14.51,13.98c1.02,0.472,2.08,0.775,1.811,1.943
				c-0.13,0.563-0.746,4.002-0.85,4.576h-6.12L6.29,15.91c-1.215-1.857,1.836-2.502,3.217,0.59V8.48z"/>
		</g>
	</g>
</g>
<g id="Invisible_Shape">
	<rect fill="none" width="24" height="24"/>
</g>
</svg>
