<?xml version="1.0" encoding="utf-8"?>
<!-- Generator: Adobe Illustrator 16.0.3, SVG Export Plug-In . SVG Version: 6.00 Build 0)  -->
<!DOCTYPE svg PUBLIC "-//W3C//DTD SVG 1.1//EN" "http://www.w3.org/Graphics/SVG/1.1/DTD/svg11.dtd">
<svg version="1.1" xmlns="http://www.w3.org/2000/svg" xmlns:xlink="http://www.w3.org/1999/xlink" x="0px" y="0px" width="24px"
	 height="24px" viewBox="0 0 24 24" enable-background="new 0 0 24 24" xml:space="preserve">
<g id="Outline_Icons">
	<g>
		<polyline fill="none" stroke="#000000" stroke-linecap="round" stroke-linejoin="round" stroke-miterlimit="10" points="
			20.489,11.5 23.507,11 22.989,8 		"/>
		<path fill="none" stroke="#000000" stroke-linecap="round" stroke-linejoin="round" stroke-miterlimit="10" d="M6.47,8.088
			c-2.663,0.605-4.785,1.633-5.963,2.891"/>
		<path fill="none" stroke="#000000" stroke-linecap="round" stroke-linejoin="round" stroke-miterlimit="10" d="M23.507,11
			c-1.171-1.273-3.311-2.301-5.993-2.91"/>
		<path fill="none" stroke="#000000" stroke-linejoin="round" stroke-miterlimit="10" d="M10.507,6.48c0-0.553,0.447-1,1-1
			s1,0.447,1,1v4.754l3.92,1.17c0.654,0.189,1.047,0.855,0.894,1.52c-0.13,0.563-0.746,4.002-0.85,4.576h-6.12L7.29,13.91
			c-1.215-1.857,1.836-2.502,3.217,0.59V6.48z"/>
	</g>
</g>
<g id="Invisible_Shape">
	<rect fill="none" width="24" height="24"/>
</g>
</svg>
