<?xml version="1.0" encoding="utf-8"?>
<!-- Generator: Adobe Illustrator 16.0.3, SVG Export Plug-In . SVG Version: 6.00 Build 0)  -->
<!DOCTYPE svg PUBLIC "-//W3C//DTD SVG 1.1//EN" "http://www.w3.org/Graphics/SVG/1.1/DTD/svg11.dtd">
<svg version="1.1" xmlns="http://www.w3.org/2000/svg" xmlns:xlink="http://www.w3.org/1999/xlink" x="0px" y="0px" width="24px"
	 height="24px" viewBox="0 0 24 24" enable-background="new 0 0 24 24" xml:space="preserve">
<g id="Outline_Icons">
	<g>
		<g>
			<path fill="none" stroke="#000000" stroke-linejoin="round" stroke-miterlimit="10" d="M15.526,9.5c1.323,0,1.321,2,0,2h-4.754
				l-0.246,1.004l4.816,1.5c1.148,0.312,0.73,2.074-0.454,1.801l-4.862-1.301c-0.472,1.02-0.775,2.079-1.943,1.81
				c-0.563-0.13-4.002-0.745-4.576-0.85v-6.12l4.59-3.061c1.857-1.215,2.502,1.836-0.59,3.217H15.526z"/>
		</g>
		<polyline fill="none" stroke="#000000" stroke-linecap="round" stroke-linejoin="round" stroke-miterlimit="10" points="
			16.007,21.012 17.007,23.5 20.007,23.012 		"/>
		<path fill="none" stroke="#000000" stroke-linecap="round" stroke-linejoin="round" stroke-miterlimit="10" d="M17.067,0.5
			c1.787,2.65,2.939,6.82,2.939,11.512c0,4.699-1.207,8.838-3,11.488"/>
	</g>
</g>
<g id="Invisible_Shape">
	<rect fill="none" width="24" height="24"/>
</g>
</svg>
