<?xml version="1.0" encoding="utf-8"?>
<!-- Generator: Adobe Illustrator 16.0.3, SVG Export Plug-In . SVG Version: 6.00 Build 0)  -->
<!DOCTYPE svg PUBLIC "-//W3C//DTD SVG 1.1//EN" "http://www.w3.org/Graphics/SVG/1.1/DTD/svg11.dtd">
<svg version="1.1" xmlns="http://www.w3.org/2000/svg" xmlns:xlink="http://www.w3.org/1999/xlink" x="0px" y="0px" width="24px"
	 height="24px" viewBox="0 0 24 24" enable-background="new 0 0 24 24" xml:space="preserve">
<g id="Outline_Icons">
	<g>
		<path fill="none" stroke="#000000" stroke-linecap="round" stroke-linejoin="round" stroke-miterlimit="10" d="M8.504,12.832
			c-0.093-0.822-0.836-1.415-1.659-1.322c-0.823,0.094-1.415,0.835-1.322,1.658l0.168,1.491l2.981-0.337L8.504,12.832z"/>
		<path fill="none" stroke="#000000" stroke-linecap="round" stroke-linejoin="round" stroke-miterlimit="10" d="M19.491,22.33
			l0.987-8.945c0.212-1.921-1.174-3.65-3.095-3.863c-1.922-0.212-3.651,1.174-3.863,3.096l-0.987,8.944L11.5,21.551l-1.009-8.943
			c-0.217-1.92-1.95-3.302-3.871-3.085c-1.92,0.217-3.302,1.95-3.085,3.87l1.009,8.943"/>
		<path fill="none" stroke="#000000" stroke-linecap="round" stroke-linejoin="round" stroke-miterlimit="10" d="M15.509,12.836
			c0.091-0.824,0.832-1.418,1.655-1.326c0.823,0.09,1.417,0.832,1.327,1.655l-0.165,1.49l-2.981-0.329L15.509,12.836z"/>
		<path fill="none" stroke="#000000" stroke-linecap="round" stroke-linejoin="round" stroke-miterlimit="10" d="M16,4
			c3.364,0.315,6.131,1.701,7.5,3.5"/>
		<path fill="none" stroke="#000000" stroke-linecap="round" stroke-linejoin="round" stroke-miterlimit="10" d="M0.5,7.508
			C1.878,5.699,4.611,4.306,8,4"/>
		<polyline fill="none" stroke="#000000" stroke-linecap="round" stroke-linejoin="round" stroke-miterlimit="10" points="21,7.5 
			23.5,7.5 23.5,5 		"/>
		<polyline fill="none" stroke="#000000" stroke-linecap="round" stroke-linejoin="round" stroke-miterlimit="10" points="3,7.5 
			0.5,7.5 0.5,5 		"/>
	</g>
</g>
<g id="Invisible_Shape">
	<rect fill="none" width="24" height="24"/>
</g>
</svg>
