<?xml version="1.0" encoding="utf-8"?>
<!-- Generator: Adobe Illustrator 19.2.1, SVG Export Plug-In . SVG Version: 6.00 Build 0)  -->
<svg version="1.1" xmlns="http://www.w3.org/2000/svg" xmlns:xlink="http://www.w3.org/1999/xlink" x="0px" y="0px" width="24px"
	 height="24px" viewBox="0 0 24 24" enable-background="new 0 0 24 24" xml:space="preserve">
<g id="Filled_Icons">
	<path d="M19.854,6.147l-6-6C13.76,0.053,13.633,0,13.5,0h-13C0.225,0,0,0.224,0,0.5v23C0,23.776,0.225,24,0.5,24h19
		c0.276,0,0.5-0.224,0.5-0.5v-17C20,6.367,19.947,6.24,19.854,6.147z M4.91,18c0.303,0,0.64-0.065,0.808-0.846
		c0.059-0.27,0.331-0.434,0.595-0.384c0.269,0.059,0.441,0.324,0.384,0.595C6.404,18.717,5.564,19,4.91,19C3,19,3,16.974,3,16
		s0-3.001,1.91-3.001c0.654,0,1.495,0.283,1.786,1.635c0.058,0.271-0.114,0.536-0.384,0.595c-0.272,0.053-0.536-0.113-0.595-0.384
		c-0.167-0.78-0.505-0.846-0.808-0.846C4.394,13.999,4,14.146,4,16C4,17.853,4.394,18,4.91,18z M9.5,19
		c-0.919,0-1.683-0.752-1.739-1.713c-0.017-0.275,0.193-0.512,0.47-0.528c0.262-0.026,0.512,0.194,0.528,0.47
		C8.784,17.661,9.11,18,9.5,18c0.408,0,0.74-0.371,0.74-0.827c0-0.592-0.352-0.543-0.878-0.691c-1.09-0.205-1.604-0.758-1.604-1.656
		C7.758,13.818,8.539,13,9.5,13c0.917,0,1.681,0.751,1.737,1.711c0.017,0.275-0.193,0.512-0.47,0.528
		c-0.259,0.021-0.512-0.194-0.528-0.47C10.214,14.338,9.889,14,9.5,14c-0.409,0-0.742,0.37-0.742,0.825
		c0,0.446,0.229,0.567,0.712,0.657c1.049,0.196,1.771,0.595,1.771,1.69C11.24,18.181,10.46,19,9.5,19z M14.5,19
		c-0.919,0-1.683-0.752-1.739-1.713c-0.017-0.275,0.193-0.512,0.47-0.528c0.275-0.026,0.513,0.194,0.528,0.47
		C13.784,17.661,14.11,18,14.5,18c0.408,0,0.74-0.371,0.74-0.827c0-0.592-0.352-0.543-0.878-0.691
		c-1.09-0.205-1.604-0.758-1.604-1.656c0-1.007,0.781-1.825,1.742-1.825c0.917,0,1.681,0.751,1.737,1.711
		c0.017,0.275-0.193,0.512-0.47,0.528c-0.274,0.021-0.513-0.194-0.528-0.47C15.214,14.338,14.889,14,14.5,14
		c-0.409,0-0.742,0.37-0.742,0.825c0,0.446,0.229,0.567,0.712,0.657c1.049,0.196,1.771,0.595,1.771,1.69
		C16.24,18.181,15.46,19,14.5,19z M13,7V1l6,6H13z"/>
</g>
<g id="Invisible_Shape">
	<rect fill="none" width="24" height="24"/>
</g>
</svg>
