<?xml version="1.0" encoding="utf-8"?>
<!-- Generator: Adobe Illustrator 19.2.1, SVG Export Plug-In . SVG Version: 6.00 Build 0)  -->
<svg version="1.1" xmlns="http://www.w3.org/2000/svg" xmlns:xlink="http://www.w3.org/1999/xlink" x="0px" y="0px" width="24px"
	 height="24px" viewBox="0 0 24 24" enable-background="new 0 0 24 24" xml:space="preserve">
<g id="Filled_Icons">
	<g>
		<path d="M5.938,10H5v4.999h0.938c1.233,0,2.062-1.293,2.062-2.5C8,11.292,7.171,10,5.938,10z"/>
		<path d="M23.5,6h-23C0.224,6,0,6.224,0,6.5v12C0,18.776,0.224,19,0.5,19h23c0.276,0,0.5-0.224,0.5-0.5v-12
			C24,6.224,23.776,6,23.5,6z M5.938,15.999H4.5c-0.276,0-0.5-0.224-0.5-0.5V9.5C4,9.224,4.224,9,4.5,9h1.438
			C7.829,9,9,10.816,9,12.499C9,14.183,7.829,15.999,5.938,15.999z M15,15.5c0,0.276-0.224,0.5-0.5,0.5S14,15.776,14,15.5v-4.349
			l-1.084,1.626c-0.186,0.277-0.647,0.277-0.832,0L11,11.151V15.5c0,0.276-0.224,0.5-0.5,0.5S10,15.776,10,15.5v-6
			c0-0.49,0.641-0.689,0.916-0.277l1.584,2.376l1.584-2.376C14.358,8.81,15,9.008,15,9.5V15.5z M18,16c-1.374,0-2-1.814-2-3.5
			c0-2.322,0.673-3.5,2-3.5c1.111,0,1.78,0.468,1.987,1.39c0.061,0.27-0.108,0.537-0.377,0.598
			c-0.271,0.064-0.537-0.107-0.598-0.377C18.94,10.288,18.808,10,18,10c-0.247,0-1,0-1,2.5c0,1.356,0.458,2.5,1,2.5
			c0.774,0,0.966-0.512,0.996-2H18c-0.276,0-0.5-0.224-0.5-0.5S17.724,12,18,12h1.5c0.276,0,0.5,0.224,0.5,0.5
			C20,13.977,20,16,18,16z"/>
	</g>
</g>
<g id="Invisible_Shape">
	<rect fill="none" width="24" height="24"/>
</g>
</svg>
