<?xml version="1.0" encoding="utf-8"?>
<!-- Generator: Adobe Illustrator 19.2.1, SVG Export Plug-In . SVG Version: 6.00 Build 0)  -->
<svg version="1.1" xmlns="http://www.w3.org/2000/svg" xmlns:xlink="http://www.w3.org/1999/xlink" x="0px" y="0px" width="24px"
	 height="24px" viewBox="0 0 24 24" enable-background="new 0 0 24 24" xml:space="preserve">
<g id="Filled_Icons">
	<g>
		<path d="M19.854,6.147l-6-6C13.76,0.053,13.633,0,13.5,0h-13C0.225,0,0,0.224,0,0.5v23C0,23.776,0.225,24,0.5,24h19
			c0.276,0,0.5-0.224,0.5-0.5v-17C20,6.367,19.947,6.24,19.854,6.147z M7,18.5C7,18.776,6.776,19,6.5,19S6,18.776,6,18.5V17H4v1.5
			C4,18.776,3.776,19,3.5,19S3,18.776,3,18.5v-5C3,13.224,3.224,13,3.5,13S4,13.224,4,13.5V16h2v-2.5C6,13.224,6.224,13,6.5,13
			S7,13.224,7,13.5V18.5z M11.817,19.356c-0.178,0.175-0.388,0.229-0.594,0.229c-0.183,0-0.925-0.176-0.951-0.172
			c-0.353,0.266-0.852-0.041-0.774-0.482C8.016,18.596,8,16.812,8,16c0-0.898,0-3,2-3s2,2.102,2,3c0,0.643-0.013,1.891-0.745,2.556
			C11.771,18.31,12.214,18.967,11.817,19.356z M16.929,18.243c0.143,0.236,0.065,0.544-0.172,0.685
			c-0.232,0.142-0.542,0.067-0.685-0.172L15,16.971l-1.071,1.786c-0.144,0.239-0.453,0.313-0.686,0.172
			c-0.237-0.142-0.314-0.449-0.172-0.685L14.417,16l-1.346-2.243c-0.143-0.236-0.065-0.544,0.172-0.686
			c0.234-0.142,0.543-0.065,0.686,0.172L15,15.029l1.071-1.786c0.143-0.237,0.451-0.314,0.685-0.172
			c0.237,0.142,0.315,0.449,0.172,0.686L15.583,16L16.929,18.243z M13,7V1l6,6H13z"/>
		<path d="M11,16c0-1.85-0.453-2-1-2s-1,0.15-1,2s0.453,2,1,2S11,17.85,11,16z"/>
	</g>
</g>
<g id="Invisible_Shape">
	<rect fill="none" width="24" height="24"/>
</g>
</svg>
