<?xml version="1.0" encoding="utf-8"?>
<!-- Generator: Adobe Illustrator 19.2.1, SVG Export Plug-In . SVG Version: 6.00 Build 0)  -->
<svg version="1.1" xmlns="http://www.w3.org/2000/svg" xmlns:xlink="http://www.w3.org/1999/xlink" x="0px" y="0px" width="24px"
	 height="24px" viewBox="0 0 24 24" enable-background="new 0 0 24 24" xml:space="preserve">
<g id="Filled_Icons">
	<rect x="4" y="12" width="1" height="1"/>
	<rect x="6" y="7" width="1" height="1"/>
	<rect x="8" y="17" width="1" height="1"/>
	<path d="M10.508,17.786c-0.011-0.191-0.011-0.378-0.001-0.569c-0.3-0.174-0.282-0.151-0.507-0.381v1.334
		C10.231,17.935,10.21,17.959,10.508,17.786z"/>
	<g>
		<path d="M9.756,19.951C9.585,19.656,9.451,19.334,9.5,19h-2C7.224,19,7,18.776,7,18.5v-2C7,16.224,7.224,16,7.5,16h2
			c-0.049-0.333,0.083-0.654,0.254-0.95l1.5-2.599c0.395-0.688,1.262-1,2.256-0.429c0.159-0.101,0.322-0.195,0.49-0.283
			C14,10.584,14.681,10,15.5,10H17V5.5c0-0.133-0.053-0.26-0.146-0.353l-5-5C11.76,0.053,11.633,0,11.5,0h-11C0.225,0,0,0.224,0,0.5
			v21C0,21.776,0.225,22,0.5,22h10.439L9.756,19.951z M8,13.5C8,13.776,7.776,14,7.5,14S7,13.776,7,13.5v-2
			C7,11.224,7.224,11,7.5,11S8,11.224,8,11.5V13.5z M11,1l5,5h-5V1z M9,6.5C9,6.224,9.224,6,9.5,6S10,6.224,10,6.5v2
			C10,8.776,9.776,9,9.5,9S9,8.776,9,8.5V6.5z M9,11.5C9,11.224,9.224,11,9.5,11s0.5,0.224,0.5,0.5v2c0,0.276-0.224,0.5-0.5,0.5
			S9,13.776,9,13.5V11.5z M5,6.5C5,6.224,5.224,6,5.5,6h2C7.776,6,8,6.224,8,6.5v2C8,8.776,7.776,9,7.5,9h-2C5.224,9,5,8.776,5,8.5
			V6.5z M3,6.5C3,6.224,3.224,6,3.5,6S4,6.224,4,6.5v2C4,8.776,3.776,9,3.5,9S3,8.776,3,8.5V6.5z M4,18.5C4,18.776,3.776,19,3.5,19
			S3,18.776,3,18.5v-2C3,16.224,3.224,16,3.5,16S4,16.224,4,16.5V18.5z M6,18.5C6,18.776,5.776,19,5.5,19S5,18.776,5,18.5v-2
			C5,16.224,5.224,16,5.5,16S6,16.224,6,16.5V18.5z M6,13.5C6,13.776,5.776,14,5.5,14h-2C3.224,14,3,13.776,3,13.5v-2
			C3,11.224,3.224,11,3.5,11h2C5.776,11,6,11.224,6,11.5V13.5z"/>
		<path d="M23.195,18.77l-0.765-0.442c0.093-0.612,0.092-1.044,0.001-1.652l0.766-0.442c0.234-0.133,0.324-0.438,0.183-0.683
			l-1.5-2.599c-0.138-0.239-0.443-0.322-0.683-0.182l-0.765,0.441c-0.43-0.345-0.912-0.624-1.433-0.828V11.5
			c0-0.276-0.224-0.5-0.5-0.5h-3c-0.276,0-0.5,0.224-0.5,0.5v0.882c-0.521,0.204-1.003,0.483-1.433,0.828l-0.765-0.441
			c-0.237-0.139-0.545-0.058-0.683,0.182l-1.5,2.599c-0.142,0.245-0.052,0.55,0.183,0.683l0.766,0.442
			c-0.091,0.608-0.092,1.04,0.001,1.652l-0.765,0.442c-0.239,0.137-0.321,0.442-0.183,0.682l1.5,2.599
			c0.137,0.241,0.446,0.32,0.683,0.183l0.765-0.441c0.429,0.344,0.911,0.623,1.431,0.828V23.5c0,0.276,0.224,0.5,0.5,0.5h3
			c0.276,0,0.5-0.224,0.5-0.5v-0.881c0.52-0.205,1.002-0.484,1.431-0.828l0.765,0.441c0.237,0.138,0.546,0.058,0.683-0.183
			l1.5-2.599C23.517,19.212,23.435,18.906,23.195,18.77z M17,20c-1.379,0-2.5-1.121-2.5-2.5S15.621,15,17,15s2.5,1.121,2.5,2.5
			S18.379,20,17,20z"/>
	</g>
</g>
<g id="Invisible_Shape">
	<rect fill="none" width="24" height="24"/>
</g>
</svg>
