<?xml version="1.0" encoding="utf-8"?>
<!-- Generator: Adobe Illustrator 19.2.1, SVG Export Plug-In . SVG Version: 6.00 Build 0)  -->
<svg version="1.1" xmlns="http://www.w3.org/2000/svg" xmlns:xlink="http://www.w3.org/1999/xlink" x="0px" y="0px" width="24px"
	 height="24px" viewBox="0 0 24 24" enable-background="new 0 0 24 24" xml:space="preserve">
<g id="Filled_Icons">
	<g>
		<path d="M15.271,10.001H14v2.001l1.271-0.001c0.39,0,0.74-0.076,0.74-1C16.012,10.538,15.689,10.001,15.271,10.001z"/>
		<path d="M15.271,13.001c0,0-1.261,0-1.271-0.001v2.001h1.271c0.417,0,0.74-0.537,0.74-1
			C16.012,13.077,15.661,13.001,15.271,13.001z"/>
		<path d="M9.5,11c0-0.53-0.359-0.986-0.501-1H8v2h1C9.141,11.986,9.5,11.53,9.5,11z"/>
		<path d="M23.5,6h-23C0.224,6,0,6.224,0,6.5v12C0,18.776,0.224,19,0.5,19h23c0.276,0,0.5-0.224,0.5-0.5v-12
			C24,6.224,23.776,6,23.5,6z M10.458,15.345c0.086,0.262-0.058,0.545-0.32,0.631c-0.266,0.085-0.545-0.061-0.631-0.32L8.638,13H8
			v2.5C8,15.776,7.776,16,7.5,16S7,15.776,7,15.5v-6C7,9.224,7.224,9,7.5,9H9c0.845,0,1.5,1.075,1.5,2
			c0,0.68-0.356,1.436-0.878,1.792L10.458,15.345z M17.012,14c0,0.966-0.699,2-1.74,2H13.5c-0.276,0-0.5-0.224-0.5-0.5v-6
			C13,9.224,13.224,9,13.5,9h1.771c1.041,0,1.74,1.034,1.74,2c0,0.731-0.192,1.201-0.464,1.5C16.819,12.799,17.012,13.269,17.012,14
			z"/>
	</g>
</g>
<g id="Invisible_Shape">
	<rect fill="none" width="24" height="24"/>
</g>
</svg>
