<?xml version="1.0" encoding="utf-8"?>
<!-- Generator: Adobe Illustrator 19.2.1, SVG Export Plug-In . SVG Version: 6.00 Build 0)  -->
<svg version="1.1" xmlns="http://www.w3.org/2000/svg" xmlns:xlink="http://www.w3.org/1999/xlink" x="0px" y="0px" width="24px"
	 height="24px" viewBox="0 0 24 24" enable-background="new 0 0 24 24" xml:space="preserve">
<g id="Filled_Icons">
	<g>
		<path d="M9.742,10.001H9v2.001h0.742c1.167,0,1.258-0.766,1.258-1C11,10.768,10.909,10.001,9.742,10.001z"/>
		<path d="M23.5,6h-23C0.224,6,0,6.224,0,6.5v12C0,18.776,0.224,19,0.5,19h23c0.276,0,0.5-0.224,0.5-0.5v-12
			C24,6.224,23.776,6,23.5,6z M9.742,13.002H9V15.5C9,15.776,8.776,16,8.5,16S8,15.776,8,15.5V9.501c0-0.276,0.224-0.5,0.5-0.5
			h1.242c1.552,0,2.258,1.037,2.258,2.001C12,11.965,11.294,13.002,9.742,13.002z M17.915,9.808L16,12.653V15.5
			c0,0.276-0.224,0.5-0.5,0.5S15,15.776,15,15.5v-2.847l-1.915-2.846c-0.154-0.229-0.093-0.54,0.136-0.694
			c0.227-0.153,0.539-0.095,0.694,0.136l1.585,2.356l1.585-2.356c0.155-0.229,0.467-0.288,0.694-0.136
			C18.008,9.268,18.069,9.578,17.915,9.808z"/>
	</g>
</g>
<g id="Invisible_Shape">
	<rect fill="none" width="24" height="24"/>
</g>
</svg>
