<?xml version="1.0" encoding="utf-8"?>
<!-- Generator: Adobe Illustrator 19.2.1, SVG Export Plug-In . SVG Version: 6.00 Build 0)  -->
<svg version="1.1" xmlns="http://www.w3.org/2000/svg" xmlns:xlink="http://www.w3.org/1999/xlink" x="0px" y="0px" width="24px"
	 height="24px" viewBox="0 0 24 24" enable-background="new 0 0 24 24" xml:space="preserve">
<g id="Filled_Icons">
	<path d="M19.854,6.147l-6-6C13.76,0.053,13.633,0,13.5,0h-13C0.225,0,0,0.224,0,0.5v23C0,23.776,0.225,24,0.5,24h19
		c0.276,0,0.5-0.224,0.5-0.5v-17C20,6.367,19.947,6.24,19.854,6.147z M6.929,18.243c0.143,0.236,0.065,0.544-0.172,0.685
		c-0.232,0.142-0.542,0.067-0.686-0.172L5,16.971l-1.071,1.786c-0.143,0.239-0.453,0.313-0.685,0.172
		c-0.237-0.142-0.315-0.449-0.172-0.685L4.417,16l-1.346-2.243c-0.143-0.236-0.065-0.544,0.172-0.686
		c0.235-0.142,0.543-0.065,0.685,0.172L5,15.029l1.071-1.786c0.143-0.237,0.452-0.314,0.686-0.172
		c0.237,0.142,0.314,0.449,0.172,0.686L5.583,16L6.929,18.243z M13,18.502c0,0.276-0.224,0.5-0.5,0.5s-0.5-0.224-0.5-0.5v-3.576
		l-1.109,1.388c-0.189,0.236-0.592,0.236-0.781,0L9,14.926v3.576c0,0.276-0.224,0.5-0.5,0.5S8,18.778,8,18.502V13.5
		c0-0.465,0.592-0.686,0.891-0.312L10.5,15.2l1.609-2.013C12.408,12.814,13,13.035,13,13.5V18.502z M17,19h-2.5
		c-0.276,0-0.5-0.224-0.5-0.5v-5c0-0.276,0.224-0.5,0.5-0.5s0.5,0.224,0.5,0.5V18h2c0.276,0,0.5,0.224,0.5,0.5S17.276,19,17,19z
		 M13,7V1l6,6H13z"/>
</g>
<g id="Invisible_Shape">
	<rect fill="none" width="24" height="24"/>
</g>
</svg>
