<?xml version="1.0" encoding="utf-8"?>
<!-- Generator: Adobe Illustrator 19.2.1, SVG Export Plug-In . SVG Version: 6.00 Build 0)  -->
<svg version="1.1" xmlns="http://www.w3.org/2000/svg" xmlns:xlink="http://www.w3.org/1999/xlink" x="0px" y="0px" width="24px"
	 height="24px" viewBox="0 0 24 24" enable-background="new 0 0 24 24" xml:space="preserve">
<g id="Filled_Icons">
	<g>
		<path d="M19.854,6.147l-6-6C13.76,0.053,13.633,0,13.5,0h-13C0.225,0,0,0.224,0,0.5v23C0,23.776,0.225,24,0.5,24h19
			c0.276,0,0.5-0.224,0.5-0.5v-17C20,6.367,19.947,6.24,19.854,6.147z M4.5,19h-1C3.224,19,3,18.776,3,18.5v-5
			C3,13.224,3.224,13,3.5,13h1C5.925,13,7,14.29,7,16S5.925,19,4.5,19z M13,18.502c0,0.276-0.224,0.5-0.5,0.5s-0.5-0.224-0.5-0.5
			v-3.576l-1.109,1.388c-0.189,0.236-0.592,0.236-0.781,0L9,14.926v3.576c0,0.276-0.224,0.5-0.5,0.5S8,18.778,8,18.502V13.5
			c0-0.469,0.595-0.684,0.891-0.312L10.5,15.2l1.609-2.013C12.405,12.816,13,13.031,13,13.5V18.502z M16,19c-2,0-2-2.103-2-3
			c0-0.898,0-3,2-3c1.06,0,1.631,0.429,1.847,1.39c0.061,0.27-0.108,0.537-0.377,0.598c-0.271,0.064-0.537-0.107-0.598-0.377
			C16.767,14.144,16.633,14,16,14c-0.547,0-1,0.15-1,2s0.453,2,1,2c0.231,0,0.731,0,0.932-1H16c-0.276,0-0.5-0.224-0.5-0.5
			S15.724,16,16,16h1.5c0.289,0,0.52,0.245,0.499,0.535C17.854,18.572,16.832,19,16,19z M13,7V1l6,6H13z"/>
		<path d="M4.5,14H4v4h0.5C5.369,18,6,17.159,6,16S5.369,14,4.5,14z"/>
	</g>
</g>
<g id="Invisible_Shape">
	<rect fill="none" width="24" height="24"/>
</g>
</svg>
