<?xml version="1.0" encoding="utf-8"?>
<!-- Generator: Adobe Illustrator 19.2.1, SVG Export Plug-In . SVG Version: 6.00 Build 0)  -->
<svg version="1.1" xmlns="http://www.w3.org/2000/svg" xmlns:xlink="http://www.w3.org/1999/xlink" x="0px" y="0px" width="24px"
	 height="24px" viewBox="0 0 24 24" enable-background="new 0 0 24 24" xml:space="preserve">
<g id="Filled_Icons">
	<g>
		<path d="M4.75,14H4v1.5h0.75c0.413,0,0.75-0.337,0.75-0.75S5.163,14,4.75,14z"/>
		<path d="M14.75,14H14v1.5h0.75c0.413,0,0.75-0.337,0.75-0.75S15.163,14,14.75,14z"/>
		<path d="M19.854,6.147l-6-6C13.76,0.053,13.633,0,13.5,0h-13C0.225,0,0,0.224,0,0.5v23C0,23.776,0.225,24,0.5,24h19
			c0.276,0,0.5-0.224,0.5-0.5v-17C20,6.367,19.947,6.24,19.854,6.147z M4.75,16.5H4v2C4,18.776,3.776,19,3.5,19S3,18.776,3,18.5v-5
			C3,13.224,3.224,13,3.5,13h1.25c0.965,0,1.75,0.785,1.75,1.75S5.715,16.5,4.75,16.5z M12,18.5c0,0.276-0.224,0.5-0.5,0.5
			S11,18.776,11,18.5V17H9v1.5C9,18.776,8.776,19,8.5,19S8,18.776,8,18.5v-5C8,13.224,8.224,13,8.5,13S9,13.224,9,13.5V16h2v-2.5
			c0-0.276,0.224-0.5,0.5-0.5s0.5,0.224,0.5,0.5V18.5z M14.75,16.5H14v2c0,0.276-0.224,0.5-0.5,0.5S13,18.776,13,18.5v-5
			c0-0.276,0.224-0.5,0.5-0.5h1.25c0.965,0,1.75,0.785,1.75,1.75S15.715,16.5,14.75,16.5z M13,7V1l6,6H13z"/>
	</g>
</g>
<g id="Invisible_Shape">
	<rect fill="none" width="24" height="24"/>
</g>
</svg>
