<?xml version="1.0" encoding="utf-8"?>
<!-- Generator: Adobe Illustrator 19.2.1, SVG Export Plug-In . SVG Version: 6.00 Build 0)  -->
<svg version="1.1" xmlns="http://www.w3.org/2000/svg" xmlns:xlink="http://www.w3.org/1999/xlink" x="0px" y="0px" width="24px"
	 height="24px" viewBox="0 0 24 24" enable-background="new 0 0 24 24" xml:space="preserve">
<g id="Filled_Icons">
	<g>
		<path d="M14,14c-0.547,0-1,0.15-1,2s0.453,2,1,2s1-0.15,1-2S14.547,14,14,14z"/>
		<path d="M19.854,6.147l-6-6C13.76,0.053,13.633,0,13.5,0h-13C0.225,0,0,0.224,0,0.5v23C0,23.776,0.225,24,0.5,24h19
			c0.276,0,0.5-0.224,0.5-0.5v-17C20,6.367,19.947,6.24,19.854,6.147z M5,18.5C5,18.776,4.776,19,4.5,19S4,18.776,4,18.5v-5
			C4,13.224,4.224,13,4.5,13S5,13.224,5,13.5V18.5z M8.5,19c-0.919,0-1.683-0.752-1.739-1.713c-0.017-0.275,0.193-0.512,0.47-0.528
			c0.279-0.039,0.513,0.194,0.528,0.47C7.784,17.661,8.11,18,8.5,18c0.408,0,0.74-0.371,0.74-0.827c0-0.592-0.352-0.543-0.878-0.691
			c-1.09-0.205-1.604-0.758-1.604-1.656C6.758,13.818,7.539,13,8.5,13c0.917,0,1.681,0.751,1.737,1.711
			c0.017,0.275-0.193,0.512-0.47,0.528c-0.269,0.037-0.512-0.193-0.528-0.47C9.214,14.338,8.889,14,8.5,14
			c-0.409,0-0.742,0.37-0.742,0.825c0,0.446,0.229,0.567,0.712,0.657c1.049,0.196,1.771,0.595,1.771,1.69
			C10.24,18.181,9.46,19,8.5,19z M14,19c-2,0-2-2.103-2-3c0-0.898,0-3,2-3s2,2.102,2,3C16,16.897,16,19,14,19z M13,7V1l6,6H13z"/>
	</g>
</g>
<g id="Invisible_Shape">
	<rect fill="none" width="24" height="24"/>
</g>
</svg>
