<?xml version="1.0" encoding="utf-8"?>
<!-- Generator: Adobe Illustrator 19.2.1, SVG Export Plug-In . SVG Version: 6.00 Build 0)  -->
<svg version="1.1" xmlns="http://www.w3.org/2000/svg" xmlns:xlink="http://www.w3.org/1999/xlink" x="0px" y="0px" width="24px"
	 height="24px" viewBox="0 0 24 24" enable-background="new 0 0 24 24" xml:space="preserve">
<g id="Filled_Icons">
	<g>
		<path d="M17.5,24c3.59,0,6.5-2.91,6.5-6.5c0-3.589-2.91-6.5-6.5-6.5S11,13.911,11,17.5C11,21.09,13.91,24,17.5,24z M15,18
			c0.195-0.195,0.512-0.195,0.707,0L17,19.293V14.5c0-0.276,0.224-0.5,0.5-0.5s0.5,0.224,0.5,0.5v4.793L19.293,18
			c0.195-0.195,0.512-0.195,0.707,0s0.195,0.512,0,0.707l-2.146,2.147c-0.195,0.194-0.512,0.194-0.707,0L15,18.707
			C14.805,18.512,14.805,18.195,15,18z"/>
		<g>
			<rect x="8" y="17" width="1" height="1"/>
			<rect x="6" y="7" width="1" height="1"/>
			<rect x="4" y="12" width="1" height="1"/>
			<path d="M10,17.5v1c0,0.276-0.224,0.5-0.5,0.5h-2C7.224,19,7,18.776,7,18.5v-2C7,16.224,7.224,16,7.5,16h2
				c0.276,0,0.5,0.224,0.5,0.5V17.5c0-3.974,3.092-7.217,7-7.475V5.5c0-0.133-0.053-0.26-0.146-0.353l-5-5
				C11.76,0.053,11.633,0,11.5,0h-11C0.225,0,0,0.224,0,0.5v21C0,21.776,0.225,22,0.5,22h11.01C10.566,20.746,10,19.191,10,17.5z
				 M8,13.5C8,13.776,7.776,14,7.5,14S7,13.776,7,13.5v-2C7,11.224,7.224,11,7.5,11S8,11.224,8,11.5V13.5z M11,1l5,5h-5V1z M9,6.5
				C9,6.224,9.224,6,9.5,6S10,6.224,10,6.5v2C10,8.776,9.776,9,9.5,9S9,8.776,9,8.5V6.5z M9,11.5C9,11.224,9.224,11,9.5,11
				s0.5,0.224,0.5,0.5v2c0,0.276-0.224,0.5-0.5,0.5S9,13.776,9,13.5V11.5z M5,6.5C5,6.224,5.224,6,5.5,6h2C7.776,6,8,6.224,8,6.5v2
				C8,8.776,7.776,9,7.5,9h-2C5.224,9,5,8.776,5,8.5V6.5z M3,6.5C3,6.224,3.224,6,3.5,6S4,6.224,4,6.5v2C4,8.776,3.776,9,3.5,9
				S3,8.776,3,8.5V6.5z M4,18.5C4,18.776,3.776,19,3.5,19S3,18.776,3,18.5v-2C3,16.224,3.224,16,3.5,16S4,16.224,4,16.5V18.5z
				 M6,18.5C6,18.776,5.776,19,5.5,19S5,18.776,5,18.5v-2C5,16.224,5.224,16,5.5,16S6,16.224,6,16.5V18.5z M6,13.5
				C6,13.776,5.776,14,5.5,14h-2C3.224,14,3,13.776,3,13.5v-2C3,11.224,3.224,11,3.5,11h2C5.776,11,6,11.224,6,11.5V13.5z"/>
		</g>
	</g>
</g>
<g id="Invisible_Shape">
	<rect fill="none" width="24" height="24"/>
</g>
</svg>
