<?xml version="1.0" encoding="utf-8"?>
<!-- Generator: Adobe Illustrator 19.2.1, SVG Export Plug-In . SVG Version: 6.00 Build 0)  -->
<svg version="1.1" xmlns="http://www.w3.org/2000/svg" xmlns:xlink="http://www.w3.org/1999/xlink" x="0px" y="0px" width="24px"
	 height="24px" viewBox="0 0 24 24" enable-background="new 0 0 24 24" xml:space="preserve">
<g id="Filled_Icons">
	<g>
		<path d="M17.5,11c-3.584,0-6.5,2.916-6.5,6.5s2.916,6.5,6.5,6.5s6.5-2.916,6.5-6.5S21.084,11,17.5,11z M17.5,22.003
			c-0.383,0-0.691-0.309-0.691-0.691c0-0.38,0.309-0.689,0.691-0.689c0.382,0,0.691,0.309,0.691,0.689
			C18.191,21.694,17.882,22.003,17.5,22.003z M18,18.463V19c0,0.276-0.224,0.5-0.5,0.5S17,19.276,17,19v-0.991
			c0-0.276,0.224-0.5,0.5-0.5c0.869,0,1.5-0.636,1.5-1.509c0-0.869-0.631-1.5-1.5-1.5S16,15.131,16,16c0,0.276-0.224,0.5-0.5,0.5
			S15,16.276,15,16c0-1.425,1.074-2.5,2.5-2.5S20,14.575,20,16C20,17.258,19.17,18.243,18,18.463z"/>
		<path d="M16.854,5.147l-5-5C11.76,0.053,11.633,0,11.5,0h-11C0.225,0,0,0.224,0,0.5v21C0,21.776,0.225,22,0.5,22h10.988
			C10.558,20.751,10,19.208,10,17.534c0-3.967,3.098-7.216,7-7.475V5.5C17,5.367,16.947,5.24,16.854,5.147z M5.851,14.143
			c0.195,0.195,0.195,0.512,0,0.707c-0.195,0.195-0.512,0.195-0.707,0l-3-3c-0.195-0.195-0.195-0.512,0-0.707l3-3
			c0.195-0.195,0.512-0.195,0.707,0c0.195,0.195,0.195,0.512,0,0.707l-2.646,2.647L5.851,14.143z M11.851,11.85l-3,3
			c-0.195,0.195-0.512,0.195-0.707,0c-0.195-0.195-0.195-0.512,0-0.707l2.646-2.646L8.144,8.85c-0.195-0.195-0.195-0.512,0-0.707
			c0.195-0.195,0.512-0.195,0.707,0l3,3C12.046,11.338,12.046,11.654,11.851,11.85z M11,6V1l5,5H11z"/>
	</g>
</g>
<g id="Invisible_Shape">
	<rect fill="none" width="24" height="24"/>
</g>
</svg>
