<?xml version="1.0" encoding="utf-8"?>
<!-- Generator: Adobe Illustrator 19.2.1, SVG Export Plug-In . SVG Version: 6.00 Build 0)  -->
<svg version="1.1" xmlns="http://www.w3.org/2000/svg" xmlns:xlink="http://www.w3.org/1999/xlink" x="0px" y="0px" width="24px"
	 height="24px" viewBox="0 0 24 24" enable-background="new 0 0 24 24" xml:space="preserve">
<g id="Filled_Icons">
	<g>
		<path d="M16.966,10C16.702,10,16,10,16,12.5s0.702,2.5,0.966,2.5C17.82,15,18,13.641,18,12.5S17.82,10,16.966,10z"/>
		<path d="M23.5,6h-23C0.224,6,0,6.224,0,6.5v12C0,18.776,0.224,19,0.5,19h23c0.276,0,0.5-0.224,0.5-0.5v-12
			C24,6.224,23.776,6,23.5,6z M7,15.5C7,15.776,6.776,16,6.5,16S6,15.776,6,15.5v-6C6,9.224,6.224,9,6.5,9S7,9.224,7,9.5V15.5z
			 M11.26,16c-0.919,0-1.683-0.752-1.739-1.712c-0.017-0.275,0.193-0.512,0.47-0.528c0.27-0.038,0.512,0.194,0.528,0.47
			C10.544,14.661,10.87,15,11.26,15c0.408,0,0.74-0.371,0.74-0.826c0-0.772-0.381-1.02-1.055-1.392
			c-0.635-0.351-1.426-0.789-1.426-1.957C9.519,9.818,10.301,9,11.262,9c0.917,0,1.681,0.751,1.737,1.711
			c0.017,0.275-0.193,0.512-0.47,0.528c-0.267,0.03-0.512-0.194-0.528-0.47C11.976,10.338,11.65,10,11.262,10
			c-0.409,0-0.742,0.37-0.742,0.825c0,0.554,0.295,0.742,0.91,1.082c0.662,0.366,1.57,0.868,1.57,2.267C13,15.181,12.22,16,11.26,16
			z M16.966,16C15,16,15,13.365,15,12.5S15,9,16.966,9C17.894,9,19,9.607,19,12.5S17.894,16,16.966,16z"/>
	</g>
</g>
<g id="Invisible_Shape">
	<rect fill="none" width="24" height="24"/>
</g>
</svg>
