<?xml version="1.0" encoding="utf-8"?>
<!-- Generator: Adobe Illustrator 19.2.1, SVG Export Plug-In . SVG Version: 6.00 Build 0)  -->
<svg version="1.1" xmlns="http://www.w3.org/2000/svg" xmlns:xlink="http://www.w3.org/1999/xlink" x="0px" y="0px" width="24px"
	 height="24px" viewBox="0 0 24 24" enable-background="new 0 0 24 24" xml:space="preserve">
<g id="Filled_Icons">
	<path d="M23.5,6h-23C0.224,6,0,6.224,0,6.5v12C0,18.776,0.224,19,0.5,19h23c0.276,0,0.5-0.224,0.5-0.5v-12
		C24,6.224,23.776,6,23.5,6z M7,15.5C7,15.776,6.776,16,6.5,16S6,15.776,6,15.5V13H4v2.5C4,15.776,3.776,16,3.5,16S3,15.776,3,15.5
		v-6C3,9.224,3.224,9,3.5,9S4,9.224,4,9.5V12h2V9.5C6,9.224,6.224,9,6.5,9S7,9.224,7,9.5V15.5z M11,10h-1v5.5
		c0,0.276-0.224,0.5-0.5,0.5S9,15.776,9,15.5V10H8.019c-0.276,0-0.5-0.224-0.5-0.5S7.743,9,8.019,9H11c0.276,0,0.5,0.224,0.5,0.5
		S11.276,10,11,10z M17,15.5c0,0.276-0.224,0.5-0.5,0.5S16,15.776,16,15.5v-4.349l-1.084,1.626c-0.186,0.277-0.647,0.277-0.832,0
		L13,11.151V15.5c0,0.276-0.224,0.5-0.5,0.5S12,15.776,12,15.5v-6c0-0.492,0.643-0.688,0.916-0.277l1.584,2.376l1.584-2.376
		C16.358,8.81,17,9.008,17,9.5V15.5z M20.98,16H18.5c-0.276,0-0.5-0.224-0.5-0.5v-6C18,9.224,18.224,9,18.5,9S19,9.224,19,9.5V15
		h1.98c0.276,0,0.5,0.224,0.5,0.5S21.257,16,20.98,16z"/>
</g>
<g id="Invisible_Shape">
	<rect fill="none" width="24" height="24"/>
</g>
</svg>
