<?xml version="1.0" encoding="utf-8"?>
<!-- Generator: Adobe Illustrator 19.2.1, SVG Export Plug-In . SVG Version: 6.00 Build 0)  -->
<svg version="1.1" xmlns="http://www.w3.org/2000/svg" xmlns:xlink="http://www.w3.org/1999/xlink" x="0px" y="0px" width="24px"
	 height="24px" viewBox="0 0 24 24" enable-background="new 0 0 24 24" xml:space="preserve">
<g id="Filled_Icons">
	<g>
		<g>
			<rect x="6" y="7" width="1" height="1"/>
			<rect x="8" y="17" width="1" height="1"/>
			<rect x="4" y="12" width="1" height="1"/>
			<path d="M12,18.895c-0.575,0.192-1.252,0.042-1.651-0.432c-0.528-0.64-0.441-1.586,0.188-2.114l6.002-5.002
				c0.138-0.114,0.295-0.197,0.461-0.254V5.5c0-0.133-0.053-0.26-0.146-0.353l-5-5C11.76,0.053,11.633,0,11.5,0h-11
				C0.225,0,0,0.224,0,0.5v21C0,21.776,0.225,22,0.5,22H12V18.895z M11,1l5,5h-5V1z M5,6.5C5,6.224,5.224,6,5.5,6h2
				C7.776,6,8,6.224,8,6.5v2C8,8.776,7.776,9,7.5,9h-2C5.224,9,5,8.776,5,8.5V6.5z M8,11.5v2C8,13.776,7.776,14,7.5,14
				S7,13.776,7,13.5v-2C7,11.224,7.224,11,7.5,11S8,11.224,8,11.5z M3,6.5C3,6.224,3.224,6,3.5,6S4,6.224,4,6.5v2
				C4,8.776,3.776,9,3.5,9S3,8.776,3,8.5V6.5z M4,18.5C4,18.776,3.776,19,3.5,19S3,18.776,3,18.5v-2C3,16.224,3.224,16,3.5,16
				S4,16.224,4,16.5V18.5z M6,18.5C6,18.776,5.776,19,5.5,19S5,18.776,5,18.5v-2C5,16.224,5.224,16,5.5,16S6,16.224,6,16.5V18.5z
				 M6,13.5C6,13.776,5.776,14,5.5,14h-2C3.224,14,3,13.776,3,13.5v-2C3,11.224,3.224,11,3.5,11h2C5.776,11,6,11.224,6,11.5V13.5z
				 M10,18.5c0,0.276-0.224,0.5-0.5,0.5h-2C7.224,19,7,18.776,7,18.5v-2C7,16.224,7.224,16,7.5,16h2c0.276,0,0.5,0.224,0.5,0.5V18.5
				z M10,13.5c0,0.276-0.224,0.5-0.5,0.5S9,13.776,9,13.5v-2C9,11.224,9.224,11,9.5,11s0.5,0.224,0.5,0.5V13.5z M10,8.5
				C10,8.776,9.776,9,9.5,9S9,8.776,9,8.5v-2C9,6.224,9.224,6,9.5,6S10,6.224,10,6.5V8.5z"/>
		</g>
		<g>
			<path d="M17.5,14.453l-4.5,3.75V23.5c0,0.276,0.224,0.5,0.5,0.5h8c0.276,0,0.5-0.224,0.5-0.5v-5.297L17.5,14.453z"/>
			<g>
				<path d="M23.18,17.885L17.5,13.15l-5.68,4.734c-0.213,0.176-0.527,0.147-0.705-0.065c-0.176-0.213-0.147-0.527,0.064-0.705l6-5
					c0.185-0.153,0.455-0.153,0.641,0l6,5c0.212,0.178,0.24,0.492,0.065,0.705C23.708,18.031,23.394,18.062,23.18,17.885z"/>
			</g>
		</g>
	</g>
</g>
<g id="Invisible_Shape">
	<rect fill="none" width="24" height="24"/>
</g>
</svg>
