<?xml version="1.0" encoding="utf-8"?>
<!-- Generator: Adobe Illustrator 19.2.1, SVG Export Plug-In . SVG Version: 6.00 Build 0)  -->
<svg version="1.1" xmlns="http://www.w3.org/2000/svg" xmlns:xlink="http://www.w3.org/1999/xlink" x="0px" y="0px" width="24px"
	 height="24px" viewBox="0 0 24 24" enable-background="new 0 0 24 24" xml:space="preserve">
<g id="Filled_Icons">
	<g>
		<polygon points="18.015,13.503 18.985,13.503 18.5,11.561 		"/>
		<path d="M23.5,6h-23C0.224,6,0,6.224,0,6.5v12C0,18.776,0.224,19,0.5,19h23c0.276,0,0.5-0.224,0.5-0.5v-12
			C24,6.224,23.776,6,23.5,6z M5.261,16c-1.164,0-1.812-0.834-1.738-1.778c0.02-0.277,0.282-0.498,0.536-0.46
			c0.274,0.021,0.479,0.259,0.461,0.532c-0.005,0.091,0.017,0.359,0.171,0.522c0.23,0.246,0.908,0.245,1.141-0.001
			C6.003,14.633,6,14.335,6,14.332L5.999,9.5c0-0.276,0.224-0.5,0.5-0.5c0.276,0,0.5,0.224,0.5,0.5v4.803
			C7.074,15.154,6.411,16,5.261,16z M11.621,15.985c-0.271,0.065-0.54-0.097-0.607-0.364l-0.279-1.118H9.265l-0.279,1.118
			c-0.067,0.268-0.337,0.43-0.607,0.364c-0.268-0.067-0.431-0.339-0.364-0.607l1.5-6c0.111-0.445,0.859-0.445,0.971,0l1.5,6
			C12.052,15.646,11.89,15.918,11.621,15.985z M14.5,16c-0.215,0-0.406-0.138-0.475-0.342l-2-6
			c-0.087-0.262,0.055-0.545,0.316-0.633c0.263-0.087,0.545,0.055,0.633,0.316l1.525,4.577l1.525-4.577
			c0.088-0.261,0.372-0.403,0.633-0.316c0.262,0.088,0.403,0.371,0.316,0.633l-2,6C14.906,15.862,14.715,16,14.5,16z M20.121,15.985
			c-0.271,0.065-0.54-0.097-0.606-0.364l-0.279-1.118h-1.471l-0.279,1.118c-0.067,0.268-0.336,0.43-0.606,0.364
			c-0.269-0.067-0.431-0.339-0.364-0.607l1.5-6c0.111-0.445,0.859-0.445,0.971,0l1.5,6C20.552,15.646,20.39,15.918,20.121,15.985z"
			/>
		<polygon points="9.515,13.503 10.485,13.503 10,11.561 		"/>
	</g>
</g>
<g id="Invisible_Shape">
	<rect fill="none" width="24" height="24"/>
</g>
</svg>
