<?xml version="1.0" encoding="utf-8"?>
<!-- Generator: Adobe Illustrator 19.2.1, SVG Export Plug-In . SVG Version: 6.00 Build 0)  -->
<svg version="1.1" xmlns="http://www.w3.org/2000/svg" xmlns:xlink="http://www.w3.org/1999/xlink" x="0px" y="0px" width="24px"
	 height="24px" viewBox="0 0 24 24" enable-background="new 0 0 24 24" xml:space="preserve">
<g id="Filled_Icons">
	<g>
		<path d="M16.742,10H16v2.001h0.742c1.167,0,1.258-0.766,1.258-1C18,10.767,17.909,10,16.742,10z"/>
		<path d="M6.742,10H6v2.001h0.742c1.167,0,1.258-0.766,1.258-1C8,10.767,7.909,10,6.742,10z"/>
		<path d="M23.5,6h-23C0.224,6,0,6.224,0,6.5v12C0,18.776,0.224,19,0.5,19h23c0.276,0,0.5-0.224,0.5-0.5v-12
			C24,6.224,23.776,6,23.5,6z M6.742,13.001H6v2.498c0,0.276-0.224,0.5-0.5,0.5S5,15.775,5,15.499V9.5C5,9.224,5.224,9,5.5,9h1.242
			C8.294,9,9,10.037,9,11.001C9,11.964,8.294,13.001,6.742,13.001z M14,15.5c0,0.276-0.224,0.5-0.5,0.5S13,15.776,13,15.5V13h-2v2.5
			c0,0.276-0.224,0.5-0.5,0.5S10,15.776,10,15.5v-6C10,9.224,10.224,9,10.5,9S11,9.224,11,9.5V12h2V9.5C13,9.224,13.224,9,13.5,9
			S14,9.224,14,9.5V15.5z M16.742,13.001H16v2.498c0,0.276-0.224,0.5-0.5,0.5s-0.5-0.224-0.5-0.5V9.5C15,9.224,15.224,9,15.5,9
			h1.242C18.294,9,19,10.037,19,11.001C19,11.964,18.294,13.001,16.742,13.001z"/>
	</g>
</g>
<g id="Invisible_Shape">
	<rect fill="none" width="24" height="24"/>
</g>
</svg>
