<?xml version="1.0" encoding="utf-8"?>
<!-- Generator: Adobe Illustrator 19.2.1, SVG Export Plug-In . SVG Version: 6.00 Build 0)  -->
<svg version="1.1" xmlns="http://www.w3.org/2000/svg" xmlns:xlink="http://www.w3.org/1999/xlink" x="0px" y="0px" width="24px"
	 height="24px" viewBox="0 0 24 24" enable-background="new 0 0 24 24" xml:space="preserve">
<g id="Filled_Icons">
	<path d="M23.5,6h-23C0.224,6,0,6.224,0,6.5v12C0,18.776,0.224,19,0.5,19h23c0.276,0,0.5-0.224,0.5-0.5v-12
		C24,6.224,23.776,6,23.5,6z M10.915,9.808L9,12.653V15.5C9,15.776,8.776,16,8.5,16S8,15.776,8,15.5v-2.847L6.085,9.808
		c-0.154-0.229-0.093-0.54,0.136-0.694C6.448,8.96,6.76,9.019,6.915,9.249L8.5,11.604l1.585-2.356
		c0.155-0.229,0.467-0.288,0.694-0.136C11.008,9.268,11.069,9.578,10.915,9.808z M18,15.5c0,0.276-0.224,0.5-0.5,0.5
		S17,15.776,17,15.5v-4.349l-1.084,1.626c-0.186,0.277-0.647,0.277-0.832,0L14,11.151V15.5c0,0.276-0.224,0.5-0.5,0.5
		S13,15.776,13,15.5v-6c0-0.49,0.64-0.69,0.916-0.277l1.584,2.376l1.584-2.376C17.36,8.807,18,9.012,18,9.5V15.5z"/>
</g>
<g id="Invisible_Shape">
	<rect fill="none" width="24" height="24"/>
</g>
</svg>
