<?xml version="1.0" encoding="utf-8"?>
<!-- Generator: Adobe Illustrator 19.2.1, SVG Export Plug-In . SVG Version: 6.00 Build 0)  -->
<svg version="1.1" xmlns="http://www.w3.org/2000/svg" xmlns:xlink="http://www.w3.org/1999/xlink" x="0px" y="0px" width="24px"
	 height="24px" viewBox="0 0 24 24" enable-background="new 0 0 24 24" xml:space="preserve">
<g id="Filled_Icons">
	<g>
		<path d="M23.5,6h-23C0.224,6,0,6.224,0,6.5v12C0,18.776,0.224,19,0.5,19h23c0.276,0,0.5-0.224,0.5-0.5v-12
			C24,6.224,23.776,6,23.5,6z M8.742,13.002H8V15.5C8,15.776,7.776,16,7.5,16S7,15.776,7,15.5V9.501c0-0.276,0.224-0.5,0.5-0.5
			h1.242c1.552,0,2.258,1.037,2.258,2.001C11,11.965,10.294,13.002,8.742,13.002z M16,16h-2.481c-0.276,0-0.5-0.224-0.5-0.5v-6
			c0-0.276,0.224-0.5,0.5-0.5c0.276,0,0.5,0.224,0.5,0.5V15H16c0.276,0,0.5,0.224,0.5,0.5S16.276,16,16,16z"/>
		<path d="M8.742,10.001H8v2.001h0.742c1.167,0,1.258-0.766,1.258-1C10,10.768,9.909,10.001,8.742,10.001z"/>
	</g>
</g>
<g id="Invisible_Shape">
	<rect fill="none" width="24" height="24"/>
</g>
</svg>
