<?xml version="1.0" encoding="utf-8"?>
<!-- Generator: Adobe Illustrator 19.2.1, SVG Export Plug-In . SVG Version: 6.00 Build 0)  -->
<svg version="1.1" xmlns="http://www.w3.org/2000/svg" xmlns:xlink="http://www.w3.org/1999/xlink" x="0px" y="0px" width="24px"
	 height="24px" viewBox="0 0 24 24" enable-background="new 0 0 24 24" xml:space="preserve">
<g id="Filled_Icons">
	<g>
		<path d="M12.056,19.588c0.07-0.246,0.202-0.469,0.382-0.648L17,14.377V5.5c0-0.133-0.053-0.26-0.146-0.353l-5-5
			C11.76,0.053,11.633,0,11.5,0h-11C0.225,0,0,0.224,0,0.5v21C0,21.776,0.225,22,0.5,22h10.866L12.056,19.588z M11,1l5,5h-5V1z
			 M5.851,14.143c0.195,0.195,0.195,0.512,0,0.707c-0.195,0.195-0.512,0.195-0.707,0l-3-3c-0.195-0.195-0.195-0.512,0-0.707l3-3
			c0.195-0.195,0.512-0.195,0.707,0c0.195,0.195,0.195,0.512,0,0.707l-2.646,2.647L5.851,14.143z M8.144,14.85
			c-0.195-0.195-0.195-0.512,0-0.707l2.646-2.646L8.144,8.85c-0.195-0.195-0.195-0.512,0-0.707c0.195-0.195,0.512-0.195,0.707,0l3,3
			c0.195,0.195,0.195,0.512,0,0.707l-3,3C8.655,15.045,8.339,15.045,8.144,14.85z"/>
		<g>
			<rect x="14.11" y="16.231" transform="matrix(0.707 -0.7072 0.7072 0.707 -7.9551 17.7959)" width="6.78" height="4.535"/>
			<path d="M23.855,14.644l-2.5-2.5c-0.195-0.194-0.512-0.194-0.707,0l-1.647,1.647l3.207,3.207l1.647-1.646
				C24.051,15.156,24.051,14.84,23.855,14.644z"/>
			<path d="M15.848,23.065l-2.917-2.916l-0.911,3.225c-0.046,0.168-0.011,0.354,0.121,0.484c0.131,0.131,0.316,0.166,0.483,0.123
				L15.848,23.065z"/>
		</g>
	</g>
</g>
<g id="Invisible_Shape">
	<rect fill="none" width="24" height="24"/>
</g>
</svg>
