<?xml version="1.0" encoding="utf-8"?>
<!-- Generator: Adobe Illustrator 19.2.1, SVG Export Plug-In . SVG Version: 6.00 Build 0)  -->
<svg version="1.1" xmlns="http://www.w3.org/2000/svg" xmlns:xlink="http://www.w3.org/1999/xlink" x="0px" y="0px" width="24px"
	 height="24px" viewBox="0 0 24 24" enable-background="new 0 0 24 24" xml:space="preserve">
<g id="Filled_Icons">
	<g>
		<path d="M23.5,6h-23C0.224,6,0,6.224,0,6.5v12C0,18.776,0.224,19,0.5,19h23c0.276,0,0.5-0.224,0.5-0.5v-12
			C24,6.224,23.776,6,23.5,6z M10.012,14c0,0.966-0.699,2-1.74,2H6.5C6.224,16,6,15.776,6,15.5v-6C6,9.224,6.224,9,6.5,9h1.771
			c1.041,0,1.74,1.034,1.74,2c0,0.731-0.192,1.201-0.464,1.5C9.819,12.799,10.012,13.269,10.012,14z M13,15.5
			c0,0.276-0.224,0.5-0.5,0.5S12,15.776,12,15.5v-6C12,9.224,12.224,9,12.5,9S13,9.224,13,9.5V15.5z M19,15.5
			c0,0.525-0.712,0.695-0.947,0.224L16,11.618V15.5c0,0.276-0.224,0.5-0.5,0.5S15,15.776,15,15.5v-6
			c0-0.519,0.708-0.703,0.947-0.224L18,13.382V9.5C18,9.224,18.224,9,18.5,9S19,9.224,19,9.5V15.5z"/>
		<path d="M8.271,10H7v2h1.271c0.39,0,0.74-0.076,0.74-1C9.012,10.537,8.689,10,8.271,10z"/>
		<path d="M8.271,13H7v2h1.271c0.417,0,0.74-0.537,0.74-1C9.012,13.076,8.661,13,8.271,13z"/>
	</g>
</g>
<g id="Invisible_Shape">
	<rect fill="none" width="24" height="24"/>
</g>
</svg>
