<?xml version="1.0" encoding="utf-8"?>
<!-- Generator: Adobe Illustrator 19.2.1, SVG Export Plug-In . SVG Version: 6.00 Build 0)  -->
<svg version="1.1" xmlns="http://www.w3.org/2000/svg" xmlns:xlink="http://www.w3.org/1999/xlink" x="0px" y="0px" width="24px"
	 height="24px" viewBox="0 0 24 24" enable-background="new 0 0 24 24" xml:space="preserve">
<g id="Filled_Icons">
	<g>
		<g>
			<rect x="8" y="17" width="1" height="1"/>
			<rect x="4" y="12" width="1" height="1"/>
			<rect x="6" y="7" width="1" height="1"/>
			<path d="M13.753,19.497l-2.213-1.844c-0.491-0.408-0.668-1.06-0.45-1.662C11.307,15.389,11.86,15,12.5,15h2.572l1.577-3.168
				c0.087-0.175,0.212-0.316,0.351-0.441V5.5c0-0.133-0.053-0.26-0.146-0.353l-5-5C11.76,0.053,11.633,0,11.5,0h-11
				C0.225,0,0,0.224,0,0.5v21C0,21.776,0.225,22,0.5,22h12.419L13.753,19.497z M11,1l5,5h-5V1z M5,6.5C5,6.224,5.224,6,5.5,6h2
				C7.776,6,8,6.224,8,6.5v2C8,8.776,7.776,9,7.5,9h-2C5.224,9,5,8.776,5,8.5V6.5z M8,11.5v2C8,13.776,7.776,14,7.5,14
				S7,13.776,7,13.5v-2C7,11.224,7.224,11,7.5,11S8,11.224,8,11.5z M3,6.5C3,6.224,3.224,6,3.5,6S4,6.224,4,6.5v2
				C4,8.776,3.776,9,3.5,9S3,8.776,3,8.5V6.5z M4,18.5C4,18.776,3.776,19,3.5,19S3,18.776,3,18.5v-2C3,16.224,3.224,16,3.5,16
				S4,16.224,4,16.5V18.5z M6,18.5C6,18.776,5.776,19,5.5,19S5,18.776,5,18.5v-2C5,16.224,5.224,16,5.5,16S6,16.224,6,16.5V18.5z
				 M6,13.5C6,13.776,5.776,14,5.5,14h-2C3.224,14,3,13.776,3,13.5v-2C3,11.224,3.224,11,3.5,11h2C5.776,11,6,11.224,6,11.5V13.5z
				 M10,18.5c0,0.276-0.224,0.5-0.5,0.5h-2C7.224,19,7,18.776,7,18.5v-2C7,16.224,7.224,16,7.5,16h2c0.276,0,0.5,0.224,0.5,0.5V18.5
				z M10,13.5c0,0.276-0.224,0.5-0.5,0.5S9,13.776,9,13.5v-2C9,11.224,9.224,11,9.5,11s0.5,0.224,0.5,0.5V13.5z M10,8.5
				C10,8.776,9.776,9,9.5,9S9,8.776,9,8.5v-2C9,6.224,9.224,6,9.5,6S10,6.224,10,6.5V8.5z"/>
		</g>
		<path d="M23.492,16h-3.191l-1.854-3.726c-0.177-0.356-0.715-0.376-0.902,0.003L15.691,16H12.5c-0.468,0-0.679,0.587-0.32,0.885
			l2.738,2.281l-1.391,4.17c-0.162,0.465,0.353,0.846,0.748,0.569l3.723-2.545l3.719,2.542c0.397,0.276,0.911-0.107,0.748-0.57
			l-1.391-4.168l2.738-2.282C24.167,16.589,23.964,16,23.492,16z"/>
	</g>
</g>
<g id="Invisible_Shape">
	<rect fill="none" width="24" height="24"/>
</g>
</svg>
