<?xml version="1.0" encoding="utf-8"?>
<!-- Generator: Adobe Illustrator 19.2.1, SVG Export Plug-In . SVG Version: 6.00 Build 0)  -->
<svg version="1.1" xmlns="http://www.w3.org/2000/svg" xmlns:xlink="http://www.w3.org/1999/xlink" x="0px" y="0px" width="24px"
	 height="24px" viewBox="0 0 24 24" enable-background="new 0 0 24 24" xml:space="preserve">
<g id="Filled_Icons">
	<path d="M23.5,6h-23C0.224,6,0,6.224,0,6.5v12C0,18.776,0.224,19,0.5,19h23c0.276,0,0.5-0.224,0.5-0.5v-12
		C24,6.224,23.776,6,23.5,6z M8.947,15.276c0.123,0.247,0.023,0.547-0.224,0.671c-0.246,0.123-0.547,0.023-0.671-0.224L7,13.618
		l-1.053,2.105c-0.124,0.247-0.426,0.347-0.671,0.224c-0.247-0.124-0.347-0.424-0.224-0.671L6.441,12.5L5.053,9.724
		C4.93,9.477,5.029,9.177,5.276,9.053c0.247-0.124,0.547-0.023,0.671,0.224L7,11.382l1.053-2.105C8.177,9.03,8.477,8.93,8.724,9.053
		C8.971,9.177,9.07,9.477,8.947,9.724L7.56,12.5L8.947,15.276z M15,15.5c0,0.276-0.224,0.5-0.5,0.5S14,15.776,14,15.5v-4.349
		l-1.084,1.626c-0.186,0.277-0.647,0.277-0.832,0L11,11.151V15.5c0,0.276-0.224,0.5-0.5,0.5S10,15.776,10,15.5v-6
		c0-0.49,0.64-0.69,0.916-0.277l1.584,2.376l1.584-2.376C14.36,8.807,15,9.012,15,9.5V15.5z M19,16h-2.48
		c-0.276,0-0.5-0.224-0.5-0.5v-6c0-0.276,0.224-0.5,0.5-0.5c0.276,0,0.5,0.224,0.5,0.5V15H19c0.276,0,0.5,0.224,0.5,0.5
		S19.276,16,19,16z"/>
</g>
<g id="Invisible_Shape">
	<rect fill="none" width="24" height="24"/>
</g>
</svg>
