<?xml version="1.0" encoding="utf-8"?>
<!-- Generator: Adobe Illustrator 19.2.1, SVG Export Plug-In . SVG Version: 6.00 Build 0)  -->
<svg version="1.1" xmlns="http://www.w3.org/2000/svg" xmlns:xlink="http://www.w3.org/1999/xlink" x="0px" y="0px" width="24px"
	 height="24px" viewBox="0 0 24 24" enable-background="new 0 0 24 24" xml:space="preserve">
<g id="Filled_Icons">
	<g>
		<path d="M12.742,10.001H12v2.001h0.742c1.167,0,1.258-0.766,1.258-1C14,10.768,13.909,10.001,12.742,10.001z"/>
		<path d="M17.742,10.001H17v2.001h0.742c1.167,0,1.258-0.766,1.258-1C19,10.768,18.909,10.001,17.742,10.001z"/>
		<polygon points="7.015,13.503 7.985,13.503 7.5,11.561 		"/>
		<path d="M23.5,6h-23C0.224,6,0,6.224,0,6.5v12C0,18.776,0.224,19,0.5,19h23c0.276,0,0.5-0.224,0.5-0.5v-12
			C24,6.224,23.776,6,23.5,6z M9.121,15.985c-0.271,0.065-0.54-0.097-0.607-0.364l-0.279-1.118H6.765l-0.279,1.118
			c-0.067,0.268-0.336,0.428-0.607,0.364c-0.268-0.067-0.431-0.339-0.364-0.607l1.5-6c0.111-0.445,0.859-0.445,0.971,0l1.5,6
			C9.552,15.646,9.39,15.918,9.121,15.985z M12.742,13.002H12V15.5c0,0.276-0.224,0.5-0.5,0.5S11,15.776,11,15.5V9.501
			c0-0.276,0.224-0.5,0.5-0.5h1.242c1.552,0,2.258,1.037,2.258,2.001C15,11.965,14.294,13.002,12.742,13.002z M17.742,13.002H17
			V15.5c0,0.276-0.224,0.5-0.5,0.5S16,15.776,16,15.5V9.501c0-0.276,0.224-0.5,0.5-0.5h1.242c1.552,0,2.258,1.037,2.258,2.001
			C20,11.965,19.294,13.002,17.742,13.002z"/>
	</g>
</g>
<g id="Invisible_Shape">
	<rect fill="none" width="24" height="24"/>
</g>
</svg>
