<?xml version="1.0" encoding="utf-8"?>
<!-- Generator: Adobe Illustrator 19.2.1, SVG Export Plug-In . SVG Version: 6.00 Build 0)  -->
<svg version="1.1" xmlns="http://www.w3.org/2000/svg" xmlns:xlink="http://www.w3.org/1999/xlink" x="0px" y="0px" width="24px"
	 height="24px" viewBox="0 0 24 24" enable-background="new 0 0 24 24" xml:space="preserve">
<g id="Filled_Icons">
	<g>
		<path d="M14.75,14H14v1.5h0.75c0.413,0,0.75-0.337,0.75-0.75S15.163,14,14.75,14z"/>
		<path d="M19.854,6.147l-6-6C13.76,0.053,13.633,0,13.5,0h-13C0.225,0,0,0.224,0,0.5v23C0,23.776,0.225,24,0.5,24h19
			c0.276,0,0.5-0.224,0.5-0.5v-17C20,6.367,19.947,6.24,19.854,6.147z M6.644,18.979c-0.259,0.079-0.542-0.066-0.622-0.335L5.828,18
			H4.172l-0.193,0.644C3.9,18.908,3.62,19.06,3.356,18.979c-0.265-0.079-0.415-0.357-0.335-0.622l1.5-5
			c0.127-0.424,0.83-0.424,0.957,0l1.5,5C7.059,18.621,6.908,18.899,6.644,18.979z M9.75,16.5H9v1.999c0,0.276-0.224,0.5-0.5,0.5
			S8,18.775,8,18.499V13.5C8,13.224,8.224,13,8.5,13h1.25c0.965,0,1.75,0.785,1.75,1.75S10.715,16.5,9.75,16.5z M14.75,16.5H14
			v1.999c0,0.276-0.224,0.5-0.5,0.5s-0.5-0.224-0.5-0.5V13.5c0-0.276,0.224-0.5,0.5-0.5h1.25c0.965,0,1.75,0.785,1.75,1.75
			S15.715,16.5,14.75,16.5z M13,7V1l6,6H13z"/>
		<path d="M9.75,14H9v1.5h0.75c0.413,0,0.75-0.337,0.75-0.75S10.163,14,9.75,14z"/>
		<polygon points="4.472,17 5.528,17 5,15.24 		"/>
	</g>
</g>
<g id="Invisible_Shape">
	<rect fill="none" width="24" height="24"/>
</g>
</svg>
