<?xml version="1.0" encoding="utf-8"?>
<!-- Generator: Adobe Illustrator 19.2.1, SVG Export Plug-In . SVG Version: 6.00 Build 0)  -->
<svg version="1.1" xmlns="http://www.w3.org/2000/svg" xmlns:xlink="http://www.w3.org/1999/xlink" x="0px" y="0px" width="24px"
	 height="24px" viewBox="0 0 24 24" enable-background="new 0 0 24 24" xml:space="preserve">
<g id="Filled_Icons">
	<g>
		<polygon points="16.472,17 17.528,17 17,15.24 		"/>
		<path d="M19.854,6.147l-6-6C13.76,0.053,13.633,0,13.5,0h-13C0.225,0,0,0.224,0,0.5v23C0,23.776,0.225,24,0.5,24h19
			c0.276,0,0.5-0.224,0.5-0.5v-17C20,6.367,19.947,6.24,19.854,6.147z M5,17c0,1.103-0.898,2-2,2s-2-0.897-2-2
			c0-0.276,0.224-0.5,0.5-0.5S2,16.724,2,17c0,0.552,0.448,1,1,1s1-0.448,1-1v-3.5C4,13.224,4.224,13,4.5,13S5,13.224,5,13.5V17z
			 M9.644,18.979c-0.259,0.079-0.542-0.066-0.622-0.335L8.828,18H7.172l-0.193,0.644c-0.079,0.266-0.358,0.416-0.622,0.335
			c-0.265-0.079-0.415-0.357-0.335-0.622l1.5-5c0.127-0.424,0.83-0.424,0.957,0l1.5,5C10.059,18.621,9.908,18.899,9.644,18.979z
			 M14.479,13.644l-1.5,5C12.915,18.855,12.721,19,12.5,19s-0.415-0.145-0.479-0.356l-1.5-5c-0.08-0.265,0.07-0.543,0.335-0.622
			c0.264-0.08,0.543,0.069,0.622,0.335L12.5,16.76l1.021-3.403c0.079-0.266,0.36-0.414,0.622-0.335
			C14.408,13.101,14.559,13.379,14.479,13.644z M18.644,18.979c-0.259,0.079-0.542-0.066-0.622-0.335L17.828,18h-1.656l-0.193,0.644
			c-0.078,0.266-0.36,0.416-0.622,0.335c-0.265-0.079-0.415-0.357-0.335-0.622l1.5-5c0.127-0.424,0.83-0.424,0.957,0l1.5,5
			C19.059,18.621,18.908,18.899,18.644,18.979z M13,7V1l6,6H13z"/>
		<polygon points="7.472,17 8.528,17 8,15.24 		"/>
	</g>
</g>
<g id="Invisible_Shape">
	<rect fill="none" width="24" height="24"/>
</g>
</svg>
