<?xml version="1.0" encoding="utf-8"?>
<!-- Generator: Adobe Illustrator 19.2.1, SVG Export Plug-In . SVG Version: 6.00 Build 0)  -->
<svg version="1.1" xmlns="http://www.w3.org/2000/svg" xmlns:xlink="http://www.w3.org/1999/xlink" x="0px" y="0px" width="24px"
	 height="24px" viewBox="0 0 24 24" enable-background="new 0 0 24 24" xml:space="preserve">
<g id="Filled_Icons">
	<g>
		<polygon points="9.472,17 10.528,17 10,15.24 		"/>
		<path d="M4.5,14H4v4h0.5C5.369,18,6,17.159,6,16S5.369,14,4.5,14z"/>
		<path d="M19.854,6.147l-6-6C13.76,0.053,13.633,0,13.5,0h-13C0.225,0,0,0.224,0,0.5v23C0,23.776,0.225,24,0.5,24h19
			c0.276,0,0.5-0.224,0.5-0.5v-17C20,6.367,19.947,6.24,19.854,6.147z M4.5,19h-1C3.224,19,3,18.776,3,18.5v-5
			C3,13.224,3.224,13,3.5,13h1C5.925,13,7,14.29,7,16S5.925,19,4.5,19z M11.644,18.979c-0.259,0.079-0.542-0.066-0.622-0.335
			L10.828,18H9.172l-0.193,0.644C8.9,18.909,8.619,19.06,8.356,18.979c-0.265-0.079-0.415-0.357-0.335-0.622l1.5-5
			c0.127-0.424,0.83-0.424,0.957,0l1.5,5C12.059,18.621,11.908,18.899,11.644,18.979z M15.5,14H15v4.5c0,0.276-0.224,0.5-0.5,0.5
			S14,18.776,14,18.5V14h-0.5c-0.276,0-0.5-0.224-0.5-0.5s0.224-0.5,0.5-0.5h2c0.276,0,0.5,0.224,0.5,0.5S15.776,14,15.5,14z M13,7
			V1l6,6H13z"/>
	</g>
</g>
<g id="Invisible_Shape">
	<rect fill="none" width="24" height="24"/>
</g>
</svg>
