<?xml version="1.0" encoding="utf-8"?>
<!-- Generator: Adobe Illustrator 19.2.1, SVG Export Plug-In . SVG Version: 6.00 Build 0)  -->
<svg version="1.1" xmlns="http://www.w3.org/2000/svg" xmlns:xlink="http://www.w3.org/1999/xlink" x="0px" y="0px" width="24px"
	 height="24px" viewBox="0 0 24 24" enable-background="new 0 0 24 24" xml:space="preserve">
<g id="Filled_Icons">
	<g>
		<path d="M23.5,6h-23C0.224,6,0,6.224,0,6.5v12C0,18.776,0.224,19,0.5,19h23c0.276,0,0.5-0.224,0.5-0.5v-12
			C24,6.224,23.776,6,23.5,6z M7.26,16c-0.919,0-1.683-0.752-1.739-1.712c-0.017-0.275,0.193-0.512,0.47-0.528
			c0.268-0.026,0.512,0.194,0.528,0.47C6.544,14.661,6.87,15,7.26,15C7.668,15,8,14.629,8,14.174c0-0.772-0.381-1.02-1.055-1.392
			c-0.635-0.351-1.426-0.789-1.426-1.957C5.519,9.818,6.301,9,7.262,9c0.917,0,1.681,0.751,1.737,1.711
			c0.017,0.275-0.193,0.512-0.47,0.528c-0.282,0.015-0.512-0.194-0.528-0.47C7.976,10.338,7.65,10,7.262,10
			c-0.409,0-0.742,0.37-0.742,0.825c0,0.554,0.295,0.742,0.91,1.082C8.092,12.273,9,12.775,9,14.174C9,15.181,8.22,16,7.26,16z
			 M14.854,16.354c-0.218,0.218-0.47,0.29-0.719,0.29c-0.263,0-1.252-0.288-1.264-0.286c-0.318,0.34-0.914,0.08-0.828-0.427
			C10.756,15.606,10,14.034,10,12.5c0-1.721,0.947-3.5,2.533-3.5C14.136,9,15,10.804,15,12.5c0,1.191-0.435,2.422-1.243,3.057
			c0.149,0.05,0.339,0.108,0.399,0.085C14.616,15.179,15.327,15.88,14.854,16.354z M19,16h-2.48c-0.276,0-0.5-0.224-0.5-0.5v-6
			c0-0.276,0.224-0.5,0.5-0.5c0.276,0,0.5,0.224,0.5,0.5V15H19c0.276,0,0.5,0.224,0.5,0.5S19.276,16,19,16z"/>
		<path d="M14,12.5c0-1.202-0.561-2.5-1.467-2.5C11.616,10,11,11.293,11,12.5s0.616,2.5,1.533,2.5C13.439,15,14,13.702,14,12.5z"/>
	</g>
</g>
<g id="Invisible_Shape">
	<rect fill="none" width="24" height="24"/>
</g>
</svg>
