<?xml version="1.0" encoding="utf-8"?>
<!-- Generator: Adobe Illustrator 19.2.1, SVG Export Plug-In . SVG Version: 6.00 Build 0)  -->
<svg version="1.1" xmlns="http://www.w3.org/2000/svg" xmlns:xlink="http://www.w3.org/1999/xlink" x="0px" y="0px" width="24px"
	 height="24px" viewBox="0 0 24 24" enable-background="new 0 0 24 24" xml:space="preserve">
<g id="Filled_Icons">
	<path d="M19.854,6.147l-6-6C13.76,0.053,13.633,0,13.5,0h-13C0.225,0,0,0.224,0,0.5v23C0,23.776,0.225,24,0.5,24h19
		c0.276,0,0.5-0.224,0.5-0.5v-17C20,6.367,19.947,6.24,19.854,6.147z M13,1l6,6h-6V1z M5,18.5C5,18.776,4.776,19,4.5,19
		S4,18.776,4,18.5V17H2v1.5C2,18.776,1.776,19,1.5,19S1,18.776,1,18.5v-5C1,13.224,1.224,13,1.5,13S2,13.224,2,13.5V16h2v-2.5
		C4,13.224,4.224,13,4.5,13S5,13.224,5,13.5V18.5z M8.5,14H8v4.5C8,18.776,7.776,19,7.5,19S7,18.776,7,18.5V14H6.5
		C6.224,14,6,13.776,6,13.5S6.224,13,6.5,13h2C8.776,13,9,13.224,9,13.5S8.776,14,8.5,14z M15,18.502c0,0.276-0.224,0.5-0.5,0.5
		s-0.5-0.224-0.5-0.5v-3.576l-1.109,1.388c-0.189,0.236-0.592,0.236-0.781,0L11,14.926v3.576c0,0.276-0.224,0.5-0.5,0.5
		s-0.5-0.224-0.5-0.5V13.5c0-0.467,0.594-0.684,0.891-0.312L12.5,15.2l1.609-2.013C14.407,12.815,15,13.031,15,13.5V18.502z M19,19
		h-2.5c-0.276,0-0.5-0.224-0.5-0.5v-5c0-0.276,0.224-0.5,0.5-0.5s0.5,0.224,0.5,0.5V18h2c0.276,0,0.5,0.224,0.5,0.5S19.276,19,19,19
		z"/>
</g>
<g id="Invisible_Shape">
	<rect fill="none" width="24" height="24"/>
</g>
</svg>
