<?xml version="1.0" encoding="utf-8"?>
<!-- Generator: Adobe Illustrator 19.2.1, SVG Export Plug-In . SVG Version: 6.00 Build 0)  -->
<svg version="1.1" xmlns="http://www.w3.org/2000/svg" xmlns:xlink="http://www.w3.org/1999/xlink" x="0px" y="0px" width="24px"
	 height="24px" viewBox="0 0 24 24" enable-background="new 0 0 24 24" xml:space="preserve">
<g id="Filled_Icons">
	<g>
		<path d="M7.75,14H7v1.5h0.75c0.413,0,0.75-0.337,0.75-0.75S8.163,14,7.75,14z"/>
		<path d="M19.854,6.147l-6-6C13.76,0.053,13.633,0,13.5,0h-13C0.225,0,0,0.224,0,0.5v23C0,23.776,0.225,24,0.5,24h19
			c0.276,0,0.5-0.224,0.5-0.5v-17C20,6.367,19.947,6.24,19.854,6.147z M7.75,16.5H7v1.999c0,0.276-0.224,0.5-0.5,0.5
			S6,18.775,6,18.499V13.5C6,13.224,6.224,13,6.5,13h1.25c0.965,0,1.75,0.785,1.75,1.75S8.715,16.5,7.75,16.5z M14.188,13.754
			L13,16.119V18.5c0,0.276-0.224,0.5-0.5,0.5S12,18.776,12,18.5v-2.381l-1.189-2.365c-0.123-0.247-0.024-0.548,0.223-0.672
			c0.245-0.124,0.547-0.025,0.672,0.223l0.794,1.581l0.793-1.581c0.125-0.248,0.425-0.347,0.672-0.223
			C14.211,13.206,14.311,13.507,14.188,13.754z M13,7V1l6,6H13z"/>
	</g>
</g>
<g id="Invisible_Shape">
	<rect fill="none" width="24" height="24"/>
</g>
</svg>
