<?xml version="1.0" encoding="utf-8"?>
<!-- Generator: Adobe Illustrator 19.2.1, SVG Export Plug-In . SVG Version: 6.00 Build 0)  -->
<svg version="1.1" xmlns="http://www.w3.org/2000/svg" xmlns:xlink="http://www.w3.org/1999/xlink" x="0px" y="0px" width="24px"
	 height="24px" viewBox="0 0 24 24" enable-background="new 0 0 24 24" xml:space="preserve">
<g id="Filled_Icons">
	<g>
		<path d="M13.5,14.5c0-0.124,0-0.5-0.5-0.5h-1v1h1C13.5,15,13.5,14.624,13.5,14.5z"/>
		<path d="M7.75,14H7v1.5h0.75c0.413,0,0.75-0.337,0.75-0.75S8.163,14,7.75,14z"/>
		<path d="M19.854,6.147l-6-6C13.76,0.053,13.633,0,13.5,0h-13C0.225,0,0,0.224,0,0.5v23C0,23.776,0.225,24,0.5,24h19
			c0.276,0,0.5-0.224,0.5-0.5v-17C20,6.367,19.947,6.24,19.854,6.147z M9.446,18.275c0.124,0.246,0.025,0.547-0.222,0.671
			c-0.252,0.126-0.549,0.021-0.671-0.222L7.434,16.5H7v1.999c0,0.276-0.224,0.5-0.5,0.5S6,18.775,6,18.499V13.5
			C6,13.224,6.224,13,6.5,13h1.25c0.965,0,1.75,0.785,1.75,1.75c0,0.707-0.424,1.313-1.028,1.59L9.446,18.275z M13,19l-1.5,0.001
			c-0.276,0-0.5-0.224-0.5-0.5V13.5c0-0.276,0.224-0.5,0.5-0.5H13c0.883,0,1.5,0.617,1.5,1.5c0,0.341-0.092,0.643-0.256,0.885
			C14.758,15.773,15,16.4,15,17C15,17.963,14.374,19,13,19z M13,7V1l6,6H13z"/>
		<path d="M13,16h-1v2.001L13,18c0.952,0,1-0.833,1-1S13.952,16,13,16z"/>
	</g>
</g>
<g id="Invisible_Shape">
	<rect fill="none" width="24" height="24"/>
</g>
</svg>
