<?xml version="1.0" encoding="utf-8"?>
<!-- Generator: Adobe Illustrator 19.2.1, SVG Export Plug-In . SVG Version: 6.00 Build 0)  -->
<svg version="1.1" xmlns="http://www.w3.org/2000/svg" xmlns:xlink="http://www.w3.org/1999/xlink" x="0px" y="0px" width="24px"
	 height="24px" viewBox="0 0 24 24" enable-background="new 0 0 24 24" xml:space="preserve">
<g id="Filled_Icons">
	<g>
		<path d="M19.854,6.147l-6-6C13.76,0.053,13.633,0,13.5,0h-13C0.225,0,0,0.224,0,0.5v23C0,23.776,0.225,24,0.5,24h19
			c0.275,0,0.5-0.224,0.5-0.5v-17C20,6.367,19.947,6.24,19.854,6.147z M15.493,18.37c0,1.708-2.839,2.63-5.511,2.63
			c-2.654,0-5.476-0.909-5.476-2.595v-2.278c1.171,0.893,3.23,1.517,5.476,1.517c2.261,0,4.335-0.625,5.511-1.521V18.37z
			 M15.493,14.521c-0.037,0.741-2.171,2.123-5.511,2.123c-3.318,0-5.438-1.382-5.476-2.123v-2.926C4.507,9.909,7.328,9,9.982,9
			c2.738,0,5.511,0.88,5.511,2.561V14.521z M13,7V1l6,6H13z"/>
		<path d="M9.982,10c-2.732,0-4.476,0.944-4.476,1.595S7.25,13.19,9.982,13.19c2.754,0,4.511-0.965,4.511-1.629
			C14.493,10.925,12.736,10,9.982,10z"/>
	</g>
</g>
<g id="Invisible_Shape">
	<rect fill="none" width="24" height="24"/>
</g>
</svg>
