<?xml version="1.0" encoding="utf-8"?>
<!-- Generator: Adobe Illustrator 16.0.3, SVG Export Plug-In . SVG Version: 6.00 Build 0)  -->
<!DOCTYPE svg PUBLIC "-//W3C//DTD SVG 1.1//EN" "http://www.w3.org/Graphics/SVG/1.1/DTD/svg11.dtd">
<svg version="1.1" xmlns="http://www.w3.org/2000/svg" xmlns:xlink="http://www.w3.org/1999/xlink" x="0px" y="0px" width="24px"
	 height="24px" viewBox="0 0 24 24" enable-background="new 0 0 24 24" xml:space="preserve">
<g id="Outline_Icons_1_">
	<g id="Outline_Icons">
	</g>
	<g id="New_icons_1_">
		<g>
			<g>
				<path fill="none" stroke="#000000" stroke-linecap="round" stroke-linejoin="round" stroke-miterlimit="10" d="M13.5,9
					c0-3.038-2.463-5.5-5.5-5.5S2.5,5.962,2.5,9c0,2.517,1.693,4.634,4,5.287V15.5l-1,0.999l1,1.001v1l-1,1l1,1V22L8,23.5L9.5,22
					v-7.713C11.807,13.634,13.5,11.517,13.5,9z"/>
				
					<circle fill="none" stroke="#000000" stroke-linecap="round" stroke-linejoin="round" stroke-miterlimit="10" cx="8" cy="7" r="1.5"/>
			</g>
			<path fill="none" stroke="#000000" stroke-linecap="round" stroke-linejoin="round" stroke-miterlimit="10" d="M9.5,15.013
				c1.672,0.965,3.742,0.973,5.425,0.033L16,16v1.5h1.5l0.5,0.524V19.5h1.317l1.062,1H22.5v-2.121l-5.454-5.454
				c1.17-2.093,0.869-4.788-0.91-6.567c-1.254-1.254-2.962-1.776-4.595-1.566"/>
			<path fill="none" stroke="#000000" stroke-linecap="round" stroke-linejoin="round" stroke-miterlimit="10" d="M8,7V2.5
				c0-1.104,0.896-2,2-2s2,0.896,2,2v2.252"/>
		</g>
	</g>
</g>
<g id="Invisible_SHape">
	<rect fill="none" width="24" height="24"/>
</g>
</svg>
