<?xml version="1.0" encoding="utf-8"?>
<!-- Generator: Adobe Illustrator 16.0.3, SVG Export Plug-In . SVG Version: 6.00 Build 0)  -->
<!DOCTYPE svg PUBLIC "-//W3C//DTD SVG 1.1//EN" "http://www.w3.org/Graphics/SVG/1.1/DTD/svg11.dtd">
<svg version="1.1" xmlns="http://www.w3.org/2000/svg" xmlns:xlink="http://www.w3.org/1999/xlink" x="0px" y="0px" width="24px"
	 height="24px" viewBox="0 0 24 24" enable-background="new 0 0 24 24" xml:space="preserve">
<g id="Outline_Icons_1_">
	<g id="Outline_Icons">
	</g>
	<g id="New_icons_1_">
		<g>
			<path fill="none" stroke="#000000" stroke-linecap="round" stroke-linejoin="round" stroke-miterlimit="10" d="M15.5,12.472
				c1.802-1.156,3-3.171,3-5.472c0-3.589-2.91-6.5-6.5-6.5S5.5,3.411,5.5,7c0,2.3,1.198,4.316,3,5.472"/>
			<path fill="none" stroke="#000000" stroke-linejoin="round" stroke-miterlimit="10" d="M10.5,7.984c0-0.82,0.68-1.484,1.5-1.484
				c0.828,0,1.5,0.672,1.5,1.5v6l4.436,1.5c0.988,0.318,1.213,1.486,0.979,2.5l-1.021,5.5H9.911l-4.016-6
				c-0.454-0.693-0.467-2,0.533-2S8.5,15.919,10.5,19V7.984z"/>
		</g>
	</g>
</g>
<g id="Invisible_SHape">
	<rect fill="none" width="24" height="24"/>
</g>
</svg>
