<?xml version="1.0" encoding="utf-8"?>
<!-- Generator: Adobe Illustrator 16.0.3, SVG Export Plug-In . SVG Version: 6.00 Build 0)  -->
<!DOCTYPE svg PUBLIC "-//W3C//DTD SVG 1.1//EN" "http://www.w3.org/Graphics/SVG/1.1/DTD/svg11.dtd">
<svg version="1.1" xmlns="http://www.w3.org/2000/svg" xmlns:xlink="http://www.w3.org/1999/xlink" x="0px" y="0px" width="24px"
	 height="24px" viewBox="0 0 24 24" enable-background="new 0 0 24 24" xml:space="preserve">
<g id="Outline_Icons">
	<g>
		<path fill="none" stroke="#000000" stroke-linejoin="round" stroke-miterlimit="10" d="M12.213,14.423l-2.931,2.931
			c0.02-0.02,0.225,0.136,0.345,0.257c1.159,1.158,1.139,3.016-0.021,4.175c-1.158,1.159-3.059,1.138-4.218-0.021
			c-0.73-0.731-0.991-1.741-0.801-2.684c-0.942,0.191-1.945-0.063-2.676-0.795c-1.159-1.158-1.133-3.011,0.025-4.17
			c1.158-1.158,3.09-1.106,4.249,0.053c0.121,0.121,0.43,0.479,0.41,0.499l2.931-2.931l0.582,1.998L12.213,14.423z"/>
		<path fill="none" stroke="#000000" stroke-linejoin="round" stroke-miterlimit="10" d="M16.328,12.434l2.186-3.756
			C18.5,8.702,18.702,8.86,18.85,8.946c1.416,0.824,3.203,0.327,4.027-1.09c0.824-1.416,0.329-3.241-1.088-4.065
			c-0.893-0.52-1.951-0.523-2.813-0.098c-0.056-0.96-0.578-1.876-1.472-2.396c-1.416-0.824-3.234-0.345-4.059,1.071
			s-0.218,3.307,1.199,4.131c0.147,0.086,0.572,0.293,0.587,0.269l-2.187,3.756l2.054,0.099L16.328,12.434z"/>
		
			<line fill="none" stroke="#000000" stroke-linecap="round" stroke-linejoin="round" stroke-miterlimit="10" x1="7.5" y1="9.5" x2="5.5" y2="9.5"/>
		
			<line fill="none" stroke="#000000" stroke-linecap="round" stroke-linejoin="round" stroke-miterlimit="10" x1="10.5" y1="6.5" x2="10.5" y2="4.5"/>
		
			<line fill="none" stroke="#000000" stroke-linecap="round" stroke-linejoin="round" stroke-miterlimit="10" x1="8.309" y1="7.192" x2="6.692" y2="6.015"/>
		
			<line fill="none" stroke="#000000" stroke-linecap="round" stroke-linejoin="round" stroke-miterlimit="10" x1="18.5" y1="14.5" x2="20.5" y2="14.5"/>
		
			<line fill="none" stroke="#000000" stroke-linecap="round" stroke-linejoin="round" stroke-miterlimit="10" x1="15.5" y1="17.5" x2="15.5" y2="19.5"/>
		
			<line fill="none" stroke="#000000" stroke-linecap="round" stroke-linejoin="round" stroke-miterlimit="10" x1="17.692" y1="16.808" x2="19.309" y2="17.985"/>
	</g>
</g>
<g id="invisible_shape">
	<rect fill="none" width="24" height="24"/>
</g>
</svg>
