<?xml version="1.0" encoding="utf-8"?>
<!-- Generator: Adobe Illustrator 16.0.3, SVG Export Plug-In . SVG Version: 6.00 Build 0)  -->
<!DOCTYPE svg PUBLIC "-//W3C//DTD SVG 1.1//EN" "http://www.w3.org/Graphics/SVG/1.1/DTD/svg11.dtd">
<svg version="1.1" xmlns="http://www.w3.org/2000/svg" xmlns:xlink="http://www.w3.org/1999/xlink" x="0px" y="0px" width="24px"
	 height="24px" viewBox="0 0 24 24" enable-background="new 0 0 24 24" xml:space="preserve">
<g id="Outline_Icons">
	<g>
		
			<line fill="none" stroke="#000000" stroke-linecap="round" stroke-linejoin="round" stroke-miterlimit="10" x1="12.5" y1="23.5" x2="12.5" y2="21.5"/>
		<path fill="none" stroke="#000000" stroke-linecap="round" stroke-linejoin="round" stroke-miterlimit="10" d="M14.621,21.036
			c1.562,1.562,3.534,2.121,3.534,2.121s-0.559-1.973-2.12-3.535c-0.545-0.544-1.138-0.965-1.68-1.285
			C15.324,18.682,16.599,19,18,19c3.038,0,5.5-1.5,5.5-1.5S21.038,16,18,16c-1.446,0-2.758,0.34-3.739,0.696
			c1.187-0.624,2.793-1.628,4.249-3.085c2.734-2.734,3.89-6.01,3.89-6.01s-3.277,1.154-6.011,3.889
			c-1.639,1.639-2.706,3.467-3.302,4.673C13.678,14.653,14.5,12.013,14.5,9c0-4.693-2-8.5-2-8.5s-2,3.807-2,8.5
			c0,3.013,0.822,5.652,1.411,7.163c-0.595-1.207-1.661-3.034-3.301-4.673c-2.733-2.734-6.01-3.889-6.01-3.889
			s1.154,3.275,3.889,6.01c1.457,1.457,3.063,2.461,4.25,3.085C9.758,16.341,8.446,16,7,16c-3.038,0-5.5,1.5-5.5,1.5S3.962,19,7,19
			c1.4,0,2.675-0.318,3.647-0.663c-0.545,0.32-1.139,0.741-1.683,1.285c-1.562,1.562-2.122,3.535-2.122,3.535
			s1.974-0.559,3.536-2.121"/>
	</g>
</g>
<g id="invisible_shape">
	<rect fill="none" width="24" height="24"/>
</g>
</svg>
