<?xml version="1.0" encoding="utf-8"?>
<!-- Generator: Adobe Illustrator 16.0.3, SVG Export Plug-In . SVG Version: 6.00 Build 0)  -->
<!DOCTYPE svg PUBLIC "-//W3C//DTD SVG 1.1//EN" "http://www.w3.org/Graphics/SVG/1.1/DTD/svg11.dtd">
<svg version="1.1" xmlns="http://www.w3.org/2000/svg" xmlns:xlink="http://www.w3.org/1999/xlink" x="0px" y="0px" width="24px"
	 height="24px" viewBox="0 0 24 24" enable-background="new 0 0 24 24" xml:space="preserve">
<g id="Outline_Icons">
	<g>
		<path fill="none" stroke="#000000" stroke-linejoin="round" stroke-miterlimit="10" d="M20.5,6.854
			c0-3.187-2.062-5.699-4.604-5.699c-1.644,0-3.081,0.863-3.896,2.157c-0.815-1.294-2.253-2.157-3.896-2.157
			C5.562,1.154,3.5,3.667,3.5,6.854c0,3.448,1.105,5.648,2.52,7.058c-0.697,1.646-1.104,3.598-1.104,5.692
			c0,1.098,0.111,2.158,0.318,3.156c0.09,0.431,0.47,0.741,0.91,0.741c0.495,0,0.91-0.372,0.964-0.863
			c0.385-3.531,2.429-6.22,4.892-6.22c2.469,0,4.517,2.705,4.895,6.248c0.05,0.476,0.451,0.836,0.929,0.836
			c0.46,0,0.856-0.325,0.949-0.776c0.202-0.987,0.311-2.036,0.311-3.121c0-2.094-0.405-4.046-1.103-5.692
			C19.394,12.502,20.5,10.301,20.5,6.854z"/>
		<polygon fill="none" stroke="#000000" stroke-linejoin="round" stroke-miterlimit="10" points="10.5,11.5 10.5,13.5 13.5,13.5 
			13.5,11.5 15.5,11.5 15.5,8.5 13.5,8.5 13.5,6.5 10.5,6.5 10.5,8.5 8.5,8.5 8.5,11.5 		"/>
	</g>
</g>
<g id="invisible_shape">
	<rect fill="none" width="24" height="24"/>
</g>
</svg>
