<?xml version="1.0" encoding="utf-8"?>
<!-- Generator: Adobe Illustrator 16.0.3, SVG Export Plug-In . SVG Version: 6.00 Build 0)  -->
<!DOCTYPE svg PUBLIC "-//W3C//DTD SVG 1.1//EN" "http://www.w3.org/Graphics/SVG/1.1/DTD/svg11.dtd">
<svg version="1.1" xmlns="http://www.w3.org/2000/svg" xmlns:xlink="http://www.w3.org/1999/xlink" x="0px" y="0px" width="24px"
	 height="24px" viewBox="0 0 24 24" enable-background="new 0 0 24 24" xml:space="preserve">
<g id="Outline_Icons">
	<g>
		<path fill="none" stroke="#000000" stroke-linejoin="round" stroke-miterlimit="10" d="M16.5,8.76
			c0-1.875-1.213-3.354-2.708-3.354c-0.967,0-1.812,0.508-2.292,1.27c-0.479-0.762-1.325-1.27-2.291-1.27
			C7.713,5.406,6.5,6.885,6.5,8.76c0,2.028,0.651,3.322,1.482,4.151c-0.41,0.968-0.648,2.116-0.648,3.349
			c0,0.646,0.064,1.269,0.187,1.855c0.053,0.254,0.276,0.436,0.535,0.436c0.292,0,0.536-0.218,0.567-0.508
			c0.227-2.076,1.429-3.658,2.877-3.658c1.452,0,2.657,1.591,2.879,3.675c0.03,0.279,0.266,0.491,0.547,0.491
			c0.271,0,0.504-0.19,0.559-0.455c0.119-0.581,0.183-1.197,0.183-1.836c0-1.232-0.239-2.381-0.649-3.349
			C15.85,12.082,16.5,10.788,16.5,8.76z"/>
		<path fill="none" stroke="#000000" stroke-linecap="round" stroke-linejoin="round" stroke-miterlimit="10" d="M11.508,0.479
			h-0.017C9,2.977,1.5,5,1.5,5c0,7.961,0.5,14.961,10,18.479C21,19.961,21.5,12.961,21.5,5C21.5,5,14,2.977,11.508,0.479z"/>
	</g>
</g>
<g id="invisible_shape">
	<rect fill="none" width="24" height="24"/>
</g>
</svg>
