<?xml version="1.0" encoding="utf-8"?>
<!-- Generator: Adobe Illustrator 16.0.3, SVG Export Plug-In . SVG Version: 6.00 Build 0)  -->
<!DOCTYPE svg PUBLIC "-//W3C//DTD SVG 1.1//EN" "http://www.w3.org/Graphics/SVG/1.1/DTD/svg11.dtd">
<svg version="1.1" xmlns="http://www.w3.org/2000/svg" xmlns:xlink="http://www.w3.org/1999/xlink" x="0px" y="0px" width="24px"
	 height="24px" viewBox="0 0 24 24" enable-background="new 0 0 24 24" xml:space="preserve">
<g id="Outline_Icons">
	<g>
		<path fill="none" stroke="#000000" stroke-linejoin="round" stroke-miterlimit="10" d="M2.5,10.5h7v3c0,1.1-0.9,2-2,2v4h-3v-4
			c-1.102,0-2-0.9-2-2V10.5z"/>
		<circle fill="none" stroke="#000000" stroke-linejoin="round" stroke-miterlimit="10" cx="6" cy="6.999" r="2.5"/>
		<path fill="none" stroke="#000000" stroke-linejoin="round" stroke-miterlimit="10" d="M0.5,20.5c0,0.552,0.447,1,1,1h9
			c0.553,0,1-0.448,1-1v-17c0-0.552-0.447-1-1-1h-9c-0.553,0-1,0.448-1,1V20.5z"/>
		<rect x="1.5" y="21.5" fill="none" stroke="#000000" stroke-linejoin="round" stroke-miterlimit="10" width="2" height="2"/>
		<rect x="8.5" y="21.5" fill="none" stroke="#000000" stroke-linejoin="round" stroke-miterlimit="10" width="2" height="2"/>
		<rect x="1.5" y="0.5" fill="none" stroke="#000000" stroke-linejoin="round" stroke-miterlimit="10" width="2" height="2"/>
		<rect x="8.5" y="0.5" fill="none" stroke="#000000" stroke-linejoin="round" stroke-miterlimit="10" width="2" height="2"/>
		<polygon fill="none" stroke="#000000" stroke-linecap="round" stroke-linejoin="round" stroke-miterlimit="10" points="22.5,6.5 
			19.5,6.5 19.5,3.5 16.5,3.5 16.5,6.5 13.5,6.5 13.5,9.5 16.5,9.5 16.5,12.5 19.5,12.5 19.5,9.5 22.5,9.5 		"/>
	</g>
</g>
<g id="invisible_shape">
	<rect fill="none" width="24" height="24"/>
</g>
</svg>
