<?xml version="1.0" encoding="utf-8"?>
<!-- Generator: Adobe Illustrator 16.0.3, SVG Export Plug-In . SVG Version: 6.00 Build 0)  -->
<!DOCTYPE svg PUBLIC "-//W3C//DTD SVG 1.1//EN" "http://www.w3.org/Graphics/SVG/1.1/DTD/svg11.dtd">
<svg version="1.1" xmlns="http://www.w3.org/2000/svg" xmlns:xlink="http://www.w3.org/1999/xlink" x="0px" y="0px" width="24px"
	 height="24px" viewBox="0 0 24 24" enable-background="new 0 0 24 24" xml:space="preserve">
<g id="Outline_Icons">
	<g>
		<path fill="none" stroke="#000000" stroke-linecap="round" stroke-linejoin="round" stroke-miterlimit="10" d="M9.89,2.11
			c-2.147-2.147-5.63-2.147-7.778,0c-2.149,2.15-2.147,5.633,0,7.779l12,12c2.147,2.147,5.63,2.146,7.778-0.001
			c2.147-2.145,2.147-5.631,0-7.777L9.89,2.11z"/>
		
			<rect x="6.501" y="8.5" transform="matrix(0.7071 -0.7071 0.7071 0.7071 -4.9706 12.0009)" fill="none" stroke="#000000" stroke-linecap="round" stroke-linejoin="round" stroke-miterlimit="10" width="10.999" height="7.001"/>
		<g>
			<g>
				<path d="M4.223,7.965c-0.128,0-0.256,0.048-0.354,0.146c-0.195,0.196-0.195,0.512,0,0.708c0.098,0.098,0.226,0.146,0.354,0.146
					s0.256-0.049,0.354-0.146c0.196-0.196,0.196-0.512,0-0.708C4.479,8.013,4.351,7.965,4.223,7.965L4.223,7.965z"/>
			</g>
		</g>
		<g>
			<g>
				<path d="M6.344,5.843c-0.128,0-0.256,0.049-0.354,0.147c-0.195,0.194-0.195,0.512,0,0.708c0.098,0.097,0.226,0.146,0.354,0.146
					S6.6,6.794,6.697,6.697c0.195-0.195,0.195-0.513,0-0.708C6.6,5.892,6.472,5.843,6.344,5.843L6.344,5.843z"/>
			</g>
		</g>
		<g>
			<g>
				<path d="M3.869,5.489c-0.128,0-0.256,0.048-0.354,0.146c-0.195,0.195-0.195,0.511,0,0.708C3.613,6.441,3.741,6.49,3.869,6.49
					s0.256-0.049,0.354-0.146c0.196-0.197,0.196-0.513,0-0.708C4.125,5.538,3.997,5.489,3.869,5.489L3.869,5.489z"/>
			</g>
		</g>
		<g>
			<g>
				<path d="M5.99,3.369c-0.128,0-0.256,0.049-0.354,0.146c-0.195,0.195-0.195,0.512,0,0.707C5.734,4.32,5.862,4.369,5.99,4.369
					S6.246,4.32,6.344,4.221c0.195-0.195,0.195-0.511,0-0.707C6.246,3.418,6.118,3.369,5.99,3.369L5.99,3.369z"/>
			</g>
		</g>
		<g>
			<g>
				<path d="M6.697,8.317c-0.128,0-0.256,0.05-0.354,0.148c-0.195,0.195-0.195,0.511,0,0.707C6.441,9.27,6.569,9.319,6.697,9.319
					S6.953,9.27,7.051,9.171c0.195-0.195,0.195-0.512,0-0.707C6.953,8.367,6.825,8.317,6.697,8.317L6.697,8.317z"/>
			</g>
		</g>
		<g>
			<g>
				<path d="M8.818,6.196c-0.128,0-0.256,0.049-0.354,0.147c-0.195,0.195-0.195,0.511,0,0.706C8.562,7.148,8.69,7.197,8.818,7.197
					s0.256-0.049,0.354-0.148c0.196-0.195,0.196-0.511,0-0.706C9.074,6.246,8.946,6.196,8.818,6.196L8.818,6.196z"/>
			</g>
		</g>
		<g>
			<g>
				<path d="M8.465,3.721c-0.128,0-0.256,0.049-0.354,0.146c-0.195,0.196-0.195,0.513,0,0.708c0.098,0.098,0.226,0.147,0.354,0.147
					s0.256-0.049,0.354-0.147c0.195-0.195,0.195-0.512,0-0.708C8.721,3.77,8.593,3.721,8.465,3.721L8.465,3.721z"/>
			</g>
		</g>
		<g>
			<g>
				<path d="M15.536,19.279c-0.128,0-0.256,0.048-0.354,0.146c-0.195,0.195-0.195,0.511,0,0.708
					c0.098,0.097,0.226,0.145,0.354,0.145s0.256-0.047,0.354-0.145c0.195-0.197,0.195-0.513,0-0.708
					C15.792,19.327,15.664,19.279,15.536,19.279L15.536,19.279z"/>
			</g>
		</g>
		<g>
			<g>
				<path d="M17.657,17.156c-0.128,0-0.256,0.05-0.354,0.147c-0.196,0.195-0.196,0.512,0,0.708c0.098,0.098,0.226,0.146,0.354,0.146
					s0.256-0.049,0.354-0.146c0.195-0.196,0.195-0.512,0-0.708C17.913,17.206,17.785,17.156,17.657,17.156L17.657,17.156z"/>
			</g>
		</g>
		<g>
			<g>
				<path d="M18.011,19.631c-0.128,0-0.256,0.049-0.354,0.146c-0.195,0.197-0.195,0.513,0,0.708
					c0.098,0.098,0.226,0.146,0.354,0.146s0.256-0.049,0.354-0.146c0.196-0.194,0.196-0.511,0-0.708
					C18.267,19.68,18.139,19.631,18.011,19.631L18.011,19.631z"/>
			</g>
		</g>
		<g>
			<g>
				<path d="M20.133,17.511c-0.128,0-0.256,0.049-0.354,0.146c-0.195,0.195-0.195,0.511,0,0.707
					c0.098,0.098,0.226,0.146,0.354,0.146s0.256-0.049,0.354-0.146c0.195-0.196,0.195-0.512,0-0.707
					C20.389,17.56,20.261,17.511,20.133,17.511L20.133,17.511z"/>
			</g>
		</g>
		<g>
			<g>
				<path d="M15.183,16.803c-0.128,0-0.256,0.049-0.354,0.147c-0.195,0.195-0.195,0.512,0,0.708
					c0.098,0.097,0.226,0.146,0.354,0.146s0.256-0.049,0.354-0.146c0.195-0.195,0.195-0.513,0-0.708
					C15.438,16.852,15.311,16.803,15.183,16.803L15.183,16.803z"/>
			</g>
		</g>
		<g>
			<g>
				<path d="M17.304,14.682c-0.128,0-0.256,0.048-0.354,0.146c-0.195,0.197-0.195,0.512,0,0.708
					c0.098,0.098,0.226,0.146,0.354,0.146s0.256-0.049,0.354-0.146c0.196-0.196,0.196-0.511,0-0.708
					C17.56,14.73,17.432,14.682,17.304,14.682L17.304,14.682z"/>
			</g>
		</g>
		<g>
			<g>
				<path d="M19.779,15.035c-0.128,0-0.256,0.049-0.354,0.147c-0.195,0.194-0.195,0.511,0,0.706
					c0.098,0.098,0.226,0.147,0.354,0.147s0.255-0.049,0.353-0.147c0.196-0.195,0.196-0.512,0-0.706
					C20.034,15.084,19.907,15.035,19.779,15.035L19.779,15.035z"/>
			</g>
		</g>
	</g>
</g>
<g id="invisible_shape">
	<rect fill="none" width="24" height="24"/>
</g>
</svg>
