<?xml version="1.0" encoding="utf-8"?>
<!-- Generator: Adobe Illustrator 16.0.3, SVG Export Plug-In . SVG Version: 6.00 Build 0)  -->
<!DOCTYPE svg PUBLIC "-//W3C//DTD SVG 1.1//EN" "http://www.w3.org/Graphics/SVG/1.1/DTD/svg11.dtd">
<svg version="1.1" xmlns="http://www.w3.org/2000/svg" xmlns:xlink="http://www.w3.org/1999/xlink" x="0px" y="0px" width="24px"
	 height="24px" viewBox="0 0 24 24" enable-background="new 0 0 24 24" xml:space="preserve">
<g id="Outline_Icons">
	<g>
		<path fill="none" stroke="#000000" stroke-linecap="round" stroke-linejoin="round" stroke-miterlimit="10" d="M22.5,9.5v12
			c0,1.1-0.9,2-2,2h-7c-1.1,0-2-0.9-2-2v-12"/>
		<path fill="none" stroke="#000000" stroke-linecap="round" stroke-linejoin="round" stroke-miterlimit="10" d="M23.5,9.5h-13V8
			c0-0.828,0.67-1.5,1.5-1.5h10c0.828,0,1.5,0.672,1.5,1.5V9.5z"/>
		
			<rect x="15.5" y="12.5" fill="none" stroke="#000000" stroke-linecap="round" stroke-linejoin="round" stroke-miterlimit="10" width="7" height="7"/>
		<path fill="none" stroke="#000000" stroke-linecap="round" stroke-linejoin="round" stroke-miterlimit="10" d="M9.5,22
			c0,0.828-0.672,1.5-1.5,1.5H3c-0.828,0-1.5-0.672-1.5-1.5s0.672-1.5,1.5-1.5h5C8.828,20.5,9.5,21.172,9.5,22z"/>
		
			<line fill="none" stroke="#000000" stroke-linecap="round" stroke-linejoin="round" stroke-miterlimit="10" x1="5.5" y1="20.5" x2="5.5" y2="23.5"/>
		<path fill="none" stroke="#000000" stroke-linecap="round" stroke-linejoin="round" stroke-miterlimit="10" d="M10.096,13.439
			c0.586,0.586,0.586,1.535,0,2.121l-3.535,3.536c-0.586,0.585-1.535,0.585-2.121,0s-0.586-1.536,0-2.122l3.535-3.535
			C8.561,12.854,9.511,12.854,10.096,13.439z"/>
		
			<line fill="none" stroke="#000000" stroke-linecap="round" stroke-linejoin="round" stroke-miterlimit="10" x1="6.207" y1="15.207" x2="8.328" y2="17.328"/>
	</g>
</g>
<g id="invisible_shape">
	<rect fill="none" width="24" height="24"/>
</g>
</svg>
