<?xml version="1.0" encoding="utf-8"?>
<!-- Generator: Adobe Illustrator 16.0.3, SVG Export Plug-In . SVG Version: 6.00 Build 0)  -->
<!DOCTYPE svg PUBLIC "-//W3C//DTD SVG 1.1//EN" "http://www.w3.org/Graphics/SVG/1.1/DTD/svg11.dtd">
<svg version="1.1" xmlns="http://www.w3.org/2000/svg" xmlns:xlink="http://www.w3.org/1999/xlink" x="0px" y="0px" width="24px"
	 height="24px" viewBox="0 0 24 24" enable-background="new 0 0 24 24" xml:space="preserve">
<g id="Outline_Icons">
	<g>
		<g>
			<polyline fill="none" stroke="#000000" stroke-linejoin="round" stroke-miterlimit="10" points="19.497,9.021 19.497,0.5 
				10.497,0.5 10.497,6.021 			"/>
			<path fill="none" stroke="#000000" stroke-linejoin="round" stroke-miterlimit="10" d="M10.497,13.021V18.5h-4
				c-2.33,0-4.288,1.594-4.843,3.75c-0.077,0.299-0.011,0.618,0.179,0.862S2.314,23.5,2.623,23.5h15.874c0.552,0,1-0.447,1-1v-6.875
				"/>
			
				<ellipse transform="matrix(0.9544 0.2986 -0.2986 0.9544 3.8546 -0.4586)" fill="none" stroke="#000000" stroke-linejoin="round" stroke-miterlimit="10" cx="3.428" cy="12.385" rx="2.5" ry="1.5"/>
			<path fill="none" stroke="#000000" stroke-linejoin="round" stroke-miterlimit="10" d="M1.042,11.639l1.94-6.203
				C3.229,4.645,4.498,4.338,5.816,4.75l16.679,4.771v7L3.876,10.954"/>
		</g>
		<line fill="none" stroke="#000000" stroke-linejoin="round" stroke-miterlimit="10" x1="10.5" y1="18.5" x2="19.5" y2="16.5"/>
		
			<line fill="none" stroke="#000000" stroke-linejoin="round" stroke-miterlimit="10" x1="10.497" y1="4.646" x2="19.495" y2="2.146"/>
		
			<line fill="none" stroke="#000000" stroke-linejoin="round" stroke-miterlimit="10" x1="19.5" y1="16.5" x2="14.495" y2="23.521"/>
		
			<line fill="none" stroke="#000000" stroke-linejoin="round" stroke-miterlimit="10" x1="10.497" y1="18.5" x2="11.495" y2="23.521"/>
		
			<line fill="none" stroke="#000000" stroke-linejoin="round" stroke-miterlimit="10" x1="5.497" y1="18.5" x2="6.495" y2="23.521"/>
	</g>
</g>
<g id="invisible_shape">
	<rect fill="none" width="24" height="24"/>
</g>
</svg>
