<?xml version="1.0" encoding="utf-8"?>
<!-- Generator: Adobe Illustrator 16.0.3, SVG Export Plug-In . SVG Version: 6.00 Build 0)  -->
<!DOCTYPE svg PUBLIC "-//W3C//DTD SVG 1.1//EN" "http://www.w3.org/Graphics/SVG/1.1/DTD/svg11.dtd">
<svg version="1.1" xmlns="http://www.w3.org/2000/svg" xmlns:xlink="http://www.w3.org/1999/xlink" x="0px" y="0px" width="24px"
	 height="24px" viewBox="0 0 24 24" enable-background="new 0 0 24 24" xml:space="preserve">
<g id="Outline_Icons">
	<g>
		<path fill="none" stroke="#000000" stroke-linecap="round" stroke-linejoin="round" stroke-miterlimit="10" d="M16.487,2.875
			c-2.011,0-3.804-0.935-4.979-2.396h-0.017C10.316,1.94,8.523,2.875,6.513,2.875C4.753,2.875,3.158,2.159,1.5,1v14.812
			c0,0,1.45,5.271,10,7.667c8.55-2.396,10-7.667,10-7.667V1C19.841,2.159,18.247,2.875,16.487,2.875z"/>
		<polygon fill="none" stroke="#000000" stroke-linecap="round" stroke-linejoin="round" stroke-miterlimit="10" points="16.5,9.5 
			13.5,9.5 13.5,6.5 9.5,6.5 9.5,9.5 6.5,9.5 6.5,13.5 9.5,13.5 9.5,16.5 13.5,16.5 13.5,13.5 16.5,13.5 		"/>
	</g>
</g>
<g id="invisible_shape">
	<rect fill="none" width="24" height="24"/>
</g>
</svg>
