<?xml version="1.0" encoding="utf-8"?>
<!-- Generator: Adobe Illustrator 16.0.3, SVG Export Plug-In . SVG Version: 6.00 Build 0)  -->
<!DOCTYPE svg PUBLIC "-//W3C//DTD SVG 1.1//EN" "http://www.w3.org/Graphics/SVG/1.1/DTD/svg11.dtd">
<svg version="1.1" xmlns="http://www.w3.org/2000/svg" xmlns:xlink="http://www.w3.org/1999/xlink" x="0px" y="0px" width="24px"
	 height="24px" viewBox="0 0 24 24" enable-background="new 0 0 24 24" xml:space="preserve">
<g id="Outline_Icons">
	<g>
		<path fill="none" stroke="#000000" stroke-linecap="round" stroke-linejoin="round" stroke-miterlimit="10" d="M1.5,9.5
			c-0.554,0-1,0.448-1,1c0,0.553,0.446,1,1,1h1c0,4.124,2.631,8.124,6.303,9.437C6.545,21.563,5,22.726,5,23.5h14
			c0-0.774-1.547-1.937-3.804-2.563c3.671-1.312,6.304-5.312,6.304-9.437h1c0.551,0,1-0.447,1-1c0-0.552-0.449-1-1-1H1.5z"/>
		<path fill="none" stroke="#000000" stroke-linecap="round" stroke-linejoin="round" stroke-miterlimit="10" d="M18,7.5
			c3.934-5.488,4.207-5.923,3.5-6.5c-0.758-0.616-1.225-0.289-7.5,6.5"/>
		<path fill="none" stroke="#000000" stroke-linecap="round" stroke-linejoin="round" stroke-miterlimit="10" d="M9.501,18.003
			c-1.581-0.658-2.846-1.923-3.505-3.505"/>
	</g>
</g>
<g id="invisible_shape">
	<rect fill="none" width="24" height="24"/>
</g>
</svg>
