<?xml version="1.0" encoding="utf-8"?>
<!-- Generator: Adobe Illustrator 16.0.3, SVG Export Plug-In . SVG Version: 6.00 Build 0)  -->
<!DOCTYPE svg PUBLIC "-//W3C//DTD SVG 1.1//EN" "http://www.w3.org/Graphics/SVG/1.1/DTD/svg11.dtd">
<svg version="1.1" xmlns="http://www.w3.org/2000/svg" xmlns:xlink="http://www.w3.org/1999/xlink" x="0px" y="0px" width="24px"
	 height="24px" viewBox="0 0 24 24" enable-background="new 0 0 24 24" xml:space="preserve">
<g id="Outline_Icons">
	<g>
		<g>
			<path fill="none" stroke="#000000" stroke-linejoin="round" stroke-miterlimit="10" d="M19,8.5c-3.59,0-5.5-1.906-5.5-3
				s1.91-3,5.5-3c2,0,4.5,0.969,4.5,3S21.062,8.5,19,8.5z"/>
			<path fill="none" stroke="#000000" stroke-linecap="round" stroke-linejoin="round" stroke-miterlimit="10" d="M13.5,5.5
				c-2.719,0-2.615-1.958-4.959-1.958S6,8.031,3.562,8.031c-1.764,0-2.088-1.587-3.032-2.465"/>
		</g>
		<g>
			<path fill="none" stroke="#000000" stroke-linejoin="round" stroke-miterlimit="10" d="M18.543,21.472
				c-2.359,0-3.615-1.253-3.615-1.972s1.256-1.972,3.615-1.972c1.314,0,2.957,0.637,2.957,1.972S19.898,21.472,18.543,21.472z"/>
			<path fill="none" stroke="#000000" stroke-linecap="round" stroke-linejoin="round" stroke-miterlimit="10" d="M14.928,19.5
				c-1.786,0-1.717-1.287-3.258-1.287c-1.54,0-1.67,2.95-3.271,2.95c-1.16,0-1.373-1.043-1.993-1.619"/>
		</g>
		<g>
			<path fill="none" stroke="#000000" stroke-linejoin="round" stroke-miterlimit="10" d="M13.543,14.472
				c-2.359,0-3.615-1.253-3.615-1.972s1.256-1.972,3.615-1.972c1.314,0,2.957,0.637,2.957,1.972S14.898,14.472,13.543,14.472z"/>
			<path fill="none" stroke="#000000" stroke-linecap="round" stroke-linejoin="round" stroke-miterlimit="10" d="M9.928,12.5
				c-1.786,0-1.717-1.287-3.258-1.287c-1.54,0-1.67,2.95-3.271,2.95c-1.16,0-1.373-1.043-1.993-1.619"/>
		</g>
	</g>
</g>
<g id="invisible_shape">
	<rect fill="none" width="24" height="24"/>
</g>
</svg>
