<?xml version="1.0" encoding="utf-8"?>
<!-- Generator: Adobe Illustrator 16.0.3, SVG Export Plug-In . SVG Version: 6.00 Build 0)  -->
<!DOCTYPE svg PUBLIC "-//W3C//DTD SVG 1.1//EN" "http://www.w3.org/Graphics/SVG/1.1/DTD/svg11.dtd">
<svg version="1.1" xmlns="http://www.w3.org/2000/svg" xmlns:xlink="http://www.w3.org/1999/xlink" x="0px" y="0px" width="24px"
	 height="24px" viewBox="0 0 24 24" enable-background="new 0 0 24 24" xml:space="preserve">
<g id="Outline_Icons">
	<g>
		<path fill="none" stroke="#000000" stroke-linejoin="round" stroke-miterlimit="10" d="M15.286,9.467
			c0-1.313-0.849-2.347-1.896-2.347c-0.677,0-1.269,0.356-1.604,0.889C11.45,7.476,10.858,7.12,10.182,7.12
			c-1.047,0-1.896,1.034-1.896,2.347c0,1.42,0.456,2.326,1.038,2.906c-0.288,0.678-0.455,1.48-0.455,2.344
			c0,0.452,0.046,0.888,0.131,1.299c0.037,0.177,0.194,0.305,0.375,0.305c0.204,0,0.375-0.152,0.397-0.355
			c0.158-1.453,1-2.561,2.014-2.561c1.017,0,1.86,1.113,2.016,2.573c0.021,0.195,0.186,0.343,0.383,0.343
			c0.189,0,0.353-0.134,0.391-0.319c0.083-0.407,0.128-0.838,0.128-1.285c0-0.863-0.167-1.666-0.454-2.344
			C14.83,11.792,15.286,10.887,15.286,9.467z"/>
		<polyline fill="none" stroke="#000000" stroke-linecap="round" stroke-linejoin="round" stroke-miterlimit="10" points="
			0.5,10.358 3.287,14.509 6.491,10.671 		"/>
		<polyline fill="none" stroke="#000000" stroke-linecap="round" stroke-linejoin="round" stroke-miterlimit="10" points="
			23.073,14.66 20.287,10.509 17.081,14.347 		"/>
		<path fill="none" stroke="#000000" stroke-linecap="round" stroke-linejoin="round" stroke-miterlimit="10" d="M20.25,10.546
			c0.834,4.409-2.274,8.727-6.509,9.729c-2.954,0.699-5.916-0.239-7.931-2.224"/>
		<path fill="none" stroke="#000000" stroke-linecap="round" stroke-linejoin="round" stroke-miterlimit="10" d="M3.291,14.483
			C1.978,9.602,5.262,4.81,9.829,3.73c3.156-0.746,6.316,0.374,8.325,2.642"/>
	</g>
</g>
<g id="invisible_shape">
	<rect fill="none" width="24" height="24"/>
</g>
</svg>
