<?xml version="1.0" encoding="utf-8"?>
<!-- Generator: Adobe Illustrator 16.0.3, SVG Export Plug-In . SVG Version: 6.00 Build 0)  -->
<!DOCTYPE svg PUBLIC "-//W3C//DTD SVG 1.1//EN" "http://www.w3.org/Graphics/SVG/1.1/DTD/svg11.dtd">
<svg version="1.1" xmlns="http://www.w3.org/2000/svg" xmlns:xlink="http://www.w3.org/1999/xlink" x="0px" y="0px" width="24px"
	 height="24px" viewBox="0 0 24 24" enable-background="new 0 0 24 24" xml:space="preserve">
<g id="Outline_Icons">
	<g>
		<path fill="none" stroke="#000000" stroke-linecap="round" stroke-linejoin="round" stroke-miterlimit="10" d="M2.5,23.5h18l2-19
			c-2.973-2.55-6.775-4-11-4s-8.027,1.45-11,4L2.5,23.5z"/>
		<path fill="none" stroke="#000000" stroke-linecap="round" stroke-linejoin="round" stroke-miterlimit="10" d="M20,5.1v3.4H3V5.1
			C4.391,4.15,5.95,3.44,7.62,3c1.24-0.33,2.54-0.5,3.88-0.5s2.641,0.17,3.88,0.5C17.05,3.44,18.61,4.15,20,5.1z"/>
		<path fill="none" stroke="#000000" stroke-linecap="round" stroke-linejoin="round" stroke-miterlimit="10" d="M4.263,18.886
			c0.134,1.48,1.376,2.614,2.862,2.614C8.713,21.5,10,20.213,10,18.625v-5.022C10,11.89,8.611,10.5,6.897,10.5
			c-0.872,0-1.703,0.367-2.291,1.011s-0.878,1.505-0.799,2.373L4.263,18.886z"/>
		<path fill="none" stroke="#000000" stroke-linecap="round" stroke-linejoin="round" stroke-miterlimit="10" d="M18.737,18.886
			c-0.134,1.48-1.376,2.614-2.862,2.614C14.287,21.5,13,20.213,13,18.625v-5.022c0-1.713,1.389-3.103,3.103-3.103
			c0.872,0,1.703,0.367,2.291,1.011s0.878,1.505,0.799,2.373L18.737,18.886z"/>
		<polyline fill="none" stroke="#000000" stroke-linejoin="round" stroke-miterlimit="10" points="10.5,8.5 11.5,5.5 12.5,8.5 		"/>
		
			<line fill="none" stroke="#000000" stroke-linecap="round" stroke-linejoin="round" stroke-miterlimit="10" x1="11.5" y1="4" x2="11.5" y2="2.5"/>
		
			<line fill="none" stroke="#000000" stroke-linecap="round" stroke-linejoin="round" stroke-miterlimit="10" x1="14" y1="4.233" x2="14.277" y2="2.759"/>
		
			<line fill="none" stroke="#000000" stroke-linecap="round" stroke-linejoin="round" stroke-miterlimit="10" x1="16.413" y1="4.926" x2="16.96" y2="3.529"/>
		
			<line fill="none" stroke="#000000" stroke-linecap="round" stroke-linejoin="round" stroke-miterlimit="10" x1="9" y1="4.233" x2="8.723" y2="2.759"/>
		
			<line fill="none" stroke="#000000" stroke-linecap="round" stroke-linejoin="round" stroke-miterlimit="10" x1="6.587" y1="4.926" x2="6.041" y2="3.529"/>
	</g>
</g>
<g id="invisible_shape">
	<rect fill="none" width="24" height="24"/>
</g>
</svg>
