<?xml version="1.0" encoding="utf-8"?>
<!-- Generator: Adobe Illustrator 19.2.1, SVG Export Plug-In . SVG Version: 6.00 Build 0)  -->
<svg version="1.1" xmlns="http://www.w3.org/2000/svg" xmlns:xlink="http://www.w3.org/1999/xlink" x="0px" y="0px" width="24px"
	 height="24px" viewBox="0 0 24 24" enable-background="new 0 0 24 24" xml:space="preserve">
<g id="Filled_Icons">
	<g>
		<path d="M21.854,6.147l-6-6C15.76,0.053,15.633,0,15.5,0h-13C2.225,0,2,0.224,2,0.5v23C2,23.776,2.225,24,2.5,24h19
			c0.276,0,0.5-0.224,0.5-0.5v-17C22,6.367,21.947,6.24,21.854,6.147z M9.644,18.979c-0.269,0.08-0.545-0.075-0.622-0.335L8.828,18
			H7.172l-0.193,0.644c-0.079,0.266-0.358,0.414-0.622,0.335c-0.265-0.08-0.415-0.358-0.335-0.623l1.5-5
			c0.127-0.423,0.83-0.423,0.957,0l1.5,5C10.059,18.621,9.908,18.899,9.644,18.979z M13,18.5c0,0.276-0.224,0.5-0.5,0.5
			S12,18.776,12,18.5v-5c0-0.276,0.224-0.5,0.5-0.5s0.5,0.224,0.5,0.5V18.5z M17.5,14H16v1h1c0.276,0,0.5,0.224,0.5,0.5
			S17.276,16,17,16h-1v2.5c0,0.276-0.224,0.5-0.5,0.5S15,18.776,15,18.5v-5c0-0.276,0.224-0.5,0.5-0.5h2c0.276,0,0.5,0.224,0.5,0.5
			S17.776,14,17.5,14z M15,7V1l6,6H15z"/>
		<polygon points="7.472,17 8.528,17 8,15.24 		"/>
	</g>
</g>
<g id="Invisible_Shape">
	<rect fill="none" width="24" height="24"/>
</g>
</svg>
