<?xml version="1.0" encoding="utf-8"?>
<!-- Generator: Adobe Illustrator 19.2.1, SVG Export Plug-In . SVG Version: 6.00 Build 0)  -->
<svg version="1.1" xmlns="http://www.w3.org/2000/svg" xmlns:xlink="http://www.w3.org/1999/xlink" x="0px" y="0px" width="24px"
	 height="24px" viewBox="0 0 24 24" enable-background="new 0 0 24 24" xml:space="preserve">
<g id="Filled_Icons">
	<path d="M21.854,6.147l-6-6C15.76,0.053,15.633,0,15.5,0h-13C2.225,0,2,0.224,2,0.5v23C2,23.776,2.225,24,2.5,24h19
		c0.275,0,0.5-0.224,0.5-0.5v-17C22,6.367,21.947,6.241,21.854,6.147z M13,19c0,0.447-0.541,0.666-0.854,0.354L8.793,16H7.25
		C6.561,16,6,15.44,6,14.75v-1.5C6,12.561,6.561,12,7.25,12h1.543l3.353-3.354C12.463,8.331,13,8.559,13,9V19z M14.294,16.154
		c-0.225,0.164-0.537,0.112-0.698-0.11c-0.162-0.223-0.113-0.536,0.11-0.698c1.061-0.773,1.061-1.918,0-2.691
		c-0.224-0.162-0.273-0.475-0.11-0.698c0.163-0.224,0.476-0.271,0.698-0.11C15.902,13.016,15.906,14.982,14.294,16.154z
		 M16.318,17.386c-0.212,0.175-0.526,0.147-0.704-0.067c-0.176-0.213-0.146-0.528,0.067-0.704c1.748-1.447,1.735-3.796,0-5.229
		c-0.213-0.176-0.243-0.491-0.067-0.704c0.176-0.213,0.493-0.242,0.704-0.067C18.592,12.491,18.495,15.586,16.318,17.386z M15,7V1
		l6,6H15z"/>
</g>
<g id="Invisible_Shape">
	<rect fill="none" width="24" height="24"/>
</g>
</svg>
