<?xml version="1.0" encoding="utf-8"?>
<!-- Generator: Adobe Illustrator 19.2.1, SVG Export Plug-In . SVG Version: 6.00 Build 0)  -->
<svg version="1.1" xmlns="http://www.w3.org/2000/svg" xmlns:xlink="http://www.w3.org/1999/xlink" x="0px" y="0px" width="24px"
	 height="24px" viewBox="0 0 24 24" enable-background="new 0 0 24 24" xml:space="preserve">
<g id="Filled_Icons">
	<g>
		<path d="M12.742,10H12v2.001h0.742c1.167,0,1.258-0.766,1.258-1C14,10.766,13.909,10,12.742,10z"/>
		<path d="M23.5,6h-23C0.224,6,0,6.224,0,6.5v12C0,18.776,0.224,19,0.5,19h23c0.276,0,0.5-0.224,0.5-0.5v-12
			C24,6.224,23.776,6,23.5,6z M9,15.5C9,15.776,8.776,16,8.5,16S8,15.776,8,15.5v-4.349l-1.084,1.626
			c-0.185,0.278-0.647,0.278-0.832,0L5,11.151V15.5C5,15.776,4.776,16,4.5,16S4,15.776,4,15.5v-6c0-0.489,0.641-0.691,0.916-0.277
			L6.5,11.599l1.584-2.376C8.361,8.807,9,9.014,9,9.5V15.5z M12.742,13.001H12v2.497c0,0.277-0.224,0.5-0.5,0.5s-0.5-0.223-0.5-0.5
			V9.5C11,9.224,11.224,9,11.5,9h1.242C14.294,9,15,10.037,15,11.001C15,11.964,14.294,13.001,12.742,13.001z M20,14
			c0,1.102-0.897,2-2,2s-2-0.898-2-2c0-0.276,0.224-0.5,0.5-0.5S17,13.724,17,14c0,0.551,0.448,1,1,1s1-0.449,1-1s-0.448-1-1-1
			c-0.276,0-0.5-0.224-0.5-0.5S17.724,12,18,12c0.552,0,1-0.449,1-1s-0.448-1-1-1s-1,0.449-1,1c0,0.276-0.224,0.5-0.5,0.5
			S16,11.276,16,11c0-1.103,0.897-2,2-2s2,0.897,2,2c0,0.6-0.271,1.133-0.691,1.5C19.729,12.867,20,13.4,20,14z"/>
	</g>
</g>
<g id="Invisible_Shape">
	<rect fill="none" width="24" height="24"/>
</g>
</svg>
