<?xml version="1.0" encoding="utf-8"?>
<!-- Generator: Adobe Illustrator 19.2.1, SVG Export Plug-In . SVG Version: 6.00 Build 0)  -->
<svg version="1.1" xmlns="http://www.w3.org/2000/svg" xmlns:xlink="http://www.w3.org/1999/xlink" x="0px" y="0px" width="24px"
	 height="24px" viewBox="0 0 24 24" enable-background="new 0 0 24 24" xml:space="preserve">
<g id="Filled_Icons">
	<g>
		<path d="M12,19.617v-7.332c0-0.827,0.674-1.5,1.503-1.5c1,0,2.244,1.695,3.497,0.719V5.5c0-0.133-0.053-0.259-0.146-0.353l-5-5
			C11.76,0.053,11.633,0,11.5,0h-11C0.225,0,0,0.224,0,0.5v21C0,21.776,0.225,22,0.5,22h12.697C12.425,21.125,12,20.254,12,19.617z
			 M11,1l5,5h-5V1z M11.884,9.32c-0.177,0.213-0.492,0.24-0.704,0.064L9,7.565v6.122c0,1.227-1.317,2.187-3,2.187s-3-0.96-3-2.187
			C3,12.46,4.317,11.5,6,11.5c0.779,0,1.472,0.212,2,0.555V6.496c0-0.423,0.495-0.653,0.82-0.384l3,2.504
			C12.032,8.794,12.061,9.108,11.884,9.32z"/>
		<path d="M23.213,11.876c-1.771,1.241-3.306,1.222-4.315-0.066c-0.189-0.243-0.605-0.243-0.795,0
			c-1.013,1.292-2.538,1.311-4.315,0.066C13.457,11.646,13,11.882,13,12.285v7.332c0,0.969,1.848,3.379,5.365,4.365
			c0.084,0.022,0.179,0.024,0.27,0C22.152,22.996,24,20.586,24,19.617v-7.332C24,11.882,23.543,11.646,23.213,11.876z M21,18.117h-2
			v2c0,0.276-0.224,0.5-0.5,0.5s-0.5-0.224-0.5-0.5v-2h-2c-0.276,0-0.5-0.224-0.5-0.5c0-0.276,0.224-0.5,0.5-0.5h2v-2
			c0-0.276,0.224-0.5,0.5-0.5s0.5,0.224,0.5,0.5v2h2c0.276,0,0.5,0.224,0.5,0.5C21.5,17.894,21.276,18.117,21,18.117z"/>
	</g>
</g>
<g id="Invisible_Shape">
	<rect fill="none" width="24" height="24"/>
</g>
</svg>
