<?xml version="1.0" encoding="utf-8"?>
<!-- Generator: Adobe Illustrator 19.2.1, SVG Export Plug-In . SVG Version: 6.00 Build 0)  -->
<svg version="1.1" xmlns="http://www.w3.org/2000/svg" xmlns:xlink="http://www.w3.org/1999/xlink" x="0px" y="0px" width="24px"
	 height="24px" viewBox="0 0 24 24" enable-background="new 0 0 24 24" xml:space="preserve">
<g id="Filled_Icons">
	<g>
		<path d="M16.938,10H16v4.998h0.938c1.233,0,2.062-1.292,2.062-2.5C19,11.292,18.171,10,16.938,10z"/>
		<path d="M23.5,6h-23C0.224,6,0,6.224,0,6.5v12C0,18.776,0.224,19,0.5,19h23c0.276,0,0.5-0.224,0.5-0.5v-12
			C24,6.224,23.776,6,23.5,6z M10,15.5c0,0.276-0.224,0.5-0.5,0.5S9,15.776,9,15.5v-4.349l-1.084,1.626
			c-0.185,0.278-0.647,0.278-0.832,0L6,11.151V15.5C6,15.776,5.776,16,5.5,16S5,15.776,5,15.5v-6c0-0.489,0.641-0.691,0.916-0.277
			L7.5,11.599l1.584-2.376C9.361,8.807,10,9.014,10,9.5V15.5z M13,15.5c0,0.276-0.224,0.5-0.5,0.5S12,15.776,12,15.5v-6
			C12,9.224,12.224,9,12.5,9S13,9.224,13,9.5V15.5z M16.938,15.998H15.5c-0.276,0-0.5-0.223-0.5-0.5V9.5C15,9.224,15.224,9,15.5,9
			h1.438C18.829,9,20,10.816,20,12.498C20,14.182,18.829,15.998,16.938,15.998z"/>
	</g>
</g>
<g id="Invisible_Shape">
	<rect fill="none" width="24" height="24"/>
</g>
</svg>
