<?xml version="1.0" encoding="utf-8"?>
<!-- Generator: Adobe Illustrator 19.2.1, SVG Export Plug-In . SVG Version: 6.00 Build 0)  -->
<svg version="1.1" xmlns="http://www.w3.org/2000/svg" xmlns:xlink="http://www.w3.org/1999/xlink" x="0px" y="0px" width="24px"
	 height="24px" viewBox="0 0 24 24" enable-background="new 0 0 24 24" xml:space="preserve">
<g id="Filled_Icons">
	<g>
		<polygon points="11.515,13.503 12.485,13.503 12,11.561 		"/>
		<path d="M23.5,6h-23C0.224,6,0,6.224,0,6.5v12C0,18.776,0.224,19,0.5,19h23c0.276,0,0.5-0.224,0.5-0.5v-12
			C24,6.224,23.776,6,23.5,6z M8.015,15.621l-0.279-1.118H6.265l-0.279,1.118c-0.067,0.268-0.337,0.431-0.607,0.364
			c-0.268-0.067-0.431-0.338-0.364-0.606l1.5-6c0.111-0.445,0.859-0.445,0.971,0l1.5,6C9.144,16.021,8.175,16.263,8.015,15.621z
			 M13.621,15.985c-0.264,0.068-0.539-0.093-0.607-0.364l-0.279-1.118h-1.471l-0.279,1.118c-0.067,0.268-0.337,0.431-0.607,0.364
			c-0.268-0.067-0.431-0.338-0.364-0.606l1.5-6c0.111-0.445,0.859-0.445,0.971,0l1.5,6C14.052,15.646,13.89,15.918,13.621,15.985z
			 M17.5,15c0.023,0,0.703-0.025,1.053-0.724c0.124-0.248,0.425-0.345,0.671-0.224c0.247,0.124,0.347,0.424,0.224,0.671
			C18.816,15.986,17.554,16,17.5,16c-1.544,0-2.5-1.817-2.5-3.5S15.956,9,17.5,9c0.054,0,1.316,0.015,1.947,1.276
			c0.123,0.247,0.023,0.547-0.224,0.671c-0.247,0.122-0.547,0.023-0.671-0.224C18.195,10.008,17.507,10,17.5,10
			c-0.884,0-1.5,1.318-1.5,2.5C16,13.683,16.616,15,17.5,15z"/>
		<polygon points="6.515,13.503 7.485,13.503 7,11.561 		"/>
	</g>
</g>
<g id="Invisible_Shape">
	<rect fill="none" width="24" height="24"/>
</g>
</svg>
