<?xml version="1.0" encoding="utf-8"?>
<!-- Generator: Adobe Illustrator 19.2.1, SVG Export Plug-In . SVG Version: 6.00 Build 0)  -->
<svg version="1.1" xmlns="http://www.w3.org/2000/svg" xmlns:xlink="http://www.w3.org/1999/xlink" x="0px" y="0px" width="24px"
	 height="24px" viewBox="0 0 24 24" enable-background="new 0 0 24 24" xml:space="preserve">
<g id="Filled_Icons">
	<g>
		<path d="M15.5,14H15v4h0.5c0.869,0,1.5-0.841,1.5-2S16.369,14,15.5,14z"/>
		<path d="M21.854,6.147l-6-6C15.76,0.053,15.633,0,15.5,0h-13C2.225,0,2,0.224,2,0.5v23C2,23.776,2.225,24,2.5,24h19
			c0.276,0,0.5-0.224,0.5-0.5v-17C22,6.367,21.947,6.24,21.854,6.147z M11,18.5c0,0.276-0.224,0.5-0.5,0.5S10,18.776,10,18.5v-3.576
			l-1.109,1.387c-0.189,0.237-0.592,0.237-0.781,0L7,14.924V18.5C7,18.776,6.776,19,6.5,19S6,18.776,6,18.5v-5.002
			c0-0.47,0.595-0.68,0.891-0.312L8.5,15.199l1.609-2.013C10.405,12.818,11,13.027,11,13.498V18.5z M13,18.5
			c0,0.276-0.224,0.5-0.5,0.5S12,18.776,12,18.5v-5c0-0.276,0.224-0.5,0.5-0.5s0.5,0.224,0.5,0.5V18.5z M15.5,19h-1
			c-0.276,0-0.5-0.224-0.5-0.5v-5c0-0.276,0.224-0.5,0.5-0.5h1c1.425,0,2.5,1.29,2.5,3S16.925,19,15.5,19z M15,7V1l6,6H15z"/>
	</g>
</g>
<g id="Invisible_Shape">
	<rect fill="none" width="24" height="24"/>
</g>
</svg>
