<?xml version="1.0" encoding="utf-8"?>
<!-- Generator: Adobe Illustrator 19.2.1, SVG Export Plug-In . SVG Version: 6.00 Build 0)  -->
<svg version="1.1" xmlns="http://www.w3.org/2000/svg" xmlns:xlink="http://www.w3.org/1999/xlink" x="0px" y="0px" width="24px"
	 height="24px" viewBox="0 0 24 24" enable-background="new 0 0 24 24" xml:space="preserve">
<g id="Filled_Icons">
	<g>
		<path d="M17.5,11c-3.584,0-6.5,2.916-6.5,6.5s2.916,6.5,6.5,6.5s6.5-2.916,6.5-6.5S21.084,11,17.5,11z M17.5,16.928
			c1.043,0,1.891,0.849,1.891,1.893c0,0.87-0.592,1.594-1.391,1.815v0.502c0,0.277-0.224,0.5-0.5,0.5s-0.5-0.223-0.5-0.5v-0.502
			c-0.799-0.221-1.391-0.945-1.391-1.815c0-0.276,0.224-0.5,0.5-0.5c0.276,0,0.5,0.224,0.5,0.5c0,0.491,0.399,0.891,0.891,0.891
			s0.891-0.399,0.891-0.891c0-0.492-0.399-0.893-0.891-0.893c-1.043,0-1.891-0.848-1.891-1.891c0-0.869,0.592-1.594,1.391-1.814
			v-0.504c0-0.276,0.224-0.5,0.5-0.5s0.5,0.224,0.5,0.5v0.504c0.799,0.22,1.391,0.945,1.391,1.814c0,0.277-0.224,0.5-0.5,0.5
			c-0.276,0-0.5-0.223-0.5-0.5c0-0.491-0.399-0.891-0.891-0.891s-0.891,0.399-0.891,0.891S17.009,16.928,17.5,16.928z"/>
		<g>
			<path d="M10,17.5c0-3.967,3.098-7.215,7-7.474V5.5c0-0.133-0.053-0.259-0.146-0.353l-5-5C11.76,0.053,11.633,0,11.5,0h-11
				C0.225,0,0,0.224,0,0.5v21C0,21.776,0.225,22,0.5,22h11.014C10.568,20.745,10,19.19,10,17.5z M11,1l5,5h-5V1z M9,13.686
				c0,1.227-1.317,2.187-3,2.187s-3-0.96-3-2.187C3,12.46,4.317,11.5,6,11.5c0.779,0,1.472,0.212,2,0.555V6.496
				c0-0.423,0.495-0.653,0.82-0.384l3,2.504c0.212,0.177,0.24,0.492,0.063,0.704c-0.177,0.213-0.492,0.24-0.704,0.064L9,7.565
				V13.686z"/>
		</g>
	</g>
</g>
<g id="Invisible_Shape">
	<rect fill="none" width="24" height="24"/>
</g>
</svg>
