<?xml version="1.0" encoding="utf-8"?>
<!-- Generator: Adobe Illustrator 19.2.1, SVG Export Plug-In . SVG Version: 6.00 Build 0)  -->
<svg version="1.1" xmlns="http://www.w3.org/2000/svg" xmlns:xlink="http://www.w3.org/1999/xlink" x="0px" y="0px" width="24px"
	 height="24px" viewBox="0 0 24 24" enable-background="new 0 0 24 24" xml:space="preserve">
<g id="Filled_Icons">
	<g>
		<polygon points="8.015,13.503 8.985,13.503 8.5,11.561 		"/>
		<path d="M23.5,6h-23C0.224,6,0,6.224,0,6.5v12C0,18.776,0.224,19,0.5,19h23c0.276,0,0.5-0.224,0.5-0.5v-12
			C24,6.224,23.776,6,23.5,6z M10.121,15.985c-0.264,0.068-0.539-0.093-0.607-0.364l-0.279-1.118H7.765l-0.279,1.118
			c-0.067,0.268-0.335,0.431-0.607,0.364c-0.268-0.067-0.431-0.338-0.364-0.606l1.5-6c0.111-0.445,0.859-0.445,0.971,0l1.5,6
			C10.552,15.646,10.39,15.918,10.121,15.985z M13,15.5c0,0.276-0.224,0.5-0.5,0.5S12,15.776,12,15.5v-6C12,9.224,12.224,9,12.5,9
			S13,9.224,13,9.5V15.5z M18,10.001h-2v2h1.5c0.276,0,0.5,0.224,0.5,0.5c0,0.276-0.224,0.5-0.5,0.5H16V15.5
			c0,0.276-0.224,0.5-0.5,0.5S15,15.776,15,15.5V9.501c0-0.276,0.224-0.5,0.5-0.5H18c0.276,0,0.5,0.224,0.5,0.5
			C18.5,9.777,18.276,10.001,18,10.001z"/>
	</g>
</g>
<g id="Invisible_Shape">
	<rect fill="none" width="24" height="24"/>
</g>
</svg>
