<?xml version="1.0" encoding="utf-8"?>
<!-- Generator: Adobe Illustrator 19.2.1, SVG Export Plug-In . SVG Version: 6.00 Build 0)  -->
<svg version="1.1" xmlns="http://www.w3.org/2000/svg" xmlns:xlink="http://www.w3.org/1999/xlink" x="0px" y="0px" width="24px"
	 height="24px" viewBox="0 0 24 24" enable-background="new 0 0 24 24" xml:space="preserve">
<g id="Filled_Icons">
	<g>
		<path d="M12.056,19.587c0.07-0.245,0.202-0.468,0.382-0.648L17,14.377V5.5c0-0.133-0.053-0.259-0.146-0.353l-5-5
			C11.76,0.053,11.633,0,11.5,0h-11C0.225,0,0,0.224,0,0.5v21C0,21.776,0.225,22,0.5,22h10.866L12.056,19.587z M11,1l5,5h-5V1z
			 M9,13.686c0,1.227-1.317,2.187-3,2.187s-3-0.96-3-2.187C3,12.46,4.317,11.5,6,11.5c0.779,0,1.472,0.212,2,0.555V6.496
			c0-0.423,0.495-0.653,0.82-0.384l3,2.504c0.212,0.177,0.24,0.492,0.063,0.704c-0.177,0.213-0.492,0.24-0.704,0.064L9,7.565V13.686
			z"/>
		<g>
			<rect x="14.111" y="16.231" transform="matrix(0.7071 -0.7071 0.7071 0.7071 -7.9549 17.7932)" width="6.78" height="4.535"/>
			<path d="M23.855,14.644l-2.5-2.5c-0.195-0.195-0.512-0.195-0.707,0l-1.647,1.648l3.207,3.207l1.647-1.646
				C24.051,15.157,24.051,14.839,23.855,14.644z"/>
			<path d="M15.848,23.065l-2.917-2.917l-0.911,3.226c-0.046,0.168-0.011,0.353,0.121,0.484c0.131,0.131,0.316,0.166,0.483,0.122
				L15.848,23.065z"/>
		</g>
	</g>
</g>
<g id="Invisible_Shape">
	<rect fill="none" width="24" height="24"/>
</g>
</svg>
