<?xml version="1.0" encoding="utf-8"?>
<!-- Generator: Adobe Illustrator 19.2.1, SVG Export Plug-In . SVG Version: 6.00 Build 0)  -->
<svg version="1.1" xmlns="http://www.w3.org/2000/svg" xmlns:xlink="http://www.w3.org/1999/xlink" x="0px" y="0px" width="24px"
	 height="24px" viewBox="0 0 24 24" enable-background="new 0 0 24 24" xml:space="preserve">
<g id="Filled_Icons">
	<g>
		<path d="M12.75,14H12v1.5h0.75c0.413,0,0.75-0.336,0.75-0.75S13.163,14,12.75,14z"/>
		<path d="M21.854,6.147l-6-6C15.76,0.053,15.633,0,15.5,0h-13C2.225,0,2,0.224,2,0.5v23C2,23.776,2.225,24,2.5,24h19
			c0.276,0,0.5-0.224,0.5-0.5v-17C22,6.367,21.947,6.24,21.854,6.147z M10,18.502c0,0.276-0.224,0.5-0.5,0.5S9,18.778,9,18.502
			v-3.576l-1.109,1.388c-0.189,0.237-0.592,0.237-0.781,0L6,14.926v3.576c0,0.276-0.224,0.5-0.5,0.5S5,18.778,5,18.502V13.5
			c0-0.471,0.597-0.68,0.891-0.312L7.5,15.2l1.609-2.013C9.403,12.82,10,13.029,10,13.5V18.502z M12.75,16.5H12v2
			c0,0.276-0.224,0.5-0.5,0.5S11,18.776,11,18.5v-5c0-0.276,0.224-0.5,0.5-0.5h1.25c0.965,0,1.75,0.785,1.75,1.75
			S13.715,16.5,12.75,16.5z M19.24,17.177c0,0.841-0.456,1.823-1.74,1.823c-1.225,0-1.701-0.887-1.737-1.717
			c-0.013-0.276,0.201-0.51,0.477-0.522c0.308-0.034,0.51,0.202,0.521,0.477C16.795,18,17.308,18,17.5,18c0.183,0,0.74,0,0.74-0.823
			c0-0.204-0.083-0.677-0.854-0.677c-0.276,0-0.5-0.224-0.5-0.5s0.224-0.5,0.5-0.5c0.771,0,0.854-0.473,0.854-0.677
			C18.24,14,17.683,14,17.5,14c-0.192,0-0.705,0-0.739,0.763c-0.012,0.274-0.213,0.481-0.521,0.477
			c-0.275-0.012-0.489-0.246-0.477-0.522C15.799,13.887,16.275,13,17.5,13c1.284,0,1.74,0.982,1.74,1.823
			c0,0.419-0.156,0.854-0.484,1.177C19.084,16.323,19.24,16.758,19.24,17.177z M15,7V1l6,6H15z"/>
	</g>
</g>
<g id="Invisible_Shape">
	<rect fill="none" width="24" height="24"/>
</g>
</svg>
