<?xml version="1.0" encoding="utf-8"?>
<!-- Generator: Adobe Illustrator 19.2.1, SVG Export Plug-In . SVG Version: 6.00 Build 0)  -->
<svg version="1.1" xmlns="http://www.w3.org/2000/svg" xmlns:xlink="http://www.w3.org/1999/xlink" x="0px" y="0px" width="24px"
	 height="24px" viewBox="0 0 24 24" enable-background="new 0 0 24 24" xml:space="preserve">
<g id="Filled_Icons">
	<g>
		<path d="M10,18.5c0-1.93,1.57-3.5,3.5-3.5c0.789,0,1.539,0.266,2.148,0.748L17,15.073V5.5c0-0.133-0.053-0.259-0.146-0.353l-5-5
			C11.76,0.053,11.633,0,11.5,0h-11C0.225,0,0,0.224,0,0.5v21C0,21.776,0.225,22,0.5,22h13C11.57,22,10,20.43,10,18.5z M11,1l5,5h-5
			V1z M9,13.686c0,1.227-1.317,2.187-3,2.187s-3-0.96-3-2.187C3,12.46,4.317,11.5,6,11.5c0.779,0,1.472,0.212,2,0.555V6.496
			c0-0.423,0.495-0.653,0.82-0.384l3,2.504c0.212,0.177,0.24,0.492,0.063,0.704c-0.177,0.213-0.492,0.24-0.704,0.064L9,7.565V13.686
			z"/>
		<path d="M21.5,19c-0.891,0-1.668,0.472-2.111,1.175l-3.428-1.286c0.052-0.338,0.069-0.571-0.056-1.033l3.638-1.818
			C20.002,16.619,20.703,17,21.5,17c1.379,0,2.5-1.121,2.5-2.5c0-1.378-1.121-2.5-2.5-2.5c-1.59,0-2.848,1.498-2.405,3.144
			l-3.639,1.819C14.998,16.381,14.296,16,13.5,16c-1.379,0-2.5,1.122-2.5,2.5c0,1.379,1.121,2.5,2.5,2.5
			c0.891,0,1.668-0.471,2.111-1.173l3.428,1.286C18.792,22.706,20.032,24,21.5,24c1.379,0,2.5-1.121,2.5-2.5
			C24,20.122,22.879,19,21.5,19z M21.5,13c0.827,0,1.5,0.673,1.5,1.5S22.327,16,21.5,16S20,15.327,20,14.5S20.673,13,21.5,13z
			 M13.5,20c-0.827,0-1.5-0.673-1.5-1.5s0.673-1.5,1.5-1.5s1.5,0.673,1.5,1.5S14.327,20,13.5,20z M21.5,23
			c-0.827,0-1.5-0.673-1.5-1.5s0.673-1.5,1.5-1.5s1.5,0.673,1.5,1.5S22.327,23,21.5,23z"/>
	</g>
</g>
<g id="Invisible_Shape">
	<rect fill="none" width="24" height="24"/>
</g>
</svg>
