<?xml version="1.0" encoding="utf-8"?>
<!-- Generator: Adobe Illustrator 19.2.1, SVG Export Plug-In . SVG Version: 6.00 Build 0)  -->
<svg version="1.1" xmlns="http://www.w3.org/2000/svg" xmlns:xlink="http://www.w3.org/1999/xlink" x="0px" y="0px" width="24px"
	 height="24px" viewBox="0 0 24 24" enable-background="new 0 0 24 24" xml:space="preserve">
<g id="Filled_Icons">
	<g>
		<path d="M11,16.538C11,13.697,13.148,12,15.223,12c0.629,0,1.227,0.168,1.777,0.451V5.5c0-0.133-0.053-0.259-0.146-0.353l-5-5
			C11.76,0.053,11.633,0,11.5,0h-11C0.225,0,0,0.224,0,0.5v21C0,21.776,0.225,22,0.5,22h13.498C12.477,20.434,11,18.432,11,16.538z
			 M11,1l5,5h-5V1z M9,13.686c0,1.227-1.317,2.187-3,2.187s-3-0.96-3-2.187C3,12.46,4.317,11.5,6,11.5c0.779,0,1.472,0.212,2,0.555
			V6.496c0-0.423,0.495-0.653,0.82-0.384l3,2.504c0.212,0.177,0.24,0.492,0.063,0.704c-0.177,0.213-0.492,0.24-0.704,0.064L9,7.565
			V13.686z"/>
		<path d="M20.777,13c-0.951,0-2.071,0.492-2.777,1.785C17.294,13.492,16.174,13,15.223,13C13.639,13,12,14.323,12,16.538
			c0,3.181,5.473,7.196,5.706,7.367c0.173,0.126,0.415,0.126,0.588,0C18.527,23.734,24,19.719,24,16.538
			C24,14.323,22.361,13,20.777,13z"/>
	</g>
</g>
<g id="Invisible_Shape">
	<rect fill="none" width="24" height="24"/>
</g>
</svg>
