<?xml version="1.0" encoding="utf-8"?>
<!-- Generator: Adobe Illustrator 19.2.1, SVG Export Plug-In . SVG Version: 6.00 Build 0)  -->
<svg version="1.1" xmlns="http://www.w3.org/2000/svg" xmlns:xlink="http://www.w3.org/1999/xlink" x="0px" y="0px" width="24px"
	 height="24px" viewBox="0 0 24 24" enable-background="new 0 0 24 24" xml:space="preserve">
<g id="Filled_Icons">
	<g>
		<polygon points="6.472,17 7.528,17 7,15.24 		"/>
		<polygon points="11.472,17 12.528,17 12,15.24 		"/>
		<path d="M21.854,6.147l-6-6C15.76,0.053,15.633,0,15.5,0h-13C2.225,0,2,0.224,2,0.5v23C2,23.776,2.225,24,2.5,24h19
			c0.276,0,0.5-0.224,0.5-0.5v-17C22,6.367,21.947,6.24,21.854,6.147z M8.644,18.979c-0.269,0.08-0.545-0.075-0.622-0.335L7.828,18
			H6.172l-0.193,0.644c-0.079,0.266-0.358,0.414-0.622,0.335c-0.265-0.08-0.415-0.358-0.335-0.623l1.5-5
			c0.127-0.423,0.83-0.423,0.957,0l1.5,5C9.059,18.621,8.908,18.899,8.644,18.979z M13.644,18.979
			c-0.269,0.08-0.545-0.075-0.622-0.335L12.828,18h-1.656l-0.193,0.644c-0.079,0.266-0.359,0.414-0.622,0.335
			c-0.265-0.08-0.415-0.358-0.335-0.623l1.5-5c0.127-0.423,0.83-0.423,0.957,0l1.5,5C14.059,18.621,13.908,18.899,13.644,18.979z
			 M16.91,18.001c0.303,0,0.64-0.066,0.808-0.846c0.059-0.271,0.321-0.444,0.595-0.384c0.27,0.058,0.441,0.324,0.384,0.594
			c-0.291,1.352-1.132,1.636-1.786,1.636c-1.91,0-1.91-2.026-1.91-3C15,15.027,15,13,16.91,13c0.654,0,1.495,0.284,1.786,1.635
			c0.058,0.27-0.114,0.536-0.384,0.594c-0.273,0.059-0.536-0.113-0.595-0.384C17.551,14.066,17.213,14,16.91,14
			C16.395,14,16,14.148,16,16.001C16,17.854,16.395,18.001,16.91,18.001z M15,7V1l6,6H15z"/>
	</g>
</g>
<g id="Invisible_Shape">
	<rect fill="none" width="24" height="24"/>
</g>
</svg>
