<?xml version="1.0" encoding="utf-8"?>
<!-- Generator: Adobe Illustrator 19.2.1, SVG Export Plug-In . SVG Version: 6.00 Build 0)  -->
<svg version="1.1" xmlns="http://www.w3.org/2000/svg" xmlns:xlink="http://www.w3.org/1999/xlink" x="0px" y="0px" width="24px"
	 height="24px" viewBox="0 0 24 24" enable-background="new 0 0 24 24" xml:space="preserve">
<g id="Filled_Icons_1_">
	<g id="Filled_Icons">
	</g>
	<g id="New_icons">
		<g>
			<path d="M23.5,4h-1V3.5C22.5,1.57,20.93,0,19,0s-3.5,1.57-3.5,3.5V4h-1C14.224,4,14,4.224,14,4.5v7c0,0.276,0.224,0.5,0.5,0.5h9
				c0.276,0,0.5-0.224,0.5-0.5v-7C24,4.224,23.776,4,23.5,4z M19.5,7.847V9.5c0,0.276-0.224,0.5-0.5,0.5s-0.5-0.224-0.5-0.5V7.847
				C18.206,7.672,18,7.365,18,7c0-0.551,0.449-1,1-1s1,0.449,1,1C20,7.365,19.794,7.672,19.5,7.847z M21.5,4h-5V3.5
				C16.5,2.122,17.622,1,19,1s2.5,1.122,2.5,2.5V4z"/>
			<path d="M24,17v-4.092C23.843,12.964,23.676,13,23.5,13h-9c-0.827,0-1.5-0.673-1.5-1.5v-7C13,3.673,13.673,3,14.5,3H2
				C0.897,3,0,3.937,0,5.088V17H24z M7,5.5c2.757,0,5,2.243,5,5s-2.243,5-5,5s-5-2.243-5-5S4.243,5.5,7,5.5z"/>
			<path d="M0,18v1.912C0,21.063,0.897,22,2,22h9.5v1H5c-0.276,0-0.5,0.224-0.5,0.5S4.724,24,5,24h14c0.276,0,0.5-0.224,0.5-0.5
				S19.276,23,19,23h-6.5v-1H22c1.103,0,2-0.937,2-2.088V18H0z M12,21c-0.551,0-1-0.449-1-1s0.449-1,1-1s1,0.449,1,1
				S12.551,21,12,21z"/>
			<path d="M10.354,8.854l-4,4c-0.195,0.195-0.512,0.195-0.707,0l-2-2c-0.196-0.195-0.195-0.512,0-0.707
				c0.195-0.195,0.511-0.195,0.707,0L6,11.793l3.646-3.647c0.196-0.195,0.512-0.195,0.707,0C10.549,8.342,10.549,8.659,10.354,8.854
				z"/>
		</g>
	</g>
</g>
<g id="Invisible_SHape">
	<rect fill="none" width="24" height="24"/>
</g>
</svg>
