<?xml version="1.0" encoding="utf-8"?>
<!-- Generator: Adobe Illustrator 19.2.1, SVG Export Plug-In . SVG Version: 6.00 Build 0)  -->
<svg version="1.1" xmlns="http://www.w3.org/2000/svg" xmlns:xlink="http://www.w3.org/1999/xlink" x="0px" y="0px" width="24px"
	 height="24px" viewBox="0 0 24 24" enable-background="new 0 0 24 24" xml:space="preserve">
<g id="Filled_Icons_1_">
	<g id="Filled_Icons">
	</g>
	<g id="New_icons">
		<g>
			<g>
				<circle cx="8" cy="10.5" r="1"/>
			</g>
			<g>
				<circle cx="11" cy="10.5" r="1"/>
			</g>
			<g>
				<circle cx="14" cy="10.5" r="1"/>
			</g>
			<g>
				<path d="M24,17V5.088C24,3.937,23.103,3,22,3H2C0.897,3,0,3.937,0,5.088V17H24z M5,8.5C5,8.224,5.224,8,5.5,8h13
					C18.776,8,19,8.224,19,8.5v4c0,0.276-0.224,0.5-0.5,0.5h-13C5.224,13,5,12.776,5,12.5V8.5z"/>
				<path d="M0,18v1.912C0,21.063,0.897,22,2,22h9.5v1H5c-0.276,0-0.5,0.224-0.5,0.5S4.724,24,5,24h14c0.276,0,0.5-0.224,0.5-0.5
					S19.276,23,19,23h-6.5v-1H22c1.103,0,2-0.937,2-2.088V18H0z M12,21c-0.551,0-1-0.449-1-1s0.449-1,1-1s1,0.449,1,1
					S12.551,21,12,21z"/>
			</g>
		</g>
	</g>
</g>
<g id="Invisible_SHape">
	<rect fill="none" width="24" height="24"/>
</g>
</svg>
