<?xml version="1.0" encoding="utf-8"?>
<!-- Generator: Adobe Illustrator 19.2.1, SVG Export Plug-In . SVG Version: 6.00 Build 0)  -->
<svg version="1.1" xmlns="http://www.w3.org/2000/svg" xmlns:xlink="http://www.w3.org/1999/xlink" x="0px" y="0px" width="24px"
	 height="24px" viewBox="0 0 24 24" enable-background="new 0 0 24 24" xml:space="preserve">
<g id="Filled_Icons_1_">
	<g id="Filled_Icons">
	</g>
	<g id="New_icons">
		<g>
			<path d="M23.5,12h-8.793l3.147-3.146c0.195-0.195,0.195-0.512,0-0.707c-0.195-0.195-0.512-0.195-0.707,0l-4,4
				c-0.195,0.195-0.195,0.512,0,0.707l4,4c0.195,0.195,0.512,0.195,0.707,0c0.196-0.196,0.196-0.512,0.001-0.708
				c-0.001-0.001-1.95-1.949-3.147-3.146H23.5c0.276,0,0.5-0.224,0.5-0.5S23.776,12,23.5,12z"/>
			<path d="M9.813,0.11C9.694,0.015,9.538-0.021,9.392,0.012l-9,2C0.163,2.062,0,2.266,0,2.5v19c0,0.234,0.163,0.438,0.392,0.488
				l9,2C9.427,23.996,9.464,24,9.5,24c0.113,0,0.223-0.038,0.313-0.11C9.931,23.795,10,23.652,10,23.5v-23
				C10,0.348,9.931,0.205,9.813,0.11z M6,14.5c-1.103,0-2-0.897-2-2s0.897-2,2-2s2,0.897,2,2S7.103,14.5,6,14.5z"/>
			<path d="M16.446,17.565l-4.008-4.007c-0.585-0.584-0.585-1.536,0-2.121l4.004-4.004C16.849,7.026,17.471,6.916,18,7.088V2.5
				C18,2.224,17.776,2,17.5,2H11v20h6.5c0.276,0,0.5-0.224,0.5-0.5v-3.602C17.472,18.073,16.852,17.971,16.446,17.565z"/>
		</g>
	</g>
</g>
<g id="Invisible_SHape">
	<rect fill="none" width="24" height="24"/>
</g>
</svg>
