<?xml version="1.0" encoding="utf-8"?>
<!-- Generator: Adobe Illustrator 19.2.1, SVG Export Plug-In . SVG Version: 6.00 Build 0)  -->
<svg version="1.1" xmlns="http://www.w3.org/2000/svg" xmlns:xlink="http://www.w3.org/1999/xlink" x="0px" y="0px" width="24px"
	 height="24px" viewBox="0 0 24 24" enable-background="new 0 0 24 24" xml:space="preserve">
<g id="Filled_Icons_1_">
	<g id="Filled_Icons">
	</g>
	<g id="New_icons">
		<g>
			<path d="M23.5,10h-1V9.5C22.5,7.57,20.93,6,19,6s-3.5,1.57-3.5,3.5V10h-1c-0.276,0-0.5,0.224-0.5,0.5v7
				c0,0.276,0.224,0.5,0.5,0.5h9c0.276,0,0.5-0.224,0.5-0.5v-7C24,10.224,23.776,10,23.5,10z M19.5,13.847V15.5
				c0,0.276-0.224,0.5-0.5,0.5s-0.5-0.224-0.5-0.5v-1.653C18.206,13.672,18,13.365,18,13c0-0.551,0.449-1,1-1s1,0.449,1,1
				C20,13.365,19.794,13.672,19.5,13.847z M21.5,10h-5V9.5C16.5,8.122,17.622,7,19,7s2.5,1.122,2.5,2.5V10z"/>
			<g>
				<path d="M9.813,0.11C9.695,0.015,9.539-0.021,9.392,0.012l-9,2C0.163,2.062,0,2.266,0,2.5v19c0,0.234,0.163,0.438,0.392,0.488
					l9,2C9.427,23.996,9.464,24,9.5,24c0.113,0,0.223-0.038,0.313-0.11C9.931,23.795,10,23.652,10,23.5v-23
					C10,0.348,9.931,0.205,9.813,0.11z M6,14.5c-1.103,0-2-0.897-2-2s0.897-2,2-2s2,0.897,2,2S7.103,14.5,6,14.5z"/>
			</g>
			<g>
				<path d="M14.5,19c-0.827,0-1.5-0.673-1.5-1.5v-7C13,9.673,13.673,9,14.5,9h0.028c0.25-2.247,2.16-4,4.472-4
					c0.722,0,1.395,0.187,2,0.49V2.5C21,2.224,20.776,2,20.5,2H11v20h9.5c0.276,0,0.5-0.224,0.5-0.5V19H14.5z"/>
			</g>
		</g>
	</g>
</g>
<g id="Invisible_SHape">
	<rect fill="none" width="24" height="24"/>
</g>
</svg>
