<?xml version="1.0" encoding="utf-8"?>
<!-- Generator: Adobe Illustrator 19.2.1, SVG Export Plug-In . SVG Version: 6.00 Build 0)  -->
<svg version="1.1" xmlns="http://www.w3.org/2000/svg" xmlns:xlink="http://www.w3.org/1999/xlink" x="0px" y="0px" width="24px"
	 height="24px" viewBox="0 0 24 24" enable-background="new 0 0 24 24" xml:space="preserve">
<g id="Filled_Icons_1_">
	<g id="Filled_Icons">
	</g>
	<g id="New_icons">
		<g>
			<path d="M12,0.5c0-0.152-0.069-0.295-0.187-0.39c-0.119-0.095-0.273-0.131-0.421-0.099l-9,2C2.163,2.062,2,2.266,2,2.5v19
				c0,0.234,0.163,0.438,0.392,0.488c0,0,9.072,2.012,9.108,2.012c0.113,0,0.223-0.038,0.313-0.11C11.931,23.795,12,23.652,12,23.5
				V0.5z M8,14c-0.828,0-1.5-0.672-1.5-1.5S7.172,11,8,11s1.5,0.672,1.5,1.5S8.828,14,8,14z"/>
			<path d="M19.5,2H13v20h6.5c0.276,0,0.5-0.224,0.5-0.5v-19C20,2.224,19.776,2,19.5,2z"/>
		</g>
	</g>
</g>
<g id="Invisible_SHape">
	<rect fill="none" width="24" height="24"/>
</g>
</svg>
