<?xml version="1.0" encoding="utf-8"?>
<!-- Generator: Adobe Illustrator 19.2.1, SVG Export Plug-In . SVG Version: 6.00 Build 0)  -->
<svg version="1.1" xmlns="http://www.w3.org/2000/svg" xmlns:xlink="http://www.w3.org/1999/xlink" x="0px" y="0px" width="24px"
	 height="24px" viewBox="0 0 24 24" enable-background="new 0 0 24 24" xml:space="preserve">
<g id="Filled_Icons_1_">
	<g id="Filled_Icons">
		<path d="M21.5,5h-19C1.122,5,0,6.122,0,7.5v8C0,16.878,1.122,18,2.5,18h19c1.378,0,2.5-1.122,2.5-2.5v-8C24,6.122,22.878,5,21.5,5
			z M8,11c0.276,0,0.5,0.224,0.5,0.5S8.276,12,8,12H6v1h2c0.276,0,0.5,0.224,0.5,0.5S8.276,14,8,14H5.5C5.224,14,5,13.776,5,13.5v-4
			C5,9.224,5.224,9,5.5,9H8c0.276,0,0.5,0.224,0.5,0.5S8.276,10,8,10H6v1H8z M12.807,13.896c-0.223,0.165-0.535,0.119-0.699-0.104
			l-1.08-1.454l-1.088,1.465c-0.165,0.222-0.478,0.268-0.7,0.103c-0.222-0.165-0.268-0.478-0.103-0.699l1.268-1.707L9.137,9.794
			C8.973,9.573,9.019,9.259,9.24,9.095c0.223-0.165,0.535-0.119,0.7,0.103l1.087,1.463l1.079-1.454
			c0.165-0.221,0.478-0.267,0.699-0.103c0.222,0.165,0.268,0.478,0.103,0.699l-1.26,1.696l1.261,1.697
			C13.074,13.418,13.028,13.731,12.807,13.896z M15,13.5c0,0.276-0.224,0.5-0.5,0.5S14,13.776,14,13.5v-4C14,9.224,14.224,9,14.5,9
			S15,9.224,15,9.5V13.5z M18.5,10H18v3.5c0,0.276-0.224,0.5-0.5,0.5S17,13.776,17,13.5V10h-0.5C16.224,10,16,9.776,16,9.5
			S16.224,9,16.5,9h2C18.776,9,19,9.224,19,9.5S18.776,10,18.5,10z"/>
	</g>
	<g id="New_icons">
	</g>
</g>
<g id="Invisible_SHape">
	<rect fill="none" width="24" height="24"/>
</g>
</svg>
