<?xml version="1.0" encoding="utf-8"?>
<!-- Generator: Adobe Illustrator 19.2.1, SVG Export Plug-In . SVG Version: 6.00 Build 0)  -->
<svg version="1.1" xmlns="http://www.w3.org/2000/svg" xmlns:xlink="http://www.w3.org/1999/xlink" x="0px" y="0px" width="24px"
	 height="24px" viewBox="0 0 24 24" enable-background="new 0 0 24 24" xml:space="preserve">
<g id="Filled_Icons_1_">
	<g id="Filled_Icons">
	</g>
	<g id="New_icons">
		<g>
			<path d="M11.5,13.5c-0.276,0-0.5-0.224-0.5-0.5v-2.5c0-0.276,0.224-0.5,0.5-0.5s0.5,0.224,0.5,0.5V13
				C12,13.276,11.776,13.5,11.5,13.5z"/>
			<path d="M1.5,20C1.224,20,1,19.776,1,19.5V11c0-2.279,0.69-4.465,1.996-6.323c0.211-0.299,0.438-0.59,0.677-0.867
				c0.182-0.208,0.497-0.229,0.705-0.05c0.209,0.181,0.231,0.497,0.05,0.706C4.211,4.717,4.006,4.98,3.815,5.252
				C2.627,6.94,2,8.928,2,11v8.5C2,19.776,1.776,20,1.5,20z"/>
			<path d="M22.5,11.5c-0.276,0-0.5-0.224-0.5-0.5c0-2.843-1.216-5.561-3.337-7.457c-0.206-0.184-0.223-0.5-0.039-0.706
				c0.183-0.206,0.5-0.223,0.706-0.038C21.662,4.883,23,7.873,23,11C23,11.276,22.776,11.5,22.5,11.5z"/>
			<path d="M19,24h-2c-0.276,0-0.5-0.224-0.5-0.5S16.724,23,17,23h2c1.654,0,3-1.346,3-3v-1.5c0-0.276,0.224-0.5,0.5-0.5
				s0.5,0.224,0.5,0.5V20C23,22.206,21.206,24,19,24z"/>
			<path d="M14,24h-3c-2.206,0-4-1.794-4-4c0-0.276,0.224-0.5,0.5-0.5S8,19.724,8,20c0,1.654,1.346,3,3,3h3
				c0.276,0,0.5,0.224,0.5,0.5S14.276,24,14,24z"/>
			<path d="M4.5,14C4.224,14,4,13.776,4,13.5V11c0-1.322,0.33-2.633,0.955-3.791c0.131-0.243,0.434-0.334,0.677-0.203
				C5.875,7.137,5.966,7.44,5.834,7.684C5.289,8.696,5,9.843,5,11v2.5C5,13.776,4.776,14,4.5,14z"/>
			<path d="M19.5,15c-0.276,0-0.5-0.224-0.5-0.5V11c0-1.294-0.356-2.558-1.03-3.657C17.826,7.107,17.9,6.8,18.135,6.655
				c0.234-0.144,0.543-0.071,0.688,0.165C19.593,8.076,20,9.521,20,11v3.5C20,14.776,19.776,15,19.5,15z"/>
			<path d="M17.5,17c-1.378,0-2.5-1.122-2.5-2.5v-1c0-0.276,0.224-0.5,0.5-0.5s0.5,0.224,0.5,0.5v1c0,0.827,0.673,1.5,1.5,1.5
				c0.276,0,0.5,0.224,0.5,0.5S17.776,17,17.5,17z"/>
			<path d="M15.5,11.5c-0.276,0-0.5-0.224-0.5-0.5c0-1.93-1.57-3.5-3.5-3.5C11.224,7.5,11,7.276,11,7s0.224-0.5,0.5-0.5
				c2.481,0,4.5,2.019,4.5,4.5C16,11.276,15.776,11.5,15.5,11.5z"/>
			<path d="M7.5,14C7.224,14,7,13.776,7,13.5V11c0-1.298,0.561-2.533,1.539-3.388C8.746,7.43,9.061,7.451,9.245,7.659
				c0.182,0.208,0.161,0.524-0.047,0.706C8.436,9.03,8,9.991,8,11v2.5C8,13.776,7.776,14,7.5,14z"/>
			<path d="M11.5,16.5c-0.276,0-0.5-0.224-0.5-0.5v-1c0-0.276,0.224-0.5,0.5-0.5S12,14.724,12,15v1C12,16.276,11.776,16.5,11.5,16.5
				z"/>
			<path d="M13.5,21c-1.378,0-2.5-1.122-2.5-2.5c0-0.276,0.224-0.5,0.5-0.5s0.5,0.224,0.5,0.5c0,0.827,0.673,1.5,1.5,1.5
				c0.276,0,0.5,0.224,0.5,0.5S13.776,21,13.5,21z"/>
			<path d="M17.5,21h-2c-0.276,0-0.5-0.224-0.5-0.5s0.224-0.5,0.5-0.5h2c0.276,0,0.5,0.224,0.5,0.5S17.776,21,17.5,21z"/>
			<path d="M19.5,21c-0.276,0-0.5-0.224-0.5-0.5s0.224-0.5,0.5-0.5c0.276,0,0.5-0.224,0.5-0.5c0-0.276,0.224-0.5,0.5-0.5
				s0.5,0.224,0.5,0.5C21,20.327,20.327,21,19.5,21z"/>
			<path d="M7.5,18.5C7.224,18.5,7,18.276,7,18v-2.5C7,15.224,7.224,15,7.5,15S8,15.224,8,15.5V18C8,18.276,7.776,18.5,7.5,18.5z"/>
			<path d="M22.5,17c-0.276,0-0.5-0.224-0.5-0.5V13c0-0.276,0.224-0.5,0.5-0.5S23,12.724,23,13v3.5C23,16.776,22.776,17,22.5,17z"/>
			<path d="M4.5,17.5C4.224,17.5,4,17.276,4,17v-1.5C4,15.224,4.224,15,4.5,15S5,15.224,5,15.5V17C5,17.276,4.776,17.5,4.5,17.5z"/>
			<path d="M5.5,23.5C4.673,23.5,4,22.827,4,22v-3c0-0.276,0.224-0.5,0.5-0.5S5,18.724,5,19v3c0,0.276,0.224,0.5,0.5,0.5
				C5.776,22.5,6,22.724,6,23S5.776,23.5,5.5,23.5z"/>
			<path d="M8.436,1.109C8.33,0.854,8.037,0.734,7.782,0.838C7.061,1.138,6.368,1.517,5.723,1.965
				c-0.227,0.158-0.283,0.47-0.125,0.696c0.158,0.227,0.469,0.282,0.696,0.125C6.88,2.378,7.509,2.034,8.165,1.763
				C8.42,1.656,8.542,1.365,8.436,1.109z"/>
			<path d="M16.807,4.604C15.413,3.555,13.751,3,12,3C9.833,3,7.804,3.852,6.289,5.399c-0.194,0.197-0.19,0.514,0.007,0.707
				C6.493,6.3,6.809,6.297,7.002,6.1C8.329,4.746,10.104,4,12,4c1.532,0,2.986,0.486,4.205,1.403c0.22,0.166,0.535,0.122,0.7-0.099
				C17.071,5.084,17.027,4.771,16.807,4.604z"/>
			<path d="M16.714,1.06c-1.932-0.918-4.108-1.249-6.219-0.957c-0.273,0.037-0.465,0.29-0.427,0.563
				c0.037,0.273,0.284,0.467,0.563,0.427c1.918-0.264,3.899,0.035,5.654,0.869c0.25,0.12,0.548,0.014,0.667-0.236
				C17.069,1.476,16.963,1.178,16.714,1.06z"/>
		</g>
	</g>
</g>
<g id="Invisible_SHape">
	<rect fill="none" width="24" height="24"/>
</g>
</svg>
