<?xml version="1.0" encoding="utf-8"?>
<!-- Generator: Adobe Illustrator 19.2.1, SVG Export Plug-In . SVG Version: 6.00 Build 0)  -->
<svg version="1.1" xmlns="http://www.w3.org/2000/svg" xmlns:xlink="http://www.w3.org/1999/xlink" x="0px" y="0px" width="24px"
	 height="24px" viewBox="0 0 24 24" enable-background="new 0 0 24 24" xml:space="preserve">
<g id="Filled_Icons_1_">
	<g id="Filled_Icons">
		<g>
			<path d="M23,21V3c0-1.103-0.897-2-2-2H3C1.896,1,1,1.897,1,3v18c0,1.103,0.896,2,2,2h18C22.103,23,23,22.103,23,21z
				 M15.486,18.387c0.035,0.149,0,0.304-0.096,0.424C15.296,18.931,15.152,19,15,19H9c-0.153,0-0.297-0.069-0.393-0.19
				c-0.094-0.12-0.129-0.275-0.095-0.424l1.391-5.983C8.719,11.679,8,10.408,8,9c0-2.206,1.794-4,4-4c2.205,0,4,1.794,4,4
				c0,1.407-0.721,2.679-1.905,3.403L15.486,18.387z"/>
		</g>
	</g>
	<g id="New_icons">
	</g>
</g>
<g id="Invisible_SHape">
	<rect fill="none" width="24" height="24"/>
</g>
</svg>
