<?xml version="1.0" encoding="utf-8"?>
<!-- Generator: Adobe Illustrator 19.2.1, SVG Export Plug-In . SVG Version: 6.00 Build 0)  -->
<svg version="1.1" xmlns="http://www.w3.org/2000/svg" xmlns:xlink="http://www.w3.org/1999/xlink" x="0px" y="0px" width="24px"
	 height="24px" viewBox="0 0 24 24" enable-background="new 0 0 24 24" xml:space="preserve">
<g id="Filled_Icons_1_">
	<g id="Filled_Icons">
		<path d="M23.373,7.655l-2.146-2.147l1.146-1.146c0.746-0.747,0.744-1.962,0-2.708c-0.746-0.744-1.96-0.745-2.707,0.001l-11.001,11
			c-2.245-1.116-5.039-0.767-6.908,1.102c-2.339,2.34-2.339,6.146,0,8.486c2.339,2.338,6.146,2.338,8.485,0
			c1.859-1.858,2.215-4.633,1.122-6.873l4.655-4.654l1.646,1.646c0.195,0.195,0.512,0.195,0.707,0l1.5-1.5
			c0.195-0.195,0.195-0.512,0-0.707l-1.646-1.647l0.793-0.793l2.146,2.147c0.195,0.195,0.512,0.195,0.707,0l1.5-1.5
			C23.568,8.167,23.568,7.85,23.373,7.655z M8.122,20.122c-1.171,1.171-3.071,1.17-4.243-0.001c-1.171-1.17-1.171-3.071,0-4.242
			c1.172-1.172,3.071-1.172,4.243-0.001C9.293,17.05,9.293,18.951,8.122,20.122z"/>
	</g>
	<g id="New_icons">
	</g>
</g>
<g id="Invisible_SHape">
	<rect fill="none" width="24" height="24"/>
</g>
</svg>
