<?xml version="1.0" encoding="utf-8"?>
<!-- Generator: Adobe Illustrator 19.2.1, SVG Export Plug-In . SVG Version: 6.00 Build 0)  -->
<svg version="1.1" xmlns="http://www.w3.org/2000/svg" xmlns:xlink="http://www.w3.org/1999/xlink" x="0px" y="0px" width="24px"
	 height="24px" viewBox="0 0 24 24" enable-background="new 0 0 24 24" xml:space="preserve">
<g id="Filled_Icons_1_">
	<g id="Filled_Icons">
		<g>
			<path d="M12,24c6.616,0,12-5.384,12-12c0-6.617-5.384-12-12-12C5.383,0,0,5.383,0,12C0,18.616,5.383,24,12,24z M12,5
				c2.205,0,4,1.794,4,4c0,1.418-0.731,2.696-1.931,3.419l0.925,6.005c0.022,0.143-0.02,0.29-0.115,0.401
				C14.784,18.935,14.646,19,14.5,19h-5c-0.146,0-0.285-0.065-0.38-0.175c-0.095-0.111-0.137-0.257-0.114-0.401l0.922-6.005
				C8.731,11.696,8,10.418,8,9C8,6.794,9.794,5,12,5z"/>
		</g>
	</g>
	<g id="New_icons">
	</g>
</g>
<g id="Invisible_SHape">
	<rect fill="none" width="24" height="24"/>
</g>
</svg>
