<?xml version="1.0" encoding="utf-8"?>
<!-- Generator: Adobe Illustrator 19.2.1, SVG Export Plug-In . SVG Version: 6.00 Build 0)  -->
<svg version="1.1" xmlns="http://www.w3.org/2000/svg" xmlns:xlink="http://www.w3.org/1999/xlink" x="0px" y="0px" width="24px"
	 height="24px" viewBox="0 0 24 24" enable-background="new 0 0 24 24" xml:space="preserve">
<g id="Filled_Icons_1_">
	<g id="Filled_Icons">
	</g>
	<g id="New_icons">
		<g>
			<path d="M15,8c0-1.654-1.346-3-3-3S9,6.346,9,8v2h6V8z"/>
			<path d="M12,13c-0.551,0-1,0.449-1,1c0,0.365,0.207,0.672,0.5,0.847V16.5c0,0.276,0.224,0.5,0.5,0.5s0.5-0.224,0.5-0.5v-1.653
				C12.793,14.672,13,14.365,13,14C13,13.449,12.551,13,12,13z"/>
			<path d="M23.5,0.001h-23c-0.276,0-0.5,0.224-0.5,0.5v23C0,23.777,0.224,24,0.5,24h23c0.276,0,0.5-0.224,0.5-0.5v-23
				C24,0.224,23.776,0.001,23.5,0.001z M12,4c2.206,0,4,1.794,4,4v2h1.5c0.276,0,0.5,0.224,0.5,0.5v9c0,0.276-0.224,0.5-0.5,0.5h-11
				C6.224,20,6,19.776,6,19.5v-9C6,10.224,6.224,10,6.5,10H8V8C8,5.794,9.794,4,12,4z M1,1.5C1,1.224,1.224,1,1.5,1h7
				C8.776,1,9,1.224,9,1.5S8.776,2,8.5,2H2v6.5C2,8.776,1.776,9,1.5,9S1,8.776,1,8.5V1.5z M8.5,23h-7C1.224,23,1,22.776,1,22.5v-7
				C1,15.224,1.224,15,1.5,15S2,15.224,2,15.5V22h6.5C8.776,22,9,22.224,9,22.5S8.776,23,8.5,23z M23,22.5
				c0,0.276-0.224,0.5-0.5,0.5h-7c-0.276,0-0.5-0.224-0.5-0.5s0.224-0.5,0.5-0.5H22v-6.5c0-0.276,0.224-0.5,0.5-0.5
				s0.5,0.224,0.5,0.5V22.5z M23,8.5C23,8.776,22.776,9,22.5,9S22,8.776,22,8.5V2h-6.5C15.224,2,15,1.776,15,1.5S15.224,1,15.5,1h7
				C22.776,1,23,1.224,23,1.5V8.5z"/>
		</g>
	</g>
</g>
<g id="Invisible_SHape">
	<rect fill="none" width="24" height="24"/>
</g>
</svg>
