<?xml version="1.0" encoding="utf-8"?>
<!-- Generator: Adobe Illustrator 19.2.1, SVG Export Plug-In . SVG Version: 6.00 Build 0)  -->
<svg version="1.1" xmlns="http://www.w3.org/2000/svg" xmlns:xlink="http://www.w3.org/1999/xlink" x="0px" y="0px" width="24px"
	 height="24px" viewBox="0 0 24 24" enable-background="new 0 0 24 24" xml:space="preserve">
<g id="Filled_Icons_1_">
	<g id="Filled_Icons">
	</g>
	<g id="New_icons">
		<g>
			<path d="M3,15.5C3,14.671,3.672,14,4.5,14H14V7.5C14,7.224,13.776,7,13.5,7H12V5c0-2.757-2.243-5-5-5S2,2.243,2,5v2H0.5
				C0.224,7,0,7.224,0,7.5v10C0,17.776,0.224,18,0.5,18H3V15.5z M7.5,10.847V12.5C7.5,12.776,7.276,13,7,13s-0.5-0.224-0.5-0.5
				v-1.653C6.207,10.672,6,10.365,6,10c0-0.551,0.448-1,1-1s1,0.449,1,1C8,10.365,7.793,10.672,7.5,10.847z M3,5
				c0-2.206,1.794-4,4-4s4,1.794,4,4v2H3V5z"/>
			<path d="M23.5,15h-19C4.224,15,4,15.224,4,15.5v8C4,23.776,4.224,24,4.5,24h19c0.276,0,0.5-0.224,0.5-0.5v-8
				C24,15.224,23.776,15,23.5,15z M10.354,20.646c0.195,0.195,0.195,0.512,0,0.707c-0.195,0.195-0.512,0.195-0.707,0L8.5,20.207
				l-1.147,1.146c-0.195,0.195-0.512,0.195-0.707,0c-0.195-0.195-0.195-0.512,0-0.707L7.793,19.5l-1.147-1.146
				c-0.195-0.195-0.195-0.512,0-0.707c0.195-0.195,0.512-0.195,0.707,0L8.5,18.793l1.146-1.146c0.195-0.195,0.512-0.195,0.707,0
				c0.195,0.195,0.195,0.512,0,0.707L9.207,19.5L10.354,20.646z M15.854,20.646c0.195,0.195,0.195,0.512,0,0.707
				c-0.195,0.195-0.512,0.195-0.707,0L14,20.207l-1.146,1.146c-0.195,0.195-0.512,0.195-0.707,0c-0.195-0.195-0.195-0.512,0-0.707
				l1.147-1.146l-1.147-1.146c-0.195-0.195-0.195-0.512,0-0.707c0.195-0.195,0.512-0.195,0.707,0L14,18.793l1.146-1.146
				c0.195-0.195,0.512-0.195,0.707,0c0.195,0.195,0.195,0.512,0,0.707L14.707,19.5L15.854,20.646z M21.5,22h-4
				c-0.276,0-0.5-0.224-0.5-0.5s0.224-0.5,0.5-0.5h4c0.276,0,0.5,0.224,0.5,0.5S21.776,22,21.5,22z"/>
		</g>
	</g>
</g>
<g id="Invisible_SHape">
	<rect fill="none" width="24" height="24"/>
</g>
</svg>
