<?xml version="1.0" encoding="utf-8"?>
<!-- Generator: Adobe Illustrator 19.2.1, SVG Export Plug-In . SVG Version: 6.00 Build 0)  -->
<svg version="1.1" xmlns="http://www.w3.org/2000/svg" xmlns:xlink="http://www.w3.org/1999/xlink" x="0px" y="0px" width="24px"
	 height="24px" viewBox="0 0 24 24" enable-background="new 0 0 24 24" xml:space="preserve">
<g id="Filled_Icons_1_">
	<g id="Filled_Icons">
	</g>
	<g id="New_icons">
		<path d="M21.5,5h-19c-1.378,0-2.5,1.122-2.5,2.5v8c0,1.378,1.122,2.5,2.5,2.5h19c1.378,0,2.5-1.122,2.5-2.5v-8
			C24,6.122,22.878,5,21.5,5z M7.853,13.854c-0.195,0.195-0.512,0.196-0.708,0l-1.646-1.646l-1.646,1.646
			c-0.195,0.195-0.512,0.195-0.707,0c-0.195-0.195-0.195-0.512,0-0.707L4.792,11.5L3.145,9.854c-0.195-0.195-0.195-0.512,0-0.707
			c0.195-0.195,0.512-0.195,0.707,0l1.647,1.646l1.646-1.647c0.195-0.195,0.512-0.195,0.707,0c0.195,0.195,0.196,0.512,0.001,0.708
			L6.207,11.5l1.647,1.646C8.049,13.342,8.049,13.659,7.853,13.854z M14.354,13.854c-0.195,0.195-0.512,0.196-0.708,0L12,12.208
			l-1.646,1.646c-0.195,0.195-0.512,0.195-0.707,0c-0.195-0.195-0.195-0.512,0-0.707l1.646-1.647L9.646,9.854
			c-0.195-0.195-0.195-0.512,0-0.707c0.195-0.195,0.512-0.195,0.707,0L12,10.793l1.646-1.647c0.195-0.195,0.512-0.195,0.707,0
			s0.196,0.512,0,0.708L12.708,11.5l1.646,1.646C14.55,13.342,14.55,13.659,14.354,13.854z M20.5,14h-4c-0.276,0-0.5-0.224-0.5-0.5
			s0.224-0.5,0.5-0.5h4c0.276,0,0.5,0.224,0.5,0.5S20.776,14,20.5,14z"/>
	</g>
</g>
<g id="Invisible_SHape">
	<rect fill="none" width="24" height="24"/>
</g>
</svg>
