<?xml version="1.0" encoding="utf-8"?>
<!-- Generator: Adobe Illustrator 19.2.1, SVG Export Plug-In . SVG Version: 6.00 Build 0)  -->
<svg version="1.1" xmlns="http://www.w3.org/2000/svg" xmlns:xlink="http://www.w3.org/1999/xlink" x="0px" y="0px" width="24px"
	 height="24px" viewBox="0 0 24 24" enable-background="new 0 0 24 24" xml:space="preserve">
<g id="Filled_Icons_1_">
	<g id="Filled_Icons">
		<g>
			<path d="M23.5,12H6.707l4.147-4.147c0.195-0.195,0.195-0.512,0-0.707s-0.512-0.195-0.707,0l-5,5
				c-0.195,0.195-0.195,0.512,0,0.707l5,5c0.195,0.195,0.512,0.195,0.707,0c0.196-0.196,0.196-0.512,0.001-0.708
				c-0.001-0.001-2.95-2.95-4.148-4.146H23.5c0.276,0,0.5-0.224,0.5-0.5S23.776,12,23.5,12z"/>
			<path d="M9.123,14l2.439,2.439c0.586,0.585,0.584,1.537-0.002,2.123c-0.564,0.564-1.554,0.566-2.12-0.001l-5-5
				c-0.585-0.585-0.585-1.536,0-2.121l5-5c0.566-0.567,1.556-0.581,2.12-0.016c0.586,0.585,0.587,1.551,0.001,2.136L9.122,11H14V1.5
				C14,1.224,13.777,1,13.5,1h-13c-0.276,0-0.5,0.224-0.5,0.5v21c0,0.276,0.224,0.5,0.5,0.5h13c0.276,0,0.5-0.224,0.5-0.5V14H9.123z
				"/>
		</g>
	</g>
	<g id="New_icons">
	</g>
</g>
<g id="Invisible_SHape">
	<rect fill="none" width="24" height="24"/>
</g>
</svg>
