<?xml version="1.0" encoding="utf-8"?>
<!-- Generator: Adobe Illustrator 19.2.1, SVG Export Plug-In . SVG Version: 6.00 Build 0)  -->
<svg version="1.1" xmlns="http://www.w3.org/2000/svg" xmlns:xlink="http://www.w3.org/1999/xlink" x="0px" y="0px" width="24px"
	 height="24px" viewBox="0 0 24 24" enable-background="new 0 0 24 24" xml:space="preserve">
<g id="Filled_Icons_1_">
	<g id="Filled_Icons">
	</g>
	<g id="New_icons">
		<g>
			<path d="M23.5,1h-13C10.224,1,10,1.224,10,1.5v4.783c0.981,0.688,1.793,1.61,2.319,2.717H19c0.398,0,0.779,0.159,1.06,0.44
				l1.5,1.5c0.586,0.585,0.586,1.535,0,2.121l-1.5,1.5C19.779,14.842,19.398,15,19,15h-0.879l-0.561,0.561
				c-0.586,0.586-1.535,0.586-2.121,0L15,15.121l-0.439,0.439c-0.586,0.586-1.535,0.586-2.121,0l-0.268-0.267
				c-0.524,0.978-1.279,1.797-2.171,2.423V22.5c0,0.276,0.224,0.5,0.5,0.5h13c0.276,0,0.5-0.224,0.5-0.5v-21
				C24,1.224,23.776,1,23.5,1z"/>
			<path d="M20.854,11.646l-1.5-1.5C19.26,10.053,19.133,10,19,10h-7.348C10.813,7.627,8.541,6,6,6c-3.309,0-6,2.691-6,6
				c0,3.309,2.691,6,6,6c2.54,0,4.812-1.627,5.652-4h0.641l0.853,0.854c0.195,0.195,0.512,0.195,0.707,0L14.707,14h0.586
				l0.853,0.854c0.195,0.195,0.512,0.195,0.707,0L17.707,14H19c0.133,0,0.26-0.053,0.354-0.146l1.5-1.5
				C21.049,12.159,21.049,11.842,20.854,11.646z M4,13.5c-0.828,0-1.5-0.672-1.5-1.5c0-0.829,0.672-1.5,1.5-1.5s1.5,0.671,1.5,1.5
				C5.5,12.828,4.828,13.5,4,13.5z"/>
		</g>
	</g>
</g>
<g id="Invisible_SHape">
	<rect fill="none" width="24" height="24"/>
</g>
</svg>
