<?xml version="1.0" encoding="utf-8"?>
<!-- Generator: Adobe Illustrator 19.2.1, SVG Export Plug-In . SVG Version: 6.00 Build 0)  -->
<svg version="1.1" xmlns="http://www.w3.org/2000/svg" xmlns:xlink="http://www.w3.org/1999/xlink" x="0px" y="0px" width="24px"
	 height="24px" viewBox="0 0 24 24" enable-background="new 0 0 24 24" xml:space="preserve">
<g id="Filled_Icons_1_">
	<g id="Filled_Icons">
		<path d="M12.5,1C6.659,1,1.846,5.359,1.109,11h11.769l-1.447-1.447c-0.586-0.584-0.584-1.536,0.002-2.122
			c0.564-0.564,1.554-0.566,2.12,0.002l4.008,4.007c0.585,0.584,0.585,1.536,0,2.121l-4.004,4.004
			c-0.566,0.566-1.556,0.581-2.12,0.017c-0.586-0.586-0.587-1.552-0.001-2.137L12.879,14H1.109c0.737,5.641,5.55,10,11.391,10
			C18.851,24,24,18.851,24,12.5S18.851,1,12.5,1z"/>
	</g>
	<g id="New_icons">
	</g>
</g>
<g id="Invisible_SHape">
	<rect fill="none" width="24" height="24"/>
</g>
</svg>
