<?xml version="1.0" encoding="utf-8"?>
<!-- Generator: Adobe Illustrator 19.2.1, SVG Export Plug-In . SVG Version: 6.00 Build 0)  -->
<svg version="1.1" xmlns="http://www.w3.org/2000/svg" xmlns:xlink="http://www.w3.org/1999/xlink" x="0px" y="0px" width="24px"
	 height="24px" viewBox="0 0 24 24" enable-background="new 0 0 24 24" xml:space="preserve">
<g id="Filled_Icons_1_">
	<g id="Filled_Icons">
		<path d="M22.56,11.44l-5-5c-0.566-0.567-1.556-0.566-2.12-0.001c-0.586,0.585-0.588,1.537-0.002,2.122L17.878,11H14V1.5
			C14,1.224,13.777,1,13.5,1h-12C1.224,1,1,1.224,1,1.5v21C1,22.776,1.224,23,1.5,23h12c0.276,0,0.5-0.224,0.5-0.5V14h3.878
			l-2.439,2.44c-0.586,0.585-0.585,1.551,0.001,2.136c0.564,0.565,1.554,0.551,2.12-0.016l5-5
			C23.146,12.976,23.146,12.024,22.56,11.44z M21.854,12.854l-5,5c-0.195,0.195-0.512,0.195-0.707,0
			c-0.195-0.195-0.195-0.512,0-0.707L20.293,13H5.5C5.224,13,5,12.776,5,12.5S5.224,12,5.5,12h14.793
			c-1.197-1.196-4.146-4.145-4.147-4.146c-0.195-0.195-0.195-0.512,0.001-0.707c0.195-0.195,0.512-0.195,0.707,0l5,5
			C22.049,12.342,22.049,12.659,21.854,12.854z"/>
	</g>
	<g id="New_icons">
	</g>
</g>
<g id="Invisible_SHape">
	<rect fill="none" width="24" height="24"/>
</g>
</svg>
