<?xml version="1.0" encoding="utf-8"?>
<!-- Generator: Adobe Illustrator 19.2.1, SVG Export Plug-In . SVG Version: 6.00 Build 0)  -->
<svg version="1.1" xmlns="http://www.w3.org/2000/svg" xmlns:xlink="http://www.w3.org/1999/xlink" x="0px" y="0px" width="24px"
	 height="24px" viewBox="0 0 24 24" enable-background="new 0 0 24 24" xml:space="preserve">
<g id="Filled_Icons_1_">
	<g id="Filled_Icons">
	</g>
	<g id="New_icons">
		<g>
			<path d="M9,13.318V7.984C9,6.339,10.346,5,12,5s3,1.346,3,3v4.924l0.46,0.155C17.573,11.875,19,9.606,19,7c0-3.866-3.134-7-7-7
				S5,3.134,5,7C5,9.791,6.638,12.194,9,13.318z"/>
			<path d="M18.096,15.026L14,13.641V8c0-1.103-0.897-2-2-2s-2,0.89-2,1.984v9.421C8.514,15.438,7.5,15,6.428,15
				c-0.506,0-0.911,0.232-1.139,0.655c-0.357,0.659-0.175,1.565,0.19,2.123l4.016,6C9.588,23.917,9.744,24,9.911,24h7.984
				c0.241,0,0.448-0.172,0.492-0.409l1.016-5.479C19.678,16.917,19.384,15.442,18.096,15.026z"/>
		</g>
	</g>
</g>
<g id="Invisible_SHape">
	<rect fill="none" width="24" height="24"/>
</g>
</svg>
