<?xml version="1.0" encoding="utf-8"?>
<!-- Generator: Adobe Illustrator 19.2.1, SVG Export Plug-In . SVG Version: 6.00 Build 0)  -->
<svg version="1.1" xmlns="http://www.w3.org/2000/svg" xmlns:xlink="http://www.w3.org/1999/xlink" x="0px" y="0px" width="24px"
	 height="24px" viewBox="0 0 24 24" enable-background="new 0 0 24 24" xml:space="preserve">
<g id="Filled_Icons_1_">
	<g id="Filled_Icons">
	</g>
	<g id="New_icons">
		<g>
			<path d="M14.5,8h7.793l-2.146,2.146c-0.195,0.195-0.195,0.512,0,0.707c0.195,0.195,0.512,0.195,0.707,0l3-3
				c0.195-0.195,0.195-0.512,0-0.707l-3-3c-0.195-0.195-0.512-0.195-0.707,0c-0.196,0.196-0.196,0.512-0.001,0.707
				c0.001,0.001,0.95,0.949,2.147,2.146H14.5C14.224,7,14,7.224,14,7.5S14.224,8,14.5,8z"/>
			<g>
				<circle cx="6.5" cy="4" r="4"/>
				<path d="M12,9H1C0.724,9,0.5,9.224,0.5,9.5c0,4.828,2.083,6.923,3.5,7.79v6.21C4,23.776,4.224,24,4.5,24h4
					C8.776,24,9,23.776,9,23.5v-6.21c1.417-0.867,3.5-2.963,3.5-7.79C12.5,9.224,12.276,9,12,9z"/>
			</g>
		</g>
	</g>
</g>
<g id="Invisible_SHape">
	<rect fill="none" width="24" height="24"/>
</g>
</svg>
