<?xml version="1.0" encoding="utf-8"?>
<!-- Generator: Adobe Illustrator 19.2.1, SVG Export Plug-In . SVG Version: 6.00 Build 0)  -->
<svg version="1.1" xmlns="http://www.w3.org/2000/svg" xmlns:xlink="http://www.w3.org/1999/xlink" x="0px" y="0px" width="24px"
	 height="24px" viewBox="0 0 24 24" enable-background="new 0 0 24 24" xml:space="preserve">
<g id="Filled_Icons_1_">
	<g id="Filled_Icons">
		<g>
			<path d="M21.549,11.196C23.538,6.431,18.812,0,10.917,0C4.898,0,0,4.037,0,9c0,2.389,0.998,4.506,2.89,6.143l-1.846,4.154
				c-0.187,0.418,0.246,0.849,0.664,0.658l5.33-2.422c1.358,0.395,2.045,0.414,2.985,0.389C9.681,11.783,16.432,7.901,21.549,11.196
				z"/>
			<path d="M17.5,11c-3.585,0-6.5,2.916-6.5,6.5s2.915,6.5,6.5,6.5s6.5-2.916,6.5-6.5S21.084,11,17.5,11z M20.227,18H18v2.228
				c0,0.275-0.224,0.5-0.5,0.5s-0.5-0.225-0.5-0.5V18h-2.227c-0.276,0-0.5-0.224-0.5-0.5s0.224-0.5,0.5-0.5H17v-2.227
				c0-0.276,0.224-0.5,0.5-0.5s0.5,0.224,0.5,0.5V17h2.227c0.276,0,0.5,0.224,0.5,0.5S20.503,18,20.227,18z"/>
		</g>
	</g>
	<g id="New_icons">
	</g>
</g>
<g id="Invisible_Shape">
	<rect fill="none" width="24" height="24"/>
</g>
</svg>
