<?xml version="1.0" encoding="utf-8"?>
<!-- Generator: Adobe Illustrator 19.2.1, SVG Export Plug-In . SVG Version: 6.00 Build 0)  -->
<svg version="1.1" xmlns="http://www.w3.org/2000/svg" xmlns:xlink="http://www.w3.org/1999/xlink" x="0px" y="0px" width="24px"
	 height="24px" viewBox="0 0 24 24" enable-background="new 0 0 24 24" xml:space="preserve">
<g id="Filled_Icons_1_">
	<g id="Filled_Icons">
		<g>
			<path d="M16.158,10.829c0.251-0.498,0.764-0.806,1.342-0.806s1.091,0.308,1.341,0.804l1.342,2.684
				C25.222,7.092,18.852,0,10.917,0C4.898,0,0,4.037,0,8.999c0,2.39,0.998,4.507,2.89,6.144l-1.846,4.154
				c-0.186,0.416,0.24,0.847,0.663,0.658l5.33-2.423c1.168,0.341,2.667,0.657,5.704,0.132L16.158,10.829z"/>
			<path d="M23.947,23.276l-6-12c-0.17-0.338-0.725-0.338-0.895,0l-6,12c-0.077,0.155-0.069,0.339,0.021,0.486
				C11.166,23.91,11.327,24,11.5,24h12c0.173,0,0.334-0.09,0.426-0.237C24.017,23.615,24.024,23.432,23.947,23.276z M17.5,22
				c-0.276,0-0.5-0.224-0.5-0.5s0.224-0.5,0.5-0.5s0.5,0.224,0.5,0.5S17.776,22,17.5,22z M18,20c0,0.276-0.224,0.5-0.5,0.5
				S17,20.276,17,20v-3.5c0-0.276,0.224-0.5,0.5-0.5s0.5,0.224,0.5,0.5V20z"/>
		</g>
	</g>
	<g id="New_icons">
	</g>
</g>
<g id="Invisible_Shape">
	<rect fill="none" width="24" height="24"/>
</g>
</svg>
