<?xml version="1.0" encoding="utf-8"?>
<!-- Generator: Adobe Illustrator 19.2.1, SVG Export Plug-In . SVG Version: 6.00 Build 0)  -->
<svg version="1.1" xmlns="http://www.w3.org/2000/svg" xmlns:xlink="http://www.w3.org/1999/xlink" x="0px" y="0px" width="24px"
	 height="24px" viewBox="0 0 24 24" enable-background="new 0 0 24 24" xml:space="preserve">
<g id="Filled_Icons_1_">
	<g id="Filled_Icons">
		<g>
			<path d="M13.824,15.5l2.336-4.671c0.25-0.498,0.764-0.806,1.342-0.806c0.578,0,1.091,0.308,1.341,0.804l1.19,2.38
				C24.364,8.588,21.08,1,14.75,1h-7.5C3.252,1,0,4.252,0,8.25c0,3.914,3.118,7.113,7,7.246V19c0,0.444,0.539,0.668,0.853,0.354
				l3.853-3.854H13.824z"/>
			<path d="M23.948,23.276l-6-12c-0.17-0.338-0.725-0.338-0.895,0l-6,12c-0.077,0.155-0.069,0.339,0.021,0.486
				C11.167,23.91,11.328,24,11.501,24h12c0.173,0,0.334-0.09,0.426-0.237C24.018,23.615,24.025,23.432,23.948,23.276z M17.501,22
				c-0.276,0-0.5-0.224-0.5-0.5s0.224-0.5,0.5-0.5c0.276,0,0.5,0.224,0.5,0.5S17.777,22,17.501,22z M18.001,20
				c0,0.276-0.224,0.5-0.5,0.5c-0.276,0-0.5-0.224-0.5-0.5v-3.5c0-0.276,0.224-0.5,0.5-0.5c0.276,0,0.5,0.224,0.5,0.5V20z"/>
		</g>
	</g>
	<g id="New_icons">
	</g>
</g>
<g id="Invisible_Shape">
	<rect fill="none" width="24" height="24"/>
</g>
</svg>
