<?xml version="1.0" encoding="utf-8"?>
<!-- Generator: Adobe Illustrator 19.2.1, SVG Export Plug-In . SVG Version: 6.00 Build 0)  -->
<svg version="1.1" xmlns="http://www.w3.org/2000/svg" xmlns:xlink="http://www.w3.org/1999/xlink" x="0px" y="0px" width="24px"
	 height="24px" viewBox="0 0 24 24" enable-background="new 0 0 24 24" xml:space="preserve">
<g id="Filled_Icons_1_">
	<g id="Filled_Icons">
		<g>
			<path d="M21.236,11.475C23.642,6.652,20.104,1,14.75,1h-7.5C3.252,1,0,4.252,0,8.25c0,3.914,3.118,7.113,7,7.246V19
				c0,0.444,0.539,0.668,0.853,0.354l3.853-3.854H12C12,10.722,17.719,8.208,21.236,11.475z"/>
			<path d="M23.854,21.146L21,18.293c0.616-0.77,1-1.733,1-2.793c0-2.481-2.018-4.5-4.499-4.5C15.019,11,13,13.019,13,15.5
				c0,2.48,2.019,4.5,4.501,4.5c1.059,0,2.022-0.385,2.792-1l2.854,2.854c0.195,0.195,0.512,0.195,0.707,0
				C24.049,21.658,24.049,21.342,23.854,21.146z M17.501,19C15.57,19,14,17.43,14,15.5s1.57-3.5,3.501-3.5
				C19.43,12,21,13.57,21,15.5S19.43,19,17.501,19z"/>
		</g>
	</g>
	<g id="New_icons">
	</g>
</g>
<g id="Invisible_Shape">
	<rect fill="none" width="24" height="24"/>
</g>
</svg>
