<?xml version="1.0" encoding="utf-8"?>
<!-- Generator: Adobe Illustrator 19.2.1, SVG Export Plug-In . SVG Version: 6.00 Build 0)  -->
<svg version="1.1" xmlns="http://www.w3.org/2000/svg" xmlns:xlink="http://www.w3.org/1999/xlink" x="0px" y="0px" width="24px"
	 height="24px" viewBox="0 0 24 24" enable-background="new 0 0 24 24" xml:space="preserve">
<g id="Filled_Icons_1_">
	<g id="Filled_Icons">
		<path d="M23.5,1h-23C0.224,1,0,1.224,0,1.5v16C0,17.776,0.224,18,0.5,18H7v3.5c0,0.448,0.542,0.665,0.853,0.354L11.707,18H23.5
			c0.276,0,0.5-0.224,0.5-0.5v-16C24,1.224,23.776,1,23.5,1z M6.5,13h-1C5.224,13,5,12.776,5,12.5S5.224,12,5.5,12h1
			C6.776,12,7,12.224,7,12.5S6.776,13,6.5,13z M6.5,10h-1C5.224,10,5,9.776,5,9.5S5.224,9,5.5,9h1C6.776,9,7,9.224,7,9.5
			S6.776,10,6.5,10z M6.5,7h-1C5.224,7,5,6.776,5,6.5S5.224,6,5.5,6h1C6.776,6,7,6.224,7,6.5S6.776,7,6.5,7z M18.5,13h-9
			C9.224,13,9,12.776,9,12.5S9.224,12,9.5,12h9c0.276,0,0.5,0.224,0.5,0.5S18.776,13,18.5,13z M18.5,10h-9C9.224,10,9,9.776,9,9.5
			S9.224,9,9.5,9h9C18.776,9,19,9.224,19,9.5S18.776,10,18.5,10z M18.5,7h-9C9.224,7,9,6.776,9,6.5S9.224,6,9.5,6h9
			C18.776,6,19,6.224,19,6.5S18.776,7,18.5,7z"/>
	</g>
	<g id="New_icons">
	</g>
</g>
<g id="Invisible_Shape">
	<rect fill="none" width="24" height="24"/>
</g>
</svg>
