<?xml version="1.0" encoding="utf-8"?>
<!-- Generator: Adobe Illustrator 19.2.1, SVG Export Plug-In . SVG Version: 6.00 Build 0)  -->
<svg version="1.1" xmlns="http://www.w3.org/2000/svg" xmlns:xlink="http://www.w3.org/1999/xlink" x="0px" y="0px" width="24px"
	 height="24px" viewBox="0 0 24 24" enable-background="new 0 0 24 24" xml:space="preserve">
<g id="Filled_Icons_1_">
	<g id="Filled_Icons">
		<g>
			<path d="M23.5,1h-23C0.224,1,0,1.224,0,1.5v16C0,17.776,0.224,18,0.5,18H7v3.283c0,0.44,0.526,0.664,0.844,0.363L11.699,18H23.5
				c0.276,0,0.5-0.224,0.5-0.5v-16C24,1.224,23.776,1,23.5,1z M20.5,15h-17C3.224,15,3,14.776,3,14.5v-10C3,4.224,3.224,4,3.5,4
				S4,4.224,4,4.5V14h2V8.5C6,8.224,6.224,8,6.5,8h3C9.776,8,10,8.224,10,8.5V14h1v-3.5c0-0.276,0.224-0.5,0.5-0.5h3
				c0.276,0,0.5,0.224,0.5,0.5V14h1V4.5C16,4.224,16.224,4,16.5,4h3C19.776,4,20,4.224,20,4.5V14h0.5c0.276,0,0.5,0.224,0.5,0.5
				S20.776,15,20.5,15z"/>
		</g>
	</g>
	<g id="New_icons">
	</g>
</g>
<g id="Invisible_Shape">
	<rect fill="none" width="24" height="24"/>
</g>
</svg>
