<?xml version="1.0" encoding="utf-8"?>
<!-- Generator: Adobe Illustrator 19.2.1, SVG Export Plug-In . SVG Version: 6.00 Build 0)  -->
<svg version="1.1" xmlns="http://www.w3.org/2000/svg" xmlns:xlink="http://www.w3.org/1999/xlink" x="0px" y="0px" width="24px"
	 height="24px" viewBox="0 0 24 24" enable-background="new 0 0 24 24" xml:space="preserve">
<g id="Filled_Icons_1_">
	<g id="Filled_Icons">
		<g>
			<path d="M17.5,11c-3.59,0-6.5,2.91-6.5,6.5s2.91,6.5,6.5,6.5s6.5-2.91,6.5-6.5S21.09,11,17.5,11z M20,17
				c-0.195,0.195-0.512,0.195-0.707,0L18,15.707V20.5c0,0.276-0.224,0.5-0.5,0.5S17,20.776,17,20.5v-4.793L15.707,17
				c-0.195,0.195-0.512,0.195-0.707,0s-0.195-0.512,0-0.707l2.146-2.146c0.195-0.195,0.512-0.195,0.707,0L20,16.293
				C20.195,16.488,20.195,16.805,20,17z"/>
			<path d="M17.5,10.059c1.69,0,3.245,0.568,4.5,1.514V0.5C22,0.224,21.776,0,21.5,0h-21C0.224,0,0,0.224,0,0.5v14
				C0,14.776,0.224,15,0.5,15H4v3.5c0,0.444,0.539,0.668,0.853,0.354L8.707,15h1.752C11.508,12.122,14.264,10.059,17.5,10.059z"/>
		</g>
	</g>
	<g id="New_icons">
	</g>
</g>
<g id="Invisible_Shape">
	<rect fill="none" width="24" height="24"/>
</g>
</svg>
