<?xml version="1.0" encoding="utf-8"?>
<!-- Generator: Adobe Illustrator 19.2.1, SVG Export Plug-In . SVG Version: 6.00 Build 0)  -->
<svg version="1.1" xmlns="http://www.w3.org/2000/svg" xmlns:xlink="http://www.w3.org/1999/xlink" x="0px" y="0px" width="24px"
	 height="24px" viewBox="0 0 24 24" enable-background="new 0 0 24 24" xml:space="preserve">
<g id="Filled_Icons_1_">
	<g id="Filled_Icons">
		<path d="M11.996,0.151c-6.617,0-12,4.434-12,9.883c0,2.574,1.177,4.985,3.325,6.831l-2.41,4.812
			c-0.214,0.426,0.237,0.877,0.658,0.677l6.437-2.995c1.278,0.37,2.619,0.558,3.99,0.558c6.617,0,12-4.433,12-9.882
			S18.613,0.151,11.996,0.151z M6.996,11.151c-0.829,0-1.5-0.672-1.5-1.5c0-0.828,0.671-1.5,1.5-1.5s1.5,0.672,1.5,1.5
			C8.496,10.479,7.825,11.151,6.996,11.151z M11.996,11.151c-0.829,0-1.5-0.672-1.5-1.5c0-0.828,0.671-1.5,1.5-1.5
			c0.829,0,1.5,0.672,1.5,1.5C13.496,10.479,12.825,11.151,11.996,11.151z M16.996,11.151c-0.829,0-1.5-0.672-1.5-1.5
			c0-0.828,0.671-1.5,1.5-1.5s1.5,0.672,1.5,1.5C18.496,10.479,17.825,11.151,16.996,11.151z"/>
	</g>
	<g id="New_icons">
	</g>
</g>
<g id="Invisible_Shape">
	<rect fill="none" width="24" height="24"/>
</g>
</svg>
