<?xml version="1.0" encoding="utf-8"?>
<!-- Generator: Adobe Illustrator 19.2.1, SVG Export Plug-In . SVG Version: 6.00 Build 0)  -->
<svg version="1.1" xmlns="http://www.w3.org/2000/svg" xmlns:xlink="http://www.w3.org/1999/xlink" x="0px" y="0px" width="24px"
	 height="24px" viewBox="0 0 24 24" enable-background="new 0 0 24 24" xml:space="preserve">
<g id="Filled_Icons_1_">
	<g id="Filled_Icons">
		<g>
			<path d="M17.145,15l0.856-0.428c-0.042-2.093,1.784-3.85,3.999-3.521V0.5C22,0.224,21.776,0,21.5,0h-21C0.224,0,0,0.224,0,0.5v14
				C0,14.776,0.224,15,0.5,15H4v3.5c0,0.448,0.542,0.665,0.853,0.354L8.707,15H17.145z"/>
			<path d="M21.5,19c-0.891,0-1.668,0.472-2.111,1.175l-3.428-1.286C15.981,18.762,16,18.633,16,18.5
				c0-0.224-0.039-0.438-0.095-0.645l3.638-1.818C20.002,16.619,20.703,17,21.5,17c1.379,0,2.5-1.121,2.5-2.5S22.879,12,21.5,12
				S19,13.121,19,14.5c0,0.224,0.039,0.436,0.095,0.644l-3.639,1.818C14.998,16.381,14.296,16,13.5,16c-1.379,0-2.5,1.121-2.5,2.5
				s1.121,2.5,2.5,2.5c0.891,0,1.668-0.472,2.111-1.174l3.428,1.286C19.02,21.239,19,21.367,19,21.5c0,1.379,1.121,2.5,2.5,2.5
				s2.5-1.121,2.5-2.5S22.879,19,21.5,19z M21.5,13c0.827,0,1.5,0.673,1.5,1.5S22.327,16,21.5,16S20,15.327,20,14.5
				S20.673,13,21.5,13z M13.5,20c-0.827,0-1.5-0.673-1.5-1.5s0.673-1.5,1.5-1.5s1.5,0.673,1.5,1.5S14.327,20,13.5,20z M21.5,23
				c-0.827,0-1.5-0.673-1.5-1.5s0.673-1.5,1.5-1.5s1.5,0.673,1.5,1.5S22.327,23,21.5,23z"/>
		</g>
	</g>
	<g id="New_icons">
	</g>
</g>
<g id="Invisible_Shape">
	<rect fill="none" width="24" height="24"/>
</g>
</svg>
