<?xml version="1.0" encoding="utf-8"?>
<!-- Generator: Adobe Illustrator 19.2.1, SVG Export Plug-In . SVG Version: 6.00 Build 0)  -->
<svg version="1.1" xmlns="http://www.w3.org/2000/svg" xmlns:xlink="http://www.w3.org/1999/xlink" x="0px" y="0px" width="24px"
	 height="24px" viewBox="0 0 24 24" enable-background="new 0 0 24 24" xml:space="preserve">
<g id="Filled_Icons_1_">
	<g id="Filled_Icons">
		<path d="M23.5,2h-23C0.224,2,0,2.224,0,2.5v15C0,17.776,0.224,18,0.5,18H7v3.5c0,0.445,0.54,0.667,0.853,0.354L11.707,18H23.5
			c0.276,0,0.5-0.224,0.5-0.5v-15C24,2.224,23.776,2,23.5,2z M15.5,5C16.878,5,18,6.121,18,7.5C18,7.776,17.776,8,17.5,8
			S17,7.776,17,7.5C17,6.673,16.327,6,15.5,6C14.673,6,14,6.673,14,7.5C14,7.776,13.776,8,13.5,8S13,7.776,13,7.5
			C13,6.121,14.122,5,15.5,5z M8.5,5C9.878,5,11,6.121,11,7.5C11,7.776,10.776,8,10.5,8S10,7.776,10,7.5C10,6.673,9.327,6,8.5,6
			S7,6.673,7,7.5C7,7.776,6.776,8,6.5,8S6,7.776,6,7.5C6,6.121,7.122,5,8.5,5z M14,15h-4c-2.757,0-5-2.243-5-5
			c0-0.276,0.224-0.5,0.5-0.5S6,9.724,6,10c0,2.205,1.794,4,4,4h4c2.206,0,4-1.795,4-4c0-0.276,0.224-0.5,0.5-0.5S19,9.724,19,10
			C19,12.757,16.757,15,14,15z"/>
	</g>
	<g id="New_icons">
	</g>
</g>
<g id="Invisible_Shape">
	<rect fill="none" width="24" height="24"/>
</g>
</svg>
