<?xml version="1.0" encoding="utf-8"?>
<!-- Generator: Adobe Illustrator 19.2.1, SVG Export Plug-In . SVG Version: 6.00 Build 0)  -->
<svg version="1.1" xmlns="http://www.w3.org/2000/svg" xmlns:xlink="http://www.w3.org/1999/xlink" x="0px" y="0px" width="24px"
	 height="24px" viewBox="0 0 24 24" enable-background="new 0 0 24 24" xml:space="preserve">
<g id="Filled_Icons_1_">
	<g id="Filled_Icons">
		<g>
			<path d="M9.754,15.05l1.499-2.599c0.394-0.686,1.233-1.021,2.256-0.429c0.159-0.102,0.322-0.195,0.49-0.283
				C14,10.584,14.681,10,15.5,10h3c0.819,0,1.5,0.584,1.5,1.739c0.167,0.088,0.331,0.182,0.49,0.283
				c0.239-0.138,0.335-0.207,0.603-0.273C21.668,10.711,22,9.519,22,8.25C22,4.252,18.748,1,14.75,1h-7.5C3.252,1,0,4.252,0,8.25
				c0,3.914,3.118,7.113,7,7.246V19c0,0.443,0.539,0.668,0.853,0.353l2.345-2.344C9.499,16.519,9.388,15.684,9.754,15.05z"/>
			<path d="M23.195,18.769l-0.765-0.441c0.093-0.613,0.092-1.044,0.001-1.652l0.766-0.442c0.234-0.133,0.324-0.438,0.183-0.683
				l-1.5-2.599c-0.138-0.239-0.443-0.322-0.683-0.183l-0.765,0.441c-0.43-0.345-0.912-0.624-1.433-0.828V11.5
				c0-0.276-0.224-0.5-0.5-0.5h-3c-0.276,0-0.5,0.224-0.5,0.5v0.882c-0.521,0.204-1.003,0.483-1.433,0.828l-0.765-0.441
				c-0.237-0.138-0.545-0.057-0.683,0.183l-1.5,2.599c-0.142,0.245-0.052,0.55,0.183,0.683l0.766,0.442
				c-0.091,0.608-0.092,1.039,0.001,1.652l-0.765,0.441c-0.239,0.138-0.321,0.443-0.183,0.683l1.5,2.599
				c0.137,0.241,0.446,0.32,0.683,0.183l0.765-0.441c0.429,0.344,0.911,0.623,1.431,0.827V23.5c0,0.276,0.224,0.5,0.5,0.5h3
				c0.276,0,0.5-0.224,0.5-0.5v-0.882c0.52-0.204,1.002-0.483,1.431-0.827l0.765,0.441c0.237,0.138,0.546,0.058,0.683-0.183
				l1.5-2.599C23.517,19.212,23.435,18.906,23.195,18.769z M17,20c-1.379,0-2.5-1.121-2.5-2.5S15.621,15,17,15s2.5,1.121,2.5,2.5
				S18.379,20,17,20z"/>
		</g>
	</g>
	<g id="New_icons">
	</g>
</g>
<g id="Invisible_Shape">
	<rect fill="none" width="24" height="24"/>
</g>
</svg>
