<?xml version="1.0" encoding="utf-8"?>
<!-- Generator: Adobe Illustrator 19.2.1, SVG Export Plug-In . SVG Version: 6.00 Build 0)  -->
<svg version="1.1" xmlns="http://www.w3.org/2000/svg" xmlns:xlink="http://www.w3.org/1999/xlink" x="0px" y="0px" width="24px"
	 height="24px" viewBox="0 0 24 24" enable-background="new 0 0 24 24" xml:space="preserve">
<g id="Filled_Icons_1_">
	<g id="Filled_Icons">
		<g>
			<path d="M14.864,15.5l5.075-5.075c0.47-0.47,1.217-0.526,1.786-0.218C23.038,5.529,19.488,1,14.75,1h-7.5C3.252,1,0,4.252,0,8.25
				c0,3.914,3.118,7.113,7,7.246V19c0,0.448,0.542,0.665,0.853,0.354l3.853-3.854H14.864z"/>
			<g>
				<rect x="14.109" y="15.219" transform="matrix(0.7071 -0.7071 0.7071 0.7071 -7.2399 17.4951)" width="6.78" height="4.535"/>
				<path d="M23.854,13.632l-2.5-2.5c-0.195-0.195-0.512-0.195-0.707,0l-1.647,1.648l3.207,3.207l1.647-1.647
					C24.049,14.144,24.049,13.827,23.854,13.632z"/>
				<path d="M15.846,22.053l-2.917-2.917l-0.911,3.226c-0.046,0.168-0.011,0.353,0.121,0.484c0.131,0.131,0.315,0.166,0.483,0.122
					L15.846,22.053z"/>
			</g>
		</g>
	</g>
	<g id="New_icons">
	</g>
</g>
<g id="Invisible_Shape">
	<rect fill="none" width="24" height="24"/>
</g>
</svg>
