<?xml version="1.0" encoding="utf-8"?>
<!-- Generator: Adobe Illustrator 19.2.1, SVG Export Plug-In . SVG Version: 6.00 Build 0)  -->
<svg version="1.1" xmlns="http://www.w3.org/2000/svg" xmlns:xlink="http://www.w3.org/1999/xlink" x="0px" y="0px" width="24px"
	 height="24px" viewBox="0 0 24 24" enable-background="new 0 0 24 24" xml:space="preserve">
<g id="Filled_Icons_1_">
	<g id="Filled_Icons">
		<g>
			<path d="M17.5,24c3.59,0,6.5-2.91,6.5-6.5S21.09,11,17.5,11S11,13.91,11,17.5S13.91,24,17.5,24z M15,18
				c0.195-0.195,0.512-0.195,0.707,0L17,19.293V14.5c0-0.276,0.224-0.5,0.5-0.5s0.5,0.224,0.5,0.5v4.793L19.293,18
				c0.195-0.195,0.512-0.195,0.707,0s0.195,0.512,0,0.707l-2.146,2.146c-0.195,0.195-0.512,0.195-0.707,0L15,18.707
				C14.805,18.512,14.805,18.195,15,18z"/>
			<path d="M21.638,11.251C21.866,10.53,22,9.779,22,9c0-4.962-4.935-9-11-9S0,4.038,0,9c0,2.352,1.117,4.488,2.928,6.094
				l-1.884,4.201c-0.189,0.421,0.248,0.851,0.662,0.66l5.547-2.504c0.879,0.262,1.806,0.44,2.771,0.513
				C9.648,11.756,16.517,7.852,21.638,11.251z"/>
		</g>
	</g>
	<g id="New_icons">
	</g>
</g>
<g id="Invisible_Shape">
	<rect fill="none" width="24" height="24"/>
</g>
</svg>
