<?xml version="1.0" encoding="utf-8"?>
<!-- Generator: Adobe Illustrator 19.2.1, SVG Export Plug-In . SVG Version: 6.00 Build 0)  -->
<svg version="1.1" xmlns="http://www.w3.org/2000/svg" xmlns:xlink="http://www.w3.org/1999/xlink" x="0px" y="0px" width="24px"
	 height="24px" viewBox="0 0 24 24" enable-background="new 0 0 24 24" xml:space="preserve">
<g id="Filled_Icons_1_">
	<g id="Filled_Icons">
		<g>
			<path d="M17.5,10c-3.584,0-6.5,2.916-6.5,6.5s2.916,6.5,6.5,6.5s6.5-2.916,6.5-6.5S21.084,10,17.5,10z M18.207,16.5l2.347,2.346
				c0.195,0.195,0.195,0.513,0,0.707c-0.195,0.195-0.512,0.195-0.707,0L17.5,17.206l-2.347,2.347c-0.195,0.195-0.512,0.195-0.707,0
				c-0.195-0.194-0.195-0.512,0-0.707l2.347-2.346l-2.347-2.346c-0.195-0.195-0.195-0.512,0-0.707c0.195-0.195,0.512-0.195,0.707,0
				l2.347,2.347l2.347-2.347c0.195-0.195,0.512-0.195,0.707,0c0.195,0.195,0.195,0.512,0,0.707L18.207,16.5z"/>
			<path d="M21.622,10.241C23.18,5.674,19.743,1,15,1H7C3.14,1,0,4.141,0,8c0,3.86,3.14,7,7,7v3.5c0,0.445,0.54,0.667,0.853,0.354
				l2.157-2.156C9.833,10.672,16.565,6.9,21.622,10.241z"/>
		</g>
	</g>
	<g id="New_icons">
	</g>
</g>
<g id="Invisible_Shape">
	<rect fill="none" width="24" height="24"/>
</g>
</svg>
