<?xml version="1.0" encoding="utf-8"?>
<!-- Generator: Adobe Illustrator 19.2.1, SVG Export Plug-In . SVG Version: 6.00 Build 0)  -->
<svg version="1.1" xmlns="http://www.w3.org/2000/svg" xmlns:xlink="http://www.w3.org/1999/xlink" x="0px" y="0px" width="24px"
	 height="24px" viewBox="0 0 24 24" enable-background="new 0 0 24 24" xml:space="preserve">
<g id="Filled_Icons_1_">
	<g id="Filled_Icons">
		<g>
			<path d="M16.658,11.834c0.249-0.504,0.776-0.831,1.341-0.831c0.571,0,1.102,0.326,1.352,0.831L20.928,15H21.5
				c0.276,0,0.5-0.224,0.5-0.5v-14C22,0.224,21.776,0,21.5,0h-21C0.224,0,0,0.224,0,0.5v14C0,14.776,0.224,15,0.5,15H4v3.5
				c0,0.445,0.54,0.667,0.853,0.354L8.707,15h6.367L16.658,11.834z"/>
			<path d="M23.97,16.33C23.898,16.133,23.71,16,23.5,16h-3.19l-1.854-3.723c-0.084-0.17-0.267-0.274-0.455-0.274
				s-0.362,0.108-0.446,0.277l-1.854,3.723h-3.19c-0.211,0-0.398,0.133-0.471,0.33c-0.071,0.198-0.012,0.42,0.15,0.555l2.738,2.281
				l-1.391,4.17c-0.071,0.202-0.014,0.434,0.17,0.566c0.177,0.131,0.407,0.121,0.577,0.003l3.724-2.545l3.719,2.542
				c0.17,0.118,0.4,0.128,0.577-0.003c0.184-0.133,0.242-0.364,0.17-0.566l-1.391-4.17l2.738-2.281
				C23.982,16.75,24.042,16.528,23.97,16.33z"/>
		</g>
	</g>
	<g id="New_icons">
	</g>
</g>
<g id="Invisible_Shape">
	<rect fill="none" width="24" height="24"/>
</g>
</svg>
