<?xml version="1.0" encoding="utf-8"?>
<!-- Generator: Adobe Illustrator 19.2.1, SVG Export Plug-In . SVG Version: 6.00 Build 0)  -->
<svg version="1.1" xmlns="http://www.w3.org/2000/svg" xmlns:xlink="http://www.w3.org/1999/xlink" x="0px" y="0px" width="24px"
	 height="24px" viewBox="0 0 24 24" enable-background="new 0 0 24 24" xml:space="preserve">
<g id="Filled_Icons_1_">
	<g id="Filled_Icons">
		<g>
			<path d="M15.223,12.059c0.911,0,1.937,0.328,2.777,1.133c0.84-0.805,1.866-1.133,2.777-1.133c0.412,0,0.823,0.085,1.223,0.215
				V0.5C22,0.224,21.776,0,21.5,0h-21C0.224,0,0,0.224,0,0.5v14C0,14.776,0.224,15,0.5,15H4v3.5c0,0.448,0.542,0.665,0.853,0.354
				L8.707,15h2.566C11.902,13.141,13.576,12.059,15.223,12.059z"/>
			<path d="M20.777,13c-0.951,0-2.071,0.492-2.777,1.785C17.294,13.492,16.174,13,15.223,13C13.639,13,12,14.323,12,16.537
				c0,3.182,5.473,7.197,5.706,7.367C17.794,23.969,17.897,24,18,24s0.206-0.031,0.294-0.096C18.527,23.734,24,19.719,24,16.537
				C24,14.323,22.361,13,20.777,13z"/>
		</g>
	</g>
	<g id="New_icons">
	</g>
</g>
<g id="Invisible_Shape">
	<rect fill="none" width="24" height="24"/>
</g>
</svg>
