<?xml version="1.0" encoding="utf-8"?>
<!-- Generator: Adobe Illustrator 19.2.1, SVG Export Plug-In . SVG Version: 6.00 Build 0)  -->
<svg version="1.1" xmlns="http://www.w3.org/2000/svg" xmlns:xlink="http://www.w3.org/1999/xlink" x="0px" y="0px" width="24px"
	 height="24px" viewBox="0 0 24 24" enable-background="new 0 0 24 24" xml:space="preserve">
<g id="Filled_Icons_1_">
	<g id="Filled_Icons">
		<path d="M12,1.535c-6.617,0-12,4.433-12,9.883c0,2.573,1.177,4.985,3.325,6.831l-2.41,4.811c-0.209,0.419,0.228,0.877,0.658,0.678
			l6.437-2.996c1.278,0.37,2.62,0.559,3.99,0.559c6.617,0,12-4.433,12-9.882C24,5.969,18.617,1.535,12,1.535z M18.5,17h-13
			C5.224,17,5,16.776,5,16.5v-9C5,7.224,5.224,7,5.5,7S6,7.224,6,7.5V16h1v-5.5C7,10.224,7.224,10,7.5,10h2
			c0.276,0,0.5,0.224,0.5,0.5V16h1v-3.5c0-0.276,0.224-0.5,0.5-0.5h2c0.276,0,0.5,0.224,0.5,0.5V16h1V7.5C15,7.224,15.224,7,15.5,7
			h2C17.776,7,18,7.224,18,7.5V16h0.5c0.276,0,0.5,0.224,0.5,0.5S18.776,17,18.5,17z"/>
	</g>
	<g id="New_icons">
	</g>
</g>
<g id="Invisible_Shape">
	<rect fill="none" width="24" height="24"/>
</g>
</svg>
