<?xml version="1.0" encoding="utf-8"?>
<!-- Generator: Adobe Illustrator 19.2.1, SVG Export Plug-In . SVG Version: 6.00 Build 0)  -->
<svg version="1.1" xmlns="http://www.w3.org/2000/svg" xmlns:xlink="http://www.w3.org/1999/xlink" x="0px" y="0px" width="24px"
	 height="24px" viewBox="0 0 24 24" enable-background="new 0 0 24 24" xml:space="preserve">
<g id="Filled_Icons_1_">
	<g id="Filled_Icons">
		<g>
			<path d="M17.5,11c-3.584,0-6.5,2.916-6.5,6.5s2.916,6.5,6.5,6.5s6.5-2.916,6.5-6.5S21.084,11,17.5,11z M21.597,15.9l-4.096,4.357
				c-0.092,0.097-0.219,0.154-0.353,0.157c-0.004,0-0.008,0-0.012,0c-0.13,0-0.255-0.05-0.348-0.141l-2.926-2.841
				c-0.197-0.19-0.203-0.509-0.01-0.706c0.191-0.198,0.508-0.203,0.707-0.011l2.561,2.485l3.747-3.987
				c0.188-0.201,0.507-0.211,0.706-0.021C21.775,15.383,21.785,15.699,21.597,15.9z"/>
			<path d="M21.549,11.196C23.538,6.431,18.812,0,10.917,0C4.898,0,0,4.037,0,9c0,2.389,0.998,4.506,2.89,6.143l-1.846,4.154
				c-0.187,0.418,0.248,0.849,0.663,0.658l5.33-2.422c1.358,0.395,2.045,0.414,2.985,0.389C9.681,11.783,16.432,7.901,21.549,11.196
				z"/>
		</g>
	</g>
	<g id="New_icons">
	</g>
</g>
<g id="Invisible_Shape">
	<rect fill="none" width="24" height="24"/>
</g>
</svg>
