<?xml version="1.0" encoding="utf-8"?>
<!-- Generator: Adobe Illustrator 19.2.1, SVG Export Plug-In . SVG Version: 6.00 Build 0)  -->
<svg version="1.1" xmlns="http://www.w3.org/2000/svg" xmlns:xlink="http://www.w3.org/1999/xlink" x="0px" y="0px" width="24px"
	 height="24px" viewBox="0 0 24 24" enable-background="new 0 0 24 24" xml:space="preserve">
<g id="Filled_Icons_1_">
	<g id="Filled_Icons">
		<path d="M23.5,1h-23C0.224,1,0,1.224,0,1.5v16C0,17.776,0.224,18,0.5,18h6.501L7,21.5c0,0.445,0.54,0.667,0.853,0.354L11.708,18
			H23.5c0.276,0,0.5-0.224,0.5-0.5v-16C24,1.224,23.776,1,23.5,1z M12.5,15c-0.552,0-1-0.447-1-1c0-0.552,0.448-1,1-1s1,0.448,1,1
			C13.5,14.553,13.052,15,12.5,15z M13,10.965V11.5c0,0.276-0.224,0.5-0.5,0.5S12,11.776,12,11.5v-1c0-0.276,0.224-0.5,0.5-0.5
			c1.378,0,2.5-1.121,2.5-2.5S13.878,5,12.5,5S10,6.121,10,7.5C10,7.776,9.776,8,9.5,8S9,7.776,9,7.5C9,5.57,10.57,4,12.5,4
			S16,5.57,16,7.5C16,9.26,14.694,10.721,13,10.965z"/>
	</g>
	<g id="New_icons">
	</g>
</g>
<g id="Invisible_Shape">
	<rect fill="none" width="24" height="24"/>
</g>
</svg>
