<?xml version="1.0" encoding="utf-8"?>
<!-- Generator: Adobe Illustrator 19.2.1, SVG Export Plug-In . SVG Version: 6.00 Build 0)  -->
<svg version="1.1" xmlns="http://www.w3.org/2000/svg" xmlns:xlink="http://www.w3.org/1999/xlink" x="0px" y="0px" width="24px"
	 height="24px" viewBox="0 0 24 24" enable-background="new 0 0 24 24" xml:space="preserve">
<g id="Filled_Icons_1_">
	<g id="Filled_Icons">
		<path d="M23.5,1h-23C0.224,1,0,1.224,0,1.5v16C0,17.776,0.224,18,0.5,18h6.501L7,21.5c0,0.445,0.54,0.667,0.853,0.354L11.708,18
			H23.5c0.276,0,0.5-0.224,0.5-0.5v-16C24,1.224,23.776,1,23.5,1z M12.294,14.904c-0.177,0.128-0.412,0.128-0.589,0
			C11.473,14.734,6,10.718,6,7.537C6,5.322,7.639,4,9.223,4C10.174,4,11.294,4.491,12,5.784C12.706,4.491,13.826,4,14.777,4
			C16.361,4,18,5.322,18,7.537C18,10.718,12.527,14.734,12.294,14.904z"/>
	</g>
	<g id="New_icons">
	</g>
</g>
<g id="Invisible_Shape">
	<rect fill="none" width="24" height="24"/>
</g>
</svg>
