<?xml version="1.0" encoding="utf-8"?>
<!-- Generator: Adobe Illustrator 19.2.1, SVG Export Plug-In . SVG Version: 6.00 Build 0)  -->
<svg version="1.1" xmlns="http://www.w3.org/2000/svg" xmlns:xlink="http://www.w3.org/1999/xlink" x="0px" y="0px" width="24px"
	 height="24px" viewBox="0 0 24 24" enable-background="new 0 0 24 24" xml:space="preserve">
<g id="Filled_Icons_1_">
	<g id="Filled_Icons">
		<g>
			<path d="M11,16.5c0-2.84,2.148-4.537,4.223-4.537c0.911,0,1.937,0.328,2.777,1.133c0.84-0.805,1.866-1.133,2.777-1.133
				c0.191,0,0.382,0.029,0.572,0.058C21.763,11.075,22,10.061,22,9c0-4.962-4.935-9-11-9S0,4.038,0,9
				c0,2.352,1.117,4.488,2.928,6.094l-1.884,4.201c-0.189,0.421,0.248,0.851,0.662,0.66l5.547-2.504
				c1.348,0.402,2.634,0.567,4.026,0.538C11.106,17.492,11,16.993,11,16.5z"/>
			<path d="M20.777,12.963c-0.951,0-2.071,0.492-2.777,1.785c-0.706-1.293-1.826-1.785-2.777-1.785C13.639,12.963,12,14.286,12,16.5
				c0,3.182,5.473,7.197,5.706,7.367c0.087,0.064,0.191,0.096,0.294,0.096s0.206-0.031,0.294-0.096C18.527,23.697,24,19.682,24,16.5
				C24,14.286,22.361,12.963,20.777,12.963z"/>
		</g>
	</g>
	<g id="New_icons">
	</g>
</g>
<g id="Invisible_Shape">
	<rect fill="none" width="24" height="24"/>
</g>
</svg>
