<?xml version="1.0" encoding="utf-8"?>
<!-- Generator: Adobe Illustrator 19.2.1, SVG Export Plug-In . SVG Version: 6.00 Build 0)  -->
<svg version="1.1" xmlns="http://www.w3.org/2000/svg" xmlns:xlink="http://www.w3.org/1999/xlink" x="0px" y="0px" width="24px"
	 height="24px" viewBox="0 0 24 24" enable-background="new 0 0 24 24" xml:space="preserve">
<g id="Filled_Icons_1_">
	<g id="Filled_Icons">
		<g>
			<path d="M21.154,12.4C24.197,6.376,18.661,0,11,0C4.935,0,0,4.037,0,9c0,2.352,1.117,4.488,2.928,6.093l-1.884,4.202
				c-0.185,0.413,0.235,0.85,0.662,0.66l5.547-2.504c2.298,0.684,3.945,0.554,4.945,0.487C10.766,12.682,17.086,8.773,21.154,12.4z"
				/>
			<path d="M23.854,22.146L21,19.293c0.616-0.77,1-1.733,1-2.793c0-2.481-2.018-4.5-4.499-4.5C15.019,12,13,14.019,13,16.5
				c0,2.48,2.019,4.5,4.501,4.5c1.059,0,2.022-0.385,2.792-1l2.854,2.854c0.195,0.195,0.512,0.195,0.707,0
				C24.049,22.658,24.049,22.342,23.854,22.146z M17.501,20C15.57,20,14,18.43,14,16.5s1.57-3.5,3.501-3.5
				C19.43,13,21,14.57,21,16.5S19.43,20,17.501,20z"/>
		</g>
	</g>
	<g id="New_icons">
	</g>
</g>
<g id="Invisible_Shape">
	<rect fill="none" width="24" height="24"/>
</g>
</svg>
