<?xml version="1.0" encoding="utf-8"?>
<!-- Generator: Adobe Illustrator 19.2.1, SVG Export Plug-In . SVG Version: 6.00 Build 0)  -->
<svg version="1.1" xmlns="http://www.w3.org/2000/svg" xmlns:xlink="http://www.w3.org/1999/xlink" x="0px" y="0px" width="24px"
	 height="24px" viewBox="0 0 24 24" enable-background="new 0 0 24 24" xml:space="preserve">
<g id="Filled_Icons_1_">
	<g id="Filled_Icons">
		<g>
			<circle cx="1" cy="23" r="1"/>
			<path d="M9.347,3.869C5.233,1.402,0,4.443,0,9.333c0,3.477,2.762,6.31,6.168,6.333c2.094,2.803,5.996,3.313,8.708,1.204
				C19.953,17.777,24,14.004,24,8.5C24-0.753,13.535-2.69,9.347,3.869z M7,11c-0.551,0-1-0.448-1-1s0.449-1,1-1s1,0.448,1,1
				S7.551,11,7,11z M12,11c-0.551,0-1-0.448-1-1s0.449-1,1-1s1,0.448,1,1S12.551,11,12,11z M17,11c-0.551,0-1-0.448-1-1s0.449-1,1-1
				s1,0.448,1,1S17.551,11,17,11z"/>
			<circle cx="4.5" cy="19.5" r="2"/>
		</g>
	</g>
	<g id="New_icons">
	</g>
</g>
<g id="Invisible_Shape">
	<rect fill="none" width="24" height="24"/>
</g>
</svg>
