<?xml version="1.0" encoding="utf-8"?>
<!-- Generator: Adobe Illustrator 19.2.1, SVG Export Plug-In . SVG Version: 6.00 Build 0)  -->
<svg version="1.1" xmlns="http://www.w3.org/2000/svg" xmlns:xlink="http://www.w3.org/1999/xlink" x="0px" y="0px" width="24px"
	 height="24px" viewBox="0 0 24 24" enable-background="new 0 0 24 24" xml:space="preserve">
<g id="Filled_Icons_1_">
	<g id="Filled_Icons">
		<path d="M11.996,0.902c-6.617,0-12,4.434-12,9.883c0,2.574,1.177,4.985,3.325,6.832l-2.41,4.81
			c-0.212,0.423,0.234,0.878,0.658,0.677l6.437-2.995c1.278,0.37,2.62,0.559,3.99,0.559c6.617,0,12-4.434,12-9.883
			C23.996,5.336,18.613,0.902,11.996,0.902z M11,6.151c-0.004-0.276,0.22-0.5,0.496-0.5c0.276,0,0.5,0.224,0.504,0.5v6
			c-0.004,0.276-0.228,0.5-0.504,0.5c-0.276,0-0.5-0.224-0.496-0.5V6.151z M11.514,15.402c-0.006,0-0.012,0-0.019,0
			c-0.544,0-0.99-0.436-0.999-0.982c-0.009-0.552,0.431-1.008,0.982-1.017c0.006,0,0.012,0,0.018,0c0.545,0,0.99,0.436,1,0.982
			C12.506,14.938,12.065,15.393,11.514,15.402z"/>
	</g>
	<g id="New_icons">
	</g>
</g>
<g id="Invisible_Shape">
	<rect fill="none" width="24" height="24"/>
</g>
</svg>
