<?xml version="1.0" encoding="utf-8"?>
<!-- Generator: Adobe Illustrator 19.2.1, SVG Export Plug-In . SVG Version: 6.00 Build 0)  -->
<svg version="1.1" xmlns="http://www.w3.org/2000/svg" xmlns:xlink="http://www.w3.org/1999/xlink" x="0px" y="0px" width="24px"
	 height="24px" viewBox="0 0 24 24" enable-background="new 0 0 24 24" xml:space="preserve">
<g id="Filled_Icons_1_">
	<g id="Filled_Icons">
		<g>
			<path d="M13.5,14c0.789,0,1.539,0.266,2.148,0.748l2.353-1.176c-0.04-1.973,1.587-3.709,3.77-3.545
				C22.947,5.386,19.408,1,14.75,1h-7.5C3.252,1,0,4.252,0,8.25c0,3.914,3.118,7.113,7,7.246V19c0,0.444,0.539,0.668,0.853,0.354
				l2.18-2.18C10.2,15.398,11.682,14,13.5,14z"/>
			<path d="M21.5,18c-0.891,0-1.668,0.472-2.111,1.175l-3.428-1.286c0.052-0.338,0.069-0.568-0.056-1.033l3.638-1.818
				C20.002,15.619,20.703,16,21.5,16c1.379,0,2.5-1.121,2.5-2.5S22.879,11,21.5,11c-1.583,0-2.85,1.492-2.405,3.144l-3.639,1.818
				C14.998,15.381,14.296,15,13.5,15c-1.379,0-2.5,1.121-2.5,2.5s1.121,2.5,2.5,2.5c0.891,0,1.668-0.472,2.111-1.174l3.428,1.286
				C18.794,21.707,20.029,23,21.5,23c1.379,0,2.5-1.121,2.5-2.5S22.879,18,21.5,18z M21.5,12c0.827,0,1.5,0.673,1.5,1.5
				S22.327,15,21.5,15S20,14.327,20,13.5S20.673,12,21.5,12z M13.5,19c-0.827,0-1.5-0.673-1.5-1.5s0.673-1.5,1.5-1.5
				s1.5,0.673,1.5,1.5S14.327,19,13.5,19z M21.5,22c-0.827,0-1.5-0.673-1.5-1.5s0.673-1.5,1.5-1.5s1.5,0.673,1.5,1.5
				S22.327,22,21.5,22z"/>
		</g>
	</g>
	<g id="New_icons">
	</g>
</g>
<g id="Invisible_Shape">
	<rect fill="none" width="24" height="24"/>
</g>
</svg>
