<?xml version="1.0" encoding="utf-8"?>
<!-- Generator: Adobe Illustrator 19.2.1, SVG Export Plug-In . SVG Version: 6.00 Build 0)  -->
<svg version="1.1" xmlns="http://www.w3.org/2000/svg" xmlns:xlink="http://www.w3.org/1999/xlink" x="0px" y="0px" width="24px"
	 height="24px" viewBox="0 0 24 24" enable-background="new 0 0 24 24" xml:space="preserve">
<g id="Filled_Icons_1_">
	<g id="Filled_Icons">
		<g>
			<rect x="8" y="11.5" width="1" height="1"/>
			<path d="M11.997,1.5c-6.617,0-12,4.433-12,9.883c0,2.573,1.177,4.985,3.325,6.831l-2.41,4.811
				c-0.21,0.419,0.225,0.877,0.658,0.678l6.437-2.996c1.278,0.371,2.619,0.559,3.99,0.559c6.617,0,12-4.433,12-9.882
				C23.997,5.933,18.613,1.5,11.997,1.5z M10,14.5c-0.003,0.827-0.676,1.501-1.503,1.501c-0.276,0-0.5-0.225-0.5-0.5
				c0-0.277,0.224-0.5,0.5-0.5s0.5-0.225,0.5-0.501v-1h-1.5c-0.276,0.001-0.5-0.223-0.497-0.499v-2
				c-0.003-0.276,0.221-0.5,0.497-0.501h2c0.276,0.001,0.5,0.225,0.503,0.501V14.5z M10,9.001c-0.003,0.276-0.227,0.5-0.503,0.5
				S8.997,9.277,9,9.001v-2.5c-0.003-0.276,0.221-0.5,0.497-0.5s0.5,0.224,0.503,0.5V9.001z M17,12.5
				c-0.003,1.93-1.573,3.5-3.503,3.5c-0.276,0-0.5-0.224-0.5-0.5s0.224-0.5,0.5-0.5c1.378,0,2.5-1.122,2.503-2.5v-3
				C15.997,8.121,14.875,7,13.497,7c-0.276,0-0.5-0.224-0.5-0.5s0.224-0.5,0.5-0.5c1.93,0,3.5,1.569,3.503,3.5V12.5z"/>
		</g>
	</g>
	<g id="New_icons">
	</g>
</g>
<g id="Invisible_Shape">
	<rect fill="none" width="24" height="24"/>
</g>
</svg>
