<?xml version="1.0" encoding="utf-8"?>
<!-- Generator: Adobe Illustrator 19.2.1, SVG Export Plug-In . SVG Version: 6.00 Build 0)  -->
<svg version="1.1" xmlns="http://www.w3.org/2000/svg" xmlns:xlink="http://www.w3.org/1999/xlink" x="0px" y="0px" width="24px"
	 height="24px" viewBox="0 0 24 24" enable-background="new 0 0 24 24" xml:space="preserve">
<g id="Filled_Icons_1_">
	<g id="Filled_Icons">
		<g>
			<path d="M8.044,17.657c1.338-3.341,4.003-6.504,8.842-7.046v-0.582c0-1.251,1.452-1.958,2.437-1.171l2.451,1.96
				C23.19,5.2,17.904,0,11,0C4.935,0,0,4.038,0,9c0,2.352,1.117,4.488,2.928,6.094l-1.884,4.201
				c-0.085,0.189-0.044,0.413,0.103,0.559C1.242,19.949,1.37,20,1.5,20c0.07,0,0.14-0.015,0.206-0.045l5.547-2.504
				C7.512,17.528,7.776,17.596,8.044,17.657z"/>
			<path d="M23.699,13.609l-4.886-4C18.481,9.345,18,9.587,18,10v1.51C8.116,11.885,7.886,23.383,7.886,23.5
				c0,0.6,0.87,0.691,0.99,0.1c0.058-0.284,1.587-6.812,9.123-7.09V18c0,0.42,0.488,0.651,0.812,0.391l4.886-4
				C23.946,14.193,23.951,13.812,23.699,13.609z"/>
		</g>
	</g>
	<g id="New_icons">
	</g>
</g>
<g id="Invisible_Shape">
	<rect fill="none" width="24" height="24"/>
</g>
</svg>
