<?xml version="1.0" encoding="utf-8"?>
<!-- Generator: Adobe Illustrator 19.2.1, SVG Export Plug-In . SVG Version: 6.00 Build 0)  -->
<svg version="1.1" xmlns="http://www.w3.org/2000/svg" xmlns:xlink="http://www.w3.org/1999/xlink" x="0px" y="0px" width="24px"
	 height="24px" viewBox="0 0 24 24" enable-background="new 0 0 24 24" xml:space="preserve">
<g id="Filled_Icons_1_">
	<g id="Filled_Icons">
		<g>
			<path d="M17.5,10c1.69,0,3.245,0.568,4.5,1.514V0.5C22,0.224,21.776,0,21.5,0h-21C0.224,0,0,0.224,0,0.5v14
				C0,14.776,0.224,15,0.5,15H4v3.5c0,0.444,0.54,0.668,0.853,0.354L8.707,15h1.731C11.47,12.092,14.242,10,17.5,10z"/>
			<path d="M17.5,11c-3.585,0-6.5,2.916-6.5,6.5s2.915,6.5,6.5,6.5s6.5-2.916,6.5-6.5S21.084,11,17.5,11z M20.227,18h-5.454
				c-0.276,0-0.5-0.224-0.5-0.5s0.224-0.5,0.5-0.5h5.454c0.276,0,0.5,0.224,0.5,0.5S20.503,18,20.227,18z"/>
		</g>
	</g>
	<g id="New_icons">
	</g>
</g>
<g id="Invisible_Shape">
	<rect fill="none" width="24" height="24"/>
</g>
</svg>
