<?xml version="1.0" encoding="utf-8"?>
<!-- Generator: Adobe Illustrator 19.2.1, SVG Export Plug-In . SVG Version: 6.00 Build 0)  -->
<svg version="1.1" xmlns="http://www.w3.org/2000/svg" xmlns:xlink="http://www.w3.org/1999/xlink" x="0px" y="0px" width="24px"
	 height="24px" viewBox="0 0 24 24" enable-background="new 0 0 24 24" xml:space="preserve">
<g id="Filled_Icons_1_">
	<g id="Filled_Icons">
		<g>
			<path d="M13.5,15c0.789,0,1.539,0.266,2.148,0.748l2.353-1.176C18,14.548,18,14.524,18,14.5c0-1.972,1.656-3.62,3.71-3.479
				C23.325,5.302,17.962,0,11,0c-6.065,0-11,4.038-11,9c0,2.352,1.117,4.488,2.928,6.094l-1.884,4.201
				c-0.188,0.421,0.248,0.851,0.662,0.66l5.547-2.504c0.888,0.265,1.826,0.442,2.801,0.514C10.314,16.29,11.753,15,13.5,15z"/>
			<path d="M21.5,19c-0.891,0-1.668,0.472-2.111,1.175l-3.428-1.286c0.052-0.338,0.069-0.568-0.056-1.033l3.638-1.818
				C20.002,16.619,20.703,17,21.5,17c1.379,0,2.5-1.121,2.5-2.5S22.879,12,21.5,12S19,13.121,19,14.5
				c0,0.224,0.039,0.436,0.095,0.644l-3.639,1.818C14.998,16.381,14.296,16,13.5,16c-1.379,0-2.5,1.121-2.5,2.5s1.121,2.5,2.5,2.5
				c0.891,0,1.668-0.472,2.111-1.174l3.428,1.286C19.02,21.239,19,21.367,19,21.5c0,1.379,1.121,2.5,2.5,2.5s2.5-1.121,2.5-2.5
				S22.879,19,21.5,19z M21.5,13c0.827,0,1.5,0.673,1.5,1.5S22.327,16,21.5,16S20,15.327,20,14.5S20.673,13,21.5,13z M13.5,20
				c-0.827,0-1.5-0.673-1.5-1.5s0.673-1.5,1.5-1.5s1.5,0.673,1.5,1.5S14.327,20,13.5,20z M21.5,23c-0.827,0-1.5-0.673-1.5-1.5
				s0.673-1.5,1.5-1.5s1.5,0.673,1.5,1.5S22.327,23,21.5,23z"/>
		</g>
	</g>
	<g id="New_icons">
	</g>
</g>
<g id="Invisible_Shape">
	<rect fill="none" width="24" height="24"/>
</g>
</svg>
