<?xml version="1.0" encoding="utf-8"?>
<!-- Generator: Adobe Illustrator 19.2.1, SVG Export Plug-In . SVG Version: 6.00 Build 0)  -->
<svg version="1.1" xmlns="http://www.w3.org/2000/svg" xmlns:xlink="http://www.w3.org/1999/xlink" x="0px" y="0px" width="24px"
	 height="24px" viewBox="0 0 24 24" enable-background="new 0 0 24 24" xml:space="preserve">
<g id="Filled_Icons_1_">
	<g id="Filled_Icons">
		<g>
			<g>
				<path d="M21,13.707L14.707,20c0.77,0.616,1.733,1,2.793,1c2.481,0,4.5-2.018,4.5-4.5C22,15.44,21.616,14.477,21,13.707z"/>
				<path d="M20.293,13c-0.77-0.615-1.733-1-2.793-1c-2.481,0-4.5,2.019-4.5,4.5c0,1.06,0.384,2.023,1,2.793L20.293,13z"/>
				<path d="M17.5,10c-3.584,0-6.5,2.916-6.5,6.5s2.916,6.5,6.5,6.5s6.5-2.916,6.5-6.5S21.084,10,17.5,10z M17.5,22
					c-3.033,0-5.5-2.467-5.5-5.5s2.467-5.5,5.5-5.5s5.5,2.467,5.5,5.5S20.533,22,17.5,22z"/>
			</g>
			<path d="M21.622,10.241C23.18,5.674,19.743,1,15,1H7C3.14,1,0,4.141,0,8c0,3.86,3.14,7,7,7v3.5c0,0.445,0.54,0.667,0.853,0.354
				l2.157-2.156C9.833,10.672,16.565,6.9,21.622,10.241z"/>
		</g>
	</g>
	<g id="New_icons">
	</g>
</g>
<g id="Invisible_Shape">
	<rect fill="none" width="24" height="24"/>
</g>
</svg>
