<?xml version="1.0" encoding="utf-8"?>
<!-- Generator: Adobe Illustrator 19.2.1, SVG Export Plug-In . SVG Version: 6.00 Build 0)  -->
<svg version="1.1" xmlns="http://www.w3.org/2000/svg" xmlns:xlink="http://www.w3.org/1999/xlink" x="0px" y="0px" width="24px"
	 height="24px" viewBox="0 0 24 24" enable-background="new 0 0 24 24" xml:space="preserve">
<g id="Filled_Icons_1_">
	<g id="Filled_Icons">
		<g>
			<path d="M23.5,2h-23C0.22,2,0,2.22,0,2.5v15C0,17.78,0.22,18,0.5,18H7v3.5c0,0.455,0.566,0.666,0.85,0.35L11.71,18H23.5
				c0.28,0,0.5-0.22,0.5-0.5v-15C24,2.22,23.78,2,23.5,2z M10,13.5c0,0.83-0.67,1.5-1.5,1.5C8.22,15,8,14.78,8,14.5S8.22,14,8.5,14
				C9.056,14,9,13.515,9,13H7.5C7.22,13,7,12.78,7,12.5v-3C7,9.22,7.22,9,7.5,9h2C9.78,9,10,9.22,10,9.5V13.5z M10,8
				c0,0.28-0.22,0.5-0.5,0.5C9.22,8.5,9,8.28,9,8V5.5C9,5.22,9.22,5,9.5,5C9.78,5,10,5.22,10,5.5V8z M17,11.5
				c0,1.93-1.57,3.5-3.5,3.5c-0.28,0-0.5-0.22-0.5-0.5s0.22-0.5,0.5-0.5c1.38,0,2.5-1.12,2.5-2.5v-3C16,7.12,14.88,6,13.5,6
				C13.22,6,13,5.78,13,5.5S13.22,5,13.5,5C15.43,5,17,6.57,17,8.5V11.5z"/>
			<rect x="8" y="10" width="1" height="2"/>
		</g>
	</g>
	<g id="New_icons">
	</g>
</g>
<g id="Invisible_Shape">
	<rect fill="none" width="24" height="24"/>
</g>
</svg>
