<?xml version="1.0" encoding="utf-8"?>
<!-- Generator: Adobe Illustrator 19.2.1, SVG Export Plug-In . SVG Version: 6.00 Build 0)  -->
<svg version="1.1" xmlns="http://www.w3.org/2000/svg" xmlns:xlink="http://www.w3.org/1999/xlink" x="0px" y="0px" width="24px"
	 height="24px" viewBox="0 0 24 24" enable-background="new 0 0 24 24" xml:space="preserve">
<g id="Filled_Icons_1_">
	<g id="Filled_Icons">
		<path d="M23.5,1h-23C0.224,1,0,1.224,0,1.5v16C0,17.776,0.224,18,0.5,18H7v3.5c0,0.444,0.541,0.667,0.853,0.354L11.707,18H23.5
			c0.276,0,0.5-0.224,0.5-0.5v-16C24,1.224,23.776,1,23.5,1z M11,4.5C11,4.224,11.224,4,11.5,4S12,4.224,12,4.5v6
			c0,0.276-0.224,0.5-0.5,0.5S11,10.776,11,10.5V4.5z M11.518,14c-0.006,0-0.012,0-0.019,0c-0.544,0-0.99-0.436-0.999-0.982
			c-0.009-0.552,0.431-1.008,0.982-1.017c0.006,0,0.012,0,0.019,0c0.544,0,0.989,0.435,0.999,0.982
			C12.51,13.535,12.069,13.99,11.518,14z"/>
	</g>
	<g id="New_icons">
	</g>
</g>
<g id="Invisible_Shape">
	<rect fill="none" width="24" height="24"/>
</g>
</svg>
