<?xml version="1.0" encoding="utf-8"?>
<!-- Generator: Adobe Illustrator 19.2.1, SVG Export Plug-In . SVG Version: 6.00 Build 0)  -->
<svg version="1.1" xmlns="http://www.w3.org/2000/svg" xmlns:xlink="http://www.w3.org/1999/xlink" x="0px" y="0px" width="24px"
	 height="24px" viewBox="0 0 24 24" enable-background="new 0 0 24 24" xml:space="preserve">
<g id="Filled_Icons_1_">
	<g id="Filled_Icons">
		<g>
			<path d="M13.5,14h0.528c0.25-2.247,2.16-4,4.472-4c1.415,0,2.675,0.661,3.5,1.686V0.5C22,0.224,21.776,0,21.5,0h-21
				C0.224,0,0,0.224,0,0.5v14C0,14.776,0.224,15,0.5,15H4v3.5c0,0.444,0.539,0.668,0.853,0.354L8.707,15h3.385
				C12.299,14.419,12.849,14,13.5,14z"/>
			<path d="M23.5,15H22v-0.5c0-1.93-1.57-3.5-3.5-3.5S15,12.57,15,14.5V15h-1.5c-0.276,0-0.5,0.224-0.5,0.5v8
				c0,0.276,0.224,0.5,0.5,0.5h10c0.276,0,0.5-0.224,0.5-0.5v-8C24,15.224,23.776,15,23.5,15z M19,19.347V21
				c0,0.276-0.224,0.5-0.5,0.5S18,21.276,18,21v-1.653c-0.293-0.175-0.5-0.482-0.5-0.847c0-0.552,0.448-1,1-1s1,0.448,1,1
				C19.5,18.865,19.293,19.172,19,19.347z M21,15h-5v-0.5c0-1.379,1.121-2.5,2.5-2.5s2.5,1.121,2.5,2.5V15z"/>
		</g>
	</g>
	<g id="New_icons">
	</g>
</g>
<g id="Invisible_Shape">
	<rect fill="none" width="24" height="24"/>
</g>
</svg>
