<?xml version="1.0" encoding="utf-8"?>
<!-- Generator: Adobe Illustrator 19.2.1, SVG Export Plug-In . SVG Version: 6.00 Build 0)  -->
<svg version="1.1" xmlns="http://www.w3.org/2000/svg" xmlns:xlink="http://www.w3.org/1999/xlink" x="0px" y="0px" width="24px"
	 height="24px" viewBox="0 0 24 24" enable-background="new 0 0 24 24" xml:space="preserve">
<g id="Filled_Icons_1_">
	<g id="Filled_Icons">
		<g>
			<rect x="7" y="7" width="3" height="3"/>
			<rect x="14" y="7" width="3" height="3"/>
			<path d="M23.5,2h-23C0.224,2,0,2.224,0,2.5v15C0,17.776,0.224,18,0.5,18H7v3.5c0,0.445,0.54,0.667,0.853,0.354L11.707,18H23.5
				c0.276,0,0.5-0.224,0.5-0.5v-15C24,2.224,23.776,2,23.5,2z M11,12c0,1.379-1.122,2.5-2.5,2.5C8.224,14.5,8,14.276,8,14
				s0.224-0.5,0.5-0.5c0.827,0,1.5-0.673,1.5-1.5v-1H6.5C6.224,11,6,10.776,6,10.5v-4C6,6.224,6.224,6,6.5,6h4
				C10.776,6,11,6.224,11,6.5V12z M18,12c0,1.379-1.122,2.5-2.5,2.5c-0.276,0-0.5-0.224-0.5-0.5s0.224-0.5,0.5-0.5
				c0.827,0,1.5-0.673,1.5-1.5v-1h-3.5c-0.276,0-0.5-0.224-0.5-0.5v-4C13,6.224,13.224,6,13.5,6h4C17.776,6,18,6.224,18,6.5V12z"/>
		</g>
	</g>
	<g id="New_icons">
	</g>
</g>
<g id="Invisible_Shape">
	<rect fill="none" width="24" height="24"/>
</g>
</svg>
