<?xml version="1.0" encoding="utf-8"?>
<!-- Generator: Adobe Illustrator 19.2.1, SVG Export Plug-In . SVG Version: 6.00 Build 0)  -->
<svg version="1.1" xmlns="http://www.w3.org/2000/svg" xmlns:xlink="http://www.w3.org/1999/xlink" x="0px" y="0px" width="24px"
	 height="24px" viewBox="0 0 24 24" enable-background="new 0 0 24 24" xml:space="preserve">
<g id="Filled_Icons_1_">
	<g id="Filled_Icons">
		<g>
			<rect x="7" y="8" width="3" height="3"/>
			<rect x="14" y="8" width="3" height="3"/>
			<path d="M11.997,1.5c-6.617,0-12,4.434-12,9.883c0,2.573,1.178,4.985,3.325,6.831l-2.41,4.812
				c-0.215,0.429,0.239,0.877,0.658,0.677l6.437-2.996c1.278,0.371,2.619,0.559,3.99,0.559c6.617,0,12-4.434,12-9.883
				S18.613,1.5,11.997,1.5z M11,13c0,1.379-1.125,2.5-2.503,2.5c-0.276,0-0.5-0.224-0.5-0.5s0.224-0.5,0.5-0.5
				c0.827,0,1.5-0.673,1.503-1.5v-1H6.497c-0.276,0-0.5-0.224-0.497-0.5v-4C5.997,7.224,6.221,7,6.497,7h4
				c0.276,0,0.5,0.224,0.503,0.5V13z M17.997,13c0,1.379-1.122,2.5-2.5,2.5c-0.276,0-0.5-0.224-0.5-0.5s0.224-0.5,0.5-0.5
				c0.827,0,1.5-0.673,1.5-1.5v-1h-3.5c-0.276,0-0.5-0.224-0.497-0.5v-4C12.997,7.224,13.221,7,13.497,7h4
				c0.276,0,0.5,0.224,0.503,0.5L17.997,13z"/>
		</g>
	</g>
	<g id="New_icons">
	</g>
</g>
<g id="Invisible_Shape">
	<rect fill="none" width="24" height="24"/>
</g>
</svg>
