<?xml version="1.0" encoding="utf-8"?>
<!-- Generator: Adobe Illustrator 19.2.1, SVG Export Plug-In . SVG Version: 6.00 Build 0)  -->
<svg version="1.1" xmlns="http://www.w3.org/2000/svg" xmlns:xlink="http://www.w3.org/1999/xlink" x="0px" y="0px" width="24px"
	 height="24px" viewBox="0 0 24 24" enable-background="new 0 0 24 24" xml:space="preserve">
<g id="Filled_Icons_1_">
	<g id="Filled_Icons">
		<g>
			<path d="M11.606,14.936c0.497-2.524,2.726-4.436,5.395-4.436c2.219,0,4.131,1.324,4.999,3.223V0.5C22,0.224,21.776,0,21.5,0h-21
				C0.224,0,0,0.224,0,0.5v14C0,14.776,0.224,15,0.5,15H4v3.5c0,0.444,0.539,0.668,0.853,0.354L8.707,15h2.875
				C11.585,14.977,11.601,14.958,11.606,14.936z"/>
			<path d="M23.354,21.646L20.5,18.793c0.616-0.77,1-1.733,1-2.793c0-2.481-2.018-4.5-4.499-4.5c-2.481,0-4.501,2.019-4.501,4.5
				c0,2.48,2.019,4.5,4.501,4.5c1.059,0,2.022-0.385,2.792-1l2.854,2.854c0.195,0.195,0.512,0.195,0.707,0
				C23.549,22.158,23.549,21.842,23.354,21.646z M17.001,19.5c-1.931,0-3.501-1.57-3.501-3.5s1.57-3.5,3.501-3.5
				c1.929,0,3.499,1.57,3.499,3.5S18.93,19.5,17.001,19.5z"/>
			<path d="M23.354,21.646L20.5,18.793c0.616-0.77,1-1.733,1-2.793c0-2.481-2.018-4.5-4.499-4.5c-2.481,0-4.501,2.019-4.501,4.5
				c0,2.48,2.019,4.5,4.501,4.5c1.059,0,2.022-0.385,2.792-1l2.854,2.854c0.195,0.195,0.512,0.195,0.707,0
				C23.549,22.158,23.549,21.842,23.354,21.646z M17.001,19.5c-1.931,0-3.501-1.57-3.501-3.5s1.57-3.5,3.501-3.5
				c1.929,0,3.499,1.57,3.499,3.5S18.93,19.5,17.001,19.5z"/>
		</g>
	</g>
	<g id="New_icons">
	</g>
</g>
<g id="Invisible_Shape">
	<rect fill="none" width="24" height="24"/>
</g>
</svg>
