<?xml version="1.0" encoding="utf-8"?>
<!-- Generator: Adobe Illustrator 19.2.1, SVG Export Plug-In . SVG Version: 6.00 Build 0)  -->
<svg version="1.1" xmlns="http://www.w3.org/2000/svg" xmlns:xlink="http://www.w3.org/1999/xlink" x="0px" y="0px" width="24px"
	 height="24px" viewBox="0 0 24 24" enable-background="new 0 0 24 24" xml:space="preserve">
<g id="Filled_Icons_1_">
	<g id="Filled_Icons">
		<g>
			<g>
				<path d="M13.886,10.5V9.918c0-1.252,1.454-1.957,2.437-1.172l0.699,0.56c0.415-0.925,1.559-1.152,2.301-0.56l2.47,1.977
					C23.129,5.103,17.831,0,11,0C4.935,0,0,4.038,0,9c0,2.352,1.117,4.488,2.928,6.094l-1.884,4.201
					c-0.189,0.421,0.248,0.851,0.662,0.66l2.951-1.331C5.831,14.914,8.527,11.1,13.886,10.5z"/>
			</g>
			<g>
				<path d="M20.699,13.527l-4.886-4C15.477,9.262,15,9.506,15,9.918v1.51C5.116,11.803,4.886,23.3,4.886,23.418
					c0,0.592,0.868,0.699,0.99,0.099c0.058-0.284,1.587-6.812,9.123-7.089v1.49c0,0.42,0.487,0.65,0.812,0.391l4.886-4
					C20.948,14.107,20.948,13.729,20.699,13.527z"/>
				<path d="M23.699,13.527l-5-4c-0.514-0.41-1.142,0.366-0.625,0.781l4.512,3.609l-4.512,3.609
					c-0.516,0.414,0.112,1.193,0.625,0.781l5-4C23.948,14.107,23.948,13.729,23.699,13.527z"/>
			</g>
		</g>
	</g>
	<g id="New_icons">
	</g>
</g>
<g id="Invisible_Shape">
	<rect fill="none" width="24" height="24"/>
</g>
</svg>
