<?xml version="1.0" encoding="utf-8"?>
<!-- Generator: Adobe Illustrator 19.2.1, SVG Export Plug-In . SVG Version: 6.00 Build 0)  -->
<svg version="1.1" xmlns="http://www.w3.org/2000/svg" xmlns:xlink="http://www.w3.org/1999/xlink" x="0px" y="0px" width="24px"
	 height="24px" viewBox="0 0 24 24" enable-background="new 0 0 24 24" xml:space="preserve">
<g id="Filled_Icons_1_">
	<g id="Filled_Icons">
		<g>
			<path d="M11.54,17.656c-1.076-0.896-0.435-2.653,0.96-2.653L15.073,15l1.577-3.166c0.551-1.114,2.152-1.095,2.693,0l0.842,1.672
				C25.231,7.079,18.826,0,10.917,0C4.898,0,0,4.037,0,8.999c0,2.39,0.998,4.507,2.89,6.144l-1.846,4.154
				c-0.185,0.415,0.239,0.847,0.663,0.658l5.33-2.423c1.312,0.382,2.371,0.535,4.687,0.276L11.54,17.656z"/>
			<path d="M23.962,16.33C23.89,16.133,23.703,16,23.492,16h-3.19l-1.854-3.723c-0.084-0.17-0.267-0.274-0.455-0.274
				c-0.188,0-0.362,0.108-0.446,0.277l-1.855,3.723H12.5c-0.211,0-0.398,0.133-0.471,0.33c-0.071,0.198-0.012,0.42,0.15,0.555
				l2.738,2.281l-1.391,4.17c-0.071,0.202-0.014,0.434,0.17,0.566c0.177,0.131,0.407,0.121,0.577,0.003l3.724-2.545l3.719,2.542
				c0.17,0.118,0.4,0.128,0.577-0.003c0.184-0.133,0.242-0.364,0.17-0.566l-1.391-4.17l2.738-2.281
				C23.974,16.75,24.034,16.528,23.962,16.33z"/>
		</g>
	</g>
	<g id="New_icons">
	</g>
</g>
<g id="Invisible_Shape">
	<rect fill="none" width="24" height="24"/>
</g>
</svg>
