<?xml version="1.0" encoding="utf-8"?>
<!-- Generator: Adobe Illustrator 19.2.1, SVG Export Plug-In . SVG Version: 6.00 Build 0)  -->
<svg version="1.1" xmlns="http://www.w3.org/2000/svg" xmlns:xlink="http://www.w3.org/1999/xlink" x="0px" y="0px" width="24px"
	 height="24px" viewBox="0 0 24 24" enable-background="new 0 0 24 24" xml:space="preserve">
<g id="Filled_Icons_1_">
	<g id="Filled_Icons">
		<path d="M11.996,0.902c-6.617,0-12,4.434-12,9.883c0,2.574,1.177,4.985,3.325,6.832l-2.41,4.81
			c-0.214,0.424,0.234,0.878,0.658,0.677l6.437-2.995c1.278,0.37,2.62,0.559,3.99,0.559c6.617,0,12-4.434,12-9.883
			C23.996,5.336,18.613,0.902,11.996,0.902z M12.496,16.402c-0.552,0-1-0.447-1-1c0-0.552,0.448-1,1-1c0.552,0,1,0.448,1,1
			C13.496,15.955,13.048,16.402,12.496,16.402z M12.996,12.367v0.784c0,0.276-0.224,0.5-0.5,0.5c-0.276,0-0.5-0.224-0.5-0.5v-1.249
			c0-0.276,0.224-0.5,0.5-0.5c1.378,0,2.5-1.107,2.5-2.469s-1.122-2.469-2.5-2.469c-1.355,0-2.5,1.173-2.5,2.562
			c0,0.275-0.224,0.5-0.5,0.5c-0.276,0-0.5-0.225-0.5-0.5c0-1.965,1.57-3.562,3.5-3.562s3.5,1.556,3.5,3.469
			C15.996,10.678,14.69,12.126,12.996,12.367z"/>
	</g>
	<g id="New_icons">
	</g>
</g>
<g id="Invisible_Shape">
	<rect fill="none" width="24" height="24"/>
</g>
</svg>
