<?xml version="1.0" encoding="utf-8"?>
<!-- Generator: Adobe Illustrator 19.2.1, SVG Export Plug-In . SVG Version: 6.00 Build 0)  -->
<svg version="1.1" xmlns="http://www.w3.org/2000/svg" xmlns:xlink="http://www.w3.org/1999/xlink" x="0px" y="0px" width="24px"
	 height="24px" viewBox="0 0 24 24" enable-background="new 0 0 24 24" xml:space="preserve">
<g id="Filled_Icons_1_">
	<g id="Filled_Icons">
		<g>
			<path d="M21.704,10.293C23.075,5.625,19.551,1,14.75,1h-7.5C3.252,1,0,4.252,0,8.25c0,3.914,3.118,7.113,7,7.246V19
				c0,0.444,0.539,0.668,0.853,0.354l2.181-2.181C9.464,10.854,16.521,6.772,21.704,10.293z"/>
			<path d="M17.5,10c-3.584,0-6.5,2.916-6.5,6.5s2.916,6.5,6.5,6.5s6.5-2.916,6.5-6.5S21.084,10,17.5,10z M13.035,15.014
				c0.635-1.794,2.34-2.998,4.242-2.998c1.337,0,2.619,0.593,3.5,1.513v-0.567c0-0.277,0.224-0.5,0.5-0.5c0.276,0,0.5,0.223,0.5,0.5
				v2.221c0,0.276-0.224,0.5-0.5,0.5h-2.223c-0.275,0-0.5-0.224-0.5-0.5c0-0.276,0.225-0.5,0.5-0.5h1.379
				c-0.653-0.991-1.873-1.666-3.156-1.666c-1.479,0-2.806,0.938-3.301,2.332c-0.072,0.205-0.266,0.334-0.471,0.334
				c-0.056,0-0.111-0.01-0.167-0.029C13.078,15.56,12.942,15.274,13.035,15.014z M21.965,17.986
				c-0.635,1.793-2.34,2.998-4.242,2.998c-1.336,0-2.619-0.592-3.5-1.512v0.567c0,0.276-0.223,0.5-0.5,0.5
				c-0.275,0-0.5-0.224-0.5-0.5v-2.222c0-0.277,0.225-0.5,0.5-0.5h2.223c0.276,0,0.5,0.223,0.5,0.5c0,0.275-0.224,0.5-0.5,0.5
				h-1.379c0.653,0.992,1.873,1.666,3.156,1.666c1.479,0,2.806-0.938,3.301-2.333c0.092-0.261,0.378-0.397,0.638-0.304
				C21.922,17.44,22.058,17.726,21.965,17.986z"/>
		</g>
	</g>
	<g id="New_icons">
	</g>
</g>
<g id="Invisible_Shape">
	<rect fill="none" width="24" height="24"/>
</g>
</svg>
