<?xml version="1.0" encoding="utf-8"?>
<!-- Generator: Adobe Illustrator 19.2.1, SVG Export Plug-In . SVG Version: 6.00 Build 0)  -->
<svg version="1.1" xmlns="http://www.w3.org/2000/svg" xmlns:xlink="http://www.w3.org/1999/xlink" x="0px" y="0px" width="24px"
	 height="24px" viewBox="0 0 24 24" enable-background="new 0 0 24 24" xml:space="preserve">
<g id="Filled_Icons_1_">
	<g id="Filled_Icons">
		<g>
			<path d="M17.5,11c-3.584,0-6.5,2.916-6.5,6.5s2.916,6.5,6.5,6.5s6.5-2.916,6.5-6.5S21.084,11,17.5,11z M18.207,17.5l2.347,2.346
				c0.195,0.195,0.195,0.513,0,0.707c-0.195,0.195-0.512,0.195-0.707,0L17.5,18.206l-2.347,2.347c-0.195,0.195-0.512,0.195-0.707,0
				c-0.195-0.194-0.195-0.512,0-0.707l2.347-2.346l-2.347-2.346c-0.195-0.195-0.195-0.512,0-0.707c0.195-0.195,0.512-0.195,0.707,0
				l2.347,2.347l2.347-2.347c0.195-0.195,0.512-0.195,0.707,0c0.195,0.195,0.195,0.512,0,0.707L18.207,17.5z"/>
			<path d="M17.5,10c1.69,0,3.245,0.568,4.5,1.514V0.5C22,0.224,21.776,0,21.5,0h-21C0.224,0,0,0.224,0,0.5v14
				C0,14.776,0.224,15,0.5,15H4v3.5c0,0.444,0.54,0.668,0.853,0.354L8.707,15h1.731C11.47,12.092,14.242,10,17.5,10z"/>
		</g>
	</g>
	<g id="New_icons">
	</g>
</g>
<g id="Invisible_Shape">
	<rect fill="none" width="24" height="24"/>
</g>
</svg>
