<?xml version="1.0" encoding="utf-8"?>
<!-- Generator: Adobe Illustrator 19.2.1, SVG Export Plug-In . SVG Version: 6.00 Build 0)  -->
<svg version="1.1" xmlns="http://www.w3.org/2000/svg" xmlns:xlink="http://www.w3.org/1999/xlink" x="0px" y="0px" width="24px"
	 height="24px" viewBox="0 0 24 24" enable-background="new 0 0 24 24" xml:space="preserve">
<g id="Filled_Icons_1_">
	<g id="Filled_Icons">
		<path d="M12,0.876c-6.617,0-12,4.434-12,9.883c0,2.573,1.177,4.985,3.325,6.832l-2.41,4.81c-0.213,0.426,0.236,0.879,0.658,0.677
			l6.437-2.995c1.278,0.371,2.62,0.559,3.99,0.559c6.617,0,12-4.433,12-9.882S18.617,0.876,12,0.876z M12,4.5c0.551,0,1,0.449,1,1
			s-0.449,1-1,1s-1-0.449-1-1S11.449,4.5,12,4.5z M14.516,15h-4c-0.276,0-0.5-0.224-0.5-0.5s0.224-0.5,0.5-0.5H12V9h-1.484
			c-0.276,0-0.5-0.224-0.5-0.5s0.224-0.5,0.5-0.5h2c0.276,0,0.5,0.224,0.484,0.5V14h1.516c0.276,0,0.5,0.224,0.5,0.5
			S14.792,15,14.516,15z"/>
	</g>
	<g id="New_icons">
	</g>
</g>
<g id="Invisible_Shape">
	<rect fill="none" width="24" height="24"/>
</g>
</svg>
