<?xml version="1.0" encoding="utf-8"?>
<!-- Generator: Adobe Illustrator 19.2.1, SVG Export Plug-In . SVG Version: 6.00 Build 0)  -->
<svg version="1.1" xmlns="http://www.w3.org/2000/svg" xmlns:xlink="http://www.w3.org/1999/xlink" x="0px" y="0px" width="24px"
	 height="24px" viewBox="0 0 24 24" enable-background="new 0 0 24 24" xml:space="preserve">
<g id="Filled_Icons_1_">
	<g id="Filled_Icons">
		<path d="M12,1.535c-6.617,0-12,4.433-12,9.883c0,2.573,1.177,4.985,3.324,6.831l-2.41,4.811c-0.21,0.419,0.228,0.877,0.658,0.678
			l6.438-2.996c1.278,0.37,2.62,0.559,3.99,0.559c6.617,0,12-4.433,12-9.882C24,5.969,18.617,1.535,12,1.535z M8.449,5.5
			c1.378,0,2.5,1.122,2.5,2.5s-1.122,2.5-2.5,2.5s-2.5-1.122-2.5-2.5S7.071,5.5,8.449,5.5z M19.408,17H5.49
			c-0.276,0-0.5-0.224-0.5-0.5S5.214,16,5.49,16h1.236l2.747-4.591c0.18-0.3,0.597-0.321,0.814-0.063l1.99,2.39l2.17-4.775
			c0.171-0.378,0.748-0.406,0.919,0.021L18.175,16h1.233c0.276,0,0.5,0.224,0.5,0.5S19.685,17,19.408,17z"/>
	</g>
	<g id="New_icons">
	</g>
</g>
<g id="Invisible_Shape">
	<rect fill="none" width="24" height="24"/>
</g>
</svg>
