<?xml version="1.0" encoding="utf-8"?>
<!-- Generator: Adobe Illustrator 19.2.1, SVG Export Plug-In . SVG Version: 6.00 Build 0)  -->
<svg version="1.1" xmlns="http://www.w3.org/2000/svg" xmlns:xlink="http://www.w3.org/1999/xlink" x="0px" y="0px" width="24px"
	 height="24px" viewBox="0 0 24 24" enable-background="new 0 0 24 24" xml:space="preserve">
<g id="Filled_Icons_1_">
	<g id="Filled_Icons">
		<path d="M23.5,2h-23C0.224,2,0,2.224,0,2.5v15C0,17.776,0.224,18,0.5,18h6.501L7,21.5c0,0.445,0.541,0.666,0.853,0.354L11.708,18
			H23.5c0.276,0,0.5-0.224,0.5-0.5v-15C24,2.224,23.776,2,23.5,2z M12,5c0.552,0,1,0.447,1,1c0,0.552-0.448,1-1,1s-1-0.448-1-1
			C11,5.447,11.448,5,12,5z M14.5,15h-4c-0.276,0-0.5-0.224-0.5-0.5s0.224-0.5,0.5-0.5H12V9h-1.5C10.224,9,10,8.776,10,8.5
			S10.224,8,10.5,8h2C12.776,8,13,8.224,13,8.5V14h1.5c0.276,0,0.5,0.224,0.5,0.5S14.776,15,14.5,15z"/>
	</g>
	<g id="New_icons">
	</g>
</g>
<g id="Invisible_Shape">
	<rect fill="none" width="24" height="24"/>
</g>
</svg>
