<?xml version="1.0" encoding="utf-8"?>
<!-- Generator: Adobe Illustrator 19.2.1, SVG Export Plug-In . SVG Version: 6.00 Build 0)  -->
<svg version="1.1" xmlns="http://www.w3.org/2000/svg" xmlns:xlink="http://www.w3.org/1999/xlink" x="0px" y="0px" width="24px"
	 height="24px" viewBox="0 0 24 24" enable-background="new 0 0 24 24" xml:space="preserve">
<g id="Filled_Icons_1_">
	<g id="Filled_Icons">
		<g>
			<g>
				<rect x="14.109" y="16.234" transform="matrix(0.7071 -0.7071 0.7071 0.7071 -7.9573 17.792)" width="6.78" height="4.535"/>
				<path d="M23.854,14.646l-2.5-2.5c-0.195-0.195-0.512-0.195-0.707,0l-1.647,1.647l3.207,3.207l1.647-1.647
					C24.049,15.159,24.049,14.842,23.854,14.646z"/>
				<path d="M15.846,23.067l-2.917-2.917l-0.911,3.226c-0.046,0.168-0.011,0.353,0.121,0.484c0.131,0.131,0.315,0.166,0.483,0.122
					L15.846,23.067z"/>
			</g>
			<path d="M20.646,10.731c0.195-0.195,0.512-0.195,0.707,0L22,11.378V0.5C22,0.224,21.776,0,21.5,0h-21C0.224,0,0,0.224,0,0.5v14
				C0,14.776,0.224,15,0.5,15H4v3.5c0,0.445,0.541,0.666,0.853,0.354L8.707,15h7.67L20.646,10.731z"/>
		</g>
	</g>
	<g id="New_icons">
	</g>
</g>
<g id="Invisible_Shape">
	<rect fill="none" width="24" height="24"/>
</g>
</svg>
