<?xml version="1.0" encoding="utf-8"?>
<!-- Generator: Adobe Illustrator 19.2.1, SVG Export Plug-In . SVG Version: 6.00 Build 0)  -->
<svg version="1.1" xmlns="http://www.w3.org/2000/svg" xmlns:xlink="http://www.w3.org/1999/xlink" x="0px" y="0px" width="24px"
	 height="24px" viewBox="0 0 24 24" enable-background="new 0 0 24 24" xml:space="preserve">
<g id="Filled_Icons_1_">
	<g id="Filled_Icons">
		<path d="M23.5,1h-23C0.224,1,0,1.224,0,1.5v16C0,17.776,0.224,18,0.5,18H7v3.5c0,0.445,0.54,0.667,0.853,0.354L11.707,18H23.5
			c0.276,0,0.5-0.224,0.5-0.5v-16C24,1.224,23.776,1,23.5,1z M7,11c-1.102,0-2-0.898-2-2s0.898-2,2-2c1.103,0,2,0.898,2,2
			S8.103,11,7,11z M12,11c-1.102,0-2-0.898-2-2s0.898-2,2-2c1.103,0,2,0.898,2,2S13.103,11,12,11z M17,11c-1.102,0-2-0.898-2-2
			s0.898-2,2-2c1.103,0,2,0.898,2,2S18.103,11,17,11z"/>
	</g>
	<g id="New_icons">
	</g>
</g>
<g id="Invisible_Shape">
	<rect fill="none" width="24" height="24"/>
</g>
</svg>
