<?xml version="1.0" encoding="utf-8"?>
<!-- Generator: Adobe Illustrator 19.2.1, SVG Export Plug-In . SVG Version: 6.00 Build 0)  -->
<svg version="1.1" xmlns="http://www.w3.org/2000/svg" xmlns:xlink="http://www.w3.org/1999/xlink" x="0px" y="0px" width="24px"
	 height="24px" viewBox="0 0 24 24" enable-background="new 0 0 24 24" xml:space="preserve">
<g id="Filled_Icons_1_">
	<g id="Filled_Icons">
		<g>
			<path d="M21.704,10.293C23.075,5.625,19.551,1,14.75,1h-7.5C3.252,1,0,4.252,0,8.25c0,3.914,3.118,7.113,7,7.246V19
				c0,0.444,0.539,0.668,0.853,0.354l2.181-2.181C9.464,10.854,16.521,6.772,21.704,10.293z"/>
			<path d="M17.5,10c-3.59,0-6.5,2.91-6.5,6.5s2.91,6.5,6.5,6.5s6.5-2.91,6.5-6.5S21.09,10,17.5,10z M20,16
				c-0.195,0.195-0.512,0.195-0.707,0L18,14.707V19.5c0,0.276-0.224,0.5-0.5,0.5S17,19.776,17,19.5v-4.793L15.707,16
				c-0.195,0.195-0.512,0.195-0.707,0c-0.195-0.195-0.195-0.512,0-0.707l2.146-2.147c0.195-0.195,0.512-0.195,0.707,0L20,15.293
				C20.195,15.488,20.195,15.805,20,16z"/>
		</g>
	</g>
	<g id="New_icons">
	</g>
</g>
<g id="Invisible_Shape">
	<rect fill="none" width="24" height="24"/>
</g>
</svg>
