<?xml version="1.0" encoding="utf-8"?>
<!-- Generator: Adobe Illustrator 19.2.1, SVG Export Plug-In . SVG Version: 6.00 Build 0)  -->
<svg version="1.1" xmlns="http://www.w3.org/2000/svg" xmlns:xlink="http://www.w3.org/1999/xlink" x="0px" y="0px" width="24px"
	 height="24px" viewBox="0 0 24 24" enable-background="new 0 0 24 24" xml:space="preserve">
<g id="Filled_Icons_1_">
	<g id="Filled_Icons">
		<g>
			<path d="M21,12h-1.607c-0.912,1.778-2.761,3-4.893,3H11v2c0,1.654,1.346,3,3,3h2.293l2.854,2.854
				C19.459,23.166,20,22.945,20,22.5V20h1c1.654,0,3-1.346,3-3v-2C24,13.346,22.654,12,21,12z"/>
			<path d="M19,9.5v-4C19,3.019,16.981,1,14.5,1h-10C2.019,1,0,3.019,0,5.5v4C0,11.981,2.019,14,4.5,14H5v3.5
				c0,0.444,0.54,0.668,0.853,0.354L9.707,14H14.5C16.981,14,19,11.981,19,9.5z"/>
		</g>
	</g>
	<g id="New_icons">
	</g>
</g>
<g id="Invisible_Shape">
	<rect fill="none" width="24" height="24"/>
</g>
</svg>
