<?xml version="1.0" encoding="utf-8"?>
<!-- Generator: Adobe Illustrator 19.2.1, SVG Export Plug-In . SVG Version: 6.00 Build 0)  -->
<svg version="1.1" xmlns="http://www.w3.org/2000/svg" xmlns:xlink="http://www.w3.org/1999/xlink" x="0px" y="0px" width="24px"
	 height="24px" viewBox="0 0 24 24" enable-background="new 0 0 24 24" xml:space="preserve">
<g id="Filled_Icons_1_">
	<g id="Filled_Icons">
		<g>
			<path d="M23.5,11H9.229l-2.808,2.184C5.423,13.954,4,13.233,4,12v-1H0.5C0.224,11,0,11.224,0,11.5v7C0,18.776,0.224,19,0.5,19
				h13.31l4.357,3.874C18.488,23.158,19,22.934,19,22.5V19h4.5c0.276,0,0.5-0.224,0.5-0.5v-7C24,11.224,23.776,11,23.5,11z"/>
			<path d="M23.5,0h-23C0.224,0,0,0.224,0,0.5v8C0,8.776,0.224,9,0.5,9H5v3c0,0.414,0.476,0.65,0.807,0.394L10.171,9h0H23.5
				C23.776,9,24,8.776,24,8.5v-8C24,0.224,23.776,0,23.5,0z"/>
		</g>
	</g>
	<g id="New_icons">
	</g>
</g>
<g id="Invisible_Shape">
	<rect fill="none" width="24" height="24"/>
</g>
</svg>
