<?xml version="1.0" encoding="utf-8"?>
<!-- Generator: Adobe Illustrator 19.2.1, SVG Export Plug-In . SVG Version: 6.00 Build 0)  -->
<svg version="1.1" xmlns="http://www.w3.org/2000/svg" xmlns:xlink="http://www.w3.org/1999/xlink" x="0px" y="0px" width="24px"
	 height="24px" viewBox="0 0 24 24" enable-background="new 0 0 24 24" xml:space="preserve">
<g id="Filled_Icons_1_">
	<g id="Filled_Icons">
		<g>
			<path d="M17.023,0c-3.849,0-6.969,2.885-6.997,6.452c1.956,0.901,3.35,3.064,3.413,5.606c0.495,0.276,1.019,0.514,1.584,0.67
				V15.5c0,0.445,0.541,0.666,0.854,0.354l3.12-3.12c2.904-0.792,5.026-3.28,5.026-6.233C24.023,2.91,20.89,0,17.023,0z M15.023,7
				h-1V6h1V7z M18.023,7h-1V6h1V7z M21.023,7h-1V6h1V7z"/>
			<g>
				<path d="M5.621,11.344c0.981,0,2.186-0.599,2.528-1.256c0.19-0.367,0.692-0.34,0.878-0.018c0.87,1.521,1.715,1.562,3.307,1.025
					C11.89,8.756,10.119,7,8,7c-1.999,0-3.675,1.572-4.233,3.714C4.724,11.327,5.139,11.344,5.621,11.344z"/>
				<path d="M14.11,19.309l-3.61-1.293v-1.46c1.186-0.964,1.966-2.593,1.936-4.441c-0.554,0.229-1.309,0.295-1.553,0.295
					c-0.948,0-1.694-0.398-2.327-1.235c-0.707,0.683-1.871,1.17-2.935,1.17c-0.642,0-1.191-0.105-2.028-0.58
					c-0.178,2.037,0.653,3.781,1.907,4.789v1.463l-3.61,1.293C0.76,19.714,0,20.8,0,22.012V23.5C0,23.776,0.224,24,0.5,24h15
					c0.276,0,0.5-0.224,0.5-0.5v-1.488C16,20.8,15.241,19.714,14.11,19.309z"/>
			</g>
		</g>
	</g>
	<g id="New_icons">
	</g>
</g>
<g id="Invisible_Shape">
	<rect fill="none" width="24" height="24"/>
</g>
</svg>
