<?xml version="1.0" encoding="utf-8"?>
<!-- Generator: Adobe Illustrator 19.2.1, SVG Export Plug-In . SVG Version: 6.00 Build 0)  -->
<svg version="1.1" xmlns="http://www.w3.org/2000/svg" xmlns:xlink="http://www.w3.org/1999/xlink" x="0px" y="0px" width="24px"
	 height="24px" viewBox="0 0 24 24" enable-background="new 0 0 24 24" xml:space="preserve">
<g id="Filled_Icons_1_">
	<g id="Filled_Icons">
		<g>
			<path d="M17,0c-3.755,0-6.811,2.748-6.983,6.194c2.44,0.62,3.416,2.488,2.675,4.829c0.136,0.233,0.221,0.504,0.279,0.786
				c0.612,0.401,1.294,0.715,2.029,0.918V15.5c0,0.445,0.54,0.667,0.854,0.354l3.12-3.12C21.878,11.941,24,9.453,24,6.5
				C24,2.91,20.866,0,17,0z M15,7h-1V6h1V7z M18,7h-1V6h1V7z M21,7h-1V6h1V7z"/>
			<path d="M10.5,17.662v-1.381v-0.016c0.648-0.547,0.875-1.575,0.912-2.419c0.433-0.291,0.632-0.935,0.632-1.46
				c0-0.43-0.146-0.914-0.486-1.175c0.314-0.748,0.484-1.55,0.288-2.333C11.56,7.737,10.206,7,8.395,7
				c-1.189,0-2.74,0.401-3.289,1.455C4.703,8.436,4.27,8.571,4.047,8.91C4.046,8.912,4.043,8.914,4.042,8.916
				C4.04,8.919,4.039,8.923,4.037,8.926c-0.395,0.629,0.005,1.595,0.309,2.275C3.947,11.477,3.75,12.012,3.75,12.5
				c0,0.569,0.264,1.163,0.761,1.394c0.047,0.864,0.301,1.859,0.989,2.386v0.019v1.364C4.497,18.071,0,19.925,0,21v2.5
				C0,23.776,0.224,24,0.5,24h15c0.277,0,0.5-0.224,0.5-0.5V21C16,19.923,11.497,18.068,10.5,17.662z"/>
		</g>
	</g>
	<g id="New_icons">
	</g>
</g>
<g id="Invisible_Shape">
	<rect fill="none" width="24" height="24"/>
</g>
</svg>
