<?xml version="1.0" encoding="utf-8"?>
<!-- Generator: Adobe Illustrator 19.2.1, SVG Export Plug-In . SVG Version: 6.00 Build 0)  -->
<svg version="1.1" xmlns="http://www.w3.org/2000/svg" xmlns:xlink="http://www.w3.org/1999/xlink" x="0px" y="0px" width="24px"
	 height="24px" viewBox="0 0 24 24" enable-background="new 0 0 24 24" xml:space="preserve">
<g id="Filled_Icons_1_">
	<g id="Filled_Icons">
	</g>
	<g id="New_icons">
		<g>
			<path d="M23.5,0h-15C8.224,0,8,0.224,8,0.5v10C8,10.776,8.224,11,8.5,11h3v3c0,0.445,0.54,0.667,0.854,0.354L15.707,11H23.5
				c0.276,0,0.5-0.224,0.5-0.5v-10C24,0.224,23.776,0,23.5,0z M19.829,4.874l-1.543,1.37l0.779,2.08
				c0.077,0.206,0.011,0.439-0.164,0.572c-0.172,0.134-0.414,0.139-0.595,0.011l-1.81-1.292l-1.81,1.292
				c-0.179,0.126-0.421,0.124-0.595-0.011c-0.175-0.134-0.241-0.366-0.164-0.572l0.779-2.08l-1.543-1.37
				c-0.155-0.138-0.209-0.357-0.135-0.552C13.103,4.128,13.289,4,13.497,4h1.777l0.771-1.706C16.126,2.115,16.304,2,16.5,2
				c0,0,0,0,0.001,0c0.197,0,0.375,0.116,0.456,0.296L17.72,4h1.776c0.208,0,0.394,0.128,0.467,0.322
				C20.038,4.517,19.984,4.736,19.829,4.874z"/>
			<g>
				<path d="M5.5,14h-5C0.224,14,0,14.224,0,14.5V17c0,1.083,0.336,1.729,1,1.932V23.5C1,23.776,1.224,24,1.5,24h3
					C4.776,24,5,23.776,5,23.5v-4.568c0.663-0.202,0.998-0.85,1-1.932v-2.5C6,14.224,5.776,14,5.5,14z"/>
				<circle cx="3" cy="11" r="2"/>
			</g>
		</g>
	</g>
</g>
<g id="Invisible_Shape">
	<rect fill="none" width="24" height="24"/>
</g>
</svg>
