<?xml version="1.0" encoding="utf-8"?>
<!-- Generator: Adobe Illustrator 19.2.1, SVG Export Plug-In . SVG Version: 6.00 Build 0)  -->
<svg version="1.1" xmlns="http://www.w3.org/2000/svg" xmlns:xlink="http://www.w3.org/1999/xlink" x="0px" y="0px" width="24px"
	 height="24px" viewBox="0 0 24 24" enable-background="new 0 0 24 24" xml:space="preserve">
<g id="Filled_Icons_1_">
	<g id="Filled_Icons">
		<g>
			<circle cx="13.494" cy="16.5" r="1"/>
			<circle cx="17.25" cy="15.25" r="1.75"/>
			<path d="M12.703,11.05c0.176-0.002,0.348,0.011,0.528-0.006c0.594,0.906,1.622,1.456,2.763,1.456c1.015,0,2.03-0.558,2.758-1.504
				C22.064,10.883,24,8.556,24,5.701C24,2.938,22.035,0,18.394,0c-1.358,0-2.48,0.447-3.504,1.402
				c-3.23-1.34-6.923,1.086-6.861,4.611C11.354,5.856,13.737,7.777,12.703,11.05z M13.494,7c-0.552,0-1-0.448-1-1
				c0-0.553,0.448-1,1-1c0.552,0,1,0.447,1,1C14.494,6.552,14.046,7,13.494,7z M16.494,7c-0.552,0-1-0.448-1-1c0-0.553,0.448-1,1-1
				c0.552,0,1,0.447,1,1C17.494,6.552,17.046,7,16.494,7z M19.494,7c-0.552,0-1-0.448-1-1c0-0.553,0.448-1,1-1c0.552,0,1,0.447,1,1
				C20.494,6.552,20.046,7,19.494,7z"/>
			<path d="M10.5,17.662v-1.381v-0.016c0.648-0.547,0.875-1.575,0.912-2.419c0.433-0.291,0.632-0.935,0.632-1.46
				c0-0.43-0.146-0.914-0.486-1.175c0.314-0.748,0.484-1.55,0.288-2.333C11.56,7.737,10.206,7,8.395,7
				c-1.189,0-2.74,0.401-3.289,1.455C4.703,8.436,4.27,8.571,4.047,8.91C4.046,8.912,4.043,8.914,4.042,8.916
				C4.04,8.919,4.039,8.923,4.037,8.926c-0.395,0.629,0.005,1.595,0.309,2.275C3.947,11.477,3.75,12.012,3.75,12.5
				c0,0.569,0.264,1.163,0.761,1.394c0.047,0.864,0.301,1.859,0.989,2.386v0.019v1.364C4.497,18.071,0,19.925,0,21v2.5
				C0,23.776,0.224,24,0.5,24h15c0.277,0,0.5-0.224,0.5-0.5V21C16,19.923,11.497,18.068,10.5,17.662z"/>
		</g>
	</g>
	<g id="New_icons">
	</g>
</g>
<g id="Invisible_Shape">
	<rect fill="none" width="24" height="24"/>
</g>
</svg>
