<?xml version="1.0" encoding="utf-8"?>
<!-- Generator: Adobe Illustrator 19.2.1, SVG Export Plug-In . SVG Version: 6.00 Build 0)  -->
<svg version="1.1" xmlns="http://www.w3.org/2000/svg" xmlns:xlink="http://www.w3.org/1999/xlink" x="0px" y="0px" width="24px"
	 height="24px" viewBox="0 0 24 24" enable-background="new 0 0 24 24" xml:space="preserve">
<g id="Filled_Icons_1_">
	<g id="Filled_Icons">
	</g>
	<g id="New_icons">
		<g>
			<path d="M16,0c-4.411,0-8,2.916-8,6.5c0,3.282,3.038,6.041,7,6.443V16c0,0.445,0.54,0.667,0.854,0.354l4.306-4.307
				C22.566,10.856,24,8.788,24,6.5C24,2.916,20.411,0,16,0z M17.5,9h-5C12.224,9,12,8.776,12,8.5S12.224,8,12.5,8h5
				C17.776,8,18,8.224,18,8.5S17.776,9,17.5,9z M19.5,7h-7C12.224,7,12,6.776,12,6.5S12.224,6,12.5,6h7C19.776,6,20,6.224,20,6.5
				S19.776,7,19.5,7z M19.5,5h-7C12.224,5,12,4.776,12,4.5S12.224,4,12.5,4h7C19.776,4,20,4.224,20,4.5S19.776,5,19.5,5z"/>
			<g>
				<path d="M5.5,14h-5C0.224,14,0,14.224,0,14.5V17c0,1.083,0.336,1.729,1,1.932V23.5C1,23.776,1.224,24,1.5,24h3
					C4.776,24,5,23.776,5,23.5v-4.568c0.663-0.202,0.998-0.85,1-1.932v-2.5C6,14.224,5.776,14,5.5,14z"/>
				<circle cx="3" cy="11" r="2"/>
			</g>
		</g>
	</g>
</g>
<g id="Invisible_Shape">
	<rect fill="none" width="24" height="24"/>
</g>
</svg>
