<?xml version="1.0" encoding="utf-8"?>
<!-- Generator: Adobe Illustrator 19.2.1, SVG Export Plug-In . SVG Version: 6.00 Build 0)  -->
<svg version="1.1" xmlns="http://www.w3.org/2000/svg" xmlns:xlink="http://www.w3.org/1999/xlink" x="0px" y="0px" width="24px"
	 height="24px" viewBox="0 0 24 24" enable-background="new 0 0 24 24" xml:space="preserve">
<g id="Filled_Icons_1_">
	<g id="Filled_Icons">
	</g>
	<g id="New_icons">
		<g>
			<path d="M23.5,0h-15C8.224,0,8,0.224,8,0.5v10C8,10.776,8.224,11,8.5,11H11v3c0,0.445,0.54,0.667,0.854,0.354L15.207,11H23.5
				c0.276,0,0.5-0.224,0.5-0.5v-10C24,0.224,23.776,0,23.5,0z M16,3c0-0.276,0.224-0.5,0.5-0.5S17,2.724,17,3v3
				c0,0.276-0.224,0.5-0.5,0.5S16,6.276,16,6V3z M16.5,8.592c-0.302,0-0.545-0.245-0.545-0.546c0-0.301,0.243-0.546,0.545-0.546
				c0.301,0,0.545,0.245,0.545,0.546C17.045,8.347,16.801,8.592,16.5,8.592z"/>
			<g>
				<path d="M5.5,14h-5C0.224,14,0,14.224,0,14.5V17c0,1.083,0.336,1.729,1,1.932V23.5C1,23.776,1.224,24,1.5,24h3
					C4.776,24,5,23.776,5,23.5v-4.568c0.663-0.202,0.998-0.85,1-1.932v-2.5C6,14.224,5.776,14,5.5,14z"/>
				<circle cx="3" cy="11" r="2"/>
			</g>
		</g>
	</g>
</g>
<g id="Invisible_Shape">
	<rect fill="none" width="24" height="24"/>
</g>
</svg>
