<?xml version="1.0" encoding="utf-8"?>
<!-- Generator: Adobe Illustrator 19.2.1, SVG Export Plug-In . SVG Version: 6.00 Build 0)  -->
<svg version="1.1" xmlns="http://www.w3.org/2000/svg" xmlns:xlink="http://www.w3.org/1999/xlink" x="0px" y="0px" width="24px"
	 height="24px" viewBox="0 0 24 24" enable-background="new 0 0 24 24" xml:space="preserve">
<g id="Filled_Icons_1_">
	<g id="Filled_Icons">
	</g>
	<g id="New_icons">
		<g>
			<path d="M23.5,0h-15C8.224,0,8,0.224,8,0.5v12C8,12.776,8.224,13,8.5,13H11v3c0,0.446,0.541,0.666,0.854,0.354L15.207,13H23.5
				c0.276,0,0.5-0.224,0.5-0.5v-12C24,0.224,23.776,0,23.5,0z M16.294,11.102c-0.176,0.128-0.412,0.128-0.588,0
				C15.224,10.751,11,7.604,11,5c0-1.868,1.387-2.984,2.728-2.984c0.772,0,1.674,0.38,2.272,1.367
				c0.598-0.987,1.5-1.367,2.272-1.367C19.613,2.016,21,3.132,21,5C21,7.604,16.776,10.751,16.294,11.102z"/>
			<g>
				<path d="M5.5,14h-5C0.224,14,0,14.224,0,14.5V17c0,1.083,0.336,1.729,1,1.932V23.5C1,23.776,1.224,24,1.5,24h3
					C4.776,24,5,23.776,5,23.5v-4.568c0.663-0.202,0.998-0.85,1-1.932v-2.5C6,14.224,5.776,14,5.5,14z"/>
				<circle cx="3" cy="11" r="2"/>
			</g>
		</g>
	</g>
</g>
<g id="Invisible_Shape">
	<rect fill="none" width="24" height="24"/>
</g>
</svg>
