<?xml version="1.0" encoding="utf-8"?>
<!-- Generator: Adobe Illustrator 19.2.1, SVG Export Plug-In . SVG Version: 6.00 Build 0)  -->
<svg version="1.1" xmlns="http://www.w3.org/2000/svg" xmlns:xlink="http://www.w3.org/1999/xlink" x="0px" y="0px" width="24px"
	 height="24px" viewBox="0 0 24 24" enable-background="new 0 0 24 24" xml:space="preserve">
<g id="Filled_Icons_1_">
	<g id="Filled_Icons">
	</g>
	<g id="New_icons">
		<g>
			<circle cx="11.109" cy="12.892" r="1.478"/>
			<path d="M14.211,2.464C11.422,0.938,8,3.007,8,6.261c0,2.333,1.833,4.239,4.108,4.302c1.417,1.823,3.987,2.163,5.812,0.798
				C21.238,11.906,24,9.472,24,5.717C24,0.095,17.219-2.126,14.211,2.464z M12.739,7.5c-0.456,0-0.826-0.371-0.826-0.826
				s0.371-0.825,0.826-0.825c0.456,0,0.826,0.37,0.826,0.825S13.195,7.5,12.739,7.5z M16,7.522c-0.456,0-0.826-0.371-0.826-0.826
				S15.544,5.87,16,5.87c0.456,0,0.826,0.37,0.826,0.825S16.456,7.522,16,7.522z M19.261,7.522c-0.455,0-0.826-0.371-0.826-0.826
				s0.371-0.825,0.826-0.825c0.456,0,0.826,0.37,0.826,0.825S19.716,7.522,19.261,7.522z"/>
			<circle cx="8.826" cy="15.174" r="0.826"/>
			<path d="M5.5,14h-5C0.224,14,0,14.224,0,14.5V17c0,1.083,0.336,1.729,1,1.932V23.5C1,23.776,1.224,24,1.5,24h3
				C4.776,24,5,23.776,5,23.5v-4.568c0.663-0.202,0.998-0.85,1-1.932v-2.5C6,14.224,5.776,14,5.5,14z"/>
			<circle cx="3" cy="11" r="2"/>
		</g>
	</g>
</g>
<g id="Invisible_Shape">
	<rect fill="none" width="24" height="24"/>
</g>
</svg>
