<?xml version="1.0" encoding="utf-8"?>
<!-- Generator: Adobe Illustrator 19.2.1, SVG Export Plug-In . SVG Version: 6.00 Build 0)  -->
<svg version="1.1" xmlns="http://www.w3.org/2000/svg" xmlns:xlink="http://www.w3.org/1999/xlink" x="0px" y="0px" width="24px"
	 height="24px" viewBox="0 0 24 24" enable-background="new 0 0 24 24" xml:space="preserve">
<g id="Filled_Icons_1_">
	<g id="Filled_Icons">
	</g>
	<g id="New_icons">
		<g>
			<g>
				<path d="M23.5,0h-16C7.224,0,7,0.224,7,0.5v11C7,11.776,7.224,12,7.5,12H11v3c0,0.445,0.54,0.667,0.854,0.354L15.207,12H23.5
					c0.276,0,0.5-0.224,0.5-0.5v-11C24,0.224,23.776,0,23.5,0z M15.5,10c-2.206,0-4-1.794-4-4s1.794-4,4-4s4,1.794,4,4
					S17.706,10,15.5,10z"/>
				<g>
					<path d="M16.146,7.353l-1-1C15.053,6.26,15,6.133,15,6V4c0-0.276,0.224-0.5,0.5-0.5S16,3.724,16,4v1.793l0.854,0.853
						c0.195,0.195,0.195,0.512,0,0.707C16.658,7.549,16.342,7.549,16.146,7.353z"/>
				</g>
			</g>
			<g>
				<path d="M5.5,14h-5C0.224,14,0,14.224,0,14.5V17c0,1.083,0.336,1.729,1,1.932V23.5C1,23.776,1.224,24,1.5,24h3
					C4.776,24,5,23.776,5,23.5v-4.568c0.663-0.202,0.998-0.85,1-1.932v-2.5C6,14.224,5.776,14,5.5,14z"/>
				<circle cx="3" cy="11" r="2"/>
			</g>
		</g>
	</g>
</g>
<g id="Invisible_Shape">
	<rect fill="none" width="24" height="24"/>
</g>
</svg>
