<?xml version="1.0" encoding="utf-8"?>
<!-- Generator: Adobe Illustrator 19.2.1, SVG Export Plug-In . SVG Version: 6.00 Build 0)  -->
<svg version="1.1" xmlns="http://www.w3.org/2000/svg" xmlns:xlink="http://www.w3.org/1999/xlink" x="0px" y="0px" width="24px"
	 height="24px" viewBox="0 0 24 24" enable-background="new 0 0 24 24" xml:space="preserve">
<g id="Filled_Icons_1_">
	<g id="Filled_Icons">
	</g>
	<g id="New_icons">
		<g>
			<path d="M23.5,0h-15C8.224,0,8,0.224,8,0.5v10C8,10.776,8.224,11,8.5,11H11v3c0,0.445,0.541,0.666,0.854,0.354L15.207,11H23.5
				c0.276,0,0.5-0.224,0.5-0.5v-10C24,0.224,23.776,0,23.5,0z M16.5,5.091c0.915,0,1.659,0.744,1.659,1.659
				c0,0.74-0.489,1.36-1.159,1.574v0.357c0,0.276-0.224,0.5-0.5,0.5S16,8.958,16,8.682V8.324C15.33,8.11,14.841,7.49,14.841,6.75
				c0-0.276,0.224-0.5,0.5-0.5c0.276,0,0.5,0.224,0.5,0.5c0,0.363,0.296,0.659,0.659,0.659s0.659-0.296,0.659-0.659
				S16.863,6.091,16.5,6.091c-0.915,0-1.659-0.744-1.659-1.659c0-0.74,0.489-1.36,1.159-1.574V2.5C16,2.224,16.224,2,16.5,2
				S17,2.224,17,2.5v0.357c0.67,0.214,1.159,0.834,1.159,1.574c0,0.276-0.224,0.5-0.5,0.5c-0.276,0-0.5-0.224-0.5-0.5
				c0-0.363-0.296-0.659-0.659-0.659s-0.659,0.296-0.659,0.659C15.841,4.795,16.137,5.091,16.5,5.091z"/>
			<g>
				<path d="M5.5,14h-5C0.224,14,0,14.224,0,14.5V17c0,1.083,0.336,1.729,1,1.932V23.5C1,23.776,1.224,24,1.5,24h3
					C4.776,24,5,23.776,5,23.5v-4.568c0.663-0.202,0.998-0.85,1-1.932v-2.5C6,14.224,5.776,14,5.5,14z"/>
				<circle cx="3" cy="11" r="2"/>
			</g>
		</g>
	</g>
</g>
<g id="Invisible_Shape">
	<rect fill="none" width="24" height="24"/>
</g>
</svg>
