<?xml version="1.0" encoding="utf-8"?>
<!-- Generator: Adobe Illustrator 16.0.3, SVG Export Plug-In . SVG Version: 6.00 Build 0)  -->
<!DOCTYPE svg PUBLIC "-//W3C//DTD SVG 1.1//EN" "http://www.w3.org/Graphics/SVG/1.1/DTD/svg11.dtd">
<svg version="1.1" xmlns="http://www.w3.org/2000/svg" xmlns:xlink="http://www.w3.org/1999/xlink" x="0px" y="0px" width="24px"
	 height="24px" viewBox="0 0 24 24" enable-background="new 0 0 24 24" xml:space="preserve">
<g id="Outline_Icons">
	<g>
		
			<line fill="none" stroke="#000000" stroke-linecap="round" stroke-linejoin="round" stroke-miterlimit="10" x1="6.155" y1="13.879" x2="10.004" y2="9.951"/>
		
			<line fill="none" stroke="#000000" stroke-linecap="round" stroke-linejoin="round" stroke-miterlimit="10" x1="7.584" y1="15.277" x2="11.446" y2="11.36"/>
		
			<line fill="none" stroke="#000000" stroke-linecap="round" stroke-linejoin="round" stroke-miterlimit="10" x1="4.725" y1="12.48" x2="8.585" y2="8.563"/>
		
			<line fill="none" stroke="#000000" stroke-linecap="round" stroke-linejoin="round" stroke-miterlimit="10" x1="3.295" y1="11.082" x2="7.141" y2="7.15"/>
		
			<line fill="none" stroke="#000000" stroke-linecap="round" stroke-linejoin="round" stroke-miterlimit="10" x1="9.014" y1="16.676" x2="12.851" y2="12.735"/>
		<path fill="none" stroke="#000000" stroke-linecap="round" stroke-linejoin="round" stroke-miterlimit="10" d="M22.479,19.356
			c-0.773,0.79-2.038,0.804-2.828,0.031l-3.574-3.496l-0.707,0.007l-3.146,3.217c-0.387,0.396-1.02,0.402-1.415,0.016
			c-0.395-0.386-0.401-1.02-0.015-1.414L13.94,14.5l-0.008-0.707L6.069,6.102L5.362,6.108L2.215,9.325
			c-0.387,0.396-1.02,0.402-1.414,0.016C0.406,8.955,0.399,8.322,0.786,7.927l3.846-3.932c1.352-1.382,3.567-1.405,4.95-0.054
			l12.867,12.586C23.238,17.301,23.251,18.566,22.479,19.356z"/>
	</g>
</g>
<g id="invisible_shape">
	<rect fill="none" width="24" height="24"/>
</g>
</svg>
