<?xml version="1.0" encoding="utf-8"?>
<!-- Generator: Adobe Illustrator 16.0.3, SVG Export Plug-In . SVG Version: 6.00 Build 0)  -->
<!DOCTYPE svg PUBLIC "-//W3C//DTD SVG 1.1//EN" "http://www.w3.org/Graphics/SVG/1.1/DTD/svg11.dtd">
<svg version="1.1" xmlns="http://www.w3.org/2000/svg" xmlns:xlink="http://www.w3.org/1999/xlink" x="0px" y="0px" width="24px"
	 height="24px" viewBox="0 0 24 24" enable-background="new 0 0 24 24" xml:space="preserve">
<g id="Outline_Icons">
	<g>
		<path fill="none" stroke="#000000" stroke-linejoin="round" stroke-miterlimit="10" d="M23.5,19.5c0,1.104-0.896,2-2,2h-19
			c-1.104,0-2-0.896-2-2v-6h23V19.5z"/>
		<path fill="none" stroke="#000000" stroke-linejoin="round" stroke-miterlimit="10" d="M21.5,12.5c0-1.105-0.896-2-2-2h-15
			c-1.104,0-2,0.895-2,2v1h19V12.5z"/>
		<rect x="4.5" y="15.5" fill="none" stroke="#000000" stroke-linejoin="round" stroke-miterlimit="10" width="15" height="4"/>
		<path fill="none" stroke="#000000" stroke-linejoin="round" stroke-miterlimit="10" d="M5,10.5c0,0,0-5.5,7-5.5c4,0,5-2,6-3.626
			C20,5,20,8,18,10.5C14,10.5,5,10.5,5,10.5z"/>
	</g>
</g>
<g id="invisible_shape">
	<rect fill="none" width="24" height="24"/>
</g>
</svg>
