<?xml version="1.0" encoding="utf-8"?>
<!-- Generator: Adobe Illustrator 16.0.3, SVG Export Plug-In . SVG Version: 6.00 Build 0)  -->
<!DOCTYPE svg PUBLIC "-//W3C//DTD SVG 1.1//EN" "http://www.w3.org/Graphics/SVG/1.1/DTD/svg11.dtd">
<svg version="1.1" xmlns="http://www.w3.org/2000/svg" xmlns:xlink="http://www.w3.org/1999/xlink" x="0px" y="0px" width="24px"
	 height="24px" viewBox="0 0 24 24" enable-background="new 0 0 24 24" xml:space="preserve">
<g id="Outline_Icons">
	<g>
		<path fill="none" stroke="#000000" stroke-linecap="round" stroke-linejoin="round" stroke-miterlimit="10" d="M11.5,21.5
			c-3.866,0-7-3.134-7-7H16"/>
		<path fill="none" stroke="#000000" stroke-linecap="round" stroke-linejoin="round" stroke-miterlimit="10" d="M10,1.5
			c1.813,1.334,1.712,3.922,1,5c-0.489-0.401-0.925-0.839-1-1.5C8.331,5.661,7.5,6.969,7.5,8.5c0,2.209,1.791,4,4,4s4-1.791,4-4
			C15.5,5.272,13.176,2.229,10,1.5z"/>
		<path fill="none" stroke="#000000" stroke-linecap="round" stroke-linejoin="round" stroke-miterlimit="10" d="M22.787,17.751
			c-0.521-0.857-1.829-1.019-2.749-0.215c0.37-1.263-0.479-2.445-1.552-2.445c-1.075,0-1.907,1.178-1.559,2.42
			c-0.926-0.785-2.208-0.595-2.715,0.24c-0.661,1.091,0.285,2.598,1.705,2.662c-0.969,0.743-1.047,1.991-0.377,2.662
			c0.857,0.856,2.488,0.411,2.959-0.928c0.472,1.34,2.102,1.784,2.959,0.928c0.67-0.671,0.592-1.919-0.377-2.662
			C22.499,20.349,23.449,18.844,22.787,17.751z"/>
		
			<circle fill="none" stroke="#000000" stroke-linecap="round" stroke-linejoin="round" stroke-miterlimit="10" cx="18.5" cy="19.534" r="1.488"/>
	</g>
</g>
<g id="invisible_shape">
	<rect fill="none" width="24" height="24"/>
</g>
</svg>
