<?xml version="1.0" encoding="utf-8"?>
<!-- Generator: Adobe Illustrator 16.0.3, SVG Export Plug-In . SVG Version: 6.00 Build 0)  -->
<!DOCTYPE svg PUBLIC "-//W3C//DTD SVG 1.1//EN" "http://www.w3.org/Graphics/SVG/1.1/DTD/svg11.dtd">
<svg version="1.1" xmlns="http://www.w3.org/2000/svg" xmlns:xlink="http://www.w3.org/1999/xlink" x="0px" y="0px" width="24px"
	 height="24px" viewBox="0 0 24 24" enable-background="new 0 0 24 24" xml:space="preserve">
<g id="Outline_Icons">
	<g>
		<path fill="none" stroke="#000000" stroke-linejoin="round" stroke-miterlimit="10" d="M16.5,19.5l-2,2h-5l-2-2h-7v1
			c0,2.209,1.791,3,4,3h15c2.209,0,4-0.791,4-3v-1H16.5z"/>
		<path fill="none" stroke="#000000" stroke-linejoin="round" stroke-miterlimit="10" d="M3.286,19.504
			C1.548,17.489,0.5,14.868,0.5,12C0.5,5.648,5.648,0.5,12,0.5c6.352,0,11.5,5.148,11.5,11.5c0,2.865-1.048,5.486-2.782,7.5"/>
		<path fill="none" stroke="#000000" stroke-linejoin="round" stroke-miterlimit="10" d="M6.923,19.433C4.555,17.812,3,15.087,3,12
			c0-4.971,4.029-9,9-9c4.971,0,9,4.029,9,9c0,3.106-1.574,5.846-3.968,7.463"/>
	</g>
</g>
<g id="invisible_shape">
	<rect fill="none" width="24" height="24"/>
</g>
</svg>
