<?xml version="1.0" encoding="utf-8"?>
<!-- Generator: Adobe Illustrator 16.0.3, SVG Export Plug-In . SVG Version: 6.00 Build 0)  -->
<!DOCTYPE svg PUBLIC "-//W3C//DTD SVG 1.1//EN" "http://www.w3.org/Graphics/SVG/1.1/DTD/svg11.dtd">
<svg version="1.1" xmlns="http://www.w3.org/2000/svg" xmlns:xlink="http://www.w3.org/1999/xlink" x="0px" y="0px" width="24px"
	 height="24px" viewBox="0 0 24 24" enable-background="new 0 0 24 24" xml:space="preserve">
<g id="Outline_Icons">
	<g>
		<path fill="none" stroke="#000000" stroke-linejoin="round" stroke-miterlimit="10" d="M23.5,21.5c0,1.104-0.896,2-2,2h-19
			c-1.104,0-2-0.896-2-2v-19c0-1.105,0.896-2,2-2h19c1.104,0,2,0.895,2,2V21.5z"/>
		<path fill="none" stroke="#000000" stroke-linejoin="round" stroke-miterlimit="10" d="M21.5,6.666
			c0,0.461-0.373,0.834-0.833,0.834h-3.334c-0.46,0-0.833-0.373-0.833-0.834V3.332c0-0.459,0.373-0.832,0.833-0.832h3.334
			c0.46,0,0.833,0.373,0.833,0.832V6.666z"/>
		<path fill="none" stroke="#000000" stroke-linejoin="round" stroke-miterlimit="10" d="M14.5,6.666
			c0,0.461-0.373,0.834-0.833,0.834h-3.334C9.873,7.5,9.5,7.127,9.5,6.666V3.332C9.5,2.873,9.873,2.5,10.333,2.5h3.334
			c0.46,0,0.833,0.373,0.833,0.832V6.666z"/>
		<path fill="none" stroke="#000000" stroke-linejoin="round" stroke-miterlimit="10" d="M21.5,13.666
			c0,0.461-0.373,0.834-0.833,0.834h-3.334c-0.46,0-0.833-0.373-0.833-0.834v-3.334c0-0.459,0.373-0.832,0.833-0.832h3.334
			c0.46,0,0.833,0.373,0.833,0.832V13.666z"/>
		<path fill="none" stroke="#000000" stroke-linejoin="round" stroke-miterlimit="10" d="M14.5,13.666
			c0,0.461-0.373,0.834-0.833,0.834h-3.334c-0.46,0-0.833-0.373-0.833-0.834v-3.334C9.5,9.873,9.873,9.5,10.333,9.5h3.334
			c0.46,0,0.833,0.373,0.833,0.832V13.666z"/>
		<path fill="none" stroke="#000000" stroke-linejoin="round" stroke-miterlimit="10" d="M21.5,20.666
			c0,0.461-0.373,0.834-0.833,0.834h-3.334c-0.46,0-0.833-0.373-0.833-0.834v-3.334c0-0.459,0.373-0.832,0.833-0.832h3.334
			c0.46,0,0.833,0.373,0.833,0.832V20.666z"/>
		<path fill="none" stroke="#000000" stroke-linejoin="round" stroke-miterlimit="10" d="M14.5,20.666
			c0,0.461-0.373,0.834-0.833,0.834h-3.334c-0.46,0-0.833-0.373-0.833-0.834v-3.334c0-0.459,0.373-0.832,0.833-0.832h3.334
			c0.46,0,0.833,0.373,0.833,0.832V20.666z"/>
		<path fill="none" stroke="#000000" stroke-linejoin="round" stroke-miterlimit="10" d="M6.5,8.5h-3V20c0,0.828,0.672,1.5,1.5,1.5
			s1.5-0.672,1.5-1.5V8.5z"/>
		<path fill="none" stroke="#000000" stroke-linejoin="round" stroke-miterlimit="10" d="M2.5,3.5c0-1.307,5-1.307,5,0l-1,5h-3
			L2.5,3.5z"/>
	</g>
</g>
<g id="invisible_shape">
	<rect fill="none" width="24" height="24"/>
</g>
</svg>
