<?xml version="1.0" encoding="utf-8"?>
<!-- Generator: Adobe Illustrator 16.0.3, SVG Export Plug-In . SVG Version: 6.00 Build 0)  -->
<!DOCTYPE svg PUBLIC "-//W3C//DTD SVG 1.1//EN" "http://www.w3.org/Graphics/SVG/1.1/DTD/svg11.dtd">
<svg version="1.1" xmlns="http://www.w3.org/2000/svg" xmlns:xlink="http://www.w3.org/1999/xlink" x="0px" y="0px" width="24px"
	 height="24px" viewBox="0 0 24 24" enable-background="new 0 0 24 24" xml:space="preserve">
<g id="Outline_Icons">
	<g>
		<path fill="none" stroke="#000000" stroke-linejoin="round" stroke-miterlimit="10" d="M14.25,4.499
			C12.533,4.59,11.5,5.875,11.5,5.875S10.467,4.59,8.75,4.499C7.042,4.41,0.57,2.89,0.5,16.874c2.786-2.068,3.989-6.187,4.125-7.562
			c2.292,0.916,4.583,0.916,6.875,0c2.291,0.916,4.583,0.916,6.875,0c0.137,1.375,1.339,5.493,4.125,7.562
			C22.43,2.89,15.958,4.41,14.25,4.499z"/>
		<path fill="none" stroke="#000000" stroke-linejoin="round" stroke-miterlimit="10" d="M10.771,12.088
			C10.834,12.031,10.916,12,11,12h1c0.084,0,0.167,0.031,0.23,0.088c0.244,0.22,0.977,0.781,1.712,0.914
			c0.181,0.033,0.278,0.201,0.278,0.386c0,2.527-1.699,7.612-2.726,7.612c-1.026,0-2.723-5.01-2.723-7.621
			c0-0.181,0.102-0.344,0.28-0.376C9.79,12.871,10.527,12.308,10.771,12.088z"/>
	</g>
</g>
<g id="invisible_shape">
	<rect fill="none" width="24" height="24"/>
</g>
</svg>
