<?xml version="1.0" encoding="utf-8"?>
<!-- Generator: Adobe Illustrator 16.0.3, SVG Export Plug-In . SVG Version: 6.00 Build 0)  -->
<!DOCTYPE svg PUBLIC "-//W3C//DTD SVG 1.1//EN" "http://www.w3.org/Graphics/SVG/1.1/DTD/svg11.dtd">
<svg version="1.1" xmlns="http://www.w3.org/2000/svg" xmlns:xlink="http://www.w3.org/1999/xlink" x="0px" y="0px" width="24px"
	 height="24px" viewBox="0 0 24 24" enable-background="new 0 0 24 24" xml:space="preserve">
<g id="Outline_Icons">
	<g>
		<path fill="none" stroke="#000000" stroke-linejoin="round" stroke-miterlimit="10" d="M14.853,10.699L14,0.5h-4L9.147,10.703
			C10.66,10.531,12.34,10.53,14.853,10.699z"/>
		<path fill="none" stroke="#000000" stroke-linejoin="round" stroke-miterlimit="10" d="M5.019,13.92
			c-0.127-0.591,0.047-1.188,0.399-1.677c1.603-2.222,11.562-2.243,13.163,0c0.352,0.491,0.527,1.086,0.4,1.677l-2.143,8
			c-0.198,0.922-1.013,1.58-1.956,1.58H9.117c-0.943,0-1.759-0.658-1.956-1.58L5.019,13.92z"/>
		<polygon fill="none" stroke="#000000" stroke-linejoin="round" stroke-miterlimit="10" points="14.5,20.5 9.5,20.5 8.5,13.5 
			15.5,13.5 		"/>
	</g>
</g>
<g id="invisible_shape">
	<rect fill="none" width="24" height="24"/>
</g>
</svg>
