<?xml version="1.0" encoding="utf-8"?>
<!-- Generator: Adobe Illustrator 16.0.3, SVG Export Plug-In . SVG Version: 6.00 Build 0)  -->
<!DOCTYPE svg PUBLIC "-//W3C//DTD SVG 1.1//EN" "http://www.w3.org/Graphics/SVG/1.1/DTD/svg11.dtd">
<svg version="1.1" xmlns="http://www.w3.org/2000/svg" xmlns:xlink="http://www.w3.org/1999/xlink" x="0px" y="0px" width="24px"
	 height="24px" viewBox="0 0 24 24" enable-background="new 0 0 24 24" xml:space="preserve">
<g id="Outline_Icons">
	<rect x="6.5" y="1.5" fill="none" stroke="#000000" stroke-linejoin="round" stroke-miterlimit="10" width="5" height="4"/>
	<line fill="none" stroke="#000000" stroke-linejoin="round" stroke-miterlimit="10" x1="11.5" y1="3.5" x2="15.5" y2="3.5"/>
	<path fill="none" stroke="#000000" stroke-linejoin="round" stroke-miterlimit="10" d="M23.5,3.5c0,1.657-2.066,3-4,3
		c-1.933,0-4-1.343-4-3c0-1.656,2.067-3,4-3C21.434,0.5,23.5,1.844,23.5,3.5z"/>
	<polyline fill="none" stroke="#000000" stroke-linejoin="round" stroke-miterlimit="10" points="12.745,19.5 13.5,19.5 16.5,23.5 
		1.5,23.5 4.5,19.5 5.256,19.5 	"/>
	<circle fill="none" stroke="#000000" stroke-linejoin="round" stroke-miterlimit="10" cx="9" cy="12.985" r="7.5"/>
	
		<line fill="none" stroke="#000000" stroke-linecap="round" stroke-linejoin="round" stroke-miterlimit="10" x1="4.5" y1="3.5" x2="4" y2="3.5"/>
	
		<line fill="none" stroke="#000000" stroke-linecap="round" stroke-linejoin="round" stroke-miterlimit="10" x1="2" y1="3.5" x2="1.5" y2="3.5"/>
	
		<line fill="none" stroke="#000000" stroke-linecap="round" stroke-linejoin="round" stroke-miterlimit="10" x1="6.5" y1="3.5" x2="8" y2="3.5"/>
	<line fill="none" stroke="#000000" stroke-linejoin="round" stroke-miterlimit="10" x1="19.5" y1="0.5" x2="19.5" y2="6.5"/>
</g>
<g id="invisible_shape">
	<rect fill="none" width="24" height="24"/>
</g>
</svg>
