<?xml version="1.0" encoding="utf-8"?>
<!-- Generator: Adobe Illustrator 16.0.3, SVG Export Plug-In . SVG Version: 6.00 Build 0)  -->
<!DOCTYPE svg PUBLIC "-//W3C//DTD SVG 1.1//EN" "http://www.w3.org/Graphics/SVG/1.1/DTD/svg11.dtd">
<svg version="1.1" xmlns="http://www.w3.org/2000/svg" xmlns:xlink="http://www.w3.org/1999/xlink" x="0px" y="0px" width="24px"
	 height="24px" viewBox="0 0 24 24" enable-background="new 0 0 24 24" xml:space="preserve">
<g id="Outline_Icons">
	<g>
		<path fill="none" stroke="#000000" stroke-linecap="round" stroke-linejoin="round" stroke-miterlimit="10" d="M21.287,17.751
			c-0.517-0.851-1.825-1.021-2.749-0.215c0.365-1.247-0.466-2.444-1.552-2.444c-1.08,0-1.907,1.184-1.559,2.419
			c-0.92-0.78-2.205-0.6-2.715,0.24c-0.66,1.09,0.282,2.598,1.705,2.662c-0.969,0.743-1.047,1.991-0.377,2.662
			c0.859,0.859,2.488,0.409,2.959-0.928c0.472,1.339,2.102,1.785,2.959,0.928c0.67-0.671,0.592-1.919-0.377-2.662
			C21,20.349,21.949,18.844,21.287,17.751z"/>
		
			<circle fill="none" stroke="#000000" stroke-linecap="round" stroke-linejoin="round" stroke-miterlimit="10" cx="17" cy="19.534" r="1.488"/>
		<path fill="none" stroke="#000000" stroke-linecap="round" stroke-linejoin="round" stroke-miterlimit="10" d="M14.5,14l0-4.497
			c0-0.553-0.447-1-1-1h-8c-0.553,0-1,0.447-1,1v13c0,0.553,0.447,1,1,1H12"/>
		<path fill="none" stroke="#000000" stroke-linecap="round" stroke-linejoin="round" stroke-miterlimit="10" d="M8.42,0.586
			c1.306,0.961,1.232,2.823,0.721,3.599C8.788,3.896,8.475,3.581,8.42,3.105C7.219,3.581,6.621,4.521,6.621,5.624
			c0,1.59,1.289,2.879,2.879,2.879s2.879-1.289,2.879-2.879C12.379,3.302,10.706,1.111,8.42,0.586z"/>
		<path fill="none" stroke="#000000" stroke-linecap="round" stroke-linejoin="round" stroke-miterlimit="10" d="M4.5,10.515h2
			v0.488c0,0.55,0.45,1,1,1s1-0.45,1-1v-0.5h2v2c0,0.55,0.45,1,1,1s1-0.45,1-1v-2h2"/>
	</g>
</g>
<g id="invisible_shape">
	<rect fill="none" width="24" height="24"/>
</g>
</svg>
