<?xml version="1.0" encoding="utf-8"?>
<!-- Generator: Adobe Illustrator 16.0.3, SVG Export Plug-In . SVG Version: 6.00 Build 0)  -->
<!DOCTYPE svg PUBLIC "-//W3C//DTD SVG 1.1//EN" "http://www.w3.org/Graphics/SVG/1.1/DTD/svg11.dtd">
<svg version="1.1" xmlns="http://www.w3.org/2000/svg" xmlns:xlink="http://www.w3.org/1999/xlink" x="0px" y="0px" width="24px"
	 height="24px" viewBox="0 0 24 24" enable-background="new 0 0 24 24" xml:space="preserve">
<g id="Outline_Icons">
	<g>
		<path fill="none" stroke="#000000" stroke-linecap="round" stroke-linejoin="round" stroke-miterlimit="10" d="M22.287,17.717
			c-0.54-0.89-1.874-0.989-2.749-0.215c0.368-1.256-0.474-2.444-1.552-2.444c-1.069,0-1.907,1.169-1.559,2.42
			c-0.901-0.775-2.199-0.61-2.715,0.239c-0.66,1.09,0.279,2.594,1.705,2.662c-0.952,0.717-1.058,1.981-0.377,2.662
			c0.854,0.853,2.483,0.418,2.959-0.928c0.476,1.347,2.105,1.78,2.959,0.928c0.681-0.681,0.575-1.945-0.377-2.662
			C22.012,20.311,22.944,18.802,22.287,17.717z"/>
		
			<circle fill="none" stroke="#000000" stroke-linecap="round" stroke-linejoin="round" stroke-miterlimit="10" cx="18" cy="19.5" r="1.488"/>
		<path fill="none" stroke="#000000" stroke-linecap="round" stroke-linejoin="round" stroke-miterlimit="10" d="M13,23.5H5.5
			c-1.104,0-2-0.896-2-2v-13c0-1.105,0.896-2,2-2h8c1.104,0,2,0.895,2,2V14"/>
		<polyline fill="none" stroke="#000000" stroke-linecap="round" stroke-linejoin="round" stroke-miterlimit="10" points="11.5,6.5 
			10.5,4 8.5,4 7.5,6.5 		"/>
		
			<line fill="none" stroke="#000000" stroke-linecap="round" stroke-linejoin="round" stroke-miterlimit="10" x1="9.5" y1="0.5" x2="9.5" y2="4"/>
		<polyline fill="none" stroke="#000000" stroke-linecap="round" stroke-linejoin="round" stroke-miterlimit="10" points="13,0.5 
			6,0.5 3.938,3 		"/>
	</g>
</g>
<g id="invisible_shape">
	<rect fill="none" width="24" height="24"/>
</g>
</svg>
