<?xml version="1.0" encoding="utf-8"?>
<!-- Generator: Adobe Illustrator 16.0.3, SVG Export Plug-In . SVG Version: 6.00 Build 0)  -->
<!DOCTYPE svg PUBLIC "-//W3C//DTD SVG 1.1//EN" "http://www.w3.org/Graphics/SVG/1.1/DTD/svg11.dtd">
<svg version="1.1" xmlns="http://www.w3.org/2000/svg" xmlns:xlink="http://www.w3.org/1999/xlink" x="0px" y="0px" width="24px"
	 height="24px" viewBox="0 0 24 24" enable-background="new 0 0 24 24" xml:space="preserve">
<g id="Outline_Icons">
	<g>
		<path fill="none" stroke="#000000" stroke-linejoin="round" stroke-miterlimit="10" d="M18.498,8.568
			c2.393,0.734,4.002,2.108,4.002,3.682c0,2.348-3.582,4.25-8,4.25s-8-1.902-8-4.25c0-1.573,1.608-2.947,4-3.682"/>
		<path fill="none" stroke="#000000" stroke-linecap="round" stroke-linejoin="round" stroke-miterlimit="10" d="M8.534,12.394
			c0-0.78,0.798-1.461,1.983-1.825"/>
		<ellipse fill="none" stroke="#000000" stroke-linejoin="round" stroke-miterlimit="10" cx="14.5" cy="5.75" rx="6" ry="3.75"/>
		<path fill="none" stroke="#000000" stroke-linecap="round" stroke-linejoin="round" stroke-miterlimit="10" d="M10.9,5.75
			c0-1.242,1.611-2.25,3.6-2.25"/>
		<path fill="none" stroke="#000000" stroke-linejoin="round" stroke-miterlimit="10" d="M19.221,15.663
			c1.421,0.83,2.279,1.909,2.279,3.087c0,2.624-4.253,4.75-9.5,4.75s-9.5-2.126-9.5-4.75c0-1.846,2.106-3.447,5.184-4.232"/>
		<path fill="none" stroke="#000000" stroke-linecap="round" stroke-linejoin="round" stroke-miterlimit="10" d="M4.73,18.865
			c0-1.024,1.169-1.912,2.875-2.348"/>
		<ellipse fill="none" stroke="#000000" stroke-linejoin="round" stroke-miterlimit="10" cx="14.5" cy="5.75" rx="6" ry="3.75"/>
	</g>
</g>
<g id="invisible_shape">
	<rect fill="none" width="24" height="24"/>
</g>
</svg>
