<?xml version="1.0" encoding="utf-8"?>
<!-- Generator: Adobe Illustrator 16.0.3, SVG Export Plug-In . SVG Version: 6.00 Build 0)  -->
<!DOCTYPE svg PUBLIC "-//W3C//DTD SVG 1.1//EN" "http://www.w3.org/Graphics/SVG/1.1/DTD/svg11.dtd">
<svg version="1.1" xmlns="http://www.w3.org/2000/svg" xmlns:xlink="http://www.w3.org/1999/xlink" x="0px" y="0px" width="24px"
	 height="24px" viewBox="0 0 24 24" enable-background="new 0 0 24 24" xml:space="preserve">
<g id="Outline_Icons">
	<g>
		<path fill="none" stroke="#000000" stroke-linejoin="round" stroke-miterlimit="10" d="M7.5,10.5h-4l-0.992,3.994
			C1.289,15.407,0.5,16.861,0.5,18.5c0,2.761,2.239,5,5,5c2.762,0,5-2.239,5-5c0-1.75-0.82-3.04-2-3.955L7.5,10.5z"/>
		<circle fill="none" stroke="#000000" stroke-linejoin="round" stroke-miterlimit="10" cx="5.5" cy="18.5" r="2.5"/>
		<path fill="none" stroke="#000000" stroke-linejoin="round" stroke-miterlimit="10" d="M20.5,10.5h-4l-0.992,3.994
			C14.289,15.407,13.5,16.861,13.5,18.5c0,2.761,2.239,5,5,5c2.762,0,5-2.239,5-5c0-1.75-0.82-3.04-2-3.955L20.5,10.5z"/>
		<circle fill="none" stroke="#000000" stroke-linejoin="round" stroke-miterlimit="10" cx="18.5" cy="18.5" r="2.5"/>
		<path fill="none" stroke="#000000" stroke-linejoin="round" stroke-miterlimit="10" d="M5.5,10.5V8c0-3.589,2.911-6.5,6.5-6.5
			c3.59,0,6.5,2.911,6.5,6.5v2.5"/>
	</g>
	<g>
		<path fill="none" stroke="#000000" stroke-linejoin="round" stroke-miterlimit="10" d="M7.5,10.5h-4l-0.992,3.994
			C1.289,15.407,0.5,16.861,0.5,18.5c0,2.761,2.239,5,5,5c2.762,0,5-2.239,5-5c0-1.75-0.82-3.04-2-3.955L7.5,10.5z"/>
		<circle fill="none" stroke="#000000" stroke-linejoin="round" stroke-miterlimit="10" cx="5.5" cy="18.5" r="2.5"/>
		<path fill="none" stroke="#000000" stroke-linejoin="round" stroke-miterlimit="10" d="M20.5,10.5h-4l-0.992,3.994
			C14.289,15.407,13.5,16.861,13.5,18.5c0,2.761,2.239,5,5,5c2.762,0,5-2.239,5-5c0-1.75-0.82-3.04-2-3.955L20.5,10.5z"/>
		<circle fill="none" stroke="#000000" stroke-linejoin="round" stroke-miterlimit="10" cx="18.5" cy="18.5" r="2.5"/>
		<path fill="none" stroke="#000000" stroke-linejoin="round" stroke-miterlimit="10" d="M5.5,10.5V8c0-3.589,2.911-6.5,6.5-6.5
			c3.59,0,6.5,2.911,6.5,6.5v2.5"/>
	</g>
</g>
<g id="invisible_shape">
	<rect fill="none" width="24" height="24"/>
</g>
</svg>
