<?xml version="1.0" encoding="utf-8"?>
<!-- Generator: Adobe Illustrator 16.0.3, SVG Export Plug-In . SVG Version: 6.00 Build 0)  -->
<!DOCTYPE svg PUBLIC "-//W3C//DTD SVG 1.1//EN" "http://www.w3.org/Graphics/SVG/1.1/DTD/svg11.dtd">
<svg version="1.1" xmlns="http://www.w3.org/2000/svg" xmlns:xlink="http://www.w3.org/1999/xlink" x="0px" y="0px" width="24px"
	 height="24px" viewBox="0 0 24 24" enable-background="new 0 0 24 24" xml:space="preserve">
<g id="Outline_Icons">
	<g>
		<path fill="none" stroke="#000000" stroke-linejoin="round" stroke-miterlimit="10" d="M16,5.9l-1.6-1.6L12,5.5L9.6,4.301L8,5.9
			c0,0,1.2,0.4,1.2,1.6c0,1.2-0.8,1.6-0.8,2.4c0,0.8,2.399,2.4,3.6,2.4s3.6-1.601,3.6-2.4c0-0.801-0.8-1.2-0.8-2.4
			C14.8,6.301,16,5.9,16,5.9z"/>
		<path fill="none" stroke="#000000" stroke-linejoin="round" stroke-miterlimit="10" d="M21.5,16.5c0,0.551-0.447,1-1,1h-17
			c-0.553,0-1-0.449-1-1v-1c0-0.552,0.447-1,1-1h17c0.553,0,1,0.448,1,1V16.5z"/>
		<path fill="none" stroke="#000000" stroke-linejoin="round" stroke-miterlimit="10" d="M3,17.5c0,0,3.094,5,8.984,5
			s9.047-5,9.047-5H3z"/>
		<path fill="none" stroke="#000000" stroke-linejoin="round" stroke-miterlimit="10" d="M21.5,14.5
			c0,0.042,1.984-2.484,1.984-4.984S16.062,1,12,1S0.531,7.219,0.531,9.531C0.531,11.843,2.5,14.5,2.5,14.5H21.5z"/>
		
			<line fill="none" stroke="#000000" stroke-linecap="round" stroke-linejoin="round" stroke-miterlimit="10" x1="9.2" y1="7.5" x2="14.8" y2="7.5"/>
	</g>
	<g>
		<path fill="none" stroke="#000000" stroke-linejoin="round" stroke-miterlimit="10" d="M16,5.9l-1.6-1.6L12,5.5L9.6,4.301L8,5.9
			c0,0,1.2,0.4,1.2,1.6c0,1.2-0.8,1.6-0.8,2.4c0,0.8,2.399,2.4,3.6,2.4s3.6-1.601,3.6-2.4c0-0.801-0.8-1.2-0.8-2.4
			C14.8,6.301,16,5.9,16,5.9z"/>
		<path fill="none" stroke="#000000" stroke-linejoin="round" stroke-miterlimit="10" d="M21.5,16.5c0,0.551-0.447,1-1,1h-17
			c-0.553,0-1-0.449-1-1v-1c0-0.552,0.447-1,1-1h17c0.553,0,1,0.448,1,1V16.5z"/>
		<path fill="none" stroke="#000000" stroke-linejoin="round" stroke-miterlimit="10" d="M3,17.5c0,0,3.094,5,8.984,5
			s9.047-5,9.047-5H3z"/>
		<path fill="none" stroke="#000000" stroke-linejoin="round" stroke-miterlimit="10" d="M21.5,14.5
			c0,0.042,1.984-2.484,1.984-4.984S16.062,1,12,1S0.531,7.219,0.531,9.531C0.531,11.843,2.5,14.5,2.5,14.5H21.5z"/>
		
			<line fill="none" stroke="#000000" stroke-linecap="round" stroke-linejoin="round" stroke-miterlimit="10" x1="9.2" y1="7.5" x2="14.8" y2="7.5"/>
	</g>
</g>
<g id="invisible_shape">
	<rect fill="none" width="24" height="24"/>
</g>
</svg>
