<?xml version="1.0" encoding="utf-8"?>
<!-- Generator: Adobe Illustrator 16.0.3, SVG Export Plug-In . SVG Version: 6.00 Build 0)  -->
<!DOCTYPE svg PUBLIC "-//W3C//DTD SVG 1.1//EN" "http://www.w3.org/Graphics/SVG/1.1/DTD/svg11.dtd">
<svg version="1.1" xmlns="http://www.w3.org/2000/svg" xmlns:xlink="http://www.w3.org/1999/xlink" x="0px" y="0px" width="24px"
	 height="24px" viewBox="0 0 24 24" enable-background="new 0 0 24 24" xml:space="preserve">
<g id="Outline_Icons">
	<g>
		
			<circle fill="none" stroke="#000000" stroke-linecap="round" stroke-linejoin="round" stroke-miterlimit="10" cx="11.5" cy="11.5" r="11"/>
		
			<circle fill="none" stroke="#000000" stroke-linecap="round" stroke-linejoin="round" stroke-miterlimit="10" cx="11.5" cy="11.5" r="7"/>
		<line fill="none" stroke="#000000" stroke-linejoin="round" stroke-miterlimit="10" x1="7.5" y1="5.804" x2="7.5" y2="17.244"/>
		<line fill="none" stroke="#000000" stroke-linejoin="round" stroke-miterlimit="10" x1="11.5" y1="4.5" x2="11.5" y2="18.5"/>
		<line fill="none" stroke="#000000" stroke-linejoin="round" stroke-miterlimit="10" x1="15.5" y1="5.754" x2="15.5" y2="17.244"/>
		<g>
			<path d="M11.5,2C11.224,2,11,2.224,11,2.5C11,2.777,11.224,3,11.5,3C11.775,3,12,2.777,12,2.5C12,2.224,11.775,2,11.5,2L11.5,2z"
				/>
		</g>
		<g>
			<path d="M17.894,4.648c-0.128,0-0.256,0.049-0.354,0.146c-0.195,0.197-0.195,0.513,0,0.708c0.098,0.098,0.226,0.146,0.354,0.146
				s0.256-0.049,0.354-0.146c0.195-0.195,0.195-0.511,0-0.708C18.149,4.697,18.021,4.648,17.894,4.648L17.894,4.648z"/>
		</g>
		<g>
			<path d="M20.541,11.042c-0.275,0-0.5,0.224-0.5,0.5s0.225,0.5,0.5,0.5c0.276,0,0.5-0.224,0.5-0.5S20.817,11.042,20.541,11.042
				L20.541,11.042z"/>
		</g>
		<g>
			<path d="M17.894,17.435c-0.128,0-0.256,0.049-0.354,0.147c-0.195,0.195-0.195,0.512,0,0.706c0.098,0.098,0.226,0.146,0.354,0.146
				s0.256-0.049,0.354-0.146c0.195-0.194,0.195-0.511,0-0.706C18.149,17.484,18.021,17.435,17.894,17.435L17.894,17.435z"/>
		</g>
		<g>
			<path d="M11.5,20.083c-0.276,0-0.5,0.225-0.5,0.5c0,0.276,0.224,0.5,0.5,0.5c0.275,0,0.5-0.224,0.5-0.5
				C12,20.308,11.775,20.083,11.5,20.083L11.5,20.083z"/>
		</g>
		<g>
			<path d="M5.106,17.435c-0.128,0-0.256,0.049-0.354,0.147c-0.195,0.195-0.195,0.512,0,0.706c0.098,0.098,0.226,0.146,0.354,0.146
				s0.256-0.049,0.354-0.146c0.195-0.194,0.195-0.511,0-0.706C5.362,17.484,5.234,17.435,5.106,17.435L5.106,17.435z"/>
		</g>
		<g>
			<path d="M2.458,11.042c-0.275,0-0.5,0.224-0.5,0.5s0.225,0.5,0.5,0.5c0.276,0,0.5-0.224,0.5-0.5S2.734,11.042,2.458,11.042
				L2.458,11.042z"/>
		</g>
		<g>
			<path d="M5.106,4.648c-0.128,0-0.256,0.049-0.354,0.146c-0.195,0.197-0.195,0.513,0,0.708C4.851,5.6,4.979,5.648,5.106,5.648
				S5.362,5.6,5.46,5.502c0.195-0.195,0.195-0.511,0-0.708C5.362,4.697,5.234,4.648,5.106,4.648L5.106,4.648z"/>
		</g>
	</g>
	<g>
		
			<circle fill="none" stroke="#000000" stroke-linecap="round" stroke-linejoin="round" stroke-miterlimit="10" cx="11.5" cy="11.5" r="11"/>
		
			<circle fill="none" stroke="#000000" stroke-linecap="round" stroke-linejoin="round" stroke-miterlimit="10" cx="11.5" cy="11.5" r="7"/>
		<line fill="none" stroke="#000000" stroke-linejoin="round" stroke-miterlimit="10" x1="7.5" y1="5.804" x2="7.5" y2="17.244"/>
		<line fill="none" stroke="#000000" stroke-linejoin="round" stroke-miterlimit="10" x1="11.5" y1="4.5" x2="11.5" y2="18.5"/>
		<line fill="none" stroke="#000000" stroke-linejoin="round" stroke-miterlimit="10" x1="15.5" y1="5.754" x2="15.5" y2="17.244"/>
		<g>
			<path d="M11.5,2C11.224,2,11,2.224,11,2.5C11,2.777,11.224,3,11.5,3C11.775,3,12,2.777,12,2.5C12,2.224,11.775,2,11.5,2L11.5,2z"
				/>
		</g>
		<g>
			<path d="M17.894,4.648c-0.128,0-0.256,0.049-0.354,0.146c-0.195,0.197-0.195,0.513,0,0.708c0.098,0.098,0.226,0.146,0.354,0.146
				s0.256-0.049,0.354-0.146c0.195-0.195,0.195-0.511,0-0.708C18.149,4.697,18.021,4.648,17.894,4.648L17.894,4.648z"/>
		</g>
		<g>
			<path d="M20.541,11.042c-0.275,0-0.5,0.224-0.5,0.5s0.225,0.5,0.5,0.5c0.276,0,0.5-0.224,0.5-0.5S20.817,11.042,20.541,11.042
				L20.541,11.042z"/>
		</g>
		<g>
			<path d="M17.894,17.435c-0.128,0-0.256,0.049-0.354,0.147c-0.195,0.195-0.195,0.512,0,0.706c0.098,0.098,0.226,0.146,0.354,0.146
				s0.256-0.049,0.354-0.146c0.195-0.194,0.195-0.511,0-0.706C18.149,17.484,18.021,17.435,17.894,17.435L17.894,17.435z"/>
		</g>
		<g>
			<path d="M11.5,20.083c-0.276,0-0.5,0.225-0.5,0.5c0,0.276,0.224,0.5,0.5,0.5c0.275,0,0.5-0.224,0.5-0.5
				C12,20.308,11.775,20.083,11.5,20.083L11.5,20.083z"/>
		</g>
		<g>
			<path d="M5.106,17.435c-0.128,0-0.256,0.049-0.354,0.147c-0.195,0.195-0.195,0.512,0,0.706c0.098,0.098,0.226,0.146,0.354,0.146
				s0.256-0.049,0.354-0.146c0.195-0.194,0.195-0.511,0-0.706C5.362,17.484,5.234,17.435,5.106,17.435L5.106,17.435z"/>
		</g>
		<g>
			<path d="M2.458,11.042c-0.275,0-0.5,0.224-0.5,0.5s0.225,0.5,0.5,0.5c0.276,0,0.5-0.224,0.5-0.5S2.734,11.042,2.458,11.042
				L2.458,11.042z"/>
		</g>
		<g>
			<path d="M5.106,4.648c-0.128,0-0.256,0.049-0.354,0.146c-0.195,0.197-0.195,0.513,0,0.708C4.851,5.6,4.979,5.648,5.106,5.648
				S5.362,5.6,5.46,5.502c0.195-0.195,0.195-0.511,0-0.708C5.362,4.697,5.234,4.648,5.106,4.648L5.106,4.648z"/>
		</g>
	</g>
</g>
<g id="invisible_shape">
	<rect fill="none" width="24" height="24"/>
</g>
</svg>
