<?xml version="1.0" encoding="utf-8"?>
<!-- Generator: Adobe Illustrator 16.0.3, SVG Export Plug-In . SVG Version: 6.00 Build 0)  -->
<!DOCTYPE svg PUBLIC "-//W3C//DTD SVG 1.1//EN" "http://www.w3.org/Graphics/SVG/1.1/DTD/svg11.dtd">
<svg version="1.1" xmlns="http://www.w3.org/2000/svg" xmlns:xlink="http://www.w3.org/1999/xlink" x="0px" y="0px" width="24px"
	 height="24px" viewBox="0 0 24 24" enable-background="new 0 0 24 24" xml:space="preserve">
<g id="Outline_Icons">
	<g>
		<path fill="none" stroke="#000000" stroke-linejoin="round" stroke-miterlimit="10" d="M9.73,5.536
			c2.14,1.575,2.02,4.626,1.18,5.898c-0.577-0.472-1.091-0.989-1.18-1.77c-1.969,0.781-2.949,2.323-2.949,4.13
			c0,2.606,2.112,4.719,4.719,4.719s4.719-2.113,4.719-4.719C16.219,9.987,13.478,6.396,9.73,5.536z"/>
		<path fill="none" stroke="#000000" stroke-linecap="round" stroke-linejoin="round" stroke-miterlimit="10" d="M11.508,0.5h-0.017
			C9,2.998,1.5,5.021,1.5,5.021c0,7.962,0.5,14.962,10,18.479c9.5-3.518,10-10.518,10-18.479C21.5,5.021,14,2.998,11.508,0.5z"/>
	</g>
	<g>
		<path fill="none" stroke="#000000" stroke-linejoin="round" stroke-miterlimit="10" d="M9.73,5.536
			c2.14,1.575,2.02,4.626,1.18,5.898c-0.577-0.472-1.091-0.989-1.18-1.77c-1.969,0.781-2.949,2.323-2.949,4.13
			c0,2.606,2.112,4.719,4.719,4.719s4.719-2.113,4.719-4.719C16.219,9.987,13.478,6.396,9.73,5.536z"/>
		<path fill="none" stroke="#000000" stroke-linecap="round" stroke-linejoin="round" stroke-miterlimit="10" d="M11.508,0.5h-0.017
			C9,2.998,1.5,5.021,1.5,5.021c0,7.962,0.5,14.962,10,18.479c9.5-3.518,10-10.518,10-18.479C21.5,5.021,14,2.998,11.508,0.5z"/>
	</g>
</g>
<g id="invisible_shape">
	<rect fill="none" width="24" height="24"/>
</g>
</svg>
