<?xml version="1.0" encoding="utf-8"?>
<!-- Generator: Adobe Illustrator 16.0.3, SVG Export Plug-In . SVG Version: 6.00 Build 0)  -->
<!DOCTYPE svg PUBLIC "-//W3C//DTD SVG 1.1//EN" "http://www.w3.org/Graphics/SVG/1.1/DTD/svg11.dtd">
<svg version="1.1" xmlns="http://www.w3.org/2000/svg" xmlns:xlink="http://www.w3.org/1999/xlink" x="0px" y="0px" width="24px"
	 height="24px" viewBox="0 0 24 24" enable-background="new 0 0 24 24" xml:space="preserve">
<g id="Outline_Icons">
	<g>
		<g>
			<rect x="0.5" y="0.5" fill="none" stroke="#000000" stroke-linejoin="round" stroke-miterlimit="10" width="23" height="23"/>
			<rect x="3.5" y="2.5" fill="none" stroke="#000000" stroke-linejoin="round" stroke-miterlimit="10" width="17" height="13"/>
			
				<circle fill="none" stroke="#000000" stroke-linecap="round" stroke-linejoin="round" stroke-miterlimit="10" cx="12" cy="7.56" r="3.06"/>
			<path fill="none" stroke="#000000" stroke-linecap="round" stroke-linejoin="round" stroke-miterlimit="10" d="M16.896,15.514
				h-9.79c0-2.704,2.191-4.895,4.895-4.895C14.704,10.619,16.896,12.81,16.896,15.514z"/>
		</g>
		<g>
			<g>
				<g>
					<path fill="none" stroke="#000000" stroke-linecap="round" stroke-linejoin="round" stroke-miterlimit="10" d="M5.915,20.187
						c0,0.415,0.336,0.75,0.75,0.75s0.75-0.335,0.75-0.75c0-0.412-0.336-0.75-0.75-0.75s-0.75-0.335-0.75-0.75
						c0-0.414,0.336-0.75,0.75-0.75s0.75,0.336,0.75,0.75"/>
					
						<line fill="none" stroke="#000000" stroke-linecap="round" stroke-linejoin="round" stroke-miterlimit="10" x1="6.665" y1="20.937" x2="6.665" y2="21.437"/>
					
						<line fill="none" stroke="#000000" stroke-linecap="round" stroke-linejoin="round" stroke-miterlimit="10" x1="6.665" y1="17.437" x2="6.665" y2="17.937"/>
				</g>
			</g>
			<polyline fill="none" stroke="#000000" stroke-linecap="round" stroke-linejoin="round" stroke-miterlimit="10" points="
				9.481,21.395 9.481,17.48 9.014,17.927 			"/>
			<path fill="none" stroke="#000000" stroke-linecap="round" stroke-linejoin="round" stroke-miterlimit="10" d="M12.886,19.437
				c0,1.104-0.151,2-1.021,2c-0.871,0-1.021-0.896-1.021-2c0-1.104,0.15-2,1.021-2C12.734,17.437,12.886,18.333,12.886,19.437z"/>
			<path fill="none" stroke="#000000" stroke-linecap="round" stroke-linejoin="round" stroke-miterlimit="10" d="M16.24,19.437
				c0,1.104-0.153,2-1.021,2c-0.87,0-1.021-0.896-1.021-2c0-1.104,0.151-2,1.021-2C16.087,17.437,16.24,18.333,16.24,19.437z"/>
		</g>
	</g>
	<g>
		<g>
			<rect x="0.5" y="0.5" fill="none" stroke="#000000" stroke-linejoin="round" stroke-miterlimit="10" width="23" height="23"/>
			<rect x="3.5" y="2.5" fill="none" stroke="#000000" stroke-linejoin="round" stroke-miterlimit="10" width="17" height="13"/>
			
				<circle fill="none" stroke="#000000" stroke-linecap="round" stroke-linejoin="round" stroke-miterlimit="10" cx="12" cy="7.56" r="3.06"/>
			<path fill="none" stroke="#000000" stroke-linecap="round" stroke-linejoin="round" stroke-miterlimit="10" d="M16.896,15.514
				h-9.79c0-2.704,2.191-4.895,4.895-4.895C14.704,10.619,16.896,12.81,16.896,15.514z"/>
		</g>
		<g>
			<g>
				<g>
					<path fill="none" stroke="#000000" stroke-linecap="round" stroke-linejoin="round" stroke-miterlimit="10" d="M5.915,20.187
						c0,0.415,0.336,0.75,0.75,0.75s0.75-0.335,0.75-0.75c0-0.412-0.336-0.75-0.75-0.75s-0.75-0.335-0.75-0.75
						c0-0.414,0.336-0.75,0.75-0.75s0.75,0.336,0.75,0.75"/>
					
						<line fill="none" stroke="#000000" stroke-linecap="round" stroke-linejoin="round" stroke-miterlimit="10" x1="6.665" y1="20.937" x2="6.665" y2="21.437"/>
					
						<line fill="none" stroke="#000000" stroke-linecap="round" stroke-linejoin="round" stroke-miterlimit="10" x1="6.665" y1="17.437" x2="6.665" y2="17.937"/>
				</g>
			</g>
			<polyline fill="none" stroke="#000000" stroke-linecap="round" stroke-linejoin="round" stroke-miterlimit="10" points="
				9.481,21.395 9.481,17.48 9.014,17.927 			"/>
			<path fill="none" stroke="#000000" stroke-linecap="round" stroke-linejoin="round" stroke-miterlimit="10" d="M12.886,19.437
				c0,1.104-0.151,2-1.021,2c-0.871,0-1.021-0.896-1.021-2c0-1.104,0.15-2,1.021-2C12.734,17.437,12.886,18.333,12.886,19.437z"/>
			<path fill="none" stroke="#000000" stroke-linecap="round" stroke-linejoin="round" stroke-miterlimit="10" d="M16.24,19.437
				c0,1.104-0.153,2-1.021,2c-0.87,0-1.021-0.896-1.021-2c0-1.104,0.151-2,1.021-2C16.087,17.437,16.24,18.333,16.24,19.437z"/>
		</g>
	</g>
</g>
<g id="invisible_shape">
	<rect fill="none" width="24" height="24"/>
</g>
</svg>
