<?xml version="1.0" encoding="utf-8"?>
<!-- Generator: Adobe Illustrator 16.0.3, SVG Export Plug-In . SVG Version: 6.00 Build 0)  -->
<!DOCTYPE svg PUBLIC "-//W3C//DTD SVG 1.1//EN" "http://www.w3.org/Graphics/SVG/1.1/DTD/svg11.dtd">
<svg version="1.1" xmlns="http://www.w3.org/2000/svg" xmlns:xlink="http://www.w3.org/1999/xlink" x="0px" y="0px" width="24px"
	 height="24px" viewBox="0 0 24 24" enable-background="new 0 0 24 24" xml:space="preserve">
<g id="Outline_Icons_1_">
	<g id="Outline_Icons">
		<g>
			<g>
				<path fill="none" stroke="#000000" stroke-linejoin="round" stroke-miterlimit="10" d="M22.375,15.918l1.072-0.619l-1.5-2.598
					l-1.081,0.623c-0.53-0.485-1.164-0.848-1.866-1.07V11h-3v1.254c-0.702,0.223-1.336,0.585-1.866,1.07l-1.081-0.623l-1.5,2.598
					l1.072,0.619c-0.166,0.748-0.167,1.414,0,2.165l-1.07,0.618l1.5,2.598l1.079-0.623c0.53,0.485,1.164,0.848,1.866,1.07V23h3
					v-1.254c0.702-0.223,1.336-0.585,1.866-1.07l1.079,0.623l1.5-2.598l-1.07-0.618C22.542,17.332,22.541,16.666,22.375,15.918z"/>
				<circle fill="none" stroke="#000000" stroke-linejoin="round" stroke-miterlimit="10" cx="17.5" cy="17" r="2"/>
			</g>
			<g>
				<path fill="none" stroke="#000000" stroke-linecap="round" stroke-linejoin="round" stroke-miterlimit="10" d="M20.811,9.932
					c0.422-1.078,0.67-2.172,0.67-3.252c0-7.017-9.41-8.385-10.49-1.368C9.911-1.705,0.5-0.877,0.5,6.68
					c0,6.575,7.942,12.758,10.006,14.253"/>
			</g>
		</g>
	</g>
	<g id="New_icons_1_">
	</g>
</g>
<g id="Invisible_Shape">
	<rect fill="none" width="24" height="24"/>
</g>
</svg>
