<?xml version="1.0" encoding="utf-8"?>
<!-- Generator: Adobe Illustrator 16.0.3, SVG Export Plug-In . SVG Version: 6.00 Build 0)  -->
<!DOCTYPE svg PUBLIC "-//W3C//DTD SVG 1.1//EN" "http://www.w3.org/Graphics/SVG/1.1/DTD/svg11.dtd">
<svg version="1.1" xmlns="http://www.w3.org/2000/svg" xmlns:xlink="http://www.w3.org/1999/xlink" x="0px" y="0px" width="24px"
	 height="24px" viewBox="0 0 24 24" enable-background="new 0 0 24 24" xml:space="preserve">
<g id="Outline_Icons_1_">
	<g id="Outline_Icons">
		<g>
			<path fill="none" stroke="#000000" stroke-linecap="round" stroke-linejoin="round" stroke-miterlimit="10" d="M20,10.537
				c1.615,0.248,2.5,1.703,2.5,3.463v7c0,1.104-0.396,2-1.5,2c-1.104,0-1.5-0.896-1.5-2v-4.5v2c0,0.829-0.672,1.5-1.5,1.5
				c-0.83,0-1.5-0.671-1.5-1.5v-1"/>
			<path fill="none" stroke="#000000" stroke-linecap="round" stroke-linejoin="round" stroke-miterlimit="10" d="M4,10.537
				C2.385,10.785,1.5,12.24,1.5,14v7c0,1.104,0.396,2,1.5,2s1.5-0.896,1.5-2v-4.5v2C4.5,19.329,5.172,20,6,20
				c0.829,0,1.5-0.671,1.5-1.5v-1"/>
			<path fill="none" stroke="#000000" stroke-linecap="round" stroke-linejoin="round" stroke-miterlimit="10" d="M12,19
				c0,0,6.011-3.973,6.011-8.196c0-4.225-5.333-4.771-6.011-0.547c-0.678-4.224-6.012-4.002-6.012,0.547C5.988,15.352,12,19,12,19z"
				/>
			
				<ellipse fill="none" stroke="#000000" stroke-linecap="round" stroke-linejoin="round" stroke-miterlimit="10" cx="12" cy="3" rx="5.5" ry="1.5"/>
			<path fill="none" stroke="#000000" stroke-linecap="round" stroke-linejoin="round" stroke-miterlimit="10" d="M12,19
				c0,0,6.011-3.973,6.011-8.196c0-4.225-5.333-4.771-6.011-0.547c-0.678-4.224-6.012-4.002-6.012,0.547C5.988,15.352,12,19,12,19z"
				/>
		</g>
	</g>
	<g id="New_icons_1_">
	</g>
</g>
<g id="Invisible_Shape">
	<rect fill="none" width="24" height="24"/>
</g>
</svg>
