<?xml version="1.0" encoding="utf-8"?>
<!-- Generator: Adobe Illustrator 16.0.3, SVG Export Plug-In . SVG Version: 6.00 Build 0)  -->
<!DOCTYPE svg PUBLIC "-//W3C//DTD SVG 1.1//EN" "http://www.w3.org/Graphics/SVG/1.1/DTD/svg11.dtd">
<svg version="1.1" xmlns="http://www.w3.org/2000/svg" xmlns:xlink="http://www.w3.org/1999/xlink" x="0px" y="0px" width="24px"
	 height="24px" viewBox="0 0 24 24" enable-background="new 0 0 24 24" xml:space="preserve">
<g id="Outline_Icons_1_">
	<g id="Outline_Icons">
		<g>
			<path fill="none" stroke="#000000" stroke-linecap="round" stroke-linejoin="round" stroke-miterlimit="10" d="M17.297,12.513
				C17.43,12.987,17.5,13.485,17.5,14c0,3.038-2.463,5.5-5.5,5.5S6.5,17.038,6.5,14c0-0.528,0.074-1.04,0.214-1.524"/>
			<path fill="none" stroke="#000000" stroke-linecap="round" stroke-linejoin="round" stroke-miterlimit="10" d="M18.383,6.963
				C20.298,8.701,21.5,11.21,21.5,14c0,5.248-4.254,9.5-9.5,9.5c-5.247,0-9.5-4.252-9.5-9.5c0-2.766,1.183-5.257,3.07-6.993"/>
			<polygon fill="none" stroke="#000000" stroke-linejoin="round" stroke-miterlimit="10" points="12,0.929 13.429,4.5 17,4.5 
				14.143,7.116 15.215,11.103 12,8.633 8.785,11.146 9.857,7.108 7,4.5 10.571,4.5 			"/>
			
				<line fill="none" stroke="#000000" stroke-linecap="round" stroke-linejoin="round" stroke-miterlimit="10" x1="12" y1="8.633" x2="9.479" y2="15.521"/>
			
				<line fill="none" stroke="#000000" stroke-linecap="round" stroke-linejoin="round" stroke-miterlimit="10" x1="12" y1="8.633" x2="14.521" y2="15.521"/>
		</g>
	</g>
	<g id="New_icons_1_">
	</g>
</g>
<g id="Invisible_Shape">
	<rect fill="none" width="24" height="24"/>
</g>
</svg>
