<?xml version="1.0" encoding="utf-8"?>
<!-- Generator: Adobe Illustrator 16.0.3, SVG Export Plug-In . SVG Version: 6.00 Build 0)  -->
<!DOCTYPE svg PUBLIC "-//W3C//DTD SVG 1.1//EN" "http://www.w3.org/Graphics/SVG/1.1/DTD/svg11.dtd">
<svg version="1.1" xmlns="http://www.w3.org/2000/svg" xmlns:xlink="http://www.w3.org/1999/xlink" x="0px" y="0px" width="24px"
	 height="24px" viewBox="0 0 24 24" enable-background="new 0 0 24 24" xml:space="preserve">
<g id="Outline_Icons_1_">
	<g id="Outline_Icons">
		<g>
			<path fill="none" stroke="#000000" stroke-linecap="round" stroke-linejoin="round" stroke-miterlimit="10" d="M19,15.5L19,15.5
				c0.829,0,1.5,0.672,1.5,1.5c0,0.829-0.671,1.5-1.5,1.5h-1c0.829,0,1.5,0.672,1.5,1.5c0,0.829-0.671,1.5-1.5,1.5c0,0-4,0-6.5,0
				c-4,0-3-2-11-2c0-0.5,0-9,0-9h3c3.5,0,7.5-3.222,7.5-8c0-1.581,3-1.781,3,1.219c0,2-1,5.781-1,5.781h8c0.829,0,1.5,0.672,1.5,1.5
				c0,0.829-0.671,1.5-1.5,1.5h-1c0.829,0,1.5,0.672,1.5,1.5c0,0.829-0.671,1.5-1.5,1.5H19"/>
		</g>
	</g>
	<g id="New_icons_1_">
	</g>
</g>
<g id="Invisible_Shape">
	<rect fill="none" width="24" height="24"/>
</g>
</svg>
