<?xml version="1.0" encoding="utf-8"?>
<!-- Generator: Adobe Illustrator 16.0.3, SVG Export Plug-In . SVG Version: 6.00 Build 0)  -->
<!DOCTYPE svg PUBLIC "-//W3C//DTD SVG 1.1//EN" "http://www.w3.org/Graphics/SVG/1.1/DTD/svg11.dtd">
<svg version="1.1" xmlns="http://www.w3.org/2000/svg" xmlns:xlink="http://www.w3.org/1999/xlink" x="0px" y="0px" width="24px"
	 height="24px" viewBox="0 0 24 24" enable-background="new 0 0 24 24" xml:space="preserve">
<g id="Outline_Icons_1_">
	<g id="Outline_Icons">
		<g>
			<path fill="none" stroke="#000000" stroke-linecap="round" stroke-linejoin="round" stroke-miterlimit="10" d="M4,6.5L4,6.5
				C3.172,6.5,2.5,5.828,2.5,5c0-0.828,0.672-1.5,1.5-1.5h1C4.172,3.5,3.5,2.828,3.5,2c0-0.828,0.672-1.5,1.5-1.5c0,0,4,0,6.5,0
				c4,0,3,1.87,11,1.87c0,0.5,0,9.13,0,9.13h-3c-3.5,0-7.5,3.156-7.5,7.936c0,1.582-3,1.813-3-1.187c0-2,1-5.749,1-5.749H2
				c-0.828,0-1.5-0.672-1.5-1.5c0-0.828,0.672-1.5,1.5-1.5h1C2.172,9.5,1.5,8.828,1.5,8c0-0.828,0.672-1.5,1.5-1.5H4"/>
		</g>
	</g>
	<g id="New_icons_1_">
	</g>
</g>
<g id="Invisible_Shape">
	<rect fill="none" width="24" height="24"/>
</g>
</svg>
