<?xml version="1.0" encoding="utf-8"?>
<!-- Generator: Adobe Illustrator 16.0.3, SVG Export Plug-In . SVG Version: 6.00 Build 0)  -->
<!DOCTYPE svg PUBLIC "-//W3C//DTD SVG 1.1//EN" "http://www.w3.org/Graphics/SVG/1.1/DTD/svg11.dtd">
<svg version="1.1" xmlns="http://www.w3.org/2000/svg" xmlns:xlink="http://www.w3.org/1999/xlink" x="0px" y="0px" width="24px"
	 height="24px" viewBox="0 0 24 24" enable-background="new 0 0 24 24" xml:space="preserve">
<g id="Outline_Icons">
	<g>
		<path fill="none" stroke="#000000" stroke-linecap="round" stroke-linejoin="round" stroke-miterlimit="10" d="M16.475,8.498
			c-0.251-2.5-2.382-4.5-4.975-4.5s-4.724,2-4.975,4.5H16.475z"/>
		<path fill="none" stroke="#000000" stroke-linecap="round" stroke-linejoin="round" stroke-miterlimit="10" d="M7.5,0.5
			c0,0,0.002,0.45,0.004,1.001C7.51,2.635,8.42,3.717,9.1,4.612"/>
		<path fill="none" stroke="#000000" stroke-linecap="round" stroke-linejoin="round" stroke-miterlimit="10" d="M15.509,0.498
			c0,0-0.002,0.45-0.004,1.001c-0.006,1.135-0.922,2.215-1.604,3.113"/>
		<path fill="none" stroke="#000000" stroke-linecap="round" stroke-linejoin="round" stroke-miterlimit="10" d="M6.5,10.498V16.5
			c0,2.761,5,7,5,7s5-4.239,5-7v-6.002H6.5z"/>
		<path fill="none" stroke="#000000" stroke-linecap="round" stroke-linejoin="round" stroke-miterlimit="10" d="M6.5,10.5
			c0,0-0.562,0-1.25,0c-1.385,0-2.286,1.036-3.25,2"/>
		<path fill="none" stroke="#000000" stroke-linecap="round" stroke-linejoin="round" stroke-miterlimit="10" d="M6.5,13.5
			c0,0-0.562,0-1.25,0c-1.385,0-2.286,1.036-3.25,2"/>
		<path fill="none" stroke="#000000" stroke-linecap="round" stroke-linejoin="round" stroke-miterlimit="10" d="M6.5,16.5
			c0,0-0.562,0-1.25,0c-1.385,0-2.286,1.036-3.25,2"/>
		<path fill="none" stroke="#000000" stroke-linecap="round" stroke-linejoin="round" stroke-miterlimit="10" d="M16.5,10.5
			c0,0,0.562,0,1.25,0c1.384,0,2.291,1.039,3.25,2"/>
		<path fill="none" stroke="#000000" stroke-linecap="round" stroke-linejoin="round" stroke-miterlimit="10" d="M16.5,13.5
			c0,0,0.562,0,1.25,0c1.384,0,2.291,1.039,3.25,2"/>
		<path fill="none" stroke="#000000" stroke-linecap="round" stroke-linejoin="round" stroke-miterlimit="10" d="M16.5,16.5
			c0,0,0.562,0,1.25,0c1.384,0,2.291,1.039,3.25,2"/>
	</g>
</g>
<g id="Invisible_Shape">
	<rect fill="none" width="24" height="24"/>
</g>
</svg>
