<?xml version="1.0" encoding="utf-8"?>
<!-- Generator: Adobe Illustrator 16.0.3, SVG Export Plug-In . SVG Version: 6.00 Build 0)  -->
<!DOCTYPE svg PUBLIC "-//W3C//DTD SVG 1.1//EN" "http://www.w3.org/Graphics/SVG/1.1/DTD/svg11.dtd">
<svg version="1.1" xmlns="http://www.w3.org/2000/svg" xmlns:xlink="http://www.w3.org/1999/xlink" x="0px" y="0px" width="24px"
	 height="24px" viewBox="0 0 24 24" enable-background="new 0 0 24 24" xml:space="preserve">
<g id="Outline_Icons">
	<g>
		<g>
			<rect x="14.5" y="20.5" fill="none" stroke="#000000" stroke-linejoin="round" stroke-miterlimit="10" width="6" height="3"/>
			<path fill="none" stroke="#000000" stroke-linecap="round" stroke-linejoin="round" stroke-miterlimit="10" d="M19.5,20.5v-1.532
				c0,0,3.187-3.154,4-3.968c0-1.375,0-8.062,0-8.062S21,6.03,21,13l-2.969,2.968l0.688-3c0.344-1.438-0.971-2.051-1.688-0.938
				c-0.66,1.027-1.531,3.961-1.531,3.961V20.5"/>
			<rect x="3.5" y="20.5" fill="none" stroke="#000000" stroke-linejoin="round" stroke-miterlimit="10" width="6" height="3"/>
			<path fill="none" stroke="#000000" stroke-linecap="round" stroke-linejoin="round" stroke-miterlimit="10" d="M4.5,20.5v-1.532
				c0,0-3-3.154-4-3.968c0-1.375,0-8.062,0-8.062S3,6.03,3,13l2.969,2.968l-0.688-3c-0.344-1.438,0.971-2.051,1.688-0.938
				c0.66,1.027,1.531,3.961,1.531,3.961V20.5"/>
		</g>
		<g>
			<path fill="none" stroke="#000000" stroke-linecap="round" stroke-linejoin="round" stroke-miterlimit="10" d="M5,7.5
				c0,1.104,0.896,2,2,2h10c1.104,0,2-0.896,2-2l0,0H5L5,7.5z"/>
			<polyline fill="none" stroke="#000000" stroke-linecap="round" stroke-linejoin="round" stroke-miterlimit="10" points="
				17.5,7.5 17.5,0.5 6.5,0.5 6.5,7.5 			"/>
		</g>
	</g>
</g>
<g id="Invisible_Shape">
	<rect fill="none" width="24" height="24"/>
</g>
</svg>
