<?xml version="1.0" encoding="utf-8"?>
<!-- Generator: Adobe Illustrator 16.0.3, SVG Export Plug-In . SVG Version: 6.00 Build 0)  -->
<!DOCTYPE svg PUBLIC "-//W3C//DTD SVG 1.1//EN" "http://www.w3.org/Graphics/SVG/1.1/DTD/svg11.dtd">
<svg version="1.1" xmlns="http://www.w3.org/2000/svg" xmlns:xlink="http://www.w3.org/1999/xlink" x="0px" y="0px" width="24px"
	 height="24px" viewBox="0 0 24 24" enable-background="new 0 0 24 24" xml:space="preserve">
<g id="Outline_Icons">
	<g>
		<path fill="none" stroke="#000000" stroke-linecap="round" stroke-linejoin="round" stroke-miterlimit="10" d="M23,23.5l0.5-3.279
			c0-0.426-0.185-0.846-0.59-0.971l-5.41-1.941V12.5c0-0.535-0.218-1-0.75-1h-1.448c-0.533,0-0.802,0.465-0.802,1v8.691l-1.72-2.059
			c-0.183-0.232-0.501-0.367-0.797-0.367l-0.999,0.018c-0.341,0-0.666,0.182-0.841,0.477c-0.173,0.295-0.184,0.66-0.021,0.961
			l1.809,3.278"/>
		<path fill="none" stroke="#000000" stroke-linecap="round" stroke-linejoin="round" stroke-miterlimit="10" d="M4.5,17.5h-2
			c-1.1,0-2-0.899-2-2v-13c0-1.1,0.9-2,2-2h8c1.1,0,2,0.9,2,2v4"/>
		
			<line fill="none" stroke="#000000" stroke-linecap="round" stroke-linejoin="round" stroke-miterlimit="10" x1="0.5" y1="13.5" x2="4.5" y2="13.5"/>
		<path fill="none" stroke="#000000" stroke-linecap="round" stroke-linejoin="round" stroke-miterlimit="10" d="M23.5,17.5v-7
			c0-1.1-0.9-2-2-2"/>
		<path fill="none" stroke="#000000" stroke-linecap="round" stroke-linejoin="round" stroke-miterlimit="10" d="M8.5,20.5
			c-1.1,0-2-0.899-2-2v-8c0-1.1,0.9-2,2-2h4"/>
		
			<line fill="none" stroke="#000000" stroke-linecap="round" stroke-linejoin="round" stroke-miterlimit="10" x1="10.5" y1="8.5" x2="10.5" y2="17"/>
		<path fill="none" stroke="#000000" stroke-linecap="round" stroke-linejoin="round" stroke-miterlimit="10" d="M19.5,8.5
			c0,0.55-0.45,1-1,1h-3c-0.55,0-1-0.45-1-1v-7c0-0.55,0.45-1,1-1h3c0.55,0,1,0.45,1,1V8.5z"/>
		
			<line fill="none" stroke="#000000" stroke-linecap="round" stroke-linejoin="round" stroke-miterlimit="10" x1="14.5" y1="7.5" x2="19.5" y2="7.5"/>
		
			<line fill="none" stroke="#000000" stroke-linecap="round" stroke-linejoin="round" stroke-miterlimit="10" x1="14.5" y1="2.5" x2="19.5" y2="2.5"/>
		
			<line fill="none" stroke="#000000" stroke-linecap="round" stroke-linejoin="round" stroke-miterlimit="10" x1="0.5" y1="3.5" x2="12.5" y2="3.5"/>
		
			<line fill="none" stroke="#000000" stroke-linecap="round" stroke-linejoin="round" stroke-miterlimit="10" x1="20.5" y1="11" x2="20.5" y2="16.5"/>
	</g>
</g>
<g id="Invisible_Shape">
	<rect fill="none" width="24" height="24"/>
</g>
</svg>
