<?xml version="1.0" encoding="utf-8"?>
<!-- Generator: Adobe Illustrator 16.0.3, SVG Export Plug-In . SVG Version: 6.00 Build 0)  -->
<!DOCTYPE svg PUBLIC "-//W3C//DTD SVG 1.1//EN" "http://www.w3.org/Graphics/SVG/1.1/DTD/svg11.dtd">
<svg version="1.1" xmlns="http://www.w3.org/2000/svg" xmlns:xlink="http://www.w3.org/1999/xlink" x="0px" y="0px" width="24px"
	 height="24px" viewBox="0 0 24 24" enable-background="new 0 0 24 24" xml:space="preserve">
<g id="Outline_Icons">
	<g>
		<polyline fill="none" stroke="#000000" stroke-linecap="round" stroke-linejoin="round" stroke-miterlimit="10" points="
			10.5,12.5 0.5,12.5 0.5,3.5 23.5,3.5 23.5,9.521 		"/>
		
			<line fill="none" stroke="#000000" stroke-linecap="round" stroke-linejoin="round" stroke-miterlimit="10" x1="4.5" y1="6" x2="4.5" y2="10"/>
		
			<line fill="none" stroke="#000000" stroke-linecap="round" stroke-linejoin="round" stroke-miterlimit="10" x1="6.173" y1="6.903" x2="2.828" y2="9.097"/>
		
			<line fill="none" stroke="#000000" stroke-linecap="round" stroke-linejoin="round" stroke-miterlimit="10" x1="6.164" y1="9.11" x2="2.836" y2="6.89"/>
		
			<line fill="none" stroke="#000000" stroke-linecap="round" stroke-linejoin="round" stroke-miterlimit="10" x1="10.5" y1="6" x2="10.5" y2="10"/>
		
			<line fill="none" stroke="#000000" stroke-linecap="round" stroke-linejoin="round" stroke-miterlimit="10" x1="12.173" y1="6.903" x2="8.828" y2="9.097"/>
		
			<line fill="none" stroke="#000000" stroke-linecap="round" stroke-linejoin="round" stroke-miterlimit="10" x1="12.164" y1="9.11" x2="8.836" y2="6.89"/>
		<g>
			
				<rect x="13.5" y="13.5" fill="none" stroke="#000000" stroke-linecap="round" stroke-linejoin="round" stroke-miterlimit="10" width="10" height="8"/>
			
				<line fill="none" stroke="#000000" stroke-linecap="round" stroke-linejoin="round" stroke-miterlimit="10" x1="18.471" y1="18.787" x2="18.471" y2="16.787"/>
			<path fill="none" stroke="#000000" stroke-linecap="round" stroke-linejoin="round" stroke-miterlimit="10" d="M15.471,13.502
				v-0.999c0-1.657,1.343-3,3-3c1.656,0,3,1.343,3,3v0.999"/>
			<path fill="none" stroke="#000000" stroke-linejoin="round" stroke-miterlimit="10" d="M18.971,16.287c0,0.277-0.224,0.5-0.5,0.5
				l0,0c-0.276,0-0.5-0.223-0.5-0.5l0,0c0-0.275,0.224-0.5,0.5-0.5l0,0C18.747,15.787,18.971,16.012,18.971,16.287L18.971,16.287z"
				/>
		</g>
	</g>
</g>
<g id="Invisible_Shape">
	<rect fill="none" width="24" height="24"/>
</g>
</svg>
