<?xml version="1.0" encoding="utf-8"?>
<!-- Generator: Adobe Illustrator 16.0.3, SVG Export Plug-In . SVG Version: 6.00 Build 0)  -->
<!DOCTYPE svg PUBLIC "-//W3C//DTD SVG 1.1//EN" "http://www.w3.org/Graphics/SVG/1.1/DTD/svg11.dtd">
<svg version="1.1" xmlns="http://www.w3.org/2000/svg" xmlns:xlink="http://www.w3.org/1999/xlink" x="0px" y="0px" width="24px"
	 height="24px" viewBox="0 0 24 24" enable-background="new 0 0 24 24" xml:space="preserve">
<g id="Outline_Icons">
	<g>
		<polyline fill="none" stroke="#000000" stroke-linecap="round" stroke-linejoin="round" stroke-miterlimit="10" points="
			8.5,8.504 8.5,5 8.081,5.398 		"/>
		<polyline fill="none" stroke="#000000" stroke-linecap="round" stroke-linejoin="round" stroke-miterlimit="10" points="
			4.5,14.007 4.5,10.5 4.08,10.9 		"/>
		<polyline fill="none" stroke="#000000" stroke-linecap="round" stroke-linejoin="round" stroke-miterlimit="10" points="
			18.5,8.504 18.5,5 18.08,5.398 		"/>
		<polyline fill="none" stroke="#000000" stroke-linecap="round" stroke-linejoin="round" stroke-miterlimit="10" points="
			18.5,14.007 18.5,10.5 18.08,10.9 		"/>
		<polyline fill="none" stroke="#000000" stroke-linecap="round" stroke-linejoin="round" stroke-miterlimit="10" points="
			15.5,8.504 15.5,5 15.081,5.398 		"/>
		<polyline fill="none" stroke="#000000" stroke-linecap="round" stroke-linejoin="round" stroke-miterlimit="10" points="
			11.5,14.007 11.5,10.5 11.082,10.9 		"/>
		<path fill="none" stroke="#000000" stroke-linecap="round" stroke-linejoin="round" stroke-miterlimit="10" d="M5.73,6.752
			c0,0.989-0.137,1.791-0.915,1.791S3.901,7.741,3.901,6.752c0-0.988,0.136-1.79,0.914-1.79S5.73,5.764,5.73,6.752z"/>
		<path fill="none" stroke="#000000" stroke-linecap="round" stroke-linejoin="round" stroke-miterlimit="10" d="M12.682,6.752
			c0,0.989-0.137,1.791-0.915,1.791s-0.915-0.802-0.915-1.791c0-0.988,0.137-1.79,0.915-1.79S12.682,5.764,12.682,6.752z"/>
		<path fill="none" stroke="#000000" stroke-linecap="round" stroke-linejoin="round" stroke-miterlimit="10" d="M15.63,12.254
			c0,0.988-0.137,1.79-0.914,1.79c-0.778,0-0.915-0.802-0.915-1.79s0.137-1.791,0.915-1.791
			C15.493,10.463,15.63,11.266,15.63,12.254z"/>
		<path fill="none" stroke="#000000" stroke-linecap="round" stroke-linejoin="round" stroke-miterlimit="10" d="M8.68,12.254
			c0,0.988-0.137,1.79-0.915,1.79s-0.915-0.802-0.915-1.79s0.137-1.791,0.915-1.791S8.68,11.266,8.68,12.254z"/>
		<path fill="none" stroke="#000000" stroke-linecap="round" stroke-linejoin="round" stroke-miterlimit="10" d="M23.5,18.911
			c0,0.878-0.671,1.589-1.5,1.589H2c-0.828,0-1.5-0.711-1.5-1.589V4.089C0.5,3.211,1.172,2.5,2,2.5h20c0.829,0,1.5,0.711,1.5,1.589
			V18.911z"/>
		
			<line fill="none" stroke="#000000" stroke-linecap="round" stroke-linejoin="round" stroke-miterlimit="10" x1="5" y1="22.5" x2="19" y2="22.5"/>
		
			<line fill="none" stroke="#000000" stroke-linecap="round" stroke-linejoin="round" stroke-miterlimit="10" x1="11.5" y1="20.5" x2="11.5" y2="22.5"/>
		<circle fill="none" stroke="#000000" stroke-linejoin="round" stroke-miterlimit="10" cx="12" cy="18.5" r="0.5"/>
		<line fill="none" stroke="#000000" stroke-linejoin="round" stroke-miterlimit="10" x1="0.5" y1="16.5" x2="23.5" y2="16.5"/>
	</g>
</g>
<g id="Invisible_Shape">
	<rect fill="none" width="24" height="24"/>
</g>
</svg>
