<?xml version="1.0" encoding="utf-8"?>
<!-- Generator: Adobe Illustrator 16.0.3, SVG Export Plug-In . SVG Version: 6.00 Build 0)  -->
<!DOCTYPE svg PUBLIC "-//W3C//DTD SVG 1.1//EN" "http://www.w3.org/Graphics/SVG/1.1/DTD/svg11.dtd">
<svg version="1.1" xmlns="http://www.w3.org/2000/svg" xmlns:xlink="http://www.w3.org/1999/xlink" x="0px" y="0px" width="24px"
	 height="24px" viewBox="0 0 24 24" enable-background="new 0 0 24 24" xml:space="preserve">
<g id="Outline_Icons">
	<g>
		<g>
			<polyline fill="none" stroke="#000000" stroke-linecap="round" stroke-linejoin="round" stroke-miterlimit="10" points="
				2.5,10.5 0,10.5 2,2.5 21,2.5 23,10.5 20.5,10.5 			"/>
			
				<line fill="none" stroke="#000000" stroke-linecap="round" stroke-linejoin="round" stroke-miterlimit="10" x1="10" y1="10.5" x2="13" y2="10.5"/>
			
				<line fill="none" stroke="#000000" stroke-linecap="round" stroke-linejoin="round" stroke-miterlimit="10" x1="3.5" y1="4.5" x2="4.5" y2="4.5"/>
			
				<line fill="none" stroke="#000000" stroke-linecap="round" stroke-linejoin="round" stroke-miterlimit="10" x1="5" y1="6.5" x2="6" y2="6.5"/>
			
				<line fill="none" stroke="#000000" stroke-linecap="round" stroke-linejoin="round" stroke-miterlimit="10" x1="8" y1="6.5" x2="9" y2="6.5"/>
			
				<line fill="none" stroke="#000000" stroke-linecap="round" stroke-linejoin="round" stroke-miterlimit="10" x1="11" y1="6.5" x2="12" y2="6.5"/>
			
				<line fill="none" stroke="#000000" stroke-linecap="round" stroke-linejoin="round" stroke-miterlimit="10" x1="14" y1="6.5" x2="15" y2="6.5"/>
			
				<line fill="none" stroke="#000000" stroke-linecap="round" stroke-linejoin="round" stroke-miterlimit="10" x1="17" y1="6.5" x2="18" y2="6.5"/>
			
				<line fill="none" stroke="#000000" stroke-linecap="round" stroke-linejoin="round" stroke-miterlimit="10" x1="6.5" y1="4.5" x2="7.5" y2="4.5"/>
			
				<line fill="none" stroke="#000000" stroke-linecap="round" stroke-linejoin="round" stroke-miterlimit="10" x1="9.5" y1="4.5" x2="10.5" y2="4.5"/>
			
				<line fill="none" stroke="#000000" stroke-linecap="round" stroke-linejoin="round" stroke-miterlimit="10" x1="12.5" y1="4.5" x2="13.5" y2="4.5"/>
			
				<line fill="none" stroke="#000000" stroke-linecap="round" stroke-linejoin="round" stroke-miterlimit="10" x1="15.5" y1="4.5" x2="16.5" y2="4.5"/>
			
				<line fill="none" stroke="#000000" stroke-linecap="round" stroke-linejoin="round" stroke-miterlimit="10" x1="18.5" y1="4.5" x2="19.5" y2="4.5"/>
			
				<line fill="none" stroke="#000000" stroke-linecap="round" stroke-linejoin="round" stroke-miterlimit="10" x1="3.5" y1="8.5" x2="4.5" y2="8.5"/>
			
				<line fill="none" stroke="#000000" stroke-linecap="round" stroke-linejoin="round" stroke-miterlimit="10" x1="6.5" y1="8.5" x2="7.5" y2="8.5"/>
			
				<line fill="none" stroke="#000000" stroke-linecap="round" stroke-linejoin="round" stroke-miterlimit="10" x1="9.5" y1="8.5" x2="10.5" y2="8.5"/>
			
				<line fill="none" stroke="#000000" stroke-linecap="round" stroke-linejoin="round" stroke-miterlimit="10" x1="12.5" y1="8.5" x2="13.5" y2="8.5"/>
			
				<line fill="none" stroke="#000000" stroke-linecap="round" stroke-linejoin="round" stroke-miterlimit="10" x1="15.5" y1="8.5" x2="16.5" y2="8.5"/>
			
				<line fill="none" stroke="#000000" stroke-linecap="round" stroke-linejoin="round" stroke-miterlimit="10" x1="18.5" y1="8.5" x2="19.5" y2="8.5"/>
		</g>
		<g>
			<path fill="none" stroke="#000000" stroke-linecap="round" stroke-linejoin="round" stroke-miterlimit="10" d="M15.654,12.647
				l-0.281-0.982c-0.115-0.406,0.12-0.832,0.525-0.947c0.409-0.116,0.832,0.119,0.949,0.525l0.28,0.984"/>
			<path fill="none" stroke="#000000" stroke-linecap="round" stroke-linejoin="round" stroke-miterlimit="10" d="M17.971,15.177
				l-0.843-2.949c-0.116-0.407,0.12-0.832,0.526-0.948c0.408-0.116,0.832,0.12,0.949,0.526l0.42,1.475"/>
			<path fill="none" stroke="#000000" stroke-linecap="round" stroke-linejoin="round" stroke-miterlimit="10" d="M19.654,15.492
				l-0.631-2.212c-0.115-0.406,0.119-0.831,0.526-0.947s0.832,0.119,0.948,0.527l1.402,4.914c0.389,1.357-0.398,2.771-1.755,3.158
				l-1.64,0.469c-0.84,0.24-1.746,0.033-2.4-0.549c-1.227-1.09-2.904-2.986-2.904-2.986c-0.232-0.188-0.297-0.514-0.152-0.775
				c0.156-0.279,0.502-0.392,0.793-0.26l1.741,1.152l-1.403-4.914c-0.116-0.406,0.119-0.832,0.526-0.948
				c0.408-0.116,0.831,0.12,0.948,0.526l0.842,2.949"/>
		</g>
		<g>
			<path fill="none" stroke="#000000" stroke-linecap="round" stroke-linejoin="round" stroke-miterlimit="10" d="M7.346,12.647
				l0.281-0.982c0.115-0.406-0.12-0.832-0.525-0.947c-0.409-0.116-0.832,0.119-0.949,0.525l-0.28,0.984"/>
			<path fill="none" stroke="#000000" stroke-linecap="round" stroke-linejoin="round" stroke-miterlimit="10" d="M5.029,15.177
				l0.843-2.949c0.116-0.407-0.12-0.832-0.526-0.948c-0.408-0.116-0.832,0.12-0.949,0.526l-0.42,1.475"/>
			<path fill="none" stroke="#000000" stroke-linecap="round" stroke-linejoin="round" stroke-miterlimit="10" d="M3.346,15.492
				l0.631-2.212c0.115-0.406-0.119-0.831-0.526-0.947s-0.832,0.119-0.948,0.527L1.1,17.774c-0.389,1.357,0.398,2.771,1.755,3.158
				l1.64,0.469c0.84,0.24,1.746,0.033,2.4-0.549c1.227-1.09,2.904-2.986,2.904-2.986c0.232-0.188,0.297-0.514,0.152-0.775
				c-0.156-0.279-0.502-0.392-0.793-0.26l-1.741,1.152l1.403-4.914c0.116-0.406-0.119-0.832-0.526-0.948
				c-0.408-0.116-0.831,0.12-0.948,0.526l-0.842,2.949"/>
		</g>
	</g>
</g>
<g id="Invisible_Shape">
	<rect fill="none" width="24" height="24"/>
</g>
</svg>
