<?xml version="1.0" encoding="utf-8"?>
<!-- Generator: Adobe Illustrator 19.2.1, SVG Export Plug-In . SVG Version: 6.00 Build 0)  -->
<svg version="1.1" xmlns="http://www.w3.org/2000/svg" xmlns:xlink="http://www.w3.org/1999/xlink" x="0px" y="0px" width="24px"
	 height="24px" viewBox="0 0 24 24" enable-background="new 0 0 24 24" xml:space="preserve">
<g id="Filled_Icon">
	<g>
		<path d="M23.5,10h-3c-0.276,0-0.5,0.224-0.5,0.5V20H9.5C9.224,20,9,20.224,9,20.5v3C9,23.776,9.224,24,9.5,24h14
			c0.276,0,0.5-0.224,0.5-0.5v-13C24,10.224,23.776,10,23.5,10z"/>
		<path d="M14,4.5v-4C14,0.224,13.776,0,13.5,0h-13C0.224,0,0,0.224,0,0.5v14C0,14.776,0.224,15,0.5,15h4C4.776,15,5,14.776,5,14.5
			V5h8.5C13.776,5,14,4.776,14,4.5z"/>
		<path d="M18,17.5v-10C18,7.224,17.776,7,17.5,7h-10C7.224,7,7,7.224,7,7.5v10C7,17.776,7.224,18,7.5,18h10
			C17.776,18,18,17.776,18,17.5z"/>
	</g>
</g>
<g id="Invisible_Shape">
	<rect fill="none" width="24" height="24"/>
</g>
</svg>
