<?xml version="1.0" encoding="utf-8"?>
<!-- Generator: Adobe Illustrator 19.2.1, SVG Export Plug-In . SVG Version: 6.00 Build 0)  -->
<svg version="1.1" xmlns="http://www.w3.org/2000/svg" xmlns:xlink="http://www.w3.org/1999/xlink" x="0px" y="0px" width="24px"
	 height="24px" viewBox="0 0 24 24" enable-background="new 0 0 24 24" xml:space="preserve">
<g id="Filled_Icon">
	<g>
		<circle cx="16.5" cy="16.5" r="0.5"/>
		<path d="M8.5,23H8v-0.5C8,22.224,7.776,22,7.5,22S7,22.224,7,22.5v1C7,23.776,7.224,24,7.5,24h1C8.776,24,9,23.776,9,23.5
			S8.776,23,8.5,23z"/>
		<path d="M23.5,22c-0.276,0-0.5,0.224-0.5,0.5V23h-0.5c-0.276,0-0.5,0.224-0.5,0.5s0.224,0.5,0.5,0.5h1c0.276,0,0.5-0.224,0.5-0.5
			v-1C24,22.224,23.776,22,23.5,22z"/>
		<path d="M7.5,21C7.776,21,8,20.776,8,20.5v-1C8,19.224,7.776,19,7.5,19S7,19.224,7,19.5v1C7,20.776,7.224,21,7.5,21z"/>
		<path d="M11.5,23h-1c-0.276,0-0.5,0.224-0.5,0.5s0.224,0.5,0.5,0.5h1c0.276,0,0.5-0.224,0.5-0.5S11.776,23,11.5,23z"/>
		<path d="M14.5,23h-1c-0.276,0-0.5,0.224-0.5,0.5s0.224,0.5,0.5,0.5h1c0.276,0,0.5-0.224,0.5-0.5S14.776,23,14.5,23z"/>
		<path d="M11.5,16h-1c-0.276,0-0.5,0.224-0.5,0.5s0.224,0.5,0.5,0.5h1c0.276,0,0.5-0.224,0.5-0.5S11.776,16,11.5,16z"/>
		<path d="M14.5,16h-1c-0.276,0-0.5,0.224-0.5,0.5s0.224,0.5,0.5,0.5h1c0.276,0,0.5-0.224,0.5-0.5S14.776,16,14.5,16z"/>
		<path d="M17.5,23h-1c-0.276,0-0.5,0.224-0.5,0.5s0.224,0.5,0.5,0.5h1c0.276,0,0.5-0.224,0.5-0.5S17.776,23,17.5,23z"/>
		<path d="M20.5,23h-1c-0.276,0-0.5,0.224-0.5,0.5s0.224,0.5,0.5,0.5h1c0.276,0,0.5-0.224,0.5-0.5S20.776,23,20.5,23z"/>
		<path d="M20.5,7h-1C19.224,7,19,7.224,19,7.5S19.224,8,19.5,8h1C20.776,8,21,7.776,21,7.5S20.776,7,20.5,7z"/>
		<path d="M17.5,7H17V1c0-0.552-0.448-1-1-1H1C0.448,0,0,0.448,0,1v15c0,0.552,0.448,1,1,1h6v0.5C7,17.776,7.224,18,7.5,18
			S8,17.776,8,17.5V17c0.552,0,1-0.448,1-1c0-0.552-0.448-1-1-1H2V2h13v6c0,0.552,0.448,1,1,1s1-0.448,1-1h0.5
			C17.776,8,18,7.776,18,7.5S17.776,7,17.5,7z"/>
		<path d="M23.5,7h-1C22.224,7,22,7.224,22,7.5S22.224,8,22.5,8H23v0.5C23,8.776,23.224,9,23.5,9S24,8.776,24,8.5v-1
			C24,7.224,23.776,7,23.5,7z"/>
		<path d="M23.5,10c-0.276,0-0.5,0.224-0.5,0.5v1c0,0.276,0.224,0.5,0.5,0.5s0.5-0.224,0.5-0.5v-1C24,10.224,23.776,10,23.5,10z"/>
		<path d="M23.5,13c-0.276,0-0.5,0.224-0.5,0.5v1c0,0.276,0.224,0.5,0.5,0.5s0.5-0.224,0.5-0.5v-1C24,13.224,23.776,13,23.5,13z"/>
		<path d="M16.5,12c0.276,0,0.5-0.224,0.5-0.5v-1c0-0.276-0.224-0.5-0.5-0.5S16,10.224,16,10.5v1C16,11.776,16.224,12,16.5,12z"/>
		<path d="M16,14.5c0,0.276,0.224,0.5,0.5,0.5s0.5-0.224,0.5-0.5v-1c0-0.276-0.224-0.5-0.5-0.5S16,13.224,16,13.5V14.5z"/>
		<path d="M23.5,16c-0.276,0-0.5,0.224-0.5,0.5v1c0,0.276,0.224,0.5,0.5,0.5s0.5-0.224,0.5-0.5v-1C24,16.224,23.776,16,23.5,16z"/>
		<path d="M23.5,19c-0.276,0-0.5,0.224-0.5,0.5v1c0,0.276,0.224,0.5,0.5,0.5s0.5-0.224,0.5-0.5v-1C24,19.224,23.776,19,23.5,19z"/>
	</g>
</g>
<g id="Invisible_Shape">
	<rect fill="none" width="24" height="24"/>
</g>
</svg>
