<?xml version="1.0" encoding="utf-8"?>
<!-- Generator: Adobe Illustrator 19.2.1, SVG Export Plug-In . SVG Version: 6.00 Build 0)  -->
<svg version="1.1" xmlns="http://www.w3.org/2000/svg" xmlns:xlink="http://www.w3.org/1999/xlink" x="0px" y="0px" width="24px"
	 height="24px" viewBox="0 0 24 24" enable-background="new 0 0 24 24" xml:space="preserve">
<g id="Filled_Icon">
	<path d="M22,3C11.472,3,13.052,3,2,3C0.897,3,0,3.897,0,5v14c0,1.103,0.897,2,2,2h20c1.103,0,2-0.897,2-2c0-12.627,0-6.138,0-14
		C24,3.897,23.103,3,22,3z M22,5l0,4h-7V5H22z M2,19V5h11v5c0,0.552,0.448,1,1,1h8h0l0.001,8H2z"/>
</g>
<g id="Invisible_Shape">
	<rect fill="none" width="24" height="24"/>
</g>
</svg>
