<?xml version="1.0" encoding="utf-8"?>
<!-- Generator: Adobe Illustrator 19.2.1, SVG Export Plug-In . SVG Version: 6.00 Build 0)  -->
<svg version="1.1" xmlns="http://www.w3.org/2000/svg" xmlns:xlink="http://www.w3.org/1999/xlink" x="0px" y="0px" width="24px"
	 height="24px" viewBox="0 0 24 24" enable-background="new 0 0 24 24" xml:space="preserve">
<g id="Filled_Icon">
	<g>
		<path d="M12.5,13c0.267,0,0.533-0.106,0.73-0.316L19,6.529V9c0,0.552,0.448,1,1,1s1-0.448,1-1V4c0-0.006-0.001-0.011-0.001-0.016
			C20.985,3.403,20.507,3,20,3h-4.5c-0.552,0-1,0.448-1,1c0,0.552,0.448,1,1,1h2.192l-5.921,6.316
			c-0.377,0.403-0.357,1.036,0.045,1.413C12.009,12.91,12.254,13,12.5,13z"/>
		<path d="M2,13H0.5C0.224,13,0,13.224,0,13.5v1C0,14.776,0.224,15,0.5,15S1,14.776,1,14.5V14h1c0.276,0,0.5-0.224,0.5-0.5
			S2.276,13,2,13z"/>
		<path d="M6.5,14h1C7.776,14,8,13.776,8,13.5S7.776,13,7.5,13h-1C6.224,13,6,13.224,6,13.5S6.224,14,6.5,14z"/>
		<path d="M4.5,23h-1C3.224,23,3,23.224,3,23.5S3.224,24,3.5,24h1C4.776,24,5,23.776,5,23.5S4.776,23,4.5,23z"/>
		<path d="M7.5,23h-1C6.224,23,6,23.224,6,23.5S6.224,24,6.5,24h1C7.776,24,8,23.776,8,23.5S7.776,23,7.5,23z"/>
		<path d="M2,23H1v-1c0-0.276-0.224-0.5-0.5-0.5S0,21.724,0,22v1.5C0,23.776,0.224,24,0.5,24H2c0.276,0,0.5-0.224,0.5-0.5
			S2.276,23,2,23z"/>
		<path d="M0.5,18C0.776,18,1,17.776,1,17.5v-1C1,16.224,0.776,16,0.5,16S0,16.224,0,16.5v1C0,17.776,0.224,18,0.5,18z"/>
		<path d="M0.5,20.5C0.776,20.5,1,20.276,1,20v-1c0-0.276-0.224-0.5-0.5-0.5S0,18.724,0,19v1C0,20.276,0.224,20.5,0.5,20.5z"/>
		<path d="M9,14h1v0.5c0,0.276,0.224,0.5,0.5,0.5s0.5-0.224,0.5-0.5v-1c0-0.276-0.224-0.5-0.5-0.5H9c-0.276,0-0.5,0.224-0.5,0.5
			S8.724,14,9,14z"/>
		<path d="M23,0H4.031C3.478,0,3.031,0.448,3,1v20c0.031,0.552,0.478,1,1.031,1H10v1H9c-0.276,0-0.5,0.224-0.5,0.5S8.724,24,9,24
			h1.5c0.276,0,0.5-0.224,0.5-0.5V22h12c0.552,0,1-0.448,1-1V1C24,0.448,23.552,0,23,0z M22,20H11v-1c0-0.276-0.224-0.5-0.5-0.5
			S10,18.724,10,19v1H5V2h17V20z"/>
		<path d="M10.5,16c-0.276,0-0.5,0.224-0.5,0.5v1c0,0.276,0.224,0.5,0.5,0.5s0.5-0.224,0.5-0.5v-1C11,16.224,10.776,16,10.5,16z"/>
	</g>
</g>
<g id="Invisible_Shape">
	<rect fill="none" width="24" height="24"/>
</g>
</svg>
