<?xml version="1.0" encoding="utf-8"?>
<!-- Generator: Adobe Illustrator 19.2.1, SVG Export Plug-In . SVG Version: 6.00 Build 0)  -->
<svg version="1.1" xmlns="http://www.w3.org/2000/svg" xmlns:xlink="http://www.w3.org/1999/xlink" x="0px" y="0px" width="24px"
	 height="24px" viewBox="0 0 24 24" enable-background="new 0 0 24 24" xml:space="preserve">
<g id="Filled_Icon">
	<g>
		<path d="M23.5,22c-0.276,0-0.5,0.224-0.5,0.5V23h-0.5c-0.276,0-0.5,0.224-0.5,0.5s0.224,0.5,0.5,0.5h1c0.276,0,0.5-0.224,0.5-0.5
			v-1C24,22.224,23.776,22,23.5,22z"/>
		<path d="M11.5,23h-1c-0.276,0-0.5,0.224-0.5,0.5s0.224,0.5,0.5,0.5h1c0.276,0,0.5-0.224,0.5-0.5S11.776,23,11.5,23z"/>
		<path d="M8.5,23h-1C7.224,23,7,23.224,7,23.5S7.224,24,7.5,24h1C8.776,24,9,23.776,9,23.5S8.776,23,8.5,23z"/>
		<path d="M14.5,23h-1c-0.276,0-0.5,0.224-0.5,0.5s0.224,0.5,0.5,0.5h1c0.276,0,0.5-0.224,0.5-0.5S14.776,23,14.5,23z"/>
		<path d="M17.5,23h-1c-0.276,0-0.5,0.224-0.5,0.5s0.224,0.5,0.5,0.5h1c0.276,0,0.5-0.224,0.5-0.5S17.776,23,17.5,23z"/>
		<path d="M20.5,23h-1c-0.276,0-0.5,0.224-0.5,0.5s0.224,0.5,0.5,0.5h1c0.276,0,0.5-0.224,0.5-0.5S20.776,23,20.5,23z"/>
		<path d="M23.5,16c-0.276,0-0.5,0.224-0.5,0.5v1c0,0.276,0.224,0.5,0.5,0.5s0.5-0.224,0.5-0.5v-1C24,16.224,23.776,16,23.5,16z"/>
		<path d="M23.5,13c-0.276,0-0.5,0.224-0.5,0.5v1c0,0.276,0.224,0.5,0.5,0.5s0.5-0.224,0.5-0.5v-1C24,13.224,23.776,13,23.5,13z"/>
		<path d="M23.5,10c-0.276,0-0.5,0.224-0.5,0.5v1c0,0.276,0.224,0.5,0.5,0.5s0.5-0.224,0.5-0.5v-1C24,10.224,23.776,10,23.5,10z"/>
		<path d="M23.5,7C23.224,7,23,7.224,23,7.5v1C23,8.776,23.224,9,23.5,9S24,8.776,24,8.5v-1C24,7.224,23.776,7,23.5,7z"/>
		<path d="M23.5,19c-0.276,0-0.5,0.224-0.5,0.5v1c0,0.276,0.224,0.5,0.5,0.5s0.5-0.224,0.5-0.5v-1C24,19.224,23.776,19,23.5,19z"/>
		<path d="M23.625,4.219l-5-4c-0.431-0.344-1.06-0.276-1.405,0.156c-0.345,0.431-0.275,1.06,0.156,1.405L20.149,4H5
			C4.448,4,4,4.448,4,5v15.15l-2.219-2.774c-0.345-0.431-0.975-0.501-1.405-0.156c-0.432,0.345-0.502,0.975-0.156,1.405l4,5
			c0.427,0.524,1.179,0.469,1.562,0l4-5c0.345-0.431,0.275-1.061-0.156-1.405c-0.43-0.345-1.06-0.276-1.405,0.156L6,20.15V6h14.149
			l-2.774,2.219c-0.432,0.345-0.501,0.975-0.156,1.405c0.343,0.429,0.973,0.502,1.405,0.156l5-4
			C24.135,5.365,24.112,4.616,23.625,4.219z"/>
	</g>
</g>
<g id="Invisible_Shape">
	<rect fill="none" width="24" height="24"/>
</g>
</svg>
