<?xml version="1.0" encoding="utf-8"?>
<!-- Generator: Adobe Illustrator 19.2.1, SVG Export Plug-In . SVG Version: 6.00 Build 0)  -->
<svg version="1.1" xmlns="http://www.w3.org/2000/svg" xmlns:xlink="http://www.w3.org/1999/xlink" x="0px" y="0px" width="24px"
	 height="24px" viewBox="0 0 24 24" enable-background="new 0 0 24 24" xml:space="preserve">
<g id="Filled_Icon">
	<g>
		<path d="M8.5,23H8v-0.5C8,22.224,7.776,22,7.5,22S7,22.224,7,22.5v1C7,23.776,7.224,24,7.5,24h1C8.776,24,9,23.776,9,23.5
			S8.776,23,8.5,23z"/>
		<path d="M23.5,22c-0.276,0-0.5,0.224-0.5,0.5V23h-0.5c-0.276,0-0.5,0.224-0.5,0.5s0.224,0.5,0.5,0.5h1c0.276,0,0.5-0.224,0.5-0.5
			v-1C24,22.224,23.776,22,23.5,22z"/>
		<path d="M11.5,23h-1c-0.276,0-0.5,0.224-0.5,0.5s0.224,0.5,0.5,0.5h1c0.276,0,0.5-0.224,0.5-0.5S11.776,23,11.5,23z"/>
		<path d="M14.5,23h-1c-0.276,0-0.5,0.224-0.5,0.5s0.224,0.5,0.5,0.5h1c0.276,0,0.5-0.224,0.5-0.5S14.776,23,14.5,23z"/>
		<path d="M17.5,23h-1c-0.276,0-0.5,0.224-0.5,0.5s0.224,0.5,0.5,0.5h1c0.276,0,0.5-0.224,0.5-0.5S17.776,23,17.5,23z"/>
		<path d="M20.5,23h-1c-0.276,0-0.5,0.224-0.5,0.5s0.224,0.5,0.5,0.5h1c0.276,0,0.5-0.224,0.5-0.5S20.776,23,20.5,23z"/>
		<path d="M23.5,13h-1c-0.276,0-0.5,0.224-0.5,0.5s0.224,0.5,0.5,0.5H23v0.5c0,0.276,0.224,0.5,0.5,0.5s0.5-0.224,0.5-0.5v-1
			C24,13.224,23.776,13,23.5,13z"/>
		<path d="M11.5,13H11V0.5C11,0.224,10.776,0,10.5,0h-10C0.224,0,0,0.224,0,0.5v16C0,16.776,0.224,17,0.5,17H7v0.5
			C7,17.776,7.224,18,7.5,18S8,17.776,8,17.5V17h2.5c0.276,0,0.5-0.224,0.5-0.5V14h0.5c0.276,0,0.5-0.224,0.5-0.5S11.776,13,11.5,13
			z"/>
		<path d="M14.5,13h-1c-0.276,0-0.5,0.224-0.5,0.5s0.224,0.5,0.5,0.5h1c0.276,0,0.5-0.224,0.5-0.5S14.776,13,14.5,13z"/>
		<path d="M17.5,13h-1c-0.276,0-0.5,0.224-0.5,0.5s0.224,0.5,0.5,0.5h1c0.276,0,0.5-0.224,0.5-0.5S17.776,13,17.5,13z"/>
		<path d="M20.5,13h-1c-0.276,0-0.5,0.224-0.5,0.5s0.224,0.5,0.5,0.5h1c0.276,0,0.5-0.224,0.5-0.5S20.776,13,20.5,13z"/>
		<path d="M23.5,16c-0.276,0-0.5,0.224-0.5,0.5v1c0,0.276,0.224,0.5,0.5,0.5s0.5-0.224,0.5-0.5v-1C24,16.224,23.776,16,23.5,16z"/>
		<path d="M23.5,19c-0.276,0-0.5,0.224-0.5,0.5v1c0,0.276,0.224,0.5,0.5,0.5s0.5-0.224,0.5-0.5v-1C24,19.224,23.776,19,23.5,19z"/>
		<path d="M7.5,21C7.776,21,8,20.776,8,20.5v-1C8,19.224,7.776,19,7.5,19S7,19.224,7,19.5v1C7,20.776,7.224,21,7.5,21z"/>
		<path d="M13.704,4H16.5C18.43,4,20,5.57,20,7.5v2.793l-2.146-2.147c-0.195-0.195-0.512-0.195-0.707,0
			c-0.195,0.195-0.195,0.512,0,0.707l3,2.999c0.197,0.2,0.517,0.193,0.708,0l3-2.999c0.195-0.195,0.195-0.512,0-0.707
			c-0.195-0.195-0.512-0.195-0.707,0L21,10.293V7.5C21,5.019,18.981,3,16.5,3h-2.796l2.147-2.147c0.195-0.195,0.195-0.512,0-0.707
			s-0.512-0.195-0.707,0l-3,2.999c-0.196,0.196-0.194,0.514,0,0.708l3,2.999c0.195,0.195,0.512,0.195,0.707,0
			c0.195-0.195,0.195-0.512,0-0.707L13.704,4z"/>
	</g>
</g>
<g id="Invisible_Shape">
	<rect fill="none" width="24" height="24"/>
</g>
</svg>
