<?xml version="1.0" encoding="utf-8"?>
<!-- Generator: Adobe Illustrator 19.2.1, SVG Export Plug-In . SVG Version: 6.00 Build 0)  -->
<svg version="1.1" xmlns="http://www.w3.org/2000/svg" xmlns:xlink="http://www.w3.org/1999/xlink" x="0px" y="0px" width="24px"
	 height="24px" viewBox="0 0 24 24" enable-background="new 0 0 24 24" xml:space="preserve">
<g id="Filled_Icon">
	<g>
		<path d="M18.5,13c-3.033,0-5.5,2.469-5.5,5.5c0,3.032,2.467,5.5,5.5,5.5s5.5-2.468,5.5-5.5C24,15.469,21.533,13,18.5,13z
			 M20.854,17.854c-0.195,0.195-0.512,0.195-0.707,0L19,16.706V21.5c0,0.276-0.224,0.5-0.5,0.5S18,21.776,18,21.5v-4.794
			l-1.146,1.147c-0.195,0.195-0.512,0.195-0.707,0c-0.195-0.195-0.195-0.512,0-0.707l2-2c0.195-0.195,0.512-0.195,0.707,0l2,2
			C21.049,17.342,21.049,17.659,20.854,17.854z"/>
		<g>
			<rect x="7" y="14" width="5" height="6"/>
			<rect y="7" width="6" height="6"/>
			<path d="M13,6h6V2.5C19,1.122,17.878,0,16.5,0H13V6z"/>
			<path d="M13,7v6h2.073c1.138-0.71,2.454-1.07,3.927-0.962V7H13z"/>
			<rect x="7" width="5" height="6"/>
			<path d="M6,14H0v3.5C0,18.878,1.122,20,2.5,20H6V14z"/>
			<path d="M6,6V0H2.5C1.122,0,0,1.122,0,2.5V6H6z"/>
			<rect x="7" y="7" width="5" height="6"/>
		</g>
	</g>
</g>
<g id="Invisible_Shape">
	<rect fill="none" width="24" height="24"/>
</g>
</svg>
