<?xml version="1.0" encoding="utf-8"?>
<!-- Generator: Adobe Illustrator 19.2.1, SVG Export Plug-In . SVG Version: 6.00 Build 0)  -->
<svg version="1.1" xmlns="http://www.w3.org/2000/svg" xmlns:xlink="http://www.w3.org/1999/xlink" x="0px" y="0px" width="24px"
	 height="24px" viewBox="0 0 24 24" enable-background="new 0 0 24 24" xml:space="preserve">
<g id="Filled_Icon">
	<g>
		<path d="M18.5,13c-3.037,0-5.5,2.463-5.5,5.5s2.463,5.5,5.5,5.5s5.5-2.463,5.5-5.5S21.537,13,18.5,13z M21.354,17.354l-3,3
			c-0.195,0.195-0.512,0.195-0.707,0l-2-2c-0.195-0.194-0.195-0.512,0-0.707c0.195-0.195,0.512-0.195,0.707,0L18,19.293l2.646-2.646
			c0.195-0.195,0.512-0.195,0.707,0C21.549,16.842,21.549,17.159,21.354,17.354z"/>
		<g>
			<rect y="7" width="6" height="6"/>
			<rect x="7" y="14" width="5" height="6"/>
			<path d="M13,7v6h2.052c1.148-0.723,2.497-1.089,3.948-0.974V7H13z"/>
			<path d="M13,6h6V2.5C19,1.122,17.878,0,16.5,0H13V6z"/>
			<path d="M6,6V0H2.5C1.122,0,0,1.122,0,2.5V6H6z"/>
			<path d="M6,14H0v3.5C0,18.878,1.122,20,2.5,20H6V14z"/>
			<rect x="7" y="7" width="5" height="6"/>
			<rect x="7" width="5" height="6"/>
		</g>
	</g>
</g>
<g id="Invisible_Shape">
	<rect fill="none" width="24" height="24"/>
</g>
</svg>
