<?xml version="1.0" encoding="utf-8"?>
<!-- Generator: Adobe Illustrator 19.2.1, SVG Export Plug-In . SVG Version: 6.00 Build 0)  -->
<svg version="1.1" xmlns="http://www.w3.org/2000/svg" xmlns:xlink="http://www.w3.org/1999/xlink" x="0px" y="0px" width="24px"
	 height="24px" viewBox="0 0 24 24" enable-background="new 0 0 24 24" xml:space="preserve">
<g id="Filled_Icon">
	<g>
		<rect y="7" width="6" height="6"/>
		<path d="M13,6h6V2.5C19,1.122,17.878,0,16.5,0H13V6z"/>
		<rect x="7" y="14" width="5" height="6"/>
		<rect x="7" y="7" width="5" height="6"/>
		<rect x="7" width="5" height="6"/>
		<path d="M6,14H0v3.5C0,18.878,1.122,20,2.5,20H6V14z"/>
		<path d="M6,6V0H2.5C1.122,0,0,1.122,0,2.5V6H6z"/>
		<polygon points="16.562,14 13,14 13,20 13.562,20 		"/>
		<path d="M19,12.091V7h-6v6h4.062C17.53,12.064,18.246,11.835,19,12.091z"/>
		<path d="M23.948,23.254l-5-10c-0.17-0.338-0.725-0.338-0.895,0l-5,10c-0.166,0.334,0.077,0.724,0.447,0.724h10
			C23.871,23.978,24.114,23.588,23.948,23.254z M18.5,21.978c-0.276,0-0.5-0.223-0.5-0.5c0-0.275,0.224-0.5,0.5-0.5
			c0.275,0,0.5,0.225,0.5,0.5C19,21.754,18.776,21.978,18.5,21.978z M19,20c0,0.276-0.224,0.5-0.5,0.5S18,20.276,18,20v-3
			c0-0.276,0.224-0.5,0.5-0.5S19,16.724,19,17V20z"/>
	</g>
</g>
<g id="Invisible_Shape">
	<rect fill="none" width="24" height="24"/>
</g>
</svg>
