<?xml version="1.0" encoding="utf-8"?>
<!-- Generator: Adobe Illustrator 19.2.1, SVG Export Plug-In . SVG Version: 6.00 Build 0)  -->
<svg version="1.1" xmlns="http://www.w3.org/2000/svg" xmlns:xlink="http://www.w3.org/1999/xlink" x="0px" y="0px" width="24px"
	 height="24px" viewBox="0 0 24 24" enable-background="new 0 0 24 24" xml:space="preserve">
<g id="Filled_Icon">
	<g>
		<g>
			<rect x="7" y="7" width="5" height="6"/>
			<path d="M13,6h6V2.5C19,1.122,17.878,0,16.5,0H13V6z"/>
			<rect x="7" width="5" height="6"/>
			<rect y="7" width="6" height="6"/>
			<path d="M13,7v6h3.079c1.069-0.356,1.982-0.396,2.921-0.231V7H13z"/>
			<path d="M6,14H0v3.5C0,18.878,1.122,20,2.5,20H6V14z"/>
			<path d="M12,20v-1.857c-0.694-0.805-0.619-1.567,0-2.284V14H7v6L12,20z"/>
			<path d="M6,6V0H2.5C1.122,0,0,1.122,0,2.5V6H6z"/>
		</g>
		<g>
			<g>
				<path d="M14.126,18.784l4.978-4.979c-2.671-0.62-5.223,1.273-6.497,2.884c-0.144,0.183-0.104,0.489,0,0.621
					C12.655,17.37,13.222,18.073,14.126,18.784z"/>
				<path d="M23.392,16.69c-0.046-0.059-0.601-0.744-1.484-1.446l-4.959,4.959c2.471,0.552,4.956-1.006,6.443-2.88
					C23.534,17.145,23.536,16.87,23.392,16.69z"/>
			</g>
			<g>
				<path d="M13.757,21.274c-0.195-0.195-0.195-0.511,0-0.707l7.778-7.779c0.195-0.195,0.512-0.195,0.707,0
					c0.195,0.195,0.195,0.512,0,0.707l-7.778,7.779C14.269,21.469,13.953,21.469,13.757,21.274z"/>
			</g>
		</g>
	</g>
</g>
<g id="Invisible_Shape">
	<rect fill="none" width="24" height="24"/>
</g>
</svg>
