<?xml version="1.0" encoding="utf-8"?>
<!-- Generator: Adobe Illustrator 19.2.1, SVG Export Plug-In . SVG Version: 6.00 Build 0)  -->
<svg version="1.1" xmlns="http://www.w3.org/2000/svg" xmlns:xlink="http://www.w3.org/1999/xlink" x="0px" y="0px" width="24px"
	 height="24px" viewBox="0 0 24 24" enable-background="new 0 0 24 24" xml:space="preserve">
<g id="Filled_Icon">
	<g>
		<g>
			<rect x="7" y="14" width="5" height="6"/>
			<rect x="7" y="7" width="5" height="6"/>
			<rect y="7" width="6" height="6"/>
			<rect x="7" width="5" height="6"/>
			<path d="M13,6h6V2.5C19,1.122,17.878,0,16.5,0H13V6z"/>
			<rect x="13" y="7" width="6" height="6"/>
			<path d="M6,14H0v3.5C0,18.878,1.122,20,2.5,20H6V14z"/>
			<path d="M6,6V0H2.5C1.122,0,0,1.122,0,2.5V6H6z"/>
		</g>
		<g>
			<path d="M20,18v1c0,0.551-0.449,1-1,1s-1-0.449-1-1v-1h-4v1c0,2.757,2.243,5,5,5s5-2.243,5-5v-1H20z"/>
			<path d="M24,17v-2.5c0-0.276-0.224-0.5-0.5-0.5h-3c-0.276,0-0.5,0.224-0.5,0.5V17H24z"/>
			<path d="M18,17v-2.5c0-0.276-0.224-0.5-0.5-0.5h-3c-0.276,0-0.5,0.224-0.5,0.5V17H18z"/>
		</g>
	</g>
</g>
<g id="Invisible_Shape">
	<rect fill="none" width="24" height="24"/>
</g>
</svg>
