<?xml version="1.0" encoding="utf-8"?>
<!-- Generator: Adobe Illustrator 19.2.1, SVG Export Plug-In . SVG Version: 6.00 Build 0)  -->
<svg version="1.1" xmlns="http://www.w3.org/2000/svg" xmlns:xlink="http://www.w3.org/1999/xlink" x="0px" y="0px" width="24px"
	 height="24px" viewBox="0 0 24 24" enable-background="new 0 0 24 24" xml:space="preserve">
<g id="Filled_Icon">
	<g>
		<path d="M23.5,16H23v-0.5c0-1.93-1.57-3.5-3.5-3.5S16,13.57,16,15.5V16h-0.5c-0.276,0-0.5,0.224-0.5,0.5v7
			c0,0.276,0.224,0.5,0.5,0.5h8c0.276,0,0.5-0.224,0.5-0.5v-7C24,16.224,23.776,16,23.5,16z M17,15.5c0-1.379,1.121-2.5,2.5-2.5
			s2.5,1.121,2.5,2.5V16h-5V15.5z M20,19.847v1.654c0,0.276-0.225,0.5-0.501,0.5c-0.276,0-0.499-0.224-0.499-0.5v-1.654
			c-0.294-0.174-0.5-0.482-0.5-0.847c0-0.552,0.448-1,1-1s1,0.448,1,1C20.5,19.365,20.293,19.672,20,19.847z"/>
		<rect y="7" width="6" height="6"/>
		<rect x="7" y="7" width="5" height="6"/>
		<rect x="7" width="5" height="6"/>
		<path d="M6,6V0H2.5C1.122,0,0,1.122,0,2.5V6H6z"/>
		<path d="M6,14H0v3.5C0,18.878,1.122,20,2.5,20H6V14z"/>
		<path d="M13,6V0h3.5C17.878,0,19,1.122,19,2.5V6H13z"/>
		<rect x="7" y="14" width="5" height="6"/>
		<g>
			<path d="M14,16.5c0-0.659,0.427-1.219,1.019-1.421c0.035-0.377,0.132-0.734,0.255-1.079H13v6h1V16.5z"/>
		</g>
		<path d="M19,11.048V7h-6v6h2.779C16.499,11.932,17.657,11.199,19,11.048z"/>
	</g>
</g>
<g id="Invisible_Shape">
	<rect fill="none" width="24" height="24"/>
</g>
</svg>
