<?xml version="1.0" encoding="utf-8"?>
<!-- Generator: Adobe Illustrator 19.2.1, SVG Export Plug-In . SVG Version: 6.00 Build 0)  -->
<svg version="1.1" xmlns="http://www.w3.org/2000/svg" xmlns:xlink="http://www.w3.org/1999/xlink" x="0px" y="0px" width="24px"
	 height="24px" viewBox="0 0 24 24" enable-background="new 0 0 24 24" xml:space="preserve">
<g id="Filled_Icon">
	<g>
		<path d="M15.5,1H16v0.5C16,1.776,16.224,2,16.5,2S17,1.776,17,1.5v-1C17,0.224,16.776,0,16.5,0h-1C15.224,0,15,0.224,15,0.5
			S15.224,1,15.5,1z"/>
		<path d="M1.5,0h-1C0.224,0,0,0.224,0,0.5v1C0,1.776,0.224,2,0.5,2S1,1.776,1,1.5V1h0.5C1.776,1,2,0.776,2,0.5S1.776,0,1.5,0z"/>
		<path d="M16.5,3C16.224,3,16,3.224,16,3.5v1C16,4.776,16.224,5,16.5,5S17,4.776,17,4.5v-1C17,3.224,16.776,3,16.5,3z"/>
		<path d="M12.5,1h1C13.776,1,14,0.776,14,0.5S13.776,0,13.5,0h-1C12.224,0,12,0.224,12,0.5S12.224,1,12.5,1z"/>
		<path d="M9.5,1h1C10.776,1,11,0.776,11,0.5S10.776,0,10.5,0h-1C9.224,0,9,0.224,9,0.5S9.224,1,9.5,1z"/>
		<path d="M6.5,1h1C7.776,1,8,0.776,8,0.5S7.776,0,7.5,0h-1C6.224,0,6,0.224,6,0.5S6.224,1,6.5,1z"/>
		<path d="M4.5,0h-1C3.224,0,3,0.224,3,0.5S3.224,1,3.5,1h1C4.776,1,5,0.776,5,0.5S4.776,0,4.5,0z"/>
		<path d="M4.5,16h-1C3.224,16,3,16.224,3,16.5S3.224,17,3.5,17h1C4.776,17,5,16.776,5,16.5S4.776,16,4.5,16z"/>
		<path d="M1.5,16H1v-0.5C1,15.224,0.776,15,0.5,15S0,15.224,0,15.5v1C0,16.776,0.224,17,0.5,17h1C1.776,17,2,16.776,2,16.5
			S1.776,16,1.5,16z"/>
		<path d="M0.5,14C0.776,14,1,13.776,1,13.5v-1C1,12.224,0.776,12,0.5,12S0,12.224,0,12.5v1C0,13.776,0.224,14,0.5,14z"/>
		<path d="M0.5,11C0.776,11,1,10.776,1,10.5v-1C1,9.224,0.776,9,0.5,9S0,9.224,0,9.5v1C0,10.776,0.224,11,0.5,11z"/>
		<path d="M0.5,8C0.776,8,1,7.776,1,7.5v-1C1,6.224,0.776,6,0.5,6S0,6.224,0,6.5v1C0,7.776,0.224,8,0.5,8z"/>
		<path d="M0.5,5C0.776,5,1,4.776,1,4.5v-1C1,3.224,0.776,3,0.5,3S0,3.224,0,3.5v1C0,4.776,0.224,5,0.5,5z"/>
		<path d="M8.5,23H8v-0.5C8,22.224,7.776,22,7.5,22S7,22.224,7,22.5v1C7,23.776,7.224,24,7.5,24h1C8.776,24,9,23.776,9,23.5
			S8.776,23,8.5,23z"/>
		<path d="M23.5,22c-0.276,0-0.5,0.224-0.5,0.5V23h-0.5c-0.276,0-0.5,0.224-0.5,0.5s0.224,0.5,0.5,0.5h1c0.276,0,0.5-0.224,0.5-0.5
			v-1C24,22.224,23.776,22,23.5,22z"/>
		<path d="M7.5,21C7.776,21,8,20.776,8,20.5v-1C8,19.224,7.776,19,7.5,19S7,19.224,7,19.5v1C7,20.776,7.224,21,7.5,21z"/>
		<path d="M11.5,23h-1c-0.276,0-0.5,0.224-0.5,0.5s0.224,0.5,0.5,0.5h1c0.276,0,0.5-0.224,0.5-0.5S11.776,23,11.5,23z"/>
		<path d="M14.5,23h-1c-0.276,0-0.5,0.224-0.5,0.5s0.224,0.5,0.5,0.5h1c0.276,0,0.5-0.224,0.5-0.5S14.776,23,14.5,23z"/>
		<path d="M17.5,23h-1c-0.276,0-0.5,0.224-0.5,0.5s0.224,0.5,0.5,0.5h1c0.276,0,0.5-0.224,0.5-0.5S17.776,23,17.5,23z"/>
		<path d="M20.5,23h-1c-0.276,0-0.5,0.224-0.5,0.5s0.224,0.5,0.5,0.5h1c0.276,0,0.5-0.224,0.5-0.5S20.776,23,20.5,23z"/>
		<path d="M17.5,7H17V6.5C17,6.224,16.776,6,16.5,6S16,6.224,16,6.5V7H8C7.448,7,7,7.448,7,8v8H6.5C6.224,16,6,16.224,6,16.5
			S6.224,17,6.5,17H7v0.5C7,17.776,7.224,18,7.5,18S8,17.776,8,17.5V17h8c0.552,0,1-0.448,1-1V8h0.5C17.776,8,18,7.776,18,7.5
			S17.776,7,17.5,7z M15,15H9V9h6V15z"/>
		<path d="M20.5,7h-1C19.224,7,19,7.224,19,7.5S19.224,8,19.5,8h1C20.776,8,21,7.776,21,7.5S20.776,7,20.5,7z"/>
		<path d="M23.5,7h-1C22.224,7,22,7.224,22,7.5S22.224,8,22.5,8H23v0.5C23,8.776,23.224,9,23.5,9S24,8.776,24,8.5v-1
			C24,7.224,23.776,7,23.5,7z"/>
		<path d="M23.5,10c-0.276,0-0.5,0.224-0.5,0.5v1c0,0.276,0.224,0.5,0.5,0.5s0.5-0.224,0.5-0.5v-1C24,10.224,23.776,10,23.5,10z"/>
		<path d="M23.5,13c-0.276,0-0.5,0.224-0.5,0.5v1c0,0.276,0.224,0.5,0.5,0.5s0.5-0.224,0.5-0.5v-1C24,13.224,23.776,13,23.5,13z"/>
		<path d="M23.5,16c-0.276,0-0.5,0.224-0.5,0.5v1c0,0.276,0.224,0.5,0.5,0.5s0.5-0.224,0.5-0.5v-1C24,16.224,23.776,16,23.5,16z"/>
		<path d="M23.5,19c-0.276,0-0.5,0.224-0.5,0.5v1c0,0.276,0.224,0.5,0.5,0.5s0.5-0.224,0.5-0.5v-1C24,19.224,23.776,19,23.5,19z"/>
	</g>
</g>
<g id="Invisible_Shape">
	<rect fill="none" width="24" height="24"/>
</g>
</svg>
