<?xml version="1.0" encoding="utf-8"?>
<!-- Generator: Adobe Illustrator 19.2.1, SVG Export Plug-In . SVG Version: 6.00 Build 0)  -->
<svg version="1.1" xmlns="http://www.w3.org/2000/svg" xmlns:xlink="http://www.w3.org/1999/xlink" x="0px" y="0px" width="24px"
	 height="24px" viewBox="0 0 24 24" enable-background="new 0 0 24 24" xml:space="preserve">
<g id="Filled_Icon">
	<g>
		<path d="M0.5,9C0.776,9,1,8.776,1,8.5v-1C1,7.224,0.776,7,0.5,7S0,7.224,0,7.5v1C0,8.776,0.224,9,0.5,9z"/>
		<path d="M4.5,23h-1C3.224,23,3,23.224,3,23.5S3.224,24,3.5,24h1C4.776,24,5,23.776,5,23.5S4.776,23,4.5,23z"/>
		<path d="M7.5,23h-1C6.224,23,6,23.224,6,23.5S6.224,24,6.5,24h1C7.776,24,8,23.776,8,23.5S7.776,23,7.5,23z"/>
		<path d="M10.5,23h-1C9.224,23,9,23.224,9,23.5S9.224,24,9.5,24h1c0.276,0,0.5-0.224,0.5-0.5S10.776,23,10.5,23z"/>
		<path d="M13.5,23h-1c-0.276,0-0.5,0.224-0.5,0.5s0.224,0.5,0.5,0.5h1c0.276,0,0.5-0.224,0.5-0.5S13.776,23,13.5,23z"/>
		<path d="M16.5,23h-1c-0.276,0-0.5,0.224-0.5,0.5s0.224,0.5,0.5,0.5h1c0.276,0,0.5-0.224,0.5-0.5S16.776,23,16.5,23z"/>
		<path d="M1.5,23H1v-0.5C1,22.224,0.776,22,0.5,22S0,22.224,0,22.5v1C0,23.776,0.224,24,0.5,24h1C1.776,24,2,23.776,2,23.5
			S1.776,23,1.5,23z"/>
		<path d="M0.5,21C0.776,21,1,20.776,1,20.5v-1C1,19.224,0.776,19,0.5,19S0,19.224,0,19.5v1C0,20.776,0.224,21,0.5,21z"/>
		<path d="M0.5,18C0.776,18,1,17.776,1,17.5v-1C1,16.224,0.776,16,0.5,16S0,16.224,0,16.5v1C0,17.776,0.224,18,0.5,18z"/>
		<path d="M0.5,15C0.776,15,1,14.776,1,14.5v-1C1,13.224,0.776,13,0.5,13S0,13.224,0,13.5v1C0,14.776,0.224,15,0.5,15z"/>
		<path d="M0.5,12C0.776,12,1,11.776,1,11.5v-1C1,10.224,0.776,10,0.5,10S0,10.224,0,10.5v1C0,11.776,0.224,12,0.5,12z"/>
		<path d="M23,0H4C3.448,0,3,0.448,3,1v19c0,0.552,0.448,1,1,1h19c0.552,0,1-0.448,1-1V1C24,0.448,23.552,0,23,0z M22,19H5V2h17V19z
			"/>
	</g>
</g>
<g id="Invisible_Shape">
	<rect fill="none" width="24" height="24"/>
</g>
</svg>
