<?xml version="1.0" encoding="utf-8"?>
<!-- Generator: Adobe Illustrator 19.2.1, SVG Export Plug-In . SVG Version: 6.00 Build 0)  -->
<svg version="1.1" xmlns="http://www.w3.org/2000/svg" xmlns:xlink="http://www.w3.org/1999/xlink" x="0px" y="0px" width="24px"
	 height="24px" viewBox="0 0 24 24" enable-background="new 0 0 24 24" xml:space="preserve">
<g id="Filled_Icon">
	<g>
		<path d="M16,22H2V8c0-0.552-0.448-1-1-1S0,7.448,0,8v15c0,0.552,0.448,1,1,1h15c0.552,0,1-0.448,1-1C17,22.448,16.552,22,16,22z"
			/>
		<path d="M4.5,2C4.776,2,5,1.776,5,1.5V1h0.5C5.776,1,6,0.776,6,0.5S5.776,0,5.5,0h-1C4.224,0,4,0.224,4,0.5v1
			C4,1.776,4.224,2,4.5,2z"/>
		<path d="M23.5,0h-1C22.224,0,22,0.224,22,0.5S22.224,1,22.5,1H23v0.5C23,1.776,23.224,2,23.5,2S24,1.776,24,1.5v-1
			C24,0.224,23.776,0,23.5,0z"/>
		<path d="M4.5,5C4.776,5,5,4.776,5,4.5v-1C5,3.224,4.776,3,4.5,3S4,3.224,4,3.5v1C4,4.776,4.224,5,4.5,5z"/>
		<path d="M7.5,1h1C8.776,1,9,0.776,9,0.5S8.776,0,8.5,0h-1C7.224,0,7,0.224,7,0.5S7.224,1,7.5,1z"/>
		<path d="M7.5,20h1C8.776,20,9,19.776,9,19.5S8.776,19,8.5,19h-1C7.224,19,7,19.224,7,19.5S7.224,20,7.5,20z"/>
		<path d="M10.5,1h1C11.776,1,12,0.776,12,0.5S11.776,0,11.5,0h-1C10.224,0,10,0.224,10,0.5S10.224,1,10.5,1z"/>
		<path d="M13.5,1h1C14.776,1,15,0.776,15,0.5S14.776,0,14.5,0h-1C13.224,0,13,0.224,13,0.5S13.224,1,13.5,1z"/>
		<path d="M17.5,0h-1C16.224,0,16,0.224,16,0.5S16.224,1,16.5,1h1C17.776,1,18,0.776,18,0.5S17.776,0,17.5,0z"/>
		<path d="M20.5,0h-1C19.224,0,19,0.224,19,0.5S19.224,1,19.5,1h1C20.776,1,21,0.776,21,0.5S20.776,0,20.5,0z"/>
		<path d="M10.5,20h1c0.276,0,0.5-0.224,0.5-0.5S11.776,19,11.5,19h-1c-0.276,0-0.5,0.224-0.5,0.5S10.224,20,10.5,20z"/>
		<path d="M13.5,20h1c0.276,0,0.5-0.224,0.5-0.5S14.776,19,14.5,19h-1c-0.276,0-0.5,0.224-0.5,0.5S13.224,20,13.5,20z"/>
		<path d="M17.5,19h-1c-0.276,0-0.5,0.224-0.5,0.5s0.224,0.5,0.5,0.5h1c0.276,0,0.5-0.224,0.5-0.5S17.776,19,17.5,19z"/>
		<path d="M20.5,19h-1c-0.276,0-0.5,0.224-0.5,0.5s0.224,0.5,0.5,0.5h1c0.276,0,0.5-0.224,0.5-0.5S20.776,19,20.5,19z"/>
		<path d="M23.5,18c-0.276,0-0.5,0.224-0.5,0.5V19h-0.5c-0.276,0-0.5,0.224-0.5,0.5s0.224,0.5,0.5,0.5h1c0.276,0,0.5-0.224,0.5-0.5
			v-1C24,18.224,23.776,18,23.5,18z"/>
		<path d="M23.5,15c-0.276,0-0.5,0.224-0.5,0.5v1c0,0.276,0.224,0.5,0.5,0.5s0.5-0.224,0.5-0.5v-1C24,15.224,23.776,15,23.5,15z"/>
		<path d="M4.5,20h1C5.776,20,6,19.776,6,19.5S5.776,19,5.5,19H5v-0.5C5,18.224,4.776,18,4.5,18S4,18.224,4,18.5v1
			C4,19.776,4.224,20,4.5,20z"/>
		<path d="M4.5,17C4.776,17,5,16.776,5,16.5v-1C5,15.224,4.776,15,4.5,15S4,15.224,4,15.5v1C4,16.776,4.224,17,4.5,17z"/>
		<path d="M23.5,12c-0.276,0-0.5,0.224-0.5,0.5v1c0,0.276,0.224,0.5,0.5,0.5s0.5-0.224,0.5-0.5v-1C24,12.224,23.776,12,23.5,12z"/>
		<path d="M23.5,9C23.224,9,23,9.224,23,9.5v1c0,0.276,0.224,0.5,0.5,0.5s0.5-0.224,0.5-0.5v-1C24,9.224,23.776,9,23.5,9z"/>
		<path d="M23.5,6C23.224,6,23,6.224,23,6.5v1C23,7.776,23.224,8,23.5,8S24,7.776,24,7.5v-1C24,6.224,23.776,6,23.5,6z"/>
		<path d="M4.5,14C4.776,14,5,13.776,5,13.5v-1C5,12.224,4.776,12,4.5,12S4,12.224,4,12.5v1C4,13.776,4.224,14,4.5,14z"/>
		<path d="M4.5,11C4.776,11,5,10.776,5,10.5v-1C5,9.224,4.776,9,4.5,9S4,9.224,4,9.5v1C4,10.776,4.224,11,4.5,11z"/>
		<path d="M4.5,8C4.776,8,5,7.776,5,7.5v-1C5,6.224,4.776,6,4.5,6S4,6.224,4,6.5v1C4,7.776,4.224,8,4.5,8z"/>
		<path d="M23.5,3C23.224,3,23,3.224,23,3.5v1C23,4.776,23.224,5,23.5,5S24,4.776,24,4.5v-1C24,3.224,23.776,3,23.5,3z"/>
	</g>
</g>
<g id="Invisible_Shape">
	<rect fill="none" width="24" height="24"/>
</g>
</svg>
