<?xml version="1.0" encoding="utf-8"?>
<!-- Generator: Adobe Illustrator 19.2.1, SVG Export Plug-In . SVG Version: 6.00 Build 0)  -->
<svg version="1.1" xmlns="http://www.w3.org/2000/svg" xmlns:xlink="http://www.w3.org/1999/xlink" x="0px" y="0px" width="24px"
	 height="24px" viewBox="0 0 24 24" enable-background="new 0 0 24 24" xml:space="preserve">
<g id="Filled_Icon">
	<g>
		<path d="M23,18h-3v-3c0-0.552-0.448-1-1-1s-1,0.448-1,1v3h-3c-0.552,0-1,0.448-1,1c0,0.552,0.448,1,1,1h3v3c0,0.552,0.448,1,1,1
			s1-0.448,1-1v-3h3c0.552,0,1-0.448,1-1C24,18.448,23.552,18,23,18z"/>
		<path d="M11.342,17.888C6.441,18.718,2,14.924,2,10c0-4.411,3.589-8,8-8c4.921,0,8.705,4.43,7.892,9.318
			c-0.091,0.544,0.277,1.059,0.822,1.15c0.545,0.092,1.06-0.277,1.151-0.822C20.883,5.532,16.144,0,10,0C4.486,0,0,4.486,0,10
			c0,6.149,5.543,10.897,11.676,9.86c0.544-0.093,0.911-0.608,0.819-1.154C12.403,18.163,11.888,17.792,11.342,17.888z"/>
	</g>
</g>
<g id="Invisible_Shape">
	<rect fill="none" width="24" height="24"/>
</g>
</svg>
