<?xml version="1.0" encoding="utf-8"?>
<!-- Generator: Adobe Illustrator 19.2.1, SVG Export Plug-In . SVG Version: 6.00 Build 0)  -->
<svg version="1.1" xmlns="http://www.w3.org/2000/svg" xmlns:xlink="http://www.w3.org/1999/xlink" x="0px" y="0px" width="24px"
	 height="24px" viewBox="0 0 24 24" enable-background="new 0 0 24 24" xml:space="preserve">
<g id="Filled_Icon">
	<g>
		<path d="M11.5,8C11.776,8,12,8.224,12,8.5v15c0,0.276-0.224,0.5-0.5,0.5S11,23.776,11,23.5v-15C11,8.224,11.224,8,11.5,8z"/>
		<path d="M22.146,8.147C22.461,7.832,23,8.056,23,8.5v14c0,0.447-0.542,0.666-0.854,0.354l-7-7c-0.195-0.195-0.195-0.512,0-0.707
			L22.146,8.147z"/>
		<path d="M0.854,8.147l7,7c0.195,0.195,0.195,0.512,0,0.707l-7,7C0.541,23.167,0,22.946,0,22.5v-14
			C0,8.058,0.539,7.831,0.854,8.147z"/>
		<path d="M5.584,6.777l-2-3c-0.153-0.23-0.091-0.54,0.139-0.693c0.23-0.153,0.54-0.092,0.693,0.139l1.243,1.864
			C6.307,2.181,8.901,0,12,0c3.585,0,6.5,2.915,6.5,6.5C18.5,6.776,18.276,7,18,7s-0.5-0.224-0.5-0.5C17.5,3.469,15.033,1,12,1
			C9.371,1,7.17,2.855,6.629,5.324L8.68,3.616C8.893,3.439,9.208,3.469,9.384,3.68C9.561,3.894,9.532,4.207,9.32,4.385l-3,2.5
			C6.118,7.053,5.742,7.015,5.584,6.777z"/>
	</g>
</g>
<g id="Invisible_Shape">
	<rect fill="none" width="24" height="24"/>
</g>
</svg>
