<?xml version="1.0" encoding="utf-8"?>
<!-- Generator: Adobe Illustrator 19.2.1, SVG Export Plug-In . SVG Version: 6.00 Build 0)  -->
<svg version="1.1" xmlns="http://www.w3.org/2000/svg" xmlns:xlink="http://www.w3.org/1999/xlink" x="0px" y="0px" width="24px"
	 height="24px" viewBox="0 0 24 24" enable-background="new 0 0 24 24" xml:space="preserve">
<g id="Filled_Icon">
	<g>
		<circle cx="3.833" cy="2" r="1"/>
		<circle cx="6.667" cy="2" r="1"/>
		<circle cx="9.5" cy="2" r="1"/>
		<circle cx="3.833" cy="22" r="1"/>
		<circle cx="6.667" cy="22" r="1"/>
		<circle cx="9.5" cy="22" r="1"/>
		<circle cx="1" cy="2" r="1"/>
		<circle cx="1" cy="5.333" r="1"/>
		<circle cx="1" cy="8.667" r="1"/>
		<circle cx="1" cy="12" r="1"/>
		<circle cx="1" cy="15.333" r="1"/>
		<circle cx="1" cy="18.667" r="1"/>
		<circle cx="1" cy="22" r="1"/>
		<path d="M15,2c0,0.553,0.447,1,1,1h6v18h-6c-0.553,0-1,0.447-1,1s0.447,1,1,1h7c0.553,0,1-0.447,1-1V2c0-0.553-0.447-1-1-1h-7
			C15.447,1,15,1.447,15,2z"/>
		<path d="M14,23v-9.5c0-0.553-0.447-1-1-1s-1,0.447-1,1V23c0,0.553,0.447,1,1,1S14,23.553,14,23z"/>
		<path d="M13,8.5c0.553,0,1-0.447,1-1V1c0-0.553-0.447-1-1-1s-1,0.447-1,1v6.5C12,8.053,12.447,8.5,13,8.5z"/>
		<path d="M5.144,13.984l3.994,0.986c0.536,0.133,1.078-0.194,1.21-0.731c0.136-0.531-0.193-1.077-0.731-1.21L7.76,12.57
			c3.406-1.822,7.418-1.239,10.151,1.143c0.417,0.363,1.049,0.319,1.411-0.097c0.361-0.415,0.319-1.048-0.097-1.411
			C15.9,9.31,11.069,8.612,6.962,10.731l0.353-1.467c0.131-0.534-0.2-1.076-0.737-1.206s-1.077,0.2-1.206,0.737l-0.961,3.984
			C4.273,13.332,4.655,13.868,5.144,13.984z"/>
	</g>
</g>
<g id="Invisible_Shape">
	<rect fill="none" width="24" height="24"/>
</g>
</svg>
