<?xml version="1.0" encoding="utf-8"?>
<!-- Generator: Adobe Illustrator 19.2.1, SVG Export Plug-In . SVG Version: 6.00 Build 0)  -->
<svg version="1.1" xmlns="http://www.w3.org/2000/svg" xmlns:xlink="http://www.w3.org/1999/xlink" x="0px" y="0px" width="24px"
	 height="24px" viewBox="0 0 24 24" enable-background="new 0 0 24 24" xml:space="preserve">
<g id="Filled_Icon">
	<g>
		<path d="M3.502,15.942c-0.093-0.26-0.38-0.396-0.64-0.3c-0.26,0.094-0.394,0.38-0.3,0.64c0.239,0.661,0.552,1.297,0.932,1.889
			c0.148,0.234,0.459,0.3,0.69,0.151c0.233-0.149,0.3-0.457,0.151-0.691C3.996,17.102,3.716,16.533,3.502,15.942z"/>
		<path d="M2.63,14.668c0.274-0.033,0.469-0.283,0.434-0.558c-0.078-0.631-0.085-1.274-0.025-1.885
			c0.027-0.275-0.174-0.519-0.449-0.546c-0.28-0.028-0.519,0.174-0.546,0.448c-0.068,0.701-0.059,1.412,0.028,2.107
			C2.107,14.515,2.367,14.706,2.63,14.668z"/>
		<path d="M2.797,10.697c0.271,0.089,0.547-0.062,0.632-0.317c0.129-0.39,0.289-0.774,0.474-1.142
			C4.028,8.991,3.929,8.69,3.682,8.566C3.435,8.441,3.134,8.54,3.01,8.788c-0.207,0.412-0.385,0.841-0.53,1.278
			C2.393,10.327,2.535,10.61,2.797,10.697z"/>
		<path d="M10.537,21.5C9.91,21.43,9.292,21.29,8.698,21.081c-0.258-0.091-0.545,0.047-0.637,0.308
			c-0.091,0.26,0.047,0.546,0.308,0.637c0.663,0.231,1.355,0.388,2.055,0.468c0.019,0.003,0.038,0.003,0.057,0.003
			c0.251,0,0.467-0.189,0.497-0.444C11.008,21.779,10.811,21.532,10.537,21.5z"/>
		<path d="M7,20.267c-0.533-0.333-1.031-0.727-1.478-1.17c-0.196-0.194-0.513-0.192-0.707,0.005
			c-0.194,0.195-0.192,0.512,0.004,0.706c0.5,0.495,1.056,0.936,1.651,1.307c0.233,0.146,0.543,0.076,0.689-0.159
			C7.305,20.722,7.234,20.414,7,20.267z"/>
		<path d="M11.035,3.582l2.285-1.618c0.225-0.16,0.279-0.472,0.119-0.697c-0.16-0.226-0.471-0.279-0.697-0.119l-3.531,2.5
			c-0.281,0.2-0.28,0.618-0.001,0.816l3.531,2.508c0.224,0.158,0.536,0.107,0.697-0.119c0.16-0.225,0.107-0.538-0.118-0.697
			l-2.222-1.578C16.109,4.358,20,8.343,20,13.055c0,4.343-3.25,7.974-7.56,8.448c-0.274,0.03-0.473,0.278-0.442,0.552
			c0.028,0.256,0.245,0.445,0.497,0.445c0.018,0,0.037-0.001,0.055-0.002c4.817-0.53,8.45-4.589,8.45-9.442
			C21,7.677,16.489,3.29,11.035,3.582z"/>
	</g>
</g>
<g id="Invisible_Shape">
	<rect fill="none" width="24" height="24"/>
</g>
</svg>
