<?xml version="1.0" encoding="utf-8"?>
<!-- Generator: Adobe Illustrator 19.2.1, SVG Export Plug-In . SVG Version: 6.00 Build 0)  -->
<svg version="1.1" xmlns="http://www.w3.org/2000/svg" xmlns:xlink="http://www.w3.org/1999/xlink" x="0px" y="0px" width="24px"
	 height="24px" viewBox="0 0 24 24" enable-background="new 0 0 24 24" xml:space="preserve">
<g id="Filled_Icon">
	<g>
		<path d="M14.307,9.411C14.119,9.152,13.819,9,13.5,9H1c-0.818,0-1.289,0.933-0.807,1.59l9.5,13C9.881,23.848,10.181,24,10.5,24H23
			c0.818,0,1.289-0.932,0.807-1.589C23.622,22.157,14.494,9.664,14.307,9.411z M11.008,22L2.969,11H10c0,0.276,0.224,0.5,0.5,0.5
			S11,11.276,11,11h1.992l8.039,11H11.008z"/>
		<path d="M23.5,10H22c-0.276,0-0.5,0.224-0.5,0.5c0,0.276,0.224,0.5,0.5,0.5h1v0.5c0,0.276,0.224,0.5,0.5,0.5s0.5-0.224,0.5-0.5v-1
			C24,10.224,23.776,10,23.5,10z"/>
		<path d="M10.5,14c-0.276,0-0.5,0.224-0.5,0.5v1c0,0.276,0.224,0.5,0.5,0.5s0.5-0.224,0.5-0.5v-1C11,14.224,10.776,14,10.5,14z"/>
		<path d="M10.5,17.5c-0.276,0-0.5,0.224-0.5,0.5v1c0,0.276,0.224,0.5,0.5,0.5S11,19.276,11,19v-1C11,17.724,10.776,17.5,10.5,17.5z
			"/>
		<path d="M23.5,14c-0.276,0-0.5,0.224-0.5,0.5v1c0,0.276,0.224,0.5,0.5,0.5s0.5-0.224,0.5-0.5v-1C24,14.224,23.776,14,23.5,14z"/>
		<path d="M23.5,17.5c-0.276,0-0.5,0.224-0.5,0.5v1c0,0.276,0.224,0.5,0.5,0.5S24,19.276,24,19v-1C24,17.724,23.776,17.5,23.5,17.5z
			"/>
		<path d="M18,10c-0.276,0-0.5,0.224-0.5,0.5c0,0.276,0.224,0.5,0.5,0.5h1c0.276,0,0.5-0.224,0.5-0.5c0-0.276-0.224-0.5-0.5-0.5H18z
			"/>
		<path d="M4.793,4.707l3,2.999c0.391,0.392,1.023,0.392,1.414,0c0.391-0.39,0.391-1.023,0-1.413L7.914,5H18.5c0.552,0,1-0.448,1-1
			c0-0.552-0.448-1-1-1H7.914l1.293-1.293c0.391-0.39,0.391-1.023,0-1.414c-0.391-0.391-1.023-0.391-1.414,0l-3,3
			C4.404,3.684,4.405,4.318,4.793,4.707z"/>
	</g>
</g>
<g id="Invisible_Shape">
	<rect fill="none" width="24" height="24"/>
</g>
</svg>
