<?xml version="1.0" encoding="utf-8"?>
<!-- Generator: Adobe Illustrator 19.2.1, SVG Export Plug-In . SVG Version: 6.00 Build 0)  -->
<svg version="1.1" xmlns="http://www.w3.org/2000/svg" xmlns:xlink="http://www.w3.org/1999/xlink" x="0px" y="0px" width="24px"
	 height="24px" viewBox="0 0 24 24" enable-background="new 0 0 24 24" xml:space="preserve">
<g id="Filled_Icon">
	<g>
		<path d="M1.5,3h-1C0.224,3,0,3.224,0,3.5v1C0,4.776,0.224,5,0.5,5S1,4.776,1,4.5V4h0.5C1.776,4,2,3.776,2,3.5S1.776,3,1.5,3z"/>
		<path d="M0.5,8C0.776,8,1,7.776,1,7.5v-1C1,6.224,0.776,6,0.5,6S0,6.224,0,6.5v1C0,7.776,0.224,8,0.5,8z"/>
		<path d="M4.5,3h-1C3.224,3,3,3.224,3,3.5S3.224,4,3.5,4h1C4.776,4,5,3.776,5,3.5S4.776,3,4.5,3z"/>
		<path d="M4.5,19h-1C3.224,19,3,19.224,3,19.5S3.224,20,3.5,20h1C4.776,20,5,19.776,5,19.5S4.776,19,4.5,19z"/>
		<path d="M7.5,3h-1C6.224,3,6,3.224,6,3.5S6.224,4,6.5,4h1C7.776,4,8,3.776,8,3.5S7.776,3,7.5,3z"/>
		<path d="M10.5,3h-1C9.224,3,9,3.224,9,3.5S9.224,4,9.5,4h1C10.776,4,11,3.776,11,3.5S10.776,3,10.5,3z"/>
		<path d="M7.5,19h-1C6.224,19,6,19.224,6,19.5S6.224,20,6.5,20h1C7.776,20,8,19.776,8,19.5S7.776,19,7.5,19z"/>
		<path d="M10.5,19h-1C9.224,19,9,19.224,9,19.5S9.224,20,9.5,20h1c0.276,0,0.5-0.224,0.5-0.5S10.776,19,10.5,19z"/>
		<path d="M13.5,19h-1c-0.276,0-0.5,0.224-0.5,0.5s0.224,0.5,0.5,0.5h1c0.276,0,0.5-0.224,0.5-0.5S13.776,19,13.5,19z"/>
		<path d="M16.5,19h-1c-0.276,0-0.5,0.224-0.5,0.5s0.224,0.5,0.5,0.5h1c0.276,0,0.5-0.224,0.5-0.5S16.776,19,16.5,19z"/>
		<path d="M19.5,19h-1c-0.276,0-0.5,0.224-0.5,0.5s0.224,0.5,0.5,0.5h1c0.276,0,0.5-0.224,0.5-0.5S19.776,19,19.5,19z"/>
		<path d="M22.5,18c-0.276,0-0.5,0.224-0.5,0.5V19h-0.5c-0.276,0-0.5,0.224-0.5,0.5s0.224,0.5,0.5,0.5h1c0.276,0,0.5-0.224,0.5-0.5
			v-1C23,18.224,22.776,18,22.5,18z"/>
		<path d="M1.5,19H1v-0.5C1,18.224,0.776,18,0.5,18S0,18.224,0,18.5v1C0,19.776,0.224,20,0.5,20h1C1.776,20,2,19.776,2,19.5
			S1.776,19,1.5,19z"/>
		<path d="M22.5,15c-0.276,0-0.5,0.224-0.5,0.5v1c0,0.276,0.224,0.5,0.5,0.5s0.5-0.224,0.5-0.5v-1C23,15.224,22.776,15,22.5,15z"/>
		<path d="M22.5,12c-0.276,0-0.5,0.224-0.5,0.5v1c0,0.276,0.224,0.5,0.5,0.5s0.5-0.224,0.5-0.5v-1C23,12.224,22.776,12,22.5,12z"/>
		<path d="M0.5,17C0.776,17,1,16.776,1,16.5v-1C1,15.224,0.776,15,0.5,15S0,15.224,0,15.5v1C0,16.776,0.224,17,0.5,17z"/>
		<path d="M0.5,14C0.776,14,1,13.776,1,13.5v-1C1,12.224,0.776,12,0.5,12S0,12.224,0,12.5v1C0,13.776,0.224,14,0.5,14z"/>
		<path d="M0.5,11C0.776,11,1,10.776,1,10.5v-1C1,9.224,0.776,9,0.5,9S0,9.224,0,9.5v1C0,10.776,0.224,11,0.5,11z"/>
		<path d="M23,4.001c0-0.552-0.447-1-1-1l-9.5,0C12.224,3,12,3.224,12,3.5S12.224,4,12.5,4H13v0.001V9c0,0.552,0.448,1,1,1h8v0.5
			c0,0.276,0.224,0.5,0.5,0.5s0.5-0.224,0.5-0.5V4.001z M21,8h-6V5h6V8z"/>
	</g>
</g>
<g id="Invisible_Shape">
	<rect fill="none" width="24" height="24"/>
</g>
</svg>
