<?xml version="1.0" encoding="utf-8"?>
<!-- Generator: Adobe Illustrator 19.2.1, SVG Export Plug-In . SVG Version: 6.00 Build 0)  -->
<svg version="1.1" xmlns="http://www.w3.org/2000/svg" xmlns:xlink="http://www.w3.org/1999/xlink" x="0px" y="0px" width="24px"
	 height="24px" viewBox="0 0 24 24" enable-background="new 0 0 24 24" xml:space="preserve">
<g id="Filled_Icon">
	<g>
		<path d="M23,6h-5V1c0-0.552-0.448-1-1-1H1C0.448,0,0,0.448,0,1v16c0,0.552,0.448,1,1,1h5v5c0,0.552,0.448,1,1,1h16
			c0.552,0,1-0.448,1-1V7C24,6.448,23.552,6,23,6z M22,22H8v-5c0-0.552-0.448-1-1-1H2V2h14v5c0,0.552,0.448,1,1,1h5V22z"/>
		<path d="M8.5,7h-1C7.224,7,7,7.224,7,7.5v1C7,8.776,7.224,9,7.5,9S8,8.776,8,8.5V8h0.5C8.776,8,9,7.776,9,7.5S8.776,7,8.5,7z"/>
		<path d="M7.5,10C7.224,10,7,10.224,7,10.5v1C7,11.776,7.224,12,7.5,12S8,11.776,8,11.5v-1C8,10.224,7.776,10,7.5,10z"/>
		<path d="M11.5,7h-1C10.224,7,10,7.224,10,7.5S10.224,8,10.5,8h1C11.776,8,12,7.776,12,7.5S11.776,7,11.5,7z"/>
		<path d="M14.5,7h-1C13.224,7,13,7.224,13,7.5S13.224,8,13.5,8h1C14.776,8,15,7.776,15,7.5S14.776,7,14.5,7z"/>
		<path d="M10.5,16h-1C9.224,16,9,16.224,9,16.5S9.224,17,9.5,17h1c0.276,0,0.5-0.224,0.5-0.5S10.776,16,10.5,16z"/>
		<path d="M13.5,16h-1c-0.276,0-0.5,0.224-0.5,0.5s0.224,0.5,0.5,0.5h1c0.276,0,0.5-0.224,0.5-0.5S13.776,16,13.5,16z"/>
		<path d="M7.5,13C7.224,13,7,13.224,7,13.5v1C7,14.776,7.224,15,7.5,15S8,14.776,8,14.5v-1C8,13.224,7.776,13,7.5,13z"/>
		<path d="M16.5,9C16.224,9,16,9.224,16,9.5v1c0,0.276,0.224,0.5,0.5,0.5s0.5-0.224,0.5-0.5v-1C17,9.224,16.776,9,16.5,9z"/>
		<path d="M16.5,15c-0.276,0-0.5,0.224-0.5,0.5V16h-0.5c-0.276,0-0.5,0.224-0.5,0.5s0.224,0.5,0.5,0.5h1c0.276,0,0.5-0.224,0.5-0.5
			v-1C17,15.224,16.776,15,16.5,15z"/>
		<path d="M16.5,12c-0.276,0-0.5,0.224-0.5,0.5v1c0,0.276,0.224,0.5,0.5,0.5s0.5-0.224,0.5-0.5v-1C17,12.224,16.776,12,16.5,12z"/>
	</g>
</g>
<g id="Invisible_Shape">
	<rect fill="none" width="24" height="24"/>
</g>
</svg>
