<?xml version="1.0" encoding="utf-8"?>
<!-- Generator: Adobe Illustrator 19.2.1, SVG Export Plug-In . SVG Version: 6.00 Build 0)  -->
<svg version="1.1" xmlns="http://www.w3.org/2000/svg" xmlns:xlink="http://www.w3.org/1999/xlink" x="0px" y="0px" width="24px"
	 height="24px" viewBox="0 0 24 24" enable-background="new 0 0 24 24" xml:space="preserve">
<g id="Filled_Icon">
	<g>
		<path d="M7.808,19.066l-3.182,3.182c-0.566,0.567-1.554,0.567-2.121,0c-0.586-0.586-0.586-1.535,0-2.121l4.242-4.242l0.707,0.707
			c0.195,0.195,0.512,0.195,0.707,0l0.823-0.822c-0.282-0.282-2.565-2.534-2.802-2.855l-0.85,0.85c-0.195,0.195-0.195,0.512,0,0.707
			l0.707,0.707L1.798,19.42c-0.983,0.984-0.973,2.565,0,3.535c0.943,0.945,2.591,0.945,3.535,0l3.182-3.181
			c0.378-0.379,1.036-0.378,1.415,0c0.39,0.39,0.39,1.023,0,1.413L8.247,22.87c-0.195,0.195-0.195,0.512,0,0.707
			c0.195,0.195,0.512,0.195,0.707,0l1.683-1.683c0.779-0.779,0.779-2.048,0-2.828C9.88,18.31,8.562,18.31,7.808,19.066z"/>
		<path d="M15.621,11.799c0.585-0.585,0.585-1.536,0-2.121L12.792,6.85c-0.565-0.568-1.555-0.567-2.122-0.001l-3.535,3.536
			c-0.586,0.586-0.586,1.535,0,2.121l2.828,2.828c0.58,0.58,1.53,0.594,2.122,0L15.621,11.799z"/>
		<g>
			<path d="M20.926,3.666l1.06-1.06c0.069-0.069,0.116-0.155,0.136-0.251l0.368-1.753c0.075-0.355-0.242-0.659-0.583-0.594
				l-1.782,0.339c-0.099,0.019-0.189,0.066-0.26,0.138l-1.057,1.057L20.926,3.666z"/>
			<path d="M15.271,3.663l-2.165,2.165c0.27,0.172,3.27,3.123,3.54,3.532l2.166-2.166L15.271,3.663z"/>
			<polygon points="16.095,3.071 19.401,6.37 20.246,4.4 18.074,2.223 			"/>
		</g>
	</g>
</g>
<g id="Invisible_Shape">
	<rect fill="none" width="24" height="24"/>
</g>
</svg>
