<?xml version="1.0" encoding="utf-8"?>
<!-- Generator: Adobe Illustrator 19.2.1, SVG Export Plug-In . SVG Version: 6.00 Build 0)  -->
<svg version="1.1" xmlns="http://www.w3.org/2000/svg" xmlns:xlink="http://www.w3.org/1999/xlink" x="0px" y="0px" width="24px"
	 height="24px" viewBox="0 0 24 24" enable-background="new 0 0 24 24" xml:space="preserve">
<g id="Filled_Icon">
	<g>
		<g>
			<circle cx="17" cy="16" r="2"/>
			<path d="M23.5,8h-23C0.224,8,0,8.224,0,8.5v15C0,23.776,0.224,24,0.5,24h23c0.276,0,0.5-0.224,0.5-0.5v-15
				C24,8.224,23.776,8,23.5,8z M3.5,11H11c0.276,0,0.5,0.224,0.5,0.5S11.276,12,11,12H3.5C3.224,12,3,11.776,3,11.5S3.224,11,3.5,11
				z M3,14.5C3,14.224,3.224,14,3.5,14H8c0.276,0,0.5,0.224,0.5,0.5S8.276,15,8,15H3.5C3.224,15,3,14.776,3,14.5z M21,20.5
				c0,0.276-0.224,0.5-0.5,0.5H8c-0.431,0-0.659-0.51-0.373-0.832l8-9C15.721,11.061,15.857,11,16,11h4.5c0.276,0,0.5,0.224,0.5,0.5
				V20.5z"/>
		</g>
		<g>
			<rect x="13" y="5" width="4" height="2"/>
			<path d="M18,7h4V5.5C22,5.224,21.776,5,21.5,5H18V7z"/>
			<path d="M12,5H8.5C8.224,5,8,5.224,8,5.5V7h4V5z"/>
		</g>
	</g>
</g>
<g id="Invisible_Shape">
	<rect fill="none" width="24" height="24"/>
</g>
</svg>
