<?xml version="1.0" encoding="utf-8"?>
<!-- Generator: Adobe Illustrator 19.2.1, SVG Export Plug-In . SVG Version: 6.00 Build 0)  -->
<svg version="1.1" xmlns="http://www.w3.org/2000/svg" xmlns:xlink="http://www.w3.org/1999/xlink" x="0px" y="0px" width="24px"
	 height="24px" viewBox="0 0 24 24" enable-background="new 0 0 24 24" xml:space="preserve">
<g id="Filled_Icon">
	<g>
		<path d="M13.35,9h-2.7C9.561,12.067,6.183,13.781,3,12.65v6.85C3,20.879,4.122,22,5.5,22h13c1.378,0,2.5-1.121,2.5-2.5v-6.85
			C17.844,13.773,14.449,12.096,13.35,9z M14,13c0.827,0,1.5,0.673,1.5,1.5S14.827,16,14,16s-1.5-0.673-1.5-1.5S13.173,13,14,13z
			 M10,13c0.827,0,1.5,0.673,1.5,1.5S10.827,16,10,16s-1.5-0.673-1.5-1.5S9.173,13,10,13z M6,18.5c-0.551,0-1-0.448-1-1
			c0-0.551,0.449-1,1-1s1,0.449,1,1C7,18.052,6.551,18.5,6,18.5z M16,20.5c0,0.276-0.224,0.5-0.5,0.5h-7C8.224,21,8,20.776,8,20.5
			v-1C8,19.224,8.224,19,8.5,19h7c0.276,0,0.5,0.224,0.5,0.5V20.5z M18,18.5c-0.551,0-1-0.448-1-1c0-0.551,0.449-1,1-1s1,0.449,1,1
			C19,18.052,18.551,18.5,18,18.5z"/>
		<path d="M10,7c0-2.757-2.243-5-5-5S0,4.243,0,7s2.243,5,5,5S10,9.757,10,7z M5.736,7.425c0.138-0.239,0.443-0.321,0.683-0.183
			l1.169,0.675C7.827,8.056,7.908,8.361,7.77,8.601c-0.139,0.24-0.447,0.32-0.683,0.183L5.918,8.108
			C5.679,7.97,5.597,7.664,5.736,7.425z M4.081,8.108L2.912,8.783C2.677,8.92,2.368,8.842,2.228,8.601
			C2.091,8.361,2.172,8.056,2.412,7.917l1.169-0.675C3.82,7.103,4.126,7.186,4.264,7.425C4.402,7.664,4.32,7.97,4.081,8.108z
			 M4.5,5.65V4.3c0-0.276,0.224-0.5,0.5-0.5s0.5,0.224,0.5,0.5V5.65c0,0.276-0.224,0.5-0.5,0.5S4.5,5.927,4.5,5.65z"/>
		<path d="M19,2c-2.757,0-5,2.243-5,5s2.243,5,5,5s5-2.243,5-5S21.757,2,19,2z M18.081,8.108l-1.169,0.675
			c-0.235,0.137-0.543,0.059-0.683-0.183c-0.138-0.239-0.056-0.545,0.183-0.684l1.169-0.675c0.239-0.139,0.545-0.057,0.683,0.183
			C18.402,7.664,18.32,7.97,18.081,8.108z M19.5,5.65c0,0.276-0.224,0.5-0.5,0.5s-0.5-0.224-0.5-0.5V4.3c0-0.276,0.224-0.5,0.5-0.5
			s0.5,0.224,0.5,0.5V5.65z M21.77,8.601c-0.139,0.24-0.447,0.32-0.683,0.183l-1.168-0.675c-0.239-0.139-0.321-0.444-0.183-0.684
			c0.138-0.239,0.443-0.321,0.683-0.183l1.169,0.675C21.827,8.056,21.908,8.361,21.77,8.601z"/>
	</g>
</g>
<g id="Invisible_Shape">
	<rect fill="none" width="24" height="24"/>
</g>
</svg>
