<?xml version="1.0" encoding="utf-8"?>
<!-- Generator: Adobe Illustrator 19.2.1, SVG Export Plug-In . SVG Version: 6.00 Build 0)  -->
<svg version="1.1" xmlns="http://www.w3.org/2000/svg" xmlns:xlink="http://www.w3.org/1999/xlink" x="0px" y="0px" width="24px"
	 height="24px" viewBox="0 0 24 24" enable-background="new 0 0 24 24" xml:space="preserve">
<g id="Filled_Icon">
	<path d="M23.5,18c-0.276,0-0.5,0.224-0.5,0.5v2c0,1.379-1.122,2.5-2.5,2.5S18,21.879,18,20.5v-6.783c0.634-1.273,1-2.701,1-4.217
		C19,4.262,14.738,0,9.5,0S0,4.262,0,9.5S4.262,19,9.5,19c3.049,0,5.761-1.45,7.5-3.69v5.19c0,1.93,1.57,3.5,3.5,3.5
		s3.5-1.57,3.5-3.5v-2C24,18.224,23.776,18,23.5,18z M9,3c0-0.276,0.224-0.5,0.5-0.5S10,2.724,10,3v2c0,0.276-0.224,0.5-0.5,0.5
		S9,5.276,9,5V3z M5.852,12.184L4.12,13.183c-0.243,0.138-0.546,0.054-0.683-0.184c-0.138-0.239-0.056-0.545,0.183-0.684
		l1.732-0.999C5.591,11.18,5.897,11.26,6.036,11.5C6.174,11.739,6.091,12.045,5.852,12.184z M6.036,7.5
		C5.897,7.74,5.589,7.82,5.352,7.683l-1.731-1C3.382,6.545,3.3,6.239,3.438,6c0.138-0.24,0.443-0.322,0.683-0.183l1.731,1
		C6.092,6.955,6.174,7.261,6.036,7.5z M9.999,16c0,0.276-0.224,0.5-0.5,0.5c-0.276,0-0.5-0.224-0.5-0.5L9,14
		c0-0.276,0.224-0.5,0.5-0.5c0.276,0,0.5,0.224,0.5,0.5L9.999,16z M9.5,12C8.122,12,7,10.879,7,9.5S8.122,7,9.5,7S12,8.121,12,9.5
		S10.878,12,9.5,12z M15.562,13.001c-0.138,0.238-0.444,0.321-0.684,0.183l-1.731-1.001c-0.239-0.138-0.321-0.443-0.183-0.683
		c0.138-0.24,0.443-0.322,0.683-0.183l1.732,1.001C15.618,12.456,15.7,12.762,15.562,13.001z M15.38,6.684l-1.732,0.999
		c-0.243,0.138-0.546,0.054-0.683-0.184c-0.138-0.239-0.056-0.545,0.183-0.684l1.732-0.999C15.119,5.68,15.424,5.76,15.563,6
		C15.701,6.239,15.619,6.545,15.38,6.684z"/>
</g>
<g id="Invisible_Shape">
	<rect fill="none" width="24" height="24"/>
</g>
</svg>
