<?xml version="1.0" encoding="utf-8"?>
<!-- Generator: Adobe Illustrator 19.2.1, SVG Export Plug-In . SVG Version: 6.00 Build 0)  -->
<svg version="1.1" xmlns="http://www.w3.org/2000/svg" xmlns:xlink="http://www.w3.org/1999/xlink" x="0px" y="0px" width="24px"
	 height="24px" viewBox="0 0 24 24" enable-background="new 0 0 24 24" xml:space="preserve">
<g id="Filled_Icon">
	<g>
		<g>
			<circle cx="19.5" cy="19.5" r="0.5"/>
			<path d="M21.5,16h-19C1.122,16,0,17.121,0,18.5v2c0,1.207,0.86,2.217,2,2.449V23.5C2,23.776,2.224,24,2.5,24S3,23.776,3,23.5V23
				h18v0.5c0,0.276,0.224,0.5,0.5,0.5s0.5-0.224,0.5-0.5v-0.551c1.14-0.232,2-1.242,2-2.449v-2C24,17.121,22.878,16,21.5,16z M15,20
				H3c-0.276,0-0.5-0.224-0.5-0.5S2.724,19,3,19h12c0.276,0,0.5,0.224,0.5,0.5S15.276,20,15,20z M19.5,21
				c-0.827,0-1.5-0.673-1.5-1.5s0.673-1.5,1.5-1.5s1.5,0.673,1.5,1.5S20.327,21,19.5,21z"/>
		</g>
		<g>
			<path d="M12,14.5c0-0.552-0.449-1-1-1s-1,0.448-1,1c0,0.186,0.065,0.351,0.153,0.5h1.693C11.935,14.851,12,14.686,12,14.5z"/>
			<path d="M11,6c-4.687,0-8.5,3.814-8.5,8.5C2.5,14.776,2.724,15,3,15h6.071C9.029,14.84,9,14.674,9,14.5c0-1.102,0.897-2,2-2
				s2,0.898,2,2c0,0.174-0.029,0.34-0.071,0.5H19c0.276,0,0.5-0.224,0.5-0.5C19.5,9.814,15.687,6,11,6z M11,10
				c-1.428,0-2.741,0.656-3.602,1.801C7.3,11.931,7.15,12,6.998,12c-0.104,0-0.21-0.032-0.3-0.101
				c-0.221-0.166-0.265-0.479-0.099-0.7C7.65,9.802,9.254,9,11,9c0.276,0,0.5,0.224,0.5,0.5S11.276,10,11,10z"/>
		</g>
	</g>
</g>
<g id="Invisible_Shape">
	<rect fill="none" width="24" height="24"/>
</g>
</svg>
