<?xml version="1.0" encoding="utf-8"?>
<!-- Generator: Adobe Illustrator 19.2.1, SVG Export Plug-In . SVG Version: 6.00 Build 0)  -->
<svg version="1.1" xmlns="http://www.w3.org/2000/svg" xmlns:xlink="http://www.w3.org/1999/xlink" x="0px" y="0px" width="24px"
	 height="24px" viewBox="0 0 24 24" enable-background="new 0 0 24 24" xml:space="preserve">
<g id="Filled_Icon">
	<g>
		<path d="M22.156,16.433c-3.728-3.729-2.688-2.689-4.781-4.782c-0.201-0.201-0.528-0.201-0.729,0c-0.2,0.2-0.199,0.525,0.001,0.727
			c0.003,0.004,2.151,2.152,2.151,2.152c0.195,0.195,0.195,0.512,0,0.707c-0.195,0.195-0.512,0.195-0.707,0
			c-2.232-2.232-3.219-3.221-3.586-3.587c-0.2-0.199-0.527-0.199-0.728,0.002c-0.203,0.202-0.197,0.53,0,0.726l2.869,2.87
			c0.195,0.195,0.195,0.512,0,0.707c-0.195,0.195-0.512,0.195-0.707,0c-4.83-4.829-1.5-1.499-3.825-3.826
			c-0.2-0.199-0.527-0.2-0.729,0.001c-0.2,0.2-0.199,0.527,0.002,0.727l3.825,3.824c0.195,0.195,0.195,0.512,0,0.707
			c-0.195,0.195-0.512,0.195-0.707,0c-0.494-0.494-1.575-1.574-2.872-2.871c-0.2-0.196-0.523-0.197-0.724,0.003
			c-0.205,0.205-0.197,0.531,0,0.728l4.288,4.287c0.224,0.226,0.202,0.491-0.198,0.487L12.828,20c-1,0-0.984,1.031-0.235,1.284
			c0.112,0.032,3.238,1.132,5.302,1.592c0.97,0.215,1.966-0.074,2.666-0.775l1.595-1.594C23.279,19.383,23.279,17.556,22.156,16.433
			z"/>
		<g>
			<circle cx="9" cy="9" r="1"/>
			<path d="M9,0C4.038,0,0,4.037,0,9s4.038,9,9,9c0.977,0,1.916-0.162,2.797-0.451l-1.595-1.595
				c-0.708-0.71-0.571-1.972,0.447-2.438c-0.548-0.594-0.545-1.518,0.03-2.095c0.576-0.573,1.497-0.58,2.089-0.036
				c0.074-0.161,0.174-0.312,0.303-0.441c0.59-0.591,1.55-0.593,2.141-0.002l0.438,0.438c0.072-0.156,0.16-0.308,0.289-0.436
				c0.514-0.514,1.296-0.553,1.883-0.172C17.938,10.199,18,9.606,18,9C18,4.037,13.962,0,9,0z M4,9c0,0.276-0.224,0.5-0.5,0.5
				S3,9.276,3,9c0-3.309,2.691-6,6-6c0.276,0,0.5,0.224,0.5,0.5S9.276,4,9,4C6.243,4,4,6.243,4,9z M9,11c-1.103,0-2-0.898-2-2
				s0.897-2,2-2s2,0.898,2,2S10.103,11,9,11z"/>
		</g>
	</g>
</g>
<g id="Invisible_Shape">
	<rect fill="none" width="24" height="24"/>
</g>
</svg>
