<?xml version="1.0" encoding="utf-8"?>
<!-- Generator: Adobe Illustrator 19.2.1, SVG Export Plug-In . SVG Version: 6.00 Build 0)  -->
<svg version="1.1" xmlns="http://www.w3.org/2000/svg" xmlns:xlink="http://www.w3.org/1999/xlink" x="0px" y="0px" width="24px"
	 height="24px" viewBox="0 0 24 24" enable-background="new 0 0 24 24" xml:space="preserve">
<g id="Filled_Icon">
	<g>
		<path d="M12,10c-1.102,0-2,0.898-2,2c0,1.104,0.898,2,2,2c1.103,0,2-0.896,2-2C14,10.898,13.103,10,12,10z M12,12.5
			c-0.276,0-0.5-0.224-0.5-0.5s0.224-0.5,0.5-0.5s0.5,0.224,0.5,0.5S12.276,12.5,12,12.5z"/>
		<path d="M12,0C5.383,0,0,5.384,0,12c0,6.617,5.383,12,12,12s12-5.383,12-12C24,5.384,18.617,0,12,0z M10.224,21.328
			c-3.916-0.741-6.968-3.888-7.594-7.83c-0.043-0.272,0.143-0.528,0.415-0.572c0.279-0.043,0.529,0.143,0.572,0.416
			c0.56,3.526,3.29,6.341,6.792,7.004c0.272,0.052,0.45,0.312,0.398,0.584C10.757,21.198,10.498,21.38,10.224,21.328z
			 M10.597,19.364c-3.092-0.586-5.502-3.07-5.995-6.182c-0.043-0.272,0.142-0.528,0.416-0.572c0.27-0.04,0.528,0.143,0.572,0.416
			c0.428,2.695,2.515,4.848,5.194,5.355c0.271,0.052,0.449,0.312,0.398,0.584C11.131,19.232,10.875,19.416,10.597,19.364z
			 M10.971,17.401c-2.268-0.431-4.034-2.252-4.397-4.534c-0.043-0.273,0.143-0.528,0.415-0.572c0.277-0.038,0.529,0.144,0.572,0.416
			c0.296,1.866,1.741,3.356,3.596,3.708c0.272,0.052,0.449,0.314,0.398,0.584C11.505,17.27,11.249,17.453,10.971,17.401z M12,15
			c-1.654,0-3-1.346-3-3s1.346-3,3-3s3,1.346,3,3S13.654,15,12,15z M17.01,11.705c-0.283,0.042-0.53-0.149-0.572-0.415
			c-0.297-1.867-1.742-3.357-3.595-3.708c-0.272-0.052-0.45-0.312-0.399-0.584c0.052-0.271,0.317-0.448,0.584-0.398
			c2.267,0.429,4.034,2.251,4.397,4.532C17.469,11.405,17.283,11.661,17.01,11.705z M18.983,11.39
			c-0.288,0.042-0.531-0.154-0.572-0.416c-0.429-2.696-2.516-4.848-5.194-5.355c-0.271-0.052-0.449-0.312-0.398-0.584
			c0.051-0.272,0.308-0.452,0.584-0.398c3.091,0.586,5.5,3.069,5.995,6.182C19.441,11.09,19.255,11.346,18.983,11.39z
			 M20.956,11.074c-0.288,0.042-0.531-0.154-0.572-0.416c-0.561-3.525-3.29-6.34-6.793-7.004c-0.271-0.052-0.449-0.313-0.398-0.584
			c0.051-0.272,0.31-0.453,0.585-0.398c3.916,0.742,6.968,3.889,7.594,7.83C21.414,10.774,21.228,11.03,20.956,11.074z"/>
	</g>
</g>
<g id="Invisible_Shape">
	<rect fill="none" width="24" height="24"/>
</g>
</svg>
