<?xml version="1.0" encoding="utf-8"?>
<!-- Generator: Adobe Illustrator 19.2.1, SVG Export Plug-In . SVG Version: 6.00 Build 0)  -->
<svg version="1.1" xmlns="http://www.w3.org/2000/svg" xmlns:xlink="http://www.w3.org/1999/xlink" x="0px" y="0px" width="24px"
	 height="24px" viewBox="0 0 24 24" enable-background="new 0 0 24 24" xml:space="preserve">
<g id="Filled_Icon">
	<g>
		<path d="M9.854,20.146l-6-6c-1.964-1.964-5.175,1.238-3.207,3.207l6,6C8.61,25.317,11.822,22.115,9.854,20.146z"/>
		<path d="M21.707,3l2.146-2.147c0.195-0.195,0.195-0.512,0-0.707c-0.195-0.195-0.512-0.195-0.707,0L21,2.293l-2.146-2.146
			c-0.195-0.195-0.512-0.195-0.707,0c-0.195,0.195-0.195,0.512,0,0.707l5,5c0.195,0.195,0.512,0.195,0.707,0
			c0.195-0.195,0.195-0.512,0-0.707L21.707,3z"/>
		<path d="M18.012,2.133l-3.564,3.104c2.542,2.188,0.09,6.281-3.043,5.049c0.809,3.28-3.603,5.165-5.426,2.327l-1.199,1.045
			l5.562,5.562L21.867,5.988L18.012,2.133z"/>
		<g>
			<circle cx="8.5" cy="11" r="2"/>
			<circle cx="12.5" cy="7.5" r="2"/>
		</g>
	</g>
</g>
<g id="Invisible_Shape">
	<rect fill="none" width="24" height="24"/>
</g>
</svg>
