<?xml version="1.0" encoding="utf-8"?>
<!-- Generator: Adobe Illustrator 19.2.1, SVG Export Plug-In . SVG Version: 6.00 Build 0)  -->
<svg version="1.1" xmlns="http://www.w3.org/2000/svg" xmlns:xlink="http://www.w3.org/1999/xlink" x="0px" y="0px" width="24px"
	 height="24px" viewBox="0 0 24 24" enable-background="new 0 0 24 24" xml:space="preserve">
<g id="Filled_Icon">
	<g>
		<path d="M18.5,0h-13C5.224,0,5,0.224,5,0.5v3C5,3.776,5.224,4,5.5,4h13C18.776,4,19,3.776,19,3.5v-3C19,0.224,18.776,0,18.5,0z"/>
		<path d="M5.995,5c0.014,0.888,0.062,2.086,0.19,3.406L7.757,5H5.995z"/>
		<path d="M14.801,19.323L14.25,18c-1.53,0-2.785,0-4.5,0l-0.551,1.323L12,20.924L14.801,19.323z"/>
		<path d="M17.815,8.406c0.128-1.32,0.176-2.519,0.19-3.406h-1.762L17.815,8.406z"/>
		<path d="M15.142,5h-0.114l-2.553,7.658c-0.151,0.454-0.797,0.454-0.948,0L8.973,5H8.858l-2.404,5.21
			c-0.01,0.021-0.026,0.034-0.039,0.053C6.811,12.83,7.563,15.49,8.984,17c0.694,0,5.337,0,6.031,0
			c1.421-1.51,2.174-4.17,2.569-6.737c-0.012-0.019-0.029-0.032-0.039-0.053L15.142,5z"/>
		<path d="M15.189,20.254l-2.941,1.681c-0.152,0.087-0.344,0.087-0.496,0l-2.941-1.681l-1.272,3.054C7.4,23.638,7.645,24,8,24h8
			c0.355,0,0.6-0.362,0.461-0.692L15.189,20.254z"/>
		<polygon points="13.973,5 10.027,5 12,10.919 		"/>
	</g>
</g>
<g id="Invisible_Shape">
	<rect fill="none" width="24" height="24"/>
</g>
</svg>
