<?xml version="1.0" encoding="utf-8"?>
<!-- Generator: Adobe Illustrator 19.2.1, SVG Export Plug-In . SVG Version: 6.00 Build 0)  -->
<svg version="1.1" xmlns="http://www.w3.org/2000/svg" xmlns:xlink="http://www.w3.org/1999/xlink" x="0px" y="0px" width="24px"
	 height="24px" viewBox="0 0 24 24" enable-background="new 0 0 24 24" xml:space="preserve">
<g id="Filled_Icon">
	<g>
		<path d="M12,12c-3.309,0-6,2.691-6,6c0,1.494,0.552,2.859,1.459,3.91l-0.875,1.312c-0.153,0.229-0.091,0.54,0.139,0.693
			C6.808,23.973,6.904,24,6.999,24c0.162,0,0.32-0.078,0.417-0.223l0.768-1.151C9.221,23.484,10.552,24,12,24
			s2.779-0.516,3.816-1.374l0.768,1.151C16.68,23.922,16.839,24,17,24c0.095,0,0.191-0.027,0.277-0.084
			c0.23-0.153,0.292-0.464,0.139-0.693l-0.875-1.312C17.448,20.859,18,19.494,18,18C18,14.691,15.309,12,12,12z M7,18
			c0-2.757,2.243-5,5-5s5,2.243,5,5s-2.243,5-5,5S7,20.757,7,18z"/>
		<path d="M23.854,23.146L22,21.293V15.5c0-2.922-1.453-5.582-3.82-7.135L20.8,6.4c0.144-0.108,0.22-0.287,0.196-0.466
			c-0.023-0.18-0.142-0.332-0.31-0.398c-0.037-0.016-0.919-0.362-2.075-0.362c-1.112,0-2.091,0.312-2.911,0.926
			c-2.227,1.67-1.713,4.384-1.69,4.498c0.034,0.169,0.151,0.309,0.312,0.369C14.379,10.989,14.44,11,14.5,11
			c0.106,0,0.212-0.034,0.3-0.1l2.524-1.894C19.594,10.34,21,12.792,21,15.5v5.793l-1.854,1.854c-0.195,0.195-0.195,0.512,0,0.707
			c0.195,0.195,0.512,0.195,0.707,0l1.646-1.646l1.646,1.646C23.244,23.951,23.372,24,23.5,24s0.256-0.049,0.354-0.146
			C24.049,23.658,24.049,23.342,23.854,23.146z"/>
		<path d="M3,21.293V15c0-1.214,0.244-2.305,0.698-3.268l2.525,1.684C6.306,13.472,6.403,13.5,6.5,13.5
			c0.069,0,0.139-0.015,0.204-0.044c0.157-0.069,0.267-0.216,0.291-0.386c0.023-0.157,0.524-3.869-1.772-5.018
			C4.697,7.79,4.102,7.656,3.453,7.656c-1.666,0-3.148,0.878-3.21,0.915C0.096,8.659,0.004,8.816,0,8.988
			c-0.004,0.171,0.08,0.333,0.223,0.428l2.638,1.759C2.3,12.303,2,13.582,2,15v6.293l-1.854,1.854c-0.195,0.195-0.195,0.512,0,0.707
			c0.195,0.195,0.512,0.195,0.707,0L2.5,22.207l1.647,1.646C4.244,23.951,4.372,24,4.5,24s0.256-0.049,0.353-0.146
			c0.195-0.195,0.195-0.512,0-0.707L3,21.293z"/>
	</g>
</g>
<g id="Invisible_Shape">
	<rect fill="none" width="24" height="24"/>
</g>
</svg>
