<?xml version="1.0" encoding="utf-8"?>
<!-- Generator: Adobe Illustrator 19.2.1, SVG Export Plug-In . SVG Version: 6.00 Build 0)  -->
<svg version="1.1" xmlns="http://www.w3.org/2000/svg" xmlns:xlink="http://www.w3.org/1999/xlink" x="0px" y="0px" width="24px"
	 height="24px" viewBox="0 0 24 24" enable-background="new 0 0 24 24" xml:space="preserve">
<g id="Filled_Icon">
	<g>
		<g>
			<path d="M9,2C8.2,2,7.495,2.385,7.037,2.971L1.224,0.053C0.979-0.071,0.677,0.029,0.553,0.276
				C0.429,0.522,0.529,0.823,0.776,0.947l5.816,2.918C6.158,5.514,7.418,7,9,7c1.378,0,2.5-1.121,2.5-2.5S10.378,2,9,2z"/>
			<path d="M23.447,0.276c-0.124-0.247-0.423-0.347-0.671-0.224l-5.813,2.918C16.505,2.385,15.8,2,15,2c-1.378,0-2.5,1.121-2.5,2.5
				S13.622,7,15,7c1.578,0,2.843-1.481,2.408-3.135l5.816-2.918C23.471,0.823,23.571,0.522,23.447,0.276z"/>
		</g>
		<g>
			<rect x="10" y="12" width="4" height="8"/>
			<rect x="6" y="12" width="1" height="8"/>
			<path d="M24,11V8.5C24,8.224,23.776,8,23.5,8h-23C0.224,8,0,8.224,0,8.5V11H24z"/>
			<rect x="2" y="12" width="3" height="8"/>
			<rect x="8" y="12" width="1" height="8"/>
			<rect x="15" y="12" width="1" height="8"/>
			<path d="M0,21v2.5C0,23.776,0.224,24,0.5,24h23c0.276,0,0.5-0.224,0.5-0.5V21H0z"/>
			<rect x="19" y="12" width="3" height="8"/>
			<rect x="17" y="12" width="1" height="8"/>
		</g>
	</g>
</g>
<g id="Invisible_Shape">
	<rect fill="none" width="24" height="24"/>
</g>
</svg>
