<?xml version="1.0" encoding="utf-8"?>
<!-- Generator: Adobe Illustrator 19.2.1, SVG Export Plug-In . SVG Version: 6.00 Build 0)  -->
<svg version="1.1" xmlns="http://www.w3.org/2000/svg" xmlns:xlink="http://www.w3.org/1999/xlink" x="0px" y="0px" width="24px"
	 height="24px" viewBox="0 0 24 24" enable-background="new 0 0 24 24" xml:space="preserve">
<g id="Filled_Icon">
	<path d="M11.531,0C5.863,0,0,1.496,0,4c0,2.684-0.698,8.419,5.311,12.176L3.143,23.39c-0.079,0.265,0.071,0.543,0.335,0.622
		c0.271,0.08,0.545-0.074,0.623-0.334l2.098-6.981c1.644,0.8,2.957,1.181,4.801,1.277V23.5c0,0.276,0.224,0.5,0.5,0.5
		s0.5-0.224,0.5-0.5v-5.523c1.672-0.08,3.086-0.404,4.878-1.302l2.104,7.003c0.079,0.26,0.352,0.414,0.623,0.334
		c0.264-0.079,0.414-0.357,0.335-0.622l-2.176-7.242C23.655,12.377,23,6.856,23,4C23,1.496,17.169,0,11.531,0z M11.531,1
		C17.427,1,22,2.613,22,4c0,1.725-5.816,3-10.469,3C6.559,7,1,5.638,1,4C1,2.613,5.6,1,11.531,1z M1.507,9.998
		C0.929,8.315,1,7.205,1,5.678C1.508,6.07,2.194,6.416,3,6.716C3,8.109,3.29,9.955,1.507,9.998z M11.5,13
		c-0.827,0-1.5-0.673-1.5-1.5V7.96c1.158,0.054,1.879,0.052,3,0.003V11.5C13,12.327,12.327,13,11.5,13z M21.496,9.998
		C19.736,9.964,20,8.157,20,6.722c0.806-0.3,1.492-0.646,2-1.04C22,7.2,22.071,8.312,21.496,9.998z"/>
</g>
<g id="Invisible_Shape">
	<rect fill="none" width="24" height="24"/>
</g>
</svg>
