<?xml version="1.0" encoding="utf-8"?>
<!-- Generator: Adobe Illustrator 19.2.1, SVG Export Plug-In . SVG Version: 6.00 Build 0)  -->
<svg version="1.1" xmlns="http://www.w3.org/2000/svg" xmlns:xlink="http://www.w3.org/1999/xlink" x="0px" y="0px" width="24px"
	 height="24px" viewBox="0 0 24 24" enable-background="new 0 0 24 24" xml:space="preserve">
<g id="Filled_Icon">
	<path d="M12,24c6.617,0,12-5.383,12-12c0-6.616-5.383-12-12-12S0,5.384,0,12C0,18.617,5.383,24,12,24z M12.372,7.166l4.5,5
		C17.159,12.485,16.934,13,16.5,13h-9c-0.434,0-0.659-0.515-0.372-0.834l4.5-5C11.818,6.955,12.182,6.955,12.372,7.166z M7,14.5
		C7,14.224,7.224,14,7.5,14h9c0.276,0,0.5,0.224,0.5,0.5v2c0,0.276-0.224,0.5-0.5,0.5h-9C7.224,17,7,16.776,7,16.5V14.5z"/>
</g>
<g id="Invisible_Shape">
	<rect fill="none" width="24" height="24"/>
</g>
</svg>
