<?xml version="1.0" encoding="utf-8"?>
<!-- Generator: Adobe Illustrator 19.2.1, SVG Export Plug-In . SVG Version: 6.00 Build 0)  -->
<svg version="1.1" xmlns="http://www.w3.org/2000/svg" xmlns:xlink="http://www.w3.org/1999/xlink" x="0px" y="0px" width="24px"
	 height="24px" viewBox="0 0 24 24" enable-background="new 0 0 24 24" xml:space="preserve">
<g id="Filled_Icon">
	<g>
		<g>
			<path d="M8.5,22.5C8.224,22.5,8,22.276,8,22V4c0-0.276,0.224-0.5,0.5-0.5S9,3.724,9,4v18C9,22.276,8.776,22.5,8.5,22.5z"/>
		</g>
		<g>
			<path d="M11.5,23.5c-0.276,0-0.5-0.224-0.5-0.5V1c0-0.276,0.224-0.5,0.5-0.5S12,0.724,12,1v22C12,23.276,11.776,23.5,11.5,23.5z"
				/>
		</g>
		<g>
			<path d="M14.5,21.5c-0.276,0-0.5-0.224-0.5-0.5V3c0-0.276,0.224-0.5,0.5-0.5S15,2.724,15,3v18C15,21.276,14.776,21.5,14.5,21.5z"
				/>
		</g>
		<g>
			<path d="M17.5,18.5c-0.276,0-0.5-0.224-0.5-0.5V8c0-0.276,0.224-0.5,0.5-0.5S18,7.724,18,8v10C18,18.276,17.776,18.5,17.5,18.5z"
				/>
		</g>
		<g>
			<path d="M5.5,18.5C5.224,18.5,5,18.276,5,18V8c0-0.276,0.224-0.5,0.5-0.5S6,7.724,6,8v10C6,18.276,5.776,18.5,5.5,18.5z"/>
		</g>
		<g>
			<path d="M20.5,17.5c-0.276,0-0.5-0.224-0.5-0.5V9c0-0.276,0.224-0.5,0.5-0.5S21,8.724,21,9v8C21,17.276,20.776,17.5,20.5,17.5z"
				/>
		</g>
		<g>
			<path d="M2.5,17.5C2.224,17.5,2,17.276,2,17V9c0-0.276,0.224-0.5,0.5-0.5S3,8.724,3,9v8C3,17.276,2.776,17.5,2.5,17.5z"/>
		</g>
		<g>
			<path d="M0.5,14.5C0.224,14.5,0,14.276,0,14v-2c0-0.276,0.224-0.5,0.5-0.5S1,11.724,1,12v2C1,14.276,0.776,14.5,0.5,14.5z"/>
		</g>
		<g>
			<path d="M22.5,14.5c-0.276,0-0.5-0.224-0.5-0.5v-2c0-0.276,0.224-0.5,0.5-0.5S23,11.724,23,12v2C23,14.276,22.776,14.5,22.5,14.5
				z"/>
		</g>
	</g>
</g>
<g id="Invisible_Shape">
	<rect fill="none" width="24" height="24"/>
</g>
</svg>
