<?xml version="1.0" encoding="utf-8"?>
<!-- Generator: Adobe Illustrator 19.2.1, SVG Export Plug-In . SVG Version: 6.00 Build 0)  -->
<svg version="1.1" xmlns="http://www.w3.org/2000/svg" xmlns:xlink="http://www.w3.org/1999/xlink" x="0px" y="0px" width="24px"
	 height="24px" viewBox="0 0 24 24" enable-background="new 0 0 24 24" xml:space="preserve">
<g id="Filled_Icon">
	<path d="M23.5,0h-23C0.224,0,0,0.224,0,0.5v23C0,23.776,0.224,24,0.5,24h23c0.276,0,0.5-0.224,0.5-0.5v-23
		C24,0.224,23.776,0,23.5,0z M4,15h4c0.276,0,0.5,0.224,0.5,0.5S8.276,16,8,16H4c-0.276,0-0.5-0.224-0.5-0.5S3.724,15,4,15z
		 M3.5,13.5C3.5,13.224,3.724,13,4,13h4c0.276,0,0.5,0.224,0.5,0.5S8.276,14,8,14H4C3.724,14,3.5,13.776,3.5,13.5z M4,17h4
		c0.276,0,0.5,0.224,0.5,0.5S8.276,18,8,18H4c-0.276,0-0.5-0.224-0.5-0.5S3.724,17,4,17z M4,19h4c0.276,0,0.5,0.224,0.5,0.5
		S8.276,20,8,20H4c-0.276,0-0.5-0.224-0.5-0.5S3.724,19,4,19z M10,7h4c0.276,0,0.5,0.224,0.5,0.5S14.276,8,14,8h-4
		C9.724,8,9.5,7.776,9.5,7.5S9.724,7,10,7z M9.5,5.5C9.5,5.224,9.724,5,10,5h4c0.276,0,0.5,0.224,0.5,0.5S14.276,6,14,6h-4
		C9.724,6,9.5,5.776,9.5,5.5z M10,9h4c0.276,0,0.5,0.224,0.5,0.5S14.276,10,14,10h-4c-0.276,0-0.5-0.224-0.5-0.5S9.724,9,10,9z
		 M10,11h4c0.276,0,0.5,0.224,0.5,0.5S14.276,12,14,12h-4c-0.276,0-0.5-0.224-0.5-0.5S9.724,11,10,11z M10,13h4
		c0.276,0,0.5,0.224,0.5,0.5S14.276,14,14,14h-4c-0.276,0-0.5-0.224-0.5-0.5S9.724,13,10,13z M10,15h4c0.276,0,0.5,0.224,0.5,0.5
		S14.276,16,14,16h-4c-0.276,0-0.5-0.224-0.5-0.5S9.724,15,10,15z M10,17h4c0.276,0,0.5,0.224,0.5,0.5S14.276,18,14,18h-4
		c-0.276,0-0.5-0.224-0.5-0.5S9.724,17,10,17z M10,19h4c0.276,0,0.5,0.224,0.5,0.5S14.276,20,14,20h-4c-0.276,0-0.5-0.224-0.5-0.5
		S9.724,19,10,19z M15.5,19.5c0-0.276,0.224-0.5,0.5-0.5h4c0.276,0,0.5,0.224,0.5,0.5S20.276,20,20,20h-4
		C15.724,20,15.5,19.776,15.5,19.5z M20,18h-4c-0.276,0-0.5-0.224-0.5-0.5S15.724,17,16,17h4c0.276,0,0.5,0.224,0.5,0.5
		S20.276,18,20,18z"/>
</g>
<g id="Invisible_Shape">
	<rect fill="none" width="24" height="24"/>
</g>
</svg>
