<?xml version="1.0" encoding="utf-8"?>
<!-- Generator: Adobe Illustrator 19.2.1, SVG Export Plug-In . SVG Version: 6.00 Build 0)  -->
<svg version="1.1" xmlns="http://www.w3.org/2000/svg" xmlns:xlink="http://www.w3.org/1999/xlink" x="0px" y="0px" width="24px"
	 height="24px" viewBox="0 0 24 24" enable-background="new 0 0 24 24" xml:space="preserve">
<g id="Filled_Icon">
	<g>
		<path d="M7,20H3c-0.552,0-1,0.447-1,1c0,0.552,0.448,1,1,1h4c0.553,0,1-0.448,1-1C8,20.447,7.553,20,7,20z"/>
		<path d="M7,17H3c-0.552,0-1,0.447-1,1c0,0.552,0.448,1,1,1h4c0.553,0,1-0.448,1-1C8,17.447,7.553,17,7,17z"/>
		<path d="M7,14H3c-0.552,0-1,0.447-1,1c0,0.552,0.448,1,1,1h4c0.553,0,1-0.448,1-1C8,14.447,7.553,14,7,14z"/>
		<path d="M7,11H3c-0.552,0-1,0.447-1,1c0,0.552,0.448,1,1,1h4c0.553,0,1-0.448,1-1C8,11.447,7.553,11,7,11z"/>
		<path d="M14,20h-4c-0.552,0-1,0.447-1,1c0,0.552,0.448,1,1,1h4c0.553,0,1-0.448,1-1C15,20.447,14.553,20,14,20z"/>
		<path d="M14,17h-4c-0.552,0-1,0.447-1,1c0,0.552,0.448,1,1,1h4c0.553,0,1-0.448,1-1C15,17.447,14.553,17,14,17z"/>
		<path d="M14,14h-4c-0.552,0-1,0.447-1,1c0,0.552,0.448,1,1,1h4c0.553,0,1-0.448,1-1C15,14.447,14.553,14,14,14z"/>
		<path d="M14,11h-4c-0.552,0-1,0.447-1,1c0,0.552,0.448,1,1,1h4c0.553,0,1-0.448,1-1C15,11.447,14.553,11,14,11z"/>
		<path d="M14,8h-4C9.448,8,9,8.447,9,9c0,0.552,0.448,1,1,1h4c0.553,0,1-0.448,1-1C15,8.447,14.553,8,14,8z"/>
		<path d="M14,5h-4C9.448,5,9,5.447,9,6c0,0.552,0.448,1,1,1h4c0.553,0,1-0.448,1-1C15,5.447,14.553,5,14,5z"/>
		<path d="M14,2h-4C9.448,2,9,2.447,9,3c0,0.552,0.448,1,1,1h4c0.553,0,1-0.448,1-1C15,2.447,14.553,2,14,2z"/>
		<path d="M21,20h-4c-0.552,0-1,0.447-1,1c0,0.552,0.448,1,1,1h4c0.553,0,1-0.448,1-1C22,20.447,21.553,20,21,20z"/>
		<path d="M21,17h-4c-0.552,0-1,0.447-1,1c0,0.552,0.448,1,1,1h4c0.553,0,1-0.448,1-1C22,17.447,21.553,17,21,17z"/>
		<path d="M21,14h-4c-0.552,0-1,0.447-1,1c0,0.552,0.448,1,1,1h4c0.553,0,1-0.448,1-1C22,14.447,21.553,14,21,14z"/>
	</g>
</g>
<g id="Invisible_Shape">
	<rect fill="none" width="24" height="24"/>
</g>
</svg>
