<?xml version="1.0" encoding="utf-8"?>
<!-- Generator: Adobe Illustrator 19.2.1, SVG Export Plug-In . SVG Version: 6.00 Build 0)  -->
<svg version="1.1" xmlns="http://www.w3.org/2000/svg" xmlns:xlink="http://www.w3.org/1999/xlink" x="0px" y="0px" width="24px"
	 height="24px" viewBox="0 0 24 24" enable-background="new 0 0 24 24" xml:space="preserve">
<g id="Filled_Icon">
	<path d="M17.5,17h-1.051c3.183-5.457-7.696-8.17-5.566-16.31c0.134-0.513-0.524-0.856-0.866-0.449l-9.03,10.697
		c-0.333,0.397,0.082,0.979,0.569,0.787C6.679,9.667,15.796,14.075,13.264,17H7v-1h4.5c0.276,0,0.5-0.224,0.5-0.5S11.776,15,11.5,15
		H7v-0.5C7,14.224,6.776,14,6.5,14S6,14.224,6,14.5V15H1.5C1.224,15,1,15.224,1,15.5S1.224,16,1.5,16H6v1H0.5
		C0.224,17,0,17.224,0,17.5v5C0,22.776,0.224,23,0.5,23H3v0.516C3,23.792,3.224,24,3.5,24S4,23.792,4,23.516V23h10v0.516
		C14,23.792,14.224,24,14.5,24s0.5-0.208,0.5-0.484V23h2.5c0.276,0,0.5-0.224,0.5-0.5v-5C18,17.224,17.776,17,17.5,17z"/>
</g>
<g id="Invisible_Shape">
	<rect fill="none" width="24" height="24"/>
</g>
</svg>
