<?xml version="1.0" encoding="utf-8"?>
<!-- Generator: Adobe Illustrator 19.2.1, SVG Export Plug-In . SVG Version: 6.00 Build 0)  -->
<svg version="1.1" xmlns="http://www.w3.org/2000/svg" xmlns:xlink="http://www.w3.org/1999/xlink" x="0px" y="0px" width="24px"
	 height="24px" viewBox="0 0 24 24" enable-background="new 0 0 24 24" xml:space="preserve">
<g id="Filled_Icon">
	<path d="M23.5,13H23v-1c0-3.309-2.691-6-6-6c-1.103,0-2-0.898-2-2c0-2.206-1.794-4-4-4c-0.213,0-0.403,0.135-0.473,0.337L6.144,13
		H5.5C5.224,13,5,13.224,5,13.5V16H0.5C0.224,16,0,16.224,0,16.5v4C0,20.776,0.224,21,0.5,21H4v2.5C4,23.776,4.224,24,4.5,24
		S5,23.776,5,23.5V21h16v2.5c0,0.276,0.224,0.5,0.5,0.5s0.5-0.224,0.5-0.5V21h1.5c0.276,0,0.5-0.224,0.5-0.5v-7
		C24,13.224,23.776,13,23.5,13z M11.349,1.02C12.839,1.193,14,2.464,14,4c0,1.654,1.346,3,3,3c2.757,0,5,2.243,5,5v1h-6.726
		l-3.352-5.269c-0.148-0.232-0.457-0.302-0.691-0.153c-0.233,0.148-0.302,0.457-0.153,0.691L14.089,13H7.202L11.349,1.02z"/>
</g>
<g id="Invisible_Shape">
	<rect fill="none" width="24" height="24"/>
</g>
</svg>
