<?xml version="1.0" encoding="utf-8"?>
<!-- Generator: Adobe Illustrator 19.2.1, SVG Export Plug-In . SVG Version: 6.00 Build 0)  -->
<svg version="1.1" xmlns="http://www.w3.org/2000/svg" xmlns:xlink="http://www.w3.org/1999/xlink" x="0px" y="0px" width="24px"
	 height="24px" viewBox="0 0 24 24" enable-background="new 0 0 24 24" xml:space="preserve">
<g id="Filled_Icon">
	<path d="M22.848,4l0.646-0.647c0.195-0.195,0.195-0.512,0-0.707l-2.5-2.5c-0.195-0.195-0.512-0.195-0.707,0l-0.646,0.646
		l-0.646-0.646c-0.195-0.195-0.512-0.195-0.707,0c-0.195,0.195-0.195,0.512,0,0.707L18.934,1.5l-0.793,0.793l-0.646-0.646
		c-0.195-0.195-0.512-0.195-0.707,0c-0.195,0.195-0.195,0.512,0,0.707L17.434,3l-1.146,1.147c-0.195,0.195-0.195,0.512,0,0.707
		L16.434,5l-3.361,3.36c-2.877-1.721-6.169-0.422-6.841,2.557c-2.71-0.407-4.879,0.703-5.798,2.921
		c-0.992,2.395-0.247,5.415,1.853,7.516c1.453,1.453,3.369,2.286,5.257,2.286c3.223,0,5.766-2.375,5.179-6.232
		c1.317-0.301,2.395-1.156,2.941-2.358c0.628-1.385,0.48-3.032-0.385-4.48l3.361-3.361l0.146,0.147c0.195,0.195,0.512,0.195,0.707,0
		l1.146-1.147l0.646,0.647c0.195,0.195,0.512,0.195,0.707,0c0.195-0.195,0.195-0.512,0-0.707L21.348,5.5l0.793-0.793l0.646,0.647
		c0.195,0.195,0.512,0.195,0.707,0c0.195-0.195,0.195-0.512,0-0.707L22.848,4z M6.53,20.646c-0.195,0.195-0.512,0.195-0.707,0
		l-2.829-2.828c-0.195-0.195-0.195-0.512,0-0.707c0.195-0.195,0.512-0.195,0.707,0L6.53,19.94
		C6.725,20.135,6.725,20.451,6.53,20.646z M12.186,14.99c-0.976,0.975-2.555,0.979-3.535,0c-0.975-0.975-0.975-2.561,0-3.536
		c0.98-0.977,2.56-0.975,3.535,0C13.165,12.432,13.165,14.012,12.186,14.99z"/>
</g>
<g id="Invisible_Shape">
	<rect fill="none" width="24" height="24"/>
</g>
</svg>
