<?xml version="1.0" encoding="utf-8"?>
<!-- Generator: Adobe Illustrator 19.2.1, SVG Export Plug-In . SVG Version: 6.00 Build 0)  -->
<svg version="1.1" xmlns="http://www.w3.org/2000/svg" xmlns:xlink="http://www.w3.org/1999/xlink" x="0px" y="0px" width="24px"
	 height="24px" viewBox="0 0 24 24" enable-background="new 0 0 24 24" xml:space="preserve">
<g id="Filled_Icon">
	<g>
		<path d="M19.977,10.549C19.741,6.348,16.259,3,12,3s-7.741,3.348-7.977,7.549C1.768,10.79,0,12.682,0,15
			c0,2.481,2.019,4.5,4.5,4.5C4.776,19.5,5,19.276,5,19v-8c0-3.859,3.14-7,7-7s7,3.141,7,7v8c0,0.276,0.224,0.5,0.5,0.5
			c2.481,0,4.5-2.019,4.5-4.5C24,12.682,22.232,10.79,19.977,10.549z"/>
		<path d="M17.5,15H16c-0.189,0-0.362,0.107-0.447,0.276l-0.862,1.726l-1.202-5.608c-0.099-0.465-0.761-0.556-0.953-0.08
			l-1.586,3.966l-1.002-2.004C9.781,12.944,9.322,12.904,9.1,13.2L7.75,15H6.5C6.224,15,6,15.224,6,15.5S6.224,16,6.5,16H8
			c0.157,0,0.306-0.074,0.4-0.2l1.015-1.352l1.138,2.276c0.204,0.409,0.761,0.341,0.912-0.038l1.391-3.476l1.156,5.396
			c0.1,0.467,0.729,0.534,0.936,0.119L16.309,16H17.5c0.276,0,0.5-0.224,0.5-0.5S17.776,15,17.5,15z"/>
	</g>
</g>
<g id="Invisible_Shape">
	<rect fill="none" width="24" height="24"/>
</g>
</svg>
