<?xml version="1.0" encoding="utf-8"?>
<!-- Generator: Adobe Illustrator 19.2.1, SVG Export Plug-In . SVG Version: 6.00 Build 0)  -->
<svg version="1.1" xmlns="http://www.w3.org/2000/svg" xmlns:xlink="http://www.w3.org/1999/xlink" x="0px" y="0px" width="24px"
	 height="24px" viewBox="0 0 24 24" enable-background="new 0 0 24 24" xml:space="preserve">
<g id="Filled_Icon">
	<g>
		<path d="M17.977,16.604C17.743,13.476,15.155,11,12,11c-3.194,0-5.745,2.43-5.977,5.604c-1.828,0.195-2.991,1.489-2.991,3.429
			c0,2.107,1.361,3.468,3.468,3.468C6.776,23.5,7,23.276,7,23v-5.935c0-0.011-0.005-0.02-0.006-0.03C7.157,13.847,9.459,12,12,12
			c2.757,0,5,2.271,5,5.065V23c0,0.276,0.224,0.5,0.5,0.5c2.106,0,3.468-1.361,3.468-3.468
			C20.968,18.093,19.805,16.799,17.977,16.604z"/>
		<path d="M21.211,3.851c-5.078-5.079-13.342-5.077-18.422,0c-0.195,0.195-0.195,0.512,0,0.707c0.195,0.195,0.512,0.195,0.707,0
			c4.69-4.688,12.32-4.688,17.008,0c0.195,0.195,0.512,0.195,0.707,0C21.406,4.362,21.406,4.046,21.211,3.851z"/>
		<path d="M18.682,6.983c0.195-0.195,0.195-0.512,0-0.707c-3.699-3.701-9.677-3.687-13.36,0c-0.195,0.195-0.195,0.512,0,0.707
			s0.512,0.195,0.707,0c3.273-3.274,8.62-3.327,11.946,0C18.17,7.179,18.486,7.179,18.682,6.983z"/>
		<path d="M16.15,8.7c-2.314-2.314-6.041-2.255-8.3-0.001c-0.195,0.195-0.195,0.512,0,0.708c0.17,0.17,0.505,0.204,0.707,0.001
			c1.901-1.898,4.988-1.896,6.886-0.001c0.195,0.195,0.512,0.195,0.707,0C16.345,9.213,16.346,8.896,16.15,8.7z"/>
	</g>
</g>
<g id="Invisible_Shape">
	<rect fill="none" width="24" height="24"/>
</g>
</svg>
