<?xml version="1.0" encoding="utf-8"?>
<!-- Generator: Adobe Illustrator 19.2.1, SVG Export Plug-In . SVG Version: 6.00 Build 0)  -->
<svg version="1.1" xmlns="http://www.w3.org/2000/svg" xmlns:xlink="http://www.w3.org/1999/xlink" x="0px" y="0px" width="24px"
	 height="24px" viewBox="0 0 24 24" enable-background="new 0 0 24 24" xml:space="preserve">
<g id="Filled_Icon">
	<g>
		<circle cx="12" cy="12" r="6"/>
		<path d="M19.976,7.526C19.729,3.336,16.251,0,12,0S4.272,3.336,4.024,7.526C1.766,7.765,0,9.68,0,12c0,2.481,2.019,4.5,4.5,4.5
			C4.776,16.5,5,16.276,5,16V8c0-3.859,3.14-7,7-7s7,3.141,7,7v8c0,0.276,0.224,0.5,0.5,0.5c2.481,0,4.5-2.019,4.5-4.5
			C24,9.68,22.234,7.765,19.976,7.526z"/>
		<path d="M17,20H7c-1.93,0-3.5,1.57-3.5,3.5C3.5,23.776,3.724,24,4,24h16c0.276,0,0.5-0.224,0.5-0.5C20.5,21.57,18.93,20,17,20z"/>
	</g>
</g>
<g id="Invisible_Shape">
	<rect fill="none" width="24" height="24"/>
</g>
</svg>
