<?xml version="1.0" encoding="utf-8"?>
<!-- Generator: Adobe Illustrator 19.2.1, SVG Export Plug-In . SVG Version: 6.00 Build 0)  -->
<svg version="1.1" xmlns="http://www.w3.org/2000/svg" xmlns:xlink="http://www.w3.org/1999/xlink" x="0px" y="0px" width="24px"
	 height="24px" viewBox="0 0 24 24" enable-background="new 0 0 24 24" xml:space="preserve">
<g id="Filled_Icon">
	<g>
		<path d="M0,15.5c0,0.813,0.396,1.531,1,1.987v-3.974C0.396,13.97,0,14.686,0,15.5z"/>
		<path d="M19.5,10h-0.025C19.215,6.098,15.967,3,12,3s-7.215,3.098-7.475,7H4.5C3.122,10,2,11.122,2,12.5v6
			C2,19.879,3.122,21,4.5,21h2C6.776,21,7,20.776,7,20.5v-10C7,10.224,6.776,10,6.5,10H5.525C5.782,6.65,8.585,4,12,4
			s6.218,2.65,6.475,6H17.5c-0.276,0-0.5,0.224-0.5,0.5v10c0,0.276,0.224,0.5,0.5,0.5h2c1.378,0,2.5-1.121,2.5-2.5v-6
			C22,11.122,20.878,10,19.5,10z"/>
		<path d="M23,13.514v3.974c0.604-0.456,1-1.174,1-1.987C24,14.686,23.604,13.97,23,13.514z"/>
	</g>
</g>
<g id="Invisible_Shape">
	<rect fill="none" width="24" height="24"/>
</g>
</svg>
