<?xml version="1.0" encoding="utf-8"?>
<!-- Generator: Adobe Illustrator 19.2.1, SVG Export Plug-In . SVG Version: 6.00 Build 0)  -->
<svg version="1.1" xmlns="http://www.w3.org/2000/svg" xmlns:xlink="http://www.w3.org/1999/xlink" x="0px" y="0px" width="24px"
	 height="24px" viewBox="0 0 24 24" enable-background="new 0 0 24 24" xml:space="preserve">
<g id="Filled_Icon">
	<g>
		<g>
			<path d="M2.5,11C1.122,11,0,12.121,0,13.5v8C0,22.879,1.122,24,2.5,24H5V11H2.5z M3,21.5c-0.827,0-1.5-0.673-1.5-1.5
				s0.673-1.5,1.5-1.5s1.5,0.673,1.5,1.5S3.827,21.5,3,21.5z M3,16.5c-0.827,0-1.5-0.673-1.5-1.5s0.673-1.5,1.5-1.5
				s1.5,0.673,1.5,1.5S3.827,16.5,3,16.5z"/>
			<circle cx="21" cy="20" r="0.5"/>
			<circle cx="3" cy="15" r="0.5"/>
			<circle cx="3" cy="20" r="0.5"/>
			<path d="M14.5,18h-5C7.57,18,6,16.43,6,14.5V24h12v-9.5C18,16.43,16.43,18,14.5,18z M10.5,21h-3C7.224,21,7,20.776,7,20.5
				S7.224,20,7.5,20h3c0.276,0,0.5,0.224,0.5,0.5S10.776,21,10.5,21z M16.479,21H13.5c-0.276,0-0.5-0.224-0.5-0.5s0.224-0.5,0.5-0.5
				h2.979c0.276,0,0.5,0.224,0.5,0.5S16.755,21,16.479,21z"/>
			<circle cx="21" cy="15" r="0.5"/>
			<path d="M21.5,11H19v13h2.5c1.378,0,2.5-1.121,2.5-2.5v-8C24,12.121,22.878,11,21.5,11z M21,21.5c-0.827,0-1.5-0.673-1.5-1.5
				s0.673-1.5,1.5-1.5s1.5,0.673,1.5,1.5S21.827,21.5,21,21.5z M21,16.5c-0.827,0-1.5-0.673-1.5-1.5s0.673-1.5,1.5-1.5
				s1.5,0.673,1.5,1.5S21.827,16.5,21,16.5z"/>
		</g>
		<g>
			<path d="M17,3V2.5C17,1.122,15.878,0,14.5,0h-5C8.122,0,7,1.122,7,2.5V3H17z"/>
			<path d="M7,14v0.5C7,15.879,8.122,17,9.5,17h5c1.378,0,2.5-1.121,2.5-2.5V14H7z"/>
			<rect x="7" y="4" width="10" height="9"/>
		</g>
	</g>
</g>
<g id="Invisible_Shape">
	<rect fill="none" width="24" height="24"/>
</g>
</svg>
