<?xml version="1.0" encoding="utf-8"?>
<!-- Generator: Adobe Illustrator 19.2.1, SVG Export Plug-In . SVG Version: 6.00 Build 0)  -->
<svg version="1.1" xmlns="http://www.w3.org/2000/svg" xmlns:xlink="http://www.w3.org/1999/xlink" x="0px" y="0px" width="24px"
	 height="24px" viewBox="0 0 24 24" enable-background="new 0 0 24 24" xml:space="preserve">
<g id="Filled_Icon">
	<g>
		<path d="M6.5,16C5.122,16,4,17.121,4,18.5S5.122,21,6.5,21S9,19.879,9,18.5S7.878,16,6.5,16z M6.5,19.5c-0.551,0-1-0.448-1-1
			s0.449-1,1-1s1,0.448,1,1S7.051,19.5,6.5,19.5z"/>
		<path d="M21.5,10h-4C16.673,10,16,9.327,16,8.5S16.673,7,17.5,7h4C22.878,7,24,5.879,24,4.5S22.878,2,21.5,2H11
			C9.897,2,9,2.898,9,4v2H2.5C1.122,6,0,7.121,0,8.5v13C0,22.879,1.122,24,2.5,24h8c1.378,0,2.5-1.121,2.5-2.5v-13
			C13,7.121,11.878,6,10.5,6H10V4c0-0.552,0.449-1,1-1h10.5C22.327,3,23,3.673,23,4.5S22.327,6,21.5,6h-4C16.122,6,15,7.121,15,8.5
			s1.122,2.5,2.5,2.5h4c0.827,0,1.5,0.673,1.5,1.5S22.327,14,21.5,14h-3c-1.378,0-2.5,1.121-2.5,2.5V18h-0.5
			c-0.276,0-0.5,0.224-0.5,0.5v3c0,0.276,0.224,0.5,0.5,0.5h2.99c-0.653-1.303-0.654-2.695,0-4H17v-1.5c0-0.827,0.673-1.5,1.5-1.5h3
			c1.378,0,2.5-1.121,2.5-2.5S22.878,10,21.5,10z M6.5,22C4.57,22,3,20.43,3,18.5S4.57,15,6.5,15s3.5,1.57,3.5,3.5S8.43,22,6.5,22z
			 M11,9.5v4c0,0.276-0.224,0.5-0.5,0.5h-8C2.224,14,2,13.776,2,13.5v-4C2,9.224,2.224,9,2.5,9h8C10.776,9,11,9.224,11,9.5z"/>
		<path d="M22.5,16.5c-1.93,0-3.5,1.57-3.5,3.5s1.57,3.5,3.5,3.5c0.276,0,0.5-0.224,0.5-0.5v-6C23,16.724,22.776,16.5,22.5,16.5z"/>
	</g>
</g>
<g id="Invisible_Shape">
	<rect fill="none" width="24" height="24"/>
</g>
</svg>
