<?xml version="1.0" encoding="utf-8"?>
<!-- Generator: Adobe Illustrator 19.2.1, SVG Export Plug-In . SVG Version: 6.00 Build 0)  -->
<svg version="1.1" xmlns="http://www.w3.org/2000/svg" xmlns:xlink="http://www.w3.org/1999/xlink" x="0px" y="0px" width="24px"
	 height="24px" viewBox="0 0 24 24" enable-background="new 0 0 24 24" xml:space="preserve">
<g id="Filled_Icon">
	<g>
		<path d="M12,11.5c-2.481,0-4.5,2.019-4.5,4.5s2.019,4.5,4.5,4.5s4.5-2.019,4.5-4.5S14.481,11.5,12,11.5z M12,17
			c-0.551,0-1-0.448-1-1s0.449-1,1-1s1,0.448,1,1S12.551,17,12,17z"/>
		<path d="M16.5,0h-9C5.57,0,4,1.57,4,3.5v17C4,22.43,5.57,24,7.5,24h9c1.93,0,3.5-1.57,3.5-3.5v-17C20,1.57,18.43,0,16.5,0z
			 M12,21.5c-3.033,0-5.5-2.468-5.5-5.5s2.467-5.5,5.5-5.5s5.5,2.468,5.5,5.5S15.033,21.5,12,21.5z M18,8.5
			C18,8.776,17.776,9,17.5,9h-11C6.224,9,6,8.776,6,8.5v-5C6,3.224,6.224,3,6.5,3h11C17.776,3,18,3.224,18,3.5V8.5z"/>
	</g>
</g>
<g id="Invisible_Shape">
	<rect fill="none" width="24" height="24"/>
</g>
</svg>
