<?xml version="1.0" encoding="utf-8"?>
<!-- Generator: Adobe Illustrator 19.2.1, SVG Export Plug-In . SVG Version: 6.00 Build 0)  -->
<svg version="1.1" xmlns="http://www.w3.org/2000/svg" xmlns:xlink="http://www.w3.org/1999/xlink" x="0px" y="0px" width="24px"
	 height="24px" viewBox="0 0 24 24" enable-background="new 0 0 24 24" xml:space="preserve">
<g id="Filled_Icon">
	<g>
		<path d="M4.975,9.913L4.103,6.719C4.001,6.346,4.346,6.002,4.717,6.104l3.198,0.872L7.55,2.748
			C3.329,1.502-0.462,5.363,0.746,9.534L4.975,9.913z"/>
		<path d="M17.667,16.132l-1.424-1.425l-3.535,3.535l1.424,1.425c0.977,0.978,2.56,0.979,3.536,0
			C18.642,18.692,18.642,17.106,17.667,16.132z"/>
		<path d="M7.894,13.157l3.261-3.261c0.884-2.414,0.036-5.325-2.563-6.722l0.382,4.43C9.003,7.95,8.678,8.222,8.344,8.13L5.298,7.3
			l0.831,3.044c0.087,0.32-0.156,0.654-0.527,0.63L1.17,10.576C2.561,13.189,5.473,14.046,7.894,13.157z"/>
		<path d="M12.001,10.464l-5.668,5.668c-0.975,0.975-0.976,2.561-0.002,3.535c0.977,0.978,2.56,0.978,3.537,0l5.653-5.653
			C14,13.385,12.701,12.179,12.001,10.464z"/>
		<path d="M15.409,3.175l-0.382,4.43c-0.03,0.346,0.295,0.617,0.629,0.525l3.045-0.83l-0.831,3.044
			c-0.087,0.32,0.156,0.654,0.527,0.63l4.432-0.397c-1.808,3.397-6.192,3.839-8.719,1.313C11.598,9.377,12.026,4.992,15.409,3.175z"
			/>
		<path d="M19.025,9.913l0.872-3.194c0.102-0.373-0.243-0.717-0.614-0.614l-3.198,0.872l0.365-4.229
			c4.221-1.246,8.012,2.615,6.804,6.786L19.025,9.913z"/>
	</g>
</g>
<g id="Invisible_Shape">
	<rect fill="none" width="24" height="24"/>
</g>
</svg>
