<?xml version="1.0" encoding="utf-8"?>
<!-- Generator: Adobe Illustrator 19.2.1, SVG Export Plug-In . SVG Version: 6.00 Build 0)  -->
<svg version="1.1" xmlns="http://www.w3.org/2000/svg" xmlns:xlink="http://www.w3.org/1999/xlink" x="0px" y="0px" width="24px"
	 height="24px" viewBox="0 0 24 24" enable-background="new 0 0 24 24" xml:space="preserve">
<g id="Filled_Icon">
	<g>
		<g>
			<path d="M18.023,15.902C18.679,14.836,19,13.686,19,12.5c0-2.117,0-3.887,0-6C19,2.884,16.027,0,12.5,0
				C9.878,0,7.393,1.607,6.403,4.281L18.023,15.902z"/>
			<path d="M6,8.121c0,2.439,0,1.931,0,4.379c0,3.572,2.935,6.5,6.5,6.5c1.122,0,2.297-0.293,3.402-0.977L6,8.121z"/>
		</g>
		<g>
			<path d="M19.483,17.361C20.52,15.86,21,14.154,21,12.5v-2c0-0.276-0.224-0.5-0.5-0.5S20,10.224,20,10.5v2
				c0,1.426-0.388,2.838-1.238,4.141L19.483,17.361z"/>
			<path d="M16.641,18.762C15.314,19.636,13.865,20,12.5,20C8.34,20,5,16.734,5,12.5v-2C5,10.224,4.776,10,4.5,10S4,10.224,4,10.5v2
				c0,4.6,3.485,8.228,8,8.476V24h1v-3.024c1.62-0.089,3.06-0.594,4.362-1.493L16.641,18.762z"/>
		</g>
		<g>
			<path d="M22.646,23.354l-22-22c-0.195-0.195-0.195-0.512,0-0.707s0.512-0.195,0.707,0l22,22c0.195,0.195,0.195,0.512,0,0.707
				C23.158,23.549,22.842,23.549,22.646,23.354z"/>
		</g>
	</g>
</g>
<g id="Invisible_Shape">
	<rect fill="none" width="24" height="24"/>
</g>
</svg>
