<?xml version="1.0" encoding="utf-8"?>
<!-- Generator: Adobe Illustrator 19.2.1, SVG Export Plug-In . SVG Version: 6.00 Build 0)  -->
<svg version="1.1" xmlns="http://www.w3.org/2000/svg" xmlns:xlink="http://www.w3.org/1999/xlink" x="0px" y="0px" width="24px"
	 height="24px" viewBox="0 0 24 24" enable-background="new 0 0 24 24" xml:space="preserve">
<g id="Filled_Icon">
	<g>
		<circle cx="12.525" cy="13.507" r="1.5"/>
		<path d="M16.525,7h2.5V6.007h-2.5c-0.276,0-0.5-0.224-0.5-0.5c0-0.276,0.224-0.5,0.5-0.507H19
			c-0.254-2.792-2.611-4.993-5.475-4.993h-3C7.661,0.007,5.304,2.208,5.05,5h6.475c0.276,0.007,0.5,0.231,0.5,0.507
			c0,0.276-0.224,0.5-0.5,0.5h-6.5V7h6.5c0.276,0.007,0.5,0.231,0.5,0.507c0,0.276-0.224,0.5-0.5,0.5h-6.5V9h6.5
			c0.276,0.007,0.5,0.231,0.5,0.507c0,0.276-0.224,0.5-0.5,0.5h-6.5v2.5c0,3.033,2.467,5.5,5.5,5.5h1.5v1.03
			c-2.247,0.249-4,2.158-4,4.47c0,0.276,0.224,0.5,0.5,0.493c0,0,8.007,0,8.01,0c0.276,0,0.5-0.217,0.5-0.493
			c0-0.036-0.004-0.071-0.011-0.105c-0.053-2.265-1.787-4.118-3.999-4.364v-1.03h0.5c3.033,0,5.5-2.467,5.5-5.5v-2.5h-2.5
			c-0.276,0-0.5-0.224-0.5-0.5c0-0.276,0.224-0.5,0.5-0.507h2.5V8.007h-2.5c-0.276,0-0.5-0.224-0.5-0.5
			C16.025,7.231,16.249,7.007,16.525,7z M12.525,16.007c-1.378,0-2.5-1.121-2.5-2.5c0-1.378,1.122-2.5,2.5-2.5s2.5,1.122,2.5,2.5
			C15.025,14.886,13.903,16.007,12.525,16.007z"/>
	</g>
</g>
<g id="Invisible_Shape">
	<rect fill="none" width="24" height="24"/>
</g>
</svg>
