<?xml version="1.0" encoding="utf-8"?>
<!-- Generator: Adobe Illustrator 19.2.1, SVG Export Plug-In . SVG Version: 6.00 Build 0)  -->
<svg version="1.1" xmlns="http://www.w3.org/2000/svg" xmlns:xlink="http://www.w3.org/1999/xlink" x="0px" y="0px" width="24px"
	 height="24px" viewBox="0 0 24 24" enable-background="new 0 0 24 24" xml:space="preserve">
<g id="Filled_Icon">
	<path d="M13,5.256v-2.42l4.227-1.729c0.255-0.104,0.378-0.396,0.273-0.652c-0.103-0.254-0.397-0.379-0.652-0.273l-4.537,1.857
		C12.123,2.115,12,2.298,12,2.501V14H9.5C7.57,14,6,15.57,6,17.5S7.57,21,9.5,21c1.865,0,3.5-1.636,3.5-3.5V6.336l4.227-1.728
		c0.255-0.104,0.378-0.397,0.273-0.652c-0.104-0.256-0.399-0.378-0.652-0.273L13,5.256z"/>
</g>
<g id="Invisible_Shape">
	<rect fill="none" width="24" height="24"/>
</g>
</svg>
