<?xml version="1.0" encoding="utf-8"?>
<!-- Generator: Adobe Illustrator 19.2.1, SVG Export Plug-In . SVG Version: 6.00 Build 0)  -->
<svg version="1.1" xmlns="http://www.w3.org/2000/svg" xmlns:xlink="http://www.w3.org/1999/xlink" x="0px" y="0px" width="24px"
	 height="24px" viewBox="0 0 24 24" enable-background="new 0 0 24 24" xml:space="preserve">
<g id="Filled_Icon">
	<path d="M9.311,5.038C9.123,5.115,9,5.298,9,5.501V17H6.5C4.57,17,3,18.57,3,20.5S4.57,24,6.5,24c1.865,0,3.5-1.636,3.5-3.5V9.336
		l10-4.091V13h-2.5c-1.93,0-3.5,1.57-3.5,3.5s1.57,3.5,3.5,3.5c1.865,0,3.5-1.636,3.5-3.5V1c0-0.354-0.361-0.597-0.69-0.462
		L9.311,5.038z"/>
</g>
<g id="Invisible_Shape">
	<rect fill="none" width="24" height="24"/>
</g>
</svg>
