<?xml version="1.0" encoding="utf-8"?>
<!-- Generator: Adobe Illustrator 19.2.1, SVG Export Plug-In . SVG Version: 6.00 Build 0)  -->
<svg version="1.1" xmlns="http://www.w3.org/2000/svg" xmlns:xlink="http://www.w3.org/1999/xlink" x="0px" y="0px" width="24px"
	 height="24px" viewBox="0 0 24 24" enable-background="new 0 0 24 24" xml:space="preserve">
<g id="Filled_Icon">
	<g>
		<g>
			<path d="M2.793,7.707c-0.391-0.391-0.391-1.023,0-1.414l6-6c0.391-0.391,1.023-0.391,1.414,0c0.391,0.391,0.391,1.023,0,1.414
				l-6,6C3.816,8.098,3.184,8.098,2.793,7.707z"/>
		</g>
		<g>
			<path d="M19.793,7.707l-6-6c-0.391-0.391-0.391-1.023,0-1.414c0.391-0.391,1.023-0.391,1.414,0l6,6
				c0.391,0.391,0.391,1.023,0,1.414C20.816,8.098,20.184,8.098,19.793,7.707z"/>
		</g>
		<g>
			<path d="M0.498,12h23.005C23.777,11.998,24,11.775,24,11.5v-2C24,9.224,23.776,9,23.5,9h-23C0.224,9,0,9.224,0,9.5v2
				C0,11.775,0.223,11.998,0.498,12z"/>
			<path d="M1.243,13l1.764,10.582C3.047,23.823,3.255,24,3.5,24h17c0.245,0,0.453-0.177,0.493-0.418L22.757,13H1.243z M15,19.487
				c0,0.799-0.701,1.5-1.5,1.5c-0.827,0-1.5-0.673-1.5-1.5c0-0.827,0.673-1.5,1.5-1.5H14v-2.702l-3,1.391V21.5
				c0,0.799-0.701,1.5-1.5,1.5C8.673,23,8,22.327,8,21.5S8.673,20,9.5,20H10v-3.644c0-0.194,0.113-0.372,0.29-0.454l4-1.853
				c0.329-0.152,0.71,0.089,0.71,0.454V19.487z"/>
		</g>
	</g>
</g>
<g id="Invisible_Shape">
	<rect fill="none" width="24" height="24"/>
</g>
</svg>
