<?xml version="1.0" encoding="utf-8"?>
<!-- Generator: Adobe Illustrator 19.2.1, SVG Export Plug-In . SVG Version: 6.00 Build 0)  -->
<svg version="1.1" xmlns="http://www.w3.org/2000/svg" xmlns:xlink="http://www.w3.org/1999/xlink" x="0px" y="0px" width="24px"
	 height="24px" viewBox="0 0 24 24" enable-background="new 0 0 24 24" xml:space="preserve">
<g id="Filled_Icon">
	<g>
		<g>
			<g>
				<path d="M15.5,11c-0.277,0-0.5,0.224-0.5,0.5s0.223,0.5,0.5,0.5c0.275,0,0.5-0.224,0.5-0.5S15.775,11,15.5,11L15.5,11z"/>
			</g>
		</g>
		<path d="M13.5,2h-13C0.224,2,0,2.224,0,2.5v18C0,20.776,0.224,21,0.5,21h13c0.276,0,0.5-0.224,0.5-0.5v-18
			C14,2.224,13.776,2,13.5,2z M11.019,13.731c0,1.269-1.252,1.269-2,1.269C7.773,15,7,14.233,7,13s0.788-2,2.056-2H10V7.4L6,9.86
			v5.871C6,17,4.748,17,4,17c-1.245,0-2.019-0.767-2.019-2s0.788-2,2.056-2H5V9.581c0-0.174,0.09-0.335,0.238-0.426l5-3.075
			C10.569,5.874,11,6.115,11,6.506L11.019,13.731z"/>
		<g>
			<path d="M15,3.031v6.029c1.613-0.33,3,0.913,3,2.439c0,1.543-1.411,2.773-3,2.439v6.03c5.024,0.294,9-3.707,9-8.469
				C24,6.727,20.013,2.738,15,3.031z"/>
		</g>
	</g>
</g>
<g id="Invisible_Shape">
	<rect fill="none" width="24" height="24"/>
</g>
</svg>
