<?xml version="1.0" encoding="utf-8"?>
<!-- Generator: Adobe Illustrator 19.2.1, SVG Export Plug-In . SVG Version: 6.00 Build 0)  -->
<svg version="1.1" xmlns="http://www.w3.org/2000/svg" xmlns:xlink="http://www.w3.org/1999/xlink" x="0px" y="0px" width="24px"
	 height="24px" viewBox="0 0 24 24" enable-background="new 0 0 24 24" xml:space="preserve">
<g id="Filled_Icon">
	<g>
		<path d="M21.5,4H19v9.5c0,0.277-0.224,0.5-0.5,0.5H18v6h3.5c0.276,0,0.5-0.223,0.5-0.5v-15C22,4.225,21.776,4,21.5,4z"/>
		<path d="M4,13.5V4H1.5C1.225,4,1,4.225,1,4.5v15C1,19.777,1.225,20,1.5,20H5v-6H4.5C4.225,14,4,13.777,4,13.5z"/>
		<path d="M8,13.5V4H7v9.5C7,13.777,6.776,14,6.5,14H6v6h3v-6H8.5C8.225,14,8,13.777,8,13.5z"/>
		<path d="M12,13.5V4h-1v9.5c0,0.277-0.224,0.5-0.5,0.5H10v6h3v-6h-0.5C12.225,14,12,13.777,12,13.5z"/>
		<path d="M16,13.5V4h-1v9.5c0,0.277-0.224,0.5-0.5,0.5H14v6h3v-6h-0.5C16.225,14,16,13.777,16,13.5z"/>
	</g>
</g>
<g id="Invisible_Shape">
	<rect fill="none" width="24" height="24"/>
</g>
</svg>
