<?xml version="1.0" encoding="utf-8"?>
<!-- Generator: Adobe Illustrator 19.2.1, SVG Export Plug-In . SVG Version: 6.00 Build 0)  -->
<svg version="1.1" xmlns="http://www.w3.org/2000/svg" xmlns:xlink="http://www.w3.org/1999/xlink" x="0px" y="0px" width="24px"
	 height="24px" viewBox="0 0 24 24" enable-background="new 0 0 24 24" xml:space="preserve">
<g id="Filled_Icon">
	<g>
		<g>
			<path d="M20,2H5C4.448,2,4,1.552,4,1s0.448-1,1-1h15c0.552,0,1,0.448,1,1S20.552,2,20,2z"/>
		</g>
		<g>
			<path d="M20,6H5C4.448,6,4,5.552,4,5s0.448-1,1-1h15c0.552,0,1,0.448,1,1S20.552,6,20,6z"/>
		</g>
		<g>
			<path d="M19,10H5c-0.552,0-1-0.448-1-1s0.448-1,1-1h14c0.552,0,1,0.448,1,1S19.552,10,19,10z"/>
		</g>
		<g>
			<path d="M13,14H5c-0.552,0-1-0.448-1-1s0.448-1,1-1h8c0.552,0,1,0.448,1,1S13.552,14,13,14z"/>
		</g>
		<g>
			<path d="M12.5,18H5c-0.552,0-1-0.448-1-1s0.448-1,1-1h7.5c0.552,0,1,0.448,1,1S13.052,18,12.5,18z"/>
		</g>
		<g>
			<path d="M2,2H1C0.448,2,0,1.552,0,1s0.448-1,1-1h1c0.552,0,1,0.448,1,1S2.552,2,2,2z"/>
		</g>
		<g>
			<path d="M2,6H1C0.448,6,0,5.552,0,5s0.448-1,1-1h1c0.552,0,1,0.448,1,1S2.552,6,2,6z"/>
		</g>
		<g>
			<path d="M2,10H1c-0.552,0-1-0.448-1-1s0.448-1,1-1h1c0.552,0,1,0.448,1,1S2.552,10,2,10z"/>
		</g>
		<g>
			<path d="M2,14H1c-0.552,0-1-0.448-1-1s0.448-1,1-1h1c0.552,0,1,0.448,1,1S2.552,14,2,14z"/>
		</g>
		<g>
			<path d="M2,18H1c-0.552,0-1-0.448-1-1s0.448-1,1-1h1c0.552,0,1,0.448,1,1S2.552,18,2,18z"/>
		</g>
		<path d="M23.223,10.098l-6,4C17.083,14.19,17,14.347,17,14.514V19h-1.5c-1.208,0-2.5,0.659-2.5,2.507
			c0,1.848,1.292,2.507,2.5,2.507c0.996,0,2.5,0,2.5-1.5v-7.733l5-3.333V16h-1.5c-1.208,0-2.5,0.659-2.5,2.507
			c0,1.848,1.292,2.507,2.5,2.507c0.996,0,2.5,0,2.5-1.5c0-3.274,0-5.476,0-9C24,10.117,23.557,9.876,23.223,10.098z"/>
	</g>
</g>
<g id="Invisible_Shape">
	<rect fill="none" width="24" height="24"/>
</g>
</svg>
