<?xml version="1.0" encoding="utf-8"?>
<!-- Generator: Adobe Illustrator 19.2.1, SVG Export Plug-In . SVG Version: 6.00 Build 0)  -->
<svg version="1.1" xmlns="http://www.w3.org/2000/svg" xmlns:xlink="http://www.w3.org/1999/xlink" x="0px" y="0px" width="24px"
	 height="24px" viewBox="0 0 24 24" enable-background="new 0 0 24 24" xml:space="preserve">
<g id="Filled_Icon">
	<g>
		<g>
			<path d="M14.5,17h8.979c0.276,0,0.5-0.224,0.5-0.5s-0.224-0.5-0.5-0.5H14.5c-0.276,0-0.5,0.224-0.5,0.5S14.224,17,14.5,17z"/>
			<path d="M23.479,18H14.5c-0.276,0-0.5,0.224-0.5,0.5s0.224,0.5,0.5,0.5h8.979c0.276,0,0.5-0.224,0.5-0.5S23.755,18,23.479,18z"/>
			<path d="M23.479,20H14.5c-0.276,0-0.5,0.224-0.5,0.5s0.224,0.5,0.5,0.5h8.979c0.276,0,0.5-0.224,0.5-0.5S23.755,20,23.479,20z"/>
			<path d="M23.479,22H14.5c-0.276,0-0.5,0.224-0.5,0.5s0.224,0.5,0.5,0.5h8.979c0.276,0,0.5-0.224,0.5-0.5S23.755,22,23.479,22z"/>
		</g>
		<path d="M13,15.5c0-0.276,0.224-0.5,0.5-0.5H19V0.5C19,0.224,18.776,0,18.5,0h-18C0.224,0,0,0.224,0,0.5v18
			C0,18.776,0.224,19,0.5,19H13V15.5z M9,10.493c0-1.849,1.292-2.507,2.5-2.507H13V3.434L8,6.768V14.5C8,16,6.496,16,5.5,16
			C4.292,16,3,15.342,3,13.493c0-1.849,1.292-2.507,2.5-2.507H7V6.5c0-0.167,0.083-0.323,0.223-0.416l6-4
			C13.55,1.864,14,2.098,14,2.5v9c0,1.5-1.504,1.5-2.5,1.5C10.292,13,9,12.342,9,10.493z"/>
	</g>
</g>
<g id="Invisible_Shape">
	<rect fill="none" width="24" height="24"/>
</g>
</svg>
