<?xml version="1.0" encoding="utf-8"?>
<!-- Generator: Adobe Illustrator 19.2.1, SVG Export Plug-In . SVG Version: 6.00 Build 0)  -->
<svg version="1.1" xmlns="http://www.w3.org/2000/svg" xmlns:xlink="http://www.w3.org/1999/xlink" x="0px" y="0px" width="24px"
	 height="24px" viewBox="0 0 24 24" enable-background="new 0 0 24 24" xml:space="preserve">
<g id="Filled_Icon">
	<g>
		<path d="M19,12.025V0.5C19,0.224,18.776,0,18.5,0h-18C0.224,0,0,0.224,0,0.5v18C0,18.776,0.224,19,0.5,19h11.525
			C11.72,15.006,15.031,11.721,19,12.025z M9,10.493c0-1.849,1.292-2.507,2.5-2.507H13V3.434L8,6.768V14.5C8,16,6.496,16,5.5,16
			C4.292,16,3,15.342,3,13.493c0-1.849,1.292-2.507,2.5-2.507H7V6.5c0-0.167,0.083-0.323,0.223-0.416l6-4
			C13.55,1.864,14,2.098,14,2.5v9c0,1.5-1.504,1.5-2.5,1.5C10.292,13,9,12.342,9,10.493z"/>
		<g>
			<path d="M21.293,16.414l-4.879,4.879C16.998,21.73,17.716,22,18.5,22c1.93,0,3.5-1.57,3.5-3.5
				C22,17.715,21.731,16.998,21.293,16.414z"/>
			<path d="M18.5,13c-3.037,0-5.5,2.463-5.5,5.5s2.463,5.5,5.5,5.5s5.5-2.463,5.5-5.5S21.537,13,18.5,13z M18.5,23
				c-2.481,0-4.5-2.018-4.5-4.5c0-2.481,2.019-4.5,4.5-4.5s4.5,2.019,4.5,4.5C23,20.982,20.981,23,18.5,23z"/>
			<path d="M18.5,15c-1.93,0-3.5,1.57-3.5,3.5c0,0.785,0.269,1.502,0.707,2.086l4.879-4.879C20.002,15.269,19.284,15,18.5,15z"/>
		</g>
	</g>
</g>
<g id="Invisible_Shape">
	<rect fill="none" width="24" height="24"/>
</g>
</svg>
