<?xml version="1.0" encoding="utf-8"?>
<!-- Generator: Adobe Illustrator 19.2.1, SVG Export Plug-In . SVG Version: 6.00 Build 0)  -->
<svg version="1.1" xmlns="http://www.w3.org/2000/svg" xmlns:xlink="http://www.w3.org/1999/xlink" x="0px" y="0px" width="24px"
	 height="24px" viewBox="0 0 24 24" enable-background="new 0 0 24 24" xml:space="preserve">
<g id="Filled_Icon">
	<g>
		<path d="M1,4h11.5c0.552,0,1-0.447,1-1c0-0.552-0.448-1-1-1H1C0.448,2,0,2.448,0,3C0,3.553,0.448,4,1,4z"/>
		<path d="M1,7h11.5c0.552,0,1-0.448,1-1c0-0.553-0.448-1-1-1H1C0.448,5,0,5.447,0,6C0,6.552,0.448,7,1,7z"/>
		<path d="M1,10h11.5c0.552,0,1-0.448,1-1c0-0.553-0.448-1-1-1H1C0.448,8,0,8.447,0,9C0,9.552,0.448,10,1,10z"/>
		<path d="M1,13h11.5c0.552,0,1-0.448,1-1c0-0.553-0.448-1-1-1H1c-0.552,0-1,0.447-1,1C0,12.552,0.448,13,1,13z"/>
		<path d="M11.5,15c0-0.553-0.448-1-1-1H1c-0.552,0-1,0.447-1,1c0,0.552,0.448,1,1,1h9.5C11.052,16,11.5,15.552,11.5,15z"/>
		<path d="M7.5,17H1c-0.552,0-1,0.447-1,1c0,0.552,0.448,1,1,1h6.5c0.552,0,1-0.448,1-1C8.5,17.447,8.052,17,7.5,17z"/>
		<path d="M20.055,3.168C19.135,2.555,19,1.88,19,1c0-0.553-0.448-1-1-1s-1,0.447-1,1v15h-2c-2.206,0-4,1.794-4,4s1.794,4,4,4
			c2.131,0,4-1.869,4-4V4.872c3.905,2.647,2.513,5.779,1.178,9.271c-0.197,0.517,0.061,1.095,0.577,1.292
			c0.512,0.195,1.093-0.059,1.291-0.577C23.042,12.244,25.744,6.961,20.055,3.168z M17,20c0,0.925-0.874,2-2,2c-1.103,0-2-0.897-2-2
			s0.897-2,2-2h2V20z"/>
	</g>
</g>
<g id="Invisible_Shape">
	<rect fill="none" width="24" height="24"/>
</g>
</svg>
