<?xml version="1.0" encoding="utf-8"?>
<!-- Generator: Adobe Illustrator 19.2.1, SVG Export Plug-In . SVG Version: 6.00 Build 0)  -->
<svg version="1.1" xmlns="http://www.w3.org/2000/svg" xmlns:xlink="http://www.w3.org/1999/xlink" x="0px" y="0px" width="24px"
	 height="24px" viewBox="0 0 24 24" enable-background="new 0 0 24 24" xml:space="preserve">
<g id="Filled_Icon">
	<g>
		<path d="M7,16.5C7,17.74,7.816,18,8.5,18c1.293,0,1.5-0.118,1.5-0.5V15H8.5C7.816,15,7,15.261,7,16.5z"/>
		<path d="M12.5,14.5c0,1.24,0.816,1.5,1.5,1.5c0.699,0,2,0,2-0.5V13h-2C13.316,13,12.5,13.261,12.5,14.5z"/>
		<path d="M20.5,2h-17C3.224,2,3,2.224,3,2.5v19C3,21.776,3.224,22,3.5,22h17c0.276,0,0.5-0.224,0.5-0.5v-19
			C21,2.224,20.776,2,20.5,2z M17,15.5c0,1.5-1.952,1.5-3,1.5c-1.208,0-2.5-0.656-2.5-2.5c0-1.843,1.292-2.5,2.5-2.5h2V6.435
			l-5,3.334V17.5C11,19,9.496,19,8.5,19C7.292,19,6,18.344,6,16.5C6,14.657,7.292,14,8.5,14H10V9.5c0-0.167,0.083-0.323,0.223-0.416
			l6-4C16.552,4.863,17,5.101,17,5.5V15.5z"/>
		<path d="M1.5,4h-1C0.224,4,0,4.224,0,4.5v15C0,19.776,0.224,20,0.5,20h1C1.776,20,2,19.776,2,19.5v-15C2,4.224,1.776,4,1.5,4z"/>
		<path d="M23.5,4h-1C22.224,4,22,4.224,22,4.5v15c0,0.276,0.224,0.5,0.5,0.5h1c0.276,0,0.5-0.224,0.5-0.5v-15
			C24,4.224,23.776,4,23.5,4z"/>
	</g>
</g>
<g id="Invisible_Shape">
	<rect fill="none" width="24" height="24"/>
</g>
</svg>
