<?xml version="1.0" encoding="utf-8"?>
<!-- Generator: Adobe Illustrator 19.2.1, SVG Export Plug-In . SVG Version: 6.00 Build 0)  -->
<svg version="1.1" xmlns="http://www.w3.org/2000/svg" xmlns:xlink="http://www.w3.org/1999/xlink" x="0px" y="0px" width="24px"
	 height="24px" viewBox="0 0 24 24" enable-background="new 0 0 24 24" xml:space="preserve">
<g id="Filled_Icon">
	<g>
		<g>
			<path d="M16.643,17.001L19,15.823V0.5C19,0.224,18.776,0,18.5,0h-18C0.224,0,0,0.224,0,0.5v18C0,18.776,0.224,19,0.5,19h11.549
				C12.41,16.871,14.842,15.801,16.643,17.001z M9,10.493c0-1.849,1.292-2.507,2.5-2.507H13V3.434L8,6.768V14.5
				C8,16,6.496,16,5.5,16C4.292,16,3,15.342,3,13.493c0-1.849,1.292-2.507,2.5-2.507H7V6.5c0-0.167,0.083-0.323,0.223-0.416l6-4
				C13.55,1.864,14,2.098,14,2.5v9c0,1.5-1.504,1.5-2.5,1.5C10.292,13,9,12.342,9,10.493z"/>
		</g>
		<path d="M22.671,20.117c-0.854-0.31-1.815,0.048-2.317,0.766l-3.373-1.205c0.016-0.189,0.043-0.267-0.028-0.596l3.543-1.771
			c0.612,0.706,1.596,0.879,2.396,0.479c0.991-0.493,1.392-1.693,0.896-2.684c-0.499-0.999-1.7-1.384-2.683-0.894
			c-0.778,0.39-1.259,1.263-1.056,2.204l-3.552,1.775c-0.366-0.419-0.9-0.69-1.499-0.69c-1.102,0-2,0.897-2,2c0,1.103,0.898,2,2,2
			c0.688,0,1.294-0.349,1.654-0.879l3.36,1.2c-0.088,0.962,0.493,1.771,1.311,2.062c1.045,0.374,2.189-0.18,2.557-1.21
			C24.254,21.629,23.709,20.487,22.671,20.117z M21.552,15.106c0.478-0.239,1.086-0.061,1.341,0.447
			c0.246,0.495,0.047,1.097-0.448,1.342c-0.481,0.243-1.099,0.032-1.339-0.446c-0.001-0.001-0.001-0.001-0.001-0.001
			c0-0.002-0.001-0.002-0.002-0.003C20.855,15.947,21.064,15.35,21.552,15.106z M14.998,20.501c-0.552,0-1-0.448-1-1
			c0-0.552,0.448-1,1-1c0.552,0,1,0.448,1,1C15.998,20.053,15.55,20.501,14.998,20.501z M22.94,22.338
			c-0.181,0.504-0.765,0.787-1.278,0.604c-0.514-0.184-0.79-0.749-0.605-1.272c0.001-0.002,0.003-0.003,0.004-0.005
			c0.001-0.003,0-0.006,0.001-0.009c0.19-0.515,0.76-0.783,1.273-0.598C22.855,21.244,23.127,21.813,22.94,22.338z"/>
	</g>
</g>
<g id="Invisible_Shape">
	<rect fill="none" width="24" height="24"/>
</g>
</svg>
