<?xml version="1.0" encoding="utf-8"?>
<!-- Generator: Adobe Illustrator 19.2.1, SVG Export Plug-In . SVG Version: 6.00 Build 0)  -->
<svg version="1.1" xmlns="http://www.w3.org/2000/svg" xmlns:xlink="http://www.w3.org/1999/xlink" x="0px" y="0px" width="24px"
	 height="24px" viewBox="0 0 24 24" enable-background="new 0 0 24 24" xml:space="preserve">
<g id="Filled_Icon">
	<g>
		<g>
			<path d="M12,18.5c0-2.145,1.511-3.938,3.523-4.386c-0.033-0.422,0.095-0.853,0.417-1.175c0.586-0.586,1.535-0.586,2.121,0
				L19,13.879V0.5C19,0.224,18.776,0,18.5,0h-18C0.224,0,0,0.224,0,0.5v18C0,18.776,0.224,19,0.5,19h11.551
				C12.032,18.834,12,18.671,12,18.5z M9,10.493c0-1.849,1.292-2.507,2.5-2.507H13V3.434L8,6.768V14.5C8,16,6.496,16,5.5,16
				C4.292,16,3,15.342,3,13.493c0-1.849,1.292-2.507,2.5-2.507H7V6.5c0-0.167,0.083-0.323,0.223-0.416l6-4
				C13.55,1.864,14,2.098,14,2.5v9c0,1.5-1.504,1.5-2.5,1.5C10.292,13,9,12.342,9,10.493z"/>
		</g>
		<g>
			<path d="M18.853,15.146l-1.5-1.499c-0.195-0.195-0.512-0.195-0.707,0c-0.195,0.195-0.195,0.512,0,0.707L17.293,15H16.5
				c-1.93,0-3.5,1.57-3.5,3.5s1.57,3.5,3.5,3.5c0.276,0,0.5-0.224,0.5-0.5S16.776,21,16.5,21c-1.378,0-2.5-1.121-2.5-2.5
				s1.122-2.5,2.5-2.5h0.793l-0.646,0.646c-0.195,0.195-0.195,0.512,0,0.707c0.195,0.195,0.512,0.195,0.707,0l1.5-1.5
				C19.043,15.666,19.053,15.348,18.853,15.146z"/>
			<path d="M20.5,15c-0.276,0-0.5,0.224-0.5,0.5s0.224,0.5,0.5,0.5c1.378,0,2.5,1.121,2.5,2.5S21.878,21,20.5,21h-0.793l0.646-0.646
				c0.195-0.195,0.195-0.512,0-0.707c-0.195-0.195-0.512-0.195-0.707,0l-1.5,1.499c-0.2,0.202-0.19,0.521,0,0.708l1.5,1.5
				c0.195,0.195,0.512,0.195,0.707,0c0.195-0.195,0.195-0.512,0-0.707L19.707,22H20.5c1.93,0,3.5-1.57,3.5-3.5S22.43,15,20.5,15z"/>
		</g>
	</g>
</g>
<g id="Invisible_Shape">
	<rect fill="none" width="24" height="24"/>
</g>
</svg>
