<?xml version="1.0" encoding="utf-8"?>
<!-- Generator: Adobe Illustrator 19.2.1, SVG Export Plug-In . SVG Version: 6.00 Build 0)  -->
<svg version="1.1" xmlns="http://www.w3.org/2000/svg" xmlns:xlink="http://www.w3.org/1999/xlink" x="0px" y="0px" width="24px"
	 height="24px" viewBox="0 0 24 24" enable-background="new 0 0 24 24" xml:space="preserve">
<g id="Filled_Icon">
	<g>
		<g>
			<path d="M14,16.5c0-0.659,0.427-1.221,1.019-1.421c0.197-2.118,1.874-3.795,3.981-4.031V0.5C19,0.224,18.776,0,18.5,0h-18
				C0.224,0,0,0.224,0,0.5v18C0,18.776,0.224,19,0.5,19H14V16.5z M9,10.493c0-1.849,1.292-2.507,2.5-2.507H13V3.434L8,6.768V14.5
				C8,16,6.496,16,5.5,16C4.292,16,3,15.342,3,13.493c0-1.849,1.292-2.507,2.5-2.507H7V6.5c0-0.167,0.083-0.323,0.223-0.416l6-4
				C13.55,1.864,14,2.098,14,2.5v9c0,1.5-1.504,1.5-2.5,1.5C10.292,13,9,12.342,9,10.493z"/>
		</g>
		<path d="M23.5,16H23v-0.5c0-1.93-1.57-3.5-3.5-3.5S16,13.57,16,15.5V16h-0.5c-0.276,0-0.5,0.224-0.5,0.5v7
			c0,0.276,0.224,0.5,0.5,0.5h8c0.276,0,0.5-0.224,0.5-0.5v-7C24,16.224,23.776,16,23.5,16z M17,15.5c0-1.379,1.121-2.5,2.5-2.5
			s2.5,1.121,2.5,2.5V16h-5V15.5z M20,19.847v1.654c0,0.276-0.225,0.5-0.501,0.5c-0.276,0-0.499-0.224-0.499-0.5v-1.654
			c-0.294-0.175-0.5-0.482-0.5-0.847c0-0.552,0.448-1,1-1s1,0.448,1,1C20.5,19.365,20.293,19.672,20,19.847z"/>
	</g>
</g>
<g id="Invisible_Shape">
	<rect fill="none" width="24" height="24"/>
</g>
</svg>
