<?xml version="1.0" encoding="utf-8"?>
<!-- Generator: Adobe Illustrator 19.2.1, SVG Export Plug-In . SVG Version: 6.00 Build 0)  -->
<svg version="1.1" xmlns="http://www.w3.org/2000/svg" xmlns:xlink="http://www.w3.org/1999/xlink" x="0px" y="0px" width="24px"
	 height="24px" viewBox="0 0 24 24" enable-background="new 0 0 24 24" xml:space="preserve">
<g id="Filled_Icon">
	<g>
		<path d="M14.171,19l-1.631-1.35c-1.081-0.905-0.44-2.652,0.958-2.652h2.511l1.11-2.594c0.342-0.792,1.188-1.053,1.881-0.811V0.5
			C19,0.224,18.776,0,18.5,0h-18C0.224,0,0,0.224,0,0.5v18C0,18.776,0.224,19,0.5,19H14.171z M9,10.493
			c0-1.849,1.292-2.507,2.5-2.507H13V3.434L8,6.768V14.5C8,16,6.496,16,5.5,16C4.292,16,3,15.342,3,13.493
			c0-1.849,1.292-2.507,2.5-2.507H7V6.5c0-0.167,0.083-0.323,0.223-0.416l6-4C13.55,1.864,14,2.098,14,2.5v9
			c0,1.5-1.504,1.5-2.5,1.5C10.292,13,9,12.342,9,10.493z"/>
		<path d="M23.498,16h-3.171l-1.369-3.199c-0.175-0.404-0.745-0.404-0.92,0L16.669,16h-3.171c-0.47,0-0.676,0.584-0.32,0.883
			l2.744,2.27l-1.375,3.668c-0.171,0.457,0.351,0.869,0.758,0.584l3.193-2.289l3.193,2.289c0.407,0.285,0.929-0.127,0.758-0.584
			l-1.375-3.668l2.744-2.27C24.174,16.584,23.968,16,23.498,16z"/>
	</g>
</g>
<g id="Invisible_Shape">
	<rect fill="none" width="24" height="24"/>
</g>
</svg>
