<?xml version="1.0" encoding="utf-8"?>
<!-- Generator: Adobe Illustrator 19.2.1, SVG Export Plug-In . SVG Version: 6.00 Build 0)  -->
<svg version="1.1" xmlns="http://www.w3.org/2000/svg" xmlns:xlink="http://www.w3.org/1999/xlink" x="0px" y="0px" width="24px"
	 height="24px" viewBox="0 0 24 24" enable-background="new 0 0 24 24" xml:space="preserve">
<g id="Filled_Icon">
	<g>
		<path d="M19.5,4h-15C2.019,4,0,6.019,0,8.5v7C0,17.981,2.019,20,4.5,20h15c2.481,0,4.5-2.019,4.5-4.5v-7C24,6.019,21.981,4,19.5,4
			z M17.724,12.447l-9,4.5C8.394,17.111,8,16.876,8,16.5v-9c0-0.37,0.391-0.613,0.724-0.447l9,4.5
			C18.091,11.737,18.091,12.263,17.724,12.447z"/>
	</g>
</g>
<g id="Invisible_Shape">
	<rect fill="none" width="24" height="24"/>
</g>
</svg>
