<?xml version="1.0" encoding="utf-8"?>
<!-- Generator: Adobe Illustrator 19.2.1, SVG Export Plug-In . SVG Version: 6.00 Build 0)  -->
<svg version="1.1" xmlns="http://www.w3.org/2000/svg" xmlns:xlink="http://www.w3.org/1999/xlink" x="0px" y="0px" width="24px"
	 height="24px" viewBox="0 0 24 24" enable-background="new 0 0 24 24" xml:space="preserve">
<g id="Filled_Icon">
	<g>
		<path d="M19,12.025V0.5C19,0.224,18.776,0,18.5,0h-18C0.224,0,0,0.224,0,0.5v18C0,18.776,0.224,19,0.5,19h11.525
			C11.72,15.006,15.031,11.721,19,12.025z M9,10.493c0-1.849,1.292-2.507,2.5-2.507H13V3.434L8,6.768V14.5C8,16,6.496,16,5.5,16
			C4.292,16,3,15.342,3,13.493c0-1.849,1.292-2.507,2.5-2.507H7V6.5c0-0.167,0.083-0.323,0.223-0.416l6-4
			C13.55,1.864,14,2.098,14,2.5v9c0,1.5-1.504,1.5-2.5,1.5C10.292,13,9,12.342,9,10.493z"/>
		<path d="M18.5,13c-3.032,0-5.5,2.467-5.5,5.5s2.468,5.5,5.5,5.5c3.033,0,5.5-2.467,5.5-5.5S21.533,13,18.5,13z M21.96,16.279
			l-0.395,1.552c-0.053,0.237-0.304,0.429-0.607,0.361l-1.553-0.396c-0.268-0.068-0.43-0.34-0.361-0.607
			c0.067-0.269,0.341-0.432,0.607-0.361l0.432,0.109c-0.646-0.713-1.556-0.918-2.375-0.679c-1.236,0.36-1.948,1.659-1.589,2.896
			c0.36,1.234,1.653,1.949,2.893,1.587c0.265-0.079,0.542,0.074,0.62,0.339c0.078,0.266-0.075,0.543-0.34,0.621
			c-1.781,0.516-3.62-0.507-4.133-2.268c-0.514-1.766,0.504-3.619,2.269-4.135c1.242-0.363,2.604,0.016,3.481,1.06l0.083-0.327
			c0.068-0.268,0.34-0.431,0.608-0.36C21.867,15.738,22.028,16.011,21.96,16.279z"/>
	</g>
</g>
<g id="Invisible_Shape">
	<rect fill="none" width="24" height="24"/>
</g>
</svg>
