<?xml version="1.0" encoding="utf-8"?>
<!-- Generator: Adobe Illustrator 19.2.1, SVG Export Plug-In . SVG Version: 6.00 Build 0)  -->
<svg version="1.1" xmlns="http://www.w3.org/2000/svg" xmlns:xlink="http://www.w3.org/1999/xlink" x="0px" y="0px" width="24px"
	 height="24px" viewBox="0 0 24 24" enable-background="new 0 0 24 24" xml:space="preserve">
<g id="Filled_Icon">
	<g>
		<path d="M17.158,12.829c0.314-0.624,1.064-0.978,1.842-0.715V0.5C19,0.224,18.776,0,18.5,0h-18C0.224,0,0,0.224,0,0.5v18
			C0,18.776,0.224,19,0.5,19h13.572L17.158,12.829z M11.5,13C10.292,13,9,12.342,9,10.493c0-1.849,1.292-2.507,2.5-2.507H13V3.434
			L8,6.768V14.5C8,16,6.496,16,5.5,16C4.292,16,3,15.342,3,13.493c0-1.849,1.292-2.507,2.5-2.507H7V6.5
			c0-0.167,0.083-0.323,0.223-0.416l6-4C13.55,1.864,14,2.098,14,2.5v9C14,13,12.496,13,11.5,13z"/>
		<path d="M23.947,23.276l-5-10c-0.17-0.338-0.725-0.338-0.895,0l-5,10C12.886,23.611,13.129,24,13.5,24h10
			C23.87,24,24.113,23.611,23.947,23.276z M18.5,22c-0.276,0-0.5-0.223-0.5-0.5c0-0.274,0.224-0.5,0.5-0.5
			c0.275,0,0.5,0.226,0.5,0.5C19,21.777,18.775,22,18.5,22z M19,20c0,0.276-0.224,0.5-0.5,0.5S18,20.276,18,20v-3
			c0-0.276,0.224-0.5,0.5-0.5S19,16.724,19,17V20z"/>
	</g>
</g>
<g id="Invisible_Shape">
	<rect fill="none" width="24" height="24"/>
</g>
</svg>
