<?xml version="1.0" encoding="utf-8"?>
<!-- Generator: Adobe Illustrator 19.2.1, SVG Export Plug-In . SVG Version: 6.00 Build 0)  -->
<svg version="1.1" xmlns="http://www.w3.org/2000/svg" xmlns:xlink="http://www.w3.org/1999/xlink" x="0px" y="0px" width="24px"
	 height="24px" viewBox="0 0 24 24" enable-background="new 0 0 24 24" xml:space="preserve">
<g id="Filled_Icon">
	<g>
		<path d="M15.49,18h-0.959c-0.829,0-1.5-0.672-1.5-1.5s0.671-1.5,1.5-1.5h0.959c1.281,0,2.24,0.691,3.021,1.553
			c0.154-0.17,0.318-0.327,0.488-0.478V0.5C19,0.224,18.776,0,18.5,0h-18C0.224,0,0,0.224,0,0.5v18C0,18.776,0.224,19,0.5,19h16.149
			C16.232,18.461,15.801,18,15.49,18z M9,10.493c0-1.849,1.292-2.507,2.5-2.507H13V3.434L8,6.768V14.5C8,16,6.496,16,5.5,16
			C4.292,16,3,15.342,3,13.493c0-1.849,1.292-2.507,2.5-2.507H7V6.5c0-0.167,0.083-0.323,0.223-0.416l6-4
			C13.55,1.864,14,2.098,14,2.5v9c0,1.5-1.504,1.5-2.5,1.5C10.292,13,9,12.342,9,10.493z"/>
		<path d="M21.585,18.403c0.193,0.195,0.506,0.201,0.707,0.005l1.559-1.537c0.204-0.204,0.19-0.524-0.004-0.713
			c-0.001-0.002-1.562-1.479-1.562-1.479c-0.201-0.19-0.518-0.182-0.707,0.019c-0.19,0.2-0.181,0.518,0.02,0.707l0.646,0.61h-0.723
			c-1.293,0-2.19,1.008-3.01,2.133C17.688,17.018,16.789,16,15.49,16h-0.959c-0.276,0-0.5,0.224-0.5,0.5s0.224,0.5,0.5,0.5h0.959
			c0.915,0,1.65,0.941,2.407,2.008c-0.757,1.066-1.492,2.008-2.407,2.008h-0.959c-0.276,0-0.5,0.224-0.5,0.5
			c0,0.276,0.224,0.5,0.5,0.5h0.959c1.299,0,2.198-1.018,3.021-2.148c0.82,1.125,1.717,2.133,3.01,2.133h0.723l-0.646,0.61
			c-0.2,0.189-0.209,0.507-0.02,0.707c0.186,0.198,0.503,0.211,0.707,0.02c0,0,1.561-1.478,1.562-1.479
			c0.197-0.192,0.205-0.512,0.004-0.713l-1.559-1.537c-0.197-0.193-0.513-0.191-0.707,0.005c-0.194,0.197-0.192,0.514,0.005,0.707
			L22.281,21h-0.76c-0.911,0-1.643-0.932-2.397-1.992c0.753-1.06,1.486-1.992,2.397-1.992h0.76l-0.691,0.681
			C21.394,17.891,21.392,18.207,21.585,18.403z"/>
	</g>
</g>
<g id="Invisible_Shape">
	<rect fill="none" width="24" height="24"/>
</g>
</svg>
