<?xml version="1.0" encoding="utf-8"?>
<!-- Generator: Adobe Illustrator 19.2.1, SVG Export Plug-In . SVG Version: 6.00 Build 0)  -->
<svg version="1.1" xmlns="http://www.w3.org/2000/svg" xmlns:xlink="http://www.w3.org/1999/xlink" x="0px" y="0px" width="24px"
	 height="24px" viewBox="0 0 24 24" enable-background="new 0 0 24 24" xml:space="preserve">
<g id="Filled_Icon">
	<g>
		<path d="M24,3.5C24,3.224,23.776,3,23.5,3H22v18.5c0,0.276-0.224,0.5-0.5,0.5H3v1.5C3,23.776,3.224,24,3.5,24h20
			c0.276,0,0.5-0.224,0.5-0.5V3.5z"/>
		<path d="M5,14.5C5,15.74,5.816,16,6.5,16C7.793,16,8,15.882,8,15.5c0-1.111,0-1.388,0-2.5H6.5C5.816,13,5,13.261,5,14.5z"/>
		<path d="M11,12.5c0,1.24,0.816,1.5,1.5,1.5c1.293,0,1.5-0.118,1.5-0.5V11h-1.5C11.816,11,11,11.261,11,12.5z"/>
		<path d="M20.5,21c0.276,0,0.5-0.224,0.5-0.5v-20C21,0.224,20.776,0,20.5,0h-20C0.224,0,0,0.224,0,0.5v20C0,20.776,0.224,21,0.5,21
			H20.5z M15,13.5c0,1.5-1.504,1.5-2.5,1.5c-1.208,0-2.5-0.656-2.5-2.5c0-1.843,1.292-2.5,2.5-2.5H14V4.435L9,7.769V15.5
			C9,17,7.496,17,6.5,17C5.292,17,4,16.344,4,14.5C4,12.657,5.292,12,6.5,12H8V7.5c0-0.167,0.083-0.323,0.223-0.416l6-4
			C14.555,2.861,15,3.103,15,3.5V13.5z"/>
	</g>
</g>
<g id="Invisible_Shape">
	<rect fill="none" width="24" height="24"/>
</g>
</svg>
