<?xml version="1.0" encoding="utf-8"?>
<!-- Generator: Adobe Illustrator 19.2.1, SVG Export Plug-In . SVG Version: 6.00 Build 0)  -->
<svg version="1.1" xmlns="http://www.w3.org/2000/svg" xmlns:xlink="http://www.w3.org/1999/xlink" x="0px" y="0px" width="24px"
	 height="24px" viewBox="0 0 24 24" enable-background="new 0 0 24 24" xml:space="preserve">
<g id="Filled_Icon">
	<g>
		<path d="M19,13.379V0.5C19,0.224,18.776,0,18.5,0h-18C0.224,0,0,0.224,0,0.5v18C0,18.776,0.224,19,0.5,19h12.893
			C13.541,18.83,18.84,13.539,19,13.379z M9,10.493c0-1.849,1.292-2.507,2.5-2.507H13V3.434L8,6.768V14.5C8,16,6.496,16,5.5,16
			C4.292,16,3,15.342,3,13.493c0-1.849,1.292-2.507,2.5-2.507H7V6.5c0-0.167,0.083-0.323,0.223-0.416l6-4
			C13.55,1.864,14,2.098,14,2.5v9c0,1.5-1.504,1.5-2.5,1.5C10.292,13,9,12.342,9,10.493z"/>
		<g>
			<rect x="15.318" y="16.723" transform="matrix(0.7071 -0.7071 0.7071 0.7071 -8.1562 18.2901)" width="5.364" height="4.536"/>
			<path d="M23.854,15.636l-2.501-2.499c-0.195-0.195-0.512-0.195-0.707,0L19,14.784l3.207,3.206l1.646-1.647
				C24.049,16.147,24.049,15.831,23.854,15.636z"/>
			<path d="M16.847,23.066l-2.916-2.916l-0.911,3.225c-0.047,0.168-0.012,0.353,0.121,0.484c0.131,0.131,0.314,0.166,0.482,0.122
				L16.847,23.066z"/>
		</g>
	</g>
</g>
<g id="Invisible_Shape">
	<rect fill="none" width="24" height="24"/>
</g>
</svg>
