<?xml version="1.0" encoding="utf-8"?>
<!-- Generator: Adobe Illustrator 19.2.1, SVG Export Plug-In . SVG Version: 6.00 Build 0)  -->
<svg version="1.1" xmlns="http://www.w3.org/2000/svg" xmlns:xlink="http://www.w3.org/1999/xlink" x="0px" y="0px" width="24px"
	 height="24px" viewBox="0 0 24 24" enable-background="new 0 0 24 24" xml:space="preserve">
<g id="Filled_Icon">
	<g>
		<path d="M13.498,18.999c-0.949-0.548-1.098-1.439-0.694-2.135l0.999-1.731C14.19,14.469,15.069,14.13,16,14.67
			c0-1.08,0.698-1.67,1.5-1.67H19V0.5C19,0.224,18.776,0,18.5,0h-18C0.224,0,0,0.224,0,0.5v18C0,18.776,0.224,19,0.5,19h12.997
			L13.498,18.999z M9,10.493c0-1.849,1.292-2.507,2.5-2.507H13V3.434L8,6.768V14.5C8,16,6.496,16,5.5,16C4.292,16,3,15.342,3,13.493
			c0-1.849,1.292-2.507,2.5-2.507H7V6.5c0-0.167,0.083-0.323,0.223-0.416l6-4C13.55,1.864,14,2.098,14,2.5v9
			c0,1.5-1.504,1.5-2.5,1.5C10.292,13,9,12.342,9,10.493z"/>
		<path d="M23.147,19.951l-0.702-0.406c0.073-0.541,0.073-0.547,0-1.092l0.702-0.404c0.239-0.138,0.319-0.443,0.183-0.684
			l-1.001-1.732c-0.137-0.239-0.443-0.322-0.683-0.184l-0.702,0.406c-0.288-0.226-0.601-0.419-0.944-0.559V14.5
			c0-0.276-0.224-0.5-0.5-0.5h-2c-0.276,0-0.5,0.224-0.5,0.5v0.797c-0.344,0.14-0.656,0.334-0.945,0.559l-0.701-0.404
			c-0.24-0.139-0.545-0.057-0.684,0.182l-1,1.732c-0.139,0.239-0.057,0.546,0.184,0.684l0.701,0.405c-0.073,0.54-0.074,0.548,0,1.09
			l-0.702,0.405c-0.239,0.139-0.32,0.444-0.184,0.684l1.001,1.732c0.137,0.239,0.443,0.321,0.684,0.184l0.7-0.405
			c0.289,0.226,0.602,0.42,0.946,0.559V23.5c0,0.276,0.224,0.5,0.5,0.5h2c0.276,0,0.5-0.224,0.5-0.5v-0.797
			c0.345-0.14,0.657-0.334,0.946-0.559l0.701,0.404c0.239,0.138,0.544,0.056,0.683-0.184l1-1.732
			C23.469,20.395,23.387,20.088,23.147,19.951z M18.5,21c-1.104,0-2-0.896-2-2s0.896-2,2-2s2,0.896,2,2S19.604,21,18.5,21z"/>
	</g>
</g>
<g id="Invisible_Shape">
	<rect fill="none" width="24" height="24"/>
</g>
</svg>
