<?xml version="1.0" encoding="utf-8"?>
<!-- Generator: Adobe Illustrator 19.2.1, SVG Export Plug-In . SVG Version: 6.00 Build 0)  -->
<svg version="1.1" xmlns="http://www.w3.org/2000/svg" xmlns:xlink="http://www.w3.org/1999/xlink" x="0px" y="0px" width="24px"
	 height="24px" viewBox="0 0 24 24" enable-background="new 0 0 24 24" xml:space="preserve">
<g id="Filled_Icon">
	<g>
		<path d="M13,17.803c0-2.494,1.895-3.984,3.728-3.984c0.833,0,1.627,0.304,2.272,0.846V0.5C19,0.224,18.776,0,18.5,0h-18
			C0.224,0,0,0.224,0,0.5v18C0,18.776,0.224,19,0.5,19h12.701C13.075,18.603,13,18.202,13,17.803z M9,10.493
			c0-1.849,1.292-2.507,2.5-2.507H13V3.434L8,6.768V14.5C8,16,6.496,16,5.5,16C4.292,16,3,15.342,3,13.493
			c0-1.849,1.292-2.507,2.5-2.507H7V6.5c0-0.167,0.083-0.323,0.223-0.416l6-4C13.55,1.864,14,2.098,14,2.5v9
			c0,1.5-1.504,1.5-2.5,1.5C10.292,13,9,12.342,9,10.493z"/>
		<path d="M21.272,14.818c-0.771,0-1.674,0.38-2.272,1.368c-0.599-0.988-1.501-1.368-2.272-1.368c-1.341,0-2.728,1.117-2.728,2.984
			c0,2.604,4.225,5.752,4.706,6.102C18.794,23.969,18.896,24,19,24s0.206-0.031,0.294-0.096C19.775,23.555,24,20.407,24,17.803
			C24,15.936,22.613,14.818,21.272,14.818z"/>
	</g>
</g>
<g id="Invisible_Shape">
	<rect fill="none" width="24" height="24"/>
</g>
</svg>
