<?xml version="1.0" encoding="utf-8"?>
<!-- Generator: Adobe Illustrator 19.2.1, SVG Export Plug-In . SVG Version: 6.00 Build 0)  -->
<svg version="1.1" xmlns="http://www.w3.org/2000/svg" xmlns:xlink="http://www.w3.org/1999/xlink" x="0px" y="0px" width="24px"
	 height="24px" viewBox="0 0 24 24" enable-background="new 0 0 24 24" xml:space="preserve">
<g id="Filled_Icon">
	<g>
		<g>
			<path d="M7.728,16.714l7.5-4.5c0.476-0.285,1.068-0.285,1.544,0L19,13.551V0.5C19,0.224,18.776,0,18.5,0h-18
				C0.224,0,0,0.224,0,0.5v18C0,18.776,0.224,19,0.5,19c2.417,0,4.663,0,6.884,0C6.739,18.274,6.94,17.187,7.728,16.714z M3,13.493
				c0-1.849,1.292-2.507,2.5-2.507H7V6.5c0-0.167,0.083-0.323,0.223-0.416l6-4C13.55,1.864,14,2.098,14,2.5v9
				c0,1.5-1.504,1.5-2.5,1.5C10.292,13,9,12.342,9,10.493c0-1.849,1.292-2.507,2.5-2.507H13V3.434L8,6.768V14.5
				C8,16,6.496,16,5.5,16C4.292,16,3,15.342,3,13.493z"/>
		</g>
		<g>
			<path d="M16,15.249l-5,3V23.5c0,0.276,0.224,0.5,0.5,0.5H14v-4.5c0-0.276,0.224-0.5,0.5-0.5h3c0.276,0,0.5,0.224,0.5,0.5V24h2.5
				c0.276,0,0.5-0.224,0.5-0.5v-5.251L16,15.249z"/>
			<g>
				<path d="M23.243,18.429L16,14.083l-7.243,4.346c-0.238,0.144-0.544,0.065-0.686-0.172c-0.142-0.236-0.065-0.544,0.171-0.685
					l7.5-4.5c0.158-0.096,0.356-0.096,0.515,0l7.5,4.5c0.237,0.142,0.314,0.449,0.171,0.685
					C23.785,18.496,23.476,18.57,23.243,18.429z"/>
			</g>
		</g>
	</g>
</g>
<g id="Invisible_Shape">
	<rect fill="none" width="24" height="24"/>
</g>
</svg>
