<?xml version="1.0" encoding="utf-8"?>
<!-- Generator: Adobe Illustrator 19.2.1, SVG Export Plug-In . SVG Version: 6.00 Build 0)  -->
<svg version="1.1" xmlns="http://www.w3.org/2000/svg" xmlns:xlink="http://www.w3.org/1999/xlink" x="0px" y="0px" width="24px"
	 height="24px" viewBox="0 0 24 24" enable-background="new 0 0 24 24" xml:space="preserve">
<g id="Filled_Icon">
	<g>
		<path d="M21.5,14H12v-2h1c1.93,0,3.5-1.57,3.5-3.5V7h-3C13.224,7,13,6.776,13,6.5S13.224,6,13.5,6h3V5h-3
			C13.224,5,13,4.776,13,4.5S13.224,4,13.5,4h3V3.5C16.5,1.57,14.93,0,13,0h-3C8.609,0,7.415,0.822,6.851,2H10.5
			C10.776,2,11,2.224,11,2.5S10.776,3,10.5,3H6.551C6.503,3.321,6.5,3.306,6.5,4h4C10.776,4,11,4.224,11,4.5S10.776,5,10.5,5h-4v1h4
			C10.776,6,11,6.224,11,6.5S10.776,7,10.5,7h-4v1.5c0,1.93,1.57,3.5,3.5,3.5h1v2H2.5C1.122,14,0,15.121,0,16.5v5
			C0,22.879,1.122,24,2.5,24h19c1.378,0,2.5-1.121,2.5-2.5v-5C24,15.121,22.878,14,21.5,14z M4.594,21.479C3,21.479,3,19.678,3,19
			s0-2.479,1.594-2.479c1.595,0,1.595,1.801,1.595,2.479S6.188,21.479,4.594,21.479z M10,20.937c0,0.532-0.723,0.694-0.951,0.216
			L8,19.268v1.669c0,0.276-0.224,0.5-0.5,0.5S7,21.213,7,20.937v-3.874c0-0.531,0.724-0.691,0.951-0.216L9,18.732v-1.67
			c0-0.276,0.224-0.5,0.5-0.5s0.5,0.224,0.5,0.5V20.937z M14.764,21.418c-0.265,0.074-0.541-0.078-0.617-0.346L14,20h-0.934
			l-0.147,1.072c-0.075,0.266-0.356,0.421-0.617,0.346c-0.266-0.075-0.42-0.352-0.345-0.617l1.095-3.874
			c0.121-0.431,0.841-0.431,0.962,0l1.095,3.874C15.184,21.066,15.03,21.343,14.764,21.418z M17,20.937c0,0.276-0.224,0.5-0.5,0.5
			s-0.5-0.224-0.5-0.5v-3.874c0-0.276,0.224-0.5,0.5-0.5s0.5,0.224,0.5,0.5V20.937z M20.803,20.721
			c0.119,0.25,0.014,0.548-0.235,0.667c-0.251,0.12-0.549,0.012-0.667-0.235l-0.79-1.652H19v1.437c0,0.276-0.224,0.5-0.5,0.5
			s-0.5-0.224-0.5-0.5v-3.874c0-0.276,0.223-0.5,0.5-0.5h0.927c0.65,0,1.426,0.255,1.426,1.469c0,0.766-0.309,1.149-0.7,1.328
			L20.803,20.721z"/>
		<path d="M4.594,17.521C4.357,17.521,4,17.521,4,19s0.357,1.479,0.594,1.479c0.237,0,0.595,0,0.595-1.479
			S4.831,17.521,4.594,17.521z"/>
		<polygon points="13.349,19 13.717,19 13.533,18.349 		"/>
		<path d="M19.852,18.031c0-0.557-0.204-0.469-0.853-0.469V18.5C19.648,18.5,19.852,18.588,19.852,18.031z"/>
	</g>
</g>
<g id="Invisible_Shape">
	<rect fill="none" width="24" height="24"/>
</g>
</svg>
