<?xml version="1.0" encoding="utf-8"?>
<!-- Generator: Adobe Illustrator 19.2.1, SVG Export Plug-In . SVG Version: 6.00 Build 0)  -->
<svg version="1.1" xmlns="http://www.w3.org/2000/svg" xmlns:xlink="http://www.w3.org/1999/xlink" x="0px" y="0px" width="24px"
	 height="24px" viewBox="0 0 24 24" enable-background="new 0 0 24 24" xml:space="preserve">
<g id="Filled_Icon">
	<g>
		<path d="M4,16h16c0.551,0,1-0.448,1-1H3C3,15.552,3.449,16,4,16z"/>
		<path d="M15.5,19H14v1h1.5c0.276,0,0.5-0.224,0.5-0.5C16,19.225,15.776,19,15.5,19z"/>
		<path d="M20,11H4c-0.551,0-1,0.449-1,1h18C21,11.449,20.551,11,20,11z"/>
		<rect x="3" y="13" width="18" height="1"/>
		<path d="M8,19.5C8,19.776,8.224,20,8.5,20H13v-1H8.5C8.224,19,8,19.225,8,19.5z"/>
		<path d="M21.5,8H4.618l14.105-7.053c0.247-0.123,0.347-0.424,0.224-0.671c-0.124-0.246-0.424-0.347-0.671-0.224L2.352,8.016
			C1.043,8.094,0,9.173,0,10.5v10C0,21.879,1.122,23,2.5,23H5v0.5C5,23.776,5.224,24,5.5,24S6,23.776,6,23.5V23h12v0.5
			c0,0.276,0.224,0.5,0.5,0.5s0.5-0.224,0.5-0.5V23h2.5c1.378,0,2.5-1.121,2.5-2.5v-10C24,9.122,22.878,8,21.5,8z M4.5,21
			C3.673,21,3,20.327,3,19.5S3.673,18,4.5,18S6,18.673,6,19.5S5.327,21,4.5,21z M15.5,21h-7C7.673,21,7,20.327,7,19.5
			S7.673,18,8.5,18h7c0.827,0,1.5,0.673,1.5,1.5S16.327,21,15.5,21z M19.5,21c-0.827,0-1.5-0.673-1.5-1.5s0.673-1.5,1.5-1.5
			s1.5,0.673,1.5,1.5S20.327,21,19.5,21z M22,15c0,1.104-0.897,2-2,2H4c-1.102,0-2-0.896-2-2v-3c0-1.102,0.898-2,2-2h16
			c1.103,0,2,0.898,2,2V15z"/>
	</g>
</g>
<g id="Invisible_Shape">
	<rect fill="none" width="24" height="24"/>
</g>
</svg>
