<?xml version="1.0" encoding="utf-8"?>
<!-- Generator: Adobe Illustrator 19.2.1, SVG Export Plug-In . SVG Version: 6.00 Build 0)  -->
<svg version="1.1" xmlns="http://www.w3.org/2000/svg" xmlns:xlink="http://www.w3.org/1999/xlink" x="0px" y="0px" width="24px"
	 height="24px" viewBox="0 0 24 24" enable-background="new 0 0 24 24" xml:space="preserve">
<g id="Filled_Icon">
	<g>
		<g>
			<path d="M18.5,2C18.224,2,18,1.776,18,1.5v-1C18,0.224,18.224,0,18.5,0S19,0.224,19,0.5v1C19,1.776,18.776,2,18.5,2z"/>
		</g>
		<g>
			<path d="M21.5,4h-1C20.224,4,20,3.776,20,3.5S20.224,3,20.5,3h1C21.776,3,22,3.224,22,3.5S21.776,4,21.5,4z"/>
		</g>
		<g>
			<path d="M16.5,4h-1C15.224,4,15,3.776,15,3.5S15.224,3,15.5,3h1C16.776,3,17,3.224,17,3.5S16.776,4,16.5,4z"/>
		</g>
		<g>
			<path d="M20.5,8H19V3.5C19,3.224,18.776,3,18.5,3S18,3.224,18,3.5V8H2.5C1.122,8,0,9.121,0,10.5v11C0,22.879,1.122,24,2.5,24h18
				c1.378,0,2.5-1.121,2.5-2.5v-11C23,9.121,21.878,8,20.5,8z M5,11h5v4H5c-1.103,0-2-0.898-2-2S3.897,11,5,11z M4,20.5
				C4,20.776,3.776,21,3.5,21S3,20.776,3,20.5v-3C3,17.224,3.224,17,3.5,17S4,17.224,4,17.5V20.5z M6,20.5C6,20.776,5.776,21,5.5,21
				S5,20.776,5,20.5v-3C5,17.224,5.224,17,5.5,17S6,17.224,6,17.5V20.5z M8,20.5C8,20.776,7.776,21,7.5,21S7,20.776,7,20.5v-3
				C7,17.224,7.224,17,7.5,17S8,17.224,8,17.5V20.5z M10,20.5c0,0.276-0.224,0.5-0.5,0.5S9,20.776,9,20.5v-3
				C9,17.224,9.224,17,9.5,17s0.5,0.224,0.5,0.5V20.5z M12,20.5c0,0.276-0.224,0.5-0.5,0.5S11,20.776,11,20.5v-3
				c0-0.276,0.224-0.5,0.5-0.5s0.5,0.224,0.5,0.5V20.5z M14,20.5c0,0.276-0.224,0.5-0.5,0.5S13,20.776,13,20.5v-3
				c0-0.276,0.224-0.5,0.5-0.5s0.5,0.224,0.5,0.5V20.5z M13,15h-2v-4h2c1.103,0,2,0.898,2,2S14.103,15,13,15z M16,20.5
				c0,0.276-0.224,0.5-0.5,0.5S15,20.776,15,20.5v-3c0-0.276,0.224-0.5,0.5-0.5s0.5,0.224,0.5,0.5V20.5z M18,20.5
				c0,0.276-0.224,0.5-0.5,0.5S17,20.776,17,20.5v-3c0-0.276,0.224-0.5,0.5-0.5s0.5,0.224,0.5,0.5V20.5z M20,20.5
				c0,0.276-0.224,0.5-0.5,0.5S19,20.776,19,20.5v-3c0-0.276,0.224-0.5,0.5-0.5s0.5,0.224,0.5,0.5V20.5z M19,15
				c-1.103,0-2-0.898-2-2s0.897-2,2-2s2,0.898,2,2S20.103,15,19,15z"/>
			<circle cx="19" cy="13" r="1"/>
		</g>
	</g>
</g>
<g id="Invisible_Shape">
	<rect fill="none" width="24" height="24"/>
</g>
</svg>
