<?xml version="1.0" encoding="utf-8"?>
<!-- Generator: Adobe Illustrator 19.2.1, SVG Export Plug-In . SVG Version: 6.00 Build 0)  -->
<svg version="1.1" xmlns="http://www.w3.org/2000/svg" xmlns:xlink="http://www.w3.org/1999/xlink" x="0px" y="0px" width="24px"
	 height="24px" viewBox="0 0 24 24" enable-background="new 0 0 24 24" xml:space="preserve">
<g id="Filled_Icon">
	<g>
		<g>
			<circle cx="5" cy="20.5" r="0.5"/>
			<circle cx="10" cy="20.5" r="0.5"/>
			<path d="M22,12.5c0-0.828-0.672-1.5-1.5-1.5h-19C0.671,11,0,11.672,0,12.5v9C0,22.879,1.122,24,2.5,24h17
				c1.378,0,2.5-1.121,2.5-2.5V12.5z M5,22c-0.827,0-1.5-0.673-1.5-1.5S4.173,19,5,19s1.5,0.673,1.5,1.5S5.827,22,5,22z M10,22
				c-0.827,0-1.5-0.673-1.5-1.5S9.173,19,10,19s1.5,0.673,1.5,1.5S10.827,22,10,22z M19.469,22H15.5c-0.276,0-0.5-0.224-0.5-0.5
				s0.224-0.5,0.5-0.5h3.969c0.276,0,0.5,0.224,0.5,0.5S19.745,22,19.469,22z M19.469,20H15.5c-0.276,0-0.5-0.224-0.5-0.5
				s0.224-0.5,0.5-0.5h3.969c0.276,0,0.5,0.224,0.5,0.5S19.745,20,19.469,20z M20,17.5c0,0.276-0.224,0.5-0.5,0.5H15v-3h-1v3h-1v-4
				h-1v4h-1v-3h-1v3H9v-3H8v3H7v-4H6v4H5v-3H4v3H2.5C2.224,18,2,17.776,2,17.5v-5C2,12.224,2.224,12,2.5,12h17
				c0.276,0,0.5,0.224,0.5,0.5V17.5z"/>
		</g>
		<g>
			<path d="M21,10V1.5C21,1.224,20.776,1,20.5,1h-7C13.224,1,13,1.224,13,1.5V10H21z M16,2h2v1h-2V2z M17,3.5
				c1.378,0,2.5,1.121,2.5,2.5S18.378,8.5,17,8.5S14.5,7.379,14.5,6S15.622,3.5,17,3.5z"/>
			<circle cx="17" cy="6" r="1.5"/>
		</g>
		<g>
			<circle cx="5" cy="6" r="1.5"/>
			<path d="M9,10V1.5C9,1.224,8.776,1,8.5,1h-7C1.224,1,1,1.224,1,1.5V10H9z M4,2h2v1H4V2z M5,3.5c1.378,0,2.5,1.121,2.5,2.5
				S6.378,8.5,5,8.5S2.5,7.379,2.5,6S3.622,3.5,5,3.5z"/>
		</g>
	</g>
</g>
<g id="Invisible_Shape">
	<rect fill="none" width="24" height="24"/>
</g>
</svg>
