<?xml version="1.0" encoding="utf-8"?>
<!-- Generator: Adobe Illustrator 19.2.1, SVG Export Plug-In . SVG Version: 6.00 Build 0)  -->
<svg version="1.1" xmlns="http://www.w3.org/2000/svg" xmlns:xlink="http://www.w3.org/1999/xlink" x="0px" y="0px" width="24px"
	 height="24px" viewBox="0 0 24 24" enable-background="new 0 0 24 24" xml:space="preserve">
<g id="Filled_Icon">
	<path d="M12,0C5.383,0,0,5.384,0,12c0,6.617,5.383,12,12,12s12-5.383,12-12C24,5.384,18.617,0,12,0z M16,16.5
		c0,0.399-0.445,0.639-0.777,0.416L11.5,14.435V16.5c0,0.426-0.494,0.65-0.817,0.388l-5.5-4.5c-0.246-0.203-0.243-0.576,0-0.774
		l5.5-4.5C11.01,6.846,11.5,7.08,11.5,7.5v2.066l3.723-2.481C15.557,6.861,16,7.104,16,7.5V16.5z"/>
</g>
<g id="Invisible_Shape">
	<rect fill="none" width="24" height="24"/>
</g>
</svg>
