<?xml version="1.0" encoding="utf-8"?>
<!-- Generator: Adobe Illustrator 19.2.1, SVG Export Plug-In . SVG Version: 6.00 Build 0)  -->
<svg version="1.1" xmlns="http://www.w3.org/2000/svg" xmlns:xlink="http://www.w3.org/1999/xlink" x="0px" y="0px" width="24px"
	 height="24px" viewBox="0 0 24 24" enable-background="new 0 0 24 24" xml:space="preserve">
<g id="Filled_Icon">
	<path d="M22.354,12.146l-7.5-7.5C14.536,4.33,14,4.559,14,5v9.5c0,0.552-0.449,1-1,1s-1-0.448-1-1V13h-1.5
		c-0.276,0-0.5-0.223-0.5-0.5c0-0.275,0.224-0.5,0.5-0.5H12v-1h-1.5c-0.276,0-0.5-0.223-0.5-0.5c0-0.275,0.224-0.5,0.5-0.5H12V9
		h-1.5C10.224,9,10,8.777,10,8.5C10,8.225,10.224,8,10.5,8H12V6.5C12,2.817,6.99,0,3.5,0h-2C1.224,0,1,0.225,1,0.5
		C1,0.777,1.224,1,1.5,1h2C4.878,1,6,2.122,6,3.5v14c0,3.463,3.504,6.5,7.5,6.5c3.995,0,7.5-3.037,7.5-6.5V14c0-0.551,0.449-1,1-1
		C22.443,13,22.669,12.463,22.354,12.146z"/>
</g>
<g id="Invisible_Shape">
	<rect fill="none" width="24" height="24"/>
</g>
</svg>
