<?xml version="1.0" encoding="utf-8"?>
<!-- Generator: Adobe Illustrator 19.2.1, SVG Export Plug-In . SVG Version: 6.00 Build 0)  -->
<svg version="1.1" xmlns="http://www.w3.org/2000/svg" xmlns:xlink="http://www.w3.org/1999/xlink" x="0px" y="0px" width="24px"
	 height="24px" viewBox="0 0 24 24" enable-background="new 0 0 24 24" xml:space="preserve">
<g id="Filled_Icon">
	<g>
		<path d="M17.5,4h-11C5.673,4,5,4.673,5,5.5v17C5,23.327,5.673,24,6.5,24h11c0.827,0,1.5-0.673,1.5-1.5v-17
			C19,4.673,18.327,4,17.5,4z M17,20.5c0,0.276-0.224,0.5-0.5,0.5h-9C7.224,21,7,20.776,7,20.5v-13C7,7.224,7.224,7,7.5,7h9
			C16.776,7,17,7.224,17,7.5V20.5z"/>
		<circle cx="12" cy="12" r="3"/>
		<g>
			<rect x="11" y="16" width="1" height="2"/>
		</g>
		<g>
			<rect x="9" y="16" width="1" height="2"/>
		</g>
		<g>
			<polygon points="13.5,16 13.5,18 15,17 			"/>
		</g>
		<g>
			<path d="M2.5,5C2.224,5,2,4.776,2,4.5C2,3.122,3.122,2,4.5,2C4.776,2,5,2.224,5,2.5S4.776,3,4.5,3C3.673,3,3,3.673,3,4.5
				C3,4.776,2.776,5,2.5,5z"/>
		</g>
		<g>
			<path d="M0.5,5C0.224,5,0,4.776,0,4.5C0,2.019,2.019,0,4.5,0C4.776,0,5,0.224,5,0.5S4.776,1,4.5,1C2.57,1,1,2.57,1,4.5
				C1,4.776,0.776,5,0.5,5z"/>
		</g>
		<g>
			<path d="M21.5,5C21.224,5,21,4.776,21,4.5C21,3.673,20.327,3,19.5,3C19.224,3,19,2.776,19,2.5S19.224,2,19.5,2
				C20.878,2,22,3.122,22,4.5C22,4.776,21.776,5,21.5,5z"/>
		</g>
		<g>
			<path d="M23.5,5C23.224,5,23,4.776,23,4.5C23,2.57,21.43,1,19.5,1C19.224,1,19,0.776,19,0.5S19.224,0,19.5,0
				C21.981,0,24,2.019,24,4.5C24,4.776,23.776,5,23.5,5z"/>
		</g>
	</g>
</g>
<g id="Invisible_Shape">
	<rect fill="none" width="24" height="24"/>
</g>
</svg>
