<?xml version="1.0" encoding="utf-8"?>
<!-- Generator: Adobe Illustrator 19.2.1, SVG Export Plug-In . SVG Version: 6.00 Build 0)  -->
<svg version="1.1" xmlns="http://www.w3.org/2000/svg" xmlns:xlink="http://www.w3.org/1999/xlink" x="0px" y="0px" width="24px"
	 height="24px" viewBox="0 0 24 24" enable-background="new 0 0 24 24" xml:space="preserve">
<g id="Filled_Icon">
	<g>
		<path d="M21.597,17.355c1.875-3.352,1.868-7.373,0-10.71l1.524-1.523c1.174-1.175,1.172-3.072,0-4.243
			c-1.173-1.173-3.07-1.173-4.242,0l-1.524,1.524c-3.349-1.875-7.375-1.866-10.708,0L5.122,0.879c-1.171-1.171-3.067-1.175-4.243,0
			c-1.17,1.169-1.176,3.066,0,4.243l1.524,1.523c-1.87,3.342-1.869,7.37,0,10.71l-1.524,1.523c-1.169,1.17-1.169,3.073,0,4.243
			c1.171,1.171,3.07,1.172,4.242,0l1.525-1.524c3.332,1.866,7.364,1.873,10.708,0l1.524,1.524c1.171,1.171,3.07,1.172,4.242,0
			c1.169-1.17,1.169-3.073,0-4.243L21.597,17.355z M21,2c0.552,0,1,0.448,1,1c0,0.553-0.448,1-1,1c-0.553,0-1-0.447-1-1
			C20,2.448,20.447,2,21,2z M2,3c0-0.552,0.447-1,1-1c0.552,0,1,0.448,1,1c0,0.553-0.448,1-1,1C2.447,4,2,3.553,2,3z M3,22
			c-0.553,0-1-0.447-1-1c0-0.552,0.447-1,1-1c0.552,0,1,0.448,1,1C4.001,21.553,3.553,22,3,22z M12,20c-4.411,0-8-3.589-8-8
			s3.589-8,8-8s8,3.589,8,8S16.412,20,12,20z M21,22c-0.553,0-1-0.447-1-1c0-0.552,0.447-1,1-1c0.552,0,1,0.448,1,1
			C22,21.553,21.553,22,21,22z"/>
		<circle cx="12" cy="12" r="2.5"/>
	</g>
</g>
<g id="Invisible_Shape">
	<rect fill="none" width="24" height="24"/>
</g>
</svg>
