<?xml version="1.0" encoding="utf-8"?>
<!-- Generator: Adobe Illustrator 19.2.1, SVG Export Plug-In . SVG Version: 6.00 Build 0)  -->
<svg version="1.1" xmlns="http://www.w3.org/2000/svg" xmlns:xlink="http://www.w3.org/1999/xlink" x="0px" y="0px" width="24px"
	 height="24px" viewBox="0 0 24 24" enable-background="new 0 0 24 24" xml:space="preserve">
<g id="Filled_Icon">
	<g>
		<path d="M18.5,0h-13C4.122,0,3,1.122,3,2.5v19C3,22.879,4.122,24,5.5,24h13c1.378,0,2.5-1.121,2.5-2.5v-19
			C21,1.122,19.878,0,18.5,0z M12,3c1.378,0,2.5,1.122,2.5,2.5C14.5,6.879,13.378,8,12,8S9.5,6.879,9.5,5.5C9.5,4.122,10.622,3,12,3
			z M6,2c0.552,0,1,0.448,1,1c0,0.553-0.448,1-1,1C5.447,4,5,3.553,5,3C5,2.448,5.447,2,6,2z M6,22c-0.553,0-1-0.447-1-1
			c0-0.552,0.447-1,1-1c0.552,0,1,0.448,1,1C7,21.553,6.552,22,6,22z M12,20c-2.757,0-5-2.243-5-5s2.243-5,5-5c2.757,0,5,2.243,5,5
			S14.757,20,12,20z M18,22c-0.553,0-1-0.447-1-1c0-0.552,0.447-1,1-1c0.552,0,1,0.448,1,1C19,21.553,18.552,22,18,22z M18,4
			c-0.553,0-1-0.447-1-1c0-0.552,0.447-1,1-1c0.552,0,1,0.448,1,1C19,3.553,18.552,4,18,4z"/>
		<circle cx="12" cy="5.5" r="1.5"/>
		<circle cx="12" cy="15" r="2.5"/>
	</g>
</g>
<g id="Invisible_Shape">
	<rect fill="none" width="24" height="24"/>
</g>
</svg>
