<?xml version="1.0" encoding="utf-8"?>
<!-- Generator: Adobe Illustrator 19.2.1, SVG Export Plug-In . SVG Version: 6.00 Build 0)  -->
<svg version="1.1" xmlns="http://www.w3.org/2000/svg" xmlns:xlink="http://www.w3.org/1999/xlink" x="0px" y="0px" width="24px"
	 height="24px" viewBox="0 0 24 24" enable-background="new 0 0 24 24" xml:space="preserve">
<g id="Filled_Icon">
	<g>
		<g>
			<path d="M24,13V1.5C24,1.224,23.776,1,23.5,1h-4C19.224,1,19,1.224,19,1.5V13H24z"/>
			<path d="M19,14v8.5c0,0.276,0.224,0.5,0.5,0.5h4c0.276,0,0.5-0.224,0.5-0.5V14H19z"/>
		</g>
		<g>
			<path d="M5,13V1.5C5,1.224,4.776,1,4.5,1h-4C0.224,1,0,1.224,0,1.5V13H5z"/>
			<path d="M0,14v8.5C0,22.776,0.224,23,0.5,23h4C4.776,23,5,22.776,5,22.5V14H0z"/>
		</g>
		<g>
			<circle cx="12" cy="12" r="0.5"/>
			<circle cx="12" cy="18" r="2"/>
			<path d="M16.5,8h-9C7.224,8,7,8.224,7,8.5v14C7,22.776,7.224,23,7.5,23h9c0.276,0,0.5-0.224,0.5-0.5v-14
				C17,8.224,16.776,8,16.5,8z M12,10.5c0.827,0,1.5,0.673,1.5,1.5s-0.673,1.5-1.5,1.5s-1.5-0.673-1.5-1.5S11.173,10.5,12,10.5z
				 M9.5,10c0.276,0,0.5,0.225,0.5,0.5c0,0.276-0.224,0.5-0.5,0.5S9,10.776,9,10.5C9,10.225,9.224,10,9.5,10z M12,21
				c-1.654,0-3-1.346-3-3s1.346-3,3-3s3,1.346,3,3S13.654,21,12,21z M14.5,11c-0.276,0-0.5-0.224-0.5-0.5c0-0.275,0.224-0.5,0.5-0.5
				s0.5,0.225,0.5,0.5C15,10.776,14.776,11,14.5,11z"/>
		</g>
	</g>
</g>
<g id="Invisible_Shape">
	<rect fill="none" width="24" height="24"/>
</g>
</svg>
