<?xml version="1.0" encoding="utf-8"?>
<!-- Generator: Adobe Illustrator 19.2.1, SVG Export Plug-In . SVG Version: 6.00 Build 0)  -->
<svg version="1.1" xmlns="http://www.w3.org/2000/svg" xmlns:xlink="http://www.w3.org/1999/xlink" x="0px" y="0px" width="24px"
	 height="24px" viewBox="0 0 24 24" enable-background="new 0 0 24 24" xml:space="preserve">
<g id="Filled_Icon">
	<path d="M12,0C5.383,0,0,5.384,0,12c0,6.617,5.383,12,12,12s12-5.383,12-12C24,5.384,18.617,0,12,0z M17,16.5
		c0,0.276-0.224,0.5-0.5,0.5h-9C7.224,17,7,16.776,7,16.5v-9C7,7.224,7.224,7,7.5,7h9C16.776,7,17,7.224,17,7.5V16.5z"/>
</g>
<g id="Invisible_Shape">
	<rect fill="none" width="24" height="24"/>
</g>
</svg>
