<?xml version="1.0" encoding="utf-8"?>
<!-- Generator: Adobe Illustrator 19.2.1, SVG Export Plug-In . SVG Version: 6.00 Build 0)  -->
<svg version="1.1" xmlns="http://www.w3.org/2000/svg" xmlns:xlink="http://www.w3.org/1999/xlink" x="0px" y="0px" width="24px"
	 height="24px" viewBox="0 0 24 24" enable-background="new 0 0 24 24" xml:space="preserve">
<g id="Filled_Icon">
	<path d="M23.146,6.647L19.756,10H15V8.5c0-0.552-0.447-1-1-1c-0.552,0-1,0.448-1,1V10h-1V8.5c0-0.552-0.447-1-1-1
		c-0.552,0-1,0.448-1,1V10H9V8.5c0-0.552-0.447-1-1-1c-0.552,0-1,0.448-1,1V10H2c0-0.552-0.447-1-1-1c-0.552,0-1,0.448-1,1v2
		c0,0.553,0.448,1,1,1c0.553,0,1-0.447,1-1h1.557C1.966,14.727,3.984,18,7,18v1c0,0.553,0.448,1,1,1c0.553,0,1-0.447,1-1v-1h1v1
		c0,0.553,0.448,1,1,1c0.553,0,1-0.447,1-1v-1h1v1c0,0.553,0.448,1,1,1c0.553,0,1-0.447,1-1v-1c3.062,0,5.008-3.328,3.459-6h1.297
		l3.391,3.354C23.458,15.665,24,15.448,24,15V7C24,6.556,23.462,6.331,23.146,6.647z M7,16c-2.643,0-2.643-4,0-4V16z M10,16H9v-4h1
		V16z M13,16h-1v-4h1V16z M15,16v-4C17.642,12,17.646,16,15,16z"/>
</g>
<g id="Invisible_Shape">
	<rect fill="none" width="24" height="24"/>
</g>
</svg>
