<?xml version="1.0" encoding="utf-8"?>
<!-- Generator: Adobe Illustrator 19.2.1, SVG Export Plug-In . SVG Version: 6.00 Build 0)  -->
<svg version="1.1" xmlns="http://www.w3.org/2000/svg" xmlns:xlink="http://www.w3.org/1999/xlink" x="0px" y="0px" width="24px"
	 height="24px" viewBox="0 0 24 24" enable-background="new 0 0 24 24" xml:space="preserve">
<g id="Filled_Icon">
	<g>
		<path d="M23.354,0.147c-0.195-0.195-0.512-0.195-0.707,0L21,1.793l-1.126-1.126c-0.195-0.195-0.512-0.195-0.707,0
			c-0.195,0.195-0.195,0.512,0,0.707L20.293,2.5L19,3.793l-1.126-1.126c-0.195-0.195-0.512-0.195-0.707,0
			c-0.195,0.195-0.195,0.512,0,0.707L18.293,4.5l-7.688,7.689c-0.195,0.195-0.195,0.512,0,0.707s0.512,0.195,0.707,0L19,5.207
			l1.136,1.137c0.195,0.195,0.512,0.195,0.707,0c0.195-0.195,0.195-0.512,0-0.708L19.707,4.5L21,3.207l1.146,1.146
			c0.195,0.195,0.512,0.195,0.707,0c0.195-0.195,0.195-0.512,0-0.707L21.707,2.5l1.646-1.646
			C23.549,0.658,23.549,0.342,23.354,0.147z"/>
		<path d="M12.019,13.602c-0.586,0.586-1.535,0.586-2.121,0c-0.586-0.585-0.586-1.536,0-2.121l5.167-5.167
			C14.167,5.787,13.146,5.5,12.079,5.5c-1.826,0-3.519,0.816-4.644,2.239C7.347,7.849,7.311,7.99,7.332,8.128
			c0.387,2.431-2.391,3.986-4.275,2.63c-0.187-0.134-0.441-0.124-0.616,0.025c-1.466,1.246-2.354,3.113-2.436,5.124
			c-0.077,1.899,0.561,3.684,1.79,5.09l-1.634,1.634c-0.195,0.195-0.195,0.512,0,0.707c0.195,0.195,0.512,0.195,0.707,0l1.633-1.633
			C3.828,22.862,5.507,23.5,7.29,23.5c2.13,0,4.108-0.89,5.427-2.441c0.149-0.176,0.159-0.43,0.025-0.616
			c-1.427-1.979,0.288-4.649,2.631-4.275c0.139,0.025,0.279-0.015,0.389-0.102c1.319-1.044,2.131-2.61,2.229-4.299
			c0.068-1.175-0.224-2.33-0.808-3.328L12.019,13.602z M2.47,16.529c-0.269-0.062-0.437-0.332-0.374-0.601
			c0.062-0.268,0.334-0.436,0.599-0.374c0.109,0.024,2.676,0.564,3.936-2.102c0.118-0.25,0.415-0.357,0.666-0.238
			c0.25,0.117,0.356,0.416,0.238,0.666C6.512,16.044,4.476,16.895,2.47,16.529z M10.144,16.924c-2.667,1.264-2.124,3.828-2.1,3.938
			c0.061,0.269-0.107,0.536-0.376,0.598c-0.263,0.062-0.535-0.102-0.598-0.373c-0.008-0.034-0.761-3.451,2.646-5.065
			c0.248-0.118,0.547-0.012,0.665,0.238C10.5,16.508,10.393,16.806,10.144,16.924z"/>
	</g>
</g>
<g id="Invisible_Shape">
	<rect fill="none" width="24" height="24"/>
</g>
</svg>
