<?xml version="1.0" encoding="utf-8"?>
<!-- Generator: Adobe Illustrator 19.2.1, SVG Export Plug-In . SVG Version: 6.00 Build 0)  -->
<svg version="1.1" xmlns="http://www.w3.org/2000/svg" xmlns:xlink="http://www.w3.org/1999/xlink" x="0px" y="0px" width="24px"
	 height="24px" viewBox="0 0 24 24" enable-background="new 0 0 24 24" xml:space="preserve">
<g id="Filled_Icon">
	<g>
		<path d="M13.502,3C9.911,3,6.445,5.041,4.947,8H3.002c-1.654,0-3,1.346-3,3v2c0,1.654,1.346,3,3,3h1.945
			c1.497,2.959,4.963,5,8.555,5c0.276,0,0.5-0.224,0.498-0.5v-17C14.002,3.224,13.778,3,13.502,3z"/>
		<path d="M23.502,12H20V8.5C20.002,8.224,19.778,8,19.502,8c-0.276,0-0.5,0.224-0.5,0.5V12h-3.5c-0.276,0-0.5,0.224-0.5,0.5
			s0.224,0.5,0.5,0.5h3.5v3.5c0,0.276,0.224,0.5,0.5,0.5c0.276,0,0.5-0.224,0.498-0.5V13h3.502C23.778,13,24,12.776,24,12.5
			S23.778,12,23.502,12z"/>
	</g>
</g>
<g id="Invisible_Shape">
	<rect fill="none" width="24" height="24"/>
</g>
</svg>
