<?xml version="1.0" encoding="utf-8"?>
<!-- Generator: Adobe Illustrator 19.2.1, SVG Export Plug-In . SVG Version: 6.00 Build 0)  -->
<svg version="1.1" xmlns="http://www.w3.org/2000/svg" xmlns:xlink="http://www.w3.org/1999/xlink" x="0px" y="0px" width="24px"
	 height="24px" viewBox="0 0 24 24" enable-background="new 0 0 24 24" xml:space="preserve">
<g id="Filled_Icon">
	<g>
		<path d="M12.146,1.146L5.293,8H2c-1.102,0-2,0.898-2,2v3c0,1.104,0.897,2,2,2h3.293l6.853,6.854C12.46,22.167,13,21.947,13,21.5
			v-20C13,1.056,12.46,0.831,12.146,1.146z"/>
		<path d="M20.329,3.124c-0.208-0.182-0.524-0.161-0.706,0.047c-0.182,0.208-0.161,0.524,0.047,0.706
			c4.437,3.878,4.443,11.363,0,15.247c-0.208,0.182-0.229,0.497-0.047,0.705c0.183,0.21,0.501,0.228,0.706,0.048
			C25.229,15.593,25.22,7.398,20.329,3.124z"/>
		<path d="M17.818,5.114c-0.212-0.175-0.528-0.145-0.704,0.067c-0.176,0.213-0.146,0.528,0.067,0.704
			c3.717,3.067,3.73,8.14,0,11.229c-0.213,0.176-0.242,0.491-0.066,0.704c0.175,0.212,0.492,0.241,0.704,0.066
			C22.039,14.393,22.008,8.572,17.818,5.114z"/>
		<path d="M15.794,7.596c-0.223-0.162-0.536-0.112-0.699,0.11c-0.162,0.224-0.113,0.536,0.111,0.698
			c2.428,1.768,2.373,4.467,0,6.191c-0.224,0.162-0.273,0.475-0.111,0.698c0.165,0.226,0.48,0.272,0.699,0.11
			C18.734,13.269,18.743,9.74,15.794,7.596z"/>
	</g>
</g>
<g id="Invisible_Shape">
	<rect fill="none" width="24" height="24"/>
</g>
</svg>
