<?xml version="1.0" encoding="utf-8"?>
<!-- Generator: Adobe Illustrator 19.2.1, SVG Export Plug-In . SVG Version: 6.00 Build 0)  -->
<svg version="1.1" xmlns="http://www.w3.org/2000/svg" xmlns:xlink="http://www.w3.org/1999/xlink" x="0px" y="0px" width="24px"
	 height="24px" viewBox="0 0 24 24" enable-background="new 0 0 24 24" xml:space="preserve">
<g id="Filled_Icon">
	<g>
		<path d="M13.5,0.011c-3.59,0-7.057,2.041-8.555,5H3c-1.654,0-3,1.346-3,3v2c0,1.654,1.346,3,3,3h1.945
			c1.498,2.959,4.964,5,8.555,5c0.276,0,0.5-0.224,0.5-0.5v-17C14,0.234,13.776,0.011,13.5,0.011z"/>
		<path d="M20.267,1.588c-0.233-0.146-0.542-0.077-0.689,0.156C19.43,1.977,19.5,2.286,19.733,2.434
			c4.351,2.75,4.354,10.405,0,13.154c-0.233,0.148-0.303,0.457-0.155,0.69c0.149,0.235,0.46,0.301,0.689,0.155
			C25.24,13.291,25.238,4.731,20.267,1.588z"/>
		<path d="M18.734,3.069c-0.245-0.13-0.546-0.036-0.676,0.208c-0.129,0.243-0.036,0.546,0.208,0.676
			c3.643,1.93,3.634,8.191,0,10.116c-0.244,0.129-0.337,0.432-0.208,0.676c0.13,0.245,0.434,0.335,0.676,0.208
			C23.072,12.654,23.085,5.373,18.734,3.069z"/>
		<path d="M17.161,4.538c-0.262-0.091-0.546,0.051-0.634,0.312c-0.089,0.262,0.051,0.546,0.312,0.635
			c2.879,0.979,2.876,6.077,0,7.053c-0.261,0.089-0.401,0.373-0.312,0.635c0.09,0.267,0.38,0.4,0.634,0.312
			C20.943,12.201,20.938,5.822,17.161,4.538z"/>
	</g>
</g>
<g id="Invisible_Shape">
	<rect fill="none" width="24" height="24"/>
</g>
</svg>
