<?xml version="1.0" encoding="utf-8"?>
<!-- Generator: Adobe Illustrator 19.2.1, SVG Export Plug-In . SVG Version: 6.00 Build 0)  -->
<svg version="1.1" xmlns="http://www.w3.org/2000/svg" xmlns:xlink="http://www.w3.org/1999/xlink" x="0px" y="0px" width="24px"
	 height="24px" viewBox="0 0 24 24" enable-background="new 0 0 24 24" xml:space="preserve">
<g id="Filled_Icon">
	<g>
		<path d="M12.146,1.146L5.293,8H2c-1.102,0-2,0.898-2,2v3c0,1.104,0.897,2,2,2h3.293l6.853,6.854C12.46,22.166,13,21.944,13,21.5
			v-20C13,1.056,12.46,0.831,12.146,1.146z"/>
		<path d="M15.794,7.596c-0.224-0.162-0.536-0.112-0.698,0.11c-0.162,0.224-0.113,0.536,0.11,0.698
			c2.387,1.737,2.413,4.437,0.001,6.191c-0.225,0.162-0.273,0.475-0.111,0.698c0.165,0.228,0.48,0.271,0.697,0.111
			C18.739,13.268,18.739,9.736,15.794,7.596z"/>
	</g>
</g>
<g id="Invisible_Shape">
	<rect fill="none" width="24" height="24"/>
</g>
</svg>
