<?xml version="1.0" encoding="utf-8"?>
<!-- Generator: Adobe Illustrator 19.2.1, SVG Export Plug-In . SVG Version: 6.00 Build 0)  -->
<svg version="1.1" xmlns="http://www.w3.org/2000/svg" xmlns:xlink="http://www.w3.org/1999/xlink" x="0px" y="0px" width="24px"
	 height="24px" viewBox="0 0 24 24" enable-background="new 0 0 24 24" xml:space="preserve">
<g id="Filled_Icon">
	<g>
		<path d="M13.5,2.999c-3.59,0-7.057,2.041-8.555,5H3c-1.654,0-3,1.346-3,3v2c0,1.654,1.346,3,3,3h1.945
			c1.498,2.959,4.964,5,8.555,5c0.276,0,0.5-0.224,0.5-0.5v-17C14,3.223,13.776,2.999,13.5,2.999z"/>
		<path d="M18.734,6.058c-0.245-0.13-0.546-0.036-0.676,0.208c-0.129,0.243-0.036,0.546,0.208,0.676
			c3.643,1.93,3.634,8.191,0,10.116c-0.244,0.129-0.337,0.432-0.208,0.676c0.13,0.245,0.434,0.335,0.676,0.208
			C23.072,15.643,23.085,8.361,18.734,6.058z"/>
		<path d="M17.161,7.526c-0.262-0.091-0.545,0.051-0.634,0.312c-0.089,0.262,0.051,0.546,0.312,0.635
			c2.879,0.978,2.876,6.077,0,7.053c-0.261,0.089-0.401,0.373-0.312,0.635c0.09,0.267,0.38,0.4,0.634,0.312
			C20.943,15.189,20.938,8.811,17.161,7.526z"/>
	</g>
</g>
<g id="Invisible_Shape">
	<rect fill="none" width="24" height="24"/>
</g>
</svg>
