<?xml version="1.0" encoding="utf-8"?>
<!-- Generator: Adobe Illustrator 19.2.1, SVG Export Plug-In . SVG Version: 6.00 Build 0)  -->
<svg version="1.1" xmlns="http://www.w3.org/2000/svg" xmlns:xlink="http://www.w3.org/1999/xlink" x="0px" y="0px" width="24px"
	 height="24px" viewBox="0 0 24 24" enable-background="new 0 0 24 24" xml:space="preserve">
<g id="Filled_Icon">
	<g>
		<path d="M13.5,3C9.674,3,6.501,4.862,4.944,8H3c-1.654,0-3,1.346-3,3v2c0,1.654,1.346,3,3,3h1.944c1.557,3.138,4.73,5,8.556,5
			c0.276,0,0.5-0.224,0.5-0.5v-17C14,3.224,13.776,3,13.5,3z"/>
		<path d="M23.5,12h-8c-0.276,0-0.5,0.224-0.5,0.5s0.224,0.5,0.5,0.5h8c0.276,0,0.5-0.224,0.5-0.5S23.776,12,23.5,12z"/>
	</g>
</g>
<g id="Invisible_Shape">
	<rect fill="none" width="24" height="24"/>
</g>
</svg>
