<?xml version="1.0" encoding="utf-8"?>
<!-- Generator: Adobe Illustrator 19.2.1, SVG Export Plug-In . SVG Version: 6.00 Build 0)  -->
<svg version="1.1" xmlns="http://www.w3.org/2000/svg" xmlns:xlink="http://www.w3.org/1999/xlink" x="0px" y="0px" width="24px"
	 height="24px" viewBox="0 0 24 24" enable-background="new 0 0 24 24" xml:space="preserve">
<g id="Filled_Icon">
	<g>
		<g>
			<path d="M15.095,16.929l-1.235-1.239c-0.275,0.131-0.564,0.234-0.86,0.309v4.463l4.456-1.163l-1.681-1.686
				C15.315,17.921,14.781,17.389,15.095,16.929z"/>
			<path d="M6,1.124L1.878,0.049C0.944-0.199,0,0.509,0,1.5v20.411c0,0.983,0.921,1.695,1.878,1.452L6,22.287V1.124z M3.5,2.706
				c0.276,0,0.5,0.224,0.5,0.5c0,0.275-0.224,0.5-0.5,0.5S3,3.481,3,3.206C3,2.93,3.224,2.706,3.5,2.706z M3.5,20.706
				c-0.276,0-0.5-0.225-0.5-0.5c0-0.276,0.224-0.5,0.5-0.5S4,19.93,4,20.206C4,20.481,3.776,20.706,3.5,20.706z"/>
			<path d="M18,4.254l-5-1.305V7.28c2.818,0.684,4.192,3.731,2.979,6.286L18,15.594V4.254z M15.5,6.706c-0.276,0-0.5-0.225-0.5-0.5
				c0-0.276,0.224-0.5,0.5-0.5S16,5.93,16,6.206C16,6.481,15.776,6.706,15.5,6.706z"/>
			<path d="M12,7.146V2.688L7,1.385v20.642l5-1.304v-4.588c-1.323,0-2.413-0.479-3.249-1.314c-1.754-1.754-1.754-4.607-0.001-6.362
				C9.668,7.541,10.905,7.098,12,7.146z M9.5,4.706c0.276,0,0.5,0.224,0.5,0.5c0,0.275-0.224,0.5-0.5,0.5S9,5.481,9,5.206
				C9,4.93,9.224,4.706,9.5,4.706z M9.5,17.706c0.276,0,0.5,0.224,0.5,0.5c0,0.275-0.224,0.5-0.5,0.5S9,18.481,9,18.206
				C9,17.93,9.224,17.706,9.5,17.706z"/>
			<path d="M22.878,5.527L19,4.516v12.081l1.818,1.825l2.059-0.537C23.538,17.714,24,17.117,24,16.434V6.978
				C24,6.297,23.539,5.699,22.878,5.527z M21,16.706c-0.276,0-0.5-0.225-0.5-0.5c0-0.276,0.224-0.5,0.5-0.5s0.5,0.224,0.5,0.5
				C21.5,16.481,21.276,16.706,21,16.706z M21,7.706c-0.276,0-0.5-0.225-0.5-0.5c0-0.276,0.224-0.5,0.5-0.5s0.5,0.224,0.5,0.5
				C21.5,7.481,21.276,7.706,21,7.706z"/>
		</g>
		<path d="M23.802,22.832l-9.077-9.107c1.022-1.369,0.926-3.316-0.317-4.561c-1.322-1.322-3.628-1.322-4.95,0
			c-1.364,1.365-1.364,3.586,0,4.949c1.202,1.202,3.123,1.398,4.561,0.319l9.075,9.107c0.195,0.195,0.51,0.195,0.707,0.001
			C23.997,23.345,23.998,23.028,23.802,22.832z"/>
	</g>
</g>
<g id="Invisible_Shape">
	<rect fill="none" width="24" height="24"/>
</g>
</svg>
