<?xml version="1.0" encoding="utf-8"?>
<!-- Generator: Adobe Illustrator 16.0.3, SVG Export Plug-In . SVG Version: 6.00 Build 0)  -->
<!DOCTYPE svg PUBLIC "-//W3C//DTD SVG 1.1//EN" "http://www.w3.org/Graphics/SVG/1.1/DTD/svg11.dtd">
<svg version="1.1" xmlns="http://www.w3.org/2000/svg" xmlns:xlink="http://www.w3.org/1999/xlink" x="0px" y="0px" width="24px"
	 height="24px" viewBox="0 0 24 24" enable-background="new 0 0 24 24" xml:space="preserve">
<g id="Outline_Icons_1_">
	<g id="Outline_Icons">
		<g>
			
				<rect x="3.5" y="1.5" fill="none" stroke="#000000" stroke-linecap="round" stroke-linejoin="round" stroke-miterlimit="10" width="19" height="11"/>
			
				<line fill="none" stroke="#000000" stroke-linecap="round" stroke-linejoin="round" stroke-miterlimit="10" x1="1.5" y1="0.5" x2="1.5" y2="23.5"/>
			<g>
				<g>
					<g>
						<polygon points="6,2 4,2 4,4 6,4 6,2 						"/>
					</g>
				</g>
			</g>
			<g>
				<g>
					<g>
						<polygon points="10,2 8,2 8,4 10,4 10,2 						"/>
					</g>
				</g>
			</g>
			<g>
				<g>
					<g>
						<polygon points="14,2 12,2 12,4 14,4 14,2 						"/>
					</g>
				</g>
			</g>
			<g>
				<g>
					<g>
						<polygon points="18,2 16,2 16,4 18,4 18,2 						"/>
					</g>
				</g>
			</g>
			<g>
				<g>
					<g>
						<polygon points="22,2 20,2 20,4 22,4 22,2 						"/>
					</g>
				</g>
			</g>
			<g>
				<g>
					<g>
						<polygon points="8,4 6,4 6,6 8,6 8,4 						"/>
					</g>
				</g>
			</g>
			<g>
				<g>
					<g>
						<polygon points="12,4 10,4 10,6 12,6 12,4 						"/>
					</g>
				</g>
			</g>
			<g>
				<g>
					<g>
						<polygon points="16,4 14,4 14,6 16,6 16,4 						"/>
					</g>
				</g>
			</g>
			<g>
				<g>
					<g>
						<polygon points="20,4 18,4 18,6 20,6 20,4 						"/>
					</g>
				</g>
			</g>
			<g>
				<g>
					<g>
						<polygon points="6,6 4,6 4,8 6,8 6,6 						"/>
					</g>
				</g>
			</g>
			<g>
				<g>
					<g>
						<polygon points="10,6 8,6 8,8 10,8 10,6 						"/>
					</g>
				</g>
			</g>
			<g>
				<g>
					<g>
						<polygon points="14,6 12,6 12,8 14,8 14,6 						"/>
					</g>
				</g>
			</g>
			<g>
				<g>
					<g>
						<polygon points="18,6 16,6 16,8 18,8 18,6 						"/>
					</g>
				</g>
			</g>
			<g>
				<g>
					<g>
						<polygon points="22,6 20,6 20,8 22,8 22,6 						"/>
					</g>
				</g>
			</g>
			<g>
				<g>
					<g>
						<polygon points="8,8 6,8 6,10 8,10 8,8 						"/>
					</g>
				</g>
			</g>
			<g>
				<g>
					<g>
						<polygon points="12,8 10,8 10,10 12,10 12,8 						"/>
					</g>
				</g>
			</g>
			<g>
				<g>
					<g>
						<polygon points="16,8 14,8 14,10 16,10 16,8 						"/>
					</g>
				</g>
			</g>
			<g>
				<g>
					<g>
						<polygon points="20,8 18,8 18,10 20,10 20,8 						"/>
					</g>
				</g>
			</g>
			<g>
				<g>
					<g>
						<polygon points="6,10 4,10 4,12 6,12 6,10 						"/>
					</g>
				</g>
			</g>
			<g>
				<g>
					<g>
						<polygon points="10,10 8,10 8,12 10,12 10,10 						"/>
					</g>
				</g>
			</g>
			<g>
				<g>
					<g>
						<polygon points="14,10 12,10 12,12 14,12 14,10 						"/>
					</g>
				</g>
			</g>
			<g>
				<g>
					<g>
						<polygon points="18,10 16,10 16,12 18,12 18,10 						"/>
					</g>
				</g>
			</g>
			<g>
				<g>
					<g>
						<polygon points="22,10 20,10 20,12 22,12 22,10 						"/>
					</g>
				</g>
			</g>
		</g>
	</g>
	<g id="New_icons_1_">
	</g>
</g>
<g id="Invisible_Shape">
	<rect fill="none" width="24" height="24"/>
</g>
</svg>
