<?xml version="1.0" encoding="utf-8"?>
<!-- Generator: Adobe Illustrator 16.0.3, SVG Export Plug-In . SVG Version: 6.00 Build 0)  -->
<!DOCTYPE svg PUBLIC "-//W3C//DTD SVG 1.1//EN" "http://www.w3.org/Graphics/SVG/1.1/DTD/svg11.dtd">
<svg version="1.1" xmlns="http://www.w3.org/2000/svg" xmlns:xlink="http://www.w3.org/1999/xlink" x="0px" y="0px" width="24px"
	 height="24px" viewBox="0 0 24 24" enable-background="new 0 0 24 24" xml:space="preserve">
<g id="Outline_Icons_1_">
	<g id="Outline_Icons">
		<g>
			
				<rect x="0.5" y="1.5" fill="none" stroke="#000000" stroke-width="1.0351" stroke-linecap="round" stroke-linejoin="round" stroke-miterlimit="10" width="23" height="13"/>
			
				<line fill="none" stroke="#000000" stroke-linecap="round" stroke-linejoin="round" stroke-miterlimit="10" x1="0.5" y1="0.5" x2="0.5" y2="23.5"/>
			<g>
				<g>
					<g>
						<polygon points="3,2 1,2 1,4 3,4 3,2 						"/>
					</g>
				</g>
			</g>
			<g>
				<g>
					<g>
						<polygon points="7,2 5,2 5,4 7,4 7,2 						"/>
					</g>
				</g>
			</g>
			<g>
				<g>
					<g>
						<polygon points="11,2 9,2 9,4 11,4 11,2 						"/>
					</g>
				</g>
			</g>
			<g>
				<g>
					<g>
						<polygon points="15,2 13,2 13,4 15,4 15,2 						"/>
					</g>
				</g>
			</g>
			<g>
				<g>
					<g>
						<polygon points="19,2 17,2 17,4 19,4 19,2 						"/>
					</g>
				</g>
			</g>
			<g>
				<g>
					<g>
						<polygon points="23,2 21,2 21,4 23,4 23,2 						"/>
					</g>
				</g>
			</g>
			<g>
				<g>
					<g>
						<polygon points="5,4 3,4 3,6 5,6 5,4 						"/>
					</g>
				</g>
			</g>
			<g>
				<g>
					<g>
						<polygon points="9,4 7,4 7,6 9,6 9,4 						"/>
					</g>
				</g>
			</g>
			<g>
				<g>
					<g>
						<polygon points="13,4 11,4 11,6 13,6 13,4 						"/>
					</g>
				</g>
			</g>
			<g>
				<g>
					<g>
						<polygon points="17,4 15,4 15,6 17,6 17,4 						"/>
					</g>
				</g>
			</g>
			<g>
				<g>
					<g>
						<polygon points="21,4 19,4 19,6 21,6 21,4 						"/>
					</g>
				</g>
			</g>
			<g>
				<g>
					<g>
						<polygon points="3,6 1,6 1,8 3,8 3,6 						"/>
					</g>
				</g>
			</g>
			<g>
				<g>
					<g>
						<polygon points="7,6 5,6 5,8 7,8 7,6 						"/>
					</g>
				</g>
			</g>
			<g>
				<g>
					<g>
						<polygon points="11,6 9,6 9,8 11,8 11,6 						"/>
					</g>
				</g>
			</g>
			<g>
				<g>
					<g>
						<polygon points="15,6 13,6 13,8 15,8 15,6 						"/>
					</g>
				</g>
			</g>
			<g>
				<g>
					<g>
						<polygon points="19,6 17,6 17,8 19,8 19,6 						"/>
					</g>
				</g>
			</g>
			<g>
				<g>
					<g>
						<polygon points="23,6 21,6 21,8 23,8 23,6 						"/>
					</g>
				</g>
			</g>
			<g>
				<g>
					<g>
						<polygon points="5,8 3,8 3,10 5,10 5,8 						"/>
					</g>
				</g>
			</g>
			<g>
				<g>
					<g>
						<polygon points="9,8 7,8 7,10 9,10 9,8 						"/>
					</g>
				</g>
			</g>
			<g>
				<g>
					<g>
						<polygon points="13,8 11,8 11,10 13,10 13,8 						"/>
					</g>
				</g>
			</g>
			<g>
				<g>
					<g>
						<polygon points="17,8 15,8 15,10 17,10 17,8 						"/>
					</g>
				</g>
			</g>
			<g>
				<g>
					<g>
						<polygon points="21,8 19,8 19,10 21,10 21,8 						"/>
					</g>
				</g>
			</g>
			<g>
				<g>
					<g>
						<polygon points="3,10 1,10 1,12 3,12 3,10 						"/>
					</g>
				</g>
			</g>
			<g>
				<g>
					<g>
						<polygon points="7,10 5,10 5,12 7,12 7,10 						"/>
					</g>
				</g>
			</g>
			<g>
				<g>
					<g>
						<polygon points="11,10 9,10 9,12 11,12 11,10 						"/>
					</g>
				</g>
			</g>
			<g>
				<g>
					<g>
						<polygon points="15,10 13,10 13,12 15,12 15,10 						"/>
					</g>
				</g>
			</g>
			<g>
				<g>
					<g>
						<polygon points="19,10 17,10 17,12 19,12 19,10 						"/>
					</g>
				</g>
			</g>
			<g>
				<g>
					<g>
						<polygon points="23,10 21,10 21,12 23,12 23,10 						"/>
					</g>
				</g>
			</g>
			<g>
				<g>
					<g>
						<polygon points="5,12 3,12 3,14 5,14 5,12 						"/>
					</g>
				</g>
			</g>
			<g>
				<g>
					<g>
						<polygon points="9,12 7,12 7,14 9,14 9,12 						"/>
					</g>
				</g>
			</g>
			<g>
				<g>
					<g>
						<polygon points="13,12 11,12 11,14 13,14 13,12 						"/>
					</g>
				</g>
			</g>
			<g>
				<g>
					<g>
						<polygon points="17,12 15,12 15,14 17,14 17,12 						"/>
					</g>
				</g>
			</g>
			<g>
				<g>
					<g>
						<polygon points="21,12 19,12 19,14 21,14 21,12 						"/>
					</g>
				</g>
			</g>
			
				<line fill="none" stroke="#000000" stroke-linecap="round" stroke-linejoin="round" stroke-miterlimit="10" x1="23.5" y1="0.5" x2="23.5" y2="23.5"/>
		</g>
	</g>
	<g id="New_icons_1_">
	</g>
</g>
<g id="Invisible_Shape">
	<rect fill="none" width="24" height="24"/>
</g>
</svg>
