<?xml version="1.0" encoding="utf-8"?>
<!-- Generator: Adobe Illustrator 16.0.3, SVG Export Plug-In . SVG Version: 6.00 Build 0)  -->
<!DOCTYPE svg PUBLIC "-//W3C//DTD SVG 1.1//EN" "http://www.w3.org/Graphics/SVG/1.1/DTD/svg11.dtd">
<svg version="1.1" xmlns="http://www.w3.org/2000/svg" xmlns:xlink="http://www.w3.org/1999/xlink" x="0px" y="0px" width="24px"
	 height="24px" viewBox="0 0 24 24" enable-background="new 0 0 24 24" xml:space="preserve">
<g id="Outline_Icons_1_">
	<g id="Outline_Icons">
		<g>
			<g>
				<circle fill="none" stroke="#000000" stroke-linejoin="round" stroke-miterlimit="10" cx="18" cy="3" r="2.5"/>
				<polygon fill="none" stroke="#000000" stroke-linejoin="round" stroke-miterlimit="10" points="18,23.5 20.5,23.5 21.53,15.5 
					23.5,15.5 23.5,8 20,7 18,11 16,7 12.5,8 12.5,15.5 14.469,15.5 15.5,23.5 				"/>
			</g>
			<path fill="none" stroke="#000000" stroke-linejoin="round" stroke-miterlimit="10" d="M11.505,23.49c-6-8-6-16.479,0-22.979"/>
			<line fill="none" stroke="#000000" stroke-linejoin="round" stroke-miterlimit="10" x1="2" y1="17.5" x2="12.499" y2="17.5"/>
			<line fill="none" stroke="#000000" stroke-linejoin="round" stroke-miterlimit="10" x1="1.786" y1="6.5" x2="12.499" y2="6.5"/>
			
				<line fill="none" stroke="#000000" stroke-linejoin="round" stroke-miterlimit="10" x1="0.563" y1="11.5" x2="12.499" y2="11.5"/>
			<path fill="none" stroke="#000000" stroke-linejoin="round" stroke-miterlimit="10" d="M12.5,0.524
				C12.335,0.518,12.172,0.5,12.005,0.5C5.638,0.5,0.5,5.374,0.5,11.749C0.5,18.126,5.6,23.5,11.968,23.5
				c0.18,0,0.354-0.019,0.532-0.026V0.524z"/>
		</g>
	</g>
	<g id="New_icons_1_">
	</g>
</g>
<g id="Invisible_Shape">
	<rect fill="none" width="24" height="24"/>
</g>
</svg>
