<?xml version="1.0" encoding="utf-8"?>
<!-- Generator: Adobe Illustrator 16.0.3, SVG Export Plug-In . SVG Version: 6.00 Build 0)  -->
<!DOCTYPE svg PUBLIC "-//W3C//DTD SVG 1.1//EN" "http://www.w3.org/Graphics/SVG/1.1/DTD/svg11.dtd">
<svg version="1.1" xmlns="http://www.w3.org/2000/svg" xmlns:xlink="http://www.w3.org/1999/xlink" x="0px" y="0px" width="24px"
	 height="24px" viewBox="0 0 24 24" enable-background="new 0 0 24 24" xml:space="preserve">
<g id="Outline_Icons_1_">
	<g id="Outline_Icons">
		<g>
			<path fill="none" stroke="#000000" stroke-linecap="round" stroke-linejoin="round" stroke-miterlimit="10" d="M0.497,19.463
				c0-0.552,0.447-0.963,1-0.963h9c0.552,0,1,0.411,1,0.963V21.5h-11V19.463z"/>
			
				<rect x="3.497" y="13.5" fill="none" stroke="#000000" stroke-linecap="round" stroke-linejoin="round" stroke-miterlimit="10" width="4.979" height="3"/>
			<path fill="none" stroke="#000000" stroke-linecap="round" stroke-linejoin="round" stroke-miterlimit="10" d="M1.497,18.5
				v-5.537c0-0.828,0.671-1.463,1.5-1.463h5.979c0.828,0,1.5,0.635,1.5,1.463v5.496"/>
			<path fill="none" stroke="#000000" stroke-linecap="round" stroke-linejoin="round" stroke-miterlimit="10" d="M12.497,19.463
				c0-0.552,0.447-0.963,1-0.963l9.003,0.019c0.552,0,1,0.411,1,0.963v2.037L12.497,21.5V19.463z"/>
			
				<rect x="15.497" y="13.5" fill="none" stroke="#000000" stroke-linecap="round" stroke-linejoin="round" stroke-miterlimit="10" width="5" height="3"/>
			<path fill="none" stroke="#000000" stroke-linecap="round" stroke-linejoin="round" stroke-miterlimit="10" d="M13.497,18.5
				v-5.537c0-0.828,0.671-1.463,1.5-1.463h6c0.828,0,1.5,0.635,1.5,1.463v5.496"/>
			
				<rect x="9.49" y="4.503" fill="none" stroke="#000000" stroke-linecap="round" stroke-linejoin="round" stroke-miterlimit="10" width="5" height="3"/>
			<path fill="none" stroke="#000000" stroke-linecap="round" stroke-linejoin="round" stroke-miterlimit="10" d="M7.49,9.503V3.967
				c0-0.829,0.671-1.464,1.5-1.464h6c0.828,0,1.5,0.635,1.5,1.464v5.494"/>
			
				<line fill="none" stroke="#000000" stroke-linecap="round" stroke-linejoin="round" stroke-miterlimit="10" x1="13.581" y1="12.515" x2="10.435" y2="12.51"/>
			<path fill="none" stroke="#000000" stroke-linecap="round" stroke-linejoin="round" stroke-miterlimit="10" d="M6.489,11.5
				v-1.033c0-0.553,0.447-0.964,1-0.964l9.003,0.018c0.552,0,1,0.412,1,0.964v0.912"/>
		</g>
	</g>
	<g id="New_icons_1_">
	</g>
</g>
<g id="Invisible_Shape">
	<rect fill="none" width="24" height="24"/>
</g>
</svg>
