<?xml version="1.0" encoding="utf-8"?>
<!-- Generator: Adobe Illustrator 16.0.3, SVG Export Plug-In . SVG Version: 6.00 Build 0)  -->
<!DOCTYPE svg PUBLIC "-//W3C//DTD SVG 1.1//EN" "http://www.w3.org/Graphics/SVG/1.1/DTD/svg11.dtd">
<svg version="1.1" xmlns="http://www.w3.org/2000/svg" xmlns:xlink="http://www.w3.org/1999/xlink" x="0px" y="0px" width="24px"
	 height="24px" viewBox="0 0 24 24" enable-background="new 0 0 24 24" xml:space="preserve">
<g id="Outline_Icons_1_">
	<g id="Outline_Icons">
		<g>
			<g>
				
					<circle fill="none" stroke="#000000" stroke-linecap="round" stroke-linejoin="round" stroke-miterlimit="10" cx="11.996" cy="11.999" r="6.5"/>
				<path fill="none" stroke="#000000" stroke-linecap="round" stroke-linejoin="round" stroke-miterlimit="10" d="M16.801,7.621
					c0,0-0.282,1.552-1.413,2.117c-2.621-0.655-1.63,0.828-1.413,1.695c0.283,0.283,0.848,0,0.848,0
					c1.264,2.488-0.848,3.109-0.848,3.109c-1.538,1.538-1.037,1.978-2.543,1.978c-0.283,0-0.849-1.13-0.849-1.413
					c0-2.153-1.079-2.543-1.978-2.543c-0.848,0-0.848-1.131-0.848-1.131s0-1.979,1.412-2.261c1.413-0.282,1.413,0.282,1.413,0.282
					c0.584,0.584,2.655-0.561,0.763-2.033c-0.699-0.545,2.552-1.641,2.552-1.641"/>
			</g>
			<polyline fill="none" stroke="#000000" stroke-linecap="round" stroke-linejoin="round" stroke-miterlimit="10" points="
				21.459,3.842 17.54,3.071 17.844,6.447 			"/>
			<polyline fill="none" stroke="#000000" stroke-linecap="round" stroke-linejoin="round" stroke-miterlimit="10" points="
				2.008,19.994 6.473,20.927 6.114,17.562 			"/>
			<path fill="none" stroke="#000000" stroke-linecap="round" stroke-linejoin="round" stroke-miterlimit="10" d="M17.529,3.071
				c2.984,1.853,4.971,5.157,4.971,8.928c0,5.799-4.7,10.499-10.499,10.499c-0.769,0-1.519-0.082-2.239-0.239"/>
			<path fill="none" stroke="#000000" stroke-linecap="round" stroke-linejoin="round" stroke-miterlimit="10" d="M6.473,20.927
				c-2.984-1.853-4.971-5.157-4.971-8.928C1.502,6.2,6.202,1.5,12.001,1.5c0.761,0,1.503,0.081,2.218,0.234"/>
		</g>
	</g>
	<g id="New_icons_1_">
	</g>
</g>
<g id="Invisible_Shape">
	<rect fill="none" width="24" height="24"/>
</g>
</svg>
