<?xml version="1.0" encoding="utf-8"?>
<!-- Generator: Adobe Illustrator 19.2.0, SVG Export Plug-In . SVG Version: 6.00 Build 0)  -->
<svg version="1.1" xmlns="http://www.w3.org/2000/svg" xmlns:xlink="http://www.w3.org/1999/xlink" x="0px" y="0px" width="24px"
	 height="24px" viewBox="0 0 24 24" enable-background="new 0 0 24 24" xml:space="preserve">
<g id="Filled_Icons">
	<g>
		<path d="M16,6c-1.876,0-2.53,0.305-3.5,0.844V5.5C12.5,4.122,11.378,3,10,3H8C7.724,3,7.5,3.224,7.5,3.5S7.724,4,8,4h2
			c0.826,0,1.5,0.673,1.5,1.5v1.344C10.529,6.316,9.923,6,8,6c-3.364,0-6,3.295-6,7.5C2,17.456,5.038,24,8.5,24
			c1.801,0,2.331-0.342,2.793-0.754C11.482,23.077,11.569,23,12,23s0.517,0.077,0.706,0.246C13.169,23.658,13.698,24,15.5,24
			c3.462,0,6.5-6.544,6.5-10.5C22,9.295,19.364,6,16,6z"/>
		<path d="M14,5.5c2.757,0,5-2.243,5-5C19,0.224,18.775,0,18.5,0c-2.758,0-5,2.243-5,5C13.5,5.276,13.724,5.5,14,5.5z"/>
	</g>
</g>
<g id="invisible_shape">
	<rect fill="none" width="24" height="24"/>
</g>
</svg>
