<?xml version="1.0" encoding="utf-8"?>
<!-- Generator: Adobe Illustrator 19.2.0, SVG Export Plug-In . SVG Version: 6.00 Build 0)  -->
<svg version="1.1" xmlns="http://www.w3.org/2000/svg" xmlns:xlink="http://www.w3.org/1999/xlink" x="0px" y="0px" width="24px"
	 height="24px" viewBox="0 0 24 24" enable-background="new 0 0 24 24" xml:space="preserve">
<g id="Filled_Icons">
	<path d="M21.04,2.711V1.007c0-0.275-0.224-0.5-0.5-0.5c-0.276,0-0.5,0.225-0.5,0.5v1.705c-0.176,0.098-0.355,0.197-0.521,0.287
		c-1.552,0.841-2.777,1.504-3.46,3.869c-2.765,9.577-7.944,10.491-11.726,11.159c-1.856,0.327-3.462,0.627-4.112,1.976
		c5.758,0.979,11.749,0.146,15.252-4.504c4.599-6.105,4.081-9.41,4.075-9.442c-0.048-0.271,0.131-0.53,0.4-0.581
		c0.273-0.05,0.529,0.125,0.582,0.394c0.028,0.149,0.652,3.711-4.259,10.231c-3.344,4.438-8.551,5.293-12.067,5.293
		c-2.023,0-3.183-0.24-4.183-0.41c0.037,0.266,0.14,0.529,0.321,0.781C1.308,23.101,4.213,24,7.573,24
		c7.719,0,15.967-4.465,15.967-16.993C23.54,4.461,21.755,3.139,21.04,2.711z"/>
</g>
<g id="invisible_shape">
	<rect fill="none" width="24" height="24"/>
</g>
</svg>
