<?xml version="1.0" encoding="utf-8"?>
<!-- Generator: Adobe Illustrator 19.2.0, SVG Export Plug-In . SVG Version: 6.00 Build 0)  -->
<svg version="1.1" xmlns="http://www.w3.org/2000/svg" xmlns:xlink="http://www.w3.org/1999/xlink" x="0px" y="0px" width="24px"
	 height="24px" viewBox="0 0 24 24" enable-background="new 0 0 24 24" xml:space="preserve">
<g id="Filled_Icons">
	<g>
		<path d="M6.186,14.295c-0.552,0.551-0.9,1.248-0.979,1.961c-0.063,0.568,0.048,1.097,0.314,1.531L4.418,18.89
			c-0.195,0.195-0.195,0.512,0,0.707c0.778,0.78,0.778,2.05,0,2.829c-0.78,0.78-2.051,0.779-2.829,0c-0.78-0.779-0.78-2.049,0-2.828
			c0.195-0.196,0.195-0.513,0-0.708c-0.195-0.194-0.512-0.194-0.707,0c-1.17,1.17-1.17,3.073,0,4.243
			c0.585,0.586,1.354,0.878,2.121,0.878c0.769,0,1.537-0.292,2.122-0.878c1.048-1.049,1.155-2.688,0.324-3.859l0.783-0.784
			c0.355,0.216,0.773,0.337,1.223,0.337c0.808,0,1.633-0.363,2.266-0.996c0.553-0.553,0.9-1.25,0.979-1.964
			c0.084-0.755-0.139-1.439-0.626-1.926C9.132,12.998,7.314,13.165,6.186,14.295z"/>
		<path d="M15.026,11.822c-0.001-0.001-0.001-0.003-0.002-0.004L12.195,8.99c-0.001-0.001-0.002-0.001-0.002-0.001l-1.402-1.402
			c-0.195-0.195-0.512-0.195-0.707,0c-0.195,0.195-0.195,0.512,0,0.708l1.051,1.05l-2.121,2.12l-1.05-1.05
			c-0.195-0.195-0.512-0.195-0.707,0c-0.195,0.196-0.195,0.513,0,0.707l5.647,5.647c0.098,0.098,0.226,0.146,0.353,0.146
			c0.128,0,0.256-0.049,0.354-0.146c0.195-0.195,0.195-0.512,0-0.706l-1.061-1.061l2.12-2.121l1.061,1.061
			c0.098,0.098,0.226,0.146,0.354,0.146c0.128,0,0.256-0.049,0.354-0.146c0.195-0.194,0.195-0.511,0-0.707L15.026,11.822z"/>
		<path d="M13.61,6.869c-0.975,0.975-0.975,2.561,0,3.535c0.473,0.473,1.1,0.732,1.767,0.732c0.668,0,1.295-0.26,1.768-0.732
			c0.974-0.975,0.974-2.561,0-3.535C16.2,5.925,14.556,5.925,13.61,6.869z"/>
		<path d="M23.293,0.72c-0.195-0.194-0.512-0.192-0.707,0.002l-1.549,1.556l-0.356-0.356c-0.566-0.568-1.555-0.568-2.121-0.001
			l-2.475,2.475l-1.05-1.049c-0.195-0.196-0.512-0.196-0.707,0c-0.195,0.194-0.195,0.511,0,0.706l2.817,2.817l2.828,2.828
			c0.098,0.098,0.226,0.146,0.354,0.146c0.128,0,0.256-0.049,0.354-0.146c0.195-0.195,0.195-0.512,0-0.707L19.62,7.93l2.475-2.475
			c0.283-0.283,0.44-0.66,0.44-1.061c0-0.4-0.156-0.777-0.44-1.06l-0.351-0.35l1.551-1.557C23.489,1.231,23.489,0.915,23.293,0.72z"
			/>
	</g>
</g>
<g id="invisible_shape">
	<rect fill="none" width="24" height="24"/>
</g>
</svg>
