<?xml version="1.0" encoding="utf-8"?>
<!-- Generator: Adobe Illustrator 19.2.0, SVG Export Plug-In . SVG Version: 6.00 Build 0)  -->
<svg version="1.1" xmlns="http://www.w3.org/2000/svg" xmlns:xlink="http://www.w3.org/1999/xlink" x="0px" y="0px" width="24px"
	 height="24px" viewBox="0 0 24 24" enable-background="new 0 0 24 24" xml:space="preserve">
<g id="Filled_Icons">
	<g>
		<path d="M20.773,6.593c-0.708-0.901-1.683-1.398-2.746-1.398c-0.777,0-1.47,0.269-2,0.702c0.86,1.027,1.308,2.357,1.223,3.702
			l-0.577,10.004c-0.071,1.246-0.63,2.354-1.482,3.149c0.365,0.165,0.798,0.259,1.312,0.259c3.629,0,5.5-8.411,5.5-12
			C22.003,9.118,21.59,7.632,20.773,6.593z"/>
		<path d="M6.756,9.592C6.672,8.264,7.113,6.94,7.963,5.915C7.428,5.484,6.727,5.224,5.948,5.224c-1.82,0-3.945,1.516-3.945,5.788
			c0,3.589,1.886,12,5.542,12c0.502,0,0.926-0.089,1.286-0.247c-0.86-0.795-1.426-1.908-1.498-3.161L6.756,9.592z"/>
		<path d="M16.252,9.537c0.074-1.17-0.344-2.329-1.147-3.182c-0.567-0.605-1.307-0.999-2.103-1.189V3.506c0-1.565-0.748-2.5-2-2.5
			h-1c-0.276,0-0.5,0.224-0.5,0.5c0,0.276,0.224,0.5,0.5,0.5h1c0.247,0,1,0,1,1.5v1.559h-0.5c-0.987,0.118-1.918,0.561-2.604,1.291
			C8.098,7.208,7.68,8.368,7.754,9.533l0.577,10.014c0.111,1.942,1.725,3.465,3.672,3.465c1.947,0,3.561-1.522,3.672-3.465
			L16.252,9.537z"/>
	</g>
</g>
<g id="invisible_shape">
	<rect fill="none" width="24" height="24"/>
</g>
</svg>
