<?xml version="1.0" encoding="utf-8"?>
<!-- Generator: Adobe Illustrator 19.2.0, SVG Export Plug-In . SVG Version: 6.00 Build 0)  -->
<svg version="1.1" xmlns="http://www.w3.org/2000/svg" xmlns:xlink="http://www.w3.org/1999/xlink" x="0px" y="0px" width="24px"
	 height="24px" viewBox="0 0 24 24" enable-background="new 0 0 24 24" xml:space="preserve">
<g id="Filled_Icons">
	<g>
		<path d="M23.5,23h-23C0.224,23,0,23.225,0,23.5C0,23.777,0.224,24,0.5,24h23c0.276,0,0.5-0.223,0.5-0.5
			C24,23.225,23.776,23,23.5,23z"/>
		<path d="M3.5,22h17c1.378,0,2.5-1.121,2.5-2.5V13v-2.5c0-0.275-0.224-0.5-0.5-0.5H20V6.5C20,6.225,19.776,6,19.5,6h-2
			C17.224,6,17,6.225,17,6.5V10h-4V6.5C13,6.225,12.776,6,12.5,6h-2C10.224,6,10,6.225,10,6.5V10H7V6.5C7,6.225,6.776,6,6.5,6h-2
			C4.224,6,4,6.225,4,6.5V10H1.5C1.224,10,1,10.225,1,10.5V13v6.5C1,20.879,2.121,22,3.5,22z M2,11h20v2c0,1.066-1.247,2-2,2
			c-0.754,0-2-0.934-2-2c0-0.275-0.224-0.5-0.5-0.5S17,12.725,17,13c0,1.212-1.237,2.25-2.25,2.25S12.5,14.212,12.5,13
			c0-0.275-0.224-0.5-0.5-0.5s-0.5,0.225-0.5,0.5c0,1.212-1.237,2.25-2.25,2.25S7,14.212,7,13c0-0.275-0.224-0.5-0.5-0.5
			S6,12.725,6,13c0,1.066-1.247,2-2,2c-0.754,0-2-0.934-2-2V11z"/>
		<path d="M5.5,5c1.102,0,2-0.897,2-2c0-0.97-1.356-2.53-1.628-2.834c-0.189-0.211-0.555-0.211-0.744,0C4.856,0.47,3.5,2.03,3.5,3
			C3.5,4.103,4.397,5,5.5,5z"/>
		<path d="M18.5,5c1.103,0,2-0.897,2-2c0-0.97-1.356-2.53-1.628-2.834c-0.19-0.211-0.555-0.211-0.744,0
			C17.855,0.47,16.5,2.03,16.5,3C16.5,4.103,17.396,5,18.5,5z"/>
		<path d="M11.5,5c1.102,0,2-0.897,2-2c0-0.97-1.356-2.53-1.628-2.834c-0.189-0.211-0.555-0.211-0.744,0C10.856,0.47,9.5,2.03,9.5,3
			C9.5,4.103,10.396,5,11.5,5z"/>
	</g>
</g>
<g id="invisible_shape">
	<rect fill="none" width="24" height="24"/>
</g>
</svg>
