<?xml version="1.0" encoding="utf-8"?>
<!-- Generator: Adobe Illustrator 19.2.0, SVG Export Plug-In . SVG Version: 6.00 Build 0)  -->
<svg version="1.1" xmlns="http://www.w3.org/2000/svg" xmlns:xlink="http://www.w3.org/1999/xlink" x="0px" y="0px" width="24px"
	 height="24px" viewBox="0 0 24 24" enable-background="new 0 0 24 24" xml:space="preserve">
<g id="Filled_Icons">
	<g>
		<path d="M22.23,13.582c0.024-0.146-0.017-0.293-0.112-0.405C22.023,13.064,21.884,13,21.737,13H3.003
			c-0.146,0-0.286,0.064-0.381,0.177c-0.096,0.112-0.137,0.26-0.112,0.405C2.957,16.296,4.496,19.119,6.488,21h11.764
			C20.244,19.119,21.783,16.296,22.23,13.582z"/>
		<path d="M20.866,12c0.003-0.227,0.004-0.421,0.004-0.5c0-6.126-3.972-11.5-8.5-11.5s-8.5,5.374-8.5,11.5
			c0,0.088,0.002,0.279,0.004,0.5H20.866z M12.37,2.626c0.276,0,0.5,0.224,0.5,0.5c0,0.276-0.224,0.5-0.5,0.5
			c-2.274,0-4.424,3.138-4.424,6.456c0,0.276-0.224,0.5-0.5,0.5s-0.5-0.224-0.5-0.5C6.946,6.563,9.266,2.626,12.37,2.626z"/>
		<path d="M16.87,22H3.883c-0.317,0.419-0.513,0.935-0.513,1.5c0,0.276,0.224,0.5,0.5,0.5h17c0.276,0,0.5-0.224,0.5-0.5
			c0-0.565-0.195-1.081-0.513-1.5H16.87z"/>
	</g>
</g>
<g id="invisible_shape">
	<rect fill="none" width="24" height="24"/>
</g>
</svg>
