<?xml version="1.0" encoding="utf-8"?>
<!-- Generator: Adobe Illustrator 19.2.0, SVG Export Plug-In . SVG Version: 6.00 Build 0)  -->
<svg version="1.1" xmlns="http://www.w3.org/2000/svg" xmlns:xlink="http://www.w3.org/1999/xlink" x="0px" y="0px" width="24px"
	 height="24px" viewBox="0 0 24 24" enable-background="new 0 0 24 24" xml:space="preserve">
<g id="Filled_Icons">
	<g>
		<path d="M17.902,20.94C17.774,20.976,17.642,21,17.503,21h-2.371l-1.513,1.513c-0.586,0.586-1.535,0.586-2.121,0
			c-0.586-0.585-0.586-1.535,0-2.121l1.505-1.505V16.5c0-0.827,0.672-1.5,1.5-1.5c0.176,0,0.343,0.036,0.5,0.093V14.5
			c0-0.827,0.672-1.5,1.5-1.5c0.164,0,0.319,0.036,0.468,0.086c0,0,0.017-0.941,0.082-0.949C17.216,11.484,17.801,11,18.503,11
			c0.176,0,0.343,0.036,0.5,0.093V10.5c0-0.827,0.672-1.5,1.5-1.5c0.272,0,0.515,0.091,0.734,0.217
			c0.482-0.903,0.766-1.958,0.766-3.117c0-3.363-2.71-6.1-6.1-6.1H6.044C2.713,0,0.003,2.736,0.003,6.1
			c0,3.276,2.173,5.792,5.141,6.075L3.808,23.442C3.772,23.729,3.996,24,4.304,24h13.398c0.008,0.001,0.016,0.001,0.02,0
			c0.358,0,0.6-0.365,0.461-0.695L17.902,20.94z"/>
		<path d="M23.503,13h-1.785l1.083-1.082c0.195-0.196,0.195-0.513,0-0.708c-0.195-0.194-0.512-0.194-0.707,0l-1.091,1.091V10.5
			c0-0.276-0.224-0.5-0.5-0.5c-0.276,0-0.5,0.224-0.5,0.5v2.801l-1,1V12.5c0-0.276-0.224-0.5-0.5-0.5c-0.276,0-0.5,0.224-0.5,0.5
			v2.801l-1,1V14.5c0-0.276-0.224-0.5-0.5-0.5c-0.276,0-0.5,0.224-0.5,0.5v2.801l-1,1V16.5c0-0.276-0.224-0.5-0.5-0.5
			c-0.276,0-0.5,0.224-0.5,0.5v2.801L12.205,21.1c-0.195,0.194-0.195,0.511,0,0.706c0.195,0.195,0.512,0.195,0.707,0L14.718,20
			h2.785c0.276,0,0.5-0.224,0.5-0.5s-0.224-0.5-0.5-0.5h-1.785l1-1h2.785c0.276,0,0.5-0.224,0.5-0.5s-0.224-0.5-0.5-0.5h-1.785l1-1
			h2.785c0.276,0,0.5-0.224,0.5-0.5s-0.224-0.5-0.5-0.5h-1.785l1-1h2.785c0.276,0,0.5-0.224,0.5-0.5S23.779,13,23.503,13z"/>
	</g>
</g>
<g id="invisible_shape">
	<rect fill="none" width="24" height="24"/>
</g>
</svg>
