<?xml version="1.0" encoding="utf-8"?>
<!-- Generator: Adobe Illustrator 19.2.0, SVG Export Plug-In . SVG Version: 6.00 Build 0)  -->
<svg version="1.1" xmlns="http://www.w3.org/2000/svg" xmlns:xlink="http://www.w3.org/1999/xlink" x="0px" y="0px" width="24px"
	 height="24px" viewBox="0 0 24 24" enable-background="new 0 0 24 24" xml:space="preserve">
<g id="Filled_Icons">
	<g>
		<path d="M0.003,22c0,1.104,0.896,2,2,2h21.5c0.276,0,0.5-0.224,0.5-0.5V20h-24V22z"/>
		<path d="M16.856,8.146c-0.002-0.001-0.005-0.002-0.007-0.004C16.946,7.777,17.003,7.396,17.003,7c0-1.689-0.938-3.162-2.318-3.932
			c0.897-1.586,2.809-2.13,4.821-1.308c0.254,0.105,0.548-0.018,0.652-0.274c0.104-0.254-0.019-0.548-0.274-0.652
			c-2.516-1.028-5.017-0.248-6.13,1.847C13.356,2.566,12.936,2.5,12.503,2.5c-1.231,0-2.348,0.498-3.161,1.303
			C4.085,4.993,0.251,9.633,0.024,15H23.71L16.856,8.146z M12.503,10.5c-1.93,0-3.5-1.569-3.5-3.5c0-1.93,1.57-3.5,3.5-3.5
			s3.5,1.57,3.5,3.5C16.003,8.931,14.433,10.5,12.503,10.5z"/>
		<rect x="0.003" y="16" width="24" height="3"/>
	</g>
</g>
<g id="invisible_shape">
	<rect fill="none" width="24" height="24"/>
</g>
</svg>
