<?xml version="1.0" encoding="utf-8"?>
<!-- Generator: Adobe Illustrator 19.2.0, SVG Export Plug-In . SVG Version: 6.00 Build 0)  -->
<svg version="1.1" xmlns="http://www.w3.org/2000/svg" xmlns:xlink="http://www.w3.org/1999/xlink" x="0px" y="0px" width="24px"
	 height="24px" viewBox="0 0 24 24" enable-background="new 0 0 24 24" xml:space="preserve">
<g id="Filled_Icons">
	<path d="M23.968,5.867c-0.098-0.259-0.388-0.39-0.644-0.293l-4.409,1.654c-0.222-0.274-0.462-0.529-0.701-0.787l4.032-4.072
		c0.194-0.196,0.192-0.514-0.004-0.708c-0.196-0.193-0.513-0.192-0.707,0.004l-4.027,4.067c-0.266-0.248-0.53-0.496-0.815-0.725
		l1.609-4.333c0.096-0.259-0.036-0.547-0.295-0.644c-0.261-0.097-0.546,0.037-0.642,0.296l-1.514,4.075
		c-0.211-0.147-0.411-0.308-0.632-0.444c-0.868-0.536-2.091-0.302-2.698,0.516l-0.758,1.03l3.675,3.674
		c0.195,0.195,0.195,0.511,0,0.707c-0.098,0.098-0.226,0.146-0.354,0.146c-0.128,0-0.256-0.049-0.353-0.146l-3.566-3.566
		L0.366,20.998c-0.547,0.734-0.475,1.738,0.172,2.385c0.345,0.345,0.804,0.535,1.291,0.535c0.396,0,0.775-0.126,1.092-0.361
		l7.345-5.402l-2.254-2.26c-0.194-0.195-0.194-0.513,0.001-0.707s0.513-0.195,0.708,0.001l2.36,2.366l3.27-2.404l-3.51-3.497
		c-0.196-0.195-0.196-0.512-0.002-0.707c0.195-0.196,0.512-0.196,0.707-0.001l3.619,3.606l4.285-3.152
		c0.849-0.635,1.067-1.795,0.509-2.701c-0.136-0.219-0.294-0.417-0.44-0.627l4.156-1.56C23.935,6.414,24.065,6.126,23.968,5.867z"/>
</g>
<g id="invisible_shape">
	<rect fill="none" width="24" height="24"/>
</g>
</svg>
