<?xml version="1.0" encoding="utf-8"?>
<!-- Generator: Adobe Illustrator 19.2.0, SVG Export Plug-In . SVG Version: 6.00 Build 0)  -->
<svg version="1.1" xmlns="http://www.w3.org/2000/svg" xmlns:xlink="http://www.w3.org/1999/xlink" x="0px" y="0px" width="24px"
	 height="24px" viewBox="0 0 24 24" enable-background="new 0 0 24 24" xml:space="preserve">
<g id="Filled_Icons">
	<g>
		<path d="M0.003,12.012v5.5c0,0.276,0.224,0.5,0.5,0.5c0.826,0,1.5,0.673,1.5,1.5c0,0.827-0.674,1.5-1.5,1.5
			c-0.276,0-0.5,0.224-0.5,0.5v2c0,0.145,0.062,0.281,0.17,0.376c0.092,0.081,0.209,0.124,0.33,0.124c0.021,0,0.043,0,0.064-0.004
			l23-3c0.249-0.032,0.435-0.244,0.435-0.496V9.016C24.003,9.016,0.023,12.012,0.003,12.012z M6.003,15.512
			c-0.827,0-1.5-0.673-1.5-1.5c0-0.827,0.673-1.5,1.5-1.5c0.826,0,1.5,0.673,1.5,1.5C7.503,14.839,6.829,15.512,6.003,15.512z
			 M11.003,20.512c-1.379,0-2.5-1.121-2.5-2.5c0-1.378,1.121-2.5,2.5-2.5c1.378,0,2.5,1.122,2.5,2.5
			C13.503,19.391,12.381,20.512,11.003,20.512z M14.003,14.512c-0.552,0-1-0.447-1-1c0-0.551,0.448-1,1-1c0.551,0,1,0.449,1,1
			C15.003,14.064,14.554,14.512,14.003,14.512z M18.003,18.012c-0.552,0-1-0.447-1-1c0-0.551,0.448-1,1-1c0.551,0,1,0.449,1,1
			C19.003,17.565,18.554,18.012,18.003,18.012z M20.003,14.512c-1.103,0-2-0.896-2-2c0-1.102,0.897-2,2-2c1.103,0,2,0.898,2,2
			C22.003,13.615,21.105,14.512,20.003,14.512z"/>
		<path d="M23.984,8.019c-0.376-5.162-6.623-8.008-10.981-8.008c-0.122,0-0.24,0.045-0.33,0.125L0.371,10.963L23.94,8.016
			C23.956,8.015,23.97,8.019,23.984,8.019z"/>
	</g>
</g>
<g id="invisible_shape">
	<rect fill="none" width="24" height="24"/>
</g>
</svg>
