<?xml version="1.0" encoding="utf-8"?>
<!-- Generator: Adobe Illustrator 19.2.0, SVG Export Plug-In . SVG Version: 6.00 Build 0)  -->
<svg version="1.1" xmlns="http://www.w3.org/2000/svg" xmlns:xlink="http://www.w3.org/1999/xlink" x="0px" y="0px" width="24px"
	 height="24px" viewBox="0 0 24 24" enable-background="new 0 0 24 24" xml:space="preserve">
<g id="Filled_Icons">
	<g>
		<path d="M21.503,16h-19c-1.565,0-2.5,0.748-2.5,2c0,1.253,0.935,2,2.5,2h19c1.566,0,2.5-0.747,2.5-2
			C24.003,16.748,23.068,16,21.503,16z M21.28,17.916l-3,1.5c-0.084,0.056-0.18,0.084-0.277,0.084c-0.054,0-0.107-0.007-0.158-0.024
			l-6-1.5c-0.232-0.078-0.375-0.313-0.336-0.556c0.04-0.241,0.249-0.42,0.494-0.42h9c0.22,0,0.414,0.145,0.479,0.355
			C21.545,17.566,21.463,17.795,21.28,17.916z"/>
		<path d="M21.503,21.006h-19c-0.276,0-0.5,0.225-0.5,0.5v0.5c0,1.253,0.935,2,2.5,1.994h15c1.566,0.006,2.5-0.741,2.5-1.994v-0.5
			C22.003,21.231,21.778,21.006,21.503,21.006z"/>
		<path d="M24.003,10c0-1.157-1.33-1.693-2.02-1.894C21.777,2.89,17.563,0,12.003,0c-5.561,0-9.775,2.89-9.98,8.106
			c-0.691,0.2-2.02,0.736-2.02,1.894c0,0.473,0.133,0.873,0.382,1.188c-0.238,0.383-0.382,0.83-0.382,1.313
			c0,1.379,1.121,2.5,2.5,2.5h19c1.378,0,2.5-1.121,2.5-2.5c0-0.482-0.144-0.93-0.383-1.313C23.87,10.873,24.003,10.473,24.003,10z
			 M17.003,3c0.275,0,0.5,0.226,0.5,0.5c0,0.276-0.225,0.5-0.5,0.5c-0.276,0-0.5-0.224-0.5-0.5C16.503,3.226,16.727,3,17.003,3z
			 M14.503,2c0.275,0,0.5,0.226,0.5,0.5c0,0.276-0.225,0.5-0.5,0.5c-0.276,0-0.5-0.224-0.5-0.5C14.003,2.226,14.227,2,14.503,2z
			 M12.003,3c0.275,0,0.5,0.226,0.5,0.5c0,0.276-0.225,0.5-0.5,0.5c-0.276,0-0.5-0.224-0.5-0.5C11.503,3.226,11.727,3,12.003,3z
			 M9.503,2c0.275,0,0.5,0.226,0.5,0.5c0,0.276-0.225,0.5-0.5,0.5c-0.276,0-0.5-0.224-0.5-0.5C9.003,2.226,9.227,2,9.503,2z
			 M7.003,3c0.275,0,0.5,0.226,0.5,0.5c0,0.276-0.225,0.5-0.5,0.5c-0.276,0-0.5-0.224-0.5-0.5C6.503,3.226,6.727,3,7.003,3z
			 M21.503,11c-0.463,0-0.928-0.146-1.156-0.362c-0.112-0.106-0.268-0.155-0.42-0.131c-0.153,0.023-0.286,0.117-0.361,0.252
			C19.251,11.325,18.639,12,17.503,12c-1.065,0-1.676-0.358-2.042-1.199c-0.079-0.182-0.259-0.301-0.458-0.301
			s-0.379,0.119-0.459,0.301C14.158,11.686,12.979,12,12.003,12c-0.977,0-2.156-0.314-2.542-1.199
			C9.382,10.619,9.202,10.5,9.003,10.5s-0.379,0.119-0.459,0.301C8.178,11.642,7.566,12,6.503,12c-1.138,0-1.749-0.675-2.063-1.241
			c-0.075-0.135-0.208-0.229-0.361-0.252c-0.155-0.024-0.309,0.024-0.421,0.131C3.43,10.854,2.965,11,2.503,11
			c-1.5,0-1.5-0.752-1.5-1c0-0.5,1.033-0.885,1.552-1h18.896c0.517,0.115,1.552,0.5,1.552,1C23.003,10.248,23.003,11,21.503,11z"/>
	</g>
</g>
<g id="invisible_shape">
	<rect fill="none" width="24" height="24"/>
</g>
</svg>
