<?xml version="1.0" encoding="utf-8"?>
<!-- Generator: Adobe Illustrator 19.2.0, SVG Export Plug-In . SVG Version: 6.00 Build 0)  -->
<svg version="1.1" xmlns="http://www.w3.org/2000/svg" xmlns:xlink="http://www.w3.org/1999/xlink" x="0px" y="0px" width="24px"
	 height="24px" viewBox="0 0 24 24" enable-background="new 0 0 24 24" xml:space="preserve">
<g id="Filled_Icons">
	<path d="M17.11,11.594c-0.898-3.668-0.795-7.433,0.243-10.952c0.06-0.201-0.013-0.417-0.18-0.542s-0.396-0.133-0.57-0.021
		c-4.231,2.725-7.401,6.83-8.978,11.58C4.731,12.084,2.5,14.577,2.5,17.588c0,3.309,2.691,6,6,6s6-2.691,6-6
		c0-3.238-2.58-5.879-5.792-5.989c1.398-3.957,3.957-7.428,7.343-9.924c-0.737,3.23-0.748,6.62,0.049,9.984
		c-0.938,0.144-1.82,0.506-2.586,1.054c1.227,1.262,1.986,2.981,1.986,4.875s-0.76,3.612-1.986,4.874
		c1.007,0.723,2.217,1.126,3.486,1.126c3.309,0,6-2.691,6-6C23,14.316,20.367,11.652,17.11,11.594z"/>
</g>
<g id="invisible_shape">
	<rect fill="none" width="24" height="24"/>
</g>
</svg>
