<?xml version="1.0" encoding="utf-8"?>
<!-- Generator: Adobe Illustrator 19.2.0, SVG Export Plug-In . SVG Version: 6.00 Build 0)  -->
<svg version="1.1" xmlns="http://www.w3.org/2000/svg" xmlns:xlink="http://www.w3.org/1999/xlink" x="0px" y="0px" width="24px"
	 height="24px" viewBox="0 0 24 24" enable-background="new 0 0 24 24" xml:space="preserve">
<g id="Filled_Icons">
	<g>
		<path d="M9.734,17.093l-2.828-2.829l-1.488,1.488c-0.744-0.818-1.627-1.263-2.532-1.263c-1.143,0-2.214,0.731-2.664,1.818
			c-0.461,1.112-0.188,2.323,0.729,3.24c0.814,0.815,1.935,0.951,2.637,0.928c-0.026,0.695,0.084,1.793,0.883,2.592
			c0.617,0.618,1.357,0.944,2.142,0.944c1.245,0,2.387-0.837,2.775-2.036c0.38-1.174-0.044-2.412-1.139-3.397L9.734,17.093z"/>
		<path d="M21.829,2.242c-1.392-1.392-2.914-2.097-4.525-2.097c-4.408,0-8.186,5.258-9.65,8.792
			c-0.51,1.231-1.232,3.427-0.345,4.314l3.535,3.535c0.241,0.242,0.615,0.363,1.112,0.363c2.748,0,9.652-3.666,11.488-8.099
			C24.44,6.649,23.881,4.295,21.829,2.242z"/>
	</g>
</g>
<g id="invisible_shape">
	<rect fill="none" width="24" height="24"/>
</g>
</svg>
