<?xml version="1.0" encoding="utf-8"?>
<!-- Generator: Adobe Illustrator 19.2.0, SVG Export Plug-In . SVG Version: 6.00 Build 0)  -->
<svg version="1.1" xmlns="http://www.w3.org/2000/svg" xmlns:xlink="http://www.w3.org/1999/xlink" x="0px" y="0px" width="24px"
	 height="24px" viewBox="0 0 24 24" enable-background="new 0 0 24 24" xml:space="preserve">
<g id="Filled_Icons">
	<g>
		<path d="M22.86,0.8c-0.221-0.167-0.534-0.125-0.7,0.095L18.983,5.07c-0.359-0.168-0.734-0.279-1.133-0.279
			c-1.383,0-2.693,1.036-3.568,1.929c2.866-0.15,4.715,1.107,5.376,3.557c0.506-0.954,1.002-2.235,0.806-3.356
			c-0.089-0.507-0.313-0.934-0.652-1.287L22.955,1.5C23.123,1.28,23.08,0.967,22.86,0.8z"/>
		<path d="M18.867,11.318C18.48,8.53,16.72,7.326,13.551,7.774c-2.158,0.308-3.879,3.839-5.398,6.954
			c-0.625,1.283-1.221,2.504-1.754,3.301l2.382,1.189c0.247,0.124,0.347,0.424,0.224,0.671c-0.088,0.175-0.265,0.276-0.447,0.276
			c-0.075,0-0.151-0.018-0.224-0.053l-2.51-1.253l0.708,2.149c0.087,0.262-0.056,0.545-0.318,0.632
			c-0.052,0.017-0.105,0.024-0.156,0.024c-0.21,0-0.405-0.133-0.475-0.344l-0.611-1.858c-1.211,0.767-2.464,0.664-3.34,0.618
			C1.285,20.063,1,20.049,0.764,20.074c-0.306,0.033-0.57,0.229-0.69,0.508c-0.123,0.279-0.085,0.605,0.1,0.852
			C0.89,22.387,2.977,24,6.259,24c3.093,0,6.77-2.956,9.179-5.723C17.271,16.172,19.134,13.238,18.867,11.318z"/>
	</g>
</g>
<g id="invisible_shape">
	<rect fill="none" width="24" height="24"/>
</g>
</svg>
