<?xml version="1.0" encoding="utf-8"?>
<!-- Generator: Adobe Illustrator 19.2.0, SVG Export Plug-In . SVG Version: 6.00 Build 0)  -->
<svg version="1.1" xmlns="http://www.w3.org/2000/svg" xmlns:xlink="http://www.w3.org/1999/xlink" x="0px" y="0px" width="24px"
	 height="24px" viewBox="0 0 24 24" enable-background="new 0 0 24 24" xml:space="preserve">
<g id="Filled_Icons">
	<g>
		<path d="M12,3c-4.963,0-9,4.038-9,9c0,4.963,4.037,9,9,9s9-4.037,9-9C21,7.038,16.963,3,12,3z M6.997,7.103
			C7.505,6.586,8.252,6.377,8.955,6.56c0.703,0.185,1.254,0.73,1.444,1.432l0.886,3.31l-3.506-0.867
			c-0.655-0.229-1.148-0.775-1.307-1.449C6.314,8.309,6.512,7.6,6.997,7.103z M10.418,16.215c-0.229,0.654-0.778,1.145-1.454,1.301
			c-0.676,0.156-1.384-0.044-1.878-0.529c-0.517-0.511-0.722-1.26-0.536-1.962c0.186-0.702,0.733-1.251,1.436-1.438l3.313-0.874
			L10.418,16.215z M13.612,7.796c0.234-0.652,0.787-1.139,1.464-1.29c0.676-0.152,1.384,0.054,1.873,0.545
			c0.515,0.513,0.714,1.262,0.523,1.965c-0.191,0.699-0.742,1.244-1.445,1.427l-3.319,0.851L13.612,7.796z M16.968,16.932
			c-0.513,0.516-1.261,0.719-1.963,0.529c-0.701-0.188-1.248-0.738-1.434-1.441l-0.861-3.315l3.499,0.893
			c0.653,0.232,1.143,0.783,1.296,1.459C17.658,15.732,17.456,16.44,16.968,16.932z"/>
		<path d="M12,0C5.383,0,0,5.384,0,12c0,6.617,5.383,12,12,12s12-5.383,12-12C24,5.384,18.617,0,12,0z M12,22
			C6.486,22,2,17.515,2,12C2,6.486,6.486,2,12,2s10,4.486,10,10C22,17.515,17.514,22,12,22z"/>
	</g>
</g>
<g id="invisible_shape">
	<rect fill="none" width="24" height="24"/>
</g>
</svg>
