<?xml version="1.0" encoding="utf-8"?>
<!-- Generator: Adobe Illustrator 19.2.0, SVG Export Plug-In . SVG Version: 6.00 Build 0)  -->
<svg version="1.1" xmlns="http://www.w3.org/2000/svg" xmlns:xlink="http://www.w3.org/1999/xlink" x="0px" y="0px" width="24px"
	 height="24px" viewBox="0 0 24 24" enable-background="new 0 0 24 24" xml:space="preserve">
<g id="Filled_Icons">
	<path d="M22.479,6.19c-0.066-0.118-0.177-0.204-0.308-0.238c-0.13-0.037-0.271-0.016-0.386,0.054
		c-0.561,0.336-1.16,0.506-1.782,0.506c-1.482,0-2.806-0.95-3.294-2.365c-0.051-0.149-0.168-0.264-0.316-0.313
		c-0.147-0.049-0.311-0.026-0.439,0.063c-0.586,0.402-1.26,0.615-1.95,0.615c-1.93,0-3.5-1.57-3.5-3.5
		c0-0.313,0.123-0.457-0.131-0.689C10.258,0.219,10.1,0.173,9.95,0.198C4.187,1.195,0.003,6.164,0.003,12.012
		c0,6.617,5.383,12,12,12s12-5.383,12-12C24.003,9.987,23.476,7.975,22.479,6.19z M4.003,14.012c-0.552,0-1-0.448-1-1
		c0-0.551,0.448-1,1-1c0.552,0,1,0.449,1,1C5.003,13.564,4.555,14.012,4.003,14.012z M5.503,9.012c0-1.378,1.121-2.5,2.5-2.5
		s2.5,1.122,2.5,2.5c0,1.379-1.121,2.5-2.5,2.5S5.503,10.391,5.503,9.012z M9.003,19.512c-1.379,0-2.5-1.121-2.5-2.5
		c0-1.378,1.121-2.5,2.5-2.5s2.5,1.122,2.5,2.5C11.503,18.391,10.382,19.512,9.003,19.512z M15.003,20.012c-0.552,0-1-0.448-1-1
		c0-0.551,0.448-1,1-1c0.552,0,1,0.449,1,1C16.003,19.563,15.555,20.012,15.003,20.012z M15.003,15.512c-0.827,0-1.5-0.673-1.5-1.5
		c0-0.827,0.673-1.5,1.5-1.5c0.827,0,1.5,0.673,1.5,1.5C16.503,14.839,15.83,15.512,15.003,15.512z M16.003,11.012
		c-0.552,0-1-0.448-1-1c0-0.551,0.448-1,1-1c0.552,0,1,0.449,1,1C17.003,10.564,16.555,11.012,16.003,11.012z"/>
</g>
<g id="invisible_shape">
	<rect fill="none" width="24" height="24"/>
</g>
</svg>
