<?xml version="1.0" encoding="utf-8"?>
<!-- Generator: Adobe Illustrator 19.2.0, SVG Export Plug-In . SVG Version: 6.00 Build 0)  -->
<svg version="1.1" xmlns="http://www.w3.org/2000/svg" xmlns:xlink="http://www.w3.org/1999/xlink" x="0px" y="0px" width="24px"
	 height="24px" viewBox="0 0 24 24" enable-background="new 0 0 24 24" xml:space="preserve">
<g id="Filled_Icons">
	<g>
		<g>
			<polygon points="10,13 8.594,13 10,14.78 			"/>
			<polygon points="14,13 14,14.38 15.379,13 			"/>
			<polygon points="13,13 11,13 11,16.047 11.588,16.791 13,15.38 			"/>
			<path d="M14,9v3h2.379c0.113-0.113,0.363-0.338,0.434-0.479L16.619,9H14z"/>
			<path d="M10,9H7.385l-0.174,2.269C7.467,11.564,7.542,11.668,7.805,12H10V9z"/>
			<rect x="11" y="9" width="2" height="3"/>
			<polygon points="14,8 16.542,8 16.312,5 14,5 			"/>
			<path d="M11,4h2V0.135C12.677,0.055,12.346,0,12,0s-0.677,0.056-1,0.135V4z"/>
			<path d="M10,4V0.523C8.756,1.197,7.869,2.46,7.769,3.954L7.766,4H10z"/>
			<rect x="11" y="5" width="2" height="3"/>
			<path d="M14,4h2.234l-0.003-0.041C16.131,2.461,15.244,1.197,14,0.524V4z"/>
			<polygon points="7.461,8 10,8 10,5 7.689,5 			"/>
		</g>
		<path d="M20.339,13.208l-0.341-3.753c-0.02-0.223-0.185-0.404-0.405-0.445c-0.224-0.043-0.441,0.067-0.54,0.267l-1.464,2.927
			l-5.377,5.378l1.966,2.489c0.146,0.185,0.247,0.403,0.293,0.635l0.453,2.265c0.063,0.164,0.096,0.343,0.096,0.529
			c0,0.021-0.006,0.042-0.006,0.063c0.491-0.276,0.921-0.664,1.178-1.101l3.35-5.694C20.086,15.841,20.437,14.277,20.339,13.208z"/>
		<path d="M13.964,23.27l-0.474-2.367c-0.016-0.077-0.049-0.149-0.098-0.212l-6.881-8.714c-0.409-0.521-1.242-1.032-1.895-1.162
			l-4.019-0.804c-0.214-0.044-0.435,0.06-0.538,0.255c-0.104,0.193-0.069,0.433,0.087,0.588l1.458,1.458l5.409,8.886
			C7.969,22.77,10.159,24,12,24h1.5c0.007,0.001,0.015,0.002,0.019,0c0.276,0,0.5-0.224,0.5-0.5
			C14.019,23.418,14,23.339,13.964,23.27z"/>
	</g>
</g>
<g id="invisible_shape">
	<rect fill="none" width="24" height="24"/>
</g>
</svg>
