<?xml version="1.0" encoding="utf-8"?>
<!-- Generator: Adobe Illustrator 19.2.0, SVG Export Plug-In . SVG Version: 6.00 Build 0)  -->
<svg version="1.1" xmlns="http://www.w3.org/2000/svg" xmlns:xlink="http://www.w3.org/1999/xlink" x="0px" y="0px" width="24px"
	 height="24px" viewBox="0 0 24 24" enable-background="new 0 0 24 24" xml:space="preserve">
<g id="Filled_Icons">
	<path d="M23.803,18.748c-0.075-0.121-1.725-2.726-4.247-3.17c0.027-0.066,0.056-0.131,0.083-0.196
		c0.264-0.626,0.527-1.251,0.816-1.864c0.106-0.226,0.03-0.495-0.178-0.632c-0.355-0.233-0.729-0.444-1.111-0.646
		c1.14-0.642,3.188-2.172,3.613-5.051c0.002-0.014-0.003-0.025-0.002-0.039c0.227-0.869,0.016-1.857-0.653-2.824
		c-1.215-1.758-3.501-2.986-5.559-2.986c-1.328,0-2.521,0.497-3.447,1.437c-0.121,0.123-0.171,0.302-0.129,0.47
		c0.041,0.169,0.167,0.304,0.332,0.357c0.023,0.008,1.951,0.641,3.093,1.922c-0.115,0.004-0.235,0.006-0.361,0.006
		c-0.887,0-1.719-0.093-1.728-0.094c-0.18-0.021-0.358,0.06-0.464,0.209c-0.104,0.147-0.121,0.341-0.042,0.505
		c0.885,1.839,3.357,3.279,5.628,3.279h0.001c0.59,0,1.124-0.103,1.589-0.294c-1.09,1.793-2.892,2.505-2.992,2.544
		c-0.014,0.005-0.022,0.017-0.035,0.021c-1.848-0.766-3.91-1.183-6.014-1.183c-2.146,0-4.248,0.433-6.117,1.227
		c-0.028-0.011-1.834-0.772-2.922-2.614C3.424,9.328,3.964,9.431,4.56,9.431c2.271,0,4.743-1.441,5.628-3.279
		c0.079-0.164,0.063-0.358-0.042-0.505C10.04,5.498,9.862,5.418,9.682,5.438c-0.01,0.001-1.153,0.119-2.088,0.088
		c1.141-1.277,3.069-1.915,3.092-1.923c0.165-0.053,0.291-0.188,0.332-0.356s-0.008-0.347-0.129-0.47
		C9.962,1.837,8.769,1.34,7.441,1.34c-2.059,0-4.345,1.229-5.56,2.986C1.213,5.294,1.002,6.281,1.229,7.15
		C1.23,7.164,1.225,7.176,1.227,7.189c0.424,2.869,2.413,4.43,3.523,5.093c-0.352,0.189-0.694,0.388-1.023,0.604
		c-0.209,0.138-0.283,0.409-0.175,0.634c0.299,0.621,0.57,1.257,0.843,1.894c0.023,0.055,0.047,0.109,0.07,0.164
		c-2.521,0.446-4.185,3.047-4.262,3.168c-0.146,0.234-0.075,0.543,0.158,0.689c0.083,0.052,0.175,0.076,0.266,0.076
		c0.166,0,0.329-0.082,0.424-0.234c0.017-0.026,1.611-2.523,3.827-2.748c0.195,0.436,0.4,0.873,0.62,1.306
		c-2.484,0.466-3.96,3.063-4.027,3.185c-0.134,0.242-0.047,0.545,0.194,0.679c0.077,0.043,0.16,0.063,0.242,0.063
		c0.176,0,0.347-0.093,0.438-0.257c0.015-0.026,1.456-2.551,3.668-2.732c0.272,0.461,0.572,0.913,0.911,1.352
		c-2.4,0.562-4.07,2.99-4.148,3.107c-0.155,0.228-0.095,0.539,0.135,0.695c0.085,0.057,0.183,0.084,0.279,0.084
		c0.16,0,0.318-0.077,0.414-0.22c0.018-0.027,1.803-2.624,4.097-2.771c0.795,0.825,1.772,1.583,3.027,2.229
		c0.07,0.036,0.149,0.055,0.228,0.055h2.102c0.078,0,0.154-0.018,0.224-0.053c1.274-0.638,2.263-1.396,3.065-2.23
		c2.28,0.146,4.034,2.741,4.052,2.768c0.097,0.145,0.255,0.224,0.417,0.224c0.095,0,0.191-0.027,0.275-0.083
		c0.231-0.151,0.294-0.462,0.142-0.692c-0.077-0.116-1.715-2.551-4.112-3.112c0.337-0.436,0.635-0.888,0.904-1.349
		c2.193,0.203,3.621,2.703,3.636,2.729c0.091,0.164,0.262,0.257,0.438,0.257c0.082,0,0.165-0.021,0.242-0.063
		c0.241-0.134,0.328-0.438,0.194-0.679c-0.067-0.121-1.533-2.7-4.002-3.18c0.219-0.434,0.423-0.871,0.616-1.31
		c2.203,0.226,3.788,2.72,3.805,2.747c0.095,0.151,0.258,0.235,0.426,0.235c0.09,0,0.181-0.024,0.263-0.075
		C23.876,19.291,23.948,18.983,23.803,18.748z M9.878,16.083c-0.069,0.032-0.142,0.048-0.214,0.048
		c-0.188,0-0.367-0.105-0.452-0.286l-0.853-1.809c-0.118-0.25-0.011-0.548,0.238-0.666c0.25-0.116,0.549-0.012,0.666,0.239
		l0.854,1.809C10.234,15.667,10.127,15.966,9.878,16.083z M12.503,15.304c0,0.276-0.224,0.5-0.5,0.5c-0.276,0-0.5-0.224-0.5-0.5v-2
		c0-0.276,0.224-0.5,0.5-0.5c0.276,0,0.5,0.224,0.5,0.5V15.304z M14.763,15.845c-0.085,0.181-0.265,0.286-0.452,0.286
		c-0.072,0-0.144-0.016-0.214-0.048c-0.249-0.117-0.356-0.416-0.238-0.665l0.853-1.809c0.118-0.251,0.417-0.356,0.666-0.239
		c0.249,0.118,0.356,0.416,0.238,0.666L14.763,15.845z"/>
</g>
<g id="invisible_shape">
	<rect fill="none" width="24" height="24"/>
</g>
</svg>
