<?xml version="1.0" encoding="utf-8"?>
<!-- Generator: Adobe Illustrator 19.2.0, SVG Export Plug-In . SVG Version: 6.00 Build 0)  -->
<svg version="1.1" xmlns="http://www.w3.org/2000/svg" xmlns:xlink="http://www.w3.org/1999/xlink" x="0px" y="0px" width="24px"
	 height="24px" viewBox="0 0 24 24" enable-background="new 0 0 24 24" xml:space="preserve">
<g id="Filled_Icons">
	<g>
		<g>
			<path d="M10.579,23.994h2.867l0.747-5.454c-1.34,0.59-2.958,0.599-4.333-0.009L10.579,23.994z"/>
			<path d="M18.003,19.118c-0.976,0-1.931-0.313-2.763-0.852l-0.785,5.728h3.048c0.224,0,0.42-0.147,0.481-0.362l1.343-4.7
				C18.904,19.041,18.468,19.118,18.003,19.118z"/>
			<path d="M8.804,18.177c-0.826,0.527-1.785,0.824-2.801,0.824c-0.48,0-0.927-0.076-1.356-0.186l1.376,4.816
				c0.061,0.215,0.257,0.362,0.48,0.362H9.57L8.804,18.177z"/>
		</g>
		<path d="M16.423,7.782c-0.375,2.106-2.208,3.712-4.42,3.712c-2.221,0-4.059-1.621-4.423-3.739
			c-3.383,1.191-5.577,3.592-5.577,6.242c0,2.357,1.645,4.004,4,4.004c1.143,0,2.206-0.448,2.999-1.246
			c0.799,0.813,1.864,1.27,3.001,1.27c1.149,0,2.212-0.439,2.997-1.223c0.811,0.833,1.897,1.316,3.003,1.316
			c2.329,0,4.02-1.734,4.02-4.124C22.022,11.371,19.823,8.987,16.423,7.782z"/>
		<path d="M12.548,3.55c0.211-1.167,1.228-2.056,2.455-2.056c0.276,0,0.5-0.224,0.5-0.5c0-0.276-0.224-0.5-0.5-0.5
			c-1.774,0-3.229,1.332-3.454,3.046C9.835,3.765,8.503,5.22,8.503,6.994c0,1.93,1.57,3.5,3.5,3.5s3.5-1.57,3.5-3.5
			C15.503,5.251,14.218,3.813,12.548,3.55z"/>
	</g>
</g>
<g id="invisible_shape">
	<rect fill="none" width="24" height="24"/>
</g>
</svg>
