<?xml version="1.0" encoding="utf-8"?>
<!-- Generator: Adobe Illustrator 19.2.0, SVG Export Plug-In . SVG Version: 6.00 Build 0)  -->
<svg version="1.1" xmlns="http://www.w3.org/2000/svg" xmlns:xlink="http://www.w3.org/1999/xlink" x="0px" y="0px" width="24px"
	 height="24px" viewBox="0 0 24 24" enable-background="new 0 0 24 24" xml:space="preserve">
<g id="Filled_Icons">
	<g>
		<path d="M20.719,1.512H20.5c-0.276,0-0.5,0.223-0.5,0.5v20.5c0,0.276,0.224,0.5,0.5,0.5s0.5-0.224,0.5-0.5V16h2.5
			c0.276,0,0.5-0.224,0.5-0.5C24,8.543,22.873,1.512,20.719,1.512z"/>
		<path d="M7,7.012v-4c0-0.277-0.224-0.5-0.5-0.5S6,2.735,6,3.012v4C6,8.22,5.14,9.229,4,9.461V3.012c0-0.277-0.224-0.5-0.5-0.5
			S3,2.735,3,3.012v6.449C1.86,9.229,1,8.22,1,7.012v-4c0-0.277-0.224-0.5-0.5-0.5S0,2.735,0,3.012v4c0,1.758,1.309,3.205,3,3.449
			v12.051c0,0.276,0.224,0.5,0.5,0.5s0.5-0.224,0.5-0.5V10.461C5.691,10.217,7,8.771,7,7.012z"/>
		<path d="M12,9.012c-3.859,0-7,3.14-7,7s3.141,7,7,7s7-3.14,7-7S15.859,9.012,12,9.012z M12.292,19.901
			c-0.087,0.063-0.189,0.095-0.292,0.095s-0.205-0.031-0.292-0.095c-0.366-0.263-3.578-2.634-3.578-4.63
			c0-1.466,1.102-2.342,2.168-2.342c0.571,0,1.231,0.256,1.702,0.913c0.471-0.657,1.131-0.913,1.702-0.913
			c1.066,0,2.168,0.876,2.168,2.342C15.87,17.268,12.658,19.639,12.292,19.901z"/>
	</g>
</g>
<g id="invisible_shape">
	<rect fill="none" width="24" height="24"/>
</g>
</svg>
