<?xml version="1.0" encoding="utf-8"?>
<!-- Generator: Adobe Illustrator 19.2.0, SVG Export Plug-In . SVG Version: 6.00 Build 0)  -->
<svg version="1.1" xmlns="http://www.w3.org/2000/svg" xmlns:xlink="http://www.w3.org/1999/xlink" x="0px" y="0px" width="24px"
	 height="24px" viewBox="0 0 24 24" enable-background="new 0 0 24 24" xml:space="preserve">
<g id="Filled_Icons">
	<g>
		<path d="M16.907,7.962c-2.117-1.471-4.117-2.859-4.422-4.083C12.43,3.656,12.229,3.5,12,3.5s-0.43,0.156-0.485,0.379
			C11.21,5.102,9.21,6.491,7.094,7.961C3.769,10.271,0,12.888,0,16.5C0,21.477,4.037,24,12,24s12-2.523,12-7.5
			C24,12.888,20.231,10.271,16.907,7.962z M10.365,10.215c-0.785,0.842-1.679,1.582-2.656,2.201
			c-0.234,0.148-0.543,0.078-0.69-0.154c-0.148-0.233-0.079-0.542,0.154-0.689c0.905-0.574,1.733-1.261,2.461-2.039
			c0.189-0.202,0.506-0.212,0.706-0.024C10.543,9.697,10.554,10.014,10.365,10.215z M12.777,12.916
			c-0.227,0.152-0.538,0.094-0.693-0.139c-1.123-1.684-0.582-3.364-0.559-3.436c0.088-0.262,0.373-0.401,0.633-0.316
			c0.261,0.087,0.402,0.369,0.317,0.63c-0.019,0.056-0.402,1.304,0.44,2.567C13.069,12.452,13.007,12.763,12.777,12.916z
			 M16.98,12.262c-0.146,0.232-0.455,0.303-0.689,0.154c-0.977-0.619-1.871-1.359-2.656-2.201c-0.189-0.201-0.178-0.517,0.024-0.706
			c0.201-0.188,0.518-0.178,0.706,0.024c0.728,0.778,1.556,1.465,2.461,2.039C17.06,11.72,17.129,12.028,16.98,12.262z"/>
		<path d="M5.671,4.647c-0.195,0.195-0.195,0.512,0,0.707s0.512,0.195,0.707,0c1.156-1.156,0.449-2.093,0.026-2.652
			C5.967,2.12,5.785,1.88,6.353,1.311c0.195-0.195,0.195-0.512,0-0.707s-0.512-0.195-0.707,0c-1.184,1.184-0.468,2.132-0.04,2.699
			C6.047,3.887,6.212,4.106,5.671,4.647z"/>
		<path d="M17.618,5.353c0.195,0.195,0.512,0.195,0.707,0c0.195-0.195,0.195-0.512,0-0.707c-0.541-0.541-0.376-0.76,0.064-1.343
			c0.428-0.567,1.144-1.516-0.04-2.699c-0.195-0.195-0.512-0.195-0.707,0c-0.195,0.195-0.195,0.512,0,0.707
			c0.568,0.568,0.387,0.809-0.051,1.39C17.169,3.261,16.462,4.197,17.618,5.353z"/>
	</g>
</g>
<g id="invisible_shape">
	<rect fill="none" width="24" height="24"/>
</g>
</svg>
