<?xml version="1.0" encoding="utf-8"?>
<!-- Generator: Adobe Illustrator 19.2.0, SVG Export Plug-In . SVG Version: 6.00 Build 0)  -->
<svg version="1.1" xmlns="http://www.w3.org/2000/svg" xmlns:xlink="http://www.w3.org/1999/xlink" x="0px" y="0px" width="24px"
	 height="24px" viewBox="0 0 24 24" enable-background="new 0 0 24 24" xml:space="preserve">
<g id="Filled_Icons">
	<g>
		<path d="M10.911,0.324c-4.6,0-8.755,1.861-10.106,4.525c-1.578,3.115-0.597,4.979,0.89,7.801c0.968,1.838,2.173,4.125,3.116,7.558
			c0.664,2.417,2.648,3.804,5.445,3.804c0,0,0,0,0.001,0c2.75,0,5.837-1.321,8.258-3.533c2.759-2.521,4.278-5.861,4.278-9.403
			C22.793,3.14,16.393,0.324,10.911,0.324z M9.793,13.075c-2.757,0-5-2.243-5-5s2.243-5,5-5c2.757,0,5,2.243,5,5
			S12.55,13.075,9.793,13.075z"/>
		<g>
			<path d="M7.249,9.307c-0.159,0-0.317-0.076-0.414-0.219c-0.281-0.415-0.43-0.9-0.43-1.404c0-1.378,1.121-2.5,2.5-2.5
				c0.49,0,0.965,0.143,1.373,0.411c0.23,0.151,0.294,0.462,0.143,0.692C10.267,6.518,9.957,6.581,9.727,6.43
				C9.483,6.269,9.199,6.184,8.905,6.184c-0.827,0-1.5,0.673-1.5,1.5c0,0.303,0.089,0.595,0.258,0.844
				C7.817,8.755,7.759,9.065,7.53,9.221C7.444,9.279,7.346,9.307,7.249,9.307z"/>
		</g>
	</g>
</g>
<g id="invisible_shape">
	<rect fill="none" width="24" height="24"/>
</g>
</svg>
