<?xml version="1.0" encoding="utf-8"?>
<!-- Generator: Adobe Illustrator 19.2.0, SVG Export Plug-In . SVG Version: 6.00 Build 0)  -->
<svg version="1.1" xmlns="http://www.w3.org/2000/svg" xmlns:xlink="http://www.w3.org/1999/xlink" x="0px" y="0px" width="24px"
	 height="24px" viewBox="0 0 24 24" enable-background="new 0 0 24 24" xml:space="preserve">
<g id="Filled_Icons">
	<g>
		<g>
			<path d="M7,21.234C6.37,20.669,6,19.851,6,19s0.37-1.669,1-2.234V16.5c0-3.032,2.468-5.5,5.5-5.5h0.066l0.43-3.438
				C13.033,7.264,12.802,7,12.5,7H6.846l0.622-5.328c0.044-0.431,0.16-0.766,0.612-0.658l4.304,1.025
				c0.272,0.068,0.538-0.103,0.603-0.37c0.064-0.268-0.102-0.539-0.37-0.602L8.311,0.041c-0.99-0.238-1.916,0.563-1.844,1.566
				L5.838,7H0.5C0.198,7-0.033,7.264,0.004,7.563l2,16C2.035,23.813,2.248,24,2.5,24h5.559C7.407,23.363,7,22.479,7,21.5V21.234z"/>
		</g>
		<path d="M22,17H9c-1.102,0-2,0.897-2,2s0.898,2,2,2h13c1.103,0,2-0.897,2-2S23.103,17,22,17z"/>
		<path d="M8.051,22c0.232,1.141,1.241,2,2.449,2h10c1.208,0,2.217-0.859,2.449-2H8.051z"/>
		<path d="M18.5,12h-6c-2.311,0-4.197,1.756-4.449,4h14.898C22.697,13.756,20.81,12,18.5,12z M13.5,14c-0.276,0-0.5-0.225-0.5-0.5
			c0-0.277,0.224-0.5,0.5-0.5s0.5,0.223,0.5,0.5C14,13.775,13.776,14,13.5,14z M15.5,15c-0.276,0-0.5-0.225-0.5-0.5
			c0-0.277,0.224-0.5,0.5-0.5s0.5,0.223,0.5,0.5C16,14.775,15.776,15,15.5,15z M17.5,14c-0.276,0-0.5-0.225-0.5-0.5
			c0-0.277,0.224-0.5,0.5-0.5s0.5,0.223,0.5,0.5C18,13.775,17.776,14,17.5,14z"/>
	</g>
</g>
<g id="invisible_shape">
	<rect fill="none" width="24" height="24"/>
</g>
</svg>
