<?xml version="1.0" encoding="utf-8"?>
<!-- Generator: Adobe Illustrator 19.2.0, SVG Export Plug-In . SVG Version: 6.00 Build 0)  -->
<svg version="1.1" xmlns="http://www.w3.org/2000/svg" xmlns:xlink="http://www.w3.org/1999/xlink" x="0px" y="0px" width="24px"
	 height="24px" viewBox="0 0 24 24" enable-background="new 0 0 24 24" xml:space="preserve">
<g id="Filled_Icons">
	<g>
		<path d="M5.5,7C3.57,7,2,8.57,2,10.5v1C2,13.43,3.57,15,5.5,15S9,13.43,9,11.5v-1C9,8.57,7.43,7,5.5,7z M8,11.5
			C8,12.879,6.879,14,5.5,14S3,12.879,3,11.5v-1C3,9.121,4.121,8,5.5,8S8,9.121,8,10.5V11.5z"/>
		<path d="M5.5,9C4.673,9,4,9.673,4,10.5v1C4,12.327,4.673,13,5.5,13S7,12.327,7,11.5v-1C7,9.673,6.327,9,5.5,9z"/>
		<path d="M24,6.5v-1C24,5.224,23.776,5,23.5,5c-2.442,0-4.426,1.959-4.488,4.386C15.13,6.019,10.951,5,5.5,5
			c0,0-0.293,0.002-0.539,0.025C2.18,5.291,0,7.79,0,10.715V12.5C0,14.981,2.019,17,4.5,17h4.011
			c5.15-0.111,8.686-1.673,10.579-4.616C19.502,14.443,21.321,16,23.5,16c0.276,0,0.5-0.224,0.5-0.5v-1c0-1.752-1.017-3.257-2.481-4
			C22.983,9.758,24,8.252,24,6.5z M10,12.5c0,1.93-1.57,3.5-3.5,3.5h-2C2.57,16,1,14.43,1,12.5v-1.785
			C1,8.3,2.781,6.238,5.057,6.022C5.207,6.007,5.356,6,5.505,6c1.123,0,2.183,0.407,3.021,1.17C9.463,8.021,10,9.235,10,10.5V12.5z"
			/>
	</g>
</g>
<g id="invisible_shape">
	<rect fill="none" width="24" height="24"/>
</g>
</svg>
