<?xml version="1.0" encoding="utf-8"?>
<!-- Generator: Adobe Illustrator 19.2.0, SVG Export Plug-In . SVG Version: 6.00 Build 0)  -->
<svg version="1.1" xmlns="http://www.w3.org/2000/svg" xmlns:xlink="http://www.w3.org/1999/xlink" x="0px" y="0px" width="24px"
	 height="24px" viewBox="0 0 24 24" enable-background="new 0 0 24 24" xml:space="preserve">
<g id="Filled_Icons">
	<g>
		<path d="M8.538,4.938c-4.469,0.81-5.334,4.64-5.343,4.683c-0.034,0.165,0.017,0.336,0.136,0.455l1.783,1.784
			C5.589,9.881,6.558,7.269,8.538,4.938z"/>
		<path d="M13.17,18.642l1.825,1.842c0.094,0.095,0.222,0.147,0.354,0.147h0.001c0.133,0,0.26-0.053,0.353-0.146
			c2.299-2.299,3.497-4.254,4.127-5.683C17.678,16.904,15.211,18.033,13.17,18.642z"/>
		<g>
			<path d="M22.069,1.945c-0.521-0.521-1.951-0.707-3.116-0.707c-1.614,0-5.714,0.345-8.904,3.535
				c-3.193,3.192-4.061,7.225-4.298,9.139l4.359,4.358c1.915-0.226,5.925-1.075,9.142-4.294C23.595,9.635,23.183,3.059,22.069,1.945
				z M17.09,6.865c-0.282,0.283-0.659,0.439-1.06,0.439c-0.4,0-0.777-0.156-1.061-0.439c-0.584-0.584-0.585-1.535,0-2.121
				c0.568-0.568,1.559-0.566,2.121,0c0.284,0.283,0.441,0.66,0.441,1.062C17.529,6.206,17.373,6.583,17.09,6.865z"/>
			<path d="M5.315,14.89l-5.036,2.518c-0.171,0.086-0.278,0.261-0.276,0.452c0.002,0.19,0.112,0.364,0.284,0.446l3.857,1.847
				l1.557,3.561c0.077,0.177,0.251,0.294,0.445,0.299c0.004,0,0.009,0,0.013,0c0.189,0,0.362-0.106,0.447-0.276l2.519-5.037
				L5.315,14.89z"/>
		</g>
	</g>
</g>
<g id="invisible_shape">
	<rect fill="none" width="24" height="24"/>
</g>
</svg>
