<?xml version="1.0" encoding="utf-8"?>
<!-- Generator: Adobe Illustrator 19.2.0, SVG Export Plug-In . SVG Version: 6.00 Build 0)  -->
<svg version="1.1" xmlns="http://www.w3.org/2000/svg" xmlns:xlink="http://www.w3.org/1999/xlink" x="0px" y="0px" width="24px"
	 height="24px" viewBox="0 0 24 24" enable-background="new 0 0 24 24" xml:space="preserve">
<g id="Filled_Icons">
	<g>
		<path d="M20.692,17.728C18.404,15.323,15.318,14,12.003,14c-3.315,0-6.401,1.323-8.689,3.727
			c-0.081,0.085-0.174,0.154-0.265,0.226C3.279,20.22,5.177,22,7.503,22h9c2.326,0,4.223-1.78,4.454-4.046
			C20.866,17.883,20.773,17.812,20.692,17.728z"/>
		<g>
			<path d="M2.865,16.775L8.696,4.467C6.755,5.019,4.975,6.054,3.512,7.521c-2.272,2.28-3.518,5.294-3.509,8.488
				c0.003,0.615,0.374,1.16,0.946,1.388C1.773,17.725,2.302,17.333,2.865,16.775z"/>
			<path d="M4.695,15.25c1.758-1.204,3.775-1.949,5.917-2.175l4.148-8.746C13.866,4.12,12.945,4,12.003,4
				c-0.701,0-1.391,0.07-2.066,0.187L4.695,15.25z"/>
			<path d="M20.494,7.521c-0.029-0.029-0.063-0.054-0.092-0.084l-3.162,6.661c1.549,0.683,2.967,1.67,4.176,2.94
				c0.282,0.296,0.679,0.465,1.087,0.465c0.805,0,1.496-0.644,1.5-1.495C24.013,12.814,22.767,9.801,20.494,7.521z"/>
			<path d="M19.628,6.734c-1.16-0.96-2.477-1.674-3.888-2.135l-3.99,8.413c1.602-0.037,3.092,0.214,4.553,0.726L19.628,6.734z"/>
		</g>
	</g>
</g>
<g id="invisible_shape">
	<rect fill="none" width="24" height="24"/>
</g>
</svg>
