<?xml version="1.0" encoding="utf-8"?>
<!-- Generator: Adobe Illustrator 19.2.0, SVG Export Plug-In . SVG Version: 6.00 Build 0)  -->
<svg version="1.1" xmlns="http://www.w3.org/2000/svg" xmlns:xlink="http://www.w3.org/1999/xlink" x="0px" y="0px" width="24px"
	 height="24px" viewBox="0 0 24 24" enable-background="new 0 0 24 24" xml:space="preserve">
<g id="Filled_Icons">
	<g>
		<g>
			<rect x="8" width="1" height="4"/>
			<rect x="12" width="1" height="4"/>
			<rect x="10" width="1" height="4"/>
			<rect x="14" width="1" height="4"/>
			<path d="M7,0H6.5C5.673,0,5,0.673,5,1.5V4h2V0z"/>
			<path d="M16,0h0.5C17.327,0,18,0.673,18,1.5V4h-2V0z"/>
		</g>
		<path d="M17.5,5h-12C3.019,5,1,7.019,1,9.5v10C1,21.982,3.019,24,5.5,24h12c2.481,0,4.5-2.018,4.5-4.5v-10
			C22,7.019,19.981,5,17.5,5z M17.5,12h-2.785l-1,1H15.5c0.276,0,0.5,0.224,0.5,0.5S15.776,14,15.5,14h-2.785l-1,1H13.5
			c0.276,0,0.5,0.224,0.5,0.5S13.776,16,13.5,16h-2.785l-1,1H11.5c0.276,0,0.5,0.224,0.5,0.5S11.776,18,11.5,18H8.715l-1.806,1.806
			c-0.195,0.195-0.512,0.195-0.707,0c-0.195-0.195-0.195-0.512,0-0.706L8,17.301V14.5C8,14.224,8.224,14,8.5,14S9,14.224,9,14.5
			v1.801l1-1V12.5c0-0.276,0.224-0.5,0.5-0.5s0.5,0.224,0.5,0.5v1.801l1-1V10.5c0-0.276,0.224-0.5,0.5-0.5s0.5,0.224,0.5,0.5v1.801
			l1-1V8.5C14,8.224,14.224,8,14.5,8S15,8.224,15,8.5v1.801l1.091-1.091c0.195-0.194,0.512-0.194,0.707,0
			c0.195,0.195,0.195,0.512,0,0.708L15.715,11H17.5c0.276,0,0.5,0.224,0.5,0.5S17.776,12,17.5,12z"/>
	</g>
</g>
<g id="invisible_shape">
	<rect fill="none" width="24" height="24"/>
</g>
</svg>
