<?xml version="1.0" encoding="utf-8"?>
<!-- Generator: Adobe Illustrator 19.2.0, SVG Export Plug-In . SVG Version: 6.00 Build 0)  -->
<svg version="1.1" xmlns="http://www.w3.org/2000/svg" xmlns:xlink="http://www.w3.org/1999/xlink" x="0px" y="0px" width="24px"
	 height="24px" viewBox="0 0 24 24" enable-background="new 0 0 24 24" xml:space="preserve">
<g id="Filled_Icons">
	<g>
		<circle cx="5" cy="21.5" r="2.5"/>
		<circle cx="19" cy="21.5" r="2.5"/>
		<path d="M22.5,21.5c0,0.171-0.026,0.335-0.051,0.5H23.5c0.276,0,0.5-0.223,0.5-0.5V20h-1.852C22.367,20.457,22.5,20.961,22.5,21.5
			z"/>
		<path d="M23.5,4.006L9.5,4C9.367,3.994,9.24,4.047,9.146,4.142C9.053,4.235,9,4.361,9,4.494V19h7.559c0.631-0.616,1.491-1,2.441-1
			s1.81,0.384,2.441,1H24V4.5C24,4.225,23.776,4,23.5,4.006z M12.084,7.217c0.093-0.139,0.249-0.223,0.416-0.223h7
			c0.167,0,0.323,0.084,0.416,0.223L21.768,10H10.232L12.084,7.217z M21,10.994V13H11v-2.006H21z M21,16.494
			c0,0.276-0.224,0.5-0.5,0.506h-9c-0.276-0.006-0.5-0.229-0.5-0.506V16h10V16.494z M21.5,15h-11c-0.276,0-0.5-0.223-0.5-0.5
			c0-0.276,0.224-0.5,0.5-0.5h11c0.276,0,0.5,0.224,0.5,0.5C22,14.777,21.776,15,21.5,15z"/>
		<path d="M0,20v1.5C0,21.777,0.224,22,0.5,22h1.051C1.526,21.835,1.5,21.671,1.5,21.5c0-0.539,0.133-1.044,0.352-1.5H0z"/>
		<path d="M4.563,9.258l-2.466,4.438l-1.95,1.95C0.053,15.74,0,15.868,0,16v3h2.559C3.19,18.383,4.05,18,5,18s1.811,0.383,2.441,1H8
			V9.006H4.999C4.818,9.007,4.651,9.099,4.563,9.258z M5.5,10.494H6c0.276,0,0.5,0.224,0.5,0.5c0,0.276-0.224,0.5-0.5,0.5H5.809
			l-1.361,2.724C4.359,14.394,4.183,14.494,4,14.494c-0.075,0-0.151-0.017-0.224-0.052c-0.247-0.124-0.347-0.424-0.224-0.672l1.5-3
			C5.138,10.602,5.311,10.494,5.5,10.494z"/>
		<path d="M8.148,20C8.367,20.456,8.5,20.961,8.5,21.5c0,0.171-0.026,0.335-0.051,0.5h7.102c-0.024-0.165-0.051-0.329-0.051-0.5
			c0-0.539,0.133-1.043,0.352-1.5H8.148z"/>
	</g>
</g>
<g id="invisible_shape">
	<rect fill="none" width="24" height="24"/>
</g>
</svg>
