<?xml version="1.0" encoding="utf-8"?>
<!-- Generator: Adobe Illustrator 19.2.0, SVG Export Plug-In . SVG Version: 6.00 Build 0)  -->
<svg version="1.1" xmlns="http://www.w3.org/2000/svg" xmlns:xlink="http://www.w3.org/1999/xlink" x="0px" y="0px" width="24px"
	 height="24px" viewBox="0 0 24 24" enable-background="new 0 0 24 24" xml:space="preserve">
<g id="Filled_Icons">
	<g>
		<path d="M23.503,18h-1.544c-0.096-0.704-0.396-1.292-0.92-1.737c-1.32-1.123-3.616-0.991-4.433-0.9
			C16.062,14.716,14.392,13,12.003,13c-2.387,0-4.056,1.711-4.602,2.359c-0.816-0.099-3.082-0.25-4.407,0.863
			C2.456,16.673,2.148,17.274,2.049,18H0.503c-0.276,0-0.5,0.224-0.5,0.5s0.224,0.5,0.5,0.5h3.733l1.852,2.777
			C6.18,21.917,6.336,22,6.503,22h11c0.167,0,0.323-0.083,0.416-0.223L19.771,19h3.732c0.276,0,0.5-0.224,0.5-0.5
			S23.779,18,23.503,18z M3.635,16.989c1.244-1.048,3.867-0.607,3.892-0.602c0.186,0.033,0.38-0.045,0.491-0.2
			C8.034,16.166,9.626,14,12.003,14c2.362,0,3.967,2.166,3.983,2.188c0.111,0.154,0.305,0.23,0.484,0.201
			c0.741-0.122,2.888-0.242,3.921,0.636c0.299,0.255,0.483,0.578,0.563,0.976H3.053C3.135,17.584,3.325,17.25,3.635,16.989z"/>
		<path d="M5.676,8.689c-0.195,0.196-0.195,0.513,0,0.707c0.098,0.098,0.226,0.146,0.354,0.146c0.128,0,0.256-0.049,0.353-0.146
			C7.539,8.24,6.832,7.303,6.409,6.743C5.972,6.162,5.79,5.922,6.358,5.353c0.195-0.195,0.195-0.512,0-0.707s-0.512-0.195-0.707,0
			C4.468,5.83,5.184,6.778,5.611,7.346C6.052,7.929,6.217,8.148,5.676,8.689z"/>
		<path d="M17.623,9.396c0.098,0.098,0.226,0.146,0.354,0.146c0.128,0,0.256-0.049,0.353-0.146c0.195-0.194,0.195-0.511,0-0.707
			c-0.541-0.541-0.376-0.76,0.064-1.343c0.428-0.567,1.144-1.516-0.04-2.699c-0.195-0.195-0.512-0.195-0.707,0
			c-0.195,0.195-0.195,0.512,0,0.707c0.568,0.568,0.387,0.809-0.051,1.39C17.174,7.303,16.467,8.24,17.623,9.396z"/>
		<path d="M11.691,8.644c-0.195,0.195-0.195,0.512,0,0.707c0.098,0.098,0.226,0.146,0.354,0.146c0.128,0,0.256-0.049,0.354-0.146
			c1.785-1.785,0.761-3.144,0.013-4.135c-0.767-1.016-1.272-1.687-0.055-2.905c0.195-0.194,0.195-0.511,0-0.707
			c-0.195-0.195-0.512-0.195-0.707,0c-1.833,1.833-0.795,3.21-0.036,4.215C12.365,6.816,12.862,7.475,11.691,8.644z"/>
	</g>
</g>
<g id="invisible_shape">
	<rect fill="none" width="24" height="24"/>
</g>
</svg>
