<?xml version="1.0" encoding="utf-8"?>
<!-- Generator: Adobe Illustrator 19.2.0, SVG Export Plug-In . SVG Version: 6.00 Build 0)  -->
<svg version="1.1" xmlns="http://www.w3.org/2000/svg" xmlns:xlink="http://www.w3.org/1999/xlink" x="0px" y="0px" width="24px"
	 height="24px" viewBox="0 0 24 24" enable-background="new 0 0 24 24" xml:space="preserve">
<g id="Filled_Icons">
	<g>
		<g>
			<path d="M6.503,10c0.828,0,1.5,0.672,1.5,1.5c0,0.84,1.527,1.521,3.418,1.539L10.41,0.94L7.422,1.192l0.744,9.244L6.003,3h-1.5
				l-0.94,2.002L4.936,10H6.503z"/>
			<path d="M14.982,11.5c0-0.828,0.672-1.5,1.5-1.5h1.588l1.373-5l-0.941-2h-1.5c-0.028,0.098-2.177,7.489-2.209,7.586l0.79-9.394
				L12.595,0.94l-1.01,12.098C13.465,13.016,14.982,12.336,14.982,11.5z"/>
		</g>
		<g>
			<polygon points="18.894,18 4.112,18 4.612,20 18.394,20 			"/>
			<path d="M20.397,11.192C20.303,11.071,20.157,11,20.003,11h-3.52c-0.276,0-0.5,0.224-0.5,0.5c0,3.338-8.979,3.337-8.979,0
				c0-0.276-0.224-0.5-0.5-0.5h-3.5c-0.154,0-0.3,0.071-0.394,0.192c-0.095,0.121-0.128,0.279-0.091,0.429L3.862,17h15.281
				l1.345-5.379C20.525,11.472,20.492,11.314,20.397,11.192z"/>
			<path d="M4.862,21l0.655,2.621C5.573,23.844,5.773,24,6.003,24h11c0.23,0,0.43-0.156,0.485-0.379L18.144,21H4.862z"/>
		</g>
	</g>
</g>
<g id="invisible_shape">
	<rect fill="none" width="24" height="24"/>
</g>
</svg>
