<?xml version="1.0" encoding="utf-8"?>
<!-- Generator: Adobe Illustrator 19.2.0, SVG Export Plug-In . SVG Version: 6.00 Build 0)  -->
<svg version="1.1" xmlns="http://www.w3.org/2000/svg" xmlns:xlink="http://www.w3.org/1999/xlink" x="0px" y="0px" width="24px"
	 height="24px" viewBox="0 0 24 24" enable-background="new 0 0 24 24" xml:space="preserve">
<g id="Filled_Icons">
	<g>
		<circle cx="12.5" cy="21.5" r="2.5"/>
		<circle cx="12.5" cy="10.5" r="2.5"/>
		<circle cx="6.5" cy="11" r="2.5"/>
		<circle cx="18.5" cy="11" r="2.5"/>
		<circle cx="15.5" cy="16.5" r="2.5"/>
		<circle cx="9.5" cy="16.5" r="2.5"/>
		<path d="M12.5,7C12.776,7,13,6.777,13,6.5v-6C13,0.225,12.776,0,12.5,0S12,0.225,12,0.5v6C12,6.777,12.224,7,12.5,7z"/>
		<path d="M22.921,1.232c-0.071-0.113-0.185-0.191-0.315-0.221c-3.98-0.875-7.688,1.248-8.595,5.382
			c-0.06,0.269,0.111,0.536,0.381,0.595c3.98,0.876,7.686-1.243,8.596-5.381C23.017,1.479,22.992,1.343,22.921,1.232z"/>
		<path d="M10.606,6.988c0.13-0.027,0.243-0.105,0.315-0.218c0.071-0.112,0.096-0.247,0.067-0.378
			c-0.909-4.137-4.617-6.255-8.596-5.381c-0.27,0.06-0.441,0.326-0.381,0.596C2.918,5.744,6.626,7.864,10.606,6.988z"/>
	</g>
</g>
<g id="invisible_shape">
	<rect fill="none" width="24" height="24"/>
</g>
</svg>
