<?xml version="1.0" encoding="utf-8"?>
<!-- Generator: Adobe Illustrator 19.2.0, SVG Export Plug-In . SVG Version: 6.00 Build 0)  -->
<svg version="1.1" xmlns="http://www.w3.org/2000/svg" xmlns:xlink="http://www.w3.org/1999/xlink" x="0px" y="0px" width="24px"
	 height="24px" viewBox="0 0 24 24" enable-background="new 0 0 24 24" xml:space="preserve">
<g id="Filled_Icons">
	<path d="M22.003,13h-20c-0.827,0-1.5,0.675-1.5,1.5v1c0,0.829,0.673,1.5,1.5,1.5h20c0.826,0,1.5-0.671,1.5-1.5v-1
		C23.503,13.675,22.829,13,22.003,13z"/>
	<path d="M23.003,12v-0.994c0-3.859-3.141-7-7-7h-8c-3.86,0-7,3.141-7,7V12H23.003z M17.003,7.006c0.275,0,0.5,0.225,0.5,0.5
		c0,0.276-0.225,0.5-0.5,0.5c-0.276,0-0.5-0.224-0.5-0.5C16.503,7.231,16.727,7.006,17.003,7.006z M14.503,6.006
		c0.275,0,0.5,0.225,0.5,0.5c0,0.276-0.225,0.5-0.5,0.5c-0.276,0-0.5-0.224-0.5-0.5C14.003,6.231,14.227,6.006,14.503,6.006z
		 M12.003,7.006c0.275,0,0.5,0.225,0.5,0.5c0,0.276-0.225,0.5-0.5,0.5c-0.276,0-0.5-0.224-0.5-0.5
		C11.503,7.231,11.727,7.006,12.003,7.006z M9.503,6.006c0.275,0,0.5,0.225,0.5,0.5c0,0.276-0.225,0.5-0.5,0.5
		c-0.276,0-0.5-0.224-0.5-0.5C9.003,6.231,9.227,6.006,9.503,6.006z M7.003,7.006c0.275,0,0.5,0.225,0.5,0.5
		c0,0.276-0.225,0.5-0.5,0.5c-0.276,0-0.5-0.224-0.5-0.5C6.503,7.231,6.727,7.006,7.003,7.006z"/>
	<path d="M1.003,18v0.5v0.006c0,1.379,1.121,2.494,2.5,2.494h17c1.378,0,2.5-1.115,2.5-2.494V18.5V18H1.003z"/>
</g>
<g id="invisible_shape">
	<rect fill="none" width="24" height="24"/>
</g>
</svg>
