<?xml version="1.0" encoding="utf-8"?>
<!-- Generator: Adobe Illustrator 19.2.0, SVG Export Plug-In . SVG Version: 6.00 Build 0)  -->
<svg version="1.1" xmlns="http://www.w3.org/2000/svg" xmlns:xlink="http://www.w3.org/1999/xlink" x="0px" y="0px" width="24px"
	 height="24px" viewBox="0 0 24 24" enable-background="new 0 0 24 24" xml:space="preserve">
<g id="Filled_Icons">
	<g>
		<path d="M4,6h15c0.827,0,1.5-0.673,1.5-1.5v-1C20.5,2.673,19.827,2,19,2H4C3.173,2,2.5,2.673,2.5,3.5v1C2.5,5.327,3.173,6,4,6z"/>
		<path d="M20.447,7H2.559C1.63,7.886,0.5,9.394,0.5,11.5C0.5,15.318,2.956,24,7,24h9.005c4.044,0,6.5-8.682,6.5-12.5
			C22.505,9.394,21.375,7.886,20.447,7z M10.285,10h2.434l1.2,2l-1.2,2h-2.434l-1.2-2L10.285,10z M5.785,16.5l-1.2-2l1.2-2h2.434
			l1.2,2l-1.2,2H5.785z M12.719,19h-2.434l-1.2-2l1.2-2h2.434l1.2,2L12.719,19z M17.219,16.5h-2.434l-1.2-2l1.2-2h2.434l1.2,2
			L17.219,16.5z"/>
	</g>
</g>
<g id="invisible_shape">
	<rect fill="none" width="24" height="24"/>
</g>
</svg>
