<?xml version="1.0" encoding="utf-8"?>
<!-- Generator: Adobe Illustrator 19.2.0, SVG Export Plug-In . SVG Version: 6.00 Build 0)  -->
<svg version="1.1" xmlns="http://www.w3.org/2000/svg" xmlns:xlink="http://www.w3.org/1999/xlink" x="0px" y="0px" width="24px"
	 height="24px" viewBox="0 0 24 24" enable-background="new 0 0 24 24" xml:space="preserve">
<g id="Filled_Icons">
	<g>
		<path d="M23.829,0.806c-0.384-0.733-1.29-1.015-2.024-0.635c-0.486,0.255-0.769,0.74-0.797,1.252L13.186,5.18l-0.591-1.13
			c-0.447-0.853-1.507-1.188-2.361-0.74h-0.001c-0.122,0.063-0.23,0.142-0.329,0.228C9.372,3.112,8.637,3.018,7.998,3.35
			c-0.634,0.332-0.979,1-0.933,1.672C6.938,5.055,6.811,5.098,6.688,5.162c-0.855,0.447-1.187,1.507-0.74,2.36l1.389,2.67
			c0.188,0.365,0.642,0.512,1.011,0.319c0.368-0.19,0.511-0.643,0.319-1.011L7.278,6.829C7.213,6.703,7.264,6.554,7.383,6.492
			c0.124-0.063,0.275-0.016,0.338,0.106l1.618,3.097c0.191,0.366,0.642,0.51,1.013,0.317C10.719,9.819,10.86,9.367,10.669,9
			l0.001-0.001L8.588,5.017C8.523,4.892,8.572,4.742,8.693,4.68C8.816,4.616,8.968,4.662,9.03,4.785l0.461,0.882
			C9.492,5.669,9.492,5.67,9.493,5.672l1.853,3.545c0.448,0.856,1.506,1.186,2.362,0.74c0.414-0.217,0.719-0.582,0.858-1.028
			c0.141-0.446,0.098-0.92-0.118-1.334L13.882,6.51l7.812-3.752c0.475,0.304,1.035,0.316,1.501,0.072
			C23.928,2.446,24.212,1.538,23.829,0.806z M13.015,8.627c-0.121,0.065-0.274,0.017-0.338-0.106l-1.854-3.547
			c-0.063-0.122-0.016-0.271,0.104-0.335c0.124-0.064,0.275-0.017,0.338,0.106l1.853,3.545C13.184,8.412,13.136,8.564,13.015,8.627z
			"/>
		<path d="M6.502,10.5c-0.276,0-0.5,0.224-0.5,0.5v0.5c0,1.379,1.121,2.5,2.5,2.5c0.858,0,1.617-0.436,2.067-1.097
			c0.246,0.264,0.563,0.442,0.933,0.442c0.827,0,1.5-0.673,1.5-1.5V11c0-0.276-0.224-0.5-0.5-0.5c-0.276,0-0.5,0.224-0.5,0.5v0.846
			c0,0.275-0.225,0.5-0.5,0.5c-0.186,0-0.5-0.481-0.5-0.846c0-0.276-0.224-0.5-0.5-0.5c-0.276,0-0.5,0.224-0.5,0.5
			c0,0.827-0.673,1.5-1.5,1.5c-0.827,0-1.5-0.673-1.5-1.5V11C7.002,10.724,6.778,10.5,6.502,10.5z"/>
		<path d="M15.5,15h-14C0.673,15,0,15.673,0,16.5C0,17.327,0.673,18,1.5,18h14c0.827,0,1.5-0.673,1.5-1.5
			C17,15.673,16.327,15,15.5,15z"/>
		<path d="M7.45,24h2.1c2.852,0,5.197-2.205,5.427-5H2.023C2.253,21.795,4.597,24,7.45,24z"/>
	</g>
</g>
<g id="invisible_shape">
	<rect fill="none" width="24" height="24"/>
</g>
</svg>
