<?xml version="1.0" encoding="utf-8"?>
<!-- Generator: Adobe Illustrator 19.2.0, SVG Export Plug-In . SVG Version: 6.00 Build 0)  -->
<svg version="1.1" xmlns="http://www.w3.org/2000/svg" xmlns:xlink="http://www.w3.org/1999/xlink" x="0px" y="0px" width="24px"
	 height="24px" viewBox="0 0 24 24" enable-background="new 0 0 24 24" xml:space="preserve">
<g id="Filled_Icons">
	<path d="M12.003,0.012c-3.86,0-7,3.141-7,7v2c0,1.104,0.897,2,2,2c0.182,0,0.355-0.031,0.523-0.078l3.999,12.728
		c0.065,0.208,0.259,0.35,0.477,0.35h0.001c0.219,0,0.412-0.143,0.477-0.351l3.933-12.746c0.188,0.058,0.383,0.098,0.59,0.098
		c1.103,0,2-0.896,2-2v-2C19.003,3.152,15.862,0.012,12.003,0.012z M18.003,9.012c0,0.553-0.449,1-1,1c-0.552,0-1-0.447-1-1
		c0-0.826-0.673-1.5-1.5-1.5c-0.827,0-1.5,0.674-1.5,1.5v1c0,0.553-0.449,1-1,1c-0.552,0-1-0.447-1-1v-1c0-0.826-0.673-1.5-1.5-1.5
		c-0.827,0-1.5,0.674-1.5,1.5c0,0.553-0.449,1-1,1c-0.552,0-1-0.447-1-1v-2c0-3.309,2.691-6,6-6s6,2.691,6,6V9.012z"/>
</g>
<g id="invisible_shape">
	<rect fill="none" width="24" height="24"/>
</g>
</svg>
