<?xml version="1.0" encoding="utf-8"?>
<!-- Generator: Adobe Illustrator 19.2.0, SVG Export Plug-In . SVG Version: 6.00 Build 0)  -->
<svg version="1.1" xmlns="http://www.w3.org/2000/svg" xmlns:xlink="http://www.w3.org/1999/xlink" x="0px" y="0px" width="24px"
	 height="24px" viewBox="0 0 24 24" enable-background="new 0 0 24 24" xml:space="preserve">
<g id="Filled_Icons">
	<path d="M20.003,12.492c0-0.276-0.224-0.5-0.5-0.5h-1.04c-0.244-1.693-1.7-3-3.46-3c-0.014,0-0.026,0.002-0.04,0.002
		c-0.18-1.256-1.025-2.295-2.169-2.752c0.13-0.222,0.209-0.476,0.209-0.75c0-0.539-0.289-1.01-0.717-1.273l0.633-0.949
		c0.153-0.23,0.091-0.541-0.139-0.693c-0.231-0.152-0.541-0.092-0.693,0.139l-0.871,1.306c-0.689,0.134-1.213,0.743-1.213,1.472
		c0,0.274,0.079,0.528,0.209,0.75C9.068,6.699,8.223,7.738,8.043,8.994c-0.014,0-0.026-0.002-0.04-0.002
		c-0.362,0-0.713,0.056-1.042,0.158l-1.94-8.767c-0.064-0.269-0.337-0.433-0.602-0.37c-0.269,0.063-0.435,0.333-0.37,0.601
		L6.04,9.597c-0.796,0.541-1.353,1.402-1.497,2.396h-1.04c-0.276,0-0.5,0.224-0.5,0.5c0,4.519,3.577,7.721,8.031,7.982v2.524h-2.5
		c-0.276,0-0.5,0.225-0.5,0.5c0,0.276,0.224,0.5,0.5,0.5h6c0.276,0,0.5-0.224,0.5-0.5c0-0.275-0.224-0.5-0.5-0.5h-2.5v-2.524
		C16.487,20.213,20.003,17.011,20.003,12.492z M15.003,9.992c1.207,0,2.217,0.86,2.449,2h-4.898
		C12.786,10.852,13.796,9.992,15.003,9.992z M5.554,11.992c0.232-1.14,1.242-2,2.449-2c1.207,0,2.217,0.86,2.449,2H5.554z
		 M11.543,11.992h-0.08c-0.194-1.348-1.153-2.449-2.425-2.844c0.169-1.215,1.204-2.156,2.465-2.156c1.261,0,2.296,0.941,2.465,2.156
		C12.696,9.543,11.737,10.644,11.543,11.992z"/>
</g>
<g id="invisible_shape">
	<rect fill="none" width="24" height="24"/>
</g>
</svg>
