<?xml version="1.0" encoding="utf-8"?>
<!-- Generator: Adobe Illustrator 19.2.0, SVG Export Plug-In . SVG Version: 6.00 Build 0)  -->
<svg version="1.1" xmlns="http://www.w3.org/2000/svg" xmlns:xlink="http://www.w3.org/1999/xlink" x="0px" y="0px" width="24px"
	 height="24px" viewBox="0 0 24 24" enable-background="new 0 0 24 24" xml:space="preserve">
<g id="Filled_Icons">
	<path d="M12,0C9.243,0,7,2.243,7,5v12.5C7,17.776,7.224,18,7.5,18H11v5.5c0,0.276,0.224,0.5,0.5,0.5s0.5-0.224,0.5-0.5V18h4.5
		c0.276,0,0.5-0.224,0.5-0.5V5C17,2.243,14.757,0,12,0z M14.5,12.5c-0.827,0-1.5-0.672-1.5-1.5V7c0-0.275-0.225-0.5-0.5-0.5
		C12.224,6.5,12,6.725,12,7c0,0.828-0.673,1.5-1.5,1.5S9,7.828,9,7V5c0-0.275,0.224-0.5,0.5-0.5S10,4.725,10,5v2
		c0,0.276,0.224,0.5,0.5,0.5C10.775,7.5,11,7.276,11,7c0-0.826,0.673-1.5,1.5-1.5S14,6.174,14,7v4c0,0.276,0.224,0.5,0.5,0.5
		S15,11.725,15,12C15,12.276,14.776,12.5,14.5,12.5z"/>
</g>
<g id="invisible_shape">
	<rect fill="none" width="24" height="24"/>
</g>
</svg>
