<?xml version="1.0" encoding="utf-8"?>
<!-- Generator: Adobe Illustrator 19.2.0, SVG Export Plug-In . SVG Version: 6.00 Build 0)  -->
<svg version="1.1" xmlns="http://www.w3.org/2000/svg" xmlns:xlink="http://www.w3.org/1999/xlink" x="0px" y="0px" width="24px"
	 height="24px" viewBox="0 0 24 24" enable-background="new 0 0 24 24" xml:space="preserve">
<g id="Filled_Icons">
	<path d="M14.5,0h-4C8.019,0,6,2.02,6,4.5v13c0,0.276,0.224,0.5,0.5,0.494H12v5.5c0,0.276,0.224,0.5,0.5,0.5s0.5-0.224,0.5-0.5v-5.5
		h5.5C18.776,18,19,17.776,19,17.5v-13C19,2.02,16.981,0,14.5,0z M11,14.5c0,0.276-0.224,0.5-0.5,0.5S10,14.776,10,14.5v-11
		C10,3.224,10.224,3,10.5,3S11,3.224,11,3.5V14.5z M15,14.5c0,0.276-0.224,0.5-0.5,0.5S14,14.776,14,14.5v-11
		C14,3.224,14.224,3,14.5,3S15,3.224,15,3.5V14.5z"/>
</g>
<g id="invisible_shape">
	<rect fill="none" width="24" height="24"/>
</g>
</svg>
