<?xml version="1.0" encoding="utf-8"?>
<!-- Generator: Adobe Illustrator 19.2.0, SVG Export Plug-In . SVG Version: 6.00 Build 0)  -->
<svg version="1.1" xmlns="http://www.w3.org/2000/svg" xmlns:xlink="http://www.w3.org/1999/xlink" x="0px" y="0px" width="24px"
	 height="24px" viewBox="0 0 24 24" enable-background="new 0 0 24 24" xml:space="preserve">
<g id="Filled_Icons">
	<g>
		<path d="M19.5,3h-15C3.673,3,3,3.673,3,4.5S3.673,6,4.5,6h15C20.327,6,21,5.327,21,4.5S20.327,3,19.5,3z"/>
		<path d="M16.5,10.155c-0.938,0.453-2.063,0.453-3,0c-0.938,0.453-2.063,0.453-3,0c-0.938,0.453-2.063,0.453-3,0
			c-0.779,0.378-1.68,0.409-2.5,0.164V21.5C5,22.879,6.121,24,7.5,24h9c1.379,0,2.5-1.121,2.5-2.5V10.339
			C18.147,10.592,17.321,10.552,16.5,10.155z M16.002,19.5c0,0.276-0.224,0.5-0.5,0.5h-7c-0.276,0-0.5-0.224-0.5-0.5v-5
			c0-0.276,0.224-0.5,0.5-0.5h7c0.276,0,0.5,0.224,0.5,0.5V19.5z"/>
		<path d="M4.374,7L3.997,8.496C4.453,9.106,5.181,9.5,6,9.5c0.565,0,1.081-0.195,1.5-0.512C7.919,9.305,8.435,9.5,9,9.5
			s1.081-0.195,1.5-0.512C10.919,9.305,11.435,9.5,12,9.5s1.081-0.195,1.5-0.512C13.919,9.305,14.435,9.5,15,9.5
			s1.081-0.195,1.5-0.512C16.919,9.305,17.435,9.5,18,9.5c0.818,0,1.544-0.393,2-1L19.625,7H4.374z"/>
	</g>
</g>
<g id="invisible_shape">
	<rect fill="none" width="24" height="24"/>
</g>
</svg>
