<?xml version="1.0" encoding="utf-8"?>
<!-- Generator: Adobe Illustrator 19.2.0, SVG Export Plug-In . SVG Version: 6.00 Build 0)  -->
<svg version="1.1" xmlns="http://www.w3.org/2000/svg" xmlns:xlink="http://www.w3.org/1999/xlink" x="0px" y="0px" width="24px"
	 height="24px" viewBox="0 0 24 24" enable-background="new 0 0 24 24" xml:space="preserve">
<g id="Filled_Icons">
	<g>
		<path d="M8.5,7.5C8.776,7.5,9,7.276,9,7V1c0-0.276-0.224-0.5-0.5-0.5S8,0.724,8,1v6C8,7.276,8.224,7.5,8.5,7.5z"/>
		<path d="M10.5,8.5C10.776,8.5,11,8.276,11,8V2c0-0.276-0.224-0.5-0.5-0.5S10,1.724,10,2v6C10,8.276,10.224,8.5,10.5,8.5z"/>
		<path d="M12,4h10c0.276,0,0.5-0.224,0.5-0.5S22.276,3,22,3H12c-0.276,0-0.5,0.224-0.5,0.5S11.724,4,12,4z"/>
		<path d="M3,4h2c0.276,0,0.5-0.224,0.5-0.5S5.276,3,5,3H3C2.724,3,2.5,3.224,2.5,3.5S2.724,4,3,4z"/>
		<path d="M21.995,7.09l-9.935-1.143c-0.271-0.033-0.523,0.165-0.555,0.439c-0.031,0.274,0.166,0.522,0.439,0.554l9.935,1.144
			c0.02,0.002,0.039,0.003,0.059,0.003c0.25,0,0.467-0.188,0.496-0.443C22.466,7.369,22.269,7.121,21.995,7.09z"/>
		<path d="M5.106,5.146L3.12,4.917C2.848,4.882,2.597,5.082,2.565,5.356C2.534,5.631,2.73,5.878,3.005,5.91l1.986,0.228
			C5.011,6.142,5.03,6.143,5.05,6.143c0.25,0,0.467-0.188,0.496-0.443C5.577,5.425,5.381,5.178,5.106,5.146z"/>
		<path d="M14.5,11H7V2c0-0.276-0.224-0.5-0.5-0.5S6,1.724,6,2v9H2.5c-0.148,0-0.286,0.064-0.382,0.177
			c-0.095,0.112-0.136,0.26-0.111,0.405l2,12C4.047,23.823,4.256,24,4.5,24h8c0.244,0,0.453-0.177,0.493-0.418l2-12
			c0.024-0.146-0.017-0.293-0.111-0.405C14.786,11.064,14.648,11,14.5,11z M8.866,21.091C8.768,21.196,8.634,21.25,8.5,21.25
			c-0.122,0-0.244-0.044-0.341-0.133c-0.202-0.189-0.213-0.505-0.025-0.707c0.925-0.994,0.622-1.354,0.021-2.07
			c-0.612-0.729-1.536-1.828-0.041-3.656c0.175-0.214,0.489-0.244,0.703-0.07c0.214,0.175,0.245,0.489,0.07,0.703
			c-0.97,1.186-0.571,1.661,0.033,2.38C9.541,18.435,10.393,19.449,8.866,21.091z"/>
	</g>
</g>
<g id="invisible_shape">
	<rect fill="none" width="24" height="24"/>
</g>
</svg>
