<?xml version="1.0" encoding="utf-8"?>
<!-- Generator: Adobe Illustrator 19.2.0, SVG Export Plug-In . SVG Version: 6.00 Build 0)  -->
<svg version="1.1" xmlns="http://www.w3.org/2000/svg" xmlns:xlink="http://www.w3.org/1999/xlink" x="0px" y="0px" width="24px"
	 height="24px" viewBox="0 0 24 24" enable-background="new 0 0 24 24" xml:space="preserve">
<g id="Filled_Icons">
	<g>
		<path d="M11.44,22.995h-0.875c-1.246,0-2.443-0.224-3.563-0.625v1.125c0,0.276,0.224,0.5,0.5,0.5h7c0.276,0,0.5-0.224,0.5-0.5
			V22.37C13.884,22.771,12.686,22.995,11.44,22.995z"/>
		<g>
			<path d="M21.853,4.042L3.02,6.562C2.747,6.598,2.555,6.849,2.592,7.123C2.625,7.374,2.84,7.557,3.086,7.557
				c0.023,0,0.045-0.001,0.067-0.004l4.379-0.586c0.432,0.935,0.09,1.792-0.313,2.773c-0.401,0.977-0.832,2.064-0.403,3.255H1.503
				c-0.143,0-0.28,0.061-0.375,0.169c-0.095,0.108-0.139,0.251-0.121,0.392c0.602,4.812,4.711,8.439,9.559,8.439h0.875
				c4.848,0,8.957-3.627,9.559-8.439c0.018-0.142-0.026-0.284-0.121-0.392c-0.095-0.108-0.231-0.169-0.375-0.169H13.91
				c-0.526-0.965-0.176-1.848,0.24-2.856c0.468-1.137,1.021-2.529,0.018-4.06l7.817-1.046c0.273-0.036,0.466-0.288,0.429-0.563
				C22.378,4.197,22.117,4.004,21.853,4.042z M11.226,9.757c-0.4,0.973-0.83,2.053-0.408,3.238H9.914
				c-0.51-0.958-0.164-1.842,0.245-2.852c0.43-1.064,0.904-2.25,0.301-3.567l0.771-0.102C12.089,7.623,11.714,8.572,11.226,9.757z
				 M8.144,10.121c0.403-0.982,0.853-2.078,0.421-3.292l0.832-0.112c0.632,1.048,0.268,1.98-0.165,3.051
				c-0.392,0.971-0.813,2.05-0.406,3.227H7.909C7.374,12.023,7.727,11.136,8.144,10.121z M13.119,6.315
				c1.02,1.224,0.617,2.203,0.107,3.441c-0.4,0.973-0.83,2.053-0.408,3.238H11.91c-0.526-0.965-0.176-1.848,0.24-2.856
				c0.442-1.077,0.977-2.382,0.183-3.814l0.712-0.095L13.119,6.315z"/>
			<path d="M3.36,6.162c0.045,0,0.091-0.006,0.136-0.019l18.285-5.161c0.266-0.075,0.421-0.352,0.346-0.617
				c-0.075-0.266-0.352-0.422-0.617-0.345L3.225,5.181C2.959,5.256,2.804,5.532,2.879,5.798C2.941,6.018,3.142,6.162,3.36,6.162z"/>
		</g>
	</g>
</g>
<g id="invisible_shape">
	<rect fill="none" width="24" height="24"/>
</g>
</svg>
