<?xml version="1.0" encoding="utf-8"?>
<!-- Generator: Adobe Illustrator 19.2.0, SVG Export Plug-In . SVG Version: 6.00 Build 0)  -->
<svg version="1.1" xmlns="http://www.w3.org/2000/svg" xmlns:xlink="http://www.w3.org/1999/xlink" x="0px" y="0px" width="24px"
	 height="24px" viewBox="0 0 24 24" enable-background="new 0 0 24 24" xml:space="preserve">
<g id="Filled_Icons">
	<g>
		<path d="M17.273,12.997c-0.733-0.727-1.367-1.353-1.578-2.201c-0.587-2.355-1.25-5.002-4.043-5.283c0-1.461-1.165-2.528-2.5-2.528
			h-2c-0.276,0-0.5,0.224-0.5,0.5c0,0.276,0.224,0.5,0.5,0.5h2c0.797,0,1.5,0.629,1.5,1.528c-2.795,0.281-3.458,2.932-4.044,5.288
			c-0.21,0.843-0.844,1.47-1.577,2.196c-1.127,1.114-2.528,2.502-2.528,5.156c0,3.716,3.152,5.847,8.649,5.847
			c5.497,0,8.649-2.131,8.649-5.847C19.802,15.499,18.4,14.111,17.273,12.997z"/>
		<path d="M13.152,5.484c2.757,0,5-2.243,5-5c0-0.276-0.224-0.5-0.5-0.5c-2.757,0-5,2.243-5,5
			C12.652,5.261,12.876,5.484,13.152,5.484z"/>
	</g>
</g>
<g id="invisible_shape">
	<rect fill="none" width="24" height="24"/>
</g>
</svg>
