<?xml version="1.0" encoding="utf-8"?>
<!-- Generator: Adobe Illustrator 19.2.0, SVG Export Plug-In . SVG Version: 6.00 Build 0)  -->
<svg version="1.1" xmlns="http://www.w3.org/2000/svg" xmlns:xlink="http://www.w3.org/1999/xlink" x="0px" y="0px" width="24px"
	 height="24px" viewBox="0 0 24 24" enable-background="new 0 0 24 24" xml:space="preserve">
<g id="Filled_Icons">
	<g>
		<g>
			<path d="M5.625,8.537c-0.128,0-0.256-0.049-0.353-0.146c-0.195-0.194-0.195-0.511,0-0.707c0.541-0.541,0.376-0.76-0.065-1.343
				c-0.428-0.567-1.143-1.516,0.04-2.699c0.195-0.195,0.512-0.195,0.707,0c0.195,0.196,0.195,0.512,0,0.707
				c-0.568,0.568-0.387,0.809,0.051,1.39c0.423,0.56,1.13,1.497-0.026,2.652C5.881,8.488,5.753,8.537,5.625,8.537z"/>
		</g>
		<g>
			<path d="M17.572,8.537c-0.128,0-0.256-0.049-0.354-0.146c-1.156-1.155-0.449-2.093-0.026-2.652
				c0.438-0.581,0.619-0.821,0.051-1.39c-0.195-0.195-0.195-0.511,0-0.707c0.195-0.195,0.512-0.195,0.707,0
				c1.184,1.184,0.468,2.132,0.04,2.699c-0.44,0.583-0.605,0.802-0.064,1.343c0.195,0.196,0.195,0.513,0,0.707
				C17.828,8.488,17.7,8.537,17.572,8.537z"/>
		</g>
		<g>
			<path d="M11.641,8.493c-0.128,0-0.256-0.049-0.354-0.147c-0.195-0.195-0.195-0.512,0-0.707c1.171-1.17,0.674-1.828-0.078-2.825
				C10.45,3.81,9.412,2.433,11.245,0.6c0.195-0.195,0.512-0.195,0.707,0c0.195,0.196,0.195,0.513,0,0.707
				c-1.218,1.219-0.712,1.89,0.055,2.905c0.748,0.991,1.773,2.35-0.013,4.135C11.896,8.444,11.769,8.493,11.641,8.493z"/>
		</g>
		<path d="M19.974,21.026c-1.621,0-2.476-0.438-3.1-0.761c-0.382-0.196-0.524-0.271-0.838-0.271c-0.412,0-0.792,0.15-1.317,0.36
			c-0.773,0.306-1.736,0.687-3.12,0.687c-1.382,0-2.35-0.38-3.128-0.687c-0.532-0.208-0.917-0.36-1.331-0.36
			c-0.306,0-0.451,0.066-0.866,0.276c-0.632,0.318-1.497,0.755-3.112,0.755c-0.003,0-0.005,0-0.007,0l1.281,1.96
			c0.207,0.598,0.778,1.009,1.417,1.009h11.492c0.638,0,1.208-0.41,1.416-1.007l1.294-1.967
			C20.025,21.021,20.004,21.026,19.974,21.026z"/>
		<path d="M11.614,10.011c-5.703,0-10.255,3.28-11.598,8.357c-0.026,0.1-0.021,0.205,0.015,0.301
			c0.051,0.139,0.574,1.358,3.13,1.358c1.377,0,2.09-0.359,2.662-0.649c0.424-0.214,0.758-0.383,1.316-0.383
			c0.604,0,1.11,0.199,1.697,0.43c0.735,0.29,1.569,0.617,2.762,0.617s2.02-0.328,2.751-0.617c0.582-0.231,1.084-0.43,1.687-0.43
			c0.556,0,0.866,0.161,1.296,0.381c0.563,0.29,1.263,0.65,2.642,0.65c2.556,0,3.079-1.22,3.13-1.358
			c0.036-0.096,0.041-0.201,0.015-0.301C21.774,13.291,17.259,10.011,11.614,10.011z M8.368,14.698
			c-0.121,0.268-0.437,0.386-0.704,0.264c-0.268-0.121-0.386-0.436-0.265-0.704c0.122-0.268,1.152-1.247,1.152-1.247
			S8.49,14.431,8.368,14.698z M11.619,14.995c-0.276,0-0.5-0.224-0.5-0.5s0.5-1.516,0.5-1.516s0.5,1.239,0.5,1.516
			S11.896,14.995,11.619,14.995z M15.546,14.911c-0.254,0.11-0.549-0.005-0.659-0.257c-0.111-0.254-0.151-1.59-0.151-1.59
			s0.956,0.934,1.066,1.188C15.913,14.506,15.798,14.8,15.546,14.911z"/>
	</g>
</g>
<g id="invisible_shape">
	<rect fill="none" width="24" height="24"/>
</g>
</svg>
