<?xml version="1.0" encoding="utf-8"?>
<!-- Generator: Adobe Illustrator 19.2.0, SVG Export Plug-In . SVG Version: 6.00 Build 0)  -->
<svg version="1.1" xmlns="http://www.w3.org/2000/svg" xmlns:xlink="http://www.w3.org/1999/xlink" x="0px" y="0px" width="24px"
	 height="24px" viewBox="0 0 24 24" enable-background="new 0 0 24 24" xml:space="preserve">
<g id="Filled_Icons">
	<g>
		<path d="M18.218,7.783c-0.195-0.195-0.512-0.195-0.708,0L12,13.294V5.5C12,5.226,11.775,5,11.5,5C6.262,5,2,9.263,2,14.5
			c0,5.238,4.262,9.5,9.5,9.5s9.5-4.262,9.5-9.5C21,11.962,20.012,9.577,18.218,7.783z M15.227,10.774L15.5,11
			c0.391,0.392,0.391,1.11,0,1.5c-0.391,0.392-1.109,0.392-1.5,0l-0.273-0.226L15.227,10.774z M17,15.5c0,0.829-0.674,1.5-1.5,1.5
			c-0.827,0-1.5-0.671-1.5-1.5c0-0.825,0.673-1.5,1.5-1.5C16.326,14,17,14.675,17,15.5z M12,17c0.826,0,1.5,0.675,1.5,1.5
			c0,0.829-0.674,1.5-1.5,1.5c-0.827,0-1.5-0.671-1.5-1.5C10.5,17.675,11.173,17,12,17z M9,12.5c-0.827,0-1.5-0.671-1.5-1.5
			c0-0.825,0.673-1.5,1.5-1.5c0.826,0,1.5,0.675,1.5,1.5C10.5,11.829,9.826,12.5,9,12.5z M9.5,15.5C9.5,16.329,8.826,17,8,17
			c-0.827,0-1.5-0.671-1.5-1.5C6.5,14.675,7.173,14,8,14C8.826,14,9.5,14.675,9.5,15.5z M11.5,23C6.813,23,3,19.188,3,14.5
			c0-4.518,3.545-8.226,8-8.484v1.51C7.368,7.783,4.5,10.804,4.5,14.5c0,3.867,3.134,7,7,7s7-3.133,7-7
			c0-1.752-0.648-3.35-1.714-4.578l1.067-1.067C19.241,10.411,20,12.396,20,14.5C20,19.188,16.187,23,11.5,23z"/>
		<path d="M13.311,9.963C13.491,10.038,13.71,10,13.857,9.85l6.363-6.5c0.095-0.096,0.146-0.227,0.143-0.361
			c-0.004-0.136-0.063-0.263-0.161-0.355C18.358,0.935,15.979,0,13.5,0C13.224,0,13,0.226,13,0.5v2.02V9.5
			C13,9.705,13.123,9.887,13.311,9.963z M15.736,7.223l-0.258-0.243c-0.391-0.391-0.391-1.109,0-1.5c0.391-0.391,1.109-0.391,1.5,0
			l0.266,0.234L15.736,7.223z M14,1.015c1.876,0.106,3.668,0.811,5.136,2.015l-0.719,0.734C17.223,2.715,15.713,2.119,14,2.023
			V1.015z"/>
	</g>
</g>
<g id="invisible_shape">
	<rect fill="none" width="24" height="24"/>
</g>
</svg>
