<?xml version="1.0" encoding="utf-8"?>
<!-- Generator: Adobe Illustrator 19.2.0, SVG Export Plug-In . SVG Version: 6.00 Build 0)  -->
<svg version="1.1" xmlns="http://www.w3.org/2000/svg" xmlns:xlink="http://www.w3.org/1999/xlink" x="0px" y="0px" width="24px"
	 height="24px" viewBox="0 0 24 24" enable-background="new 0 0 24 24" xml:space="preserve">
<g id="Filled_Icons">
	<g>
		<path d="M20.5,7H17v5h3.72l0.279-4.467c0.009-0.139-0.04-0.274-0.135-0.375C20.77,7.058,20.638,7,20.5,7z"/>
		<rect x="11" y="17" width="2" height="7"/>
		<rect x="11" y="7" width="2" height="5"/>
		<rect x="14" y="17" width="2" height="7"/>
		<rect x="8" y="7" width="2" height="5"/>
		<path d="M7,7H3.5C3.361,7,3.23,7.058,3.136,7.158C3.041,7.259,2.992,7.394,3.001,7.533L3.28,12H7V7z"/>
		<path d="M17,24h2.5c0.264,0,0.482-0.205,0.499-0.467L20.407,17H17V24z"/>
		<rect x="8" y="17" width="2" height="7"/>
		<polygon points="3.53,16 20.47,16 20.657,13 3.343,13 		"/>
		<rect x="14" y="7" width="2" height="5"/>
		<path d="M4.001,23.533C4.018,23.795,4.235,24,4.5,24H7v-7H3.593L4.001,23.533z"/>
		<path d="M3.5,6C3.776,6,4,5.777,4,5.5c0-1.276,0.515-2.162,1.413-2.429c0.836-0.247,1.784,0.107,2.263,0.843
			c0.109,0.17,0.312,0.256,0.509,0.219C8.383,4.097,8.54,3.945,8.583,3.748c0.441-2.02,2.114-2.737,3.412-2.737
			c1.302,0,2.979,0.717,3.422,2.737c0.043,0.197,0.2,0.349,0.398,0.385c0.201,0.039,0.399-0.049,0.509-0.22
			c0.478-0.734,1.428-1.089,2.264-0.842C19.485,3.337,20,4.223,20,5.5C20,5.777,20.224,6,20.5,6S21,5.777,21,5.5
			c0-1.726-0.796-2.992-2.128-3.388c-0.944-0.28-1.989-0.046-2.751,0.561c-0.778-1.832-2.549-2.662-4.126-2.662
			c-1.571,0-3.336,0.829-4.114,2.657c-0.76-0.612-1.792-0.84-2.752-0.556C3.796,2.508,3,3.774,3,5.5C3,5.777,3.224,6,3.5,6z"/>
	</g>
</g>
<g id="invisible_shape">
	<rect fill="none" width="24" height="24"/>
</g>
</svg>
