<?xml version="1.0" encoding="utf-8"?>
<!-- Generator: Adobe Illustrator 19.2.0, SVG Export Plug-In . SVG Version: 6.00 Build 0)  -->
<svg version="1.1" xmlns="http://www.w3.org/2000/svg" xmlns:xlink="http://www.w3.org/1999/xlink" x="0px" y="0px" width="24px"
	 height="24px" viewBox="0 0 24 24" enable-background="new 0 0 24 24" xml:space="preserve">
<g id="Filled_Icons">
	<path d="M16.076,2.719c-1.342,0-2.667,0.343-3.833,0.989c-0.152,0.084-0.335,0.084-0.485,0c-1.167-0.646-2.493-0.989-3.834-0.989
		C3.555,2.719,0,6.273,0,10.643c0,3.333,1.323,6.136,3.828,8.106C5.998,20.457,8.9,21.397,12,21.397c5.963,0,12-3.694,12-10.755
		C24,6.273,20.445,2.719,16.076,2.719z M11.606,7.17c0.189-0.243,0.6-0.243,0.789,0c0.78,1.001,1.192,2.203,1.192,3.472
		c0,0.963-0.411,2.05-1.19,3.146c-0.094,0.132-0.245,0.21-0.407,0.21c-0.001,0-0.001,0-0.001,0c-0.163,0-0.315-0.08-0.408-0.213
		c-0.764-1.089-1.167-2.177-1.167-3.143C10.413,9.373,10.825,8.171,11.606,7.17z M6.312,17.263c-0.077,0-0.155-0.018-0.226-0.053
		c-2.788-1.411-3.825-3.191-3.825-6.567c0-3.122,2.54-5.663,5.663-5.663c0.506,0,1.009,0.068,1.494,0.201
		c0.159,0.043,0.286,0.163,0.341,0.318c0.054,0.155,0.027,0.328-0.069,0.461c-1.006,1.367-1.537,2.987-1.537,4.684
		c0,1.762,0.052,2.675,1.221,4.171c0.082,0.105,0.119,0.238,0.103,0.371c-0.017,0.132-0.086,0.252-0.191,0.333
		c-0.821,0.632-1.748,1.202-2.753,1.694C6.462,17.247,6.387,17.263,6.312,17.263z M15.4,19.123
		c-1.089,0.327-2.209,0.494-3.328,0.494c-1.146,0-2.303-0.175-3.438-0.518c-0.193-0.058-0.332-0.226-0.353-0.427
		c-0.021-0.201,0.08-0.395,0.257-0.49c1.124-0.616,3.206-1.98,3.227-1.994c0.164-0.108,0.376-0.109,0.542-0.005l3.217,2.038
		c0.165,0.105,0.254,0.297,0.228,0.49C15.726,18.905,15.588,19.065,15.4,19.123z M17.866,17.211
		c-0.07,0.036-0.147,0.054-0.225,0.054c-0.076,0-0.151-0.017-0.222-0.052c-1.012-0.5-1.941-1.074-2.763-1.706
		c-0.106-0.083-0.175-0.203-0.191-0.334c-0.017-0.133,0.021-0.267,0.103-0.372c1.222-1.552,1.278-2.493,1.278-4.158
		c0-1.697-0.531-3.316-1.537-4.684c-0.097-0.133-0.123-0.306-0.069-0.461c0.055-0.155,0.182-0.274,0.341-0.318
		c0.485-0.133,0.988-0.201,1.494-0.201c3.123,0,5.663,2.541,5.663,5.663C21.739,14.01,20.69,15.79,17.866,17.211z"/>
</g>
<g id="invisible_shape">
	<rect fill="none" width="24" height="24"/>
</g>
</svg>
