<?xml version="1.0" encoding="utf-8"?>
<!-- Generator: Adobe Illustrator 19.2.0, SVG Export Plug-In . SVG Version: 6.00 Build 0)  -->
<svg version="1.1" xmlns="http://www.w3.org/2000/svg" xmlns:xlink="http://www.w3.org/1999/xlink" x="0px" y="0px" width="24px"
	 height="24px" viewBox="0 0 24 24" enable-background="new 0 0 24 24" xml:space="preserve">
<g id="Filled_Icons">
	<g>
		<path d="M13,6.994V1.5C13,1.224,12.776,1,12.5,1S12,1.224,12,1.5v5.494c-1.457-0.021-4.263-0.02-5.862,1.552
			C5.383,9.289,5,10.282,5,11.5c0,3.575,4.061,6.242,6.127,7.369c0.327,0.617,0.094,0.811-0.451,1.238
			c-0.552,0.434-1.475,1.158-0.653,2.571c0.139,0.239,0.445,0.319,0.684,0.182c0.239-0.14,0.32-0.445,0.182-0.684
			c-0.385-0.662-0.17-0.831,0.405-1.282c0.223-0.175,0.501-0.4,0.707-0.695V23.5c0,0.276,0.224,0.5,0.5,0.5s0.5-0.224,0.5-0.5
			v-3.301c0.206,0.295,0.484,0.521,0.707,0.695c0.575,0.451,0.79,0.62,0.405,1.282c-0.139,0.238-0.058,0.544,0.182,0.684
			c0.238,0.138,0.545,0.058,0.684-0.182c0.821-1.413-0.101-2.138-0.653-2.571c-0.545-0.428-0.778-0.621-0.451-1.238
			C15.939,17.742,20,15.075,20,11.5c0-1.218-0.383-2.211-1.138-2.954C17.263,6.973,14.461,6.973,13,6.994z"/>
		<path d="M21.033,1.67c-3.524-0.773-6.694,1.142-7.467,4.667C17.091,7.109,20.259,5.195,21.033,1.67z"/>
		<path d="M11,6.337c-0.773-3.525-3.942-5.44-7.467-4.667C4.308,5.195,7.476,7.109,11,6.337z"/>
	</g>
</g>
<g id="invisible_shape">
	<rect fill="none" width="24" height="24"/>
</g>
</svg>
