<?xml version="1.0" encoding="utf-8"?>
<!-- Generator: Adobe Illustrator 19.2.0, SVG Export Plug-In . SVG Version: 6.00 Build 0)  -->
<svg version="1.1" xmlns="http://www.w3.org/2000/svg" xmlns:xlink="http://www.w3.org/1999/xlink" x="0px" y="0px" width="24px"
	 height="24px" viewBox="0 0 24 24" enable-background="new 0 0 24 24" xml:space="preserve">
<g id="Filled_Icons">
	<g>
		<g>
			<path d="M8.003,12.994c-0.276,0-0.5-0.225-0.5-0.5c0-0.828-0.673-1.5-1.5-1.5c-0.827,0-1.5,0.672-1.5,1.5
				c0,0.275-0.224,0.5-0.5,0.5c-0.276,0-0.5-0.225-0.5-0.5c0-1.379,1.121-2.5,2.5-2.5s2.5,1.121,2.5,2.5
				C8.503,12.769,8.279,12.994,8.003,12.994z"/>
		</g>
		<g>
			<path d="M15.503,14.744c-0.276,0-0.5-0.225-0.5-0.5c0-0.551-0.448-1-1-1c-0.552,0-1,0.449-1,1c0,0.275-0.224,0.5-0.5,0.5
				c-0.276,0-0.5-0.225-0.5-0.5c0-1.104,0.898-2,2-2c1.103,0,2,0.896,2,2C16.003,14.519,15.779,14.744,15.503,14.744z"/>
		</g>
		<g>
			<path d="M12.003,10.994c-0.276,0-0.5-0.225-0.5-0.5c0-0.276-0.225-0.5-0.5-0.5s-0.5,0.224-0.5,0.5c0,0.275-0.224,0.5-0.5,0.5
				c-0.276,0-0.5-0.225-0.5-0.5c0-0.828,0.673-1.5,1.5-1.5c0.827,0,1.5,0.672,1.5,1.5C12.503,10.769,12.279,10.994,12.003,10.994z"
				/>
		</g>
		<path d="M22.44,0.097c-0.827-0.307-1.806,0.147-2.102,0.929l-2.837,6.252c-1.821-0.51-3.876-0.783-5.967-0.783
			c-5.399,0-11.2,1.906-11.502,5H0.003v2c0,6.574,4.311,10.5,11.531,10.5c7.182,0,11.469-3.926,11.469-10.5v-2h-0.019
			c-0.086-0.855-0.631-1.668-1.558-2.392l1.972-6.89C23.715,1.368,23.286,0.42,22.44,0.097z M22.003,11.744
			c0,2.224-4.99,4.25-10.469,4.25c-5.512,0-10.531-2.026-10.531-4.25c0-2.225,5.02-4.25,10.531-4.25c1.944,0,3.85,0.25,5.547,0.707
			l-1.45,3.196c-0.062,0.136-0.06,0.292,0.006,0.426c0.065,0.134,0.188,0.231,0.332,0.267c0.521,0.125,1.318,0.274,2.167,0.274
			c1.063,0,1.891-0.235,2.464-0.701c0.079-0.065,0.137-0.152,0.165-0.251l0.365-1.274C21.604,10.569,22.003,11.116,22.003,11.744z"
			/>
	</g>
</g>
<g id="invisible_shape">
	<rect fill="none" width="24" height="24"/>
</g>
</svg>
