<?xml version="1.0" encoding="utf-8"?>
<!-- Generator: Adobe Illustrator 19.2.0, SVG Export Plug-In . SVG Version: 6.00 Build 0)  -->
<svg version="1.1" xmlns="http://www.w3.org/2000/svg" xmlns:xlink="http://www.w3.org/1999/xlink" x="0px" y="0px" width="24px"
	 height="24px" viewBox="0 0 24 24" enable-background="new 0 0 24 24" xml:space="preserve">
<g id="Filled_Icons">
	<g>
		<g>
			<path d="M19.063,10.939l1.298-1.298c0.391-0.39,0.391-1.023,0-1.414c-0.391-0.391-1.023-0.391-1.414,0l-1.299,1.298
				L19.063,10.939z"/>
			<path d="M16.941,8.818l1.299-1.299c0.391-0.391,0.391-1.023,0-1.415c-0.391-0.39-1.023-0.39-1.414,0l-1.299,1.299L16.941,8.818z"
				/>
			<path d="M7.749,15.182l-7.11,7.111c-0.391,0.391-0.391,1.023,0,1.414c0.391,0.391,1.023,0.391,1.414,0l7.11-7.111L7.749,15.182z"
				/>
			<path d="M14.82,6.696l1.299-1.298c0.391-0.39,0.391-1.023,0-1.414c-0.391-0.391-1.023-0.391-1.414,0l-1.299,1.299L14.82,6.696z"
				/>
		</g>
		<path d="M22.685,15.975L8.371,1.661c-1.756-1.758-4.607-1.76-6.364,0c-1.758,1.756-1.76,4.605,0,6.364L16.32,22.339
			c1.76,1.758,4.605,1.758,6.364,0C24.438,20.585,24.438,17.729,22.685,15.975z M3.846,5.5c0-0.276,0.224-0.5,0.5-0.5h4
			c0.276,0,0.5,0.224,0.5,0.5S8.622,6,8.346,6h-4C4.069,6,3.846,5.776,3.846,5.5z M7.846,9.5c0-0.276,0.224-0.5,0.5-0.5h4
			c0.276,0,0.5,0.224,0.5,0.5s-0.224,0.5-0.5,0.5h-4C8.069,10,7.846,9.776,7.846,9.5z M11.846,13.5c0-0.276,0.224-0.5,0.5-0.5h4
			c0.276,0,0.5,0.224,0.5,0.5s-0.224,0.5-0.5,0.5h-4C12.069,14,11.846,13.776,11.846,13.5z M20.346,18h-4
			c-0.276,0-0.5-0.224-0.5-0.5s0.224-0.5,0.5-0.5h4c0.276,0,0.5,0.224,0.5,0.5S20.622,18,20.346,18z"/>
	</g>
</g>
<g id="invisible_shape">
	<rect fill="none" width="24" height="24"/>
</g>
</svg>
