<?xml version="1.0" encoding="utf-8"?>
<!-- Generator: Adobe Illustrator 19.2.0, SVG Export Plug-In . SVG Version: 6.00 Build 0)  -->
<svg version="1.1" xmlns="http://www.w3.org/2000/svg" xmlns:xlink="http://www.w3.org/1999/xlink" x="0px" y="0px" width="24px"
	 height="24px" viewBox="0 0 24 24" enable-background="new 0 0 24 24" xml:space="preserve">
<g id="Filled_Icons">
	<g>
		<path d="M12.5,17H15c0.276,0,0.5-0.224,0.5-0.5S15.276,16,15,16h-2v-2h2c0.276,0,0.5-0.224,0.5-0.5S15.276,13,15,13h-2v-2h2
			c0.276,0,0.5-0.224,0.5-0.5S15.276,10,15,10h-2V8.001h2c0.276,0,0.5-0.224,0.5-0.5c0-0.276-0.224-0.5-0.5-0.5h-2.495
			C12.503,7.001,12.502,7,12.5,7c-2.023,0-3.731,1.19-4.37,3H0.5C0.224,10,0,10.224,0,10.5v3C0,13.776,0.224,14,0.5,14h7.63
			C8.769,15.81,10.477,17,12.5,17z"/>
		<path d="M22,8h1.5C23.776,8,24,7.776,24,7.5S23.776,7,23.5,7H22c-0.276,0-0.5,0.224-0.5,0.5S21.724,8,22,8z"/>
		<path d="M23.5,10.001H22c-0.276,0-0.5,0.224-0.5,0.5c0,0.276,0.224,0.5,0.5,0.5h1.5c0.276,0,0.5-0.224,0.5-0.5
			C24,10.225,23.776,10.001,23.5,10.001z"/>
		<path d="M23.5,13H22c-0.276,0-0.5,0.224-0.5,0.5S21.724,14,22,14h1.5c0.276,0,0.5-0.224,0.5-0.5S23.776,13,23.5,13z"/>
		<path d="M23.5,16H22c-0.276,0-0.5,0.224-0.5,0.5S21.724,17,22,17h1.5c0.276,0,0.5-0.224,0.5-0.5S23.776,16,23.5,16z"/>
		<path d="M18.5,6.5C18.224,6.5,18,6.724,18,7v10c0,0.276,0.224,0.5,0.5,0.5S19,17.276,19,17V7C19,6.724,18.776,6.5,18.5,6.5z"/>
		<path d="M20.5,6.5C20.224,6.5,20,6.724,20,7v10c0,0.276,0.224,0.5,0.5,0.5S21,17.276,21,17V7C21,6.724,20.776,6.5,20.5,6.5z"/>
		<path d="M16.5,6.5C16.224,6.5,16,6.724,16,7v10c0,1.103-0.898,2-2,2h-3c-1.654,0-3,1.348-3,3.004v0.502v0.001
			c0.001,0.275,0.225,0.499,0.5,0.499c0.276,0,0.5-0.225,0.5-0.5v-0.502C9,20.899,9.898,20,11,20h3c1.654,0,3-1.346,3-3V7
			C17,6.724,16.776,6.5,16.5,6.5z"/>
	</g>
</g>
<g id="invisible_shape">
	<rect fill="none" width="24" height="24"/>
</g>
</svg>
