<?xml version="1.0" encoding="utf-8"?>
<!-- Generator: Adobe Illustrator 19.2.0, SVG Export Plug-In . SVG Version: 6.00 Build 0)  -->
<svg version="1.1" xmlns="http://www.w3.org/2000/svg" xmlns:xlink="http://www.w3.org/1999/xlink" x="0px" y="0px" width="24px"
	 height="24px" viewBox="0 0 24 24" enable-background="new 0 0 24 24" xml:space="preserve">
<g id="Filled_Icons">
	<g>
		<g>
			<path d="M13.003,5.979c2.757,0,5-2.243,5-5c0-0.276-0.224-0.5-0.5-0.5c-2.757,0-5,2.243-5,5
				C12.503,5.756,12.727,5.979,13.003,5.979z"/>
		</g>
		<g>
			<path d="M11.003,5.979c0.276,0,0.5-0.224,0.5-0.5c0-2.757-2.243-5-5-5c-0.276,0-0.5,0.224-0.5,0.5
				C6.003,3.736,8.246,5.979,11.003,5.979z"/>
		</g>
		<path d="M16.003,7L7.947,7.003c-3.132,0.349-4.825,2.393-4.645,5.641C3.565,17.393,7.999,24,12.003,24s8.437-6.607,8.7-11.356
			C20.884,9.396,19.19,7.352,16.003,7z M8.356,12.333c-0.195,0.195-0.512,0.195-0.707,0l-1-1c-0.195-0.195-0.195-0.512,0-0.707
			c0.195-0.195,0.512-0.195,0.707,0l1,1C8.552,11.821,8.552,12.138,8.356,12.333z M10.606,16.333c-0.195,0.195-0.512,0.195-0.707,0
			l-1-1c-0.195-0.195-0.195-0.512,0-0.707c0.195-0.195,0.512-0.195,0.707,0l1,1C10.802,15.821,10.802,16.138,10.606,16.333z
			 M12.856,19.833c-0.195,0.195-0.512,0.195-0.707,0l-1-1c-0.195-0.195-0.195-0.512,0-0.707c0.195-0.195,0.512-0.195,0.707,0l1,1
			C13.052,19.321,13.052,19.638,12.856,19.833z M12.856,12.333c-0.195,0.195-0.512,0.195-0.707,0l-1-1
			c-0.195-0.195-0.195-0.512,0-0.707c0.195-0.195,0.512-0.195,0.707,0l1,1C13.052,11.821,13.052,12.138,12.856,12.333z
			 M15.106,16.333c-0.195,0.195-0.512,0.195-0.707,0l-1-1c-0.195-0.195-0.195-0.512,0-0.707c0.195-0.195,0.512-0.195,0.707,0l1,1
			C15.302,15.821,15.302,16.138,15.106,16.333z M17.356,12.333c-0.195,0.195-0.512,0.195-0.707,0l-1-1
			c-0.195-0.195-0.195-0.512,0-0.707c0.195-0.195,0.512-0.195,0.707,0l1,1C17.552,11.821,17.552,12.138,17.356,12.333z"/>
	</g>
</g>
<g id="invisible_shape">
	<rect fill="none" width="24" height="24"/>
</g>
</svg>
