<?xml version="1.0" encoding="utf-8"?>
<!-- Generator: Adobe Illustrator 19.2.0, SVG Export Plug-In . SVG Version: 6.00 Build 0)  -->
<svg version="1.1" xmlns="http://www.w3.org/2000/svg" xmlns:xlink="http://www.w3.org/1999/xlink" x="0px" y="0px" width="24px"
	 height="24px" viewBox="0 0 24 24" enable-background="new 0 0 24 24" xml:space="preserve">
<g id="Filled_Icons">
	<g>
		<path d="M5.141,19.046c-1.66-0.488-2.754-2.188-2.43-3.965c-0.179-0.163-0.191-0.203-0.34-0.389
			c-0.023,0.231-0.05,0.461-0.058,0.696c-0.085,2.616,0.928,5.177,2.777,7.026l0.354,0.354c0.976,0.976,2.561,0.976,3.536,0
			l0.513-0.513C7.31,22.813,5.234,21.244,5.141,19.046z"/>
		<path d="M8.782,3.907c2.196-1.931,5.029-2.738,7.807-2.48C15.665,0.26,13.968,0.11,12.838,1.24c-1.601-1.063-3.764,0-3.869,1.944
			c-2.116-0.982-4.288,1.197-3.31,3.309c-1.975,0.108-3.02,2.323-1.906,3.914c-1.572,0.988-1.565,3.335,0.119,4.278
			c-0.744,1.68,0.504,3.566,2.363,3.503c-0.648,2.257,1.853,4.045,3.769,2.776l-1.731-1.732C4.016,14.976,4.169,7.943,8.782,3.907z"
			/>
		<path d="M9.441,4.659c-2.003,1.761-3.153,4.188-3.238,6.84c-0.085,2.616,0.927,5.177,2.777,7.027l1.767,1.767
			c0.195,0.195,0.512,0.195,0.707,0L22.769,8.981c0.976-0.975,0.976-2.561,0-3.536C18.777,1.453,13.027,1.51,9.441,4.659z
			 M11.444,15.824c-0.195,0.194-0.512,0.194-0.707,0c-0.195-0.197-0.195-0.512,0-0.708c0.196-0.194,0.512-0.196,0.708,0
			C11.64,15.311,11.641,15.628,11.444,15.824z M13.445,13.822l-0.001,0.001c-0.195,0.195-0.512,0.194-0.707,0
			c-0.196-0.196-0.195-0.512,0-0.707c0.195-0.195,0.512-0.196,0.707,0C13.64,13.311,13.641,13.628,13.445,13.822z M11.445,11.824
			c-0.195,0.194-0.513,0.194-0.707,0c-0.196-0.197-0.196-0.513,0-0.708c0.195-0.194,0.511-0.196,0.707,0
			C11.64,11.311,11.641,11.628,11.445,11.824z M15.444,11.824c-0.195,0.194-0.512,0.194-0.707,0c-0.195-0.197-0.195-0.512,0-0.708
			c0.196-0.194,0.512-0.196,0.707,0C15.64,11.311,15.641,11.628,15.444,11.824z M13.445,9.824c-0.195,0.194-0.513,0.194-0.707,0
			c-0.196-0.197-0.196-0.513,0-0.708c0.195-0.194,0.511-0.196,0.707,0C13.64,9.311,13.641,9.628,13.445,9.824z M11.445,7.824
			c-0.195,0.194-0.513,0.194-0.707,0c-0.196-0.197-0.196-0.512,0-0.708c0.195-0.195,0.511-0.196,0.707,0
			C11.64,7.312,11.641,7.628,11.445,7.824z M14.737,7.116c0.196-0.194,0.512-0.196,0.708,0c0.194,0.195,0.195,0.512-0.001,0.708
			c-0.195,0.194-0.512,0.193-0.707,0C14.542,7.628,14.542,7.313,14.737,7.116z M17.445,9.822L17.445,9.822
			c-0.196,0.196-0.513,0.195-0.708,0.001c-0.196-0.196-0.195-0.512,0-0.707c0.195-0.195,0.512-0.196,0.707,0
			C17.64,9.311,17.641,9.628,17.445,9.822z M19.445,7.824c-0.195,0.194-0.513,0.194-0.707,0c-0.196-0.196-0.196-0.513,0-0.708
			c0.195-0.194,0.511-0.196,0.707,0C19.64,7.312,19.641,7.628,19.445,7.824z"/>
	</g>
</g>
<g id="invisible_shape">
	<rect fill="none" width="24" height="24"/>
</g>
</svg>
