<?xml version="1.0" encoding="utf-8"?>
<!-- Generator: Adobe Illustrator 19.2.0, SVG Export Plug-In . SVG Version: 6.00 Build 0)  -->
<svg version="1.1" xmlns="http://www.w3.org/2000/svg" xmlns:xlink="http://www.w3.org/1999/xlink" x="0px" y="0px" width="24px"
	 height="24px" viewBox="0 0 24 24" enable-background="new 0 0 24 24" xml:space="preserve">
<g id="Filled_Icons">
	<path d="M23,3.5C23,1.57,21.43,0,19.5,0h-15C2.57,0,1,1.57,1,3.5c0,1.633,1.123,3.007,2.638,3.393C3.231,7.498,3,8.142,3,8.908
		V23.5C3,23.776,3.224,24,3.5,24h17c0.276,0,0.5-0.224,0.5-0.5V8.908c0-0.767-0.231-1.41-0.638-2.016C21.877,6.507,23,5.133,23,3.5z
		 M6.548,13.755c-0.195-0.195-0.195-0.512,0-0.707l4.5-4.5c0.195-0.195,0.512-0.195,0.707,0c0.195,0.195,0.195,0.512,0,0.707
		l-4.5,4.5C7.06,13.95,6.743,13.95,6.548,13.755z M7.935,18.025c-0.195-0.195-0.195-0.512,0-0.707l7.424-7.425
		c0.195-0.195,0.512-0.195,0.707,0c0.195,0.195,0.195,0.512,0,0.707l-7.424,7.425C8.445,18.221,8.13,18.221,7.935,18.025z
		 M17.411,14.911l-4.5,4.5c-0.195,0.195-0.512,0.195-0.707,0c-0.195-0.195-0.195-0.512,0-0.707l4.5-4.5
		c0.195-0.195,0.512-0.195,0.707,0C17.606,14.399,17.606,14.716,17.411,14.911z"/>
</g>
<g id="invisible_shape">
	<rect fill="none" width="24" height="24"/>
</g>
</svg>
