<?xml version="1.0" encoding="utf-8"?>
<!-- Generator: Adobe Illustrator 19.2.0, SVG Export Plug-In . SVG Version: 6.00 Build 0)  -->
<svg version="1.1" xmlns="http://www.w3.org/2000/svg" xmlns:xlink="http://www.w3.org/1999/xlink" x="0px" y="0px" width="24px"
	 height="24px" viewBox="0 0 24 24" enable-background="new 0 0 24 24" xml:space="preserve">
<g id="Filled_Icons">
	<g>
		<path d="M19.59,0.135c-0.195-0.184-0.504-0.18-0.695,0.011l-1.751,1.75c5.296,4.767,4.866,11.852,0.736,15.982
			c-2.111,2.11-4.884,3.167-7.657,3.167c-2.773,0-5.545-1.057-7.656-3.167c-0.087-0.086-0.665-0.737-0.665-0.737l-1.752,1.752
			c-0.19,0.19-0.196,0.498-0.012,0.693C2.747,22.527,6.614,24,10.223,24c3.681,0,7.142-1.434,9.744-4.035
			c2.602-2.602,4.036-6.063,4.036-9.744C24.003,6.117,22.164,2.398,19.59,0.135z"/>
		<path d="M2.627,16.451c0,0,0.576,0.65,0.646,0.719c3.832,3.832,10.067,3.834,13.899,0c3.709-3.709,4.206-10.147-0.718-14.547
			L2.627,16.451z M7.789,17.607c-0.544,0-0.984-0.658-0.984-1.475c0-0.814,0.44-1.476,0.984-1.476c0.543,0,0.983,0.661,0.983,1.476
			C8.773,16.949,8.332,17.607,7.789,17.607z M14.396,14.394c-0.384,0.385-1.162,0.227-1.739-0.347
			c-0.576-0.578-0.731-1.356-0.348-1.739c0.385-0.386,1.163-0.229,1.739,0.347C14.625,13.231,14.781,14.01,14.396,14.394z
			 M17.611,7.785c0,0.545-0.661,0.984-1.476,0.984c-0.815,0-1.476-0.439-1.476-0.984c0-0.542,0.66-0.983,1.476-0.983
			C16.95,6.803,17.611,7.243,17.611,7.785z"/>
	</g>
</g>
<g id="invisible_shape">
	<rect fill="none" width="24" height="24"/>
</g>
</svg>
