<?xml version="1.0" encoding="utf-8"?>
<!-- Generator: Adobe Illustrator 19.2.0, SVG Export Plug-In . SVG Version: 6.00 Build 0)  -->
<svg version="1.1" xmlns="http://www.w3.org/2000/svg" xmlns:xlink="http://www.w3.org/1999/xlink" x="0px" y="0px" width="24px"
	 height="24px" viewBox="0 0 24 24" enable-background="new 0 0 24 24" xml:space="preserve">
<g id="Filled_Icons">
	<g>
		<g>
			<path d="M5.5,23.99c-0.276,0-0.5-0.224-0.5-0.5V0.506c0-0.276,0.224-0.5,0.5-0.5S6,0.229,6,0.506V23.49
				C6,23.767,5.776,23.99,5.5,23.99z"/>
		</g>
		<g>
			<path d="M3.5,8.49c-0.11,0-0.221-0.037-0.31-0.108C0.362,6.139,0,3.253,0,0.99c0-0.202,0.122-0.385,0.309-0.462
				C0.495,0.45,0.711,0.494,0.854,0.637l3,3C3.947,3.73,4,3.857,4,3.99v4c0,0.191-0.109,0.367-0.282,0.45
				C3.648,8.474,3.574,8.49,3.5,8.49z"/>
		</g>
		<g>
			<path d="M3.5,16.006c-0.11,0-0.221-0.037-0.31-0.108C0.362,13.654,0,10.769,0,8.506c0-0.202,0.122-0.385,0.309-0.462
				c0.186-0.076,0.402-0.035,0.545,0.108l3,3C3.947,11.246,4,11.373,4,11.506v4c0,0.191-0.109,0.367-0.282,0.45
				C3.648,15.989,3.574,16.006,3.5,16.006z"/>
		</g>
		<g>
			<path d="M3.5,23.521c-0.11,0-0.221-0.037-0.31-0.108C0.362,21.17,0,18.284,0,16.021c0-0.202,0.122-0.385,0.309-0.462
				c0.186-0.076,0.402-0.034,0.545,0.108l3,3C3.947,18.762,4,18.889,4,19.021v4c0,0.191-0.109,0.367-0.282,0.45
				C3.648,23.505,3.574,23.521,3.5,23.521z"/>
		</g>
		<g>
			<path d="M7.5,8.49c-0.074,0-0.148-0.017-0.218-0.05C7.109,8.357,7,8.182,7,7.99v-4c0-0.133,0.053-0.26,0.147-0.354l3-3
				c0.144-0.143,0.358-0.187,0.545-0.108C10.878,0.605,11,0.788,11,0.99c0,2.263-0.362,5.148-3.189,7.392
				C7.721,8.453,7.61,8.49,7.5,8.49z"/>
		</g>
		<g>
			<path d="M7.5,16.006c-0.074,0-0.148-0.017-0.218-0.05C7.109,15.873,7,15.697,7,15.506v-4c0-0.133,0.053-0.26,0.147-0.354l3-3
				c0.144-0.144,0.358-0.185,0.545-0.108C10.878,8.121,11,8.304,11,8.506c0,2.263-0.362,5.148-3.189,7.392
				C7.721,15.969,7.61,16.006,7.5,16.006z"/>
		</g>
		<g>
			<path d="M7.5,23.521c-0.074,0-0.148-0.017-0.218-0.05C7.109,23.389,7,23.213,7,23.021v-4c0-0.133,0.053-0.26,0.147-0.354l3-3
				c0.144-0.144,0.358-0.186,0.545-0.108C10.878,15.637,11,15.819,11,16.021c0,2.263-0.362,5.148-3.189,7.392
				C7.721,23.484,7.61,23.521,7.5,23.521z"/>
		</g>
		<g>
			<path d="M18.5,23.99c-0.276,0-0.5-0.224-0.5-0.5V0.506c0-0.276,0.224-0.5,0.5-0.5s0.5,0.224,0.5,0.5V23.49
				C19,23.767,18.776,23.99,18.5,23.99z"/>
		</g>
		<g>
			<path d="M16.5,8.49c-0.11,0-0.221-0.037-0.31-0.108C13.362,6.139,13,3.253,13,0.99c0-0.202,0.122-0.385,0.309-0.462
				c0.186-0.078,0.402-0.034,0.545,0.108l3,3C16.947,3.73,17,3.857,17,3.99v4c0,0.191-0.109,0.367-0.282,0.45
				C16.648,8.474,16.574,8.49,16.5,8.49z"/>
		</g>
		<g>
			<path d="M16.5,16.006c-0.11,0-0.221-0.037-0.31-0.108C13.362,13.654,13,10.769,13,8.506c0-0.202,0.122-0.385,0.309-0.462
				c0.186-0.076,0.402-0.035,0.545,0.108l3,3C16.947,11.246,17,11.373,17,11.506v4c0,0.191-0.109,0.367-0.282,0.45
				C16.648,15.989,16.574,16.006,16.5,16.006z"/>
		</g>
		<g>
			<path d="M16.5,23.521c-0.11,0-0.221-0.037-0.31-0.108C13.362,21.17,13,18.284,13,16.021c0-0.202,0.122-0.385,0.309-0.462
				c0.186-0.076,0.402-0.034,0.545,0.108l3,3C16.947,18.762,17,18.889,17,19.021v4c0,0.191-0.109,0.367-0.282,0.45
				C16.648,23.505,16.574,23.521,16.5,23.521z"/>
		</g>
		<g>
			<path d="M20.5,8.49c-0.074,0-0.148-0.017-0.218-0.05C20.109,8.357,20,8.182,20,7.99v-4c0-0.133,0.053-0.26,0.146-0.354l3-3
				c0.144-0.143,0.36-0.187,0.545-0.108C23.878,0.605,24,0.788,24,0.99c0,2.263-0.362,5.148-3.19,7.392
				C20.721,8.453,20.61,8.49,20.5,8.49z"/>
		</g>
		<g>
			<path d="M20.5,16.006c-0.074,0-0.148-0.017-0.218-0.05C20.109,15.873,20,15.697,20,15.506v-4c0-0.133,0.053-0.26,0.146-0.354l3-3
				c0.144-0.144,0.36-0.185,0.545-0.108C23.878,8.121,24,8.304,24,8.506c0,2.263-0.362,5.148-3.19,7.392
				C20.721,15.969,20.61,16.006,20.5,16.006z"/>
		</g>
		<g>
			<path d="M20.5,23.521c-0.074,0-0.148-0.017-0.218-0.05C20.109,23.389,20,23.213,20,23.021v-4c0-0.133,0.053-0.26,0.146-0.354l3-3
				c0.144-0.144,0.36-0.186,0.545-0.108C23.878,15.637,24,15.819,24,16.021c0,2.263-0.362,5.148-3.19,7.392
				C20.721,23.484,20.61,23.521,20.5,23.521z"/>
		</g>
	</g>
</g>
<g id="invisible_shape">
	<rect fill="none" width="24" height="24"/>
</g>
</svg>
