<?xml version="1.0" encoding="utf-8"?>
<!-- Generator: Adobe Illustrator 19.2.0, SVG Export Plug-In . SVG Version: 6.00 Build 0)  -->
<svg version="1.1" xmlns="http://www.w3.org/2000/svg" xmlns:xlink="http://www.w3.org/1999/xlink" x="0px" y="0px" width="24px"
	 height="24px" viewBox="0 0 24 24" enable-background="new 0 0 24 24" xml:space="preserve">
<g id="Filled_Icons">
	<g>
		<path d="M6.533,16.442l1.74-4.167c-0.467-0.531-0.809-1.165-1.021-1.856C4.685,8.996,1.588,7.218,0.877,6.576
			C0.732,6.446,0.529,6.411,0.35,6.485C0.173,6.559,0.053,6.727,0.041,6.92c-0.229,4.269,0.602,7.155,2.467,8.578
			c0.965,0.735,2.084,0.994,3.184,0.994C5.975,16.492,6.256,16.473,6.533,16.442z"/>
		<path d="M23.959,6.92c-0.011-0.192-0.131-0.361-0.309-0.434c-0.18-0.073-0.383-0.038-0.525,0.091
			c-0.713,0.642-3.815,2.423-6.377,3.845c-0.209,0.68-0.545,1.305-1.001,1.831l1.735,4.193c0.273,0.029,0.549,0.047,0.828,0.047
			c1.098,0,2.217-0.259,3.182-0.994C23.359,14.075,24.188,11.189,23.959,6.92z"/>
		<g>
			<path d="M12,3.988c-2.408,0-5-0.626-5-2s2.592-2,5-2s5,0.626,5,2S14.408,3.988,12,3.988z M12,0.988c-2.625,0-4,0.743-4,1
				c0,0.257,1.375,1,4,1s4-0.743,4-1C16,1.731,14.625,0.988,12,0.988z"/>
		</g>
		<circle cx="11.992" cy="9.01" r="3.971"/>
		<path d="M18.166,20.709l-3.203-7.738c-0.832,0.625-1.854,1.01-2.971,1.01c-1.104,0-2.111-0.372-2.938-0.982L5.82,20.753
			c-0.234,0.755-0.093,1.585,0.377,2.221c0.469,0.636,1.221,1.015,2.012,1.015h7.584c0.789,0,1.541-0.379,2.01-1.015
			C18.273,22.337,18.414,21.507,18.166,20.709z"/>
	</g>
</g>
<g id="invisible_shape">
	<rect fill="none" width="24" height="24"/>
</g>
</svg>
