<?xml version="1.0" encoding="utf-8"?>
<!-- Generator: Adobe Illustrator 19.2.0, SVG Export Plug-In . SVG Version: 6.00 Build 0)  -->
<svg version="1.1" xmlns="http://www.w3.org/2000/svg" xmlns:xlink="http://www.w3.org/1999/xlink" x="0px" y="0px" width="24px"
	 height="24px" viewBox="0 0 24 24" enable-background="new 0 0 24 24" xml:space="preserve">
<g id="Filled_Icons">
	<g>
		<path d="M12.047,12.987c2.469,0,4.479-2.009,4.479-4.479c0-0.938-0.293-1.809-0.787-2.529c1.104-1.411,0.979-3.576-0.291-4.845
			c-0.195-0.195-0.512-0.195-0.707,0s-0.195,0.512,0,0.707c0.863,0.862,0.981,2.355,0.309,3.367c-0.795-0.726-1.842-1.18-3.002-1.18
			c-1.158,0-2.207,0.454-3.002,1.179C8.373,4.195,8.49,2.704,9.354,1.842c0.195-0.195,0.195-0.512,0-0.707s-0.512-0.195-0.707,0
			C7.379,2.403,7.254,4.567,8.357,5.978c-0.496,0.721-0.789,1.591-0.789,2.53C7.568,10.979,9.577,12.987,12.047,12.987z"/>
		<path d="M4,11.987H3v-6H2v6H1v-4H0v4.5c0,0.276,0.225,0.5,0.5,0.494H2V23.98h1V12.981h1.5C4.777,12.987,5,12.764,5,12.487v-4.5H4
			V11.987z"/>
		<path d="M23.785,14.348l-1.953-1.734c-0.178-0.158-0.441-0.169-0.633-0.025l-2.281,1.719c-0.221,0.166-0.264,0.48-0.098,0.7
			c0.166,0.222,0.479,0.265,0.699,0.099L21,13.99v2.997c0,1.654-1.346,3-3,3h-1.543l1.771-5.754
			c0.232-0.756,0.092-1.587-0.379-2.221c-0.268-0.363-0.635-0.631-1.041-0.804c-0.943,1.656-2.723,2.778-4.762,2.778
			c-2.039,0-3.818-1.122-4.762-2.778c-0.406,0.173-0.772,0.44-1.041,0.804c-0.469,0.636-0.611,1.466-0.379,2.221l2.893,9.396
			c0.065,0.209,0.26,0.352,0.479,0.352l0,0l5.623-0.004c0.219,0,0.413-0.144,0.477-0.353l0.814-2.638H18c2.206,0,4-1.794,4-4V14.1
			l1.121,0.996c0.096,0.084,0.215,0.126,0.332,0.126c0.139,0,0.275-0.057,0.375-0.168C24.011,14.848,23.992,14.531,23.785,14.348z"
			/>
	</g>
</g>
<g id="invisible_shape">
	<rect fill="none" width="24" height="24"/>
</g>
</svg>
