<?xml version="1.0" encoding="utf-8"?>
<!-- Generator: Adobe Illustrator 19.2.0, SVG Export Plug-In . SVG Version: 6.00 Build 0)  -->
<svg version="1.1" xmlns="http://www.w3.org/2000/svg" xmlns:xlink="http://www.w3.org/1999/xlink" x="0px" y="0px" width="24px"
	 height="24px" viewBox="0 0 24 24" enable-background="new 0 0 24 24" xml:space="preserve">
<g id="Filled_Icons">
	<path d="M12,0C5.383,0,0,5.383,0,12c0,6.616,5.383,12,12,12c6.618,0,12-5.384,12-12C24,5.383,18.618,0,12,0z M13,2.051
		c2.008,0.199,3.842,0.997,5.323,2.21L13,9.585V2.051z M11,9.585L5.677,4.261C7.158,3.048,8.993,2.25,11,2.051V9.585z M9.586,11
		H2.051c0.2-2.01,0.997-3.844,2.211-5.326L9.586,11z M9.586,13l-5.323,5.324C3.049,16.843,2.251,15.008,2.051,13H9.586z M11,14.414
		v7.535c-2.007-0.201-3.842-0.998-5.323-2.211L11,14.414z M13,14.414l5.323,5.324c-1.481,1.213-3.315,2.01-5.323,2.211V14.414z
		 M14.415,13h7.535c-0.2,2.008-0.997,3.843-2.212,5.324L14.415,13z M14.415,11l5.323-5.326C20.952,7.156,21.749,8.99,21.949,11
		H14.415z"/>
</g>
<g id="invisible_shape">
	<rect fill="none" width="24" height="24"/>
</g>
</svg>
