<?xml version="1.0" encoding="utf-8"?>
<!-- Generator: Adobe Illustrator 19.2.0, SVG Export Plug-In . SVG Version: 6.00 Build 0)  -->
<svg version="1.1" xmlns="http://www.w3.org/2000/svg" xmlns:xlink="http://www.w3.org/1999/xlink" x="0px" y="0px" width="24px"
	 height="24px" viewBox="0 0 24 24" enable-background="new 0 0 24 24" xml:space="preserve">
<g id="Filled_Icons">
	<path d="M21.5,9h-5.041C17.012,8.1,17.5,6.906,17.5,5.5C17.5,1.465,14.211,0,12,0S6.5,1.465,6.5,5.5c0,1.406,0.488,2.6,1.041,3.5
		H2.5C2.224,9,2,9.223,2,9.5v3C2,12.775,2.224,13,2.5,13H10v10.5c0,0.275,0.224,0.5,0.5,0.5h3c0.276,0,0.5-0.225,0.5-0.5V13h7.5
		c0.276,0,0.5-0.225,0.5-0.5v-3C22,9.223,21.776,9,21.5,9z M12,7.853c-0.591-0.519-1.5-1.5-1.5-2.353C10.5,4.462,10.963,4,12,4
		s1.5,0.462,1.5,1.5C13.5,6.353,12.591,7.334,12,7.853z"/>
</g>
<g id="invisible_shape">
	<rect fill="none" width="24" height="24"/>
</g>
</svg>
