<?xml version="1.0" encoding="utf-8"?>
<!-- Generator: Adobe Illustrator 19.2.0, SVG Export Plug-In . SVG Version: 6.00 Build 0)  -->
<svg version="1.1" xmlns="http://www.w3.org/2000/svg" xmlns:xlink="http://www.w3.org/1999/xlink" x="0px" y="0px" width="24px"
	 height="24px" viewBox="0 0 24 24" enable-background="new 0 0 24 24" xml:space="preserve">
<g id="Filled_Icons">
	<g>
		<path d="M22.5,21h-21C1.224,21,1,21.223,1,21.5v2C1,23.775,1.224,24,1.5,24h21c0.276,0,0.5-0.225,0.5-0.5v-2
			C23,21.223,22.776,21,22.5,21z"/>
		<path d="M16.5,3H14V0.5C14,0.223,13.776,0,13.5,0h-3C10.224,0,10,0.223,10,0.5V3H7.5C7.224,3,7,3.223,7,3.5v3
			C7,6.775,7.224,7,7.5,7H10v6h4V7h2.5C16.776,7,17,6.775,17,6.5v-3C17,3.223,16.776,3,16.5,3z"/>
		<g>
			<path d="M17.562,20l-1.584-5.648C15.913,14.143,15.72,14,15.5,14h-7c-0.22,0-0.413,0.143-0.477,0.352L6.438,20H17.562z"/>
		</g>
	</g>
</g>
<g id="invisible_shape">
	<rect fill="none" width="24" height="24"/>
</g>
</svg>
