<?xml version="1.0" encoding="utf-8"?>
<!-- Generator: Adobe Illustrator 19.2.0, SVG Export Plug-In . SVG Version: 6.00 Build 0)  -->
<svg version="1.1" xmlns="http://www.w3.org/2000/svg" xmlns:xlink="http://www.w3.org/1999/xlink" x="0px" y="0px" width="24px"
	 height="24px" viewBox="0 0 24 24" enable-background="new 0 0 24 24" xml:space="preserve">
<g id="Filled_Icons">
	<g>
		<path d="M19,6.518c-0.622,0-1,0.506-1,1.127v4.512c0,0.313-0.417,0.564-0.729,0.564c-0.311,0-0.771-0.252-0.771-0.564V4.629
			c0-0.622-0.378-1.129-1-1.129c-0.622,0-1,0.507-1,1.129v5.836c0,0.312-0.411,0.584-0.722,0.584c-0.313,0-0.778-0.272-0.778-0.584
			V2.129C13,1.507,12.622,1,12,1s-1,0.507-1,1.129v8.336c0,0.312-0.439,0.564-0.75,0.564S9.5,10.776,9.5,10.465V4.629
			c0-0.622-0.377-1.129-1-1.129c-0.622,0-1,0.507-1,1.129V15.54c0,0.236-0.054,0.447-0.275,0.528
			c-0.219,0.082-0.471,0.019-0.624-0.161l-2.996-3.499c-0.11-0.09-0.262-0.137-0.423-0.137c-0.206,0-0.426,0.076-0.588,0.239
			c-0.272,0.271-0.308,0.698-0.086,1.013c0.072,0.132,2.467,5.127,4.368,8.119C7.814,23.118,9.417,24,11.163,24h3.761
			C17.723,24,20,21.723,20,18.924V7.644C20,7.023,19.622,6.518,19,6.518z M18.585,17.723C18.518,17.857,16.903,21,13.138,21
			s-5.38-3.143-5.447-3.277c-0.07-0.141-0.07-0.307,0-0.447C7.758,17.143,9.372,14,13.138,14s5.38,3.143,5.447,3.275
			C18.655,17.416,18.655,17.582,18.585,17.723z"/>
		<circle cx="13.138" cy="17.5" r="1.5"/>
	</g>
</g>
<g id="invisible_shape">
	<rect fill="none" width="24" height="24"/>
</g>
</svg>
