<?xml version="1.0" encoding="utf-8"?>
<!-- Generator: Adobe Illustrator 19.2.0, SVG Export Plug-In . SVG Version: 6.00 Build 0)  -->
<svg version="1.1" xmlns="http://www.w3.org/2000/svg" xmlns:xlink="http://www.w3.org/1999/xlink" x="0px" y="0px" width="24px"
	 height="24px" viewBox="0 0 24 24" enable-background="new 0 0 24 24" xml:space="preserve">
<g id="Filled_Icons">
	<g>
		<path d="M23.943,23.268l-11.5-22c-0.174-0.33-0.713-0.33-0.887,0l-11.5,22c-0.081,0.155-0.075,0.342,0.016,0.49
			C0.163,23.908,0.325,24,0.5,24h23c0.175,0,0.337-0.092,0.428-0.242C24.019,23.609,24.024,23.423,23.943,23.268z M19.113,16.723
			C19.026,16.898,16.919,21,12,21s-7.026-4.102-7.113-4.277c-0.07-0.141-0.07-0.307,0-0.447C4.974,16.102,7.081,12,12,12
			s7.026,4.102,7.113,4.275C19.184,16.416,19.184,16.582,19.113,16.723z"/>
		<circle cx="12" cy="16.5" r="2.5"/>
	</g>
</g>
<g id="invisible_shape">
	<rect fill="none" width="24" height="24"/>
</g>
</svg>
