<?xml version="1.0" encoding="utf-8"?>
<!-- Generator: Adobe Illustrator 19.2.0, SVG Export Plug-In . SVG Version: 6.00 Build 0)  -->
<svg version="1.1" xmlns="http://www.w3.org/2000/svg" xmlns:xlink="http://www.w3.org/1999/xlink" x="0px" y="0px" width="24px"
	 height="24px" viewBox="0 0 24 24" enable-background="new 0 0 24 24" xml:space="preserve">
<g id="Filled_Icons">
	<path d="M21.731,0.576c-0.165-0.085-0.364-0.072-0.517,0.033c-1.767,1.234-3.225,1.785-4.726,1.785
		c-1.789,0-3.461-0.805-4.59-2.208c-0.191-0.236-0.607-0.236-0.797,0C9.973,1.59,8.301,2.395,6.514,2.395
		c-1.504,0-2.962-0.551-4.727-1.785C1.633,0.504,1.436,0.491,1.27,0.576C1.104,0.662,1,0.834,1,1.02v14.811
		c0,0.045,0.006,0.09,0.019,0.133c0.062,0.227,1.626,5.572,10.347,8.016C11.41,23.994,11.455,24,11.5,24s0.092-0.006,0.135-0.02
		c8.723-2.443,10.285-7.789,10.348-8.016C21.994,15.922,22,15.877,22,15.832V1.02C22,0.834,21.896,0.662,21.731,0.576z M19,14.481
		c0,0.16-0.076,0.311-0.205,0.404c-0.129,0.095-0.295,0.121-0.445,0.073c-1.475-0.467-3.285-0.771-5.262-0.883
		c0.103,1.944,0.394,3.704,0.848,5.128c0.054,0.079,0.084,0.175,0.084,0.277c0,0.277-0.223,0.5-0.5,0.5
		c-0.006,0-0.012,0-0.019,0.014h-4c-0.16-0.014-0.311-0.09-0.406-0.221C9,19.643,8.975,19.475,9.026,19.322
		c0.487-1.46,0.802-3.268,0.913-5.256c-2.01,0.105-3.828,0.41-5.283,0.889c-0.152,0.053-0.318,0.025-0.449-0.068
		C4.078,14.793,4,14.642,4,14.481v-4c0-0.16,0.078-0.311,0.209-0.405c0.129-0.095,0.297-0.118,0.449-0.068
		c1.467,0.491,3.283,0.805,5.281,0.915C9.828,8.926,9.514,7.109,9.025,5.639C8.975,5.486,9,5.319,9.096,5.188
		C9.189,5.059,9.34,4.981,9.5,4.981h4c0.16,0,0.31,0.077,0.404,0.205c0.094,0.129,0.121,0.295,0.072,0.446
		c-0.469,1.483-0.771,3.302-0.883,5.286c1.984-0.113,3.789-0.427,5.248-0.911c0.152-0.05,0.32-0.026,0.451,0.069
		C18.924,10.17,19,10.32,19,10.481V14.481z"/>
</g>
<g id="invisible_shape">
	<rect fill="none" width="24" height="24"/>
</g>
</svg>
