<?xml version="1.0" encoding="utf-8"?>
<!-- Generator: Adobe Illustrator 19.2.0, SVG Export Plug-In . SVG Version: 6.00 Build 0)  -->
<svg version="1.1" xmlns="http://www.w3.org/2000/svg" xmlns:xlink="http://www.w3.org/1999/xlink" x="0px" y="0px" width="24px"
	 height="24px" viewBox="0 0 24 24" enable-background="new 0 0 24 24" xml:space="preserve">
<g id="Filled_Icons">
	<g>
		<path d="M22.289,8.309c-0.059-0.182-0.215-0.314-0.403-0.342L18.59,7.488l-1.475-2.986c-0.084-0.172-0.258-0.279-0.447-0.279
			c-0.191,0-0.365,0.107-0.449,0.277l-1.475,2.988l-3.296,0.479c-0.188,0.028-0.345,0.16-0.403,0.342
			c-0.059,0.18-0.01,0.379,0.125,0.512l2.387,2.326l-0.563,3.282c-0.032,0.188,0.044,0.378,0.198,0.489
			c0.154,0.113,0.359,0.129,0.527,0.037l2.949-1.551l2.947,1.551c0.072,0.04,0.153,0.059,0.233,0.059
			c0.104,0,0.207-0.033,0.295-0.096c0.152-0.111,0.23-0.301,0.197-0.489l-0.563-3.282l2.385-2.326
			C22.299,8.688,22.348,8.488,22.289,8.309z"/>
		<path d="M19.092,20.441C18.084,20.813,17.044,21,16,21c-4.963,0-9-4.037-9-9s4.037-9,9-9c1.041,0,2.082,0.188,3.092,0.558
			c0.325,0.117,0.691-0.102,0.691-0.47c0-0.197-0.113-0.369-0.279-0.449C17.383,0.937,14.721,0,12,0C5.383,0,0,5.383,0,12
			s5.383,12,12,12c2.754,0,5.445-0.959,7.58-2.7c0.189-0.154,0.238-0.423,0.118-0.636C19.578,20.453,19.32,20.359,19.092,20.441z"/>
	</g>
</g>
<g id="invisible_shape">
	<rect fill="none" width="24" height="24"/>
</g>
</svg>
