<?xml version="1.0" encoding="utf-8"?>
<!-- Generator: Adobe Illustrator 19.2.0, SVG Export Plug-In . SVG Version: 6.00 Build 0)  -->
<svg version="1.1" xmlns="http://www.w3.org/2000/svg" xmlns:xlink="http://www.w3.org/1999/xlink" x="0px" y="0px" width="24px"
	 height="24px" viewBox="0 0 24 24" enable-background="new 0 0 24 24" xml:space="preserve">
<g id="Filled_Icons">
	<g>
		<path d="M18.93,9.001c1.4,0,2.738-0.445,3.869-1.285c0.116-0.088,0.19-0.221,0.2-0.365c0.011-0.144-0.043-0.287-0.146-0.391
			l-1.603-1.604c-0.159-0.16-0.406-0.191-0.602-0.08C19.82,5.749,18.88,6,17.93,6c-1.727,0-3.32-0.792-4.373-2.174
			c-0.009-0.012-0.021-0.019-0.031-0.028c-0.553-1.165-1.445-2.145-2.604-2.791C9.107-0.005,6.812-0.021,4.958,0.945
			C4.775,1.041,4.67,1.238,4.692,1.443l0.209,1.899C4.917,3.48,4.987,3.605,5.098,3.688C5.208,3.77,5.346,3.802,5.483,3.78
			c1.957-0.336,4.024,0.702,4.529,2.244c0.688,2.104-0.911,3.469-2.08,4.465c-0.649,0.555-1.079,0.92-1.012,1.414
			c0.02,0.146,0.107,0.416,0.475,0.588c2.523,1.178,3.859,2.829,3.766,4.649c-0.074,1.424-1.095,2.792-2.427,3.253
			c-0.41,0.142-0.841,0.215-1.282,0.215c-2.376,0-4.741-2.035-5.751-4.945c-0.064-0.189-0.108-0.379-0.151-0.567l-0.054-0.224
			c-0.057-0.228-0.23-0.402-0.502-0.38c-0.235,0.007-0.434,0.179-0.475,0.411c-0.707,3.963,1.685,7.768,5.566,8.848
			c0.684,0.191,1.388,0.288,2.092,0.288c3.474,0,6.552-2.34,7.484-5.69c0.509-1.825,0.316-3.808-0.522-5.552
			c0.858,0.006,1.634,0.197,2.221,0.607c0.838,0.588,1.299,1.561,1.299,2.736c0,3.163-1.35,5.264-1.363,5.285
			c-0.13,0.198-0.103,0.461,0.066,0.629c0.168,0.166,0.43,0.193,0.629,0.06l0.732-0.486c1.839-1.228,2.937-3.279,2.937-5.488
			c0-2.151-0.94-4.044-2.577-5.192c-1.621-1.135-3.757-1.446-6.106-0.889c-0.011-0.009-0.022-0.017-0.031-0.024
			c0.716-0.756,1.128-1.905,1.182-3.186C15.332,8.179,17.059,9.001,18.93,9.001z"/>
		<circle cx="18" cy="2.501" r="2.5"/>
	</g>
</g>
<g id="invisible_shape">
	<rect fill="none" width="24" height="24"/>
</g>
</svg>
