<?xml version="1.0" encoding="utf-8"?>
<!-- Generator: Adobe Illustrator 19.2.0, SVG Export Plug-In . SVG Version: 6.00 Build 0)  -->
<svg version="1.1" xmlns="http://www.w3.org/2000/svg" xmlns:xlink="http://www.w3.org/1999/xlink" x="0px" y="0px" width="24px"
	 height="24px" viewBox="0 0 24 24" enable-background="new 0 0 24 24" xml:space="preserve">
<g id="Filled_Icons">
	<path d="M21.501,6.001c0-0.277-0.224-0.5-0.5-0.5c-0.276,0-0.5,0.223-0.5,0.5c0,1.861-0.533,3.638-1.539,5.178
		c-2-2.337-4.857-3.678-7.961-3.678c-4.159,0-8.186,3.977-8.354,4.147c-0.005,0.004-0.004,0.012-0.009,0.017
		c-0.061,0.065-0.095,0.142-0.114,0.222c-0.005,0.023-0.01,0.043-0.013,0.066c-0.009,0.088,0.002,0.176,0.04,0.258
		c0.002,0.005,0,0.01,0.002,0.014l0.001,0.002l0.001,0.002c0.023,0.047,0.055,0.091,0.093,0.129
		c0.169,0.169,4.194,4.145,8.354,4.145c3.105,0,5.963-1.342,7.961-3.68c1.006,1.539,1.539,3.316,1.539,5.18
		c0,0.275,0.224,0.5,0.5,0.5c0.276,0,0.5-0.225,0.5-0.5c0-2.172-0.657-4.236-1.892-6.001C20.844,10.235,21.501,8.171,21.501,6.001z"
		/>
</g>
<g id="invisible_shape">
	<rect fill="none" width="24" height="24"/>
</g>
</svg>
