<?xml version="1.0" encoding="utf-8"?>
<!-- Generator: Adobe Illustrator 19.2.0, SVG Export Plug-In . SVG Version: 6.00 Build 0)  -->
<svg version="1.1" xmlns="http://www.w3.org/2000/svg" xmlns:xlink="http://www.w3.org/1999/xlink" x="0px" y="0px" width="24px"
	 height="24px" viewBox="0 0 24 24" enable-background="new 0 0 24 24" xml:space="preserve">
<g id="Filled_Icons">
	<g>
		<path d="M21.731,0.557c-0.167-0.088-0.366-0.073-0.517,0.033c-1.767,1.234-3.225,1.784-4.726,1.784
			c-1.789,0-3.461-0.805-4.59-2.208c-0.191-0.236-0.607-0.236-0.797,0C9.973,1.569,8.301,2.374,6.514,2.374
			c-1.504,0-2.962-0.55-4.727-1.784C1.633,0.483,1.436,0.469,1.27,0.557C1.104,0.643,1,0.813,1,1v14.811
			c0,0.044,0.006,0.089,0.019,0.133c0.062,0.227,1.626,5.572,10.347,8.017c0.045,0.013,0.09,0.019,0.135,0.019
			s0.092-0.006,0.135-0.019c8.721-2.444,10.285-7.79,10.348-8.017C21.994,15.9,22,15.856,22,15.811V1
			C22,0.813,21.896,0.643,21.731,0.557z M19,15.471c0,0.066-0.014,0.133-0.039,0.194c-0.063,0.148-1.601,3.665-7.326,5.27
			c-0.043,0.012-0.09,0.019-0.135,0.019s-0.09-0.007-0.135-0.019c-5.725-1.605-7.263-5.123-7.326-5.27
			C4.014,15.604,4,15.537,4,15.471V4.842c0-0.163,0.081-0.316,0.215-0.41c0.137-0.094,0.309-0.115,0.461-0.057
			c0.141,0.051,0.326,0.139,0.551,0.242c0.734,0.345,1.963,0.92,3.187,0.92c1.097,0,1.975-0.451,2.684-1.38
			c0.189-0.249,0.615-0.249,0.805,0c0.7,0.915,1.664,1.38,2.865,1.38c1.441,0,2.869-0.671,3.432-1.094
			c0.152-0.114,0.354-0.133,0.524-0.048C18.893,4.479,19,4.653,19,4.842V15.471z"/>
		<path d="M14.5,9.994H13V8.461c0-0.277-0.223-0.5-0.5-0.467h-2C10.225,7.961,10,8.184,10,8.461v1.533H8.5
			C8.225,9.961,8,10.184,8,10.461v2c0,0.276,0.225,0.5,0.5,0.5H10v4.5c0,0.276,0.225,0.5,0.5,0.5h2c0.277,0,0.5-0.224,0.5-0.5v-4.5
			h1.5c0.277,0,0.5-0.224,0.5-0.5v-2C15,10.184,14.777,9.961,14.5,9.994z"/>
	</g>
</g>
<g id="invisible_shape">
	<rect fill="none" width="24" height="24"/>
</g>
</svg>
