<?xml version="1.0" encoding="utf-8"?>
<!-- Generator: Adobe Illustrator 19.2.0, SVG Export Plug-In . SVG Version: 6.00 Build 0)  -->
<svg version="1.1" xmlns="http://www.w3.org/2000/svg" xmlns:xlink="http://www.w3.org/1999/xlink" x="0px" y="0px" width="24px"
	 height="24px" viewBox="0 0 24 24" enable-background="new 0 0 24 24" xml:space="preserve">
<g id="Filled_Icons">
	<g>
		<path d="M10.291,6.972h9.461l-1.201,2.041l1.16,1.973l2.651-4.507c0.183-0.309,0.185-0.692,0.007-1.003
			c-0.179-0.311-0.509-0.47-0.869-0.47H11.469L10.291,6.972z"/>
		<path d="M16.231,12.958L11.5,20.999l-0.603-1.027h-2.32l2.062,3.507c0.18,0.306,0.508,0.493,0.861,0.493
			c0.356,0,0.683-0.188,0.862-0.493l5.028-8.549L16.231,12.958z"/>
		<path d="M6.223,15.972h2.321l-5.294-9h2.402l1.177-1.966H1.5c-0.358,0-0.689,0.158-0.867,0.47C0.456,5.786,0.457,6.17,0.639,6.478
			L6.223,15.972z"/>
		<path d="M22.273,17.315l-5.496-9.343h-2.32l2.635,4.478l0.001,0.001l1.16,1.972l0.001,0.002l1.498,2.581H17.35l-1.176,1.966H21.5
			c0.008-0.001,0.014-0.001,0.021,0c0.552,0,1-0.448,1-1C22.521,17.72,22.428,17.49,22.273,17.315z"/>
		<path d="M6.771,10.985L11.5,2.944l0.606,1.027h2.32l-2.064-3.507c-0.359-0.611-1.364-0.611-1.724,0L5.611,9.013L6.771,10.985z"/>
		<path d="M12.71,17.006H3.249L4.45,14.93l-1.16-1.972l-2.651,4.507c-0.182,0.309-0.183,0.692-0.006,1.003
			c0.178,0.312,0.509,0.504,0.867,0.504h10.033L12.71,17.006z"/>
	</g>
</g>
<g id="invisible_shape">
	<rect fill="none" width="24" height="24"/>
</g>
</svg>
