<?xml version="1.0" encoding="utf-8"?>
<!-- Generator: Adobe Illustrator 19.2.0, SVG Export Plug-In . SVG Version: 6.00 Build 0)  -->
<svg version="1.1" xmlns="http://www.w3.org/2000/svg" xmlns:xlink="http://www.w3.org/1999/xlink" x="0px" y="0px" width="24px"
	 height="24px" viewBox="0 0 24 24" enable-background="new 0 0 24 24" xml:space="preserve">
<g id="Filled_Icons">
	<g>
		<path d="M4.5,2C4.225,2,4,2.224,4,2.5S4.225,3,4.5,3h15C19.777,3,20,2.776,20,2.5S19.777,2,19.5,2H4.5z"/>
		<path d="M20.5,4h-16C3.674,4,3,3.327,3,2.5S3.674,1,4.5,1h16C20.777,1,21,0.776,21,0.5S20.777,0,20.5,0h-16C3.122,0,2,1.121,2,2.5
			v19C2,22.879,3.122,24,4.5,24h16c0.277,0,0.5-0.224,0.5-0.5v-19C21,4.224,20.777,4,20.5,4z M16,12.5c0,0.276-0.223,0.5-0.5,0.5H13
			v5.5c0,0.276-0.223,0.5-0.5,0.5h-2c-0.275,0-0.5-0.224-0.5-0.5V13H7.5C7.225,13,7,12.776,7,12.5v-2C7,10.224,7.225,10,7.5,10H10
			V7.5C10,7.224,10.225,7,10.5,7h2C12.777,7,13,7.224,13,7.5V10h2.5c0.277,0,0.5,0.224,0.5,0.5V12.5z"/>
	</g>
</g>
<g id="invisible_shape">
	<rect fill="none" width="24" height="24"/>
</g>
</svg>
