<?xml version="1.0" encoding="utf-8"?>
<!-- Generator: Adobe Illustrator 19.2.0, SVG Export Plug-In . SVG Version: 6.00 Build 0)  -->
<svg version="1.1" xmlns="http://www.w3.org/2000/svg" xmlns:xlink="http://www.w3.org/1999/xlink" x="0px" y="0px" width="24px"
	 height="24px" viewBox="0 0 24 24" enable-background="new 0 0 24 24" xml:space="preserve">
<g id="Filled_Icons">
	<path d="M23.756,7.502l-6.217-7.163c-0.191-0.219-0.467-0.333-0.756-0.333H7.248c-0.289,0-0.564,0.113-0.754,0.331L0.247,7.5
		C0.088,7.682,0,7.916,0,8.157v8.59c0,0.266,0.105,0.519,0.293,0.707l6.248,6.247c0.188,0.188,0.441,0.293,0.707,0.293h9.514
		c0.266,0,0.52-0.105,0.707-0.293l6.238-6.247C23.895,17.267,24,17.012,24,16.747v-8.59C24,7.916,23.914,7.684,23.756,7.502z
		 M15.307,9.781l-0.85-0.971l0.854-1.952l1.961,2.238L15.307,9.781z M11.119,13.994L10,12.877v-1.554l1.158-1.329h1.677L14,11.324
		v1.551l-1.125,1.119H11.119z M12.631,7.994h-1.26l-0.875-2h3.008L12.631,7.994z M9.541,8.806l-0.85,0.976L6.727,9.096l1.959-2.248
		L9.541,8.806z M8,11.658v0.976l-2,0.864v-2.537L8,11.658z M8.773,14.479l0.75,0.748l-0.883,2.019l-1.893-1.892L8.773,14.479z
		 M11.371,15.994h1.26l0.873,2h-3.008L11.371,15.994z M14.477,15.223l0.748-0.745l2.023,0.874l-1.892,1.883L14.477,15.223z
		 M16,12.634v-0.976l2-0.697v2.537L16,12.634z M19.307,8.386l-3.111-3.552l0.869-1.99l4.213,4.855L19.307,8.386z M14.379,3.994
		H9.622l-0.874-2h6.506L14.379,3.994z M7.801,4.821L4.691,8.386L2.727,7.699l4.217-4.836L7.801,4.821z M4,10.263v4.099l-2,0.864
		v-5.66L4,10.263z M4.773,16.206l3.008,3.007L6.898,21.23l-4.15-4.149L4.773,16.206z M9.622,19.994h4.757l0.875,2H8.748
		L9.622,19.994z M16.215,19.201l3.012-2.996l2.027,0.876l-4.148,4.155L16.215,19.201z M20,14.361v-4.099l2-0.697v5.66L20,14.361z"/>
</g>
<g id="invisible_shape">
	<rect fill="none" width="24" height="24"/>
</g>
</svg>
