<?xml version="1.0" encoding="utf-8"?>
<!-- Generator: Adobe Illustrator 19.2.0, SVG Export Plug-In . SVG Version: 6.00 Build 0)  -->
<svg version="1.1" xmlns="http://www.w3.org/2000/svg" xmlns:xlink="http://www.w3.org/1999/xlink" x="0px" y="0px" width="24px"
	 height="24px" viewBox="0 0 24 24" enable-background="new 0 0 24 24" xml:space="preserve">
<g id="Filled_Icons">
	<g>
		<path d="M20.5,21h-6c-0.276,0-0.5,0.223-0.5,0.5v2c0,0.275,0.224,0.5,0.5,0.5h6c0.276,0,0.5-0.225,0.5-0.5v-2
			C21,21.223,20.776,21,20.5,21z"/>
		<path d="M9.5,21h-6C3.224,21,3,21.223,3,21.5v2C3,23.775,3.224,24,3.5,24h6c0.276,0,0.5-0.225,0.5-0.5v-2
			C10,21.223,9.776,21,9.5,21z"/>
		<path d="M23.67,6.467c-0.071-0.025-0.732-0.244-1.457,0.264c-1.113,0.781-1.69,2.82-1.712,6.061l-1.595,1.594l0.299-1.299
			c0.253-1.061-0.214-1.783-0.788-2.027c-0.529-0.227-1.294-0.096-1.807,0.701c-0.69,1.074-1.554,3.967-1.59,4.09
			C15.007,15.894,15,15.943,15,15.992V20h5v-0.822c0.637-0.633,3.145-3.117,3.854-3.824C23.947,15.26,24,15.133,24,15V6.938
			C24,6.727,23.868,6.539,23.67,6.467z"/>
		<path d="M4,20h5v-4.008c0-0.049-0.007-0.098-0.021-0.143c-0.036-0.123-0.899-3.016-1.591-4.09
			c-0.514-0.797-1.277-0.928-1.806-0.701c-0.575,0.244-1.042,0.967-0.789,2.021l0.3,1.305l-1.595-1.594
			c-0.022-3.24-0.6-5.279-1.713-6.061C1.063,6.223,0.402,6.441,0.329,6.467C0.132,6.539,0,6.727,0,6.938V15
			c0,0.15,0.068,0.293,0.185,0.387C1.028,16.074,3.402,18.545,4,19.168V20z"/>
		<path d="M16.5,3H14V0.5C14,0.223,13.776,0,13.5,0h-3C10.224,0,10,0.223,10,0.5V3H7.5C7.224,3,7,3.223,7,3.5v3
			C7,6.775,7.224,7,7.5,7H10v6.5c0,0.275,0.224,0.5,0.5,0.5h3c0.276,0,0.5-0.225,0.5-0.5V7h2.5C16.776,7,17,6.775,17,6.5v-3
			C17,3.223,16.776,3,16.5,3z"/>
	</g>
</g>
<g id="invisible_shape">
	<rect fill="none" width="24" height="24"/>
</g>
</svg>
