<?xml version="1.0" encoding="utf-8"?>
<!-- Generator: Adobe Illustrator 19.2.0, SVG Export Plug-In . SVG Version: 6.00 Build 0)  -->
<svg version="1.1" xmlns="http://www.w3.org/2000/svg" xmlns:xlink="http://www.w3.org/1999/xlink" x="0px" y="0px" width="24px"
	 height="24px" viewBox="0 0 24 24" enable-background="new 0 0 24 24" xml:space="preserve">
<g id="Filled_Icons">
	<g>
		<g>
			<path d="M23.007,13.26l-6.568-12C16.351,1.1,16.183,1,16,1h-0.001c-0.184,0-0.351,0.101-0.438,0.262l-6.5,12
				c-0.084,0.154-0.08,0.342,0.01,0.494C9.16,13.906,9.324,14,9.5,14h13.068c0.177,0,0.34-0.094,0.43-0.246
				C23.089,13.602,23.092,13.414,23.007,13.26z M19.781,9.723C19.734,9.816,18.613,12,16,12s-3.734-2.184-3.781-2.277
				c-0.07-0.141-0.07-0.307,0-0.447C12.266,9.184,13.387,7,16,7s3.734,2.184,3.781,2.275C19.852,9.416,19.852,9.582,19.781,9.723z"
				/>
			<circle cx="16" cy="9.5" r="1"/>
		</g>
		<g>
			<path d="M3.5,14h-3C0.224,14,0,14.223,0,14.5v8C0,22.775,0.224,23,0.5,23h3C3.775,23,4,22.775,4,22.5v-8
				C4,14.223,3.775,14,3.5,14z"/>
			<path d="M23.854,18.146c-1.175-1.174-2.186-1.5-3.512-1.121l-3.008,0.998c0.026,0.156,0.041,0.316,0.041,0.477
				c0,0.641-0.207,1.242-0.585,1.695C16.352,20.721,15.732,21,15,21H9.5C9.224,21,9,20.775,9,20.5C9,20.223,9.224,20,9.5,20H15
				c0.432,0,0.775-0.15,1.021-0.445c0.225-0.27,0.354-0.652,0.354-1.055c0-0.559-0.29-1.5-1.375-1.5h-3
				c-0.133,0-0.26-0.053-0.354-0.146C11.09,16.295,9.569,15,7.5,15h-2C5.224,15,5,15.223,5,15.5V21c0,0.215,0.138,0.406,0.342,0.473
				c1.584,0.529,2.831,0.982,3.833,1.346c2.004,0.729,3.13,1.123,4.141,1.123c1.212,0,2.258-0.568,4.453-1.807
				c1.368-0.774,3.241-1.832,5.955-3.188c0.144-0.072,0.245-0.209,0.271-0.367C24.019,18.42,23.967,18.26,23.854,18.146z"/>
		</g>
	</g>
</g>
<g id="invisible_shape">
	<rect fill="none" width="24" height="24"/>
</g>
</svg>
