<?xml version="1.0" encoding="utf-8"?>
<!-- Generator: Adobe Illustrator 16.0.3, SVG Export Plug-In . SVG Version: 6.00 Build 0)  -->
<!DOCTYPE svg PUBLIC "-//W3C//DTD SVG 1.1//EN" "http://www.w3.org/Graphics/SVG/1.1/DTD/svg11.dtd">
<svg version="1.1" xmlns="http://www.w3.org/2000/svg" xmlns:xlink="http://www.w3.org/1999/xlink" x="0px" y="0px" width="24px"
	 height="24px" viewBox="0 0 24 24" enable-background="new 0 0 24 24" xml:space="preserve">
<g id="Outline_Icons_1_">
	<g id="Outline_Icons">
		<g>
			
				<rect x="2.389" y="2.883" transform="matrix(0.7071 0.7071 -0.7071 0.7071 5.3239 -3.0873)" fill="none" stroke="#000000" stroke-linecap="round" stroke-linejoin="round" stroke-miterlimit="10" width="7.999" height="4"/>
			
				<rect x="15.116" y="15.612" transform="matrix(-0.7072 -0.707 0.707 -0.7072 20.1848 43.5814)" fill="none" stroke="#000000" stroke-linecap="round" stroke-linejoin="round" stroke-miterlimit="10" width="8.001" height="4"/>
			<path fill="none" stroke="#000000" stroke-linecap="round" stroke-linejoin="round" stroke-miterlimit="10" d="M17.702,6.297
				c-1.171-1.172-3.071-1.172-4.242,0l-5.657,5.658l4.242,4.242l5.657-5.658C18.873,9.369,18.873,7.469,17.702,6.297z"/>
			<path fill="none" stroke="#000000" stroke-linecap="round" stroke-linejoin="round" stroke-miterlimit="10" d="M9.924,14.075
				c-1.562-1.562-4.096-1.562-5.656,0l5.656,5.657C11.486,18.17,11.486,15.637,9.924,14.075z"/>
			<path fill="none" stroke="#000000" stroke-linecap="round" stroke-linejoin="round" stroke-miterlimit="10" d="M1.525,17.525
				c-1.367,1.366-1.367,3.582,0,4.949c1.365,1.367,3.582,1.367,4.949,0"/>
			<path fill="none" stroke="#000000" stroke-linecap="round" stroke-linejoin="round" stroke-miterlimit="10" d="M3.414,18.525
				c-0.586,0.586-0.586,1.535,0,2.121s1.535,0.586,2.121,0"/>
			
				<line fill="none" stroke="#000000" stroke-linecap="round" stroke-linejoin="round" stroke-miterlimit="10" x1="9.217" y1="7.711" x2="10.632" y2="9.125"/>
			
				<line fill="none" stroke="#000000" stroke-linecap="round" stroke-linejoin="round" stroke-miterlimit="10" x1="14.873" y1="13.369" x2="16.287" y2="14.783"/>
			
				<line fill="none" stroke="#000000" stroke-linecap="round" stroke-linejoin="round" stroke-miterlimit="10" x1="17.702" y1="6.297" x2="19.472" y2="4.528"/>
			<path fill="none" stroke="#000000" stroke-linejoin="round" stroke-miterlimit="10" d="M20.324,4.176c0,0.276-0.224,0.5-0.5,0.5
				l0,0c-0.276,0-0.5-0.224-0.5-0.5l0,0c0-0.276,0.224-0.5,0.5-0.5l0,0C20.101,3.676,20.324,3.899,20.324,4.176L20.324,4.176z"/>
		</g>
	</g>
	<g id="New_icons_1_">
	</g>
</g>
<g id="Invisible_Shape">
	<rect fill="none" width="24" height="24"/>
</g>
</svg>
