<?xml version="1.0" encoding="utf-8"?>
<!-- Generator: Adobe Illustrator 16.0.3, SVG Export Plug-In . SVG Version: 6.00 Build 0)  -->
<!DOCTYPE svg PUBLIC "-//W3C//DTD SVG 1.1//EN" "http://www.w3.org/Graphics/SVG/1.1/DTD/svg11.dtd">
<svg version="1.1" xmlns="http://www.w3.org/2000/svg" xmlns:xlink="http://www.w3.org/1999/xlink" x="0px" y="0px" width="24px"
	 height="24px" viewBox="0 0 24 24" enable-background="new 0 0 24 24" xml:space="preserve">
<g id="Outline_Icons_1_">
	<g id="Outline_Icons">
		<g>
			<polygon fill="none" stroke="#000000" stroke-linejoin="round" stroke-miterlimit="10" points="7,23.5 17,23.5 12,13.5 			"/>
			<path fill="none" stroke="#000000" stroke-linecap="round" stroke-linejoin="round" stroke-miterlimit="10" d="M20.307,19.949
				C22.283,17.883,23.5,15.084,23.5,12c0-6.352-5.148-11.5-11.5-11.5S0.5,5.648,0.5,12c0,3.084,1.217,5.883,3.193,7.949"/>
			<path fill="none" stroke="#000000" stroke-linecap="round" stroke-linejoin="round" stroke-miterlimit="10" d="M5.908,16.363
				C5.025,15.133,4.5,13.629,4.5,12c0-4.143,3.357-7.5,7.5-7.5c4.142,0,7.5,3.357,7.5,7.5c0,1.629-0.525,3.133-1.408,4.363"/>
			<path fill="none" stroke="#000000" stroke-linecap="round" stroke-linejoin="round" stroke-miterlimit="10" d="M8.508,12.153
				C8.506,12.102,8.5,12.051,8.5,12c0-1.957,1.6-3.5,3.5-3.5c1.903,0,3.5,1.545,3.5,3.5c0,0.051-0.006,0.102-0.008,0.153"/>
			
				<line fill="none" stroke="#000000" stroke-linecap="round" stroke-linejoin="round" stroke-miterlimit="10" x1="12" y1="13.5" x2="12" y2="11.5"/>
			<line fill="none" stroke="#000000" stroke-linejoin="round" stroke-miterlimit="10" x1="7.021" y1="23.5" x2="14.5" y2="18.5"/>
			<line fill="none" stroke="#000000" stroke-linejoin="round" stroke-miterlimit="10" x1="17" y1="23.5" x2="9.5" y2="18.5"/>
			<line fill="none" stroke="#000000" stroke-linejoin="round" stroke-miterlimit="10" x1="10.271" y1="17" x2="13.729" y2="17"/>
		</g>
	</g>
	<g id="New_icons_1_">
	</g>
</g>
<g id="Invisible_Shape">
	<rect fill="none" width="24" height="24"/>
</g>
</svg>
