<?xml version="1.0" encoding="utf-8"?>
<!-- Generator: Adobe Illustrator 19.2.1, SVG Export Plug-In . SVG Version: 6.00 Build 0)  -->
<svg version="1.1" xmlns="http://www.w3.org/2000/svg" xmlns:xlink="http://www.w3.org/1999/xlink" x="0px" y="0px" width="24px"
	 height="24px" viewBox="0 0 24 24" enable-background="new 0 0 24 24" xml:space="preserve">
<g id="Filled_Icon">
	<g>
		<path d="M18.986,7.385c-0.609-2.566-2.522-4.439-4.995-5.104l1.349-1.439c0.189-0.201,0.178-0.518-0.023-0.707
			c-0.201-0.188-0.517-0.179-0.707,0.023l-1.787,1.906c-0.861-0.087-0.771-0.087-1.633,0L9.402,0.158
			c-0.19-0.202-0.506-0.211-0.707-0.023C8.494,0.324,8.483,0.641,8.672,0.842l1.347,1.437c-2.49,0.663-4.409,2.539-5.006,5.108
			C4.94,7.699,5.178,8,5.5,8h13C18.826,8,19.06,7.697,18.986,7.385z M11,6h-1V5h1V6z M14,6h-1V5h1V6z"/>
		<path d="M20,9H4c-1.313,0-2,1.258-2,2.5v8C2,19.776,2.224,20,2.5,20S3,19.776,3,19.5v-8C3,10.981,3.209,10,4,10h1v9.5
			C5,19.776,5.224,20,5.5,20c1.995,0,3.758,0,5.5,0v-2.399c-0.589,0.534-1.492,0.528-2.061-0.04c-0.586-0.586-0.586-1.535,0-2.121
			l2.5-2.5c0.586-0.586,1.535-0.586,2.121,0l2.5,2.5c0.586,0.586,0.586,1.535,0,2.121c-0.547,0.547-1.431,0.611-2.06,0.04V20
			c1.406,0,2.868,0,4.5,0c0.276,0,0.5-0.224,0.5-0.5V10h1c0.791,0,1,0.981,1,1.5v8c0,0.276,0.224,0.5,0.5,0.5s0.5-0.224,0.5-0.5v-8
			C22,10.258,21.313,9,20,9z"/>
		<path d="M15.354,16.146l-2.5-2.5c-0.195-0.195-0.512-0.195-0.707,0l-2.5,2.5c-0.195,0.195-0.195,0.512,0,0.707
			c0.195,0.195,0.512,0.195,0.707,0L12,15.207V23c0,0.276,0.224,0.5,0.5,0.5S13,23.276,13,23v-7.793l1.646,1.647
			c0.195,0.195,0.512,0.195,0.707,0C15.549,16.658,15.549,16.342,15.354,16.146z"/>
	</g>
</g>
<g id="Invisible_Shape">
	<rect fill="none" width="24" height="24"/>
</g>
</svg>
