<?xml version="1.0" encoding="utf-8"?>
<!-- Generator: Adobe Illustrator 19.2.1, SVG Export Plug-In . SVG Version: 6.00 Build 0)  -->
<svg version="1.1" xmlns="http://www.w3.org/2000/svg" xmlns:xlink="http://www.w3.org/1999/xlink" x="0px" y="0px" width="24px"
	 height="24px" viewBox="0 0 24 24" enable-background="new 0 0 24 24" xml:space="preserve">
<g id="Filled_Icon">
	<g>
		<path d="M18.986,7.385c-0.609-2.566-2.522-4.439-4.995-5.104l1.349-1.439c0.189-0.201,0.178-0.518-0.023-0.707
			c-0.201-0.188-0.517-0.179-0.707,0.023l-1.787,1.906c-0.861-0.087-0.771-0.087-1.633,0L9.402,0.158
			c-0.19-0.202-0.506-0.211-0.707-0.023C8.494,0.324,8.483,0.641,8.672,0.842l1.347,1.437c-2.49,0.663-4.409,2.539-5.006,5.108
			C4.94,7.699,5.178,8,5.5,8h13C18.826,8,19.06,7.697,18.986,7.385z M11,6h-1V5h1V6z M14,6h-1V5h1V6z"/>
		<g>
			<path d="M20,9H4c-1.313,0-2,1.258-2,2.5v8C2,19.776,2.224,20,2.5,20S3,19.776,3,19.5v-8C3,10.981,3.209,10,4,10h1v9.5
				C5,19.796,5.185,20,5.655,20c0.135-0.516,0.429-0.762,0.844-1.001c-0.963-0.556-1.089-1.454-0.694-2.135l0.999-1.731
				c0.384-0.66,1.26-1.006,2.196-0.463C9,13.59,9.698,13,10.5,13h2c0.804,0,1.5,0.592,1.5,1.668c0.94-0.543,1.82-0.193,2.197,0.469
				l0.999,1.729c0.398,0.7,0.25,1.592-0.696,2.135c0.418,0.242,0.707,0.476,0.847,0.994c0.001,0.002,0.001,0.004,0.001,0.006
				c0.38,0,0.755,0,1.152,0c0.276,0,0.5-0.224,0.5-0.5V10h1c0.791,0,1,0.981,1,1.5v8c0,0.276,0.224,0.5,0.5,0.5s0.5-0.224,0.5-0.5
				v-8C22,10.258,21.313,9,20,9z"/>
		</g>
		<path d="M16.147,19.951l-0.702-0.406c0.073-0.541,0.073-0.547,0-1.092l0.702-0.404c0.239-0.138,0.319-0.443,0.183-0.684
			l-1.001-1.732c-0.137-0.239-0.443-0.322-0.683-0.184l-0.702,0.406c-0.288-0.226-0.601-0.419-0.944-0.559V14.5
			c0-0.276-0.224-0.5-0.5-0.5h-2c-0.276,0-0.5,0.224-0.5,0.5v0.797c-0.344,0.14-0.656,0.334-0.945,0.559l-0.701-0.404
			c-0.24-0.139-0.545-0.057-0.684,0.182l-1,1.732c-0.139,0.239-0.057,0.546,0.184,0.684l0.701,0.405c-0.073,0.54-0.074,0.548,0,1.09
			l-0.702,0.405c-0.239,0.139-0.32,0.444-0.184,0.684l1.001,1.732c0.137,0.239,0.443,0.321,0.684,0.184l0.7-0.405
			c0.289,0.226,0.602,0.42,0.946,0.559V23.5c0,0.276,0.224,0.5,0.5,0.5h2c0.276,0,0.5-0.224,0.5-0.5v-0.797
			c0.345-0.14,0.657-0.334,0.946-0.559l0.701,0.404c0.239,0.138,0.544,0.056,0.683-0.184l1-1.732
			C16.469,20.395,16.387,20.088,16.147,19.951z M11.5,21c-1.104,0-2-0.896-2-2s0.896-2,2-2s2,0.896,2,2S12.604,21,11.5,21z"/>
	</g>
</g>
<g id="Invisible_Shape">
	<rect fill="none" width="24" height="24"/>
</g>
</svg>
