<?xml version="1.0" encoding="utf-8"?>
<!-- Generator: Adobe Illustrator 19.2.1, SVG Export Plug-In . SVG Version: 6.00 Build 0)  -->
<svg version="1.1" xmlns="http://www.w3.org/2000/svg" xmlns:xlink="http://www.w3.org/1999/xlink" x="0px" y="0px" width="24px"
	 height="24px" viewBox="0 0 24 24" enable-background="new 0 0 24 24" xml:space="preserve">
<g id="Filled_Icon">
	<g>
		<path d="M18.986,7.385c-0.609-2.566-2.522-4.439-4.995-5.104l1.349-1.439c0.189-0.201,0.178-0.518-0.023-0.707
			c-0.201-0.188-0.517-0.179-0.707,0.023l-1.787,1.906c-0.861-0.087-0.771-0.087-1.633,0L9.402,0.158
			c-0.19-0.202-0.506-0.211-0.707-0.023C8.494,0.324,8.483,0.641,8.672,0.842l1.347,1.437c-2.49,0.663-4.409,2.539-5.006,5.108
			C4.94,7.699,5.178,8,5.5,8h13C18.826,8,19.06,7.697,18.986,7.385z M11,6h-1V5h1V6z M14,6h-1V5h1V6z"/>
		<path d="M20,9C17.986,9,6.007,9,4,9c-1.313,0-2,1.258-2,2.5v8C2,19.776,2.224,20,2.5,20S3,19.776,3,19.5v-8
			C3,10.981,3.209,10,4,10h1v9.5C5,19.776,5.224,20,5.5,20h1.026C6.234,16.714,8.819,14.001,12,14.001
			c3.178,0,5.767,2.708,5.475,5.999H18.5c0.276,0,0.5-0.224,0.5-0.5V10h1c0.791,0,1,0.981,1,1.5v8c0,0.276,0.224,0.5,0.5,0.5
			s0.5-0.224,0.5-0.5v-8C22,10.258,21.313,9,20,9z"/>
		<path d="M12.001,15c-2.48,0-4.499,2.019-4.499,4.499c0,2.48,2.019,4.499,4.499,4.499s4.499-2.018,4.499-4.499
			C16.5,17.019,14.481,15,12.001,15z M9.328,18.555c0.683-1.925,3.118-2.556,4.741-1.121V17.33c0-0.226,0.183-0.408,0.409-0.408
			c0.228,0,0.41,0.183,0.41,0.408v1.363c0,0.226-0.183,0.408-0.41,0.408h-1.362c-0.226,0-0.41-0.183-0.41-0.408
			c0-0.227,0.184-0.409,0.41-0.409h0.65c-1.023-1.259-3.107-1.043-3.667,0.545c-0.075,0.21-0.309,0.326-0.523,0.248
			C9.364,19.001,9.252,18.768,9.328,18.555z M14.996,20.446c-0.675,1.906-3.094,2.57-4.742,1.122v0.102
			c0,0.228-0.184,0.41-0.408,0.41c-0.227,0-0.41-0.183-0.41-0.41v-1.361c0-0.227,0.184-0.409,0.41-0.409h1.362
			c0.226,0,0.408,0.183,0.408,0.409c0,0.226-0.183,0.409-0.408,0.409h-0.65c1.016,1.251,3.099,1.054,3.667-0.545
			c0.077-0.212,0.314-0.323,0.523-0.249C14.96,20,15.071,20.233,14.996,20.446z"/>
	</g>
</g>
<g id="Invisible_Shape">
	<rect fill="none" width="24" height="24"/>
</g>
</svg>
