<?xml version="1.0" encoding="utf-8"?>
<!-- Generator: Adobe Illustrator 19.2.1, SVG Export Plug-In . SVG Version: 6.00 Build 0)  -->
<svg version="1.1" xmlns="http://www.w3.org/2000/svg" xmlns:xlink="http://www.w3.org/1999/xlink" x="0px" y="0px" width="24px"
	 height="24px" viewBox="0 0 24 24" enable-background="new 0 0 24 24" xml:space="preserve">
<g id="Filled_Icon">
	<g>
		<g>
			<path d="M0,17v1.911C0,20.062,0.897,21,2,21h9v1H5c-0.276,0-0.5,0.224-0.5,0.5S4.724,23,5,23h14c0.276,0,0.5-0.224,0.5-0.5
				S19.276,22,19,22h-7v-1h10c1.103,0,2-0.938,2-2.089V17H0z M12,20c-0.552,0-1-0.449-1-1s0.448-1,1-1s1,0.449,1,1S12.552,20,12,20z
				"/>
		</g>
		<path d="M22,2H2C0.897,2,0,2.937,0,4.089v9.204l5.897-5.897c0.195-0.195,0.512-0.195,0.707,0l3.647,3.647l3.146-3.147
			c0.195-0.195,0.512-0.195,0.707,0c0.195,0.195,0.195,0.512,0,0.707l-3.5,3.5c-0.195,0.195-0.512,0.195-0.707,0L6.25,8.457
			L0,14.707V16h24V4.089C24,2.937,23.103,2,22,2z M18.496,8c1.103,0,2,0.896,2,2c0,0.93-0.64,1.705-1.5,1.929V12.5
			c0,0.276-0.224,0.5-0.5,0.5s-0.5-0.224-0.5-0.5v-0.571c-0.86-0.224-1.5-0.999-1.5-1.929c0-0.276,0.224-0.5,0.5-0.5
			s0.5,0.224,0.5,0.5c0,0.551,0.448,1,1,1s1-0.449,1-1s-0.448-1-1-1c-1.102,0-2-0.898-2-2c0-0.93,0.64-1.705,1.5-1.929V4.5
			c0-0.276,0.224-0.5,0.5-0.5s0.5,0.224,0.5,0.5v0.571c0.86,0.224,1.5,0.999,1.5,1.929c0,0.276-0.224,0.5-0.5,0.5
			s-0.5-0.224-0.5-0.5c0-0.551-0.448-1-1-1s-1,0.449-1,1S17.944,8,18.496,8z"/>
	</g>
</g>
<g id="Invisible_Shape">
	<rect fill="none" width="24" height="24"/>
</g>
</svg>
