<?xml version="1.0" encoding="utf-8"?>
<!-- Generator: Adobe Illustrator 19.2.1, SVG Export Plug-In . SVG Version: 6.00 Build 0)  -->
<svg version="1.1" xmlns="http://www.w3.org/2000/svg" xmlns:xlink="http://www.w3.org/1999/xlink" x="0px" y="0px" width="24px"
	 height="24px" viewBox="0 0 24 24" enable-background="new 0 0 24 24" xml:space="preserve">
<g id="Filled_Icon">
	<g>
		<g>
			<path d="M6,15v-0.5c0-0.652,0.419-1.201,1-1.408V13H4.5C3.673,13,3,13.673,3,14.5V15H6z"/>
			<path d="M7.5,19C6.671,19,6,18.328,6,17.5V16H3v5h8v-1.999L7.5,19z"/>
			<path d="M3,22v0.5C3,23.327,3.673,24,4.5,24h5c0.827,0,1.5-0.673,1.5-1.5V22H3z"/>
		</g>
		<g>
			<path d="M21,13V4H8v9h1.879l1.099-1.099C10.408,11.689,10,11.144,10,10.5C10,9.672,10.671,9,11.5,9h3c0.829,0,1.5,0.672,1.5,1.5
				V13H21z"/>
			<path d="M15.908,14c-0.207,0.581-0.756,1-1.408,1c-0.644,0-1.189-0.408-1.401-0.977l-2.076,2.076
				c0.729,0.272,1.178,1.078,0.886,1.902L18.5,18c1.378,0,2.5-1.121,2.5-2.5V14H15.908z"/>
			<path d="M21,2.5C21,1.121,19.878,0,18.5,0h-8C9.122,0,8,1.121,8,2.5V3h13V2.5z"/>
		</g>
		<path d="M14.5,10h-3c-0.276,0-0.5,0.224-0.5,0.5s0.224,0.5,0.5,0.5h1.793L8,16.293V14.5C8,14.224,7.776,14,7.5,14S7,14.224,7,14.5
			v3C7,17.776,7.224,18,7.5,18h3c0.276,0,0.5-0.224,0.5-0.5S10.776,17,10.5,17H8.707L14,11.707V13.5c0,0.276,0.224,0.5,0.5,0.5
			s0.5-0.224,0.5-0.5v-3C15,10.224,14.776,10,14.5,10z"/>
	</g>
</g>
<g id="Invisible_Shape">
	<rect fill="none" width="24" height="24"/>
</g>
</svg>
