<?xml version="1.0" encoding="utf-8"?>
<!-- Generator: Adobe Illustrator 19.2.1, SVG Export Plug-In . SVG Version: 6.00 Build 0)  -->
<svg version="1.1" xmlns="http://www.w3.org/2000/svg" xmlns:xlink="http://www.w3.org/1999/xlink" x="0px" y="0px" width="24px"
	 height="24px" viewBox="0 0 24 24" enable-background="new 0 0 24 24" xml:space="preserve">
<g id="Filled_Icon">
	<g>
		<path d="M6.027,8.448C5.998,8.745,6.231,8.996,6.525,9h9.949c0.292-0.004,0.528-0.255,0.497-0.552
			c-0.164-1.637-1.069-3.059-2.355-3.955c0.64-0.843,1.382-1.837,1.387-2.992L16.009,0.5C16.01,0.224,15.787,0.001,15.51,0h-0.001
			c-0.275,0-0.499,0.22-0.5,0.496l-0.005,1.002c-0.005,0.913-0.731,1.796-1.262,2.496c-1.398-0.637-2.983-0.684-4.485,0
			C8.729,3.295,8,2.41,7.995,1.497L7.99,0.496C7.989,0.22,7.766,0,7.49,0H7.489c-0.277,0.001-0.5,0.224-0.499,0.5l0.005,1.002
			C7,2.655,7.744,3.652,8.382,4.493C7.097,5.39,6.191,6.812,6.027,8.448z"/>
		<path d="M17.75,14c1.201,0,2.062,1.019,2.896,1.854c0.195,0.195,0.512,0.195,0.707,0c0.195-0.195,0.195-0.512,0-0.707
			c-1-1-1.997-2.146-3.604-2.146H17v-2h0.75c1.201,0,2.062,1.019,2.896,1.854c0.195,0.195,0.512,0.195,0.707,0
			c0.195-0.195,0.195-0.512,0-0.707c-1-1-1.997-2.146-3.604-2.146H5.25c-1.605,0-2.603,1.146-3.603,2.146
			c-0.195,0.195-0.195,0.512,0,0.707s0.512,0.195,0.707,0C3.187,12.021,4.049,11,5.25,11H6v2H5.25c-1.605,0-2.603,1.146-3.603,2.146
			c-0.195,0.195-0.195,0.512,0,0.707c0.195,0.195,0.512,0.195,0.707,0C3.187,15.021,4.049,14,5.25,14H6v2H5.25
			c-1.605,0-2.603,1.146-3.603,2.146c-0.195,0.195-0.195,0.512,0,0.707c0.195,0.195,0.512,0.195,0.707,0
			C3.187,18.021,4.049,17,5.25,17h0.796c0.488,2.914,4.931,6.712,5.13,6.881c0.186,0.156,0.457,0.161,0.647,0
			c0.199-0.169,4.642-3.967,5.131-6.881h0.796c1.201,0,2.062,1.019,2.896,1.854c0.195,0.195,0.512,0.195,0.707,0
			c0.195-0.195,0.195-0.512,0-0.707c-1-1-1.997-2.146-3.604-2.146H17v-2H17.75z"/>
	</g>
</g>
<g id="Invisible_Shape">
	<rect fill="none" width="24" height="24"/>
</g>
</svg>
