<?xml version="1.0" encoding="utf-8"?>
<!-- Generator: Adobe Illustrator 19.2.1, SVG Export Plug-In . SVG Version: 6.00 Build 0)  -->
<svg version="1.1" xmlns="http://www.w3.org/2000/svg" xmlns:xlink="http://www.w3.org/1999/xlink" x="0px" y="0px" width="24px"
	 height="24px" viewBox="0 0 24 24" enable-background="new 0 0 24 24" xml:space="preserve">
<g id="Filled_Icon">
	<g>
		<path d="M6.853,9.146l-2-2c-0.195-0.195-0.512-0.195-0.707,0l-2,2c-0.195,0.195-0.195,0.512,0,0.707
			c0.195,0.195,0.512,0.195,0.707,0L4,8.707V11.5C4,11.776,4.224,12,4.5,12S5,11.776,5,11.5V8.707l1.147,1.147
			c0.195,0.195,0.512,0.195,0.707,0S7.049,9.342,6.853,9.146z"/>
		<path d="M19.854,14.146l-2-2c-0.195-0.195-0.512-0.195-0.707,0c-0.195,0.195-0.195,0.512,0,0.707L18.293,14H15.5
			c-0.276,0-0.5,0.224-0.5,0.5s0.224,0.5,0.5,0.5h2.793l-1.146,1.146c-0.195,0.195-0.195,0.512,0,0.707
			c0.195,0.195,0.512,0.195,0.707,0l2-2C20.049,14.658,20.049,14.342,19.854,14.146z"/>
		<g>
			<path d="M14,16v-0.5c0-1.379-1.122-2.5-2.5-2.5h-9C1.122,13,0,14.121,0,15.5V16H14z"/>
			<path d="M0,17v4.5C0,22.879,1.122,24,2.5,24h9c1.378,0,2.5-1.121,2.5-2.5V17H0z M6,21.5C6,21.776,5.776,22,5.5,22h-2
				C3.224,22,3,21.776,3,21.5v-3C3,18.224,3.224,18,3.5,18h2C5.776,18,6,18.224,6,18.5V21.5z M11,21.5c0,0.276-0.224,0.5-0.5,0.5h-2
				C8.224,22,8,21.776,8,21.5v-3C8,18.224,8.224,18,8.5,18h2c0.276,0,0.5,0.224,0.5,0.5V21.5z"/>
		</g>
		<g>
			<path d="M24,3.001V2.5C24,1.121,22.878,0,21.5,0h-15C5.122,0,4,1.121,4,2.5v0.501H24z M11.5,1C11.776,1,12,1.224,12,1.5
				S11.776,2,11.5,2S11,1.776,11,1.5S11.224,1,11.5,1z M9.5,1C9.776,1,10,1.224,10,1.5S9.776,2,9.5,2S9,1.776,9,1.5S9.224,1,9.5,1z
				 M7.5,1C7.776,1,8,1.224,8,1.5S7.776,2,7.5,2S7,1.776,7,1.5S7.224,1,7.5,1z"/>
			<path d="M4,4.001v2.092C4.59,5.88,5.18,6.058,5.562,6.44l1.999,1.999c0.586,0.586,0.586,1.535,0,2.121
				C7.176,10.945,6.608,11.119,6,10.902V12h5.5c1.192,0,2.245,0.602,2.877,1.515C14.652,13.202,15.051,13,15.5,13h0.598
				c-0.188-0.528-0.081-1.138,0.342-1.561c0.586-0.586,1.535-0.586,2.121,0l1.999,1.999c0.379,0.38,0.56,0.971,0.348,1.561H21.5
				c1.378,0,2.5-1.121,2.5-2.5V4.001H4z M12,9.5c0,0.276-0.224,0.5-0.5,0.5h-2C9.224,10,9,9.776,9,9.5v-4C9,5.224,9.224,5,9.5,5h2
				C11.776,5,12,5.224,12,5.5V9.5z M16,9.5c0,0.276-0.224,0.5-0.5,0.5h-2C13.224,10,13,9.776,13,9.5v-4C13,5.224,13.224,5,13.5,5h2
				C15.776,5,16,5.224,16,5.5V9.5z M20,9.5c0,0.276-0.224,0.5-0.5,0.5h-2C17.224,10,17,9.776,17,9.5v-4C17,5.224,17.224,5,17.5,5h2
				C19.776,5,20,5.224,20,5.5V9.5z"/>
		</g>
	</g>
</g>
<g id="Invisible_Shape">
	<rect fill="none" width="24" height="24"/>
</g>
</svg>
