<?xml version="1.0" encoding="utf-8"?>
<!-- Generator: Adobe Illustrator 19.2.1, SVG Export Plug-In . SVG Version: 6.00 Build 0)  -->
<svg version="1.1" xmlns="http://www.w3.org/2000/svg" xmlns:xlink="http://www.w3.org/1999/xlink" x="0px" y="0px" width="24px"
	 height="24px" viewBox="0 0 24 24" enable-background="new 0 0 24 24" xml:space="preserve">
<g id="Filled_Icon">
	<g>
		<g>
			<path d="M15,10V5H2.5C1.122,5,0,6.121,0,7.5V10H15z M10,7c0.551,0,1,0.448,1,1s-0.449,1-1,1S9,8.552,9,8S9.449,7,10,7z M7,7
				c0.551,0,1,0.448,1,1S7.551,9,7,9S6,8.552,6,8S6.449,7,7,7z M4,7c0.551,0,1,0.448,1,1S4.551,9,4,9S3,8.552,3,8S3.449,7,4,7z"/>
			<path d="M17.5,13c-1.207,0-2.217-0.86-2.449-2H0v10.5C0,22.879,1.122,24,2.5,24h17c1.378,0,2.5-1.121,2.5-2.5V13H17.5z M2.5,14
				c0-1.102,0.897-2,2-2s2,0.898,2,2s-0.897,2-2,2S2.5,15.102,2.5,14z M16,22H5c-0.387,0-0.629-0.424-0.429-0.757l3-5
				c0.176-0.294,0.593-0.329,0.813-0.063l1.99,2.389l2.17-4.775c0.17-0.375,0.748-0.406,0.92,0.021l3,7.5
				C16.595,21.642,16.354,22,16,22z"/>
		</g>
		<g>
			<path d="M16,9h8V3h-8V9z M21.447,5.276l0.945,1.89C22.641,7.441,22.57,7.912,22,8h-3c-0.445,0-0.667-0.541-0.354-0.853l2-2
				C20.908,4.882,21.308,4.998,21.447,5.276z M18.5,4c0.551,0,1,0.448,1,1s-0.449,1-1,1s-1-0.448-1-1S17.949,4,18.5,4z"/>
			<path d="M24,2V1.5C24,0.673,23.327,0,22.5,0h-5C16.673,0,16,0.673,16,1.5V2H24z"/>
			<path d="M16,10v0.5c0,0.827,0.673,1.5,1.5,1.5h5c0.827,0,1.5-0.673,1.5-1.5V10H16z"/>
		</g>
	</g>
</g>
<g id="Invisible_Shape">
	<rect fill="none" width="24" height="24"/>
</g>
</svg>
