<?xml version="1.0" encoding="utf-8"?>
<!-- Generator: Adobe Illustrator 19.2.1, SVG Export Plug-In . SVG Version: 6.00 Build 0)  -->
<svg version="1.1" xmlns="http://www.w3.org/2000/svg" xmlns:xlink="http://www.w3.org/1999/xlink" x="0px" y="0px" width="24px"
	 height="24px" viewBox="0 0 24 24" enable-background="new 0 0 24 24" xml:space="preserve">
<g id="Filled_Icon">
	<g>
		<g>
			<path d="M17.958,6V0.5c0-0.276-0.224-0.5-0.5-0.5h-11C6.182,0,5.958,0.224,6,0.5V6H17.958z"/>
			<path d="M7,10h10c1.379-0.5,2.5-1.621,2.5-3h-15C4.5,8.379,5.621,9.5,7,10z"/>
		</g>
		<g>
			<path d="M4,20h5v-4.009c0-0.271-1.003-3.286-1.61-4.231c-1.017-1.576-3.07-0.667-2.596,1.32l0.299,1.306l-1.594-1.594
				C3.476,9.55,2.9,7.511,1.787,6.731C1.186,6.309,0,6.215,0,6.938V15c0,0.15,0.067,0.293,0.185,0.388
				c0.844,0.686,3.218,3.156,3.815,3.78V20z"/>
			<path d="M3,21v2.5C3,23.776,3.224,24,3.5,24h6c0.276,0,0.5-0.224,0.5-0.5V21H3z"/>
		</g>
		<g>
			<path d="M20,19.177c0.638-0.631,3.146-3.115,3.854-3.823C23.947,15.26,24,15.133,24,15V6.938c0-0.723-1.185-0.629-1.787-0.207
				c-1.113,0.78-1.688,2.819-1.712,6.061l-1.594,1.594l0.298-1.302c0.477-1.994-1.579-2.898-2.595-1.324
				C16.003,12.705,15,15.721,15,15.991V20h5V19.177z"/>
			<path d="M14,21v2.5c0,0.276,0.224,0.5,0.5,0.5h6c0.276,0,0.5-0.224,0.5-0.5V21H14z"/>
		</g>
	</g>
</g>
<g id="Invisible_Shape">
	<rect fill="none" width="24" height="24"/>
</g>
</svg>
