<?xml version="1.0" encoding="utf-8"?>
<!-- Generator: Adobe Illustrator 19.2.1, SVG Export Plug-In . SVG Version: 6.00 Build 0)  -->
<svg version="1.1" xmlns="http://www.w3.org/2000/svg" xmlns:xlink="http://www.w3.org/1999/xlink" x="0px" y="0px" width="24px"
	 height="24px" viewBox="0 0 24 24" enable-background="new 0 0 24 24" xml:space="preserve">
<g id="Filled_Icon">
	<g>
		<path d="M0,17v1.911C0,20.062,0.897,21,2,21h9v1H5c-0.276,0-0.5,0.224-0.5,0.5S4.724,23,5,23h14c0.276,0,0.5-0.224,0.5-0.5
			S19.276,22,19,22h-7v-1h10c1.103,0,2-0.938,2-2.089V17H0z M12,20c-0.552,0-1-0.449-1-1s0.448-1,1-1s1,0.449,1,1S12.552,20,12,20z"
			/>
		<g>
			<path d="M13.5,9H12V7.5C12,7.224,11.776,7,11.5,7S11,7.224,11,7.5V9H9.516c-0.276,0-0.5,0.224-0.5,0.5s0.224,0.5,0.5,0.5H11v1.5
				c0,0.276,0.224,0.5,0.5,0.5s0.5-0.224,0.5-0.5V10h1.5c0.276,0,0.5-0.224,0.5-0.5S13.776,9,13.5,9z"/>
			<path d="M22,2H2C0.897,2,0,2.937,0,4.089V16h24V4.089C24,2.937,23.103,2,22,2z M16,11.316c0,0.8-1.459,2.734-4.365,3.55
				c-0.086,0.024-0.184,0.024-0.27,0C8.459,14.051,7,12.116,7,11.316V5.392C7,4.985,7.459,4.75,7.786,4.982
				c1.45,1.012,2.641,0.757,3.316-0.106c0.189-0.243,0.604-0.242,0.794-0.001c0.679,0.865,1.867,1.118,3.317,0.107
				C15.543,4.75,16,4.987,16,5.392V11.316z"/>
		</g>
	</g>
</g>
<g id="Invisible_Shape">
	<rect fill="none" width="24" height="24"/>
</g>
</svg>
