<?xml version="1.0" encoding="utf-8"?>
<!-- Generator: Adobe Illustrator 19.2.1, SVG Export Plug-In . SVG Version: 6.00 Build 0)  -->
<svg version="1.1" xmlns="http://www.w3.org/2000/svg" xmlns:xlink="http://www.w3.org/1999/xlink" x="0px" y="0px" width="24px"
	 height="24px" viewBox="0 0 24 24" enable-background="new 0 0 24 24" xml:space="preserve">
<g id="Filled_Icon">
	<g>
		<g>
			<path d="M10.5,8c1.378,0,2.5,1.121,2.5,2.5V17h11V8.088C24,6.937,23.103,6,22,6H7C5.926,6,5.054,6.891,5.009,8H10.5z"/>
			<path d="M13,18v0.5c0,1.379-1.122,2.5-2.5,2.5h-2c-0.176,0-0.343-0.036-0.5-0.092V22h6v1h-4c-0.276,0-0.5,0.224-0.5,0.5
				S9.724,24,10,24h9c0.276,0,0.5-0.224,0.5-0.5S19.276,23,19,23h-4v-1h7c1.103,0,2-0.937,2-2.088V18H13z"/>
		</g>
		<g>
			<path d="M7,16v-0.5C7,14.673,6.327,14,5.5,14h-4C0.673,14,0,14.673,0,15.5V16H7z"/>
			<rect y="17" width="7" height="4"/>
			<path d="M0,22v0.5C0,23.327,0.673,24,1.5,24h4C6.327,24,7,23.327,7,22.5V22H0z"/>
		</g>
		<g>
			<path d="M12,11v-0.5C12,9.673,11.327,9,10.5,9h-6C3.673,9,3,9.673,3,10.5v0.501L12,11z"/>
			<path d="M3,13h2.5C6.878,13,8,14.121,8,15.5V17h4v-5l-9,0.001V13z"/>
			<path d="M8,18v2h2.5c0.827,0,1.5-0.673,1.5-1.5V18H8z"/>
		</g>
	</g>
</g>
<g id="Invisible_Shape">
	<rect fill="none" width="24" height="24"/>
</g>
</svg>
