<?xml version="1.0" encoding="utf-8"?>
<!-- Generator: Adobe Illustrator 19.2.1, SVG Export Plug-In . SVG Version: 6.00 Build 0)  -->
<svg version="1.1" xmlns="http://www.w3.org/2000/svg" xmlns:xlink="http://www.w3.org/1999/xlink" x="0px" y="0px" width="24px"
	 height="24px" viewBox="0 0 24 24" enable-background="new 0 0 24 24" xml:space="preserve">
<g id="Filled_Icon">
	<path d="M23.5,0h-23C0.193,0-0.04,0.274,0.005,0.574l3,20c0.028,0.183,0.154,0.336,0.328,0.396l8.5,3
		c0.106,0.039,0.225,0.039,0.333,0l8.5-3c0.175-0.06,0.301-0.214,0.328-0.396l3-20C24.04,0.268,23.801,0,23.5,0z M17.757,4.929
		L9.305,10H16.5c0.305,0,0.538,0.269,0.495,0.57l-1,7c-0.028,0.195-0.168,0.357-0.358,0.41l-3.5,1c-0.087,0.026-0.189,0.025-0.274,0
		l-3.5-1c-0.188-0.053-0.327-0.212-0.356-0.404l-0.462-3c-0.042-0.273,0.146-0.528,0.418-0.57c0.277-0.044,0.528,0.145,0.57,0.418
		l0.413,2.684L12,17.979l3.051-0.871L15.923,11H7.5c-0.505,0-0.691-0.669-0.258-0.929L15.694,5H6.5C6.224,5,6,4.776,6,4.5
		S6.224,4,6.5,4h11C18.005,4,18.191,4.668,17.757,4.929z"/>
</g>
<g id="Invisible_Shape">
	<rect fill="none" width="24" height="24"/>
</g>
</svg>
