<?xml version="1.0" encoding="utf-8"?>
<!-- Generator: Adobe Illustrator 19.2.1, SVG Export Plug-In . SVG Version: 6.00 Build 0)  -->
<svg version="1.1" xmlns="http://www.w3.org/2000/svg" xmlns:xlink="http://www.w3.org/1999/xlink" x="0px" y="0px" width="24px"
	 height="24px" viewBox="0 0 24 24" enable-background="new 0 0 24 24" xml:space="preserve">
<g id="Filled_Icon">
	<g>
		<rect x="5" y="16" width="9" height="2"/>
		<rect x="9" y="19" width="9" height="2"/>
		<path d="M23.5,12h-4.508C18.993,12.014,19,12.025,19,12.039V15h5v-2.5C24,12.225,23.776,12,23.5,12z"/>
		<path d="M3.992,22H0v1.5C0,23.776,0.224,24,0.5,24H4L3.992,22z"/>
		<path d="M18,12.039c0-0.014,0.007-0.025,0.008-0.039H8.992C8.993,12.014,9,12.025,9,12.039V15h9V12.039z"/>
		<path d="M13.992,22H5c0,0,0.001,1.987,0,2h9c-0.001-0.013-0.008-0.024-0.008-0.038V22z"/>
		<rect x="15" y="16" width="9" height="2"/>
		<path d="M8,12.039C8,12.025,8.006,12.014,8.008,12H0.5C0.224,12,0,12.225,0,12.5V15h8V12.039z"/>
		<rect y="16" width="4" height="2"/>
		<rect x="19" y="19" width="5" height="2"/>
		<path d="M15.008,23.962c0,0.014-0.007,0.025-0.008,0.038h8.5c0.276,0,0.5-0.224,0.5-0.5V22h-8.992V23.962z"/>
		<rect y="19" width="8" height="2"/>
		<path d="M6.815,8.328c0.195-0.195,0.512-0.195,0.707,0c0.195,0.195,0.195,0.512,0,0.707C7.215,9.342,9.237,10.774,9.61,11h1.479
			c-0.883,0-1.329-2.606,1.01-4.944c0.351-0.351,0.941-0.03,0.844,0.451c-0.381,1.905,2.417,2.023,1.321,4.217
			C14.18,10.893,14.007,11,13.817,11h0.729c0.365-0.22,2.402-1.665,2.1-1.965c-0.195-0.195-0.195-0.512,0-0.707
			c0.195-0.195,0.512-0.195,0.707,0c0.873,0.873-0.138,1.912-1.077,2.672h2.542c0.151,0,0.295-0.069,0.391-0.188
			c2.019-2.525,1.027-5.67-2.051-6.696c-0.391-0.13-0.763,0.242-0.633,0.633c0.179,0.538-0.016,0.64-0.415,1.039
			c-0.485-3.175-3.231-2.64-1.858-5.04c0.21-0.369-0.105-0.812-0.517-0.741c-3.401,0.568-5.33,2.927-5.217,6.122
			c-0.79-0.603-1.72-0.95-1.488-1.871c0.102-0.407-0.315-0.752-0.696-0.575c-2.576,1.2-3.578,5.099-1.506,7.171
			C4.921,10.947,5.048,11,5.181,11h2.7C6.952,10.243,5.944,9.195,6.815,8.328z"/>
	</g>
</g>
<g id="Invisible_Shape">
	<rect fill="none" width="24" height="24"/>
</g>
</svg>
