<?xml version="1.0" encoding="utf-8"?>
<!-- Generator: Adobe Illustrator 19.2.1, SVG Export Plug-In . SVG Version: 6.00 Build 0)  -->
<svg version="1.1" xmlns="http://www.w3.org/2000/svg" xmlns:xlink="http://www.w3.org/1999/xlink" x="0px" y="0px" width="24px"
	 height="24px" viewBox="0 0 24 24" enable-background="new 0 0 24 24" xml:space="preserve">
<g id="Filled_Icon">
	<g>
		<g>
			<path d="M14,8v0.5c0,0.827,0.673,1.5,1.5,1.5h3c0.827,0,1.5-0.673,1.5-1.5V8H14z"/>
			<rect x="14" y="3" width="6" height="4"/>
			<path d="M20,2V1.5C20,0.673,19.327,0,18.5,0h-3C14.673,0,14,0.673,14,1.5V2H20z"/>
		</g>
		<g>
			<path d="M5,10.5C5,8.57,6.57,7,8.5,7H13V4H0v9h5V10.5z"/>
			<path d="M5,14H0v1.5C0,16.879,1.122,18,2.5,18H5V14z"/>
			<path d="M13,3V2.5C13,1.121,11.878,0,10.5,0h-8C1.122,0,0,1.121,0,2.5V3H13z"/>
		</g>
		<g>
			<path d="M21,16.971c0.469,0.168,2.625,0.893,3,1.161V10.5C24,9.121,22.878,8,21.5,8H21V16.971z"/>
			<path d="M20,16.611v-6.124c-0.4,0.303-0.891,0.489-1.427,0.505C18.841,11.404,19,11.917,19,12.5v3.753L20,16.611z"/>
			<path d="M13,17.477V12.5c0-0.869,0.371-1.604,0.956-2.049C13.378,9.993,13,9.293,13,8.5V8h-2v9.283
				C11.726,17.27,12.333,17.191,13,17.477z"/>
			<path d="M10,17.51V8H8.5C7.122,8,6,9.121,6,10.5v8C6,19.879,7.122,21,8.5,21h0.34C8.128,19.715,8.59,18.126,10,17.51z"/>
		</g>
		<path d="M23.079,18.779L18,16.957V12.5c0-0.911-0.491-1.5-1.25-1.5h-1.448C14.535,11,14,11.617,14,12.5v7.313l-0.827-0.989
			c-0.271-0.345-0.726-0.559-1.199-0.559l-0.99,0.018c-1.129,0-1.826,1.207-1.299,2.179l1.808,3.278
			c0.088,0.16,0.256,0.259,0.438,0.259L23,24c0.247,0,0.457-0.181,0.494-0.425L24,20.221C24,19.518,23.63,18.949,23.079,18.779z"/>
	</g>
</g>
<g id="Invisible_Shape">
	<rect fill="none" width="24" height="24"/>
</g>
</svg>
