<?xml version="1.0" encoding="utf-8"?>
<!-- Generator: Adobe Illustrator 19.2.1, SVG Export Plug-In . SVG Version: 6.00 Build 0)  -->
<svg version="1.1" xmlns="http://www.w3.org/2000/svg" xmlns:xlink="http://www.w3.org/1999/xlink" x="0px" y="0px" width="24px"
	 height="24px" viewBox="0 0 24 24" enable-background="new 0 0 24 24" xml:space="preserve">
<g id="Filled_Icon">
	<g>
		<path d="M13.671,11.658L18.354,14H21.5c1.379,0,2.5-1.121,2.5-2.5v-7C24,3.121,22.879,2,21.5,2h-19C1.121,2,0,3.121,0,4.5v7
			C0,12.879,1.121,14,2.5,14h9.322C10.882,12.113,12.528,11.086,13.671,11.658z M19,5.5c1.381,0,2.5,1.119,2.5,2.5
			s-1.119,2.5-2.5,2.5S16.5,9.381,16.5,8S17.619,5.5,19,5.5z M5,10.5c-1.381,0-2.5-1.119-2.5-2.5S3.619,5.5,5,5.5S7.5,6.619,7.5,8
			S6.381,10.5,5,10.5z M9.5,8c0-1.381,1.119-2.5,2.5-2.5s2.5,1.119,2.5,2.5s-1.119,2.5-2.5,2.5S9.5,9.381,9.5,8z"/>
		<path d="M23.224,17.553l-10-5c-0.432-0.217-0.884,0.246-0.671,0.671l5,10c0.206,0.411,0.819,0.35,0.933-0.103l0.927-3.709
			l3.709-0.928C23.574,18.371,23.636,17.759,23.224,17.553z"/>
	</g>
</g>
<g id="Invisible_Shape">
	<rect fill="none" width="24" height="24"/>
</g>
</svg>
