<?xml version="1.0" encoding="utf-8"?>
<!-- Generator: Adobe Illustrator 19.2.1, SVG Export Plug-In . SVG Version: 6.00 Build 0)  -->
<svg version="1.1" xmlns="http://www.w3.org/2000/svg" xmlns:xlink="http://www.w3.org/1999/xlink" x="0px" y="0px" width="24px"
	 height="24px" viewBox="0 0 24 24" enable-background="new 0 0 24 24" xml:space="preserve">
<g id="Filled_Icon">
	<g>
		<path d="M13.5,12h0.521c0.254-2.242,2.14-3.997,4.449-3.997S22.666,9.758,22.92,12h0.58c0.176,0,0.343,0.036,0.5,0.092V3.5
			C24,3.224,23.776,3,23.5,3h-23C0.224,3,0,3.224,0,3.5v9C0,12.776,0.224,13,0.5,13h11.592C12.299,12.419,12.848,12,13.5,12z
			 M6.441,8.694C6.671,8.848,6.733,9.158,6.58,9.388c-0.155,0.231-0.466,0.29-0.693,0.139L5,8.935V10c0,0.276-0.224,0.5-0.5,0.5
			S4,10.276,4,10V8.927L3.102,9.515C2.87,9.667,2.56,9.601,2.41,9.371C2.259,9.141,2.323,8.83,2.554,8.679l1.04-0.682L2.559,7.306
			C2.329,7.152,2.267,6.842,2.42,6.612c0.154-0.23,0.465-0.29,0.693-0.139L4,7.065V6c0-0.276,0.224-0.5,0.5-0.5S5,5.724,5,6v1.074
			l0.898-0.589c0.23-0.151,0.54-0.088,0.692,0.143C6.742,6.86,6.678,7.17,6.447,7.321L5.406,8.004L6.441,8.694z M11,10
			c0,0.276-0.224,0.5-0.5,0.5S10,10.276,10,10V8.927L9.102,9.515C8.87,9.667,8.561,9.601,8.41,9.371
			C8.259,9.141,8.323,8.83,8.554,8.679l1.04-0.682L8.559,7.306C8.329,7.152,8.267,6.842,8.42,6.612
			c0.154-0.23,0.465-0.29,0.693-0.139L10,7.065V6c0-0.276,0.224-0.5,0.5-0.5S11,5.724,11,6v1.074l0.898-0.589
			c0.229-0.151,0.54-0.088,0.692,0.143c0.151,0.232,0.087,0.541-0.144,0.692l-1.041,0.683l1.035,0.69
			c0.23,0.153,0.292,0.464,0.139,0.693c-0.155,0.231-0.466,0.29-0.693,0.139L11,8.935V10z"/>
		<path d="M23.5,13h-1.529v-0.497c0-1.93-1.57-3.5-3.5-3.5s-3.5,1.57-3.5,3.5V13H13.5c-0.276,0-0.5,0.224-0.5,0.5v8
			c0,0.276,0.224,0.5,0.5,0.5h10c0.276,0,0.5-0.224,0.5-0.5v-8C24,13.224,23.776,13,23.5,13z M18.971,17.134v1.653
			c0,0.276-0.224,0.5-0.5,0.5c-0.276,0-0.5-0.224-0.5-0.5v-1.653c-0.293-0.175-0.5-0.482-0.5-0.847c0-0.551,0.448-1,1-1s1,0.449,1,1
			C19.471,16.652,19.264,16.959,18.971,17.134z M20.971,13h-5v-0.497c0-1.378,1.121-2.5,2.5-2.5c1.379,0,2.5,1.122,2.5,2.5V13z"/>
	</g>
</g>
<g id="Invisible_Shape">
	<rect fill="none" width="24" height="24"/>
</g>
</svg>
