<?xml version="1.0" encoding="utf-8"?>
<!-- Generator: Adobe Illustrator 19.2.1, SVG Export Plug-In . SVG Version: 6.00 Build 0)  -->
<svg version="1.1" xmlns="http://www.w3.org/2000/svg" xmlns:xlink="http://www.w3.org/1999/xlink" x="0px" y="0px" width="24px"
	 height="24px" viewBox="0 0 24 24" enable-background="new 0 0 24 24" xml:space="preserve">
<g id="Filled_Icon">
	<g>
		<path d="M17.5,8.042c2.779,0,5.204,1.523,6.5,3.774V3.5C24,3.224,23.776,3,23.5,3h-23C0.224,3,0,3.224,0,3.5v9
			C0,12.776,0.224,13,0.5,13h9.953C11.497,10.113,14.258,8.042,17.5,8.042z M6.441,8.694C6.671,8.848,6.733,9.158,6.58,9.388
			c-0.155,0.231-0.466,0.29-0.693,0.139L5,8.935V10c0,0.276-0.224,0.5-0.5,0.5S4,10.276,4,10V8.927L3.102,9.515
			C2.87,9.667,2.56,9.601,2.41,9.371C2.259,9.141,2.323,8.83,2.554,8.679l1.04-0.682L2.559,7.306
			C2.329,7.152,2.267,6.842,2.42,6.612c0.154-0.23,0.465-0.29,0.693-0.139L4,7.065V6c0-0.276,0.224-0.5,0.5-0.5S5,5.724,5,6v1.074
			l0.898-0.589c0.23-0.151,0.54-0.088,0.692,0.143C6.742,6.86,6.678,7.17,6.447,7.321L5.406,8.004L6.441,8.694z M9.102,9.515
			C8.87,9.667,8.561,9.601,8.41,9.371C8.259,9.141,8.323,8.83,8.554,8.679l1.04-0.682L8.559,7.306
			C8.329,7.152,8.267,6.842,8.42,6.612c0.154-0.23,0.465-0.29,0.693-0.139L10,7.065V6c0-0.276,0.224-0.5,0.5-0.5S11,5.724,11,6
			v1.074l0.898-0.589c0.229-0.151,0.54-0.088,0.692,0.143c0.151,0.232,0.087,0.541-0.144,0.692l-1.041,0.683l1.035,0.69
			c0.23,0.153,0.292,0.464,0.139,0.693c-0.155,0.231-0.466,0.29-0.693,0.139L11,8.935V10c0,0.276-0.224,0.5-0.5,0.5S10,10.276,10,10
			V8.927L9.102,9.515z"/>
		<path d="M17.5,9.042c-3.584,0-6.5,2.916-6.5,6.5s2.916,6.5,6.5,6.5s6.5-2.916,6.5-6.5S21.084,9.042,17.5,9.042z M20.869,14.379
			l-3.5,3.836c-0.191,0.212-0.522,0.217-0.723,0.017l-2.5-2.5c-0.195-0.195-0.195-0.512,0-0.707s0.512-0.195,0.707,0l2.13,2.13
			l3.147-3.449c0.187-0.204,0.503-0.22,0.706-0.032C21.041,13.859,21.056,14.175,20.869,14.379z"/>
	</g>
</g>
<g id="Invisible_Shape">
	<rect fill="none" width="24" height="24"/>
</g>
</svg>
