<?xml version="1.0" encoding="utf-8"?>
<!-- Generator: Adobe Illustrator 19.2.1, SVG Export Plug-In . SVG Version: 6.00 Build 0)  -->
<svg version="1.1" xmlns="http://www.w3.org/2000/svg" xmlns:xlink="http://www.w3.org/1999/xlink" x="0px" y="0px" width="24px"
	 height="24px" viewBox="0 0 24 24" enable-background="new 0 0 24 24" xml:space="preserve">
<g id="Filled_Icon">
	<g>
		<path d="M0,17v1.911C0,20.062,0.897,21,2,21h9v1H5c-0.276,0-0.5,0.224-0.5,0.5S4.724,23,5,23h14c0.276,0,0.5-0.224,0.5-0.5
			S19.276,22,19,22h-7v-1h10c1.103,0,2-0.938,2-2.089V17H0z M12,20c-0.552,0-1-0.449-1-1s0.448-1,1-1s1,0.449,1,1S12.552,20,12,20z"
			/>
		<path d="M22,2H2C0.897,2,0,2.937,0,4.089V16h24V4.089C24,2.937,23.103,2,22,2z M7.536,11.701c0.304,0,0.642-0.065,0.808-0.846
			c0.059-0.27,0.328-0.443,0.594-0.384c0.269,0.058,0.442,0.323,0.385,0.593c-0.289,1.354-1.131,1.637-1.786,1.637
			c-1.91,0-1.91-2.207-1.91-3.15c0-0.942,0-3.15,1.91-3.15c0.655,0,1.498,0.285,1.786,1.64C9.38,8.31,9.207,8.575,8.938,8.633
			C8.672,8.689,8.401,8.519,8.344,8.248C8.178,7.467,7.84,7.4,7.536,7.4c-0.461,0-0.91,0.166-0.91,2.15S7.075,11.701,7.536,11.701z
			 M12.17,12.701c-0.918,0-1.682-0.752-1.738-1.711c-0.017-0.275,0.193-0.513,0.47-0.528c0.277-0.007,0.513,0.193,0.528,0.469
			c0.025,0.433,0.351,0.77,0.74,0.77c0.409,0,0.741-0.37,0.741-0.824c0-0.51-0.322-0.698-0.806-0.826l-0.119-0.032
			c-1.286-0.333-1.556-1.159-1.556-1.792c0-1.007,0.781-1.826,1.741-1.826c0.918,0,1.682,0.752,1.738,1.712
			c0.017,0.275-0.193,0.513-0.47,0.528c-0.272,0.016-0.512-0.193-0.528-0.469C12.887,7.739,12.561,7.4,12.172,7.4
			c-0.409,0-0.741,0.37-0.741,0.826c0,0.51,0.323,0.699,0.808,0.824l0.121,0.033c1.282,0.336,1.552,1.16,1.552,1.793
			C13.911,11.883,13.13,12.701,12.17,12.701z M16.634,12.701c-0.918,0-1.682-0.752-1.738-1.711c-0.017-0.275,0.193-0.513,0.47-0.528
			c0.269-0.007,0.512,0.193,0.528,0.469c0.025,0.433,0.351,0.77,0.74,0.77c0.409,0,0.741-0.37,0.741-0.824
			c0-0.51-0.322-0.698-0.806-0.826l-0.119-0.032c-1.286-0.333-1.556-1.159-1.556-1.792c0-1.007,0.781-1.826,1.741-1.826
			c0.918,0,1.682,0.752,1.738,1.712c0.017,0.275-0.193,0.513-0.47,0.528c-0.269,0.016-0.512-0.193-0.528-0.469
			C17.351,7.739,17.025,7.4,16.636,7.4c-0.409,0-0.741,0.37-0.741,0.826c0,0.51,0.323,0.699,0.808,0.824l0.121,0.033
			c1.282,0.336,1.552,1.16,1.552,1.793C18.375,11.883,17.594,12.701,16.634,12.701z"/>
	</g>
</g>
<g id="Invisible_Shape">
	<rect fill="none" width="24" height="24"/>
</g>
</svg>
