<?xml version="1.0" encoding="utf-8"?>
<!-- Generator: Adobe Illustrator 19.2.1, SVG Export Plug-In . SVG Version: 6.00 Build 0)  -->
<svg version="1.1" xmlns="http://www.w3.org/2000/svg" xmlns:xlink="http://www.w3.org/1999/xlink" x="0px" y="0px" width="24px"
	 height="24px" viewBox="0 0 24 24" enable-background="new 0 0 24 24" xml:space="preserve">
<g id="Filled_Icon">
	<g>
		<path d="M0,17v1.911C0,20.062,0.897,21,2,21h9v1H5c-0.276,0-0.5,0.224-0.5,0.5S4.724,23,5,23h14c0.276,0,0.5-0.224,0.5-0.5
			S19.276,22,19,22h-7v-1h10c1.103,0,2-0.938,2-2.089V17H0z M12,20c-0.552,0-1-0.449-1-1s0.448-1,1-1s1,0.449,1,1S12.552,20,12,20z"
			/>
		<path d="M22,2H2C0.897,2,0,2.937,0,4.089V16h24V4.089C24,2.937,23.103,2,22,2z M8.241,12.32c-0.084,0.519-0.811,0.574-0.971,0.073
			l-0.35-1.097l-0.35,1.097c-0.159,0.499-0.887,0.446-0.971-0.073L4.774,7.135C4.731,6.861,4.917,6.606,5.189,6.562
			c0.277-0.047,0.528,0.143,0.573,0.416l0.495,3.108l0.187-0.587c0.133-0.415,0.82-0.415,0.953,0l0.187,0.585l0.494-3.106
			C8.121,6.704,8.38,6.515,8.65,6.562c0.273,0.044,0.459,0.3,0.416,0.573L8.241,12.32z M13.321,12.32
			c-0.084,0.519-0.811,0.574-0.971,0.073l-0.35-1.097l-0.35,1.097c-0.159,0.499-0.887,0.446-0.971-0.073L9.854,7.135
			c-0.043-0.273,0.143-0.529,0.415-0.573c0.276-0.047,0.528,0.143,0.573,0.416l0.495,3.108l0.186-0.587
			c0.133-0.415,0.82-0.415,0.953,0l0.187,0.585l0.493-3.106c0.043-0.273,0.302-0.463,0.572-0.416c0.273,0.043,0.459,0.3,0.416,0.573
			L13.321,12.32z M18.4,12.32c-0.084,0.519-0.811,0.574-0.971,0.073l-0.35-1.097l-0.35,1.097c-0.159,0.499-0.887,0.446-0.971-0.073
			l-0.826-5.186c-0.043-0.273,0.143-0.529,0.415-0.573c0.276-0.047,0.528,0.143,0.573,0.416l0.495,3.108l0.187-0.587
			c0.133-0.415,0.82-0.415,0.953,0l0.187,0.585l0.494-3.106c0.043-0.273,0.301-0.463,0.572-0.416c0.273,0.044,0.459,0.3,0.416,0.573
			L18.4,12.32z"/>
	</g>
</g>
<g id="Invisible_Shape">
	<rect fill="none" width="24" height="24"/>
</g>
</svg>
