<?xml version="1.0" encoding="utf-8"?>
<!-- Generator: Adobe Illustrator 19.2.1, SVG Export Plug-In . SVG Version: 6.00 Build 0)  -->
<svg version="1.1" xmlns="http://www.w3.org/2000/svg" xmlns:xlink="http://www.w3.org/1999/xlink" x="0px" y="0px" width="24px"
	 height="24px" viewBox="0 0 24 24" enable-background="new 0 0 24 24" xml:space="preserve">
<g id="Filled_Icon">
	<g>
		<path d="M0,17v1.911C0,20.062,0.897,21,2,21h9v1H5c-0.276,0-0.5,0.224-0.5,0.5S4.724,23,5,23h14c0.276,0,0.5-0.224,0.5-0.5
			S19.276,22,19,22h-7v-1h10c1.103,0,2-0.938,2-2.089V17H0z M12,20c-0.552,0-1-0.449-1-1s0.448-1,1-1s1,0.449,1,1S12.552,20,12,20z"
			/>
		<path d="M22,2H2C0.897,2,0,2.937,0,4.089V16h24V4.089C24,2.937,23.103,2,22,2z M7,12.5C7,12.776,6.776,13,6.5,13S6,12.776,6,12.5
			V10H5v2.5C5,12.776,4.776,13,4.5,13S4,12.776,4,12.5v-5C4,7.224,4.224,7,4.5,7S5,7.224,5,7.5V9h1V7.5C6,7.224,6.224,7,6.5,7
			S7,7.224,7,7.5V12.5z M10.5,8H10v4.5c0,0.276-0.224,0.5-0.5,0.5S9,12.776,9,12.5V8H8.5C8.224,8,8,7.776,8,7.5S8.224,7,8.5,7h2
			C10.776,7,11,7.224,11,7.5S10.776,8,10.5,8z M16,12.5c0,0.276-0.224,0.5-0.5,0.5S15,12.776,15,12.5V9.305l-0.571,0.952
			c-0.18,0.303-0.678,0.303-0.857,0L13,9.305V12.5c0,0.276-0.224,0.5-0.5,0.5S12,12.776,12,12.5v-5c0-0.225,0.15-0.422,0.366-0.481
			c0.222-0.062,0.447,0.032,0.562,0.225L14,9.028l1.071-1.785c0.115-0.192,0.341-0.287,0.562-0.225C15.85,7.078,16,7.275,16,7.5
			V12.5z M20,13h-2.5c-0.276,0-0.5-0.224-0.5-0.5v-5C17,7.224,17.224,7,17.5,7S18,7.224,18,7.5V12h2c0.276,0,0.5,0.224,0.5,0.5
			S20.276,13,20,13z"/>
	</g>
</g>
<g id="Invisible_Shape">
	<rect fill="none" width="24" height="24"/>
</g>
</svg>
