<?xml version="1.0" encoding="utf-8"?>
<!-- Generator: Adobe Illustrator 19.2.1, SVG Export Plug-In . SVG Version: 6.00 Build 0)  -->
<svg version="1.1" xmlns="http://www.w3.org/2000/svg" xmlns:xlink="http://www.w3.org/1999/xlink" x="0px" y="0px" width="24px"
	 height="24px" viewBox="0 0 24 24" enable-background="new 0 0 24 24" xml:space="preserve">
<g id="Filled_Icon">
	<g>
		<path d="M0,17v1.911C0,20.062,0.897,21,2,21h9v1H5c-0.276,0-0.5,0.224-0.5,0.5S4.724,23,5,23h14c0.276,0,0.5-0.224,0.5-0.5
			S19.276,22,19,22h-7v-1h10c1.103,0,2-0.938,2-2.089V17H0z M12,20c-0.552,0-1-0.449-1-1s0.448-1,1-1s1,0.449,1,1S12.552,20,12,20z"
			/>
		<g>
			<path d="M11.767,5.462c-0.145,0-0.415,0-0.415,1.29c0,1.291,0.27,1.291,0.415,1.291c0.146,0,0.415,0,0.415-1.291
				C12.182,5.462,11.912,5.462,11.767,5.462z"/>
			<path d="M4.815,5.462c-0.145,0-0.414,0-0.414,1.29c0,1.291,0.269,1.291,0.414,1.291c0.145,0,0.415,0,0.415-1.291
				C5.231,5.462,4.961,5.462,4.815,5.462z"/>
			<path d="M14.716,10.963c-0.146,0-0.415,0-0.415,1.291c0,1.29,0.269,1.29,0.415,1.29c0.145,0,0.414,0,0.414-1.29
				C15.13,10.963,14.86,10.963,14.716,10.963z"/>
			<path d="M7.765,10.963c-0.145,0-0.415,0-0.415,1.291c0,1.29,0.27,1.29,0.415,1.29c0.146,0,0.415,0,0.415-1.29
				C8.18,10.963,7.91,10.963,7.765,10.963z"/>
			<path d="M22,2H2C0.897,2,0,2.937,0,4.089V16h24V4.089C24,2.937,23.103,2,22,2z M14.736,5.036l0.419-0.398
				C15.3,4.5,15.513,4.463,15.697,4.54C15.881,4.619,16,4.8,16,5v3.504c0,0.276-0.224,0.5-0.5,0.5S15,8.78,15,8.504V5.892
				c-0.104-0.017-0.203-0.066-0.281-0.148C14.528,5.543,14.536,5.227,14.736,5.036z M7.736,5.036l0.419-0.398
				C8.3,4.5,8.514,4.463,8.697,4.54C8.881,4.619,9,4.8,9,5v3.504c0,0.276-0.224,0.5-0.5,0.5S8,8.78,8,8.504V5.892
				C7.897,5.875,7.797,5.825,7.719,5.743C7.528,5.543,7.536,5.227,7.736,5.036z M5,14.007c0,0.276-0.224,0.5-0.5,0.5
				S4,14.283,4,14.007v-2.613c-0.103-0.017-0.203-0.067-0.282-0.149c-0.191-0.199-0.183-0.516,0.018-0.707l0.42-0.4
				C4.3,10,4.514,9.964,4.697,10.04C4.881,10.119,5,10.3,5,10.5V14.007z M4.815,9.043c-1.414,0-1.414-1.664-1.414-2.291
				c0-0.626,0-2.29,1.414-2.29c1.415,0,1.415,1.664,1.415,2.29C6.231,7.379,6.231,9.043,4.815,9.043z M7.765,14.544
				c-1.415,0-1.415-1.664-1.415-2.29c0-0.627,0-2.291,1.415-2.291c1.415,0,1.415,1.664,1.415,2.291
				C9.18,12.88,9.18,14.544,7.765,14.544z M12,14.007c0,0.276-0.224,0.5-0.5,0.5s-0.5-0.224-0.5-0.5v-2.613
				c-0.102-0.017-0.201-0.067-0.279-0.148c-0.19-0.199-0.184-0.516,0.016-0.707l0.418-0.4c0.145-0.139,0.358-0.177,0.542-0.099
				C11.881,10.119,12,10.3,12,10.5V14.007z M11.767,9.043c-1.415,0-1.415-1.664-1.415-2.291c0-0.626,0-2.29,1.415-2.29
				s1.415,1.664,1.415,2.29C13.182,7.379,13.182,9.043,11.767,9.043z M14.716,14.544c-1.415,0-1.415-1.664-1.415-2.29
				c0-0.627,0-2.291,1.415-2.291c1.414,0,1.414,1.664,1.414,2.291C16.13,12.88,16.13,14.544,14.716,14.544z M19,14.007
				c0,0.276-0.224,0.5-0.5,0.5s-0.5-0.224-0.5-0.5v-2.613c-0.104-0.017-0.203-0.067-0.282-0.149
				c-0.191-0.199-0.183-0.516,0.018-0.707l0.42-0.4C18.3,10,18.514,9.964,18.697,10.04C18.881,10.119,19,10.3,19,10.5V14.007z
				 M19,8.504c0,0.276-0.224,0.5-0.5,0.5S18,8.78,18,8.504V5.892c-0.104-0.017-0.204-0.066-0.282-0.149
				c-0.191-0.2-0.183-0.517,0.018-0.706l0.42-0.398c0.145-0.138,0.358-0.176,0.541-0.097C18.881,4.619,19,4.8,19,5V8.504z"/>
		</g>
	</g>
</g>
<g id="Invisible_Shape">
	<rect fill="none" width="24" height="24"/>
</g>
</svg>
