<?xml version="1.0" encoding="utf-8"?>
<!-- Generator: Adobe Illustrator 19.2.1, SVG Export Plug-In . SVG Version: 6.00 Build 0)  -->
<svg version="1.1" xmlns="http://www.w3.org/2000/svg" xmlns:xlink="http://www.w3.org/1999/xlink" x="0px" y="0px" width="24px"
	 height="24px" viewBox="0 0 24 24" enable-background="new 0 0 24 24" xml:space="preserve">
<g id="Filled_Icon">
	<g>
		<circle cx="11.5" cy="11.5" r="2"/>
		<path d="M21.63,4.537c-0.073-0.019-7.398-2.015-9.769-4.391c-0.188-0.188-0.535-0.188-0.725,0C8.769,2.52,1.443,4.518,1.37,4.537
			C1.151,4.597,1,4.795,1,5.021c0,8.569,0.761,15.405,10.326,18.948c0.106,0.041,0.234,0.043,0.348,0
			C21.239,20.426,22,13.59,22,5.021C22,4.795,21.849,4.597,21.63,4.537z M15.918,12.318l0.662,0.383
			c0.238,0.139,0.32,0.443,0.183,0.684l-1,1.731c-0.138,0.239-0.444,0.321-0.683,0.183l-0.674-0.389
			c-0.413,0.351-0.885,0.629-1.406,0.814V16.5c0,0.276-0.224,0.5-0.5,0.5h-2c-0.276,0-0.5-0.224-0.5-0.5v-0.775
			c-0.521-0.186-0.993-0.463-1.406-0.814L7.92,15.299c-0.238,0.139-0.545,0.057-0.683-0.183l-1-1.731
			C6.1,13.144,6.182,12.84,6.42,12.701l0.662-0.383c-0.109-0.595-0.109-1.042,0-1.637L6.42,10.299
			c-0.24-0.138-0.322-0.443-0.184-0.683l1-1.731C7.375,7.644,7.68,7.562,7.92,7.701L8.594,8.09C9.007,7.738,9.479,7.461,10,7.275
			V6.5C10,6.224,10.224,6,10.5,6h2C12.776,6,13,6.224,13,6.5v0.775c0.521,0.185,0.993,0.463,1.406,0.814l0.674-0.389
			c0.24-0.139,0.545-0.057,0.684,0.184l1,1.731c0.139,0.239,0.057,0.545-0.184,0.683l-0.662,0.383
			C16.027,11.276,16.027,11.724,15.918,12.318z"/>
	</g>
</g>
<g id="Invisible_Shape">
	<rect fill="none" width="24" height="24"/>
</g>
</svg>
