<?xml version="1.0" encoding="utf-8"?>
<!-- Generator: Adobe Illustrator 19.2.1, SVG Export Plug-In . SVG Version: 6.00 Build 0)  -->
<svg version="1.1" xmlns="http://www.w3.org/2000/svg" xmlns:xlink="http://www.w3.org/1999/xlink" x="0px" y="0px" width="24px"
	 height="24px" viewBox="0 0 24 24" enable-background="new 0 0 24 24" xml:space="preserve">
<g id="Filled_Icon">
	<g>
		<path d="M21.214,0.591c-4.058,2.835-7.427,1.936-9.316-0.414c-0.189-0.236-0.606-0.235-0.796,0
			C9.225,2.512,5.878,3.45,1.786,0.591C1.466,0.361,1,0.589,1,1v14.811c0,1,2.504,5.945,10.365,8.149
			c0.084,0.024,0.183,0.025,0.27,0C19.495,21.757,22,16.812,22,15.811V1C22,0.592,21.538,0.36,21.214,0.591z M18.313,14.2
			l-1.501,2.599c-0.138,0.238-0.444,0.32-0.683,0.184l-1.195-0.691c-0.43,0.345-0.913,0.624-1.435,0.828V18.5
			c0,0.276-0.224,0.5-0.5,0.5h-3c-0.276,0-0.5-0.224-0.5-0.5v-1.381c-0.521-0.204-1.005-0.483-1.435-0.828L6.87,16.982
			c-0.238,0.137-0.545,0.055-0.683-0.184L4.687,14.2c-0.139-0.239-0.056-0.546,0.184-0.683l1.198-0.691
			c-0.09-0.609-0.092-1.034,0-1.653L4.87,10.481c-0.238-0.138-0.32-0.444-0.183-0.683l1.5-2.599C6.325,6.961,6.632,6.879,6.87,7.018
			l1.196,0.69C8.496,7.363,8.979,7.085,9.5,6.881V5.5C9.5,5.224,9.724,5,10,5h3c0.276,0,0.5,0.224,0.5,0.5v1.381
			c0.521,0.204,1.004,0.482,1.434,0.827l1.196-0.69c0.238-0.139,0.545-0.057,0.683,0.183l1.5,2.599
			c0.138,0.238,0.056,0.545-0.183,0.683l-1.198,0.692c0.092,0.619,0.09,1.044,0,1.653l1.198,0.691
			C18.369,13.654,18.452,13.961,18.313,14.2z"/>
		<circle cx="11.5" cy="12" r="2"/>
	</g>
</g>
<g id="Invisible_Shape">
	<rect fill="none" width="24" height="24"/>
</g>
</svg>
