<?xml version="1.0" encoding="utf-8"?>
<!-- Generator: Adobe Illustrator 19.2.1, SVG Export Plug-In . SVG Version: 6.00 Build 0)  -->
<svg version="1.1" xmlns="http://www.w3.org/2000/svg" xmlns:xlink="http://www.w3.org/1999/xlink" x="0px" y="0px" width="24px"
	 height="24px" viewBox="0 0 24 24" enable-background="new 0 0 24 24" xml:space="preserve">
<g id="Filled_Icon">
	<g>
		<path d="M11,20.5c0-1.521,0.78-2.723,1.795-3.5C5.523,17,7.64,17,3.5,17C1.57,17,0,18.57,0,20.5S1.57,24,3.5,24h9.301
			C11.784,23.223,11,22.023,11,20.5z"/>
		<path d="M21,0H8.5C6.57,0,5,1.57,5,3.5V16h10.5c0.276,0,0.5,0.224,0.5,0.5S15.776,17,15.5,17c-1.462,0-3.5,1.332-3.5,3.5
			s2.038,3.5,3.5,3.5c1.93,0,3.5-1.57,3.5-3.5V4h4.5C23.776,4,24,3.776,24,3.5C24,1.439,22.766,0,21,0z M14.5,14H9
			c-0.276,0-0.5-0.224-0.5-0.5S8.724,13,9,13h5.5c0.276,0,0.5,0.224,0.5,0.5S14.776,14,14.5,14z M14.5,11H9
			c-0.276,0-0.5-0.224-0.5-0.5S8.724,10,9,10h5.5c0.276,0,0.5,0.224,0.5,0.5S14.776,11,14.5,11z M14.5,8H9
			C8.724,8,8.5,7.776,8.5,7.5S8.724,7,9,7h5.5C14.776,7,15,7.224,15,7.5S14.776,8,14.5,8z M14.5,5H9C8.724,5,8.5,4.776,8.5,4.5
			S8.724,4,9,4h5.5C14.776,4,15,4.224,15,4.5S14.776,5,14.5,5z M19.088,3C19.345,1.641,20.217,1,21,1c1.058,0,1.808,0.785,1.968,2
			H19.088z"/>
	</g>
</g>
<g id="Invisible_Shape">
	<rect fill="none" width="24" height="24"/>
</g>
</svg>
