<?xml version="1.0" encoding="utf-8"?>
<!-- Generator: Adobe Illustrator 19.2.1, SVG Export Plug-In . SVG Version: 6.00 Build 0)  -->
<svg version="1.1" xmlns="http://www.w3.org/2000/svg" xmlns:xlink="http://www.w3.org/1999/xlink" x="0px" y="0px" width="24px"
	 height="24px" viewBox="0 0 24 24" enable-background="new 0 0 24 24" xml:space="preserve">
<g id="Filled_Icon">
	<g>
		<path d="M0,17v1.911C0,20.062,0.897,21,2,21h9v1H5c-0.276,0-0.5,0.224-0.5,0.5S4.724,23,5,23h14c0.276,0,0.5-0.224,0.5-0.5
			S19.276,22,19,22h-7v-1h10c1.103,0,2-0.938,2-2.089V17H0z M12,20c-0.552,0-1-0.449-1-1s0.448-1,1-1s1,0.449,1,1S12.552,20,12,20z"
			/>
		<g>
			<rect x="9" y="8" width="6" height="3"/>
			<path d="M22,2H2C0.897,2,0,2.937,0,4.089V16h24V4.089C24,2.937,23.103,2,22,2z M4,14c0,0.276-0.224,0.5-0.5,0.5S3,14.276,3,14V5
				c0-0.276,0.224-0.5,0.5-0.5S4,4.724,4,5V14z M7,13H5v-2h2V13z M7,10H5V8h2V10z M7,7H5V5h2V7z M16,14c0,0.276-0.224,0.5-0.5,0.5
				S15,14.276,15,14v-2H9v2c0,0.276-0.224,0.5-0.5,0.5S8,14.276,8,14v-2.016H7.984v-1H8V8H7.984V7H8V5c0-0.276,0.224-0.5,0.5-0.5
				S9,4.724,9,5v2h6V5c0-0.276,0.224-0.5,0.5-0.5S16,4.724,16,5V14z M19,13h-2v-2h2V13z M19,10h-2V8h2V10z M19,7h-2V5h2V7z M21,14
				c0,0.276-0.224,0.5-0.5,0.5S20,14.276,20,14V5c0-0.276,0.224-0.5,0.5-0.5S21,4.724,21,5V14z"/>
		</g>
	</g>
</g>
<g id="Invisible_Shape">
	<rect fill="none" width="24" height="24"/>
</g>
</svg>
