<?xml version="1.0" encoding="utf-8"?>
<!-- Generator: Adobe Illustrator 19.2.1, SVG Export Plug-In . SVG Version: 6.00 Build 0)  -->
<svg version="1.1" xmlns="http://www.w3.org/2000/svg" xmlns:xlink="http://www.w3.org/1999/xlink" x="0px" y="0px" width="24px"
	 height="24px" viewBox="0 0 24 24" enable-background="new 0 0 24 24" xml:space="preserve">
<g id="Filled_Icon">
	<g>
		<g>
			<path d="M14,16v-0.5c0-1.379-1.122-2.5-2.5-2.5h-9C1.122,13,0,14.121,0,15.5V16H14z"/>
			<path d="M0,17v4.5C0,22.879,1.122,24,2.5,24h9c1.378,0,2.5-1.121,2.5-2.5V17H0z"/>
		</g>
		<g>
			<path d="M24,4V2.5C24,1.121,22.878,0,21.5,0h-15C5.122,0,4,1.121,4,2.5V4H24z M11.5,2C11.776,2,12,2.224,12,2.5S11.776,3,11.5,3
				S11,2.776,11,2.5S11.224,2,11.5,2z M9.5,2C9.776,2,10,2.224,10,2.5S9.776,3,9.5,3S9,2.776,9,2.5S9.224,2,9.5,2z M7.5,2
				C7.776,2,8,2.224,8,2.5S7.776,3,7.5,3S7,2.776,7,2.5S7.224,2,7.5,2z"/>
			<path d="M4,5v7h7.5c1.759,0,3.204,1.309,3.449,3H21.5c1.378,0,2.5-1.121,2.5-2.5V5H4z M12.854,10.854
				c-0.195,0.195-0.512,0.195-0.707,0L9,7.707V9.5C9,9.776,8.776,10,8.5,10S8,9.776,8,9.5v-3C8,6.228,8.221,6,8.5,6h3
				C11.776,6,12,6.224,12,6.5S11.776,7,11.5,7H9.707l3.147,3.146C13.049,10.342,13.049,10.658,12.854,10.854z M19,9.5
				c0,0.276-0.224,0.5-0.5,0.5S18,9.776,18,9.5V7.707l-3.146,3.147c-0.195,0.195-0.512,0.195-0.707,0s-0.195-0.512,0-0.707L17.293,7
				H15.5C15.224,7,15,6.776,15,6.5S15.224,6,15.5,6h3C18.779,6,19,6.228,19,6.5V9.5z"/>
		</g>
	</g>
</g>
<g id="Invisible_Shape">
	<rect fill="none" width="24" height="24"/>
</g>
</svg>
