<?xml version="1.0" encoding="utf-8"?>
<!-- Generator: Adobe Illustrator 16.0.3, SVG Export Plug-In . SVG Version: 6.00 Build 0)  -->
<!DOCTYPE svg PUBLIC "-//W3C//DTD SVG 1.1//EN" "http://www.w3.org/Graphics/SVG/1.1/DTD/svg11.dtd">
<svg version="1.1" xmlns="http://www.w3.org/2000/svg" xmlns:xlink="http://www.w3.org/1999/xlink" x="0px" y="0px" width="24px"
	 height="24px" viewBox="0 0 24 24" enable-background="new 0 0 24 24" xml:space="preserve">
<g id="Outline_Icons">
	<g>
		<path fill="none" stroke="#000000" stroke-linejoin="round" stroke-miterlimit="10" d="M15,0.896
			c-1.833-0.584-3.022,2.133-0.583,2.688C18.873,4.6,18.646,11,12,11S5.127,4.6,9.583,3.584C12.022,3.029,10.833,0.312,9,0.896
			C4.104,2.215,0.5,6.688,0.5,12c0,6.352,5.148,11.5,11.5,11.5S23.5,18.352,23.5,12C23.5,6.688,19.896,2.215,15,0.896z"/>
		<g>
			<path d="M10.5,17c-0.276,0-0.5,0.225-0.5,0.5c0,0.277,0.224,0.5,0.5,0.5s0.5-0.223,0.5-0.5C11,17.225,10.776,17,10.5,17L10.5,17z
				"/>
		</g>
		<g>
			<path d="M13.5,17c-0.276,0-0.5,0.225-0.5,0.5c0,0.277,0.224,0.5,0.5,0.5s0.5-0.223,0.5-0.5C14,17.225,13.776,17,13.5,17L13.5,17z
				"/>
		</g>
		<g>
			<path fill="none" stroke="#000000" stroke-linejoin="round" stroke-miterlimit="10" d="M12,15c-0.54,0-1.053,0.084-1.523,0.229
				C10.488,15.154,10.5,15.078,10.5,15c0-0.828-0.672-1.5-1.5-1.5S7.5,14.172,7.5,15c0,0.689,0.467,1.264,1.099,1.439
				C8.227,16.895,8,17.426,8,18c0,1.658,1.791,3,4,3"/>
		</g>
		<g>
			<path fill="none" stroke="#000000" stroke-linejoin="round" stroke-miterlimit="10" d="M12,15c0.54,0,1.053,0.084,1.523,0.229
				C13.512,15.154,13.5,15.078,13.5,15c0-0.828,0.672-1.5,1.5-1.5s1.5,0.672,1.5,1.5c0,0.689-0.467,1.264-1.099,1.439
				C15.773,16.895,16,17.426,16,18c0,1.658-1.791,3-4,3"/>
		</g>
	</g>
</g>
<g id="invisible_shape">
	<rect fill="none" width="24" height="24"/>
</g>
</svg>
