<?xml version="1.0" encoding="utf-8"?>
<!-- Generator: Adobe Illustrator 16.0.3, SVG Export Plug-In . SVG Version: 6.00 Build 0)  -->
<!DOCTYPE svg PUBLIC "-//W3C//DTD SVG 1.1//EN" "http://www.w3.org/Graphics/SVG/1.1/DTD/svg11.dtd">
<svg version="1.1" xmlns="http://www.w3.org/2000/svg" xmlns:xlink="http://www.w3.org/1999/xlink" x="0px" y="0px" width="24px"
	 height="24px" viewBox="0 0 24 24" enable-background="new 0 0 24 24" xml:space="preserve">
<g id="Outline_Icons">
	<g>
		<path fill="none" stroke="#000000" stroke-linejoin="round" stroke-miterlimit="10" d="M5.149,7.972
			c-0.166-1.92,0.479-3.822,1.782-5.242C8.234,1.309,10.073,0.5,12,0.5c1.928,0,3.767,0.809,5.068,2.229
			c1.303,1.42,1.949,3.322,1.782,5.242l-0.874,10.049C17.707,21.12,15.112,23.5,12,23.5c-3.111,0-5.707-2.38-5.977-5.479
			L5.149,7.972z"/>
		<path fill="none" stroke="#000000" stroke-linejoin="round" stroke-miterlimit="10" d="M17.042,7.627c0,2.831-2.238,4.873-5,4.873
			s-5-2.042-5-4.873s2.238-5.127,5-5.127S17.042,4.796,17.042,7.627z"/>
		<path fill="none" stroke="#000000" stroke-linejoin="round" stroke-miterlimit="10" d="M12.505,9.513
			C12.505,9.796,12.279,10,12,10c-0.278,0-0.505-0.204-0.505-0.487S11.722,9,12,9C12.279,9,12.505,9.229,12.505,9.513z"/>
		<path fill="none" stroke="#000000" stroke-linecap="round" stroke-linejoin="round" stroke-miterlimit="10" d="M9,6.525
			C9,5.959,9.448,5.5,10,5.5c0.553,0,1,0.459,1,1.025"/>
		<path fill="none" stroke="#000000" stroke-linecap="round" stroke-linejoin="round" stroke-miterlimit="10" d="M13,6.525
			C13,5.959,13.448,5.5,14,5.5c0.553,0,1,0.459,1,1.025"/>
		
			<line fill="none" stroke="#000000" stroke-linecap="round" stroke-linejoin="round" stroke-miterlimit="10" x1="5.758" y1="14.961" x2="17.79" y2="19.072"/>
		
			<line fill="none" stroke="#000000" stroke-linecap="round" stroke-linejoin="round" stroke-miterlimit="10" x1="9.179" y1="16.134" x2="18.5" y2="12.125"/>
	</g>
</g>
<g id="invisible_shape">
	<rect fill="none" width="24" height="24"/>
</g>
</svg>
