<?xml version="1.0" encoding="utf-8"?>
<!-- Generator: Adobe Illustrator 16.0.3, SVG Export Plug-In . SVG Version: 6.00 Build 0)  -->
<!DOCTYPE svg PUBLIC "-//W3C//DTD SVG 1.1//EN" "http://www.w3.org/Graphics/SVG/1.1/DTD/svg11.dtd">
<svg version="1.1" xmlns="http://www.w3.org/2000/svg" xmlns:xlink="http://www.w3.org/1999/xlink" x="0px" y="0px" width="24px"
	 height="24px" viewBox="0 0 24 24" enable-background="new 0 0 24 24" xml:space="preserve">
<g id="Outline_Icons">
	<g>
		<path fill="none" stroke="#000000" stroke-linejoin="round" stroke-miterlimit="10" d="M22.5,21.5c0,1.104-0.896,2-2,2h-17
			c-1.104,0-2-0.896-2-2s0.896-2,2-2h17C21.604,19.5,22.5,20.396,22.5,21.5z"/>
		<path fill="none" stroke="#000000" stroke-linejoin="round" stroke-miterlimit="10" d="M21.5,17.5c0,1.104-0.896,2-2,2h-15
			c-1.104,0-2-0.896-2-2s0.896-2,2-2h15C20.604,15.5,21.5,16.396,21.5,17.5z"/>
		<path fill="none" stroke="#000000" stroke-linejoin="round" stroke-miterlimit="10" d="M20.5,13.5c0,1.104-0.896,2-2,2h-13
			c-1.104,0-2-0.896-2-2s0.896-2,2-2h13C19.604,11.5,20.5,12.396,20.5,13.5z"/>
		<path fill="none" stroke="#000000" stroke-linejoin="round" stroke-miterlimit="10" d="M19.5,9.5c0,1.104-0.896,2-2,2h-11
			c-1.104,0-2-0.896-2-2s0.896-2,2-2h11C18.604,7.5,19.5,8.396,19.5,9.5z"/>
		<rect x="10.5" y="1.5" fill="none" stroke="#000000" stroke-linejoin="round" stroke-miterlimit="10" width="3" height="6"/>
	</g>
</g>
<g id="invisible_shape">
	<rect fill="none" width="24" height="24"/>
</g>
</svg>
