<?xml version="1.0" encoding="utf-8"?>
<!-- Generator: Adobe Illustrator 16.0.3, SVG Export Plug-In . SVG Version: 6.00 Build 0)  -->
<!DOCTYPE svg PUBLIC "-//W3C//DTD SVG 1.1//EN" "http://www.w3.org/Graphics/SVG/1.1/DTD/svg11.dtd">
<svg version="1.1" xmlns="http://www.w3.org/2000/svg" xmlns:xlink="http://www.w3.org/1999/xlink" x="0px" y="0px" width="24px"
	 height="24px" viewBox="0 0 24 24" enable-background="new 0 0 24 24" xml:space="preserve">
<g id="Outline_Icons">
	<g>
		
			<circle fill="none" stroke="#000000" stroke-linecap="round" stroke-linejoin="round" stroke-miterlimit="10" cx="4.062" cy="20.5" r="3"/>
		
			<circle fill="none" stroke="#000000" stroke-linecap="round" stroke-linejoin="round" stroke-miterlimit="10" cx="4.062" cy="20.5" r="1"/>
		
			<circle fill="none" stroke="#000000" stroke-linecap="round" stroke-linejoin="round" stroke-miterlimit="10" cx="17.062" cy="20.5" r="3"/>
		
			<circle fill="none" stroke="#000000" stroke-linecap="round" stroke-linejoin="round" stroke-miterlimit="10" cx="17.062" cy="20.5" r="1"/>
		<path fill="none" stroke="#000000" stroke-linecap="round" stroke-linejoin="round" stroke-miterlimit="10" d="M2.5,16.5
			c0-1.104,0.896-2,2-2s2,0.896,2,2h8c0-1.104,0.896-2,2-2s2,0.896,2,2h4v-5h-9v-4H8l-2,4H2c-0.828,0-1.5,0.671-1.5,1.5v3.5H2.5"/>
		<polyline fill="none" stroke="#000000" stroke-linecap="round" stroke-linejoin="round" stroke-miterlimit="10" points="8.5,11.5 
			9.5,9.5 10.5,9.5 		"/>
		
			<line fill="none" stroke="#000000" stroke-linecap="round" stroke-linejoin="round" stroke-miterlimit="10" x1="7.062" y1="20.5" x2="14" y2="20.5"/>
		<path fill="none" stroke="#000000" stroke-linecap="round" stroke-linejoin="round" stroke-miterlimit="10" d="M16.583,11.5
			c0,0-1.037-4.385,2.505-7.593"/>
		
			<circle fill="none" stroke="#000000" stroke-linecap="round" stroke-linejoin="round" stroke-miterlimit="10" cx="20" cy="3.5" r="1"/>
		
			<line fill="none" stroke="#000000" stroke-linejoin="round" stroke-miterlimit="10" x1="4.173" y1="17.503" x2="5.174" y2="14.618"/>
		
			<line fill="none" stroke="#000000" stroke-linejoin="round" stroke-miterlimit="10" x1="16.4" y1="17.574" x2="15.721" y2="14.659"/>
	</g>
</g>
<g id="invisible_shape">
	<rect fill="none" width="24" height="24"/>
</g>
</svg>
