<?xml version="1.0" encoding="utf-8"?>
<!-- Generator: Adobe Illustrator 16.0.3, SVG Export Plug-In . SVG Version: 6.00 Build 0)  -->
<!DOCTYPE svg PUBLIC "-//W3C//DTD SVG 1.1//EN" "http://www.w3.org/Graphics/SVG/1.1/DTD/svg11.dtd">
<svg version="1.1" xmlns="http://www.w3.org/2000/svg" xmlns:xlink="http://www.w3.org/1999/xlink" x="0px" y="0px" width="24px"
	 height="24px" viewBox="0 0 24 24" enable-background="new 0 0 24 24" xml:space="preserve">
<g id="Outline_Icons">
	<g>
		<g>
			<g>
				<path d="M4.499,4.5c-0.276,0-0.5,0.224-0.5,0.5s0.224,0.5,0.5,0.5s0.5-0.224,0.5-0.5S4.775,4.5,4.499,4.5L4.499,4.5z"/>
			</g>
		</g>
		<path fill="none" stroke="#000000" stroke-linejoin="round" stroke-miterlimit="10" d="M5.617,18.64
			C6.437,16.206,9.254,14,11.999,14c2.741,0,5.482,2.128,6.291,4.665"/>
		<path fill="none" stroke="#000000" stroke-linejoin="round" stroke-miterlimit="10" d="M2.874,17.716
			c1.089-3,3.542-4.966,3.542-4.966L4.999,7.5L3.203,8.102c-1.134,0.227-2.255-0.438-2.6-1.542c-0.36-1.152,0.249-2.385,1.384-2.797
			l3.193-1.441c1.005-0.454,2.188-0.009,2.644,0.995L9.499,7h5c2.209,0,4,1.791,4,4v2.625c0.643,0.267,1.953,2.248,2.625,4.091"/>
		
			<line fill="none" stroke="#000000" stroke-linecap="round" stroke-linejoin="round" stroke-miterlimit="10" x1="17.481" y1="8.335" x2="22.916" y2="11.417"/>
		<polygon fill="none" stroke="#000000" stroke-linejoin="round" stroke-miterlimit="10" points="14.999,7 9.499,7 10.499,11 
			13.999,11 		"/>
		<g>
			<path fill="none" stroke="#000000" stroke-linejoin="round" stroke-miterlimit="10" d="M11.999,23.5
				c-3.523,0-6.959-0.646-10.211-1.921c-1.028-0.403-1.536-1.563-1.133-2.592s1.564-1.535,2.592-1.133
				c5.568,2.182,11.924,2.185,17.492,0.005c1.029-0.404,2.188,0.104,2.591,1.134c0.402,1.028-0.104,2.188-1.134,2.591
				C18.948,22.855,15.518,23.5,11.999,23.5z"/>
		</g>
		<path fill="none" stroke="#000000" stroke-linejoin="round" stroke-miterlimit="10" d="M5.53,2.188l1.619-0.646
			c1.271-0.508,2.714,0.101,3.237,1.364L12.083,7"/>
	</g>
</g>
<g id="invisible_shape">
	<rect fill="none" width="24" height="24"/>
</g>
</svg>
