<?xml version="1.0" encoding="utf-8"?>
<!-- Generator: Adobe Illustrator 16.0.3, SVG Export Plug-In . SVG Version: 6.00 Build 0)  -->
<!DOCTYPE svg PUBLIC "-//W3C//DTD SVG 1.1//EN" "http://www.w3.org/Graphics/SVG/1.1/DTD/svg11.dtd">
<svg version="1.1" xmlns="http://www.w3.org/2000/svg" xmlns:xlink="http://www.w3.org/1999/xlink" x="0px" y="0px" width="24px"
	 height="24px" viewBox="0 0 24 24" enable-background="new 0 0 24 24" xml:space="preserve">
<g id="Outline_Icons">
	<g>
		
			<circle fill="none" stroke="#000000" stroke-linecap="round" stroke-linejoin="round" stroke-miterlimit="10" cx="18" cy="20.5" r="3"/>
		
			<circle fill="none" stroke="#000000" stroke-linecap="round" stroke-linejoin="round" stroke-miterlimit="10" cx="6" cy="20.5" r="3"/>
		
			<circle fill="none" stroke="#000000" stroke-linecap="round" stroke-linejoin="round" stroke-miterlimit="10" cx="12" cy="6" r="5.5"/>
		
			<circle fill="none" stroke="#000000" stroke-linecap="round" stroke-linejoin="round" stroke-miterlimit="10" cx="12" cy="8.25" r="3.25"/>
		<path fill="none" stroke="#000000" stroke-linecap="round" stroke-linejoin="round" stroke-miterlimit="10" d="M16.132,2.284
			C16.42,1.533,17.148,1,18,1c1.104,0,2,0.896,2,2s-0.896,2-2,2c-0.188,0-0.369-0.026-0.541-0.074"/>
		<path fill="none" stroke="#000000" stroke-linecap="round" stroke-linejoin="round" stroke-miterlimit="10" d="M6.526,4.93
			C6.359,4.976,6.183,5,6,5C4.896,5,4,4.104,4,3s0.896-2,2-2c0.88,0,1.628,0.568,1.896,1.358"/>
		
			<circle fill="none" stroke="#000000" stroke-linecap="round" stroke-linejoin="round" stroke-miterlimit="10" cx="12" cy="7" r="0.5"/>
		<path fill="none" stroke="#000000" stroke-linecap="round" stroke-linejoin="round" stroke-miterlimit="10" d="M8.922,16
			c0.582-1.102,1.53-2,3.078-2c1.551,0,2.5,0.901,3.082,2.005"/>
		<path fill="none" stroke="#000000" stroke-linecap="round" stroke-linejoin="round" stroke-miterlimit="10" d="M15.136,21.431
			C14.246,22.104,13.165,22.5,12,22.5c-1.136,0-2.191-0.376-3.068-1.02"/>
		<g>
			<path d="M9.5,3C9.224,3,9,3.224,9,3.5S9.224,4,9.5,4S10,3.776,10,3.5S9.776,3,9.5,3L9.5,3z"/>
		</g>
		<g>
			<path d="M14.5,3C14.224,3,14,3.224,14,3.5S14.224,4,14.5,4S15,3.776,15,3.5S14.776,3,14.5,3L14.5,3z"/>
		</g>
		<g>
			<path fill="none" stroke="#000000" stroke-linecap="round" stroke-linejoin="round" stroke-miterlimit="10" d="M9.753,11.021
				C9.312,11.252,8.866,11.655,8.5,12L4.054,9.6C3.115,9.018,1.882,9.308,1.3,10.247C0.719,11.186,1.008,12.418,1.947,13
				l4.604,2.733c-0.068,0.586-0.075,1.104,0.024,1.762"/>
		</g>
		<g>
			<path fill="none" stroke="#000000" stroke-linecap="round" stroke-linejoin="round" stroke-miterlimit="10" d="M14.238,11.025
				c0.44,0.23,0.896,0.63,1.262,0.975l4.446-2.4c0.939-0.582,2.172-0.292,2.754,0.647c0.582,0.938,0.292,2.171-0.647,2.753
				l-4.604,2.733c0.068,0.586,0.076,1.104-0.024,1.762"/>
		</g>
	</g>
</g>
<g id="invisible_shape">
	<rect fill="none" width="24" height="24"/>
</g>
</svg>
