<?xml version="1.0" encoding="utf-8"?>
<!-- Generator: Adobe Illustrator 19.2.1, SVG Export Plug-In . SVG Version: 6.00 Build 0)  -->
<svg version="1.1" xmlns="http://www.w3.org/2000/svg" xmlns:xlink="http://www.w3.org/1999/xlink" x="0px" y="0px" width="24px"
	 height="24px" viewBox="0 0 24 24" enable-background="new 0 0 24 24" xml:space="preserve">
<g id="Filled_Icons_1_">
	<g id="Filled_Icons">
		<g>
			<g>
				<path d="M23.748,17.095l-6.425-5.436c-0.187-0.156-0.459-0.159-0.646-0.001l-6.5,5.478c-0.356,0.302-0.141,0.883,0.322,0.883H13
					v5.5c0,0.277,0.224,0.5,0.5,0.5H16v-3.5c0-0.276,0.224-0.5,0.5-0.5h1c0.276,0,0.5,0.224,0.5,0.5v3.5h2.5
					c0.276,0,0.5-0.223,0.5-0.5v-5.5c0,0,2.515,0.001,2.52,0C24.071,18.018,24.194,17.324,23.748,17.095z"/>
				<path d="M15,6.477c0-1.888-1.484-3.434-3.348-3.534C10.817,1.449,9.221,0.5,7.5,0.5c-2.338,0-4.305,1.699-4.688,3.955
					C1.277,4.451,0,5.693,0,7.239c0,2.201,1.915,2.778,2.928,2.778h8.898C12.923,9.875,15,8.951,15,6.477z"/>
				<path d="M22.178,14.4C22.505,14.672,23,14.441,23,14.018v-1.479c0-0.275-0.224-0.5-0.5-0.521h-2
					c-0.487,0.05-0.668,0.613-0.322,0.904L22.178,14.4z"/>
			</g>
			<path d="M11.5,21.518c0-0.276-0.224-0.5-0.5-0.5H7v-8.293l1.146,1.147c0.195,0.195,0.512,0.195,0.707,0
				c0.195-0.195,0.195-0.512,0-0.707l-2-2c-0.195-0.195-0.512-0.195-0.707,0l-2,2c-0.195,0.195-0.195,0.512,0,0.707
				c0.195,0.195,0.512,0.195,0.707,0L6,12.725v8.793c0,0.276,0.224,0.5,0.5,0.5H11C11.276,22.018,11.5,21.794,11.5,21.518z"/>
		</g>
	</g>
	<g id="New_icons">
	</g>
</g>
<g id="Invisible_Shape">
	<rect fill="none" width="24" height="24"/>
</g>
</svg>
