<?xml version="1.0" encoding="utf-8"?>
<!-- Generator: Adobe Illustrator 19.2.1, SVG Export Plug-In . SVG Version: 6.00 Build 0)  -->
<svg version="1.1" xmlns="http://www.w3.org/2000/svg" xmlns:xlink="http://www.w3.org/1999/xlink" x="0px" y="0px" width="24px"
	 height="24px" viewBox="0 0 24 24" enable-background="new 0 0 24 24" xml:space="preserve">
<g id="Filled_Icons_1_">
	<g id="Filled_Icons">
		<g>
			<path d="M18.852,6.332C17.611,3.994,15.152,2.5,12.5,2.5c-3.618,0-6.648,2.693-7.123,6.227C3.012,8.547,0.999,10.451,1,12.803
				C1,15.189,2.523,17,6.025,17c-0.294-3.848,2.76-7,6.475-7c3.717,0,6.769,3.154,6.475,7C20.151,17,24,15.695,24,11.607
				C24,8.74,21.702,6.399,18.852,6.332z"/>
			<path d="M12.5,11C9.467,11,7,13.469,7,16.5c0,3.033,2.467,5.5,5.5,5.5s5.5-2.467,5.5-5.5C18,13.469,15.533,11,12.5,11z M14.5,18
				h-2c-0.276,0-0.5-0.224-0.5-0.5V14c0-0.276,0.224-0.5,0.5-0.5S13,13.724,13,14v3h1.5c0.276,0,0.5,0.224,0.5,0.5
				S14.776,18,14.5,18z"/>
		</g>
	</g>
	<g id="New_icons">
	</g>
</g>
<g id="Invisible_Shape">
	<rect fill="none" width="24" height="24"/>
</g>
</svg>
