<?xml version="1.0" encoding="utf-8"?>
<!-- Generator: Adobe Illustrator 19.2.1, SVG Export Plug-In . SVG Version: 6.00 Build 0)  -->
<svg version="1.1" xmlns="http://www.w3.org/2000/svg" xmlns:xlink="http://www.w3.org/1999/xlink" x="0px" y="0px" width="24px"
	 height="24px" viewBox="0 0 24 24" enable-background="new 0 0 24 24" xml:space="preserve">
<g id="Filled_Icons_1_">
	<g id="Filled_Icons">
		<g>
			<g>
				<path d="M18.852,6.332C17.611,3.994,15.152,2.5,12.5,2.5c-3.618,0-6.648,2.693-7.123,6.227C3.012,8.547,0.999,10.451,1,12.803
					C1,16.076,3.825,16.979,5.326,17H8v-3.717c0-0.581,0.341-1.115,0.869-1.36l6.001-2.779C15.845,8.675,17,9.406,17,10.504V17
					h2.271C19.319,16.992,24,16.205,24,11.607C24,8.74,21.702,6.399,18.852,6.332z"/>
			</g>
			<g>
				<path d="M15.29,10.051l-6,2.779C9.113,12.912,9,13.088,9,13.283V19H8c-1.102,0-2,0.896-2,2c0,1.103,0.898,2,2,2
					c1.065,0,2-0.935,2-2v-7.398l5-2.315v4.693h-1c-1.102,0-2,0.897-2,2c0,1.104,0.898,2,2,2c1.065,0,2-0.935,2-2v-7.477
					C16,10.133,15.611,9.898,15.29,10.051z"/>
			</g>
		</g>
	</g>
	<g id="New_icons">
	</g>
</g>
<g id="Invisible_Shape">
	<rect fill="none" width="24" height="24"/>
</g>
</svg>
