<?xml version="1.0" encoding="utf-8"?>
<!-- Generator: Adobe Illustrator 19.2.1, SVG Export Plug-In . SVG Version: 6.00 Build 0)  -->
<svg version="1.1" xmlns="http://www.w3.org/2000/svg" xmlns:xlink="http://www.w3.org/1999/xlink" x="0px" y="0px" width="24px"
	 height="24px" viewBox="0 0 24 24" enable-background="new 0 0 24 24" xml:space="preserve">
<g id="Filled_Icons_1_">
	<g id="Filled_Icons">
		<circle cx="4" cy="16" r="0.5"/>
		<circle cx="4" cy="21" r="0.5"/>
		<g>
			<path d="M13.974,2.863C12.983,1.114,11.065,0,9,0C6.188,0,3.826,2.001,3.4,4.644C1.553,4.547,0,6.025,0,7.82
				C0,10.33,2.168,11,3.448,11l10.788-0.004C15.538,10.832,18,9.769,18,6.928C18,4.737,16.208,2.946,13.974,2.863z"/>
			<g>
				<circle cx="4" cy="16" r="0.5"/>
				<path d="M18,18v-4.5c0-0.276-0.224-0.5-0.5-0.5h-17C0.224,13,0,13.224,0,13.5V18H18z M14,15c0.552,0,1,0.449,1,1s-0.448,1-1,1
					s-1-0.449-1-1S13.448,15,14,15z M11,15c0.552,0,1,0.449,1,1s-0.448,1-1,1s-1-0.449-1-1S10.448,15,11,15z M4,14.5
					c0.827,0,1.5,0.673,1.5,1.5c0,0.827-0.673,1.5-1.5,1.5S2.5,16.827,2.5,16C2.5,15.173,3.173,14.5,4,14.5z"/>
				<circle cx="4" cy="21" r="0.5"/>
				<path d="M0,19v4.5C0,23.776,0.224,24,0.5,24h17c0.276,0,0.5-0.224,0.5-0.5V19H0z M4,22.5c-0.827,0-1.5-0.673-1.5-1.5
					s0.673-1.5,1.5-1.5s1.5,0.673,1.5,1.5S4.827,22.5,4,22.5z M11,22c-0.552,0-1-0.449-1-1s0.448-1,1-1s1,0.449,1,1S11.552,22,11,22
					z M14,22c-0.552,0-1-0.449-1-1s0.448-1,1-1s1,0.449,1,1S14.552,22,14,22z"/>
			</g>
		</g>
	</g>
	<g id="New_icons">
	</g>
</g>
<g id="Invisible_Shape">
	<rect fill="none" width="24" height="24"/>
</g>
</svg>
