<?xml version="1.0" encoding="utf-8"?>
<!-- Generator: Adobe Illustrator 19.2.1, SVG Export Plug-In . SVG Version: 6.00 Build 0)  -->
<svg version="1.1" xmlns="http://www.w3.org/2000/svg" xmlns:xlink="http://www.w3.org/1999/xlink" x="0px" y="0px" width="24px"
	 height="24px" viewBox="0 0 24 24" enable-background="new 0 0 24 24" xml:space="preserve">
<g id="Filled_Icons_1_">
	<g id="Filled_Icons">
		<g>
			<g>
				<path d="M18.852,6.332C17.611,3.994,15.152,2.5,12.5,2.5c-3.618,0-6.648,2.693-7.123,6.227C3.012,8.547,0.999,10.451,1,12.803
					c0,3.05,2.451,4.04,4,4.179V12.5C5,11.673,5.673,11,6.5,11h11c0.827,0,1.5,0.673,1.5,1.5V17c1.12,0,5-1.287,5-5.393
					C24,8.74,21.702,6.399,18.852,6.332z"/>
			</g>
			<path d="M17.5,12h-11C6.224,12,6,12.224,6,12.5v11C6,23.776,6.224,24,6.5,24h11c0.276,0,0.5-0.224,0.5-0.5v-11
				C18,12.224,17.776,12,17.5,12z M10,14c0.552,0,1,0.449,1,1s-0.448,1-1,1s-1-0.449-1-1S9.448,14,10,14z M17,23H7v-1.655
				l1.626-3.315c0.17-0.345,0.641-0.371,0.856-0.069l1.684,2.362l3.032-5.32c0.22-0.382,0.77-0.312,0.907,0.084L17,20.537V23z"/>
		</g>
	</g>
	<g id="New_icons">
	</g>
</g>
<g id="Invisible_Shape">
	<rect fill="none" width="24" height="24"/>
</g>
</svg>
