<?xml version="1.0" encoding="utf-8"?>
<!-- Generator: Adobe Illustrator 19.2.1, SVG Export Plug-In . SVG Version: 6.00 Build 0)  -->
<svg version="1.1" xmlns="http://www.w3.org/2000/svg" xmlns:xlink="http://www.w3.org/1999/xlink" x="0px" y="0px" width="24px"
	 height="24px" viewBox="0 0 24 24" enable-background="new 0 0 24 24" xml:space="preserve">
<g id="Filled_Icons_1_">
	<g id="Filled_Icons">
		<g>
			<path d="M18.852,6.332C17.611,3.994,15.152,2.5,12.5,2.5c-3.618,0-6.648,2.693-7.123,6.227C3.012,8.547,0.999,10.451,1,12.803
				C1,16.076,3.825,16.979,5.326,17H7v-3.5C7,12.673,7.673,12,8.5,12h4c0.4,0,0.777,0.156,1.061,0.439l3,3
				C16.844,15.723,17,16.1,17,16.5V17h2.271C19.319,16.992,24,16.205,24,11.607C24,8.74,21.702,6.399,18.852,6.332z"/>
			<g>
				<path d="M12.854,13.146C12.76,13.053,12.633,13,12.5,13h-4C8.224,13,8,13.224,8,13.5v9C8,22.776,8.224,23,8.5,23h7
					c0.276,0,0.5-0.224,0.5-0.5v-6c0-0.133-0.053-0.26-0.146-0.354L12.854,13.146z M12.5,16.5V14l2.5,2.5H12.5z"/>
			</g>
		</g>
	</g>
	<g id="New_icons">
	</g>
</g>
<g id="Invisible_Shape">
	<rect fill="none" width="24" height="24"/>
</g>
</svg>
