<?xml version="1.0" encoding="utf-8"?>
<!-- Generator: Adobe Illustrator 19.2.1, SVG Export Plug-In . SVG Version: 6.00 Build 0)  -->
<svg version="1.1" xmlns="http://www.w3.org/2000/svg" xmlns:xlink="http://www.w3.org/1999/xlink" x="0px" y="0px" width="24px"
	 height="24px" viewBox="0 0 24 24" enable-background="new 0 0 24 24" xml:space="preserve">
<g id="Filled_Icons_1_">
	<g id="Filled_Icons">
		<g>
			<path d="M18.852,6.332C17.611,3.994,15.152,2.5,12.5,2.5c-3.618,0-6.648,2.693-7.123,6.227C3.012,8.547,0.999,10.451,1,12.803
				c0,3.05,2.451,4.04,4,4.179V12.5C5,11.673,5.673,11,6.5,11h2c0.652,0,1.208,0.418,1.414,1H15.5c0.827,0,1.5,0.673,1.5,1.5v0.586
				c0.582,0.206,1,0.762,1,1.414V17h1.271C19.319,16.992,24,16.205,24,11.607C24,8.74,21.702,6.399,18.852,6.332z"/>
			<path d="M16.5,15H16v-1.5c0-0.276-0.224-0.5-0.5-0.5H9v-0.5C9,12.224,8.776,12,8.5,12h-2C6.224,12,6,12.224,6,12.5v7
				C6,20.327,6.673,21,7.5,21H15c1.103,0,2-0.897,2-2v-3.5C17,15.224,16.776,15,16.5,15z M8,15.5v4C8,19.776,7.775,20,7.5,20
				S7,19.776,7,19.5V13h1v0.5C8,13.776,8.224,14,8.5,14H15v1H8.5C8.224,15,8,15.224,8,15.5z"/>
		</g>
	</g>
	<g id="New_icons">
	</g>
</g>
<g id="Invisible_Shape">
	<rect fill="none" width="24" height="24"/>
</g>
</svg>
