<?xml version="1.0" encoding="utf-8"?>
<!-- Generator: Adobe Illustrator 19.2.1, SVG Export Plug-In . SVG Version: 6.00 Build 0)  -->
<svg version="1.1" xmlns="http://www.w3.org/2000/svg" xmlns:xlink="http://www.w3.org/1999/xlink" x="0px" y="0px" width="24px"
	 height="24px" viewBox="0 0 24 24" enable-background="new 0 0 24 24" xml:space="preserve">
<g id="Filled_Icons_1_">
	<g id="Filled_Icons">
		<g>
			<polygon points="13.399,17 11.822,17 5.822,23 7.399,23 			"/>
			<path d="M16.371,23l4.917-4.917c-0.242-0.288-0.534-0.528-0.867-0.709L14.795,23H16.371z"/>
			<path d="M8.832,17l-5.494,5.494c0.333,0.224,0.715,0.377,1.125,0.451L10.408,17H8.832z"/>
			<polygon points="16.39,17 14.814,17 8.814,23 10.39,23 			"/>
			<polygon points="19.38,17 17.804,17 11.804,23 13.38,23 			"/>
			<path d="M17.785,23H19c1.654,0,3-1.346,3-3c0-0.361-0.074-0.703-0.191-1.023L17.785,23z"/>
			<path d="M7.418,17H5c-1.654,0-3,1.346-3,3c0,0.679,0.235,1.299,0.616,1.802L7.418,17z"/>
			<path d="M18.627,4.006C17.336,1.562,14.769,0,12,0C8.222,0,5.059,2.819,4.573,6.512C2.126,6.316,0,8.266,0,10.75
				C0,15,4.26,15,4.487,15H19c0.049-0.007,5-0.702,5-5.5C24,6.51,21.601,4.069,18.627,4.006z"/>
		</g>
	</g>
	<g id="New_icons">
	</g>
</g>
<g id="Invisible_Shape">
	<rect fill="none" width="24" height="24"/>
</g>
</svg>
