<?xml version="1.0" encoding="utf-8"?>
<!-- Generator: Adobe Illustrator 19.2.1, SVG Export Plug-In . SVG Version: 6.00 Build 0)  -->
<svg version="1.1" xmlns="http://www.w3.org/2000/svg" xmlns:xlink="http://www.w3.org/1999/xlink" x="0px" y="0px" width="24px"
	 height="24px" viewBox="0 0 24 24" enable-background="new 0 0 24 24" xml:space="preserve">
<g id="Filled_Icons_1_">
	<g id="Filled_Icons">
		<g>
			<g>
				<path d="M9,22.5c0,0.827,0.673,1.5,1.5,1.5h4c0.827,0,1.5-0.673,1.5-1.5V22H9V22.5z"/>
				<path d="M14.5,13h-4C9.673,13,9,13.673,9,14.5V21h7v-6.5C16,13.673,15.327,13,14.5,13z"/>
			</g>
			<path d="M18.852,4.332C17.611,1.994,15.152,0.5,12.5,0.5c-3.618,0-6.648,2.693-7.123,6.227C3.012,6.547,0.999,8.451,1,10.803
				C1,14.076,3.825,14.979,5.326,15H8v-0.5c0-1.379,1.121-2.5,2.5-2.5h4c1.379,0,2.5,1.121,2.5,2.5V15h2.271
				C19.319,14.992,24,14.205,24,9.607C24,6.74,21.702,4.399,18.852,4.332z M14.854,7.853c-0.195,0.195-0.512,0.195-0.707,0L13,6.707
				V10.5c0,0.276-0.224,0.5-0.5,0.5S12,10.776,12,10.5V6.707l-1.146,1.147c-0.195,0.195-0.512,0.195-0.707,0
				c-0.195-0.195-0.195-0.512,0-0.707l2-2c0.195-0.195,0.512-0.195,0.707,0l2,2C15.049,7.342,15.049,7.658,14.854,7.853z"/>
		</g>
	</g>
	<g id="New_icons">
	</g>
</g>
<g id="Invisible_Shape">
	<rect fill="none" width="24" height="24"/>
</g>
</svg>
