<?xml version="1.0" encoding="utf-8"?>
<!-- Generator: Adobe Illustrator 19.2.1, SVG Export Plug-In . SVG Version: 6.00 Build 0)  -->
<svg version="1.1" xmlns="http://www.w3.org/2000/svg" xmlns:xlink="http://www.w3.org/1999/xlink" x="0px" y="0px" width="24px"
	 height="24px" viewBox="0 0 24 24" enable-background="new 0 0 24 24" xml:space="preserve">
<g id="Filled_Icons_1_">
	<g id="Filled_Icons">
		<g>
			<g>
				<path d="M19,17H8.832L3.33,22.49C3.808,22.812,4.382,23,5,23h14c1.654,0,3-1.346,3-3S20.654,17,19,17z"/>
				<path d="M7.415,17H5c-1.654,0-3,1.346-3,3c0,0.676,0.232,1.293,0.61,1.795L7.415,17z"/>
			</g>
			<path d="M18.627,4.006C17.336,1.562,14.769,0,12,0C8.222,0,5.059,2.819,4.573,6.512C2.126,6.316,0,8.266,0,10.75
				C0,15,4.26,15,4.487,15C4.488,15,19,15,19,15c0.049-0.007,5-0.702,5-5.5C24,6.51,21.601,4.069,18.627,4.006z"/>
		</g>
	</g>
	<g id="New_icons">
	</g>
</g>
<g id="Invisible_Shape">
	<rect fill="none" width="24" height="24"/>
</g>
</svg>
