<?xml version="1.0" encoding="utf-8"?>
<!-- Generator: Adobe Illustrator 19.2.1, SVG Export Plug-In . SVG Version: 6.00 Build 0)  -->
<svg version="1.1" xmlns="http://www.w3.org/2000/svg" xmlns:xlink="http://www.w3.org/1999/xlink" x="0px" y="0px" width="24px"
	 height="24px" viewBox="0 0 24 24" enable-background="new 0 0 24 24" xml:space="preserve">
<g id="Filled_Icons_1_">
	<g id="Filled_Icons">
	</g>
	<g id="New_icons">
		<g>
			<path d="M18.852,3.832C17.611,1.494,15.152,0,12.5,0C8.882,0,5.852,2.693,5.377,6.227C3.012,6.047,0.999,7.951,1,10.303
				c0,3.273,2.825,4.176,4.326,4.197H7v-2C7,11.673,7.673,11,8.5,11s1.5,0.673,1.5,1.5v2h4v-1.882l-0.449,0.445
				c-0.565,0.558-1.546,0.559-2.111-0.006c-0.585-0.585-0.585-1.536,0-2.121l3.001-3c0.56-0.56,1.564-0.56,2.124,0.004l2.996,2.996
				c0.585,0.585,0.585,1.536,0,2.121c-0.568,0.567-1.557,0.565-2.121,0L17,12.618V14.5h2.271C19.319,14.492,24,13.705,24,9.107
				C24,6.24,21.702,3.899,18.852,3.832z"/>
			<path d="M12.146,12.351c0.001,0.002,0.002,0.002,0.002,0.002c0.192,0.189,0.512,0.189,0.703,0c0,0,0.002,0,0.002-0.002L15,10.204
				v8.793c0,0.276,0.225,0.5,0.5,0.5c0.276,0,0.5-0.224,0.5-0.5v-8.793l2.146,2.147c0.19,0.19,0.506,0.201,0.707,0
				c0.197-0.197,0.193-0.514,0-0.707l-2.998-2.998c-0.191-0.191-0.515-0.195-0.708-0.002l-3.001,3
				C11.951,11.839,11.951,12.155,12.146,12.351z"/>
			<path d="M11.854,18.146l-0.002-0.002c-0.192-0.188-0.512-0.188-0.703,0l-0.002,0.002L9,20.293V12.5C9,12.224,8.775,12,8.5,12
				C8.224,12,8,12.224,8,12.5v7.793l-2.147-2.146c-0.19-0.19-0.506-0.201-0.707,0c-0.197,0.197-0.193,0.514,0,0.707l2.998,2.998
				c0.191,0.191,0.515,0.195,0.708,0.002l3.001-3C12.049,18.658,12.049,18.342,11.854,18.146z"/>
		</g>
	</g>
</g>
<g id="Invisible_Shape">
	<rect fill="none" width="24" height="24"/>
</g>
</svg>
