<?xml version="1.0" encoding="utf-8"?>
<!-- Generator: Adobe Illustrator 19.2.1, SVG Export Plug-In . SVG Version: 6.00 Build 0)  -->
<svg version="1.1" xmlns="http://www.w3.org/2000/svg" xmlns:xlink="http://www.w3.org/1999/xlink" x="0px" y="0px" width="24px"
	 height="24px" viewBox="0 0 24 24" enable-background="new 0 0 24 24" xml:space="preserve">
<g id="Filled_Icons_1_">
	<g id="Filled_Icons">
	</g>
	<g id="New_icons">
		<g>
			<path d="M18.852,6.332C17.611,3.994,15.152,2.5,12.5,2.5c-3.618,0-6.648,2.693-7.123,6.227C3.012,8.547,0.999,10.451,1,12.803
				C1,15.208,2.552,17,6,17v-1c0-1.654,1.346-3,3-3h0.697l0.555-0.832c0.28-0.419,0.746-0.668,1.248-0.668h3
				c0.502,0,0.968,0.249,1.247,0.667L16.303,13H17c1.654,0,3,1.346,3,3v0.81c1.326-0.43,4-1.726,4-5.203
				C24,8.74,21.702,6.399,18.852,6.332z"/>
			<path d="M17,14h-1.232l-0.852-1.277C14.823,12.584,14.667,12.5,14.5,12.5h-3c-0.167,0-0.323,0.084-0.416,0.223L10.232,14H9
				c-1.102,0-2,0.898-2,2v4c0,1.103,0.898,2,2,2h8c1.103,0,2-0.897,2-2v-4C19,14.898,18.103,14,17,14z M13,20
				c-1.379,0-2.5-1.121-2.5-2.5S11.621,15,13,15s2.5,1.121,2.5,2.5S14.379,20,13,20z"/>
		</g>
	</g>
</g>
<g id="Invisible_Shape">
	<rect fill="none" width="24" height="24"/>
</g>
</svg>
