<?xml version="1.0" encoding="utf-8"?>
<!-- Generator: Adobe Illustrator 19.2.1, SVG Export Plug-In . SVG Version: 6.00 Build 0)  -->
<svg version="1.1" xmlns="http://www.w3.org/2000/svg" xmlns:xlink="http://www.w3.org/1999/xlink" x="0px" y="0px" width="24px"
	 height="24px" viewBox="0 0 24 24" enable-background="new 0 0 24 24" xml:space="preserve">
<g id="Filled_Icons_1_">
	<g id="Filled_Icons">
		<g>
			<path d="M18.852,6.332C17.611,3.994,15.152,2.5,12.5,2.5c-3.618,0-6.648,2.693-7.123,6.227C3.012,8.547,0.999,10.451,1,12.803
				C1,16.076,3.825,16.979,5.326,17h1.133c-0.693-0.573-1.216-1.057-0.867-2.014C5.81,14.389,6.362,14,7,14h2.511l1.11-2.591
				c0.523-1.21,2.235-1.209,2.757-0.003L14.489,14H17c0.638,0,1.19,0.389,1.408,0.986c0.349,0.957-0.168,1.436-0.867,2.014h1.73
				C19.319,16.992,24,16.205,24,11.607C24,8.74,21.702,6.399,18.852,6.332z"/>
			<path d="M17,15h-3.171l-1.369-3.197c-0.175-0.404-0.745-0.404-0.92,0L10.171,15H7c-0.47,0-0.676,0.586-0.32,0.885l2.744,2.27
				l-1.375,3.668c-0.171,0.457,0.351,0.869,0.758,0.584L12,20.117l3.193,2.289c0.407,0.285,0.929-0.127,0.758-0.584l-1.375-3.668
				l2.744-2.27C17.676,15.586,17.47,15,17,15z"/>
		</g>
	</g>
	<g id="New_icons">
	</g>
</g>
<g id="Invisible_Shape">
	<rect fill="none" width="24" height="24"/>
</g>
</svg>
