<?xml version="1.0" encoding="utf-8"?>
<!-- Generator: Adobe Illustrator 19.2.1, SVG Export Plug-In . SVG Version: 6.00 Build 0)  -->
<svg version="1.1" xmlns="http://www.w3.org/2000/svg" xmlns:xlink="http://www.w3.org/1999/xlink" x="0px" y="0px" width="24px"
	 height="24px" viewBox="0 0 24 24" enable-background="new 0 0 24 24" xml:space="preserve">
<g id="Filled_Icons_1_">
	<g id="Filled_Icons">
		<g>
			<path d="M18.852,6.332C17.611,3.994,15.152,2.5,12.5,2.5c-3.618,0-6.648,2.693-7.123,6.227C3.012,8.547,0.999,10.451,1,12.803
				C1,16.076,3.825,16.979,5.326,17H6v-4.491c0-1.221,1.375-1.913,2.356-1.231c0.611,0.427,0.936,0.481,1.15,0.481
				c0.323,0,0.619-0.141,0.811-0.386c0.562-0.715,1.805-0.715,2.367,0c0.192,0.246,0.487,0.386,0.811,0.386
				c0.214,0,0.538-0.055,1.144-0.478c0.454-0.318,1.076-0.356,1.564-0.096C16.688,11.434,17,11.943,17,12.509V17h2.271
				C19.319,16.992,24,16.205,24,11.607C24,8.74,21.702,6.399,18.852,6.332z"/>
			<path d="M15.213,12.1c-0.652,0.456-1.182,0.659-1.718,0.659c-0.634,0-1.216-0.28-1.597-0.768c-0.189-0.241-0.605-0.241-0.795,0
				c-0.383,0.487-0.965,0.768-1.598,0.768c-0.535,0-1.066-0.203-1.72-0.66C7.451,11.865,7,12.11,7,12.509v5.925
				c0,0.802,1.463,2.735,4.365,3.549c0.096,0.023,0.174,0.023,0.27,0C14.537,21.169,16,19.235,16,18.434v-5.925
				C16,12.108,15.546,11.865,15.213,12.1z M13.519,17H12v1.466c0,0.277-0.224,0.5-0.5,0.5s-0.5-0.223-0.5-0.5V17H9.477
				c-0.276,0-0.5-0.224-0.5-0.5s0.224-0.5,0.5-0.5H11v-1.521c0-0.276,0.224-0.5,0.5-0.5s0.5,0.224,0.5,0.5V16h1.519
				c0.276,0,0.5,0.224,0.5,0.5S13.795,17,13.519,17z"/>
		</g>
	</g>
	<g id="New_icons">
	</g>
</g>
<g id="Invisible_Shape">
	<rect fill="none" width="24" height="24"/>
</g>
</svg>
