<?xml version="1.0" encoding="utf-8"?>
<!-- Generator: Adobe Illustrator 19.2.1, SVG Export Plug-In . SVG Version: 6.00 Build 0)  -->
<svg version="1.1" xmlns="http://www.w3.org/2000/svg" xmlns:xlink="http://www.w3.org/1999/xlink" x="0px" y="0px" width="24px"
	 height="24px" viewBox="0 0 24 24" enable-background="new 0 0 24 24" xml:space="preserve">
<g id="Filled_Icons_1_">
	<g id="Filled_Icons">
		<g>
			<path d="M2.605,14.671l0.865-1.888C3.943,11.75,5.113,11,6.25,11H17c1.077,0,2.254,0.676,2.799,1.606l1.071,1.837
				C22.253,13.8,24,12.416,24,9.5c0-3.011-2.405-5.434-5.372-5.494C17.337,1.561,14.771,0,12,0C8.223,0,5.059,2.819,4.573,6.512
				C2.14,6.315,0,8.252,0,10.75C0,12.751,0.982,14.07,2.605,14.671z"/>
			<path d="M21.932,18.248l-2.996-5.137C18.571,12.488,17.722,12,17,12H6.25c-0.74,0-1.562,0.527-1.871,1.2l-2.333,5.092
				C2.016,18.357,2,18.428,2,18.5V21c0,1.654,1.346,3,3,3h14c1.654,0,3-1.346,3-3v-2.5C22,18.411,21.977,18.324,21.932,18.248z
				 M18,22h-3c-0.276,0-0.5-0.224-0.5-0.5S14.724,21,15,21h3c0.276,0,0.5,0.224,0.5,0.5S18.276,22,18,22z M3.279,18l2.008-4.383
				C5.436,13.294,5.894,13,6.25,13H17c0.373,0,0.884,0.293,1.072,0.615L20.63,18H3.279z"/>
		</g>
	</g>
	<g id="New_icons">
	</g>
</g>
<g id="Invisible_Shape">
	<rect fill="none" width="24" height="24"/>
</g>
</svg>
