<?xml version="1.0" encoding="utf-8"?>
<!-- Generator: Adobe Illustrator 19.2.1, SVG Export Plug-In . SVG Version: 6.00 Build 0)  -->
<svg version="1.1" xmlns="http://www.w3.org/2000/svg" xmlns:xlink="http://www.w3.org/1999/xlink" x="0px" y="0px" width="24px"
	 height="24px" viewBox="0 0 24 24" enable-background="new 0 0 24 24" xml:space="preserve">
<g id="Filled_Icons_1_">
	<g id="Filled_Icons">
		<g>
			<path d="M17.852,6.332C16.611,3.994,14.152,2.5,11.5,2.5c-3.618,0-6.648,2.693-7.123,6.227C2.012,8.547-0.001,10.451,0,12.803
				C0,16.076,2.825,16.979,4.326,17H10v-5.305c0-0.827,0.672-1.5,1.5-1.5c0.826,0,1.5,0.673,1.5,1.5V17h5.271
				C18.319,16.992,23,16.205,23,11.607C23,8.74,20.702,6.399,17.852,6.332z"/>
			<path d="M14.854,18.65c-0.001-0.002-0.002-0.002-0.002-0.002c-0.192-0.188-0.512-0.188-0.703,0c0,0-0.002,0-0.002,0.002
				L12,20.797v-8.793c0-0.276-0.225-0.5-0.5-0.5c-0.276,0-0.5,0.224-0.5,0.5v8.793L8.854,18.65c-0.19-0.19-0.506-0.201-0.707,0
				c-0.197,0.197-0.193,0.514,0,0.707l2.998,2.998c0.191,0.191,0.515,0.195,0.708,0.002l3.001-3
				C15.049,19.162,15.049,18.846,14.854,18.65z"/>
		</g>
	</g>
	<g id="New_icons">
	</g>
</g>
<g id="Invisible_Shape">
	<rect fill="none" width="24" height="24"/>
</g>
</svg>
