<?xml version="1.0" encoding="utf-8"?>
<!-- Generator: Adobe Illustrator 19.2.1, SVG Export Plug-In . SVG Version: 6.00 Build 0)  -->
<svg version="1.1" xmlns="http://www.w3.org/2000/svg" xmlns:xlink="http://www.w3.org/1999/xlink" x="0px" y="0px" width="24px"
	 height="24px" viewBox="0 0 24 24" enable-background="new 0 0 24 24" xml:space="preserve">
<g id="Filled_Icons_1_">
	<g id="Filled_Icons">
		<g>
			<path d="M18.852,6.332C17.611,3.994,15.152,2.5,12.5,2.5c-3.618,0-6.648,2.693-7.123,6.227C3.012,8.547,0.999,10.451,1,12.803
				C1,16.076,3.825,16.979,5.326,17h2.171l0.002-0.001c-0.953-0.55-1.096-1.44-0.694-2.135l0.999-1.731
				C8.19,12.469,9.068,12.13,10,12.67c0-1.08,0.698-1.67,1.5-1.67h2c0.804,0,1.5,0.592,1.5,1.668c0.94-0.543,1.82-0.193,2.197,0.469
				l0.999,1.729c0.398,0.7,0.25,1.592-0.696,2.135h1.771C19.319,16.992,24,16.205,24,11.607C24,8.74,21.702,6.399,18.852,6.332z"/>
			<path d="M17.147,17.951l-0.702-0.406c0.073-0.541,0.073-0.547,0-1.092l0.702-0.404c0.239-0.138,0.319-0.443,0.183-0.684
				l-1.001-1.732c-0.137-0.239-0.443-0.322-0.683-0.184l-0.702,0.406c-0.288-0.226-0.601-0.419-0.944-0.559V12.5
				c0-0.276-0.224-0.5-0.5-0.5h-2c-0.276,0-0.5,0.224-0.5,0.5v0.797c-0.344,0.14-0.656,0.334-0.945,0.559l-0.701-0.404
				c-0.24-0.139-0.545-0.057-0.684,0.182l-1,1.732c-0.139,0.239-0.057,0.546,0.184,0.684l0.701,0.405
				c-0.073,0.54-0.074,0.548,0,1.09l-0.702,0.405c-0.239,0.139-0.32,0.444-0.184,0.684l1.001,1.732
				c0.137,0.239,0.443,0.321,0.684,0.184l0.7-0.405c0.289,0.226,0.602,0.42,0.946,0.559V21.5c0,0.276,0.224,0.5,0.5,0.5h2
				c0.276,0,0.5-0.224,0.5-0.5v-0.797c0.345-0.14,0.657-0.334,0.946-0.559l0.701,0.404c0.239,0.138,0.544,0.056,0.683-0.184l1-1.732
				C17.469,18.395,17.387,18.088,17.147,17.951z M12.5,19c-1.104,0-2-0.896-2-2s0.896-2,2-2s2,0.896,2,2S13.604,19,12.5,19z"/>
			<path d="M17.147,17.951l-0.702-0.406c0.073-0.541,0.073-0.547,0-1.092l0.702-0.404c0.239-0.138,0.319-0.443,0.183-0.684
				l-1.001-1.732c-0.137-0.239-0.443-0.322-0.683-0.184l-0.702,0.406c-0.288-0.226-0.601-0.419-0.944-0.559V12.5
				c0-0.276-0.224-0.5-0.5-0.5h-2c-0.276,0-0.5,0.224-0.5,0.5v0.797c-0.344,0.14-0.656,0.334-0.945,0.559l-0.701-0.404
				c-0.24-0.139-0.545-0.057-0.684,0.182l-1,1.732c-0.139,0.239-0.057,0.546,0.184,0.684l0.701,0.405
				c-0.073,0.54-0.074,0.548,0,1.09l-0.702,0.405c-0.239,0.139-0.32,0.444-0.184,0.684l1.001,1.732
				c0.137,0.239,0.443,0.321,0.684,0.184l0.7-0.405c0.289,0.226,0.602,0.42,0.946,0.559V21.5c0,0.276,0.224,0.5,0.5,0.5h2
				c0.276,0,0.5-0.224,0.5-0.5v-0.797c0.345-0.14,0.657-0.334,0.946-0.559l0.701,0.404c0.239,0.138,0.544,0.056,0.683-0.184l1-1.732
				C17.469,18.395,17.387,18.088,17.147,17.951z M12.5,19c-1.104,0-2-0.896-2-2s0.896-2,2-2s2,0.896,2,2S13.604,19,12.5,19z"/>
		</g>
	</g>
	<g id="New_icons">
	</g>
</g>
<g id="Invisible_Shape">
	<rect fill="none" width="24" height="24"/>
</g>
</svg>
