<?xml version="1.0" encoding="utf-8"?>
<!-- Generator: Adobe Illustrator 19.2.1, SVG Export Plug-In . SVG Version: 6.00 Build 0)  -->
<svg version="1.1" xmlns="http://www.w3.org/2000/svg" xmlns:xlink="http://www.w3.org/1999/xlink" x="0px" y="0px" width="24px"
	 height="24px" viewBox="0 0 24 24" enable-background="new 0 0 24 24" xml:space="preserve">
<g id="Filled_Icons_1_">
	<g id="Filled_Icons">
		<g>
			<path d="M15.999,3.345c0.229,0.151,0.54,0.091,0.694-0.138c0.153-0.23,0.09-0.541-0.14-0.694c-2.965-1.98-7.018-1.98-9.983,0
				c-0.23,0.153-0.292,0.464-0.139,0.694c0.154,0.228,0.465,0.289,0.693,0.138C9.761,1.586,13.361,1.584,15.999,3.345z"/>
			<path d="M15.444,4.176c-2.307-1.537-5.456-1.539-7.765,0C7.45,4.329,7.389,4.64,7.542,4.869C7.696,5.1,8.007,5.16,8.234,5.008
				c1.979-1.318,4.679-1.318,6.655,0c0.228,0.152,0.539,0.092,0.693-0.139C15.736,4.64,15.674,4.329,15.444,4.176z"/>
			<path d="M14.336,5.84c-1.65-1.099-3.898-1.098-5.547,0C8.56,5.993,8.497,6.304,8.65,6.533c0.153,0.23,0.465,0.29,0.693,0.139
				c1.318-0.879,3.117-0.879,4.438,0c0.229,0.151,0.54,0.091,0.693-0.139C14.628,6.304,14.565,5.993,14.336,5.84z"/>
			<path d="M18.627,12.006C17.336,9.562,14.769,8,12,8c-3.778,0-6.941,2.819-7.427,6.512C2.126,14.316,0,16.266,0,18.75
				C0,23,4.26,23,4.487,23H19c0.049-0.007,5-0.702,5-5.5C24,14.51,21.601,12.069,18.627,12.006z"/>
		</g>
	</g>
	<g id="New_icons">
	</g>
</g>
<g id="Invisible_Shape">
	<rect fill="none" width="24" height="24"/>
</g>
</svg>
