<?xml version="1.0" encoding="utf-8"?>
<!-- Generator: Adobe Illustrator 19.2.1, SVG Export Plug-In . SVG Version: 6.00 Build 0)  -->
<svg version="1.1" xmlns="http://www.w3.org/2000/svg" xmlns:xlink="http://www.w3.org/1999/xlink" x="0px" y="0px" width="24px"
	 height="24px" viewBox="0 0 24 24" enable-background="new 0 0 24 24" xml:space="preserve">
<g id="Filled_Icons_1_">
	<g id="Filled_Icons">
	</g>
	<g id="New_icons">
		<g>
			<path d="M0.009,20C0.054,21.109,0.926,22,2,22h6v1H5c-0.276,0-0.5,0.224-0.5,0.5S4.724,24,5,24h7c0.276,0,0.5-0.224,0.5-0.5
				S12.276,23,12,23H9v-1h6c1.074,0,1.946-0.891,1.991-2H0.009z"/>
			<path d="M11.928,11c-1.182,0-2.793-0.561-3.529-2H2c-1.102,0-2,0.898-2,2v8h17v-8H11.928z M10.854,14.354
				c-0.195,0.195-0.512,0.195-0.707,0L9,13.207V16.5C9,16.776,8.776,17,8.5,17S8,16.776,8,16.5v-3.293l-1.147,1.147
				c-0.195,0.195-0.512,0.195-0.707,0s-0.195-0.512,0-0.707l2-2c0.195-0.195,0.512-0.195,0.707,0l2,2
				C11.049,13.842,11.049,14.158,10.854,14.354z"/>
			<path d="M24,6.477c0-1.887-1.484-3.433-3.348-3.534C19.817,1.45,18.221,0.5,16.5,0.5c-2.338,0-4.305,1.698-4.688,3.956
				C10.277,4.451,9,5.693,9,7.238C9,9.441,10.915,10,11.928,10h8.897C21.923,9.858,24,8.951,24,6.477z"/>
		</g>
	</g>
</g>
<g id="Invisible_Shape">
	<rect fill="none" width="24" height="24"/>
</g>
</svg>
