<?xml version="1.0" encoding="utf-8"?>
<!-- Generator: Adobe Illustrator 19.2.1, SVG Export Plug-In . SVG Version: 6.00 Build 0)  -->
<svg version="1.1" xmlns="http://www.w3.org/2000/svg" xmlns:xlink="http://www.w3.org/1999/xlink" x="0px" y="0px" width="24px"
	 height="24px" viewBox="0 0 24 24" enable-background="new 0 0 24 24" xml:space="preserve">
<g id="Filled_Icons_1_">
	<g id="Filled_Icons">
	</g>
	<g id="New_icons">
		<g>
			<path d="M14.354,3.647l-1.5-1.5c-0.195-0.195-0.512-0.195-0.707,0c-0.195,0.195-0.195,0.512,0,0.707L12.793,3.5H12.25
				C9.906,3.5,8,5.406,8,7.75v1.543L6.853,8.146c-0.195-0.195-0.512-0.195-0.707,0c-0.195,0.195-0.195,0.512,0,0.707l2,2
				c0.195,0.195,0.512,0.195,0.707,0l2-2c0.195-0.195,0.195-0.512,0-0.707c-0.195-0.195-0.512-0.195-0.707,0L9,9.293V7.75
				c0-1.792,1.458-3.25,3.25-3.25h0.543l-0.647,0.647c-0.195,0.195-0.195,0.512,0,0.707s0.512,0.195,0.707,0l1.5-1.5
				C14.549,4.158,14.549,3.842,14.354,3.647z"/>
			<path d="M20.644,2.293C19.807,0.891,18.214,0,16.5,0c-1.309,0-2.515,0.513-3.257,1.229l-0.002,0.004
				c0.398,0.224,1.496,1.385,1.819,1.707c0.586,0.586,0.586,1.535,0,2.121l-1.5,1.5c-0.784,0.784-2.227,0.457-2.516-0.699
				c-0.439,0.281-0.769,0.707-0.93,1.214c1.219-0.326,2.192,0.813,1.785,1.936l8.921-0.015C21.921,8.861,24,7.987,24,5.643
				C24,3.851,22.51,2.383,20.644,2.293z"/>
			<g>
				<path d="M13,14v-0.5c0-0.827-0.673-1.5-1.5-1.5h-6C4.673,12,4,12.673,4,13.5V14H13z"/>
				<path d="M4,21v1.5C4,23.327,4.673,24,5.5,24h6c0.827,0,1.5-0.673,1.5-1.5V21H4z M9,23H8c-0.276,0-0.5-0.224-0.5-0.5
					S7.724,22,8,22h1c0.276,0,0.5,0.224,0.5,0.5S9.276,23,9,23z"/>
				<rect x="4" y="15" width="9" height="5"/>
			</g>
		</g>
	</g>
</g>
<g id="Invisible_Shape">
	<rect fill="none" width="24" height="24"/>
</g>
</svg>
