<?xml version="1.0" encoding="utf-8"?>
<!-- Generator: Adobe Illustrator 16.0.3, SVG Export Plug-In . SVG Version: 6.00 Build 0)  -->
<!DOCTYPE svg PUBLIC "-//W3C//DTD SVG 1.1//EN" "http://www.w3.org/Graphics/SVG/1.1/DTD/svg11.dtd">
<svg version="1.1" xmlns="http://www.w3.org/2000/svg" xmlns:xlink="http://www.w3.org/1999/xlink" x="0px" y="0px" width="24px"
	 height="24px" viewBox="0 0 24 24" enable-background="new 0 0 24 24" xml:space="preserve">
<g id="Outline_Icons">
	<g>
		<path fill="none" stroke="#000000" stroke-linecap="round" stroke-linejoin="round" stroke-miterlimit="10" d="M16.615,1.463
			c0.313,0.139,0.62,0.289,0.918,0.453"/>
		<path fill="none" stroke="#000000" stroke-linecap="round" stroke-linejoin="round" stroke-miterlimit="10" d="M12.692,0.52
			c0.688,0.041,1.359,0.143,2.008,0.299"/>
		<path fill="none" stroke="#000000" stroke-linecap="round" stroke-linejoin="round" stroke-miterlimit="10" d="M8.753,0.964
			c0.634-0.187,1.292-0.319,1.966-0.395"/>
		<path fill="none" stroke="#000000" stroke-linecap="round" stroke-linejoin="round" stroke-miterlimit="10" d="M5.172,2.745
			C5.721,2.34,6.307,1.981,6.924,1.678"/>
		<path fill="none" stroke="#000000" stroke-linecap="round" stroke-linejoin="round" stroke-miterlimit="10" d="M2.456,5.582
			c0.367-0.545,0.779-1.057,1.231-1.529"/>
		<path fill="none" stroke="#000000" stroke-linecap="round" stroke-linejoin="round" stroke-miterlimit="10" d="M0.841,9.206
			c0.161-0.646,0.377-1.271,0.643-1.87"/>
		<path fill="none" stroke="#000000" stroke-linecap="round" stroke-linejoin="round" stroke-miterlimit="10" d="M0.56,13.188
			C0.52,12.797,0.5,12.4,0.5,12c0-0.269,0.009-0.535,0.027-0.799"/>
		<path fill="none" stroke="#000000" stroke-linecap="round" stroke-linejoin="round" stroke-miterlimit="10" d="M1.648,17.016
			c-0.287-0.59-0.524-1.208-0.708-1.85"/>
		<path fill="none" stroke="#000000" stroke-linecap="round" stroke-linejoin="round" stroke-miterlimit="10" d="M3.979,20.242
			c-0.483-0.471-0.924-0.982-1.318-1.529"/>
		<path fill="none" stroke="#000000" stroke-linecap="round" stroke-linejoin="round" stroke-miterlimit="10" d="M7.27,22.486
			c-0.609-0.275-1.19-0.602-1.737-0.975"/>
		<path fill="none" stroke="#000000" stroke-linecap="round" stroke-linejoin="round" stroke-miterlimit="10" d="M11.125,23.467
			c-0.68-0.051-1.343-0.16-1.985-0.324"/>
		<path fill="none" stroke="#000000" stroke-linecap="round" stroke-linejoin="round" stroke-miterlimit="10" d="M15.111,23.074
			c-0.641,0.18-1.304,0.305-1.985,0.371"/>
		<path fill="none" stroke="#000000" stroke-linecap="round" stroke-linejoin="round" stroke-miterlimit="10" d="M18.705,21.345
			c-0.545,0.392-1.126,0.737-1.737,1.03"/>
		<path fill="none" stroke="#000000" stroke-linecap="round" stroke-linejoin="round" stroke-miterlimit="10" d="M21.481,18.51
			c-0.38,0.554-0.808,1.072-1.277,1.549"/>
		<path fill="none" stroke="#000000" stroke-linecap="round" stroke-linejoin="round" stroke-miterlimit="10" d="M23.13,14.9
			c-0.169,0.648-0.393,1.277-0.667,1.877"/>
		<path fill="none" stroke="#000000" stroke-linecap="round" stroke-linejoin="round" stroke-miterlimit="10" d="M23.449,10.918
			C23.482,11.273,23.5,11.635,23.5,12c0,0.328-0.014,0.654-0.041,0.977"/>
		<path fill="none" stroke="#000000" stroke-linecap="round" stroke-linejoin="round" stroke-miterlimit="10" d="M22.79,8.014
			c0.113,0.307,0.214,0.619,0.301,0.938"/>
		
			<circle fill="none" stroke="#000000" stroke-linecap="round" stroke-linejoin="round" stroke-miterlimit="10" cx="12" cy="12" r="7.5"/>
		<path fill="none" stroke="#000000" stroke-linecap="round" stroke-linejoin="round" stroke-miterlimit="10" d="M17.5,7
			c0,0-2.683,0.836-2.41,1c2.5,1.5-0.409,3.565-0.409,3.818c0,0.318,0.886,1.704,0.409,2.182c-1.694,1.693-0.636,3-3,3
			c-0.318,0-1.5-0.682-1.5-1c0-1.63,2.014-5-1.5-5C8.135,11,8,9.772,8,9.772c0-2.817,3.182-3.228,3.182-2.228
			C11.817,8.182,13.09,6.5,13.09,6.5l-1-2"/>
		
			<circle fill="none" stroke="#000000" stroke-linecap="round" stroke-linejoin="round" stroke-miterlimit="10" cx="20.5" cy="4.5" r="2"/>
	</g>
</g>
<g id="invisible_shape">
	<rect fill="none" width="24" height="24"/>
</g>
</svg>
