<?xml version="1.0" encoding="utf-8"?>
<!-- Generator: Adobe Illustrator 16.0.3, SVG Export Plug-In . SVG Version: 6.00 Build 0)  -->
<!DOCTYPE svg PUBLIC "-//W3C//DTD SVG 1.1//EN" "http://www.w3.org/Graphics/SVG/1.1/DTD/svg11.dtd">
<svg version="1.1" xmlns="http://www.w3.org/2000/svg" xmlns:xlink="http://www.w3.org/1999/xlink" x="0px" y="0px" width="24px"
	 height="24px" viewBox="0 0 24 24" enable-background="new 0 0 24 24" xml:space="preserve">
<g id="Outline_Icons">
	<g>
		<path fill="none" stroke="#000000" stroke-linecap="round" stroke-linejoin="round" stroke-miterlimit="10" d="M17.912,8.084
			C18.291,8.98,18.5,9.966,18.5,11c0,4.143-3.357,7.5-7.5,7.5c-1.262,0-2.451-0.312-3.494-0.861"/>
		<path fill="none" stroke="#000000" stroke-linecap="round" stroke-linejoin="round" stroke-miterlimit="10" d="M5.801,16.406
			C4.383,15.042,3.5,13.124,3.5,11c0-4.142,3.357-7.5,7.5-7.5c2.33,0,4.412,1.063,5.787,2.73"/>
		<path fill="none" stroke="#000000" stroke-linecap="round" stroke-linejoin="round" stroke-miterlimit="10" d="M4.238,15.127
			l-3.445,3.166c-0.391,0.391-0.391,1.024,0,1.414c0.39,0.391,1.023,0.392,1.414,0l18.5-17c0.391-0.39,0.391-1.023,0-1.414
			s-1.023-0.391-1.414,0l-3.878,3.644"/>
		<path fill="none" stroke="#000000" stroke-linecap="round" stroke-linejoin="round" stroke-miterlimit="10" d="M0.5,19.5
			c0,0.513,0.195,1.024,0.586,1.414c0.781,0.781,2.047,0.781,2.828,0l18-16.5c0.781-0.78,0.781-2.047,0-2.828
			C21.523,1.195,21.012,1,20.499,1"/>
		
			<line fill="none" stroke="#000000" stroke-linecap="round" stroke-linejoin="round" stroke-miterlimit="10" x1="1.963" y1="1" x2="1.963" y2="4.062"/>
		
			<line fill="none" stroke="#000000" stroke-linecap="round" stroke-linejoin="round" stroke-miterlimit="10" x1="0.463" y1="2.5" x2="3.463" y2="2.5"/>
		<path fill="none" stroke="#000000" stroke-linecap="round" stroke-linejoin="round" stroke-miterlimit="10" d="M16.963,20.5
			c1.656,0,3-1.344,3-3"/>
		<path fill="none" stroke="#000000" stroke-linecap="round" stroke-linejoin="round" stroke-miterlimit="10" d="M19.963,17.5
			c0,1.656,1.344,3,3,3"/>
		<path fill="none" stroke="#000000" stroke-linecap="round" stroke-linejoin="round" stroke-miterlimit="10" d="M19.963,23.5
			c0-1.657-1.344-3-3-3"/>
		<path fill="none" stroke="#000000" stroke-linecap="round" stroke-linejoin="round" stroke-miterlimit="10" d="M22.963,20.5
			c-1.656,0-3,1.343-3,3"/>
	</g>
</g>
<g id="invisible_shape">
	<rect fill="none" width="24" height="24"/>
</g>
</svg>
