<?xml version="1.0" encoding="utf-8"?>
<!-- Generator: Adobe Illustrator 16.0.3, SVG Export Plug-In . SVG Version: 6.00 Build 0)  -->
<!DOCTYPE svg PUBLIC "-//W3C//DTD SVG 1.1//EN" "http://www.w3.org/Graphics/SVG/1.1/DTD/svg11.dtd">
<svg version="1.1" xmlns="http://www.w3.org/2000/svg" xmlns:xlink="http://www.w3.org/1999/xlink" x="0px" y="0px" width="24px"
	 height="24px" viewBox="0 0 24 24" enable-background="new 0 0 24 24" xml:space="preserve">
<g id="Outline_Icons">
	<g>
		<polygon fill="none" stroke="#000000" stroke-linecap="round" stroke-linejoin="round" stroke-miterlimit="10" points="
			21.939,3.475 23,1 20.524,2.061 16.282,6.303 17.696,7.717 		"/>
		<path fill="none" stroke="#000000" stroke-linecap="round" stroke-linejoin="round" stroke-miterlimit="10" d="M15.928,9.484
			c-0.39,0.391-2.475,1.061-2.475,1.061s0.67-2.084,1.061-2.475s1.024-0.391,1.414,0C16.319,8.461,16.319,9.094,15.928,9.484z"/>
		<polyline fill="none" stroke="#000000" stroke-linecap="round" stroke-linejoin="round" stroke-miterlimit="10" points="
			20.171,5.242 20.878,7.363 19.11,9.131 17.696,7.717 		"/>
		<polyline fill="none" stroke="#000000" stroke-linecap="round" stroke-linejoin="round" stroke-miterlimit="10" points="
			18.757,3.828 16.636,3.121 14.868,4.889 16.282,6.303 		"/>
		<path fill="none" stroke="#000000" stroke-linecap="round" stroke-linejoin="round" stroke-miterlimit="10" d="M12,13.01
			c-5.027,5.004-10.022,8.109-11.187,6.945c-0.685-0.685,0.107-2.693,1.893-5.256"/>
		<path fill="none" stroke="#000000" stroke-linecap="round" stroke-linejoin="round" stroke-miterlimit="10" d="M17.342,11.465
			C17.445,11.961,17.5,12.474,17.5,13c0,4.142-3.358,7.5-7.5,7.5S2.5,17.142,2.5,13c0-4.143,3.358-7.5,7.5-7.5
			c1.045,0,2.041,0.213,2.945,0.6"/>
	</g>
</g>
<g id="invisible_shape">
	<rect fill="none" width="24" height="24"/>
</g>
</svg>
