<?xml version="1.0" encoding="utf-8"?>
<!-- Generator: Adobe Illustrator 16.0.3, SVG Export Plug-In . SVG Version: 6.00 Build 0)  -->
<!DOCTYPE svg PUBLIC "-//W3C//DTD SVG 1.1//EN" "http://www.w3.org/Graphics/SVG/1.1/DTD/svg11.dtd">
<svg version="1.1" xmlns="http://www.w3.org/2000/svg" xmlns:xlink="http://www.w3.org/1999/xlink" x="0px" y="0px" width="24px"
	 height="24px" viewBox="0 0 24 24" enable-background="new 0 0 24 24" xml:space="preserve">
<g id="Outline_Icons">
	<g>
		<path fill="none" stroke="#000000" stroke-linecap="round" stroke-linejoin="round" stroke-miterlimit="10" d="M6.464,13.949
			c0,0,10.945-10.975,11.653-11.682C19.177,1.207,23.42,0.5,23.42,0.5s-0.707,4.242-1.769,5.303
			C20.238,7.217,9.984,17.47,9.984,17.47L6.464,13.949z"/>
		
			<line fill="none" stroke="#000000" stroke-linecap="round" stroke-linejoin="round" stroke-miterlimit="10" x1="7.875" y1="12.526" x2="11.4" y2="16.056"/>
		<path fill="none" stroke="#000000" stroke-linecap="round" stroke-linejoin="round" stroke-miterlimit="10" d="M15.288,12.168
			c0,0.707,0,3.534-0.354,4.595c-0.224,0.672-0.93,1.637-1.415,2.122c-1.393,1.393-3.535,3.535-3.535,3.535l0.655-5.605"/>
		<path fill="none" stroke="#000000" stroke-linecap="round" stroke-linejoin="round" stroke-miterlimit="10" d="M11.752,8.632
			c-0.706,0-3.565-0.03-4.625,0.323c-0.671,0.225-1.608,0.96-2.092,1.444C3.641,11.793,1.5,13.935,1.5,13.935l5.641-0.689"/>
		<path fill="none" stroke="#000000" stroke-linecap="round" stroke-linejoin="round" stroke-miterlimit="10" d="M7.863,17.47
			c0.708,0.707,0.413,1.709-0.354,2.476c-0.976,0.976-5.657,2.136-5.657,2.136s1.146-4.695,2.122-5.672
			c0.777-0.776,1.769-1.061,2.476-0.354"/>
	</g>
</g>
<g id="invisible_shape">
	<rect fill="none" width="24" height="24"/>
</g>
</svg>
