<?xml version="1.0" encoding="utf-8"?>
<!-- Generator: Adobe Illustrator 19.2.1, SVG Export Plug-In . SVG Version: 6.00 Build 0)  -->
<svg version="1.1" xmlns="http://www.w3.org/2000/svg" xmlns:xlink="http://www.w3.org/1999/xlink" x="0px" y="0px" width="24px"
	 height="24px" viewBox="0 0 24 24" enable-background="new 0 0 24 24" xml:space="preserve">
<g id="Filled_Icon">
	<g>
		<path d="M19.691,17.002l-4.747,0.425c-0.55,0.05-0.956,0.536-0.907,1.085c0.049,0.55,0.535,0.949,1.085,0.907l2.433-0.219
			c-5.942,5.162-15.183,0.097-13.959-7.727c0.085-0.546-0.289-1.057-0.835-1.143c-0.543-0.084-1.057,0.289-1.142,0.835
			c-1.454,9.384,9.303,15.671,16.759,9.939l-0.312,1.584c-0.106,0.542,0.247,1.066,0.788,1.174c0.538,0.105,1.067-0.243,1.174-0.789
			l0.965-4.905C21.156,17.352,20.326,16.812,19.691,17.002z"/>
		<path d="M5.516,4.549l0.267-1.356C5.889,2.65,5.536,2.126,4.994,2.019C4.453,1.911,3.926,2.266,3.819,2.808L2.855,7.714
			C2.732,8.289,3.227,8.961,3.925,8.902l4.981-0.447c0.55-0.049,0.956-0.537,0.907-1.086C9.763,6.82,9.277,6.418,8.727,6.462
			L6.053,6.703c6.005-5.904,16.388-0.214,14.167,8.242c-0.14,0.535,0.179,1.082,0.713,1.222c0.547,0.141,1.083-0.188,1.221-0.713
			C24.704,5.746,13.43-1.655,5.516,4.549z"/>
		<path d="M9.595,15.441c-0.212,0-0.858,0-0.905-0.929c-0.014-0.276-0.258-0.496-0.524-0.475c-0.276,0.015-0.488,0.248-0.475,0.524
			c0.046,0.909,0.57,1.88,1.904,1.88c1.404,0,1.902-1.077,1.902-2c0-0.528-0.172-1.102-0.575-1.5c0.403-0.398,0.575-0.972,0.575-1.5
			c0-0.923-0.498-2-1.902-2c-1.334,0-1.858,0.97-1.904,1.877c-0.014,0.276,0.199,0.511,0.475,0.524
			c0.269,0.009,0.51-0.199,0.524-0.474c0.046-0.928,0.67-0.928,0.905-0.928c0.599,0,0.902,0.336,0.902,1c0,0.662-0.304,1-0.902,1
			c-0.276,0-0.5,0.224-0.5,0.5c0,0.276,0.224,0.5,0.5,0.5c0.599,0,0.902,0.336,0.902,1C10.497,15.104,10.193,15.441,9.595,15.441z"
			/>
		<path d="M14.558,16.376c1.498,0,2.504-1.381,2.504-3.435c0-2.055-1.006-3.435-2.504-3.435h-1.061c-0.276,0-0.5,0.224-0.497,0.5
			v5.87c-0.003,0.276,0.221,0.5,0.497,0.5H14.558z M14,10.506h0.558c1.11,0,1.504,1.312,1.504,2.435
			c0,1.123-0.394,2.435-1.504,2.435H14V10.506z"/>
	</g>
</g>
<g id="Invisible_Shape">
	<rect fill="none" width="24" height="24"/>
</g>
</svg>
