<?xml version="1.0" encoding="utf-8"?>
<!-- Generator: Adobe Illustrator 19.2.1, SVG Export Plug-In . SVG Version: 6.00 Build 0)  -->
<svg version="1.1" xmlns="http://www.w3.org/2000/svg" xmlns:xlink="http://www.w3.org/1999/xlink" x="0px" y="0px" width="24px"
	 height="24px" viewBox="0 0 24 24" enable-background="new 0 0 24 24" xml:space="preserve">
<g id="Filled_Icon">
	<g>
		<path d="M23.243,7.071l-5,3C18.092,10.162,18,10.324,18,10.5v5c0,0.176,0.092,0.338,0.243,0.429l5,3
			C23.58,19.129,24,18.886,24,18.5v-11C24,7.113,23.577,6.871,23.243,7.071z"/>
		<g>
			<path d="M3,8.162v9.34c0,0.827,0.673,1.5,1.5,1.498h9.382L3,8.162z"/>
			<path d="M17,17.837V8.5C17,7.673,16.327,7,15.5,7H6.122L17,17.837z"/>
		</g>
		<g>
			<path d="M18.042,21.748L0.251,3.957c-0.195-0.195-0.195-0.512,0-0.707s0.512-0.195,0.707,0l17.791,17.791
				c0.195,0.195,0.195,0.512,0,0.707C18.554,21.943,18.237,21.943,18.042,21.748z"/>
		</g>
	</g>
</g>
<g id="Invisible_Shape">
	<rect fill="none" width="24" height="24"/>
</g>
</svg>
