<?xml version="1.0" encoding="utf-8"?>
<!-- Generator: Adobe Illustrator 19.2.1, SVG Export Plug-In . SVG Version: 6.00 Build 0)  -->
<svg version="1.1" xmlns="http://www.w3.org/2000/svg" xmlns:xlink="http://www.w3.org/1999/xlink" x="0px" y="0px" width="24px"
	 height="24px" viewBox="0 0 24 24" enable-background="new 0 0 24 24" xml:space="preserve">
<g id="Filled_Icon">
	<g>
		<g>
			<path d="M16,11.08V1.5C16,0.673,15.327,0,14.5,0h-13C0.673,0,0,0.673,0,1.5v11C0,13.327,0.673,14,1.5,14h9.764
				C12.349,12.449,14.044,11.361,16,11.08z"/>
			<path d="M23.276,1.053l-6,3C17.107,4.138,17,4.311,17,4.5v5c0,0.189,0.107,0.362,0.276,0.447l6,3
				C23.612,13.114,24,12.868,24,12.5v-11C24,1.135,23.614,0.885,23.276,1.053z"/>
		</g>
		<path d="M17,12c-3.309,0-6,2.691-6,6s2.691,6,6,6s6-2.691,6-6S20.309,12,17,12z M14.821,20.899C14.496,21.171,14,20.938,14,20.516
			V15.5c0-0.421,0.494-0.656,0.82-0.384l3,2.5c0.241,0.203,0.237,0.57,0.001,0.768L14.821,20.899z M20.854,18.361l-2.5,2.508
			c-0.195,0.194-0.51,0.196-0.707,0c-0.195-0.195-0.196-0.511-0.001-0.707l2.148-2.155l-2.148-2.155
			c-0.195-0.195-0.194-0.512,0.001-0.707c0.196-0.194,0.512-0.194,0.707,0.001l2.5,2.508C21.049,17.85,21.049,18.166,20.854,18.361z
			"/>
	</g>
</g>
<g id="Invisible_Shape">
	<rect fill="none" width="24" height="24"/>
</g>
</svg>
