<?xml version="1.0" encoding="utf-8"?>
<!-- Generator: Adobe Illustrator 19.2.1, SVG Export Plug-In . SVG Version: 6.00 Build 0)  -->
<svg version="1.1" xmlns="http://www.w3.org/2000/svg" xmlns:xlink="http://www.w3.org/1999/xlink" x="0px" y="0px" width="24px"
	 height="24px" viewBox="0 0 24 24" enable-background="new 0 0 24 24" xml:space="preserve">
<g id="Filled_Icon">
	<g>
		<g>
			<path d="M16,11.08V1.5C16,0.673,15.327,0,14.5,0h-13C0.673,0,0,0.673,0,1.5v11C0,13.327,0.673,14,1.5,14h9.764
				C12.349,12.449,14.044,11.361,16,11.08z"/>
			<path d="M23.276,1.053l-6,3C17.107,4.138,17,4.311,17,4.5v5c0,0.189,0.107,0.362,0.276,0.447l6,3
				C23.612,13.114,24,12.868,24,12.5v-11C24,1.135,23.614,0.885,23.276,1.053z"/>
		</g>
		<path d="M17,12c-3.309,0-6,2.691-6,6s2.691,6,6,6s6-2.691,6-6S20.309,12,17,12z M20.274,18.437l-4.531,2.517
			C15.403,21.137,15,20.894,15,20.516V15.5c0-0.382,0.41-0.621,0.742-0.439l4.531,2.5C20.617,17.754,20.617,18.247,20.274,18.437z"
			/>
	</g>
</g>
<g id="Invisible_Shape">
	<rect fill="none" width="24" height="24"/>
</g>
</svg>
