<?xml version="1.0" encoding="utf-8"?>
<!-- Generator: Adobe Illustrator 19.2.1, SVG Export Plug-In . SVG Version: 6.00 Build 0)  -->
<svg version="1.1" xmlns="http://www.w3.org/2000/svg" xmlns:xlink="http://www.w3.org/1999/xlink" x="0px" y="0px" width="24px"
	 height="24px" viewBox="0 0 24 24" enable-background="new 0 0 24 24" xml:space="preserve">
<g id="Filled_Icon">
	<path d="M21.5,1h-19C1.122,1,0,2.122,0,3.5v17C0,21.878,1.122,23,2.5,23h19c1.378,0,2.5-1.122,2.5-2.5v-17
		C24,2.122,22.878,1,21.5,1z M8.5,9h-2C5.673,9,5,9.673,5,10.5v3C5,14.327,5.673,15,6.5,15h2c0.827,0,1.5-0.673,1.5-1.5
		c0-0.276,0.224-0.511,0.5-0.511s0.5,0.213,0.5,0.489C11,14.878,9.878,16,8.5,16h-2C5.122,16,4,14.878,4,13.5v-3
		C4,9.122,5.122,8,6.5,8h2C9.878,8,11,9.122,11,10.5c0,0.276-0.224,0.516-0.5,0.516S10,10.808,10,10.531V10.5
		C10,9.673,9.327,9,8.5,9z M17.5,9h-2C14.673,9,14,9.673,14,10.5v3c0,0.827,0.673,1.5,1.5,1.5h2c0.827,0,1.5-0.673,1.5-1.5
		c0-0.276,0.224-0.511,0.5-0.511s0.5,0.213,0.5,0.489c0,1.4-1.122,2.521-2.5,2.521h-2c-1.378,0-2.5-1.122-2.5-2.5v-3
		C13,9.122,14.122,8,15.5,8h2c1.378,0,2.5,1.122,2.5,2.5c0,0.276-0.224,0.516-0.5,0.516S19,10.808,19,10.531V10.5
		C19,9.673,18.327,9,17.5,9z"/>
</g>
<g id="Invisible_Shape">
	<rect fill="none" width="24" height="24"/>
</g>
</svg>
