<?xml version="1.0" encoding="utf-8"?>
<!-- Generator: Adobe Illustrator 19.2.1, SVG Export Plug-In . SVG Version: 6.00 Build 0)  -->
<svg version="1.1" xmlns="http://www.w3.org/2000/svg" xmlns:xlink="http://www.w3.org/1999/xlink" x="0px" y="0px" width="24px"
	 height="24px" viewBox="0 0 24 24" enable-background="new 0 0 24 24" xml:space="preserve">
<g id="Filled_Icon">
	<g>
		<g>
			<g>
				<path d="M11,18c0-3.86,3.14-7,7-7c2.548,0,4.775,1.373,6,3.413V7H0v13.1C0,21.148,0.869,22,1.938,22h10.326
					C11.47,20.865,11,19.487,11,18z"/>
			</g>
			<g>
				<polygon points="16.52,0 14.039,0 8.039,6 10.52,6 				"/>
				<polygon points="20.415,0 17.934,0 11.934,6 14.415,6 				"/>
				<polygon points="12.625,0 10.144,0 4.144,6 6.626,6 				"/>
				<polygon points="0.25,6 2.73,6 8.731,0 6.249,0 				"/>
				<polygon points="19.724,6 24,6 24,1.724 				"/>
				<path d="M4.835,0H1.5C0.673,0,0,0.673,0,1.5v3.335L4.835,0z"/>
				<path d="M23.7,0.609C23.194-0.068,22.643,0,21.829,0l-6,6h2.481L23.7,0.609z"/>
			</g>
		</g>
		<path d="M18,12c-3.309,0-6,2.691-6,6s2.691,6,6,6s6-2.691,6-6S21.309,12,18,12z M16,20.516c0,0.276-0.224,0.5-0.5,0.5
			s-0.5-0.224-0.5-0.5V15.5c0-0.276,0.224-0.5,0.5-0.5s0.5,0.224,0.5,0.5V20.516z M21,20.516c0,0.425-0.497,0.654-0.821,0.383
			l-3-2.516c-0.236-0.198-0.24-0.565,0.001-0.768l3-2.5C20.508,14.845,21,15.079,21,15.5V20.516z"/>
	</g>
</g>
<g id="Invisible_Shape">
	<rect fill="none" width="24" height="24"/>
</g>
</svg>
