<?xml version="1.0" encoding="utf-8"?>
<!-- Generator: Adobe Illustrator 19.2.1, SVG Export Plug-In . SVG Version: 6.00 Build 0)  -->
<svg version="1.1" xmlns="http://www.w3.org/2000/svg" xmlns:xlink="http://www.w3.org/1999/xlink" x="0px" y="0px" width="24px"
	 height="24px" viewBox="0 0 24 24" enable-background="new 0 0 24 24" xml:space="preserve">
<g id="Filled_Icon">
	<g>
		<rect x="4" y="19" width="10" height="1"/>
		<path d="M21.5,15h-19C1.122,15,0,16.122,0,17.5v3C0,21.879,1.122,23,2.5,23H3v0.5C3,23.776,3.224,24,3.5,24S4,23.776,4,23.5V23h16
			v0.5c0,0.276,0.224,0.5,0.5,0.5s0.5-0.224,0.5-0.5V23h0.5c1.378,0,2.5-1.121,2.5-2.5v-3C24,16.122,22.878,15,21.5,15z M15,20.5
			c0,0.276-0.224,0.5-0.5,0.5h-11C3.224,21,3,20.776,3,20.5v-2C3,18.224,3.224,18,3.5,18h11c0.276,0,0.5,0.224,0.5,0.5V20.5z
			 M17.5,19.5c-0.551,0-1-0.448-1-1c0-0.551,0.449-1,1-1s1,0.449,1,1C18.5,19.052,18.051,19.5,17.5,19.5z M20.5,19.5
			c-0.551,0-1-0.448-1-1c0-0.551,0.449-1,1-1s1,0.449,1,1C21.5,19.052,21.051,19.5,20.5,19.5z"/>
		<path d="M12,11.5c1.378,0,2.5-1.121,2.5-2.5c0-1.378-1.122-2.5-2.5-2.5S9.5,7.622,9.5,9C9.5,10.379,10.622,11.5,12,11.5z M12,7.5
			c0.827,0,1.5,0.673,1.5,1.5s-0.673,1.5-1.5,1.5S10.5,9.827,10.5,9S11.173,7.5,12,7.5z"/>
		<circle cx="12" cy="9" r="0.5"/>
		<path d="M3.943,14h16.113c0.189,0,0.362-0.106,0.447-0.276c0.661-1.32,0.997-2.742,0.997-4.224C21.5,4.262,17.238,0,12,0
			S2.5,4.262,2.5,9.5c0,1.481,0.335,2.903,0.997,4.224C3.581,13.894,3.754,14,3.943,14z M12,2.5c3.585,0,6.5,2.916,6.5,6.5
			c0,0.276-0.224,0.5-0.5,0.5S17.5,9.276,17.5,9c0-3.032-2.467-5.5-5.5-5.5c-0.276,0-0.5-0.224-0.5-0.5S11.724,2.5,12,2.5z M12,5.5
			c1.93,0,3.5,1.57,3.5,3.5s-1.57,3.5-3.5,3.5S8.5,10.93,8.5,9S10.07,5.5,12,5.5z"/>
	</g>
</g>
<g id="Invisible_Shape">
	<rect fill="none" width="24" height="24"/>
</g>
</svg>
