<?xml version="1.0" encoding="utf-8"?>
<!-- Generator: Adobe Illustrator 19.2.1, SVG Export Plug-In . SVG Version: 6.00 Build 0)  -->
<svg version="1.1" xmlns="http://www.w3.org/2000/svg" xmlns:xlink="http://www.w3.org/1999/xlink" x="0px" y="0px" width="24px"
	 height="24px" viewBox="0 0 24 24" enable-background="new 0 0 24 24" xml:space="preserve">
<g id="Filled_Icon">
	<path d="M20.5,0h-17C3.224,0,3,0.224,3,0.5v23C3,23.776,3.224,24,3.5,24h17c0.276,0,0.5-0.224,0.5-0.5v-23
		C21,0.224,20.776,0,20.5,0z M7,21.5C7,21.776,6.776,22,6.5,22h-1C5.224,22,5,21.776,5,21.5v-1C5,20.224,5.224,20,5.5,20h1
		C6.776,20,7,20.224,7,20.5V21.5z M7,17.5C7,17.776,6.776,18,6.5,18h-1C5.224,18,5,17.776,5,17.5v-1C5,16.224,5.224,16,5.5,16h1
		C6.776,16,7,16.224,7,16.5V17.5z M7,14.5C7,14.776,6.776,15,6.5,15h-1C5.224,15,5,14.776,5,14.5v-1C5,13.224,5.224,13,5.5,13h1
		C6.776,13,7,13.224,7,13.5V14.5z M7,10.5C7,10.776,6.776,11,6.5,11h-1C5.224,11,5,10.776,5,10.5v-1C5,9.224,5.224,9,5.5,9h1
		C6.776,9,7,9.224,7,9.5V10.5z M7,7.5C7,7.776,6.776,8,6.5,8h-1C5.224,8,5,7.776,5,7.5v-1C5,6.224,5.224,6,5.5,6h1
		C6.776,6,7,6.224,7,6.5V7.5z M7,3.5C7,3.776,6.776,4,6.5,4h-1C5.224,4,5,3.776,5,3.5v-1C5,2.224,5.224,2,5.5,2h1
		C6.776,2,7,2.224,7,2.5V3.5z M16,21.5c0,0.276-0.224,0.5-0.5,0.5h-7C8.224,22,8,21.776,8,21.5v-5C8,16.224,8.224,16,8.5,16h7
		c0.276,0,0.5,0.224,0.5,0.5V21.5z M16,14.5c0,0.276-0.224,0.5-0.5,0.5h-7C8.224,15,8,14.776,8,14.5v-5C8,9.224,8.224,9,8.5,9h7
		C15.776,9,16,9.224,16,9.5V14.5z M16,7.5C16,7.776,15.776,8,15.5,8h-7C8.224,8,8,7.776,8,7.5v-5C8,2.224,8.224,2,8.5,2h7
		C15.776,2,16,2.224,16,2.5V7.5z M19,21.5c0,0.276-0.224,0.5-0.5,0.5h-1c-0.276,0-0.5-0.224-0.5-0.5v-1c0-0.276,0.224-0.5,0.5-0.5h1
		c0.276,0,0.5,0.224,0.5,0.5V21.5z M19,17.5c0,0.276-0.224,0.5-0.5,0.5h-1c-0.276,0-0.5-0.224-0.5-0.5v-1c0-0.276,0.224-0.5,0.5-0.5
		h1c0.276,0,0.5,0.224,0.5,0.5V17.5z M19,14.5c0,0.276-0.224,0.5-0.5,0.5h-1c-0.276,0-0.5-0.224-0.5-0.5v-1
		c0-0.276,0.224-0.5,0.5-0.5h1c0.276,0,0.5,0.224,0.5,0.5V14.5z M19,10.5c0,0.276-0.224,0.5-0.5,0.5h-1c-0.276,0-0.5-0.224-0.5-0.5
		v-1C17,9.224,17.224,9,17.5,9h1C18.776,9,19,9.224,19,9.5V10.5z M19,7.5C19,7.776,18.776,8,18.5,8h-1C17.224,8,17,7.776,17,7.5v-1
		C17,6.224,17.224,6,17.5,6h1C18.776,6,19,6.224,19,6.5V7.5z M19,3.5C19,3.776,18.776,4,18.5,4h-1C17.224,4,17,3.776,17,3.5v-1
		C17,2.224,17.224,2,17.5,2h1C18.776,2,19,2.224,19,2.5V3.5z"/>
</g>
<g id="Invisible_Shape">
	<rect fill="none" width="24" height="24"/>
</g>
</svg>
