<?xml version="1.0" encoding="utf-8"?>
<!-- Generator: Adobe Illustrator 19.2.1, SVG Export Plug-In . SVG Version: 6.00 Build 0)  -->
<svg version="1.1" xmlns="http://www.w3.org/2000/svg" xmlns:xlink="http://www.w3.org/1999/xlink" x="0px" y="0px" width="24px"
	 height="24px" viewBox="0 0 24 24" enable-background="new 0 0 24 24" xml:space="preserve">
<g id="Filled_Icon">
	<g>
		<circle cx="5.5" cy="5.5" r="2.5"/>
		<g>
			<path d="M4,12.5C4,11.688,3.466,11,2.835,11H0v8.5c0,2.31,1.757,4.197,4,4.449V12.5z"/>
			<path d="M21.5,2h-9C12.224,2,12,2.224,12,2.5V6h-1V4.5C11,2.019,8.981,0,6.5,0h-2C2.019,0,0,2.019,0,4.5V10h2.835
				C4.028,10,5,11.122,5,12.5V24h3.5C8.776,24,9,23.776,9,23.5v-11h1.5c0.276,0,0.5-0.224,0.5-0.5V7h1v3.5
				c0,0.276,0.224,0.5,0.5,0.5h9c1.378,0,2.5-1.121,2.5-2.5v-4C24,3.122,22.878,2,21.5,2z M5.5,9C3.57,9,2,7.43,2,5.5S3.57,2,5.5,2
				S9,3.57,9,5.5S7.43,9,5.5,9z"/>
		</g>
	</g>
</g>
<g id="Invisible_Shape">
	<rect fill="none" width="24" height="24"/>
</g>
</svg>
