<?xml version="1.0" encoding="utf-8"?>
<!-- Generator: Adobe Illustrator 19.2.1, SVG Export Plug-In . SVG Version: 6.00 Build 0)  -->
<svg version="1.1" xmlns="http://www.w3.org/2000/svg" xmlns:xlink="http://www.w3.org/1999/xlink" x="0px" y="0px" width="24px"
	 height="24px" viewBox="0 0 24 24" enable-background="new 0 0 24 24" xml:space="preserve">
<g id="Filled_Icon">
	<g>
		<path d="M17.5,3h-11C6.224,3,6,3.224,6,3.5v9C6,12.776,6.224,13,6.5,13h11c0.276,0,0.5-0.224,0.5-0.5v-9C18,3.224,17.776,3,17.5,3
			z M10,9C8.897,9,8,8.102,8,7c0-1.103,0.897-2,2-2s2,0.897,2,2C12,8.102,11.103,9,10,9z M15.5,11h-2c-0.276,0-0.5-0.224-0.5-0.5
			s0.224-0.5,0.5-0.5h2c0.276,0,0.5,0.224,0.5,0.5S15.776,11,15.5,11z"/>
		<g>
			<path d="M6,14v6c0,1.103,0.897,2,2,2s2-0.897,2-2v-2.5c0-1.104,0.897-2,2-2c0.93,0,1.706-0.64,1.929-1.5H6z"/>
		</g>
		<g>
			<path d="M5,6H2.883L2.429,5.243C2.338,5.093,2.176,5,2,5H0.5C0.224,5,0,5.224,0,5.5v5C0,10.776,0.224,11,0.5,11H2
				c0.176,0,0.338-0.092,0.429-0.243L2.883,10H5V6z"/>
		</g>
		<g>
			<path d="M23.342,4.026L20.419,5H19v4h1.419l2.922,0.974C23.66,10.082,24,9.844,24,9.5v-5C24,4.153,23.656,3.917,23.342,4.026z"/>
		</g>
	</g>
</g>
<g id="Invisible_Shape">
	<rect fill="none" width="24" height="24"/>
</g>
</svg>
