<?xml version="1.0" encoding="utf-8"?>
<!-- Generator: Adobe Illustrator 19.2.1, SVG Export Plug-In . SVG Version: 6.00 Build 0)  -->
<svg version="1.1" xmlns="http://www.w3.org/2000/svg" xmlns:xlink="http://www.w3.org/1999/xlink" x="0px" y="0px" width="24px"
	 height="24px" viewBox="0 0 24 24" enable-background="new 0 0 24 24" xml:space="preserve">
<g id="Filled_Icon">
	<g>
		<path d="M20.207,7l-2,2C21.596,9,20.55,9,24,9V7C22.743,7,21.894,7,20.207,7z"/>
		<path d="M7,6C5.22,3.626,5.702,4.269,4.751,3H0.5C0.224,3,0,3.224,0,3.5V6C2.576,6,4.357,6,7,6z"/>
		<path d="M14.25,6H19c-1.78-2.374-1.298-1.731-2.25-3H12C13.345,4.794,11.141,1.855,14.25,6z"/>
		<path d="M0,10v10.5C0,20.776,0.224,21,0.5,21h23c0.276,0,0.5-0.224,0.5-0.5V10C2.07,10,9.045,10,0,10z M12,13.5
			c0-0.276,0.224-0.5,0.5-0.5s0.5,0.224,0.5,0.5v2c0,0.276-0.224,0.5-0.5,0.5S12,15.776,12,15.5V13.5z M3.5,17h17
			c0.276,0,0.5,0.224,0.5,0.5S20.776,18,20.5,18h-17C3.224,18,3,17.776,3,17.5S3.224,17,3.5,17z"/>
		<path d="M8.25,6H13c-1.78-2.374-1.298-1.731-2.25-3H5.999C7.345,4.794,5.141,1.855,8.25,6z"/>
		<polygon points="18.793,7 14.207,7 12.207,9 16.793,9 		"/>
		<path d="M4.793,9l2-2C4.215,7,2.575,7,0,7v2C2.009,9,1.767,9,4.793,9z"/>
		<polygon points="6.207,9 10.793,9 12.793,7 8.207,7 		"/>
		<path d="M23.5,3H18c1.346,1.794-0.858-1.145,2.25,3C22.36,6,23.135,6,24,6V3.5C24,3.224,23.776,3,23.5,3z"/>
	</g>
</g>
<g id="Invisible_Shape">
	<rect fill="none" width="24" height="24"/>
</g>
</svg>
