<?xml version="1.0" encoding="utf-8"?>
<!-- Generator: Adobe Illustrator 19.2.1, SVG Export Plug-In . SVG Version: 6.00 Build 0)  -->
<svg version="1.1" xmlns="http://www.w3.org/2000/svg" xmlns:xlink="http://www.w3.org/1999/xlink" x="0px" y="0px" width="24px"
	 height="24px" viewBox="0 0 24 24" enable-background="new 0 0 24 24" xml:space="preserve">
<g id="Filled_Icon">
	<path d="M20.5,18h-17C2.673,18,2,17.327,2,16.5C2,15.673,2.673,15,3.5,15h6.534c1.479,1.246,3.385,2,5.466,2
		c4.687,0,8.5-3.812,8.5-8.5C24,3.813,20.187,0,15.5,0S7,3.813,7,8.5c0,1.654,0.482,3.193,1.302,4.5H3.5C1.57,13,0,14.57,0,16.5
		S1.57,20,3.5,20h17c0.551,0,1,0.449,1,1c0,0.552-0.449,1-1,1h-10c-0.552,0-1,0.448-1,1c0,0.553,0.448,1,1,1h10c1.654,0,3-1.346,3-3
		S22.154,18,20.5,18z M17.915,14.513c-1.551,0.619-3.267,0.526-4.876-0.041c-0.268-0.095-0.4-0.391-0.301-0.65l0.955-2.5
		c0.112-0.289,0.457-0.411,0.726-0.249c0.64,0.386,1.426,0.409,2.229,0.077c0.254-0.106,0.553,0.016,0.656,0.278l0.934,2.362
		C18.389,14.072,18.229,14.436,17.915,14.513z M13.5,8.5c0-1.102,0.898-2,2-2c1.103,0,2,0.898,2,2c0,1.104-0.897,2-2,2
		C14.398,10.5,13.5,9.604,13.5,8.5z M20.784,5.765c0.294-0.159,0.65,0.004,0.728,0.319c0.735,1.845,0.386,3.667-0.04,4.877
		c-0.095,0.27-0.396,0.402-0.65,0.302l-2.5-0.956c-0.29-0.11-0.411-0.457-0.25-0.725c0.49-0.812,0.312-1.66,0.077-2.229
		c-0.108-0.261,0.02-0.556,0.278-0.656L20.784,5.765z M13.095,2.48c0.007-0.001,0.014-0.003,0.021-0.004
		c1.45-0.567,3.146-0.546,4.845,0.053c0.274,0.097,0.405,0.403,0.295,0.665L17.3,5.481c-0.121,0.288-0.47,0.394-0.729,0.231
		c-0.719-0.276-1.515-0.27-2.22,0.022c-0.255,0.105-0.547-0.016-0.653-0.27L12.766,3.22C12.609,2.935,12.755,2.556,13.095,2.48z
		 M9.528,6.039c0.095-0.267,0.393-0.4,0.65-0.301l2.5,0.955c0.295,0.114,0.41,0.463,0.25,0.726c-0.49,0.812-0.312,1.661-0.077,2.23
		c0.105,0.257-0.016,0.551-0.278,0.656l-2.361,0.933c-0.283,0.154-0.647-0.007-0.725-0.322C8.752,9.072,9.102,7.25,9.528,6.039z"/>
</g>
<g id="Invisible_Shape">
	<rect fill="none" width="24" height="24"/>
</g>
</svg>
