<?xml version="1.0" encoding="utf-8"?>
<!-- Generator: Adobe Illustrator 19.2.1, SVG Export Plug-In . SVG Version: 6.00 Build 0)  -->
<svg version="1.1" xmlns="http://www.w3.org/2000/svg" xmlns:xlink="http://www.w3.org/1999/xlink" x="0px" y="0px" width="24px"
	 height="24px" viewBox="0 0 24 24" enable-background="new 0 0 24 24" xml:space="preserve">
<g id="Filled_Icon">
	<g>
		<path d="M22.5,2h-21C0.673,2,0,2.673,0,3.5v15C0,19.327,0.673,20,1.5,20H10v2H7c-0.276,0-0.5,0.224-0.5,0.5S6.724,23,7,23
			c3.759,0,6.681,0,10,0c0.276,0,0.5-0.224,0.5-0.5S17.276,22,17,22h-3v-2h8.5c0.827,0,1.5-0.673,1.5-1.5v-15
			C24,2.673,23.327,2,22.5,2z M8,12c0,1.654-1.346,3-3,3s-3-1.346-3-3V7c0-0.552,0.448-1,1-1s1,0.448,1,1v5c0,0.551,0.449,1,1,1
			s1-0.449,1-1V7c0-0.552,0.448-1,1-1s1,0.448,1,1V12z M15,14c0,0.552-0.448,1-1,1s-1-0.448-1-1v-3h-2v3c0,0.552-0.448,1-1,1
			s-1-0.448-1-1V7c0-0.552,0.448-1,1-1s1,0.448,1,1v2h2V7c0-0.552,0.448-1,1-1s1,0.448,1,1V14z M17,15c-0.552,0-1-0.448-1-1V7
			c0-0.552,0.448-1,1-1c1.582,0,5-0.521,5,4.5C22,15.465,18.827,15,17,15z"/>
		<path d="M18,8v5c1,0,2,0.199,2-2.5C20,7.856,19,8,18,8z"/>
	</g>
</g>
<g id="Invisible_Shape">
	<rect fill="none" width="24" height="24"/>
</g>
</svg>
