<?xml version="1.0" encoding="utf-8"?>
<!-- Generator: Adobe Illustrator 19.2.1, SVG Export Plug-In . SVG Version: 6.00 Build 0)  -->
<svg version="1.1" xmlns="http://www.w3.org/2000/svg" xmlns:xlink="http://www.w3.org/1999/xlink" x="0px" y="0px" width="24px"
	 height="24px" viewBox="0 0 24 24" enable-background="new 0 0 24 24" xml:space="preserve">
<g id="Filled_Icon">
	<g>
		<path d="M22.5,2h-21C0.673,2,0,2.673,0,3.5v15C0,19.327,0.673,20,1.5,20H10v2H7c-0.276,0-0.5,0.224-0.5,0.5S6.724,23,7,23
			c3.759,0,6.681,0,10,0c0.276,0,0.5-0.224,0.5-0.5S17.276,22,17,22h-3v-2h8.5c0.827,0,1.5-0.673,1.5-1.5v-15
			C24,2.673,23.327,2,22.5,2z M11,14h-1v1.5c0,0.276-0.224,0.5-0.5,0.5S9,15.776,9,15.5V14H6c-0.384,0-0.627-0.417-0.432-0.752
			l3.5-6C9.322,6.812,10,6.988,10,7.5V13h1c0.276,0,0.5,0.224,0.5,0.5S11.276,14,11,14z M17.854,15.146
			c0.195,0.195,0.195,0.512,0,0.707c-0.195,0.195-0.512,0.195-0.707,0L14,12.707V15.5c0,0.276-0.224,0.5-0.5,0.5S13,15.776,13,15.5
			v-8C13,7.224,13.224,7,13.5,7S14,7.224,14,7.5v2.793l3.146-3.147c0.195-0.195,0.512-0.195,0.707,0
			c0.195,0.195,0.195,0.512,0,0.707L14.207,11.5L17.854,15.146z"/>
		<polygon points="9,13 9,9.35 6.871,13 		"/>
	</g>
</g>
<g id="Invisible_Shape">
	<rect fill="none" width="24" height="24"/>
</g>
</svg>
