<?xml version="1.0" encoding="utf-8"?>
<!-- Generator: Adobe Illustrator 19.2.1, SVG Export Plug-In . SVG Version: 6.00 Build 0)  -->
<svg version="1.1" xmlns="http://www.w3.org/2000/svg" xmlns:xlink="http://www.w3.org/1999/xlink" x="0px" y="0px" width="24px"
	 height="24px" viewBox="0 0 24 24" enable-background="new 0 0 24 24" xml:space="preserve">
<g id="Filled_Icon">
	<g>
		<circle cx="8.5" cy="9.5" r="1.5"/>
		<circle cx="8.5" cy="13.5" r="1.5"/>
		<path d="M22.5,2h-21C0.673,2,0,2.673,0,3.5v15C0,19.327,0.673,20,1.5,20H10v2H7c-0.276,0-0.5,0.224-0.5,0.5S6.724,23,7,23
			c3.759,0,6.681,0,10,0c0.276,0,0.5-0.224,0.5-0.5S17.276,22,17,22h-3v-2h8.5c0.827,0,1.5-0.673,1.5-1.5v-15
			C24,2.673,23.327,2,22.5,2z M11,13.5c0,1.378-1.122,2.5-2.5,2.5S6,14.878,6,13.5c0-0.821,0.403-1.544,1.016-2
			C6.403,11.044,6,10.321,6,9.5C6,8.122,7.122,7,8.5,7S11,8.122,11,9.5c0,0.821-0.403,1.544-1.016,2
			C10.597,11.956,11,12.679,11,13.5z M17.857,15.15c0.193,0.198,0.189,0.515-0.008,0.707c-0.197,0.193-0.514,0.189-0.707-0.008
			L14,12.635V15.5c0,0.276-0.224,0.5-0.5,0.5S13,15.776,13,15.5v-8C13,7.224,13.224,7,13.5,7S14,7.224,14,7.5v2.72l3.15-3.078
			c0.199-0.192,0.515-0.188,0.708,0.008c0.193,0.198,0.189,0.515-0.008,0.708l-3.643,3.558L17.857,15.15z"/>
	</g>
</g>
<g id="Invisible_Shape">
	<rect fill="none" width="24" height="24"/>
</g>
</svg>
