<?xml version="1.0" encoding="utf-8"?>
<!-- Generator: Adobe Illustrator 19.2.1, SVG Export Plug-In . SVG Version: 6.00 Build 0)  -->
<svg version="1.1" xmlns="http://www.w3.org/2000/svg" xmlns:xlink="http://www.w3.org/1999/xlink" x="0px" y="0px" width="24px"
	 height="24px" viewBox="0 0 24 24" enable-background="new 0 0 24 24" xml:space="preserve">
<g id="Filled_Icon">
	<g>
		<path d="M23.5,8h-0.732l-2.079-2.815c1.105-1.576,0.911-3.684-0.444-5.038c-0.195-0.195-0.512-0.195-0.707,0l-2.1,2.101
			l-1.454-1.454c-0.195-0.195-0.512-0.195-0.707,0c-0.195,0.195-0.195,0.512,0,0.707l1.454,1.454l-2.063,2.064
			c-0.194,0.194-0.196,0.511,0,0.707c0.949,0.948,2.279,1.344,3.581,1.077L17.363,8H9.5C9.224,8,9,8.224,9,8.5V10v9h7.559
			c1.365-1.335,3.52-1.332,4.883,0c1.061,0,1.511,0,2.559,0c0-6.456,0-7.511,0-10.5C24,8.182,23.786,8,23.5,8z M14.723,12H14v4.5
			c0,0.276-0.224,0.5-0.5,0.5S13,16.776,13,16.5V12h-0.723c-0.276,0-0.5-0.224-0.5-0.5s0.224-0.5,0.5-0.5h2.445
			c0.276,0,0.5,0.224,0.5,0.5S14.999,12,14.723,12z M20.745,11.525l-1.445,5.111c-0.136,0.484-0.826,0.484-0.962,0l-1.445-5.111
			c-0.075-0.266,0.079-0.542,0.345-0.617c0.267-0.077,0.542,0.079,0.617,0.345l0.964,3.41l0.964-3.41
			c0.075-0.267,0.349-0.423,0.617-0.345C20.666,10.983,20.82,11.259,20.745,11.525z"/>
		<circle cx="19" cy="21.5" r="2.5"/>
		<path d="M8.149,20c0.349,0.73,0.398,1.339,0.3,2h7.102c-0.098-0.661-0.049-1.27,0.3-2C13.156,20,10.878,20,8.149,20z"/>
		<path d="M4.563,10.257l-2.466,4.439l-1.95,1.95C0.053,16.74,0,16.867,0,17v2c1.048,0,1.498,0,2.559,0
			c1.365-1.335,3.52-1.332,4.883,0H8v-9H5C4.818,10,4.651,10.099,4.563,10.257z M7,12.5C7,12.776,6.776,13,6.5,13H5.309
			l-1.362,2.724c-0.123,0.245-0.421,0.348-0.671,0.224c-0.247-0.124-0.347-0.424-0.224-0.671l1.5-3C4.638,12.107,4.811,12,5,12h1.5
			C6.776,12,7,12.224,7,12.5z"/>
		<path d="M0,20v1.5C0,21.776,0.224,22,0.5,22h1.051c-0.098-0.661-0.049-1.27,0.3-2C1.212,20,0.726,20,0,20z"/>
		<circle cx="5" cy="21.5" r="2.5"/>
	</g>
</g>
<g id="Invisible_Shape">
	<rect fill="none" width="24" height="24"/>
</g>
</svg>
