<?xml version="1.0" encoding="utf-8"?>
<!-- Generator: Adobe Illustrator 19.2.1, SVG Export Plug-In . SVG Version: 6.00 Build 0)  -->
<svg version="1.1" xmlns="http://www.w3.org/2000/svg" xmlns:xlink="http://www.w3.org/1999/xlink" x="0px" y="0px" width="24px"
	 height="24px" viewBox="0 0 24 24" enable-background="new 0 0 24 24" xml:space="preserve">
<g id="Filled_Icon">
	<path d="M22.5,6h-5.191l2.638-5.276c0.124-0.247,0.023-0.547-0.224-0.671c-0.246-0.124-0.547-0.023-0.671,0.224L16.5,5.382
		l-2.553-5.105c-0.124-0.247-0.424-0.347-0.671-0.224c-0.247,0.124-0.347,0.424-0.224,0.671L15.691,6H1.5C1.224,6,1,6.224,1,6.5v14
		C1,20.776,1.224,21,1.5,21h3.793l-2.147,2.146c-0.195,0.195-0.195,0.512,0,0.707c0.195,0.195,0.512,0.195,0.707,0L6.707,21h10.586
		l2.854,2.854c0.195,0.195,0.512,0.195,0.707,0c0.195-0.195,0.195-0.512,0-0.707L18.707,21H22.5c0.276,0,0.5-0.224,0.5-0.5v-14
		C23,6.224,22.776,6,22.5,6z M20,18c0,0.249-0.183,0.46-0.429,0.495c-4.852,0.665-10.29,0.665-15.142,0C4.183,18.46,4,18.249,4,18V9
		c0-0.249,0.183-0.46,0.429-0.495c4.852-0.664,10.29-0.665,15.142,0C19.817,8.54,20,8.751,20,9V18z"/>
</g>
<g id="Invisible_Shape">
	<rect fill="none" width="24" height="24"/>
</g>
</svg>
