<?xml version="1.0" encoding="utf-8"?>
<!-- Generator: Adobe Illustrator 19.2.1, SVG Export Plug-In . SVG Version: 6.00 Build 0)  -->
<svg version="1.1" xmlns="http://www.w3.org/2000/svg" xmlns:xlink="http://www.w3.org/1999/xlink" x="0px" y="0px" width="24px"
	 height="24px" viewBox="0 0 24 24" enable-background="new 0 0 24 24" xml:space="preserve">
<g id="Filled_Icon">
	<g>
		<g>
			<path d="M22.5,6h-9.293l5.147-5.147c0.195-0.195,0.195-0.512,0-0.707c-0.195-0.195-0.512-0.195-0.707,0L12,5.793L6.353,0.147
				c-0.195-0.195-0.512-0.195-0.707,0s-0.195,0.512,0,0.707L10.793,6H1.5C1.224,6,1,6.224,1,6.5v15C1,21.776,1.224,22,1.5,22H3v1.5
				C3,23.776,3.224,24,3.5,24S4,23.776,4,23.5V22h16v1.5c0,0.276,0.224,0.5,0.5,0.5s0.5-0.224,0.5-0.5V22h1.5
				c0.276,0,0.5-0.224,0.5-0.5v-15C23,6.224,22.776,6,22.5,6z M20,16.5c0,1.93-1.57,3.5-3.5,3.5h-9C5.57,20,4,18.43,4,16.5v-5
				C4,9.57,5.57,8,7.5,8h9c1.93,0,3.5,1.57,3.5,3.5V16.5z"/>
		</g>
		<g>
			<path d="M7,13.5c-0.276,0-0.5-0.224-0.5-0.5c0-1.378,1.122-2.5,2.5-2.5c0.276,0,0.5,0.224,0.5,0.5S9.276,11.5,9,11.5
				c-0.827,0-1.5,0.673-1.5,1.5C7.5,13.276,7.276,13.5,7,13.5z"/>
		</g>
	</g>
</g>
<g id="Invisible_Shape">
	<rect fill="none" width="24" height="24"/>
</g>
</svg>
