<?xml version="1.0" encoding="utf-8"?>
<!-- Generator: Adobe Illustrator 19.2.1, SVG Export Plug-In . SVG Version: 6.00 Build 0)  -->
<svg version="1.1" xmlns="http://www.w3.org/2000/svg" xmlns:xlink="http://www.w3.org/1999/xlink" x="0px" y="0px" width="24px"
	 height="24px" viewBox="0 0 24 24" enable-background="new 0 0 24 24" xml:space="preserve">
<g id="Filled_Icon">
	<g>
		<path d="M0,21.101C0,22.148,0.869,23,1.938,23h20.125C23.131,23,24,22.148,24,21.101V8H0V21.101z M8,11.5
			c0-0.369,0.39-0.613,0.724-0.447l8,4c0.367,0.185,0.367,0.71,0,0.895l-8,4C8.388,20.114,8,19.869,8,19.5V11.5z"/>
		<polygon points="10.293,7 16.294,1 13.708,1 7.707,7 		"/>
		<path d="M18.294,7l5.399-5.398C23.167,0.904,22.553,1,21.708,1l-6,6H18.294z"/>
		<polygon points="6.293,7 12.293,1 9.708,1 3.707,7 		"/>
		<path d="M1.5,1C0.673,1,0,1.674,0,2.501v3.293L4.794,1H1.5z"/>
		<polygon points="2.293,7 8.293,1 6.208,1 0.208,7 		"/>
		<polygon points="14.293,7 20.294,1 17.708,1 11.708,7 		"/>
		<polygon points="19.708,7 24,7 24,2.708 		"/>
	</g>
</g>
<g id="Invisible_Shape">
	<rect fill="none" width="24" height="24"/>
</g>
</svg>
