<?xml version="1.0" encoding="utf-8"?>
<!-- Generator: Adobe Illustrator 19.2.1, SVG Export Plug-In . SVG Version: 6.00 Build 0)  -->
<svg version="1.1" xmlns="http://www.w3.org/2000/svg" xmlns:xlink="http://www.w3.org/1999/xlink" x="0px" y="0px" width="24px"
	 height="24px" viewBox="0 0 24 24" enable-background="new 0 0 24 24" xml:space="preserve">
<g id="Filled_Icon">
	<g>
		<circle cx="6" cy="14" r="1"/>
		<circle cx="13" cy="14" r="1"/>
		<path d="M22.562,10.35L18,12.25V10.5C18,9.673,17.327,9,16.5,9H16V6.5C16,6.225,16.224,6,16.5,6h1.592
			c0.207,0.581,0.757,1,1.408,1h3C23.327,7,24,6.327,24,5.5S23.327,4,22.5,4h-3c-0.651,0-1.201,0.42-1.408,1H16.5
			C15.673,5,15,5.673,15,6.5V9h-3V7.5C12,6.673,11.327,6,10.5,6L0.503,6.001c-0.276,0-0.5,0.224-0.5,0.5C0.003,6.777,0.224,7,0.5,7
			h10C10.776,7,11,7.225,11,7.5V9H2.5C1.673,9,1,9.673,1,10.5v8C1,19.327,1.673,20,2.5,20h14c0.827,0,1.5-0.673,1.5-1.5v-1.75
			l4.562,1.901C23.24,18.935,24,18.437,24,17.692v-6.385C24,10.569,23.245,10.062,22.562,10.35z M13,16c-1.102,0-2-0.896-2-2
			c0-0.365,0.106-0.704,0.278-1H7.722C7.894,13.296,8,13.635,8,14c0,1.104-0.897,2-2,2c-1.102,0-2-0.896-2-2c0-1.102,0.898-2,2-2h7
			c1.103,0,2,0.898,2,2C15,15.104,14.103,16,13,16z"/>
	</g>
</g>
<g id="Invisible_Shape">
	<rect fill="none" width="24" height="24"/>
</g>
</svg>
