<?xml version="1.0" encoding="utf-8"?>
<!-- Generator: Adobe Illustrator 19.2.1, SVG Export Plug-In . SVG Version: 6.00 Build 0)  -->
<svg version="1.1" xmlns="http://www.w3.org/2000/svg" xmlns:xlink="http://www.w3.org/1999/xlink" x="0px" y="0px" width="24px"
	 height="24px" viewBox="0 0 24 24" enable-background="new 0 0 24 24" xml:space="preserve">
<g id="Filled_Icon">
	<g>
		<circle cx="6.5" cy="5.5" r="5.5"/>
		<circle cx="16.5" cy="7.5" r="3.5"/>
		<path d="M15.5,12h-10C5.224,12,5,12.224,5,12.5v7C5,19.776,5.224,20,5.5,20h4.293l-3.147,3.146c-0.195,0.195-0.195,0.512,0,0.707
			c0.195,0.195,0.512,0.195,0.707,0L11,20.207l3.646,3.646c0.195,0.195,0.512,0.195,0.707,0c0.195-0.195,0.195-0.512,0-0.707
			L12.207,20H15.5c0.276,0,0.5-0.224,0.5-0.5v-7C16,12.224,15.776,12,15.5,12z"/>
		<path d="M19.342,13.526L17,14.307v3.387l2.342,0.781C19.66,18.582,20,18.345,20,18v-4C20,13.659,19.665,13.416,19.342,13.526z"/>
	</g>
</g>
<g id="Invisible_Shape">
	<rect fill="none" width="24" height="24"/>
</g>
</svg>
