<?xml version="1.0" encoding="utf-8"?>
<!-- Generator: Adobe Illustrator 19.2.1, SVG Export Plug-In . SVG Version: 6.00 Build 0)  -->
<svg version="1.1" xmlns="http://www.w3.org/2000/svg" xmlns:xlink="http://www.w3.org/1999/xlink" x="0px" y="0px" width="24px"
	 height="24px" viewBox="0 0 24 24" enable-background="new 0 0 24 24" xml:space="preserve">
<g id="Filled_Icon">
	<g>
		<path d="M22.384,12.424L18,14.25V12.5c0-0.827-0.673-1.5-1.5-1.5h-14C1.673,11,1,11.673,1,12.5v8C1,21.327,1.673,22,2.5,22h14
			c0.827,0,1.5-0.673,1.5-1.5v-1.75l4.385,1.827C23.216,20.925,24,20.408,24,19.5v-6C24,12.598,23.225,12.074,22.384,12.424z
			 M14.5,15h-10C4.224,15,4,14.776,4,14.5S4.224,14,4.5,14h10c0.276,0,0.5,0.224,0.5,0.5S14.776,15,14.5,15z"/>
		<circle cx="4.5" cy="5.5" r="4.5"/>
		<circle cx="13" cy="7" r="3"/>
	</g>
</g>
<g id="Invisible_Shape">
	<rect fill="none" width="24" height="24"/>
</g>
</svg>
