<?xml version="1.0" encoding="utf-8"?>
<!-- Generator: Adobe Illustrator 16.0.3, SVG Export Plug-In . SVG Version: 6.00 Build 0)  -->
<!DOCTYPE svg PUBLIC "-//W3C//DTD SVG 1.1//EN" "http://www.w3.org/Graphics/SVG/1.1/DTD/svg11.dtd">
<svg version="1.1" xmlns="http://www.w3.org/2000/svg" xmlns:xlink="http://www.w3.org/1999/xlink" x="0px" y="0px" width="24px"
	 height="24px" viewBox="0 0 24 24" enable-background="new 0 0 24 24" xml:space="preserve">
<g id="Outline_Icons">
	<g>
		<polyline fill="none" stroke="#000000" stroke-linecap="round" stroke-linejoin="round" stroke-miterlimit="10" points="9.5,20.5 
			0.5,20.5 0.5,0.5 19.5,0.5 19.5,9.5 		"/>
		<g>
			<g>
				<path d="M4,1.5V3V1.5 M5,0.5H3V4h2V0.5L5,0.5z"/>
			</g>
		</g>
		<g>
			<g>
				<path d="M8,1.5V3V1.5 M9,0.5H7V4h2V0.5L9,0.5z"/>
			</g>
		</g>
		<g>
			<g>
				<path d="M16,1.5V3V1.5 M17,0.5h-2V4h2V0.5L17,0.5z"/>
			</g>
		</g>
		<g>
			<g>
				<path d="M12,1.5V3V1.5 M13,0.5h-2V4h2V0.5L13,0.5z"/>
			</g>
		</g>
		
			<line fill="none" stroke="#000000" stroke-linecap="round" stroke-linejoin="round" stroke-miterlimit="10" x1="11.5" y1="23.5" x2="18.459" y2="16.543"/>
		<path fill="none" stroke="#000000" stroke-linecap="round" stroke-linejoin="round" stroke-miterlimit="10" d="M16.646,13.714
			c-0.984,0.094-4.965,4.136-2.281,6.819c0.938,0.936,3.057,0.79,5.58-1.732c2.523-2.523,3.646-7.405,3.646-7.405
			s-2.517,0.351-4.787,1.347c0,0-0.158,2.736-2.158,2.736C16.646,14.838,16.646,13.714,16.646,13.714z"/>
	</g>
</g>
<g id="Invisible_Shape">
	<rect fill="none" width="24" height="24"/>
</g>
</svg>
