<?xml version="1.0" encoding="utf-8"?>
<!-- Generator: Adobe Illustrator 16.0.3, SVG Export Plug-In . SVG Version: 6.00 Build 0)  -->
<!DOCTYPE svg PUBLIC "-//W3C//DTD SVG 1.1//EN" "http://www.w3.org/Graphics/SVG/1.1/DTD/svg11.dtd">
<svg version="1.1" xmlns="http://www.w3.org/2000/svg" xmlns:xlink="http://www.w3.org/1999/xlink" x="0px" y="0px" width="24px"
	 height="24px" viewBox="0 0 24 24" enable-background="new 0 0 24 24" xml:space="preserve">
<g id="Outline_Icons">
	<g>
		<g>
			<path fill="none" stroke="#000000" stroke-linejoin="round" stroke-miterlimit="10" d="M21.875,16.418l1.072-0.619l-1.5-2.598
				l-1.081,0.624c-0.53-0.485-1.164-0.848-1.866-1.071V11.5h-3v1.254c-0.702,0.224-1.336,0.586-1.866,1.071l-1.081-0.624l-1.5,2.598
				l1.072,0.619c-0.166,0.748-0.167,1.414,0,2.166l-1.07,0.617l1.5,2.598l1.079-0.621c0.53,0.484,1.164,0.847,1.866,1.068V23.5h3
				v-1.254c0.702-0.222,1.336-0.584,1.866-1.068l1.079,0.621l1.5-2.598l-1.07-0.617C22.042,17.832,22.041,17.166,21.875,16.418z"/>
			<circle fill="none" stroke="#000000" stroke-linejoin="round" stroke-miterlimit="10" cx="17" cy="17.5" r="2"/>
		</g>
		<polyline fill="none" stroke="#000000" stroke-linecap="round" stroke-linejoin="round" stroke-miterlimit="10" points="9.5,20.5 
			0.5,20.5 0.5,0.5 19.5,0.5 19.5,9.5 		"/>
		<g>
			<g>
				<path d="M4,1.5V3V1.5 M5,0.5H3V4h2V0.5L5,0.5z"/>
			</g>
		</g>
		<g>
			<g>
				<path d="M8,1.5V3V1.5 M9,0.5H7V4h2V0.5L9,0.5z"/>
			</g>
		</g>
		<g>
			<g>
				<path d="M16,1.5V3V1.5 M17,0.5h-2V4h2V0.5L17,0.5z"/>
			</g>
		</g>
		<g>
			<g>
				<path d="M12,1.5V3V1.5 M13,0.5h-2V4h2V0.5L13,0.5z"/>
			</g>
		</g>
	</g>
</g>
<g id="Invisible_Shape">
	<rect fill="none" width="24" height="24"/>
</g>
</svg>
