<?xml version="1.0" encoding="utf-8"?>
<!-- Generator: Adobe Illustrator 16.0.3, SVG Export Plug-In . SVG Version: 6.00 Build 0)  -->
<!DOCTYPE svg PUBLIC "-//W3C//DTD SVG 1.1//EN" "http://www.w3.org/Graphics/SVG/1.1/DTD/svg11.dtd">
<svg version="1.1" xmlns="http://www.w3.org/2000/svg" xmlns:xlink="http://www.w3.org/1999/xlink" x="0px" y="0px" width="24px"
	 height="24px" viewBox="0 0 24 24" enable-background="new 0 0 24 24" xml:space="preserve">
<g id="Outline_Icons">
	<g>
		<path fill="none" stroke="#000000" stroke-linejoin="round" stroke-miterlimit="10" d="M21.5,14c0,5.247-4.254,9.5-9.5,9.5
			c-5.247,0-9.5-4.253-9.5-9.5c0-6.706,8.336-9.546,9.127-12.48C12.629,4.431,21.5,6.223,21.5,14z"/>
		<path fill="none" stroke="#000000" stroke-linejoin="round" stroke-miterlimit="10" d="M9.311,12.323
			c1.887,0,3.877,2.271,4.96,2.271c1.082,0,3.218-1.851,4.339-1.851s1.598,3.841-0.633,5.518c-0.982,0.174-2.903-2.515-3.706-2.515
			c-0.804,0-3.964,2.689-5.491,2.689C4.521,18.436,5.342,12.323,9.311,12.323z"/>
		<path fill="none" stroke="#000000" stroke-linecap="round" stroke-linejoin="round" stroke-miterlimit="10" d="M12.716,19.221
			c0.247-0.386,0.763-0.96,1.659-0.96c0.504,0,0.86,0.449,1.062,0.8"/>
		<path fill="none" stroke="#000000" stroke-linecap="round" stroke-linejoin="round" stroke-miterlimit="10" d="M10.902,20.584
			c0.562,0.418,2.535,1.625,4.873,0.044"/>
	</g>
</g>
<g id="Frames-24px">
	<rect fill="none" width="24" height="24"/>
</g>
</svg>
