<?xml version="1.0" encoding="utf-8"?>
<!-- Generator: Adobe Illustrator 16.0.3, SVG Export Plug-In . SVG Version: 6.00 Build 0)  -->
<!DOCTYPE svg PUBLIC "-//W3C//DTD SVG 1.1//EN" "http://www.w3.org/Graphics/SVG/1.1/DTD/svg11.dtd">
<svg version="1.1" xmlns="http://www.w3.org/2000/svg" xmlns:xlink="http://www.w3.org/1999/xlink" x="0px" y="0px" width="24px"
	 height="24px" viewBox="0 0 24 24" enable-background="new 0 0 24 24" xml:space="preserve">
<g id="Outline_Icons">
	<g>
		<path fill="none" stroke="#000000" stroke-linejoin="round" stroke-miterlimit="10" d="M22.526,14.442
			c0.163-0.75,0.249-1.524,0.249-2.321c0-5.973-4.842-10.816-10.815-10.816c-0.631,0-1.248,0.056-1.851,0.158
			C9.144,0.854,8,0.5,6.773,0.5C3.309,0.5,0.5,3.31,0.5,6.774c0,1.158,0.315,2.241,0.862,3.172c-0.144,0.703-0.219,1.43-0.219,2.175
			c0,5.974,4.843,10.815,10.816,10.815c0.677,0,1.338-0.062,1.979-0.18c0.885,0.474,1.894,0.743,2.966,0.743
			c3.464,0,6.272-2.808,6.272-6.272C23.178,16.228,22.943,15.282,22.526,14.442z M17.508,17.29c-0.5,0.708-1.24,1.27-2.198,1.667
			c-0.948,0.396-2.085,0.596-3.38,0.596c-1.553,0-2.855-0.273-3.873-0.813c-0.727-0.391-1.325-0.922-1.78-1.58
			c-0.46-0.661-0.692-1.32-0.692-1.955c0-0.394,0.152-0.739,0.451-1.02c0.296-0.279,0.676-0.42,1.129-0.42
			c0.372,0,0.693,0.111,0.953,0.331c0.249,0.212,0.462,0.525,0.634,0.928c0.192,0.44,0.4,0.81,0.621,1.1
			c0.213,0.283,0.518,0.518,0.907,0.703c0.392,0.186,0.921,0.28,1.57,0.28c0.895,0,1.629-0.191,2.18-0.567
			c0.539-0.367,0.8-0.81,0.8-1.351c0-0.425-0.137-0.762-0.417-1.025c-0.295-0.276-0.684-0.489-1.154-0.637
			c-0.492-0.153-1.159-0.318-1.984-0.493c-1.123-0.239-2.076-0.525-2.834-0.846c-0.777-0.331-1.402-0.789-1.859-1.36
			c-0.464-0.582-0.699-1.31-0.699-2.168c0-0.816,0.247-1.555,0.734-2.188c0.483-0.631,1.189-1.122,2.1-1.458
			c0.897-0.333,1.965-0.5,3.174-0.5c0.965,0,1.814,0.112,2.523,0.332c0.713,0.222,1.313,0.522,1.786,0.892
			c0.476,0.372,0.83,0.768,1.052,1.181c0.225,0.416,0.338,0.832,0.338,1.233c0,0.387-0.148,0.738-0.443,1.045
			c-0.297,0.307-0.67,0.463-1.111,0.463c-0.399,0-0.713-0.099-0.931-0.29c-0.202-0.18-0.413-0.459-0.646-0.86
			c-0.27-0.512-0.597-0.916-0.971-1.201C13.123,7.029,12.515,6.89,11.68,6.89c-0.774,0-1.406,0.155-1.873,0.463
			C9.354,7.648,9.135,7.987,9.135,8.39c0,0.247,0.072,0.452,0.217,0.629c0.153,0.189,0.371,0.352,0.645,0.49
			c0.284,0.143,0.578,0.257,0.871,0.337c0.3,0.084,0.805,0.208,1.496,0.367c0.876,0.188,1.68,0.398,2.391,0.626
			c0.722,0.232,1.343,0.514,1.851,0.847c0.519,0.336,0.929,0.768,1.22,1.286c0.292,0.519,0.439,1.161,0.439,1.905
			C18.264,15.767,18.009,16.58,17.508,17.29z"/>
	</g>
</g>
<g id="Frames-24px">
	<rect fill="none" width="24" height="24"/>
</g>
</svg>
