<?xml version="1.0" encoding="utf-8"?>
<!-- Generator: Adobe Illustrator 16.0.3, SVG Export Plug-In . SVG Version: 6.00 Build 0)  -->
<!DOCTYPE svg PUBLIC "-//W3C//DTD SVG 1.1//EN" "http://www.w3.org/Graphics/SVG/1.1/DTD/svg11.dtd">
<svg version="1.1" xmlns="http://www.w3.org/2000/svg" xmlns:xlink="http://www.w3.org/1999/xlink" x="0px" y="0px" width="24px"
	 height="24px" viewBox="0 0 24 24" enable-background="new 0 0 24 24" xml:space="preserve">
<g id="Outline_Icons">
	<g>
		<path id="rect10753_2_" fill="none" stroke="#000000" stroke-linejoin="round" stroke-miterlimit="10" d="M4.574,16.5H7.5v-4.219
			c0-1.215-0.459-1.809-1.217-1.809c-0.759,0-1.371,0.423-1.783,1.199V7.5h-4v2h1v5h-1v2h4V14"/>
		<path fill="none" stroke="#000000" stroke-linejoin="round" stroke-miterlimit="10" d="M15.704,6.5l-0.844,5.362l2.295,0.299
			c0.096-0.288,0.335-0.466,0.789-0.466c0.621,0,0.909,0.55,0.909,1.277c0,0.826-0.111,1.614-0.9,1.614
			c-1.026,0-0.869-0.424-0.869-1.183c0-0.55-0.359-1.016-1.064-1.016c-0.777,0-1.363,0.151-1.495,1.033
			c-0.096,1.024,0.044,1.339,0.679,2.068c0.676,0.592,1.77,1.01,3.184,1.01c2.666,0,4.113-1.613,4.113-3.622
			c0-1.363-0.993-2.832-2.904-2.832c-1.076,0-1.914,0.346-2.177,0.753L17.64,8.5h4.053l0.12-2H15.704z"/>
		<rect x="10.5" y="7.5" fill="none" stroke="#000000" stroke-linejoin="round" stroke-miterlimit="10" width="2" height="2"/>
		<polygon fill="none" stroke="#000000" stroke-linejoin="round" stroke-miterlimit="10" points="8.5,9.5 8.5,12.5 9.527,12.5 
			9.527,14.5 8.5,14.5 8.5,16.5 13.4,16.5 13.4,14.5 12.5,14.5 12.5,9.5 8.5,9.5 		"/>
	</g>
</g>
<g id="Frames-24px">
	<rect fill="none" width="24" height="24"/>
</g>
</svg>
