<?xml version="1.0" encoding="utf-8"?>
<!-- Generator: Adobe Illustrator 16.0.3, SVG Export Plug-In . SVG Version: 6.00 Build 0)  -->
<!DOCTYPE svg PUBLIC "-//W3C//DTD SVG 1.1//EN" "http://www.w3.org/Graphics/SVG/1.1/DTD/svg11.dtd">
<svg version="1.1" xmlns="http://www.w3.org/2000/svg" xmlns:xlink="http://www.w3.org/1999/xlink" x="0px" y="0px" width="24px"
	 height="24px" viewBox="0 0 24 24" enable-background="new 0 0 24 24" xml:space="preserve">
<g id="Outline_Icons">
	<g>
		<path fill="none" stroke="#000000" stroke-linejoin="round" stroke-miterlimit="10" d="M7.5,16.5h6.832c0,3.715-3.097,7-6.916,7
			c-3.82,0-6.916-3.012-6.916-6.726c0-3.715,3.18-6.726,7-6.726V16.5z M23.5,7c0,3.656-3.049,6.5-6.809,6.5H10.5V6.969
			c0,0,0.159-6.469,6.463-6.469C20.723,0.5,23.5,3.344,23.5,7 M17.5,10.498c0-0.538-0.448-0.975-1-0.975c-0.553,0-1,0.437-1,0.975
			c0,0.535,0.447,0.971,1,0.971C17.052,11.469,17.5,11.033,17.5,10.498"/>
		
			<line fill="none" stroke="#000000" stroke-linecap="round" stroke-linejoin="round" stroke-miterlimit="10" x1="16.5" y1="3" x2="16.5" y2="8"/>
	</g>
</g>
<g id="Frames-24px">
	<rect fill="none" width="24" height="24"/>
</g>
</svg>
