<?xml version="1.0" encoding="utf-8"?>
<!-- Generator: Adobe Illustrator 16.0.3, SVG Export Plug-In . SVG Version: 6.00 Build 0)  -->
<!DOCTYPE svg PUBLIC "-//W3C//DTD SVG 1.1//EN" "http://www.w3.org/Graphics/SVG/1.1/DTD/svg11.dtd">
<svg version="1.1" xmlns="http://www.w3.org/2000/svg" xmlns:xlink="http://www.w3.org/1999/xlink" x="0px" y="0px" width="24px"
	 height="24px" viewBox="0 0 24 24" enable-background="new 0 0 24 24" xml:space="preserve">
<g id="Outline_Icons">
	<g>
		<path fill="none" stroke="#000000" stroke-linejoin="round" stroke-miterlimit="10" d="M0.5,1.5v12.283h0.016
			c0.172,4.246,5.24,7.65,11.484,7.65c6.352,0,11.5-3.521,11.5-7.869c0-4.346-5.148-7.867-11.5-7.867
			c-2.779,0-5.512,0.675-7.5,1.799V1.5H0.5z M12,8.319c4.043,0,7.318,2.349,7.318,5.245c0,2.898-3.275,5.246-7.318,5.246
			c-4.041,0-7.318-2.348-7.318-5.246C4.682,10.668,7.959,8.319,12,8.319 M7.632,13.564c0-1.73,1.956-3.131,4.368-3.131
			c2.414,0,4.369,1.4,4.369,3.131S14.414,16.696,12,16.696C9.588,16.696,7.632,15.295,7.632,13.564"/>
	</g>
</g>
<g id="Frames-24px">
	<rect fill="none" width="24" height="24"/>
</g>
</svg>
