<?xml version="1.0" encoding="utf-8"?>
<!-- Generator: Adobe Illustrator 16.0.3, SVG Export Plug-In . SVG Version: 6.00 Build 0)  -->
<!DOCTYPE svg PUBLIC "-//W3C//DTD SVG 1.1//EN" "http://www.w3.org/Graphics/SVG/1.1/DTD/svg11.dtd">
<svg version="1.1" xmlns="http://www.w3.org/2000/svg" xmlns:xlink="http://www.w3.org/1999/xlink" x="0px" y="0px" width="24px"
	 height="24px" viewBox="0 0 24 24" enable-background="new 0 0 24 24" xml:space="preserve">
<g id="Outline_Icons">
	<g>
		
			<circle fill="none" stroke="#000000" stroke-linecap="round" stroke-linejoin="round" stroke-miterlimit="10" cx="12" cy="12" r="11.5"/>
		<path fill="none" stroke="#000000" stroke-linejoin="round" stroke-miterlimit="10" d="M18.051,12.458
			c0,3.342-2.709,6.051-6.051,6.051s-6.051-2.708-6.051-6.051c0-4.271,5.309-6.081,5.813-7.949
			C12.4,6.365,18.051,7.506,18.051,12.458z"/>
		<path fill="none" stroke="#000000" stroke-linejoin="round" stroke-miterlimit="10" d="M10.456,10.541
			c1.108,0,2.278,1.335,2.915,1.335c0.636,0,1.891-1.088,2.55-1.088s0.939,2.259-0.372,3.243c-0.576,0.103-1.705-1.478-2.178-1.478
			s-2.33,1.581-3.228,1.581C7.641,14.133,8.123,10.541,10.456,10.541z"/>
		<path fill="none" stroke="#000000" stroke-linecap="round" stroke-linejoin="round" stroke-miterlimit="10" d="M12.443,15.09
			c0.157-0.246,0.486-0.612,1.057-0.612c0.32,0,0.548,0.288,0.676,0.511"/>
		<path fill="none" stroke="#000000" stroke-linecap="round" stroke-linejoin="round" stroke-miterlimit="10" d="M11.301,16.184
			c0.357,0.268,1.615,1.035,3.104,0.029"/>
	</g>
</g>
<g id="Frames-24px">
	<rect fill="none" width="24" height="24"/>
</g>
</svg>
