<?xml version="1.0" encoding="utf-8"?>
<!-- Generator: Adobe Illustrator 16.0.3, SVG Export Plug-In . SVG Version: 6.00 Build 0)  -->
<!DOCTYPE svg PUBLIC "-//W3C//DTD SVG 1.1//EN" "http://www.w3.org/Graphics/SVG/1.1/DTD/svg11.dtd">
<svg version="1.1" xmlns="http://www.w3.org/2000/svg" xmlns:xlink="http://www.w3.org/1999/xlink" x="0px" y="0px" width="24px"
	 height="24px" viewBox="0 0 24 24" enable-background="new 0 0 24 24" xml:space="preserve">
<g id="Outline_Icons">
	<g>
		<path fill="none" stroke="#000000" stroke-linejoin="round" stroke-miterlimit="10" d="M12.418,12.179
			c-2.51,0.087-2.475-4.525-0.873-4.982C14.043,6.482,14.359,12.112,12.418,12.179z"/>
		<path fill="none" stroke="#000000" stroke-linejoin="round" stroke-miterlimit="10" d="M13.924,20.707
			c-9.799,0-4.168-10.146-13.424-10.146c0-1.02,0-2.04,0-3.061c12.348,0,5.568,9.619,13.549,10.057
			c4.961,0.272,5.5-5.519,6.047-7.73c0.264-1.064,0.748-2.014,2.035-1.821c1.164,0.174,1.359,1.186,1.389,2.174
			C23.676,15.546,20.75,20.707,13.924,20.707z"/>
		<path fill="none" stroke="#000000" stroke-linejoin="round" stroke-miterlimit="10" d="M16.646,5.2
			c2.4,0.175,2.336,5.882,0.285,5.806C14.906,10.931,14.738,5.063,16.646,5.2z"/>
	</g>
</g>
<g id="Frames-24px">
	<rect fill="none" width="24" height="24"/>
</g>
</svg>
