<?xml version="1.0" encoding="utf-8"?>
<!-- Generator: Adobe Illustrator 16.0.3, SVG Export Plug-In . SVG Version: 6.00 Build 0)  -->
<!DOCTYPE svg PUBLIC "-//W3C//DTD SVG 1.1//EN" "http://www.w3.org/Graphics/SVG/1.1/DTD/svg11.dtd">
<svg version="1.1" xmlns="http://www.w3.org/2000/svg" xmlns:xlink="http://www.w3.org/1999/xlink" x="0px" y="0px" width="24px"
	 height="24px" viewBox="0 0 24 24" enable-background="new 0 0 24 24" xml:space="preserve">
<g id="Outline_Icons">
	<g>
		
			<circle fill="none" stroke="#000000" stroke-linecap="round" stroke-linejoin="round" stroke-miterlimit="10" cx="12" cy="12" r="11.5"/>
		<g>
			<path fill="none" stroke="#000000" stroke-linejoin="round" stroke-miterlimit="10" d="M17.143,13.533
				c0.17-3.574-1.92-4.465-3.233-5.142c0.199,2.228-1.293,2.367-2.367,2.486C13.293,7,10.688,6.74,10.688,3.759
				C6.836,6.4,6.783,11.227,6.996,13.471C5.763,13.986,5,14.692,5,15.471c0,1.582,3.135,2.863,7,2.863c3.866,0,7-1.281,7-2.863
				C19,14.723,18.292,14.044,17.143,13.533z"/>
			<path fill="none" stroke="#000000" stroke-linejoin="round" stroke-miterlimit="10" d="M14.746,10.559
				c-0.479,1.943-2.014,3.256-3.518,2.957c-1.143-0.227-1.947-1.322-2.136-2.705c-0.308,0.53-0.489,1.146-0.489,1.811
				c0,1.939,1.521,3.514,3.396,3.514c1.875,0,3.396-1.574,3.396-3.514C15.396,11.85,15.152,11.139,14.746,10.559z"/>
		</g>
	</g>
</g>
<g id="Frames-24px">
	<rect fill="none" width="24" height="24"/>
</g>
</svg>
