<?xml version="1.0" encoding="utf-8"?>
<!-- Generator: Adobe Illustrator 16.0.3, SVG Export Plug-In . SVG Version: 6.00 Build 0)  -->
<!DOCTYPE svg PUBLIC "-//W3C//DTD SVG 1.1//EN" "http://www.w3.org/Graphics/SVG/1.1/DTD/svg11.dtd">
<svg version="1.1" xmlns="http://www.w3.org/2000/svg" xmlns:xlink="http://www.w3.org/1999/xlink" x="0px" y="0px" width="24px"
	 height="24px" viewBox="0 0 24 24" enable-background="new 0 0 24 24" xml:space="preserve">
<g id="Outline_Icons">
	<g>
		
			<circle fill="none" stroke="#000000" stroke-linecap="round" stroke-linejoin="round" stroke-miterlimit="10" cx="12" cy="12" r="11.5"/>
		<g>
			<path fill="none" stroke="#000000" stroke-linejoin="round" stroke-miterlimit="10" d="M15.503,17.009
				c1.898-1.192,3.164-3.322,3.164-5.751C18.667,7.526,15.682,4.5,12,4.5c-3.683,0-6.667,3.026-6.667,6.758
				c0,3.732,2.984,6.758,6.667,6.758c0.541,0,1.067-0.067,1.571-0.191c0.633,1.151,1.597,1.967,3.644,1.578v-1.146
				C17.215,18.256,15.902,17.927,15.503,17.009z M15.456,12.15c0,1.131-0.358,2.152-0.942,2.91c-0.732-0.779-1.881-1.422-3.339-1.34
				v1.328c0,0,0.989,0.039,1.665,1.201c-0.253,0.075-0.517,0.117-0.789,0.117c-1.881,0-3.404-1.889-3.404-4.217v-1.74
				c0-2.328,1.523-4.215,3.404-4.215s3.405,1.887,3.405,4.215V12.15L15.456,12.15z"/>
		</g>
	</g>
</g>
<g id="Frames-24px">
	<rect fill="none" width="24" height="24"/>
</g>
</svg>
