<?xml version="1.0" encoding="utf-8"?>
<!-- Generator: Adobe Illustrator 16.0.3, SVG Export Plug-In . SVG Version: 6.00 Build 0)  -->
<!DOCTYPE svg PUBLIC "-//W3C//DTD SVG 1.1//EN" "http://www.w3.org/Graphics/SVG/1.1/DTD/svg11.dtd">
<svg version="1.1" xmlns="http://www.w3.org/2000/svg" xmlns:xlink="http://www.w3.org/1999/xlink" x="0px" y="0px" width="24px"
	 height="24px" viewBox="0 0 24 24" enable-background="new 0 0 24 24" xml:space="preserve">
<g id="Outline_Icons">
	<g>
		<path fill="none" stroke="#000000" stroke-linejoin="round" stroke-miterlimit="10" d="M2.365,18.946
			c2.055,1.597,4.784,2.241,7.378,2.457c1.626,0.136,3.272,0.134,4.894-0.036c5.546-0.584,8.746-3.397,8.855-4.688
			c0.028-0.35-0.029-0.705-0.098-1.047C21.427,5.93,15.813,2.334,12.258,2.334h-0.705C5.978,2.334,0.5,10.954,0.5,16.496
			C0.5,17.327,1.72,18.445,2.365,18.946z"/>
		<path fill="none" stroke="#000000" stroke-linejoin="round" stroke-miterlimit="10" d="M2.388,18.932
			c-0.411-0.586-0.283-0.674-0.226-0.919c0.351-1.474,2.596-5.505,4.088-5.986c1.498-0.485,2.211,2.296,3.719,2.203
			c1.295-0.081,3.879-4.633,4.879-4.959c0.161-0.054,0.336-0.036,0.489,0.034c1.001,0.456,3.609,2.918,6.094,7.392
			c0.375,0.675,0.681,1.354,0.446,2.021"/>
	</g>
</g>
<g id="Frames-24px">
	<rect fill="none" width="24" height="24"/>
</g>
</svg>
