<?xml version="1.0" encoding="utf-8"?>
<!-- Generator: Adobe Illustrator 16.0.3, SVG Export Plug-In . SVG Version: 6.00 Build 0)  -->
<!DOCTYPE svg PUBLIC "-//W3C//DTD SVG 1.1//EN" "http://www.w3.org/Graphics/SVG/1.1/DTD/svg11.dtd">
<svg version="1.1" xmlns="http://www.w3.org/2000/svg" xmlns:xlink="http://www.w3.org/1999/xlink" x="0px" y="0px" width="24px"
	 height="24px" viewBox="0 0 24 24" enable-background="new 0 0 24 24" xml:space="preserve">
<g id="Outline_Icons">
	<g>
		<path id="Simplenote_4_" fill="none" stroke="#000000" stroke-linejoin="round" stroke-miterlimit="10" d="M3.734,19.998
			c-1.707-1.859-3.06-4.271-3.234-7.504c0-0.314,0-0.629,0-0.943c0.068-1.365,0.417-2.603,0.854-3.729
			c0.565-1.459,1.438-2.854,2.471-3.728c0,0.698,0.018,1.365,0.09,1.797c0.219,1.31,0.949,2.745,1.842,3.638
			c0.725,0.725,1.694,1.221,2.696,1.752c1.997,1.061,3.897,1.996,5.885,3.055c1.277,0.682,2.593,1.522,2.964,2.875
			c0.525,1.912-0.59,3.688-1.482,4.627c-0.823,0.867-1.902,1.461-3.189,1.662c-0.509,0-1.018,0-1.527,0
			C7.947,23.148,5.449,21.861,3.734,19.998L3.734,19.998z M11.326,8.451c1.842,0.966,3.743,1.945,5.616,2.92
			c0.964,0.504,1.842,1.022,2.515,1.752c1.226,1.328,1.99,3.06,1.842,5.57c0.303-0.293,0.578-0.702,0.809-1.123
			c0.667-1.221,1.208-2.778,1.348-4.582c-0.007-0.053,0.01-0.08,0.045-0.09c0-0.6,0-1.198,0-1.797
			C22.709,4.781,18.408,0.987,12.359,0.5c-0.194,0-0.39,0-0.584,0c-1.182,0.197-2.334,0.535-3.01,1.303
			C8.291,2.342,7.917,3.299,7.867,3.914C7.654,6.557,9.549,7.52,11.326,8.451L11.326,8.451z"/>
	</g>
</g>
<g id="Frames-24px">
	<rect fill="none" width="24" height="24"/>
</g>
</svg>
