<?xml version="1.0" encoding="utf-8"?>
<!-- Generator: Adobe Illustrator 16.0.3, SVG Export Plug-In . SVG Version: 6.00 Build 0)  -->
<!DOCTYPE svg PUBLIC "-//W3C//DTD SVG 1.1//EN" "http://www.w3.org/Graphics/SVG/1.1/DTD/svg11.dtd">
<svg version="1.1" xmlns="http://www.w3.org/2000/svg" xmlns:xlink="http://www.w3.org/1999/xlink" x="0px" y="0px" width="24px"
	 height="24px" viewBox="0 0 24 24" enable-background="new 0 0 24 24" xml:space="preserve">
<g id="Outline_Icons">
	<g>
		<path fill="none" stroke="#000000" stroke-linejoin="round" stroke-miterlimit="10" d="M10.419,16.791
			c-0.32-0.371-0.412-0.931-0.287-1.76c0.303-2.008,0.653-4.669,0.653-4.669c0.025-0.191,0.187-0.335,0.38-0.335
			c0.824,0,1.627-0.185,2.193,0.463c0.303,0.344,0.412,0.854,0.326,1.518c-0.018,0.13-0.676,4.802-0.685,4.914
			c-0.017,0.199-0.183,0.352-0.384,0.352C11.84,17.285,10.917,17.37,10.419,16.791z"/>
		<path fill="none" stroke="#000000" stroke-linejoin="round" stroke-miterlimit="10" d="M12.393,8.528
			c-0.751,0-1.373-0.435-1.542-1.084c-0.209-0.799,0.362-1.644,1.273-1.883c0.906-0.237,1.827,0.231,2.032,1.021
			c0.104,0.398,0.021,0.816-0.235,1.179c-0.239,0.339-0.609,0.591-1.037,0.704C12.722,8.505,12.558,8.528,12.393,8.528z"/>
		<path fill="none" stroke="#000000" stroke-linejoin="round" stroke-miterlimit="10" d="M20.85,17.358
			c-1.374,0-2.002-1.142-2.565-2.323c-0.117,0.814-0.251,1.748-0.262,1.892c-0.016,0.199-0.183,0.353-0.383,0.353
			c-0.776,0.007-1.699,0.096-2.199-0.485c-0.32-0.373-0.412-0.932-0.287-1.759c0.304-2.012,1.021-7.201,1.021-7.201
			c0.027-0.188,0.189-0.331,0.381-0.331c0.826,0,1.61-0.204,2.193,0.464c0.304,0.344,0.411,0.855,0.325,1.516
			c-0.072,0.555-0.185,1.359-0.311,2.242c0.37-0.453,0.801-0.947,1.103-1.271c0.817-0.875,3.449-0.742,3.602-0.389
			c0.062,0.141,0.034,0.303-0.069,0.413c-0.084,0.092-1.916,2.075-2.686,2.87c0.639,1.438,1.338,2.002,1.668,2.027
			c0.209,0.016,0.367,0.197,0.352,0.408C22.704,16.207,22.206,17.358,20.85,17.358z"/>
		<path fill="none" stroke="#000000" stroke-linejoin="round" stroke-miterlimit="10" d="M7.896,10.604
			C7.258,9.818,6.371,9.57,5.378,9.57c-1.273,0-4.295,0.398-4.826,4.101c-0.517,3.595,2.979,4.237,4.365,3.567
			c-0.064,0.673,0.039,1.166,0.311,1.522c0.498,0.646,1.313,0.579,2.119,0.564c0.191,0,0.354-0.142,0.38-0.332
			c0,0,0.407-3.04,0.766-5.509C8.669,12.281,8.468,11.309,7.896,10.604z M4.144,15.589c-2.145-0.111-1.188-4.571,0.914-4.114
			C7.223,11.94,6.221,15.646,4.144,15.589z"/>
	</g>
</g>
<g id="Frames-24px">
	<rect fill="none" width="24" height="24"/>
</g>
</svg>
