<?xml version="1.0" encoding="utf-8"?>
<!-- Generator: Adobe Illustrator 16.0.3, SVG Export Plug-In . SVG Version: 6.00 Build 0)  -->
<!DOCTYPE svg PUBLIC "-//W3C//DTD SVG 1.1//EN" "http://www.w3.org/Graphics/SVG/1.1/DTD/svg11.dtd">
<svg version="1.1" xmlns="http://www.w3.org/2000/svg" xmlns:xlink="http://www.w3.org/1999/xlink" x="0px" y="0px" width="24px"
	 height="24px" viewBox="0 0 24 24" enable-background="new 0 0 24 24" xml:space="preserve">
<g id="Outline_Icons">
	<g>
		<path fill="none" stroke="#000000" stroke-linejoin="round" stroke-miterlimit="10" d="M0.5,13.194L0.5,13.194
			c-0.028,1.01,0.547,1.224,0.547,1.224c1.172,1.56,1.475,1.635,3.369,1.766c0-1.16,1.92-5.314,4.916-6.813
			C8.83,8.979,8.379,8.678,7.807,8.476C8.49,7.927,8.98,7.092,8.98,6.16c0-1.654-1.342-2.996-3.028-2.996
			c-1.688,0-3.043,1.342-3.043,2.996c0,0.94,0.451,1.782,1.146,2.331C3.646,8.648,0.86,9.835,0.5,13.194z"/>
		<path fill="none" stroke="#000000" stroke-linejoin="round" stroke-miterlimit="10" d="M19.744,7.186
			c0-2.451-2.027-4.438-4.527-4.438c-2.502,0-4.529,1.987-4.529,4.438c0,1.396,0.658,2.639,1.688,3.454h-0.001
			c-0.606,0.231-4.741,1.991-5.276,6.968c-0.044,1.496,0.808,1.813,0.808,1.813v0.001c0,0,0.349,0.332,0.904,0.46
			c1.139,3.59,12.079,3.389,13.159,0c1.916-0.379,1.703-2.658,1.129-4.409c-0.797-2.432-2.855-4.106-4.979-4.857
			C19.13,9.803,19.744,8.567,19.744,7.186z"/>
	</g>
</g>
<g id="Frames-24px">
	<rect fill="none" width="24" height="24"/>
</g>
</svg>
