<?xml version="1.0" encoding="utf-8"?>
<!-- Generator: Adobe Illustrator 16.0.3, SVG Export Plug-In . SVG Version: 6.00 Build 0)  -->
<!DOCTYPE svg PUBLIC "-//W3C//DTD SVG 1.1//EN" "http://www.w3.org/Graphics/SVG/1.1/DTD/svg11.dtd">
<svg version="1.1" xmlns="http://www.w3.org/2000/svg" xmlns:xlink="http://www.w3.org/1999/xlink" x="0px" y="0px" width="24px"
	 height="24px" viewBox="0 0 24 24" enable-background="new 0 0 24 24" xml:space="preserve">
<g id="Outline_Icons">
	<g>
		<path fill="none" stroke="#000000" stroke-linejoin="round" stroke-miterlimit="10" d="M11.904,8.255
			c0.146-0.254,0.059-0.58-0.195-0.726l-1.386-0.794C10.07,6.588,9.742,6.677,9.598,6.931L3.824,17.073
			c-0.146,0.252-0.057,0.578,0.196,0.724l1.386,0.796c0.253,0.146,0.58,0.058,0.727-0.195L11.904,8.255z"/>
		<path fill="none" stroke="#000000" stroke-linejoin="round" stroke-miterlimit="10" d="M4.309,20.237l-1.385-0.794
			c-0.254-0.146-0.488-0.027-0.521,0.263l-0.24,2.086c-0.033,0.29,0.138,0.394,0.379,0.23l1.79-1.22
			C4.573,20.639,4.562,20.383,4.309,20.237z"/>
		<path fill="none" stroke="#000000" stroke-linejoin="round" stroke-miterlimit="10" d="M20.656,17.197
			c-0.416-0.759-8.466-16.27-9.238-15.88c-0.848,0.421,6.79,16.885,7.404,17.193c0.555,0.278,0.769,0.123,1.139-0.03
			C20.331,18.325,20.994,17.814,20.656,17.197z"/>
		<path fill="none" stroke="#000000" stroke-linejoin="round" stroke-miterlimit="10" d="M20.809,19.875
			c-0.207,0.199-0.701,0.632-0.104,1.471c0.596,0.841,1.928,0.878,2.104,1.438C22.809,22.783,23.227,18.512,20.809,19.875z"/>
		<line fill="none" stroke="#000000" stroke-linejoin="round" stroke-miterlimit="10" x1="10" y1="14.5" x2="15" y2="14.5"/>
		<polyline fill="none" stroke="#000000" stroke-linejoin="round" stroke-miterlimit="10" points="6,10.5 0.5,10.5 0.5,14.5 3,14.5 
					"/>
		<polyline fill="none" stroke="#000000" stroke-linejoin="round" stroke-miterlimit="10" points="21,14.5 23.5,14.5 23.5,10.5 
			19,10.5 		"/>
	</g>
</g>
<g id="Frames-24px">
	<rect fill="none" width="24" height="24"/>
</g>
</svg>
