<?xml version="1.0" encoding="utf-8"?>
<!-- Generator: Adobe Illustrator 16.0.3, SVG Export Plug-In . SVG Version: 6.00 Build 0)  -->
<!DOCTYPE svg PUBLIC "-//W3C//DTD SVG 1.1//EN" "http://www.w3.org/Graphics/SVG/1.1/DTD/svg11.dtd">
<svg version="1.1" xmlns="http://www.w3.org/2000/svg" xmlns:xlink="http://www.w3.org/1999/xlink" x="0px" y="0px" width="24px"
	 height="24px" viewBox="0 0 24 24" enable-background="new 0 0 24 24" xml:space="preserve">
<g id="Outline_Icons">
	<g>
		
			<circle fill="none" stroke="#000000" stroke-linecap="round" stroke-linejoin="round" stroke-miterlimit="10" cx="12" cy="12" r="11.5"/>
		<g>
			<path fill="none" stroke="#000000" stroke-linecap="round" stroke-linejoin="round" stroke-miterlimit="10" d="M19.481,16.234
				c0,0-5.313,0.234-7.466,2.828c-2.154-2.594-7.467-2.828-7.467-2.828"/>
			<path fill="none" stroke="#000000" stroke-linecap="round" stroke-linejoin="round" stroke-miterlimit="10" d="M8.541,14.159
				c-0.189-0.448-0.293-0.94-0.293-1.457c0-2.065,1.674-3.739,3.739-3.739s3.74,1.674,3.74,3.739c0,0.513-0.103,0.999-0.288,1.442"
				/>
			<path fill="none" stroke="#000000" stroke-linejoin="round" stroke-miterlimit="10" d="M6.211,10.503
				c-2.449,0-2.033,3.139-0.392,3.139v-0.974c0-3.406,2.762-6.168,6.168-6.168c3.407,0,6.168,2.762,6.168,6.168v0.974
				c1.763,0,1.763-3.247,0-3.247h-0.433"/>
			
				<line fill="none" stroke="#000000" stroke-linejoin="round" stroke-miterlimit="10" x1="18.48" y1="6.73" x2="18.48" y2="10.395"/>
			<circle fill="none" stroke="#000000" stroke-linejoin="round" stroke-miterlimit="10" cx="18.479" cy="6.196" r="0.534"/>
		</g>
	</g>
</g>
<g id="Frames-24px">
	<rect fill="none" width="24" height="24"/>
</g>
</svg>
