<?xml version="1.0" encoding="utf-8"?>
<!-- Generator: Adobe Illustrator 16.0.3, SVG Export Plug-In . SVG Version: 6.00 Build 0)  -->
<!DOCTYPE svg PUBLIC "-//W3C//DTD SVG 1.1//EN" "http://www.w3.org/Graphics/SVG/1.1/DTD/svg11.dtd">
<svg version="1.1" xmlns="http://www.w3.org/2000/svg" xmlns:xlink="http://www.w3.org/1999/xlink" x="0px" y="0px" width="24px"
	 height="24px" viewBox="0 0 24 24" enable-background="new 0 0 24 24" xml:space="preserve">
<g id="Outline_Icons">
	<g>
		<path fill="none" stroke="#000000" stroke-linejoin="round" stroke-miterlimit="10" d="M16.5,22.854
			c-1.406-0.101-1.961-0.312-2.377-0.634c-0.415-0.318-0.623-1.15-0.623-2.488V4.27c0-1.279,0.208-2.104,0.623-2.471
			c0.416-0.367,0.971-0.586,2.377-0.654V0.5h-10v0.645c1.405,0.068,1.959,0.287,2.376,0.654C9.292,2.166,9.5,2.99,9.5,4.27v15.463
			c0,1.338-0.208,2.17-0.624,2.488c-0.417,0.322-0.971,0.533-2.376,0.634V23.5h10V22.854z"/>
	</g>
</g>
<g id="Frames-24px">
	<rect fill="none" width="24" height="24"/>
</g>
</svg>
