<?xml version="1.0" encoding="utf-8"?>
<!-- Generator: Adobe Illustrator 16.0.3, SVG Export Plug-In . SVG Version: 6.00 Build 0)  -->
<!DOCTYPE svg PUBLIC "-//W3C//DTD SVG 1.1//EN" "http://www.w3.org/Graphics/SVG/1.1/DTD/svg11.dtd">
<svg version="1.1" xmlns="http://www.w3.org/2000/svg" xmlns:xlink="http://www.w3.org/1999/xlink" x="0px" y="0px" width="24px"
	 height="24px" viewBox="0 0 24 24" enable-background="new 0 0 24 24" xml:space="preserve">
<g id="Outline_Icons">
	<g>
		
			<circle fill="none" stroke="#000000" stroke-linecap="round" stroke-linejoin="round" stroke-miterlimit="10" cx="12" cy="12" r="11.5"/>
		<g>
			<path fill="none" stroke="#000000" stroke-linejoin="round" stroke-miterlimit="10" d="M6.672,6.5L8.5,4.506V6.5H6.672z
				 M17.742,6.515c-0.26-0.448-1.615-0.962-2.32-0.962h-1.814c0,0-0.391-1.047-1.76-1.047c-1.371,0-1.306,0.596-1.306,1.119v2.109
				L9.836,8.5H6.968c0,0-0.888,0.43-0.888,1.584c0,1.156,0.358,5.182,2.766,5.555c2.848,0.441,3.336-0.883,3.336-1.041
				c0-0.671,0.017-1.688,0.017-1.688s0.834,1.594,2.094,1.594c1.259,0,1.991,0.724,1.991,1.469v1.379c0,0-0.047,0.863-0.787,0.863
				h-1.58c0,0-0.519-0.156-0.519-0.715h-1.297c0,1.825,1.247,2.006,2.248,2.006h1.629c0,0,2.942-0.379,2.942-6.191
				S18,6.963,17.742,6.515"/>
		</g>
		
			<line fill="none" stroke="#000000" stroke-linejoin="round" stroke-miterlimit="10" x1="15.188" y1="10.562" x2="17.188" y2="11.625"/>
	</g>
</g>
<g id="Frames-24px">
	<rect fill="none" width="24" height="24"/>
</g>
</svg>
