<?xml version="1.0" encoding="utf-8"?>
<!-- Generator: Adobe Illustrator 16.0.3, SVG Export Plug-In . SVG Version: 6.00 Build 0)  -->
<!DOCTYPE svg PUBLIC "-//W3C//DTD SVG 1.1//EN" "http://www.w3.org/Graphics/SVG/1.1/DTD/svg11.dtd">
<svg version="1.1" xmlns="http://www.w3.org/2000/svg" xmlns:xlink="http://www.w3.org/1999/xlink" x="0px" y="0px" width="24px"
	 height="24px" viewBox="0 0 24 24" enable-background="new 0 0 24 24" xml:space="preserve">
<g id="Outline_Icons">
	<g>
		<path fill="none" stroke="#000000" stroke-linejoin="round" stroke-miterlimit="10" d="M12.519,8.27
			c-1.104-0.31-2.885-0.422-4.553,0.776c-2.66,1.909-2.159,3.913-2.159,3.913s0.124,3.166,3.878,3.166
			c4.197,0,4.834-3.823,4.834-3.823V3.564c4.058,2.002,5.436,3.307,8.594,3.225c0,0,0.406-0.086,0.406,0.722
			c0,0.438-0.156,0.938-0.595,1.409c0,0-0.834,1.247-2.536,1.836c0.062,0.434,0.096,0.877,0.096,1.328
			c0,5.292-4.469,9.582-9.983,9.582c-5.512,0-9.981-4.29-9.981-9.582c0-5.295,4.47-9.584,9.981-9.584
			c0.706,0,1.354-0.012,2.019,0.123V8.27z"/>
	</g>
</g>
<g id="Frames-24px">
	<rect fill="none" width="24" height="24"/>
</g>
</svg>
