<?xml version="1.0" encoding="utf-8"?>
<!-- Generator: Adobe Illustrator 16.0.3, SVG Export Plug-In . SVG Version: 6.00 Build 0)  -->
<!DOCTYPE svg PUBLIC "-//W3C//DTD SVG 1.1//EN" "http://www.w3.org/Graphics/SVG/1.1/DTD/svg11.dtd">
<svg version="1.1" xmlns="http://www.w3.org/2000/svg" xmlns:xlink="http://www.w3.org/1999/xlink" x="0px" y="0px" width="24px"
	 height="24px" viewBox="0 0 24 24" enable-background="new 0 0 24 24" xml:space="preserve">
<g id="Outline_Icons">
	<g>
		<path fill="none" stroke="#000000" stroke-linejoin="round" stroke-miterlimit="10" d="M13.107,4.327L8.101,17.09
			c-0.967,2.445-1.726,4.969-4.912,5.025c-0.568,0-1.365,0.02-1.782-0.227c-0.739-0.455-0.607-1.479,0-1.842
			c0.284-0.169,0.55-0.189,0.853-0.15c2.238,0.15,2.808-1.253,3.472-3.035L0.647,4.327c-0.284-0.702-0.19-1.404,0.569-1.708
			c0.834-0.34,1.46,0.076,1.764,0.854c1.328,3.32,2.712,6.79,4.001,10.127c0.038,0.058,0.114,0.077,0.152,0L8.29,10.49
			c0.872-2.275,1.802-4.57,2.617-6.884c0.189-0.551,0.531-0.93,1.194-0.93c0.229,0,0.38,0.038,0.512,0.114
			C13.126,3.037,13.392,3.625,13.107,4.327L13.107,4.327z M13.998,9.067c0.532-0.606,4.666-3.925,5.5-4.116
			c1.233-0.283,1.992,1.045,1.101,1.992c-0.551,0.57-5.311,2.504-6.202,2.674c-0.208,0.06-0.512,0.096-0.588-0.019
			C13.715,9.447,13.865,9.219,13.998,9.067L13.998,9.067z M22.646,11.419C23.215,11.61,23.5,12.064,23.5,12.5v0.02l0,0
			c0,0.455-0.285,0.91-0.854,1.1c-0.606,0.189-4.42-0.171-6.201-0.625c-0.512-0.152-0.854-0.267-0.873-0.476
			c0.02-0.208,0.361-0.341,0.873-0.474C18.227,11.571,22.04,11.211,22.646,11.419L22.646,11.419z M13.809,15.535
			c0.076-0.133,0.38-0.076,0.588-0.039c0.892,0.172,5.651,2.105,6.202,2.693c0.892,0.93,0.133,2.275-1.101,1.992
			c-0.834-0.189-4.969-3.528-5.5-4.115C13.865,15.894,13.715,15.686,13.809,15.535L13.809,15.535z"/>
	</g>
</g>
<g id="Frames-24px">
	<rect fill="none" width="24" height="24"/>
</g>
</svg>
