<?xml version="1.0" encoding="utf-8"?>
<!-- Generator: Adobe Illustrator 16.0.3, SVG Export Plug-In . SVG Version: 6.00 Build 0)  -->
<!DOCTYPE svg PUBLIC "-//W3C//DTD SVG 1.1//EN" "http://www.w3.org/Graphics/SVG/1.1/DTD/svg11.dtd">
<svg version="1.1" xmlns="http://www.w3.org/2000/svg" xmlns:xlink="http://www.w3.org/1999/xlink" x="0px" y="0px" width="24px"
	 height="24px" viewBox="0 0 24 24" enable-background="new 0 0 24 24" xml:space="preserve">
<g id="Outline_Icons">
	<g>
		
			<circle fill="none" stroke="#000000" stroke-linecap="round" stroke-linejoin="round" stroke-miterlimit="10" cx="12" cy="12" r="11.5"/>
		<path fill="none" stroke="#000000" stroke-linejoin="round" stroke-miterlimit="10" d="M10.15,12.43
			c-1.715,2.464-3.546,2.781-3.546,4.581c0,0.888,0.507,2.36,1.947,2.36s2.138-0.315,3.277-0.315s1.9,0.444,3.341,0.444
			s2.104-1.366,2.043-2.252c-0.128-1.859-1.932-1.725-3.753-4.945c-0.485-0.675-1.045-0.761-1.63-0.761
			C11.243,11.542,10.626,11.746,10.15,12.43"/>
		<path fill="none" stroke="#000000" stroke-linejoin="round" stroke-miterlimit="10" d="M8.29,10.113
			c0.078,1.115-0.526,2.068-1.352,2.125c-0.824,0.059-1.557-0.8-1.635-1.916C5.226,9.205,5.831,8.254,6.655,8.196
			C7.48,8.139,8.213,8.998,8.29,10.113"/>
		<path fill="none" stroke="#000000" stroke-linejoin="round" stroke-miterlimit="10" d="M10.162,4.719c-0.829,0-1.5,0.93-1.5,2.073
			c0,1.146,0.671,2.073,1.5,2.073c0.827,0,1.5-0.928,1.5-2.073C11.662,5.648,10.989,4.719,10.162,4.719"/>
		<path fill="none" stroke="#000000" stroke-linejoin="round" stroke-miterlimit="10" d="M14.909,5.127
			c-0.787-0.2-1.644,0.5-1.915,1.564s0.146,2.092,0.934,2.291c0.787,0.201,1.645-0.5,1.914-1.564
			C16.195,6.032,15.098,5.175,14.909,5.127"/>
		<path fill="none" stroke="#000000" stroke-linejoin="round" stroke-miterlimit="10" d="M17.141,9.294
			c-0.828,0.013-1.484,0.801-1.467,2.021c0.018,1.221,0.703,1.775,1.532,1.764c0.827-0.012,1.485-0.588,1.467-1.809
			C18.649,9.682,17.339,9.292,17.141,9.294"/>
	</g>
</g>
<g id="Frames-24px">
	<rect fill="none" width="24" height="24"/>
</g>
</svg>
