<?xml version="1.0" encoding="utf-8"?>
<!-- Generator: Adobe Illustrator 16.0.3, SVG Export Plug-In . SVG Version: 6.00 Build 0)  -->
<!DOCTYPE svg PUBLIC "-//W3C//DTD SVG 1.1//EN" "http://www.w3.org/Graphics/SVG/1.1/DTD/svg11.dtd">
<svg version="1.1" xmlns="http://www.w3.org/2000/svg" xmlns:xlink="http://www.w3.org/1999/xlink" x="0px" y="0px" width="24px"
	 height="24px" viewBox="0 0 24 24" enable-background="new 0 0 24 24" xml:space="preserve">
<g id="Outline_Icons">
	<g>
		
			<circle fill="none" stroke="#000000" stroke-linecap="round" stroke-linejoin="round" stroke-miterlimit="10" cx="12" cy="12" r="11.5"/>
		<path fill="none" stroke="#000000" stroke-linejoin="round" stroke-miterlimit="10" d="M13.537,4.646
			C13.028,4.549,12.52,4.5,11.996,4.5c-0.516,0-1.024,0.049-1.533,0.146c0,5.172-0.042,9.334-5.199,12.513
			C5.897,18.099,6.728,18.9,7.688,19.5c2.021-1.254,3.186-2.726,4.308-4.768c1.129,2.042,2.293,3.514,4.314,4.768
			c0.963-0.6,1.792-1.401,2.426-2.341C13.572,13.98,13.537,9.818,13.537,4.646L13.537,4.646z"/>
	</g>
</g>
<g id="Frames-24px">
	<rect fill="none" width="24" height="24"/>
</g>
</svg>
