<?xml version="1.0" encoding="utf-8"?>
<!-- Generator: Adobe Illustrator 16.0.3, SVG Export Plug-In . SVG Version: 6.00 Build 0)  -->
<!DOCTYPE svg PUBLIC "-//W3C//DTD SVG 1.1//EN" "http://www.w3.org/Graphics/SVG/1.1/DTD/svg11.dtd">
<svg version="1.1" xmlns="http://www.w3.org/2000/svg" xmlns:xlink="http://www.w3.org/1999/xlink" x="0px" y="0px" width="24px"
	 height="24px" viewBox="0 0 24 24" enable-background="new 0 0 24 24" xml:space="preserve">
<g id="Outline_Icons">
	<g>
		
			<circle fill="none" stroke="#000000" stroke-linecap="round" stroke-linejoin="round" stroke-miterlimit="10" cx="12" cy="12" r="11.5"/>
		<path fill="none" stroke="#000000" stroke-linejoin="round" stroke-miterlimit="10" d="M8.003,11.215
			c-0.157-0.342-0.249-0.748-0.249-1.246c0-2.32,1.738-4.4,4.525-4.4c2.468,0,3.824,1.509,3.824,3.521
			c0,2.649-1.173,4.888-2.914,4.888c-0.961,0-1.682-0.796-1.451-1.772c0.277-1.163,0.812-2.42,0.812-3.261
			c0-0.752-0.404-1.378-1.24-1.378c-0.982,0-1.772,1.016-1.772,2.378c0,0.866,0.294,1.454,0.294,1.454s-1.007,4.262-1.183,5.008
			c-0.351,1.487-0.053,3.309-0.027,3.492c0.015,0.11,0.154,0.137,0.218,0.053c0.091-0.118,1.262-1.563,1.66-3.007
			c0.111-0.409,0.646-2.526,0.646-2.526c0.318,0.609,1.252,1.145,2.244,1.145c2.955,0,4.959-2.693,4.959-6.297
			C18.35,6.539,16.041,4,12.531,4C8.165,4,5.963,7.13,5.963,9.74c0,0.846,0.172,1.643,0.527,2.279L8.003,11.215z"/>
	</g>
</g>
<g id="Frames-24px">
	<rect fill="none" width="24" height="24"/>
</g>
</svg>
