<?xml version="1.0" encoding="utf-8"?>
<!-- Generator: Adobe Illustrator 16.0.3, SVG Export Plug-In . SVG Version: 6.00 Build 0)  -->
<!DOCTYPE svg PUBLIC "-//W3C//DTD SVG 1.1//EN" "http://www.w3.org/Graphics/SVG/1.1/DTD/svg11.dtd">
<svg version="1.1" xmlns="http://www.w3.org/2000/svg" xmlns:xlink="http://www.w3.org/1999/xlink" x="0px" y="0px" width="24px"
	 height="24px" viewBox="0 0 24 24" enable-background="new 0 0 24 24" xml:space="preserve">
<g id="Outline_Icons">
	<g>
		
			<circle fill="none" stroke="#000000" stroke-linecap="round" stroke-linejoin="round" stroke-miterlimit="10" cx="12" cy="12" r="11.5"/>
		<g>
			<path fill="none" stroke="#000000" stroke-linejoin="round" stroke-miterlimit="10" d="M16.994,6.17L16.994,6.17L16.994,6.17
				L16.994,6.17z M4.5,9.912v3.176c0,1.605,0.703,3.048,1.825,4.043C7.274,17.988,8.534,18.5,9.912,18.5h3.176h4.207
				c0.666,0,1.205-0.538,1.205-1.205v-4.207V9.912c0-1.451-0.574-2.766-1.506-3.742l0,0c-0.985-1.031-2.373-1.67-3.906-1.67H9.912
				C6.937,4.5,4.5,6.937,4.5,9.912L4.5,9.912z"/>
			<path fill="none" stroke="#000000" stroke-linecap="round" stroke-linejoin="round" stroke-miterlimit="10" d="M12.717,8.098
				c0.832,1.006,1.332,2.299,1.332,3.706c0,1.241-0.388,2.391-1.049,3.335"/>
			
				<line fill="none" stroke="#000000" stroke-linecap="round" stroke-linejoin="round" stroke-miterlimit="10" x1="8.584" y1="15.139" x2="10.131" y2="12.59"/>
			<path fill="none" stroke="#000000" stroke-linejoin="round" stroke-miterlimit="10" d="M9.82,8.807
				c0.338,0,0.609,0.269,0.609,0.604c0,0.336-0.271,0.613-0.609,0.613S9.212,9.746,9.212,9.41C9.212,9.075,9.482,8.807,9.82,8.807
				L9.82,8.807z"/>
		</g>
	</g>
</g>
<g id="Frames-24px">
	<rect fill="none" width="24" height="24"/>
</g>
</svg>
