<?xml version="1.0" encoding="utf-8"?>
<!-- Generator: Adobe Illustrator 16.0.3, SVG Export Plug-In . SVG Version: 6.00 Build 0)  -->
<!DOCTYPE svg PUBLIC "-//W3C//DTD SVG 1.1//EN" "http://www.w3.org/Graphics/SVG/1.1/DTD/svg11.dtd">
<svg version="1.1" xmlns="http://www.w3.org/2000/svg" xmlns:xlink="http://www.w3.org/1999/xlink" x="0px" y="0px" width="24px"
	 height="24px" viewBox="0 0 24 24" enable-background="new 0 0 24 24" xml:space="preserve">
<g id="Outline_Icons">
	<g>
		<path fill="none" stroke="#000000" stroke-linejoin="round" stroke-miterlimit="10" d="M21.361,2.756
			c-0.145,0.445-1.323,0.648-1.582,0.98C19.331,4.306,19.5,6.075,19.5,7.263v9.512c0,0.533-0.07,1.596,0.094,1.763
			c0.169,0.168,0.777,0.06,1.02,0.138c4.941,1.59-6.804,5.785-6.159,1.391c0.05-0.346,0.345-0.533,0.744-0.697
			c0.269-0.106,0.885-0.046,1.113-0.277c0.294-0.289,0.067-1.498,0.044-2.178c-0.002-0.12,0.024-2.23-0.044-2.326
			c-0.415-0.531-7.53,0.732-8.094,1.585c-0.267,0.408-0.007,3.758,0.052,3.846c0.189,0.302,0.973,0.166,1.154,0.23
			c0.451,0.157,1.109,0.849,1.029,1.534c-0.188,1.52-7.186,2.938-6.885,0.048c0.053-0.504,0.764-0.8,1.261-0.977
			c0.157-0.058,0.465-0.078,0.55-0.185c0.189-0.226,0.075-1.188,0-1.76c-0.205-1.704-0.25-3.766-0.277-5.521
			c-0.026-2.091-0.139-3.545-0.139-5.712c0-0.61,0.059-1.608-0.09-1.81C4.697,5.65,4.136,5.688,3.803,5.546
			c-5.74-2.469,8.975-5.63,6.277-1.165C9.745,4.936,8.451,4.816,8.173,5.269C8.053,5.456,8.076,6.15,8.076,6.752
			c0,1.808-0.229,3.07-0.09,4.916c0.019,0.27,0.105,1.117,0.282,1.205l7.997-1.296c0.383-0.32,0.146-1.263,0.09-1.717
			c-0.16-1.39-0.142-2.376,0-3.714c0.058-0.509,0.219-1.492-0.045-1.765c-0.168-0.172-0.826-0.194-1.023-0.278
			C9.438,1.653,22.939-1.867,21.361,2.756z"/>
	</g>
</g>
<g id="Frames-24px">
	<rect fill="none" width="24" height="24"/>
</g>
</svg>
