<?xml version="1.0" encoding="utf-8"?>
<!-- Generator: Adobe Illustrator 16.0.3, SVG Export Plug-In . SVG Version: 6.00 Build 0)  -->
<!DOCTYPE svg PUBLIC "-//W3C//DTD SVG 1.1//EN" "http://www.w3.org/Graphics/SVG/1.1/DTD/svg11.dtd">
<svg version="1.1" xmlns="http://www.w3.org/2000/svg" xmlns:xlink="http://www.w3.org/1999/xlink" x="0px" y="0px" width="24px"
	 height="24px" viewBox="0 0 24 24" enable-background="new 0 0 24 24" xml:space="preserve">
<g id="Outline_Icons">
	<g>
		<path fill="none" stroke="#000000" stroke-linecap="round" stroke-linejoin="round" stroke-miterlimit="10" d="M14.209,6.896
			l-7.734,7.736c-1.367,1.365-3.583,1.365-4.949,0c-1.367-1.367-1.367-3.584,0-4.951l5.656-5.655c1.367-1.368,3.583-1.368,4.949,0
			l0.225,0.225"/>
		<path fill="none" stroke="#000000" stroke-linecap="round" stroke-linejoin="round" stroke-miterlimit="10" d="M3.812,12.395
			l7.37-7.368c1.367-1.368,3.583-1.368,4.949,0"/>
		<path fill="none" stroke="#000000" stroke-linecap="round" stroke-linejoin="round" stroke-miterlimit="10" d="M8.387,17.794
			l7.77-7.768c1.367-1.368,3.583-1.368,4.95,0c1.367,1.365,1.367,3.582,0,4.948l-5.657,5.658c-1.367,1.365-3.583,1.365-4.949,0
			l-0.227-0.227"/>
		<path fill="none" stroke="#000000" stroke-linecap="round" stroke-linejoin="round" stroke-miterlimit="10" d="M18.757,12.324
			l-7.308,7.309c-1.367,1.365-3.583,1.365-4.949,0"/>
	</g>
</g>
<g id="Frames-24px">
	<rect fill="none" width="24" height="24"/>
</g>
</svg>
