<?xml version="1.0" encoding="utf-8"?>
<!-- Generator: Adobe Illustrator 16.0.3, SVG Export Plug-In . SVG Version: 6.00 Build 0)  -->
<!DOCTYPE svg PUBLIC "-//W3C//DTD SVG 1.1//EN" "http://www.w3.org/Graphics/SVG/1.1/DTD/svg11.dtd">
<svg version="1.1" xmlns="http://www.w3.org/2000/svg" xmlns:xlink="http://www.w3.org/1999/xlink" x="0px" y="0px" width="24px"
	 height="24px" viewBox="0 0 24 24" enable-background="new 0 0 24 24" xml:space="preserve">
<g id="Outline_Icons">
	<g>
		
			<circle fill="none" stroke="#000000" stroke-linecap="round" stroke-linejoin="round" stroke-miterlimit="10" cx="12" cy="12" r="11.5"/>
		<path fill="none" stroke="#000000" stroke-linejoin="round" stroke-miterlimit="10" d="M19.031,8.52
			c0,2.227-1.418,3.48-3.707,3.48h-3.355V8.438c0,0,0-3.453,3.531-3.453C17.789,4.984,19.031,6.295,19.031,8.52"/>
		<path fill="none" stroke="#000000" stroke-linejoin="round" stroke-miterlimit="10" d="M12.987,14.502
			c0.022,0.17,0.033,0.342,0.033,0.518c0,2.211-1.79,4-4,4c-2.209,0-4-1.789-4-4c0-2.209,1.791-4,4-4
			c0.162,0,0.321,0.012,0.479,0.029V14.5L12.987,14.502z"/>
		
			<line fill="none" stroke="#000000" stroke-linecap="round" stroke-linejoin="round" stroke-miterlimit="10" x1="15.5" y1="6.984" x2="15.5" y2="8.984"/>
		<g>
			<path d="M15.5,10.02c-0.276,0-0.5,0.226-0.5,0.5c0,0.277,0.224,0.5,0.5,0.5c0.275,0,0.5-0.223,0.5-0.5
				C16,10.245,15.775,10.02,15.5,10.02L15.5,10.02z"/>
		</g>
	</g>
</g>
<g id="Frames-24px">
	<rect fill="none" width="24" height="24"/>
</g>
</svg>
