<?xml version="1.0" encoding="utf-8"?>
<!-- Generator: Adobe Illustrator 16.0.3, SVG Export Plug-In . SVG Version: 6.00 Build 0)  -->
<!DOCTYPE svg PUBLIC "-//W3C//DTD SVG 1.1//EN" "http://www.w3.org/Graphics/SVG/1.1/DTD/svg11.dtd">
<svg version="1.1" xmlns="http://www.w3.org/2000/svg" xmlns:xlink="http://www.w3.org/1999/xlink" x="0px" y="0px" width="24px"
	 height="24px" viewBox="0 0 24 24" enable-background="new 0 0 24 24" xml:space="preserve">
<g id="Outline_Icons">
	<g>
		
			<circle fill="none" stroke="#000000" stroke-linecap="round" stroke-linejoin="round" stroke-miterlimit="10" cx="12" cy="12" r="11.5"/>
		<path fill="none" stroke="#000000" stroke-linejoin="round" stroke-miterlimit="10" d="M5,5.783v8.011h0.01
			c0.112,2.768,3.418,4.989,7.49,4.989c4.143,0,7.5-2.297,7.5-5.133c0-2.832-3.357-5.131-7.5-5.131c-1.812,0-3.595,0.44-4.892,1.174
			v-3.91H5z M12.5,10.23c2.637,0,4.772,1.533,4.772,3.42c0,1.891-2.136,3.422-4.772,3.422c-2.636,0-4.773-1.532-4.773-3.422
			C7.727,11.764,9.865,10.23,12.5,10.23 M10.5,13.65c0-0.791,0.896-1.432,2-1.432c1.105,0,2,0.641,2,1.432
			c0,0.793-0.895,1.434-2,1.434C11.396,15.084,10.5,14.443,10.5,13.65"/>
	</g>
</g>
<g id="Frames-24px">
	<rect fill="none" width="24" height="24"/>
</g>
</svg>
