<?xml version="1.0" encoding="utf-8"?>
<!-- Generator: Adobe Illustrator 16.0.3, SVG Export Plug-In . SVG Version: 6.00 Build 0)  -->
<!DOCTYPE svg PUBLIC "-//W3C//DTD SVG 1.1//EN" "http://www.w3.org/Graphics/SVG/1.1/DTD/svg11.dtd">
<svg version="1.1" xmlns="http://www.w3.org/2000/svg" xmlns:xlink="http://www.w3.org/1999/xlink" x="0px" y="0px" width="24px"
	 height="24px" viewBox="0 0 24 24" enable-background="new 0 0 24 24" xml:space="preserve">
<g id="Outline_Icons">
	<g>
		
			<circle fill="none" stroke="#000000" stroke-linecap="round" stroke-linejoin="round" stroke-miterlimit="10" cx="12" cy="12.004" r="11.5"/>
		<path fill="none" stroke="#000000" stroke-linecap="round" stroke-linejoin="round" stroke-miterlimit="10" d="M8.242,13.331
			c-0.428-0.683-0.674-1.486-0.674-2.35c0-2.447,1.984-4.43,4.432-4.43s4.432,1.983,4.432,4.43c0,0.867-0.248,1.676-0.68,2.359"/>
		<path fill="none" stroke="#000000" stroke-linecap="round" stroke-linejoin="round" stroke-miterlimit="10" d="M7.229,15.363
			c-1.06-1.153-1.706-2.692-1.706-4.382c0-3.577,2.899-6.477,6.477-6.477c3.578,0,6.478,2.9,6.478,6.477
			c0,1.68-0.64,3.211-1.689,4.362"/>
		<path fill="none" stroke="#000000" stroke-linecap="round" stroke-linejoin="round" stroke-miterlimit="10" d="M14.219,14.882
			c0.043-0.386-0.081-0.771-0.34-1.06c-0.259-0.29-0.629-0.455-1.016-0.455h-1.727c-0.387,0-0.757,0.165-1.016,0.455
			c-0.259,0.288-0.382,0.673-0.339,1.06l0.378,3.408c0.077,0.69,0.661,1.214,1.355,1.214h0.969c0.695,0,1.278-0.523,1.354-1.214
			L14.219,14.882z"/>
		
			<circle fill="none" stroke="#000000" stroke-linecap="round" stroke-linejoin="round" stroke-miterlimit="10" cx="12" cy="10.328" r="1.705"/>
	</g>
</g>
<g id="Frames-24px">
	<rect fill="none" width="24" height="24"/>
</g>
</svg>
