<?xml version="1.0" encoding="utf-8"?>
<!-- Generator: Adobe Illustrator 16.0.3, SVG Export Plug-In . SVG Version: 6.00 Build 0)  -->
<!DOCTYPE svg PUBLIC "-//W3C//DTD SVG 1.1//EN" "http://www.w3.org/Graphics/SVG/1.1/DTD/svg11.dtd">
<svg version="1.1" xmlns="http://www.w3.org/2000/svg" xmlns:xlink="http://www.w3.org/1999/xlink" x="0px" y="0px" width="24px"
	 height="24px" viewBox="0 0 24 24" enable-background="new 0 0 24 24" xml:space="preserve">
<g id="Outline_Icons">
	<g>
		<path fill="none" stroke="#000000" stroke-linejoin="round" stroke-miterlimit="10" d="M10.5,14.5h2v9h8.53
			c0.179,0,0.343-0.088,0.441-0.237c0.098-0.148,0.113-0.338,0.043-0.501L11.987,0.818C11.903,0.624,11.713,0.5,11.503,0.5l0,0
			c-0.21,0-0.4,0.124-0.483,0.317L1.46,22.761c-0.071,0.164-0.055,0.352,0.043,0.501c0.098,0.149,0.263,0.237,0.44,0.237H10.5V14.5z
			"/>
		
			<line fill="none" stroke="#000000" stroke-linejoin="round" stroke-miterlimit="10" x1="12.5" y1="17.241" x2="14.938" y2="15.917"/>
		
			<line fill="none" stroke="#000000" stroke-linejoin="round" stroke-miterlimit="10" x1="10.5" y1="18.181" x2="8.188" y2="16.938"/>
		
			<line fill="none" stroke="#000000" stroke-linejoin="round" stroke-miterlimit="10" x1="12.5" y1="19.631" x2="16.5" y2="17.591"/>
	</g>
</g>
<g id="Frames-24px">
	<rect fill="none" width="24" height="24"/>
</g>
</svg>
