<?xml version="1.0" encoding="utf-8"?>
<!-- Generator: Adobe Illustrator 16.0.3, SVG Export Plug-In . SVG Version: 6.00 Build 0)  -->
<!DOCTYPE svg PUBLIC "-//W3C//DTD SVG 1.1//EN" "http://www.w3.org/Graphics/SVG/1.1/DTD/svg11.dtd">
<svg version="1.1" xmlns="http://www.w3.org/2000/svg" xmlns:xlink="http://www.w3.org/1999/xlink" x="0px" y="0px" width="24px"
	 height="24px" viewBox="0 0 24 24" enable-background="new 0 0 24 24" xml:space="preserve">
<g id="Outline_Icons">
	<path fill="none" stroke="#000000" stroke-linejoin="round" stroke-miterlimit="10" d="M3.778,7.66c0,0-1.466-0.956-2.74-2.932
		c-0.829-1.019,0.51-2.709,1.944-1.689c1.434,1.02,2.708,2.614,1.976,3.283c-0.733,0.669-1.307-0.573-1.18-2.104
		c0.128-1.53,0.733-2.836,1.657-2.709C6.36,1.636,6.902,2.561,6.169,6.991c0,0.032,8.35,0.828,8.255,8.382
		c0,1.371-2.094,2.294-2.465,2.294c0.308,0.309,1.54,2.614-0.979,3.92c-2.518,1.306-5.927,2.007-6.438,0.414
		c-0.509-1.593,2.837-3.441,4.781-2.933c-0.638-0.891-1.657-3.154,0.191-4.97c1.848-1.817,5.29,0.764,6.788,1.72
		s1.594,1.084,3.251,0.447c1.656-0.638,2.071-0.701,2.772-0.956c0.701-0.255,1.721,0.127,0.318,1.465
		c-1.402,1.338-5.418,3.792-12.11,4.207c-2.932,0.095-4.717-2.327-4.908-4.048c-0.191-1.72,0.256-3.22,0.988-3.729
		c0.732-0.509,1.786,0.921,0.478,1.147c-1.308,0.226-2.613,0-2.995-0.127c0,0.637-0.255,2.009-1.371,1.244
		c-1.115-0.765,0.256-1.721,0.733-2.041c0.479-0.318,3.092-1.751,1.944-4.079c-0.414,0.989-1.689,2.954-3.155,3.463
		C0.479,13.428-0.21,11.29,1,9.982C2.211,8.677,3.778,7.66,3.778,7.66z"/>
</g>
<g id="Frames-24px">
	<rect fill="none" width="24" height="24"/>
</g>
</svg>
