<?xml version="1.0" encoding="utf-8"?>
<!-- Generator: Adobe Illustrator 16.0.3, SVG Export Plug-In . SVG Version: 6.00 Build 0)  -->
<!DOCTYPE svg PUBLIC "-//W3C//DTD SVG 1.1//EN" "http://www.w3.org/Graphics/SVG/1.1/DTD/svg11.dtd">
<svg version="1.1" xmlns="http://www.w3.org/2000/svg" xmlns:xlink="http://www.w3.org/1999/xlink" x="0px" y="0px" width="24px"
	 height="24px" viewBox="0 0 24 24" enable-background="new 0 0 24 24" xml:space="preserve">
<g id="Outline_Icons">
	<g>
		
			<circle fill="none" stroke="#000000" stroke-linecap="round" stroke-linejoin="round" stroke-miterlimit="10" cx="12" cy="12" r="11.5"/>
		
			<circle fill="none" stroke="#000000" stroke-linecap="round" stroke-linejoin="round" stroke-miterlimit="10" cx="12" cy="12" r="8.5"/>
		
			<circle fill="none" stroke="#000000" stroke-linecap="round" stroke-linejoin="round" stroke-miterlimit="10" cx="12" cy="12" r="1.5"/>
		<path fill="none" stroke="#000000" stroke-linejoin="round" stroke-miterlimit="10" d="M12.961,8.284
			c1.348,0.349,2.408,1.409,2.755,2.756l2.283-0.002C17.588,8.454,15.548,6.414,12.965,6L12.961,8.284z M11.041,6
			C8.453,6.411,6.41,8.482,6,11.04h2.284c0.346-1.279,1.413-2.404,2.757-2.754V6z M12.959,18c2.588-0.41,4.631-2.454,5.041-5.04
			l-2.284-0.001c-0.346,1.345-1.402,2.404-2.745,2.756L12.959,18z M11.041,15.717c-1.279-0.349-2.41-1.41-2.757-2.758l-2.282,0.004
			c0.411,2.586,2.48,4.627,5.039,5.038V15.717z"/>
	</g>
</g>
<g id="Frames-24px">
	<rect fill="none" width="24" height="24"/>
</g>
</svg>
