<?xml version="1.0" encoding="utf-8"?>
<!-- Generator: Adobe Illustrator 16.0.3, SVG Export Plug-In . SVG Version: 6.00 Build 0)  -->
<!DOCTYPE svg PUBLIC "-//W3C//DTD SVG 1.1//EN" "http://www.w3.org/Graphics/SVG/1.1/DTD/svg11.dtd">
<svg version="1.1" xmlns="http://www.w3.org/2000/svg" xmlns:xlink="http://www.w3.org/1999/xlink" x="0px" y="0px" width="24px"
	 height="24px" viewBox="0 0 24 24" enable-background="new 0 0 24 24" xml:space="preserve">
<g id="Outline_Icons">
	<g>
		
			<circle fill="none" stroke="#000000" stroke-linecap="round" stroke-linejoin="round" stroke-miterlimit="10" cx="12" cy="12" r="11.5"/>
		<g>
			<g>
				<path d="M13.218,8.055c-0.337,0-0.609,0.272-0.609,0.607c0,0.336,0.272,0.609,0.609,0.609c0.336,0,0.608-0.273,0.608-0.609
					C13.826,8.327,13.554,8.055,13.218,8.055L13.218,8.055z"/>
			</g>
			<g>
				<path d="M10.479,8.055c-0.337,0-0.609,0.272-0.609,0.607c0,0.336,0.272,0.609,0.609,0.609c0.336,0,0.608-0.273,0.608-0.609
					C11.087,8.327,10.814,8.055,10.479,8.055L10.479,8.055z"/>
			</g>
			<g>
				<path d="M14.739,5.125c-0.337,0-0.608,0.273-0.608,0.609c0,0.335,0.271,0.607,0.608,0.607c0.336,0,0.608-0.272,0.608-0.607
					C15.348,5.398,15.075,5.125,14.739,5.125L14.739,5.125z"/>
			</g>
			<g>
				<path d="M9.261,5.125c-0.336,0-0.608,0.273-0.608,0.609c0,0.335,0.272,0.607,0.608,0.607c0.337,0,0.608-0.272,0.608-0.607
					C9.869,5.398,9.598,5.125,9.261,5.125L9.261,5.125z"/>
			</g>
			<g>
				<path d="M14.739,17.907c-0.337,0-0.608,0.272-0.608,0.61c0,0.334,0.271,0.607,0.608,0.607c0.336,0,0.608-0.273,0.608-0.607
					C15.348,18.18,15.075,17.907,14.739,17.907L14.739,17.907z"/>
			</g>
			<g>
				<path d="M9.261,17.907c-0.336,0-0.608,0.272-0.608,0.61c0,0.334,0.272,0.607,0.608,0.607c0.337,0,0.608-0.273,0.608-0.607
					C9.869,18.18,9.598,17.907,9.261,17.907L9.261,17.907z"/>
			</g>
			<g>
				<path d="M18.391,14.255c-0.336,0-0.608,0.273-0.608,0.61c0,0.334,0.272,0.607,0.608,0.607c0.337,0,0.609-0.273,0.609-0.607
					C19,14.528,18.728,14.255,18.391,14.255L18.391,14.255z"/>
			</g>
			<g>
				<path d="M18.391,8.777c-0.336,0-0.608,0.271-0.608,0.607c0,0.338,0.272,0.609,0.608,0.609C18.728,9.994,19,9.723,19,9.385
					C19,9.049,18.728,8.777,18.391,8.777L18.391,8.777z"/>
			</g>
			<g>
				<path d="M5.608,14.255C5.272,14.255,5,14.528,5,14.865c0,0.334,0.272,0.607,0.608,0.607c0.337,0,0.609-0.273,0.609-0.607
					C6.218,14.528,5.945,14.255,5.608,14.255L5.608,14.255z"/>
			</g>
			<g>
				<path d="M5.608,8.777C5.272,8.777,5,9.049,5,9.385c0,0.338,0.272,0.609,0.608,0.609c0.337,0,0.609-0.271,0.609-0.609
					C6.218,9.049,5.945,8.777,5.608,8.777L5.608,8.777z"/>
			</g>
			<g>
				<path d="M13.218,14.75c-0.337,0-0.609,0.271-0.609,0.608c0,0.336,0.272,0.608,0.609,0.608c0.336,0,0.608-0.272,0.608-0.608
					C13.826,15.021,13.554,14.75,13.218,14.75L13.218,14.75z"/>
			</g>
			<g>
				<path d="M10.479,14.75c-0.337,0-0.609,0.271-0.609,0.608c0,0.336,0.272,0.608,0.609,0.608c0.336,0,0.608-0.272,0.608-0.608
					C11.087,15.021,10.814,14.75,10.479,14.75L10.479,14.75z"/>
			</g>
			<g>
				<path d="M15.195,12.771c-0.336,0-0.608,0.272-0.608,0.609c0,0.336,0.272,0.607,0.608,0.607c0.337,0,0.609-0.271,0.609-0.607
					C15.805,13.044,15.532,12.771,15.195,12.771L15.195,12.771z"/>
			</g>
			<g>
				<path d="M15.195,10.032c-0.336,0-0.608,0.272-0.608,0.609c0,0.336,0.272,0.608,0.608,0.608c0.337,0,0.609-0.272,0.609-0.608
					C15.805,10.305,15.532,10.032,15.195,10.032L15.195,10.032z"/>
			</g>
			<g>
				<path d="M8.5,12.771c-0.336,0-0.609,0.272-0.609,0.609c0,0.336,0.273,0.607,0.609,0.607s0.608-0.271,0.608-0.607
					C9.108,13.044,8.836,12.771,8.5,12.771L8.5,12.771z"/>
			</g>
			<g>
				<path d="M8.5,10.032c-0.336,0-0.609,0.272-0.609,0.609c0,0.336,0.273,0.608,0.609,0.608s0.608-0.272,0.608-0.608
					C9.108,10.305,8.836,10.032,8.5,10.032L8.5,10.032z"/>
			</g>
		</g>
	</g>
</g>
<g id="Frames-24px">
	<rect fill="none" width="24" height="24"/>
</g>
</svg>
