<?xml version="1.0" encoding="utf-8"?>
<!-- Generator: Adobe Illustrator 16.0.3, SVG Export Plug-In . SVG Version: 6.00 Build 0)  -->
<!DOCTYPE svg PUBLIC "-//W3C//DTD SVG 1.1//EN" "http://www.w3.org/Graphics/SVG/1.1/DTD/svg11.dtd">
<svg version="1.1" xmlns="http://www.w3.org/2000/svg" xmlns:xlink="http://www.w3.org/1999/xlink" x="0px" y="0px" width="24px"
	 height="24px" viewBox="0 0 24 24" enable-background="new 0 0 24 24" xml:space="preserve">
<g id="Outline_Icons">
	<g>
		<path fill="none" stroke="#000000" stroke-linecap="round" stroke-linejoin="round" stroke-miterlimit="10" d="M12.422,9.87
			c0.17-0.108,0.332-0.23,0.48-0.37c0.41-0.386,0.72-0.881,0.851-1.424c0.228-0.813-0.037-1.521-0.581-1.911
			c-0.286-0.207-0.649-0.328-1.062-0.328h-2.39L9.645,6.165l-0.97,4.151h2.289C11.472,10.316,11.979,10.148,12.422,9.87z"/>
		<path fill="none" stroke="#000000" stroke-linecap="round" stroke-linejoin="round" stroke-miterlimit="10" d="M1.615,19.491
			L5.589,2.5h8.313c2.49,0,5.265,1.79,4.43,5.576C17.6,11.401,14.85,13.5,11.473,13.5H7.988l-1.494,5.991H1.615z"/>
		<path fill="none" stroke="#000000" stroke-linecap="round" stroke-linejoin="round" stroke-miterlimit="10" d="M20.985,7.688
			c0.587,1.042,0.618,2.25,0.363,3.405c-0.715,3.246-3.344,5.354-6.713,5.405c-0.317,0.007-3.291,0.003-3.609,0.003l-1.517,6.006
			H4.631l0.34-1.511"/>
	</g>
</g>
<g id="Frames-24px">
	<rect fill="none" width="24" height="24"/>
</g>
</svg>
