<?xml version="1.0" encoding="utf-8"?>
<!-- Generator: Adobe Illustrator 16.0.3, SVG Export Plug-In . SVG Version: 6.00 Build 0)  -->
<!DOCTYPE svg PUBLIC "-//W3C//DTD SVG 1.1//EN" "http://www.w3.org/Graphics/SVG/1.1/DTD/svg11.dtd">
<svg version="1.1" xmlns="http://www.w3.org/2000/svg" xmlns:xlink="http://www.w3.org/1999/xlink" x="0px" y="0px" width="24px"
	 height="24px" viewBox="0 0 24 24" enable-background="new 0 0 24 24" xml:space="preserve">
<g id="Outline_Icons">
	<g>
		
			<circle fill="none" stroke="#000000" stroke-linecap="round" stroke-linejoin="round" stroke-miterlimit="10" cx="12" cy="12" r="11.5"/>
		<g>
			<circle fill="none" stroke="#000000" stroke-linejoin="round" stroke-miterlimit="10" cx="12.005" cy="7.91" r="3.911"/>
			<circle fill="none" stroke="#000000" stroke-linejoin="round" stroke-miterlimit="10" cx="12.005" cy="7.91" r="1.738"/>
			<path fill="none" stroke="#000000" stroke-linejoin="round" stroke-miterlimit="10" d="M14.023,15.469
				c0.959-0.271,1.841-0.729,2.598-1.336c0.465-0.371,0.485-1.075,0.071-1.502l-0.084-0.087c-0.375-0.388-0.972-0.396-1.397-0.065
				c-0.885,0.691-1.997,1.104-3.206,1.104c-1.211,0-2.325-0.414-3.211-1.107c-0.424-0.332-1.019-0.324-1.396,0.061l-0.089,0.09
				c-0.415,0.424-0.396,1.125,0.065,1.496c0.77,0.621,1.667,1.086,2.645,1.359l-2.294,2.293c-0.509,0.51-0.509,1.335,0,1.846
				c0.509,0.508,1.334,0.508,1.844,0l2.458-2.459l2.457,2.459c0.51,0.508,1.335,0.508,1.844,0c0.509-0.511,0.509-1.336,0-1.846
				L14.023,15.469z"/>
		</g>
	</g>
</g>
<g id="Frames-24px">
	<rect fill="none" width="24" height="24"/>
</g>
</svg>
