<?xml version="1.0" encoding="utf-8"?>
<!-- Generator: Adobe Illustrator 16.0.3, SVG Export Plug-In . SVG Version: 6.00 Build 0)  -->
<!DOCTYPE svg PUBLIC "-//W3C//DTD SVG 1.1//EN" "http://www.w3.org/Graphics/SVG/1.1/DTD/svg11.dtd">
<svg version="1.1" xmlns="http://www.w3.org/2000/svg" xmlns:xlink="http://www.w3.org/1999/xlink" x="0px" y="0px" width="24px"
	 height="24px" viewBox="0 0 24 24" enable-background="new 0 0 24 24" xml:space="preserve">
<g id="Outline_Icons">
	<g>
		
			<circle fill="none" stroke="#000000" stroke-linecap="round" stroke-linejoin="round" stroke-miterlimit="10" cx="12" cy="12.004" r="11.5"/>
		<g>
			<path fill="none" stroke="#000000" stroke-linejoin="round" stroke-miterlimit="10" d="M11.335,14.186
				c-0.208-0.243-0.269-0.608-0.187-1.147c0.197-1.309,0.426-3.045,0.426-3.045c0.017-0.125,0.121-0.219,0.247-0.219
				c0.538,0,1.062-0.12,1.432,0.302c0.197,0.224,0.269,0.559,0.212,0.99c-0.012,0.084-0.441,3.132-0.447,3.205
				c-0.01,0.13-0.119,0.229-0.249,0.229C12.262,14.508,11.66,14.563,11.335,14.186z"/>
			<path fill="none" stroke="#000000" stroke-linejoin="round" stroke-miterlimit="10" d="M12.623,8.796
				c-0.49,0-0.896-0.283-1.006-0.706c-0.137-0.522,0.236-1.073,0.83-1.228c0.591-0.156,1.191,0.15,1.326,0.664
				c0.068,0.261,0.013,0.533-0.154,0.769c-0.156,0.222-0.397,0.386-0.677,0.459C12.837,8.781,12.73,8.796,12.623,8.796z"/>
		</g>
		<path fill="none" stroke="#000000" stroke-linejoin="round" stroke-miterlimit="10" d="M18.799,14.555
			c-0.896,0-1.307-0.745-1.674-1.513c-0.076,0.531-0.164,1.137-0.17,1.231c-0.012,0.13-0.119,0.23-0.25,0.23
			c-0.507,0.005-1.108,0.062-1.434-0.317c-0.209-0.242-0.27-0.607-0.188-1.147c0.197-1.31,0.666-4.695,0.666-4.695
			c0.016-0.124,0.122-0.218,0.247-0.218c0.539,0,1.05-0.131,1.431,0.303c0.198,0.225,0.269,0.559,0.213,0.99
			c-0.048,0.361-0.121,0.886-0.203,1.461c0.241-0.295,0.521-0.617,0.719-0.83c0.533-0.57,2.249-0.482,2.35-0.252
			c0.039,0.093,0.021,0.197-0.046,0.27c-0.055,0.059-1.249,1.353-1.751,1.871c0.416,0.937,0.873,1.307,1.087,1.323
			c0.137,0.011,0.239,0.13,0.229,0.266C20.008,13.805,19.684,14.555,18.799,14.555z"/>
		<path fill="none" stroke="#000000" stroke-linejoin="round" stroke-miterlimit="10" d="M9.324,10.15
			C8.908,9.638,8.33,9.476,7.682,9.476c-0.83,0-2.801,0.26-3.147,2.674c-0.337,2.345,1.942,2.763,2.847,2.327
			c-0.041,0.438,0.025,0.761,0.203,0.992c0.324,0.422,0.857,0.379,1.383,0.369c0.125,0,0.23-0.093,0.247-0.217
			c0,0,0.266-1.982,0.499-3.593C9.828,11.243,9.697,10.61,9.324,10.15z M7.038,12.67c-0.643-0.033-0.356-1.37,0.274-1.232
			C7.961,11.577,7.661,12.688,7.038,12.67z"/>
	</g>
</g>
<g id="Frames-24px">
	<rect fill="none" width="24" height="24"/>
</g>
</svg>
