<?xml version="1.0" encoding="utf-8"?>
<!-- Generator: Adobe Illustrator 16.0.3, SVG Export Plug-In . SVG Version: 6.00 Build 0)  -->
<!DOCTYPE svg PUBLIC "-//W3C//DTD SVG 1.1//EN" "http://www.w3.org/Graphics/SVG/1.1/DTD/svg11.dtd">
<svg version="1.1" xmlns="http://www.w3.org/2000/svg" xmlns:xlink="http://www.w3.org/1999/xlink" x="0px" y="0px" width="24px"
	 height="24px" viewBox="0 0 24 24" enable-background="new 0 0 24 24" xml:space="preserve">
<g id="Outline_Icons">
	<g>
		
			<circle fill="none" stroke="#000000" stroke-linecap="round" stroke-linejoin="round" stroke-miterlimit="10" cx="12" cy="12" r="11.5"/>
		<g>
			<circle fill="none" stroke="#000000" stroke-linejoin="round" stroke-miterlimit="10" cx="11.975" cy="11.951" r="1.529"/>
			<path fill="none" stroke="#000000" stroke-linejoin="round" stroke-miterlimit="10" d="M11.33,10.562
				c-0.102-0.513-0.397-2.151-0.445-3.83c-0.057-2.026,4.531-3.382,4.092,1.358c-0.819,1.032-1.734,2.12-2.14,2.598"/>
			<path fill="none" stroke="#000000" stroke-linejoin="round" stroke-miterlimit="10" d="M14.977,8.09
				c1.395-1.492,4.877-0.163,1.452,2.599c-1.53,0.34-2.486,0.578-3.023,0.721"/>
			<path fill="none" stroke="#000000" stroke-linejoin="round" stroke-miterlimit="10" d="M16.429,10.688
				c2.677-0.266,2.677,2.601,2.312,3.268c-0.362,0.67-1.49,1.874-3.191,0.478c-1.023-0.866-1.781-1.469-2.208-1.8"/>
			<path fill="none" stroke="#000000" stroke-linejoin="round" stroke-miterlimit="10" d="M15.55,14.435
				c1.605,2.543-1.71,4.36-2.604,1.645l-0.559-2.657"/>
			<path fill="none" stroke="#000000" stroke-linejoin="round" stroke-miterlimit="10" d="M10.953,13.186
				c-0.302,0.409-0.863,1.162-1.902,2.531c-2.161,2.848,2.66,4.536,3.517,1.682c0.207-0.688,0.378-1.319,0.378-1.319"/>
			<path fill="none" stroke="#000000" stroke-linejoin="round" stroke-miterlimit="10" d="M10.569,12.553
				c-0.504,0.154-1.476,0.458-2.934,0.927c-2.256,0.726-1.472,3.65,1.415,2.237"/>
			<path fill="none" stroke="#000000" stroke-linejoin="round" stroke-miterlimit="10" d="M10.467,11.71
				C9.395,11,8.867,9.918,7.425,10.02c-1.616,0.115-2.466,1.078-2.466,2.142c0,1.064,1.666,1.611,2.677,1.319"/>
			<path fill="none" stroke="#000000" stroke-linejoin="round" stroke-miterlimit="10" d="M11.392,10.54
				c-0.135-0.65-0.405-1.716-0.831-2.393C9.91,7.115,8.82,6.292,8.094,6.81c-0.726,0.515-1.25,1.967,0.8,3.613"/>
		</g>
	</g>
</g>
<g id="Frames-24px">
	<rect fill="none" width="24" height="24"/>
</g>
</svg>
