<?xml version="1.0" encoding="utf-8"?>
<!-- Generator: Adobe Illustrator 16.0.3, SVG Export Plug-In . SVG Version: 6.00 Build 0)  -->
<!DOCTYPE svg PUBLIC "-//W3C//DTD SVG 1.1//EN" "http://www.w3.org/Graphics/SVG/1.1/DTD/svg11.dtd">
<svg version="1.1" xmlns="http://www.w3.org/2000/svg" xmlns:xlink="http://www.w3.org/1999/xlink" x="0px" y="0px" width="24px"
	 height="24px" viewBox="0 0 24 24" enable-background="new 0 0 24 24" xml:space="preserve">
<g id="Outline_Icons">
	<g>
		<path fill="none" stroke="#000000" stroke-linejoin="round" stroke-miterlimit="10" d="M1.111,13.471c0,0-0.543-4.252-0.394-4.252
			s2.224,3.976,2.436,3.976c0.211,0,0.563-4.406,1.021-4.367c0.246-0.033,1.268,4.877,1.268,4.877"/>
		<path fill="none" stroke="#000000" stroke-linejoin="round" stroke-miterlimit="10" d="M7.037,12.032c0,0,1.455,0.353,1.525,0.211
			c0.07-0.141,0.409-1.787,0-1.971c-1.15-0.517-2.938,3.002-0.964,3.624c1.021,0.321,1.618-0.526,1.618-0.526"/>
		<path fill="none" stroke="#000000" stroke-linejoin="round" stroke-miterlimit="10" d="M10.416,12.032
			c0,0,1.455,0.353,1.525,0.211c0.07-0.141,0.41-1.787,0-1.971c-1.149-0.517-2.938,3.002-0.963,3.624
			c1.021,0.321,1.617-0.526,1.617-0.526"/>
		<path fill="none" stroke="#000000" stroke-linejoin="round" stroke-miterlimit="10" d="M14.5,7.268c-0.141,0.587,0,2.84,0,3.732
			s0.238,3.402,0.238,3.402"/>
		<path fill="none" stroke="#000000" stroke-linejoin="round" stroke-miterlimit="10" d="M13.115,11.469
			c0.634,0.118,2.411,0.113,3.045-0.122"/>
		<path fill="none" stroke="#000000" stroke-linejoin="round" stroke-miterlimit="10" d="M17.11,10.923c0,0-0.352,1.936,0.511,2.781
			c0.634-0.14,1.514-0.616,1.725-2.781"/>
		<path fill="none" stroke="#000000" stroke-linejoin="round" stroke-miterlimit="10" d="M20.58,13.704
			c7.249-1.443-1.414-9.753,0.317,2.975"/>
	</g>
</g>
<g id="Frames-24px">
	<rect fill="none" width="24" height="24"/>
</g>
</svg>
