<?xml version="1.0" encoding="utf-8"?>
<!-- Generator: Adobe Illustrator 16.0.3, SVG Export Plug-In . SVG Version: 6.00 Build 0)  -->
<!DOCTYPE svg PUBLIC "-//W3C//DTD SVG 1.1//EN" "http://www.w3.org/Graphics/SVG/1.1/DTD/svg11.dtd">
<svg version="1.1" xmlns="http://www.w3.org/2000/svg" xmlns:xlink="http://www.w3.org/1999/xlink" x="0px" y="0px" width="24px"
	 height="24px" viewBox="0 0 24 24" enable-background="new 0 0 24 24" xml:space="preserve">
<g id="Outline_Icons">
	<g>
		
			<circle fill="none" stroke="#000000" stroke-linecap="round" stroke-linejoin="round" stroke-miterlimit="10" cx="12" cy="12" r="11.5"/>
		<g>
			<path fill="none" stroke="#000000" stroke-linecap="round" stroke-linejoin="round" stroke-miterlimit="10" d="M14.001,12.469
				c-0.103-0.675-0.81-1.31-1.418-1.31c-1.538,0-3.08,1.995-3.606,3.602c-0.524,1.679-0.695,3.784,1.199,3.819
				c0.746,0,1.328-0.658,1.811-1.225c-0.006,0.855,0.414,1.208,0.853,1.208c0.657,0,1.396-0.586,2.531-1.847 M15.74,7.602
				c-0.705,2.653-3.754,9.754-3.754,9.754"/>
		</g>
		<path fill="none" stroke="#000000" stroke-linecap="round" stroke-linejoin="round" stroke-miterlimit="10" d="M7.86,12.799
			L7.348,10.83c-0.084-0.324-0.418-0.658-0.741-0.744L4.399,9.509c-0.323-0.086-0.323-0.224,0-0.31l2.207-0.578
			c0.324-0.086,0.657-0.42,0.741-0.743l0.577-2.216c0.084-0.323,0.223-0.323,0.308,0l0.576,2.216
			c0.085,0.323,0.418,0.657,0.742,0.743l2.207,0.578c0.323,0.086,0.323,0.224,0,0.31l-2.207,0.577
			c-0.324,0.086-0.657,0.42-0.742,0.744l-0.264,1.013C8.297,12.133,8.065,12.456,7.86,12.799"/>
		<path fill="none" stroke="#000000" stroke-linecap="round" stroke-linejoin="round" stroke-miterlimit="10" d="M12.087,5.836
			l0.826-0.217c0.122-0.031,0.246-0.156,0.278-0.279l0.216-0.829c0.031-0.121,0.083-0.121,0.115,0l0.216,0.829
			c0.032,0.123,0.156,0.248,0.278,0.279l0.826,0.217c0.121,0.031,0.121,0.084,0,0.115l-0.826,0.217
			c-0.122,0.031-0.246,0.157-0.278,0.279l-0.216,0.828c-0.032,0.123-0.084,0.123-0.115,0l-0.216-0.828
			c-0.032-0.122-0.156-0.248-0.278-0.279l-0.826-0.217C11.966,5.92,11.966,5.867,12.087,5.836"/>
		<path fill="none" stroke="#000000" stroke-linecap="round" stroke-linejoin="round" stroke-miterlimit="10" d="M18.548,13.726
			l1.309,0.343c0.191,0.051,0.191,0.131,0,0.182l-1.309,0.344c-0.192,0.05-0.39,0.249-0.439,0.441l-0.343,1.312
			c-0.051,0.192-0.131,0.192-0.182,0l-0.343-1.312c-0.05-0.192-0.247-0.392-0.439-0.441l-1.309-0.344
			c-0.191-0.051-0.191-0.131,0-0.182l1.309-0.343c0.191-0.052,0.39-0.248,0.439-0.442l0.343-1.312c0.051-0.191,0.131-0.191,0.182,0
			l0.343,1.312C18.158,13.478,18.355,13.674,18.548,13.726"/>
	</g>
</g>
<g id="Frames-24px">
	<rect fill="none" width="24" height="24"/>
</g>
</svg>
