<?xml version="1.0" encoding="utf-8"?>
<!-- Generator: Adobe Illustrator 16.0.3, SVG Export Plug-In . SVG Version: 6.00 Build 0)  -->
<!DOCTYPE svg PUBLIC "-//W3C//DTD SVG 1.1//EN" "http://www.w3.org/Graphics/SVG/1.1/DTD/svg11.dtd">
<svg version="1.1" xmlns="http://www.w3.org/2000/svg" xmlns:xlink="http://www.w3.org/1999/xlink" x="0px" y="0px" width="24px"
	 height="24px" viewBox="0 0 24 24" enable-background="new 0 0 24 24" xml:space="preserve">
<g id="Outline_Icons">
	<g>
		<path fill="none" stroke="#000000" stroke-linejoin="round" stroke-miterlimit="10" d="M23.486,15.04
			c0,2.513-2.021,4.549-4.516,4.549H5c-2.492,0-4.514-2.037-4.514-4.549c0-2.269,1.648-4.149,3.805-4.491
			C3.988,8.785,5.335,7.173,7.109,7.173c0.705,0,1.352,0.257,1.85,0.685C9.848,5.84,10.986,4,14.181,4
			c3.874,0,5.711,3.011,5.711,6.188c0,0.133-0.005,0.266-0.015,0.395C21.937,11.006,23.486,12.84,23.486,15.04"/>
	</g>
</g>
<g id="Frames-24px">
	<rect fill="none" width="24" height="24"/>
</g>
</svg>
