<?xml version="1.0" encoding="utf-8"?>
<!-- Generator: Adobe Illustrator 16.0.3, SVG Export Plug-In . SVG Version: 6.00 Build 0)  -->
<!DOCTYPE svg PUBLIC "-//W3C//DTD SVG 1.1//EN" "http://www.w3.org/Graphics/SVG/1.1/DTD/svg11.dtd">
<svg version="1.1" xmlns="http://www.w3.org/2000/svg" xmlns:xlink="http://www.w3.org/1999/xlink" x="0px" y="0px" width="24px"
	 height="24px" viewBox="0 0 24 24" enable-background="new 0 0 24 24" xml:space="preserve">
<g id="Outline_Icons">
	<g>
		
			<circle fill="none" stroke="#000000" stroke-linecap="round" stroke-linejoin="round" stroke-miterlimit="10" cx="12" cy="12" r="11.5"/>
		<g>
			<path fill="none" stroke="#000000" stroke-linejoin="round" stroke-miterlimit="10" d="M18.008,5.973
				c-0.094,0.291-0.861,0.421-1.031,0.64c-0.292,0.372-0.182,1.524-0.182,2.299v6.203c0,0.348-0.045,1.039,0.062,1.148
				c0.11,0.109,0.507,0.038,0.665,0.088c3.221,1.038-4.437,3.773-4.017,0.909c0.032-0.226,0.224-0.348,0.484-0.456
				c0.176-0.069,0.578-0.029,0.728-0.181c0.19-0.188,0.043-0.977,0.028-1.419c-0.002-0.08,0.016-1.455-0.028-1.517
				c-0.271-0.347-4.911,0.477-5.278,1.035c-0.174,0.266-0.005,2.449,0.034,2.507c0.123,0.197,0.634,0.108,0.752,0.149
				c0.295,0.103,0.724,0.554,0.672,1.001c-0.122,0.99-4.686,1.915-4.49,0.031c0.035-0.33,0.499-0.522,0.823-0.638
				c0.103-0.038,0.303-0.051,0.358-0.12c0.123-0.147,0.049-0.774,0-1.147c-0.135-1.112-0.162-2.456-0.181-3.6
				c-0.019-1.363-0.091-2.312-0.091-3.726c0-0.396,0.038-1.048-0.059-1.179C7.143,7.86,6.777,7.885,6.56,7.792
				c-3.743-1.609,5.852-3.67,4.093-0.759c-0.218,0.36-1.062,0.283-1.243,0.58C9.331,7.734,9.346,8.186,9.346,8.58
				c0,1.179-0.148,2.002-0.059,3.206C9.3,11.96,9.356,12.512,9.472,12.57l5.214-0.844c0.25-0.208,0.096-0.823,0.059-1.12
				c-0.104-0.906-0.092-1.549,0-2.42c0.038-0.334,0.144-0.974-0.028-1.152c-0.11-0.111-0.539-0.126-0.668-0.183
				C10.233,5.254,19.038,2.96,18.008,5.973z"/>
		</g>
	</g>
</g>
<g id="Frames-24px">
	<rect fill="none" width="24" height="24"/>
</g>
</svg>
