<?xml version="1.0" encoding="utf-8"?>
<!-- Generator: Adobe Illustrator 16.0.3, SVG Export Plug-In . SVG Version: 6.00 Build 0)  -->
<!DOCTYPE svg PUBLIC "-//W3C//DTD SVG 1.1//EN" "http://www.w3.org/Graphics/SVG/1.1/DTD/svg11.dtd">
<svg version="1.1" xmlns="http://www.w3.org/2000/svg" xmlns:xlink="http://www.w3.org/1999/xlink" x="0px" y="0px" width="24px"
	 height="24px" viewBox="0 0 24 24" enable-background="new 0 0 24 24" xml:space="preserve">
<g id="Outline_Icons">
	<g>
		
			<circle fill="none" stroke="#000000" stroke-linecap="round" stroke-linejoin="round" stroke-miterlimit="10" cx="12" cy="12" r="11.5"/>
		<g>
			<path fill="none" stroke="#000000" stroke-linejoin="round" stroke-miterlimit="10" d="M10.185,16.473
				c0.587,0.12,1.196,0.184,1.815,0.184c1.664,0,3.268-0.455,4.514-1.278c1.58-1.046,2.486-2.612,2.486-4.3
				s-0.906-3.256-2.486-4.301C15.268,5.953,13.664,5.5,12,5.5c-1.665,0-3.268,0.453-4.515,1.277C5.905,7.822,5,9.391,5,11.078
				c0,1.683,0.9,3.244,2.469,4.289L6.4,18.1L10.185,16.473z M12,8.301c2.319,0,4.199,1.243,4.199,2.777
				c0,1.535-1.88,2.777-4.199,2.777s-4.2-1.242-4.2-2.777C7.8,9.544,9.681,8.301,12,8.301z"/>
		</g>
	</g>
</g>
<g id="Frames-24px">
	<rect fill="none" width="24" height="24"/>
</g>
</svg>
