<?xml version="1.0" encoding="utf-8"?>
<!-- Generator: Adobe Illustrator 16.0.3, SVG Export Plug-In . SVG Version: 6.00 Build 0)  -->
<!DOCTYPE svg PUBLIC "-//W3C//DTD SVG 1.1//EN" "http://www.w3.org/Graphics/SVG/1.1/DTD/svg11.dtd">
<svg version="1.1" xmlns="http://www.w3.org/2000/svg" xmlns:xlink="http://www.w3.org/1999/xlink" x="0px" y="0px" width="24px"
	 height="24px" viewBox="0 0 24 24" enable-background="new 0 0 24 24" xml:space="preserve">
<g id="Outline_Icons">
	<g>
		<path fill="none" stroke="#000000" stroke-linejoin="round" stroke-miterlimit="10" d="M19.582,15.955
			c0.268-5.616-3.018-7.018-5.082-8.079c0.312,3.5-2.031,3.718-3.719,3.906c2.75-6.093-1.344-6.5-1.344-11.188
			c-6.053,4.152-6.135,11.738-5.8,15.262C1.699,16.668,0.5,17.776,0.5,19c0,2.486,4.925,4.5,11,4.5s11-2.014,11-4.5
			C22.5,17.824,21.388,16.757,19.582,15.955z"/>
		<path fill="none" stroke="#000000" stroke-linejoin="round" stroke-miterlimit="10" d="M15.814,11.281
			c-0.752,3.053-3.164,5.115-5.525,4.646c-1.798-0.356-3.061-2.078-3.357-4.248c-0.484,0.83-0.769,1.801-0.769,2.842
			c0,3.049,2.39,5.521,5.337,5.521s5.337-2.472,5.337-5.521C16.837,13.31,16.454,12.192,15.814,11.281z"/>
	</g>
</g>
<g id="Frames-24px">
	<rect fill="none" width="24" height="24"/>
</g>
</svg>
