<?xml version="1.0" encoding="utf-8"?>
<!-- Generator: Adobe Illustrator 16.0.3, SVG Export Plug-In . SVG Version: 6.00 Build 0)  -->
<!DOCTYPE svg PUBLIC "-//W3C//DTD SVG 1.1//EN" "http://www.w3.org/Graphics/SVG/1.1/DTD/svg11.dtd">
<svg version="1.1" xmlns="http://www.w3.org/2000/svg" xmlns:xlink="http://www.w3.org/1999/xlink" x="0px" y="0px" width="24px"
	 height="24px" viewBox="0 0 24 24" enable-background="new 0 0 24 24" xml:space="preserve">
<g id="Outline_Icons">
	<g>
		
			<circle fill="none" stroke="#000000" stroke-linecap="round" stroke-linejoin="round" stroke-miterlimit="10" cx="12" cy="12" r="11.5"/>
		<path fill="none" stroke="#000000" stroke-linejoin="round" stroke-miterlimit="10" d="M9.657,14.943
			c0.096-0.466-0.288-0.814-0.743-0.791c-0.432,0.036-0.791,0.336-0.862,0.708c-0.108,0.479,0.287,0.826,0.742,0.79
			C9.226,15.627,9.585,15.327,9.657,14.943L9.657,14.943z M16.572,12.103c-0.252-0.168-0.504-0.263-0.803-0.359
			c-0.288-0.095-0.336-0.144-0.229-0.432c0.072-0.203,0.133-0.384,0.156-0.623c0.132-1.078-0.743-1.402-1.738-1.318
			c-0.467,0.036-0.862,0.156-1.271,0.289c-0.264,0.084-0.755,0.358-0.862,0.19c-0.061-0.084,0.012-0.215,0.036-0.3
			c0.155-0.587,0.215-1.401-0.36-1.761c-0.419-0.266-1.15-0.193-1.594-0.037c-2.397,0.814-6.053,4.267-5.31,7.012
			c0.168,0.623,0.516,1.09,0.852,1.426c0.994,0.996,2.54,1.547,3.967,1.75c1.042,0.145,2.121,0.133,3.165-0.061
			c1.701-0.311,3.33-1.078,4.386-2.444c0.707-0.911,0.935-2.204,0-3.032C16.836,12.283,16.717,12.199,16.572,12.103L16.572,12.103z"
			/>
		<path fill="none" stroke="#000000" stroke-linecap="round" stroke-linejoin="round" stroke-miterlimit="10" d="M13.945,5.978
			c0.414-0.134,0.857-0.208,1.316-0.208c2.342,0,4.239,1.898,4.239,4.24c0,0.23-0.019,0.459-0.054,0.68"/>
		<path fill="none" stroke="#000000" stroke-linecap="round" stroke-linejoin="round" stroke-miterlimit="10" d="M14.878,7.889
			c0.207-0.074,0.43-0.115,0.662-0.115c1.081,0,1.956,0.877,1.956,1.957c0,0.217-0.035,0.426-0.099,0.619"/>
		<path fill="none" stroke="#000000" stroke-linejoin="round" stroke-miterlimit="10" d="M13.816,12.84
			c-1.487-0.936-3.477-0.946-5.083-0.42c-0.802,0.266-1.653,0.768-2.157,1.402c-0.587,0.744-0.826,1.701-0.216,2.626
			c0.899,1.341,2.99,1.589,5.321,1.413c1.247-0.286,2.578-0.982,3.141-2.18C15.35,14.578,14.774,13.451,13.816,12.84L13.816,12.84z"
			/>
	</g>
</g>
<g id="Frames-24px">
	<rect fill="none" width="24" height="24"/>
</g>
</svg>
