<?xml version="1.0" encoding="utf-8"?>
<!-- Generator: Adobe Illustrator 16.0.3, SVG Export Plug-In . SVG Version: 6.00 Build 0)  -->
<!DOCTYPE svg PUBLIC "-//W3C//DTD SVG 1.1//EN" "http://www.w3.org/Graphics/SVG/1.1/DTD/svg11.dtd">
<svg version="1.1" xmlns="http://www.w3.org/2000/svg" xmlns:xlink="http://www.w3.org/1999/xlink" x="0px" y="0px" width="24px"
	 height="24px" viewBox="0 0 24 24" enable-background="new 0 0 24 24" xml:space="preserve">
<g id="Outline_Icons">
	<g>
		
			<circle fill="none" stroke="#000000" stroke-linecap="round" stroke-linejoin="round" stroke-miterlimit="10" cx="12" cy="12" r="11.5"/>
		<path fill="none" stroke="#000000" stroke-linejoin="round" stroke-miterlimit="10" d="M19.499,15.947
			c0,1.41-1.144,2.553-2.554,2.553H7.006c-1.41,0-2.505-1.162-2.505-2.571l0.001-1.894c0-1.412,1.095-2.535,2.505-2.535h9.94
			c1.41,0,2.553,1.143,2.553,2.552L19.499,15.947z"/>
		<polyline fill="none" stroke="#000000" stroke-linecap="round" stroke-linejoin="round" stroke-miterlimit="10" points="
			6.57,4.165 8.5,6.653 8.502,9.549 		"/>
		<polyline fill="none" stroke="#000000" stroke-linecap="round" stroke-linejoin="round" stroke-miterlimit="10" points="
			10.43,4.163 8.5,6.653 8.502,9.549 		"/>
		<path fill="none" stroke="#000000" stroke-linecap="round" stroke-linejoin="round" stroke-miterlimit="10" d="M12.5,8.509
			c0,0.529-0.471,0.978-1,0.98c-0.528,0-1-0.43-1-0.958V7.473c0-0.529,0.471-0.958,1-0.958c0.527,0,1,0.407,1,0.936V8.509z"/>
		
			<line fill="none" stroke="#000000" stroke-linecap="round" stroke-linejoin="round" stroke-miterlimit="10" x1="6.531" y1="13.5" x2="8.562" y2="13.5"/>
		
			<line fill="none" stroke="#000000" stroke-linecap="round" stroke-linejoin="round" stroke-miterlimit="10" x1="7.5" y1="13.5" x2="7.5" y2="16.5"/>
		
			<line fill="none" stroke="#000000" stroke-linecap="round" stroke-linejoin="round" stroke-miterlimit="10" x1="13.5" y1="13.5" x2="13.5" y2="16.5"/>
		<path fill="none" stroke="#000000" stroke-linecap="round" stroke-linejoin="round" stroke-miterlimit="10" d="M11.5,14.5v1
			c0,0.552-0.447,1-1,1s-1-0.448-1-1v-1"/>
		<path fill="none" stroke="#000000" stroke-linecap="round" stroke-linejoin="round" stroke-miterlimit="10" d="M16.5,7v1.5
			c0,0.552-0.447,1-1,1s-1-0.448-1-1V7"/>
		<path fill="none" stroke="#000000" stroke-linecap="round" stroke-linejoin="round" stroke-miterlimit="10" d="M14.5,16
			c0-0.277-0.225-0.5-0.5-0.5h-0.5v0.925c0,0.041,0.034,0.075,0.076,0.075H14C14.275,16.5,14.5,16.276,14.5,16z"/>
		<path fill="none" stroke="#000000" stroke-linecap="round" stroke-linejoin="round" stroke-miterlimit="10" d="M17.5,16.5H17
			c-0.275,0-0.5-0.224-0.5-0.5v-1c0-0.277,0.225-0.5,0.5-0.5s0.5,0.223,0.5,0.5c0,0.276-0.225,0.5-0.5,0.5h-0.5"/>
	</g>
</g>
<g id="Frames-24px">
	<rect fill="none" width="24" height="24"/>
</g>
</svg>
