<?xml version="1.0" encoding="utf-8"?>
<!-- Generator: Adobe Illustrator 16.0.3, SVG Export Plug-In . SVG Version: 6.00 Build 0)  -->
<!DOCTYPE svg PUBLIC "-//W3C//DTD SVG 1.1//EN" "http://www.w3.org/Graphics/SVG/1.1/DTD/svg11.dtd">
<svg version="1.1" xmlns="http://www.w3.org/2000/svg" xmlns:xlink="http://www.w3.org/1999/xlink" x="0px" y="0px" width="24px"
	 height="24px" viewBox="0 0 24 24" enable-background="new 0 0 24 24" xml:space="preserve">
<g id="Outline_Icons">
	<g>
		
			<circle fill="none" stroke="#000000" stroke-linecap="round" stroke-linejoin="round" stroke-miterlimit="10" cx="12" cy="12" r="11.5"/>
		<path id="Viddler_1_" fill="none" stroke="#000000" stroke-linejoin="round" stroke-miterlimit="10" d="M16.218,13.5
			c1.796,0,3.282-1.313,3.282-3.092s-1.456-3.223-3.251-3.223c-1.632,0-3.126,1.193-3.356,2.748c0,0-0.533-2.748-3.176-2.748
			c-1.795,0-3.249,1.444-3.249,3.223c0,1.717,1.077,3.092,3.001,3.092L9.5,14.824l-4-1.002v4.285l4-1.111V18.5h5.744l-1.638-5h2.604
			H16.218L16.218,13.5z M9.717,11.318c-0.507,0-0.918-0.407-0.918-0.91s0.411-0.91,0.918-0.91s0.918,0.407,0.918,0.91
			S10.224,11.318,9.717,11.318L9.717,11.318z M15.398,10.408c0-0.503,0.41-0.91,0.917-0.91c0.508,0,0.919,0.407,0.919,0.91
			s-0.411,0.91-0.919,0.91C15.809,11.318,15.398,10.911,15.398,10.408z"/>
	</g>
</g>
<g id="Frames-24px">
	<rect fill="none" width="24" height="24"/>
</g>
</svg>
