<?xml version="1.0" encoding="utf-8"?>
<!-- Generator: Adobe Illustrator 16.0.3, SVG Export Plug-In . SVG Version: 6.00 Build 0)  -->
<!DOCTYPE svg PUBLIC "-//W3C//DTD SVG 1.1//EN" "http://www.w3.org/Graphics/SVG/1.1/DTD/svg11.dtd">
<svg version="1.1" xmlns="http://www.w3.org/2000/svg" xmlns:xlink="http://www.w3.org/1999/xlink" x="0px" y="0px" width="24px"
	 height="24px" viewBox="0 0 24 24" enable-background="new 0 0 24 24" xml:space="preserve">
<g id="Outline_Icons">
	<g>
		<path fill="none" stroke="#000000" stroke-linejoin="round" stroke-miterlimit="10" d="M11.999,0.68
			c-6.341,0-11.5,5.117-11.5,11.409c0,2.497,0.814,4.81,2.191,6.69l-1.437,4.238l4.419-1.404C7.488,22.805,9.663,23.5,12,23.5
			c6.34,0,11.499-5.118,11.499-11.41C23.499,5.799,18.341,0.68,11.999,0.68 M18.906,15.215c-0.084-0.138-0.308-0.223-0.643-0.388
			c-0.336-0.167-1.984-0.972-2.291-1.082c-0.308-0.111-0.531-0.167-0.755,0.166c-0.223,0.333-0.866,1.081-1.062,1.304
			s-0.392,0.25-0.727,0.084s-1.415-0.518-2.696-1.65c-0.997-0.883-1.669-1.971-1.864-2.305c-0.196-0.332-0.021-0.512,0.146-0.678
			C9.58,10.108,9.72,9.795,9.854,9.528C9.967,9.307,9.91,9.113,9.826,8.945C9.742,8.779,9.071,7.142,8.792,6.478
			C8.476,5.721,7.067,5.695,6.5,6.309c-1.789,1.941-1.376,4.141,0.196,6.216c0.168,0.222,2.319,3.69,5.728,5.022
			c3.408,1.331,3.408,0.887,4.023,0.831C18.214,18.219,19.41,16.055,18.906,15.215"/>
	</g>
</g>
<g id="Frames-24px">
	<rect fill="none" width="24" height="24"/>
</g>
</svg>
