<?xml version="1.0" encoding="utf-8"?>
<!-- Generator: Adobe Illustrator 16.0.3, SVG Export Plug-In . SVG Version: 6.00 Build 0)  -->
<!DOCTYPE svg PUBLIC "-//W3C//DTD SVG 1.1//EN" "http://www.w3.org/Graphics/SVG/1.1/DTD/svg11.dtd">
<svg version="1.1" xmlns="http://www.w3.org/2000/svg" xmlns:xlink="http://www.w3.org/1999/xlink" x="0px" y="0px" width="24px"
	 height="24px" viewBox="0 0 24 24" enable-background="new 0 0 24 24" xml:space="preserve">
<g id="Outline_Icons">
	<g>
		
			<circle fill="none" stroke="#000000" stroke-linecap="round" stroke-linejoin="round" stroke-miterlimit="10" cx="12" cy="12" r="11.5"/>
		<path fill="none" stroke="#000000" stroke-linejoin="round" stroke-miterlimit="10" d="M17.5,7.5h-1l-1-1h-2l-1,1h-1
			c-1.104,0-2,0.895-2,2v3c0,1.104,0.896,2,2,2h6c1.104,0,2-0.896,2-2v-3C19.5,8.395,18.604,7.5,17.5,7.5z"/>
		<rect x="5.5" y="7.5" fill="none" stroke="#000000" stroke-linejoin="round" stroke-miterlimit="10" width="2" height="7"/>
		<circle fill="none" stroke="#000000" stroke-linejoin="round" stroke-miterlimit="10" cx="14.5" cy="11" r="1.5"/>
		<g>
			<polyline fill="none" stroke="#000000" stroke-linecap="round" stroke-linejoin="round" stroke-miterlimit="10" points="
				7.75,19.627 7.75,16.627 9.055,16.627 			"/>
			
				<line fill="none" stroke="#000000" stroke-linecap="round" stroke-linejoin="round" stroke-miterlimit="10" x1="7.75" y1="18.127" x2="8.699" y2="18.127"/>
		</g>
		<g>
			
				<line fill="none" stroke="#000000" stroke-linecap="round" stroke-linejoin="round" stroke-miterlimit="10" x1="16.04" y1="19.627" x2="16.04" y2="16.627"/>
			<path fill="none" stroke="#000000" stroke-linecap="round" stroke-linejoin="round" stroke-miterlimit="10" d="M16.04,18.739
				c0,0.491-0.141,0.889-0.588,0.889c-0.445,0-0.586-0.397-0.586-0.889s0.141-0.888,0.586-0.888
				C15.899,17.851,16.04,18.248,16.04,18.739z"/>
		</g>
		<path fill="none" stroke="#000000" stroke-linecap="round" stroke-linejoin="round" stroke-miterlimit="10" d="M9.985,18.739
			c0,0.49,0.141,0.889,0.587,0.889c0.445,0,0.586-0.399,0.586-0.889c0-0.492-0.141-0.888-0.586-0.888
			C10.126,17.851,9.985,18.247,9.985,18.739z"/>
		<path fill="none" stroke="#000000" stroke-linecap="round" stroke-linejoin="round" stroke-miterlimit="10" d="M12.405,18.739
			c0,0.49,0.141,0.889,0.587,0.889c0.447,0,0.588-0.399,0.588-0.889c0-0.492-0.141-0.888-0.588-0.888
			C12.546,17.851,12.405,18.247,12.405,18.739z"/>
	</g>
</g>
<g id="Frames-24px">
	<rect fill="none" width="24" height="24"/>
</g>
</svg>
