<?xml version="1.0" encoding="utf-8"?>
<!-- Generator: Adobe Illustrator 16.0.3, SVG Export Plug-In . SVG Version: 6.00 Build 0)  -->
<!DOCTYPE svg PUBLIC "-//W3C//DTD SVG 1.1//EN" "http://www.w3.org/Graphics/SVG/1.1/DTD/svg11.dtd">
<svg version="1.1" xmlns="http://www.w3.org/2000/svg" xmlns:xlink="http://www.w3.org/1999/xlink" x="0px" y="0px" width="24px"
	 height="24px" viewBox="0 0 24 24" enable-background="new 0 0 24 24" xml:space="preserve">
<g id="Outline_Icons">
	<g>
		
			<circle fill="none" stroke="#000000" stroke-linecap="round" stroke-linejoin="round" stroke-miterlimit="10" cx="12" cy="12" r="11.5"/>
		<g>
			<circle fill="none" stroke="#000000" stroke-linejoin="round" stroke-miterlimit="10" cx="11.568" cy="15.557" r="3.526"/>
			<path fill="none" stroke="#000000" stroke-linejoin="round" stroke-miterlimit="10" d="M12.44,12.142
				c0.552-0.98,1.602-1.644,2.807-1.644c1.777,0,3.22,1.441,3.22,3.221c0,1.777-1.442,3.218-3.22,3.218
				c-0.143,0-0.282-0.009-0.42-0.026"/>
			<path fill="none" stroke="#000000" stroke-linejoin="round" stroke-miterlimit="10" d="M10.633,12.159
				c0,0,0.476-4.425-2.801-5.573"/>
			<path fill="none" stroke="#000000" stroke-linecap="round" stroke-linejoin="round" stroke-miterlimit="10" d="M6.472,7.102
				c0.536,0.102,1.967-0.18,1.743-2.02"/>
			<path fill="none" stroke="#000000" stroke-linejoin="round" stroke-miterlimit="10" d="M8.346,6.808
				c3.623-1.339,5.93,3.843,5.93,3.843"/>
			<g>
				<path d="M10.367,13.59c-0.338,0-0.613,0.275-0.613,0.613c0,0.339,0.275,0.613,0.613,0.613c0.339,0,0.613-0.274,0.613-0.613
					C10.98,13.865,10.706,13.59,10.367,13.59L10.367,13.59z"/>
			</g>
		</g>
	</g>
</g>
<g id="Frames-24px">
	<rect fill="none" width="24" height="24"/>
</g>
</svg>
