<?xml version="1.0" encoding="utf-8"?>
<!-- Generator: Adobe Illustrator 16.0.3, SVG Export Plug-In . SVG Version: 6.00 Build 0)  -->
<!DOCTYPE svg PUBLIC "-//W3C//DTD SVG 1.1//EN" "http://www.w3.org/Graphics/SVG/1.1/DTD/svg11.dtd">
<svg version="1.1" xmlns="http://www.w3.org/2000/svg" xmlns:xlink="http://www.w3.org/1999/xlink" x="0px" y="0px" width="24px"
	 height="24px" viewBox="0 0 24 24" enable-background="new 0 0 24 24" xml:space="preserve">
<g id="Outline_Icons">
	<g>
		
			<circle fill="none" stroke="#000000" stroke-linecap="round" stroke-linejoin="round" stroke-miterlimit="10" cx="12" cy="12" r="11.5"/>
		<g>
			<path fill="none" stroke="#000000" stroke-linejoin="round" stroke-miterlimit="10" d="M12.5,9.799
				C8.35,8.63,7.212,14.92,11.277,14.92c2.736,0,3.223-2.492,3.223-2.492V6.729c2.646,1.307,2.849,2.158,4.908,2.104
				c0,0,0.266-0.056,0.266,0.471c0,0.285-0.102,0.611-0.388,0.92c0,0-0.544,0.812-1.654,1.197c0.041,0.282,0.063,0.57,0.063,0.865
				c0,3.451-2.916,6.25-6.512,6.25c-3.595,0-6.51-2.799-6.51-6.25c0-4.08,4.003-6.941,7.826-6.17V9.799z"/>
		</g>
	</g>
</g>
<g id="Frames-24px">
	<rect fill="none" width="24" height="24"/>
</g>
</svg>
