<?xml version="1.0" encoding="utf-8"?>
<!-- Generator: Adobe Illustrator 16.0.3, SVG Export Plug-In . SVG Version: 6.00 Build 0)  -->
<!DOCTYPE svg PUBLIC "-//W3C//DTD SVG 1.1//EN" "http://www.w3.org/Graphics/SVG/1.1/DTD/svg11.dtd">
<svg version="1.1" xmlns="http://www.w3.org/2000/svg" xmlns:xlink="http://www.w3.org/1999/xlink" x="0px" y="0px" width="24px"
	 height="24px" viewBox="0 0 24 24" enable-background="new 0 0 24 24" xml:space="preserve">
<g id="Outline_Icons">
	<g>
		
			<circle fill="none" stroke="#000000" stroke-linecap="round" stroke-linejoin="round" stroke-miterlimit="10" cx="12" cy="12" r="11.5"/>
		<g>
			<path fill="none" stroke="#000000" stroke-linejoin="round" stroke-miterlimit="10" d="M5.682,16.5h0.563
				c0.026,0.205-0.272,1.277-0.62,1.875c0,0,2.042-0.328,2.243-1.875h10.451c0.651,0,1.181-0.744,1.181-1.398V7.684
				c0-0.652-0.529-1.184-1.181-1.184H5.682C5.029,6.5,4.5,7.031,4.5,7.684v7.418C4.5,15.756,5.029,16.5,5.682,16.5 M17.068,11.61
				c0.277,0,0.501,0.224,0.501,0.501c0,0.276-0.224,0.502-0.501,0.502c-0.275,0-0.499-0.226-0.499-0.502
				C16.569,11.834,16.793,11.61,17.068,11.61 M13.707,13.261c0.003,0.038,0.006,0.075,0.006,0.112c0,0.786-0.635,1.422-1.417,1.422
				c-0.628,0-1.159-0.41-1.347-0.977L13.707,13.261z M6.99,11.61c0.276,0,0.5,0.224,0.5,0.501c0,0.276-0.224,0.502-0.5,0.502
				c-0.275,0-0.5-0.226-0.5-0.502C6.49,11.834,6.715,11.61,6.99,11.61"/>
		</g>
	</g>
</g>
<g id="Frames-24px">
	<rect fill="none" width="24" height="24"/>
</g>
</svg>
