<?xml version="1.0" encoding="utf-8"?>
<!-- Generator: Adobe Illustrator 16.0.3, SVG Export Plug-In . SVG Version: 6.00 Build 0)  -->
<!DOCTYPE svg PUBLIC "-//W3C//DTD SVG 1.1//EN" "http://www.w3.org/Graphics/SVG/1.1/DTD/svg11.dtd">
<svg version="1.1" xmlns="http://www.w3.org/2000/svg" xmlns:xlink="http://www.w3.org/1999/xlink" x="0px" y="0px" width="24px"
	 height="24px" viewBox="0 0 24 24" enable-background="new 0 0 24 24" xml:space="preserve">
<g id="Outline_Icons">
	<g>
		<path fill="none" stroke="#000000" stroke-linejoin="round" stroke-miterlimit="10" d="M9.153,14.711
			c-0.146,0.605,0.791,0.643,0.92,0.092c0.054-0.275-0.147-0.479-0.404-0.479C9.43,14.324,9.19,14.508,9.153,14.711L9.153,14.711z
			 M8.407,16.756c0.147-0.717-0.44-1.249-1.14-1.212c-0.661,0.056-1.212,0.515-1.322,1.083c-0.166,0.736,0.441,1.27,1.14,1.214
			C7.746,17.805,8.297,17.345,8.407,16.756L8.407,16.756z M19.01,12.402c-0.386-0.259-0.772-0.404-1.23-0.551
			c-0.442-0.148-0.516-0.222-0.35-0.662c0.109-0.313,0.202-0.588,0.238-0.957c0.202-1.653-1.139-2.149-2.664-2.021
			c-0.717,0.056-1.322,0.239-1.948,0.44c-0.404,0.129-1.158,0.552-1.323,0.295c-0.092-0.129,0.019-0.331,0.056-0.46
			c0.238-0.899,0.331-2.149-0.552-2.7c-0.643-0.405-1.764-0.295-2.443-0.056C5.117,6.98-0.486,12.273,0.652,16.48
			c0.257,0.957,0.79,1.672,1.305,2.188c1.525,1.525,3.896,2.371,6.082,2.684c1.599,0.22,3.253,0.201,4.852-0.094
			c2.609-0.477,5.108-1.652,6.726-3.747c1.084-1.397,1.433-3.382,0-4.649C19.414,12.678,19.23,12.549,19.01,12.402L19.01,12.402z"/>
		<path fill="none" stroke="#000000" stroke-linecap="round" stroke-linejoin="round" stroke-miterlimit="10" d="M14.981,3.012
			c0.636-0.207,1.313-0.32,2.019-0.32c3.59,0,6.5,2.911,6.5,6.5c0,0.355-0.028,0.704-0.083,1.045"/>
		<path fill="none" stroke="#000000" stroke-linecap="round" stroke-linejoin="round" stroke-miterlimit="10" d="M16.412,5.941
			c0.316-0.114,0.659-0.176,1.015-0.176c1.657,0,3,1.342,3,3c0,0.331-0.054,0.65-0.153,0.949"/>
		<path fill="none" stroke="#000000" stroke-linejoin="round" stroke-miterlimit="10" d="M14.783,13.531
			c-2.279-1.433-5.329-1.451-7.792-0.643c-1.23,0.404-2.535,1.176-3.307,2.15c-0.9,1.139-1.269,2.609-0.331,4.023
			c1.378,2.058,4.584,2.438,8.158,2.169c1.912-0.442,3.951-1.508,4.815-3.345C17.136,16.195,16.253,14.469,14.783,13.531
			L14.783,13.531z"/>
	</g>
</g>
<g id="Frames-24px">
	<rect fill="none" width="24" height="24"/>
</g>
</svg>
