<?xml version="1.0" encoding="utf-8"?>
<!-- Generator: Adobe Illustrator 16.0.3, SVG Export Plug-In . SVG Version: 6.00 Build 0)  -->
<!DOCTYPE svg PUBLIC "-//W3C//DTD SVG 1.1//EN" "http://www.w3.org/Graphics/SVG/1.1/DTD/svg11.dtd">
<svg version="1.1" xmlns="http://www.w3.org/2000/svg" xmlns:xlink="http://www.w3.org/1999/xlink" x="0px" y="0px" width="24px"
	 height="24px" viewBox="0 0 24 24" enable-background="new 0 0 24 24" xml:space="preserve">
<g id="Outline_Icons">
	<g>
		
			<circle fill="none" stroke="#000000" stroke-linecap="round" stroke-linejoin="round" stroke-miterlimit="10" cx="12" cy="12" r="11.5"/>
		<g>
			<path fill="none" stroke="#000000" stroke-linecap="round" stroke-linejoin="round" stroke-miterlimit="10" d="M13.357,10.048
				c0.267-0.25,0.468-0.573,0.553-0.927C14.139,8.303,13.598,7.5,12.843,7.5h-1.552c-0.078,0.593-0.531,2.38-0.68,3h1.486
				C12.631,10.5,12.967,10.416,13.357,10.048z"/>
			<path fill="none" stroke="#000000" stroke-linecap="round" stroke-linejoin="round" stroke-miterlimit="10" d="M6.025,16.5
				l2.582-11h5.4c1.617,0,3.419,1.162,2.877,3.622c-0.477,2.162-2.263,3.378-4.456,3.378h-2.265l-0.97,4H6.025z"/>
			<path fill="none" stroke="#000000" stroke-linecap="round" stroke-linejoin="round" stroke-miterlimit="10" d="M18.607,8.87
				c0.381,0.678,0.401,1.462,0.236,2.211c-0.465,2.11-2.172,3.385-4.361,3.418c-0.206,0.004-2.137,0-2.344,0l-0.985,4H7.984"/>
		</g>
	</g>
</g>
<g id="Frames-24px">
	<rect fill="none" width="24" height="24"/>
</g>
</svg>
