<?xml version="1.0" encoding="utf-8"?>
<!-- Generator: Adobe Illustrator 16.0.3, SVG Export Plug-In . SVG Version: 6.00 Build 0)  -->
<!DOCTYPE svg PUBLIC "-//W3C//DTD SVG 1.1//EN" "http://www.w3.org/Graphics/SVG/1.1/DTD/svg11.dtd">
<svg version="1.1" xmlns="http://www.w3.org/2000/svg" xmlns:xlink="http://www.w3.org/1999/xlink" x="0px" y="0px" width="24px"
	 height="24px" viewBox="0 0 24 24" enable-background="new 0 0 24 24" xml:space="preserve">
<g id="Outline_Icons">
	<g>
		<path fill="none" stroke="#000000" stroke-linecap="round" stroke-linejoin="round" stroke-miterlimit="10" d="M6.487,13.445
			C5.861,12.447,5.5,11.266,5.5,10c0-3.59,2.91-6.5,6.5-6.5s6.5,2.91,6.5,6.5c0,1.271-0.365,2.457-0.997,3.46"/>
		<path fill="none" stroke="#000000" stroke-linecap="round" stroke-linejoin="round" stroke-miterlimit="10" d="M5.003,16.426
			C3.449,14.734,2.5,12.478,2.5,10c0-5.247,4.254-9.5,9.5-9.5s9.5,4.253,9.5,9.5c0,2.465-0.938,4.709-2.477,6.398"/>
		<path fill="none" stroke="#000000" stroke-linecap="round" stroke-linejoin="round" stroke-miterlimit="10" d="M15.253,15.721
			c0.063-0.565-0.118-1.131-0.497-1.555c-0.38-0.423-0.922-0.666-1.49-0.666h-2.531c-0.568,0-1.111,0.243-1.49,0.666
			c-0.379,0.424-0.561,0.989-0.498,1.555l0.557,5c0.112,1.014,0.969,1.779,1.987,1.779h1.42c1.02,0,1.875-0.766,1.987-1.779
			L15.253,15.721z"/>
		
			<circle fill="none" stroke="#000000" stroke-linecap="round" stroke-linejoin="round" stroke-miterlimit="10" cx="12" cy="9.042" r="2.5"/>
	</g>
</g>
<g id="Frames-24px">
	<rect fill="none" width="24" height="24"/>
</g>
</svg>
