<?xml version="1.0" encoding="utf-8"?>
<!-- Generator: Adobe Illustrator 16.0.3, SVG Export Plug-In . SVG Version: 6.00 Build 0)  -->
<!DOCTYPE svg PUBLIC "-//W3C//DTD SVG 1.1//EN" "http://www.w3.org/Graphics/SVG/1.1/DTD/svg11.dtd">
<svg version="1.1" xmlns="http://www.w3.org/2000/svg" xmlns:xlink="http://www.w3.org/1999/xlink" x="0px" y="0px" width="24px"
	 height="24px" viewBox="0 0 24 24" enable-background="new 0 0 24 24" xml:space="preserve">
<g id="Outline_Icons">
	<g>
		
			<circle fill="none" stroke="#000000" stroke-linecap="round" stroke-linejoin="round" stroke-miterlimit="10" cx="12" cy="12" r="11.5"/>
		<path id="Squidoo_1_" fill="none" stroke="#000000" stroke-linejoin="round" stroke-miterlimit="10" d="M17.432,16.447
			c-0.195,0.652-0.813,1.045-1.381,0.874c-0.566-0.171-0.867-0.837-0.672-1.491c0.195-0.65,0.812-1.043,1.379-0.873
			S17.626,15.794,17.432,16.447z M15.041,19.498c-1.4-0.159-2.434-1.336-2.682-2.688c-0.155-0.848,0.022-1.471-0.536-1.678
			c-0.977-0.367-2.253,0.284-3.485,0.133c-1.131-0.139-1.975-0.996-2.011-2.418c-0.034-1.305,0.921-3.092-0.401-3.693
			c0.562,0.118,1.026,0.242,1.273,0.739c0.526,1.062-0.306,3.12,0.604,3.692c0.446,0.283,1.254,0.14,1.809,0.068
			c0.633-0.082,1.075-0.281,1.676-0.27c-0.349-0.476-0.894-0.588-1.273-0.873c-0.456-0.342-1.105-0.956-1.407-1.543
			C8.077,9.938,8.17,8.082,7.399,7.408C6.815,6.896,5.842,6.885,4.854,7.072c0.685-0.578,2.43-0.676,3.082-0.201
			c0.879,0.64,0.689,2.428,1.475,3.357c0.355,0.42,0.881,0.582,1.273,0.74c0.449,0.18,0.935,0.352,1.608,0.402
			c0.511-2.221-1.21-2.523-2.278-3.492C9.216,7.156,8.686,6.304,8.807,4.521c0.17,0.931,0.35,1.694,1.006,2.216
			c0.441,0.352,1.057,0.463,1.542,0.739c1.168,0.666,2.23,1.743,2.547,3.356c0.253-0.143,0.431-0.484,0.67-0.803
			c0.231-0.311,0.524-0.578,0.536-1.01c0.016-0.617-0.422-1.109-0.805-1.409c-0.933-0.737-2.648-0.55-2.278-2.553
			c0.166,0.499,0.202,1.056,0.604,1.345c0.572,0.412,1.477,0.41,2.145,0.803c0.587,0.348,1.479,1.122,1.474,2.15
			c-0.004,1.162-1.162,1.622-0.67,2.955c1.156,0.316,1.736,0.344,2.346,0.873C20.308,15.256,18.559,19.894,15.041,19.498
			L15.041,19.498z"/>
	</g>
</g>
<g id="Frames-24px">
	<rect fill="none" width="24" height="24"/>
</g>
</svg>
