<?xml version="1.0" encoding="utf-8"?>
<!-- Generator: Adobe Illustrator 16.0.3, SVG Export Plug-In . SVG Version: 6.00 Build 0)  -->
<!DOCTYPE svg PUBLIC "-//W3C//DTD SVG 1.1//EN" "http://www.w3.org/Graphics/SVG/1.1/DTD/svg11.dtd">
<svg version="1.1" xmlns="http://www.w3.org/2000/svg" xmlns:xlink="http://www.w3.org/1999/xlink" x="0px" y="0px" width="24px"
	 height="24px" viewBox="0 0 24 24" enable-background="new 0 0 24 24" xml:space="preserve">
<g id="Outline_Icons">
	<g>
		<circle fill="none" stroke="#000000" stroke-miterlimit="10" cx="12" cy="12" r="11.5"/>
		<g>
			<path fill="none" stroke="#000000" stroke-miterlimit="10" d="M12,20c-4.411,0-8-3.589-8-8s3.589-8,8-8
				c2.076,0,4.045,0.792,5.541,2.229l-2.077,2.164C14.527,7.495,13.298,7,12,7c-2.757,0-5,2.243-5,5s2.243,5,5,5
				c2.235,0,4.132-1.474,4.77-3.5H12.5v-3H20V12C20,16.411,16.411,20,12,20z"/>
		</g>
		<line fill="none" stroke="#000000" stroke-miterlimit="10" x1="7.233" y1="10.426" x2="4.726" y2="8.544"/>
		<line fill="none" stroke="#000000" stroke-miterlimit="10" x1="7.591" y1="14.292" x2="5.121" y2="16.057"/>
		<line fill="none" stroke="#000000" stroke-miterlimit="10" x1="15.002" y1="16.002" x2="17.133" y2="18.133"/>
	</g>
</g>
<g id="Frames-24px">
</g>
</svg>
