<?xml version="1.0" encoding="utf-8"?>
<!-- Generator: Adobe Illustrator 16.0.3, SVG Export Plug-In . SVG Version: 6.00 Build 0)  -->
<!DOCTYPE svg PUBLIC "-//W3C//DTD SVG 1.1//EN" "http://www.w3.org/Graphics/SVG/1.1/DTD/svg11.dtd">
<svg version="1.1" xmlns="http://www.w3.org/2000/svg" xmlns:xlink="http://www.w3.org/1999/xlink" x="0px" y="0px" width="24px"
	 height="24px" viewBox="0 0 24 24" enable-background="new 0 0 24 24" xml:space="preserve">
<g id="Outline_Icons">
	<g>
		
			<circle fill="none" stroke="#000000" stroke-linecap="round" stroke-linejoin="round" stroke-miterlimit="10" cx="12" cy="12" r="11.5"/>
		<path id="Simplenote_1_" fill="none" stroke="#000000" stroke-linejoin="round" stroke-miterlimit="10" d="M6.969,16.867
			C5.93,15.736,5.106,14.268,5,12.301c0-0.19,0-0.383,0-0.574c0.042-0.832,0.254-1.584,0.52-2.271
			c0.344-0.887,0.875-1.736,1.504-2.269c0,0.427,0.011,0.831,0.055,1.095c0.133,0.797,0.577,1.672,1.121,2.215
			c0.44,0.44,1.031,0.742,1.641,1.065c1.217,0.646,2.373,1.216,3.582,1.86c0.778,0.414,1.579,0.928,1.805,1.75
			c0.32,1.164-0.358,2.242-0.902,2.816c-0.501,0.527-1.158,0.89-1.941,1.012c-0.31,0-0.619,0-0.93,0
			C9.533,18.785,8.013,18.002,6.969,16.867L6.969,16.867z M11.59,9.84c1.121,0.588,2.278,1.184,3.418,1.777
			c0.588,0.306,1.121,0.622,1.531,1.066c0.746,0.809,1.211,1.863,1.121,3.392c0.185-0.181,0.352-0.429,0.492-0.685
			c0.406-0.744,0.735-1.691,0.82-2.789c-0.004-0.033,0.006-0.049,0.027-0.055c0-0.365,0-0.729,0-1.094
			C18.519,7.605,15.901,5.297,12.219,5c-0.119,0-0.237,0-0.355,0c-0.72,0.119-1.421,0.327-1.832,0.794
			C9.742,6.121,9.515,6.703,9.484,7.078C9.354,8.687,10.508,9.271,11.59,9.84L11.59,9.84z"/>
	</g>
</g>
<g id="Frames-24px">
	<rect fill="none" width="24" height="24"/>
</g>
</svg>
