<?xml version="1.0" encoding="utf-8"?>
<!-- Generator: Adobe Illustrator 16.0.3, SVG Export Plug-In . SVG Version: 6.00 Build 0)  -->
<!DOCTYPE svg PUBLIC "-//W3C//DTD SVG 1.1//EN" "http://www.w3.org/Graphics/SVG/1.1/DTD/svg11.dtd">
<svg version="1.1" xmlns="http://www.w3.org/2000/svg" xmlns:xlink="http://www.w3.org/1999/xlink" x="0px" y="0px" width="24px"
	 height="24px" viewBox="0 0 24 24" enable-background="new 0 0 24 24" xml:space="preserve">
<g id="Outline_Icons">
	<g>
		<path fill="none" stroke="#000000" stroke-linecap="round" stroke-linejoin="round" stroke-miterlimit="10" d="M16.042,11.512
			c-1.088,0.531-2.419,0.843-3.854,0.843c-3.048,0-5.618-1.405-6.415-3.325"/>
		<path fill="none" stroke="#000000" stroke-linecap="round" stroke-linejoin="round" stroke-miterlimit="10" d="M7.23,4.697
			c1.221-0.934,2.99-1.518,4.957-1.518c3.685,0,6.671,2.053,6.671,4.587c0,0.072-0.002,0.144-0.007,0.216"/>
		<path fill="none" stroke="#000000" stroke-linecap="round" stroke-linejoin="round" stroke-miterlimit="10" d="M8.904,2.025
			C9.895,1.1,11.488,0.5,13.287,0.5c1.748,0,3.304,0.567,4.299,1.449"/>
		<path fill="none" stroke="#000000" stroke-linecap="round" stroke-linejoin="round" stroke-miterlimit="10" d="M3.722,11.496
			c0,2.603,3.177,4.713,7.096,4.713c3.918,0,7.095-2.11,7.095-4.713c0-3.475-5.053-4.979-8.412-4.979c-4.971,0-9,3.335-9,7.033
			c0,5.029,6.428,8.794,12.214,6.449l5.143,1.759l-1.929-3.518c0.889-0.648,1.561-1.406,1.995-2.257"/>
	</g>
</g>
<g id="Frames-24px">
	<rect fill="none" width="24" height="24"/>
</g>
</svg>
