<?xml version="1.0" encoding="utf-8"?>
<!-- Generator: Adobe Illustrator 16.0.3, SVG Export Plug-In . SVG Version: 6.00 Build 0)  -->
<!DOCTYPE svg PUBLIC "-//W3C//DTD SVG 1.1//EN" "http://www.w3.org/Graphics/SVG/1.1/DTD/svg11.dtd">
<svg version="1.1" xmlns="http://www.w3.org/2000/svg" xmlns:xlink="http://www.w3.org/1999/xlink" x="0px" y="0px" width="24px"
	 height="24px" viewBox="0 0 24 24" enable-background="new 0 0 24 24" xml:space="preserve">
<g id="Outline_Icons">
	<g>
		
			<circle fill="none" stroke="#000000" stroke-linecap="round" stroke-linejoin="round" stroke-miterlimit="10" cx="12" cy="12.004" r="11.5"/>
		<g>
			<path fill="none" stroke="#000000" stroke-linejoin="round" stroke-miterlimit="10" d="M3.5,12.921L3.5,12.921
				c-0.021,0.737,0.927,1.955,2.725,2.08c0-0.807,1.335-3.696,3.419-4.738C9.295,9.989,8.98,9.779,8.583,9.639
				c0.476-0.382,0.816-0.962,0.816-1.611c0-1.152-0.933-2.084-2.106-2.084c-1.175,0-2.117,0.932-2.117,2.084
				c0,0.655,0.314,1.239,0.797,1.622C5.688,9.759,3.751,10.585,3.5,12.921z"/>
			<path fill="none" stroke="#000000" stroke-linejoin="round" stroke-miterlimit="10" d="M16.888,8.741
				c0-1.705-1.411-3.086-3.15-3.086s-3.15,1.381-3.15,3.086c0,0.97,0.458,1.836,1.174,2.402H11.76
				c-0.422,0.162-3.299,1.387-3.67,4.848c-0.127,4.329,11.466,4.58,11.41,0.01c-0.025-2.048-1.444-4.061-3.744-4.874
				C16.46,10.562,16.888,9.703,16.888,8.741z"/>
		</g>
	</g>
</g>
<g id="Frames-24px">
	<rect fill="none" width="24" height="24"/>
</g>
</svg>
