<?xml version="1.0" encoding="utf-8"?>
<!-- Generator: Adobe Illustrator 16.0.3, SVG Export Plug-In . SVG Version: 6.00 Build 0)  -->
<!DOCTYPE svg PUBLIC "-//W3C//DTD SVG 1.1//EN" "http://www.w3.org/Graphics/SVG/1.1/DTD/svg11.dtd">
<svg version="1.1" xmlns="http://www.w3.org/2000/svg" xmlns:xlink="http://www.w3.org/1999/xlink" x="0px" y="0px" width="24px"
	 height="24px" viewBox="0 0 24 24" enable-background="new 0 0 24 24" xml:space="preserve">
<g id="Outline_Icons">
	<g>
		
			<circle fill="none" stroke="#000000" stroke-linecap="round" stroke-linejoin="round" stroke-miterlimit="10" cx="12" cy="12" r="11.5"/>
		<g>
			<path fill="none" stroke="#000000" stroke-linejoin="round" stroke-miterlimit="10" d="M12.06,16.156
				c0.945,0-0.276,3.344,2.167,3.344c1.348,0,3.5-1.542,2.131-3.99c-0.437-0.782,2.354-1.545,2.354-2.68
				c-0.66,0.283-2.531,1.117-4.961,1.114c-1.401-0.001-1.69,0.663-1.69,0.663s-0.288-0.664-1.69-0.663
				c-2.43,0.003-4.42-0.85-5.08-1.134c0,1.137,2.909,1.917,2.473,2.699c-1.368,2.448,0.783,3.99,2.131,3.99
				C12.336,19.5,11.114,16.156,12.06,16.156z"/>
			<path fill="none" stroke="#000000" stroke-linejoin="round" stroke-miterlimit="10" d="M17.5,13.478V6.721
				c0-0.674-0.52-1.221-1.193-1.221H7.755C7.08,5.5,6.5,6.047,6.5,6.721v6.757"/>
			<circle fill="none" stroke="#000000" stroke-linejoin="round" stroke-miterlimit="10" cx="14.168" cy="10.998" r="1.833"/>
			<circle fill="none" stroke="#000000" stroke-linejoin="round" stroke-miterlimit="10" cx="9.892" cy="10.998" r="1.833"/>
		</g>
	</g>
</g>
<g id="Frames-24px">
	<rect fill="none" width="24" height="24"/>
</g>
</svg>
