<?xml version="1.0" encoding="utf-8"?>
<!-- Generator: Adobe Illustrator 16.0.3, SVG Export Plug-In . SVG Version: 6.00 Build 0)  -->
<!DOCTYPE svg PUBLIC "-//W3C//DTD SVG 1.1//EN" "http://www.w3.org/Graphics/SVG/1.1/DTD/svg11.dtd">
<svg version="1.1" xmlns="http://www.w3.org/2000/svg" xmlns:xlink="http://www.w3.org/1999/xlink" x="0px" y="0px" width="24px"
	 height="24px" viewBox="0 0 24 24" enable-background="new 0 0 24 24" xml:space="preserve">
<g id="Outline_Icons">
	<g>
		
			<circle fill="none" stroke="#000000" stroke-linecap="round" stroke-linejoin="round" stroke-miterlimit="10" cx="12" cy="12" r="11.5"/>
		<path fill-rule="evenodd" clip-rule="evenodd" fill="none" stroke="#000000" stroke-linejoin="round" stroke-miterlimit="10" d="
			M18.114,10.635c-0.259-0.201-1.657,0.013-2.008-0.305c-0.249-0.23-0.288-0.159-0.364-0.719c-0.14-1.084-0.135-1.321-0.305-1.688
			C14.823,6.617,13.156,5.636,12.01,5.5H9.937C7.495,5.5,5.5,7.499,5.5,9.94v4.128c0,2.436,1.995,4.432,4.437,4.432h4.069
			c2.441,0,4.48-2.048,4.494-4.485v-2.788C18.408,10.794,18.334,10.807,18.114,10.635z"/>
		<path fill-rule="evenodd" clip-rule="evenodd" fill="none" stroke="#000000" stroke-linejoin="round" stroke-miterlimit="10" d="
			M8.521,14.5c0,0.503,0.409,1,0.913,1h5.153c0.505,0,0.913-0.497,0.913-1c0-0.504-0.408-1-0.913-1H9.434
			C8.93,13.5,8.521,13.996,8.521,14.5z"/>
		<path fill-rule="evenodd" clip-rule="evenodd" fill="none" stroke="#000000" stroke-linejoin="round" stroke-miterlimit="10" d="
			M8.521,9.5c0,0.503,0.409,1,0.913,1h3.153c0.504,0,0.913-0.497,0.913-1c0-0.504-0.409-1-0.913-1H9.434
			C8.93,8.5,8.521,8.996,8.521,9.5z"/>
	</g>
</g>
<g id="Frames-24px">
	<rect fill="none" width="24" height="24"/>
</g>
</svg>
