<?xml version="1.0" encoding="utf-8"?>
<!-- Generator: Adobe Illustrator 16.0.3, SVG Export Plug-In . SVG Version: 6.00 Build 0)  -->
<!DOCTYPE svg PUBLIC "-//W3C//DTD SVG 1.1//EN" "http://www.w3.org/Graphics/SVG/1.1/DTD/svg11.dtd">
<svg version="1.1" xmlns="http://www.w3.org/2000/svg" xmlns:xlink="http://www.w3.org/1999/xlink" x="0px" y="0px" width="24px"
	 height="24px" viewBox="0 0 24 24" enable-background="new 0 0 24 24" xml:space="preserve">
<g id="Outline_Icons">
	<g>
		<circle fill="none" stroke="#000000" stroke-linejoin="round" stroke-miterlimit="10" cx="10.969" cy="17.75" r="5.75"/>
		<path fill="none" stroke="#000000" stroke-linejoin="round" stroke-miterlimit="10" d="M12.391,12.177
			c0.9-1.598,2.613-2.677,4.578-2.677c2.899,0,5.25,2.351,5.25,5.25c0,2.9-2.351,5.25-5.25,5.25c-0.232,0-0.461-0.015-0.686-0.044"
			/>
		<path fill="none" stroke="#000000" stroke-linejoin="round" stroke-miterlimit="10" d="M9.442,12.206c0,0,0.776-7.217-4.567-9.087
			"/>
		<path fill="none" stroke="#000000" stroke-linecap="round" stroke-linejoin="round" stroke-miterlimit="10" d="M2.656,3.958
			C3.531,4.125,5.865,3.667,5.5,0.667"/>
		<path fill="none" stroke="#000000" stroke-linejoin="round" stroke-miterlimit="10" d="M5.713,3.48
			c5.909-2.183,9.671,6.266,9.671,6.266"/>
		<g>
			<path d="M9.01,14.542c-0.552,0-1,0.447-1,1s0.448,1,1,1c0.553,0,1-0.447,1-1S9.562,14.542,9.01,14.542L9.01,14.542z"/>
		</g>
	</g>
</g>
<g id="Frames-24px">
	<rect fill="none" width="24" height="24"/>
</g>
</svg>
