<?xml version="1.0" encoding="utf-8"?>
<!-- Generator: Adobe Illustrator 16.0.3, SVG Export Plug-In . SVG Version: 6.00 Build 0)  -->
<!DOCTYPE svg PUBLIC "-//W3C//DTD SVG 1.1//EN" "http://www.w3.org/Graphics/SVG/1.1/DTD/svg11.dtd">
<svg version="1.1" xmlns="http://www.w3.org/2000/svg" xmlns:xlink="http://www.w3.org/1999/xlink" x="0px" y="0px" width="24px"
	 height="24px" viewBox="0 0 24 24" enable-background="new 0 0 24 24" xml:space="preserve">
<g id="Outline_Icons">
	<g>
		<g>
			<path fill="none" stroke="#000000" stroke-linejoin="round" stroke-miterlimit="10" d="M17.801,17.5
				c0.1,0,0.193-0.049,0.248-0.133c0.056-0.084,0.064-0.19,0.025-0.285L12.689,4.68C12.642,4.57,12.534,4.5,12.416,4.5l0,0
				c-0.119,0-0.227,0.07-0.273,0.179L6.738,17.082c-0.04,0.095-0.031,0.2,0.024,0.285C6.818,17.451,6.912,17.5,7.012,17.5H17.801z"
				/>
			
				<line fill="none" stroke="#000000" stroke-linejoin="round" stroke-miterlimit="10" x1="12.5" y1="14.16" x2="14.356" y2="12.916"/>
			
				<line fill="none" stroke="#000000" stroke-linejoin="round" stroke-miterlimit="10" x1="12.5" y1="14.792" x2="10.541" y2="13.791"/>
			
				<line fill="none" stroke="#000000" stroke-linejoin="round" stroke-miterlimit="10" x1="12.5" y1="15.979" x2="14.43" y2="14.697"/>
		</g>
		
			<circle fill="none" stroke="#000000" stroke-linecap="round" stroke-linejoin="round" stroke-miterlimit="10" cx="12" cy="12" r="11.5"/>
		<line fill="none" stroke="#000000" stroke-linejoin="round" stroke-miterlimit="10" x1="12.5" y1="17.5" x2="12.5" y2="12"/>
	</g>
</g>
<g id="Frames-24px">
	<rect fill="none" width="24" height="24"/>
</g>
</svg>
