<?xml version="1.0" encoding="utf-8"?>
<!-- Generator: Adobe Illustrator 16.0.3, SVG Export Plug-In . SVG Version: 6.00 Build 0)  -->
<!DOCTYPE svg PUBLIC "-//W3C//DTD SVG 1.1//EN" "http://www.w3.org/Graphics/SVG/1.1/DTD/svg11.dtd">
<svg version="1.1" xmlns="http://www.w3.org/2000/svg" xmlns:xlink="http://www.w3.org/1999/xlink" x="0px" y="0px" width="24px"
	 height="24px" viewBox="0 0 24 24" enable-background="new 0 0 24 24" xml:space="preserve">
<g id="Outline_Icons">
	<g>
		<path id="Squidoo_4_" fill="none" stroke="#000000" stroke-linejoin="round" stroke-miterlimit="10" d="M21.067,18.795
			c-0.298,1-1.243,1.6-2.11,1.339s-1.329-1.281-1.03-2.28c0.298-1,1.243-1.599,2.111-1.338
			C20.905,16.775,21.366,17.797,21.067,18.795z M17.409,23.463c-2.143-0.24-3.725-2.042-4.104-4.111
			c-0.238-1.298,0.034-2.25-0.82-2.568c-1.495-0.562-3.449,0.436-5.335,0.205c-1.73-0.214-3.021-1.523-3.077-3.701
			c-0.052-1.998,1.409-4.732-0.616-5.652c0.861,0.18,1.572,0.369,1.95,1.129c0.806,1.628-0.467,4.776,0.923,5.654
			c0.684,0.432,1.921,0.213,2.769,0.103c0.971-0.124,1.646-0.429,2.565-0.41c-0.534-0.729-1.367-0.901-1.948-1.337
			c-0.699-0.522-1.692-1.464-2.154-2.364C6.753,8.834,6.893,5.993,5.714,4.961C4.819,4.178,3.329,4.159,1.816,4.448
			c1.049-0.887,3.719-1.036,4.719-0.31c1.344,0.979,1.056,3.715,2.257,5.14c0.543,0.643,1.348,0.89,1.949,1.131
			c0.687,0.274,1.43,0.54,2.462,0.617c0.781-3.399-1.853-3.862-3.487-5.345c-1.221-1.106-2.034-2.41-1.847-5.14
			c0.26,1.425,0.535,2.593,1.539,3.392c0.675,0.537,1.617,0.709,2.358,1.131c1.788,1.018,3.414,2.668,3.898,5.139
			c0.388-0.219,0.66-0.744,1.025-1.232c0.355-0.473,0.804-0.881,0.821-1.543C17.536,6.48,16.865,5.73,16.28,5.27
			c-1.427-1.126-4.054-0.84-3.488-3.904c0.255,0.762,0.311,1.612,0.924,2.055c0.877,0.631,2.26,0.63,3.283,1.232
			c0.898,0.531,2.263,1.716,2.256,3.29c-0.007,1.778-1.778,2.483-1.025,4.522c1.77,0.483,2.658,0.525,3.591,1.336
			C25.471,16.974,22.794,24.069,17.409,23.463L17.409,23.463z"/>
	</g>
</g>
<g id="Frames-24px">
	<rect fill="none" width="24" height="24"/>
</g>
</svg>
