<?xml version="1.0" encoding="utf-8"?>
<!-- Generator: Adobe Illustrator 16.0.3, SVG Export Plug-In . SVG Version: 6.00 Build 0)  -->
<!DOCTYPE svg PUBLIC "-//W3C//DTD SVG 1.1//EN" "http://www.w3.org/Graphics/SVG/1.1/DTD/svg11.dtd">
<svg version="1.1" xmlns="http://www.w3.org/2000/svg" xmlns:xlink="http://www.w3.org/1999/xlink" x="0px" y="0px" width="24px"
	 height="24px" viewBox="0 0 24 24" enable-background="new 0 0 24 24" xml:space="preserve">
<g id="Outline_Icons">
	<g>
		<path fill="none" stroke="#000000" stroke-linejoin="round" stroke-miterlimit="10" d="M18.5,7.354c0,0-1.351,0.146-1.95,0.266
			c-0.48-0.513-1.164-0.832-1.921-0.832c-1.454,0-2.633,1.179-2.633,2.632c0,0.205,0.023,0.408,0.068,0.599
			C9.877,9.911,7.938,8.862,6.64,7.269C6.413,7.659,6.283,8.11,6.283,8.593c0,0.914,0.465,1.718,1.171,2.19
			c-0.431-0.014-0.837-0.132-1.192-0.33c0,0.012,0,0.024,0,0.035c0,1.274,0.907,2.338,2.111,2.579
			c-0.386,0.106-0.792,0.121-1.188,0.046c0.335,1.045,1.307,1.806,2.458,1.829c-1.125,0.882-2.522,1.25-3.896,1.089
			c1.165,0.747,2.549,1.184,4.035,1.184c4.841,0,7.488-4.012,7.488-7.489c0-0.114-0.002-0.228-0.008-0.34
			C17.776,9.013,18.147,7.882,18.5,7.354z"/>
		
			<circle fill="none" stroke="#000000" stroke-linecap="round" stroke-linejoin="round" stroke-miterlimit="10" cx="12" cy="12" r="11.5"/>
	</g>
</g>
<g id="Frames-24px">
	<rect fill="none" width="24" height="24"/>
</g>
</svg>
