<?xml version="1.0" encoding="utf-8"?>
<!-- Generator: Adobe Illustrator 16.0.3, SVG Export Plug-In . SVG Version: 6.00 Build 0)  -->
<!DOCTYPE svg PUBLIC "-//W3C//DTD SVG 1.1//EN" "http://www.w3.org/Graphics/SVG/1.1/DTD/svg11.dtd">
<svg version="1.1" xmlns="http://www.w3.org/2000/svg" xmlns:xlink="http://www.w3.org/1999/xlink" x="0px" y="0px" width="24px"
	 height="24px" viewBox="0 0 24 24" enable-background="new 0 0 24 24" xml:space="preserve">
<g id="Outline_Icons">
	<g>
		<g>
			<path fill="none" stroke="#000000" stroke-linejoin="round" stroke-miterlimit="10" d="M9.501,20.043
				c-0.524-0.095-8.139,2.706-8.139,2.706c1.848-1.767,2.815-3.494,2.588-5.166c-2.129-1.702-3.45-4.075-3.45-6.7
				C0.5,5.701,5.648,1.5,12,1.5s11.5,4.201,11.5,9.383s-5.148,9.382-11.5,9.382C11.142,20.265,10.306,20.188,9.501,20.043z"/>
		</g>
		<path fill="none" stroke="#000000" stroke-linecap="round" stroke-linejoin="round" stroke-miterlimit="10" d="M13.951,4.765
			C17.426,5.476,20,8.041,20,11.096c0,1.956-1.055,3.711-2.726,4.908"/>
	</g>
</g>
<g id="Frames-24px">
	<rect fill="none" width="24" height="24"/>
</g>
</svg>
