<?xml version="1.0" encoding="utf-8"?>
<!-- Generator: Adobe Illustrator 16.0.3, SVG Export Plug-In . SVG Version: 6.00 Build 0)  -->
<!DOCTYPE svg PUBLIC "-//W3C//DTD SVG 1.1//EN" "http://www.w3.org/Graphics/SVG/1.1/DTD/svg11.dtd">
<svg version="1.1" xmlns="http://www.w3.org/2000/svg" xmlns:xlink="http://www.w3.org/1999/xlink" x="0px" y="0px" width="24px"
	 height="24px" viewBox="0 0 24 24" enable-background="new 0 0 24 24" xml:space="preserve">
<g id="Outline_Icons">
	<g>
		
			<circle fill="none" stroke="#000000" stroke-linecap="round" stroke-linejoin="round" stroke-miterlimit="10" cx="12" cy="12" r="11.5"/>
		<path fill="none" stroke="#000000" stroke-linejoin="round" stroke-miterlimit="10" d="M9.586,12.11
			c-0.691,0.376-2.127-2.642-2.422-3.39c0,0-0.066-0.164-0.186-0.25C6.834,8.365,6.632,8.33,6.632,8.33L4.488,8.344
			c0,0-0.321,0.009-0.439,0.149C3.943,8.617,4.041,8.875,4.041,8.875s1.678,3.793,3.577,5.773c1.743,1.814,3.721,1.562,3.721,1.562
			c0.101,0,1.237,0.025,1.306-0.049c0.359-0.385-0.093-1.435,0.664-1.674c0.551-0.174,1.258,1.18,2.006,1.693
			c0.566,0.389,0.998,0.312,0.998,0.312l2.002-0.022c0,0,1.049-0.064,0.552-0.889c-0.04-0.066-0.29-0.607-1.489-1.721
			c-1.256-1.166-1.088-0.977,0.426-2.994c0.921-1.229,1.289-1.977,1.174-2.299c-0.109-0.305-0.787-0.225-0.787-0.225l-2.256,0.015
			c0,0-0.168-0.023-0.291,0.051c-0.121,0.073-0.199,0.243-0.199,0.243c-0.311,0.825-1.794,3.841-2.402,3.447
			c-0.814-0.526,0.408-3.756-0.775-4.041C12.021,8,11.84,7.961,11.213,7.953c-0.805-0.008-1.486,0.002-1.871,0.191
			C9.085,8.271,8.887,8.551,9.008,8.568c0.148,0.019,0.486,0.091,0.665,0.334C9.986,9.327,10.047,11.859,9.586,12.11z"/>
	</g>
</g>
<g id="Frames-24px">
	<rect fill="none" width="24" height="24"/>
</g>
</svg>
