<?xml version="1.0" encoding="utf-8"?>
<!-- Generator: Adobe Illustrator 16.0.3, SVG Export Plug-In . SVG Version: 6.00 Build 0)  -->
<!DOCTYPE svg PUBLIC "-//W3C//DTD SVG 1.1//EN" "http://www.w3.org/Graphics/SVG/1.1/DTD/svg11.dtd">
<svg version="1.1" xmlns="http://www.w3.org/2000/svg" xmlns:xlink="http://www.w3.org/1999/xlink" x="0px" y="0px" width="24px"
	 height="24px" viewBox="0 0 24 24" enable-background="new 0 0 24 24" xml:space="preserve">
<g id="Outline_Icons">
	<g>
		<g id="Layer_1_2_">
			<path fill="none" stroke="#000000" stroke-linejoin="round" stroke-miterlimit="10" d="M19.517,0.5H4.5
				c-2.204,0-3.991,1.787-3.991,3.992v15.017c0,2.204,1.787,3.991,3.991,3.991h15.017c2.205,0,3.992-1.787,3.992-3.991V4.492
				C23.509,2.287,21.722,0.5,19.517,0.5z M18.281,15.75c-0.163,0.17-0.361,0.352-0.62,0.56c-0.648,0.519-4.318,3.239-5.21,3.802
				c-0.893,0.563-1.221,0.422-1.315,0.188c-0.094-0.234,0.188-0.797,0.329-1.408c0.142-0.609,0.042-0.844-0.562-0.938
				c-0.045-0.007-0.089-0.017-0.133-0.026c-4.197-0.504-7.425-3.525-7.425-7.178c0-4.005,3.879-7.253,8.664-7.253
				s8.664,3.248,8.664,7.253C20.673,12.687,19.763,14.448,18.281,15.75z"/>
		</g>
		<polyline fill="none" stroke="#000000" stroke-linecap="round" stroke-linejoin="round" stroke-miterlimit="10" points="
			6.509,9.531 6.509,12.5 7.509,12.5 		"/>
		
			<line fill="none" stroke="#000000" stroke-linecap="round" stroke-linejoin="round" stroke-miterlimit="10" x1="9.509" y1="9.531" x2="9.509" y2="12.5"/>
		<polyline fill="none" stroke="#000000" stroke-linecap="round" stroke-linejoin="round" stroke-miterlimit="10" points="
			11.509,12.5 11.509,9.531 13.509,12.5 13.509,9.531 		"/>
		<polyline fill="none" stroke="#000000" stroke-linecap="round" stroke-linejoin="round" stroke-miterlimit="10" points="
			17.487,9.5 15.509,9.5 15.509,12.5 17.487,12.5 		"/>
		
			<line fill="none" stroke="#000000" stroke-linecap="round" stroke-linejoin="round" stroke-miterlimit="10" x1="15.509" y1="11" x2="17.487" y2="11"/>
	</g>
</g>
<g id="Frames-24px">
	<rect fill="none" width="24" height="24"/>
</g>
</svg>
