<?xml version="1.0" encoding="utf-8"?>
<!-- Generator: Adobe Illustrator 16.0.3, SVG Export Plug-In . SVG Version: 6.00 Build 0)  -->
<!DOCTYPE svg PUBLIC "-//W3C//DTD SVG 1.1//EN" "http://www.w3.org/Graphics/SVG/1.1/DTD/svg11.dtd">
<svg version="1.1" xmlns="http://www.w3.org/2000/svg" xmlns:xlink="http://www.w3.org/1999/xlink" x="0px" y="0px" width="24px"
	 height="24px" viewBox="0 0 24 24" enable-background="new 0 0 24 24" xml:space="preserve">
<g id="Outline_Icons">
	<g>
		
			<path fill-rule="evenodd" clip-rule="evenodd" fill="none" stroke="#000000" stroke-linecap="round" stroke-linejoin="round" stroke-miterlimit="10" d="
			M22.408,19.565c-12.303,6.719-21.594-0.082-21.594-0.082"/>
		
			<path fill-rule="evenodd" clip-rule="evenodd" fill="none" stroke="#000000" stroke-linecap="round" stroke-linejoin="round" stroke-miterlimit="10" d="
			M20.052,23.369c1.432-0.755,2.658-2.937,2.362-3.788l-0.006-0.017c-0.26-0.559-2.586-1.414-4.39-0.695"/>
		<path fill-rule="evenodd" clip-rule="evenodd" fill="none" stroke="#000000" stroke-linejoin="round" stroke-miterlimit="10" d="
			M12.387,7.931c-4.545,0.341-8.633,1.096-8.633,5.787c0,2.998,1.93,4.52,4.368,4.52c2.091,0,3.284-0.511,4.823-2.133
			c0.559,0.762,0.712,1.118,1.676,1.93c0.254,0.1,0.508,0.1,0.711-0.051c0.609-0.508,1.677-1.424,2.234-1.929
			c0.254-0.204,0.203-0.509,0.051-0.761c-0.558-0.712-1.117-1.321-1.117-2.692v-4.57c0-1.93,0.152-3.708-1.27-5.025
			c-1.167-1.067-2.996-1.475-4.418-1.475c-3.253,0-5.953,1.33-6.551,4.469C4.16,6.407,4.465,6.559,4.669,6.61l2.843,0.354
			c0.306-0.05,0.457-0.305,0.508-0.558c0.262-1.153,1.279-1.778,2.387-1.778c0.61,0,1.27,0.256,1.625,0.762
			C12.455,6.026,12.387,6.852,12.387,7.931z M11.828,13.973c-0.97,1.935-3.809,1.94-3.809-0.762c0-1.625,0.965-2.387,2.184-2.742
			c0.66-0.152,1.422-0.204,2.184-0.204v0.609C12.387,12.043,12.438,12.957,11.828,13.973z"/>
	</g>
</g>
<g id="Frames-24px">
	<rect fill="none" width="24" height="24"/>
</g>
</svg>
