<?xml version="1.0" encoding="utf-8"?>
<!-- Generator: Adobe Illustrator 16.0.3, SVG Export Plug-In . SVG Version: 6.00 Build 0)  -->
<!DOCTYPE svg PUBLIC "-//W3C//DTD SVG 1.1//EN" "http://www.w3.org/Graphics/SVG/1.1/DTD/svg11.dtd">
<svg version="1.1" xmlns="http://www.w3.org/2000/svg" xmlns:xlink="http://www.w3.org/1999/xlink" x="0px" y="0px" width="24px"
	 height="24px" viewBox="0 0 24 24" enable-background="new 0 0 24 24" xml:space="preserve">
<g id="Outline_Icons">
	<g>
		
			<circle fill="none" stroke="#000000" stroke-linecap="round" stroke-linejoin="round" stroke-miterlimit="10" cx="12" cy="12" r="11.5"/>
		<g>
			<path fill="none" stroke="#000000" stroke-linecap="round" stroke-linejoin="round" stroke-miterlimit="10" d="M14.387,12.402
				c1.605-1.896,1.372-4.734-0.522-6.342c-1.896-1.606-4.733-1.372-6.341,0.523c-1.398,1.65-1.4,4.015-0.127,5.659l-1.403,3.102
				l2.831-1.892C10.654,14.44,12.987,14.052,14.387,12.402z"/>
			<path fill="none" stroke="#000000" stroke-linecap="round" stroke-linejoin="round" stroke-miterlimit="10" d="M17.438,14.991
				c0.021-1.306-1.023-2.383-2.331-2.403s-2.383,1.024-2.403,2.331c-0.017,1.139,0.772,2.102,1.84,2.344l0.466,1.73l0.52-1.715
				C16.604,17.068,17.422,16.13,17.438,14.991z"/>
		</g>
	</g>
</g>
<g id="Frames-24px">
	<rect fill="none" width="24" height="24"/>
</g>
</svg>
