<?xml version="1.0" encoding="utf-8"?>
<!-- Generator: Adobe Illustrator 16.0.3, SVG Export Plug-In . SVG Version: 6.00 Build 0)  -->
<!DOCTYPE svg PUBLIC "-//W3C//DTD SVG 1.1//EN" "http://www.w3.org/Graphics/SVG/1.1/DTD/svg11.dtd">
<svg version="1.1" xmlns="http://www.w3.org/2000/svg" xmlns:xlink="http://www.w3.org/1999/xlink" x="0px" y="0px" width="24px"
	 height="24px" viewBox="0 0 24 24" enable-background="new 0 0 24 24" xml:space="preserve">
<g id="Outline_Icons">
	<g>
		
			<circle fill="none" stroke="#000000" stroke-linecap="round" stroke-linejoin="round" stroke-miterlimit="10" cx="12" cy="12" r="11.5"/>
		<g>
			<g>
				<path fill="none" stroke="#000000" stroke-linejoin="round" stroke-miterlimit="10" d="M14.502,12.123
					c0.312,0.42,0.252,0.646,0.36,1.176c0.323,1.568,2.349,1.809,3.535,1.149c0.898-0.493,1.546-1.427,1.187-2.528
					c-0.18-0.539-0.73-1.042-1.343-1.186c-0.73-0.168-1.33-0.108-2.097,0.215c-0.563,0.239-1.234,0.432-1.93,0.287
					c-1.773-0.371-1.498-2.455,0.168-3.355c1.187-0.635,1.689-0.264,2.709-0.826c1.006-0.553,1.401-1.678,0.551-2.121
					c-0.323-0.18-0.672-0.205-1.055-0.156C15.749,4.873,15.006,5.221,14.562,6c-0.348,0.621,0.048,0.91-0.526,1.664
					c-1.283,1.691-3.896,1.498-3.284-0.166c0.168-0.443,0.839-1.02,0.611-1.559c-0.061-0.119-0.156-0.203-0.24-0.252
					c-0.203-0.119-0.659-0.084-0.922,0.012C9.985,5.771,9.722,5.892,9.493,6.059c-0.479,0.36-0.887,0.899-0.767,1.404
					c0.108,0.479,0.515,0.37,0.995,0.418c0.97,0.097,0.838,1.128,0.431,1.773c-0.539,0.84-1.953,1.739-2.696,1.15
					c-0.299-0.238-0.396-0.527-1.054-0.432c-1.702,0.264-2.481,3.153-0.72,2.769c0.768-0.155,1.055-0.671,1.366-1.028
					c1.546-1.74,3.487-0.853,2.937,0.922c-0.288,0.958-0.839,1.365-1.606,1.844c-0.946,0.588-1.617,1.535-1.449,2.734
					c0.144,1.018,1.139,1.413,2.133,1.137c1.594-0.432,1.809-2.035,1.294-3.428c-0.323-0.887-0.407-1.413,0.012-2.168
					c0.12-0.24,0.275-0.469,0.455-0.66C11.818,11.344,13.58,10.841,14.502,12.123L14.502,12.123z"/>
			</g>
			<g>
				<path d="M17.429,12.266c-0.046,0-0.093,0.005-0.14,0.018c-0.609,0.154-0.488,0.834,0.027,0.834c0.054,0,0.11-0.007,0.172-0.022
					c0.206-0.056,0.418-0.229,0.388-0.491C17.851,12.402,17.651,12.266,17.429,12.266L17.429,12.266z"/>
			</g>
			<g>
				<path d="M16.536,5.748c-0.025,0-0.054,0.002-0.085,0.007c-0.417,0.07-0.53,0.493-0.177,0.493c0.026,0,0.055-0.003,0.085-0.008
					C16.756,6.182,16.877,5.748,16.536,5.748L16.536,5.748z"/>
			</g>
			<g>
				<path d="M8.883,16.34c-0.019,0-0.038,0.002-0.058,0.004c-0.223,0.027-0.411,0.251-0.474,0.453
					c-0.109,0.348,0.082,0.543,0.314,0.543c0.196,0,0.423-0.141,0.521-0.446C9.271,16.633,9.161,16.34,8.883,16.34L8.883,16.34z"/>
			</g>
			<g>
				<path d="M6.071,11.465c-0.019,0-0.038,0.002-0.06,0.006c-0.29,0.062-0.519,0.449-0.359,0.602
					c0.032,0.03,0.074,0.045,0.122,0.045c0.18,0,0.432-0.199,0.459-0.461C6.245,11.533,6.181,11.465,6.071,11.465L6.071,11.465z"/>
			</g>
			<g>
				<path d="M10.27,6.326c-0.03,0-0.066,0.006-0.106,0.016C9.669,6.471,9.526,6.98,9.86,6.98c0.034,0,0.074-0.006,0.118-0.018
					C10.431,6.848,10.596,6.326,10.27,6.326L10.27,6.326z"/>
			</g>
		</g>
	</g>
</g>
<g id="Frames-24px">
	<rect fill="none" width="24" height="24"/>
</g>
</svg>
