<?xml version="1.0" encoding="utf-8"?>
<!-- Generator: Adobe Illustrator 16.0.3, SVG Export Plug-In . SVG Version: 6.00 Build 0)  -->
<!DOCTYPE svg PUBLIC "-//W3C//DTD SVG 1.1//EN" "http://www.w3.org/Graphics/SVG/1.1/DTD/svg11.dtd">
<svg version="1.1" xmlns="http://www.w3.org/2000/svg" xmlns:xlink="http://www.w3.org/1999/xlink" x="0px" y="0px" width="24px"
	 height="24px" viewBox="0 0 24 24" enable-background="new 0 0 24 24" xml:space="preserve">
<g id="Outline_Icons">
	<g>
		
			<circle fill="none" stroke="#000000" stroke-linecap="round" stroke-linejoin="round" stroke-miterlimit="10" cx="12" cy="12" r="11.5"/>
		<path fill="none" stroke="#000000" stroke-linejoin="round" stroke-miterlimit="10" d="M8.922,6.336
			c0.987,0,1.776,0.789,1.776,1.777c0,0.975-0.789,1.773-1.776,1.773c-0.976,0-1.775-0.799-1.775-1.773
			C7.146,7.125,7.946,6.336,8.922,6.336L8.922,6.336z M11.301,11.448c2.898-0.343,6.283,0.062,8.518,1.269
			c0.311,0.177,0.155,0.404-0.229,0.281c-1.413-0.449-2.867-0.688-4.633-0.739c-4.01-0.126-6.128,1.215-7.883,3.033
			c-1.061,1.102-2.494,0.187-1.984-0.936C5.724,12.944,8.922,11.739,11.301,11.448L11.301,11.448z"/>
	</g>
</g>
<g id="Frames-24px">
	<rect fill="none" width="24" height="24"/>
</g>
</svg>
