<?xml version="1.0" encoding="utf-8"?>
<!-- Generator: Adobe Illustrator 16.0.3, SVG Export Plug-In . SVG Version: 6.00 Build 0)  -->
<!DOCTYPE svg PUBLIC "-//W3C//DTD SVG 1.1//EN" "http://www.w3.org/Graphics/SVG/1.1/DTD/svg11.dtd">
<svg version="1.1" xmlns="http://www.w3.org/2000/svg" xmlns:xlink="http://www.w3.org/1999/xlink" x="0px" y="0px" width="24px"
	 height="24px" viewBox="0 0 24 24" enable-background="new 0 0 24 24" xml:space="preserve">
<g id="Outline_Icons">
	<g>
		<g>
			<g>
				<defs>
					<path id="SVGID_1_" d="M14.821,22.5c-1.782,0-4.159-1.465-4.155-1.463l2.03-7.048c0.617,0.494,2.048,1.431,4.401,1.431
						c1.081,0,2.359-0.2,3.845-0.731l-1.957,6.84C17.299,22.224,15.949,22.5,14.821,22.5"/>
				</defs>
				<clipPath id="SVGID_2_">
					<use xlink:href="#SVGID_1_"  overflow="visible"/>
				</clipPath>
				
					<use xlink:href="#SVGID_1_"  overflow="visible" fill="none" stroke="#000000" stroke-linejoin="round" stroke-miterlimit="10"/>
			</g>
			<g>
				<defs>
					<path id="SVGID_3_" d="M8.371,20.286c-1.127-0.75-2.322-1.416-4.045-1.416c-1.044,0-2.288,0.249-3.826,0.868l2.036-7.06
						c1.614-0.659,3.121-0.93,4.033-0.93c1.62,0,2.894,0.718,3.909,1.349C10.209,14.02,8.789,18.869,8.371,20.286z"/>
				</defs>
				<clipPath id="SVGID_4_">
					<use xlink:href="#SVGID_3_"  overflow="visible"/>
				</clipPath>
				
					<use xlink:href="#SVGID_3_"  overflow="visible" fill="none" stroke="#000000" stroke-linejoin="round" stroke-miterlimit="10"/>
			</g>
		</g>
		<g>
			<defs>
				<path id="SVGID_5_" d="M12.932,3.086v0.005c-0.418,1.432-1.656,5.675-2.072,7.087c-1.089-0.722-2.258-1.38-3.91-1.398
					c-1.346,0-2.688,0.405-3.947,0.919l2.006-7.043c1.521-0.621,2.757-0.87,3.789-0.889C10.109,1.768,11.137,2.012,12.932,3.086z"/>
			</defs>
			<clipPath id="SVGID_6_">
				<use xlink:href="#SVGID_5_"  overflow="visible"/>
			</clipPath>
			<use xlink:href="#SVGID_5_"  overflow="visible" fill="none" stroke="#000000" stroke-linejoin="round" stroke-miterlimit="10"/>
		</g>
		<g>
			<defs>
				<path id="SVGID_7_" d="M17.558,12.502c-1.774,0-3.246-0.611-4.378-1.368c-0.006-0.004-0.016-0.01-0.021-0.016L15.217,4
					c0.649,0.506,2.12,1.456,4.35,1.456c1.123,0,2.436-0.24,3.934-0.895l-2.029,6.989c-0.006,0.003-0.01,0.005-0.01,0.005
					c-0.002,0.002-0.002,0.005-0.002,0.009C20.034,12.235,18.73,12.502,17.558,12.502"/>
			</defs>
			<clipPath id="SVGID_8_">
				<use xlink:href="#SVGID_7_"  overflow="visible"/>
			</clipPath>
			<use xlink:href="#SVGID_7_"  overflow="visible" fill="none" stroke="#000000" stroke-linejoin="round" stroke-miterlimit="10"/>
		</g>
	</g>
</g>
<g id="Frames-24px">
	<rect fill="none" width="24" height="24"/>
</g>
</svg>
