<?xml version="1.0" encoding="utf-8"?>
<!-- Generator: Adobe Illustrator 16.0.3, SVG Export Plug-In . SVG Version: 6.00 Build 0)  -->
<!DOCTYPE svg PUBLIC "-//W3C//DTD SVG 1.1//EN" "http://www.w3.org/Graphics/SVG/1.1/DTD/svg11.dtd">
<svg version="1.1" xmlns="http://www.w3.org/2000/svg" xmlns:xlink="http://www.w3.org/1999/xlink" x="0px" y="0px" width="24px"
	 height="24px" viewBox="0 0 24 24" enable-background="new 0 0 24 24" xml:space="preserve">
<g id="Outline_Icons">
	<g>
		
			<circle fill="none" stroke="#000000" stroke-linecap="round" stroke-linejoin="round" stroke-miterlimit="10" cx="12" cy="12" r="11.5"/>
		<g>
			<path fill="none" stroke="#000000" stroke-linejoin="round" stroke-miterlimit="10" d="M19.5,13.533
				c0,1.638-1.318,2.967-2.945,2.967H7.443c-1.625,0-2.943-1.329-2.943-2.967c0-1.48,1.075-2.706,2.481-2.932
				C6.783,9.453,7.662,8.402,8.82,8.402c0.459,0,0.881,0.168,1.205,0.447c0.58-1.316,1.322-2.518,3.406-2.518
				c2.526,0,3.724,1.965,3.724,4.037c0,0.086-0.003,0.171-0.009,0.257C18.489,10.902,19.5,12.098,19.5,13.533"/>
		</g>
	</g>
</g>
<g id="Frames-24px">
	<rect fill="none" width="24" height="24"/>
</g>
</svg>
