<?xml version="1.0" encoding="utf-8"?>
<!-- Generator: Adobe Illustrator 16.0.3, SVG Export Plug-In . SVG Version: 6.00 Build 0)  -->
<!DOCTYPE svg PUBLIC "-//W3C//DTD SVG 1.1//EN" "http://www.w3.org/Graphics/SVG/1.1/DTD/svg11.dtd">
<svg version="1.1" xmlns="http://www.w3.org/2000/svg" xmlns:xlink="http://www.w3.org/1999/xlink" x="0px" y="0px" width="24px"
	 height="24px" viewBox="0 0 24 24" enable-background="new 0 0 24 24" xml:space="preserve">
<g id="Outline_Icons">
	<g>
		<path id="path11-1_4_" fill="none" stroke="#000000" stroke-linejoin="round" stroke-miterlimit="10" d="M12.414,4.163
			c-2.182-1.229-4.901-1.415-7.25-0.565C3.622,4.152,2.225,5.186,1.361,6.592C0.58,7.86,0.285,9.441,0.664,10.894
			c0.378,1.609,1.494,2.958,2.854,3.861C3.262,15.498,3.01,16.24,2.772,16.99c0.859-0.447,1.709-0.912,2.564-1.367
			c1.033,0.33,2.117,0.49,3.201,0.455c-0.282-0.828-0.35-1.721-0.221-2.584c0.206-1.199,0.854-2.297,1.75-3.109
			c1.509-1.413,3.649-2.01,5.685-1.867C15.371,6.652,14.06,5.073,12.414,4.163L12.414,4.163z M6.01,7.411
			C5.939,7.75,5.484,7.914,5.219,7.687C4.91,7.469,4.996,6.932,5.359,6.822C5.713,6.686,6.117,7.045,6.01,7.411z M11.293,7.314
			c0.003,0.391-0.519,0.635-0.812,0.369c-0.304-0.217-0.218-0.747,0.14-0.856C10.939,6.701,11.317,6.971,11.293,7.314z"/>
		<g>
			<path id="path13-81_4_" fill="none" stroke="#000000" stroke-linejoin="round" stroke-miterlimit="10" d="M23.098,14.443
				c-0.533-1.207-1.539-2.162-2.705-2.754c-2.06-1.046-4.622-1.037-6.674,0.025c-1.428,0.732-2.619,2.046-2.958,3.642
				c-0.279,1.175-0.028,2.44,0.595,3.467c0.929,1.539,2.604,2.521,4.35,2.837c1.264,0.257,2.569,0.106,3.795-0.25
				c0.734,0.286,1.395,0.748,2.107,1.09c-0.184-0.617-0.379-1.23-0.59-1.838c0.799-0.568,1.525-1.277,1.963-2.168
				C23.631,17.255,23.671,15.719,23.098,14.443L23.098,14.443z M15.594,14.773c-0.105,0.331-0.588,0.431-0.819,0.178
				c-0.257-0.232-0.157-0.721,0.179-0.823C15.327,13.971,15.758,14.4,15.594,14.773L15.594,14.773z M19.783,14.814
				c-0.125,0.291-0.559,0.357-0.773,0.133c-0.104-0.094-0.13-0.235-0.172-0.361c0.057-0.226,0.207-0.461,0.463-0.471
				C19.656,14.066,19.969,14.498,19.783,14.814L19.783,14.814z"/>
		</g>
	</g>
</g>
<g id="Frames-24px">
	<rect fill="none" width="24" height="24"/>
</g>
</svg>
