<?xml version="1.0" encoding="utf-8"?>
<!-- Generator: Adobe Illustrator 16.0.3, SVG Export Plug-In . SVG Version: 6.00 Build 0)  -->
<!DOCTYPE svg PUBLIC "-//W3C//DTD SVG 1.1//EN" "http://www.w3.org/Graphics/SVG/1.1/DTD/svg11.dtd">
<svg version="1.1" xmlns="http://www.w3.org/2000/svg" xmlns:xlink="http://www.w3.org/1999/xlink" x="0px" y="0px" width="24px"
	 height="24px" viewBox="0 0 24 24" enable-background="new 0 0 24 24" xml:space="preserve">
<g id="Outline_Icons">
	<g>
		
			<circle fill="none" stroke="#000000" stroke-linecap="round" stroke-linejoin="round" stroke-miterlimit="10" cx="12" cy="12" r="11.5"/>
		<path fill="none" stroke="#000000" stroke-linejoin="round" stroke-miterlimit="10" d="M12.004,4.48c-4.418,0-8,3.581-8,8
			c0,3.534,2.291,6.533,5.471,7.592c0.4,0.071,0.527-0.164,0.527-0.376c0-0.19,0.004-0.722,0-1.39
			c-2.226,0.483-2.687-1.053-2.687-1.053c-0.364-0.924-0.888-1.172-0.888-1.172c-0.727-0.496,0.055-0.486,0.055-0.486
			c0.803,0.057,1.226,0.824,1.226,0.824c0.714,1.223,1.872,0.869,2.327,0.666c0.073-0.518,0.28-0.869,0.509-1.07
			C8.768,15.814,6.9,15.127,6.9,12.062c0-0.874,0.312-1.587,0.822-2.147C7.641,9.715,7.365,8.899,7.802,7.799
			c0,0,0.672-0.217,2.2,0.82c0.638-0.177,1.322-0.268,2.002-0.27c0.68,0.002,1.364,0.093,2.004,0.27
			c1.527-1.036,2.198-0.82,2.198-0.82c0.437,1.101,0.161,1.916,0.079,2.115c0.512,0.561,0.822,1.273,0.822,2.147
			c0,3.073-1.87,3.75-3.652,3.948c0.287,0.247,0.547,0.727,0.547,1.473c0,1,0,1.952,0,2.217c0,0.213,0.13,0.449,0.535,0.371
			c3.178-1.06,5.467-4.056,5.467-7.59C20.004,8.062,16.422,4.48,12.004,4.48z"/>
	</g>
</g>
<g id="Frames-24px">
	<rect fill="none" width="24" height="24"/>
</g>
</svg>
