<?xml version="1.0" encoding="utf-8"?>
<!-- Generator: Adobe Illustrator 16.0.3, SVG Export Plug-In . SVG Version: 6.00 Build 0)  -->
<!DOCTYPE svg PUBLIC "-//W3C//DTD SVG 1.1//EN" "http://www.w3.org/Graphics/SVG/1.1/DTD/svg11.dtd">
<svg version="1.1" xmlns="http://www.w3.org/2000/svg" xmlns:xlink="http://www.w3.org/1999/xlink" x="0px" y="0px" width="24px"
	 height="24px" viewBox="0 0 24 24" enable-background="new 0 0 24 24" xml:space="preserve">
<g id="Outline_Icons">
	<g>
		<circle fill="none" stroke="#000000" stroke-linejoin="round" stroke-miterlimit="10" cx="11.999" cy="6.123" r="5.62"/>
		<circle fill="none" stroke="#000000" stroke-linejoin="round" stroke-miterlimit="10" cx="12" cy="6.123" r="2.498"/>
		<path fill="none" stroke="#000000" stroke-linejoin="round" stroke-miterlimit="10" d="M14.9,16.988
			c1.379-0.391,2.645-1.047,3.733-1.92c0.667-0.535,0.698-1.546,0.103-2.16l-0.12-0.124c-0.54-0.558-1.397-0.569-2.01-0.094
			c-1.271,0.992-2.87,1.583-4.606,1.583c-1.741,0-3.344-0.594-4.615-1.588c-0.609-0.479-1.465-0.467-2.007,0.086L5.251,12.9
			c-0.597,0.608-0.569,1.617,0.095,2.152c1.105,0.891,2.395,1.56,3.801,1.951L5.85,20.301c-0.732,0.732-0.732,1.918,0,2.65
			c0.73,0.731,1.917,0.731,2.648,0l3.533-3.533l3.532,3.533c0.731,0.731,1.918,0.731,2.649,0c0.731-0.732,0.731-1.918,0-2.65
			L14.9,16.988z"/>
	</g>
</g>
<g id="Frames-24px">
	<rect fill="none" width="24" height="24"/>
</g>
</svg>
