<?xml version="1.0" encoding="utf-8"?>
<!-- Generator: Adobe Illustrator 16.0.3, SVG Export Plug-In . SVG Version: 6.00 Build 0)  -->
<!DOCTYPE svg PUBLIC "-//W3C//DTD SVG 1.1//EN" "http://www.w3.org/Graphics/SVG/1.1/DTD/svg11.dtd">
<svg version="1.1" xmlns="http://www.w3.org/2000/svg" xmlns:xlink="http://www.w3.org/1999/xlink" x="0px" y="0px" width="24px"
	 height="24px" viewBox="0 0 24 24" enable-background="new 0 0 24 24" xml:space="preserve">
<g id="Outline_Icons">
	<g>
		<path fill="none" stroke="#000000" stroke-linecap="round" stroke-linejoin="round" stroke-miterlimit="10" d="M16.479,12.718
			c2.627-3.099,2.245-7.74-0.854-10.368C12.525-0.278,7.883,0.104,5.256,3.204C2.968,5.902,2.964,9.77,5.048,12.46l-2.296,5.073
			l4.63-3.095C10.376,16.053,14.19,15.417,16.479,12.718z"/>
		<path fill="none" stroke="#000000" stroke-linecap="round" stroke-linejoin="round" stroke-miterlimit="10" d="M21.471,16.954
			c0.032-2.138-1.675-3.898-3.813-3.93c-2.138-0.033-3.897,1.675-3.93,3.812c-0.028,1.862,1.264,3.436,3.01,3.833L17.5,23.5
			l0.847-2.805C20.104,20.35,21.442,18.816,21.471,16.954z"/>
	</g>
</g>
<g id="Frames-24px">
	<rect fill="none" width="24" height="24"/>
</g>
</svg>
