<?xml version="1.0" encoding="utf-8"?>
<!-- Generator: Adobe Illustrator 16.0.3, SVG Export Plug-In . SVG Version: 6.00 Build 0)  -->
<!DOCTYPE svg PUBLIC "-//W3C//DTD SVG 1.1//EN" "http://www.w3.org/Graphics/SVG/1.1/DTD/svg11.dtd">
<svg version="1.1" xmlns="http://www.w3.org/2000/svg" xmlns:xlink="http://www.w3.org/1999/xlink" x="0px" y="0px" width="24px"
	 height="24px" viewBox="0 0 24 24" enable-background="new 0 0 24 24" xml:space="preserve">
<g id="Outline_Icons">
	<g>
		
			<circle fill="none" stroke="#000000" stroke-linecap="round" stroke-linejoin="round" stroke-miterlimit="10" cx="12" cy="12" r="11.5"/>
		<path fill="none" stroke="#000000" stroke-linejoin="round" stroke-miterlimit="10" d="M13.643,9.935
			c0.313-0.357,2.753-2.315,3.245-2.429c0.728-0.168,1.176,0.615,0.649,1.176c-0.324,0.336-3.134,1.478-3.66,1.579
			c-0.123,0.032-0.303,0.054-0.347-0.013C13.475,10.159,13.563,10.023,13.643,9.935L13.643,9.935z M18.746,11.322
			c0.336,0.112,0.504,0.381,0.504,0.639v0.011l0,0c0,0.269-0.168,0.537-0.504,0.649c-0.358,0.113-2.607-0.102-3.66-0.369
			c-0.302-0.09-0.504-0.157-0.515-0.28c0.011-0.122,0.213-0.202,0.515-0.279C16.139,11.413,18.388,11.199,18.746,11.322
			L18.746,11.322z M13.53,13.752c0.044-0.078,0.224-0.047,0.347-0.023c0.526,0.102,3.336,1.242,3.66,1.59
			c0.526,0.549,0.078,1.344-0.649,1.176c-0.493-0.112-2.933-2.082-3.246-2.428C13.563,13.965,13.475,13.841,13.53,13.752
			L13.53,13.752z"/>
		<path fill="none" stroke="#000000" stroke-linecap="round" stroke-linejoin="round" stroke-miterlimit="10" d="M11.906,6.584
			l-3.257,9.56C8.373,16.955,7.612,17.5,6.756,17.5H5"/>
		
			<line fill="none" stroke="#000000" stroke-linecap="round" stroke-linejoin="round" stroke-miterlimit="10" x1="6.047" y1="6.584" x2="8.968" y2="15.219"/>
	</g>
</g>
<g id="Frames-24px">
	<rect fill="none" width="24" height="24"/>
</g>
</svg>
