<?xml version="1.0" encoding="utf-8"?>
<!-- Generator: Adobe Illustrator 16.0.3, SVG Export Plug-In . SVG Version: 6.00 Build 0)  -->
<!DOCTYPE svg PUBLIC "-//W3C//DTD SVG 1.1//EN" "http://www.w3.org/Graphics/SVG/1.1/DTD/svg11.dtd">
<svg version="1.1" xmlns="http://www.w3.org/2000/svg" xmlns:xlink="http://www.w3.org/1999/xlink" x="0px" y="0px" width="24px"
	 height="24px" viewBox="0 0 24 24" enable-background="new 0 0 24 24" xml:space="preserve">
<g id="Outline_Icons">
	<g>
		<g>
			<path fill="none" stroke="#000000" stroke-linejoin="round" stroke-miterlimit="10" d="M15.554,12.207
				c0.479,0.645,0.386,0.992,0.552,1.801c0.496,2.408,3.602,2.775,5.421,1.764c1.378-0.752,2.37-2.186,1.818-3.877
				c-0.274-0.826-1.12-1.598-2.059-1.819c-1.119-0.257-2.039-0.164-3.215,0.331c-0.863,0.369-1.892,0.662-2.958,0.441
				c-2.72-0.569-2.297-3.766,0.257-5.145c1.818-0.974,2.592-0.404,4.153-1.268c1.544-0.846,2.149-2.573,0.845-3.252
				c-0.496-0.277-1.029-0.313-1.617-0.239c-1.285,0.146-2.425,0.679-3.105,1.874c-0.532,0.955,0.074,1.396-0.808,2.553
				c-1.966,2.594-5.973,2.297-5.034-0.256c0.256-0.68,1.285-1.562,0.936-2.389c-0.091-0.184-0.238-0.312-0.367-0.387
				c-0.312-0.184-1.011-0.128-1.414,0.02c-0.331,0.109-0.735,0.293-1.085,0.55C7.138,3.461,6.514,4.287,6.697,5.06
				c0.166,0.735,0.79,0.57,1.525,0.644C9.71,5.85,9.509,7.432,8.884,8.422C8.058,9.71,5.89,11.087,4.75,10.186
				c-0.46-0.367-0.607-0.808-1.617-0.66C0.523,9.929-0.671,14.357,2.03,13.77c1.176-0.238,1.617-1.029,2.095-1.58
				c2.37-2.664,5.347-1.305,4.502,1.415c-0.441,1.47-1.286,2.095-2.462,2.829c-1.451,0.901-2.48,2.352-2.224,4.189
				c0.221,1.562,1.745,2.168,3.271,1.746c2.444-0.662,2.774-3.124,1.984-5.256c-0.496-1.359-0.625-2.168,0.019-3.326
				c0.184-0.367,0.423-0.717,0.698-1.01C11.438,11.013,14.14,10.24,15.554,12.207L15.554,12.207z"/>
		</g>
		<path fill="none" stroke="#000000" stroke-linejoin="round" stroke-miterlimit="10" d="M19.683,11.805
			c0.85-0.227,1.737,0.246,1.832,1.002c0.094,0.811-0.566,1.359-1.209,1.529C18.266,14.865,17.587,12.334,19.683,11.805
			L19.683,11.805z"/>
		<path fill="none" stroke="#000000" stroke-linejoin="round" stroke-miterlimit="10" d="M18.383,3.301
			c-0.906,0.14-0.711-0.82,0.184-0.971C19.451,2.179,19.235,3.172,18.383,3.301L18.383,3.301z"/>
		<path fill="none" stroke="#000000" stroke-linejoin="round" stroke-miterlimit="10" d="M6.916,18.095
			c0.868-0.114,1.228,0.737,0.982,1.491c-0.585,1.812-2.814,1.473-2.267-0.264C5.802,18.773,6.312,18.17,6.916,18.095L6.916,18.095z
			"/>
		<g>
			<path d="M2.627,11.197c-0.029,0-0.06,0.004-0.093,0.01c-0.445,0.096-0.795,0.688-0.551,0.923
				c0.049,0.046,0.114,0.067,0.188,0.067c0.275,0,0.662-0.303,0.703-0.705C2.893,11.303,2.794,11.197,2.627,11.197L2.627,11.197z"/>
		</g>
		<g>
			<path d="M9.063,3.318c-0.047,0-0.102,0.008-0.163,0.023C8.144,3.54,7.925,4.319,8.436,4.319c0.053,0,0.113-0.009,0.182-0.026
				C9.311,4.119,9.562,3.318,9.063,3.318L9.063,3.318z"/>
		</g>
	</g>
</g>
<g id="Frames-24px">
	<rect fill="none" width="24" height="24"/>
</g>
</svg>
