<?xml version="1.0" encoding="utf-8"?>
<!-- Generator: Adobe Illustrator 16.0.3, SVG Export Plug-In . SVG Version: 6.00 Build 0)  -->
<!DOCTYPE svg PUBLIC "-//W3C//DTD SVG 1.1//EN" "http://www.w3.org/Graphics/SVG/1.1/DTD/svg11.dtd">
<svg version="1.1" xmlns="http://www.w3.org/2000/svg" xmlns:xlink="http://www.w3.org/1999/xlink" x="0px" y="0px" width="24px"
	 height="24px" viewBox="0 0 24 24" enable-background="new 0 0 24 24" xml:space="preserve">
<g id="Outline_Icons">
	<g>
		<path fill="none" stroke="#000000" stroke-linejoin="round" stroke-miterlimit="10" d="M13.298,11.404
			c0.637,1.12,1.786,1.178,3.033,0.752c0.142-0.057,0.283,0.014,0.297,0.143c0.086,0.679,0.029,1.43,0.043,1.758
			c0,0.197,0.256,0.254,0.439,0.296c0.809,0.171,1.744-0.042,2.453-0.737c0.68-0.666,1.303-2.111,0.795-3.615
			c-0.398-1.176-1.717-2.012-3.078-1.87C16.515,8.2,15.878,8.541,15.41,8.98c-0.808,0.751-1.432,1.559-2.026,2.04
			C13.241,11.135,13.199,11.234,13.298,11.404L13.298,11.404z M16.328,10.281c0-0.283,0.225-0.5,0.5-0.5s0.5,0.217,0.5,0.5
			c0,0.275-0.225,0.492-0.5,0.492S16.328,10.557,16.328,10.281L16.328,10.281z M6.465,13.133c1.432-0.027,3.26-0.339,3.983-1.614
			c0.099-0.171,0.057-0.271-0.086-0.384c-0.595-0.481-1.219-1.289-2.027-2.041c-0.467-0.439-1.105-0.78-1.87-0.852
			c-1.361-0.127-2.679,0.71-3.077,1.887c-0.51,1.488,0.113,2.934,0.795,3.615c0.793,0.779,1.898,0.935,2.735,0.651
			c0.169-0.056,0.284-0.114,0.1-0.283c-0.155-0.142-0.581-0.468-0.667-0.724C6.309,13.248,6.294,13.133,6.465,13.133L6.465,13.133z
			 M6.918,10.898c-0.275,0-0.5-0.225-0.5-0.5s0.225-0.5,0.5-0.5c0.276,0,0.5,0.225,0.5,0.5S7.195,10.898,6.918,10.898L6.918,10.898z
			"/>
		<path fill="none" stroke="#000000" stroke-linejoin="round" stroke-miterlimit="10" d="M11.587,13.314
			c1.639,2.293,3.837,3.504,6.192,3.297c3.041-0.43,5.349-2.197,5.636-5.51c0.144-1.752-0.35-4.824-4.76-4.824
			c-2.69,0-4.904,1.608-6.369,3.201c-1.639-2.293-3.853-3.486-6.192-3.281c-3.058,0.431-5.365,2.197-5.637,5.494
			c-0.144,1.766,0.351,4.824,4.745,4.824C7.909,16.516,10.122,14.906,11.587,13.314L11.587,13.314z"/>
	</g>
</g>
<g id="Frames-24px">
	<rect fill="none" width="24" height="24"/>
</g>
</svg>
