<?xml version="1.0" encoding="utf-8"?>
<!-- Generator: Adobe Illustrator 16.0.3, SVG Export Plug-In . SVG Version: 6.00 Build 0)  -->
<!DOCTYPE svg PUBLIC "-//W3C//DTD SVG 1.1//EN" "http://www.w3.org/Graphics/SVG/1.1/DTD/svg11.dtd">
<svg version="1.1" xmlns="http://www.w3.org/2000/svg" xmlns:xlink="http://www.w3.org/1999/xlink" x="0px" y="0px" width="24px"
	 height="24px" viewBox="0 0 24 24" enable-background="new 0 0 24 24" xml:space="preserve">
<g id="Outline_Icons">
	<g>
		<path fill="none" stroke="#000000" stroke-linejoin="round" stroke-miterlimit="10" d="M4.091,23.217c1.938-0.084,4.29,0,6.585,0
			c2.368,0,4.793-0.157,6.701,0c0.772,0.064,1.482,0.525,2.117,0.116c0.491-0.632,0.127-1.48,0.236-2.33
			c0.205-1.613,1.694-3.549-0.471-3.96c-0.923,0.84-0.301,1.638-0.824,2.679c-0.632,1.261-2.898,1.697-5.056,1.864
			c-1.852,0.144-5.097,0.329-5.762-0.932c-0.561-1.064-0.235-2.715-0.235-4.078c0-1.54-0.165-3.016,0.235-4.194
			c2.353,0.172,5.395-0.784,7.055,0.232c1.11,0.681,0.479,2.013,1.765,2.447c0.883-0.237,0.412-1.38,0.352-2.447
			c-0.037-0.687-0.035-1.653,0-2.445c0.048-1.072,0.461-2.315-0.705-2.332c-0.917,0.712-0.229,1.9-1.177,2.563
			c-0.304,0.213-0.962,0.303-1.41,0.351c-1.763,0.186-4.526,0.034-5.997-0.232c-0.203-2.148-0.186-5.075,0-7.225
			c0.798-0.793,2.635-0.821,3.88-0.815c2.181,0.008,5.583,0.19,6.232,1.281c0.353,0.594,0.073,1.837,0.706,1.98
			c1.272,0.291,0.652-1.98,0.705-3.029c0.039-0.787,0.387-1.293,0.235-1.864c-0.411-0.562-1.025-0.281-1.411-0.233
			C13.847,1.107,7.77,0.846,3.503,0.846c-0.51,0-1.399-0.253-1.764,0.35C1.493,2.541,3.33,1.984,3.973,2.71
			c0.209,0.236,0.519,1.279,0.588,1.981c0.187,1.867,0,4.72,0,7.457c0,2.892,0.22,5.81,0,7.573
			c-0.076,0.616-0.447,1.608-0.588,1.748c-0.801,0.8-2.919-0.086-2.704,1.632C2.012,23.602,3.09,23.261,4.091,23.217"/>
	</g>
</g>
<g id="Frames-24px">
	<rect fill="none" width="24" height="24"/>
</g>
</svg>
