<?xml version="1.0" encoding="utf-8"?>
<!-- Generator: Adobe Illustrator 16.0.3, SVG Export Plug-In . SVG Version: 6.00 Build 0)  -->
<!DOCTYPE svg PUBLIC "-//W3C//DTD SVG 1.1//EN" "http://www.w3.org/Graphics/SVG/1.1/DTD/svg11.dtd">
<svg version="1.1" xmlns="http://www.w3.org/2000/svg" xmlns:xlink="http://www.w3.org/1999/xlink" x="0px" y="0px" width="24px"
	 height="24px" viewBox="0 0 24 24" enable-background="new 0 0 24 24" xml:space="preserve">
<g id="Outline_Icons">
	<g>
		
			<circle fill="none" stroke="#000000" stroke-linecap="round" stroke-linejoin="round" stroke-miterlimit="10" cx="12" cy="12" r="11.5"/>
		<path id="Oval-1_1_" fill="none" stroke="#000000" stroke-linejoin="round" stroke-miterlimit="10" d="M15.013,9.764
			c-0.308,0.631-0.266,1.384,0.124,1.963l0.024,0.037c0.463,0.69,1.225,1.398,1.31,1.719c0.342,1.265-1.502,1.795-1.843,0.535
			c-0.161-0.595,0.208-0.648-0.37-1.316c-0.301-0.348-0.917,0.31-1.116,0.986c-0.561,1.902,0.128,2.524-0.681,2.973
			c-0.526,0.29-1.27,0.277-1.459-0.462c-0.189-0.742,1.289-4.028,1.289-4.028c-0.47,0.998-2.414,2.798-3.372,1.575
			c-0.33-0.422-0.268-1.042,0.14-1.385c0,0,0.453,0.312,2.712-1.466c-0.681,0.382-2.48,0.59-2.926-0.05
			C8.57,10.451,8.656,9.899,9.037,9.615c0.158-0.118,0.34-0.17,0.52-0.164c0.652,0.021,2.774,0.566,3.751-1.332
			c0,0,0.313-0.572,0.701-1.277c0.388-0.705,0.358-1.477-0.063-1.723L13.18,4.67c-0.387-0.226-1.018-0.228-1.404-0.002L6.202,7.746
			C5.816,7.971,5.5,8.532,5.5,8.991v6.015c0,0.459,0.316,1.022,0.702,1.246l5.575,3.078c0.387,0.228,1.02,0.228,1.405,0l5.556-3.084
			c0.386-0.228,0.762-0.789,0.762-1.248V8.983c0-0.459-0.376-1.021-0.762-1.247c0,0-0.389-0.228-0.869-0.509
			C16.813,6.61,15.479,8.922,15.013,9.764z"/>
	</g>
</g>
<g id="Frames-24px">
	<rect fill="none" width="24" height="24"/>
</g>
</svg>
