<?xml version="1.0" encoding="utf-8"?>
<!-- Generator: Adobe Illustrator 16.0.3, SVG Export Plug-In . SVG Version: 6.00 Build 0)  -->
<!DOCTYPE svg PUBLIC "-//W3C//DTD SVG 1.1//EN" "http://www.w3.org/Graphics/SVG/1.1/DTD/svg11.dtd">
<svg version="1.1" xmlns="http://www.w3.org/2000/svg" xmlns:xlink="http://www.w3.org/1999/xlink" x="0px" y="0px" width="24px"
	 height="24px" viewBox="0 0 24 24" enable-background="new 0 0 24 24" xml:space="preserve">
<g id="Outline_Icons">
	<g>
		
			<circle fill="none" stroke="#000000" stroke-linecap="round" stroke-linejoin="round" stroke-miterlimit="10" cx="12" cy="12" r="11.5"/>
		<g>
			<path fill="none" stroke="#000000" stroke-linejoin="round" stroke-miterlimit="10" d="M14.987,12.925
				c-0.016-1.556,1.269-2.303,1.325-2.339c-0.721-1.055-1.904-1.06-2.305-1.077c-0.956-0.096-1.92,0.802-2.405,0.802
				c-0.484,0-1.18-0.788-1.972-0.774c-1.043,0.016-1.944,0.466-2.481,1.399c-1.083,1.88-0.277,4.665,0.778,6.189
				c0.516,0.744,1.065,1.44,1.873,1.409c0.777-0.032,1.071-0.504,2.012-0.504s1.205,0.504,2.027,0.487
				c0.837-0.014,1.433-0.615,1.944-1.363c0.593-0.865,0.837-1.704,0.851-1.747C16.617,15.399,15.004,14.781,14.987,12.925z"/>
			<path fill="none" stroke="#000000" stroke-linejoin="round" stroke-miterlimit="10" d="M13.541,7.305
				c0.452-0.548,0.758-1.311,0.675-2.068c-0.652,0.026-1.441,0.434-1.909,0.98c-0.42,0.487-0.787,1.261-0.688,2.006
				C12.346,8.281,13.088,7.852,13.541,7.305z"/>
		</g>
	</g>
</g>
<g id="Frames-24px">
	<rect fill="none" width="24" height="24"/>
</g>
</svg>
