<?xml version="1.0" encoding="utf-8"?>
<!-- Generator: Adobe Illustrator 16.0.3, SVG Export Plug-In . SVG Version: 6.00 Build 0)  -->
<!DOCTYPE svg PUBLIC "-//W3C//DTD SVG 1.1//EN" "http://www.w3.org/Graphics/SVG/1.1/DTD/svg11.dtd">
<svg version="1.1" xmlns="http://www.w3.org/2000/svg" xmlns:xlink="http://www.w3.org/1999/xlink" x="0px" y="0px" width="24px"
	 height="24px" viewBox="0 0 24 24" enable-background="new 0 0 24 24" xml:space="preserve">
<g id="Outline_Icons">
	<g id="形状_1_4_">
		<g>
			<path fill="none" stroke="#000000" stroke-linejoin="round" stroke-miterlimit="10" d="M12,15.449
				c1.904,0,3.449-1.543,3.449-3.449c0-1.904-1.545-3.451-3.449-3.451s-3.448,1.545-3.448,3.449V12
				C8.552,13.906,10.096,15.449,12,15.449z M12,0.5c-1.201,0-2.412,0.186-3.5,0.528v6.374C9.459,6.68,10.705,6.25,12,6.25
				c3.174,0,5.749,2.578,5.749,5.75c0,3.177-2.575,5.75-5.749,5.75c-3.175,0-5.5-2.573-5.5-5.75V2.039c-3.436,1.99-6,5.705-6,9.961
				c0,6.352,5.147,11.501,11.5,11.501c6.35,0,11.5-5.149,11.5-11.501C23.5,5.646,18.352,0.5,12,0.5z"/>
		</g>
	</g>
</g>
<g id="Frames-24px">
	<rect fill="none" width="24" height="24"/>
</g>
</svg>
