<?xml version="1.0" encoding="utf-8"?>
<!-- Generator: Adobe Illustrator 16.0.3, SVG Export Plug-In . SVG Version: 6.00 Build 0)  -->
<!DOCTYPE svg PUBLIC "-//W3C//DTD SVG 1.1//EN" "http://www.w3.org/Graphics/SVG/1.1/DTD/svg11.dtd">
<svg version="1.1" xmlns="http://www.w3.org/2000/svg" xmlns:xlink="http://www.w3.org/1999/xlink" x="0px" y="0px" width="24px"
	 height="24px" viewBox="0 0 24 24" enable-background="new 0 0 24 24" xml:space="preserve">
<g id="Outline_Icons">
	<g>
		<circle fill="none" stroke="#000000" stroke-linejoin="round" stroke-miterlimit="10" cx="11.969" cy="12.183" r="2.5"/>
		<path fill="none" stroke="#000000" stroke-linejoin="round" stroke-miterlimit="10" d="M11.017,9.877
			c-0.164-0.84-0.751-3.481-0.829-6.225c-0.094-3.312,7.406-5.531,6.688,2.219c-1.338,1.689-2.834,3.467-3.496,4.248"/>
		<path fill="none" stroke="#000000" stroke-linejoin="round" stroke-miterlimit="10" d="M16.875,5.871
			c2.281-2.438,7.973-0.266,2.375,4.25c-2.502,0.554-4.064,0.945-4.943,1.177"/>
		<path fill="none" stroke="#000000" stroke-linejoin="round" stroke-miterlimit="10" d="M19.25,10.121
			c4.375-0.438,4.375,4.25,3.781,5.343c-0.594,1.094-2.438,3.063-5.219,0.781c-1.672-1.418-2.911-2.403-3.609-2.943"/>
		<path fill="none" stroke="#000000" stroke-linejoin="round" stroke-miterlimit="10" d="M17.812,16.246
			c2.625,4.157-2.795,7.126-4.258,2.688l-0.912-4.343"/>
		<path fill="none" stroke="#000000" stroke-linejoin="round" stroke-miterlimit="10" d="M10.383,14.116
			c-0.494,0.67-1.497,1.982-3.196,4.224c-3.531,4.655,4.35,7.416,5.75,2.75c0.338-1.126,0.617-2.157,0.617-2.157"/>
		<path fill="none" stroke="#000000" stroke-linejoin="round" stroke-miterlimit="10" d="M9.671,13.169
			c-0.823,0.253-2.411,0.746-4.796,1.514c-3.688,1.188-2.406,5.967,2.312,3.657"/>
		<path fill="none" stroke="#000000" stroke-linejoin="round" stroke-miterlimit="10" d="M9.503,11.792
			C7.75,10.63,6.888,8.859,4.531,9.027C1.889,9.215,0.5,10.788,0.5,12.527c0,1.738,2.723,2.634,4.375,2.156"/>
		<path fill="none" stroke="#000000" stroke-linejoin="round" stroke-miterlimit="10" d="M11.017,9.877
			c-0.222-1.065-0.663-2.804-1.36-3.913C8.594,4.277,6.812,2.933,5.625,3.777C4.438,4.621,3.582,6.996,6.932,9.683"/>
	</g>
</g>
<g id="Frames-24px">
	<rect fill="none" width="24" height="24"/>
</g>
</svg>
