<?xml version="1.0" encoding="utf-8"?>
<!-- Generator: Adobe Illustrator 16.0.3, SVG Export Plug-In . SVG Version: 6.00 Build 0)  -->
<!DOCTYPE svg PUBLIC "-//W3C//DTD SVG 1.1//EN" "http://www.w3.org/Graphics/SVG/1.1/DTD/svg11.dtd">
<svg version="1.1" xmlns="http://www.w3.org/2000/svg" xmlns:xlink="http://www.w3.org/1999/xlink" x="0px" y="0px" width="24px"
	 height="24px" viewBox="0 0 24 24" enable-background="new 0 0 24 24" xml:space="preserve">
<g id="Outline_Icons">
	<g>
		
			<circle fill="none" stroke="#000000" stroke-linecap="round" stroke-linejoin="round" stroke-miterlimit="10" cx="12" cy="12" r="11.5"/>
		<path fill="none" stroke="#000000" stroke-linejoin="round" stroke-miterlimit="10" d="M5.716,16.365
			c1.341,1.041,3.12,1.462,4.812,1.604c1.06,0.087,2.134,0.086,3.191-0.024c3.616-0.382,5.703-2.217,5.774-3.058
			c0.02-0.228-0.019-0.46-0.063-0.684c-1.282-6.328-4.943-8.672-7.263-8.672h-0.46c-3.636,0-7.208,5.621-7.208,9.235
			C4.5,15.309,5.295,16.037,5.716,16.365z"/>
		<path fill="none" stroke="#000000" stroke-linejoin="round" stroke-miterlimit="10" d="M5.73,16.355
			c-0.268-0.383-0.184-0.439-0.146-0.6c0.229-0.961,1.693-3.59,2.666-3.905c0.977-0.315,1.441,1.499,2.425,1.438
			c0.845-0.055,2.53-3.021,3.183-3.234c0.104-0.034,0.219-0.023,0.318,0.022c0.652,0.298,2.354,1.903,3.975,4.821
			c0.244,0.439,0.443,0.883,0.291,1.318"/>
	</g>
</g>
<g id="Frames-24px">
	<rect fill="none" width="24" height="24"/>
</g>
</svg>
