<?xml version="1.0" encoding="utf-8"?>
<!-- Generator: Adobe Illustrator 16.0.3, SVG Export Plug-In . SVG Version: 6.00 Build 0)  -->
<!DOCTYPE svg PUBLIC "-//W3C//DTD SVG 1.1//EN" "http://www.w3.org/Graphics/SVG/1.1/DTD/svg11.dtd">
<svg version="1.1" xmlns="http://www.w3.org/2000/svg" xmlns:xlink="http://www.w3.org/1999/xlink" x="0px" y="0px" width="24px"
	 height="24px" viewBox="0 0 24 24" enable-background="new 0 0 24 24" xml:space="preserve">
<g id="Outline_Icons">
	<g>
		<path fill="none" stroke="#000000" stroke-linejoin="round" stroke-miterlimit="10" d="M6.742,9.084
			c0.137,1.955-0.922,3.621-2.367,3.723c-1.444,0.102-2.727-1.4-2.863-3.355C1.375,7.495,2.436,5.828,3.88,5.727
			C5.324,5.626,6.606,7.129,6.742,9.084 M16.69,0.98c-1.403-0.359-2.933,0.891-3.415,2.789c-0.484,1.899,0.262,3.729,1.665,4.088
			c1.402,0.357,2.933-0.892,3.415-2.791C18.984,2.595,17.026,1.064,16.69,0.98 M19.979,7.381c-1.476,0.021-2.646,1.426-2.614,3.6
			c0.032,2.175,1.254,3.166,2.73,3.145c1.476-0.022,2.647-1.049,2.615-3.225C22.668,8.071,20.333,7.376,19.979,7.381 M9.286,0.5
			c-1.404,0-2.543,1.575-2.543,3.516c0,1.941,1.139,3.516,2.543,3.516s2.543-1.574,2.543-3.516C11.829,2.075,10.69,0.5,9.286,0.5
			 M8.961,11.418C6.029,15.627,2.9,16.172,2.9,19.246c0,1.518,0.866,4.037,3.328,4.037s3.652-0.542,5.601-0.542
			s3.247,0.759,5.709,0.759s3.594-2.334,3.49-3.847c-0.218-3.176-3.3-2.948-6.413-8.453c-0.829-1.151-1.785-1.3-2.786-1.3
			S9.772,10.253,8.961,11.418"/>
	</g>
</g>
<g id="Frames-24px">
	<rect fill="none" width="24" height="24"/>
</g>
</svg>
