<?xml version="1.0" encoding="utf-8"?>
<!-- Generator: Adobe Illustrator 16.0.3, SVG Export Plug-In . SVG Version: 6.00 Build 0)  -->
<!DOCTYPE svg PUBLIC "-//W3C//DTD SVG 1.1//EN" "http://www.w3.org/Graphics/SVG/1.1/DTD/svg11.dtd">
<svg version="1.1" xmlns="http://www.w3.org/2000/svg" xmlns:xlink="http://www.w3.org/1999/xlink" x="0px" y="0px" width="24px"
	 height="24px" viewBox="0 0 24 24" enable-background="new 0 0 24 24" xml:space="preserve">
<g id="Outline_Icons">
	<path fill="none" stroke="#000000" stroke-linejoin="round" stroke-miterlimit="10" d="M21.5,16.442v5.091
		c-4.527,2.285-11.586,2.936-15.922,0.012c-2.625-1.771-5.214-5.292-5.072-9.746c0.134-4.23,2.877-8.018,6.649-9.926
		c4.337-2.193,10.883-1.778,14.699,1.381l-2.249,2.293l-1.456,0.414l0.774-1.408c-1.112-1.119-2.39-1.931-3.797-2.379
		c-2.242-0.719-4.312-0.322-6.037,0.521c-3.531,1.729-5.62,5.92-4.809,10.352c0.854,4.668,4.466,8.41,9.203,8.804
		c1.396,0.118,2.925,0.048,4.277-0.308c0.962-0.311,0.738-0.404,0.738-0.988V16.5h-4.527l2.443-2h6.595L21.5,16.442z"/>
</g>
<g id="Frames-24px">
	<rect fill="none" width="24" height="24"/>
</g>
</svg>
