<?xml version="1.0" encoding="utf-8"?>
<!-- Generator: Adobe Illustrator 16.0.3, SVG Export Plug-In . SVG Version: 6.00 Build 0)  -->
<!DOCTYPE svg PUBLIC "-//W3C//DTD SVG 1.1//EN" "http://www.w3.org/Graphics/SVG/1.1/DTD/svg11.dtd">
<svg version="1.1" xmlns="http://www.w3.org/2000/svg" xmlns:xlink="http://www.w3.org/1999/xlink" x="0px" y="0px" width="24px"
	 height="24px" viewBox="0 0 24 24" enable-background="new 0 0 24 24" xml:space="preserve">
<g id="Outline_Icons">
	<g>
		
			<circle fill="none" stroke="#000000" stroke-linecap="round" stroke-linejoin="round" stroke-miterlimit="10" cx="12" cy="12" r="11.5"/>
		<g>
			<path id="path17-6_1_" fill="none" stroke="#000000" stroke-linejoin="round" stroke-miterlimit="10" d="M15.88,15.576
				c-0.387-0.311-0.801-0.592-1.208-0.877c-0.812-0.571-1.556-0.615-2.162,0.303c-0.34,0.516-0.816,0.537-1.315,0.312
				c-1.373-0.624-2.435-1.584-3.056-2.98c-0.274-0.617-0.271-1.172,0.372-1.608c0.341-0.231,0.684-0.503,0.656-1.009
				C9.131,9.059,7.533,6.858,6.901,6.626c-0.261-0.095-0.521-0.089-0.787,0C4.635,7.123,4.021,8.34,4.608,9.783
				c1.751,4.299,4.834,7.292,9.077,9.119c0.241,0.104,0.511,0.146,0.646,0.184c0.966,0.01,2.098-0.922,2.425-1.846
				C17.071,16.352,16.406,16,15.88,15.576L15.88,15.576z"/>
			<path fill="none" stroke="#000000" stroke-linecap="round" stroke-linejoin="round" stroke-miterlimit="10" d="M19.388,11.61
				c-0.934-3.411-3.73-6.212-7.143-7.15"/>
			<path fill="none" stroke="#000000" stroke-linecap="round" stroke-linejoin="round" stroke-miterlimit="10" d="M11.421,8.387
				c2.111,0.119,3.921,1.924,4.038,4.039"/>
			<path fill="none" stroke="#000000" stroke-linecap="round" stroke-linejoin="round" stroke-miterlimit="10" d="M17.473,12.104
				c-0.54-2.799-2.838-5.126-5.629-5.71"/>
			<path fill="none" stroke="#000000" stroke-linecap="round" stroke-linejoin="round" stroke-miterlimit="10" d="M15.459,12.426
				c-0.117-2.111-1.923-3.92-4.038-4.039"/>
		</g>
	</g>
</g>
<g id="Frames-24px">
	<rect fill="none" width="24" height="24"/>
</g>
</svg>
