<?xml version="1.0" encoding="utf-8"?>
<!-- Generator: Adobe Illustrator 16.0.3, SVG Export Plug-In . SVG Version: 6.00 Build 0)  -->
<!DOCTYPE svg PUBLIC "-//W3C//DTD SVG 1.1//EN" "http://www.w3.org/Graphics/SVG/1.1/DTD/svg11.dtd">
<svg version="1.1" xmlns="http://www.w3.org/2000/svg" xmlns:xlink="http://www.w3.org/1999/xlink" x="0px" y="0px" width="24px"
	 height="24px" viewBox="0 0 24 24" enable-background="new 0 0 24 24" xml:space="preserve">
<g id="Outline_Icons">
	<g>
		
			<circle fill="none" stroke="#000000" stroke-linecap="round" stroke-linejoin="round" stroke-miterlimit="10" cx="12" cy="12" r="11.5"/>
		<g>
			<path fill="none" stroke="#000000" stroke-linejoin="round" stroke-miterlimit="10" d="M12.498,3.558
				c-4.136,0-7.5,3.339-7.5,7.442c0,1.628,0.531,3.137,1.429,4.363L5.49,18.127l2.882-0.916c1.185,0.777,2.603,1.231,4.126,1.231
				c4.136,0,7.5-3.339,7.5-7.442S16.634,3.558,12.498,3.558 M17.003,13.037c-0.055-0.089-0.2-0.144-0.419-0.252
				s-1.295-0.633-1.494-0.705c-0.201-0.073-0.347-0.109-0.492,0.107s-0.564,0.706-0.692,0.85c-0.128,0.146-0.255,0.164-0.474,0.056
				s-0.924-0.338-1.759-1.075c-0.649-0.575-1.089-1.287-1.217-1.503c-0.127-0.216-0.013-0.335,0.097-0.442
				c0.368-0.365,0.459-0.568,0.546-0.742c0.073-0.145,0.037-0.271-0.018-0.381c-0.055-0.108-0.493-1.176-0.675-1.61
				C10.2,6.847,9.282,6.83,8.912,7.23C7.744,8.498,8.015,9.932,9.04,11.283c0.109,0.145,1.512,2.407,3.735,3.275
				c2.223,0.869,2.223,0.58,2.624,0.543C16.551,14.998,17.332,13.586,17.003,13.037"/>
		</g>
	</g>
</g>
<g id="Frames-24px">
	<rect fill="none" width="24" height="24"/>
</g>
</svg>
