<?xml version="1.0" encoding="utf-8"?>
<!-- Generator: Adobe Illustrator 16.0.3, SVG Export Plug-In . SVG Version: 6.00 Build 0)  -->
<!DOCTYPE svg PUBLIC "-//W3C//DTD SVG 1.1//EN" "http://www.w3.org/Graphics/SVG/1.1/DTD/svg11.dtd">
<svg version="1.1" xmlns="http://www.w3.org/2000/svg" xmlns:xlink="http://www.w3.org/1999/xlink" x="0px" y="0px" width="24px"
	 height="24px" viewBox="0 0 24 24" enable-background="new 0 0 24 24" xml:space="preserve">
<g id="Outline_Icons">
	<g>
		<path fill="none" stroke="#000000" stroke-linejoin="round" stroke-miterlimit="10" d="M11.61,18.026
			c1.548,0-0.452,5.474,3.548,5.474c2.206,0,5.729-2.524,3.489-6.533c-0.715-1.278,3.853-2.529,3.853-4.387
			c-1.082,0.462-4.145,1.829-8.121,1.824c-2.296-0.002-2.769,1.086-2.769,1.086s-0.472-1.088-2.769-1.086
			c-3.977,0.005-7.234-1.391-8.316-1.854c0,1.858,4.764,3.138,4.049,4.416C2.333,20.976,5.856,23.5,8.062,23.5
			C12.062,23.5,10.062,18.026,11.61,18.026z"/>
		<path fill="none" stroke="#000000" stroke-linejoin="round" stroke-miterlimit="10" d="M20.562,13.341V2.58c0-1.104-0.896-2-2-2
			h-14c-1.105,0-2,0.896-2,2v10.754"/>
		<circle fill="none" stroke="#000000" stroke-linejoin="round" stroke-miterlimit="10" cx="15.062" cy="9.58" r="3"/>
		<circle fill="none" stroke="#000000" stroke-linejoin="round" stroke-miterlimit="10" cx="8.062" cy="9.58" r="3"/>
	</g>
</g>
<g id="Frames-24px">
	<rect fill="none" width="24" height="24"/>
</g>
</svg>
