<?xml version="1.0" encoding="utf-8"?>
<!-- Generator: Adobe Illustrator 16.0.3, SVG Export Plug-In . SVG Version: 6.00 Build 0)  -->
<!DOCTYPE svg PUBLIC "-//W3C//DTD SVG 1.1//EN" "http://www.w3.org/Graphics/SVG/1.1/DTD/svg11.dtd">
<svg version="1.1" xmlns="http://www.w3.org/2000/svg" xmlns:xlink="http://www.w3.org/1999/xlink" x="0px" y="0px" width="24px"
	 height="24px" viewBox="0 0 24 24" enable-background="new 0 0 24 24" xml:space="preserve">
<g id="Outline_Icons">
	<g>
		<path fill-rule="evenodd" clip-rule="evenodd" fill="none" stroke="#000000" stroke-linejoin="round" stroke-miterlimit="10" d="
			M22.914,9.434c-0.424-0.332-2.568,0.022-3.146-0.502c-0.41-0.377-0.474-1.057-0.597-1.974c-0.23-1.784-0.377-1.876-0.654-2.477
			c-1.01-2.144-3.749-3.756-5.631-3.98H7.788C3.778,0.5,0.5,3.785,0.5,7.795v8.51c0,4.002,3.278,7.281,7.288,7.281h8.376
			c4.011,0,7.269-3.279,7.291-7.281l0.045-5.895C23.351,9.699,23.278,9.719,22.914,9.434z"/>
		<path fill-rule="evenodd" clip-rule="evenodd" fill="none" stroke="#000000" stroke-linejoin="round" stroke-miterlimit="10" d="
			M6.5,8c0,0.83,0.672,1.5,1.5,1.5h4c0.828,0,1.5-0.67,1.5-1.5c0-0.829-0.672-1.5-1.5-1.5H8C7.172,6.5,6.5,7.171,6.5,8z"/>
		<path fill-rule="evenodd" clip-rule="evenodd" fill="none" stroke="#000000" stroke-linejoin="round" stroke-miterlimit="10" d="
			M6.5,16c0,0.83,0.672,1.5,1.5,1.5h8c0.828,0,1.5-0.67,1.5-1.5c0-0.829-0.672-1.5-1.5-1.5H8C7.172,14.5,6.5,15.171,6.5,16z"/>
	</g>
</g>
<g id="Frames-24px">
	<rect fill="none" width="24" height="24"/>
</g>
</svg>
