<?xml version="1.0" encoding="utf-8"?>
<!-- Generator: Adobe Illustrator 16.0.3, SVG Export Plug-In . SVG Version: 6.00 Build 0)  -->
<!DOCTYPE svg PUBLIC "-//W3C//DTD SVG 1.1//EN" "http://www.w3.org/Graphics/SVG/1.1/DTD/svg11.dtd">
<svg version="1.1" xmlns="http://www.w3.org/2000/svg" xmlns:xlink="http://www.w3.org/1999/xlink" x="0px" y="0px" width="24px"
	 height="24px" viewBox="0 0 24 24" enable-background="new 0 0 24 24" xml:space="preserve">
<g id="Outline_Icons">
	<g>
		<path id="path17-6_4_" fill="none" stroke="#000000" stroke-linejoin="round" stroke-miterlimit="10" d="M17.762,17.533
			c-0.548-0.44-1.134-0.837-1.71-1.241c-1.149-0.808-2.201-0.87-3.059,0.429c-0.481,0.73-1.156,0.762-1.861,0.441
			c-1.944-0.881-3.444-2.239-4.323-4.215c-0.39-0.875-0.385-1.658,0.525-2.276c0.482-0.327,0.967-0.714,0.929-1.428
			C8.212,8.312,5.95,5.197,5.057,4.87C4.688,4.734,4.319,4.743,3.943,4.869C1.849,5.572,0.981,7.297,1.812,9.336
			c2.479,6.084,6.84,10.319,12.844,12.904c0.342,0.147,0.723,0.207,0.915,0.26c1.366,0.014,2.968-1.304,3.431-2.611
			C19.447,18.633,18.506,18.133,17.762,17.533L17.762,17.533z"/>
		<path fill="none" stroke="#000000" stroke-linecap="round" stroke-linejoin="round" stroke-miterlimit="10" d="M22.725,11.92
			c-1.32-4.824-5.277-8.787-10.106-10.115"/>
		<path fill="none" stroke="#000000" stroke-linecap="round" stroke-linejoin="round" stroke-miterlimit="10" d="M11.452,7.361
			c2.987,0.168,5.547,2.723,5.714,5.715"/>
		<path fill="none" stroke="#000000" stroke-linecap="round" stroke-linejoin="round" stroke-miterlimit="10" d="M20.016,12.621
			c-0.765-3.96-4.017-7.254-7.965-8.079"/>
		<path fill="none" stroke="#000000" stroke-linecap="round" stroke-linejoin="round" stroke-miterlimit="10" d="M17.166,13.076
			c-0.168-2.988-2.721-5.547-5.714-5.715"/>
	</g>
</g>
<g id="Frames-24px">
	<rect fill="none" width="24" height="24"/>
</g>
</svg>
