<?xml version="1.0" encoding="utf-8"?>
<!-- Generator: Adobe Illustrator 16.0.3, SVG Export Plug-In . SVG Version: 6.00 Build 0)  -->
<!DOCTYPE svg PUBLIC "-//W3C//DTD SVG 1.1//EN" "http://www.w3.org/Graphics/SVG/1.1/DTD/svg11.dtd">
<svg version="1.1" xmlns="http://www.w3.org/2000/svg" xmlns:xlink="http://www.w3.org/1999/xlink" x="0px" y="0px" width="24px"
	 height="24px" viewBox="0 0 24 24" enable-background="new 0 0 24 24" xml:space="preserve">
<g id="Outline_Icons">
	<g>
		
			<circle fill="none" stroke="#000000" stroke-linecap="round" stroke-linejoin="round" stroke-miterlimit="10" cx="12" cy="12" r="11.5"/>
		<circle fill="none" stroke="#000000" stroke-linejoin="round" stroke-miterlimit="10" cx="16.578" cy="15.957" r="1.826"/>
		<path fill="none" stroke="#000000" stroke-linejoin="round" stroke-miterlimit="10" d="M14.479,13.804
			c-0.01-0.026-0.013-0.056-0.022-0.083c-1.211-3.424-6.16-3.113-6.16-5.301c0-1.069,1.113-1.563,2.186-1.563
			c0.521,0,0.926,0.079,1.231,0.231c-0.46,1.02,0.3,2.129,1.382,2.129c0.839,0,1.52-0.678,1.52-1.512
			C14.615,6.662,12.812,5,10.321,5C8.261,5,6.408,6.406,6.408,8.402c0,4.127,5.947,3.475,5.947,6.633
			c0,2.008-2.476,2.92-4.124,1.021c0.287-0.275,0.468-0.658,0.468-1.086c0-0.834-0.68-1.508-1.519-1.508s-1.519,0.674-1.519,1.508
			C5.662,15.771,6.971,19,10.58,19c1.316,0,2.418-0.526,3.24-1.527c-0.249-0.426-0.403-0.918-0.403-1.448
			C13.417,15.127,13.836,14.336,14.479,13.804z"/>
	</g>
</g>
<g id="Frames-24px">
	<rect fill="none" width="24" height="24"/>
</g>
</svg>
