<?xml version="1.0" encoding="utf-8"?>
<!-- Generator: Adobe Illustrator 16.0.3, SVG Export Plug-In . SVG Version: 6.00 Build 0)  -->
<!DOCTYPE svg PUBLIC "-//W3C//DTD SVG 1.1//EN" "http://www.w3.org/Graphics/SVG/1.1/DTD/svg11.dtd">
<svg version="1.1" xmlns="http://www.w3.org/2000/svg" xmlns:xlink="http://www.w3.org/1999/xlink" x="0px" y="0px" width="24px"
	 height="24px" viewBox="0 0 24 24" enable-background="new 0 0 24 24" xml:space="preserve">
<g id="Outline_Icons">
	<path id="Oval-1_4_" fill="none" stroke="#000000" stroke-linejoin="round" stroke-miterlimit="10" d="M15.619,8.572
		c-0.472,0.967-0.407,2.121,0.19,3.01l0.038,0.056c0.709,1.058,1.877,2.146,2.008,2.636c0.218,0.809-0.237,1.646-1.018,1.873
		c-0.781,0.227-1.59-0.246-1.809-1.054c-0.246-0.91,0.318-0.994-0.566-2.016c-0.462-0.534-1.406,0.474-1.713,1.511
		c-0.319,1.084-0.512,1.99-0.454,2.076c0.556,0.84,0.28,2-0.589,2.482C10.9,19.59,9.898,19.273,9.47,18.438
		c-0.451-0.88-0.083-1.971,0.794-2.371c0.241-0.11,1.453-4.836,1.522-5.094c-1.29,2.742-2.062,1.412-3.085,3.451
		c-0.09,0.178-0.215,0.34-0.375,0.475c-0.625,0.525-1.543,0.426-2.05-0.222S5.865,13.08,6.49,12.554
		c0.183-0.153,0.392-0.255,0.607-0.303c0.947-0.214,3.319-2.187,4.115-2.813c-2.306,1.29-2.969,0.836-2.969,0.836
		c-0.074,0.098-0.162,0.186-0.263,0.262c-0.584,0.436-1.398,0.299-1.819-0.307S5.874,8.781,6.457,8.344
		c0.242-0.18,0.521-0.262,0.797-0.254c1,0.033,4.254,0.873,5.751-2.041c0,0,0.481-0.877,1.075-1.957s0.551-2.265-0.098-2.644
		l-1.174-0.688c-0.592-0.347-1.561-0.348-2.153,0L2.577,5.478C1.984,5.822,1.5,6.682,1.5,7.387v9.224
		c0,0.705,0.485,1.566,1.076,1.909l8.083,4.72c0.593,0.348,1.562,0.348,2.153-0.001l8.52-4.729c0.592-0.348,1.168-1.207,1.168-1.912
		V7.376c0-0.706-0.576-1.565-1.168-1.913c0.001,0.002-0.596-0.35-1.332-0.779C18.381,3.734,16.335,7.281,15.619,8.572z"/>
</g>
<g id="Frames-24px">
	<rect fill="none" width="24" height="24"/>
</g>
</svg>
