<?xml version="1.0" encoding="utf-8"?>
<!-- Generator: Adobe Illustrator 16.0.3, SVG Export Plug-In . SVG Version: 6.00 Build 0)  -->
<!DOCTYPE svg PUBLIC "-//W3C//DTD SVG 1.1//EN" "http://www.w3.org/Graphics/SVG/1.1/DTD/svg11.dtd">
<svg version="1.1" xmlns="http://www.w3.org/2000/svg" xmlns:xlink="http://www.w3.org/1999/xlink" x="0px" y="0px" width="24px"
	 height="24px" viewBox="0 0 24 24" enable-background="new 0 0 24 24" xml:space="preserve">
<g id="Outline_Icons">
	<g>
		<g>
			<path fill="none" stroke="#000000" stroke-miterlimit="10" d="M12,23.5C5.659,23.5,0.5,18.341,0.5,12S5.659,0.5,12,0.5
				c3.162,0,6.218,1.322,8.383,3.628l-2.915,2.739C16.035,5.341,14.093,4.5,12,4.5c-4.136,0-7.5,3.365-7.5,7.5
				c0,4.136,3.364,7.5,7.5,7.5c3.262,0,6.055-2.074,7.087-5H13.5v-4h10l-0.003,2.104C23.18,18.715,18.13,23.5,12,23.5z"/>
		</g>
		<line fill="none" stroke="#000000" stroke-miterlimit="10" x1="5.5" y1="8.2" x2="2.348" y2="5.679"/>
		<line fill="none" stroke="#000000" stroke-miterlimit="10" x1="5.58" y1="15.828" x2="2.547" y2="18.559"/>
		<line fill="none" stroke="#000000" stroke-miterlimit="10" x1="16.471" y1="18.029" x2="19.141" y2="21.033"/>
	</g>
</g>
<g id="Frames-24px">
</g>
</svg>
