<?xml version="1.0" encoding="utf-8"?>
<!-- Generator: Adobe Illustrator 16.0.3, SVG Export Plug-In . SVG Version: 6.00 Build 0)  -->
<!DOCTYPE svg PUBLIC "-//W3C//DTD SVG 1.1//EN" "http://www.w3.org/Graphics/SVG/1.1/DTD/svg11.dtd">
<svg version="1.1" xmlns="http://www.w3.org/2000/svg" xmlns:xlink="http://www.w3.org/1999/xlink" x="0px" y="0px" width="24px"
	 height="24px" viewBox="0 0 24 24" enable-background="new 0 0 24 24" xml:space="preserve">
<g id="Outline_Icons">
	<g>
		
			<circle fill="none" stroke="#000000" stroke-linecap="round" stroke-linejoin="round" stroke-miterlimit="10" cx="12" cy="12" r="11.5"/>
		<g>
			<path fill="none" stroke="#000000" stroke-linejoin="round" stroke-miterlimit="10" d="M9.219,13.688
				c-0.873,1.674-1.523,2.237-3.309,2.65c0.336,0.795,0.472,1.094,0.969,2.145c2.23-0.609,3.657-1.928,4.533-3.057
				c1.492,0.384,2.584,1.34,3.486,3.074c0.936-0.787,1.039-0.867,1.835-1.514c-0.62-1.498-2.145-2.794-3.596-3.5
				c0.014-0.354,0.024-0.442,0.038-0.721c2.133,0.562,3.935-1.229,3.935-1.229s-0.456-0.857-1.034-1.744
				c-1.977,1.793-2.903-0.211-5.097-0.932C9.678,9.661,9.156,11.657,9.219,13.688z"/>
			<path fill="none" stroke="#000000" stroke-linejoin="round" stroke-miterlimit="10" d="M15.405,6.49
				c0-1.099-0.925-1.99-2.015-1.99s-2.002,0.892-2.002,1.99c0,1.1,0.912,1.992,2.002,1.992S15.405,7.59,15.405,6.49z"/>
		</g>
	</g>
</g>
<g id="Frames-24px">
	<rect fill="none" width="24" height="24"/>
</g>
</svg>
