<?xml version="1.0" encoding="utf-8"?>
<!-- Generator: Adobe Illustrator 16.0.3, SVG Export Plug-In . SVG Version: 6.00 Build 0)  -->
<!DOCTYPE svg PUBLIC "-//W3C//DTD SVG 1.1//EN" "http://www.w3.org/Graphics/SVG/1.1/DTD/svg11.dtd">
<svg version="1.1" xmlns="http://www.w3.org/2000/svg" xmlns:xlink="http://www.w3.org/1999/xlink" x="0px" y="0px" width="24px"
	 height="24px" viewBox="0 0 24 24" enable-background="new 0 0 24 24" xml:space="preserve">
<g id="Outline_Icons">
	<g>
		
			<circle fill="none" stroke="#000000" stroke-linecap="round" stroke-linejoin="round" stroke-miterlimit="10" cx="12" cy="12" r="11.5"/>
		<path fill="none" stroke="#000000" stroke-linejoin="round" stroke-miterlimit="10" d="M5.5,10.243l0.527,0.691
			c0,0,1.09-0.857,1.453-0.428c0.362,0.428,1.748,5.611,2.211,6.566c0.403,0.838,1.518,1.947,2.738,1.154
			c1.221-0.791,5.279-4.255,6.006-8.346c0.726-4.091-4.885-3.236-5.479,0.33c1.484-0.892,2.277,0.363,1.518,1.781
			c-0.758,1.419-1.451,2.343-1.814,2.343c-0.361,0-0.641-0.947-1.057-2.608c-0.429-1.715-0.426-4.804-2.21-4.455
			C7.711,7.602,5.5,10.243,5.5,10.243z"/>
	</g>
</g>
<g id="Frames-24px">
	<rect fill="none" width="24" height="24"/>
</g>
</svg>
