<?xml version="1.0" encoding="utf-8"?>
<!-- Generator: Adobe Illustrator 16.0.3, SVG Export Plug-In . SVG Version: 6.00 Build 0)  -->
<!DOCTYPE svg PUBLIC "-//W3C//DTD SVG 1.1//EN" "http://www.w3.org/Graphics/SVG/1.1/DTD/svg11.dtd">
<svg version="1.1" xmlns="http://www.w3.org/2000/svg" xmlns:xlink="http://www.w3.org/1999/xlink" x="0px" y="0px" width="24px"
	 height="24px" viewBox="0 0 24 24" enable-background="new 0 0 24 24" xml:space="preserve">
<g id="Outline_Icons">
	<path fill="none" stroke="#000000" stroke-linejoin="round" stroke-miterlimit="10" d="M9.065,12.269
		c-1.062,0.578-3.261-4.05-3.714-5.194c0,0-0.102-0.252-0.285-0.387c-0.221-0.162-0.53-0.215-0.53-0.215L1.25,6.495
		c0,0-0.494,0.014-0.675,0.229C0.414,6.915,0.562,7.31,0.562,7.31s2.572,5.816,5.485,8.85c2.672,2.783,5.705,2.398,5.705,2.398
		c0.155,0,1.897,0.04,2.002-0.073c0.551-0.591-0.142-2.2,1.019-2.569c0.844-0.268,1.928,1.809,3.076,2.597
		c0.869,0.597,1.529,0.479,1.529,0.479l3.071-0.036c0,0,1.606-0.097,0.845-1.36c-0.062-0.103-0.443-0.932-2.283-2.64
		c-1.928-1.788-1.668-1.498,0.651-4.59c1.413-1.883,1.978-3.032,1.802-3.524c-0.169-0.47-1.208-0.346-1.208-0.346l-3.458,0.022
		c0,0-0.256-0.035-0.447,0.078c-0.186,0.111-0.305,0.371-0.305,0.371c-0.476,1.267-2.751,5.892-3.686,5.288
		c-1.248-0.808,0.627-5.759-1.188-6.196c-0.375-0.091-0.652-0.151-1.613-0.161C10.326,5.885,9.281,5.901,8.69,6.19
		C8.297,6.385,7.993,6.813,8.178,6.838c0.229,0.029,0.747,0.14,1.021,0.513C9.678,8.003,9.771,11.885,9.065,12.269z"/>
</g>
<g id="Frames-24px">
	<rect fill="none" width="24" height="24"/>
</g>
</svg>
