<?xml version="1.0" encoding="utf-8"?>
<!-- Generator: Adobe Illustrator 16.0.3, SVG Export Plug-In . SVG Version: 6.00 Build 0)  -->
<!DOCTYPE svg PUBLIC "-//W3C//DTD SVG 1.1//EN" "http://www.w3.org/Graphics/SVG/1.1/DTD/svg11.dtd">
<svg version="1.1" xmlns="http://www.w3.org/2000/svg" xmlns:xlink="http://www.w3.org/1999/xlink" x="0px" y="0px" width="24px"
	 height="24px" viewBox="0 0 24 24" enable-background="new 0 0 24 24" xml:space="preserve">
<g id="Outline_Icons">
	<g>
		
			<circle fill="none" stroke="#000000" stroke-linecap="round" stroke-linejoin="round" stroke-miterlimit="10" cx="12" cy="12" r="11.5"/>
		<g>
			<path fill="none" stroke="#000000" stroke-linecap="round" stroke-linejoin="round" stroke-miterlimit="10" d="M15.051,12.482
				c-0.674,0.287-1.469,0.452-2.319,0.452c-1.757,0-3.271-0.707-3.975-1.731"/>
			<path fill="none" stroke="#000000" stroke-linecap="round" stroke-linejoin="round" stroke-miterlimit="10" d="M10.213,7.438
				c0.713-0.344,1.581-0.545,2.519-0.545c2.426,0,4.394,1.353,4.394,3.021c0,0.049-0.002,0.096-0.005,0.143"/>
			<path fill="none" stroke="#000000" stroke-linecap="round" stroke-linejoin="round" stroke-miterlimit="10" d="M10.569,5.531
				c0.651-0.609,1.702-1.006,2.886-1.006c1.151,0,2.177,0.375,2.832,0.955"/>
			<path fill="none" stroke="#000000" stroke-linecap="round" stroke-linejoin="round" stroke-miterlimit="10" d="M7.156,12.371
				c0,1.713,2.092,3.103,4.672,3.103c2.581,0,4.674-1.39,4.674-3.103c0-2.289-3.328-3.279-5.541-3.279
				c-3.273,0-5.927,2.197-5.927,4.634c0,3.31,4.233,5.79,8.044,4.245l3.387,1.159l-1.271-2.317c0.586-0.428,1.028-0.926,1.313-1.485
				"/>
		</g>
	</g>
</g>
<g id="Frames-24px">
	<rect fill="none" width="24" height="24"/>
</g>
</svg>
