<?xml version="1.0" encoding="utf-8"?>
<!-- Generator: Adobe Illustrator 19.2.0, SVG Export Plug-In . SVG Version: 6.00 Build 0)  -->
<svg version="1.1" xmlns="http://www.w3.org/2000/svg" xmlns:xlink="http://www.w3.org/1999/xlink" x="0px" y="0px" width="24px"
	 height="24px" viewBox="0 0 24 24" enable-background="new 0 0 24 24" xml:space="preserve">
<g id="Filled_Icons">
	<g>
		<path d="M17,5V4c0-0.552-0.448-1-1-1s-1,0.448-1,1v1H17z"/>
		<path d="M20.5,0h-16C4.224,0,4,0.224,4,0.5v23C4,23.776,4.224,24,4.5,24h10c0.117,0,0.231-0.041,0.32-0.116l6-5
			C20.935,18.789,21,18.647,21,18.5v-18C21,0.224,20.776,0,20.5,0z M14,4c0-1.102,0.898-2,2-2s2,0.898,2,2v3.5
			C18,7.776,17.776,8,17.5,8S17,7.776,17,7.5V6h-2v1.5C15,7.776,14.776,8,14.5,8S14,7.776,14,7.5V4z M12.5,17h-6
			C6.224,17,6,16.776,6,16.5C6,16.223,6.224,16,6.5,16h6c0.276,0,0.5,0.223,0.5,0.5C13,16.776,12.776,17,12.5,17z M12.5,14h-6
			C6.224,14,6,13.776,6,13.5C6,13.223,6.224,13,6.5,13h6c0.276,0,0.5,0.223,0.5,0.5C13,13.776,12.776,14,12.5,14z M6.5,11
			C6.224,11,6,10.776,6,10.5C6,10.223,6.224,10,6.5,10h10c0.276,0,0.5,0.223,0.5,0.5c0,0.276-0.224,0.5-0.5,0.5H6.5z M14,23.338V19
			c0-0.276,0.724-1,1-1h5.397L14,23.338z"/>
	</g>
</g>
<g id="invisible_shape">
	<rect fill="none" width="24" height="24"/>
</g>
</svg>
