<?xml version="1.0" encoding="utf-8"?>
<!-- Generator: Adobe Illustrator 19.2.0, SVG Export Plug-In . SVG Version: 6.00 Build 0)  -->
<svg version="1.1" xmlns="http://www.w3.org/2000/svg" xmlns:xlink="http://www.w3.org/1999/xlink" x="0px" y="0px" width="24px"
	 height="24px" viewBox="0 0 24 24" enable-background="new 0 0 24 24" xml:space="preserve">
<g id="Filled_Icons">
	<g>
		<path d="M8.5,16H7v1h1.5C8.775,17,9,16.775,9,16.5C9,16.224,8.775,16,8.5,16z"/>
		<path d="M20.5,4H20V0.5C20,0.224,19.775,0,19.5,0h-14C4.121,0,3,1.122,3,2.5v19C3,22.878,4.121,24,5.5,24h15
			c0.275,0,0.5-0.224,0.5-0.5v-19C21,4.224,20.775,4,20.5,4z M10,18.5c0,0.827-0.673,1.5-1.5,1.5h-2C6.224,20,6,19.776,6,19.5v-4
			C6,15.223,6.224,15,6.5,15h2c0.827,0,1.5,0.673,1.5,1.5c0,0.383-0.144,0.734-0.383,1C9.856,17.765,10,18.115,10,18.5z M13.5,13
			c-0.276,0-0.5-0.224-0.5-0.5V12h-2v0.5c0,0.276-0.224,0.5-0.5,0.5S10,12.776,10,12.5V10c0-1.104,0.898-2,2-2s2,0.896,2,2v2.5
			C14,12.776,13.776,13,13.5,13z M16.5,19h1c0.276,0,0.5,0.223,0.5,0.5c0,0.276-0.224,0.5-0.5,0.5h-1c-1.379,0-2.5-1.122-2.5-2.5
			c0-1.379,1.121-2.5,2.5-2.5h1c0.276,0,0.5,0.223,0.5,0.5c0,0.276-0.224,0.5-0.5,0.5h-1c-0.827,0-1.5,0.673-1.5,1.5
			S15.673,19,16.5,19z M19,4h-1V2.5C18,2.224,17.775,2,17.5,2h-12C5.224,2,5,2.224,5,2.5S5.224,3,5.5,3H17v1H5.5
			C4.673,4,4,3.327,4,2.5S4.673,1,5.5,1H19V4z"/>
		<path d="M12,9c-0.552,0-1,0.448-1,1v1h2v-1C13,9.448,12.552,9,12,9z"/>
		<path d="M8.5,18H7v1h1.5C8.775,19,9,18.775,9,18.5C9,18.224,8.775,18,8.5,18z"/>
	</g>
</g>
<g id="invisible_shape">
	<rect fill="none" width="24" height="24"/>
</g>
</svg>
