<?xml version="1.0" encoding="utf-8"?>
<!-- Generator: Adobe Illustrator 19.2.0, SVG Export Plug-In . SVG Version: 6.00 Build 0)  -->
<svg version="1.1" xmlns="http://www.w3.org/2000/svg" xmlns:xlink="http://www.w3.org/1999/xlink" x="0px" y="0px" width="24px"
	 height="24px" viewBox="0 0 24 24" enable-background="new 0 0 24 24" xml:space="preserve">
<g id="Filled_Icons">
	<path d="M22.962,19.69c0.05-0.122,0.05-0.259,0-0.381c-0.025-0.062-0.063-0.117-0.109-0.164l-2.499-2.499
		c-0.195-0.195-0.512-0.195-0.707,0c-0.195,0.195-0.195,0.512,0,0.707L21.293,19h-7.206c3.682-2.996,5.311-11.906,5.769-14.937
		l1.79,1.79C21.744,5.951,21.872,6,22,6s0.256-0.049,0.354-0.147c0.195-0.195,0.195-0.512,0-0.707l-2.5-2.5
		c-0.004-0.004-0.113-0.079-0.138-0.091c-0.125-0.062-0.259-0.064-0.372-0.025c-0.05,0.017-0.178,0.098-0.197,0.116l-2.5,2.5
		c-0.195,0.195-0.195,0.512,0,0.707c0.195,0.195,0.512,0.195,0.707,0l1.441-1.441C18.013,9.32,15.81,18.221,12,18.947V16h0.5
		c0.276,0,0.5-0.224,0.5-0.5S12.776,15,12.5,15H12v-4h0.5c0.276,0,0.5-0.224,0.5-0.5S12.776,10,12.5,10H12V6h0.5
		C12.776,6,13,5.776,13,5.5S12.776,5,12.5,5H12V1.707l1.646,1.646C13.744,3.451,13.872,3.5,14,3.5s0.256-0.049,0.354-0.147
		c0.195-0.195,0.195-0.512,0-0.707l-2.499-2.499c-0.047-0.047-0.102-0.084-0.163-0.109c-0.123-0.05-0.26-0.05-0.382,0
		c-0.063,0.025-0.117,0.062-0.164,0.109L8.646,2.647c-0.195,0.195-0.195,0.512,0,0.707c0.195,0.195,0.512,0.195,0.707,0L11,1.707V5
		h-0.5C10.224,5,10,5.224,10,5.5S10.224,6,10.5,6H11v4h-0.5c-0.276,0-0.5,0.224-0.5,0.5s0.224,0.5,0.5,0.5H11v4h-0.5
		c-0.276,0-0.5,0.224-0.5,0.5s0.224,0.5,0.5,0.5H11v2.947C7.19,18.221,4.987,9.32,4.205,4.412l1.441,1.441C5.744,5.951,5.872,6,6,6
		s0.256-0.049,0.353-0.147c0.195-0.195,0.195-0.512,0-0.707l-2.5-2.5c-0.075-0.075-0.24-0.149-0.383-0.141
		C3.347,2.514,3.21,2.584,3.147,2.647l-2.5,2.5c-0.195,0.195-0.195,0.512,0,0.707s0.512,0.195,0.707,0l1.79-1.79
		C3.602,7.094,5.231,16.004,8.913,19H1.707l1.646-1.646c0.195-0.195,0.195-0.512,0-0.707c-0.195-0.195-0.512-0.195-0.707,0
		l-2.499,2.499c-0.047,0.047-0.084,0.102-0.109,0.164c-0.047,0.115-0.05,0.259,0,0.381c0.025,0.062,0.062,0.117,0.109,0.164
		l2.499,2.499C2.744,22.451,2.872,22.5,3,22.5s0.256-0.049,0.353-0.146c0.195-0.195,0.195-0.512,0-0.707L1.707,20H11v3.5
		c0,0.276,0.224,0.5,0.5,0.5s0.5-0.224,0.5-0.5V20h9.293l-1.646,1.646c-0.195,0.195-0.195,0.512,0,0.707
		C19.744,22.451,19.872,22.5,20,22.5s0.256-0.049,0.354-0.146l2.499-2.499C22.899,19.808,22.937,19.752,22.962,19.69z"/>
</g>
<g id="invisible_shape">
	<rect fill="none" width="24" height="24"/>
</g>
</svg>
