<?xml version="1.0" encoding="utf-8"?>
<!-- Generator: Adobe Illustrator 19.2.0, SVG Export Plug-In . SVG Version: 6.00 Build 0)  -->
<svg version="1.1" xmlns="http://www.w3.org/2000/svg" xmlns:xlink="http://www.w3.org/1999/xlink" x="0px" y="0px" width="24px"
	 height="24px" viewBox="0 0 24 24" enable-background="new 0 0 24 24" xml:space="preserve">
<g id="Filled_Icons">
	<g>
		<path d="M12.277,15.505C12.569,15.766,12.926,16,14.055,16c2.181,0,4.022-3.912,4.022-6.369c0-2.585-1.638-4.609-3.729-4.609
			c-0.998,0-1.513,0.183-1.848,0.353V4.674C12.5,3.751,11.749,3,10.826,3H9.652c-0.276,0-0.5,0.224-0.5,0.5S9.376,4,9.652,4h1.174
			C11.197,4,11.5,4.303,11.5,4.674v0.78C10.814,5.167,10.295,5,9.5,5C9.224,5,9,5.224,9,5.5c0,1.462-0.335,2.504-0.995,3.099
			C7.321,9.214,6.514,9.132,6.483,9.134C6.344,9.117,6.199,9.16,6.092,9.256C5.985,9.351,5.924,9.487,5.924,9.63
			c0,2.457,1.841,6.37,4.022,6.37c1.128,0,1.484-0.234,1.777-0.495c0.091-0.081,0.102-0.092,0.277-0.092
			C12.174,15.413,12.186,15.424,12.277,15.505z"/>
		<path d="M13.358,4.641c1.732,0,3.142-1.409,3.142-3.141C16.5,1.224,16.276,1,16,1c-1.732,0-3.142,1.409-3.142,3.141
			C12.858,4.417,13.082,4.641,13.358,4.641z"/>
		<path d="M0.5,17C0.225,17,0,17.224,0,17.5S0.225,18,0.5,18H4c0.583,0,1.843-0.018,2.35,0.266c0.141,0.098,0.262,0.22,0.363,0.358
			C6.929,18.991,7,19.573,7,20.5s-0.071,1.51-0.287,1.876c-0.102,0.14-0.223,0.262-0.363,0.359C5.833,23.042,4.599,23,4,23H0.5
			C0.225,23,0,23.224,0,23.5S0.225,24,0.5,24H11v-7H0.5z"/>
		<rect x="12" y="17" width="1" height="7"/>
		<rect x="18" y="17" width="1" height="7"/>
		<path d="M22,17h-2v7h2c1.252,0,2-0.935,2-2.5v-2C24,17.935,23.252,17,22,17z"/>
		<rect x="14" y="17" width="3" height="7"/>
		<path d="M1.5,22h4C5.776,22,6,21.776,6,21.5S5.776,21,5.5,21h-4C1.225,21,1,21.224,1,21.5S1.225,22,1.5,22z"/>
		<path d="M1.5,20h4C5.776,20,6,19.776,6,19.5S5.776,19,5.5,19h-4C1.225,19,1,19.224,1,19.5S1.225,20,1.5,20z"/>
	</g>
</g>
<g id="invisible_shape">
	<rect fill="none" width="24" height="24"/>
</g>
</svg>
