<?xml version="1.0" encoding="utf-8"?>
<!-- Generator: Adobe Illustrator 19.2.0, SVG Export Plug-In . SVG Version: 6.00 Build 0)  -->
<svg version="1.1" xmlns="http://www.w3.org/2000/svg" xmlns:xlink="http://www.w3.org/1999/xlink" x="0px" y="0px" width="24px"
	 height="24px" viewBox="0 0 24 24" enable-background="new 0 0 24 24" xml:space="preserve">
<g id="Filled_Icons">
	<g>
		<path d="M22,14V1.5C22,1.223,21.776,1,21.5,1h-19C2.224,1,2,1.223,2,1.5V14H22z M16.146,5.147l2-2
			c0.144-0.144,0.359-0.188,0.545-0.108C18.878,3.114,19,3.297,19,3.5v7.999c0,0.276-0.224,0.5-0.5,0.5s-0.5-0.224-0.5-0.5V4.706
			l-1.146,1.146c-0.195,0.195-0.512,0.195-0.707,0C15.951,5.658,15.951,5.342,16.146,5.147z M11.5,6.999H13V5.5
			C13,5.223,13.224,5,13.5,5S14,5.223,14,5.5v1.499h1.5c0.276,0,0.5,0.224,0.5,0.5c0,0.276-0.224,0.5-0.5,0.5H14v1.5
			c0,0.276-0.224,0.5-0.5,0.5S13,9.775,13,9.499v-1.5h-1.5c-0.276,0-0.5-0.224-0.5-0.5C11,7.223,11.224,6.999,11.5,6.999z M7.5,3
			C9.321,3,10,4.533,10,5.5c0,1.277-2.17,4.031-3.407,5.499H10c0.276,0,0.5,0.224,0.5,0.5c0,0.276-0.224,0.5-0.5,0.5H5.5
			c-0.197,0-0.375-0.115-0.456-0.295c-0.081-0.18-0.049-0.391,0.082-0.537C6.734,9.356,9,6.402,9,5.5C9,5.083,8.731,4,7.5,4
			C6.26,4,6,4.815,6,5.5C6,5.776,5.776,6,5.5,6S5,5.776,5,5.5C5,4.291,5.657,3,7.5,3z"/>
		<path d="M23.502,15.001h-0.001L0.5,15C0.224,15,0,15.224,0,15.5v2C0,17.776,0.224,18,0.5,18H2v5.5C2,23.776,2.224,24,2.5,24
			S3,23.776,3,23.5V22h18v1.5c0,0.276,0.224,0.5,0.5,0.5s0.5-0.224,0.5-0.5V18h1.5c0.276,0,0.5-0.224,0.5-0.5v-2
			C24,15.224,23.777,15.002,23.502,15.001z M21,21H3v-3h18V21z"/>
	</g>
</g>
<g id="invisible_shape">
	<rect fill="none" width="24" height="24"/>
</g>
</svg>
