<?xml version="1.0" encoding="utf-8"?>
<!-- Generator: Adobe Illustrator 19.2.0, SVG Export Plug-In . SVG Version: 6.00 Build 0)  -->
<svg version="1.1" xmlns="http://www.w3.org/2000/svg" xmlns:xlink="http://www.w3.org/1999/xlink" x="0px" y="0px" width="24px"
	 height="24px" viewBox="0 0 24 24" enable-background="new 0 0 24 24" xml:space="preserve">
<g id="Filled_Icons">
	<g>
		<path d="M12.658,2.656l-0.785-1.57c1.91,0.095,3.672,0.906,4.974,2.262c-0.802,0.264-2.276,0.775-2.064,0.902
			c2.656,1.594-0.434,3.789-0.434,4.057c0,0.208,0.351,0.84,0.508,1.416c1.467-0.42,3.2-0.668,5.116-0.708
			C19.984,8.844,20,8.674,20,8.5C20,3.933,16.272,0,11.5,0C6.936,0,3,3.719,3,8.5c0,0.174,0.016,0.344,0.026,0.515
			c3.034,0.063,5.61,0.653,7.387,1.607c0.36-1.58,0.492-3.184-2.005-3.184c-1.014,0-1.158-1.304-1.158-1.304
			c0-2.994,3.381-3.429,3.381-2.366C11.307,4.443,12.658,2.656,12.658,2.656z"/>
		<path d="M2,10.5V20c0,0.276,0.224,0.5,0.5,0.5c5.659,0,8.5,1.923,8.5,3V12.211C9.555,10.967,6.6,10,2.5,10
			C2.224,10,2,10.224,2,10.5z M5.084,13.202c1.782,0.233,3.371,0.603,4.595,1.071c0.258,0.099,0.387,0.388,0.288,0.645
			C9.891,15.118,9.701,15.24,9.5,15.24c-0.06,0-0.12-0.011-0.179-0.033c-1.151-0.441-2.661-0.792-4.366-1.014
			c-0.274-0.036-0.467-0.287-0.432-0.561C4.56,13.359,4.82,13.164,5.084,13.202z M5.042,16.197c1.8,0.231,3.403,0.604,4.637,1.076
			c0.258,0.099,0.387,0.388,0.288,0.646C9.891,18.118,9.701,18.24,9.5,18.24c-0.06,0-0.12-0.011-0.179-0.033
			c-1.16-0.444-2.685-0.797-4.406-1.017c-0.274-0.036-0.468-0.287-0.433-0.561C4.518,16.355,4.772,16.166,5.042,16.197z"/>
		<path d="M20.5,10c-4.1,0-7.055,0.967-8.5,2.211V23.5c0-1.077,2.841-3,8.5-3c0.276,0,0.5-0.224,0.5-0.5v-9.5
			C21,10.224,20.776,10,20.5,10z M13.321,14.273c1.231-0.472,2.835-0.844,4.639-1.077c0.263-0.033,0.523,0.158,0.56,0.432
			c0.035,0.274-0.158,0.524-0.433,0.561c-1.726,0.222-3.25,0.575-4.408,1.018C13.62,15.229,13.56,15.24,13.5,15.24
			c-0.201,0-0.391-0.122-0.467-0.321C12.935,14.661,13.064,14.372,13.321,14.273z M18.088,17.188
			c-1.723,0.222-3.248,0.573-4.409,1.019C13.62,18.229,13.56,18.24,13.5,18.24c-0.201,0-0.391-0.122-0.467-0.321
			c-0.099-0.258,0.03-0.547,0.288-0.646c1.234-0.473,2.838-0.846,4.64-1.077c0.262-0.03,0.524,0.158,0.56,0.432
			C18.556,16.902,18.362,17.152,18.088,17.188z"/>
	</g>
</g>
<g id="invisible_shape">
	<rect fill="none" width="24" height="24"/>
</g>
</svg>
