<?xml version="1.0" encoding="utf-8"?>
<!-- Generator: Adobe Illustrator 19.2.0, SVG Export Plug-In . SVG Version: 6.00 Build 0)  -->
<svg version="1.1" xmlns="http://www.w3.org/2000/svg" xmlns:xlink="http://www.w3.org/1999/xlink" x="0px" y="0px" width="24px"
	 height="24px" viewBox="0 0 24 24" enable-background="new 0 0 24 24" xml:space="preserve">
<g id="Filled_Icons">
	<g>
		<path d="M11.5,24C5.159,24,0,18.842,0,12.5C0,6.159,5.159,1.001,11.5,1.001c1.255,0,2.489,0.201,3.669,0.597
			c0.262,0.088,0.402,0.371,0.315,0.634c-0.088,0.262-0.368,0.403-0.633,0.315c-1.077-0.361-2.204-0.545-3.351-0.545
			C5.71,2.001,1,6.71,1,12.5S5.71,23,11.5,23S22,18.29,22,12.5c0-1.326-0.244-2.619-0.726-3.843C21.174,8.4,21.301,8.11,21.558,8.01
			c0.256-0.101,0.547,0.025,0.649,0.281C22.732,9.633,23,11.048,23,12.5C23,18.842,17.841,24,11.5,24z"/>
	</g>
	<path d="M11.5,7C8.468,7,6,9.468,6,12.5S8.468,18,11.5,18s5.5-2.468,5.5-5.5S14.532,7,11.5,7z M14,13h-2v2
		c0,0.276-0.224,0.5-0.5,0.5S11,15.276,11,15v-2H9c-0.276,0-0.5-0.224-0.5-0.5S8.724,12,9,12h2v-2c0-0.276,0.224-0.5,0.5-0.5
		S12,9.724,12,10v2h2c0.276,0,0.5,0.224,0.5,0.5S14.276,13,14,13z"/>
	<path d="M19,1.501c-1.654,0-3,1.346-3,3C16,6.154,17.346,7.5,19,7.5s3-1.346,3-2.999C22,2.847,20.654,1.501,19,1.501z M19.896,5H18
		c-0.276,0-0.5-0.224-0.5-0.5S17.724,4,18,4h1.896c0.276,0,0.5,0.224,0.5,0.5S20.173,5,19.896,5z"/>
</g>
<g id="invisible_shape">
	<rect fill="none" width="24" height="24"/>
</g>
</svg>
