<?xml version="1.0" encoding="utf-8"?>
<!-- Generator: Adobe Illustrator 19.2.0, SVG Export Plug-In . SVG Version: 6.00 Build 0)  -->
<svg version="1.1" xmlns="http://www.w3.org/2000/svg" xmlns:xlink="http://www.w3.org/1999/xlink" x="0px" y="0px" width="24px"
	 height="24px" viewBox="0 0 24 24" enable-background="new 0 0 24 24" xml:space="preserve">
<g id="Filled_Icons">
	<path d="M19.724,20.093l-2.354-3.854v-0.001L15,12.359V5h0.5C16.327,5,17,4.327,17,3.5S16.327,2,15.5,2h-7C7.673,2,7,2.673,7,3.5
		S7.673,5,8.5,5H9v7.359l-2.37,3.879v0.001l-2.338,3.827c-0.536,0.767-0.601,1.758-0.168,2.588C4.556,23.484,5.405,24,6.341,24
		h11.317c0.936,0,1.785-0.516,2.218-1.346C20.308,21.823,20.243,20.831,19.724,20.093z M9.927,12.761
		C9.975,12.682,10,12.592,10,12.5V5h4v1h-1.5C12.224,6,12,6.223,12,6.5C12,6.776,12.224,7,12.5,7H14v1h-2.5
		C11.224,8,11,8.223,11,8.5C11,8.776,11.224,9,11.5,9H14v1h-1.5c-0.276,0-0.5,0.223-0.5,0.5c0,0.276,0.224,0.5,0.5,0.5H14v1.5
		c0,0.092,0.025,0.182,0.073,0.261L16.052,16H7.948L9.927,12.761z M9.5,22c-1.102,0-2-0.897-2-2c0-1.104,0.898-2,2-2s2,0.896,2,2
		C11.5,21.103,10.602,22,9.5,22z M13.25,19.5c-0.413,0-0.75-0.337-0.75-0.75c0-0.414,0.337-0.75,0.75-0.75S14,18.336,14,18.75
		C14,19.163,13.663,19.5,13.25,19.5z M15.5,22.5c-0.552,0-1-0.449-1-1c0-0.552,0.448-1,1-1s1,0.448,1,1
		C16.5,22.051,16.052,22.5,15.5,22.5z"/>
</g>
<g id="invisible_shape">
	<rect fill="none" width="24" height="24"/>
</g>
</svg>
