<?xml version="1.0" encoding="utf-8"?>
<!-- Generator: Adobe Illustrator 19.2.0, SVG Export Plug-In . SVG Version: 6.00 Build 0)  -->
<svg version="1.1" xmlns="http://www.w3.org/2000/svg" xmlns:xlink="http://www.w3.org/1999/xlink" x="0px" y="0px" width="24px"
	 height="24px" viewBox="0 0 24 24" enable-background="new 0 0 24 24" xml:space="preserve">
<g id="Filled_Icons">
	<g>
		<path d="M12,14.748L5.519,9.831C2.857,10.678,1,13.126,1,16c0,3.584,2.916,6.5,6.5,6.5c1.701,0,3.303-0.664,4.5-1.818V14.748z"/>
		<path d="M12.5,13.873l6.458-4.899C18.97,8.815,19,8.659,19,8.5C19,4.916,16.084,2,12.5,2S6,4.916,6,8.5
			c0,0.159,0.03,0.315,0.042,0.474L12.5,13.873z"/>
		<path d="M19.481,9.831L13,14.748v5.934c1.197,1.154,2.799,1.818,4.5,1.818c3.584,0,6.5-2.916,6.5-6.5
			C24,13.126,22.143,10.678,19.481,9.831z"/>
	</g>
</g>
<g id="invisible_shape">
	<rect fill="none" width="24" height="24"/>
</g>
</svg>
