<?xml version="1.0" encoding="utf-8"?>
<!-- Generator: Adobe Illustrator 19.2.0, SVG Export Plug-In . SVG Version: 6.00 Build 0)  -->
<svg version="1.1" xmlns="http://www.w3.org/2000/svg" xmlns:xlink="http://www.w3.org/1999/xlink" x="0px" y="0px" width="24px"
	 height="24px" viewBox="0 0 24 24" enable-background="new 0 0 24 24" xml:space="preserve">
<g id="Filled_Icons">
	<path d="M23.5,5.001h-23c-0.276,0-0.5,0.223-0.5,0.5V20.5C0,20.776,0.224,21,0.5,21h23c0.276,0,0.5-0.224,0.5-0.5V5.501
		C24,5.224,23.776,5.001,23.5,5.001z M4.5,15C4.776,15,5,15.224,5,15.5S4.776,16,4.5,16H3v1h2.5C5.776,17,6,17.224,6,17.5
		S5.776,18,5.5,18h-3C2.224,18,2,17.776,2,17.5v-4C2,13.224,2.224,13,2.5,13h3C5.776,13,6,13.224,6,13.5S5.776,14,5.5,14H3v1H4.5z
		 M9.5,17H7c-0.276,0-0.5-0.224-0.5-0.5S6.724,16,7,16h2.5c0.276,0,0.5,0.224,0.5,0.5S9.776,17,9.5,17z M9.5,15H7
		c-0.276,0-0.5-0.224-0.5-0.5S6.724,14,7,14h2.5c0.276,0,0.5,0.224,0.5,0.5S9.776,15,9.5,15z M15,17.5c0,0.276-0.224,0.5-0.5,0.5
		S14,17.776,14,17.5V15l-0.6,0.8c-0.189,0.252-0.611,0.252-0.801,0L12,15v2.5c0,0.276-0.224,0.5-0.5,0.5S11,17.776,11,17.5v-4
		c0-0.215,0.138-0.406,0.342-0.474c0.203-0.069,0.43,0.001,0.559,0.174l1.1,1.466l1.1-1.466c0.13-0.173,0.357-0.242,0.559-0.174
		C14.862,13.094,15,13.285,15,13.5V17.5z M17.5,17h2c0.276,0,0.5,0.224,0.5,0.5S19.776,18,19.5,18h-2c-0.827,0-1.5-0.673-1.5-1.5v-2
		c0-0.827,0.673-1.5,1.5-1.5h2c0.276,0,0.5,0.224,0.5,0.5S19.776,14,19.5,14h-2c-0.275,0-0.5,0.224-0.5,0.5v2
		C17,16.776,17.225,17,17.5,17z M21,11c0.276,0,0.5,0.224,0.5,0.5S21.276,12,21,12h-3c-0.225,0-0.421-0.149-0.481-0.365
		c-0.061-0.216,0.03-0.446,0.223-0.563c1.408-0.854,2.697-1.917,2.76-2.276C20.5,8.407,19.995,8,19.5,8c-0.402,0-1,0.266-1,1
		c0,0.276-0.224,0.5-0.5,0.5S17.5,9.276,17.5,9c0-1.299,1.03-2,2-2c0.946,0,2,0.742,2,1.807c0,0.666-0.888,1.496-1.84,2.193H21z"/>
</g>
<g id="invisible_shape">
	<rect fill="none" width="24" height="24"/>
</g>
</svg>
