<?xml version="1.0" encoding="utf-8"?>
<!-- Generator: Adobe Illustrator 19.2.0, SVG Export Plug-In . SVG Version: 6.00 Build 0)  -->
<svg version="1.1" xmlns="http://www.w3.org/2000/svg" xmlns:xlink="http://www.w3.org/1999/xlink" x="0px" y="0px" width="24px"
	 height="24px" viewBox="0 0 24 24" enable-background="new 0 0 24 24" xml:space="preserve">
<g id="Filled_Icons">
	<g>
		<path d="M11.5,2C11.776,2,12,1.776,12,1.5v-1C12,0.224,11.776,0,11.5,0S11,0.224,11,0.5v1C11,1.776,11.224,2,11.5,2z"/>
		<path d="M18.218,3.075l-0.707,0.707c-0.195,0.195-0.195,0.512,0,0.707c0.098,0.098,0.226,0.146,0.354,0.146
			c0.128,0,0.256-0.049,0.354-0.146l0.707-0.707c0.195-0.195,0.195-0.512,0-0.707C18.729,2.88,18.413,2.88,18.218,3.075z"/>
		<path d="M21.5,10h-1c-0.276,0-0.5,0.224-0.5,0.5s0.224,0.5,0.5,0.5h1c0.276,0,0.5-0.224,0.5-0.5S21.776,10,21.5,10z"/>
		<path d="M18.218,16.511c-0.195-0.195-0.512-0.195-0.707,0c-0.195,0.195-0.195,0.512,0,0.707l0.707,0.707
			c0.098,0.098,0.226,0.146,0.354,0.146c0.128,0,0.256-0.049,0.354-0.146c0.195-0.195,0.195-0.512,0-0.707L18.218,16.511z"/>
		<path d="M4.782,4.489C4.88,4.587,5.008,4.636,5.136,4.636c0.128,0,0.256-0.049,0.354-0.146c0.195-0.195,0.195-0.512,0-0.707
			L4.782,3.075c-0.195-0.195-0.512-0.195-0.707,0c-0.195,0.195-0.195,0.512,0,0.707L4.782,4.489z"/>
		<path d="M2.5,10h-1C1.224,10,1,10.224,1,10.5S1.224,11,1.5,11h1C2.776,11,3,10.776,3,10.5S2.776,10,2.5,10z"/>
		<path d="M4.782,16.511l-0.707,0.707c-0.195,0.195-0.195,0.512,0,0.707c0.098,0.098,0.226,0.146,0.353,0.146
			s0.256-0.049,0.353-0.146l0.707-0.707c0.195-0.195,0.195-0.512,0-0.707C5.294,16.315,4.977,16.315,4.782,16.511z"/>
		<path d="M9,21.5C9,21.776,9.224,22,9.5,22H11v1.5c0,0.276,0.224,0.5,0.5,0.5s0.5-0.224,0.5-0.5V22h1.5c0.276,0,0.5-0.224,0.5-0.5
			V21H9V21.5z"/>
		<path d="M8,17.128V19.5C8,19.776,8.224,20,8.5,20h6c0.276,0,0.5-0.224,0.5-0.5v-2.372C13.954,17.683,12.764,18,11.5,18
			S9.046,17.683,8,17.128z"/>
		<path d="M11.5,4C7.916,4,5,6.916,5,10.5c0,3.194,2.318,5.853,5.36,6.394L9.536,13H8.5C7.673,13,7,12.327,7,11.5S7.673,10,8.5,10
			c0.822,0,1.526,0.561,1.712,1.362L10.347,12h2.307l0.133-0.629C12.974,10.561,13.678,10,14.5,10c0.827,0,1.5,0.673,1.5,1.5
			S15.327,13,14.5,13h-1.036l-0.824,3.894C15.682,16.353,18,13.694,18,10.5C18,6.916,15.084,4,11.5,4z"/>
		<path d="M11.596,16.995L12.441,13h-1.883l0.846,3.995C11.436,16.996,11.468,17,11.5,17S11.564,16.996,11.596,16.995z"/>
		<path d="M15,11.5c0-0.275-0.225-0.5-0.5-0.5c-0.354,0-0.657,0.241-0.737,0.587L13.675,12H14.5C14.775,12,15,11.775,15,11.5z"/>
		<path d="M8.5,11C8.225,11,8,11.225,8,11.5S8.225,12,8.5,12h0.825l-0.09-0.422C9.157,11.241,8.854,11,8.5,11z"/>
	</g>
</g>
<g id="invisible_shape">
	<rect fill="none" width="24" height="24"/>
</g>
</svg>
