<?xml version="1.0" encoding="utf-8"?>
<!-- Generator: Adobe Illustrator 19.2.0, SVG Export Plug-In . SVG Version: 6.00 Build 0)  -->
<svg version="1.1" xmlns="http://www.w3.org/2000/svg" xmlns:xlink="http://www.w3.org/1999/xlink" x="0px" y="0px" width="24px"
	 height="24px" viewBox="0 0 24 24" enable-background="new 0 0 24 24" xml:space="preserve">
<g id="Filled_Icons">
	<path d="M19.668,12.931c-1.344,0-2.804-0.373-4.02-1.575c-0.196-0.194-0.198-0.511-0.004-0.707c0.193-0.196,0.51-0.198,0.707-0.004
		c0.793,0.784,1.74,1.128,2.675,1.231c0.009-0.032,0.011-0.066,0.026-0.098c0.008-0.017,0.854-1.765,0.031-3
		c-0.153-0.229-0.091-0.54,0.139-0.693c0.227-0.152,0.538-0.093,0.693,0.139c0.906,1.36,0.433,2.995,0.17,3.674
		c1.327-0.083,3.535-0.878,3.545-0.875C23.863,10.55,24,10.033,24,9.5c0-1.772-1.322-3.239-3.031-3.469
		C20.739,4.322,19.271,3,17.5,3c-0.742,0-1.444,0.23-2.035,0.659C14.836,2.645,13.716,2,12.5,2c-0.535,0-1.053,0.138-1.525,0.372
		C11.016,2.523,11,3.334,11,3.5V6c0,0.552,0.448,1,1,1s1-0.448,1-1c0-0.276,0.224-0.5,0.5-0.5S14,5.724,14,6c0,1.102-0.898,2-2,2
		c-0.6,0-1.133-0.272-1.5-0.691C10.133,7.728,9.6,8,9,8C7.898,8,7,7.102,7,6c0-0.276,0.224-0.5,0.5-0.5S8,5.724,8,6
		c0,0.552,0.448,1,1,1s1-0.448,1-1V3.5V2.656C9.415,2.24,8.723,2,8,2C6.307,2,4.907,3.182,4.579,4.784
		C4.087,4.756,3.525,4.9,2.945,5.231c-0.917,0.525-1.84,1.488-2.401,2.741c1.515-0.044,5.494,0.069,6.42,2.384
		c0.102,0.256-0.022,0.547-0.278,0.649c-0.061,0.024-0.124,0.036-0.186,0.036c-0.198,0-0.386-0.119-0.464-0.314
		c-0.684-1.709-4.305-1.84-5.834-1.739C0.08,9.466,0,9.968,0,10.5c0,2.528,1.767,4.456,3.407,5.177
		c0.645,0.283,1.243,0.37,1.739,0.26C5.272,16.353,5.504,16.697,5.79,17h2.741c-0.175-1.544,0.194-4.592,2.842-5.475
		c0.262-0.085,0.545,0.055,0.633,0.316c0.087,0.262-0.055,0.545-0.316,0.633C9.658,13.151,9.533,15.182,9.523,17H10.5
		c0.276,0,0.5,0.224,0.5,0.5S10.776,18,10.5,18H7.666c0.48,1.059,1.627,2.5,4.334,2.5c0.362,0,0.697-0.083,1-0.198v-1.337
		C13,16.778,14.778,15,16.965,15c0.276,0,0.5,0.224,0.5,0.5s-0.224,0.5-0.5,0.5C15.33,16,14,17.33,14,18.965V20.5v3
		c0,0.276,0.224,0.5,0.5,0.5h2c0.276,0,0.5-0.224,0.5-0.5v-4.154c1.033-0.309,1.869-1.084,2.259-2.08
		c0.772,0.301,1.615,0.312,2.429,0.028c1.044-0.364,1.877-1.246,2.174-2.302c0.285-1.016,0.091-2.052-0.465-2.893
		C22.765,12.379,21.31,12.931,19.668,12.931z"/>
</g>
<g id="invisible_shape">
	<rect fill="none" width="24" height="24"/>
</g>
</svg>
