<?xml version="1.0" encoding="utf-8"?>
<!-- Generator: Adobe Illustrator 19.2.0, SVG Export Plug-In . SVG Version: 6.00 Build 0)  -->
<svg version="1.1" xmlns="http://www.w3.org/2000/svg" xmlns:xlink="http://www.w3.org/1999/xlink" x="0px" y="0px" width="24px"
	 height="24px" viewBox="0 0 24 24" enable-background="new 0 0 24 24" xml:space="preserve">
<g id="Filled_Icons">
	<g>
		<path d="M14.656,16.235c0.073-0.44,0.133-0.892,0.183-1.35c-0.189,0.137-0.374,0.274-0.571,0.41
			c-1.529,1.052-3.101,1.907-4.588,2.538c0.084,0.334,0.17,0.662,0.268,0.968C11.482,18.162,13.093,17.294,14.656,16.235z"/>
		<path d="M5.019,18.999c-0.709,0-1.646-0.133-2.081-0.766c-0.549-0.798-0.193-2.243,0.974-3.967
			c0.556-0.821,1.27-1.658,2.097-2.484c0.003-0.48,0.022-0.955,0.047-1.428c-1.199,1.101-2.219,2.239-2.972,3.352
			c-1.431,2.113-1.775,3.922-0.97,5.094c0.539,0.785,1.544,1.199,2.905,1.199c0.63,0,1.331-0.092,2.081-0.26
			c-0.1-0.309-0.185-0.637-0.273-0.966C6.176,18.916,5.564,18.999,5.019,18.999z"/>
		<path d="M4.481,10.493c-1.59-2.051-2.156-3.837-1.544-4.728c0.435-0.632,1.371-0.765,2.08-0.765c1.33,0,3.026,0.455,4.838,1.242
			c0.352-0.218,0.705-0.426,1.057-0.624C8.723,4.59,6.637,4.001,5.018,4.001c-1.36,0-2.365,0.414-2.904,1.198
			c-0.944,1.374-0.223,3.626,1.674,6.027C4.008,10.981,4.241,10.737,4.481,10.493z"/>
		<path d="M18.166,10.561c-0.974-0.917-2.087-1.824-3.332-2.68c-0.253-0.175-0.51-0.333-0.765-0.496
			c-0.351,0.162-0.702,0.317-1.057,0.505c0.42,0.257,0.839,0.529,1.255,0.816c1.227,0.844,2.299,1.722,3.22,2.59
			C17.727,11.049,17.952,10.806,18.166,10.561z"/>
		<path d="M7.552,6.456c-0.339,1.593-0.533,3.402-0.547,5.338l0.192,0.182c0.258,0.243,0.543,0.474,0.816,0.71
			C8.009,12.459,8,12.233,8,12c0-1.941,0.191-3.702,0.508-5.223C8.182,6.655,7.863,6.549,7.552,6.456z"/>
		<path d="M5.835,13.439c0.974,0.917,2.087,1.824,3.332,2.681c0.255,0.175,0.513,0.335,0.771,0.5
			c0.35-0.162,0.698-0.322,1.052-0.509c-0.421-0.258-0.84-0.53-1.256-0.815c-1.229-0.845-2.301-1.723-3.223-2.594
			C6.272,12.949,6.05,13.194,5.835,13.439z"/>
		<path d="M19.518,13.506c1.592,2.051,2.158,3.837,1.546,4.727c-0.435,0.633-1.372,0.766-2.081,0.766
			c-1.33,0-3.025-0.455-4.838-1.242c-0.355,0.22-0.712,0.419-1.068,0.619c2.194,1.033,4.285,1.623,5.906,1.623
			c1.361,0,2.366-0.414,2.905-1.199c0.944-1.372,0.224-3.623-1.672-6.023C19.996,13.019,19.757,13.262,19.518,13.506z"/>
		<path d="M12,23c-1.375,0-2.859-2.393-3.57-6.183c-0.398-0.277-0.778-0.566-1.155-0.857C7.942,20.684,9.777,24,12,24
			c1.422,0,2.686-1.359,3.588-3.573c-0.313-0.095-0.631-0.2-0.955-0.317C13.879,21.935,12.915,23,12,23z"/>
		<path d="M14.049,5.201c-1.532,0.639-3.141,1.506-4.701,2.563C9.292,8.092,9.243,8.427,9.201,8.765
			C9.191,8.881,9.179,8.996,9.166,9.11C9.354,8.975,9.54,8.838,9.733,8.705c1.528-1.052,3.101-1.908,4.589-2.54
			C14.237,5.83,14.148,5.508,14.049,5.201z"/>
		<circle cx="12" cy="12" r="2.5"/>
		<path d="M18.983,5.001c0.709,0,1.646,0.133,2.08,0.765c0.776,1.13-0.363,3.7-3.068,6.427v0.021
			c-0.001,0.154-0.011,0.305-0.014,0.457l0.012,0.001c-0.003,0.14-0.015,0.274-0.024,0.411c-0.006,0.186-0.007,0.374-0.017,0.557
			c3.506-3.225,5.192-6.611,3.936-8.439c-0.539-0.784-1.544-1.198-2.904-1.198c-0.632,0-1.335,0.092-2.088,0.262
			c0.101,0.311,0.194,0.631,0.282,0.963C17.827,5.084,18.438,5.001,18.983,5.001z"/>
		<path d="M16.447,17.552c0.34-1.596,0.534-3.408,0.548-5.346l-0.194-0.184c-0.258-0.242-0.541-0.474-0.814-0.708
			C15.991,11.541,16,11.768,16,12c0,1.945-0.192,3.709-0.51,5.231C15.817,17.353,16.136,17.457,16.447,17.552z"/>
		<path d="M12,1.001c1.374,0,2.858,2.391,3.569,6.181c0.142,0.099,0.273,0.205,0.411,0.307l0.011-0.016
			c0.253,0.183,0.489,0.375,0.733,0.563C16.057,3.315,14.221,0.001,12,0.001c-1.424,0-2.689,1.363-3.592,3.581
			c0.315,0.095,0.633,0.196,0.957,0.313C10.119,2.067,11.084,1.001,12,1.001z"/>
	</g>
</g>
<g id="invisible_shape">
	<rect fill="none" width="24" height="24"/>
</g>
</svg>
