<?xml version="1.0" encoding="utf-8"?>
<!-- Generator: Adobe Illustrator 19.2.0, SVG Export Plug-In . SVG Version: 6.00 Build 0)  -->
<svg version="1.1" xmlns="http://www.w3.org/2000/svg" xmlns:xlink="http://www.w3.org/1999/xlink" x="0px" y="0px" width="24px"
	 height="24px" viewBox="0 0 24 24" enable-background="new 0 0 24 24" xml:space="preserve">
<g id="Filled_Icons">
	<g>
		<path d="M22.5,13.006H22v-1.5c0-0.276-0.224-0.5-0.5-0.5h-0.731c0.146,0.644,0.231,1.311,0.231,2v3h0.5c0.276,0,0.5-0.224,0.5-0.5
			v-1.5h0.5c0.276,0,0.5-0.224,0.5-0.5C23,13.229,22.776,13.006,22.5,13.006z"/>
		<path d="M12,5.006v-1c0-0.552,0.448-1,1-1c1.102,0,2-0.897,2-2v-0.5c0-0.276-0.224-0.5-0.5-0.5S14,0.229,14,0.506v0.5
			c0,0.552-0.448,1-1,1c-1.102,0-2,0.897-2,2c0,0,0.011,0.977,0.014,1C7.012,5.006,4,8.93,4,13.006v2.5c0,0.276,0.224,0.5,0.5,0.5
			h15c0.276,0,0.5-0.224,0.5-0.5v-2.5C20,8.595,16.411,5.006,12,5.006z M9,13.506c-0.828,0-1.5-0.672-1.5-1.5
			c0-0.828,0.672-1.5,1.5-1.5s1.5,0.672,1.5,1.5C10.5,12.834,9.828,13.506,9,13.506z M15,13.506c-0.828,0-1.5-0.672-1.5-1.5
			c0-0.828,0.672-1.5,1.5-1.5s1.5,0.672,1.5,1.5C16.5,12.834,15.828,13.506,15,13.506z"/>
		<path d="M10,22.656c0.627,0.222,1.298,0.35,2,0.35s1.373-0.128,2-0.35v-2.65h-4V22.656z"/>
		<path d="M9,22.194v-2.688c0-0.276,0.224-0.5,0.5-0.5h5c0.276,0,0.5,0.224,0.5,0.5v2.688c1.79-1.04,3-2.974,3-5.188H6
			C6,19.221,7.21,21.154,9,22.194z"/>
		<path d="M2,11.506v1.5H1.5c-0.276,0-0.5,0.224-0.5,0.5c0,0.276,0.224,0.5,0.5,0.5H2v1.5c0,0.276,0.224,0.5,0.5,0.5H3v-3
			c0-0.689,0.085-1.356,0.231-2H2.5C2.224,11.006,2,11.229,2,11.506z"/>
	</g>
</g>
<g id="invisible_shape">
	<rect fill="none" width="24" height="24"/>
</g>
</svg>
