<?xml version="1.0" encoding="utf-8"?>
<!-- Generator: Adobe Illustrator 19.2.1, SVG Export Plug-In . SVG Version: 6.00 Build 0)  -->
<svg version="1.1" xmlns="http://www.w3.org/2000/svg" xmlns:xlink="http://www.w3.org/1999/xlink" x="0px" y="0px" width="24px"
	 height="24px" viewBox="0 0 24 24" enable-background="new 0 0 24 24" xml:space="preserve">
<g id="Filled_Icons">
	<g>
		<rect x="20.31" y="20.301" width="2.7" height="2.699"/>
		<rect x="16.909" y="20.301" width="2.701" height="2.699"/>
		<rect x="13.51" y="20.301" width="2.7" height="2.699"/>
		<rect x="10.11" y="20.301" width="2.699" height="2.699"/>
		<rect x="16.909" y="16.9" width="2.701" height="2.699"/>
		<rect x="13.51" y="16.9" width="2.7" height="2.699"/>
		<rect x="10.11" y="16.9" width="2.699" height="2.699"/>
		<rect x="16.909" y="13.5" width="2.701" height="2.7"/>
		<rect x="13.51" y="13.5" width="2.7" height="2.7"/>
		<rect x="10.11" y="13.5" width="2.699" height="2.7"/>
		<rect x="6.71" y="20.301" width="2.699" height="2.699"/>
		<rect x="10.11" y="6.7" width="2.699" height="2.7"/>
		<rect x="6.71" y="6.7" width="2.699" height="2.7"/>
		<rect x="3.31" y="6.7" width="2.7" height="2.7"/>
		<rect x="6.71" y="3.301" width="2.699" height="2.699"/>
		<rect x="16.909" y="10.1" width="2.701" height="2.701"/>
		<rect x="13.51" y="10.1" width="2.7" height="2.701"/>
		<rect x="10.11" y="10.1" width="2.699" height="2.701"/>
		<rect x="6.71" y="10.1" width="2.699" height="2.701"/>
		<rect x="20.31" y="6.7" width="2.7" height="2.7"/>
		<rect x="20.31" y="10.1" width="2.7" height="2.701"/>
		<rect x="20.31" y="13.5" width="2.7" height="2.7"/>
		<rect x="20.31" y="16.9" width="2.7" height="2.699"/>
	</g>
</g>
<g id="Frames-24px">
	<rect fill="none" width="24" height="24"/>
</g>
</svg>
