<?xml version="1.0" encoding="utf-8"?>
<!-- Generator: Adobe Illustrator 19.2.1, SVG Export Plug-In . SVG Version: 6.00 Build 0)  -->
<svg version="1.1" xmlns="http://www.w3.org/2000/svg" xmlns:xlink="http://www.w3.org/1999/xlink" x="0px" y="0px" width="24px"
	 height="24px" viewBox="0 0 24 24" enable-background="new 0 0 24 24" xml:space="preserve">
<g id="Filled_Icons">
	<path d="M12,0.004c-6.617,0-12,5.383-12,12s5.383,12,12,12s12-5.383,12-12S18.617,0.004,12,0.004z M18.434,7.752l-6,10.5
		c-0.089,0.156-0.255,0.252-0.434,0.252s-0.345-0.096-0.434-0.252l-6-10.5C5.477,7.598,5.478,7.407,5.567,7.253
		C5.657,7.099,5.822,7.004,6,7.004h12c0.178,0,0.343,0.095,0.433,0.249C18.522,7.407,18.522,7.598,18.434,7.752z"/>
</g>
<g id="Frames-24px">
	<rect fill="none" width="24" height="24"/>
</g>
</svg>
