<?xml version="1.0" encoding="utf-8"?>
<!-- Generator: Adobe Illustrator 19.2.1, SVG Export Plug-In . SVG Version: 6.00 Build 0)  -->
<svg version="1.1" xmlns="http://www.w3.org/2000/svg" xmlns:xlink="http://www.w3.org/1999/xlink" x="0px" y="0px" width="24px"
	 height="24px" viewBox="0 0 24 24" enable-background="new 0 0 24 24" xml:space="preserve">
<g id="Filled_Icons">
	<path d="M20.486,3.515C18.219,1.248,15.206-0.001,12-0.001S5.782,1.248,3.515,3.515C1.248,5.78,0,8.794,0,11.999
		s1.248,6.22,3.515,8.486C5.782,22.752,8.795,24,12,24s6.219-1.248,8.485-3.515C25.164,15.806,25.164,8.192,20.486,3.515z
		 M19.411,8.814l-5.203,5.188l3.146,3.149c0.143,0.143,0.186,0.358,0.108,0.545c-0.078,0.187-0.26,0.309-0.462,0.309H6.5
		c-0.133,0-0.26-0.053-0.353-0.146C6.053,17.764,6,17.636,6,17.504L6.009,7.01c0-0.202,0.122-0.385,0.309-0.462
		C6.504,6.472,6.72,6.514,6.863,6.656l3.136,3.135l5.173-5.216c0.094-0.094,0.221-0.148,0.354-0.148c0,0,0,0,0,0
		c0.133,0,0.26,0.053,0.354,0.147l3.531,3.531c0.094,0.094,0.146,0.221,0.146,0.353S19.504,8.72,19.411,8.814z"/>
</g>
<g id="Frames-24px">
	<rect fill="none" width="24" height="24"/>
</g>
</svg>
