<?xml version="1.0" encoding="utf-8"?>
<!-- Generator: Adobe Illustrator 19.2.1, SVG Export Plug-In . SVG Version: 6.00 Build 0)  -->
<svg version="1.1" xmlns="http://www.w3.org/2000/svg" xmlns:xlink="http://www.w3.org/1999/xlink" x="0px" y="0px" width="24px"
	 height="24px" viewBox="0 0 24 24" enable-background="new 0 0 24 24" xml:space="preserve">
<g id="Filled_Icons">
	<path d="M23.01,11H3.581l10.104-9.263c0.407-0.373,0.435-1.006,0.061-1.413c-0.373-0.406-1.006-0.435-1.413-0.062l-12,11
		c-0.006,0.005-0.009,0.012-0.015,0.017c-0.029,0.027-0.054,0.059-0.079,0.09C0.223,11.39,0.204,11.408,0.19,11.43
		c-0.025,0.038-0.047,0.079-0.067,0.119c-0.01,0.019-0.022,0.035-0.029,0.055c-0.023,0.051-0.038,0.103-0.052,0.158
		c-0.002,0.012-0.008,0.023-0.01,0.033C0.018,11.861,0.01,11.93,0.01,12s0.008,0.139,0.022,0.205
		c0.002,0.012,0.007,0.021,0.01,0.032c0.014,0.055,0.029,0.109,0.052,0.16c0.008,0.019,0.02,0.035,0.029,0.054
		c0.02,0.041,0.042,0.081,0.067,0.119c0.015,0.021,0.033,0.04,0.05,0.061c0.026,0.031,0.051,0.062,0.08,0.09
		c0.006,0.006,0.009,0.012,0.015,0.017l12,11C12.525,23.913,12.768,24,13.01,24c0.269,0,0.54-0.109,0.737-0.324
		c0.373-0.407,0.346-1.039-0.061-1.413L3.581,13H23.01c0.552,0,1-0.447,1-1C24.01,11.448,23.562,11,23.01,11z"/>
</g>
<g id="Frames-24px">
	<rect fill="none" width="24" height="24"/>
</g>
</svg>
