<?xml version="1.0" encoding="utf-8"?>
<!-- Generator: Adobe Illustrator 19.2.1, SVG Export Plug-In . SVG Version: 6.00 Build 0)  -->
<svg version="1.1" xmlns="http://www.w3.org/2000/svg" xmlns:xlink="http://www.w3.org/1999/xlink" x="0px" y="0px" width="24px"
	 height="24px" viewBox="0 0 24 24" enable-background="new 0 0 24 24" xml:space="preserve">
<g id="Filled_Icons">
	<path d="M18.465,3.845c-0.675,0-1.293,0.248-1.743,0.698C16.255,5.011,15.998,5.656,16,6.361v5.995L7.017,3.562
		C6.225,2.767,4.794,2.951,3.826,3.92C3.29,4.455,2.97,5.171,2.97,5.833c0,0.503,0.182,0.95,0.523,1.288L12.196,16h-6.04
		c-1.453,0-2.549,1.076-2.549,2.504c0,1.425,1.096,2.5,2.549,2.5H20.52c0.276,0,0.5-0.224,0.5-0.5V6.361
		C21.02,4.951,19.897,3.846,18.465,3.845z"/>
</g>
<g id="Frames-24px">
	<rect fill="none" width="24" height="24"/>
</g>
</svg>
