<?xml version="1.0" encoding="utf-8"?>
<!-- Generator: Adobe Illustrator 19.2.1, SVG Export Plug-In . SVG Version: 6.00 Build 0)  -->
<svg version="1.1" xmlns="http://www.w3.org/2000/svg" xmlns:xlink="http://www.w3.org/1999/xlink" x="0px" y="0px" width="24px"
	 height="24px" viewBox="0 0 24 24" enable-background="new 0 0 24 24" xml:space="preserve">
<g id="Filled_Icons">
	<path d="M23.879,11.628L12.954,0.703c-0.195-0.195-0.512-0.195-0.707,0l-3.45,3.449C8.606,4.344,8.601,4.65,8.784,4.848
		l3.863,4.163L0.522,8.996H0.521c-0.132,0-0.259,0.053-0.352,0.146C0.074,9.236,0.022,9.363,0.022,9.496v5
		c0,0.276,0.224,0.5,0.5,0.5h12.079l-3.816,4.119c-0.184,0.197-0.178,0.504,0.013,0.695l3.45,3.449
		c0.098,0.098,0.226,0.146,0.354,0.146c0.128,0,0.256-0.049,0.353-0.146l10.925-10.925C24.074,12.14,24.074,11.823,23.879,11.628z"
		/>
</g>
<g id="Frames-24px">
	<rect fill="none" width="24" height="24"/>
</g>
</svg>
