<?xml version="1.0" encoding="utf-8"?>
<!-- Generator: Adobe Illustrator 19.2.1, SVG Export Plug-In . SVG Version: 6.00 Build 0)  -->
<svg version="1.1" xmlns="http://www.w3.org/2000/svg" xmlns:xlink="http://www.w3.org/1999/xlink" x="0px" y="0px" width="24px"
	 height="24px" viewBox="0 0 24 24" enable-background="new 0 0 24 24" xml:space="preserve">
<g id="Filled_Icons">
	<path d="M23.701,5.405c-0.187-0.077-0.401-0.034-0.545,0.108l-5.014,5.014L7.763,0.147c-0.195-0.195-0.511-0.195-0.706,0l-6.9,6.9
		c-0.195,0.195-0.195,0.512,0,0.707l10.38,10.38l-5.013,5.013c-0.144,0.144-0.187,0.358-0.109,0.545C5.491,23.879,5.675,24,5.877,24
		H23.51c0.276,0,0.5-0.224,0.5-0.5V5.867C24.01,5.665,23.888,5.482,23.701,5.405z"/>
</g>
<g id="Frames-24px">
	<rect fill="none" width="24" height="24"/>
</g>
</svg>
