<?xml version="1.0" encoding="utf-8"?>
<!-- Generator: Adobe Illustrator 19.2.1, SVG Export Plug-In . SVG Version: 6.00 Build 0)  -->
<svg version="1.1" xmlns="http://www.w3.org/2000/svg" xmlns:xlink="http://www.w3.org/1999/xlink" x="0px" y="0px" width="24px"
	 height="24px" viewBox="0 0 24 24" enable-background="new 0 0 24 24" xml:space="preserve">
<g id="Filled_Icons">
	<path d="M23.5,0.004h-23c-0.276,0-0.5,0.224-0.5,0.5v23c0,0.276,0.224,0.5,0.5,0.5h23c0.276,0,0.5-0.224,0.5-0.5v-23
		C24,0.228,23.776,0.004,23.5,0.004z M18,17.008c0,0.21-0.131,0.398-0.328,0.47c-0.056,0.02-0.114,0.03-0.172,0.03
		c-0.144,0-0.285-0.062-0.382-0.177L12,11.282l-5.118,6.049c-0.137,0.16-0.358,0.217-0.554,0.146C6.131,17.405,6,17.218,6,17.008
		v-3.898c0-0.124,0.046-0.243,0.128-0.335l5.5-6.101c0.19-0.211,0.553-0.211,0.743,0l5.5,6.101C17.954,12.866,18,12.985,18,13.109
		V17.008z"/>
</g>
<g id="Frames-24px">
	<rect fill="none" width="24" height="24"/>
</g>
</svg>
