<?xml version="1.0" encoding="utf-8"?>
<!-- Generator: Adobe Illustrator 19.2.1, SVG Export Plug-In . SVG Version: 6.00 Build 0)  -->
<svg version="1.1" xmlns="http://www.w3.org/2000/svg" xmlns:xlink="http://www.w3.org/1999/xlink" x="0px" y="0px" width="24px"
	 height="24px" viewBox="0 0 24 24" enable-background="new 0 0 24 24" xml:space="preserve">
<g id="Filled_Icons">
	<g>
		<path d="M22,10.004c-1.122,0-2,0.879-2,2s0.878,2,2,2s2-0.879,2-2S23.122,10.004,22,10.004z"/>
		<path d="M18,15.004c-1.122,0-2,0.879-2,2s0.878,2,2,2s2-0.879,2-2S19.122,15.004,18,15.004z"/>
		<path d="M14,19.004c-1.122,0-2,0.879-2,2c0,1.121,0.878,2,2,2s2-0.879,2-2C16,19.883,15.122,19.004,14,19.004z"/>
		<path d="M18,9.004c1.122,0,2-0.879,2-2s-0.878-2-2-2s-2,0.879-2,2S16.878,9.004,18,9.004z"/>
		<path d="M14,5.004c1.122,0,2-0.879,2-2s-0.878-2-2-2s-2,0.879-2,2S12.878,5.004,14,5.004z"/>
		<path d="M2,10.004c-1.122,0-2,0.879-2,2s0.878,2,2,2s2-0.879,2-2S3.122,10.004,2,10.004z"/>
		<path d="M7,10.004c-1.122,0-2,0.879-2,2s0.878,2,2,2s2-0.879,2-2S8.122,10.004,7,10.004z"/>
		<path d="M14,12.004c0-1.121-0.878-2-2-2s-2,0.879-2,2s0.878,2,2,2S14,13.125,14,12.004z"/>
		<path d="M15,12.004c0,1.121,0.878,2,2,2s2-0.879,2-2s-0.878-2-2-2S15,10.883,15,12.004z"/>
	</g>
</g>
<g id="Frames-24px">
	<rect fill="none" width="24" height="24"/>
</g>
</svg>
