<?xml version="1.0" encoding="utf-8"?>
<!-- Generator: Adobe Illustrator 19.2.1, SVG Export Plug-In . SVG Version: 6.00 Build 0)  -->
<svg version="1.1" xmlns="http://www.w3.org/2000/svg" xmlns:xlink="http://www.w3.org/1999/xlink" x="0px" y="0px" width="24px"
	 height="24px" viewBox="0 0 24 24" enable-background="new 0 0 24 24" xml:space="preserve">
<g id="Filled_Icons">
	<path d="M23.509,9.856c-0.38-0.55-0.928-0.852-1.542-0.852H9.74l4.311-4.151c0.995-0.994,0.961-2.646-0.074-3.682
		c-1.001-1-2.722-1.033-3.68-0.077L0.148,11.144c-0.196,0.194-0.198,0.511-0.003,0.707l9.978,10.079
		c0.457,0.454,1.074,0.705,1.737,0.705c0.707,0,1.407-0.294,1.92-0.806c0.514-0.514,0.808-1.214,0.807-1.923
		c-0.001-0.664-0.253-1.279-0.708-1.733l-4.156-4.16h12.276c0.618,0,1.161-0.302,1.53-0.851C23.833,12.711,24,12.121,24,11.504
		C24,10.908,23.821,10.308,23.509,9.856z"/>
</g>
<g id="Frames-24px">
	<rect fill="none" width="24" height="24"/>
</g>
</svg>
