<?xml version="1.0" encoding="utf-8"?>
<!-- Generator: Adobe Illustrator 19.2.1, SVG Export Plug-In . SVG Version: 6.00 Build 0)  -->
<svg version="1.1" xmlns="http://www.w3.org/2000/svg" xmlns:xlink="http://www.w3.org/1999/xlink" x="0px" y="0px" width="24px"
	 height="24px" viewBox="0 0 24 24" enable-background="new 0 0 24 24" xml:space="preserve">
<g id="Filled_Icons">
	<g>
		<rect x="17.7" y="9.227" transform="matrix(1 -0.001 0.001 1 -0.0111 0.02)" width="2.769" height="2.769"/>
		<rect x="14.162" y="9.229" width="2.769" height="2.769"/>
		<rect x="10.624" y="9.231" width="2.769" height="2.77"/>
		<rect x="10.621" y="5.693" width="2.77" height="2.77"/>
		<rect x="7.084" y="5.696" width="2.769" height="2.77"/>
		<rect x="10.619" y="2.155" width="2.769" height="2.77"/>
		<rect x="7.086" y="9.234" width="2.769" height="2.77"/>
		<rect x="3.548" y="9.237" transform="matrix(1 -0.001 0.001 1 -0.0111 0.0052)" width="2.769" height="2.769"/>
		<rect x="21.238" y="9.225" width="2.769" height="2.769"/>
		<rect x="17.703" y="12.765" width="2.769" height="2.769"/>
		<rect x="14.165" y="12.768" width="2.769" height="2.769"/>
		<rect x="10.627" y="12.77" width="2.769" height="2.77"/>
		<rect x="7.088" y="12.772" width="2.769" height="2.77"/>
		<rect x="10.629" y="16.308" width="2.77" height="2.77"/>
		<rect x="10.631" y="19.846" width="2.77" height="2.769"/>
		<rect x="7.091" y="16.311" width="2.769" height="2.769"/>
		<rect x="3.551" y="12.775" width="2.769" height="2.769"/>
		<rect x="0.011" y="11.116" transform="matrix(1 -0.001 0.001 1 -0.0131 0.0015)" width="2.769" height="2.769"/>
		<rect x="21.24" y="12.762" transform="matrix(1 -0.0011 0.0011 1 -0.0153 0.0245)" width="2.77" height="2.77"/>
	</g>
</g>
<g id="Frames-24px">
	<rect fill="none" width="24" height="24"/>
</g>
</svg>
