<?xml version="1.0" encoding="utf-8"?>
<!-- Generator: Adobe Illustrator 19.2.1, SVG Export Plug-In . SVG Version: 6.00 Build 0)  -->
<svg version="1.1" xmlns="http://www.w3.org/2000/svg" xmlns:xlink="http://www.w3.org/1999/xlink" x="0px" y="0px" width="24px"
	 height="24px" viewBox="0 0 24 24" enable-background="new 0 0 24 24" xml:space="preserve">
<g id="Filled_Icons">
	<path d="M12,0.004c-6.617,0-12,5.383-12,12s5.383,12,12,12s12-5.383,12-12S18.617,0.004,12,0.004z M19.884,8.828l-7.5,9
		c-0.095,0.114-0.236,0.18-0.384,0.18s-0.289-0.065-0.384-0.18l-7.5-9C3.992,8.679,3.965,8.472,4.047,8.296
		C4.129,8.12,4.306,8.008,4.5,8.008h4c0.154,0,0.3,0.071,0.394,0.193L12,12.193l3.106-3.992c0.095-0.122,0.24-0.193,0.394-0.193h4
		c0.194,0,0.371,0.112,0.453,0.288C20.035,8.472,20.008,8.679,19.884,8.828z"/>
</g>
<g id="Frames-24px">
	<rect fill="none" width="24" height="24"/>
</g>
</svg>
