<?xml version="1.0" encoding="utf-8"?>
<!-- Generator: Adobe Illustrator 19.2.1, SVG Export Plug-In . SVG Version: 6.00 Build 0)  -->
<svg version="1.1" xmlns="http://www.w3.org/2000/svg" xmlns:xlink="http://www.w3.org/1999/xlink" x="0px" y="0px" width="24px"
	 height="24px" viewBox="0 0 24 24" enable-background="new 0 0 24 24" xml:space="preserve">
<g id="Filled_Icons">
	<path d="M23.51,4.01L17.507,4c-0.276,0-0.5,0.221-0.5,0.496v7.027L5.898,0.191c-0.094-0.096-0.221-0.149-0.354-0.15
		C5.408,0.036,5.281,0.094,5.188,0.188L0.156,5.219C0.062,5.314,0.009,5.442,0.01,5.576c0.001,0.133,0.055,0.262,0.15,0.354L11.5,17
		H4.523c-0.276,0-0.5,0.22-0.5,0.496v6c0,0.275,0.224,0.5,0.5,0.5L23.51,24c0.276,0,0.5-0.225,0.5-0.5V4.51
		C24.01,4.234,23.786,4.01,23.51,4.01z"/>
</g>
<g id="Frames-24px">
	<rect fill="none" width="24" height="24"/>
</g>
</svg>
