<?xml version="1.0" encoding="utf-8"?>
<!-- Generator: Adobe Illustrator 19.2.1, SVG Export Plug-In . SVG Version: 6.00 Build 0)  -->
<svg version="1.1" xmlns="http://www.w3.org/2000/svg" xmlns:xlink="http://www.w3.org/1999/xlink" x="0px" y="0px" width="24px"
	 height="24px" viewBox="0 0 24 24" enable-background="new 0 0 24 24" xml:space="preserve">
<g id="Filled_Icons">
	<path d="M12,0.004c-6.617,0-12,5.383-12,12s5.383,12,12,12s12-5.383,12-12S18.617,0.004,12,0.004z M15.898,18.804
		C15.799,18.933,15.65,19,15.5,19c-0.106,0-0.212-0.033-0.303-0.103l-8.5-6.496C6.573,12.307,6.5,12.16,6.5,12.004
		c0-0.155,0.072-0.303,0.196-0.398l8.5-6.504c0.219-0.167,0.534-0.125,0.701,0.094c0.168,0.219,0.126,0.533-0.093,0.701
		l-7.981,6.106l7.981,6.099C16.023,18.271,16.065,18.584,15.898,18.804z"/>
</g>
<g id="Frames-24px">
	<rect fill="none" width="24" height="24"/>
</g>
</svg>
