<?xml version="1.0" encoding="utf-8"?>
<!-- Generator: Adobe Illustrator 19.2.1, SVG Export Plug-In . SVG Version: 6.00 Build 0)  -->
<svg version="1.1" xmlns="http://www.w3.org/2000/svg" xmlns:xlink="http://www.w3.org/1999/xlink" x="0px" y="0px" width="24px"
	 height="24px" viewBox="0 0 24 24" enable-background="new 0 0 24 24" xml:space="preserve">
<g id="Filled_Icons">
	<path d="M8,23.519v-12.5H2.022c-0.202,0-0.385-0.122-0.462-0.308c-0.077-0.187-0.034-0.401,0.107-0.545l9.975-10.009
		c0.094-0.094,0.222-0.147,0.355-0.147c0.133,0,0.26,0.053,0.353,0.147l10.004,10.009c0.096,0.096,0.146,0.224,0.146,0.354
		c0,0.064-0.013,0.129-0.038,0.191c-0.077,0.187-0.26,0.309-0.462,0.309h-6v12.5c0,0.276-0.224,0.5-0.5,0.5h-7
		C8.224,24.019,8,23.795,8,23.519z"/>
</g>
<g id="Frames-24px">
	<rect fill="none" width="24" height="24"/>
</g>
</svg>
