<?xml version="1.0" encoding="utf-8"?>
<!-- Generator: Adobe Illustrator 19.2.1, SVG Export Plug-In . SVG Version: 6.00 Build 0)  -->
<svg version="1.1" xmlns="http://www.w3.org/2000/svg" xmlns:xlink="http://www.w3.org/1999/xlink" x="0px" y="0px" width="24px"
	 height="24px" viewBox="0 0 24 24" enable-background="new 0 0 24 24" xml:space="preserve">
<g id="Filled_Icons">
	<path d="M12,0.004c-6.617,0-12,5.383-12,12s5.383,12,12,12s12-5.383,12-12S18.617,0.004,12,0.004z M19.248,12.439l-10.5,6
		c-0.077,0.044-0.163,0.065-0.248,0.065c-0.087,0-0.173-0.023-0.251-0.067C8.095,18.347,8,18.183,8,18.004v-12
		c0-0.179,0.095-0.343,0.249-0.433c0.154-0.089,0.344-0.091,0.499-0.002l10.5,6c0.156,0.09,0.252,0.255,0.252,0.435
		C19.5,12.184,19.404,12.349,19.248,12.439z"/>
</g>
<g id="Frames-24px">
	<rect fill="none" width="24" height="24"/>
</g>
</svg>
