<?xml version="1.0" encoding="utf-8"?>
<!-- Generator: Adobe Illustrator 19.2.1, SVG Export Plug-In . SVG Version: 6.00 Build 0)  -->
<svg version="1.1" xmlns="http://www.w3.org/2000/svg" xmlns:xlink="http://www.w3.org/1999/xlink" x="0px" y="0px" width="24px"
	 height="24px" viewBox="0 0 24 24" enable-background="new 0 0 24 24" xml:space="preserve">
<g id="Filled_Icons">
	<path d="M23.5,0.004h-23c-0.276,0-0.5,0.224-0.5,0.5v23c0,0.276,0.224,0.5,0.5,0.5h23c0.276,0,0.5-0.224,0.5-0.5v-23
		C24,0.228,23.776,0.004,23.5,0.004z M17.327,17.122c0.16,0.136,0.219,0.356,0.147,0.554c-0.072,0.197-0.26,0.328-0.47,0.328h-3.898
		c-0.124,0-0.243-0.046-0.335-0.129l-6.102-5.5c-0.105-0.095-0.165-0.229-0.165-0.371c0-0.142,0.06-0.276,0.165-0.371l6.102-5.5
		c0.092-0.083,0.211-0.129,0.335-0.129h3.898c0.21,0,0.397,0.131,0.47,0.328c0.072,0.197,0.013,0.418-0.147,0.554l-6.049,5.118
		L17.327,17.122z"/>
</g>
<g id="Frames-24px">
	<rect fill="none" width="24" height="24"/>
</g>
</svg>
