<?xml version="1.0" encoding="utf-8"?>
<!-- Generator: Adobe Illustrator 19.2.1, SVG Export Plug-In . SVG Version: 6.00 Build 0)  -->
<svg version="1.1" xmlns="http://www.w3.org/2000/svg" xmlns:xlink="http://www.w3.org/1999/xlink" x="0px" y="0px" width="24px"
	 height="24px" viewBox="0 0 24 24" enable-background="new 0 0 24 24" xml:space="preserve">
<g id="Filled_Icons">
	<g>
		<path d="M18.842,17.731l-6.522,6.133c-0.193,0.183-0.494,0.18-0.686-0.001L5.156,17.73C5.057,17.636,5,17.505,5,17.367v-6.134
			c0-0.2,0.119-0.38,0.302-0.459c0.064-0.027,0.131-0.041,0.198-0.041c0.126,0,0.249,0.047,0.344,0.137l6.135,5.81l6.178-5.811
			c0.145-0.137,0.359-0.174,0.541-0.095C18.881,10.854,19,11.034,19,11.233v6.134C19,17.505,18.943,17.637,18.842,17.731z"/>
		<path d="M12.321,13.131c-0.194,0.183-0.495,0.18-0.686-0.001L5.156,6.996C5.057,6.901,5,6.771,5,6.633V0.5
			c0-0.2,0.119-0.38,0.302-0.459c0.185-0.078,0.396-0.042,0.542,0.096l6.135,5.809l6.179-5.81C18.252,0.047,18.375,0,18.5,0
			c0.067,0,0.135,0.014,0.198,0.041C18.881,0.12,19,0.301,19,0.5v6.133c0,0.138-0.057,0.269-0.157,0.364L12.321,13.131z"/>
	</g>
</g>
<g id="Frames-24px">
	<rect fill="none" width="24" height="24"/>
</g>
</svg>
