<?xml version="1.0" encoding="utf-8"?>
<!-- Generator: Adobe Illustrator 19.2.1, SVG Export Plug-In . SVG Version: 6.00 Build 0)  -->
<svg version="1.1" xmlns="http://www.w3.org/2000/svg" xmlns:xlink="http://www.w3.org/1999/xlink" x="0px" y="0px" width="24px"
	 height="24px" viewBox="0 0 24 24" enable-background="new 0 0 24 24" xml:space="preserve">
<g id="Filled_Icons">
	<path d="M12.01,0c-6.617,0-12,5.384-12,12c0,6.617,5.383,12,12,12c6.616,0,12-5.383,12-12C24.01,5.384,18.626,0,12.01,0z
		 M19.965,11.692c-0.077,0.186-0.26,0.309-0.462,0.309h-4.496l0.001,7.493c0,0.133-0.053,0.26-0.146,0.354
		C14.769,19.941,14.642,20,14.509,20H9.515c-0.275,0-0.5-0.23-0.5-0.506l-0.003-7.493H4.517c-0.202,0-0.385-0.122-0.462-0.309
		c-0.078-0.186-0.035-0.402,0.108-0.545l7.493-7.493c0.188-0.188,0.52-0.188,0.707,0l7.493,7.493
		C19.999,11.29,20.042,11.506,19.965,11.692z"/>
</g>
<g id="Frames-24px">
	<rect fill="none" width="24" height="24"/>
</g>
</svg>
