<?xml version="1.0" encoding="utf-8"?>
<!-- Generator: Adobe Illustrator 19.2.1, SVG Export Plug-In . SVG Version: 6.00 Build 0)  -->
<svg version="1.1" xmlns="http://www.w3.org/2000/svg" xmlns:xlink="http://www.w3.org/1999/xlink" x="0px" y="0px" width="24px"
	 height="24px" viewBox="0 0 24 24" enable-background="new 0 0 24 24" xml:space="preserve">
<g id="Filled_Icons">
	<path d="M22.392,5.633c0-0.133-0.053-0.26-0.146-0.353l-3.536-3.535c-0.094-0.094-0.221-0.146-0.353-0.146h-0.001
		c-0.133,0-0.26,0.053-0.354,0.147l-8.997,9.043V2.37c0-0.202-0.122-0.385-0.31-0.462C8.508,1.83,8.292,1.874,8.149,2.019
		L3.156,7.057c-0.093,0.093-0.145,0.22-0.145,0.352V20.5c0,0.276,0.224,0.5,0.5,0.5h13.085c0.133,0,0.261-0.054,0.356-0.148l4.95-5
		c0.142-0.144,0.184-0.358,0.106-0.544C21.929,15.121,21.747,15,21.545,15h-8.336l9.036-9.014
		C22.339,5.894,22.392,5.766,22.392,5.633z"/>
</g>
<g id="Frames-24px">
	<rect fill="none" width="24" height="24"/>
</g>
</svg>
