<?xml version="1.0" encoding="utf-8"?>
<!-- Generator: Adobe Illustrator 19.2.1, SVG Export Plug-In . SVG Version: 6.00 Build 0)  -->
<svg version="1.1" xmlns="http://www.w3.org/2000/svg" xmlns:xlink="http://www.w3.org/1999/xlink" x="0px" y="0px" width="24px"
	 height="24px" viewBox="0 0 24 24" enable-background="new 0 0 24 24" xml:space="preserve">
<g id="Filled_Icons">
	<g>
		<path d="M17.695,12.216c-0.185-0.078-0.398-0.038-0.543,0.103l-5.152,5l-5.152-5c-0.144-0.141-0.359-0.181-0.543-0.103
			C6.12,12.295,6,12.476,6,12.677v5.411c0,0.134,0.054,0.262,0.149,0.355l5.5,5.428c0.097,0.097,0.224,0.145,0.351,0.145
			s0.254-0.048,0.351-0.145l5.5-5.428C17.946,18.35,18,18.222,18,18.088v-5.411C18,12.476,17.88,12.295,17.695,12.216z"/>
		<path d="M17.693,4.098c-0.184-0.077-0.4-0.036-0.544,0.104L12,9.269L6.851,4.202C6.707,4.061,6.494,4.019,6.307,4.098
			C6.121,4.175,6,4.357,6,4.559v4.059C6,8.751,6.054,8.88,6.149,8.974l5.5,5.412c0.097,0.096,0.224,0.144,0.351,0.144
			s0.253-0.048,0.351-0.144l5.5-5.412C17.946,8.88,18,8.751,18,8.617V4.559C18,4.357,17.879,4.175,17.693,4.098z"/>
		<path d="M11.646,6.369C11.74,6.463,11.867,6.516,12,6.516s0.26-0.053,0.354-0.147l5.5-5.516c0.195-0.196,0.195-0.513-0.001-0.708
			c-0.195-0.193-0.512-0.193-0.707,0.001L12,5.308L6.854,0.147C6.659-0.048,6.343-0.049,6.147,0.146
			C5.951,0.341,5.951,0.657,6.146,0.854L11.646,6.369z"/>
	</g>
</g>
<g id="Frames-24px">
	<rect fill="none" width="24" height="24"/>
</g>
</svg>
