<?xml version="1.0" encoding="utf-8"?>
<!-- Generator: Adobe Illustrator 19.2.1, SVG Export Plug-In . SVG Version: 6.00 Build 0)  -->
<svg version="1.1" xmlns="http://www.w3.org/2000/svg" xmlns:xlink="http://www.w3.org/1999/xlink" x="0px" y="0px" width="24px"
	 height="24px" viewBox="0 0 24 24" enable-background="new 0 0 24 24" xml:space="preserve">
<g id="Filled_Icons">
	<path d="M23.5-0.001h-23c-0.276,0-0.5,0.225-0.5,0.5v23c0,0.276,0.224,0.5,0.5,0.5h23c0.276,0,0.5-0.224,0.5-0.5v-23
		C24,0.224,23.776-0.001,23.5-0.001z M5.269,20.749h-2v-2h2V20.749z M5.269,17.749h-2v-2h2V17.749z M5.269,14.749h-2v-2h2V14.749z
		 M5.269,11.749h-2v-2h2V11.749z M5.269,8.749h-2v-2h2V8.749z M8.269,20.749h-2v-2h2V20.749z M8.269,17.749h-2v-2h2V17.749z
		 M8.269,14.749h-2v-2h2V14.749z M8.269,11.749h-2v-2h2V11.749z M11.269,20.749h-2v-2h2V20.749z M11.269,17.749h-2v-2h2V17.749z
		 M11.269,14.749h-2v-2h2V14.749z M11.269,11.749h-2v-2h2V11.749z M14.269,20.749h-2v-2h2V20.749z M14.269,17.749h-2v-2h2V17.749z
		 M14.269,14.749h-2v-2h2V14.749z M14.269,11.749h-2v-2h2V11.749z M14.269,8.749h-2v-2h2V8.749z M17.269,20.749h-2v-2h2V20.749z
		 M17.269,11.749h-2v-2h2V11.749z M17.269,8.749h-2v-2h2V8.749z M17.269,5.749h-2v-2h2V5.749z M20.269,8.749h-2v-2h2V8.749z"/>
</g>
<g id="Frames-24px">
	<rect fill="none" width="24" height="24"/>
</g>
</svg>
