<?xml version="1.0" encoding="utf-8"?>
<!-- Generator: Adobe Illustrator 19.2.1, SVG Export Plug-In . SVG Version: 6.00 Build 0)  -->
<svg version="1.1" xmlns="http://www.w3.org/2000/svg" xmlns:xlink="http://www.w3.org/1999/xlink" x="0px" y="0px" width="24px"
	 height="24px" viewBox="0 0 24 24" enable-background="new 0 0 24 24" xml:space="preserve">
<g id="Filled_Icons">
	<g>
		<path d="M23.691,1.523c-0.186-0.077-0.402-0.034-0.545,0.108L12.018,12.793L0.856,1.639C0.713,1.496,0.498,1.454,0.312,1.53
			C0.124,1.607,0.003,1.79,0.003,1.992v8.571c0,0.133,0.053,0.261,0.147,0.354L11.665,22.37c0.098,0.097,0.225,0.146,0.353,0.146
			c0.128,0,0.256-0.049,0.353-0.146l11.482-11.46C23.947,10.815,24,10.689,24,10.556V1.984C24,1.782,23.878,1.6,23.691,1.523z"/>
	</g>
</g>
<g id="Frames-24px">
	<rect fill="none" width="24" height="24"/>
</g>
</svg>
