<?xml version="1.0" encoding="utf-8"?>
<!-- Generator: Adobe Illustrator 19.2.1, SVG Export Plug-In . SVG Version: 6.00 Build 0)  -->
<svg version="1.1" xmlns="http://www.w3.org/2000/svg" xmlns:xlink="http://www.w3.org/1999/xlink" x="0px" y="0px" width="24px"
	 height="24px" viewBox="0 0 24 24" enable-background="new 0 0 24 24" xml:space="preserve">
<g id="Filled_Icons">
	<path d="M23.854,0.146c-0.093-0.094-0.222-0.147-0.354-0.147h-23c-0.276,0-0.5,0.224-0.5,0.5v23c0,0.276,0.224,0.5,0.5,0.5h22.98
		c0.276,0,0.52-0.225,0.52-0.5v-23C24,0.366,23.948,0.239,23.854,0.146z M5.263,12.749H3.265v-1.998h1.998V12.749z M8.259,14.247
		H6.261v-1.998h1.998V14.247z M8.259,11.251H6.261V9.253h1.998V11.251z M11.255,17.243H9.257v-1.998h1.998V17.243z M11.255,14.247
		H9.257v-1.998h1.998V14.247z M11.255,11.251H9.257V9.253h1.998V11.251z M11.255,8.255H9.257V6.257h1.998V8.255z M14.251,20.239
		h-1.998v-1.998h1.998V20.239z M14.251,17.243h-1.998v-1.998h1.998V17.243z M14.251,14.247h-1.998v-1.998h1.998V14.247z
		 M14.251,11.251h-1.998V9.253h1.998V11.251z M14.251,8.255h-1.998V6.257h1.998V8.255z M14.251,5.259h-1.998V3.261h1.998V5.259z
		 M17.247,14.247H15.25v-1.998h1.997V14.247z M17.247,11.251H15.25V9.253h1.997V11.251z M20.243,14.247h-1.997v-1.998h1.997V14.247z
		 M20.243,11.251h-1.997V9.253h1.997V11.251z"/>
</g>
<g id="Frames-24px">
	<rect fill="none" width="24" height="24"/>
</g>
</svg>
