<?xml version="1.0" encoding="utf-8"?>
<!-- Generator: Adobe Illustrator 19.2.1, SVG Export Plug-In . SVG Version: 6.00 Build 0)  -->
<svg version="1.1" xmlns="http://www.w3.org/2000/svg" xmlns:xlink="http://www.w3.org/1999/xlink" x="0px" y="0px" width="24px"
	 height="24px" viewBox="0 0 24 24" enable-background="new 0 0 24 24" xml:space="preserve">
<g id="Filled_Icons">
	<g>
		<path d="M23,24c-0.249,0-0.498-0.092-0.691-0.277l-11.5-11C10.611,12.534,10.5,12.273,10.5,12s0.111-0.534,0.309-0.723l11.5-11
			c0.399-0.382,1.033-0.367,1.414,0.031c0.382,0.399,0.368,1.032-0.031,1.414L12.947,12l10.745,10.277
			c0.399,0.382,0.413,1.015,0.031,1.414C23.526,23.896,23.263,24,23,24z"/>
	</g>
	<g>
		<path d="M12.5,24c-0.248,0-0.498-0.092-0.691-0.277l-11.5-11C0.111,12.534,0,12.273,0,12s0.111-0.534,0.309-0.723l11.5-11
			c0.399-0.382,1.032-0.367,1.414,0.031c0.382,0.399,0.368,1.032-0.031,1.414L2.447,12l10.745,10.277
			c0.399,0.382,0.413,1.015,0.031,1.414C13.026,23.896,12.763,24,12.5,24z"/>
	</g>
</g>
<g id="Frames-24px">
	<rect fill="none" width="24" height="24"/>
</g>
</svg>
