<?xml version="1.0" encoding="utf-8"?>
<!-- Generator: Adobe Illustrator 19.2.1, SVG Export Plug-In . SVG Version: 6.00 Build 0)  -->
<svg version="1.1" xmlns="http://www.w3.org/2000/svg" xmlns:xlink="http://www.w3.org/1999/xlink" x="0px" y="0px" width="24px"
	 height="24px" viewBox="0 0 24 24" enable-background="new 0 0 24 24" xml:space="preserve">
<g id="Filled_Icons">
	<path d="M21.719,7.55c-0.178-0.083-0.386-0.053-0.534,0.074L15,12.918V0.504c0-0.276-0.224-0.5-0.5-0.5h-5
		c-0.276,0-0.5,0.224-0.5,0.5v12.411L2.835,7.621C2.688,7.493,2.478,7.464,2.301,7.546C2.124,7.627,2.01,7.805,2.01,8v7.004
		c0,0.143,0.061,0.277,0.167,0.372l9.49,8.5c0.095,0.085,0.214,0.128,0.333,0.128s0.238-0.042,0.333-0.127l9.51-8.5
		c0.106-0.095,0.167-0.231,0.167-0.373v-7C22.01,7.809,21.896,7.631,21.719,7.55z"/>
</g>
<g id="Frames-24px">
	<rect fill="none" width="24" height="24"/>
</g>
</svg>
