<?xml version="1.0" encoding="utf-8"?>
<!-- Generator: Adobe Illustrator 19.2.1, SVG Export Plug-In . SVG Version: 6.00 Build 0)  -->
<svg version="1.1" xmlns="http://www.w3.org/2000/svg" xmlns:xlink="http://www.w3.org/1999/xlink" x="0px" y="0px" width="24px"
	 height="24px" viewBox="0 0 24 24" enable-background="new 0 0 24 24" xml:space="preserve">
<g id="Filled_Icons">
	<path d="M12.01,0c-6.617,0-12,5.384-12,12c0,6.617,5.383,12,12,12s12-5.383,12-12C24.01,5.384,18.627,0,12.01,0z M20.355,12.354
		l-7.492,7.494c-0.097,0.096-0.225,0.146-0.354,0.146c-0.064,0-0.13-0.013-0.191-0.039c-0.188-0.076-0.309-0.26-0.309-0.461V15
		H4.517c-0.132,0-0.26-0.053-0.354-0.146C4.069,14.76,4.017,14.632,4.017,14.5V9.506C4.017,9.229,4.24,9,4.517,9h7.493V4.507
		c0-0.202,0.121-0.384,0.309-0.462c0.188-0.076,0.401-0.035,0.545,0.108l7.492,7.493C20.551,11.842,20.551,12.158,20.355,12.354z"/>
</g>
<g id="Frames-24px">
	<rect fill="none" width="24" height="24"/>
</g>
</svg>
