<?xml version="1.0" encoding="utf-8"?>
<!-- Generator: Adobe Illustrator 19.2.1, SVG Export Plug-In . SVG Version: 6.00 Build 0)  -->
<svg version="1.1" xmlns="http://www.w3.org/2000/svg" xmlns:xlink="http://www.w3.org/1999/xlink" x="0px" y="0px" width="24px"
	 height="24px" viewBox="0 0 24 24" enable-background="new 0 0 24 24" xml:space="preserve">
<g id="Filled_Icons">
	<path d="M23.411,11.068L12.486,0.143c-0.195-0.195-0.512-0.195-0.707,0L0.854,11.068c-0.195,0.195-0.195,0.512,0,0.707l3.449,3.449
		c0.192,0.191,0.5,0.195,0.697,0.01l4.015-3.786V23.5c0,0.276,0.224,0.5,0.5,0.5l4.992-0.004c0.275,0,0.5-0.224,0.5-0.5L15,11.396
		l4.272,3.845c0.197,0.18,0.5,0.173,0.689-0.017l3.449-3.449C23.607,11.58,23.607,11.264,23.411,11.068z"/>
</g>
<g id="Frames-24px">
	<rect fill="none" width="24" height="24"/>
</g>
</svg>
