<?xml version="1.0" encoding="utf-8"?>
<!-- Generator: Adobe Illustrator 19.2.1, SVG Export Plug-In . SVG Version: 6.00 Build 0)  -->
<svg version="1.1" xmlns="http://www.w3.org/2000/svg" xmlns:xlink="http://www.w3.org/1999/xlink" x="0px" y="0px" width="24px"
	 height="24px" viewBox="0 0 24 24" enable-background="new 0 0 24 24" xml:space="preserve">
<g id="Filled_Icons">
	<path d="M23.5,9H11.087l5.293-6.175c0.127-0.148,0.156-0.357,0.075-0.534C16.373,2.113,16.195,2,16,2H9
		C8.858,2,8.722,2.06,8.627,2.167l-8.5,9.5c-0.17,0.189-0.17,0.477,0,0.666l8.5,9.5C8.722,21.94,8.858,22,9,22h7
		c0.195,0,0.373-0.113,0.454-0.291c0.082-0.178,0.053-0.386-0.075-0.534L11.087,15H23.5c0.276,0,0.5-0.224,0.5-0.5v-5
		C24,9.224,23.776,9,23.5,9z"/>
</g>
<g id="Frames-24px">
	<rect fill="none" width="24" height="24"/>
</g>
</svg>
