<?xml version="1.0" encoding="utf-8"?>
<!-- Generator: Adobe Illustrator 19.2.1, SVG Export Plug-In . SVG Version: 6.00 Build 0)  -->
<svg version="1.1" xmlns="http://www.w3.org/2000/svg" xmlns:xlink="http://www.w3.org/1999/xlink" x="0px" y="0px" width="24px"
	 height="24px" viewBox="0 0 24 24" enable-background="new 0 0 24 24" xml:space="preserve">
<g id="Filled_Icons">
	<path d="M20.485,3.52C18.218,1.253,15.205,0.004,12,0.004S5.781,1.253,3.514,3.52c-4.678,4.678-4.678,12.291,0,16.971
		c2.267,2.267,5.28,3.515,8.485,3.515s6.219-1.248,8.485-3.515C25.163,15.811,25.163,8.197,20.485,3.52z M18,17.504
		c0,0.276-0.224,0.5-0.5,0.5H7c-0.202,0-0.384-0.122-0.462-0.309c-0.078-0.186-0.035-0.401,0.108-0.545l3.145-3.149L4.573,8.814
		C4.479,8.72,4.426,8.593,4.426,8.46c0-0.133,0.053-0.261,0.147-0.354l3.531-3.531c0.094-0.094,0.221-0.147,0.353-0.147h0.001
		c0.133,0,0.26,0.053,0.354,0.148l5.19,5.217l3.145-3.145c0.143-0.144,0.358-0.185,0.545-0.108C17.878,6.615,18,6.798,18,7V17.504z"
		/>
</g>
<g id="Frames-24px">
	<rect fill="none" width="24" height="24"/>
</g>
</svg>
