<?xml version="1.0" encoding="utf-8"?>
<!-- Generator: Adobe Illustrator 19.2.1, SVG Export Plug-In . SVG Version: 6.00 Build 0)  -->
<svg version="1.1" xmlns="http://www.w3.org/2000/svg" xmlns:xlink="http://www.w3.org/1999/xlink" x="0px" y="0px" width="24px"
	 height="24px" viewBox="0 0 24 24" enable-background="new 0 0 24 24" xml:space="preserve">
<g id="Filled_Icons">
	<path d="M12,0.004c-6.617,0-12,5.383-12,12s5.383,12,12,12s12-5.383,12-12S18.617,0.004,12,0.004z M17.317,12.401l-8.514,6.496
		C8.713,18.967,8.606,19,8.5,19c-0.151,0-0.3-0.067-0.398-0.196c-0.167-0.22-0.125-0.534,0.094-0.701l7.993-6.099L8.196,5.898
		C7.977,5.729,7.935,5.416,8.102,5.196c0.168-0.219,0.482-0.261,0.701-0.094l8.514,6.504c0.124,0.095,0.196,0.242,0.196,0.398
		C17.514,12.16,17.441,12.307,17.317,12.401z"/>
</g>
<g id="Frames-24px">
	<rect fill="none" width="24" height="24"/>
</g>
</svg>
