<?xml version="1.0" encoding="utf-8"?>
<!-- Generator: Adobe Illustrator 19.2.1, SVG Export Plug-In . SVG Version: 6.00 Build 0)  -->
<svg version="1.1" xmlns="http://www.w3.org/2000/svg" xmlns:xlink="http://www.w3.org/1999/xlink" x="0px" y="0px" width="24px"
	 height="24px" viewBox="0 0 24 24" enable-background="new 0 0 24 24" xml:space="preserve">
<g id="Filled_Icons">
	<path d="M20.987,5.432c-0.099-0.539-0.397-1.091-0.817-1.512c-0.969-0.969-2.408-1.145-3.187-0.363l-8.983,8.758L7.996,6.362
		c0.002-0.706-0.255-1.352-0.722-1.819c-0.45-0.45-1.068-0.698-1.744-0.698C4.09,3.846,3.002,4.928,3,6.361v14.143
		c0,0.276,0.224,0.5,0.5,0.5h14.338c1.452,0,2.548-1.074,2.551-2.5c0-1.428-1.097-2.504-2.551-2.504H11.7l8.8-8.875
		C20.935,6.691,21.108,6.09,20.987,5.432z"/>
</g>
<g id="Frames-24px">
	<rect fill="none" width="24" height="24"/>
</g>
</svg>
