<?xml version="1.0" encoding="utf-8"?>
<!-- Generator: Adobe Illustrator 19.2.1, SVG Export Plug-In . SVG Version: 6.00 Build 0)  -->
<svg version="1.1" xmlns="http://www.w3.org/2000/svg" xmlns:xlink="http://www.w3.org/1999/xlink" x="0px" y="0px" width="24px"
	 height="24px" viewBox="0 0 24 24" enable-background="new 0 0 24 24" xml:space="preserve">
<g id="Filled_Icons">
	<path d="M23.501,0h-23c-0.276,0-0.5,0.224-0.5,0.5v23c0,0.276,0.224,0.5,0.5,0.5h23c0.276,0,0.5-0.224,0.5-0.5v-23
		C24.001,0.224,23.777,0,23.501,0z M18,17.5c0,0.206-0.126,0.392-0.319,0.466C17.623,17.989,17.561,18,17.5,18
		c-0.137,0-0.272-0.057-0.369-0.162L12,12.24l-5.132,5.598c-0.14,0.152-0.359,0.203-0.55,0.128C6.127,17.892,6,17.706,6,17.5V12
		c0-0.125,0.047-0.246,0.131-0.338l5.5-6c0.189-0.207,0.548-0.207,0.737,0l5.5,6C17.953,11.754,18,11.875,18,12V17.5z"/>
</g>
<g id="Frames-24px">
	<rect fill="none" width="24" height="24"/>
</g>
</svg>
