<?xml version="1.0" encoding="utf-8"?>
<!-- Generator: Adobe Illustrator 19.2.1, SVG Export Plug-In . SVG Version: 6.00 Build 0)  -->
<svg version="1.1" xmlns="http://www.w3.org/2000/svg" xmlns:xlink="http://www.w3.org/1999/xlink" x="0px" y="0px" width="24px"
	 height="24px" viewBox="0 0 24 24" enable-background="new 0 0 24 24" xml:space="preserve">
<g id="Filled_Icons">
	<path d="M23.5,8.997L11.387,9l3.864-4.152c0.184-0.197,0.178-0.504-0.013-0.695l-3.45-3.449c-0.195-0.195-0.512-0.195-0.707,0
		L0.156,11.628c-0.195,0.195-0.195,0.512,0,0.707L11.081,23.26c0.098,0.098,0.227,0.146,0.353,0.146
		c0.129,0,0.256-0.049,0.354-0.146l3.45-3.449c0.19-0.191,0.196-0.498,0.013-0.695l-3.815-4.119H23.5c0.274,0,0.499-0.19,0.5-0.465
		V9.5C24.002,9.224,23.778,8.997,23.5,8.997z"/>
</g>
<g id="Frames-24px">
	<rect fill="none" width="24" height="24"/>
</g>
</svg>
