<?xml version="1.0" encoding="utf-8"?>
<!-- Generator: Adobe Illustrator 19.2.1, SVG Export Plug-In . SVG Version: 6.00 Build 0)  -->
<svg version="1.1" xmlns="http://www.w3.org/2000/svg" xmlns:xlink="http://www.w3.org/1999/xlink" x="0px" y="0px" width="24px"
	 height="24px" viewBox="0 0 24 24" enable-background="new 0 0 24 24" xml:space="preserve">
<g id="Filled_Icons">
	<path d="M23.5,0.004h-23c-0.276,0-0.5,0.224-0.5,0.5v23c0,0.276,0.224,0.5,0.5,0.5h23c0.276,0,0.5-0.224,0.5-0.5v-23
		C24,0.228,23.776,0.004,23.5,0.004z M17.867,18.161c0.135,0.146,0.17,0.358,0.091,0.539c-0.08,0.183-0.259,0.3-0.458,0.3H13
		c-0.132,0-0.26-0.053-0.354-0.146l-6.5-6.496c-0.195-0.194-0.195-0.51-0.002-0.706l6.453-6.504C12.692,5.053,12.82,5,12.953,5H17.5
		c0.199,0,0.378,0.117,0.458,0.3c0.08,0.182,0.044,0.394-0.09,0.539l-5.687,6.165L17.867,18.161z"/>
</g>
<g id="Frames-24px">
	<rect fill="none" width="24" height="24"/>
</g>
</svg>
