<?xml version="1.0" encoding="utf-8"?>
<!-- Generator: Adobe Illustrator 19.2.1, SVG Export Plug-In . SVG Version: 6.00 Build 0)  -->
<svg version="1.1" xmlns="http://www.w3.org/2000/svg" xmlns:xlink="http://www.w3.org/1999/xlink" x="0px" y="0px" width="24px"
	 height="24px" viewBox="0 0 24 24" enable-background="new 0 0 24 24" xml:space="preserve">
<g id="Filled_Icons">
	<path d="M12.01-0.018c-6.617,0-12,5.383-12,11.999c0,6.616,5.383,11.999,12,11.999c6.616,0,12-5.383,12-11.999
		C24.01,5.365,18.626-0.018,12.01-0.018z M20.029,13.502c0,0.276-0.224,0.5-0.5,0.5h-8.286l3.116,3.116
		c0.094,0.094,0.147,0.221,0.147,0.354c0,0.133-0.053,0.26-0.147,0.353l-1.996,1.997c-0.098,0.097-0.226,0.146-0.354,0.146
		s-0.256-0.05-0.354-0.146l-7.487-7.487c-0.094-0.094-0.147-0.221-0.147-0.354c0-0.133,0.053-0.26,0.147-0.353l7.487-7.487
		c0.195-0.195,0.512-0.195,0.707,0l1.996,1.997c0.194,0.194,0.195,0.51,0.002,0.705l-3.128,3.165h8.296c0.276,0,0.5,0.224,0.5,0.5
		V13.502z"/>
</g>
<g id="Frames-24px">
	<rect fill="none" width="24" height="24"/>
</g>
</svg>
