<?xml version="1.0" encoding="utf-8"?>
<!-- Generator: Adobe Illustrator 19.2.1, SVG Export Plug-In . SVG Version: 6.00 Build 0)  -->
<svg version="1.1" xmlns="http://www.w3.org/2000/svg" xmlns:xlink="http://www.w3.org/1999/xlink" x="0px" y="0px" width="24px"
	 height="24px" viewBox="0 0 24 24" enable-background="new 0 0 24 24" xml:space="preserve">
<g id="Filled_Icons">
	<path d="M23.5-0.001H0.52c-0.275,0-0.5,0.223-0.5,0.499L0,23.499c0,0.133,0.053,0.26,0.146,0.354C0.24,23.947,0.367,24,0.5,24h23
		c0.276,0,0.5-0.224,0.5-0.5V0.499C24,0.223,23.776-0.001,23.5-0.001z M5.792,14.746H3.794v-1.998h1.998V14.746z M5.792,11.75H3.794
		V9.752h1.998V11.75z M8.788,14.746H6.79v-1.998h1.998V14.746z M8.788,11.75H6.79V9.752h1.998V11.75z M11.784,20.738H9.786V18.74
		h1.998V20.738z M11.784,17.742H9.786v-1.998h1.998V17.742z M11.784,14.746H9.786v-1.998h1.998V14.746z M11.784,11.75H9.786V9.752
		h1.998V11.75z M11.784,8.753H9.786V6.755h1.998V8.753z M11.784,5.757H9.786V3.759h1.998V5.757z M14.78,17.742h-1.998v-1.998h1.998
		V17.742z M14.78,14.746h-1.998v-1.998h1.998V14.746z M14.78,11.75h-1.998V9.752h1.998V11.75z M14.78,8.753h-1.998V6.755h1.998
		V8.753z M17.776,14.746h-1.998v-1.998h1.998V14.746z M17.776,11.75h-1.998V9.752h1.998V11.75z M20.772,13.248h-1.998V11.25h1.998
		V13.248z"/>
</g>
<g id="Frames-24px">
	<rect fill="none" width="24" height="24"/>
</g>
</svg>
