<?xml version="1.0" encoding="utf-8"?>
<!-- Generator: Adobe Illustrator 19.2.1, SVG Export Plug-In . SVG Version: 6.00 Build 0)  -->
<svg version="1.1" xmlns="http://www.w3.org/2000/svg" xmlns:xlink="http://www.w3.org/1999/xlink" x="0px" y="0px" width="24px"
	 height="24px" viewBox="0 0 24 24" enable-background="new 0 0 24 24" xml:space="preserve">
<g id="Filled_Icons">
	<path d="M12,0.004c-6.617,0-12,5.383-12,12s5.383,12,12,12s12-5.383,12-12S18.617,0.004,12,0.004z M18.895,13.075l-5.828,5.611
		c-0.287,0.275-0.668,0.427-1.073,0.427c-0.4,0-0.778-0.149-1.063-0.418L5.112,13.18c-0.292-0.276-0.455-0.649-0.46-1.05
		c-0.005-0.4,0.148-0.777,0.432-1.061l0.296-0.296c0.552-0.556,1.555-0.585,2.139-0.06L10,12.933V5.5C10,4.673,10.673,4,11.5,4h1
		C13.327,4,14,4.673,14,5.5v7.398l2.485-2.28c0.583-0.534,1.575-0.514,2.135,0.046l0.296,0.298c0.284,0.283,0.438,0.66,0.434,1.062
		C19.346,12.424,19.185,12.798,18.895,13.075z"/>
</g>
<g id="Frames-24px">
	<rect fill="none" width="24" height="24"/>
</g>
</svg>
