<?xml version="1.0" encoding="utf-8"?>
<!-- Generator: Adobe Illustrator 19.2.1, SVG Export Plug-In . SVG Version: 6.00 Build 0)  -->
<svg version="1.1" xmlns="http://www.w3.org/2000/svg" xmlns:xlink="http://www.w3.org/1999/xlink" x="0px" y="0px" width="24px"
	 height="24px" viewBox="0 0 24 24" enable-background="new 0 0 24 24" xml:space="preserve">
<g id="Filled_Icons">
	<path d="M23.5,0.004h-23c-0.276,0-0.5,0.224-0.5,0.5v23c0,0.276,0.224,0.5,0.5,0.5h23c0.276,0,0.5-0.224,0.5-0.5v-23
		C24,0.228,23.776,0.004,23.5,0.004z M17.331,12.375l-6.102,5.5c-0.092,0.083-0.211,0.129-0.335,0.129H6.996
		c-0.21,0-0.398-0.131-0.47-0.328c-0.072-0.197-0.013-0.418,0.147-0.554l6.049-5.118L6.673,6.886
		C6.513,6.75,6.455,6.529,6.526,6.332c0.072-0.197,0.26-0.328,0.47-0.328h3.898c0.124,0,0.243,0.046,0.335,0.129l6.102,5.5
		c0.105,0.095,0.165,0.229,0.165,0.371C17.496,12.146,17.436,12.28,17.331,12.375z"/>
</g>
<g id="Frames-24px">
	<rect fill="none" width="24" height="24"/>
</g>
</svg>
