<?xml version="1.0" encoding="utf-8"?>
<!-- Generator: Adobe Illustrator 19.2.1, SVG Export Plug-In . SVG Version: 6.00 Build 0)  -->
<svg version="1.1" xmlns="http://www.w3.org/2000/svg" xmlns:xlink="http://www.w3.org/1999/xlink" x="0px" y="0px" width="24px"
	 height="24px" viewBox="0 0 24 24" enable-background="new 0 0 24 24" xml:space="preserve">
<g id="Filled_Icons">
	<g>
		<rect x="1.01" y="20.3" width="2.7" height="2.7"/>
		<rect x="1.01" y="16.899" width="2.7" height="2.7"/>
		<rect x="1.01" y="13.5" width="2.7" height="2.7"/>
		<rect x="1.01" y="10.1" width="2.7" height="2.7"/>
		<rect x="4.41" y="16.899" width="2.7" height="2.7"/>
		<rect x="4.41" y="13.5" width="2.7" height="2.7"/>
		<rect x="4.41" y="10.1" width="2.7" height="2.7"/>
		<rect x="7.81" y="16.899" width="2.7" height="2.7"/>
		<rect x="7.81" y="13.5" width="2.7" height="2.7"/>
		<rect x="7.81" y="10.1" width="2.7" height="2.7"/>
		<rect x="1.01" y="6.7" width="2.7" height="2.699"/>
		<rect x="14.61" y="10.1" width="2.699" height="2.7"/>
		<rect x="14.61" y="6.7" width="2.699" height="2.699"/>
		<rect x="14.61" y="3.3" width="2.699" height="2.7"/>
		<rect x="18.01" y="6.7" width="2.7" height="2.699"/>
		<rect x="11.21" y="16.899" width="2.7" height="2.7"/>
		<rect x="11.21" y="13.5" width="2.7" height="2.7"/>
		<rect x="11.21" y="10.1" width="2.7" height="2.7"/>
		<rect x="11.21" y="6.7" width="2.7" height="2.699"/>
		<rect x="14.61" y="20.3" width="2.699" height="2.7"/>
		<rect x="11.21" y="20.3" width="2.7" height="2.7"/>
		<rect x="7.81" y="20.3" width="2.7" height="2.7"/>
		<rect x="4.41" y="20.3" width="2.7" height="2.7"/>
	</g>
</g>
<g id="Frames-24px">
	<rect fill="none" width="24" height="24"/>
</g>
</svg>
