<?xml version="1.0" encoding="utf-8"?>
<!-- Generator: Adobe Illustrator 19.2.1, SVG Export Plug-In . SVG Version: 6.00 Build 0)  -->
<svg version="1.1" xmlns="http://www.w3.org/2000/svg" xmlns:xlink="http://www.w3.org/1999/xlink" x="0px" y="0px" width="24px"
	 height="24px" viewBox="0 0 24 24" enable-background="new 0 0 24 24" xml:space="preserve">
<g id="Filled_Icons">
	<path d="M12,0.004c-6.617,0-12,5.383-12,12s5.383,12,12,12c6.617,0,12-5.383,12-12S18.617,0.004,12,0.004z M18.916,12.94
		l-0.295,0.296c-0.554,0.555-1.558,0.583-2.14,0.06L14,11.075V18.5c0,0.827-0.673,1.5-1.5,1.5h-1c-0.827,0-1.5-0.673-1.5-1.5
		l0.002-7.391l-2.487,2.28c-0.582,0.535-1.576,0.515-2.135-0.046l-0.296-0.298c-0.283-0.282-0.438-0.659-0.434-1.061
		c0.004-0.4,0.165-0.774,0.455-1.053l5.829-5.611c0.569-0.547,1.563-0.553,2.137-0.007l5.818,5.515
		c0.292,0.276,0.456,0.649,0.461,1.05C19.354,12.279,19.2,12.656,18.916,12.94z"/>
</g>
<g id="Frames-24px">
	<rect fill="none" width="24" height="24"/>
</g>
</svg>
