<?xml version="1.0" encoding="utf-8"?>
<!-- Generator: Adobe Illustrator 19.2.1, SVG Export Plug-In . SVG Version: 6.00 Build 0)  -->
<svg version="1.1" xmlns="http://www.w3.org/2000/svg" xmlns:xlink="http://www.w3.org/1999/xlink" x="0px" y="0px" width="24px"
	 height="24px" viewBox="0 0 24 24" enable-background="new 0 0 24 24" xml:space="preserve">
<g id="Filled_Icons">
	<path d="M23.288,12.222l-3.45-3.45c-0.189-0.19-0.496-0.195-0.692-0.014l-4.138,3.803V0.5c0-0.275-0.187-0.5-0.464-0.5H9.539
		C9.262,0,9.007,0.225,9.007,0.5v12.086L4.873,8.757C4.676,8.576,4.371,8.582,4.182,8.771l-3.45,3.45
		c-0.195,0.195-0.195,0.512,0,0.707l10.925,10.925C11.75,23.947,11.877,24,12.01,24s0.26-0.053,0.354-0.146l10.925-10.925
		C23.483,12.733,23.483,12.417,23.288,12.222z"/>
</g>
<g id="Frames-24px">
	<rect fill="none" width="24" height="24"/>
</g>
</svg>
