<?xml version="1.0" encoding="utf-8"?>
<!-- Generator: Adobe Illustrator 19.2.1, SVG Export Plug-In . SVG Version: 6.00 Build 0)  -->
<svg version="1.1" xmlns="http://www.w3.org/2000/svg" xmlns:xlink="http://www.w3.org/1999/xlink" x="0px" y="0px" width="24px"
	 height="24px" viewBox="0 0 24 24" enable-background="new 0 0 24 24" xml:space="preserve">
<g id="Filled_Icons">
	<path d="M23.5,0h-23C0.224,0,0,0.224,0,0.5v23C0,23.776,0.224,24,0.5,24h23c0.276,0,0.5-0.224,0.5-0.5v-23
		C24,0.224,23.776,0,23.5,0z M18,11.5c0,0.125-0.047,0.246-0.131,0.338l-5.5,6C12.273,17.941,12.14,18,12,18
		c-0.14,0-0.274-0.059-0.369-0.162l-5.5-6C6.047,11.746,6,11.625,6,11.5V6c0-0.206,0.127-0.392,0.319-0.466
		c0.192-0.075,0.41-0.024,0.55,0.128l5.13,5.598l5.133-5.598c0.14-0.152,0.359-0.203,0.55-0.128C17.874,5.608,18,5.794,18,6V11.5z"
		/>
</g>
<g id="Frames-24px">
	<rect fill="none" width="24" height="24"/>
</g>
</svg>
