<?xml version="1.0" encoding="utf-8"?>
<!-- Generator: Adobe Illustrator 19.2.1, SVG Export Plug-In . SVG Version: 6.00 Build 0)  -->
<svg version="1.1" xmlns="http://www.w3.org/2000/svg" xmlns:xlink="http://www.w3.org/1999/xlink" x="0px" y="0px" width="24px"
	 height="24px" viewBox="0 0 24 24" enable-background="new 0 0 24 24" xml:space="preserve">
<g id="Filled_Icons">
	<g>
		<path d="M0,1c0,0.248,0.092,0.497,0.277,0.691l11,11.5C11.466,13.389,11.728,13.5,12,13.5c0.273,0,0.534-0.111,0.723-0.309
			l11-11.5c0.382-0.399,0.367-1.033-0.031-1.414c-0.399-0.382-1.032-0.368-1.414,0.031L12,11.053L1.723,0.309
			C1.341-0.09,0.708-0.104,0.309,0.277C0.104,0.474,0,0.737,0,1z"/>
	</g>
	<g>
		<path d="M0,11.5c0,0.248,0.092,0.497,0.277,0.691l11,11.5C11.466,23.889,11.728,24,12,24c0.273,0,0.534-0.111,0.723-0.309l11-11.5
			c0.382-0.399,0.367-1.032-0.031-1.414c-0.399-0.382-1.032-0.368-1.414,0.031L12,21.553L1.723,10.809
			c-0.382-0.399-1.015-0.413-1.414-0.031C0.104,10.974,0,11.237,0,11.5z"/>
	</g>
</g>
<g id="Frames-24px">
	<rect fill="none" width="24" height="24"/>
</g>
</svg>
