<?xml version="1.0" encoding="utf-8"?>
<!-- Generator: Adobe Illustrator 19.2.1, SVG Export Plug-In . SVG Version: 6.00 Build 0)  -->
<svg version="1.1" xmlns="http://www.w3.org/2000/svg" xmlns:xlink="http://www.w3.org/1999/xlink" x="0px" y="0px" width="24px"
	 height="24px" viewBox="0 0 24 24" enable-background="new 0 0 24 24" xml:space="preserve">
<g id="Filled_Icons">
	<path d="M23.76,12.84l-11-12.5c-0.006-0.007-0.013-0.012-0.019-0.018c-0.038-0.042-0.081-0.079-0.126-0.114
		C12.609,0.205,12.604,0.2,12.6,0.196C12.434,0.074,12.231,0,12.01,0s-0.424,0.074-0.59,0.196c-0.005,0.004-0.01,0.009-0.015,0.012
		c-0.045,0.035-0.088,0.072-0.126,0.114c-0.007,0.006-0.015,0.011-0.021,0.018l-11,12.5c-0.365,0.414-0.324,1.046,0.09,1.411
		c0.415,0.365,1.047,0.324,1.411-0.09L11.01,3.65V23c0,0.553,0.447,1,1,1c0.552,0,1-0.447,1-1V3.65l9.249,10.511
		c0.197,0.225,0.474,0.339,0.751,0.339c0.234,0,0.471-0.082,0.66-0.249C24.085,13.886,24.125,13.254,23.76,12.84z"/>
</g>
<g id="Frames-24px">
	<rect fill="none" width="24" height="24"/>
</g>
</svg>
