<?xml version="1.0" encoding="utf-8"?>
<!-- Generator: Adobe Illustrator 19.2.1, SVG Export Plug-In . SVG Version: 6.00 Build 0)  -->
<svg version="1.1" xmlns="http://www.w3.org/2000/svg" xmlns:xlink="http://www.w3.org/1999/xlink" x="0px" y="0px" width="24px"
	 height="24px" viewBox="0 0 24 24" enable-background="new 0 0 24 24" xml:space="preserve">
<g id="Filled_Icons">
	<path d="M12,0.004c-6.617,0-12,5.383-12,12s5.383,12,12,12s12-5.383,12-12S18.616,0.004,12,0.004z M19.84,12.357l-1.997,1.997
		c-0.094,0.094-0.221,0.147-0.354,0.147c-0.133,0-0.26-0.053-0.354-0.147L14,11.216V19.5c0,0.276-0.224,0.5-0.5,0.5h-2.998
		c-0.276,0-0.5-0.224-0.5-0.5v-8.285l-3.14,3.14c-0.094,0.094-0.221,0.147-0.353,0.147c-0.133,0-0.26-0.053-0.354-0.147
		l-1.997-1.997c-0.195-0.195-0.195-0.512,0-0.707l7.487-7.486c0.195-0.195,0.512-0.195,0.707,0l7.487,7.486
		C20.035,11.846,20.035,12.162,19.84,12.357z"/>
</g>
<g id="Frames-24px">
	<rect fill="none" width="24" height="24"/>
</g>
</svg>
