<?xml version="1.0" encoding="utf-8"?>
<!-- Generator: Adobe Illustrator 19.2.1, SVG Export Plug-In . SVG Version: 6.00 Build 0)  -->
<svg version="1.1" xmlns="http://www.w3.org/2000/svg" xmlns:xlink="http://www.w3.org/1999/xlink" x="0px" y="0px" width="24px"
	 height="24px" viewBox="0 0 24 24" enable-background="new 0 0 24 24" xml:space="preserve">
<g id="Filled_Icons">
	<path d="M21.843,8.631l-9.51-8.5c-0.189-0.17-0.477-0.169-0.667,0.001l-9.49,8.5C2.07,8.727,2.01,8.861,2.01,9.004V16
		c0,0.195,0.114,0.373,0.291,0.454c0.178,0.083,0.386,0.053,0.535-0.074L9,11.092v12.412c0,0.276,0.224,0.5,0.5,0.5h5
		c0.276,0,0.5-0.224,0.5-0.5V11.09l6.185,5.294c0.148,0.128,0.357,0.157,0.534,0.074c0.177-0.081,0.291-0.259,0.291-0.454v-7
		C22.01,8.861,21.949,8.726,21.843,8.631z"/>
</g>
<g id="Frames-24px">
	<rect fill="none" width="24" height="24"/>
</g>
</svg>
