<?xml version="1.0" encoding="utf-8"?>
<!-- Generator: Adobe Illustrator 19.2.1, SVG Export Plug-In . SVG Version: 6.00 Build 0)  -->
<svg version="1.1" xmlns="http://www.w3.org/2000/svg" xmlns:xlink="http://www.w3.org/1999/xlink" x="0px" y="0px" width="24px"
	 height="24px" viewBox="0 0 24 24" enable-background="new 0 0 24 24" xml:space="preserve">
<g id="Filled_Icons">
	<g>
		<path d="M12,0.004c-1.122,0-2,0.879-2,2s0.878,2,2,2s2-0.879,2-2S13.121,0.004,12,0.004z"/>
		<path d="M6.999,4.004c-1.122,0-2,0.879-2,2s0.878,2,2,2s2-0.879,2-2S8.121,4.004,6.999,4.004z"/>
		<path d="M3,8.004c-1.122,0-2,0.879-2,2s0.878,2,2,2s2-0.879,2-2S4.121,8.004,3,8.004z"/>
		<path d="M17,4.004c-1.122,0-2,0.879-2,2s0.878,2,2,2s2-0.879,2-2S18.121,4.004,17,4.004z"/>
		<path d="M21,8.004c-1.122,0-2,0.879-2,2s0.878,2,2,2c1.122,0,2-0.879,2-2S22.121,8.004,21,8.004z"/>
		<path d="M12,20.004c-1.122,0-2,0.879-2,2c0,1.121,0.878,2,2,2s2-0.879,2-2C14,20.883,13.121,20.004,12,20.004z"/>
		<path d="M12,15.004c-1.122,0-2,0.879-2,2s0.878,2,2,2s2-0.879,2-2S13.121,15.004,12,15.004z"/>
		<path d="M12,10.004c-1.122,0-2,0.879-2,2s0.878,2,2,2s2-0.879,2-2S13.121,10.004,12,10.004z"/>
		<path d="M12,5.004c-1.122,0-2,0.879-2,2s0.878,2,2,2s2-0.879,2-2S13.121,5.004,12,5.004z"/>
	</g>
</g>
<g id="Frames-24px">
	<rect fill="none" width="24" height="24"/>
</g>
</svg>
