<?xml version="1.0" encoding="utf-8"?>
<!-- Generator: Adobe Illustrator 19.2.1, SVG Export Plug-In . SVG Version: 6.00 Build 0)  -->
<svg version="1.1" xmlns="http://www.w3.org/2000/svg" xmlns:xlink="http://www.w3.org/1999/xlink" x="0px" y="0px" width="24px"
	 height="24px" viewBox="0 0 24 24" enable-background="new 0 0 24 24" xml:space="preserve">
<g id="Filled_Icons">
	<path d="M12.01,0c-6.617,0-12,5.384-12,12c0,6.617,5.383,12,12,12s12-5.383,12-12C24.01,5.384,18.627,0,12.01,0z M20.003,14.5
		c0,0.132-0.053,0.26-0.146,0.354C19.763,14.947,19.636,15,19.503,15H12.01v4.494c0,0.201-0.121,0.385-0.309,0.461
		c-0.061,0.026-0.127,0.039-0.191,0.039c-0.129,0-0.258-0.051-0.352-0.146l-7.493-7.494c-0.195-0.195-0.195-0.512,0-0.707
		l7.493-7.493c0.142-0.143,0.357-0.185,0.544-0.108c0.188,0.078,0.309,0.26,0.309,0.462v4.496l7.493,0.003
		c0.276,0,0.5,0.224,0.5,0.5V14.5z"/>
</g>
<g id="Frames-24px">
	<rect fill="none" width="24" height="24"/>
</g>
</svg>
