<?xml version="1.0" encoding="utf-8"?>
<!-- Generator: Adobe Illustrator 19.2.1, SVG Export Plug-In . SVG Version: 6.00 Build 0)  -->
<svg version="1.1" xmlns="http://www.w3.org/2000/svg" xmlns:xlink="http://www.w3.org/1999/xlink" x="0px" y="0px" width="24px"
	 height="24px" viewBox="0 0 24 24" enable-background="new 0 0 24 24" xml:space="preserve">
<g id="Filled_Icons">
	<g>
		<path d="M12.352,1.645c-0.195-0.193-0.511-0.193-0.705,0L0.15,13.09c-0.094,0.094-0.147,0.222-0.147,0.354v8.571
			c0,0.202,0.122,0.385,0.309,0.462c0.062,0.025,0.127,0.038,0.191,0.038c0.13,0,0.258-0.051,0.354-0.146L12,11.207l11.146,11.154
			c0.144,0.144,0.358,0.186,0.545,0.108C23.878,22.393,24,22.21,24,22.008v-8.571c0-0.133-0.053-0.261-0.147-0.354L12.352,1.645z"/>
	</g>
</g>
<g id="Frames-24px">
	<rect fill="none" width="24" height="24"/>
</g>
</svg>
