<?xml version="1.0" encoding="utf-8"?>
<!-- Generator: Adobe Illustrator 19.2.1, SVG Export Plug-In . SVG Version: 6.00 Build 0)  -->
<svg version="1.1" xmlns="http://www.w3.org/2000/svg" xmlns:xlink="http://www.w3.org/1999/xlink" x="0px" y="0px" width="24px"
	 height="24px" viewBox="0 0 24 24" enable-background="new 0 0 24 24" xml:space="preserve">
<g id="Filled_Icons">
	<g>
		<path d="M12.366,0.137c-0.192-0.181-0.493-0.184-0.686-0.001L5.158,6.269C5.057,6.363,5,6.495,5,6.633v6.134
			c0,0.199,0.119,0.38,0.302,0.459c0.184,0.079,0.396,0.042,0.541-0.095l6.178-5.811l6.135,5.81c0.095,0.09,0.218,0.137,0.344,0.137
			c0.067,0,0.134-0.014,0.198-0.041C18.881,13.146,19,12.967,19,12.767V6.633c0-0.138-0.057-0.269-0.156-0.363L12.366,0.137z"/>
		<path d="M12.366,10.87c-0.192-0.181-0.493-0.184-0.686-0.001l-6.522,6.134C5.057,17.098,5,17.229,5,17.367V23.5
			c0,0.199,0.119,0.38,0.302,0.459C5.365,23.986,5.433,24,5.5,24c0.125,0,0.248-0.047,0.342-0.136l6.179-5.81l6.135,5.809
			c0.145,0.138,0.358,0.174,0.542,0.096C18.881,23.88,19,23.7,19,23.5v-6.133c0-0.138-0.057-0.269-0.156-0.363L12.366,10.87z"/>
	</g>
</g>
<g id="Frames-24px">
	<rect fill="none" width="24" height="24"/>
</g>
</svg>
