<?xml version="1.0" encoding="utf-8"?>
<!-- Generator: Adobe Illustrator 19.2.1, SVG Export Plug-In . SVG Version: 6.00 Build 0)  -->
<svg version="1.1" xmlns="http://www.w3.org/2000/svg" xmlns:xlink="http://www.w3.org/1999/xlink" x="0px" y="0px" width="24px"
	 height="24px" viewBox="0 0 24 24" enable-background="new 0 0 24 24" xml:space="preserve">
<g id="Filled_Icons">
	<path d="M12,0.004c-6.617,0-12,5.383-12,12s5.383,12,12,12s12-5.383,12-12S18.616,0.004,12,0.004z M18.69,13.07l-5.515,5.821
		c-0.282,0.297-0.662,0.461-1.07,0.461c-0.393,0-0.763-0.153-1.042-0.433l-0.295-0.294c-0.576-0.575-0.603-1.535-0.061-2.141
		L12.928,14H5.5C4.673,14,4,13.327,4,12.5v-0.996c0-0.827,0.673-1.5,1.5-1.5l7.394,0.002l-2.281-2.486
		c-0.551-0.601-0.53-1.559,0.047-2.136l0.296-0.296c0.569-0.567,1.558-0.557,2.115,0.02l5.61,5.824
		C19.247,11.521,19.251,12.479,18.69,13.07z"/>
</g>
<g id="Frames-24px">
	<rect fill="none" width="24" height="24"/>
</g>
</svg>
