<?xml version="1.0" encoding="utf-8"?>
<!-- Generator: Adobe Illustrator 19.2.1, SVG Export Plug-In . SVG Version: 6.00 Build 0)  -->
<svg version="1.1" xmlns="http://www.w3.org/2000/svg" xmlns:xlink="http://www.w3.org/1999/xlink" x="0px" y="0px" width="24px"
	 height="24px" viewBox="0 0 24 24" enable-background="new 0 0 24 24" xml:space="preserve">
<g id="Filled_Icons">
	<path d="M12,0C5.373,0,0,5.373,0,12s5.373,12,12,12s12-5.373,12-12S18.627,0,12,0z M18.702,8.126l-5.853,5.88h4.65
		c0.276,0,0.5,0.224,0.5,0.5V17.5c0,0.276-0.224,0.5-0.5,0.5H6.502c-0.276,0-0.5-0.224-0.5-0.5V6.508c0-0.276,0.224-0.5,0.5-0.5H9.5
		c0.276,0,0.5,0.224,0.5,0.5v4.646l5.877-5.852c0.196-0.193,0.512-0.193,0.707,0.001l2.117,2.117
		C18.896,7.615,18.896,7.931,18.702,8.126z"/>
</g>
<g id="Frames-24px">
	<rect fill="none" width="24" height="24"/>
</g>
</svg>
