<?xml version="1.0" encoding="utf-8"?>
<!-- Generator: Adobe Illustrator 19.2.1, SVG Export Plug-In . SVG Version: 6.00 Build 0)  -->
<svg version="1.1" xmlns="http://www.w3.org/2000/svg" xmlns:xlink="http://www.w3.org/1999/xlink" x="0px" y="0px" width="24px"
	 height="24px" viewBox="0 0 24 24" enable-background="new 0 0 24 24" xml:space="preserve">
<g id="Filled_Icons">
	<g>
		<rect x="3.551" y="12.774" width="2.769" height="2.769"/>
		<rect x="7.09" y="12.772" width="2.769" height="2.769"/>
		<rect x="10.627" y="12.77" width="2.77" height="2.77"/>
		<rect x="10.629" y="16.308" width="2.769" height="2.77"/>
		<rect x="14.168" y="16.305" width="2.769" height="2.77"/>
		<rect x="10.632" y="19.846" transform="matrix(1 -0.001 0.001 1 -0.0222 0.0126)" width="2.769" height="2.769"/>
		<rect x="14.166" y="12.767" width="2.768" height="2.77"/>
		<rect x="17.703" y="12.765" width="2.77" height="2.769"/>
		<rect x="0.014" y="12.777" width="2.769" height="2.769"/>
		<rect x="3.549" y="9.236" width="2.769" height="2.769"/>
		<rect x="7.086" y="9.234" width="2.77" height="2.769"/>
		<rect x="10.625" y="9.231" width="2.769" height="2.77"/>
		<rect x="14.162" y="9.228" width="2.77" height="2.77"/>
		<rect x="10.623" y="5.693" width="2.769" height="2.77"/>
		<rect x="10.62" y="2.155" width="2.769" height="2.77"/>
		<rect x="14.16" y="5.69" width="2.77" height="2.77"/>
		<rect x="17.701" y="9.227" width="2.769" height="2.769"/>
		<rect x="21.24" y="10.993" transform="matrix(1 -0.001 0.001 1 -0.013 0.0237)" width="2.769" height="2.77"/>
		<rect x="0.01" y="9.239" transform="matrix(1 -0.001 0.001 1 -0.0111 0.0015)" width="2.769" height="2.769"/>
	</g>
</g>
<g id="Frames-24px">
	<rect fill="none" width="24" height="24"/>
</g>
</svg>
