<?xml version="1.0" encoding="utf-8"?>
<!-- Generator: Adobe Illustrator 19.2.1, SVG Export Plug-In . SVG Version: 6.00 Build 0)  -->
<svg version="1.1" xmlns="http://www.w3.org/2000/svg" xmlns:xlink="http://www.w3.org/1999/xlink" x="0px" y="0px" width="24px"
	 height="24px" viewBox="0 0 24 24" enable-background="new 0 0 24 24" xml:space="preserve">
<g id="Filled_Icons">
	<path d="M12,0.004c-6.617,0-12,5.383-12,12s5.383,12,12,12s12-5.383,12-12S18.617,0.004,12,0.004z M18.02,17.004
		c-0.007-0.001-0.013-0.001-0.02,0H6c-0.178,0-0.343-0.095-0.433-0.249c-0.089-0.154-0.09-0.345-0.002-0.499l6-10.5
		c0.178-0.312,0.69-0.312,0.868,0l5.94,10.396c0.09,0.09,0.146,0.215,0.146,0.353C18.52,16.78,18.296,17.004,18.02,17.004z"/>
</g>
<g id="Frames-24px">
	<rect fill="none" width="24" height="24"/>
</g>
</svg>
