<?xml version="1.0" encoding="utf-8"?>
<!-- Generator: Adobe Illustrator 19.2.1, SVG Export Plug-In . SVG Version: 6.00 Build 0)  -->
<svg version="1.1" xmlns="http://www.w3.org/2000/svg" xmlns:xlink="http://www.w3.org/1999/xlink" x="0px" y="0px" width="24px"
	 height="24px" viewBox="0 0 24 24" enable-background="new 0 0 24 24" xml:space="preserve">
<g id="Filled_Icons">
	<g>
		<rect x="9.352" y="3.541" width="2.77" height="2.769"/>
		<rect x="9.354" y="7.079" width="2.769" height="2.769"/>
		<rect x="9.356" y="10.617" width="2.769" height="2.769"/>
		<rect x="5.818" y="10.619" width="2.77" height="2.77"/>
		<rect x="5.821" y="14.157" width="2.769" height="2.769"/>
		<rect x="2.28" y="10.622" width="2.769" height="2.77"/>
		<rect x="9.359" y="14.155" width="2.769" height="2.769"/>
		<rect x="9.361" y="17.693" width="2.77" height="2.769"/>
		<rect x="9.349" y="0.003" width="2.769" height="2.769"/>
		<rect x="12.89" y="3.538" transform="matrix(1 -0.001 0.001 1 -0.0051 0.015)" width="2.769" height="2.769"/>
		<rect x="12.893" y="7.076" width="2.769" height="2.769"/>
		<rect x="12.895" y="10.614" width="2.769" height="2.769"/>
		<rect x="12.897" y="14.152" width="2.769" height="2.769"/>
		<rect x="16.432" y="10.612" transform="matrix(1 -0.001 0.001 1 -0.0126 0.0187)" width="2.769" height="2.769"/>
		<rect x="19.971" y="10.609" width="2.769" height="2.769"/>
		<rect x="16.436" y="14.15" width="2.769" height="2.769"/>
		<rect x="12.9" y="17.69" width="2.769" height="2.769"/>
		<rect x="11.133" y="21.229" width="2.77" height="2.769"/>
		<rect x="12.887" y="0" width="2.769" height="2.769"/>
	</g>
</g>
<g id="Frames-24px">
	<rect fill="none" width="24" height="24"/>
</g>
</svg>
