<?xml version="1.0" encoding="utf-8"?>
<!-- Generator: Adobe Illustrator 19.2.1, SVG Export Plug-In . SVG Version: 6.00 Build 0)  -->
<svg version="1.1" xmlns="http://www.w3.org/2000/svg" xmlns:xlink="http://www.w3.org/1999/xlink" x="0px" y="0px" width="24px"
	 height="24px" viewBox="0 0 24 24" enable-background="new 0 0 24 24" xml:space="preserve">
<g id="Filled_Icons">
	<path d="M23.863,7.047l-6.899-6.9c-0.195-0.195-0.512-0.195-0.707,0L5.876,10.527L0.863,5.514C0.72,5.371,0.505,5.328,0.318,5.405
		C0.132,5.482,0.01,5.665,0.01,5.867V23.5c0,0.276,0.224,0.5,0.5,0.5h17.634c0.201,0,0.385-0.121,0.461-0.309
		c0.078-0.187,0.035-0.401-0.107-0.545l-5.014-5.013l10.38-10.38C24.059,7.559,24.059,7.242,23.863,7.047z"/>
</g>
<g id="Frames-24px">
	<rect fill="none" width="24" height="24"/>
</g>
</svg>
