<?xml version="1.0" encoding="utf-8"?>
<!-- Generator: Adobe Illustrator 19.2.1, SVG Export Plug-In . SVG Version: 6.00 Build 0)  -->
<svg version="1.1" xmlns="http://www.w3.org/2000/svg" xmlns:xlink="http://www.w3.org/1999/xlink" x="0px" y="0px" width="24px"
	 height="24px" viewBox="0 0 24 24" enable-background="new 0 0 24 24" xml:space="preserve">
<g id="Filled_Icons">
	<path d="M23.5,0.004h-23c-0.276,0-0.5,0.224-0.5,0.5v23c0,0.276,0.224,0.5,0.5,0.5h23c0.276,0,0.5-0.224,0.5-0.5v-23
		C24,0.228,23.776,0.004,23.5,0.004z M13.854,10.15L10.706,7h3.073l4.545,5.004L13.779,17h-3.071l3.146-3.143
		c0.143-0.143,0.186-0.357,0.108-0.545c-0.077-0.186-0.26-0.309-0.462-0.309H5v-2h8.5c0.202,0,0.384-0.122,0.462-0.309
		C14.04,10.509,13.997,10.294,13.854,10.15z"/>
</g>
<g id="Frames-24px">
	<rect fill="none" width="24" height="24"/>
</g>
</svg>
