<?xml version="1.0" encoding="utf-8"?>
<!-- Generator: Adobe Illustrator 19.2.1, SVG Export Plug-In . SVG Version: 6.00 Build 0)  -->
<svg version="1.1" xmlns="http://www.w3.org/2000/svg" xmlns:xlink="http://www.w3.org/1999/xlink" x="0px" y="0px" width="24px"
	 height="24px" viewBox="0 0 24 24" enable-background="new 0 0 24 24" xml:space="preserve">
<g id="Filled_Icons">
	<path d="M12,0C5.373,0,0,5.373,0,12s5.373,12,12,12s12-5.373,12-12S18.627,0,12,0z M18,16.519c0,0.827-0.673,1.5-1.5,1.5H8.496
		c-0.827,0-1.5-0.673-1.5-1.5V15.5c0-0.827,0.673-1.5,1.5-1.5h2.674L6.004,8.838C5.722,8.556,5.566,8.179,5.566,7.777
		c0-0.401,0.155-0.778,0.438-1.06l0.686-0.686C7.255,5.466,8.247,5.466,8.811,6.03L14,11.208V8.49c0-0.827,0.673-1.5,1.5-1.5h1
		c0.827,0,1.5,0.673,1.5,1.5V16.519z"/>
</g>
<g id="Frames-24px">
	<rect fill="none" width="24" height="24"/>
</g>
</svg>
