<?xml version="1.0" encoding="utf-8"?>
<!-- Generator: Adobe Illustrator 19.2.1, SVG Export Plug-In . SVG Version: 6.00 Build 0)  -->
<svg version="1.1" xmlns="http://www.w3.org/2000/svg" xmlns:xlink="http://www.w3.org/1999/xlink" x="0px" y="0px" width="24px"
	 height="24px" viewBox="0 0 24 24" enable-background="new 0 0 24 24" xml:space="preserve">
<g id="Filled_Icons">
	<path d="M16.022,0.51v12.5H22c0.202,0,0.385,0.122,0.462,0.308c0.077,0.187,0.034,0.401-0.107,0.545L12.38,23.872
		c-0.094,0.094-0.222,0.147-0.354,0.147c-0.133,0-0.26-0.053-0.354-0.146L1.668,13.864c-0.096-0.096-0.146-0.224-0.146-0.354
		c0-0.064,0.013-0.129,0.038-0.191c0.077-0.187,0.26-0.309,0.462-0.309h6V0.51c0-0.276,0.224-0.5,0.5-0.5h7
		C15.798,0.01,16.022,0.234,16.022,0.51z"/>
</g>
<g id="Frames-24px">
	<rect fill="none" width="24" height="24"/>
</g>
</svg>
