<?xml version="1.0" encoding="utf-8"?>
<!-- Generator: Adobe Illustrator 19.2.1, SVG Export Plug-In . SVG Version: 6.00 Build 0)  -->
<svg version="1.1" xmlns="http://www.w3.org/2000/svg" xmlns:xlink="http://www.w3.org/1999/xlink" x="0px" y="0px" width="24px"
	 height="24px" viewBox="0 0 24 24" enable-background="new 0 0 24 24" xml:space="preserve">
<g id="Filled_Icons">
	<g>
		<path d="M23.863,11.623L17.73,5.156C17.636,5.057,17.504,5,17.367,5h-6.134c-0.2,0-0.38,0.119-0.46,0.303
			c-0.079,0.184-0.041,0.397,0.097,0.541l5.809,6.125l-5.811,6.189c-0.136,0.145-0.173,0.357-0.094,0.54
			C10.854,18.882,11.034,19,11.233,19h6.134c0.138,0,0.27-0.057,0.365-0.158l6.133-6.533C24.046,12.116,24.045,11.814,23.863,11.623
			z"/>
		<path d="M13.129,11.623L6.996,5.156C6.901,5.057,6.77,5,6.633,5H0.5c-0.2,0-0.38,0.119-0.46,0.303
			c-0.079,0.184-0.041,0.397,0.097,0.541l5.808,6.125l-5.81,6.189c-0.136,0.145-0.173,0.357-0.094,0.54C0.12,18.882,0.301,19,0.5,19
			h6.133c0.138,0,0.27-0.057,0.365-0.158l6.134-6.533C13.312,12.116,13.311,11.814,13.129,11.623z"/>
	</g>
</g>
<g id="Frames-24px">
	<rect fill="none" width="24" height="24"/>
</g>
</svg>
