<?xml version="1.0" encoding="utf-8"?>
<!-- Generator: Adobe Illustrator 19.2.1, SVG Export Plug-In . SVG Version: 6.00 Build 0)  -->
<svg version="1.1" xmlns="http://www.w3.org/2000/svg" xmlns:xlink="http://www.w3.org/1999/xlink" x="0px" y="0px" width="24px"
	 height="24px" viewBox="0 0 24 24" enable-background="new 0 0 24 24" xml:space="preserve">
<g id="Filled_Icons">
	<g>
		<rect x="11.898" y="17.69" transform="matrix(1 -0.001 0.001 1 -0.02 0.0139)" width="2.77" height="2.769"/>
		<rect x="11.896" y="14.152" transform="matrix(1 -0.001 0.001 1 -0.0163 0.0139)" width="2.77" height="2.769"/>
		<rect x="11.895" y="10.614" transform="matrix(1 -0.001 0.001 1 -0.0126 0.0139)" width="2.769" height="2.769"/>
		<rect x="15.432" y="10.611" width="2.769" height="2.77"/>
		<rect x="15.43" y="7.073" width="2.769" height="2.77"/>
		<rect x="18.971" y="10.609" transform="matrix(1 -0.0011 0.0011 1 -0.013 0.0221)" width="2.769" height="2.769"/>
		<rect x="11.891" y="7.076" width="2.769" height="2.769"/>
		<rect x="11.889" y="3.538" width="2.77" height="2.769"/>
		<rect x="11.902" y="21.228" transform="matrix(1 -0.0011 0.0011 1 -0.0245 0.0144)" width="2.769" height="2.769"/>
		<rect x="8.361" y="17.693" transform="matrix(1 -0.001 0.001 1 -0.02 0.0102)" width="2.769" height="2.769"/>
		<rect x="8.359" y="14.155" transform="matrix(1 -0.0011 0.0011 1 -0.0168 0.0106)" width="2.769" height="2.769"/>
		<rect x="8.356" y="10.617" transform="matrix(1 -0.0011 0.0011 1 -0.013 0.0106)" width="2.769" height="2.769"/>
		<rect x="8.354" y="7.079" width="2.769" height="2.769"/>
		<rect x="4.818" y="10.619" width="2.77" height="2.769"/>
		<rect x="1.28" y="10.621" width="2.769" height="2.77"/>
		<rect x="4.815" y="7.081" width="2.769" height="2.769"/>
		<rect x="8.352" y="3.541" width="2.769" height="2.769"/>
		<rect x="10.118" y="0.001" width="2.769" height="2.769"/>
		<rect x="8.363" y="21.23" width="2.77" height="2.77"/>
	</g>
</g>
<g id="Frames-24px">
	<rect fill="none" width="24" height="24"/>
</g>
</svg>
