<?xml version="1.0" encoding="utf-8"?>
<!-- Generator: Adobe Illustrator 19.2.1, SVG Export Plug-In . SVG Version: 6.00 Build 0)  -->
<svg version="1.1" xmlns="http://www.w3.org/2000/svg" xmlns:xlink="http://www.w3.org/1999/xlink" x="0px" y="0px" width="24px"
	 height="24px" viewBox="0 0 24 24" enable-background="new 0 0 24 24" xml:space="preserve">
<g id="Filled_Icons">
	<path d="M12,0.004c-6.617,0-12,5.383-12,12s5.383,12,12,12s12-5.383,12-12S18.617,0.004,12,0.004z M19.52,16
		c-0.006-0.001-0.013-0.001-0.02,0h-4c-0.154,0-0.3-0.071-0.394-0.193L12,11.814l-3.106,3.992C8.8,15.929,8.654,16,8.5,16h-4
		c-0.194,0-0.371-0.112-0.453-0.288c-0.083-0.176-0.056-0.383,0.068-0.532l7.5-9c0.191-0.228,0.578-0.228,0.769,0l7.429,8.915
		c0.125,0.091,0.207,0.239,0.207,0.405C20.02,15.776,19.796,16,19.52,16z"/>
</g>
<g id="Frames-24px">
	<rect fill="none" width="24" height="24"/>
</g>
</svg>
