<?xml version="1.0" encoding="utf-8"?>
<!-- Generator: Adobe Illustrator 19.2.1, SVG Export Plug-In . SVG Version: 6.00 Build 0)  -->
<svg version="1.1" xmlns="http://www.w3.org/2000/svg" xmlns:xlink="http://www.w3.org/1999/xlink" x="0px" y="0px" width="24px"
	 height="24px" viewBox="0 0 24 24" enable-background="new 0 0 24 24" xml:space="preserve">
<g id="Filled_Icons">
	<path d="M23.5-0.001H0.512c-0.276,0-0.5,0.225-0.5,0.5L0,23.479c0,0.275,0.224,0.52,0.499,0.52h22.989l0,0
		c0.133,0,0.26-0.053,0.354-0.146c0.094-0.094,0.146-0.221,0.146-0.354l0.012-23C24,0.224,23.777-0.001,23.5-0.001z M11.254,3.245
		h1.998v1.998h-1.998V3.245z M5.762,14.231H3.764v-1.998h1.998V14.231z M8.758,14.231H6.76v-1.998h1.998V14.231z M8.758,11.235H6.76
		V9.237h1.998V11.235z M11.754,20.224H9.756v-1.998h1.998V20.224z M11.754,17.228H9.756v-1.998h1.998V17.228z M11.754,14.231H9.756
		v-1.998h1.998V14.231z M11.754,11.235H9.756V9.237h1.998V11.235z M11.754,8.239H9.756V6.241h1.998V8.239z M14.75,20.224h-1.998
		v-1.998h1.998V20.224z M14.75,17.228h-1.998v-1.998h1.998V17.228z M14.75,14.231h-1.998v-1.998h1.998V14.231z M14.75,11.235h-1.998
		V9.237h1.998V11.235z M14.75,8.239h-1.998V6.241h1.998V8.239z M17.746,14.231h-1.998v-1.998h1.998V14.231z M17.746,11.235h-1.998
		V9.237h1.998V11.235z M20.742,14.231h-1.997v-1.998h1.997V14.231z"/>
</g>
<g id="Frames-24px">
	<rect fill="none" width="24" height="24"/>
</g>
</svg>
