<?xml version="1.0" encoding="utf-8"?>
<!-- Generator: Adobe Illustrator 19.2.1, SVG Export Plug-In . SVG Version: 6.00 Build 0)  -->
<svg version="1.1" xmlns="http://www.w3.org/2000/svg" xmlns:xlink="http://www.w3.org/1999/xlink" x="0px" y="0px" width="24px"
	 height="24px" viewBox="0 0 24 24" enable-background="new 0 0 24 24" xml:space="preserve">
<g id="Filled_Icons">
	<path d="M22.355,11.632L10.995,0.15c-0.094-0.095-0.222-0.148-0.355-0.148H2.068c-0.202,0-0.384,0.122-0.462,0.308
		C1.529,0.497,1.571,0.712,1.714,0.855l11.108,11.129L1.721,23.147c-0.143,0.144-0.185,0.358-0.107,0.545
		C1.691,23.879,1.873,24,2.076,24h8.571c0.134,0,0.262-0.054,0.356-0.149l11.353-11.517C22.548,12.14,22.548,11.826,22.355,11.632z"
		/>
</g>
<g id="Frames-24px">
	<rect fill="none" width="24" height="24"/>
</g>
</svg>
