<?xml version="1.0" encoding="utf-8"?>
<!-- Generator: Adobe Illustrator 19.2.1, SVG Export Plug-In . SVG Version: 6.00 Build 0)  -->
<svg version="1.1" xmlns="http://www.w3.org/2000/svg" xmlns:xlink="http://www.w3.org/1999/xlink" x="0px" y="0px" width="24px"
	 height="24px" viewBox="0 0 24 24" enable-background="new 0 0 24 24" xml:space="preserve">
<g id="Filled_Icons">
	<path d="M22.009,2.841c-0.553,0-1,0.447-1,1v13.724L6.931,3.487c-0.391-0.391-1.023-0.391-1.414,0
		c-0.391,0.391-0.391,1.023,0,1.414L19.615,19H5.87c-0.553,0-1,0.447-1,1c0,0.552,0.447,1,1,1h16.139c0.487,0,0.893-0.35,0.98-0.812
		c0.018-0.081,0.023-0.162,0.02-0.244V3.841C23.009,3.288,22.562,2.841,22.009,2.841z"/>
</g>
<g id="Frames-24px">
	<rect fill="none" width="24" height="24"/>
</g>
</svg>
