<?xml version="1.0" encoding="utf-8"?>
<!-- Generator: Adobe Illustrator 19.2.1, SVG Export Plug-In . SVG Version: 6.00 Build 0)  -->
<svg version="1.1" xmlns="http://www.w3.org/2000/svg" xmlns:xlink="http://www.w3.org/1999/xlink" x="0px" y="0px" width="24px"
	 height="24px" viewBox="0 0 24 24" enable-background="new 0 0 24 24" xml:space="preserve">
<g id="Filled_Icons">
	<path d="M23.988,11.795c-0.002-0.011-0.008-0.021-0.01-0.033c-0.014-0.055-0.029-0.107-0.052-0.158
		c-0.008-0.02-0.019-0.036-0.029-0.055c-0.02-0.04-0.042-0.081-0.067-0.119c-0.016-0.021-0.034-0.04-0.051-0.061
		c-0.025-0.031-0.051-0.062-0.079-0.09c-0.006-0.005-0.01-0.012-0.015-0.017l-12-11c-0.407-0.373-1.04-0.345-1.413,0.062
		c-0.373,0.407-0.346,1.04,0.061,1.413L20.438,11H1.01c-0.553,0-1,0.448-1,1c0,0.553,0.447,1,1,1h19.429l-10.104,9.263
		c-0.407,0.374-0.435,1.006-0.061,1.413C10.47,23.892,10.739,24,11.01,24c0.242,0,0.483-0.087,0.676-0.263l12-11
		c0.005-0.005,0.009-0.011,0.015-0.017c0.029-0.027,0.054-0.059,0.08-0.09c0.017-0.021,0.034-0.039,0.05-0.061
		c0.025-0.038,0.047-0.078,0.067-0.119c0.01-0.019,0.022-0.035,0.029-0.054c0.023-0.051,0.038-0.106,0.052-0.16
		c0.002-0.011,0.008-0.021,0.01-0.032C24.002,12.139,24.01,12.07,24.01,12S24.002,11.861,23.988,11.795z"/>
</g>
<g id="Frames-24px">
	<rect fill="none" width="24" height="24"/>
</g>
</svg>
