<?xml version="1.0" encoding="utf-8"?>
<!-- Generator: Adobe Illustrator 19.2.1, SVG Export Plug-In . SVG Version: 6.00 Build 0)  -->
<svg version="1.1" xmlns="http://www.w3.org/2000/svg" xmlns:xlink="http://www.w3.org/1999/xlink" x="0px" y="0px" width="24px"
	 height="24px" viewBox="0 0 24 24" enable-background="new 0 0 24 24" xml:space="preserve">
<g id="Filled_Icons">
	<path d="M24.007,5.531c0.001-0.134-0.052-0.262-0.146-0.357L18.83,0.143c-0.095-0.095-0.237-0.154-0.356-0.146
		c-0.134,0.001-0.261,0.055-0.354,0.15L7.007,11.496V4.503c0-0.275-0.224-0.5-0.5-0.5L0.507,4c-0.276,0-0.5,0.225-0.5,0.5v18.997
		c0,0.276,0.224,0.5,0.5,0.5H19.5c0.276,0,0.5-0.224,0.5-0.5V17.5c0-0.277-0.224-0.5-0.5-0.5h-6.983L23.856,5.885
		C23.952,5.793,24.006,5.665,24.007,5.531z"/>
</g>
<g id="Frames-24px">
	<rect fill="none" width="24" height="24"/>
</g>
</svg>
