<?xml version="1.0" encoding="utf-8"?>
<!-- Generator: Adobe Illustrator 19.2.1, SVG Export Plug-In . SVG Version: 6.00 Build 0)  -->
<svg version="1.1" xmlns="http://www.w3.org/2000/svg" xmlns:xlink="http://www.w3.org/1999/xlink" x="0px" y="0px" width="24px"
	 height="24px" viewBox="0 0 24 24" enable-background="new 0 0 24 24" xml:space="preserve">
<g id="Filled_Icons">
	<path d="M23.515,3h-15.5C7.872,3,7.735,3.062,7.64,3.17l-7.5,8.5c-0.166,0.189-0.166,0.472,0,0.661l7.5,8.5
		C7.735,20.938,7.872,21,8.015,21h15.5c0.276,0,0.5-0.224,0.5-0.5v-17C24.015,3.224,23.791,3,23.515,3z M19.368,15.646
		c0.195,0.195,0.195,0.512,0,0.707c-0.098,0.098-0.225,0.146-0.354,0.146c-0.127,0-0.256-0.049-0.354-0.146l-3.646-3.647
		l-3.646,3.647c-0.098,0.098-0.225,0.146-0.354,0.146c-0.127,0-0.256-0.049-0.354-0.146c-0.195-0.195-0.195-0.512,0-0.707L14.308,12
		l-3.647-3.646c-0.195-0.195-0.195-0.512,0-0.707c0.195-0.195,0.512-0.195,0.707,0l3.646,3.647l3.646-3.647
		c0.195-0.195,0.512-0.195,0.707,0c0.195,0.195,0.195,0.512,0,0.707L15.722,12L19.368,15.646z"/>
</g>
<g id="Frames-24px">
	<rect fill="none" width="24" height="24"/>
</g>
</svg>
