<?xml version="1.0" encoding="utf-8"?>
<!-- Generator: Adobe Illustrator 19.2.1, SVG Export Plug-In . SVG Version: 6.00 Build 0)  -->
<svg version="1.1" xmlns="http://www.w3.org/2000/svg" xmlns:xlink="http://www.w3.org/1999/xlink" x="0px" y="0px" width="24px"
	 height="24px" viewBox="0 0 24 24" enable-background="new 0 0 24 24" xml:space="preserve">
<g id="Filled_Icons">
	<g>
		<path d="M23.856,11.649l-5.412-5.5C18.35,6.054,18.221,6,18.087,6h-5.411c-0.202,0-0.383,0.121-0.461,0.307
			c-0.078,0.186-0.037,0.4,0.105,0.544L17.386,12l-5.066,5.149c-0.141,0.144-0.183,0.358-0.105,0.544
			C12.293,17.879,12.475,18,12.676,18h5.411c0.134,0,0.262-0.054,0.356-0.149l5.412-5.5C24.047,12.156,24.047,11.844,23.856,11.649z
			"/>
		<path d="M14.385,11.649l-5.412-5.5C8.879,6.054,8.75,6,8.617,6H4.558C4.356,6,4.175,6.121,4.097,6.307
			c-0.078,0.186-0.037,0.4,0.105,0.544L9.269,12l-5.067,5.149c-0.141,0.144-0.183,0.358-0.105,0.544C4.175,17.879,4.356,18,4.558,18
			h4.059c0.134,0,0.262-0.054,0.356-0.149l5.412-5.5C14.577,12.156,14.577,11.844,14.385,11.649z"/>
		<path d="M6.268,11.649l-5.412-5.5c-0.195-0.198-0.511-0.2-0.707-0.006c-0.197,0.193-0.2,0.511-0.006,0.707l5.068,5.15
			l-5.069,5.182c-0.193,0.197-0.19,0.514,0.008,0.707c0.097,0.095,0.224,0.143,0.35,0.143c0.13,0,0.259-0.05,0.357-0.15l5.412-5.532
			C6.459,12.155,6.459,11.844,6.268,11.649z"/>
	</g>
</g>
<g id="Frames-24px">
	<rect fill="none" width="24" height="24"/>
</g>
</svg>
