<?xml version="1.0" encoding="utf-8"?>
<!-- Generator: Adobe Illustrator 19.2.1, SVG Export Plug-In . SVG Version: 6.00 Build 0)  -->
<svg version="1.1" xmlns="http://www.w3.org/2000/svg" xmlns:xlink="http://www.w3.org/1999/xlink" x="0px" y="0px" width="24px"
	 height="24px" viewBox="0 0 24 24" enable-background="new 0 0 24 24" xml:space="preserve">
<g id="Filled_Icons">
	<path d="M23.5,8.004H11V2.025c0-0.202-0.122-0.385-0.308-0.462c-0.187-0.077-0.401-0.034-0.545,0.107L0.138,11.646
		C0.044,11.739-0.009,11.867-0.009,12s0.053,0.26,0.147,0.354l10.009,10.004c0.096,0.096,0.224,0.146,0.354,0.146
		c0.064,0,0.129-0.013,0.191-0.038C10.878,22.389,11,22.206,11,22.004v-6h12.5c0.276,0,0.5-0.224,0.5-0.5v-7
		C24,8.227,23.776,8.004,23.5,8.004z"/>
</g>
<g id="Frames-24px">
	<rect fill="none" width="24" height="24"/>
</g>
</svg>
