<?xml version="1.0" encoding="utf-8"?>
<!-- Generator: Adobe Illustrator 19.2.1, SVG Export Plug-In . SVG Version: 6.00 Build 0)  -->
<svg version="1.1" xmlns="http://www.w3.org/2000/svg" xmlns:xlink="http://www.w3.org/1999/xlink" x="0px" y="0px" width="24px"
	 height="24px" viewBox="0 0 24 24" enable-background="new 0 0 24 24" xml:space="preserve">
<g id="Filled_Icons">
	<path d="M12,0.005c-6.617,0-12,5.383-12,11.999c0,6.617,5.383,12,12,12s12-5.383,12-12C24,5.388,18.617,0.005,12,0.005z
		 M19.84,12.357l-7.486,7.487c-0.094,0.094-0.221,0.146-0.354,0.146s-0.26-0.053-0.354-0.146L9.65,17.848
		c-0.195-0.195-0.195-0.512,0-0.707l3.139-3.139H4.5c-0.133,0-0.261-0.053-0.354-0.148C4.052,13.761,4,13.633,4,13.499l0.016-2.994
		c0.001-0.274,0.225-0.497,0.5-0.497h8.274L9.65,6.867c-0.195-0.195-0.195-0.512,0-0.707l1.996-1.996
		c0.188-0.188,0.52-0.188,0.707,0l7.486,7.486C20.035,11.846,20.035,12.162,19.84,12.357z"/>
</g>
<g id="Frames-24px">
	<rect fill="none" width="24" height="24"/>
</g>
</svg>
