<?xml version="1.0" encoding="utf-8"?>
<!-- Generator: Adobe Illustrator 19.2.1, SVG Export Plug-In . SVG Version: 6.00 Build 0)  -->
<svg version="1.1" xmlns="http://www.w3.org/2000/svg" xmlns:xlink="http://www.w3.org/1999/xlink" x="0px" y="0px" width="24px"
	 height="24px" viewBox="0 0 24 24" enable-background="new 0 0 24 24" xml:space="preserve">
<g id="Filled_Icons">
	<path d="M12,0C5.373,0,0,5.373,0,12s5.373,12,12,12s12-5.373,12-12S18.627,0,12,0z M17.995,8.838L12.83,14h2.674
		c0.827,0,1.5,0.673,1.5,1.5l-0.001,1.019c0,0.827-0.673,1.5-1.5,1.5H7.514c-0.827,0-1.5-0.673-1.5-1.5V8.5
		c0-0.827,0.673-1.5,1.5-1.5h1c0.827,0,1.5,0.673,1.5,1.5v2.706l5.176-5.175c0.564-0.564,1.557-0.564,2.121,0l0.685,0.686
		c0.282,0.282,0.438,0.659,0.438,1.06C18.433,8.179,18.277,8.556,17.995,8.838z"/>
</g>
<g id="Frames-24px">
	<rect fill="none" width="24" height="24"/>
</g>
</svg>
