<?xml version="1.0" encoding="utf-8"?>
<!-- Generator: Adobe Illustrator 19.2.0, SVG Export Plug-In . SVG Version: 6.00 Build 0)  -->
<svg version="1.1" xmlns="http://www.w3.org/2000/svg" xmlns:xlink="http://www.w3.org/1999/xlink" x="0px" y="0px" width="24px"
	 height="24px" viewBox="0 0 24 24" enable-background="new 0 0 24 24" xml:space="preserve">
<g id="Filled_Icons">
	<g>
		<path d="M5.87,9.153l2.632,2.646l2.67-2.647c0.196-0.196,0.513-0.193,0.707,0.001l2.637,2.645l2.63-2.644
			c0.188-0.188,0.489-0.196,0.687-0.022l3.512,3.12C20.657,8.398,17.751,5.306,14,4.335V2.506c0-0.276-0.224-0.5-0.5-0.5H12v-1.5
			c0-0.276-0.224-0.5-0.5-0.5S11,0.229,11,0.506v1.5H9.5c-0.276,0-0.5,0.224-0.5,0.5v1.829c-3.757,0.973-6.667,4.071-7.348,7.934
			l3.531-3.138C5.381,8.956,5.683,8.966,5.87,9.153z"/>
		<path d="M17.5,19.006c-0.129,0-0.257-0.05-0.354-0.147l-2.63-2.644l-2.637,2.645c-0.194,0.194-0.511,0.197-0.707,0.001
			l-2.67-2.647L5.87,18.858c-0.187,0.188-0.487,0.196-0.686,0.022l-3.52-3.112c0.837,4.675,4.924,8.237,9.835,8.237
			c4.906,0,8.989-3.555,9.832-8.222l-3.501,3.097C17.736,18.964,17.618,19.006,17.5,19.006z"/>
		<path d="M11.146,12.238l-1.414,1.414c-0.195,0.195-0.195,0.512,0,0.707l1.414,1.414c0.098,0.098,0.226,0.146,0.354,0.146
			s0.256-0.049,0.354-0.146l1.414-1.414c0.195-0.195,0.195-0.512,0-0.707l-1.414-1.414C11.658,12.043,11.342,12.043,11.146,12.238z"
			/>
		<path d="M17.146,12.238l-1.414,1.414c-0.195,0.195-0.195,0.512,0,0.707l1.414,1.414c0.098,0.098,0.226,0.146,0.354,0.146
			s0.256-0.049,0.354-0.146l1.414-1.414c0.195-0.195,0.195-0.512,0-0.707l-1.414-1.414C17.658,12.043,17.342,12.043,17.146,12.238z"
			/>
		<path d="M5.147,12.238l-1.414,1.414c-0.195,0.195-0.195,0.512,0,0.707l1.414,1.414C5.244,15.871,5.372,15.92,5.5,15.92
			s0.256-0.049,0.353-0.146l1.414-1.414c0.195-0.195,0.195-0.512,0-0.707l-1.414-1.414C5.658,12.043,5.342,12.043,5.147,12.238z"/>
	</g>
</g>
<g id="invisible_shape">
	<rect fill="none" width="24" height="24"/>
</g>
</svg>
