<?xml version="1.0" encoding="utf-8"?>
<!-- Generator: Adobe Illustrator 19.2.0, SVG Export Plug-In . SVG Version: 6.00 Build 0)  -->
<svg version="1.1" xmlns="http://www.w3.org/2000/svg" xmlns:xlink="http://www.w3.org/1999/xlink" x="0px" y="0px" width="24px"
	 height="24px" viewBox="0 0 24 24" enable-background="new 0 0 24 24" xml:space="preserve">
<g id="Filled_Icons">
	<g>
		<path d="M4.584,12.229c-0.103,0.153-0.112,0.351-0.024,0.514c0.087,0.162,0.256,0.264,0.44,0.264h2l-0.638,0.85l10.287-2.778
			l-2.177-3.266l-8.53,2.378L4.584,12.229z M13,10.006c0.275,0,0.5,0.225,0.5,0.5c0,0.277-0.225,0.5-0.5,0.5
			c-0.276,0-0.5-0.223-0.5-0.5C12.5,10.231,12.724,10.006,13,10.006z M11,11.006c0.275,0,0.5,0.225,0.5,0.5
			c0,0.277-0.225,0.5-0.5,0.5c-0.276,0-0.5-0.223-0.5-0.5C10.5,11.231,10.724,11.006,11,11.006z M9,10.006
			c0.275,0,0.5,0.225,0.5,0.5c0,0.277-0.225,0.5-0.5,0.5c-0.276,0-0.5-0.223-0.5-0.5C8.5,10.231,8.724,10.006,9,10.006z"/>
		<path d="M7,7.006h1.065l-1.273,1.91l8.706-2.427c-0.003-0.091-4.082-6.261-4.082-6.261c-0.186-0.277-0.647-0.277-0.832,0l-4,6
			C6.481,6.382,6.472,6.579,6.56,6.742C6.647,6.904,6.815,7.006,7,7.006z M11,4.006c0.275,0,0.5,0.225,0.5,0.5
			c0,0.277-0.225,0.5-0.5,0.5c-0.276,0-0.5-0.223-0.5-0.5C10.5,4.231,10.724,4.006,11,4.006z M11,6.006c0.275,0,0.5,0.225,0.5,0.5
			c0,0.277-0.225,0.5-0.5,0.5c-0.276,0-0.5-0.223-0.5-0.5C10.5,6.231,10.724,6.006,11,6.006z"/>
		<path d="M15,13.006h2c0.185,0,0.354-0.102,0.44-0.264c0.088-0.163,0.078-0.36-0.024-0.514l-0.182-0.273l-11.847,3.2L3.1,18.206
			c-0.113,0.151-0.132,0.354-0.047,0.523C3.138,18.898,3.31,19.006,3.5,19H10v4.006c0,0.553,0.447,1,1,1s1-0.447,1-1V19h6.5
			c0.19,0.006,0.362-0.102,0.447-0.271c0.085-0.169,0.066-0.372-0.047-0.523L15,13.006z M7,17.006c-0.276,0-0.5-0.223-0.5-0.5
			c0-0.275,0.224-0.5,0.5-0.5c0.275,0,0.5,0.225,0.5,0.5C7.5,16.783,7.275,17.006,7,17.006z M10,17.006c-0.276,0-0.5-0.223-0.5-0.5
			c0-0.275,0.224-0.5,0.5-0.5c0.275,0,0.5,0.225,0.5,0.5C10.5,16.783,10.275,17.006,10,17.006z M13,15.006
			c-0.276,0-0.5-0.223-0.5-0.5c0-0.275,0.224-0.5,0.5-0.5c0.275,0,0.5,0.225,0.5,0.5C13.5,14.783,13.275,15.006,13,15.006z
			 M14,17.006c-0.276,0-0.5-0.223-0.5-0.5c0-0.275,0.224-0.5,0.5-0.5c0.275,0,0.5,0.225,0.5,0.5
			C14.5,16.783,14.275,17.006,14,17.006z"/>
	</g>
</g>
<g id="invisible_shape">
	<rect fill="none" width="24" height="24"/>
</g>
</svg>
