<?xml version="1.0" encoding="utf-8"?>
<!-- Generator: Adobe Illustrator 19.2.0, SVG Export Plug-In . SVG Version: 6.00 Build 0)  -->
<svg version="1.1" xmlns="http://www.w3.org/2000/svg" xmlns:xlink="http://www.w3.org/1999/xlink" x="0px" y="0px" width="24px"
	 height="24px" viewBox="0 0 24 24" enable-background="new 0 0 24 24" xml:space="preserve">
<g id="Filled_Icons">
	<g>
		<g>
			<polygon points="7,18.1 16,15.316 16,13.113 7,15.896 			"/>
			<polygon points="16,16.363 7,19.146 7,21.35 16,18.566 			"/>
			<path d="M7,22.396V23.5C7,23.776,7.224,24,7.5,24h8c0.276,0,0.5-0.224,0.5-0.5v-3.887L7,22.396z"/>
			<path d="M16,12.066V9.5c0-0.159-0.075-0.309-0.204-0.403c-0.128-0.093-0.293-0.12-0.445-0.074l-8,2.5C7.143,11.588,7,11.781,7,12
				v2.85L16,12.066z"/>
		</g>
		<path d="M10.41,0.5c1.319,0.97,1.245,2.852,0.727,3.637c-0.356-0.292-0.673-0.61-0.727-1.091c-1.214,0.48-1.818,1.431-1.818,2.545
			C8.591,7.197,9.894,8.5,11.5,8.5c1.605,0,2.909-1.303,2.909-2.909C14.41,3.243,12.719,1.031,10.41,0.5z"/>
	</g>
</g>
<g id="invisible_shape">
	<rect fill="none" width="24" height="24"/>
</g>
</svg>
