<?xml version="1.0" encoding="utf-8"?>
<!-- Generator: Adobe Illustrator 19.2.0, SVG Export Plug-In . SVG Version: 6.00 Build 0)  -->
<svg version="1.1" xmlns="http://www.w3.org/2000/svg" xmlns:xlink="http://www.w3.org/1999/xlink" x="0px" y="0px" width="24px"
	 height="24px" viewBox="0 0 24 24" enable-background="new 0 0 24 24" xml:space="preserve">
<g id="Filled_Icons">
	<g>
		<path d="M15.163,0.337C15.009,0.183,14.729,0,14.266,0C13.653,0,12.858,0.323,12,0.916C11.143,0.323,10.347,0,9.734,0
			C9.271,0,8.991,0.183,8.836,0.337C8.232,0.941,8.451,2.109,9.416,3.5c-0.965,1.391-1.185,2.559-0.58,3.163
			C8.991,6.817,9.271,7,9.734,7C10.347,7,11.143,6.677,12,6.084C12.857,6.677,13.653,7,14.266,7c0,0,0,0,0.001,0
			c0.462,0,0.742-0.183,0.896-0.337c0.606-0.603,0.386-1.772-0.579-3.163C15.549,2.109,15.769,0.94,15.163,0.337z"/>
		<g>
			<path d="M14.178,7.991C13.428,7.968,12.662,7.654,12,7.268c-0.629,0.367-1.354,0.662-2.067,0.712l-1.601,4.161l6.544-2.448
				L14.178,7.991z"/>
			<path d="M17.035,14.953L5.606,19.231L4.034,23.32C3.981,23.459,4,23.609,4.072,23.738l14.36-5.377L17.035,14.953z"/>
			<polygon points="15.256,10.619 7.853,13.39 6.086,17.982 16.654,14.026 			"/>
			<path d="M18.812,19.286L6.222,24H20c0.167,0,0.322-0.083,0.415-0.222c0.093-0.139,0.11-0.313,0.048-0.468L18.812,19.286z"/>
		</g>
	</g>
</g>
<g id="invisible_shape">
	<rect fill="none" width="24" height="24"/>
</g>
</svg>
