<?xml version="1.0" encoding="utf-8"?>
<!-- Generator: Adobe Illustrator 19.2.0, SVG Export Plug-In . SVG Version: 6.00 Build 0)  -->
<svg version="1.1" xmlns="http://www.w3.org/2000/svg" xmlns:xlink="http://www.w3.org/1999/xlink" x="0px" y="0px" width="24px"
	 height="24px" viewBox="0 0 24 24" enable-background="new 0 0 24 24" xml:space="preserve">
<g id="Filled_Icons">
	<path d="M23,18.006c-0.553,0-1,0.447-1,1c0,1.654-1.346,3-3,3h-0.844L17.101,18h3.677c1.077,0.006,2.03-0.681,2.372-1.703l0.667-2
		c0.253-0.76,0.124-1.602-0.345-2.252c-0.471-0.65-1.229-1.039-2.027-1.039h-9.061c-1.509,0-2.843-0.962-3.32-2.393L8.431,6.715
		C8.089,5.692,7.136,5.006,6.059,5.006H0.5c-0.164,0-0.318,0.081-0.411,0.216C-0.005,5.357-0.025,5.53,0.032,5.684l4.562,12
		c0.074,0.194,0.26,0.322,0.468,0.322h1.843l-1.037,4H1c-0.553,0-1,0.447-1,1C0,23.559,1,24,1,24h16.51H19c2.757,0,5-2.237,5-4.994
		C24,18.453,23.553,18.006,23,18.006z M6.049,9.561L5.531,8.006H3.232c-0.276,0-0.5-0.224-0.5-0.5c0-0.276,0.224-0.5,0.5-0.506
		h2.659c0.215,0.006,0.406,0.144,0.475,0.348l0.632,1.896c0.75,2.25,2.847,3.762,5.218,3.756h9.061c0.276,0.006,0.5,0.229,0.5,0.506
		c0,0.276-0.224,0.5-0.5,0.5h-9.061C9.414,14.006,6.936,12.22,6.049,9.561z M7.933,22.006L8.97,18h6.063l1.056,4.006H7.933z"/>
</g>
<g id="invisible_shape">
	<rect fill="none" width="24" height="24"/>
</g>
</svg>
