<?xml version="1.0" encoding="utf-8"?>
<!-- Generator: Adobe Illustrator 19.2.0, SVG Export Plug-In . SVG Version: 6.00 Build 0)  -->
<svg version="1.1" xmlns="http://www.w3.org/2000/svg" xmlns:xlink="http://www.w3.org/1999/xlink" x="0px" y="0px" width="24px"
	 height="24px" viewBox="0 0 24 24" enable-background="new 0 0 24 24" xml:space="preserve">
<g id="Filled_Icons">
	<path d="M22.675,13.977c-0.143-0.237-0.448-0.31-0.687-0.171l-1.992,1.197l-1.319-0.702l1.479-0.888
		c0.237-0.142,0.314-0.449,0.172-0.686c-0.142-0.236-0.451-0.313-0.686-0.172l-1.994,1.196L17,13.406v-3.6l0.647-0.346l1.994,1.196
		c0.08,0.049,0.169,0.071,0.257,0.071c0.169,0,0.335-0.087,0.429-0.243c0.143-0.236,0.065-0.544-0.172-0.686l-1.479-0.888
		l1.317-0.701l1.995,1.196c0.08,0.049,0.169,0.071,0.257,0.071c0.169,0,0.335-0.087,0.429-0.243
		c0.143-0.236,0.065-0.544-0.172-0.686l-1.479-0.888l1.202-0.641c0.243-0.13,0.336-0.433,0.206-0.677
		c-0.131-0.245-0.434-0.337-0.677-0.206L20.56,6.775l0.101-1.711c0.017-0.275-0.194-0.513-0.47-0.528
		c-0.28-0.033-0.513,0.194-0.528,0.47l-0.136,2.32l-1.314,0.7l0.101-1.71c0.017-0.275-0.194-0.513-0.47-0.528
		c-0.271-0.027-0.512,0.194-0.528,0.47L17.18,8.577l-0.628,0.334L13,6.537V5.78l1.982-1.207c0.236-0.144,0.311-0.451,0.167-0.687
		c-0.143-0.238-0.453-0.311-0.686-0.167L13,4.609V3.12l1.982-1.207c0.236-0.144,0.311-0.451,0.167-0.686
		c-0.143-0.237-0.453-0.312-0.686-0.167L13,1.949V0.6c0-0.276-0.224-0.5-0.5-0.5S12,0.323,12,0.6v1.363l-1.479-0.892
		c-0.233-0.139-0.542-0.066-0.687,0.171c-0.142,0.236-0.065,0.544,0.171,0.686L12,3.131v1.492l-1.479-0.892
		c-0.233-0.14-0.542-0.066-0.687,0.171c-0.142,0.236-0.065,0.544,0.171,0.687L12,5.791v0.746L8.448,8.911L7.82,8.576L7.684,6.258
		c-0.017-0.275-0.257-0.497-0.528-0.47C6.88,5.805,6.669,6.041,6.686,6.316l0.101,1.709L5.473,7.326l-0.136-2.32
		c-0.017-0.275-0.26-0.503-0.528-0.47c-0.275,0.016-0.486,0.253-0.47,0.528l0.101,1.711L3.245,6.139
		C3.004,6.01,2.699,6.101,2.568,6.345c-0.13,0.244-0.037,0.547,0.206,0.677l1.202,0.641L2.497,8.55
		C2.26,8.691,2.183,8.999,2.325,9.235c0.094,0.156,0.26,0.243,0.429,0.243c0.088,0,0.177-0.022,0.257-0.071l1.995-1.196l1.316,0.701
		L4.844,9.8c-0.237,0.142-0.314,0.449-0.172,0.686c0.094,0.156,0.26,0.243,0.429,0.243c0.088,0,0.177-0.022,0.257-0.071l1.995-1.196
		L8,9.807v3.6l-0.648,0.346l-1.995-1.196c-0.233-0.142-0.542-0.064-0.686,0.172c-0.143,0.236-0.065,0.544,0.172,0.686l1.479,0.888
		l-1.318,0.702l-1.992-1.197c-0.236-0.139-0.544-0.066-0.686,0.171c-0.143,0.237-0.065,0.544,0.171,0.687l1.48,0.889l-1.201,0.64
		c-0.243,0.13-0.336,0.433-0.206,0.677c0.09,0.169,0.263,0.265,0.441,0.265c0.08,0,0.16-0.018,0.235-0.059l1.194-0.637l-0.101,1.711
		c-0.017,0.275,0.194,0.513,0.47,0.528c0.01,0.001,0.02,0.001,0.029,0.001c0.264,0,0.483-0.205,0.499-0.471l0.136-2.32l1.314-0.699
		l-0.102,1.711c-0.017,0.275,0.194,0.512,0.47,0.528c0.01,0.001,0.019,0.001,0.029,0.001c0.263,0,0.483-0.205,0.499-0.471
		l0.137-2.32l0.626-0.334L12,16.676v0.734l-1.995,1.202c-0.236,0.143-0.313,0.45-0.171,0.686c0.145,0.238,0.453,0.312,0.687,0.171
		L12,18.578v1.49l-1.995,1.202c-0.236,0.143-0.313,0.45-0.171,0.687c0.145,0.238,0.453,0.312,0.687,0.171L12,21.236V22.6
		c0,0.276,0.224,0.5,0.5,0.5s0.5-0.224,0.5-0.5v-1.35l1.463,0.89c0.081,0.05,0.171,0.073,0.26,0.073c0.168,0,0.333-0.085,0.427-0.24
		c0.144-0.235,0.069-0.543-0.167-0.687L13,20.079v-1.487l1.463,0.89c0.081,0.05,0.171,0.073,0.26,0.073
		c0.168,0,0.333-0.085,0.427-0.24c0.144-0.235,0.069-0.543-0.167-0.687L13,17.421v-0.745l3.554-2.373l0.626,0.333l0.136,2.321
		c0.016,0.266,0.235,0.471,0.499,0.471c0.01,0,0.019,0,0.029-0.001c0.275-0.016,0.486-0.253,0.47-0.528l-0.101-1.712l1.314,0.7
		l0.136,2.32c0.016,0.266,0.235,0.471,0.499,0.471c0.01,0,0.02,0,0.029-0.001c0.275-0.016,0.486-0.253,0.47-0.528l-0.101-1.711
		l1.194,0.637c0.075,0.04,0.155,0.059,0.235,0.059c0.179,0,0.352-0.096,0.441-0.265c0.13-0.244,0.037-0.547-0.206-0.677l-1.201-0.64
		l1.479-0.889C22.74,14.521,22.817,14.214,22.675,13.977z"/>
</g>
<g id="invisible_shape">
	<rect fill="none" width="24" height="24"/>
</g>
</svg>
