<?xml version="1.0" encoding="utf-8"?>
<!-- Generator: Adobe Illustrator 19.2.0, SVG Export Plug-In . SVG Version: 6.00 Build 0)  -->
<svg version="1.1" xmlns="http://www.w3.org/2000/svg" xmlns:xlink="http://www.w3.org/1999/xlink" x="0px" y="0px" width="24px"
	 height="24px" viewBox="0 0 24 24" enable-background="new 0 0 24 24" xml:space="preserve">
<g id="Filled_Icons">
	<g>
		<path d="M23,13h-2.262l0.913-2.283c0.103-0.256-0.021-0.547-0.278-0.649c-0.255-0.104-0.547,0.022-0.649,0.278l-1.116,2.792
			l-2.042,1.021c-0.583-0.968-1.412-1.769-2.396-2.324C14.304,12.552,13.209,13,12,13s-2.304-0.448-3.169-1.165
			c-0.984,0.556-1.813,1.356-2.396,2.323l-2.043-1.021l-1.116-2.792c-0.103-0.257-0.394-0.382-0.649-0.278
			c-0.257,0.102-0.381,0.394-0.278,0.649L3.262,13H1c-0.276,0-0.5,0.224-0.5,0.5S0.724,14,1,14h2.882l2.102,1.051
			C5.674,15.808,5.5,16.633,5.5,17.5c0,3.584,2.916,6.5,6.5,6.5s6.5-2.916,6.5-6.5c0-0.866-0.174-1.692-0.482-2.449L20.118,14H23
			c0.276,0,0.5-0.224,0.5-0.5S23.276,13,23,13z"/>
		<g>
			<path d="M15,3V0.5C15,0.224,14.776,0,14.5,0h-5C9.224,0,9,0.224,9,0.5V3H15z"/>
			<path d="M18,4H6C5.724,4,5.5,4.224,5.5,4.5S5.724,5,6,5h3.382C8.542,5.733,8,6.8,8,8c0,2.206,1.794,4,4,4s4-1.794,4-4
				c0-1.2-0.542-2.267-1.382-3H18c0.276,0,0.5-0.224,0.5-0.5S18.276,4,18,4z M11,8c-0.276,0-0.5-0.223-0.5-0.5
				C10.5,7.225,10.724,7,11,7c0.275,0,0.5,0.225,0.5,0.5C11.5,7.777,11.275,8,11,8z M13,8c-0.276,0-0.5-0.223-0.5-0.5
				C12.5,7.225,12.724,7,13,7c0.275,0,0.5,0.225,0.5,0.5C13.5,7.777,13.275,8,13,8z"/>
		</g>
	</g>
</g>
<g id="invisible_shape">
	<rect fill="none" width="24" height="24"/>
</g>
</svg>
