<?xml version="1.0" encoding="utf-8"?>
<!-- Generator: Adobe Illustrator 16.0.3, SVG Export Plug-In . SVG Version: 6.00 Build 0)  -->
<!DOCTYPE svg PUBLIC "-//W3C//DTD SVG 1.1//EN" "http://www.w3.org/Graphics/SVG/1.1/DTD/svg11.dtd">
<svg version="1.1" xmlns="http://www.w3.org/2000/svg" xmlns:xlink="http://www.w3.org/1999/xlink" x="0px" y="0px" width="24px"
	 height="24px" viewBox="0 0 24 24" enable-background="new 0 0 24 24" xml:space="preserve">
<g id="Outline_Icons_1_">
	<g id="Outline_Icons">
		<g>
			
				<rect x="3.5" y="0.5" fill="none" stroke="#000000" stroke-linecap="round" stroke-linejoin="round" stroke-miterlimit="10" width="20" height="20"/>
			<polyline fill="none" stroke="#000000" stroke-linecap="round" stroke-linejoin="round" stroke-miterlimit="10" points="3.5,4.5 
				0.5,4.5 0.5,23.5 19.5,23.5 19.5,20.5 			"/>
			
				<line fill="none" stroke="#000000" stroke-linecap="round" stroke-linejoin="round" stroke-miterlimit="10" x1="10.5" y1="17.5" x2="10.5" y2="3.5"/>
			
				<line fill="none" stroke="#000000" stroke-linecap="round" stroke-linejoin="round" stroke-miterlimit="10" x1="16.5" y1="3.5" x2="16.5" y2="17.5"/>
			<g>
				<g>
					<polygon points="19,8 18,8 18,9 19,9 19,8 					"/>
				</g>
			</g>
			<g>
				<g>
					<polygon points="19,10 18,10 18,11 19,11 19,10 					"/>
				</g>
			</g>
			<g>
				<g>
					<polygon points="19,12 18,12 18,13 19,13 19,12 					"/>
				</g>
			</g>
			<g>
				<g>
					<polygon points="9,8 8,8 8,9 9,9 9,8 					"/>
				</g>
			</g>
			<g>
				<g>
					<polygon points="19,6 18,6 18,7 19,7 19,6 					"/>
				</g>
			</g>
			<g>
				<g>
					<polygon points="19,4 18,4 18,5 19,5 19,4 					"/>
				</g>
			</g>
			<g>
				<g>
					<polygon points="9,6 8,6 8,7 9,7 9,6 					"/>
				</g>
			</g>
			<g>
				<g>
					<polygon points="9,4 8,4 8,5 9,5 9,4 					"/>
				</g>
			</g>
			<g>
				<g>
					<polygon points="9,10 8,10 8,11 9,11 9,10 					"/>
				</g>
			</g>
			<g>
				<g>
					<polygon points="9,12 8,12 8,13 9,13 9,12 					"/>
				</g>
			</g>
			<g>
				<g>
					<polygon points="9,14 8,14 8,15 9,15 9,14 					"/>
				</g>
			</g>
			<g>
				<g>
					<polygon points="9,16 8,16 8,17 9,17 9,16 					"/>
				</g>
			</g>
			<g>
				<g>
					<polygon points="19,14 18,14 18,15 19,15 19,14 					"/>
				</g>
			</g>
			<g>
				<g>
					<polygon points="19,16 18,16 18,17 19,17 19,16 					"/>
				</g>
			</g>
			
				<line fill="none" stroke="#000000" stroke-linecap="round" stroke-linejoin="round" stroke-miterlimit="10" x1="6.5" y1="17.5" x2="6.5" y2="3.5"/>
			
				<line fill="none" stroke="#000000" stroke-linecap="round" stroke-linejoin="round" stroke-miterlimit="10" x1="20.5" y1="3.5" x2="20.5" y2="17.5"/>
			
				<line fill="none" stroke="#000000" stroke-linecap="square" stroke-linejoin="round" stroke-miterlimit="10" x1="10.5" y1="8.5" x2="16.5" y2="8.5"/>
			
				<line fill="none" stroke="#000000" stroke-linecap="square" stroke-linejoin="round" stroke-miterlimit="10" x1="10.5" y1="12.5" x2="16.5" y2="12.5"/>
			
				<line fill="none" stroke="#000000" stroke-linecap="square" stroke-linejoin="round" stroke-miterlimit="10" x1="10.5" y1="4.5" x2="16.5" y2="4.5"/>
			
				<line fill="none" stroke="#000000" stroke-linecap="square" stroke-linejoin="round" stroke-miterlimit="10" x1="10.5" y1="16.5" x2="16.5" y2="16.5"/>
		</g>
	</g>
	<g id="New_icons_1_">
	</g>
</g>
<g id="Invisible_Shape">
	<rect fill="none" width="24" height="24"/>
</g>
</svg>
