<?xml version="1.0" encoding="utf-8"?>
<!-- Generator: Adobe Illustrator 16.0.3, SVG Export Plug-In . SVG Version: 6.00 Build 0)  -->
<!DOCTYPE svg PUBLIC "-//W3C//DTD SVG 1.1//EN" "http://www.w3.org/Graphics/SVG/1.1/DTD/svg11.dtd">
<svg version="1.1" xmlns="http://www.w3.org/2000/svg" xmlns:xlink="http://www.w3.org/1999/xlink" x="0px" y="0px" width="24px"
	 height="24px" viewBox="0 0 24 24" enable-background="new 0 0 24 24" xml:space="preserve">
<g id="Outline_Icons_1_">
	<g id="Outline_Icons">
		<g>
			<path fill="none" stroke="#000000" stroke-linejoin="round" stroke-miterlimit="10" d="M18.5,17.5c0.553,0,1-0.448,1-1v-4h-12v4
				c0,0.552,0.447,1,1,1H18.5z"/>
			
				<line fill="none" stroke="#000000" stroke-linecap="round" stroke-linejoin="round" stroke-miterlimit="10" x1="10.076" y1="5.5" x2="8.201" y2="3.5"/>
			
				<line fill="none" stroke="#000000" stroke-linecap="round" stroke-linejoin="round" stroke-miterlimit="10" x1="17.062" y1="5.5" x2="18.938" y2="3.5"/>
			
				<rect x="3.5" y="0.5" fill="none" stroke="#000000" stroke-linecap="round" stroke-linejoin="round" stroke-miterlimit="10" width="20" height="20"/>
			<path fill="none" stroke="#000000" stroke-linejoin="round" stroke-miterlimit="10" d="M19.5,10.5c0-3.313-2.687-6-6-6
				s-6,2.687-6,6H19.5z"/>
			<g>
				<g>
					<path d="M11.5,7C11.224,7,11,7.224,11,7.5S11.224,8,11.5,8C11.775,8,12,7.776,12,7.5S11.775,7,11.5,7L11.5,7z"/>
				</g>
			</g>
			<g>
				<g>
					<path d="M15.5,7C15.224,7,15,7.224,15,7.5S15.224,8,15.5,8C15.775,8,16,7.776,16,7.5S15.775,7,15.5,7L15.5,7z"/>
				</g>
			</g>
			<polyline fill="none" stroke="#000000" stroke-linecap="round" stroke-linejoin="round" stroke-miterlimit="10" points="3.5,4.5 
				0.5,4.5 0.5,23.5 19.5,23.5 19.5,20.5 			"/>
		</g>
	</g>
	<g id="New_icons_1_">
	</g>
</g>
<g id="Invisible_Shape">
	<rect fill="none" width="24" height="24"/>
</g>
</svg>
