<?xml version="1.0" encoding="utf-8"?>
<!-- Generator: Adobe Illustrator 19.2.0, SVG Export Plug-In . SVG Version: 6.00 Build 0)  -->
<svg version="1.1" xmlns="http://www.w3.org/2000/svg" xmlns:xlink="http://www.w3.org/1999/xlink" x="0px" y="0px" width="24px"
	 height="24px" viewBox="0 0 24 24" enable-background="new 0 0 24 24" xml:space="preserve">
<g id="Filled_Icons">
	<g>
		<path d="M23,17h-4V6.5C19,6.224,18.776,6,18.5,6h-1C17.224,6,17,6.224,17,6.5v0.293L13.793,10H10v5h6v-5h-0.793L17,8.207V17H9V6.5
			C9,6.224,8.776,6,8.5,6h-1C7.224,6,7,6.224,7,6.5v0.293L3.793,10H1.5C1.224,10,1,10.224,1,10.5v4C1,14.776,1.224,15,1.5,15H6v-5
			H5.207L7,8.207V17H2c-0.276,0-0.5,0.224-0.5,0.5v3C1.5,20.776,1.724,21,2,21h1.5c0-1.93,1.57-3.5,3.5-3.5s3.5,1.57,3.5,3.5h4
			c0-1.93,1.57-3.5,3.5-3.5s3.5,1.57,3.5,3.5H23c0.276,0,0.5-0.224,0.5-0.5v-3C23.5,17.224,23.276,17,23,17z"/>
		<path d="M7,18.5c-1.381,0-2.5,1.119-2.5,2.5s1.119,2.5,2.5,2.5s2.5-1.119,2.5-2.5S8.381,18.5,7,18.5z M7,21.5
			c-0.276,0-0.5-0.224-0.5-0.5s0.224-0.5,0.5-0.5s0.5,0.224,0.5,0.5S7.276,21.5,7,21.5z"/>
		<path d="M18,18.5c-1.381,0-2.5,1.119-2.5,2.5s1.119,2.5,2.5,2.5s2.5-1.119,2.5-2.5S19.381,18.5,18,18.5z M18,21.5
			c-0.276,0-0.5-0.224-0.5-0.5s0.224-0.5,0.5-0.5s0.5,0.224,0.5,0.5S18.276,21.5,18,21.5z"/>
		<path d="M22.5,12.5c0-1.378-1.121-2.5-2.5-2.5v5C21.379,15,22.5,13.878,22.5,12.5z"/>
	</g>
</g>
<g id="invisible_shape">
	<rect fill="none" width="24" height="24"/>
</g>
</svg>
