<?xml version="1.0" encoding="utf-8"?>
<!-- Generator: Adobe Illustrator 19.2.0, SVG Export Plug-In . SVG Version: 6.00 Build 0)  -->
<svg version="1.1" xmlns="http://www.w3.org/2000/svg" xmlns:xlink="http://www.w3.org/1999/xlink" x="0px" y="0px" width="24px"
	 height="24px" viewBox="0 0 24 24" enable-background="new 0 0 24 24" xml:space="preserve">
<g id="Filled_Icons">
	<path d="M21.499,2.506c-0.827,0-1.5,0.671-1.5,1.5c0,0.827-0.673,1.5-1.5,1.5c-0.827,0-1.5-0.673-1.5-1.5c0-1.653-1.346-3-2.999-3
		c-1.654,0-3,1.347-3,3v2H9.5c-0.276,0-0.5,0.223-0.5,0.5v1.09c-3.005,1.217-5,4.15-5,7.41c0,4.411,3.589,8,8,8s7.999-3.589,7.999-8
		c0-3.26-1.994-6.193-4.999-7.41v-1.09c0-0.277-0.224-0.5-0.5-0.5H12v-2c0-1.104,0.896-2,2-2c1.102,0,1.999,0.896,1.999,2
		c0,1.378,1.122,2.5,2.5,2.5c1.379,0,2.5-1.122,2.5-2.5c0-0.275,0.225-0.5,0.5-0.5c0.276,0,0.5-0.225,0.5-0.5
		C21.999,2.73,21.775,2.506,21.499,2.506z M9.141,10.904c-2.262,1.577-2.819,4.699-1.242,6.962C8.056,18.092,8,18.402,7.773,18.561
		c-0.087,0.06-0.186,0.089-0.285,0.089c-0.158,0-0.313-0.073-0.41-0.212c-0.917-1.316-1.267-2.908-0.984-4.486
		C6.375,12.373,7.255,11,8.569,10.084c0.227-0.158,0.538-0.103,0.696,0.124C9.423,10.434,9.367,10.747,9.141,10.904z"/>
</g>
<g id="invisible_shape">
	<rect fill="none" width="24" height="24"/>
</g>
</svg>
