<?xml version="1.0" encoding="utf-8"?>
<!-- Generator: Adobe Illustrator 19.2.0, SVG Export Plug-In . SVG Version: 6.00 Build 0)  -->
<svg version="1.1" xmlns="http://www.w3.org/2000/svg" xmlns:xlink="http://www.w3.org/1999/xlink" x="0px" y="0px" width="24px"
	 height="24px" viewBox="0 0 24 24" enable-background="new 0 0 24 24" xml:space="preserve">
<g id="Filled_Icons">
	<g>
		<path d="M1.5,8C1.776,8,2,7.775,2,7.5V7h13.969l0,0V1H2V0.5C2,0.223,1.776,0,1.5,0S1,0.223,1,0.5v7C1,7.775,1.224,8,1.5,8z"/>
		<path d="M23,4c0-1.754-3.025-2.874-6-2.989v5.977C19.975,6.875,23,5.754,23,4z"/>
		<path d="M7,14.988V9.011C4.024,9.126,1,10.246,1,12S4.024,14.875,7,14.988z"/>
		<path d="M22.5,8C22.224,8,22,8.223,22,8.5V9H8v6l0,0h14v0.5c0,0.275,0.224,0.5,0.5,0.5s0.5-0.225,0.5-0.5v-7
			C23,8.223,22.776,8,22.5,8z"/>
		<path d="M16,17H2v-0.5C2,16.223,1.776,16,1.5,16S1,16.223,1,16.5v7C1,23.775,1.224,24,1.5,24S2,23.775,2,23.5V23h14l0,0V17z"/>
		<path d="M17,17.011v5.977c2.975-0.113,6-1.234,6-2.988S19.975,17.126,17,17.011z"/>
	</g>
</g>
<g id="invisible_shape">
	<rect fill="none" width="24" height="24"/>
</g>
</svg>
