<?xml version="1.0" encoding="utf-8"?>
<!-- Generator: Adobe Illustrator 19.2.0, SVG Export Plug-In . SVG Version: 6.00 Build 0)  -->
<svg version="1.1" xmlns="http://www.w3.org/2000/svg" xmlns:xlink="http://www.w3.org/1999/xlink" x="0px" y="0px" width="24px"
	 height="24px" viewBox="0 0 24 24" enable-background="new 0 0 24 24" xml:space="preserve">
<g id="Filled_Icons">
	<g>
		<g>
			<g>
				<path d="M15.5,12c1.759,0,3.204-1.309,3.449-3h-6.898C12.296,10.691,13.741,12,15.5,12z"/>
			</g>
			<g>
				<path d="M19.949,8C19.697,5.756,17.81,4,15.5,4s-4.197,1.756-4.449,4H19.949z"/>
			</g>
		</g>
		<path d="M8.5,20h-3C4.673,20,4,20.673,4,21.5S4.673,23,5.5,23h3c0.827,0,1.5-0.673,1.5-1.5S9.327,20,8.5,20z"/>
		<path d="M12.5,16h-3C8.673,16,8,16.673,8,17.5S8.673,19,9.5,19h3c0.827,0,1.5-0.673,1.5-1.5S13.327,16,12.5,16z"/>
		<path d="M15.5,20h-3c-0.827,0-1.5,0.673-1.5,1.5s0.673,1.5,1.5,1.5h3c0.827,0,1.5-0.673,1.5-1.5S16.327,20,15.5,20z"/>
		<g>
			<path d="M22,19h-2.059L19.5,15.5c0-1.93-1.57-3.5-3.5-3.5H2v-0.5C2,11.224,1.776,11,1.5,11S1,11.224,1,11.5v1
				C1,12.776,1.224,13,1.5,13H5v1.5C5,14.776,5.224,15,5.5,15h7c1.379,0,2.5,1.122,2.5,2.5c0,0.566-0.194,1.083-0.516,1.5H15.5
				c1.379,0,2.5,1.122,2.5,2.5c0,0.565-0.195,1.081-0.513,1.5H22c1.103,0,2-0.897,2-2S23.103,19,22,19z"/>
		</g>
	</g>
</g>
<g id="invisible_shape">
	<rect fill="none" width="24" height="24"/>
</g>
</svg>
