<?xml version="1.0" encoding="utf-8"?>
<!-- Generator: Adobe Illustrator 19.2.0, SVG Export Plug-In . SVG Version: 6.00 Build 0)  -->
<svg version="1.1" xmlns="http://www.w3.org/2000/svg" xmlns:xlink="http://www.w3.org/1999/xlink" x="0px" y="0px" width="24px"
	 height="24px" viewBox="0 0 24 24" enable-background="new 0 0 24 24" xml:space="preserve">
<g id="Filled_Icons">
	<g>
		<path d="M5.5,21h-3C1.673,21,1,21.673,1,22.5S1.673,24,2.5,24h3C6.327,24,7,23.327,7,22.5S6.327,21,5.5,21z"/>
		<path d="M13.5,21h-3C9.673,21,9,21.673,9,22.5S9.673,24,10.5,24h3c0.827,0,1.5-0.673,1.5-1.5S14.327,21,13.5,21z"/>
		<path d="M21.5,21h-3c-0.827,0-1.5,0.673-1.5,1.5s0.673,1.5,1.5,1.5h3c0.827,0,1.5-0.673,1.5-1.5S22.327,21,21.5,21z"/>
		<path d="M9.5,18.5C9.5,17.673,8.827,17,8,17H5c-0.827,0-1.5,0.673-1.5,1.5S4.173,20,5,20h3C8.827,20,9.5,19.327,9.5,18.5z"/>
		<path d="M17.5,18.5c0-0.827-0.673-1.5-1.5-1.5h-3c-0.827,0-1.5,0.673-1.5,1.5S12.173,20,13,20h3C16.827,20,17.5,19.327,17.5,18.5z
			"/>
		<path d="M20.5,5H8.768C7.512,5,6.283,5.509,5.397,6.397C4.496,7.296,4,8.494,4,9.768V10h13.5c0.276,0,0.5,0.224,0.5,0.5v2
			c0,0.276-0.224,0.5-0.5,0.5H4v3.212C4.307,16.077,4.644,16,5,16h3c1.379,0,2.5,1.122,2.5,2.5c0-1.378,1.121-2.5,2.5-2.5h3
			c1.379,0,2.5,1.122,2.5,2.5c0,0.471-0.139,0.908-0.366,1.284l0.352,0.217c0.005,0,0.009-0.001,0.014-0.001h3
			c1.379,0,2.5,1.122,2.5,2.5v-14C24,6.57,22.43,5,20.5,5z"/>
	</g>
</g>
<g id="invisible_shape">
	<rect fill="none" width="24" height="24"/>
</g>
</svg>
