<?xml version="1.0" encoding="utf-8"?>
<!-- Generator: Adobe Illustrator 19.2.0, SVG Export Plug-In . SVG Version: 6.00 Build 0)  -->
<svg version="1.1" xmlns="http://www.w3.org/2000/svg" xmlns:xlink="http://www.w3.org/1999/xlink" x="0px" y="0px" width="24px"
	 height="24px" viewBox="0 0 24 24" enable-background="new 0 0 24 24" xml:space="preserve">
<g id="Filled_Icons">
	<g>
		<path d="M23.664,21.028l-5.587-1.944c-3.918-1.363-8.236-1.363-12.154,0L1.742,20.54l2.006-3.009l1.623,0.688
			c1.641-0.57,3.203-0.944,5.11-1.092l-6.094-2.583c1.226,0.038,2.436-0.554,3.112-1.681L1.071,9
			c-0.996,1.657-0.46,3.808,1.197,4.803l0.324,0.194c-0.097,0.054-0.177,0.132-0.221,0.234l-0.78,1.842
			c-0.108,0.254,0.011,0.548,0.265,0.655l0.954,0.404l-2.726,4.09l0.004,0.002C0.034,21.306,0,21.399,0,21.5v2
			C0,23.776,0.224,24,0.5,24h23c0.276,0,0.5-0.224,0.5-0.5v-2C24,21.287,23.865,21.098,23.664,21.028z M12,22.5
			c-0.828,0-1.5-0.671-1.5-1.5c0-0.828,0.672-1.5,1.5-1.5s1.5,0.672,1.5,1.5C13.5,21.829,12.828,22.5,12,22.5z"/>
		<path d="M15,5.5C15,5.224,14.776,5,14.5,5h-2C12.224,5,12,5.224,12,5.5v11.563c1.004,0,2.007,0.086,3,0.239V5.5z"/>
		<path d="M21.839,19.334L16,9.116v6.149l1.418,2.577C17.748,17.938,21.839,19.334,21.839,19.334z"/>
	</g>
</g>
<g id="invisible_shape">
	<rect fill="none" width="24" height="24"/>
</g>
</svg>
