<?xml version="1.0" encoding="utf-8"?>
<!-- Generator: Adobe Illustrator 19.2.0, SVG Export Plug-In . SVG Version: 6.00 Build 0)  -->
<svg version="1.1" xmlns="http://www.w3.org/2000/svg" xmlns:xlink="http://www.w3.org/1999/xlink" x="0px" y="0px" width="24px"
	 height="24px" viewBox="0 0 24 24" enable-background="new 0 0 24 24" xml:space="preserve">
<g id="Filled_Icons">
	<g>
		<path d="M20.5,17h-0.264L16,11.822V10.5c0-0.276-0.224-0.5-0.5-0.5S15,10.224,15,10.5v1.322l-1.576,1.927L4.403,5.325
			C4.211,5.139,3.892,5.136,3.696,5.34C2.888,6.186,2.352,6.904,2.377,8.196c0.02,0.934,0.402,1.805,1.077,2.453
			c1.339,1.284,3.545,1.362,4.982-0.138l4.353,4.014L10.764,17H0.5C0.224,17,0,17.224,0,17.5v3C0,20.776,0.224,21,0.5,21h1.551
			c0.245-1.691,1.69-3,3.449-3s3.204,1.309,3.449,3h3.102c0.245-1.691,1.69-3,3.449-3s3.204,1.309,3.449,3H20.5
			c0.276,0,0.5-0.224,0.5-0.5v-3C21,17.224,20.776,17,20.5,17z M15,17h-2.945L15,13.4V17z M16,17v-3.6l2.945,3.6H16z"/>
		<path d="M5.5,19C4.121,19,3,20.122,3,21.5S4.121,24,5.5,24S8,22.878,8,21.5S6.879,19,5.5,19z M5.5,22C5.224,22,5,21.776,5,21.5
			S5.224,21,5.5,21S6,21.224,6,21.5S5.776,22,5.5,22z"/>
		<path d="M15.5,19c-1.379,0-2.5,1.122-2.5,2.5s1.121,2.5,2.5,2.5s2.5-1.122,2.5-2.5S16.879,19,15.5,19z M15.5,22
			c-0.276,0-0.5-0.224-0.5-0.5s0.224-0.5,0.5-0.5s0.5,0.224,0.5,0.5S15.776,22,15.5,22z"/>
		<g>
			<circle cx="21.5" cy="2.5" r="2"/>
			<path d="M17.574,2.451c-0.672,0.113-1.339,0.247-1.997,0.401c-0.269,0.063-0.436,0.332-0.374,0.601
				c0.063,0.264,0.327,0.437,0.601,0.373c0.639-0.149,1.284-0.279,1.936-0.388c0.272-0.046,0.456-0.304,0.41-0.576
				C18.104,2.588,17.843,2.411,17.574,2.451z"/>
			<path d="M13.607,3.378c-0.652,0.197-1.296,0.414-1.931,0.649c-0.259,0.096-0.391,0.384-0.295,0.643
				c0.098,0.261,0.386,0.39,0.643,0.294c0.615-0.228,1.239-0.438,1.872-0.629c0.265-0.08,0.414-0.358,0.334-0.623
				C14.15,3.448,13.871,3.298,13.607,3.378z"/>
			<path d="M9.79,4.798C9.168,5.075,8.556,5.37,7.955,5.686C7.711,5.813,7.616,6.115,7.744,6.359C7.875,6.607,8.179,6.697,8.42,6.57
				c0.581-0.305,1.174-0.591,1.776-0.86c0.253-0.112,0.366-0.408,0.254-0.66C10.338,4.798,10.038,4.686,9.79,4.798z"/>
		</g>
	</g>
</g>
<g id="invisible_shape">
	<rect fill="none" width="24" height="24"/>
</g>
</svg>
