<?xml version="1.0" encoding="utf-8"?>
<!-- Generator: Adobe Illustrator 19.2.0, SVG Export Plug-In . SVG Version: 6.00 Build 0)  -->
<svg version="1.1" xmlns="http://www.w3.org/2000/svg" xmlns:xlink="http://www.w3.org/1999/xlink" x="0px" y="0px" width="24px"
	 height="24px" viewBox="0 0 24 24" enable-background="new 0 0 24 24" xml:space="preserve">
<g id="Filled_Icons">
	<g>
		<path d="M20.475,4.232l1.414-1.414c0.195-0.195,0.195-0.511,0-0.707c-0.195-0.195-0.512-0.195-0.707,0l-1.414,1.415
			c-0.195,0.195-0.195,0.511,0,0.707C19.963,4.428,20.279,4.428,20.475,4.232z"/>
		<path d="M23,5.5h-2c-0.276,0-0.5,0.224-0.5,0.5s0.224,0.5,0.5,0.5h2c0.276,0,0.5-0.224,0.5-0.5S23.276,5.5,23,5.5z"/>
		<path d="M20.475,7.768c-0.195-0.195-0.512-0.195-0.707,0c-0.195,0.195-0.195,0.512,0,0.707l1.414,1.415
			c0.195,0.195,0.512,0.195,0.707,0c0.195-0.195,0.195-0.511,0-0.707L20.475,7.768z"/>
		<path d="M18,0.5c-0.276,0-0.5,0.224-0.5,0.5v2c0,0.276,0.224,0.5,0.5,0.5s0.5-0.224,0.5-0.5V1C18.5,0.724,18.276,0.5,18,0.5z"/>
		<path d="M15.525,4.232c0.195,0.196,0.512,0.196,0.707,0c0.195-0.195,0.195-0.512,0-0.707l-1.414-1.415
			c-0.195-0.195-0.512-0.195-0.707,0c-0.195,0.196-0.195,0.512,0,0.707L15.525,4.232z"/>
		<path d="M17.646,5.647l-3.182,3.183l-1.769-1.769c-0.195-0.195-0.512-0.195-0.707,0l-10.96,10.96
			c-0.195,0.195-0.195,0.512,0,0.707l4.243,4.243c0.195,0.196,0.512,0.195,0.707,0l10.96-10.96c0.195-0.196,0.195-0.512,0-0.708
			l-1.768-1.768l3.182-3.182c0.195-0.195,0.195-0.512,0-0.707C18.158,5.451,17.842,5.451,17.646,5.647z"/>
	</g>
</g>
<g id="invisible_shape">
	<rect fill="none" width="24" height="24"/>
</g>
</svg>
