<?xml version="1.0" encoding="utf-8"?>
<!-- Generator: Adobe Illustrator 19.2.0, SVG Export Plug-In . SVG Version: 6.00 Build 0)  -->
<svg version="1.1" xmlns="http://www.w3.org/2000/svg" xmlns:xlink="http://www.w3.org/1999/xlink" x="0px" y="0px" width="24px"
	 height="24px" viewBox="0 0 24 24" enable-background="new 0 0 24 24" xml:space="preserve">
<g id="Filled_Icons">
	<g>
		<path d="M2.591,16.125c-0.195-0.195-0.512-0.195-0.707,0l-1.061,1.061c-0.086,0.085-0.138,0.199-0.146,0.321l-0.177,2.651
			C0.481,20.44,0.705,20.69,1,20.69c0.011,0,0.023,0,0.033,0l2.651-0.177c0.121-0.008,0.234-0.06,0.32-0.145l1.061-1.061
			c0.195-0.196,0.195-0.512,0-0.708L2.591,16.125z"/>
		<path d="M19.457,15.555l-0.826-8.264c-0.711,0.239-1.308,0.264-1.979,0.123l-3.704,6.734C12.644,14.061,12.331,14,12,14
			c-1.93,0-3.5,1.57-3.5,3.5S10.07,21,12,21s3.5-1.57,3.5-3.5c0-1.242-0.654-2.328-1.632-2.949l3.795-6.9l0.821,8.21
			C17.315,16.427,16.5,17.616,16.5,19c0,1.93,1.57,3.5,3.5,3.5s3.5-1.57,3.5-3.5C23.5,16.938,21.683,15.208,19.457,15.555z"/>
		<path d="M19.385,5.694c1.075-1.074,1.075-2.814,0-3.889c-1.04-1.04-2.853-1.039-3.889,0c-1.075,1.074-1.075,2.815,0,3.889
			C16.566,6.767,18.308,6.772,19.385,5.694z"/>
		<path d="M14.789,6.401c-0.44-0.439-0.741-0.976-0.918-1.556L3.298,15.417l2.475,2.475L16.346,7.319
			C15.766,7.143,15.229,6.842,14.789,6.401z"/>
	</g>
</g>
<g id="invisible_shape">
	<rect fill="none" width="24" height="24"/>
</g>
</svg>
