<?xml version="1.0" encoding="utf-8"?>
<!-- Generator: Adobe Illustrator 19.2.0, SVG Export Plug-In . SVG Version: 6.00 Build 0)  -->
<svg version="1.1" xmlns="http://www.w3.org/2000/svg" xmlns:xlink="http://www.w3.org/1999/xlink" x="0px" y="0px" width="24px"
	 height="24px" viewBox="0 0 24 24" enable-background="new 0 0 24 24" xml:space="preserve">
<g id="Filled_Icons">
	<g>
		<path d="M17.435,8c-0.649-1.272-1.496-2.545-2.551-3.819C14.79,4.066,14.649,4,14.5,4h-6C8.35,4,8.208,4.067,8.113,4.184
			C7.071,5.457,6.234,6.729,5.593,8H17.435z"/>
		<path d="M20,0c-0.95,0-1.81,0.383-2.441,1H6.417c-0.106,0-0.21,0.034-0.295,0.097C2.724,3.582-1.66,11.781,1.696,19.268
			c0.083,0.185,0.266,0.295,0.456,0.295c0.068,0,0.138-0.014,0.204-0.044c0.252-0.113,0.365-0.409,0.252-0.661
			C-0.441,12.056,3.523,4.369,6.584,2H9v1h5V2h2.852C16.633,2.457,16.5,2.961,16.5,3.5C16.5,5.43,18.07,7,20,7s3.5-1.57,3.5-3.5
			S21.93,0,20,0z M20,6c-1.379,0-2.5-1.122-2.5-2.5S18.621,1,20,1s2.5,1.122,2.5,2.5S21.379,6,20,6z"/>
		<path d="M5.069,19h12.892c1.399-3.3,1.376-6.642-0.059-10H5.131C3.711,12.36,3.685,15.701,5.069,19z"/>
		<path d="M5.541,20c0.649,1.282,1.503,2.557,2.578,3.824C8.214,23.935,8.354,24,8.5,24h6c0.146,0,0.284-0.064,0.38-0.175
			c1.086-1.268,1.948-2.542,2.605-3.825H5.541z"/>
	</g>
</g>
<g id="invisible_shape">
	<rect fill="none" width="24" height="24"/>
</g>
</svg>
