<?xml version="1.0" encoding="utf-8"?>
<!-- Generator: Adobe Illustrator 19.2.0, SVG Export Plug-In . SVG Version: 6.00 Build 0)  -->
<svg version="1.1" xmlns="http://www.w3.org/2000/svg" xmlns:xlink="http://www.w3.org/1999/xlink" x="0px" y="0px" width="24px"
	 height="24px" viewBox="0 0 24 24" enable-background="new 0 0 24 24" xml:space="preserve">
<g id="Filled_Icons">
	<g>
		<path d="M21.238,2.994L18.41,0.166c-0.196-0.195-0.511-0.195-0.707,0l-6.364,6.364c-0.195,0.196-0.195,0.512,0,0.707l2.828,2.829
			c0.195,0.195,0.512,0.195,0.707,0l6.364-6.364C21.434,3.506,21.434,3.19,21.238,2.994z"/>
		<path d="M10.632,7.944c-0.195-0.196-0.512-0.196-0.707,0L5.328,12.54l-1.061-1.061c-0.188-0.188-0.52-0.188-0.707,0l-1.414,1.415
			c-0.195,0.195-0.195,0.512,0,0.707l1.06,1.06l-0.354,0.353C2,15.868,1.895,17.191,2.536,18.161l9.156-9.157L10.632,7.944z"/>
		<path d="M14.167,11.479l-1.768-1.768l-9.192,9.193l1.061,1.06c0.182,0.184,0.477,0.195,0.675,0.029
			c0.293-0.245,1.268-0.92,1.938-0.819c0.21,0.033,0.369,0.144,0.476,0.306l2.121,4.243c0.154,0.306,0.561,0.37,0.801,0.13
			l2.828-2.829c0.149-0.148,0.189-0.375,0.1-0.565l-1.002-2.147c0.071-0.023,0.139-0.059,0.195-0.116l1.768-1.768
			c0.152-0.152,0.189-0.385,0.094-0.577l-1.253-2.506l1.159-1.16C14.362,11.991,14.362,11.674,14.167,11.479z M13.205,15.977
			l-1.426,1.425l-0.899-1.928l1.383-1.383L13.205,15.977z"/>
	</g>
</g>
<g id="invisible_shape">
	<rect fill="none" width="24" height="24"/>
</g>
</svg>
