<?xml version="1.0" encoding="utf-8"?>
<!-- Generator: Adobe Illustrator 19.2.0, SVG Export Plug-In . SVG Version: 6.00 Build 0)  -->
<svg version="1.1" xmlns="http://www.w3.org/2000/svg" xmlns:xlink="http://www.w3.org/1999/xlink" x="0px" y="0px" width="24px"
	 height="24px" viewBox="0 0 24 24" enable-background="new 0 0 24 24" xml:space="preserve">
<g id="Filled_Icons">
	<g>
		<path d="M8,6h5v0.5C13,6.776,13.224,7,13.5,7h3C16.776,7,17,6.776,17,6.5V5h1v1c0,0.276,0.224,0.5,0.5,0.5S19,6.276,19,6V4.5
			C19,4.224,18.776,4,18.5,4h-2h-3C13.224,4,13,4.224,13,4.5V5H8C7.724,5,7.5,5.224,7.5,5.5S7.724,6,8,6z M14,5h2v1h-2V5z"/>
		<circle cx="4.5" cy="18.5" r="2.25"/>
		<path d="M23.5,18H23v-4.5c0-0.276-0.224-0.5-0.5-0.5H19v-1.5c0-0.14-0.066-0.278-0.172-0.37c-0.145-0.127-4.865-3.9-5.016-4.02
			C13.479,6.846,13,7.086,13,7.5V9H8C7.811,9,7.638,9.106,7.553,9.276L5.69,13H2c-1.104,0-2,0.896-2,2v3.5C0,18.776,0.224,19,0.5,19
			h0.801c-0.319-2.063,1.283-3.75,3.199-3.75c1.915,0,3.519,1.687,3.199,3.75h5.602c-0.319-2.063,1.283-3.75,3.199-3.75
			c1.915,0,3.519,1.687,3.199,3.75H23.5c0.276,0,0.5-0.224,0.5-0.5S23.776,18,23.5,18z M14,8.54L17.074,11H14V8.54z M10.5,12H9.809
			l-0.861,1.724c-0.121,0.241-0.416,0.349-0.671,0.224c-0.247-0.124-0.348-0.424-0.224-0.671l1-2C9.138,11.106,9.311,11,9.5,11h1
			c0.276,0,0.5,0.224,0.5,0.5S10.776,12,10.5,12z M14,13v-1h4v1H14z"/>
		<circle cx="16.5" cy="18.5" r="2.25"/>
	</g>
</g>
<g id="invisible_shape">
	<rect fill="none" width="24" height="24"/>
</g>
</svg>
