<?xml version="1.0" encoding="utf-8"?>
<!-- Generator: Adobe Illustrator 19.2.0, SVG Export Plug-In . SVG Version: 6.00 Build 0)  -->
<svg version="1.1" xmlns="http://www.w3.org/2000/svg" xmlns:xlink="http://www.w3.org/1999/xlink" x="0px" y="0px" width="24px"
	 height="24px" viewBox="0 0 24 24" enable-background="new 0 0 24 24" xml:space="preserve">
<g id="Filled_Icons">
	<g>
		<path d="M23.5,5H22V3.5C22,3.223,21.776,3,21.5,3S21,3.223,21,3.5V4h-5v2.5C16,6.775,15.776,7,15.5,7h-7C8.224,7,8,6.775,8,6.5V4
			H6V2.5C6,2.223,5.776,2,5.5,2h-2C3.224,2,3,2.223,3,2.5V4H2.5C1.121,4,0,5.121,0,6.5V9h23.5C23.776,9,24,8.775,24,8.5v-3
			C24,5.223,23.776,5,23.5,5z M5,4H4V3h1V4z M23,8h-1V6h1V8z"/>
		<path d="M0,11.5c0,0.214,0.138,0.407,0.342,0.475c1.466,0.488,2.318,1.994,1.983,3.504l-1.314,5.912
			c-0.033,0.149,0.003,0.304,0.098,0.421C1.205,21.931,1.348,22,1.5,22h8c0.276,0,0.5-0.225,0.5-0.5c0-0.277-0.224-0.5-0.5-0.5
			H8.123l1.111-5H13.5c0.215,0,0.406-0.139,0.474-0.341L14.859,13H21.5c0.276,0,0.5-0.225,0.5-0.5V10H0V11.5z M9.9,13h3.905
			l-0.666,2H9.456L9.9,13z"/>
		<rect x="9" y="4" width="6" height="2"/>
	</g>
</g>
<g id="invisible_shape">
	<rect fill="none" width="24" height="24"/>
</g>
</svg>
