<?xml version="1.0" encoding="utf-8"?>
<!-- Generator: Adobe Illustrator 19.2.0, SVG Export Plug-In . SVG Version: 6.00 Build 0)  -->
<svg version="1.1" xmlns="http://www.w3.org/2000/svg" xmlns:xlink="http://www.w3.org/1999/xlink" x="0px" y="0px" width="24px"
	 height="24px" viewBox="0 0 24 24" enable-background="new 0 0 24 24" xml:space="preserve">
<g id="Filled_Icons">
	<g>
		<path d="M5.323,22.919c0.002-0.001,0.003-0.003,0.004-0.005c0.492-0.495,0.737-1.101,0.528-1.779
			c-0.193-0.643-0.763-1.274-1.239-1.751c-0.502-0.503-1.033-0.996-1.618-1.21c0,0-0.966-0.449-1.918,0.502
			c-0.924,0.925-0.574,2.858-0.113,4.067c0.051,0.132,0.154,0.237,0.286,0.288l0.002,0C2.454,23.495,4.409,23.834,5.323,22.919z"/>
		<path d="M6.107,15.064l-2.358,2.36c0.595,0.315,1.112,0.791,1.574,1.253c0.302,0.301,0.866,0.869,1.244,1.584l2.368-2.369
			L6.107,15.064z"/>
		<path d="M23.5,8h-1.525c-0.108-1.417-0.67-2.706-1.544-3.724l1.08-1.08c0.195-0.195,0.195-0.511,0-0.707
			c-0.195-0.195-0.512-0.195-0.707,0l-1.08,1.08C18.705,2.696,17.416,2.134,16,2.026V0.5C16,0.224,15.776,0,15.5,0S15,0.224,15,0.5
			v1.526c-1.416,0.108-2.705,0.67-3.724,1.543l-1.08-1.08c-0.195-0.195-0.512-0.195-0.707,0c-0.195,0.196-0.195,0.512,0,0.707
			l1.08,1.08C9.695,5.294,9.134,6.583,9.025,8H7.5C7.224,8,7,8.224,7,8.5S7.224,9,7.5,9h1.525c0.067,0.878,0.309,1.707,0.692,2.454
			l-2.903,2.904l2.828,2.828l2.904-2.903c0.746,0.383,1.575,0.625,2.453,0.692V16.5c0,0.276,0.224,0.5,0.5,0.5s0.5-0.224,0.5-0.5
			v-1.525c1.416-0.108,2.705-0.67,3.724-1.543l1.08,1.08c0.194,0.194,0.511,0.195,0.707,0c0.195-0.196,0.195-0.513,0-0.708
			l-1.08-1.08c0.874-1.018,1.435-2.307,1.544-3.724H23.5C23.776,9,24,8.776,24,8.5S23.776,8,23.5,8z M13.354,9.646l-0.707,0.707
			l-1.5-1.5c-0.195-0.195-0.195-0.512,0-0.707l1.5-1.5l0.707,0.707L12.207,8.5L13.354,9.646z M15.854,12.854
			c-0.195,0.195-0.512,0.195-0.707,0l-1.5-1.5l0.707-0.707l1.146,1.147l1.146-1.147l0.707,0.707L15.854,12.854z M16.646,6.353
			L15.5,5.207l-1.146,1.147l-0.707-0.707l1.5-1.5c0.195-0.195,0.512-0.195,0.707,0l1.5,1.5L16.646,6.353z M19.854,8.854l-1.5,1.5
			l-0.707-0.707L18.793,8.5l-1.146-1.147l0.707-0.707l1.5,1.5C20.049,8.342,20.049,8.659,19.854,8.854z"/>
	</g>
</g>
<g id="invisible_shape">
	<rect fill="none" width="24" height="24"/>
</g>
</svg>
