<?xml version="1.0" encoding="utf-8"?>
<!-- Generator: Adobe Illustrator 19.2.0, SVG Export Plug-In . SVG Version: 6.00 Build 0)  -->
<svg version="1.1" xmlns="http://www.w3.org/2000/svg" xmlns:xlink="http://www.w3.org/1999/xlink" x="0px" y="0px" width="24px"
	 height="24px" viewBox="0 0 24 24" enable-background="new 0 0 24 24" xml:space="preserve">
<g id="Filled_Icons">
	<g>
		<path d="M2.82,0.116c-0.149-0.123-0.357-0.15-0.532-0.068C2.112,0.13,2,0.307,2,0.5V7c0,0.148,0.065,0.29,0.18,0.384l3,2.5
			C5.272,9.96,5.385,10,5.5,10c0.072,0,0.144-0.016,0.212-0.047C5.888,9.871,6,9.694,6,9.5V3c0-0.148-0.065-0.289-0.18-0.384
			L2.82,0.116z"/>
		<path d="M20.712,0.047c-0.175-0.082-0.383-0.055-0.532,0.068l-3,2.5C17.065,2.711,17,2.852,17,3v6.5
			c0,0.194,0.112,0.371,0.288,0.453C17.355,9.984,17.428,10,17.5,10c0.115,0,0.229-0.04,0.32-0.116l3-2.5C20.935,7.29,21,7.148,21,7
			V0.5C21,0.307,20.888,0.13,20.712,0.047z"/>
		<path d="M12,4.028V0.5C12,0.224,11.776,0,11.5,0S11,0.224,11,0.5v3.528C8.985,4.168,7,5.119,7,6.5V19
			c0,0.832,0.573,1.716,1.299,2.504C8.732,21.111,10.079,20,11.5,20s2.768,1.111,3.201,1.505C15.427,20.717,16,19.833,16,19V6.5
			C16,5.119,14.015,4.168,12,4.028z"/>
		<path d="M9.01,22.211c0.986,0.901,2.008,1.573,2.221,1.71C11.313,23.974,11.406,24,11.5,24c0.094,0,0.188-0.026,0.269-0.079
			c0.213-0.136,1.234-0.809,2.221-1.71C13.606,21.87,12.53,21,11.5,21S9.394,21.87,9.01,22.211z"/>
	</g>
</g>
<g id="invisible_shape">
	<rect fill="none" width="24" height="24"/>
</g>
</svg>
