<?xml version="1.0" encoding="utf-8"?>
<!-- Generator: Adobe Illustrator 19.2.0, SVG Export Plug-In . SVG Version: 6.00 Build 0)  -->
<svg version="1.1" xmlns="http://www.w3.org/2000/svg" xmlns:xlink="http://www.w3.org/1999/xlink" x="0px" y="0px" width="24px"
	 height="24px" viewBox="0 0 24 24" enable-background="new 0 0 24 24" xml:space="preserve">
<g id="Filled_Icons">
	<path d="M12,0C7.037,0,3,4.038,3,9v8.5c0,0.067,0.014,0.135,0.04,0.197c1.102,2.574,3.872,4.516,6.701,6.231
		c0.356,0.218,0.808-0.078,0.755-0.49L9.081,12.208c-0.028-0.226-0.205-0.403-0.431-0.433C7.754,11.656,6.864,11.492,6,11.287V9.232
		c1.452,0.374,2.961,0.61,4.5,0.706v2.944l-0.447,0.895c-0.076,0.153-0.069,0.334,0.019,0.481l1.5,2.5
		c0.18,0.301,0.678,0.301,0.857,0l1.5-2.5c0.088-0.147,0.095-0.328,0.019-0.481L13.5,12.882V9.938
		c1.539-0.096,3.048-0.332,4.5-0.706v2.055c-0.864,0.205-1.754,0.369-2.65,0.488c-0.226,0.03-0.402,0.207-0.431,0.433l-1.415,11.229
		c-0.054,0.417,0.402,0.706,0.755,0.49c2.829-1.715,5.6-3.657,6.701-6.231C20.986,17.635,21,17.567,21,17.5V9
		C21,4.038,16.963,0,12,0z"/>
</g>
<g id="invisible_shape">
	<rect fill="none" width="24" height="24"/>
</g>
</svg>
