<?xml version="1.0" encoding="utf-8"?>
<!-- Generator: Adobe Illustrator 19.2.0, SVG Export Plug-In . SVG Version: 6.00 Build 0)  -->
<svg version="1.1" xmlns="http://www.w3.org/2000/svg" xmlns:xlink="http://www.w3.org/1999/xlink" x="0px" y="0px" width="24px"
	 height="24px" viewBox="0 0 24 24" enable-background="new 0 0 24 24" xml:space="preserve">
<g id="Filled_Icons">
	<g>
		<path d="M6.985,9.542c-0.166-0.235-0.488-0.279-0.71-0.11l-3.364,2.538c-1.97,1.386-2.473,4.072-1.195,6.084
			c-0.048,0.601-0.038,2.592,1.752,5.138c0.16,0.229,0.476,0.279,0.696,0.122L7.027,21.3c0.209-0.147,0.273-0.428,0.151-0.65
			c-0.267-0.484-0.593-1.183-0.858-1.909l2.542-1.788c0.226-0.159,0.279-0.471,0.121-0.697l-1.215-1.728l1.403-1.023
			c0.22-0.161,0.271-0.468,0.114-0.691L6.985,9.542z M7.878,16.423L6.01,17.736c-0.218-0.849-0.256-1.604,0.072-1.978l0.878-0.639
			L7.878,16.423z"/>
		<path d="M21.285,3.328l0.818-0.575c0.221-0.155,0.282-0.468,0.121-0.697l-1.15-1.636c-0.159-0.227-0.471-0.28-0.697-0.122
			L8.107,8.927c-0.224,0.158-0.28,0.47-0.121,0.697l2.876,4.09c0.157,0.224,0.47,0.281,0.697,0.121l2.453-1.725h0.001l0.001-0.002
			L19.33,8.37c0.224-0.157,0.281-0.469,0.121-0.697l-0.288-0.409l2.863-2.012c0.226-0.159,0.28-0.472,0.122-0.697L21.285,3.328z
			 M13.847,11.003l-1.15-1.635l2.045-1.438l1.149,1.636L13.847,11.003z M11.393,12.729l-1.15-1.635l1.636-1.15l1.15,1.635
			L11.393,12.729z M16.709,8.991L15.56,7.354l1.636-1.15l1.15,1.635L16.709,8.991z M18.588,6.446l-0.574-0.817l2.454-1.726
			l0.575,0.817L18.588,6.446z"/>
	</g>
</g>
<g id="invisible_shape">
	<rect fill="none" width="24" height="24"/>
</g>
</svg>
