<?xml version="1.0" encoding="utf-8"?>
<!-- Generator: Adobe Illustrator 19.2.0, SVG Export Plug-In . SVG Version: 6.00 Build 0)  -->
<svg version="1.1" xmlns="http://www.w3.org/2000/svg" xmlns:xlink="http://www.w3.org/1999/xlink" x="0px" y="0px" width="24px"
	 height="24px" viewBox="0 0 24 24" enable-background="new 0 0 24 24" xml:space="preserve">
<g id="Filled_Icons">
	<path d="M19.976,14.878l-0.289-0.016c-1.514-0.086-2.7-1.341-2.7-2.856c0-1.516,1.187-2.769,2.7-2.856l0.289-0.016l3.934-7.865
		c0.166-0.336,0.101-0.74-0.165-1.006c-0.256-0.256-0.679-0.327-1.009-0.164L14.871,4.03l-0.016,0.29
		C14.769,5.835,13.516,7.022,12,7.022S9.231,5.835,9.144,4.32L9.129,4.03L1.264,0.099C0.932-0.065,0.515,0.004,0.256,0.263
		c-0.266,0.266-0.331,0.67-0.164,1.009l3.933,7.862L4.313,9.15c1.514,0.087,2.7,1.341,2.7,2.856c0,1.515-1.187,2.77-2.7,2.856
		l-0.289,0.016l-3.934,7.865c-0.167,0.337-0.101,0.742,0.164,1.006c0.26,0.26,0.677,0.329,1.01,0.164l7.864-3.93l0.016-0.29
		c0.086-1.515,1.34-2.701,2.856-2.701s2.769,1.186,2.856,2.701l0.016,0.29l7.864,3.93c0.121,0.061,0.256,0.093,0.391,0.093
		c0.234,0,0.454-0.092,0.618-0.256c0.266-0.266,0.332-0.67,0.164-1.008L19.976,14.878z M12,14.25c-1.238,0-2.243-1.004-2.243-2.243
		c0-1.238,1.005-2.243,2.243-2.243s2.242,1.005,2.242,2.243C14.242,13.245,13.238,14.25,12,14.25z"/>
</g>
<g id="invisible_shape">
	<rect fill="none" width="24" height="24"/>
</g>
</svg>
