<?xml version="1.0" encoding="utf-8"?>
<!-- Generator: Adobe Illustrator 19.2.0, SVG Export Plug-In . SVG Version: 6.00 Build 0)  -->
<svg version="1.1" xmlns="http://www.w3.org/2000/svg" xmlns:xlink="http://www.w3.org/1999/xlink" x="0px" y="0px" width="24px"
	 height="24px" viewBox="0 0 24 24" enable-background="new 0 0 24 24" xml:space="preserve">
<g id="Filled_Icons">
	<g>
		<path d="M18.5,15h-13C3.019,15,1,17.019,1,19.5C1,21.982,3.019,24,5.5,24h13c2.481,0,4.5-2.018,4.5-4.5
			C23,17.019,20.981,15,18.5,15z M5.5,22C4.121,22,3,20.878,3,19.5S4.121,17,5.5,17S8,18.122,8,19.5S6.879,22,5.5,22z M12,22
			c-1.379,0-2.5-1.122-2.5-2.5S10.621,17,12,17s2.5,1.122,2.5,2.5S13.379,22,12,22z M18.5,22c-1.379,0-2.5-1.122-2.5-2.5
			s1.121-2.5,2.5-2.5s2.5,1.122,2.5,2.5S19.879,22,18.5,22z"/>
		<path d="M18.813,11.11C18.724,11.039,18.613,11,18.5,11h-18C0.224,11,0,11.224,0,11.5V15c0,0.037,0.004,0.073,0.012,0.108
			l0.476,2.14C1.35,15.336,3.27,14,5.5,14h13c2.057,0,3.852,1.137,4.795,2.814l0.634-1.057c0.129-0.215,0.079-0.491-0.116-0.647
			L18.813,11.11z"/>
		<path d="M12,3.5C12,3.224,11.776,3,11.5,3h-4C7.224,3,7,3.224,7,3.5V4h5V3.5z"/>
		<path d="M23.808,7.106c-0.122-0.095-0.28-0.13-0.429-0.091l-2,0.499C21.156,7.57,21,7.771,21,8v0h-4.232l-1.852-2.777
			C14.823,5.083,14.667,5,14.5,5H6.556L3.109,4.228C2.974,4.198,2.834,4.225,2.721,4.302C2.606,4.378,2.529,4.498,2.507,4.634
			l-0.5,3C1.969,7.861,2.092,8.086,2.304,8.176l2.758,1.18L5.19,10h10.911l0.666-1H21c0,0.229,0.156,0.429,0.379,0.485l2,0.501
			C23.419,9.996,23.46,10,23.5,10c0.11,0,0.219-0.037,0.308-0.106C23.929,9.8,24,9.654,24,9.5v-2
			C24,7.347,23.929,7.201,23.808,7.106z"/>
	</g>
</g>
<g id="invisible_shape">
	<rect fill="none" width="24" height="24"/>
</g>
</svg>
