<?xml version="1.0" encoding="utf-8"?>
<!-- Generator: Adobe Illustrator 19.2.0, SVG Export Plug-In . SVG Version: 6.00 Build 0)  -->
<svg version="1.1" xmlns="http://www.w3.org/2000/svg" xmlns:xlink="http://www.w3.org/1999/xlink" x="0px" y="0px" width="24px"
	 height="24px" viewBox="0 0 24 24" enable-background="new 0 0 24 24" xml:space="preserve">
<g id="Filled_Icons">
	<g>
		<path d="M11.5,2.979c0.276,0,0.5-0.224,0.5-0.5V0.5C12,0.224,11.776,0,11.5,0S11,0.224,11,0.5v1.979
			C11,2.755,11.224,2.979,11.5,2.979z"/>
		<path d="M13.389,3.831c0.118,0,0.236-0.041,0.331-0.125l1.482-1.311c0.207-0.183,0.227-0.499,0.044-0.706
			c-0.185-0.208-0.502-0.226-0.706-0.044l-1.482,1.311c-0.207,0.183-0.226,0.499-0.044,0.706
			C13.113,3.774,13.251,3.831,13.389,3.831z"/>
		<path d="M13.506,5.248c-0.034,0.274,0.161,0.524,0.434,0.558l1.964,0.242c0.022,0.003,0.042,0.004,0.063,0.004
			c0.248,0,0.464-0.186,0.495-0.438c0.034-0.274-0.161-0.524-0.435-0.558l-1.964-0.243C13.782,4.772,13.539,4.975,13.506,5.248z"/>
		<path d="M9.197,3.705C9.292,3.79,9.41,3.831,9.528,3.831c0.138,0,0.276-0.057,0.375-0.169c0.183-0.207,0.163-0.523-0.044-0.706
			L8.376,1.645C8.17,1.463,7.852,1.481,7.67,1.689C7.487,1.896,7.507,2.212,7.714,2.395L9.197,3.705z"/>
		<path d="M6.95,6.053c0.02,0,0.041-0.001,0.063-0.004l1.964-0.242C9.25,5.773,9.445,5.523,9.411,5.248
			C9.377,4.975,9.135,4.773,8.854,4.814L6.89,5.057C6.616,5.09,6.421,5.34,6.455,5.615C6.486,5.867,6.702,6.053,6.95,6.053z"/>
		<path d="M11.5,11.5C9.015,11.5,7,13.515,7,16c0,2.486,2.015,4.5,4.5,4.5S16,18.486,16,16C16,13.515,13.985,11.5,11.5,11.5z
			 M13.479,17h-1.902c-0.026-0.011-0.05,0-0.077,0c-0.276,0-0.5-0.224-0.5-0.5v-2.458c0-0.276,0.224-0.5,0.5-0.5s0.5,0.224,0.5,0.5
			V16h1.479c0.276-0.016,0.5,0.208,0.5,0.484C13.979,16.761,13.756,16.984,13.479,17z"/>
		<path d="M9.223,11H9V8H5.5C5.224,8,5,8.224,5,8.5V13h1.897C7.464,12.131,8.271,11.436,9.223,11z"/>
		<path d="M14,11h-0.223c0.952,0.436,1.759,1.131,2.326,2H18V8.5C18,8.224,17.776,8,17.5,8H14V11z"/>
		<path d="M10,10.714c0.477-0.136,0.979-0.214,1.5-0.214s1.023,0.078,1.5,0.214V8h-1V5c0-0.276-0.224-0.5-0.5-0.5S11,4.724,11,5v3
			h-1V10.714z"/>
		<path d="M10,21.287V24h3v-2.713c-0.477,0.136-0.979,0.213-1.5,0.213S10.477,21.422,10,21.287z"/>
		<path d="M6.897,19H5v4.5C5,23.776,5.224,24,5.5,24H9v-3h0.223C8.271,20.565,7.464,19.869,6.897,19z"/>
		<path d="M18.5,14H18h-1.382C16.861,14.621,17,15.294,17,16s-0.139,1.379-0.382,2H18h0.5c0.276,0,0.5-0.224,0.5-0.5v-3
			C19,14.224,18.776,14,18.5,14z"/>
		<path d="M6.382,18C6.139,17.379,6,16.706,6,16s0.139-1.379,0.382-2H5H4.5C4.224,14,4,14.224,4,14.5v3C4,17.776,4.224,18,4.5,18H5
			H6.382z"/>
		<path d="M13.777,21H14v3h3.5c0.276,0,0.5-0.224,0.5-0.5V19h-1.896C15.536,19.869,14.729,20.565,13.777,21z"/>
	</g>
</g>
<g id="invisible_shape">
	<rect fill="none" width="24" height="24"/>
</g>
</svg>
