<?xml version="1.0" encoding="utf-8"?>
<!-- Generator: Adobe Illustrator 19.2.0, SVG Export Plug-In . SVG Version: 6.00 Build 0)  -->
<svg version="1.1" xmlns="http://www.w3.org/2000/svg" xmlns:xlink="http://www.w3.org/1999/xlink" x="0px" y="0px" width="24px"
	 height="24px" viewBox="0 0 24 24" enable-background="new 0 0 24 24" xml:space="preserve">
<g id="Filled_Icons">
	<path d="M19.858,18.002c-0.489-1.914-2.366-3.236-4.376-2.967c-0.703-1.25-2.03-2.04-3.482-2.04s-2.78,0.79-3.484,2.04
		c-2.022-0.271-3.887,1.055-4.375,2.967C2.441,17.931,1,19.291,1,20.996C1,23.21,2.733,24,4.356,24c0.087,0,15.18,0,15.307,0
		c0.398,0,1.174-0.056,1.887-0.432c0.661-0.351,1.45-1.082,1.45-2.573C23,19.29,21.53,17.914,19.858,18.002z"/>
	<g>
		<path d="M15.477,7.014h-0.457v1h0.457c0.396,0,0.455-0.065,0.455-0.5C15.932,7.079,15.872,7.014,15.477,7.014z"/>
		<path d="M8.981,7.514c0-0.439-0.056-0.5-0.455-0.5H8.068v1h0.457C8.925,8.014,8.981,7.953,8.981,7.514z"/>
		<path d="M12,0.038c-4.335,0-9,1.708-9,5.458v11.642c0.138-0.035,0.272-0.078,0.414-0.099C4.178,15.239,5.954,14,7.978,14
			C7.985,14,7.992,14,8,14c0.932-1.244,2.405-2.004,4-2.004s3.068,0.761,3.999,2.004c0.007,0,0.015,0,0.023,0
			c2.024,0,3.8,1.238,4.564,3.039c0.143,0.02,0.276,0.063,0.414,0.099V5.496C21,1.746,16.335,0.038,12,0.038z M9.932,10.298
			c0.119,0.249,0.014,0.547-0.235,0.667c-0.07,0.033-0.144,0.049-0.216,0.049c-0.187,0-0.365-0.105-0.451-0.285L8.21,9.014H8.068
			v1.5c0,0.276-0.224,0.5-0.5,0.5c-0.276,0-0.5-0.224-0.568-0.5v-4c0.068-0.276,0.292-0.5,0.568-0.5h0.957
			c0.664,0,1.455,0.26,1.455,1.5c0,0.791-0.323,1.181-0.729,1.361L9.932,10.298z M12,10.514c0,0.276-0.224,0.5-0.5,0.5
			s-0.5-0.224-0.5-0.5v-4c0-0.276,0.224-0.5,0.5-0.5s0.5,0.224,0.5,0.5V10.514z M15.477,9.014h-0.457v1.5c0,0.276-0.224,0.5-0.5,0.5
			c-0.276,0-0.5-0.224-0.519-0.5v-4c0.019-0.276,0.243-0.5,0.519-0.5h0.957c0.664,0,1.455,0.26,1.455,1.5
			C16.932,8.754,16.141,9.014,15.477,9.014z"/>
	</g>
</g>
<g id="invisible_shape">
	<rect fill="none" width="24" height="24"/>
</g>
</svg>
