<?xml version="1.0" encoding="utf-8"?>
<!-- Generator: Adobe Illustrator 19.2.0, SVG Export Plug-In . SVG Version: 6.00 Build 0)  -->
<svg version="1.1" xmlns="http://www.w3.org/2000/svg" xmlns:xlink="http://www.w3.org/1999/xlink" x="0px" y="0px" width="24px"
	 height="24px" viewBox="0 0 24 24" enable-background="new 0 0 24 24" xml:space="preserve">
<g id="Filled_Icons">
	<path d="M12,0C5.383,0,0,5.383,0,12c0,6.617,5.383,12,12,12s12-5.383,12-12C24,5.383,18.617,0,12,0z M12,3.5
		c1.381,0,2.5,1.119,2.5,2.5S13.381,8.5,12,8.5S9.5,7.381,9.5,6S10.619,3.5,12,3.5z M19.158,7.801l-1.07,1.08l0.766,0.766
		c0.195,0.195,0.195,0.512,0,0.707c-0.195,0.195-0.512,0.195-0.707,0l-0.763-0.763L14.5,12.5V14l1.869,2.694l0.84-0.601
		c0.226-0.16,0.537-0.109,0.698,0.117c0.16,0.224,0.108,0.537-0.116,0.697l-0.853,0.608l0.684,0.984
		c0.357,0.563,0.222,1.306-0.312,1.706c-0.58,0.434-1.398,0.3-1.81-0.289l-0.654-0.906l-0.555,0.396
		c-0.23,0.161-0.539,0.107-0.698-0.117c-0.16-0.224-0.108-0.537,0.116-0.697L14.26,18.2l-1.441-1.994
		c-0.398-0.568-1.24-0.568-1.639,0L9.93,18.335l0.361,0.258c0.225,0.161,0.276,0.473,0.116,0.697
		c-0.159,0.223-0.469,0.278-0.698,0.117l-0.288-0.206L9,19.917c-0.412,0.589-1.231,0.724-1.811,0.289
		c-0.533-0.4-0.669-1.144-0.312-1.706l0.459-0.788l-1.128-0.805c-0.225-0.161-0.276-0.473-0.116-0.697
		c0.161-0.226,0.472-0.276,0.698-0.117l1.052,0.751L9.5,14v-1.5L6.616,9.591l-0.763,0.763c-0.195,0.195-0.512,0.195-0.707,0
		c-0.195-0.195-0.195-0.512,0-0.707l0.766-0.766l-1.07-1.08c-0.44-0.397-0.457-1.08-0.039-1.498c0.403-0.403,1.057-0.403,1.46,0
		c0.273,0.273,0.679,0.654,1.143,1.084l0.74-0.74c0.195-0.195,0.512-0.195,0.707,0s0.195,0.512,0,0.707L8.144,8.063
		c0.385,0.35,0.786,0.712,1.181,1.064c1.521,1.362,3.82,1.359,5.339-0.004c0.398-0.357,0.801-0.72,1.184-1.067l-0.701-0.702
		c-0.195-0.195-0.195-0.512,0-0.707s0.512-0.195,0.707,0l0.734,0.735c0.507-0.464,0.924-0.854,1.149-1.079
		c0.403-0.403,1.057-0.403,1.46,0C19.615,6.721,19.6,7.404,19.158,7.801z"/>
</g>
<g id="invisible_shape">
	<rect fill="none" width="24" height="24"/>
</g>
</svg>
