<?xml version="1.0" encoding="utf-8"?>
<!-- Generator: Adobe Illustrator 16.0.3, SVG Export Plug-In . SVG Version: 6.00 Build 0)  -->
<!DOCTYPE svg PUBLIC "-//W3C//DTD SVG 1.1//EN" "http://www.w3.org/Graphics/SVG/1.1/DTD/svg11.dtd">
<svg version="1.1" xmlns="http://www.w3.org/2000/svg" xmlns:xlink="http://www.w3.org/1999/xlink" x="0px" y="0px" width="24px"
	 height="24px" viewBox="0 0 24 24" enable-background="new 0 0 24 24" xml:space="preserve">
<g id="Outline_Icons_1_">
	<g id="Outline_Icons">
	</g>
	<g id="New_icons_1_">
		<g>
			<g>
				<path fill="none" stroke="#000000" stroke-linejoin="round" stroke-miterlimit="10" d="M7,12.5V12
					c0-0.55,0.433-1.123,0.961-1.274L10.5,10V8.604"/>
				<path fill="none" stroke="#000000" stroke-linejoin="round" stroke-miterlimit="10" d="M13.5,8.604V10l2.538,0.726
					C16.567,10.877,17,11.45,17,12v0.5"/>
				<ellipse fill="none" stroke="#000000" stroke-linejoin="round" stroke-miterlimit="10" cx="12" cy="5.771" rx="3" ry="3.272"/>
				<path fill="none" stroke="#000000" stroke-linejoin="round" stroke-miterlimit="10" d="M14.958,5.213
					c-0.5,0.5-1.919,0.461-2.458-0.542c-1,1-2.625,1-3.434,0.429"/>
			</g>
			
				<circle fill="none" stroke="#000000" stroke-linecap="round" stroke-linejoin="round" stroke-miterlimit="10" cx="4.5" cy="17.015" r="2.5"/>
			
				<circle fill="none" stroke="#000000" stroke-linecap="round" stroke-linejoin="round" stroke-miterlimit="10" cx="12" cy="17.015" r="2.5"/>
			
				<circle fill="none" stroke="#000000" stroke-linecap="round" stroke-linejoin="round" stroke-miterlimit="10" cx="19.5" cy="17.015" r="2.5"/>
			<path fill="none" stroke="#000000" stroke-linecap="round" stroke-linejoin="round" stroke-miterlimit="10" d="M19.5,19.507
				c-1.733,0-3.194,1.112-3.75,2.654c-0.556-1.542-2.017-2.648-3.75-2.648s-3.194,1.109-3.75,2.65
				c-0.556-1.541-2.017-2.656-3.75-2.656c-2.21,0-4,1.993-4,3.993h23C23.5,21.5,21.71,19.507,19.5,19.507z"/>
			<path fill="none" stroke="#000000" stroke-linecap="round" stroke-linejoin="round" stroke-miterlimit="10" d="M20.5,10.5
				c0,1.101-0.9,2-2,2h-13c-1.1,0-2-0.899-2-2v-8c0-1.1,0.9-2,2-2h13c1.1,0,2,0.9,2,2V10.5z"/>
		</g>
	</g>
</g>
<g id="Invisible_Shape">
	<rect fill="none" width="24" height="24"/>
</g>
</svg>
