<?xml version="1.0" encoding="utf-8"?>
<!-- Generator: Adobe Illustrator 16.0.3, SVG Export Plug-In . SVG Version: 6.00 Build 0)  -->
<!DOCTYPE svg PUBLIC "-//W3C//DTD SVG 1.1//EN" "http://www.w3.org/Graphics/SVG/1.1/DTD/svg11.dtd">
<svg version="1.1" xmlns="http://www.w3.org/2000/svg" xmlns:xlink="http://www.w3.org/1999/xlink" x="0px" y="0px" width="24px"
	 height="24px" viewBox="0 0 24 24" enable-background="new 0 0 24 24" xml:space="preserve">
<g id="Outline_Icons_1_">
	<g id="Outline_Icons">
		<g>
			<g>
				<circle fill="none" stroke="#000000" stroke-linejoin="round" stroke-miterlimit="10" cx="8.5" cy="15.5" r="3"/>
				<path fill="none" stroke="#000000" stroke-linejoin="round" stroke-miterlimit="10" d="M14.851,14.143l1.577-0.911l-2-3.464
					l-1.574,0.909c-0.679-0.611-1.482-1.071-2.354-1.354V7.5h-4v1.821c-0.896,0.29-1.693,0.755-2.356,1.356L2.571,9.768l-2,3.464
					l1.578,0.912c-0.187,0.87-0.198,1.79,0,2.713l-1.578,0.911l2,3.464l1.574-0.909c0.679,0.612,1.483,1.072,2.354,1.354V23.5h4
					v-1.821c0.896-0.289,1.692-0.755,2.356-1.355l1.572,0.908l2-3.464l-1.578-0.91C15.037,15.987,15.048,15.066,14.851,14.143z"/>
			</g>
			<g>
				<circle fill="none" stroke="#000000" stroke-linejoin="round" stroke-miterlimit="10" cx="19" cy="5" r="1.5"/>
				<path fill="none" stroke="#000000" stroke-linejoin="round" stroke-miterlimit="10" d="M22.39,4.197l1.007-0.582l-1-1.732
					L21.39,2.465c-0.385-0.363-0.85-0.648-1.39-0.81V0.5h-2v1.156c-0.522,0.156-0.998,0.432-1.395,0.806l-1.002-0.579l-1,1.732
					l1,0.577c-0.13,0.548-0.118,1.094,0.005,1.61l-1.005,0.581l1,1.732l1.005-0.581c0.386,0.364,0.851,0.65,1.392,0.812V9.5h2V8.344
					c0.522-0.157,0.998-0.433,1.395-0.807l1.002,0.579l1-1.732l-1.001-0.578C22.525,5.257,22.512,4.712,22.39,4.197z"/>
			</g>
		</g>
	</g>
	<g id="New_icons_1_">
	</g>
</g>
<g id="Invisible_Shape">
	<rect fill="none" width="24" height="24"/>
</g>
</svg>
