<?xml version="1.0" encoding="utf-8"?>
<!-- Generator: Adobe Illustrator 16.0.3, SVG Export Plug-In . SVG Version: 6.00 Build 0)  -->
<!DOCTYPE svg PUBLIC "-//W3C//DTD SVG 1.1//EN" "http://www.w3.org/Graphics/SVG/1.1/DTD/svg11.dtd">
<svg version="1.1" xmlns="http://www.w3.org/2000/svg" xmlns:xlink="http://www.w3.org/1999/xlink" x="0px" y="0px" width="24px"
	 height="24px" viewBox="0 0 24 24" enable-background="new 0 0 24 24" xml:space="preserve">
<g id="Outline_Icons_1_">
	<g id="Outline_Icons">
		<g>
			<path fill="none" stroke="#000000" stroke-linecap="round" stroke-linejoin="round" stroke-miterlimit="10" d="M16.42,19.25
				l2.298,2.296l2.828-2.829l-2.296-2.297c0.452-0.74,0.794-2.054,1.004-2.921H23.5v-3h-3.247c-0.209-0.867-0.551-2.181-1.003-2.922
				l2.296-2.295l-2.829-2.829L16.42,4.75c-0.74-0.452-2.053-0.794-2.92-1.002V0.5h-3v3.248C9.633,3.956,8.319,4.298,7.579,4.75
				L5.282,2.454L2.453,5.283L4.75,7.579C4.298,8.319,3.956,9.633,3.746,10.5H0.5v3h3.246c0.21,0.867,0.552,2.181,1.004,2.921
				l-2.297,2.297l2.829,2.829l2.296-2.298"/>
			
				<line fill="none" stroke="#000000" stroke-linecap="round" stroke-linejoin="round" stroke-miterlimit="10" x1="10.5" y1="20.5" x2="13.5" y2="20.5"/>
			
				<line fill="none" stroke="#000000" stroke-linecap="round" stroke-linejoin="round" stroke-miterlimit="10" x1="10.5" y1="22.5" x2="13.5" y2="22.5"/>
			
				<line fill="none" stroke="#000000" stroke-linecap="round" stroke-linejoin="round" stroke-miterlimit="10" x1="12" y1="22.5" x2="12" y2="23.5"/>
			<path fill="none" stroke="#000000" stroke-linecap="round" stroke-linejoin="round" stroke-miterlimit="10" d="M17.869,12.044
				C17.869,8.982,15.241,6.5,12,6.5c-3.242,0-5.869,2.482-5.869,5.544c0,2.525,1.922,4.655,4.369,5.323V18.5h3v-1.133
				C15.947,16.699,17.869,14.569,17.869,12.044z"/>
		</g>
	</g>
	<g id="New_icons_1_">
	</g>
</g>
<g id="Invisible_Shape">
	<rect fill="none" width="24" height="24"/>
</g>
</svg>
