<?xml version="1.0" encoding="utf-8"?>
<!-- Generator: Adobe Illustrator 16.0.3, SVG Export Plug-In . SVG Version: 6.00 Build 0)  -->
<!DOCTYPE svg PUBLIC "-//W3C//DTD SVG 1.1//EN" "http://www.w3.org/Graphics/SVG/1.1/DTD/svg11.dtd">
<svg version="1.1" xmlns="http://www.w3.org/2000/svg" xmlns:xlink="http://www.w3.org/1999/xlink" x="0px" y="0px" width="24px"
	 height="24px" viewBox="0 0 24 24" enable-background="new 0 0 24 24" xml:space="preserve">
<g id="Outline_Icons_1_">
	<g id="Outline_Icons">
		<g>
			<g>
				
					<circle fill="none" stroke="#000000" stroke-linecap="round" stroke-linejoin="round" stroke-miterlimit="10" cx="10.5" cy="10.5" r="10"/>
				
					<line fill="none" stroke="#000000" stroke-linecap="round" stroke-linejoin="round" stroke-miterlimit="10" x1="17.572" y1="17.573" x2="23.5" y2="23.5"/>
			</g>
			<path fill="none" stroke="#000000" stroke-linecap="round" stroke-linejoin="round" stroke-miterlimit="10" d="M15.361,9.425
				l1.518-0.876l-1.5-2.598l-1.511,0.872C13.345,6.343,12.722,5.957,12,5.73V4H9v1.738C8.307,5.957,7.677,6.335,7.139,6.827
				L5.62,5.951l-1.5,2.598l1.522,0.879c-0.161,0.729-0.157,1.455-0.003,2.147L4.12,12.451l1.5,2.598l1.511-0.872
				c0.523,0.48,1.146,0.865,1.869,1.092V17h3v-1.737c0.694-0.219,1.323-0.597,1.862-1.09l1.517,0.875l1.5-2.598l-1.521-0.877
				C15.52,10.844,15.516,10.117,15.361,9.425z"/>
			<circle fill="none" stroke="#000000" stroke-miterlimit="10" cx="10.5" cy="10.5" r="2"/>
		</g>
	</g>
	<g id="New_icons_1_">
	</g>
</g>
<g id="Invisible_Shape">
	<rect fill="none" width="24" height="24"/>
</g>
</svg>
