<?xml version="1.0" encoding="utf-8"?>
<!-- Generator: Adobe Illustrator 16.0.3, SVG Export Plug-In . SVG Version: 6.00 Build 0)  -->
<!DOCTYPE svg PUBLIC "-//W3C//DTD SVG 1.1//EN" "http://www.w3.org/Graphics/SVG/1.1/DTD/svg11.dtd">
<svg version="1.1" xmlns="http://www.w3.org/2000/svg" xmlns:xlink="http://www.w3.org/1999/xlink" x="0px" y="0px" width="24px"
	 height="24px" viewBox="0 0 24 24" enable-background="new 0 0 24 24" xml:space="preserve">
<g id="Outline_Icons_1_">
	<g id="Outline_Icons">
	</g>
	<g id="New_icons_1_">
		<g>
			<path fill="none" stroke="#000000" stroke-linecap="round" stroke-linejoin="round" stroke-miterlimit="10" d="M23.5,19.912
				c0,0.877-0.671,1.588-1.5,1.588H2c-0.828,0-1.5-0.71-1.5-1.588V5.088C0.5,4.211,1.172,3.5,2,3.5h20c0.829,0,1.5,0.711,1.5,1.588
				V19.912z"/>
			
				<line fill="none" stroke="#000000" stroke-linecap="round" stroke-linejoin="round" stroke-miterlimit="10" x1="5" y1="23.5" x2="19" y2="23.5"/>
			
				<line fill="none" stroke="#000000" stroke-linecap="round" stroke-linejoin="round" stroke-miterlimit="10" x1="12" y1="21.5" x2="12" y2="23.5"/>
			<circle fill="none" stroke="#000000" stroke-linejoin="round" stroke-miterlimit="10" cx="12" cy="19.5" r="0.5"/>
			<line fill="none" stroke="#000000" stroke-linejoin="round" stroke-miterlimit="10" x1="0.5" y1="17.5" x2="23.5" y2="17.5"/>
			<circle fill="none" stroke="#000000" stroke-linejoin="round" stroke-miterlimit="10" cx="12" cy="10.5" r="2"/>
			<path fill="none" stroke="#000000" stroke-linejoin="round" stroke-miterlimit="10" d="M15.959,9.946l1.121-0.647l-1.5-2.598
				l-1.121,0.648c-0.285-0.224-0.611-0.397-0.959-0.539V5.5h-3v1.306c-0.34,0.139-0.656,0.325-0.946,0.55L8.42,6.701l-1.5,2.598
				l1.137,0.657c-0.051,0.371-0.067,0.74-0.017,1.099L6.92,11.701l1.5,2.598l1.122-0.648c0.285,0.223,0.611,0.396,0.958,0.537V15.5
				h3v-1.306c0.34-0.139,0.656-0.324,0.946-0.549l1.134,0.655l1.5-2.598l-1.137-0.657C15.994,10.673,16.01,10.304,15.959,9.946z"/>
		</g>
	</g>
</g>
<g id="Invisible_Shape">
	<rect fill="none" width="24" height="24"/>
</g>
</svg>
