<?xml version="1.0" encoding="utf-8"?>
<!-- Generator: Adobe Illustrator 16.0.3, SVG Export Plug-In . SVG Version: 6.00 Build 0)  -->
<!DOCTYPE svg PUBLIC "-//W3C//DTD SVG 1.1//EN" "http://www.w3.org/Graphics/SVG/1.1/DTD/svg11.dtd">
<svg version="1.1" xmlns="http://www.w3.org/2000/svg" xmlns:xlink="http://www.w3.org/1999/xlink" x="0px" y="0px" width="24px"
	 height="24px" viewBox="0 0 24 24" enable-background="new 0 0 24 24" xml:space="preserve">
<g id="Outline_Icons_1_">
	<g id="Outline_Icons">
		<path fill="none" stroke="#000000" stroke-linejoin="round" stroke-miterlimit="10" d="M17.941,8.18
			c1.456,0.616,3.202,0.334,4.388-0.853c1.188-1.188,1.471-2.858,0.854-4.315L21.27,5H19V2.73l1.988-1.914
			C19.532,0.2,17.823,0.483,16.637,1.67c-1.188,1.187-1.452,2.933-0.836,4.389L6.059,15.82c-1.456-0.616-3.202-0.334-4.388,0.854
			C0.483,17.86,0.2,19.531,0.816,20.988L2.73,19H5v2.27l-1.989,1.914c1.456,0.617,3.165,0.333,4.352-0.854
			c1.188-1.187,1.452-2.932,0.836-4.388L17.941,8.18z"/>
		<path fill="none" stroke="#000000" stroke-linejoin="round" stroke-miterlimit="10" d="M12,14.128l3.82,3.813
			c-0.616,1.456-0.334,3.202,0.854,4.387c1.187,1.188,2.857,1.471,4.314,0.854L19,21.27V19h2.27l1.914,1.989
			c0.616-1.456,0.333-3.165-0.854-4.352c-1.187-1.188-2.933-1.451-4.389-0.836l-3.81-3.802"/>
		<path fill="none" stroke="#000000" stroke-linejoin="round" stroke-miterlimit="10" d="M11.999,9.871L8.18,6.059
			c0.616-1.456,0.334-3.202-0.854-4.388C6.14,0.483,4.469,0.2,3.012,0.816L5,2.73V5H2.73L0.816,3.012
			C0.2,4.469,0.483,6.177,1.67,7.363C2.856,8.551,4.603,8.815,6.059,8.2l3.809,3.801"/>
	</g>
	<g id="New_icons_1_">
	</g>
</g>
<g id="Invisible_Shape">
	<rect fill="none" width="24" height="24"/>
</g>
</svg>
