<?xml version="1.0" encoding="utf-8"?>
<!-- Generator: Adobe Illustrator 19.2.1, SVG Export Plug-In . SVG Version: 6.00 Build 0)  -->
<svg version="1.1" xmlns="http://www.w3.org/2000/svg" xmlns:xlink="http://www.w3.org/1999/xlink" x="0px" y="0px" width="24px"
	 height="24px" viewBox="0 0 24 24" enable-background="new 0 0 24 24" xml:space="preserve">
<g id="Filled_Icon">
	<g>
		<path d="M22.5,0H18v2h0.5C19.327,2,20,2.673,20,3.5S19.327,5,18.5,5H18v1h0.5C19.327,6,20,6.673,20,7.5S19.327,9,18.5,9H18v1h0.5
			c0.827,0,1.5,0.673,1.5,1.5S19.327,13,18.5,13H18v11h4.5c0.276,0,0.5-0.224,0.5-0.5v-23C23,0.224,22.776,0,22.5,0z"/>
		<path d="M17,13h-0.5c-0.827,0-1.5-0.673-1.5-1.5s0.673-1.5,1.5-1.5H17V9h-0.5C15.673,9,15,8.327,15,7.5S15.673,6,16.5,6H17V5h-0.5
			C15.673,5,15,4.327,15,3.5S15.673,2,16.5,2H17V0h-5v2h0.5C13.327,2,14,2.673,14,3.5S13.327,5,12.5,5H12v10h0.5
			c0.827,0,1.5,0.673,1.5,1.5c0,0.827-0.673,1.5-1.5,1.5H12v1h0.5c0.827,0,1.5,0.673,1.5,1.5S13.327,22,12.5,22H12v2h5V13z"/>
		<path d="M5,22H4.5C3.673,22,3,21.327,3,20.5S3.673,19,4.5,19H5V9H4.5C3.673,9,3,8.327,3,7.5S3.673,6,4.5,6H5V5H4.5
			C3.673,5,3,4.327,3,3.5S3.673,2,4.5,2H5V0H0.5C0.224,0,0,0.224,0,0.5v23C0,23.776,0.224,24,0.5,24H5V22z"/>
		<path d="M11,22h-0.5C9.673,22,9,21.327,9,20.5S9.673,19,10.5,19H11v-1h-0.5C9.673,18,9,17.327,9,16.5c0-0.827,0.673-1.5,1.5-1.5
			H11V5h-0.5C9.673,5,9,4.327,9,3.5S9.673,2,10.5,2H11V0H6v2h0.5C7.327,2,8,2.673,8,3.5S7.327,5,6.5,5H6v1h0.5
			C7.327,6,8,6.673,8,7.5S7.327,9,6.5,9H6v10h0.5C7.327,19,8,19.673,8,20.5S7.327,22,6.5,22H6v2h5V22z"/>
	</g>
</g>
<g id="Invisibla_Shape">
	<rect fill="none" width="24" height="24"/>
</g>
</svg>
