<?xml version="1.0" encoding="utf-8"?>
<!-- Generator: Adobe Illustrator 19.2.1, SVG Export Plug-In . SVG Version: 6.00 Build 0)  -->
<svg version="1.1" xmlns="http://www.w3.org/2000/svg" xmlns:xlink="http://www.w3.org/1999/xlink" x="0px" y="0px" width="24px"
	 height="24px" viewBox="0 0 24 24" enable-background="new 0 0 24 24" xml:space="preserve">
<g id="Filled_Icon">
	<g>
		<path d="M9.5,21h-8C0.672,21,0,21.672,0,22.5v1C0,23.775,0.224,24,0.5,24h10c0.276,0,0.5-0.225,0.5-0.5v-1
			C11,21.672,10.327,21,9.5,21z"/>
		<path d="M1.5,20h8c0.276,0,0.5-0.225,0.5-0.5v-1c0-0.828-0.673-1.5-1.5-1.5h-6C1.673,17,1,17.672,1,18.5v1
			C1,19.775,1.224,20,1.5,20z"/>
		<path d="M6.853,7.646C5.44,6.236,3.234,8.443,4.647,9.854l4.5,4.5c1.417,1.418,3.615-0.8,2.207-2.208L6.853,7.646z"/>
		<path d="M16.146,7.353c1.409,1.41,3.622-0.794,2.207-2.207l-4.5-4.5c-1.413-1.41-3.619,0.797-2.207,2.207L16.146,7.353z"/>
		<path d="M23.707,18.292l-9.397-9.396l0.834-0.835c0.195-0.195,0.195-0.512,0-0.706l-3.5-3.5c-0.188-0.188-0.519-0.188-0.707,0
			L7.854,6.938c-0.195,0.196-0.195,0.512,0,0.707l3.5,3.5c0.195,0.196,0.512,0.196,0.707,0l0.835-0.834l9.396,9.396
			c0.391,0.392,1.023,0.392,1.414,0C24.098,19.316,24.098,18.684,23.707,18.292z"/>
	</g>
</g>
<g id="Invisibla_Shape">
	<rect fill="none" width="24" height="24"/>
</g>
</svg>
