<?xml version="1.0" encoding="utf-8"?>
<!-- Generator: Adobe Illustrator 19.2.1, SVG Export Plug-In . SVG Version: 6.00 Build 0)  -->
<svg version="1.1" xmlns="http://www.w3.org/2000/svg" xmlns:xlink="http://www.w3.org/1999/xlink" x="0px" y="0px" width="24px"
	 height="24px" viewBox="0 0 24 24" enable-background="new 0 0 24 24" xml:space="preserve">
<g id="Filled_Icon">
	<g>
		<path d="M22.5,23h-22C0.224,23,0,23.224,0,23.5S0.224,24,0.5,24h22c0.276,0,0.5-0.224,0.5-0.5S22.776,23,22.5,23z"/>
		<path d="M0.5,11h22c0.463,0,0.677-0.577,0.326-0.879l-10.469-9c-0.181-0.156-0.446-0.163-0.634-0.015l-11.531,9
			C-0.18,10.398,0.025,11,0.5,11z"/>
		<path d="M0.5,21C0.224,21,0,21.224,0,21.5S0.224,22,0.5,22H3V12H0.5C0.224,12,0,12.224,0,12.5S0.224,13,0.5,13H1v8H0.5z"/>
		<path d="M6.5,13C6.776,13,7,12.776,7,12.5S6.776,12,6.5,12H4v10h2.5C6.776,22,7,21.776,7,21.5S6.776,21,6.5,21H6v-8H6.5z"/>
		<path d="M8.5,21C8.224,21,8,21.224,8,21.5S8.224,22,8.5,22H11V12H8.5C8.224,12,8,12.224,8,12.5S8.224,13,8.5,13H9v8H8.5z"/>
		<path d="M14.5,13c0.276,0,0.5-0.224,0.5-0.5S14.776,12,14.5,12H12v10h2.5c0.276,0,0.5-0.224,0.5-0.5S14.776,21,14.5,21H14v-8H14.5
			z"/>
		<path d="M16.5,21c-0.276,0-0.5,0.224-0.5,0.5s0.224,0.5,0.5,0.5H19V12h-2.5c-0.276,0-0.5,0.224-0.5,0.5s0.224,0.5,0.5,0.5H17v8
			H16.5z"/>
		<path d="M22.5,21H22v-8h0.5c0.276,0,0.5-0.224,0.5-0.5S22.776,12,22.5,12H20v10h2.5c0.276,0,0.5-0.224,0.5-0.5S22.776,21,22.5,21z
			"/>
	</g>
</g>
<g id="Invisibla_Shape">
	<rect fill="none" width="24" height="24"/>
</g>
</svg>
