<?xml version="1.0" encoding="utf-8"?>
<!-- Generator: Adobe Illustrator 19.2.1, SVG Export Plug-In . SVG Version: 6.00 Build 0)  -->
<svg version="1.1" xmlns="http://www.w3.org/2000/svg" xmlns:xlink="http://www.w3.org/1999/xlink" x="0px" y="0px" width="24px"
	 height="24px" viewBox="0 0 24 24" enable-background="new 0 0 24 24" xml:space="preserve">
<g id="Filled_Icon">
	<g>
		<path d="M23.5,18H7v-3.466c1.951-0.934,3-3.735,3-6.034C10,8.224,9.776,8,9.5,8h-9C0.224,8,0,8.224,0,8.5
			c0,2.298,1.049,5.1,3,6.034V18H0.5C0.224,18,0,18.224,0,18.5S0.224,19,0.5,19h9.959l-3.35,4.188C6.848,23.515,7.082,24,7.5,24h8
			c0.418,0,0.652-0.485,0.391-0.812L12.541,19H23.5c0.276,0,0.5-0.224,0.5-0.5S23.776,18,23.5,18z"/>
		<path d="M18.5,16c3.032,0,5.5-2.467,5.5-5.5S21.532,5,18.5,5S13,7.467,13,10.5S15.468,16,18.5,16z M18.5,11
			c-0.915,0-1.659-0.744-1.659-1.659c0-0.739,0.489-1.359,1.159-1.573V7.41c0-0.276,0.224-0.5,0.5-0.5S19,7.133,19,7.41v0.358
			c0.67,0.214,1.159,0.834,1.159,1.573c0,0.276-0.224,0.5-0.5,0.5c-0.276,0-0.5-0.224-0.5-0.5c0-0.364-0.296-0.659-0.659-0.659
			s-0.659,0.295-0.659,0.659C17.841,9.706,18.137,10,18.5,10c0.915,0,1.659,0.744,1.659,1.659c0,0.74-0.489,1.36-1.159,1.574v0.358
			c0,0.276-0.224,0.5-0.5,0.5s-0.5-0.224-0.5-0.5v-0.358c-0.67-0.213-1.159-0.834-1.159-1.574c0-0.276,0.224-0.5,0.5-0.5
			c0.276,0,0.5,0.224,0.5,0.5c0,0.363,0.296,0.659,0.659,0.659s0.659-0.296,0.659-0.659C19.159,11.296,18.863,11,18.5,11z"/>
		<circle cx="5" cy="3.5" r="3.5"/>
	</g>
</g>
<g id="Invisibla_Shape">
	<rect fill="none" width="24" height="24"/>
</g>
</svg>
