<?xml version="1.0" encoding="utf-8"?>
<!-- Generator: Adobe Illustrator 19.2.1, SVG Export Plug-In . SVG Version: 6.00 Build 0)  -->
<svg version="1.1" xmlns="http://www.w3.org/2000/svg" xmlns:xlink="http://www.w3.org/1999/xlink" x="0px" y="0px" width="24px"
	 height="24px" viewBox="0 0 24 24" enable-background="new 0 0 24 24" xml:space="preserve">
<g id="Filled_Icon">
	<g>
		<path d="M13.87,3.188l-2.062-2.579c-0.172-0.215-0.485-0.25-0.703-0.078c-0.216,0.172-0.25,0.487-0.078,0.703L12.439,3H9.469
			c-0.276,0-0.5,0.224-0.5,0.5S9.192,4,9.469,4h2.97l-1.412,1.765c-0.172,0.215-0.138,0.53,0.078,0.702
			c0.218,0.174,0.532,0.136,0.703-0.078l2.062-2.577c0.007-0.008,0.004-0.02,0.01-0.028c0.133-0.186,0.134-0.381,0-0.568
			C13.874,3.207,13.877,3.196,13.87,3.188z"/>
		<path d="M13.979,20.5c0-0.276-0.224-0.5-0.5-0.5h-2.971l1.413-1.766c0.172-0.216,0.138-0.531-0.078-0.703
			c-0.216-0.173-0.53-0.137-0.703,0.078l-2.062,2.579c-0.007,0.009-0.004,0.02-0.01,0.029c-0.134,0.187-0.133,0.382,0,0.568
			c0.006,0.008,0.003,0.02,0.01,0.028l2.062,2.577c0.173,0.217,0.49,0.25,0.703,0.078c0.216-0.172,0.25-0.487,0.078-0.702L10.51,21
			h2.97C13.756,21,13.979,20.776,13.979,20.5z"/>
		<path d="M12.062,14.204c-0.436,0-0.789-0.354-0.789-0.788c0-0.276-0.224-0.5-0.5-0.5c-0.276,0-0.5,0.224-0.5,0.5
			c0,0.791,0.52,1.456,1.234,1.691v0.641c0,0.276,0.224,0.5,0.5,0.5c0.276,0,0.5-0.224,0.5-0.5v-0.606
			c0.771-0.199,1.343-0.894,1.343-1.726c0-0.986-0.802-1.788-1.788-1.788c-0.436,0-0.789-0.354-0.789-0.789
			c0-0.435,0.354-0.788,0.789-0.788c0.435,0,0.788,0.354,0.788,0.788c0,0.277,0.224,0.5,0.5,0.5c0.276,0,0.5-0.223,0.5-0.5
			c0-0.831-0.572-1.526-1.343-1.725V8.5c0-0.276-0.224-0.5-0.5-0.5c-0.276,0-0.5,0.224-0.5,0.5v0.646
			c-0.714,0.235-1.234,0.9-1.234,1.691c0,0.986,0.803,1.789,1.789,1.789c0.435,0,0.788,0.354,0.788,0.788
			C12.851,13.85,12.497,14.204,12.062,14.204z"/>
		<circle cx="3" cy="8" r="3"/>
		<path d="M3,12c-1.654,0-3,1.346-3,3v6.5C0,21.776,0.224,22,0.5,22h5C5.776,22,6,21.776,6,21.5V15C6,13.346,4.654,12,3,12z"/>
		<circle cx="21" cy="8" r="3"/>
		<path d="M21,12c-1.654,0-3,1.346-3,3v6.5c0,0.276,0.224,0.5,0.5,0.5h5c0.276,0,0.5-0.224,0.5-0.5V15C24,13.346,22.654,12,21,12z"
			/>
	</g>
</g>
<g id="Invisibla_Shape">
	<rect fill="none" width="24" height="24"/>
</g>
</svg>
