<?xml version="1.0" encoding="utf-8"?>
<!-- Generator: Adobe Illustrator 19.2.1, SVG Export Plug-In . SVG Version: 6.00 Build 0)  -->
<svg version="1.1" xmlns="http://www.w3.org/2000/svg" xmlns:xlink="http://www.w3.org/1999/xlink" x="0px" y="0px" width="24px"
	 height="24px" viewBox="0 0 24 24" enable-background="new 0 0 24 24" xml:space="preserve">
<g id="Filled_Icon">
	<g>
		<path d="M14,20H9c-0.276,0-0.5,0.224-0.5,0.5S8.724,21,9,21h5c0.276,0,0.5-0.224,0.5-0.5S14.276,20,14,20z"/>
		<path d="M14,22H9c-0.276,0-0.5,0.224-0.5,0.5S8.724,23,9,23h2v0.5c0,0.276,0.224,0.5,0.5,0.5s0.5-0.224,0.5-0.5V23h2
			c0.276,0,0.5-0.224,0.5-0.5S14.276,22,14,22z"/>
		<path d="M11.5,0C6.262,0,2,4.038,2,9c0,3.863,2.654,7.321,6.5,8.535V18.5C8.5,18.776,8.724,19,9,19h5c0.276,0,0.5-0.224,0.5-0.5
			v-0.965C18.346,16.321,21,12.863,21,9C21,4.038,16.738,0,11.5,0z M11.5,8.422c1.403,0,2.545,1.142,2.545,2.544
			c0,1.232-0.88,2.262-2.045,2.496v0.913c0,0.276-0.224,0.5-0.5,0.5s-0.5-0.224-0.5-0.5v-0.913
			c-1.165-0.233-2.045-1.263-2.045-2.496c0-0.276,0.224-0.5,0.5-0.5c0.276,0,0.5,0.224,0.5,0.5c0,0.852,0.693,1.546,1.545,1.546
			s1.545-0.693,1.545-1.546c0-0.852-0.693-1.544-1.545-1.544c-1.403,0-2.545-1.142-2.545-2.546c0-1.232,0.88-2.261,2.045-2.494
			V3.469c0-0.276,0.224-0.5,0.5-0.5s0.5,0.224,0.5,0.5v0.913c1.165,0.233,2.045,1.262,2.045,2.494c0,0.276-0.224,0.5-0.5,0.5
			c-0.276,0-0.5-0.224-0.5-0.5c0-0.852-0.693-1.545-1.545-1.545S9.955,6.024,9.955,6.877C9.955,7.729,10.648,8.422,11.5,8.422z"/>
	</g>
</g>
<g id="Invisibla_Shape">
	<rect fill="none" width="24" height="24"/>
</g>
</svg>
