<?xml version="1.0" encoding="utf-8"?>
<!-- Generator: Adobe Illustrator 19.2.1, SVG Export Plug-In . SVG Version: 6.00 Build 0)  -->
<svg version="1.1" xmlns="http://www.w3.org/2000/svg" xmlns:xlink="http://www.w3.org/1999/xlink" x="0px" y="0px" width="24px"
	 height="24px" viewBox="0 0 24 24" enable-background="new 0 0 24 24" xml:space="preserve">
<g id="Filled_Icon">
	<g>
		<path d="M13.5,13.976c0-0.929-0.64-1.706-1.5-1.929v3.857C12.86,15.681,13.5,14.905,13.5,13.976z"/>
		<path d="M9.5,8.976c0,0.929,0.64,1.706,1.5,1.929V7.047C10.14,7.27,9.5,8.046,9.5,8.976z"/>
		<path d="M21.214,0.611c-4.06,2.834-7.414,1.94-9.316-0.425c-0.189-0.236-0.606-0.235-0.796,0C9.219,2.529,5.887,3.476,1.786,0.611
			C1.46,0.382,1,0.615,1,1.021v14.812c0,1,2.504,5.944,10.365,8.149c0.09,0.024,0.18,0.024,0.27,0
			C19.496,21.777,22,16.833,22,15.833V1.021C22,0.62,21.549,0.38,21.214,0.611z M14.5,13.976c0,1.483-1.084,2.71-2.5,2.949v1.051
			c0,0.276-0.224,0.5-0.5,0.5s-0.5-0.224-0.5-0.5v-1.051c-1.416-0.239-2.5-1.466-2.5-2.949c0-0.276,0.224-0.5,0.5-0.5
			s0.5,0.224,0.5,0.5c0,0.929,0.64,1.706,1.5,1.929v-3.979c-1.416-0.239-2.5-1.466-2.5-2.949c0-1.482,1.084-2.71,2.5-2.949V4.976
			c0-0.276,0.224-0.5,0.5-0.5s0.5,0.224,0.5,0.5v1.051c1.416,0.239,2.5,1.467,2.5,2.949c0,0.276-0.224,0.5-0.5,0.5
			s-0.5-0.224-0.5-0.5c0-0.929-0.64-1.706-1.5-1.929v3.979C13.416,11.266,14.5,12.493,14.5,13.976z"/>
	</g>
</g>
<g id="Invisibla_Shape">
	<rect fill="none" width="24" height="24"/>
</g>
</svg>
