<?xml version="1.0" encoding="utf-8"?>
<!-- Generator: Adobe Illustrator 19.2.1, SVG Export Plug-In . SVG Version: 6.00 Build 0)  -->
<svg version="1.1" xmlns="http://www.w3.org/2000/svg" xmlns:xlink="http://www.w3.org/1999/xlink" x="0px" y="0px" width="24px"
	 height="24px" viewBox="0 0 24 24" enable-background="new 0 0 24 24" xml:space="preserve">
<g id="Filled_Icon">
	<g>
		<g>
			<g>
				<g>
					<g>
						<path d="M12.246,24.02c-0.272,0-0.494-0.217-0.5-0.49c-0.006-0.276,0.214-0.504,0.489-0.51
							c2.436-0.051,4.727-0.881,6.628-2.401c0.218-0.172,0.531-0.137,0.703,0.079c0.172,0.215,0.138,0.53-0.078,0.703
							c-2.074,1.658-4.574,2.564-7.232,2.62C12.253,24.02,12.249,24.02,12.246,24.02z M9.344,23.728
							c-2.547-0.576-4.876-2.002-6.559-4.019c-0.177-0.211-0.149-0.527,0.063-0.704c0.211-0.177,0.527-0.15,0.704,0.063
							c1.543,1.848,3.678,3.156,6.012,3.684c0.269,0.061,0.438,0.329,0.377,0.598C9.879,23.631,9.593,23.79,9.344,23.728z
							 M20.835,19.402c-0.22-0.168-0.261-0.482-0.094-0.701C22.219,16.77,23,14.46,23,12.023c0-0.276,0.224-0.523,0.5-0.523
							c0.275,0,0.5,0.178,0.5,0.523c0,2.66-0.853,5.179-2.464,7.286C21.369,19.526,21.057,19.57,20.835,19.402z M1.195,17.25
							c-1.179-2.431-1.464-5.122-0.955-7.631c0.056-0.271,0.322-0.444,0.59-0.391c0.271,0.055,0.445,0.319,0.391,0.59
							c-0.461,2.267-0.219,4.742,0.875,6.996c0.12,0.249,0.017,0.548-0.232,0.668C1.614,17.602,1.316,17.5,1.195,17.25z
							 M22.664,9.314c-0.587-2.318-1.949-4.42-3.836-5.916c-0.217-0.172-0.253-0.486-0.081-0.703
							c0.172-0.217,0.487-0.253,0.702-0.081c2.058,1.631,3.544,3.923,4.184,6.454c0.068,0.268-0.094,0.54-0.361,0.608
							C22.993,9.744,22.729,9.573,22.664,9.314z M1.408,7.507C1.159,7.388,1.054,7.09,1.173,6.841
							c1.132-2.36,3.039-4.316,5.37-5.508C6.789,1.21,7.089,1.305,7.216,1.551c0.126,0.246,0.028,0.547-0.218,0.673
							C4.86,3.316,3.112,5.11,2.075,7.273C1.958,7.517,1.662,7.631,1.408,7.507z M16.537,1.998c-2.186-0.99-4.683-1.233-7.018-0.694
							c-0.271,0.064-0.537-0.105-0.6-0.375C8.858,0.659,9.026,0.391,9.295,0.329c2.548-0.588,5.271-0.322,7.654,0.758
							c0.252,0.114,0.363,0.411,0.249,0.662C17.082,2.006,16.779,2.11,16.537,1.998z"/>
					</g>
				</g>
			</g>
		</g>
		<g>
			<path d="M7.647,16.354c-0.195-0.195-0.195-0.512,0-0.707l8-8c0.195-0.195,0.512-0.195,0.707,0c0.195,0.195,0.195,0.512,0,0.707
				l-8,8C8.158,16.549,7.842,16.549,7.647,16.354z"/>
		</g>
		<g>
			<path d="M9,11c-1.102,0-2-0.898-2-2c0-1.103,0.898-2,2-2s2,0.897,2,2C11,10.102,10.102,11,9,11z M9,8C8.448,8,8,8.449,8,9
				s0.448,1,1,1s1-0.449,1-1S9.552,8,9,8z"/>
		</g>
		<g>
			<path d="M15,17c-1.102,0-2-0.897-2-2c0-1.103,0.898-2,2-2s2,0.897,2,2C17,16.103,16.103,17,15,17z M15,14c-0.552,0-1,0.449-1,1
				s0.448,1,1,1s1-0.449,1-1S15.552,14,15,14z"/>
		</g>
	</g>
</g>
<g id="Invisibla_Shape">
	<rect fill="none" width="24" height="24"/>
</g>
</svg>
