<?xml version="1.0" encoding="utf-8"?>
<!-- Generator: Adobe Illustrator 19.2.1, SVG Export Plug-In . SVG Version: 6.00 Build 0)  -->
<svg version="1.1" xmlns="http://www.w3.org/2000/svg" xmlns:xlink="http://www.w3.org/1999/xlink" x="0px" y="0px" width="24px"
	 height="24px" viewBox="0 0 24 24" enable-background="new 0 0 24 24" xml:space="preserve">
<g id="Filled_Icon">
	<g>
		<g>
			<g>
				<path d="M12.246,23.996c-0.272,0-0.494-0.217-0.5-0.49c-0.006-0.276,0.214-0.504,0.489-0.51
					c2.436-0.051,4.727-0.881,6.628-2.401c0.218-0.172,0.531-0.137,0.703,0.079c0.172,0.215,0.138,0.53-0.078,0.703
					c-2.074,1.659-4.574,2.564-7.232,2.62C12.253,23.996,12.249,23.996,12.246,23.996z M9.344,23.704
					c-2.547-0.576-4.876-2.003-6.559-4.018c-0.177-0.212-0.149-0.528,0.063-0.704c0.212-0.177,0.527-0.15,0.704,0.063
					c1.543,1.848,3.678,3.156,6.012,3.683c0.269,0.062,0.438,0.33,0.377,0.6C9.879,23.607,9.593,23.766,9.344,23.704z
					 M20.835,19.378c-0.22-0.168-0.261-0.481-0.094-0.701C22.219,16.746,23,14.436,23,11.998c0-0.275,0.224-0.522,0.5-0.522
					c0.275,0,0.5,0.178,0.5,0.522c0,2.66-0.853,5.179-2.464,7.286C21.369,19.502,21.057,19.546,20.835,19.378z M1.195,17.226
					c-1.179-2.431-1.464-5.122-0.955-7.631c0.056-0.271,0.322-0.444,0.59-0.39c0.271,0.054,0.445,0.318,0.391,0.589
					c-0.461,2.267-0.219,4.742,0.875,6.996c0.12,0.249,0.017,0.548-0.232,0.668C1.614,17.578,1.316,17.476,1.195,17.226z
					 M22.664,9.29c-0.587-2.318-1.949-4.42-3.836-5.917c-0.217-0.171-0.253-0.486-0.081-0.702c0.171-0.217,0.487-0.253,0.702-0.081
					c2.058,1.632,3.544,3.924,4.184,6.454c0.068,0.268-0.094,0.54-0.361,0.607C22.993,9.72,22.729,9.549,22.664,9.29z M1.408,7.483
					C1.159,7.365,1.054,7.066,1.173,6.817c1.132-2.36,3.039-4.316,5.37-5.508C6.789,1.186,7.09,1.281,7.216,1.527
					C7.342,1.773,7.244,2.074,6.998,2.2C4.86,3.293,3.112,5.086,2.075,7.248C1.958,7.493,1.662,7.607,1.408,7.483z M16.537,1.974
					c-2.186-0.99-4.683-1.234-7.018-0.695c-0.272,0.062-0.537-0.106-0.6-0.375C8.858,0.635,9.026,0.367,9.295,0.305
					c2.547-0.588,5.271-0.322,7.654,0.758c0.252,0.114,0.363,0.41,0.249,0.662C17.082,1.982,16.779,2.086,16.537,1.974z"/>
			</g>
		</g>
		<path d="M12.5,19.5c0.553,0,1-0.448,1-1v-0.791c1.406-0.431,2.438-1.726,2.438-3.271c0-1.896-1.542-3.438-3.438-3.438
			c-0.793,0-1.438-0.645-1.438-1.438c0-0.792,0.644-1.436,1.438-1.436s1.438,0.644,1.438,1.436c0,0.552,0.447,1,1,1s1-0.448,1-1
			c0-1.545-1.031-2.839-2.438-3.271V5.5c0-0.552-0.447-1-1-1s-1,0.448-1,1v0.792c-1.406,0.432-2.438,1.726-2.438,3.271
			C9.062,11.458,10.604,13,12.5,13c0.793,0,1.438,0.644,1.438,1.438c0,0.793-0.644,1.437-1.438,1.437s-1.438-0.644-1.438-1.437
			c0-0.552-0.447-1-1-1s-1,0.448-1,1c0,1.545,1.031,2.84,2.438,3.271V18.5C11.5,19.052,11.947,19.5,12.5,19.5z"/>
	</g>
</g>
<g id="Invisibla_Shape">
	<rect fill="none" width="24" height="24"/>
</g>
</svg>
