<?xml version="1.0" encoding="utf-8"?>
<!-- Generator: Adobe Illustrator 19.2.1, SVG Export Plug-In . SVG Version: 6.00 Build 0)  -->
<svg version="1.1" xmlns="http://www.w3.org/2000/svg" xmlns:xlink="http://www.w3.org/1999/xlink" x="0px" y="0px" width="24px"
	 height="24px" viewBox="0 0 24 24" enable-background="new 0 0 24 24" xml:space="preserve">
<g id="Filled_Icon">
	<g>
		<g>
			<g>
				<g>
					<path d="M12.246,23.998c-0.272,0-0.494-0.217-0.5-0.49c-0.006-0.276,0.214-0.504,0.489-0.51
						c2.436-0.051,4.727-0.881,6.628-2.401c0.218-0.172,0.531-0.137,0.703,0.079c0.172,0.215,0.138,0.53-0.078,0.703
						c-2.074,1.658-4.574,2.564-7.232,2.62C12.253,23.998,12.249,23.998,12.246,23.998z M9.344,23.705
						c-2.547-0.576-4.876-2.003-6.559-4.019c-0.177-0.212-0.149-0.527,0.063-0.704c0.211-0.177,0.527-0.15,0.704,0.063
						c1.543,1.848,3.678,3.156,6.012,3.684c0.269,0.061,0.438,0.329,0.377,0.598C9.879,23.609,9.593,23.767,9.344,23.705z
						 M20.835,19.379c-0.22-0.168-0.261-0.481-0.094-0.7C22.219,16.748,23,14.438,23,12c0-0.276,0.224-0.523,0.5-0.523
						c0.275,0,0.5,0.178,0.5,0.523c0,2.66-0.853,5.179-2.464,7.286C21.369,19.503,21.057,19.548,20.835,19.379z M1.195,17.228
						c-1.179-2.431-1.464-5.122-0.955-7.631c0.056-0.271,0.322-0.444,0.59-0.39c0.271,0.055,0.445,0.319,0.391,0.589
						c-0.461,2.267-0.219,4.742,0.875,6.996c0.12,0.249,0.017,0.548-0.232,0.668C1.614,17.58,1.316,17.478,1.195,17.228z
						 M22.664,9.292c-0.587-2.318-1.949-4.42-3.836-5.917c-0.217-0.171-0.253-0.486-0.081-0.702
						c0.172-0.217,0.487-0.253,0.702-0.081c2.058,1.631,3.544,3.923,4.184,6.454c0.068,0.268-0.094,0.54-0.361,0.607
						C22.993,9.722,22.729,9.55,22.664,9.292z M1.408,7.485C1.159,7.366,1.054,7.067,1.173,6.818c1.132-2.36,3.039-4.316,5.37-5.508
						c0.246-0.123,0.546-0.028,0.673,0.218c0.126,0.246,0.028,0.547-0.218,0.673C4.86,3.294,3.112,5.087,2.075,7.251
						C1.958,7.495,1.662,7.608,1.408,7.485z M16.537,1.976c-2.186-0.991-4.683-1.234-7.018-0.695
						c-0.271,0.064-0.537-0.105-0.6-0.375C8.858,0.637,9.026,0.368,9.295,0.307c2.548-0.588,5.271-0.322,7.654,0.758
						c0.252,0.114,0.363,0.41,0.249,0.662C17.082,1.984,16.779,2.088,16.537,1.976z"/>
				</g>
			</g>
		</g>
		<path d="M18.803,11.383C19.525,10.835,20,9.975,20,9c0-1.654-1.346-3-3-3c-0.834,0-1.588,0.343-2.133,0.894
			c0.291,1.28,0.08,2.475-0.502,3.515c0.208,0.381,0.491,0.717,0.837,0.977c-0.263,0.116-0.51,0.264-0.747,0.427
			c1.195,1.091,2.04,2.58,2.376,4.186H21c0.276,0,0.5-0.224,0.5-0.5C21.5,13.66,20.388,12.08,18.803,11.383z"/>
		<path d="M12.035,11.425C13.206,10.727,14,9.46,14,8c0-2.206-1.794-4-4-4S6,5.794,6,8c0,1.46,0.794,2.727,1.965,3.425
			C5.703,12.372,4,14.804,4,17.5C4,17.776,4.224,18,4.5,18h11c0.276,0,0.5-0.224,0.5-0.5C16,14.804,14.297,12.372,12.035,11.425z"/>
	</g>
</g>
<g id="Invisibla_Shape">
	<rect fill="none" width="24" height="24"/>
</g>
</svg>
