<?xml version="1.0" encoding="utf-8"?>
<!-- Generator: Adobe Illustrator 19.2.1, SVG Export Plug-In . SVG Version: 6.00 Build 0)  -->
<svg version="1.1" xmlns="http://www.w3.org/2000/svg" xmlns:xlink="http://www.w3.org/1999/xlink" x="0px" y="0px" width="24px"
	 height="24px" viewBox="0 0 24 24" enable-background="new 0 0 24 24" xml:space="preserve">
<g id="Filled_Icon">
	<g>
		<g>
			<path d="M21,14.707L14.707,21c0.77,0.616,1.733,1,2.793,1c2.481,0,4.5-2.018,4.5-4.5C22,16.44,21.616,15.477,21,14.707z"/>
			<path d="M20.293,14c-0.77-0.615-1.733-1-2.793-1c-2.481,0-4.5,2.019-4.5,4.5c0,1.06,0.384,2.023,1,2.793L20.293,14z"/>
			<path d="M17.5,11c-3.584,0-6.5,2.916-6.5,6.5s2.916,6.5,6.5,6.5s6.5-2.916,6.5-6.5S21.084,11,17.5,11z M17.5,23
				c-3.033,0-5.5-2.467-5.5-5.5s2.467-5.5,5.5-5.5s5.5,2.467,5.5,5.5S20.533,23,17.5,23z"/>
		</g>
		<g>
			<path d="M17.98,3V2.5c0-1.378-1.121-2.5-2.5-2.5h-0.001H2.501H2.5C1.121,0,0,1.122,0,2.5V3H17.98z"/>
			<path d="M11.514,13c1.436-1.905,3.756-3.141,6.467-2.976V4.001H0V10.5C0,11.878,1.121,13,2.5,13c3.459,0,5.634,0,8.979,0H11.514z
				 M13.479,5h2c0.276,0,0.5,0.224,0.5,0.5S15.756,6,15.479,6h-2c-0.276,0-0.5-0.224-0.5-0.5S13.203,5,13.479,5z M6.479,8h-3
				c-0.276,0-0.5-0.224-0.5-0.5S3.203,7,3.48,7h3c0.276,0,0.5,0.224,0.5,0.5S6.756,8,6.479,8z M8.479,6h-5
				c-0.276,0-0.5-0.224-0.5-0.5S3.203,5,3.48,5h5c0.276,0,0.5,0.224,0.5,0.5S8.756,6,8.479,6z"/>
		</g>
	</g>
</g>
<g id="Invisibla_Shape">
	<rect fill="none" width="24" height="24"/>
</g>
</svg>
