<?xml version="1.0" encoding="utf-8"?>
<!-- Generator: Adobe Illustrator 19.2.1, SVG Export Plug-In . SVG Version: 6.00 Build 0)  -->
<svg version="1.1" xmlns="http://www.w3.org/2000/svg" xmlns:xlink="http://www.w3.org/1999/xlink" x="0px" y="0px" width="24px"
	 height="24px" viewBox="0 0 24 24" enable-background="new 0 0 24 24" xml:space="preserve">
<g id="Filled_Icon">
	<g>
		<path d="M14.532,15.503c0-0.829,0.672-1.5,1.5-1.5c0.828,0,1.5,0.671,1.5,1.5c0,0.478,0.184,0.904,0.468,1.244v-3.468
			c-1.549-0.496-2.766-1.726-3.242-3.279H0v7.5C0,18.878,1.121,20,2.5,20h14.912C15.717,19.206,14.532,17.496,14.532,15.503z
			 M6.5,15h-3C3.224,15,3,14.776,3,14.5S3.224,14,3.5,14h3C6.776,14,7,14.224,7,14.5S6.776,15,6.5,15z M11.5,13h-8
			C3.224,13,3,12.776,3,12.5S3.224,12,3.5,12h8c0.276,0,0.5,0.224,0.5,0.5S11.776,13,11.5,13z"/>
		<path d="M14.532,8.556c0-1.395,0.581-2.652,1.509-3.556H2.5C1.121,5,0,6.122,0,7.5V9h14.568
			C14.556,8.852,14.532,8.708,14.532,8.556z"/>
		<path d="M20.003,11.582l0.002-5.948c1.401,0.239,2.475,1.454,2.475,2.922c0,0.276,0.224,0.5,0.5,0.5s0.5-0.224,0.5-0.5
			c0-2.019-1.521-3.673-3.475-3.922L20.006,3c0-0.276-0.224-0.5-0.5-0.5c-0.276,0-0.5,0.224-0.5,0.5l-0.001,1.634
			c-1.953,0.249-3.473,1.903-3.473,3.922c0,2.019,1.519,3.674,3.471,3.924l-0.002,5.947c-1.399-0.242-2.469-1.456-2.469-2.924
			c0-0.276-0.224-0.5-0.5-0.5c-0.276,0-0.5,0.224-0.5,0.5c0,2.019,1.518,3.673,3.468,3.924V21c0,0.276,0.224,0.5,0.5,0.5
			S20,21.276,20,21v-1.571c1.957-0.247,3.479-1.903,3.479-3.925C23.479,13.483,21.958,11.829,20.003,11.582z M16.532,8.556
			c0-1.468,1.072-2.682,2.473-2.922l-0.002,5.846C17.604,11.24,16.532,10.024,16.532,8.556z M20.001,18.429l0.002-5.847
			c1.402,0.238,2.477,1.454,2.477,2.922C22.479,16.975,21.404,18.191,20.001,18.429z"/>
	</g>
</g>
<g id="Invisibla_Shape">
	<rect fill="none" width="24" height="24"/>
</g>
</svg>
