<?xml version="1.0" encoding="utf-8"?>
<!-- Generator: Adobe Illustrator 19.2.1, SVG Export Plug-In . SVG Version: 6.00 Build 0)  -->
<svg version="1.1" xmlns="http://www.w3.org/2000/svg" xmlns:xlink="http://www.w3.org/1999/xlink" x="0px" y="0px" width="24px"
	 height="24px" viewBox="0 0 24 24" enable-background="new 0 0 24 24" xml:space="preserve">
<g id="Filled_Icon">
	<g>
		<path d="M17.5,11c-3.584,0-6.5,2.916-6.5,6.5s2.916,6.5,6.5,6.5s6.5-2.916,6.5-6.5S21.084,11,17.5,11z M13.035,16.014
			c1.135-3.208,5.287-4.051,7.742-1.484v-0.568c0-0.277,0.224-0.5,0.5-0.5c0.276,0,0.5,0.223,0.5,0.5v2.221
			c0,0.276-0.224,0.5-0.5,0.5h-2.223c-0.275,0-0.5-0.224-0.5-0.5c0-0.276,0.225-0.5,0.5-0.5h1.379
			c-1.579-2.395-5.434-2.215-6.457,0.666c-0.089,0.252-0.366,0.4-0.638,0.305C13.078,16.56,12.942,16.274,13.035,16.014z
			 M21.965,18.986c-1.137,3.213-5.293,4.047-7.742,1.487v0.567c0,0.276-0.223,0.5-0.5,0.5c-0.275,0-0.5-0.224-0.5-0.5v-2.222
			c0-0.276,0.225-0.5,0.5-0.5h2.223c0.276,0,0.5,0.224,0.5,0.5c0,0.275-0.224,0.5-0.5,0.5h-1.379
			c1.577,2.396,5.435,2.215,6.457-0.667c0.092-0.26,0.378-0.396,0.638-0.304C21.922,18.44,22.058,18.726,21.965,18.986z"/>
		<g>
			<path d="M17.98,3V2.5c0-1.378-1.121-2.5-2.5-2.5h-0.001H2.501H2.5C1.121,0,0,1.122,0,2.5V3H17.98z"/>
			<path d="M11.514,13c1.436-1.905,3.756-3.141,6.467-2.976V4.001H0V10.5C0,11.878,1.121,13,2.5,13c3.459,0,5.634,0,8.979,0H11.514z
				 M13.479,5h2c0.276,0,0.5,0.224,0.5,0.5S15.756,6,15.479,6h-2c-0.276,0-0.5-0.224-0.5-0.5S13.203,5,13.479,5z M6.479,8h-3
				c-0.276,0-0.5-0.224-0.5-0.5S3.203,7,3.48,7h3c0.276,0,0.5,0.224,0.5,0.5S6.756,8,6.479,8z M8.479,6h-5
				c-0.276,0-0.5-0.224-0.5-0.5S3.203,5,3.48,5h5c0.276,0,0.5,0.224,0.5,0.5S8.756,6,8.479,6z"/>
		</g>
	</g>
</g>
<g id="Invisibla_Shape">
	<rect fill="none" width="24" height="24"/>
</g>
</svg>
