<?xml version="1.0" encoding="utf-8"?>
<!-- Generator: Adobe Illustrator 19.2.1, SVG Export Plug-In . SVG Version: 6.00 Build 0)  -->
<svg version="1.1" xmlns="http://www.w3.org/2000/svg" xmlns:xlink="http://www.w3.org/1999/xlink" x="0px" y="0px" width="24px"
	 height="24px" viewBox="0 0 24 24" enable-background="new 0 0 24 24" xml:space="preserve">
<g id="Filled_Icon">
	<g>
		<path d="M23.854,23.146l-5.597-5.594C19.955,15.686,21,13.215,21,10.5C21,4.71,16.29,0,10.5,0S0,4.71,0,10.5S4.71,21,10.5,21
			c2.715,0,5.185-1.044,7.05-2.742l5.597,5.595c0.195,0.195,0.512,0.195,0.707,0C24.049,23.659,24.049,23.342,23.854,23.146z
			 M1,10.5C1,5.262,5.262,1,10.5,1S20,5.262,20,10.5S15.738,20,10.5,20S1,15.738,1,10.5z"/>
		<g>
			<path d="M12.573,13H11.5c-0.276,0-0.5-0.224-0.5-0.5V8c0-0.276,0.224-0.5,0.5-0.5h1.073c1.044,0,1.573,0.546,1.573,1.623
				c0,0.481-0.105,0.857-0.314,1.125c0.209,0.267,0.314,0.641,0.314,1.119C14.146,12.451,13.617,13,12.573,13z M12,12
				c0.83,0,1.146,0.12,1.146-0.632c0-0.735-0.326-0.618-1.146-0.618V12z M12,9.75c0.825,0,1.146,0.118,1.146-0.627
				C13.146,8.382,12.825,8.5,12,8.5V9.75z"/>
		</g>
		<g>
			<path d="M4.427,13c-1.043,0-1.634-0.746-1.572-1.611c0.023-0.276,0.288-0.476,0.537-0.461c0.273,0.021,0.479,0.258,0.461,0.532
				c-0.003,0.071,0.014,0.28,0.13,0.402c0.176,0.183,0.716,0.184,0.89-0.002c0.129-0.135,0.129-0.365,0.129-0.367L5,8
				c0-0.276,0.224-0.5,0.5-0.5S6,7.724,6,8v3.464C6.061,12.244,5.458,13,4.427,13z"/>
		</g>
		<g>
			<path d="M8.5,13c-1.769,0-1.769-1.927-1.769-2.75s0-2.75,1.769-2.75c1.769,0,1.769,1.927,1.769,2.75S10.269,13,8.5,13z M8.5,8.5
				c-0.405,0-0.769,0.134-0.769,1.75C7.731,11.867,8.095,12,8.5,12s0.769-0.133,0.769-1.75C9.269,8.634,8.905,8.5,8.5,8.5z"/>
		</g>
		<g>
			<path d="M16.671,13c-0.83,0-1.521-0.679-1.571-1.546c-0.017-0.275,0.194-0.512,0.47-0.528c0.268-0.023,0.512,0.194,0.528,0.47
				C16.117,11.734,16.369,12,16.671,12c0.317,0,0.575-0.29,0.575-0.648c0-0.339-0.156-0.492-0.62-0.604
				c-0.913-0.231-1.527-0.626-1.527-1.6c0-0.909,0.707-1.648,1.575-1.648c0.83,0,1.521,0.679,1.571,1.546
				c0.017,0.275-0.194,0.512-0.47,0.528c-0.271,0.017-0.513-0.194-0.528-0.47C17.228,8.765,16.976,8.5,16.674,8.5
				c-0.317,0-0.575,0.29-0.575,0.648c0,0.334,0.155,0.484,0.616,0.592c0.909,0.213,1.531,0.674,1.531,1.612
				C18.246,12.261,17.539,13,16.671,13z"/>
		</g>
	</g>
</g>
<g id="Invisibla_Shape">
	<rect fill="none" width="24" height="24"/>
</g>
</svg>
