<?xml version="1.0" encoding="utf-8"?>
<!-- Generator: Adobe Illustrator 19.2.1, SVG Export Plug-In . SVG Version: 6.00 Build 0)  -->
<svg version="1.1" xmlns="http://www.w3.org/2000/svg" xmlns:xlink="http://www.w3.org/1999/xlink" x="0px" y="0px" width="24px"
	 height="24px" viewBox="0 0 24 24" enable-background="new 0 0 24 24" xml:space="preserve">
<g id="Filled_Icon">
	<path d="M21.988,11.392C21.938,11.163,21.734,11,21.5,11h-3.599l-1.913-8.608C15.938,2.163,15.734,2,15.5,2h-7
		C8.266,2,8.062,2.163,8.012,2.392L6.099,11H2.5c-0.234,0-0.438,0.163-0.488,0.392l-2,9C-0.057,20.708,0.184,21,0.5,21h11
		c0.316,0,0.557-0.292,0.488-0.608L10.123,12h3.754l-1.865,8.392C11.943,20.708,12.184,21,12.5,21h11
		c0.316,0,0.557-0.292,0.488-0.608L21.988,11.392z M6,14H4.901l-0.476,2.141c-0.059,0.266-0.322,0.44-0.597,0.38
		c-0.269-0.06-0.439-0.327-0.38-0.597l0.563-2.533C4.062,13.163,4.266,13,4.5,13H6c0.276,0,0.5,0.224,0.5,0.5S6.276,14,6,14z M12,5
		h-1.099l-0.476,2.141c-0.052,0.232-0.259,0.392-0.488,0.392c-0.035,0-0.072-0.004-0.108-0.012C9.56,7.461,9.39,7.194,9.449,6.924
		l0.562-2.533C10.062,4.163,10.266,4,10.5,4H12c0.276,0,0.5,0.224,0.5,0.5S12.276,5,12,5z M18,14h-1.099l-0.476,2.141
		c-0.059,0.266-0.322,0.44-0.597,0.38c-0.269-0.06-0.439-0.327-0.38-0.597l0.562-2.533C16.062,13.163,16.266,13,16.5,13H18
		c0.276,0,0.5,0.224,0.5,0.5S18.276,14,18,14z"/>
</g>
<g id="Invisibla_Shape">
	<rect fill="none" width="24" height="24"/>
</g>
</svg>
