<?xml version="1.0" encoding="utf-8"?>
<!-- Generator: Adobe Illustrator 19.2.1, SVG Export Plug-In . SVG Version: 6.00 Build 0)  -->
<svg version="1.1" xmlns="http://www.w3.org/2000/svg" xmlns:xlink="http://www.w3.org/1999/xlink" x="0px" y="0px" width="24px"
	 height="24px" viewBox="0 0 24 24" enable-background="new 0 0 24 24" xml:space="preserve">
<g id="Filled_Icon">
	<g>
		<g>
			<path d="M3.501,13.899l3.008-1.994l-2.732-1.821c-0.168-0.112-0.387-0.112-0.555,0l-2.72,1.814L3.501,13.899z"/>
			<path d="M4,14.768v8.993l2.786-1.944C6.92,21.723,7,21.57,7,21.407v-8.627L4,14.768z"/>
			<path d="M3,14.768l-3-2.003v8.642c0,0.164,0.08,0.316,0.214,0.41L3,23.761V14.768z"/>
		</g>
		<g>
			<path d="M11.501,8.891l3.002-1.99l-2.726-1.817c-0.168-0.112-0.387-0.112-0.555,0l-2.714,1.81L11.501,8.891z"/>
			<path d="M12,9.759v14.001l2.786-1.944C14.92,21.723,15,21.57,15,21.407V7.771L12,9.759z"/>
			<path d="M11,9.759L8,7.755v13.651c0,0.164,0.08,0.316,0.214,0.41L11,23.761V9.759z"/>
		</g>
		<g>
			<path d="M19.501,3.891l3.002-1.99l-2.726-1.817c-0.168-0.112-0.387-0.112-0.555,0l-2.714,1.81L19.501,3.891z"/>
			<path d="M19,4.759l-3-2.003v18.651c0,0.164,0.08,0.316,0.214,0.41L19,23.761V4.759z"/>
			<path d="M20,4.759v19.001l2.786-1.944C22.92,21.723,23,21.57,23,21.407V2.77L20,4.759z"/>
		</g>
	</g>
</g>
<g id="Invisibla_Shape">
	<rect fill="none" width="24" height="24"/>
</g>
</svg>
