<?xml version="1.0" encoding="utf-8"?>
<!-- Generator: Adobe Illustrator 19.2.1, SVG Export Plug-In . SVG Version: 6.00 Build 0)  -->
<svg version="1.1" xmlns="http://www.w3.org/2000/svg" xmlns:xlink="http://www.w3.org/1999/xlink" x="0px" y="0px" width="24px"
	 height="24px" viewBox="0 0 24 24" enable-background="new 0 0 24 24" xml:space="preserve">
<g id="Filled_Icon">
	<g>
		<path d="M23.5,23H23v-2.5c0-0.276-0.225-0.5-0.5-0.5h-3c-0.276,0-0.5,0.224-0.5,0.5V23h-2v-6.5c0-0.276-0.225-0.5-0.5-0.5h-3
			c-0.276,0-0.5,0.224-0.5,0.5V23h-2V12.5c0-0.276-0.225-0.5-0.5-0.5h-3C7.224,12,7,12.224,7,12.5V23H5V8.5C5,8.224,4.775,8,4.5,8
			h-3C1.224,8,1,8.224,1,8.5V23H0.5C0.224,23,0,23.224,0,23.5C0,23.775,0.224,24,0.5,24h23c0.275,0,0.5-0.225,0.5-0.5
			C24,23.224,23.775,23,23.5,23z"/>
		<path d="M19.616,13.15l-2.682,0.353c-0.274,0.036-0.467,0.287-0.431,0.562c0.034,0.255,0.26,0.462,0.561,0.429l4-0.526
			c0.006-0.002,0.011-0.006,0.017-0.007c0.272-0.047,0.444-0.298,0.414-0.553l-0.5-3.972c-0.034-0.274-0.276-0.469-0.559-0.434
			c-0.274,0.034-0.469,0.284-0.434,0.558l0.363,2.887L3.277,1.056C3.046,0.902,2.736,0.965,2.584,1.194
			c-0.153,0.23-0.092,0.54,0.139,0.693L19.616,13.15z"/>
	</g>
</g>
<g id="Invisibla_Shape">
	<rect fill="none" width="24" height="24"/>
</g>
</svg>
