<?xml version="1.0" encoding="utf-8"?>
<!-- Generator: Adobe Illustrator 19.2.1, SVG Export Plug-In . SVG Version: 6.00 Build 0)  -->
<svg version="1.1" xmlns="http://www.w3.org/2000/svg" xmlns:xlink="http://www.w3.org/1999/xlink" x="0px" y="0px" width="24px"
	 height="24px" viewBox="0 0 24 24" enable-background="new 0 0 24 24" xml:space="preserve">
<g id="Filled_Icon">
	<g>
		<path d="M23.5,3h-23C0.225,3,0,3.224,0,3.5v17C0,20.776,0.225,21,0.5,21h23c0.275,0,0.5-0.224,0.5-0.5v-17
			C24,3.224,23.775,3,23.5,3z M23,20H1V4h22V20z"/>
		<path d="M2.5,19h19c0.275,0,0.5-0.224,0.5-0.5v-13C22,5.224,21.775,5,21.5,5h-19C2.225,5,2,5.224,2,5.5v13
			C2,18.776,2.225,19,2.5,19z M4.071,15.243l3-5c0.181-0.301,0.677-0.301,0.857,0l2.638,4.396l2.049-2.46
			c0.191-0.228,0.578-0.228,0.77,0l2.039,2.447l3.643-6.375c0.137-0.239,0.442-0.323,0.682-0.186
			c0.24,0.137,0.323,0.442,0.186,0.681l-4,7c-0.162,0.29-0.584,0.354-0.818,0.073L13,13.281l-2.115,2.539
			c-0.218,0.261-0.636,0.234-0.814-0.062L7.5,11.472l-2.571,4.286c-0.143,0.24-0.453,0.311-0.687,0.171
			C4.006,15.787,3.93,15.479,4.071,15.243z"/>
	</g>
</g>
<g id="Invisibla_Shape">
	<rect fill="none" width="24" height="24"/>
</g>
</svg>
