<?xml version="1.0" encoding="utf-8"?>
<!-- Generator: Adobe Illustrator 19.2.1, SVG Export Plug-In . SVG Version: 6.00 Build 0)  -->
<svg version="1.1" xmlns="http://www.w3.org/2000/svg" xmlns:xlink="http://www.w3.org/1999/xlink" x="0px" y="0px" width="24px"
	 height="24px" viewBox="0 0 24 24" enable-background="new 0 0 24 24" xml:space="preserve">
<g id="Filled_Icon">
	<g>
		<path d="M20.5,13H11V3.5C11,3.224,10.775,3,10.5,3C4.71,3,0,7.71,0,13.5C0,19.29,4.71,24,10.5,24C16.289,24,21,19.29,21,13.5
			C21,13.224,20.775,13,20.5,13z"/>
		<path d="M13.5,0C13.224,0,13,0.224,13,0.5v10c0,0.275,0.224,0.5,0.5,0.5h10c0.275,0,0.5-0.225,0.5-0.5C24,4.71,19.289,0,13.5,0z"
			/>
	</g>
</g>
<g id="Invisibla_Shape">
	<rect fill="none" width="24" height="24"/>
</g>
</svg>
