<?xml version="1.0" encoding="utf-8"?>
<!-- Generator: Adobe Illustrator 19.2.1, SVG Export Plug-In . SVG Version: 6.00 Build 0)  -->
<svg version="1.1" xmlns="http://www.w3.org/2000/svg" xmlns:xlink="http://www.w3.org/1999/xlink" x="0px" y="0px" width="24px"
	 height="24px" viewBox="0 0 24 24" enable-background="new 0 0 24 24" xml:space="preserve">
<g id="Filled_Icon">
	<g>
		<path d="M23.5,23H23V8.5C23,8.224,22.775,8,22.5,8h-3C19.224,8,19,8.224,19,8.5V23h-2v-7.5c0-0.276-0.225-0.5-0.5-0.5h-3
			c-0.276,0-0.5,0.224-0.5,0.5V23h-2v-9.5c0-0.276-0.225-0.5-0.5-0.5h-3C7.224,13,7,13.224,7,13.5V23H5v-4.5
			C5,18.224,4.775,18,4.5,18h-3C1.224,18,1,18.224,1,18.5V23H0.5C0.224,23,0,23.224,0,23.5C0,23.775,0.224,24,0.5,24h23
			c0.275,0,0.5-0.225,0.5-0.5C24,23.224,23.775,23,23.5,23z"/>
		<path d="M3,13c1.011,0,1.776-1.005,1.402-2.018l3.836-3.197c0.686,0.406,1.485,0.212,1.938-0.366l3.327,1.108
			C13.518,9.341,14.182,10,15,10c1.117,0,1.889-1.21,1.295-2.244l4.167-4.861C21.466,3.286,22.5,2.528,22.5,1.5
			C22.5,0.672,21.826,0,21,0c-1.122,0-1.886,1.214-1.296,2.243l-4.166,4.861c-0.654-0.249-1.317-0.029-1.715,0.477l-3.326-1.108
			C10.481,5.659,9.817,5,9,5C7.977,5,7.225,6.022,7.598,7.018l-3.837,3.197C2.742,9.61,1.5,10.36,1.5,11.5C1.5,12.327,2.173,13,3,13
			z"/>
	</g>
</g>
<g id="Invisibla_Shape">
	<rect fill="none" width="24" height="24"/>
</g>
</svg>
