<?xml version="1.0" encoding="utf-8"?>
<!-- Generator: Adobe Illustrator 19.2.1, SVG Export Plug-In . SVG Version: 6.00 Build 0)  -->
<svg version="1.1" xmlns="http://www.w3.org/2000/svg" xmlns:xlink="http://www.w3.org/1999/xlink" x="0px" y="0px" width="24px"
	 height="24px" viewBox="0 0 24 24" enable-background="new 0 0 24 24" xml:space="preserve">
<g id="Filled_Icon">
	<g>
		<path d="M23.5,3h-23C0.225,3,0,3.224,0,3.5v17C0,20.776,0.225,21,0.5,21h23c0.275,0,0.5-0.224,0.5-0.5v-17
			C24,3.224,23.775,3,23.5,3z M23,20H1V4h22V20z"/>
		<path d="M2.5,19h19c0.275,0,0.5-0.224,0.5-0.5v-13C22,5.224,21.775,5,21.5,5h-19C2.225,5,2,5.224,2,5.5v13
			C2,18.776,2.225,19,2.5,19z M17,9.5C17,9.224,17.225,9,17.5,9S18,9.224,18,9.5v7c0,0.276-0.225,0.5-0.5,0.5S17,16.776,17,16.5V9.5
			z M15,12c0-0.276,0.225-0.5,0.5-0.5S16,11.724,16,12v4.5c0,0.276-0.225,0.5-0.5,0.5S15,16.776,15,16.5V12z M13,7.5
			C13,7.224,13.225,7,13.5,7S14,7.224,14,7.5v9c0,0.276-0.225,0.5-0.5,0.5S13,16.776,13,16.5V7.5z M11,14.5
			c0-0.276,0.225-0.5,0.5-0.5s0.5,0.224,0.5,0.5v2c0,0.276-0.225,0.5-0.5,0.5S11,16.776,11,16.5V14.5z M9,13.5
			C9,13.224,9.225,13,9.5,13s0.5,0.224,0.5,0.5v3c0,0.276-0.225,0.5-0.5,0.5S9,16.776,9,16.5V13.5z M7,11.5
			C7,11.224,7.225,11,7.5,11S8,11.224,8,11.5v5C8,16.776,7.775,17,7.5,17S7,16.776,7,16.5V11.5z M5,14.5C5,14.224,5.225,14,5.5,14
			S6,14.224,6,14.5v2C6,16.776,5.775,17,5.5,17S5,16.776,5,16.5V14.5z"/>
	</g>
</g>
<g id="Invisibla_Shape">
	<rect fill="none" width="24" height="24"/>
</g>
</svg>
