<?xml version="1.0" encoding="utf-8"?>
<!-- Generator: Adobe Illustrator 19.2.1, SVG Export Plug-In . SVG Version: 6.00 Build 0)  -->
<svg version="1.1" xmlns="http://www.w3.org/2000/svg" xmlns:xlink="http://www.w3.org/1999/xlink" x="0px" y="0px" width="24px"
	 height="24px" viewBox="0 0 24 24" enable-background="new 0 0 24 24" xml:space="preserve">
<g id="Filled_Icon">
	<g>
		<path d="M23.5,22H23V7.5C23,7.224,22.776,7,22.5,7h-3C19.224,7,19,7.224,19,7.5V22h-2v-7.5c0-0.276-0.224-0.5-0.5-0.5h-3
			c-0.276,0-0.5,0.224-0.5,0.5V22h-2v-9.5c0-0.276-0.224-0.5-0.5-0.5h-3C7.224,12,7,12.224,7,12.5V22H5v-4.5
			C5,17.224,4.776,17,4.5,17h-3C1.224,17,1,17.224,1,17.5V22H0.5C0.224,22,0,22.224,0,22.5S0.224,23,0.5,23h23
			c0.276,0,0.5-0.224,0.5-0.5S23.776,22,23.5,22z"/>
		<path d="M21.5,0h-4C17.224,0,17,0.224,17,0.5S17.224,1,17.5,1h2.819l-5.468,5.923L9.158,5.026c-0.166-0.057-0.345-0.02-0.479,0.09
			l-6,5c-0.212,0.177-0.24,0.492-0.063,0.705c0.175,0.21,0.489,0.242,0.704,0.064l5.786-4.822l5.735,1.912
			c0.186,0.062,0.393,0.009,0.525-0.135L21,1.737V4.5C21,4.776,21.224,5,21.5,5S22,4.776,22,4.5v-4C22,0.224,21.776,0,21.5,0z"/>
	</g>
</g>
<g id="Invisibla_Shape">
	<rect fill="none" width="24" height="24"/>
</g>
</svg>
