<?xml version="1.0" encoding="utf-8"?>
<!-- Generator: Adobe Illustrator 19.2.1, SVG Export Plug-In . SVG Version: 6.00 Build 0)  -->
<svg version="1.1" xmlns="http://www.w3.org/2000/svg" xmlns:xlink="http://www.w3.org/1999/xlink" x="0px" y="0px" width="24px"
	 height="24px" viewBox="0 0 24 24" enable-background="new 0 0 24 24" xml:space="preserve">
<g id="Filled_Icon">
	<path d="M22,14.5c1.103,0,2-0.898,2-2c0-1.103-0.897-2-2-2c-1.276,0-2.292,1.212-1.917,2.54L16.55,15.1
		c-1.094-1.111-2.963-0.602-3.354,0.9H9.648c-0.224-0.86-1-1.5-1.929-1.5c-1.279,0-2.311,1.223-1.906,2.573L1,20.236v-7.985
		l6.106-3.704c0.905,0.884,2.387,0.724,3.078-0.361l3.944,1.273c0,1.223,0.953,2.041,1.996,2.041c1.646,0,2.602-1.892,1.576-3.216
		l3.4-4.319C22.466,4.659,24,3.64,24,2.188c0-1.103-0.897-2-2-2s-2,0.897-2,2c0,0.415,0.128,0.802,0.346,1.122l-3.43,4.355
		C16.674,7.56,16.406,7.5,16.125,7.5c-0.736,0-1.373,0.404-1.721,0.998l-3.916-1.264C10.55,5.996,9.58,5.117,8.5,5.117
		c-1.293,0-2.309,1.239-1.907,2.571L1,11.08V1c0-0.276-0.224-0.5-0.5-0.5S0,0.724,0,1v22.5C0,23.776,0.224,24,0.5,24H23
		c0.276,0,0.5-0.224,0.5-0.5S23.276,23,23,23H1v-1.567l5.327-3.501c1.099,1.071,2.934,0.555,3.32-0.932h3.549
		c0.224,0.86,1,1.5,1.929,1.5c1.281,0,2.289-1.217,1.919-2.531l3.537-2.062C20.943,14.273,21.445,14.5,22,14.5z"/>
</g>
<g id="Invisibla_Shape">
	<rect fill="none" width="24" height="24"/>
</g>
</svg>
