<?xml version="1.0" encoding="utf-8"?>
<!-- Generator: Adobe Illustrator 19.2.1, SVG Export Plug-In . SVG Version: 6.00 Build 0)  -->
<svg version="1.1" xmlns="http://www.w3.org/2000/svg" xmlns:xlink="http://www.w3.org/1999/xlink" x="0px" y="0px" width="24px"
	 height="24px" viewBox="0 0 24 24" enable-background="new 0 0 24 24" xml:space="preserve">
<g id="Filled_Icon">
	<g>
		<g>
			<path d="M23.5,23h-23C0.224,23,0,22.776,0,22.5v-20C0,2.224,0.224,2,0.5,2S1,2.224,1,2.5V22h22.5c0.276,0,0.5,0.224,0.5,0.5
				S23.776,23,23.5,23z"/>
		</g>
		<g>
			<path d="M16,20c-1.69,0-3.137-1.207-3.439-2.87l-0.184-1.017c-0.049-0.272,0.131-0.531,0.403-0.582
				c0.257-0.049,0.531,0.13,0.581,0.403l0.184,1.017C13.761,18.139,14.793,19,16,19c0.276,0,0.5,0.224,0.5,0.5S16.276,20,16,20z"/>
		</g>
		<g>
			<path d="M3,20c-0.276,0-0.5-0.224-0.5-0.5S2.724,19,3,19c1.207,0,2.239-0.861,2.455-2.049l1.195-6.571C6.9,9,8.1,8,9.5,8
				c0.632,0,1.234,0.201,1.741,0.583c0.221,0.165,0.265,0.479,0.099,0.7c-0.166,0.221-0.478,0.264-0.7,0.099
				C10.308,9.132,9.914,9,9.5,9c-0.917,0-1.701,0.655-1.865,1.558L6.439,17.13C6.137,18.793,4.69,20,3,20z"/>
		</g>
		<g>
			<path d="M21,20c-1.69,0-3.137-1.207-3.44-2.87l-1.195-6.572C16.201,9.655,15.417,9,14.5,9s-1.701,0.655-1.865,1.558l-1.195,6.572
				C11.137,18.793,9.69,20,8,20c-0.276,0-0.5-0.224-0.5-0.5S7.724,19,8,19c1.207,0,2.239-0.861,2.455-2.049l1.195-6.571
				C11.9,9,13.1,8,14.5,8s2.6,1,2.85,2.379l1.195,6.571C18.761,18.139,19.793,19,21,19c0.276,0,0.5,0.224,0.5,0.5S21.276,20,21,20z"
				/>
		</g>
	</g>
</g>
<g id="Invisibla_Shape">
	<rect fill="none" width="24" height="24"/>
</g>
</svg>
