<?xml version="1.0" encoding="utf-8"?>
<!-- Generator: Adobe Illustrator 19.2.1, SVG Export Plug-In . SVG Version: 6.00 Build 0)  -->
<svg version="1.1" xmlns="http://www.w3.org/2000/svg" xmlns:xlink="http://www.w3.org/1999/xlink" x="0px" y="0px" width="24px"
	 height="24px" viewBox="0 0 24 24" enable-background="new 0 0 24 24" xml:space="preserve">
<g id="Filled_Icon">
	<path d="M24,2.188c0-0.46-0.571-0.677-0.877-0.329l-6.221,7.124l-7.249-2.34C9.524,6.599,9.383,6.612,9.263,6.677L1,11.131V1
		c0-0.276-0.224-0.5-0.5-0.5S0,0.724,0,1c0,7.902,0,14.097,0,22.5C0,23.776,0.224,24,0.5,24h23c0.276,0,0.5-0.224,0.5-0.5
		C24,21.042,24,4.573,24,2.188z M1,18.34L8.725,14h6.416c0.066,0,0.132-0.013,0.193-0.039L23,10.744v4.854l-7.899,1.743L8.622,16.97
		c-0.096-0.001-0.22,0.024-0.312,0.087L1,22.081V18.34z M9.55,7.659l7.359,2.377c0.186,0.061,0.398,0.003,0.53-0.148L23,3.52v6.14
		L15.04,13H8.594c-0.086,0-0.17,0.022-0.245,0.064L1,17.192v-4.925L9.55,7.659z M1.429,23l7.308-5.022l6.376,0.366
		c0.041,0.003,0.091-0.001,0.136-0.011L23,16.622V23H1.429z"/>
</g>
<g id="Invisibla_Shape">
	<rect fill="none" width="24" height="24"/>
</g>
</svg>
