<?xml version="1.0" encoding="utf-8"?>
<!-- Generator: Adobe Illustrator 19.2.1, SVG Export Plug-In . SVG Version: 6.00 Build 0)  -->
<svg version="1.1" xmlns="http://www.w3.org/2000/svg" xmlns:xlink="http://www.w3.org/1999/xlink" x="0px" y="0px" width="24px"
	 height="24px" viewBox="0 0 24 24" enable-background="new 0 0 24 24" xml:space="preserve">
<g id="Filled_Icon">
	<g>
		<path d="M22.854,7.637l-7.071-7.071c-0.195-0.196-0.512-0.196-0.707,0L3.055,12.586c-0.195,0.195-0.195,0.511,0,0.707l0.841,0.839
			c1.192-1.521,2.862-2.655,4.769-3.094c1.576-0.364,2.533,1.707,1.225,2.67c-0.304,0.224-0.512,0.508-0.647,0.811
			c1,0.166,3.094,1.459,3.618,3.817l9.994-9.993C23.05,8.148,23.048,7.831,22.854,7.637z M14.722,12.232
			c-0.978,0.976-2.557,0.976-3.535,0c-0.975-0.976-0.975-2.561,0-3.536c0.945-0.944,2.59-0.944,3.535,0
			C15.696,9.671,15.696,11.257,14.722,12.232z M15.782,4.102l-1.414,1.413c-0.195,0.195-0.512,0.195-0.707,0
			c-0.195-0.196-0.195-0.512,0-0.707l1.414-1.413c0.195-0.195,0.512-0.195,0.707,0C15.977,3.589,15.977,3.905,15.782,4.102z"/>
		<path d="M9.185,15.535c-0.311-0.123-0.645,0.087-0.682,0.408c-0.03,0.271-0.148,0.496-0.337,0.716
			c-0.314-1.046-0.209-2.772,1.13-3.756c0.431-0.315,0.129-1.009-0.408-0.89C5.531,12.785,3,16.003,3,19.5C3,21.982,5.019,24,7.5,24
			s4.5-2.018,4.5-4.5C12,17.689,10.974,16.244,9.185,15.535z M7.5,23c-0.883,0-1.599-0.716-1.599-1.598
			c0-1.29,0.929-2.507,2.198-2.797c-0.303,0.914,0.999,1.795,0.999,2.797C9.099,22.284,8.383,23,7.5,23z"/>
	</g>
</g>
<g id="Invisibla_Shape">
	<rect fill="none" width="24" height="24"/>
</g>
</svg>
