<?xml version="1.0" encoding="utf-8"?>
<!-- Generator: Adobe Illustrator 19.2.1, SVG Export Plug-In . SVG Version: 6.00 Build 0)  -->
<svg version="1.1" xmlns="http://www.w3.org/2000/svg" xmlns:xlink="http://www.w3.org/1999/xlink" x="0px" y="0px" width="24px"
	 height="24px" viewBox="0 0 24 24" enable-background="new 0 0 24 24" xml:space="preserve">
<g id="Filled_Icon">
	<g>
		<path d="M17.363,7.375l2.796-2.778C20.55,4.85,21.012,5,21.511,5c1.379,0,2.5-1.122,2.5-2.5S22.89,0,21.511,0s-2.5,1.122-2.5,2.5
			c0,0.519,0.159,1.001,0.431,1.401l-2.783,2.765c-0.195,0.194-0.197,0.511-0.002,0.707C16.853,7.571,17.169,7.568,17.363,7.375z
			 M21.511,1c0.827,0,1.5,0.673,1.5,1.5S22.338,4,21.511,4c-0.827,0-1.5-0.673-1.5-1.5S20.684,1,21.511,1z"/>
		<path d="M21.521,19c-0.519,0-1.002,0.159-1.401,0.431l-1.793-1.804c-0.194-0.194-0.511-0.198-0.707-0.002
			c-0.195,0.195-0.196,0.511-0.002,0.707l1.806,1.817c-0.252,0.39-0.402,0.852-0.402,1.35c0,1.378,1.121,2.5,2.5,2.5
			s2.5-1.122,2.5-2.5S22.9,19,21.521,19z M21.521,23c-0.827,0-1.5-0.673-1.5-1.5s0.673-1.5,1.5-1.5c0.827,0,1.5,0.673,1.5,1.5
			S22.349,23,21.521,23z"/>
		<path d="M2.511,5C3.01,5,3.472,4.85,3.862,4.597l2.796,2.778c0.194,0.193,0.511,0.196,0.707-0.002
			C7.561,7.177,7.559,6.86,7.363,6.666L4.58,3.901c0.272-0.4,0.431-0.882,0.431-1.401c0-1.378-1.121-2.5-2.5-2.5s-2.5,1.122-2.5,2.5
			S1.132,5,2.511,5z M2.511,1c0.827,0,1.5,0.673,1.5,1.5S3.338,4,2.511,4c-0.827,0-1.5-0.673-1.5-1.5S1.684,1,2.511,1z"/>
		<path d="M5.694,17.627l-1.793,1.804C3.502,19.159,3.02,19,2.5,19C1.121,19,0,20.122,0,21.5S1.121,24,2.5,24S5,22.878,5,21.5
			c0-0.498-0.15-0.96-0.402-1.35l1.806-1.817c0.194-0.196,0.193-0.512-0.002-0.707C6.205,17.431,5.889,17.432,5.694,17.627z M2.5,23
			C1.673,23,1,22.327,1,21.5S1.673,20,2.5,20S4,20.673,4,21.5S3.327,23,2.5,23z"/>
		<path d="M21.511,14c1.379,0,2.5-1.122,2.5-2.5S22.89,9,21.511,9c-1.208,0-2.217,0.86-2.449,2h-2.551c-0.276,0-0.5,0.224-0.5,0.5
			s0.224,0.5,0.5,0.5h2.551C19.294,13.14,20.303,14,21.511,14z M21.511,10c0.827,0,1.5,0.673,1.5,1.5s-0.673,1.5-1.5,1.5
			c-0.827,0-1.5-0.673-1.5-1.5S20.684,10,21.511,10z"/>
		<path d="M7.511,11H4.96C4.727,9.86,3.719,9,2.511,9c-1.379,0-2.5,1.122-2.5,2.5s1.121,2.5,2.5,2.5c1.208,0,2.217-0.86,2.449-2
			h2.551c0.276,0,0.5-0.224,0.5-0.5S7.787,11,7.511,11z M2.511,13c-0.827,0-1.5-0.673-1.5-1.5s0.673-1.5,1.5-1.5
			c0.827,0,1.5,0.673,1.5,1.5S3.338,13,2.511,13z"/>
		<g>
			<path d="M11.5,15.5c-0.276,0-0.5-0.224-0.5-0.5v-2.5c0-0.276,0.224-0.5,0.5-0.5c1.102,0,2-0.898,2-2c0-1.103-0.898-2-2-2
				s-2,0.897-2,2c0,0.276-0.224,0.5-0.5,0.5S8.5,10.276,8.5,10c0-1.654,1.346-3,3-3s3,1.346,3,3c0,1.484-1.083,2.72-2.5,2.958V15
				C12,15.276,11.776,15.5,11.5,15.5z"/>
		</g>
		<g>
			<circle cx="11.5" cy="17.5" r="1"/>
		</g>
	</g>
</g>
<g id="Invisibla_Shape">
	<rect fill="none" width="24" height="24"/>
</g>
</svg>
