<?xml version="1.0" encoding="utf-8"?>
<!-- Generator: Adobe Illustrator 19.2.1, SVG Export Plug-In . SVG Version: 6.00 Build 0)  -->
<svg version="1.1" xmlns="http://www.w3.org/2000/svg" xmlns:xlink="http://www.w3.org/1999/xlink" x="0px" y="0px" width="24px"
	 height="24px" viewBox="0 0 24 24" enable-background="new 0 0 24 24" xml:space="preserve">
<g id="Filled_Icon">
	<path d="M11.5,0C7.364,0,4,3.365,4,7.5c0,0.063,1.996,12.02,2.007,12.081C6.047,19.823,6.255,20,6.5,20H11v3.5
		c0,0.275,0.224,0.5,0.5,0.5c0.275,0,0.5-0.225,0.5-0.5V20h4.5c0.244,0,0.453-0.177,0.492-0.419C17.001,19.528,19,7.554,19,7.5
		C19,3.365,15.636,0,11.5,0z M11.5,17.5c-1.104,0-2-0.897-2-2c0-1.102,0.896-2,2-2c1.102,0,2,0.898,2,2
		C13.5,16.603,12.602,17.5,11.5,17.5z M16,10.5c0,0.275-0.225,0.5-0.5,0.5c-0.276,0-0.5-0.225-0.5-0.5V10H8v0.5
		C8,10.775,7.775,11,7.5,11C7.224,11,7,10.775,7,10.5v-1C7,9.224,7.224,9,7.5,9h8C15.775,9,16,9.224,16,9.5V10.5z M15.5,8h-3.793
		l1.561-1.56c0.195-0.196,0.195-0.512,0-0.707s-0.512-0.195-0.707,0C12.448,5.845,10.409,7.865,10.327,8H7.5C7.224,8,7,7.775,7,7.5
		C7,5.018,9.019,3,11.5,3S16,5.018,16,7.5C16,7.775,15.775,8,15.5,8z"/>
</g>
<g id="Invisibla_Shape">
	<rect fill="none" width="24" height="24"/>
</g>
</svg>
