<?xml version="1.0" encoding="utf-8"?>
<!-- Generator: Adobe Illustrator 19.2.1, SVG Export Plug-In . SVG Version: 6.00 Build 0)  -->
<svg version="1.1" xmlns="http://www.w3.org/2000/svg" xmlns:xlink="http://www.w3.org/1999/xlink" x="0px" y="0px" width="24px"
	 height="24px" viewBox="0 0 24 24" enable-background="new 0 0 24 24" xml:space="preserve">
<g id="Filled_Icon">
	<path d="M12,0C5.383,0,0,5.383,0,12c0,6.616,5.383,12,12,12c6.616,0,12-5.384,12-12C24,5.383,18.616,0,12,0z M9,7
		c1.102,0,2,0.898,2,2c0,1.102-0.898,2-2,2c-1.103,0-2-0.898-2-2C7,7.898,7.897,7,9,7z M8.354,16.354
		c-0.195,0.195-0.512,0.195-0.707,0c-0.195-0.195-0.195-0.512,0-0.708l8-8c0.195-0.195,0.512-0.195,0.707,0
		c0.195,0.196,0.195,0.513,0,0.708L8.354,16.354z M15,17c-1.104,0-2-0.897-2-2c0-1.102,0.896-2,2-2c1.103,0,2,0.898,2,2
		C17,16.103,16.103,17,15,17z"/>
</g>
<g id="Invisibla_Shape">
	<rect fill="none" width="24" height="24"/>
</g>
</svg>
