<?xml version="1.0" encoding="utf-8"?>
<!-- Generator: Adobe Illustrator 19.2.1, SVG Export Plug-In . SVG Version: 6.00 Build 0)  -->
<svg version="1.1" xmlns="http://www.w3.org/2000/svg" xmlns:xlink="http://www.w3.org/1999/xlink" x="0px" y="0px" width="24px"
	 height="24px" viewBox="0 0 24 24" enable-background="new 0 0 24 24" xml:space="preserve">
<g id="Filled_Icon">
	<g>
		<path d="M23.012,0.001C23.008,0.001,23.004,0,23,0h-6c-0.553,0-1,0.448-1,1c0,0.552,0.447,1,1,1h3.586L0.293,22.292
			c-0.391,0.391-0.391,1.024,0,1.414c0.391,0.392,1.023,0.392,1.414,0L22,3.414V7c0,0.552,0.447,1,1,1c0.552,0,1-0.448,1-1V1
			C24,0.482,23.589,0.011,23.012,0.001z"/>
		<circle cx="4.5" cy="4.5" r="4.5"/>
		<circle cx="19.5" cy="19.5" r="4.5"/>
	</g>
</g>
<g id="Invisibla_Shape">
	<rect fill="none" width="24" height="24"/>
</g>
</svg>
