<?xml version="1.0" encoding="utf-8"?>
<!-- Generator: Adobe Illustrator 19.2.1, SVG Export Plug-In . SVG Version: 6.00 Build 0)  -->
<svg version="1.1" xmlns="http://www.w3.org/2000/svg" xmlns:xlink="http://www.w3.org/1999/xlink" x="0px" y="0px" width="24px"
	 height="24px" viewBox="0 0 24 24" enable-background="new 0 0 24 24" xml:space="preserve">
<g id="Filled_Icon">
	<g>
		<path d="M23,3V0.5C23,0.224,22.776,0,22.5,0h-22C0.224,0,0,0.224,0,0.5V3H23z"/>
		<path d="M22.479,17H21V4H2v13h-1.48c-0.276,0-0.5,0.224-0.5,0.5s0.224,0.5,0.5,0.5H11v2.071c-0.86,0.223-1.5,1-1.5,1.929
			c0,1.103,0.898,2,2,2s2-0.897,2-2c0-0.929-0.64-1.706-1.5-1.929V18h10.479c0.276,0,0.5-0.224,0.5-0.5S22.756,17,22.479,17z
			 M12.5,22c0,0.551-0.448,1-1,1s-1-0.449-1-1s0.448-1,1-1S12.5,21.449,12.5,22z M18.5,16c-4.979,0-8.776,0-14,0
			C4.224,16,4,15.776,4,15.5v-10C4,5.224,4.224,5,4.5,5S5,5.224,5,5.5V15h1V9.5C6,9.224,6.224,9,6.5,9h2C8.776,9,9,9.224,9,9.5V15h1
			v-3.5c0-0.276,0.224-0.5,0.5-0.5h2c0.276,0,0.5,0.224,0.5,0.5V15h1V5.5C14,5.224,14.224,5,14.5,5h2C16.776,5,17,5.224,17,5.5V15
			h1.5c0.276,0,0.5,0.224,0.5,0.5S18.776,16,18.5,16z"/>
	</g>
</g>
<g id="Invisibla_Shape">
	<rect fill="none" width="24" height="24"/>
</g>
</svg>
