<?xml version="1.0" encoding="utf-8"?>
<!-- Generator: Adobe Illustrator 19.2.1, SVG Export Plug-In . SVG Version: 6.00 Build 0)  -->
<svg version="1.1" xmlns="http://www.w3.org/2000/svg" xmlns:xlink="http://www.w3.org/1999/xlink" x="0px" y="0px" width="24px"
	 height="24px" viewBox="0 0 24 24" enable-background="new 0 0 24 24" xml:space="preserve">
<g id="Filled_Icon">
	<g>
		<path d="M23,3V0.5C23,0.224,22.776,0,22.5,0h-22C0.224,0,0,0.224,0,0.5V3H23z"/>
		<path d="M22.479,17H21V4H2v13h-1.48c-0.276,0-0.5,0.224-0.5,0.5s0.224,0.5,0.5,0.5H11v2.071c-0.86,0.223-1.5,1-1.5,1.929
			c0,1.103,0.898,2,2,2s2-0.897,2-2c0-0.929-0.64-1.706-1.5-1.929V18h10.479c0.276,0,0.5-0.224,0.5-0.5S22.756,17,22.479,17z
			 M12.5,22c0,0.551-0.448,1-1,1s-1-0.449-1-1s0.448-1,1-1S12.5,21.449,12.5,22z M19,14.5c0,0.276-0.224,0.5-0.5,0.5h-3
			c-0.276,0-0.5-0.224-0.5-0.5v-3c0-0.276,0.224-0.5,0.5-0.5H16V8h-2v0.5C14,8.776,13.776,9,13.5,9H12v2h1
			c0.276,0,0.5,0.224,0.5,0.5v3c0,0.276-0.224,0.5-0.5,0.5h-3c-0.276,0-0.5-0.224-0.5-0.5v-3c0-0.276,0.224-0.5,0.5-0.5h1V9H9.5
			C9.224,9,9,8.776,9,8.5V8H7v3h0.5C7.776,11,8,11.224,8,11.5v3C8,14.776,7.776,15,7.5,15h-3C4.224,15,4,14.776,4,14.5v-3
			C4,11.224,4.224,11,4.5,11H6V7.5C6,7.224,6.224,7,6.5,7H9V5.5C9,5.224,9.224,5,9.5,5h4C13.776,5,14,5.224,14,5.5V7h2.5
			C16.776,7,17,7.224,17,7.5V11h1.5c0.276,0,0.5,0.224,0.5,0.5V14.5z"/>
	</g>
</g>
<g id="Invisibla_Shape">
	<rect fill="none" width="24" height="24"/>
</g>
</svg>
