<?xml version="1.0" encoding="utf-8"?>
<!-- Generator: Adobe Illustrator 19.2.1, SVG Export Plug-In . SVG Version: 6.00 Build 0)  -->
<svg version="1.1" xmlns="http://www.w3.org/2000/svg" xmlns:xlink="http://www.w3.org/1999/xlink" x="0px" y="0px" width="24px"
	 height="24px" viewBox="0 0 24 24" enable-background="new 0 0 24 24" xml:space="preserve">
<g id="Filled_Icon">
	<g>
		<path d="M23,3V0.5C23,0.224,22.776,0,22.5,0h-22C0.224,0,0,0.224,0,0.5V3H23z"/>
		<path d="M22.479,17H21V4H2v13h-1.48c-0.276,0-0.5,0.224-0.5,0.5s0.224,0.5,0.5,0.5H11v2.071c-0.86,0.223-1.5,1-1.5,1.929
			c0,1.103,0.898,2,2,2s2-0.897,2-2c0-0.929-0.64-1.706-1.5-1.929V18h10.479c0.276,0,0.5-0.224,0.5-0.5S22.756,17,22.479,17z M7,6
			c0.552,0,1,0.449,1,1S7.552,8,7,8S6,7.551,6,7S6.448,6,7,6z M12.5,22c0,0.551-0.448,1-1,1s-1-0.449-1-1s0.448-1,1-1
			S12.5,21.449,12.5,22z M18.531,15H4.562c-0.276,0-0.5-0.224-0.5-0.5s0.224-0.5,0.5-0.5h0.755l2.754-4.59
			c0.181-0.301,0.6-0.32,0.812-0.063l1.99,2.389l2.171-4.775c0.172-0.382,0.75-0.402,0.919,0.022L16.771,14h1.76
			c0.276,0,0.5,0.224,0.5,0.5S18.808,15,18.531,15z"/>
	</g>
</g>
<g id="Invisibla_Shape">
	<rect fill="none" width="24" height="24"/>
</g>
</svg>
