<?xml version="1.0" encoding="utf-8"?>
<!-- Generator: Adobe Illustrator 19.2.1, SVG Export Plug-In . SVG Version: 6.00 Build 0)  -->
<svg version="1.1" xmlns="http://www.w3.org/2000/svg" xmlns:xlink="http://www.w3.org/1999/xlink" x="0px" y="0px" width="24px"
	 height="24px" viewBox="0 0 24 24" enable-background="new 0 0 24 24" xml:space="preserve">
<g id="Filled_Icon">
	<g>
		<path d="M23,3V0.5C23,0.224,22.776,0,22.5,0h-22C0.224,0,0,0.224,0,0.5V3H23z"/>
		<path d="M22.479,17H21V4H2v13h-1.48c-0.276,0-0.5,0.224-0.5,0.5s0.224,0.5,0.5,0.5H11v2.071c-0.86,0.223-1.5,1-1.5,1.929
			c0,1.103,0.898,2,2,2s2-0.897,2-2c0-0.929-0.64-1.706-1.5-1.929V18h10.479c0.276,0,0.5-0.224,0.5-0.5S22.756,17,22.479,17z
			 M4,10.5c0-1.496,0.741-2.814,1.868-3.633l2.153,3.804l0.718,4.305C6.045,15.122,4,12.977,4,10.5z M12.5,22c0,0.551-0.448,1-1,1
			s-1-0.449-1-1s0.448-1,1-1S12.5,21.449,12.5,22z M9.725,14.809L9.09,11h3.859C12.744,12.829,11.452,14.316,9.725,14.809z
			 M8.791,10L6.732,6.365C9.505,5.17,12.614,7.015,12.949,10H8.791z M18.458,11h-2.938c-0.276,0-0.5-0.224-0.5-0.5
			s0.224-0.5,0.5-0.5h2.938c0.276,0,0.5,0.224,0.5,0.5S18.734,11,18.458,11z M18.458,9h-2.938c-0.276,0-0.5-0.224-0.5-0.5
			s0.224-0.5,0.5-0.5h2.938c0.276,0,0.5,0.224,0.5,0.5S18.734,9,18.458,9z M18.458,7h-2.938c-0.276,0-0.5-0.224-0.5-0.5
			s0.224-0.5,0.5-0.5h2.938c0.276,0,0.5,0.224,0.5,0.5S18.734,7,18.458,7z"/>
	</g>
</g>
<g id="Invisibla_Shape">
	<rect fill="none" width="24" height="24"/>
</g>
</svg>
