<?xml version="1.0" encoding="utf-8"?>
<!-- Generator: Adobe Illustrator 19.2.1, SVG Export Plug-In . SVG Version: 6.00 Build 0)  -->
<svg version="1.1" xmlns="http://www.w3.org/2000/svg" xmlns:xlink="http://www.w3.org/1999/xlink" x="0px" y="0px" width="24px"
	 height="24px" viewBox="0 0 24 24" enable-background="new 0 0 24 24" xml:space="preserve">
<g id="Filled_Icon">
	<g>
		<path d="M23,3V0.5C23,0.224,22.776,0,22.5,0h-22C0.224,0,0,0.224,0,0.5V3H23z"/>
		<path d="M22.479,17H21V4H2v13h-1.48c-0.276,0-0.5,0.224-0.5,0.5s0.224,0.5,0.5,0.5H11v2.071c-0.86,0.223-1.5,1-1.5,1.929
			c0,1.103,0.898,2,2,2s2-0.897,2-2c0-0.929-0.64-1.706-1.5-1.929V18h10.479c0.276,0,0.5-0.224,0.5-0.5S22.756,17,22.479,17z
			 M6.5,9.499c1.206,0,2.188,0.982,2.188,2.188c0,1.033-0.723,1.897-1.688,2.124v0.688c0,0.276-0.224,0.5-0.5,0.5S6,14.775,6,14.499
			v-0.688c-0.965-0.227-1.688-1.091-1.688-2.124c0-0.276,0.224-0.5,0.5-0.5s0.5,0.224,0.5,0.5c0,0.655,0.532,1.188,1.188,1.188
			s1.188-0.533,1.188-1.188c0-0.655-0.532-1.188-1.188-1.188c-1.206,0-2.188-0.981-2.188-2.188c0-1.033,0.723-1.897,1.688-2.124V5.5
			C6,5.224,6.224,5,6.5,5S7,5.224,7,5.5v0.687c0.965,0.228,1.688,1.091,1.688,2.124c0,0.276-0.224,0.5-0.5,0.5
			c-0.276,0-0.5-0.224-0.5-0.5c0-0.655-0.532-1.187-1.188-1.187S5.312,7.657,5.312,8.311C5.312,8.966,5.845,9.499,6.5,9.499z
			 M12.5,22c0,0.551-0.448,1-1,1s-1-0.449-1-1s0.448-1,1-1S12.5,21.449,12.5,22z M14,15.5c0,0.276-0.224,0.5-0.5,0.5h-2
			c-0.276,0-0.5-0.224-0.5-0.5v-4c0-0.276,0.224-0.5,0.5-0.5h2c0.276,0,0.5,0.224,0.5,0.5V15.5z M18,15.5c0,0.276-0.224,0.5-0.5,0.5
			h-2c-0.276,0-0.5-0.224-0.5-0.5v-9C15,6.224,15.224,6,15.5,6h2C17.776,6,18,6.224,18,6.5V15.5z"/>
	</g>
</g>
<g id="Invisibla_Shape">
	<rect fill="none" width="24" height="24"/>
</g>
</svg>
