<?xml version="1.0" encoding="utf-8"?>
<!-- Generator: Adobe Illustrator 19.2.1, SVG Export Plug-In . SVG Version: 6.00 Build 0)  -->
<svg version="1.1" xmlns="http://www.w3.org/2000/svg" xmlns:xlink="http://www.w3.org/1999/xlink" x="0px" y="0px" width="24px"
	 height="24px" viewBox="0 0 24 24" enable-background="new 0 0 24 24" xml:space="preserve">
<g id="Filled_Icon">
	<g>
		<path d="M23,3V0.5C23,0.224,22.776,0,22.5,0h-22C0.224,0,0,0.224,0,0.5V3H23z"/>
		<path d="M22.479,17H21V4H2v13h-1.48c-0.276,0-0.5,0.224-0.5,0.5s0.224,0.5,0.5,0.5H11v2.071c-0.86,0.223-1.5,1-1.5,1.929
			c0,1.103,0.898,2,2,2s2-0.897,2-2c0-0.929-0.64-1.706-1.5-1.929V18h10.479c0.276,0,0.5-0.224,0.5-0.5S22.756,17,22.479,17z
			 M12.5,22c0,0.551-0.448,1-1,1s-1-0.449-1-1s0.448-1,1-1S12.5,21.449,12.5,22z M11.917,15.56c-0.198,0.299-0.636,0.299-0.834,0
			C10.748,15.052,7.81,10.55,7.81,8.69C7.81,6.656,9.465,5,11.5,5s3.69,1.656,3.69,3.69C15.19,10.55,12.252,15.052,11.917,15.56z"/>
		<circle cx="11.5" cy="8.69" r="1.276"/>
	</g>
</g>
<g id="Invisibla_Shape">
	<rect fill="none" width="24" height="24"/>
</g>
</svg>
