<?xml version="1.0" encoding="utf-8"?>
<!-- Generator: Adobe Illustrator 19.2.1, SVG Export Plug-In . SVG Version: 6.00 Build 0)  -->
<svg version="1.1" xmlns="http://www.w3.org/2000/svg" xmlns:xlink="http://www.w3.org/1999/xlink" x="0px" y="0px" width="24px"
	 height="24px" viewBox="0 0 24 24" enable-background="new 0 0 24 24" xml:space="preserve">
<g id="Filled_Icon">
	<g>
		<path d="M23,3V0.5C23,0.224,22.776,0,22.5,0h-22C0.224,0,0,0.224,0,0.5V3H23z"/>
		<path d="M22.479,17H21V4H2v13h-1.48c-0.276,0-0.5,0.224-0.5,0.5s0.224,0.5,0.5,0.5H11v2.071c-0.86,0.223-1.5,1-1.5,1.929
			c0,1.103,0.898,2,2,2s2-0.897,2-2c0-0.929-0.64-1.706-1.5-1.929V18h10.479c0.276,0,0.5-0.224,0.5-0.5S22.756,17,22.479,17z
			 M7.891,12.219c0.197,0.193,0.201,0.51,0.008,0.708c-0.199,0.2-0.515,0.196-0.707,0.006l-2.041-2c-0.2-0.194-0.2-0.519,0-0.714
			l2.041-2C7.389,8.026,7.705,8.03,7.898,8.226c0.193,0.197,0.19,0.514-0.008,0.707l-1.676,1.643L7.891,12.219z M12.5,22
			c0,0.551-0.448,1-1,1s-1-0.449-1-1s0.448-1,1-1S12.5,21.449,12.5,22z M13.917,7.745l-4.031,6.094
			c-0.153,0.232-0.466,0.292-0.692,0.141c-0.231-0.152-0.294-0.462-0.142-0.693l4.031-6.094c0.151-0.231,0.463-0.294,0.692-0.141
			C14.006,7.204,14.069,7.515,13.917,7.745z M17.844,10.875l-2.041,2c-0.191,0.189-0.508,0.194-0.707-0.006
			c-0.193-0.198-0.189-0.515,0.008-0.707l1.676-1.643l-1.676-1.643c-0.197-0.193-0.201-0.51-0.008-0.707
			c0.194-0.195,0.511-0.2,0.707-0.007l2.041,2C18.044,10.356,18.044,10.681,17.844,10.875z"/>
	</g>
</g>
<g id="Invisibla_Shape">
	<rect fill="none" width="24" height="24"/>
</g>
</svg>
