<?xml version="1.0" encoding="utf-8"?>
<!-- Generator: Adobe Illustrator 19.2.1, SVG Export Plug-In . SVG Version: 6.00 Build 0)  -->
<svg version="1.1" xmlns="http://www.w3.org/2000/svg" xmlns:xlink="http://www.w3.org/1999/xlink" x="0px" y="0px" width="24px"
	 height="24px" viewBox="0 0 24 24" enable-background="new 0 0 24 24" xml:space="preserve">
<g id="Filled_Icon">
	<g>
		<path d="M23,7.021c0-0.276-0.224-0.5-0.5-0.5S22,6.745,22,7.021v5.193l-7.637-8.058c-0.181-0.189-0.473-0.207-0.676-0.046
			l-4.65,3.72L1.354,0.147c-0.195-0.195-0.512-0.195-0.707,0s-0.195,0.512,0,0.707l8,8c0.179,0.18,0.468,0.196,0.666,0.037
			l4.641-3.713L21.337,13h-5.774c-0.276,0-0.5,0.224-0.5,0.5s0.224,0.5,0.5,0.5H22.5c0.274,0,0.492-0.228,0.499-0.493
			c0-0.002,0.001-0.004,0.001-0.007V7.021z"/>
		<g>
			<g>
				<rect x="4" y="21" width="4" height="3"/>
				<path d="M10.5,21c0.276,0,0.5,0.224,0.5,0.5v2c0,0.276-0.224,0.5-0.5,0.5H9v-3H10.5z"/>
				<path d="M1.5,21H3v3H1.5C1.224,24,1,23.776,1,23.5v-2C1,21.224,1.224,21,1.5,21z"/>
			</g>
			<g>
				<rect x="15" y="21" width="4" height="3"/>
				<path d="M21.5,21c0.276,0,0.5,0.224,0.5,0.5v2c0,0.276-0.224,0.5-0.5,0.5H20v-3H21.5z"/>
				<path d="M12.5,21H14v3h-1.5c-0.276,0-0.5-0.224-0.5-0.5v-2C12,21.224,12.224,21,12.5,21z"/>
			</g>
			<g>
				<rect x="16" y="17" width="4" height="3"/>
				<path d="M22.5,17c0.276,0,0.5,0.224,0.5,0.5v2c0,0.276-0.224,0.5-0.5,0.5H21v-3H22.5z"/>
				<path d="M13.5,17H15v3h-1.5c-0.276,0-0.5-0.224-0.5-0.5v-2C13,17.224,13.224,17,13.5,17z"/>
			</g>
			<g>
				<rect x="3" y="17" width="4" height="3"/>
				<path d="M9.5,17c0.276,0,0.5,0.224,0.5,0.5v2c0,0.276-0.224,0.5-0.5,0.5H8v-3H9.5z"/>
				<path d="M0.5,17H2v3H0.5C0.224,20,0,19.776,0,19.5v-2C0,17.224,0.224,17,0.5,17z"/>
			</g>
			<g>
				<rect x="4" y="13" width="4" height="3"/>
				<path d="M10.5,13c0.276,0,0.5,0.224,0.5,0.5v2c0,0.276-0.224,0.5-0.5,0.5H9v-3H10.5z"/>
				<path d="M1.5,13H3v3H1.5C1.224,16,1,15.776,1,15.5v-2C1,13.224,1.224,13,1.5,13z"/>
			</g>
		</g>
	</g>
</g>
<g id="Invisibla_Shape">
	<rect fill="none" width="24" height="24"/>
</g>
</svg>
