<?xml version="1.0" encoding="utf-8"?>
<!-- Generator: Adobe Illustrator 19.2.1, SVG Export Plug-In . SVG Version: 6.00 Build 0)  -->
<svg version="1.1" xmlns="http://www.w3.org/2000/svg" xmlns:xlink="http://www.w3.org/1999/xlink" x="0px" y="0px" width="24px"
	 height="24px" viewBox="0 0 24 24" enable-background="new 0 0 24 24" xml:space="preserve">
<g id="Filled_Icon">
	<g>
		<g>
			<g>
				<rect x="15" y="21" width="4" height="3"/>
				<path d="M12.5,21c-0.276,0-0.5,0.224-0.5,0.5v2c0,0.276,0.224,0.5,0.5,0.5H14v-3H12.5z"/>
				<path d="M21.5,21H20v3h1.5c0.276,0,0.5-0.224,0.5-0.5v-2C22,21.224,21.776,21,21.5,21z"/>
			</g>
			<g>
				<rect x="4" y="21" width="4" height="3"/>
				<path d="M1.5,21C1.224,21,1,21.224,1,21.5v2C1,23.776,1.224,24,1.5,24H3v-3H1.5z"/>
				<path d="M10.5,21H9v3h1.5c0.276,0,0.5-0.224,0.5-0.5v-2C11,21.224,10.776,21,10.5,21z"/>
			</g>
			<g>
				<rect x="3" y="17" width="4" height="3"/>
				<path d="M0.5,17C0.224,17,0,17.224,0,17.5v2C0,19.776,0.224,20,0.5,20H2v-3H0.5z"/>
				<path d="M9.5,17H8v3h1.5c0.276,0,0.5-0.224,0.5-0.5v-2C10,17.224,9.776,17,9.5,17z"/>
			</g>
			<g>
				<rect x="16" y="17" width="4" height="3"/>
				<path d="M13.5,17c-0.276,0-0.5,0.224-0.5,0.5v2c0,0.276,0.224,0.5,0.5,0.5H15v-3H13.5z"/>
				<path d="M22.5,17H21v3h1.5c0.276,0,0.5-0.224,0.5-0.5v-2C23,17.224,22.776,17,22.5,17z"/>
			</g>
			<g>
				<rect x="15" y="13" width="4" height="3"/>
				<path d="M12.5,13c-0.276,0-0.5,0.224-0.5,0.5v2c0,0.276,0.224,0.5,0.5,0.5H14v-3H12.5z"/>
				<path d="M21.5,13H20v3h1.5c0.276,0,0.5-0.224,0.5-0.5v-2C22,13.224,21.776,13,21.5,13z"/>
			</g>
		</g>
		<path d="M22.5,0h-6.938c-0.276,0-0.5,0.224-0.5,0.5s0.224,0.5,0.5,0.5h5.78l-6.391,6.79l-4.64-3.712
			c-0.199-0.159-0.486-0.143-0.666,0.037l-9,9c-0.195,0.195-0.195,0.512,0,0.708c0.195,0.195,0.512,0.195,0.707,0l8.684-8.684
			l4.65,3.72c0.203,0.162,0.499,0.143,0.677-0.048L22,1.761v5.187c0,0.277,0.224,0.5,0.5,0.5s0.5-0.223,0.5-0.5V0.5
			C23,0.234,22.768,0,22.5,0z"/>
	</g>
</g>
<g id="Invisibla_Shape">
	<rect fill="none" width="24" height="24"/>
</g>
</svg>
