<?xml version="1.0" encoding="utf-8"?>
<!-- Generator: Adobe Illustrator 19.2.1, SVG Export Plug-In . SVG Version: 6.00 Build 0)  -->
<svg version="1.1" xmlns="http://www.w3.org/2000/svg" xmlns:xlink="http://www.w3.org/1999/xlink" x="0px" y="0px" width="24px"
	 height="24px" viewBox="0 0 24 24" enable-background="new 0 0 24 24" xml:space="preserve">
<g id="Filled_Icon">
	<g>
		<path d="M0,16.5C0,16.775,0.224,17,0.5,17h9.793l-6.147,6.146c-0.195,0.196-0.195,0.513,0,0.708s0.512,0.195,0.707,0L11,17.706
			V23.5c0,0.275,0.224,0.5,0.5,0.5s0.5-0.225,0.5-0.5v-5.794l6.146,6.147c0.195,0.195,0.512,0.195,0.707,0
			c0.195-0.195,0.195-0.512,0-0.708L12.707,17H23.5c0.276,0,0.5-0.225,0.5-0.5V5H0V16.5z"/>
		<path d="M23.5,0h-23C0.224,0,0,0.224,0,0.5V4h24V0.5C24,0.224,23.776,0,23.5,0z"/>
	</g>
</g>
<g id="Invisibla_Shape">
	<rect fill="none" width="24" height="24"/>
</g>
</svg>
