<?xml version="1.0" encoding="utf-8"?>
<!-- Generator: Adobe Illustrator 19.2.1, SVG Export Plug-In . SVG Version: 6.00 Build 0)  -->
<svg version="1.1" xmlns="http://www.w3.org/2000/svg" xmlns:xlink="http://www.w3.org/1999/xlink" x="0px" y="0px" width="24px"
	 height="24px" viewBox="0 0 24 24" enable-background="new 0 0 24 24" xml:space="preserve">
<g id="Filled_Icon">
	<path d="M20.854,6.147l-6-6C14.76,0.053,14.633,0,14.5,0h-11C3.224,0,3,0.224,3,0.5v23C3,23.776,3.224,24,3.5,24h17
		c0.276,0,0.5-0.224,0.5-0.5v-17C21,6.367,20.947,6.24,20.854,6.147z M8.5,9.5c-1.206,0-2.188-0.981-2.188-2.188
		c0-1.034,0.723-1.898,1.688-2.125V4.501c0-0.276,0.224-0.5,0.5-0.5S9,4.224,9,4.501v0.687c0.965,0.227,1.688,1.091,1.688,2.125
		c0,0.276-0.224,0.5-0.5,0.5s-0.5-0.224-0.5-0.5c0-0.655-0.532-1.188-1.188-1.188S7.312,6.657,7.312,7.312
		C7.312,7.967,7.845,8.5,8.5,8.5c1.206,0,2.188,0.981,2.188,2.187c0,1.033-0.723,1.897-1.688,2.124V13.5C9,13.776,8.776,14,8.5,14
		S8,13.776,8,13.5v-0.689c-0.965-0.227-1.688-1.091-1.688-2.124c0-0.276,0.224-0.5,0.5-0.5s0.5,0.224,0.5,0.5
		c0,0.655,0.532,1.188,1.188,1.188s1.188-0.533,1.188-1.188C9.688,10.033,9.155,9.5,8.5,9.5z M17.5,21H6.583
		c-0.276,0-0.5-0.224-0.5-0.5s0.224-0.5,0.5-0.5H17.5c0.276,0,0.5,0.224,0.5,0.5S17.776,21,17.5,21z M17.5,19H6.583
		c-0.276,0-0.5-0.224-0.5-0.5s0.224-0.5,0.5-0.5H17.5c0.276,0,0.5,0.224,0.5,0.5S17.776,19,17.5,19z M17.5,17H6.583
		c-0.276,0-0.5-0.224-0.5-0.5s0.224-0.5,0.5-0.5H17.5c0.276,0,0.5,0.224,0.5,0.5S17.776,17,17.5,17z M17.5,15h-4.984
		c-0.276,0-0.5-0.224-0.5-0.5s0.224-0.5,0.5-0.5H17.5c0.276,0,0.5,0.224,0.5,0.5S17.776,15,17.5,15z M17.5,13h-3
		c-0.276,0-0.5-0.224-0.5-0.5s0.224-0.5,0.5-0.5h3c0.276,0,0.5,0.224,0.5,0.5S17.776,13,17.5,13z M17.5,11h-3
		c-0.276,0-0.5-0.224-0.5-0.5s0.224-0.5,0.5-0.5h3c0.276,0,0.5,0.224,0.5,0.5S17.776,11,17.5,11z M14.5,7C14.224,7,14,6.776,14,6.5
		c0-0.6,0-5.11,0-5.707L20.207,7C19.015,7,15.667,7,14.5,7z"/>
</g>
<g id="Invisibla_Shape">
	<rect fill="none" width="24" height="24"/>
</g>
</svg>
