<?xml version="1.0" encoding="utf-8"?>
<!-- Generator: Adobe Illustrator 19.2.1, SVG Export Plug-In . SVG Version: 6.00 Build 0)  -->
<svg version="1.1" xmlns="http://www.w3.org/2000/svg" xmlns:xlink="http://www.w3.org/1999/xlink" x="0px" y="0px" width="24px"
	 height="24px" viewBox="0 0 24 24" enable-background="new 0 0 24 24" xml:space="preserve">
<g id="Filled_Icon">
	<g>
		<circle cx="16.508" cy="8.743" r="0.736"/>
		<path d="M22.5,1h-21C0.673,1,0,1.673,0,2.5v18C0,21.327,0.673,22,1.5,22h1v0.5C2.5,22.776,2.724,23,3,23h1.5
			C4.776,23,5,22.776,5,22.5V22h14v0.5c0,0.276,0.224,0.5,0.5,0.5H21c0.276,0,0.5-0.224,0.5-0.5V22h1c0.827,0,1.5-0.673,1.5-1.5v-18
			C24,1.673,23.327,1,22.5,1z M22,17.5c0,0.827-0.673,1.5-1.5,1.5h-16C3.673,19,3,18.327,3,17.5V16H2.5C2.224,16,2,15.776,2,15.5v-1
			C2,14.224,2.224,14,2.5,14H3V9H2.5C2.224,9,2,8.776,2,8.5v-1C2,7.224,2.224,7,2.5,7H3V5.5C3,4.673,3.673,4,4.5,4h16
			C21.327,4,22,4.673,22,5.5V17.5z"/>
		<path d="M20.5,5h-16C4.225,5,4,5.224,4,5.5V7h0.5C4.776,7,5,7.224,5,7.5v1C5,8.776,4.776,9,4.5,9H4v5h0.5
			C4.776,14,5,14.224,5,14.5v1C5,15.776,4.776,16,4.5,16H4v1.5C4,17.776,4.225,18,4.5,18h16c0.275,0,0.5-0.224,0.5-0.5v-12
			C21,5.224,20.775,5,20.5,5z M15,17h-1v-1h1V17z M15,15h-1v-1h1V15z M15,13h-1v-1h1V13z M17,17h-1v-1h1V17z M17,15h-1v-1h1V15z
			 M17,13h-1v-1h1V13z M19,17h-1v-1h1V17z M19,15h-1v-1h1V15z M19,13h-1v-1h1V13z M16.5,11.5c-1.489,0-2.7-1.237-2.7-2.757
			C13.8,7.23,15.011,6,16.5,6c1.498,0,2.717,1.23,2.717,2.743C19.217,10.237,17.973,11.5,16.5,11.5z"/>
	</g>
</g>
<g id="Invisibla_Shape">
	<rect fill="none" width="24" height="24"/>
</g>
</svg>
