<?xml version="1.0" encoding="utf-8"?>
<!-- Generator: Adobe Illustrator 19.2.1, SVG Export Plug-In . SVG Version: 6.00 Build 0)  -->
<svg version="1.1" xmlns="http://www.w3.org/2000/svg" xmlns:xlink="http://www.w3.org/1999/xlink" x="0px" y="0px" width="24px"
	 height="24px" viewBox="0 0 24 24" enable-background="new 0 0 24 24" xml:space="preserve">
<g id="Filled_Icon">
	<g>
		<path d="M14.474,13.235l0.713,0.714c0.431-0.554,0.718-1.221,0.81-1.949h-1.011C14.909,12.454,14.731,12.873,14.474,13.235z"/>
		<path d="M14.474,9.765c0.257,0.36,0.436,0.78,0.512,1.235h1.011c-0.092-0.729-0.379-1.396-0.809-1.949L14.474,9.765z"/>
		<path d="M18.531,4h-13c-0.827,0-1.5,0.672-1.5,1.5V6h0.5C4.807,6,5.031,6.224,5,6.5v3C5.031,9.775,4.807,10,4.531,10h-0.5v3h0.5
			c0.275,0,0.5,0.224,0.5,0.5v3c0,0.275-0.225,0.5-0.5,0.5h-0.5v0.5c0,0.827,0.673,1.5,1.5,1.5h13c0.826,0,1.5-0.673,1.469-1.5v-12
			C20.031,4.672,19.357,4,18.531,4z M12.031,16.5c-2.743,0-5-2.231-5-5c0-2.753,2.239-5,5-5c2.757,0,5,2.245,5,5
			C17.031,14.243,14.799,16.5,12.031,16.5z"/>
		<path d="M9.076,12H8.065c0.092,0.727,0.38,1.396,0.81,1.948l0.713-0.713C9.331,12.873,9.152,12.454,9.076,12z"/>
		<path d="M11.531,8.545v-1.01c-0.729,0.091-1.396,0.378-1.949,0.809l0.714,0.714C10.656,8.8,11.076,8.622,11.531,8.545z"/>
		<rect x="3.031" y="14" width="0.969" height="2"/>
		<path d="M14.479,8.344c-0.553-0.43-1.22-0.718-1.948-0.809v1.01c0.454,0.077,0.874,0.255,1.235,0.513L14.479,8.344z"/>
		<path d="M12.531,14.454v1.011c0.729-0.092,1.396-0.379,1.948-0.809l-0.713-0.714C13.405,14.2,12.985,14.378,12.531,14.454z"/>
		<path d="M9.582,14.656c0.553,0.43,1.22,0.717,1.949,0.809v-1.011c-0.455-0.076-0.875-0.254-1.235-0.512L9.582,14.656z"/>
		<circle cx="12.031" cy="11.5" r="2"/>
		<path d="M9.588,9.764L8.875,9.051c-0.43,0.553-0.718,1.22-0.81,1.949h1.011C9.152,10.545,9.331,10.125,9.588,9.764z"/>
		<rect x="3.031" y="7" width="0.969" height="2"/>
		<path d="M21.531,0h-19c-1.379,0-2.5,1.121-2.5,2.5v18c0,1.206,0.859,2.217,2,2.449V23.5c0,0.275,0.224,0.5,0.5,0.5
			c0.275,0,0.5-0.225,0.5-0.5V23h18v0.5c0,0.275,0.224,0.5,0.5,0.5c0.275,0,0.5-0.225,0.5-0.5v-0.551
			c1.14-0.232,2-1.243,1.969-2.449v-18C24.031,1.121,22.909,0,21.531,0z M18.531,20h-13c-1.379,0-2.5-1.122-2.5-2.5V17h-0.5
			c-0.276,0-0.5-0.225-0.531-0.5v-3C2.031,13.224,2.255,13,2.531,13h0.5v-3h-0.5C2.255,10,2.031,9.775,2,9.5v-3
			C2.031,6.224,2.255,6,2.531,6h0.5V5.5c0-1.379,1.121-2.5,2.5-2.5h13c1.378,0,2.5,1.121,2.5,2.5v12
			C21.031,18.878,19.909,20,18.531,20z"/>
	</g>
</g>
<g id="Invisibla_Shape">
	<rect fill="none" width="24" height="24"/>
</g>
</svg>
