<?xml version="1.0" encoding="utf-8"?>
<!-- Generator: Adobe Illustrator 19.2.1, SVG Export Plug-In . SVG Version: 6.00 Build 0)  -->
<svg version="1.1" xmlns="http://www.w3.org/2000/svg" xmlns:xlink="http://www.w3.org/1999/xlink" x="0px" y="0px" width="24px"
	 height="24px" viewBox="0 0 24 24" enable-background="new 0 0 24 24" xml:space="preserve">
<g id="Filled_Icon">
	<path d="M22.953,10.29l-3.278-7.057l1.567-0.634c0.256-0.103,0.38-0.395,0.276-0.65c-0.104-0.257-0.396-0.381-0.651-0.276
		l-7.533,3.047C13.023,4.011,12.309,3.5,11.5,3.5c-1.314,0-2.394,1.354-1.858,2.712l-7.883,3.19c-0.256,0.103-0.38,0.394-0.276,0.65
		c0.104,0.255,0.395,0.38,0.651,0.276l0.841-0.34L0.047,16.29C0.016,16.356,0,16.427,0,16.5c0,2.28,1.72,4,4,4s4-1.72,4-4
		c0-0.073-0.016-0.144-0.047-0.21l-3.252-7l5.556-2.248c0.218,0.177,0.469,0.31,0.743,0.384V22H9c-0.276,0-0.5,0.224-0.5,0.5
		S8.724,23,9,23h5c0.276,0,0.5-0.224,0.5-0.5S14.276,22,14,22h-2V7.426c0.773-0.209,1.372-0.879,1.475-1.686l4.539-1.835
		l-2.967,6.385C15.016,10.356,15,10.427,15,10.5c0,2.28,1.72,4,4,4s4-1.72,4-4C23,10.427,22.984,10.356,22.953,10.29z M1.284,16
		L4,10.153L6.716,16H1.284z M16.284,10L19,4.153L21.716,10H16.284z"/>
</g>
<g id="Invisibla_Shape">
	<rect fill="none" width="24" height="24"/>
</g>
</svg>
