<?xml version="1.0" encoding="utf-8"?>
<!-- Generator: Adobe Illustrator 19.2.1, SVG Export Plug-In . SVG Version: 6.00 Build 0)  -->
<svg version="1.1" xmlns="http://www.w3.org/2000/svg" xmlns:xlink="http://www.w3.org/1999/xlink" x="0px" y="0px" width="24px"
	 height="24px" viewBox="0 0 24 24" enable-background="new 0 0 24 24" xml:space="preserve">
<g id="Filled_Icon">
	<path d="M23.958,12.299L20.764,5H21.5C21.776,5,22,4.775,22,4.5C22,4.224,21.776,4,21.5,4h-8.071c-0.224-0.86-1-1.5-1.929-1.5
		c-0.93,0-1.706,0.64-1.93,1.5H2.5C2.224,4,2,4.224,2,4.5C2,4.775,2.224,5,2.5,5h0.735c0,0.001-3.194,7.302-3.194,7.302
		S0,12.498,0,12.5c0,2.205,1.794,4,4,4c2.205,0,4-1.795,4-4c0-0.002-0.035-0.184-0.042-0.198C7.958,12.301,4.764,5,4.764,5H9.57
		C9.752,5.699,10.3,6.248,11,6.429V21H8c-0.276,0-0.5,0.224-0.5,0.5C7.5,21.775,7.724,22,8,22h7.5c0.276,0,0.5-0.225,0.5-0.5
		c0-0.276-0.224-0.5-0.5-0.5H12V6.429C12.699,6.248,13.247,5.699,13.429,5h5.807c0,0.001-3.194,7.301-3.194,7.302
		C16.034,12.317,16,12.498,16,12.5c0,2.205,1.794,4,4,4c2.205,0,4-1.795,4-4C24,12.498,23.958,12.3,23.958,12.299z M6.735,12H1.264
		L4,5.748L6.735,12z M17.264,12L20,5.748L22.735,12H17.264z"/>
</g>
<g id="Invisibla_Shape">
	<rect fill="none" width="24" height="24"/>
</g>
</svg>
