<?xml version="1.0" encoding="utf-8"?>
<!-- Generator: Adobe Illustrator 19.2.1, SVG Export Plug-In . SVG Version: 6.00 Build 0)  -->
<svg version="1.1" xmlns="http://www.w3.org/2000/svg" xmlns:xlink="http://www.w3.org/1999/xlink" x="0px" y="0px" width="24px"
	 height="24px" viewBox="0 0 24 24" enable-background="new 0 0 24 24" xml:space="preserve">
<g id="Filled_Icon">
	<g>
		<path d="M23.5,0h-7C16.224,0,16,0.224,16,0.5S16.224,1,16.5,1h5.846l-6.394,6.821L11.312,4.11
			c-0.198-0.159-0.486-0.144-0.666,0.037l-9,9c-0.195,0.195-0.195,0.512,0,0.707C1.744,13.951,1.872,14,2,14
			s0.256-0.049,0.353-0.146l8.684-8.684l4.65,3.721c0.203,0.163,0.498,0.143,0.678-0.049L23,1.765V7c0,0.276,0.224,0.5,0.5,0.5
			S24,7.276,24,7V0.5C24,0.229,23.763,0,23.5,0z"/>
		<path d="M20.5,15h-6c-0.135,0-0.264,0.055-0.357,0.15c-1.106,1.129-1.643,2.225-1.643,3.35c0,0.114,0.039,0.224,0.109,0.312
			l1.932,2.415l0.474,1.894c0.021,0.079,0.059,0.153,0.113,0.213C15.582,23.84,17.35,24,17.5,24s1.918-0.16,2.372-0.666
			c0.055-0.06,0.093-0.134,0.113-0.213l0.474-1.894l1.932-2.415c0.07-0.089,0.109-0.199,0.109-0.312c0-1.128-0.537-2.225-1.644-3.35
			C20.763,15.054,20.634,15,20.5,15z M15.5,18c-0.276,0-0.5-0.224-0.5-0.5s0.224-0.5,0.5-0.5s0.5,0.224,0.5,0.5S15.776,18,15.5,18z
			 M19.5,18c-0.276,0-0.5-0.224-0.5-0.5s0.224-0.5,0.5-0.5s0.5,0.224,0.5,0.5S19.776,18,19.5,18z"/>
		<path d="M22.248,12.5c0,0-0.438,0-1.312,0c-0.876,0-1.314-1.752-1.314-1.752s-1.313,1.185-1.313,2.499
			c0,0.271,0.045,0.52,0.111,0.754h2.501c0.134,0,0.263,0.054,0.356,0.15l0.294,0.299c0.68,0.692,1.172,1.385,1.491,2.09
			C23.685,16.151,24,15.667,24,14.559C24,13.592,23.216,12.5,22.248,12.5z"/>
		<path d="M13.722,14.15c0.094-0.096,0.223-0.15,0.357-0.15h2.502c0.066-0.234,0.111-0.483,0.111-0.754
			c0-1.314-1.314-2.499-1.314-2.499S14.94,12.5,14.064,12.5c-0.875,0-1.312,0-1.312,0C11.784,12.5,11,13.592,11,14.559
			c0,1.109,0.315,1.593,0.939,1.981c0.319-0.703,0.811-1.396,1.488-2.089L13.722,14.15z"/>
	</g>
</g>
<g id="Invisibla_Shape">
</g>
</svg>
