<?xml version="1.0" encoding="utf-8"?>
<!-- Generator: Adobe Illustrator 19.2.1, SVG Export Plug-In . SVG Version: 6.00 Build 0)  -->
<svg version="1.1" xmlns="http://www.w3.org/2000/svg" xmlns:xlink="http://www.w3.org/1999/xlink" x="0px" y="0px" width="24px"
	 height="24px" viewBox="0 0 24 24" enable-background="new 0 0 24 24" xml:space="preserve">
<g id="Filled_Icon">
	<g>
		<path d="M23.5,6.5C23.224,6.5,23,6.724,23,7v5.243l-7.637-8.086c-0.179-0.189-0.474-0.208-0.676-0.047l-4.65,3.72L2.353,0.147
			c-0.195-0.195-0.512-0.195-0.707,0s-0.195,0.512,0,0.707l8,8c0.18,0.18,0.467,0.196,0.666,0.037l4.641-3.712L22.34,13H16.5
			c-0.276,0-0.5,0.224-0.5,0.5s0.224,0.5,0.5,0.5h7c0.272,0,0.5-0.234,0.5-0.5V7C24,6.724,23.776,6.5,23.5,6.5z"/>
		<path d="M9.5,15h-6c-0.135,0-0.264,0.055-0.357,0.15C2.037,16.279,1.5,17.375,1.5,18.5c0,0.114,0.039,0.224,0.109,0.312
			l1.932,2.415l0.474,1.894c0.021,0.079,0.059,0.153,0.113,0.213C4.582,23.84,6.35,24,6.5,24s1.918-0.16,2.372-0.666
			c0.055-0.06,0.093-0.134,0.113-0.213l0.474-1.894l1.932-2.415c0.07-0.089,0.109-0.199,0.109-0.312c0-1.128-0.537-2.225-1.644-3.35
			C9.763,15.054,9.634,15,9.5,15z M4.5,18C4.224,18,4,17.776,4,17.5S4.224,17,4.5,17S5,17.224,5,17.5S4.776,18,4.5,18z M8.5,18
			C8.224,18,8,17.776,8,17.5S8.224,17,8.5,17S9,17.224,9,17.5S8.776,18,8.5,18z"/>
		<path d="M11.248,12.5c0,0-0.438,0-1.312,0c-0.876,0-1.314-1.752-1.314-1.752s-1.314,1.185-1.314,2.499
			c0,0.271,0.045,0.52,0.111,0.754H9.92c0.134,0,0.263,0.054,0.356,0.15l0.294,0.299c0.68,0.692,1.172,1.385,1.491,2.09
			C12.685,16.151,13,15.667,13,14.559C13,13.592,12.216,12.5,11.248,12.5z"/>
		<path d="M2.722,14.15C2.815,14.055,2.944,14,3.079,14h2.502c0.066-0.234,0.111-0.483,0.111-0.754c0-1.314-1.313-2.499-1.313-2.499
			S3.94,12.5,3.065,12.5c-0.875,0-1.313,0-1.313,0C0.784,12.5,0,13.592,0,14.559c0,1.109,0.315,1.593,0.939,1.981
			c0.319-0.703,0.811-1.396,1.488-2.089L2.722,14.15z"/>
	</g>
</g>
<g id="Invisibla_Shape">
</g>
</svg>
