<?xml version="1.0" encoding="utf-8"?>
<!-- Generator: Adobe Illustrator 19.2.1, SVG Export Plug-In . SVG Version: 6.00 Build 0)  -->
<svg version="1.1" xmlns="http://www.w3.org/2000/svg" xmlns:xlink="http://www.w3.org/1999/xlink" x="0px" y="0px" width="24px"
	 height="24px" viewBox="0 0 24 24" enable-background="new 0 0 24 24" xml:space="preserve">
<g id="Filled_Icon">
	<g>
		<path d="M23.049,13c0-0.717-0.668-2-2-2c-1.007,0-1.589,0.96-1.837,1.5h-3.326c-0.248-0.54-0.83-1.5-1.837-1.5
			c-1.332,0-2,1.283-2,2v1.35c-0.567,0.894-1,2.307-1,3.3c0,1.411,0.56,2.727,1.637,3.757c0.047,0.033,1.132,0.782,2.452,1.375
			C15.703,23.547,16.594,24,17.549,24c0.849,0,1.648-0.361,2.22-0.998c1.599-0.745,3.036-2.08,3.149-2.195
			C23.626,19.897,24,18.806,24,17.65c0-1.03-0.411-2.44-0.951-3.3V13z M15.049,16c-0.276,0-0.5-0.224-0.5-0.5s0.224-0.5,0.5-0.5
			c0.276,0,0.5,0.224,0.5,0.5S15.325,16,15.049,16z M19.478,20.5h-0.929c-0.225,0-0.5-0.276-0.5-0.5v-1.573
			c0.257-0.064,0.52-0.163,0.739-0.256L19.478,20.5z M17.549,16.5c0.415,0,0.821,0.257,0.953,0.704
			c-0.343,0.15-0.745,0.296-0.953,0.296s-0.61-0.146-0.953-0.296C16.715,16.799,17.102,16.5,17.549,16.5z M16.31,18.171
			c0.22,0.093,0.482,0.191,0.739,0.256V20c0,0.224-0.275,0.5-0.5,0.5h-0.928L16.31,18.171z M17.549,23
			c-0.929,0-1.705-0.64-1.929-1.5h0.929c0.369,0,0.726-0.169,1-0.427c0.274,0.258,0.631,0.427,1,0.427h0.929
			C19.254,22.36,18.478,23,17.549,23z M20.549,16c-0.276,0-0.5-0.224-0.5-0.5s0.224-0.5,0.5-0.5c0.276,0,0.5,0.224,0.5,0.5
			S20.825,16,20.549,16z"/>
		<path d="M23.846,0.141C23.699,0.023,23.604,0,23.5,0h-7C16.224,0,16,0.224,16,0.5S16.224,1,16.5,1h5.846l-6.394,6.821L11.312,4.11
			c-0.199-0.159-0.486-0.144-0.666,0.037l-9,9c-0.195,0.195-0.195,0.512,0,0.707c0.195,0.195,0.512,0.195,0.707,0l8.684-8.684
			l4.65,3.721c0.204,0.163,0.498,0.143,0.678-0.049L23,1.765V7c0,0.276,0.224,0.5,0.5,0.5S24,7.276,24,7V0.5
			C24,0.401,23.931,0.223,23.846,0.141z"/>
	</g>
</g>
<g id="Invisibla_Shape">
</g>
</svg>
