<?xml version="1.0" encoding="utf-8"?>
<!-- Generator: Adobe Illustrator 19.2.1, SVG Export Plug-In . SVG Version: 6.00 Build 0)  -->
<svg version="1.1" xmlns="http://www.w3.org/2000/svg" xmlns:xlink="http://www.w3.org/1999/xlink" x="0px" y="0px" width="24px"
	 height="24px" viewBox="0 0 24 24" enable-background="new 0 0 24 24" xml:space="preserve">
<g id="Filled_Icon">
	<g>
		<path d="M23.639,18.02c-0.024-0.007-0.52-0.17-0.985-0.883c-0.385,0.562-0.896,1.1-1.552,1.617
			c-0.328,0.258-0.594,0.477-0.814,0.663c0.106,0.086,0.202,0.183,0.265,0.308c0.378,0.755,0.003,1.548,0,1.553
			c-0.077,0.155-0.069,0.339,0.021,0.486C20.666,21.911,20.827,22,21,22h2c0.244,0,0.453-0.177,0.493-0.419l0.5-3
			C24.034,18.335,23.878,18.094,23.639,18.02z"/>
		<path d="M5.82,16.692c-0.577,0.625-1.3,1.465-1.3,1.767c0,0.5,1,2,1,2l1-0.5c0,0,0-0.5,0.5-1c0.189-0.189,0.52-0.377,0.86-0.54
			C7.952,18.073,8,17.752,8,17.5c0-0.125-0.016-0.225-0.036-0.303C7.429,17.017,6.596,16.83,5.82,16.692z"/>
		<path d="M0.004,12c0,1.176,0.728,2.009,1.663,1.931c1.026-0.087,1.779-2.694,1.614-4.653C3.089,7.004,0.818,6.075,0.723,6.036
			C0.509,5.951,0.271,6.02,0.137,6.201C0.002,6.382,0.005,6.632,0.146,6.811C0.154,6.823,1.11,8.057,0.802,9.33
			C0.649,9.962,0.004,11.447,0.004,12z"/>
		<path d="M22.5,14.5c0-0.463-0.087-0.898-0.246-1.301C22.837,12.833,23.5,12.121,23.5,11c0-1.641-1.509-2.5-3-2.5
			c-0.938,0-2.187-0.492-2.553-1.224c-0.253-0.506-0.168-1.03-0.083-1.321c0.434-0.093,1.154-0.374,1.583-1.232
			c0.604-1.21,0.025-2.397,0-2.447C19.362,2.107,19.19,2,19,2c-0.054,0-1.316,0.015-1.947,1.276
			c-0.457,0.914-0.237,1.816-0.092,2.224c-0.146,0.407-0.365,1.309,0.092,2.224C17.63,8.878,19.26,9.5,20.5,9.5
			c0.691,0,2,0.314,2,1.5c0,0.732-0.442,1.138-0.758,1.337c-0.654-0.833-1.708-1.469-3.121-1.822
			c-1.495-0.374-2.164-1.107-2.872-1.884C14.794,7.583,13.806,6.5,11,6.5c-2.55,0-4.674,1.433-6.718,2.878
			c0.062,1.058-0.099,2.306-0.44,3.312c-0.465,1.368-1.207,2.163-2.091,2.237l-0.166,0.008c-0.007,0-0.014,0-0.021,0
			c-0.628,0-1.138-0.254-1.536-0.629c0.055,1.256,0.209,2.638,0.618,3.047c0.201,0.201,0.452,0.281,0.725,0.281
			c0.968,0,2.213-1.011,2.482-1.281c0.208-0.208,0.418-0.509,0.603-0.853c1.097,0.078,3.337,0.505,4.229,0.904
			C8.784,16.538,9,16.899,9,17.5c0,1.385-0.955,3.79-0.964,3.815c-0.062,0.154-0.043,0.329,0.05,0.466C8.179,21.917,8.334,22,8.5,22
			H10c0.182,0,0.349-0.098,0.438-0.257l2.356-4.243h2.538c0.097,0.354,0.168,0.712,0.168,1c0,0.927-0.481,2.859-0.485,2.879
			c-0.037,0.149-0.004,0.308,0.091,0.429C15.2,21.929,15.346,22,15.5,22H18c0.238,0,0.443-0.169,0.49-0.402l0.469-2.345
			c0.2-0.187,0.688-0.627,1.523-1.285C21.84,16.897,22.5,15.763,22.5,14.5z M17.947,3.724c0.194-0.389,0.49-0.568,0.72-0.651
			c0.07,0.301,0.108,0.759-0.114,1.204c-0.194,0.388-0.49,0.568-0.72,0.652C17.763,4.627,17.725,4.169,17.947,3.724z"/>
	</g>
</g>
<g id="Invisibla_Shape">
</g>
</svg>
