<?xml version="1.0" encoding="utf-8"?>
<!-- Generator: Adobe Illustrator 19.2.1, SVG Export Plug-In . SVG Version: 6.00 Build 0)  -->
<svg version="1.1" xmlns="http://www.w3.org/2000/svg" xmlns:xlink="http://www.w3.org/1999/xlink" x="0px" y="0px" width="24px"
	 height="24px" viewBox="0 0 24 24" enable-background="new 0 0 24 24" xml:space="preserve">
<g id="Filled_Icon">
	<g>
		<path d="M8.996,6.5c0.552,0,1,0.449,1,1c0,0.276,0.224,0.5,0.5,0.5c0.276,0,0.5-0.224,0.5-0.5c0-0.929-0.64-1.706-1.5-1.929V5
			c0-0.276-0.224-0.5-0.5-0.5c-0.276,0-0.5,0.224-0.5,0.5v0.571c-0.86,0.223-1.5,0.999-1.5,1.929c0,1.102,0.898,2,2,2
			c0.552,0,1,0.449,1,1s-0.448,1-1,1c-0.552,0-1-0.449-1-1c0-0.276-0.224-0.5-0.5-0.5s-0.5,0.224-0.5,0.5
			c0,0.929,0.64,1.706,1.5,1.929V13c0,0.276,0.224,0.5,0.5,0.5c0.276,0,0.5-0.224,0.5-0.5v-0.571c0.86-0.223,1.5-1,1.5-1.929
			c0-1.103-0.898-2-2-2c-0.552,0-1-0.449-1-1S8.444,6.5,8.996,6.5z"/>
		<path d="M23.707,22.293l-7.682-7.682C17.258,13.071,18,11.122,18,9c0-4.962-4.037-9-9-9S0,4.038,0,9s4.037,9,9,9
			c2.122,0,4.07-0.742,5.611-1.975l7.682,7.682c0.391,0.392,1.023,0.392,1.414,0C24.098,23.316,24.098,22.684,23.707,22.293z M9,16
			c-3.859,0-7-3.14-7-7c0-3.86,3.141-7,7-7s7,3.14,7,7C16,12.86,12.859,16,9,16z"/>
	</g>
</g>
<g id="Invisibla_Shape">
	<rect fill="none" width="24" height="24"/>
</g>
</svg>
