<?xml version="1.0" encoding="utf-8"?>
<!-- Generator: Adobe Illustrator 19.2.1, SVG Export Plug-In . SVG Version: 6.00 Build 0)  -->
<svg version="1.1" xmlns="http://www.w3.org/2000/svg" xmlns:xlink="http://www.w3.org/1999/xlink" x="0px" y="0px" width="24px"
	 height="24px" viewBox="0 0 24 24" enable-background="new 0 0 24 24" xml:space="preserve">
<g id="Filled_Icons">
	<g>
		<path d="M10,18.5c0-1.93,1.57-3.5,3.5-3.5c0.789,0,1.54,0.267,2.148,0.749l2.358-1.18C17.972,13.25,18.69,11.972,20,11.348V0.5
			C20,0.224,19.776,0,19.5,0H17v4h-2V0h-2v4h-2V0H9v4H7V0H5v4H3V0H0.5C0.224,0,0,0.224,0,0.5v20C0,20.776,0.224,21,0.5,21h10.559
			C10.407,20.364,10,19.479,10,18.5z"/>
		<path d="M21.5,19c-0.891,0-1.668,0.472-2.111,1.175l-3.428-1.286c0.052-0.338,0.069-0.57-0.056-1.032l3.638-1.818
			C20.002,16.619,20.703,17,21.5,17c1.379,0,2.5-1.121,2.5-2.5c0-1.378-1.121-2.5-2.5-2.5c-1.59,0-2.848,1.498-2.405,3.144
			l-3.639,1.819C14.998,16.381,14.296,16,13.5,16c-1.379,0-2.5,1.122-2.5,2.5c0,1.379,1.121,2.5,2.5,2.5
			c0.891,0,1.668-0.471,2.111-1.173l3.428,1.286C18.792,22.707,20.032,24,21.5,24c1.379,0,2.5-1.121,2.5-2.5
			C24,20.122,22.879,19,21.5,19z M21.5,13c0.827,0,1.5,0.673,1.5,1.5S22.327,16,21.5,16S20,15.327,20,14.5S20.673,13,21.5,13z
			 M13.5,20c-0.827,0-1.5-0.673-1.5-1.5s0.673-1.5,1.5-1.5s1.5,0.673,1.5,1.5S14.327,20,13.5,20z M21.5,23
			c-0.827,0-1.5-0.673-1.5-1.5s0.673-1.5,1.5-1.5s1.5,0.673,1.5,1.5S22.327,23,21.5,23z"/>
	</g>
</g>
<g id="Invisible_Shape">
	<rect fill="none" width="24" height="24"/>
</g>
</svg>
