<?xml version="1.0" encoding="utf-8"?>
<!-- Generator: Adobe Illustrator 19.2.1, SVG Export Plug-In . SVG Version: 6.00 Build 0)  -->
<svg version="1.1" xmlns="http://www.w3.org/2000/svg" xmlns:xlink="http://www.w3.org/1999/xlink" x="0px" y="0px" width="24px"
	 height="24px" viewBox="0 0 24 24" enable-background="new 0 0 24 24" xml:space="preserve">
<g id="Filled_Icons">
	<g>
		<g>
			<path d="M23.431,10.983c-0.105,0.015-2.612,0.37-4.919,1.383c-0.172,0.075-0.288,0.241-0.298,0.429
				c-0.001,0.02-0.169,1.746-1.214,2.172v-1.172c0-0.388-0.22-0.524-0.493-0.497c-0.924,0.088-2.725,1.892-3.371,3.687
				c-0.363,1.01-0.365,1.947-0.026,2.776l-1.678,1.678c-0.586,0.585-0.586,1.535,0,2.12c0.586,0.587,1.535,0.587,2.121,0
				l1.933-1.933c2.718,0.19,6.909-3.171,8.502-10.036C24.065,11.248,23.778,10.936,23.431,10.983z M18.721,16.979l-5.875,5.874
				c-0.196,0.197-0.512,0.195-0.707,0c-0.195-0.194-0.195-0.511,0-0.706l5.875-5.875c0.195-0.195,0.512-0.195,0.707,0
				C18.916,16.467,18.916,16.784,18.721,16.979z"/>
		</g>
		<g>
			<path d="M11.974,19.482c-0.829-3.529,3.289-8.022,5.279-7.012c0.237-1,1.294-1.264,2.747-1.716V0.5C20,0.224,19.776,0,19.5,0H17
				v4h-2V0h-2v4h-2V0H9v4H7V0H5v4H3V0H0.5C0.224,0,0,0.224,0,0.5v20C0,20.776,0.224,21,0.5,21h10.004
				C10.737,20.693,11.693,19.764,11.974,19.482z"/>
		</g>
	</g>
</g>
<g id="Invisible_Shape">
	<rect fill="none" width="24" height="24"/>
</g>
</svg>
