<?xml version="1.0" encoding="utf-8"?>
<!-- Generator: Adobe Illustrator 19.2.1, SVG Export Plug-In . SVG Version: 6.00 Build 0)  -->
<svg version="1.1" xmlns="http://www.w3.org/2000/svg" xmlns:xlink="http://www.w3.org/1999/xlink" x="0px" y="0px" width="24px"
	 height="24px" viewBox="0 0 24 24" enable-background="new 0 0 24 24" xml:space="preserve">
<g id="Filled_Icons">
	<g>
		<path d="M17.5,11c-3.584,0-6.5,2.916-6.5,6.5s2.916,6.5,6.5,6.5s6.5-2.916,6.5-6.5S21.084,11,17.5,11z M20,19h-2.5
			c-0.276,0-0.5-0.224-0.5-0.5V15c0-0.276,0.224-0.5,0.5-0.5S18,14.724,18,15v3h2c0.276,0,0.5,0.224,0.5,0.5S20.276,19,20,19z"/>
		<path d="M17.5,10c0.877,0,1.717,0.159,2.5,0.438V0.5C20,0.224,19.776,0,19.5,0H17v4h-2V0h-2v4h-2V0H9v4H7V0H5v4H3V0H0.5
			C0.224,0,0,0.224,0,0.5v20C0,20.776,0.224,21,0.5,21h10.372C10.317,19.954,10,18.764,10,17.5C10,13.365,13.365,10,17.5,10z"/>
	</g>
</g>
<g id="Invisible_Shape">
	<rect fill="none" width="24" height="24"/>
</g>
</svg>
