<?xml version="1.0" encoding="utf-8"?>
<!-- Generator: Adobe Illustrator 19.2.1, SVG Export Plug-In . SVG Version: 6.00 Build 0)  -->
<svg version="1.1" xmlns="http://www.w3.org/2000/svg" xmlns:xlink="http://www.w3.org/1999/xlink" x="0px" y="0px" width="24px"
	 height="24px" viewBox="0 0 24 24" enable-background="new 0 0 24 24" xml:space="preserve">
<g id="Filled_Icons">
	<g>
		<path d="M13.753,19.497l-2.214-1.844c-0.49-0.408-0.668-1.06-0.45-1.662C11.307,15.389,11.861,15,12.5,15h2.572l1.578-3.168
			C16.903,11.319,17.419,11,17.994,11c0.578,0,1.095,0.318,1.349,0.83L20,13.15V0.5C20,0.224,19.776,0,19.5,0H17v4h-2V0h-2v4h-2V0H9
			v4H7V0H5v4H3V0H0.5C0.224,0,0,0.224,0,0.5v20C0,20.776,0.224,21,0.5,21h12.752L13.753,19.497z"/>
		<path d="M23.492,16h-3.191l-1.854-3.726c-0.177-0.356-0.715-0.376-0.902,0.003L15.691,16H12.5c-0.468,0-0.679,0.587-0.32,0.885
			l2.738,2.281l-1.391,4.17c-0.162,0.465,0.353,0.846,0.748,0.569l3.723-2.545l3.719,2.542c0.397,0.276,0.911-0.107,0.748-0.57
			l-1.391-4.168l2.738-2.282C24.167,16.589,23.964,16,23.492,16z"/>
	</g>
</g>
<g id="Invisible_Shape">
	<rect fill="none" width="24" height="24"/>
</g>
</svg>
