<?xml version="1.0" encoding="utf-8"?>
<!-- Generator: Adobe Illustrator 19.2.1, SVG Export Plug-In . SVG Version: 6.00 Build 0)  -->
<svg version="1.1" xmlns="http://www.w3.org/2000/svg" xmlns:xlink="http://www.w3.org/1999/xlink" x="0px" y="0px" width="24px"
	 height="24px" viewBox="0 0 24 24" enable-background="new 0 0 24 24" xml:space="preserve">
<g id="Filled_Icons">
	<g>
		<path d="M12,17.5c0-3.032,2.468-5.5,5.501-5.5c0.9,0,1.748,0.222,2.499,0.607V0.5C20,0.224,19.776,0,19.5,0H17v4h-2V0h-2v4h-2V0H9
			v4H7V0H5v4H3V0H0.5C0.224,0,0,0.224,0,0.5v20C0,20.776,0.224,21,0.5,21h12.761C12.474,20.049,12,18.828,12,17.5z"/>
		<path d="M23.854,23.146L21,20.293c0.616-0.77,1-1.733,1-2.793c0-2.481-2.018-4.5-4.499-4.5C15.019,13,13,15.019,13,17.5
			c0,2.48,2.019,4.5,4.501,4.5c1.059,0,2.022-0.385,2.792-1l2.854,2.854c0.195,0.194,0.512,0.194,0.707,0
			C24.049,23.659,24.049,23.342,23.854,23.146z M17.501,21C15.57,21,14,19.43,14,17.5c0-1.929,1.57-3.5,3.501-3.5
			C19.43,14,21,15.571,21,17.5C21,19.43,19.43,21,17.501,21z"/>
	</g>
</g>
<g id="Invisible_Shape">
	<rect fill="none" width="24" height="24"/>
</g>
</svg>
