<?xml version="1.0" encoding="utf-8"?>
<!-- Generator: Adobe Illustrator 19.2.1, SVG Export Plug-In . SVG Version: 6.00 Build 0)  -->
<svg version="1.1" xmlns="http://www.w3.org/2000/svg" xmlns:xlink="http://www.w3.org/1999/xlink" x="0px" y="0px" width="24px"
	 height="24px" viewBox="0 0 24 24" enable-background="new 0 0 24 24" xml:space="preserve">
<g id="Filled_Icons">
	<g>
		<path d="M11.5,19h-2C9.224,19,9,19.224,9,19.5S9.224,20,9.5,20h8.442C20.222,20.59,22,21.162,22,22.5c0,0.276-0.225,0.5-0.5,0.5
			h-15C6.224,23,6,22.776,6,22.5v-5C6,17.224,6.224,17,6.5,17h1.688c1.516,0,3.096,1.15,3.297,1.297
			C11.686,18.443,12.438,19.047,11.5,19z"/>
		<path d="M23.5,0h-1v4h-2V0H19v4h-2V0h-1.5v4h-2V0h-1C12.224,0,12,0.224,12,0.5v15c0,0.276,0.224,0.5,0.5,0.5h11
			c0.276,0,0.5-0.224,0.5-0.5v-15C24,0.224,23.776,0,23.5,0z"/>
		<path d="M4.5,16h-4C0.224,16,0,16.224,0,16.5v7C0,23.776,0.224,24,0.5,24h4C4.775,24,5,23.776,5,23.5v-7C5,16.224,4.775,16,4.5,16
			z M2.5,22C2.224,22,2,21.776,2,21.5C2,21.225,2.224,21,2.5,21S3,21.225,3,21.5C3,21.776,2.776,22,2.5,22z"/>
	</g>
</g>
<g id="Invisible_Shape">
	<rect fill="none" width="24" height="24"/>
</g>
</svg>
