<?xml version="1.0" encoding="utf-8"?>
<!-- Generator: Adobe Illustrator 19.2.1, SVG Export Plug-In . SVG Version: 6.00 Build 0)  -->
<svg version="1.1" xmlns="http://www.w3.org/2000/svg" xmlns:xlink="http://www.w3.org/1999/xlink" x="0px" y="0px" width="24px"
	 height="24px" viewBox="0 0 24 24" enable-background="new 0 0 24 24" xml:space="preserve">
<g id="Filled_Icons">
	<g>
		<path d="M17.5,19h-4c-0.276,0-0.5,0.224-0.5,0.5v4c0,0.276,0.224,0.5,0.5,0.5h4c0.276,0,0.5-0.224,0.5-0.5v-4
			C18,19.224,17.776,19,17.5,19z"/>
		<path d="M23.5,19h-4c-0.276,0-0.5,0.224-0.5,0.5v4c0,0.276,0.224,0.5,0.5,0.5h4c0.276,0,0.5-0.224,0.5-0.5v-4
			C24,19.224,23.776,19,23.5,19z"/>
		<path d="M16.5,18h4c0.276,0,0.5-0.224,0.5-0.5v-4c0-0.276-0.224-0.5-0.5-0.5h-4c-0.276,0-0.5,0.224-0.5,0.5v4
			C16,17.776,16.224,18,16.5,18z"/>
	</g>
	<path d="M12,18.5c0-0.276,0.224-0.5,0.5-0.5H15v-5.5c0-0.276,0.224-0.5,0.5-0.5H20V0.5C20,0.224,19.776,0,19.5,0H17v4h-2V0h-2v4h-2
		V0H9v4H7V0H5v4H3V0H0.5C0.224,0,0,0.224,0,0.5v20C0,20.776,0.224,21,0.5,21H12V18.5z"/>
</g>
<g id="Invisible_Shape">
	<rect fill="none" width="24" height="24"/>
</g>
</svg>
