<?xml version="1.0" encoding="utf-8"?>
<!-- Generator: Adobe Illustrator 19.2.1, SVG Export Plug-In . SVG Version: 6.00 Build 0)  -->
<svg version="1.1" xmlns="http://www.w3.org/2000/svg" xmlns:xlink="http://www.w3.org/1999/xlink" x="0px" y="0px" width="24px"
	 height="24px" viewBox="0 0 24 24" enable-background="new 0 0 24 24" xml:space="preserve">
<g id="Filled_Icons">
	<g>
		<path d="M9.756,19.951c-0.201-0.347-0.254-0.752-0.15-1.14c0.104-0.388,0.354-0.711,0.702-0.91l0.199-0.115
			c-0.01-0.191-0.01-0.378,0-0.569l-0.205-0.118c-0.341-0.193-0.592-0.517-0.697-0.904C9.5,15.806,9.552,15.399,9.754,15.05
			l1.499-2.599c0.398-0.691,1.363-0.949,2.053-0.545l0.203,0.116c0.159-0.101,0.323-0.195,0.49-0.283V11.5
			c0-0.827,0.673-1.5,1.5-1.5h3c0.827,0,1.5,0.673,1.5,1.5v-11C20,0.224,19.776,0,19.5,0H17v4h-2V0h-2v4h-2V0H9v4H7V0H5v4H3V0H0.5
			C0.224,0,0,0.224,0,0.5v20C0,20.776,0.224,21,0.5,21h9.861L9.756,19.951z"/>
		<path d="M23.195,18.77l-0.765-0.442c0.093-0.612,0.092-1.044,0.001-1.652l0.766-0.442c0.234-0.133,0.324-0.438,0.183-0.683
			l-1.5-2.599c-0.138-0.239-0.443-0.322-0.683-0.182l-0.765,0.441c-0.43-0.345-0.912-0.624-1.433-0.828V11.5
			c0-0.276-0.224-0.5-0.5-0.5h-3c-0.276,0-0.5,0.224-0.5,0.5v0.882c-0.521,0.204-1.003,0.483-1.433,0.828l-0.765-0.441
			c-0.237-0.139-0.545-0.058-0.683,0.182l-1.5,2.599c-0.142,0.245-0.052,0.55,0.183,0.683l0.766,0.442
			c-0.091,0.608-0.092,1.04,0.001,1.652l-0.765,0.442c-0.239,0.137-0.321,0.442-0.183,0.682l1.5,2.599
			c0.137,0.241,0.446,0.32,0.683,0.183l0.765-0.441c0.429,0.344,0.911,0.623,1.431,0.828V23.5c0,0.276,0.224,0.5,0.5,0.5h3
			c0.276,0,0.5-0.224,0.5-0.5v-0.881c0.52-0.205,1.002-0.484,1.431-0.828l0.765,0.441c0.237,0.138,0.546,0.058,0.683-0.183
			l1.5-2.599C23.517,19.212,23.435,18.906,23.195,18.77z M17,20c-1.379,0-2.5-1.121-2.5-2.5S15.621,15,17,15s2.5,1.121,2.5,2.5
			S18.379,20,17,20z"/>
	</g>
</g>
<g id="Invisible_Shape">
	<rect fill="none" width="24" height="24"/>
</g>
</svg>
