<?xml version="1.0" encoding="utf-8"?>
<!-- Generator: Adobe Illustrator 19.2.1, SVG Export Plug-In . SVG Version: 6.00 Build 0)  -->
<svg version="1.1" xmlns="http://www.w3.org/2000/svg" xmlns:xlink="http://www.w3.org/1999/xlink" x="0px" y="0px" width="24px"
	 height="24px" viewBox="0 0 24 24" enable-background="new 0 0 24 24" xml:space="preserve">
<g id="Filled_Icons">
	<g>
		<path d="M13.498,19.292l3.207,3.208c4.412-4.411,3.453-3.452,4.795-4.794l-3.208-3.208L13.498,19.292z"/>
		<path d="M12.254,19.122L20,11.377V0.5C20,0.224,19.776,0,19.5,0H17v4h-2V0h-2v4h-2V0H9v4H7V0H5v4H3V0H0.5C0.224,0,0,0.224,0,0.5
			v20C0,20.776,0.224,21,0.5,21h11.152l0.475-1.661C12.15,19.257,12.194,19.183,12.254,19.122z"/>
		<path d="M12.017,23.362c-0.05,0.175-0.002,0.363,0.127,0.491c0.124,0.123,0.306,0.179,0.489,0.127l3.219-0.92l-2.916-2.916
			L12.017,23.362z"/>
		<path d="M23.854,14.644l-2.5-2.5c-0.195-0.195-0.512-0.195-0.707,0L19,13.791l3.207,3.207l1.646-1.646
			C24.049,15.156,24.049,14.84,23.854,14.644z"/>
	</g>
</g>
<g id="Invisible_Shape">
	<rect fill="none" width="24" height="24"/>
</g>
</svg>
