<?xml version="1.0" encoding="utf-8"?>
<!-- Generator: Adobe Illustrator 19.2.1, SVG Export Plug-In . SVG Version: 6.00 Build 0)  -->
<svg version="1.1" xmlns="http://www.w3.org/2000/svg" xmlns:xlink="http://www.w3.org/1999/xlink" x="0px" y="0px" width="24px"
	 height="24px" viewBox="0 0 24 24" enable-background="new 0 0 24 24" xml:space="preserve">
<g id="Filled_Icons">
	<g>
		<path d="M12,18.901c-0.576,0.192-1.257,0.034-1.652-0.441c-0.528-0.636-0.442-1.582,0.189-2.112l6.003-5.002
			c0.543-0.449,1.381-0.447,1.918-0.002L20,12.63V0.5C20,0.224,19.776,0,19.5,0H17v4h-2V0h-2v4h-2V0H9v4H7V0H5v4H3V0H0.5
			C0.224,0,0,0.224,0,0.5v20C0,20.776,0.224,21,0.5,21H12V18.901z"/>
		<g>
			<path d="M17.5,14.453l-4.5,3.75V23.5c0,0.276,0.224,0.5,0.5,0.5h8c0.276,0,0.5-0.224,0.5-0.5v-5.297L17.5,14.453z"/>
			<g>
				<path d="M23.18,17.885L17.5,13.15l-5.68,4.734c-0.213,0.176-0.528,0.147-0.705-0.065c-0.177-0.213-0.148-0.527,0.064-0.705l6-5
					c0.185-0.153,0.455-0.153,0.641,0l6,5c0.212,0.178,0.24,0.492,0.064,0.705C23.708,18.031,23.394,18.062,23.18,17.885z"/>
			</g>
		</g>
	</g>
</g>
<g id="Invisible_Shape">
	<rect fill="none" width="24" height="24"/>
</g>
</svg>
