<?xml version="1.0" encoding="utf-8"?>
<!-- Generator: Adobe Illustrator 19.2.1, SVG Export Plug-In . SVG Version: 6.00 Build 0)  -->
<svg version="1.1" xmlns="http://www.w3.org/2000/svg" xmlns:xlink="http://www.w3.org/1999/xlink" x="0px" y="0px" width="24px"
	 height="24px" viewBox="0 0 24 24" enable-background="new 0 0 24 24" xml:space="preserve">
<g id="Filled_Icons">
	<g>
		<path d="M17.5,11c-3.584,0-6.5,2.916-6.5,6.5s2.916,6.5,6.5,6.5s6.5-2.916,6.5-6.5S21.084,11,17.5,11z M17.5,16.93
			c1.043,0,1.892,0.848,1.892,1.891c0,0.868-0.592,1.594-1.392,1.815v0.504c0,0.276-0.224,0.5-0.5,0.5s-0.5-0.224-0.5-0.5v-0.504
			c-0.799-0.221-1.391-0.946-1.391-1.815c0-0.276,0.224-0.5,0.5-0.5c0.276,0,0.5,0.224,0.5,0.5c0,0.491,0.399,0.891,0.891,0.891
			c0.492,0,0.892-0.399,0.892-0.891c0-0.491-0.4-0.891-0.892-0.891c-1.042,0-1.891-0.849-1.891-1.892
			c0-0.868,0.592-1.594,1.391-1.814v-0.503c0-0.275,0.224-0.5,0.5-0.5s0.5,0.225,0.5,0.5v0.503c0.8,0.221,1.392,0.946,1.392,1.814
			c0,0.276-0.224,0.5-0.5,0.5s-0.5-0.224-0.5-0.5c0-0.491-0.4-0.891-0.892-0.891c-0.491,0-0.891,0.399-0.891,0.891
			C16.609,16.529,17.009,16.93,17.5,16.93z"/>
		<path d="M10,17.5c0-4.136,3.364-7.5,7.5-7.5c0.878,0,1.717,0.159,2.5,0.438L19.999,0.5C20,0.224,19.776,0,19.5,0H17v4h-2V0h-2v4
			h-2V0H9v4H7V0H5v4H3V0H0.5C0.224,0,0,0.224,0,0.5v20C0,20.776,0.224,21,0.5,21h10.372C10.317,19.954,10,18.764,10,17.5z"/>
	</g>
</g>
<g id="Invisible_Shape">
	<rect fill="none" width="24" height="24"/>
</g>
</svg>
