<?xml version="1.0" encoding="utf-8"?>
<!-- Generator: Adobe Illustrator 19.2.1, SVG Export Plug-In . SVG Version: 6.00 Build 0)  -->
<svg version="1.1" xmlns="http://www.w3.org/2000/svg" xmlns:xlink="http://www.w3.org/1999/xlink" x="0px" y="0px" width="24px"
	 height="24px" viewBox="0 0 24 24" enable-background="new 0 0 24 24" xml:space="preserve">
<g id="Filled_Icons">
	<path d="M21.5,0H19v4h-2V0h-2v4h-2V0h-2v4H9V0H7v4H5V0H2.5C2.224,0,2,0.224,2,0.5v23C2,23.776,2.224,24,2.5,24h19
		c0.276,0,0.5-0.224,0.5-0.5v-23C22,0.224,21.776,0,21.5,0z M17.5,20h-11C6.224,20,6,19.776,6,19.5S6.224,19,6.5,19h11
		c0.276,0,0.5,0.224,0.5,0.5S17.776,20,17.5,20z M17.5,17h-11C6.224,17,6,16.776,6,16.5S6.224,16,6.5,16h11
		c0.276,0,0.5,0.224,0.5,0.5S17.776,17,17.5,17z M17.5,14h-11C6.224,14,6,13.776,6,13.5S6.224,13,6.5,13h11
		c0.276,0,0.5,0.224,0.5,0.5S17.776,14,17.5,14z M17.5,11h-11C6.224,11,6,10.776,6,10.5S6.224,10,6.5,10h11
		c0.276,0,0.5,0.224,0.5,0.5S17.776,11,17.5,11z M17.5,8h-11C6.224,8,6,7.776,6,7.5S6.224,7,6.5,7h11C17.776,7,18,7.224,18,7.5
		S17.776,8,17.5,8z"/>
</g>
<g id="Invisible_Shape">
	<rect fill="none" width="24" height="24"/>
</g>
</svg>
