<?xml version="1.0" encoding="utf-8"?>
<!-- Generator: Adobe Illustrator 19.2.1, SVG Export Plug-In . SVG Version: 6.00 Build 0)  -->
<svg version="1.1" xmlns="http://www.w3.org/2000/svg" xmlns:xlink="http://www.w3.org/1999/xlink" x="0px" y="0px" width="24px"
	 height="24px" viewBox="0 0 24 24" enable-background="new 0 0 24 24" xml:space="preserve">
<g id="Filled_Icons">
	<g>
		<path d="M17.5,24c3.59,0,6.5-2.91,6.5-6.5c0-3.589-2.91-6.5-6.5-6.5S11,13.911,11,17.5C11,21.09,13.91,24,17.5,24z M15,18
			c0.195-0.195,0.512-0.195,0.707,0L17,19.293V14.5c0-0.276,0.224-0.5,0.5-0.5s0.5,0.224,0.5,0.5v4.793L19.293,18
			c0.195-0.195,0.512-0.195,0.707,0s0.195,0.512,0,0.707l-2.146,2.147c-0.195,0.194-0.512,0.194-0.707,0L15,18.707
			C14.805,18.512,14.805,18.195,15,18z"/>
		<path d="M17.5,10c0.877,0,1.717,0.159,2.5,0.438V0.5C20,0.224,19.776,0,19.5,0H17v4h-2V0h-2v4h-2V0H9v4H7V0H5v4H3V0H0.5
			C0.224,0,0,0.224,0,0.5v20C0,20.776,0.224,21,0.5,21h10.372C10.317,19.954,10,18.764,10,17.5C10,13.365,13.365,10,17.5,10z"/>
	</g>
</g>
<g id="Invisible_Shape">
	<rect fill="none" width="24" height="24"/>
</g>
</svg>
