<?xml version="1.0" encoding="utf-8"?>
<!-- Generator: Adobe Illustrator 16.0.3, SVG Export Plug-In . SVG Version: 6.00 Build 0)  -->
<!DOCTYPE svg PUBLIC "-//W3C//DTD SVG 1.1//EN" "http://www.w3.org/Graphics/SVG/1.1/DTD/svg11.dtd">
<svg version="1.1" xmlns="http://www.w3.org/2000/svg" xmlns:xlink="http://www.w3.org/1999/xlink" x="0px" y="0px" width="24px"
	 height="24px" viewBox="0 0 24 24" enable-background="new 0 0 24 24" xml:space="preserve">
<g id="Outline_Icons_1_">
	<g id="Outline_Icons">
		<g>
			<polyline fill="none" stroke="#000000" stroke-linecap="round" stroke-linejoin="round" stroke-miterlimit="10" points="5.5,2.5 
				17.5,2.5 17.5,4.5 			"/>
			<path fill="none" stroke="#000000" stroke-linecap="round" stroke-linejoin="round" stroke-miterlimit="10" d="M19.5,4.5v-4h-14
				c-1.104,0-2,0.896-2,2s0.896,2,2,2h15v19h-15c-1.104,0-2-0.896-2-2v-19"/>
			<path fill="none" stroke="#000000" stroke-linecap="round" stroke-linejoin="round" stroke-miterlimit="10" d="M10.449,11.449
				c0.466-0.465,0.468-1.22,0.001-1.685L9.187,8.499C8.721,8.035,7.965,8.035,7.5,8.5L6.807,9.194
				c-0.602,0.601-0.694,1.539-0.226,2.25c2.014,3.045,4.701,5.733,7.748,7.747c0.708,0.469,1.648,0.375,2.249-0.225l0.694-0.694
				c0.465-0.465,0.466-1.221,0-1.687l-1.265-1.264c-0.465-0.465-1.221-0.465-1.687,0L13.9,15.743
				c-1.387-1.136-2.735-2.485-3.872-3.872L10.449,11.449z"/>
		</g>
	</g>
	<g id="New_icons_1_">
	</g>
</g>
<g id="Invisible_Shape">
	<rect fill="none" width="24" height="24"/>
</g>
</svg>
