<?xml version="1.0" encoding="utf-8"?>
<!-- Generator: Adobe Illustrator 16.0.3, SVG Export Plug-In . SVG Version: 6.00 Build 0)  -->
<!DOCTYPE svg PUBLIC "-//W3C//DTD SVG 1.1//EN" "http://www.w3.org/Graphics/SVG/1.1/DTD/svg11.dtd">
<svg version="1.1" xmlns="http://www.w3.org/2000/svg" xmlns:xlink="http://www.w3.org/1999/xlink" x="0px" y="0px" width="24px"
	 height="24px" viewBox="0 0 24 24" enable-background="new 0 0 24 24" xml:space="preserve">
<g id="Outline_Icons_1_">
	<g id="Outline_Icons">
		<g>
			<polygon fill="none" stroke="#000000" stroke-linecap="round" stroke-linejoin="round" stroke-miterlimit="10" points="7,13.5 
				4.5,13.5 4.5,10.5 7,10.5 10.5,7.5 10.5,16.5 			"/>
			<path fill="none" stroke="#000000" stroke-linecap="square" stroke-linejoin="round" stroke-miterlimit="10" d="M14.5,0.5h-12
				c-1.104,0-2,0.895-2,2c0,1.104,0.896,2,2,2h12v15h-4h-6h-2c-1.104,0-2-0.896-2-2v-15"/>
			
				<line fill="none" stroke="#000000" stroke-linecap="round" stroke-linejoin="round" stroke-miterlimit="10" x1="2.5" y1="2.5" x2="13.5" y2="2.5"/>
			<path fill="none" stroke="#000000" stroke-linecap="round" stroke-linejoin="round" stroke-miterlimit="10" d="M19.097,7.414
				C20.272,8.59,21,10.215,21,12.011c0,1.794-0.728,3.42-1.903,4.596"/>
			<path fill="none" stroke="#000000" stroke-linecap="round" stroke-linejoin="round" stroke-miterlimit="10" d="M21.011,18.02
				c1.538-1.538,2.489-3.664,2.489-6.009c0-2.348-0.951-4.473-2.489-6.011"/>
			<path fill="none" stroke="#000000" stroke-linecap="round" stroke-linejoin="round" stroke-miterlimit="10" d="M17.183,8.828
				c0.814,0.814,1.317,1.939,1.317,3.183c0,1.242-0.503,2.367-1.317,3.182"/>
		</g>
	</g>
	<g id="New_icons_1_">
	</g>
</g>
<g id="Invisible_Shape">
	<rect fill="none" width="24" height="24"/>
</g>
</svg>
