<?xml version="1.0" encoding="utf-8"?>
<!-- Generator: Adobe Illustrator 16.0.3, SVG Export Plug-In . SVG Version: 6.00 Build 0)  -->
<!DOCTYPE svg PUBLIC "-//W3C//DTD SVG 1.1//EN" "http://www.w3.org/Graphics/SVG/1.1/DTD/svg11.dtd">
<svg version="1.1" xmlns="http://www.w3.org/2000/svg" xmlns:xlink="http://www.w3.org/1999/xlink" x="0px" y="0px" width="24px"
	 height="24px" viewBox="0 0 24 24" enable-background="new 0 0 24 24" xml:space="preserve">
<g id="Outline_Icons_1_">
	<g id="Outline_Icons">
	</g>
	<g id="New_icons_1_">
		<g>
			<g>
				<g>
					<polyline fill="none" stroke="#000000" stroke-linecap="round" stroke-linejoin="round" stroke-miterlimit="10" points="
						19.5,2.5 21.5,2.5 21.5,23.5 3.5,23.5 3.5,2.5 5.5,2.5 					"/>
					<path fill="none" stroke="#000000" stroke-linecap="round" stroke-linejoin="round" stroke-miterlimit="10" d="M14.5,2.5
						c0-1.104-0.895-2-2-2c-1.104,0-2,0.896-2,2h-3v3h10v-3H14.5z"/>
					<polyline fill="none" stroke="#000000" stroke-linecap="round" stroke-linejoin="round" stroke-miterlimit="10" points="
						7.5,4.5 5.5,4.5 5.5,21.5 15.5,21.5 15.5,17.5 19.5,17.5 19.5,4.5 17.5,4.5 					"/>
				</g>
				
					<line fill="none" stroke="#000000" stroke-linecap="round" stroke-linejoin="round" stroke-miterlimit="10" x1="19.5" y1="17.5" x2="15.5" y2="21.5"/>
			</g>
			<path fill="none" stroke="#000000" stroke-linecap="round" stroke-linejoin="round" stroke-miterlimit="10" d="M8.5,11
				l0.793-0.792c0.391-0.391,1.023-0.391,1.414,0l0.086,0.085c0.391,0.39,1.023,0.39,1.414,0l0.086-0.085
				c0.391-0.391,1.023-0.391,1.414,0l0.086,0.085c0.391,0.39,1.023,0.39,1.414,0L16,9.5"/>
			<path fill="none" stroke="#000000" stroke-linecap="round" stroke-linejoin="round" stroke-miterlimit="10" d="M8.5,15
				l0.793-0.792c0.391-0.391,1.023-0.391,1.414,0l0.086,0.085c0.391,0.39,1.023,0.39,1.414,0l0.086-0.085
				c0.391-0.391,1.023-0.391,1.414,0l0.086,0.085c0.391,0.39,1.023,0.39,1.414,0L16,13.5"/>
		</g>
	</g>
</g>
<g id="Invisible_Shape">
	<rect fill="none" width="24" height="24"/>
</g>
</svg>
