<?xml version="1.0" encoding="utf-8"?>
<!-- Generator: Adobe Illustrator 16.0.3, SVG Export Plug-In . SVG Version: 6.00 Build 0)  -->
<!DOCTYPE svg PUBLIC "-//W3C//DTD SVG 1.1//EN" "http://www.w3.org/Graphics/SVG/1.1/DTD/svg11.dtd">
<svg version="1.1" xmlns="http://www.w3.org/2000/svg" xmlns:xlink="http://www.w3.org/1999/xlink" x="0px" y="0px" width="24px"
	 height="24px" viewBox="0 0 24 24" enable-background="new 0 0 24 24" xml:space="preserve">
<g id="Outline_Icons">
	<g>
		
			<rect x="0.5" y="0.5" fill="none" stroke="#000000" stroke-linecap="round" stroke-linejoin="round" stroke-miterlimit="10" width="22" height="23"/>
		<path fill="none" stroke="#000000" stroke-linecap="round" stroke-linejoin="round" stroke-miterlimit="10" d="M7.5,3.5
			c0,0.55-0.449,1-1,1h-2c-0.55,0-1-0.45-1-1l0,0c0-0.549,0.45-1,1-1h2C7.051,2.5,7.5,2.951,7.5,3.5L7.5,3.5z"/>
		<path fill="none" stroke="#000000" stroke-linecap="round" stroke-linejoin="round" stroke-miterlimit="10" d="M7.5,7.5
			c0,0.55-0.449,1-1,1h-2c-0.55,0-1-0.45-1-1l0,0c0-0.549,0.45-1,1-1h2C7.051,6.5,7.5,6.951,7.5,7.5L7.5,7.5z"/>
		<path fill="none" stroke="#000000" stroke-linecap="round" stroke-linejoin="round" stroke-miterlimit="10" d="M7.5,20.5
			c0,0.55-0.449,1-1,1h-2c-0.55,0-1-0.45-1-1l0,0c0-0.549,0.45-1,1-1h2C7.051,19.5,7.5,19.951,7.5,20.5L7.5,20.5z"/>
		<path fill="none" stroke="#000000" stroke-linecap="round" stroke-linejoin="round" stroke-miterlimit="10" d="M13.5,3.5
			c0,0.55-0.449,1-1,1h-2c-0.55,0-1-0.45-1-1l0,0c0-0.549,0.45-1,1-1h2C13.051,2.5,13.5,2.951,13.5,3.5L13.5,3.5z"/>
		<path fill="none" stroke="#000000" stroke-linecap="round" stroke-linejoin="round" stroke-miterlimit="10" d="M19.5,11.5
			c0,0.55-0.45,1-1,1h-2c-0.55,0-1-0.45-1-1l0,0c0-0.549,0.45-1,1-1h2C19.05,10.5,19.5,10.951,19.5,11.5L19.5,11.5z"/>
		<path fill="none" stroke="#000000" stroke-linecap="round" stroke-linejoin="round" stroke-miterlimit="10" d="M19.5,3.5
			c0,0.55-0.45,1-1,1h-2c-0.55,0-1-0.45-1-1l0,0c0-0.549,0.45-1,1-1h2C19.05,2.5,19.5,2.951,19.5,3.5L19.5,3.5z"/>
		<path fill="none" stroke="#000000" stroke-linecap="round" stroke-linejoin="round" stroke-miterlimit="10" d="M19.5,7.5
			c0,0.55-0.45,1-1,1h-2c-0.55,0-1-0.45-1-1l0,0c0-0.549,0.45-1,1-1h2C19.05,6.5,19.5,6.951,19.5,7.5L19.5,7.5z"/>
		<path fill="none" stroke="#000000" stroke-linecap="round" stroke-linejoin="round" stroke-miterlimit="10" d="M13.5,16.5
			c0,0.55-0.449,1-1,1h-2c-0.55,0-1-0.45-1-1l0,0c0-0.549,0.45-1,1-1h2C13.051,15.5,13.5,15.951,13.5,16.5L13.5,16.5z"/>
		<path fill="none" stroke="#000000" stroke-linecap="round" stroke-linejoin="round" stroke-miterlimit="10" d="M13.5,20.5
			c0,0.55-0.449,1-1,1h-2c-0.55,0-1-0.45-1-1l0,0c0-0.549,0.45-1,1-1h2C13.051,19.5,13.5,19.951,13.5,20.5L13.5,20.5z"/>
		
			<line fill="none" stroke="#000000" stroke-linecap="round" stroke-linejoin="round" stroke-miterlimit="10" x1="11.5" y1="21.5" x2="11.5" y2="23.5"/>
		
			<line fill="none" stroke="#000000" stroke-linecap="round" stroke-linejoin="round" stroke-miterlimit="10" x1="5.5" y1="21.5" x2="5.5" y2="23.5"/>
		
			<line fill="none" stroke="#000000" stroke-linecap="round" stroke-linejoin="round" stroke-miterlimit="10" x1="11.5" y1="17.5" x2="11.5" y2="19.5"/>
		
			<line fill="none" stroke="#000000" stroke-linecap="round" stroke-linejoin="round" stroke-miterlimit="10" x1="11.5" y1="4.5" x2="11.5" y2="15.5"/>
		
			<line fill="none" stroke="#000000" stroke-linecap="round" stroke-linejoin="round" stroke-miterlimit="10" x1="5.5" y1="8.5" x2="5.5" y2="19.5"/>
		
			<line fill="none" stroke="#000000" stroke-linecap="round" stroke-linejoin="round" stroke-miterlimit="10" x1="5.5" y1="4.5" x2="5.5" y2="6.5"/>
		
			<line fill="none" stroke="#000000" stroke-linecap="round" stroke-linejoin="round" stroke-miterlimit="10" x1="5.5" y1="0.5" x2="5.5" y2="2.5"/>
		
			<line fill="none" stroke="#000000" stroke-linecap="round" stroke-linejoin="round" stroke-miterlimit="10" x1="11.5" y1="0.5" x2="11.5" y2="2.5"/>
		
			<line fill="none" stroke="#000000" stroke-linecap="round" stroke-linejoin="round" stroke-miterlimit="10" x1="17.5" y1="8.5" x2="17.5" y2="10.5"/>
		
			<line fill="none" stroke="#000000" stroke-linecap="round" stroke-linejoin="round" stroke-miterlimit="10" x1="17.5" y1="12.5" x2="17.5" y2="23.5"/>
		
			<line fill="none" stroke="#000000" stroke-linecap="round" stroke-linejoin="round" stroke-miterlimit="10" x1="17.5" y1="4.5" x2="17.5" y2="6.5"/>
		
			<line fill="none" stroke="#000000" stroke-linecap="round" stroke-linejoin="round" stroke-miterlimit="10" x1="17.5" y1="0.5" x2="17.5" y2="2.5"/>
	</g>
</g>
<g id="Invisibla_Shape">
	<rect fill="none" width="24" height="24"/>
</g>
</svg>
