<?xml version="1.0" encoding="utf-8"?>
<!-- Generator: Adobe Illustrator 16.0.3, SVG Export Plug-In . SVG Version: 6.00 Build 0)  -->
<!DOCTYPE svg PUBLIC "-//W3C//DTD SVG 1.1//EN" "http://www.w3.org/Graphics/SVG/1.1/DTD/svg11.dtd">
<svg version="1.1" xmlns="http://www.w3.org/2000/svg" xmlns:xlink="http://www.w3.org/1999/xlink" x="0px" y="0px" width="24px"
	 height="24px" viewBox="0 0 24 24" enable-background="new 0 0 24 24" xml:space="preserve">
<g id="Outline_Icons">
	<g>
		<g>
			<polyline fill="none" stroke="#000000" stroke-linecap="round" stroke-linejoin="round" stroke-miterlimit="10" points="11.5,1 
				13.5,3.5 11.5,6 			"/>
			
				<line fill="none" stroke="#000000" stroke-linecap="round" stroke-linejoin="round" stroke-miterlimit="10" x1="9.5" y1="3.5" x2="13.5" y2="3.5"/>
		</g>
		<g>
			<polyline fill="none" stroke="#000000" stroke-linecap="round" stroke-linejoin="round" stroke-miterlimit="10" points="11.5,18 
				9.5,20.5 11.5,23 			"/>
			
				<line fill="none" stroke="#000000" stroke-linecap="round" stroke-linejoin="round" stroke-miterlimit="10" x1="13.5" y1="20.5" x2="9.5" y2="20.5"/>
		</g>
		<g>
			<path fill="none" stroke="#000000" stroke-linecap="round" stroke-linejoin="round" stroke-miterlimit="10" d="M10.211,13.416
				c0,0.711,0.577,1.288,1.289,1.288c0.711,0,1.288-0.577,1.288-1.288c0-0.712-0.577-1.289-1.288-1.289
				c-0.712,0-1.289-0.577-1.289-1.289c0-0.711,0.577-1.288,1.289-1.288c0.711,0,1.288,0.577,1.288,1.288"/>
			
				<line fill="none" stroke="#000000" stroke-linecap="round" stroke-linejoin="round" stroke-miterlimit="10" x1="11.5" y1="8.5" x2="11.5" y2="9.55"/>
			
				<line fill="none" stroke="#000000" stroke-linecap="round" stroke-linejoin="round" stroke-miterlimit="10" x1="11.5" y1="14.704" x2="11.5" y2="15.748"/>
		</g>
		<circle fill="none" stroke="#000000" stroke-linejoin="round" stroke-miterlimit="10" cx="3" cy="8" r="2.5"/>
		<path fill="none" stroke="#000000" stroke-linejoin="round" stroke-miterlimit="10" d="M5.5,21.5h-5V15c0-1.381,1.119-2.5,2.5-2.5
			s2.5,1.119,2.5,2.5V21.5z"/>
		<circle fill="none" stroke="#000000" stroke-linejoin="round" stroke-miterlimit="10" cx="21" cy="8" r="2.5"/>
		<path fill="none" stroke="#000000" stroke-linejoin="round" stroke-miterlimit="10" d="M23.5,21.5h-5V15
			c0-1.381,1.119-2.5,2.5-2.5s2.5,1.119,2.5,2.5V21.5z"/>
	</g>
</g>
<g id="Invisibla_Shape">
	<rect fill="none" width="24" height="24"/>
</g>
</svg>
