<?xml version="1.0" encoding="utf-8"?>
<!-- Generator: Adobe Illustrator 16.0.3, SVG Export Plug-In . SVG Version: 6.00 Build 0)  -->
<!DOCTYPE svg PUBLIC "-//W3C//DTD SVG 1.1//EN" "http://www.w3.org/Graphics/SVG/1.1/DTD/svg11.dtd">
<svg version="1.1" xmlns="http://www.w3.org/2000/svg" xmlns:xlink="http://www.w3.org/1999/xlink" x="0px" y="0px" width="24px"
	 height="24px" viewBox="0 0 24 24" enable-background="new 0 0 24 24" xml:space="preserve">
<g id="Outline_Icons">
	<g>
		
			<circle fill="none" stroke="#000000" stroke-linecap="round" stroke-linejoin="round" stroke-miterlimit="10" cx="10.5" cy="10.5" r="10"/>
		
			<line fill="none" stroke="#000000" stroke-linecap="round" stroke-linejoin="round" stroke-miterlimit="10" x1="17.572" y1="17.574" x2="23.5" y2="23.5"/>
		<path fill="none" stroke="#000000" stroke-linecap="round" stroke-linejoin="round" stroke-miterlimit="10" d="M11.5,10.25h1.073
			c0.914,0,1.073,0.498,1.073,1.118c0,0.621-0.159,1.132-1.073,1.132H11.5V8h1.073c0.914,0,1.073,0.502,1.073,1.124
			c0,0.62-0.159,1.126-1.073,1.126H11.5z"/>
		<path fill="none" stroke="#000000" stroke-linecap="round" stroke-linejoin="round" stroke-miterlimit="10" d="M3.354,11.427
			c0,0-0.082,1.073,1.073,1.073c1.133,0,1.073-1.036,1.073-1.036V8"/>
		<path fill="none" stroke="#000000" stroke-linecap="round" stroke-linejoin="round" stroke-miterlimit="10" d="M9.769,10.25
			c0,1.267-0.189,2.25-1.269,2.25c-1.08,0-1.27-0.983-1.27-2.25C7.23,8.984,7.42,8,8.5,8C9.579,8,9.769,8.984,9.769,10.25z"/>
		<path fill="none" stroke="#000000" stroke-linecap="round" stroke-linejoin="round" stroke-miterlimit="10" d="M15.599,11.425
			c0.035,0.602,0.502,1.075,1.072,1.075c0.594,0,1.075-0.514,1.075-1.147c0-0.935-0.885-1.052-1.072-1.107
			c-0.188-0.055-1.075-0.162-1.075-1.097C15.599,8.514,16.08,8,16.674,8c0.57,0,1.037,0.476,1.072,1.075"/>
	</g>
</g>
<g id="Invisibla_Shape">
	<rect fill="none" width="24" height="24"/>
</g>
</svg>
