<?xml version="1.0" encoding="utf-8"?>
<!-- Generator: Adobe Illustrator 16.0.3, SVG Export Plug-In . SVG Version: 6.00 Build 0)  -->
<!DOCTYPE svg PUBLIC "-//W3C//DTD SVG 1.1//EN" "http://www.w3.org/Graphics/SVG/1.1/DTD/svg11.dtd">
<svg version="1.1" xmlns="http://www.w3.org/2000/svg" xmlns:xlink="http://www.w3.org/1999/xlink" x="0px" y="0px" width="24px"
	 height="24px" viewBox="0 0 24 24" enable-background="new 0 0 24 24" xml:space="preserve">
<g id="Outline_Icons">
	<g>
		<path fill="none" stroke="#000000" stroke-linejoin="round" stroke-miterlimit="10" d="M9,12.5c-1.813,1.334-1.712,3.922-1,5
			c0.489-0.401,0.925-0.839,1-1.5c1.669,0.661,2.5,1.969,2.5,3.5c0,2.209-1.79,4-4,4c-2.209,0-4-1.791-4-4
			C3.5,16.273,5.824,13.23,9,12.5z"/>
		<path fill="none" stroke="#000000" stroke-linejoin="round" stroke-miterlimit="10" d="M8.1,19.105
			c-0.303,0.914,0.999,1.795,0.999,2.797c0,0.882-0.716,1.598-1.599,1.598s-1.599-0.716-1.599-1.598
			C5.901,20.612,6.83,19.396,8.1,19.105z"/>
		<polyline fill="none" stroke="#000000" stroke-linecap="round" stroke-linejoin="round" stroke-miterlimit="10" points="
			3.953,13.974 2.954,12.975 14.975,0.955 22.046,8.026 12.801,17.271 		"/>
		
			<circle fill="none" stroke="#000000" stroke-linecap="round" stroke-linejoin="round" stroke-miterlimit="10" cx="12.5" cy="10.5" r="2"/>
		
			<line fill="none" stroke="#000000" stroke-linecap="round" stroke-linejoin="round" stroke-miterlimit="10" x1="13.561" y1="5.196" x2="14.975" y2="3.783"/>
	</g>
</g>
<g id="Invisibla_Shape">
	<rect fill="none" width="24" height="24"/>
</g>
</svg>
