<?xml version="1.0" encoding="utf-8"?>
<!-- Generator: Adobe Illustrator 16.0.3, SVG Export Plug-In . SVG Version: 6.00 Build 0)  -->
<!DOCTYPE svg PUBLIC "-//W3C//DTD SVG 1.1//EN" "http://www.w3.org/Graphics/SVG/1.1/DTD/svg11.dtd">
<svg version="1.1" xmlns="http://www.w3.org/2000/svg" xmlns:xlink="http://www.w3.org/1999/xlink" x="0px" y="0px" width="24px"
	 height="24px" viewBox="0 0 24 24" enable-background="new 0 0 24 24" xml:space="preserve">
<g id="Outline_Icons">
	<g>
		<g>
			<path fill="none" stroke="#000000" stroke-linejoin="round" stroke-miterlimit="10" d="M14.897,13.117l1-1.732l-1-0.577
				c0.137-0.579,0.136-1.038,0-1.614l0.999-0.577l-1-1.732l-0.999,0.576c-0.392-0.369-0.868-0.64-1.397-0.799V5.5h-2v1.162
				c-0.529,0.159-1.006,0.43-1.397,0.799L8.104,6.885l-1,1.732l0.999,0.577c-0.136,0.576-0.137,1.035,0,1.614l-1,0.577l1,1.732
				l1-0.578c0.392,0.369,0.869,0.639,1.397,0.798V14.5h2v-1.162c0.528-0.159,1.006-0.43,1.396-0.798L14.897,13.117z"/>
			<circle fill="none" stroke="#000000" stroke-linejoin="round" stroke-miterlimit="10" cx="11.5" cy="10" r="1.5"/>
		</g>
		<g>
			<rect x="0.5" y="0.5" fill="none" stroke="#000000" stroke-linejoin="round" stroke-miterlimit="10" width="22" height="3"/>
			
				<line fill="none" stroke="#000000" stroke-linecap="round" stroke-linejoin="round" stroke-miterlimit="10" x1="0.521" y1="17.5" x2="22.479" y2="17.5"/>
			<rect x="2.5" y="3.5" fill="none" stroke="#000000" stroke-linejoin="round" stroke-miterlimit="10" width="18" height="14"/>
			<line fill="none" stroke="#000000" stroke-linejoin="round" stroke-miterlimit="10" x1="11.5" y1="17.5" x2="11.5" y2="20.5"/>
			<circle fill="none" stroke="#000000" stroke-linejoin="round" stroke-miterlimit="10" cx="11.5" cy="22" r="1.5"/>
		</g>
	</g>
</g>
<g id="Invisibla_Shape">
	<rect fill="none" width="24" height="24"/>
</g>
</svg>
