<?xml version="1.0" encoding="utf-8"?>
<!-- Generator: Adobe Illustrator 16.0.3, SVG Export Plug-In . SVG Version: 6.00 Build 0)  -->
<!DOCTYPE svg PUBLIC "-//W3C//DTD SVG 1.1//EN" "http://www.w3.org/Graphics/SVG/1.1/DTD/svg11.dtd">
<svg version="1.1" xmlns="http://www.w3.org/2000/svg" xmlns:xlink="http://www.w3.org/1999/xlink" x="0px" y="0px" width="24px"
	 height="24px" viewBox="0 0 24 24" enable-background="new 0 0 24 24" xml:space="preserve">
<g id="Outline_Icons">
	<g>
		<path fill="none" stroke="#000000" stroke-linejoin="round" stroke-miterlimit="10" d="M5.317,15.05
			C6.084,15.168,5.974,15.506,7,15.506c0.983,0,1.051-0.319,1.727-0.442"/>
		<path fill="none" stroke="#000000" stroke-linecap="round" stroke-linejoin="round" stroke-miterlimit="10" d="M7,19.5"/>
		<path fill="none" stroke="#000000" stroke-linecap="round" stroke-linejoin="round" stroke-miterlimit="10" d="M10.197,15.509
			c0.774,0.79,1.303,1.798,1.303,2.991l-2,2.5L9,23c-0.24,0.268-1.611,0.5-2,0.5S5.24,23.268,5,23l-0.5-2l-2-2.5
			c0-1.192,0.666-2.202,1.438-2.992"/>
		<path fill="none" stroke="#000000" stroke-linecap="round" stroke-linejoin="round" stroke-miterlimit="10" d="M2.689,17.188
			L1.813,16.75C0.938,16.312,0.5,15.874,0.5,14.559c0-0.967,0.784-2.059,1.752-2.059c0,0,0.438,0,1.312,0
			c0.876,0,1.314-1.752,1.314-1.752s1.313,1.185,1.313,2.499c0,1.313-0.876,2.26-1.752,2.26S2.5,15.5,2.5,15.5"/>
		<path fill="none" stroke="#000000" stroke-linecap="round" stroke-linejoin="round" stroke-miterlimit="10" d="M11.311,17.188
			l0.876-0.438c0.876-0.438,1.313-0.876,1.313-2.19c0-0.967-0.784-2.059-1.752-2.059c0,0-0.438,0-1.312,0
			c-0.876,0-1.314-1.752-1.314-1.752s-1.313,1.185-1.313,2.499c0,1.313,0.876,2.254,1.752,2.254s1.94,0,1.94,0"/>
		<polyline fill="none" stroke="#000000" stroke-linecap="round" stroke-linejoin="round" stroke-miterlimit="10" points="2,0.5 
			10,8.5 15,4.5 23.5,13.5 		"/>
		<polyline fill="none" stroke="#000000" stroke-linecap="round" stroke-linejoin="round" stroke-miterlimit="10" points="
			16.5,13.5 23.5,13.5 23.5,7 		"/>
		<g>
			<path d="M9,17c-0.276,0-0.5,0.224-0.5,0.5S8.724,18,9,18s0.5-0.224,0.5-0.5S9.276,17,9,17L9,17z"/>
		</g>
		<g>
			<path d="M5,17c-0.276,0-0.5,0.224-0.5,0.5S4.724,18,5,18s0.5-0.224,0.5-0.5S5.276,17,5,17L5,17z"/>
		</g>
	</g>
</g>
<g id="Invisibla_Shape">
</g>
</svg>
