<?xml version="1.0" encoding="utf-8"?>
<!-- Generator: Adobe Illustrator 16.0.3, SVG Export Plug-In . SVG Version: 6.00 Build 0)  -->
<!DOCTYPE svg PUBLIC "-//W3C//DTD SVG 1.1//EN" "http://www.w3.org/Graphics/SVG/1.1/DTD/svg11.dtd">
<svg version="1.1" xmlns="http://www.w3.org/2000/svg" xmlns:xlink="http://www.w3.org/1999/xlink" x="0px" y="0px" width="24px"
	 height="24px" viewBox="0 0 24 24" enable-background="new 0 0 24 24" xml:space="preserve">
<g id="Outline_Icons">
	<g>
		<polyline fill="none" stroke="#000000" stroke-linecap="round" stroke-linejoin="round" stroke-miterlimit="10" points="2,13.5 
			11,4.5 16,8.5 23.5,0.5 		"/>
		<polyline fill="none" stroke="#000000" stroke-linecap="round" stroke-linejoin="round" stroke-miterlimit="10" points="16.5,0.5 
			23.5,0.5 23.5,7 		"/>
		<path fill="none" stroke="#000000" stroke-linejoin="round" stroke-miterlimit="10" d="M15.317,15.05
			c0.767,0.118,0.656,0.456,1.683,0.456c0.983,0,1.051-0.319,1.727-0.442"/>
		<path fill="none" stroke="#000000" stroke-linecap="round" stroke-linejoin="round" stroke-miterlimit="10" d="M17,19.5"/>
		<path fill="none" stroke="#000000" stroke-linecap="round" stroke-linejoin="round" stroke-miterlimit="10" d="M20.197,15.509
			c0.774,0.79,1.303,1.798,1.303,2.991l-2,2.5L19,23c-0.24,0.268-1.611,0.5-2,0.5s-1.76-0.232-2-0.5l-0.5-2l-2-2.5
			c0-1.192,0.666-2.202,1.438-2.992"/>
		<path fill="none" stroke="#000000" stroke-linecap="round" stroke-linejoin="round" stroke-miterlimit="10" d="M12.689,17.188
			l-0.876-0.438c-0.876-0.438-1.313-0.876-1.313-2.19c0-0.967,0.784-2.059,1.752-2.059c0,0,0.438,0,1.312,0
			c0.876,0,1.314-1.752,1.314-1.752s1.313,1.185,1.313,2.499c0,1.313-0.876,2.26-1.752,2.26S12.5,15.5,12.5,15.5"/>
		<path fill="none" stroke="#000000" stroke-linecap="round" stroke-linejoin="round" stroke-miterlimit="10" d="M21.311,17.188
			l0.876-0.438c0.876-0.438,1.313-0.876,1.313-2.19c0-0.967-0.784-2.059-1.752-2.059c0,0-0.438,0-1.312,0
			c-0.876,0-1.314-1.752-1.314-1.752s-1.313,1.185-1.313,2.499c0,1.313,0.876,2.254,1.752,2.254s1.94,0,1.94,0"/>
		<g>
			<path d="M19,17c-0.276,0-0.5,0.224-0.5,0.5S18.724,18,19,18s0.5-0.224,0.5-0.5S19.276,17,19,17L19,17z"/>
		</g>
		<g>
			<path d="M15,17c-0.276,0-0.5,0.224-0.5,0.5S14.724,18,15,18s0.5-0.224,0.5-0.5S15.276,17,15,17L15,17z"/>
		</g>
	</g>
</g>
<g id="Invisibla_Shape">
</g>
</svg>
