<?xml version="1.0" encoding="utf-8"?>
<!-- Generator: Adobe Illustrator 16.0.3, SVG Export Plug-In . SVG Version: 6.00 Build 0)  -->
<!DOCTYPE svg PUBLIC "-//W3C//DTD SVG 1.1//EN" "http://www.w3.org/Graphics/SVG/1.1/DTD/svg11.dtd">
<svg version="1.1" xmlns="http://www.w3.org/2000/svg" xmlns:xlink="http://www.w3.org/1999/xlink" x="0px" y="0px" width="24px"
	 height="24px" viewBox="0 0 24 24" enable-background="new 0 0 24 24" xml:space="preserve">
<g id="Outline_Icons">
	<g>
		<polyline fill="none" stroke="#000000" stroke-linecap="round" stroke-linejoin="round" stroke-miterlimit="10" points="2,13.5 
			11,4.5 16,8.5 23.5,0.5 		"/>
		<polyline fill="none" stroke="#000000" stroke-linecap="round" stroke-linejoin="round" stroke-miterlimit="10" points="16.5,0.5 
			23.5,0.5 23.5,7 		"/>
		<path fill="none" stroke="#000000" stroke-linecap="round" stroke-linejoin="round" stroke-miterlimit="10" d="M19.949,20
			C19.982,20.162,20,20.329,20,20.5c0,1.381-1.119,2.5-2.5,2.5S15,21.881,15,20.5c0-0.171,0.018-0.338,0.051-0.5l1.035-3.5
			c0.206-0.583,0.761-1,1.414-1s1.21,0.418,1.415,1.002L19.949,20z"/>
		<path fill="none" stroke="#000000" stroke-linejoin="round" stroke-miterlimit="10" d="M16,17c0,0,0.976,0.5,1.5,0.5S19,17,19,17"
			/>
		<path fill="none" stroke="#000000" stroke-linecap="round" stroke-linejoin="round" stroke-miterlimit="10" d="M17.5,17.5
			c0,0,0,1.5,0,2s0.5,1,1,1s1.5,0,1.5,0"/>
		<path fill="none" stroke="#000000" stroke-linecap="round" stroke-linejoin="round" stroke-miterlimit="10" d="M17.5,19.5
			c0,0.5-0.5,1-1,1s-1.5,0-1.5,0"/>
		<path fill="none" stroke="#000000" stroke-linecap="round" stroke-linejoin="round" stroke-miterlimit="10" d="M21.498,13.362
			c0.438,0.312,0.818,0.698,1.125,1.139c0.522,0.752,0.828,1.665,0.828,2.649c0,1.074-0.364,2.063-0.977,2.85
			c0,0-1.427,1.334-2.975,2.053"/>
		<path fill="none" stroke="#000000" stroke-linejoin="round" stroke-miterlimit="10" d="M22.5,14.265c0,0,0-1.265,0-1.765
			S22,11,21,11s-1.5,1.5-1.5,1.5h-4c0,0-0.5-1.5-1.5-1.5s-1.5,1-1.5,1.5s0,1.718,0,1.718"/>
		<path fill="none" stroke="#000000" stroke-linecap="round" stroke-linejoin="round" stroke-miterlimit="10" d="M15.496,21.917
			c-1.383-0.592-2.574-1.42-2.574-1.42c-0.877-0.846-1.422-2.033-1.422-3.347c0-0.985,0.307-1.898,0.828-2.65
			c0.317-0.457,0.715-0.854,1.172-1.172"/>
		<g>
			<path d="M20.5,14.5c-0.276,0-0.5,0.224-0.5,0.5s0.224,0.5,0.5,0.5S21,15.276,21,15S20.776,14.5,20.5,14.5L20.5,14.5z"/>
		</g>
		<g>
			<path d="M15,14.5c-0.276,0-0.5,0.224-0.5,0.5s0.224,0.5,0.5,0.5s0.5-0.224,0.5-0.5S15.276,14.5,15,14.5L15,14.5z"/>
		</g>
	</g>
</g>
<g id="Invisibla_Shape">
</g>
</svg>
