<?xml version="1.0" encoding="utf-8"?>
<!-- Generator: Adobe Illustrator 16.0.3, SVG Export Plug-In . SVG Version: 6.00 Build 0)  -->
<!DOCTYPE svg PUBLIC "-//W3C//DTD SVG 1.1//EN" "http://www.w3.org/Graphics/SVG/1.1/DTD/svg11.dtd">
<svg version="1.1" xmlns="http://www.w3.org/2000/svg" xmlns:xlink="http://www.w3.org/1999/xlink" x="0px" y="0px" width="24px"
	 height="24px" viewBox="0 0 24 24" enable-background="new 0 0 24 24" xml:space="preserve">
<g id="Outline_Icons">
	<g>
		<path fill="none" stroke="#000000" stroke-linecap="round" stroke-linejoin="round" stroke-miterlimit="10" d="M15,16.5
			c0,0.525,0.115,1.022,0.322,1.47c0,0,0.678,1.53,0.678,2.53s-0.5,3-0.5,3H18l0.5-2.5c0,0,0.5-0.5,1.673-1.425
			C21.146,18.807,22,17.827,22,16.5c0-1.933-1.624-3.031-3.5-3.5c-3.724-0.931-2.877-4-7.5-4c-3.062,0-5.477,2.2-8.142,3.977"/>
		<path fill="none" stroke="#000000" stroke-linecap="round" stroke-linejoin="round" stroke-miterlimit="10" d="M0.537,9.5
			c0,0,1.123,1.411,0.751,2.947c-0.235,0.972-0.828,2.077-0.786,2.575c0.042,0.499,0.425,1.47,1.123,1.411
			c0.498-0.042,1.326-2.119,1.158-4.112C2.614,10.328,0.537,9.5,0.537,9.5z"/>
		<path fill="none" stroke="#000000" stroke-linecap="round" stroke-linejoin="round" stroke-miterlimit="10" d="M0.5,15
			c0,0,0,3.5,0.5,4s2-0.5,2.5-1s1-1.5,1-2.5"/>
		<path fill="none" stroke="#000000" stroke-linecap="round" stroke-linejoin="round" stroke-miterlimit="10" d="M9,18
			c0,0,0.5,0.5,0.5,1.5c0,1.5-1,4-1,4H10l2.5-4.5h3.188"/>
		<path fill="none" stroke="#000000" stroke-linecap="round" stroke-linejoin="round" stroke-miterlimit="10" d="M4.5,17
			c1,0,3.5,0.5,4.5,1"/>
		<path fill="none" stroke="#000000" stroke-linecap="round" stroke-linejoin="round" stroke-miterlimit="10" d="M7,17.5
			c0,0-2,2-2,2.5s1,2,1,2l1-0.5c0,0,0-0.5,0.5-1s2-1,2-1"/>
		<path fill="none" stroke="#000000" stroke-linejoin="round" stroke-miterlimit="10" d="M21.868,17.369
			C21.766,17.75,21.688,18.375,22,19c0.633,1.265,1.5,1.5,1.5,1.5l-0.5,3h-2c0,0,0.5-1,0-2s-2.016-1-2.016-1"/>
		<path fill="none" stroke="#000000" stroke-linejoin="round" stroke-miterlimit="10" d="M21.594,14.969
			c0,0,1.406-0.469,1.406-1.969s-1.5-2-2.5-2s-2.5-0.5-3-1.5s0-2,0-2s-0.5-1,0-2s1.5-1,1.5-1s0.5,1,0,2s-1.5,1-1.5,1"/>
	</g>
</g>
<g id="Invisibla_Shape">
</g>
</svg>
