<?xml version="1.0" encoding="utf-8"?>
<!-- Generator: Adobe Illustrator 16.0.3, SVG Export Plug-In . SVG Version: 6.00 Build 0)  -->
<!DOCTYPE svg PUBLIC "-//W3C//DTD SVG 1.1//EN" "http://www.w3.org/Graphics/SVG/1.1/DTD/svg11.dtd">
<svg version="1.1" xmlns="http://www.w3.org/2000/svg" xmlns:xlink="http://www.w3.org/1999/xlink" x="0px" y="0px" width="24px"
	 height="24px" viewBox="0 0 24 24" enable-background="new 0 0 24 24" xml:space="preserve">
<g id="Outline_Icons">
	<g>
		<path fill="none" stroke="#000000" stroke-linecap="round" stroke-linejoin="round" stroke-miterlimit="10" d="M13.712,17.107
			c0.294,0.464,0.344,0.802,0.344,1.393c0,0.818-0.328,1.559-0.858,2.1l0.858,2.9h-3.5L9.5,19"/>
		<path fill="none" stroke="#000000" stroke-linecap="round" stroke-linejoin="round" stroke-miterlimit="10" d="M13.056,14.5
			c0,0,0.5,1,2,2s4.5,1,4.5,1l2-2c0,0-3-1-3.854-2.295C16.83,11.885,18.056,10,18.056,10s2.5-1,3.5-2s1-3,0.5-3s-4.25,0-4.25,0
			s-0.75-1-1.75-0.5s0,1,0,1c-1.475,0.737-3.072,0.855-4.5,1.5C9.389,7.979,9.23,9.296,7.497,9.586
			c-1.861,0.311-3.459,1.402-4.433,2.935"/>
		<path fill="none" stroke="#000000" stroke-linecap="round" stroke-linejoin="round" stroke-miterlimit="10" d="M3.147,12.373
			C2.827,12.756,2.345,13,1.806,13h-1.25c0,0-0.5,3,1.5,3c0,2.096,0.992,3.961,2.533,5.15l0.467,2.35H8.5V20
			c0.713-0.641,1.056-1.465,1.056-2.5c0-0.981-0.404-1.869-1.055-2.504"/>
		<path fill="none" stroke="#000000" stroke-linecap="round" stroke-linejoin="round" stroke-miterlimit="10" d="M9.189,19.059
			c0,0,1.347-0.092,2.992-0.836c1.646-0.745,2.259-2.176,2.259-2.176"/>
		<path fill="none" stroke="#000000" stroke-linejoin="round" stroke-miterlimit="10" d="M17.766,10.5c0,0,1.29,0,2.29,0
			c2,0,3.5-0.5,3.5-0.5s-0.5,2.5-1,3s-4.04,1-4.04,1"/>
	</g>
</g>
<g id="Invisibla_Shape">
</g>
</svg>
