<?xml version="1.0" encoding="utf-8"?>
<!-- Generator: Adobe Illustrator 16.0.3, SVG Export Plug-In . SVG Version: 6.00 Build 0)  -->
<!DOCTYPE svg PUBLIC "-//W3C//DTD SVG 1.1//EN" "http://www.w3.org/Graphics/SVG/1.1/DTD/svg11.dtd">
<svg version="1.1" xmlns="http://www.w3.org/2000/svg" xmlns:xlink="http://www.w3.org/1999/xlink" x="0px" y="0px" width="24px"
	 height="24px" viewBox="0 0 24 24" enable-background="new 0 0 24 24" xml:space="preserve">
<g id="Outline_Icons">
	<g>
		<path fill="none" stroke="#000000" stroke-linecap="round" stroke-linejoin="round" stroke-miterlimit="10" d="M8.949,20
			C8.982,20.162,9,20.329,9,20.5C9,21.881,7.881,23,6.5,23S4,21.881,4,20.5c0-0.171,0.018-0.338,0.051-0.5l1.035-3.5
			c0.206-0.583,0.761-1,1.414-1s1.21,0.418,1.415,1.002L8.949,20z"/>
		<path fill="none" stroke="#000000" stroke-linejoin="round" stroke-miterlimit="10" d="M5,17c0,0,0.976,0.5,1.5,0.5S8,17,8,17"/>
		<path fill="none" stroke="#000000" stroke-linecap="round" stroke-linejoin="round" stroke-miterlimit="10" d="M6.5,17.5
			c0,0,0,1.5,0,2s0.5,1,1,1s1.5,0,1.5,0"/>
		<path fill="none" stroke="#000000" stroke-linecap="round" stroke-linejoin="round" stroke-miterlimit="10" d="M6.5,19.5
			c0,0.5-0.5,1-1,1s-1.5,0-1.5,0"/>
		<path fill="none" stroke="#000000" stroke-linecap="round" stroke-linejoin="round" stroke-miterlimit="10" d="M10.498,13.362
			c0.438,0.312,0.818,0.698,1.125,1.139c0.522,0.752,0.828,1.665,0.828,2.649c0,1.074-0.364,2.063-0.977,2.85
			c0,0-1.427,1.334-2.975,2.053"/>
		<path fill="none" stroke="#000000" stroke-linejoin="round" stroke-miterlimit="10" d="M11.5,14.265c0,0,0-1.265,0-1.765
			S11,11,10,11s-1.5,1.5-1.5,1.5h-4C4.5,12.5,4,11,3,11s-1.5,1-1.5,1.5s0,1.718,0,1.718"/>
		<path fill="none" stroke="#000000" stroke-linecap="round" stroke-linejoin="round" stroke-miterlimit="10" d="M4.496,21.917
			c-1.383-0.592-2.574-1.42-2.574-1.42C1.045,19.651,0.5,18.464,0.5,17.15c0-0.985,0.307-1.898,0.828-2.65
			c0.317-0.457,0.715-0.854,1.172-1.172"/>
		<polyline fill="none" stroke="#000000" stroke-linecap="round" stroke-linejoin="round" stroke-miterlimit="10" points="2,0.5 
			10,8.5 15,4.5 23.5,13.5 		"/>
		<polyline fill="none" stroke="#000000" stroke-linecap="round" stroke-linejoin="round" stroke-miterlimit="10" points="
			16.5,13.5 23.5,13.5 23.5,7 		"/>
		<g>
			<path d="M9.5,14.5C9.224,14.5,9,14.724,9,15s0.224,0.5,0.5,0.5S10,15.276,10,15S9.776,14.5,9.5,14.5L9.5,14.5z"/>
		</g>
		<g>
			<path d="M4,14.5c-0.276,0-0.5,0.224-0.5,0.5s0.224,0.5,0.5,0.5s0.5-0.224,0.5-0.5S4.276,14.5,4,14.5L4,14.5z"/>
		</g>
	</g>
</g>
<g id="Invisibla_Shape">
</g>
</svg>
