<?xml version="1.0" encoding="utf-8"?>
<!-- Generator: Adobe Illustrator 19.2.1, SVG Export Plug-In . SVG Version: 6.00 Build 0)  -->
<svg version="1.1" xmlns="http://www.w3.org/2000/svg" xmlns:xlink="http://www.w3.org/1999/xlink" x="0px" y="0px" width="24px"
	 height="24px" viewBox="0 0 24 24" enable-background="new 0 0 24 24" xml:space="preserve">
<g id="Filled_Icons_1_">
	<g id="Filled_Icons">
	</g>
	<g id="New_icons">
		<g>
			<path d="M21.5,10h-19C2.224,10,2,10.224,2,10.5v7C2,17.776,2.224,18,2.5,18S3,17.776,3,17.5V11h2v8.5C5,19.776,5.224,20,5.5,20H8
				v3.5C8,23.776,8.224,24,8.5,24S9,23.776,9,23.5V20h6v3.5c0,0.276,0.224,0.5,0.5,0.5s0.5-0.224,0.5-0.5V20h2.5
				c0.276,0,0.5-0.224,0.5-0.5V11h2v6.5c0,0.276,0.224,0.5,0.5,0.5s0.5-0.224,0.5-0.5v-7C22,10.224,21.776,10,21.5,10z"/>
			<path d="M18.854,0.854c0.195-0.195,0.195-0.512,0-0.707c-0.195-0.195-0.512-0.195-0.707,0l-2.13,2.13C14.878,1.475,13.495,1,12,1
				S9.122,1.475,7.983,2.276l-2.13-2.13c-0.195-0.195-0.512-0.195-0.707,0s-0.195,0.512,0,0.707l2.06,2.06C5.852,4.19,5,5.996,5,8
				v0.5C5,8.776,5.224,9,5.5,9h13C18.776,9,19,8.776,19,8.5V8c0-2.004-0.852-3.81-2.206-5.087L18.854,0.854z M10,6
				c0,0.276-0.224,0.5-0.5,0.5S9,6.276,9,6V4.5C9,4.224,9.224,4,9.5,4S10,4.224,10,4.5V6z M15,6c0,0.276-0.224,0.5-0.5,0.5
				S14,6.276,14,6V4.5C14,4.224,14.224,4,14.5,4S15,4.224,15,4.5V6z"/>
		</g>
	</g>
</g>
<g id="Invisible_Shape">
	<rect fill="none" width="24" height="24"/>
</g>
</svg>
