<?xml version="1.0" encoding="utf-8"?>
<!-- Generator: Adobe Illustrator 19.2.1, SVG Export Plug-In . SVG Version: 6.00 Build 0)  -->
<svg version="1.1" xmlns="http://www.w3.org/2000/svg" xmlns:xlink="http://www.w3.org/1999/xlink" x="0px" y="0px" width="24px"
	 height="24px" viewBox="0 0 24 24" enable-background="new 0 0 24 24" xml:space="preserve">
<g id="Filled_Icons_1_">
	<g id="Filled_Icons">
		<g>
			<path d="M8.047,13.288L11.448,6H0.5C0.224,6,0,6.224,0,6.5v11C0,17.776,0.224,18,0.5,18H11v-4H8.5
				C8.133,14,7.893,13.619,8.047,13.288z"/>
			<path d="M23.5,9H21V6.5C21,6.224,20.775,6,20.5,6H13v4h2.5c0.367,0,0.607,0.381,0.453,0.712L12.552,18H20.5
				c0.275,0,0.5-0.224,0.5-0.5V15h2.5c0.275,0,0.5-0.224,0.5-0.5v-5C24,9.224,23.775,9,23.5,9z"/>
		</g>
	</g>
	<g id="New_icons">
	</g>
</g>
<g id="Invisible_Shape">
	<rect fill="none" width="24" height="24"/>
</g>
</svg>
