<?xml version="1.0" encoding="utf-8"?>
<!-- Generator: Adobe Illustrator 19.2.1, SVG Export Plug-In . SVG Version: 6.00 Build 0)  -->
<svg version="1.1" xmlns="http://www.w3.org/2000/svg" xmlns:xlink="http://www.w3.org/1999/xlink" x="0px" y="0px" width="24px"
	 height="24px" viewBox="0 0 24 24" enable-background="new 0 0 24 24" xml:space="preserve">
<g id="Filled_Icons_1_">
	<g id="Filled_Icons">
	</g>
	<g id="New_icons">
		<g>
			<path d="M19.403,5.708c-2.327-2.63-5.893-3.759-9.303-2.951c-4.032,0.951-6.939,4.328-7.494,8.2L1.83,9.8
				C1.523,9.342,0.902,9.218,0.442,9.527c-0.458,0.308-0.581,0.929-0.273,1.388l2.787,4.15c0.375,0.559,1.174,0.591,1.598,0.083
				l3.205-3.838c0.354-0.424,0.297-1.054-0.127-1.408C7.21,9.548,6.578,9.605,6.225,10.029L4.51,12.083
				c0.094-3.426,2.54-6.551,6.051-7.38c2.693-0.635,5.508,0.254,7.345,2.331c0.366,0.412,0.997,0.452,1.412,0.086
				C19.73,6.754,19.769,6.122,19.403,5.708z"/>
			<path d="M23.83,14.138l-2.787-4.15c-0.381-0.566-1.183-0.582-1.598-0.083l-3.205,3.838c-0.354,0.424-0.297,1.054,0.126,1.408
				c0.424,0.354,1.055,0.298,1.409-0.127l1.715-2.054c-0.093,3.426-2.537,6.55-6.051,7.38c-2.694,0.635-5.508-0.255-7.345-2.331
				c-0.366-0.411-0.997-0.451-1.412-0.086c-0.414,0.366-0.452,0.998-0.086,1.412c2.298,2.597,5.842,3.768,9.303,2.951
				c4.034-0.953,6.94-4.328,7.493-8.2l0.777,1.157c0.307,0.457,0.929,0.581,1.388,0.273C24.016,15.218,24.138,14.597,23.83,14.138z"
				/>
			<polygon points="17,10.5 11,18 11.979,13.5 7.5,13.5 13,6 12,10.5 			"/>
		</g>
	</g>
</g>
<g id="Invisible_Shape">
	<rect fill="none" width="24" height="24"/>
</g>
</svg>
