<?xml version="1.0" encoding="utf-8"?>
<!-- Generator: Adobe Illustrator 19.2.1, SVG Export Plug-In . SVG Version: 6.00 Build 0)  -->
<svg version="1.1" xmlns="http://www.w3.org/2000/svg" xmlns:xlink="http://www.w3.org/1999/xlink" x="0px" y="0px" width="24px"
	 height="24px" viewBox="0 0 24 24" enable-background="new 0 0 24 24" xml:space="preserve">
<g id="Filled_Icons_1_">
	<g id="Filled_Icons">
	</g>
	<g id="New_icons">
		<g>
			<g>
				<polygon points="19,11.5 10.271,22.5 12,15.5 5,15.5 13.438,3.5 12,11.5 				"/>
			</g>
			<g>
				<path d="M8,21.5c-4.411,0-8-3.589-8-8c0-4.411,3.589-8,8-8c0.552,0,1,0.447,1,1c0,0.553-0.448,1-1,1c-3.309,0-6,2.691-6,6
					c0,3.309,2.691,6,6,6c0.552,0,1,0.447,1,1C9,21.053,8.552,21.5,8,21.5z"/>
			</g>
			<g>
				<path d="M16.5,21.5c-0.552,0-1-0.447-1-1c0-0.553,0.448-1,1-1c3.309,0,6-2.691,6-6c0-3.309-2.691-6-6-6c-0.552,0-1-0.447-1-1
					c0-0.553,0.448-1,1-1c4.411,0,8,3.589,8,8C24.5,17.911,20.911,21.5,16.5,21.5z"/>
			</g>
		</g>
	</g>
</g>
<g id="Invisible_Shape">
	<rect fill="none" width="24" height="24"/>
</g>
</svg>
