<?xml version="1.0" encoding="utf-8"?>
<!-- Generator: Adobe Illustrator 19.2.1, SVG Export Plug-In . SVG Version: 6.00 Build 0)  -->
<svg version="1.1" xmlns="http://www.w3.org/2000/svg" xmlns:xlink="http://www.w3.org/1999/xlink" x="0px" y="0px" width="24px"
	 height="24px" viewBox="0 0 24 24" enable-background="new 0 0 24 24" xml:space="preserve">
<g id="Filled_Icons_1_">
	<g id="Filled_Icons">
	</g>
	<g id="New_icons">
		<g>
			<path d="M3,20v1.5C3,22.879,4.122,24,5.5,24h7c1.378,0,2.5-1.121,2.5-2.5V20H3z M9,22.5c-0.551,0-1-0.448-1-1
				c0-0.552,0.449-1,1-1s1,0.448,1,1C10,22.052,9.551,22.5,9,22.5z"/>
			<path d="M11.168,9H3v10h12v-6C12.877,13,12.409,11.425,11.168,9z"/>
			<path d="M10.153,7H7.5C7.224,7,7,6.776,7,6.5C7,6.224,7.224,6,7.5,6h2.15C9.393,5.487,8.833,4.508,8.809,4H5.5
				C4.122,4,3,5.121,3,6.5V8h7.659C10.503,7.691,10.333,7.357,10.153,7z"/>
			<g>
				<path d="M19.438,4.343c-2.636-1.758-6.239-1.758-8.875,0c-0.231,0.151-0.54,0.091-0.693-0.139
					c-0.153-0.23-0.091-0.54,0.139-0.693c2.965-1.979,7.019-1.979,9.984,0c0.23,0.153,0.292,0.464,0.139,0.693
					C19.976,4.436,19.665,4.494,19.438,4.343z"/>
			</g>
			<g>
				<path d="M18.328,6.007c-1.974-1.317-4.679-1.317-6.654,0c-0.231,0.152-0.541,0.091-0.694-0.139
					c-0.153-0.23-0.091-0.54,0.138-0.693c2.306-1.54,5.462-1.538,7.766,0c0.229,0.153,0.292,0.464,0.138,0.693
					C18.868,6.098,18.558,6.16,18.328,6.007z"/>
			</g>
			<g>
				<path d="M17.22,7.671c-1.321-0.879-3.121-0.879-4.439,0c-0.231,0.151-0.541,0.09-0.693-0.139
					c-0.153-0.229-0.091-0.54,0.139-0.693c1.647-1.1,3.897-1.101,5.547,0c0.23,0.153,0.293,0.463,0.139,0.693
					C17.762,7.76,17.452,7.825,17.22,7.671z"/>
			</g>
			<circle cx="15" cy="9.999" r="2"/>
		</g>
	</g>
</g>
<g id="Invisible_Shape">
	<rect fill="none" width="24" height="24"/>
</g>
</svg>
