<?xml version="1.0" encoding="utf-8"?>
<!-- Generator: Adobe Illustrator 19.2.1, SVG Export Plug-In . SVG Version: 6.00 Build 0)  -->
<svg version="1.1" xmlns="http://www.w3.org/2000/svg" xmlns:xlink="http://www.w3.org/1999/xlink" x="0px" y="0px" width="24px"
	 height="24px" viewBox="0 0 24 24" enable-background="new 0 0 24 24" xml:space="preserve">
<g id="Filled_Icons_1_">
	<g id="Filled_Icons">
		<g>
			<rect x="6" y="8" width="12" height="9"/>
			<path d="M6,19c0,1.103,0.898,2,2,2h8c1.103,0,2-0.897,2-2v-1H6V19z"/>
			<path d="M16,3H8C6.898,3,6,3.898,6,5v2h12V5C18,3.898,17.103,3,16,3z M14.5,6h-5C9.224,6,9,5.776,9,5.5C9,5.224,9.224,5,9.5,5h5
				C14.776,5,15,5.224,15,5.5C15,5.776,14.776,6,14.5,6z"/>
			<path d="M4,6.5c-0.552,0-1,0.448-1,1v12c0,0.553,0.448,1,1,1s1-0.447,1-1v-12C5,6.948,4.552,6.5,4,6.5z"/>
			<path d="M1,7.5c-0.552,0-1,0.448-1,1v10c0,0.553,0.448,1,1,1s1-0.447,1-1v-10C2,7.948,1.552,7.5,1,7.5z"/>
			<path d="M20,4.5c-0.552,0-1,0.448-1,1v12c0,0.553,0.448,1,1,1s1-0.447,1-1v-12C21,4.948,20.552,4.5,20,4.5z"/>
			<path d="M23,5.5c-0.552,0-1,0.448-1,1v10c0,0.553,0.448,1,1,1s1-0.447,1-1v-10C24,5.948,23.552,5.5,23,5.5z"/>
		</g>
	</g>
	<g id="New_icons">
	</g>
</g>
<g id="Invisible_Shape">
	<rect fill="none" width="24" height="24"/>
</g>
</svg>
