<?xml version="1.0" encoding="utf-8"?>
<!-- Generator: Adobe Illustrator 19.2.1, SVG Export Plug-In . SVG Version: 6.00 Build 0)  -->
<svg version="1.1" xmlns="http://www.w3.org/2000/svg" xmlns:xlink="http://www.w3.org/1999/xlink" x="0px" y="0px" width="24px"
	 height="24px" viewBox="0 0 24 24" enable-background="new 0 0 24 24" xml:space="preserve">
<g id="Filled_Icons_1_">
	<g id="Filled_Icons">
		<g>
			<rect x="8" y="7" width="1" height="1"/>
			<rect x="15" y="7" width="1" height="1"/>
			<path d="M5,21.5C5,22.879,6.122,24,7.5,24h9c1.378,0,2.5-1.121,2.5-2.5V20H5V21.5z M12,20.5c0.551,0,1,0.448,1,1
				c0,0.552-0.449,1-1,1s-1-0.448-1-1C11,20.948,11.449,20.5,12,20.5z"/>
			<rect x="8" y="16" width="1" height="1"/>
			<path d="M16.5,0h-9C6.122,0,5,1.121,5,2.5V4h14V2.5C19,1.121,17.878,0,16.5,0z M14.5,3h-5C9.224,3,9,2.776,9,2.5
				C9,2.224,9.224,2,9.5,2h5C14.776,2,15,2.224,15,2.5C15,2.776,14.776,3,14.5,3z"/>
			<path d="M5,19h14V5H5V19z M14.5,18h-3c-0.276,0-0.5-0.224-0.5-0.5v-1.969c0-0.276,0.224-0.5,0.5-0.5s0.5,0.224,0.5,0.5V17h2.5
				c0.276,0,0.5,0.224,0.5,0.5C15,17.776,14.776,18,14.5,18z M17,17.5c0,0.276-0.224,0.5-0.5,0.5S16,17.776,16,17.5V16h-2.484
				c-0.276,0-0.5-0.224-0.5-0.5c0-0.276,0.224-0.5,0.5-0.5H16.5c0.276,0,0.5,0.224,0.5,0.5V17.5z M13.016,13.5v-1
				c0-0.276,0.224-0.5,0.5-0.5c0.276,0,0.5,0.224,0.5,0.5v1c0,0.276-0.224,0.5-0.5,0.5C13.239,14,13.016,13.776,13.016,13.5z
				 M16.5,14h-0.984c-0.276,0-0.5-0.224-0.5-0.5c0-0.276,0.224-0.5,0.5-0.5H16.5c0.276,0,0.5,0.224,0.5,0.5
				C17,13.776,16.776,14,16.5,14z M16.516,11h-4c-0.276,0-0.5-0.224-0.5-0.5c0-0.276,0.224-0.5,0.5-0.5h4c0.276,0,0.5,0.224,0.5,0.5
				C17.016,10.776,16.792,11,16.516,11z M14,6.5C14,6.224,14.224,6,14.5,6h2C16.776,6,17,6.224,17,6.5v2C17,8.776,16.776,9,16.5,9
				h-2C14.224,9,14,8.776,14,8.5V6.5z M11,6.516c0-0.276,0.224-0.5,0.5-0.5s0.5,0.224,0.5,0.5V8h0.5C12.776,8,13,8.224,13,8.5
				C13,8.776,12.776,9,12.5,9h-1C11.224,9,11,8.776,11,8.5V6.516z M7,6.5C7,6.224,7.224,6,7.5,6h2C9.776,6,10,6.224,10,6.5v2
				C10,8.776,9.776,9,9.5,9h-2C7.224,9,7,8.776,7,8.5V6.5z M7.5,10h3c0.276,0,0.5,0.224,0.5,0.5v1c0,0.276-0.224,0.5-0.5,0.5
				S10,11.776,10,11.5V11H7.5C7.224,11,7,10.776,7,10.5C7,10.224,7.224,10,7.5,10z M7.5,13h4c0.276,0,0.5,0.224,0.5,0.5
				c0,0.276-0.224,0.5-0.5,0.5h-4C7.224,14,7,13.776,7,13.5C7,13.224,7.224,13,7.5,13z M7,15.5C7,15.224,7.224,15,7.5,15h2
				c0.276,0,0.5,0.224,0.5,0.5v2c0,0.276-0.224,0.5-0.5,0.5h-2C7.224,18,7,17.776,7,17.5V15.5z"/>
		</g>
	</g>
	<g id="New_icons">
	</g>
</g>
<g id="Invisible_Shape">
	<rect fill="none" width="24" height="24"/>
</g>
</svg>
