<?xml version="1.0" encoding="utf-8"?>
<!-- Generator: Adobe Illustrator 19.2.1, SVG Export Plug-In . SVG Version: 6.00 Build 0)  -->
<svg version="1.1" xmlns="http://www.w3.org/2000/svg" xmlns:xlink="http://www.w3.org/1999/xlink" x="0px" y="0px" width="24px"
	 height="24px" viewBox="0 0 24 24" enable-background="new 0 0 24 24" xml:space="preserve">
<g id="Filled_Icons_1_">
	<g id="Filled_Icons">
		<g>
			<rect x="5" y="5" width="14" height="14"/>
			<path d="M20,19h1.5c1.379,0,2.5-1.121,2.5-2.5v-9C24,6.121,22.879,5,21.5,5H20V19z M22.5,12c0,0.551-0.448,1-1,1s-1-0.449-1-1
				c0-0.551,0.448-1,1-1S22.5,11.449,22.5,12z"/>
			<path d="M4,5H2.5C1.121,5,0,6.121,0,7.5v9C0,17.879,1.121,19,2.5,19H4V5z M2,14.5v-5C2,9.224,2.224,9,2.5,9S3,9.224,3,9.5v5
				C3,14.776,2.776,15,2.5,15S2,14.776,2,14.5z"/>
		</g>
	</g>
	<g id="New_icons">
	</g>
</g>
<g id="Invisible_Shape">
	<rect fill="none" width="24" height="24"/>
</g>
</svg>
