<?xml version="1.0" encoding="utf-8"?>
<!-- Generator: Adobe Illustrator 19.2.1, SVG Export Plug-In . SVG Version: 6.00 Build 0)  -->
<svg version="1.1" xmlns="http://www.w3.org/2000/svg" xmlns:xlink="http://www.w3.org/1999/xlink" x="0px" y="0px" width="24px"
	 height="24px" viewBox="0 0 24 24" enable-background="new 0 0 24 24" xml:space="preserve">
<g id="Filled_Icons_1_">
	<g id="Filled_Icons">
	</g>
	<g id="New_icons">
		<g>
			<path d="M18,5H4v14h14V5z M11,7c0.551,0,1,0.448,1,1c0,0.552-0.449,1-1,1s-1-0.448-1-1C10,7.448,10.449,7,11,7z M13.5,17h-4
				C9.224,17,9,16.776,9,16.5C9,16.224,9.224,16,9.5,16H11v-5H9.5C9.224,11,9,10.776,9,10.5C9,10.224,9.224,10,9.5,10h2
				c0.276,0,0.5,0.224,0.5,0.5V16h1.5c0.276,0,0.5,0.224,0.5,0.5C14,16.776,13.776,17,13.5,17z"/>
			<path d="M4,20v1.5C4,22.879,5.122,24,6.5,24h9c1.378,0,2.5-1.121,2.5-2.5V20H4z M11,22.5c-0.551,0-1-0.448-1-1
				c0-0.552,0.449-1,1-1s1,0.448,1,1C12,22.052,11.551,22.5,11,22.5z"/>
			<path d="M18,4V2.5C18,1.121,16.878,0,15.5,0h-9C5.122,0,4,1.121,4,2.5V4H18z M8.5,2h5C13.776,2,14,2.224,14,2.5
				C14,2.776,13.776,3,13.5,3h-5C8.224,3,8,2.776,8,2.5C8,2.224,8.224,2,8.5,2z"/>
		</g>
	</g>
</g>
<g id="Invisible_Shape">
	<rect fill="none" width="24" height="24"/>
</g>
</svg>
