<?xml version="1.0" encoding="utf-8"?>
<!-- Generator: Adobe Illustrator 19.2.1, SVG Export Plug-In . SVG Version: 6.00 Build 0)  -->
<svg version="1.1" xmlns="http://www.w3.org/2000/svg" xmlns:xlink="http://www.w3.org/1999/xlink" x="0px" y="0px" width="24px"
	 height="24px" viewBox="0 0 24 24" enable-background="new 0 0 24 24" xml:space="preserve">
<g id="Filled_Icons_1_">
	<g id="Filled_Icons">
	</g>
	<g id="New_icons">
		<g>
			<path d="M1,20v1.5C1,22.879,2.122,24,3.5,24h7c1.378,0,2.5-1.121,2.5-2.5V20H1z M7,22.5c-0.551,0-1-0.448-1-1
				c0-0.552,0.449-1,1-1s1,0.448,1,1C8,22.052,7.551,22.5,7,22.5z"/>
			<g>
				<path d="M9,5v4.5c0,1.379,1.122,2.5,2.5,2.5h9c1.378,0,2.5-1.121,2.5-2.5V5H9z M15.5,9h-3C12.224,9,12,8.776,12,8.5
					C12,8.224,12.224,8,12.5,8h3C15.776,8,16,8.224,16,8.5C16,8.776,15.776,9,15.5,9z M17.5,7h-5C12.224,7,12,6.776,12,6.5
					C12,6.224,12.224,6,12.5,6h5C17.776,6,18,6.224,18,6.5C18,6.776,17.776,7,17.5,7z"/>
				<path d="M23,4V3.5C23,2.121,21.878,1,20.5,1h-9C10.122,1,9,2.121,9,3.5V4H23z"/>
			</g>
			<path d="M11.5,13C9.57,13,8,11.43,8,9.5V9H1v10h12v-6H11.5z"/>
			<path d="M8,7H5.5C5.224,7,5,6.776,5,6.5C5,6.224,5.224,6,5.5,6H8V4H3.5C2.122,4,1,5.121,1,6.5V8h7V7z"/>
		</g>
	</g>
</g>
<g id="Invisible_Shape">
	<rect fill="none" width="24" height="24"/>
</g>
</svg>
