<?xml version="1.0" encoding="utf-8"?>
<!-- Generator: Adobe Illustrator 19.2.1, SVG Export Plug-In . SVG Version: 6.00 Build 0)  -->
<svg version="1.1" xmlns="http://www.w3.org/2000/svg" xmlns:xlink="http://www.w3.org/1999/xlink" x="0px" y="0px" width="24px"
	 height="24px" viewBox="0 0 24 24" enable-background="new 0 0 24 24" xml:space="preserve">
<g id="Filled_Icons_1_">
	<g id="Filled_Icons">
	</g>
	<g id="New_icons">
		<g>
			<path d="M5,20v1.5C5,22.879,6.122,24,7.5,24h9c1.378,0,2.5-1.121,2.5-2.5V20H5z M12,22.5c-0.551,0-1-0.448-1-1
				c0-0.552,0.449-1,1-1s1,0.448,1,1C13,22.052,12.551,22.5,12,22.5z"/>
			<path d="M19,4V2.5C19,1.121,17.878,0,16.5,0h-9C6.122,0,5,1.121,5,2.5V4H19z M9.5,2h5C14.776,2,15,2.224,15,2.5
				C15,2.776,14.776,3,14.5,3h-5C9.224,3,9,2.776,9,2.5C9,2.224,9.224,2,9.5,2z"/>
			<g>
				<circle cx="12" cy="12" r="2"/>
				<path d="M5,5v14h14V5H5z M16.83,13.633l-1,1.732c-0.139,0.239-0.443,0.321-0.683,0.184l-0.701-0.404
					c-0.289,0.225-0.602,0.419-0.946,0.559V16.5c0,0.276-0.224,0.5-0.5,0.5h-2c-0.276,0-0.5-0.224-0.5-0.5v-0.797
					c-0.345-0.14-0.657-0.334-0.946-0.559l-0.7,0.405c-0.24,0.138-0.547,0.056-0.684-0.184l-1.001-1.732
					c-0.137-0.239-0.056-0.545,0.184-0.684l0.702-0.405c-0.074-0.542-0.073-0.55,0-1.09l-0.701-0.405
					c-0.24-0.139-0.322-0.444-0.184-0.684l1-1.732c0.139-0.238,0.443-0.32,0.684-0.182l0.701,0.404
					c0.289-0.225,0.602-0.419,0.945-0.559V7.5C10.5,7.224,10.724,7,11,7h2c0.276,0,0.5,0.224,0.5,0.5v0.797
					c0.344,0.14,0.656,0.333,0.944,0.559l0.702-0.406c0.239-0.139,0.546-0.056,0.683,0.184l1.001,1.732
					c0.137,0.24,0.057,0.545-0.183,0.684l-0.702,0.404c0.074,0.545,0.073,0.551,0,1.092l0.702,0.406
					C16.887,13.088,16.969,13.395,16.83,13.633z"/>
			</g>
		</g>
	</g>
</g>
<g id="Invisible_Shape">
	<rect fill="none" width="24" height="24"/>
</g>
</svg>
