<?xml version="1.0" encoding="utf-8"?>
<!-- Generator: Adobe Illustrator 19.2.1, SVG Export Plug-In . SVG Version: 6.00 Build 0)  -->
<svg version="1.1" xmlns="http://www.w3.org/2000/svg" xmlns:xlink="http://www.w3.org/1999/xlink" x="0px" y="0px" width="24px"
	 height="24px" viewBox="0 0 24 24" enable-background="new 0 0 24 24" xml:space="preserve">
<g id="Filled_Icons_1_">
	<g id="Filled_Icons">
		<path d="M19,0H4C2.898,0,2,0.898,2,2v18.5C2,22.43,3.57,24,5.5,24h12c1.93,0,3.5-1.57,3.5-3.5V2C21,0.898,20.103,0,19,0z M9,2h5
			c0.276,0,0.5,0.224,0.5,0.5C14.5,2.776,14.276,3,14,3H9C8.724,3,8.5,2.776,8.5,2.5C8.5,2.224,8.724,2,9,2z M7,21H6v-1h1V21z M7,19
			H6v-1h1V19z M7,17H6v-1h1V17z M9,21H8v-1h1V21z M9,19H8v-1h1V19z M9,17H8v-1h1V17z M11,21h-1v-1h1V21z M11,19h-1v-1h1V19z M11,17
			h-1v-1h1V17z M13,21h-1v-1h1V21z M13,19h-1v-1h1V19z M13,17h-1v-1h1V17z M15,21h-1v-1h1V21z M15,19h-1v-1h1V19z M15,17h-1v-1h1V17
			z M17,21h-1v-1h1V21z M17,19h-1v-1h1V19z M17,17h-1v-1h1V17z M19,14H4V4h15V14z"/>
	</g>
	<g id="New_icons">
	</g>
</g>
<g id="Invisible_Shape">
	<rect fill="none" width="24" height="24"/>
</g>
</svg>
