<?xml version="1.0" encoding="utf-8"?>
<!-- Generator: Adobe Illustrator 19.2.1, SVG Export Plug-In . SVG Version: 6.00 Build 0)  -->
<svg version="1.1" xmlns="http://www.w3.org/2000/svg" xmlns:xlink="http://www.w3.org/1999/xlink" x="0px" y="0px" width="24px"
	 height="24px" viewBox="0 0 24 24" enable-background="new 0 0 24 24" xml:space="preserve">
<g id="Filled_Icons_1_">
	<g id="Filled_Icons">
	</g>
	<g id="New_icons">
		<g>
			<path d="M19,5H5v14h14V5z M15.131,14.261c-0.602,0-1.133-0.291-1.475-0.733c-0.414,0.448-1,0.733-1.656,0.733
				c-1.247,0-2.261-1.015-2.261-2.261c0-1.246,1.014-2.261,2.261-2.261s2.261,1.015,2.261,2.261v0.392
				c0,0.479,0.39,0.869,0.87,0.869c0.479,0,0.869-0.39,0.869-0.869V12c0-2.206-1.794-4-4-4s-4,1.794-4,4c0,2.206,1.794,4,4,4
				c0.817,0,1.598-0.24,2.26-0.694c0.229-0.155,0.54-0.098,0.695,0.129c0.156,0.227,0.099,0.539-0.129,0.695
				C13.997,16.699,13.019,17,12,17c-2.757,0-5-2.243-5-5c0-2.757,2.243-5,5-5s5,2.243,5,5v0.392
				C17,13.422,16.162,14.261,15.131,14.261z"/>
			<circle cx="12" cy="12" r="1.261"/>
			<path d="M19,4V2.5C19,1.121,17.878,0,16.5,0h-9C6.122,0,5,1.121,5,2.5V4H19z M9.5,2h5C14.776,2,15,2.224,15,2.5
				C15,2.776,14.776,3,14.5,3h-5C9.224,3,9,2.776,9,2.5C9,2.224,9.224,2,9.5,2z"/>
			<path d="M5,20v1.5C5,22.879,6.122,24,7.5,24h9c1.378,0,2.5-1.121,2.5-2.5V20H5z M12,22.5c-0.551,0-1-0.448-1-1
				c0-0.552,0.449-1,1-1s1,0.448,1,1C13,22.052,12.551,22.5,12,22.5z"/>
		</g>
	</g>
</g>
<g id="Invisible_Shape">
	<rect fill="none" width="24" height="24"/>
</g>
</svg>
