<?xml version="1.0" encoding="utf-8"?>
<!-- Generator: Adobe Illustrator 19.2.1, SVG Export Plug-In . SVG Version: 6.00 Build 0)  -->
<svg version="1.1" xmlns="http://www.w3.org/2000/svg" xmlns:xlink="http://www.w3.org/1999/xlink" x="0px" y="0px" width="24px"
	 height="24px" viewBox="0 0 24 24" enable-background="new 0 0 24 24" xml:space="preserve">
<g id="Filled_Icons_1_">
	<g id="Filled_Icons">
		<g>
			<g>
				<path d="M10.593,2.661c-0.755-0.756-2.074-0.756-2.828,0l-4.95,4.95c-0.782,0.779-0.784,2.045,0,2.828l1.414,1.414l7.778-7.778
					L10.593,2.661z M8.825,5.843L5.996,8.672c-0.195,0.195-0.512,0.195-0.707,0c-0.195-0.195-0.195-0.512,0-0.707l2.829-2.829
					c0.195-0.195,0.512-0.195,0.707,0C9.021,5.331,9.021,5.648,8.825,5.843z"/>
				<rect x="6.507" y="7.353" transform="matrix(0.7071 -0.7071 0.7071 0.7071 -4.865 11.9618)" width="11" height="9"/>
				<path d="M20.492,12.561l-0.707-0.707l-7.778,7.778l0.707,0.707c0.378,0.378,0.88,0.586,1.414,0.586s1.036-0.208,1.414-0.586
					l4.95-4.95c0.378-0.377,0.586-0.879,0.586-1.414C21.078,13.44,20.87,12.939,20.492,12.561z"/>
			</g>
			<g>
				<path d="M23.923,7.231c-1.683-2.677-4.579-4.273-7.545-4.311l1.332-1.023c0.219-0.168,0.26-0.482,0.092-0.701
					c-0.167-0.218-0.482-0.258-0.701-0.092l-2.599,1.997c-0.302,0.232-0.233,0.675,0.08,0.854L17.1,5.897
					c0.22,0.168,0.532,0.126,0.701-0.091c0.168-0.219,0.128-0.533-0.091-0.702l-1.555-1.198c2.706-0.045,5.379,1.407,6.921,3.859
					c0.149,0.235,0.46,0.303,0.689,0.156C24,7.774,24.07,7.466,23.923,7.231z"/>
				<path d="M10.071,20.045l-2.519-1.941c-0.219-0.168-0.533-0.128-0.701,0.092c-0.168,0.219-0.128,0.532,0.091,0.701l1.555,1.197
					c-2.707,0.044-5.379-1.406-6.92-3.858c-0.147-0.232-0.455-0.305-0.689-0.156c-0.234,0.147-0.304,0.455-0.157,0.69
					c1.68,2.672,4.568,4.28,7.529,4.323l-1.317,1.012c-0.219,0.168-0.26,0.482-0.092,0.701c0.168,0.218,0.481,0.26,0.701,0.092
					l2.6-1.997C10.455,20.666,10.38,20.23,10.071,20.045z"/>
			</g>
		</g>
	</g>
	<g id="New_icons">
	</g>
</g>
<g id="Invisible_Shape">
	<rect fill="none" width="24" height="24"/>
</g>
</svg>
