<?xml version="1.0" encoding="utf-8"?>
<!-- Generator: Adobe Illustrator 19.2.1, SVG Export Plug-In . SVG Version: 6.00 Build 0)  -->
<svg version="1.1" xmlns="http://www.w3.org/2000/svg" xmlns:xlink="http://www.w3.org/1999/xlink" x="0px" y="0px" width="24px"
	 height="24px" viewBox="0 0 24 24" enable-background="new 0 0 24 24" xml:space="preserve">
<g id="Filled_Icons_1_">
	<g id="Filled_Icons">
	</g>
	<g id="New_icons">
		<g>
			<path d="M19,4V2.5C19,1.121,17.878,0,16.5,0h-9C6.122,0,5,1.121,5,2.5V4H19z M9.5,2h5C14.776,2,15,2.224,15,2.5
				C15,2.776,14.776,3,14.5,3h-5C9.224,3,9,2.776,9,2.5C9,2.224,9.224,2,9.5,2z"/>
			<path d="M5,20v1.5C5,22.879,6.122,24,7.5,24h9c1.378,0,2.5-1.121,2.5-2.5V20H5z M12,22.5c-0.551,0-1-0.448-1-1
				c0-0.552,0.449-1,1-1s1,0.448,1,1C13,22.052,12.551,22.5,12,22.5z"/>
			<path d="M19,5H5v14h14V5z M12,17.5c-0.551,0-1-0.448-1-1c0-0.552,0.449-1,1-1s1,0.448,1,1C13,17.052,12.551,17.5,12,17.5z
				 M12.5,13.465V14c0,0.276-0.224,0.5-0.5,0.5s-0.5-0.224-0.5-0.5v-1c0-0.276,0.224-0.5,0.5-0.5c1.378,0,2.5-1.121,2.5-2.5
				c0-1.379-1.122-2.5-2.5-2.5S9.5,8.621,9.5,10c0,0.276-0.224,0.5-0.5,0.5S8.5,10.276,8.5,10c0-1.93,1.57-3.5,3.5-3.5
				s3.5,1.57,3.5,3.5C15.5,11.76,14.194,13.221,12.5,13.465z"/>
		</g>
	</g>
</g>
<g id="Invisible_Shape">
	<rect fill="none" width="24" height="24"/>
</g>
</svg>
