<?xml version="1.0" encoding="utf-8"?>
<!-- Generator: Adobe Illustrator 19.2.1, SVG Export Plug-In . SVG Version: 6.00 Build 0)  -->
<svg version="1.1" xmlns="http://www.w3.org/2000/svg" xmlns:xlink="http://www.w3.org/1999/xlink" x="0px" y="0px" width="24px"
	 height="24px" viewBox="0 0 24 24" enable-background="new 0 0 24 24" xml:space="preserve">
<g id="Filled_Icons_1_">
	<g id="Filled_Icons">
		<g>
			<path d="M10.769,4.769c-0.726-0.727-1.992-0.727-2.717,0L4.537,8.285c-0.742,0.739-0.76,1.957-0.001,2.717l8.541,8.54
				c0.75,0.75,1.967,0.751,2.716,0l3.517-3.517c0.748-0.748,0.748-1.967,0-2.717L10.769,4.769z"/>
			<path d="M16.614,2.195l3.855-0.892c0.269-0.062,0.437-0.331,0.375-0.6c-0.062-0.269-0.327-0.436-0.6-0.375l-5.385,1.245
				c-0.333,0.075-0.552,0.536-0.254,0.855l2.634,4.697c0.134,0.239,0.436,0.328,0.681,0.192c0.241-0.136,0.327-0.44,0.191-0.681
				l-2.009-3.584c4.14,1.877,6.508,6.413,5.625,10.976c-0.053,0.27,0.124,0.533,0.395,0.586c0.283,0.052,0.536-0.133,0.586-0.396
				C23.662,9.29,21.167,4.314,16.614,2.195z"/>
			<path d="M6.618,17.19c-0.135-0.241-0.438-0.326-0.681-0.192c-0.241,0.136-0.327,0.441-0.191,0.681l2.009,3.585
				c-4.131-1.873-6.51-6.405-5.625-10.977c0.053-0.271-0.125-0.533-0.396-0.586C1.462,9.651,1.2,9.827,1.148,10.098
				C0.195,15.016,2.68,20,7.241,22.121l-3.854,0.892c-0.269,0.062-0.437,0.331-0.375,0.6c0.063,0.271,0.333,0.436,0.6,0.375
				l5.384-1.245c0.38-0.087,0.519-0.575,0.254-0.854L6.618,17.19z"/>
		</g>
	</g>
	<g id="New_icons">
	</g>
</g>
<g id="Invisible_Shape">
	<rect fill="none" width="24" height="24"/>
</g>
</svg>
