<?xml version="1.0" encoding="utf-8"?>
<!-- Generator: Adobe Illustrator 19.2.1, SVG Export Plug-In . SVG Version: 6.00 Build 0)  -->
<svg version="1.1" xmlns="http://www.w3.org/2000/svg" xmlns:xlink="http://www.w3.org/1999/xlink" x="0px" y="0px" width="24px"
	 height="24px" viewBox="0 0 24 24" enable-background="new 0 0 24 24" xml:space="preserve">
<g id="Filled_Icons_1_">
	<g id="Filled_Icons">
	</g>
	<g id="New_icons">
		<g>
			<path d="M19,4V2.5C19,1.121,17.878,0,16.5,0h-9C6.122,0,5,1.121,5,2.5V4H19z M9.5,2h5C14.776,2,15,2.224,15,2.5
				C15,2.776,14.776,3,14.5,3h-5C9.224,3,9,2.776,9,2.5C9,2.224,9.224,2,9.5,2z"/>
			<path d="M5,20v1.5C5,22.879,6.122,24,7.5,24h9c1.378,0,2.5-1.121,2.5-2.5V20H5z M12,22.5c-0.551,0-1-0.448-1-1
				c0-0.552,0.449-1,1-1s1,0.448,1,1C13,22.052,12.551,22.5,12,22.5z"/>
			<path d="M19,5H5v14h14V5z M8.5,7h7C15.776,7,16,7.224,16,7.5C16,7.776,15.776,8,15.5,8h-7C8.224,8,8,7.776,8,7.5
				C8,7.224,8.224,7,8.5,7z M12.5,16h-4C8.224,16,8,15.776,8,15.5C8,15.224,8.224,15,8.5,15h4c0.276,0,0.5,0.224,0.5,0.5
				C13,15.776,12.776,16,12.5,16z M15.5,14h-7C8.224,14,8,13.776,8,13.5C8,13.224,8.224,13,8.5,13h7c0.276,0,0.5,0.224,0.5,0.5
				C16,13.776,15.776,14,15.5,14z M15.5,12h-7C8.224,12,8,11.776,8,11.5C8,11.224,8.224,11,8.5,11h7c0.276,0,0.5,0.224,0.5,0.5
				C16,11.776,15.776,12,15.5,12z M15.5,10h-7C8.224,10,8,9.776,8,9.5C8,9.224,8.224,9,8.5,9h7C15.776,9,16,9.224,16,9.5
				C16,9.776,15.776,10,15.5,10z"/>
		</g>
	</g>
</g>
<g id="Invisible_Shape">
	<rect fill="none" width="24" height="24"/>
</g>
</svg>
