<?xml version="1.0" encoding="utf-8"?>
<!-- Generator: Adobe Illustrator 19.2.1, SVG Export Plug-In . SVG Version: 6.00 Build 0)  -->
<svg version="1.1" xmlns="http://www.w3.org/2000/svg" xmlns:xlink="http://www.w3.org/1999/xlink" x="0px" y="0px" width="24px"
	 height="24px" viewBox="0 0 24 24" enable-background="new 0 0 24 24" xml:space="preserve">
<g id="Filled_Icons_1_">
	<g id="Filled_Icons">
		<g>
			<path d="M4,20v1.5C4,22.879,5.122,24,6.5,24h7c1.378,0,2.5-1.121,2.5-2.5V20H4z M10,22.5c-0.551,0-1-0.448-1-1
				c0-0.552,0.449-1,1-1s1,0.448,1,1C11,22.052,10.551,22.5,10,22.5z"/>
			<path d="M13,7.996V4H6.5C5.122,4,4,5.121,4,6.5V8h8.961C12.975,8,12.987,7.996,13,7.996z M11.5,7h-3C8.224,7,8,6.776,8,6.5
				C8,6.224,8.224,6,8.5,6h3C11.776,6,12,6.224,12,6.5C12,6.776,11.776,7,11.5,7z"/>
			<path d="M20.769,0.079c-0.143-0.093-0.324-0.104-0.479-0.033l-6,2.779C14.113,2.907,14,3.085,14,3.279V9h-1c-1.103,0-2,0.898-2,2
				c0,1.103,0.897,2,2,2c1.065,0,2-0.935,2-2c0-2.756,0-4.222,0-7.401l5-2.316V6h-1c-1.103,0-2,0.898-2,2c0,1.103,0.897,2,2,2
				c1.065,0,2-0.935,2-2c0-2.953,0-2.819,0-7.5C21,0.329,20.913,0.171,20.769,0.079z"/>
			<path d="M15.614,12.416c-0.517,0.929-1.5,1.58-2.614,1.58c-1.654,0-3-1.346-3-3c0-0.769,0.299-1.465,0.777-1.996H4v10h12v-6
				C16,13,15.995,12.179,15.614,12.416z"/>
		</g>
	</g>
	<g id="New_icons">
	</g>
</g>
<g id="Invisible_Shape">
	<rect fill="none" width="24" height="24"/>
</g>
</svg>
