<?xml version="1.0" encoding="utf-8"?>
<!-- Generator: Adobe Illustrator 19.2.1, SVG Export Plug-In . SVG Version: 6.00 Build 0)  -->
<svg version="1.1" xmlns="http://www.w3.org/2000/svg" xmlns:xlink="http://www.w3.org/1999/xlink" x="0px" y="0px" width="24px"
	 height="24px" viewBox="0 0 24 24" enable-background="new 0 0 24 24" xml:space="preserve">
<g id="Filled_Icons_1_">
	<g id="Filled_Icons">
		<g>
			<path d="M0,21.5C0,22.879,1.122,24,2.5,24h6c1.378,0,2.5-1.121,2.5-2.5V20H0V21.5z M5.5,20.5c0.551,0,1,0.448,1,1
				c0,0.552-0.449,1-1,1s-1-0.448-1-1C4.5,20.948,4.949,20.5,5.5,20.5z"/>
			<path d="M8.5,13C7.671,13,7,12.328,7,11.5V8H0v11h11v-6H8.5z"/>
			<path d="M7,6H4C3.724,6,3.5,5.776,3.5,5.5C3.5,5.224,3.724,5,4,5h3V3H2.5C1.122,3,0,4.121,0,5.5V7h7V6z"/>
			<path d="M22.324,3.032L19,4.278V2.5C19,2.224,18.776,2,18.5,2h-10C8.224,2,8,2.224,8,2.5v9C8,11.776,8.224,12,8.5,12h10
				c0.276,0,0.5-0.224,0.5-0.5V9.722l3.324,1.246C22.653,11.091,23,10.847,23,10.5v-7C23,3.157,22.658,2.907,22.324,3.032z"/>
		</g>
	</g>
	<g id="New_icons">
	</g>
</g>
<g id="Invisible_Shape">
	<rect fill="none" width="24" height="24"/>
</g>
</svg>
