<?xml version="1.0" encoding="utf-8"?>
<!-- Generator: Adobe Illustrator 19.2.1, SVG Export Plug-In . SVG Version: 6.00 Build 0)  -->
<svg version="1.1" xmlns="http://www.w3.org/2000/svg" xmlns:xlink="http://www.w3.org/1999/xlink" x="0px" y="0px" width="24px"
	 height="24px" viewBox="0 0 24 24" enable-background="new 0 0 24 24" xml:space="preserve">
<g id="Filled_Icons_1_">
	<g id="Filled_Icons">
		<g>
			<polygon points="5,11.89 8.792,9.629 13.049,11.65 16.187,9.063 19,10.003 19,5 5,5 			"/>
			<path d="M16.5,0h-9C6.122,0,5,1.121,5,2.5V4h14V2.5C19,1.121,17.878,0,16.5,0z M14.5,3h-5C9.224,3,9,2.776,9,2.5
				C9,2.224,9.224,2,9.5,2h5C14.776,2,15,2.224,15,2.5C15,2.776,14.776,3,14.5,3z"/>
			<path d="M23.5,12H21c-0.276,0-0.5-0.224-0.5-0.5c0-0.276,0.224-0.5,0.5-0.5h2.5c0.276,0,0.5,0.224,0.5,0.5
				C24,11.776,23.776,12,23.5,12z"/>
			<path d="M5,21.5C5,22.879,6.122,24,7.5,24h9c1.378,0,2.5-1.121,2.5-2.5V20H5V21.5z M12,20.5c0.551,0,1,0.448,1,1
				c0,0.552-0.449,1-1,1s-1-0.448-1-1C11,20.948,11.449,20.5,12,20.5z"/>
			<polygon points="15.921,12.478 12.962,14.6 8.985,12.46 5,14.883 5,19 19,19 19,13.576 			"/>
			<path d="M23.854,6.147c-0.195-0.195-0.512-0.195-0.707,0l-2,2c-0.195,0.195-0.195,0.512,0,0.707c0.195,0.195,0.512,0.195,0.707,0
				l2-2C24.049,6.658,24.049,6.342,23.854,6.147z"/>
			<path d="M23.854,16.854c-0.195,0.195-0.512,0.195-0.707,0l-2-2c-0.195-0.195-0.195-0.512,0-0.707
				c0.195-0.195,0.512-0.195,0.707,0l2,2C24.049,16.342,24.049,16.658,23.854,16.854z"/>
			<path d="M0.5,12H3c0.276,0,0.5-0.224,0.5-0.5C3.5,11.224,3.276,11,3,11H0.5C0.224,11,0,11.224,0,11.5C0,11.776,0.224,12,0.5,12z"
				/>
			<path d="M0.147,6.147c0.195-0.195,0.512-0.195,0.707,0l2,2c0.195,0.195,0.195,0.512,0,0.707c-0.195,0.195-0.512,0.195-0.707,0
				l-2-2C-0.049,6.658-0.049,6.342,0.147,6.147z"/>
			<path d="M0.147,16.854c0.195,0.195,0.512,0.195,0.707,0l2-2c0.195-0.195,0.195-0.512,0-0.707c-0.195-0.195-0.512-0.195-0.707,0
				l-2,2C-0.049,16.342-0.049,16.658,0.147,16.854z"/>
		</g>
	</g>
	<g id="New_icons">
	</g>
</g>
<g id="Invisible_Shape">
	<rect fill="none" width="24" height="24"/>
</g>
</svg>
