<?xml version="1.0" encoding="utf-8"?>
<!-- Generator: Adobe Illustrator 19.2.1, SVG Export Plug-In . SVG Version: 6.00 Build 0)  -->
<svg version="1.1" xmlns="http://www.w3.org/2000/svg" xmlns:xlink="http://www.w3.org/1999/xlink" x="0px" y="0px" width="24px"
	 height="24px" viewBox="0 0 24 24" enable-background="new 0 0 24 24" xml:space="preserve">
<g id="Filled_Icons_1_">
	<g id="Filled_Icons">
		<g>
			<path d="M0,21.5C0,22.879,1.122,24,2.5,24h6c1.378,0,2.5-1.121,2.5-2.5V20H0V21.5z M5.5,20.5c0.551,0,1,0.448,1,1
				c0,0.552-0.449,1-1,1s-1-0.448-1-1C4.5,20.948,4.949,20.5,5.5,20.5z"/>
			<path d="M10,13c-1.654,0-3-1.346-3-3V8H0v11h11v-6H10z"/>
			<path d="M7,6H4C3.724,6,3.5,5.776,3.5,5.5C3.5,5.224,3.724,5,4,5h3V3H2.5C1.122,3,0,4.121,0,5.5V7h7V6z"/>
			<path d="M22,1H10C8.897,1,8,1.898,8,3v7c0,1.103,0.897,2,2,2h12c1.103,0,2-0.897,2-2V3C24,1.898,23.103,1,22,1z M21.769,8.578
				c0.233,0.149,0.302,0.457,0.153,0.691c-0.146,0.23-0.454,0.303-0.691,0.153l-3.66-2.329l-1.303,0.829
				c-0.165,0.104-0.372,0.104-0.537,0l-1.303-0.829l-3.66,2.329c-0.237,0.149-0.544,0.077-0.691-0.153
				c-0.148-0.233-0.08-0.542,0.153-0.691L13.497,6.5l-3.266-2.078C9.998,4.273,9.93,3.965,10.078,3.731
				c0.148-0.232,0.457-0.3,0.691-0.153L16,6.907l5.231-3.329c0.234-0.147,0.542-0.079,0.691,0.153
				c0.148,0.233,0.08,0.542-0.153,0.691L18.503,6.5L21.769,8.578z"/>
		</g>
	</g>
	<g id="New_icons">
	</g>
</g>
<g id="Invisible_Shape">
	<rect fill="none" width="24" height="24"/>
</g>
</svg>
