<?xml version="1.0" encoding="utf-8"?>
<!-- Generator: Adobe Illustrator 19.2.1, SVG Export Plug-In . SVG Version: 6.00 Build 0)  -->
<svg version="1.1" xmlns="http://www.w3.org/2000/svg" xmlns:xlink="http://www.w3.org/1999/xlink" x="0px" y="0px" width="24px"
	 height="24px" viewBox="0 0 24 24" enable-background="new 0 0 24 24" xml:space="preserve">
<g id="Filled_Icons_1_">
	<g id="Filled_Icons">
		<g>
			<path d="M0,20.5C0,21.879,1.122,23,2.5,23h6c1.378,0,2.5-1.121,2.5-2.5V19H0V20.5z M5.5,19.5c0.551,0,1,0.448,1,1
				c0,0.552-0.449,1-1,1s-1-0.448-1-1C4.5,19.948,4.949,19.5,5.5,19.5z"/>
			<path d="M11,4.5C11,3.121,9.878,2,8.5,2h-6C1.122,2,0,3.121,0,4.5V6h11V4.5z M7,5H4C3.724,5,3.5,4.776,3.5,4.5
				C3.5,4.224,3.724,4,4,4h3c0.276,0,0.5,0.224,0.5,0.5C7.5,4.776,7.276,5,7,5z"/>
			<path d="M13,20.5c0,1.379,1.122,2.5,2.5,2.5h6c1.378,0,2.5-1.121,2.5-2.5V19H13V20.5z M18.5,19.5c0.551,0,1,0.448,1,1
				c0,0.552-0.449,1-1,1s-1-0.448-1-1C17.5,19.948,17.949,19.5,18.5,19.5z"/>
			<path d="M21.5,2h-6C14.122,2,13,3.121,13,4.5V6h11V4.5C24,3.121,22.878,2,21.5,2z M20,5h-3c-0.276,0-0.5-0.224-0.5-0.5
				C16.5,4.224,16.724,4,17,4h3c0.276,0,0.5,0.224,0.5,0.5C20.5,4.776,20.276,5,20,5z"/>
			<path d="M13,7v1.5l-1.023,1.023L11,8.547V7H0v11h11v-1.547l0.977-0.976L13,16.5V18h11V7H13z M15.707,14.793
				c0.391,0.391,0.391,1.023,0,1.414c-0.391,0.391-1.023,0.391-1.414,0L12,13.914l-2.293,2.293c-0.391,0.391-1.023,0.391-1.414,0
				c-0.391-0.391-0.391-1.023,0-1.414l2.293-2.293l-2.293-2.293c-0.391-0.391-0.391-1.023,0-1.414c0.391-0.391,1.023-0.391,1.414,0
				L12,11.086l2.293-2.293c0.391-0.391,1.023-0.391,1.414,0c0.391,0.391,0.391,1.023,0,1.414L13.414,12.5L15.707,14.793z"/>
		</g>
	</g>
	<g id="New_icons">
	</g>
</g>
<g id="Invisible_Shape">
	<rect fill="none" width="24" height="24"/>
</g>
</svg>
