<?xml version="1.0" encoding="utf-8"?>
<!-- Generator: Adobe Illustrator 19.2.1, SVG Export Plug-In . SVG Version: 6.00 Build 0)  -->
<svg version="1.1" xmlns="http://www.w3.org/2000/svg" xmlns:xlink="http://www.w3.org/1999/xlink" x="0px" y="0px" width="24px"
	 height="24px" viewBox="0 0 24 24" enable-background="new 0 0 24 24" xml:space="preserve">
<g id="Filled_Icons_1_">
	<g id="Filled_Icons">
	</g>
	<g id="New_icons">
		<g>
			<path d="M3,20v1.5C3,22.879,4.122,24,5.5,24h7c1.378,0,2.5-1.121,2.5-2.5V20H3z M9,22.5c-0.551,0-1-0.448-1-1
				c0-0.552,0.449-1,1-1s1,0.448,1,1C10,22.052,9.551,22.5,9,22.5z"/>
			<path d="M11.5,13c-0.827,0-1.5-0.673-1.5-1.5V9H3v10h12v-6H11.5z"/>
			<path d="M10,6.85L9.273,7.286C8.575,7.699,7.62,7.451,7.213,6.772C6.79,6.063,7.021,5.141,7.726,4.715L8.917,4H5.5
				C4.122,4,3,5.121,3,6.5V8h7V6.85z"/>
			<g>
				<path d="M23.758,5.571l-7.5-4.5c-0.158-0.095-0.357-0.095-0.516,0l-7.5,4.5C8.006,5.714,7.93,6.021,8.071,6.258
					C8.213,6.494,8.519,6.57,8.758,6.429L16,2.083l7.242,4.346c0.238,0.142,0.545,0.065,0.686-0.171
					C24.07,6.021,23.994,5.714,23.758,5.571z"/>
				<path d="M16,3.25l-5,3v5.25c0,0.276,0.224,0.5,0.5,0.5H14V7.5C14,7.224,14.224,7,14.5,7h3C17.776,7,18,7.224,18,7.5V12h2.5
					c0.276,0,0.5-0.224,0.5-0.5V6.25L16,3.25z"/>
			</g>
		</g>
	</g>
</g>
<g id="Invisible_Shape">
	<rect fill="none" width="24" height="24"/>
</g>
</svg>
