<?xml version="1.0" encoding="utf-8"?>
<!-- Generator: Adobe Illustrator 19.2.1, SVG Export Plug-In . SVG Version: 6.00 Build 0)  -->
<svg version="1.1" xmlns="http://www.w3.org/2000/svg" xmlns:xlink="http://www.w3.org/1999/xlink" x="0px" y="0px" width="24px"
	 height="24px" viewBox="0 0 24 24" enable-background="new 0 0 24 24" xml:space="preserve">
<g id="Filled_Icons_1_">
	<g id="Filled_Icons">
	</g>
	<g id="New_icons">
		<g>
			<path d="M3,20v1.5C3,22.879,4.122,24,5.5,24h7c1.378,0,2.5-1.121,2.5-2.5V20H3z M9,22.5c-0.551,0-1-0.448-1-1
				c0-0.552,0.449-1,1-1s1,0.448,1,1C10,22.052,9.551,22.5,9,22.5z"/>
			<path d="M13.927,4.452C13.521,4.169,13.031,4,12.5,4h-7C4.122,4,3,5.121,3,6.5V8h7.392L13.927,4.452z M7,6.5
				C7,6.224,7.224,6,7.5,6h3C10.776,6,11,6.224,11,6.5C11,6.776,10.776,7,10.5,7h-3C7.224,7,7,6.776,7,6.5z"/>
			<path d="M14.412,12.943l-3.5,1c-0.523,0.15-1.087,0.004-1.473-0.381c-0.385-0.386-0.531-0.949-0.381-1.474L9.94,9.002L9.939,9H3
				v10h12v-6.391C14.831,12.762,14.633,12.88,14.412,12.943z"/>
			<g>
				<rect x="12.109" y="5.234" transform="matrix(0.7071 -0.7071 0.7071 0.7071 -0.765 13.1561)" width="6.78" height="4.535"/>
				<path d="M21.854,3.647l-2.5-2.5c-0.195-0.195-0.512-0.195-0.707,0l-1.647,1.647l3.207,3.207l1.647-1.647
					C22.049,4.159,22.049,3.842,21.854,3.647z"/>
				<path d="M13.846,12.067L10.929,9.15l-0.911,3.226c-0.046,0.168-0.011,0.353,0.121,0.484c0.131,0.131,0.315,0.166,0.483,0.122
					L13.846,12.067z"/>
			</g>
		</g>
	</g>
</g>
<g id="Invisible_Shape">
	<rect fill="none" width="24" height="24"/>
</g>
</svg>
