<?xml version="1.0" encoding="utf-8"?>
<!-- Generator: Adobe Illustrator 19.2.1, SVG Export Plug-In . SVG Version: 6.00 Build 0)  -->
<svg version="1.1" xmlns="http://www.w3.org/2000/svg" xmlns:xlink="http://www.w3.org/1999/xlink" x="0px" y="0px" width="24px"
	 height="24px" viewBox="0 0 24 24" enable-background="new 0 0 24 24" xml:space="preserve">
<g id="Filled_Icons_1_">
	<g id="Filled_Icons">
		<g>
			<path d="M5,20v1.5C5,22.879,6.122,24,7.5,24h9c1.378,0,2.5-1.121,2.5-2.5V20H5z M12,22.5c-0.551,0-1-0.448-1-1
				c0-0.552,0.449-1,1-1s1,0.448,1,1C13,22.052,12.551,22.5,12,22.5z"/>
			<path d="M19,4V2.5C19,1.121,17.878,0,16.5,0h-9C6.122,0,5,1.121,5,2.5V4H19z M9.5,2h5C14.776,2,15,2.224,15,2.5
				C15,2.776,14.776,3,14.5,3h-5C9.224,3,9,2.776,9,2.5C9,2.224,9.224,2,9.5,2z"/>
			<path d="M5,5v14h14V5H5z M16,13.7c0,0.726-1.292,2.444-3.865,3.165c-0.086,0.024-0.184,0.024-0.27,0
				C9.293,16.145,8,14.426,8,13.7V8.516c0-0.405,0.456-0.64,0.787-0.41c0.56,0.392,1.013,0.566,1.468,0.566
				c0.535,0,1.027-0.235,1.349-0.646c0.189-0.242,0.603-0.242,0.793,0c0.322,0.411,0.814,0.646,1.35,0.646
				c0.456,0,0.908-0.175,1.467-0.565C15.538,7.876,16,8.107,16,8.516V13.7z"/>
		</g>
	</g>
	<g id="New_icons">
	</g>
</g>
<g id="Invisible_Shape">
	<rect fill="none" width="24" height="24"/>
</g>
</svg>
