<?xml version="1.0" encoding="utf-8"?>
<!-- Generator: Adobe Illustrator 19.2.1, SVG Export Plug-In . SVG Version: 6.00 Build 0)  -->
<svg version="1.1" xmlns="http://www.w3.org/2000/svg" xmlns:xlink="http://www.w3.org/1999/xlink" x="0px" y="0px" width="24px"
	 height="24px" viewBox="0 0 24 24" enable-background="new 0 0 24 24" xml:space="preserve">
<g id="Filled_Icons_1_">
	<g id="Filled_Icons">
	</g>
	<g id="New_icons">
		<g>
			<path d="M21.854,13.147L19,10.293c0.616-0.77,1-1.732,1-2.793C20,5.019,17.982,3,15.501,3C13.019,3,11,5.019,11,7.5
				c0,2.481,2.019,4.5,4.501,4.5c1.059,0,2.022-0.385,2.792-1l2.854,2.854c0.195,0.195,0.512,0.195,0.707,0
				C22.049,13.658,22.049,13.342,21.854,13.147z M15.501,11C13.57,11,12,9.43,12,7.5C12,5.57,13.57,4,15.501,4
				C17.43,4,19,5.57,19,7.5C19,9.43,17.43,11,15.501,11z"/>
			<path d="M4,20v1.5C4,22.879,5.122,24,6.5,24h7c1.378,0,2.5-1.121,2.5-2.5V20H4z M10,22.5c-0.551,0-1-0.448-1-1
				c0-0.552,0.449-1,1-1s1,0.448,1,1C11,22.052,10.551,22.5,10,22.5z"/>
			<path d="M10.212,9H4v10h12v-6.025C13.275,13.217,10.913,11.471,10.212,9z"/>
			<path d="M10,7H8.5C8.224,7,8,6.776,8,6.5C8,6.224,8.224,6,8.5,6h1.712c0.21-0.741,0.567-1.422,1.045-2H6.5C5.122,4,4,5.121,4,6.5
				V8h6V7z"/>
		</g>
	</g>
</g>
<g id="Invisible_Shape">
	<rect fill="none" width="24" height="24"/>
</g>
</svg>
