<?xml version="1.0" encoding="utf-8"?>
<!-- Generator: Adobe Illustrator 19.2.1, SVG Export Plug-In . SVG Version: 6.00 Build 0)  -->
<svg version="1.1" xmlns="http://www.w3.org/2000/svg" xmlns:xlink="http://www.w3.org/1999/xlink" x="0px" y="0px" width="24px"
	 height="24px" viewBox="0 0 24 24" enable-background="new 0 0 24 24" xml:space="preserve">
<g id="Filled_Icons_1_">
	<g id="Filled_Icons">
	</g>
	<g id="New_icons">
		<g>
			<path d="M2,20v1.5C2,22.879,3.122,24,4.5,24h7c1.378,0,2.5-1.121,2.5-2.5V20H2z M8,22.5c-0.551,0-1-0.448-1-1
				c0-0.552,0.449-1,1-1s1,0.448,1,1C9,22.052,8.551,22.5,8,22.5z"/>
			<path d="M9,14c-0.829,0-1.5-0.672-1.5-1.5c0-1.33,0.477-2.549,1.268-3.5H2v10h12v-5H9z"/>
			<path d="M9.138,7H6.5C6.224,7,6,6.776,6,6.5C6,6.224,6.224,6,6.5,6H9c0-0.731,0.212-1.409,0.557-2H4.5C3.122,4,2,5.121,2,6.5V8
				h7.555C9.373,7.69,9.231,7.356,9.138,7z"/>
			<path d="M17.498,12.352c-0.058-1.776-1.154-3.289-2.697-3.967C15.524,7.836,16,6.977,16,6c0-1.654-1.346-3-3-3s-3,1.346-3,3
				c0,0.975,0.475,1.834,1.197,2.383C9.612,9.08,8.5,10.66,8.5,12.5C8.5,12.776,8.724,13,9,13h8c0.006,0,0.013,0,0.02,0
				c0.276,0,0.5-0.224,0.5-0.5C17.52,12.448,17.512,12.398,17.498,12.352z"/>
			<path d="M22,3h-2V1c0-0.276-0.224-0.5-0.5-0.5S19,0.724,19,1v2h-2c-0.276,0-0.5,0.224-0.5,0.5C16.5,3.776,16.724,4,17,4h2v2
				c0,0.276,0.224,0.5,0.5,0.5S20,6.276,20,6V4h2c0.276,0,0.5-0.224,0.5-0.5C22.5,3.224,22.276,3,22,3z"/>
		</g>
	</g>
</g>
<g id="Invisible_Shape">
	<rect fill="none" width="24" height="24"/>
</g>
</svg>
