<?xml version="1.0" encoding="utf-8"?>
<!-- Generator: Adobe Illustrator 19.2.1, SVG Export Plug-In . SVG Version: 6.00 Build 0)  -->
<svg version="1.1" xmlns="http://www.w3.org/2000/svg" xmlns:xlink="http://www.w3.org/1999/xlink" x="0px" y="0px" width="24px"
	 height="24px" viewBox="0 0 24 24" enable-background="new 0 0 24 24" xml:space="preserve">
<g id="Filled_Icons_1_">
	<g id="Filled_Icons">
		<g>
			<path d="M0,21.5C0,22.879,1.122,24,2.5,24h6c1.378,0,2.5-1.121,2.5-2.5V20H0V21.5z M5.5,20.5c0.551,0,1,0.448,1,1
				c0,0.552-0.449,1-1,1s-1-0.448-1-1C4.5,20.948,4.949,20.5,5.5,20.5z"/>
			<path d="M19.5,1h-9C9.122,1,8,2.121,8,3.5v6c0,1.379,1.122,2.5,2.5,2.5h9c1.378,0,2.5-1.121,2.5-2.5v-6C22,2.121,20.878,1,19.5,1
				z M18.274,6.956l-5.569,2.5C12.373,9.605,12,9.36,12,9V4c0-0.361,0.373-0.603,0.705-0.456l5.569,2.5
				C18.667,6.219,18.667,6.781,18.274,6.956z"/>
			<path d="M10.5,13C8.57,13,7,11.43,7,9.5V8H0v11h11v-6H10.5z"/>
			<path d="M7,6H4C3.724,6,3.5,5.776,3.5,5.5C3.5,5.224,3.724,5,4,5h3V3H2.5C1.122,3,0,4.121,0,5.5V7h7V6z"/>
		</g>
	</g>
	<g id="New_icons">
	</g>
</g>
<g id="Invisible_Shape">
	<rect fill="none" width="24" height="24"/>
</g>
</svg>
