<?xml version="1.0" encoding="utf-8"?>
<!-- Generator: Adobe Illustrator 19.2.1, SVG Export Plug-In . SVG Version: 6.00 Build 0)  -->
<svg version="1.1" xmlns="http://www.w3.org/2000/svg" xmlns:xlink="http://www.w3.org/1999/xlink" x="0px" y="0px" width="24px"
	 height="24px" viewBox="0 0 24 24" enable-background="new 0 0 24 24" xml:space="preserve">
<g id="Filled_Icons_1_">
	<g id="Filled_Icons">
		<path d="M14.5,0h-6C6.019,0,4,2.019,4,4.5v16C4,22.43,5.57,24,7.5,24h8c1.93,0,3.5-1.57,3.5-3.5v-16C19,2.019,16.981,0,14.5,0z
			 M9.5,2h4C13.776,2,14,2.224,14,2.5C14,2.776,13.776,3,13.5,3h-4C9.224,3,9,2.776,9,2.5C9,2.224,9.224,2,9.5,2z M9,21H8v-1h1V21z
			 M9,19H8v-1h1V19z M9,17H8v-1h1V17z M12,21h-1v-1h1V21z M12,19h-1v-1h1V19z M12,17h-1v-1h1V17z M15,21h-1v-1h1V21z M15,19h-1v-1h1
			V19z M15,17h-1v-1h1V17z M17,13.5c0,0.276-0.224,0.5-0.5,0.5h-10C6.224,14,6,13.776,6,13.5v-9C6,4.224,6.224,4,6.5,4h10
			C16.776,4,17,4.224,17,4.5V13.5z"/>
	</g>
	<g id="New_icons">
	</g>
</g>
<g id="Invisible_Shape">
	<rect fill="none" width="24" height="24"/>
</g>
</svg>
