<?xml version="1.0" encoding="utf-8"?>
<!-- Generator: Adobe Illustrator 19.2.1, SVG Export Plug-In . SVG Version: 6.00 Build 0)  -->
<svg version="1.1" xmlns="http://www.w3.org/2000/svg" xmlns:xlink="http://www.w3.org/1999/xlink" x="0px" y="0px" width="24px"
	 height="24px" viewBox="0 0 24 24" enable-background="new 0 0 24 24" xml:space="preserve">
<g id="Filled_Icons_1_">
	<g id="Filled_Icons">
	</g>
	<g id="New_icons">
		<g>
			<path d="M4,20v1.5C4,22.879,5.122,24,6.5,24h7c1.378,0,2.5-1.121,2.5-2.5V20H4z M10,22.5c-0.551,0-1-0.448-1-1
				c0-0.552,0.449-1,1-1s1,0.448,1,1C11,22.052,10.551,22.5,10,22.5z"/>
			<path d="M10.436,9H4v10h12v-5.15C13.405,13.322,11.304,11.453,10.436,9z"/>
			<path d="M10.025,7H8.5C8.224,7,8,6.776,8,6.5C8,6.224,8.224,6,8.5,6h1.525c0.046-0.697,0.186-1.367,0.41-2H6.5
				C5.122,4,4,5.121,4,6.5V8h6.15C10.085,7.675,10.048,7.339,10.025,7z"/>
			<path d="M17.5,0C13.916,0,11,2.916,11,6.5s2.916,6.5,6.5,6.5S24,10.084,24,6.5S21.084,0,17.5,0z M22.05,3.404l-0.565,2.22
				c-0.067,0.271-0.385,0.438-0.608,0.36l-2.217-0.565c-0.268-0.067-0.429-0.34-0.361-0.607c0.068-0.268,0.339-0.431,0.608-0.36
				l1.202,0.306c-0.889-1.425-2.526-1.957-3.985-1.53c-1.881,0.547-2.964,2.514-2.415,4.397c0.546,1.876,2.505,2.965,4.399,2.415
				c0.264-0.08,0.542,0.074,0.62,0.34c0.077,0.265-0.075,0.544-0.34,0.619c-2.4,0.701-4.933-0.67-5.638-3.094
				c-0.702-2.407,0.676-4.935,3.095-5.638c1.78-0.519,3.811,0.06,5.005,1.803l0.233-0.912c0.068-0.268,0.34-0.43,0.608-0.36
				C21.956,2.865,22.118,3.137,22.05,3.404z"/>
		</g>
	</g>
</g>
<g id="Invisible_Shape">
	<rect fill="none" width="24" height="24"/>
</g>
</svg>
