<?xml version="1.0" encoding="utf-8"?>
<!-- Generator: Adobe Illustrator 19.2.1, SVG Export Plug-In . SVG Version: 6.00 Build 0)  -->
<svg version="1.1" xmlns="http://www.w3.org/2000/svg" xmlns:xlink="http://www.w3.org/1999/xlink" x="0px" y="0px" width="24px"
	 height="24px" viewBox="0 0 24 24" enable-background="new 0 0 24 24" xml:space="preserve">
<g id="Filled_Icons_1_">
	<g id="Filled_Icons">
	</g>
	<g id="New_icons">
		<g>
			<path d="M2,20v1.5C2,22.879,3.122,24,4.5,24h7c1.378,0,2.5-1.121,2.5-2.5V20H2z M8,22.5c-0.551,0-1-0.448-1-1
				c0-0.552,0.449-1,1-1s1,0.448,1,1C9,22.052,8.551,22.5,8,22.5z"/>
			<g>
				<path d="M15,2c-2.757,0-5,2.243-5,5c0,2.757,2.243,5,5,5s5-2.243,5-5C20,4.243,17.757,2,15,2z M15,9c-1.103,0-2-0.897-2-2
					c0-1.102,0.897-2,2-2s2,0.898,2,2C17,8.103,16.103,9,15,9z"/>
				<circle cx="15" cy="7" r="1"/>
			</g>
			<path d="M9.349,9H2v10h12v-6.09C11.834,12.546,10.065,11.024,9.349,9z"/>
			<path d="M9,7H6.5C6.224,7,6,6.776,6,6.5C6,6.224,6.224,6,6.5,6h2.59c0.121-0.719,0.368-1.393,0.72-2H4.5C3.122,4,2,5.121,2,6.5V8
				h7.09C9.035,7.674,9,7.342,9,7z"/>
		</g>
	</g>
</g>
<g id="Invisible_Shape">
	<rect fill="none" width="24" height="24"/>
</g>
</svg>
