<?xml version="1.0" encoding="utf-8"?>
<!-- Generator: Adobe Illustrator 19.2.1, SVG Export Plug-In . SVG Version: 6.00 Build 0)  -->
<svg version="1.1" xmlns="http://www.w3.org/2000/svg" xmlns:xlink="http://www.w3.org/1999/xlink" x="0px" y="0px" width="24px"
	 height="24px" viewBox="0 0 24 24" enable-background="new 0 0 24 24" xml:space="preserve">
<g id="Filled_Icons_1_">
	<g id="Filled_Icons">
	</g>
	<g id="New_icons">
		<g>
			<g>
				<path d="M18,4V2.5C18,1.121,16.878,0,15.5,0h-9C5.122,0,4,1.121,4,2.5V4H18z M8.5,2h5C13.776,2,14,2.224,14,2.5
					C14,2.776,13.776,3,13.5,3h-5C8.224,3,8,2.776,8,2.5C8,2.224,8.224,2,8.5,2z"/>
				<path d="M16.557,15.393l-2.5,1c-0.556,0.223-1.193,0.094-1.618-0.332c-0.424-0.424-0.555-1.061-0.332-1.617l1-2.5
					c0.075-0.189,0.189-0.36,0.332-0.504L18,6.879V5H4v14h14v-4.879l-0.94,0.939C16.917,15.204,16.746,15.317,16.557,15.393z"/>
				<path d="M4,20v1.5C4,22.879,5.122,24,6.5,24h9c1.378,0,2.5-1.121,2.5-2.5V20H4z M11,22.5c-0.551,0-1-0.448-1-1
					c0-0.552,0.449-1,1-1s1,0.448,1,1C12,22.052,11.551,22.5,11,22.5z"/>
			</g>
			<g>
				<path d="M13.913,12.62l-0.878,2.194c-0.074,0.185-0.031,0.397,0.111,0.539c0.144,0.144,0.357,0.185,0.539,0.11l2.194-0.878
					L13.913,12.62z"/>
				<path d="M23.354,6.647l-1.5-1.5c-0.195-0.195-0.512-0.195-0.707,0L14.5,11.793L16.707,14l6.646-6.646
					C23.549,7.158,23.549,6.842,23.354,6.647z"/>
			</g>
		</g>
	</g>
</g>
<g id="Invisible_Shape">
	<rect fill="none" width="24" height="24"/>
</g>
</svg>
