<?xml version="1.0" encoding="utf-8"?>
<!-- Generator: Adobe Illustrator 19.2.1, SVG Export Plug-In . SVG Version: 6.00 Build 0)  -->
<svg version="1.1" xmlns="http://www.w3.org/2000/svg" xmlns:xlink="http://www.w3.org/1999/xlink" x="0px" y="0px" width="24px"
	 height="24px" viewBox="0 0 24 24" enable-background="new 0 0 24 24" xml:space="preserve">
<g id="Filled_Icons_1_">
	<g id="Filled_Icons">
		<g>
			<path d="M6.224,19.898C6.553,20.549,7.222,21,8,21h8c1.103,0,2-0.897,2-2v-1H8.121L6.224,19.898z"/>
			<polygon points="9.121,17 18,17 18,8.121 			"/>
			<polygon points="13.879,8 6,8 6,15.879 			"/>
			<path d="M17.776,4.103C17.447,3.451,16.778,3,16,3H7.625C6.889,3,6,3.893,6,5v2h8.879L17.776,4.103z M13.5,6h-3
				C10.224,6,10,5.776,10,5.5C10,5.224,10.224,5,10.5,5h3C13.776,5,14,5.224,14,5.5C14,5.776,13.776,6,13.5,6z"/>
			<path d="M22.354,1.647c-0.195-0.195-0.512-0.195-0.707,0l-20,20c-0.195,0.195-0.195,0.512,0,0.707
				c0.195,0.195,0.512,0.195,0.707,0l20-20C22.549,2.158,22.549,1.842,22.354,1.647z"/>
		</g>
	</g>
	<g id="New_icons">
	</g>
</g>
<g id="Invisible_Shape">
	<rect fill="none" width="24" height="24"/>
</g>
</svg>
