<?xml version="1.0" encoding="utf-8"?>
<!-- Generator: Adobe Illustrator 19.2.1, SVG Export Plug-In . SVG Version: 6.00 Build 0)  -->
<svg version="1.1" xmlns="http://www.w3.org/2000/svg" xmlns:xlink="http://www.w3.org/1999/xlink" x="0px" y="0px" width="24px"
	 height="24px" viewBox="0 0 24 24" enable-background="new 0 0 24 24" xml:space="preserve">
<g id="Filled_Icons_1_">
	<g id="Filled_Icons">
		<g>
			<rect x="6" y="7" width="1" height="1"/>
			<rect x="17" y="7" width="1" height="1"/>
			<path d="M23.5,2h-23C0.224,2,0,2.224,0,2.5v19C0,21.776,0.224,22,0.5,22h23c0.276,0,0.5-0.224,0.5-0.5v-19
				C24,2.224,23.776,2,23.5,2z M16,6.5C16,6.224,16.224,6,16.5,6h2C18.776,6,19,6.224,19,6.5v2C19,8.776,18.776,9,18.5,9h-2
				C16.224,9,16,8.776,16,8.5V6.5z M14.016,6.5c0-0.276,0.224-0.5,0.5-0.5c0.276,0,0.5,0.224,0.5,0.5v1c0,0.276-0.224,0.5-0.5,0.5
				c-0.276,0-0.5-0.224-0.5-0.5V6.5z M9,6.516c0-0.276,0.224-0.5,0.5-0.5s0.5,0.224,0.5,0.5V8h0.5C10.776,8,11,8.224,11,8.5
				C11,8.776,10.776,9,10.5,9h-1C9.224,9,9,8.776,9,8.5V6.516z M10,13.5c0,0.276-0.224,0.5-0.5,0.5h-4C5.224,14,5,13.776,5,13.5
				C5,13.224,5.224,13,5.5,13h4C9.776,13,10,13.224,10,13.5z M9,10.5v1C9,11.776,8.776,12,8.5,12S8,11.776,8,11.5V11H5.5
				C5.224,11,5,10.776,5,10.5C5,10.224,5.224,10,5.5,10h3C8.776,10,9,10.224,9,10.5z M5.5,6h2C7.776,6,8,6.224,8,6.5v2
				C8,8.776,7.776,9,7.5,9h-2C5.224,9,5,8.776,5,8.5v-2C5,6.224,5.224,6,5.5,6z M1.031,3.531c0-0.276,0.224-0.5,0.5-0.5H4.5
				c0.276,0,0.5,0.224,0.5,0.5c0,0.276-0.224,0.5-0.5,0.5H2.031V6.5c0,0.276-0.224,0.5-0.5,0.5c-0.276,0-0.5-0.224-0.5-0.5V3.531z
				 M4.469,21H1.5C1.224,21,1,20.776,1,20.5v-2.969c0-0.276,0.224-0.5,0.5-0.5s0.5,0.224,0.5,0.5V20h2.469
				c0.276,0,0.5,0.224,0.5,0.5C4.969,20.776,4.745,21,4.469,21z M8,17.5C8,17.776,7.776,18,7.5,18h-2C5.224,18,5,17.776,5,17.5v-2
				C5,15.224,5.224,15,5.5,15h2C7.776,15,8,15.224,8,15.5V17.5z M12.5,18h-3C9.224,18,9,17.776,9,17.5v-1.969
				c0-0.276,0.224-0.5,0.5-0.5s0.5,0.224,0.5,0.5V17h2.5c0.276,0,0.5,0.224,0.5,0.5C13,17.776,12.776,18,12.5,18z M12.5,16h-0.984
				c-0.276,0-0.5-0.224-0.5-0.5c0-0.276,0.224-0.5,0.5-0.5H12.5c0.276,0,0.5,0.224,0.5,0.5C13,15.776,12.776,16,12.5,16z
				 M11.016,13.5v-1c0-0.276,0.224-0.5,0.5-0.5c0.276,0,0.5,0.224,0.5,0.5v1c0,0.276-0.224,0.5-0.5,0.5
				C11.239,14,11.016,13.776,11.016,13.5z M13,10.5c0,0.276-0.224,0.5-0.5,0.5h-2c-0.276,0-0.5-0.224-0.5-0.5
				c0-0.276,0.224-0.5,0.5-0.5H12V6.516c0-0.276,0.224-0.5,0.5-0.5s0.5,0.224,0.5,0.5V10.5z M19,13.5c0,0.276-0.224,0.5-0.5,0.5
				S18,13.776,18,13.5V13h-3v4h3v-1h-1.484c-0.276,0-0.5-0.224-0.5-0.5c0-0.276,0.224-0.5,0.5-0.5H18.5c0.276,0,0.5,0.224,0.5,0.5v2
				c0,0.276-0.224,0.5-0.5,0.5h-3.984c-0.276,0-0.5-0.224-0.516-0.5v-5c0.016-0.276,0.239-0.5,0.516-0.5H18.5
				c0.276,0,0.5,0.224,0.5,0.5V13.5z M18.516,11h-4c-0.276,0-0.5-0.224-0.5-0.5c0-0.276,0.224-0.5,0.5-0.5h4
				c0.276,0,0.5,0.224,0.5,0.5C19.016,10.776,18.792,11,18.516,11z M23,20.5c0,0.276-0.224,0.5-0.5,0.5h-2.969
				c-0.276,0-0.5-0.224-0.5-0.5c0-0.276,0.224-0.5,0.5-0.5H22v-2.469c0-0.276,0.224-0.5,0.5-0.5s0.5,0.224,0.5,0.5V20.5z M23,6.5
				C23,6.776,22.776,7,22.5,7S22,6.776,22,6.5V4.031h-2.469c-0.276,0-0.5-0.224-0.5-0.5c0-0.276,0.224-0.5,0.5-0.5H22.5
				c0.276,0,0.5,0.224,0.5,0.5V6.5z"/>
			<rect x="6" y="16" width="1" height="1"/>
		</g>
	</g>
	<g id="New_icons">
	</g>
</g>
<g id="Invisible_Shape">
	<rect fill="none" width="24" height="24"/>
</g>
</svg>
