<?xml version="1.0" encoding="utf-8"?>
<!-- Generator: Adobe Illustrator 19.2.1, SVG Export Plug-In . SVG Version: 6.00 Build 0)  -->
<svg version="1.1" xmlns="http://www.w3.org/2000/svg" xmlns:xlink="http://www.w3.org/1999/xlink" x="0px" y="0px" width="24px"
	 height="24px" viewBox="0 0 24 24" enable-background="new 0 0 24 24" xml:space="preserve">
<g id="Filled_Icons_1_">
	<g id="Filled_Icons">
	</g>
	<g id="New_icons">
		<g>
			<g>
				<path d="M10.207,3.293l-3-3c-0.391-0.391-1.023-0.391-1.414,0l-3,3c-0.391,0.391-0.391,1.023,0,1.414
					c0.391,0.391,1.023,0.391,1.414,0L5.5,3.414V11c0,0.553,0.448,1,1,1s1-0.447,1-1V3.414l1.293,1.293
					c0.391,0.391,1.023,0.391,1.414,0C10.598,4.316,10.598,3.684,10.207,3.293z"/>
				<path d="M19.207,7.293c-0.391-0.391-1.023-0.391-1.414,0L16.5,8.586V1c0-0.553-0.448-1-1-1s-1,0.447-1,1v7.586l-1.293-1.293
					c-0.391-0.391-1.023-0.391-1.414,0c-0.391,0.391-0.391,1.023,0,1.414l3,3c0.391,0.391,1.023,0.391,1.414,0l3-3
					C19.598,8.316,19.598,7.684,19.207,7.293z"/>
			</g>
			<g>
				<path d="M9,20H8v-6.5c0-0.515-0.683-0.687-0.934-0.248l-4,7C2.876,20.584,3.116,21,3.5,21H7v1.5C7,22.776,7.224,23,7.5,23
					S8,22.776,8,22.5V21h1c0.276,0,0.5-0.224,0.5-0.5C9.5,20.224,9.276,20,9,20z M7,20H4.362L7,15.383V20z"/>
				<path d="M17.5,17c0.276,0,0.5-0.224,0.5-0.5v-1c0-1.379-1.122-2.5-2.5-2.5h-1c-1.378,0-2.5,1.121-2.5,2.5v5
					c0,1.379,1.122,2.5,2.5,2.5h1c1.378,0,2.5-1.121,2.5-2.5v-2.001c0-0.276-0.224-0.5-0.5-0.5h-3c-0.276,0-0.5,0.224-0.5,0.5
					c0,0.276,0.224,0.5,0.5,0.5H17V20.5c0,0.827-0.673,1.5-1.5,1.5h-1c-0.827,0-1.5-0.673-1.5-1.5v-5c0-0.827,0.673-1.5,1.5-1.5h1
					c0.827,0,1.5,0.673,1.5,1.5v1C17,16.776,17.224,17,17.5,17z"/>
			</g>
		</g>
	</g>
</g>
<g id="Invisible_Shape">
	<rect fill="none" width="24" height="24"/>
</g>
</svg>
