<?xml version="1.0" encoding="utf-8"?>
<!-- Generator: Adobe Illustrator 19.2.1, SVG Export Plug-In . SVG Version: 6.00 Build 0)  -->
<svg version="1.1" xmlns="http://www.w3.org/2000/svg" xmlns:xlink="http://www.w3.org/1999/xlink" x="0px" y="0px" width="24px"
	 height="24px" viewBox="0 0 24 24" enable-background="new 0 0 24 24" xml:space="preserve">
<g id="Filled_Icons_1_">
	<g id="Filled_Icons">
	</g>
	<g id="New_icons">
		<g>
			<g>
				<path d="M9.207,3.293l-3-3c-0.391-0.391-1.023-0.391-1.414,0l-3,3c-0.391,0.391-0.391,1.023,0,1.414
					c0.391,0.391,1.023,0.391,1.414,0L4.5,3.414V11c0,0.553,0.448,1,1,1s1-0.447,1-1V3.414l1.293,1.293
					c0.391,0.391,1.023,0.391,1.414,0C9.598,4.316,9.598,3.684,9.207,3.293z"/>
				<path d="M18.207,7.293c-0.391-0.391-1.023-0.391-1.414,0L15.5,8.586V1c0-0.553-0.448-1-1-1s-1,0.447-1,1v7.586l-1.293-1.293
					c-0.391-0.391-1.023-0.391-1.414,0c-0.391,0.391-0.391,1.023,0,1.414l3,3c0.391,0.391,1.023,0.391,1.414,0l3-3
					C18.598,8.316,18.598,7.684,18.207,7.293z"/>
			</g>
			<g>
				<path d="M6.5,22H3v-8.5C3,13.224,2.776,13,2.5,13S2,13.224,2,13.5v9C2,22.776,2.224,23,2.5,23h4C6.776,23,7,22.776,7,22.5
					C7,22.224,6.776,22,6.5,22z"/>
				<path d="M12.5,13h-6C6.224,13,6,13.224,6,13.5C6,13.776,6.224,14,6.5,14H9v8.5C9,22.776,9.224,23,9.5,23s0.5-0.224,0.5-0.5V14
					h2.5c0.276,0,0.5-0.224,0.5-0.5C13,13.224,12.776,13,12.5,13z"/>
				<path d="M19.5,22H15v-3h4c0.276,0,0.5-0.224,0.5-0.5c0-0.276-0.224-0.5-0.5-0.5h-4v-4h4.5c0.276,0,0.5-0.224,0.5-0.5
					c0-0.276-0.224-0.5-0.5-0.5h-5c-0.276,0-0.5,0.224-0.5,0.5v9c0,0.276,0.224,0.5,0.5,0.5h5c0.276,0,0.5-0.224,0.5-0.5
					C20,22.224,19.776,22,19.5,22z"/>
			</g>
		</g>
	</g>
</g>
<g id="Invisible_Shape">
	<rect fill="none" width="24" height="24"/>
</g>
</svg>
