<?xml version="1.0" encoding="utf-8"?>
<!-- Generator: Adobe Illustrator 19.2.1, SVG Export Plug-In . SVG Version: 6.00 Build 0)  -->
<svg version="1.1" xmlns="http://www.w3.org/2000/svg" xmlns:xlink="http://www.w3.org/1999/xlink" x="0px" y="0px" width="24px"
	 height="24px" viewBox="0 0 24 24" enable-background="new 0 0 24 24" xml:space="preserve">
<g id="Filled_Icons_1_">
	<g id="Filled_Icons">
	</g>
	<g id="New_icons">
		<g>
			<g>
				<path d="M9.207,3.293l-3-3c-0.391-0.391-1.023-0.391-1.414,0l-3,3c-0.391,0.391-0.391,1.023,0,1.414
					c0.391,0.391,1.023,0.391,1.414,0L4.5,3.414V11c0,0.553,0.448,1,1,1s1-0.447,1-1V3.414l1.293,1.293
					c0.391,0.391,1.023,0.391,1.414,0C9.598,4.316,9.598,3.684,9.207,3.293z"/>
				<path d="M18.207,7.293c-0.391-0.391-1.023-0.391-1.414,0L15.5,8.586V1c0-0.553-0.448-1-1-1s-1,0.447-1,1v7.586l-1.293-1.293
					c-0.391-0.391-1.023-0.391-1.414,0c-0.391,0.391-0.391,1.023,0,1.414l3,3c0.391,0.391,1.023,0.391,1.414,0l3-3
					C18.598,8.316,18.598,7.684,18.207,7.293z"/>
			</g>
			<g>
				<path d="M14.5,23h-1c-1.378,0-2.5-1.121-2.5-2.5v-5c0-1.379,1.122-2.5,2.5-2.5h1c1.378,0,2.5,1.121,2.5,2.5v1
					c0,0.276-0.224,0.5-0.5,0.5S16,16.776,16,16.5v-1c0-0.827-0.673-1.5-1.5-1.5h-1c-0.827,0-1.5,0.673-1.5,1.5v5
					c0,0.827,0.673,1.5,1.5,1.5h1c0.827,0,1.5-0.673,1.5-1.5v-1.501h-2.5c-0.276,0-0.5-0.224-0.5-0.5c0-0.276,0.224-0.5,0.5-0.5h3
					c0.276,0,0.5,0.224,0.5,0.5V20.5C17,21.879,15.878,23,14.5,23z"/>
			</g>
			<g>
				<path d="M5.92,23H3.5C3.224,23,3,22.776,3,22.5C3,22.224,3.224,22,3.5,22h2.42c1.466,0,1.58-1.613,1.58-2.107
					c0-0.708-0.205-1.895-1.58-1.895L3.5,18h0C3.225,18,3,17.776,3,17.5v-3.999c0-0.276,0.224-0.5,0.5-0.5L8,13
					c0.276,0,0.5,0.224,0.5,0.5C8.5,13.776,8.276,14,8,14l-4,0.001V17l1.919-0.002c1.903,0,2.581,1.495,2.581,2.895
					C8.5,21.326,7.824,23,5.92,23z"/>
			</g>
		</g>
	</g>
</g>
<g id="Invisible_Shape">
	<rect fill="none" width="24" height="24"/>
</g>
</svg>
