<?xml version="1.0" encoding="utf-8"?>
<!-- Generator: Adobe Illustrator 19.2.1, SVG Export Plug-In . SVG Version: 6.00 Build 0)  -->
<svg version="1.1" xmlns="http://www.w3.org/2000/svg" xmlns:xlink="http://www.w3.org/1999/xlink" x="0px" y="0px" width="24px"
	 height="24px" viewBox="0 0 24 24" enable-background="new 0 0 24 24" xml:space="preserve">
<g id="Filled_Icons_1_">
	<g id="Filled_Icons">
	</g>
	<g id="New_icons">
		<g>
			<g>
				<g>
					<path d="M15.348,11.132C14.298,9.777,12.713,9,11,9c-1.714,0-3.3,0.777-4.35,2.132c-0.339,0.439-0.966,0.516-1.403,0.178
						c-0.437-0.338-0.516-0.966-0.178-1.402C6.501,8.06,8.663,7,11,7c2.336,0,4.497,1.06,5.929,2.907
						c0.338,0.436,0.259,1.064-0.178,1.402C16.317,11.648,15.688,11.57,15.348,11.132z"/>
				</g>
				<g>
					<path d="M3.359,8.636C2.929,8.289,2.861,7.66,3.207,7.23C5.118,4.859,7.958,3.5,11,3.5c3.036,0,5.873,1.356,7.784,3.72
						c0.347,0.43,0.28,1.06-0.149,1.406c-0.429,0.349-1.059,0.281-1.406-0.148C15.699,6.585,13.429,5.5,11,5.5
						c-2.434,0-4.707,1.088-6.235,2.985C4.421,8.912,3.791,8.984,3.359,8.636z"/>
				</g>
				<g>
					<path d="M19.238,5.988C17.232,3.453,14.229,2,11,2C7.774,2,4.773,3.449,2.769,5.977C2.425,6.41,1.798,6.483,1.364,6.139
						C0.931,5.796,0.859,5.167,1.202,4.734C3.588,1.726,7.16,0,11,0c3.844,0,7.419,1.731,9.807,4.746
						c0.343,0.434,0.27,1.062-0.163,1.405C20.211,6.494,19.581,6.421,19.238,5.988z"/>
				</g>
			</g>
			<g>
				<path d="M15.5,23h-1c-1.378,0-2.5-1.121-2.5-2.5v-5c0-1.379,1.122-2.5,2.5-2.5h1c1.378,0,2.5,1.121,2.5,2.5v1
					c0,0.276-0.224,0.5-0.5,0.5S17,16.776,17,16.5v-1c0-0.827-0.673-1.5-1.5-1.5h-1c-0.827,0-1.5,0.673-1.5,1.5v5
					c0,0.827,0.673,1.5,1.5,1.5h1c0.827,0,1.5-0.673,1.5-1.5v-1.501h-2.5c-0.276,0-0.5-0.224-0.5-0.5c0-0.276,0.224-0.5,0.5-0.5h3
					c0.276,0,0.5,0.224,0.5,0.5V20.5C18,21.879,16.878,23,15.5,23z"/>
			</g>
			<g>
				<path d="M6.92,23H4.5C4.224,23,4,22.776,4,22.5C4,22.224,4.224,22,4.5,22h2.42c1.466,0,1.58-1.613,1.58-2.107
					c0-0.708-0.205-1.895-1.58-1.895L4.501,18H4.5c-0.132,0-0.26-0.053-0.353-0.146C4.053,17.76,4,17.633,4,17.5v-3.999
					c0-0.276,0.224-0.5,0.5-0.5L9,13c0.276,0,0.5,0.224,0.5,0.5C9.5,13.776,9.276,14,9,14l-4,0.001V17l1.919-0.002
					c1.903,0,2.581,1.495,2.581,2.895C9.5,21.326,8.824,23,6.92,23z"/>
			</g>
		</g>
	</g>
</g>
<g id="Invisible_Shape">
	<rect fill="none" width="24" height="24"/>
</g>
</svg>
