<?xml version="1.0" encoding="utf-8"?>
<!-- Generator: Adobe Illustrator 19.2.1, SVG Export Plug-In . SVG Version: 6.00 Build 0)  -->
<svg version="1.1" xmlns="http://www.w3.org/2000/svg" xmlns:xlink="http://www.w3.org/1999/xlink" x="0px" y="0px" width="24px"
	 height="24px" viewBox="0 0 24 24" enable-background="new 0 0 24 24" xml:space="preserve">
<g id="Filled_Icons_1_">
	<g id="Filled_Icons">
	</g>
	<g id="New_icons">
		<g>
			<g>
				<g>
					<path d="M15.848,11.132C14.798,9.777,13.213,9,11.5,9c-1.714,0-3.3,0.777-4.35,2.132c-0.339,0.439-0.966,0.516-1.403,0.178
						c-0.437-0.338-0.516-0.966-0.178-1.402C7.001,8.06,9.163,7,11.5,7c2.336,0,4.497,1.06,5.929,2.907
						c0.338,0.436,0.259,1.064-0.178,1.402C16.817,11.648,16.188,11.57,15.848,11.132z"/>
				</g>
				<g>
					<path d="M3.859,8.636C3.429,8.289,3.361,7.66,3.707,7.23C5.618,4.859,8.458,3.5,11.5,3.5c3.036,0,5.873,1.356,7.784,3.72
						c0.347,0.43,0.28,1.06-0.149,1.406c-0.429,0.349-1.059,0.281-1.406-0.148C16.199,6.585,13.929,5.5,11.5,5.5
						c-2.434,0-4.707,1.088-6.235,2.985C4.921,8.912,4.291,8.984,3.859,8.636z"/>
				</g>
				<g>
					<path d="M19.738,5.988C17.732,3.453,14.729,2,11.5,2C8.274,2,5.273,3.449,3.269,5.977C2.925,6.41,2.298,6.483,1.864,6.139
						C1.431,5.796,1.359,5.167,1.702,4.734C4.088,1.726,7.66,0,11.5,0c3.844,0,7.419,1.731,9.807,4.746
						c0.343,0.434,0.27,1.062-0.163,1.405C20.711,6.494,20.081,6.421,19.738,5.988z"/>
				</g>
			</g>
			<g>
				<path d="M8.5,23C8.224,23,8,22.776,8,22.5V21H4.5c-0.178,0-0.343-0.095-0.433-0.249c-0.089-0.154-0.09-0.345-0.002-0.499l4-7
					c0.112-0.196,0.342-0.291,0.562-0.235C8.848,13.075,9,13.273,9,13.5V20h1c0.276,0,0.5,0.224,0.5,0.5c0,0.276-0.224,0.5-0.5,0.5
					H9v1.5C9,22.776,8.776,23,8.5,23z M5.362,20H8v-4.617L5.362,20z"/>
			</g>
			<g>
				<path d="M16.5,23h-1c-1.378,0-2.5-1.121-2.5-2.5v-5c0-1.379,1.122-2.5,2.5-2.5h1c1.378,0,2.5,1.121,2.5,2.5v1
					c0,0.276-0.224,0.5-0.5,0.5S18,16.776,18,16.5v-1c0-0.827-0.673-1.5-1.5-1.5h-1c-0.827,0-1.5,0.673-1.5,1.5v5
					c0,0.827,0.673,1.5,1.5,1.5h1c0.827,0,1.5-0.673,1.5-1.5v-1.501h-2.5c-0.276,0-0.5-0.224-0.5-0.5c0-0.276,0.224-0.5,0.5-0.5h3
					c0.276,0,0.5,0.224,0.5,0.5V20.5C19,21.879,17.878,23,16.5,23z"/>
			</g>
		</g>
	</g>
</g>
<g id="Invisible_Shape">
	<rect fill="none" width="24" height="24"/>
</g>
</svg>
