<?xml version="1.0" encoding="utf-8"?>
<!-- Generator: Adobe Illustrator 19.2.1, SVG Export Plug-In . SVG Version: 6.00 Build 0)  -->
<svg version="1.1" xmlns="http://www.w3.org/2000/svg" xmlns:xlink="http://www.w3.org/1999/xlink" x="0px" y="0px" width="24px"
	 height="24px" viewBox="0 0 24 24" enable-background="new 0 0 24 24" xml:space="preserve">
<g id="Filled_Icons_1_">
	<g id="Filled_Icons">
	</g>
	<g id="New_icons">
		<g>
			<g>
				<g>
					<path d="M15.348,11.132C14.298,9.777,12.713,9,11,9c-1.714,0-3.3,0.777-4.35,2.132c-0.339,0.439-0.966,0.516-1.403,0.178
						c-0.437-0.338-0.516-0.966-0.178-1.402C6.501,8.06,8.663,7,11,7c2.336,0,4.497,1.06,5.929,2.907
						c0.338,0.436,0.259,1.064-0.178,1.402C16.317,11.648,15.688,11.57,15.348,11.132z"/>
				</g>
				<g>
					<path d="M3.359,8.636C2.929,8.289,2.861,7.66,3.207,7.23C5.118,4.859,7.958,3.5,11,3.5c3.036,0,5.873,1.356,7.784,3.72
						c0.347,0.43,0.28,1.06-0.149,1.406c-0.429,0.349-1.059,0.281-1.406-0.148C15.699,6.585,13.429,5.5,11,5.5
						c-2.434,0-4.707,1.088-6.235,2.985C4.421,8.912,3.791,8.984,3.359,8.636z"/>
				</g>
				<g>
					<path d="M19.238,5.988C17.232,3.453,14.229,2,11,2C7.774,2,4.773,3.449,2.769,5.977C2.425,6.41,1.798,6.483,1.364,6.139
						C0.931,5.796,0.859,5.167,1.202,4.734C3.588,1.726,7.16,0,11,0c3.844,0,7.419,1.731,9.807,4.746
						c0.343,0.434,0.27,1.062-0.163,1.405C20.211,6.494,19.581,6.421,19.238,5.988z"/>
				</g>
			</g>
			<g>
				<path d="M7.5,22H4v-8.5C4,13.224,3.776,13,3.5,13S3,13.224,3,13.5v9C3,22.776,3.224,23,3.5,23h4C7.776,23,8,22.776,8,22.5
					C8,22.224,7.776,22,7.5,22z"/>
				<path d="M13.5,13h-6C7.224,13,7,13.224,7,13.5C7,13.776,7.224,14,7.5,14H10v8.5c0,0.276,0.224,0.5,0.5,0.5s0.5-0.224,0.5-0.5V14
					h2.5c0.276,0,0.5-0.224,0.5-0.5C14,13.224,13.776,13,13.5,13z"/>
				<path d="M20.5,22H16v-3h4c0.276,0,0.5-0.224,0.5-0.5c0-0.276-0.224-0.5-0.5-0.5h-4v-4h4.5c0.276,0,0.5-0.224,0.5-0.5
					c0-0.276-0.224-0.5-0.5-0.5h-5c-0.276,0-0.5,0.224-0.5,0.5v9c0,0.276,0.224,0.5,0.5,0.5h5c0.276,0,0.5-0.224,0.5-0.5
					C21,22.224,20.776,22,20.5,22z"/>
			</g>
		</g>
	</g>
</g>
<g id="Invisible_Shape">
	<rect fill="none" width="24" height="24"/>
</g>
</svg>
