<?xml version="1.0" encoding="utf-8"?>
<!-- Generator: Adobe Illustrator 19.2.0, SVG Export Plug-In . SVG Version: 6.00 Build 0)  -->
<svg version="1.1" xmlns="http://www.w3.org/2000/svg" xmlns:xlink="http://www.w3.org/1999/xlink" x="0px" y="0px" width="24px"
	 height="24px" viewBox="0 0 24 24" enable-background="new 0 0 24 24" xml:space="preserve">
<g id="Filled_Icons">
	<g>
		<polygon points="16,13 16,11 8,11 8,24 12,24 12,20 14,20 14,24 16,24 16,16 13,16 13,15 16,15 16,14 12,14 12,13 		"/>
		<polygon points="10,5 10,3 0,3 0,24 2,24 2,20 5,20 5,24 7,24 7,10 10,10 10,8 6,8 6,7 10,7 10,6 4,6 4,5 		"/>
		<path d="M18.5,2C18.224,2,18,1.777,18,1.5v-1C18,0.225,18.224,0,18.5,0S19,0.225,19,0.5v1C19,1.777,18.776,2,18.5,2z"/>
		<path d="M14.5,6h-1C13.224,6,13,5.777,13,5.5C13,5.224,13.224,5,13.5,5h1C14.776,5,15,5.224,15,5.5C15,5.777,14.776,6,14.5,6z"/>
		<path d="M22,5.5C22,5.776,22.223,6,22.5,6h1C23.775,6,24,5.776,24,5.5S23.775,5,23.5,5h-1C22.223,5,22,5.224,22,5.5z"/>
		<path d="M18,9.5v1c0,0.276,0.223,0.5,0.5,0.5c0.276,0,0.5-0.224,0.5-0.5v-1C19,9.224,18.776,9,18.5,9C18.223,9,18,9.224,18,9.5z"
			/>
		<path d="M16.025,3.025c-0.196,0.195-0.512,0.195-0.708,0l-0.707-0.707c-0.195-0.194-0.195-0.511,0-0.707
			c0.196-0.195,0.512-0.195,0.707,0l0.708,0.707C16.221,2.514,16.221,2.83,16.025,3.025z"/>
		<path d="M16.025,8.682l-0.708,0.708c-0.195,0.195-0.511,0.196-0.707,0c-0.195-0.195-0.195-0.511,0-0.708l0.707-0.706
			c0.196-0.196,0.512-0.195,0.708,0C16.221,8.17,16.221,8.486,16.025,8.682z"/>
		<path d="M20.975,3.025c0.196,0.195,0.512,0.195,0.707,0l0.708-0.707c0.195-0.194,0.195-0.511,0-0.707
			c-0.196-0.195-0.512-0.195-0.708,0l-0.707,0.707C20.779,2.514,20.779,2.83,20.975,3.025z"/>
		<path d="M20.975,8.682l0.707,0.708c0.196,0.195,0.512,0.196,0.708,0c0.195-0.195,0.195-0.511,0-0.708l-0.708-0.706
			c-0.195-0.196-0.512-0.195-0.707,0C20.779,8.17,20.779,8.486,20.975,8.682z"/>
		<circle cx="18.5" cy="5.5" r="2.5"/>
	</g>
</g>
<g id="invisible_shape">
	<rect fill="none" width="24" height="24"/>
</g>
</svg>
