<?xml version="1.0" encoding="utf-8"?>
<!-- Generator: Adobe Illustrator 19.2.0, SVG Export Plug-In . SVG Version: 6.00 Build 0)  -->
<svg version="1.1" xmlns="http://www.w3.org/2000/svg" xmlns:xlink="http://www.w3.org/1999/xlink" x="0px" y="0px" width="24px"
	 height="24px" viewBox="0 0 24 24" enable-background="new 0 0 24 24" xml:space="preserve">
<g id="Filled_Icons">
	<g>
		<path d="M20.5,1.998c-0.276,0-0.5,0.225-0.5,0.5v6c0,0.277,0.224,0.5,0.5,0.5c1.93,0,3.5-1.57,3.5-3.5
			C24,3.569,22.43,1.998,20.5,1.998z"/>
		<path d="M17.511,2.499c-1.396-0.029-2.016-0.646-2.011-1.998c0-0.277-0.186-0.53-0.5-0.502c-0.275,0-0.499,0.223-0.5,0.499l0,0
			c-0.005,1.365-0.624,1.982-2.007,2.001c-0.275,0.004-0.492,0.229-0.49,0.504c0.002,0.275,0.228,0.496,0.503,0.496
			c1.385,0,1.981,0.6,1.994,2.005c0.002,0.271,0.22,0.49,0.489,0.495c0.004,0,0.008,0,0.011,0c0.266,0,0.486-0.208,0.499-0.475
			c0.07-1.4,0.683-2.025,1.999-2.025c0.001,0,0.001,0,0.002,0c0.273,0,0.496-0.22,0.5-0.492C18.003,2.731,17.785,2.505,17.511,2.499
			z"/>
		<polygon points="16,13 16,11 8,11 8,24 12,24 12,20 14,20 14,24 16,24 16,16 13,16 13,15 16,15 16,14 12,14 12,13 		"/>
		<polygon points="10,5 10,3 0,3 0,24 2,24 2,20 5,20 5,24 7,24 7,10 10,10 10,8 6,8 6,7 10,7 10,6 4,6 4,5 		"/>
	</g>
</g>
<g id="invisible_shape">
	<rect fill="none" width="24" height="24"/>
</g>
</svg>
