<?xml version="1.0" encoding="utf-8"?>
<!-- Generator: Adobe Illustrator 19.2.0, SVG Export Plug-In . SVG Version: 6.00 Build 0)  -->
<svg version="1.1" xmlns="http://www.w3.org/2000/svg" xmlns:xlink="http://www.w3.org/1999/xlink" x="0px" y="0px" width="24px"
	 height="24px" viewBox="0 0 24 24" enable-background="new 0 0 24 24" xml:space="preserve">
<g id="Filled_Icons_1_">
	<g>
		<path d="M9.553,12.006l2.962-6.288c0.093-0.196,0.048-0.429-0.111-0.579c-0.161-0.148-0.397-0.176-0.586-0.07l-11.563,6.5
			C0.098,11.659,0,11.826,0,12.006c0,0.181,0.098,0.347,0.255,0.436l11.563,6.5c0.193,0.108,0.427,0.077,0.586-0.069
			c0.159-0.149,0.204-0.382,0.111-0.579L9.553,12.006z"/>
		<path d="M17.984,5.991c-3.309,0-6,2.692-6,6c0,3.309,2.691,6,6,6s6-2.691,6-6C23.984,8.683,21.293,5.991,17.984,5.991z
			 M19.312,14.678c-0.036,0.228-0.225,0.402-0.455,0.42c-0.013,0.001-0.025,0.001-0.038,0.001c-0.216,0-0.41-0.139-0.476-0.347
			l-0.35-1.099l-0.35,1.099c-0.07,0.219-0.281,0.369-0.515,0.346c-0.23-0.018-0.42-0.191-0.455-0.42l-0.827-5.189
			c-0.043-0.273,0.143-0.529,0.415-0.572c0.275-0.044,0.529,0.143,0.572,0.415l0.495,3.11l0.188-0.587
			c0.133-0.415,0.82-0.415,0.953,0l0.187,0.586l0.494-3.109c0.044-0.272,0.296-0.458,0.572-0.415
			c0.272,0.043,0.459,0.299,0.415,0.572L19.312,14.678z"/>
	</g>
</g>
<g id="invisible_shape">
	<rect fill="none" width="24" height="24"/>
</g>
</svg>
