<?xml version="1.0" encoding="utf-8"?>
<!-- Generator: Adobe Illustrator 19.2.0, SVG Export Plug-In . SVG Version: 6.00 Build 0)  -->
<svg version="1.1" xmlns="http://www.w3.org/2000/svg" xmlns:xlink="http://www.w3.org/1999/xlink" x="0px" y="0px" width="24px"
	 height="24px" viewBox="0 0 24 24" enable-background="new 0 0 24 24" xml:space="preserve">
<g id="Filled_Icons_1_">
	<path d="M23.582,12.5l-7.15,1.199l-1.129-1.692l1.129-1.693l7.15,1.2C23.823,11.554,24,11.763,24,12.006c0-6.617-5.384-12-12-12
		c0.244,0,0.452,0.177,0.493,0.416l1.2,7.152L12,8.703l-1.694-1.128l1.201-7.152C11.547,0.183,11.756,0.006,12,0.006
		c-6.617,0-12,5.383-12,12c0-0.244,0.176-0.453,0.417-0.494l7.151-1.2l1.129,1.693l-1.129,1.692L0.417,12.5
		C0.176,12.46,0,12.25,0,12.006c0,6.616,5.383,12,12,12c-0.244,0-0.453-0.177-0.493-0.417l-1.201-7.15L12,15.31l1.693,1.128
		l-1.2,7.151c-0.041,0.241-0.249,0.417-0.493,0.417c6.616,0,12-5.384,12-12C24,12.25,23.823,12.46,23.582,12.5z M16.854,16.86
		c-0.097,0.097-0.225,0.146-0.354,0.146c-0.097,0-0.193-0.027-0.277-0.084L12,14.108l-4.223,2.814
		c-0.198,0.133-0.463,0.106-0.631-0.062c-0.169-0.168-0.195-0.434-0.063-0.631l2.814-4.223L7.084,7.783
		c-0.132-0.197-0.107-0.462,0.063-0.63C7.315,6.984,7.579,6.957,7.777,7.09L12,9.905l4.223-2.815
		c0.196-0.133,0.461-0.106,0.631,0.063c0.168,0.168,0.194,0.433,0.063,0.63l-2.815,4.223l2.815,4.223
		C17.048,16.427,17.022,16.692,16.854,16.86z"/>
</g>
<g id="invisible_shape">
	<rect fill="none" width="24" height="24"/>
</g>
</svg>
