<?xml version="1.0" encoding="utf-8"?>
<!-- Generator: Adobe Illustrator 19.2.0, SVG Export Plug-In . SVG Version: 6.00 Build 0)  -->
<svg version="1.1" xmlns="http://www.w3.org/2000/svg" xmlns:xlink="http://www.w3.org/1999/xlink" x="0px" y="0px" width="24px"
	 height="24px" viewBox="0 0 24 24" enable-background="new 0 0 24 24" xml:space="preserve">
<g id="Filled_Icons_1_">
	<g>
		<path d="M18.866,11.604c-0.149-0.159-0.385-0.204-0.579-0.111L12,14.454l-6.287-2.961c-0.195-0.092-0.43-0.048-0.579,0.111
			C4.985,11.763,4.957,12,5.064,12.189l6.5,11.563c0.088,0.157,0.255,0.254,0.436,0.254s0.347-0.098,0.436-0.254l6.5-11.563
			C19.042,12,19.014,11.763,18.866,11.604z"/>
		<path d="M12.031,0.006c-3.308,0-6,2.691-6,6c0,3.31,2.692,6,6,6c3.309,0,6-2.69,6-6C18.031,2.698,15.34,0.006,12.031,0.006z
			 M12,9.006c-0.919,0-1.682-0.752-1.737-1.71c-0.016-0.275,0.194-0.513,0.47-0.528c0.273-0.014,0.513,0.194,0.528,0.47
			C11.285,7.669,11.61,8.006,12,8.006c0.409,0,0.742-0.37,0.742-0.825c0-0.571-0.386-0.714-0.927-0.857
			c-1.285-0.336-1.554-1.16-1.554-1.792c0-1.008,0.781-1.827,1.74-1.827c0.918,0,1.683,0.752,1.739,1.711
			c0.017,0.275-0.194,0.512-0.469,0.528c-0.292,0.01-0.513-0.193-0.529-0.469c-0.026-0.432-0.352-0.77-0.741-0.77
			c-0.408,0-0.74,0.371-0.74,0.827c0,0.571,0.383,0.71,0.926,0.857c1.285,0.334,1.555,1.159,1.555,1.792
			C13.742,8.188,12.96,9.006,12,9.006z"/>
	</g>
</g>
<g id="invisible_shape">
	<rect fill="none" width="24" height="24"/>
</g>
</svg>
