<?xml version="1.0" encoding="utf-8"?>
<!-- Generator: Adobe Illustrator 19.2.0, SVG Export Plug-In . SVG Version: 6.00 Build 0)  -->
<svg version="1.1" xmlns="http://www.w3.org/2000/svg" xmlns:xlink="http://www.w3.org/1999/xlink" x="0px" y="0px" width="24px"
	 height="24px" viewBox="0 0 24 24" enable-background="new 0 0 24 24" xml:space="preserve">
<g id="Filled_Icons_1_">
	<path d="M12,0.006c-6.617,0-12,5.383-12,12c0,6.616,5.383,12,12,12c6.616,0,12-5.384,12-12C24,5.39,18.616,0.006,12,0.006z
		 M6.19,18.469c-0.173,0.074-0.395,0.042-0.544-0.108c-0.143-0.143-0.186-0.358-0.109-0.544L8.91,9.623l5.472,5.473L6.19,18.469z
		 M18.462,6.197l-3.373,8.192L9.617,8.918l8.192-3.374c0.186-0.077,0.401-0.033,0.544,0.109C18.496,5.796,18.539,6.011,18.462,6.197
		z"/>
</g>
<g id="invisible_shape">
	<rect fill="none" width="24" height="24"/>
</g>
</svg>
