<?xml version="1.0" encoding="utf-8"?>
<!-- Generator: Adobe Illustrator 19.2.0, SVG Export Plug-In . SVG Version: 6.00 Build 0)  -->
<svg version="1.1" xmlns="http://www.w3.org/2000/svg" xmlns:xlink="http://www.w3.org/1999/xlink" x="0px" y="0px" width="24px"
	 height="24px" viewBox="0 0 24 24" enable-background="new 0 0 24 24" xml:space="preserve">
<g id="Filled_Icons">
	<g>
		<g>
			<path d="M17.5,10c2.698,0,5.062,1.438,6.383,3.582C23.952,13.063,24,12.538,24,12c0-3-1.114-5.739-2.94-7.845l-0.087,0.258
				l-1.781,3.324C19.105,7.898,18.935,8,18.752,8h-1.543l-1.486,1.486l-0.109,0.764C16.217,10.092,16.847,10,17.5,10z"/>
			<path d="M10.064,18.426L9.29,17.954C9.113,17.872,9,17.694,9,17.5v-2.268l-4.822-3.85c-0.192-0.162-0.234-0.442-0.099-0.653
				l2.252-3.5C6.423,7.086,6.582,7,6.752,7H12V4.791l-1.248-0.857C10.596,3.845,10.5,3.679,10.5,3.5s0.096-0.345,0.252-0.434
				l4.516-2.602C14.227,0.168,13.134,0,12,0C5.383,0,0,5.383,0,12c0,6.616,5.383,12,12,12c0.537,0,1.063-0.048,1.582-0.117
				C11.686,22.717,10.349,20.734,10.064,18.426z"/>
		</g>
		<path d="M17.5,11c-3.584,0-6.5,2.916-6.5,6.5s2.916,6.5,6.5,6.5s6.5-2.916,6.5-6.5S21.084,11,17.5,11z M17.5,22.003
			c-0.383,0-0.691-0.309-0.691-0.691c0-0.38,0.309-0.689,0.691-0.689c0.382,0,0.691,0.309,0.691,0.689
			C18.191,21.694,17.882,22.003,17.5,22.003z M18,18.463V19c0,0.276-0.224,0.5-0.5,0.5S17,19.276,17,19v-0.991
			c0-0.276,0.224-0.5,0.5-0.5c0.869,0,1.5-0.635,1.5-1.509c0-0.869-0.631-1.5-1.5-1.5S16,15.131,16,16c0,0.276-0.224,0.5-0.5,0.5
			S15,16.276,15,16c0-1.425,1.074-2.5,2.5-2.5S20,14.575,20,16C20,17.258,19.17,18.243,18,18.463z"/>
	</g>
</g>
<g id="invisible_shape">
	<rect fill="none" width="24" height="24"/>
</g>
</svg>
