<?xml version="1.0" encoding="utf-8"?>
<!-- Generator: Adobe Illustrator 19.2.0, SVG Export Plug-In . SVG Version: 6.00 Build 0)  -->
<svg version="1.1" xmlns="http://www.w3.org/2000/svg" xmlns:xlink="http://www.w3.org/1999/xlink" x="0px" y="0px" width="24px"
	 height="24px" viewBox="0 0 24 24" enable-background="new 0 0 24 24" xml:space="preserve">
<g id="Filled_Icons_1_">
	<g>
		<path d="M12,23.5v-4.191l-2.71-1.355C9.113,17.872,9,17.694,9,17.5v-2.268l-4.822-3.85c-0.192-0.162-0.234-0.442-0.099-0.653
			l2.252-3.5C6.423,7.086,6.582,7,6.752,7H12V4.791l-1.248-0.857C10.596,3.845,10.5,3.679,10.5,3.5s0.096-0.345,0.252-0.434
			l4.516-2.602C14.227,0.168,13.134,0,12,0C5.383,0,0,5.383,0,12c0,6.616,5.383,12,12,12c0.031,0,0.06-0.004,0.091-0.005
			C12.036,23.839,12,23.674,12,23.5z"/>
		<path d="M18.5,10c2.313,0,4.223,1.753,4.472,4H23.5c0.102,0,0.201,0.011,0.297,0.03C23.915,13.368,24,12.695,24,12
			c0-3-1.114-5.739-2.94-7.845l-0.087,0.258l-1.781,3.324C19.105,7.898,18.935,8,18.752,8h-1.543l-1.486,1.486L15.577,10.5h0.903
			C17.09,10.19,17.77,10,18.5,10z"/>
		<path d="M23.5,15H22v-0.5c0-1.929-1.57-3.5-3.5-3.5S15,12.571,15,14.5V15h-1.5c-0.276,0-0.5,0.224-0.5,0.5v8
			c0,0.276,0.224,0.5,0.5,0.5h10c0.276,0,0.5-0.224,0.5-0.5v-8C24,15.224,23.776,15,23.5,15z M19,19.348V21
			c0,0.276-0.224,0.5-0.5,0.5S18,21.276,18,21v-1.652c-0.293-0.176-0.5-0.483-0.5-0.848c0-0.551,0.448-1,1-1s1,0.449,1,1
			C19.5,18.865,19.293,19.172,19,19.348z M21,15h-5v-0.5c0-1.378,1.121-2.5,2.5-2.5s2.5,1.122,2.5,2.5V15z"/>
	</g>
</g>
<g id="invisible_shape">
	<rect fill="none" width="24" height="24"/>
</g>
</svg>
