<?xml version="1.0" encoding="utf-8"?>
<!-- Generator: Adobe Illustrator 19.2.0, SVG Export Plug-In . SVG Version: 6.00 Build 0)  -->
<svg version="1.1" xmlns="http://www.w3.org/2000/svg" xmlns:xlink="http://www.w3.org/1999/xlink" x="0px" y="0px" width="24px"
	 height="24px" viewBox="0 0 24 24" enable-background="new 0 0 24 24" xml:space="preserve">
<g id="Filled_Icons">
	<g>
		<g>
			<path d="M17.974,10.845l0.649,1.948l1.317-1.317c0.563-0.563,1.558-0.563,2.121,0l1.86,1.861C23.97,12.898,24,12.454,24,12.003
				c0-3-1.114-5.739-2.94-7.844l-0.087,0.257L19.192,7.74c-0.087,0.163-0.257,0.263-0.44,0.263h-1.543l-1.486,1.486l-0.146,1.014
				H17.5C17.715,10.503,17.906,10.64,17.974,10.845z"/>
			<path d="M11.056,23.125c0,0,1.1-3.72,1.103-3.729l-2.869-1.44C9.113,17.875,9,17.697,9,17.503v-2.267l-4.822-3.85
				c-0.192-0.162-0.234-0.442-0.099-0.653l2.252-3.5c0.092-0.144,0.251-0.23,0.421-0.23H12V4.794l-1.248-0.857
				C10.596,3.848,10.5,3.682,10.5,3.503c0-0.179,0.096-0.344,0.252-0.434l4.516-2.602C14.227,0.171,13.134,0.003,12,0.003
				c-6.617,0-12,5.384-12,12c0,6.3,4.884,11.471,11.063,11.954C10.985,23.688,10.977,23.402,11.056,23.125z"/>
		</g>
		<g>
			<rect x="14.109" y="16.233" transform="matrix(0.7072 -0.7071 0.7071 0.7072 -7.9571 17.7906)" width="6.78" height="4.535"/>
			<path d="M23.854,14.646l-2.5-2.5c-0.195-0.195-0.512-0.195-0.707,0l-1.647,1.648l3.207,3.207l1.647-1.647
				C24.049,15.159,24.049,14.842,23.854,14.646z"/>
			<path d="M15.846,23.067l-2.917-2.917l-0.911,3.226c-0.046,0.168-0.011,0.353,0.121,0.485c0.131,0.13,0.315,0.166,0.483,0.122
				L15.846,23.067z"/>
		</g>
	</g>
</g>
<g id="invisible_shape">
	<rect fill="none" width="24" height="24"/>
</g>
</svg>
