<?xml version="1.0" encoding="utf-8"?>
<!-- Generator: Adobe Illustrator 19.2.0, SVG Export Plug-In . SVG Version: 6.00 Build 0)  -->
<svg version="1.1" xmlns="http://www.w3.org/2000/svg" xmlns:xlink="http://www.w3.org/1999/xlink" x="0px" y="0px" width="24px"
	 height="24px" viewBox="0 0 24 24" enable-background="new 0 0 24 24" xml:space="preserve">
<g id="Filled_Icons_1_">
	<g>
		<path d="M11.512,17.486c4.687,0,8.5-3.813,8.5-8.5c0-4.688-3.813-8.5-8.5-8.5c-4.687,0-8.5,3.812-8.5,8.5
			C3.012,13.672,6.824,17.486,11.512,17.486z"/>
		<path d="M19.644,17.119c4.364-4.366,4.468-11.388,0.335-15.894l0.373-0.373c0.195-0.195,0.195-0.511,0-0.706
			c-0.195-0.196-0.512-0.196-0.708,0L18.23,1.561c-0.195,0.196-0.195,0.512,0,0.708c0.097,0.097,0.226,0.146,0.353,0.146
			c0.128,0,0.256-0.049,0.354-0.146l0.335-0.336c3.743,4.116,3.638,10.504-0.335,14.479c-3.975,3.974-10.363,4.077-14.479,0.336
			l0.336-0.336c0.195-0.196,0.195-0.513,0-0.709c-0.195-0.195-0.512-0.195-0.707,0l-1.414,1.417c-0.195,0.193-0.195,0.51,0,0.705
			c0.098,0.099,0.226,0.148,0.354,0.148c0.127,0,0.255-0.049,0.353-0.148l0.371-0.372c1.929,1.771,4.313,2.768,6.76,2.98v0.605
			c-1.91,0.182-3.719,0.877-5.282,2.047c-0.172,0.129-0.243,0.354-0.175,0.559c0.068,0.205,0.26,0.342,0.475,0.342h11.964
			c0.214,0,0.406-0.138,0.475-0.342c0.067-0.205-0.003-0.429-0.175-0.559c-1.563-1.17-3.374-1.865-5.282-2.047v-0.605
			C15.114,20.206,17.656,19.105,19.644,17.119z"/>
	</g>
</g>
<g id="invisible_shape">
	<rect fill="none" width="24" height="24"/>
</g>
</svg>
