<?xml version="1.0" encoding="utf-8"?>
<!-- Generator: Adobe Illustrator 19.2.0, SVG Export Plug-In . SVG Version: 6.00 Build 0)  -->
<svg version="1.1" xmlns="http://www.w3.org/2000/svg" xmlns:xlink="http://www.w3.org/1999/xlink" x="0px" y="0px" width="24px"
	 height="24px" viewBox="0 0 24 24" enable-background="new 0 0 24 24" xml:space="preserve">
<g id="Filled_Icons_1_">
	<g>
		<g>
			<path d="M17.5,10c2.698,0,5.062,1.438,6.383,3.582C23.952,13.063,24,12.538,24,12c0-3-1.114-5.739-2.94-7.845l-0.087,0.258
				l-1.781,3.324C19.105,7.898,18.935,8,18.752,8h-1.543l-1.486,1.486l-0.109,0.764C16.217,10.092,16.847,10,17.5,10z"/>
			<path d="M10.064,18.426L9.29,17.954C9.113,17.872,9,17.694,9,17.5v-2.268l-4.822-3.85c-0.192-0.162-0.234-0.442-0.099-0.653
				l2.252-3.5C6.423,7.086,6.582,7,6.752,7H12V4.791l-1.248-0.857C10.596,3.845,10.5,3.679,10.5,3.5s0.096-0.345,0.252-0.434
				l4.516-2.602C14.227,0.168,13.134,0,12,0C5.383,0,0,5.383,0,12c0,6.616,5.383,12,12,12c0.537,0,1.063-0.048,1.582-0.117
				C11.686,22.717,10.349,20.734,10.064,18.426z"/>
		</g>
		<path d="M17.5,11c-3.584,0-6.5,2.915-6.5,6.5c0,3.584,2.916,6.5,6.5,6.5s6.5-2.916,6.5-6.5C24,13.915,21.084,11,17.5,11z
			 M17.5,16.929c1.042,0,1.891,0.848,1.891,1.892c0,0.867-0.592,1.594-1.391,1.814v0.504c0,0.276-0.224,0.5-0.5,0.5
			s-0.5-0.224-0.5-0.5v-0.504c-0.799-0.221-1.391-0.947-1.391-1.814c0-0.277,0.224-0.5,0.5-0.5c0.276,0,0.5,0.223,0.5,0.5
			c0,0.491,0.399,0.89,0.891,0.89s0.891-0.398,0.891-0.89c0-0.492-0.399-0.892-0.891-0.892c-1.043,0-1.891-0.848-1.891-1.892
			c0-0.867,0.592-1.593,1.391-1.814V13.72c0-0.276,0.224-0.5,0.5-0.5s0.5,0.224,0.5,0.5v0.503c0.799,0.221,1.391,0.947,1.391,1.814
			c0,0.277-0.224,0.5-0.5,0.5c-0.276,0-0.5-0.223-0.5-0.5c0-0.49-0.399-0.89-0.891-0.89s-0.891,0.4-0.891,0.89
			C16.609,16.529,17.009,16.929,17.5,16.929z"/>
	</g>
</g>
<g id="invisible_shape">
	<rect fill="none" width="24" height="24"/>
</g>
</svg>
