<?xml version="1.0" encoding="utf-8"?>
<!-- Generator: Adobe Illustrator 19.2.0, SVG Export Plug-In . SVG Version: 6.00 Build 0)  -->
<svg version="1.1" xmlns="http://www.w3.org/2000/svg" xmlns:xlink="http://www.w3.org/1999/xlink" x="0px" y="0px" width="24px"
	 height="24px" viewBox="0 0 24 24" enable-background="new 0 0 24 24" xml:space="preserve">
<g id="Filled_Icons_1_">
	<g>
		<g>
			<path d="M17.5,10.006c2.698,0,5.062,1.438,6.383,3.582C23.952,13.069,24,12.544,24,12.006c0-3-1.114-5.739-2.94-7.845
				l-0.087,0.258l-1.781,3.324c-0.087,0.162-0.257,0.263-0.44,0.263h-1.543l-1.486,1.486l-0.109,0.764
				C16.217,10.099,16.847,10.006,17.5,10.006z"/>
			<path d="M10.064,18.432L9.29,17.96C9.113,17.878,9,17.701,9,17.506v-2.267l-4.822-3.85c-0.192-0.162-0.234-0.442-0.099-0.653
				l2.252-3.5c0.092-0.144,0.251-0.23,0.421-0.23H12V4.797L10.752,3.94C10.596,3.852,10.5,3.685,10.5,3.506s0.096-0.345,0.252-0.434
				l4.516-2.602C14.227,0.174,13.134,0.006,12,0.006c-6.617,0-12,5.383-12,12c0,6.616,5.383,12,12,12
				c0.537,0,1.063-0.048,1.582-0.117C11.686,22.723,10.349,20.741,10.064,18.432z"/>
		</g>
		<path d="M17.5,11c-3.584,0-6.5,2.915-6.5,6.5c0,3.584,2.916,6.5,6.5,6.5s6.5-2.916,6.5-6.5C24,13.915,21.084,11,17.5,11z
			 M20.227,18H18v2.228c0,0.277-0.224,0.5-0.5,0.5s-0.5-0.223-0.5-0.5V18h-2.227c-0.276,0-0.5-0.224-0.5-0.5
			c0-0.277,0.224-0.5,0.5-0.5H17v-2.226c0-0.277,0.224-0.5,0.5-0.5s0.5,0.223,0.5,0.5V17h2.227c0.276,0,0.5,0.223,0.5,0.5
			C20.727,17.776,20.503,18,20.227,18z"/>
	</g>
</g>
<g id="invisible_shape">
	<rect fill="none" width="24" height="24"/>
</g>
</svg>
