<?xml version="1.0" encoding="utf-8"?>
<!-- Generator: Adobe Illustrator 19.2.0, SVG Export Plug-In . SVG Version: 6.00 Build 0)  -->
<svg version="1.1" xmlns="http://www.w3.org/2000/svg" xmlns:xlink="http://www.w3.org/1999/xlink" x="0px" y="0px" width="24px"
	 height="24px" viewBox="0 0 24 24" enable-background="new 0 0 24 24" xml:space="preserve">
<g id="Filled_Icons">
	<g>
		<g>
			<path d="M17.5,10c2.698,0,5.062,1.438,6.383,3.582C23.952,13.063,24,12.538,24,12c0-3-1.114-5.739-2.94-7.845l-0.087,0.258
				l-1.781,3.324C19.105,7.898,18.935,8,18.752,8h-1.543l-1.486,1.486l-0.109,0.764C16.217,10.092,16.847,10,17.5,10z"/>
			<path d="M10.064,18.426L9.29,17.954C9.113,17.872,9,17.694,9,17.5v-2.268l-4.822-3.85c-0.192-0.162-0.234-0.442-0.099-0.653
				l2.252-3.5C6.423,7.086,6.582,7,6.752,7H12V4.791l-1.248-0.857C10.596,3.845,10.5,3.679,10.5,3.5s0.096-0.345,0.252-0.434
				l4.516-2.602C14.227,0.168,13.134,0,12,0C5.383,0,0,5.383,0,12c0,6.616,5.383,12,12,12c0.537,0,1.063-0.048,1.582-0.117
				C11.686,22.717,10.349,20.734,10.064,18.426z"/>
		</g>
		<path d="M17.5,24c3.59,0,6.5-2.91,6.5-6.5c0-3.589-2.91-6.5-6.5-6.5S11,13.911,11,17.5C11,21.09,13.91,24,17.5,24z M15,18
			c0.195-0.195,0.512-0.195,0.707,0L17,19.293V14.5c0-0.276,0.224-0.5,0.5-0.5s0.5,0.224,0.5,0.5v4.793L19.293,18
			c0.195-0.195,0.512-0.195,0.707,0s0.195,0.512,0,0.706l-2.146,2.148c-0.195,0.194-0.512,0.194-0.707,0L15,18.706
			C14.805,18.512,14.805,18.195,15,18z"/>
	</g>
</g>
<g id="invisible_shape">
	<rect fill="none" width="24" height="24"/>
</g>
</svg>
