<?xml version="1.0" encoding="utf-8"?>
<!-- Generator: Adobe Illustrator 19.2.0, SVG Export Plug-In . SVG Version: 6.00 Build 0)  -->
<svg version="1.1" xmlns="http://www.w3.org/2000/svg" xmlns:xlink="http://www.w3.org/1999/xlink" x="0px" y="0px" width="24px"
	 height="24px" viewBox="0 0 24 24" enable-background="new 0 0 24 24" xml:space="preserve">
<g id="Filled_Icons">
	<g>
		<path d="M14,23.261c-0.167-0.087-0.33-0.182-0.487-0.282c-0.997,0.576-1.873,0.249-2.261-0.436l-1.496-2.592
			c-0.295-0.509-0.286-1.169,0.142-1.694C9.493,18.055,9,17.913,9,17.5v-2.268l-4.822-3.85c-0.192-0.162-0.234-0.442-0.099-0.653
			l2.252-3.5C6.423,7.086,6.582,7,6.752,7H12V4.79l-1.248-0.856C10.596,3.845,10.5,3.679,10.5,3.5c0-0.18,0.096-0.345,0.252-0.434
			l4.516-2.602C14.227,0.168,13.134,0,12,0C5.383,0,0,5.383,0,12c0,6.616,5.383,12,12,12c0.695,0,1.37-0.078,2.031-0.196
			C13.991,23.611,14,23.465,14,23.261z"/>
		<path d="M18.5,10c0.817,0,1.5,0.583,1.5,1.74c0.167,0.087,0.331,0.182,0.49,0.283c0.99-0.573,1.864-0.253,2.257,0.43l1.025,1.775
			C23.913,13.505,24,12.764,24,12c0-3-1.114-5.739-2.94-7.845l-0.087,0.258l-1.781,3.323C19.105,7.898,18.935,8,18.752,8h-1.543
			l-1.486,1.486L15.649,10H18.5z"/>
		<path d="M23.195,18.769l-0.765-0.442c0.093-0.613,0.092-1.044,0.001-1.652l0.766-0.442c0.234-0.133,0.324-0.438,0.183-0.683
			l-1.5-2.599c-0.138-0.239-0.443-0.322-0.683-0.182l-0.765,0.441c-0.43-0.345-0.912-0.624-1.433-0.828V11.5
			c0-0.276-0.224-0.5-0.5-0.5h-3c-0.276,0-0.5,0.224-0.5,0.5v0.882c-0.521,0.204-1.003,0.483-1.433,0.828l-0.765-0.441
			c-0.237-0.138-0.545-0.057-0.683,0.182l-1.5,2.599c-0.142,0.245-0.052,0.55,0.183,0.683l0.766,0.442
			c-0.091,0.608-0.092,1.04,0.001,1.652l-0.765,0.442c-0.239,0.138-0.321,0.443-0.183,0.682l1.5,2.599
			c0.137,0.241,0.446,0.32,0.683,0.183l0.765-0.442c0.429,0.344,0.911,0.624,1.431,0.828V23.5c0,0.276,0.224,0.5,0.5,0.5h3
			c0.276,0,0.5-0.224,0.5-0.5v-0.881c0.52-0.205,1.002-0.484,1.431-0.828l0.765,0.442c0.237,0.138,0.546,0.058,0.683-0.183
			l1.5-2.599C23.517,19.212,23.435,18.907,23.195,18.769z M17,20c-1.379,0-2.5-1.121-2.5-2.5S15.621,15,17,15s2.5,1.121,2.5,2.5
			S18.379,20,17,20z"/>
	</g>
</g>
<g id="invisible_shape">
	<rect fill="none" width="24" height="24"/>
</g>
</svg>
