<?xml version="1.0" encoding="utf-8"?>
<!-- Generator: Adobe Illustrator 19.2.0, SVG Export Plug-In . SVG Version: 6.00 Build 0)  -->
<svg version="1.1" xmlns="http://www.w3.org/2000/svg" xmlns:xlink="http://www.w3.org/1999/xlink" x="0px" y="0px" width="24px"
	 height="24px" viewBox="0 0 24 24" enable-background="new 0 0 24 24" xml:space="preserve">
<g id="Filled_Icons">
	<g>
		<path d="M18.921,21.587c0.993-0.269,1.99-0.7,2.752-1.413C22.554,19.351,23,18.283,23,17c0-0.133-0.053-0.26-0.146-0.354
			l-1.281-1.281l-0.001,0l-0.001-0.002l-1.717-1.716c-0.024-0.024-0.055-0.036-0.082-0.054c2.399-2.749,2.299-6.922-0.322-9.543
			c-1.284-1.284-2.943-1.957-4.626-2.034c-0.007,0-0.015-0.001-0.022-0.001c-1.228-0.053-2.467,0.21-3.581,0.801l0.002,0
			c-0.005,0.002-0.009,0.005-0.013,0.008V2.822C10.75,3.067,10.32,3.383,9.914,3.737c-0.02-0.031-0.033-0.064-0.061-0.091
			L8.139,1.932c-0.001,0-0.001-0.002-0.002-0.003C8.136,1.928,8.135,1.928,8.134,1.927l-0.78-0.78c-0.195-0.195-0.512-0.195-0.707,0
			s-0.195,0.512,0,0.707L7.093,2.3C5.423,4.142,4.5,6.498,4.5,9c0,2.671,1.04,5.183,2.93,7.071C9.318,17.96,11.829,19,14.5,19
			c2.503,0,4.858-0.923,6.7-2.593l0.795,0.795c-0.042,0.913-0.371,1.647-1.004,2.24c-1.547,1.449-4.438,1.576-5.526,1.569
			C15.311,21.007,15.157,21,15,21c-3.866,0-7,1.619-7,3h14C22,23.139,20.778,22.184,18.921,21.587z M11.5,5.5
			c-0.215,0.644-0.477,0.936-1,0.5c-0.299-0.248-0.235-0.819-0.058-1.41C11.553,3.566,12.981,3,14.5,3
			c0.322,0,0.639,0.032,0.951,0.082c0.147,0.414,0.22,0.907,0.049,1.418c-1.075,0.644-1.215,2.215-1,2c0.215-0.216,1,0.5,1,0.5
			C15.932,7,16,6.5,16,6.5c1.076,0.001,0.786,2.286,1,2.5c0.216,0.216,0.999-0.148,1,0.5c-0.001,0.644-0.5,1-0.5,1
			c1.078,1.077,0.214,2.286,0,2.5c-0.217,0.216-1.283-0.284-1.5-0.5c-0.214-0.214-0.283-0.783-0.5-1c-0.214-0.214-1,0-1,0
			c-0.859-0.862-1.354-0.146-2,0.5c-0.646,0.646-1.5,0-1.5,0s-1.359-1.71-0.5-3c0.861-1.293,1-1,1-1c0.859,0,1.07-1.069,1.5-1.5
			C13,6.5,11.717,4.853,11.5,5.5z M14.5,18c-2.404,0-4.664-0.936-6.363-2.635C6.437,13.665,5.5,11.404,5.5,9
			c0-2.235,0.819-4.341,2.3-5.993l1.347,1.347C9.17,4.378,9.2,4.389,9.227,4.407c-2.399,2.75-2.294,6.924,0.322,9.543
			c2.62,2.62,6.793,2.722,9.542,0.322c0.019,0.027,0.03,0.057,0.055,0.082l1.347,1.347C18.841,17.182,16.736,18,14.5,18z"/>
	</g>
</g>
<g id="invisible_shape">
	<rect fill="none" width="24" height="24"/>
</g>
</svg>
