<?xml version="1.0" encoding="utf-8"?>
<!-- Generator: Adobe Illustrator 19.2.0, SVG Export Plug-In . SVG Version: 6.00 Build 0)  -->
<svg version="1.1" xmlns="http://www.w3.org/2000/svg" xmlns:xlink="http://www.w3.org/1999/xlink" x="0px" y="0px" width="24px"
	 height="24px" viewBox="0 0 24 24" enable-background="new 0 0 24 24" xml:space="preserve">
<g id="Filled_Icons">
	<g>
		<path d="M10.158,22.83l1.777-3.555L9.29,17.947C9.113,17.866,9,17.688,9,17.494v-2.268l-4.822-3.843
			c-0.192-0.162-0.234-0.442-0.099-0.653l2.252-3.5C6.423,7.086,6.582,7,6.752,7H12V4.791l-1.248-0.857
			C10.596,3.845,10.5,3.679,10.5,3.5s0.096-0.345,0.252-0.434l4.516-2.602C14.227,0.168,13.134,0,12,0C5.383,0,0,5.383,0,12
			c0,5.948,4.357,10.879,10.044,11.818C9.972,23.489,10.002,23.144,10.158,22.83z"/>
		<path d="M17.5,10.023c0.578,0,1.091,0.309,1.341,0.804l3.559,7.119C23.409,16.19,24,14.165,24,12c0-3-1.114-5.739-2.94-7.845
			l-0.087,0.258l-1.781,3.324C19.105,7.898,18.935,8,18.752,8h-1.543l-1.486,1.486L15.577,10.5h0.811
			C16.665,10.199,17.063,10.023,17.5,10.023z"/>
		<path d="M23.947,23.276l-6-12c-0.17-0.338-0.725-0.338-0.895,0l-6,12C10.887,23.61,11.128,24,11.5,24h12
			C23.872,24,24.113,23.61,23.947,23.276z M17.5,22c-0.276,0-0.5-0.224-0.5-0.5s0.224-0.5,0.5-0.5s0.5,0.224,0.5,0.5
			S17.776,22,17.5,22z M18,20c0,0.276-0.224,0.5-0.5,0.5S17,20.276,17,20v-3.5c0-0.276,0.224-0.5,0.5-0.5s0.5,0.224,0.5,0.5V20z"/>
	</g>
</g>
<g id="invisible_shape">
	<rect fill="none" width="24" height="24"/>
</g>
</svg>
