<?xml version="1.0" encoding="utf-8"?>
<!-- Generator: Adobe Illustrator 19.2.0, SVG Export Plug-In . SVG Version: 6.00 Build 0)  -->
<svg version="1.1" xmlns="http://www.w3.org/2000/svg" xmlns:xlink="http://www.w3.org/1999/xlink" x="0px" y="0px" width="24px"
	 height="24px" viewBox="0 0 24 24" enable-background="new 0 0 24 24" xml:space="preserve">
<g id="Filled_Icons_1_">
	<path d="M11.5,0.006c-5.416,0-9.5,4.298-9.5,10c0,7.173,8.831,13.634,9.207,13.905c0.087,0.064,0.191,0.095,0.293,0.095
		s0.206-0.031,0.293-0.095C12.168,23.64,21,17.179,21,10.006C21,4.305,16.916,0.006,11.5,0.006z M15.121,14.36
		c0.195,0.195,0.195,0.512,0,0.706c-0.098,0.099-0.226,0.148-0.354,0.148c-0.128,0-0.256-0.049-0.354-0.148l-2.873-2.872
		l-2.862,2.862c-0.098,0.098-0.226,0.146-0.354,0.146s-0.256-0.049-0.353-0.146c-0.195-0.195-0.195-0.512,0-0.707l2.861-2.862
		l-0.78-0.781C9.57,11.046,9,11.234,8.398,11.234c-0.771,0-1.496-0.301-2.041-0.846L4.669,8.699c-0.195-0.195-0.195-0.511,0-0.707
		c0.195-0.195,0.512-0.195,0.707,0l1.688,1.689c0.591,0.59,1.542,0.684,2.259,0.296L6.357,7.011c-0.195-0.195-0.195-0.511,0-0.706
		c0.195-0.196,0.512-0.196,0.707,0l2.97,2.969c0.407-0.72,0.313-1.65-0.3-2.263L8.046,5.322c-0.195-0.194-0.195-0.511,0-0.707
		c0.195-0.195,0.512-0.195,0.707,0l1.688,1.69c1.005,1.004,1.107,2.568,0.318,3.694l0.781,0.782l5.336-5.336
		c0.094-0.093,0.221-0.147,0.354-0.147c0.133,0,0.26,0.053,0.354,0.147c1.168,1.168-0.38,4.464-2.544,6.63
		c-0.188,0.186-0.52,0.188-0.707,0l-1.336-1.336l-0.748,0.749L15.121,14.36z"/>
</g>
<g id="invisible_shape">
	<rect fill="none" width="24" height="24"/>
</g>
</svg>
