<?xml version="1.0" encoding="utf-8"?>
<!-- Generator: Adobe Illustrator 19.2.0, SVG Export Plug-In . SVG Version: 6.00 Build 0)  -->
<svg version="1.1" xmlns="http://www.w3.org/2000/svg" xmlns:xlink="http://www.w3.org/1999/xlink" x="0px" y="0px" width="24px"
	 height="24px" viewBox="0 0 24 24" enable-background="new 0 0 24 24" xml:space="preserve">
<g id="Filled_Icons_1_">
	<g>
		<path d="M18.5,12c0.148,0,0.289-0.066,0.384-0.18C19.305,11.316,23,6.823,23,4.5C23,2.019,20.981,0,18.5,0S14,2.019,14,4.5
			c0,2.323,3.695,6.816,4.116,7.32C18.211,11.934,18.352,12,18.5,12z M16.5,4.5c0-1.103,0.897-2,2-2s2,0.897,2,2
			c0,1.102-0.897,2-2,2S16.5,5.602,16.5,4.5z"/>
		<polygon points="8.502,10.206 1.707,17 15.349,17 		"/>
		<path d="M18.5,13c-0.447,0-0.867-0.197-1.152-0.54c-0.889-1.064-3.531-4.38-4.193-6.907L9.208,9.498L16.769,17H21v-6.26
			c-0.553,0.75-1.05,1.364-1.349,1.722C19.367,12.803,18.947,13,18.5,13z"/>
		<path d="M12.293,5H2C0.897,5,0,5.938,0,7.09V17h0.293L12.293,5z"/>
		<path d="M0,19.911C0,21.063,0.897,22,2,22h8v1H4c-0.276,0-0.5,0.224-0.5,0.5S3.724,24,4,24h13c0.276,0,0.5-0.224,0.5-0.5
			S17.276,23,17,23h-6v-1h8c1.103,0,2-0.937,2-2.089V18H0V19.911z M10.5,18.5c0.551,0,1,0.449,1,1s-0.449,1-1,1s-1-0.449-1-1
			S9.949,18.5,10.5,18.5z"/>
	</g>
</g>
<g id="invisible_shape">
	<rect fill="none" width="24" height="24"/>
</g>
</svg>
