<?xml version="1.0" encoding="utf-8"?>
<!-- Generator: Adobe Illustrator 19.2.0, SVG Export Plug-In . SVG Version: 6.00 Build 0)  -->
<svg version="1.1" xmlns="http://www.w3.org/2000/svg" xmlns:xlink="http://www.w3.org/1999/xlink" x="0px" y="0px" width="24px"
	 height="24px" viewBox="0 0 24 24" enable-background="new 0 0 24 24" xml:space="preserve">
<g id="Filled_Icons_1_">
	<g>
		<circle cx="12" cy="3.506" r="3.5"/>
		<path d="M10,14.54v3.967c0,0.275,0.224,0.5,0.5,0.5h3c0.275,0,0.5-0.225,0.5-0.5V14.54c1.951-0.934,3-3.734,3-6.033
			c0-0.277-0.225-0.5-0.5-0.5h-9c-0.276,0-0.5,0.223-0.5,0.5C7,10.805,8.048,13.606,10,14.54z"/>
		<path d="M12,20.506c-4.015,0-6.366-0.821-6.502-1.239c0.035-0.111,0.574-0.603,2.581-0.954c0.272-0.046,0.454-0.307,0.406-0.58
			c-0.047-0.272-0.309-0.454-0.578-0.405C5.647,17.724,4.5,18.373,4.5,19.256c0,1.776,4.714,2.25,7.5,2.25
			c2.785,0,7.5-0.474,7.5-2.25c0-0.882-1.142-1.531-3.394-1.926c-0.27-0.048-0.531,0.134-0.579,0.406
			c-0.048,0.272,0.134,0.531,0.406,0.58c1.997,0.351,2.533,0.84,2.567,0.929C18.366,19.685,16.014,20.506,12,20.506z"/>
		<path d="M16.066,15.259c-0.275-0.035-0.523,0.159-0.56,0.433c-0.035,0.273,0.158,0.523,0.432,0.559
			C20.574,16.85,23,18.342,23,19.506c0,1.655-4.518,3.5-11,3.5s-11-1.845-11-3.5c0-1.165,2.426-2.657,7.064-3.256
			c0.273-0.035,0.467-0.286,0.432-0.559c-0.036-0.274-0.285-0.469-0.56-0.433C4.099,15.754,0,17.13,0,19.506
			c0,2.181,4.205,4.5,12,4.5c7.794,0,12-2.319,12-4.5C24,17.13,19.901,15.754,16.066,15.259z"/>
	</g>
</g>
<g id="invisible_shape">
	<rect fill="none" width="24" height="24"/>
</g>
</svg>
