<?xml version="1.0" encoding="utf-8"?>
<!-- Generator: Adobe Illustrator 19.2.0, SVG Export Plug-In . SVG Version: 6.00 Build 0)  -->
<svg version="1.1" xmlns="http://www.w3.org/2000/svg" xmlns:xlink="http://www.w3.org/1999/xlink" x="0px" y="0px" width="24px"
	 height="24px" viewBox="0 0 24 24" enable-background="new 0 0 24 24" xml:space="preserve">
<g id="Filled_Icons_1_">
	<path d="M11.5,0.006c-5.416,0-9.5,4.298-9.5,10c0,7.173,8.831,13.634,9.207,13.905c0.087,0.064,0.191,0.095,0.293,0.095
		s0.205-0.031,0.293-0.095C12.168,23.64,21,17.179,21,10.006C21,4.305,16.916,0.006,11.5,0.006z M15.354,12.652
		c0.195,0.196,0.195,0.513,0,0.708c-0.098,0.097-0.226,0.146-0.354,0.146s-0.256-0.049-0.354-0.146L11.5,10.213L8.354,13.36
		C8.256,13.458,8.128,13.506,8,13.506s-0.256-0.049-0.353-0.146c-0.195-0.195-0.195-0.512,0-0.708l3.147-3.146L7.647,6.36
		c-0.195-0.195-0.195-0.512,0-0.708c0.195-0.195,0.512-0.195,0.707,0L11.5,8.799l3.146-3.147c0.195-0.195,0.512-0.195,0.707,0
		c0.195,0.196,0.195,0.513,0,0.708l-3.147,3.146L15.354,12.652z"/>
</g>
<g id="invisible_shape">
	<rect fill="none" width="24" height="24"/>
</g>
</svg>
