<?xml version="1.0" encoding="utf-8"?>
<!-- Generator: Adobe Illustrator 19.2.0, SVG Export Plug-In . SVG Version: 6.00 Build 0)  -->
<svg version="1.1" xmlns="http://www.w3.org/2000/svg" xmlns:xlink="http://www.w3.org/1999/xlink" x="0px" y="0px" width="24px"
	 height="24px" viewBox="0 0 24 24" enable-background="new 0 0 24 24" xml:space="preserve">
<g id="Filled_Icons_1_">
	<g>
		<circle cx="13.5" cy="10.516" r="0.5"/>
		<circle cx="9.5" cy="10.516" r="0.5"/>
		<path d="M11.5,0C6.084,0,2,4.298,2,10c0,7.173,8.831,13.634,9.207,13.905C11.294,23.969,11.398,24,11.5,24
			s0.206-0.031,0.293-0.095C12.168,23.634,21,17.173,21,10C21,4.298,16.916,0,11.5,0z M7,5.5C7,4.672,7.673,4,8.5,4h6
			C15.327,4,16,4.672,16,5.5V6H7V5.5z M7,7h9v1H7V7z M16.31,15.394C16.218,15.464,16.108,15.5,16,15.5
			c-0.148,0-0.294-0.065-0.393-0.19L13.789,13H9.243l-1.819,2.31c-0.099,0.125-0.245,0.19-0.393,0.19
			c-0.108,0-0.217-0.036-0.309-0.106c-0.217-0.171-0.254-0.486-0.083-0.704L7.97,13H7.5C7.224,13,7,12.776,7,12.5V9h9v3.5
			c0,0.276-0.224,0.5-0.5,0.5h-0.439l1.331,1.69C16.563,14.907,16.526,15.223,16.31,15.394z"/>
	</g>
</g>
<g id="invisible_shape">
	<rect fill="none" width="24" height="24"/>
</g>
</svg>
