<?xml version="1.0" encoding="utf-8"?>
<!-- Generator: Adobe Illustrator 19.2.0, SVG Export Plug-In . SVG Version: 6.00 Build 0)  -->
<svg version="1.1" xmlns="http://www.w3.org/2000/svg" xmlns:xlink="http://www.w3.org/1999/xlink" x="0px" y="0px" width="24px"
	 height="24px" viewBox="0 0 24 24" enable-background="new 0 0 24 24" xml:space="preserve">
<g id="Filled_Icons">
	<g>
		<path d="M7,0C2.551,0,0,2.551,0,7c0,4.258,6.327,12.929,6.597,13.295C6.69,20.425,6.841,20.5,7,20.5s0.309-0.075,0.403-0.205
			C7.672,19.929,14,11.258,14,7C14,2.551,11.448,0,7,0z"/>
		<path d="M17.5,11c-3.584,0-6.5,2.916-6.5,6.5s2.916,6.5,6.5,6.5s6.5-2.916,6.5-6.5S21.084,11,17.5,11z M20.228,18h-5.455
			c-0.276,0-0.5-0.224-0.5-0.5s0.224-0.5,0.5-0.5h5.455c0.276,0,0.5,0.224,0.5,0.5S20.504,18,20.228,18z"/>
	</g>
</g>
<g id="invisible_shape">
	<rect fill="none" width="24" height="24"/>
</g>
</svg>
