<?xml version="1.0" encoding="utf-8"?>
<!-- Generator: Adobe Illustrator 19.2.0, SVG Export Plug-In . SVG Version: 6.00 Build 0)  -->
<svg version="1.1" xmlns="http://www.w3.org/2000/svg" xmlns:xlink="http://www.w3.org/1999/xlink" x="0px" y="0px" width="24px"
	 height="24px" viewBox="0 0 24 24" enable-background="new 0 0 24 24" xml:space="preserve">
<g id="Filled_Icons_1_">
	<path d="M11.5,0c-4.962,0-9,4.038-9,9c0,4.125,2.856,7.75,6.833,8.735l1.686,5.902C11.081,23.852,11.277,24,11.5,24
		s0.419-0.148,0.481-0.363l1.686-5.902C17.645,16.75,20.5,13.125,20.5,9C20.5,4.038,16.462,0,11.5,0z M16,9.5
		c0,0.276-0.224,0.5-0.5,0.5H13v2.5c0,0.276-0.224,0.5-0.5,0.5h-2c-0.276,0-0.5-0.224-0.5-0.5V10H7.5C7.224,10,7,9.776,7,9.5v-2
		C7,7.224,7.224,7,7.5,7H10V4.5C10,4.224,10.224,4,10.5,4h2C12.776,4,13,4.224,13,4.5V7h2.5C15.776,7,16,7.224,16,7.5V9.5z"/>
</g>
<g id="invisible_shape">
	<rect fill="none" width="24" height="24"/>
</g>
</svg>
