<?xml version="1.0" encoding="utf-8"?>
<!-- Generator: Adobe Illustrator 19.2.0, SVG Export Plug-In . SVG Version: 6.00 Build 0)  -->
<svg version="1.1" xmlns="http://www.w3.org/2000/svg" xmlns:xlink="http://www.w3.org/1999/xlink" x="0px" y="0px" width="24px"
	 height="24px" viewBox="0 0 24 24" enable-background="new 0 0 24 24" xml:space="preserve">
<g id="Filled_Icons_1_">
	<g>
		<path d="M16.474,20.348c-0.087-0.262-0.368-0.404-0.632-0.315L11.5,21.479l-4.342-1.447c-0.264-0.088-0.546,0.053-0.633,0.315
			c-0.087,0.262,0.055,0.545,0.316,0.631l3.076,1.027l-3.076,1.026c-0.262,0.086-0.403,0.37-0.316,0.632
			C6.596,23.874,6.79,24.006,7,24.006c0.129,0,4.37-1.43,4.5-1.474c0.129,0.044,4.37,1.474,4.5,1.474
			c0.209,0,0.404-0.133,0.474-0.341c0.088-0.263-0.054-0.546-0.315-0.632l-3.077-1.026l3.077-1.027
			C16.42,20.894,16.562,20.61,16.474,20.348z"/>
		<path d="M7.158,17.498c2.029,1.902,4.033,2.913,4.118,2.955c0.07,0.036,0.147,0.053,0.224,0.053c0.076,0,0.153-0.017,0.224-0.053
			c0.084-0.042,2.088-1.053,4.118-2.955C18.562,14.945,20,12.011,20,9.006c0-5.468-3.337-9-8.5-9c-5.164,0-8.5,3.532-8.5,9
			C3,12.011,4.438,14.945,7.158,17.498z M11.5,4.006c2.481,0,4.5,2.019,4.5,4.5c0,2.483-2.019,4.5-4.5,4.5S7,10.989,7,8.506
			C7,6.025,9.019,4.006,11.5,4.006z"/>
	</g>
</g>
<g id="invisible_shape">
	<rect fill="none" width="24" height="24"/>
</g>
</svg>
