<?xml version="1.0" encoding="utf-8"?>
<!-- Generator: Adobe Illustrator 19.2.0, SVG Export Plug-In . SVG Version: 6.00 Build 0)  -->
<svg version="1.1" xmlns="http://www.w3.org/2000/svg" xmlns:xlink="http://www.w3.org/1999/xlink" x="0px" y="0px" width="24px"
	 height="24px" viewBox="0 0 24 24" enable-background="new 0 0 24 24" xml:space="preserve">
<g id="Filled_Icons_1_">
	<path d="M11.5,0C6.084,0,2,4.298,2,10c0,7.173,8.831,13.634,9.207,13.905C11.294,23.969,11.398,24,11.5,24s0.206-0.031,0.293-0.095
		C12.168,23.634,21,17.173,21,10C21,4.298,16.916,0,11.5,0z M11,3.5c0.551,0,1,0.449,1,1c0,0.551-0.449,1-1,1c-0.552,0-1-0.449-1-1
		C10,3.949,10.448,3.5,11,3.5z M13.5,14h-4C9.224,14,9,13.776,9,13.5C9,13.223,9.224,13,9.5,13H11V8H9.5C9.224,8,9,7.776,9,7.5
		C9,7.223,9.224,7,9.5,7h2C11.776,7,12,7.223,12,7.5V13h1.5c0.276,0,0.5,0.223,0.5,0.5C14,13.776,13.776,14,13.5,14z"/>
</g>
<g id="invisible_shape">
	<rect fill="none" width="24" height="24"/>
</g>
</svg>
