<?xml version="1.0" encoding="utf-8"?>
<!-- Generator: Adobe Illustrator 19.2.0, SVG Export Plug-In . SVG Version: 6.00 Build 0)  -->
<svg version="1.1" xmlns="http://www.w3.org/2000/svg" xmlns:xlink="http://www.w3.org/1999/xlink" x="0px" y="0px" width="24px"
	 height="24px" viewBox="0 0 24 24" enable-background="new 0 0 24 24" xml:space="preserve">
<g id="Filled_Icons_1_">
	<path d="M11.5,0C6.084,0,2,4.298,2,10c0,7.173,8.831,13.634,9.207,13.905C11.294,23.969,11.398,24,11.5,24s0.206-0.031,0.293-0.095
		C12.168,23.634,21,17.173,21,10C21,4.298,16.916,0,11.5,0z M8.026,4.342C8.094,4.137,8.285,4,8.5,4h6
		c0.215,0,0.406,0.137,0.474,0.342L15.86,7H7.14L8.026,4.342z M17,11.5c0,0.276-0.224,0.5-0.5,0.5H16v0.5c0,0.276-0.224,0.5-0.5,0.5
		S15,12.776,15,12.5V12H8v0.5C8,12.776,7.776,13,7.5,13S7,12.776,7,12.5V12H6.5C6.224,12,6,11.776,6,11.5V10h3
		c0.276,0,0.5-0.224,0.5-0.5C9.5,9.223,9.276,9,9,9H6.19l0.501-1h9.617l0.5,1H14c-0.276,0-0.5,0.223-0.5,0.5
		c0,0.276,0.224,0.5,0.5,0.5h3V11.5z"/>
</g>
<g id="invisible_shape">
	<rect fill="none" width="24" height="24"/>
</g>
</svg>
