<?xml version="1.0" encoding="utf-8"?>
<!-- Generator: Adobe Illustrator 19.2.0, SVG Export Plug-In . SVG Version: 6.00 Build 0)  -->
<svg version="1.1" xmlns="http://www.w3.org/2000/svg" xmlns:xlink="http://www.w3.org/1999/xlink" x="0px" y="0px" width="24px"
	 height="24px" viewBox="0 0 24 24" enable-background="new 0 0 24 24" xml:space="preserve">
<g id="Filled_Icons">
	<g>
		<path d="M13,19.066v1.44c0,0.827-0.674,1.5-1.5,1.5c-0.827,0-1.5-0.673-1.5-1.5V19.09c-2.102,0.016-10,0.32-10,2.416
			c0,2.429,10.771,2.5,12,2.5c1.227,0,12-0.071,12-2.5C24,19.325,15.247,19.046,13,19.066z"/>
		<path d="M10,8.743c0.318,0.114,0.652,0.194,1,0.233v11.53c0,0.275,0.224,0.5,0.5,0.5c0.275,0,0.5-0.225,0.5-0.5V8.976
			c0.347-0.039,0.681-0.119,1-0.233c1.744-0.62,3-2.283,3-4.237c0-2.482-2.019-4.5-4.5-4.5S7,2.024,7,4.506
			C7,6.46,8.255,8.123,10,8.743z M11.5,2.006c1.378,0,2.5,1.121,2.5,2.5c0,0.275-0.225,0.5-0.5,0.5c-0.276,0-0.5-0.225-0.5-0.5
			c0-0.828-0.674-1.5-1.5-1.5c-0.276,0-0.5-0.225-0.5-0.5C11,2.23,11.224,2.006,11.5,2.006z"/>
	</g>
</g>
<g id="invisible_shape">
	<rect fill="none" width="24" height="24"/>
</g>
</svg>
