<?xml version="1.0" encoding="utf-8"?>
<!-- Generator: Adobe Illustrator 19.2.0, SVG Export Plug-In . SVG Version: 6.00 Build 0)  -->
<svg version="1.1" xmlns="http://www.w3.org/2000/svg" xmlns:xlink="http://www.w3.org/1999/xlink" x="0px" y="0px" width="24px"
	 height="24px" viewBox="0 0 24 24" enable-background="new 0 0 24 24" xml:space="preserve">
<g id="Filled_Icons_1_">
	<g>
		<g>
			<path d="M7.544,5.431c0.976-0.883,2.265-1.425,3.68-1.425c3.032,0,5.5,2.467,5.5,5.5c0,1.416-0.542,2.704-1.424,3.679
				l3.286,3.287c1.236-1.966,2.138-4.178,2.138-6.466c0-5.702-4.084-10-9.5-10c-2.568,0-4.829,0.975-6.504,2.599L7.544,5.431z"/>
			<path d="M12.678,14.805c-0.464,0.128-0.95,0.202-1.454,0.202c-3.033,0-5.5-2.468-5.5-5.5c0-0.504,0.074-0.989,0.201-1.454
				L2.907,5.035C2.152,6.484,1.724,8.17,1.724,10.006c0,7.173,8.831,13.634,9.207,13.905c0.087,0.064,0.191,0.095,0.293,0.095
				c0.103,0,0.205-0.031,0.293-0.095c0.203-0.146,2.864-2.102,5.274-4.992L12.678,14.805z"/>
		</g>
		<g>
			<path d="M22.5,23.006c-0.128,0-0.256-0.049-0.354-0.146l-21-21c-0.195-0.195-0.195-0.512,0-0.708s0.512-0.195,0.707,0l21,21
				c0.195,0.195,0.195,0.512,0,0.708C22.756,22.958,22.628,23.006,22.5,23.006z"/>
		</g>
	</g>
</g>
<g id="invisible_shape">
	<rect fill="none" width="24" height="24"/>
</g>
</svg>
