<?xml version="1.0" encoding="utf-8"?>
<!-- Generator: Adobe Illustrator 19.2.0, SVG Export Plug-In . SVG Version: 6.00 Build 0)  -->
<svg version="1.1" xmlns="http://www.w3.org/2000/svg" xmlns:xlink="http://www.w3.org/1999/xlink" x="0px" y="0px" width="24px"
	 height="24px" viewBox="0 0 24 24" enable-background="new 0 0 24 24" xml:space="preserve">
<g id="Filled_Icons_1_">
	<path d="M11.5,0C6.084,0,2,4.298,2,10c0,7.173,8.831,13.634,9.207,13.905C11.294,23.969,11.398,24,11.5,24s0.206-0.031,0.293-0.095
		C12.168,23.634,21,17.173,21,10C21,4.298,16.916,0,11.5,0z M9.5,14.484c-0.552,0-1-0.448-1-1c0-0.551,0.448-1,1-1
		c0.551,0,1,0.449,1,1C10.5,14.036,10.051,14.484,9.5,14.484z M14.5,14.484c-0.552,0-1-0.448-1-1c0-0.551,0.448-1,1-1
		c0.551,0,1,0.449,1,1C15.5,14.036,15.051,14.484,14.5,14.484z M16,11.5c0,0.276-0.224,0.5-0.5,0.5h-7C8.224,12,8,11.776,8,11.5V6
		H6.541c-0.276,0-0.5-0.224-0.5-0.5c0-0.277,0.224-0.5,0.5-0.5H8.5C8.776,5,9,5.223,9,5.5V7h6.5C15.776,7,16,7.223,16,7.5V11.5z"/>
</g>
<g id="invisible_shape">
	<rect fill="none" width="24" height="24"/>
</g>
</svg>
