<?xml version="1.0" encoding="utf-8"?>
<!-- Generator: Adobe Illustrator 19.2.0, SVG Export Plug-In . SVG Version: 6.00 Build 0)  -->
<svg version="1.1" xmlns="http://www.w3.org/2000/svg" xmlns:xlink="http://www.w3.org/1999/xlink" x="0px" y="0px" width="24px"
	 height="24px" viewBox="0 0 24 24" enable-background="new 0 0 24 24" xml:space="preserve">
<g id="Filled_Icons_1_">
	<path d="M11.5,0.006c-4.963,0-9,4.038-9,9c0,4.125,2.856,7.75,6.832,8.735l1.687,5.902c0.062,0.215,0.258,0.363,0.481,0.363
		c0.223,0,0.419-0.148,0.481-0.363l1.686-5.902c3.977-0.985,6.833-4.61,6.833-8.735C20.5,4.044,16.462,0.006,11.5,0.006z M11,3.506
		c0.551,0,1,0.449,1,1c0,0.551-0.449,1-1,1c-0.552,0-1-0.449-1-1C10,3.956,10.448,3.506,11,3.506z M13.5,14.006h-4
		c-0.276,0-0.5-0.224-0.5-0.5c0-0.277,0.224-0.5,0.5-0.5H11v-5H9.5c-0.276,0-0.5-0.224-0.5-0.5c0-0.277,0.224-0.5,0.5-0.5h2
		c0.276,0,0.5,0.223,0.5,0.5v5.5h1.5c0.276,0,0.5,0.223,0.5,0.5C14,13.783,13.776,14.006,13.5,14.006z"/>
</g>
<g id="invisible_shape">
	<rect fill="none" width="24" height="24"/>
</g>
</svg>
