<?xml version="1.0" encoding="utf-8"?>
<!-- Generator: Adobe Illustrator 19.2.0, SVG Export Plug-In . SVG Version: 6.00 Build 0)  -->
<svg version="1.1" xmlns="http://www.w3.org/2000/svg" xmlns:xlink="http://www.w3.org/1999/xlink" x="0px" y="0px" width="24px"
	 height="24px" viewBox="0 0 24 24" enable-background="new 0 0 24 24" xml:space="preserve">
<g id="Filled_Icons_1_">
	<g>
		<path d="M12,0.006c-4.411,0-8,3.588-8,8c0,3.741,2.596,6.971,6.216,7.795l1.305,4.349c0.063,0.211,0.259,0.356,0.479,0.356
			s0.415-0.146,0.479-0.356l1.305-4.349C17.403,14.977,20,11.748,20,8.006C20,3.595,16.411,0.006,12,0.006z M12,13.006
			c-2.758,0-5-2.244-5-5c0-2.757,2.242-5,5-5c2.757,0,5,2.243,5,5C17,10.763,14.757,13.006,12,13.006z"/>
		<path d="M16.974,20.348c-0.087-0.262-0.367-0.404-0.632-0.315L12,21.479l-4.342-1.447c-0.266-0.088-0.545,0.053-0.633,0.315
			C6.938,20.61,7.08,20.894,7.342,20.98l3.076,1.026l-3.076,1.026c-0.262,0.086-0.403,0.37-0.316,0.632
			c0.07,0.208,0.265,0.341,0.475,0.341c0.052,0,0.106-0.009,0.158-0.026L12,22.533l4.342,1.447c0.053,0.018,0.105,0.026,0.158,0.026
			c0.209,0,0.404-0.133,0.474-0.341c0.088-0.263-0.054-0.546-0.315-0.632l-3.077-1.026l3.077-1.026
			C16.92,20.894,17.062,20.61,16.974,20.348z"/>
	</g>
</g>
<g id="invisible_shape">
	<rect fill="none" width="24" height="24"/>
</g>
</svg>
