<?xml version="1.0" encoding="utf-8"?>
<!-- Generator: Adobe Illustrator 19.2.0, SVG Export Plug-In . SVG Version: 6.00 Build 0)  -->
<svg version="1.1" xmlns="http://www.w3.org/2000/svg" xmlns:xlink="http://www.w3.org/1999/xlink" x="0px" y="0px" width="24px"
	 height="24px" viewBox="0 0 24 24" enable-background="new 0 0 24 24" xml:space="preserve">
<g id="Filled_Icons_1_">
	<path d="M11.5,0C6.084,0,2,4.298,2,10c0,7.173,8.831,13.634,9.207,13.905C11.294,23.969,11.398,24,11.5,24s0.206-0.031,0.293-0.095
		C12.168,23.634,21,17.173,21,10C21,4.298,16.916,0,11.5,0z M17.5,10H17v1.5c0,0.276-0.224,0.5-0.5,0.5h-3
		c-0.276,0-0.5-0.224-0.5-0.5V10h-3v1.5c0,0.276-0.224,0.5-0.5,0.5h-3C6.224,12,6,11.776,6,11.5V10H5.5C5.224,10,5,9.776,5,9.5
		C5,9.223,5.224,9,5.5,9H6V7.5C6,7.223,6.224,7,6.5,7h3C9.776,7,10,7.223,10,7.5V9h3V7.5C13,7.223,13.224,7,13.5,7h3
		C16.776,7,17,7.223,17,7.5V9h0.5C17.776,9,18,9.223,18,9.5C18,9.776,17.776,10,17.5,10z"/>
</g>
<g id="invisible_shape">
	<rect fill="none" width="24" height="24"/>
</g>
</svg>
