<?xml version="1.0" encoding="utf-8"?>
<!-- Generator: Adobe Illustrator 19.2.0, SVG Export Plug-In . SVG Version: 6.00 Build 0)  -->
<svg version="1.1" xmlns="http://www.w3.org/2000/svg" xmlns:xlink="http://www.w3.org/1999/xlink" x="0px" y="0px" width="24px"
	 height="24px" viewBox="0 0 24 24" enable-background="new 0 0 24 24" xml:space="preserve">
<g id="Filled_Icons_1_">
	<path d="M11.5,0.006c-5.416,0-9.5,4.298-9.5,10c0,7.173,8.831,13.634,9.207,13.905c0.087,0.064,0.191,0.095,0.293,0.095
		s0.206-0.031,0.293-0.095C12.168,23.64,21,17.179,21,10.006C21,4.305,16.916,0.006,11.5,0.006z M11.5,15.506c-0.552,0-1-0.449-1-1
		c0-0.551,0.448-1,1-1c0.551,0,1,0.449,1,1C12.5,15.058,12.051,15.506,11.5,15.506z M12,11.506v0.784c0,0.276-0.224,0.5-0.5,0.5
		s-0.5-0.224-0.5-0.5v-1.249c0-0.276,0.224-0.5,0.5-0.5c1.378,0,2.5-1.108,2.5-2.469c0-1.361-1.122-2.469-2.5-2.469
		c-1.356,0-2.5,1.173-2.5,2.561c0,0.276-0.224,0.5-0.5,0.5S8,8.442,8,8.165c0-1.964,1.57-3.561,3.5-3.561S15,6.159,15,8.073
		C15,9.817,13.693,11.265,12,11.506z"/>
</g>
<g id="invisible_shape">
	<rect fill="none" width="24" height="24"/>
</g>
</svg>
