<?xml version="1.0" encoding="utf-8"?>
<!-- Generator: Adobe Illustrator 19.2.0, SVG Export Plug-In . SVG Version: 6.00 Build 0)  -->
<svg version="1.1" xmlns="http://www.w3.org/2000/svg" xmlns:xlink="http://www.w3.org/1999/xlink" x="0px" y="0px" width="24px"
	 height="24px" viewBox="0 0 24 24" enable-background="new 0 0 24 24" xml:space="preserve">
<g id="Filled_Icons_1_">
	<path d="M11.5,0C6.084,0,2,4.298,2,10c0,7.173,8.831,13.634,9.207,13.905C11.294,23.969,11.398,24,11.5,24s0.205-0.031,0.293-0.095
		C12.168,23.634,21,17.173,21,10C21,4.298,16.916,0,11.5,0z M16.82,7.885l-2.76,2.298l0.924,3.696
		c0.053,0.21-0.035,0.431-0.219,0.546c-0.19,0.116-0.424,0.095-0.586-0.04L11.5,12.15l-2.68,2.234
		c-0.167,0.137-0.403,0.155-0.586,0.04c-0.184-0.115-0.272-0.336-0.22-0.546l0.924-3.696L6.18,7.885
		C6.018,7.748,5.958,7.527,6.029,7.33C6.102,7.133,6.289,7,6.5,7h3.398l1.132-3.168C11.1,3.633,11.288,3.5,11.5,3.5
		c0.211,0,0.399,0.133,0.471,0.332L13.102,7H16.5c0.21,0,0.398,0.133,0.47,0.33C17.042,7.527,16.981,7.748,16.82,7.885z"/>
</g>
<g id="invisible_shape">
	<rect fill="none" width="24" height="24"/>
</g>
</svg>
