<?xml version="1.0" encoding="utf-8"?>
<!-- Generator: Adobe Illustrator 19.2.0, SVG Export Plug-In . SVG Version: 6.00 Build 0)  -->
<svg version="1.1" xmlns="http://www.w3.org/2000/svg" xmlns:xlink="http://www.w3.org/1999/xlink" x="0px" y="0px" width="24px"
	 height="24px" viewBox="0 0 24 24" enable-background="new 0 0 24 24" xml:space="preserve">
<g id="Filled_Icons_1_">
	<path d="M11.5,0.006c-5.416,0-9.5,4.298-9.5,10c0,7.173,8.831,13.634,9.207,13.905c0.087,0.064,0.191,0.095,0.293,0.095
		s0.206-0.031,0.293-0.095C12.168,23.64,21,17.179,21,10.006C21,4.305,16.916,0.006,11.5,0.006z M11.5,15.006
		c-0.827,0-1.5-0.673-1.5-1.5c0-0.828,0.673-1.5,1.5-1.5s1.5,0.672,1.5,1.5C13,14.333,12.327,15.006,11.5,15.006z M14.468,11.19
		c-0.108,0.258-0.404,0.374-0.654,0.267c-1.463-0.613-3.157-0.614-4.617-0.007c-0.254,0.106-0.548-0.015-0.654-0.271
		c-0.107-0.255,0.015-0.548,0.269-0.654c1.706-0.708,3.68-0.706,5.388,0.01C14.454,10.643,14.574,10.936,14.468,11.19z
		 M16.065,9.225c-0.126,0.244-0.426,0.341-0.674,0.213c-2.435-1.26-5.463-1.242-7.886,0.048C7.431,9.526,7.35,9.545,7.271,9.545
		c-0.179,0-0.352-0.096-0.441-0.264c-0.13-0.245-0.037-0.547,0.206-0.677c2.692-1.432,6.11-1.453,8.817-0.053
		C16.097,8.677,16.193,8.979,16.065,9.225z M17.59,7.227c-0.135,0.239-0.44,0.325-0.682,0.188c-3.31-1.874-7.607-1.857-10.9,0.042
		c-0.079,0.046-0.165,0.067-0.25,0.067c-0.173,0-0.34-0.089-0.434-0.249c-0.138-0.24-0.056-0.546,0.184-0.683
		c3.594-2.074,8.279-2.093,11.894-0.046C17.642,6.683,17.727,6.987,17.59,7.227z"/>
</g>
<g id="invisible_shape">
	<rect fill="none" width="24" height="24"/>
</g>
</svg>
