<?xml version="1.0" encoding="utf-8"?>
<!-- Generator: Adobe Illustrator 19.2.0, SVG Export Plug-In . SVG Version: 6.00 Build 0)  -->
<svg version="1.1" xmlns="http://www.w3.org/2000/svg" xmlns:xlink="http://www.w3.org/1999/xlink" x="0px" y="0px" width="24px"
	 height="24px" viewBox="0 0 24 24" enable-background="new 0 0 24 24" xml:space="preserve">
<g id="Filled_Icons_1_">
	<g>
		<path d="M14.879,23.006h-1c-0.276,0-0.5,0.223-0.5,0.5c0,0.276,0.224,0.451,0.5,0.451h1c0.276,0,0.5-0.175,0.5-0.451
			C15.379,23.229,15.155,23.006,14.879,23.006z"/>
		<path d="M11.879,23.006h-1c-0.276,0-0.5,0.223-0.5,0.5c0,0.276,0.224,0.451,0.5,0.451h1c0.276,0,0.5-0.175,0.5-0.451
			C12.379,23.229,12.155,23.006,11.879,23.006z"/>
		<path d="M8.879,23.006h-1c-0.276,0-0.5,0.223-0.5,0.5c0,0.276,0.224,0.451,0.5,0.451h1c0.276,0,0.5-0.175,0.5-0.451
			C9.379,23.229,9.155,23.006,8.879,23.006z"/>
		<path d="M5.621,13.006c0.148,0,0.405-0.066,0.5-0.179c0.46-0.551,4.258-5.416,4.258-7.942c0-2.691-2.188-4.878-4.879-4.878
			S0.621,2.194,0.621,4.885c0,2.526,4.04,7.392,4.5,7.942C5.216,12.94,5.473,13.006,5.621,13.006z M3.358,4.885
			c0-1.181,0.961-2.142,2.142-2.142c1.182,0,2.143,0.961,2.143,2.142c0,1.181-0.961,2.142-2.143,2.142
			C4.319,7.026,3.358,6.066,3.358,4.885z"/>
		<path d="M18.5,11.006c-2.69,0-4.879,2.188-4.879,4.878c0,2.526,4.035,7.385,4.495,7.936C18.211,23.934,18.352,24,18.5,24
			s0.289-0.066,0.384-0.179c0.46-0.551,4.495-5.41,4.495-7.936C23.379,13.194,21.19,11.006,18.5,11.006z M18.5,18.026
			c-1.181,0-2.142-0.96-2.142-2.142c0-1.181,0.961-2.142,2.142-2.142c1.182,0,2.143,0.961,2.143,2.142
			C20.643,17.066,19.682,18.026,18.5,18.026z"/>
		<path d="M6.5,23.006H6v-0.5c0-0.277-0.224-0.5-0.5-0.5S5,22.229,5,22.506v1c0,0.276,0.224,0.451,0.5,0.451h1
			c0.276,0,0.5-0.175,0.5-0.451C7,23.229,6.776,23.006,6.5,23.006z"/>
		<path d="M6,13.506c0-0.277-0.224-0.5-0.5-0.5S5,13.229,5,13.506v1c0,0.276,0.224,0.5,0.5,0.5s0.5-0.224,0.5-0.5V13.506z"/>
		<path d="M6,16.506c0-0.277-0.224-0.5-0.5-0.5S5,16.229,5,16.506v1c0,0.276,0.224,0.5,0.5,0.5s0.5-0.224,0.5-0.5V16.506z"/>
		<path d="M5.5,19.006c-0.276,0-0.5,0.223-0.5,0.5v1c0,0.276,0.224,0.5,0.5,0.5s0.5-0.224,0.5-0.5v-1
			C6,19.229,5.776,19.006,5.5,19.006z"/>
	</g>
</g>
<g id="invisible_shape">
	<rect fill="none" width="24" height="24"/>
</g>
</svg>
