<?xml version="1.0" encoding="utf-8"?>
<!-- Generator: Adobe Illustrator 19.2.0, SVG Export Plug-In . SVG Version: 6.00 Build 0)  -->
<svg version="1.1" xmlns="http://www.w3.org/2000/svg" xmlns:xlink="http://www.w3.org/1999/xlink" x="0px" y="0px" width="24px"
	 height="24px" viewBox="0 0 24 24" enable-background="new 0 0 24 24" xml:space="preserve">
<g id="Filled_Icons_1_">
	<path d="M11.5,0.006c-4.963,0-9,4.038-9,9c0,4.124,2.856,7.75,6.832,8.734l1.687,5.903c0.061,0.214,0.258,0.363,0.481,0.363
		c0.223,0,0.419-0.148,0.481-0.363l1.686-5.903c3.978-0.984,6.833-4.61,6.833-8.734C20.5,4.044,16.462,0.006,11.5,0.006z
		 M11.5,15.006c-3.309,0-6-2.692-6-6c0-3.308,2.691-6,6-6s6,2.692,6,6C17.5,12.314,14.809,15.006,11.5,15.006z"/>
</g>
<g id="invisible_shape">
	<rect fill="none" width="24" height="24"/>
</g>
</svg>
