<?xml version="1.0" encoding="utf-8"?>
<!-- Generator: Adobe Illustrator 19.2.0, SVG Export Plug-In . SVG Version: 6.00 Build 0)  -->
<svg version="1.1" xmlns="http://www.w3.org/2000/svg" xmlns:xlink="http://www.w3.org/1999/xlink" x="0px" y="0px" width="24px"
	 height="24px" viewBox="0 0 24 24" enable-background="new 0 0 24 24" xml:space="preserve">
<g id="Filled_Icons_1_">
	<path d="M11.5,0c-4.963,0-9,4.038-9,9c0,4.125,2.856,7.75,6.832,8.735l1.687,5.902C11.081,23.852,11.277,24,11.5,24
		c0.223,0,0.419-0.148,0.481-0.363l1.686-5.902C17.645,16.75,20.5,13.125,20.5,9C20.5,4.038,16.462,0,11.5,0z M13.5,4
		C13.775,4,14,4.223,14,4.5C14,4.776,13.775,5,13.5,5C13.224,5,13,4.776,13,4.5C13,4.223,13.224,4,13.5,4z M12.5,3
		C12.775,3,13,3.223,13,3.5C13,3.776,12.775,4,12.5,4C12.224,4,12,3.776,12,3.5C12,3.223,12.224,3,12.5,3z M10.5,4
		C10.775,4,11,4.223,11,4.5C11,4.776,10.775,5,10.5,5C10.224,5,10,4.776,10,4.5C10,4.223,10.224,4,10.5,4z M15,8.5
		c0,1.759-1.309,3.204-3,3.449V14h1c0.276,0,0.5,0.223,0.5,0.5c0,0.276-0.224,0.5-0.5,0.5h-3c-0.276,0-0.5-0.224-0.5-0.5
		c0-0.277,0.224-0.5,0.5-0.5h1v-2.051c-1.691-0.245-3-1.69-3-3.449v-2C8,6.223,8.224,6,8.5,6h6C14.776,6,15,6.223,15,6.5V8.5z"/>
</g>
<g id="invisible_shape">
	<rect fill="none" width="24" height="24"/>
</g>
</svg>
