<?xml version="1.0" encoding="utf-8"?>
<!-- Generator: Adobe Illustrator 19.2.0, SVG Export Plug-In . SVG Version: 6.00 Build 0)  -->
<svg version="1.1" xmlns="http://www.w3.org/2000/svg" xmlns:xlink="http://www.w3.org/1999/xlink" x="0px" y="0px" width="24px"
	 height="24px" viewBox="0 0 24 24" enable-background="new 0 0 24 24" xml:space="preserve">
<g id="Filled_Icons_1_">
	<path d="M11.5,0.006c-4.963,0-9,4.038-9,9c0,4.125,2.856,7.75,6.832,8.735l1.687,5.902c0.062,0.215,0.258,0.363,0.481,0.363
		c0.223,0,0.419-0.148,0.481-0.363l1.686-5.902c3.977-0.985,6.833-4.61,6.833-8.735C20.5,4.044,16.462,0.006,11.5,0.006z
		 M11.5,15.006c-0.827,0-1.5-0.673-1.5-1.5c0-0.828,0.673-1.5,1.5-1.5s1.5,0.672,1.5,1.5C13,14.333,12.327,15.006,11.5,15.006z
		 M14.468,11.19c-0.081,0.192-0.266,0.308-0.462,0.308c-0.064,0-0.13-0.013-0.193-0.039c-1.469-0.614-3.161-0.615-4.617-0.007
		c-0.256,0.104-0.547-0.016-0.654-0.271c-0.107-0.255,0.015-0.548,0.269-0.654c1.702-0.706,3.673-0.706,5.387,0.009
		C14.454,10.642,14.574,10.936,14.468,11.19z M16.066,9.223c-0.127,0.246-0.429,0.341-0.674,0.214
		c-2.439-1.259-5.466-1.241-7.887,0.049C7.431,9.526,7.35,9.545,7.271,9.545c-0.179,0-0.352-0.096-0.441-0.264
		c-0.13-0.245-0.037-0.547,0.206-0.677c2.689-1.431,6.109-1.451,8.816-0.054C16.097,8.677,16.193,8.977,16.066,9.223z M17.59,7.227
		c-0.135,0.239-0.44,0.323-0.682,0.188c-3.308-1.874-7.607-1.856-10.9,0.042c-0.079,0.046-0.165,0.067-0.25,0.067
		c-0.173,0-0.34-0.089-0.434-0.249c-0.138-0.24-0.056-0.546,0.184-0.683C9.102,4.519,13.79,4.5,17.402,6.546
		C17.642,6.683,17.727,6.987,17.59,7.227z"/>
</g>
<g id="invisible_shape">
	<rect fill="none" width="24" height="24"/>
</g>
</svg>
