<?xml version="1.0" encoding="utf-8"?>
<!-- Generator: Adobe Illustrator 19.2.0, SVG Export Plug-In . SVG Version: 6.00 Build 0)  -->
<svg version="1.1" xmlns="http://www.w3.org/2000/svg" xmlns:xlink="http://www.w3.org/1999/xlink" x="0px" y="0px" width="24px"
	 height="24px" viewBox="0 0 24 24" enable-background="new 0 0 24 24" xml:space="preserve">
<g id="Filled_Icons">
	<path d="M11.5,0.006c-2.481,0-4.5,2.018-4.5,4.5c0,2.312,1.753,4.221,4,4.47v14.53c0,0.275,0.224,0.5,0.5,0.5
		c0.275,0,0.5-0.225,0.5-0.5V8.976c2.246-0.249,4-2.158,4-4.47C16,2.024,13.981,0.006,11.5,0.006z M13.5,5.006
		c-0.276,0-0.5-0.225-0.5-0.5c0-0.828-0.674-1.5-1.5-1.5c-0.276,0-0.5-0.225-0.5-0.5c0-0.277,0.224-0.5,0.5-0.5
		c1.378,0,2.5,1.121,2.5,2.5C14,4.782,13.775,5.006,13.5,5.006z"/>
</g>
<g id="invisible_shape">
	<rect fill="none" width="24" height="24"/>
</g>
</svg>
