<?xml version="1.0" encoding="utf-8"?>
<!-- Generator: Adobe Illustrator 19.2.0, SVG Export Plug-In . SVG Version: 6.00 Build 0)  -->
<svg version="1.1" xmlns="http://www.w3.org/2000/svg" xmlns:xlink="http://www.w3.org/1999/xlink" x="0px" y="0px" width="24px"
	 height="24px" viewBox="0 0 24 24" enable-background="new 0 0 24 24" xml:space="preserve">
<g id="Filled_Icons_1_">
	<path d="M11.5,0c-4.963,0-9,4.038-9,9c0,4.123,2.856,7.75,6.832,8.735l1.687,5.902C11.081,23.852,11.277,24,11.5,24
		c0.223,0,0.419-0.148,0.481-0.363l1.686-5.902C17.645,16.75,20.5,13.123,20.5,9C20.5,4.038,16.462,0,11.5,0z M8.026,3.342
		C8.094,3.137,8.285,3,8.5,3h6c0.215,0,0.406,0.137,0.474,0.342L15.86,6H7.14L8.026,3.342z M17,10.5c0,0.276-0.224,0.5-0.5,0.5H16
		v0.5c0,0.276-0.224,0.5-0.5,0.5S15,11.776,15,11.5V11H8v0.5C8,11.776,7.776,12,7.5,12S7,11.776,7,11.5V11H6.5
		C6.224,11,6,10.776,6,10.5V9h3c0.276,0,0.5-0.224,0.5-0.5C9.5,8.223,9.276,8,9,8H6.19l0.5-1h9.619l0.5,1H14
		c-0.276,0-0.5,0.223-0.5,0.5C13.5,8.776,13.724,9,14,9h2.999H17V10.5z"/>
</g>
<g id="invisible_shape">
	<rect fill="none" width="24" height="24"/>
</g>
</svg>
