<?xml version="1.0" encoding="utf-8"?>
<!-- Generator: Adobe Illustrator 19.2.0, SVG Export Plug-In . SVG Version: 6.00 Build 0)  -->
<svg version="1.1" xmlns="http://www.w3.org/2000/svg" xmlns:xlink="http://www.w3.org/1999/xlink" x="0px" y="0px" width="24px"
	 height="24px" viewBox="0 0 24 24" enable-background="new 0 0 24 24" xml:space="preserve">
<g id="Filled_Icons_1_">
	<g>
		<circle cx="13" cy="7" r="1"/>
		<circle cx="10" cy="7" r="1"/>
		<path d="M11.5,0c-4.963,0-9,4.038-9,9c0,4.126,2.856,7.75,6.833,8.734l1.686,5.903C11.081,23.852,11.277,24,11.5,24
			c0.223,0,0.419-0.148,0.481-0.363l1.686-5.903C17.645,16.75,20.5,13.126,20.5,9C20.5,4.038,16.462,0,11.5,0z M16,9.5
			c0,0.276-0.224,0.5-0.5,0.5H15v1.5c0,0.276-0.224,0.5-0.5,0.5H13v-2c0-0.277-0.224-0.5-0.5-0.5S12,9.723,12,10v2h-1v-2
			c0-0.277-0.224-0.5-0.5-0.5S10,9.723,10,10v2H8.5C8.224,12,8,11.776,8,11.5V10H7.5C7.224,10,7,9.776,7,9.5v-3
			C7,5.122,8.122,4,9.5,4h4C14.878,4,16,5.122,16,6.5V9.5z"/>
	</g>
</g>
<g id="invisible_shape">
	<rect fill="none" width="24" height="24"/>
</g>
</svg>
