<?xml version="1.0" encoding="utf-8"?>
<!-- Generator: Adobe Illustrator 19.2.0, SVG Export Plug-In . SVG Version: 6.00 Build 0)  -->
<svg version="1.1" xmlns="http://www.w3.org/2000/svg" xmlns:xlink="http://www.w3.org/1999/xlink" x="0px" y="0px" width="24px"
	 height="24px" viewBox="0 0 24 24" enable-background="new 0 0 24 24" xml:space="preserve">
<g id="Filled_Icons_1_">
	<g>
		<path d="M11.5,0.006c-4.963,0-9,4.038-9,9c0,4.124,2.856,7.75,6.832,8.735l1.687,5.902c0.062,0.215,0.258,0.363,0.481,0.363
			c0.223,0,0.419-0.148,0.481-0.363l1.686-5.902c3.977-0.985,6.833-4.611,6.833-8.735C20.5,4.044,16.462,0.006,11.5,0.006z
			 M11.5,15.006c-3.309,0-6-2.69-6-6c0-3.308,2.691-6,6-6s6,2.692,6,6C17.5,12.316,14.809,15.006,11.5,15.006z"/>
		<path d="M11.5,6.957c0.428,0,0.775,0.347,0.775,0.774c0,0.277,0.224,0.5,0.5,0.5c0.276,0,0.5-0.223,0.5-0.5
			c0-0.803-0.541-1.477-1.275-1.694V5.606c0-0.277-0.224-0.5-0.5-0.5S11,5.33,11,5.606v0.431c-0.734,0.217-1.275,0.891-1.275,1.694
			c0,0.979,0.796,1.775,1.775,1.775c0.428,0,0.775,0.347,0.775,0.774c0,0.427-0.348,0.775-0.775,0.775s-0.775-0.349-0.775-0.775
			c0-0.276-0.224-0.5-0.5-0.5c-0.276,0-0.5,0.224-0.5,0.5c0,0.804,0.541,1.477,1.275,1.694v0.431c0,0.277,0.224,0.5,0.5,0.5
			s0.5-0.223,0.5-0.5v-0.431c0.734-0.217,1.275-0.89,1.275-1.694c0-0.978-0.797-1.774-1.775-1.774c-0.428,0-0.775-0.348-0.775-0.775
			C10.725,7.305,11.072,6.957,11.5,6.957z"/>
	</g>
</g>
<g id="invisible_shape">
	<rect fill="none" width="24" height="24"/>
</g>
</svg>
