<?xml version="1.0" encoding="utf-8"?>
<!-- Generator: Adobe Illustrator 19.2.0, SVG Export Plug-In . SVG Version: 6.00 Build 0)  -->
<svg version="1.1" xmlns="http://www.w3.org/2000/svg" xmlns:xlink="http://www.w3.org/1999/xlink" x="0px" y="0px" width="24px"
	 height="24px" viewBox="0 0 24 24" enable-background="new 0 0 24 24" xml:space="preserve">
<g id="Filled_Icons_1_">
	<g>
		<path d="M11.5,0c-4.963,0-9,4.038-9,9c0,4.123,2.856,7.75,6.832,8.734l1.687,5.903C11.08,23.852,11.276,24,11.5,24
			c0.223,0,0.419-0.148,0.481-0.363l1.686-5.903C17.645,16.75,20.5,13.123,20.5,9C20.5,4.038,16.462,0,11.5,0z M11.5,15
			c-3.309,0-6-2.692-6-6c0-3.309,2.691-6,6-6s6,2.691,6,6C17.5,12.308,14.809,15,11.5,15z"/>
		<path d="M14,8h-2V6c0-0.277-0.224-0.5-0.5-0.5S11,5.723,11,6v2H9C8.724,8,8.5,8.223,8.5,8.5C8.5,8.775,8.724,9,9,9h2v2
			c0,0.275,0.224,0.5,0.5,0.5S12,11.275,12,11V9h2c0.276,0,0.5-0.225,0.5-0.5C14.5,8.223,14.276,8,14,8z"/>
	</g>
</g>
<g id="invisible_shape">
	<rect fill="none" width="24" height="24"/>
</g>
</svg>
