<?xml version="1.0" encoding="utf-8"?>
<!-- Generator: Adobe Illustrator 19.2.0, SVG Export Plug-In . SVG Version: 6.00 Build 0)  -->
<svg version="1.1" xmlns="http://www.w3.org/2000/svg" xmlns:xlink="http://www.w3.org/1999/xlink" x="0px" y="0px" width="24px"
	 height="24px" viewBox="0 0 24 24" enable-background="new 0 0 24 24" xml:space="preserve">
<g id="Filled_Icons_1_">
	<g>
		<path d="M10.672,0.006c-2.28,0-4.136,1.856-4.136,4.136c0,2.127,3.367,6.224,3.752,6.684c0.095,0.113,0.235,0.179,0.384,0.179
			c0.148,0,0.289-0.066,0.384-0.179c0.384-0.46,3.753-4.558,3.753-6.684C14.809,1.862,12.952,0.006,10.672,0.006z M10.672,6.006
			c-1.027,0-1.863-0.836-1.863-1.864c0-1.028,0.836-1.864,1.863-1.864c1.027,0,1.864,0.836,1.864,1.864
			C12.536,5.17,11.699,6.006,10.672,6.006z"/>
		<path d="M19.672,7.006c-2.08,0-3.773,1.692-3.773,3.772c0,1.935,3.042,5.633,3.389,6.049c0.095,0.113,0.235,0.179,0.384,0.179
			c0.147,0,0.288-0.066,0.384-0.179c0.347-0.416,3.39-4.114,3.39-6.049C23.445,8.699,21.752,7.006,19.672,7.006z M19.672,12.506
			c-0.952,0-1.727-0.775-1.727-1.728c0-0.951,0.774-1.726,1.727-1.726c0.952,0,1.728,0.775,1.728,1.726
			C21.399,11.731,20.624,12.506,19.672,12.506z"/>
		<path d="M8.314,11.546c-0.841-0.993-2.135-1.54-3.644-1.54c-1.519,0-2.823,0.56-3.671,1.578c-0.84,1.009-1.172,2.405-0.911,3.831
			c0.242,1.324,1.219,2.788,2.164,4.205c0.942,1.414,1.917,2.873,1.917,3.887c0,0.276,0.224,0.5,0.5,0.5c0.276,0,0.5-0.224,0.5-0.5
			c0-1.052,1.042-2.637,2.051-4.171c0.949-1.444,1.846-2.809,2.033-3.927C9.502,13.929,9.168,12.557,8.314,11.546z M4.67,16.787
			c-1.309,0-2.373-1.064-2.373-2.373c0-1.308,1.064-2.372,2.373-2.372s2.373,1.064,2.373,2.372
			C7.043,15.723,5.978,16.787,4.67,16.787z"/>
		<g>
			<path d="M16.495,15.776c-0.095,0-0.191-0.027-0.276-0.084l-4.906-3.269c-0.231-0.153-0.292-0.462-0.139-0.693
				c0.153-0.23,0.463-0.292,0.693-0.139l4.906,3.27c0.229,0.153,0.292,0.464,0.139,0.693C16.815,15.698,16.657,15.776,16.495,15.776
				z"/>
		</g>
		<g>
			<path d="M7.225,22.816c-0.188,0-0.368-0.107-0.453-0.289c-0.117-0.25-0.009-0.548,0.241-0.665l9.947-4.642
				c0.25-0.117,0.548-0.009,0.665,0.241c0.116,0.25,0.009,0.548-0.242,0.665l-9.947,4.642C7.368,22.8,7.296,22.816,7.225,22.816z"/>
		</g>
	</g>
</g>
<g id="invisible_shape">
	<rect fill="none" width="24" height="24"/>
</g>
</svg>
