<?xml version="1.0" encoding="utf-8"?>
<!-- Generator: Adobe Illustrator 19.2.0, SVG Export Plug-In . SVG Version: 6.00 Build 0)  -->
<svg version="1.1" xmlns="http://www.w3.org/2000/svg" xmlns:xlink="http://www.w3.org/1999/xlink" x="0px" y="0px" width="24px"
	 height="24px" viewBox="0 0 24 24" enable-background="new 0 0 24 24" xml:space="preserve">
<g id="Filled_Icons">
	<g>
		<path d="M19.5,4.498c-1.809,0-3,1.193-3,3c0,1.81,3,6,3,6s3-4.19,3-6C22.5,5.692,21.307,4.498,19.5,4.498z M19.5,8.998
			c-0.678,0-1.5-0.5-1.5-1.5s0.822-1.5,1.5-1.5s1.5,0.5,1.5,1.5S20.178,8.998,19.5,8.998z"/>
		<path d="M4.5,10.498c-2.975,0-4.465,2.46-4,5c0.468,2.561,4,8,4,8s3.632-5.8,4-8C8.935,12.912,7.476,10.498,4.5,10.498z
			 M4.5,16.499c-1.034,0-2-0.965-2-2c0-1.034,0.966-2,2-2c1.035,0,2,0.966,2,2C6.5,15.534,5.535,16.499,4.5,16.499z"/>
		<path d="M7.666,22.999c-0.163,0-0.323-0.08-0.419-0.227c-0.15-0.231-0.086-0.541,0.146-0.692l11.5-7.5
			c0.232-0.149,0.541-0.085,0.692,0.146c0.15,0.23,0.086,0.541-0.145,0.692l-11.5,7.5C7.854,22.973,7.76,22.999,7.666,22.999z"/>
	</g>
</g>
<g id="invisible_shape">
	<rect fill="none" width="24" height="24"/>
</g>
</svg>
