<?xml version="1.0" encoding="utf-8"?>
<!-- Generator: Adobe Illustrator 19.2.0, SVG Export Plug-In . SVG Version: 6.00 Build 0)  -->
<svg version="1.1" xmlns="http://www.w3.org/2000/svg" xmlns:xlink="http://www.w3.org/1999/xlink" x="0px" y="0px" width="24px"
	 height="24px" viewBox="0 0 24 24" enable-background="new 0 0 24 24" xml:space="preserve">
<g id="Filled_Icons_1_">
	<path d="M12.144-0.018c-4.056,0-7.355,3.3-7.355,7.356c0,3.893,6.654,14.016,6.938,14.444c0.092,0.141,0.249,0.225,0.417,0.225
		c0.168,0,0.324-0.084,0.417-0.225C12.845,21.354,19.5,11.231,19.5,7.338C19.5,3.283,16.2-0.018,12.144-0.018z M12,11.006
		c-2.206,0-4-1.794-4-4c0-2.206,1.794-4,4-4c2.206,0,4,1.794,4,4C16,9.212,14.206,11.006,12,11.006z"/>
	<path d="M15.296,19.096c-0.997,1.661-1.812,2.908-2.044,3.261c-0.278,0.42-0.748,0.674-1.252,0.674s-0.974-0.254-1.252-0.674
		c-0.232-0.353-1.047-1.6-2.044-3.261C6.787,19.197,0,19.586,0,21.506c0,2.299,9.673,2.5,12,2.5c2.314,0,12-0.2,12-2.5
		C24,19.586,17.206,19.191,15.296,19.096z"/>
</g>
<g id="invisible_shape">
	<rect fill="none" width="24" height="24"/>
</g>
</svg>
