<?xml version="1.0" encoding="utf-8"?>
<!-- Generator: Adobe Illustrator 19.2.0, SVG Export Plug-In . SVG Version: 6.00 Build 0)  -->
<svg version="1.1" xmlns="http://www.w3.org/2000/svg" xmlns:xlink="http://www.w3.org/1999/xlink" x="0px" y="0px" width="24px"
	 height="24px" viewBox="0 0 24 24" enable-background="new 0 0 24 24" xml:space="preserve">
<g id="Filled_Icons_1_">
	<g>
		<path d="M11.5,6h-2C9.224,6,9,6.223,9,6.5C9,6.776,9.224,7,9.5,7h2C11.776,7,12,6.776,12,6.5C12,6.223,11.776,6,11.5,6z"/>
		<path d="M11.5,0c-4.963,0-9,4.038-9,9c0,4.123,2.856,7.75,6.832,8.735l1.687,5.902C11.081,23.852,11.277,24,11.5,24
			c0.223,0,0.419-0.148,0.481-0.363l1.686-5.902C17.645,16.75,20.5,13.123,20.5,9C20.5,4.038,16.462,0,11.5,0z M7,4.5
			C7,4.223,7.224,4,7.5,4h6C13.776,4,14,4.223,14,4.5V8H7V4.5z M17,7h-1v3.5c0,0.276-0.224,0.5-0.5,0.5H14v2.5
			c0,0.276-0.224,0.5-0.5,0.5h-6C7.224,14,7,13.776,7,13.5V9h7v1h1V6.5C15,6.223,15.224,6,15.5,6H17c0.276,0,0.5,0.223,0.5,0.5
			C17.5,6.776,17.276,7,17,7z"/>
	</g>
</g>
<g id="invisible_shape">
	<rect fill="none" width="24" height="24"/>
</g>
</svg>
