<?xml version="1.0" encoding="utf-8"?>
<!-- Generator: Adobe Illustrator 19.2.0, SVG Export Plug-In . SVG Version: 6.00 Build 0)  -->
<svg version="1.1" xmlns="http://www.w3.org/2000/svg" xmlns:xlink="http://www.w3.org/1999/xlink" x="0px" y="0px" width="24px"
	 height="24px" viewBox="0 0 24 24" enable-background="new 0 0 24 24" xml:space="preserve">
<g id="Filled_Icons_1_">
	<path d="M11.5,0.006c-5.416,0-9.5,4.298-9.5,10c0,7.173,8.831,13.634,9.207,13.905c0.087,0.064,0.191,0.095,0.293,0.095
		s0.206-0.031,0.293-0.095C12.168,23.64,21,17.179,21,10.006C21,4.305,16.916,0.006,11.5,0.006z M15.519,14.021
		c-0.007,0-0.013,0-0.019,0h-8c-0.276,0-0.5-0.224-0.5-0.5c0-1.84,1.112-3.419,2.697-4.117C8.975,8.856,8.5,7.996,8.5,7.021
		c0-1.654,1.346-3,3-3s3,1.346,3,3c0,0.977-0.476,1.837-1.2,2.385c1.687,0.741,2.72,2.426,2.72,4.115
		C16.02,13.797,15.796,14.021,15.519,14.021z"/>
</g>
<g id="invisible_shape">
	<rect fill="none" width="24" height="24"/>
</g>
</svg>
