<?xml version="1.0" encoding="utf-8"?>
<!-- Generator: Adobe Illustrator 19.2.0, SVG Export Plug-In . SVG Version: 6.00 Build 0)  -->
<svg version="1.1" xmlns="http://www.w3.org/2000/svg" xmlns:xlink="http://www.w3.org/1999/xlink" x="0px" y="0px" width="24px"
	 height="24px" viewBox="0 0 24 24" enable-background="new 0 0 24 24" xml:space="preserve">
<g id="Filled_Icons_1_">
	<g>
		<path d="M18.457,17.299C18.378,17.117,18.198,17,18,17H7c-0.198,0-0.378,0.117-0.457,0.299c-0.081,0.181-0.045,0.393,0.088,0.539
			l5.5,6C12.226,23.942,12.36,24,12.5,24c0.14,0,0.273-0.058,0.369-0.162l5.5-6C18.502,17.691,18.537,17.48,18.457,17.299z"/>
		<path d="M12.5,0C8.364,0,5,3.365,5,7.5S8.364,15,12.5,15S20,11.635,20,7.5S16.636,0,12.5,0z M12.5,11.5c-2.206,0-4-1.794-4-4
			c0-2.206,1.794-4,4-4c2.206,0,4,1.794,4,4C16.5,9.706,14.706,11.5,12.5,11.5z"/>
	</g>
</g>
<g id="invisible_shape">
	<rect fill="none" width="24" height="24"/>
</g>
</svg>
