<?xml version="1.0" encoding="utf-8"?>
<!-- Generator: Adobe Illustrator 19.2.0, SVG Export Plug-In . SVG Version: 6.00 Build 0)  -->
<svg version="1.1" xmlns="http://www.w3.org/2000/svg" xmlns:xlink="http://www.w3.org/1999/xlink" x="0px" y="0px" width="24px"
	 height="24px" viewBox="0 0 24 24" enable-background="new 0 0 24 24" xml:space="preserve">
<g id="Filled_Icons">
	<path d="M10.5,0c-4.515,0-7,2.486-7,7c0,2.469,1.768,5.117,3.477,7.679C8.531,17.01,10,19.21,10,21v2.5c0,0.275,0.224,0.5,0.5,0.5
		c0.275,0,0.5-0.225,0.5-0.5V21c0-1.79,1.468-3.99,3.023-6.321C15.731,12.117,17.5,9.469,17.5,7C17.5,2.486,15.014,0,10.5,0z M13,8
		h-2v2c0,0.275-0.225,0.5-0.5,0.5c-0.276,0-0.5-0.225-0.5-0.5V8H8C7.724,8,7.5,7.775,7.5,7.5C7.5,7.223,7.724,7,8,7h2V5
		c0-0.277,0.224-0.5,0.5-0.5C10.775,4.5,11,4.723,11,5v2h2c0.275,0,0.5,0.223,0.5,0.5C13.5,7.775,13.275,8,13,8z"/>
</g>
<g id="invisible_shape">
	<rect fill="none" width="24" height="24"/>
</g>
</svg>
