<?xml version="1.0" encoding="utf-8"?>
<!-- Generator: Adobe Illustrator 19.2.0, SVG Export Plug-In . SVG Version: 6.00 Build 0)  -->
<svg version="1.1" xmlns="http://www.w3.org/2000/svg" xmlns:xlink="http://www.w3.org/1999/xlink" x="0px" y="0px" width="24px"
	 height="24px" viewBox="0 0 24 24" enable-background="new 0 0 24 24" xml:space="preserve">
<g id="Filled_Icons_1_">
	<path d="M11.5,0.006c-5.416,0-9.5,4.298-9.5,10c0,7.173,8.831,13.634,9.207,13.905c0.087,0.064,0.191,0.095,0.293,0.095
		s0.205-0.031,0.293-0.095C12.168,23.64,21,17.179,21,10.006C21,4.305,16.916,0.006,11.5,0.006z M11.5,15.006
		c-3.033,0-5.5-2.468-5.5-5.5c0-3.033,2.467-5.5,5.5-5.5c3.032,0,5.5,2.467,5.5,5.5C17,12.539,14.532,15.006,11.5,15.006z"/>
</g>
<g id="invisible_shape">
	<rect fill="none" width="24" height="24"/>
</g>
</svg>
