<?xml version="1.0" encoding="utf-8"?>
<!-- Generator: Adobe Illustrator 19.2.0, SVG Export Plug-In . SVG Version: 6.00 Build 0)  -->
<svg version="1.1" xmlns="http://www.w3.org/2000/svg" xmlns:xlink="http://www.w3.org/1999/xlink" x="0px" y="0px" width="24px"
	 height="24px" viewBox="0 0 24 24" enable-background="new 0 0 24 24" xml:space="preserve">
<g id="Filled_Icons_1_">
	<g>
		<path d="M5.59,7C2.508,7,0,9.508,0,12.59c0,2.957,4.994,8.97,5.206,9.226c0.095,0.114,0.235,0.18,0.384,0.18
			c0.148,0,0.289-0.066,0.384-0.18c0.212-0.255,5.204-6.269,5.204-9.226C11.178,9.508,8.671,7,5.59,7z M5.59,14.998
			c-1.329,0-2.409-1.08-2.409-2.408c0-1.328,1.08-2.409,2.409-2.409c1.328,0,2.408,1.08,2.408,2.409
			C7.998,13.918,6.918,14.998,5.59,14.998z"/>
		<g>
			<path d="M14.5,24H5.59c-0.276,0-0.5-0.224-0.5-0.5c0-0.277,0.224-0.5,0.5-0.5H14v-8.5c0-0.277,0.224-0.5,0.5-0.5h5
				c0.276,0,0.5,0.223,0.5,0.5c0,0.276-0.224,0.5-0.5,0.5H15v8.5C15,23.776,14.776,24,14.5,24z"/>
		</g>
		<path d="M19.5,1C17.019,1,15,3.019,15,5.5c0,2.324,3.694,6.815,4.116,7.321C19.211,12.934,19.352,13,19.5,13
			s0.289-0.066,0.384-0.179C20.305,12.315,24,7.824,24,5.5C24,3.019,21.981,1,19.5,1z M19.5,7.5c-1.103,0-2-0.898-2-2
			c0-1.103,0.897-2,2-2c1.103,0,2,0.897,2,2C21.5,6.602,20.603,7.5,19.5,7.5z"/>
	</g>
</g>
<g id="invisible_shape">
	<rect fill="none" width="24" height="24"/>
</g>
</svg>
