<?xml version="1.0" encoding="utf-8"?>
<!-- Generator: Adobe Illustrator 19.2.0, SVG Export Plug-In . SVG Version: 6.00 Build 0)  -->
<svg version="1.1" xmlns="http://www.w3.org/2000/svg" xmlns:xlink="http://www.w3.org/1999/xlink" x="0px" y="0px" width="24px"
	 height="24px" viewBox="0 0 24 24" enable-background="new 0 0 24 24" xml:space="preserve">
<g id="Filled_Icons_1_">
	<path d="M11.5,0C6.084,0,2,4.298,2,10c0,7.173,8.831,13.634,9.207,13.905C11.294,23.969,11.398,24,11.5,24s0.206-0.031,0.293-0.095
		C12.168,23.634,21,17.173,21,10C21,4.298,16.916,0,11.5,0z M12.364,3.051c2.285,0.28,4.173,1.847,4.916,3.951h-2.969
		c-0.31-1.363-0.99-2.652-2.052-3.805C12.294,3.148,12.329,3.102,12.364,3.051z M13.408,10.002H9.852
		C9.731,9.325,9.707,8.656,9.779,8h3.702C13.553,8.656,13.529,9.324,13.408,10.002z M11.627,3.998
		c0.823,0.93,1.377,1.941,1.663,3.004H9.971C10.256,5.942,10.809,4.931,11.627,3.998z M10.88,3.048
		c0.037,0.053,0.074,0.102,0.111,0.153C9.936,4.356,9.258,5.644,8.948,7.002h-3.02C6.632,4.873,8.509,3.324,10.88,3.048z
		 M5.625,8.882c0-0.3,0.028-0.592,0.07-0.882h3.085c-0.06,0.658-0.033,1.327,0.073,2.002H5.73C5.664,9.639,5.625,9.265,5.625,8.882z
		 M10.881,14.951C8.631,14.67,6.767,13.108,6.003,11h3.061c0.351,1.271,0.994,2.551,1.928,3.8
		C10.955,14.85,10.918,14.899,10.881,14.951z M11.628,13.969c-0.709-0.988-1.218-1.982-1.527-2.969h3.058
		C12.848,11.987,12.338,12.982,11.628,13.969z M12.362,14.949c-0.034-0.049-0.068-0.097-0.104-0.144
		c0.003-0.003,0.005-0.007,0.008-0.011c0.935-1.246,1.577-2.524,1.928-3.794h3.074C16.518,13.102,14.639,14.663,12.362,14.949z
		 M17.531,10.002h-3.126C14.511,9.327,14.539,8.658,14.479,8h3.059c0.054,0.321,0.088,0.646,0.088,0.98
		C17.625,9.329,17.589,9.668,17.531,10.002z"/>
</g>
<g id="invisible_shape">
	<rect fill="none" width="24" height="24"/>
</g>
</svg>
