<?xml version="1.0" encoding="utf-8"?>
<!-- Generator: Adobe Illustrator 19.2.0, SVG Export Plug-In . SVG Version: 6.00 Build 0)  -->
<svg version="1.1" xmlns="http://www.w3.org/2000/svg" xmlns:xlink="http://www.w3.org/1999/xlink" x="0px" y="0px" width="24px"
	 height="24px" viewBox="0 0 24 24" enable-background="new 0 0 24 24" xml:space="preserve">
<g id="Filled_Icons">
	<path d="M10.5,0c-4.515,0-7,2.486-7,7c0,2.469,1.768,5.117,3.477,7.679C8.531,17.01,10,19.21,10,21v2.5c0,0.275,0.224,0.5,0.5,0.5
		c0.275,0,0.5-0.225,0.5-0.5V21c0-1.79,1.468-3.99,3.023-6.321C15.731,12.117,17.5,9.469,17.5,7C17.5,2.486,15.014,0,10.5,0z
		 M13.854,5.854l-1.311,1.31l0.447,2.238c0.04,0.202-0.049,0.41-0.224,0.52c-0.175,0.111-0.4,0.102-0.566-0.023l-1.7-1.274
		L8.8,9.899c-0.166,0.125-0.392,0.134-0.566,0.023c-0.176-0.11-0.265-0.318-0.224-0.52l0.447-2.238l-1.31-1.31
		C7.003,5.71,6.96,5.496,7.038,5.309C7.115,5.122,7.298,5,7.5,5h1.69l0.862-1.724c0.17-0.338,0.725-0.338,0.895,0L11.809,5H13.5
		c0.202,0,0.385,0.122,0.462,0.309C14.039,5.496,13.996,5.71,13.854,5.854z"/>
</g>
<g id="invisible_shape">
	<rect fill="none" width="24" height="24"/>
</g>
</svg>
