<?xml version="1.0" encoding="utf-8"?>
<!-- Generator: Adobe Illustrator 19.2.0, SVG Export Plug-In . SVG Version: 6.00 Build 0)  -->
<svg version="1.1" xmlns="http://www.w3.org/2000/svg" xmlns:xlink="http://www.w3.org/1999/xlink" x="0px" y="0px" width="24px"
	 height="24px" viewBox="0 0 24 24" enable-background="new 0 0 24 24" xml:space="preserve">
<g id="Filled_Icons_1_">
	<path d="M11.5,0C6.084,0,2,4.298,2,10c0,7.173,8.831,13.634,9.207,13.905C11.294,23.969,11.398,24,11.5,24s0.206-0.031,0.293-0.095
		C12.168,23.634,21,17.173,21,10C21,4.298,16.916,0,11.5,0z M13.5,4C13.775,4,14,4.224,14,4.5C14,4.776,13.775,5,13.5,5
		C13.224,5,13,4.776,13,4.5C13,4.224,13.224,4,13.5,4z M12.5,3C12.775,3,13,3.224,13,3.5C13,3.776,12.775,4,12.5,4
		C12.224,4,12,3.776,12,3.5C12,3.224,12.224,3,12.5,3z M10.5,4C10.775,4,11,4.224,11,4.5C11,4.776,10.775,5,10.5,5
		C10.224,5,10,4.776,10,4.5C10,4.224,10.224,4,10.5,4z M15,8.5c0,1.759-1.309,3.204-3,3.449V15h1c0.276,0,0.5,0.223,0.5,0.5
		c0,0.276-0.224,0.5-0.5,0.5h-3c-0.276,0-0.5-0.224-0.5-0.5c0-0.277,0.224-0.5,0.5-0.5h1v-3.051c-1.691-0.245-3-1.69-3-3.449v-2
		C8,6.223,8.224,6,8.5,6h6C14.776,6,15,6.223,15,6.5V8.5z"/>
</g>
<g id="invisible_shape">
	<rect fill="none" width="24" height="24"/>
</g>
</svg>
