<?xml version="1.0" encoding="utf-8"?>
<!-- Generator: Adobe Illustrator 19.2.0, SVG Export Plug-In . SVG Version: 6.00 Build 0)  -->
<svg version="1.1" xmlns="http://www.w3.org/2000/svg" xmlns:xlink="http://www.w3.org/1999/xlink" x="0px" y="0px" width="24px"
	 height="24px" viewBox="0 0 24 24" enable-background="new 0 0 24 24" xml:space="preserve">
<g id="Filled_Icons">
	<g>
		<path d="M20.5,14h-17C3.224,14,3,14.224,3,14.5v9C3,23.776,3.224,24,3.5,24h4.247L12,20.173L16.253,24H20.5
			c0.276,0,0.5-0.224,0.5-0.5v-9C21,14.224,20.776,14,20.5,14z M7,23.327v-7.654l4.253,3.827L7,23.327z M7.747,15h8.506L12,18.827
			L7.747,15z M17,23.327L12.747,19.5L17,15.673V23.327z"/>
		<path d="M23.931,12.247l-5-8.5c-0.052-0.088-0.129-0.158-0.222-0.201l-6.5-3c-0.133-0.061-0.286-0.061-0.419,0l-6.5,3
			c-0.093,0.043-0.17,0.113-0.222,0.201l-5,8.5C-0.126,12.579,0.113,13,0.5,13h23C23.887,13,24.126,12.579,23.931,12.247z M15,9.5
			c0,0.276-0.224,0.5-0.5,0.5h-5C9.224,10,9,9.776,9,9.5v-3c0-0.205,0.125-0.388,0.314-0.464l2.5-1c0.119-0.047,0.252-0.047,0.371,0
			l2.5,1C14.875,6.112,15,6.295,15,6.5V9.5z"/>
	</g>
</g>
<g id="invisible_shape">
	<rect fill="none" width="24" height="24"/>
</g>
</svg>
