<?xml version="1.0" encoding="utf-8"?>
<!-- Generator: Adobe Illustrator 19.2.0, SVG Export Plug-In . SVG Version: 6.00 Build 0)  -->
<svg version="1.1" xmlns="http://www.w3.org/2000/svg" xmlns:xlink="http://www.w3.org/1999/xlink" x="0px" y="0px" width="24px"
	 height="24px" viewBox="0 0 24 24" enable-background="new 0 0 24 24" xml:space="preserve">
<g id="Filled_Icons_1_">
	<path d="M11.5,0C6.084,0,2,4.298,2,10c0,7.173,8.831,13.634,9.207,13.905C11.294,23.969,11.398,24,11.5,24s0.206-0.031,0.293-0.095
		C12.168,23.634,21,17.173,21,10C21,4.298,16.916,0,11.5,0z M15.171,10.449c-0.086,0.177-0.265,0.278-0.449,0.278
		c-0.073,0-0.148-0.016-0.22-0.051L14,10.431V14.5c0,0.276-0.224,0.5-0.5,0.5h-4C9.224,15,9,14.776,9,14.5v-4.092l-0.56,0.271
		c-0.25,0.119-0.547,0.015-0.668-0.232c-0.12-0.25-0.017-0.549,0.232-0.668L11,8.331V6H9.5C9.224,6,9,5.776,9,5.5
		C9,5.223,9.224,5,9.5,5H11V3.5C11,3.223,11.224,3,11.5,3S12,3.223,12,3.5V5h1.5C13.776,5,14,5.223,14,5.5C14,5.776,13.776,6,13.5,6
		H12v2.333l2.943,1.448C15.19,9.902,15.293,10.201,15.171,10.449z"/>
</g>
<g id="invisible_shape">
	<rect fill="none" width="24" height="24"/>
</g>
</svg>
