<?xml version="1.0" encoding="utf-8"?>
<!-- Generator: Adobe Illustrator 19.2.0, SVG Export Plug-In . SVG Version: 6.00 Build 0)  -->
<svg version="1.1" xmlns="http://www.w3.org/2000/svg" xmlns:xlink="http://www.w3.org/1999/xlink" x="0px" y="0px" width="24px"
	 height="24px" viewBox="0 0 24 24" enable-background="new 0 0 24 24" xml:space="preserve">
<g id="Filled_Icons_1_">
	<g>
		<circle cx="11.5" cy="9.5" r="2"/>
		<path d="M11.5,0C6.084,0,2,4.298,2,10c0,7.173,8.831,13.634,9.207,13.905C11.294,23.969,11.398,24,11.5,24
			s0.206-0.031,0.293-0.095C12.168,23.634,21,17.173,21,10C21,4.298,16.916,0,11.5,0z M17,11.5c0,0.827-0.673,1.5-1.5,1.5h-8
			C6.673,13,6,12.327,6,11.5v-4C6,6.672,6.673,6,7.5,5.994h1.69l0.086-0.165C9.531,5.318,10.046,5,10.618,4.994h2.264
			C13.454,5,13.968,5.318,14.224,5.83l0.085,0.164H15.5C16.327,6,17,6.672,17,7.5V11.5z"/>
	</g>
</g>
<g id="invisible_shape">
	<rect fill="none" width="24" height="24"/>
</g>
</svg>
