<?xml version="1.0" encoding="utf-8"?>
<!-- Generator: Adobe Illustrator 19.2.0, SVG Export Plug-In . SVG Version: 6.00 Build 0)  -->
<svg version="1.1" xmlns="http://www.w3.org/2000/svg" xmlns:xlink="http://www.w3.org/1999/xlink" x="0px" y="0px" width="24px"
	 height="24px" viewBox="0 0 24 24" enable-background="new 0 0 24 24" xml:space="preserve">
<g id="Filled_Icons_1_">
	<path d="M11.5,0c-4.963,0-9,4.038-9,9c0,4.125,2.856,7.75,6.832,8.735l1.687,5.902C11.081,23.852,11.277,24,11.5,24
		c0.223,0,0.419-0.148,0.481-0.363l1.686-5.902C17.645,16.75,20.5,13.125,20.5,9C20.5,4.038,16.462,0,11.5,0z M10.307,15.201
		l1.141-6.207H8.722l1.89-6h3.539l-0.725,4h2.663L10.307,15.201z"/>
</g>
<g id="invisible_shape">
	<rect fill="none" width="24" height="24"/>
</g>
</svg>
