<?xml version="1.0" encoding="utf-8"?>
<!-- Generator: Adobe Illustrator 19.2.0, SVG Export Plug-In . SVG Version: 6.00 Build 0)  -->
<svg version="1.1" xmlns="http://www.w3.org/2000/svg" xmlns:xlink="http://www.w3.org/1999/xlink" x="0px" y="0px" width="24px"
	 height="24px" viewBox="0 0 24 24" enable-background="new 0 0 24 24" xml:space="preserve">
<g id="Filled_Icons_1_">
	<g>
		<path d="M11.5,0C6.084,0,2,4.298,2,10c0,7.173,8.831,13.634,9.207,13.905C11.294,23.969,11.398,24,11.5,24
			s0.206-0.031,0.293-0.095C12.168,23.634,21,17.173,21,10C21,4.298,16.916,0,11.5,0z M17.5,10h-1.551
			c-0.233,2.077-1.872,3.717-3.949,3.949V15.5c0,0.276-0.224,0.5-0.5,0.5S11,15.776,11,15.5v-1.551
			C8.922,13.717,7.284,12.077,7.051,10H5.5C5.224,10,5,9.776,5,9.5C5,9.223,5.224,9,5.5,9h1.551C7.284,6.922,8.922,5.284,11,5.051
			V3.5C11,3.223,11.224,3,11.5,3S12,3.223,12,3.5v1.551C14.077,5.284,15.716,6.922,15.949,9H17.5C17.776,9,18,9.223,18,9.5
			C18,9.776,17.776,10,17.5,10z"/>
		<path d="M13.5,9h1.449C14.727,7.473,13.527,6.272,12,6.051V7.5C12,7.776,11.776,8,11.5,8S11,7.776,11,7.5V6.051
			C9.473,6.272,8.272,7.473,8.051,9H9.5C9.776,9,10,9.223,10,9.5C10,9.776,9.776,10,9.5,10H8.051
			c0.221,1.526,1.422,2.727,2.949,2.949V11.5c0-0.277,0.224-0.5,0.5-0.5s0.5,0.223,0.5,0.5v1.449
			c1.527-0.222,2.727-1.423,2.949-2.949H13.5C13.224,10,13,9.776,13,9.5C13,9.223,13.224,9,13.5,9z"/>
	</g>
</g>
<g id="invisible_shape">
	<rect fill="none" width="24" height="24"/>
</g>
</svg>
