<?xml version="1.0" encoding="utf-8"?>
<!-- Generator: Adobe Illustrator 19.2.0, SVG Export Plug-In . SVG Version: 6.00 Build 0)  -->
<svg version="1.1" xmlns="http://www.w3.org/2000/svg" xmlns:xlink="http://www.w3.org/1999/xlink" x="0px" y="0px" width="24px"
	 height="24px" viewBox="0 0 24 24" enable-background="new 0 0 24 24" xml:space="preserve">
<g id="Filled_Icons">
	<g>
		<path d="M16.474,20.348c-0.087-0.262-0.368-0.404-0.632-0.316L11.5,21.479l-4.342-1.448c-0.264-0.087-0.545,0.054-0.633,0.316
			C6.438,20.61,6.58,20.894,6.842,20.98l3.076,1.026l-3.076,1.025c-0.262,0.087-0.403,0.371-0.316,0.633
			C6.596,23.874,6.79,24.006,7,24.006c0.052,0,0.106-0.009,0.158-0.026l4.342-1.447l4.342,1.447
			c0.053,0.018,0.106,0.026,0.158,0.026c0.209,0,0.404-0.133,0.474-0.342c0.088-0.262-0.054-0.545-0.315-0.633l-3.077-1.025
			l3.077-1.026C16.42,20.894,16.562,20.61,16.474,20.348z"/>
		<path d="M11,18.506v1.5c0,0.275,0.224,0.5,0.5,0.5s0.5-0.225,0.5-0.5v-1.5c0-1.353,1.357-3.45,2.67-5.478
			c1.455-2.25,2.83-4.375,2.83-6.022c0-4.646-2.019-7-6-7s-6,2.355-6,7c0,1.648,1.374,3.772,2.83,6.022
			C9.643,15.056,11,17.154,11,18.506z M11.5,3.006c1.654,0,3,1.345,3,3c0,1.655-1.346,3-3,3s-3-1.345-3-3
			C8.5,4.352,9.846,3.006,11.5,3.006z"/>
	</g>
</g>
<g id="invisible_shape">
	<rect fill="none" width="24" height="24"/>
</g>
</svg>
