<?xml version="1.0" encoding="utf-8"?>
<!-- Generator: Adobe Illustrator 19.2.0, SVG Export Plug-In . SVG Version: 6.00 Build 0)  -->
<svg version="1.1" xmlns="http://www.w3.org/2000/svg" xmlns:xlink="http://www.w3.org/1999/xlink" x="0px" y="0px" width="24px"
	 height="24px" viewBox="0 0 24 24" enable-background="new 0 0 24 24" xml:space="preserve">
<g id="Filled_Icons_1_">
	<g>
		<path d="M11.5,0.006c-4.963,0-9,4.038-9,9c0,4.125,2.856,7.75,6.832,8.735l1.687,5.902c0.062,0.215,0.258,0.363,0.481,0.363
			c0.223,0,0.419-0.148,0.481-0.363l1.686-5.902c3.977-0.985,6.833-4.61,6.833-8.735C20.5,4.044,16.462,0.006,11.5,0.006z
			 M17.045,11.506c0,0.827-0.673,1.5-1.5,1.5h-8c-0.827,0-1.5-0.673-1.545-1.5v-4c0.045-0.828,0.718-1.5,1.545-1.5h1.691
			l0.086-0.171C9.577,5.325,10.091,5.006,10.663,5h2.264c0.572,0.006,1.086,0.325,1.342,0.836l0.085,0.17h1.191
			c0.827,0,1.5,0.672,1.5,1.5V11.506z"/>
		<circle cx="11.545" cy="9.506" r="2"/>
	</g>
</g>
<g id="invisible_shape">
	<rect fill="none" width="24" height="24"/>
</g>
</svg>
