<?xml version="1.0" encoding="utf-8"?>
<!-- Generator: Adobe Illustrator 19.2.0, SVG Export Plug-In . SVG Version: 6.00 Build 0)  -->
<svg version="1.1" xmlns="http://www.w3.org/2000/svg" xmlns:xlink="http://www.w3.org/1999/xlink" x="0px" y="0px" width="24px"
	 height="24px" viewBox="0 0 24 24" enable-background="new 0 0 24 24" xml:space="preserve">
<g id="Filled_Icons_1_">
	<g>
		<path d="M11.5,6.006c-4.078,0-7.152,3.234-7.152,7.522c0,5.367,6.579,10.182,6.859,10.383c0.087,0.064,0.191,0.095,0.293,0.095
			s0.206-0.031,0.293-0.095c0.28-0.201,6.859-5.016,6.859-10.383C18.652,9.241,15.577,6.006,11.5,6.006z M11.5,17.006
			c-2.206,0-4-1.794-4-4c0-2.206,1.794-4,4-4c2.206,0,4,1.794,4,4C15.5,15.212,13.706,17.006,11.5,17.006z"/>
		<path d="M11.5,3.964c0.276,0,0.5-0.224,0.5-0.5V0.506c0-0.277-0.224-0.5-0.5-0.5S11,0.229,11,0.506v2.958
			C11,3.741,11.224,3.964,11.5,3.964z"/>
		<path d="M15.741,5.021c0.075,0.041,0.156,0.059,0.235,0.059c0.179,0,0.352-0.095,0.442-0.265l1.408-2.649
			c0.13-0.245,0.037-0.546-0.207-0.677c-0.244-0.13-0.547-0.037-0.676,0.208l-1.408,2.648C15.405,4.589,15.498,4.891,15.741,5.021z"
			/>
		<path d="M22.307,5.706c-0.154-0.228-0.465-0.288-0.694-0.135l-2.486,1.68c-0.229,0.154-0.29,0.466-0.135,0.694
			c0.097,0.143,0.255,0.22,0.415,0.22c0.097,0,0.193-0.028,0.279-0.086L22.172,6.4C22.401,6.246,22.461,5.936,22.307,5.706z"/>
		<path d="M6.582,4.814c0.09,0.17,0.263,0.265,0.441,0.265c0.079,0,0.16-0.018,0.234-0.059c0.244-0.129,0.337-0.432,0.207-0.676
			L6.057,1.697C5.927,1.452,5.623,1.358,5.38,1.489c-0.244,0.13-0.337,0.432-0.207,0.677L6.582,4.814z"/>
		<path d="M1.387,5.573c-0.229-0.156-0.54-0.095-0.693,0.133C0.539,5.935,0.599,6.246,0.827,6.4l2.485,1.679
			c0.086,0.058,0.184,0.086,0.279,0.086c0.161,0,0.318-0.077,0.415-0.22c0.154-0.228,0.095-0.54-0.134-0.693L1.387,5.573z"/>
	</g>
</g>
<g id="invisible_shape">
	<rect fill="none" width="24" height="24"/>
</g>
</svg>
