<?xml version="1.0" encoding="utf-8"?>
<!-- Generator: Adobe Illustrator 19.2.0, SVG Export Plug-In . SVG Version: 6.00 Build 0)  -->
<svg version="1.1" xmlns="http://www.w3.org/2000/svg" xmlns:xlink="http://www.w3.org/1999/xlink" x="0px" y="0px" width="24px"
	 height="24px" viewBox="0 0 24 24" enable-background="new 0 0 24 24" xml:space="preserve">
<g id="Filled_Icons">
	<path d="M11.5,0.006c-4.411,0-8,3.588-8,8c0,4.244,7.273,15.307,7.583,15.775c0.092,0.139,0.249,0.225,0.417,0.225
		s0.324-0.085,0.417-0.225C12.227,23.313,19.5,12.25,19.5,8.006C19.5,3.595,15.911,0.006,11.5,0.006z M14.854,11.152
		c0.195,0.196,0.195,0.512,0,0.708c-0.098,0.097-0.226,0.146-0.354,0.146s-0.256-0.049-0.354-0.146L11.5,9.213L8.854,11.86
		c-0.098,0.097-0.226,0.146-0.354,0.146s-0.256-0.049-0.354-0.146c-0.195-0.196-0.195-0.512,0-0.708l2.647-2.646L8.146,5.86
		c-0.195-0.196-0.195-0.512,0-0.708c0.195-0.195,0.512-0.195,0.707,0L11.5,7.799l2.646-2.647c0.195-0.195,0.512-0.195,0.707,0
		c0.195,0.196,0.195,0.512,0,0.708l-2.647,2.646L14.854,11.152z"/>
</g>
<g id="invisible_shape">
	<rect fill="none" width="24" height="24"/>
</g>
</svg>
