<?xml version="1.0" encoding="utf-8"?>
<!-- Generator: Adobe Illustrator 19.2.0, SVG Export Plug-In . SVG Version: 6.00 Build 0)  -->
<svg version="1.1" xmlns="http://www.w3.org/2000/svg" xmlns:xlink="http://www.w3.org/1999/xlink" x="0px" y="0px" width="24px"
	 height="24px" viewBox="0 0 24 24" enable-background="new 0 0 24 24" xml:space="preserve">
<g id="Filled_Icons">
	<path d="M18.605,23.017l-4.719-1.011l4.719-1.012c0.27-0.057,0.442-0.324,0.384-0.594c-0.058-0.27-0.321-0.442-0.594-0.384
		L12,21.387V8.976c2.247-0.249,4-2.158,4-4.47c0-2.481-2.019-4.5-4.5-4.5S7,2.025,7,4.506c0,2.312,1.753,4.221,4,4.47v12.411
		l-6.395-1.37c-0.273-0.057-0.536,0.114-0.594,0.384c-0.058,0.27,0.114,0.537,0.384,0.594l4.719,1.012l-4.719,1.011
		c-0.269,0.058-0.441,0.324-0.384,0.593c0.059,0.274,0.328,0.443,0.594,0.384l6.895-1.478l6.895,1.478
		c0.272,0.059,0.537-0.115,0.594-0.384C19.047,23.341,18.875,23.075,18.605,23.017z M11,2.506c0-0.277,0.224-0.5,0.5-0.5
		c1.378,0,2.5,1.121,2.5,2.5c0,0.275-0.224,0.5-0.5,0.5c-0.276,0-0.5-0.225-0.5-0.5c0-0.828-0.673-1.5-1.5-1.5
		C11.224,3.006,11,2.782,11,2.506z"/>
</g>
<g id="invisible_shape">
	<rect fill="none" width="24" height="24"/>
</g>
</svg>
