<?xml version="1.0" encoding="utf-8"?>
<!-- Generator: Adobe Illustrator 19.2.0, SVG Export Plug-In . SVG Version: 6.00 Build 0)  -->
<svg version="1.1" xmlns="http://www.w3.org/2000/svg" xmlns:xlink="http://www.w3.org/1999/xlink" x="0px" y="0px" width="24px"
	 height="24px" viewBox="0 0 24 24" enable-background="new 0 0 24 24" xml:space="preserve">
<g id="Filled_Icons">
	<g>
		<path d="M23.5,11c-0.018,0-0.035,0.006-0.053,0.006C23.185,8.958,21.851,1,17,1H7C2.149,1,0.815,8.958,0.553,11.006
			C0.535,11.006,0.518,11,0.5,11C0.224,11,0,11.225,0,11.5v4C0,15.777,0.224,16,0.5,16H4c0.276,0,0.5-0.223,0.5-0.5
			c0-0.346-0.059-1.178-0.142-1.5h15.283c-0.083,0.322-0.142,1.154-0.142,1.5c0,0.277,0.224,0.5,0.5,0.5h3.5
			c0.276,0,0.5-0.223,0.5-0.5v-4C24,11.225,23.776,11,23.5,11z M20.882,12h-3.447l2.396-6.505c0.997,2.017,1.521,4.728,1.669,6.062
			C21.279,11.686,21.073,11.833,20.882,12z M18.414,3.555l-2.408,6.537L13.428,3H17C17.521,3,17.991,3.21,18.414,3.555z M14.572,12
			H9.868l2.195-6.9L14.572,12z M10.632,3l-2.263,7.114L5.602,3.542C6.022,3.205,6.484,3,7,3H10.632z M4.214,5.398L6.994,12H3.118
			c-0.191-0.167-0.398-0.314-0.618-0.443C2.648,10.202,3.185,7.425,4.214,5.398z"/>
		<g>
			<path d="M0.626,21.535c2.093,0.444,3.918-1.823,3.937-1.846c0.204-0.255,0.648-0.229,0.82,0.045
				c0.012,0.018,1.173,1.821,3.191,1.821c2.105,0,3.145-1.733,3.188-1.807c0.177-0.301,0.675-0.309,0.86-0.014
				c0.011,0.018,1.174,1.821,3.191,1.821c2.104,0,3.145-1.733,3.189-1.807c0.178-0.3,0.674-0.31,0.86-0.014
				c0.058,0.09,1.4,2.203,3.534,1.754l0.603-0.144l-0.001-1.957c0-0.151-0.067-0.293-0.184-0.388
				c-0.116-0.094-0.272-0.13-0.417-0.102c-0.194,0.041-0.391,0.061-0.582,0.061c-1.79,0-2.941-1.797-2.952-1.815
				c-0.188-0.296-0.685-0.288-0.861,0.015c-0.01,0.018-1.066,1.806-3.187,1.806c-2.018,0-3.181-1.803-3.191-1.821
				c-0.187-0.296-0.685-0.288-0.861,0.016c-0.01,0.018-1.064,1.805-3.187,1.805c-2.018,0-3.18-1.803-3.191-1.821
				c-0.174-0.274-0.618-0.299-0.82-0.045c-0.015,0.02-1.52,1.899-3.392,1.899c-0.19,0-0.381-0.02-0.566-0.059
				c-0.153-0.033-0.303,0.005-0.419,0.1C0.068,19.135,0,19.278,0,19.429v1.943L0.626,21.535z"/>
			<path d="M23.614,22.464c-2.039,0.423-3.494-0.849-4.172-1.635c-0.586,0.684-1.781,1.725-3.629,1.725
				c-1.785,0-3.005-1.051-3.607-1.73c-0.584,0.684-1.779,1.73-3.632,1.73c-1.829,0-3.063-1.102-3.649-1.778
				C4.26,21.445,2.874,22.59,1.178,22.59c-0.255,0-0.515-0.025-0.782-0.082L0,22.405v1.093c0,0.277,0.224,0.5,0.5,0.5h23
				c0.133,0,0.26-0.052,0.354-0.146C23.947,23.759,24,23.631,24,23.499l-0.001-1.126L23.614,22.464z"/>
		</g>
	</g>
</g>
<g id="invisible_shape">
	<rect fill="none" width="24" height="24"/>
</g>
</svg>
