<?xml version="1.0" encoding="utf-8"?>
<!-- Generator: Adobe Illustrator 19.2.0, SVG Export Plug-In . SVG Version: 6.00 Build 0)  -->
<svg version="1.1" xmlns="http://www.w3.org/2000/svg" xmlns:xlink="http://www.w3.org/1999/xlink" x="0px" y="0px" width="24px"
	 height="24px" viewBox="0 0 24 24" enable-background="new 0 0 24 24" xml:space="preserve">
<g id="Filled_Icons_1_">
	<g>
		<path d="M11.5,7h-2C9.224,7,9,7.223,9,7.5C9,7.776,9.224,8,9.5,8h2C11.776,8,12,7.776,12,7.5C12,7.223,11.776,7,11.5,7z"/>
		<path d="M11.5,0C6.084,0,2,4.298,2,10c0,7.173,8.831,13.634,9.207,13.905C11.294,23.969,11.398,24,11.5,24
			s0.206-0.031,0.293-0.095C12.168,23.634,21,17.173,21,10C21,4.298,16.916,0,11.5,0z M7,5.5C7,5.223,7.224,5,7.5,5h6
			C13.776,5,14,5.223,14,5.5V9H7V5.5z M17,8h-1v3.5c0,0.276-0.224,0.5-0.5,0.5H14v2.5c0,0.276-0.224,0.5-0.5,0.5h-6
			C7.224,15,7,14.776,7,14.5V10h7v1h1V7.5C15,7.223,15.224,7,15.5,7H17c0.276,0,0.5,0.223,0.5,0.5C17.5,7.776,17.276,8,17,8z"/>
	</g>
</g>
<g id="invisible_shape">
	<rect fill="none" width="24" height="24"/>
</g>
</svg>
