<?xml version="1.0" encoding="utf-8"?>
<!-- Generator: Adobe Illustrator 19.2.0, SVG Export Plug-In . SVG Version: 6.00 Build 0)  -->
<svg version="1.1" xmlns="http://www.w3.org/2000/svg" xmlns:xlink="http://www.w3.org/1999/xlink" x="0px" y="0px" width="24px"
	 height="24px" viewBox="0 0 24 24" enable-background="new 0 0 24 24" xml:space="preserve">
<g id="Filled_Icons_1_">
	<path d="M12,6.006c-2.089,0-3.787,1.7-3.787,3.79c0,1.938,3.055,5.655,3.403,6.072c0.095,0.114,0.235,0.18,0.384,0.18
		s0.289-0.066,0.384-0.18c0.349-0.417,3.404-4.134,3.404-6.072C15.788,7.707,14.089,6.006,12,6.006z M12,11.526
		c-0.955,0-1.732-0.777-1.732-1.73c0-0.958,0.777-1.734,1.732-1.734c0.956,0,1.733,0.777,1.733,1.734
		C13.733,10.75,12.956,11.526,12,11.526z"/>
	<g>
		<path d="M6.813,9.574C6.601,9.396,6.285,9.425,6.108,9.637l-2.525,3.024C3.333,10.863,3.7,9.035,4.664,7.42
			c1.178-1.975,3.102-3.402,5.281-3.916c2.873-0.679,5.875,0.271,7.835,2.487c0.184,0.206,0.499,0.226,0.705,0.042
			c0.207-0.183,0.227-0.497,0.043-0.706c-2.204-2.491-5.582-3.564-8.815-2.796c-2.439,0.577-4.593,2.172-5.91,4.376
			c-0.894,1.499-1.325,3.164-1.292,4.839L0.915,9.367c-0.154-0.23-0.466-0.292-0.694-0.136c-0.228,0.154-0.29,0.464-0.136,0.694
			l2.787,4.15c0.088,0.131,0.231,0.212,0.389,0.221c0.009,0,0.018,0,0.026,0c0.148,0,0.288-0.065,0.384-0.179l3.205-3.838
			C7.053,10.066,7.024,9.75,6.813,9.574z"/>
		<path d="M23.488,13.668l-2.786-4.151c-0.088-0.13-0.232-0.212-0.389-0.221c-0.116-0.002-0.223,0.042-0.314,0.108
			c-0.021,0.014-0.04,0.029-0.059,0.044c-0.011,0.012-0.026,0.014-0.036,0.027l-0.045,0.053c-0.008,0.011-0.019,0.02-0.025,0.031
			l-3.136,3.752c-0.177,0.212-0.149,0.527,0.063,0.705c0.211,0.177,0.527,0.149,0.705-0.063l2.405-2.878
			c0.084,3.618-2.556,7.128-6.244,8c-2.696,0.64-5.486-0.146-7.465-2.095c-0.197-0.193-0.514-0.19-0.707,0.005
			c-0.193,0.198-0.191,0.514,0.005,0.707c1.715,1.69,3.972,2.601,6.307,2.601c0.693,0,1.395-0.081,2.09-0.245
			c4.039-0.955,6.891-4.553,7.021-8.476l1.781,2.652c0.096,0.144,0.254,0.221,0.415,0.221c0.096,0,0.193-0.026,0.279-0.084
			C23.581,14.208,23.642,13.897,23.488,13.668z"/>
	</g>
</g>
<g id="invisible_shape">
	<rect fill="none" width="24" height="24"/>
</g>
</svg>
