<?xml version="1.0" encoding="utf-8"?>
<!-- Generator: Adobe Illustrator 19.2.0, SVG Export Plug-In . SVG Version: 6.00 Build 0)  -->
<svg version="1.1" xmlns="http://www.w3.org/2000/svg" xmlns:xlink="http://www.w3.org/1999/xlink" x="0px" y="0px" width="24px"
	 height="24px" viewBox="0 0 24 24" enable-background="new 0 0 24 24" xml:space="preserve">
<g id="Filled_Icons_1_">
	<path d="M11.5,0c-4.963,0-9,4.038-9,9c0,4.125,2.856,7.75,6.832,8.735l1.687,5.902C11.081,23.852,11.277,24,11.5,24
		c0.223,0,0.419-0.148,0.481-0.363l1.686-5.902C17.645,16.75,20.5,13.125,20.5,9C20.5,4.038,16.462,0,11.5,0z M12.247,3.05
		C14.532,3.332,16.42,4.898,17.163,7h-2.969c-0.311-1.361-0.99-2.652-2.053-3.804C12.177,3.148,12.212,3.1,12.247,3.05z M13.291,10
		H9.734C9.614,9.323,9.59,8.655,9.662,8h3.702C13.436,8.655,13.412,9.323,13.291,10z M11.51,3.996
		C12.333,4.927,12.887,5.938,13.173,7H9.854C10.139,5.94,10.691,4.929,11.51,3.996z M10.763,3.047C10.8,3.1,10.837,3.15,10.874,3.2
		C9.818,4.355,9.141,5.643,8.831,7h-3.02C6.515,4.873,8.392,3.323,10.763,3.047z M5.508,8.88c0-0.301,0.028-0.593,0.07-0.88h3.086
		c-0.061,0.656-0.033,1.325,0.072,2H5.612C5.547,9.637,5.508,9.263,5.508,8.88z M10.764,14.95c-2.25-0.281-4.114-1.842-4.878-3.95
		h3.061c0.351,1.27,0.994,2.55,1.928,3.798C10.838,14.848,10.801,14.898,10.764,14.95z M11.511,13.967
		c-0.709-0.987-1.218-1.982-1.527-2.967h3.058C12.731,11.986,12.221,12.981,11.511,13.967z M12.245,14.947
		c-0.034-0.049-0.068-0.096-0.104-0.144c0.003-0.003,0.005-0.007,0.008-0.009c0.935-1.246,1.577-2.525,1.928-3.794h3.074
		C16.4,13.1,14.521,14.662,12.245,14.947z M17.415,10h-3.127c0.106-0.675,0.134-1.344,0.073-2h3.059
		c0.054,0.319,0.088,0.644,0.088,0.979C17.508,9.327,17.472,9.667,17.415,10z"/>
</g>
<g id="invisible_shape">
	<rect fill="none" width="24" height="24"/>
</g>
</svg>
