<?xml version="1.0" encoding="utf-8"?>
<!-- Generator: Adobe Illustrator 19.2.0, SVG Export Plug-In . SVG Version: 6.00 Build 0)  -->
<svg version="1.1" xmlns="http://www.w3.org/2000/svg" xmlns:xlink="http://www.w3.org/1999/xlink" x="0px" y="0px" width="24px"
	 height="24px" viewBox="0 0 24 24" enable-background="new 0 0 24 24" xml:space="preserve">
<g id="Filled_Icons">
	<g>
		<path d="M23.396,22.899c-2.137,0.444-3.477-1.664-3.534-1.754c-0.187-0.295-0.684-0.287-0.86,0.014
			c-0.043,0.074-1.084,1.807-3.189,1.807c-2.018,0-3.181-1.803-3.191-1.821c-0.186-0.294-0.684-0.287-0.86,0.014
			c-0.043,0.074-1.083,1.807-3.188,1.807c-2.018,0-3.18-1.803-3.191-1.821c-0.173-0.274-0.616-0.3-0.82-0.045
			c-0.019,0.023-1.855,2.291-3.958,1.842c-0.266-0.056-0.536,0.113-0.594,0.385c-0.058,0.27,0.115,0.535,0.385,0.593
			c0.268,0.057,0.527,0.083,0.782,0.083c1.696,0,3.082-1.146,3.747-1.815c0.586,0.678,1.82,1.779,3.649,1.779
			c1.853,0,3.048-1.046,3.632-1.729c0.602,0.678,1.822,1.729,3.607,1.729c1.848,0,3.043-1.041,3.629-1.725
			c0.678,0.787,2.132,2.056,4.157,1.639c0.271-0.057,0.444-0.322,0.388-0.592C23.932,23.017,23.662,22.847,23.396,22.899z"/>
		<path d="M18.274,1.945c0.247,0.126,0.545,0.026,0.671-0.217C18.949,1.72,19.329,1,20,1c0.281,0,0.401,0.109,0.646,0.354
			C20.919,1.627,21.293,2,22,2c1.294,0,1.921-1.224,1.947-1.275c0.123-0.246,0.023-0.544-0.222-0.669
			c-0.247-0.125-0.545-0.025-0.671,0.218C23.051,0.283,22.671,1,22,1c-0.281,0-0.401-0.108-0.646-0.353C21.081,0.375,20.707,0,20,0
			c-1.294,0-1.921,1.225-1.947,1.277C17.93,1.523,18.029,1.82,18.274,1.945z"/>
		<path d="M2.5,21C2.776,21,3,20.777,3,20.5V3.052L8.677,14H7.5C7.224,14,7,14.225,7,14.5C7,14.777,7.224,15,7.5,15H9v6.5
			C9,21.777,9.224,22,9.5,22s0.5-0.223,0.5-0.5V15h3v5c0,0.277,0.224,0.5,0.5,0.5S14,20.277,14,20v-5h3v6c0,0.277,0.224,0.5,0.5,0.5
			S18,21.277,18,21v-6h3v6c0,0.277,0.224,0.5,0.5,0.5S22,21.277,22,21v-6h1.5c0.276,0,0.5-0.223,0.5-0.5c0-0.275-0.224-0.5-0.5-0.5
			H22V8.5c0-1.758-1.309-3.204-3-3.449V3.5C19,3.225,18.776,3,18.5,3S18,3.225,18,3.5v1.551c-1.691,0.245-3,1.691-3,3.449V14h-1.263
			L2.888,0.685C2.548,0.322,2,0.563,2,1v19.5C2,20.777,2.224,21,2.5,21z"/>
	</g>
</g>
<g id="invisible_shape">
	<rect fill="none" width="24" height="24"/>
</g>
</svg>
