<?xml version="1.0" encoding="utf-8"?>
<!-- Generator: Adobe Illustrator 19.2.0, SVG Export Plug-In . SVG Version: 6.00 Build 0)  -->
<svg version="1.1" xmlns="http://www.w3.org/2000/svg" xmlns:xlink="http://www.w3.org/1999/xlink" x="0px" y="0px" width="24px"
	 height="24px" viewBox="0 0 24 24" enable-background="new 0 0 24 24" xml:space="preserve">
<g id="Filled_Icons_1_">
	<path d="M11.5,0.006c-5.416,0-9.5,4.298-9.5,10c0,7.173,8.831,13.634,9.207,13.905c0.087,0.064,0.191,0.095,0.293,0.095
		s0.206-0.031,0.293-0.095C12.168,23.64,21,17.179,21,10.006C21,4.305,16.916,0.006,11.5,0.006z M16.139,6.108l-6.777,7.113
		c-0.093,0.098-0.221,0.155-0.355,0.155c-0.002,0-0.004,0-0.006,0c-0.132,0-0.26-0.051-0.354-0.147l-2.5-2.5
		c-0.195-0.194-0.195-0.512,0-0.706c0.195-0.196,0.512-0.196,0.707,0l2.138,2.138l6.424-6.743c0.191-0.201,0.508-0.207,0.707-0.018
		C16.322,5.592,16.329,5.909,16.139,6.108z"/>
</g>
<g id="invisible_shape">
	<rect fill="none" width="24" height="24"/>
</g>
</svg>
