<?xml version="1.0" encoding="utf-8"?>
<!-- Generator: Adobe Illustrator 19.2.0, SVG Export Plug-In . SVG Version: 6.00 Build 0)  -->
<svg version="1.1" xmlns="http://www.w3.org/2000/svg" xmlns:xlink="http://www.w3.org/1999/xlink" x="0px" y="0px" width="24px"
	 height="24px" viewBox="0 0 24 24" enable-background="new 0 0 24 24" xml:space="preserve">
<g id="Filled_Icons_1_">
	<path d="M11.5,0.006c-5.416,0-9.5,4.298-9.5,10c0,7.173,8.831,13.634,9.207,13.905c0.087,0.064,0.191,0.095,0.293,0.095
		s0.206-0.031,0.293-0.095C12.168,23.64,21,17.179,21,10.006C21,4.305,16.916,0.006,11.5,0.006z M11,15.79l-4.757-2.854
		C6.092,12.845,6,12.683,6,12.506V6.791c0-0.18,0.097-0.346,0.253-0.435c0.157-0.089,0.35-0.087,0.504,0.006L11,8.909V15.79z
		 M11.781,7.729c-0.085,0.058-0.183,0.086-0.282,0.086c-0.099,0-0.197-0.028-0.282-0.086l-3-2.049
		C7.989,5.524,7.93,5.213,8.086,4.986c0.157-0.229,0.468-0.287,0.695-0.132l2.718,1.857l2.718-1.857
		c0.227-0.155,0.539-0.097,0.695,0.132c0.156,0.227,0.097,0.538-0.131,0.694L11.781,7.729z M17,12.506
		c0,0.177-0.093,0.338-0.243,0.429L12,15.79V8.909l4.243-2.546c0.154-0.093,0.347-0.095,0.504-0.006C16.903,6.444,17,6.61,17,6.791
		V12.506z"/>
</g>
<g id="invisible_shape">
	<rect fill="none" width="24" height="24"/>
</g>
</svg>
