<?xml version="1.0" encoding="utf-8"?>
<!-- Generator: Adobe Illustrator 19.2.0, SVG Export Plug-In . SVG Version: 6.00 Build 0)  -->
<svg version="1.1" xmlns="http://www.w3.org/2000/svg" xmlns:xlink="http://www.w3.org/1999/xlink" x="0px" y="0px" width="24px"
	 height="24px" viewBox="0 0 24 24" enable-background="new 0 0 24 24" xml:space="preserve">
<g id="Filled_Icons">
	<path d="M11.5,0.006c-4.515,0-7,2.486-7,7c0,2.469,1.768,5.117,3.477,7.679C9.531,17.016,11,19.216,11,21.006v2.5
		c0,0.275,0.224,0.5,0.5,0.5s0.5-0.225,0.5-0.5v-2.5c0-1.79,1.468-3.99,3.023-6.321c1.709-2.562,3.477-5.21,3.477-7.679
		C18.5,2.492,16.014,0.006,11.5,0.006z M13.854,9.152c0.195,0.196,0.195,0.512,0,0.708c-0.098,0.097-0.226,0.146-0.354,0.146
		s-0.256-0.049-0.354-0.146L11.5,8.213L9.854,9.86C9.756,9.958,9.628,10.006,9.5,10.006S9.244,9.958,9.146,9.86
		c-0.195-0.196-0.195-0.512,0-0.708l1.647-1.646L9.146,5.86c-0.195-0.196-0.195-0.512,0-0.708c0.195-0.195,0.512-0.195,0.707,0
		L11.5,6.799l1.646-1.647c0.195-0.195,0.512-0.195,0.707,0c0.195,0.196,0.195,0.512,0,0.708l-1.647,1.646L13.854,9.152z"/>
</g>
<g id="invisible_shape">
	<rect fill="none" width="24" height="24"/>
</g>
</svg>
