<?xml version="1.0" encoding="utf-8"?>
<!-- Generator: Adobe Illustrator 19.2.0, SVG Export Plug-In . SVG Version: 6.00 Build 0)  -->
<svg version="1.1" xmlns="http://www.w3.org/2000/svg" xmlns:xlink="http://www.w3.org/1999/xlink" x="0px" y="0px" width="24px"
	 height="24px" viewBox="0 0 24 24" enable-background="new 0 0 24 24" xml:space="preserve">
<g id="Filled_Icons_1_">
	<path d="M11.5,0c-4.962,0-9,4.038-9,9c0,4.125,2.856,7.75,6.833,8.735l1.686,5.902C11.081,23.852,11.277,24,11.5,24
		s0.419-0.148,0.481-0.363l1.686-5.902C17.645,16.75,20.5,13.125,20.5,9C20.5,4.038,16.462,0,11.5,0z M16.854,6.853l-2.8,2.8
		l0.931,3.726c0.053,0.21-0.036,0.431-0.219,0.544C14.684,13.975,14.592,14,14.5,14c-0.114,0-0.228-0.039-0.32-0.115l-2.68-2.234
		l-2.68,2.234c-0.166,0.138-0.402,0.154-0.586,0.038c-0.184-0.114-0.272-0.334-0.219-0.544l0.931-3.726l-2.8-2.8
		C6.003,6.71,5.96,6.496,6.038,6.31C6.115,6.122,6.298,6,6.5,6h3.417l1.122-2.692c0.155-0.372,0.768-0.372,0.923,0L13.083,6H16.5
		c0.202,0,0.385,0.122,0.462,0.31C17.04,6.496,16.997,6.71,16.854,6.853z"/>
</g>
<g id="invisible_shape">
	<rect fill="none" width="24" height="24"/>
</g>
</svg>
