<?xml version="1.0" encoding="utf-8"?>
<!-- Generator: Adobe Illustrator 19.2.0, SVG Export Plug-In . SVG Version: 6.00 Build 0)  -->
<svg version="1.1" xmlns="http://www.w3.org/2000/svg" xmlns:xlink="http://www.w3.org/1999/xlink" x="0px" y="0px" width="24px"
	 height="24px" viewBox="0 0 24 24" enable-background="new 0 0 24 24" xml:space="preserve">
<g id="Filled_Icons_1_">
	<path d="M11.5,0.006c-4.963,0-9,4.038-9,9c0,4.125,2.856,7.75,6.832,8.735l1.687,5.902c0.062,0.215,0.258,0.363,0.481,0.363
		c0.223,0,0.419-0.148,0.481-0.363l1.686-5.902c3.977-0.985,6.833-4.61,6.833-8.735C20.5,4.044,16.462,0.006,11.5,0.006z M11,8.006
		v6.783l-4.757-2.854C6.092,11.845,6,11.683,6,11.506V5.79c0-0.181,0.097-0.347,0.253-0.435c0.157-0.089,0.35-0.085,0.504,0.006
		l4.262,2.557C11.013,7.947,11,7.975,11,8.006z M11.781,6.727c-0.085,0.058-0.183,0.087-0.282,0.087
		c-0.099,0-0.197-0.029-0.282-0.087l-3-2.049C7.989,4.523,7.93,4.212,8.086,3.984c0.155-0.23,0.468-0.286,0.695-0.13l2.718,1.854
		l2.718-1.854c0.229-0.156,0.539-0.099,0.695,0.13c0.156,0.228,0.097,0.539-0.131,0.695L11.781,6.727z M17,11.506
		c0,0.177-0.093,0.338-0.243,0.429L12,14.79V8.006c0-0.031-0.012-0.059-0.018-0.089l4.26-2.556c0.155-0.092,0.347-0.095,0.504-0.006
		C16.903,5.442,17,5.609,17,5.79V11.506z"/>
</g>
<g id="invisible_shape">
	<rect fill="none" width="24" height="24"/>
</g>
</svg>
