<?xml version="1.0" encoding="utf-8"?>
<!-- Generator: Adobe Illustrator 19.2.0, SVG Export Plug-In . SVG Version: 6.00 Build 0)  -->
<svg version="1.1" xmlns="http://www.w3.org/2000/svg" xmlns:xlink="http://www.w3.org/1999/xlink" x="0px" y="0px" width="24px"
	 height="24px" viewBox="0 0 24 24" enable-background="new 0 0 24 24" xml:space="preserve">
<g id="Filled_Icons_1_">
	<path d="M11.5,0.006c-5.416,0-9.5,4.298-9.5,10c0,7.173,8.831,13.634,9.207,13.905c0.087,0.064,0.191,0.095,0.293,0.095
		s0.206-0.031,0.293-0.095C12.168,23.64,21,17.179,21,10.006C21,4.305,16.916,0.006,11.5,0.006z M16.52,9.006
		c-0.007,0-0.014,0-0.02,0H15v4.5c0,0.276-0.224,0.5-0.5,0.5H13v-3.5c0-0.277-0.224-0.5-0.5-0.5h-2c-0.276,0-0.5,0.223-0.5,0.5v3.5
		H8.5c-0.276,0-0.5-0.224-0.5-0.5v-4.5H6.5c-0.207,0-0.393-0.127-0.467-0.321C5.959,8.492,6.012,8.274,6.165,8.135l5-4.5
		c0.191-0.17,0.479-0.17,0.67,0l4.925,4.432c0.155,0.086,0.26,0.251,0.26,0.44C17.02,8.783,16.796,9.006,16.52,9.006z"/>
</g>
<g id="invisible_shape">
	<rect fill="none" width="24" height="24"/>
</g>
</svg>
