<?xml version="1.0" encoding="utf-8"?>
<!-- Generator: Adobe Illustrator 19.2.0, SVG Export Plug-In . SVG Version: 6.00 Build 0)  -->
<svg version="1.1" xmlns="http://www.w3.org/2000/svg" xmlns:xlink="http://www.w3.org/1999/xlink" x="0px" y="0px" width="24px"
	 height="24px" viewBox="0 0 24 24" enable-background="new 0 0 24 24" xml:space="preserve">
<g id="Filled_Icons_1_">
	<g>
		<path d="M13,17.006c0,0.827-0.673,1.5-1.5,1.5s-1.5-0.673-1.5-1.5v-5.569l-2,0.445v12.024l8-1.778V10.105l-3,0.667V17.006z"/>
		<path d="M23.637,12.025L17,10.129v12.039l6.362,1.818c0.158,0.045,0.316,0.011,0.438-0.081C23.926,23.812,24,23.663,24,23.506v-11
			C24,12.283,23.852,12.086,23.637,12.025z"/>
		<path d="M0.198,10.108C0.073,10.201,0,10.349,0,10.506v11c0,0.223,0.147,0.419,0.362,0.48L7,23.882V11.843l-6.363-1.818
			C0.487,9.982,0.323,10.013,0.198,10.108z"/>
		<path d="M11,6.966v10.04c0,0.275,0.224,0.5,0.5,0.5c0.275,0,0.5-0.225,0.5-0.5V6.966c1.68-0.243,3-1.692,3-3.46
			c0-1.931-1.57-3.5-3.5-3.5S8,1.575,8,3.506C8,5.281,9.325,6.726,11,6.966z M11.5,2.006c0.827,0,1.5,0.672,1.5,1.5
			c0,0.275-0.224,0.5-0.5,0.5S12,3.782,12,3.506c0-0.277-0.225-0.5-0.5-0.5c-0.276,0-0.5-0.225-0.5-0.5
			C11,2.23,11.224,2.006,11.5,2.006z"/>
	</g>
</g>
<g id="invisible_shape">
	<rect fill="none" width="24" height="24"/>
</g>
</svg>
