<?xml version="1.0" encoding="utf-8"?>
<!-- Generator: Adobe Illustrator 19.2.0, SVG Export Plug-In . SVG Version: 6.00 Build 0)  -->
<svg version="1.1" xmlns="http://www.w3.org/2000/svg" xmlns:xlink="http://www.w3.org/1999/xlink" x="0px" y="0px" width="24px"
	 height="24px" viewBox="0 0 24 24" enable-background="new 0 0 24 24" xml:space="preserve">
<g id="Filled_Icons_1_">
	<g>
		<g>
			<path d="M8.683,5.84c0.993-0.542,2.109-0.85,3.317-0.85c3.859,0,7.021,3.133,7.021,6.994c0,1.208-0.308,2.352-0.849,3.345
				l1.452,1.453c0.706-1.118,1.179-2.405,1.335-3.782H23c0.552,0,1-0.448,1-1c0-0.552-0.448-1-1-1h-2.035
				C20.509,6.828,17.169,3.513,13,3.05V1.048c0-0.553-0.448-1-1-1c-0.553,0-1,0.447-1,1V3.05C9.616,3.203,8.352,3.677,7.23,4.387
				L8.683,5.84z"/>
			<path d="M15.339,18.152C14.352,18.687,13.2,18.991,12,18.991c-3.86,0-6.978-3.146-6.978-7.006c0-1.199,0.304-2.323,0.838-3.311
				L4.405,7.218C3.699,8.34,3.228,9.62,3.078,11H1.042c-0.553,0-1,0.448-1,1c0,0.552,0.447,1,1,1h2.041
				c0.47,4.157,3.758,7.469,7.917,7.931v2.044c0,0.551,0.447,1,1,1c0.552,0,1-0.449,1-1v-2.044c1.375-0.153,2.676-0.622,3.794-1.325
				L15.339,18.152z"/>
		</g>
		<g>
			<path d="M21.99,22.975c-0.256,0-0.512-0.097-0.707-0.292L1.314,2.713c-0.391-0.39-0.391-1.023,0-1.414
				c0.391-0.391,1.023-0.391,1.414,0l19.969,19.969c0.391,0.391,0.391,1.023,0,1.415C22.502,22.878,22.246,22.975,21.99,22.975z"/>
		</g>
	</g>
</g>
<g id="invisible_shape">
	<rect fill="none" width="24" height="24"/>
</g>
</svg>
