<?xml version="1.0" encoding="utf-8"?>
<!-- Generator: Adobe Illustrator 19.2.0, SVG Export Plug-In . SVG Version: 6.00 Build 0)  -->
<svg version="1.1" xmlns="http://www.w3.org/2000/svg" xmlns:xlink="http://www.w3.org/1999/xlink" x="0px" y="0px" width="24px"
	 height="24px" viewBox="0 0 24 24" enable-background="new 0 0 24 24" xml:space="preserve">
<g id="Filled_Icons_1_">
	<g>
		<path d="M1.27,1.061C1.105,1.148,1,1.319,1,1.506v16c0,0.162,0.078,0.313,0.209,0.407L8,22.764V5.535L1.79,1.099
			C1.638,0.991,1.438,0.975,1.27,1.061z"/>
		<path d="M22.79,6.099L16,1.25v17.229l6.209,4.435c0.15,0.107,0.349,0.125,0.52,0.038C22.896,22.866,23,22.693,23,22.506v-16
			C23,6.345,22.922,6.193,22.79,6.099z"/>
		<polygon points="9,22.764 15,18.479 15,1.25 9,5.535 		"/>
	</g>
</g>
<g id="invisible_shape">
	<rect fill="none" width="24" height="24"/>
</g>
</svg>
