<?xml version="1.0" encoding="utf-8"?>
<!-- Generator: Adobe Illustrator 19.2.0, SVG Export Plug-In . SVG Version: 6.00 Build 0)  -->
<svg version="1.1" xmlns="http://www.w3.org/2000/svg" xmlns:xlink="http://www.w3.org/1999/xlink" x="0px" y="0px" width="24px"
	 height="24px" viewBox="0 0 24 24" enable-background="new 0 0 24 24" xml:space="preserve">
<g id="Filled_Icons_1_">
	<g>
		<circle cx="12" cy="12.006" r="4"/>
		<path d="M22.983,11.023l-2.042-0.012C20.481,6.845,17.166,3.528,13,3.066V1.064c0-0.551-0.448-1-1-1c-0.552,0-1,0.449-1,1v2.002
			c-4.166,0.462-7.481,3.779-7.942,7.945l-2.043,0.012c-0.552,0.002-0.997,0.453-0.994,1.006c0.003,0.551,0.45,0.994,1,0.994
			c0.002,0,0.003,0,0.005-0.023l2.034-0.011c0.465,4.184,3.777,7.496,7.94,7.958v2.044c0,0.553,0.448,1,1,1c0.552,0,1-0.447,1-1
			v-2.044c4.162-0.462,7.475-3.774,7.94-7.958L22.973,13c0.002,0.023,0.004,0.023,0.006,0.023c0.55,0,0.997-0.443,1-0.994
			C23.981,11.475,23.536,11.025,22.983,11.023z M12,19.006c-3.86,0-7-3.14-7-7c0-3.86,3.14-7,7-7c3.86,0,7,3.14,7,7
			C19,15.867,15.86,19.006,12,19.006z"/>
	</g>
</g>
<g id="invisible_shape">
	<rect fill="none" width="24" height="24"/>
</g>
</svg>
