<?xml version="1.0" encoding="utf-8"?>
<!-- Generator: Adobe Illustrator 19.2.0, SVG Export Plug-In . SVG Version: 6.00 Build 0)  -->
<svg version="1.1" xmlns="http://www.w3.org/2000/svg" xmlns:xlink="http://www.w3.org/1999/xlink" x="0px" y="0px" width="24px"
	 height="24px" viewBox="0 0 24 24" enable-background="new 0 0 24 24" xml:space="preserve">
<g id="Filled_Icons_1_">
	<g>
		<path d="M12,17.27c0-1.669,0.791-3.144,2-4.117V0.25L8,4.535v17.227l4.229-3.033C12.095,18.263,12,17.779,12,17.27z"/>
		<path d="M15,12.513c0.7-0.34,1.476-0.548,2.306-0.548c2.05,0,3.812,1.181,4.694,2.889V5.506c0-0.162-0.078-0.313-0.21-0.407
			L15,0.25V12.513z"/>
		<path d="M7,4.535L0.79,0.099c-0.151-0.108-0.353-0.124-0.52-0.038C0.105,0.148,0,0.318,0,0.506v16
			c0,0.162,0.078,0.313,0.209,0.407L7,21.763V4.535z"/>
	</g>
	<path d="M23.854,23.11l-3.186-3.186c0.581-0.733,0.942-1.648,0.942-2.655c0-2.374-1.932-4.305-4.305-4.305
		c-2.374,0-4.306,1.931-4.306,4.305c0,2.374,1.932,4.305,4.306,4.305c1.007,0,1.922-0.362,2.655-0.942l3.186,3.185
		c0.098,0.098,0.226,0.147,0.354,0.147s0.256-0.05,0.354-0.147C24.049,23.622,24.049,23.306,23.854,23.11z M14,17.27
		c0-1.823,1.482-3.305,3.306-3.305c1.822,0,3.305,1.482,3.305,3.305c0,1.823-1.483,3.305-3.305,3.305
		C15.482,20.575,14,19.093,14,17.27z"/>
</g>
<g id="invisible_shape">
	<rect fill="none" width="24" height="24"/>
</g>
</svg>
