<?xml version="1.0" encoding="utf-8"?>
<!-- Generator: Adobe Illustrator 19.2.0, SVG Export Plug-In . SVG Version: 6.00 Build 0)  -->
<svg version="1.1" xmlns="http://www.w3.org/2000/svg" xmlns:xlink="http://www.w3.org/1999/xlink" x="0px" y="0px" width="24px"
	 height="24px" viewBox="0 0 24 24" enable-background="new 0 0 24 24" xml:space="preserve">
<g id="Filled_Icons_1_">
	<g>
		<path d="M22.979,23.354l-3.097-10.173c-1.267,1.986-2.676,3.719-3.141,4.275c-0.285,0.343-0.706,0.539-1.151,0.539
			c-0.445,0-0.866-0.197-1.151-0.539C13.53,16.37,9,10.781,9,7.587C9,3.956,11.956,1,15.59,1c0.2,0,0.399,0.012,0.594,0.031
			l-0.206-0.676C15.914,0.144,15.72,0,15.5,0H12v1c0,0.276-0.224,0.5-0.5,0.5S11,1.276,11,1V0H7.5C7.279,0,7.086,0.144,7.022,0.354
			l-7,23c-0.046,0.152-0.018,0.316,0.076,0.444C0.192,23.925,0.342,24,0.5,24H11v-3c0-0.277,0.224-0.5,0.5-0.5S12,20.723,12,21v3
			h10.5c0.158,0,0.308-0.075,0.402-0.201C22.996,23.67,23.024,23.506,22.979,23.354z M12,18c0,0.276-0.224,0.5-0.5,0.5
			S11,18.276,11,18v-2c0-0.277,0.224-0.5,0.5-0.5S12,15.723,12,16V18z"/>
		<path d="M10,7.594c0,2.959,4.994,8.973,5.206,9.228c0.095,0.114,0.235,0.18,0.384,0.18c0.149,0,0.289-0.067,0.384-0.18
			c0.212-0.255,5.204-6.269,5.204-9.228c0-3.081-2.507-5.587-5.588-5.587C12.508,2.006,10,4.513,10,7.594z M17.998,7.594
			c0,1.329-1.08,2.41-2.408,2.41c-1.329,0-2.409-1.081-2.409-2.41c0-1.327,1.08-2.407,2.409-2.407
			C16.918,5.187,17.998,6.267,17.998,7.594z"/>
	</g>
</g>
<g id="invisible_shape">
	<rect fill="none" width="24" height="24"/>
</g>
</svg>
