<?xml version="1.0" encoding="utf-8"?>
<!-- Generator: Adobe Illustrator 19.2.0, SVG Export Plug-In . SVG Version: 6.00 Build 0)  -->
<svg version="1.1" xmlns="http://www.w3.org/2000/svg" xmlns:xlink="http://www.w3.org/1999/xlink" x="0px" y="0px" width="24px"
	 height="24px" viewBox="0 0 24 24" enable-background="new 0 0 24 24" xml:space="preserve">
<g id="Filled_Icons">
	<g>
		<path d="M11.5,19h-2C9.224,19,9,19.224,9,19.5S9.224,20,9.5,20h8.442C20.222,20.59,22,21.162,22,22.5c0,0.276-0.225,0.5-0.5,0.5
			h-15C6.224,23,6,22.776,6,22.5v-5C6,17.224,6.224,17,6.5,17h1.688c1.516,0,3.096,1.151,3.297,1.297
			C11.686,18.443,12.438,19.047,11.5,19z"/>
		<path d="M4.5,16h-4C0.224,16,0,16.224,0,16.5v7C0,23.776,0.224,24,0.5,24h4C4.775,24,5,23.776,5,23.5v-7C5,16.224,4.775,16,4.5,16
			z"/>
		<path d="M18.5,0.5c-2.813,0-5,2.188-5,5c0,2.81,5,9,5,9s5-6.19,5-9C23.5,2.688,21.31,0.5,18.5,0.5z M18.5,7.5
			c-1.056,0-2-0.946-2-2c0-1.055,0.944-2,2-2c1.053,0,2,0.945,2,2C20.5,6.554,19.553,7.5,18.5,7.5z"/>
	</g>
</g>
<g id="invisible_shape">
	<rect fill="none" width="24" height="24"/>
</g>
</svg>
