<?xml version="1.0" encoding="utf-8"?>
<!-- Generator: Adobe Illustrator 16.0.3, SVG Export Plug-In . SVG Version: 6.00 Build 0)  -->
<!DOCTYPE svg PUBLIC "-//W3C//DTD SVG 1.1//EN" "http://www.w3.org/Graphics/SVG/1.1/DTD/svg11.dtd">
<svg version="1.1" xmlns="http://www.w3.org/2000/svg" xmlns:xlink="http://www.w3.org/1999/xlink" x="0px" y="0px" width="24px"
	 height="24px" viewBox="0 0 24 24" enable-background="new 0 0 24 24" xml:space="preserve">
<g id="Outline_Icons">
	<g>
		<path fill="none" stroke="#000000" stroke-linejoin="round" stroke-miterlimit="10" d="M0.5,20c0,1.934,1.566,3.5,3.5,3.5
			s3.5-1.566,3.5-3.5v-3.5H4C2.066,16.5,0.5,18.066,0.5,20z"/>
		<path fill="none" stroke="#000000" stroke-linejoin="round" stroke-miterlimit="10" d="M4,0.5C2.066,0.5,0.5,2.066,0.5,4
			S2.066,7.5,4,7.5h3.5V4C7.5,2.066,5.934,0.5,4,0.5z"/>
		<path fill="none" stroke="#000000" stroke-linejoin="round" stroke-miterlimit="10" d="M20,16.5h-3.5V20
			c0,1.934,1.566,3.5,3.5,3.5s3.5-1.566,3.5-3.5S21.934,16.5,20,16.5z"/>
		<rect x="7.5" y="7.5" fill="none" stroke="#000000" stroke-linejoin="round" stroke-miterlimit="10" width="9" height="9"/>
		<path fill="none" stroke="#000000" stroke-linejoin="round" stroke-miterlimit="10" d="M23.5,4c0-1.934-1.566-3.5-3.5-3.5
			S16.5,2.066,16.5,4v3.5H20C21.934,7.5,23.5,5.934,23.5,4z"/>
	</g>
</g>
<g id="Invisible_Shape">
	<rect fill="none" width="24" height="24"/>
</g>
</svg>
