<?xml version="1.0" encoding="utf-8"?>
<!-- Generator: Adobe Illustrator 19.2.1, SVG Export Plug-In . SVG Version: 6.00 Build 0)  -->
<svg version="1.1" xmlns="http://www.w3.org/2000/svg" xmlns:xlink="http://www.w3.org/1999/xlink" x="0px" y="0px" width="24px"
	 height="24px" viewBox="0 0 24 24" enable-background="new 0 0 24 24" xml:space="preserve">
<g id="Filled_Icon">
	<g>
		<path d="M8.293,15.793L7,17.086V4.5c0-0.553-0.447-1-1-1s-1,0.447-1,1v12.586l-1.293-1.293c-0.391-0.391-1.023-0.391-1.414,0
			c-0.391,0.391-0.391,1.023,0,1.414l2.999,2.999c0.392,0.392,1.024,0.392,1.416,0l2.999-2.999c0.391-0.391,0.391-1.023,0-1.414
			C9.316,15.402,8.684,15.402,8.293,15.793z"/>
		<path d="M15.402,11.963c0.53,0.148,1.083-0.157,1.233-0.691L17.075,10h2.849l0.44,1.271c0.15,0.533,0.707,0.839,1.233,0.691
			c0.532-0.151,0.841-0.703,0.69-1.235l-2.825-10c-0.271-0.964-1.651-0.968-1.924,0l-2.826,10
			C14.561,11.26,14.87,11.811,15.402,11.963z M18.5,4.678L19.359,8h-1.719L18.5,4.678z"/>
		<path d="M21.097,22h-3.41l4.264-6.479C22.355,14.858,21.877,14,21.097,14h-5.193c-0.553,0-1,0.448-1,1s0.447,1,1,1h3.41
			l-4.264,6.479C14.644,23.142,15.123,24,15.903,24h5.193c0.553,0,1-0.447,1-1S21.649,22,21.097,22z"/>
	</g>
</g>
<g id="Invisible_Shape">
	<rect fill="none" width="24" height="24"/>
</g>
</svg>
