<?xml version="1.0" encoding="utf-8"?>
<!-- Generator: Adobe Illustrator 19.2.1, SVG Export Plug-In . SVG Version: 6.00 Build 0)  -->
<svg version="1.1" xmlns="http://www.w3.org/2000/svg" xmlns:xlink="http://www.w3.org/1999/xlink" x="0px" y="0px" width="24px"
	 height="24px" viewBox="0 0 24 24" enable-background="new 0 0 24 24" xml:space="preserve">
<g id="Filled_Icon">
	<path d="M17.685,11.465C19.099,10.271,20,7.99,20,6c0-3.477-2.734-6-6.5-6H4C3.447,0,3,0.448,3,1c0,0.553,0.447,1,1,1h2v20H4
		c-0.553,0-1,0.448-1,1c0,0.553,0.447,1,1,1h11c3.859,0,7-3.14,7-7C22,14.189,20.266,12.405,17.685,11.465z M8,2h5.5
		C16.149,2,18,3.645,18,6c0,2.481-2.019,5-4.5,5H8V2z M15,22H8v-9h7c2.896,0,5,1.393,5,4C20,19.757,17.757,22,15,22z"/>
</g>
<g id="Invisible_Shape">
	<rect fill="none" width="24" height="24"/>
</g>
</svg>
