<?xml version="1.0" encoding="utf-8"?>
<!-- Generator: Adobe Illustrator 19.2.1, SVG Export Plug-In . SVG Version: 6.00 Build 0)  -->
<svg version="1.1" xmlns="http://www.w3.org/2000/svg" xmlns:xlink="http://www.w3.org/1999/xlink" x="0px" y="0px" width="24px"
	 height="24px" viewBox="0 0 24 24" enable-background="new 0 0 24 24" xml:space="preserve">
<g id="Filled_Icon">
	<g>
		<path d="M3,3H0.5C0.224,3,0,3.224,0,3.5v20C0,23.776,0.224,24,0.5,24H11v-4H3C3,12.549,3,8.571,3,3z"/>
		<path d="M17,3.5C17,3.224,16.776,3,16.5,3H14c0,2.805,0,6.208,0,9h3V3.5z"/>
		<path d="M4.5,7h8C12.776,7,13,6.776,13,6.5v-4C13,2.224,12.776,2,12.5,2h-1.551C10.718,0.865,9.683,0,8.5,0
			C7.32,0,6.283,0.86,6.05,2H4.5C4.224,2,4,2.224,4,2.5v4C4,6.776,4.224,7,4.5,7z"/>
		<path d="M24,15.5c0-0.133-0.053-0.26-0.146-0.354l-2-2C21.76,13.053,21.633,13,21.5,13h-9c-0.276,0-0.5,0.224-0.5,0.5v10
			c0,0.276,0.224,0.5,0.5,0.5c3.906,0,7.069,0,11,0c0.276,0,0.5-0.224,0.5-0.5V15.5z M14.5,15h5c0.276,0,0.5,0.224,0.5,0.5
			S19.776,16,19.5,16h-5c-0.276,0-0.5-0.224-0.5-0.5S14.224,15,14.5,15z M21.5,22h-7c-0.276,0-0.5-0.224-0.5-0.5s0.224-0.5,0.5-0.5
			h7c0.276,0,0.5,0.224,0.5,0.5S21.776,22,21.5,22z M21.5,20h-7c-0.276,0-0.5-0.224-0.5-0.5s0.224-0.5,0.5-0.5h7
			c0.276,0,0.5,0.224,0.5,0.5S21.776,20,21.5,20z M21.5,18h-7c-0.276,0-0.5-0.224-0.5-0.5s0.224-0.5,0.5-0.5h7
			c0.276,0,0.5,0.224,0.5,0.5S21.776,18,21.5,18z"/>
	</g>
</g>
<g id="Invisible_Shape">
	<rect fill="none" width="24" height="24"/>
</g>
</svg>
