<?xml version="1.0" encoding="utf-8"?>
<!-- Generator: Adobe Illustrator 19.2.1, SVG Export Plug-In . SVG Version: 6.00 Build 0)  -->
<svg version="1.1" xmlns="http://www.w3.org/2000/svg" xmlns:xlink="http://www.w3.org/1999/xlink" x="0px" y="0px" width="24px"
	 height="24px" viewBox="0 0 24 24" enable-background="new 0 0 24 24" xml:space="preserve">
<g id="Filled_Icon">
	<g>
		<path d="M22.44,11.268c0.975-0.975,0.975-2.561,0-3.535L17.268,2.56c-0.974-0.975-2.561-0.975-3.535,0L9.5,6.793l8.707,8.707
			L22.44,11.268z"/>
		<path d="M3.732,20.44C4.607,21.315,6.262,22,7.5,22h2c1.237,0,2.893-0.685,3.768-1.56l4.232-4.233L8.793,7.5l-7.233,7.232
			c-0.966,0.966-0.982,2.553,0,3.535L3.732,20.44z"/>
		<path d="M23.5,23h-23C0.224,23,0,23.224,0,23.5S0.224,24,0.5,24h23c0.276,0,0.5-0.224,0.5-0.5S23.776,23,23.5,23z"/>
	</g>
</g>
<g id="Invisible_Shape">
	<rect fill="none" width="24" height="24"/>
</g>
</svg>
