<?xml version="1.0" encoding="utf-8"?>
<!-- Generator: Adobe Illustrator 19.2.1, SVG Export Plug-In . SVG Version: 6.00 Build 0)  -->
<svg version="1.1" xmlns="http://www.w3.org/2000/svg" xmlns:xlink="http://www.w3.org/1999/xlink" x="0px" y="0px" width="24px"
	 height="24px" viewBox="0 0 24 24" enable-background="new 0 0 24 24" xml:space="preserve">
<g id="Filled_Icon">
	<g>
		<path d="M4,17h3c0.552,0,1-0.447,1-1c0-0.544-0.437-0.985-0.978-0.997L8.322,12h7.354l1.301,3.003C16.435,15.015,16,15.456,16,16
			c0,0.553,0.447,1,1,1h3c0.552,0,1-0.447,1-1c0-0.552-0.448-1-1-1h-0.844L12.917,0.603c-0.348-0.802-1.489-0.799-1.835,0L4.844,15
			H4c-0.553,0-1,0.448-1,1C3,16.553,3.447,17,4,17z M12,3.516L14.81,10h-5.62L12,3.516z"/>
		<path d="M23.5,18h-23C0.224,18,0,18.224,0,18.5v5C0,23.776,0.224,24,0.5,24h23c0.275,0,0.5-0.224,0.5-0.5v-5
			C24,18.224,23.775,18,23.5,18z M20,22.207L17.793,20h4.414L20,22.207z"/>
	</g>
</g>
<g id="Invisible_Shape">
	<rect fill="none" width="24" height="24"/>
</g>
</svg>
