<?xml version="1.0" encoding="utf-8"?>
<!-- Generator: Adobe Illustrator 19.2.1, SVG Export Plug-In . SVG Version: 6.00 Build 0)  -->
<svg version="1.1" xmlns="http://www.w3.org/2000/svg" xmlns:xlink="http://www.w3.org/1999/xlink" x="0px" y="0px" width="24px"
	 height="24px" viewBox="0 0 24 24" enable-background="new 0 0 24 24" xml:space="preserve">
<g id="Filled_Icon">
	<g>
		<g>
			<path d="M13.814,21.381l-0.751-2.199L12.104,22h-0.27c-0.553,0-1,0.447-1,1s0.447,1,1,1c0.486,0,0.934,0,1.423,0
				C12.714,23.068,13.003,21.967,13.814,21.381z"/>
			<path d="M23,22h-0.284L18.35,9.212c-0.306-0.897-1.586-0.9-1.893,0.001l-1.284,3.771l1.058,3.098l1.174-3.448L18.896,17h-2.352
				l0.684,2h2.351l1.051,3.078c-0.36,0.15-0.613,0.507-0.613,0.922c0,0.553,0.447,1,1,1H23c0.553,0,1-0.447,1-1S23.553,22,23,22z"/>
		</g>
		<path d="M18,22h-0.806L10.426,2.177c-0.305-0.898-1.586-0.9-1.893,0.001L1.784,22H1c-0.553,0-1,0.447-1,1s0.447,1,1,1h3.021
			c0.553,0,1-0.447,1-1c0-0.538-0.38-1-1.124-1l1.702-5h7.775l1.707,5c-0.721,0-1.102,0.47-1.102,1c0,0.553,0.447,1,1,1H18
			c0.553,0,1-0.447,1-1S18.553,22,18,22z M6.279,15l3.201-9.401L12.691,15H6.279z"/>
	</g>
</g>
<g id="Invisible_Shape">
	<rect fill="none" width="24" height="24"/>
</g>
</svg>
