<?xml version="1.0" encoding="utf-8"?>
<!-- Generator: Adobe Illustrator 19.2.1, SVG Export Plug-In . SVG Version: 6.00 Build 0)  -->
<svg version="1.1" xmlns="http://www.w3.org/2000/svg" xmlns:xlink="http://www.w3.org/1999/xlink" x="0px" y="0px" width="24px"
	 height="24px" viewBox="0 0 24 24" enable-background="new 0 0 24 24" xml:space="preserve">
<g id="Filled_Icon">
	<g>
		<g>
			<path d="M5,0C4.314,0.019,4.111,0.508,3.916,1.09l1.581,1.58L5.721,2h7.277l-1.906,6.265l1.602,1.603L15.089,2h6.523
				l-0.561,1.684c-0.175,0.524,0.108,1.091,0.632,1.266c0.513,0.171,1.087-0.1,1.265-0.633l1-3C24.164,0.674,23.684,0,23,0H5z"/>
			<path d="M11,22H9.002l2.373-7.796l-1.604-1.603L6.911,22H4c-0.553,0-1,0.447-1,1s0.447,1,1,1h7c0.553,0,1-0.447,1-1
				S11.553,22,11,22z"/>
		</g>
		<g>
			<path d="M22.293,23.707l-22-22c-0.391-0.391-0.391-1.023,0-1.414c0.391-0.391,1.023-0.391,1.414,0l22,22
				c0.391,0.391,0.391,1.023,0,1.414C23.316,24.098,22.684,24.098,22.293,23.707z"/>
		</g>
	</g>
</g>
<g id="Invisible_Shape">
	<rect fill="none" width="24" height="24"/>
</g>
</svg>
