<?xml version="1.0" encoding="utf-8"?>
<!-- Generator: Adobe Illustrator 19.2.1, SVG Export Plug-In . SVG Version: 6.00 Build 0)  -->
<svg version="1.1" xmlns="http://www.w3.org/2000/svg" xmlns:xlink="http://www.w3.org/1999/xlink" x="0px" y="0px" width="24px"
	 height="24px" viewBox="0 0 24 24" enable-background="new 0 0 24 24" xml:space="preserve">
<g id="Filled_Icon">
	<path d="M23,8.002h-5.749l1.243-6.82c0.1-0.545-0.261-1.064-0.804-1.164c-0.539-0.105-1.063,0.262-1.163,0.805l-1.309,7.18h-4.968
		l1.243-6.82c0.1-0.545-0.261-1.064-0.804-1.164c-0.541-0.105-1.064,0.262-1.163,0.805l-1.309,7.18H3c-0.553,0-1,0.447-1,1
		c0,0.553,0.447,1,1,1h4.853l-0.911,5H1c-0.553,0-1,0.447-1,1c0,0.553,0.447,1,1,1h5.578l-1.062,5.82
		c-0.1,0.544,0.261,1.064,0.804,1.162c0.526,0.101,1.062-0.248,1.163-0.803l1.127-6.18h4.968l-1.062,5.82
		c-0.1,0.544,0.261,1.064,0.804,1.162c0.526,0.101,1.062-0.248,1.163-0.803l1.127-6.18H21c0.553,0,1-0.447,1-1c0-0.553-0.447-1-1-1
		h-5.025l0.911-5H23c0.553,0,1-0.447,1-1C24,8.449,23.553,8.002,23,8.002z M13.942,15.002H8.975l0.911-5h4.968L13.942,15.002z"/>
</g>
<g id="Invisible_Shape">
	<rect fill="none" width="24" height="24"/>
</g>
</svg>
