<?xml version="1.0" encoding="utf-8"?>
<!-- Generator: Adobe Illustrator 19.2.1, SVG Export Plug-In . SVG Version: 6.00 Build 0)  -->
<svg version="1.1" xmlns="http://www.w3.org/2000/svg" xmlns:xlink="http://www.w3.org/1999/xlink" x="0px" y="0px" width="24px"
	 height="24px" viewBox="0 0 24 24" enable-background="new 0 0 24 24" xml:space="preserve">
<g id="Filled_Icon">
	<path d="M23,0h-8c-0.553,0-1,0.448-1,1c0,0.553,0.447,1,1,1h2.178L4.45,22H1c-0.553,0-1,0.448-1,1c0,0.553,0.447,1,1,1h8
		c0.552,0,1-0.447,1-1c0-0.552-0.448-1-1-1H6.821L19.549,2H23c0.552,0,1-0.447,1-1C24,0.448,23.552,0,23,0z"/>
</g>
<g id="Invisible_Shape">
	<rect fill="none" width="24" height="24"/>
</g>
</svg>
