<?xml version="1.0" encoding="utf-8"?>
<!-- Generator: Adobe Illustrator 19.2.1, SVG Export Plug-In . SVG Version: 6.00 Build 0)  -->
<svg version="1.1" xmlns="http://www.w3.org/2000/svg" xmlns:xlink="http://www.w3.org/1999/xlink" x="0px" y="0px" width="24px"
	 height="24px" viewBox="0 0 24 24" enable-background="new 0 0 24 24" xml:space="preserve">
<g id="Filled_Icon">
	<g>
		<circle cx="2.715" cy="4.573" r="2.5"/>
		<path d="M8.784,6H23c0.552,0,1-0.447,1-1c0-0.552-0.448-1-1-1H8.784c-0.552,0-1,0.448-1,1C7.784,5.553,8.232,6,8.784,6z"/>
		<circle cx="2.715" cy="12.573" r="2.5"/>
		<path d="M23,12H8.784c-0.552,0-1,0.448-1,1c0,0.553,0.448,1,1,1H23c0.552,0,1-0.447,1-1C24,12.448,23.552,12,23,12z"/>
		<circle cx="2.715" cy="20.573" r="2.5"/>
		<path d="M23,20H8.784c-0.552,0-1,0.448-1,1c0,0.553,0.448,1,1,1H23c0.552,0,1-0.447,1-1C24,20.448,23.552,20,23,20z"/>
	</g>
</g>
<g id="Invisible_Shape">
	<rect fill="none" width="24" height="24"/>
</g>
</svg>
