<?xml version="1.0" encoding="utf-8"?>
<!-- Generator: Adobe Illustrator 19.2.1, SVG Export Plug-In . SVG Version: 6.00 Build 0)  -->
<svg version="1.1" xmlns="http://www.w3.org/2000/svg" xmlns:xlink="http://www.w3.org/1999/xlink" x="0px" y="0px" width="24px"
	 height="24px" viewBox="0 0 24 24" enable-background="new 0 0 24 24" xml:space="preserve">
<g id="Filled_Icon">
	<g>
		<path d="M7.069,6H23c0.552,0,1-0.447,1-1s-0.448-1-1-1H7.069c-0.553,0-1,0.447-1,1S6.517,6,7.069,6z"/>
		<path d="M23,12H7.069c-0.553,0-1,0.447-1,1s0.447,1,1,1H23c0.552,0,1-0.447,1-1S23.552,12,23,12z"/>
		<path d="M23,20H7.069c-0.553,0-1,0.447-1,1s0.447,1,1,1H23c0.552,0,1-0.447,1-1S23.552,20,23,20z"/>
		<path d="M1.523,4.635L2.25,4.082V6.5c0,0.414,0.336,0.75,0.75,0.75S3.75,6.914,3.75,6.5V2.573c0-0.622-0.713-0.972-1.203-0.598
			L0.616,3.44C0.286,3.69,0.222,4.16,0.472,4.49C0.722,4.818,1.192,4.883,1.523,4.635z"/>
		<path d="M3.069,13.75h-0.48c0.731-0.798,1.161-1.102,1.161-2.213c0-0.955-0.785-1.732-1.75-1.732
			c-0.962,0-1.716,0.756-1.716,1.723c0,0.414,0.336,0.75,0.75,0.75c0.414,0,0.75-0.336,0.75-0.75c0-0.142,0.079-0.223,0.216-0.223
			c0.143,0,0.25,0.1,0.25,0.232c0,0.391-0.019,0.41-0.482,0.897c-0.325,0.343-0.772,0.81-1.371,1.619
			C0.031,14.549,0.384,15.25,1,15.25h2.069c0.414,0,0.75-0.336,0.75-0.75S3.483,13.75,3.069,13.75z"/>
		<path d="M3.628,18.909C3.952,18.41,3.594,17.75,3,17.75H1.069c-0.414,0-0.75,0.336-0.75,0.75s0.336,0.75,0.75,0.75h0.547
			l-0.245,0.377C1.047,20.124,1.404,20.785,2,20.785c0.152,0,0.222,0.027,0.222,0.02c0.059,0.107,0.01,0.411,0.011,0.412
			c-0.1,0.052-1.04,0.033-1.163,0.033c-0.414,0-0.75,0.336-0.75,0.75s0.336,0.75,0.75,0.75H2c1.096,0,1.75-0.648,1.75-1.732
			c0-0.615-0.211-1.09-0.593-1.385L3.628,18.909z"/>
	</g>
</g>
<g id="Invisible_Shape">
	<rect fill="none" width="24" height="24"/>
</g>
</svg>
