<?xml version="1.0" encoding="utf-8"?>
<!-- Generator: Adobe Illustrator 19.2.1, SVG Export Plug-In . SVG Version: 6.00 Build 0)  -->
<svg version="1.1" xmlns="http://www.w3.org/2000/svg" xmlns:xlink="http://www.w3.org/1999/xlink" x="0px" y="0px" width="24px"
	 height="24px" viewBox="0 0 24 24" enable-background="new 0 0 24 24" xml:space="preserve">
<g id="Filled_Icon">
	<g>
		<g>
			<rect x="4" y="2" width="15" height="1"/>
		</g>
		<g>
			<rect x="4" y="6" width="15" height="1"/>
		</g>
		<g>
			<rect x="4" y="10" width="15" height="1"/>
		</g>
		<g>
			<rect x="4" y="14" width="7" height="1"/>
		</g>
		<g>
			<rect x="4" y="18" width="7" height="1"/>
		</g>
		<path d="M18.5,13c-3.032,0-5.5,2.467-5.5,5.5s2.468,5.5,5.5,5.5s5.5-2.467,5.5-5.5S21.532,13,18.5,13z M21,19h-5
			c-0.276,0-0.5-0.224-0.5-0.5S15.724,18,16,18h5c0.276,0,0.5,0.224,0.5,0.5S21.276,19,21,19z"/>
		<g>
			<rect x="1" y="2" width="1" height="1"/>
		</g>
		<g>
			<rect x="1" y="6" width="1" height="1"/>
		</g>
		<g>
			<rect x="1" y="10" width="1" height="1"/>
		</g>
		<g>
			<rect x="1" y="14" width="1" height="1"/>
		</g>
		<g>
			<rect x="1" y="18" width="1" height="1"/>
		</g>
	</g>
</g>
<g id="Invisible_Shape">
	<rect fill="none" width="24" height="24"/>
</g>
</svg>
