<?xml version="1.0" encoding="utf-8"?>
<!-- Generator: Adobe Illustrator 19.2.1, SVG Export Plug-In . SVG Version: 6.00 Build 0)  -->
<svg version="1.1" xmlns="http://www.w3.org/2000/svg" xmlns:xlink="http://www.w3.org/1999/xlink" x="0px" y="0px" width="24px"
	 height="24px" viewBox="0 0 24 24" enable-background="new 0 0 24 24" xml:space="preserve">
<g id="Filled_Icon">
	<g>
		<path d="M7.001,8h3v8.5c0,0.276,0.224,0.5,0.5,0.5c0.276,0,0.5-0.224,0.499-0.5V1h4.001v15.5c0,0.276,0.224,0.5,0.5,0.5
			c0.276,0,0.5-0.224,0.499-0.5V1h3.501c0.276,0,0.5-0.224,0.5-0.5S19.777,0,19.501,0h-12.5c-2.206,0-4,1.795-4,4S4.795,8,7.001,8z"
			/>
		<path d="M22,18H4.398l2.293-2.293c0.391-0.391,0.391-1.023,0-1.414c-0.391-0.391-1.023-0.391-1.414,0l-3.984,3.984
			c-0.39,0.39-0.391,1.021-0.003,1.411l3.984,4.016c0.388,0.392,1.023,0.395,1.414,0.006c0.393-0.389,0.395-1.022,0.006-1.414
			L4.416,20H22c0.553,0,1-0.447,1-1S22.553,18,22,18z"/>
	</g>
</g>
<g id="Invisible_Shape">
	<rect fill="none" width="24" height="24"/>
</g>
</svg>
