<?xml version="1.0" encoding="utf-8"?>
<!-- Generator: Adobe Illustrator 19.2.1, SVG Export Plug-In . SVG Version: 6.00 Build 0)  -->
<svg version="1.1" xmlns="http://www.w3.org/2000/svg" xmlns:xlink="http://www.w3.org/1999/xlink" x="0px" y="0px" width="24px"
	 height="24px" viewBox="0 0 24 24" enable-background="new 0 0 24 24" xml:space="preserve">
<g id="Filled_Icon">
	<path d="M23.5,0h-17C2.916,0,0,2.916,0,6.5S2.916,13,6.5,13H10v10.5c0,0.276,0.224,0.5,0.5,0.5s0.5-0.224,0.5-0.5
		c0-7.803,0-14.495,0-22.5h6v22.5c0,0.276,0.224,0.5,0.5,0.5s0.5-0.224,0.5-0.5V1h5.5C23.776,1,24,0.776,24,0.5S23.776,0,23.5,0z"/>
</g>
<g id="Invisible_Shape">
	<rect fill="none" width="24" height="24"/>
</g>
</svg>
