<?xml version="1.0" encoding="utf-8"?>
<!-- Generator: Adobe Illustrator 19.2.1, SVG Export Plug-In . SVG Version: 6.00 Build 0)  -->
<svg version="1.1" xmlns="http://www.w3.org/2000/svg" xmlns:xlink="http://www.w3.org/1999/xlink" x="0px" y="0px" width="24px"
	 height="24px" viewBox="0 0 24 24" enable-background="new 0 0 24 24" xml:space="preserve">
<g id="Filled_Icon">
	<g>
		<path d="M13,21c6.065,0,11-4.935,11-11V8.5C24,5.467,21.533,3,18.5,3C15.468,3,13,5.467,13,8.5c0,3.032,2.468,5.5,5.5,5.5
			c1.749,0,3.306-0.823,4.313-2.099C21.923,16.509,17.864,20,13,20c-0.276,0-0.5,0.224-0.5,0.5S12.724,21,13,21z"/>
		<path d="M0.5,21c6.065,0,11-4.935,11-11V8.5C11.5,5.467,9.033,3,6,3C2.968,3,0.5,5.467,0.5,8.5C0.5,11.532,2.968,14,6,14
			c1.749,0,3.306-0.823,4.314-2.099C9.423,16.509,5.364,20,0.5,20C0.224,20,0,20.224,0,20.5S0.224,21,0.5,21z"/>
	</g>
</g>
<g id="Invisible_Shape">
	<rect fill="none" width="24" height="24"/>
</g>
</svg>
