<?xml version="1.0" encoding="utf-8"?>
<!-- Generator: Adobe Illustrator 19.2.1, SVG Export Plug-In . SVG Version: 6.00 Build 0)  -->
<svg version="1.1" xmlns="http://www.w3.org/2000/svg" xmlns:xlink="http://www.w3.org/1999/xlink" x="0px" y="0px" width="24px"
	 height="24px" viewBox="0 0 24 24" enable-background="new 0 0 24 24" xml:space="preserve">
<g id="Filled_Icon">
	<g>
		<path d="M13,4.009H1c-0.553,0-1,0.446-1,1v3c0,0.552,0.447,1,1,1s1-0.448,1-1V6h4v14H4c-0.553,0-1,0.447-1,1s0.447,1,1,1h6
			c0.553,0,1-0.447,1-1s-0.447-1-1-1H8V6h4v2.009c0,0.552,0.447,1,1,1s1-0.448,1-1v-3C14,4.455,13.553,4.009,13,4.009z"/>
		<path d="M21.585,18.94l-0.602,0.868V4.21l0.602,0.868c0.313,0.452,0.937,0.568,1.392,0.252c0.454-0.314,0.567-0.937,0.253-1.391
			l-2.424-3.5c-0.382-0.559-1.247-0.564-1.638-0.01l-2.483,3.5c-0.319,0.449-0.214,1.074,0.236,1.395
			c0.451,0.319,1.074,0.213,1.394-0.238L19,4.147v15.725l-0.685-0.941c-0.32-0.451-0.943-0.556-1.394-0.236
			c-0.45,0.318-0.556,0.943-0.236,1.392l2.483,3.5c0.397,0.566,1.267,0.541,1.638-0.008l2.424-3.5
			c0.314-0.454,0.201-1.078-0.253-1.393C22.521,18.371,21.898,18.486,21.585,18.94z"/>
	</g>
</g>
<g id="Invisible_Shape">
	<rect fill="none" width="24" height="24"/>
</g>
</svg>
