<?xml version="1.0" encoding="utf-8"?>
<!-- Generator: Adobe Illustrator 19.2.1, SVG Export Plug-In . SVG Version: 6.00 Build 0)  -->
<svg version="1.1" xmlns="http://www.w3.org/2000/svg" xmlns:xlink="http://www.w3.org/1999/xlink" x="0px" y="0px" width="24px"
	 height="24px" viewBox="0 0 24 24" enable-background="new 0 0 24 24" xml:space="preserve">
<g id="Filled_Icon">
	<g>
		<path d="M19,0H5C4.447,0,4,0.447,4,1v3c0,0.553,0.447,1,1,1s1-0.447,1-1V2h5v14H9c-0.553,0-1,0.447-1,1s0.447,1,1,1h6
			c0.553,0,1-0.447,1-1s-0.447-1-1-1h-2V2h5v2c0,0.553,0.447,1,1,1s1-0.447,1-1V1C20,0.447,19.553,0,19,0z"/>
		<path d="M18.931,21.585l0.868-0.602H4.201l0.868,0.602c0.452,0.313,0.568,0.936,0.253,1.392c-0.314,0.454-0.938,0.567-1.392,0.253
			l-3.5-2.424c-0.562-0.389-0.558-1.256-0.009-1.638l3.5-2.483c0.449-0.319,1.074-0.214,1.394,0.236
			c0.319,0.451,0.214,1.074-0.237,1.394L4.138,19h15.725l-0.94-0.685c-0.451-0.32-0.557-0.943-0.237-1.394
			c0.319-0.45,0.944-0.556,1.393-0.236l3.5,2.483c0.548,0.382,0.555,1.249-0.009,1.638l-3.5,2.424
			c-0.454,0.314-1.077,0.201-1.392-0.253C18.363,22.521,18.477,21.898,18.931,21.585z"/>
	</g>
</g>
<g id="Invisible_Shape">
	<rect fill="none" width="24" height="24"/>
</g>
</svg>
