<?xml version="1.0" encoding="utf-8"?>
<!-- Generator: Adobe Illustrator 19.2.1, SVG Export Plug-In . SVG Version: 6.00 Build 0)  -->
<svg version="1.1" xmlns="http://www.w3.org/2000/svg" xmlns:xlink="http://www.w3.org/1999/xlink" x="0px" y="0px" width="24px"
	 height="24px" viewBox="0 0 24 24" enable-background="new 0 0 24 24" xml:space="preserve">
<g id="Filled_Icon">
	<g>
		<path d="M20.5,24H1c-0.931,0-1.354-1.166-0.646-1.764l12.101-10.237L0.354,1.764C-0.354,1.166,0.069,0,1,0h19.5
			c0.553,0,1,0.447,1,1s-0.447,1-1,1H3.73l10.919,9.235c0.473,0.4,0.473,1.127,0,1.527L3.73,22H20.5c0.553,0,1,0.447,1,1
			C21.5,23.552,21.053,24,20.5,24z"/>
	</g>
</g>
<g id="Invisible_Shape">
	<rect fill="none" width="24" height="24"/>
</g>
</svg>
