<?xml version="1.0" encoding="utf-8"?>
<!-- Generator: Adobe Illustrator 19.2.1, SVG Export Plug-In . SVG Version: 6.00 Build 0)  -->
<svg version="1.1" xmlns="http://www.w3.org/2000/svg" xmlns:xlink="http://www.w3.org/1999/xlink" x="0px" y="0px" width="24px"
	 height="24px" viewBox="0 0 24 24" enable-background="new 0 0 24 24" xml:space="preserve">
<g id="Filled_Icon">
	<g>
		<path d="M10.5,21H9V3h5v2c0,0.553,0.447,1,1,1c0.552,0,1-0.447,1-1V2c0-0.552-0.448-1-1-1H1C0.447,1,0,1.448,0,2v3
			c0,0.553,0.447,1,1,1c0.552,0,1-0.447,1-1V3h5v18H5.5c-0.553,0-1,0.448-1,1c0,0.553,0.447,1,1,1h5c0.552,0,1-0.447,1-1
			C11.5,21.448,11.052,21,10.5,21z"/>
		<path d="M23,8H13c-0.553,0-1,0.448-1,1v2c0,0.553,0.447,1,1,1c0.552,0,1-0.447,1-1v-1h3v11h-0.5c-0.553,0-1,0.448-1,1
			c0,0.553,0.447,1,1,1h3c0.552,0,1-0.447,1-1c0-0.552-0.448-1-1-1H19V10h3v1c0,0.553,0.447,1,1,1c0.552,0,1-0.447,1-1V9
			C24,8.448,23.552,8,23,8z"/>
	</g>
</g>
<g id="Invisible_Shape">
	<rect fill="none" width="24" height="24"/>
</g>
</svg>
