<?xml version="1.0" encoding="utf-8"?>
<!-- Generator: Adobe Illustrator 19.2.1, SVG Export Plug-In . SVG Version: 6.00 Build 0)  -->
<svg version="1.1" xmlns="http://www.w3.org/2000/svg" xmlns:xlink="http://www.w3.org/1999/xlink" x="0px" y="0px" width="24px"
	 height="24px" viewBox="0 0 24 24" enable-background="new 0 0 24 24" xml:space="preserve">
<g id="Filled_Icon">
	<g>
		<g>
			<path d="M11,17.857V9h3.5v2c0,0.553,0.447,1,1,1s1-0.447,1-1V8c0-0.553-0.447-1-1-1h-11c-0.553,0-1,0.447-1,1v3
				c0,0.553,0.447,1,1,1s1-0.447,1-1V9H9v8.975C9.618,18.015,10.165,18.014,11,17.857z"/>
			<path d="M12.5,22H11v-1.113c-1.056,0.142-1.402,0.116-2,0.088V22H7.5c-0.553,0-1,0.447-1,1s0.447,1,1,1h5c0.553,0,1-0.447,1-1
				S13.053,22,12.5,22z"/>
		</g>
		<path d="M23.854,23.146L17.407,16.7C19.076,14.858,20,12.502,20,10c0-5.514-4.486-10-10-10S0,4.486,0,10s4.486,10,10,10
			c2.502,0,4.858-0.923,6.7-2.593l6.446,6.446c0.195,0.195,0.512,0.195,0.707,0C24.049,23.658,24.049,23.342,23.854,23.146z M1,10
			c0-4.963,4.037-9,9-9s9,4.037,9,9c0,4.955-4.015,9-9,9C5.037,19,1,14.963,1,10z"/>
	</g>
</g>
<g id="Invisible_Shape">
	<rect fill="none" width="24" height="24"/>
</g>
</svg>
