<?xml version="1.0" encoding="utf-8"?>
<!-- Generator: Adobe Illustrator 19.2.1, SVG Export Plug-In . SVG Version: 6.00 Build 0)  -->
<svg version="1.1" xmlns="http://www.w3.org/2000/svg" xmlns:xlink="http://www.w3.org/1999/xlink" x="0px" y="0px" width="24px"
	 height="24px" viewBox="0 0 24 24" enable-background="new 0 0 24 24" xml:space="preserve">
<g id="Filled_Icon">
	<g>
		<path d="M11.006,12.943l1.212,3.236c0.195,0.523,0.776,0.779,1.287,0.586c0.518-0.193,0.779-0.769,0.586-1.287L8.541,0.65
			C8.219-0.211,6.996-0.215,6.669,0.648l-5.578,14.77c-0.195,0.517,0.065,1.094,0.582,1.29c0.517,0.194,1.094-0.066,1.289-0.582
			l1.202-3.183H11.006z M7.601,3.844l2.657,7.158H4.919L7.601,3.844z"/>
		<path d="M22.792,8.18c-0.454-0.316-1.077-0.201-1.392,0.252l-9.039,13.018L8.394,17.48c-0.391-0.39-1.024-0.39-1.414,0
			c-0.391,0.391-0.391,1.023,0,1.415l4.814,4.813c0.445,0.442,1.178,0.371,1.528-0.137l9.722-14
			C23.358,9.119,23.246,8.496,22.792,8.18z"/>
	</g>
</g>
<g id="Invisible_Shape">
	<rect fill="none" width="24" height="24"/>
</g>
</svg>
