<?xml version="1.0" encoding="utf-8"?>
<!-- Generator: Adobe Illustrator 19.2.1, SVG Export Plug-In . SVG Version: 6.00 Build 0)  -->
<svg version="1.1" xmlns="http://www.w3.org/2000/svg" xmlns:xlink="http://www.w3.org/1999/xlink" x="0px" y="0px" width="24px"
	 height="24px" viewBox="0 0 24 24" enable-background="new 0 0 24 24" xml:space="preserve">
<g id="Filled_Icon">
	<path d="M23,12h-9.626C10.1,9.611,6,8.199,6,5c0-2.707,2.797-3,4-3c3.524,0,4,1.264,4,2.5v1c0,0.553,0.447,1,1,1
		c0.552,0,1-0.447,1-1v-1C16,2.447,14.959,0,10,0C6.354,0,4,1.963,4,5c0,3.458,2.883,5.268,5.708,7H1c-0.553,0-1,0.448-1,1
		c0,0.553,0.447,1,1,1h11.705c4.005,3.209,2.637,8-2.705,8c-3.318,0-5-1.178-5-3.5v-1c0-0.552-0.448-1-1-1c-0.553,0-1,0.448-1,1v1
		c0,3.495,2.551,5.5,7,5.5c6.765,0,8.693-6.102,5.546-10H23c0.552,0,1-0.447,1-1C24,12.448,23.552,12,23,12z"/>
</g>
<g id="Invisible_Shape">
	<rect fill="none" width="24" height="24"/>
</g>
</svg>
