<?xml version="1.0" encoding="utf-8"?>
<!-- Generator: Adobe Illustrator 19.2.1, SVG Export Plug-In . SVG Version: 6.00 Build 0)  -->
<svg version="1.1" xmlns="http://www.w3.org/2000/svg" xmlns:xlink="http://www.w3.org/1999/xlink" x="0px" y="0px" width="24px"
	 height="24px" viewBox="0 0 24 24" enable-background="new 0 0 24 24" xml:space="preserve">
<g id="Filled_Icon">
	<g>
		<g>
			<path d="M3,5c0.553,0,1-0.447,1-1V2h7.001v9H13V2h7v2c0,0.553,0.447,1,1,1s1-0.447,1-1V1c0-0.553-0.447-1-1-1H3
				C2.447,0,2,0.447,2,1v3C2,4.553,2.447,5,3,5z"/>
			<path d="M15.5,22H13v-7h-2v7H8.5c-0.553,0-1,0.447-1,1s0.447,1,1,1h7c0.553,0,1-0.447,1-1S16.053,22,15.5,22z"/>
		</g>
		<g>
			<path d="M21,14H3.031c-0.553,0-1-0.447-1-1s0.447-1,1-1H21c0.553,0,1,0.447,1,1S21.553,14,21,14z"/>
		</g>
	</g>
</g>
<g id="Invisible_Shape">
	<rect fill="none" width="24" height="24"/>
</g>
</svg>
