<?xml version="1.0" encoding="utf-8"?>
<!-- Generator: Adobe Illustrator 19.2.1, SVG Export Plug-In . SVG Version: 6.00 Build 0)  -->
<svg version="1.1" xmlns="http://www.w3.org/2000/svg" xmlns:xlink="http://www.w3.org/1999/xlink" x="0px" y="0px" width="24px"
	 height="24px" viewBox="0 0 24 24" enable-background="new 0 0 24 24" xml:space="preserve">
<g id="Filled_Icon">
	<g>
		<path d="M10.414,9l7.293-7.293c0.391-0.391,0.391-1.023,0-1.414c-0.391-0.391-1.023-0.391-1.414,0L9,7.586L1.707,0.293
			c-0.391-0.391-1.023-0.391-1.414,0c-0.391,0.391-0.391,1.023,0,1.414L7.586,9l-7.293,7.293c-0.391,0.391-0.391,1.023,0,1.414
			c0.391,0.391,1.023,0.391,1.414,0L9,10.414l7.293,7.293c0.391,0.391,1.023,0.391,1.414,0c0.391-0.391,0.391-1.023,0-1.414
			L10.414,9z"/>
		<path d="M22.484,23h-1.52l1.711-2.443c0.84-1.237-0.067-2.744-1.416-2.744c-0.937,0-1.701,0.731-1.74,1.664
			c-0.011,0.275,0.203,0.509,0.479,0.519c0.283,0.016,0.509-0.203,0.521-0.479c0.016-0.395,0.342-0.705,0.74-0.705
			c0.56,0,0.974,0.611,0.593,1.178l-2.258,3.223C19.363,23.541,19.599,24,20.004,24h2.48c0.276,0,0.5-0.224,0.5-0.5
			S22.761,23,22.484,23z"/>
	</g>
</g>
<g id="Invisible_Shape">
	<rect fill="none" width="24" height="24"/>
</g>
</svg>
