<?xml version="1.0" encoding="utf-8"?>
<!-- Generator: Adobe Illustrator 19.2.1, SVG Export Plug-In . SVG Version: 6.00 Build 0)  -->
<svg version="1.1" xmlns="http://www.w3.org/2000/svg" xmlns:xlink="http://www.w3.org/1999/xlink" x="0px" y="0px" width="24px"
	 height="24px" viewBox="0 0 24 24" enable-background="new 0 0 24 24" xml:space="preserve">
<g id="Filled_Icon">
	<g>
		<path d="M17.707,6.295c-0.391-0.391-1.023-0.391-1.414,0L9,13.588L1.707,6.295c-0.391-0.391-1.023-0.391-1.414,0
			c-0.391,0.391-0.391,1.023,0,1.414l7.293,7.293l-7.293,7.293c-0.391,0.391-0.391,1.023,0,1.414c0.391,0.391,1.023,0.391,1.414,0
			L9,16.416l7.293,7.293c0.391,0.391,1.023,0.391,1.414,0c0.391-0.391,0.391-1.024,0-1.414l-7.293-7.293l7.293-7.293
			C18.098,7.318,18.098,6.686,17.707,6.295z"/>
		<g>
			<path d="M22.486,7h-2.482c-0.404,0-0.641-0.456-0.409-0.787l2.258-3.224c0.376-0.548-0.018-1.177-0.593-1.177
				c-0.399,0-0.725,0.31-0.74,0.706c-0.013,0.275-0.269,0.459-0.521,0.479c-0.276-0.012-0.49-0.245-0.479-0.52
				c0.039-0.934,0.804-1.665,1.74-1.665c1.368,0,2.254,1.522,1.414,2.746L20.965,6h1.521c0.276,0,0.5,0.224,0.5,0.5
				S22.763,7,22.486,7z"/>
		</g>
	</g>
</g>
<g id="Invisible_Shape">
	<rect fill="none" width="24" height="24"/>
</g>
</svg>
