<?xml version="1.0" encoding="utf-8"?>
<!-- Generator: Adobe Illustrator 19.2.1, SVG Export Plug-In . SVG Version: 6.00 Build 0)  -->
<svg version="1.1" xmlns="http://www.w3.org/2000/svg" xmlns:xlink="http://www.w3.org/1999/xlink" x="0px" y="0px" width="24px"
	 height="24px" viewBox="0 0 24 24" enable-background="new 0 0 24 24" xml:space="preserve">
<g id="Filled_Icon">
	<g>
		<path d="M15,2h1.5c0.552,0,1-0.447,1-1c0-0.552-0.448-1-1-1H15c-1.635,0-3.088,0.787-4,2.003C10.086,0.787,8.633,0,7,0H5.5
			c-0.553,0-1,0.448-1,1c0,0.553,0.447,1,1,1H7c1.654,0,3,1.346,3,3v9H8.5c-0.553,0-1,0.448-1,1c0,0.553,0.447,1,1,1H10v3
			c0,1.654-1.346,3-3,3H5.5c-0.553,0-1,0.448-1,1c0,0.553,0.447,1,1,1H7c1.633,0,3.086-0.788,4-2.002C11.912,23.212,13.365,24,15,24
			h1.5c0.552,0,1-0.447,1-1c0-0.552-0.448-1-1-1H15c-1.654,0-3-1.346-3-3v-3h1.5c0.552,0,1-0.447,1-1c0-0.552-0.448-1-1-1H12V5
			C12,3.346,13.346,2,15,2z"/>
	</g>
</g>
<g id="Invisible_Shape">
	<rect fill="none" width="24" height="24"/>
</g>
</svg>
