<?xml version="1.0" encoding="utf-8"?>
<!-- Generator: Adobe Illustrator 19.2.1, SVG Export Plug-In . SVG Version: 6.00 Build 0)  -->
<svg version="1.1" xmlns="http://www.w3.org/2000/svg" xmlns:xlink="http://www.w3.org/1999/xlink" x="0px" y="0px" width="24px"
	 height="24px" viewBox="0 0 24 24" enable-background="new 0 0 24 24" xml:space="preserve">
<g id="Filled_Icon">
	<path d="M20,0H4C3.447,0,3,0.448,3,1v3c0,0.553,0.447,1,1,1c0.552,0,1-0.447,1-1V2h6v20H8.5c-0.553,0-1,0.448-1,1
		c0,0.553,0.447,1,1,1h7c0.552,0,1-0.447,1-1c0-0.552-0.448-1-1-1H13V2h6v2c0,0.553,0.447,1,1,1c0.552,0,1-0.447,1-1V1
		C21,0.448,20.552,0,20,0z"/>
</g>
<g id="Invisible_Shape">
	<rect fill="none" width="24" height="24"/>
</g>
</svg>
