<?xml version="1.0" encoding="utf-8"?>
<!-- Generator: Adobe Illustrator 19.2.1, SVG Export Plug-In . SVG Version: 6.00 Build 0)  -->
<svg version="1.1" xmlns="http://www.w3.org/2000/svg" xmlns:xlink="http://www.w3.org/1999/xlink" x="0px" y="0px" width="24px"
	 height="24px" viewBox="0 0 24 24" enable-background="new 0 0 24 24" xml:space="preserve">
<g id="Filled_Icon">
	<path d="M23,7h-4.949C18.29,5.584,19.517,4.5,21,4.5c0.553,0,1-0.447,1-1s-0.447-1-1-1c-1.634,0-3.087,0.788-4,2.003
		C16.087,3.288,14.634,2.5,13,2.5c-0.553,0-1,0.447-1,1s0.447,1,1,1c1.483,0,2.71,1.084,2.949,2.5H1C0.447,7,0,7.447,0,8v8
		c0,0.553,0.447,1,1,1h15c0,1.654-1.346,3-3,3c-0.553,0-1,0.447-1,1s0.447,1,1,1c1.634,0,3.087-0.788,4-2.003
		C17.913,21.212,19.366,22,21,22c0.553,0,1-0.447,1-1s-0.447-1-1-1c-1.654,0-3-1.346-3-3h5c0.553,0,1-0.447,1-1V8
		C24,7.447,23.553,7,23,7z M2,15V9h14v6H2z M22,15h-4V9h4V15z"/>
</g>
<g id="Invisible_Shape">
	<rect fill="none" width="24" height="24"/>
</g>
</svg>
