<?xml version="1.0" encoding="utf-8"?>
<!-- Generator: Adobe Illustrator 19.2.1, SVG Export Plug-In . SVG Version: 6.00 Build 0)  -->
<svg version="1.1" xmlns="http://www.w3.org/2000/svg" xmlns:xlink="http://www.w3.org/1999/xlink" x="0px" y="0px" width="24px"
	 height="24px" viewBox="0 0 24 24" enable-background="new 0 0 24 24" xml:space="preserve">
<g id="Filled_Icon">
	<g>
		<path d="M0,13.5c0,0.553,0.447,1,1,1c0.552,0,1-0.447,1-1v-1c0-0.552-0.448-1-1-1c-0.553,0-1,0.448-1,1V13.5z"/>
		<path d="M0,9.5c0,0.553,0.447,1,1,1c0.552,0,1-0.447,1-1V9h0.5c0.552,0,1-0.447,1-1c0-0.552-0.448-1-1-1H1C0.447,7,0,7.448,0,8
			V9.5z"/>
		<path d="M5.5,9h1c0.552,0,1-0.447,1-1c0-0.552-0.448-1-1-1h-1c-0.553,0-1,0.448-1,1C4.5,8.553,4.947,9,5.5,9z"/>
		<path d="M9.5,7c-0.553,0-1,0.448-1,1c0,0.553,0.447,1,1,1H10V7H9.5z"/>
		<path d="M0,18c0,0.553,0.447,1,1,1h1.5c0.552,0,1-0.447,1-1c0-0.552-0.448-1-1-1H2v-0.5c0-0.552-0.448-1-1-1c-0.553,0-1,0.448-1,1
			V18z"/>
		<path d="M5.5,19h1c0.552,0,1-0.447,1-1c0-0.552-0.448-1-1-1h-1c-0.553,0-1,0.448-1,1C4.5,18.553,4.947,19,5.5,19z"/>
		<path d="M9.5,17c-0.553,0-1,0.448-1,1c0,0.553,0.447,1,1,1H10v-2H9.5z"/>
		<path d="M24,12.5c0-0.552-0.448-1-1-1c-0.553,0-1,0.448-1,1v1c0,0.553,0.447,1,1,1c0.552,0,1-0.447,1-1V12.5z"/>
		<path d="M24,8c0-0.552-0.448-1-1-1h-1.5c-0.553,0-1,0.448-1,1c0,0.553,0.447,1,1,1H22v0.5c0,0.553,0.447,1,1,1
			c0.552,0,1-0.447,1-1V8z"/>
		<path d="M18.5,7h-1c-0.553,0-1,0.448-1,1c0,0.553,0.447,1,1,1h1c0.552,0,1-0.447,1-1C19.5,7.448,19.052,7,18.5,7z"/>
		<path d="M14.5,9c0.552,0,1-0.447,1-1c0-0.552-0.448-1-1-1H14v2H14.5z"/>
		<path d="M23,15.5c-0.553,0-1,0.448-1,1V17h-0.5c-0.553,0-1,0.448-1,1c0,0.553,0.447,1,1,1H23c0.552,0,1-0.447,1-1v-1.5
			C24,15.948,23.552,15.5,23,15.5z"/>
		<path d="M18.5,17h-1c-0.553,0-1,0.448-1,1c0,0.553,0.447,1,1,1h1c0.552,0,1-0.447,1-1C19.5,17.448,19.052,17,18.5,17z"/>
		<path d="M14,19h0.5c0.552,0,1-0.447,1-1c0-0.552-0.448-1-1-1H14V19z"/>
		<path d="M17.5,0H16c-1.538,0-3.03,0.713-4,2.003C11.008,0.684,9.497,0,8,0H6.5c-0.552,0-1,0.448-1,1c0,0.551,0.448,1,1,1H8
			c1.658,0,3,1.35,3,3v9H9.5c-0.552,0-1,0.448-1,1c0,0.551,0.448,1,1,1H11v3.5c0,1.845-1.616,2.5-3,2.5H6.5c-0.552,0-1,0.448-1,1
			c0,0.551,0.448,1,1,1H8c1.513,0,3.021-0.511,4-1.664C12.982,23.493,14.488,24,16,24h1.5c0.551,0,1-0.449,1-1c0-0.552-0.449-1-1-1
			H16c-1.604,0-3-0.817-3-2.5V16h1.5c0.551,0,1-0.449,1-1c0-0.552-0.449-1-1-1H13V5c0-1.658,1.348-3,3-3h1.5c0.551,0,1-0.449,1-1
			C18.5,0.448,18.051,0,17.5,0z"/>
	</g>
</g>
<g id="Invisible_Shape">
	<rect fill="none" width="24" height="24"/>
</g>
</svg>
