<?xml version="1.0" encoding="utf-8"?>
<!-- Generator: Adobe Illustrator 19.2.1, SVG Export Plug-In . SVG Version: 6.00 Build 0)  -->
<svg version="1.1" xmlns="http://www.w3.org/2000/svg" xmlns:xlink="http://www.w3.org/1999/xlink" x="0px" y="0px" width="24px"
	 height="24px" viewBox="0 0 24 24" enable-background="new 0 0 24 24" xml:space="preserve">
<g id="Filled_Icon">
	<g>
		<path d="M23,22H1c-0.553,0-1,0.448-1,1c0,0.553,0.447,1,1,1h22c0.552,0,1-0.447,1-1C24,22.448,23.552,22,23,22z"/>
		<path d="M1,2h2v9.5c0,4.688,3.812,8.5,8.5,8.5c4.687,0,8.5-3.812,8.5-8.5V2h2c0.552,0,1-0.447,1-1c0-0.552-0.448-1-1-1h-6
			c-0.553,0-1,0.448-1,1c0,0.553,0.447,1,1,1h2v9.5c0,3.584-2.916,6.5-6.5,6.5S5,15.084,5,11.5V2h2c0.552,0,1-0.447,1-1
			c0-0.552-0.448-1-1-1H1C0.447,0,0,0.448,0,1C0,1.553,0.447,2,1,2z"/>
	</g>
</g>
<g id="Invisible_Shape">
	<rect fill="none" width="24" height="24"/>
</g>
</svg>
