<?xml version="1.0" encoding="utf-8"?>
<!-- Generator: Adobe Illustrator 19.2.1, SVG Export Plug-In . SVG Version: 6.00 Build 0)  -->
<svg version="1.1" xmlns="http://www.w3.org/2000/svg" xmlns:xlink="http://www.w3.org/1999/xlink" x="0px" y="0px" width="24px"
	 height="24px" viewBox="0 0 24 24" enable-background="new 0 0 24 24" xml:space="preserve">
<g id="Filled_Icon">
	<path d="M23.5,0h-23C0.224,0,0,0.224,0,0.5v23C0,23.776,0.224,24,0.5,24h23c0.275,0,0.5-0.224,0.5-0.5v-23
		C24,0.224,23.775,0,23.5,0z M8,20.5C8,20.776,7.775,21,7.5,21h-4C3.224,21,3,20.776,3,20.5v-4C3,16.224,3.224,16,3.5,16h4
		C7.775,16,8,16.224,8,16.5V20.5z M8,14.5C8,14.776,7.775,15,7.5,15h-4C3.224,15,3,14.776,3,14.5v-5C3,9.224,3.224,9,3.5,9h4
		C7.775,9,8,9.224,8,9.5V14.5z M8,7.5C8,7.776,7.775,8,7.5,8h-4C3.224,8,3,7.776,3,7.5v-4C3,3.224,3.224,3,3.5,3h4
		C7.775,3,8,3.224,8,3.5V7.5z M17.5,19h-7c-0.276,0-0.5-0.224-0.5-0.5s0.224-0.5,0.5-0.5h7c0.275,0,0.5,0.224,0.5,0.5
		S17.775,19,17.5,19z M20.5,16h-10c-0.276,0-0.5-0.224-0.5-0.5s0.224-0.5,0.5-0.5h10c0.275,0,0.5,0.224,0.5,0.5S20.775,16,20.5,16z
		 M20.5,13h-10c-0.276,0-0.5-0.224-0.5-0.5s0.224-0.5,0.5-0.5h10c0.275,0,0.5,0.224,0.5,0.5S20.775,13,20.5,13z M20.5,10h-10
		C10.224,10,10,9.776,10,9.5S10.224,9,10.5,9h10C20.775,9,21,9.224,21,9.5S20.775,10,20.5,10z M20.5,7h-7C13.224,7,13,6.776,13,6.5
		S13.224,6,13.5,6h7C20.775,6,21,6.224,21,6.5S20.775,7,20.5,7z"/>
</g>
<g id="Invisible_Shape">
	<rect fill="none" width="24" height="24"/>
</g>
</svg>
