<?xml version="1.0" encoding="utf-8"?>
<!-- Generator: Adobe Illustrator 19.2.0, SVG Export Plug-In . SVG Version: 6.00 Build 0)  -->
<svg version="1.1" xmlns="http://www.w3.org/2000/svg" xmlns:xlink="http://www.w3.org/1999/xlink" x="0px" y="0px" width="24px"
	 height="24px" viewBox="0 0 24 24" enable-background="new 0 0 24 24" xml:space="preserve">
<g id="Filled_Icons">
	<g>
		<path d="M18,2.5C18,1.121,16.879,0,15.5,0c-1.263,0-2.31,0.939-2.477,2.157c-1.002-0.21-2.043-0.21-3.047,0
			C9.81,0.939,8.763,0,7.5,0C6.121,0,5,1.121,5,2.5c0,0.883,0.473,1.686,1.205,2.13C5.851,5.221,5.666,5.857,5.666,6.5
			c0,2.481,2.617,4.5,5.834,4.5s5.833-2.019,5.833-4.5c0-0.644-0.185-1.279-0.538-1.87C17.527,4.186,18,3.382,18,2.5z M13,4
			c0.552,0,1,0.448,1,1c0,0.551-0.448,1-1,1s-1-0.449-1-1C12,4.448,12.448,4,13,4z M10,4c0.552,0,1,0.448,1,1c0,0.551-0.448,1-1,1
			S9,5.551,9,5C9,4.448,9.448,4,10,4z M12.5,9c-0.447,0-0.771-0.188-1-0.457C11.271,8.813,10.947,9,10.5,9
			C9.206,9,8.579,7.775,8.553,7.723l0.893-0.449C9.449,7.28,9.829,8,10.5,8C10.972,8,11,7.008,11,6.998h0.5H12
			C12,7.008,12.028,8,12.5,8c0.671,0,1.051-0.72,1.055-0.727l0.893,0.449C14.421,7.775,13.794,9,12.5,9z"/>
		<path d="M20.5,21h-6c-0.276,0-0.5,0.223-0.5,0.5v2c0,0.275,0.224,0.5,0.5,0.5h6c0.276,0,0.5-0.225,0.5-0.5v-2
			C21,21.223,20.776,21,20.5,21z"/>
		<path d="M9.5,21h-6C3.224,21,3,21.223,3,21.5v2C3,23.775,3.224,24,3.5,24h6c0.276,0,0.5-0.225,0.5-0.5v-2
			C10,21.223,9.776,21,9.5,21z"/>
		<path d="M22.213,6.731c-1.113,0.781-1.69,2.82-1.712,6.061l-1.595,1.594l0.299-1.299c0.253-1.061-0.214-1.783-0.788-2.027
			c-0.529-0.227-1.294-0.096-1.807,0.701c-0.69,1.074-1.554,3.967-1.59,4.09C15.007,15.894,15,15.943,15,15.992V20h5v-0.822
			c0.637-0.633,3.145-3.117,3.854-3.824C23.947,15.26,24,15.133,24,15V6.938C24,6.214,22.813,6.311,22.213,6.731z"/>
		<path d="M4,20h5v-4.008c0-0.049-0.007-0.098-0.021-0.143c-0.036-0.123-0.899-3.016-1.591-4.09
			c-0.514-0.797-1.277-0.928-1.806-0.701c-0.575,0.244-1.042,0.967-0.789,2.021l0.3,1.305l-1.595-1.594
			c-0.022-3.24-0.6-5.279-1.713-6.061C1.184,6.308,0,6.215,0,6.938V15c0,0.15,0.068,0.293,0.185,0.387
			C1.028,16.074,3.402,18.545,4,19.168V20z"/>
	</g>
</g>
<g id="invisible_shape">
	<rect fill="none" width="24" height="24"/>
</g>
</svg>
