<?xml version="1.0" encoding="utf-8"?>
<!-- Generator: Adobe Illustrator 19.2.0, SVG Export Plug-In . SVG Version: 6.00 Build 0)  -->
<svg version="1.1" xmlns="http://www.w3.org/2000/svg" xmlns:xlink="http://www.w3.org/1999/xlink" x="0px" y="0px" width="24px"
	 height="24px" viewBox="0 0 24 24" enable-background="new 0 0 24 24" xml:space="preserve">
<g id="Filled_Icons">
	<g>
		<path d="M23.797,8.598l-11.5-8.5c-0.177-0.131-0.419-0.131-0.595,0l-11.5,8.5C0.075,8.692,0,8.842,0,9v3.5
			c0,0.188,0.106,0.361,0.274,0.445C0.346,12.982,0.423,13,0.5,13c0.105,0,0.209-0.033,0.297-0.098l11.232-8.281l11.173,8.281
			c0.152,0.111,0.353,0.129,0.522,0.045C23.894,12.861,24,12.689,24,12.5V9C24,8.842,23.925,8.692,23.797,8.598z"/>
		<path d="M23.5,23H22v-9.744l-9.973-7.391L2,13.258V23H0.5C0.224,23,0,23.224,0,23.5S0.224,24,0.5,24h7.207L12,19.707L16.293,24
			H23.5c0.276,0,0.5-0.224,0.5-0.5S23.776,23,23.5,23z M12,8c1.378,0,2.5,1.121,2.5,2.5S13.378,13,12,13c-1.378,0-2.5-1.121-2.5-2.5
			S10.622,8,12,8z M7,23.293v-8.586L11.293,19L7,23.293z M7.707,14h8.586L12,18.293L7.707,14z M17,23.293L12.707,19L17,14.707
			V23.293z"/>
	</g>
</g>
<g id="invisible_shape">
	<rect fill="none" width="24" height="24"/>
</g>
</svg>
