<?xml version="1.0" encoding="utf-8"?>
<!-- Generator: Adobe Illustrator 19.2.0, SVG Export Plug-In . SVG Version: 6.00 Build 0)  -->
<svg version="1.1" xmlns="http://www.w3.org/2000/svg" xmlns:xlink="http://www.w3.org/1999/xlink" x="0px" y="0px" width="24px"
	 height="24px" viewBox="0 0 24 24" enable-background="new 0 0 24 24" xml:space="preserve">
<g id="Filled_Icons">
	<g>
		<path d="M22,10.336c0-1.804-0.966-3.493-2.521-4.408C17.894,4.994,16.081,4.932,14,6.088v10.904c0,1.653-1.346,3-3,3s-3-1.347-3-3
			V6.088C5.936,4.942,4.127,4.983,2.52,5.928C0.966,6.843,0,8.532,0,10.336c0,3.262,2.257,4.313,5.548,5.953
			c-1.453,0.592-2.478,2.007-2.478,3.654c0,2.658,1.978,4.051,3.934,4.051c1.617,0,3.195-0.889,3.998-2.854
			c0.796,1.93,2.363,2.842,4.003,2.842c1.95,0,3.925-1.388,3.925-4.039c0-1.647-1.025-3.063-2.478-3.654
			C19.75,14.644,22,13.594,22,10.336z M4.5,12.492c-1.378,0-2.5-1.121-2.5-2.5s1.122-2.5,2.5-2.5c1.378,0,2.5,1.121,2.5,2.5
			S5.878,12.492,4.5,12.492z M15,9.992c0-1.379,1.122-2.5,2.5-2.5c1.378,0,2.5,1.121,2.5,2.5s-1.122,2.5-2.5,2.5
			C16.122,12.492,15,11.371,15,9.992z"/>
		<g>
			<rect x="9" y="12" width="4" height="2"/>
			<rect x="9" y="9" width="4" height="1.998"/>
			<path d="M16.354,0.438C16.16,0.24,15.842,0.24,15.648,0.435l-3.784,3.766c-0.548-0.266-1.152-0.277-1.729,0.002L6.352,0.435
				C6.157,0.24,5.842,0.242,5.646,0.438C5.45,0.633,5.452,0.949,5.647,1.145l3.72,3.706C9.138,5.176,9,5.57,9,5.998V8h4V5.998
				c0-0.43-0.139-0.824-0.368-1.148l3.721-3.705C16.548,0.95,16.549,0.633,16.354,0.438z"/>
			<path d="M9,15v2c0,1.102,0.897,2,2,2c1.102,0,2-0.898,2-2v-2H9z"/>
		</g>
	</g>
</g>
<g id="invisible_shape">
	<rect fill="none" width="24" height="24"/>
</g>
</svg>
