<?xml version="1.0" encoding="utf-8"?>
<!-- Generator: Adobe Illustrator 19.2.0, SVG Export Plug-In . SVG Version: 6.00 Build 0)  -->
<svg version="1.1" xmlns="http://www.w3.org/2000/svg" xmlns:xlink="http://www.w3.org/1999/xlink" x="0px" y="0px" width="24px"
	 height="24px" viewBox="0 0 24 24" enable-background="new 0 0 24 24" xml:space="preserve">
<g id="Filled_Icons">
	<g>
		<path d="M17.5,18h-11c-0.311,0-0.553,0.286-0.49,0.598l1,5C7.057,23.831,7.262,24,7.5,24h9c0.238,0,0.443-0.169,0.49-0.402l1-5
			C18.053,18.284,17.809,18,17.5,18z"/>
		<path d="M22,11.5h-1.029c-0.01-0.08-0.025-0.15-0.04-0.225l0.923-0.922c0.195-0.195,0.195-0.512,0-0.707
			c-0.195-0.195-0.512-0.195-0.707,0l-0.687,0.688c-0.13-0.117-0.284-0.201-0.46-0.256V9c0-0.276-0.224-0.5-0.5-0.5S19,8.724,19,9
			v1.076c-0.188,0.059-0.344,0.144-0.465,0.252l-0.682-0.682c-0.195-0.195-0.512-0.195-0.707,0c-0.195,0.195-0.195,0.512,0,0.707
			l0.9,0.9C17.937,11.693,17.918,12,17.5,12H16V6.5c0-0.117-0.019-0.294-0.057-0.5H17.5C17.776,6,18,5.776,18,5.5S17.776,5,17.5,5
			h-1.854c-0.133-0.323-0.311-0.656-0.542-0.975l1.295-1.725c0.166-0.222,0.121-0.535-0.1-0.701c-0.221-0.164-0.534-0.121-0.7,0.102
			l-1.191,1.588C13.922,2.902,13.296,2.617,12.5,2.53H12V0.5C12,0.224,11.776,0,11.5,0S11,0.224,11,0.5v2.119
			c-0.564,0.133-1.03,0.369-1.409,0.67L8.399,1.701C8.233,1.479,7.921,1.434,7.7,1.6C7.478,1.766,7.434,2.079,7.6,2.301l1.295,1.725
			C8.207,4.969,8,6.076,8,6.5V9H7.5C7.275,9,7,8.724,7,8.5V7c0-0.394-0.131-0.881-0.434-1.276L7.37,4.836
			c0.186-0.205,0.17-0.521-0.035-0.707C7.131,3.943,6.814,3.96,6.629,4.164L5.75,5.137C5.668,5.106,5.591,5.072,5.5,5.053V4
			c0-0.276-0.224-0.5-0.5-0.5S4.5,3.724,4.5,4v1.053C4.428,5.068,4.369,5.096,4.303,5.119L3.218,4.13
			c-0.203-0.186-0.52-0.171-0.706,0.033C2.326,4.367,2.341,4.684,2.545,4.869l0.907,0.826C3.134,6.096,3,6.597,3,7v3
			c0,1.467,1.196,2,2,2h3v2H6.5C6.224,14,6,14.224,6,14.5S6.224,15,6.5,15H8v1.5C8,16.776,8.224,17,8.5,17h7
			c0.276,0,0.5-0.224,0.5-0.5V15h3c1.331,0,2-1.281,2-2v-0.5h1c0.276,0,0.5-0.224,0.5-0.5S22.276,11.5,22,11.5z"/>
	</g>
</g>
<g id="invisible_shape">
	<rect fill="none" width="24" height="24"/>
</g>
</svg>
