<?xml version="1.0" encoding="utf-8"?>
<!-- Generator: Adobe Illustrator 19.2.0, SVG Export Plug-In . SVG Version: 6.00 Build 0)  -->
<svg version="1.1" xmlns="http://www.w3.org/2000/svg" xmlns:xlink="http://www.w3.org/1999/xlink" x="0px" y="0px" width="24px"
	 height="24px" viewBox="0 0 24 24" enable-background="new 0 0 24 24" xml:space="preserve">
<g id="Filled_Icons">
	<g>
		<path d="M14.5,6h-1C12.673,6,12,6.672,12,7.5v3c0,0.826,0.673,1.5,1.5,1.5h1c0.827,0,1.5-0.674,1.5-1.5v-3
			C16,6.672,15.327,6,14.5,6z"/>
		<path d="M12,0C5.383,0,0,5.383,0,12c0,6.616,5.383,12,12,12s12-5.384,12-12C24,5.383,18.617,0,12,0z M10,6H6.5
			C5.673,6,5,6.672,5,7.5v3C5,11.326,5.673,12,6.5,12H10v1H6.5C5.121,13,4,11.878,4,10.5v-3C4,6.121,5.121,5,6.5,5H10V6z M13.5,13
			c-1.379,0-2.5-1.122-2.5-2.5v-3C11,6.121,12.121,5,13.5,5h1C15.879,5,17,6.121,17,7.5v3c0,1.378-1.121,2.5-2.5,2.5H13.5z M18.5,18
			c0.276,0,0.5,0.223,0.5,0.5c0,0.275-0.224,0.5-0.5,0.5h-3c-0.205,0-0.39-0.126-0.465-0.316c-0.075-0.191-0.027-0.408,0.123-0.549
			c1.334-1.254,2.795-2.893,2.842-3.335c0-0.394-0.505-0.8-1-0.8c-0.402,0-1,0.266-1,1c0,0.275-0.224,0.5-0.5,0.5S15,15.275,15,15
			c0-1.299,1.03-2,2-2c0.946,0,2,0.742,2,1.807c0,0.741-1.248,2.156-2.271,3.193H18.5z"/>
	</g>
</g>
<g id="invisible_shape">
	<rect fill="none" width="24" height="24"/>
</g>
</svg>
