<?xml version="1.0" encoding="utf-8"?>
<!-- Generator: Adobe Illustrator 19.2.0, SVG Export Plug-In . SVG Version: 6.00 Build 0)  -->
<svg version="1.1" xmlns="http://www.w3.org/2000/svg" xmlns:xlink="http://www.w3.org/1999/xlink" x="0px" y="0px" width="24px"
	 height="24px" viewBox="0 0 24 24" enable-background="new 0 0 24 24" xml:space="preserve">
<g id="Filled_Icons">
	<path d="M23,9.009c0-2.308-3.44-4.423-5.993-3.008c0.33-0.592,0.493-1.088,0.493-1.492c0-2.129-1.438-4.5-3.5-4.5
		c-0.952,0-1.848,0.385-2.5,1.051C10.848,0.394,9.951,0.009,9,0.009c-2.063,0-3.5,2.371-3.5,4.5c0,0.404,0.163,0.9,0.492,1.492
		C3.435,4.581,0,6.703,0,9.009c0,0.951,0.384,1.848,1.051,2.5C0.384,12.161,0,13.056,0,14.009c0,2.063,2.371,3.5,4.5,3.5
		c1.64,0,5.014-1.502,6.5-2.203v6.203c0,1.378,0.896,2.5,2,2.5h1.5c0.276,0,0.5-0.224,0.5-0.5s-0.224-0.5-0.5-0.5H13
		c-0.542,0-1-0.688-1-1.5v-6.203c1.485,0.701,4.859,2.203,6.5,2.203c2.128,0,4.5-1.438,4.5-3.5c0-0.953-0.385-1.848-1.052-2.5
		C22.615,10.856,23,9.96,23,9.009z"/>
</g>
<g id="invisible_shape">
	<rect fill="none" width="24" height="24"/>
</g>
</svg>
