<?xml version="1.0" encoding="utf-8"?>
<!-- Generator: Adobe Illustrator 19.2.0, SVG Export Plug-In . SVG Version: 6.00 Build 0)  -->
<svg version="1.1" xmlns="http://www.w3.org/2000/svg" xmlns:xlink="http://www.w3.org/1999/xlink" x="0px" y="0px" width="24px"
	 height="24px" viewBox="0 0 24 24" enable-background="new 0 0 24 24" xml:space="preserve">
<g id="Filled_Icons">
	<g>
		<polygon points="10,5 4,11.5 4.977,7 0.5,7 6,0.5 5,5 		"/>
		<g>
			<circle cx="19.5" cy="19.5" r="1"/>
			<path d="M19.5,15c-0.371,0-0.73,0.051-1.076,0.135l-1.763-4.785l1.46-0.365c0.268-0.066,0.431-0.338,0.363-0.606
				c-0.066-0.269-0.339-0.434-0.605-0.365l-2,0.5c-0.138,0.035-0.255,0.127-0.321,0.252s-0.076,0.273-0.027,0.406l0.507,1.377
				l-6.78,2.332L8.492,12H9.5c0.276,0,0.5-0.225,0.5-0.5c0-0.277-0.224-0.5-0.5-0.5H7.759c-0.002,0-0.004,0-0.006,0H6.5
				C6.224,11,6,11.223,6,11.5C6,11.775,6.224,12,6.5,12h0.913l0.984,2.422l-1.281,1.424C6.378,15.316,5.476,15,4.5,15
				C2.019,15,0,17.02,0,19.5S2.019,24,4.5,24c2.312,0,4.221-1.754,4.47-4h1.998c0.011,0,0.021,0.002,0.031,0.002
				c0.153,0,0.304-0.072,0.402-0.203l5.132-6.904l0.953,2.586C16.014,16.221,15,17.742,15,19.5c0,2.48,2.019,4.5,4.5,4.5
				s4.5-2.02,4.5-4.5S21.981,15,19.5,15z M4.5,22.5c-1.654,0-3-1.346-3-3s1.346-3,3-3s3,1.346,3,3S6.154,22.5,4.5,22.5z M8.97,19
				c-0.104-0.949-0.509-1.809-1.111-2.484l0.957-1.064L10.257,19H8.97z M11.129,18.488l-1.495-3.68l5.685-1.955L11.129,18.488z
				 M19.5,22.5c-1.654,0-3-1.346-3-3s1.346-3,3-3s3,1.346,3,3S21.154,22.5,19.5,22.5z"/>
			<circle cx="4.5" cy="19.5" r="1"/>
		</g>
	</g>
</g>
<g id="invisible_shape">
	<rect fill="none" width="24" height="24"/>
</g>
</svg>
