<?xml version="1.0" encoding="utf-8"?>
<!-- Generator: Adobe Illustrator 19.2.0, SVG Export Plug-In . SVG Version: 6.00 Build 0)  -->
<svg version="1.1" xmlns="http://www.w3.org/2000/svg" xmlns:xlink="http://www.w3.org/1999/xlink" x="0px" y="0px" width="24px"
	 height="24px" viewBox="0 0 24 24" enable-background="new 0 0 24 24" xml:space="preserve">
<g id="Filled_Icons">
	<g>
		<g>
			<path d="M12.037,19.297c0.171-0.386,0.718-0.396,0.905-0.019C12.977,19.349,13.817,21,15.493,21c1.749,0,2.516-1.636,2.548-1.706
				c0.162-0.355,0.749-0.355,0.911,0C18.984,19.364,19.751,21,21.5,21c1.464,0,2.298-1.275,2.5-1.627v-2.409
				C23.433,17.497,22.605,18,21.5,18c-1.525,0-2.491-0.886-3.003-1.558C17.984,17.114,17.019,18,15.493,18
				c-1.481,0-2.463-0.901-2.988-1.571C11.996,17.103,11.029,18,9.493,18c-0.413,0-0.781-0.068-1.114-0.176
				c0.59,1.366,1.222,2.381,1.758,3.093C11.445,20.582,12.03,19.312,12.037,19.297z"/>
			<path d="M21.5,22c-1.525,0-2.491-0.886-3.003-1.558C17.984,21.114,17.019,22,15.493,22c-1.481,0-2.463-0.901-2.988-1.571
				c-0.342,0.452-0.896,0.999-1.684,1.315c0.338,0.363,0.563,0.545,0.573,0.553c0.513,0.389,0.727,1.066,0.522,1.678
				c-0.003,0.01-0.01,0.017-0.014,0.026H23.5c0.276,0,0.5-0.224,0.5-0.5v-2.536C23.433,21.497,22.605,22,21.5,22z"/>
			<path d="M7.835,16.397C8.238,16.725,8.779,17,9.493,17c1.764,0,2.536-1.686,2.543-1.703c0.171-0.386,0.718-0.396,0.905-0.019
				C12.977,15.349,13.817,17,15.493,17c1.749,0,2.516-1.636,2.548-1.706c0.162-0.355,0.749-0.355,0.911,0
				C18.984,15.364,19.751,17,21.5,17c1.464,0,2.298-1.275,2.5-1.627v-2.13c0-0.427-0.5-0.653-0.821-0.383
				c-0.506,0.425-1.068,0.64-1.672,0.64c-1.749,0-2.516-1.636-2.548-1.706c-0.177-0.388-0.734-0.388-0.911,0
				c-0.032,0.07-0.799,1.706-2.548,1.706c-1.676,0-2.517-1.651-2.552-1.722c-0.177-0.356-0.726-0.384-0.905,0.019
				C12.036,11.814,11.264,13.5,9.5,13.5c-1.748,0-2.512-1.636-2.544-1.705c-0.042-0.092-0.117-0.161-0.204-0.214
				C6.989,13.469,7.378,15.06,7.835,16.397z"/>
		</g>
		<path d="M10.795,23.097C10.742,23.058,5.5,19.06,5.5,7.5C5.5,7.224,5.276,7,5,7H0.5C0.224,7,0,7.224,0,7.5v16
			C0,23.776,0.224,24,0.5,24h10C10.979,24,11.185,23.383,10.795,23.097z"/>
	</g>
</g>
<g id="invisible_shape">
	<rect fill="none" width="24" height="24"/>
</g>
</svg>
