<?xml version="1.0" encoding="utf-8"?>
<!-- Generator: Adobe Illustrator 19.2.0, SVG Export Plug-In . SVG Version: 6.00 Build 0)  -->
<svg version="1.1" xmlns="http://www.w3.org/2000/svg" xmlns:xlink="http://www.w3.org/1999/xlink" x="0px" y="0px" width="24px"
	 height="24px" viewBox="0 0 24 24" enable-background="new 0 0 24 24" xml:space="preserve">
<g id="Filled_Icons">
	<g>
		<path d="M18.469,13.003h-2.494c-0.041-0.541-0.148-1.061-0.313-1.557l2.297-0.967c0.254-0.107,0.373-0.4,0.267-0.656
			c-0.107-0.254-0.4-0.371-0.655-0.266l-2.298,0.968c-0.232-0.448-0.515-0.866-0.841-1.247l1.765-1.763
			c0.195-0.194,0.195-0.511,0-0.707c-0.195-0.196-0.512-0.196-0.707,0l-1.765,1.763c-0.405-0.347-0.854-0.643-1.335-0.883
			l0.934-2.313c0.104-0.256-0.02-0.549-0.276-0.65c-0.257-0.103-0.548,0.02-0.651,0.275l-0.932,2.307
			C10.997,7.159,10.506,7.067,10,7.028V4.536c0-0.277-0.224-0.5-0.5-0.5S9,4.259,9,4.536v2.492C8.494,7.067,8.003,7.159,7.536,7.308
			L6.602,5.001c-0.103-0.256-0.394-0.38-0.65-0.275C5.696,4.829,5.573,5.12,5.676,5.376l0.935,2.313
			c-0.481,0.24-0.93,0.536-1.335,0.883L3.512,6.809C3.316,6.612,3,6.612,2.805,6.809c-0.195,0.196-0.195,0.513,0,0.707l1.765,1.763
			c-0.326,0.381-0.608,0.799-0.841,1.247L1.431,9.558C1.176,9.452,0.883,9.569,0.775,9.823c-0.107,0.256,0.012,0.549,0.267,0.656
			l2.297,0.967c-0.166,0.496-0.273,1.016-0.314,1.557H0.531c-0.276,0-0.5,0.223-0.5,0.5c0,0.275,0.224,0.5,0.5,0.5h2.495
			c0.041,0.539,0.148,1.061,0.314,1.557l-2.297,0.969c-0.255,0.107-0.374,0.4-0.267,0.655c0.081,0.191,0.266,0.306,0.461,0.306
			c0.065,0,0.131-0.014,0.194-0.039l2.298-0.971c0.232,0.449,0.515,0.867,0.842,1.248l-1.766,1.764
			c-0.195,0.197-0.195,0.514,0,0.708c0.098,0.097,0.226,0.146,0.354,0.146c0.128,0,0.256-0.049,0.353-0.146l1.766-1.765
			c0.404,0.346,0.853,0.642,1.334,0.883l-0.935,2.314c-0.103,0.256,0.02,0.547,0.276,0.65c0.062,0.025,0.125,0.037,0.188,0.037
			c0.197,0,0.385-0.117,0.463-0.313l0.934-2.309c0.467,0.149,0.958,0.24,1.464,0.279v2.494c0,0.277,0.224,0.5,0.5,0.5
			s0.5-0.223,0.5-0.5v-2.494c0.506-0.039,0.996-0.131,1.463-0.279l0.932,2.309c0.079,0.195,0.266,0.313,0.464,0.313
			c0.063,0,0.126-0.012,0.187-0.037c0.257-0.104,0.38-0.395,0.277-0.649l-0.934-2.315c0.481-0.24,0.93-0.537,1.334-0.883
			l1.766,1.765c0.098,0.097,0.226,0.146,0.353,0.146s0.256-0.049,0.353-0.146c0.195-0.194,0.195-0.511,0-0.708l-1.766-1.764
			c0.326-0.381,0.609-0.799,0.842-1.248l2.298,0.971c0.063,0.025,0.129,0.039,0.194,0.039c0.194,0,0.38-0.114,0.461-0.306
			c0.107-0.255-0.013-0.548-0.267-0.655l-2.297-0.969c0.166-0.496,0.271-1.018,0.313-1.557h2.494c0.276,0,0.5-0.225,0.5-0.5
			C18.969,13.226,18.745,13.003,18.469,13.003z M8,17.003c-1.103,0-2-0.898-2-2c0-1.102,0.897-2,2-2c1.102,0,2,0.898,2,2
			C10,16.104,9.102,17.003,8,17.003z M11,12.003c-0.552,0-1-0.448-1-1c0-0.551,0.448-1,1-1c0.551,0,1,0.449,1,1
			C12,11.555,11.551,12.003,11,12.003z M12.5,15.003c-0.276,0-0.5-0.224-0.5-0.5c0-0.275,0.224-0.5,0.5-0.5
			c0.275,0,0.5,0.225,0.5,0.5C13,14.779,12.775,15.003,12.5,15.003z"/>
		<path d="M23.5,3.003h-0.551c-0.064-0.318-0.192-0.615-0.365-0.877l0.391-0.391c0.195-0.194,0.195-0.511,0-0.707
			c-0.195-0.194-0.512-0.194-0.707,0l-0.391,0.393C21.614,1.245,21.318,1.118,21,1.054V0.503c0-0.277-0.224-0.5-0.5-0.5
			S20,0.226,20,0.503v0.551c-0.319,0.064-0.614,0.191-0.877,0.367l-0.391-0.393c-0.195-0.194-0.512-0.194-0.707,0
			c-0.195,0.196-0.195,0.513,0,0.707l0.391,0.391c-0.173,0.262-0.301,0.559-0.365,0.877H17.5c-0.276,0-0.5,0.223-0.5,0.5
			c0,0.275,0.224,0.5,0.5,0.5h0.551c0.064,0.318,0.192,0.615,0.366,0.877l-0.392,0.393c-0.195,0.194-0.195,0.51,0,0.705
			c0.098,0.098,0.226,0.148,0.354,0.148c0.128,0,0.256-0.05,0.354-0.148l0.392-0.391C19.386,5.761,19.682,5.888,20,5.952v0.551
			c0,0.275,0.224,0.5,0.5,0.5s0.5-0.225,0.5-0.5V5.952c0.318-0.064,0.614-0.191,0.876-0.365l0.392,0.391
			c0.097,0.098,0.226,0.148,0.354,0.148c0.128,0,0.256-0.05,0.354-0.148c0.195-0.195,0.195-0.511,0-0.705L22.583,4.88
			c0.174-0.262,0.301-0.559,0.366-0.877H23.5c0.276,0,0.5-0.225,0.5-0.5C24,3.226,23.776,3.003,23.5,3.003z"/>
	</g>
</g>
<g id="invisible_shape">
	<rect fill="none" width="24" height="24"/>
</g>
</svg>
