<?xml version="1.0" encoding="utf-8"?>
<!-- Generator: Adobe Illustrator 19.2.0, SVG Export Plug-In . SVG Version: 6.00 Build 0)  -->
<svg version="1.1" xmlns="http://www.w3.org/2000/svg" xmlns:xlink="http://www.w3.org/1999/xlink" x="0px" y="0px" width="24px"
	 height="24px" viewBox="0 0 24 24" enable-background="new 0 0 24 24" xml:space="preserve">
<g id="Filled_Icons">
	<g>
		<path d="M5.017,16.441c0.027-2.581,0.47-4.568,1.313-5.909c0.441-0.701,1.367-0.912,2.069-0.47c0.7,0.441,0.911,1.367,0.47,2.068
			c-0.374,0.594-0.825,1.829-0.852,4.342c-0.006,0.563,0.094,1.1,0.26,1.604c0.242,0.067,0.479,0.113,0.704,0.113
			c0.814,0,1.893-0.45,2.406-2.592c0.543-2.267-1.022-6.794-3.43-8.497C7.833,7.016,7.678,6.989,7.531,7.029
			C7.386,7.07,7.267,7.176,7.207,7.315C6.673,8.58,5.773,9.438,4.902,10.267c-0.995,0.947-1.934,1.843-2.268,3.236
			c-0.284,1.188-0.162,2.161,0.352,2.812c0.44,0.56,1.136,0.846,2.058,0.861C5.024,16.934,5.014,16.688,5.017,16.441z"/>
		<path d="M21.5,4H20V1.5C20,1.223,19.776,1,19.5,1S19,1.223,19,1.5V4h-4V1.5C15,1.223,14.776,1,14.5,1S14,1.223,14,1.5V4h-1.5
			C12.224,4,12,4.223,12,4.5v2c0,2.756,2.243,5,5,5v6c0,2.817-1.869,4.5-5,4.5c-1.253,0-2.455-0.518-3.386-1.459
			C7.567,19.483,7,18.035,7.017,16.462c0.023-2.205,0.362-3.841,1.006-4.864c0.147-0.233,0.077-0.542-0.156-0.689
			c-0.232-0.147-0.542-0.076-0.689,0.156c-0.744,1.182-1.135,2.994-1.16,5.387c-0.02,1.842,0.651,3.545,1.888,4.794
			C9.023,22.377,10.479,23,12,23c3.701,0,6-2.107,6-5.5v-6.102c2.279-0.465,4-2.484,4-4.898v-2C22,4.223,21.776,4,21.5,4z"/>
	</g>
</g>
<g id="invisible_shape">
	<rect fill="none" width="24" height="24"/>
</g>
</svg>
