<?xml version="1.0" encoding="utf-8"?>
<!-- Generator: Adobe Illustrator 19.2.0, SVG Export Plug-In . SVG Version: 6.00 Build 0)  -->
<svg version="1.1" xmlns="http://www.w3.org/2000/svg" xmlns:xlink="http://www.w3.org/1999/xlink" x="0px" y="0px" width="24px"
	 height="24px" viewBox="0 0 24 24" enable-background="new 0 0 24 24" xml:space="preserve">
<g id="Filled_Icons">
	<g>
		<path d="M23.777,19.084l-5.564-3.699C17.676,15.129,17.1,15,16.5,15H14c-2.111,0-3.712,2.02-3.951,4h2.501
			c0.109-0.529,0.386-1.015,0.8-1.376c0.207-0.181,0.523-0.161,0.706,0.048c0.181,0.209,0.16,0.524-0.048,0.706
			c-0.194,0.169-0.331,0.386-0.416,0.622h1.465c0.087-0.426,0.281-0.826,0.573-1.156c0.183-0.208,0.499-0.226,0.705-0.042
			c0.207,0.183,0.226,0.499,0.042,0.706C16.25,18.652,16.157,18.82,16.094,19H17.5c0.276,0,0.5,0.224,0.5,0.5S17.776,20,17.5,20
			h-1.407c0.064,0.181,0.156,0.351,0.285,0.496c0.183,0.207,0.164,0.523-0.043,0.706c-0.205,0.181-0.522,0.164-0.706-0.044
			c-0.293-0.331-0.486-0.731-0.573-1.158h-1.469c0.084,0.238,0.22,0.457,0.412,0.628c0.207,0.184,0.225,0.5,0.042,0.706
			c-0.182,0.205-0.497,0.226-0.705,0.042c-0.408-0.363-0.681-0.849-0.787-1.376h-2.499c0.239,1.98,1.84,4,3.951,4h2.5
			c0.611,0,1.199-0.135,1.805-0.435l5.473-3.649C24.074,19.719,24.074,19.281,23.777,19.084z"/>
		<g>
			<path d="M3,7.5C3,7.776,3.224,8,3.5,8H5V1H3.5C3.224,1,3,1.224,3,1.5V3H1.5C1.224,3,1,3.224,1,3.5S1.224,4,1.5,4H3v1H1.5
				C1.224,5,1,5.224,1,5.5S1.224,6,1.5,6H3V7.5z"/>
			<path d="M20,4h-9.549C10.211,2.19,8.693,1,6.5,1H6v7h0.5c2.193,0,3.711-1.189,3.951-3H20c1.378,0,2.5,1.121,2.5,2.5
				S21.378,10,20,10H7c-2.757,0-5,2.243-5,5s2.243,5,5,5h3v-1H7c-2.206,0-4-1.794-4-4s1.794-4,4-4h13c1.93,0,3.5-1.57,3.5-3.5
				S21.93,4,20,4z"/>
		</g>
	</g>
</g>
<g id="invisible_shape">
	<rect fill="none" width="24" height="24"/>
</g>
</svg>
