<?xml version="1.0" encoding="utf-8"?>
<!-- Generator: Adobe Illustrator 19.2.0, SVG Export Plug-In . SVG Version: 6.00 Build 0)  -->
<svg version="1.1" xmlns="http://www.w3.org/2000/svg" xmlns:xlink="http://www.w3.org/1999/xlink" x="0px" y="0px" width="24px"
	 height="24px" viewBox="0 0 24 24" enable-background="new 0 0 24 24" xml:space="preserve">
<g id="Filled_Icons">
	<g>
		<path d="M3.5,14.002h-3c-0.276,0-0.5,0.223-0.5,0.5v8c0,0.275,0.224,0.5,0.5,0.492h3C3.775,23.002,4,22.777,4,22.502v-8
			C4,14.225,3.775,14.002,3.5,14.002z"/>
		<path d="M23.854,18.146c-1.175-1.173-2.187-1.498-3.512-1.12l-3.008,0.997c0.026,0.158,0.041,0.317,0.041,0.479
			c0,0.64-0.208,1.241-0.585,1.693c-0.438,0.527-1.058,0.807-1.79,0.807H9.5c-0.276,0-0.5-0.225-0.5-0.5
			c0-0.277,0.224-0.5,0.5-0.508H15c0.432,0.008,0.775-0.142,1.021-0.439c0.225-0.27,0.354-0.652,0.354-1.053
			c0-0.559-0.29-1.5-1.375-1.5h-2.798H12c-0.133,0-0.26-0.053-0.354-0.149c-0.558-0.557-2.077-1.852-4.146-1.852h-2
			c-0.276,0-0.5,0.223-0.5,0.5v5.5c0,0.215,0.138,0.405,0.342,0.473c1.584,0.527,2.831,0.98,3.833,1.346
			c2.004,0.727,3.13,1.122,4.141,1.122c1.212,0,2.257-0.567,4.453-1.808c1.368-0.772,3.241-1.83,5.955-3.186
			c0.144-0.073,0.244-0.211,0.27-0.369C24.019,18.422,23.967,18.261,23.854,18.146z"/>
		<path d="M8.655,11.252c0.79,0,1.476-0.383,2.049-1.133c1.355,2.493,1.812,4.484,1.818,4.518c0.091,0.421,0.444,0.766,0.977,0.788
			c0.414,0,0.79-0.261,0.936-0.648c0.032-0.084,0.477-1.229,1.319-2.446c0.562,0.637,1.188,0.801,1.687,0.801l0,0
			c0.794,0,1.662-0.436,2.381-1.195c1.201-1.264,1.891-4.684,0.955-6.719c-0.063-0.139-0.185-0.24-0.332-0.277
			c-0.145-0.037-0.302-0.004-0.424,0.086c-0.876,0.66-1.686,0.87-2.543,1.092c-0.738,0.191-1.503,0.389-2.257,0.892
			c-0.869,0.579-1.368,1.378-1.37,2.187c-0.001,0.402,0.123,0.945,0.622,1.506c-0.288,0.374-0.544,0.748-0.764,1.104
			c-0.369-0.945-0.865-2.027-1.521-3.163c0.741-0.509,1.199-1.112,1.359-1.806c0.231-0.996-0.155-2.095-1.148-3.262
			c-0.928-1.095-2.17-1.47-3.485-1.864c-1.151-0.347-2.341-0.704-3.39-1.591c-0.115-0.1-0.27-0.14-0.418-0.109
			C4.96,0.039,4.833,0.133,4.762,0.268C3.384,2.873,4.032,7.619,5.54,9.396C6.258,10.242,7.381,11.252,8.655,11.252z M6.884,3.715
			c0.192-0.193,0.462-0.221,0.772,0.057c1.625,1.482,2.987,3.197,4.106,5.137c0.002-0.001,0.003-0.002,0.005-0.004
			c0.961,1.668,1.404,2.863,1.843,4.066c1.027-1.801,2.294-3.559,4.166-4.493c0.233-0.114,0.516-0.021,0.646,0.192
			c0.198,0.34,0.028,0.482-0.198,0.701c-2.192,1.096-3.824,3.963-4.255,5.228l0,0c-0.16,0.421-0.771,0.447-0.935-0.012
			c-0.354-1-0.549-2.303-2.017-4.932l0.003-0.004c-0.936-1.676-2.265-3.549-4.119-5.217C6.718,4.269,6.675,3.925,6.884,3.715z"/>
	</g>
</g>
<g id="invisible_shape">
	<rect fill="none" width="24" height="24"/>
</g>
</svg>
