<?xml version="1.0" encoding="utf-8"?>
<!-- Generator: Adobe Illustrator 19.2.0, SVG Export Plug-In . SVG Version: 6.00 Build 0)  -->
<svg version="1.1" xmlns="http://www.w3.org/2000/svg" xmlns:xlink="http://www.w3.org/1999/xlink" x="0px" y="0px" width="24px"
	 height="24px" viewBox="0 0 24 24" enable-background="new 0 0 24 24" xml:space="preserve">
<g id="Filled_Icons">
	<g>
		<path d="M11.448,12.236c1.939,1.561,2.908,1.152,3.393-0.869c0.419-1.75-0.779-5.381-2.572-7.066
			C10.929,6.76,8.527,7.67,8.033,9.736c-0.487,2.03,0.389,2.703,2.422,2.348c0.064-1.902,0.365-3.777,1.147-5.018
			c0.148-0.234,0.456-0.305,0.691-0.158c0.232,0.148,0.304,0.455,0.156,0.691C11.753,8.703,11.494,10.447,11.448,12.236z"/>
		<path d="M11.5,0C6.262,0,2,4.037,2,9c0,3.863,2.653,7.32,6.5,8.535V18.5C8.5,18.775,8.724,19,9,19h1.991
			c-0.094-0.529-0.53-3.127-0.549-5.9c-2.816,0.432-3.975-1.127-3.382-3.596c0.631-2.636,3.433-3.493,4.573-6.187
			c0.127-0.301,0.493-0.397,0.749-0.215c2.407,1.703,3.974,6.23,3.431,8.498c-0.607,2.535-2.203,3.311-4.366,1.877
			C11.509,16.148,11.99,19,11.99,19H14c0.275,0,0.5-0.225,0.5-0.5v-0.965C18.346,16.32,21,12.863,21,9C21,4.037,16.738,0,11.5,0z"/>
		<path d="M14,20H9c-0.276,0-0.5,0.223-0.5,0.5C8.5,20.775,8.724,21,9,21h5c0.275,0,0.5-0.225,0.5-0.5C14.5,20.223,14.275,20,14,20z
			"/>
		<path d="M14,22H9c-0.276,0-0.5,0.223-0.5,0.5C8.5,22.775,8.724,23,9,23h2v0.5c0,0.275,0.224,0.5,0.5,0.5
			c0.275,0,0.5-0.225,0.5-0.5V23h2c0.275,0,0.5-0.225,0.5-0.5C14.5,22.223,14.275,22,14,22z"/>
	</g>
</g>
<g id="invisible_shape">
	<rect fill="none" width="24" height="24"/>
</g>
</svg>
