<?xml version="1.0" encoding="utf-8"?>
<!-- Generator: Adobe Illustrator 19.2.0, SVG Export Plug-In . SVG Version: 6.00 Build 0)  -->
<svg version="1.1" xmlns="http://www.w3.org/2000/svg" xmlns:xlink="http://www.w3.org/1999/xlink" x="0px" y="0px" width="24px"
	 height="24px" viewBox="0 0 24 24" enable-background="new 0 0 24 24" xml:space="preserve">
<g id="Filled_Icons">
	<path d="M23.75,10.882c-0.155-0.09-0.345-0.09-0.499-0.001l-5.233,3.004v-2.547c0-0.177-0.094-0.342-0.248-0.431
		c-0.154-0.091-0.344-0.093-0.498-0.005L12,13.869v-2.555c0-0.183-0.101-0.352-0.261-0.439c-0.162-0.088-0.357-0.079-0.511,0.021
		l-4.637,3.012L4.823,5.398C4.774,5.167,4.569,5,4.333,5H1.938c-0.249,0-0.46,0.184-0.495,0.431L0,15.7v7.794
		c0,0.275,0.224,0.5,0.5,0.5h23c0.276,0,0.5-0.225,0.5-0.5v-12.18C24,11.137,23.904,10.971,23.75,10.882z M9,21H7.5
		C7.224,21,7,20.775,7,20.5C7,20.223,7.224,20,7.5,20H9c0.276,0,0.5,0.223,0.5,0.5C9.5,20.775,9.276,21,9,21z M9,19H7.5
		C7.224,19,7,18.775,7,18.5C7,18.223,7.224,18,7.5,18H9c0.276,0,0.5,0.223,0.5,0.5C9.5,18.775,9.276,19,9,19z M15,21h-1.5
		c-0.276,0-0.5-0.225-0.5-0.5c0-0.277,0.224-0.5,0.5-0.5H15c0.276,0,0.5,0.223,0.5,0.5C15.5,20.775,15.276,21,15,21z M15,19h-1.5
		c-0.276,0-0.5-0.225-0.5-0.5c0-0.277,0.224-0.5,0.5-0.5H15c0.276,0,0.5,0.223,0.5,0.5C15.5,18.775,15.276,19,15,19z M21,21h-1.5
		c-0.276,0-0.5-0.225-0.5-0.5c0-0.277,0.224-0.5,0.5-0.5H21c0.276,0,0.5,0.223,0.5,0.5C21.5,20.775,21.276,21,21,21z M21,19h-1.5
		c-0.276,0-0.5-0.225-0.5-0.5c0-0.277,0.224-0.5,0.5-0.5H21c0.276,0,0.5,0.223,0.5,0.5C21.5,18.775,21.276,19,21,19z"/>
	<path d="M22.055,2.684C21.97,2.56,21.832,2.48,21.681,2.469c-1.369-0.102-2.469-0.682-3.532-1.24
		c-1.217-0.641-2.368-1.244-3.793-1.115c-1.338,0.123-2.26,0.617-2.667,1.433c-0.276,0.556-0.27,1.229-0.033,1.994
		C9.082,4.451,6.916,5.66,6.506,5.896C5.787,6.308,5.539,7.224,5.95,7.942c0.277,0.483,0.783,0.755,1.304,0.755
		c0.252,0,0.509-0.064,0.743-0.198c1.001-0.573,2.379-1.245,3.82-1.809c-0.013,0.567,0.107,1.045,0.372,1.432
		c0.634,0.93,1.863,1.055,2.98,0.956c2.321-0.21,6.11-3.142,6.952-5.966C22.166,2.967,22.141,2.81,22.055,2.684z M18.487,4.242
		c-0.065,0.27-0.336,0.436-0.604,0.369C14.325,3.759,7.568,7.592,7.5,7.631C7.422,7.676,7.337,7.697,7.252,7.697
		c-0.173,0-0.342-0.092-0.434-0.252C6.681,7.205,6.764,6.9,7.003,6.764c0.291-0.168,7.173-4.08,11.115-3.125
		C18.387,3.703,18.552,3.974,18.487,4.242z"/>
</g>
<g id="invisible_shape">
	<rect fill="none" width="24" height="24"/>
</g>
</svg>
