<?xml version="1.0" encoding="utf-8"?>
<!-- Generator: Adobe Illustrator 19.2.0, SVG Export Plug-In . SVG Version: 6.00 Build 0)  -->
<svg version="1.1" xmlns="http://www.w3.org/2000/svg" xmlns:xlink="http://www.w3.org/1999/xlink" x="0px" y="0px" width="24px"
	 height="24px" viewBox="0 0 24 24" enable-background="new 0 0 24 24" xml:space="preserve">
<g id="Filled_Icons">
	<g>
		<path d="M23.925,12.245c-0.052-0.303-0.372-0.499-0.681-0.379c-2.761,1.124-5.261-0.294-7.608,1.143
			c-1.849,1.135-2.377,2.751-0.911,4.283c-1.894,1.953-3.294,3.988-3.557,4.383c-0.462,0.688-0.277,1.619,0.411,2.08
			c0.686,0.459,1.618,0.28,2.081-0.412c0.644-0.96,1.583-2.18,2.628-3.328c0.821,1.749,2.397,1.681,4.056,0.664
			C22.33,19.46,24.424,15.152,23.925,12.245z M20.794,15.472c-3.573,0.813-7.921,7.25-7.964,7.315
			c-0.153,0.229-0.463,0.29-0.693,0.138c-0.23-0.154-0.291-0.465-0.138-0.695c0.187-0.277,4.616-6.834,8.574-7.732
			c0.266-0.063,0.537,0.107,0.598,0.377C21.231,15.144,21.063,15.411,20.794,15.472z"/>
		<path d="M19.5,0.009L19.5,0.009l-6.259,0.007c-0.132,0-0.259,0.053-0.353,0.146L0.646,12.404c-0.195,0.196-0.195,0.513,0,0.708
			l6.25,6.25c0.196,0.196,0.517,0.196,0.71-0.004l12.25-12.5C19.948,6.766,20,6.64,20,6.509v-6C20,0.233,19.777,0.009,19.5,0.009z
			 M16,6.009c-1.103,0-2-0.898-2-2c0-1.104,0.897-2,2-2c1.103,0,2,0.896,2,2C18,5.11,17.103,6.009,16,6.009z"/>
	</g>
</g>
<g id="invisible_shape">
	<rect fill="none" width="24" height="24"/>
</g>
</svg>
