<?xml version="1.0" encoding="utf-8"?>
<!-- Generator: Adobe Illustrator 19.2.0, SVG Export Plug-In . SVG Version: 6.00 Build 0)  -->
<svg version="1.1" xmlns="http://www.w3.org/2000/svg" xmlns:xlink="http://www.w3.org/1999/xlink" x="0px" y="0px" width="24px"
	 height="24px" viewBox="0 0 24 24" enable-background="new 0 0 24 24" xml:space="preserve">
<g id="Filled_Icons">
	<g>
		<path d="M19.943,6.721C19.977,6.652,20,6.58,20,6.5v-4C20,2.223,19.776,2,19.5,2h-4.727L19.943,6.721z"/>
		<g>
			<path d="M23.5,12.5c-0.12,0-0.241-0.043-0.337-0.131L12,2.177L0.837,12.369c-0.203,0.188-0.52,0.172-0.706-0.033
				c-0.187-0.203-0.172-0.52,0.032-0.705l11.5-10.5c0.191-0.176,0.482-0.176,0.674,0l11.5,10.5c0.204,0.185,0.219,0.502,0.032,0.705
				C23.771,12.445,23.636,12.5,23.5,12.5z"/>
		</g>
		<path d="M12,3.531l-9,8.217V23.5C3,23.775,3.224,24,3.5,24h17c0.276,0,0.5-0.225,0.5-0.5V11.748L12,3.531z M10,6.5
			C10,6.223,10.224,6,10.5,6h3C13.776,6,14,6.223,14,6.5v3c0,0.275-0.224,0.5-0.5,0.5h-3C10.224,10,10,9.775,10,9.5V6.5z M6,23.5
			c-0.096,0-0.192-0.027-0.278-0.085c-0.23-0.153-0.291-0.464-0.137-0.694c0.187-0.278,4.617-6.836,8.574-7.733
			c0.27-0.061,0.536,0.108,0.598,0.378c0.062,0.269-0.107,0.537-0.377,0.598c-3.573,0.81-7.921,7.25-7.965,7.314
			C6.319,23.422,6.161,23.5,6,23.5z M13.93,21.169c-0.777,0.478-1.482,0.72-2.096,0.72c-0.672,0-1.449-0.298-1.96-1.384
			c1.547-1.702,3.325-3.249,4.728-3.567c0.808-0.183,1.314-0.986,1.131-1.794c-0.184-0.808-0.979-1.317-1.795-1.132
			c-1.979,0.449-3.988,2.078-5.627,3.77c-0.559-0.584-0.845-1.19-0.843-1.814c0.002-0.91,0.609-1.765,1.755-2.469
			c1.271-0.779,2.583-0.717,3.892-0.684c1.1,0.026,2.348,0.099,3.717-0.457c0.14-0.058,0.3-0.049,0.432,0.025
			c0.132,0.074,0.224,0.203,0.25,0.354C18.011,15.643,15.916,19.95,13.93,21.169z"/>
	</g>
</g>
<g id="invisible_shape">
	<rect fill="none" width="24" height="24"/>
</g>
</svg>
