<?xml version="1.0" encoding="utf-8"?>
<!-- Generator: Adobe Illustrator 19.2.0, SVG Export Plug-In . SVG Version: 6.00 Build 0)  -->
<svg version="1.1" xmlns="http://www.w3.org/2000/svg" xmlns:xlink="http://www.w3.org/1999/xlink" x="0px" y="0px" width="24px"
	 height="24px" viewBox="0 0 24 24" enable-background="new 0 0 24 24" xml:space="preserve">
<g id="Filled_Icons">
	<g>
		<g>
			<path d="M19.84,15l-1.876-4.686C17.889,10.124,17.704,10,17.5,10H13v1.5c0.828,0,1.5,0.671,1.5,1.5c0,0.828-0.672,1.5-1.5,1.5
				c-1.654,0-3-1.346-3-3V10H6.5c-0.204,0-0.389,0.124-0.464,0.314L4.161,15H19.84z"/>
			<path d="M17,20c-0.276,0-0.5-0.225-0.5-0.5c0-0.277,0.224-0.5,0.5-0.5h5v-1.5c0-0.133-0.053-0.26-0.146-0.354l-1.145-1.144H3.291
				l-1.144,1.144C2.053,17.24,2,17.367,2,17.5V19h5c0.276,0,0.5,0.223,0.5,0.5C7.5,19.775,7.276,20,7,20H2v1.5
				C2,21.775,2.224,22,2.5,22H3v1.5C3,23.775,3.224,24,3.5,24h3C6.776,24,7,23.775,7,23.5V22h10v1.5c0,0.275,0.224,0.5,0.5,0.5h3
				c0.276,0,0.5-0.225,0.5-0.5V22h0.5c0.276,0,0.5-0.225,0.5-0.5V20H17z"/>
		</g>
		<path d="M15,3h-1V1c0-0.277-0.224-0.5-0.5-0.5S13,0.723,13,1v2h-3V1c0-0.277-0.224-0.5-0.5-0.5S9,0.723,9,1v2H8
			C7.724,3,7.5,3.223,7.5,3.5V4c0,2.033,1.532,3.699,3.5,3.949V11.5c0,1.102,0.898,2,2,2c0.276,0,0.5-0.225,0.5-0.5
			c0-0.277-0.224-0.5-0.5-0.5c-0.552,0-1-0.449-1-1V7.949c1.968-0.25,3.5-1.916,3.5-3.949V3.5C15.5,3.223,15.276,3,15,3z"/>
	</g>
</g>
<g id="invisible_shape">
	<rect fill="none" width="24" height="24"/>
</g>
</svg>
