<?xml version="1.0" encoding="utf-8"?>
<!-- Generator: Adobe Illustrator 19.2.0, SVG Export Plug-In . SVG Version: 6.00 Build 0)  -->
<svg version="1.1" xmlns="http://www.w3.org/2000/svg" xmlns:xlink="http://www.w3.org/1999/xlink" x="0px" y="0px" width="24px"
	 height="24px" viewBox="0 0 24 24" enable-background="new 0 0 24 24" xml:space="preserve">
<g id="Filled_Icons">
	<g>
		<path d="M19.814,2.691c-0.085-0.125-0.223-0.203-0.374-0.215c-1.369-0.103-2.469-0.682-3.532-1.241
			c-1.217-0.64-2.368-1.243-3.793-1.114c-1.337,0.121-2.26,0.617-2.667,1.432c-0.277,0.556-0.27,1.23-0.034,1.994
			c-2.573,0.911-4.739,2.12-5.149,2.355C3.546,6.314,3.298,7.231,3.71,7.949c0.415,0.725,1.335,0.966,2.046,0.557
			c1.001-0.573,2.379-1.245,3.82-1.81C9.564,7.264,9.684,7.742,9.948,8.129c0.634,0.928,1.867,1.056,2.981,0.955
			c2.321-0.211,6.11-3.142,6.952-5.966C19.925,2.973,19.899,2.816,19.814,2.691z M16.246,4.249c-0.065,0.27-0.336,0.436-0.603,0.369
			c-3.559-0.853-10.316,2.98-10.384,3.02C5.017,7.776,4.713,7.69,4.577,7.452C4.439,7.213,4.523,6.908,4.762,6.771
			c0.291-0.168,7.173-4.079,11.115-3.124C16.146,3.711,16.31,3.98,16.246,4.249z"/>
		<g>
			<path d="M19.809,14l-1.862-3.724C17.862,10.107,17.69,10,17.5,10h-11c-0.189,0-0.362,0.107-0.447,0.276L4.19,14H19.809z"/>
			<path d="M18.5,19c-0.276,0-0.5-0.224-0.5-0.5v-1c0-0.276,0.224-0.5,0.5-0.5h4.207l-2-2H3.293l-2,2H5.5C5.776,17,6,17.224,6,17.5
				v1C6,18.776,5.776,19,5.5,19H1v2.5C1,21.776,1.224,22,1.5,22H2v1.5C2,23.776,2.224,24,2.5,24h3C5.776,24,6,23.776,6,23.5V22h2
				v-1.5C8,19.672,8.671,19,9.5,19h5c0.828,0,1.5,0.672,1.5,1.5V22h2v1.5c0,0.276,0.224,0.5,0.5,0.5h3c0.276,0,0.5-0.224,0.5-0.5V22
				h0.5c0.276,0,0.5-0.224,0.5-0.5V19H18.5z M12.5,17.5c0,0.276-0.224,0.5-0.5,0.5s-0.5-0.224-0.5-0.5v-1c0-0.276,0.224-0.5,0.5-0.5
				s0.5,0.224,0.5,0.5V17.5z"/>
		</g>
		<path d="M14.5,20h-5C9.224,20,9,20.224,9,20.5v2C9,22.776,9.224,23,9.5,23h5c0.276,0,0.5-0.224,0.5-0.5v-2
			C15,20.224,14.776,20,14.5,20z"/>
	</g>
</g>
<g id="invisible_shape">
	<rect fill="none" width="24" height="24"/>
</g>
</svg>
