<?xml version="1.0" encoding="utf-8"?>
<!-- Generator: Adobe Illustrator 19.2.0, SVG Export Plug-In . SVG Version: 6.00 Build 0)  -->
<svg version="1.1" xmlns="http://www.w3.org/2000/svg" xmlns:xlink="http://www.w3.org/1999/xlink" x="0px" y="0px" width="24px"
	 height="24px" viewBox="0 0 24 24" enable-background="new 0 0 24 24" xml:space="preserve">
<g id="Filled_Icons">
	<g>
		<path d="M17,2.5C17,2.224,16.776,2,16.5,2h-15C1.224,2,1,2.224,1,2.5V10h16V2.5z M15,7.5C15,7.776,14.776,8,14.5,8h-11
			C3.224,8,3,7.776,3,7.5v-3C3,4.224,3.224,4,3.5,4h11C14.776,4,15,4.224,15,4.5V7.5z"/>
		<path d="M7.277,14.916c-1.016,0.68-1.301,1.591-0.3,2.44c0.64-0.703,1.401-1.354,2.299-1.804c0.246-0.123,0.547-0.023,0.671,0.224
			c0.123,0.247,0.023,0.548-0.224,0.671c-0.817,0.408-1.516,1.024-2.101,1.688c0.749,1.494,1.917,1.304,2.975,0.188
			c0.842-0.888,1.382-3.38,0.967-5.048C9.933,14.25,8.527,14.082,7.277,14.916z"/>
		<path d="M22.832,4.874c0.207-0.185,0.225-0.5,0.041-0.706c-0.184-0.207-0.5-0.224-0.705-0.041C20.984,5.181,19,7.086,19,8v7.5
			c0,0.827-0.673,1.5-1.5,1.5H17v-6H1v12.5C1,23.776,1.224,24,1.5,24h15c0.276,0,0.5-0.224,0.5-0.5V18h0.5
			c1.378,0,2.5-1.121,2.5-2.5v-2.69l1.724-0.862C21.893,11.862,22,11.689,22,11.5v-2C22,9.224,21.776,9,21.5,9H20l-0.001-0.986
			C20.065,7.587,21.517,6.046,22.832,4.874z M11.323,19.013c-1.391,1.464-3.25,1.726-4.374-0.025
			c-0.971,1.36-1.473,2.666-1.481,2.688c-0.094,0.251-0.375,0.391-0.644,0.293c-0.259-0.098-0.389-0.385-0.293-0.645
			C4.57,21.22,5.166,19.67,6.34,18.123c-1.57-1.325-1.135-3.025,0.383-4.039c1.598-1.065,3.139-0.728,4.8-1.982
			c0.256-0.192,0.622-0.1,0.756,0.19C13.214,14.329,12.523,17.747,11.323,19.013z"/>
	</g>
</g>
<g id="invisible_shape">
	<rect fill="none" width="24" height="24"/>
</g>
</svg>
