<?xml version="1.0" encoding="utf-8"?>
<!-- Generator: Adobe Illustrator 19.2.0, SVG Export Plug-In . SVG Version: 6.00 Build 0)  -->
<svg version="1.1" xmlns="http://www.w3.org/2000/svg" xmlns:xlink="http://www.w3.org/1999/xlink" x="0px" y="0px" width="24px"
	 height="24px" viewBox="0 0 24 24" enable-background="new 0 0 24 24" xml:space="preserve">
<g id="Filled_Icons">
	<g>
		<path d="M12.202,16H15c0.668,0,1.198,0.232,1.588,0.594C20.013,15.496,22.5,12.285,22.5,8.5C22.5,3.813,18.687,0,14,0
			C9.313,0,5.5,3.813,5.5,8.5c0,2.098,0.768,4.018,2.032,5.502C9.789,14.014,11.462,15.303,12.202,16z M10.523,5.147
			c1.738-0.348,1.738,0.349,1.738,0.349c0.697,0.695,2.087,0,2.783,0c0,0,0.348-2.435-0.348-2.087
			C14,3.756,13.377,3.486,13.305,2.712c-0.102-1.087,3.086-1.899,3.086-1.899s1.149,0.219,1.969,0.875
			c0.546,0.438,1.609,1.547,1.609,1.547s-0.403,1.912-1.795,2.608c-1.391-0.348-2.782,0.694-2.434,0.694
			c0.348,0,0.696,1.393,0.696,1.393c0.348,0.348,1.043,0,1.043,0c0.869,0.869-1.392,2.434-1.392,2.782
			c0,0.349,0.87,0.523,0.348,1.044c-0.522,0.521-1.044,0.695-1.044,0.695c0,1.739-1.739,1.739-2.087,1.739
			c-0.348,0-1.044-1.392-1.044-1.739c0-0.348,0.35-0.695,0.35-1.043s-0.696-1.045-0.696-1.045c0-1.39-1.043-1.043-2.087-1.043
			c-1.043,0-1.043-1.391-1.043-1.391S8.783,5.495,10.523,5.147z"/>
		<path d="M3.5,14h-3C0.224,14,0,14.224,0,14.5v8c0,0.276,0.224,0.5,0.5,0.494h3C3.776,23,4,22.776,4,22.5v-8
			C4,14.224,3.776,14,3.5,14z"/>
		<path d="M23.854,18.146c-1.175-1.173-2.186-1.499-3.512-1.12l-3.007,0.998c0.026,0.156,0.041,0.316,0.041,0.477
			c0,0.641-0.208,1.242-0.585,1.695C16.352,20.721,15.732,21,15,20.994H9.5C9.224,21,9,20.776,9,20.5s0.224-0.5,0.5-0.506H15
			c0.432,0.006,0.776-0.145,1.022-0.439c0.225-0.27,0.353-0.652,0.353-1.055c0-0.558-0.29-1.5-1.375-1.5h-3
			c-0.132,0-0.26-0.053-0.353-0.146C11.089,16.296,9.569,15,7.5,15h-2C5.224,15,5,15.224,5,15.5V21c0,0.215,0.138,0.406,0.342,0.474
			c1.584,0.528,2.831,0.981,3.833,1.345c2.004,0.729,3.13,1.123,4.141,1.123c1.212,0,2.258-0.567,4.453-1.807
			c1.368-0.774,3.242-1.832,5.955-3.188c0.144-0.072,0.245-0.209,0.27-0.367C24.019,18.42,23.967,18.26,23.854,18.146z"/>
	</g>
</g>
<g id="invisible_shape">
	<rect fill="none" width="24" height="24"/>
</g>
</svg>
