<?xml version="1.0" encoding="utf-8"?>
<!-- Generator: Adobe Illustrator 19.2.0, SVG Export Plug-In . SVG Version: 6.00 Build 0)  -->
<svg version="1.1" xmlns="http://www.w3.org/2000/svg" xmlns:xlink="http://www.w3.org/1999/xlink" x="0px" y="0px" width="24px"
	 height="24px" viewBox="0 0 24 24" enable-background="new 0 0 24 24" xml:space="preserve">
<g id="Filled_Icons">
	<g>
		<path d="M17.5,0h-4C13.224,0,13,0.224,13,0.5v1C13,1.776,13.224,2,13.5,2h4C17.776,2,18,1.776,18,1.5v-1C18,0.224,17.776,0,17.5,0
			z"/>
		<g>
			<path d="M1.5,11H3v5h8.934c0.046-0.881,0.485-2.093,2.22-3.16c1.583-0.971,3.244-0.858,4.846-0.824V11h1.5
				c0.276,0,0.5-0.224,0.5-0.5S20.776,10,20.5,10h-19C1.224,10,1,10.224,1,10.5S1.224,11,1.5,11z"/>
			<path d="M1.5,4H3v5h16V4h1.5C20.776,4,21,3.776,21,3.5S20.776,3,20.5,3h-19C1.224,3,1,3.224,1,3.5S1.224,4,1.5,4z"/>
			<path d="M10.21,22.358c0.229-0.344,1.332-1.948,2.871-3.652c-0.526-0.538-0.86-1.109-1.027-1.706H1.5C1.224,17,1,17.224,1,17.5
				S1.224,18,1.5,18H3v5H1.5C1.224,23,1,23.224,1,23.5S1.224,24,1.5,24h8.693C9.882,23.513,9.867,22.869,10.21,22.358z"/>
			<path d="M20.5,23c-1.738,0-3.209,0.081-3.209,0.081c-0.769,0-1.906-0.261-2.676-1.57C13.87,22.393,13.212,23.27,12.721,24H20.5
				c0.276,0,0.5-0.224,0.5-0.5S20.776,23,20.5,23z"/>
		</g>
		<g>
			<path d="M22.968,12.929c-0.053-0.312-0.385-0.501-0.681-0.378c-1.369,0.556-2.615,0.482-3.717,0.456
				c-1.313-0.03-2.621-0.095-3.892,0.685c-1.847,1.136-2.377,2.749-0.911,4.282c1.638-1.69,3.647-3.319,5.626-3.769
				c0.806-0.185,1.612,0.323,1.795,1.132c0.183,0.807-0.323,1.611-1.132,1.794c-1.402,0.318-3.18,1.865-4.726,3.566
				c0.822,1.752,2.4,1.68,4.055,0.665C21.373,20.144,23.467,15.836,22.968,12.929z"/>
		</g>
		<g>
			<path d="M11.178,23.608c-0.23-0.154-0.291-0.465-0.138-0.694c0.187-0.278,4.617-6.836,8.575-7.733
				c0.267-0.06,0.537,0.107,0.598,0.377c0.061,0.269-0.108,0.537-0.378,0.599c-3.573,0.811-7.921,7.25-7.964,7.314
				C11.712,23.708,11.396,23.756,11.178,23.608z"/>
		</g>
	</g>
</g>
<g id="invisible_shape">
	<rect fill="none" width="24" height="24"/>
</g>
</svg>
