<?xml version="1.0" encoding="utf-8"?>
<!-- Generator: Adobe Illustrator 19.2.0, SVG Export Plug-In . SVG Version: 6.00 Build 0)  -->
<svg version="1.1" xmlns="http://www.w3.org/2000/svg" xmlns:xlink="http://www.w3.org/1999/xlink" x="0px" y="0px" width="24px"
	 height="24px" viewBox="0 0 24 24" enable-background="new 0 0 24 24" xml:space="preserve">
<g id="Filled_Icons">
	<g>
		<g>
			<path d="M13.409,17.222c-0.987-1.571-0.69-3.604,1.703-5.074c0.633-0.388,1.272-0.599,1.888-0.714V5.502
				c0-0.133-0.053-0.261-0.146-0.354l-5-5.001C11.76,0.053,11.633,0,11.5,0h-11C0.224,0,0,0.224,0,0.5v21C0,21.776,0.224,22,0.5,22
				h9.464C10.188,20.906,12.657,18.046,13.409,17.222z M11,0.793L16.207,6H11.5C11.224,6,11,5.776,11,5.5V0.793z"/>
		</g>
		<path d="M23.925,12.237c-0.054-0.314-0.384-0.5-0.681-0.379c-2.76,1.119-5.264-0.296-7.608,1.142
			c-1.849,1.135-2.377,2.751-0.911,4.283c-1.894,1.953-3.294,3.989-3.557,4.383c-0.462,0.688-0.277,1.619,0.411,2.08
			c0.686,0.46,1.618,0.28,2.081-0.411c0.644-0.961,1.583-2.18,2.628-3.329c0.823,1.753,2.4,1.68,4.056,0.665
			C22.33,19.452,24.424,15.144,23.925,12.237z M20.794,15.464c-3.573,0.812-7.921,7.25-7.964,7.314
			c-0.153,0.229-0.463,0.291-0.693,0.138c-0.23-0.154-0.291-0.465-0.138-0.694c0.187-0.278,4.616-6.834,8.574-7.733
			c0.266-0.064,0.537,0.107,0.598,0.377C21.231,15.135,21.063,15.402,20.794,15.464z"/>
	</g>
</g>
<g id="invisible_shape">
	<rect fill="none" width="24" height="24"/>
</g>
</svg>
