<?xml version="1.0" encoding="utf-8"?>
<!-- Generator: Adobe Illustrator 19.2.0, SVG Export Plug-In . SVG Version: 6.00 Build 0)  -->
<svg version="1.1" xmlns="http://www.w3.org/2000/svg" xmlns:xlink="http://www.w3.org/1999/xlink" x="0px" y="0px" width="24px"
	 height="24px" viewBox="0 0 24 24" enable-background="new 0 0 24 24" xml:space="preserve">
<g id="Filled_Icons">
	<g>
		<g>
			<path d="M22.739,4.273c-0.071-0.134-0.199-0.229-0.347-0.257c-0.15-0.032-0.302,0.011-0.418,0.109
				c-1.049,0.887-2.238,1.244-3.389,1.591c-1.316,0.396-2.558,0.769-3.485,1.862c-0.994,1.169-1.38,2.268-1.148,3.266
				c0.129,0.556,0.472,1.048,0.978,1.486c1.013-1.74,2.412-3.646,4.332-5.375c0.616-0.556,1.566-0.504,2.118,0.111
				c0.555,0.616,0.505,1.565-0.111,2.118c-1.911,1.72-3.228,3.653-4.123,5.332c0.496,0.487,1.063,0.739,1.7,0.74l0,0
				c1.273,0,2.397-1.009,3.114-1.854C23.468,11.625,24.116,6.878,22.739,4.273z"/>
		</g>
		<g>
			<path d="M14.002,18.931c-0.321,0-0.556-0.295-0.49-0.606c0.054-0.245,1.357-6.071,6.419-10.627
				c0.205-0.185,0.521-0.169,0.705,0.037c0.185,0.206,0.168,0.522-0.037,0.706c-4.824,4.342-6.097,10.038-6.109,10.095
				C14.439,18.771,14.231,18.931,14.002,18.931z"/>
		</g>
		<g>
			<path d="M13,12H8.541c0,1.447,0.106,2.785,0.286,4H13V12z"/>
			<path d="M9.217,6H13V0.97l-0.898,0.117C11.018,1.455,9.903,3.236,9.217,6z"/>
			<path d="M8.56,11H13V7H8.998C8.765,8.194,8.609,9.537,8.56,11z"/>
			<path d="M8.998,17c0.65,3.335,1.902,5.521,3.126,5.933L13,23.043V17H8.998z"/>
			<path d="M3.516,12H0c0,1.396,0.267,2.741,0.729,4h3.307C3.703,14.746,3.516,13.402,3.516,12z"/>
			<path d="M4.348,7H1.147c-0.588,1.242-0.971,2.589-1.094,4h3.498C3.64,9.587,3.918,8.24,4.348,7z"/>
			<path d="M7.568,11c0.048-1.418,0.189-2.766,0.42-4h-2.59c-0.459,1.224-0.752,2.576-0.847,4H7.568z"/>
			<path d="M4.737,6C6.11,2.859,8.521,0.596,11.39,0.106l0.372-0.088C7.524,0.107,3.75,2.513,1.679,6H4.737z"/>
			<path d="M11.57,23.933C8.32,23.49,5.627,20.756,4.338,17H1.147c1.916,4.041,6.029,6.933,10.694,6.998L11.57,23.933z"/>
			<path d="M7.541,12H4.516c0,1.411,0.197,2.758,0.55,4h2.763C7.648,14.746,7.541,13.407,7.541,12z"/>
			<path d="M5.829,6h2.367c0.436-1.848,1.068-3.383,1.843-4.437C8.281,2.36,6.811,3.947,5.829,6z"/>
			<path d="M10.058,22.466C9.139,21.228,8.42,19.304,7.989,17H5.388C6.34,19.563,8.006,21.559,10.058,22.466z"/>
		</g>
	</g>
</g>
<g id="invisible_shape">
	<rect fill="none" width="24" height="24"/>
</g>
</svg>
