<?xml version="1.0" encoding="utf-8"?>
<!-- Generator: Adobe Illustrator 19.2.0, SVG Export Plug-In . SVG Version: 6.00 Build 0)  -->
<svg version="1.1" xmlns="http://www.w3.org/2000/svg" xmlns:xlink="http://www.w3.org/1999/xlink" x="0px" y="0px" width="24px"
	 height="24px" viewBox="0 0 24 24" enable-background="new 0 0 24 24" xml:space="preserve">
<g id="Filled_Icons">
	<g>
		<g>
			<path d="M19.5,9.003h-1.392c-0.276,0-0.5-0.225-0.5-0.5c0-0.277,0.224-0.5,0.5-0.5H19.5c0.276,0,0.5,0.223,0.5,0.5
				C20,8.778,19.776,9.003,19.5,9.003z"/>
		</g>
		<g>
			<path d="M16.37,4.112c-0.128,0-0.256-0.049-0.354-0.146c-0.195-0.194-0.195-0.512,0-0.707l1.043-1.043
				c0.195-0.195,0.512-0.195,0.707,0c0.195,0.193,0.195,0.512,0,0.707l-1.043,1.043C16.626,4.063,16.498,4.112,16.37,4.112z"/>
		</g>
		<g>
			<path d="M11.5,2.394c-0.276,0-0.5-0.224-0.5-0.5V0.503c0-0.277,0.224-0.5,0.5-0.5s0.5,0.223,0.5,0.5v1.391
				C12,2.17,11.776,2.394,11.5,2.394z"/>
		</g>
		<g>
			<path d="M6.631,4.112c-0.128,0-0.256-0.049-0.354-0.146L5.233,2.923c-0.195-0.195-0.195-0.512,0-0.707
				c0.195-0.195,0.512-0.195,0.707,0l1.044,1.043c0.195,0.195,0.195,0.513,0,0.707C6.887,4.063,6.759,4.112,6.631,4.112z"/>
		</g>
		<g>
			<path d="M4.891,9.003H3.5c-0.276,0-0.5-0.225-0.5-0.5c0-0.277,0.224-0.5,0.5-0.5h1.391c0.277,0,0.5,0.223,0.5,0.5
				C5.391,8.778,5.168,9.003,4.891,9.003z"/>
		</g>
		<g>
			<path d="M11.555,11.358c1.524,0,3.002,0.123,4.411,0.338C16.621,10.782,17,9.677,17,8.503c0-3.033-2.468-5.5-5.5-5.5
				c-3.033,0-5.5,2.467-5.5,5.5c0,1.18,0.382,2.288,1.042,3.205C8.483,11.485,9.997,11.358,11.555,11.358z"/>
		</g>
		<g>
			<path d="M12.661,12.39c-0.22-0.01-0.439-0.016-0.661-0.018v11.612h4.266L12.661,12.39z"/>
			<path d="M6.733,23.983H11V12.374c-0.217,0.004-0.434,0.01-0.648,0.018L6.733,23.983z"/>
			<path d="M23,22.272v-6.789c0-0.17-0.086-0.329-0.23-0.422c-1.945-1.248-4.641-2.103-7.674-2.48L23,22.272z"/>
			<path d="M9.2,12.725L0.161,23.847c0.089,0.084,0.207,0.137,0.339,0.137h5.187L9.2,12.725z"/>
			<path d="M8.033,12.573c-3.072,0.377-5.813,1.233-7.8,2.486C0.088,15.152,0,15.311,0,15.483v6.977L8.033,12.573z"/>
			<path d="M13.745,12.508l3.568,11.476H22.5c0.177,0,0.324-0.097,0.413-0.234L13.745,12.508z"/>
		</g>
	</g>
</g>
<g id="invisible_shape">
	<rect fill="none" width="24" height="24"/>
</g>
</svg>
