<?xml version="1.0" encoding="utf-8"?>
<!-- Generator: Adobe Illustrator 19.2.0, SVG Export Plug-In . SVG Version: 6.00 Build 0)  -->
<svg version="1.1" xmlns="http://www.w3.org/2000/svg" xmlns:xlink="http://www.w3.org/1999/xlink" x="0px" y="0px" width="24px"
	 height="24px" viewBox="0 0 24 24" enable-background="new 0 0 24 24" xml:space="preserve">
<g id="Filled_Icons">
	<path d="M19.727,4.848c-3.093,2.142-5.888,3.976-7.366,4.936c1.081-2.272,4.598-6.231,7.919-8.345
		c0.407-0.261,0.242-0.887-0.232-0.921C14.465,0.125,4.807,6.87,1.907,13.206c-1.153,2.519-1.192,4.777-0.166,6.642
		c-0.447-1.819,0.118-3.543,1.304-4.729c1.043-1.042,2.839-1.968,4.466-1.154c0.188,0.094,0.296,0.294,0.273,0.503L7.491,17.11
		c2.344-0.138,3.195-3.152,3.204-3.186c0.109-0.403,0.653-0.511,0.898-0.148c2.024,3.01,0.663,6.653-1.645,8.554
		c-0.852,0.701-1.769,1.121-2.684,1.277c6.572,0.922,13.621-7.414,12.163-11.79c-0.116-0.348-0.56-0.461-0.828-0.195
		c-1.354,1.354-2.832,1.921-3.817,2.158c1.377-1.841,4.313-5.841,5.668-8.279C20.704,5.043,20.162,4.549,19.727,4.848z"/>
</g>
<g id="invisible_shape">
	<rect fill="none" width="24" height="24"/>
</g>
</svg>
