<?xml version="1.0" encoding="utf-8"?>
<!-- Generator: Adobe Illustrator 19.2.0, SVG Export Plug-In . SVG Version: 6.00 Build 0)  -->
<svg version="1.1" xmlns="http://www.w3.org/2000/svg" xmlns:xlink="http://www.w3.org/1999/xlink" x="0px" y="0px" width="24px"
	 height="24px" viewBox="0 0 24 24" enable-background="new 0 0 24 24" xml:space="preserve">
<g id="Filled_Icons">
	<g>
		<path d="M8.747,4.709C4.278,5.519,3.413,9.35,3.404,9.393C3.37,9.557,3.421,9.729,3.54,9.848l1.783,1.783
			C5.798,9.65,6.767,7.041,8.747,4.709z"/>
		<path d="M13.379,18.412l1.825,1.842c0.197,0.197,0.513,0.198,0.709,0.002c2.299-2.299,3.497-4.256,4.127-5.684
			C17.887,16.675,15.42,17.805,13.379,18.412z"/>
		<path d="M5.524,14.66l-5.036,2.517c-0.373,0.188-0.364,0.721,0.008,0.899l3.857,1.847l1.557,3.56
			c0.168,0.387,0.714,0.406,0.905,0.023l2.519-5.037L5.524,14.66z"/>
		<path d="M22.278,1.715c-1.077-1.074-7.735-1.456-12.02,2.83c-3.193,3.191-4.061,7.223-4.298,9.137l4.36,4.359
			c1.914-0.226,5.924-1.076,9.141-4.293C23.804,9.405,23.392,2.83,22.278,1.715z M18.854,6.156c0.195,0.195,0.195,0.512,0,0.707
			c-0.195,0.195-0.512,0.195-0.707,0L17.25,5.967l-0.896,0.896c-0.195,0.195-0.512,0.195-0.707,0c-0.195-0.195-0.195-0.512,0-0.707
			l0.896-0.896l-0.896-0.897c-0.195-0.195-0.195-0.512,0-0.707c0.195-0.195,0.512-0.195,0.707,0l0.896,0.897l0.896-0.897
			c0.195-0.195,0.512-0.195,0.707,0c0.195,0.195,0.195,0.512,0,0.707L17.957,5.26L18.854,6.156z"/>
	</g>
</g>
<g id="invisible_shape">
	<rect fill="none" width="24" height="24"/>
</g>
</svg>
