<?xml version="1.0" encoding="utf-8"?>
<!-- Generator: Adobe Illustrator 19.2.0, SVG Export Plug-In . SVG Version: 6.00 Build 0)  -->
<svg version="1.1" xmlns="http://www.w3.org/2000/svg" xmlns:xlink="http://www.w3.org/1999/xlink" x="0px" y="0px" width="24px"
	 height="24px" viewBox="0 0 24 24" enable-background="new 0 0 24 24" xml:space="preserve">
<g id="Filled_Icons">
	<g>
		<path d="M14.5,9.5c0-1.654-1.346-3-3-3s-3,1.346-3,3s1.346,3,3,3S14.5,11.154,14.5,9.5z M9.5,9.5c0-1.104,0.896-2,2-2s2,0.896,2,2
			s-0.896,2-2,2S9.5,10.604,9.5,9.5z"/>
		<path d="M14,20l-2,3.2v-6.987c0.534,0.826,1.459,1.376,2.517,1.376c1.657,0,3-1.343,3-3c0-1.14-0.581-2.081-1.517-2.589
			c0.435,0.244,1.148,0.196,1.683,0.196c1.657,0,3-1.344,3-3c0-1.657-1.343-3-3-3c-0.497,0-1.27,0.09-1.683,0.304
			c0.885-0.523,1.5-1.398,1.5-2.5c0-1.656-1.343-3-3-3s-3,1.344-3,3c0-1.656-1.343-3-3-3s-3,1.344-3,3c0,1.078,0.647,1.971,1.5,2.5
			C6.602,6.306,6.155,6.196,5.683,6.196c-1.657,0-3,1.343-3,3c0,1.656,1.343,3,3,3c0.539,0,0.88,0.053,1.317-0.196
			c-0.888,0.521-1.483,1.485-1.483,2.589c0,1.657,1.343,3,3,3c1.033,0,1.944-0.522,2.483-1.317V23.2L9,20c-0.457-0.607-1.183-1-2-1
			H3l2,4c0.457,0.607,1.183,1,2,1h9c0.817,0,1.543-0.393,2-1l2-4h-4C15.183,19,14.457,19.393,14,20z M7.5,9.5c0-2.206,1.794-4,4-4
			s4,1.794,4,4s-1.794,4-4,4S7.5,11.706,7.5,9.5z"/>
	</g>
</g>
<g id="invisible_shape">
	<rect fill="none" width="24" height="24"/>
</g>
</svg>
