<?xml version="1.0" encoding="utf-8"?>
<!-- Generator: Adobe Illustrator 19.2.0, SVG Export Plug-In . SVG Version: 6.00 Build 0)  -->
<svg version="1.1" xmlns="http://www.w3.org/2000/svg" xmlns:xlink="http://www.w3.org/1999/xlink" x="0px" y="0px" width="24px"
	 height="24px" viewBox="0 0 24 24" enable-background="new 0 0 24 24" xml:space="preserve">
<g id="Filled_Icons">
	<g>
		<path d="M18,8V1c-1.381,0-2.5,1.119-2.5,2.5H15C15,2.119,13.881,1,12.5,1S10,2.119,10,3.5H9.5C9.5,2.119,8.381,1,7,1v7
			c0,2.871,2.2,5.225,5.005,5.476c0,0.009-0.005,0.016-0.005,0.024v10c0,0.276,0.224,0.5,0.5,0.5s0.5-0.224,0.5-0.5v-10
			c0-0.009-0.005-0.016-0.005-0.024C15.8,13.225,18,10.871,18,8z"/>
		<path d="M19.002,17.501C18.584,17.187,18.063,17,17.5,17c-1.38,0-2.5,1.119-2.5,2.5s1.12,2.5,2.5,2.5c0.563,0,1.082-0.185,1.5-0.5
			l3-2L19.002,17.501z"/>
		<path d="M7.5,14.5c-0.563,0-1.084,0.186-1.502,0.501L3,17l3,2c0.418,0.315,0.938,0.5,1.5,0.5c1.38,0,2.5-1.119,2.5-2.5
			S8.88,14.5,7.5,14.5z"/>
	</g>
</g>
<g id="invisible_shape">
	<rect fill="none" width="24" height="24"/>
</g>
</svg>
