<?xml version="1.0" encoding="utf-8"?>
<!-- Generator: Adobe Illustrator 19.2.0, SVG Export Plug-In . SVG Version: 6.00 Build 0)  -->
<svg version="1.1" xmlns="http://www.w3.org/2000/svg" xmlns:xlink="http://www.w3.org/1999/xlink" x="0px" y="0px" width="24px"
	 height="24px" viewBox="0 0 24 24" enable-background="new 0 0 24 24" xml:space="preserve">
<g id="Filled_Icons">
	<path d="M23.414,8.3c-0.673-2.067-2.585-3.455-4.757-3.455c-0.589,0-1.12,0.1-1.659,0.283c0.07-2.796-2.191-5.119-4.998-5.119
		c-2.813,0-5.069,2.33-4.999,5.119C6.463,4.944,5.93,4.845,5.342,4.845c-2.172,0-4.083,1.389-4.754,3.455
		c-0.413,1.271-0.307,2.625,0.3,3.814c0.662,1.303,1.839,2.194,3.024,2.521c-1.734,2.288-1.19,5.465,1.034,7.081
		c0.859,0.626,1.875,0.954,2.935,0.954c1.689,0,3.242-0.865,4.119-2.16c0.863,1.275,2.405,2.16,4.119,2.16
		c1.06,0,2.074-0.328,2.935-0.954c1.081-0.786,1.791-1.942,2-3.264c0.21-1.329-0.109-2.687-0.966-3.817
		C22.669,13.904,24.304,11.044,23.414,8.3z M12,16.009c-2.206,0-4-1.795-4-4c0-2.206,1.794-4,4-4c2.205,0,4,1.794,4,4
		C16,14.214,14.205,16.009,12,16.009z"/>
</g>
<g id="invisible_shape">
	<rect fill="none" width="24" height="24"/>
</g>
</svg>
