<?xml version="1.0" encoding="utf-8"?>
<!-- Generator: Adobe Illustrator 19.2.0, SVG Export Plug-In . SVG Version: 6.00 Build 0)  -->
<svg version="1.1" xmlns="http://www.w3.org/2000/svg" xmlns:xlink="http://www.w3.org/1999/xlink" x="0px" y="0px" width="24px"
	 height="24px" viewBox="0 0 24 24" enable-background="new 0 0 24 24" xml:space="preserve">
<g id="Filled_Icons">
	<g>
		<path d="M8.081,8.958C7.269,8.226,6.75,7.177,6.75,6c0-2.206,1.794-4,4-4H15c0.276,0,0.5,0.224,0.5,0.5S15.276,3,15,3h-4.25
			c-1.654,0-3,1.346-3,3s1.346,3,3,3h5.75c2.206,0,4-1.794,4-4c0-1.965-1.426-3.594-3.296-3.929C17.996,1.803,18.5,2.84,18.5,4
			c0,2.206-1.794,4-4,4H11c-0.276,0-0.5-0.224-0.5-0.5c0-1.654,1.346-3,3-3C13.776,4.5,14,4.724,14,5s-0.224,0.5-0.5,0.5
			c-0.929,0-1.705,0.641-1.929,1.5H14.5c1.654,0,3-1.346,3-3s-1.346-3-3-3h-6c-2.206,0-4,1.794-4,4
			C4.5,7.063,6.074,8.744,8.081,8.958z"/>
		<path d="M17.249,9.925C17.174,9.969,17.093,10,17,10c-3.518,0-6.602,2.494-7.335,5.93c-0.005,0.023-0.018,0.043-0.027,0.066
			c0.747,0.267,1.541,0.432,2.367,0.481C12.004,16.485,12,16.492,12,16.5V21h-2c-0.276,0-0.5,0.224-0.5,0.5S9.724,22,10,22h2v1.5
			c0,0.276,0.224,0.5,0.5,0.5s0.5-0.224,0.5-0.5V20h2c0.276,0,0.5-0.224,0.5-0.5S15.276,19,15,19h-2v-2.5
			c0-0.009-0.005-0.016-0.005-0.024C17.458,16.217,21,12.527,21,8V7.127C20.298,8.593,18.914,9.672,17.249,9.925z"/>
		<path d="M13.031,10H8.5C6.512,10,4.805,8.825,4,7.141V8c0,3.334,1.924,6.212,4.719,7.604C9.279,13.149,10.9,11.134,13.031,10z"/>
	</g>
</g>
<g id="invisible_shape">
	<rect fill="none" width="24" height="24"/>
</g>
</svg>
