<?xml version="1.0" encoding="utf-8"?>
<!-- Generator: Adobe Illustrator 19.2.0, SVG Export Plug-In . SVG Version: 6.00 Build 0)  -->
<svg version="1.1" xmlns="http://www.w3.org/2000/svg" xmlns:xlink="http://www.w3.org/1999/xlink" x="0px" y="0px" width="24px"
	 height="24px" viewBox="0 0 24 24" enable-background="new 0 0 24 24" xml:space="preserve">
<g id="Filled_Icons">
	<g>
		<path d="M15.666,16.825c0.883,0.884,2.225-0.466,1.325-1.34l-2.582-3.199c0.942,0.921,2.254-0.6,1.249-1.408L12.5,7.39l-3.153,3.5
			c-1.015,0.816,0.335,2.323,1.263,1.397l-2.66,3.207c-0.891,0.892,0.478,2.22,1.348,1.315L7.278,19.39
			c-0.592,0.589-0.178,1.609,0.664,1.609L12,21v2.5c0,0.276,0.224,0.5,0.5,0.5s0.5-0.224,0.5-0.5V21h4.059
			c0.855,0,1.249-1.037,0.663-1.61L15.666,16.825z"/>
		<path d="M8.92,7.922L7.618,6.231c0.579,0.584,1.469-0.306,0.875-0.885L6.788,3.234c0.616,0.6,1.492-0.389,0.825-0.932L5.501,0
			L3.369,2.306C2.698,2.851,3.593,3.837,4.202,3.228L2.523,5.352C1.932,5.933,2.838,6.818,3.412,6.22L2.079,7.925
			c-0.39,0.387-0.119,1.062,0.44,1.062H5V10.5C5,10.776,5.224,11,5.5,11S6,10.776,6,10.5V8.986h2.483
			C9.038,8.986,9.313,8.311,8.92,7.922z"/>
		<path d="M22.92,7.922l-1.303-1.691c0.579,0.584,1.469-0.306,0.875-0.885l-1.705-2.111C21.4,3.83,22.284,2.85,21.613,2.303L19.5,0
			l-2.132,2.306c-0.671,0.545,0.225,1.531,0.833,0.923l-1.679,2.123c-0.586,0.576,0.31,1.473,0.889,0.868l-1.333,1.705
			c-0.39,0.387-0.119,1.062,0.44,1.062H19V10.5c0,0.276,0.224,0.5,0.5,0.5s0.5-0.224,0.5-0.5V8.986h2.483
			C23.038,8.986,23.313,8.311,22.92,7.922z"/>
	</g>
</g>
<g id="invisible_shape">
	<rect fill="none" width="24" height="24"/>
</g>
</svg>
