<?xml version="1.0" encoding="utf-8"?>
<!-- Generator: Adobe Illustrator 19.2.0, SVG Export Plug-In . SVG Version: 6.00 Build 0)  -->
<svg version="1.1" xmlns="http://www.w3.org/2000/svg" xmlns:xlink="http://www.w3.org/1999/xlink" x="0px" y="0px" width="24px"
	 height="24px" viewBox="0 0 24 24" enable-background="new 0 0 24 24" xml:space="preserve">
<g id="Filled_Icons">
	<g>
		<path d="M16.5,19.5c-0.276,0-0.5,0.224-0.5,0.5v3.5c0,0.276,0.224,0.5,0.5,0.5s0.5-0.224,0.5-0.5V20
			C17,19.724,16.776,19.5,16.5,19.5z"/>
		<path d="M0.632,5.896C0.73,5.993,0.858,6.042,0.986,6.042c0.128,0,0.256-0.049,0.354-0.146c0.195-0.195,0.195-0.512,0-0.707
			c-0.541-0.541-0.376-0.76,0.064-1.343c0.428-0.567,1.143-1.516-0.04-2.699c-0.195-0.195-0.512-0.195-0.707,0
			c-0.195,0.195-0.195,0.512,0,0.707c0.568,0.568,0.387,0.809-0.051,1.39C0.183,3.803-0.524,4.739,0.632,5.896z"/>
		<path d="M3.618,9.854C3.716,9.951,3.844,10,3.972,10C4.1,10,4.227,9.951,4.325,9.854c0.195-0.195,0.195-0.512,0-0.707
			C3.784,8.606,3.949,8.387,4.39,7.804c0.428-0.567,1.143-1.516-0.04-2.699c-0.195-0.195-0.512-0.195-0.707,0
			c-0.195,0.195-0.195,0.512,0,0.707C4.211,6.38,4.029,6.62,3.591,7.201C3.169,7.761,2.462,8.697,3.618,9.854z"/>
		<path d="M22.618,4.896c0.098,0.098,0.226,0.146,0.354,0.146c0.128,0,0.256-0.049,0.353-0.146c0.195-0.195,0.195-0.512,0-0.707
			c-0.541-0.541-0.376-0.76,0.064-1.343c0.428-0.567,1.143-1.516-0.04-2.699c-0.195-0.195-0.512-0.195-0.707,0
			c-0.195,0.195-0.195,0.512,0,0.707c0.568,0.568,0.387,0.809-0.051,1.39C22.169,2.803,21.462,3.739,22.618,4.896z"/>
		<path d="M11.5,19.5c-0.276,0-0.5,0.224-0.5,0.5v3.5c0,0.276,0.224,0.5,0.5,0.5s0.5-0.224,0.5-0.5V20
			C12,19.724,11.776,19.5,11.5,19.5z"/>
		<path d="M23.9,18.2L20,13h2c0.185,0,0.354-0.102,0.441-0.264c0.087-0.163,0.077-0.36-0.025-0.514L18.934,7H20
			c0.185,0,0.354-0.102,0.441-0.264c0.087-0.163,0.077-0.36-0.025-0.514l-4-6c-0.186-0.277-0.647-0.277-0.832,0l-1.233,1.85
			l3.434,5.15c0.102,0.153,0.112,0.351,0.025,0.514C17.723,7.898,17.553,8,17.369,8h-1.066l3.482,5.223
			c0.102,0.153,0.112,0.351,0.025,0.514C19.723,13.898,19.553,14,19.369,14H17.5l3.75,5h2.25c0.19,0,0.362-0.107,0.447-0.276
			C24.032,18.555,24.014,18.352,23.9,18.2z"/>
		<path d="M2.735,14.025c-0.177-0.055-0.362,0.026-0.496,0.157c-0.134,0.131-0.171,0.365-0.116,0.544
			c0.286,0.929,0.733,2.385,0.343,3.661c-0.182-0.246-0.377-0.516-0.522-0.717c-0.094-0.131-0.245-0.209-0.406-0.209
			c0,0,0,0-0.001,0c-0.161,0-0.313,0.078-0.406,0.21C1.015,17.835,0,19.293,0,20.385C0,22.378,1.622,24,3.615,24
			c1.994,0,3.615-1.622,3.615-3.615C7.231,17.616,5.298,14.882,2.735,14.025z"/>
		<path d="M15.5,13h2c0.185,0,0.354-0.102,0.441-0.264c0.087-0.163,0.077-0.36-0.025-0.514L14.434,7H15.5
			c0.185,0,0.354-0.102,0.441-0.264c0.087-0.163,0.077-0.36-0.025-0.514l-4-6c-0.186-0.277-0.647-0.277-0.832,0l-4,6
			C6.982,6.376,6.972,6.573,7.059,6.736C7.146,6.898,7.315,7,7.5,7h1.066l-3.482,5.223c-0.102,0.153-0.112,0.351-0.025,0.514
			C5.146,12.898,5.315,13,5.5,13h2l-1.501,2.002c1.046,1.102,1.785,2.512,2.08,3.998H19c0.19,0,0.362-0.107,0.447-0.276
			c0.084-0.169,0.066-0.372-0.047-0.523L15.5,13z"/>
	</g>
</g>
<g id="invisible_shape">
	<rect fill="none" width="24" height="24"/>
</g>
</svg>
