<?xml version="1.0" encoding="utf-8"?>
<!-- Generator: Adobe Illustrator 19.2.0, SVG Export Plug-In . SVG Version: 6.00 Build 0)  -->
<svg version="1.1" xmlns="http://www.w3.org/2000/svg" xmlns:xlink="http://www.w3.org/1999/xlink" x="0px" y="0px" width="24px"
	 height="24px" viewBox="0 0 24 24" enable-background="new 0 0 24 24" xml:space="preserve">
<g id="Filled_Icons">
	<g>
		<path d="M17,9.586V3.529c0-0.18-0.095-0.344-0.25-0.434L11.5,0.066c-0.154-0.089-0.346-0.089-0.5,0L6.25,3.096
			C6.095,3.185,6,3.35,6,3.529v6.057c0,0.178,0.095,0.343,0.25,0.432L11,13.047c0.077,0.045,0.164,0.066,0.25,0.066
			c0.086,0,0.173-0.022,0.25-0.066l5.25-3.029C16.905,9.929,17,9.764,17,9.586z"/>
		<path d="M5.5,10.945c-0.154-0.088-0.346-0.088-0.5,0l-4.75,3.03C0.095,14.064,0,14.231,0,14.409v6.057
			c0,0.178,0.095,0.343,0.25,0.433L5,23.927c0.077,0.044,0.164,0.067,0.25,0.067c0.086,0,0.173-0.023,0.25-0.067l5.25-3.028
			c0.155-0.09,0.25-0.255,0.25-0.433v-6.057c0-0.179-0.095-0.345-0.25-0.434L5.5,10.945z"/>
		<path d="M22.75,13.976l-5.25-3.03c-0.154-0.088-0.346-0.088-0.5,0l-4.75,3.03C12.095,14.064,12,14.231,12,14.409v6.057
			c0,0.178,0.095,0.343,0.25,0.433L17,23.927c0.077,0.044,0.164,0.067,0.25,0.067c0.086,0,0.173-0.023,0.25-0.067l5.25-3.028
			c0.155-0.09,0.25-0.255,0.25-0.433v-6.057C23,14.231,22.905,14.064,22.75,13.976z"/>
	</g>
</g>
<g id="invisible_shape">
	<rect fill="none" width="24" height="24"/>
</g>
</svg>
