<?xml version="1.0" encoding="utf-8"?>
<!-- Generator: Adobe Illustrator 19.2.0, SVG Export Plug-In . SVG Version: 6.00 Build 0)  -->
<svg version="1.1" xmlns="http://www.w3.org/2000/svg" xmlns:xlink="http://www.w3.org/1999/xlink" x="0px" y="0px" width="24px"
	 height="24px" viewBox="0 0 24 24" enable-background="new 0 0 24 24" xml:space="preserve">
<g id="Filled_Icons">
	<g>
		<path d="M9.5,11h-4C5.224,11,5,11.224,5,11.5v8C5,20.327,5.673,21,6.5,21H7v3h1v-3h0.5c0.827,0,1.5-0.673,1.5-1.5v-8
			C10,11.224,9.776,11,9.5,11z"/>
		<g>
			<g>
				<path d="M22.484,7H20.5C20.224,7,20,6.776,20,6.5S20.224,6,20.5,6h1.984c0.276,0,0.5,0.224,0.5,0.5S22.761,7,22.484,7z"/>
			</g>
		</g>
		<g>
			<g>
				<path d="M20.619,4.472c-0.178,0-0.35-0.095-0.44-0.263c-0.131-0.242-0.04-0.546,0.203-0.677l1.746-0.942
					c0.242-0.131,0.546-0.039,0.677,0.203c0.132,0.243,0.041,0.546-0.202,0.677l-1.746,0.942
					C20.781,4.453,20.699,4.472,20.619,4.472z"/>
			</g>
		</g>
		<g>
			<g>
				<path d="M22.364,10.472c-0.08,0-0.161-0.019-0.236-0.06L20.382,9.47c-0.243-0.131-0.334-0.434-0.203-0.677
					c0.131-0.242,0.436-0.335,0.678-0.203l1.746,0.942c0.243,0.131,0.334,0.435,0.202,0.677
					C22.715,10.377,22.542,10.472,22.364,10.472z"/>
			</g>
		</g>
		<g>
			<path d="M15,1h-0.5C12.019,1,10,3.02,10,5.5v2c0,2.482,2.019,4.5,4.5,4.5H15V1z"/>
			<path d="M17.5,1H16v11h1.5c0.827,0,1.5-0.673,1.5-1.5v-8C19,1.673,18.327,1,17.5,1z"/>
		</g>
		<g>
			<path d="M4,3.924L3.43,4.005C3.426,4.006,3.424,4.008,3.42,4.008C1.528,4.053,0,5.598,0,7.5v10C0,17.776,0.224,18,0.5,18
				C2.43,18,4,16.43,4,14.5V3.924z"/>
			<path d="M9.54,3.14L5,3.783V10h4.607C9.222,9.25,9,8.4,9,7.5v-2C9,4.654,9.197,3.856,9.54,3.14z"/>
		</g>
	</g>
</g>
<g id="invisible_shape">
	<rect fill="none" width="24" height="24"/>
</g>
</svg>
