<?xml version="1.0" encoding="utf-8"?>
<!-- Generator: Adobe Illustrator 19.2.0, SVG Export Plug-In . SVG Version: 6.00 Build 0)  -->
<svg version="1.1" xmlns="http://www.w3.org/2000/svg" xmlns:xlink="http://www.w3.org/1999/xlink" x="0px" y="0px" width="24px"
	 height="24px" viewBox="0 0 24 24" enable-background="new 0 0 24 24" xml:space="preserve">
<g id="Filled_Icons">
	<path d="M20.504,3.095c-1.322-1.322-3.081-2.051-4.95-2.051c-1.87,0-3.627,0.729-4.949,2.051L7.028,6.669
		c-0.758,0.76-0.758,1.992,0.001,2.75l0.906,0.906c-0.335,0.67-1.215,2.311-2.266,3.361c-0.623,0.623-1.256,0.977-1.927,1.352
		c-0.77,0.433-1.644,0.922-2.597,1.875c-0.195,0.195-0.195,0.512,0,0.707c0.098,0.098,0.226,0.146,0.354,0.146
		s0.256-0.049,0.354-0.146c0.856-0.857,1.63-1.289,2.378-1.709c0.7-0.391,1.424-0.797,2.146-1.517
		c1.023-1.024,1.867-2.494,2.301-3.325l1.379,1.378c-0.335,0.67-1.214,2.309-2.266,3.361c-0.623,0.623-1.257,0.979-1.927,1.354
		c-0.77,0.432-1.643,0.92-2.596,1.873c-0.195,0.195-0.195,0.512,0,0.707c0.098,0.098,0.226,0.146,0.353,0.146
		c0.128,0,0.256-0.049,0.354-0.146c0.856-0.855,1.629-1.288,2.378-1.707c0.7-0.393,1.424-0.798,2.146-1.52
		c1.024-1.023,1.867-2.493,2.302-3.326l1.379,1.381c-0.336,0.667-1.217,2.311-2.267,3.359c-0.623,0.623-1.257,0.979-1.927,1.354
		c-0.77,0.432-1.643,0.92-2.596,1.872c-0.195,0.196-0.195,0.513,0,0.708c0.098,0.098,0.226,0.146,0.353,0.146
		s0.256-0.049,0.353-0.146c0.856-0.856,1.629-1.289,2.378-1.708c0.7-0.392,1.424-0.797,2.145-1.519
		c1.025-1.023,1.867-2.494,2.302-3.324l1.258,1.258c0.758,0.758,1.989,0.76,2.751,0l3.574-3.574c1.321-1.322,2.05-3.08,2.05-4.951
		C22.554,6.175,21.825,4.417,20.504,3.095z M19.09,5.216c-0.195,0.195-0.512,0.195-0.707,0c-1.563-1.563-4.094-1.564-5.657,0
		c-0.195,0.195-0.512,0.195-0.707,0c-0.196-0.194-0.196-0.512,0-0.707c1.946-1.949,5.113-1.96,7.071,0
		C19.285,4.704,19.285,5.021,19.09,5.216z"/>
</g>
<g id="invisible_shape">
	<rect fill="none" width="24" height="24"/>
</g>
</svg>
