<?xml version="1.0" encoding="utf-8"?>
<!-- Generator: Adobe Illustrator 19.2.0, SVG Export Plug-In . SVG Version: 6.00 Build 0)  -->
<svg version="1.1" xmlns="http://www.w3.org/2000/svg" xmlns:xlink="http://www.w3.org/1999/xlink" x="0px" y="0px" width="24px"
	 height="24px" viewBox="0 0 24 24" enable-background="new 0 0 24 24" xml:space="preserve">
<g id="Filled_Icons">
	<path d="M22.408,1.652C22.301,1.544,22.154,1.493,22,1.509C21.313,1.584,5.115,3.448,1.448,11.236
		c-1.186,2.519-0.919,5.363,0.788,8.467l-0.741,0.741c-0.283,0.283-0.439,0.66-0.439,1.061s0.156,0.777,0.439,1.062
		c0.283,0.283,0.66,0.438,1.061,0.438s0.777-0.155,1.06-0.438L4.36,21.82c1.828,1.003,3.575,1.519,5.206,1.519
		c4.4,0,8.045-3.717,10.539-10.75c1.846-5.202,2.44-10.477,2.446-10.527C22.568,1.909,22.516,1.761,22.408,1.652z M2.908,21.86
		c-0.002,0-0.004,0-0.006,0.002c-0.19,0.186-0.506,0.186-0.695,0C2.205,21.86,2.202,21.86,2.201,21.86
		c-0.194-0.194-0.197-0.512,0-0.708L6,17.296v-0.002v-4.791c0-0.277,0.224-0.5,0.5-0.5c0.275,0,0.5,0.223,0.5,0.5v3.791l0,0l3-2.996
		l0,0v-3.293c0-0.275,0.224-0.5,0.5-0.5c0.275,0,0.5,0.225,0.5,0.5v2.293v0.001l3-3.001V8.005c0-0.275,0.224-0.5,0.5-0.5
		c0.275,0,0.5,0.225,0.5,0.5v0.998h1.055c0.275,0,0.5,0.223,0.5,0.5c0,0.275-0.225,0.5-0.5,0.5h-1.294l-3,3l0,0h2.294
		c0.275,0,0.5,0.223,0.5,0.5c0,0.275-0.225,0.5-0.5,0.5h-3.294l0,0l-2.761,3l0,0h3.794c0.275,0,0.5,0.223,0.5,0.5
		c0,0.275-0.225,0.5-0.5,0.5H7.001H7L2.908,21.86z"/>
</g>
<g id="invisible_shape">
	<rect fill="none" width="24" height="24"/>
</g>
</svg>
