<?xml version="1.0" encoding="utf-8"?>
<!-- Generator: Adobe Illustrator 19.2.0, SVG Export Plug-In . SVG Version: 6.00 Build 0)  -->
<svg version="1.1" xmlns="http://www.w3.org/2000/svg" xmlns:xlink="http://www.w3.org/1999/xlink" x="0px" y="0px" width="24px"
	 height="24px" viewBox="0 0 24 24" enable-background="new 0 0 24 24" xml:space="preserve">
<g id="Filled_Icons">
	<g>
		<path d="M3,8h11.5c0.368,0,0.607-0.383,0.453-0.711L13.41,3.984c-0.359-0.983-1.615-1.318-2.415-0.595l-1.33-2.142
			C8.71-0.398,6.314-0.444,5.314,1.29L2.546,7.291C2.394,7.621,2.637,8,3,8z"/>
		<path d="M10.086,10.745c0.275-0.027,0.475-0.272,0.447-0.548C10.505,9.92,10.5,9.754,10.5,9.743
			c-0.006-0.276-0.254-0.507-0.509-0.489C9.715,9.259,9.496,9.486,9.5,9.763c0,0,0.003,0.197,0.038,0.536
			C9.567,10.579,9.821,10.776,10.086,10.745z"/>
		<path d="M12.083,14.621c-0.157-0.227-0.47-0.286-0.695-0.127c-0.227,0.157-0.284,0.469-0.127,0.695
			c0.205,0.296,0.427,0.576,0.662,0.833c0.186,0.205,0.503,0.218,0.706,0.032c0.204-0.186,0.219-0.502,0.032-0.706
			C12.457,15.125,12.262,14.88,12.083,14.621z"/>
		<path d="M11.205,12.961c-0.122-0.309-0.223-0.61-0.307-0.899c-0.077-0.266-0.353-0.421-0.619-0.341
			c-0.266,0.077-0.418,0.354-0.341,0.62c0.092,0.316,0.203,0.649,0.337,0.989c0.103,0.261,0.399,0.381,0.649,0.28
			C11.181,13.509,11.307,13.218,11.205,12.961z"/>
		<path d="M20.698,18.531c-0.296-0.14-0.62-0.265-0.99-0.384c-0.266-0.08-0.544,0.061-0.628,0.324
			c-0.084,0.263,0.061,0.544,0.324,0.629c0.302,0.097,0.594,0.206,0.869,0.335c0.255,0.119,0.55,0.006,0.666-0.239
			C21.055,18.946,20.948,18.648,20.698,18.531z"/>
		<path d="M17.792,17.717c-0.309-0.11-0.643-0.203-1.023-0.286c-0.272-0.054-0.536,0.113-0.594,0.384
			c-0.059,0.269,0.113,0.536,0.383,0.595c0.31,0.067,0.611,0.147,0.897,0.249c0.273,0.097,0.55-0.055,0.639-0.303
			C18.188,18.095,18.053,17.809,17.792,17.717z"/>
		<path d="M14.913,16.905c-0.308-0.12-0.581-0.25-0.834-0.396c-0.241-0.138-0.546-0.056-0.683,0.184
			c-0.138,0.239-0.055,0.545,0.185,0.683c0.296,0.17,0.613,0.32,0.967,0.46c0.253,0.099,0.546-0.022,0.648-0.283
			C15.296,17.297,15.17,17.007,14.913,16.905z"/>
		<path d="M22.76,21.491c0.253-0.11,0.369-0.405,0.258-0.658c-0.154-0.352-0.347-0.676-0.574-0.963
			c-0.171-0.215-0.484-0.254-0.702-0.081c-0.217,0.171-0.253,0.485-0.082,0.702c0.173,0.219,0.322,0.469,0.441,0.742
			C22.209,21.479,22.499,21.604,22.76,21.491z"/>
		<path d="M23.485,22.973c-0.015-0.276-0.255-0.519-0.526-0.472c-0.276,0.015-0.487,0.251-0.472,0.526
			c0.008,0.151,0.013,0.31,0.013,0.473c0,0.276,0.224,0.5,0.5,0.5s0.5-0.224,0.5-0.5C23.5,23.317,23.495,23.142,23.485,22.973z"/>
		<path d="M19.5,16.793c0.276,0,0.5-0.224,0.5-0.5V14h2.482c0.555,0,0.83-0.675,0.438-1.064l-1.303-1.691
			c0.581,0.586,1.468-0.307,0.875-0.885l-1.705-2.111c0.615,0.6,1.497-0.386,0.825-0.932L19.5,5.014l-2.132,2.306
			c-0.664,0.539,0.218,1.538,0.833,0.923l-1.679,2.123c-0.587,0.583,0.312,1.471,0.889,0.868l-1.333,1.704
			C15.685,13.331,15.966,14,16.518,14H19v2.293C19,16.569,19.224,16.793,19.5,16.793z"/>
		<path d="M6.617,18.244c0.581,0.586,1.468-0.307,0.875-0.885l-1.705-2.111c0.615,0.6,1.497-0.386,0.825-0.932L4.5,12.014
			l-2.132,2.306c-0.664,0.539,0.218,1.538,0.833,0.923l-1.679,2.123c-0.588,0.584,0.31,1.471,0.889,0.868l-1.333,1.704
			C0.685,20.331,0.966,21,1.518,21H4v2.293c0,0.276,0.224,0.5,0.5,0.5s0.5-0.224,0.5-0.5V21h2.482c0.555,0,0.83-0.675,0.438-1.065
			L6.617,18.244z"/>
	</g>
</g>
<g id="invisible_shape">
	<rect fill="none" width="24" height="24"/>
</g>
</svg>
