<?xml version="1.0" encoding="utf-8"?>
<!-- Generator: Adobe Illustrator 19.2.0, SVG Export Plug-In . SVG Version: 6.00 Build 0)  -->
<svg version="1.1" xmlns="http://www.w3.org/2000/svg" xmlns:xlink="http://www.w3.org/1999/xlink" x="0px" y="0px" width="24px"
	 height="24px" viewBox="0 0 24 24" enable-background="new 0 0 24 24" xml:space="preserve">
<g id="Filled_Icons">
	<g>
		<path d="M13.545,22.981C9.568,21.056,7,16.75,7,12.009c0-4.739,2.568-9.045,6.545-10.971c0.2-0.096,0.311-0.313,0.275-0.533
			c-0.037-0.218-0.214-0.387-0.435-0.412C6.284-0.749,0,4.839,0,12.009c0,7.166,6.268,12.748,13.384,11.92
			c0.221-0.026,0.398-0.193,0.436-0.413C13.857,23.296,13.745,23.079,13.545,22.981z"/>
		<path d="M22.51,18.009c-2.402-0.049-3.517-1.16-3.51-3.498l0,0l0,0c0.001-0.276-0.223-0.5-0.498-0.502c-0.001,0-0.002,0-0.002,0
			c-0.275,0-0.499,0.223-0.5,0.498c-0.01,2.356-1.124,3.471-3.507,3.502c-0.275,0.004-0.492,0.229-0.49,0.504
			c0.001,0.274,0.228,0.496,0.502,0.496c2.396,0,3.473,1.08,3.495,3.504c0.002,0.272,0.219,0.49,0.489,0.496
			c0.004,0,0.007,0,0.011,0c0.266,0,0.486-0.208,0.499-0.475c0.12-2.406,1.224-3.525,3.499-3.525h0.001
			c0.274,0,0.498-0.221,0.501-0.493C23.003,18.241,22.785,18.015,22.51,18.009z"/>
		<path d="M15.998,11.009L15.998,11.009c0.275,0,0.499-0.221,0.502-0.493c0.003-0.274-0.215-0.501-0.489-0.507
			C14.615,9.979,13.995,9.362,14,8.011c0.001-0.276-0.223-0.5-0.498-0.502c-0.001,0-0.002,0-0.002,0c-0.275,0-0.499,0.223-0.5,0.498
			v0.001c-0.005,1.364-0.624,1.981-2.007,2.001c-0.275,0.004-0.493,0.229-0.491,0.504c0.002,0.274,0.227,0.496,0.502,0.496
			c1.387,0,1.983,0.6,1.996,2.004c0.002,0.271,0.219,0.49,0.489,0.496c0.004,0,0.007,0,0.011,0c0.266,0,0.485-0.208,0.499-0.475
			C14.069,11.634,14.681,11.009,15.998,11.009z"/>
		<path d="M23.51,4.009C21.769,3.974,20.995,3.203,21,1.511l0,0l0,0c0.001-0.276-0.223-0.5-0.498-0.502c-0.001,0-0.002,0-0.002,0
			c-0.275,0-0.499,0.223-0.5,0.498c-0.006,1.707-0.78,2.479-2.507,2.502c-0.275,0.004-0.492,0.228-0.49,0.504
			c0.001,0.274,0.228,0.496,0.503,0.496c1.71,0,2.48,0.772,2.495,2.504c0.002,0.272,0.219,0.49,0.489,0.496c0.004,0,0.007,0,0.011,0
			c0.266,0,0.486-0.208,0.499-0.475c0.087-1.746,0.853-2.525,2.499-2.525c0.001,0,0.001,0,0.001,0c0.274,0,0.498-0.221,0.501-0.494
			C24.003,4.241,23.785,4.015,23.51,4.009z"/>
	</g>
</g>
<g id="invisible_shape">
	<rect fill="none" width="24" height="24"/>
</g>
</svg>
