<?xml version="1.0" encoding="utf-8"?>
<!-- Generator: Adobe Illustrator 19.2.0, SVG Export Plug-In . SVG Version: 6.00 Build 0)  -->
<svg version="1.1" xmlns="http://www.w3.org/2000/svg" xmlns:xlink="http://www.w3.org/1999/xlink" x="0px" y="0px" width="24px"
	 height="24px" viewBox="0 0 24 24" enable-background="new 0 0 24 24" xml:space="preserve">
<g id="Filled_Icons">
	<path d="M17.266,15.943c0.888,0,1.861-0.49,2.672-1.345c1.345-1.417,2.11-5.36,1.079-7.606c-0.063-0.139-0.185-0.24-0.332-0.276
		c-0.145-0.037-0.302-0.006-0.424,0.085c-1.014,0.766-1.99,1.018-2.934,1.262c-0.84,0.217-1.707,0.441-2.559,1.01
		c-0.973,0.648-1.533,1.539-1.535,2.441c-0.001,0.375,0.098,0.863,0.459,1.379c-0.225,0.287-0.428,0.572-0.62,0.854
		c-0.394-0.934-0.911-2.002-1.57-3.135c0.666-0.525,1.085-1.131,1.242-1.811c0.259-1.117-0.178-2.353-1.298-3.672
		C10.4,3.895,8.989,3.471,7.495,3.022C6.172,2.624,4.804,2.213,3.593,1.188C3.477,1.09,3.323,1.049,3.175,1.08
		C3.027,1.107,2.899,1.201,2.828,1.336C1.264,4.295,1.999,9.68,3.71,11.697c1.146,1.35,2.392,2.095,3.507,2.095
		c0.78,0,1.468-0.337,2.062-0.995c0.955,1.768,1.504,3.312,1.781,4.203H8.5c-0.341,0-0.582,0.336-0.474,0.658l2,6
		C10.094,23.862,10.285,24,10.5,24h5c0.215,0,0.406-0.138,0.474-0.342l2-6C18.083,17.336,17.841,17,17.5,17h-2.865
		c0.244-0.48,0.577-1.083,1.004-1.7C16.196,15.8,16.785,15.943,17.266,15.943z M13.521,17h-1.414
		c-0.502-1.732-2.3-6.891-6.847-10.983C5.055,5.832,5.039,5.516,5.223,5.311C5.408,5.104,5.725,5.09,5.929,5.273
		c4.291,3.861,6.211,8.518,6.94,10.772c0.785-1.541,2.374-4.068,4.813-5.288c0.247-0.124,0.548-0.024,0.671,0.224
		c0.123,0.248,0.023,0.548-0.224,0.67C15.682,12.874,14.13,15.704,13.521,17z"/>
</g>
<g id="invisible_shape">
	<rect fill="none" width="24" height="24"/>
</g>
</svg>
