<?xml version="1.0" encoding="utf-8"?>
<!-- Generator: Adobe Illustrator 19.2.0, SVG Export Plug-In . SVG Version: 6.00 Build 0)  -->
<svg version="1.1" xmlns="http://www.w3.org/2000/svg" xmlns:xlink="http://www.w3.org/1999/xlink" x="0px" y="0px" width="24px"
	 height="24px" viewBox="0 0 24 24" enable-background="new 0 0 24 24" xml:space="preserve">
<g id="Filled_Icons">
	<g>
		<path d="M4.7,8.4C4.479,8.234,4.434,7.922,4.6,7.7C4.765,7.481,5.079,7.434,5.3,7.6l4.122,3.085l-0.58-1.74
			C7.956,6.286,5.477,4.5,2.675,4.5H1c-0.341,0-0.582,0.336-0.474,0.658l0.632,1.898C2.044,9.714,4.523,11.5,7.325,11.5h1.517
			L4.7,8.4z"/>
		<path d="M19.3,8.4c0.221-0.166,0.266-0.479,0.101-0.7c-0.165-0.22-0.479-0.267-0.7-0.101l-4.122,3.085l0.58-1.74
			C16.044,6.286,18.522,4.5,21.325,4.5H23c0.341,0,0.583,0.336,0.474,0.658l-0.632,1.898c-0.886,2.658-3.364,4.444-6.167,4.444
			h-1.517L19.3,8.4z"/>
		<g>
			<path d="M13.894,17.234L13.036,5.462C12.996,4.923,12.54,4.5,12,4.5s-0.996,0.423-1.036,0.963l-0.859,11.771
				C11.313,16.922,12.685,16.921,13.894,17.234z"/>
			<path d="M19,19.5c-0.547,0-1.048,0.102-1.508,0.275c0.75,1.092,0.991,2.094,0.996,2.116c0.06,0.269-0.11,0.535-0.379,0.596
				c-0.266,0.055-0.536-0.108-0.597-0.378C17.056,20.119,15.013,18,12,18c-3.302,0-5.152,2.459-5.512,4.108
				c-0.059,0.265-0.318,0.439-0.597,0.38c-0.27-0.061-0.44-0.327-0.38-0.597c0.005-0.022,0.246-1.024,0.996-2.116
				C6.048,19.602,5.547,19.5,5,19.5c-2.206,0-4,1.794-4,4C1,23.776,1.224,24,1.5,24h21c0.276,0,0.5-0.224,0.5-0.5
				C23,21.294,21.206,19.5,19,19.5z"/>
		</g>
	</g>
</g>
<g id="invisible_shape">
	<rect fill="none" width="24" height="24"/>
</g>
</svg>
