<?xml version="1.0" encoding="utf-8"?>
<!-- Generator: Adobe Illustrator 19.2.0, SVG Export Plug-In . SVG Version: 6.00 Build 0)  -->
<svg version="1.1" xmlns="http://www.w3.org/2000/svg" xmlns:xlink="http://www.w3.org/1999/xlink" x="0px" y="0px" width="24px"
	 height="24px" viewBox="0 0 24 24" enable-background="new 0 0 24 24" xml:space="preserve">
<g id="Filled_Icons">
	<path d="M23,3h-7V0.5C16,0.223,15.776,0,15.5,0h-8C7.224,0,7,0.223,7,0.5V3H1C0.724,3,0.5,3.223,0.5,3.5C0.5,3.775,0.724,4,1,4h2
		v19.5C3,23.775,3.224,24,3.5,24h16c0.276,0,0.5-0.225,0.5-0.5V4h3c0.276,0,0.5-0.225,0.5-0.5C23.5,3.223,23.276,3,23,3z M8,1h7v2H8
		V1z M4.942,13.5c0.001-2.479,1.393-4.717,3.635-5.84c0.25-0.125,0.549-0.023,0.672,0.223l1.618,3.238
		c0.123,0.246,0.023,0.547-0.223,0.67c-0.658,0.33-1.067,0.986-1.068,1.711c0,0.275-0.224,0.5-0.5,0.5L5.442,14
		C5.167,14,4.942,13.776,4.942,13.5z M11.499,12.516c0.552,0,1,0.448,1,1c0,0.551-0.448,1-1,1c-0.552,0-1-0.449-1-1
		C10.499,12.964,10.947,12.516,11.499,12.516z M15.425,18.684c-2.356,1.774-5.487,1.779-7.852,0c-0.221-0.166-0.265-0.479-0.099-0.7
		l2.175-2.895c0.166-0.221,0.481-0.265,0.699-0.101c0.684,0.514,1.619,0.513,2.301,0.001c0.22-0.165,0.534-0.122,0.699,0.1
		l2.175,2.895C15.689,18.204,15.646,18.518,15.425,18.684z M17.557,14l-3.634,0.002c-0.276,0-0.5-0.225-0.5-0.5
		c-0.001-0.725-0.41-1.381-1.068-1.711c-0.247-0.123-0.347-0.424-0.224-0.67l1.619-3.238c0.125-0.25,0.426-0.347,0.672-0.223
		c2.24,1.123,3.633,3.36,3.635,5.84C18.057,13.776,17.833,14,17.557,14z"/>
</g>
<g id="invisible_shape">
	<rect fill="none" width="24" height="24"/>
</g>
</svg>
