<?xml version="1.0" encoding="utf-8"?>
<!-- Generator: Adobe Illustrator 19.2.0, SVG Export Plug-In . SVG Version: 6.00 Build 0)  -->
<svg version="1.1" xmlns="http://www.w3.org/2000/svg" xmlns:xlink="http://www.w3.org/1999/xlink" x="0px" y="0px" width="24px"
	 height="24px" viewBox="0 0 24 24" enable-background="new 0 0 24 24" xml:space="preserve">
<g id="Filled_Icons">
	<g>
		<g>
			<path d="M11.5,1.5C10.121,1.5,9,2.621,9,4h5C14,2.621,12.879,1.5,11.5,1.5z"/>
		</g>
		<path d="M2.559,19C3.19,18.383,4.05,18,5,18s1.811,0.383,2.441,1H8V9H5C4.818,9,4.651,9.098,4.563,9.257l-2.466,4.439l-1.95,1.951
			C0.053,15.74,0,15.867,0,16v3H2.559z M3.053,14.275l1.5-3c0.085-0.17,0.258-0.276,0.447-0.276h1.5c0.276,0,0.5,0.224,0.5,0.5V14.5
			c0,0.133-0.053,0.26-0.147,0.354C6.76,14.947,6.633,15,6.5,15l-3-0.001c-0.174,0-0.334-0.09-0.426-0.237
			C2.983,14.614,2.976,14.43,3.053,14.275z"/>
		<path d="M8.449,22h7.102c-0.024-0.166-0.051-0.33-0.051-0.5c0-0.539,0.133-1.044,0.352-1.5H8.148
			C8.367,20.456,8.5,20.961,8.5,21.5C8.5,21.67,8.474,21.834,8.449,22z"/>
		<path d="M9,19h7.559c0.631-0.617,1.491-1,2.441-1s1.81,0.383,2.441,1H24V5.5C24,5.223,23.776,5,23.5,5h-14C9.224,5,9,5.223,9,5.5
			V8v1V19z M16.5,17.5c-1.26,0-2.396-0.481-3.274-1.249L15.191,14c0.352,0.307,0.806,0.5,1.309,0.5c0.503,0,0.957-0.193,1.309-0.5
			l1.965,2.251C18.895,17.019,17.758,17.5,16.5,17.5z M18.565,7.957c1.728,0.787,2.935,2.52,2.935,4.543h-3
			c0-0.809-0.484-1.502-1.175-1.816L18.565,7.957z M16.5,11.5c0.552,0,1,0.448,1,1c0,0.551-0.448,1-1,1s-1-0.449-1-1
			C15.5,11.948,15.948,11.5,16.5,11.5z M14.435,7.957l1.24,2.727c-0.69,0.314-1.175,1.008-1.175,1.816h-3
			C11.5,10.477,12.707,8.744,14.435,7.957z"/>
		<path d="M22.148,20c0.219,0.456,0.352,0.961,0.352,1.5c0,0.17-0.026,0.334-0.051,0.5H23.5c0.276,0,0.5-0.225,0.5-0.5V20H22.148z"
			/>
		<path d="M1.5,21.5c0-0.539,0.133-1.044,0.352-1.5H0v1.5C0,21.775,0.224,22,0.5,22h1.051C1.526,21.834,1.5,21.67,1.5,21.5z"/>
		<g>
			<g>
				<circle cx="5" cy="21.5" r="2.5"/>
			</g>
			<g>
				<circle cx="19" cy="21.5" r="2.5"/>
			</g>
		</g>
	</g>
</g>
<g id="invisible_shape">
	<rect fill="none" width="24" height="24"/>
</g>
</svg>
