<?xml version="1.0" encoding="utf-8"?>
<!-- Generator: Adobe Illustrator 19.2.0, SVG Export Plug-In . SVG Version: 6.00 Build 0)  -->
<svg version="1.1" xmlns="http://www.w3.org/2000/svg" xmlns:xlink="http://www.w3.org/1999/xlink" x="0px" y="0px" width="24px"
	 height="24px" viewBox="0 0 24 24" enable-background="new 0 0 24 24" xml:space="preserve">
<g id="Filled_Icons">
	<g>
		<path d="M6.5,21C5.122,21,4,19.879,4,18.5v-13C4,4.122,5.122,3,6.5,3h6.793l-1.147,1.147c-0.195,0.195-0.195,0.512,0,0.707
			C12.244,4.951,12.372,5,12.5,5s0.256-0.049,0.354-0.147l1.999-2c0.189-0.188,0.201-0.506,0-0.708l-1.999-1.999
			c-0.195-0.195-0.512-0.195-0.707,0s-0.195,0.512,0,0.707L13.293,2H6.5C4.57,2,3,3.57,3,5.5v13C3,20.43,4.57,22,6.5,22
			C6.776,22,7,21.776,7,21.5S6.776,21,6.5,21z"/>
		<path d="M17.5,2C17.224,2,17,2.224,17,2.5S17.224,3,17.5,3C18.878,3,20,4.122,20,5.5v13c0,1.379-1.122,2.5-2.5,2.5h-6.793
			l1.147-1.146c0.195-0.195,0.195-0.512,0-0.707c-0.195-0.195-0.512-0.195-0.707,0l-1.999,1.999c-0.201,0.202-0.189,0.521,0,0.708
			l1.999,2C11.244,23.951,11.372,24,11.5,24s0.256-0.049,0.354-0.146c0.195-0.195,0.195-0.512,0-0.707L10.707,22H17.5
			c1.93,0,3.5-1.57,3.5-3.5v-13C21,3.57,19.43,2,17.5,2z"/>
		<path d="M16,17.5v-9C16,8.224,15.776,8,15.5,8H14V6.5C14,6.224,13.776,6,13.5,6h-3C10.224,6,10,6.224,10,6.5V8H8.5
			C8.224,8,8,8.224,8,8.5v9C8,17.776,8.224,18,8.5,18h7C15.776,18,16,17.776,16,17.5z M13.856,12.852l-2.5,2.532
			c-0.098,0.099-0.227,0.148-0.356,0.148c-0.127,0-0.254-0.048-0.352-0.144c-0.196-0.194-0.198-0.511-0.005-0.707L12.304,13H10.5
			c-0.203,0-0.386-0.122-0.463-0.31c-0.077-0.188-0.033-0.403,0.111-0.547l2.5-2.468c0.196-0.193,0.513-0.191,0.708,0.005
			c0.194,0.196,0.192,0.513-0.005,0.707L11.718,12H13.5c0.202,0,0.384,0.121,0.461,0.308C14.039,12.493,13.998,12.708,13.856,12.852
			z"/>
	</g>
</g>
<g id="invisible_shape">
	<rect fill="none" width="24" height="24"/>
</g>
</svg>
