<?xml version="1.0" encoding="utf-8"?>
<!-- Generator: Adobe Illustrator 19.2.0, SVG Export Plug-In . SVG Version: 6.00 Build 0)  -->
<svg version="1.1" xmlns="http://www.w3.org/2000/svg" xmlns:xlink="http://www.w3.org/1999/xlink" x="0px" y="0px" width="24px"
	 height="24px" viewBox="0 0 24 24" enable-background="new 0 0 24 24" xml:space="preserve">
<g id="Filled_Icons">
	<g>
		<path d="M7.5,6.5C7.776,6.5,8,6.276,8,6V5c0-2.205,1.794-4,4-4c2.206,0,4,1.795,4,4v1c0,0.276,0.224,0.5,0.5,0.5S17,6.276,17,6V5
			c0-2.757-2.243-5-5-5S7,2.243,7,5v1C7,6.276,7.224,6.5,7.5,6.5z"/>
		<path d="M21.5,8h-19C2.224,8,2,8.224,2,8.5v15C2,23.776,2.224,24,2.5,24h19c0.276,0,0.5-0.224,0.5-0.5v-15
			C22,8.224,21.776,8,21.5,8z M9.999,21H6.493c-0.394,0-0.632-0.432-0.424-0.766L8.096,17H6.999c-0.276,0-0.5-0.224-0.5-0.5
			s0.224-0.5,0.5-0.5h2c0.205,0,0.427,0.147,0.485,0.379l0.002,0.009v0.002l0.498,1.989c0.067,0.268-0.096,0.539-0.364,0.606
			c-0.269,0.065-0.539-0.097-0.606-0.364l-0.216-0.86L7.396,20h2.603c0.277,0,0.5,0.224,0.5,0.5S10.276,21,9.999,21z M12,14.5
			c0-0.276,0.224-0.5,0.5-0.5h1.097l-1.594-2.537l-1.538,2.616c-0.14,0.238-0.447,0.318-0.685,0.178
			c-0.238-0.14-0.317-0.446-0.177-0.684l1.957-3.325c0.089-0.15,0.249-0.244,0.424-0.247c0.184,0.016,0.338,0.087,0.431,0.234
			l1.887,3.007l0.216-0.862c0.066-0.268,0.338-0.433,0.606-0.363c0.268,0.066,0.432,0.338,0.364,0.606l-0.498,1.99v0.001
			l-0.002,0.009C14.929,14.845,14.712,15,14.502,15h-0.001H14.5h-2C12.224,15,12,14.776,12,14.5z M17.5,21h-3.639l0.543,0.672
			c0.173,0.216,0.14,0.53-0.075,0.704c-0.216,0.173-0.53,0.139-0.703-0.075l-1.199-1.487c-0.006-0.008-0.004-0.02-0.009-0.027
			c-0.135-0.188-0.134-0.383-0.003-0.568c0.006-0.009,0.004-0.021,0.01-0.028l1.199-1.514c0.171-0.216,0.486-0.253,0.703-0.081
			c0.216,0.172,0.252,0.486,0.082,0.703L13.851,20h2.818l-1.45-2.737c-0.13-0.244-0.036-0.547,0.208-0.676
			c0.241-0.131,0.546-0.037,0.676,0.208l1.839,3.471C18.117,20.6,17.874,21,17.5,21z"/>
	</g>
</g>
<g id="invisible_shape">
	<rect fill="none" width="24" height="24"/>
</g>
</svg>
