<?xml version="1.0" encoding="utf-8"?>
<!-- Generator: Adobe Illustrator 19.2.0, SVG Export Plug-In . SVG Version: 6.00 Build 0)  -->
<svg version="1.1" xmlns="http://www.w3.org/2000/svg" xmlns:xlink="http://www.w3.org/1999/xlink" x="0px" y="0px" width="24px"
	 height="24px" viewBox="0 0 24 24" enable-background="new 0 0 24 24" xml:space="preserve">
<g id="Filled_Icons">
	<g>
		<g>
			<path d="M23.5,1h-3C20.224,1,20,1.224,20,1.5v8c0,0.276,0.224,0.5,0.5,0.5h3c0.276,0,0.5-0.224,0.5-0.5v-8
				C24,1.224,23.776,1,23.5,1z"/>
			<path d="M19,2.247c-1.003-0.339-1.876-0.646-2.633-0.912c-5.473-1.923-5.574-1.916-10.834,0.916
				c-1.35,0.727-3.029,1.631-5.257,2.745C-0.03,5.15-0.094,5.557,0.147,5.797c1.175,1.173,2.184,1.5,3.523,1.116l5.858-2.122
				l2.652,0.643c-1.852,1.373-4.061,2.818-3.37,4.096c0.639,1.179,1.407,0.843,3.949-0.268c0.684-0.3,1.527-0.668,2.573-1.104
				L19,9.381V2.247z"/>
		</g>
		<path d="M16.5,12h-14C2.224,12,2,12.224,2,12.5S2.224,13,2.5,13h1.543l0.958,10.545C5.025,23.803,5.241,24,5.5,24h8
			c0.259,0,0.475-0.197,0.498-0.455L14.957,13H16.5c0.276,0,0.5-0.224,0.5-0.5S16.776,12,16.5,12z M8,20.5C8,20.776,7.776,21,7.5,21
			S7,20.776,7,20.5v-5C7,15.224,7.224,15,7.5,15S8,15.224,8,15.5V20.5z M10,20.5c0,0.276-0.224,0.5-0.5,0.5S9,20.776,9,20.5v-5
			C9,15.224,9.224,15,9.5,15s0.5,0.224,0.5,0.5V20.5z M12,20.5c0,0.276-0.224,0.5-0.5,0.5S11,20.776,11,20.5v-5
			c0-0.276,0.224-0.5,0.5-0.5s0.5,0.224,0.5,0.5V20.5z"/>
	</g>
</g>
<g id="invisible_shape">
	<rect fill="none" width="24" height="24"/>
</g>
</svg>
