<?xml version="1.0" encoding="utf-8"?>
<!-- Generator: Adobe Illustrator 19.2.0, SVG Export Plug-In . SVG Version: 6.00 Build 0)  -->
<svg version="1.1" xmlns="http://www.w3.org/2000/svg" xmlns:xlink="http://www.w3.org/1999/xlink" x="0px" y="0px" width="24px"
	 height="24px" viewBox="0 0 24 24" enable-background="new 0 0 24 24" xml:space="preserve">
<g id="Filled_Icons">
	<path d="M20.916,4.223l-2-3C18.823,1.084,18.667,1,18.5,1h-13C5.333,1,5.177,1.084,5.084,1.223l-2,3
		c-0.026,0.04-0.078,0.192-0.076,0.284c0,0.016-0.007,0.03-0.005,0.046l2,19C5.029,23.807,5.244,24,5.5,24h13
		c0.256,0,0.471-0.193,0.497-0.447l2-19C21.005,4.49,20.959,4.289,20.916,4.223z M10.547,17H7.04c-0.377,0-0.621-0.404-0.439-0.738
		l1.451-2.672L7.57,13.692c-0.272,0.054-0.536-0.116-0.593-0.386c-0.057-0.269,0.115-0.536,0.385-0.593l1.542-0.328
		c0.279-0.06,0.526,0.134,0.586,0.364c0.001,0.006,0.006,0.011,0.007,0.017l0.335,1.51c0.069,0.313-0.169,0.608-0.489,0.608
		c-0.229,0-0.436-0.158-0.488-0.392L8.81,14.289L7.881,16h2.666c0.276,0,0.5,0.224,0.5,0.5S10.823,17,10.547,17z M11.832,10.202
		c0.036-0.273,0.284-0.46,0.56-0.433l0.691,0.089l-1.094-1.856l-1.525,2.595c-0.141,0.238-0.446,0.317-0.685,0.178
		c-0.238-0.14-0.317-0.447-0.178-0.685l1.956-3.327c0.18-0.306,0.683-0.306,0.862,0l1.478,2.51l0.174-0.535
		c0.085-0.263,0.365-0.407,0.629-0.321c0.263,0.084,0.407,0.366,0.322,0.629l-0.516,1.594c-0.067,0.202-0.281,0.371-0.539,0.342
		l-1.703-0.219C11.99,10.727,11.797,10.476,11.832,10.202z M16.984,17h-2.771l0.324,0.317c0.197,0.192,0.2,0.51,0.007,0.707
		c-0.189,0.192-0.507,0.203-0.707,0.007l-1.199-1.175c-0.2-0.197-0.198-0.519,0.001-0.714l1.198-1.174
		c0.198-0.192,0.515-0.188,0.707,0.008c0.193,0.197,0.19,0.514-0.008,0.707L14.214,16h1.939l-1.45-2.737
		c-0.129-0.243-0.036-0.547,0.208-0.676c0.241-0.13,0.546-0.037,0.676,0.208l1.839,3.471C17.602,16.6,17.358,17,16.984,17z M4.434,4
		l1.333-2h12.465l1.333,2H4.434z"/>
</g>
<g id="invisible_shape">
	<rect fill="none" width="24" height="24"/>
</g>
</svg>
