<?xml version="1.0" encoding="utf-8"?>
<!-- Generator: Adobe Illustrator 19.2.0, SVG Export Plug-In . SVG Version: 6.00 Build 0)  -->
<svg version="1.1" xmlns="http://www.w3.org/2000/svg" xmlns:xlink="http://www.w3.org/1999/xlink" x="0px" y="0px" width="24px"
	 height="24px" viewBox="0 0 24 24" enable-background="new 0 0 24 24" xml:space="preserve">
<g id="Filled_Icons">
	<g>
		<path d="M5.5,4H8h8h2.5C18.776,4,19,3.776,19,3.5v-1C19,2.224,18.776,2,18.5,2H16V0.5C16,0.224,15.776,0,15.5,0h-7
			C8.224,0,8,0.224,8,0.5V2H5.5C5.224,2,5,2.224,5,2.5v1C5,3.776,5.224,4,5.5,4z"/>
		<path d="M23,10h-4V9.5C19,9.224,18.776,9,18.5,9h-2.939c-0.907,0.924-2.168,1.5-3.561,1.5c-1.394,0-2.654-0.576-3.561-1.5H5.5
			C5.224,9,5,9.224,5,9.5V10H1c-0.552,0-1,0.448-1,1c0,0.553,0.448,1,1,1h4v1.5C5,13.776,5.224,14,5.5,14H8v4.5
			C8,18.776,8.224,19,8.5,19h7c0.276,0,0.5-0.224,0.5-0.5V14h2.5c0.276,0,0.5-0.224,0.5-0.5V12h4c0.552,0,1-0.447,1-1
			C24,10.448,23.552,10,23,10z"/>
		<path d="M10,23.5c0,0.276,0.224,0.5,0.5,0.5h3c0.276,0,0.5-0.224,0.5-0.5V20h-4V23.5z"/>
		<path d="M8,5.5c0,2.206,1.794,4,4,4c2.206,0,4-1.794,4-4V5H8V5.5z"/>
	</g>
</g>
<g id="invisible_shape">
	<rect fill="none" width="24" height="24"/>
</g>
</svg>
