<?xml version="1.0" encoding="utf-8"?>
<!-- Generator: Adobe Illustrator 19.2.0, SVG Export Plug-In . SVG Version: 6.00 Build 0)  -->
<svg version="1.1" xmlns="http://www.w3.org/2000/svg" xmlns:xlink="http://www.w3.org/1999/xlink" x="0px" y="0px" width="24px"
	 height="24px" viewBox="0 0 24 24" enable-background="new 0 0 24 24" xml:space="preserve">
<g id="Filled_Icons">
	<g>
		<path d="M15.497,14.318c0.48-2.004-0.903-6.007-3.031-7.511c-0.253-0.184-0.621-0.085-0.749,0.212
			c-0.986,2.333-3.457,3.113-4.012,5.436c-0.424,1.772,0.154,3.15,1.972,3.279c0.011,0.511,0.031,1.037,0.075,1.598
			c0.061,0.787,0.719,1.384,1.494,1.384c0.883,0,1.565-0.753,1.498-1.616c-0.015-0.191-0.023-0.373-0.033-0.558
			C14.252,16.976,15.126,15.869,15.497,14.318z M12.54,10.832c-0.75,1.191-1.025,3.387-0.795,6.345
			c0.021,0.274-0.184,0.516-0.459,0.536c-0.014,0.002-0.026,0.003-0.04,0.003c-0.258,0-0.478-0.199-0.499-0.462
			c-0.251-3.219,0.067-5.56,0.946-6.955c0.147-0.232,0.455-0.305,0.69-0.156C12.618,10.289,12.688,10.598,12.54,10.832z"/>
		<path d="M6.8,10.1C6.58,9.935,6.266,9.979,6.1,10.2L4,13v-1c0-4.411,3.589-8,8-8c2.35,0,4.572,1.027,6.096,2.819
			c0.179,0.211,0.495,0.235,0.705,0.057c0.21-0.179,0.235-0.494,0.057-0.705C17.143,4.156,14.643,3,12,3c-4.962,0-9,4.037-9,9v1
			l-2.1-2.8C0.733,9.979,0.421,9.934,0.2,10.1c-0.221,0.166-0.266,0.479-0.1,0.7l3,4c0.2,0.267,0.6,0.267,0.8,0l3-4
			C7.066,10.579,7.021,10.266,6.8,10.1z"/>
		<path d="M23.9,13.2l-3-4c-0.189-0.252-0.611-0.252-0.8,0l-3,4c-0.166,0.221-0.121,0.534,0.1,0.7
			c0.221,0.166,0.535,0.121,0.7-0.101L20,11v1c0,4.411-3.589,8-8,8c-2.35,0-4.572-1.027-6.096-2.819
			c-0.18-0.211-0.495-0.235-0.705-0.057c-0.21,0.179-0.235,0.494-0.057,0.705C6.857,19.844,9.357,21,12,21c4.962,0,9-4.037,9-9v-1
			l2.1,2.8c0.166,0.221,0.479,0.267,0.7,0.101C24.021,13.734,24.066,13.421,23.9,13.2z"/>
	</g>
</g>
<g id="invisible_shape">
	<rect fill="none" width="24" height="24"/>
</g>
</svg>
