<?xml version="1.0" encoding="utf-8"?>
<!-- Generator: Adobe Illustrator 19.2.0, SVG Export Plug-In . SVG Version: 6.00 Build 0)  -->
<svg version="1.1" xmlns="http://www.w3.org/2000/svg" xmlns:xlink="http://www.w3.org/1999/xlink" x="0px" y="0px" width="24px"
	 height="24px" viewBox="0 0 24 24" enable-background="new 0 0 24 24" xml:space="preserve">
<g id="Filled_Icons">
	<g>
		<path d="M9.5,2C9.777,2,10,1.776,10,1.5v-1C10,0.224,9.777,0,9.5,0C9.224,0,9,0.224,9,0.5v1C9,1.776,9.224,2,9.5,2z"/>
		<path d="M3.148,3.826c0.098,0.098,0.225,0.147,0.353,0.147c0.128,0,0.256-0.049,0.354-0.147c0.195-0.195,0.195-0.512,0-0.707l-1-1
			c-0.195-0.195-0.512-0.195-0.707,0c-0.195,0.195-0.195,0.512,0,0.707L3.148,3.826z"/>
		<path d="M15.501,3.973c0.128,0,0.256-0.049,0.353-0.147l1-1c0.195-0.195,0.195-0.512,0-0.707c-0.195-0.195-0.512-0.195-0.707,0
			l-1,1c-0.195,0.195-0.195,0.512,0,0.707C15.245,3.924,15.373,3.973,15.501,3.973z"/>
		<path d="M1.5,9h-1C0.224,9,0,9.224,0,9.5S0.224,10,0.5,10h1C1.777,10,2,9.776,2,9.5S1.777,9,1.5,9z"/>
		<path d="M3.94,12.819l2.249-4.048C6.453,8.296,6.955,8,7.5,8h8.326c-0.669-2.877-3.248-5.029-6.325-5.029
			c-3.584,0-6.5,2.916-6.5,6.5C3.001,10.696,3.348,11.84,3.94,12.819z"/>
		<path d="M14.501,20h-3c-0.276,0-0.5,0.224-0.5,0.5v3c0,0.276,0.224,0.5,0.5,0.5h3c0.276,0,0.5-0.224,0.499-0.5v-3
			C15.001,20.224,14.777,20,14.501,20z"/>
		<polygon points="11.61,9 10.947,12 15.027,12 14.361,9 		"/>
		<polygon points="21,13 16.275,13 16.724,14.971 22.111,14.971 		"/>
		<polygon points="15.251,13 10.725,13 10.278,14.971 15.699,14.971 		"/>
		<polygon points="10.055,16 9.379,19 16.603,19 15.924,16 		"/>
		<polygon points="5,13 3.89,14.971 9.254,14.971 9.7,13 		"/>
		<path d="M23.857,18.15L22.667,16h-5.719l0.679,3H23.5c0.008,0,0.014,0,0.021,0C23.796,19,24,18.776,24,18.5
			C24,18.364,23.945,18.241,23.857,18.15z"/>
		<path d="M2.063,18.258c-0.086,0.154-0.084,0.344,0.006,0.496C2.159,18.906,2.323,19,2.5,19h5.856l0.676-3H3.334L2.063,18.258z"/>
		<path d="M16.052,12h4.392l-1.507-2.742C18.85,9.1,18.682,9,18.5,9h-3.114L16.052,12z"/>
		<path d="M7.063,9.258L5.556,12h4.368l0.663-3H7.5C7.319,9,7.151,9.1,7.063,9.258z"/>
	</g>
</g>
<g id="invisible_shape">
	<rect fill="none" width="24" height="24"/>
</g>
</svg>
