<?xml version="1.0" encoding="utf-8"?>
<!-- Generator: Adobe Illustrator 19.2.0, SVG Export Plug-In . SVG Version: 6.00 Build 0)  -->
<svg version="1.1" xmlns="http://www.w3.org/2000/svg" xmlns:xlink="http://www.w3.org/1999/xlink" x="0px" y="0px" width="24px"
	 height="24px" viewBox="0 0 24 24" enable-background="new 0 0 24 24" xml:space="preserve">
<g id="Filled_Icons">
	<g>
		<g>
			<path d="M8.573,11.044c1.508,0,2.297-1.266,2.33-1.32c0.273-0.447,0.768-0.736,1.291-0.736c0.518,0,1.003,0.268,1.276,0.707
				c0.028,0.043,0.896,1.35,2.342,1.35c0.931,0,1.583-0.48,1.955-0.857c0.17-0.534,0.267-1.098,0.267-1.678
				c0-3.033-2.468-5.5-5.5-5.5c-3.033,0-5.5,2.467-5.5,5.5c0,0.809,0.179,1.588,0.505,2.297C7.84,10.944,8.184,11.044,8.573,11.044z
				"/>
		</g>
		<g>
			<path d="M0.812,15.042c1.476,0.318,2.955-1.471,2.969-1.489c0.61-0.757,1.937-0.684,2.451,0.142
				c0.029,0.043,0.896,1.35,2.342,1.35c1.508,0,2.297-1.266,2.33-1.32c0.273-0.447,0.768-0.736,1.291-0.736
				c0.518,0,1.003,0.268,1.276,0.707c0.028,0.043,0.896,1.35,2.342,1.35c1.527,0,2.315-1.292,2.322-1.306
				c0.267-0.464,0.763-0.751,1.299-0.751c0.518,0,1.003,0.268,1.277,0.707c0.036,0.058,1.055,1.604,2.482,1.305
				c0.271-0.057,0.546-0.027,0.801,0.063l0.003-2.593c0-0.15-0.067-0.293-0.184-0.39c-0.116-0.094-0.271-0.133-0.418-0.102
				c-2.125,0.441-3.478-1.666-3.534-1.756c-0.186-0.295-0.685-0.288-0.86,0.016c-0.011,0.018-1.066,1.807-3.188,1.807
				c-2.018,0-3.18-1.805-3.191-1.822c-0.187-0.295-0.684-0.286-0.86,0.015c-0.043,0.073-1.084,1.808-3.188,1.808
				c-2.018,0-3.18-1.805-3.191-1.822c-0.172-0.273-0.618-0.297-0.819-0.045C4.544,10.2,2.714,12.47,0.604,12.019
				c-0.147-0.03-0.301,0.007-0.418,0.101C0.068,12.214,0,12.358,0.005,12.509L0,15.106C0.255,15.013,0.535,14.982,0.812,15.042z"/>
		</g>
		<g>
			<path d="M20.493,8.003h-1.392c-0.277,0.004-0.5-0.221-0.5-0.496c0-0.277,0.223-0.5,0.5-0.5h1.392c0.276,0,0.5,0.223,0.5,0.5
				C20.993,7.782,20.769,8.007,20.493,8.003z"/>
		</g>
		<g>
			<path d="M17.362,4.116c-0.127,0-0.256-0.048-0.353-0.145c-0.195-0.194-0.195-0.511,0-0.708l1.042-1.043
				c0.196-0.195,0.512-0.195,0.708,0c0.195,0.195,0.195,0.512,0,0.707l-1.044,1.044C17.619,4.068,17.49,4.116,17.362,4.116z"/>
		</g>
		<g>
			<path d="M12.493,2.398c-0.277,0-0.5-0.223-0.493-0.5V0.507c-0.007-0.277,0.216-0.5,0.493-0.5c0.276,0,0.5,0.223,0.5,0.5v1.391
				C12.993,2.175,12.769,2.398,12.493,2.398z"/>
		</g>
		<g>
			<path d="M7.623,4.116c-0.128,0-0.255-0.048-0.354-0.145L6.227,2.927c-0.196-0.195-0.196-0.512,0-0.707
				c0.195-0.195,0.512-0.195,0.707,0l1.043,1.043c0.195,0.197,0.195,0.514,0,0.708C7.879,4.068,7.752,4.116,7.623,4.116z"/>
		</g>
		<g>
			<path d="M5.884,8.003H4.493c-0.277,0.004-0.5-0.221-0.5-0.496c0-0.277,0.223-0.5,0.5-0.5h1.391c0.276,0,0.5,0.223,0.5,0.5
				C6.384,7.782,6.16,8.007,5.884,8.003z"/>
		</g>
		<g>
			<path d="M0.812,19.042c1.221,0.261,2.592-1.02,2.969-1.489c0.61-0.757,1.937-0.684,2.451,0.142
				c0.029,0.043,0.896,1.35,2.342,1.35c1.526,0,2.313-1.292,2.321-1.306c0.268-0.464,0.764-0.751,1.3-0.751
				c0.518,0,1.003,0.268,1.276,0.707c0.028,0.043,0.896,1.35,2.342,1.35c1.527,0,2.315-1.292,2.322-1.306
				c0.267-0.464,0.763-0.751,1.299-0.751c0.518,0,1.003,0.268,1.277,0.707c0.003,0.005,1.087,1.592,2.482,1.305
				c0.271-0.057,0.546-0.027,0.801,0.063l0.003-2.593c0-0.15-0.067-0.293-0.184-0.39c-0.116-0.094-0.271-0.131-0.418-0.102
				c-2.125,0.442-3.478-1.666-3.534-1.756c-0.186-0.295-0.685-0.288-0.86,0.016c-0.011,0.018-1.066,1.807-3.188,1.807
				c-2.018,0-3.18-1.805-3.191-1.822c-0.187-0.295-0.684-0.286-0.86,0.015c-0.043,0.073-1.084,1.808-3.188,1.808
				c-2.018,0-3.18-1.805-3.191-1.822c-0.172-0.273-0.618-0.297-0.819-0.045C4.544,14.2,2.714,16.47,0.604,16.02
				c-0.147-0.03-0.301,0.006-0.418,0.101C0.068,16.214,0,16.358,0.005,16.509L0,19.106C0.255,19.013,0.536,18.983,0.812,19.042z"/>
		</g>
		<g>
			<path d="M23.813,20.079c-0.116-0.094-0.271-0.133-0.418-0.102c-0.193,0.041-0.389,0.061-0.58,0.061
				c-1.791,0-2.942-1.797-2.954-1.816c-0.186-0.295-0.685-0.288-0.86,0.016c-0.011,0.018-1.066,1.807-3.188,1.807
				c-2.018,0-3.18-1.805-3.191-1.822c-0.188-0.296-0.686-0.288-0.861,0.016c-0.01,0.018-1.065,1.807-3.188,1.807
				c-2.018,0-3.18-1.805-3.191-1.822c-0.172-0.274-0.618-0.297-0.819-0.045c-0.015,0.02-1.531,1.902-3.393,1.902
				c-0.19,0-0.38-0.019-0.566-0.06c-0.147-0.031-0.301,0.007-0.418,0.101C0.068,20.214,0,20.357,0.007,20.508L0,23.486
				c-0.008,0.133,0.045,0.261,0.139,0.354c0.094,0.094,0.221,0.147,0.354,0.147h23c0.276,0,0.5-0.223,0.5-0.499l0.005-3.02
				C23.998,20.318,23.93,20.176,23.813,20.079z"/>
		</g>
	</g>
</g>
<g id="invisible_shape">
	<rect fill="none" width="24" height="24"/>
</g>
</svg>
