<?xml version="1.0" encoding="utf-8"?>
<!-- Generator: Adobe Illustrator 19.2.0, SVG Export Plug-In . SVG Version: 6.00 Build 0)  -->
<svg version="1.1" xmlns="http://www.w3.org/2000/svg" xmlns:xlink="http://www.w3.org/1999/xlink" x="0px" y="0px" width="24px"
	 height="24px" viewBox="0 0 24 24" enable-background="new 0 0 24 24" xml:space="preserve">
<g id="Filled_Icons">
	<g>
		<path d="M8.5,0C8.224,0,8,0.224,8,0.5v6c0,1.759-1.309,3.204-3,3.449V0.5C5,0.224,4.776,0,4.5,0S4,0.224,4,0.5v9.449
			C2.309,9.704,1,8.259,1,6.5v-6C1,0.224,0.776,0,0.5,0S0,0.224,0,0.5v6c0,2.311,1.756,4.197,4,4.449v3.102
			c-1.14,0.232-2,1.242-2,2.449v5C2,22.879,3.122,24,4.5,24C5.878,24,7,22.879,7,21.5v-5c0-1.207-0.86-2.217-2-2.449v-3.102
			C7.244,10.697,9,8.811,9,6.5v-6C9,0.224,8.776,0,8.5,0z"/>
		<path d="M22.992,12.336C22.896,10.539,22.134,0,17.5,0c-4.777,0-5.422,11.201-5.479,12.477c-0.006,0.137,0.044,0.27,0.139,0.368
			C12.253,12.944,12.384,13,12.521,13H16V5.5C16,4.672,16.671,4,17.5,4C18.328,4,19,4.672,19,5.5V13h3.5c0.007,0,0.013,0,0.02,0
			c0.276,0,0.5-0.224,0.5-0.5C23.02,12.442,23.01,12.388,22.992,12.336z"/>
		<path d="M18,14.051V5.5C18,5.224,17.776,5,17.5,5S17,5.224,17,5.5v8.551c-1.14,0.232-2,1.242-2,2.449v5c0,1.379,1.122,2.5,2.5,2.5
			c1.378,0,2.5-1.121,2.5-2.5v-5C20,15.293,19.14,14.283,18,14.051z"/>
	</g>
</g>
<g id="invisible_shape">
	<rect fill="none" width="24" height="24"/>
</g>
</svg>
