<?xml version="1.0" encoding="utf-8"?>
<!-- Generator: Adobe Illustrator 19.2.0, SVG Export Plug-In . SVG Version: 6.00 Build 0)  -->
<svg version="1.1" xmlns="http://www.w3.org/2000/svg" xmlns:xlink="http://www.w3.org/1999/xlink" x="0px" y="0px" width="24px"
	 height="24px" viewBox="0 0 24 24" enable-background="new 0 0 24 24" xml:space="preserve">
<g id="Filled_Icons">
	<path d="M19.399,18.188L15.5,12.989h2c0.185,0,0.354-0.102,0.44-0.264c0.087-0.164,0.077-0.361-0.024-0.514l-3.482-5.223H15.5
		c0.185,0,0.354-0.102,0.44-0.264c0.087-0.164,0.077-0.361-0.024-0.514l-4-6c-0.186-0.278-0.647-0.278-0.832,0l-4,6
		c-0.103,0.152-0.112,0.35-0.025,0.514C7.146,6.888,7.315,6.989,7.5,6.989h1.065l-3.481,5.223c-0.103,0.152-0.112,0.35-0.025,0.514
		c0.087,0.162,0.257,0.264,0.441,0.264h2l-3.9,5.199c-0.113,0.152-0.132,0.354-0.047,0.523C3.638,18.882,3.81,18.989,4,18.989h7v4.5
		c0,0.276,0.224,0.5,0.5,0.5s0.5-0.224,0.5-0.5v-4.5h7c0.19,0,0.362-0.108,0.447-0.277C19.531,18.542,19.514,18.341,19.399,18.188z"
		/>
</g>
<g id="invisible_shape">
	<rect fill="none" width="24" height="24"/>
</g>
</svg>
