<?xml version="1.0" encoding="utf-8"?>
<!-- Generator: Adobe Illustrator 19.2.0, SVG Export Plug-In . SVG Version: 6.00 Build 0)  -->
<svg version="1.1" xmlns="http://www.w3.org/2000/svg" xmlns:xlink="http://www.w3.org/1999/xlink" x="0px" y="0px" width="24px"
	 height="24px" viewBox="0 0 24 24" enable-background="new 0 0 24 24" xml:space="preserve">
<g id="Filled_Icons">
	<path d="M13,16.364c0.568,0.397,1.26,0.642,2.006,0.642c1.746,0,3.196-1.281,3.458-2.955l0.058-0.301
		c1.167-0.493,1.984-1.648,1.984-2.994c0-1.234-0.688-2.308-1.701-2.858l-0.299-0.392c0-1.381-1.119-2.5-2.5-2.5l-0.25-0.25
		c0-1.795-1.454-3.25-3.25-3.25s-3.25,1.455-3.25,3.25l-0.25,0.25c-1.381,0-2.5,1.119-2.5,2.5l-0.048,0.27
		c-1.149,0.5-1.952,1.646-1.952,2.981c0,1.353,0.826,2.513,2.003,3.002l0.039,0.293c0.262,1.674,1.711,2.955,3.458,2.955
		c0.747,0,1.432-0.244,2-0.645v7.145c0,0.276,0.224,0.5,0.5,0.5c0.276,0,0.494-0.224,0.494-0.5V16.364z M13.006,14.199L13,16h-1
		v-4.05c-1.696-0.241-3-1.689-3-3.45C9,8.224,9.224,8,9.5,8S10,8.224,10,8.5c0,1.211,0.855,2.223,2,2.451V8.04
		c0-0.275,0.24-0.499,0.516-0.499c0,0,0,0,0.001,0C12.792,7.541,13,7.766,13,8.042v5.157c1.688-0.249,3-1.693,3-3.449
		c0-0.276,0.224-0.5,0.5-0.5S17,9.474,17,9.75C17,12.059,15.247,13.943,13.006,14.199z"/>
</g>
<g id="invisible_shape">
	<rect fill="none" width="24" height="24"/>
</g>
</svg>
