<?xml version="1.0" encoding="utf-8"?>
<!-- Generator: Adobe Illustrator 19.2.0, SVG Export Plug-In . SVG Version: 6.00 Build 0)  -->
<svg version="1.1" xmlns="http://www.w3.org/2000/svg" xmlns:xlink="http://www.w3.org/1999/xlink" x="0px" y="0px" width="24px"
	 height="24px" viewBox="0 0 24 24" enable-background="new 0 0 24 24" xml:space="preserve">
<g id="Filled_Icons">
	<path d="M18,12.5c-1.657,0-3,1.344-3,3c0,0.261,0.043,0.508,0.106,0.749c-0.038,0.013-0.078,0.021-0.113,0.043
		c-1.29,0.809-2.306,1.921-2.992,3.21V14.5V12V9h3c0.276,0,0.5-0.224,0.5-0.5V4.027l1.206,0.877C16.795,4.969,16.897,5,17,5
		c0.155,0,0.307-0.071,0.405-0.206c0.163-0.224,0.113-0.536-0.11-0.698L11.79,0.093c-0.174-0.123-0.407-0.123-0.581,0L5.706,4.096
		C5.482,4.258,5.433,4.57,5.596,4.794c0.162,0.224,0.475,0.273,0.698,0.11L7.5,4.027V8.5C7.5,8.776,7.724,9,8,9h3v3v2.5v1.916
		c-0.595-0.997-1.431-1.852-2.46-2.456c-0.036-0.021-0.074-0.027-0.112-0.038C8.475,13.705,8.5,13.481,8.5,13.25
		C8.5,11.455,7.045,10,5.25,10S2,11.455,2,13.25s1.455,3.25,3.25,3.25c1.213,0,2.258-0.672,2.816-1.656
		C9.876,15.924,11,17.894,11,20v3.5c0,0.276,0.224,0.5,0.5,0.5s0.5-0.224,0.5-0.5c0-2.591,1.309-4.96,3.501-6.344
		C16.038,17.965,16.956,18.5,18,18.5c1.657,0,3-1.344,3-3C21,13.844,19.657,12.5,18,12.5z M11,6.5C11,6.224,11.224,6,11.5,6
		S12,6.224,12,6.5V8h-1V6.5z"/>
</g>
<g id="invisible_shape">
	<rect fill="none" width="24" height="24"/>
</g>
</svg>
