<?xml version="1.0" encoding="utf-8"?>
<!-- Generator: Adobe Illustrator 19.2.0, SVG Export Plug-In . SVG Version: 6.00 Build 0)  -->
<svg version="1.1" xmlns="http://www.w3.org/2000/svg" xmlns:xlink="http://www.w3.org/1999/xlink" x="0px" y="0px" width="24px"
	 height="24px" viewBox="0 0 24 24" enable-background="new 0 0 24 24" xml:space="preserve">
<g id="Filled_Icons">
	<path d="M21,5h-1.213c-0.363-0.574-1.346-1.847-2.987-1.987C16.331,2.23,14.755,0,12,0C9.244,0,7.668,2.23,7.199,3.013
		C5.559,3.153,4.576,4.426,4.212,5H3C1.776,5,0,6.168,0,8c0,1.766,1.233,3,3,3h4.293L11,14.707V17H7.5
		c-0.342,0-0.582,0.334-0.475,0.658l2,6C9.094,23.862,9.284,24,9.5,24h5c0.215,0,0.406-0.138,0.474-0.342l2-6
		C17.082,17.34,16.845,17,16.5,17H12v-2.293L15.707,11H21c1.766,0,3-1.234,3-3C24,6.168,22.223,5,21,5z M11,13.293L8.707,11H11
		V13.293z M12,13.293V11h2.293L12,13.293z"/>
</g>
<g id="invisible_shape">
	<rect fill="none" width="24" height="24"/>
</g>
</svg>
