<?xml version="1.0" encoding="utf-8"?>
<!-- Generator: Adobe Illustrator 19.2.0, SVG Export Plug-In . SVG Version: 6.00 Build 0)  -->
<svg version="1.1" xmlns="http://www.w3.org/2000/svg" xmlns:xlink="http://www.w3.org/1999/xlink" x="0px" y="0px" width="24px"
	 height="24px" viewBox="0 0 24 24" enable-background="new 0 0 24 24" xml:space="preserve">
<g id="Filled_Icons">
	<g>
		<path d="M14.5,11c0.276,0,0.5-0.224,0.5-0.5c0-2.057,1.035-3.947,2.77-5.058c0.233-0.148,0.3-0.458,0.151-0.69
			c-0.148-0.233-0.459-0.302-0.69-0.151C15.208,5.896,14,8.102,14,10.5C14,10.776,14.224,11,14.5,11z"/>
		<path d="M6.231,5.442C7.965,6.553,9,8.443,9,10.5C9,10.776,9.224,11,9.5,11s0.5-0.224,0.5-0.5c0-2.398-1.208-4.604-3.231-5.899
			c-0.233-0.15-0.542-0.082-0.69,0.151C5.93,4.984,5.998,5.294,6.231,5.442z"/>
		<path d="M15.15,12.908c0.198,0.192,0.515,0.191,0.707-0.008c1.139-1.159,3.148-1.161,4.286,0c0.098,0.101,0.227,0.15,0.357,0.15
			c0.126,0,0.252-0.048,0.35-0.143c0.197-0.193,0.2-0.51,0.007-0.707C20.099,11.427,19.084,11,18,11
			c-1.084,0-2.099,0.427-2.857,1.201C14.95,12.398,14.953,12.715,15.15,12.908z"/>
		<path d="M3.857,12.9c1.139-1.161,3.147-1.16,4.286,0c0.098,0.101,0.227,0.15,0.357,0.15c0.127,0,0.252-0.048,0.35-0.143
			c0.197-0.193,0.2-0.51,0.007-0.707C8.099,11.427,7.083,11,5.999,11c-1.083,0-2.098,0.427-2.856,1.201
			c-0.193,0.197-0.191,0.514,0.007,0.707C3.349,13.101,3.665,13.1,3.857,12.9z"/>
		<path d="M10.5,5.959c0,0.276,0.224,0.5,0.5,0.5s0.5-0.224,0.5-0.5c0-1.247-0.19-2.476-0.565-3.652
			c-0.084-0.262-0.367-0.406-0.628-0.324c-0.263,0.084-0.408,0.365-0.325,0.629C10.326,3.69,10.5,4.815,10.5,5.959z"/>
		<path d="M12.958,6.459c0.276,0,0.5-0.224,0.5-0.5c0-1.144,0.174-2.27,0.519-3.348c0.083-0.264-0.062-0.545-0.325-0.629
			c-0.263-0.081-0.545,0.063-0.628,0.324c-0.375,1.177-0.565,2.405-0.565,3.652C12.458,6.235,12.682,6.459,12.958,6.459z"/>
		<path d="M23.757,23.071c-0.073-0.044-7.293-4.426-7.76-8.627C15.969,14.191,15.755,14,15.5,14h-3.005
			c0,0.075-0.012,0.151-0.048,0.224L11.309,16.5H13.5c0.188,0,0.359,0.104,0.444,0.271c0.086,0.166,0.071,0.367-0.038,0.52l-2.5,3.5
			C11.309,20.927,11.156,21,11,21c-0.101,0-0.202-0.03-0.29-0.093c-0.225-0.161-0.277-0.473-0.116-0.698l1.935-2.709H10.5
			c-0.173,0-0.334-0.09-0.425-0.237c-0.091-0.147-0.1-0.331-0.022-0.486L11.441,14H8.5C8.224,14,8,14.224,8,14.5
			c0,4.155-7.668,8.521-7.745,8.565c-0.198,0.111-0.296,0.343-0.238,0.563C0.074,23.847,0.273,24,0.5,24h23
			c0.225,0,0.422-0.15,0.482-0.366C24.042,23.417,23.95,23.187,23.757,23.071z"/>
	</g>
</g>
<g id="invisible_shape">
	<rect fill="none" width="24" height="24"/>
</g>
</svg>
