<?xml version="1.0" encoding="utf-8"?>
<!-- Generator: Adobe Illustrator 19.2.0, SVG Export Plug-In . SVG Version: 6.00 Build 0)  -->
<svg version="1.1" xmlns="http://www.w3.org/2000/svg" xmlns:xlink="http://www.w3.org/1999/xlink" x="0px" y="0px" width="24px"
	 height="24px" viewBox="0 0 24 24" enable-background="new 0 0 24 24" xml:space="preserve">
<g id="Filled_Icons">
	<path d="M18.5,4h-5C10.416,4,8,5.537,8,7.5v7.861L2.963,5.178l1.344-0.665c0.248-0.122,0.349-0.422,0.227-0.67
		c-0.122-0.247-0.422-0.35-0.67-0.226L2.071,4.502L0.278,5.391c-0.248,0.122-0.35,0.422-0.226,0.67
		c0.122,0.248,0.423,0.348,0.67,0.227l1.345-0.666L8,17.617V18.5c0,1.379,1.121,2.5,2.5,2.494h6C17.878,21,19,19.879,19,18.5v-3.525
		c2.799-0.254,5-2.611,5-5.475C24,6.469,21.532,4,18.5,4z M19,13.971V7.5C19,7.225,18.776,7,18.5,7h-2.732l-1.334-2.006H18.5
		C20.981,5,23,7.019,23,9.5C23,11.813,21.246,13.721,19,13.971z"/>
</g>
<g id="invisible_shape">
	<rect fill="none" width="24" height="24"/>
</g>
</svg>
