<?xml version="1.0" encoding="utf-8"?>
<!-- Generator: Adobe Illustrator 19.2.0, SVG Export Plug-In . SVG Version: 6.00 Build 0)  -->
<svg version="1.1" xmlns="http://www.w3.org/2000/svg" xmlns:xlink="http://www.w3.org/1999/xlink" x="0px" y="0px" width="24px"
	 height="24px" viewBox="0 0 24 24" enable-background="new 0 0 24 24" xml:space="preserve">
<g id="Filled_Icons">
	<g>
		<g>
			<g>
				<rect x="10" y="14" width="2" height="2"/>
			</g>
			<g>
				<rect x="7" y="14" width="2" height="2"/>
			</g>
			<g>
				<rect x="13" y="14" width="2" height="2"/>
			</g>
			<g>
				<path d="M6,14H3.5C3.224,14,3,14.224,3,14.5v1C3,15.776,3.224,16,3.5,16H6V14z"/>
			</g>
			<g>
				<rect x="16" y="14" width="2" height="2"/>
			</g>
			<g>
				<path d="M21.5,14H19v2h2.5c0.276,0,0.5-0.224,0.5-0.5v-1C22,14.224,21.776,14,21.5,14z"/>
			</g>
		</g>
		<path d="M19.262,8.074L13,4.221V3.36l2.658-0.886c0.421-0.142,0.463-0.722,0.065-0.922l-3-1.5C12.391-0.113,12,0.13,12,0.5v3.721
			L5.738,8.074C5.31,8.338,5.498,9,6,9h13C19.502,9,19.69,8.338,19.262,8.074z"/>
		<rect x="8" y="10" width="9" height="3"/>
		<path d="M18.209,17H6.791l-2.262,6.332c-0.093,0.26,0.043,0.546,0.303,0.639c0.264,0.094,0.547-0.045,0.639-0.303L5.709,23h13.582
			l0.238,0.668c0.092,0.258,0.375,0.397,0.639,0.303c0.26-0.093,0.396-0.379,0.303-0.639L18.209,17z M15.26,18l-2.76,1.104L9.74,18
			H15.26z M7.439,18.156l3.715,1.486l-4.954,1.982L7.439,18.156z M7.952,22l4.548-1.82L17.048,22H7.952z M13.845,19.643l3.716-1.486
			l1.239,3.469L13.845,19.643z"/>
	</g>
</g>
<g id="invisible_shape">
	<rect fill="none" width="24" height="24"/>
</g>
</svg>
