<?xml version="1.0" encoding="utf-8"?>
<!-- Generator: Adobe Illustrator 19.2.0, SVG Export Plug-In . SVG Version: 6.00 Build 0)  -->
<svg version="1.1" xmlns="http://www.w3.org/2000/svg" xmlns:xlink="http://www.w3.org/1999/xlink" x="0px" y="0px" width="24px"
	 height="24px" viewBox="0 0 24 24" enable-background="new 0 0 24 24" xml:space="preserve">
<g id="Filled_Icons">
	<g>
		<path d="M12,16.5c3.032,0,5.5-2.467,5.5-5.5c0-2.883-4.881-9.982-5.089-10.283c-0.188-0.271-0.635-0.271-0.823,0
			C11.381,1.018,6.5,8.117,6.5,11C6.5,14.033,8.967,16.5,12,16.5z M9,10.5c0.276,0,0.5,0.224,0.5,0.5
			c0,1.011,0.822,1.834,1.833,1.834c0.276,0,0.5,0.223,0.5,0.5c0,0.275-0.224,0.5-0.5,0.5C9.771,13.834,8.5,12.561,8.5,11
			C8.5,10.724,8.724,10.5,9,10.5z"/>
		<path d="M12,20c2.748,0,5.401-0.77,7.278-2.109c0.225-0.16,0.277-0.473,0.116-0.697c-0.16-0.225-0.474-0.277-0.697-0.116
			C16.985,18.299,14.545,19,12,19c-2.561,0-5.013-0.708-6.726-1.942c-0.225-0.162-0.537-0.11-0.698,0.112
			c-0.162,0.225-0.111,0.537,0.113,0.699C6.569,19.224,9.234,20,12,20z"/>
		<path d="M23.328,18.745c-0.174-0.214-0.488-0.247-0.703-0.073C20.027,20.787,16.154,22,12,22c-4.186,0-8.076-1.229-10.675-3.367
			c-0.213-0.178-0.528-0.146-0.703,0.068c-0.176,0.211-0.146,0.527,0.067,0.703C3.464,21.69,7.586,23,12,23
			c4.38,0,8.482-1.295,11.256-3.551C23.47,19.273,23.502,18.959,23.328,18.745z"/>
	</g>
</g>
<g id="invisible_shape">
	<rect fill="none" width="24" height="24"/>
</g>
</svg>
