<?xml version="1.0" encoding="utf-8"?>
<!-- Generator: Adobe Illustrator 19.2.0, SVG Export Plug-In . SVG Version: 6.00 Build 0)  -->
<svg version="1.1" xmlns="http://www.w3.org/2000/svg" xmlns:xlink="http://www.w3.org/1999/xlink" x="0px" y="0px" width="24px"
	 height="24px" viewBox="0 0 24 24" enable-background="new 0 0 24 24" xml:space="preserve">
<g id="Filled_Icons">
	<g>
		<path d="M21.443,18.325c-0.181-0.301-0.677-0.301-0.858,0c-0.266,0.442-1.588,2.697-1.588,3.626c0,1.112,0.905,2.017,2.017,2.017
			c1.113,0,2.017-0.905,2.017-2.017C23.031,21.022,21.708,18.768,21.443,18.325z"/>
		<path d="M2.5,7h-2C0.224,7,0,7.224,0,7.5v5C0,12.776,0.224,13,0.5,13h2C2.776,13,3,12.776,3,12.5v-5C3,7.224,2.776,7,2.5,7z"/>
		<path d="M2,2h5v1h4V1.98L15.998,2h0.001c0.276,0,0.5-0.223,0.501-0.498c0.001-0.276-0.222-0.5-0.498-0.482L11,1V0.5
			C11,0.224,10.776,0,10.5,0h-3C7.224,0,7,0.224,7,0.5V1H2C1.724,1,1.5,1.224,1.5,1.5S1.724,2,2,2z"/>
		<path d="M10.5,4h-3C5.57,4,4,5.57,4,7.501V12.5C4,14.43,5.57,16,7.5,16h3c1.93,0,3.5-1.569,3.5-3.499V7.5C14,5.57,12.43,4,10.5,4z
			"/>
		<path d="M23,16.5v-2c0-4.93-3.9-7.025-8-7.423V13h1.5c0.827,0,1.5,0.673,1.5,1.5v2c0,0.276,0.224,0.5,0.5,0.5h4
			C22.776,17,23,16.776,23,16.5z"/>
	</g>
</g>
<g id="invisible_shape">
	<rect fill="none" width="24" height="24"/>
</g>
</svg>
