<?xml version="1.0" encoding="utf-8"?>
<!-- Generator: Adobe Illustrator 19.2.0, SVG Export Plug-In . SVG Version: 6.00 Build 0)  -->
<svg version="1.1" xmlns="http://www.w3.org/2000/svg" xmlns:xlink="http://www.w3.org/1999/xlink" x="0px" y="0px" width="24px"
	 height="24px" viewBox="0 0 24 24" enable-background="new 0 0 24 24" xml:space="preserve">
<g id="Filled_Icons">
	<path d="M23.5,7h-4c-0.519,0-1.011,0.198-1.399,0.571L15.287,10H8V7.117L9.67,3.74C9.886,3.364,10,2.935,10,2.5
		C10,1.121,8.878,0,7.5,0S5,1.121,5,2.5c0,0.442,0.117,0.877,0.322,1.228L7,7.117V10H5V7.5c0-0.202-0.122-0.385-0.309-0.462
		C4.505,6.962,4.289,7.004,4.147,7.147l-3,3c-0.195,0.195-0.195,0.512,0,0.707l3,3C4.242,13.949,4.37,14,4.5,14
		c0.064,0,0.129-0.013,0.191-0.038C4.878,13.885,5,13.702,5,13.5V11h2v2.383l-1.662,3.359C5.117,17.123,5,17.558,5,18
		c0,1.379,1.122,2.5,2.5,2.5S10,19.379,10,18c0-0.435-0.114-0.864-0.33-1.24L8,13.383V11h4v12.5c0,0.276,0.224,0.5,0.5,0.5
		s0.5-0.224,0.5-0.5V11h2.313l2.758,2.398C18.451,13.786,18.958,14,19.5,14h4c0.276,0,0.5-0.224,0.5-0.5v-6
		C24,7.224,23.776,7,23.5,7z"/>
</g>
<g id="invisible_shape">
	<rect fill="none" width="24" height="24"/>
</g>
</svg>
