<?xml version="1.0" encoding="utf-8"?>
<!-- Generator: Adobe Illustrator 19.2.0, SVG Export Plug-In . SVG Version: 6.00 Build 0)  -->
<svg version="1.1" xmlns="http://www.w3.org/2000/svg" xmlns:xlink="http://www.w3.org/1999/xlink" x="0px" y="0px" width="24px"
	 height="24px" viewBox="0 0 24 24" enable-background="new 0 0 24 24" xml:space="preserve">
<g id="Filled_Icons">
	<g>
		<path d="M21,12c-0.276,0-0.5-0.224-0.5-0.5S20.724,11,21,11h1.818c-0.082-0.344-0.186-0.68-0.32-1H18.5C18.224,10,18,9.776,18,9.5
			S18.224,9,18.5,9h3.469c-1.157-1.801-3.174-3-5.469-3h-5.274C13.477,7.296,15,9.721,15,12.5c0,0.877-0.159,1.717-0.438,2.5H17.5
			c0.276,0,0.5,0.224,0.5,0.5S17.776,16,17.5,16h-3.372c-0.665,1.254-1.675,2.294-2.903,3H16.5c3.584,0,6.5-2.916,6.5-6.5
			c0-0.169-0.013-0.334-0.025-0.5H21z M18.5,13H17c-0.276,0-0.5-0.224-0.5-0.5S16.724,12,17,12h1.5c0.276,0,0.5,0.224,0.5,0.5
			S18.776,13,18.5,13z"/>
		<path d="M7.5,6C3.916,6,1,8.916,1,12.5S3.916,19,7.5,19s6.5-2.916,6.5-6.5S11.084,6,7.5,6z M7.5,9.5
			c0.654,0,1.275,0.206,1.796,0.597c0.221,0.166,0.266,0.479,0.1,0.7c-0.165,0.221-0.479,0.267-0.7,0.101
			C8.35,10.638,7.936,10.5,7.5,10.5c-1.103,0-2,0.898-2,2s0.897,2,2,2C7.776,14.5,8,14.724,8,15s-0.224,0.5-0.5,0.5
			c-1.654,0-3-1.346-3-3S5.846,9.5,7.5,9.5z M8,12v1c0,0.276-0.224,0.5-0.5,0.5S7,13.276,7,13v-1c0-0.276,0.224-0.5,0.5-0.5
			S8,11.724,8,12z M7.5,18c-1.748,0-3.352-0.803-4.402-2.202c-0.165-0.221-0.121-0.534,0.1-0.7c0.223-0.165,0.536-0.12,0.7,0.101
			C4.757,16.343,6.07,17,7.5,17c2.481,0,4.5-2.019,4.5-4.5S9.981,8,7.5,8C7.224,8,7,7.776,7,7.5S7.224,7,7.5,7
			c3.033,0,5.5,2.468,5.5,5.5S10.533,18,7.5,18z"/>
	</g>
</g>
<g id="invisible_shape">
	<rect fill="none" width="24" height="24"/>
</g>
</svg>
