<?xml version="1.0" encoding="utf-8"?>
<!-- Generator: Adobe Illustrator 16.0.3, SVG Export Plug-In . SVG Version: 6.00 Build 0)  -->
<!DOCTYPE svg PUBLIC "-//W3C//DTD SVG 1.1//EN" "http://www.w3.org/Graphics/SVG/1.1/DTD/svg11.dtd">
<svg version="1.1" xmlns="http://www.w3.org/2000/svg" xmlns:xlink="http://www.w3.org/1999/xlink" x="0px" y="0px" width="24px"
	 height="24px" viewBox="0 0 24 24" enable-background="new 0 0 24 24" xml:space="preserve">
<g id="Outline_Icons">
	<g>
		<path fill="none" stroke="#000000" stroke-linejoin="round" stroke-miterlimit="10" d="M15.782,8.219
			c-2.239-2.24-5.705-2.074-7.944,0.166l-6.551,6.551c2.828,2.829,8.936-7.286,12-4.221c3.055,3.055-7.051,9.171-4.222,12
			l6.551-6.551C17.856,13.923,18.022,10.458,15.782,8.219z"/>
		
			<line fill="none" stroke="#000000" stroke-linejoin="round" stroke-miterlimit="10" x1="13.308" y1="10.693" x2="15.782" y2="8.219"/>
		<g>
			<path fill="none" stroke="#000000" stroke-linejoin="round" stroke-miterlimit="10" d="M17.34,12.708h0.104
				c1.43,0.016,3.086-0.753,4.219-1.886c1.977-1.976,2.408-5.114,1.051-7.415l-3.396,3.396c0,0-0.269,0.977-0.707,1.415
				c-0.78,0.78-2.047,0.78-2.828,0c-0.781-0.781-0.781-2.048,0-2.83c0.447-0.447,1.41-0.697,1.414-0.706l3.396-3.397
				c-2.3-1.357-5.438-0.925-7.415,1.052c-1.133,1.132-1.901,2.789-1.885,4.218v0.105"/>
		</g>
	</g>
</g>
<g id="invisible_shape">
	<rect fill="none" width="24" height="24"/>
</g>
</svg>
