<?xml version="1.0" encoding="utf-8"?>
<!-- Generator: Adobe Illustrator 16.0.3, SVG Export Plug-In . SVG Version: 6.00 Build 0)  -->
<!DOCTYPE svg PUBLIC "-//W3C//DTD SVG 1.1//EN" "http://www.w3.org/Graphics/SVG/1.1/DTD/svg11.dtd">
<svg version="1.1" xmlns="http://www.w3.org/2000/svg" xmlns:xlink="http://www.w3.org/1999/xlink" x="0px" y="0px" width="24px"
	 height="24px" viewBox="0 0 24 24" enable-background="new 0 0 24 24" xml:space="preserve">
<g id="Outline_Icons">
	<g>
		
			<rect x="5.064" y="10.312" transform="matrix(0.7072 0.707 -0.707 0.7072 14.2339 0.2517)" fill="none" stroke="#000000" stroke-linejoin="round" stroke-miterlimit="10" width="3.499" height="14.001"/>
		<path fill="none" stroke="#000000" stroke-linejoin="round" stroke-miterlimit="10" d="M15.828,13.602
			c-0.781,0.78-2.047,0.78-2.828,0l-2.828-2.83c-0.781-0.781-0.781-2.047,0-2.828l3.182-3.183c0.781-0.781,2.048-0.781,2.828,0
			l2.829,2.829c0.78,0.781,0.78,2.047,0,2.828L15.828,13.602z"/>
		<path fill="none" stroke="#000000" stroke-linejoin="round" stroke-miterlimit="10" d="M17.596,18.197l-1.768-1.768
			c-0.781-0.781-0.781-2.047,0-2.827l2.829-2.83c0.78-0.781,2.047-0.781,2.828,0l1.768,1.768L17.596,18.197z"/>
		<path fill="none" stroke="#000000" stroke-linejoin="round" stroke-miterlimit="10" d="M5.575,6.177l1.768,1.768
			c0.781,0.781,2.048,0.781,2.829,0L13,5.115c0.781-0.781,0.781-2.047,0-2.828l-1.768-1.769L5.575,6.177z"/>
		
			<rect x="16.73" y="4.646" transform="matrix(0.7072 0.707 -0.707 0.7072 9.403 -11.4129)" fill="none" stroke="#000000" stroke-linejoin="round" stroke-miterlimit="10" width="3.501" height="2"/>
	</g>
</g>
<g id="invisible_shape">
	<rect fill="none" width="24" height="24"/>
</g>
</svg>
