<?xml version="1.0" encoding="utf-8"?>
<!-- Generator: Adobe Illustrator 16.0.3, SVG Export Plug-In . SVG Version: 6.00 Build 0)  -->
<!DOCTYPE svg PUBLIC "-//W3C//DTD SVG 1.1//EN" "http://www.w3.org/Graphics/SVG/1.1/DTD/svg11.dtd">
<svg version="1.1" xmlns="http://www.w3.org/2000/svg" xmlns:xlink="http://www.w3.org/1999/xlink" x="0px" y="0px" width="24px"
	 height="24px" viewBox="0 0 24 24" enable-background="new 0 0 24 24" xml:space="preserve">
<g id="Outline_Icons">
	<g>
		<path fill="none" stroke="#000000" stroke-linecap="round" stroke-linejoin="round" stroke-miterlimit="10" d="M23.5,8.5
			c0-1.65-1.35-3-3-3h-17c-1.65,0-3,1.35-3,3v10c0,1.65,1.35,3,3,3h17c1.65,0,3-1.35,3-3V8.5z"/>
		<path fill="none" stroke="#000000" stroke-linecap="round" stroke-linejoin="round" stroke-miterlimit="10" d="M8.5,5.5v-2
			c0-1.101,0.9-2,2-2h3c1.1,0,2,0.899,2,2v2"/>
		<path fill="none" stroke="#000000" stroke-linejoin="round" stroke-miterlimit="10" d="M16.297,13.531L17.5,12.5h2.316
			c-0.413-1.163-1.512-2-2.816-2s-2.403,0.837-2.816,2H9.816c-0.413-1.163-1.512-2-2.816-2s-2.403,1-2.816,2H6.5l1.203,1.031
			L6.5,14.5H4.184c0.413,1,1.512,2,2.816,2s2.403-0.837,2.816-2h4.367c0.413,1.163,1.512,2,2.816,2s2.403-0.837,2.816-2H17.5
			L16.297,13.531z"/>
	</g>
</g>
<g id="invisible_shape">
	<rect fill="none" width="24" height="24"/>
</g>
</svg>
