<?xml version="1.0" encoding="utf-8"?>
<!-- Generator: Adobe Illustrator 16.0.3, SVG Export Plug-In . SVG Version: 6.00 Build 0)  -->
<!DOCTYPE svg PUBLIC "-//W3C//DTD SVG 1.1//EN" "http://www.w3.org/Graphics/SVG/1.1/DTD/svg11.dtd">
<svg version="1.1" xmlns="http://www.w3.org/2000/svg" xmlns:xlink="http://www.w3.org/1999/xlink" x="0px" y="0px" width="24px"
	 height="24px" viewBox="0 0 24 24" enable-background="new 0 0 24 24" xml:space="preserve">
<g id="Outline_Icons">
	<g>
		<path fill="none" stroke="#000000" stroke-linejoin="round" stroke-miterlimit="10" d="M6.5,22.5c0,0.553-0.447,1-1,1
			s-1-0.447-1-1v-9h2V22.5z"/>
		<path fill="none" stroke="#000000" stroke-linejoin="round" stroke-miterlimit="10" d="M16.5,13h2V1.5c0-0.552-0.447-1-1-1
			s-1,0.448-1,1V13z"/>
		<path fill="none" stroke="#000000" stroke-linejoin="round" stroke-miterlimit="10" d="M6.5,15.5h4V13c0-4.734-1.497-9.314-5-12.5
			c-3.503,3.186-5,7.699-5,12.433V15.5h4"/>
		<path fill="none" stroke="#000000" stroke-linejoin="round" stroke-miterlimit="10" d="M16.5,11L16,11c-1.933,0-3.5,1.567-3.5,3.5
			v8c0,0.553,0.447,1,1,1s1-0.447,1-1v-7h2v7c0,0.553,0.447,1,1,1s1-0.447,1-1v-7h2v7c0,0.553,0.447,1,1,1s1-0.447,1-1v-8
			c0-1.933-1.567-3.5-3.5-3.5l-0.5,0"/>
	</g>
</g>
<g id="invisible_shape">
	<rect fill="none" width="24" height="24"/>
</g>
</svg>
