<?xml version="1.0" encoding="utf-8"?>
<!-- Generator: Adobe Illustrator 16.0.3, SVG Export Plug-In . SVG Version: 6.00 Build 0)  -->
<!DOCTYPE svg PUBLIC "-//W3C//DTD SVG 1.1//EN" "http://www.w3.org/Graphics/SVG/1.1/DTD/svg11.dtd">
<svg version="1.1" xmlns="http://www.w3.org/2000/svg" xmlns:xlink="http://www.w3.org/1999/xlink" x="0px" y="0px" width="24px"
	 height="24px" viewBox="0 0 24 24" enable-background="new 0 0 24 24" xml:space="preserve">
<g id="Outline_Icons">
	<g>
		<path fill="none" stroke="#000000" stroke-linecap="round" stroke-linejoin="round" stroke-miterlimit="10" d="M11.295,6.392
			c-0.587,0.586-1.535,0.586-2.121,0L6.345,3.564C6.063,3.283,5.905,2.903,5.905,2.502c0-0.396,0.158-0.779,0.439-1.06
			c0.586-0.584,1.535-0.584,2.12,0l2.83,2.83c0.28,0.281,0.438,0.664,0.438,1.06C11.733,5.729,11.575,6.111,11.295,6.392z"/>
		<polyline fill="none" stroke="#000000" stroke-linecap="round" stroke-linejoin="round" stroke-miterlimit="10" points="
			11.294,6.392 13.415,8.513 8.465,13.462 12,17 		"/>
		<path fill="none" stroke="#000000" stroke-linecap="round" stroke-linejoin="round" stroke-miterlimit="10" d="M9.5,20
			c-1.115-0.296-1.316-1.684-0.5-2.5l3.5-3.5c0.825-0.825,2.217-0.624,2.5,0.5l3.5,9L9.5,20z"/>
	</g>
</g>
<g id="invisible_shape">
	<rect fill="none" width="24" height="24"/>
</g>
</svg>
