<?xml version="1.0" encoding="utf-8"?>
<!-- Generator: Adobe Illustrator 16.0.3, SVG Export Plug-In . SVG Version: 6.00 Build 0)  -->
<!DOCTYPE svg PUBLIC "-//W3C//DTD SVG 1.1//EN" "http://www.w3.org/Graphics/SVG/1.1/DTD/svg11.dtd">
<svg version="1.1" xmlns="http://www.w3.org/2000/svg" xmlns:xlink="http://www.w3.org/1999/xlink" x="0px" y="0px" width="24px"
	 height="24px" viewBox="0 0 24 24" enable-background="new 0 0 24 24" xml:space="preserve">
<g id="Outline_Icons">
	<g>
		
			<rect x="6.903" y="6.597" transform="matrix(0.7071 0.7071 -0.7071 0.7071 13.5932 -1.1235)" fill="none" stroke="#000000" stroke-linejoin="round" stroke-miterlimit="10" width="2.5" height="18.5"/>
		<path fill="none" stroke="#000000" stroke-linejoin="round" stroke-miterlimit="10" d="M23.5,16.879
			c-0.148-4.145-1.805-8.247-4.969-11.41C15.367,2.304,11.266,0.648,7.121,0.5c-0.548-0.02-0.736,0.71-0.242,0.947
			c2.673,1.276,5.206,2.934,7.528,4.964l-1.305,1.304l3.182,3.183l1.305-1.305c2.03,2.322,3.688,4.855,4.964,7.528
			C22.789,17.615,23.519,17.427,23.5,16.879z"/>
		<polyline fill="none" stroke="#000000" stroke-linejoin="round" stroke-miterlimit="10" points="19.467,6.301 20.881,4.887 
			19.113,3.119 17.699,4.533 		"/>
	</g>
</g>
<g id="invisible_shape">
	<rect fill="none" width="24" height="24"/>
</g>
</svg>
