<?xml version="1.0" encoding="utf-8"?>
<!-- Generator: Adobe Illustrator 19.2.0, SVG Export Plug-In . SVG Version: 6.00 Build 0)  -->
<svg version="1.1" xmlns="http://www.w3.org/2000/svg" xmlns:xlink="http://www.w3.org/1999/xlink" x="0px" y="0px" width="24px"
	 height="24px" viewBox="0 0 24 24" enable-background="new 0 0 24 24" xml:space="preserve">
<g id="Filled_icons">
	<g>
		<path d="M15,17.006H9c-0.552,0-1,0.449-1,1V19h8v-0.994C16,17.456,15.551,17.006,15,17.006z"/>
		<path d="M18.5,11H17V9.994h1.5c0.827,0,1.5-0.673,1.5-1.5V3.506c0-1.929-1.57-3.5-3.5-3.5h-9c-1.93,0-3.5,1.571-3.5,3.5v4.987
			c0,0.827,0.673,1.5,1.5,1.5H7V11H5.5C5.224,11,5,11.223,5,11.5v8.006v4c0,0.275,0.224,0.5,0.5,0.494H7v-5.994
			c0-1.104,0.897-2,2-2.006h6c1.103,0.006,2,0.902,2,2.006V24h1.5c0.276,0.006,0.5-0.218,0.5-0.494v-4V11.5
			C19,11.223,18.776,11,18.5,11z M9,12.006H8V8h1V12.006z M14,11h-4V9.994h4V11z M16,12.006h-1V8h1V12.006z"/>
		<rect x="8" y="20" width="8" height="4"/>
		<path d="M3.5,16H2c-1.104,0-2,0.896-2,2v1h4v-2.5C4,16.223,3.776,16,3.5,16z"/>
		<path d="M0,22.506c0,0.827,0.672,1.5,1.5,1.494h2C3.776,24.006,4,23.782,4,23.506v-3.5H0V22.506z"/>
		<path d="M20,23.506c0,0.275,0.224,0.5,0.5,0.494h2c0.827,0.006,1.5-0.667,1.5-1.494v-2.5h-4V23.506z"/>
		<path d="M22,16h-1.5c-0.276,0-0.5,0.223-0.5,0.5V19h4v-1C24,16.896,23.103,16,22,16z"/>
	</g>
</g>
<g id="invisible_shape">
	<rect fill="none" width="24" height="24"/>
</g>
</svg>
