<?xml version="1.0" encoding="utf-8"?>
<!-- Generator: Adobe Illustrator 19.2.0, SVG Export Plug-In . SVG Version: 6.00 Build 0)  -->
<svg version="1.1" xmlns="http://www.w3.org/2000/svg" xmlns:xlink="http://www.w3.org/1999/xlink" x="0px" y="0px" width="24px"
	 height="24px" viewBox="0 0 24 24" enable-background="new 0 0 24 24" xml:space="preserve">
<g id="Filled_icons">
	<g>
		<path d="M16.5,3H15V0.5C15,0.224,14.776,0,14.5,0h-4C10.224,0,10,0.224,10,0.5V3H8.5C7.121,3,6,4.122,6,5.5v16
			C6,22.878,7.121,24,8.5,24h8c1.379,0,2.5-1.122,2.5-2.5v-16C19,4.122,17.879,3,16.5,3z M11,1h3v2h-3V1z M7,5.5
			C7,4.673,7.673,4,8.5,4h8C17.327,4,18,4.673,18,5.5V9H7V5.5z M14,21h-3c-0.276,0-0.5-0.224-0.5-0.5S10.724,20,11,20h3
			c0.276,0,0.5,0.224,0.5,0.5S14.276,21,14,21z"/>
		<path d="M14,6h-1V5c0-0.276-0.224-0.5-0.5-0.5S12,4.724,12,5v1h-1c-0.276,0-0.5,0.224-0.5,0.5S10.724,7,11,7h1v1
			c0,0.276,0.224,0.5,0.5,0.5S13,8.276,13,8V7h1c0.276,0,0.5-0.224,0.5-0.5S14.276,6,14,6z"/>
	</g>
</g>
<g id="invisible_shape">
	<rect fill="none" width="24" height="24"/>
</g>
</svg>
