<?xml version="1.0" encoding="utf-8"?>
<!-- Generator: Adobe Illustrator 19.2.0, SVG Export Plug-In . SVG Version: 6.00 Build 0)  -->
<svg version="1.1" xmlns="http://www.w3.org/2000/svg" xmlns:xlink="http://www.w3.org/1999/xlink" x="0px" y="0px" width="24px"
	 height="24px" viewBox="0 0 24 24" enable-background="new 0 0 24 24" xml:space="preserve">
<g id="Filled_icons">
	<g>
		<path d="M6.5,16h-6C0.224,16,0,16.223,0,16.5v4C0,20.775,0.224,21,0.5,21h6C6.776,21,7,20.775,7,20.5v-4C7,16.223,6.776,16,6.5,16
			z"/>
		<path d="M15.5,16h-7C8.224,16,8,16.223,8,16.5v4C8,20.775,8.224,21,8.5,21h7c0.276,0,0.5-0.225,0.5-0.5v-4
			C16,16.223,15.776,16,15.5,16z"/>
		<path d="M7.5,9h9C16.776,9,17,8.775,17,8.5v-4C17,4.223,16.776,4,16.5,4h-9C7.224,4,7,4.223,7,4.5v4C7,8.775,7.224,9,7.5,9z"/>
		<path d="M2.5,15h8c0.276,0,0.5-0.225,0.5-0.5v-4c0-0.277-0.224-0.5-0.5-0.5h-8C2.224,10,2,10.223,2,10.5v4
			C2,14.775,2.224,15,2.5,15z"/>
		<path d="M23.5,16h-6c-0.276,0-0.5,0.223-0.5,0.5v4c0,0.275,0.224,0.5,0.5,0.5h6c0.276,0,0.5-0.225,0.5-0.5v-4
			C24,16.223,23.776,16,23.5,16z"/>
		<path d="M13,10.5v4c0,0.275,0.224,0.5,0.5,0.5h8c0.276,0,0.5-0.225,0.5-0.5v-4c0-0.277-0.224-0.5-0.5-0.5h-8
			C13.224,10,13,10.223,13,10.5z"/>
	</g>
</g>
<g id="invisible_shape">
	<rect fill="none" width="24" height="24"/>
</g>
</svg>
