<?xml version="1.0" encoding="utf-8"?>
<!-- Generator: Adobe Illustrator 19.2.0, SVG Export Plug-In . SVG Version: 6.00 Build 0)  -->
<svg version="1.1" xmlns="http://www.w3.org/2000/svg" xmlns:xlink="http://www.w3.org/1999/xlink" x="0px" y="0px" width="24px"
	 height="24px" viewBox="0 0 24 24" enable-background="new 0 0 24 24" xml:space="preserve">
<g id="Filled_icons">
	<path d="M12,0.006c-6.262,0-10,1.496-10,4v16c0,2.504,3.738,4,10,4s10-1.496,10-4v-16C22,1.502,18.262,0.006,12,0.006z M17,18.524
		c0,0.24-0.17,0.447-0.405,0.492c-1.735,0.333-3.196,0.49-4.597,0.49h-0.001c-1.419,0-2.836-0.15-4.592-0.49
		C7.17,18.971,7,18.764,7,18.524v-5.518c0-0.148,0.066-0.291,0.182-0.387c0.115-0.093,0.269-0.133,0.413-0.104
		c3.384,0.653,5.424,0.653,8.811,0c0.147-0.029,0.298,0.011,0.413,0.106C16.934,12.715,17,12.858,17,13.006V18.524z M12,7.006
		c-6.218,0-9-1.508-9-3c0-1.494,2.782-3,9-3c6.217,0,9,1.506,9,3C21,5.498,18.217,7.006,12,7.006z"/>
</g>
<g id="invisible_shape">
	<rect fill="none" width="24" height="24"/>
</g>
</svg>
