<?xml version="1.0" encoding="utf-8"?>
<!-- Generator: Adobe Illustrator 19.2.0, SVG Export Plug-In . SVG Version: 6.00 Build 0)  -->
<svg version="1.1" xmlns="http://www.w3.org/2000/svg" xmlns:xlink="http://www.w3.org/1999/xlink" x="0px" y="0px" width="24px"
	 height="24px" viewBox="0 0 24 24" enable-background="new 0 0 24 24" xml:space="preserve">
<g id="Filled_icons">
	<g>
		<path d="M18,6.832V2c0-0.395-0.436-0.631-0.765-0.424l-3.965,2.476C16.387,4.298,17.521,5.483,18,6.832z"/>
		<path d="M18.162,11.352c-0.552-0.764-0.649-1.538-0.768-2.489C17.146,6.876,16.912,5,12.028,5C7.144,5,6.909,6.877,6.661,8.863
			c-0.11,0.875-0.226,1.796-0.769,2.489c1.787,0.635,3.914,0.998,6.136,0.998C14.241,12.35,16.369,11.987,18.162,11.352z M15.527,11
			h-1c-0.276,0-0.5-0.224-0.5-0.5s0.224-0.5,0.5-0.5h1c0.276,0,0.5,0.224,0.5,0.5S15.804,11,15.527,11z M16.527,9
			c0,0.276-0.224,0.5-0.5,0.5h-1c-0.276,0-0.5-0.224-0.5-0.5s0.224-0.5,0.5-0.5h1C16.304,8.5,16.527,8.724,16.527,9z M13.376,7.227
			c0.336-0.567,0.893-0.986,1.528-1.149c0.263-0.07,0.541,0.093,0.608,0.36c0.068,0.267-0.093,0.539-0.36,0.608
			c-0.38,0.098-0.715,0.349-0.917,0.69c-0.139,0.236-0.444,0.316-0.685,0.176C13.314,7.772,13.234,7.465,13.376,7.227z M7.527,9
			c0-0.276,0.224-0.5,0.5-0.5h1c0.276,0,0.5,0.224,0.5,0.5s-0.224,0.5-0.5,0.5h-1C7.751,9.5,7.527,9.276,7.527,9z M9.527,11h-1
			c-0.276,0-0.5-0.224-0.5-0.5s0.224-0.5,0.5-0.5h1c0.276,0,0.5,0.224,0.5,0.5S9.804,11,9.527,11z M10.505,7.913
			c-0.24,0.141-0.546,0.06-0.685-0.176c-0.202-0.341-0.537-0.592-0.917-0.69c-0.268-0.069-0.429-0.341-0.36-0.609
			c0.069-0.267,0.346-0.43,0.608-0.36c0.636,0.164,1.192,0.582,1.528,1.149C10.821,7.465,10.742,7.772,10.505,7.913z M11.527,9
			c0-0.276,0.225-0.5,0.5-0.5c0.276,0,0.5,0.224,0.5,0.5c0,0.276-0.224,0.5-0.5,0.5C11.752,9.5,11.527,9.276,11.527,9z"/>
		<path d="M13.074,13.303c0.57,0.352,0.953,0.978,0.953,1.697c0,1.104-0.896,2-2,2c-1.104,0-2-0.896-2-2
			c0-0.72,0.384-1.345,0.954-1.697c-2.038-0.096-3.975-0.47-5.626-1.079C4.114,14.591,3.273,18.815,5.37,21.5
			c1.239,1.588,3.107,2.5,5.123,2.5h3.069c2.015,0,3.883-0.911,5.124-2.5c2.096-2.685,1.254-6.91,0.013-9.277
			C17.042,12.833,15.106,13.206,13.074,13.303z"/>
		<path d="M10.763,4.054L6.792,1.576C6.457,1.369,6.027,1.61,6.027,2v4.916C6.489,5.536,7.602,4.309,10.763,4.054z"/>
		<path d="M22.027,6h-1.5c-1.102,0-2,0.897-2,2c0,0.517,0.202,0.984,0.525,1.34l-0.365,0.899c0.065,0.169,0.14,0.327,0.24,0.461
			c0.781,1.042,1.63,2.979,1.929,5.112c1.278-0.445,2.171-1.656,2.171-3.041v-3.05c0.595-0.347,1-0.985,1-1.722
			C24.027,6.897,23.13,6,22.027,6z"/>
		<path d="M5.368,10.239L5.002,9.34C5.325,8.984,5.527,8.517,5.527,8c0-1.103-0.897-2-2-2h-1.5c-1.102,0-2,0.897-2,2
			c0,0.737,0.405,1.375,1,1.722v3.05c0,1.385,0.892,2.596,2.171,3.041c0.299-2.133,1.147-4.069,1.929-5.112
			C5.227,10.566,5.304,10.408,5.368,10.239z"/>
	</g>
</g>
<g id="invisible_shape">
	<rect fill="none" width="24" height="24"/>
</g>
</svg>
