<?xml version="1.0" encoding="utf-8"?>
<!-- Generator: Adobe Illustrator 19.2.0, SVG Export Plug-In . SVG Version: 6.00 Build 0)  -->
<svg version="1.1" xmlns="http://www.w3.org/2000/svg" xmlns:xlink="http://www.w3.org/1999/xlink" x="0px" y="0px" width="24px"
	 height="24px" viewBox="0 0 24 24" enable-background="new 0 0 24 24" xml:space="preserve">
<g id="Filled_icons">
	<g>
		<path d="M16.997,3.445c-0.011-0.098-0.05-0.189-0.113-0.266l-2.5-3C14.29,0.067,14.152,0.002,14.006,0
			c-0.139-0.024-0.286,0.06-0.382,0.17l-3.5,4c-0.074,0.085-0.117,0.191-0.123,0.303L9.826,7.832
			c0.047,0.093,0.097,0.182,0.123,0.281l2.313,8.672l3.824-10.787c0.108-0.305,0.313-0.567,0.582-0.747l0.491-0.327L16.997,3.445z
			 M14.961,5.87c-0.013,0.002-0.025,0.002-0.038,0.002c-0.259,0-0.479-0.2-0.498-0.463l-0.144-2.335l-0.649-0.779
			c-0.177-0.212-0.148-0.528,0.064-0.704c0.211-0.176,0.526-0.15,0.704,0.064l0.752,0.904c0.067,0.08,0.107,0.178,0.115,0.282
			l0.156,2.495C15.443,5.61,15.236,5.85,14.961,5.87z"/>
		<path d="M23.171,15.123l-0.42,0.366l-2.828,8.485c-0.003,0.01-0.01,0.018-0.014,0.026H22.5c0.252,0,0.465-0.188,0.496-0.438l1-8
			c0.025-0.206-0.078-0.406-0.262-0.503C23.552,14.96,23.328,14.987,23.171,15.123z"/>
		<path d="M22.479,3.356c-0.045-0.151-0.16-0.273-0.31-0.326c-0.149-0.054-0.315-0.034-0.446,0.054l-4.5,3
			c-0.09,0.06-0.158,0.147-0.194,0.249l-4.311,12.16l1.232,4.62c0.079,0.298,0.056,0.604-0.045,0.887H18.5
			c0.215,0,0.406-0.137,0.475-0.341l5-15c0.032-0.099,0.034-0.203,0.004-0.303L22.479,3.356z M21.897,8.426l-1.896,5.69
			c-0.07,0.209-0.266,0.342-0.475,0.342c-0.053,0-0.105-0.008-0.158-0.026c-0.262-0.087-0.403-0.37-0.316-0.632l1.847-5.54
			l-0.523-1.746c-0.08-0.264,0.07-0.543,0.335-0.622c0.263-0.078,0.543,0.07,0.622,0.335l0.569,1.896
			C21.932,8.223,21.93,8.328,21.897,8.426z"/>
		<path d="M5.058,23.912l-1.972-6.901l-2.191-2.818c-0.144-0.184-0.397-0.244-0.607-0.145c-0.212,0.1-0.326,0.333-0.275,0.561l2,9
			C2.063,23.838,2.266,24,2.5,24h2.6C5.088,23.969,5.066,23.944,5.058,23.912z"/>
		<path d="M12.983,23.372l-4-15c-0.026-0.097-0.081-0.186-0.158-0.25l-3.5-3c-0.11-0.095-0.263-0.135-0.4-0.115
			C4.78,5.029,4.653,5.111,4.576,5.234l-2.5,4C2.001,9.355,1.98,9.502,2.02,9.637l4,14C6.081,23.852,6.276,24,6.5,24h6
			c0.155,0,0.302-0.073,0.396-0.196C12.991,23.681,13.023,23.522,12.983,23.372z M7.629,13.752
			c-0.043,0.012-0.087,0.017-0.129,0.017c-0.222,0-0.424-0.148-0.483-0.372L5.994,9.564L5.183,8.869
			c-0.21-0.18-0.234-0.497-0.055-0.705c0.18-0.21,0.498-0.232,0.705-0.055l0.93,0.796C6.84,8.971,6.894,9.059,6.921,9.156
			l1.063,3.985C8.055,13.407,7.896,13.681,7.629,13.752z"/>
	</g>
</g>
<g id="invisible_shape">
	<rect fill="none" width="24" height="24"/>
</g>
</svg>
