<?xml version="1.0" encoding="utf-8"?>
<!-- Generator: Adobe Illustrator 19.2.0, SVG Export Plug-In . SVG Version: 6.00 Build 0)  -->
<svg version="1.1" xmlns="http://www.w3.org/2000/svg" xmlns:xlink="http://www.w3.org/1999/xlink" x="0px" y="0px" width="24px"
	 height="24px" viewBox="0 0 24 24" enable-background="new 0 0 24 24" xml:space="preserve">
<g id="Filled_icons">
	<g>
		<g>
			<polygon points="11,5.867 11,1.3 7.367,4.971 			"/>
			<polygon points="12,5.867 15.633,4.972 12,1.3 			"/>
			<polygon points="12,17.703 16,15.727 16,5.911 12,6.898 			"/>
			<polygon points="11,18.816 7.17,16.913 11,22.699 			"/>
			<polygon points="11,17.699 11,6.898 7,5.911 7,15.712 			"/>
			<polygon points="12,18.817 12,22.699 15.816,16.933 			"/>
		</g>
		<g>
			<path d="M17,5.382c-0.128,0-0.256-0.049-0.354-0.146c-0.195-0.195-0.195-0.512,0-0.707l1.875-1.876
				c0.195-0.195,0.512-0.195,0.707,0c0.195,0.195,0.195,0.512,0,0.708l-1.875,1.876C17.256,5.333,17.128,5.382,17,5.382z"/>
		</g>
		<g>
			<path d="M18.875,20.506c-0.128,0-0.256-0.049-0.354-0.146l-1.875-1.875c-0.195-0.195-0.195-0.511,0-0.708
				c0.195-0.195,0.512-0.195,0.707,0l1.875,1.875c0.195,0.195,0.195,0.512,0,0.708C19.131,20.458,19.003,20.506,18.875,20.506z"/>
		</g>
		<g>
			<path d="M22.5,12h-3c-0.276,0-0.5-0.224-0.5-0.5c0-0.277,0.224-0.5,0.5-0.5h3c0.276,0,0.5,0.223,0.5,0.5
				C23,11.776,22.776,12,22.5,12z"/>
		</g>
		<g>
			<path d="M6,5.382c-0.128,0-0.256-0.049-0.353-0.146L3.772,3.36c-0.195-0.196-0.195-0.512,0-0.708
				c0.195-0.195,0.512-0.195,0.707,0l1.875,1.876c0.195,0.195,0.195,0.513,0,0.707C6.256,5.333,6.128,5.382,6,5.382z"/>
		</g>
		<g>
			<path d="M4.125,20.506c-0.128,0-0.256-0.049-0.353-0.146c-0.195-0.196-0.195-0.512,0-0.708l1.875-1.875
				c0.195-0.195,0.512-0.195,0.707,0c0.195,0.197,0.195,0.512,0,0.708L4.478,20.36C4.381,20.458,4.253,20.506,4.125,20.506z"/>
		</g>
		<g>
			<path d="M3.5,12h-3C0.224,12,0,11.776,0,11.5C0,11.223,0.224,11,0.5,11h3C3.776,11,4,11.223,4,11.5C4,11.776,3.776,12,3.5,12z"/>
		</g>
	</g>
</g>
<g id="invisible_shape">
	<rect fill="none" width="24" height="24"/>
</g>
</svg>
