<?xml version="1.0" encoding="utf-8"?>
<!-- Generator: Adobe Illustrator 19.2.0, SVG Export Plug-In . SVG Version: 6.00 Build 0)  -->
<svg version="1.1" xmlns="http://www.w3.org/2000/svg" xmlns:xlink="http://www.w3.org/1999/xlink" x="0px" y="0px" width="24px"
	 height="24px" viewBox="0 0 24 24" enable-background="new 0 0 24 24" xml:space="preserve">
<g id="Filled_icons">
	<g>
		<path d="M15.258,6.619l-0.837,1.171C14.327,7.922,14.176,8,14.015,8H9.985C9.823,8,9.672,7.922,9.578,7.791L8.742,6.619
			C5.387,7.927,3,11.188,3,15c0,4.962,4.037,9,9,9c4.962,0,9-4.038,9-9C21,11.188,18.612,7.927,15.258,6.619z M12,21
			c-3.309,0-6-2.691-6-6c0-3.309,2.691-6,6-6s6,2.691,6,6C18,18.309,15.309,21,12,21z"/>
		<polygon points="7.742,3 9.741,6.298 9.741,6.298 10.242,7 13.757,7 14.258,6.298 14.258,6.298 16.257,3 		"/>
		<path d="M14.929,0.243C14.838,0.092,14.676,0,14.5,0h-5C9.324,0,9.161,0.092,9.071,0.243L7.717,1.992h8.565L14.929,0.243z"/>
	</g>
</g>
<g id="invisible_shape">
	<rect fill="none" width="24" height="24"/>
</g>
</svg>
