<?xml version="1.0" encoding="utf-8"?>
<!-- Generator: Adobe Illustrator 19.2.0, SVG Export Plug-In . SVG Version: 6.00 Build 0)  -->
<svg version="1.1" xmlns="http://www.w3.org/2000/svg" xmlns:xlink="http://www.w3.org/1999/xlink" x="0px" y="0px" width="24px"
	 height="24px" viewBox="0 0 24 24" enable-background="new 0 0 24 24" xml:space="preserve">
<g id="Filled_icons">
	<g>
		<path d="M19.5,11.006H12v-7.5c0-1.103,0.898-2,2-2s2,0.897,2,2v2h1v-2c0-1.654-1.346-3-3-3s-3,1.346-3,3v7.5H4.5
			c-0.276,0-0.5,0.223-0.5,0.5v1c0,1.958,1.054,3.783,2.75,4.763C8.138,18.073,9,19.566,9,21.167v2.339c0,0.276,0.224,0.5,0.5,0.494
			h5c0.276,0.006,0.5-0.217,0.5-0.494v-2.339c0-1.601,0.862-3.095,2.25-3.898c1.696-0.98,2.75-2.805,2.75-4.763v-1
			C20,11.229,19.776,11.006,19.5,11.006z"/>
		<path d="M16.109,6.694c-0.318,0.398-1.324,1.768-0.89,2.672c0.141,0.292,0.478,0.641,1.28,0.641s1.14-0.349,1.28-0.641
			c0.434-0.904-0.571-2.273-0.89-2.672C16.701,6.457,16.299,6.457,16.109,6.694z"/>
	</g>
</g>
<g id="invisible_shape">
	<rect fill="none" width="24" height="24"/>
</g>
</svg>
