<?xml version="1.0" encoding="utf-8"?>
<!-- Generator: Adobe Illustrator 19.2.0, SVG Export Plug-In . SVG Version: 6.00 Build 0)  -->
<svg version="1.1" xmlns="http://www.w3.org/2000/svg" xmlns:xlink="http://www.w3.org/1999/xlink" x="0px" y="0px" width="24px"
	 height="24px" viewBox="0 0 24 24" enable-background="new 0 0 24 24" xml:space="preserve">
<g id="Filled_icons">
	<g>
		<path d="M20.5,0H7.326l9.488,2.033C17.506,2.181,18,2.792,18,3.5V21h2.5c0.276,0,0.5-0.224,0.5-0.5v-20C21,0.223,20.776,0,20.5,0z
			"/>
		<path d="M16.604,3.017l-14-3C2.461-0.016,2.303,0.023,2.185,0.118C2.068,0.212,2,0.356,2,0.506v20c0,0.237,0.165,0.44,0.395,0.489
			l14,3c0.034,0.009,0.069,0.011,0.104,0.011c0.113,0,0.225-0.038,0.315-0.111C16.932,23.8,17,23.657,17,23.506v-20
			C17,3.27,16.835,3.066,16.604,3.017z M10,19.506c0,0.276-0.224,0.5-0.5,0.5S9,19.783,9,19.506v-5.5c0-0.277,0.224-0.5,0.5-0.5
			s0.5,0.223,0.5,0.5V19.506z M14.399,16.807c-0.096,0.126-0.243,0.199-0.399,0.199c-0.019,0-0.037-0.001-0.056-0.002L11,16.677
			v-2.67c0-0.829-0.672-1.5-1.5-1.5S8,13.178,8,14.006v2.336l-3.056-0.338c-0.158-0.018-0.3-0.11-0.379-0.25
			c-0.079-0.139-0.087-0.308-0.022-0.453l4.5-10c0.083-0.182,0.304-0.296,0.465-0.294C9.708,5.01,9.887,5.132,9.963,5.317l4.5,11
			C14.529,16.48,14.505,16.667,14.399,16.807z"/>
	</g>
</g>
<g id="invisible_shape">
	<rect fill="none" width="24" height="24"/>
</g>
</svg>
