<?xml version="1.0" encoding="utf-8"?>
<!-- Generator: Adobe Illustrator 19.2.0, SVG Export Plug-In . SVG Version: 6.00 Build 0)  -->
<svg version="1.1" xmlns="http://www.w3.org/2000/svg" xmlns:xlink="http://www.w3.org/1999/xlink" x="0px" y="0px" width="24px"
	 height="24px" viewBox="0 0 24 24" enable-background="new 0 0 24 24" xml:space="preserve">
<g id="Filled_icons">
	<g>
		<path d="M14.84,19.64l-2.605-2.419l2.32-2.154c0,0-0.688-0.466-0.871-0.556L11.5,16.538l-2.164-2.009
			c-0.195,0.093-0.914,0.515-0.914,0.515l2.344,2.177L8.16,19.64C8.058,19.734,8,19.867,8,20.006c0,1.382,1.763,2,3.51,2
			c1.737,0,3.49-0.618,3.49-2C15,19.867,14.942,19.734,14.84,19.64z"/>
		<g>
			<path d="M8.209,13.989c0.44-0.253,0.846-0.436,1.243-0.587L4.886,3.471C3.207,4.238,1.615,5.29,0.16,6.64
				C0.058,6.734,0,6.867,0,7.006c0,0.139,0.058,0.272,0.16,0.366l7.509,6.972L8.209,13.989z"/>
			<path d="M12,2.031v11.012c0.192,0.016,0.383,0.037,0.57,0.07L17.195,3.08C15.531,2.438,13.789,2.088,12,2.031z"/>
			<path d="M10.423,13.12c0.19-0.037,0.384-0.063,0.577-0.079V2.031C9.21,2.086,7.467,2.438,5.805,3.077L10.423,13.12z"/>
			<path d="M22.84,6.639c-1.457-1.349-3.048-2.396-4.725-3.164l-4.566,9.907c0.435,0.16,0.856,0.354,1.248,0.611l0.499,0.383
				l7.544-7.003C22.942,7.278,23,7.146,23,7.006C23,6.867,22.941,6.734,22.84,6.639z"/>
		</g>
	</g>
</g>
<g id="invisible_shape">
	<rect fill="none" width="24" height="24"/>
</g>
</svg>
