<?xml version="1.0" encoding="utf-8"?>
<!-- Generator: Adobe Illustrator 19.2.0, SVG Export Plug-In . SVG Version: 6.00 Build 0)  -->
<svg version="1.1" xmlns="http://www.w3.org/2000/svg" xmlns:xlink="http://www.w3.org/1999/xlink" x="0px" y="0px" width="24px"
	 height="24px" viewBox="0 0 24 24" enable-background="new 0 0 24 24" xml:space="preserve">
<g id="Filled_icons">
	<path d="M22.75,1.604c-0.248-0.486-0.67-0.846-1.188-1.015c-1.057-0.343-2.234,0.265-2.569,1.296l-0.39,1.096L10.985,2.09
		c0.003-0.864-0.536-1.672-1.401-1.954c-1.05-0.343-2.232,0.267-2.568,1.298L0.101,20.852c-0.169,0.519-0.125,1.072,0.122,1.559
		c0.248,0.485,0.67,0.846,1.189,1.014c0.205,0.066,0.417,0.1,0.632,0.1c0.887,0,1.667-0.566,1.936-1.397l0.743-2.086l7.509,0.832
		l-0.153,0.431c-0.347,1.069,0.241,2.224,1.311,2.573c0.204,0.066,0.417,0.1,0.631,0.1c0.887,0,1.667-0.567,1.936-1.398
		l6.915-19.417C23.041,2.643,22.997,2.09,22.75,1.604z M15.757,10.975l-7.491-0.882l0.721-2.024l7.507,0.835L15.757,10.975z
		 M7.577,12.026l7.491,0.88l-0.739,2.077l-7.491-0.882L7.577,12.026z M17.183,6.969L9.676,6.134l0.746-2.097l7.493,0.876
		L17.183,6.969z M5.412,18.104l0.737-2.069l7.491,0.88l-0.721,2.023L5.412,18.104z"/>
</g>
<g id="invisible_shape">
	<rect fill="none" width="24" height="24"/>
</g>
</svg>
