<?xml version="1.0" encoding="utf-8"?>
<!-- Generator: Adobe Illustrator 19.2.0, SVG Export Plug-In . SVG Version: 6.00 Build 0)  -->
<svg version="1.1" xmlns="http://www.w3.org/2000/svg" xmlns:xlink="http://www.w3.org/1999/xlink" x="0px" y="0px" width="24px"
	 height="24px" viewBox="0 0 24 24" enable-background="new 0 0 24 24" xml:space="preserve">
<g id="Filled_icons">
	<g>
		<path d="M2.929,0.795c-0.114-0.252-0.41-0.364-0.661-0.251c-0.252,0.114-0.364,0.41-0.251,0.661
			c0.144,0.319,0.3,0.629,0.471,0.932c0.138,0.244,0.445,0.324,0.681,0.19c0.24-0.136,0.326-0.44,0.19-0.682
			C3.202,1.369,3.06,1.086,2.929,0.795z"/>
		<path d="M7.175,6.692C7.827,7.035,8.516,7.315,9.22,7.524c0.275,0.079,0.544-0.079,0.622-0.337
			C9.92,6.923,9.769,6.644,9.505,6.566C8.862,6.375,8.235,6.12,7.64,5.807C7.396,5.68,7.094,5.773,6.965,6.017
			C6.836,6.262,6.931,6.564,7.175,6.692z"/>
		<path d="M4.511,3.299c-0.179-0.21-0.495-0.235-0.705-0.058C3.595,3.42,3.569,3.736,3.748,3.946
			c0.476,0.56,1.007,1.077,1.581,1.537C5.544,5.656,5.86,5.621,6.032,5.407C6.205,5.19,6.17,4.876,5.955,4.703
			C5.431,4.283,4.944,3.81,4.511,3.299z"/>
		<path d="M17.343,5.815c-0.597,0.312-1.225,0.566-1.866,0.756c-0.265,0.079-0.416,0.356-0.338,0.621
			c0.08,0.269,0.362,0.416,0.621,0.338c0.704-0.207,1.392-0.486,2.046-0.828c0.245-0.127,0.34-0.43,0.212-0.675
			C17.89,5.783,17.587,5.688,17.343,5.815z"/>
		<path d="M20.477,3.313c-0.435,0.511-0.922,0.982-1.447,1.402c-0.216,0.172-0.251,0.487-0.078,0.703
			c0.173,0.216,0.487,0.25,0.702,0.08c0.575-0.461,1.108-0.977,1.585-1.536c0.179-0.21,0.153-0.526-0.057-0.705
			C20.972,3.079,20.656,3.102,20.477,3.313z"/>
		<path d="M22.732,0.544c-0.251-0.113-0.547-0.001-0.661,0.251c-0.131,0.291-0.273,0.574-0.43,0.851
			c-0.136,0.241-0.05,0.546,0.19,0.682c0.236,0.133,0.543,0.054,0.681-0.19c0.171-0.303,0.327-0.613,0.471-0.932
			C23.097,0.954,22.984,0.658,22.732,0.544z"/>
		<path d="M14.5,9l0.009-0.981C14.519,6.907,13.62,6,12.509,6c-1.097,0-1.989,0.884-1.999,1.982L10.5,9l0.5,4.5l-4-1V17l4-1l-0.5,8
			h4L14,16l4,1v-4.5l-4,1L14.5,9z M12.527,9c-0.552,0-1-0.448-1-1c0-0.552,0.448-1,1-1c0.553,0,1,0.448,1,1
			C13.527,8.552,13.08,9,12.527,9z"/>
	</g>
</g>
<g id="invisible_shape">
	<rect fill="none" width="24" height="24"/>
</g>
</svg>
