<?xml version="1.0" encoding="utf-8"?>
<!-- Generator: Adobe Illustrator 19.2.0, SVG Export Plug-In . SVG Version: 6.00 Build 0)  -->
<svg version="1.1" xmlns="http://www.w3.org/2000/svg" xmlns:xlink="http://www.w3.org/1999/xlink" x="0px" y="0px" width="24px"
	 height="24px" viewBox="0 0 24 24" enable-background="new 0 0 24 24" xml:space="preserve">
<g id="Filled_icons">
	<path d="M24,9.096c0-2.03-0.775-3.438-1.616-4.318c0.108-0.278,0.17-0.577,0.17-0.884c0-0.653-0.254-1.266-0.715-1.726
		c-0.92-0.922-2.529-0.922-3.449,0c-0.081,0.082-0.443,0.474-1.014,1.1c-0.419,0.11-0.816,0.271-1.204,0.438
		c-0.602,0.26-1.17,0.505-1.81,0.505c-1.016,0-2.196-0.64-3.609-1.958C9.106,0.714,7.087,0.208,5.222,0.867
		C3.049,1.633,1.338,3.902,0.964,6.513C0.907,6.911,1.009,7.305,1.25,7.626c0.24,0.32,0.591,0.528,0.984,0.585L2.45,8.225
		c0.74,0,1.378-0.552,1.484-1.288c0.212-1.486,1.173-2.85,2.286-3.242c0.82-0.289,1.647-0.033,2.486,0.75
		c1.801,1.68,3.482,2.574,5.122,2.735C9.841,11.599,4.155,17.935,0.603,21.994c-0.346,0.395-0.327,0.995,0.045,1.367
		c0.189,0.188,0.44,0.292,0.707,0.292c0.243,0,0.477-0.089,0.658-0.248c5.346-4.679,14.689-13.099,18.329-16.411
		C20.657,7.38,21,8.036,21,9.096c0,0.783-0.498,1.764-1.024,2.802c-1.011,1.991-2.394,4.715-0.817,7.869
		c0.263,0.525,0.793,0.83,1.343,0.83c0.226,0,0.454-0.051,0.67-0.159c0.741-0.371,1.041-1.271,0.671-2.013
		c-0.84-1.68-0.255-3.073,0.809-5.169C23.313,11.949,24,10.597,24,9.096z M14.719,6.196c-1.355,0.108-3.063-0.366-5.329-2.481
		C8.271,2.672,7.063,2.338,5.888,2.752C4.421,3.27,3.21,4.933,2.944,6.796c-0.036,0.25-0.25,0.429-0.494,0.429
		c-0.023,0-0.048-0.001-0.071-0.004C2.105,7.182,1.915,6.929,1.954,6.654c0.322-2.252,1.769-4.199,3.601-4.845
		c1.528-0.538,3.129-0.119,4.517,1.175c2.786,2.6,4.447,2.429,5.821,1.916C15.529,5.3,15.138,5.733,14.719,6.196z M20.947,18.873
		c0.123,0.247,0.023,0.547-0.224,0.671c-0.072,0.035-0.148,0.052-0.224,0.052c-0.183,0-0.359-0.101-0.447-0.276
		c-1.351-2.704-0.201-4.97,0.815-6.969C21.449,11.203,22,10.119,22,9.096c0-2.648-1.741-3.471-1.759-3.478l-0.521-0.282
		c-0.073-0.039-0.127-0.098-0.171-0.162L18.304,6.42c-0.098,0.098-0.226,0.147-0.354,0.147c-0.128,0-0.256-0.049-0.353-0.147
		c-0.195-0.195-0.195-0.511,0-0.707l2.121-2.121c0.195-0.196,0.512-0.196,0.707,0c0.195,0.195,0.195,0.511,0,0.706l-0.183,0.184
		l0.444,0.241C20.751,4.752,23,5.812,23,9.096c0,1.262-0.604,2.45-1.241,3.708C20.806,14.68,19.821,16.621,20.947,18.873z"/>
</g>
<g id="invisible_shape">
	<rect fill="none" width="24" height="24"/>
</g>
</svg>
