<?xml version="1.0" encoding="utf-8"?>
<!-- Generator: Adobe Illustrator 19.2.0, SVG Export Plug-In . SVG Version: 6.00 Build 0)  -->
<svg version="1.1" xmlns="http://www.w3.org/2000/svg" xmlns:xlink="http://www.w3.org/1999/xlink" x="0px" y="0px" width="24px"
	 height="24px" viewBox="0 0 24 24" enable-background="new 0 0 24 24" xml:space="preserve">
<g id="Filled_icons">
	<g>
		<path d="M7.58,4.375C4.571,0.576,2.728,0.093,0.58,0L0.099,2.902c2.594,0.434,3.513,1.193,5.21,3.421L7.58,4.375z"/>
		<path d="M5.894,9.22L10,5.798V4.938L9.449,4.57C9.264,4.447,9.017,4.46,8.847,4.607l-3.5,3C5.154,7.772,5.115,8.053,5.256,8.264
			L5.894,9.22z"/>
		<path d="M21.5,1h-8C12.121,1,11,2.122,11,3.5v2.766l-5.101,4.25C5.328,10.993,5,11.692,5,12.436V22.5C5,23.327,5.673,24,6.5,24h16
			c0.827,0,1.5-0.673,1.5-1.5v-19C24,2.122,22.879,1,21.5,1z M19.854,19.146c0.195,0.195,0.195,0.512,0,0.707
			c-0.195,0.195-0.512,0.195-0.707,0L15.5,16.206l-3.646,3.647c-0.195,0.195-0.512,0.195-0.707,0c-0.195-0.195-0.195-0.512,0-0.707
			l3.647-3.646l-3.647-3.646c-0.195-0.195-0.195-0.512,0-0.707s0.512-0.195,0.707,0l3.646,3.647l3.646-3.647
			c0.195-0.195,0.512-0.195,0.707,0c0.195,0.195,0.195,0.512,0,0.707L16.207,15.5L19.854,19.146z M22,5.5C22,6.327,21.327,7,20.5,7
			h-6C13.673,7,13,6.327,13,5.5v-1C13,3.673,13.673,3,14.5,3h6C21.327,3,22,3.673,22,4.5V5.5z"/>
	</g>
</g>
<g id="invisible_shape">
	<rect fill="none" width="24" height="24"/>
</g>
</svg>
