<?xml version="1.0" encoding="utf-8"?>
<!-- Generator: Adobe Illustrator 19.2.0, SVG Export Plug-In . SVG Version: 6.00 Build 0)  -->
<svg version="1.1" xmlns="http://www.w3.org/2000/svg" xmlns:xlink="http://www.w3.org/1999/xlink" x="0px" y="0px" width="24px"
	 height="24px" viewBox="0 0 24 24" enable-background="new 0 0 24 24" xml:space="preserve">
<g id="Filled_icons">
	<g>
		<polygon points="18.333,19.988 11.5,12.244 4.667,19.988 		"/>
		<path d="M11.5,10.979l4.116-0.748l-3.714-5.04c-0.188-0.256-0.617-0.256-0.805,0l-3.714,5.04L11.5,10.979z"/>
		<path d="M22.894,10.179c-0.103-0.129-0.259-0.189-0.424-0.177l-10.009,1.82l6.647,7.532l3.85-8.662
			C23.032,10.521,23.008,10.324,22.894,10.179z"/>
		<path d="M10.539,11.822L0.53,10.002c-0.163-0.011-0.321,0.048-0.424,0.177c-0.114,0.145-0.139,0.343-0.063,0.513l3.85,8.662
			L10.539,11.822z"/>
	</g>
</g>
<g id="invisible_shape">
	<rect fill="none" width="24" height="24"/>
</g>
</svg>
