<?xml version="1.0" encoding="utf-8"?>
<!-- Generator: Adobe Illustrator 19.2.0, SVG Export Plug-In . SVG Version: 6.00 Build 0)  -->
<svg version="1.1" xmlns="http://www.w3.org/2000/svg" xmlns:xlink="http://www.w3.org/1999/xlink" x="0px" y="0px" width="24px"
	 height="24px" viewBox="0 0 24 24" enable-background="new 0 0 24 24" xml:space="preserve">
<g id="Filled_icons">
	<g>
		<path d="M23.5,0.006c-8.101,0-9.305,10.593-9.473,13H4.5c-0.827,0-1.5,0.672-1.5,1.5v3.5c0,3.309,2.691,6,6,6s6-2.691,6-6v-4.489
			c0.003-0.123,0.384-12.511,8.5-12.511c0.276,0,0.5-0.224,0.5-0.5C24,0.229,23.776,0.006,23.5,0.006z"/>
		<circle cx="8.917" cy="10.465" r="1.5"/>
		<path d="M5.265,7.798C5.728,8.252,6.343,8.506,7,8.506c1.379,0,2.5-1.122,2.5-2.5C9.5,5,8.896,4.108,7.989,3.718
			C7.841,1.646,6.108,0.006,4,0.006c-2.206,0-4,1.794-4,4c0,2.206,1.794,4,4,4C4.432,8.006,4.856,7.938,5.265,7.798z"/>
	</g>
</g>
<g id="invisible_shape">
	<rect fill="none" width="24" height="24"/>
</g>
</svg>
