<?xml version="1.0" encoding="utf-8"?>
<!-- Generator: Adobe Illustrator 19.2.0, SVG Export Plug-In . SVG Version: 6.00 Build 0)  -->
<svg version="1.1" xmlns="http://www.w3.org/2000/svg" xmlns:xlink="http://www.w3.org/1999/xlink" x="0px" y="0px" width="24px"
	 height="24px" viewBox="0 0 24 24" enable-background="new 0 0 24 24" xml:space="preserve">
<g id="Filled_icons">
	<g>
		<path d="M16.32,15.75C16.09,15.911,15.8,16,15.5,16h-1.36l0.391,2.46C14.816,20.263,13.434,22,11.5,22
			c-1.919,0-3.319-1.721-3.03-3.54L8.86,16H7.5c-0.3,0-0.59-0.089-0.82-0.25l-0.39,1.78C5.563,20.834,8.081,24,11.5,24
			c3.424,0,5.935-3.171,5.21-6.47L16.32,15.75z"/>
		<path d="M6.87,9.15C7.06,9.05,7.269,9,7.5,9h1.519L8.47,5.54C8.184,3.74,9.565,2,11.5,2c1.919,0,3.319,1.722,3.03,3.54L13.981,9
			H15.5c0.231,0,0.44,0.05,0.63,0.15l0.58-2.68C17.437,3.166,14.919,0,11.5,0C8.075,0,5.565,3.172,6.29,6.47L6.87,9.15z"/>
		<path d="M13.54,18.61L13.13,16H9.87l-0.41,2.61C8.994,21.717,14.009,21.738,13.54,18.61z"/>
		<path d="M15.5,12h-8C7.225,12,7,12.224,7,12.5S7.225,13,7.5,13h8c0.275,0,0.5-0.224,0.5-0.5S15.775,12,15.5,12z"/>
		<path d="M15.5,10h-8C7.212,10,7,10.234,7,10.5C7,10.788,7.221,11,7.5,11h8c0.279,0,0.5-0.212,0.5-0.5C16,10.234,15.788,10,15.5,10
			z"/>
		<path d="M12.97,9l0.57-3.61C13.729,4.131,12.782,3,11.5,3c-1.283,0-2.228,1.132-2.04,2.39L10.03,9H12.97z"/>
		<path d="M22.5,18c-0.276,0-0.5,0.224-0.5,0.5c0,0.551-0.448,1-1,1s-1-0.449-1-1v-2c0-1.378-1.121-2.5-2.5-2.5h-10
			C7.22,14,7,14.22,7,14.5S7.22,15,7.5,15h10c0.827,0,1.5,0.673,1.5,1.5v2c0,1.103,0.897,2,2,2s2-0.897,2-2
			C23,18.224,22.776,18,22.5,18z"/>
	</g>
</g>
<g id="invisible_shape">
	<rect fill="none" width="24" height="24"/>
</g>
</svg>
