<?xml version="1.0" encoding="utf-8"?>
<!-- Generator: Adobe Illustrator 19.2.0, SVG Export Plug-In . SVG Version: 6.00 Build 0)  -->
<svg version="1.1" xmlns="http://www.w3.org/2000/svg" xmlns:xlink="http://www.w3.org/1999/xlink" x="0px" y="0px" width="24px"
	 height="24px" viewBox="0 0 24 24" enable-background="new 0 0 24 24" xml:space="preserve">
<g id="Filled_icons">
	<path d="M18.5,0C15.468,0,13,2.467,13,5.5v2C13,7.776,13.224,8,13.5,8h3C16.776,8,17,7.776,17,7.5v-2C17,4.673,17.673,4,18.5,4
		S20,4.673,20,5.5v2C20,7.776,20.224,8,20.5,8H22v9.856c-0.643-0.756-1.589-1.248-2.656-1.248c-1.93,0-3.5,1.57-3.5,3.5
		c0,0.021,0.006,0.039,0.006,0.059L4.447,7.663C4.262,7.459,3.946,7.444,3.741,7.63C3.537,7.816,3.523,8.133,3.709,8.337
		L16.74,22.624c0.521,0.465,1.155,0.77,1.832,0.894c0.249,0.056,0.506,0.091,0.771,0.091c1.217,0,2.289-0.626,2.916-1.571
		c0.459-0.623,0.74-1.386,0.74-2.218V8h0.5C23.776,8,24,7.776,24,7.5v-2C24,2.467,21.532,0,18.5,0z M19.344,17.608
		c1.379,0,2.5,1.122,2.5,2.5c0,0.506-0.153,0.976-0.412,1.369c-0.505,0.664-1.294,1.1-2.19,1.1c-0.16,0-0.318-0.016-0.474-0.042
		c-1.101-0.262-1.924-1.248-1.924-2.427C16.844,18.73,17.965,17.608,19.344,17.608z"/>
</g>
<g id="invisible_shape">
	<rect fill="none" width="24" height="24"/>
</g>
</svg>
