<?xml version="1.0" encoding="utf-8"?>
<!-- Generator: Adobe Illustrator 19.2.0, SVG Export Plug-In . SVG Version: 6.00 Build 0)  -->
<svg version="1.1" xmlns="http://www.w3.org/2000/svg" xmlns:xlink="http://www.w3.org/1999/xlink" x="0px" y="0px" width="24px"
	 height="24px" viewBox="0 0 24 24" enable-background="new 0 0 24 24" xml:space="preserve">
<g id="Filled_icons">
	<path d="M13,6c-0.276,0-0.5-0.224-0.5-0.5C12.5,5.223,12.724,5,13,5h11V4c0-1.103-0.897-2-2-2H8C5.243,2,3,4.243,3,7v4.5
		C3,11.776,3.224,12,3.5,12H6v4c0,0.276,0.224,0.5,0.5,0.5S7,16.276,7,16v-1h0.5C7.776,15,8,14.776,8,14.5C8,14.223,7.776,14,7.5,14
		H7v-2h6.5c0.276,0,0.5-0.224,0.5-0.5V10c0-0.551,0.448-1,1-1s1,0.449,1,1v8H2.5C1.121,18,0,19.122,0,20.5v1
		C0,22.878,1.121,24,2.5,24h21c0.276,0,0.5-0.224,0.5-0.5V6H13z M20,20c-1.103,0-2-0.897-2-2c0-1.103,0.897-2,2-2s2,0.897,2,2
		C22,19.103,21.103,20,20,20z"/>
</g>
<g id="invisible_shape">
	<rect fill="none" width="24" height="24"/>
</g>
</svg>
