<?xml version="1.0" encoding="utf-8"?>
<!-- Generator: Adobe Illustrator 19.2.0, SVG Export Plug-In . SVG Version: 6.00 Build 0)  -->
<svg version="1.1" xmlns="http://www.w3.org/2000/svg" xmlns:xlink="http://www.w3.org/1999/xlink" x="0px" y="0px" width="24px"
	 height="24px" viewBox="0 0 24 24" enable-background="new 0 0 24 24" xml:space="preserve">
<g id="Filled_icons">
	<g>
		<path d="M11,23.807V11H7v10.568C8.136,22.313,9.459,23.071,11,23.807z"/>
		<path d="M22,9.995v-4.98c0-0.225-0.151-0.424-0.37-0.482c-0.073-0.02-7.399-2.015-9.769-4.391c-0.188-0.189-0.535-0.189-0.723,0
			C8.769,2.515,1.443,4.512,1.37,4.532C1.151,4.591,1,4.79,1,5.015v4.98H22z M8.5,4.992h1.929l0.596-1.833
			c0.135-0.412,0.816-0.412,0.951,0l0.596,1.833H14.5c0.224,0,0.421,0.149,0.481,0.364c0.061,0.216-0.029,0.446-0.221,0.563
			l-1.512,0.925l0.578,1.696c0.07,0.208-0.003,0.439-0.181,0.567c-0.088,0.064-0.19,0.095-0.293,0.095
			c-0.106,0-0.212-0.033-0.302-0.101l-1.561-1.179L9.936,9.031C9.758,9.157,9.519,9.154,9.345,9.023
			C9.171,8.891,9.102,8.661,9.176,8.456l0.571-1.603L8.236,5.917C8.047,5.799,7.958,5.57,8.019,5.355
			C8.08,5.141,8.276,4.992,8.5,4.992z"/>
		<path d="M17,11v9.885c3.512-2.513,4.854-4.676,4.929-4.802C21.976,16.006,22,15.917,22,15.827V11H17z"/>
		<path d="M6,11H1v4.827c0,0.09,0.024,0.179,0.071,0.256c0.075,0.126,1.417,2.29,4.929,4.802V11z"/>
		<path d="M16,11h-4v12.807c1.541-0.736,2.864-1.494,4-2.238V11z"/>
	</g>
</g>
<g id="invisible_shape">
	<rect fill="none" width="24" height="24"/>
</g>
</svg>
