<?xml version="1.0" encoding="utf-8"?>
<!-- Generator: Adobe Illustrator 19.2.0, SVG Export Plug-In . SVG Version: 6.00 Build 0)  -->
<svg version="1.1" xmlns="http://www.w3.org/2000/svg" xmlns:xlink="http://www.w3.org/1999/xlink" x="0px" y="0px" width="24px"
	 height="24px" viewBox="0 0 24 24" enable-background="new 0 0 24 24" xml:space="preserve">
<g id="Filled_icons">
	<path d="M21.63,4.544c-0.073-0.02-7.399-2.016-9.769-4.391c-0.188-0.189-0.535-0.189-0.723,0C8.769,2.526,1.443,4.524,1.37,4.544
		C1.151,4.602,1,4.8,1,5.026c0,8.57,0.761,15.407,10.326,18.949c0.057,0.021,0.115,0.031,0.174,0.031s0.117-0.01,0.174-0.031
		C21.239,20.433,22,13.596,22,5.026C22,4.8,21.849,4.602,21.63,4.544z M11.674,20.975c-0.057,0.021-0.115,0.031-0.174,0.031
		s-0.117-0.01-0.174-0.031c-7.149-2.647-7.718-7.741-7.718-14.126c0-0.002,0.002-0.005,0.002-0.007l11.965,11.965
		C14.561,19.644,13.294,20.375,11.674,20.975z M18.001,15.746L7.456,5.201c1.425-0.561,2.916-1.278,3.685-2.047
		c0.188-0.189,0.531-0.189,0.719,0c1.727,1.729,7.108,3.198,7.162,3.212c0.219,0.059,0.37,0.257,0.37,0.483
		C19.392,10.237,19.221,13.257,18.001,15.746z"/>
</g>
<g id="invisible_shape">
	<rect fill="none" width="24" height="24"/>
</g>
</svg>
