<?xml version="1.0" encoding="utf-8"?>
<!-- Generator: Adobe Illustrator 19.2.0, SVG Export Plug-In . SVG Version: 6.00 Build 0)  -->
<svg version="1.1" xmlns="http://www.w3.org/2000/svg" xmlns:xlink="http://www.w3.org/1999/xlink" x="0px" y="0px" width="24px"
	 height="24px" viewBox="0 0 24 24" enable-background="new 0 0 24 24" xml:space="preserve">
<g id="Filled_icons">
	<g>
		<path d="M12,0C5.383,0,0,5.383,0,12c0,6.616,5.383,12,12,12s12-5.384,12-12C24,5.383,18.617,0,12,0z M12,21.5
			c-5.238,0-9.5-4.261-9.5-9.5c0-5.238,4.262-9.5,9.5-9.5s9.5,4.262,9.5,9.5C21.5,17.239,17.238,21.5,12,21.5z"/>
		<path d="M12,5.5c-3.584,0-6.5,2.915-6.5,6.5c0,3.584,2.916,6.5,6.5,6.5s6.5-2.916,6.5-6.5C18.5,8.415,15.584,5.5,12,5.5z
			 M16.305,10.896l-2.193,1.686l0.838,2.623c0.065,0.205-0.008,0.429-0.183,0.557c-0.175,0.127-0.41,0.127-0.585,0.002l-2.179-1.562
			l-2.18,1.595c-0.088,0.064-0.191,0.097-0.295,0.097c-0.102,0-0.204-0.031-0.291-0.093c-0.176-0.125-0.251-0.351-0.186-0.557
			l0.839-2.668l-2.194-1.678c-0.17-0.129-0.238-0.355-0.17-0.557C7.595,10.137,7.786,10,8,10h2.693l0.831-2.56
			c0.135-0.411,0.816-0.411,0.951,0L13.309,10H16c0.214,0,0.404,0.136,0.474,0.339C16.542,10.542,16.475,10.766,16.305,10.896z"/>
	</g>
</g>
<g id="invisible_shape">
	<rect fill="none" width="24" height="24"/>
</g>
</svg>
