<?xml version="1.0" encoding="utf-8"?>
<!-- Generator: Adobe Illustrator 19.2.0, SVG Export Plug-In . SVG Version: 6.00 Build 0)  -->
<svg version="1.1" xmlns="http://www.w3.org/2000/svg" xmlns:xlink="http://www.w3.org/1999/xlink" x="0px" y="0px" width="24px"
	 height="24px" viewBox="0 0 24 24" enable-background="new 0 0 24 24" xml:space="preserve">
<g id="Filled_icons">
	<path d="M21.63,4.544c-0.073-0.02-7.399-2.017-9.769-4.391c-0.188-0.189-0.536-0.189-0.724,0C8.769,2.526,1.443,4.524,1.37,4.544
		C1.151,4.602,1,4.8,1,5.026c0,8.569,0.761,15.405,10.326,18.949c0.057,0.021,0.115,0.031,0.174,0.031s0.117-0.01,0.174-0.031
		C21.239,20.431,22,13.595,22,5.026C22,4.8,21.849,4.602,21.63,4.544z M3.978,6.365c0.054-0.016,5.436-1.482,7.161-3.211
		c0.061-0.061,0.14-0.095,0.223-0.116l-7.62,7.62c-0.104-1.208-0.134-2.479-0.134-3.81C3.608,6.621,3.76,6.422,3.978,6.365z
		 M5.022,15.792L15.594,5.219c1.032,0.404,2.015,0.723,2.663,0.921L6.477,17.92C5.874,17.266,5.399,16.553,5.022,15.792z
		 M11.674,20.975c-0.057,0.021-0.115,0.031-0.174,0.031s-0.117-0.01-0.174-0.031c-0.371-0.137-0.715-0.285-1.052-0.436l8.876-8.876
		C18.613,15.776,16.913,19.035,11.674,20.975z"/>
</g>
<g id="invisible_shape">
	<rect fill="none" width="24" height="24"/>
</g>
</svg>
