<?xml version="1.0" encoding="utf-8"?>
<!-- Generator: Adobe Illustrator 19.2.0, SVG Export Plug-In . SVG Version: 6.00 Build 0)  -->
<svg version="1.1" xmlns="http://www.w3.org/2000/svg" xmlns:xlink="http://www.w3.org/1999/xlink" x="0px" y="0px" width="24px"
	 height="24px" viewBox="0 0 24 24" enable-background="new 0 0 24 24" xml:space="preserve">
<g id="Filled_icons">
	<path d="M21.731,0.564c-0.166-0.087-0.365-0.074-0.517,0.033c-1.767,1.234-3.225,1.784-4.727,1.784
		c-1.788,0-3.461-0.806-4.59-2.208c-0.189-0.235-0.606-0.235-0.796,0C9.974,1.576,8.301,2.381,6.513,2.381
		c-1.503,0-2.961-0.55-4.727-1.784C1.634,0.49,1.435,0.477,1.269,0.564C1.104,0.649,1,0.82,1,1.006v14.812
		c0,0.044,0.006,0.088,0.018,0.132c0.063,0.226,1.626,5.572,10.348,8.016c0.044,0.013,0.09,0.019,0.135,0.019
		s0.091-0.006,0.135-0.019c8.722-2.444,10.285-7.79,10.348-8.016C21.994,15.907,22,15.862,22,15.818V1.006
		C22,0.82,21.896,0.649,21.731,0.564z M8.347,18.973L10.894,12H7.872l3.967-7h3.685L12.5,10h3.784L8.347,18.973z"/>
</g>
<g id="invisible_shape">
	<rect fill="none" width="24" height="24"/>
</g>
</svg>
