<?xml version="1.0" encoding="utf-8"?>
<!-- Generator: Adobe Illustrator 19.2.0, SVG Export Plug-In . SVG Version: 6.00 Build 0)  -->
<svg version="1.1" xmlns="http://www.w3.org/2000/svg" xmlns:xlink="http://www.w3.org/1999/xlink" x="0px" y="0px" width="24px"
	 height="24px" viewBox="0 0 24 24" enable-background="new 0 0 24 24" xml:space="preserve">
<g id="Filled_icons">
	<g>
		<path d="M1,15.838c0,0.046,0.006,0.091,0.018,0.133c0.061,0.224,1.586,5.418,9.982,7.908V12H1V15.838z"/>
		<path d="M21.73,0.584c-0.165-0.086-0.364-0.073-0.517,0.034c-1.768,1.234-3.226,1.785-4.727,1.785
			c-1.767,0-3.39-0.763-4.487-2.093V11h10V1.026C22,0.84,21.896,0.67,21.73,0.584z"/>
		<path d="M6.513,2.402c-1.503,0-2.96-0.55-4.727-1.785c-0.153-0.107-0.352-0.12-0.518-0.034C1.104,0.67,1,0.84,1,1.026V11h10V0.309
			C9.902,1.637,8.277,2.402,6.513,2.402z"/>
		<path d="M12,23.878c8.396-2.489,9.92-7.684,9.981-7.908C21.994,15.929,22,15.884,22,15.838V12H12V23.878z"/>
	</g>
</g>
<g id="invisible_shape">
	<rect fill="none" width="24" height="24"/>
</g>
</svg>
