<?xml version="1.0" encoding="utf-8"?>
<!-- Generator: Adobe Illustrator 19.2.0, SVG Export Plug-In . SVG Version: 6.00 Build 0)  -->
<svg version="1.1" xmlns="http://www.w3.org/2000/svg" xmlns:xlink="http://www.w3.org/1999/xlink" x="0px" y="0px" width="24px"
	 height="24px" viewBox="0 0 24 24" enable-background="new 0 0 24 24" xml:space="preserve">
<g id="Filled_icons">
	<g>
		<path d="M9,13H1.567C2.386,17.192,4.359,20.631,9,23.006V13z"/>
		<path d="M14,13v9.972c4.656-2.373,6.618-5.799,7.433-9.972H14z"/>
	</g>
	<g>
		<path d="M9,1.646c-3.089,1.668-7.572,2.895-7.63,2.91C1.151,4.615,1,4.813,1,5.039C1,6.407,1.025,7.726,1.097,9H9V1.646z"/>
		<path d="M21.63,4.556C21.572,4.541,17.09,3.315,14,1.647V9h7.903C21.975,7.726,22,6.407,22,5.039
			C22,4.813,21.849,4.615,21.63,4.556z"/>
	</g>
</g>
<g id="invisible_shape">
	<rect fill="none" width="24" height="24"/>
</g>
</svg>
