<?xml version="1.0" encoding="utf-8"?>
<!-- Generator: Adobe Illustrator 19.2.0, SVG Export Plug-In . SVG Version: 6.00 Build 0)  -->
<svg version="1.1" xmlns="http://www.w3.org/2000/svg" xmlns:xlink="http://www.w3.org/1999/xlink" x="0px" y="0px" width="24px"
	 height="24px" viewBox="0 0 24 24" enable-background="new 0 0 24 24" xml:space="preserve">
<g id="Filled_icons">
	<g>
		<path d="M10,10.991l1-0.001V0.298c-0.301,0.355-0.636,0.668-1,0.938V10.991z"/>
		<path d="M17,21.871c0.783-0.444,1.449-0.902,2-1.36v-8.507l-2,0.003V21.871z"/>
		<path d="M14,23.232c0.727-0.265,1.399-0.542,2-0.833V12.006l-2,0.002V23.232z"/>
		<path d="M13,12.01l-1,0.001v11.862c0.345-0.095,0.679-0.194,1-0.295V12.01z"/>
		<path d="M12,10.988l10-0.011V1.105c0-0.166-0.083-0.322-0.221-0.415c-0.138-0.093-0.312-0.111-0.467-0.049
			c-0.904,0.365-1.582,0.694-2.126,0.958c-1.059,0.514-1.644,0.797-2.7,0.797c-1.735,0-3.359-0.765-4.486-2.096V10.988z"/>
		<path d="M9,1.839C8.375,2.133,7.699,2.31,7,2.369v8.625l2-0.002V1.839z"/>
		<path d="M11,12H1v3.859c0,0.045,0.006,0.09,0.018,0.133c0.061,0.222,1.594,5.384,9.982,7.874V12z"/>
		<path d="M20.006,12.002v7.582c1.776-1.875,1.98-3.519,1.994-3.668V12L20.006,12.002z"/>
		<path d="M3,10.998V1.403C2.612,1.186,2.208,0.932,1.786,0.637C1.635,0.53,1.436,0.517,1.269,0.604C1.104,0.69,1,0.86,1,1.047V11
			L3,10.998z"/>
		<path d="M6,2.373C5.34,2.319,4.684,2.156,4.006,1.88v9.118L6,10.995V2.373z"/>
	</g>
</g>
<g id="invisible_shape">
	<rect fill="none" width="24" height="24"/>
</g>
</svg>
