<?xml version="1.0" encoding="utf-8"?>
<!-- Generator: Adobe Illustrator 19.2.0, SVG Export Plug-In . SVG Version: 6.00 Build 0)  -->
<svg version="1.1" xmlns="http://www.w3.org/2000/svg" xmlns:xlink="http://www.w3.org/1999/xlink" x="0px" y="0px" width="24px"
	 height="24px" viewBox="0 0 24 24" enable-background="new 0 0 24 24" xml:space="preserve">
<g id="Filled_icons">
	<path d="M18.996,8.438l-1-8C17.965,0.188,17.752,0,17.5,0h-2.793l-5,5H13.5c0.202,0,0.385,0.122,0.462,0.309
		c0.077,0.187,0.034,0.401-0.108,0.545l-5,5C8.756,10.951,8.628,11,8.5,11s-0.256-0.049-0.354-0.146
		c-0.195-0.195-0.195-0.512,0-0.708L12.293,6H8.5C8.298,6,8.115,5.878,8.038,5.691C7.961,5.504,8.004,5.29,8.146,5.147L13.293,0H5.5
		C5.248,0,5.035,0.188,5.004,0.438L4,8.5c0,3.967,3.098,7.215,7,7.475V23H7.5C7.224,23,7,23.223,7,23.5C7,23.776,7.224,24,7.5,24h8
		c0.276,0,0.5-0.224,0.5-0.5c0-0.277-0.224-0.5-0.5-0.5H12v-7.025C15.902,15.715,19,12.464,18.996,8.438z"/>
</g>
<g id="invisible_shape">
	<rect fill="none" width="24" height="24"/>
</g>
</svg>
