<?xml version="1.0" encoding="utf-8"?>
<!-- Generator: Adobe Illustrator 19.2.0, SVG Export Plug-In . SVG Version: 6.00 Build 0)  -->
<svg version="1.1" xmlns="http://www.w3.org/2000/svg" xmlns:xlink="http://www.w3.org/1999/xlink" x="0px" y="0px" width="24px"
	 height="24px" viewBox="0 0 24 24" enable-background="new 0 0 24 24" xml:space="preserve">
<g id="Filled_icons">
	<g>
		<path d="M14.069,10.692C13.488,10.263,12.776,10,12,10c-1.93,0-3.5,1.571-3.5,3.5c0,0.776,0.263,1.488,0.692,2.069L14.069,10.692z
			"/>
		<path d="M8.5,4h7C15.776,4,16,3.776,16,3.5V0H8v3.5C8,3.776,8.224,4,8.5,4z"/>
		<path d="M18.992,0.415C18.951,0.175,18.743,0,18.5,0H17v4.5C17,5.878,15.879,7,14.5,7h-5C8.121,7,7,5.878,7,4.5V0H5.5
			C5.257,0,5.049,0.175,5.008,0.415l-4,23c-0.025,0.145,0.015,0.294,0.109,0.407S1.352,24,1.5,24h5c0.215,0,0.406-0.137,0.475-0.341
			L7.86,21h8.279l0.886,2.659C17.094,23.863,17.285,24,17.5,24h5c0.147,0,0.288-0.065,0.383-0.178
			c0.095-0.113,0.135-0.262,0.109-0.407L18.992,0.415z M12,18c-2.481,0-4.5-2.018-4.5-4.5C7.5,11.019,9.519,9,12,9
			s4.5,2.019,4.5,4.5C16.5,15.982,14.481,18,12,18z"/>
		<path d="M9.896,16.279C10.484,16.725,11.208,17,12,17c1.93,0,3.5-1.571,3.5-3.5c0-0.792-0.274-1.516-0.721-2.103L9.896,16.279z"/>
	</g>
</g>
<g id="invisible_shape">
	<rect fill="none" width="24" height="24"/>
</g>
</svg>
