<?xml version="1.0" encoding="utf-8"?>
<!-- Generator: Adobe Illustrator 19.2.0, SVG Export Plug-In . SVG Version: 6.00 Build 0)  -->
<svg version="1.1" xmlns="http://www.w3.org/2000/svg" xmlns:xlink="http://www.w3.org/1999/xlink" x="0px" y="0px" width="24px"
	 height="24px" viewBox="0 0 24 24" enable-background="new 0 0 24 24" xml:space="preserve">
<g id="Filled_icons">
	<g>
		<path d="M6,6.506C6,7.333,6.673,8.006,7.5,8h9C17.327,8.006,18,7.333,18,6.506v-6.08c-0.701-0.273-1.521-0.421-2.5-0.421h-7
			c-0.978,0-1.798,0.148-2.5,0.422V6.506z M7.519,2h9c0.276,0.006,0.5,0.23,0.5,0.506c0,0.276-0.224,0.5-0.5,0.5h-9
			c-0.276,0-0.5-0.224-0.5-0.5C7.019,2.23,7.243,2.006,7.519,2z M7.519,4h9c0.276,0.006,0.5,0.229,0.5,0.506
			c0,0.276-0.224,0.5-0.5,0.5h-9c-0.276,0-0.5-0.224-0.5-0.5C7.019,4.229,7.243,4.006,7.519,4z M7.519,6h9
			c0.276,0.006,0.5,0.229,0.5,0.506c0,0.276-0.224,0.5-0.5,0.5h-9c-0.276,0-0.5-0.224-0.5-0.5C7.019,6.229,7.243,6.006,7.519,6z"/>
		<path d="M19.468,1.352C19.328,1.21,19.16,1.102,19,0.982v5.524c0,1.378-1.121,2.5-2.5,2.494h-9C6.121,9.006,5,7.884,5,6.506v-5.52
			C4.842,1.105,4.676,1.213,4.537,1.352C2.946,2.957,2.97,5.638,3,8.475l0.006,12.031c-0.006,1.378,1.115,2.5,2.494,2.5H6v0.515
			C6,23.798,6.224,24,6.5,24S7,23.798,7,23.521v-0.515v-7C7,13.25,9.243,11,12,11s5,2.25,5,5.006v7v0.515
			C17,23.798,17.224,24,17.5,24s0.5-0.202,0.5-0.479v-0.515h0.5c1.379,0,2.5-1.122,2.5-2.5V8.469
			C21.024,5.63,21.054,2.951,19.468,1.352z"/>
		<path d="M12,12c-2.206,0-4,1.8-4,4.006V23h8v-6.994C16,13.8,14.206,12,12,12z"/>
	</g>
</g>
<g id="invisible_shape">
	<rect fill="none" width="24" height="24"/>
</g>
</svg>
