<?xml version="1.0" encoding="utf-8"?>
<!-- Generator: Adobe Illustrator 19.2.0, SVG Export Plug-In . SVG Version: 6.00 Build 0)  -->
<svg version="1.1" xmlns="http://www.w3.org/2000/svg" xmlns:xlink="http://www.w3.org/1999/xlink" x="0px" y="0px" width="24px"
	 height="24px" viewBox="0 0 24 24" enable-background="new 0 0 24 24" xml:space="preserve">
<g id="Filled_icons">
	<g>
		<path d="M21.5,5h-4C17.224,5,17,5.223,17,5.5C17,5.776,17.224,6,17.5,6h4C21.776,6,22,5.776,22,5.5C22,5.223,21.776,5,21.5,5z"/>
		<path d="M21.213,9.283l-3.969-2.219c-0.241-0.135-0.546-0.049-0.681,0.192c-0.135,0.241-0.049,0.545,0.192,0.679l3.969,2.22
			c0.077,0.044,0.161,0.063,0.244,0.063c0.175,0,0.345-0.092,0.437-0.256C21.54,9.721,21.454,9.417,21.213,9.283z"/>
		<path d="M17.175,3.969L21.112,2.5c0.259-0.097,0.391-0.385,0.294-0.644c-0.097-0.259-0.386-0.389-0.644-0.293l-3.938,1.468
			c-0.259,0.096-0.391,0.384-0.294,0.644C16.627,3.931,16.909,4.065,17.175,3.969z"/>
		<path d="M14.5,4H14V3.5C14,3.223,13.776,3,13.5,3H3.25C3.054,3,2.875,3.115,2.794,3.294l-2.25,5
			C0.475,8.45,0.488,8.628,0.58,8.771C0.672,8.914,0.83,9,1,9h9.586c-0.026,1.451,0.546,3.592,2.957,3.993
			C13.57,12.998,13.599,13,13.626,13c0.239,0,0.451-0.173,0.492-0.418c0.045-0.272-0.139-0.529-0.411-0.575
			C11.773,11.686,11.578,9.85,11.593,9h0.532c0.141,0,0.273-0.058,0.368-0.162l1.375-1.5C13.953,7.246,14,7.125,14,7V6h0.5
			C14.776,6,15,5.776,15,5.5v-1C15,4.223,14.776,4,14.5,4z"/>
		<path d="M9.411,10H4.113L1.097,21.022c-0.142,0.737,0.05,1.49,0.525,2.068C2.1,23.668,2.803,24,3.551,24h7.65
			c0.827,0,1.598-0.407,2.063-1.088c0.466-0.682,0.566-1.547,0.267-2.318L9.411,10z"/>
	</g>
</g>
<g id="invisible_shape">
	<rect fill="none" width="24" height="24"/>
</g>
</svg>
