<?xml version="1.0" encoding="utf-8"?>
<!-- Generator: Adobe Illustrator 19.2.0, SVG Export Plug-In . SVG Version: 6.00 Build 0)  -->
<svg version="1.1" xmlns="http://www.w3.org/2000/svg" xmlns:xlink="http://www.w3.org/1999/xlink" x="0px" y="0px" width="24px"
	 height="24px" viewBox="0 0 24 24" enable-background="new 0 0 24 24" xml:space="preserve">
<g id="Filled_icons">
	<g>
		<path d="M4,15h5.277l1.948-3.418c1.868-3.277,1.88-7.354,0.031-10.642c-0.088-0.157-0.254-0.253-0.434-0.254
			c-0.151-0.011-0.346,0.095-0.436,0.25L2.102,15.378C2.688,15.137,3.328,15,4,15z M6.611,11.473l2.744-4.814
			c0.138-0.241,0.443-0.323,0.683-0.187c0.239,0.136,0.323,0.442,0.186,0.683l-2.744,4.814c-0.093,0.162-0.262,0.252-0.435,0.252
			c-0.084,0-0.17-0.021-0.248-0.065C6.559,12.019,6.475,11.714,6.611,11.473z"/>
		<path d="M18.4,11.96c-0.233,0.047-0.4,0.251-0.4,0.49V15h2c1.13,0,2.162,0.392,3,1.026V7.5C23,6.122,21.879,5,20.5,5
			S18,6.122,18,7.551c0,0.239,0.167,0.442,0.4,0.489C19.327,8.23,20,9.054,20,10C20,10.947,19.327,11.771,18.4,11.96z"/>
		<path d="M20,16H4c-2.206,0-4,1.794-4,4c0,2.206,1.794,4,4,4h16c2.206,0,4-1.794,4-4C24,17.794,22.206,16,20,16z M5,22
			c-1.102,0-2-0.897-2-2c0-1.103,0.898-2,2-2s2,0.897,2,2C7,21.103,6.102,22,5,22z M19,22c-1.103,0-2-0.897-2-2c0-1.103,0.897-2,2-2
			s2,0.897,2,2C21,21.103,20.103,22,19,22z"/>
	</g>
</g>
<g id="invisible_shape">
	<rect fill="none" width="24" height="24"/>
</g>
</svg>
