<?xml version="1.0" encoding="utf-8"?>
<!-- Generator: Adobe Illustrator 19.2.0, SVG Export Plug-In . SVG Version: 6.00 Build 0)  -->
<svg version="1.1" xmlns="http://www.w3.org/2000/svg" xmlns:xlink="http://www.w3.org/1999/xlink" x="0px" y="0px" width="24px"
	 height="24px" viewBox="0 0 24 24" enable-background="new 0 0 24 24" xml:space="preserve">
<g id="Filled_icons">
	<g>
		<rect x="4" y="13" width="11" height="1"/>
		<path d="M19.5,11h1c1.379,0,2.5-1.122,2.5-2.5V6c0-0.277-0.224-0.5-0.5-0.5S22,5.723,22,6v2.5c0,0.827-0.673,1.5-1.5,1.5h-1
			c-1.379,0-2.5,1.122-2.5,2.5s1.121,2.5,2.5,2.5h1c0.827,0,1.5,0.672,1.5,1.5v1c0,0.827-0.673,1.5-1.5,1.5H4v1h16.5
			c1.379,0,2.5-1.122,2.5-2.5v-1c0-1.378-1.121-2.5-2.5-2.5h-1c-0.827,0-1.5-0.673-1.5-1.5C18,11.672,18.673,11,19.5,11z"/>
		<rect x="4" y="17" width="11" height="1"/>
		<rect x="4" y="11" width="11" height="1"/>
		<rect x="4" y="5" width="11" height="1"/>
		<rect x="4" y="15" width="11" height="1"/>
		<path d="M1.278,21C1.105,21.295,1,21.635,1,22c0,1.103,0.898,2,2,2h13c1.103,0,2-0.897,2-2c0-0.365-0.105-0.705-0.278-1H1.278z"/>
		<path d="M17.722,4C17.895,3.706,18,3.366,18,3c0-1.103-0.897-2-2-2H3C1.898,1,1,1.897,1,3c0,0.366,0.105,0.706,0.278,1H17.722z"/>
		<rect x="4" y="9" width="11" height="1"/>
		<rect x="4" y="7" width="11" height="1"/>
	</g>
</g>
<g id="invisible_shape">
	<rect fill="none" width="24" height="24"/>
</g>
</svg>
