<?xml version="1.0" encoding="utf-8"?>
<!-- Generator: Adobe Illustrator 19.2.0, SVG Export Plug-In . SVG Version: 6.00 Build 0)  -->
<svg version="1.1" xmlns="http://www.w3.org/2000/svg" xmlns:xlink="http://www.w3.org/1999/xlink" x="0px" y="0px" width="24px"
	 height="24px" viewBox="0 0 24 24" enable-background="new 0 0 24 24" xml:space="preserve">
<g id="Filled_icons">
	<g>
		<g>
			<path d="M8,7.006c-3.574,0-6.532-0.836-8-2.113v15.113c0,2.243,3.514,4,8,4s8-1.757,8-4V4.894C14.532,6.17,11.574,7.006,8,7.006z
				"/>
			<path d="M8,0.006c-4.715,0-8,1.582-8,3c0,1.418,3.285,3,8,3s8-1.582,8-3C16,1.588,12.715,0.006,8,0.006z M8,4.006
				c-2.063,0-3.5-0.691-3.5-1.313c0-0.62,1.438-1.313,3.5-1.313s3.5,0.692,3.5,1.313C11.5,3.315,10.063,4.006,8,4.006z"/>
		</g>
		<g>
			<path d="M22.584,17.501l1.344-2.22c0.089-0.148,0.097-0.33,0.02-0.483l-1.388-2.776l1.387-2.754
				c0.077-0.153,0.071-0.333-0.016-0.479l-1.349-2.286l1.347-1.745c0.093-0.154,0.095-0.346,0.007-0.502
				C23.847,4.097,23.68,4,23.5,4H17v16h6.5c0.18,0,0.347-0.097,0.435-0.253c0.088-0.157,0.086-0.349-0.007-0.503L22.584,17.501z"/>
		</g>
	</g>
</g>
<g id="invisible_shape">
	<rect fill="none" width="24" height="24"/>
</g>
</svg>
