<?xml version="1.0" encoding="utf-8"?>
<!-- Generator: Adobe Illustrator 19.2.0, SVG Export Plug-In . SVG Version: 6.00 Build 0)  -->
<svg version="1.1" xmlns="http://www.w3.org/2000/svg" xmlns:xlink="http://www.w3.org/1999/xlink" x="0px" y="0px" width="24px"
	 height="24px" viewBox="0 0 24 24" enable-background="new 0 0 24 24" xml:space="preserve">
<g id="Filled_icons">
	<g>
		<path d="M9.5,20l-2,1L5,20l-2.5,1l-2-1c0,0.295,0.025,0.576,0.069,0.844C0.887,22.748,2.3,24,4,24h8.5
			C10.883,23.772,9.5,22.25,9.5,20z"/>
		<path d="M20,5c-0.124,0-0.5,0.532-0.5,1.5C19.5,7.469,19.876,8,20,8s0.5-0.531,0.5-1.5C20.5,5.532,20.124,5,20,5z"/>
		<path d="M20,1c-1.626,0-3,2.519-3,5.5c0,2.982,1.374,5.5,3,5.5s3-2.518,3-5.5C23,3.519,21.626,1,20,1z M20,9
			c-0.855,0-1.5-1.075-1.5-2.5S19.145,4,20,4s1.5,1.075,1.5,2.5S20.855,9,20,9z"/>
		<path d="M16.026,7H15c-0.276,0-0.5-0.224-0.5-0.5S14.724,6,15,6h1.015c0.15-3.144,1.701-6,3.985-6H8C5.47,0,4.162,3.331,4.015,6H6
			c0.276,0,0.5,0.224,0.5,0.5S6.276,7,6,7H4v7h2c0.276,0,0.5,0.224,0.5,0.5S6.276,15,6,15H4v4.323l0.814-0.325
			c0.119-0.048,0.252-0.048,0.371,0l2.27,0.907l2.321-1.161c0.331-0.167,0.724,0.076,0.724,0.447v0.704l0.003-0.001
			C10.578,21.619,12.006,23,13.75,23c1.792,0,3.25-1.458,3.25-3.25V15h-2c-0.276,0-0.5-0.224-0.5-0.5S14.724,14,15,14h2v-1h3
			C17.381,13,16.15,9.605,16.026,7z M9.5,15H8c-0.276,0-0.5-0.224-0.5-0.5S7.724,14,8,14h1.5c0.276,0,0.5,0.224,0.5,0.5
			S9.776,15,9.5,15z M9.5,7H8C7.724,7,7.5,6.776,7.5,6.5S7.724,6,8,6h1.5C9.776,6,10,6.224,10,6.5S9.776,7,9.5,7z M13,15h-1.5
			c-0.276,0-0.5-0.224-0.5-0.5s0.224-0.5,0.5-0.5H13c0.276,0,0.5,0.224,0.5,0.5S13.276,15,13,15z M13,7h-1.5
			C11.224,7,11,6.776,11,6.5S11.224,6,11.5,6H13c0.276,0,0.5,0.224,0.5,0.5S13.276,7,13,7z"/>
	</g>
</g>
<g id="invisible_shape">
	<rect fill="none" width="24" height="24"/>
</g>
</svg>
