<?xml version="1.0" encoding="utf-8"?>
<!-- Generator: Adobe Illustrator 19.2.0, SVG Export Plug-In . SVG Version: 6.00 Build 0)  -->
<svg version="1.1" xmlns="http://www.w3.org/2000/svg" xmlns:xlink="http://www.w3.org/1999/xlink" x="0px" y="0px" width="24px"
	 height="24px" viewBox="0 0 24 24" enable-background="new 0 0 24 24" xml:space="preserve">
<g id="Filled_icons">
	<g>
		<path d="M18.5,0h-13C4.121,0,3,1.122,3,2.5v1C3,3.776,3.224,4,3.5,4h17C20.776,4,21,3.776,21,3.5v-1C21,1.122,19.879,0,18.5,0z"/>
		<path d="M17.5,11h-11C5.121,11,4,12.122,4,13.5v1C4,14.776,4.224,15,4.5,15h15c0.276,0,0.5-0.224,0.5-0.5v-1
			C20,12.122,18.879,11,17.5,11z"/>
		<g>
			<path d="M19.273,16H4.727c0.504,1.744,1.848,3.177,3.611,3.738L7.513,23.39C7.441,23.7,7.678,24,8,24h8
				c0.322,0,0.559-0.3,0.487-0.61l-0.825-3.652C17.426,19.177,18.77,17.744,19.273,16z"/>
		</g>
		<g>
			<path d="M4.93,10.389C5.404,10.148,5.933,10,6.5,10h11c0.567,0,1.096,0.148,1.57,0.389L19.407,5H4.593L4.93,10.389z"/>
		</g>
	</g>
</g>
<g id="invisible_shape">
	<rect fill="none" width="24" height="24"/>
</g>
</svg>
