<?xml version="1.0" encoding="utf-8"?>
<!-- Generator: Adobe Illustrator 19.2.0, SVG Export Plug-In . SVG Version: 6.00 Build 0)  -->
<svg version="1.1" xmlns="http://www.w3.org/2000/svg" xmlns:xlink="http://www.w3.org/1999/xlink" x="0px" y="0px" width="24px"
	 height="24px" viewBox="0 0 24 24" enable-background="new 0 0 24 24" xml:space="preserve">
<g id="Filled_icons">
	<g>
		<path d="M6,9V6.5C6,5.523,6.289,3.999,7.189,3H5.5C3.019,3,1,5.019,1,7.5V9H6z"/>
		<path d="M17,6.5V9h5V7.5C22,5.019,19.981,3,17.5,3h-1.689C16.711,3.999,17,5.523,17,6.5z"/>
		<path d="M7,9h9V6.5C16,6.358,15.961,3,13.5,3h-4C7.039,3,7,6.358,7,6.501V9z"/>
		<path d="M14,14.5c0,0.276-0.224,0.5-0.5,0.5h-4C9.224,15,9,14.776,9,14.5V12H4v6h15v-6h-5V14.5z"/>
		<path d="M1,10v10.5C1,20.776,1.224,21,1.5,21h20c0.276,0,0.5-0.224,0.5-0.5V10H1z M11,11.5c0-0.276,0.224-0.5,0.5-0.5
			s0.5,0.224,0.5,0.5v1c0,0.276-0.224,0.5-0.5,0.5S11,12.776,11,12.5V11.5z M20,18.5c0,0.276-0.224,0.5-0.5,0.5h-16
			C3.224,19,3,18.776,3,18.5v-7C3,11.224,3.224,11,3.5,11h6c0.276,0,0.5,0.224,0.5,0.5V14h3v-2.5c0-0.276,0.224-0.5,0.5-0.5h6
			c0.276,0,0.5,0.224,0.5,0.5V18.5z"/>
	</g>
</g>
<g id="invisible_shape">
	<rect fill="none" width="24" height="24"/>
</g>
</svg>
