<?xml version="1.0" encoding="utf-8"?>
<!-- Generator: Adobe Illustrator 19.2.0, SVG Export Plug-In . SVG Version: 6.00 Build 0)  -->
<svg version="1.1" xmlns="http://www.w3.org/2000/svg" xmlns:xlink="http://www.w3.org/1999/xlink" x="0px" y="0px" width="24px"
	 height="24px" viewBox="0 0 24 24" enable-background="new 0 0 24 24" xml:space="preserve">
<g id="Filled_icons">
	<g>
		<path d="M2,10.5C2,10.224,1.776,10,1.5,10h-1C0.224,10,0,10.224,0,10.5S0.224,11,0.5,11h1C1.776,11,2,10.776,2,10.5z"/>
		<path d="M5.147,4.353C5.244,4.451,5.372,4.5,5.5,4.5s0.256-0.049,0.353-0.147c0.195-0.195,0.195-0.512,0-0.707l-1-1
			c-0.195-0.195-0.512-0.195-0.707,0c-0.195,0.195-0.195,0.512,0,0.707L5.147,4.353z"/>
		<path d="M11.5,3.5C11.776,3.5,12,3.276,12,3V1.5C12,1.224,11.776,1,11.5,1S11,1.224,11,1.5V3C11,3.276,11.224,3.5,11.5,3.5z"/>
		<path d="M17.5,4.5c0.128,0,0.256-0.049,0.354-0.147l1-1c0.195-0.195,0.195-0.512,0-0.707c-0.195-0.195-0.512-0.195-0.707,0l-1,1
			c-0.195,0.195-0.195,0.512,0,0.707C17.244,4.451,17.372,4.5,17.5,4.5z"/>
		<path d="M22.5,10h-1c-0.276,0-0.5,0.224-0.5,0.5s0.224,0.5,0.5,0.5h1c0.276,0,0.5-0.224,0.5-0.5S22.776,10,22.5,10z"/>
		<g>
			<path d="M21.5,12h-1.038c-0.081-0.661-0.319-1.202-0.729-1.599c-0.802-0.779-2.115-0.92-3.357-0.908C15.526,7,12.521,7,11.5,7
				S7.474,7,6.624,9.493c-1.245-0.016-2.557,0.128-3.357,0.908C2.857,10.798,2.619,11.339,2.538,12H1.5C1.224,12,1,12.224,1,12.5v11
				C1,23.776,1.224,24,1.5,24h20c0.276,0,0.5-0.224,0.5-0.5v-11C22,12.224,21.776,12,21.5,12z M3.964,11.118
				c0.621-0.605,1.941-0.651,3.022-0.618c0.218,0,0.449-0.157,0.501-0.39C7.817,8.651,9.055,8,11.5,8s3.683,0.651,4.013,2.11
				c0.051,0.228,0.254,0.39,0.487,0.39c0.005,0,0.01,0,0.014,0c1.084-0.03,2.399,0.013,3.022,0.619
				c0.222,0.214,0.358,0.508,0.421,0.881H3.543C3.605,11.627,3.742,11.333,3.964,11.118z M12,14.5v1c0,0.276-0.224,0.5-0.5,0.5
				S11,15.776,11,15.5v-1c0-0.276,0.224-0.5,0.5-0.5S12,14.224,12,14.5z M20,21.5c0,0.276-0.224,0.5-0.5,0.5h-16
				C3.224,22,3,21.776,3,21.5v-7C3,14.224,3.224,14,3.5,14h6c0.276,0,0.5,0.224,0.5,0.5V17h3v-2.5c0-0.276,0.224-0.5,0.5-0.5h6
				c0.276,0,0.5,0.224,0.5,0.5V21.5z"/>
			<path d="M14,17.5c0,0.276-0.224,0.5-0.5,0.5h-4C9.224,18,9,17.776,9,17.5V15H4v6h15v-6h-5V17.5z"/>
		</g>
	</g>
</g>
<g id="invisible_shape">
	<rect fill="none" width="24" height="24"/>
</g>
</svg>
