<?xml version="1.0" encoding="utf-8"?>
<!-- Generator: Adobe Illustrator 19.2.0, SVG Export Plug-In . SVG Version: 6.00 Build 0)  -->
<svg version="1.1" xmlns="http://www.w3.org/2000/svg" xmlns:xlink="http://www.w3.org/1999/xlink" x="0px" y="0px" width="24px"
	 height="24px" viewBox="0 0 24 24" enable-background="new 0 0 24 24" xml:space="preserve">
<g id="Filled_icons">
	<g>
		<path d="M11,10H3.913c-0.474,0.352-0.912,0.775-1.284,1.305C2.274,11.811,2.001,12.389,1.77,13H11V10z"/>
		<path d="M10,18c0.35,0,0.681,0.067,1,0.164V14H1.456c-0.614,2.458-0.377,5.504,0.765,8.67C2.293,22.867,2.48,23,2.691,23h4.16
			C6.633,22.544,6.5,22.04,6.5,21.5C6.5,19.571,8.07,18,10,18z"/>
		<path d="M22.975,23.342l-1-3C21.906,20.137,21.715,20,21.5,20H19V6.5C19,3.467,16.532,1,13.5,1S8,3.467,8,6.5V7H6.5
			C6.224,7,6,7.223,6,7.5V9h5V7.5C11,7.223,10.776,7,10.5,7H9V6.5C9,4.019,11.019,2,13.5,2S18,4.019,18,6.5V20h-2.5
			c-0.215,0-0.406,0.137-0.475,0.342l-1,3c-0.051,0.152-0.025,0.32,0.069,0.45C14.189,23.922,14.339,24,14.5,24h8
			c0.161,0,0.312-0.078,0.405-0.208C23,23.662,23.025,23.494,22.975,23.342z"/>
		<circle cx="10" cy="21.5" r="2.5"/>
	</g>
</g>
<g id="invisible_shape">
	<rect fill="none" width="24" height="24"/>
</g>
</svg>
