<?xml version="1.0" encoding="utf-8"?>
<!-- Generator: Adobe Illustrator 19.2.0, SVG Export Plug-In . SVG Version: 6.00 Build 0)  -->
<svg version="1.1" xmlns="http://www.w3.org/2000/svg" xmlns:xlink="http://www.w3.org/1999/xlink" x="0px" y="0px" width="24px"
	 height="24px" viewBox="0 0 24 24" enable-background="new 0 0 24 24" xml:space="preserve">
<g id="Filled_icons">
	<g>
		<g>
			<path d="M18.5,14.175c-0.276,0-0.5-0.224-0.5-0.5v-1.5c0-0.276,0.224-0.5,0.5-0.5s0.5,0.224,0.5,0.5v1.5
				C19,13.952,18.776,14.175,18.5,14.175z"/>
		</g>
		<g>
			<path d="M18.5,17.675c-0.276,0-0.5-0.224-0.5-0.5v-1.5c0-0.276,0.224-0.5,0.5-0.5s0.5,0.224,0.5,0.5v1.5
				C19,17.452,18.776,17.675,18.5,17.675z"/>
		</g>
		<g>
			<path d="M20.69,13.569l-0.642-1.355c-0.118-0.25-0.012-0.548,0.238-0.666c0.243-0.119,0.547-0.013,0.666,0.237l0.643,1.356
				c0.118,0.249,0.012,0.547-0.238,0.665C21.111,13.924,20.81,13.821,20.69,13.569z"/>
		</g>
		<g>
			<path d="M22.19,16.732l-0.642-1.355c-0.118-0.25-0.012-0.547,0.238-0.666c0.244-0.117,0.547-0.013,0.666,0.238l0.643,1.355
				c0.118,0.25,0.012,0.548-0.238,0.666C22.611,17.086,22.31,16.984,22.19,16.732z"/>
		</g>
		<g>
			<path d="M15.499,13.807c-0.249-0.119-0.355-0.417-0.236-0.665l0.644-1.356c0.118-0.25,0.417-0.354,0.666-0.237
				c0.249,0.119,0.355,0.417,0.236,0.666l-0.644,1.355C16.047,13.819,15.749,13.925,15.499,13.807z"/>
		</g>
		<g>
			<path d="M13.999,16.969c-0.249-0.119-0.355-0.417-0.237-0.666l0.644-1.355c0.119-0.251,0.418-0.354,0.667-0.238
				c0.249,0.119,0.355,0.417,0.237,0.666l-0.644,1.355C14.548,16.98,14.25,17.088,13.999,16.969z"/>
		</g>
		<path d="M6.239,22.978c-1.269,0.502-2.729-0.095-3.246-1.4c-0.51-1.281,0.112-2.735,1.4-3.247l2.568-1.02
			C6.887,17.128,6.709,17,6.5,17h-5C1.224,17,1,17.224,1,17.5v6C1,23.776,1.224,24,1.5,24h5C6.776,24,7,23.776,7,23.5v-0.825
			L6.239,22.978z"/>
		<path d="M10.894,18.44c-0.3-0.751-1.191-1.14-1.948-0.841l-4.182,1.662c-0.773,0.307-1.147,1.176-0.841,1.946
			c0.313,0.793,1.194,1.14,1.946,0.842l4.184-1.661C10.824,20.081,11.199,19.211,10.894,18.44z"/>
		<path d="M11,0C6.037,0,2,4.038,2,9v7h4V9c0-2.86,2.438-5.259,5.492-4.977C14.021,4.265,16,6.555,16,9.236V9.5
			c0,0.276,0.224,0.5,0.5,0.5h3c0.276,0,0.5-0.224,0.5-0.5V9C20,4.038,15.963,0,11,0z"/>
	</g>
</g>
<g id="invisible_shape">
	<rect fill="none" width="24" height="24"/>
</g>
</svg>
