<?xml version="1.0" encoding="utf-8"?>
<!-- Generator: Adobe Illustrator 19.2.0, SVG Export Plug-In . SVG Version: 6.00 Build 0)  -->
<svg version="1.1" xmlns="http://www.w3.org/2000/svg" xmlns:xlink="http://www.w3.org/1999/xlink" x="0px" y="0px" width="24px"
	 height="24px" viewBox="0 0 24 24" enable-background="new 0 0 24 24" xml:space="preserve">
<g id="Filled_icons">
	<g>
		<path d="M22.459,9.302l-1.821-4.215C20.09,3.819,18.843,3,17.461,3C15.553,3,14,4.552,14,6.46C14,7.867,12.358,9,11,9
			C7.591,9,3.96,3.292,3.923,3.234C3.805,3.046,3.575,2.957,3.361,3.02C3.148,3.082,3,3.277,3,3.5V8h2.5C5.776,8,6,8.224,6,8.5
			S5.776,9,5.5,9H3v0.484C3,9.657,3.015,9.83,3.025,10h3.476C6.776,10,7,10.224,7,10.5C7,10.776,6.776,11,6.5,11H6.499H3.141
			c0.062,0.342,0.142,0.674,0.243,1H7.5C7.776,12,8,12.224,8,12.5S7.776,13,7.5,13H3.772c1.276,2.79,4.012,4.777,7.228,4.966v2.049
			l-2.947-0.005l-1.119-1.777C6.842,18.088,6.683,18,6.511,18H2.5c-0.173,0-0.334,0.09-0.426,0.237
			c-0.091,0.147-0.099,0.331-0.021,0.486l0.639,1.277L2.001,20H2c-0.275,0-0.499,0.223-0.5,0.499C1.5,20.775,1.723,21,1.999,21
			l0.691,0.001l-0.638,1.275c-0.077,0.155-0.069,0.339,0.021,0.486C2.166,22.911,2.327,23,2.5,23h4.011
			c0.172,0,0.331-0.088,0.423-0.233L8.04,21H11v2.521C11,23.797,11.224,24,11.5,24s0.5-0.203,0.5-0.479V21h6.065l-1.344,1.092
			c-0.216,0.171-0.253,0.485-0.082,0.702c0.1,0.125,0.245,0.19,0.392,0.19c0.109,0,0.219-0.035,0.311-0.108l2.469-1.953
			c0.007-0.006,0.01-0.015,0.017-0.021c0.035-0.032,0.063-0.069,0.088-0.109c0.012-0.019,0.028-0.035,0.037-0.056
			c0.026-0.056,0.041-0.12,0.044-0.185c0-0.006,0.004-0.012,0.004-0.017v-0.002v-0.001c0-0.073-0.018-0.142-0.046-0.205
			c-0.008-0.018-0.022-0.032-0.032-0.049c-0.026-0.043-0.055-0.083-0.092-0.117c-0.006-0.005-0.008-0.014-0.015-0.019l-2.5-2.03
			c-0.214-0.174-0.529-0.142-0.703,0.073c-0.175,0.213-0.142,0.529,0.072,0.703l1.403,1.14L12,20.018v-2.052
			c4.149-0.268,7.716-3.82,7.983-7.966H22c0.168,0,0.325-0.085,0.418-0.226C22.511,9.634,22.525,9.456,22.459,9.302z M6.234,22
			H3.309l0.498-1h3.053L6.234,22z M3.809,20l-0.5-1h2.926l0.63,1H3.809z M17.5,8.25c-0.827,0-1.5-0.673-1.5-1.5s0.673-1.5,1.5-1.5
			S19,5.923,19,6.75S18.327,8.25,17.5,8.25z"/>
		<path d="M14.244,3.861c0.813-0.85,1.951-1.386,3.217-1.386c1.196,0,2.308,0.485,3.127,1.293l1.355-1.979
			c0.114-0.168,0.117-0.386,0.007-0.556c-0.109-0.17-0.314-0.254-0.51-0.219l-1.866,0.346l-1.785-1.262
			c-0.172-0.121-0.401-0.123-0.573-0.004l-1.831,1.268l-1.798-0.317c-0.189-0.036-0.383,0.045-0.495,0.205
			c-0.112,0.157-0.122,0.365-0.026,0.534L14.244,3.861z"/>
	</g>
</g>
<g id="invisible_shape">
	<rect fill="none" width="24" height="24"/>
</g>
</svg>
