<?xml version="1.0" encoding="utf-8"?>
<!-- Generator: Adobe Illustrator 19.2.0, SVG Export Plug-In . SVG Version: 6.00 Build 0)  -->
<svg version="1.1" xmlns="http://www.w3.org/2000/svg" xmlns:xlink="http://www.w3.org/1999/xlink" x="0px" y="0px" width="24px"
	 height="24px" viewBox="0 0 24 24" enable-background="new 0 0 24 24" xml:space="preserve">
<g id="Filled_icons">
	<path d="M23.98,20.369L20.608,8.57c-0.431-1.51-1.829-2.564-3.399-2.564h-2.765c0.65-0.637,1.056-1.521,1.056-2.5
		c0-1.929-1.57-3.5-3.5-3.5s-3.5,1.571-3.5,3.5c0,0.979,0.404,1.863,1.055,2.5H6.789c-1.571,0-2.969,1.054-3.4,2.564l-3.37,11.799
		C0.006,20.413,0,20.46,0,20.506v3c0,0.275,0.224,0.5,0.5,0.494h23c0.276,0.006,0.5-0.218,0.5-0.494v-3
		C24,20.46,23.993,20.413,23.98,20.369z M11.361,16.654c0.19,0.2,0.184,0.516-0.016,0.707C11.249,17.454,11.124,17.5,11,17.5
		c-0.132,0-0.263-0.052-0.361-0.154l-1.62-1.693V17c0,0.276-0.224,0.5-0.5,0.5c-0.276,0-0.5-0.224-0.519-0.5v-5.188
		c0.019-0.276,0.242-0.5,0.519-0.5c0.276,0,0.5,0.224,0.5,0.5v1.349l1.62-1.694c0.191-0.199,0.508-0.206,0.707-0.016
		c0.199,0.191,0.206,0.507,0.016,0.708l-2.15,2.248L11.361,16.654z M14,17.613c-1.977,0-2-2.208-2-3.15s0.023-3.15,2-3.15
		c0.675,0,1.543,0.283,1.847,1.631c0.062,0.269-0.108,0.537-0.377,0.597c-0.273,0.064-0.538-0.108-0.598-0.377
		c-0.159-0.707-0.464-0.851-0.872-0.851c-0.494,0-1,0.166-1,2.15s0.506,2.15,1,2.15c0.35,0,0.725-0.083,0.89-0.945h-0.878
		c-0.276,0-0.5-0.224-0.5-0.5c0-0.276,0.224-0.5,0.5-0.5h1.443c0.139,0,0.271,0.058,0.366,0.159
		c0.095,0.102,0.143,0.238,0.133,0.377C15.84,16.803,15.183,17.613,14,17.613z"/>
</g>
<g id="invisible_shape">
	<rect fill="none" width="24" height="24"/>
</g>
</svg>
