<?xml version="1.0" encoding="utf-8"?>
<!-- Generator: Adobe Illustrator 19.2.1, SVG Export Plug-In . SVG Version: 6.00 Build 0)  -->
<svg version="1.1" xmlns="http://www.w3.org/2000/svg" xmlns:xlink="http://www.w3.org/1999/xlink" x="0px" y="0px" width="24px"
	 height="24px" viewBox="0 0 24 24" enable-background="new 0 0 24 24" xml:space="preserve">
<g id="Filled_Icons">
	<g>
		<g>
			<rect x="14.11" y="16.231" transform="matrix(0.7071 -0.7071 0.7071 0.7071 -7.9549 17.7936)" width="6.781" height="4.535"/>
			<path d="M12.939,20.146l-0.92,3.217c-0.05,0.174-0.001,0.361,0.127,0.49C12.242,23.949,12.369,24,12.5,24
				c0.046,0,0.092-0.006,0.137-0.02l3.217-0.918L12.939,20.146z"/>
			<path d="M23.855,14.644l-2.5-2.5c-0.195-0.195-0.512-0.195-0.707,0l-1.646,1.647l3.207,3.207l1.646-1.646
				C24.051,15.156,24.051,14.84,23.855,14.644z"/>
		</g>
		<path d="M12.057,19.588c0.07-0.244,0.202-0.468,0.382-0.648L17,14.379V5.5c0-0.133-0.053-0.26-0.146-0.353l-5-5
			C11.76,0.053,11.632,0,11.5,0h-11C0.224,0,0,0.223,0,0.5v21C0,21.775,0.224,22,0.5,22h10.868L12.057,19.588z M11,1l5,5h-5V1z
			 M9,10h4c0.276,0,0.5,0.223,0.5,0.5c0,0.275-0.224,0.5-0.5,0.5H9c-0.276,0-0.5-0.225-0.5-0.5C8.5,10.223,8.724,10,9,10z
			 M7.853,12.868l-2.5,2.5c-0.195,0.195-0.512,0.195-0.707,0l-1.5-1.5c-0.195-0.195-0.195-0.513,0-0.707
			c0.195-0.195,0.512-0.195,0.707,0L5,14.307l2.147-2.145c0.195-0.195,0.512-0.195,0.707,0C8.049,12.356,8.049,12.673,7.853,12.868z
			 M7.853,8.854l-2.5,2.5c-0.195,0.195-0.512,0.195-0.707,0l-1.5-1.5c-0.195-0.195-0.195-0.512,0-0.707
			c0.195-0.195,0.512-0.195,0.707,0L5,10.293l2.147-2.147c0.195-0.195,0.512-0.195,0.707,0C8.049,8.342,8.049,8.658,7.853,8.854z
			 M8.5,14.5C8.5,14.223,8.724,14,9,14h4c0.276,0,0.5,0.223,0.5,0.5c0,0.275-0.224,0.5-0.5,0.5H9C8.724,15,8.5,14.775,8.5,14.5z"/>
	</g>
</g>
<g id="Invisible_Shape">
	<rect fill="none" width="24" height="24"/>
</g>
</svg>
