<?xml version="1.0" encoding="utf-8"?>
<!-- Generator: Adobe Illustrator 19.2.1, SVG Export Plug-In . SVG Version: 6.00 Build 0)  -->
<svg version="1.1" xmlns="http://www.w3.org/2000/svg" xmlns:xlink="http://www.w3.org/1999/xlink" x="0px" y="0px" width="24px"
	 height="24px" viewBox="0 0 24 24" enable-background="new 0 0 24 24" xml:space="preserve">
<g id="Filled_Icons">
	<g>
		<path d="M23.376,10.922c-0.105,0.016-2.612,0.371-4.919,1.384c-0.172,0.075-0.288,0.241-0.298,0.429
			c-0.002,0.019-0.114,1.746-1.159,2.172v-1.172c0-0.297-0.256-0.523-0.547-0.498c-1.2,0.115-4.579,3.572-3.397,6.465l-1.678,1.678
			c-0.586,0.585-0.586,1.535,0,2.12c0.586,0.587,1.535,0.587,2.121,0l1.933-1.933c2.678,0.209,6.912-3.152,8.502-10.037
			C24.01,11.189,23.725,10.875,23.376,10.922z M18.666,16.918l-5.875,5.875c-0.195,0.195-0.512,0.195-0.707,0
			c-0.195-0.195-0.195-0.512,0-0.707l5.875-5.875c0.195-0.195,0.512-0.195,0.707,0C18.861,16.406,18.861,16.723,18.666,16.918z"/>
		<path d="M10.67,20.67l1.251-1.249c-0.805-3.483,3.132-7.79,5.079-7.089V5.5c0-0.133-0.053-0.26-0.146-0.353l-5-5
			C11.76,0.053,11.632,0,11.5,0h-11C0.224,0,0,0.223,0,0.5v21C0,21.775,0.224,22,0.5,22h9.481
			C10.069,21.5,10.303,21.037,10.67,20.67z M11,1l5,5h-5V1z M9.501,10h4c0.276,0.015,0.5,0.238,0.5,0.515
			c0,0.276-0.224,0.5-0.5,0.485h-4c-0.276,0.015-0.5-0.209-0.5-0.485C9.001,10.238,9.225,10.015,9.501,10z M3.147,9.146
			c0.195-0.195,0.512-0.195,0.707,0L5,10.293l2.147-2.147c0.195-0.195,0.512-0.195,0.707,0c0.195,0.195,0.195,0.512,0,0.707
			l-2.5,2.5c-0.195,0.195-0.512,0.195-0.707,0l-1.5-1.5C2.951,9.658,2.951,9.342,3.147,9.146z M7.854,12.868l-2.5,2.5
			c-0.195,0.195-0.512,0.195-0.707,0l-1.5-1.5c-0.195-0.195-0.195-0.513,0-0.707c0.195-0.195,0.512-0.195,0.707,0l1.146,1.145
			l2.147-2.145c0.195-0.195,0.512-0.195,0.707,0C8.05,12.356,8.05,12.673,7.854,12.868z M9.001,14.515c0-0.276,0.224-0.5,0.5-0.515
			h2c0.276,0.015,0.5,0.238,0.5,0.515c0,0.276-0.224,0.5-0.5,0.5h-2C9.225,15.015,9.001,14.791,9.001,14.515z"/>
	</g>
</g>
<g id="Invisible_Shape">
	<rect fill="none" width="24" height="24"/>
</g>
</svg>
