<?xml version="1.0" encoding="utf-8"?>
<!-- Generator: Adobe Illustrator 19.2.1, SVG Export Plug-In . SVG Version: 6.00 Build 0)  -->
<svg version="1.1" xmlns="http://www.w3.org/2000/svg" xmlns:xlink="http://www.w3.org/1999/xlink" x="0px" y="0px" width="24px"
	 height="24px" viewBox="0 0 24 24" enable-background="new 0 0 24 24" xml:space="preserve">
<g id="Filled_Icons">
	<path d="M20.854,6.147l-6-6C14.76,0.053,14.633,0,14.5,0h-11C3.224,0,3,0.223,3,0.5v23C3,23.775,3.224,24,3.5,24h17
		c0.276,0,0.5-0.225,0.5-0.5v-17C21,6.367,20.947,6.24,20.854,6.147z M10.854,17.354l-2.5,2.5c-0.195,0.195-0.512,0.195-0.707,0
		l-1.5-1.5c-0.195-0.195-0.195-0.512,0-0.707c0.195-0.195,0.512-0.195,0.707,0L8,18.793l2.146-2.146
		c0.195-0.195,0.512-0.195,0.707,0C11.049,16.842,11.049,17.158,10.854,17.354z M10.854,12.854l-2.5,2.5
		c-0.195,0.195-0.512,0.195-0.707,0l-1.5-1.5c-0.195-0.195-0.195-0.512,0-0.707s0.512-0.195,0.707,0L8,14.293l2.146-2.147
		c0.195-0.195,0.512-0.195,0.707,0S11.049,12.658,10.854,12.854z M10.854,8.354l-2.5,2.5c-0.195,0.195-0.512,0.195-0.707,0l-1.5-1.5
		c-0.195-0.195-0.195-0.512,0-0.707s0.512-0.195,0.707,0L8,9.793l2.146-2.147c0.195-0.195,0.512-0.195,0.707,0
		S11.049,8.158,10.854,8.354z M16.5,19h-4c-0.276,0-0.5-0.225-0.5-0.5c0-0.277,0.224-0.5,0.5-0.5h4c0.276,0,0.5,0.223,0.5,0.5
		C17,18.775,16.776,19,16.5,19z M16.5,15h-4c-0.276,0-0.5-0.225-0.5-0.5c0-0.277,0.224-0.5,0.5-0.5h4c0.276,0,0.5,0.223,0.5,0.5
		C17,14.775,16.776,15,16.5,15z M16.5,11h-4c-0.276,0-0.5-0.225-0.5-0.5c0-0.277,0.224-0.5,0.5-0.5h4c0.276,0,0.5,0.223,0.5,0.5
		C17,10.775,16.776,11,16.5,11z M14,7V1l6,6H14z"/>
</g>
<g id="Invisible_Shape">
	<rect fill="none" width="24" height="24"/>
</g>
</svg>
