<?xml version="1.0" encoding="utf-8"?>
<!-- Generator: Adobe Illustrator 19.2.1, SVG Export Plug-In . SVG Version: 6.00 Build 0)  -->
<svg version="1.1" xmlns="http://www.w3.org/2000/svg" xmlns:xlink="http://www.w3.org/1999/xlink" x="0px" y="0px" width="24px"
	 height="24px" viewBox="0 0 24 24" enable-background="new 0 0 24 24" xml:space="preserve">
<g id="Filled_Icons">
	<g>
		<g>
			<path d="M10.521,16.354l-2.5-2.5c-0.195-0.195-0.195-0.512,0-0.707c0.195-0.195,0.512-0.195,0.707,0l2.105,2.106l4.276-5.348
				c0.173-0.215,0.488-0.25,0.703-0.077c0.215,0.171,0.25,0.486,0.078,0.702l-4.625,5.783C11.08,16.546,10.729,16.563,10.521,16.354
				z"/>
		</g>
		<g>
			<path d="M16.5,2h-2.05C14.217,0.86,13.208,0,12,0S9.783,0.86,9.55,2H7.5C7.224,2,7,2.223,7,2.5v4C7,6.775,7.224,7,7.5,7h9
				C16.776,7,17,6.775,17,6.5v-4C17,2.223,16.776,2,16.5,2z"/>
			<g>
				<path d="M21.5,3H18v2h1.5C19.776,5,20,5.223,20,5.5v12.001c0,0.12-0.044,0.237-0.124,0.329l-3.5,4
					c-0.095,0.109-0.233,0.171-0.376,0.171L4.5,22C4.224,22,4,21.775,4,21.5v-16C4,5.223,4.224,5,4.5,5H6V3H2.5
					C2.224,3,2,3.223,2,3.5v20C2,23.775,2.224,24,2.5,24h19c0.276,0,0.5-0.225,0.5-0.5v-20C22,3.223,21.776,3,21.5,3z"/>
			</g>
			<g>
				<path d="M19.3,17h-2.8c-0.276,0-0.5,0.223-0.5,0.5v3L19.3,17z"/>
			</g>
		</g>
	</g>
</g>
<g id="Invisible_Shape">
	<rect fill="none" width="24" height="24"/>
</g>
</svg>
