<?xml version="1.0" encoding="utf-8"?>
<!-- Generator: Adobe Illustrator 19.2.1, SVG Export Plug-In . SVG Version: 6.00 Build 0)  -->
<svg version="1.1" xmlns="http://www.w3.org/2000/svg" xmlns:xlink="http://www.w3.org/1999/xlink" x="0px" y="0px" width="24px"
	 height="24px" viewBox="0 0 24 24" enable-background="new 0 0 24 24" xml:space="preserve">
<g id="Filled_Icons">
	<g>
		<path d="M17,5V2h-3.05c-0.231-1.135-1.266-2-2.45-2c-1.183,0-2.219,0.863-2.45,2H6v3H17z"/>
		<path d="M20.5,2H18v19H5V2H2.5C2.224,2,2,2.223,2,2.5v21C2,23.775,2.224,24,2.5,24h18c0.276,0,0.5-0.225,0.5-0.5v-21
			C21,2.223,20.776,2,20.5,2z"/>
		<path d="M15.5,8h-6C9.224,8,9,8.223,9,8.5C9,8.775,9.224,9,9.5,9h6C15.776,9,16,8.775,16,8.5C16,8.223,15.776,8,15.5,8z"/>
		<path d="M15.5,11h-6C9.224,11,9,11.223,9,11.5C9,11.775,9.224,12,9.5,12h6c0.276,0,0.5-0.225,0.5-0.5C16,11.223,15.776,11,15.5,11
			z"/>
		<path d="M15.5,14h-6C9.224,14,9,14.223,9,14.5C9,14.775,9.224,15,9.5,15h6c0.276,0,0.5-0.225,0.5-0.5C16,14.223,15.776,14,15.5,14
			z"/>
		<path d="M15.5,17h-6C9.224,17,9,17.223,9,17.5C9,17.775,9.224,18,9.5,18h6c0.276,0,0.5-0.225,0.5-0.5C16,17.223,15.776,17,15.5,17
			z"/>
		<path d="M7.5,8H7C6.724,8,6.5,8.223,6.5,8.5C6.5,8.775,6.724,9,7,9h0.5C7.776,9,8,8.775,8,8.5C8,8.223,7.776,8,7.5,8z"/>
		<path d="M7.5,11H7c-0.276,0-0.5,0.223-0.5,0.5C6.5,11.775,6.724,12,7,12h0.5C7.776,12,8,11.775,8,11.5C8,11.223,7.776,11,7.5,11z"
			/>
		<path d="M7.5,14H7c-0.276,0-0.5,0.223-0.5,0.5C6.5,14.775,6.724,15,7,15h0.5C7.776,15,8,14.775,8,14.5C8,14.223,7.776,14,7.5,14z"
			/>
		<path d="M7.5,17H7c-0.276,0-0.5,0.223-0.5,0.5C6.5,17.775,6.724,18,7,18h0.5C7.776,18,8,17.775,8,17.5C8,17.223,7.776,17,7.5,17z"
			/>
	</g>
</g>
<g id="Invisible_Shape">
	<rect fill="none" width="24" height="24"/>
</g>
</svg>
