<?xml version="1.0" encoding="utf-8"?>
<!-- Generator: Adobe Illustrator 19.2.1, SVG Export Plug-In . SVG Version: 6.00 Build 0)  -->
<svg version="1.1" xmlns="http://www.w3.org/2000/svg" xmlns:xlink="http://www.w3.org/1999/xlink" x="0px" y="0px" width="24px"
	 height="24px" viewBox="0 0 24 24" enable-background="new 0 0 24 24" xml:space="preserve">
<g id="Filled_Icons">
	<g>
		<path d="M10.5,9h-5C5.224,9,5,9.223,5,9.5C5,9.775,5.224,10,5.5,10h5c0.276,0,0.5-0.225,0.5-0.5C11,9.223,10.776,9,10.5,9z"/>
		<path d="M10.5,11h-5C5.224,11,5,11.223,5,11.5C5,11.775,5.224,12,5.5,12h5c0.276,0,0.5-0.225,0.5-0.5C11,11.223,10.776,11,10.5,11
			z"/>
		<path d="M11,13.5c0-0.277-0.224-0.5-0.5-0.5h-5C5.224,13,5,13.223,5,13.5C5,13.775,5.224,14,5.5,14h5C10.776,14,11,13.775,11,13.5
			z"/>
		<path d="M5.5,15C5.224,15,5,15.223,5,15.5C5,15.775,5.224,16,5.5,16h3C8.776,16,9,15.775,9,15.5C9,15.223,8.776,15,8.5,15H5.5z"/>
		<path d="M4.5,7h8C12.776,7,13,6.775,13,6.5v-4C13,2.223,12.776,2,12.5,2h-1.545C10.736,0.771,9.753,0,8.5,0
			C7.265,0,6.272,0.752,6.045,2H4.5C4.224,2,4,2.223,4,2.5v4C4,6.775,4.224,7,4.5,7z"/>
		<path d="M17,12.025c0-2.668,0-5.33,0-8.525C17,3.223,16.776,3,16.5,3H14v10.262C14.831,12.574,15.866,12.129,17,12.025z"/>
		<path d="M12.213,19H3V3H0.5C0.224,3,0,3.223,0,3.5v16C0,20.878,1.122,22,2.5,22h11.848C13.327,21.283,12.562,20.229,12.213,19z"/>
		<path d="M23.854,23.146L21,20.293c0.616-0.77,1-1.733,1-2.793c0-2.481-2.018-4.5-4.499-4.5C15.019,13,13,15.019,13,17.5
			c0,2.48,2.019,4.5,4.501,4.5c1.059,0,2.022-0.385,2.792-1l2.854,2.854c0.195,0.194,0.512,0.194,0.707,0
			C24.049,23.658,24.049,23.342,23.854,23.146z M17.501,21C15.57,21,14,19.43,14,17.5s1.57-3.5,3.501-3.5C19.43,14,21,15.57,21,17.5
			S19.43,21,17.501,21z"/>
	</g>
</g>
<g id="Invisible_Shape">
	<rect fill="none" width="24" height="24"/>
</g>
</svg>
