<?xml version="1.0" encoding="utf-8"?>
<!-- Generator: Adobe Illustrator 19.2.1, SVG Export Plug-In . SVG Version: 6.00 Build 0)  -->
<svg version="1.1" xmlns="http://www.w3.org/2000/svg" xmlns:xlink="http://www.w3.org/1999/xlink" x="0px" y="0px" width="24px"
	 height="24px" viewBox="0 0 24 24" enable-background="new 0 0 24 24" xml:space="preserve">
<g id="Filled_Icons">
	<g>
		<path d="M10.5,9h-5C5.224,9,5,9.223,5,9.5C5,9.775,5.224,10,5.5,10h5c0.276,0,0.5-0.225,0.5-0.5C11,9.223,10.776,9,10.5,9z"/>
		<path d="M10.5,11h-5C5.224,11,5,11.223,5,11.5C5,11.775,5.224,12,5.5,12h5c0.276,0,0.5-0.225,0.5-0.5C11,11.223,10.776,11,10.5,11
			z"/>
		<path d="M11,13.5c0-0.277-0.224-0.5-0.5-0.5h-5C5.224,13,5,13.223,5,13.5C5,13.775,5.224,14,5.5,14h5C10.776,14,11,13.775,11,13.5
			z"/>
		<path d="M5.5,15C5.224,15,5,15.223,5,15.5C5,15.775,5.224,16,5.5,16h3C8.776,16,9,15.775,9,15.5C9,15.223,8.776,15,8.5,15H5.5z"/>
		<path d="M4.5,7h8C12.776,7,13,6.775,13,6.5v-4C13,2.223,12.776,2,12.5,2h-1.545C10.736,0.771,9.753,0,8.5,0
			C7.265,0,6.272,0.752,6.045,2H4.5C4.224,2,4,2.223,4,2.5v4C4,6.775,4.224,7,4.5,7z"/>
		<g>
			<path d="M12,19H3V3H0.5C0.224,3,0,3.223,0,3.5v16C0,20.878,1.122,22,2.5,22H12V19z"/>
			<path d="M14.028,14c0.193-1.734,1.379-3.164,2.972-3.731c0-2.103,0-4.271,0-6.769C17,3.223,16.776,3,16.5,3H14v11H14.028z"/>
		</g>
		<path d="M23.5,15H22v-0.5c0-1.93-1.57-3.5-3.5-3.5S15,12.57,15,14.5V15h-1.5c-0.276,0-0.5,0.223-0.5,0.5v8
			c0,0.275,0.224,0.5,0.5,0.5h10c0.276,0,0.5-0.225,0.5-0.5v-8C24,15.223,23.776,15,23.5,15z M19,19.348V21
			c0,0.275-0.224,0.5-0.5,0.5S18,21.275,18,21v-1.652c-0.293-0.176-0.5-0.483-0.5-0.848c0-0.551,0.448-1,1-1s1,0.449,1,1
			C19.5,18.865,19.293,19.172,19,19.348z M21,15h-5v-0.5c0-1.379,1.121-2.5,2.5-2.5s2.5,1.121,2.5,2.5V15z"/>
	</g>
</g>
<g id="Invisible_Shape">
	<rect fill="none" width="24" height="24"/>
</g>
</svg>
