<?xml version="1.0" encoding="utf-8"?>
<!-- Generator: Adobe Illustrator 19.2.1, SVG Export Plug-In . SVG Version: 6.00 Build 0)  -->
<svg version="1.1" xmlns="http://www.w3.org/2000/svg" xmlns:xlink="http://www.w3.org/1999/xlink" x="0px" y="0px" width="24px"
	 height="24px" viewBox="0 0 24 24" enable-background="new 0 0 24 24" xml:space="preserve">
<g id="Filled_Icons">
	<g>
		<path d="M10.5,9h-5C5.224,9,5,9.223,5,9.5C5,9.775,5.224,10,5.5,10h5c0.276,0,0.5-0.225,0.5-0.5C11,9.223,10.776,9,10.5,9z"/>
		<path d="M10.5,11h-5C5.224,11,5,11.223,5,11.5C5,11.775,5.224,12,5.5,12h5c0.276,0,0.5-0.225,0.5-0.5C11,11.223,10.776,11,10.5,11
			z"/>
		<path d="M11,13.5c0-0.277-0.224-0.5-0.5-0.5h-5C5.224,13,5,13.223,5,13.5C5,13.775,5.224,14,5.5,14h5C10.776,14,11,13.775,11,13.5
			z"/>
		<path d="M5.5,15C5.224,15,5,15.223,5,15.5C5,15.775,5.224,16,5.5,16h3C8.776,16,9,15.775,9,15.5C9,15.223,8.776,15,8.5,15H5.5z"/>
		<path d="M4.5,7h8C12.776,7,13,6.775,13,6.5v-4C13,2.223,12.776,2,12.5,2h-1.545C10.736,0.771,9.753,0,8.5,0
			C7.265,0,6.272,0.752,6.045,2H4.5C4.224,2,4,2.223,4,2.5v4C4,6.775,4.224,7,4.5,7z"/>
		<path d="M9.575,19H3V3H0.5C0.224,3,0,3.223,0,3.5v16C0,20.878,1.122,22,2.5,22h8.439C9.884,20.173,9.469,19.766,9.575,19z"/>
		<path d="M23.195,18.77l-0.765-0.442c0.093-0.612,0.092-1.044,0.001-1.653l0.766-0.441c0.234-0.133,0.324-0.438,0.183-0.683
			l-1.5-2.599c-0.138-0.239-0.443-0.322-0.683-0.182l-0.765,0.439c-0.43-0.344-0.912-0.623-1.433-0.827V11.5
			c0-0.277-0.224-0.5-0.5-0.5h-3c-0.276,0-0.5,0.223-0.5,0.5v0.882c-0.521,0.204-1.003,0.483-1.433,0.827l-0.765-0.439
			c-0.237-0.139-0.545-0.058-0.683,0.182l-1.5,2.599c-0.142,0.245-0.052,0.55,0.183,0.683l0.766,0.441
			c-0.091,0.609-0.092,1.041,0.001,1.653l-0.765,0.442c-0.239,0.137-0.321,0.442-0.183,0.682l1.5,2.599
			c0.137,0.241,0.446,0.319,0.683,0.183l0.765-0.441c0.429,0.344,0.911,0.623,1.431,0.828V23.5c0,0.275,0.224,0.5,0.5,0.5h3
			c0.276,0,0.5-0.225,0.5-0.5v-0.881c0.52-0.205,1.002-0.484,1.431-0.828l0.765,0.441c0.237,0.137,0.546,0.057,0.683-0.183
			l1.5-2.599C23.517,19.212,23.435,18.906,23.195,18.77z M17,20c-1.379,0-2.5-1.121-2.5-2.5S15.621,15,17,15s2.5,1.121,2.5,2.5
			S18.379,20,17,20z"/>
		<path d="M16.5,3H14c0,4.662,0,3.324,0,8h0.092c0.208-0.58,0.757-1,1.408-1H17c0-2.019,0-4.109,0-6.5C17,3.223,16.776,3,16.5,3z"/>
	</g>
</g>
<g id="Invisible_Shape">
	<rect fill="none" width="24" height="24"/>
</g>
</svg>
