<?xml version="1.0" encoding="utf-8"?>
<!-- Generator: Adobe Illustrator 19.2.1, SVG Export Plug-In . SVG Version: 6.00 Build 0)  -->
<svg version="1.1" xmlns="http://www.w3.org/2000/svg" xmlns:xlink="http://www.w3.org/1999/xlink" x="0px" y="0px" width="24px"
	 height="24px" viewBox="0 0 24 24" enable-background="new 0 0 24 24" xml:space="preserve">
<g id="Filled_Icons_1_">
	<g id="Filled_Icons">
		<g>
			<path d="M12,10c-1.102,0-2,0.898-2,2c0,1.102,0.898,2,2,2s2-0.898,2-2C14,10.898,13.102,10,12,10z"/>
			<path d="M8,2C7.447,2,7,2.447,7,3v2.586L1.707,0.293c-0.391-0.391-1.023-0.391-1.414,0c-0.391,0.391-0.391,1.023,0,1.414L5.586,7
				H3C2.447,7,2,7.447,2,8s0.447,1,1,1h5c0.553,0,1-0.447,1-1V3C9,2.447,8.553,2,8,2z"/>
			<path d="M22,8c0-0.553-0.447-1-1-1h-2.586l5.293-5.293c0.391-0.391,0.391-1.023,0-1.414c-0.391-0.391-1.023-0.391-1.414,0
				L17,5.586V3c0-0.553-0.447-1-1-1s-1,0.447-1,1v5c0,0.553,0.447,1,1,1h5C21.553,9,22,8.553,22,8z"/>
			<path d="M16,22c0.553,0,1-0.447,1-1v-2.586l5.293,5.293c0.391,0.391,1.023,0.391,1.414,0c0.391-0.391,0.391-1.023,0-1.414
				L18.414,17H21c0.553,0,1-0.447,1-1s-0.447-1-1-1h-5c-0.553,0-1,0.447-1,1v5C15,21.553,15.447,22,16,22z"/>
			<path d="M2,16c0,0.553,0.447,1,1,1h2.586l-5.293,5.293c-0.391,0.391-0.391,1.023,0,1.414c0.391,0.391,1.023,0.391,1.414,0
				L7,18.414V21c0,0.553,0.447,1,1,1s1-0.447,1-1v-5c0-0.553-0.447-1-1-1H3C2.447,15,2,15.447,2,16z"/>
		</g>
	</g>
	<g id="New_icons">
	</g>
</g>
<g id="Invisible_Shape">
	<rect fill="none" width="24" height="24"/>
</g>
</svg>
