<?xml version="1.0" encoding="utf-8"?>
<!-- Generator: Adobe Illustrator 19.2.1, SVG Export Plug-In . SVG Version: 6.00 Build 0)  -->
<svg version="1.1" xmlns="http://www.w3.org/2000/svg" xmlns:xlink="http://www.w3.org/1999/xlink" x="0px" y="0px" width="24px"
	 height="24px" viewBox="0 0 24 24" enable-background="new 0 0 24 24" xml:space="preserve">
<g id="Filled_Icons_1_">
	<g id="Filled_Icons">
		<g>
			<g>
				<path d="M11.207,11.207L11.207,11.207c-0.391,0.391-1.024,0.391-1.414,0l-7.499-7.5c-0.391-0.391-0.391-1.024,0-1.414l0,0
					c0.391-0.391,1.024-0.391,1.414,0l7.499,7.5C11.598,10.184,11.597,10.817,11.207,11.207z"/>
			</g>
			<path d="M22,15c-0.553,0-1,0.447-1,1v3.589l-5.797-5.79c-0.391-0.389-1.024-0.391-1.415,0c-0.39,0.393-0.39,1.025,0.001,1.416
				L19.581,21H16c-0.553,0-1,0.447-1,1s0.447,1,1,1h6c0.553,0,1-0.447,1-1v-6C23,15.447,22.553,15,22,15z"/>
			<path d="M22,2h-6c-0.553,0-1,0.447-1,1s0.447,1,1,1h3.551L2.293,21.292c-0.391,0.39-0.391,1.023,0,1.414
				c0.39,0.391,1.023,0.391,1.414,0L21,5.381V9c0,0.553,0.447,1,1,1s1-0.447,1-1V3C23,2.447,22.553,2,22,2z"/>
		</g>
	</g>
	<g id="New_icons">
	</g>
</g>
<g id="Invisible_Shape">
	<rect fill="none" width="24" height="24"/>
</g>
</svg>
