<?xml version="1.0" encoding="utf-8"?>
<!-- Generator: Adobe Illustrator 19.2.1, SVG Export Plug-In . SVG Version: 6.00 Build 0)  -->
<svg version="1.1" xmlns="http://www.w3.org/2000/svg" xmlns:xlink="http://www.w3.org/1999/xlink" x="0px" y="0px" width="24px"
	 height="24px" viewBox="0 0 24 24" enable-background="new 0 0 24 24" xml:space="preserve">
<g id="Filled_Icons_1_">
	<g id="Filled_Icons">
		<g>
			<path d="M15.707,14.294L22,20.586V19c0-0.551,0.448-1,1-1c0.553,0,1,0.449,1,1v4c0,0.565-0.463,1-1,1h-4c-0.552,0-1-0.447-1-1
				c0-0.551,0.448-1,1-1h1.586l-6.293-6.293c-0.391-0.391-0.391-1.023,0-1.413C14.684,13.902,15.317,13.902,15.707,14.294z"/>
			<path d="M0.988,0.002C0.992,0.002,0.996,0,1,0h4c0.553,0,1,0.449,1,1c0,0.553-0.447,1-1,1H3.414l0,0l5.792,5.793
				c0.392,0.39,0.392,1.023,0,1.414c-0.39,0.391-1.023,0.391-1.413,0L2,3.414v0.001V5c0,0.553-0.447,1-1,1C0.448,6,0,5.553,0,5V1
				C0,0.476,0.416,0.012,0.988,0.002z"/>
			<g>
				<path d="M7.793,15.707c-0.391-0.391-0.391-1.023,0-1.414l6.5-6.5c0.391-0.391,1.023-0.391,1.414,0
					c0.391,0.392,0.391,1.023,0,1.415l-6.499,6.499C8.816,16.098,8.184,16.098,7.793,15.707z"/>
			</g>
		</g>
	</g>
	<g id="New_icons">
	</g>
</g>
<g id="Invisible_Shape">
	<rect fill="none" width="24" height="24"/>
</g>
</svg>
