<?xml version="1.0" encoding="utf-8"?>
<!-- Generator: Adobe Illustrator 19.2.1, SVG Export Plug-In . SVG Version: 6.00 Build 0)  -->
<svg version="1.1" xmlns="http://www.w3.org/2000/svg" xmlns:xlink="http://www.w3.org/1999/xlink" x="0px" y="0px" width="24px"
	 height="24px" viewBox="0 0 24 24" enable-background="new 0 0 24 24" xml:space="preserve">
<g id="Filled_Icons_1_">
	<g id="Filled_Icons">
		<g>
			<path d="M8.293,14.294L2,20.586V19c0-0.551-0.448-1-1-1c-0.553,0-1,0.449-1,1v4c0,0.565,0.463,1,1,1h4c0.552,0,1-0.447,1-1
				c0-0.551-0.448-1-1-1H3.414l6.293-6.293c0.391-0.391,0.391-1.023,0-1.413C9.316,13.902,8.683,13.902,8.293,14.294z"/>
			<path d="M23.012,0.002C23.008,0.002,23.004,0,23,0h-4c-0.553,0-1,0.449-1,1c0,0.553,0.447,1,1,1h1.586l0,0l-5.792,5.793
				c-0.392,0.39-0.392,1.023,0,1.414c0.39,0.391,1.023,0.391,1.413,0L22,3.414v0.001V5c0,0.553,0.447,1,1,1c0.552,0,1-0.447,1-1V1
				C24,0.476,23.584,0.012,23.012,0.002z"/>
			<g>
				<path d="M16.207,15.707c0.391-0.391,0.391-1.023,0-1.414l-6.5-6.5c-0.391-0.391-1.023-0.391-1.414,0
					c-0.391,0.392-0.391,1.023,0,1.415l6.499,6.499C15.184,16.098,15.816,16.098,16.207,15.707z"/>
			</g>
		</g>
	</g>
	<g id="New_icons">
	</g>
</g>
<g id="Invisible_Shape">
	<rect fill="none" width="24" height="24"/>
</g>
</svg>
