<?xml version="1.0" encoding="utf-8"?>
<!-- Generator: Adobe Illustrator 19.2.1, SVG Export Plug-In . SVG Version: 6.00 Build 0)  -->
<svg version="1.1" xmlns="http://www.w3.org/2000/svg" xmlns:xlink="http://www.w3.org/1999/xlink" x="0px" y="0px" width="24px"
	 height="24px" viewBox="0 0 24 24" enable-background="new 0 0 24 24" xml:space="preserve">
<g id="Filled_Icons_1_">
	<g id="Filled_Icons">
		<g>
			<path d="M10.5,14h-10C0.224,14,0,14.225,0,14.5v9C0,23.777,0.224,24,0.5,24h10c0.275,0,0.5-0.223,0.5-0.5v-9
				C11,14.225,10.775,14,10.5,14z"/>
			<path d="M23,0h-5.5c-0.553,0-1,0.447-1,1s0.447,1,1,1h3.087l-9.294,9.293c-0.391,0.391-0.391,1.023,0,1.414
				c0.391,0.391,1.023,0.391,1.414,0L22,3.415V6.5c0,0.553,0.447,1,1,1s1-0.447,1-1V1C24,0.447,23.553,0,23,0z"/>
		</g>
	</g>
	<g id="New_icons">
	</g>
</g>
<g id="Invisible_Shape">
	<rect fill="none" width="24" height="24"/>
</g>
</svg>
