<?xml version="1.0" encoding="utf-8"?>
<!-- Generator: Adobe Illustrator 19.2.1, SVG Export Plug-In . SVG Version: 6.00 Build 0)  -->
<svg version="1.1" xmlns="http://www.w3.org/2000/svg" xmlns:xlink="http://www.w3.org/1999/xlink" x="0px" y="0px" width="24px"
	 height="24px" viewBox="0 0 24 24" enable-background="new 0 0 24 24" xml:space="preserve">
<g id="Filled_Icons_1_">
	<g id="Filled_Icons">
		<path d="M23,7c0.553,0,1-0.447,1-1V1c0-0.553-0.447-1-1-1h-5c-0.553,0-1,0.447-1,1s0.447,1,1,1h2.586L12,10.586L3.414,2H6
			c0.553,0,1-0.447,1-1S6.553,0,6,0H1C0.447,0,0,0.447,0,1v5c0,0.553,0.447,1,1,1s1-0.447,1-1V3.414L10.586,12L2,20.586V18
			c0-0.553-0.447-1-1-1s-1,0.447-1,1v5c0,0.553,0.447,1,1,1h5c0.553,0,1-0.447,1-1s-0.447-1-1-1H3.414L12,13.414L20.586,22H18
			c-0.553,0-1,0.447-1,1s0.447,1,1,1h5c0.553,0,1-0.447,1-1v-5c0-0.553-0.447-1-1-1s-1,0.447-1,1v2.586L13.414,12L22,3.414V6
			C22,6.553,22.447,7,23,7z"/>
	</g>
	<g id="New_icons">
	</g>
</g>
<g id="Invisible_Shape">
	<rect fill="none" width="24" height="24"/>
</g>
</svg>
