<?xml version="1.0" encoding="utf-8"?>
<!-- Generator: Adobe Illustrator 19.2.1, SVG Export Plug-In . SVG Version: 6.00 Build 0)  -->
<svg version="1.1" xmlns="http://www.w3.org/2000/svg" xmlns:xlink="http://www.w3.org/1999/xlink" x="0px" y="0px" width="24px"
	 height="24px" viewBox="0 0 24 24" enable-background="new 0 0 24 24" xml:space="preserve">
<g id="Filled_Icons_1_">
	<g id="Filled_Icons">
		<g>
			<path d="M12,7.5c-0.553,0-1,0.449-1,1v9c0,0.553,0.447,1,1,1c0.552,0,1-0.447,1-1v-9C13,7.949,12.552,7.5,12,7.5z"/>
			<path d="M10,13c0,0.551-0.448,1-1,1H3.414l1.293,1.293c0.391,0.391,0.391,1.023,0,1.413c-0.391,0.392-1.024,0.392-1.414,0l-3-3
				v0.001c-0.404-0.404-0.37-1.051,0-1.413l0,0l3-3c0.39-0.392,1.023-0.392,1.414,0c0.391,0.39,0.391,1.023,0,1.413L3.414,12H9
				C9.552,12,10,12.449,10,13z"/>
			<path d="M14,13c0,0.551,0.448,1,1,1h5.586l-1.293,1.293c-0.391,0.391-0.391,1.023,0,1.413c0.391,0.392,1.024,0.392,1.414,0l3-3
				v0.001c0.404-0.404,0.37-1.051,0-1.413l0,0l-3-3c-0.39-0.392-1.023-0.392-1.414,0c-0.391,0.39-0.391,1.023,0,1.413L20.586,12H15
				C14.448,12,14,12.449,14,13z"/>
		</g>
	</g>
	<g id="New_icons">
	</g>
</g>
<g id="Invisible_Shape">
	<rect fill="none" width="24" height="24"/>
</g>
</svg>
