<?xml version="1.0" encoding="utf-8"?>
<!-- Generator: Adobe Illustrator 19.2.1, SVG Export Plug-In . SVG Version: 6.00 Build 0)  -->
<svg version="1.1" xmlns="http://www.w3.org/2000/svg" xmlns:xlink="http://www.w3.org/1999/xlink" x="0px" y="0px" width="24px"
	 height="24px" viewBox="0 0 24 24" enable-background="new 0 0 24 24" xml:space="preserve">
<g id="Filled_Icons_1_">
	<g id="Filled_Icons">
		<path d="M20,3h-4c-0.553,0-1,0.447-1,1s0.447,1,1,1h1.586L5,17.586V16c0-0.553-0.447-1-1-1s-1,0.447-1,1v4c0,0.553,0.447,1,1,1h4
			c0.553,0,1-0.447,1-1s-0.447-1-1-1H6.414L19,6.414V8c0,0.553,0.447,1,1,1s1-0.447,1-1V4C21,3.447,20.553,3,20,3z"/>
	</g>
	<g id="New_icons">
	</g>
</g>
<g id="Invisible_Shape">
	<rect fill="none" width="24" height="24"/>
</g>
</svg>
