<?xml version="1.0" encoding="utf-8"?>
<!-- Generator: Adobe Illustrator 19.2.1, SVG Export Plug-In . SVG Version: 6.00 Build 0)  -->
<svg version="1.1" xmlns="http://www.w3.org/2000/svg" xmlns:xlink="http://www.w3.org/1999/xlink" x="0px" y="0px" width="24px"
	 height="24px" viewBox="0 0 24 24" enable-background="new 0 0 24 24" xml:space="preserve">
<g id="Filled_Icons_1_">
	<g id="Filled_Icons">
		<g>
			<path d="M18,22H5c-0.553,0-1,0.448-1,1c0,0.553,0.447,1,1,1h13c0.552,0,1-0.447,1-1C19,22.448,18.552,22,18,22z"/>
			<path d="M5,2h13c0.552,0,1-0.447,1-1c0-0.552-0.448-1-1-1H5C4.447,0,4,0.448,4,1C4,1.553,4.447,2,5,2z"/>
			<path d="M11.707,20.707l3-3c0.391-0.391,0.391-1.023,0-1.414c-0.391-0.391-1.023-0.391-1.414,0L12,17.586V6.414l1.293,1.293
				c0.391,0.391,1.023,0.391,1.414,0c0.391-0.391,0.391-1.023,0-1.414l-3-3c-0.391-0.391-1.023-0.391-1.414,0l-3,3
				c-0.391,0.391-0.391,1.023,0,1.414c0.391,0.391,1.023,0.391,1.414,0L10,6.414v11.172l-1.293-1.293
				c-0.391-0.391-1.023-0.391-1.414,0c-0.391,0.391-0.391,1.023,0,1.414l3,3C10.684,21.098,11.316,21.098,11.707,20.707z"/>
		</g>
	</g>
	<g id="New_icons">
	</g>
</g>
<g id="Invisible_Shape">
	<rect fill="none" width="24" height="24"/>
</g>
</svg>
