<?xml version="1.0" encoding="utf-8"?>
<!-- Generator: Adobe Illustrator 19.2.1, SVG Export Plug-In . SVG Version: 6.00 Build 0)  -->
<svg version="1.1" xmlns="http://www.w3.org/2000/svg" xmlns:xlink="http://www.w3.org/1999/xlink" x="0px" y="0px" width="24px"
	 height="24px" viewBox="0 0 24 24" enable-background="new 0 0 24 24" xml:space="preserve">
<g id="Filled_Icons_1_">
	<g id="Filled_Icons">
		<g>
			<path d="M9.766,12.781L2,20.58V16.5c0-0.552-0.447-1-1-1s-1,0.448-1,1V23v0.002C0,23.555,0.454,24,1,24h6.5c0.553,0,1-0.447,1-1
				c0-0.552-0.447-1-1-1H3.407l7.775-7.808c0.39-0.392,0.389-1.024-0.003-1.415C10.789,12.389,10.155,12.39,9.766,12.781z"/>
			<path d="M14.234,11.219L22,3.42V7.5c0,0.552,0.447,1,1,1s1-0.448,1-1V1V0.998C24,0.445,23.546,0,23,0h-6.5c-0.553,0-1,0.447-1,1
				c0,0.552,0.447,1,1,1h4.093l-7.775,7.808c-0.39,0.392-0.389,1.024,0.003,1.415C13.211,11.611,13.845,11.61,14.234,11.219z"/>
		</g>
	</g>
	<g id="New_icons">
	</g>
</g>
<g id="Invisible_Shape">
	<rect fill="none" width="24" height="24"/>
</g>
</svg>
