<?xml version="1.0" encoding="utf-8"?>
<!-- Generator: Adobe Illustrator 19.2.1, SVG Export Plug-In . SVG Version: 6.00 Build 0)  -->
<svg version="1.1" xmlns="http://www.w3.org/2000/svg" xmlns:xlink="http://www.w3.org/1999/xlink" x="0px" y="0px" width="24px"
	 height="24px" viewBox="0 0 24 24" enable-background="new 0 0 24 24" xml:space="preserve">
<g id="Filled_Icons_1_">
	<g id="Filled_Icons">
		<g>
			<path d="M20.707,8.293c-0.391-0.391-1.023-0.391-1.414,0c-0.391,0.391-0.391,1.023,0,1.414L20.586,11H15V1c0-0.552-0.447-1-1-1
				s-1,0.448-1,1v22c0,0.553,0.447,1,1,1s1-0.447,1-1V13h5.586l-1.293,1.293c-0.391,0.391-0.391,1.023,0,1.414
				c0.391,0.391,1.023,0.391,1.414,0l3-3c0.391-0.391,0.391-1.023,0-1.414L20.707,8.293z"/>
			<path d="M3.293,8.293c0.391-0.391,1.023-0.391,1.414,0c0.391,0.391,0.391,1.023,0,1.414L3.414,11H9V1c0-0.552,0.447-1,1-1
				s1,0.448,1,1v22c0,0.553-0.447,1-1,1s-1-0.447-1-1V13H3.414l1.293,1.293c0.391,0.391,0.391,1.023,0,1.414
				c-0.391,0.391-1.023,0.391-1.414,0l-3-3c-0.391-0.391-0.391-1.023,0-1.414L3.293,8.293z"/>
		</g>
	</g>
	<g id="New_icons">
	</g>
</g>
<g id="Invisible_Shape">
	<rect fill="none" width="24" height="24"/>
</g>
</svg>
