<?xml version="1.0" encoding="utf-8"?>
<!-- Generator: Adobe Illustrator 19.2.1, SVG Export Plug-In . SVG Version: 6.00 Build 0)  -->
<svg version="1.1" xmlns="http://www.w3.org/2000/svg" xmlns:xlink="http://www.w3.org/1999/xlink" x="0px" y="0px" width="24px"
	 height="24px" viewBox="0 0 24 24" enable-background="new 0 0 24 24" xml:space="preserve">
<g id="Filled_Icons_1_">
	<g id="Filled_Icons">
		<g>
			<path d="M9.707,8.293L3.414,2H6c0.553,0,1-0.447,1-1S6.553,0,6,0H1C0.447,0,0,0.447,0,1v5c0,0.553,0.447,1,1,1s1-0.447,1-1V3.414
				l6.293,6.293c0.391,0.391,1.023,0.391,1.414,0C10.098,9.316,10.098,8.684,9.707,8.293z"/>
			<path d="M14.293,8.293L20.586,2H18c-0.553,0-1-0.447-1-1s0.447-1,1-1h5c0.553,0,1,0.447,1,1v5c0,0.553-0.447,1-1,1s-1-0.447-1-1
				V3.414l-6.293,6.293c-0.391,0.391-1.023,0.391-1.414,0C13.902,9.316,13.902,8.684,14.293,8.293z"/>
			<path d="M8.293,14.293L2,20.586V18c0-0.553-0.447-1-1-1s-1,0.447-1,1v5c0,0.553,0.447,1,1,1h5c0.553,0,1-0.447,1-1s-0.447-1-1-1
				H3.414l6.293-6.293c0.391-0.391,0.391-1.023,0-1.414C9.316,13.902,8.684,13.902,8.293,14.293z"/>
			<path d="M15.707,14.293L22,20.586V18c0-0.553,0.447-1,1-1s1,0.447,1,1v5c0,0.553-0.447,1-1,1h-5c-0.553,0-1-0.447-1-1
				s0.447-1,1-1h2.586l-6.293-6.293c-0.391-0.391-0.391-1.023,0-1.414C14.684,13.902,15.316,13.902,15.707,14.293z"/>
		</g>
	</g>
	<g id="New_icons">
	</g>
</g>
<g id="Invisible_Shape">
	<rect fill="none" width="24" height="24"/>
</g>
</svg>
