<?xml version="1.0" encoding="utf-8"?>
<!-- Generator: Adobe Illustrator 19.2.1, SVG Export Plug-In . SVG Version: 6.00 Build 0)  -->
<svg version="1.1" xmlns="http://www.w3.org/2000/svg" xmlns:xlink="http://www.w3.org/1999/xlink" x="0px" y="0px" width="24px"
	 height="24px" viewBox="0 0 24 24" enable-background="new 0 0 24 24" xml:space="preserve">
<g id="Filled_Icons_1_">
	<g id="Filled_Icons">
		<g>
			<path d="M10,13H1.001C0.449,13,0,13.447,0,14v9c0,0.553,0.448,1,1,1h8.999C10.551,24,11,23.553,11,23v-9
				C11,13.447,10.552,13,10,13z M9,22H2v-7h7V22z"/>
			<path d="M10,0H1C0.447,0,0,0.448,0,1v9c0,0.553,0.447,1,1,1s1-0.447,1-1V2h8c0.553,0,1-0.447,1-1C11,0.448,10.553,0,10,0z"/>
			<path d="M23,0h-9c-0.553,0-1,0.448-1,1c0,0.553,0.447,1,1,1h8v8c0,0.553,0.447,1,1,1s1-0.447,1-1V1C24,0.448,23.553,0,23,0z"/>
			<path d="M23,13c-0.553,0-1,0.448-1,1v8h-8.001c-0.553,0-1,0.448-1,1c0,0.553,0.447,1,1,1H23c0.553,0,1-0.447,1-1v-9
				C24,13.448,23.553,13,23,13z"/>
		</g>
	</g>
	<g id="New_icons">
	</g>
</g>
<g id="Invisible_Shape">
	<rect fill="none" width="24" height="24"/>
</g>
</svg>
