<?xml version="1.0" encoding="utf-8"?>
<!-- Generator: Adobe Illustrator 19.2.1, SVG Export Plug-In . SVG Version: 6.00 Build 0)  -->
<svg version="1.1" xmlns="http://www.w3.org/2000/svg" xmlns:xlink="http://www.w3.org/1999/xlink" x="0px" y="0px" width="24px"
	 height="24px" viewBox="0 0 24 24" enable-background="new 0 0 24 24" xml:space="preserve">
<g id="Filled_Icons_1_">
	<g id="Filled_Icons">
		<g>
			<g>
				<path d="M1.027,4.5c-0.002,0-0.002,0-0.002,0c-0.553,0-1,0.447-1,0.998L0,18.498C-0.002,19.051,0.445,19.5,0.998,19.5h0.001
					c0.552,0,0.999-0.445,0.976-0.997L2,5.503C2.025,4.949,1.579,4.502,1.027,4.5z"/>
				<path d="M23,4.545c-0.553,0-1,0.448-1,1V18.5c0,0.553,0.447,1,1,1c0.552,0,1-0.447,1-1V5.545C24,4.993,23.552,4.545,23,4.545z"
					/>
			</g>
			<path d="M20.707,11.293l-3-3c-0.391-0.391-1.023-0.391-1.414,0c-0.391,0.391-0.391,1.023,0,1.414L17.586,11H6.414l1.293-1.293
				c0.391-0.391,0.391-1.023,0-1.414c-0.391-0.391-1.023-0.391-1.414,0l-3,3c-0.391,0.391-0.391,1.023,0,1.414l3,3
				c0.391,0.391,1.023,0.391,1.414,0c0.391-0.391,0.391-1.023,0-1.414L6.414,13h11.172l-1.293,1.293
				c-0.391,0.391-0.391,1.023,0,1.414c0.391,0.391,1.023,0.391,1.414,0l3-3C21.098,12.316,21.098,11.684,20.707,11.293z"/>
		</g>
	</g>
	<g id="New_icons">
	</g>
</g>
<g id="Invisible_Shape">
	<rect fill="none" width="24" height="24"/>
</g>
</svg>
