<?xml version="1.0" encoding="utf-8"?>
<!-- Generator: Adobe Illustrator 19.2.1, SVG Export Plug-In . SVG Version: 6.00 Build 0)  -->
<svg version="1.1" xmlns="http://www.w3.org/2000/svg" xmlns:xlink="http://www.w3.org/1999/xlink" x="0px" y="0px" width="24px"
	 height="24px" viewBox="0 0 24 24" enable-background="new 0 0 24 24" xml:space="preserve">
<g id="Filled_Icons_1_">
	<g id="Filled_Icons">
		<g>
			<path d="M15.707,20.707c0.391-0.391,0.391-1.023,0-1.414c-0.391-0.391-1.023-0.391-1.414,0L13,20.586V15h10c0.552,0,1-0.447,1-1
				s-0.448-1-1-1H1c-0.553,0-1,0.447-1,1s0.447,1,1,1h10v5.586l-1.293-1.293c-0.391-0.391-1.023-0.391-1.414,0
				c-0.391,0.391-0.391,1.023,0,1.414l3,3c0.391,0.391,1.023,0.391,1.414,0L15.707,20.707z"/>
			<path d="M15.707,3.293c0.391,0.391,0.391,1.023,0,1.414c-0.391,0.391-1.023,0.391-1.414,0L13,3.414V9h10c0.552,0,1,0.447,1,1
				s-0.448,1-1,1H1c-0.553,0-1-0.447-1-1s0.447-1,1-1h10V3.414L9.707,4.707c-0.391,0.391-1.023,0.391-1.414,0
				c-0.391-0.391-0.391-1.023,0-1.414l3-3c0.391-0.391,1.023-0.391,1.414,0L15.707,3.293z"/>
		</g>
	</g>
	<g id="New_icons">
	</g>
</g>
<g id="Invisible_Shape">
	<rect fill="none" width="24" height="24"/>
</g>
</svg>
