<?xml version="1.0" encoding="utf-8"?>
<!-- Generator: Adobe Illustrator 19.2.1, SVG Export Plug-In . SVG Version: 6.00 Build 0)  -->
<svg version="1.1" xmlns="http://www.w3.org/2000/svg" xmlns:xlink="http://www.w3.org/1999/xlink" x="0px" y="0px" width="24px"
	 height="24px" viewBox="0 0 24 24" enable-background="new 0 0 24 24" xml:space="preserve">
<g id="Filled_Icons_1_">
	<g id="Filled_Icons">
		<path d="M14.301,4.715c0.391,0.391,1.024,0.391,1.414,0c0.391-0.391,0.391-1.023,0-1.413l-3.008-3.001
			c-0.423-0.414-1.051-0.364-1.415,0L8.293,3.302c-0.391,0.39-0.391,1.022,0,1.413c0.39,0.391,1.023,0.391,1.414,0L11,3.423v7.585
			H1.004c-0.553,0-1,0.448-1,1c0,0.553,0.447,1,1,0.992H11v7.594l-1.293-1.292c-0.391-0.391-1.024-0.391-1.414,0
			c-0.391,0.39-0.391,1.022,0,1.413l2.999,3c0.369,0.377,1.011,0.404,1.415,0l3-3c0.391-0.391,0.391-1.023,0-1.413
			c-0.391-0.391-1.024-0.391-1.414,0L13,20.594V13h10.004c0.552,0.008,1-0.439,1-0.992c0-0.552-0.448-1-1-1H13V3.423L14.301,4.715z"
			/>
	</g>
	<g id="New_icons">
	</g>
</g>
<g id="Invisible_Shape">
	<rect fill="none" width="24" height="24"/>
</g>
</svg>
