<?xml version="1.0" encoding="utf-8"?>
<!-- Generator: Adobe Illustrator 19.2.1, SVG Export Plug-In . SVG Version: 6.00 Build 0)  -->
<svg version="1.1" xmlns="http://www.w3.org/2000/svg" xmlns:xlink="http://www.w3.org/1999/xlink" x="0px" y="0px" width="24px"
	 height="24px" viewBox="0 0 24 24" enable-background="new 0 0 24 24" xml:space="preserve">
<g id="Filled_Icons_1_">
	<g id="Filled_Icons">
		<path d="M19.294,14.297c-0.391,0.391-0.391,1.024,0,1.414c0.391,0.391,1.024,0.391,1.413,0l3.001-3.008
			c0.414-0.423,0.364-1.051,0-1.415l-3.001-2.999c-0.39-0.391-1.022-0.391-1.413,0c-0.391,0.39-0.391,1.023,0,1.414l1.292,1.293
			h-7.585V1c0-0.553-0.448-1-1-1c-0.553,0-1,0.447-0.992,1v9.996H3.415l1.292-1.293c0.391-0.391,0.391-1.024,0-1.414
			c-0.39-0.391-1.022-0.391-1.413,0l-3,2.999c-0.377,0.369-0.404,1.011,0,1.415l3,3c0.391,0.391,1.023,0.391,1.413,0
			c0.391-0.391,0.391-1.024,0-1.414l-1.292-1.293h7.594V23c-0.008,0.552,0.439,1,0.992,1c0.552,0,1-0.448,1-1V12.996h7.585
			L19.294,14.297z"/>
	</g>
	<g id="New_icons">
	</g>
</g>
<g id="Invisible_Shape">
	<rect fill="none" width="24" height="24"/>
</g>
</svg>
