<?xml version="1.0" encoding="utf-8"?>
<!-- Generator: Adobe Illustrator 19.2.1, SVG Export Plug-In . SVG Version: 6.00 Build 0)  -->
<svg version="1.1" xmlns="http://www.w3.org/2000/svg" xmlns:xlink="http://www.w3.org/1999/xlink" x="0px" y="0px" width="24px"
	 height="24px" viewBox="0 0 24 24" enable-background="new 0 0 24 24" xml:space="preserve">
<g id="Filled_Icons_1_">
	<g id="Filled_Icons">
		<g>
			<g>
				<circle cx="2" cy="3.832" r="1"/>
				<circle cx="2" cy="6.666" r="1"/>
				<circle cx="2" cy="9.5" r="1"/>
				<circle cx="22" cy="3.832" r="1"/>
				<circle cx="22" cy="6.666" r="1"/>
				<circle cx="22" cy="9.5" r="1"/>
				<circle cx="2" cy="1" r="1"/>
				<circle cx="5.333" cy="1" r="1"/>
				<circle cx="8.667" cy="1" r="1"/>
				<circle cx="12" cy="1" r="1"/>
				<circle cx="15.333" cy="1" r="1"/>
				<circle cx="18.667" cy="1" r="1"/>
				<circle cx="22" cy="1" r="1"/>
				<path d="M2,15c0.553,0,1,0.447,1,1v6h18v-6c0-0.553,0.447-1,1-1s1,0.447,1,1v7c0,0.552-0.447,1-1,1H2c-0.553,0-1-0.448-1-1v-7
					C1,15.447,1.447,15,2,15z"/>
				<path d="M23,14h-9.5c-0.553,0-1-0.448-1-1c0-0.553,0.447-1,1-1H23c0.553,0,1,0.447,1,1C24,13.552,23.553,14,23,14z"/>
				<path d="M8.5,13c0,0.552-0.447,1-1,1H1c-0.553,0-1-0.448-1-1c0-0.553,0.447-1,1-1h6.5C8.053,12,8.5,12.447,8.5,13z"/>
			</g>
			<path d="M14.166,10.255c-0.537,0.125-1.074-0.209-1.199-0.746l-0.404-1.732c-0.694,1.285-1.079,2.727-1.092,4.212
				c-0.014,2.175,0.756,4.28,2.173,5.927c0.36,0.419,0.311,1.049-0.108,1.411c-0.417,0.358-1.05,0.312-1.41-0.108
				c-1.732-2.013-2.674-4.588-2.655-7.244c0.015-1.766,0.457-3.484,1.265-5.026L9.363,7.268C8.824,7.393,8.287,7.059,8.162,6.521
				s0.209-1.075,0.746-1.201l3.896-0.908c0.539-0.125,1.075,0.208,1.201,0.746l0.908,3.897
				C15.039,9.592,14.705,10.129,14.166,10.255z"/>
		</g>
	</g>
	<g id="New_icons">
	</g>
</g>
<g id="Invisible_Shape">
	<rect fill="none" width="24" height="24"/>
</g>
</svg>
