<?xml version="1.0" encoding="utf-8"?>
<!-- Generator: Adobe Illustrator 19.2.1, SVG Export Plug-In . SVG Version: 6.00 Build 0)  -->
<svg version="1.1" xmlns="http://www.w3.org/2000/svg" xmlns:xlink="http://www.w3.org/1999/xlink" x="0px" y="0px" width="24px"
	 height="24px" viewBox="0 0 24 24" enable-background="new 0 0 24 24" xml:space="preserve">
<g id="Filled_Icons_1_">
	<g id="Filled_Icons">
		<g>
			<path d="M23,12H9c-0.553,0-1,0.448-1,1c0,0.553,0.447,1,1,1h14c0.553,0,1-0.447,1-1C24,12.448,23.553,12,23,12z"/>
			<path d="M15.854,16.146c-0.195-0.194-0.512-0.194-0.707,0l-7,7C7.833,23.463,8.055,24,8.5,24h14c0.445,0,0.667-0.537,0.354-0.854
				L15.854,16.146z"/>
			<path d="M15.146,8.854c0.195,0.194,0.512,0.194,0.707,0l7-7c0.313-0.316,0.092-0.854-0.354-0.854h-14
				c-0.445,0-0.667,0.537-0.354,0.854L15.146,8.854z"/>
			<path d="M7,18c-2.757,0-5-2.242-5-5c0-1.641,0.806-3.088,2.031-4l-0.3,0.36c-0.354,0.425-0.296,1.056,0.128,1.409
				c0.424,0.354,1.056,0.296,1.409-0.129l2.5-3c0.371-0.45,0.25-1.089-0.151-1.408C7.594,6.213,4.555,4.169,4.555,4.169
				C4.093,3.861,3.474,3.986,3.168,4.445c-0.307,0.461-0.183,1.08,0.277,1.387l0.991,0.662C1.843,7.519,0,10.047,0,13
				c0,3.86,3.141,7,7,7c0.553,0,1-0.447,1-1C8,18.448,7.553,18,7,18z"/>
		</g>
	</g>
	<g id="New_icons">
	</g>
</g>
<g id="Invisible_Shape">
	<rect fill="none" width="24" height="24"/>
</g>
</svg>
