<?xml version="1.0" encoding="utf-8"?>
<!-- Generator: Adobe Illustrator 19.2.1, SVG Export Plug-In . SVG Version: 6.00 Build 0)  -->
<svg version="1.1" xmlns="http://www.w3.org/2000/svg" xmlns:xlink="http://www.w3.org/1999/xlink" x="0px" y="0px" width="24px"
	 height="24px" viewBox="0 0 24 24" enable-background="new 0 0 24 24" xml:space="preserve">
<g id="Filled_Icons_1_">
	<g id="Filled_Icons">
		<g>
			<path d="M8,23.5v-23C8,0.224,7.775,0,7.5,0h-7C0.223,0,0,0.224,0,0.5v23c0,0.275,0.223,0.5,0.5,0.499h7C7.775,24,8,23.775,8,23.5
				z"/>
			<path d="M18.294,7.706L20.586,10H12c-0.552-0.001-1,0.447-1,0.999c0,0.553,0.448,1,1,1h8.586l-2.292,2.293
				c-0.392,0.391-0.392,1.024,0,1.414c0.39,0.391,1.023,0.391,1.413,0l4-3.999c0.375-0.368,0.406-1.008,0-1.415l-4-4
				c-0.391-0.391-1.023-0.391-1.413,0C17.902,6.683,17.902,7.316,18.294,7.706z"/>
		</g>
	</g>
	<g id="New_icons">
	</g>
</g>
<g id="Invisible_Shape">
	<rect fill="none" width="24" height="24"/>
</g>
</svg>
