<?xml version="1.0" encoding="utf-8"?>
<!-- Generator: Adobe Illustrator 19.2.1, SVG Export Plug-In . SVG Version: 6.00 Build 0)  -->
<svg version="1.1" xmlns="http://www.w3.org/2000/svg" xmlns:xlink="http://www.w3.org/1999/xlink" x="0px" y="0px" width="24px"
	 height="24px" viewBox="0 0 24 24" enable-background="new 0 0 24 24" xml:space="preserve">
<g id="Filled_Icons_1_">
	<g id="Filled_Icons">
		<g>
			<g>
				<path d="M4.5,22C4.776,22,5,22.223,5,22.5V23h0.5C5.776,23,6,23.223,6,23.5C6,23.775,5.776,24,5.5,24h-1
					C4.224,24,4,23.775,4,23.5v-1C4,22.223,4.224,22,4.5,22z"/>
				<path d="M10.5,24h-1C9.224,24,9,23.775,9,23.5C9,23.223,9.224,23,9.5,23H10v-0.5c0-0.277,0.224-0.5,0.5-0.5s0.5,0.223,0.5,0.5v1
					C11,23.775,10.776,24,10.5,24z"/>
				<path d="M10.5,19c-0.276,0-0.5-0.225-0.5-0.5V18H9.5C9.224,18,9,17.775,9,17.5C9,17.223,9.224,17,9.5,17h1
					c0.276,0,0.5,0.223,0.5,0.5v1C11,18.775,10.776,19,10.5,19z"/>
				<path d="M4.5,17h1C5.776,17,6,17.223,6,17.5C6,17.775,5.776,18,5.5,18H5v0.5C5,18.775,4.776,19,4.5,19S4,18.775,4,18.5v-1
					C4,17.223,4.224,17,4.5,17z"/>
				<path d="M4.5,14C4.776,14,5,14.223,5,14.5V15h0.5C5.776,15,6,15.223,6,15.5C6,15.775,5.776,16,5.5,16h-1
					C4.224,16,4,15.775,4,15.5v-1C4,14.223,4.224,14,4.5,14z"/>
				<path d="M10.5,16h-1C9.224,16,9,15.775,9,15.5C9,15.223,9.224,15,9.5,15H10v-0.5c0-0.277,0.224-0.5,0.5-0.5s0.5,0.223,0.5,0.5v1
					C11,15.775,10.776,16,10.5,16z"/>
				<path d="M10.5,11c-0.276,0-0.5-0.225-0.5-0.5V10H9.5C9.224,10,9,9.775,9,9.5C9,9.223,9.224,9,9.5,9h1C10.776,9,11,9.223,11,9.5
					v1C11,10.775,10.776,11,10.5,11z"/>
				<path d="M4.5,9h1C5.776,9,6,9.223,6,9.5C6,9.775,5.776,10,5.5,10H5v0.5C5,10.775,4.776,11,4.5,11S4,10.775,4,10.5v-1
					C4,9.223,4.224,9,4.5,9z"/>
				<path d="M10.5,8h-6C4.224,8,4,7.775,4,7.5v-6C4,1.223,4.224,1,4.5,1h6C10.776,1,11,1.223,11,1.5v6C11,7.775,10.776,8,10.5,8z"/>
				<circle cx="7.5" cy="23.5" r="0.5"/>
				<circle cx="10.5" cy="20.5" r="0.5"/>
				<circle cx="4.5" cy="20.5" r="0.5"/>
				<circle cx="7.5" cy="17.5" r="0.5"/>
				<circle cx="7.5" cy="15.5" r="0.5"/>
				<circle cx="10.5" cy="12.5" r="0.5"/>
				<circle cx="4.5" cy="12.5" r="0.5"/>
				<circle cx="7.5" cy="9.5" r="0.5"/>
			</g>
			<path d="M22.827,19.729c-0.121-0.542-0.654-0.88-1.194-0.762l-3.453,0.765c3.834-5.148,3.826-12.433-0.392-17.407
				C17.43,1.903,16.8,1.852,16.379,2.208c-0.422,0.357-0.474,0.988-0.116,1.409c3.642,4.294,3.609,10.608,0.231,15.032l0.255-3.876
				c0.034-0.551-0.382-1.025-0.933-1.062c-0.523-0.02-1.026,0.381-1.063,0.932l-0.44,6.682c-0.042,0.676,0.582,1.186,1.215,1.043
				l6.538-1.447C22.604,20.803,22.945,20.269,22.827,19.729z"/>
		</g>
	</g>
	<g id="New_icons">
	</g>
</g>
<g id="Invisible_Shape">
	<rect fill="none" width="24" height="24"/>
</g>
</svg>
