<?xml version="1.0" encoding="utf-8"?>
<!-- Generator: Adobe Illustrator 19.2.1, SVG Export Plug-In . SVG Version: 6.00 Build 0)  -->
<svg version="1.1" xmlns="http://www.w3.org/2000/svg" xmlns:xlink="http://www.w3.org/1999/xlink" x="0px" y="0px" width="24px"
	 height="24px" viewBox="0 0 24 24" enable-background="new 0 0 24 24" xml:space="preserve">
<g id="Filled_Icons_1_">
	<g id="Filled_Icons">
		<g>
			<path d="M19,10H1c-0.905,0-1.346-1.117-0.679-1.734l6.5-6c0.405-0.375,1.04-0.349,1.413,0.056
				c0.375,0.406,0.35,1.039-0.056,1.413L3.558,8H19c0.553,0,1,0.447,1,1S19.553,10,19,10z"/>
			<path d="M4,15c0-0.553,0.447-1,1-1h18c0.905,0,1.346,1.117,0.679,1.734l-6.5,6c-0.405,0.375-1.04,0.349-1.413-0.056
				c-0.375-0.406-0.35-1.039,0.056-1.413L20.442,16H5C4.447,16,4,15.553,4,15z"/>
		</g>
	</g>
	<g id="New_icons">
	</g>
</g>
<g id="Invisible_Shape">
	<rect fill="none" width="24" height="24"/>
</g>
</svg>
