<?xml version="1.0" encoding="utf-8"?>
<!-- Generator: Adobe Illustrator 19.2.1, SVG Export Plug-In . SVG Version: 6.00 Build 0)  -->
<svg version="1.1" xmlns="http://www.w3.org/2000/svg" xmlns:xlink="http://www.w3.org/1999/xlink" x="0px" y="0px" width="24px"
	 height="24px" viewBox="0 0 24 24" enable-background="new 0 0 24 24" xml:space="preserve">
<g id="Filled_Icons_1_">
	<g id="Filled_Icons">
		<g>
			<path d="M0,1v22c0,0.553,0.448,1,1,1c0.553,0,1-0.447,1-1V1c0-0.552-0.447-1-1-1C0.448,0,0,0.448,0,1z"/>
			<path d="M6.293,10.292c-0.377,0.369-0.404,1.011,0,1.415l4,4c0.391,0.391,1.023,0.391,1.413,0c0.392-0.391,0.392-1.024,0-1.414
				L9.414,12H23c0.552,0,1-0.448,1-1c0-0.553-0.448-1-1-1H9.414l2.292-2.293c0.392-0.391,0.392-1.024,0-1.414
				c-0.39-0.391-1.023-0.391-1.413,0L6.293,10.292z"/>
		</g>
	</g>
	<g id="New_icons">
	</g>
</g>
<g id="Invisible_Shape">
	<rect fill="none" width="24" height="24"/>
</g>
</svg>
