<?xml version="1.0" encoding="utf-8"?>
<!-- Generator: Adobe Illustrator 19.2.1, SVG Export Plug-In . SVG Version: 6.00 Build 0)  -->
<svg version="1.1" xmlns="http://www.w3.org/2000/svg" xmlns:xlink="http://www.w3.org/1999/xlink" x="0px" y="0px" width="24px"
	 height="24px" viewBox="0 0 24 24" enable-background="new 0 0 24 24" xml:space="preserve">
<g id="Filled_Icons_1_">
	<g id="Filled_Icons">
		<g>
			<path d="M15.294,18.294L13,20.586V12c0.001-0.552-0.447-1-0.999-1c-0.553,0-1,0.448-1,1v8.586l-2.293-2.292
				c-0.391-0.392-1.024-0.392-1.414,0c-0.391,0.39-0.391,1.023,0,1.413l3.999,4c0.368,0.375,1.008,0.406,1.415,0l4-4
				c0.391-0.391,0.391-1.023,0-1.413C16.317,17.902,15.684,17.902,15.294,18.294z"/>
			<path d="M23.501,0h-23c-0.276,0-0.5,0.225-0.5,0.5v7c0,0.277,0.224,0.5,0.5,0.5h23c0.275,0,0.5-0.223,0.499-0.5v-7
				C24.001,0.225,23.776,0,23.501,0z"/>
		</g>
	</g>
	<g id="New_icons">
	</g>
</g>
<g id="Invisible_Shape">
	<rect fill="none" width="24" height="24"/>
</g>
</svg>
