<?xml version="1.0" encoding="utf-8"?>
<!-- Generator: Adobe Illustrator 19.2.1, SVG Export Plug-In . SVG Version: 6.00 Build 0)  -->
<svg version="1.1" xmlns="http://www.w3.org/2000/svg" xmlns:xlink="http://www.w3.org/1999/xlink" x="0px" y="0px" width="24px"
	 height="24px" viewBox="0 0 24 24" enable-background="new 0 0 24 24" xml:space="preserve">
<g id="Filled_Icons_1_">
	<g id="Filled_Icons">
		<g>
			<path d="M24,1v22c0,0.553-0.448,1-1,1c-0.553,0-1-0.447-1-1V1c0-0.552,0.447-1,1-1C23.552,0,24,0.448,24,1z"/>
			<path d="M17.707,10.292c0.377,0.369,0.404,1.011,0,1.415l-4,4c-0.391,0.391-1.023,0.391-1.413,0
				c-0.392-0.391-0.392-1.024,0-1.414L14.586,12H1c-0.552,0-1-0.448-1-1c0-0.553,0.448-1,1-1h13.586l-2.292-2.293
				c-0.392-0.391-0.392-1.024,0-1.414c0.39-0.391,1.023-0.391,1.413,0L17.707,10.292z"/>
		</g>
	</g>
	<g id="New_icons">
	</g>
</g>
<g id="Invisible_Shape">
	<rect fill="none" width="24" height="24"/>
</g>
</svg>
