<?xml version="1.0" encoding="utf-8"?>
<!-- Generator: Adobe Illustrator 19.2.1, SVG Export Plug-In . SVG Version: 6.00 Build 0)  -->
<svg version="1.1" xmlns="http://www.w3.org/2000/svg" xmlns:xlink="http://www.w3.org/1999/xlink" x="0px" y="0px" width="24px"
	 height="24px" viewBox="0 0 24 24" enable-background="new 0 0 24 24" xml:space="preserve">
<g id="Filled_Icons_1_">
	<g id="Filled_Icons">
		<g>
			<path d="M16,23.5v-23C16,0.224,16.225,0,16.5,0h7C23.777,0,24,0.224,24,0.5v23c0,0.275-0.223,0.5-0.5,0.499h-7
				C16.225,24,16,23.775,16,23.5z"/>
			<path d="M5.706,7.706L3.414,10H12c0.552-0.001,1,0.447,1,0.999c0,0.553-0.448,1-1,1H3.414l2.292,2.293
				c0.392,0.391,0.392,1.024,0,1.414c-0.39,0.391-1.023,0.391-1.413,0l-4-3.999c-0.375-0.368-0.406-1.008,0-1.415l4-4
				c0.391-0.391,1.023-0.391,1.413,0C6.098,6.683,6.098,7.316,5.706,7.706z"/>
		</g>
	</g>
	<g id="New_icons">
	</g>
</g>
<g id="Invisible_Shape">
	<rect fill="none" width="24" height="24"/>
</g>
</svg>
