<?xml version="1.0" encoding="utf-8"?>
<!-- Generator: Adobe Illustrator 19.2.1, SVG Export Plug-In . SVG Version: 6.00 Build 0)  -->
<svg version="1.1" xmlns="http://www.w3.org/2000/svg" xmlns:xlink="http://www.w3.org/1999/xlink" x="0px" y="0px" width="24px"
	 height="24px" viewBox="0 0 24 24" enable-background="new 0 0 24 24" xml:space="preserve">
<g id="Filled_Icons_1_">
	<g id="Filled_Icons">
		<g>
			<path d="M21.207,22.294l-8.5-8.5c-0.391-0.392-1.023-0.392-1.414,0l-8.5,8.5c-0.391,0.39-0.391,1.023,0,1.413
				c0.391,0.392,1.023,0.392,1.414,0L12,15.915l7.793,7.792c0.391,0.392,1.023,0.392,1.414,0
				C21.598,23.316,21.598,22.684,21.207,22.294z"/>
			<path d="M21.207,1.706l-8.5,8.5c-0.391,0.392-1.023,0.392-1.414,0l-8.5-8.5c-0.391-0.39-0.391-1.023,0-1.413
				c0.391-0.392,1.023-0.392,1.414,0L12,8.085l7.793-7.792c0.391-0.392,1.023-0.392,1.414,0C21.598,0.684,21.598,1.316,21.207,1.706
				z"/>
		</g>
	</g>
	<g id="New_icons">
	</g>
</g>
<g id="Invisible_Shape">
	<rect fill="none" width="24" height="24"/>
</g>
</svg>
