<?xml version="1.0" encoding="utf-8"?>
<!-- Generator: Adobe Illustrator 19.2.1, SVG Export Plug-In . SVG Version: 6.00 Build 0)  -->
<svg version="1.1" xmlns="http://www.w3.org/2000/svg" xmlns:xlink="http://www.w3.org/1999/xlink" x="0px" y="0px" width="24px"
	 height="24px" viewBox="0 0 24 24" enable-background="new 0 0 24 24" xml:space="preserve">
<g id="Filled_Icons_1_">
	<g id="Filled_Icons">
		<g>
			<path d="M23,0c-0.553,0-1,0.448-1,1v10h-5.086l1.293-1.293c0.391-0.391,0.391-1.023,0-1.414c-0.391-0.391-1.023-0.391-1.414,0
				l-3,3c-0.391,0.391-0.391,1.023,0,1.414l3,3c0.391,0.391,1.023,0.391,1.414,0c0.391-0.391,0.391-1.023,0-1.414L16.914,13H22v10
				c0,0.553,0.447,1,1,1s1-0.447,1-1V1C24,0.448,23.553,0,23,0z"/>
			<path d="M8.207,8.293c-0.391-0.391-1.023-0.391-1.414,0c-0.391,0.391-0.391,1.023,0,1.414L8.086,11H2V1c0-0.552-0.447-1-1-1
				S0,0.448,0,1v22c0,0.553,0.447,1,1,1s1-0.447,1-1V13h6.086l-1.293,1.293c-0.391,0.391-0.391,1.023,0,1.414
				c0.391,0.391,1.023,0.391,1.414,0l3-3c0.391-0.391,0.391-1.023,0-1.414L8.207,8.293z"/>
		</g>
	</g>
	<g id="New_icons">
	</g>
</g>
<g id="Invisible_Shape">
	<rect fill="none" width="24" height="24"/>
</g>
</svg>
