<?xml version="1.0" encoding="utf-8"?>
<!-- Generator: Adobe Illustrator 19.2.1, SVG Export Plug-In . SVG Version: 6.00 Build 0)  -->
<svg version="1.1" xmlns="http://www.w3.org/2000/svg" xmlns:xlink="http://www.w3.org/1999/xlink" x="0px" y="0px" width="24px"
	 height="24px" viewBox="0 0 24 24" enable-background="new 0 0 24 24" xml:space="preserve">
<g id="Filled_Icons_1_">
	<g id="Filled_Icons">
		<g>
			<path d="M15,8H9C8.447,8,8,8.448,8,9v6c0,0.553,0.447,1,1,1h6c0.553,0,1-0.447,1-1V9C16,8.448,15.553,8,15,8z M14,14h-4v-4h4V14z
				"/>
			<path d="M8,22v-5c0-0.553-0.447-1-1-1H2c-0.553,0-1,0.447-1,1s0.447,1,1,1h2.586l-4.293,4.293c-0.391,0.391-0.391,1.023,0,1.414
				c0.391,0.391,1.023,0.391,1.414,0L6,19.414V22c0,0.553,0.447,1,1,1S8,22.553,8,22z"/>
			<path d="M16,22v-5c0-0.553,0.447-1,1-1h5c0.553,0,1,0.447,1,1s-0.447,1-1,1h-2.586l4.293,4.293c0.391,0.391,0.391,1.023,0,1.414
				c-0.391,0.391-1.023,0.391-1.414,0L18,19.414V22c0,0.553-0.447,1-1,1S16,22.553,16,22z"/>
			<path d="M16,2v5c0,0.553,0.447,1,1,1h5c0.553,0,1-0.447,1-1s-0.447-1-1-1h-2.586l4.293-4.293c0.391-0.391,0.391-1.023,0-1.414
				c-0.391-0.391-1.023-0.391-1.414,0L18,4.586V2c0-0.553-0.447-1-1-1S16,1.447,16,2z"/>
			<path d="M8,2v5c0,0.553-0.447,1-1,1H2C1.447,8,1,7.553,1,7s0.447-1,1-1h2.586L0.293,1.707c-0.391-0.391-0.391-1.023,0-1.414
				c0.391-0.391,1.023-0.391,1.414,0L6,4.586V2c0-0.553,0.447-1,1-1S8,1.447,8,2z"/>
		</g>
	</g>
	<g id="New_icons">
	</g>
</g>
<g id="Invisible_Shape">
	<rect fill="none" width="24" height="24"/>
</g>
</svg>
