<?xml version="1.0" encoding="utf-8"?>
<!-- Generator: Adobe Illustrator 19.2.1, SVG Export Plug-In . SVG Version: 6.00 Build 0)  -->
<svg version="1.1" xmlns="http://www.w3.org/2000/svg" xmlns:xlink="http://www.w3.org/1999/xlink" x="0px" y="0px" width="24px"
	 height="24px" viewBox="0 0 24 24" enable-background="new 0 0 24 24" xml:space="preserve">
<g id="Filled_Icons_1_">
	<g id="Filled_Icons">
		<g>
			<path d="M23.708,0.295c-0.39-0.393-1.023-0.393-1.414-0.003l-8.316,8.285V4c0-0.552-0.448-1-1-1c-0.552,0-1,0.448-0.977,1v7
				c-0.023,0.553,0.426,1,0.977,1h7c0.552,0,1-0.447,1-1c0-0.552-0.448-1-1-1h-4.596l8.323-8.291
				C24.097,1.318,24.098,0.686,23.708,0.295z"/>
			<path d="M0.295,23.708c-0.393-0.39-0.393-1.023-0.003-1.414l8.285-8.316H4c-0.552,0-1-0.448-1-1c0-0.552,0.448-1,1-0.977h7
				c0.553-0.023,1,0.426,1,0.977v7c0,0.552-0.447,1-1,1c-0.552,0-1-0.448-1-1v-4.596l-8.291,8.323
				C1.318,24.097,0.686,24.098,0.295,23.708z"/>
		</g>
	</g>
	<g id="New_icons">
	</g>
</g>
<g id="Invisible_Shape">
	<rect fill="none" width="24" height="24"/>
</g>
</svg>
