<?xml version="1.0" encoding="utf-8"?>
<!-- Generator: Adobe Illustrator 19.2.1, SVG Export Plug-In . SVG Version: 6.00 Build 0)  -->
<svg version="1.1" xmlns="http://www.w3.org/2000/svg" xmlns:xlink="http://www.w3.org/1999/xlink" x="0px" y="0px" width="24px"
	 height="24px" viewBox="0 0 24 24" enable-background="new 0 0 24 24" xml:space="preserve">
<g id="Filled_Icons_1_">
	<g id="Filled_Icons">
		<g>
			<path d="M0.293,1.707L6.586,8H4C3.447,8,3,8.447,3,9s0.447,1,1,1h5c0.553,0,1-0.447,1-1V4c0-0.553-0.447-1-1-1S8,3.447,8,4v2.586
				L1.707,0.293c-0.391-0.391-1.023-0.391-1.414,0C-0.098,0.684-0.098,1.316,0.293,1.707z"/>
			<path d="M23.707,1.707L17.414,8H20c0.553,0,1,0.447,1,1s-0.447,1-1,1h-5c-0.553,0-1-0.447-1-1V4c0-0.553,0.447-1,1-1s1,0.447,1,1
				v2.586l6.293-6.293c0.391-0.391,1.023-0.391,1.414,0C24.098,0.684,24.098,1.316,23.707,1.707z"/>
			<path d="M1.707,23.707L8,17.414V20c0,0.553,0.447,1,1,1s1-0.447,1-1v-5c0-0.553-0.447-1-1-1H4c-0.553,0-1,0.447-1,1s0.447,1,1,1
				h2.586l-6.293,6.293c-0.391,0.391-0.391,1.023,0,1.414C0.684,24.098,1.316,24.098,1.707,23.707z"/>
			<path d="M22.293,23.707L16,17.414V20c0,0.553-0.447,1-1,1s-1-0.447-1-1v-5c0-0.553,0.447-1,1-1h5c0.553,0,1,0.447,1,1
				s-0.447,1-1,1h-2.586l6.293,6.293c0.391,0.391,0.391,1.023,0,1.414C23.316,24.098,22.684,24.098,22.293,23.707z"/>
		</g>
	</g>
	<g id="New_icons">
	</g>
</g>
<g id="Invisible_Shape">
	<rect fill="none" width="24" height="24"/>
</g>
</svg>
