<?xml version="1.0" encoding="utf-8"?>
<!-- Generator: Adobe Illustrator 19.2.1, SVG Export Plug-In . SVG Version: 6.00 Build 0)  -->
<svg version="1.1" xmlns="http://www.w3.org/2000/svg" xmlns:xlink="http://www.w3.org/1999/xlink" x="0px" y="0px" width="24px"
	 height="24px" viewBox="0 0 24 24" enable-background="new 0 0 24 24" xml:space="preserve">
<g id="Filled_Icons_1_">
	<g id="Filled_Icons">
		<g>
			<path d="M23,0H1C0.447,0,0,0.448,0,1c0,0.553,0.447,1,1,1h10v5.587L9.707,6.294c-0.391-0.392-1.024-0.392-1.414,0
				c-0.391,0.39-0.391,1.023,0,1.413l2.999,3.001c0.368,0.375,1.008,0.406,1.415,0l3-3.001c0.391-0.391,0.391-1.023,0-1.413
				c-0.391-0.392-1.024-0.392-1.414,0l-1.294,1.293V2H13h10c0.553,0,1-0.447,1-1C24,0.448,23.553,0,23,0z"/>
			<path d="M23,24H1c-0.553,0-1-0.448-1-1c0-0.553,0.447-1,1-1h10v-5.587l-1.293,1.293c-0.391,0.392-1.024,0.392-1.414,0
				c-0.391-0.39-0.391-1.023,0-1.413l2.999-3.001c0.368-0.375,1.008-0.406,1.415,0l3,3.001c0.391,0.391,0.391,1.023,0,1.413
				c-0.391,0.392-1.024,0.392-1.414,0l-1.294-1.293V22H13h10c0.553,0,1,0.447,1,1C24,23.552,23.553,24,23,24z"/>
		</g>
	</g>
	<g id="New_icons">
	</g>
</g>
<g id="Invisible_Shape">
	<rect fill="none" width="24" height="24"/>
</g>
</svg>
