<?xml version="1.0" encoding="utf-8"?>
<!-- Generator: Adobe Illustrator 19.2.1, SVG Export Plug-In . SVG Version: 6.00 Build 0)  -->
<svg version="1.1" xmlns="http://www.w3.org/2000/svg" xmlns:xlink="http://www.w3.org/1999/xlink" x="0px" y="0px" width="24px"
	 height="24px" viewBox="0 0 24 24" enable-background="new 0 0 24 24" xml:space="preserve">
<g id="Filled_Icons_1_">
	<g id="Filled_Icons">
		<g>
			<path d="M14.125,5.219l-2.5-2c-0.365-0.291-0.885-0.291-1.25,0l-2.5,2C7.444,5.564,7.374,6.193,7.719,6.625
				c0.346,0.432,0.974,0.502,1.406,0.156L10,6.081V12.5c0,0.553,0.447,1,1,1s1-0.447,1-1V6.081l0.875,0.7
				c0.433,0.346,1.061,0.275,1.406-0.156C14.626,6.193,14.556,5.564,14.125,5.219z"/>
			<g>
				<path d="M11,21.5c-4.136,0-7.5-3.364-7.5-7.5c0-2.569,1.293-4.932,3.46-6.319c0.464-0.3,1.084-0.164,1.381,0.303
					c0.298,0.465,0.163,1.083-0.303,1.381C6.449,10.383,5.5,12.115,5.5,14c0,3.032,2.468,5.5,5.5,5.5s5.5-2.468,5.5-5.5
					c0-1.885-0.949-3.617-2.538-4.636c-0.466-0.298-0.601-0.916-0.303-1.381c0.297-0.465,0.916-0.602,1.381-0.303
					c2.167,1.388,3.46,3.75,3.46,6.319C18.5,18.136,15.136,21.5,11,21.5z"/>
			</g>
		</g>
	</g>
	<g id="New_icons">
	</g>
</g>
<g id="Invisible_Shape">
	<rect fill="none" width="24" height="24"/>
</g>
</svg>
