<?xml version="1.0" encoding="utf-8"?>
<!-- Generator: Adobe Illustrator 19.2.1, SVG Export Plug-In . SVG Version: 6.00 Build 0)  -->
<svg version="1.1" xmlns="http://www.w3.org/2000/svg" xmlns:xlink="http://www.w3.org/1999/xlink" x="0px" y="0px" width="24px"
	 height="24px" viewBox="0 0 24 24" enable-background="new 0 0 24 24" xml:space="preserve">
<g id="Filled_Icons_1_">
	<g id="Filled_Icons">
		<g>
			<path d="M15.47,6.117c-0.487-0.262-1.093-0.076-1.352,0.41c-0.261,0.488-0.076,1.094,0.41,1.354
				c2.455,1.313,3.978,3.853,3.973,6.634C18.492,18.645,15.129,22,11,22c-0.005,0-0.01,0-0.015,0
				C6.85,21.992,3.492,18.621,3.5,14.486c0.005-2.77,1.526-5.301,3.971-6.605c0.487-0.262,0.672-0.866,0.411-1.354
				c-0.261-0.486-0.865-0.674-1.354-0.41C3.434,7.769,1.506,10.975,1.5,14.482C1.489,19.721,5.743,23.99,10.981,24
				c0.006,0,0.012,0,0.018,0c5.231,0,9.49-4.25,9.501-9.481C20.506,10.996,18.579,7.777,15.47,6.117z"/>
			<path d="M14.707,3.293l-3-3c-0.391-0.391-1.023-0.391-1.414,0l-3,3c-0.391,0.391-0.391,1.023,0,1.414
				c0.391,0.391,1.023,0.391,1.414,0L10,3.414V10c0,0.553,0.447,1,1,1s1-0.447,1-1V3.414l1.293,1.293
				c0.391,0.391,1.023,0.391,1.414,0C15.098,4.316,15.098,3.684,14.707,3.293z"/>
		</g>
	</g>
	<g id="New_icons">
	</g>
</g>
<g id="Invisible_Shape">
	<rect fill="none" width="24" height="24"/>
</g>
</svg>
