<?xml version="1.0" encoding="utf-8"?>
<!-- Generator: Adobe Illustrator 19.2.1, SVG Export Plug-In . SVG Version: 6.00 Build 0)  -->
<svg version="1.1" xmlns="http://www.w3.org/2000/svg" xmlns:xlink="http://www.w3.org/1999/xlink" x="0px" y="0px" width="24px"
	 height="24px" viewBox="0 0 24 24" enable-background="new 0 0 24 24" xml:space="preserve">
<g id="Filled_Icon">
	<g>
		<circle cx="17.488" cy="8.5" r="1"/>
		<path d="M11.988,0c-6.617,0-12,5.383-12,12s5.383,12,12,12s12-5.383,12-12S18.604,0,11.988,0z M14.564,18.594
			C9.59,21.297,3.488,17.68,3.488,12c0-5.615,5.977-9.241,10.955-6.659c0.49,0.255,0.681,0.858,0.427,1.349
			c-0.255,0.49-0.858,0.679-1.349,0.427C9.866,5.221,5.488,7.887,5.488,12c0,4.166,4.476,6.816,8.121,4.837
			c0.487-0.264,1.092-0.084,1.356,0.401C15.229,17.724,15.049,18.33,14.564,18.594z M17.488,10.5c-1.103,0-2-0.898-2-2
			c0-1.103,0.897-2,2-2c1.103,0,2,0.897,2,2C19.488,9.602,18.591,10.5,17.488,10.5z"/>
	</g>
</g>
<g id="Invisible_Shape">
	<rect fill="none" width="24" height="24"/>
</g>
</svg>
