<?xml version="1.0" encoding="utf-8"?>
<!-- Generator: Adobe Illustrator 19.2.1, SVG Export Plug-In . SVG Version: 6.00 Build 0)  -->
<svg version="1.1" xmlns="http://www.w3.org/2000/svg" xmlns:xlink="http://www.w3.org/1999/xlink" x="0px" y="0px" width="24px"
	 height="24px" viewBox="0 0 24 24" enable-background="new 0 0 24 24" xml:space="preserve">
<g id="Filled_Icon">
	<g>
		<path d="M24.012,6.5L24.009,5c-3.677,0-7.164,2.027-8.506,4.127c0.354,0.358,0.663,0.764,0.933,1.195
			C18.342,7.616,20.821,6.5,24.012,6.5z"/>
		<path d="M24,1.5h0.002L24,0.508c-0.001-0.309-0.276-0.525-0.516-0.498c-4.986,0.157-9.527,2.572-12.458,6.625
			c-0.083,0.115-0.104,0.26-0.075,0.396c0.581,0.038,1.148,0.149,1.691,0.326C15.099,3.867,19.612,1.5,24,1.5z"/>
		<path d="M24,2.5c-4.583,0-8.407,2.566-10.406,5.252c0.408,0.201,0.793,0.442,1.154,0.718C16.323,6.143,20.123,4,24.007,4
			l-0.003-1.5H24z"/>
		<path d="M17.357,10.725c0.485,0.161,0.94,0.4,1.348,0.711c1.225-1.422,2.96-2.301,4.842-2.421c0.264-0.017,0.469-0.235,0.468-0.5
			L24.014,7.5C21.232,7.5,19.071,8.378,17.357,10.725z"/>
	</g>
	<path d="M19.348,16.051c0.68-2.229-0.99-4.54-3.398-4.515C13.452,6.107,5.477,7.309,4.574,13.113C1.939,13.555,0,15.811,0,18.518
		C0,21.541,2.467,24,5.5,24h11c2.481,0,4.5-2.01,4.5-4.482C21,18.172,20.389,16.902,19.348,16.051z"/>
</g>
<g id="Invisible_Shape">
	<rect fill="none" width="24" height="24"/>
</g>
</svg>
