<?xml version="1.0" encoding="utf-8"?>
<!-- Generator: Adobe Illustrator 19.2.1, SVG Export Plug-In . SVG Version: 6.00 Build 0)  -->
<svg version="1.1" xmlns="http://www.w3.org/2000/svg" xmlns:xlink="http://www.w3.org/1999/xlink" x="0px" y="0px" width="24px"
	 height="24px" viewBox="0 0 24 24" enable-background="new 0 0 24 24" xml:space="preserve">
<g id="Filled_Icon">
	<g>
		<path d="M4.246,10.592c0.708-0.611,1.543-1.086,2.481-1.348c0.561-2.142,2.133-3.867,4.139-4.699C10.041,3.605,8.846,3,7.5,3
			C5.019,3,3,5.019,3,7.5C3,8.699,3.478,9.783,4.246,10.592z"/>
		<path d="M22.348,13.018c0.698-2.287-1.078-4.57-3.398-4.516C16.452,3.072,8.477,4.273,7.574,10.08C4.939,10.519,3,12.777,3,15.483
			c0,2.177,1.283,4.058,3.132,4.94c0.197-0.462,2.416-2.591,2.806-2.982c0.585-0.588,1.535-0.589,2.121-0.004
			c0.588,0.588,0.677,1.447-0.208,2.334c0.162,0.111,0.29,0.264,0.398,0.432c0.193-0.297,2.415-2.486,2.689-2.762
			c0.584-0.588,1.534-0.589,2.121-0.004c0.588,0.588,0.677,1.447-0.208,2.334c0.162,0.111,0.29,0.264,0.398,0.432
			c0.193-0.297,2.415-2.486,2.689-2.762c0.584-0.588,1.535-0.589,2.121-0.004c0.588,0.588,0.677,1.447-0.208,2.334
			c0.259,0.179,0.448,0.411,0.559,0.756C22.935,19.809,24,18.273,24,16.483C24,15.137,23.389,13.868,22.348,13.018z"/>
		<path d="M15.353,18.146c-0.195-0.195-0.512-0.195-0.707,0l-2.5,2.508c-0.313,0.312-0.092,0.853,0.354,0.853h1.288l-1.641,1.631
			c-0.196,0.195-0.197,0.512-0.002,0.707c0.197,0.197,0.513,0.197,0.707,0.002l2.5-2.486c0.316-0.314,0.092-0.854-0.352-0.854
			h-1.295l1.649-1.655C15.549,18.658,15.549,18.342,15.353,18.146z"/>
		<path d="M10.354,18.146c-0.195-0.195-0.512-0.195-0.707,0l-2.5,2.508c-0.313,0.312-0.092,0.853,0.354,0.853h1.288l-1.641,1.631
			c-0.196,0.195-0.197,0.512-0.002,0.707c0.197,0.197,0.513,0.197,0.707,0.002l2.5-2.486c0.316-0.314,0.092-0.854-0.352-0.854H8.705
			l1.649-1.655C10.549,18.658,10.549,18.342,10.354,18.146z"/>
		<path d="M20.353,18.146c-0.195-0.195-0.512-0.195-0.707,0l-2.5,2.508c-0.313,0.312-0.092,0.853,0.354,0.853h1.288l-1.641,1.631
			c-0.196,0.195-0.197,0.512-0.002,0.707c0.197,0.197,0.513,0.197,0.707,0.002l2.5-2.486c0.316-0.314,0.092-0.854-0.353-0.854
			h-1.295l1.649-1.655C20.549,18.658,20.549,18.342,20.353,18.146z"/>
		<path d="M3.185,2.457L2.409,1.679C2.213,1.483,1.896,1.484,1.701,1.678c-0.195,0.197-0.195,0.514,0,0.708l0.776,0.778
			c0.194,0.193,0.511,0.195,0.708,0C3.38,2.969,3.38,2.652,3.185,2.457z"/>
		<path d="M12.509,3.164l0.776-0.778c0.195-0.194,0.195-0.511,0-0.708c-0.195-0.193-0.512-0.194-0.708,0.001l-0.776,0.778
			c-0.195,0.195-0.195,0.512,0,0.707C11.998,3.359,12.315,3.357,12.509,3.164z"/>
		<path d="M1.5,6h-1C0.224,6,0,6.225,0,6.5C0,6.777,0.224,7,0.5,7h1C1.776,7,2,6.777,2,6.5C2,6.225,1.776,6,1.5,6z"/>
		<path d="M7.5,2C7.776,2,8,1.777,8,1.5v-1C8,0.225,7.776,0,7.5,0S7,0.225,7,0.5v1C7,1.777,7.224,2,7.5,2z"/>
	</g>
</g>
<g id="Invisible_Shape">
	<rect fill="none" width="24" height="24"/>
</g>
</svg>
