<?xml version="1.0" encoding="utf-8"?>
<!-- Generator: Adobe Illustrator 19.2.1, SVG Export Plug-In . SVG Version: 6.00 Build 0)  -->
<svg version="1.1" xmlns="http://www.w3.org/2000/svg" xmlns:xlink="http://www.w3.org/1999/xlink" x="0px" y="0px" width="24px"
	 height="24px" viewBox="0 0 24 24" enable-background="new 0 0 24 24" xml:space="preserve">
<g id="Filled_Icon">
	<g>
		<g>
			<path d="M6.727,9.244c0.561-2.142,2.133-3.867,4.139-4.699C10.041,3.605,8.846,3,7.5,3C5.019,3,3,5.019,3,7.5
				c0,1.199,0.478,2.283,1.246,3.092C4.954,9.981,5.789,9.506,6.727,9.244z"/>
		</g>
		<g>
			<g>
				<path d="M19.5,23c-0.276,0-0.5,0.225-0.5,0.5c0,0.277,0.224,0.5,0.5,0.5s0.5-0.223,0.5-0.5C20,23.225,19.776,23,19.5,23L19.5,23
					z"/>
			</g>
		</g>
		<g>
			<g>
				<path d="M17.5,21.5c-0.276,0-0.5,0.225-0.5,0.5c0,0.277,0.224,0.5,0.5,0.5S18,22.277,18,22C18,21.725,17.776,21.5,17.5,21.5
					L17.5,21.5z"/>
			</g>
		</g>
		<g>
			<g>
				<path d="M9.5,21.5C9.224,21.5,9,21.725,9,22c0,0.277,0.224,0.5,0.5,0.5S10,22.277,10,22C10,21.725,9.776,21.5,9.5,21.5L9.5,21.5
					z"/>
			</g>
		</g>
		<g>
			<g>
				<path d="M7.5,23C7.224,23,7,23.225,7,23.5C7,23.777,7.224,24,7.5,24S8,23.777,8,23.5C8,23.225,7.776,23,7.5,23L7.5,23z"/>
			</g>
		</g>
		<g>
			<path d="M12.146,23.853c-0.195-0.194-0.194-0.511,0.002-0.706l1.641-1.632H12.5c-0.447,0-0.666-0.54-0.354-0.853l2.5-2.508
				c0.195-0.193,0.512-0.193,0.707,0c0.196,0.194,0.196,0.512,0.001,0.707l-1.649,1.653H15c0.444,0,0.669,0.54,0.352,0.854
				l-2.5,2.486C12.655,24.05,12.339,24.049,12.146,23.853z"/>
		</g>
		<g>
			<path d="M2.477,3.164L1.701,2.386c-0.195-0.194-0.195-0.511,0-0.708c0.195-0.193,0.512-0.194,0.707,0.001l0.776,0.778
				c0.195,0.195,0.195,0.512,0,0.707C2.988,3.359,2.671,3.357,2.477,3.164z"/>
		</g>
		<g>
			<path d="M11.802,3.164c-0.195-0.195-0.195-0.512,0-0.707l0.776-0.778c0.195-0.195,0.512-0.194,0.708-0.001
				c0.195,0.197,0.195,0.514,0,0.708l-0.776,0.778C12.315,3.357,11.998,3.359,11.802,3.164z"/>
		</g>
		<g>
			<path d="M1.5,7h-1C0.224,7,0,6.777,0,6.5C0,6.225,0.224,6,0.5,6h1C1.776,6,2,6.225,2,6.5C2,6.777,1.776,7,1.5,7z"/>
		</g>
		<g>
			<path d="M7.5,2C7.224,2,7,1.777,7,1.5v-1C7,0.225,7.224,0,7.5,0S8,0.225,8,0.5v1C8,1.777,7.776,2,7.5,2z"/>
		</g>
		<g>
			<path d="M22.348,13.018c0.694-2.277-1.063-4.57-3.398-4.516C16.452,3.072,8.477,4.273,7.574,10.08
				C4.939,10.519,3,12.777,3,15.483c0,3.024,2.467,5.482,5.5,5.482h2.517c0.013-0.372,0.148-0.735,0.421-1.011l2.5-2.506
				c0.585-0.588,1.535-0.588,2.121-0.004c0.589,0.588,0.676,1.443-0.208,2.334c0.379,0.262,0.622,0.666,0.638,1.186H19.5
				c2.481,0,4.5-2.011,4.5-4.482C24,15.137,23.389,13.868,22.348,13.018z M7.5,20.5C7.224,20.5,7,20.277,7,20
				c0-0.275,0.224-0.5,0.5-0.5S8,19.725,8,20C8,20.277,7.776,20.5,7.5,20.5z M9.5,19C9.224,19,9,18.777,9,18.5
				C9,18.225,9.224,18,9.5,18s0.5,0.225,0.5,0.5C10,18.777,9.776,19,9.5,19z M17.5,19c-0.276,0-0.5-0.223-0.5-0.5
				c0-0.275,0.224-0.5,0.5-0.5s0.5,0.225,0.5,0.5C18,18.777,17.776,19,17.5,19z M19.5,20.5c-0.276,0-0.5-0.223-0.5-0.5
				c0-0.275,0.224-0.5,0.5-0.5S20,19.725,20,20C20,20.277,19.776,20.5,19.5,20.5z"/>
		</g>
	</g>
</g>
<g id="Invisible_Shape">
	<rect fill="none" width="24" height="24"/>
</g>
</svg>
