<?xml version="1.0" encoding="utf-8"?>
<!-- Generator: Adobe Illustrator 19.2.1, SVG Export Plug-In . SVG Version: 6.00 Build 0)  -->
<svg version="1.1" xmlns="http://www.w3.org/2000/svg" xmlns:xlink="http://www.w3.org/1999/xlink" x="0px" y="0px" width="24px"
	 height="24px" viewBox="0 0 24 24" enable-background="new 0 0 24 24" xml:space="preserve">
<g id="Filled_Icon">
	<g>
		<g>
			<g>
				<g>
					<path d="M20.5,23c-0.275,0-0.5,0.225-0.5,0.5c0,0.277,0.225,0.5,0.5,0.5c0.277,0,0.5-0.223,0.5-0.5
						C21,23.225,20.777,23,20.5,23L20.5,23z"/>
				</g>
			</g>
			<g>
				<g>
					<path d="M14.5,21.5c-0.276,0-0.5,0.225-0.5,0.5c0,0.277,0.224,0.5,0.5,0.5S15,22.277,15,22C15,21.725,14.776,21.5,14.5,21.5
						L14.5,21.5z"/>
				</g>
			</g>
			<g>
				<g>
					<path d="M18.5,21.5c-0.275,0-0.5,0.225-0.5,0.5c0,0.277,0.225,0.5,0.5,0.5c0.277,0,0.5-0.223,0.5-0.5
						C19,21.725,18.777,21.5,18.5,21.5L18.5,21.5z"/>
				</g>
			</g>
			<g>
				<g>
					<path d="M16.5,23c-0.275,0-0.5,0.225-0.5,0.5c0,0.277,0.225,0.5,0.5,0.5c0.277,0,0.5-0.223,0.5-0.5
						C17,23.225,16.777,23,16.5,23L16.5,23z"/>
				</g>
			</g>
			<g>
				<g>
					<path d="M12.5,23c-0.276,0-0.5,0.225-0.5,0.5c0,0.277,0.224,0.5,0.5,0.5s0.5-0.223,0.5-0.5C13,23.225,12.776,23,12.5,23
						L12.5,23z"/>
				</g>
			</g>
			<g>
				<g>
					<path d="M10.5,21.5c-0.276,0-0.5,0.225-0.5,0.5c0,0.277,0.224,0.5,0.5,0.5S11,22.277,11,22C11,21.725,10.776,21.5,10.5,21.5
						L10.5,21.5z"/>
				</g>
			</g>
			<g>
				<g>
					<path d="M8.5,23C8.224,23,8,23.225,8,23.5C8,23.777,8.224,24,8.5,24S9,23.777,9,23.5C9,23.225,8.776,23,8.5,23L8.5,23z"/>
				</g>
			</g>
		</g>
		<g>
			<path d="M2.477,3.164L1.701,2.386c-0.195-0.194-0.195-0.511,0-0.708c0.195-0.193,0.512-0.194,0.707,0.001l0.776,0.778
				c0.195,0.195,0.195,0.512,0,0.707C2.988,3.359,2.671,3.357,2.477,3.164z"/>
		</g>
		<g>
			<path d="M11.802,3.164c-0.195-0.195-0.195-0.512,0-0.707l0.776-0.778c0.195-0.195,0.512-0.194,0.708-0.001
				c0.195,0.197,0.195,0.514,0,0.708l-0.776,0.778C12.315,3.357,11.998,3.359,11.802,3.164z"/>
		</g>
		<g>
			<path d="M1.5,7h-1C0.224,7,0,6.777,0,6.5C0,6.225,0.224,6,0.5,6h1C1.776,6,2,6.225,2,6.5C2,6.777,1.776,7,1.5,7z"/>
		</g>
		<g>
			<path d="M7.5,2C7.224,2,7,1.777,7,1.5v-1C7,0.225,7.224,0,7.5,0S8,0.225,8,0.5v1C8,1.777,7.776,2,7.5,2z"/>
		</g>
		<g>
			<path d="M6.727,9.261c0.562-2.146,2.138-3.874,4.149-4.702C10.051,3.611,8.852,3,7.5,3C5.019,3,3,5.019,3,7.5
				c0,1.205,0.481,2.293,1.254,3.102C4.961,9.994,5.793,9.521,6.727,9.261z"/>
		</g>
		<g>
			<path d="M22.348,13.033c0.685-2.242-1.014-4.552-3.398-4.515C16.452,3.09,8.477,4.291,7.574,10.096C4.939,10.537,3,12.793,3,15.5
				c0,3.023,2.467,5.482,5.5,5.482h11c2.481,0,4.5-2.011,4.5-4.482C24,15.154,23.389,13.885,22.348,13.033z M8.5,20.5
				C8.224,20.5,8,20.277,8,20c0-0.275,0.224-0.5,0.5-0.5S9,19.725,9,20C9,20.277,8.776,20.5,8.5,20.5z M10.5,19
				c-0.276,0-0.5-0.223-0.5-0.5c0-0.275,0.224-0.5,0.5-0.5s0.5,0.225,0.5,0.5C11,18.777,10.776,19,10.5,19z M12.5,20.5
				c-0.276,0-0.5-0.223-0.5-0.5c0-0.275,0.224-0.5,0.5-0.5S13,19.725,13,20C13,20.277,12.776,20.5,12.5,20.5z M14.5,19
				c-0.276,0-0.5-0.223-0.5-0.5c0-0.275,0.224-0.5,0.5-0.5s0.5,0.225,0.5,0.5C15,18.777,14.776,19,14.5,19z M16.5,20.5
				c-0.275,0-0.5-0.223-0.5-0.5c0-0.275,0.225-0.5,0.5-0.5c0.277,0,0.5,0.225,0.5,0.5C17,20.277,16.777,20.5,16.5,20.5z M18.5,19
				c-0.275,0-0.5-0.223-0.5-0.5c0-0.275,0.225-0.5,0.5-0.5c0.277,0,0.5,0.225,0.5,0.5C19,18.777,18.777,19,18.5,19z M20.5,20.5
				c-0.275,0-0.5-0.223-0.5-0.5c0-0.275,0.225-0.5,0.5-0.5c0.277,0,0.5,0.225,0.5,0.5C21,20.277,20.777,20.5,20.5,20.5z"/>
		</g>
	</g>
</g>
<g id="Invisible_Shape">
	<rect fill="none" width="24" height="24"/>
</g>
</svg>
