<?xml version="1.0" encoding="utf-8"?>
<!-- Generator: Adobe Illustrator 19.2.1, SVG Export Plug-In . SVG Version: 6.00 Build 0)  -->
<svg version="1.1" xmlns="http://www.w3.org/2000/svg" xmlns:xlink="http://www.w3.org/1999/xlink" x="0px" y="0px" width="24px"
	 height="24px" viewBox="0 0 24 24" enable-background="new 0 0 24 24" xml:space="preserve">
<g id="Filled_Icon">
	<g>
		<g>
			<path d="M6.728,9.244c0.561-2.142,2.132-3.867,4.139-4.699C10.042,3.605,8.846,3,7.5,3C5.019,3,3,5.019,3,7.5
				c0,1.199,0.478,2.284,1.246,3.092C4.955,9.981,5.79,9.506,6.728,9.244z"/>
		</g>
		<g>
			<g>
				<path d="M22.349,13.018c0.688-2.255-1.025-4.549-3.398-4.516C16.453,3.072,8.479,4.273,7.575,10.08
					c-2.634,0.439-4.574,2.697-4.574,5.403c0,2.122,1.218,3.962,2.992,4.874l2.946-2.947c0.586-0.586,1.535-0.586,2.121,0
					c0.424,0.424,0.53,1.035,0.341,1.564l1.536-1.541c0.585-0.587,1.535-0.588,2.121-0.002c0.59,0.588,0.675,1.447-0.208,2.333
					c0.355,0.245,0.598,0.634,0.642,1.093l3.447-3.447c0.586-0.586,1.535-0.586,2.121,0c0.586,0.586,0.586,1.535,0,2.121
					l-1.421,1.421c2.416-0.075,4.361-2.044,4.361-4.469C24.001,15.137,23.39,13.868,22.349,13.018z"/>
			</g>
		</g>
		<g>
			<path d="M11.146,23.838c-0.195-0.195-0.194-0.512,0.002-0.707l1.641-1.631H11.5c-0.446,0-0.666-0.539-0.354-0.854l2.5-2.506
				c0.195-0.195,0.512-0.195,0.707-0.002c0.196,0.195,0.196,0.512,0.001,0.707L12.705,20.5H14c0.444,0,0.669,0.541,0.352,0.855
				l-2.5,2.484C11.656,24.035,11.341,24.033,11.146,23.838z"/>
		</g>
		<g>
			<path d="M14.646,23.824c-0.195-0.195-0.195-0.512,0-0.707l5-5c0.195-0.195,0.512-0.195,0.707,0c0.195,0.195,0.195,0.512,0,0.707
				l-5,5C15.158,24.02,14.842,24.02,14.646,23.824z"/>
		</g>
		<g>
			<path d="M4.647,23.824c-0.195-0.195-0.195-0.512,0-0.707l5-5c0.195-0.195,0.512-0.195,0.707,0c0.195,0.195,0.195,0.512,0,0.707
				l-5,5C5.158,24.02,4.842,24.02,4.647,23.824z"/>
		</g>
		<g>
			<path d="M2.477,3.164L1.701,2.386c-0.195-0.194-0.195-0.511,0-0.708c0.195-0.193,0.512-0.194,0.707,0.001l0.776,0.778
				c0.195,0.195,0.195,0.512,0,0.707C2.988,3.359,2.671,3.357,2.477,3.164z"/>
		</g>
		<g>
			<path d="M11.802,3.164c-0.195-0.195-0.195-0.512,0-0.707l0.776-0.778c0.195-0.195,0.512-0.194,0.708-0.001
				c0.195,0.197,0.195,0.514,0,0.708l-0.776,0.778C12.315,3.357,11.998,3.359,11.802,3.164z"/>
		</g>
		<g>
			<path d="M1.5,7h-1C0.224,7,0,6.777,0,6.5C0,6.225,0.224,6,0.5,6h1C1.776,6,2,6.225,2,6.5C2,6.777,1.776,7,1.5,7z"/>
		</g>
		<g>
			<path d="M7.5,2C7.224,2,7,1.777,7,1.5v-1C7,0.225,7.224,0,7.5,0S8,0.225,8,0.5v1C8,1.777,7.776,2,7.5,2z"/>
		</g>
	</g>
</g>
<g id="Invisible_Shape">
	<rect fill="none" width="24" height="24"/>
</g>
</svg>
