<?xml version="1.0" encoding="utf-8"?>
<!-- Generator: Adobe Illustrator 19.2.1, SVG Export Plug-In . SVG Version: 6.00 Build 0)  -->
<svg version="1.1" xmlns="http://www.w3.org/2000/svg" xmlns:xlink="http://www.w3.org/1999/xlink" x="0px" y="0px" width="24px"
	 height="24px" viewBox="0 0 24 24" enable-background="new 0 0 24 24" xml:space="preserve">
<g id="Filled_Icon">
	<g>
		<path d="M4.246,10.592c0.708-0.611,1.543-1.086,2.481-1.348c0.561-2.142,2.133-3.867,4.139-4.699C10.041,3.605,8.846,3,7.5,3
			C5.019,3,3,5.019,3,7.5C3,8.699,3.478,9.783,4.246,10.592z"/>
		<path d="M20.854,18.855c0.195-0.195,0.195-0.512,0-0.707c-0.195-0.195-0.512-0.195-0.707,0l-3.901,3.901
			C15.526,21.865,15,22.408,15,23c0,0.551,0.449,1,1,1c0.592,0,1.134-0.529,0.951-1.242L20.854,18.855z"/>
		<path d="M15.854,18.855c0.195-0.195,0.195-0.512,0-0.707c-0.195-0.195-0.512-0.195-0.707,0l-2.901,2.901
			C11.526,20.865,11,21.408,11,22c0,0.551,0.449,1,1,1c0.592,0,1.134-0.529,0.951-1.242L15.854,18.855z"/>
		<path d="M10.854,18.855c0.195-0.195,0.195-0.512,0-0.707c-0.195-0.195-0.512-0.195-0.707,0L6.245,22.05
			C5.526,21.865,5,22.408,5,23c0,0.551,0.449,1,1,1c0.592,0,1.134-0.529,0.951-1.242L10.854,18.855z"/>
		<path d="M3.185,2.457L2.409,1.679C2.213,1.483,1.896,1.484,1.701,1.678c-0.195,0.197-0.195,0.514,0,0.708l0.776,0.778
			c0.194,0.193,0.511,0.195,0.708,0C3.38,2.969,3.38,2.652,3.185,2.457z"/>
		<path d="M12.509,3.164l0.776-0.778c0.195-0.194,0.195-0.511,0-0.708c-0.195-0.193-0.512-0.194-0.708,0.001l-0.776,0.778
			c-0.195,0.195-0.195,0.512,0,0.707C11.998,3.359,12.315,3.357,12.509,3.164z"/>
		<path d="M1.5,6h-1C0.224,6,0,6.225,0,6.5C0,6.777,0.224,7,0.5,7h1C1.776,7,2,6.777,2,6.5C2,6.225,1.776,6,1.5,6z"/>
		<path d="M7.5,2C7.776,2,8,1.777,8,1.5v-1C8,0.225,7.776,0,7.5,0S7,0.225,7,0.5v1C7,1.777,7.224,2,7.5,2z"/>
		<path d="M22.348,13.018c0.69-2.264-1.048-4.57-3.398-4.516C16.452,3.072,8.477,4.273,7.574,10.08C4.939,10.519,3,12.777,3,15.483
			c0,2.263,1.383,4.21,3.352,5.046l3.088-3.088c0.586-0.586,1.535-0.586,2.121,0c0.564,0.564,0.571,1.459,0.049,2.049
			c0.077,0.164,0.21,0.312,0.438,0.344l2.393-2.393c0.586-0.586,1.535-0.586,2.121,0c0.586,0.586,0.586,1.536,0,2.121l-1.403,1.403
			h0.758l3.525-3.524c0.586-0.586,1.535-0.586,2.121,0c0.586,0.586,0.586,1.536,0,2.121l-1.329,1.33
			C22.364,20.543,24,18.707,24,16.483C24,15.137,23.389,13.868,22.348,13.018z"/>
	</g>
</g>
<g id="Invisible_Shape">
	<rect fill="none" width="24" height="24"/>
</g>
</svg>
