<?xml version="1.0" encoding="utf-8"?>
<!-- Generator: Adobe Illustrator 19.2.1, SVG Export Plug-In . SVG Version: 6.00 Build 0)  -->
<svg version="1.1" xmlns="http://www.w3.org/2000/svg" xmlns:xlink="http://www.w3.org/1999/xlink" x="0px" y="0px" width="24px"
	 height="24px" viewBox="0 0 24 24" enable-background="new 0 0 24 24" xml:space="preserve">
<g id="Filled_Icon">
	<g>
		<path d="M4.246,10.592c0.708-0.611,1.543-1.086,2.481-1.348c0.561-2.142,2.133-3.867,4.139-4.699C10.041,3.605,8.846,3,7.5,3
			C5.019,3,3,5.019,3,7.5C3,8.699,3.478,9.783,4.246,10.592z"/>
		<path d="M3.185,2.457L2.408,1.68c-0.195-0.195-0.512-0.195-0.707,0s-0.195,0.512,0,0.707l0.776,0.777
			c0.195,0.195,0.512,0.195,0.707,0C3.38,2.968,3.38,2.651,3.185,2.457z"/>
		<path d="M12.509,3.164l0.776-0.777c0.195-0.195,0.195-0.512,0-0.707c-0.195-0.195-0.512-0.195-0.707,0l-0.776,0.777
			c-0.195,0.194-0.195,0.511,0,0.707C11.997,3.359,12.314,3.359,12.509,3.164z"/>
		<path d="M22.348,13.018c0.698-2.289-1.078-4.57-3.398-4.516C16.452,3.072,8.477,4.273,7.574,10.08C4.939,10.519,3,12.777,3,15.483
			c0,2.13,1.227,3.977,3.012,4.884l2.927-2.928c0.586-0.586,1.535-0.586,2.121,0c0.586,0.586,0.586,1.537,0,2.121l-1.405,1.405
			h0.758l3.526-3.526c0.586-0.586,1.535-0.586,2.121,0c0.586,0.586,0.586,1.537,0,2.121l-1.405,1.405h0.758l3.526-3.526
			c0.586-0.586,1.535-0.586,2.121,0c0.586,0.586,0.586,1.537,0,2.121l-1.388,1.388C22.072,20.855,24,18.896,24,16.483
			C24,15.137,23.389,13.868,22.348,13.018z"/>
		<path d="M10.354,18.146c-0.195-0.195-0.512-0.195-0.707,0l-5,5c-0.195,0.195-0.195,0.512,0,0.707c0.195,0.195,0.512,0.195,0.707,0
			l5-5C10.549,18.658,10.549,18.342,10.354,18.146z"/>
		<path d="M15.354,18.146c-0.195-0.195-0.512-0.195-0.707,0l-5,5c-0.195,0.195-0.195,0.512,0,0.707c0.195,0.195,0.512,0.195,0.707,0
			l5-5C15.549,18.658,15.549,18.342,15.354,18.146z"/>
		<path d="M20.354,18.146c-0.195-0.195-0.512-0.195-0.707,0l-5,5c-0.195,0.195-0.195,0.512,0,0.707c0.195,0.195,0.512,0.195,0.707,0
			l5-5C20.549,18.658,20.549,18.342,20.354,18.146z"/>
		<path d="M1.5,6h-1C0.224,6,0,6.225,0,6.5C0,6.777,0.224,7,0.5,7h1C1.776,7,2,6.777,2,6.5C2,6.225,1.776,6,1.5,6z"/>
		<path d="M7.5,2C7.776,2,8,1.777,8,1.5v-1C8,0.225,7.776,0,7.5,0S7,0.225,7,0.5v1C7,1.777,7.224,2,7.5,2z"/>
	</g>
</g>
<g id="Invisible_Shape">
	<rect fill="none" width="24" height="24"/>
</g>
</svg>
