<?xml version="1.0" encoding="utf-8"?>
<!-- Generator: Adobe Illustrator 19.2.1, SVG Export Plug-In . SVG Version: 6.00 Build 0)  -->
<svg version="1.1" xmlns="http://www.w3.org/2000/svg" xmlns:xlink="http://www.w3.org/1999/xlink" x="0px" y="0px" width="24px"
	 height="24px" viewBox="0 0 24 24" enable-background="new 0 0 24 24" xml:space="preserve">
<g id="Filled_Icon">
	<path d="M23.5,11H20V9h3c0.007,0,0.013,0,0.02,0c0.424,0,0.651-0.494,0.387-0.816L19.958,0.33c-0.16-0.363-0.756-0.363-0.916,0
		l-3.5,7.969C15.397,8.629,15.64,9,16,9h3v2h-4.988c-0.169,0-0.327,0.086-0.419,0.227l-1.731,2.667
		c-0.149,0.231-0.086,0.536,0.142,0.688l3.123,2.09l-2.365,1.988c-0.251,0.211-0.232,0.6,0.03,0.788l0.85,0.61l-2.063,2.016
		l0.332-1.992c0.038-0.23-0.087-0.455-0.303-0.545l-1.57-0.643l2.243-1.887c0.252-0.211,0.235-0.612-0.044-0.797l-3.267-2.185
		l1.462-2.254c0.215-0.33-0.023-0.771-0.42-0.771H5V9h3c0.006,0,0.013,0,0.02,0c0.424,0,0.651-0.494,0.387-0.816L4.958,0.33
		c-0.16-0.363-0.756-0.363-0.916,0l-3.5,7.969C0.397,8.629,0.64,9,1,9h3v2H0.5C0.224,11,0,11.225,0,11.5v12
		C0,23.777,0.224,24,0.5,24c8.541,0,14.428,0,23,0c0.276,0,0.5-0.223,0.5-0.5v-12C24,11.225,23.776,11,23.5,11z"/>
</g>
<g id="Invisible_Shape">
	<rect fill="none" width="24" height="24"/>
</g>
</svg>
