<?xml version="1.0" encoding="utf-8"?>
<!-- Generator: Adobe Illustrator 19.2.1, SVG Export Plug-In . SVG Version: 6.00 Build 0)  -->
<svg version="1.1" xmlns="http://www.w3.org/2000/svg" xmlns:xlink="http://www.w3.org/1999/xlink" x="0px" y="0px" width="24px"
	 height="24px" viewBox="0 0 24 24" enable-background="new 0 0 24 24" xml:space="preserve">
<g id="Filled_Icon">
	<g>
		<circle cx="17.5" cy="8.5" r="1"/>
		<path d="M12,0C5.383,0,0,5.383,0,12s5.383,12,12,12s12-5.383,12-12S18.617,0,12,0z M14,8H9v2h4c0.552,0,1,0.447,1,1s-0.448,1-1,1
			H9v6c0,0.553-0.448,1-1,1s-1-0.447-1-1V7c0-0.553,0.448-1,1-1h6c0.552,0,1,0.447,1,1S14.552,8,14,8z M17.5,10.5
			c-1.103,0-2-0.898-2-2s0.897-2,2-2s2,0.898,2,2S18.603,10.5,17.5,10.5z"/>
	</g>
</g>
<g id="Invisible_Shape">
	<rect fill="none" width="24" height="24"/>
</g>
</svg>
