<?xml version="1.0" encoding="utf-8"?>
<!-- Generator: Adobe Illustrator 19.2.1, SVG Export Plug-In . SVG Version: 6.00 Build 0)  -->
<svg version="1.1" xmlns="http://www.w3.org/2000/svg" xmlns:xlink="http://www.w3.org/1999/xlink" x="0px" y="0px" width="24px"
	 height="24px" viewBox="0 0 24 24" enable-background="new 0 0 24 24" xml:space="preserve">
<g id="Filled_Icon">
	<g>
		<path d="M20.012,5.773V1.5c0-0.275-0.224-0.5-0.5-0.5h-4.671L20.012,5.773z"/>
		<path d="M23.849,11.131l-11.5-11c-0.19-0.174-0.483-0.174-0.674,0l-11.5,11C-0.161,11.436,0.057,12,0.512,12h2.5v2.316
			c0.466-0.369,0.777-0.736,0.784-0.744c0.605-0.77,1.938-0.695,2.456,0.135c0.028,0.043,0.894,1.35,2.342,1.35
			c1.526,0,2.313-1.293,2.32-1.306c0.57-0.986,1.982-0.998,2.577-0.044c0.029,0.043,0.896,1.35,2.342,1.35
			c1.526,0,2.314-1.293,2.322-1.306c0.568-0.986,1.983-0.997,2.577-0.042c0.011,0.016,0.115,0.166,0.281,0.356V12h2.5
			C23.968,12,24.185,11.436,23.849,11.131z M14.012,8.5c0,0.277-0.224,0.5-0.5,0.5h-3c-0.276,0-0.5-0.223-0.5-0.5v-3
			c0-0.275,0.224-0.5,0.5-0.5h3c0.276,0,0.5,0.225,0.5,0.5V8.5z"/>
		<path d="M0.831,19.053c1.227,0.262,2.591-1.017,2.97-1.487c0.609-0.757,1.936-0.684,2.451,0.142
			c1.256,1.906,3.736,1.648,4.662,0.044c0.57-0.986,1.982-0.998,2.577-0.044c1.274,1.9,3.666,1.666,4.664,0.044
			c0.568-0.986,1.983-0.997,2.577-0.042c0.003,0.004,1.088,1.59,2.48,1.302c0.272-0.058,0.547-0.028,0.803,0.062l0.003-2.594
			c0-0.316-0.285-0.551-0.602-0.49c-2.131,0.439-3.478-1.662-3.534-1.754c-0.185-0.295-0.685-0.287-0.861,0.016
			c-1.3,2.229-4.66,2.565-6.38-0.016c-0.187-0.295-0.685-0.287-0.86,0.016c-1.299,2.244-4.739,2.55-6.378-0.016
			c-0.174-0.273-0.62-0.299-0.82-0.043c-0.018,0.022-1.838,2.292-3.958,1.84c-0.306-0.065-0.603,0.167-0.604,0.488l-0.004,2.598
			C0.274,19.025,0.555,18.994,0.831,19.053z"/>
		<path d="M23.415,19.99c-1.54,0.316-2.902-0.756-3.534-1.756c-0.185-0.295-0.685-0.287-0.861,0.016
			c-1.3,2.229-4.66,2.565-6.38-0.016c-0.187-0.297-0.685-0.287-0.86,0.016c-1.299,2.244-4.739,2.55-6.378-0.016
			c-0.173-0.274-0.618-0.299-0.82-0.043c-0.845,1.035-2.418,2.164-3.959,1.84c-0.316-0.065-0.603,0.176-0.604,0.488l-0.007,2.979
			c-0.001,0.133,0.052,0.261,0.146,0.354C0.252,23.947,0.379,24,0.512,24h23c0.276,0,0.5-0.223,0.5-0.499l0.005-3.021
			C24.017,20.158,23.722,19.926,23.415,19.99z"/>
	</g>
</g>
<g id="Invisible_Shape">
	<rect fill="none" width="24" height="24"/>
</g>
</svg>
