<?xml version="1.0" encoding="utf-8"?>
<!-- Generator: Adobe Illustrator 19.2.1, SVG Export Plug-In . SVG Version: 6.00 Build 0)  -->
<svg version="1.1" xmlns="http://www.w3.org/2000/svg" xmlns:xlink="http://www.w3.org/1999/xlink" x="0px" y="0px" width="24px"
	 height="24px" viewBox="0 0 24 24" enable-background="new 0 0 24 24" xml:space="preserve">
<g id="Filled_Icon">
	<g>
		<path d="M21.849,8.018c0.703-2.309-1.112-4.584-3.398-4.516C15.978-1.92,7.98-0.74,7.074,5.08C4.439,5.521,2.5,7.783,2.5,10.5
			C2.5,13.533,4.967,16,8,16h11c2.481,0,4.5-2.019,4.5-4.5C23.5,10.144,22.889,8.869,21.849,8.018z"/>
		<g>
			<path d="M20.354,18.146c-0.195-0.195-0.512-0.195-0.707,0l-3.903,3.902C15.03,21.866,14.5,22.408,14.5,23c0,0.551,0.449,1,1,1
				c0.599,0,1.137-0.541,0.951-1.242l3.903-3.904C20.549,18.658,20.549,18.342,20.354,18.146z"/>
			<path d="M6.647,18.148L2.745,22.05C2.026,21.865,1.5,22.408,1.5,23c0,0.551,0.449,1,1,1c0.592,0,1.134-0.529,0.951-1.242
				l3.902-3.902c0.195-0.195,0.195-0.512,0-0.707C7.158,17.953,6.842,17.953,6.647,18.148z"/>
			<path d="M12.853,18.139c-0.195-0.193-0.512-0.193-0.707,0.002l-2.5,2.506C9.334,20.961,9.554,21.5,10,21.5h1.288l-1.641,1.631
				c-0.196,0.195-0.197,0.512-0.002,0.707c0.196,0.195,0.51,0.197,0.707,0.002l2.5-2.484c0.316-0.314,0.092-0.855-0.352-0.855
				h-1.295l1.649-1.654C13.049,18.65,13.049,18.334,12.853,18.139z"/>
		</g>
	</g>
</g>
<g id="Invisible_Shape">
	<rect fill="none" width="24" height="24"/>
</g>
</svg>
