<?xml version="1.0" encoding="utf-8"?>
<!-- Generator: Adobe Illustrator 19.2.1, SVG Export Plug-In . SVG Version: 6.00 Build 0)  -->
<svg version="1.1" xmlns="http://www.w3.org/2000/svg" xmlns:xlink="http://www.w3.org/1999/xlink" x="0px" y="0px" width="24px"
	 height="24px" viewBox="0 0 24 24" enable-background="new 0 0 24 24" xml:space="preserve">
<g id="Filled_Icon">
	<g>
		<path d="M21.349,8.018c0.683-2.24-1.005-4.517-3.333-4.517c-0.021,0-0.044,0-0.065,0.001C15.455-1.924,7.477-0.73,6.573,5.08
			C3.94,5.521,2,7.783,2,10.5C2,13.532,4.467,16,7.5,16h11c2.481,0,4.5-2.019,4.5-4.5C23,10.144,22.389,8.869,21.349,8.018z"/>
		<path d="M16.146,18.148l-3.89,3.889C11.582,21.863,11,22.373,11,23c0,0.551,0.448,1,1,1c0.628,0,1.138-0.586,0.963-1.255
			l3.891-3.89c0.195-0.195,0.195-0.512,0-0.707C16.658,17.953,16.342,17.953,16.146,18.148z"/>
		<path d="M11.854,18.855c0.195-0.195,0.195-0.512,0-0.707c-0.195-0.195-0.512-0.195-0.707,0l-2.89,2.889
			C7.582,20.863,7,21.373,7,22c0,0.551,0.448,1,1,1c0.628,0,1.138-0.586,0.963-1.255L11.854,18.855z"/>
		<path d="M6.853,18.148c-0.195-0.195-0.512-0.195-0.707,0l-3.89,3.889C1.582,21.863,1,22.373,1,23c0,0.551,0.448,1,1,1
			c0.628,0,1.138-0.586,0.963-1.255l3.891-3.89C7.049,18.66,7.049,18.344,6.853,18.148z"/>
	</g>
</g>
<g id="Invisible_Shape">
	<rect fill="none" width="24" height="24"/>
</g>
</svg>
