<?xml version="1.0" encoding="utf-8"?>
<!-- Generator: Adobe Illustrator 19.2.1, SVG Export Plug-In . SVG Version: 6.00 Build 0)  -->
<svg version="1.1" xmlns="http://www.w3.org/2000/svg" xmlns:xlink="http://www.w3.org/1999/xlink" x="0px" y="0px" width="24px"
	 height="24px" viewBox="0 0 24 24" enable-background="new 0 0 24 24" xml:space="preserve">
<g id="Filled_Icon">
	<g>
		<path d="M20.5,0.5C20.5,0.225,20.276,0,20,0H0.5C0.224,0,0,0.225,0,0.5C0,0.777,0.224,1,0.5,1H20C20.276,1,20.5,0.777,20.5,0.5z"
			/>
		<path d="M3.5,3.5C3.5,3.777,3.724,4,4,4h18c0.276,0,0.5-0.223,0.5-0.5C22.5,3.225,22.276,3,22,3H4C3.724,3,3.5,3.225,3.5,3.5z"/>
		<path d="M6.5,6C6.224,6,6,6.225,6,6.5C6,6.777,6.224,7,6.5,7h13C19.776,7,20,6.777,20,6.5C20,6.225,19.776,6,19.5,6H6.5z"/>
		<path d="M17.5,9.5C17.5,9.225,17.276,9,17,9H3C2.724,9,2.5,9.225,2.5,9.5C2.5,9.777,2.724,10,3,10h14
			C17.276,10,17.5,9.777,17.5,9.5z"/>
		<path d="M19,12.5c0-0.275-0.224-0.5-0.5-0.5h-11C7.224,12,7,12.225,7,12.5C7,12.777,7.224,13,7.5,13h11
			C18.776,13,19,12.777,19,12.5z"/>
		<path d="M21,15.5c0-0.275-0.224-0.5-0.5-0.5h-9c-0.276,0-0.5,0.225-0.5,0.5c0,0.277,0.224,0.5,0.5,0.5h9
			C20.776,16,21,15.777,21,15.5z"/>
		<path d="M22,18h-7c-0.276,0-0.5,0.225-0.5,0.5c0,0.277,0.224,0.5,0.5,0.5h7c0.276,0,0.5-0.223,0.5-0.5
			C22.5,18.225,22.276,18,22,18z"/>
		<path d="M20,21h-3.5c-0.276,0-0.5,0.225-0.5,0.5c0,0.277,0.224,0.5,0.5,0.5H20c0.276,0,0.5-0.223,0.5-0.5
			C20.5,21.225,20.276,21,20,21z"/>
		<path d="M16.5,23h-2c-0.276,0-0.5,0.225-0.5,0.5c0,0.277,0.224,0.5,0.5,0.5h2c0.276,0,0.5-0.223,0.5-0.5
			C17,23.225,16.776,23,16.5,23z"/>
	</g>
</g>
<g id="Invisible_Shape">
	<rect fill="none" width="24" height="24"/>
</g>
</svg>
