<?xml version="1.0" encoding="utf-8"?>
<!-- Generator: Adobe Illustrator 19.2.1, SVG Export Plug-In . SVG Version: 6.00 Build 0)  -->
<svg version="1.1" xmlns="http://www.w3.org/2000/svg" xmlns:xlink="http://www.w3.org/1999/xlink" x="0px" y="0px" width="24px"
	 height="24px" viewBox="0 0 24 24" enable-background="new 0 0 24 24" xml:space="preserve">
<g id="Filled_Icon">
	<g>
		<path d="M20.512,11.008c-5.358,0-9.218-5.221-7.649-10.348c0.099-0.32-0.141-0.646-0.485-0.646
			C4.916,0.127,0.701,8.894,5.652,14.779c0.082-0.148,0.183-0.287,0.316-0.404l4.547-4c0.569-0.502,1.422-0.498,1.988,0.004l4.495,4
			c0.465,0.415,0.626,1.072,0.405,1.654C17.181,16.615,16.623,17,16,17h-1v0.658c3.093-0.881,5.283-3.293,6.116-6.012
			C21.193,11.394,20.94,11.008,20.512,11.008z"/>
		<path d="M16.333,15.127l-4.495-4c-0.189-0.168-0.474-0.168-0.663-0.002l-4.547,4C6.283,15.428,6.498,16,6.958,16h2.054v4.5
			C9,20.777,9.224,21,9.5,21h4c0.276,0,0.5-0.223,0.5-0.5V16h2C16.458,16,16.676,15.432,16.333,15.127z"/>
		<g>
			<path d="M23,24H1.012c-0.552,0-1-0.447-1-1s0.448-1,1-1H23c0.552,0,1,0.447,1,1S23.553,24,23,24z"/>
		</g>
	</g>
</g>
<g id="Invisible_Shape">
	<rect fill="none" width="24" height="24"/>
</g>
</svg>
