<?xml version="1.0" encoding="utf-8"?>
<!-- Generator: Adobe Illustrator 19.2.1, SVG Export Plug-In . SVG Version: 6.00 Build 0)  -->
<svg version="1.1" xmlns="http://www.w3.org/2000/svg" xmlns:xlink="http://www.w3.org/1999/xlink" x="0px" y="0px" width="24px"
	 height="24px" viewBox="0 0 24 24" enable-background="new 0 0 24 24" xml:space="preserve">
<g id="Filled_Icon">
	<g>
		<g>
			<path d="M16.004,16.021L14,16.004V11.5c0-0.275-0.224-0.5-0.5-0.5h-4C9.224,11,9,11.225,9,11.5V16H6.958
				c-0.457,0-0.676,0.57-0.33,0.877l4.547,4c0.186,0.162,0.469,0.166,0.662-0.002l4.495-3.98
				C16.674,16.592,16.461,16.025,16.004,16.021z"/>
		</g>
		<g>
			<path d="M23,24H1.012c-0.552,0-1-0.447-1-1s0.448-1,1-1H23c0.552,0,1,0.447,1,1S23.552,24,23,24z"/>
		</g>
		<g>
			<path d="M20.5,11c-5.4,0-9.201-5.269-7.649-10.347c0.098-0.319-0.137-0.643-0.485-0.646C4.53,0.125,0.526,9.598,6.088,15.282
				C6.337,15.106,6.638,15,6.958,15H8v-3.5C8,10.672,8.671,10,9.5,10h4c0.829,0,1.5,0.672,1.5,1.5v3.512l1.012,0.009
				c0.621,0.007,1.175,0.394,1.393,0.974c0.062,0.166,0.085,0.336,0.087,0.506c1.666-1.113,3.002-2.869,3.612-4.859
				C21.182,11.387,20.927,11,20.5,11z"/>
		</g>
	</g>
</g>
<g id="Invisible_Shape">
	<rect fill="none" width="24" height="24"/>
</g>
</svg>
