<?xml version="1.0" encoding="utf-8"?>
<!-- Generator: Adobe Illustrator 19.2.1, SVG Export Plug-In . SVG Version: 6.00 Build 0)  -->
<svg version="1.1" xmlns="http://www.w3.org/2000/svg" xmlns:xlink="http://www.w3.org/1999/xlink" x="0px" y="0px" width="24px"
	 height="24px" viewBox="0 0 24 24" enable-background="new 0 0 24 24" xml:space="preserve">
<g id="Filled_Icon">
	<g>
		<path d="M23.714,11.107c-4.038-1.921-4.038-7.67,0-9.589c0.38-0.181,0.379-0.72,0-0.903c-4.287-2.035-8.749,1.299-8.927,4.867
			c0.717,0.559,1.33,1.252,1.79,2.055c2.386,0.3,4.176,2.482,3.882,4.986c0.974,0.141,1.998,0.084,3.255-0.513
			C24.092,11.83,24.095,11.289,23.714,11.107z"/>
		<g>
			<path d="M19.348,13.018c0.682-2.236-1.003-4.549-3.398-4.516C13.452,3.072,5.477,4.273,4.574,10.08
				C1.939,10.519,0,12.777,0,15.483c0,2.177,1.283,4.058,3.132,4.94c0.074-0.173,0.168-0.338,0.306-0.476l2.5-2.506
				c0.584-0.588,1.535-0.589,2.121-0.004c0.588,0.588,0.677,1.447-0.209,2.334c0.162,0.111,0.29,0.264,0.398,0.432
				c0.193-0.297,2.415-2.486,2.689-2.762c0.585-0.588,1.535-0.589,2.121-0.004c0.588,0.588,0.677,1.447-0.208,2.334
				c0.162,0.111,0.29,0.264,0.398,0.432c0.193-0.297,2.415-2.486,2.689-2.762c0.584-0.588,1.535-0.589,2.121-0.004
				c0.588,0.588,0.677,1.447-0.208,2.334c0.259,0.179,0.448,0.411,0.559,0.756C19.935,19.809,21,18.273,21,16.483
				C21,15.137,20.389,13.868,19.348,13.018z"/>
		</g>
		<g>
			<path d="M4.146,23.846c-0.195-0.195-0.194-0.512,0.002-0.707l1.641-1.631H4.5c-0.446,0-0.667-0.541-0.354-0.853l2.5-2.508
				c0.196-0.195,0.512-0.195,0.707-0.001c0.196,0.196,0.196,0.513,0.001,0.707l-1.649,1.655H7c0.444,0,0.669,0.539,0.352,0.854
				l-2.5,2.486C4.658,24.043,4.342,24.043,4.146,23.846z"/>
		</g>
		<g>
			<path d="M9.146,23.846c-0.195-0.195-0.194-0.512,0.002-0.707l1.641-1.631H9.5c-0.446,0-0.667-0.541-0.354-0.853l2.5-2.508
				c0.195-0.195,0.512-0.195,0.707-0.001c0.196,0.196,0.196,0.513,0.001,0.707l-1.649,1.655H12c0.444,0,0.669,0.539,0.352,0.854
				l-2.5,2.486C9.658,24.043,9.342,24.043,9.146,23.846z"/>
		</g>
		<g>
			<path d="M14.146,23.846c-0.195-0.195-0.194-0.512,0.002-0.707l1.641-1.631H14.5c-0.446,0-0.667-0.541-0.354-0.853l2.5-2.508
				c0.196-0.195,0.512-0.195,0.707-0.001c0.196,0.196,0.196,0.513,0.001,0.707l-1.649,1.655H17c0.444,0,0.669,0.539,0.353,0.854
				l-2.5,2.486C14.658,24.043,14.342,24.043,14.146,23.846z"/>
		</g>
	</g>
</g>
<g id="Invisible_Shape">
	<rect fill="none" width="24" height="24"/>
</g>
</svg>
