<?xml version="1.0" encoding="utf-8"?>
<!-- Generator: Adobe Illustrator 19.2.1, SVG Export Plug-In . SVG Version: 6.00 Build 0)  -->
<svg version="1.1" xmlns="http://www.w3.org/2000/svg" xmlns:xlink="http://www.w3.org/1999/xlink" x="0px" y="0px" width="24px"
	 height="24px" viewBox="0 0 24 24" enable-background="new 0 0 24 24" xml:space="preserve">
<g id="Filled_Icon">
	<g>
		<path d="M23.715,11.107c-4.038-1.921-4.038-7.67,0-9.589c0.38-0.181,0.379-0.72,0-0.903c-4.287-2.035-8.748,1.299-8.927,4.867
			c0.717,0.559,1.33,1.252,1.79,2.055c2.386,0.3,4.176,2.482,3.882,4.986c0.972,0.141,1.935,0.113,3.255-0.513
			C24.093,11.83,24.096,11.289,23.715,11.107z"/>
		<g>
			<path d="M17.844,18.148c-0.195-0.195-0.512-0.195-0.707,0l-3.901,3.901c-0.719-0.185-1.245,0.358-1.245,0.95c0,0.551,0.449,1,1,1
				c0.592,0,1.134-0.529,0.951-1.242l3.902-3.902C18.039,18.66,18.039,18.344,17.844,18.148z"/>
			<path d="M12.844,18.855c0.195-0.195,0.195-0.512,0-0.707c-0.195-0.195-0.512-0.195-0.707,0L9.235,21.05
				C8.517,20.865,7.99,21.408,7.99,22c0,0.551,0.449,1,1,1c0.592,0,1.134-0.529,0.951-1.242L12.844,18.855z"/>
			<path d="M7.844,18.148c-0.195-0.195-0.512-0.195-0.707,0L3.235,22.05C2.517,21.865,1.99,22.408,1.99,23c0,0.551,0.449,1,1,1
				c0.592,0,1.134-0.529,0.951-1.242l3.902-3.902C8.039,18.66,8.039,18.344,7.844,18.148z"/>
		</g>
		<path d="M19.349,13.018c0.682-2.236-1.003-4.549-3.398-4.516C13.453,3.072,5.478,4.273,4.575,10.08
			c-2.634,0.439-4.574,2.697-4.574,5.403c0,2.261,1.38,4.206,3.344,5.044l3.085-3.086c0.586-0.586,1.535-0.586,2.121,0
			c0.561,0.561,0.57,1.451,0.055,2.039c0.075,0.168,0.207,0.318,0.433,0.353l2.392-2.392c0.586-0.586,1.535-0.586,2.121,0
			c0.586,0.586,0.586,1.536,0,2.121l-1.403,1.403h0.758l3.524-3.524c0.586-0.586,1.535-0.586,2.121,0
			c0.586,0.586,0.586,1.536,0,2.121l-1.331,1.332c2.139-0.346,3.781-2.184,3.781-4.411C21.001,15.137,20.39,13.868,19.349,13.018z"
			/>
	</g>
</g>
<g id="Invisible_Shape">
	<rect fill="none" width="24" height="24"/>
</g>
</svg>
