<?xml version="1.0" encoding="utf-8"?>
<!-- Generator: Adobe Illustrator 19.2.1, SVG Export Plug-In . SVG Version: 6.00 Build 0)  -->
<svg version="1.1" xmlns="http://www.w3.org/2000/svg" xmlns:xlink="http://www.w3.org/1999/xlink" x="0px" y="0px" width="24px"
	 height="24px" viewBox="0 0 24 24" enable-background="new 0 0 24 24" xml:space="preserve">
<g id="Filled_Icon">
	<g>
		<path d="M10.825,5.468l2.696,1.011l1.011,2.697c0.161,0.43,0.774,0.432,0.937,0l1.011-2.697l2.696-1.011
			c0.43-0.159,0.433-0.773,0-0.936L16.479,3.52l-1.011-2.695c-0.146-0.391-0.79-0.391-0.937,0L13.521,3.52l-2.697,1.013
			C10.392,4.695,10.394,5.309,10.825,5.468z"/>
		<path d="M22.176,10.532l-1.242-0.467l-0.465-1.241c-0.146-0.391-0.79-0.391-0.937,0l-0.465,1.241l-1.242,0.467
			c-0.433,0.163-0.43,0.776,0,0.936l1.242,0.466l0.465,1.242c0.161,0.43,0.774,0.432,0.937,0l0.465-1.242l1.242-0.466
			C22.605,11.309,22.608,10.695,22.176,10.532z"/>
		<path d="M17,15c-5.38,0-9.226-5.197-7.648-10.348c0.109-0.358-0.21-0.691-0.485-0.646C3.977,4.078,0,8.112,0,13
			c0,4.963,4.038,9,9,9c3.981,0,7.439-2.556,8.604-6.359C17.682,15.387,17.428,15,17,15z"/>
	</g>
</g>
<g id="Invisible_Shape">
	<rect fill="none" width="24" height="24"/>
</g>
</svg>
