<?xml version="1.0" encoding="utf-8"?>
<!-- Generator: Adobe Illustrator 19.2.1, SVG Export Plug-In . SVG Version: 6.00 Build 0)  -->
<svg version="1.1" xmlns="http://www.w3.org/2000/svg" xmlns:xlink="http://www.w3.org/1999/xlink" x="0px" y="0px" width="24px"
	 height="24px" viewBox="0 0 24 24" enable-background="new 0 0 24 24" xml:space="preserve">
<g id="Filled_Icon">
	<g>
		<path d="M23.715,11.107c-4.038-1.921-4.038-7.67,0-9.589c0.38-0.181,0.379-0.72,0-0.903C19.472-1.4,14.97,1.854,14.788,5.482
			c0.717,0.559,1.33,1.252,1.79,2.055c2.386,0.3,4.176,2.482,3.882,4.986c0.972,0.141,1.935,0.113,3.255-0.513
			C24.093,11.83,24.096,11.289,23.715,11.107z"/>
		<g>
			<g>
				<path d="M17.5,23c-0.275,0-0.5,0.225-0.5,0.5c0,0.277,0.225,0.5,0.5,0.5c0.277,0,0.5-0.223,0.5-0.5C18,23.225,17.777,23,17.5,23
					L17.5,23z"/>
			</g>
		</g>
		<g>
			<g>
				<path d="M11.5,21.5c-0.275,0-0.5,0.225-0.5,0.5c0,0.277,0.225,0.5,0.5,0.5c0.277,0,0.5-0.223,0.5-0.5
					C12,21.725,11.777,21.5,11.5,21.5L11.5,21.5z"/>
			</g>
		</g>
		<g>
			<g>
				<path d="M15.5,21.5c-0.275,0-0.5,0.225-0.5,0.5c0,0.277,0.225,0.5,0.5,0.5c0.277,0,0.5-0.223,0.5-0.5
					C16,21.725,15.777,21.5,15.5,21.5L15.5,21.5z"/>
			</g>
		</g>
		<g>
			<g>
				<path d="M13.5,23c-0.275,0-0.5,0.225-0.5,0.5c0,0.277,0.225,0.5,0.5,0.5c0.277,0,0.5-0.223,0.5-0.5C14,23.225,13.777,23,13.5,23
					L13.5,23z"/>
			</g>
		</g>
		<g>
			<g>
				<path d="M9.5,23C9.225,23,9,23.225,9,23.5C9,23.777,9.225,24,9.5,24c0.277,0,0.5-0.223,0.5-0.5C10,23.225,9.777,23,9.5,23
					L9.5,23z"/>
			</g>
		</g>
		<g>
			<g>
				<path d="M7.5,21.5C7.225,21.5,7,21.725,7,22c0,0.277,0.225,0.5,0.5,0.5C7.777,22.5,8,22.277,8,22C8,21.725,7.777,21.5,7.5,21.5
					L7.5,21.5z"/>
			</g>
		</g>
		<g>
			<g>
				<path d="M5.5,23C5.225,23,5,23.225,5,23.5C5,23.777,5.225,24,5.5,24C5.777,24,6,23.777,6,23.5C6,23.225,5.777,23,5.5,23L5.5,23z
					"/>
			</g>
		</g>
		<path d="M19.349,13.018c0.682-2.236-1.003-4.549-3.398-4.516C13.453,3.072,5.478,4.273,4.575,10.08
			c-2.634,0.439-4.574,2.697-4.574,5.403c0,3.024,2.467,5.482,5.5,5.482h11c2.481,0,4.5-2.011,4.5-4.482
			C21.001,15.137,20.39,13.868,19.349,13.018z M5.5,20.5C5.225,20.5,5,20.277,5,20c0-0.275,0.225-0.5,0.5-0.5
			C5.777,19.5,6,19.725,6,20C6,20.277,5.777,20.5,5.5,20.5z M7.5,19C7.225,19,7,18.777,7,18.5C7,18.225,7.225,18,7.5,18
			C7.777,18,8,18.225,8,18.5C8,18.777,7.777,19,7.5,19z M9.5,20.5C9.225,20.5,9,20.277,9,20c0-0.275,0.225-0.5,0.5-0.5
			c0.277,0,0.5,0.225,0.5,0.5C10,20.277,9.777,20.5,9.5,20.5z M11.5,19c-0.275,0-0.5-0.223-0.5-0.5c0-0.275,0.225-0.5,0.5-0.5
			c0.277,0,0.5,0.225,0.5,0.5C12,18.777,11.777,19,11.5,19z M13.5,20.5c-0.275,0-0.5-0.223-0.5-0.5c0-0.275,0.225-0.5,0.5-0.5
			c0.277,0,0.5,0.225,0.5,0.5C14,20.277,13.777,20.5,13.5,20.5z M15.5,19c-0.275,0-0.5-0.223-0.5-0.5c0-0.275,0.225-0.5,0.5-0.5
			c0.277,0,0.5,0.225,0.5,0.5C16,18.777,15.777,19,15.5,19z M17.5,20.5c-0.275,0-0.5-0.223-0.5-0.5c0-0.275,0.225-0.5,0.5-0.5
			c0.277,0,0.5,0.225,0.5,0.5C18,20.277,17.777,20.5,17.5,20.5z"/>
	</g>
</g>
<g id="Invisible_Shape">
	<rect fill="none" width="24" height="24"/>
</g>
</svg>
