<?xml version="1.0" encoding="utf-8"?>
<!-- Generator: Adobe Illustrator 19.2.1, SVG Export Plug-In . SVG Version: 6.00 Build 0)  -->
<svg version="1.1" xmlns="http://www.w3.org/2000/svg" xmlns:xlink="http://www.w3.org/1999/xlink" x="0px" y="0px" width="24px"
	 height="24px" viewBox="0 0 24 24" enable-background="new 0 0 24 24" xml:space="preserve">
<g id="Filled_Icon">
	<g>
		<path d="M23.714,11.107c-4.038-1.921-4.038-7.67,0-9.589c0.38-0.181,0.379-0.72,0-0.903c-4.287-2.035-8.749,1.299-8.927,4.867
			c0.717,0.559,1.33,1.252,1.79,2.055c2.386,0.3,4.176,2.482,3.882,4.986c0.972,0.141,1.935,0.113,3.255-0.513
			C24.092,11.83,24.095,11.289,23.714,11.107z"/>
		<g>
			<g>
				<g>
					<path d="M17.5,23c-0.276,0-0.5,0.225-0.5,0.5c0,0.277,0.224,0.5,0.5,0.5s0.5-0.223,0.5-0.5C18,23.225,17.776,23,17.5,23
						L17.5,23z"/>
				</g>
			</g>
			<g>
				<g>
					<path d="M15.5,21.5c-0.276,0-0.5,0.225-0.5,0.5c0,0.277,0.224,0.5,0.5,0.5S16,22.277,16,22C16,21.725,15.776,21.5,15.5,21.5
						L15.5,21.5z"/>
				</g>
			</g>
			<g>
				<g>
					<path d="M7.5,21.5C7.224,21.5,7,21.725,7,22c0,0.277,0.224,0.5,0.5,0.5S8,22.277,8,22C8,21.725,7.776,21.5,7.5,21.5L7.5,21.5z"
						/>
				</g>
			</g>
			<g>
				<g>
					<path d="M5.5,23C5.224,23,5,23.225,5,23.5C5,23.777,5.224,24,5.5,24S6,23.777,6,23.5C6,23.225,5.776,23,5.5,23L5.5,23z"/>
				</g>
			</g>
			<path d="M19.348,13.018c0.682-2.236-1.003-4.549-3.398-4.516C13.452,3.072,5.477,4.273,4.574,10.08
				C1.939,10.519,0,12.777,0,15.483c0,3.024,2.467,5.482,5.5,5.482h3.517c0.013-0.372,0.148-0.735,0.421-1.011l2.5-2.506
				c0.585-0.588,1.535-0.588,2.121-0.004c0.589,0.588,0.676,1.443-0.208,2.334c0.379,0.262,0.622,0.666,0.638,1.186H16.5
				c2.481,0,4.5-2.011,4.5-4.482C21,15.137,20.389,13.868,19.348,13.018z M5.5,20.5C5.224,20.5,5,20.277,5,20
				c0-0.275,0.224-0.5,0.5-0.5S6,19.725,6,20C6,20.277,5.776,20.5,5.5,20.5z M7.5,19C7.224,19,7,18.777,7,18.5
				C7,18.225,7.224,18,7.5,18S8,18.225,8,18.5C8,18.777,7.776,19,7.5,19z M15.5,19c-0.276,0-0.5-0.223-0.5-0.5
				c0-0.275,0.224-0.5,0.5-0.5s0.5,0.225,0.5,0.5C16,18.777,15.776,19,15.5,19z M17.5,20.5c-0.276,0-0.5-0.223-0.5-0.5
				c0-0.275,0.224-0.5,0.5-0.5S18,19.725,18,20C18,20.277,17.776,20.5,17.5,20.5z"/>
			<g>
				<path d="M10.146,23.838c-0.195-0.195-0.194-0.512,0.002-0.707l1.641-1.631H10.5c-0.447,0-0.666-0.541-0.354-0.852l2.5-2.508
					c0.195-0.195,0.512-0.195,0.707,0c0.196,0.193,0.196,0.511,0.001,0.706L11.705,20.5H13c0.444,0,0.669,0.541,0.352,0.855
					l-2.5,2.484C10.655,24.035,10.339,24.033,10.146,23.838z"/>
			</g>
		</g>
	</g>
</g>
<g id="Invisible_Shape">
	<rect fill="none" width="24" height="24"/>
</g>
</svg>
