<?xml version="1.0" encoding="utf-8"?>
<!-- Generator: Adobe Illustrator 19.2.1, SVG Export Plug-In . SVG Version: 6.00 Build 0)  -->
<svg version="1.1" xmlns="http://www.w3.org/2000/svg" xmlns:xlink="http://www.w3.org/1999/xlink" x="0px" y="0px" width="24px"
	 height="24px" viewBox="0 0 24 24" enable-background="new 0 0 24 24" xml:space="preserve">
<g id="Filled_Icon">
	<g>
		<path d="M7.853,18.117c-0.195-0.195-0.512-0.195-0.707,0l-5,5c-0.195,0.195-0.195,0.512,0,0.707c0.195,0.195,0.512,0.195,0.707,0
			l5-5C8.049,18.629,8.049,18.312,7.853,18.117z"/>
		<path d="M12.854,18.117c-0.195-0.195-0.512-0.195-0.707,0l-5,5c-0.195,0.195-0.195,0.512,0,0.707c0.195,0.195,0.512,0.195,0.707,0
			l5-5C13.049,18.629,13.049,18.312,12.854,18.117z"/>
		<path d="M17.146,18.117l-5,5c-0.195,0.195-0.195,0.512,0,0.707c0.195,0.195,0.512,0.195,0.707,0l5-5
			c0.195-0.195,0.195-0.512,0-0.707C17.658,17.922,17.342,17.922,17.146,18.117z"/>
		<path d="M21.349,8.018c0.693-2.273-1.07-4.589-3.398-4.516C15.455-1.924,7.477-0.73,6.573,5.08C3.94,5.521,2,7.783,2,10.5
			C2,13.532,4.467,16,7.5,16h11c2.481,0,4.5-2.019,4.5-4.5C23,10.144,22.389,8.869,21.349,8.018z"/>
	</g>
</g>
<g id="Invisible_Shape">
	<rect fill="none" width="24" height="24"/>
</g>
</svg>
