<?xml version="1.0" encoding="utf-8"?>
<!-- Generator: Adobe Illustrator 19.2.1, SVG Export Plug-In . SVG Version: 6.00 Build 0)  -->
<svg version="1.1" xmlns="http://www.w3.org/2000/svg" xmlns:xlink="http://www.w3.org/1999/xlink" x="0px" y="0px" width="24px"
	 height="24px" viewBox="0 0 24 24" enable-background="new 0 0 24 24" xml:space="preserve">
<g id="Filled_Icon">
	<path d="M21.709,17.317l-2.851-1.646l2.25-0.603c0.267-0.071,0.425-0.345,0.353-0.612c-0.071-0.266-0.344-0.42-0.612-0.354
		l-3.217,0.862l-1.552-0.896l0.501-0.867c0.138-0.239,0.056-0.545-0.183-0.683c-0.239-0.14-0.545-0.057-0.683,0.183l-0.501,0.866
		L12.499,12l2.715-1.567l0.501,0.867c0.139,0.241,0.447,0.32,0.683,0.183c0.239-0.138,0.321-0.443,0.183-0.683L16.08,9.933
		l1.549-0.894l3.22,0.859c0.285,0.071,0.544-0.1,0.612-0.355c0.071-0.267-0.087-0.541-0.354-0.612L18.855,8.33l2.854-1.648
		C21.948,6.545,22.03,6.24,21.892,6c-0.139-0.239-0.446-0.322-0.683-0.183l-2.851,1.646l0.603-2.248
		c0.072-0.267-0.086-0.541-0.353-0.613c-0.264-0.065-0.541,0.088-0.612,0.353l-0.863,3.217L15.58,9.067L15.08,8.2
		c-0.139-0.239-0.445-0.322-0.683-0.183c-0.239,0.139-0.321,0.443-0.183,0.683l0.5,0.867L12,11.135V8h1c0.276,0,0.5-0.223,0.5-0.5
		C13.5,7.225,13.276,7,13,7h-1V5.207l2.354-2.353c0.195-0.195,0.195-0.512,0-0.707c-0.195-0.195-0.512-0.195-0.707,0L12,3.793V0.5
		C12,0.225,11.776,0,11.5,0S11,0.225,11,0.5v3.293L9.354,2.147c-0.195-0.195-0.512-0.195-0.707,0c-0.195,0.195-0.195,0.512,0,0.707
		L11,5.207V7h-1C9.724,7,9.5,7.225,9.5,7.5C9.5,7.777,9.724,8,10,8h1v3.135L8.284,9.566L8.785,8.7
		c0.138-0.239,0.056-0.544-0.183-0.683C8.363,7.878,8.057,7.961,7.918,8.2l-0.5,0.866L5.867,8.172L5.004,4.955
		C4.933,4.689,4.659,4.536,4.392,4.602C4.125,4.674,3.967,4.948,4.039,5.215l0.603,2.25L1.79,5.817C1.55,5.678,1.245,5.761,1.107,6
		C0.969,6.24,1.051,6.545,1.29,6.683L4.142,8.33l-2.25,0.601C1.625,9.004,1.467,9.277,1.539,9.544
		C1.606,9.799,1.864,9.97,2.151,9.898l3.217-0.861l1.551,0.894l-0.5,0.867c-0.138,0.24-0.056,0.545,0.183,0.683
		c0.236,0.138,0.544,0.058,0.683-0.183l0.501-0.866L10.5,12l-2.716,1.568l-0.5-0.866c-0.139-0.239-0.445-0.323-0.683-0.183
		c-0.239,0.139-0.321,0.443-0.183,0.683l0.5,0.866l-1.55,0.894l-3.217-0.86c-0.266-0.063-0.54,0.089-0.612,0.354
		c-0.071,0.268,0.087,0.541,0.354,0.612l2.251,0.603l-2.853,1.646c-0.239,0.139-0.321,0.443-0.183,0.683
		c0.139,0.241,0.447,0.321,0.683,0.183l2.853-1.647l-0.603,2.25c-0.072,0.268,0.087,0.541,0.353,0.613
		c0.287,0.071,0.544-0.1,0.612-0.353l0.863-3.217l1.551-0.896l0.5,0.866c0.139,0.241,0.447,0.32,0.683,0.183
		c0.239-0.138,0.321-0.443,0.183-0.683l-0.501-0.866L11,12.865v3.136h-1c-0.276,0-0.5,0.224-0.5,0.5c0,0.276,0.224,0.5,0.5,0.5h1
		v1.792l-2.354,2.355c-0.195,0.195-0.195,0.512,0,0.707c0.195,0.194,0.512,0.194,0.707,0L11,20.207V23.5c0,0.277,0.224,0.5,0.5,0.5
		s0.5-0.223,0.5-0.5v-3.291l1.646,1.646c0.195,0.194,0.512,0.194,0.707,0c0.195-0.195,0.195-0.512,0-0.707L12,18.794v-1.793h1
		c0.276,0,0.5-0.224,0.5-0.5c0-0.276-0.224-0.5-0.5-0.5h-1v-3.135l2.715,1.567l-0.5,0.866c-0.138,0.239-0.056,0.545,0.183,0.683
		c0.236,0.138,0.544,0.059,0.683-0.183l0.501-0.866l1.55,0.894l0.865,3.219c0.071,0.264,0.343,0.424,0.613,0.351
		c0.267-0.071,0.425-0.346,0.353-0.612l-0.605-2.251l2.853,1.647c0.236,0.138,0.544,0.058,0.683-0.183
		C22.03,17.761,21.948,17.455,21.709,17.317z"/>
</g>
<g id="Invisible_Shape">
	<rect fill="none" width="24" height="24"/>
</g>
</svg>
