<?xml version="1.0" encoding="utf-8"?>
<!-- Generator: Adobe Illustrator 19.2.1, SVG Export Plug-In . SVG Version: 6.00 Build 0)  -->
<svg version="1.1" xmlns="http://www.w3.org/2000/svg" xmlns:xlink="http://www.w3.org/1999/xlink" x="0px" y="0px" width="24px"
	 height="24px" viewBox="0 0 24 24" enable-background="new 0 0 24 24" xml:space="preserve">
<g id="Filled_Icon">
	<g>
		<path d="M11.5,4C7.364,4,4,7.364,4,11.5S7.364,19,11.5,19s7.5-3.364,7.5-7.5S15.636,4,11.5,4z"/>
		<path d="M11.5,20c-0.276,0-0.5,0.224-0.5,0.5v2c0,0.276,0.224,0.5,0.5,0.5s0.5-0.224,0.5-0.5v-2C12,20.224,11.776,20,11.5,20z"/>
		<path d="M18.354,17.646c-0.195-0.195-0.512-0.195-0.707,0c-0.195,0.195-0.195,0.512,0,0.707l1.5,1.5
			c0.195,0.195,0.512,0.195,0.707,0c0.195-0.195,0.195-0.512,0-0.707L18.354,17.646z"/>
		<path d="M22.5,11h-2c-0.276,0-0.5,0.224-0.5,0.5s0.224,0.5,0.5,0.5h2c0.276,0,0.5-0.224,0.5-0.5S22.776,11,22.5,11z"/>
		<path d="M18.354,5.353l1.5-1.5c0.195-0.195,0.195-0.512,0-0.707c-0.195-0.195-0.512-0.195-0.707,0l-1.5,1.5
			c-0.195,0.195-0.195,0.512,0,0.707C17.842,5.549,18.158,5.549,18.354,5.353z"/>
		<path d="M11.5,3C11.776,3,12,2.776,12,2.5v-2C12,0.224,11.776,0,11.5,0S11,0.224,11,0.5v2C11,2.776,11.224,3,11.5,3z"/>
		<path d="M4.647,5.353c0.195,0.195,0.512,0.195,0.707,0s0.195-0.512,0-0.707l-1.5-1.5c-0.195-0.195-0.512-0.195-0.707,0
			c-0.195,0.195-0.195,0.512,0,0.707L4.647,5.353z"/>
		<path d="M2.5,11h-2C0.224,11,0,11.224,0,11.5S0.224,12,0.5,12h2C2.776,12,3,11.776,3,11.5S2.776,11,2.5,11z"/>
		<path d="M4.647,17.646l-1.5,1.5c-0.195,0.195-0.195,0.512,0,0.707c0.195,0.195,0.512,0.195,0.707,0l1.5-1.5
			c0.195-0.195,0.195-0.512,0-0.707C5.158,17.451,4.842,17.451,4.647,17.646z"/>
	</g>
</g>
<g id="Invisible_Shape">
	<rect fill="none" width="24" height="24"/>
</g>
</svg>
