<?xml version="1.0" encoding="utf-8"?>
<!-- Generator: Adobe Illustrator 19.2.1, SVG Export Plug-In . SVG Version: 6.00 Build 0)  -->
<svg version="1.1" xmlns="http://www.w3.org/2000/svg" xmlns:xlink="http://www.w3.org/1999/xlink" x="0px" y="0px" width="24px"
	 height="24px" viewBox="0 0 24 24" enable-background="new 0 0 24 24" xml:space="preserve">
<g id="Filled_Icon">
	<g>
		<path d="M5.548,16.029c0.082-0.246,0.216-0.476,0.419-0.654l4.547-4.001c0.568-0.5,1.419-0.499,1.985,0.003l4.495,3.979
			c0.222,0.196,0.369,0.449,0.445,0.722c0.981-1.269,1.572-2.854,1.572-4.578c0-4.136-3.364-7.5-7.5-7.5c-4.136,0-7.5,3.364-7.5,7.5
			C4.012,13.202,4.588,14.769,5.548,16.029z"/>
		<path d="M11.5,2.984c0.276,0,0.5-0.224,0.5-0.5V0.516c0-0.276-0.224-0.5-0.5-0.5S11,0.239,11,0.516v1.969
			C11,2.761,11.224,2.984,11.5,2.984z"/>
		<path d="M18.236,5.477l1.392-1.392c0.195-0.195,0.195-0.512,0-0.707c-0.195-0.195-0.512-0.195-0.707,0l-1.392,1.392
			c-0.195,0.195-0.195,0.512,0,0.707C17.725,5.673,18.041,5.673,18.236,5.477z"/>
		<path d="M20.529,12.004h1.969c0.276,0,0.5-0.224,0.5-0.5c0-0.276-0.224-0.5-0.5-0.5h-1.969c-0.276,0-0.5,0.224-0.5,0.5
			C20.029,11.78,20.253,12.004,20.529,12.004z"/>
		<path d="M18.243,17.533c-0.195-0.195-0.512-0.195-0.707,0c-0.195,0.195-0.195,0.512,0,0.707l1.393,1.393
			c0.195,0.195,0.512,0.195,0.707,0c0.195-0.196,0.195-0.512,0-0.707L18.243,17.533z"/>
		<path d="M4.773,17.54l-1.392,1.393c-0.195,0.195-0.195,0.513,0,0.707c0.195,0.195,0.512,0.195,0.707,0l1.392-1.392
			c0.195-0.195,0.195-0.513,0-0.707C5.285,17.345,4.969,17.345,4.773,17.54z"/>
		<path d="M0.512,12.014H2.48c0.276,0,0.5-0.223,0.5-0.5c0-0.275-0.224-0.5-0.5-0.5H0.512c-0.276,0-0.5,0.225-0.5,0.5
			C0.012,11.791,0.235,12.014,0.512,12.014z"/>
		<path d="M4.767,5.484c0.195,0.195,0.512,0.195,0.707,0c0.195-0.195,0.195-0.512,0-0.707L4.082,3.385
			c-0.195-0.194-0.512-0.194-0.707,0c-0.195,0.195-0.195,0.512,0,0.708L4.767,5.484z"/>
		<path d="M22.5,23H0.512c-0.276,0-0.5,0.224-0.5,0.5s0.224,0.5,0.5,0.5H22.5c0.276,0,0.5-0.224,0.5-0.5S22.776,23,22.5,23z"/>
		<path d="M16.332,16.126l-4.5-4c-0.189-0.168-0.475-0.168-0.664,0l-4.5,4C6.325,16.433,6.542,17,7,17h2v4.5
			C9,21.776,9.224,22,9.5,22h4c0.276,0,0.5-0.224,0.5-0.5V17h2C16.458,17,16.675,16.433,16.332,16.126z"/>
	</g>
</g>
<g id="Invisible_Shape">
	<rect fill="none" width="24" height="24"/>
</g>
</svg>
