<?xml version="1.0" encoding="utf-8"?>
<!-- Generator: Adobe Illustrator 19.2.1, SVG Export Plug-In . SVG Version: 6.00 Build 0)  -->
<svg version="1.1" xmlns="http://www.w3.org/2000/svg" xmlns:xlink="http://www.w3.org/1999/xlink" x="0px" y="0px" width="24px"
	 height="24px" viewBox="0 0 24 24" enable-background="new 0 0 24 24" xml:space="preserve">
<g id="Filled_Icon">
	<g>
		<path d="M5.897,16.469C6.173,16.182,6.55,16,6.965,16H8v-3.5C8,11.672,8.678,11,9.507,11h4c0.829,0,1.5,0.672,1.5,1.5v3.512
			l1.012,0.009c0.415,0.004,0.791,0.188,1.065,0.477c1.191-1.329,1.923-3.078,1.923-4.998c0-4.137-3.37-7.5-7.507-7.5
			S4,7.363,4,11.5C4,13.406,4.721,15.144,5.897,16.469z"/>
		<path d="M22.488,23H0.5C0.224,23,0,23.224,0,23.5S0.224,24,0.5,24h21.988c0.276,0,0.5-0.224,0.5-0.5S22.765,23,22.488,23z"/>
		<g>
			<path d="M11.5,3C11.224,3,11,2.776,11,2.5v-2C11,0.224,11.224,0,11.5,0S12,0.224,12,0.5v2C12,2.776,11.776,3,11.5,3z"/>
		</g>
		<g>
			<path d="M3,11.5C3,11.776,2.776,12,2.5,12h-2C0.224,12,0,11.776,0,11.5S0.224,11,0.5,11h2C2.776,11,3,11.224,3,11.5z"/>
		</g>
		<g>
			<path d="M23,11.5c0,0.276-0.224,0.5-0.5,0.5h-2c-0.276,0-0.5-0.224-0.5-0.5s0.224-0.5,0.5-0.5h2C22.776,11,23,11.224,23,11.5z"/>
		</g>
		<g>
			<path d="M19.632,3.368c0.195,0.195,0.195,0.512,0,0.707L18.218,5.49c-0.196,0.194-0.512,0.194-0.708,0
				c-0.195-0.196-0.195-0.512,0-0.708l1.415-1.414C19.12,3.173,19.437,3.173,19.632,3.368z"/>
		</g>
		<g>
			<path d="M3.368,3.368c-0.195,0.195-0.195,0.512,0,0.707L4.782,5.49c0.196,0.194,0.512,0.194,0.707,0
				c0.195-0.196,0.195-0.512,0-0.708L4.075,3.368C3.88,3.173,3.563,3.173,3.368,3.368z"/>
		</g>
		<g>
			<path d="M19.632,19.632c0.195-0.195,0.195-0.512,0-0.707l-1.414-1.414c-0.196-0.196-0.512-0.196-0.708,0
				c-0.195,0.195-0.195,0.511,0,0.707l1.415,1.414C19.12,19.827,19.437,19.827,19.632,19.632z"/>
		</g>
		<g>
			<path d="M3.368,19.632c-0.195-0.195-0.195-0.512,0-0.707l1.414-1.414c0.196-0.196,0.512-0.196,0.707,0
				c0.195,0.195,0.195,0.511,0,0.707l-1.414,1.414C3.88,19.827,3.563,19.827,3.368,19.632z"/>
		</g>
		<path d="M16,17h-2v-4.5c0-0.276-0.224-0.5-0.5-0.5h-4C9.224,12,9,12.224,9,12.5V17H7c-0.458,0-0.675,0.567-0.332,0.874l4.5,4
			C11.263,21.958,11.381,22,11.5,22s0.237-0.042,0.332-0.126l4.5-4C16.675,17.567,16.458,17,16,17z"/>
	</g>
</g>
<g id="Invisible_Shape">
	<rect fill="none" width="24" height="24"/>
</g>
</svg>
