<?xml version="1.0" encoding="utf-8"?>
<!-- Generator: Adobe Illustrator 19.2.1, SVG Export Plug-In . SVG Version: 6.00 Build 0)  -->
<svg version="1.1" xmlns="http://www.w3.org/2000/svg" xmlns:xlink="http://www.w3.org/1999/xlink" x="0px" y="0px" width="24px"
	 height="24px" viewBox="0 0 24 24" enable-background="new 0 0 24 24" xml:space="preserve">
<g id="Filled_Icon">
	<g>
		<path d="M9,15.764V2.5C9,1.121,7.878,0,6.5,0S4,1.121,4,2.5v13.264c-1.241,0.831-2,2.237-2,3.736C2,21.981,4.019,24,6.5,24
			s4.5-2.019,4.5-4.5C11,18.001,10.241,16.595,9,15.764z M6.5,21C5.673,21,5,20.327,5,19.5c0-0.65,0.419-1.201,1-1.408V7.5
			C6,7.225,6.224,7,6.5,7S7,7.225,7,7.5v10.592c0.581,0.207,1,0.758,1,1.408C8,20.327,7.327,21,6.5,21z"/>
		<path d="M18.854,5.147l-3-3c-0.195-0.191-0.511-0.195-0.708,0l-3,3c-0.195,0.195-0.195,0.512,0,0.707s0.512,0.195,0.707,0
			L15,3.707V16c0,0.277,0.224,0.5,0.5,0.5S16,16.277,16,16V3.707l2.146,2.146c0.195,0.195,0.512,0.195,0.707,0
			C19.049,5.658,19.049,5.342,18.854,5.147z"/>
	</g>
</g>
<g id="Invisible_Shape">
	<rect fill="none" width="24" height="24"/>
</g>
</svg>
