<?xml version="1.0" encoding="utf-8"?>
<!-- Generator: Adobe Illustrator 19.2.1, SVG Export Plug-In . SVG Version: 6.00 Build 0)  -->
<svg version="1.1" xmlns="http://www.w3.org/2000/svg" xmlns:xlink="http://www.w3.org/1999/xlink" x="0px" y="0px" width="24px"
	 height="24px" viewBox="0 0 24 24" enable-background="new 0 0 24 24" xml:space="preserve">
<g id="Filled_Icon">
	<g>
		<path d="M14,15.764V2.5C14,1.121,12.878,0,11.5,0S9,1.121,9,2.5v13.264c-1.241,0.831-2,2.237-2,3.736c0,2.481,2.019,4.5,4.5,4.5
			s4.5-2.019,4.5-4.5C16,18.001,15.241,16.595,14,15.764z M11.5,21c-0.827,0-1.5-0.673-1.5-1.5c0-0.65,0.419-1.201,1-1.408V8.5
			C11,8.225,11.224,8,11.5,8S12,8.225,12,8.5v9.592c0.581,0.207,1,0.758,1,1.408C13,20.327,12.327,21,11.5,21z"/>
		<g>
			<path d="M17.5,14h-2c-0.276,0-0.5-0.223-0.5-0.5c0-0.275,0.224-0.5,0.5-0.5h2c0.276,0,0.5,0.225,0.5,0.5
				C18,13.777,17.776,14,17.5,14z"/>
		</g>
		<g>
			<path d="M17.5,9h-2C15.224,9,15,8.777,15,8.5C15,8.225,15.224,8,15.5,8h2C17.776,8,18,8.225,18,8.5C18,8.777,17.776,9,17.5,9z"/>
		</g>
		<g>
			<path d="M17.5,4h-2C15.224,4,15,3.777,15,3.5C15,3.225,15.224,3,15.5,3h2C17.776,3,18,3.225,18,3.5C18,3.777,17.776,4,17.5,4z"/>
		</g>
	</g>
</g>
<g id="Invisible_Shape">
	<rect fill="none" width="24" height="24"/>
</g>
</svg>
