<?xml version="1.0" encoding="utf-8"?>
<!-- Generator: Adobe Illustrator 19.2.1, SVG Export Plug-In . SVG Version: 6.00 Build 0)  -->
<svg version="1.1" xmlns="http://www.w3.org/2000/svg" xmlns:xlink="http://www.w3.org/1999/xlink" x="0px" y="0px" width="24px"
	 height="24px" viewBox="0 0 24 24" enable-background="new 0 0 24 24" xml:space="preserve">
<g id="Filled_Icon">
	<g>
		<path d="M10,15.764V2.5C10,1.121,8.878,0,7.5,0S5,1.121,5,2.5v13.264c-1.241,0.831-2,2.237-2,3.736C3,21.981,5.019,24,7.5,24
			s4.5-2.019,4.5-4.5C12,18.001,11.241,16.595,10,15.764z M7.5,21C6.673,21,6,20.327,6,19.5c0-0.65,0.419-1.201,1-1.408V7.5
			C7,7.225,7.224,7,7.5,7S8,7.225,8,7.5v10.592c0.581,0.207,1,0.758,1,1.408C9,20.327,8.327,21,7.5,21z"/>
		<path d="M19.854,12.646c-0.195-0.195-0.512-0.195-0.707,0L17,14.793V2.5C17,2.225,16.776,2,16.5,2S16,2.225,16,2.5v12.293
			l-2.146-2.147c-0.195-0.195-0.512-0.195-0.707,0s-0.195,0.512,0,0.707l3,3c0.192,0.189,0.506,0.199,0.708,0l3-3
			C20.049,13.158,20.049,12.842,19.854,12.646z"/>
	</g>
</g>
<g id="Invisible_Shape">
	<rect fill="none" width="24" height="24"/>
</g>
</svg>
