<?xml version="1.0" encoding="utf-8"?>
<!-- Generator: Adobe Illustrator 19.2.1, SVG Export Plug-In . SVG Version: 6.00 Build 0)  -->
<svg version="1.1" xmlns="http://www.w3.org/2000/svg" xmlns:xlink="http://www.w3.org/1999/xlink" x="0px" y="0px" width="24px"
	 height="24px" viewBox="0 0 24 24" enable-background="new 0 0 24 24" xml:space="preserve">
<g id="Filled_Icon">
	<g>
		<path d="M20.5,5H18V2.5c0-0.552-0.448-1-1-1s-1,0.448-1,1V5h-2.5c-0.552,0-1,0.448-1,1c0,0.553,0.448,1,1,1H16v2.5
			c0,0.553,0.448,1,1,1s1-0.447,1-1V7h2.5c0.552,0,1-0.447,1-1C21.5,5.448,21.052,5,20.5,5z"/>
		<path d="M10,15.765V2.5C10,1.121,8.878,0,7.5,0S5,1.121,5,2.5v13.265C3.759,16.595,3,18,3,19.5C3,21.981,5.019,24,7.5,24
			s4.5-2.019,4.5-4.5C12,18,11.241,16.595,10,15.765z M7.5,21C6.673,21,6,20.327,6,19.5c0-0.65,0.419-1.201,1-1.408V7.5
			C7,7.224,7.224,7,7.5,7S8,7.224,8,7.5v10.592c0.581,0.207,1,0.758,1,1.408C9,20.327,8.327,21,7.5,21z"/>
	</g>
</g>
<g id="Invisible_Shape">
	<rect fill="none" width="24" height="24"/>
</g>
</svg>
