<?xml version="1.0" encoding="utf-8"?>
<!-- Generator: Adobe Illustrator 19.2.1, SVG Export Plug-In . SVG Version: 6.00 Build 0)  -->
<svg version="1.1" xmlns="http://www.w3.org/2000/svg" xmlns:xlink="http://www.w3.org/1999/xlink" x="0px" y="0px" width="24px"
	 height="24px" viewBox="0 0 24 24" enable-background="new 0 0 24 24" xml:space="preserve">
<g id="Filled_Icon">
	<g>
		<g>
			<path d="M7,15.765V2.5C7,1.121,5.878,0,4.5,0S2,1.121,2,2.5v13.265C0.759,16.595,0,18,0,19.5C0,21.981,2.019,24,4.5,24
				S9,21.981,9,19.5C9,18,8.241,16.595,7,15.765z M4.5,21C3.673,21,3,20.327,3,19.5c0-0.65,0.419-1.201,1-1.408V7.5
				C4,7.225,4.224,7,4.5,7S5,7.225,5,7.5v10.592c0.581,0.207,1,0.758,1,1.408C6,20.327,5.327,21,4.5,21z"/>
		</g>
		<path d="M22.058,14.2c-0.146-0.234-0.454-0.304-0.689-0.159l-1.875,1.168l-0.978-0.56l1.364-0.771
			c0.24-0.136,0.325-0.441,0.188-0.681c-0.135-0.24-0.44-0.326-0.682-0.189l-1.881,1.064l-1.5-0.858V9.786l1.5-0.862l1.877,1.089
			c0.236,0.138,0.544,0.06,0.684-0.181c0.139-0.24,0.057-0.546-0.182-0.684l-1.378-0.801l0.987-0.567l1.871,1.197
			c0.231,0.148,0.542,0.082,0.69-0.151c0.149-0.232,0.081-0.542-0.151-0.69L20.47,7.219l1.215-0.699
			c0.239-0.138,0.322-0.443,0.184-0.683c-0.138-0.239-0.442-0.322-0.683-0.185l-1.18,0.68V4.5c0-0.275-0.224-0.5-0.5-0.5
			c-0.276,0-0.5,0.225-0.5,0.5v2.406l-1,0.575V5.5c0-0.275-0.224-0.5-0.5-0.5c-0.276,0-0.5,0.225-0.5,0.5v2.557L15.54,8.9
			l-3.534-2.647V5.691l1.984-1.22c0.235-0.145,0.309-0.452,0.164-0.688c-0.144-0.235-0.453-0.31-0.688-0.164l-1.461,0.898V3.041
			l2.005-1.221c0.236-0.143,0.311-0.45,0.167-0.686c-0.143-0.235-0.45-0.31-0.687-0.167L12.006,1.87V0.5c0-0.275-0.224-0.5-0.5-0.5
			c-0.276,0-0.5,0.225-0.5,0.5v1.357L9.549,0.979C9.313,0.837,9.005,0.912,8.863,1.149C8.72,1.386,8.796,1.693,9.033,1.836
			l1.973,1.188v1.49L9.525,3.631C9.287,3.488,8.981,3.566,8.839,3.804C8.698,4.041,8.775,4.348,9.012,4.49l1.994,1.188v0.566
			L8,8.496v6.008l3,2.247l0.005,5.749c0,0.277,0.224,0.5,0.5,0.5h0c0.276,0,0.5-0.225,0.5-0.5l-0.001-1.351l1.464,0.892
			c0.231,0.142,0.542,0.072,0.687-0.168c0.144-0.235,0.068-0.543-0.167-0.686l-1.985-1.208l-0.001-1.49l1.466,0.893
			c0.235,0.145,0.543,0.07,0.688-0.166c0.144-0.236,0.069-0.543-0.167-0.688l-1.988-1.21L12,16.75l3.541-2.651l1.465,0.838V17.5
			c0,0.277,0.224,0.5,0.5,0.5c0.276,0,0.5-0.223,0.5-0.5v-1.99l1,0.57v2.42c0,0.277,0.224,0.5,0.5,0.5c0.276,0,0.5-0.223,0.5-0.5
			v-1.848l1.207,0.691c0.241,0.138,0.546,0.051,0.682-0.186c0.137-0.24,0.054-0.545-0.186-0.682l-1.229-0.703l1.418-0.883
			C22.133,14.744,22.204,14.435,22.058,14.2z"/>
	</g>
</g>
<g id="Invisible_Shape">
	<rect fill="none" width="24" height="24"/>
</g>
</svg>
