<?xml version="1.0" encoding="utf-8"?>
<!-- Generator: Adobe Illustrator 19.2.1, SVG Export Plug-In . SVG Version: 6.00 Build 0)  -->
<svg version="1.1" xmlns="http://www.w3.org/2000/svg" xmlns:xlink="http://www.w3.org/1999/xlink" x="0px" y="0px" width="24px"
	 height="24px" viewBox="0 0 24 24" enable-background="new 0 0 24 24" xml:space="preserve">
<g id="Filled_Icon">
	<path d="M14,15.764V2.5C14,1.121,12.878,0,11.5,0C10.121,0,9,1.121,9,2.5v13.264c-1.241,0.831-2,2.237-2,3.736
		c0,2.481,2.019,4.5,4.5,4.5s4.5-2.019,4.5-4.5C16,18.001,15.24,16.595,14,15.764z M11.5,21c-0.827,0-1.5-0.673-1.5-1.5
		c0-0.651,0.419-1.201,1-1.408V7.5C11,7.225,11.224,7,11.5,7S12,7.225,12,7.5v10.592c0.58,0.207,1,0.757,1,1.408
		C13,20.327,12.327,21,11.5,21z"/>
</g>
<g id="Invisible_Shape">
	<rect fill="none" width="24" height="24"/>
</g>
</svg>
