<?xml version="1.0" encoding="utf-8"?>
<!-- Generator: Adobe Illustrator 19.2.1, SVG Export Plug-In . SVG Version: 6.00 Build 0)  -->
<svg version="1.1" xmlns="http://www.w3.org/2000/svg" xmlns:xlink="http://www.w3.org/1999/xlink" x="0px" y="0px" width="24px"
	 height="24px" viewBox="0 0 24 24" enable-background="new 0 0 24 24" xml:space="preserve">
<g id="Filled_Icon">
	<g>
		<path d="M11.5,4.5c-1.275,0-2.469,0.349-3.5,0.947v9.844c0.933,0.771,1.586,1.834,1.858,3.006
			c4.467,1.084,8.642-2.338,8.642-6.797C18.5,7.641,15.36,4.5,11.5,4.5z"/>
		<path d="M7,15.791V2.527c0-1.379-1.122-2.5-2.5-2.5S2,1.148,2,2.527v13.264c-1.241,0.83-2,2.236-2,3.736
			c0,2.483,2.019,4.5,4.5,4.5S9,22.01,9,19.527C9,18.027,8.241,16.621,7,15.791z M4.5,21.027c-0.827,0-1.5-0.674-1.5-1.5
			c0-0.65,0.419-1.201,1-1.408V7.527c0-0.277,0.224-0.5,0.5-0.5S5,7.25,5,7.527v10.592c0.581,0.207,1,0.758,1,1.408
			C6,20.354,5.327,21.027,4.5,21.027z"/>
		<path d="M11.5,3.027c0.276,0,0.5-0.225,0.5-0.5v-2c0-0.277-0.224-0.5-0.5-0.5S11,0.25,11,0.527v2
			C11,2.803,11.224,3.027,11.5,3.027z"/>
		<path d="M18.906,3.44l-1.414,1.414c-0.195,0.195-0.195,0.512,0,0.707c0.195,0.195,0.512,0.195,0.707,0l1.414-1.414
			c0.195-0.195,0.195-0.512,0-0.707C19.418,3.244,19.102,3.244,18.906,3.44z"/>
		<path d="M22.5,11.027h-2c-0.276,0-0.5,0.223-0.5,0.5c0,0.275,0.224,0.5,0.5,0.5h2c0.276,0,0.5-0.225,0.5-0.5
			C23,11.25,22.776,11.027,22.5,11.027z"/>
		<path d="M18.11,17.582c-0.195-0.195-0.512-0.195-0.707,0c-0.195,0.195-0.195,0.512,0,0.707l1.415,1.414
			c0.195,0.195,0.512,0.195,0.707,0c0.195-0.195,0.195-0.512,0-0.707L18.11,17.582z"/>
		<path d="M11.5,20.027c-0.276,0-0.5,0.223-0.5,0.5v2c0,0.275,0.224,0.5,0.5,0.5s0.5-0.225,0.5-0.5v-2
			C12,20.25,11.776,20.027,11.5,20.027z"/>
	</g>
</g>
<g id="Invisible_Shape">
	<rect fill="none" width="24" height="24"/>
</g>
</svg>
