<?xml version="1.0" encoding="utf-8"?>
<!-- Generator: Adobe Illustrator 19.2.1, SVG Export Plug-In . SVG Version: 6.00 Build 0)  -->
<svg version="1.1" xmlns="http://www.w3.org/2000/svg" xmlns:xlink="http://www.w3.org/1999/xlink" x="0px" y="0px" width="24px"
	 height="24px" viewBox="0 0 24 24" enable-background="new 0 0 24 24" xml:space="preserve">
<g id="Filled_Icon">
	<g>
		<path d="M8.865,18.153c-0.195-0.194-0.512-0.194-0.707,0.001l-2.5,2.507c-0.313,0.316-0.09,0.854,0.354,0.854H7.3L5.66,23.146
			c-0.196,0.194-0.197,0.511-0.002,0.707c0.192,0.194,0.508,0.198,0.707,0.003l2.5-2.486c0.315-0.312,0.093-0.854-0.352-0.854H7.216
			l1.649-1.653C9.061,18.665,9.061,18.348,8.865,18.153z"/>
		<path d="M13.865,18.153c-0.195-0.194-0.512-0.194-0.707,0.001l-2.5,2.507c-0.313,0.316-0.09,0.854,0.355,0.854H12.3l-1.641,1.631
			c-0.196,0.194-0.197,0.511-0.002,0.707c0.192,0.194,0.508,0.198,0.707,0.003l2.5-2.486c0.315-0.312,0.093-0.854-0.352-0.854
			h-1.296l1.649-1.653C14.061,18.665,14.061,18.348,13.865,18.153z"/>
		<path d="M18.865,18.153c-0.195-0.194-0.512-0.194-0.707,0.001l-2.5,2.507c-0.313,0.316-0.09,0.854,0.354,0.854H17.3l-1.641,1.631
			c-0.196,0.194-0.197,0.511-0.002,0.707c0.192,0.194,0.508,0.198,0.707,0.003l2.5-2.486c0.315-0.312,0.093-0.854-0.353-0.854
			h-1.296l1.649-1.653C19.061,18.665,19.061,18.348,18.865,18.153z"/>
		<path d="M21.861,8.032c0.696-2.284-1.081-4.589-3.398-4.516C15.968-1.91,7.99-0.716,7.085,5.094
			c-2.634,0.442-4.573,2.705-4.573,5.421c0,3.032,2.467,5.5,5.5,5.485h11c2.482,0.015,4.5-2.004,4.5-4.485
			C23.512,10.16,22.901,8.884,21.861,8.032z"/>
	</g>
</g>
<g id="Invisible_Shape">
	<rect fill="none" width="24" height="24"/>
</g>
</svg>
