<?xml version="1.0" encoding="utf-8"?>
<!-- Generator: Adobe Illustrator 19.2.1, SVG Export Plug-In . SVG Version: 6.00 Build 0)  -->
<svg version="1.1" xmlns="http://www.w3.org/2000/svg" xmlns:xlink="http://www.w3.org/1999/xlink" x="0px" y="0px" width="24px"
	 height="24px" viewBox="0 0 24 24" enable-background="new 0 0 24 24" xml:space="preserve">
<g id="Filled_Icon">
	<g>
		<g>
			<g>
				<path d="M10.5,13.5C8.019,13.5,6,11.481,6,9s2.019-4.5,4.5-4.5S15,6.519,15,9S12.981,13.5,10.5,13.5z"/>
			</g>
			<g>
				<path d="M10.5,3C10.224,3,10,2.776,10,2.5v-2C10,0.224,10.224,0,10.5,0S11,0.224,11,0.5v2C11,2.776,10.776,3,10.5,3z"/>
			</g>
			<g>
				<path d="M14.742,4.758c-0.195-0.195-0.195-0.512,0-0.707l1.414-1.414c0.195-0.195,0.512-0.195,0.707,0
					c0.195,0.195,0.195,0.512,0,0.707l-1.414,1.414C15.254,4.953,14.938,4.953,14.742,4.758z"/>
			</g>
			<g>
				<path d="M19,9h-2c-0.276,0-0.5-0.224-0.5-0.5S16.724,8,17,8h2c0.276,0,0.5,0.224,0.5,0.5S19.276,9,19,9z"/>
			</g>
			<g>
				<path d="M16.156,15.364l-1.414-1.415c-0.195-0.195-0.195-0.512,0-0.707s0.512-0.195,0.707,0l1.414,1.415
					c0.195,0.195,0.195,0.512,0,0.707C16.668,15.56,16.352,15.56,16.156,15.364z"/>
			</g>
			<g>
				<path d="M10.5,18c-0.276,0-0.5-0.224-0.5-0.5v-2c0-0.276,0.224-0.5,0.5-0.5s0.5,0.224,0.5,0.5v2C11,17.776,10.776,18,10.5,18z"
					/>
			</g>
			<g>
				<path d="M4.136,15.364c-0.195-0.195-0.195-0.512,0-0.707l1.415-1.415c0.195-0.195,0.512-0.195,0.707,0s0.195,0.512,0,0.707
					l-1.415,1.415C4.648,15.56,4.331,15.56,4.136,15.364z"/>
			</g>
			<g>
				<path d="M4,9H2C1.724,9,1.5,8.776,1.5,8.5S1.724,8,2,8h2c0.276,0,0.5,0.224,0.5,0.5S4.276,9,4,9z"/>
			</g>
			<g>
				<path d="M5.551,4.758L4.136,3.344c-0.195-0.195-0.195-0.512,0-0.707c0.195-0.195,0.512-0.195,0.707,0l1.415,1.414
					c0.195,0.195,0.195,0.512,0,0.707S5.746,4.953,5.551,4.758z"/>
			</g>
		</g>
		<g>
			<g>
				<path d="M18.518,23.632l-1.5-5.5c-0.073-0.267,0.085-0.542,0.351-0.614c0.264-0.069,0.541,0.085,0.614,0.351L19,21.6
					l1.018-3.731c0.073-0.267,0.351-0.421,0.614-0.351c0.267,0.072,0.424,0.348,0.351,0.614l-1.5,5.5
					C19.348,24.121,18.652,24.121,18.518,23.632z"/>
			</g>
			<g>
				<path d="M14,24c-1.467,0-2-1.169-2-1.954V18c0-0.276,0.224-0.5,0.5-0.5S13,17.724,13,18v4.046C13.004,22.267,13.087,23,14,23
					c0.907,0,0.999-0.729,1-0.952V18c0-0.276,0.224-0.5,0.5-0.5S16,17.724,16,18v4.046C16.013,23.072,15.271,24,14,24z"/>
			</g>
		</g>
	</g>
</g>
<g id="Invisible_Shape">
	<rect fill="none" width="24" height="24"/>
</g>
</svg>
