<?xml version="1.0" encoding="utf-8"?>
<!-- Generator: Adobe Illustrator 19.2.1, SVG Export Plug-In . SVG Version: 6.00 Build 0)  -->
<svg version="1.1" xmlns="http://www.w3.org/2000/svg" xmlns:xlink="http://www.w3.org/1999/xlink" x="0px" y="0px" width="24px"
	 height="24px" viewBox="0 0 24 24" enable-background="new 0 0 24 24" xml:space="preserve">
<g id="Filled_Icon">
	<g>
		<path d="M0.818,19.055c1.221,0.258,2.592-1.02,2.97-1.489c0.609-0.757,1.936-0.684,2.451,0.142
			c1.212,1.881,3.66,1.689,4.671,0.029c0.597-0.982,1.983-0.969,2.568-0.029c1.293,1.93,3.76,1.626,4.664,0.044
			c0.568-0.986,1.983-0.997,2.577-0.042c0.003,0.003,1.082,1.588,2.48,1.302c0.271-0.056,0.546-0.027,0.802,0.063l0.003-2.594
			c0-0.322-0.299-0.557-0.602-0.49c-2.128,0.445-3.477-1.664-3.534-1.756c-0.186-0.295-0.685-0.287-0.861,0.016
			c-1.203,2.176-4.706,2.604-6.379-0.016c-0.188-0.297-0.687-0.287-0.861,0.016c-1.358,2.346-4.888,2.447-6.378-0.016
			c-0.173-0.273-0.618-0.299-0.82-0.045c-0.018,0.025-1.849,2.293-3.959,1.843c-0.312-0.067-0.607,0.177-0.6,0.488l-0.004,2.599
			C0.262,19.025,0.542,18.998,0.818,19.055z"/>
		<path d="M23.403,19.99c-1.488,0.307-2.868-0.701-3.534-1.756c-0.186-0.295-0.685-0.287-0.861,0.016
			c-1.203,2.176-4.706,2.604-6.379-0.016c-0.187-0.295-0.685-0.286-0.86,0.015c-1.431,2.412-4.93,2.382-6.379-0.015
			c-0.173-0.274-0.618-0.299-0.82-0.045c-0.775,1-2.43,2.173-3.959,1.843c-0.315-0.064-0.61,0.177-0.597,0.488l-0.007,2.979
			c-0.007,0.133,0.045,0.261,0.139,0.354C0.24,23.947,0.367,24,0.5,24h23c0.276,0,0.5-0.223,0.5-0.499l0.005-3.021
			C24.005,20.162,23.712,19.926,23.403,19.99z"/>
		<g>
			<path d="M18.354,10.65c-0.195-0.195-0.512-0.195-0.707,0L16,12.297V5.504c0-0.276-0.224-0.5-0.5-0.5s-0.5,0.224-0.493,0.5v6.793
				l-1.653-1.646c-0.195-0.195-0.512-0.195-0.707,0s-0.195,0.512,0,0.707l2.5,2.5c0.203,0.201,0.518,0.189,0.708,0l2.5-2.5
				C18.549,11.162,18.549,10.846,18.354,10.65z"/>
			<path d="M10.646,10.65L9,12.297V5.504c0-0.276-0.224-0.5-0.5-0.5S8,5.227,8.007,5.504v6.793L6.353,10.65
				c-0.195-0.195-0.512-0.195-0.707,0s-0.195,0.512,0,0.707l2.499,2.5c0.189,0.188,0.504,0.203,0.708,0l2.5-2.5
				c0.195-0.195,0.195-0.512,0-0.707S10.842,10.455,10.646,10.65z"/>
		</g>
	</g>
</g>
<g id="Invisible_Shape">
	<rect fill="none" width="24" height="24"/>
</g>
</svg>
