<?xml version="1.0" encoding="utf-8"?>
<!-- Generator: Adobe Illustrator 19.2.1, SVG Export Plug-In . SVG Version: 6.00 Build 0)  -->
<svg version="1.1" xmlns="http://www.w3.org/2000/svg" xmlns:xlink="http://www.w3.org/1999/xlink" x="0px" y="0px" width="24px"
	 height="24px" viewBox="0 0 24 24" enable-background="new 0 0 24 24" xml:space="preserve">
<g id="Filled_Icon">
	<g>
		<path d="M9.562,10.996c4.687-0.582,5.144,4.271,3.742,6.658c1,0.341,1.16,1.345,2.786,1.345c0.878,0,1.697-0.472,2.086-1.204
			c0.553-1.037,2.027-1.059,2.619-0.059c0.002,0.004,0.795,1.221,1.919,1.32c-4.546-4.876-3.145-11.551-8.668-12.055
			c-1.165-0.109-3.91,0.564-5.01,3.312C8.891,10.678,9.2,11.049,9.562,10.996z"/>
		<path d="M23.398,20.011c-1.462,0.304-2.806-0.679-3.464-1.767c-0.185-0.309-0.705-0.297-0.875,0.021
			c-0.904,1.7-3.558,2.659-5.889,0.437c-0.19-0.183-0.489-0.186-0.683-0.007c-2.085,1.913-5.781,1.739-7.05-0.445
			c-0.166-0.284-0.617-0.32-0.825-0.064c-0.816,1-2.457,2.157-4.008,1.826C0.288,19.947,0,20.185,0,20.5v3C0,23.777,0.224,24,0.5,24
			h23c0.276,0,0.5-0.223,0.5-0.5v-3C24,20.19,23.716,19.947,23.398,20.011z"/>
	</g>
</g>
<g id="Invisible_Shape">
	<rect fill="none" width="24" height="24"/>
</g>
</svg>
