<?xml version="1.0" encoding="utf-8"?>
<!-- Generator: Adobe Illustrator 16.0.3, SVG Export Plug-In . SVG Version: 6.00 Build 0)  -->
<!DOCTYPE svg PUBLIC "-//W3C//DTD SVG 1.1//EN" "http://www.w3.org/Graphics/SVG/1.1/DTD/svg11.dtd">
<svg version="1.1" xmlns="http://www.w3.org/2000/svg" xmlns:xlink="http://www.w3.org/1999/xlink" x="0px" y="0px" width="24px"
	 height="24px" viewBox="0 0 24 24" enable-background="new 0 0 24 24" xml:space="preserve">
<g id="Outline_Icons_1_">
	<g id="Outline_Icons">
	</g>
	<g id="New_icons_1_">
		<g>
			<polyline fill="none" stroke="#000000" stroke-linecap="round" stroke-linejoin="round" stroke-miterlimit="10" points="
				0.5,22.001 2.5,20 4.5,22 6.5,20 8,21.5 			"/>
			<g>
				<path fill="none" stroke="#000000" stroke-linecap="round" stroke-linejoin="round" stroke-miterlimit="10" d="M13.311,18.681
					c-0.576,0.894-3.703,2.192-3.703,2.192s-0.109-3.383,0.467-4.276c0.576-0.895,1.767-1.151,2.66-0.576
					C13.628,16.597,13.887,17.788,13.311,18.681z"/>
				
					<line fill="none" stroke="#000000" stroke-linecap="round" stroke-linejoin="round" stroke-miterlimit="10" x1="11.295" y1="18.257" x2="9.607" y2="20.874"/>
				
					<rect x="14.22" y="5.685" transform="matrix(0.8406 0.5417 -0.5417 0.8406 8.6358 -6.7444)" fill="none" stroke="#000000" stroke-linecap="round" stroke-linejoin="round" stroke-miterlimit="10" width="3.114" height="11.229"/>
				<path fill="none" stroke="#000000" stroke-linecap="round" stroke-linejoin="round" stroke-miterlimit="10" d="M20.46,1.154
					c-0.724-0.466-1.687-0.256-2.153,0.466l-3.373,5.236"/>
				
					<rect x="18.946" y="0.846" transform="matrix(-0.8409 -0.5412 0.5412 -0.8409 35.6003 18.3882)" fill="none" stroke="#000000" stroke-linecap="round" stroke-linejoin="round" stroke-miterlimit="10" width="3.115" height="6.231"/>
			</g>
		</g>
	</g>
</g>
<g id="Frames-24px">
	<rect fill="none" width="24" height="24"/>
</g>
</svg>
