<?xml version="1.0" encoding="utf-8"?>
<!-- Generator: Adobe Illustrator 19.2.1, SVG Export Plug-In . SVG Version: 6.00 Build 0)  -->
<svg version="1.1" xmlns="http://www.w3.org/2000/svg" xmlns:xlink="http://www.w3.org/1999/xlink" x="0px" y="0px" width="24px"
	 height="24px" viewBox="0 0 24 24" enable-background="new 0 0 24 24" xml:space="preserve">
<g id="Filled_Icons_1_">
	<g id="Filled_Icons">
		<g>
			<path d="M17.294,15.052l-1.307-1.309c-0.302-0.301-0.819-0.218-1.135,0.098l-0.484,0.484c-0.18,0.18-0.468,0.195-0.666,0.036
				c-1.484-1.189-2.896-2.602-4.083-4.084c-0.16-0.198-0.144-0.485,0.037-0.666l0.483-0.484c0.319-0.317,0.396-0.834,0.097-1.134
				L8.928,6.686c-0.302-0.303-0.82-0.218-1.134,0.097L6.997,7.579C6.474,8.103,6.345,8.88,6.691,9.429
				c1.989,3.152,4.707,5.871,7.86,7.859c0.534,0.337,1.341,0.202,1.849-0.306c0.04-0.039,0.758-0.757,0.797-0.797
				C17.56,15.822,17.557,15.313,17.294,15.052z"/>
			<path d="M12,0C5.383,0,0,5.384,0,12c0,6.616,5.383,12,12,12s12-5.384,12-12C24,5.384,18.617,0,12,0z M20.412,17.76
				c-0.156,0.227-0.468,0.285-0.695,0.129c-0.227-0.156-0.286-0.468-0.129-0.695c1.054-1.535,1.611-3.335,1.611-5.204
				c0-5.077-4.131-9.208-9.208-9.208c-5.078,0-9.208,4.131-9.208,9.208c0,5.078,4.13,9.208,9.208,9.208
				c2.388,0,3.974-0.617,4.587-1.785c0.286-0.546,0.306-1.099,0.254-1.494c-0.897,0.688-2,0.729-2.813,0.216
				c-3.278-2.068-6.105-4.894-8.172-8.172c-0.593-0.94-0.406-2.24,0.444-3.09l0.797-0.797c0.702-0.702,1.897-0.748,2.548-0.098
				l1.307,1.309c0.637,0.637,0.737,1.712-0.261,2.713c0.985,1.184,2.114,2.313,3.299,3.299c0.963-0.964,2.087-0.887,2.713-0.262
				L18,14.345c0.335,0.334,0.505,0.789,0.479,1.279c-0.039,0.712-0.363,1.056-0.818,1.511c0.229,0.595,0.298,1.575-0.073,2.469
				c-0.49,1.184-1.859,2.594-5.6,2.594c-5.628,0-10.208-4.579-10.208-10.208S6.361,1.781,11.989,1.781
				c5.629,0,10.208,4.579,10.208,10.208C22.198,14.062,21.58,16.057,20.412,17.76z"/>
		</g>
	</g>
	<g id="New_icons">
	</g>
</g>
<g id="Invisible_Shape">
	<rect fill="none" width="24" height="24"/>
</g>
</svg>
