<?xml version="1.0" encoding="utf-8"?>
<!-- Generator: Adobe Illustrator 19.2.1, SVG Export Plug-In . SVG Version: 6.00 Build 0)  -->
<svg version="1.1" xmlns="http://www.w3.org/2000/svg" xmlns:xlink="http://www.w3.org/1999/xlink" x="0px" y="0px" width="24px"
	 height="24px" viewBox="0 0 24 24" enable-background="new 0 0 24 24" xml:space="preserve">
<g id="Filled_Icons_1_">
	<g id="Filled_Icons">
		<g>
			<g>
				<path d="M12.79,0.992h2.613c0.276,0,0.5-0.224,0.5-0.5s-0.224-0.5-0.5-0.5c-4.069,0-3.912,0.002-3.912,0.002
					C11.215,0,11,0.24,11,0.492v3.973c0,0.276,0.224,0.5,0.5,0.5s0.5-0.224,0.5-0.5v-2.84l5,4.561v6.279c0,0.276,0.224,0.5,0.5,0.5
					s0.5-0.224,0.5-0.5v-6.5c0-0.141-0.059-0.274-0.163-0.369L12.79,0.992z"/>
				<path d="M23.5-0.008h-3.902c-0.276,0-0.5,0.224-0.5,0.5s0.224,0.5,0.5,0.5h2.612L18.979,3.94
					c-0.204,0.185-0.219,0.502-0.033,0.706c0.186,0.205,0.504,0.218,0.706,0.032L23,1.625v2.84c0,0.276,0.224,0.5,0.5,0.5
					s0.5-0.224,0.5-0.5V0.492C24,0.239,23.778-0.008,23.5-0.008z"/>
			</g>
			<path d="M0.581,10.273c3.423,5.185,7.955,9.719,13.146,13.145c1.354,0.899,3.201,0.76,4.404-0.445l1.163-1.164
				c0.98-0.982,0.972-2.562-0.003-3.535l-2.121-2.121c-0.98-0.974-2.751-1.051-3.922,0.389c-2.019-1.687-3.999-3.646-5.789-5.789
				C8.897,9.582,8.82,7.812,7.847,6.831L5.725,4.71C4.752,3.734,3.172,3.728,2.19,4.706L1.026,5.87
				C-0.179,7.071-0.317,8.92,0.581,10.273z"/>
		</g>
	</g>
	<g id="New_icons">
	</g>
</g>
<g id="Invisible_Shape">
	<rect fill="none" width="24" height="24"/>
</g>
</svg>
