<?xml version="1.0" encoding="utf-8"?>
<!-- Generator: Adobe Illustrator 19.2.1, SVG Export Plug-In . SVG Version: 6.00 Build 0)  -->
<svg version="1.1" xmlns="http://www.w3.org/2000/svg" xmlns:xlink="http://www.w3.org/1999/xlink" x="0px" y="0px" width="24px"
	 height="24px" viewBox="0 0 24 24" enable-background="new 0 0 24 24" xml:space="preserve">
<g id="Filled_Icons_1_">
	<g id="Filled_Icons">
		<g>
			<g>
				<circle cx="12.523" cy="7.639" r="1.5"/>
				<circle cx="16.523" cy="7.639" r="1.5"/>
				<circle cx="20.523" cy="7.639" r="1.5"/>
			</g>
			<path d="M0.581,10.273c3.423,5.185,7.955,9.719,13.146,13.145c1.353,0.899,3.201,0.76,4.404-0.445l1.163-1.164
				c0.98-0.981,0.972-2.562-0.003-3.535l-2.121-2.121c-0.98-0.974-2.751-1.051-3.922,0.389c-2.019-1.687-3.999-3.646-5.789-5.789
				c1.439-1.171,1.362-2.941,0.389-3.922L5.725,4.71C4.753,3.734,3.172,3.728,2.191,4.706L1.027,5.87
				C-0.178,7.071-0.316,8.92,0.581,10.273z"/>
		</g>
	</g>
	<g id="New_icons">
	</g>
</g>
<g id="Invisible_Shape">
	<rect fill="none" width="24" height="24"/>
</g>
</svg>
