<?xml version="1.0" encoding="utf-8"?>
<!-- Generator: Adobe Illustrator 19.2.1, SVG Export Plug-In . SVG Version: 6.00 Build 0)  -->
<svg version="1.1" xmlns="http://www.w3.org/2000/svg" xmlns:xlink="http://www.w3.org/1999/xlink" x="0px" y="0px" width="24px"
	 height="24px" viewBox="0 0 24 24" enable-background="new 0 0 24 24" xml:space="preserve">
<g id="Filled_Icons_1_">
	<g id="Filled_Icons">
		<g>
			<path d="M5.3,9.05C4.621,7.972,4.836,6.481,5.813,5.504l0.945-0.945c0.814-0.812,2.108-0.893,2.888-0.114l1.549,1.55
				c0.741,0.742,0.824,1.951-0.369,3.142c0.621,0.753,0.785,0.889,1.613,1.718l7.68-7.68C17.981,1.205,15.129,0,12,0
				C5.383,0,0,5.384,0,12c0,3.129,1.205,5.981,3.174,8.12l6.107-6.107C8.098,12.832,6.859,11.521,5.3,9.05z"/>
			<path d="M20.827,3.881l-7.68,7.68c0.879,0.879,0.974,1,1.718,1.614c1.191-1.195,2.397-1.113,3.142-0.369l1.55,1.549
				c0.788,0.789,0.69,2.083-0.115,2.889l-0.943,0.943c-0.973,0.974-2.458,1.202-3.546,0.515c-2.704-1.707-3.964-2.983-4.964-3.982
				l-6.107,6.107C6.019,22.795,8.872,24,12,24c6.617,0,12-5.384,12-12C24,8.871,22.795,6.019,20.827,3.881z"/>
		</g>
	</g>
	<g id="New_icons">
	</g>
</g>
<g id="Invisible_Shape">
	<rect fill="none" width="24" height="24"/>
</g>
</svg>
