<?xml version="1.0" encoding="utf-8"?>
<!-- Generator: Adobe Illustrator 19.2.1, SVG Export Plug-In . SVG Version: 6.00 Build 0)  -->
<svg version="1.1" xmlns="http://www.w3.org/2000/svg" xmlns:xlink="http://www.w3.org/1999/xlink" x="0px" y="0px" width="24px"
	 height="24px" viewBox="0 0 24 24" enable-background="new 0 0 24 24" xml:space="preserve">
<g id="Filled_Icons_1_">
	<g id="Filled_Icons">
		<g>
			<path d="M23.854,3.147c-0.195-0.195-0.512-0.195-0.707,0l-5.646,5.645L12.731,4h4.297c0.276,0,0.5-0.224,0.5-0.5
				c0-0.276-0.224-0.5-0.5-0.5h-5.526H11.5C11.224,3,11,3.224,11,3.5l0,0V9c0,0.276,0.224,0.5,0.5,0.5S12,9.276,12,9V4.711
				l5.146,5.142c0.193,0.195,0.512,0.197,0.708,0.001l6-6C24.049,3.658,24.049,3.342,23.854,3.147z"/>
			<path d="M0.581,10.273c3.423,5.185,7.955,9.719,13.146,13.145c1.353,0.899,3.201,0.76,4.404-0.445l1.163-1.164
				c0.98-0.981,0.972-2.562-0.003-3.535l-2.121-2.121c-0.98-0.974-2.751-1.051-3.922,0.389c-2.019-1.687-3.999-3.646-5.789-5.789
				c1.439-1.171,1.362-2.941,0.389-3.922L5.725,4.71C4.753,3.734,3.172,3.728,2.191,4.706L1.027,5.87
				C-0.178,7.071-0.316,8.92,0.581,10.273z"/>
		</g>
	</g>
	<g id="New_icons">
	</g>
</g>
<g id="Invisible_Shape">
	<rect fill="none" width="24" height="24"/>
</g>
</svg>
