<?xml version="1.0" encoding="utf-8"?>
<!-- Generator: Adobe Illustrator 19.2.1, SVG Export Plug-In . SVG Version: 6.00 Build 0)  -->
<svg version="1.1" xmlns="http://www.w3.org/2000/svg" xmlns:xlink="http://www.w3.org/1999/xlink" x="0px" y="0px" width="24px"
	 height="24px" viewBox="0 0 24 24" enable-background="new 0 0 24 24" xml:space="preserve">
<g id="Filled_Icons_1_">
	<g id="Filled_Icons">
		<g>
			<path d="M15.724,10.002H8.275C7.365,11.255,6.285,11.505,5,11.5v8C5,20.878,6.122,22,7.5,22l9,0.002c1.378,0,2.5-1.122,2.5-2.5
				v-8C18,11.502,16.769,11.44,15.724,10.002z M9,18.002H8v-1h1V18.002z M9,16.002H8v-1h1V16.002z M9,14.002H8v-1h1V14.002z
				 M12,18.002h-1v-1h1V18.002z M12,16.002h-1v-1h1V16.002z M12,14.002h-1v-1h1V14.002z M15,18.002h-1v-1h1V18.002z M15,16.002h-1
				v-1h1V16.002z M15,14.002h-1v-1h1V14.002z"/>
			<path d="M22.506,3.038c-2.802-2.009-18.197-2.018-21.012,0C0.589,3.687-0.001,4.722,0,5.821v1.5c0,1.428,1.168,2.681,2.5,2.681h3
				c1.332,0,2.499-1.253,2.5-2.681c0-0.319,0-0.545,0-0.545c3.483-0.227,4.517-0.227,8,0c0,0,0,0.226,0,0.545
				c0,1.428,1.169,2.681,2.5,2.681h3c1.331,0,2.5-1.253,2.5-2.681v-1.5C24,4.722,23.411,3.687,22.506,3.038z"/>
		</g>
	</g>
	<g id="New_icons">
	</g>
</g>
<g id="Invisible_Shape">
	<rect fill="none" width="24" height="24"/>
</g>
</svg>
