<?xml version="1.0" encoding="utf-8"?>
<!-- Generator: Adobe Illustrator 19.2.1, SVG Export Plug-In . SVG Version: 6.00 Build 0)  -->
<svg version="1.1" xmlns="http://www.w3.org/2000/svg" xmlns:xlink="http://www.w3.org/1999/xlink" x="0px" y="0px" width="24px"
	 height="24px" viewBox="0 0 24 24" enable-background="new 0 0 24 24" xml:space="preserve">
<g id="Filled_Icons_1_">
	<g id="Filled_Icons">
		<g>
			<path d="M3.5,15h-3C0.224,15,0,15.224,0,15.5v6C0,21.776,0.224,22,0.5,22h3C3.776,22,4,21.776,4,21.5v-6
				C4,15.224,3.776,15,3.5,15z"/>
			<path d="M8.5,12h-3C5.224,12,5,12.224,5,12.5v9C5,21.776,5.224,22,5.5,22h3C8.776,22,9,21.776,9,21.5v-9
				C9,12.224,8.776,12,8.5,12z"/>
			<path d="M13.5,9h-3C10.224,9,10,9.224,10,9.5v12c0,0.276,0.224,0.5,0.5,0.5h3c0.276,0,0.5-0.224,0.5-0.5v-12
				C14,9.224,13.776,9,13.5,9z"/>
			<path d="M18.5,6h-3C15.224,6,15,6.224,15,6.5v15c0,0.276,0.224,0.5,0.5,0.5h3c0.276,0,0.5-0.224,0.5-0.5v-15
				C19,6.224,18.776,6,18.5,6z"/>
			<path d="M23.5,21h-3c-0.276,0-0.5,0.224-0.5,0.5c0,0.276,0.224,0.5,0.5,0.5h3c0.276,0,0.5-0.224,0.5-0.5
				C24,21.224,23.776,21,23.5,21z"/>
		</g>
	</g>
	<g id="New_icons">
	</g>
</g>
<g id="Invisible_Shape">
	<rect fill="none" width="24" height="24"/>
</g>
</svg>
