<?xml version="1.0" encoding="utf-8"?>
<!-- Generator: Adobe Illustrator 19.2.1, SVG Export Plug-In . SVG Version: 6.00 Build 0)  -->
<svg version="1.1" xmlns="http://www.w3.org/2000/svg" xmlns:xlink="http://www.w3.org/1999/xlink" x="0px" y="0px" width="24px"
	 height="24px" viewBox="0 0 24 24" enable-background="new 0 0 24 24" xml:space="preserve">
<g id="Filled_Icons_1_">
	<g id="Filled_Icons">
		<g>
			<path d="M23.128,3.304l-4.315-3C18.485,0.042,18,0.276,18,0.694v1.011c-2.165,0.098-3.343,0.833-4.625,2.19
				c-2.526,2.677-2.319,6.779-2.309,6.953c0.015,0.261,0.23,0.467,0.491,0.471c0.003,0,0.005,0,0.008,0
				c0.259,0,0.475-0.197,0.498-0.456c0.018-0.205-0.058-4.91,5.936-5.159v0.99c0,0.419,0.485,0.651,0.812,0.391l4.315-3
				C23.378,3.886,23.378,3.503,23.128,3.304z"/>
			<path d="M0.581,10.273c3.423,5.185,7.955,9.719,13.146,13.145c1.354,0.899,3.201,0.76,4.404-0.445l1.163-1.164
				c0.98-0.981,0.972-2.562-0.003-3.535l-2.121-2.121c-0.98-0.974-2.751-1.051-3.922,0.389c-2.019-1.687-3.999-3.646-5.789-5.789
				C8.897,9.582,8.82,7.812,7.847,6.831L5.725,4.71C4.752,3.734,3.172,3.728,2.19,4.706L1.026,5.87
				C-0.179,7.071-0.317,8.92,0.581,10.273z"/>
		</g>
	</g>
	<g id="New_icons">
	</g>
</g>
<g id="Invisible_Shape">
	<rect fill="none" width="24" height="24"/>
</g>
</svg>
