<?xml version="1.0" encoding="utf-8"?>
<!-- Generator: Adobe Illustrator 19.2.1, SVG Export Plug-In . SVG Version: 6.00 Build 0)  -->
<svg version="1.1" xmlns="http://www.w3.org/2000/svg" xmlns:xlink="http://www.w3.org/1999/xlink" x="0px" y="0px" width="24px"
	 height="24px" viewBox="0 0 24 24" enable-background="new 0 0 24 24" xml:space="preserve">
<g id="Filled_Icons_1_">
	<g id="Filled_Icons">
		<g>
			<g>
				<path d="M11.5,9C11.776,9,12,8.776,12,8.5v-6C12,2.224,11.776,2,11.5,2S11,2.224,11,2.5v6C11,8.776,11.224,9,11.5,9z"/>
				<path d="M16.513,10.439l4.243-4.243c0.195-0.195,0.195-0.512,0-0.707c-0.195-0.195-0.512-0.195-0.707,0l-4.243,4.243
					c-0.195,0.195-0.195,0.512,0,0.707C16.001,10.634,16.317,10.634,16.513,10.439z"/>
				<path d="M6.487,10.439c0.195,0.195,0.512,0.195,0.707,0c0.195-0.195,0.195-0.512,0-0.707L2.951,5.488
					c-0.195-0.195-0.512-0.195-0.707,0C2.049,5.684,2.049,6,2.244,6.195L6.487,10.439z"/>
			</g>
			<g>
				<path d="M24,17v1.5c0,1.378-1.122,2.499-2.5,2.5h-3c-1.378,0-2.687-1.205-2.5-3.045c-2.632-0.233-5.366-0.233-8,0
					C8.188,19.795,6.878,21,5.501,21H2.5C1.122,20.999,0,19.878,0,18.5V17c-0.001-1.625,1.273-3.157,2.9-3.49
					c5.989-1.22,12.206-1.221,18.2,0C22.726,13.843,24,15.375,24,17z"/>
			</g>
		</g>
	</g>
	<g id="New_icons">
	</g>
</g>
<g id="Invisible_Shape">
	<rect fill="none" width="24" height="24"/>
</g>
</svg>
