<?xml version="1.0" encoding="utf-8"?>
<!-- Generator: Adobe Illustrator 19.2.1, SVG Export Plug-In . SVG Version: 6.00 Build 0)  -->
<svg version="1.1" xmlns="http://www.w3.org/2000/svg" xmlns:xlink="http://www.w3.org/1999/xlink" x="0px" y="0px" width="24px"
	 height="24px" viewBox="0 0 24 24" enable-background="new 0 0 24 24" xml:space="preserve">
<g id="Filled_Icons_1_">
	<g id="Filled_Icons">
		<path d="M18.5,7C15.467,7,13,9.468,13,12.5c0,1.328,0.474,2.548,1.261,3.5H9.739C10.526,15.048,11,13.828,11,12.5
			C11,9.468,8.533,7,5.5,7S0,9.468,0,12.5C0,15.532,2.467,18,5.5,18h13c3.033,0,5.5-2.468,5.5-5.5C24,9.468,21.533,7,18.5,7z
			 M5.5,16C3.57,16,2,14.43,2,12.5C2,10.57,3.57,9,5.5,9S9,10.57,9,12.5C9,14.43,7.43,16,5.5,16z M18.5,16c-1.93,0-3.5-1.57-3.5-3.5
			c0-1.93,1.57-3.5,3.5-3.5s3.5,1.57,3.5,3.5C22,14.43,20.43,16,18.5,16z"/>
	</g>
	<g id="New_icons">
	</g>
</g>
<g id="Invisible_Shape">
	<rect fill="none" width="24" height="24"/>
</g>
</svg>
