<?xml version="1.0" encoding="utf-8"?>
<!-- Generator: Adobe Illustrator 19.2.1, SVG Export Plug-In . SVG Version: 6.00 Build 0)  -->
<svg version="1.1" xmlns="http://www.w3.org/2000/svg" xmlns:xlink="http://www.w3.org/1999/xlink" x="0px" y="0px" width="24px"
	 height="24px" viewBox="0 0 24 24" enable-background="new 0 0 24 24" xml:space="preserve">
<g id="Filled_Icons_1_">
	<g id="Filled_Icons">
		<g>
			<g>
				<path d="M8.434,13.444l3.728-3.727c-0.59-0.63-1.171-1.271-1.728-1.939c1.439-1.171,1.362-2.941,0.389-3.922L8.7,1.734
					C7.728,0.759,6.148,0.752,5.166,1.731L4.002,2.895c-1.205,1.201-1.343,3.05-0.446,4.403C4.994,9.476,6.638,11.53,8.434,13.444z"
					/>
				<path d="M20.145,13.178c-0.98-0.974-2.751-1.051-3.922,0.389c-0.654-0.547-1.3-1.131-1.941-1.731l-3.729,3.728
					c1.915,1.797,3.97,3.441,6.15,4.881c1.354,0.898,3.201,0.76,4.404-0.445l1.163-1.164c0.98-0.981,0.972-2.562-0.003-3.535
					L20.145,13.178z"/>
			</g>
			<path d="M23.854,0.147c-0.197-0.197-0.514-0.193-0.707,0l-23,23c-0.194,0.194-0.196,0.511,0,0.707
				c0.001,0.001,0.004,0.002,0.005,0.003c0.191,0.186,0.505,0.186,0.696,0c0.002-0.001,0.004-0.002,0.005-0.003l23-23
				C24.05,0.657,24.047,0.341,23.854,0.147z"/>
		</g>
	</g>
	<g id="New_icons">
	</g>
</g>
<g id="Invisible_Shape">
	<rect fill="none" width="24" height="24"/>
</g>
</svg>
