<?xml version="1.0" encoding="utf-8"?>
<!-- Generator: Adobe Illustrator 19.2.1, SVG Export Plug-In . SVG Version: 6.00 Build 0)  -->
<svg version="1.1" xmlns="http://www.w3.org/2000/svg" xmlns:xlink="http://www.w3.org/1999/xlink" x="0px" y="0px" width="24px"
	 height="24px" viewBox="0 0 24 24" enable-background="new 0 0 24 24" xml:space="preserve">
<g id="Filled_Icons_1_">
	<g id="Filled_Icons">
		<g>
			<path d="M0,7.502v13c0,0.827,0.673,1.5,1.5,1.5H2v-16H1.5C0.673,6.002,0,6.675,0,7.502z"/>
			<path d="M7.5,3.002H6v-2.5c0-0.276-0.224-0.5-0.5-0.5S5,0.226,5,0.502v2.551C3.86,3.285,3,4.294,3,5.502v16
				c0,1.379,1.122,2.5,2.5,2.5h2c1.378,0,2.5-1.121,2.5-2.5v-16C10,4.123,8.878,3.002,7.5,3.002z"/>
			<path d="M21.5,6.002H11v16h10.5c0.827,0,1.5-0.673,1.5-1.5v-13C23,6.675,22.327,6.002,21.5,6.002z M14,18.002h-1v-1h1V18.002z
				 M14,16.002h-1v-1h1V16.002z M14,14.002h-1v-1h1V14.002z M17,18.002h-1v-1h1V18.002z M17,16.002h-1v-1h1V16.002z M17,14.002h-1
				v-1h1V14.002z M20,18.002h-1v-1h1V18.002z M20,16.002h-1v-1h1V16.002z M20,14.002h-1v-1h1V14.002z M20,10.502
				c0,0.276-0.224,0.5-0.5,0.5h-6c-0.276,0-0.5-0.224-0.5-0.5v-2c0-0.276,0.224-0.5,0.5-0.5h6c0.276,0,0.5,0.224,0.5,0.5V10.502z"/>
		</g>
	</g>
	<g id="New_icons">
	</g>
</g>
<g id="Invisible_Shape">
	<rect fill="none" width="24" height="24"/>
</g>
</svg>
