<?xml version="1.0" encoding="utf-8"?>
<!-- Generator: Adobe Illustrator 19.2.1, SVG Export Plug-In . SVG Version: 6.00 Build 0)  -->
<svg version="1.1" xmlns="http://www.w3.org/2000/svg" xmlns:xlink="http://www.w3.org/1999/xlink" x="0px" y="0px" width="24px"
	 height="24px" viewBox="0 0 24 24" enable-background="new 0 0 24 24" xml:space="preserve">
<g id="Filled_Icons_1_">
	<g id="Filled_Icons">
	</g>
	<g id="New_icons">
		<g>
			<path d="M0.581,10.273c3.423,5.185,7.955,9.719,13.146,13.145c1.354,0.899,3.201,0.76,4.404-0.445l1.163-1.164
				c0.98-0.982,0.972-2.562-0.003-3.535l-2.121-2.121c-0.98-0.974-2.751-1.051-3.922,0.389c-2.019-1.687-3.999-3.646-5.789-5.789
				C8.897,9.582,8.82,7.812,7.847,6.831L5.725,4.71C4.752,3.734,3.172,3.728,2.19,4.706L1.026,5.87
				C-0.179,7.071-0.317,8.92,0.581,10.273z"/>
			<g>
				<path d="M17.5,0C13.916,0,11,2.916,11,6.5s2.916,6.5,6.5,6.5S24,10.084,24,6.5S21.084,0,17.5,0z M17.5,9
					C16.122,9,15,7.879,15,6.5C15,5.121,16.122,4,17.5,4S20,5.121,20,6.5C20,7.879,18.878,9,17.5,9z"/>
				<circle cx="17.5" cy="6.5" r="1.5"/>
			</g>
		</g>
	</g>
</g>
<g id="Invisible_Shape">
	<rect fill="none" width="24" height="24"/>
</g>
</svg>
