<?xml version="1.0" encoding="utf-8"?>
<!-- Generator: Adobe Illustrator 19.2.1, SVG Export Plug-In . SVG Version: 6.00 Build 0)  -->
<svg version="1.1" xmlns="http://www.w3.org/2000/svg" xmlns:xlink="http://www.w3.org/1999/xlink" x="0px" y="0px" width="24px"
	 height="24px" viewBox="0 0 24 24" enable-background="new 0 0 24 24" xml:space="preserve">
<g id="Filled_Icons_1_">
	<g id="Filled_Icons">
		<g>
			<path d="M3.5,21h-3C0.224,21,0,21.224,0,21.5C0,21.776,0.224,22,0.5,22h3C3.776,22,4,21.776,4,21.5C4,21.224,3.776,21,3.5,21z"/>
			<path d="M8.5,21h-3C5.224,21,5,21.224,5,21.5C5,21.776,5.224,22,5.5,22h3C8.776,22,9,21.776,9,21.5C9,21.224,8.776,21,8.5,21z"/>
			<path d="M13.5,21h-3c-0.276,0-0.5,0.224-0.5,0.5c0,0.276,0.224,0.5,0.5,0.5h3c0.276,0,0.5-0.224,0.5-0.5
				C14,21.224,13.776,21,13.5,21z"/>
			<path d="M18.5,21h-3c-0.276,0-0.5,0.224-0.5,0.5c0,0.276,0.224,0.5,0.5,0.5h3c0.276,0,0.5-0.224,0.5-0.5
				C19,21.224,18.776,21,18.5,21z"/>
			<path d="M23.5,21h-3c-0.276,0-0.5,0.224-0.5,0.5c0,0.276,0.224,0.5,0.5,0.5h3c0.276,0,0.5-0.224,0.5-0.5
				C24,21.224,23.776,21,23.5,21z"/>
		</g>
	</g>
	<g id="New_icons">
	</g>
</g>
<g id="Invisible_Shape">
	<rect fill="none" width="24" height="24"/>
</g>
</svg>
