<?xml version="1.0" encoding="utf-8"?>
<!-- Generator: Adobe Illustrator 19.2.1, SVG Export Plug-In . SVG Version: 6.00 Build 0)  -->
<svg version="1.1" xmlns="http://www.w3.org/2000/svg" xmlns:xlink="http://www.w3.org/1999/xlink" x="0px" y="0px" width="24px"
	 height="24px" viewBox="0 0 24 24" enable-background="new 0 0 24 24" xml:space="preserve">
<g id="Filled_Icons_1_">
	<g id="Filled_Icons">
		<g>
			<path d="M19.261,6.495l2.669-2.64c0.197-0.194,0.199-0.515-0.001-0.712l-3.052-3C18.56-0.166,18.026,0.06,18.026,0.5v4.77
				l-3.148-3.124c-0.195-0.193-0.512-0.193-0.707,0.002c-0.194,0.196-0.193,0.513,0.003,0.707l3.665,3.64l-3.691,3.65
				c-0.196,0.194-0.198,0.511-0.004,0.707c0.194,0.195,0.51,0.199,0.707,0.004l3.175-3.14V12.5c0,0.443,0.537,0.665,0.851,0.356
				l3.052-3c0.198-0.194,0.2-0.516,0.002-0.711L19.261,6.495z M19.026,1.692l1.84,1.809l-1.84,1.819V1.692z M19.026,11.308V7.672
				l1.84,1.826L19.026,11.308z"/>
			<path d="M0.556,10.273c3.423,5.185,7.955,9.719,13.146,13.145c1.353,0.899,3.201,0.76,4.404-0.445l1.163-1.164
				c0.98-0.981,0.972-2.562-0.003-3.535l-2.121-2.121c-0.98-0.974-2.751-1.051-3.922,0.389c-2.019-1.687-3.999-3.646-5.789-5.789
				c1.439-1.171,1.362-2.941,0.389-3.922L5.7,4.71C4.727,3.734,3.147,3.728,2.165,4.706L1.002,5.87
				C-0.204,7.071-0.342,8.92,0.556,10.273z"/>
		</g>
	</g>
	<g id="New_icons">
	</g>
</g>
<g id="Invisible_Shape">
	<rect fill="none" width="24" height="24"/>
</g>
</svg>
