<?xml version="1.0" encoding="utf-8"?>
<!-- Generator: Adobe Illustrator 19.2.1, SVG Export Plug-In . SVG Version: 6.00 Build 0)  -->
<svg version="1.1" xmlns="http://www.w3.org/2000/svg" xmlns:xlink="http://www.w3.org/1999/xlink" x="0px" y="0px" width="24px"
	 height="24px" viewBox="0 0 24 24" enable-background="new 0 0 24 24" xml:space="preserve">
<g id="Filled_Icons_1_">
	<g id="Filled_Icons">
		<g>
			<g>
				<path d="M24,6.002v1.5c0,1.378-1.122,2.499-2.5,2.5h-3c-1.378,0-2.687-1.205-2.5-3.045c-2.632-0.233-5.366-0.233-8,0
					c0.188,1.84-1.122,3.045-2.499,3.045H2.5C1.122,10.001,0,8.88,0,7.502v-1.5c-0.001-1.625,1.273-3.157,2.9-3.49
					c5.989-1.22,12.206-1.221,18.2,0C22.726,2.845,24,4.377,24,6.002z"/>
			</g>
			<path d="M8.5,12.002h-3c-0.276,0-0.5,0.224-0.5,0.5v2c0,0.276,0.224,0.5,0.5,0.5h3c0.276,0,0.5-0.224,0.5-0.5v-2
				C9,12.226,8.776,12.002,8.5,12.002z"/>
			<path d="M13.5,12.002h-3c-0.276,0-0.5,0.224-0.5,0.5v2c0,0.276,0.224,0.5,0.5,0.5h3c0.276,0,0.5-0.224,0.5-0.5v-2
				C14,12.226,13.776,12.002,13.5,12.002z"/>
			<path d="M18.5,12.002h-3c-0.276,0-0.5,0.224-0.5,0.5v2c0,0.276,0.224,0.5,0.5,0.5h3c0.276,0,0.5-0.224,0.5-0.5v-2
				C19,12.226,18.776,12.002,18.5,12.002z"/>
			<path d="M8.5,16.002h-3c-0.276,0-0.5,0.224-0.5,0.5v2c0,0.276,0.224,0.5,0.5,0.5h3c0.276,0,0.5-0.224,0.5-0.5v-2
				C9,16.226,8.776,16.002,8.5,16.002z"/>
			<path d="M13.5,16.002h-3c-0.276,0-0.5,0.224-0.5,0.5v2c0,0.276,0.224,0.5,0.5,0.5h3c0.276,0,0.5-0.224,0.5-0.5v-2
				C14,16.226,13.776,16.002,13.5,16.002z"/>
			<path d="M18.5,16.002h-3c-0.276,0-0.5,0.224-0.5,0.5v2c0,0.276,0.224,0.5,0.5,0.5h3c0.276,0,0.5-0.224,0.5-0.5v-2
				C19,16.226,18.776,16.002,18.5,16.002z"/>
			<path d="M8.5,20.002h-3c-0.276,0-0.5,0.224-0.5,0.5v2c0,0.276,0.224,0.5,0.5,0.5h3c0.276,0,0.5-0.224,0.5-0.5v-2
				C9,20.226,8.776,20.002,8.5,20.002z"/>
			<path d="M13.5,20.002h-3c-0.276,0-0.5,0.224-0.5,0.5v2c0,0.276,0.224,0.5,0.5,0.5h3c0.276,0,0.5-0.224,0.5-0.5v-2
				C14,20.226,13.776,20.002,13.5,20.002z"/>
			<path d="M18.5,20.002h-3c-0.276,0-0.5,0.224-0.5,0.5v2c0,0.276,0.224,0.5,0.5,0.5h3c0.276,0,0.5-0.224,0.5-0.5v-2
				C19,20.226,18.776,20.002,18.5,20.002z"/>
		</g>
	</g>
	<g id="New_icons">
	</g>
</g>
<g id="Invisible_Shape">
	<rect fill="none" width="24" height="24"/>
</g>
</svg>
