<?xml version="1.0" encoding="utf-8"?>
<!-- Generator: Adobe Illustrator 19.2.1, SVG Export Plug-In . SVG Version: 6.00 Build 0)  -->
<svg version="1.1" xmlns="http://www.w3.org/2000/svg" xmlns:xlink="http://www.w3.org/1999/xlink" x="0px" y="0px" width="24px"
	 height="24px" viewBox="0 0 24 24" enable-background="new 0 0 24 24" xml:space="preserve">
<g id="Filled_Icons_1_">
	<g id="Filled_Icons">
		<g>
			<path d="M19.118,7.742c0.195,0.195,0.512,0.195,0.707,0c2.061-2.06,4.403-6.075,3.161-7.316c-0.195-0.195-0.512-0.195-0.707,0
				l-6.019,6.018l-0.812-0.812c0.832-1.174,0.691-2.757-0.319-3.767l-1.724-1.725c-0.195-0.195-0.512-0.195-0.707,0
				s-0.195,0.512,0,0.707l1.724,1.725c0.591,0.591,0.769,1.527,0.302,2.336l-3.043-3.043c-0.195-0.195-0.512-0.195-0.707,0
				s-0.195,0.512,0,0.707l3.043,3.042c-0.741,0.428-1.703,0.332-2.336-0.301L9.957,3.59c-0.195-0.195-0.512-0.195-0.707,0
				c-0.195,0.195-0.195,0.512,0,0.707l1.725,1.725c0.993,0.993,2.57,1.16,3.767,0.317l0.812,0.812l-2.93,2.93
				c-0.195,0.195-0.195,0.512,0,0.707c0.195,0.195,0.512,0.195,0.707,0l2.93-2.93l2.941,2.941c0.195,0.195,0.512,0.195,0.707,0
				c0.195-0.195,0.195-0.512,0-0.707l-2.941-2.941l0.78-0.779L19.118,7.742z"/>
			<path d="M0.581,10.273c3.423,5.185,7.955,9.719,13.146,13.145c1.354,0.899,3.201,0.76,4.404-0.445l1.163-1.164
				c0.98-0.981,0.972-2.562-0.003-3.535l-2.121-2.121c-0.98-0.974-2.751-1.051-3.922,0.389c-2.019-1.687-3.999-3.646-5.789-5.789
				C8.897,9.582,8.82,7.812,7.847,6.831L5.725,4.71C4.752,3.734,3.172,3.728,2.19,4.706L1.026,5.87
				C-0.179,7.071-0.317,8.92,0.581,10.273z"/>
		</g>
	</g>
	<g id="New_icons">
	</g>
</g>
<g id="Invisible_Shape">
	<rect fill="none" width="24" height="24"/>
</g>
</svg>
