<?xml version="1.0" encoding="utf-8"?>
<!-- Generator: Adobe Illustrator 19.2.1, SVG Export Plug-In . SVG Version: 6.00 Build 0)  -->
<svg version="1.1" xmlns="http://www.w3.org/2000/svg" xmlns:xlink="http://www.w3.org/1999/xlink" x="0px" y="0px" width="24px"
	 height="24px" viewBox="0 0 24 24" enable-background="new 0 0 24 24" xml:space="preserve">
<g id="Filled_Icons_1_">
	<g id="Filled_Icons">
		<g>
			<g>
				<g>
					<path d="M24,7v1.5c0,1.378-1.122,2.499-2.5,2.5h-3c-1.378,0-2.687-1.205-2.5-3.045c-2.632-0.233-5.366-0.233-8,0
						C8.188,9.795,6.878,11,5.501,11H2.5C1.122,10.999,0,9.878,0,8.5V7c-0.001-1.625,1.273-3.157,2.9-3.49
						c5.989-1.22,12.206-1.221,18.2,0C22.726,3.843,24,5.375,24,7z"/>
				</g>
			</g>
			<path d="M13.969,11.065V9.502c0-0.276-0.224-0.5-0.5-0.5c-0.276,0-0.5,0.224-0.5,0.5v1.5H11v-1.5c0-0.276-0.224-0.5-0.5-0.5
				c-0.276,0-0.5,0.224-0.5,0.5v1.525c-4.454,0.261-8,3.956-8,8.475v3c0,0.276,0.224,0.5,0.5,0.5h19c0.276,0,0.5-0.224,0.5-0.5v-3
				C21.969,14.995,18.969,10.995,13.969,11.065z M12,21.002c-2.206,0-4-1.794-4-4c0-2.206,1.794-4,4-4s4,1.794,4,4
				C16,19.208,14.206,21.002,12,21.002z"/>
		</g>
	</g>
	<g id="New_icons">
	</g>
</g>
<g id="Invisible_Shape">
	<rect fill="none" width="24" height="24"/>
</g>
</svg>
