<?xml version="1.0" encoding="utf-8"?>
<!-- Generator: Adobe Illustrator 19.2.1, SVG Export Plug-In . SVG Version: 6.00 Build 0)  -->
<svg version="1.1" xmlns="http://www.w3.org/2000/svg" xmlns:xlink="http://www.w3.org/1999/xlink" x="0px" y="0px" width="24px"
	 height="24px" viewBox="0 0 24 24" enable-background="new 0 0 24 24" xml:space="preserve">
<g id="Filled_Icons_1_">
	<g id="Filled_Icons">
		<g>
			<path d="M13.691,3.973c0.65,0,1.101,0.41,1.101,1.16c0,1.04-0.431,1.509-2.792,3.869v1h4v-1h-3
				c2.051-1.95,2.752-2.709,2.752-3.899c0-1.1-0.78-1.891-2.01-1.891c-0.841,0-1.491,0.341-2.031,1.011l0.62,0.48
				C12.761,4.192,13.131,3.973,13.691,3.973z"/>
			<polygon points="20,7.002 20,5.823 19,5.823 19,7.002 17.651,7.002 19.381,3.532 18.611,3.212 16.681,7.193 16.681,8.002 
				19,8.002 19,10.004 20,10.004 20,8.002 21,8.002 21,7.002 			"/>
			<path d="M0.581,10.285c3.423,5.184,7.955,9.719,13.146,13.145c1.353,0.898,3.201,0.76,4.404-0.445l1.163-1.164
				c0.98-0.981,0.972-2.562-0.003-3.535l-2.121-2.121c-0.98-0.974-2.751-1.051-3.922,0.389c-2.019-1.688-3.999-3.647-5.789-5.789
				c1.439-1.171,1.362-2.941,0.389-3.922L5.725,4.722C4.753,3.746,3.172,3.739,2.191,4.718L1.027,5.882
				C-0.178,7.083-0.316,8.932,0.581,10.285z"/>
		</g>
	</g>
	<g id="New_icons">
	</g>
</g>
<g id="Invisible_Shape">
	<rect fill="none" width="24" height="24"/>
</g>
</svg>
