<?xml version="1.0" encoding="utf-8"?>
<!-- Generator: Adobe Illustrator 19.2.1, SVG Export Plug-In . SVG Version: 6.00 Build 0)  -->
<svg version="1.1" xmlns="http://www.w3.org/2000/svg" xmlns:xlink="http://www.w3.org/1999/xlink" x="0px" y="0px" width="24px"
	 height="24px" viewBox="0 0 24 24" enable-background="new 0 0 24 24" xml:space="preserve">
<g id="Filled_Icons_1_">
	<g id="Filled_Icons">
		<g>
			<path d="M3,2.5C3,1.673,3.673,1,4.5,1h17C21.776,1,22,0.776,22,0.5S21.776,0,21.5,0h-17C3.122,0,2,1.122,2,2.5v4h1.5
				c0.552,0,1,0.448,1,1c0,0.552-0.448,1-1,1H2v1h1.5c0.552,0,1,0.448,1,1c0,0.552-0.448,1-1,1H2v1h1.5c0.552,0,1,0.448,1,1
				c0,0.552-0.448,1-1,1H2v1h1.5c0.552,0,1,0.448,1,1c0,0.552-0.448,1-1,1H2v1h1.5c0.552,0,1,0.448,1,1c0,0.552-0.448,1-1,1H2v1
				C2,22.878,3.122,24,4.5,24H22V4H4.5C3.673,4,3,3.327,3,2.5z M6.7,8.419l0.734-0.733C8.099,7.021,9.26,7.019,9.926,7.685
				l1.338,1.339c0.65,0.649,0.778,1.71-0.124,2.613c1.026,1.211,2.187,2.37,3.392,3.391c0.886-0.879,1.983-0.754,2.614-0.122
				l1.337,1.338c0.688,0.684,0.689,1.802,0,2.491l-0.734,0.734c-0.825,0.824-2.089,0.911-3.01,0.302
				c-3.287-2.174-6.171-5.058-8.341-8.342C5.773,10.484,5.9,9.219,6.7,8.419z"/>
			<path d="M4.5,2C4.224,2,4,2.224,4,2.5S4.224,3,4.5,3h16C20.776,3,21,2.776,21,2.5S20.776,2,20.5,2H4.5z"/>
			<path d="M1.5,8h2C3.776,8,4,7.775,4,7.5S3.776,7,3.5,7h-2C1.224,7,1,7.225,1,7.5S1.224,8,1.5,8z"/>
			<path d="M1.5,11h2C3.776,11,4,10.775,4,10.5C4,10.225,3.776,10,3.5,10h-2C1.224,10,1,10.225,1,10.5C1,10.775,1.224,11,1.5,11z"/>
			<path d="M1.5,14h2C3.776,14,4,13.775,4,13.5C4,13.225,3.776,13,3.5,13h-2C1.224,13,1,13.225,1,13.5C1,13.775,1.224,14,1.5,14z"/>
			<path d="M1.5,17h2C3.776,17,4,16.775,4,16.5C4,16.225,3.776,16,3.5,16h-2C1.224,16,1,16.225,1,16.5C1,16.775,1.224,17,1.5,17z"/>
			<path d="M4,19.5C4,19.225,3.776,19,3.5,19h-2C1.224,19,1,19.225,1,19.5C1,19.775,1.224,20,1.5,20h2C3.776,20,4,19.775,4,19.5z"/>
		</g>
	</g>
	<g id="New_icons">
	</g>
</g>
<g id="Invisible_Shape">
	<rect fill="none" width="24" height="24"/>
</g>
</svg>
