<?xml version="1.0" encoding="utf-8"?>
<!-- Generator: Adobe Illustrator 19.2.1, SVG Export Plug-In . SVG Version: 6.00 Build 0)  -->
<svg version="1.1" xmlns="http://www.w3.org/2000/svg" xmlns:xlink="http://www.w3.org/1999/xlink" x="0px" y="0px" width="24px"
	 height="24px" viewBox="0 0 24 24" enable-background="new 0 0 24 24" xml:space="preserve">
<g id="Filled_Icons_1_">
	<g id="Filled_Icons">
		<g>
			<path d="M23.5,4H22V3.5C22,1.57,20.43,0,18.5,0S15,1.57,15,3.5V4h-1.5C13.224,4,13,4.224,13,4.5v8c0,0.276,0.224,0.5,0.5,0.5h10
				c0.276,0,0.5-0.224,0.5-0.5v-8C24,4.224,23.776,4,23.5,4z M19,8.347V10c0,0.276-0.224,0.5-0.5,0.5S18,10.276,18,10V8.347
				c-0.293-0.175-0.5-0.481-0.5-0.847c0-0.552,0.448-1,1-1s1,0.448,1,1C19.5,7.865,19.293,8.172,19,8.347z M21,4h-5V3.5
				C16,2.121,17.121,1,18.5,1S21,2.121,21,3.5V4z"/>
			<path d="M0.581,10.273c3.423,5.185,7.955,9.719,13.146,13.145c1.354,0.899,3.201,0.76,4.404-0.445l1.163-1.164
				c0.98-0.981,0.972-2.562-0.003-3.535l-2.121-2.121c-0.98-0.974-2.751-1.051-3.922,0.389c-2.019-1.687-3.999-3.646-5.789-5.789
				C8.897,9.582,8.82,7.812,7.847,6.831L5.725,4.71C4.752,3.734,3.172,3.728,2.19,4.706L1.026,5.87
				C-0.179,7.071-0.317,8.92,0.581,10.273z"/>
		</g>
	</g>
	<g id="New_icons">
	</g>
</g>
<g id="Invisible_Shape">
	<rect fill="none" width="24" height="24"/>
</g>
</svg>
