<?xml version="1.0" encoding="utf-8"?>
<!-- Generator: Adobe Illustrator 19.2.1, SVG Export Plug-In . SVG Version: 6.00 Build 0)  -->
<svg version="1.1" xmlns="http://www.w3.org/2000/svg" xmlns:xlink="http://www.w3.org/1999/xlink" x="0px" y="0px" width="24px"
	 height="24px" viewBox="0 0 24 24" enable-background="new 0 0 24 24" xml:space="preserve">
<g id="Filled_Icons_1_">
	<g id="Filled_Icons">
	</g>
	<g id="New_icons">
		<g>
			<path d="M21.999,19.001V9h-5.001l0.001,10c0,0.276,0.224,0.5,0.5,0.5H18V21c0,0.276,0.224,0.5,0.5,0.5H19v2
				c0,0.276,0.224,0.5,0.5,0.5s0.5-0.224,0.5-0.5v-2h0.5c0.276,0,0.5-0.224,0.5-0.5v-1.5h0.5
				C21.775,19.499,21.998,19.276,21.999,19.001z"/>
			<path d="M23.998,3.5c0-1.206-0.86-2.216-1.999-2.448V0.5c0-0.276-0.224-0.5-0.5-0.5H17.5C17.224,0,17,0.224,17,0.5L16.998,8
				h5.001V2.093c0.58,0.207,0.999,0.756,0.999,1.407l0.002,8c0,0.276,0.224,0.5,0.5,0.5c0.276,0,0.5-0.224,0.5-0.5L23.998,3.5z"/>
			<path d="M14.5,2h-14C0.224,2,0,2.224,0,2.5v19C0,21.776,0.224,22,0.5,22h9c0.133,0,0.26-0.053,0.354-0.146l5-5
				C14.947,16.761,15,16.633,15,16.5v-14C15,2.224,14.776,2,14.5,2z M8.5,7H12c0.276,0,0.5,0.224,0.5,0.5S12.276,8,12,8H8.5
				C8.224,8,8,7.776,8,7.5S8.224,7,8.5,7z M7.353,10.854l-3,3c-0.193,0.195-0.512,0.196-0.707,0l-1.5-1.5
				c-0.195-0.195-0.195-0.512,0-0.707c0.195-0.195,0.512-0.195,0.707,0L4,12.793l2.647-2.647c0.195-0.195,0.512-0.195,0.707,0
				S7.549,10.659,7.353,10.854z M7.353,5.353l-3,3c-0.193,0.195-0.512,0.195-0.707,0l-1.5-1.5c-0.195-0.195-0.195-0.512,0-0.707
				c0.195-0.195,0.512-0.195,0.707,0L4,7.293l2.647-2.647c0.195-0.195,0.512-0.195,0.707,0S7.549,5.159,7.353,5.353z M8,12.5
				C8,12.224,8.224,12,8.5,12H12c0.276,0,0.5,0.224,0.5,0.5S12.276,13,12,13H8.5C8.224,13,8,12.776,8,12.5z M9,21v-5h5L9,21z"/>
		</g>
	</g>
</g>
<g id="Frames-24px">
	<rect fill="none" width="24" height="24"/>
</g>
</svg>
