<?xml version="1.0" encoding="utf-8"?>
<!-- Generator: Adobe Illustrator 19.2.1, SVG Export Plug-In . SVG Version: 6.00 Build 0)  -->
<svg version="1.1" xmlns="http://www.w3.org/2000/svg" xmlns:xlink="http://www.w3.org/1999/xlink" x="0px" y="0px" width="24px"
	 height="24px" viewBox="0 0 24 24" enable-background="new 0 0 24 24" xml:space="preserve">
<g id="Filled_Icons_1_">
	<g id="Filled_Icons">
		<g>
			<g>
				<path d="M5.918,5.575c-0.256,0-0.512-0.097-0.707-0.293l-2-2c-0.391-0.391-0.391-1.023,0-1.414c0.391-0.39,1.023-0.39,1.414,0
					l2,2c0.391,0.391,0.391,1.023,0,1.414C6.43,5.477,6.174,5.575,5.918,5.575z"/>
			</g>
			<g>
				<path d="M8.987,4.498c-0.552,0-1-0.447-0.987-1v-2.5c-0.013-0.551,0.435-1,0.987-1c0.552,0,1,0.449,1.013,1v2.5
					C9.987,4.05,9.539,4.498,8.987,4.498z"/>
			</g>
			<g>
				<path d="M4.893,9h-2.5c-0.552-0.003-1-0.45-1-1.003c0-0.551,0.448-1,1-0.997h2.5c0.552-0.003,1,0.446,1,0.997
					C5.893,8.55,5.445,8.998,4.893,9z"/>
			</g>
			<g>
				<path d="M5.543,24c-1.152,0-2.305-0.439-3.182-1.315L1.3,21.624c-1.754-1.754-1.754-4.61,0-6.363l3.403-3.403
					c0.391-0.389,1.023-0.389,1.414,0c0.391,0.39,0.391,1.023,0,1.414l-3.403,3.402c-0.975,0.976-0.975,2.561,0,3.536l1.06,1.06
					c0.976,0.976,2.562,0.976,3.536,0l3.403-3.402c0.391-0.39,1.023-0.39,1.414,0c0.391,0.391,0.391,1.023,0,1.414l-3.403,3.404
					C7.848,23.562,6.696,24,5.543,24z"/>
			</g>
			<g>
				<path d="M19.368,17.998h-4.475c-0.552,0-1-0.447-1-1c0-0.551,0.448-1,1-0.997h4.475c1.435-0.003,2.648-1.111,2.648-2.426v-2
					c0-1.349-1.25-2.577-2.623-2.577h-4.5c-0.552,0-1-0.447-1-1c0-0.551,0.448-1,1-0.997h4.5c2.506-0.003,4.623,2.093,4.623,4.574v2
					C24.016,16.014,21.931,17.998,19.368,17.998z"/>
			</g>
		</g>
	</g>
	<g id="New_icons">
	</g>
</g>
<g id="Frames-24px">
	<rect fill="none" width="24" height="24"/>
</g>
</svg>
