<?xml version="1.0" encoding="utf-8"?>
<!-- Generator: Adobe Illustrator 19.2.1, SVG Export Plug-In . SVG Version: 6.00 Build 0)  -->
<svg version="1.1" xmlns="http://www.w3.org/2000/svg" xmlns:xlink="http://www.w3.org/1999/xlink" x="0px" y="0px" width="24px"
	 height="24px" viewBox="0 0 24 24" enable-background="new 0 0 24 24" xml:space="preserve">
<g id="Filled_Icons_1_">
	<g id="Filled_Icons">
		<g>
			<g>
				<path d="M10,24c-2.897,0-5-2.314-5-5.5v-11.5c0-3.991,2.794-7,6.5-7s6.5,3.009,6.5,7v8.497c0,0.552-0.448,1-1,1s-1-0.448-1-1
					V7.001c0-2.898-1.893-5-4.5-5S7,4.102,7,7.001v11.5c0,1.743,0.928,3.5,3,3.5s3-1.757,3-3.5V9.498c0-0.602-0.146-2-1.5-2
					s-1.5,1.398-1.5,2v7.5c0,0.552-0.448,1-1,1s-1-0.448-1-1v-7.5c0-2.393,1.407-4,3.5-4s3.5,1.607,3.5,4V18.5
					C15,21.687,12.897,24,10,24z"/>
			</g>
		</g>
	</g>
	<g id="New_icons">
	</g>
</g>
<g id="Frames-24px">
	<rect fill="none" width="24" height="24"/>
</g>
</svg>
