<?xml version="1.0" encoding="utf-8"?>
<!-- Generator: Adobe Illustrator 19.2.1, SVG Export Plug-In . SVG Version: 6.00 Build 0)  -->
<svg version="1.1" xmlns="http://www.w3.org/2000/svg" xmlns:xlink="http://www.w3.org/1999/xlink" x="0px" y="0px" width="24px"
	 height="24px" viewBox="0 0 24 24" enable-background="new 0 0 24 24" xml:space="preserve">
<g id="Filled_Icons_1_">
	<g id="Filled_Icons">
		<g>
			<path d="M0.646,23.354c0.126,0.124,0.311,0.182,0.501,0.124l2.77-0.853l-2.543-2.543l-0.853,2.771
				C0.468,23.03,0.516,23.222,0.646,23.354z"/>
			<rect x="17.439" y="2.318" transform="matrix(0.7069 -0.7073 0.7073 0.7069 1.0324 14.4905)" width="1.122" height="7.364"/>
			<path d="M5,22.292l2.359-0.725l-1.213-1.213C6.053,20.259,6,20.132,6,20v-2H4c-0.132,0-0.26-0.053-0.353-0.146L2.434,16.64
				L1.708,19L5,22.292z"/>
			<polygon points="17.25,7.457 7,17.706 7,19.792 8.207,21 19.5,9.707 			"/>
			<path d="M21.707,7.5l1.233-1.232c0.471-0.471,0.73-1.098,0.73-1.768c0-0.669-0.26-1.297-0.73-1.768L21.269,1.06
				C20.798,0.59,20.17,0.331,19.5,0.331c-0.669,0-1.297,0.259-1.768,0.729L16.5,2.293L21.707,7.5z"/>
			<polygon points="4.207,17 6.293,17 16.543,6.749 14.293,4.499 3,15.792 			"/>
		</g>
	</g>
	<g id="New_icons">
	</g>
</g>
<g id="Frames-24px">
	<rect fill="none" width="24" height="24"/>
</g>
</svg>
