<?xml version="1.0" encoding="utf-8"?>
<!-- Generator: Adobe Illustrator 19.2.1, SVG Export Plug-In . SVG Version: 6.00 Build 0)  -->
<svg version="1.1" xmlns="http://www.w3.org/2000/svg" xmlns:xlink="http://www.w3.org/1999/xlink" x="0px" y="0px" width="24px"
	 height="24px" viewBox="0 0 24 24" enable-background="new 0 0 24 24" xml:space="preserve">
<g id="Filled_Icons_1_">
	<g id="Filled_Icons">
	</g>
	<g id="New_icons">
		<g>
			<path d="M8.5,18c0-1.653-1.343-2.997-3-2.997s-3,1.344-3,2.997c0,1.371,2.029,4.85,2.5,5.639V19c0-0.276,0.224-0.5,0.5-0.5
				S6,18.724,6,19v4.639C6.471,22.85,8.5,19.371,8.5,18z"/>
			<path d="M3,9v4.5C3,13.776,3.224,14,3.5,14h4C7.776,14,8,13.776,8,13.5V9H3z"/>
			<path d="M3,2.093V8h5V0.5C8,0.224,7.776,0,7.5,0h-4C3.224,0,3,0.224,3,0.5v0.551C1.86,1.283,1,2.293,1,3.5v7.998
				c0,0.276,0.224,0.5,0.5,0.5s0.5-0.224,0.5-0.5V3.5C2,2.849,2.419,2.3,3,2.093z"/>
			<path d="M15,4V2.5C15,1.122,13.878,0,12.499,0C11.121,0,10,1.121,10,2.499V4H15z"/>
			<path d="M10.14,18l1.886,5.659C12.094,23.862,12.285,24,12.5,24s0.406-0.138,0.474-0.341L14.86,18H10.14z"/>
			<rect x="10" y="5" width="5" height="12"/>
			<path d="M18.002,20v1.5c0,0.276,0.224,0.5,0.5,0.5h0.5v1.5c0,0.276,0.224,0.5,0.5,0.5c0.276,0,0.5-0.224,0.5-0.5V22h0.5
				c0.276,0,0.5-0.224,0.5-0.5V20H18.002z"/>
			<path d="M22.001,9H17v9.499c0,0.275,0.225,0.5,0.501,0.501H21.5c0.276,0,0.502-0.226,0.502-0.501L22.001,9z"/>
			<path d="M24,3.5c0-1.206-0.86-2.216-1.999-2.448V0.5c0-0.276-0.224-0.5-0.5-0.5h-3.999c-0.276,0-0.5,0.224-0.5,0.5L17,8h5.001
				V2.093C22.581,2.301,23,2.85,23,3.5l0.002,8c0,0.276,0.224,0.5,0.5,0.5c0.276,0,0.5-0.224,0.5-0.5L24,3.5z"/>
		</g>
	</g>
</g>
<g id="Frames-24px">
	<rect fill="none" width="24" height="24"/>
</g>
</svg>
