<?xml version="1.0" encoding="utf-8"?>
<!-- Generator: Adobe Illustrator 19.2.1, SVG Export Plug-In . SVG Version: 6.00 Build 0)  -->
<svg version="1.1" xmlns="http://www.w3.org/2000/svg" xmlns:xlink="http://www.w3.org/1999/xlink" x="0px" y="0px" width="24px"
	 height="24px" viewBox="0 0 24 24" enable-background="new 0 0 24 24" xml:space="preserve">
<g id="Filled_Icons_1_">
	<g id="Filled_Icons">
	</g>
	<g id="New_icons">
		<g>
			<g>
				<polygon points="10,4.002 5.001,4.002 5,4.002 5,9.002 10,9.002 				"/>
				<path d="M5.001,3.002H10V2.5C10,1.123,8.879,0.002,7.501,0C6.122,0.002,5,1.123,5,2.502L5.001,3.002L5.001,3.002z"/>
			</g>
			<path d="M20.5,10.002h-1.499l-0.001,2c0,0.827-0.673,1.5-1.5,1.5s-1.5-0.673-1.5-1.5l0.001-2H2.5c-0.276,0-0.5,0.223-0.5,0.5
				v10.5c0,0.226,0.153,0.425,0.373,0.483l9.5,2.5c0.088,0.023,0.182,0.022,0.269-0.004l8.5-2.5C20.854,21.419,21,21.223,21,21.002
				v-10.5C21,10.225,20.776,10.002,20.5,10.002z"/>
			<g>
				<rect x="12.001" y="6.002" width="4.002" height="3"/>
				<path d="M16.003,1.054V0.502c0-0.277-0.224-0.5-0.5-0.5h-3.002c-0.276,0-0.5,0.223-0.5,0.5v4.5h4.002V2.095
					c0.581,0.207,1,0.757,1,1.407L17,12.002c0,0.276,0.224,0.5,0.5,0.5s0.5-0.224,0.5-0.5l0.003-8.5
					C18.003,2.294,17.143,1.285,16.003,1.054z"/>
			</g>
		</g>
	</g>
</g>
<g id="Frames-24px">
	<rect fill="none" width="24" height="24"/>
</g>
</svg>
