<?xml version="1.0" encoding="utf-8"?>
<!-- Generator: Adobe Illustrator 19.2.1, SVG Export Plug-In . SVG Version: 6.00 Build 0)  -->
<svg version="1.1" xmlns="http://www.w3.org/2000/svg" xmlns:xlink="http://www.w3.org/1999/xlink" x="0px" y="0px" width="24px"
	 height="24px" viewBox="0 0 24 24" enable-background="new 0 0 24 24" xml:space="preserve">
<g id="Filled_Icons_1_">
	<g id="Filled_Icons">
		<g>
			<path d="M8.5,17c1.993,0,3.825-0.695,5.276-1.849l8.515,8.555c0.389,0.392,1.021,0.393,1.414,0.003
				c0.392-0.39,0.393-1.023,0.004-1.415l-8.523-8.562C16.317,12.287,17,10.473,17,8.5C17,3.812,13.186,0,8.5,0
				C3.812,0,0,3.812,0,8.5C0,13.186,3.812,17,8.5,17z M5,8h7c0.275,0,0.5,0.224,0.5,0.5C12.5,8.775,12.275,9,12,9H5
				C4.724,9,4.5,8.775,4.5,8.5C4.5,8.224,4.724,8,5,8z"/>
		</g>
	</g>
	<g id="New_icons">
	</g>
</g>
<g id="Frames-24px">
	<rect fill="none" width="24" height="24"/>
</g>
</svg>
