<?xml version="1.0" encoding="utf-8"?>
<!-- Generator: Adobe Illustrator 19.2.1, SVG Export Plug-In . SVG Version: 6.00 Build 0)  -->
<svg version="1.1" xmlns="http://www.w3.org/2000/svg" xmlns:xlink="http://www.w3.org/1999/xlink" x="0px" y="0px" width="24px"
	 height="24px" viewBox="0 0 24 24" enable-background="new 0 0 24 24" xml:space="preserve">
<g id="Filled_Icon">
	<g>
		<path d="M23.5,6h-23C0.224,6,0,6.224,0,6.5v6C0,12.776,0.224,13,0.5,13h2.379l5.853-5.853C8.826,7.053,8.953,7,9.086,7h12.828
			c0.445,0,0.668,0.538,0.353,0.853c0,0-1.398,1.383-11.109,11.073C11.077,19.009,11.107,19,10.914,19H0.5C0.224,19,0,19.224,0,19.5
			C0,19.776,0.224,20,0.5,20h10.998l7.016-7H23.5c0.276,0,0.5-0.224,0.5-0.5v-6C24,6.224,23.776,6,23.5,6z"/>
		<path d="M0.5,18h10c0.133,0,0.26-0.053,0.354-0.146L20.707,8C15.741,8,19.804,8,9.5,8H9.293l-9.148,9.146
			C-0.17,17.464,0.059,18.001,0.5,18z M7.204,13.604c0.176-0.212,0.49-0.243,0.704-0.067c0.213,0.176,0.243,0.491,0.066,0.704
			c-0.043,0.053-0.074,0.099-0.096,0.137c0.002,0,0.005,0,0.007,0c0.499,0,1.271-0.45,1.52-0.878
			c-0.939-0.017-1.39-0.877-0.65-1.773c0.469-0.568,1.272-1.003,1.963-1.087l0.382-0.461c0.175-0.212,0.489-0.244,0.703-0.067
			c0.213,0.176,0.243,0.49,0.067,0.704l-0.097,0.116c0.389,0.423,0.237,1.003-0.142,1.463c-0.177,0.213-0.491,0.244-0.704,0.068
			c-0.213-0.176-0.243-0.491-0.067-0.704c0.044-0.054,0.075-0.1,0.097-0.137c-0.003,0-0.005,0-0.007,0
			c-0.504,0-1.279,0.457-1.519,0.878c0.943,0.018,1.388,0.879,0.65,1.772c-0.47,0.569-1.274,1.004-1.963,1.088l-0.381,0.461
			c-0.178,0.216-0.495,0.242-0.704,0.066c-0.213-0.175-0.243-0.49-0.067-0.703l0.097-0.117C6.673,14.651,6.824,14.065,7.204,13.604z
			"/>
	</g>
</g>
<g id="Invisible_Shape">
	<rect fill="none" width="24" height="24"/>
</g>
</svg>
