<?xml version="1.0" encoding="utf-8"?>
<!-- Generator: Adobe Illustrator 19.2.1, SVG Export Plug-In . SVG Version: 6.00 Build 0)  -->
<svg version="1.1" xmlns="http://www.w3.org/2000/svg" xmlns:xlink="http://www.w3.org/1999/xlink" x="0px" y="0px" width="24px"
	 height="24px" viewBox="0 0 24 24" enable-background="new 0 0 24 24" xml:space="preserve">
<g id="Filled_Icon">
	<g>
		<path d="M20,3.5C20,3.224,19.776,3,19.5,3h-19C0.224,3,0,3.224,0,3.5v12C0,15.776,0.224,16,0.5,16h19c0.276,0,0.5-0.224,0.5-0.5
			V3.5z M5,13.5C5,13.775,4.775,14,4.5,14h-2C2.224,14,2,13.775,2,13.5C2,13.224,2.224,13,2.5,13h2C4.775,13,5,13.224,5,13.5z
			 M10,13c-1.93,0-3.5-1.57-3.5-3.5C6.5,7.569,8.07,6,10,6s3.5,1.569,3.5,3.5C13.5,11.43,11.93,13,10,13z M18,5.5
			C18,5.775,17.775,6,17.5,6h-2C15.224,6,15,5.775,15,5.5C15,5.224,15.224,5,15.5,5h2C17.775,5,18,5.224,18,5.5z"/>
		<path d="M22,5.5C22,5.224,21.775,5,21.5,5C21.224,5,21,5.224,21,5.5V17H2.5C2.224,17,2,17.224,2,17.5C2,17.775,2.224,18,2.5,18h19
			c0.276,0,0.5-0.224,0.5-0.5V5.5z"/>
		<path d="M23.5,7C23.224,7,23,7.224,23,7.5V19H4.5C4.224,19,4,19.224,4,19.5C4,19.775,4.224,20,4.5,20h19
			c0.276,0,0.5-0.224,0.5-0.5v-12C24,7.224,23.775,7,23.5,7z"/>
	</g>
</g>
<g id="Invisible_Shape">
	<rect fill="none" width="24" height="24"/>
</g>
</svg>
