<?xml version="1.0" encoding="utf-8"?>
<!-- Generator: Adobe Illustrator 19.2.1, SVG Export Plug-In . SVG Version: 6.00 Build 0)  -->
<svg version="1.1" xmlns="http://www.w3.org/2000/svg" xmlns:xlink="http://www.w3.org/1999/xlink" x="0px" y="0px" width="24px"
	 height="24px" viewBox="0 0 24 24" enable-background="new 0 0 24 24" xml:space="preserve">
<g id="Filled_Icon">
	<g>
		<path d="M23.5,8h-7.879l-8.061,8.06c-0.164,0.165-0.365,0.289-0.586,0.362l-3,1c-1.175,0.392-2.286-0.73-1.898-1.896l1-3
			c0.073-0.222,0.197-0.423,0.362-0.587L7.379,8H0.5C0.224,8,0,8.224,0,8.5v13C0,21.775,0.224,22,0.5,22h23
			c0.275,0,0.5-0.225,0.5-0.5v-13C24,8.224,23.775,8,23.5,8z M20.5,18h-12C8.224,18,8,17.775,8,17.5C8,17.224,8.224,17,8.5,17h12
			c0.275,0,0.5,0.224,0.5,0.5C21,17.775,20.775,18,20.5,18z M20.5,15h-8c-0.276,0-0.5-0.225-0.5-0.5c0-0.276,0.224-0.5,0.5-0.5h8
			c0.275,0,0.5,0.224,0.5,0.5C21,14.775,20.775,15,20.5,15z"/>
		<g>
			<path d="M3.025,15.842c-0.131,0.394,0.248,0.763,0.633,0.632l2.707-0.902l-2.438-2.438L3.025,15.842z"/>
			<rect x="4.447" y="8.336" transform="matrix(0.7071 -0.7071 0.7071 0.7071 -4.5386 9.5429)" width="9.607" height="3.828"/>
			<path d="M17.854,3.647l-2-2c-0.195-0.195-0.512-0.195-0.707,0L13.75,3.043l-0.896-0.896c-0.195-0.195-0.512-0.195-0.707,0l-3,3
				c-0.195,0.195-0.195,0.512,0,0.707s0.512,0.195,0.707,0L12.5,3.207l0.543,0.543L12,4.793L14.707,7.5l3.147-3.147
				C18.049,4.158,18.049,3.842,17.854,3.647z"/>
		</g>
	</g>
</g>
<g id="Invisible_Shape">
	<rect fill="none" width="24" height="24"/>
</g>
</svg>
