<?xml version="1.0" encoding="utf-8"?>
<!-- Generator: Adobe Illustrator 19.2.1, SVG Export Plug-In . SVG Version: 6.00 Build 0)  -->
<svg version="1.1" xmlns="http://www.w3.org/2000/svg" xmlns:xlink="http://www.w3.org/1999/xlink" x="0px" y="0px" width="24px"
	 height="24px" viewBox="0 0 24 24" enable-background="new 0 0 24 24" xml:space="preserve">
<g id="Filled_Icon">
	<g>
		<path d="M5,4c1.391,0,2.087,0,4,0V1C7.519,1,6.399,1,5,1V4z"/>
		<path d="M2,3.5C2,3.775,2.224,4,2.5,4C4.573,4,3.102,4,4,4V1H2.5C2.224,1,2,1.224,2,1.5V3.5z"/>
		<path d="M12,1.5C12,1.224,11.776,1,11.5,1H10v3h1.5C11.776,4,12,3.775,12,3.5V1.5z"/>
		<path d="M3,5H1.5C1.224,5,1,5.224,1,5.5v2C1,7.775,1.224,8,1.5,8C3.573,8,2.102,8,3,8V5z"/>
		<path d="M8,5C6.609,5,5.913,5,4,5v3c1.391,0,2.087,0,4,0V5z"/>
		<path d="M10.5,5C8.427,5,9.898,5,9,5v3h1.5C10.776,8,11,7.775,11,7.5v-2C11,5.224,10.776,5,10.5,5z"/>
		<path d="M9.5,12c0.276,0,0.5-0.225,0.5-0.5v-2C10,9.224,9.776,9,9.5,9C7.427,9,8.898,9,8,9v3C8.898,12,7.427,12,9.5,12z"/>
		<path d="M7,12V9C5.609,9,4.913,9,3,9v3C5.012,12,5.53,12,7,12z"/>
		<path d="M0.5,12H2V9H0.5C0.224,9,0,9.224,0,9.5v2C0,11.775,0.224,12,0.5,12z"/>
		<path d="M1.5,13C1.224,13,1,13.224,1,13.5v2C1,15.775,1.224,16,1.5,16c2.073,0,0.602,0,1.5,0v-3C2.102,13,3.573,13,1.5,13z"/>
		<path d="M8,16v-3c-2.012,0-2.53,0-4,0v3C5.391,16,6.087,16,8,16z"/>
		<path d="M10.5,13H9v3h1.5c0.276,0,0.5-0.225,0.5-0.5v-2C11,13.224,10.776,13,10.5,13z"/>
		<path d="M10,19.5v-2c0-0.276-0.224-0.5-0.5-0.5c-2.073,0-0.602,0-1.5,0v3c0.898,0-0.573,0,1.5,0C9.776,20,10,19.775,10,19.5z"/>
		<path d="M7,17c-1.391,0-2.087,0-4,0v3c2.012,0,2.53,0,4,0V17z"/>
		<path d="M2,17H0.5C0.224,17,0,17.224,0,17.5v2C0,19.775,0.224,20,0.5,20H2V17z"/>
		<path d="M1.5,21C1.224,21,1,21.224,1,21.5v2C1,23.775,1.224,24,1.5,24H3v-3C2.102,21,3.573,21,1.5,21z"/>
		<path d="M4,21v3h4v-3C5.988,21,5.47,21,4,21z"/>
		<path d="M10.5,21H9v3h1.5c0.276,0,0.5-0.225,0.5-0.5v-2C11,21.224,10.776,21,10.5,21z"/>
		<path d="M19,16v-3h-4v3C17.012,16,17.53,16,19,16z"/>
		<path d="M12,15.5c0,0.275,0.224,0.5,0.5,0.5H14v-3h-1.5c-0.276,0-0.5,0.224-0.5,0.5V15.5z"/>
		<path d="M21.5,16c0.276,0,0.5-0.225,0.5-0.5v-2c0-0.276-0.224-0.5-0.5-0.5H20v3C20.897,16,19.427,16,21.5,16z"/>
		<path d="M20,17c-2.012,0-2.53,0-4,0v3c1.391,0,2.087,0,4,0V17z"/>
		<path d="M15,17c-0.898,0,0.573,0-1.5,0c-0.276,0-0.5,0.224-0.5,0.5v2c0,0.275,0.224,0.5,0.5,0.5c2.073,0,0.602,0,1.5,0V17z"/>
		<path d="M22.5,17H21v3h1.5c0.276,0,0.5-0.225,0.5-0.5v-2C23,17.224,22.776,17,22.5,17z"/>
		<path d="M21.5,21c-2.073,0-0.603,0-1.5,0v3h1.5c0.276,0,0.5-0.225,0.5-0.5v-2C22,21.224,21.776,21,21.5,21z"/>
		<path d="M15,21v3h4v-3C17.609,21,16.913,21,15,21z"/>
		<path d="M12,21.5v2c0,0.275,0.224,0.5,0.5,0.5H14v-3h-1.5C12.224,21,12,21.224,12,21.5z"/>
	</g>
</g>
<g id="Invisible_Shape">
	<rect fill="none" width="24" height="24"/>
</g>
</svg>
