<?xml version="1.0" encoding="utf-8"?>
<!-- Generator: Adobe Illustrator 19.2.1, SVG Export Plug-In . SVG Version: 6.00 Build 0)  -->
<svg version="1.1" xmlns="http://www.w3.org/2000/svg" xmlns:xlink="http://www.w3.org/1999/xlink" x="0px" y="0px" width="24px"
	 height="24px" viewBox="0 0 24 24" enable-background="new 0 0 24 24" xml:space="preserve">
<g id="Filled_Icon">
	<g>
		<path d="M17,17H7c-0.231,0-0.473-0.321-0.496-0.911C5.934,16.614,5.259,17,4.5,17C4.224,17,4,16.775,4,16.5
			C4,16.224,4.224,16,4.5,16c1.37,0,2.659-2.308,3.04-3.197C7.619,12.619,7.8,12.5,8,12.5h1.5c1.767,0,2.5-1.303,2.5-2V10
			c0-0.697-0.733-2-2.5-2C3.279,8,7.693,8,5,8v0.166c-1.981,0.425-5,1.906-5,6.999V18.5C0,21.532,2.467,24,5.5,24H13
			c1.102,0,2-0.897,2-2c0-0.364-0.098-0.706-0.269-1H17c1.103,0,2-0.897,2-2S18.103,17,17,17z"/>
		<path d="M13,7h11V5c0-1.102-0.897-2-2-2H7C5.897,3,5,3.898,5,5v2h4.5c2.283,0,3.5,1.742,3.5,3v0.5c0,1.257-1.217,3-3.5,3H8.321
			c-0.263,0.546-0.853,1.642-1.686,2.463C6.754,15.985,6.875,16,7,16h15c1.103,0,2-0.898,2-2V8H13c-0.276,0-0.5-0.225-0.5-0.5
			C12.5,7.224,12.724,7,13,7z M18.5,9h3C21.776,9,22,9.224,22,9.5c0,0.275-0.224,0.5-0.5,0.5h-3C18.224,10,18,9.775,18,9.5
			C18,9.224,18.224,9,18.5,9z"/>
	</g>
</g>
<g id="Invisible_Shape">
	<rect fill="none" width="24" height="24"/>
</g>
</svg>
