<?xml version="1.0" encoding="utf-8"?>
<!-- Generator: Adobe Illustrator 19.2.1, SVG Export Plug-In . SVG Version: 6.00 Build 0)  -->
<svg version="1.1" xmlns="http://www.w3.org/2000/svg" xmlns:xlink="http://www.w3.org/1999/xlink" x="0px" y="0px" width="24px"
	 height="24px" viewBox="0 0 24 24" enable-background="new 0 0 24 24" xml:space="preserve">
<g id="Filled_Icon">
	<g>
		<polygon points="4.332,12.5 5.481,12.5 4.909,11.076 		"/>
		<path d="M21.5,3h-19C1.121,3,0,4.122,0,5.5v13C0,19.878,1.121,21,2.5,21h19c1.378,0,2.5-1.122,2.5-2.5v-13
			C24,4.122,22.878,3,21.5,3z M6.068,14l-0.317-1H4.057l-0.324,1H2.528l1.725-4h1.301l1.72,4H6.068z M12.5,14H11v-2.26L10.091,13
			H9.998L9,11.74V14H8v-4h0.858l1.199,1.464L11.262,10H12.5V14z M16.5,14h-3v-4H16v1h-1.5v0.5H16v1h-1.5V13h2V14z M19.937,14
			c-0.168-0.199-0.777-0.92-0.957-1.159c-0.396,0.535-0.502,0.658-0.909,1.159h-1.488l1.654-2.078L16.657,10h1.504
			c0.22,0.311,0.704,0.959,0.818,1.11c0.523-0.767,0.152-0.258,0.797-1.11h1.475l-1.517,1.922L21.448,14H19.937z"/>
	</g>
</g>
<g id="Invisible_Shape">
	<rect fill="none" width="24" height="24"/>
</g>
</svg>
