<?xml version="1.0" encoding="utf-8"?>
<!-- Generator: Adobe Illustrator 19.2.1, SVG Export Plug-In . SVG Version: 6.00 Build 0)  -->
<svg version="1.1" xmlns="http://www.w3.org/2000/svg" xmlns:xlink="http://www.w3.org/1999/xlink" x="0px" y="0px" width="24px"
	 height="24px" viewBox="0 0 24 24" enable-background="new 0 0 24 24" xml:space="preserve">
<g id="Filled_Icon">
	<g>
		<path d="M18.192,10.507h-0.016c0.016,0-0.907,2-0.907,2h1.095C18.299,11.799,18.192,10.507,18.192,10.507z"/>
		<path d="M21.5,3.007h-19c-1.379,0-2.5,1.121-2.5,2.5v13c0,1.378,1.121,2.5,2.5,2.493h19c1.378,0.007,2.5-1.115,2.5-2.493v-13
			C24,4.128,22.878,3.007,21.5,3.007z M13.31,12.354c-0.54-0.292-1.05-0.682-1.05-1.341c0-1.02,0.892-1.643,1.994-1.643
			c0.615,0,0.976,0.135,1.193,0.255l-0.338,0.9c-0.165-0.09-0.525-0.232-0.945-0.225c-0.502,0-0.765,0.254-0.765,0.533
			c0,0.292,0.308,0.472,0.735,0.712c0.614,0.322,1.005,0.735,1.005,1.335c0,1.125-0.931,1.703-2.056,1.703
			c-0.704,0-1.207-0.181-1.447-0.36l0.36-0.885c0.3,0.18,0.727,0.323,1.192,0.323c0.42,0,0.803-0.195,0.803-0.593
			C13.992,12.782,13.774,12.594,13.31,12.354z M10.782,14.507h-1.08l0.96-5h1.08L10.782,14.507z M7.482,14.507H6.229l-0.506-4H4.914
			c-0.276,0-0.5-0.224-0.5-0.5c0-0.276,0.224-0.5,0.5-0.5c0.658,0,1.137,0,1.803,0c0.278,2.991,0.285,3,0.346,4h0.015
			c0.375-1,0.841-1.934,1.808-4h1.207L7.482,14.507z M18.515,14.507l-0.105-1.5h-1.454l-0.601,1.5h-1.148l2.46-5h1.388l0.593,5
			H18.515z"/>
	</g>
</g>
<g id="Invisible_Shape">
	<rect fill="none" width="24" height="24"/>
</g>
</svg>
