<?xml version="1.0" encoding="utf-8"?>
<!-- Generator: Adobe Illustrator 19.2.1, SVG Export Plug-In . SVG Version: 6.00 Build 0)  -->
<svg version="1.1" xmlns="http://www.w3.org/2000/svg" xmlns:xlink="http://www.w3.org/1999/xlink" x="0px" y="0px" width="24px"
	 height="24px" viewBox="0 0 24 24" enable-background="new 0 0 24 24" xml:space="preserve">
<g id="Filled_Icon">
	<g>
		<rect x="6" y="9" width="1" height="1"/>
		<rect x="10" y="9" width="1" height="1"/>
		<rect x="10" y="11" width="1" height="1"/>
		<rect x="10" y="13" width="1" height="1"/>
		<rect x="10" y="15" width="1" height="1"/>
		<rect x="6" y="11" width="1" height="1"/>
		<rect x="6" y="13" width="1" height="1"/>
		<rect x="6" y="15" width="1" height="1"/>
		<rect x="8" y="10" width="1" height="1"/>
		<rect x="8" y="12" width="1" height="1"/>
		<rect x="8" y="14" width="1" height="1"/>
		<path d="M21.5,3h-19C1.121,3,0,4.122,0,5.5v13C0,19.878,1.121,21,2.5,21h19c1.379,0,2.5-1.122,2.5-2.5v-13
			C24,4.122,22.879,3,21.5,3z M12.949,13c-0.039,0.348-0.112,0.682-0.226,1H12v1h0.207c-0.456,0.681-1.043,1.174-1.688,1.5H10v0.224
			c-0.318,0.113-0.653,0.187-1,0.226V16H8v0.949c-0.342-0.038-0.672-0.11-0.986-0.222V16.5H6.481c0,0-0.002-0.001-0.003-0.002
			C5.75,16.127,5.111,15.533,4.762,15H5v-1H4.276c-0.113-0.318-0.187-0.652-0.226-1H5v-1H4.051c0.039-0.345,0.111-0.676,0.224-0.992
			C4.275,11.005,4.275,11.002,4.276,11H5v-1H4.762c0,0,0,0,0.001-0.001C5.472,8.945,6.655,8.202,8,8.051V9h1V8.051
			c1.357,0.152,2.512,0.886,3.214,1.949H12v1h0.724c0.113,0.319,0.187,0.653,0.226,1H12v1H12.949z M16.062,16.845
			c-1.243,0-2.256-0.425-3.042-1.22c1.319-1.902,1.313-4.423-0.059-6.328c0.827-0.834,1.926-1.326,3.101-1.326
			c2.447,0,4.438,1.991,4.438,4.437S18.51,16.845,16.062,16.845z"/>
	</g>
</g>
<g id="Invisible_Shape">
	<rect fill="none" width="24" height="24"/>
</g>
</svg>
