<?xml version="1.0" encoding="utf-8"?>
<!-- Generator: Adobe Illustrator 19.2.1, SVG Export Plug-In . SVG Version: 6.00 Build 0)  -->
<svg version="1.1" xmlns="http://www.w3.org/2000/svg" xmlns:xlink="http://www.w3.org/1999/xlink" x="0px" y="0px" width="24px"
	 height="24px" viewBox="0 0 24 24" enable-background="new 0 0 24 24" xml:space="preserve">
<g id="Filled_Icon">
	<g>
		<path d="M15.077,10.097C14.991,10.035,14.887,10,14.78,10H9.22c-0.107,0-0.211,0.035-0.297,0.097C6.503,11.882,4,15.327,4,18
			c0,4.093,2.542,6,8,6s8-1.907,8-6C20,15.327,17.497,11.882,15.077,10.097z M12,16.5c1.102,0,2,0.897,2,2
			c0,0.929-0.641,1.705-1.5,1.929V21c0,0.275-0.224,0.5-0.5,0.5s-0.5-0.225-0.5-0.5v-0.571c-0.86-0.224-1.5-1-1.5-1.929
			c0-0.276,0.224-0.5,0.5-0.5s0.5,0.224,0.5,0.5c0,0.551,0.448,1,1,1c0.551,0,1-0.449,1-1c0-0.552-0.449-1-1-1c-1.104,0-2-0.897-2-2
			c0-0.93,0.64-1.706,1.5-1.929V13c0-0.276,0.224-0.5,0.5-0.5s0.5,0.224,0.5,0.5v0.571c0.859,0.224,1.5,1,1.5,1.929
			c0,0.275-0.224,0.5-0.5,0.5S13,15.775,13,15.5c0-0.552-0.449-1-1-1c-0.552,0-1,0.448-1,1C11,16.051,11.448,16.5,12,16.5z"/>
		<path d="M9,6.5C9,6.775,9.224,7,9.5,7h5C14.776,7,15,6.775,15,6.5c0-1.824,1.896-4.694,1.916-4.723
			c0.274-0.415-0.16-0.932-0.613-0.737l-3.029,1.298l-0.81-2.024c-0.168-0.418-0.762-0.417-0.929,0l-0.81,2.024L7.696,1.04
			c-0.452-0.195-0.89,0.322-0.612,0.737C7.102,1.806,9,4.676,9,6.5z"/>
		<path d="M8.5,8C8.224,8,8,8.224,8,8.5C8,8.775,8.224,9,8.5,9h7C15.776,9,16,8.775,16,8.5C16,8.224,15.776,8,15.5,8H8.5z"/>
	</g>
</g>
<g id="Invisible_Shape">
	<rect fill="none" width="24" height="24"/>
</g>
</svg>
