<?xml version="1.0" encoding="utf-8"?>
<!-- Generator: Adobe Illustrator 19.2.1, SVG Export Plug-In . SVG Version: 6.00 Build 0)  -->
<svg version="1.1" xmlns="http://www.w3.org/2000/svg" xmlns:xlink="http://www.w3.org/1999/xlink" x="0px" y="0px" width="24px"
	 height="24px" viewBox="0 0 24 24" enable-background="new 0 0 24 24" xml:space="preserve">
<g id="Filled_Icon">
	<path d="M23.5,9C23.224,9,23,9.224,23,9.5c0,0.664-0.437,1.222-1.035,1.418c-0.408-5.101-6.096-8.888-12.182-7.699
		C8.61,1.532,6.33,0.983,4.5,2.039C4.165,2.233,4.169,2.714,4.499,2.905C5.2,3.31,5.711,3.992,5.908,4.768
		C3.935,6.059,2.593,7.933,2.156,10H0.5C0.224,10,0,10.224,0,10.5v4C0,14.776,0.224,15,0.5,15h2.39
		c0.879,1.657,2.337,2.974,4.11,3.845V22c0,0.276,0.224,0.5,0.5,0.5S8,22.276,8,22v-2.716c2.633,0.975,5.498,0.934,8,0.001V22
		c0,0.276,0.224,0.5,0.5,0.5S17,22.276,17,22v-3.15c2.839-1.4,4.789-3.95,4.973-6.898C23.126,11.73,24,10.716,24,9.5
		C24,9.224,23.776,9,23.5,9z M6,11c-0.552,0-1-0.449-1-1s0.448-1,1-1s1,0.449,1,1S6.552,11,6,11z M16.899,7.8
		c-0.164,0.22-0.478,0.266-0.699,0.1c-1.336-1.003-2.987-1.491-4.667-1.384c-0.266,0.019-0.514-0.189-0.532-0.466
		c-0.019-0.275,0.19-0.513,0.466-0.532C13.383,5.394,15.273,5.954,16.8,7.1C17.021,7.266,17.065,7.579,16.899,7.8z"/>
</g>
<g id="Invisible_Shape">
	<rect fill="none" width="24" height="24"/>
</g>
</svg>
