<?xml version="1.0" encoding="utf-8"?>
<!-- Generator: Adobe Illustrator 19.2.1, SVG Export Plug-In . SVG Version: 6.00 Build 0)  -->
<svg version="1.1" xmlns="http://www.w3.org/2000/svg" xmlns:xlink="http://www.w3.org/1999/xlink" x="0px" y="0px" width="24px"
	 height="24px" viewBox="0 0 24 24" enable-background="new 0 0 24 24" xml:space="preserve">
<g id="Filled_Icon">
	<g>
		<path d="M12,8.5c-6.616,0-12,5.384-12,12C0,20.776,0.224,21,0.5,21h23c0.276,0,0.5-0.224,0.5-0.5C24,13.884,18.616,8.5,12,8.5z"/>
		<path d="M2.547,11.827c5.002-5.779,13.93-5.752,18.906,0c0.178,0.207,0.495,0.234,0.706,0.051
			c0.209-0.181,0.231-0.496,0.051-0.705c-1.812-2.095-4.199-3.556-6.823-4.236C15.763,6.572,16,6.064,16,5.5c0-1.102-0.898-2-2-2
			s-2,0.898-2,2c0,0.369,0.107,0.711,0.282,1.008c-0.51-0.011,0.03-0.012-0.564,0C11.893,6.211,12,5.869,12,5.5c0-1.102-0.898-2-2-2
			s-2,0.898-2,2c0,0.564,0.237,1.072,0.614,1.437C5.989,7.617,3.602,9.078,1.79,11.173c-0.18,0.209-0.157,0.524,0.051,0.705
			C2.05,12.06,2.366,12.036,2.547,11.827z"/>
	</g>
</g>
<g id="Invisible_Shape">
	<rect fill="none" width="24" height="24"/>
</g>
</svg>
