<?xml version="1.0" encoding="utf-8"?>
<!-- Generator: Adobe Illustrator 19.2.1, SVG Export Plug-In . SVG Version: 6.00 Build 0)  -->
<svg version="1.1" xmlns="http://www.w3.org/2000/svg" xmlns:xlink="http://www.w3.org/1999/xlink" x="0px" y="0px" width="24px"
	 height="24px" viewBox="0 0 24 24" enable-background="new 0 0 24 24" xml:space="preserve">
<g id="Filled_Icon">
	<g>
		<path d="M19,10.021V7.999C19,7.448,18.553,7,18.001,7h-0.002H6C5.447,7,5,7.448,5,7.999v2.022C2.073,10.271,0,12.708,0,16
			c0,3.309,2.691,6,6,6h12c3.309,0,6-2.691,6-6C24,12.708,21.926,10.271,19,10.021z"/>
		<path d="M3.5,8C3.775,8,4,7.776,4,7.5V7c0-0.551,0.448-1,1-1h14c0.551,0,1,0.449,1,1v0.5C20,7.776,20.224,8,20.5,8
			C20.775,8,21,7.776,21,7.5V7c0-1.102-0.897-2-2-2h-3.278C15.894,4.705,16,4.367,16,4c0-1.102-0.898-2-2-2c-1.104,0-2,0.898-2,2
			c0,0.367,0.106,0.705,0.277,1h-0.556C11.894,4.705,12,4.367,12,4c0-1.102-0.898-2-2-2C8.896,2,8,2.898,8,4
			c0,0.367,0.106,0.705,0.277,1H5C3.897,5,3,5.898,3,7v0.5C3,7.776,3.224,8,3.5,8z"/>
	</g>
</g>
<g id="Invisible_Shape">
	<rect fill="none" width="24" height="24"/>
</g>
</svg>
