<?xml version="1.0" encoding="utf-8"?>
<!-- Generator: Adobe Illustrator 19.2.1, SVG Export Plug-In . SVG Version: 6.00 Build 0)  -->
<svg version="1.1" xmlns="http://www.w3.org/2000/svg" xmlns:xlink="http://www.w3.org/1999/xlink" x="0px" y="0px" width="24px"
	 height="24px" viewBox="0 0 24 24" enable-background="new 0 0 24 24" xml:space="preserve">
<g id="Filled_Icon">
	<g>
		<path d="M21.5,11H21V8.5c0-1.249-0.955-1.877-2-2.5H4.5C3.672,6,3,5.327,3,4.5S3.672,3,4.5,3h11.961c0.275,0,0.5,0.224,0.5,0.5
			S16.736,4,16.461,4H4.5C4.224,4,4,4.225,4,4.5C4,4.776,4.224,5,4.5,5H19V4c0-1.401-1.56-3-3.5-3h-12C1.57,1,0,2.57,0,4.5v15
			C0,21.43,1.57,23,3.5,23h14c1.93,0,3.5-1.57,3.5-3.5V17h0.5c1.379,0,2.5-1.121,2.5-2.5v-1C24,12.122,22.879,11,21.5,11z M16.5,7h1
			C17.777,7,18,7.224,18,7.5S17.777,8,17.5,8h-1C16.225,8,16,7.776,16,7.5S16.225,7,16.5,7z M13.5,7h1C14.777,7,15,7.224,15,7.5
			S14.777,8,14.5,8h-1C13.225,8,13,7.776,13,7.5S13.225,7,13.5,7z M5.5,21h-1C4.225,21,4,20.776,4,20.5S4.225,20,4.5,20h1
			C5.777,20,6,20.224,6,20.5S5.777,21,5.5,21z M5.5,8h-1C4.225,8,4,7.776,4,7.5S4.225,7,4.5,7h1C5.777,7,6,7.224,6,7.5
			S5.777,8,5.5,8z M8.5,21h-1C7.225,21,7,20.776,7,20.5S7.225,20,7.5,20h1C8.777,20,9,20.224,9,20.5S8.777,21,8.5,21z M8.5,8h-1
			C7.225,8,7,7.776,7,7.5S7.225,7,7.5,7h1C8.777,7,9,7.224,9,7.5S8.777,8,8.5,8z M11.5,21h-1c-0.275,0-0.5-0.224-0.5-0.5
			s0.225-0.5,0.5-0.5h1c0.277,0,0.5,0.224,0.5,0.5S11.777,21,11.5,21z M11.5,8h-1C10.225,8,10,7.776,10,7.5S10.225,7,10.5,7h1
			C11.777,7,12,7.224,12,7.5S11.777,8,11.5,8z M14.5,21h-1c-0.275,0-0.5-0.224-0.5-0.5s0.225-0.5,0.5-0.5h1
			c0.277,0,0.5,0.224,0.5,0.5S14.777,21,14.5,21z M17.5,21h-1c-0.275,0-0.5-0.224-0.5-0.5s0.225-0.5,0.5-0.5h1
			c0.277,0,0.5,0.224,0.5,0.5S17.777,21,17.5,21z M23,14.5c0,0.827-0.674,1.5-1.5,1.5h-5c-0.828,0-1.5-0.673-1.5-1.5v-1
			c0-0.827,0.672-1.5,1.5-1.5h5c0.826,0,1.5,0.673,1.5,1.5V14.5z"/>
		<circle cx="17" cy="14" r="1"/>
	</g>
</g>
<g id="Invisible_Shape">
	<rect fill="none" width="24" height="24"/>
</g>
</svg>
