<?xml version="1.0" encoding="utf-8"?>
<!-- Generator: Adobe Illustrator 19.2.1, SVG Export Plug-In . SVG Version: 6.00 Build 0)  -->
<svg version="1.1" xmlns="http://www.w3.org/2000/svg" xmlns:xlink="http://www.w3.org/1999/xlink" x="0px" y="0px" width="24px"
	 height="24px" viewBox="0 0 24 24" enable-background="new 0 0 24 24" xml:space="preserve">
<g id="Filled_Icon">
	<g>
		<path d="M20.5,0h-17C3.103,0,2.725,0.069,2.371,0.19C3.658,0.477,6.623,1.195,13.708,3H19.5C19.775,3,20,3.224,20,3.5
			S19.775,4,19.5,4h-3.016c1.348,0.89,2.315,2.402,2.486,4H19.5C19.775,8,20,8.224,20,8.5S19.775,9,19.5,9H19v9h1.5
			c1.93,0,3.5-1.57,3.5-3.5v-11C24,1.57,22.43,0,20.5,0z"/>
		<circle cx="13" cy="13.5" r="1.5"/>
		<path d="M14.715,4.289C14.176,4.152,1.869,1,1.312,1C0.239,1,0.054,2.357,0,3.47c0,0,0,13.006,0,13.03
			c0,1.873,1.482,3.745,3.305,4.174l11.16,2.627C16.438,23.762,18,22.385,18,20.5v-12C18,6.63,16.577,4.754,14.715,4.289z M13,16
			c-1.379,0-2.5-1.121-2.5-2.5c0-1.378,1.121-2.5,2.5-2.5c1.378,0,2.5,1.122,2.5,2.5C15.5,14.879,14.378,16,13,16z"/>
	</g>
</g>
<g id="Invisible_Shape">
	<rect fill="none" width="24" height="24"/>
</g>
</svg>
