<?xml version="1.0" encoding="utf-8"?>
<!-- Generator: Adobe Illustrator 19.2.1, SVG Export Plug-In . SVG Version: 6.00 Build 0)  -->
<svg version="1.1" xmlns="http://www.w3.org/2000/svg" xmlns:xlink="http://www.w3.org/1999/xlink" x="0px" y="0px" width="24px"
	 height="24px" viewBox="0 0 24 24" enable-background="new 0 0 24 24" xml:space="preserve">
<g id="Filled_Icon">
	<g>
		<path d="M22,11.026V9c0-1.937-1.385-3.556-3.216-3.921l-0.8-3.2c-0.067-0.273-0.347-0.434-0.615-0.362L4.434,5H2.5
			C1.121,5,0,6.122,0,7.5v13C0,21.879,1.121,23,2.5,23H18c2.205,0,4-1.794,4-4v-2.024c1.12-0.125,2-1.125,2-2.351v-1.25
			C24,12.15,23.12,11.15,22,11.026z M3.5,21h-1C2.224,21,2,20.776,2,20.5S2.224,20,2.5,20h1C3.775,20,4,20.224,4,20.5
			S3.775,21,3.5,21z M3.5,8h-1C2.224,8,2,7.776,2,7.5S2.224,7,2.5,7h1C3.775,7,4,7.224,4,7.5S3.775,8,3.5,8z M18.5,7
			C18.775,7,19,7.224,19,7.5S18.775,8,18.5,8h-1C17.224,8,17,7.776,17,7.5S17.224,7,17.5,7H18.5z M17.138,2.615L17.734,5H8.28
			L17.138,2.615z M6.5,21h-1C5.224,21,5,20.776,5,20.5S5.224,20,5.5,20h1C6.775,20,7,20.224,7,20.5S6.775,21,6.5,21z M6.5,8h-1
			C5.224,8,5,7.776,5,7.5S5.224,7,5.5,7h1C6.775,7,7,7.224,7,7.5S6.775,8,6.5,8z M9.5,21h-1C8.224,21,8,20.776,8,20.5
			S8.224,20,8.5,20h1c0.275,0,0.5,0.224,0.5,0.5S9.775,21,9.5,21z M9.5,8h-1C8.224,8,8,7.776,8,7.5S8.224,7,8.5,7h1
			C9.775,7,10,7.224,10,7.5S9.775,8,9.5,8z M12.5,21h-1c-0.276,0-0.5-0.224-0.5-0.5s0.224-0.5,0.5-0.5h1c0.275,0,0.5,0.224,0.5,0.5
			S12.775,21,12.5,21z M12.5,8h-1C11.224,8,11,7.776,11,7.5S11.224,7,11.5,7h1C12.775,7,13,7.224,13,7.5S12.775,8,12.5,8z M15.5,21
			h-1c-0.276,0-0.5-0.224-0.5-0.5s0.224-0.5,0.5-0.5h1c0.275,0,0.5,0.224,0.5,0.5S15.775,21,15.5,21z M15.5,8h-1
			C14.224,8,14,7.776,14,7.5S14.224,7,14.5,7h1C15.775,7,16,7.224,16,7.5S15.775,8,15.5,8z M18.5,21h-1c-0.276,0-0.5-0.224-0.5-0.5
			s0.224-0.5,0.5-0.5h1c0.275,0,0.5,0.224,0.5,0.5S18.775,21,18.5,21z M23,14.625C23,15.384,22.447,16,21.77,16H17.73
			c-0.679,0-1.23-0.616-1.23-1.375v-1.25c0-0.758,0.552-1.375,1.23-1.375h4.039c0.678,0,1.23,0.617,1.23,1.375V14.625z"/>
		<circle cx="18.5" cy="14" r="1"/>
	</g>
</g>
<g id="Invisible_Shape">
	<rect fill="none" width="24" height="24"/>
</g>
</svg>
