<?xml version="1.0" encoding="utf-8"?>
<!-- Generator: Adobe Illustrator 19.2.0, SVG Export Plug-In . SVG Version: 6.00 Build 0)  -->
<svg version="1.1" xmlns="http://www.w3.org/2000/svg" xmlns:xlink="http://www.w3.org/1999/xlink" x="0px" y="0px" width="24px"
	 height="24px" viewBox="0 0 24 24" enable-background="new 0 0 24 24" xml:space="preserve">
<g id="Filled_Icon">
	<g>
		<path d="M23,22H1c-0.553,0-1,0.448-1,1c0,0.553,0.447,1,1,1h22c0.552,0,1-0.447,1-1C24,22.448,23.552,22,23,22z"/>
		<path d="M5,3h18c0.552,0,1-0.447,1-1c0-0.552-0.448-1-1-1H5C4.447,1,4,1.448,4,2C4,2.553,4.447,3,5,3z"/>
		<path d="M23,4H8C7.447,4,7,4.448,7,5c0,0.553,0.447,1,1,1h15c0.552,0,1-0.447,1-1C24,4.448,23.552,4,23,4z"/>
		<path d="M23,7H5C4.447,7,4,7.448,4,8c0,0.553,0.447,1,1,1h18c0.552,0,1-0.447,1-1C24,7.448,23.552,7,23,7z"/>
		<path d="M23,10H1c-0.553,0-1,0.448-1,1c0,0.553,0.447,1,1,1h22c0.552,0,1-0.447,1-1C24,10.448,23.552,10,23,10z"/>
		<path d="M23,13H5c-0.553,0-1,0.448-1,1c0,0.553,0.447,1,1,1h18c0.552,0,1-0.447,1-1C24,13.448,23.552,13,23,13z"/>
		<path d="M23,16H8c-0.553,0-1,0.448-1,1c0,0.553,0.447,1,1,1h15c0.552,0,1-0.447,1-1C24,16.448,23.552,16,23,16z"/>
		<path d="M23,19H5c-0.553,0-1,0.448-1,1c0,0.553,0.447,1,1,1h18c0.552,0,1-0.447,1-1C24,19.448,23.552,19,23,19z"/>
	</g>
</g>
<g id="Invisible_Shape">
	<rect fill="none" width="24" height="24"/>
</g>
</svg>
