<?xml version="1.0" encoding="utf-8"?>
<!-- Generator: Adobe Illustrator 19.2.0, SVG Export Plug-In . SVG Version: 6.00 Build 0)  -->
<svg version="1.1" xmlns="http://www.w3.org/2000/svg" xmlns:xlink="http://www.w3.org/1999/xlink" x="0px" y="0px" width="24px"
	 height="24px" viewBox="0 0 24 24" enable-background="new 0 0 24 24" xml:space="preserve">
<g id="Filled_Icon">
	<g>
		<path d="M23,22H1c-0.553,0-1,0.448-1,1c0,0.553,0.447,1,1,1h22c0.552,0,1-0.447,1-1C24,22.448,23.552,22,23,22z"/>
		<path d="M1,3h19c0.552,0,1-0.447,1-1c0-0.552-0.448-1-1-1H1C0.447,1,0,1.448,0,2C0,2.553,0.447,3,1,3z"/>
		<path d="M1,6h15c0.552,0,1-0.447,1-1c0-0.552-0.448-1-1-1H1C0.447,4,0,4.448,0,5C0,5.553,0.447,6,1,6z"/>
		<path d="M1,9h17c0.552,0,1-0.447,1-1c0-0.552-0.448-1-1-1H1C0.447,7,0,7.448,0,8C0,8.553,0.447,9,1,9z"/>
		<path d="M1,12h22c0.552,0,1-0.447,1-1c0-0.552-0.448-1-1-1H1c-0.553,0-1,0.448-1,1C0,11.553,0.447,12,1,12z"/>
		<path d="M1,15h18c0.552,0,1-0.447,1-1c0-0.552-0.448-1-1-1H1c-0.553,0-1,0.448-1,1C0,14.553,0.447,15,1,15z"/>
		<path d="M1,18h15c0.552,0,1-0.447,1-1c0-0.552-0.448-1-1-1H1c-0.553,0-1,0.448-1,1C0,17.553,0.447,18,1,18z"/>
		<path d="M1,21h18c0.552,0,1-0.447,1-1c0-0.552-0.448-1-1-1H1c-0.553,0-1,0.448-1,1C0,20.553,0.447,21,1,21z"/>
	</g>
</g>
<g id="Invisible_Shape">
	<rect fill="none" width="24" height="24"/>
</g>
</svg>
