<?xml version="1.0" encoding="utf-8"?>
<!-- Generator: Adobe Illustrator 19.2.0, SVG Export Plug-In . SVG Version: 6.00 Build 0)  -->
<svg version="1.1" xmlns="http://www.w3.org/2000/svg" xmlns:xlink="http://www.w3.org/1999/xlink" x="0px" y="0px" width="24px"
	 height="24px" viewBox="0 0 24 24" enable-background="new 0 0 24 24" xml:space="preserve">
<g id="Filled_Icon">
	<g>
		<path d="M23,22H1c-0.553,0-1,0.448-1,1c0,0.553,0.447,1,1,1h22c0.552,0,1-0.447,1-1C24,22.448,23.552,22,23,22z"/>
		<path d="M3,3h18c0.552,0,1-0.447,1-1c0-0.552-0.448-1-1-1H3C2.447,1,2,1.448,2,2C2,2.553,2.447,3,3,3z"/>
		<path d="M17.5,6c0.552,0,1-0.447,1-1c0-0.552-0.448-1-1-1h-11c-0.553,0-1,0.448-1,1c0,0.553,0.447,1,1,1H17.5z"/>
		<path d="M3,8c0,0.553,0.447,1,1,1h16c0.552,0,1-0.447,1-1c0-0.552-0.448-1-1-1H4C3.447,7,3,7.448,3,8z"/>
		<path d="M1,12h22c0.552,0,1-0.447,1-1c0-0.552-0.448-1-1-1H1c-0.553,0-1,0.448-1,1C0,11.553,0.447,12,1,12z"/>
		<path d="M19,13H5c-0.553,0-1,0.448-1,1c0,0.553,0.447,1,1,1h14c0.552,0,1-0.447,1-1C20,13.448,19.552,13,19,13z"/>
		<path d="M16.5,18c0.552,0,1-0.447,1-1c0-0.552-0.448-1-1-1h-9c-0.553,0-1,0.448-1,1c0,0.553,0.447,1,1,1H16.5z"/>
		<path d="M4,20c0,0.553,0.447,1,1,1h14c0.552,0,1-0.447,1-1c0-0.552-0.448-1-1-1H5C4.447,19,4,19.448,4,20z"/>
	</g>
</g>
<g id="Invisible_Shape">
	<rect fill="none" width="24" height="24"/>
</g>
</svg>
