<?xml version="1.0" encoding="utf-8"?>
<!-- Generator: Adobe Illustrator 19.2.0, SVG Export Plug-In . SVG Version: 6.00 Build 0)  -->
<svg version="1.1" xmlns="http://www.w3.org/2000/svg" xmlns:xlink="http://www.w3.org/1999/xlink" x="0px" y="0px" width="24px"
	 height="24px" viewBox="0 0 24 24" enable-background="new 0 0 24 24" xml:space="preserve">
<g id="Filled_Icon">
	<g>
		<path d="M3.793,14.793l-3.5,3.5c-0.391,0.391-0.391,1.023,0,1.414l3.5,3.5c0.391,0.391,1.023,0.391,1.414,0
			c0.391-0.391,0.391-1.023,0-1.414L3.414,20H23c0.553,0,1-0.447,1-1s-0.447-1-1-1H3.414l1.793-1.793
			c0.391-0.391,0.391-1.023,0-1.414C4.816,14.402,4.184,14.402,3.793,14.793z"/>
		<path d="M21.5,0h-19C2.224,0,2,0.224,2,0.5v12C2,12.776,2.224,13,2.5,13h19c0.276,0,0.5-0.224,0.5-0.5v-12
			C22,0.224,21.776,0,21.5,0z M15.519,11c-0.005,0-0.012,0-0.019,0h-7C8.224,11,8,10.776,8,10.5c0-1.617,0.969-3.005,2.352-3.635
			C9.834,6.406,9.5,5.745,9.5,5c0-1.379,1.121-2.5,2.5-2.5s2.5,1.121,2.5,2.5c0,0.746-0.334,1.408-0.854,1.867
			c1.492,0.68,2.373,2.175,2.373,3.633C16.02,10.776,15.796,11,15.519,11z"/>
	</g>
</g>
<g id="Invisible_Shape">
	<rect fill="none" width="24" height="24"/>
</g>
</svg>
