<?xml version="1.0" encoding="utf-8"?>
<!-- Generator: Adobe Illustrator 19.2.0, SVG Export Plug-In . SVG Version: 6.00 Build 0)  -->
<svg version="1.1" xmlns="http://www.w3.org/2000/svg" xmlns:xlink="http://www.w3.org/1999/xlink" x="0px" y="0px" width="24px"
	 height="24px" viewBox="0 0 24 24" enable-background="new 0 0 24 24" xml:space="preserve">
<g id="Filled_Icon">
	<g>
		<path d="M22,0H2C0.897,0,0,0.897,0,2v20c0,1.103,0.897,2,2,2h20c1.103,0,2-0.897,2-2V2C24,0.897,23.103,0,22,0z M2,22V2h20
			l0.001,20H2z"/>
		<circle cx="12" cy="3.714" r="1"/>
		<circle cx="12" cy="6.857" r="1"/>
		<circle cx="12" cy="10" r="1"/>
		<circle cx="12" cy="14" r="1"/>
		<circle cx="12" cy="17.143" r="1"/>
		<circle cx="12" cy="20.286" r="1"/>
		<circle cx="3.714" cy="12" r="1"/>
		<circle cx="6.857" cy="12" r="1"/>
		<circle cx="10" cy="12" r="1"/>
		<circle cx="14" cy="12" r="1"/>
		<circle cx="17.143" cy="12" r="1"/>
		<circle cx="20.286" cy="12" r="1"/>
	</g>
</g>
<g id="Invisible_Shape">
	<rect fill="none" width="24" height="24"/>
</g>
</svg>
