<?xml version="1.0" encoding="utf-8"?>
<!-- Generator: Adobe Illustrator 19.2.0, SVG Export Plug-In . SVG Version: 6.00 Build 0)  -->
<svg version="1.1" xmlns="http://www.w3.org/2000/svg" xmlns:xlink="http://www.w3.org/1999/xlink" x="0px" y="0px" width="24px"
	 height="24px" viewBox="0 0 24 24" enable-background="new 0 0 24 24" xml:space="preserve">
<g id="Filled_Icon">
	<g>
		<path d="M20.5,11h-17c-0.553,0-1,0.447-1,1s0.447,1,1,1h17c0.553,0,1-0.447,1-1S21.053,11,20.5,11z"/>
		<circle cx="1" cy="1" r="1"/>
		<circle cx="1" cy="4.143" r="1"/>
		<circle cx="1" cy="7.286" r="1"/>
		<circle cx="1" cy="10.429" r="1"/>
		<circle cx="1" cy="13.571" r="1"/>
		<circle cx="1" cy="16.714" r="1"/>
		<circle cx="1" cy="19.857" r="1"/>
		<circle cx="23" cy="4.143" r="1"/>
		<circle cx="23" cy="7.286" r="1"/>
		<circle cx="23" cy="10.429" r="1"/>
		<circle cx="23" cy="13.571" r="1"/>
		<circle cx="23" cy="16.714" r="1"/>
		<circle cx="23" cy="19.857" r="1"/>
		<circle cx="12" cy="3.214" r="1"/>
		<circle cx="12" cy="6.357" r="1"/>
		<circle cx="12" cy="9.5" r="1"/>
		<circle cx="12" cy="14.5" r="1"/>
		<circle cx="12" cy="17.643" r="1"/>
		<circle cx="12" cy="20.786" r="1"/>
		<circle cx="1" cy="23" r="1"/>
		<circle cx="4.143" cy="1" r="1"/>
		<circle cx="7.286" cy="1" r="1"/>
		<circle cx="10.429" cy="1" r="1"/>
		<circle cx="13.571" cy="1" r="1"/>
		<circle cx="16.714" cy="1" r="1"/>
		<circle cx="19.857" cy="1" r="1"/>
		<circle cx="23" cy="1" r="1"/>
		<circle cx="4.143" cy="23" r="1"/>
		<circle cx="7.286" cy="23" r="1"/>
		<circle cx="10.429" cy="23" r="1"/>
		<circle cx="13.571" cy="23" r="1"/>
		<circle cx="16.714" cy="23" r="1"/>
		<circle cx="19.857" cy="23" r="1"/>
		<circle cx="23" cy="23" r="1"/>
	</g>
</g>
<g id="Invisible_Shape">
	<rect fill="none" width="24" height="24"/>
</g>
</svg>
