<?xml version="1.0" encoding="utf-8"?>
<!-- Generator: Adobe Illustrator 19.2.0, SVG Export Plug-In . SVG Version: 6.00 Build 0)  -->
<svg version="1.1" xmlns="http://www.w3.org/2000/svg" xmlns:xlink="http://www.w3.org/1999/xlink" x="0px" y="0px" width="24px"
	 height="24px" viewBox="0 0 24 24" enable-background="new 0 0 24 24" xml:space="preserve">
<g id="Filled_Icon">
	<g>
		<path d="M22,1v22c0,0.553,0.447,1,1,1s1-0.447,1-1V1c0-0.553-0.447-1-1-1S22,0.447,22,1z"/>
		<circle cx="1" cy="23" r="1"/>
		<circle cx="4.143" cy="23" r="1"/>
		<circle cx="7.286" cy="23" r="1"/>
		<circle cx="10.429" cy="23" r="1"/>
		<circle cx="13.571" cy="23" r="1"/>
		<circle cx="16.714" cy="23" r="1"/>
		<circle cx="19.857" cy="23" r="1"/>
		<circle cx="4.143" cy="1" r="1"/>
		<circle cx="7.286" cy="1" r="1"/>
		<circle cx="10.429" cy="1" r="1"/>
		<circle cx="13.571" cy="1" r="1"/>
		<circle cx="16.714" cy="1" r="1"/>
		<circle cx="19.857" cy="1" r="1"/>
		<circle cx="3.714" cy="12" r="1"/>
		<circle cx="6.857" cy="12" r="1"/>
		<circle cx="10" cy="12" r="1"/>
		<circle cx="14" cy="12" r="1"/>
		<circle cx="17.143" cy="12" r="1"/>
		<circle cx="20.286" cy="12" r="1"/>
		<circle cx="1" cy="19.857" r="1"/>
		<circle cx="1" cy="16.714" r="1"/>
		<circle cx="1" cy="13.571" r="1"/>
		<circle cx="1" cy="10.429" r="1"/>
		<circle cx="1" cy="7.286" r="1"/>
		<circle cx="1" cy="4.143" r="1"/>
		<circle cx="1" cy="1" r="1"/>
		<circle cx="12" cy="20.286" r="1"/>
		<circle cx="12" cy="17.143" r="1"/>
		<circle cx="12" cy="14" r="1"/>
		<circle cx="12" cy="10" r="1"/>
		<circle cx="12" cy="6.857" r="1"/>
		<circle cx="12" cy="3.714" r="1"/>
	</g>
</g>
<g id="Invisible_Shape">
	<rect fill="none" width="24" height="24"/>
</g>
</svg>
