<?xml version="1.0" encoding="utf-8"?>
<!-- Generator: Adobe Illustrator 19.2.0, SVG Export Plug-In . SVG Version: 6.00 Build 0)  -->
<svg version="1.1" xmlns="http://www.w3.org/2000/svg" xmlns:xlink="http://www.w3.org/1999/xlink" x="0px" y="0px" width="24px"
	 height="24px" viewBox="0 0 24 24" enable-background="new 0 0 24 24" xml:space="preserve">
<g id="Filled_Icon">
	<g>
		<path d="M21,11h-8V3c0-0.553-0.447-1-1-1s-1,0.447-1,1v8H3c-0.553,0-1,0.447-1,1s0.447,1,1,1h8v8c0,0.553,0.447,1,1,1s1-0.447,1-1
			v-8h8c0.553,0,1-0.447,1-1S21.553,11,21,11z"/>
		<circle cx="1" cy="1" r="1"/>
		<circle cx="1" cy="4.143" r="1"/>
		<circle cx="1" cy="7.286" r="1"/>
		<circle cx="1" cy="10.429" r="1"/>
		<circle cx="1" cy="13.571" r="1"/>
		<circle cx="1" cy="16.714" r="1"/>
		<circle cx="1" cy="19.857" r="1"/>
		<circle cx="23" cy="4.143" r="1"/>
		<circle cx="23" cy="7.286" r="1"/>
		<circle cx="23" cy="10.429" r="1"/>
		<circle cx="23" cy="13.571" r="1"/>
		<circle cx="23" cy="16.714" r="1"/>
		<circle cx="23" cy="19.857" r="1"/>
		<circle cx="1" cy="23" r="1"/>
		<circle cx="4.143" cy="1" r="1"/>
		<circle cx="7.286" cy="1" r="1"/>
		<circle cx="10.429" cy="1" r="1"/>
		<circle cx="13.571" cy="1" r="1"/>
		<circle cx="16.714" cy="1" r="1"/>
		<circle cx="19.857" cy="1" r="1"/>
		<circle cx="23" cy="1" r="1"/>
		<circle cx="4.143" cy="23" r="1"/>
		<circle cx="7.286" cy="23" r="1"/>
		<circle cx="10.429" cy="23" r="1"/>
		<circle cx="13.571" cy="23" r="1"/>
		<circle cx="16.714" cy="23" r="1"/>
		<circle cx="19.857" cy="23" r="1"/>
		<circle cx="23" cy="23" r="1"/>
	</g>
</g>
<g id="Invisible_Shape">
	<rect fill="none" width="24" height="24"/>
</g>
</svg>
