<?xml version="1.0" encoding="utf-8"?>
<!-- Generator: Adobe Illustrator 19.2.0, SVG Export Plug-In . SVG Version: 6.00 Build 0)  -->
<svg version="1.1" xmlns="http://www.w3.org/2000/svg" xmlns:xlink="http://www.w3.org/1999/xlink" x="0px" y="0px" width="24px"
	 height="24px" viewBox="0 0 24 24" enable-background="new 0 0 24 24" xml:space="preserve">
<g id="Filled_Icon">
	<g>
		<path d="M19,22H1c-0.553,0-1,0.447-1,1c0,0.552,0.447,1,1,1h18c0.552,0,1-0.448,1-1C20,22.447,19.552,22,19,22z"/>
		<path d="M1,3h18c0.552,0,1-0.448,1-1c0-0.553-0.448-1-1-1H1C0.447,1,0,1.447,0,2C0,2.552,0.447,3,1,3z"/>
		<path d="M1,6h13.5c0.552,0,1-0.448,1-1c0-0.553-0.448-1-1-1H1C0.447,4,0,4.447,0,5C0,5.552,0.447,6,1,6z"/>
		<path d="M1,9h13.5c0.552,0,1-0.448,1-1c0-0.553-0.448-1-1-1H1C0.447,7,0,7.447,0,8C0,8.552,0.447,9,1,9z"/>
		<path d="M1,12h13.5c0.552,0,1-0.448,1-1c0-0.553-0.448-1-1-1H1c-0.553,0-1,0.447-1,1C0,11.552,0.447,12,1,12z"/>
		<path d="M1,15h13.5c0.552,0,1-0.448,1-1c0-0.553-0.448-1-1-1H1c-0.553,0-1,0.447-1,1C0,14.552,0.447,15,1,15z"/>
		<path d="M1,18h13.5c0.552,0,1-0.448,1-1c0-0.553-0.448-1-1-1H1c-0.553,0-1,0.447-1,1C0,17.552,0.447,18,1,18z"/>
		<path d="M1,21h13.5c0.552,0,1-0.448,1-1c0-0.553-0.448-1-1-1H1c-0.553,0-1,0.447-1,1C0,20.552,0.447,21,1,21z"/>
		<path d="M23.838,12.131l-6-5.5C17.516,6.337,17,6.567,17,7v11c0,0.435,0.519,0.661,0.838,0.368l6-5.5
			C24.055,12.67,24.053,12.328,23.838,12.131z"/>
	</g>
</g>
<g id="Invisible_Shape">
	<rect fill="none" width="24" height="24"/>
</g>
</svg>
