<?xml version="1.0" encoding="utf-8"?>
<!-- Generator: Adobe Illustrator 19.2.0, SVG Export Plug-In . SVG Version: 6.00 Build 0)  -->
<svg version="1.1" xmlns="http://www.w3.org/2000/svg" xmlns:xlink="http://www.w3.org/1999/xlink" x="0px" y="0px" width="24px"
	 height="24px" viewBox="0 0 24 24" enable-background="new 0 0 24 24" xml:space="preserve">
<g id="Filled_Icon">
	<g>
		<path d="M23,11h-3.086l0.293-0.293c0.391-0.391,0.391-1.023,0-1.414c-0.391-0.391-1.023-0.391-1.414,0l-1.999,1.999
			c-0.391,0.387-0.39,1.03,0,1.416l1.999,1.999c0.391,0.391,1.023,0.391,1.414,0c0.391-0.391,0.391-1.023,0-1.414L19.914,13H23
			c0.553,0,1-0.447,1-1S23.553,11,23,11z"/>
		<path d="M15,0c-0.553,0-1,0.447-1,1v22c0,0.553,0.447,1,1,1s1-0.447,1-1V1C16,0.447,15.553,0,15,0z"/>
		<path d="M11.5,22H2c-0.553,0-1,0.447-1,1s0.447,1,1,1h9.5c0.553,0,1-0.447,1-1S12.053,22,11.5,22z"/>
		<path d="M11.5,1H1C0.447,1,0,1.447,0,2s0.447,1,1,1h10.5c0.553,0,1-0.447,1-1S12.053,1,11.5,1z"/>
		<path d="M11.5,4H4C3.447,4,3,4.447,3,5s0.447,1,1,1h7.5c0.553,0,1-0.447,1-1S12.053,4,11.5,4z"/>
		<path d="M11.5,7H1C0.447,7,0,7.447,0,8s0.447,1,1,1h10.5c0.553,0,1-0.447,1-1S12.053,7,11.5,7z"/>
		<path d="M11.5,10H2c-0.553,0-1,0.447-1,1s0.447,1,1,1h9.5c0.553,0,1-0.447,1-1S12.053,10,11.5,10z"/>
		<path d="M11.5,13H1c-0.553,0-1,0.447-1,1s0.447,1,1,1h10.5c0.553,0,1-0.447,1-1S12.053,13,11.5,13z"/>
		<path d="M11.5,16H4c-0.553,0-1,0.447-1,1s0.447,1,1,1h7.5c0.553,0,1-0.447,1-1S12.053,16,11.5,16z"/>
		<path d="M11.5,19H1c-0.553,0-1,0.447-1,1s0.447,1,1,1h10.5c0.553,0,1-0.447,1-1S12.053,19,11.5,19z"/>
	</g>
</g>
<g id="Invisible_Shape">
	<rect fill="none" width="24" height="24"/>
</g>
</svg>
