<?xml version="1.0" encoding="utf-8"?>
<!-- Generator: Adobe Illustrator 19.2.0, SVG Export Plug-In . SVG Version: 6.00 Build 0)  -->
<svg version="1.1" xmlns="http://www.w3.org/2000/svg" xmlns:xlink="http://www.w3.org/1999/xlink" x="0px" y="0px" width="24px"
	 height="24px" viewBox="0 0 24 24" enable-background="new 0 0 24 24" xml:space="preserve">
<g id="Filled_Icon">
	<g>
		<path d="M9,3h14c0.552,0,1-0.448,1-1c0-0.553-0.448-1-1-1H9C8.447,1,8,1.447,8,2C8,2.552,8.447,3,9,3z"/>
		<path d="M23,22H9c-0.553,0-1,0.447-1,1c0,0.552,0.447,1,1,1h14c0.552,0,1-0.448,1-1C24,22.447,23.552,22,23,22z"/>
		<path d="M23,19H9c-0.553,0-1,0.447-1,1c0,0.552,0.447,1,1,1h14c0.552,0,1-0.448,1-1C24,19.447,23.552,19,23,19z"/>
		<path d="M23,16h-7.5c-0.553,0-1,0.447-1,1c0,0.552,0.447,1,1,1H23c0.552,0,1-0.448,1-1C24,16.447,23.552,16,23,16z"/>
		<path d="M23,13h-7.5c-0.553,0-1,0.447-1,1c0,0.552,0.447,1,1,1H23c0.552,0,1-0.448,1-1C24,13.447,23.552,13,23,13z"/>
		<path d="M23,10h-7.5c-0.553,0-1,0.447-1,1c0,0.552,0.447,1,1,1H23c0.552,0,1-0.448,1-1C24,10.447,23.552,10,23,10z"/>
		<path d="M23,7h-7.5c-0.553,0-1,0.447-1,1c0,0.552,0.447,1,1,1H23c0.552,0,1-0.448,1-1C24,7.447,23.552,7,23,7z"/>
		<path d="M23,4H9C8.447,4,8,4.447,8,5c0,0.552,0.447,1,1,1h14c0.552,0,1-0.448,1-1C24,4.447,23.552,4,23,4z"/>
		<path d="M13,15.5v-6C13,9.224,12.775,9,12.5,9H7V7c0-0.431-0.515-0.664-0.838-0.369l-6,5.5c-0.215,0.197-0.217,0.539,0,0.737
			l6,5.5C6.477,18.66,7,18.437,7,18v-2h5.5C12.775,16,13,15.776,13,15.5z"/>
	</g>
</g>
<g id="Invisible_Shape">
	<rect fill="none" width="24" height="24"/>
</g>
</svg>
