<?xml version="1.0" encoding="utf-8"?>
<!-- Generator: Adobe Illustrator 19.2.0, SVG Export Plug-In . SVG Version: 6.00 Build 0)  -->
<svg version="1.1" xmlns="http://www.w3.org/2000/svg" xmlns:xlink="http://www.w3.org/1999/xlink" x="0px" y="0px" width="24px"
	 height="24px" viewBox="0 0 24 24" enable-background="new 0 0 24 24" xml:space="preserve">
<g id="Filled_Icon">
	<g>
		<path d="M15,3H1C0.447,3,0,2.552,0,2c0-0.553,0.447-1,1-1h14c0.553,0,1,0.447,1,1C16,2.552,15.553,3,15,3z"/>
		<path d="M1,22h14c0.553,0,1,0.447,1,1c0,0.552-0.447,1-1,1H1c-0.553,0-1-0.448-1-1C0,22.447,0.447,22,1,22z"/>
		<path d="M1,19h14c0.553,0,1,0.447,1,1c0,0.552-0.447,1-1,1H1c-0.553,0-1-0.448-1-1C0,19.447,0.447,19,1,19z"/>
		<path d="M1,16h7.5c0.553,0,1,0.447,1,1c0,0.552-0.447,1-1,1H1c-0.553,0-1-0.448-1-1C0,16.447,0.447,16,1,16z"/>
		<path d="M1,13h7.5c0.553,0,1,0.447,1,1c0,0.552-0.447,1-1,1H1c-0.553,0-1-0.448-1-1C0,13.447,0.447,13,1,13z"/>
		<path d="M1,10h7.5c0.553,0,1,0.447,1,1c0,0.552-0.447,1-1,1H1c-0.553,0-1-0.448-1-1C0,10.447,0.447,10,1,10z"/>
		<path d="M1,7h7.5c0.553,0,1,0.447,1,1c0,0.552-0.447,1-1,1H1C0.447,9,0,8.552,0,8C0,7.447,0.447,7,1,7z"/>
		<path d="M1,4h14c0.553,0,1,0.447,1,1c0,0.552-0.447,1-1,1H1C0.447,6,0,5.552,0,5C0,4.447,0.447,4,1,4z"/>
		<path d="M11,15.5v-6C11,9.224,11.224,9,11.5,9H17V7c0-0.428,0.512-0.665,0.838-0.369l6,5.5c0.215,0.197,0.217,0.539,0,0.737
			l-6,5.5C17.516,18.664,17,18.432,17,18v-2h-5.5C11.224,16,11,15.776,11,15.5z"/>
	</g>
</g>
<g id="Invisible_Shape">
	<rect fill="none" width="24" height="24"/>
</g>
</svg>
