<?xml version="1.0" encoding="utf-8"?>
<!-- Generator: Adobe Illustrator 19.2.0, SVG Export Plug-In . SVG Version: 6.00 Build 0)  -->
<svg version="1.1" xmlns="http://www.w3.org/2000/svg" xmlns:xlink="http://www.w3.org/1999/xlink" x="0px" y="0px" width="24px"
	 height="24px" viewBox="0 0 24 24" enable-background="new 0 0 24 24" xml:space="preserve">
<g id="Filled_Icon">
	<g>
		<path d="M6.293,4.707c0.391,0.391,1.023,0.391,1.414,0c0.391-0.391,0.391-1.023,0-1.414l-3-2.999c-0.387-0.387-1.024-0.39-1.415,0
			L0.293,3.293c-0.391,0.391-0.391,1.023,0,1.414c0.391,0.391,1.023,0.391,1.414,0L3,3.414v17.172l-1.293-1.293
			c-0.391-0.391-1.023-0.391-1.414,0c-0.391,0.391-0.391,1.023,0,1.414l2.999,3c0.391,0.391,1.028,0.388,1.415,0l3-3
			c0.391-0.391,0.391-1.023,0-1.414c-0.391-0.391-1.023-0.391-1.414,0L5,20.586V3.414L6.293,4.707z"/>
		<path d="M12.5,2H23c0.552,0,1-0.447,1-1c0-0.552-0.448-1-1-1H12.5c-0.553,0-1,0.448-1,1C11.5,1.553,11.947,2,12.5,2z"/>
		<path d="M23,3H10.5c-0.553,0-1,0.448-1,1c0,0.553,0.447,1,1,1H23c0.552,0,1-0.447,1-1C24,3.448,23.552,3,23,3z"/>
		<path d="M23,6H10.5c-0.553,0-1,0.448-1,1c0,0.553,0.447,1,1,1H23c0.552,0,1-0.447,1-1C24,6.448,23.552,6,23,6z"/>
		<path d="M23,9H10.5c-0.553,0-1,0.448-1,1c0,0.553,0.447,1,1,1H23c0.552,0,1-0.447,1-1C24,9.448,23.552,9,23,9z"/>
		<path d="M23,15H12.5c-0.553,0-1,0.448-1,1c0,0.553,0.447,1,1,1H23c0.552,0,1-0.447,1-1C24,15.448,23.552,15,23,15z"/>
		<path d="M23,18H10.5c-0.553,0-1,0.448-1,1c0,0.553,0.447,1,1,1H23c0.552,0,1-0.447,1-1C24,18.448,23.552,18,23,18z"/>
		<path d="M23,21H10.5c-0.553,0-1,0.448-1,1c0,0.553,0.447,1,1,1H23c0.552,0,1-0.447,1-1C24,21.448,23.552,21,23,21z"/>
	</g>
</g>
<g id="Invisible_Shape">
	<rect fill="none" width="24" height="24"/>
</g>
</svg>
