<?xml version="1.0" encoding="utf-8"?>
<!-- Generator: Adobe Illustrator 19.2.1, SVG Export Plug-In . SVG Version: 6.00 Build 0)  -->
<svg version="1.1" xmlns="http://www.w3.org/2000/svg" xmlns:xlink="http://www.w3.org/1999/xlink" x="0px" y="0px" width="24px"
	 height="24px" viewBox="0 0 24 24" enable-background="new 0 0 24 24" xml:space="preserve">
<g id="Filled_Icons_1_">
	<g id="Filled_Icons">
		<path d="M11.5,0C5.148,0,0,5.148,0,11.5S5.148,23,11.5,23S23,17.852,23,11.5S17.852,0,11.5,0z M17.5,12H12v5.5
			c0,0.276-0.224,0.5-0.5,0.5S11,17.776,11,17.5V12H5.5C5.224,12,5,11.776,5,11.5S5.224,11,5.5,11H11V5.5C11,5.224,11.224,5,11.5,5
			S12,5.224,12,5.5V11h5.5c0.276,0,0.5,0.224,0.5,0.5S17.776,12,17.5,12z"/>
	</g>
	<g id="New_icons">
	</g>
</g>
<g id="Invisible_Shape">
	<rect fill="none" width="24" height="24"/>
</g>
</svg>
