<?xml version="1.0" encoding="utf-8"?>
<!-- Generator: Adobe Illustrator 19.2.1, SVG Export Plug-In . SVG Version: 6.00 Build 0)  -->
<svg version="1.1" xmlns="http://www.w3.org/2000/svg" xmlns:xlink="http://www.w3.org/1999/xlink" x="0px" y="0px" width="24px"
	 height="24px" viewBox="0 0 24 24" enable-background="new 0 0 24 24" xml:space="preserve">
<g id="Filled_Icons_1_">
	<g id="Filled_Icons">
		<g>
			<path d="M14.5,2C9.262,2,5,6.262,5,11.5S9.262,21,14.5,21s9.5-4.262,9.5-9.5S19.738,2,14.5,2z M19.409,12H15v4.409
				c0,0.276-0.224,0.5-0.5,0.5s-0.5-0.224-0.5-0.5V12H9.591c-0.276,0-0.5-0.224-0.5-0.5s0.224-0.5,0.5-0.5H14V6.591
				c0-0.276,0.224-0.5,0.5-0.5s0.5,0.224,0.5,0.5V11h4.409c0.276,0,0.5,0.224,0.5,0.5S19.685,12,19.409,12z"/>
			<path d="M6.04,18.445C3.548,17.022,2,14.357,2,11.492S3.548,5.97,6.04,4.547c0.479-0.273,0.647-0.885,0.372-1.364
				C6.139,2.703,5.527,2.533,5.048,2.81C1.935,4.589,0,7.918,0,11.5s1.935,6.903,5.048,8.682c0.479,0.277,1.091,0.108,1.364-0.372
				C6.687,19.33,6.519,18.719,6.04,18.445z"/>
		</g>
	</g>
	<g id="New_icons">
	</g>
</g>
<g id="Invisible_Shape">
	<rect fill="none" width="24" height="24"/>
</g>
</svg>
