<?xml version="1.0" encoding="utf-8"?>
<!-- Generator: Adobe Illustrator 19.2.1, SVG Export Plug-In . SVG Version: 6.00 Build 0)  -->
<svg version="1.1" xmlns="http://www.w3.org/2000/svg" xmlns:xlink="http://www.w3.org/1999/xlink" x="0px" y="0px" width="24px"
	 height="24px" viewBox="0 0 24 24" enable-background="new 0 0 24 24" xml:space="preserve">
<g id="Filled_Icons_1_">
	<g id="Filled_Icons">
		<path d="M22.568,11.325l-6.22-6.16c-0.09-0.09-0.22-0.141-0.38-0.141H0.47C0.22,5.024,0,5.245,0,5.524v12
			c0,0.271,0.22,0.5,0.5,0.476h15.499c0.13,0.024,0.25-0.025,0.34-0.115l6.22-5.84C22.771,11.851,22.77,11.524,22.568,11.325z
			 M11.469,12.015H8v3.5c-0.031,0.28-0.251,0.5-0.531,0.5c-0.28,0-0.5-0.22-0.5-0.5v-3.5h-3.5c-0.28,0-0.5-0.22-0.5-0.5
			c0-0.28,0.22-0.5,0.5-0.515h3.5V7.515c0-0.28,0.22-0.5,0.5-0.5c0.28,0,0.5,0.22,0.531,0.5V11h3.469
			c0.28,0.015,0.5,0.234,0.5,0.515C11.969,11.795,11.749,12.015,11.469,12.015z"/>
	</g>
	<g id="New_icons">
	</g>
</g>
<g id="Invisible_Shape">
	<rect fill="none" width="24" height="24"/>
</g>
</svg>
