<?xml version="1.0" encoding="utf-8"?>
<!-- Generator: Adobe Illustrator 19.2.1, SVG Export Plug-In . SVG Version: 6.00 Build 0)  -->
<svg version="1.1" xmlns="http://www.w3.org/2000/svg" xmlns:xlink="http://www.w3.org/1999/xlink" x="0px" y="0px" width="24px"
	 height="24px" viewBox="0 0 24 24" enable-background="new 0 0 24 24" xml:space="preserve">
<g id="Filled_Icons_1_">
	<g id="Filled_Icons">
		<path d="M11.5,0C5.159,0,0,5.159,0,11.5S5.159,23,11.5,23S23,17.841,23,11.5S17.841,0,11.5,0z M19,13.5c0,0.276-0.224,0.5-0.5,0.5
			H14v4.5c0,0.276-0.224,0.5-0.5,0.5h-4C9.224,19,9,18.776,9,18.5V14H4.5C4.224,14,4,13.776,4,13.5v-4C4,9.224,4.224,9,4.5,9H9V4.5
			C9,4.224,9.224,4,9.5,4h4C13.776,4,14,4.224,14,4.5V9h4.5C18.776,9,19,9.224,19,9.5V13.5z"/>
	</g>
	<g id="New_icons">
	</g>
</g>
<g id="Invisible_Shape">
	<rect fill="none" width="24" height="24"/>
</g>
</svg>
