<?xml version="1.0" encoding="utf-8"?>
<!-- Generator: Adobe Illustrator 19.2.1, SVG Export Plug-In . SVG Version: 6.00 Build 0)  -->
<svg version="1.1" xmlns="http://www.w3.org/2000/svg" xmlns:xlink="http://www.w3.org/1999/xlink" x="0px" y="0px" width="24px"
	 height="24px" viewBox="0 0 24 24" enable-background="new 0 0 24 24" xml:space="preserve">
<g id="Filled_Icons_1_">
	<g id="Filled_Icons">
		<path d="M11.5,0C5.159,0,0,5.159,0,11.5S5.159,23,11.5,23S23,17.841,23,11.5S17.841,0,11.5,0z M18.217,14.682
			c0.195,0.195,0.195,0.512,0,0.707l-2.828,2.829c-0.188,0.188-0.52,0.188-0.707,0L11.5,15.035l-3.182,3.183
			c-0.188,0.188-0.52,0.188-0.707,0l-2.828-2.829c-0.195-0.195-0.195-0.512,0-0.707L7.965,11.5L4.783,8.318
			c-0.195-0.195-0.195-0.512,0-0.707l2.828-2.829c0.188-0.188,0.52-0.188,0.707,0L11.5,7.965l3.182-3.183
			c0.188-0.188,0.52-0.188,0.707,0l2.828,2.829c0.195,0.195,0.195,0.512,0,0.707L15.035,11.5L18.217,14.682z"/>
	</g>
	<g id="New_icons">
	</g>
</g>
<g id="Invisible_Shape">
	<rect fill="none" width="24" height="24"/>
</g>
</svg>
