<?xml version="1.0" encoding="utf-8"?>
<!-- Generator: Adobe Illustrator 19.2.1, SVG Export Plug-In . SVG Version: 6.00 Build 0)  -->
<svg version="1.1" xmlns="http://www.w3.org/2000/svg" xmlns:xlink="http://www.w3.org/1999/xlink" x="0px" y="0px" width="24px"
	 height="24px" viewBox="0 0 24 24" enable-background="new 0 0 24 24" xml:space="preserve">
<g id="Filled_Icons_1_">
	<g id="Filled_Icons">
		<path d="M22.521,0.021L0.5,0l0,0C0.224,0,0,0.224,0,0.5v22C0,22.776,0.224,23,0.5,23h22c0.275,0,0.499-0.224,0.5-0.5V0.521
			C23,0.193,22.777,0.021,22.521,0.021z M17.5,12.012L5.499,12c-0.276-0.001-0.5-0.225-0.499-0.501C5,11.224,5.224,11,5.5,11v-0.012
			L17.5,11c0.276,0.012,0.5,0.235,0.5,0.512C17.999,11.788,17.775,12.012,17.5,12.012z"/>
	</g>
	<g id="New_icons">
	</g>
</g>
<g id="Invisible_Shape">
	<rect fill="none" width="24" height="24"/>
</g>
</svg>
