<?xml version="1.0" encoding="utf-8"?>
<!-- Generator: Adobe Illustrator 19.2.1, SVG Export Plug-In . SVG Version: 6.00 Build 0)  -->
<svg version="1.1" xmlns="http://www.w3.org/2000/svg" xmlns:xlink="http://www.w3.org/1999/xlink" x="0px" y="0px" width="24px"
	 height="24px" viewBox="0 0 24 24" enable-background="new 0 0 24 24" xml:space="preserve">
<g id="Filled_Icons_1_">
	<g id="Filled_Icons">
		<path d="M22.539,11.325l-6.221-6.16c-0.09-0.09-0.22-0.141-0.38-0.141H0.47C0.22,5.024,0,5.245,0,5.524V17.5
			C0,17.771,0.22,18,0.5,18h15.469c0.13,0,0.25-0.05,0.34-0.14l6.221-5.815C22.739,11.854,22.741,11.527,22.539,11.325z M11.439,12
			h-8c-0.28,0.015-0.5-0.205-0.5-0.485c0-0.28,0.22-0.5,0.5-0.515h8c0.28,0.015,0.5,0.234,0.5,0.515
			C11.939,11.795,11.719,12.015,11.439,12z"/>
	</g>
	<g id="New_icons">
	</g>
</g>
<g id="Invisible_Shape">
	<rect fill="none" width="24" height="24"/>
</g>
</svg>
