<?xml version="1.0" encoding="utf-8"?>
<!-- Generator: Adobe Illustrator 19.2.1, SVG Export Plug-In . SVG Version: 6.00 Build 0)  -->
<svg version="1.1" xmlns="http://www.w3.org/2000/svg" xmlns:xlink="http://www.w3.org/1999/xlink" x="0px" y="0px" width="24px"
	 height="24px" viewBox="0 0 24 24" enable-background="new 0 0 24 24" xml:space="preserve">
<g id="Filled_Icon">
	<g>
		<path d="M19.706,12.293l-5.999-6c-0.391-0.391-1.023-0.391-1.414,0c-0.391,0.391-0.391,1.023,0,1.414L16.586,12H1
			c-0.553,0-1,0.448-1,1c0,0.553,0.447,1,1,1h15.586l-4.293,4.293c-0.391,0.391-0.391,1.023,0,1.414
			c0.391,0.391,1.023,0.391,1.414,0l5.999-5.999C20.097,13.316,20.093,12.68,19.706,12.293z"/>
		<path d="M23,6c-0.553,0-1,0.448-1,1v12c0,0.553,0.447,1,1,1c0.552,0,1-0.447,1-1V7C24,6.448,23.552,6,23,6z"/>
	</g>
</g>
<g id="Invisible_Shape">
	<rect fill="none" width="24" height="24"/>
</g>
</svg>
