<?xml version="1.0" encoding="utf-8"?>
<!-- Generator: Adobe Illustrator 19.2.1, SVG Export Plug-In . SVG Version: 6.00 Build 0)  -->
<svg version="1.1" xmlns="http://www.w3.org/2000/svg" xmlns:xlink="http://www.w3.org/1999/xlink" x="0px" y="0px" width="24px"
	 height="24px" viewBox="0 0 24 24" enable-background="new 0 0 24 24" xml:space="preserve">
<g id="Filled_Icon">
	<path d="M16.707,17.293c-0.391-0.391-1.023-0.391-1.414,0L12,20.586V1c0-0.552-0.448-1-1-1c-0.553,0-1,0.448-1,1v19.586
		l-3.293-3.293c-0.391-0.391-1.023-0.391-1.414,0c-0.391,0.391-0.391,1.023,0,1.414l4.999,5c0.4,0.4,1.045,0.378,1.415,0l5-5
		C17.098,18.316,17.098,17.684,16.707,17.293z"/>
</g>
<g id="Invisible_Shape">
	<rect fill="none" width="24" height="24"/>
</g>
</svg>
