<?xml version="1.0" encoding="utf-8"?>
<!-- Generator: Adobe Illustrator 19.2.1, SVG Export Plug-In . SVG Version: 6.00 Build 0)  -->
<svg version="1.1" xmlns="http://www.w3.org/2000/svg" xmlns:xlink="http://www.w3.org/1999/xlink" x="0px" y="0px" width="24px"
	 height="24px" viewBox="0 0 24 24" enable-background="new 0 0 24 24" xml:space="preserve">
<g id="Filled_Icon">
	<g>
		<path d="M23,12H7.414l4.293-4.293c0.391-0.391,0.391-1.023,0-1.414c-0.391-0.391-1.023-0.391-1.414,0l-6,6
			c-0.387,0.386-0.391,1.024,0,1.415l6,5.999c0.391,0.391,1.023,0.391,1.414,0c0.391-0.391,0.391-1.023,0-1.414L7.414,14H23
			c0.552,0,1-0.447,1-1C24,12.448,23.552,12,23,12z"/>
		<path d="M1,6C0.447,6,0,6.448,0,7v12c0,0.553,0.447,1,1,1c0.552,0,1-0.447,1-1V7C2,6.448,1.552,6,1,6z"/>
	</g>
</g>
<g id="Invisible_Shape">
	<rect fill="none" width="24" height="24"/>
</g>
</svg>
