<?xml version="1.0" encoding="utf-8"?>
<!-- Generator: Adobe Illustrator 19.2.1, SVG Export Plug-In . SVG Version: 6.00 Build 0)  -->
<svg version="1.1" xmlns="http://www.w3.org/2000/svg" xmlns:xlink="http://www.w3.org/1999/xlink" x="0px" y="0px" width="24px"
	 height="24px" viewBox="0 0 24 24" enable-background="new 0 0 24 24" xml:space="preserve">
<g id="Filled_Icon">
	<path d="M16.499,4H12c-0.553,0-1,0.448-1,1c0,0.553,0.447,1,1,1h4.499C19.687,6,22,8.104,22,11c0,2.898-2.313,5-5.501,5H3.414
		l3.293-3.293c0.391-0.391,0.391-1.023,0-1.414c-0.391-0.391-1.023-0.391-1.414,0l-5,5c-0.387,0.386-0.391,1.024,0,1.415l5,4.999
		c0.391,0.391,1.023,0.391,1.414,0c0.391-0.391,0.391-1.023,0-1.414L3.414,18h13.085C20.775,18,24,14.991,24,11
		C24,7.01,20.775,4,16.499,4z"/>
</g>
<g id="Invisible_Shape">
	<rect fill="none" width="24" height="24"/>
</g>
</svg>
