<?xml version="1.0" encoding="utf-8"?>
<!-- Generator: Adobe Illustrator 19.2.1, SVG Export Plug-In . SVG Version: 6.00 Build 0)  -->
<svg version="1.1" xmlns="http://www.w3.org/2000/svg" xmlns:xlink="http://www.w3.org/1999/xlink" x="0px" y="0px" width="24px"
	 height="24px" viewBox="0 0 24 24" enable-background="new 0 0 24 24" xml:space="preserve">
<g id="Filled_Icon">
	<path d="M16.707,5.29l-5-4.999c-0.361-0.37-1.01-0.405-1.415,0L5.293,5.29c-0.391,0.391-0.391,1.023,0,1.414
		c0.391,0.391,1.023,0.391,1.414,0L10,3.411v19.586c0,0.553,0.447,1,1,1c0.552,0,1-0.447,1-1V3.411l3.293,3.293
		c0.391,0.391,1.023,0.391,1.414,0C17.098,6.313,17.098,5.681,16.707,5.29z"/>
</g>
<g id="Invisible_Shape">
	<rect fill="none" width="24" height="24"/>
</g>
</svg>
