<?xml version="1.0" encoding="utf-8"?>
<!-- Generator: Adobe Illustrator 19.2.1, SVG Export Plug-In . SVG Version: 6.00 Build 0)  -->
<svg version="1.1" xmlns="http://www.w3.org/2000/svg" xmlns:xlink="http://www.w3.org/1999/xlink" x="0px" y="0px" width="24px"
	 height="24px" viewBox="0 0 24 24" enable-background="new 0 0 24 24" xml:space="preserve">
<g id="Filled_Icon">
	<path d="M23.5,9h-6.304l3.151-5.459c0.137-0.234,0.059-0.542-0.183-0.683l-4.33-2.5c-0.239-0.139-0.545-0.057-0.684,0.183L12,6
		L8.848,0.541C8.709,0.302,8.402,0.22,8.165,0.358l-4.33,2.5C3.594,2.997,3.514,3.305,3.651,3.541L6.804,9H0.5
		C0.224,9,0,9.224,0,9.5v5C0,14.776,0.224,15,0.5,15h6.304l-3.152,5.459c-0.137,0.237-0.058,0.545,0.184,0.684l4.33,2.5
		c0.237,0.137,0.544,0.056,0.683-0.184L12,18l3.151,5.459c0.138,0.24,0.442,0.32,0.684,0.184l4.33-2.5
		c0.239-0.139,0.319-0.445,0.183-0.684L17.196,15H23.5c0.275,0,0.5-0.224,0.5-0.5v-5C24,9.224,23.775,9,23.5,9z"/>
</g>
<g id="Invisible_Shape">
	<rect fill="none" width="24" height="24"/>
</g>
</svg>
