<?xml version="1.0" encoding="utf-8"?>
<!-- Generator: Adobe Illustrator 19.2.1, SVG Export Plug-In . SVG Version: 6.00 Build 0)  -->
<svg version="1.1" xmlns="http://www.w3.org/2000/svg" xmlns:xlink="http://www.w3.org/1999/xlink" x="0px" y="0px" width="24px"
	 height="24px" viewBox="0 0 24 24" enable-background="new 0 0 24 24" xml:space="preserve">
<g id="Filled_Icon">
	<path d="M22.5,12.001h-9.051l4.175-7.514c0.269-0.483,0.094-1.092-0.389-1.36c-0.483-0.268-1.092-0.094-1.359,0.389l-4.126,7.427
		L7.624,3.515c-0.268-0.482-0.877-0.657-1.36-0.389c-0.483,0.269-0.656,0.877-0.388,1.36l4.175,7.515H1c-0.553,0-1,0.448-1,1
		c0,0.553,0.447,1,1,0.999h9.051l-4.175,7.517c-0.269,0.482-0.095,1.092,0.388,1.359c0.478,0.267,1.091,0.097,1.36-0.388
		l4.126-7.428l4.126,7.427c0.271,0.488,0.887,0.652,1.359,0.388c0.482-0.268,0.657-0.877,0.389-1.359L13.449,14H22.5
		c0.552,0.001,1-0.446,1-0.999C23.5,12.449,23.052,12.001,22.5,12.001z"/>
</g>
<g id="Invisible_Shape">
	<rect fill="none" width="24" height="24"/>
</g>
</svg>
