<?xml version="1.0" encoding="utf-8"?>
<!-- Generator: Adobe Illustrator 19.2.1, SVG Export Plug-In . SVG Version: 6.00 Build 0)  -->
<svg version="1.1" xmlns="http://www.w3.org/2000/svg" xmlns:xlink="http://www.w3.org/1999/xlink" x="0px" y="0px" width="24px"
	 height="24px" viewBox="0 0 24 24" enable-background="new 0 0 24 24" xml:space="preserve">
<g id="Filled_Icon">
	<path d="M19.5,0h-15C2.019,0,0,2.019,0,4.5v15C0,21.981,2.019,24,4.5,24h15c2.481,0,4.5-2.019,4.5-4.5v-15
		C24,2.019,21.981,0,19.5,0z M4,4.5C4,4.221,4.231,4,4.5,4H9c0.275,0,0.5,0.224,0.5,0.5S9.275,5,9,5H5.707l6.647,6.646
		c0.195,0.195,0.195,0.512,0,0.707s-0.512,0.195-0.707,0L5,5.707V9c0,0.276-0.225,0.5-0.5,0.5C4.224,9.5,4,9.276,4,9V4.5z M12,21
		c-4.963,0-9-4.037-9-9c0-0.276,0.224-0.5,0.5-0.5C3.775,11.5,4,11.724,4,12c0,4.411,3.589,8,8,8s8-3.589,8-8s-3.589-8-8-8
		c-0.276,0-0.5-0.224-0.5-0.5S11.724,3,12,3c4.962,0,9,4.038,9,9C21,16.963,16.962,21,12,21z"/>
</g>
<g id="Invisible_Shape">
	<rect fill="none" width="24" height="24"/>
</g>
</svg>
