<?xml version="1.0" encoding="utf-8"?>
<!-- Generator: Adobe Illustrator 19.2.1, SVG Export Plug-In . SVG Version: 6.00 Build 0)  -->
<svg version="1.1" xmlns="http://www.w3.org/2000/svg" xmlns:xlink="http://www.w3.org/1999/xlink" x="0px" y="0px" width="24px"
	 height="24px" viewBox="0 0 24 24" enable-background="new 0 0 24 24" xml:space="preserve">
<g id="Filled_Icon">
	<path d="M19.501,0h-15c-2.481,0-4.5,2.019-4.5,4.5v15c0,2.481,2.019,4.5,4.5,4.5h15c2.481,0,4.5-2.019,4.5-4.5v-15
		C24.001,2.019,21.982,0,19.501,0z M18,12.5c0,0.276-0.224,0.5-0.5,0.5H7.708l2.146,2.146c0.195,0.195,0.195,0.512,0,0.707
		c-0.195,0.195-0.512,0.195-0.707,0l-2.998-2.997c-0.193-0.188-0.198-0.517,0-0.712l2.998-2.998c0.195-0.195,0.512-0.195,0.707,0
		s0.195,0.512,0,0.707L7.708,12H17V8.5C17,8.224,17.224,8,17.5,8S18,8.224,18,8.5V12.5z"/>
</g>
<g id="Invisible_Shape">
	<rect fill="none" width="24" height="24"/>
</g>
</svg>
