<?xml version="1.0" encoding="utf-8"?>
<!-- Generator: Adobe Illustrator 19.2.1, SVG Export Plug-In . SVG Version: 6.00 Build 0)  -->
<svg version="1.1" xmlns="http://www.w3.org/2000/svg" xmlns:xlink="http://www.w3.org/1999/xlink" x="0px" y="0px" width="24px"
	 height="24px" viewBox="0 0 24 24" enable-background="new 0 0 24 24" xml:space="preserve">
<g id="Filled_Icon">
	<path d="M19.5,0h-15C2.019,0,0,2.019,0,4.5v15C0,21.981,2.019,24,4.5,24h15c2.481,0,4.5-2.019,4.5-4.5v-15
		C24,2.019,21.981,0,19.5,0z M4.134,12.158l7.5-8c0.189-0.201,0.541-0.201,0.731,0l7.5,8C20.161,12.477,19.937,13,19.499,13h-15
		C4.062,13,3.837,12.477,4.134,12.158z M19.999,18.5c0,0.276-0.224,0.5-0.5,0.5h-15c-0.276,0-0.5-0.224-0.5-0.5v-4
		c0-0.276,0.224-0.5,0.5-0.5h15c0.276,0,0.5,0.224,0.5,0.5V18.5z"/>
</g>
<g id="Invisible_Shape">
	<rect fill="none" width="24" height="24"/>
</g>
</svg>
