<?xml version="1.0" encoding="utf-8"?>
<!-- Generator: Adobe Illustrator 19.2.1, SVG Export Plug-In . SVG Version: 6.00 Build 0)  -->
<svg version="1.1" xmlns="http://www.w3.org/2000/svg" xmlns:xlink="http://www.w3.org/1999/xlink" x="0px" y="0px" width="24px"
	 height="24px" viewBox="0 0 24 24" enable-background="new 0 0 24 24" xml:space="preserve">
<g id="Filled_Icon">
	<g>
		<path d="M19.501,0h-15c-2.481,0-4.5,2.019-4.5,4.5v15c0,2.481,2.019,4.5,4.5,4.5h15c2.481,0,4.5-2.019,4.5-4.5v-15
			C24.001,2.019,21.982,0,19.501,0z M19,15.5c0,0.276-0.224,0.5-0.5,0.5H8.001c-0.133,0-0.26-0.053-0.354-0.146l-3.5-3.5
			c-0.195-0.195-0.195-0.512,0-0.707l3.5-3.5C7.741,8.053,7.868,8,8.001,8H18.5C18.776,8,19,8.224,19,8.5V15.5z"/>
		<path d="M14.854,10.146c-0.195-0.195-0.512-0.195-0.707,0l-1.146,1.147l-1.147-1.147c-0.195-0.195-0.512-0.195-0.707,0
			c-0.195,0.195-0.195,0.512,0,0.707L12.294,12l-1.146,1.146c-0.195,0.195-0.195,0.512,0,0.707c0.195,0.195,0.512,0.195,0.707,0
			l1.147-1.147l1.146,1.147c0.195,0.195,0.512,0.195,0.707,0s0.195-0.512,0-0.707L13.708,12l1.146-1.146
			C15.05,10.658,15.05,10.342,14.854,10.146z"/>
	</g>
</g>
<g id="Invisible_Shape">
	<rect fill="none" width="24" height="24"/>
</g>
</svg>
