<?xml version="1.0" encoding="utf-8"?>
<!-- Generator: Adobe Illustrator 19.2.1, SVG Export Plug-In . SVG Version: 6.00 Build 0)  -->
<svg version="1.1" xmlns="http://www.w3.org/2000/svg" xmlns:xlink="http://www.w3.org/1999/xlink" x="0px" y="0px" width="24px"
	 height="24px" viewBox="0 0 24 24" enable-background="new 0 0 24 24" xml:space="preserve">
<g id="Filled_Icon">
	<path d="M19.5,0h-15C2.019,0,0,2.019,0,4.5v15C0,21.981,2.019,24,4.5,24h15c2.481,0,4.5-2.019,4.5-4.5v-15
		C24,2.019,21.981,0,19.5,0z M20.5,17h-5c-0.133,0-0.26-0.053-0.354-0.146L8.293,10H3.5C3.224,10,3,9.776,3,9.5S3.224,9,3.5,9h5
		c0.133,0,0.26,0.053,0.354,0.146L15.707,16H20.5c0.276,0,0.5,0.224,0.5,0.5S20.776,17,20.5,17z M20.5,10h-6
		C14.224,10,14,9.776,14,9.5S14.224,9,14.5,9h6C20.776,9,21,9.224,21,9.5S20.776,10,20.5,10z"/>
</g>
<g id="Invisible_Shape">
	<rect fill="none" width="24" height="24"/>
</g>
</svg>
