<?xml version="1.0" encoding="utf-8"?>
<!-- Generator: Adobe Illustrator 19.2.1, SVG Export Plug-In . SVG Version: 6.00 Build 0)  -->
<svg version="1.1" xmlns="http://www.w3.org/2000/svg" xmlns:xlink="http://www.w3.org/1999/xlink" x="0px" y="0px" width="24px"
	 height="24px" viewBox="0 0 24 24" enable-background="new 0 0 24 24" xml:space="preserve">
<g id="Filled_Icon">
	<path d="M19.5,15H17V9h2.5C21.981,9,24,6.981,24,4.5S21.981,0,19.5,0S15,2.019,15,4.5V7H9V4.5C9,2.019,6.981,0,4.5,0S0,2.019,0,4.5
		S2.019,9,4.5,9H7v6H4.5C2.019,15,0,17.019,0,19.5S2.019,24,4.5,24S9,21.981,9,19.5V17h6v2.5c0,2.481,2.019,4.5,4.5,4.5
		s4.5-2.019,4.5-4.5S21.981,15,19.5,15z M17,4.5C17,3.121,18.121,2,19.5,2S22,3.121,22,4.5S20.879,7,19.5,7H17V4.5z M4.5,7
		C3.121,7,2,5.879,2,4.5S3.121,2,4.5,2S7,3.121,7,4.5V7H4.5z M7,19.5C7,20.879,5.879,22,4.5,22S2,20.879,2,19.5S3.121,17,4.5,17H7
		V19.5z M9,15V9h6v6H9z M19.5,22c-1.379,0-2.5-1.121-2.5-2.5V17h2.5c1.379,0,2.5,1.121,2.5,2.5S20.879,22,19.5,22z"/>
</g>
<g id="Invisible_Shape">
	<rect fill="none" width="24" height="24"/>
</g>
</svg>
