<?xml version="1.0" encoding="utf-8"?>
<!-- Generator: Adobe Illustrator 16.0.3, SVG Export Plug-In . SVG Version: 6.00 Build 0)  -->
<!DOCTYPE svg PUBLIC "-//W3C//DTD SVG 1.1//EN" "http://www.w3.org/Graphics/SVG/1.1/DTD/svg11.dtd">
<svg version="1.1" xmlns="http://www.w3.org/2000/svg" xmlns:xlink="http://www.w3.org/1999/xlink" x="0px" y="0px" width="24px"
	 height="24px" viewBox="0 0 24 24" enable-background="new 0 0 24 24" xml:space="preserve">
<g id="Outline_Icons">
	<g>
		<path fill="none" stroke="#000000" stroke-linecap="round" stroke-linejoin="round" stroke-miterlimit="10" d="M21.5,3
			c-0.553,0-1,0.448-1,1c0,1.104-0.895,2-2,2c-1.104,0-2-0.896-2-2c0-1.38-1.119-2.5-2.5-2.5S11.5,2.62,11.5,4v2.5"/>
		<path fill="none" stroke="#000000" stroke-linecap="round" stroke-linejoin="round" stroke-miterlimit="10" d="M7.488,18.145
			c-1.736-2.492-1.125-5.92,1.367-7.657"/>
		<path fill="none" stroke="#000000" stroke-linecap="round" stroke-linejoin="round" stroke-miterlimit="10" d="M14.5,7.936V6.5h-5
			v1.436c-2.911,1.031-5,3.8-5,7.064c0,4.142,3.357,7.5,7.5,7.5c4.142,0,7.5-3.358,7.5-7.5C19.5,11.736,17.411,8.967,14.5,7.936z"/>
	</g>
</g>
<g id="invisible_shape">
	<rect fill="none" width="24" height="24"/>
</g>
</svg>
