<?xml version="1.0" encoding="utf-8"?>
<!-- Generator: Adobe Illustrator 16.0.3, SVG Export Plug-In . SVG Version: 6.00 Build 0)  -->
<!DOCTYPE svg PUBLIC "-//W3C//DTD SVG 1.1//EN" "http://www.w3.org/Graphics/SVG/1.1/DTD/svg11.dtd">
<svg version="1.1" xmlns="http://www.w3.org/2000/svg" xmlns:xlink="http://www.w3.org/1999/xlink" x="0px" y="0px" width="24px"
	 height="24px" viewBox="0 0 24 24" enable-background="new 0 0 24 24" xml:space="preserve">
<g id="Outline_Icons">
	<g>
		<path fill="none" stroke="#000000" stroke-linecap="round" stroke-linejoin="round" stroke-miterlimit="10" d="M7.5,21.5
			c0,1.105-0.896,2-2,2h-3c-1.104,0-2-0.895-2-2c0-1.104,0.896-2,2-2h3C6.604,19.5,7.5,20.396,7.5,21.5z"/>
		<path fill="none" stroke="#000000" stroke-linecap="round" stroke-linejoin="round" stroke-miterlimit="10" d="M15.5,21.5
			c0,1.105-0.896,2-2,2h-3c-1.104,0-2-0.895-2-2c0-1.104,0.896-2,2-2h3C14.604,19.5,15.5,20.396,15.5,21.5z"/>
		<path fill="none" stroke="#000000" stroke-linecap="round" stroke-linejoin="round" stroke-miterlimit="10" d="M23.5,21.5
			c0,1.105-0.896,2-2,2h-3c-1.104,0-2-0.895-2-2c0-1.104,0.896-2,2-2h3C22.604,19.5,23.5,20.396,23.5,21.5z"/>
		<path fill="none" stroke="#000000" stroke-linecap="round" stroke-linejoin="round" stroke-miterlimit="10" d="M10,17.5
			c0,1.105-0.896,2-2,2H5c-1.104,0-2-0.895-2-2c0-1.104,0.896-2,2-2h3C9.104,15.5,10,16.396,10,17.5z"/>
		<path fill="none" stroke="#000000" stroke-linecap="round" stroke-linejoin="round" stroke-miterlimit="10" d="M18,17.5
			c0,1.105-0.896,2-2,2h-3c-1.104,0-2-0.895-2-2c0-1.104,0.896-2,2-2h3C17.104,15.5,18,16.396,18,17.5z"/>
		
			<line fill="none" stroke="#000000" stroke-linecap="round" stroke-linejoin="round" stroke-miterlimit="10" x1="4.5" y1="11.5" x2="4.5" y2="15.5"/>
		<path fill="none" stroke="#000000" stroke-linecap="round" stroke-linejoin="round" stroke-miterlimit="10" d="M4.5,9.5V8.768
			c0-1.131,0.449-2.217,1.25-3.018c0.8-0.8,1.886-1.25,3.018-1.25H20.5c1.657,0,3,1.343,3,3V22"/>
		<polyline fill="none" stroke="#000000" stroke-linecap="round" stroke-linejoin="round" stroke-miterlimit="10" points="4.5,11.5 
			17.5,11.5 17.5,9.5 4.5,9.5 4.5,11.5 		"/>
	</g>
</g>
<g id="invisible_shape">
	<rect fill="none" width="24" height="24"/>
</g>
</svg>
