<?xml version="1.0" encoding="utf-8"?>
<!-- Generator: Adobe Illustrator 16.0.3, SVG Export Plug-In . SVG Version: 6.00 Build 0)  -->
<!DOCTYPE svg PUBLIC "-//W3C//DTD SVG 1.1//EN" "http://www.w3.org/Graphics/SVG/1.1/DTD/svg11.dtd">
<svg version="1.1" xmlns="http://www.w3.org/2000/svg" xmlns:xlink="http://www.w3.org/1999/xlink" x="0px" y="0px" width="24px"
	 height="24px" viewBox="0 0 24 24" enable-background="new 0 0 24 24" xml:space="preserve">
<g id="Outline_Icons">
	<g>
		<path fill="none" stroke="#000000" stroke-linecap="round" stroke-linejoin="round" stroke-miterlimit="10" d="M16.5,7.5
			c1.657,0,3-1.343,3-3h-6C13.5,6.157,14.843,7.5,16.5,7.5z"/>
		<path fill="none" stroke="#000000" stroke-linecap="round" stroke-linejoin="round" stroke-miterlimit="10" d="M12.5,4.5
			c0-2.209,1.791-4,4-4s4,1.791,4,4H12.5z"/>
		<path fill="none" stroke="#000000" stroke-linecap="round" stroke-linejoin="round" stroke-miterlimit="10" d="M8.5,21.5
			c0,1.105-0.896,2-2,2h-3c-1.104,0-2-0.895-2-2c0-1.104,0.896-2,2-2h3C7.604,19.5,8.5,20.396,8.5,21.5z"/>
		<path fill="none" stroke="#000000" stroke-linecap="round" stroke-linejoin="round" stroke-miterlimit="10" d="M12.5,17.5
			c0,1.105-0.896,2-2,2h-3c-1.104,0-2-0.895-2-2c0-1.104,0.896-2,2-2h3C11.604,15.5,12.5,16.396,12.5,17.5z"/>
		
			<rect x="6.5" y="8.5" fill="none" stroke="#000000" stroke-linecap="round" stroke-linejoin="round" stroke-miterlimit="10" width="8" height="2"/>
		<polyline fill="none" stroke="#000000" stroke-linecap="round" stroke-linejoin="round" stroke-miterlimit="10" points="6.5,8.5 
			2.5,8.5 2.5,7.5 		"/>
		<path fill="none" stroke="#000000" stroke-linecap="round" stroke-linejoin="round" stroke-miterlimit="10" d="M15.5,20.5l2-3.5
			l2.625,5.688c0.218,0.472,0.739,0.722,1.243,0.595c0.292-0.073,0.54-0.264,0.685-0.528c0.146-0.264,0.174-0.576,0.078-0.861
			L20.5,17L20,11.5c0-1.657-1.343-3-3-3h-2.5"/>
		<path fill="none" stroke="#000000" stroke-linecap="round" stroke-linejoin="round" stroke-miterlimit="10" d="M9.5,10.5
			l0.872,1.222c0.798,1.117,2.458,1.117,3.256,0L14.5,10.5V16L13,19"/>
		<path fill="none" stroke="#000000" stroke-linecap="round" stroke-linejoin="round" stroke-miterlimit="10" d="M15.5,21.5
			c0,1.105-0.896,2-2,2h-3c-1.104,0-2-0.895-2-2c0-1.104,0.896-2,2-2h3C14.604,19.5,15.5,20.396,15.5,21.5z"/>
	</g>
</g>
<g id="invisible_shape">
	<rect fill="none" width="24" height="24"/>
</g>
</svg>
