<?xml version="1.0" encoding="utf-8"?>
<!-- Generator: Adobe Illustrator 16.0.3, SVG Export Plug-In . SVG Version: 6.00 Build 0)  -->
<!DOCTYPE svg PUBLIC "-//W3C//DTD SVG 1.1//EN" "http://www.w3.org/Graphics/SVG/1.1/DTD/svg11.dtd">
<svg version="1.1" xmlns="http://www.w3.org/2000/svg" xmlns:xlink="http://www.w3.org/1999/xlink" x="0px" y="0px" width="24px"
	 height="24px" viewBox="0 0 24 24" enable-background="new 0 0 24 24" xml:space="preserve">
<g id="Outline_Icons">
	<g>
		<path fill="none" stroke="#000000" stroke-linecap="round" stroke-linejoin="round" stroke-miterlimit="10" d="M14.5,10.5
			c1.657,0,3-1.343,3-3h-6C11.5,9.157,12.843,10.5,14.5,10.5z"/>
		<path fill="none" stroke="#000000" stroke-linecap="round" stroke-linejoin="round" stroke-miterlimit="10" d="M10.5,7.5
			c0-2.209,1.791-4,4-4s4,1.791,4,4H10.5z"/>
		<path fill="none" stroke="#000000" stroke-linecap="round" stroke-linejoin="round" stroke-miterlimit="10" d="M9.5,19.5
			c0,1.105-0.896,2-2,2h-3c-1.104,0-2-0.895-2-2c0-1.104,0.896-2,2-2h3C8.604,17.5,9.5,18.396,9.5,19.5z"/>
		<path fill="none" stroke="#000000" stroke-linecap="round" stroke-linejoin="round" stroke-miterlimit="10" d="M13.5,15.5
			c0,1.105-0.896,2-2,2h-3c-1.104,0-2-0.895-2-2c0-1.104,0.896-2,2-2h3C12.604,13.5,13.5,14.396,13.5,15.5z"/>
		<path fill="none" stroke="#000000" stroke-linecap="round" stroke-linejoin="round" stroke-miterlimit="10" d="M16.5,19.5
			c0,1.105-0.896,2-2,2h-3c-1.104,0-2-0.895-2-2c0-1.104,0.896-2,2-2h3C15.604,17.5,16.5,18.396,16.5,19.5z"/>
		<path fill="none" stroke="#000000" stroke-linecap="round" stroke-linejoin="round" stroke-miterlimit="10" d="M14.5,21.5H21
			c0.828,0,1.5-0.671,1.5-1.5c0-0.828-0.672-1.5-1.5-1.5h-2.5l-0.5-4c0-1.657-1.343-3-3-3h-2.5"/>
		
			<rect x="4.5" y="11.5" fill="none" stroke="#000000" stroke-linecap="round" stroke-linejoin="round" stroke-miterlimit="10" width="8" height="2"/>
		<polyline fill="none" stroke="#000000" stroke-linecap="round" stroke-linejoin="round" stroke-miterlimit="10" points="4.5,11.5 
			0.5,11.5 0.5,10.5 		"/>
	</g>
</g>
<g id="invisible_shape">
	<rect fill="none" width="24" height="24"/>
</g>
</svg>
