<?xml version="1.0" encoding="utf-8"?>
<!-- Generator: Adobe Illustrator 16.0.3, SVG Export Plug-In . SVG Version: 6.00 Build 0)  -->
<!DOCTYPE svg PUBLIC "-//W3C//DTD SVG 1.1//EN" "http://www.w3.org/Graphics/SVG/1.1/DTD/svg11.dtd">
<svg version="1.1" xmlns="http://www.w3.org/2000/svg" xmlns:xlink="http://www.w3.org/1999/xlink" x="0px" y="0px" width="24px"
	 height="24px" viewBox="0 0 24 24" enable-background="new 0 0 24 24" xml:space="preserve">
<g id="Outline_Icons">
	<g>
		
			<line fill="none" stroke="#000000" stroke-linecap="round" stroke-linejoin="round" stroke-miterlimit="10" x1="11.808" y1="9.692" x2="3.322" y2="18.178"/>
		
			<rect x="3.029" y="12.228" transform="matrix(0.707 -0.7072 0.7072 0.707 -8.1746 6.7256)" fill="none" stroke="#000000" stroke-linecap="round" stroke-linejoin="round" stroke-miterlimit="10" width="2" height="2"/>
		<path fill="none" stroke="#000000" stroke-linecap="round" stroke-linejoin="round" stroke-miterlimit="10" d="M3.322,15.349
			c-0.781,0.782-0.781,2.047,0,2.829l1.414,1.415c0,0,2.218-1.869,3.183-0.354l2.121,4.243l2.828-2.828l-2.475-5.304l3.535-3.536
			l-3.535-3.535L3.322,15.349z"/>
		<polyline fill="none" stroke="#000000" stroke-linecap="round" stroke-linejoin="round" stroke-miterlimit="10" points="
			12.515,13.228 13.929,16.057 12.161,17.824 		"/>
		
			<rect x="11.904" y="3.097" transform="matrix(0.7072 -0.7071 0.7071 0.7072 1.2001 13.0909)" fill="none" stroke="#000000" stroke-linecap="round" stroke-linejoin="round" stroke-miterlimit="10" width="9" height="3.999"/>
		
			<rect x="11.515" y="7.985" transform="matrix(0.707 -0.7072 0.7072 0.707 -2.6877 11.4836)" fill="none" stroke="#000000" stroke-linecap="round" stroke-linejoin="round" stroke-miterlimit="10" width="2" height="2"/>
	</g>
</g>
<g id="invisible_shape">
	<rect fill="none" width="24" height="24"/>
</g>
</svg>
