<?xml version="1.0" encoding="utf-8"?>
<!-- Generator: Adobe Illustrator 16.0.3, SVG Export Plug-In . SVG Version: 6.00 Build 0)  -->
<!DOCTYPE svg PUBLIC "-//W3C//DTD SVG 1.1//EN" "http://www.w3.org/Graphics/SVG/1.1/DTD/svg11.dtd">
<svg version="1.1" xmlns="http://www.w3.org/2000/svg" xmlns:xlink="http://www.w3.org/1999/xlink" x="0px" y="0px" width="24px"
	 height="24px" viewBox="0 0 24 24" enable-background="new 0 0 24 24" xml:space="preserve">
<g id="Outline_Icons">
	<g>
		<path fill="none" stroke="#000000" stroke-linejoin="round" stroke-miterlimit="10" d="M17.03,19c0,6.062-11,6.124-11,0
			c0-3.589,5.5-7.5,5.5-7.5S17.03,15.411,17.03,19z"/>
		<line fill="none" stroke="#000000" stroke-linejoin="round" stroke-miterlimit="10" x1="11.5" y1="4" x2="11.5" y2="0"/>
		<path fill="none" stroke="#000000" stroke-linecap="round" stroke-linejoin="round" stroke-miterlimit="10" d="M13.893,8.396
			c0.332,0.44,0.246,1.066-0.194,1.402l-3.188,2.413c-0.441,0.333-1.068,0.247-1.402-0.193c-0.332-0.441-0.246-1.068,0.193-1.401
			l3.19-2.414C12.932,7.868,13.559,7.956,13.893,8.396z"/>
		<path fill="none" stroke="#000000" stroke-linecap="round" stroke-linejoin="round" stroke-miterlimit="10" d="M13.893,5.886
			c0.332,0.441,0.246,1.068-0.194,1.402L10.51,9.702c-0.441,0.333-1.068,0.246-1.402-0.193C8.775,9.068,8.861,8.44,9.301,8.107
			l3.19-2.413C12.932,5.359,13.559,5.446,13.893,5.886z"/>
		<path fill="none" stroke="#000000" stroke-linecap="round" stroke-linejoin="round" stroke-miterlimit="10" d="M13.893,3.396
			c0.332,0.44,0.246,1.066-0.194,1.402L10.51,7.211c-0.441,0.333-1.068,0.247-1.402-0.193C8.775,6.576,8.861,5.95,9.301,5.617
			l3.19-2.414C12.932,2.868,13.559,2.956,13.893,3.396z"/>
	</g>
</g>
<g id="invisible_shape">
	<rect fill="none" width="24" height="24"/>
</g>
</svg>
