<?xml version="1.0" encoding="utf-8"?>
<!-- Generator: Adobe Illustrator 16.0.3, SVG Export Plug-In . SVG Version: 6.00 Build 0)  -->
<!DOCTYPE svg PUBLIC "-//W3C//DTD SVG 1.1//EN" "http://www.w3.org/Graphics/SVG/1.1/DTD/svg11.dtd">
<svg version="1.1" xmlns="http://www.w3.org/2000/svg" xmlns:xlink="http://www.w3.org/1999/xlink" x="0px" y="0px" width="24px"
	 height="24px" viewBox="0 0 24 24" enable-background="new 0 0 24 24" xml:space="preserve">
<g id="Outline_Icons">
	<g>
		<path fill="none" stroke="#000000" stroke-linecap="round" stroke-linejoin="round" stroke-miterlimit="10" d="M13.569,12.552
			c0.707-0.708,2.74-2.741,2.74-2.741L14.188,7.69c0,0-2.032,2.033-2.74,2.741c-0.706,0.706-4.596,0.353-6.01,1.766
			c-1.414,1.415-4.177,4.177-4.883,4.884c-0.708,0.708,5.656,7.071,6.363,6.364c0.707-0.708,3.47-3.47,4.884-4.884
			C13.216,17.148,12.862,13.258,13.569,12.552z"/>
		
			<line fill="none" stroke="#000000" stroke-linecap="round" stroke-linejoin="round" stroke-miterlimit="10" x1="12.771" y1="9.106" x2="14.901" y2="11.22"/>
		
			<line fill="none" stroke="#000000" stroke-linecap="round" stroke-linejoin="round" stroke-miterlimit="10" x1="5.01" y1="12.625" x2="11.358" y2="19.006"/>
		
			<line fill="none" stroke="#000000" stroke-linecap="round" stroke-linejoin="round" stroke-miterlimit="10" x1="2.166" y1="15.469" x2="8.538" y2="21.825"/>
		<path fill="none" stroke="#000000" stroke-linejoin="round" stroke-miterlimit="10" d="M22.729,0.602
			c0.093,1.966-1.721,3.321-2.846,3.431c0.004-0.554,0.062-1.09,0.469-1.504c-1.367-0.771-2.713-0.615-3.753,0.228
			c-1.501,1.215-1.731,3.417-0.516,4.918s3.418,1.731,4.918,0.516C23.193,6.413,23.98,3.16,22.729,0.602z"/>
		
			<line fill="none" stroke="#000000" stroke-linecap="round" stroke-linejoin="round" stroke-miterlimit="10" x1="17.732" y1="6.142" x2="15.193" y2="8.696"/>
	</g>
</g>
<g id="invisible_shape">
	<rect fill="none" width="24" height="24"/>
</g>
</svg>
