<?xml version="1.0" encoding="utf-8"?>
<!-- Generator: Adobe Illustrator 16.0.3, SVG Export Plug-In . SVG Version: 6.00 Build 0)  -->
<!DOCTYPE svg PUBLIC "-//W3C//DTD SVG 1.1//EN" "http://www.w3.org/Graphics/SVG/1.1/DTD/svg11.dtd">
<svg version="1.1" xmlns="http://www.w3.org/2000/svg" xmlns:xlink="http://www.w3.org/1999/xlink" x="0px" y="0px" width="24px"
	 height="24px" viewBox="0 0 24 24" enable-background="new 0 0 24 24" xml:space="preserve">
<g id="Outline_Icons">
	<path fill="none" stroke="#000000" stroke-linejoin="round" stroke-miterlimit="10" d="M12,0.5C7.306,0.5,3.5,4.306,3.5,9v8.5
		c1.068,2.497,3.855,4.397,6.5,6L8.585,12.271c-1.048-0.139-2.078-0.336-3.085-0.592V8.577C7.258,9.084,9.102,9.382,11,9.464V13
		l-0.5,1l1.5,2.5l1.5-2.5L13,13V9.464c1.898-0.082,3.742-0.38,5.5-0.887v3.102c-1.007,0.255-2.037,0.453-3.085,0.592L14,23.5
		c2.645-1.603,5.432-3.503,6.5-6V9C20.5,4.306,16.694,0.5,12,0.5z"/>
</g>
<g id="invisible_shape">
	<rect fill="none" width="24" height="24"/>
</g>
</svg>
