<?xml version="1.0" encoding="utf-8"?>
<!-- Generator: Adobe Illustrator 16.0.3, SVG Export Plug-In . SVG Version: 6.00 Build 0)  -->
<!DOCTYPE svg PUBLIC "-//W3C//DTD SVG 1.1//EN" "http://www.w3.org/Graphics/SVG/1.1/DTD/svg11.dtd">
<svg version="1.1" xmlns="http://www.w3.org/2000/svg" xmlns:xlink="http://www.w3.org/1999/xlink" x="0px" y="0px" width="24px"
	 height="24px" viewBox="0 0 24 24" enable-background="new 0 0 24 24" xml:space="preserve">
<g id="Outline_Icons">
	<g>
		
			<rect x="0.5" y="11.5" fill="none" stroke="#000000" stroke-linecap="round" stroke-linejoin="round" stroke-miterlimit="10" width="14" height="12"/>
		<g>
			<path d="M6.5,15.5C6.224,15.5,6,15.724,6,16s0.224,0.5,0.5,0.5S7,16.276,7,16S6.776,15.5,6.5,15.5L6.5,15.5z"/>
		</g>
		<g>
			<path d="M8.5,15.5C8.224,15.5,8,15.724,8,16s0.224,0.5,0.5,0.5S9,16.276,9,16S8.776,15.5,8.5,15.5L8.5,15.5z"/>
		</g>
		
			<rect x="3.5" y="9.5" fill="none" stroke="#000000" stroke-linecap="round" stroke-linejoin="round" stroke-miterlimit="10" width="8" height="2"/>
		
			<line fill="none" stroke="#000000" stroke-linecap="round" stroke-linejoin="round" stroke-miterlimit="10" x1="7.5" y1="9.5" x2="7.5" y2="2.5"/>
		<path fill="none" stroke="#000000" stroke-linecap="round" stroke-linejoin="round" stroke-miterlimit="10" d="M10.5,16.5
			c0-1.657-1.344-3-3-3s-3,1.343-3,3c0,0.885,0.391,1.672,1,2.222V20.5h4v-1.778C10.109,18.172,10.5,17.385,10.5,16.5z"/>
		
			<rect x="2.5" y="0.5" fill="none" stroke="#000000" stroke-linecap="round" stroke-linejoin="round" stroke-miterlimit="10" width="10" height="2"/>
		<path fill="none" stroke="#000000" stroke-linecap="round" stroke-linejoin="round" stroke-miterlimit="10" d="M14.5,20.5
			c0-1.657,1.343-3,3-3s3,1.343,3,3c0,1.11-0.5,3-1.5,3s-1.5-1.888-1.5-3c0-1.657,1.343-3,3-3s3,1.343,3,3"/>
	</g>
</g>
<g id="invisible_shape">
	<rect fill="none" width="24" height="24"/>
</g>
</svg>
