<?xml version="1.0" encoding="utf-8"?>
<!-- Generator: Adobe Illustrator 16.0.3, SVG Export Plug-In . SVG Version: 6.00 Build 0)  -->
<!DOCTYPE svg PUBLIC "-//W3C//DTD SVG 1.1//EN" "http://www.w3.org/Graphics/SVG/1.1/DTD/svg11.dtd">
<svg version="1.1" xmlns="http://www.w3.org/2000/svg" xmlns:xlink="http://www.w3.org/1999/xlink" x="0px" y="0px" width="24px"
	 height="24px" viewBox="0 0 24 24" enable-background="new 0 0 24 24" xml:space="preserve">
<g id="Outline_Icons">
	<g>
		
			<circle fill="none" stroke="#000000" stroke-linecap="round" stroke-linejoin="round" stroke-miterlimit="10" cx="12" cy="12" r="11.5"/>
		
			<circle fill="none" stroke="#000000" stroke-linecap="round" stroke-linejoin="round" stroke-miterlimit="10" cx="12" cy="6" r="2.5"/>
		<path fill="none" stroke="#000000" stroke-linecap="round" stroke-linejoin="round" stroke-miterlimit="10" d="M19.158,7.801
			c0.211-0.19,0.334-0.458,0.342-0.741c0.007-0.283-0.103-0.557-0.303-0.757c-0.403-0.403-1.057-0.403-1.46,0
			c-0.479,0.479-1.812,1.688-3.073,2.82c-1.519,1.364-3.818,1.367-5.339,0.004C8.14,8.066,6.877,6.916,6.263,6.303
			c-0.403-0.403-1.057-0.403-1.46,0c-0.2,0.2-0.31,0.474-0.303,0.757c0.008,0.283,0.131,0.551,0.342,0.741L9.5,12.5v1.501
			L6.878,18.5c-0.357,0.562-0.222,1.306,0.312,1.706c0.276,0.207,0.625,0.294,0.967,0.239C8.497,20.391,8.802,20.2,9,19.917
			l2.181-3.71c0.398-0.569,1.24-0.569,1.639,0l2.681,3.71c0.198,0.283,0.503,0.474,0.844,0.528c0.342,0.055,0.69-0.032,0.967-0.239
			c0.533-0.4,0.669-1.144,0.312-1.706L14.5,14v-1.5L19.158,7.801z"/>
		
			<line fill="none" stroke="#000000" stroke-linecap="round" stroke-linejoin="round" stroke-miterlimit="10" x1="15.5" y1="7" x2="18.5" y2="10"/>
		
			<line fill="none" stroke="#000000" stroke-linecap="round" stroke-linejoin="round" stroke-miterlimit="10" x1="8.5" y1="7" x2="5.5" y2="10"/>
		
			<line fill="none" stroke="#000000" stroke-linecap="round" stroke-linejoin="round" stroke-miterlimit="10" x1="14" y1="19" x2="17.5" y2="16.5"/>
		
			<line fill="none" stroke="#000000" stroke-linecap="round" stroke-linejoin="round" stroke-miterlimit="10" x1="10" y1="19" x2="6.5" y2="16.5"/>
	</g>
</g>
<g id="invisible_shape">
	<rect fill="none" width="24" height="24"/>
</g>
</svg>
