<?xml version="1.0" encoding="utf-8"?>
<!-- Generator: Adobe Illustrator 16.0.3, SVG Export Plug-In . SVG Version: 6.00 Build 0)  -->
<!DOCTYPE svg PUBLIC "-//W3C//DTD SVG 1.1//EN" "http://www.w3.org/Graphics/SVG/1.1/DTD/svg11.dtd">
<svg version="1.1" xmlns="http://www.w3.org/2000/svg" xmlns:xlink="http://www.w3.org/1999/xlink" x="0px" y="0px" width="24px"
	 height="24px" viewBox="0 0 24 24" enable-background="new 0 0 24 24" xml:space="preserve">
<g id="Outline_Icons">
	<g>
		<polyline fill="none" stroke="#000000" stroke-linecap="round" stroke-linejoin="round" stroke-miterlimit="10" points="
			19.5,16.5 19.5,19.5 4.5,19.5 4.5,16.5 		"/>
		<path fill="none" stroke="#000000" stroke-linecap="round" stroke-linejoin="round" stroke-miterlimit="10" d="M6.002,10.802
			C4.214,9.827,3,7.931,3,5.75c0-0.472,0.063-0.929,0.171-1.369C1.551,5.615,0.5,7.557,0.5,9.75c0,2.749,1.643,5.115,4,6.167"/>
		<path fill="none" stroke="#000000" stroke-linecap="round" stroke-linejoin="round" stroke-miterlimit="10" d="M18,10.801
			c1.787-0.974,3-2.872,3-5.051c0-0.472-0.063-0.929-0.171-1.369C22.449,5.615,23.5,7.557,23.5,9.75c0,2.749-1.643,5.115-4,6.167"/>
		<path fill="none" stroke="#000000" stroke-linecap="round" stroke-linejoin="round" stroke-miterlimit="10" d="M10,8.27
			C6.829,9.146,4.5,12.05,4.5,15.5v1h15v-1c0-3.45-2.33-6.357-5.503-7.231"/>
		<path fill="none" stroke="#000000" stroke-linecap="round" stroke-linejoin="round" stroke-miterlimit="10" d="M13.89,7.6
			c0.028-0.281-0.063-0.561-0.253-0.771S13.178,6.5,12.895,6.5h-1.789c-0.283,0-0.553,0.12-0.742,0.329S10.082,7.318,10.11,7.6
			L11,16.5h2L13.89,7.6z"/>
	</g>
</g>
<g id="invisible_shape">
	<rect fill="none" width="24" height="24"/>
</g>
</svg>
