<?xml version="1.0" encoding="utf-8"?>
<!-- Generator: Adobe Illustrator 16.0.3, SVG Export Plug-In . SVG Version: 6.00 Build 0)  -->
<!DOCTYPE svg PUBLIC "-//W3C//DTD SVG 1.1//EN" "http://www.w3.org/Graphics/SVG/1.1/DTD/svg11.dtd">
<svg version="1.1" xmlns="http://www.w3.org/2000/svg" xmlns:xlink="http://www.w3.org/1999/xlink" x="0px" y="0px" width="24px"
	 height="24px" viewBox="0 0 24 24" enable-background="new 0 0 24 24" xml:space="preserve">
<g id="Outline_Icons">
	<g>
		<g>
			<polyline fill="none" stroke="#000000" stroke-linecap="round" stroke-linejoin="round" stroke-miterlimit="10" points="
				19.053,23 20.018,18.094 15.037,18.541 			"/>
			<polyline fill="none" stroke="#000000" stroke-linecap="round" stroke-linejoin="round" stroke-miterlimit="10" points="
				4.804,3.117 3.839,8.023 8.819,7.576 			"/>
			<path fill="none" stroke="#000000" stroke-linecap="round" stroke-linejoin="round" stroke-miterlimit="10" d="M19.975,18.066
				c-1.693,2.609-4.633,4.336-7.975,4.336c-5.247,0-9.5-4.254-9.5-9.5c0-0.499,0.038-0.989,0.112-1.465"/>
			<path fill="none" stroke="#000000" stroke-linecap="round" stroke-linejoin="round" stroke-miterlimit="10" d="M3.845,8.027
				C5.504,5.256,8.535,3.403,12,3.403c5.247,0,9.5,4.251,9.5,9.5c0,0.833-0.107,1.644-0.31,2.414"/>
		</g>
		<g>
			<path fill="none" stroke="#000000" stroke-linecap="round" stroke-linejoin="round" stroke-miterlimit="10" d="M8.096,11.402
				C8.123,10.857,8.371,10,9.5,10c1.195,0,1.402,0.963,1.402,1.5c0,0.535-0.207,1.5-1.402,1.5"/>
			<path fill="none" stroke="#000000" stroke-linecap="round" stroke-linejoin="round" stroke-miterlimit="10" d="M8.096,14.596
				C8.123,15.141,8.371,16,9.5,16c1.195,0,1.402-0.965,1.402-1.5c0-0.537-0.207-1.5-1.402-1.5"/>
		</g>
		<path fill="none" stroke="#000000" stroke-linecap="round" stroke-linejoin="round" stroke-miterlimit="10" d="M13.5,16v-6h0.772
			c1.304,0,2.004,1.379,2.004,3c0,1.619-0.7,3-2.004,3H13.5z"/>
	</g>
</g>
<g id="Invisible_Shape">
	<rect fill="none" width="24" height="24"/>
</g>
</svg>
