<?xml version="1.0" encoding="utf-8"?>
<!-- Generator: Adobe Illustrator 16.0.3, SVG Export Plug-In . SVG Version: 6.00 Build 0)  -->
<!DOCTYPE svg PUBLIC "-//W3C//DTD SVG 1.1//EN" "http://www.w3.org/Graphics/SVG/1.1/DTD/svg11.dtd">
<svg version="1.1" xmlns="http://www.w3.org/2000/svg" xmlns:xlink="http://www.w3.org/1999/xlink" x="0px" y="0px" width="24px"
	 height="24px" viewBox="0 0 24 24" enable-background="new 0 0 24 24" xml:space="preserve">
<g id="Outline_Icons">
	<g>
		<path fill="none" stroke="#000000" stroke-linecap="round" stroke-linejoin="round" stroke-miterlimit="10" d="M0.5,3.5
			c0-1.104,0.896-2,2-2h19c1.104,0,2,0.896,2,2v17c0,1.104-0.896,2-2,2h-19c-1.104,0-2-0.896-2-2V3.5z"/>
		<path fill="none" stroke="#000000" stroke-linecap="round" stroke-linejoin="round" stroke-miterlimit="10" d="M10.5,10.531V10.5
			c0-1.104-0.896-2-2-2h-2c-1.104,0-2,0.896-2,2v3c0,1.104,0.896,2,2,2h2c1.104,0,2-0.896,2-2v-0.021"/>
		<path fill="none" stroke="#000000" stroke-linecap="round" stroke-linejoin="round" stroke-miterlimit="10" d="M19.5,10.531V10.5
			c0-1.104-0.896-2-2-2h-2c-1.104,0-2,0.896-2,2v3c0,1.104,0.896,2,2,2h2c1.104,0,2-0.896,2-2v-0.021"/>
	</g>
</g>
<g id="Invisible_Shape">
	<rect fill="none" width="24" height="24"/>
</g>
</svg>
