<?xml version="1.0" encoding="utf-8"?>
<!-- Generator: Adobe Illustrator 16.0.3, SVG Export Plug-In . SVG Version: 6.00 Build 0)  -->
<!DOCTYPE svg PUBLIC "-//W3C//DTD SVG 1.1//EN" "http://www.w3.org/Graphics/SVG/1.1/DTD/svg11.dtd">
<svg version="1.1" xmlns="http://www.w3.org/2000/svg" xmlns:xlink="http://www.w3.org/1999/xlink" x="0px" y="0px" width="24px"
	 height="24px" viewBox="0 0 24 24" enable-background="new 0 0 24 24" xml:space="preserve">
<g id="Outline_Icons">
	<g>
		<rect x="3.5" y="0.5" fill="none" stroke="#000000" stroke-linejoin="round" stroke-miterlimit="10" width="17" height="23"/>
		<rect x="8.5" y="2.5" fill="none" stroke="#000000" stroke-linejoin="round" stroke-miterlimit="10" width="7" height="5"/>
		<rect x="8.5" y="9.5" fill="none" stroke="#000000" stroke-linejoin="round" stroke-miterlimit="10" width="7" height="5"/>
		<rect x="8.5" y="16.5" fill="none" stroke="#000000" stroke-linejoin="round" stroke-miterlimit="10" width="7" height="5"/>
		<rect x="5.5" y="2.5" fill="none" stroke="#000000" stroke-linejoin="round" stroke-miterlimit="10" width="1" height="1"/>
		<rect x="5.5" y="6.5" fill="none" stroke="#000000" stroke-linejoin="round" stroke-miterlimit="10" width="1" height="1"/>
		<rect x="5.5" y="9.5" fill="none" stroke="#000000" stroke-linejoin="round" stroke-miterlimit="10" width="1" height="1"/>
		<rect x="5.5" y="13.5" fill="none" stroke="#000000" stroke-linejoin="round" stroke-miterlimit="10" width="1" height="1"/>
		<rect x="5.5" y="16.5" fill="none" stroke="#000000" stroke-linejoin="round" stroke-miterlimit="10" width="1" height="1"/>
		<rect x="5.5" y="20.5" fill="none" stroke="#000000" stroke-linejoin="round" stroke-miterlimit="10" width="1" height="1"/>
		<rect x="17.5" y="2.5" fill="none" stroke="#000000" stroke-linejoin="round" stroke-miterlimit="10" width="1" height="1"/>
		<rect x="17.5" y="6.5" fill="none" stroke="#000000" stroke-linejoin="round" stroke-miterlimit="10" width="1" height="1"/>
		<rect x="17.5" y="9.5" fill="none" stroke="#000000" stroke-linejoin="round" stroke-miterlimit="10" width="1" height="1"/>
		<rect x="17.5" y="13.5" fill="none" stroke="#000000" stroke-linejoin="round" stroke-miterlimit="10" width="1" height="1"/>
		<rect x="17.5" y="16.5" fill="none" stroke="#000000" stroke-linejoin="round" stroke-miterlimit="10" width="1" height="1"/>
		<rect x="17.5" y="20.5" fill="none" stroke="#000000" stroke-linejoin="round" stroke-miterlimit="10" width="1" height="1"/>
	</g>
</g>
<g id="Invisible_Shape">
	<rect fill="none" width="24" height="24"/>
</g>
</svg>
