<?xml version="1.0" encoding="utf-8"?>
<!-- Generator: Adobe Illustrator 16.0.3, SVG Export Plug-In . SVG Version: 6.00 Build 0)  -->
<!DOCTYPE svg PUBLIC "-//W3C//DTD SVG 1.1//EN" "http://www.w3.org/Graphics/SVG/1.1/DTD/svg11.dtd">
<svg version="1.1" xmlns="http://www.w3.org/2000/svg" xmlns:xlink="http://www.w3.org/1999/xlink" x="0px" y="0px" width="24px"
	 height="24px" viewBox="0 0 24 24" enable-background="new 0 0 24 24" xml:space="preserve">
<g id="Outline_Icons">
	<g>
		<path fill="none" stroke="#000000" stroke-linejoin="round" stroke-miterlimit="10" d="M2.5,18.5c0,1,1,2,5.5,2c3,0,0,0,3,0
			c4.5,0,5.5-1,5.5-2s0-7,0-8s-1-2-5.5-2c-3,0,0,0-3,0c-4.5,0-5.5,1-5.5,2S2.5,17.5,2.5,18.5z"/>
		<path fill="none" stroke="#000000" stroke-linecap="round" stroke-linejoin="round" stroke-miterlimit="10" d="M16,6.5V6
			c-0.736-1.481-2.234-2.5-4-2.5c-1.768,0-3.264,1.019-4,2.5v0.5"/>
		
			<line fill="none" stroke="#000000" stroke-linecap="round" stroke-linejoin="round" stroke-miterlimit="10" x1="14.02" y1="3.98" x2="17.5" y2="0.5"/>
		
			<line fill="none" stroke="#000000" stroke-linecap="round" stroke-linejoin="round" stroke-miterlimit="10" x1="9.977" y1="3.978" x2="6.5" y2="0.5"/>
		<path fill="none" stroke="#000000" stroke-linejoin="round" stroke-miterlimit="10" d="M23.5,19.513c0,1.65-1.35,3-3,3h-17
			c-1.65,0-3-1.35-3-3V9.503c0-1.65,1.35-3,3-3h17c1.65,0,3,1.35,3,3V19.513z"/>
		<path fill="none" stroke="#000000" stroke-linejoin="round" stroke-miterlimit="10" d="M21.5,11c0,0.829-0.671,1.5-1.5,1.5l0,0
			c-0.829,0-1.5-0.671-1.5-1.5l0,0c0-0.829,0.671-1.5,1.5-1.5l0,0C20.829,9.5,21.5,10.171,21.5,11L21.5,11z"/>
		<path fill="none" stroke="#000000" stroke-linejoin="round" stroke-miterlimit="10" d="M21.5,16c0,0.829-0.671,1.5-1.5,1.5l0,0
			c-0.829,0-1.5-0.671-1.5-1.5l0,0c0-0.829,0.671-1.5,1.5-1.5l0,0C20.829,14.5,21.5,15.171,21.5,16L21.5,16z"/>
	</g>
</g>
<g id="Invisible_Shape">
	<rect fill="none" width="24" height="24"/>
</g>
</svg>
