<?xml version="1.0" encoding="utf-8"?>
<!-- Generator: Adobe Illustrator 16.0.3, SVG Export Plug-In . SVG Version: 6.00 Build 0)  -->
<!DOCTYPE svg PUBLIC "-//W3C//DTD SVG 1.1//EN" "http://www.w3.org/Graphics/SVG/1.1/DTD/svg11.dtd">
<svg version="1.1" xmlns="http://www.w3.org/2000/svg" xmlns:xlink="http://www.w3.org/1999/xlink" x="0px" y="0px" width="24px"
	 height="24px" viewBox="0 0 24 24" enable-background="new 0 0 24 24" xml:space="preserve">
<g id="Outline_Icons">
	<g>
		<circle fill="none" stroke="#000000" stroke-miterlimit="10" cx="11.996" cy="12" r="11.5"/>
		<circle fill="none" stroke="#000000" stroke-miterlimit="10" cx="11.996" cy="12" r="5.5"/>
		<path fill="none" stroke="#000000" stroke-miterlimit="10" d="M11.496,11.5c-0.553,0-1-0.447-1-1c0-0.552,0.447-1,1-1h1
			c0.553,0,1,0.448,1,1c0,0.553-0.447,1-1,1H11.496z"/>
		<path fill="none" stroke="#000000" stroke-miterlimit="10" d="M11.5,14.5c-0.828,0-1.5-0.672-1.5-1.5s0.672-1.5,1.5-1.5h1
			c0.828,0,1.5,0.672,1.5,1.5s-0.672,1.5-1.5,1.5H11.5z"/>
	</g>
</g>
<g id="invisible_shape">
	<rect fill="none" width="24" height="24"/>
</g>
</svg>
