<?xml version="1.0" encoding="utf-8"?>
<!-- Generator: Adobe Illustrator 16.0.3, SVG Export Plug-In . SVG Version: 6.00 Build 0)  -->
<!DOCTYPE svg PUBLIC "-//W3C//DTD SVG 1.1//EN" "http://www.w3.org/Graphics/SVG/1.1/DTD/svg11.dtd">
<svg version="1.1" xmlns="http://www.w3.org/2000/svg" xmlns:xlink="http://www.w3.org/1999/xlink" x="0px" y="0px" width="24px"
	 height="24px" viewBox="0 0 24 24" enable-background="new 0 0 24 24" xml:space="preserve">
<g id="Outline_Icons">
	<g>
		<path fill="none" stroke="#000000" stroke-linejoin="round" stroke-miterlimit="10" d="M3.085,16.241l4.242,4.244l-0.707,0.706
			c-1.172,1.172-3.071,1.172-4.242,0c-1.172-1.173-1.172-3.071,0-4.243L3.085,16.241z"/>
		
			<rect x="2.913" y="16.656" transform="matrix(0.7069 0.7073 -0.7073 0.7069 14.2207 0.9918)" fill="none" stroke="#000000" stroke-linejoin="round" stroke-miterlimit="10" width="6.001" height="2"/>
		<polyline fill="none" stroke="#000000" stroke-linecap="round" stroke-linejoin="round" stroke-miterlimit="10" points="
			4.5,14.827 9.427,1.901 13.625,1.503 14.354,4.884 		"/>
		<polyline fill="none" stroke="#000000" stroke-linecap="round" stroke-linejoin="round" stroke-miterlimit="10" points="
			8.743,19.07 21.668,14.143 22.067,9.944 18.686,9.216 		"/>
		<polyline fill="none" stroke="#000000" stroke-linecap="round" stroke-linejoin="round" stroke-miterlimit="10" points="
			5.914,16.242 14.354,4.884 17.846,5.724 18.686,9.216 7.328,17.656 		"/>
	</g>
</g>
<g id="invisible_shape">
	<rect fill="none" width="24" height="24"/>
</g>
</svg>
