<?xml version="1.0" encoding="utf-8"?>
<!-- Generator: Adobe Illustrator 16.0.3, SVG Export Plug-In . SVG Version: 6.00 Build 0)  -->
<!DOCTYPE svg PUBLIC "-//W3C//DTD SVG 1.1//EN" "http://www.w3.org/Graphics/SVG/1.1/DTD/svg11.dtd">
<svg version="1.1" xmlns="http://www.w3.org/2000/svg" xmlns:xlink="http://www.w3.org/1999/xlink" x="0px" y="0px" width="24px"
	 height="24px" viewBox="0 0 24 24" enable-background="new 0 0 24 24" xml:space="preserve">
<g id="Outline_Icons">
	<g>
		<circle fill="none" stroke="#000000" stroke-linejoin="round" stroke-miterlimit="10" cx="17.836" cy="18.243" r="2.5"/>
		<path fill="none" stroke="#000000" stroke-linejoin="round" stroke-miterlimit="10" d="M21.477,6.922
			c1.476-1.181,1.611-3.396,0.262-4.745c-1.342-1.346-3.574-1.226-4.762,0.284L6.097,15.782l-3.891,3.892l2.123,2.122l3.86-3.861
			L21.477,6.922z"/>
		<path fill="none" stroke="#000000" stroke-linejoin="round" stroke-miterlimit="10" d="M0.792,19.674
			c0.391-0.392,1.024-0.392,1.414,0l2.123,2.122c0.39,0.389,0.39,1.024,0,1.415c-0.391,0.39-1.024,0.39-1.415-0.001l-2.122-2.122
			C0.402,20.698,0.402,20.063,0.792,19.674z"/>
		
			<line fill="none" stroke="#000000" stroke-linejoin="round" stroke-miterlimit="10" x1="5.743" y1="16.138" x2="7.865" y2="18.259"/>
		
			<line fill="none" stroke="#000000" stroke-linejoin="round" stroke-miterlimit="10" x1="3.975" y1="17.905" x2="6.097" y2="20.027"/>
	</g>
</g>
<g id="invisible_shape">
	<rect fill="none" width="24" height="24"/>
</g>
</svg>
