<?xml version="1.0" encoding="utf-8"?>
<!-- Generator: Adobe Illustrator 16.0.3, SVG Export Plug-In . SVG Version: 6.00 Build 0)  -->
<!DOCTYPE svg PUBLIC "-//W3C//DTD SVG 1.1//EN" "http://www.w3.org/Graphics/SVG/1.1/DTD/svg11.dtd">
<svg version="1.1" xmlns="http://www.w3.org/2000/svg" xmlns:xlink="http://www.w3.org/1999/xlink" x="0px" y="0px" width="24px"
	 height="24px" viewBox="0 0 24 24" enable-background="new 0 0 24 24" xml:space="preserve">
<g id="Outline_Icons">
	<g>
		<g>
			<path fill="none" stroke="#000000" stroke-linejoin="round" stroke-miterlimit="10" d="M14,23.5c2.07-8.93,2-8.418,2-9
				c0-1.082-0.321-1.722-1.494-3.746c-0.964-1.663-1.207-3.56-0.852-5.276c0,0,0.346-1.685,0.346-1.978c0-1.104-0.896-2-2-2
				s-2,0.896-2,2c0,0.293,0.346,1.978,0.346,1.978c0.355,1.717,0.112,3.613-0.852,5.276C8.321,12.778,8,13.418,8,14.5
				c0,0.582-0.07,0.07,2,9H14z"/>
			<line fill="none" stroke="#000000" stroke-linejoin="round" stroke-miterlimit="10" x1="10.073" y1="9.5" x2="13.927" y2="9.5"/>
			<line fill="none" stroke="#000000" stroke-linejoin="round" stroke-miterlimit="10" x1="10.346" y1="5.5" x2="13.654" y2="5.5"/>
			<line fill="none" stroke="#000000" stroke-linejoin="round" stroke-miterlimit="10" x1="10.484" y1="7.5" x2="13.516" y2="7.5"/>
		</g>
		<path fill="none" stroke="#000000" stroke-linecap="round" stroke-linejoin="round" stroke-miterlimit="10" d="M5.996,11
			L5.431,9.521C5.024,8.383,4.907,7.177,5.062,6.003C5.163,5.594,5.496,4.381,5.496,4c0-1.104-0.896-2-2-2s-2,0.896-2,2
			c0,0.305,0.348,1.988,0.348,1.988C2.08,7.145,2.042,8.355,1.729,9.495l-1.146,3.007c-0.121,0.52-0.11,1.045,0.006,1.519
			L1.996,21.5h3l1-4.5"/>
		
			<line fill="none" stroke="#000000" stroke-linecap="round" stroke-linejoin="round" stroke-miterlimit="10" x1="5.431" y1="9.5" x2="1.729" y2="9.5"/>
		
			<line fill="none" stroke="#000000" stroke-linecap="round" stroke-linejoin="round" stroke-miterlimit="10" x1="5.186" y1="5.5" x2="1.75" y2="5.5"/>
		
			<line fill="none" stroke="#000000" stroke-linecap="round" stroke-linejoin="round" stroke-miterlimit="10" x1="4.996" y1="7.5" x2="1.996" y2="7.5"/>
		<path fill="none" stroke="#000000" stroke-linecap="round" stroke-linejoin="round" stroke-miterlimit="10" d="M18.004,11
			l0.565-1.479c0.406-1.139,0.523-2.345,0.369-3.519C18.837,5.594,18.504,4.381,18.504,4c0-1.104,0.896-2,2-2s2,0.896,2,2
			c0,0.305-0.348,1.988-0.348,1.988c-0.236,1.156-0.198,2.367,0.115,3.507l1.146,3.007c0.121,0.52,0.11,1.045-0.006,1.519
			L22.004,21.5h-3l-1-4.5"/>
		
			<line fill="none" stroke="#000000" stroke-linecap="round" stroke-linejoin="round" stroke-miterlimit="10" x1="18.569" y1="9.5" x2="22.271" y2="9.5"/>
		
			<line fill="none" stroke="#000000" stroke-linecap="round" stroke-linejoin="round" stroke-miterlimit="10" x1="18.814" y1="5.5" x2="22.25" y2="5.5"/>
		
			<line fill="none" stroke="#000000" stroke-linecap="round" stroke-linejoin="round" stroke-miterlimit="10" x1="19.004" y1="7.5" x2="22.004" y2="7.5"/>
	</g>
</g>
<g id="invisible_shape">
	<rect fill="none" width="24" height="24"/>
</g>
</svg>
