<?xml version="1.0" encoding="utf-8"?>
<!-- Generator: Adobe Illustrator 16.0.3, SVG Export Plug-In . SVG Version: 6.00 Build 0)  -->
<!DOCTYPE svg PUBLIC "-//W3C//DTD SVG 1.1//EN" "http://www.w3.org/Graphics/SVG/1.1/DTD/svg11.dtd">
<svg version="1.1" xmlns="http://www.w3.org/2000/svg" xmlns:xlink="http://www.w3.org/1999/xlink" x="0px" y="0px" width="24px"
	 height="24px" viewBox="0 0 24 24" enable-background="new 0 0 24 24" xml:space="preserve">
<g id="Outline_Icons">
	<g>
		<g>
			<path fill="none" stroke="#000000" stroke-linejoin="round" stroke-miterlimit="10" d="M2.5,6.853
				c0-1.539,0.885-2.943,2.272-3.609c4.806-2.304,9.626-2.336,14.464-0.004C20.62,3.906,21.5,5.31,21.5,6.846v10.657
				c0,3.313-2.687,6-6,6h-7c-3.313,0-6-2.687-6-6V6.853z"/>
			<path fill="none" stroke="#000000" stroke-linejoin="round" stroke-miterlimit="10" d="M5.5,9.503h13v1.682
				c0,1.154-0.503,2.252-1.377,3.007c-3.58,3.09-0.133,4.188,0.867,4.949c0.12,0.308,0.08,0.654-0.106,0.927
				s-0.495,0.436-0.825,0.436H6.958c-0.33,0-0.639-0.162-0.825-0.435c-0.187-0.271-0.227-0.618-0.108-0.925
				c1-0.77,4.436-1.869,0.855-4.938c-0.876-0.75-1.38-1.846-1.38-3V9.503z"/>
			<rect x="7.5" y="4.503" fill="none" stroke="#000000" stroke-linejoin="round" stroke-miterlimit="10" width="9" height="3"/>
		</g>
		
			<line fill="none" stroke="#000000" stroke-linecap="round" stroke-linejoin="round" stroke-miterlimit="10" x1="9.5" y1="11.503" x2="9.5" y2="13.503"/>
		
			<line fill="none" stroke="#000000" stroke-linecap="round" stroke-linejoin="round" stroke-miterlimit="10" x1="14.5" y1="11.503" x2="14.5" y2="13.503"/>
		
			<line fill="none" stroke="#000000" stroke-linecap="round" stroke-linejoin="round" stroke-miterlimit="10" x1="10.5" y1="17.503" x2="13.5" y2="17.503"/>
	</g>
</g>
<g id="invisible_shape">
	<rect fill="none" width="24" height="24"/>
</g>
</svg>
