<?xml version="1.0" encoding="utf-8"?>
<!-- Generator: Adobe Illustrator 16.0.3, SVG Export Plug-In . SVG Version: 6.00 Build 0)  -->
<!DOCTYPE svg PUBLIC "-//W3C//DTD SVG 1.1//EN" "http://www.w3.org/Graphics/SVG/1.1/DTD/svg11.dtd">
<svg version="1.1" xmlns="http://www.w3.org/2000/svg" xmlns:xlink="http://www.w3.org/1999/xlink" x="0px" y="0px" width="24px"
	 height="24px" viewBox="0 0 24 24" enable-background="new 0 0 24 24" xml:space="preserve">
<g id="Outline_Icons">
	<g>
		<path fill="none" stroke="#000000" stroke-linejoin="round" stroke-miterlimit="10" d="M16.5,13.003c0,6.352-3.225,10.5-4,10.5
			s-4-4.148-4-10.5s3.175-12.5,4-12.5S16.5,6.651,16.5,13.003z"/>
		<path fill="none" stroke="#000000" stroke-linejoin="round" stroke-miterlimit="10" d="M14.5,15.003c0,1.656-1,3-2,3s-2-1.344-2-3
			c0-1.657,1-3,2-3S14.5,13.346,14.5,15.003z"/>
		
			<line fill="none" stroke="#000000" stroke-linejoin="round" stroke-miterlimit="10" x1="8.703" y1="15.497" x2="6.541" y2="17.659"/>
		
			<line fill="none" stroke="#000000" stroke-linejoin="round" stroke-miterlimit="10" x1="17.854" y1="6.346" x2="15.994" y2="8.206"/>
		<path fill="none" stroke="#000000" stroke-linejoin="round" stroke-miterlimit="10" d="M23.511,3.518l-2.829-2.828l-2.829,2.828
			c-0.781,0.781-0.781,2.047,0,2.828c0.781,0.781,2.048,0.781,2.829,0L23.511,3.518z"/>
		<path fill="none" stroke="#000000" stroke-linejoin="round" stroke-miterlimit="10" d="M0.884,20.488l2.828,2.828l2.829-2.828
			c0.781-0.781,0.781-2.048,0-2.829c-0.781-0.78-2.047-0.78-2.829,0L0.884,20.488z"/>
	</g>
</g>
<g id="invisible_shape">
	<rect fill="none" width="24" height="24"/>
</g>
</svg>
