<?xml version="1.0" encoding="utf-8"?>
<!-- Generator: Adobe Illustrator 16.0.3, SVG Export Plug-In . SVG Version: 6.00 Build 0)  -->
<!DOCTYPE svg PUBLIC "-//W3C//DTD SVG 1.1//EN" "http://www.w3.org/Graphics/SVG/1.1/DTD/svg11.dtd">
<svg version="1.1" xmlns="http://www.w3.org/2000/svg" xmlns:xlink="http://www.w3.org/1999/xlink" x="0px" y="0px" width="24px"
	 height="24px" viewBox="0 0 24 24" enable-background="new 0 0 24 24" xml:space="preserve">
<g id="Outline_Icons">
	<g>
		<g>
			
				<line fill="none" stroke="#000000" stroke-linejoin="round" stroke-miterlimit="10" x1="13.667" y1="8.215" x2="8.011" y2="13.872"/>
			
				<line fill="none" stroke="#000000" stroke-linejoin="round" stroke-miterlimit="10" x1="15.788" y1="10.336" x2="10.132" y2="15.993"/>
		</g>
		<path fill="none" stroke="#000000" stroke-linejoin="round" stroke-miterlimit="10" d="M1.646,15.993
			c-0.585-0.586-0.586-1.535,0-2.121s1.536-0.586,2.121,0l6.364,6.363c0.586,0.586,0.587,1.535,0,2.122
			c-0.586,0.586-1.535,0.585-2.12-0.001L1.646,15.993z"/>
		<path fill="none" stroke="#000000" stroke-linejoin="round" stroke-miterlimit="10" d="M2.353,12.458
			c-0.585-0.586-0.585-1.535,0-2.121C2.94,9.751,3.89,9.751,4.475,10.336l9.192,9.192c0.587,0.586,0.587,1.535,0.001,2.121
			s-1.536,0.586-2.123,0.001L2.353,12.458z"/>
		<path fill="none" stroke="#000000" stroke-linejoin="round" stroke-miterlimit="10" d="M10.131,4.68
			c-0.586-0.586-0.585-1.536,0-2.122c0.587-0.586,1.537-0.586,2.122,0l9.191,9.193c0.586,0.586,0.587,1.535,0,2.121
			c-0.584,0.586-1.535,0.586-2.121,0L10.131,4.68z"/>
		<path fill="none" stroke="#000000" stroke-linejoin="round" stroke-miterlimit="10" d="M0.939,19.528
			c-0.586-0.585-0.586-1.535,0-2.121c0.587-0.586,1.537-0.586,2.121,0l3.537,3.535c0.585,0.586,0.585,1.535,0,2.121
			c-0.587,0.586-1.538,0.586-2.122,0.001L0.939,19.528z"/>
		<path fill="none" stroke="#000000" stroke-linejoin="round" stroke-miterlimit="10" d="M13.668,3.972
			c-0.586-0.586-0.586-1.535-0.001-2.121c0.587-0.586,1.535-0.585,2.122,0l6.362,6.364c0.586,0.586,0.586,1.536,0,2.122
			c-0.585,0.586-1.535,0.586-2.121,0L13.668,3.972z"/>
		<path fill="none" stroke="#000000" stroke-linejoin="round" stroke-miterlimit="10" d="M17.204,3.265
			c-0.586-0.586-0.586-1.535,0-2.121c0.586-0.586,1.534-0.585,2.12,0L22.86,4.68c0.585,0.585,0.585,1.536,0,2.121
			c-0.584,0.585-1.536,0.585-2.122,0L17.204,3.265z"/>
	</g>
</g>
<g id="invisible_shape">
	<rect fill="none" width="24" height="24"/>
</g>
</svg>
