<?xml version="1.0" encoding="utf-8"?>
<!-- Generator: Adobe Illustrator 16.0.3, SVG Export Plug-In . SVG Version: 6.00 Build 0)  -->
<!DOCTYPE svg PUBLIC "-//W3C//DTD SVG 1.1//EN" "http://www.w3.org/Graphics/SVG/1.1/DTD/svg11.dtd">
<svg version="1.1" xmlns="http://www.w3.org/2000/svg" xmlns:xlink="http://www.w3.org/1999/xlink" x="0px" y="0px" width="24px"
	 height="24px" viewBox="0 0 24 24" enable-background="new 0 0 24 24" xml:space="preserve">
<g id="Outline_Icons">
	<g>
		<g>
			<path fill="none" stroke="#000000" stroke-linejoin="round" stroke-miterlimit="10" d="M7.926,11.366
				c0.361,0.115,0.561,0.503,0.444,0.864L5.219,22.05c-0.232,0.723-1.006,1.121-1.729,0.889l-1.964-0.63
				c-0.723-0.232-1.121-1.007-0.889-1.729l3.151-9.819c0.115-0.361,0.503-0.561,0.864-0.444L7.926,11.366z"/>
		</g>
		<g>
			<path fill="none" stroke="#000000" stroke-linejoin="round" stroke-miterlimit="10" d="M15.073,11.366
				c-0.361,0.115-0.561,0.503-0.444,0.864l3.151,9.819c0.232,0.723,1.006,1.121,1.729,0.889l1.964-0.63
				c0.723-0.232,1.121-1.007,0.889-1.729L19.21,10.76c-0.115-0.361-0.503-0.561-0.864-0.444L15.073,11.366z"/>
		</g>
		<circle fill="none" stroke="#000000" stroke-linejoin="round" stroke-miterlimit="10" cx="11.5" cy="5.003" r="2"/>
		<path fill="none" stroke="#000000" stroke-linejoin="round" stroke-miterlimit="10" d="M17.673,10.532L16,5.003
			c0-2.485-2.014-4.5-4.5-4.5H11.5c-2.486,0-4.5,2.015-4.5,4.5l-1.673,5.529"/>
		<path fill="none" stroke="#000000" stroke-linejoin="round" stroke-miterlimit="10" d="M7.375,11.188l1.02-2.928
			c1.735,1.655,4.469,1.657,6.209,0l1.021,2.93"/>
	</g>
</g>
<g id="invisible_shape">
	<rect fill="none" width="24" height="24"/>
</g>
</svg>
