<?xml version="1.0" encoding="utf-8"?>
<!-- Generator: Adobe Illustrator 16.0.3, SVG Export Plug-In . SVG Version: 6.00 Build 0)  -->
<!DOCTYPE svg PUBLIC "-//W3C//DTD SVG 1.1//EN" "http://www.w3.org/Graphics/SVG/1.1/DTD/svg11.dtd">
<svg version="1.1" xmlns="http://www.w3.org/2000/svg" xmlns:xlink="http://www.w3.org/1999/xlink" x="0px" y="0px" width="24px"
	 height="24px" viewBox="0 0 24 24" enable-background="new 0 0 24 24" xml:space="preserve">
<g id="Outline_Icons">
	<g>
		<path fill="none" stroke="#000000" stroke-linejoin="round" stroke-miterlimit="10" d="M23.5,23.5v-2
			c-2.451,0.521-4.496-2-4.496-2H19c0,0-1.165,2-3.5,2c-2.436,0-3.5-2-3.5-2s-1.064,2-3.5,2c-2.335,0-3.5-2-3.5-2H4.996
			c0,0-2.045,2.521-4.496,2v2H23.5z"/>
		<polyline fill="none" stroke="#000000" stroke-linejoin="round" stroke-miterlimit="10" points="3.815,20.591 1.5,17.503 
			22.5,17.503 20.186,20.591 		"/>
		<path fill="none" stroke="#000000" stroke-linejoin="round" stroke-miterlimit="10" d="M22.5,17.503h-21
			c0-5.458,3.521-8.916,5-8.916l4,4.916H19C21.5,13.503,22.5,15.045,22.5,17.503z"/>
		<polyline fill="none" stroke="#000000" stroke-linecap="round" stroke-linejoin="round" stroke-miterlimit="10" points="14,9.503 
			11.375,9.503 9.083,11.762 		"/>
		
			<line fill="none" stroke="#000000" stroke-linecap="round" stroke-linejoin="round" stroke-miterlimit="10" x1="1.873" y1="14.503" x2="5" y2="14.503"/>
		
			<line fill="none" stroke="#000000" stroke-linecap="round" stroke-linejoin="round" stroke-miterlimit="10" x1="12.187" y1="13.503" x2="16.234" y2="17.503"/>
	</g>
</g>
<g id="invisible_shape">
	<rect fill="none" width="24" height="24"/>
</g>
</svg>
