<?xml version="1.0" encoding="utf-8"?>
<!-- Generator: Adobe Illustrator 16.0.3, SVG Export Plug-In . SVG Version: 6.00 Build 0)  -->
<!DOCTYPE svg PUBLIC "-//W3C//DTD SVG 1.1//EN" "http://www.w3.org/Graphics/SVG/1.1/DTD/svg11.dtd">
<svg version="1.1" xmlns="http://www.w3.org/2000/svg" xmlns:xlink="http://www.w3.org/1999/xlink" x="0px" y="0px" width="24px"
	 height="24px" viewBox="0 0 24 24" enable-background="new 0 0 24 24" xml:space="preserve">
<g id="Outline_Icons">
	<g>
		<path fill="none" stroke="#000000" stroke-linecap="round" stroke-linejoin="round" stroke-miterlimit="10" d="M12,23.5
			c1.381,0,2.5-1.119,2.5-2.5v-1.5c0-0.553,0.448-1,1-1c0,1.557,1.078,3,3.5,3c2.485,0,4.5-2.015,4.5-4.5c-2.761,0-5-2.238-5-5V7
			c0-3.59-2.91-6.5-6.5-6.5S5.5,3.41,5.5,7v5c0,2.762-2.239,5-5,5c0,2.485,2.015,4.5,4.5,4.5c2.422,0,3.5-1.443,3.5-3
			c0.552,0,1,0.447,1,1V21C9.5,22.381,10.619,23.5,12,23.5"/>
		<path fill="none" stroke="#000000" stroke-linecap="round" stroke-linejoin="round" stroke-miterlimit="10" d="M16.5,9
			c0,3.59-2.015,6.5-4.5,6.5S7.5,12.59,7.5,9s1-6.5,4.5-6.5S16.5,5.41,16.5,9z"/>
		
			<line fill="none" stroke="#000000" stroke-linecap="round" stroke-linejoin="round" stroke-miterlimit="10" x1="8.384" y1="4.5" x2="15.616" y2="4.5"/>
		
			<line fill="none" stroke="#000000" stroke-linecap="round" stroke-linejoin="round" stroke-miterlimit="10" x1="7.56" y1="7.5" x2="16.433" y2="7.5"/>
		
			<line fill="none" stroke="#000000" stroke-linecap="round" stroke-linejoin="round" stroke-miterlimit="10" x1="7.633" y1="10.5" x2="16.379" y2="10.5"/>
		
			<line fill="none" stroke="#000000" stroke-linecap="round" stroke-linejoin="round" stroke-miterlimit="10" x1="8.753" y1="13.5" x2="15.247" y2="13.5"/>
	</g>
</g>
<g id="invisible_shape">
	<rect fill="none" width="24" height="24"/>
</g>
</svg>
