<?xml version="1.0" encoding="utf-8"?>
<!-- Generator: Adobe Illustrator 16.0.3, SVG Export Plug-In . SVG Version: 6.00 Build 0)  -->
<!DOCTYPE svg PUBLIC "-//W3C//DTD SVG 1.1//EN" "http://www.w3.org/Graphics/SVG/1.1/DTD/svg11.dtd">
<svg version="1.1" xmlns="http://www.w3.org/2000/svg" xmlns:xlink="http://www.w3.org/1999/xlink" x="0px" y="0px" width="24px"
	 height="24px" viewBox="0 0 24 24" enable-background="new 0 0 24 24" xml:space="preserve">
<g id="Outline_Icons">
	<g>
		<path fill="none" stroke="#000000" stroke-linejoin="round" stroke-miterlimit="10" d="M16.5,5.503h-10v-1c0-1.104,0.896-2,2-2h6
			c1.104,0,2,0.896,2,2V5.503z"/>
		<line fill="none" stroke="#000000" stroke-linejoin="round" stroke-miterlimit="10" x1="11.5" y1="2.503" x2="11.5" y2="0.003"/>
		<path fill="none" stroke="#000000" stroke-linejoin="round" stroke-miterlimit="10" d="M6.5,5.503v2.5l2.438,2.531L6.5,13.003v8.5
			c0,1.104,0.896,2,2,2h6c1.104,0,2-0.896,2-2v-8.5L14,10.565l2.5-2.562v-2.5H6.5z"/>
		<polyline fill="none" stroke="#000000" stroke-linecap="round" stroke-linejoin="round" stroke-miterlimit="10" points="
			12,13.503 10,16.503 13,16.503 11,20.003 		"/>
	</g>
</g>
<g id="invisible_shape">
	<rect fill="none" width="24" height="24"/>
</g>
</svg>
