<?xml version="1.0" encoding="utf-8"?>
<!-- Generator: Adobe Illustrator 16.0.3, SVG Export Plug-In . SVG Version: 6.00 Build 0)  -->
<!DOCTYPE svg PUBLIC "-//W3C//DTD SVG 1.1//EN" "http://www.w3.org/Graphics/SVG/1.1/DTD/svg11.dtd">
<svg version="1.1" xmlns="http://www.w3.org/2000/svg" xmlns:xlink="http://www.w3.org/1999/xlink" x="0px" y="0px" width="24px"
	 height="24px" viewBox="0 0 24 24" enable-background="new 0 0 24 24" xml:space="preserve">
<g id="Outline_Icons">
	<g>
		<path fill="none" stroke="#000000" stroke-linejoin="round" stroke-miterlimit="10" d="M2.893,14.023L2.186,14.73
			c-1.953,1.952-1.953,5.118,0,7.071s5.118,1.953,7.071,0l0.707-0.707"/>
		
			<line fill="none" stroke="#000000" stroke-linejoin="round" stroke-miterlimit="10" x1="11.378" y1="5.538" x2="5.722" y2="11.196"/>
		<path fill="none" stroke="#000000" stroke-linejoin="round" stroke-miterlimit="10" d="M21.28,9.783l0.705-0.709
			c1.953-1.952,1.953-5.118,0-7.071s-5.118-1.953-7.071,0L14.207,2.71"/>
		
			<line fill="none" stroke="#000000" stroke-linejoin="round" stroke-miterlimit="10" x1="12.792" y1="18.267" x2="18.448" y2="12.607"/>
		
			<rect x="18.011" y="8.841" transform="matrix(0.7074 0.7069 -0.7069 0.7074 13.3733 -10.6182)" fill="none" stroke="#000000" stroke-linecap="round" stroke-linejoin="round" stroke-miterlimit="10" width="2.999" height="4.001"/>
		
			<rect x="11.646" y="2.478" transform="matrix(0.7071 0.7071 -0.7071 0.7071 7.0165 -7.9842)" fill="none" stroke="#000000" stroke-linecap="round" stroke-linejoin="round" stroke-miterlimit="10" width="3" height="4"/>
		
			<line fill="none" stroke="#000000" stroke-linecap="round" stroke-linejoin="round" stroke-miterlimit="10" x1="14.207" y1="5.538" x2="18.448" y2="9.783"/>
		
			<rect x="9.525" y="17.327" transform="matrix(0.7072 0.707 -0.707 0.7072 16.893 -2.1357)" fill="none" stroke="#000000" stroke-linecap="round" stroke-linejoin="round" stroke-miterlimit="10" width="3" height="4"/>
		
			<rect x="3.16" y="10.964" transform="matrix(0.7069 0.7073 -0.7073 0.7069 10.5344 0.5027)" fill="none" stroke="#000000" stroke-linecap="round" stroke-linejoin="round" stroke-miterlimit="10" width="3" height="4"/>
		
			<line fill="none" stroke="#000000" stroke-linecap="round" stroke-linejoin="round" stroke-miterlimit="10" x1="5.722" y1="14.023" x2="9.964" y2="18.267"/>
	</g>
</g>
<g id="invisible_shape">
	<rect fill="none" width="24" height="24"/>
</g>
</svg>
