<?xml version="1.0" encoding="utf-8"?>
<!-- Generator: Adobe Illustrator 16.0.3, SVG Export Plug-In . SVG Version: 6.00 Build 0)  -->
<!DOCTYPE svg PUBLIC "-//W3C//DTD SVG 1.1//EN" "http://www.w3.org/Graphics/SVG/1.1/DTD/svg11.dtd">
<svg version="1.1" xmlns="http://www.w3.org/2000/svg" xmlns:xlink="http://www.w3.org/1999/xlink" x="0px" y="0px" width="24px"
	 height="24px" viewBox="0 0 24 24" enable-background="new 0 0 24 24" xml:space="preserve">
<g id="Outline_Icons">
	<g>
		<path fill="none" stroke="#000000" stroke-linejoin="round" stroke-miterlimit="10" d="M5.162,3.499
			C5.119,2.72,5.4,1.957,5.936,1.391C6.473,0.824,7.219,0.503,8,0.503c0.78,0,1.526,0.321,2.062,0.888
			c0.537,0.566,0.817,1.327,0.775,2.107L10,17.085l1,6.418H5l1-6.5L5.162,3.499z"/>
		<path fill="none" stroke="#000000" stroke-linejoin="round" stroke-miterlimit="10" d="M13.162,3.499
			C13.119,2.72,13.4,1.957,13.936,1.391C14.473,0.824,15.219,0.503,16,0.503c0.78,0,1.526,0.321,2.062,0.888
			c0.537,0.566,0.817,1.327,0.775,2.107L18,17.085l1,6.418h-6l1-6.5L13.162,3.499z"/>
		<rect x="20.5" y="0.503" fill="none" stroke="#000000" stroke-linejoin="round" stroke-miterlimit="10" width="2" height="5"/>
		
			<line fill="none" stroke="#000000" stroke-linecap="round" stroke-linejoin="round" stroke-miterlimit="10" x1="21.5" y1="5.503" x2="21.5" y2="23.503"/>
		
			<line fill="none" stroke="#000000" stroke-linecap="round" stroke-linejoin="round" stroke-miterlimit="10" x1="20" y1="20.503" x2="23" y2="20.503"/>
		<rect x="1.5" y="0.503" fill="none" stroke="#000000" stroke-linejoin="round" stroke-miterlimit="10" width="2" height="5"/>
		
			<line fill="none" stroke="#000000" stroke-linecap="round" stroke-linejoin="round" stroke-miterlimit="10" x1="2.5" y1="5.503" x2="2.5" y2="23.507"/>
		
			<line fill="none" stroke="#000000" stroke-linecap="round" stroke-linejoin="round" stroke-miterlimit="10" x1="1" y1="20.503" x2="4" y2="20.503"/>
		
			<line fill="none" stroke="#000000" stroke-linecap="round" stroke-linejoin="round" stroke-miterlimit="10" x1="5" y1="10.5" x2="11" y2="10.5"/>
		
			<line fill="none" stroke="#000000" stroke-linecap="round" stroke-linejoin="round" stroke-miterlimit="10" x1="5" y1="16.5" x2="11" y2="16.5"/>
		
			<line fill="none" stroke="#000000" stroke-linecap="round" stroke-linejoin="round" stroke-miterlimit="10" x1="13" y1="10.5" x2="19" y2="10.5"/>
		
			<line fill="none" stroke="#000000" stroke-linecap="round" stroke-linejoin="round" stroke-miterlimit="10" x1="13" y1="16.5" x2="19" y2="16.5"/>
	</g>
</g>
<g id="invisible_shape">
	<rect fill="none" width="24" height="24"/>
</g>
</svg>
