<?xml version="1.0" encoding="utf-8"?>
<!-- Generator: Adobe Illustrator 16.0.3, SVG Export Plug-In . SVG Version: 6.00 Build 0)  -->
<!DOCTYPE svg PUBLIC "-//W3C//DTD SVG 1.1//EN" "http://www.w3.org/Graphics/SVG/1.1/DTD/svg11.dtd">
<svg version="1.1" xmlns="http://www.w3.org/2000/svg" xmlns:xlink="http://www.w3.org/1999/xlink" x="0px" y="0px" width="24px"
	 height="24px" viewBox="0 0 24 24" enable-background="new 0 0 24 24" xml:space="preserve">
<g id="Outline_Icons">
	<g>
		<path fill="none" stroke="#000000" stroke-linecap="round" stroke-linejoin="round" stroke-miterlimit="10" d="M15.496,1.5h4.5
			c1.657,0,3,1.344,3,3c0,1.657-1.343,3-3,3h-0.5c-0.817,0-1.544-0.107-2,0.5l-4.62,8.736"/>
		<path fill="none" stroke="#000000" stroke-linecap="round" stroke-linejoin="round" stroke-miterlimit="10" d="M16.746,21.5
			c0.967,0,1.75-0.783,1.75-1.75c0-0.883-0.652-1.613-1.503-1.732l-3.447-1.058c-1.166-0.212-2.05-1.233-2.05-2.46v-2h-5.5
			c-2.485,0-4.5,2.015-4.5,4.5s2.015,4.5,4.5,4.5H16.746z"/>
		
			<circle fill="none" stroke="#000000" stroke-linecap="round" stroke-linejoin="round" stroke-miterlimit="10" cx="7.496" cy="17" r="1.5"/>
		
			<line fill="none" stroke="#000000" stroke-linecap="round" stroke-linejoin="round" stroke-miterlimit="10" x1="8.557" y1="18.061" x2="9.996" y2="19.5"/>
		
			<line fill="none" stroke="#000000" stroke-linecap="round" stroke-linejoin="round" stroke-miterlimit="10" x1="8.496" y1="19.5" x2="10.996" y2="19.5"/>
		<path fill="none" stroke="#000000" stroke-linecap="round" stroke-linejoin="round" stroke-miterlimit="10" d="M1.996,4.5
			c-0.828,0-1.5,0.672-1.5,1.5s0.672,1.5,1.5,1.5h5.25c0.86,0,1.039-1.223,0.214-1.469C7.133,5.934,2.338,4.5,1.996,4.5z"/>
		
			<line fill="none" stroke="#000000" stroke-linecap="round" stroke-linejoin="round" stroke-miterlimit="10" x1="3.996" y1="7.5" x2="8.496" y2="12.5"/>
		
			<line fill="none" stroke="#000000" stroke-linecap="round" stroke-linejoin="round" stroke-miterlimit="10" x1="5.496" y1="21.5" x2="3.996" y2="23"/>
		
			<line fill="none" stroke="#000000" stroke-linecap="round" stroke-linejoin="round" stroke-miterlimit="10" x1="17.996" y1="21" x2="19.996" y2="23"/>
	</g>
</g>
<g id="invisible_shape">
	<rect fill="none" width="24" height="24"/>
</g>
</svg>
