<?xml version="1.0" encoding="utf-8"?>
<!-- Generator: Adobe Illustrator 16.0.3, SVG Export Plug-In . SVG Version: 6.00 Build 0)  -->
<!DOCTYPE svg PUBLIC "-//W3C//DTD SVG 1.1//EN" "http://www.w3.org/Graphics/SVG/1.1/DTD/svg11.dtd">
<svg version="1.1" xmlns="http://www.w3.org/2000/svg" xmlns:xlink="http://www.w3.org/1999/xlink" x="0px" y="0px" width="24px"
	 height="24px" viewBox="0 0 24 24" enable-background="new 0 0 24 24" xml:space="preserve">
<g id="Outline_Icons">
	<g>
		<path fill="none" stroke="#000000" stroke-linejoin="round" stroke-miterlimit="10" d="M14.154,14.863
			c-3.097,0.322-5.875,1.218-5.875,1.218s0.894-2.766,1.215-5.851"/>
		
			<line fill="none" stroke="#000000" stroke-linecap="round" stroke-linejoin="round" stroke-miterlimit="10" x1="8.279" y1="16.081" x2="5.098" y2="19.264"/>
		
			<ellipse transform="matrix(0.7071 0.7071 -0.7071 0.7071 10.4272 -9.2759)" fill="none" stroke="#000000" stroke-linejoin="round" stroke-miterlimit="10" cx="16.411" cy="7.949" rx="6.5" ry="7.501"/>
		
			<line fill="none" stroke="#000000" stroke-linejoin="round" stroke-miterlimit="10" x1="14.348" y1="1.645" x2="22.716" y2="10.012"/>
		
			<line fill="none" stroke="#000000" stroke-linejoin="round" stroke-miterlimit="10" x1="11.814" y1="3.353" x2="21.007" y2="12.545"/>
		
			<line fill="none" stroke="#000000" stroke-linejoin="round" stroke-miterlimit="10" x1="10.032" y1="5.812" x2="18.546" y2="14.328"/>
		
			<line fill="none" stroke="#000000" stroke-linejoin="round" stroke-miterlimit="10" x1="18.995" y1="1.122" x2="9.592" y2="10.567"/>
		
			<line fill="none" stroke="#000000" stroke-linejoin="round" stroke-miterlimit="10" x1="21.714" y1="2.646" x2="11.107" y2="13.253"/>
		
			<line fill="none" stroke="#000000" stroke-linejoin="round" stroke-miterlimit="10" x1="23.187" y1="5.416" x2="13.84" y2="14.779"/>
		<circle fill="none" stroke="#000000" stroke-linejoin="round" stroke-miterlimit="10" cx="4.375" cy="3.985" r="2.5"/>
		<path fill="none" stroke="#000000" stroke-linecap="round" stroke-linejoin="round" stroke-miterlimit="10" d="M2.693,23.224
			c-0.388,0.39-1.027,0.39-1.415,0c-0.391-0.391-0.391-1.023,0-1.414l3.182-3.183l1.415,1.415L2.693,23.224z"/>
	</g>
</g>
<g id="invisible_shape">
	<rect fill="none" width="24" height="24"/>
</g>
</svg>
