<?xml version="1.0" encoding="utf-8"?>
<!-- Generator: Adobe Illustrator 19.2.1, SVG Export Plug-In . SVG Version: 6.00 Build 0)  -->
<svg version="1.1" xmlns="http://www.w3.org/2000/svg" xmlns:xlink="http://www.w3.org/1999/xlink" x="0px" y="0px" width="24px"
	 height="24px" viewBox="0 0 24 24" enable-background="new 0 0 24 24" xml:space="preserve">
<g id="Filled_Icons_1_">
	<g id="Filled_Icons">
		<path d="M21.5,5c-2,0-2.405,1.734-2.405,1.957c0,0.277-0.225,0.5-0.5,0.5c-0.276,0-0.5-0.223-0.5-0.5
			c0-0.644,0.467-1.817,1.774-2.461c-0.191-0.394-0.547-0.664-0.848-0.831c-1.052-0.582-2.592-0.634-3.831-0.13
			c-0.255,0.104-0.548-0.019-0.652-0.275c-0.103-0.256,0.019-0.548,0.274-0.652c0.487-0.198,1.015-0.317,1.548-0.373
			C15.242,1.146,13.679,0.5,12,0.5S8.758,1.146,7.641,2.236c0.533,0.056,1.061,0.174,1.548,0.373
			c0.255,0.104,0.378,0.396,0.274,0.652C9.358,3.516,9.065,3.639,8.811,3.535c-1.239-0.504-2.779-0.453-3.831,0.13
			C4.679,3.832,4.322,4.102,4.132,4.496C5.438,5.14,5.905,6.313,5.905,6.957c0,0.277-0.224,0.5-0.5,0.5c-0.275,0-0.5-0.223-0.5-0.5
			C4.905,6.734,4.5,5,2.5,5C1,5,0.001,6.245,0.001,7.523C0.009,8.449,0.499,9.261,1.316,9.7c0.647,0.346,1.399,0.389,2.064,0.138
			c0.374,0.593,0.997,1.051,1.83,1.341c1.334,0.463,3.067,0.419,4.18-0.068c0.547,0.613,0.603,1.024,0.608,2.39
			c-0.405,0.002-0.811,0.1-1.183,0.299C7.992,14.242,7.499,15.064,7.499,16c0,0.914,0.476,1.726,1.272,2.175
			c0.378,0.214,0.79,0.322,1.203,0.325c-0.225,2.024-1.87,2.381-4.289,2.67c-1.728,0.207-3.686,0.441-3.686,2.329
			c0,0.275,0.225,0.5,0.5,0.5h19.002c0.275,0,0.5-0.225,0.5-0.5c0-1.888-1.958-2.122-3.686-2.329
			c-2.419-0.29-4.064-0.646-4.289-2.67c0.413-0.003,0.825-0.111,1.203-0.325c0.796-0.449,1.271-1.262,1.271-2.175
			c0-0.936-0.493-1.758-1.317-2.201c-0.371-0.199-0.777-0.297-1.183-0.299c0.006-1.366,0.061-1.777,0.608-2.39
			c1.112,0.487,2.846,0.532,4.18,0.068c0.833-0.29,1.456-0.748,1.83-1.341c0.665,0.251,1.417,0.208,2.064-0.138
			c0.817-0.439,1.308-1.251,1.315-2.177C23.999,6.245,23,5,21.5,5z"/>
	</g>
	<g id="New_icons">
	</g>
</g>
<g id="Frames-24px">
	<rect fill="none" width="24" height="24"/>
</g>
</svg>
