<?xml version="1.0" encoding="utf-8"?>
<!-- Generator: Adobe Illustrator 19.2.1, SVG Export Plug-In . SVG Version: 6.00 Build 0)  -->
<svg version="1.1" xmlns="http://www.w3.org/2000/svg" xmlns:xlink="http://www.w3.org/1999/xlink" x="0px" y="0px" width="24px"
	 height="24px" viewBox="0 0 24 24" enable-background="new 0 0 24 24" xml:space="preserve">
<g id="Filled_Icons_1_">
	<g id="Filled_Icons">
		<g>
			<polygon points="10.214,17 13.785,17 13.989,12 10.01,12 			"/>
			<polygon points="14.03,11 14.234,6 9.766,6 9.97,11 			"/>
			<path d="M13.745,18h-3.489l0.244,5.979c0,0.007-0.003,0.013-0.003,0.021h3.008c0-0.008-0.003-0.014-0.003-0.021L13.745,18z"/>
			<path d="M2,0.5C2,0.775,2.224,1,2.5,1h1.042l0.348,4h4.835L8.52,0H2.5C2.224,0,2,0.223,2,0.5z"/>
			<polygon points="9.214,17 9.01,12 4.498,12 4.933,17 			"/>
			<path d="M9.255,18H5.02l0.482,5.542C5.524,23.801,5.741,24,6,24h3.5L9.255,18z"/>
			<polygon points="9.725,5 14.275,5 14.479,0 9.521,0 			"/>
			<polygon points="8.969,11 8.765,6 3.976,6 4.411,11 			"/>
			<polygon points="14.99,12 14.786,17 19.067,17 19.502,12 			"/>
			<path d="M14.745,18L14.5,24H18c0.259,0,0.476-0.199,0.498-0.458L18.98,18H14.745z"/>
			<polygon points="15.235,6 15.031,11 19.589,11 20.024,6 			"/>
			<path d="M15.276,5h4.835l0.348-4H21.5C21.776,1,22,0.775,22,0.5C22,0.223,21.776,0,21.5,0h-6.02L15.276,5z"/>
		</g>
	</g>
	<g id="New_icons">
	</g>
</g>
<g id="Frames-24px">
	<rect fill="none" width="24" height="24"/>
</g>
</svg>
