<?xml version="1.0" encoding="utf-8"?>
<!-- Generator: Adobe Illustrator 19.2.1, SVG Export Plug-In . SVG Version: 6.00 Build 0)  -->
<svg version="1.1" xmlns="http://www.w3.org/2000/svg" xmlns:xlink="http://www.w3.org/1999/xlink" x="0px" y="0px" width="24px"
	 height="24px" viewBox="0 0 24 24" enable-background="new 0 0 24 24" xml:space="preserve">
<g id="Filled_Icons_1_">
	<g id="Filled_Icons">
		<g>
			<path d="M16.5,10.035c0,0.274-0.225,0.5-0.5,0.5c-0.276,0-0.5-0.226-0.5-0.5c0-0.585-1.019-1.226-2.5-1.432v8.932
				c0,3.031,2.467,5.5,5.5,5.5c3.032,0,5.5-2.469,5.5-5.5c0-1.204-0.393-2.314-1.051-3.22l-2.99-6.978
				c-0.025-0.059-0.061-0.112-0.105-0.157l-1.425-1.423l-1.462-3.838c-0.025-0.066-0.065-0.126-0.113-0.176
				c-0.953-0.953-2.755-0.953-3.707,0C13.053,1.837,13,1.964,13,2.096v5.497C15.051,7.832,16.5,8.801,16.5,10.035z M18.5,22.035
				c-2.481,0-4.5-2.019-4.5-4.5c0-2.483,2.019-4.5,4.5-4.5c2.48,0,4.5,2.017,4.5,4.5C23,20.016,20.98,22.035,18.5,22.035z"/>
			<path d="M0,17.535c0,3.031,2.467,5.5,5.5,5.5c3.032,0,5.5-2.469,5.5-5.5V8.604C9.519,8.81,8.5,9.45,8.5,10.035
				c0,0.274-0.225,0.5-0.5,0.5c-0.276,0-0.5-0.226-0.5-0.5c0-1.234,1.448-2.203,3.5-2.442V2.035c0-0.133-0.053-0.261-0.146-0.355
				c-0.953-0.953-2.755-0.953-3.707,0c-0.051,0.05-0.09,0.11-0.115,0.178L5.569,5.757L4.147,7.18
				C4.102,7.225,4.064,7.278,4.04,7.337l-2.99,6.978C0.393,15.221,0,16.331,0,17.535z M5.5,22.035c-2.481,0-4.5-2.019-4.5-4.5
				c0-2.483,2.019-4.5,4.5-4.5c2.481,0,4.5,2.017,4.5,4.5C10,20.016,7.981,22.035,5.5,22.035z"/>
			<path d="M5.5,15.035c0.275,0,0.5-0.226,0.5-0.5c0-0.277-0.225-0.5-0.5-0.5c-1.931,0-3.5,1.568-3.5,3.5c0,0.274,0.224,0.5,0.5,0.5
				c0.275,0,0.5-0.226,0.5-0.5C3,16.155,4.121,15.035,5.5,15.035z"/>
			<path d="M18.5,15.035c0.275,0,0.5-0.226,0.5-0.5c0-0.277-0.225-0.5-0.5-0.5c-1.931,0-3.5,1.568-3.5,3.5
				c0,0.274,0.224,0.5,0.5,0.5c0.275,0,0.5-0.226,0.5-0.5C16,16.155,17.121,15.035,18.5,15.035z"/>
		</g>
	</g>
	<g id="New_icons">
	</g>
</g>
<g id="Frames-24px">
	<rect fill="none" width="24" height="24"/>
</g>
</svg>
