<?xml version="1.0" encoding="utf-8"?>
<!-- Generator: Adobe Illustrator 19.2.1, SVG Export Plug-In . SVG Version: 6.00 Build 0)  -->
<svg version="1.1" xmlns="http://www.w3.org/2000/svg" xmlns:xlink="http://www.w3.org/1999/xlink" x="0px" y="0px" width="24px"
	 height="24px" viewBox="0 0 24 24" enable-background="new 0 0 24 24" xml:space="preserve">
<g id="Filled_Icons_1_">
	<g id="Filled_Icons">
		<g>
			<path d="M17.938,0.257C17.849,0.099,17.682,0,17.5,0h-8c-0.23,0-0.43,0.156-0.485,0.378l-3,12
				c-0.038,0.149-0.004,0.307,0.091,0.428C6.201,12.929,6.346,13,6.501,13h3.346L7.018,23.368c-0.064,0.236,0.052,0.485,0.275,0.587
				c0.217,0.099,0.483,0.03,0.623-0.178l10-15c0.102-0.154,0.111-0.351,0.024-0.514C17.854,8.102,17.684,8,17.5,8h-4.099
				l4.522-7.235C18.02,0.61,18.026,0.415,17.938,0.257z"/>
		</g>
	</g>
	<g id="New_icons">
	</g>
</g>
<g id="Frames-24px">
	<rect fill="none" width="24" height="24"/>
</g>
</svg>
