<?xml version="1.0" encoding="utf-8"?>
<!-- Generator: Adobe Illustrator 19.2.1, SVG Export Plug-In . SVG Version: 6.00 Build 0)  -->
<svg version="1.1" xmlns="http://www.w3.org/2000/svg" xmlns:xlink="http://www.w3.org/1999/xlink" x="0px" y="0px" width="24px"
	 height="24px" viewBox="0 0 24 24" enable-background="new 0 0 24 24" xml:space="preserve">
<g id="Filled_Icons_1_">
	<g id="Filled_Icons">
		<g>
			<path d="M19.5,16h-4c-0.552,0-1,0.448-1,1c0,0.552,0.448,1,1,1h4c2.607,0,4.5-2.103,4.5-5v-1c0-2.898-1.893-5-4.5-5h-4
				c-0.552,0-1,0.448-1,1c0,0.552,0.448,1,1,1h4c1.727,0,2.5,1.506,2.5,3v1C22,14.494,21.227,16,19.5,16z"/>
			<path d="M0,12v1c0,2.897,1.893,5,4.5,5h4c0.552,0,1-0.448,1-1c0-0.552-0.448-1-1-1h-4C2.773,16,2,14.494,2,13v-1
				c0-1.494,0.773-3,2.5-3h4c0.552,0,1-0.448,1-1c0-0.552-0.448-1-1-1h-4C1.893,7.001,0,9.102,0,12z"/>
			<path d="M12,6.001c0.552,0,1-0.448,1-1V2c0-0.552-0.448-1-1-1s-1,0.448-1,1v3C11,5.553,11.448,6.001,12,6.001z"/>
			<path d="M11,23c0,0.552,0.448,1,1,1s1-0.448,1-1v-3c0-0.552-0.448-1-1-1s-1,0.448-1,1V23z"/>
			<path d="M9.707,5.207L9.707,5.207c-0.392,0.392-1.024,0.391-1.414,0l-1.501-1.5c-0.391-0.391-0.391-1.024,0-1.415l0,0
				c0.391-0.391,1.024-0.389,1.415,0l1.5,1.501C10.097,4.183,10.098,4.816,9.707,5.207z"/>
			<path d="M14.293,5.207L14.293,5.207c0.392,0.392,1.024,0.391,1.414,0l1.501-1.5c0.391-0.391,0.391-1.024,0-1.415l0,0
				c-0.391-0.391-1.024-0.389-1.415,0l-1.5,1.501C13.903,4.183,13.902,4.816,14.293,5.207z"/>
			<path d="M9.707,19.793L9.707,19.793c-0.392-0.391-1.024-0.39-1.414,0l-1.501,1.501c-0.391,0.39-0.391,1.024,0,1.415l0,0
				c0.391,0.391,1.024,0.39,1.415-0.001l1.5-1.501C10.097,20.817,10.098,20.184,9.707,19.793z"/>
			<path d="M14.293,19.793L14.293,19.793c0.392-0.391,1.024-0.39,1.414,0l1.501,1.501c0.391,0.39,0.391,1.024,0,1.415l0,0
				c-0.391,0.391-1.024,0.39-1.415-0.001l-1.5-1.501C13.903,20.817,13.902,20.184,14.293,19.793z"/>
		</g>
	</g>
	<g id="New_icons">
	</g>
</g>
<g id="Frames-24px">
	<rect fill="none" width="24" height="24"/>
</g>
</svg>
