<?xml version="1.0" encoding="utf-8"?>
<!-- Generator: Adobe Illustrator 19.2.1, SVG Export Plug-In . SVG Version: 6.00 Build 0)  -->
<svg version="1.1" xmlns="http://www.w3.org/2000/svg" xmlns:xlink="http://www.w3.org/1999/xlink" x="0px" y="0px" width="24px"
	 height="24px" viewBox="0 0 24 24" enable-background="new 0 0 24 24" xml:space="preserve">
<g id="Filled_Icons_1_">
	<g id="Filled_Icons">
		<g>
			<path d="M13.5,11.332c-0.548,0-0.996-0.442-1-0.991c-0.007-0.872,0.352-1.575,1.052-1.979c0.48-0.278,1.084-0.356,1.9-0.362
				L20,8.003c2.251,0,3.983,1.046,4,3.245v3.598c0.011,1.422-0.724,2.172-1.343,2.551c-0.656,0.402-1.515,0.595-2.625,0.604
				c-2.799,0,2.683,0-4.532,0c-1.027,0-2.984-0.002-3-1.998c-0.004-0.551,0.463-0.996,1.015-1c0.506-0.005,0.922,0.26,0.985,0.997
				l5.515,0.006C20.987,16,22.007,15.836,22,14.861v-3.597c-0.008-1.133-1.072-1.266-2-1.263l-5.5,0c0,0,0,0,0,0.324
				C14.5,10.877,14.052,11.327,13.5,11.332z"/>
			<path d="M10.5,11.332c0.548,0,0.996-0.442,1-0.991c0.007-0.872-0.352-1.575-1.052-1.979C9.968,8.085,9.363,8.006,8.547,8L4,8.003
				c-2.252,0-3.983,1.046-4,3.245v3.598c-0.011,1.422,0.724,2.172,1.343,2.551C1.998,17.798,2.858,17.992,3.968,18
				c2.799,0-2.683,0,4.532,0c1.027,0,2.984-0.002,3-1.998c0.004-0.551-0.463-0.996-1.015-1C9.979,14.998,9.562,15.263,9.5,16
				l-5.515,0.006C3.013,16,1.993,15.836,2,14.861v-3.597C2.008,10.131,3.072,9.998,4,10l5.5,0c0,0,0,0,0,0.324
				C9.5,10.877,9.948,11.327,10.5,11.332z"/>
			<path d="M17.969,13c0-0.552-0.448-1-1-1h-10c-0.552,0-1,0.448-1,1c0,0.552,0.448,1,1,1h10C17.521,14,17.969,13.552,17.969,13z"/>
		</g>
	</g>
	<g id="New_icons">
	</g>
</g>
<g id="Frames-24px">
	<rect fill="none" width="24" height="24"/>
</g>
</svg>
