<?xml version="1.0" encoding="utf-8"?>
<!-- Generator: Adobe Illustrator 19.2.1, SVG Export Plug-In . SVG Version: 6.00 Build 0)  -->
<svg version="1.1" xmlns="http://www.w3.org/2000/svg" xmlns:xlink="http://www.w3.org/1999/xlink" x="0px" y="0px" width="24px"
	 height="24px" viewBox="0 0 24 24" enable-background="new 0 0 24 24" xml:space="preserve">
<g id="Filled_Icons_1_">
	<g id="Filled_Icons">
		<g>
			<path d="M2.381,17.417c-0.97,0.97-1.692,4.489-1.857,5.352l2.938-2.938c0.195-0.195,0.512-0.195,0.707,0.001
				c0.195,0.196,0.195,0.512,0,0.707l-2.938,2.937c0.864-0.164,4.382-0.886,5.352-1.856c0.561-0.561,0.87-1.307,0.87-2.1
				c0-0.794-0.309-1.54-0.87-2.101c-0.562-0.562-1.308-0.871-2.102-0.871C3.689,16.546,2.943,16.855,2.381,17.417z"/>
			<path d="M14.321,6.157l-8.785,8.784c-0.195,0.195-0.195,0.512,0,0.707l2.829,2.828c0.195,0.195,0.512,0.195,0.707,0l8.784-8.785
				L14.321,6.157z"/>
			<path d="M23.866,2.973l-2.828-2.828c-0.195-0.194-0.511-0.196-0.707,0l-0.386,0.386c-0.404-0.266-0.875-0.41-1.37-0.41
				c-0.668,0-1.295,0.26-1.768,0.732L11.15,6.511c-0.195,0.195-0.195,0.511,0,0.707c0.196,0.196,0.51,0.196,0.707,0l5.657-5.657
				c0.44-0.441,1.134-0.532,1.688-0.287l-4.176,4.175l3.536,3.536l5.302-5.305C24.062,3.484,24.061,3.168,23.866,2.973z"/>
		</g>
	</g>
	<g id="New_icons">
	</g>
</g>
<g id="Frames-24px">
	<rect fill="none" width="24" height="24"/>
</g>
</svg>
