<?xml version="1.0" encoding="utf-8"?>
<!-- Generator: Adobe Illustrator 19.2.1, SVG Export Plug-In . SVG Version: 6.00 Build 0)  -->
<svg version="1.1" xmlns="http://www.w3.org/2000/svg" xmlns:xlink="http://www.w3.org/1999/xlink" x="0px" y="0px" width="24px"
	 height="24px" viewBox="0 0 24 24" enable-background="new 0 0 24 24" xml:space="preserve">
<g id="Filled_Icons_1_">
	<g id="Filled_Icons">
	</g>
	<g id="New_icons">
		<g>
			<polygon points="14.292,5.998 11.064,9.225 15.201,12.504 18,9.707 			"/>
			<g>
				<path d="M23.81,20.608L10.146,9.773c-0.311,0.716-1.193,1.9-2.119,2.384L20.66,23.867C20.752,23.953,20.859,24,21,24
					c1.375,0,2.062,0,2.586-0.771C24.089,22.491,24.006,21.531,24,21C23.999,20.847,23.93,20.703,23.81,20.608z"/>
				<path d="M9.549,7.125c-0.156-1.073-0.714-2.016-1.57-2.654C7.489,4.106,6.869,3.908,6.213,3.7
					C4.697,3.218,3.388,2.802,3.5,0.524c0.01-0.204-0.106-0.394-0.293-0.48C3.02-0.039,2.801-0.002,2.652,0.141
					c-2.155,2.082-2.773,4.98-1.653,7.748c0.931,2.302,2.894,3.909,4.773,3.909c0.809,0,1.991-0.292,3.026-1.681
					C9.439,9.262,9.705,8.199,9.549,7.125z"/>
			</g>
			<g>
				<path d="M4.041,22.162l-2.204-2.203l-0.69,0.688c-0.194,0.196-0.195,0.512,0,0.707l0.398,0.397l-1.396,1.397
					c-0.196,0.195-0.2,0.507-0.002,0.705c0.197,0.197,0.508,0.192,0.704-0.004l1.397-1.396l0.398,0.399
					c0.196,0.195,0.511,0.195,0.707,0L4.041,22.162z"/>
				<g>
					<path d="M7.374,12.915l-5.229,5.23c-0.195,0.196-0.195,0.512,0,0.707l3.001,3c0.195,0.195,0.512,0.195,0.707,0l5.37-5.369
						L7.374,12.915z"/>
					<polygon points="15.201,12.504 18,9.708 14.29,5.998 11.064,9.225 					"/>
				</g>
				<path d="M23.853,3.147l-3-3c-0.196-0.195-0.512-0.195-0.707,0L15,5.293L18.706,9l3.722-3.723C22.526,5.496,22.584,5.74,22.585,6
					c0,0.449-0.16,0.867-0.439,1.147l-5,5c-0.195,0.195-0.195,0.512,0,0.707h0c0.195,0.195,0.511,0.195,0.707,0l4.999-5
					C23.318,7.388,23.585,6.713,23.585,6c0.001-0.531-0.149-1.043-0.418-1.46l0.686-0.686C24.048,3.659,24.047,3.341,23.853,3.147z"
					/>
			</g>
		</g>
	</g>
</g>
<g id="Frames-24px">
	<rect fill="none" width="24" height="24"/>
</g>
</svg>
