<?xml version="1.0" encoding="utf-8"?>
<!-- Generator: Adobe Illustrator 19.2.1, SVG Export Plug-In . SVG Version: 6.00 Build 0)  -->
<svg version="1.1" xmlns="http://www.w3.org/2000/svg" xmlns:xlink="http://www.w3.org/1999/xlink" x="0px" y="0px" width="24px"
	 height="24px" viewBox="0 0 24 24" enable-background="new 0 0 24 24" xml:space="preserve">
<g id="Filled_Icons_1_">
	<g id="Filled_Icons">
	</g>
	<g id="New_icons">
		<g>
			<path d="M16.5,24h-16C0.224,24,0,23.776,0,23.5S0.224,23,0.5,23h16c0.248-0.002,1.5-0.088,1.5-1.5s-1.252-1.497-1.503-1.5H4.5
				C3.635,20,2,19.478,2,17.5S3.635,15,4.5,15H8c0.276,0,0.5,0.224,0.5,0.5S8.276,16,8,16H4.5C4.252,16.003,3,16.088,3,17.5
				s1.252,1.498,1.503,1.5H16.5c0.865,0,2.5,0.522,2.5,2.5S17.365,24,16.5,24z"/>
			<g>
				<path d="M18.681,5.318c-1.755-1.754-4.61-1.754-6.364,0c-1.542,1.54-3.286,8.491-3.303,8.562c-0.029,0.118,0,0.236,0.056,0.343
					l5.081-5.082c-0.265-0.557-0.172-1.242,0.288-1.701c0.584-0.584,1.536-0.586,2.12-0.002c0.585,0.586,0.586,1.539,0.002,2.123
					c-0.461,0.459-1.146,0.551-1.702,0.288L9.777,14.93c0.106,0.056,0.224,0.085,0.343,0.056c0.07-0.017,7.015-1.758,8.561-3.304
					C20.435,9.927,20.435,7.073,18.681,5.318z"/>
				<path d="M23.996,4.56c0.019-0.152-0.034-0.305-0.143-0.414l-3.999-4c-0.109-0.109-0.262-0.162-0.415-0.143
					c-0.152,0.019-0.288,0.108-0.367,0.24l-1.5,2.5c-0.119,0.195-0.087,0.447,0.075,0.609l3,3.002
					c0.162,0.163,0.414,0.194,0.611,0.075l2.499-1.502C23.889,4.849,23.977,4.713,23.996,4.56z"/>
			</g>
		</g>
	</g>
</g>
<g id="Frames-24px">
	<rect fill="none" width="24" height="24"/>
</g>
</svg>
