<?xml version="1.0" encoding="utf-8"?>
<!-- Generator: Adobe Illustrator 19.2.1, SVG Export Plug-In . SVG Version: 6.00 Build 0)  -->
<svg version="1.1" xmlns="http://www.w3.org/2000/svg" xmlns:xlink="http://www.w3.org/1999/xlink" x="0px" y="0px" width="24px"
	 height="24px" viewBox="0 0 24 24" enable-background="new 0 0 24 24" xml:space="preserve">
<g id="Filled_Icons_1_">
	<g id="Filled_Icons">
		<g>
			<path d="M1.394,22.61c0.197,0.195,0.509,0.195,0.707,0l1.768-1.769l0.353,0.353c0.194,0.195,0.511,0.197,0.707,0
				c0.195-0.195,0.195-0.512,0-0.706l-1.415-1.416c-0.195-0.195-0.512-0.195-0.707,0c-0.195,0.195-0.195,0.512,0,0.708l0.353,0.354
				l-1.767,1.767C1.198,22.097,1.198,22.414,1.394,22.61z"/>
			<path d="M22.606,4.224l-2.829-2.829c-0.195-0.194-0.512-0.194-0.707,0l-0.389,0.39c-0.406-0.27-0.881-0.415-1.379-0.415
				c-0.668,0-1.296,0.26-1.768,0.733L9.878,7.761c-0.195,0.195-0.195,0.511,0,0.706c0.196,0.195,0.513,0.194,0.707,0l5.657-5.656
				c0.443-0.444,1.143-0.536,1.698-0.284l-4.108,4.107l3.535,3.536l5.238-5.239C22.802,4.736,22.802,4.419,22.606,4.224z"/>
			<path d="M13.125,7.342l-9.611,9.61c-0.195,0.196-0.195,0.512,0,0.707l2.828,2.83c0.195,0.195,0.512,0.195,0.707,0l9.611-9.612
				L13.125,7.342z"/>
		</g>
	</g>
	<g id="New_icons">
	</g>
</g>
<g id="Frames-24px">
	<rect fill="none" width="24" height="24"/>
</g>
</svg>
