<?xml version="1.0" encoding="utf-8"?>
<!-- Generator: Adobe Illustrator 19.2.1, SVG Export Plug-In . SVG Version: 6.00 Build 0)  -->
<svg version="1.1" xmlns="http://www.w3.org/2000/svg" xmlns:xlink="http://www.w3.org/1999/xlink" x="0px" y="0px" width="24px"
	 height="24px" viewBox="0 0 24 24" enable-background="new 0 0 24 24" xml:space="preserve">
<g id="Filled_Icons_1_">
	<g id="Filled_Icons">
		<g>
			<g>
				<polygon points="8.826,15.199 11.947,13.861 10.164,12.076 				"/>
				<path d="M13.177,14.383c-0.045,0.044-0.098,0.082-0.157,0.106l-0.008,0.004l-0.002,0l-4.94,2.117
					c-0.063,0.026-0.13,0.04-0.197,0.04c-0.13,0-0.258-0.051-0.353-0.146c-0.145-0.145-0.187-0.362-0.106-0.55l2.117-4.941
					c0-0.001,0.001-0.001,0.001-0.001l0.003-0.008c0.025-0.059,0.061-0.112,0.106-0.156l8.841-8.841l0.001-0.001
					c0-0.001,0.001-0.001,0.001-0.001L18.488,2l-17.988,0c-0.276,0-0.5,0.224-0.5,0.5v21c0,0.276,0.224,0.5,0.5,0.5h19
					c0.276,0,0.5-0.224,0.5-0.5V7.56L13.177,14.383z M18.501,23.023L18.501,23.023L1.499,23c-0.276-0.002-0.499-0.224-0.5-0.5
					L1,3.523C1.001,3.248,1.224,3.024,1.5,3l13,0c0.276,0,0.5,0.246,0.501,0.52c0,0.278-0.223,0.502-0.499,0.502l-12.5,0L2,21.979
					L18,22l-0.001-10.5C18,11.225,18.224,11,18.5,11c0.276,0,0.5,0.224,0.5,0.5l0.001,11.022
					C19.001,22.801,18.776,23.023,18.501,23.023z"/>
			</g>
			<polygon points="19.562,2.358 20.672,1.235 22.781,3.36 21.666,4.485 			"/>
			<polygon points="18.857,3.068 20.984,5.194 12.847,13.332 10.72,11.229 			"/>
		</g>
	</g>
	<g id="New_icons">
	</g>
</g>
<g id="Frames-24px">
	<rect fill="none" width="24" height="24"/>
</g>
</svg>
