<?xml version="1.0" encoding="utf-8"?>
<!-- Generator: Adobe Illustrator 19.2.1, SVG Export Plug-In . SVG Version: 6.00 Build 0)  -->
<svg version="1.1" xmlns="http://www.w3.org/2000/svg" xmlns:xlink="http://www.w3.org/1999/xlink" x="0px" y="0px" width="24px"
	 height="24px" viewBox="0 0 24 24" enable-background="new 0 0 24 24" xml:space="preserve">
<g id="Filled_Icons_1_">
	<g id="Filled_Icons">
		<g>
			<path d="M15.357,10.633c-0.038,0.038-0.082,0.069-0.13,0.093l-2.583,1.292c-0.186,0.093-0.423,0.061-0.577-0.094
				c-0.152-0.152-0.19-0.384-0.094-0.577l1.291-2.583c0.024-0.049,0.056-0.093,0.094-0.13c2.985-2.984,6.643-6.643,6.643-6.643L20,2
				H0.5C0.224,1.992-0.001,2.216,0,2.492v21c-0.001,0.276,0.224,0.5,0.5,0.5h19c0.276,0,0.5-0.224,0.5-0.5V6.001L15.357,10.633z
				 M19,22.492c0,0.276-0.224,0.5-0.5,0.509h-17c-0.276-0.009-0.5-0.232-0.5-0.509v-19C0.999,3.216,1.224,2.992,1.5,3h14.609
				c0.276-0.009,0.5,0.216,0.5,0.491c0,0.276-0.224,0.5-0.5,0.509H2v18h16V11.079c0-0.276,0.224-0.5,0.5-0.5s0.5,0.224,0.5,0.5
				V22.492z"/>
			<path d="M23.47,0.791c-0.112-0.271-0.448-0.407-0.689-0.167l-0.938,0.938l0.584,0.585l0.938-0.938
				C23.498,1.078,23.532,0.94,23.47,0.791z"/>
			<polygon points="14.123,9.284 13.539,10.453 14.708,9.868 21.721,2.853 21.137,2.27 			"/>
		</g>
	</g>
	<g id="New_icons">
	</g>
</g>
<g id="Frames-24px">
	<rect fill="none" width="24" height="24"/>
</g>
</svg>
