<?xml version="1.0" encoding="utf-8"?>
<!-- Generator: Adobe Illustrator 19.2.1, SVG Export Plug-In . SVG Version: 6.00 Build 0)  -->
<svg version="1.1" xmlns="http://www.w3.org/2000/svg" xmlns:xlink="http://www.w3.org/1999/xlink" x="0px" y="0px" width="24px"
	 height="24px" viewBox="0 0 24 24" enable-background="new 0 0 24 24" xml:space="preserve">
<g id="Filled_Icons_1_">
	<g id="Filled_Icons">
		<g>
			<path d="M0.677,23.354c0.15,0.15,0.378,0.192,0.577,0.094l5.335-2.667l-3.338-3.339l-2.668,5.335
				C0.487,22.969,0.525,23.202,0.677,23.354z"/>
			<path d="M22.152,5.415l1.061-1.061c0.975-0.975,0.975-2.56,0-3.535c-0.472-0.471-1.1-0.733-1.768-0.733
				c-0.668,0-1.296,0.261-1.768,0.733l-1.061,1.061L22.152,5.415z"/>
			<rect x="2.717" y="8.879" transform="matrix(0.7071 -0.7071 0.7071 0.7071 -4.3403 12.2786)" width="19.87" height="5"/>
		</g>
	</g>
	<g id="New_icons">
	</g>
</g>
<g id="Frames-24px">
	<rect fill="none" width="24" height="24"/>
</g>
</svg>
