<?xml version="1.0" encoding="utf-8"?>
<!-- Generator: Adobe Illustrator 19.2.1, SVG Export Plug-In . SVG Version: 6.00 Build 0)  -->
<svg version="1.1" xmlns="http://www.w3.org/2000/svg" xmlns:xlink="http://www.w3.org/1999/xlink" x="0px" y="0px" width="24px"
	 height="24px" viewBox="0 0 24 24" enable-background="new 0 0 24 24" xml:space="preserve">
<g id="Filled_Icons_1_">
	<g id="Filled_Icons">
		<g>
			<path d="M23.5,11h-5.917l-4.175,4.174c-0.045,0.044-0.098,0.081-0.156,0.107l-4.499,1.926c-0.19,0.083-0.408,0.038-0.55-0.105
				c-0.144-0.146-0.187-0.363-0.106-0.55l1.924-4.491c0,0,0,0,0-0.001c0.009-0.021,0.094-0.149,0.11-0.165L11.027,11H0.5
				C0.224,11,0,11.224,0,11.5v10C0,21.776,0.224,22,0.5,22h23c0.276,0,0.5-0.224,0.5-0.5v-10C24,11.224,23.776,11,23.5,11z M23,20.5
				c0,0.276-0.224,0.5-0.5,0.5H1.469c-0.276,0-0.5-0.224-0.5-0.5l0.014-8.007c0-0.237,0.214-0.5,0.5-0.5h5.986
				c0.284,0,0.5,0.261,0.5,0.5c0,0.276-0.224,0.5-0.5,0.507H2.014L2,19.994h20V13h-3.183c-0.276-0.007-0.5-0.231-0.5-0.507
				c0-0.239,0.215-0.5,0.5-0.5H22.5c0.161,0,0.298,0.081,0.389,0.2c0.065,0.084,0.111,0.185,0.111,0.3V20.5z"/>
			<rect x="18.29" y="5.018" transform="matrix(0.707 -0.7072 0.7072 0.707 1.0769 15.2711)" width="1.36" height="2.636"/>
			<polygon points="9.508,15.797 12.18,14.652 10.653,13.125 			"/>
			<rect x="10.952" y="9.036" transform="matrix(0.7069 -0.7073 0.7073 0.7069 -2.9406 13.6103)" width="8.001" height="2.635"/>
		</g>
	</g>
	<g id="New_icons">
	</g>
</g>
<g id="Frames-24px">
	<rect fill="none" width="24" height="24"/>
</g>
</svg>
