<?xml version="1.0" encoding="utf-8"?>
<!-- Generator: Adobe Illustrator 19.2.1, SVG Export Plug-In . SVG Version: 6.00 Build 0)  -->
<svg version="1.1" xmlns="http://www.w3.org/2000/svg" xmlns:xlink="http://www.w3.org/1999/xlink" x="0px" y="0px" width="24px"
	 height="24px" viewBox="0 0 24 24" enable-background="new 0 0 24 24" xml:space="preserve">
<g id="Filled_Icons_1_">
	<g id="Filled_Icons">
		<g>
			<circle cx="3.5" cy="10.5" r="0.5"/>
			<path d="M21.5,7h-19C1.121,7,0,8.122,0,9.5v6C0,16.878,1.121,18,2.5,18H5v4.5C5,22.776,5.224,23,5.5,23h13
				c0.275,0,0.5-0.224,0.5-0.5V18h2.5c1.378,0,2.5-1.122,2.5-2.5v-6C24,8.122,22.878,7,21.5,7z M3.5,12C2.673,12,2,11.327,2,10.5
				S2.673,9,3.5,9C4.326,9,5,9.673,5,10.5S4.326,12,3.5,12z M18,22H6v-7h12V22z"/>
			<path d="M5.5,6h13C18.775,6,19,5.776,19,5.5v-1c0-0.133-0.053-0.26-0.146-0.353l-3-3C15.76,1.053,15.633,1,15.5,1h-10
				C5.224,1,5,1.224,5,1.5v4C5,5.776,5.224,6,5.5,6z M15.5,1.5l3,3h-3V1.5z"/>
			<path d="M7.5,17h9c0.275,0,0.5-0.224,0.5-0.5c0-0.276-0.225-0.5-0.5-0.5h-9C7.224,16,7,16.224,7,16.5C7,16.776,7.224,17,7.5,17z"
				/>
			<path d="M7.5,19h9c0.275,0,0.5-0.224,0.5-0.5c0-0.276-0.225-0.5-0.5-0.5h-9C7.224,18,7,18.224,7,18.5C7,18.776,7.224,19,7.5,19z"
				/>
			<path d="M7.5,21h9c0.275,0,0.5-0.224,0.5-0.5c0-0.276-0.225-0.5-0.5-0.5h-9C7.224,20,7,20.224,7,20.5C7,20.776,7.224,21,7.5,21z"
				/>
		</g>
	</g>
	<g id="New_icons">
	</g>
</g>
<g id="Frames-24px">
	<rect fill="none" width="24" height="24"/>
</g>
</svg>
