<?xml version="1.0" encoding="utf-8"?>
<!-- Generator: Adobe Illustrator 19.2.1, SVG Export Plug-In . SVG Version: 6.00 Build 0)  -->
<svg version="1.1" xmlns="http://www.w3.org/2000/svg" xmlns:xlink="http://www.w3.org/1999/xlink" x="0px" y="0px" width="24px"
	 height="24px" viewBox="0 0 24 24" enable-background="new 0 0 24 24" xml:space="preserve">
<g id="Filled_Icons_1_">
	<g id="Filled_Icons">
		<g>
			<g>
				<path d="M18.823,11.069c-2.006,2.005-4.122,3.109-5.958,3.109c-0.561,0-1.068-0.122-1.51-0.329l-3.375,3.374
					c-0.196,0.195-0.511,0.195-0.707,0c-0.195-0.195-0.195-0.512,0-0.707l3.254-3.253c-1.301-1.349-1.64-3.09-0.968-5.046
					c0.799-2.323,2.983-4.546,3.879-4.657L14,3.491v2.27c1.108-0.468,1.966-2.351,2.23-3.138l0.071-0.209l0.203-0.09
					C16.766,2.209,17.033,2.102,17.302,2H0.5C0.224,2,0,2.224,0,2.5v21C0,23.777,0.224,24,0.5,24h19c0.276,0,0.5-0.224,0.5-0.5
					V9.689C19.635,10.183,19.243,10.649,18.823,11.069z M19,22.5c0,0.276-0.224,0.5-0.5,0.5l-17,0c-0.133,0-0.26-0.052-0.354-0.147
					C1.053,22.761,1,22.634,1,22.501v-19c0-0.276,0.224-0.5,0.5-0.5h9c0.276,0,0.5,0.225,0.5,0.5c0,0.276-0.224,0.5-0.5,0.5H2v18
					l16,0v-8.5c0-0.276,0.224-0.5,0.5-0.5s0.5,0.224,0.5,0.5V22.5z"/>
			</g>
			<path d="M17.09,3.151c0,0-1.207,4.035-4.08,3.712l-0.041-1.895c-3.438,3.297-2.932,5.784-2.288,6.85
				c0.155,0.255,0.34,0.504,0.568,0.722l5.136-5.136c0.195-0.195,0.512-0.195,0.707,0c0.195,0.195,0.195,0.511,0,0.707l-4.946,4.946
				c0.516,0.153,1.178,0.161,2.078-0.102c2.158-0.627,4.228-3,4.228-3c2.544-2.514,4.202-8.314,4.202-8.314
				C20.404,1.879,17.09,3.151,17.09,3.151z"/>
		</g>
	</g>
	<g id="New_icons">
	</g>
</g>
<g id="Frames-24px">
	<rect fill="none" width="24" height="24"/>
</g>
</svg>
