<?xml version="1.0" encoding="utf-8"?>
<!-- Generator: Adobe Illustrator 19.2.1, SVG Export Plug-In . SVG Version: 6.00 Build 0)  -->
<svg version="1.1" xmlns="http://www.w3.org/2000/svg" xmlns:xlink="http://www.w3.org/1999/xlink" x="0px" y="0px" width="24px"
	 height="24px" viewBox="0 0 24 24" enable-background="new 0 0 24 24" xml:space="preserve">
<g id="Filled_Icons_1_">
	<g id="Filled_Icons">
		<path d="M12,0C5.383,0,0,5.383,0,12s5.383,12,12,12s12-5.383,12-12S18.617,0,12,0z M17.942,10.748
			C17.854,10.904,17.688,11,17.509,11h-4.056l-0.35,0.349L12.451,12h3.604c0.276,0,0.5,0.224,0.5,0.5s-0.224,0.5-0.5,0.5h-4.604
			l-1,1h4.104c0.207,0,0.392,0.127,0.466,0.32c0.075,0.192,0.023,0.411-0.13,0.55c-1.715,1.559-3.846,2.49-5.7,2.49
			c-0.681,0-1.269-0.137-1.711-0.389l-1.296,1.296c-0.196,0.196-0.512,0.195-0.707,0c-0.195-0.195-0.195-0.512,0-0.708l1.303-1.303
			c-0.437-0.767-0.403-1.923,0.122-3.332c0.59-1.585,1.707-3.25,3.145-4.688c1.55-1.551,3.23-2.663,4.286-3.186
			c0.155-0.077,0.339-0.068,0.486,0.023c0.147,0.091,0.236,0.252,0.236,0.425v2.477l2.544-2.55c0.188-0.188,0.521-0.188,0.708,0
			C19.375,6.498,19.239,8.487,17.942,10.748z"/>
	</g>
	<g id="New_icons">
	</g>
</g>
<g id="Frames-24px">
	<rect fill="none" width="24" height="24"/>
</g>
</svg>
