<?xml version="1.0" encoding="utf-8"?>
<!-- Generator: Adobe Illustrator 19.2.1, SVG Export Plug-In . SVG Version: 6.00 Build 0)  -->
<svg version="1.1" xmlns="http://www.w3.org/2000/svg" xmlns:xlink="http://www.w3.org/1999/xlink" x="0px" y="0px" width="24px"
	 height="24px" viewBox="0 0 24 24" enable-background="new 0 0 24 24" xml:space="preserve">
<g id="Filled_Icons_1_">
	<g id="Filled_Icons">
		<g>
			<path d="M0.017,23.462c-0.011,0.14,0.037,0.275,0.132,0.378C0.243,23.942,0.376,24,0.516,24H13.59
				c0.139,0,0.272-0.058,0.367-0.16c0.094-0.103,0.143-0.239,0.131-0.378c-0.232-3.082-1.894-4.849-5.072-5.393V17h0.5
				c0.275,0,0.5-0.224,0.484-0.5v-2c0.016-0.276-0.209-0.5-0.484-0.5h-5c-0.276,0-0.5,0.224-0.5,0.5v2c0,0.276,0.224,0.5,0.5,0.5
				h0.5v1.069C1.887,18.609,0.25,20.376,0.017,23.462z"/>
			<path d="M23.283,0.428c-0.195-0.195-0.512-0.195-0.707,0l-2.561,2.56V0.501c0-0.173-0.09-0.335-0.236-0.425
				c-0.147-0.091-0.33-0.101-0.486-0.023c-1.053,0.521-2.73,1.631-4.285,3.186c-3.012,3.011-4.334,6.335-3.296,8.049l-1.274,1.274
				c-0.196,0.196-0.196,0.513,0,0.708c0.191,0.193,0.508,0.198,0.706,0l1.266-1.265c0.503,0.333,1.121,0.5,1.815,0.5
				c1.665,0,3.75-0.926,5.627-2.633c0.152-0.139,0.204-0.358,0.13-0.55C19.907,9.127,19.722,9,19.516,9h-4.102l1-1h4.601
				c0.275,0,0.5-0.224,0.5-0.5c0-0.276-0.225-0.5-0.5-0.5h-3.601l1.001-1h4.054c0.179,0,0.345-0.096,0.434-0.253
				c1.282-2.235,1.431-4.195,0.415-5.265C23.305,0.465,23.299,0.444,23.283,0.428z"/>
		</g>
	</g>
	<g id="New_icons">
	</g>
</g>
<g id="Frames-24px">
	<rect fill="none" width="24" height="24"/>
</g>
</svg>
