<?xml version="1.0" encoding="utf-8"?>
<!-- Generator: Adobe Illustrator 19.2.1, SVG Export Plug-In . SVG Version: 6.00 Build 0)  -->
<svg version="1.1" xmlns="http://www.w3.org/2000/svg" xmlns:xlink="http://www.w3.org/1999/xlink" x="0px" y="0px" width="24px"
	 height="24px" viewBox="0 0 24 24" enable-background="new 0 0 24 24" xml:space="preserve">
<g id="Filled_Icons_1_">
	<g id="Filled_Icons">
		<g>
			<path d="M16.759,8.336C17.486,9.341,18.666,10,20,10c2.205,0,4-1.794,4-4c0-2.206-1.795-4-4-4c-2.206,0-4,1.794-4,4
				c0,1.788-0.455,3.531-1.314,5.082C12.516,8.2,9.132,6.5,5.5,6.5c-1.057,0-4.286,0.338-5.301,1.099
				C0.047,7.714-0.027,7.904,0.008,8.09c0.035,0.188,0.173,0.338,0.356,0.39L12.863,12L0.364,15.519
				c-0.184,0.052-0.321,0.203-0.356,0.389c-0.035,0.187,0.039,0.378,0.191,0.492C1.213,17.161,4.443,17.5,5.5,17.5
				c3.649,0,7.017-1.701,9.186-4.586C15.547,14.464,16,16.206,16,18c0,2.206,1.794,4,4,4c2.205,0,4-1.794,4-4c0-2.206-1.795-4-4-4
				c-1.335,0-2.516,0.659-3.242,1.667c-0.268-1.293-0.758-2.529-1.453-3.663C16.001,10.868,16.491,9.629,16.759,8.336z M20,3
				c1.654,0,3,1.345,3,3c0,1.654-1.346,3-3,3s-3-1.346-3-3C17,4.345,18.346,3,20,3z M20,15c1.654,0,3,1.345,3,3c0,1.654-1.346,3-3,3
				s-3-1.346-3-3C17,16.345,18.346,15,20,15z"/>
		</g>
	</g>
	<g id="New_icons">
	</g>
</g>
<g id="Frames-24px">
	<rect fill="none" width="24" height="24"/>
</g>
</svg>
