<?xml version="1.0" encoding="utf-8"?>
<!-- Generator: Adobe Illustrator 19.2.1, SVG Export Plug-In . SVG Version: 6.00 Build 0)  -->
<svg version="1.1" xmlns="http://www.w3.org/2000/svg" xmlns:xlink="http://www.w3.org/1999/xlink" x="0px" y="0px" width="24px"
	 height="24px" viewBox="0 0 24 24" enable-background="new 0 0 24 24" xml:space="preserve">
<g id="Filled_Icons_1_">
	<g id="Filled_Icons">
		<path d="M13.5,12l9.915-6.04c0.118-0.071,0.157-0.223,0.088-0.341c-0.301-0.511-0.833-0.896-1.459-1.058
			c-0.626-0.162-1.278-0.082-1.788,0.219C19.674,5.123,8.96,11.428,8.96,11.428L5.727,9.716C7.205,9.127,8.254,7.684,8.254,6
			c0-2.206-1.795-4-4-4s-4,1.794-4,4c0,2.16,1.721,3.92,3.862,3.994L7.905,12l-3.789,2.006C1.975,14.08,0.254,15.84,0.254,18
			c0,2.206,1.795,4,4,4s4-1.794,4-4c0-1.684-1.049-3.127-2.526-3.716l3.233-1.711c0,0,10.253,6.032,11.296,6.646
			c0.51,0.301,1.162,0.382,1.788,0.219c0.626-0.162,1.158-0.547,1.459-1.058c0.069-0.118,0.03-0.271-0.088-0.341L13.5,12z M4.254,9
			c-1.654,0-3-1.346-3-3c0-1.653,1.346-3,3-3s3,1.347,3,3C7.254,7.654,5.908,9,4.254,9L4.254,9z M7.254,18c0,1.653-1.346,3-3,3
			s-3-1.347-3-3c0-1.654,1.346-3,3-3h0.001C5.908,15,7.254,16.346,7.254,18z"/>
	</g>
	<g id="New_icons">
	</g>
</g>
<g id="Frames-24px">
	<rect fill="none" width="24" height="24"/>
</g>
</svg>
