<?xml version="1.0" encoding="utf-8"?>
<!-- Generator: Adobe Illustrator 19.2.1, SVG Export Plug-In . SVG Version: 6.00 Build 0)  -->
<svg version="1.1" xmlns="http://www.w3.org/2000/svg" xmlns:xlink="http://www.w3.org/1999/xlink" x="0px" y="0px" width="24px"
	 height="24px" viewBox="0 0 24 24" enable-background="new 0 0 24 24" xml:space="preserve">
<g id="Filled_Icons_1_">
	<g id="Filled_Icons">
		<g>
			<circle cx="8" cy="14" r="2"/>
			<circle cx="17" cy="14" r="2"/>
			<path d="M18,7.5v-1C18,6.224,18.224,6,18.5,6S19,6.224,19,6.5v1c0,1.378,1.122,2.5,2.5,2.5H22V9c0-4.878-4.331-9-9.458-9
				C7.458,0,3,4.207,3,9v1h0.5C4.878,10,6,8.878,6,7.5v-1C6,6.224,6.224,6,6.5,6S7,6.224,7,6.5v1C7,9.429,5.43,11,3.5,11H3v6
				c0,1.614,0.77,2.721,2,2.955V21.5C5,22.878,6.122,24,7.5,24H8v-4.5C8,19.224,8.224,19,8.5,19S9,19.224,9,19.5V24h3v-4.5
				c0-0.276,0.224-0.5,0.5-0.5s0.5,0.224,0.5,0.5V24h3v-4.5c0-0.276,0.224-0.5,0.5-0.5s0.5,0.224,0.5,0.5V24h0.5
				c1.378,0,2.5-1.122,2.5-2.5v-1.545c1.23-0.233,2-1.341,2-2.955v-6h-0.5C19.57,11,18,9.429,18,7.5z M8,17c-1.654,0-3-1.346-3-3
				c0-1.655,1.346-3,3-3s3,1.345,3,3C11,15.654,9.654,17,8,17z M12.042,18c-0.276,0-0.5-0.224-0.5-0.5c0-0.551,0.449-1,1-1
				s1,0.449,1,1c0,0.276-0.224,0.5-0.5,0.5H12.042z M14,14c0-1.655,1.346-3,3-3s3,1.345,3,3c0,1.654-1.346,3-3,3S14,15.654,14,14z"
				/>
		</g>
	</g>
	<g id="New_icons">
	</g>
</g>
<g id="Frames-24px">
	<rect fill="none" width="24" height="24"/>
</g>
</svg>
