<?xml version="1.0" encoding="utf-8"?>
<!-- Generator: Adobe Illustrator 19.2.1, SVG Export Plug-In . SVG Version: 6.00 Build 0)  -->
<svg version="1.1" xmlns="http://www.w3.org/2000/svg" xmlns:xlink="http://www.w3.org/1999/xlink" x="0px" y="0px" width="24px"
	 height="24px" viewBox="0 0 24 24" enable-background="new 0 0 24 24" xml:space="preserve">
<g id="Filled_Icons_1_">
	<g id="Filled_Icons">
		<g>
			<path d="M23.5,13H23v-2.5c0-0.276-0.224-0.5-0.5-0.5S22,10.224,22,10.5V11H2v-0.5C2,10.224,1.776,10,1.5,10S1,10.224,1,10.5V13
				H0.5C0.224,13,0,13.224,0,13.5S0.224,14,0.5,14H1v2.5C1,16.776,1.224,17,1.5,17S2,16.776,2,16.5V16h1.05
				c0.232-1.14,1.242-2,2.45-2h13c1.207,0,2.217,0.86,2.449,2H22v0.5c0,0.276,0.224,0.5,0.5,0.5s0.5-0.224,0.5-0.5V14h0.5
				c0.276,0,0.5-0.224,0.5-0.5S23.776,13,23.5,13z"/>
			<path d="M5.5,10h13c0.276,0,0.5-0.224,0.5-0.5v-6c0-0.132-0.053-0.26-0.146-0.353l-2-2C16.76,1.053,16.633,1,16.5,1h-11
				C5.224,1,5,1.224,5,1.5v8C5,9.776,5.224,10,5.5,10z"/>
			<path d="M21.5,22H20v-5.5c0-0.827-0.673-1.5-1.5-1.5h-3.691l-0.861,1.724C13.862,16.894,13.689,17,13.5,17h-3
				c-0.189,0-0.362-0.106-0.447-0.276L9.19,15H5.5C4.673,15,4,15.673,4,16.5V22H2.5C2.224,22,2,22.224,2,22.5S2.224,23,2.5,23h19
				c0.276,0,0.5-0.224,0.5-0.5S21.776,22,21.5,22z M6.5,21h-1C5.224,21,5,20.776,5,20.5S5.224,20,5.5,20h1C6.776,20,7,20.224,7,20.5
				S6.776,21,6.5,21z M6.5,18.5C6.5,18.224,6.724,18,7,18h1c0.276,0,0.5,0.224,0.5,0.5S8.276,19,8,19H7
				C6.724,19,6.5,18.776,6.5,18.5z M9.5,21h-1C8.224,21,8,20.776,8,20.5S8.224,20,8.5,20h1c0.276,0,0.5,0.224,0.5,0.5
				S9.776,21,9.5,21z M9.5,18.5c0-0.276,0.224-0.5,0.5-0.5h1c0.276,0,0.5,0.224,0.5,0.5S11.276,19,11,19h-1
				C9.724,19,9.5,18.776,9.5,18.5z M12.5,21h-1c-0.276,0-0.5-0.224-0.5-0.5s0.224-0.5,0.5-0.5h1c0.276,0,0.5,0.224,0.5,0.5
				S12.776,21,12.5,21z M12.5,18.5c0-0.276,0.224-0.5,0.5-0.5h1c0.276,0,0.5,0.224,0.5,0.5S14.276,19,14,19h-1
				C12.724,19,12.5,18.776,12.5,18.5z M15.5,21h-1c-0.276,0-0.5-0.224-0.5-0.5s0.224-0.5,0.5-0.5h1c0.276,0,0.5,0.224,0.5,0.5
				S15.776,21,15.5,21z M15.5,18.5c0-0.276,0.224-0.5,0.5-0.5h1c0.276,0,0.5,0.224,0.5,0.5S17.276,19,17,19h-1
				C15.724,19,15.5,18.776,15.5,18.5z M18.5,21h-1c-0.276,0-0.5-0.224-0.5-0.5s0.224-0.5,0.5-0.5h1c0.276,0,0.5,0.224,0.5,0.5
				S18.776,21,18.5,21z"/>
		</g>
	</g>
	<g id="New_icons">
	</g>
</g>
<g id="Frames-24px">
	<rect fill="none" width="24" height="24"/>
</g>
</svg>
