<?xml version="1.0" encoding="utf-8"?>
<!-- Generator: Adobe Illustrator 19.2.1, SVG Export Plug-In . SVG Version: 6.00 Build 0)  -->
<svg version="1.1" xmlns="http://www.w3.org/2000/svg" xmlns:xlink="http://www.w3.org/1999/xlink" x="0px" y="0px" width="24px"
	 height="24px" viewBox="0 0 24 24" enable-background="new 0 0 24 24" xml:space="preserve">
<g id="Filled_Icons_1_">
	<g id="Filled_Icons">
		<g>
			<path d="M0.108,12.31C0.325,12.583,5.482,19,12.001,19c6.518,0,11.675-6.417,11.891-6.69c0.145-0.182,0.145-0.439,0-0.62
				C23.676,11.415,18.519,5,12.001,5C5.482,5,0.325,11.415,0.108,11.69C-0.036,11.871-0.036,12.128,0.108,12.31z M12.001,7.5
				c2.48,0,4.5,2.018,4.5,4.5s-2.02,4.5-4.5,4.5c-2.482,0-4.5-2.018-4.5-4.5S9.519,7.5,12.001,7.5z"/>
			<circle cx="12.001" cy="12" r="3.5"/>
		</g>
	</g>
	<g id="New_icons">
	</g>
</g>
<g id="Frames-24px">
	<rect fill="none" width="24" height="24"/>
</g>
</svg>
