<?xml version="1.0" encoding="utf-8"?>
<!-- Generator: Adobe Illustrator 19.2.1, SVG Export Plug-In . SVG Version: 6.00 Build 0)  -->
<svg version="1.1" xmlns="http://www.w3.org/2000/svg" xmlns:xlink="http://www.w3.org/1999/xlink" x="0px" y="0px" width="24px"
	 height="24px" viewBox="0 0 24 24" enable-background="new 0 0 24 24" xml:space="preserve">
<g id="Filled_Icons_1_">
	<g id="Filled_Icons">
		<g>
			<path d="M12.001,15.5c1.93,0,3.5-1.57,3.5-3.5c0-1.931-1.57-3.5-3.5-3.5c-1.931,0-3.5,1.569-3.5,3.5
				C8.501,13.93,10.07,15.5,12.001,15.5z M10.001,11.5c0.275,0,0.5,0.224,0.5,0.5c0,0.827,0.672,1.5,1.5,1.5
				c0.826,0,1.5-0.673,1.5-1.5c0-0.828-0.674-1.5-1.5-1.5c-0.276,0-0.5-0.225-0.5-0.5c0-0.277,0.224-0.5,0.5-0.5
				c1.378,0,2.5,1.121,2.5,2.5c0,1.378-1.122,2.5-2.5,2.5c-1.379,0-2.5-1.122-2.5-2.5C9.501,11.724,9.725,11.5,10.001,11.5z"/>
			<path d="M0.108,12.31C0.325,12.583,5.482,19,12.001,19c6.518,0,11.675-6.417,11.892-6.69c0.144-0.182,0.144-0.439,0-0.62
				C23.676,11.415,18.519,5,12.001,5C5.482,5,0.325,11.415,0.108,11.69C-0.036,11.871-0.036,12.128,0.108,12.31z M12.001,7.5
				c2.48,0,4.5,2.018,4.5,4.5s-2.02,4.5-4.5,4.5c-2.482,0-4.5-2.018-4.5-4.5S9.519,7.5,12.001,7.5z"/>
		</g>
	</g>
	<g id="New_icons">
	</g>
</g>
<g id="Frames-24px">
	<rect fill="none" width="24" height="24"/>
</g>
</svg>
