<?xml version="1.0" encoding="utf-8"?>
<!-- Generator: Adobe Illustrator 19.2.1, SVG Export Plug-In . SVG Version: 6.00 Build 0)  -->
<svg version="1.1" xmlns="http://www.w3.org/2000/svg" xmlns:xlink="http://www.w3.org/1999/xlink" x="0px" y="0px" width="24px"
	 height="24px" viewBox="0 0 24 24" enable-background="new 0 0 24 24" xml:space="preserve">
<g id="Filled_Icons_1_">
	<g id="Filled_Icons">
		<g>
			<path d="M8.5,17c1.983,0,3.807-0.688,5.254-1.832l8.539,8.538c0.391,0.392,1.023,0.392,1.414,0c0.391-0.39,0.391-1.024,0-1.414
				l-8.539-8.539C16.312,12.307,17,10.483,17,8.5C17,3.812,13.186,0,8.5,0C3.812,0,0,3.812,0,8.5C0,13.186,3.812,17,8.5,17z M5,8h3
				V5c0-0.276,0.224-0.5,0.5-0.5C8.775,4.5,9,4.724,9,5v3h3c0.275,0,0.5,0.224,0.5,0.5C12.5,8.775,12.275,9,12,9H9v3
				c0,0.275-0.225,0.5-0.5,0.5C8.224,12.5,8,12.275,8,12V9H5C4.724,9,4.5,8.775,4.5,8.5C4.5,8.224,4.724,8,5,8z"/>
		</g>
	</g>
	<g id="New_icons">
	</g>
</g>
<g id="Frames-24px">
	<rect fill="none" width="24" height="24"/>
</g>
</svg>
