<?xml version="1.0" encoding="utf-8"?>
<!-- Generator: Adobe Illustrator 19.2.1, SVG Export Plug-In . SVG Version: 6.00 Build 0)  -->
<svg version="1.1" xmlns="http://www.w3.org/2000/svg" xmlns:xlink="http://www.w3.org/1999/xlink" x="0px" y="0px" width="24px"
	 height="24px" viewBox="0 0 24 24" enable-background="new 0 0 24 24" xml:space="preserve">
<g id="Filled_Icons_1_">
	<g id="Filled_Icons">
		<g>
			<path d="M1,8c0.552,0,1-0.448,1-1v-1.5c0-0.552-0.448-1-1-1s-1,0.448-1,1v1.5C0,7.553,0.448,8,1,8z"/>
			<path d="M1,13c0.552,0,1-0.448,1-1v-1.5c0-0.552-0.448-1-1-1s-1,0.448-1,1V12C0,12.553,0.448,13,1,13z"/>
			<path d="M18,5.501c0-0.552-0.448-1-1-1s-1,0.448-1,1v2c0,0.552,0.448,1,1,1s1-0.448,1-1V5.501z"/>
			<path d="M17,9.5c-0.552,0-1,0.448-1,1v0.595C16.325,11.036,16.658,11,17,11s0.675,0.035,1,0.095V10.5C18,9.949,17.552,9.5,17,9.5
				z"/>
			<path d="M2.5,16H2v-0.5c0-0.552-0.448-1-1-1s-1,0.448-1,1V17c0,0.552,0.448,1,1,1h1.5c0.552,0,1-0.448,1-1
				C3.5,16.449,3.052,16,2.5,16z"/>
			<path d="M2.5,0.001H1c-0.552,0-1,0.448-1,1v1.5c0,0.552,0.448,1,1,1s1-0.448,1-1V2h0.5c0.552,0,1-0.448,1-1
				C3.5,0.449,3.052,0.001,2.5,0.001z"/>
			<path d="M10.5,16c-0.552,0-1,0.448-1,1c0,0.552,0.448,1,1,1h0.596C11.036,17.675,11,17.342,11,17c0-0.342,0.036-0.676,0.096-1
				H10.5z"/>
			<path d="M13,1c0-0.552-0.448-1-1-1h-1c-0.552,0-1,0.448-1,1c0,0.552,0.448,1,1,1h1C12.552,2,13,1.553,13,1z"/>
			<path d="M8,1c0-0.552-0.448-1-1-1H6c-0.552,0-1,0.448-1,1c0,0.552,0.448,1,1,1h1C7.552,2,8,1.553,8,1z"/>
			<path d="M8,17c0-0.552-0.448-1-1-1H6c-0.552,0-1,0.448-1,1c0,0.552,0.448,1,1,1h1C7.552,18,8,17.553,8,17z"/>
			<path d="M15.5,2H16v0.5c0,0.552,0.448,1,1,1s1-0.448,1-1V1c0-0.552-0.448-1-1-1h-1.5c-0.552,0-1,0.448-1,1
				C14.5,1.553,14.948,2,15.5,2z"/>
			<path d="M23.707,22.293l-3.402-3.402C20.743,18.197,21,17.379,21,16.5c0-2.482-2.019-4.5-4.5-4.5c-2.481,0-4.5,2.018-4.5,4.5
				s2.019,4.5,4.5,4.5c0.879,0,1.698-0.257,2.391-0.696l3.402,3.402c0.386,0.388,1.021,0.396,1.414,0
				C24.098,23.317,24.098,22.684,23.707,22.293z M17,18.5c0,0.276-0.224,0.5-0.5,0.5S16,18.776,16,18.5V17h-1.5
				c-0.276,0-0.5-0.224-0.5-0.5c0-0.276,0.224-0.5,0.5-0.5H16v-1.5c0-0.276,0.224-0.5,0.5-0.5s0.5,0.224,0.5,0.5V16h1.5
				c0.276,0,0.5,0.224,0.5,0.5c0,0.276-0.224,0.5-0.5,0.5H17V18.5z"/>
		</g>
	</g>
	<g id="New_icons">
	</g>
</g>
<g id="Frames-24px">
	<rect fill="none" width="24" height="24"/>
</g>
</svg>
