<?xml version="1.0" encoding="utf-8"?>
<!-- Generator: Adobe Illustrator 19.2.1, SVG Export Plug-In . SVG Version: 6.00 Build 0)  -->
<svg version="1.1" xmlns="http://www.w3.org/2000/svg" xmlns:xlink="http://www.w3.org/1999/xlink" x="0px" y="0px" width="24px"
	 height="24px" viewBox="0 0 24 24" enable-background="new 0 0 24 24" xml:space="preserve">
<g id="Filled_Icons_1_">
	<g id="Filled_Icons">
		<g>
			<path d="M23.501,17.562c-0.388-1.169-2.279-2.312-6.501-3.925v-0.866c0.486-0.325,1.381-1.158,1.489-2.928
				c0.367-0.23,0.597-0.727,0.597-1.361c0-0.563-0.182-1.018-0.48-1.274c0.241-0.685,0.657-1.91,0.378-3.03
				c-0.179-0.719-0.959-1.492-1.855-1.839c-0.842-0.327-1.697-0.245-2.407,0.228c-0.23,0.153-0.292,0.464-0.139,0.693
				c0.153,0.23,0.463,0.292,0.693,0.139c0.553-0.368,1.116-0.272,1.491-0.128c0.694,0.27,1.17,0.84,1.247,1.148
				c0.212,0.856-0.165,1.927-0.367,2.503C17.549,7.2,17.5,7.34,17.5,7.482c0,0.276,0.181,0.487,0.458,0.487
				c0.034,0.028,0.129,0.202,0.129,0.513c0,0.312-0.095,0.486-0.086,0.5c-0.276,0-0.5,0.224-0.5,0.5
				c0,1.986-1.148,2.519-1.191,2.538C16.122,12.098,16,12.28,16,12.482v1.5c0,0.208,0.129,0.395,0.324,0.468
				c1.439,0.543,5.818,2.193,6.228,3.428c0.338,1.017,0.421,3.138,0.442,4.105H21.5c-0.276,0-0.5,0.224-0.5,0.5
				c0,0.276,0.224,0.5,0.5,0.5h2c0.276,0,0.5-0.224,0.5-0.5C24,22.343,23.995,19.051,23.501,17.562z"/>
			<path d="M5.511,9.344C5.62,11.113,6.514,11.946,7,12.271v1.865c-0.423,0.157-0.857,0.312-1.287,0.467
				c-2.578,0.923-4.803,1.72-5.214,2.96C0.005,19.051,0,22.343,0,22.482c0,0.276,0.224,0.5,0.5,0.5h18c0.276,0,0.5-0.224,0.5-0.5
				c0-0.139-0.005-3.432-0.499-4.92c-0.413-1.241-2.479-1.981-5.095-2.918c-0.457-0.163-0.929-0.332-1.406-0.509v-1.864
				c0.486-0.325,1.381-1.158,1.489-2.928c0.367-0.23,0.597-0.727,0.597-1.361c0-0.558-0.178-1.009-0.471-1.266
				c0.243-0.636,0.645-1.749,0.369-2.855c-0.332-1.335-2.219-1.809-3.735-1.809c-1.342,0-2.977,0.372-3.563,1.384
				c-0.7-0.04-1.088,0.26-1.277,0.511C4.891,4.639,5.132,5.722,5.412,6.693C5.083,6.942,4.88,7.415,4.88,8
				C4.88,8.643,5.124,9.117,5.511,9.344z"/>
		</g>
	</g>
	<g id="New_icons">
	</g>
</g>
<g id="Invisible_Shape">
	<rect fill="none" width="24" height="24"/>
</g>
</svg>
