<?xml version="1.0" encoding="utf-8"?>
<!-- Generator: Adobe Illustrator 19.2.1, SVG Export Plug-In . SVG Version: 6.00 Build 0)  -->
<svg version="1.1" xmlns="http://www.w3.org/2000/svg" xmlns:xlink="http://www.w3.org/1999/xlink" x="0px" y="0px" width="24px"
	 height="24px" viewBox="0 0 24 24" enable-background="new 0 0 24 24" xml:space="preserve">
<g id="Filled_Icons_1_">
	<g id="Filled_Icons">
		<g>
			<path d="M20.563,8.406C20.563,3.145,15.701,0,11,0C5.393,0,1,4.42,1,10.062c0,3.6,1.345,6.275,4,7.957v5.48
				C5,23.776,5.224,24,5.5,24h10c0.276,0,0.5-0.224,0.5-0.5v-2.978c1.737-0.017,2.788-0.195,3.572-0.981
				c0.835-0.836,0.955-3.34,0.962-4.528c0.303,0.005,0.684,0.006,1.017-0.007c0.558,0,1.156-0.381,1.156-1.401
				C22.708,11.672,21.25,10.266,20.563,8.406z M17,15.5c0,0.276-0.224,0.5-0.5,0.5h-10C6.224,16,6,15.776,6,15.5v-10
				C6,5.224,6.224,5,6.5,5h10C16.776,5,17,5.224,17,5.5V15.5z"/>
			<path d="M14.5,8h-4C10.224,8,10,7.776,10,7.5S10.224,7,10.5,7h4C14.776,7,15,7.224,15,7.5S14.776,8,14.5,8z"/>
			<path d="M14.5,10h-6C8.224,10,8,9.776,8,9.5S8.224,9,8.5,9h6C14.776,9,15,9.224,15,9.5S14.776,10,14.5,10z"/>
			<path d="M14.5,12h-6C8.224,12,8,11.776,8,11.5S8.224,11,8.5,11h6c0.276,0,0.5,0.224,0.5,0.5S14.776,12,14.5,12z"/>
			<path d="M14.5,14h-6C8.224,14,8,13.776,8,13.5S8.224,13,8.5,13h6c0.276,0,0.5,0.224,0.5,0.5S14.776,14,14.5,14z"/>
		</g>
	</g>
	<g id="New_icons">
	</g>
</g>
<g id="Invisible_Shape">
	<rect fill="none" width="24" height="24"/>
</g>
</svg>
