<?xml version="1.0" encoding="utf-8"?>
<!-- Generator: Adobe Illustrator 19.2.1, SVG Export Plug-In . SVG Version: 6.00 Build 0)  -->
<svg version="1.1" xmlns="http://www.w3.org/2000/svg" xmlns:xlink="http://www.w3.org/1999/xlink" x="0px" y="0px" width="24px"
	 height="24px" viewBox="0 0 24 24" enable-background="new 0 0 24 24" xml:space="preserve">
<g id="Filled_Icons_1_">
	<g id="Filled_Icons">
	</g>
	<g id="New_icons">
		<g>
			<path d="M20,5.773V1.5C20,1.224,19.776,1,19.5,1H16c-0.276,0-0.5,0.224-0.5,0.5v0.165L20,5.773z"/>
			<path d="M23.837,10.631l-11.5-10.5c-0.19-0.175-0.483-0.175-0.674,0l-11.5,10.5c-0.204,0.186-0.219,0.502-0.032,0.706
				c0.187,0.205,0.503,0.22,0.706,0.032L12,1.177l11.163,10.192c0.203,0.188,0.52,0.173,0.706-0.032
				C24.056,11.133,24.041,10.817,23.837,10.631z"/>
			<path d="M12,2.531l-9,8.217V22.5C3,22.776,3.224,23,3.5,23h17c0.276,0,0.5-0.224,0.5-0.5V10.748L12,2.531z M17.34,20H6.66
				c-0.276,0-0.5-0.224-0.5-0.5c0-2.45,1.537-4.424,3.795-5.172C9.078,13.691,8.5,12.665,8.5,11.5C8.5,9.57,10.07,8,12,8
				s3.5,1.57,3.5,3.5c0,1.165-0.578,2.191-1.456,2.828c2.259,0.748,3.795,2.722,3.795,5.172C17.84,19.776,17.616,20,17.34,20z"/>
		</g>
	</g>
</g>
<g id="Invisible_Shape">
	<rect fill="none" width="24" height="24"/>
</g>
</svg>
