<?xml version="1.0" encoding="utf-8"?>
<!-- Generator: Adobe Illustrator 19.2.1, SVG Export Plug-In . SVG Version: 6.00 Build 0)  -->
<svg version="1.1" xmlns="http://www.w3.org/2000/svg" xmlns:xlink="http://www.w3.org/1999/xlink" x="0px" y="0px" width="24px"
	 height="24px" viewBox="0 0 24 24" enable-background="new 0 0 24 24" xml:space="preserve">
<g id="Filled_Icons_1_">
	<g id="Filled_Icons">
		<path d="M23.854,23.146l-7.302-7.303C18.068,14.16,19,11.94,19,9.5C19,4.262,14.738,0,9.5,0S0,4.262,0,9.5S4.262,19,9.5,19
			c2.439,0,4.66-0.932,6.344-2.449l7.303,7.302c0.195,0.195,0.512,0.195,0.707,0C24.049,23.658,24.049,23.342,23.854,23.146z
			 M14.458,15.294c-0.111,0.254-0.405,0.369-0.658,0.258l-2.5-1.094C11.118,14.378,11,14.199,11,14v-2
			c0-0.212,0.134-0.401,0.335-0.472h0C11.331,11.528,12,11.193,12,9.5c0-0.261,0.2-0.475,0.455-0.498
			c0.074-0.073,0.195-0.342,0.191-0.663c-0.003-0.216-0.062-0.321-0.084-0.336c-0.276,0-0.53-0.227-0.53-0.503
			c0-0.159,0.061-0.294,0.16-0.518c0.189-0.425,0.505-1.136,0.324-1.861C12.352,4.472,11.295,4,10,4S7.648,4.472,7.485,5.122
			C7.42,5.381,7.162,5.544,6.9,5.49C6.534,5.416,6.427,5.477,6.426,5.477C6.372,5.57,6.388,5.898,6.809,6.889
			C6.936,7.189,7,7.341,7,7.5C7,7.776,6.776,8,6.5,8C6.46,8,6.429,8,6.392,8.121c-0.098,0.317,0.04,0.773,0.153,0.881
			C6.8,9.024,7,9.239,7,9.5c0,1.705,0.678,2.033,0.685,2.036C7.863,11.617,8,11.804,8,12v2c0,0.199-0.118,0.378-0.3,0.458
			l-2.5,1.094c-0.253,0.111-0.547-0.004-0.658-0.258c-0.111-0.252,0.005-0.548,0.258-0.658L7,13.673v-0.01V12.28
			c-0.185-0.143-0.413-0.38-0.604-0.765c-0.001-0.002-0.002-0.004-0.003-0.006c-0.246-0.496-0.355-1.108-0.383-1.659
			c-0.431-0.285-0.65-0.946-0.65-1.482c0-0.441,0.141-0.901,0.497-1.164C5.566,6.521,5.187,5.54,5.599,4.918
			c0.236-0.355,0.645-0.483,1.078-0.463C7.234,3.398,8.777,3,10,3c1.233,0,2.767,0.388,3.334,1.485
			c0.288,0.556,0.38,1.492-0.154,2.732c0.335,0.265,0.466,0.706,0.466,1.136c0,0.54-0.214,1.207-0.655,1.498
			C12.946,10.729,12.7,11.741,12,12.28v1.393l2.2,0.963C14.453,14.746,14.569,15.042,14.458,15.294z"/>
	</g>
	<g id="New_icons">
	</g>
</g>
<g id="Invisible_Shape">
	<rect fill="none" width="24" height="24"/>
</g>
</svg>
