<?xml version="1.0" encoding="utf-8"?>
<!-- Generator: Adobe Illustrator 19.2.1, SVG Export Plug-In . SVG Version: 6.00 Build 0)  -->
<svg version="1.1" xmlns="http://www.w3.org/2000/svg" xmlns:xlink="http://www.w3.org/1999/xlink" x="0px" y="0px" width="24px"
	 height="24px" viewBox="0 0 24 24" enable-background="new 0 0 24 24" xml:space="preserve">
<g id="Filled_Icons_1_">
	<g id="Filled_Icons">
		<g>
			<path d="M14.471,22.065c4.404-0.339,9.546-1.783,9.546-4.738c0-2.278-3.123-3.772-7.093-4.435
				c-0.36,0.686-0.83,1.302-1.403,1.807c4.226,0.51,6.496,1.858,6.496,2.628c0,0.726-2.325,2.331-7.699,2.744
				c-0.551,0.043-0.963,0.523-0.92,1.073C13.438,21.668,13.954,22.065,14.471,22.065z"/>
			<circle cx="12" cy="3.508" r="3.5"/>
			<path d="M16.5,8.008h-9c-0.276,0-0.5,0.224-0.5,0.5c0,2.299,1.049,5.1,3,6.033v3.967c0,0.276,0.224,0.5,0.5,0.492h3
				c0.276,0.008,0.5-0.216,0.5-0.492v-3.967c1.951-0.934,3-3.734,3-6.033C17,8.231,16.776,8.008,16.5,8.008z"/>
			<path d="M10.061,20.44l-2.342-3.128c-0.331-0.443-0.958-0.533-1.399-0.202c-0.443,0.331-0.528,0.96-0.202,1.399l0.914,1.221
				c-3.494-0.644-5.048-1.824-5.048-2.404c0-0.77,2.27-2.118,6.496-2.628c-0.573-0.505-1.043-1.121-1.403-1.807
				c-3.97,0.663-7.093,2.156-7.093,4.435c0,2.25,2.923,3.62,6.326,4.3L5.449,22.14c-0.471,0.278-0.63,0.883-0.359,1.355
				c0.003,0.005,0.006,0.01,0.008,0.014c0.282,0.476,0.894,0.633,1.371,0.352l3.301-1.961c0.244-0.145,0.415-0.387,0.471-0.665
				C10.296,20.956,10.231,20.659,10.061,20.44z"/>
		</g>
	</g>
	<g id="New_icons">
	</g>
</g>
<g id="Invisible_Shape">
	<rect fill="none" width="24" height="24"/>
</g>
</svg>
