<?xml version="1.0" encoding="utf-8"?>
<!-- Generator: Adobe Illustrator 19.2.1, SVG Export Plug-In . SVG Version: 6.00 Build 0)  -->
<svg version="1.1" xmlns="http://www.w3.org/2000/svg" xmlns:xlink="http://www.w3.org/1999/xlink" x="0px" y="0px" width="24px"
	 height="24px" viewBox="0 0 24 24" enable-background="new 0 0 24 24" xml:space="preserve">
<g id="Filled_Icons_1_">
	<g id="Filled_Icons">
		<g>
			<path d="M14,10v5.5c0,1.208,0.86,2.217,2,2.45V24h4v-6.05c1.14-0.232,2-1.242,2-2.45V10H14z"/>
			<circle cx="18" cy="6" r="3"/>
			<path d="M11.962,3.309C11.885,3.122,11.702,3,11.5,3H2V1.531c0-0.276-0.224-0.5-0.5-0.5S1,1.255,1,1.531V23.5
				C1,23.776,1.224,24,1.5,24S2,23.776,2,23.5V10h9.5c0.202,0,0.385-0.122,0.462-0.309c0.078-0.187,0.035-0.401-0.108-0.545
				L9.207,6.5l2.647-2.647C11.997,3.71,12.04,3.496,11.962,3.309z"/>
		</g>
	</g>
	<g id="New_icons">
	</g>
</g>
<g id="Invisible_Shape">
	<rect fill="none" width="24" height="24"/>
</g>
</svg>
