<?xml version="1.0" encoding="utf-8"?>
<!-- Generator: Adobe Illustrator 19.2.1, SVG Export Plug-In . SVG Version: 6.00 Build 0)  -->
<svg version="1.1" xmlns="http://www.w3.org/2000/svg" xmlns:xlink="http://www.w3.org/1999/xlink" x="0px" y="0px" width="24px"
	 height="24px" viewBox="0 0 24 24" enable-background="new 0 0 24 24" xml:space="preserve">
<g id="Filled_Icons_1_">
	<g id="Filled_Icons">
		<g>
			<path d="M6.5,3h4.244l0.804,1.713C11.631,4.889,11.807,5,12.001,5H17.5C17.776,5,18,4.776,18,4.5S17.776,4,17.5,4h-5.182
				l-0.804-1.713C11.432,2.112,11.255,2,11.061,2H6.5C6.224,2,6,2.224,6,2.5S6.224,3,6.5,3z"/>
			<path d="M7.5,1h4.244l0.804,1.713C12.631,2.889,12.807,3,13.001,3H16.5C16.776,3,17,2.776,17,2.5S16.776,2,16.5,2h-3.182
				l-0.804-1.713C12.432,0.112,12.255,0,12.061,0H7.5C7.224,0,7,0.224,7,0.5S7.224,1,7.5,1z"/>
			<path d="M23.932,16.248l-3.5-6C20.342,10.095,20.178,10,20,10h-1V6.5C19,6.224,18.776,6,18.5,6h-7.182l-0.804-1.713
				C10.432,4.112,10.255,4,10.061,4H5.5C5.224,4,5,4.224,5,4.5V10H4c-0.178,0-0.342,0.095-0.432,0.248l-3.5,6
				C0.023,16.324,0,16.411,0,16.5v7C0,23.776,0.224,24,0.5,24h23c0.276,0,0.5-0.224,0.5-0.5v-7
				C24,16.411,23.977,16.324,23.932,16.248z M11.532,10.656c-0.451-0.307-0.746-0.822-0.746-1.407c0-0.938,0.76-1.7,1.7-1.7
				c0.938,0,1.7,0.761,1.7,1.699c0,0.586-0.296,1.102-0.746,1.408c1.193,0.4,2.06,1.143,2.06,2.844H9.473
				C9.473,11.799,10.338,11.057,11.532,10.656z M16.5,16C16.224,16,16,16.224,16,16.5v1c0,0.827-0.673,1.5-1.5,1.5H10
				c-0.827,0-1.5-0.673-1.5-1.5v-1C8.5,16.224,8.276,16,8,16H1.37l2.917-5H5v3.5C5,14.776,5.224,15,5.5,15h13
				c0.276,0,0.5-0.224,0.5-0.5V11h0.713l2.917,5H16.5z"/>
		</g>
	</g>
	<g id="New_icons">
	</g>
</g>
<g id="Invisible_Shape">
	<rect fill="none" width="24" height="24"/>
</g>
</svg>
