<?xml version="1.0" encoding="utf-8"?>
<!-- Generator: Adobe Illustrator 19.2.1, SVG Export Plug-In . SVG Version: 6.00 Build 0)  -->
<svg version="1.1" xmlns="http://www.w3.org/2000/svg" xmlns:xlink="http://www.w3.org/1999/xlink" x="0px" y="0px" width="24px"
	 height="24px" viewBox="0 0 24 24" enable-background="new 0 0 24 24" xml:space="preserve">
<g id="Filled_Icons_1_">
	<g id="Filled_Icons">
		<g>
			<circle cx="12.5" cy="4" r="4"/>
			<path d="M4,11V2.207l2.147,2.146c0.195,0.195,0.512,0.195,0.707,0c0.195-0.195,0.195-0.512,0-0.707l-3-3
				c-0.195-0.195-0.512-0.195-0.707,0l-3,2.999c-0.195,0.196-0.195,0.512,0,0.707c0.196,0.197,0.512,0.197,0.707,0.001
				C0.855,4.352,1.804,3.404,3,2.207V11c0,0.276,0.224,0.5,0.5,0.5S4,11.276,4,11z"/>
			<path d="M20,13v8.793l-2.146-2.146c-0.195-0.195-0.512-0.195-0.707,0c-0.195,0.195-0.195,0.512,0,0.707l3,3
				c0.195,0.195,0.512,0.195,0.707,0l3-3c0.195-0.194,0.195-0.511,0-0.707c-0.196-0.195-0.512-0.195-0.708-0.001
				c-0.001,0.001-0.949,0.95-2.146,2.147V13c0-0.276-0.224-0.5-0.5-0.5S20,12.724,20,13z"/>
			<path d="M18,9H7C6.724,9,6.5,9.224,6.5,9.5c0,4.828,2.083,6.923,3.5,7.789V23.5c0,0.276,0.224,0.5,0.5,0.5h4
				c0.276,0,0.5-0.224,0.5-0.5v-6.211c1.417-0.866,3.5-2.962,3.5-7.789C18.5,9.224,18.276,9,18,9z"/>
		</g>
	</g>
	<g id="New_icons">
	</g>
</g>
<g id="Invisible_Shape">
	<rect fill="none" width="24" height="24"/>
</g>
</svg>
