<?xml version="1.0" encoding="utf-8"?>
<!-- Generator: Adobe Illustrator 19.2.1, SVG Export Plug-In . SVG Version: 6.00 Build 0)  -->
<svg version="1.1" xmlns="http://www.w3.org/2000/svg" xmlns:xlink="http://www.w3.org/1999/xlink" x="0px" y="0px" width="24px"
	 height="24px" viewBox="0 0 24 24" enable-background="new 0 0 24 24" xml:space="preserve">
<g id="Filled_Icons_1_">
	<g id="Filled_Icons">
		<g>
			<rect x="9" y="12" width="1" height="2"/>
			<rect x="15" y="7" width="1" height="2"/>
			<rect x="7" y="7" width="1" height="2"/>
			<path d="M20.563,8.406C20.563,3.145,15.701,0,11,0C5.393,0,1,4.42,1,10.062c0,3.6,1.345,6.275,4,7.957v5.48
				C5,23.776,5.224,24,5.5,24h10c0.276,0,0.5-0.224,0.5-0.5v-2.978c1.737-0.017,2.788-0.195,3.572-0.981
				c0.835-0.836,0.955-3.34,0.962-4.528c0.303,0.005,0.684,0.006,1.017-0.007c0.558,0,1.156-0.381,1.156-1.401
				C22.708,11.672,21.25,10.266,20.563,8.406z M6,6h3v4H6V6z M7,15H6v-4h1V15z M11,15H8v-4h3V15z M11,10h-1V6h1V10z M13,15h-1v-4h1
				V15z M13,10h-1V6h1V10z M15,15h-1v-4h1V15z M17,15h-1v-4h1V15z M17,10h-3V6h3V10z"/>
		</g>
	</g>
	<g id="New_icons">
	</g>
</g>
<g id="Invisible_Shape">
	<rect fill="none" width="24" height="24"/>
</g>
</svg>
