<?xml version="1.0" encoding="utf-8"?>
<!-- Generator: Adobe Illustrator 19.2.1, SVG Export Plug-In . SVG Version: 6.00 Build 0)  -->
<svg version="1.1" xmlns="http://www.w3.org/2000/svg" xmlns:xlink="http://www.w3.org/1999/xlink" x="0px" y="0px" width="24px"
	 height="24px" viewBox="0 0 24 24" enable-background="new 0 0 24 24" xml:space="preserve">
<g id="Filled_Icons_1_">
	<g id="Filled_Icons">
		<path d="M21.63,4.518c-0.074-0.02-7.398-2.017-9.769-4.391c-0.188-0.19-0.537-0.19-0.725,0C8.769,2.5,1.443,4.498,1.37,4.518
			C1.151,4.576,1,4.774,1,5c0,8.568,0.76,15.405,10.326,18.948c0.056,0.021,0.115,0.031,0.174,0.031s0.118-0.011,0.174-0.031
			C21.24,20.405,22,13.568,22,5C22,4.774,21.849,4.576,21.63,4.518z M16.84,17H6.16c-0.276,0-0.5-0.224-0.5-0.5
			c0-2.516,1.602-4.658,3.836-5.479C8.594,10.389,8,9.344,8,8.16c0-1.93,1.57-3.5,3.5-3.5s3.5,1.57,3.5,3.5
			c0,1.184-0.594,2.228-1.496,2.861c2.234,0.82,3.836,2.963,3.836,5.479C17.34,16.776,17.116,17,16.84,17z"/>
	</g>
	<g id="New_icons">
	</g>
</g>
<g id="Invisible_Shape">
	<rect fill="none" width="24" height="24"/>
</g>
</svg>
