<?xml version="1.0" encoding="utf-8"?>
<!-- Generator: Adobe Illustrator 19.2.1, SVG Export Plug-In . SVG Version: 6.00 Build 0)  -->
<svg version="1.1" xmlns="http://www.w3.org/2000/svg" xmlns:xlink="http://www.w3.org/1999/xlink" x="0px" y="0px" width="24px"
	 height="24px" viewBox="0 0 24 24" enable-background="new 0 0 24 24" xml:space="preserve">
<g id="Filled_Icons_1_">
	<g id="Filled_Icons">
		<g>
			<circle cx="4" cy="10.5" r="2.5"/>
			<path d="M7.5,14h-7C0.224,14,0,14.224,0,14.5c0,2.389,0.16,4.588,2,5.313V23.5C2,23.776,2.224,24,2.5,24h3
				C5.776,24,6,23.776,6,23.5v-3.687c1.84-0.725,2-2.925,2-5.313C8,14.224,7.776,14,7.5,14z"/>
			<circle cx="20" cy="10.5" r="2.5"/>
			<path d="M23.5,14h-7c-0.276,0-0.5,0.224-0.5,0.5c0,2.389,0.16,4.588,2,5.313V23.5c0,0.276,0.224,0.5,0.5,0.5h3
				c0.276,0,0.5-0.224,0.5-0.5v-3.687c1.84-0.725,2-2.925,2-5.313C24,14.224,23.776,14,23.5,14z"/>
			<circle cx="12" cy="2.5" r="2.5"/>
			<path d="M15.5,6h-7C8.224,6,8,6.224,8,6.5c0,2.389,0.16,4.588,2,5.314V15.5c0,0.276,0.224,0.5,0.5,0.5h3
				c0.276,0,0.5-0.224,0.5-0.5v-3.686c1.84-0.725,2-2.925,2-5.314C16,6.224,15.776,6,15.5,6z"/>
		</g>
	</g>
	<g id="New_icons">
	</g>
</g>
<g id="Invisible_Shape">
	<rect fill="none" width="24" height="24"/>
</g>
</svg>
