<?xml version="1.0" encoding="utf-8"?>
<!-- Generator: Adobe Illustrator 19.2.1, SVG Export Plug-In . SVG Version: 6.00 Build 0)  -->
<svg version="1.1" xmlns="http://www.w3.org/2000/svg" xmlns:xlink="http://www.w3.org/1999/xlink" x="0px" y="0px" width="24px"
	 height="24px" viewBox="0 0 24 24" enable-background="new 0 0 24 24" xml:space="preserve">
<g id="Filled_Icons_1_">
	<g id="Filled_Icons">
	</g>
	<g id="New_icons">
		<path d="M20.5,6.99h-17c-1.93,0-3.5,1.57-3.5,3.5V20.5C0,22.43,1.57,24,3.5,24h17c1.93,0,3.5-1.57,3.5-3.5V10.49
			C24,8.561,22.43,6.99,20.5,6.99z M17,19.487C17,22,12.484,22,11,22H8c-1.484,0-6,0-6-2.513v-8C2,9.258,5.424,9,8,9h3
			c2.576,0,6,0.258,6,2.487V19.487z M20,18.987c-1.103,0-2-0.898-2-2c0-1.103,0.897-2,2-2s2,0.898,2,2
			C22,18.09,21.103,18.987,20,18.987z M20,13.987c-1.103,0-2-0.898-2-2s0.897-2,2-2s2,0.898,2,2S21.103,13.987,20,13.987z"/>
		<path d="M11.186,15.334C11.683,14.877,12,14.227,12,13.5c0-1.379-1.122-2.5-2.5-2.5S7,12.121,7,13.5
			c0,0.727,0.317,1.377,0.814,1.834C6.167,16.003,5,17.615,5,19.5C5,19.776,5.224,20,5.5,20h8c0.276,0,0.5-0.224,0.5-0.5
			C14,17.615,12.833,16.003,11.186,15.334z"/>
		<path d="M17.854,0.147c-0.195-0.195-0.512-0.195-0.707,0l-3.231,3.231C13.364,3.148,12.727,3,12,3s-1.364,0.148-1.915,0.378
			L6.853,0.147c-0.195-0.195-0.512-0.195-0.707,0s-0.195,0.512,0,0.707l3.025,3.025C8.06,4.65,7.5,5.695,7.5,6h9
			c0-0.305-0.56-1.35-1.672-2.121l3.025-3.025C18.049,0.658,18.049,0.342,17.854,0.147z"/>
	</g>
</g>
<g id="Invisible_Shape">
	<rect fill="none" width="24" height="24"/>
</g>
</svg>
