<?xml version="1.0" encoding="utf-8"?>
<!-- Generator: Adobe Illustrator 19.2.1, SVG Export Plug-In . SVG Version: 6.00 Build 0)  -->
<svg version="1.1" xmlns="http://www.w3.org/2000/svg" xmlns:xlink="http://www.w3.org/1999/xlink" x="0px" y="0px" width="24px"
	 height="24px" viewBox="0 0 24 24" enable-background="new 0 0 24 24" xml:space="preserve">
<g id="Filled_Icons_1_">
	<g id="Filled_Icons">
		<g>
			<path d="M11.813,7.242c-0.728,0-1.324-0.296-1.823-0.906C9.415,6.84,8.536,7.191,7.729,7.191c-0.303,0-0.617-0.055-0.918-0.132
				C6.811,7.095,6.803,7.128,6.803,7.163c0,1.84,1.21,3.337,2.697,3.337c1.476,0,2.675-1.476,2.693-3.296
				C12.064,7.22,11.934,7.242,11.813,7.242z"/>
			<path d="M9.589,5.279c0.084-0.162,0.251-0.264,0.433-0.268c0.195,0.012,0.353,0.093,0.443,0.252
				c0.446,0.78,0.9,1.039,1.604,0.948C11.737,4.837,10.718,3.827,9.5,3.827c-1.175,0-2.166,0.94-2.535,2.238
				C7.211,6.138,7.48,6.191,7.729,6.191C8.453,6.191,9.339,5.757,9.589,5.279z"/>
			<path d="M23.854,23.146l-7.302-7.303C18.068,14.16,19,11.94,19,9.5C19,4.262,14.738,0,9.5,0S0,4.262,0,9.5S4.262,19,9.5,19
				c2.439,0,4.66-0.932,6.344-2.449l7.303,7.302C23.244,23.951,23.372,24,23.5,24s0.256-0.049,0.354-0.146
				C24.049,23.658,24.049,23.342,23.854,23.146z M15.461,14.193c-0.106,0.255-0.4,0.375-0.654,0.267l-4-1.678
				c-0.185-0.078-0.307-0.259-0.307-0.461v-1.004c-0.32,0.106-0.651,0.182-1,0.182s-0.68-0.075-1-0.182v1.004
				c0,0.202-0.121,0.383-0.307,0.461l-4,1.678c-0.254,0.108-0.548-0.013-0.654-0.267c-0.108-0.254,0.013-0.548,0.268-0.654
				L7.5,11.99v-1.189c-1.019-0.774-1.697-2.112-1.697-3.638c0-2.391,1.659-4.336,3.697-4.336c2.038,0,3.696,1.945,3.696,4.336
				c0,1.526-0.679,2.863-1.696,3.637v1.19l3.693,1.549C15.448,13.646,15.569,13.939,15.461,14.193z"/>
		</g>
	</g>
	<g id="New_icons">
	</g>
</g>
<g id="Invisible_Shape">
	<rect fill="none" width="24" height="24"/>
</g>
</svg>
