<?xml version="1.0" encoding="utf-8"?>
<!-- Generator: Adobe Illustrator 19.2.1, SVG Export Plug-In . SVG Version: 6.00 Build 0)  -->
<svg version="1.1" xmlns="http://www.w3.org/2000/svg" xmlns:xlink="http://www.w3.org/1999/xlink" x="0px" y="0px" width="24px"
	 height="24px" viewBox="0 0 24 24" enable-background="new 0 0 24 24" xml:space="preserve">
<g id="Filled_Icons_1_">
	<g id="Filled_Icons">
		<path d="M23.837,12.131l-11.5-11c-0.19-0.175-0.483-0.175-0.674,0l-11.5,11c-0.153,0.139-0.204,0.357-0.129,0.55
			C0.108,12.873,0.294,13,0.5,13H3v10.5C3,23.776,3.224,24,3.5,24h17c0.276,0,0.5-0.224,0.5-0.5V13h2.5
			c0.206,0,0.392-0.127,0.466-0.319C24.041,12.488,23.99,12.27,23.837,12.131z M8.5,9C9.328,9,10,9.672,10,10.5S9.328,12,8.5,12
			S7,11.328,7,10.5S7.672,9,8.5,9z M11,16.001c-0.001,0.823-0.176,1.5-1,1.5V22H7v-4.499c-0.825,0-1-0.676-1-1.5V13.5
			C6,13.224,6.224,13,6.5,13h4c0.276,0,0.5,0.224,0.5,0.5V16.001z M15.5,9c0.828,0,1.5,0.672,1.5,1.5S16.328,12,15.5,12
			S14,11.328,14,10.5S14.672,9,15.5,9z M18,16.001c-0.001,0.823-0.176,1.5-1,1.5V22h-3v-4.499c-0.825,0-1-0.676-1-1.5V13.5
			c0-0.276,0.224-0.5,0.5-0.5h4c0.276,0,0.5,0.224,0.5,0.5V16.001z"/>
	</g>
	<g id="New_icons">
	</g>
</g>
<g id="Invisible_Shape">
	<rect fill="none" width="24" height="24"/>
</g>
</svg>
