<?xml version="1.0" encoding="utf-8"?>
<!-- Generator: Adobe Illustrator 19.2.1, SVG Export Plug-In . SVG Version: 6.00 Build 0)  -->
<svg version="1.1" xmlns="http://www.w3.org/2000/svg" xmlns:xlink="http://www.w3.org/1999/xlink" x="0px" y="0px" width="24px"
	 height="24px" viewBox="0 0 24 24" enable-background="new 0 0 24 24" xml:space="preserve">
<g id="Filled_Icons_1_">
	<g id="Filled_Icons">
		<g>
			<g>
				<path d="M22.675,8.245L20.5,7.623V6.862C21.406,6.18,22,5.05,22,3.772c-0.925,0.234-2.326,0.185-3.066-0.418
					c-1.069,0.661-2.745,0.603-3.917,0.074C15.007,3.541,15,3.655,15,3.772c0,1.278,0.595,2.408,1.5,3.091v0.761l-2.176,0.622
					C13.582,8.457,13,9.229,13,10v1h11v-1C24,9.227,23.418,8.457,22.675,8.245z"/>
				<path d="M18.646,2.317c0.112-0.112,0.271-0.165,0.426-0.142c0.156,0.023,0.293,0.119,0.368,0.258
					c0.303,0.563,1.816,0.519,2.43,0.335C21.461,1.175,20.107,0,18.5,0c-1.491,0-2.763,1.011-3.267,2.429
					C16.224,2.991,17.982,2.981,18.646,2.317z"/>
				<path d="M8.733,15.429c0.991,0.562,2.748,0.553,3.413-0.111c0.112-0.112,0.271-0.165,0.426-0.142
					c0.156,0.023,0.293,0.119,0.368,0.258c0.303,0.562,1.817,0.519,2.43,0.335C14.961,14.175,13.607,13,12,13
					C10.509,13,9.237,14.011,8.733,15.429z"/>
				<path d="M16.175,21.245L14,20.623v-0.761c0.906-0.683,1.5-1.812,1.5-3.091c-0.925,0.234-2.326,0.185-3.066-0.418
					c-1.069,0.661-2.745,0.603-3.918,0.074C8.507,16.541,8.5,16.655,8.5,16.771c0,1.278,0.595,2.408,1.5,3.091v0.761l-2.176,0.622
					C7.082,21.457,6.5,22.229,6.5,23v1h11v-1C17.5,22.228,16.918,21.457,16.175,21.245z"/>
				<path d="M11,10c0-0.773-0.582-1.543-1.325-1.755L7.5,7.623V6.862C8.406,6.18,9,5.05,9,3.772
					C8.075,4.006,6.674,3.957,5.934,3.353C4.865,4.015,3.189,3.957,2.016,3.428C2.007,3.541,2,3.655,2,3.772
					C2,5.05,2.595,6.18,3.5,6.862v0.761L1.324,8.245C0.581,8.457,0,9.229,0,10v1h11V10z"/>
				<path d="M5.647,2.317c0.112-0.112,0.27-0.165,0.426-0.142C6.229,2.199,6.366,2.295,6.44,2.434
					c0.303,0.563,1.816,0.519,2.43,0.335C8.461,1.175,7.107,0,5.5,0C4.009,0,2.737,1.011,2.233,2.429
					C3.224,2.991,4.982,2.981,5.647,2.317z"/>
			</g>
			<g>
				<path d="M6.853,15.354L6.853,15.354c-0.196,0.196-0.513,0.195-0.708,0l-2.5-2.501c-0.195-0.195-0.194-0.512,0-0.707l0,0
					c0.195-0.194,0.512-0.194,0.707,0l2.501,2.501C7.049,14.842,7.048,15.159,6.853,15.354z"/>
			</g>
			<g>
				<path d="M17.146,15.354L17.146,15.354c0.196,0.196,0.513,0.195,0.708,0l2.5-2.501c0.195-0.195,0.194-0.512,0-0.707l0,0
					c-0.195-0.194-0.512-0.194-0.707,0l-2.501,2.501C16.951,14.842,16.952,15.159,17.146,15.354z"/>
			</g>
		</g>
	</g>
	<g id="New_icons">
	</g>
</g>
<g id="Invisible_Shape">
	<rect fill="none" width="24" height="24"/>
</g>
</svg>
