<?xml version="1.0" encoding="utf-8"?>
<!-- Generator: Adobe Illustrator 19.2.1, SVG Export Plug-In . SVG Version: 6.00 Build 0)  -->
<svg version="1.1" xmlns="http://www.w3.org/2000/svg" xmlns:xlink="http://www.w3.org/1999/xlink" x="0px" y="0px" width="24px"
	 height="24px" viewBox="0 0 24 24" enable-background="new 0 0 24 24" xml:space="preserve">
<g id="Filled_Icons_1_">
	<g id="Filled_Icons">
		<circle cx="12" cy="4" r="3"/>
		<circle cx="19" cy="5" r="2"/>
		<circle cx="5" cy="5" r="2"/>
		<path d="M3.5,16h3C6.776,16,7,15.776,7,15.5V10c0-1.104-0.897-2-2-2s-2,0.896-2,2v5.5C3,15.776,3.224,16,3.5,16z"/>
		<path d="M17.5,16h3c0.276,0,0.5-0.224,0.5-0.5V10c0-1.104-0.897-2-2-2s-2,0.896-2,2v5.5C17,15.776,17.224,16,17.5,16z"/>
		<path d="M9.5,18h5c0.276,0,0.5-0.224,0.5-0.5V11c0-1.654-1.346-3-3-3s-3,1.346-3,3v6.5C9,17.776,9.224,18,9.5,18z"/>
		<path d="M16,18.128V18.5c0,0.276-0.224,0.5-0.5,0.5h-7C8.224,19,8,18.776,8,18.5v-0.372c-3.513,0.218-8,0.803-8,2.372
			C0,22.929,10.772,23,12,23s12-0.071,12-2.5C24,18.932,19.513,18.347,16,18.128z"/>
	</g>
	<g id="New_icons">
	</g>
</g>
<g id="Invisible_Shape">
	<rect fill="none" width="24" height="24"/>
</g>
</svg>
