<?xml version="1.0" encoding="utf-8"?>
<!-- Generator: Adobe Illustrator 19.2.1, SVG Export Plug-In . SVG Version: 6.00 Build 0)  -->
<svg version="1.1" xmlns="http://www.w3.org/2000/svg" xmlns:xlink="http://www.w3.org/1999/xlink" x="0px" y="0px" width="24px"
	 height="24px" viewBox="0 0 24 24" enable-background="new 0 0 24 24" xml:space="preserve">
<g id="Filled_Icons_1_">
	<g id="Filled_Icons">
		<path d="M20.563,8.406C20.563,3.145,15.701,0,11,0C5.393,0,1,4.42,1,10.062c0,3.6,1.345,6.275,4,7.957v5.48
			C5,23.776,5.224,24,5.5,24h10c0.276,0,0.5-0.224,0.5-0.5v-2.978c1.737-0.017,2.788-0.195,3.572-0.981
			c0.835-0.836,0.955-3.34,0.962-4.528c0.303,0.005,0.684,0.006,1.017-0.007c0.558,0,1.156-0.381,1.156-1.401
			C22.708,11.672,21.25,10.266,20.563,8.406z M15.505,7.777l-5.792,8.696c-0.129,0.194-0.374,0.283-0.598,0.191
			c-0.225-0.093-0.335-0.328-0.29-0.558L9.837,11H7.722c-0.167,0-0.323-0.084-0.416-0.223c-0.093-0.138-0.11-0.314-0.047-0.468
			l2.89-7C10.227,3.122,10.409,3,10.611,3h3.539c0.168,0,0.325,0.084,0.417,0.226c0.093,0.14,0.108,0.318,0.042,0.472L13.186,7
			h1.903c0.184,0,0.354,0.102,0.44,0.264C15.617,7.427,15.607,7.623,15.505,7.777z"/>
	</g>
	<g id="New_icons">
	</g>
</g>
<g id="Invisible_Shape">
	<rect fill="none" width="24" height="24"/>
</g>
</svg>
