<?xml version="1.0" encoding="utf-8"?>
<!-- Generator: Adobe Illustrator 19.2.1, SVG Export Plug-In . SVG Version: 6.00 Build 0)  -->
<svg version="1.1" xmlns="http://www.w3.org/2000/svg" xmlns:xlink="http://www.w3.org/1999/xlink" x="0px" y="0px" width="24px"
	 height="24px" viewBox="0 0 24 24" enable-background="new 0 0 24 24" xml:space="preserve">
<g id="Filled_Icons_1_">
	<g id="Filled_Icons">
		<g>
			<circle cx="11.969" cy="6.5" r="3.5"/>
			<path d="M16.469,11h-9c-0.276,0-0.5,0.224-0.5,0.5c0,2.298,1.048,5.1,3.031,6.033V21.5c-0.031,0.276,0.192,0.5,0.469,0.5h3
				c0.276,0,0.5-0.224,0.5-0.5v-3.967c1.952-0.934,3-3.735,3-6.033C16.969,11.224,16.745,11,16.469,11z"/>
			<path d="M7,1c0-0.552-0.448-1-1-1H1C0.448,0,0,0.448,0,1v5c0,0.552,0.448,1,1,1s1-0.448,1-1V3.414l2.793,2.794
				c0.39,0.39,1.023,0.391,1.414,0c0.391-0.391,0.39-1.024,0-1.414L3.414,2H6C6.552,2,7,1.552,7,1z"/>
			<path d="M17,1c0-0.552,0.448-1,1-1h5c0.552,0,1,0.448,1,1v5c0,0.552-0.448,1-1,1s-1-0.448-1-1V3.414l-2.793,2.794
				c-0.39,0.39-1.023,0.391-1.414,0c-0.391-0.391-0.39-1.024,0-1.414L20.586,2H18C17.448,2,17,1.552,17,1z"/>
			<path d="M7,23c0,0.552-0.448,1-1,1H1c-0.552,0-1-0.448-1-1v-5c0-0.552,0.448-1,1-1s1,0.448,1,1v2.586l2.793-2.794
				c0.39-0.39,1.023-0.391,1.414,0c0.391,0.391,0.39,1.024,0,1.414L3.414,22H6C6.552,22,7,22.448,7,23z"/>
			<path d="M17,23c0,0.552,0.448,1,1,1h5c0.552,0,1-0.448,1-1v-5c0-0.552-0.448-1-1-1s-1,0.448-1,1v2.586l-2.793-2.794
				c-0.39-0.39-1.023-0.391-1.414,0c-0.391,0.391-0.39,1.024,0,1.414L20.586,22H18C17.448,22,17,22.448,17,23z"/>
		</g>
	</g>
	<g id="New_icons">
	</g>
</g>
<g id="Invisible_Shape">
	<rect fill="none" width="24" height="24"/>
</g>
</svg>
