<?xml version="1.0" encoding="utf-8"?>
<!-- Generator: Adobe Illustrator 19.2.1, SVG Export Plug-In . SVG Version: 6.00 Build 0)  -->
<svg version="1.1" xmlns="http://www.w3.org/2000/svg" xmlns:xlink="http://www.w3.org/1999/xlink" x="0px" y="0px" width="24px"
	 height="24px" viewBox="0 0 24 24" enable-background="new 0 0 24 24" xml:space="preserve">
<g id="Filled_Icons_1_">
	<g id="Filled_Icons">
	</g>
	<g id="New_icons">
		<g>
			<path d="M23.5,0.016c-0.276,0-0.5,0.224-0.5,0.5v0.599l-8.024,1.783C14.922,2.68,14.734,2.516,14.5,2.516
				c-0.276,0-0.5,0.224-0.5,0.5v3c0,0.276,0.224,0.5,0.5,0.5c0.234,0,0.422-0.164,0.476-0.382L16,6.361v0.654c0,1.103,0.897,2,2,2
				c1.024,0,1.861-0.777,1.977-1.771L23,7.917v0.599c0,0.276,0.224,0.5,0.5,0.5s0.5-0.224,0.5-0.5v-8
				C24,0.239,23.776,0.016,23.5,0.016z M18,8.016c-0.551,0-1-0.448-1-1V6.584l1.998,0.443C18.991,7.573,18.547,8.016,18,8.016z"/>
			<g>
				<g>
					<circle cx="6.5" cy="4.016" r="4"/>
				</g>
				<path d="M4,20.016v3.5c0,0.276,0.224,0.5,0.5,0.5h4c0.276,0,0.5-0.224,0.5-0.5v-3.5H4z"/>
				<g>
					<path d="M6.501,12.641l2.359-3.282C8.131,8.82,7.332,8.516,6.5,8.516S4.869,8.82,4.141,9.357L6.501,12.641z"/>
					<path d="M9.617,10.034l-2.71,3.77c-0.188,0.262-0.624,0.262-0.812,0l-2.71-3.771C1.67,11.816,0.5,14.982,0.5,18.516
						c0,0.276,0.224,0.5,0.5,0.5h11c0.276,0,0.5-0.224,0.5-0.5C12.5,14.983,11.33,11.818,9.617,10.034z"/>
				</g>
			</g>
		</g>
	</g>
</g>
<g id="Invisible_Shape">
	<rect fill="none" width="24" height="24"/>
</g>
</svg>
