<?xml version="1.0" encoding="utf-8"?>
<!-- Generator: Adobe Illustrator 19.2.1, SVG Export Plug-In . SVG Version: 6.00 Build 0)  -->
<svg version="1.1" xmlns="http://www.w3.org/2000/svg" xmlns:xlink="http://www.w3.org/1999/xlink" x="0px" y="0px" width="24px"
	 height="24px" viewBox="0 0 24 24" enable-background="new 0 0 24 24" xml:space="preserve">
<g id="Filled_Icons_1_">
	<g id="Filled_Icons">
		<g>
			<path d="M23.63,3.934c-0.059-0.016-5.893-1.605-7.77-3.486c-0.188-0.188-0.546-0.188-0.733,0
				c-0.808,0.81-2.349,1.563-3.847,2.163C11.409,3.055,11.5,3.515,11.5,4c0,1.642-0.806,3.088-2.031,4C12.566,8,11.105,8,14,8V5.5
				C14,5.224,14.224,5,14.5,5h2C16.776,5,17,5.224,17,5.5V8h2.5C19.776,8,20,8.224,20,8.5v2c0,0.276-0.224,0.5-0.5,0.5H17v2.5
				c0,0.276-0.224,0.5-0.5,0.5h-2c-0.276,0-0.5-0.224-0.5-0.5V11h-0.584c-0.256,2.521-1.156,4.635-2.603,6.095
				c1.135,1.005,2.6,1.871,4.5,2.574c0.056,0.021,0.115,0.031,0.174,0.031H15.5c0.059,0,0.118-0.011,0.174-0.031
				C23.387,16.812,24,11.311,24,4.417C24,4.191,23.849,3.993,23.63,3.934z"/>
			<g>
				<circle cx="6.5" cy="4" r="4"/>
				<path d="M12,9H7.46l0.558,6.689L6.5,17.207l-1.518-1.518L5.54,9H1C0.724,9,0.5,9.224,0.5,9.5c0,3.554,1.271,6.369,3.5,7.783
					V23.5C4,23.776,4.224,24,4.5,24h4C8.776,24,9,23.776,9,23.5v-6.217c2.229-1.414,3.5-4.23,3.5-7.783C12.5,9.224,12.276,9,12,9z"
					/>
			</g>
		</g>
	</g>
	<g id="New_icons">
	</g>
</g>
<g id="Invisible_Shape">
	<rect fill="none" width="24" height="24"/>
</g>
</svg>
