<?xml version="1.0" encoding="utf-8"?>
<!-- Generator: Adobe Illustrator 19.2.1, SVG Export Plug-In . SVG Version: 6.00 Build 0)  -->
<svg version="1.1" xmlns="http://www.w3.org/2000/svg" xmlns:xlink="http://www.w3.org/1999/xlink" x="0px" y="0px" width="24px"
	 height="24px" viewBox="0 0 24 24" enable-background="new 0 0 24 24" xml:space="preserve">
<g id="Filled_Icons_1_">
	<g id="Filled_Icons">
	</g>
	<g id="New_icons">
		<g>
			<g>
				<circle cx="6.5" cy="4" r="4"/>
				<path d="M12,9H7.46l0.558,6.689L6.5,17.207l-1.518-1.518L5.54,9H1C0.724,9,0.5,9.224,0.5,9.5c0,3.554,1.271,6.369,3.5,7.783
					V23.5C4,23.776,4.224,24,4.5,24h4C8.776,24,9,23.776,9,23.5v-6.217c2.229-1.414,3.5-4.23,3.5-7.783C12.5,9.224,12.276,9,12,9z"
					/>
			</g>
			<path d="M23.729,5.403c-0.167-0.086-0.368-0.072-0.52,0.037c-0.345,0.246-1.396,0.884-2.102,0.884c-0.212,0-0.607,0-0.607-0.977
				c0-1.165-0.607-1.833-1.667-1.833c-1.468,0-3.524,1.359-3.611,1.417C15.083,5.024,15,5.181,15,5.348V23.5
				c0,0.276,0.224,0.5,0.5,0.5s0.5-0.224,0.5-0.5V11.622c0.656-0.403,1.978-1.108,2.833-1.108c0.337,0,0.667,0.064,0.667,0.833
				c0,1.943,1.313,2.153,1.877,2.153h0c1.1,0,2.319-0.69,2.37-0.719C23.904,12.692,24,12.527,24,12.348v-6.5
				C24,5.66,23.896,5.489,23.729,5.403z"/>
		</g>
	</g>
</g>
<g id="Invisible_Shape">
	<rect fill="none" width="24" height="24"/>
</g>
</svg>
