<?xml version="1.0" encoding="utf-8"?>
<!-- Generator: Adobe Illustrator 19.2.1, SVG Export Plug-In . SVG Version: 6.00 Build 0)  -->
<svg version="1.1" xmlns="http://www.w3.org/2000/svg" xmlns:xlink="http://www.w3.org/1999/xlink" x="0px" y="0px" width="24px"
	 height="24px" viewBox="0 0 24 24" enable-background="new 0 0 24 24" xml:space="preserve">
<g id="Filled_Icons_1_">
	<g id="Filled_Icons">
	</g>
	<g id="New_icons">
		<g>
			<path d="M23.729,5.403c-0.167-0.086-0.368-0.072-0.52,0.037c-0.345,0.246-1.396,0.884-2.102,0.884c-0.212,0-0.607,0-0.607-0.977
				c0-1.165-0.607-1.833-1.667-1.833c-1.468,0-3.524,1.359-3.611,1.417C15.083,5.024,15,5.181,15,5.348V23.5
				c0,0.276,0.224,0.5,0.5,0.5s0.5-0.224,0.5-0.5V11.622c0.656-0.403,1.978-1.108,2.833-1.108c0.337,0,0.667,0.064,0.667,0.833
				c0,1.943,1.313,2.153,1.877,2.153h0c1.1,0,2.319-0.69,2.37-0.719C23.904,12.692,24,12.527,24,12.348v-6.5
				C24,5.66,23.896,5.489,23.729,5.403z"/>
			<g>
				<g>
					<circle cx="6.5" cy="4" r="4"/>
				</g>
				<path d="M4,20v3.5C4,23.776,4.224,24,4.5,24h4C8.776,24,9,23.776,9,23.5V20H4z"/>
				<g>
					<path d="M6.501,12.625l2.359-3.282C8.131,8.805,7.332,8.5,6.5,8.5S4.869,8.805,4.141,9.342L6.501,12.625z"/>
					<path d="M9.617,10.019l-2.71,3.769c-0.188,0.262-0.624,0.262-0.812,0l-2.71-3.771C1.67,11.801,0.5,14.967,0.5,18.5
						C0.5,18.776,0.724,19,1,19h11c0.276,0,0.5-0.224,0.5-0.5C12.5,14.968,11.33,11.803,9.617,10.019z"/>
				</g>
			</g>
		</g>
	</g>
</g>
<g id="Invisible_Shape">
	<rect fill="none" width="24" height="24"/>
</g>
</svg>
