<?xml version="1.0" encoding="utf-8"?>
<!-- Generator: Adobe Illustrator 19.2.1, SVG Export Plug-In . SVG Version: 6.00 Build 0)  -->
<svg version="1.1" xmlns="http://www.w3.org/2000/svg" xmlns:xlink="http://www.w3.org/1999/xlink" x="0px" y="0px" width="24px"
	 height="24px" viewBox="0 0 24 24" enable-background="new 0 0 24 24" xml:space="preserve">
<g id="Filled_Icons_1_">
	<g id="Filled_Icons">
		<g>
			<circle cx="16.5" cy="2.5" r="1.5"/>
			<circle cx="6.5" cy="4" r="4"/>
			<path d="M18.5,5h-4C14.224,5,14,5.224,14,5.5C14,6.538,14.523,9,16.5,9S19,6.538,19,5.5C19,5.224,18.776,5,18.5,5z"/>
			<path d="M4,17.283v1.096l4.939-4.939c0.521-0.523,1.414-0.574,1.995-0.113l0.752,0.602C12.211,12.656,12.5,11.163,12.5,9.5
				C12.5,9.224,12.276,9,12,9H1C0.724,9,0.5,9.224,0.5,9.5C0.5,13.054,1.771,15.869,4,17.283z"/>
			<path d="M4,22.621V23.5C4,23.776,4.224,24,4.5,24h4C8.776,24,9,23.776,9,23.5v-5.879L4,22.621z"/>
			<path d="M22.5,10H16c-0.276,0-0.5,0.224-0.5,0.5S15.724,11,16,11h5.317l-6.366,6.821l-4.639-3.71
				c-0.199-0.16-0.485-0.144-0.666,0.035l-9,9c-0.196,0.195-0.195,0.511,0.001,0.707c0.194,0.195,0.511,0.195,0.706,0l8.685-8.682
				l4.649,3.719c0.204,0.163,0.5,0.143,0.678-0.049L22,11.733V17c0,0.276,0.224,0.5,0.5,0.5S23,17.276,23,17v-6.5
				C23,10.224,22.776,10,22.5,10z"/>
		</g>
	</g>
	<g id="New_icons">
	</g>
</g>
<g id="Invisible_Shape">
	<rect fill="none" width="24" height="24"/>
</g>
</svg>
