<?xml version="1.0" encoding="utf-8"?>
<!-- Generator: Adobe Illustrator 19.2.1, SVG Export Plug-In . SVG Version: 6.00 Build 0)  -->
<svg version="1.1" xmlns="http://www.w3.org/2000/svg" xmlns:xlink="http://www.w3.org/1999/xlink" x="0px" y="0px" width="24px"
	 height="24px" viewBox="0 0 24 24" enable-background="new 0 0 24 24" xml:space="preserve">
<g id="Filled_Icons_1_">
	<g id="Filled_Icons">
	</g>
	<g id="New_icons">
		<g>
			<path d="M23.731,0.065c-0.165-0.087-0.365-0.073-0.518,0.033c-0.652,0.457-1.182,0.66-1.718,0.66
				c-0.798,0-1.291-0.175-1.599-0.567c-0.19-0.242-0.602-0.242-0.792,0c-0.308,0.393-0.801,0.567-1.599,0.567
				c-0.536,0-1.066-0.203-1.718-0.66c-0.153-0.106-0.352-0.12-0.518-0.033C15.104,0.151,15,0.322,15,0.509v5.925
				c0,0.045,0.006,0.09,0.018,0.133c0.026,0.097,0.697,2.393,4.347,3.415C19.409,9.994,19.455,10,19.5,10s0.091-0.006,0.135-0.019
				c3.65-1.022,4.321-3.318,4.347-3.415C23.994,6.523,24,6.478,24,6.434V0.509C24,0.322,23.896,0.151,23.731,0.065z M21.52,5H20v1.5
				C20,6.776,19.776,7,19.5,7S19,6.776,19,6.5V5h-1.48c-0.276,0-0.5-0.224-0.5-0.5S17.243,4,17.52,4H19V2.531
				c0-0.276,0.224-0.5,0.5-0.5s0.5,0.224,0.5,0.5V4h1.52c0.276,0,0.5,0.224,0.5,0.5S21.796,5,21.52,5z"/>
			<g>
				<g>
					<circle cx="6.5" cy="4" r="4"/>
				</g>
				<path d="M4,20v3.5C4,23.776,4.224,24,4.5,24h4C8.776,24,9,23.776,9,23.5V20H4z"/>
				<g>
					<path d="M6.501,12.625l2.359-3.282C8.131,8.805,7.332,8.5,6.5,8.5S4.869,8.805,4.141,9.342L6.501,12.625z"/>
					<path d="M9.617,10.019l-2.71,3.769c-0.188,0.262-0.624,0.262-0.812,0l-2.71-3.771C1.67,11.801,0.5,14.967,0.5,18.5
						C0.5,18.776,0.724,19,1,19h11c0.276,0,0.5-0.224,0.5-0.5C12.5,14.968,11.33,11.803,9.617,10.019z"/>
				</g>
			</g>
		</g>
	</g>
</g>
<g id="Invisible_Shape">
	<rect fill="none" width="24" height="24"/>
</g>
</svg>
