<?xml version="1.0" encoding="utf-8"?>
<!-- Generator: Adobe Illustrator 19.2.1, SVG Export Plug-In . SVG Version: 6.00 Build 0)  -->
<svg version="1.1" xmlns="http://www.w3.org/2000/svg" xmlns:xlink="http://www.w3.org/1999/xlink" x="0px" y="0px" width="24px"
	 height="24px" viewBox="0 0 24 24" enable-background="new 0 0 24 24" xml:space="preserve">
<g id="Filled_Icons_1_">
	<g id="Filled_Icons">
		<g>
			<g>
				<circle cx="6.5" cy="4" r="4"/>
				<path d="M12,9H7.46l0.558,6.689L6.5,17.207l-1.518-1.518L5.54,9H1C0.724,9,0.5,9.224,0.5,9.5c0,3.554,1.271,6.37,3.5,7.783V23.5
					C4,23.776,4.224,24,4.5,24h4C8.776,24,9,23.776,9,23.5v-6.217c2.229-1.414,3.5-4.23,3.5-7.783C12.5,9.224,12.276,9,12,9z"/>
			</g>
			<path d="M23.5,1H10.475C11.109,1.838,11.5,2.87,11.5,4c0,1.642-0.806,3.088-2.031,4H12c0.827,0,1.5,0.673,1.5,1.5
				c0,2.574-0.646,4.811-1.806,6.5H23.5c0.276,0,0.5-0.224,0.5-0.5v-14C24,1.224,23.776,1,23.5,1z M22,13.5
				c0,0.276-0.224,0.5-0.5,0.5c-0.004,0-0.007-0.002-0.01-0.002c-0.003,0-0.006,0.002-0.01,0.002h-5.959c-0.276,0-0.5-0.224-0.5-0.5
				s0.224-0.5,0.5-0.5H17V9.5C17,9.224,17.224,9,17.5,9S18,9.224,18,9.5V13h1V7.5C19,7.224,19.224,7,19.5,7S20,7.224,20,7.5V13h1
				V4.5C21,4.224,21.224,4,21.5,4S22,4.224,22,4.5V13.5z"/>
		</g>
	</g>
	<g id="New_icons">
	</g>
</g>
<g id="Invisible_Shape">
	<rect fill="none" width="24" height="24"/>
</g>
</svg>
