<?xml version="1.0" encoding="utf-8"?>
<!-- Generator: Adobe Illustrator 19.2.1, SVG Export Plug-In . SVG Version: 6.00 Build 0)  -->
<svg version="1.1" xmlns="http://www.w3.org/2000/svg" xmlns:xlink="http://www.w3.org/1999/xlink" x="0px" y="0px" width="24px"
	 height="24px" viewBox="0 0 24 24" enable-background="new 0 0 24 24" xml:space="preserve">
<g id="Filled_Icons_1_">
	<g id="Filled_Icons">
	</g>
	<g id="New_icons">
		<g>
			<g>
				<circle cx="6.5" cy="4" r="4"/>
				<path d="M12,9H7.46l0.558,6.689L6.5,17.207l-1.518-1.518L5.54,9H1C0.724,9,0.5,9.224,0.5,9.5c0,3.554,1.271,6.369,3.5,7.783
					V23.5C4,23.776,4.224,24,4.5,24h4C8.776,24,9,23.776,9,23.5v-6.217c2.229-1.414,3.5-4.23,3.5-7.783C12.5,9.224,12.276,9,12,9z"
					/>
			</g>
			<path d="M18.5,0C15.467,0,13,2.468,13,5.5s2.467,5.5,5.5,5.5S24,8.532,24,5.5S21.533,0,18.5,0z M18.5,4.941
				c0.915,0,1.659,0.744,1.659,1.659c0,0.739-0.489,1.36-1.159,1.573v0.358c0,0.276-0.224,0.5-0.5,0.5S18,8.809,18,8.532V8.174
				c-0.67-0.213-1.159-0.834-1.159-1.573c0-0.276,0.224-0.5,0.5-0.5c0.276,0,0.5,0.224,0.5,0.5c0,0.363,0.296,0.659,0.659,0.659
				s0.659-0.296,0.659-0.659c0-0.363-0.296-0.659-0.659-0.659c-0.915,0-1.659-0.744-1.659-1.659c0-0.739,0.489-1.36,1.159-1.573
				V2.351c0-0.276,0.224-0.5,0.5-0.5s0.5,0.224,0.5,0.5v0.358c0.67,0.213,1.159,0.834,1.159,1.573c0,0.276-0.224,0.5-0.5,0.5
				c-0.276,0-0.5-0.224-0.5-0.5c0-0.363-0.296-0.659-0.659-0.659s-0.659,0.296-0.659,0.659C17.841,4.646,18.137,4.941,18.5,4.941z"
				/>
		</g>
	</g>
</g>
<g id="Invisible_Shape">
	<rect fill="none" width="24" height="24"/>
</g>
</svg>
