<?xml version="1.0" encoding="utf-8"?>
<!-- Generator: Adobe Illustrator 19.2.1, SVG Export Plug-In . SVG Version: 6.00 Build 0)  -->
<svg version="1.1" xmlns="http://www.w3.org/2000/svg" xmlns:xlink="http://www.w3.org/1999/xlink" x="0px" y="0px" width="24px"
	 height="24px" viewBox="0 0 24 24" enable-background="new 0 0 24 24" xml:space="preserve">
<g id="Filled_Icons_1_">
	<g id="Filled_Icons">
	</g>
	<g id="New_icons">
		<g>
			<path d="M22,0h-7c-1.103,0-2,0.897-2,2v4c0,1.102,0.897,2,2,2h7c1.103,0,2-0.898,2-2V2C24,0.897,23.103,0,22,0z M21.854,5.853
				c-0.195,0.195-0.512,0.195-0.707,0L19.833,4.54L18.82,5.384c-0.185,0.154-0.455,0.154-0.641,0L17.167,4.54l-1.313,1.313
				c-0.195,0.195-0.512,0.195-0.707,0s-0.195-0.512,0-0.707l1.249-1.249L15.18,2.884c-0.212-0.177-0.241-0.492-0.064-0.704
				c0.177-0.211,0.492-0.241,0.705-0.063L18.5,4.35l2.68-2.233c0.212-0.178,0.528-0.147,0.705,0.063
				c0.177,0.212,0.148,0.527-0.064,0.704l-1.216,1.014l1.249,1.249C22.049,5.342,22.049,5.658,21.854,5.853z"/>
			<g>
				<g>
					<circle cx="6.5" cy="4" r="4"/>
				</g>
				<path d="M4,20v3.5C4,23.776,4.224,24,4.5,24h4C8.776,24,9,23.776,9,23.5V20H4z"/>
				<g>
					<path d="M6.501,12.625l2.359-3.282C8.131,8.805,7.332,8.5,6.5,8.5S4.869,8.805,4.141,9.342L6.501,12.625z"/>
					<path d="M9.617,10.019l-2.71,3.769c-0.188,0.262-0.624,0.262-0.812,0l-2.71-3.771C1.67,11.801,0.5,14.967,0.5,18.5
						C0.5,18.776,0.724,19,1,19h11c0.276,0,0.5-0.224,0.5-0.5C12.5,14.968,11.33,11.803,9.617,10.019z"/>
				</g>
			</g>
		</g>
	</g>
</g>
<g id="Invisible_Shape">
	<rect fill="none" width="24" height="24"/>
</g>
</svg>
