<?xml version="1.0" encoding="utf-8"?>
<!-- Generator: Adobe Illustrator 19.2.1, SVG Export Plug-In . SVG Version: 6.00 Build 0)  -->
<svg version="1.1" xmlns="http://www.w3.org/2000/svg" xmlns:xlink="http://www.w3.org/1999/xlink" x="0px" y="0px" width="24px"
	 height="24px" viewBox="0 0 24 24" enable-background="new 0 0 24 24" xml:space="preserve">
<g id="Filled_Icons_1_">
	<g id="Filled_Icons">
		<g>
			<g>
				<polygon points="16.896,9 19.134,9 18.015,6.009 				"/>
				<path d="M23.5,1H10.475C11.109,1.838,11.5,2.87,11.5,4c0,1.642-0.806,3.088-2.031,4H12c0.827,0,1.5,0.673,1.5,1.5
					c0,2.573-0.646,4.811-1.806,6.5H23.5c0.276,0,0.5-0.224,0.5-0.5v-14C24,1.224,23.776,1,23.5,1z M20.785,11.984
					c-0.259,0.097-0.547-0.035-0.644-0.293L19.508,10h-2.987l-0.633,1.691c-0.097,0.258-0.385,0.39-0.644,0.293
					c-0.259-0.097-0.39-0.385-0.293-0.644l2.595-6.933c0.146-0.39,0.79-0.39,0.937,0l2.595,6.933
					C21.174,11.6,21.044,11.887,20.785,11.984z"/>
			</g>
			<g>
				<circle cx="6.5" cy="4" r="4"/>
				<path d="M12,9H7.46l0.558,6.689L6.5,17.207l-1.518-1.518L5.54,9H1C0.724,9,0.5,9.224,0.5,9.5c0,3.554,1.271,6.369,3.5,7.783
					V23.5C4,23.776,4.224,24,4.5,24h4C8.776,24,9,23.776,9,23.5v-6.217c2.229-1.414,3.5-4.23,3.5-7.783C12.5,9.224,12.276,9,12,9z"
					/>
			</g>
		</g>
	</g>
	<g id="New_icons">
	</g>
</g>
<g id="Invisible_Shape">
	<rect fill="none" width="24" height="24"/>
</g>
</svg>
