<?xml version="1.0" encoding="utf-8"?>
<!-- Generator: Adobe Illustrator 19.2.1, SVG Export Plug-In . SVG Version: 6.00 Build 0)  -->
<svg version="1.1" xmlns="http://www.w3.org/2000/svg" xmlns:xlink="http://www.w3.org/1999/xlink" x="0px" y="0px" width="24px"
	 height="24px" viewBox="0 0 24 24" enable-background="new 0 0 24 24" xml:space="preserve">
<g id="Filled_Icons_1_">
	<g id="Filled_Icons">
		<g>
			<circle cx="6.5" cy="4" r="4"/>
			<circle cx="18.5" cy="4.5" r="1.5"/>
			<path d="M20.5,7h-4C16.224,7,16,7.224,16,7.5c0,1.037,0.522,3.5,2.5,3.5S21,8.537,21,7.5C21,7.224,20.776,7,20.5,7z"/>
			<path d="M3.29,13.92c-0.565-0.562-0.567-1.553,0.001-2.123c0.585-0.584,1.536-0.584,2.12-0.001l4.634,4.63
				c1.569-1.554,2.455-3.98,2.455-6.926C12.5,9.224,12.276,9,12,9H1C0.724,9,0.5,9.224,0.5,9.5c0,3.554,1.271,6.369,3.5,7.783V23.5
				C4,23.776,4.224,24,4.5,24h4C8.776,24,9,23.776,9,23.5v-3.873L3.29,13.92z"/>
			<path d="M23.5,24H17c-0.276,0-0.5-0.224-0.5-0.5S16.724,23,17,23h5.317l-6.366-6.82l-4.639,3.709
				c-0.199,0.16-0.485,0.144-0.666-0.035l-6.647-6.647C3.803,13.012,3.804,12.696,4,12.5c0.194-0.195,0.511-0.195,0.706,0
				l6.332,6.328l4.649-3.719c0.204-0.163,0.5-0.143,0.678,0.049L23,22.267V17c0-0.276,0.224-0.5,0.5-0.5S24,16.724,24,17v6.5
				C24,23.776,23.776,24,23.5,24z"/>
		</g>
	</g>
	<g id="New_icons">
	</g>
</g>
<g id="Invisible_Shape">
	<rect fill="none" width="24" height="24"/>
</g>
</svg>
