<?xml version="1.0" encoding="utf-8"?>
<!-- Generator: Adobe Illustrator 19.2.1, SVG Export Plug-In . SVG Version: 6.00 Build 0)  -->
<svg version="1.1" xmlns="http://www.w3.org/2000/svg" xmlns:xlink="http://www.w3.org/1999/xlink" x="0px" y="0px" width="24px"
	 height="24px" viewBox="0 0 24 24" enable-background="new 0 0 24 24" xml:space="preserve">
<g id="Filled_Icons_1_">
	<g id="Filled_Icons">
	</g>
	<g id="New_icons">
		<g>
			<g>
				<circle cx="6.5" cy="4" r="4"/>
				<path d="M12,9H7.46l0.558,6.689L6.5,17.207l-1.518-1.518L5.54,9H1C0.724,9,0.5,9.224,0.5,9.5c0,3.554,1.271,6.369,3.5,7.783
					V23.5C4,23.776,4.224,24,4.5,24h4C8.776,24,9,23.776,9,23.5v-6.217c2.229-1.414,3.5-4.23,3.5-7.783C12.5,9.224,12.276,9,12,9z"
					/>
			</g>
			<path d="M23.5,0C23.224,0,23,0.224,23,0.5v0.599l-8.024,1.783C14.922,2.664,14.734,2.5,14.5,2.5C14.224,2.5,14,2.724,14,3v3
				c0,0.276,0.224,0.5,0.5,0.5c0.234,0,0.422-0.164,0.476-0.382L16,6.346V7c0,1.102,0.897,2,2,2c1.024,0,1.861-0.777,1.977-1.771
				L23,7.901V8.5C23,8.776,23.224,9,23.5,9S24,8.776,24,8.5v-8C24,0.224,23.776,0,23.5,0z M18,8c-0.551,0-1-0.448-1-1V6.568
				l1.998,0.443C18.991,7.558,18.547,8,18,8z"/>
		</g>
	</g>
</g>
<g id="Invisible_Shape">
	<rect fill="none" width="24" height="24"/>
</g>
</svg>
