<?xml version="1.0" encoding="utf-8"?>
<!-- Generator: Adobe Illustrator 19.2.1, SVG Export Plug-In . SVG Version: 6.00 Build 0)  -->
<svg version="1.1" xmlns="http://www.w3.org/2000/svg" xmlns:xlink="http://www.w3.org/1999/xlink" x="0px" y="0px" width="24px"
	 height="24px" viewBox="0 0 24 24" enable-background="new 0 0 24 24" xml:space="preserve">
<g id="Filled_Icons_1_">
	<g id="Filled_Icons">
	</g>
	<g id="New_icons">
		<g>
			<g>
				<g>
					<g>
						<circle cx="6.5" cy="4" r="4"/>
						<path d="M7.46,9l0.558,6.689L6.5,17.207l-1.518-1.518L5.54,9H0.5v0.5c0,3.554,1.271,6.369,3.5,7.783V24h5v-6.717
							c2.229-1.414,3.5-4.23,3.5-7.783V9H7.46z"/>
					</g>
				</g>
			</g>
			<path d="M23.5,16H22v2.5c0,0.828-0.671,1.5-1.5,1.5S19,19.328,19,18.5V16h-1v2.5c0,0.828-0.671,1.5-1.5,1.5S15,19.328,15,18.5V16
				h-1.5c-0.276,0-0.5,0.224-0.5,0.5v7c0,0.276,0.224,0.5,0.5,0.5h10c0.276,0,0.5-0.224,0.5-0.5v-7C24,16.224,23.776,16,23.5,16z"/>
			<g>
				<path d="M20.5,19c-0.276,0-0.5-0.224-0.5-0.5v-3c0-0.827-0.673-1.5-1.5-1.5S17,14.673,17,15.5v3c0,0.276-0.224,0.5-0.5,0.5
					S16,18.776,16,18.5v-3c0-1.379,1.122-2.5,2.5-2.5s2.5,1.121,2.5,2.5v3C21,18.776,20.776,19,20.5,19z"/>
			</g>
		</g>
	</g>
</g>
<g id="Invisible_Shape">
	<rect fill="none" width="24" height="24"/>
</g>
</svg>
