<?xml version="1.0" encoding="utf-8"?>
<!-- Generator: Adobe Illustrator 19.2.1, SVG Export Plug-In . SVG Version: 6.00 Build 0)  -->
<svg version="1.1" xmlns="http://www.w3.org/2000/svg" xmlns:xlink="http://www.w3.org/1999/xlink" x="0px" y="0px" width="24px"
	 height="24px" viewBox="0 0 24 24" enable-background="new 0 0 24 24" xml:space="preserve">
<g id="Filled_Icons_1_">
	<g id="Filled_Icons">
		<g>
			<path d="M23.4,0.301c-0.662-0.497-1.602-0.364-2.1,0.299l-1.237,1.648C18.99,1.467,17.675,1,16.25,1
				c-1.922,0-3.643,0.847-4.833,2.178C11.462,3.446,11.5,3.719,11.5,4c0,1.5-0.677,2.831-1.727,3.746
				C9.781,7.819,9.792,7.903,9.804,8H12c0.827,0,1.5,0.673,1.5,1.5c0,1.301-0.168,2.514-0.479,3.618
				C13.975,13.669,15.071,14,16.25,14c3.584,0,6.5-2.916,6.5-6.5c0-1.046-0.254-2.032-0.695-2.908L23.7,2.4
				C24.197,1.738,24.063,0.798,23.4,0.301z M22.9,1.801l-6.138,8.175c-0.087,0.115-0.22,0.188-0.365,0.198
				c-0.012,0.001-0.023,0.001-0.035,0.001c-0.132,0-0.259-0.052-0.354-0.146l-2.662-2.662c-0.195-0.195-0.195-0.512,0-0.707
				c0.195-0.195,0.512-0.195,0.707,0l2.255,2.255L22.1,1.199c0.166-0.221,0.479-0.264,0.7-0.1C23.021,1.266,23.065,1.58,22.9,1.801z
				"/>
			<g>
				<circle cx="6.5" cy="4" r="4"/>
				<path d="M12,9H7.46l0.558,6.689L6.5,17.207l-1.518-1.518L5.54,9H1C0.724,9,0.5,9.224,0.5,9.5c0,3.554,1.271,6.369,3.5,7.783
					V23.5C4,23.776,4.224,24,4.5,24h4C8.776,24,9,23.776,9,23.5v-6.217c2.229-1.414,3.5-4.23,3.5-7.783C12.5,9.224,12.276,9,12,9z"
					/>
			</g>
		</g>
	</g>
	<g id="New_icons">
	</g>
</g>
<g id="Invisible_Shape">
	<rect fill="none" width="24" height="24"/>
</g>
</svg>
