<?xml version="1.0" encoding="utf-8"?>
<!-- Generator: Adobe Illustrator 19.2.1, SVG Export Plug-In . SVG Version: 6.00 Build 0)  -->
<svg version="1.1" xmlns="http://www.w3.org/2000/svg" xmlns:xlink="http://www.w3.org/1999/xlink" x="0px" y="0px" width="24px"
	 height="24px" viewBox="0 0 24 24" enable-background="new 0 0 24 24" xml:space="preserve">
<g id="Filled_Icons_1_">
	<g id="Filled_Icons">
	</g>
	<g id="New_icons">
		<g>
			<g>
				<path d="M20.5,19c-0.276,0-0.5-0.224-0.5-0.5v-3c0-0.827-0.673-1.5-1.5-1.5S17,14.673,17,15.5v3c0,0.276-0.224,0.5-0.5,0.5
					S16,18.776,16,18.5v-3c0-1.379,1.122-2.5,2.5-2.5s2.5,1.121,2.5,2.5v3C21,18.776,20.776,19,20.5,19z"/>
				<path d="M23.5,16H22v2.5c0,0.828-0.671,1.5-1.5,1.5S19,19.328,19,18.5V16h-1v2.5c0,0.828-0.671,1.5-1.5,1.5S15,19.328,15,18.5
					V16h-1.5c-0.276,0-0.5,0.224-0.5,0.5v7c0,0.276,0.224,0.5,0.5,0.5h10c0.276,0,0.5-0.224,0.5-0.5v-7C24,16.224,23.776,16,23.5,16
					z"/>
				<path d="M20.5,19c-0.276,0-0.5-0.224-0.5-0.5v-3c0-0.827-0.673-1.5-1.5-1.5S17,14.673,17,15.5v3c0,0.276-0.224,0.5-0.5,0.5
					S16,18.776,16,18.5v-3c0-1.379,1.122-2.5,2.5-2.5s2.5,1.121,2.5,2.5v3C21,18.776,20.776,19,20.5,19z"/>
			</g>
			<g>
				<g>
					<circle cx="6.5" cy="4" r="4"/>
				</g>
				<path d="M4,20v3.5C4,23.776,4.224,24,4.5,24h4C8.776,24,9,23.776,9,23.5V20H4z"/>
				<g>
					<path d="M6.501,12.625l2.359-3.282C8.131,8.805,7.332,8.5,6.5,8.5S4.869,8.805,4.141,9.342L6.501,12.625z"/>
					<path d="M9.617,10.019l-2.71,3.769c-0.188,0.262-0.624,0.262-0.812,0l-2.71-3.771C1.67,11.801,0.5,14.967,0.5,18.5
						C0.5,18.776,0.724,19,1,19h11c0.276,0,0.5-0.224,0.5-0.5C12.5,14.968,11.33,11.803,9.617,10.019z"/>
				</g>
			</g>
		</g>
	</g>
</g>
<g id="Invisible_Shape">
	<rect fill="none" width="24" height="24"/>
</g>
</svg>
