<?xml version="1.0" encoding="utf-8"?>
<!-- Generator: Adobe Illustrator 19.2.1, SVG Export Plug-In . SVG Version: 6.00 Build 0)  -->
<svg version="1.1" xmlns="http://www.w3.org/2000/svg" xmlns:xlink="http://www.w3.org/1999/xlink" x="0px" y="0px" width="24px"
	 height="24px" viewBox="0 0 24 24" enable-background="new 0 0 24 24" xml:space="preserve">
<g id="Filled_Icons_1_">
	<g id="Filled_Icons">
	</g>
	<g id="New_icons">
		<g>
			<path d="M24,19v-2.5c0-0.276-0.224-0.5-0.5-0.5H21v-0.5c0-0.827-0.673-1.5-1.5-1.5h-1c-0.827,0-1.5,0.673-1.5,1.5V16h-2.5
				c-0.276,0-0.5,0.224-0.5,0.5V19H24z M18,15.5c0-0.275,0.224-0.5,0.5-0.5h1c0.276,0,0.5,0.225,0.5,0.5V16h-2V15.5z"/>
			<path d="M19.5,20v0.5c0,0.276-0.224,0.5-0.5,0.5s-0.5-0.224-0.5-0.5V20H14v3.5c0,0.276,0.224,0.5,0.5,0.5h9
				c0.276,0,0.5-0.224,0.5-0.5V20H19.5z"/>
			<g>
				<g>
					<circle cx="6.5" cy="4" r="4"/>
				</g>
				<path d="M4,20v3.5C4,23.776,4.224,24,4.5,24h4C8.776,24,9,23.776,9,23.5V20H4z"/>
				<g>
					<path d="M6.501,12.625l2.359-3.282C8.131,8.805,7.332,8.5,6.5,8.5S4.869,8.805,4.141,9.342L6.501,12.625z"/>
					<path d="M9.617,10.019l-2.71,3.769c-0.188,0.262-0.624,0.262-0.812,0l-2.71-3.771C1.67,11.801,0.5,14.967,0.5,18.5
						C0.5,18.776,0.724,19,1,19h11c0.276,0,0.5-0.224,0.5-0.5C12.5,14.968,11.33,11.803,9.617,10.019z"/>
				</g>
			</g>
		</g>
	</g>
</g>
<g id="Invisible_Shape">
	<rect fill="none" width="24" height="24"/>
</g>
</svg>
