<?xml version="1.0" encoding="utf-8"?>
<!-- Generator: Adobe Illustrator 19.2.1, SVG Export Plug-In . SVG Version: 6.00 Build 0)  -->
<svg version="1.1" xmlns="http://www.w3.org/2000/svg" xmlns:xlink="http://www.w3.org/1999/xlink" x="0px" y="0px" width="24px"
	 height="24px" viewBox="0 0 24 24" enable-background="new 0 0 24 24" xml:space="preserve">
<g id="Filled_Icons_1_">
	<g id="Filled_Icons">
		<g>
			<g>
				<circle cx="6.5" cy="4" r="4"/>
				<path d="M12,9H7.46l0.558,6.689L6.5,17.207l-1.518-1.518L5.54,9H1C0.724,9,0.5,9.224,0.5,9.5c0,3.554,1.271,6.369,3.5,7.783
					V23.5C4,23.776,4.224,24,4.5,24h4C8.776,24,9,23.776,9,23.5v-6.217c2.229-1.414,3.5-4.23,3.5-7.783C12.5,9.224,12.276,9,12,9z"
					/>
			</g>
			<path d="M20,9c-0.827,0-1.5-0.673-1.5-1.5S19.173,6,20,6h1.788C21.269,4.17,19.83,2.73,18,2.213V4c0,0.827-0.673,1.5-1.5,1.5
				C15.673,5.5,15,4.827,15,4V2.213c-2.308,0.653-4,2.77-4,5.287c0,0.169,0.01,0.335,0.025,0.5H12c0.827,0,1.5,0.673,1.5,1.5
				c0,0.859-0.076,1.679-0.214,2.457c0.513,0.37,1.09,0.654,1.714,0.83V11c0-0.827,0.673-1.5,1.5-1.5c0.827,0,1.5,0.673,1.5,1.5
				v1.787c1.83-0.518,3.269-1.957,3.788-3.787H20z"/>
			<path d="M16.5,4.5C16.224,4.5,16,4.276,16,4V0.5C16,0.224,16.224,0,16.5,0S17,0.224,17,0.5V4C17,4.276,16.776,4.5,16.5,4.5z"/>
			<path d="M16.5,15c-0.276,0-0.5-0.224-0.5-0.5V11c0-0.276,0.224-0.5,0.5-0.5S17,10.724,17,11v3.5C17,14.776,16.776,15,16.5,15z"/>
			<path d="M23.5,8H20c-0.276,0-0.5-0.224-0.5-0.5S19.724,7,20,7h3.5C23.776,7,24,7.224,24,7.5S23.776,8,23.5,8z"/>
		</g>
	</g>
	<g id="New_icons">
	</g>
</g>
<g id="Invisible_Shape">
	<rect fill="none" width="24" height="24"/>
</g>
</svg>
