<?xml version="1.0" encoding="utf-8"?>
<!-- Generator: Adobe Illustrator 19.2.1, SVG Export Plug-In . SVG Version: 6.00 Build 0)  -->
<svg version="1.1" xmlns="http://www.w3.org/2000/svg" xmlns:xlink="http://www.w3.org/1999/xlink" x="0px" y="0px" width="24px"
	 height="24px" viewBox="0 0 24 24" enable-background="new 0 0 24 24" xml:space="preserve">
<g id="Filled_Icons_1_">
	<g id="Filled_Icons">
		<g>
			<g>
				<circle cx="6.5" cy="4" r="4"/>
				<path d="M12,9H7.46l0.558,6.689L6.5,17.207l-1.518-1.518L5.54,9H1C0.724,9,0.5,9.224,0.5,9.5c0,3.554,1.271,6.37,3.5,7.783V23.5
					C4,23.776,4.224,24,4.5,24h4C8.776,24,9,23.776,9,23.5v-6.217c2.229-1.414,3.5-4.23,3.5-7.783C12.5,9.224,12.276,9,12,9z"/>
			</g>
			<path d="M23.5,1H10.475C11.109,1.838,11.5,2.87,11.5,4c0,1.642-0.806,3.088-2.031,4H12c0.827,0,1.5,0.673,1.5,1.5
				c0,2.574-0.646,4.811-1.806,6.5H23.5c0.276,0,0.5-0.224,0.5-0.5v-14C24,1.224,23.776,1,23.5,1z M22.349,4.159l-1.5,4.499
				c-0.045,0.139-0.151,0.251-0.286,0.307c-0.136,0.054-0.29,0.046-0.419-0.021l-2.561-1.338l-1.677,4.507
				c-0.097,0.259-0.384,0.391-0.643,0.294c-0.259-0.096-0.391-0.384-0.294-0.643l1.875-5.038c0.05-0.135,0.156-0.241,0.289-0.292
				c0.136-0.051,0.284-0.044,0.411,0.023l2.542,1.328l1.316-3.943c0.086-0.262,0.367-0.404,0.632-0.315
				C22.294,3.613,22.437,3.897,22.349,4.159z"/>
		</g>
	</g>
	<g id="New_icons">
	</g>
</g>
<g id="Invisible_Shape">
	<rect fill="none" width="24" height="24"/>
</g>
</svg>
