<?xml version="1.0" encoding="utf-8"?>
<!-- Generator: Adobe Illustrator 19.2.1, SVG Export Plug-In . SVG Version: 6.00 Build 0)  -->
<svg version="1.1" xmlns="http://www.w3.org/2000/svg" xmlns:xlink="http://www.w3.org/1999/xlink" x="0px" y="0px" width="24px"
	 height="24px" viewBox="0 0 24 24" enable-background="new 0 0 24 24" xml:space="preserve">
<g id="Filled_Icons_1_">
	<g id="Filled_Icons">
		<g>
			<circle cx="10.5" cy="4" r="4"/>
			<path d="M16,9h-4.54l0.558,6.689L10.5,17.207l-1.518-1.518L9.54,9H5C4.724,9,4.5,9.224,4.5,9.5c0,3.555,1.272,6.37,3.5,7.783
				V23.5C8,23.776,8.224,24,8.5,24h4c0.276,0,0.5-0.224,0.5-0.5v-6.217c2.229-1.414,3.5-4.23,3.5-7.783C16.5,9.224,16.276,9,16,9z"
				/>
			<path d="M19.5,16h-1v-0.5c0-0.276-0.224-0.5-0.5-0.5s-0.5,0.224-0.5,0.5V16h-1c-0.276,0-0.5,0.224-0.5,0.5v7
				c0,0.276,0.224,0.5,0.5,0.5h3c0.276,0,0.5-0.224,0.5-0.5v-7C20,16.224,19.776,16,19.5,16z"/>
		</g>
	</g>
	<g id="New_icons">
	</g>
</g>
<g id="Invisible_Shape">
	<rect fill="none" width="24" height="24"/>
</g>
</svg>
