<?xml version="1.0" encoding="utf-8"?>
<!-- Generator: Adobe Illustrator 19.2.1, SVG Export Plug-In . SVG Version: 6.00 Build 0)  -->
<svg version="1.1" xmlns="http://www.w3.org/2000/svg" xmlns:xlink="http://www.w3.org/1999/xlink" x="0px" y="0px" width="24px"
	 height="24px" viewBox="0 0 24 24" enable-background="new 0 0 24 24" xml:space="preserve">
<g id="Filled_Icons_1_">
	<g id="Filled_Icons">
		<g>
			<path d="M18.016,12c-3.309,0-6,2.691-6,6s2.691,6,6,6s6-2.691,6-6S21.324,12,18.016,12z M18.016,17.435
				c0.979,0,1.775,0.796,1.775,1.775c0,0.805-0.541,1.478-1.275,1.694v0.431c0,0.276-0.224,0.5-0.5,0.5c-0.276,0-0.5-0.224-0.5-0.5
				v-0.431c-0.734-0.217-1.275-0.89-1.275-1.694c0-0.276,0.224-0.5,0.5-0.5c0.276,0,0.5,0.224,0.5,0.5
				c0,0.428,0.348,0.775,0.775,0.775c0.428,0,0.775-0.348,0.775-0.775c0-0.428-0.348-0.775-0.775-0.775
				c-0.979,0-1.775-0.796-1.775-1.774c0-0.805,0.541-1.478,1.275-1.695v-0.43c0-0.276,0.224-0.5,0.5-0.5c0.276,0,0.5,0.224,0.5,0.5
				v0.43c0.734,0.218,1.275,0.891,1.275,1.695c0,0.276-0.224,0.5-0.5,0.5s-0.5-0.224-0.5-0.5c0-0.428-0.348-0.775-0.775-0.775
				c-0.428,0-0.775,0.348-0.775,0.775C17.24,17.088,17.588,17.435,18.016,17.435z"/>
			<g>
				<circle cx="6.5" cy="4" r="4"/>
				<path d="M12,9H7.46l0.558,6.689L6.5,17.207l-1.518-1.518L5.54,9H1C0.724,9,0.5,9.224,0.5,9.5c0,3.554,1.271,6.369,3.5,7.783
					V23.5C4,23.776,4.224,24,4.5,24h4C8.776,24,9,23.776,9,23.5v-6.217c2.229-1.414,3.5-4.23,3.5-7.783C12.5,9.224,12.276,9,12,9z"
					/>
			</g>
		</g>
	</g>
	<g id="New_icons">
	</g>
</g>
<g id="Invisible_Shape">
	<rect fill="none" width="24" height="24"/>
</g>
</svg>
