<?xml version="1.0" encoding="utf-8"?>
<!-- Generator: Adobe Illustrator 19.2.1, SVG Export Plug-In . SVG Version: 6.00 Build 0)  -->
<svg version="1.1" xmlns="http://www.w3.org/2000/svg" xmlns:xlink="http://www.w3.org/1999/xlink" x="0px" y="0px" width="24px"
	 height="24px" viewBox="0 0 24 24" enable-background="new 0 0 24 24" xml:space="preserve">
<g id="Filled_Icons_1_">
	<g id="Filled_Icons">
		<g>
			<path d="M23.764,19.018l-0.796-0.459C22.989,18.369,23,18.183,23,18c0-0.184-0.011-0.368-0.033-0.558l0.796-0.46
				c0.239-0.138,0.321-0.443,0.183-0.683l-1.5-2.599c-0.066-0.115-0.176-0.199-0.304-0.232c-0.13-0.037-0.266-0.018-0.38,0.05
				l-0.792,0.46c-0.291-0.212-0.614-0.398-0.957-0.552V12.5c0-0.276-0.224-0.5-0.5-0.5h-3c-0.276,0-0.5,0.224-0.5,0.5v0.926
				c-0.295,0.131-0.638,0.311-0.972,0.555l-0.802-0.463c-0.24-0.137-0.544-0.056-0.683,0.184L12.054,16.3
				c-0.066,0.114-0.084,0.251-0.05,0.38c0.034,0.128,0.118,0.236,0.233,0.303l0.796,0.46C13.011,17.633,13,17.818,13,18
				c0,0.184,0.011,0.369,0.033,0.559l-0.797,0.459c-0.115,0.066-0.199,0.176-0.233,0.305c-0.034,0.127-0.017,0.264,0.05,0.379
				l1.5,2.599c0.139,0.239,0.442,0.32,0.682,0.184l0.805-0.463c0.335,0.243,0.677,0.424,0.972,0.555V23.5c0,0.276,0.224,0.5,0.5,0.5
				h3c0.276,0,0.5-0.224,0.5-0.5v-0.926c0.343-0.153,0.667-0.34,0.957-0.553l0.795,0.461c0.115,0.066,0.252,0.084,0.38,0.051
				c0.128-0.035,0.237-0.119,0.304-0.234l1.498-2.598C24.084,19.462,24.003,19.156,23.764,19.018z M18,20c-1.104,0-2-0.896-2-2
				s0.896-2,2-2c1.105,0,2,0.896,2,2S19.105,20,18,20z"/>
			<g>
				<circle cx="6.5" cy="4" r="4"/>
				<path d="M12,9H7.46l0.558,6.689L6.5,17.207l-1.518-1.518L5.54,9H1C0.724,9,0.5,9.224,0.5,9.5c0,3.554,1.271,6.369,3.5,7.783
					V23.5C4,23.776,4.224,24,4.5,24h4C8.776,24,9,23.776,9,23.5v-6.217c2.229-1.414,3.5-4.23,3.5-7.783C12.5,9.224,12.276,9,12,9z"
					/>
			</g>
		</g>
	</g>
	<g id="New_icons">
	</g>
</g>
<g id="Invisible_Shape">
	<rect fill="none" width="24" height="24"/>
</g>
</svg>
