<?xml version="1.0" encoding="utf-8"?>
<!-- Generator: Adobe Illustrator 19.2.1, SVG Export Plug-In . SVG Version: 6.00 Build 0)  -->
<svg version="1.1" xmlns="http://www.w3.org/2000/svg" xmlns:xlink="http://www.w3.org/1999/xlink" x="0px" y="0px" width="24px"
	 height="24px" viewBox="0 0 24 24" enable-background="new 0 0 24 24" xml:space="preserve">
<g id="Filled_Icons_1_">
	<g id="Filled_Icons">
		<g>
			<path d="M21.5,9c-1.378,0-2.5,1.121-2.5,2.5s1.122,2.5,2.5,2.5s2.5-1.121,2.5-2.5S22.878,9,21.5,9z M21.5,13
				c-0.827,0-1.5-0.673-1.5-1.5s0.673-1.5,1.5-1.5s1.5,0.673,1.5,1.5S22.327,13,21.5,13z"/>
			<g>
				<circle cx="6.5" cy="4" r="4"/>
				<path d="M12,9H7.46l0.558,6.689L6.5,17.207l-1.518-1.518L5.54,9H1C0.724,9,0.5,9.224,0.5,9.5c0,3.554,1.271,6.369,3.5,7.783
					V23.5C4,23.776,4.224,24,4.5,24h4C8.776,24,9,23.776,9,23.5v-6.217c2.229-1.414,3.5-4.23,3.5-7.783C12.5,9.224,12.276,9,12,9z"
					/>
			</g>
			<path d="M15.572,4.281l1.553-1.553c0.195-0.195,0.195-0.512,0-0.707c-0.196-0.196-0.512-0.196-0.708-0.001l-1.553,1.553
				L13.312,2.02c-0.195-0.195-0.512-0.195-0.707,0c-0.195,0.195-0.195,0.512,0,0.707l1.553,1.553l-1.553,1.553
				c-0.195,0.195-0.195,0.512,0.001,0.708c0.195,0.195,0.512,0.195,0.707,0l1.553-1.553l1.553,1.553
				c0.195,0.195,0.512,0.195,0.707,0s0.195-0.512,0-0.707L15.572,4.281z"/>
			<path d="M22.944,4.957c-0.069-0.136-0.196-0.233-0.346-0.264l-2.998-0.62c-0.271-0.056-0.535,0.118-0.591,0.388
				c-0.056,0.271,0.117,0.535,0.389,0.591l1.402,0.291c-2.697,1.3-4.887,3.451-6.233,6.161c-0.123,0.246-0.024,0.544,0.22,0.669
				c0.002,0.001,0.003,0.001,0.005,0.002c0.247,0.123,0.548,0.021,0.67-0.226c1.292-2.601,3.428-4.641,6.053-5.828l-0.673,1.467
				c-0.113,0.25-0.006,0.548,0.245,0.664c0.251,0.115,0.549,0.005,0.663-0.246l1.201-2.614C23.016,5.252,23.013,5.093,22.944,4.957z
				"/>
		</g>
	</g>
	<g id="New_icons">
	</g>
</g>
<g id="Invisible_Shape">
	<rect fill="none" width="24" height="24"/>
</g>
</svg>
