<?xml version="1.0" encoding="utf-8"?>
<!-- Generator: Adobe Illustrator 19.2.1, SVG Export Plug-In . SVG Version: 6.00 Build 0)  -->
<svg version="1.1" xmlns="http://www.w3.org/2000/svg" xmlns:xlink="http://www.w3.org/1999/xlink" x="0px" y="0px" width="24px"
	 height="24px" viewBox="0 0 24 24" enable-background="new 0 0 24 24" xml:space="preserve">
<g id="Filled_Icons_1_">
	<g id="Filled_Icons">
	</g>
	<g id="New_icons">
		<g>
			<path d="M11.564,8.162c-0.462,0.302-0.593,0.921-0.292,1.384C11.748,10.275,12,11.125,12,12c0,2.481-2.019,4.5-4.5,4.5
				C5.019,16.5,3,14.481,3,12c0-1.699,0.941-3.235,2.456-4.01c0.492-0.251,0.687-0.853,0.435-1.346
				C5.639,6.152,5.036,5.958,4.545,6.21C2.358,7.327,1,9.546,1,12c0,3.067,2.138,5.639,5,6.318V20H5c-0.552,0-1,0.448-1,1
				c0,0.553,0.448,1,1,1h1v1c0,0.553,0.448,1,1,1s1-0.447,1-1v-1h1c0.552,0,1-0.447,1-1c0-0.552-0.448-1-1-1H8v-1.525
				c3.351-0.257,6-3.059,6-6.475c0-1.265-0.364-2.491-1.052-3.547C12.646,7.99,12.027,7.86,11.564,8.162z"/>
			<path d="M22.708,3.294L21.915,2.5l0.792-0.793c0.391-0.391,0.391-1.024,0-1.414c-0.391-0.391-1.023-0.391-1.414,0L20.5,1.086
				l-0.793-0.793c-0.391-0.391-1.023-0.391-1.414,0c-0.391,0.39-0.391,1.023,0,1.414L19.086,2.5l-2.258,2.258
				C15.753,3.971,14.432,3.5,13,3.5c-3.584,0-6.5,2.916-6.5,6.5c0,1.264,0.363,2.49,1.051,3.545
				c0.302,0.463,0.921,0.593,1.384,0.292c0.463-0.302,0.593-0.922,0.292-1.384C8.751,11.724,8.5,10.876,8.5,10
				c0-2.481,2.019-4.5,4.5-4.5s4.5,2.019,4.5,4.5c0,1.868-1.124,3.514-2.864,4.193c-0.514,0.2-0.767,0.778-0.568,1.295
				c0.201,0.514,0.781,0.768,1.295,0.568C17.876,15.076,19.5,12.698,19.5,10c0-1.432-0.471-2.752-1.258-3.827L20.5,3.915
				l0.793,0.793c0.39,0.39,1.024,0.39,1.414,0C23.098,4.317,23.098,3.684,22.708,3.294z"/>
		</g>
	</g>
</g>
<g id="Invisible_Shape">
	<rect fill="none" width="24" height="24"/>
</g>
</svg>
