<?xml version="1.0" encoding="utf-8"?>
<!-- Generator: Adobe Illustrator 19.2.1, SVG Export Plug-In . SVG Version: 6.00 Build 0)  -->
<svg version="1.1" xmlns="http://www.w3.org/2000/svg" xmlns:xlink="http://www.w3.org/1999/xlink" x="0px" y="0px" width="24px"
	 height="24px" viewBox="0 0 24 24" enable-background="new 0 0 24 24" xml:space="preserve">
<g id="Filled_Icons_1_">
	<g id="Filled_Icons">
	</g>
	<g id="New_icons">
		<g>
			<path d="M22,0h-3.5c-0.552,0-1,0.448-1,1c0,0.552,0.448,1,1,1h1.086l-2.758,2.759C15.752,3.971,14.432,3.5,13,3.5
				c-3.584,0-6.5,2.916-6.5,6.5c0,1.264,0.363,2.49,1.051,3.545c0.302,0.463,0.921,0.593,1.384,0.292
				c0.463-0.302,0.593-0.921,0.292-1.384C8.751,11.724,8.5,10.876,8.5,10c0-2.481,2.019-4.5,4.5-4.5s4.5,2.019,4.5,4.5
				c0,1.868-1.124,3.514-2.864,4.193c-0.514,0.2-0.767,0.777-0.568,1.295c0.201,0.514,0.781,0.768,1.295,0.568
				C17.876,15.076,19.5,12.698,19.5,10c0-1.432-0.471-2.752-1.258-3.828L21,3.414V4.5c0,0.552,0.448,1,1,1s1-0.448,1-1V1
				C23,0.448,22.552,0,22,0z"/>
			<path d="M14,12c0-1.264-0.363-2.49-1.051-3.545c-0.302-0.463-0.921-0.594-1.384-0.292c-0.463,0.302-0.593,0.921-0.292,1.384
				C11.749,10.276,12,11.125,12,12c0,2.481-2.019,4.5-4.5,4.5S3,14.481,3,12c0-1.699,0.941-3.235,2.455-4.009
				c0.492-0.252,0.687-0.854,0.436-1.347C5.64,6.154,5.037,5.959,4.545,6.21C2.358,7.327,1,9.545,1,12c0,3.067,2.138,5.639,5,6.318
				v2.267l-0.792-0.792c-0.391-0.391-1.024-0.39-1.415,0c-0.39,0.391-0.391,1.023,0,1.414l2.5,2.5c0.391,0.391,1.024,0.391,1.414,0
				l2.5-2.499c0.391-0.39,0.391-1.023,0.001-1.414c-0.391-0.391-1.024-0.39-1.415,0L8,20.587v-2.112C11.351,18.218,14,15.415,14,12z
				"/>
		</g>
	</g>
</g>
<g id="Invisible_Shape">
	<rect fill="none" width="24" height="24"/>
</g>
</svg>
