<?xml version="1.0" encoding="utf-8"?>
<!-- Generator: Adobe Illustrator 19.2.1, SVG Export Plug-In . SVG Version: 6.00 Build 0)  -->
<svg version="1.1" xmlns="http://www.w3.org/2000/svg" xmlns:xlink="http://www.w3.org/1999/xlink" x="0px" y="0px" width="24px"
	 height="24px" viewBox="0 0 24 24" enable-background="new 0 0 24 24" xml:space="preserve">
<g id="Filled_Icons_1_">
	<g id="Filled_Icons">
		<g>
			<path d="M11.564,8.162c-0.462,0.302-0.593,0.921-0.292,1.384C11.748,10.275,12,11.125,12,12c0,2.481-2.019,4.5-4.5,4.5
				C5.019,16.5,3,14.481,3,12c0-1.699,0.941-3.235,2.456-4.01c0.492-0.251,0.687-0.853,0.435-1.346
				C5.639,6.152,5.036,5.958,4.545,6.21C2.358,7.327,1,9.546,1,12c0,3.067,2.138,5.639,5,6.318V20H5c-0.552,0-1,0.448-1,1
				c0,0.553,0.448,1,1,1h1v1c0,0.553,0.448,1,1,1s1-0.447,1-1v-1h1c0.552,0,1-0.447,1-1c0-0.552-0.448-1-1-1H8v-1.525
				c3.351-0.257,6-3.059,6-6.475c0-1.265-0.364-2.491-1.052-3.547C12.646,7.99,12.027,7.86,11.564,8.162z"/>
			<path d="M22,0h-3.5c-0.552,0-1,0.448-1,1c0,0.552,0.448,1,1,1h1.086l-2.758,2.759C15.752,3.971,14.432,3.5,13,3.5
				c-3.584,0-6.5,2.916-6.5,6.5c0,1.259,0.364,2.485,1.054,3.543c0.302,0.463,0.922,0.593,1.384,0.292
				c0.463-0.301,0.593-0.921,0.292-1.384C8.752,11.719,8.5,10.871,8.5,10c0-2.481,2.019-4.5,4.5-4.5s4.5,2.019,4.5,4.5
				c0,1.856-1.14,3.497-2.868,4.183c-0.517,0.202-0.772,0.785-0.571,1.302c0.201,0.518,0.784,0.774,1.303,0.573
				C17.854,15.065,19.5,12.68,19.5,10c0-1.432-0.471-2.752-1.258-3.828L21,3.414V4.5c0,0.552,0.448,1,1,1s1-0.448,1-1V1
				C23,0.448,22.552,0,22,0z"/>
		</g>
	</g>
	<g id="New_icons">
	</g>
</g>
<g id="Invisible_Shape">
	<rect fill="none" width="24" height="24"/>
</g>
</svg>
