<?xml version="1.0" encoding="utf-8"?>
<!-- Generator: Adobe Illustrator 19.2.1, SVG Export Plug-In . SVG Version: 6.00 Build 0)  -->
<svg version="1.1" xmlns="http://www.w3.org/2000/svg" xmlns:xlink="http://www.w3.org/1999/xlink" x="0px" y="0px" width="24px"
	 height="24px" viewBox="0 0 24 24" enable-background="new 0 0 24 24" xml:space="preserve">
<g id="Filled_Icons_1_">
	<g id="Filled_Icons">
		<g>
			<path d="M8.763,19.071c-0.407-1.2-1.31-2.172-2.462-2.679c0.724-0.548,1.2-1.408,1.2-2.384c0-1.655-1.346-3-3-3s-3,1.345-3,3
				c0,0.975,0.475,1.834,1.197,2.383C1.112,17.087,0,18.668,0,20.507c0,0.276,0.224,0.5,0.5,0.493h6.607
				C7.502,20.239,8.071,19.577,8.763,19.071z"/>
			<path d="M15.237,19.071c0.407-1.2,1.31-2.172,2.462-2.679c-0.724-0.548-1.2-1.408-1.2-2.384c0-1.655,1.346-3,3-3s3,1.345,3,3
				c0,0.975-0.475,1.834-1.197,2.383C22.888,17.087,24,18.668,24,20.507c0,0.276-0.224,0.5-0.5,0.493h-6.607
				C16.499,20.239,15.929,19.577,15.237,19.071z"/>
			<path d="M16,24c0.276,0,0.5-0.216,0.5-0.493c0-1.839-1.112-3.42-2.697-4.117C14.525,18.842,15,17.982,15,17.007
				c0-1.655-1.346-3-3-3s-3,1.345-3,3c0,0.975,0.475,1.835,1.197,2.383C8.612,20.087,7.5,21.668,7.5,23.507
				C7.5,23.784,7.724,24,8,24H16z"/>
			<path d="M17.5,0h-11C5.673,0,5,0.666,5,1.493v7c0,0.827,0.673,1.5,1.5,1.5h0.793l2.853,2.853
				c0.096,0.096,0.224,0.147,0.354,0.147c0.276,0,0.5-0.224,0.5-0.5v-2.5h6.5c0.827,0,1.5-0.673,1.5-1.5v-7
				C19,0.666,18.327,0,17.5,0z M15.469,7H8.5C8.224,7,8,6.769,8,6.493c0-0.276,0.224-0.5,0.5-0.5h6.969c0.276,0,0.5,0.224,0.5,0.5
				C15.969,6.769,15.745,7,15.469,7z M15.469,5H8.5C8.224,5,8,4.769,8,4.493c0-0.276,0.224-0.5,0.5-0.5h6.969
				c0.276,0,0.5,0.224,0.5,0.5C15.969,4.769,15.745,5,15.469,5z M15.469,3H8.5C8.224,3,8,2.77,8,2.493c0-0.276,0.224-0.5,0.5-0.5
				h6.969c0.276,0,0.5,0.224,0.5,0.5C15.969,2.77,15.745,3,15.469,3z"/>
		</g>
	</g>
	<g id="New_icons">
	</g>
</g>
<g id="Invisible_Shape">
	<rect fill="none" width="24" height="24"/>
</g>
</svg>
