<?xml version="1.0" encoding="utf-8"?>
<!-- Generator: Adobe Illustrator 19.2.1, SVG Export Plug-In . SVG Version: 6.00 Build 0)  -->
<svg version="1.1" xmlns="http://www.w3.org/2000/svg" xmlns:xlink="http://www.w3.org/1999/xlink" x="0px" y="0px" width="24px"
	 height="24px" viewBox="0 0 24 24" enable-background="new 0 0 24 24" xml:space="preserve">
<g id="Filled_Icons_1_">
	<g id="Filled_Icons">
		<path d="M24,3.5v16c0,0.276-0.224,0.5-0.5,0.5h-4c-0.276,0-0.5-0.224-0.5-0.5v-0.75c0-0.69-0.561-1.25-1.25-1.25
			s-1.25,0.56-1.25,1.25v0.75c0,0.276-0.224,0.5-0.5,0.5H8c-0.276,0-0.5-0.224-0.5-0.5v-0.75c0-0.69-0.561-1.25-1.25-1.25
			S5,18.06,5,18.75v0.75C5,19.776,4.776,20,4.5,20h-4C0.224,20,0,19.776,0,19.5v-16C0,3.224,0.224,3,0.5,3h23
			C23.776,3,24,3.224,24,3.5z M13,8h4V7h-4V8z M11,13.5c0-1.241-0.623-2.638-2.249-3.22C9.212,9.826,9.5,9.197,9.5,8.5
			C9.5,7.122,8.378,6,7,6S4.5,7.122,4.5,8.5c0,0.697,0.288,1.326,0.749,1.78C3.623,10.862,3,12.259,3,13.5V14h8V13.5z M21,13h-8v1h8
			V13z M21,11h-8v1h8V11z M21,9h-8v1h8V9z"/>
	</g>
	<g id="New_icons">
	</g>
</g>
<g id="Invisible_Shape">
	<rect fill="none" width="24" height="24"/>
</g>
</svg>
