<?xml version="1.0" encoding="utf-8"?>
<!-- Generator: Adobe Illustrator 19.2.1, SVG Export Plug-In . SVG Version: 6.00 Build 0)  -->
<svg version="1.1" xmlns="http://www.w3.org/2000/svg" xmlns:xlink="http://www.w3.org/1999/xlink" x="0px" y="0px" width="24px"
	 height="24px" viewBox="0 0 24 24" enable-background="new 0 0 24 24" xml:space="preserve">
<g id="Filled_Icons_1_">
	<g id="Filled_Icons">
		<path d="M24,3.5v17c0,0.276-0.224,0.5-0.5,0.5h-4c-0.276,0-0.5-0.224-0.5-0.5V19c0-0.69-0.811-1.25-1.5-1.25S16,18.31,16,19v1.5
			c0,0.276-0.224,0.5-0.5,0.5h-7C8.224,21,8,20.776,8,20.5V19c0-0.69-0.811-1.25-1.5-1.25S5,18.31,5,19v1.5
			C5,20.776,4.776,21,4.5,21h-4C0.224,21,0,20.776,0,20.5v-17C0,3.224,0.224,3,0.5,3h23C23.776,3,24,3.224,24,3.5z M13,8h4V7h-4V8z
			 M11.5,12.5c0-0.099-0.029-0.195-0.084-0.277c-0.043-0.065-1.006-1.477-2.916-1.694v-0.265c0.376-0.298,1-0.986,1-2.263
			c0-0.996,0-2.5-2.5-2.5S4.5,7.004,4.5,8c0,1.277,0.624,1.965,1,2.263v0.265c-1.91,0.218-2.873,1.629-2.916,1.694
			C2.529,12.305,2.5,12.401,2.5,12.5v2C2.5,14.776,2.724,15,3,15h8c0.276,0,0.5-0.224,0.5-0.5V12.5z M21,13h-8v1h8V13z M21,11h-8v1
			h8V11z M21,9h-8v1h8V9z"/>
	</g>
	<g id="New_icons">
	</g>
</g>
<g id="Invisible_Shape">
	<rect fill="none" width="24" height="24"/>
</g>
</svg>
