<?xml version="1.0" encoding="utf-8"?>
<!-- Generator: Adobe Illustrator 19.2.1, SVG Export Plug-In . SVG Version: 6.00 Build 0)  -->
<svg version="1.1" xmlns="http://www.w3.org/2000/svg" xmlns:xlink="http://www.w3.org/1999/xlink" x="0px" y="0px" width="24px"
	 height="24px" viewBox="0 0 24 24" enable-background="new 0 0 24 24" xml:space="preserve">
<g id="Filled_Icons_1_">
	<g id="Filled_Icons">
		<g>
			<path d="M12.146,12.317c0.112-0.112,0.27-0.165,0.426-0.142c0.157,0.023,0.293,0.119,0.368,0.258
				c0.217,0.404,0.618,0.519,0.837,0.551c0.234,0.033,0.445,0.003,0.604-0.054C14.06,11.812,13.114,11,12,11
				c-1.084,0-2.006,0.771-2.352,1.842C10.318,13.106,11.414,13.049,12.146,12.317z"/>
			<path d="M12,16.543c1.329,0,2.415-1.156,2.493-2.607C14.328,13.974,14.158,14,13.98,14c-0.115,0-0.231-0.009-0.348-0.026
				c-0.475-0.07-0.895-0.277-1.212-0.587c-0.896,0.623-2.03,0.732-2.916,0.463C9.542,15.342,10.646,16.543,12,16.543z"/>
			<path d="M20.5,4H15V3c0-1.654-1.346-3-3-3S9,1.346,9,3v1H3.5C3.224,4,3,4.224,3,4.5v19C3,23.776,3.224,24,3.5,24h17
				c0.276,0,0.5-0.224,0.5-0.5v-19C21,4.224,20.776,4,20.5,4z M12,2c0.552,0,1,0.448,1,1s-0.448,1-1,1c-0.553,0-1-0.448-1-1
				S11.447,2,12,2z M12,10c1.93,0,3.5,1.692,3.5,3.771c0,1.279-0.595,2.409-1.5,3.091v0.773l2.651,0.838
				c0.263,0.083,0.409,0.362,0.326,0.628c-0.083,0.263-0.364,0.409-0.628,0.325l-3-0.948C13.142,18.411,13,18.219,13,18v-0.616
				c-0.317,0.102-0.652,0.159-1,0.159s-0.683-0.057-1-0.159V18c0,0.219-0.142,0.411-0.349,0.477l-3,0.948
				c-0.264,0.084-0.544-0.062-0.628-0.325c-0.083-0.266,0.063-0.544,0.326-0.628L10,17.634v-0.773c-0.905-0.682-1.5-1.812-1.5-3.091
				C8.5,11.692,10.07,10,12,10z M19,21.5c0,0.276-0.224,0.5-0.5,0.5h-13C5.224,22,5,21.776,5,21.5v-15C5,6.224,5.224,6,5.5,6h3
				C8.776,6,9,6.224,9,6.5S8.776,7,8.5,7H6v14h12V7h-2.5C15.224,7,15,6.776,15,6.5S15.224,6,15.5,6h3C18.776,6,19,6.224,19,6.5V21.5
				z"/>
		</g>
	</g>
	<g id="New_icons">
	</g>
</g>
<g id="Invisible_Shape">
	<rect fill="none" width="24" height="24"/>
</g>
</svg>
