<?xml version="1.0" encoding="utf-8"?>
<!-- Generator: Adobe Illustrator 19.2.1, SVG Export Plug-In . SVG Version: 6.00 Build 0)  -->
<svg version="1.1" xmlns="http://www.w3.org/2000/svg" xmlns:xlink="http://www.w3.org/1999/xlink" x="0px" y="0px" width="24px"
	 height="24px" viewBox="0 0 24 24" enable-background="new 0 0 24 24" xml:space="preserve">
<g id="Filled_Icons_1_">
	<g id="Filled_Icons">
		<g>
			<path d="M21,20v3.5c0,0.276-0.224,0.5-0.5,0.5h-17C3.224,24,3,23.776,3,23.5V20H21z M14,22h4v-1h-4V22z"/>
			<path d="M20.5,4H15V3c0-1.654-1.346-3-3-3S9,1.346,9,3v1H3.5C3.224,4,3,4.224,3,4.5V19h3c0-0.753,0.611-1.541,1.363-1.755
				L10,16.606v-0.748c-0.904-0.683-1.5-1.81-1.5-3.088c0-0.091,0.01-0.281,0.009-0.271c0.319,0.133,0.662,0.231,0.906,0.271
				c0.913,0.148,2.119,0.07,2.949-0.386c0.257,0.276,0.619,0.469,1.069,0.566c0.231,0.05,0.475,0.072,0.721,0.072
				c0.468,0,0.946-0.123,1.346-0.253c0,1.278-0.596,2.405-1.5,3.088v0.748l2.618,0.633C17.409,17.465,18.006,18.235,18,19h3V4.5
				C21,4.224,20.776,4,20.5,4z M12,2c0.552,0,1,0.448,1,1s-0.448,1-1,1c-0.553,0-1-0.448-1-1S11.447,2,12,2z M13.644,11.974
				c-0.54-0.117-0.642-0.39-0.676-0.48c-0.06-0.158-0.196-0.276-0.362-0.312c-0.167-0.036-0.339,0.015-0.46,0.136
				c-0.426,0.426-1.556,0.632-2.572,0.467c-0.387-0.063-0.681-0.169-0.873-0.279C9.186,10.047,10.482,9,12,9
				c1.623,0,2.973,1.182,3.367,2.799C14.966,11.958,14.243,12.102,13.644,11.974z"/>
		</g>
	</g>
	<g id="New_icons">
	</g>
</g>
<g id="Invisible_Shape">
	<rect fill="none" width="24" height="24"/>
</g>
</svg>
