<?xml version="1.0" encoding="utf-8"?>
<!-- Generator: Adobe Illustrator 19.2.1, SVG Export Plug-In . SVG Version: 6.00 Build 0)  -->
<svg version="1.1" xmlns="http://www.w3.org/2000/svg" xmlns:xlink="http://www.w3.org/1999/xlink" x="0px" y="0px" width="24px"
	 height="24px" viewBox="0 0 24 24" enable-background="new 0 0 24 24" xml:space="preserve">
<g id="Filled_Icons_1_">
	<g id="Filled_Icons">
		<g>
			<path d="M5.5,4H22v20H5.5C4.122,24,3,22.878,3,21.5v-1h1.5c0.551,0,1-0.448,1-1c0-0.551-0.449-1-1-1H3v-1h1.5
				c0.551,0,1-0.448,1-1c0-0.551-0.449-1-1-1H3v-1h1.5c0.551,0,1-0.448,1-1c0-0.551-0.449-1-1-1H3v-1h1.5c0.551,0,1-0.448,1-1
				c0-0.551-0.449-1-1-1H3v-1h1.5c0.551,0,1-0.448,1-1c0-0.551-0.449-1-1-1H3v-4C3,1.122,4.122,0,5.5,0h16C21.776,0,22,0.224,22,0.5
				C22,0.776,21.776,1,21.5,1h-16C4.673,1,4,1.673,4,2.5S4.673,4,5.5,4z M9.613,10.838c0.939,0.545,2.795,0.217,3.534-0.521
				c0.112-0.112,0.271-0.165,0.426-0.142c0.156,0.023,0.293,0.119,0.368,0.258c0.201,0.375,0.979,0.686,1.715,0.671
				c0.32-0.004,0.588-0.073,0.751-0.183C16.049,9.252,14.659,8,13,8C11.37,8,10,9.21,9.613,10.838z M7.5,20h11v-2
				c0-0.772-0.582-1.543-1.325-1.755L15,15.623v-0.762c0.856-0.645,1.43-1.69,1.49-2.883c-0.243,0.078-0.517,0.123-0.82,0.127
				c-0.017,0.001-0.033,0.001-0.049,0.001c-0.752,0-1.636-0.249-2.189-0.738c-0.564,0.38-1.325,0.639-2.135,0.715
				c-0.669,0.063-1.283-0.01-1.792-0.199C9.54,13.115,10.122,14.2,11,14.861v0.762l-2.176,0.622C8.082,16.457,7.5,17.229,7.5,18V20z
				"/>
			<path d="M5.5,2C5.224,2,5,2.224,5,2.5C5,2.776,5.224,3,5.5,3h15C20.776,3,21,2.776,21,2.5C21,2.224,20.776,2,20.5,2H5.5z"/>
			<path d="M2.5,8h2C4.776,8,5,7.776,5,7.5C5,7.225,4.776,7,4.5,7h-2C2.224,7,2,7.225,2,7.5C2,7.776,2.224,8,2.5,8z"/>
			<path d="M2.5,11h2C4.776,11,5,10.776,5,10.5C5,10.225,4.776,10,4.5,10h-2C2.224,10,2,10.225,2,10.5C2,10.776,2.224,11,2.5,11z"/>
			<path d="M2.5,14h2C4.776,14,5,13.776,5,13.5C5,13.225,4.776,13,4.5,13h-2C2.224,13,2,13.225,2,13.5C2,13.776,2.224,14,2.5,14z"/>
			<path d="M2.5,17h2C4.776,17,5,16.776,5,16.5C5,16.225,4.776,16,4.5,16h-2C2.224,16,2,16.225,2,16.5C2,16.776,2.224,17,2.5,17z"/>
			<path d="M5,19.5C5,19.225,4.776,19,4.5,19h-2C2.224,19,2,19.225,2,19.5C2,19.776,2.224,20,2.5,20h2C4.776,20,5,19.776,5,19.5z"/>
		</g>
	</g>
	<g id="New_icons">
	</g>
</g>
<g id="Invisible_Shape">
	<rect fill="none" width="24" height="24"/>
</g>
</svg>
