<?xml version="1.0" encoding="utf-8"?>
<!-- Generator: Adobe Illustrator 19.2.1, SVG Export Plug-In . SVG Version: 6.00 Build 0)  -->
<svg version="1.1" xmlns="http://www.w3.org/2000/svg" xmlns:xlink="http://www.w3.org/1999/xlink" x="0px" y="0px" width="24px"
	 height="24px" viewBox="0 0 24 24" enable-background="new 0 0 24 24" xml:space="preserve">
<g id="Filled_Icons_1_">
	<g id="Filled_Icons">
		<g>
			<path d="M21,6v2h3v3h-3v2h3v3h-3v2h3v2c0,1.378-1.122,2.5-2.5,2.5H21v1c0,0.276-0.224,0.5-0.5,0.5H4V0h16.5
				C20.776,0,21,0.224,21,0.5v1h0.5C22.878,1.5,24,2.622,24,4v2H21z M9.148,8.343c0.67,0.263,1.767,0.207,2.499-0.525
				c0.112-0.112,0.27-0.165,0.426-0.142c0.156,0.023,0.293,0.119,0.368,0.258c0.218,0.406,0.625,0.521,0.849,0.554
				c0.23,0.033,0.437,0.006,0.596-0.046C13.566,7.318,12.618,6.5,11.5,6.5C10.416,6.5,9.493,7.271,9.148,8.343z M9.003,9.35
				c0.038,1.492,1.142,2.693,2.497,2.693c1.326,0,2.411-1.151,2.492-2.599c-0.159,0.034-0.324,0.059-0.495,0.059
				c-0.117,0-0.235-0.008-0.354-0.025c-0.481-0.071-0.905-0.278-1.224-0.591C11.024,9.509,9.89,9.619,9.003,9.35z M16,15.5
				c0-0.325-0.286-0.704-0.599-0.794L12.5,13.878v-0.994c-0.317,0.103-0.652,0.159-1,0.159s-0.683-0.057-1-0.159v0.994l-2.902,0.828
				C7.285,14.796,7,15.175,7,15.5V18h9V15.5z"/>
			<path d="M0,1.5v21C0,23.327,0.673,24,1.5,24H3V0H1.5C0.673,0,0,0.673,0,1.5z"/>
		</g>
	</g>
	<g id="New_icons">
	</g>
</g>
<g id="Invisible_Shape">
	<rect fill="none" width="24" height="24"/>
</g>
</svg>
