<?xml version="1.0" encoding="utf-8"?>
<!-- Generator: Adobe Illustrator 19.2.1, SVG Export Plug-In . SVG Version: 6.00 Build 0)  -->
<svg version="1.1" xmlns="http://www.w3.org/2000/svg" xmlns:xlink="http://www.w3.org/1999/xlink" x="0px" y="0px" width="24px"
	 height="24px" viewBox="0 0 24 24" enable-background="new 0 0 24 24" xml:space="preserve">
<g id="Filled_Icons_1_">
	<g id="Filled_Icons">
		<g>
			<path d="M22,0.5v23c0,0.276-0.224,0.5-0.5,0.5h-20C1.224,24,1,23.776,1,23.5v-23C1,0.224,1.224,0,1.5,0h20
				C21.776,0,22,0.224,22,0.5z M21,1H2v22h19V1z"/>
			<path d="M19.5,2h-16C3.224,2,3,2.224,3,2.5v16c0-0.215,0.138-0.406,0.342-0.474L9,16.14V14.78
				c-0.185-0.143-0.413-0.38-0.604-0.765c-0.001-0.002-0.002-0.004-0.003-0.006c-0.246-0.496-0.355-1.108-0.383-1.659
				c-0.431-0.285-0.65-0.946-0.65-1.482c0-0.441,0.141-0.901,0.497-1.164C7.566,9.021,7.187,8.04,7.599,7.418
				c0.236-0.355,0.646-0.483,1.078-0.463C9.234,5.898,10.777,5.5,12,5.5c1.233,0,2.767,0.388,3.334,1.485
				c0.288,0.556,0.38,1.492-0.154,2.732c0.335,0.265,0.466,0.707,0.466,1.136c0,0.54-0.214,1.207-0.655,1.498
				C14.946,13.229,14.7,14.241,14,14.78v1.359l5.658,1.887C19.862,18.094,20,18.285,20,18.5v-16C20,2.224,19.776,2,19.5,2z"/>
		</g>
	</g>
	<g id="New_icons">
	</g>
</g>
<g id="Invisible_Shape">
	<rect fill="none" width="24" height="24"/>
</g>
</svg>
