<?xml version="1.0" encoding="utf-8"?>
<!-- Generator: Adobe Illustrator 19.2.0, SVG Export Plug-In . SVG Version: 6.00 Build 0)  -->
<svg version="1.1" xmlns="http://www.w3.org/2000/svg" xmlns:xlink="http://www.w3.org/1999/xlink" x="0px" y="0px" width="24px"
	 height="24px" viewBox="0 0 24 24" enable-background="new 0 0 24 24" xml:space="preserve">
<g id="Filled_Icons">
	<g>
		<path d="M18.666,16.266c-0.714-0.849-1.555-1.583-2.494-2.181c-2.244,4.619-7.245,7.382-12.433,6.602
			c0.868,0.827,1.859,1.521,2.944,2.06C14.72,23.83,18.666,16.266,18.666,16.266z"/>
		<path d="M5.063,15.408c1.027-0.17,2.024-0.493,2.966-0.948C6.704,12.486,6,10.198,6,7.797c0-1.733,0.362-3.406,1.076-4.973
			c0.032-0.076,0.493-1.121,1.403-2.289C7.517,0.831,6.612,1.256,5.769,1.77C4.596,3.063,4,4.416,3.99,4.438
			C3.332,5.883,3,7.417,3,9.006C3,11.328,3.716,13.534,5.063,15.408z"/>
		<path d="M12.428,4.28c-0.355,0.981-0.563,2.011-0.628,3.056c5.052-0.42,9.916,2.4,11.94,7.147c0.168-0.8,0.26-1.627,0.26-2.476
			c0-0.375-0.022-0.744-0.057-1.111C22.003,6.516,17.289,3.725,12.428,4.28z"/>
		<path d="M11.785,8.342c0.035,1.09,0.234,2.172,0.599,3.227c4.038,0.715,7.452,3.31,9.164,7.676
			c0.716-0.941,1.293-1.989,1.708-3.119C21.94,11.336,17.173,7.849,11.785,8.342z"/>
		<path d="M7.99,3.228C7.332,4.674,7,6.208,7,7.797c0,2.232,0.664,4.357,1.911,6.184c0.934-0.564,1.78-1.269,2.523-2.103
			C11,10.613,10.771,9.314,10.771,8.006c0-2.778,0.925-5.43,2.939-7.863C13.15,0.062,12.582,0.006,12,0.006
			c-0.63,0-1.243,0.063-1.848,0.157C8.726,1.561,8.001,3.205,7.99,3.228z"/>
		<path d="M19.2,16.947c-2.019,4.191-6.192,6.461-9.604,6.816c0.777,0.158,1.581,0.242,2.404,0.242c3.479,0,6.608-1.498,8.803-3.872
			C20.383,18.871,19.843,17.846,19.2,16.947z"/>
		<path d="M3.933,15.53C2.669,13.589,2,11.351,2,9.006C2,7.273,2.362,5.6,3.076,4.033c0.002-0.006,0.011-0.025,0.019-0.041
			C1.178,6.119,0,8.924,0,12.006c0,1.112,0.164,2.185,0.448,3.208C1.711,15.515,2.839,15.598,3.933,15.53z"/>
		<path d="M12.878,3.231c4.418-0.298,8.335,2.005,10.355,4.593c-1.377-3.686-4.51-6.513-8.381-7.462
			C13.977,1.31,13.356,2.245,12.878,3.231z"/>
		<path d="M0.814,16.316c0.434,1.121,1.028,2.16,1.759,3.091c4.947,1.448,10.415-0.981,12.73-5.819
			c-0.974-0.498-2.022-0.85-3.127-1.041C9.467,15.586,5.507,17.154,0.814,16.316z"/>
		<polygon points="11.999,12.004 11.999,12.003 11.998,12.003 		"/>
	</g>
</g>
<g id="invisible_shape">
	<rect fill="none" width="24" height="24"/>
</g>
</svg>
