<?xml version="1.0" encoding="utf-8"?>
<!-- Generator: Adobe Illustrator 19.2.0, SVG Export Plug-In . SVG Version: 6.00 Build 0)  -->
<svg version="1.1" xmlns="http://www.w3.org/2000/svg" xmlns:xlink="http://www.w3.org/1999/xlink" x="0px" y="0px" width="24px"
	 height="24px" viewBox="0 0 24 24" enable-background="new 0 0 24 24" xml:space="preserve">
<g id="Filled_Icons">
	<g>
		<path d="M21.301,9.651c0.655-2.56,0.787-4.918,0.655-6.255c-0.068-0.71-0.634-1.276-1.346-1.347
			c-1.231-0.121-3.62,0.001-6.242,0.67L21.301,9.651z"/>
		<path d="M13.264,3.03c-2.376,0.737-4.838,1.944-6.735,3.841c-2.184,2.184-3.468,5.152-4.17,7.881l6.903,6.902
			c2.709-0.695,5.672-1.975,7.874-4.177c1.897-1.897,3.111-4.346,3.854-6.724L13.264,3.03z M14.999,10.422
			c0.195,0.194,0.195,0.511,0,0.706c-0.098,0.098-0.226,0.148-0.353,0.148s-0.256-0.05-0.354-0.148l-0.707-0.706l-1.414,1.414
			l0.707,0.707c0.195,0.195,0.195,0.512,0,0.707c-0.098,0.098-0.226,0.146-0.354,0.146s-0.256-0.049-0.353-0.146l-0.707-0.707
			l-1.414,1.414l0.707,0.707c0.195,0.195,0.195,0.512,0,0.707c-0.098,0.098-0.226,0.146-0.353,0.146
			c-0.128,0-0.256-0.049-0.354-0.146l-0.707-0.707l-0.707,0.707c-0.098,0.098-0.226,0.146-0.354,0.146
			c-0.128,0-0.256-0.049-0.353-0.146c-0.195-0.195-0.195-0.512,0-0.707l0.707-0.707L7.929,13.25c-0.195-0.195-0.195-0.512,0-0.707
			c0.195-0.195,0.512-0.195,0.707,0l0.707,0.707l1.414-1.414l-0.707-0.708c-0.195-0.195-0.195-0.512,0-0.706
			c0.195-0.196,0.512-0.196,0.707,0l0.707,0.707l1.414-1.414l-0.707-0.707c-0.195-0.195-0.195-0.512,0-0.707s0.512-0.195,0.707,0
			l0.707,0.707l0.707-0.707c0.195-0.195,0.512-0.195,0.707,0c0.195,0.195,0.195,0.512,0,0.707l-0.707,0.707L14.999,10.422z"/>
		<path d="M2.095,15.901C1.66,18.02,1.57,19.893,1.677,20.982c0.132,1.343,1.327,1.389,2.327,1.389c1.064,0,2.512-0.129,4.107-0.454
			L2.095,15.901z"/>
	</g>
</g>
<g id="invisible_shape">
	<rect fill="none" width="24" height="24"/>
</g>
</svg>
