<?xml version="1.0" encoding="utf-8"?>
<!-- Generator: Adobe Illustrator 19.2.0, SVG Export Plug-In . SVG Version: 6.00 Build 0)  -->
<svg version="1.1" xmlns="http://www.w3.org/2000/svg" xmlns:xlink="http://www.w3.org/1999/xlink" x="0px" y="0px" width="24px"
	 height="24px" viewBox="0 0 24 24" enable-background="new 0 0 24 24" xml:space="preserve">
<g id="Filled_Icons">
	<g>
		<g>
			<path d="M7.328,21.195l-4.949-4.951l-0.354,0.354C1.364,17.259,1,18.139,1,19.073c0,0.935,0.364,1.813,1.025,2.475
				c0.66,0.661,1.539,1.026,2.474,1.026c0.936,0,1.814-0.365,2.476-1.025L7.328,21.195v0.001V21.195z"/>
			<polygon points="8.742,19.78 3.793,14.83 3.086,15.536 3.085,15.537 8.035,20.488 			"/>
		</g>
		<path d="M5.906,15.53l8.746-11.755l-0.538-2.38c-0.055-0.245-0.279-0.417-0.536-0.387L9.38,1.406
			C9.19,1.424,9.028,1.548,8.96,1.726L4.308,13.931L5.906,15.53z"/>
		<path d="M7.377,17.001l11.62-8.632L18.333,5.61c-0.044-0.185-0.189-0.327-0.374-0.37l-2.688-0.621L6.621,16.245L7.377,17.001z"/>
		<path d="M22.221,9.504l-2.357-0.532L8.092,17.716l1.594,1.594l12.206-4.652c0.178-0.067,0.302-0.23,0.319-0.42l0.398-4.198
			C22.633,9.789,22.467,9.56,22.221,9.504z"/>
	</g>
</g>
<g id="invisible_shape">
	<rect fill="none" width="24" height="24"/>
</g>
</svg>
