<?xml version="1.0" encoding="utf-8"?>
<!-- Generator: Adobe Illustrator 19.2.0, SVG Export Plug-In . SVG Version: 6.00 Build 0)  -->
<svg version="1.1" xmlns="http://www.w3.org/2000/svg" xmlns:xlink="http://www.w3.org/1999/xlink" x="0px" y="0px" width="24px"
	 height="24px" viewBox="0 0 24 24" enable-background="new 0 0 24 24" xml:space="preserve">
<g id="Filled_Icons">
	<g>
		<path d="M23.986,11.462c-0.104-2.606-1.038-5-2.554-6.923c-3.503,0.566-6.618,1.72-9.624,4.072
			c0.892,0.778,1.757,1.649,2.561,2.638c1.357-0.822,2.941-1.304,4.641-1.304C20.969,9.945,22.926,10.648,23.986,11.462z"/>
		<path d="M9.054,6.532c0.66,0.426,1.322,0.9,1.977,1.422c2.902-2.317,6.326-3.768,9.63-4.304c-2.185-2.277-5.252-3.705-8.65-3.705
			c-0.338,0-0.67,0.023-1,0.051C11.11,2.49,10.581,4.61,9.054,6.532z"/>
		<path d="M11.019,9.257c-3.722,3.226-5.751,7.148-7.194,11.44c2.033,1.902,4.721,3.102,7.688,3.224
			c-1.01-1.528-1.503-3.236-1.503-4.975c0-2.901,1.386-5.479,3.524-7.126C12.745,10.857,11.896,10.01,11.019,9.257z"/>
		<path d="M14.144,12.61c-1.901,1.464-3.134,3.756-3.134,6.335c0,2.496,1.034,3.965,1.693,4.965c1.923-0.11,3.723-0.67,5.299-1.584
			C17.417,18.755,16.481,15.763,14.144,12.61z"/>
		<path d="M10.231,8.607c-0.612-0.48-1.23-0.924-1.846-1.316c-2.027,2.036-4.782,3.033-8.167,2.48
			c-0.13,0.706-0.208,1.432-0.208,2.175c0,3.048,1.151,5.826,3.031,7.945C4.497,15.553,6.785,11.642,10.231,8.607z"/>
		<path d="M19.011,10.945c-1.471,0-2.847,0.406-4.032,1.103c2.197,2.977,3.354,6.098,3.941,9.692
			c2.878-2.037,4.815-5.303,5.052-9.029C22.605,11.659,21.137,10.945,19.011,10.945z"/>
		<path d="M8.198,6.008c1.566-1.91,1.834-3.742,1.814-5.882c-2.625,0.442-4.96,1.735-6.714,3.593
			C4.299,4.101,5.978,4.695,8.198,6.008z"/>
		<path d="M7.494,6.754C5.939,5.852,4.44,5.198,3.187,4.746c-0.183-0.07-0.381-0.146-0.586-0.224
			C1.614,5.771,0.875,7.218,0.444,8.794C3.279,9.256,5.657,8.49,7.494,6.754z"/>
	</g>
</g>
<g id="invisible_shape">
	<rect fill="none" width="24" height="24"/>
</g>
</svg>
