<?xml version="1.0" encoding="utf-8"?>
<!-- Generator: Adobe Illustrator 19.2.0, SVG Export Plug-In . SVG Version: 6.00 Build 0)  -->
<svg version="1.1" xmlns="http://www.w3.org/2000/svg" xmlns:xlink="http://www.w3.org/1999/xlink" x="0px" y="0px" width="24px"
	 height="24px" viewBox="0 0 24 24" enable-background="new 0 0 24 24" xml:space="preserve">
<g id="Filled_Icons">
	<g>
		<circle cx="17.836" cy="18.246" r="3"/>
		<g>
			<path d="M22.093,1.826c-0.748-0.748-1.752-1.136-2.83-1.074c-1.051,0.063-2.028,0.575-2.673,1.396L5.744,15.433l-0.001,0.001
				l2.833,2.832L21.79,7.315c0.817-0.653,1.319-1.63,1.378-2.679C23.225,3.593,22.833,2.567,22.093,1.826z"/>
			<rect x="5.169" y="16.085" transform="matrix(0.707 -0.7072 0.7072 0.707 -11.0558 9.4855)" width="1.5" height="3.999"/>
			<path d="M6.097,20.736l-2.828-2.828l-1.137,1.137c-0.555-0.25-1.25-0.165-1.693,0.277C0.156,19.606,0,19.982,0,20.384
				s0.156,0.778,0.439,1.06l2.122,2.122c0.283,0.283,0.66,0.439,1.062,0.439c0.4,0,0.776-0.155,1.06-0.438
				c0.282-0.283,0.438-0.659,0.439-1.062c0-0.228-0.055-0.444-0.15-0.644L6.097,20.736z"/>
		</g>
	</g>
</g>
<g id="invisible_shape">
	<rect fill="none" width="24" height="24"/>
</g>
</svg>
