<?xml version="1.0" encoding="utf-8"?>
<!-- Generator: Adobe Illustrator 19.2.0, SVG Export Plug-In . SVG Version: 6.00 Build 0)  -->
<svg version="1.1" xmlns="http://www.w3.org/2000/svg" xmlns:xlink="http://www.w3.org/1999/xlink" x="0px" y="0px" width="24px"
	 height="24px" viewBox="0 0 24 24" enable-background="new 0 0 24 24" xml:space="preserve">
<g id="Filled_Icons">
	<g>
		<path d="M23.766,5.077l-6.375-4C17.31,1.026,17.219,1,17.125,1H7C6.907,1,6.816,1.026,6.737,1.074l-6.5,4
			C0.09,5.166,0,5.326,0,5.5v9c0,0.198,0.116,0.377,0.297,0.457l4.5,2C4.86,16.986,4.93,17,5,17V8.5C5,8.224,5.224,8,5.5,8h13
			C18.776,8,19,8.224,19,8.5V17h0.109c0.071,0,0.142-0.015,0.207-0.045l4.391-2C23.886,14.874,24,14.696,24,14.5v-9
			C24,5.328,23.911,5.168,23.766,5.077z"/>
		<g>
			<rect x="11" y="17" width="2" height="2"/>
			<rect x="11" y="20" width="2" height="3"/>
			<path d="M14,16h2.726l0.272-2.444c0.016-0.142-0.03-0.283-0.125-0.389C16.777,13.061,16.642,13,16.5,13H14V16z"/>
			<polygon points="10,17 7.386,17 7.607,19 10,19 			"/>
			<path d="M10,20H7.719l0.284,2.556C8.031,22.809,8.245,23,8.5,23H10V20z"/>
			<path d="M14,20v3h1.5c0.255,0,0.469-0.191,0.497-0.444L16.281,20H14z"/>
			<path d="M10,16v-3H7.5c-0.143,0-0.278,0.061-0.373,0.167c-0.095,0.106-0.14,0.247-0.124,0.389L7.274,16H10z"/>
			<rect x="11" y="13" width="2" height="3"/>
			<polygon points="16.614,17 14,17 14,19 16.392,19 			"/>
		</g>
	</g>
</g>
<g id="invisible_shape">
	<rect fill="none" width="24" height="24"/>
</g>
</svg>
