<?xml version="1.0" encoding="utf-8"?>
<!-- Generator: Adobe Illustrator 19.2.0, SVG Export Plug-In . SVG Version: 6.00 Build 0)  -->
<svg version="1.1" xmlns="http://www.w3.org/2000/svg" xmlns:xlink="http://www.w3.org/1999/xlink" x="0px" y="0px" width="24px"
	 height="24px" viewBox="0 0 24 24" enable-background="new 0 0 24 24" xml:space="preserve">
<g id="Filled_Icons">
	<g>
		<path d="M13.777,9c-0.183-0.661-0.271-1.334-0.271-2h-3.011c-0.001,0.666-0.089,1.339-0.271,2H13.777z"/>
		<path d="M10.43,6h3.14C13.614,5.677,14,3.78,14,3.5c0-1.105-0.895-2-2-2c-1.104,0-2,0.895-2,2C10,3.78,10.387,5.677,10.43,6z"/>
		<path d="M14.13,10H9.871C9.186,11.568,8,12.785,8,14.5c0,0.582-0.07,0.07,2,9h4c2.07-8.93,2-8.418,2-9
			C16,12.785,14.814,11.568,14.13,10z"/>
	</g>
	<g>
		<path d="M1.85,6h3.31C5.16,5.996,5.16,5.992,5.161,5.988c0,0,0.348-1.684,0.348-1.988c0-1.105-0.896-2-2-2H3.5
			c-1.105,0-2,0.895-2,2c0,0.305,0.348,1.988,0.348,1.988C1.849,5.992,1.849,5.996,1.85,6z"/>
		<path d="M1.977,7c0.044,0.67-0.006,1.342-0.139,2h3.334C5.038,8.342,4.988,7.67,5.032,7H1.977z"/>
		<path d="M5.469,10H1.54l-0.954,2.502c-0.12,0.519-0.11,1.045,0.006,1.519L2,21.5h3.004l1.413-7.479
			c0.116-0.474,0.126-0.999,0.006-1.519L5.469,10z"/>
	</g>
	<g>
		<path d="M18.849,6h3.31c0.001-0.004,0.001-0.008,0.002-0.012c0,0,0.348-1.684,0.348-1.988c0-1.105-0.896-2-2-2H20.5
			c-1.104,0-2,0.895-2,2c0,0.305,0.348,1.988,0.348,1.988C18.849,5.992,18.849,5.996,18.849,6z"/>
		<path d="M18.977,7c0.044,0.67-0.006,1.342-0.139,2h3.334c-0.133-0.658-0.184-1.33-0.139-2H18.977z"/>
		<path d="M22.469,10H18.54l-0.954,2.502c-0.121,0.519-0.11,1.045,0.006,1.519L19,21.5h3.004l1.413-7.479
			c0.116-0.474,0.126-0.999,0.006-1.519L22.469,10z"/>
	</g>
</g>
<g id="invisible_shape">
	<rect fill="none" width="24" height="24"/>
</g>
</svg>
