<?xml version="1.0" encoding="utf-8"?>
<!-- Generator: Adobe Illustrator 19.2.0, SVG Export Plug-In . SVG Version: 6.00 Build 0)  -->
<svg version="1.1" xmlns="http://www.w3.org/2000/svg" xmlns:xlink="http://www.w3.org/1999/xlink" x="0px" y="0px" width="24px"
	 height="24px" viewBox="0 0 24 24" enable-background="new 0 0 24 24" xml:space="preserve">
<g id="Filled_Icons">
	<g>
		<g>
			<path d="M2.752,9H7.61C7.533,8.326,7.715,7.72,7.839,7H2.52C2.693,8.001,2.825,8.34,2.752,9z"/>
			<path d="M7.987,6c0.254-2.145,0.008-3.688-0.746-4.594c-0.497-0.598-1.19-0.9-2.061-0.9c-0.87,0-1.563,0.303-2.061,0.9
				C2.366,2.312,2.12,3.855,2.373,6H7.987z"/>
			<path d="M8.053,10.006H2.308C-0.645,15.232-1.242,19.309,3.375,24h3.611C11.62,19.291,10.985,15.195,8.053,10.006z"/>
		</g>
		<path d="M15.181,8.006c-2.253,0-4.287,0.939-5.743,2.443c1.51,2.845,3.12,7.025,0.428,11.519C11.28,23.231,13.14,24,15.181,24
			c4.411,0,8-3.583,8-7.994C23.181,11.595,19.592,8.006,15.181,8.006z M12.681,12.006c0-0.827,0.673-1.5,1.5-1.5
			c0.827,0,1.5,0.673,1.5,1.5c0,0.827-0.673,1.5-1.5,1.5C13.354,13.506,12.681,12.833,12.681,12.006z M15.181,17.506
			c-0.827,0-1.5-0.673-1.5-1.5c0-0.827,0.673-1.5,1.5-1.5c0.827,0,1.5,0.673,1.5,1.5C16.681,16.833,16.008,17.506,15.181,17.506z
			 M18.181,14.506c-0.827,0-1.5-0.673-1.5-1.5c0-0.827,0.673-1.5,1.5-1.5c0.827,0,1.5,0.673,1.5,1.5
			C19.681,13.833,19.008,14.506,18.181,14.506z"/>
	</g>
</g>
<g id="invisible_shape">
	<rect fill="none" width="24" height="24"/>
</g>
</svg>
