<?xml version="1.0" encoding="utf-8"?>
<!-- Generator: Adobe Illustrator 19.2.0, SVG Export Plug-In . SVG Version: 6.00 Build 0)  -->
<svg version="1.1" xmlns="http://www.w3.org/2000/svg" xmlns:xlink="http://www.w3.org/1999/xlink" x="0px" y="0px" width="24px"
	 height="24px" viewBox="0 0 24 24" enable-background="new 0 0 24 24" xml:space="preserve">
<g id="Filled_Icons">
	<g>
		<path d="M19.453,2.786C14.534,0.415,9.509,0.416,4.556,2.79C3.003,3.535,2,5.129,2,6.85V17.5C2,21.084,4.916,24,8.5,24h7
			c3.584,0,6.5-2.916,6.5-6.5V6.843C22,5.124,21,3.532,19.453,2.786z M7,4.5C7,4.224,7.224,4,7.5,4h9C16.776,4,17,4.224,17,4.5v3
			C17,7.776,16.776,8,16.5,8h-9C7.224,8,7,7.776,7,7.5V4.5z M19,11.182c0,1.301-0.565,2.535-1.551,3.385
			c-0.975,0.842-1.463,1.587-1.412,2.154c0.063,0.691,0.92,1.199,1.61,1.607c0.237,0.141,0.715,0.389,0.809,0.628
			c0.18,0.462,0.121,0.981-0.16,1.391C18.017,20.756,17.554,21,17.059,21H6.958C6.463,21,6,20.757,5.721,20.349
			c-0.28-0.406-0.34-0.926-0.163-1.388c0.093-0.24,0.573-0.492,0.812-0.635c0.687-0.408,1.541-0.918,1.599-1.604
			c0.048-0.565-0.441-1.304-1.414-2.138C5.566,13.737,5,12.505,5,11.204V9.5C5,9.224,5.224,9,5.5,9h13C18.776,9,19,9.224,19,9.5
			V11.182z"/>
		<path d="M10,11.507c0-0.276-0.224-0.5-0.5-0.5S9,11.231,9,11.507v2c0,0.276,0.224,0.5,0.5,0.5s0.5-0.224,0.5-0.5V11.507z"/>
		<path d="M14.5,11.007c-0.276,0-0.5,0.224-0.5,0.5v1.999c0,0.276,0.224,0.5,0.5,0.5s0.5-0.224,0.5-0.5v-1.999
			C15,11.231,14.776,11.007,14.5,11.007z"/>
		<path d="M13.5,17h-3c-0.276,0-0.5,0.224-0.5,0.5s0.224,0.5,0.5,0.5h3c0.276,0,0.5-0.224,0.5-0.5S13.776,17,13.5,17z"/>
	</g>
</g>
<g id="invisible_shape">
	<rect fill="none" width="24" height="24"/>
</g>
</svg>
