<?xml version="1.0" encoding="utf-8"?>
<!-- Generator: Adobe Illustrator 19.2.0, SVG Export Plug-In . SVG Version: 6.00 Build 0)  -->
<svg version="1.1" xmlns="http://www.w3.org/2000/svg" xmlns:xlink="http://www.w3.org/1999/xlink" x="0px" y="0px" width="24px"
	 height="24px" viewBox="0 0 24 24" enable-background="new 0 0 24 24" xml:space="preserve">
<g id="Filled_Icons">
	<g>
		<g>
			<path d="M14.027,12.29C14.607,12.943,15,13.927,15,14.998c0,1.864-1.169,3.5-2.5,3.5c-1.044,0-1.979-1.011-2.338-2.344
				l-1.547,1.547c0.992,3.773,2.936,6.297,3.885,6.297c1.305,0,4.5-4.761,4.5-11c0-1.114-0.104-2.265-0.282-3.398L14.027,12.29z"/>
			<path d="M15.94,6.133c-1.005-3.456-2.499-6.135-3.44-6.135c-1.525,0-4.5,7.018-4.5,13c0,0.354,0.013,0.701,0.032,1.043
				L15.94,6.133z"/>
		</g>
		<path d="M23.865,3.159l-2.829-2.827c-0.195-0.196-0.512-0.196-0.707,0l-2.828,2.827c-0.854,0.854-0.959,2.176-0.317,3.145
			L6.502,16.986c-0.961-0.613-2.318-0.51-3.144,0.315l-2.828,2.83c-0.196,0.194-0.196,0.511,0,0.706l2.828,2.829
			c0.197,0.195,0.514,0.193,0.707,0l2.829-2.829c0.854-0.854,0.96-2.176,0.317-3.147L17.89,7.013
			c0.959,0.634,2.281,0.549,3.146-0.318l2.829-2.827C24.06,3.67,24.06,3.355,23.865,3.159z"/>
	</g>
</g>
<g id="invisible_shape">
	<rect fill="none" width="24" height="24"/>
</g>
</svg>
