<?xml version="1.0" encoding="utf-8"?>
<!-- Generator: Adobe Illustrator 19.2.0, SVG Export Plug-In . SVG Version: 6.00 Build 0)  -->
<svg version="1.1" xmlns="http://www.w3.org/2000/svg" xmlns:xlink="http://www.w3.org/1999/xlink" x="0px" y="0px" width="24px"
	 height="24px" viewBox="0 0 24 24" enable-background="new 0 0 24 24" xml:space="preserve">
<g id="Filled_Icons">
	<g>
		<path d="M3.5,13h-1C1.673,13,1,13.673,1,14.5v2H0.5C0.224,16.5,0,16.725,0,17c0,0.276,0.224,0.5,0.5,0.5H1v2
			C1,20.327,1.673,21,2.5,21h1C3.775,21,4,20.776,4,20.5v-7C4,13.225,3.775,13,3.5,13z"/>
		<path d="M17.5,10h-2c-0.827,0-1.5,0.673-1.5,1.5V17h-4v-5.5c0-0.827-0.674-1.5-1.5-1.5h-2C5.673,10,5,10.673,5,11.5v11
			C5,23.327,5.673,24,6.5,24h2c0.826,0,1.5-0.673,1.5-1.5V18h4v4.5c0,0.827,0.673,1.5,1.5,1.5h2c0.826,0,1.5-0.673,1.5-1.5v-11
			C19,10.673,18.326,10,17.5,10z"/>
		<path d="M23.5,16.5H23v-2c0-0.827-0.674-1.5-1.5-1.5h-1c-0.276,0-0.5,0.225-0.5,0.5v7c0,0.276,0.224,0.5,0.5,0.5h1
			c0.826,0,1.5-0.673,1.5-1.5v-2h0.5c0.275,0,0.5-0.224,0.5-0.5C24,16.725,23.775,16.5,23.5,16.5z"/>
	</g>
</g>
<g id="invisible_shape">
	<rect fill="none" width="24" height="24"/>
</g>
</svg>
