<?xml version="1.0" encoding="utf-8"?>
<!-- Generator: Adobe Illustrator 19.2.0, SVG Export Plug-In . SVG Version: 6.00 Build 0)  -->
<svg version="1.1" xmlns="http://www.w3.org/2000/svg" xmlns:xlink="http://www.w3.org/1999/xlink" x="0px" y="0px" width="24px"
	 height="24px" viewBox="0 0 24 24" enable-background="new 0 0 24 24" xml:space="preserve">
<g id="Filled_Icons">
	<g>
		<path d="M20.591,16.129c-0.255-0.106-0.548,0.012-0.655,0.267c-0.136,0.323-0.5,0.199-0.606,0.153
			c-0.224-0.094-0.336-0.49-0.258-0.695c2.531-3.975,2.042-6.285,0.854-7.058c-1.064-0.69-2.899-0.251-4.342,1.929
			c-1.831,2.764-3.923,3.594-4.966,2.972c-1.086-0.65-1.324-3.078,0.719-6.875c1.389-2.583,1.574-4.755,0.509-5.958
			c-0.78-0.881-2.108-1.068-3.552-0.505C4.574,1.81,0.913,7.516,1.002,17H0.5C0.224,17,0,17.224,0,17.5v6C0,23.776,0.224,24,0.5,24
			h2C2.776,24,3,23.776,3,23.5v-2.706C2.384,20.023,2,19.06,2,18c0-0.249,0-0.402,0-0.656C1.82,8.169,5.324,2.59,8.656,1.29
			c1.038-0.405,1.95-0.317,2.44,0.236c0.761,0.859,0.521,2.661-0.641,4.821c-2.528,4.699-1.77,7.357-0.352,8.206
			c1.43,0.856,4.015,0.195,6.313-3.277c1.033-1.562,2.318-2.063,2.963-1.642c0.701,0.455,0.973,2.344-1.192,5.757
			c-0.336,0.798,0.016,1.77,0.753,2.079c0.801,0.338,1.606,0.048,1.916-0.685C20.964,16.53,20.845,16.236,20.591,16.129z"/>
		<path d="M6.5,14.5C4.57,14.5,3,16.07,3,18s1.57,3.5,3.5,3.5S10,19.93,10,18S8.43,14.5,6.5,14.5z M6.5,19.5
			C5.673,19.5,5,18.827,5,18s0.673-1.5,1.5-1.5S8,17.173,8,18S7.327,19.5,6.5,19.5z"/>
	</g>
</g>
<g id="invisible_shape">
	<rect fill="none" width="24" height="24"/>
</g>
</svg>
