<?xml version="1.0" encoding="utf-8"?>
<!-- Generator: Adobe Illustrator 19.2.0, SVG Export Plug-In . SVG Version: 6.00 Build 0)  -->
<svg version="1.1" xmlns="http://www.w3.org/2000/svg" xmlns:xlink="http://www.w3.org/1999/xlink" x="0px" y="0px" width="24px"
	 height="24px" viewBox="0 0 24 24" enable-background="new 0 0 24 24" xml:space="preserve">
<g id="Filled_Icons">
	<path d="M17,11c0-2.489-2.888-6.051-4.783-7.424C12.689,3.21,13,2.643,13,2c0-1.102-0.897-2-2-2S9,0.897,9,2
		c0,0.643,0.311,1.21,0.783,1.576C7.888,4.949,5,8.511,5,11H3v9.5C3,21.881,4.119,23,5.5,23S8,21.881,8,20.5V11H6
		c0-2.75,4.147-6.88,4.987-7.001C11.853,4.12,16,8.25,16,11h-2v9.5c0,1.381,1.119,2.5,2.5,2.5s2.5-1.119,2.5-2.5V11H17z M6,16
		c0,0.276-0.224,0.5-0.5,0.5S5,16.276,5,16v-2.5C5,13.224,5.224,13,5.5,13S6,13.224,6,13.5V16z M10,2c0-0.552,0.449-1,1-1
		s1,0.448,1,1s-0.449,1-1,1S10,2.552,10,2z M17,16c0,0.276-0.224,0.5-0.5,0.5S16,16.276,16,16v-2.5c0-0.276,0.224-0.5,0.5-0.5
		s0.5,0.224,0.5,0.5V16z"/>
</g>
<g id="invisible_shape">
	<rect fill="none" width="24" height="24"/>
</g>
</svg>
