<?xml version="1.0" encoding="utf-8"?>
<!-- Generator: Adobe Illustrator 19.2.0, SVG Export Plug-In . SVG Version: 6.00 Build 0)  -->
<svg version="1.1" xmlns="http://www.w3.org/2000/svg" xmlns:xlink="http://www.w3.org/1999/xlink" x="0px" y="0px" width="24px"
	 height="24px" viewBox="0 0 24 24" enable-background="new 0 0 24 24" xml:space="preserve">
<g id="Filled_Icons">
	<g>
		<path d="M8.591,12.085c-0.146-0.284-0.397-0.495-0.704-0.593l-3.272-1.051C4,10.243,3.32,10.584,3.131,11.176l-2.991,9.32
			c-0.305,0.946,0.249,1.975,1.233,2.292c0.492,0.157,2.065,0.724,2.558,0.724c0.805,0,1.505-0.498,1.743-1.239l2.991-9.32
			C8.758,12.665,8.731,12.357,8.591,12.085z"/>
		<path d="M14.861,10.523l3.035-0.975l-1.397-4.617c-0.041-2.723-2.268-4.925-4.999-4.925s-4.959,2.202-5,4.925L5.103,9.548
			l3.034,0.975l0.494-1.419c1.67,1.173,4.064,1.172,5.735-0.001L14.861,10.523z M11.5,7.506c-1.378,0-2.5-1.121-2.5-2.5
			c0-1.378,1.122-2.5,2.5-2.5c1.378,0,2.5,1.122,2.5,2.5C14,6.385,12.878,7.506,11.5,7.506z"/>
		<path d="M22.86,20.496l-2.991-9.319c-0.189-0.593-0.87-0.933-1.483-0.735l-3.272,1.051c-0.309,0.098-0.559,0.309-0.706,0.593
			c-0.14,0.272-0.166,0.58-0.074,0.867l2.991,9.321c0.239,0.74,0.939,1.237,1.743,1.238c0.493,0,2.068-0.566,2.559-0.724
			C22.611,22.471,23.165,21.442,22.86,20.496z"/>
	</g>
</g>
<g id="invisible_shape">
	<rect fill="none" width="24" height="24"/>
</g>
</svg>
