<?xml version="1.0" encoding="utf-8"?>
<!-- Generator: Adobe Illustrator 19.2.0, SVG Export Plug-In . SVG Version: 6.00 Build 0)  -->
<svg version="1.1" xmlns="http://www.w3.org/2000/svg" xmlns:xlink="http://www.w3.org/1999/xlink" x="0px" y="0px" width="24px"
	 height="24px" viewBox="0 0 24 24" enable-background="new 0 0 24 24" xml:space="preserve">
<g id="Filled_Icons">
	<path d="M22.02,5.164l-0.001-0.001c-2.471-1.946-5.598-2.976-9.044-2.976c-2.257,0-4.398,0.647-6.194,1.871
		C6.555,4.214,6.242,4.156,6.087,3.928C5.931,3.699,5.99,3.389,6.218,3.232c1.962-1.338,4.298-2.045,6.757-2.045
		c2.047,0,3.983,0.355,5.762,1.02c-1.932-1.273-4.36-2.201-7.236-2.201c-2.459,0-6.048,0.542-8.745,2.063
		C2.252,2.352,1.949,2.946,2,3.517l0.019,0.816C0.827,4.892,0,6.103,0,7.504c0,1.592,1.068,2.936,2.523,3.36
		C2.601,11.854,2.899,14.639,3.798,15c0.051,0.023,6.702,0,6.702,0c0.182,0.699,0.729,1.245,1.5,1.427V20h-0.5
		c-0.276-0.002-0.5,0.223-0.5,0.498v3c0,0.277,0.224,0.5,0.5,0.5h1.929c0.276,0,0.5-0.223,0.5-0.5v-3c0-0.275-0.224-0.5-0.5-0.498
		H13v-3.573c0.789-0.224,1.429-0.999,1.429-1.929c0-0.93-0.64-1.705-1.429-1.929v-1.571L22,11c1.103,0,2-0.893,2-1.996
		C24,8.259,23.315,6.742,22.02,5.164z M3.526,11h3.267l-2.737,2.742C3.839,13.118,3.603,11.866,3.526,11z M12,12.5
		c-0.699,0.182-1.318,0.801-1.5,1.5H5l3-3h4V12.5z"/>
</g>
<g id="invisible_shape">
	<rect fill="none" width="24" height="24"/>
</g>
</svg>
