<?xml version="1.0" encoding="utf-8"?>
<!-- Generator: Adobe Illustrator 19.2.0, SVG Export Plug-In . SVG Version: 6.00 Build 0)  -->
<svg version="1.1" xmlns="http://www.w3.org/2000/svg" xmlns:xlink="http://www.w3.org/1999/xlink" x="0px" y="0px" width="24px"
	 height="24px" viewBox="0 0 24 24" enable-background="new 0 0 24 24" xml:space="preserve">
<g id="Filled_Icons">
	<g>
		<path d="M9.809,16H12v-0.5c0-1.93,1.57-3.5,3.5-3.5h7c0.004,0,0.007,0.001,0.01,0c0.276,0,0.5-0.224,0.5-0.5
			c0-0.719-0.102-1.67-0.286-2.5H14.5C11.467,9,9,11.468,9,14.5v1.071c-0.363-0.095-0.636-0.096-1,0V14.5C8,10.916,10.916,8,14.5,8
			h7.955C20.971,3.365,16.621,0,11.5,0C5.158,0,0,5.159,0,11.5c0,5.408,3.789,10.032,9.055,11.228H11.5l-3.135-3.241
			c0.39,0.025,0.741-0.03,1.144-0.269L10.327,20L16,19.965V17h-5.571C10.326,16.605,10.107,16.261,9.809,16z M8.5,18.5
			c-0.552,0-1-0.448-1-1s0.448-1,1-1c0.551,0,1,0.448,1,1S9.051,18.5,8.5,18.5z"/>
		<rect x="17" y="17" width="3" height="3"/>
		<path d="M12.388,22.095c0.813,0.813,1.806,1.379,2.886,1.672C15.752,23.49,16,22.066,16,21.5V21h-4.707
			C11.703,21.41,11.978,21.685,12.388,22.095z"/>
		<path d="M17,21.5c0,0.393-0.117,1.669-0.6,2.5h2.1c0.695,0,1.5-1.513,1.5-2.5V21h-3V21.5z"/>
		<path d="M23.5,17H21v3h3v-2.5C24,17.224,23.775,17,23.5,17z"/>
		<path d="M21,21.5c0,0.687-0.319,1.73-0.877,2.5H21.5c1.378,0,2.5-1.121,2.5-2.5V21h-3V21.5z"/>
	</g>
</g>
<g id="invisible_shape">
	<rect fill="none" width="24" height="24"/>
</g>
</svg>
