<?xml version="1.0" encoding="utf-8"?>
<!-- Generator: Adobe Illustrator 19.2.0, SVG Export Plug-In . SVG Version: 6.00 Build 0)  -->
<svg version="1.1" xmlns="http://www.w3.org/2000/svg" xmlns:xlink="http://www.w3.org/1999/xlink" x="0px" y="0px" width="24px"
	 height="24px" viewBox="0 0 24 24" enable-background="new 0 0 24 24" xml:space="preserve">
<g id="Filled_Icons">
	<g>
		<path d="M9.051,12.006c0.245,1.691,1.69,3,3.449,2.994h8.224c-0.621-1.736-2.271-2.994-4.224-2.994h-1H9.051z"/>
		<rect x="9" y="6" width="3" height="2"/>
		<path d="M21,20.006h-3v-1h0.5c1.378,0,2.5-1.121,2.5-2.5c0-0.171-0.032-0.334-0.051-0.5H12.5c-2.481,0-4.5-2.019-4.5-4.5v-6
			C8,5.229,8.224,5,8.5,5H12V1.006c0-0.164-0.081-0.316-0.215-0.411c-0.134-0.093-0.306-0.114-0.461-0.057l-8,3
			C3.129,3.611,3,3.798,3,4.006v12.5c0,1.379,1.122,2.5,2.5,2.5H6v1H3c-1.103,0-2,0.897-2,2c0,1.103,0.897,2,2,1.994h18
			c1.103,0.006,2-0.892,2-1.994C23,20.903,22.103,20.006,21,20.006z M15,20.006H9v-1h6V20.006z"/>
		<path d="M12.051,9.006H9V11h4.059C12.521,10.476,12.163,9.784,12.051,9.006z"/>
	</g>
</g>
<g id="invisible_shape">
	<rect fill="none" width="24" height="24"/>
</g>
</svg>
