<?xml version="1.0" encoding="utf-8"?>
<!-- Generator: Adobe Illustrator 19.2.0, SVG Export Plug-In . SVG Version: 6.00 Build 0)  -->
<svg version="1.1" xmlns="http://www.w3.org/2000/svg" xmlns:xlink="http://www.w3.org/1999/xlink" x="0px" y="0px" width="24px"
	 height="24px" viewBox="0 0 24 24" enable-background="new 0 0 24 24" xml:space="preserve">
<g id="Filled_Icons">
	<path d="M23.5,16.5c-2.481,0-4.5-2.019-4.5-4.5V7c0-3.859-3.14-7-7-7S5,3.141,5,7v5c0,2.481-2.019,4.5-4.5,4.5
		C0.224,16.5,0,16.724,0,17c0,2.757,2.243,5,5,5c2.372,0,3.619-1.295,3.925-2.764C8.973,19.313,9,19.403,9,19.5V21
		c0,1.654,1.346,3,3,3s3-1.346,3-3v-1.5c0-0.097,0.027-0.188,0.075-0.264C15.381,20.705,16.628,22,19,22c2.757,0,5-2.243,5-5
		C24,16.724,23.776,16.5,23.5,16.5z M12,2c1.761,0,3.046,0.684,3.879,2H8.121C8.954,2.684,10.239,2,12,2z M7.624,5h8.752
		C16.6,5.582,16.76,6.25,16.86,7H7.14C7.24,6.25,7.4,5.582,7.624,5z M12,16c-1.358,0-2.59-0.765-3.492-2h6.984
		C14.59,15.235,13.358,16,12,16z M16.097,13H7.903c-0.302-0.604-0.538-1.277-0.692-2h9.579C16.635,11.723,16.399,12.396,16.097,13z
		 M16.943,10H7.057C7.023,9.673,7,9.341,7,9c0-0.356,0.028-0.672,0.048-1h9.904C16.972,8.328,17,8.644,17,9
		C17,9.341,16.977,9.673,16.943,10z"/>
</g>
<g id="invisible_shape">
	<rect fill="none" width="24" height="24"/>
</g>
</svg>
