<?xml version="1.0" encoding="utf-8"?>
<!-- Generator: Adobe Illustrator 19.2.0, SVG Export Plug-In . SVG Version: 6.00 Build 0)  -->
<svg version="1.1" xmlns="http://www.w3.org/2000/svg" xmlns:xlink="http://www.w3.org/1999/xlink" x="0px" y="0px" width="24px"
	 height="24px" viewBox="0 0 24 24" enable-background="new 0 0 24 24" xml:space="preserve">
<g id="Filled_Icons">
	<g>
		<path d="M6.916,14h2.525l2.037-5.464L8.373,0.254L5.777,1.553c-0.049,0.024-0.092,0.056-0.13,0.094l-5.5,5.5
			c-0.195,0.195-0.195,0.512,0,0.707l2.999,3c0.183,0.184,0.476,0.196,0.674,0.031L6.14,8.951L6.916,14z"/>
		<polygon points="9.346,0 12.011,7.108 14.661,0 		"/>
		<polygon points="6.903,15 5.433,23.357 9.028,15 		"/>
		<path d="M23.854,7.147l-5.499-5.5c-0.038-0.038-0.082-0.069-0.13-0.094l-2.593-1.295L10.508,14h6.574l0.776-5.049l2.322,1.934
			c0.198,0.166,0.491,0.151,0.673-0.031l3-3C24.049,7.658,24.049,7.342,23.854,7.147z"/>
		<path d="M17.089,15h-4.396l1.28,3.843c0.088,0.262-0.054,0.545-0.316,0.632c-0.053,0.018-0.106,0.026-0.158,0.026
			c-0.209,0-0.404-0.132-0.475-0.342l-1.025-3.077l-1.026,3.077c-0.087,0.262-0.367,0.402-0.632,0.315
			c-0.262-0.087-0.403-0.37-0.316-0.632L11.306,15h-1.189l-3.871,9h11.754c0.006,0,0.013,0,0.02,0c0.276,0,0.5-0.224,0.5-0.5
			C18.519,23.423,17.089,15,17.089,15z"/>
	</g>
</g>
<g id="invisible_shape">
	<rect fill="none" width="24" height="24"/>
</g>
</svg>
