<?xml version="1.0" encoding="utf-8"?>
<!-- Generator: Adobe Illustrator 19.2.0, SVG Export Plug-In . SVG Version: 6.00 Build 0)  -->
<svg version="1.1" xmlns="http://www.w3.org/2000/svg" xmlns:xlink="http://www.w3.org/1999/xlink" x="0px" y="0px" width="24px"
	 height="24px" viewBox="0 0 24 24" enable-background="new 0 0 24 24" xml:space="preserve">
<g id="Filled_Icons">
	<path d="M18.154,11.012c-2.12-0.09-4.502,1.107-5.217,3.9c-0.548-0.438-1.292-0.737-2.168-0.858
		c-1.138-0.157-2.552-0.006-3.65,0.592l0.288-2.731v-0.909c0-0.103,0.031-0.202,0.09-0.286l1.816-2.603L8.088,7.197L6.391,9.318
		C6.218,9.533,5.904,9.57,5.688,9.396C5.472,9.225,5.437,8.909,5.609,8.693l2-2.5c0.168-0.21,0.474-0.25,0.69-0.087l2,1.5
		c0.216,0.161,0.265,0.464,0.11,0.686l-1.194,1.727l-0.545,0.744c-0.078,0.106-0.111,0.24-0.09,0.372
		c0.021,0.131,0.092,0.248,0.199,0.327l0.556,0.405c0.089,0.065,0.192,0.097,0.294,0.097c0.154,0,0.307-0.071,0.404-0.205
		l2.799-3.823c0.163-0.223,0.115-0.536-0.108-0.699L7.262,3.225C7.155,3.147,7.025,3.114,6.89,3.134
		c-0.13,0.02-0.248,0.092-0.326,0.199c0,0-3.742,4.577-3.704,5.26C1.827,12.385,0.739,16.732,1,18.019
		c0,1.561,1.372,3.001,3.864,4.054c2.215,0.935,5.086,1.473,7.875,1.473c5.021,0,10.386-1.844,10.386-7.019
		C23.125,12.883,20.549,11.113,18.154,11.012z M19.724,18.453l-2,1c-0.005,0.002-0.009,0.002-0.014,0.004
		c-0.064,0.029-0.135,0.049-0.21,0.049c-0.076,0-0.146-0.02-0.21-0.049c-0.005-0.002-0.009-0.002-0.014-0.004l-2-1
		c-0.247-0.123-0.348-0.424-0.224-0.671c0.124-0.246,0.424-0.346,0.671-0.224L17,18.197v-2.191h-0.5c-0.276,0-0.5-0.224-0.5-0.5
		c0-0.276,0.224-0.5,0.5-0.5H17v-1c0-0.276,0.224-0.5,0.5-0.5s0.5,0.224,0.5,0.5v1h0.5c0.276,0,0.5,0.224,0.5,0.5
		c0,0.276-0.224,0.5-0.5,0.5H18v2.191l1.276-0.639c0.247-0.122,0.547-0.022,0.671,0.224C20.07,18.029,19.971,18.33,19.724,18.453z"
		/>
</g>
<g id="invisible_shape">
	<rect fill="none" width="24" height="24"/>
</g>
</svg>
