<?xml version="1.0" encoding="utf-8"?>
<!-- Generator: Adobe Illustrator 19.2.0, SVG Export Plug-In . SVG Version: 6.00 Build 0)  -->
<svg version="1.1" xmlns="http://www.w3.org/2000/svg" xmlns:xlink="http://www.w3.org/1999/xlink" x="0px" y="0px" width="24px"
	 height="24px" viewBox="0 0 24 24" enable-background="new 0 0 24 24" xml:space="preserve">
<g id="Filled_Icons">
	<g>
		<path d="M4.5,7C2.019,7,0,9.019,0,11.5V13h9v-1.5C9,9.019,6.981,7,4.5,7z"/>
		<rect y="14" width="9" height="5"/>
		<path d="M0,22.5C0,23.327,0.673,24,1.5,24h6C8.327,24,9,23.327,9,22.5V20H0V22.5z"/>
		<path d="M10,22.5c0,0.827,0.673,1.5,1.5,1.5h6c0.827,0,1.5-0.673,1.5-1.5V20h-9V22.5z"/>
		<path d="M14.5,7C12.019,7,10,9.019,10,11.5V13h9v-1.5C19,9.019,16.981,7,14.5,7z"/>
		<rect x="10" y="14" width="9" height="5"/>
		<path d="M22,13.071V7.5C22,5.019,19.981,3,17.5,3h-4.55c-0.245-1.693-1.688-3-3.45-3C7.567,0,6,1.566,6,3.5S7.567,7,9.5,7
			c1.762,0,3.205-1.306,3.45-3h4.55C19.43,4,21,5.57,21,7.5v5.571c-0.86,0.224-1.5,0.999-1.5,1.929s0.64,1.706,1.5,1.929V20
			c0,0.276,0.224,0.5,0.5,0.5S22,20.276,22,20v-3.071c0.86-0.223,1.5-0.999,1.5-1.929S22.86,13.295,22,13.071z M10.354,2.853l-1,1
			c-0.195,0.195-0.512,0.195-0.707,0c-0.195-0.195-0.195-0.512,0-0.707l1-1c0.195-0.195,0.512-0.195,0.707,0
			C10.549,2.342,10.549,2.658,10.354,2.853z"/>
	</g>
</g>
<g id="invisible_shape">
	<rect fill="none" width="24" height="24"/>
</g>
</svg>
