<?xml version="1.0" encoding="utf-8"?>
<!-- Generator: Adobe Illustrator 19.2.0, SVG Export Plug-In . SVG Version: 6.00 Build 0)  -->
<svg version="1.1" xmlns="http://www.w3.org/2000/svg" xmlns:xlink="http://www.w3.org/1999/xlink" x="0px" y="0px" width="24px"
	 height="24px" viewBox="0 0 24 24" enable-background="new 0 0 24 24" xml:space="preserve">
<g id="Filled_Icons">
	<g>
		<circle cx="5.494" cy="3.506" r="3"/>
		<g>
			<path d="M5.049,9.164C5.017,9.482,5,9.807,5,10.133c0,1.526,0.37,2.965,1.013,4.244l-4.594,4.596
				c-0.472,0.472-0.733,1.1-0.733,1.767c0,0.668,0.261,1.295,0.733,1.768l0.707,0.706c0.473,0.473,1.101,0.732,1.768,0.732
				c0.667,0,1.296-0.26,1.767-0.732l4.596-4.594c1.279,0.643,2.718,1.013,4.244,1.013c0.334,0,0.663-0.018,0.988-0.052L5.049,9.164z
				"/>
			<path d="M14.5,0.633c-1.936,0-3.735,0.585-5.238,1.582c0.141,0.408,0.232,0.837,0.232,1.291c0,2.206-1.794,4-4,4
				c-0.039,0-0.075-0.011-0.113-0.012C5.336,7.648,5.297,7.805,5.26,7.962l11.43,11.406c4.184-0.993,7.31-4.752,7.31-9.235
				C24,4.894,19.738,0.633,14.5,0.633z"/>
		</g>
	</g>
</g>
<g id="invisible_shape">
	<rect fill="none" width="24" height="24"/>
</g>
</svg>
