<?xml version="1.0" encoding="utf-8"?>
<!-- Generator: Adobe Illustrator 19.2.0, SVG Export Plug-In . SVG Version: 6.00 Build 0)  -->
<svg version="1.1" xmlns="http://www.w3.org/2000/svg" xmlns:xlink="http://www.w3.org/1999/xlink" x="0px" y="0px" width="24px"
	 height="24px" viewBox="0 0 24 24" enable-background="new 0 0 24 24" xml:space="preserve">
<g id="Filled_Icons">
	<g>
		<path d="M22,18.066V0.5C22,0.224,21.776,0,21.5,0S21,0.224,21,0.5v17.566c-1.14,0.232-2,1.242-2,2.449V23.5
			c0,0.276,0.224,0.5,0.5,0.5h4c0.276,0,0.5-0.224,0.5-0.5v-2.984C24,19.309,23.14,18.299,22,18.066z"/>
		<path d="M5,0.5C5,0.224,4.776,0,4.5,0h-4C0.224,0,0,0.224,0,0.5v2.984c0,1.207,0.86,2.217,2,2.449V23.5C2,23.776,2.224,24,2.5,24
			S3,23.776,3,23.5V5.934c1.14-0.232,2-1.242,2-2.449V0.5z"/>
		<path d="M19,7.813c0-0.974-0.41-1.911-1.126-2.571l-3.5-3.231c-1.297-1.198-3.451-1.198-4.748,0l-3.5,3.23
			C5.41,5.902,5,6.839,5,7.813V17c0,3.86,3.14,7,7,7c3.86,0,7-3.14,7-7V7.813z M12,21c-2.209,0-4-1.791-4-4h8
			C16,19.209,14.209,21,12,21z M16,16H8v-3h8V16z M16,12H8V9h8V12z M8,8c0.084-0.427,0.296-0.821,0.621-1.121l1.969-2.244
			c0.799-0.736,2.027-0.736,2.825,0l1.965,2.244C15.705,7.179,15.917,7.573,16,8H8z"/>
	</g>
</g>
<g id="invisible_shape">
	<rect fill="none" width="24" height="24"/>
</g>
</svg>
