<?xml version="1.0" encoding="utf-8"?>
<!-- Generator: Adobe Illustrator 19.2.0, SVG Export Plug-In . SVG Version: 6.00 Build 0)  -->
<svg version="1.1" xmlns="http://www.w3.org/2000/svg" xmlns:xlink="http://www.w3.org/1999/xlink" x="0px" y="0px" width="24px"
	 height="24px" viewBox="0 0 24 24" enable-background="new 0 0 24 24" xml:space="preserve">
<g id="Filled_Icons">
	<path d="M22.339,9.431c1.039-1.038,1.61-2.419,1.61-3.888c0-1.469-0.571-2.852-1.61-3.891c-1.039-1.039-2.42-1.61-3.89-1.61
		c-1.468,0-2.85,0.571-3.889,1.61l-0.354-0.354c-0.391-0.391-1.023-0.391-1.414,0L9.965,4.127c-0.391,0.391-0.391,1.023,0,1.414
		l0.354,0.353l-4.243,4.244L5.722,9.784c-0.391-0.391-1.023-0.391-1.414,0L1.48,12.612c-0.391,0.391-0.391,1.023,0,1.414
		l0.353,0.354c-1.039,1.039-1.611,2.42-1.611,3.89c0,1.469,0.572,2.851,1.611,3.889c1.039,1.039,2.42,1.612,3.889,1.612
		c1.469,0,2.851-0.572,3.89-1.612l0.353,0.354c0.195,0.195,0.451,0.293,0.707,0.293c0.256,0,0.512-0.098,0.707-0.293l2.828-2.827
		c0.391-0.391,0.391-1.024,0-1.414l-0.353-0.354l4.243-4.242l0.353,0.353c0.195,0.196,0.451,0.293,0.707,0.293
		c0.256,0,0.512-0.097,0.707-0.293l2.828-2.828c0.391-0.39,0.391-1.023,0-1.414L22.339,9.431z M10.672,21.805L8.55,19.684
		l1.062-1.061H9.61L5.369,14.38l-1.061,1.061l-2.121-2.122l2.828-2.827l2.121,2.12l-1.061,1.062l4.243,4.242h0.001l1.06-1.061
		l2.121,2.122L10.672,21.805z M19.157,13.319l-2.122-2.12l1.059-1.059l-4.241-4.245V5.894l-1.061,1.062l-2.121-2.122L13.5,2.006
		l2.122,2.121l-1.061,1.061v0.001l4.241,4.244l1.063-1.063l2.121,2.122L19.157,13.319z"/>
</g>
<g id="invisible_shape">
	<rect fill="none" width="24" height="24"/>
</g>
</svg>
