<?xml version="1.0" encoding="utf-8"?>
<!-- Generator: Adobe Illustrator 19.2.0, SVG Export Plug-In . SVG Version: 6.00 Build 0)  -->
<svg version="1.1" xmlns="http://www.w3.org/2000/svg" xmlns:xlink="http://www.w3.org/1999/xlink" x="0px" y="0px" width="24px"
	 height="24px" viewBox="0 0 24 24" enable-background="new 0 0 24 24" xml:space="preserve">
<g id="Filled_Icons">
	<g>
		<g>
			<path d="M23,20h-1V6h0.5C22.776,6,23,5.776,23,5.5v-5C23,0.224,22.776,0,22.5,0h-2C20.224,0,20,0.224,20,0.5v5
				C20,5.776,20.224,6,20.5,6H21v14h-1c-0.276,0-0.5,0.224-0.5,0.5S19.724,21,20,21h1v2.5c0,0.276,0.224,0.5,0.5,0.5
				s0.5-0.224,0.5-0.5V21h1c0.276,0,0.5-0.224,0.5-0.5S23.276,20,23,20z"/>
			<path d="M4,20H3V6h0.5C3.776,6,4,5.776,4,5.5v-5C4,0.224,3.776,0,3.5,0h-2C1.224,0,1,0.224,1,0.5v5C1,5.776,1.224,6,1.5,6H2v14H1
				c-0.276,0-0.5,0.224-0.5,0.5S0.724,21,1,21h1v2.504c0,0.276,0.224,0.5,0.5,0.5S3,23.78,3,23.504V21h1c0.276,0,0.5-0.224,0.5-0.5
				S4.276,20,4,20z"/>
		</g>
		<g>
			<path d="M11.5,11h-7C4.224,11,4,10.776,4,10.5S4.224,10,4.5,10h7c0.276,0,0.5,0.224,0.5,0.5S11.776,11,11.5,11z"/>
		</g>
		<g>
			<path d="M11.5,17h-7C4.224,17,4,16.776,4,16.5S4.224,16,4.5,16h7c0.276,0,0.5,0.224,0.5,0.5S11.776,17,11.5,17z"/>
		</g>
		<g>
			<path d="M19,11h-6c-0.276,0-0.5-0.224-0.5-0.5S12.724,10,13,10h6c0.276,0,0.5,0.224,0.5,0.5S19.276,11,19,11z"/>
		</g>
		<g>
			<path d="M19,17h-6c-0.276,0-0.5-0.224-0.5-0.5S12.724,16,13,16h6c0.276,0,0.5,0.224,0.5,0.5S19.276,17,19,17z"/>
		</g>
		<g>
			<path d="M5.34,18l-0.834,5.424C4.459,23.725,4.693,24,5,24h6c0.309,0,0.541-0.277,0.494-0.577L10.649,18H5.34z"/>
			<path d="M11,9l0.338-5.477C11.441,1.602,9.906,0,8.001,0C6.096,0,4.559,1.6,4.663,3.527L5.003,9H11z"/>
			<polygon points="5.188,12 5.375,15 10.63,15 10.815,12 			"/>
		</g>
		<g>
			<polygon points="13.189,12 13.375,15 18.63,15 18.815,12 			"/>
			<path d="M19,9l0.338-5.477C19.441,1.602,17.906,0,16.001,0c-1.905,0-3.442,1.6-3.338,3.527L13.003,9H19z"/>
			<path d="M13.34,18l-0.834,5.424C12.459,23.725,12.693,24,13,24h6c0.309,0,0.541-0.277,0.494-0.577L18.649,18H13.34z"/>
		</g>
	</g>
</g>
<g id="invisible_shape">
	<rect fill="none" width="24" height="24"/>
</g>
</svg>
