<?xml version="1.0" encoding="utf-8"?>
<!-- Generator: Adobe Illustrator 19.2.0, SVG Export Plug-In . SVG Version: 6.00 Build 0)  -->
<svg version="1.1" xmlns="http://www.w3.org/2000/svg" xmlns:xlink="http://www.w3.org/1999/xlink" x="0px" y="0px" width="24px"
	 height="24px" viewBox="0 0 24 24" enable-background="new 0 0 24 24" xml:space="preserve">
<g id="Filled_Icons">
	<g>
		<rect x="11" y="12" width="2" height="2"/>
		<rect x="17" y="15" width="2" height="2"/>
		<rect x="8" y="12" width="2" height="2"/>
		<rect x="17" y="12" width="2" height="2"/>
		<rect x="14" y="12" width="2" height="2"/>
		<rect x="8" y="15" width="2" height="2"/>
		<rect x="11" y="15" width="2" height="2"/>
		<rect x="14" y="15" width="2" height="2"/>
		<rect x="17" y="9" width="2" height="2"/>
		<rect x="8" y="9" width="2" height="2"/>
		<polygon points="0.707,4 4.707,8 7,8 8,8 10,8 11,8 13,8 14,8 16,8 17,8 19.293,8 23.293,4 		"/>
		<rect x="5" y="12" width="2" height="2"/>
		<rect x="5" y="15" width="2" height="2"/>
		<path d="M4,15.5v-1v-2v-1V8.707l-4-4V19.5c0,0.174,0.09,0.335,0.237,0.426C0.317,19.976,0.408,20,0.5,20
			c0.077,0,0.153-0.018,0.224-0.053L4,17.5V15.5z"/>
		<rect x="5" y="9" width="2" height="2"/>
		<rect x="11" y="9" width="2" height="2"/>
		<path d="M20,8.707v8.795l3.276,2.445c0.155,0.077,0.339,0.07,0.486-0.021C23.91,19.834,24,19.674,24,19.5V4.707L20,8.707z"/>
		<rect x="14" y="9" width="2" height="2"/>
	</g>
</g>
<g id="invisible_shape">
	<rect fill="none" width="24" height="24"/>
</g>
</svg>
