<?xml version="1.0" encoding="utf-8"?>
<!-- Generator: Adobe Illustrator 19.2.0, SVG Export Plug-In . SVG Version: 6.00 Build 0)  -->
<svg version="1.1" xmlns="http://www.w3.org/2000/svg" xmlns:xlink="http://www.w3.org/1999/xlink" x="0px" y="0px" width="24px"
	 height="24px" viewBox="0 0 24 24" enable-background="new 0 0 24 24" xml:space="preserve">
<g id="Filled_Icons">
	<path d="M19.17,7.996L20,8c1.93,0,3.5-1.57,3.5-3.5S21.93,1,20,1h-4.5C15.224,1,15,1.224,15,1.5S15.224,2,15.5,2H20
		c1.378,0,2.5,1.121,2.5,2.5S21.378,7,20,7l-0.813-0.004c-0.721-0.006-1.539-0.027-2.129,0.771l-4.363,8.25
		C12.267,15.646,12,15.101,12,14.5v-2c0-0.276-0.224-0.5-0.5-0.5H8.723l-3.6-4H7.25C7.939,8,8.5,7.439,8.5,6.75
		c0-0.548-0.367-1.04-0.896-1.199L2.63,4.102C1.322,3.672,0,4.65,0,6c0,1.102,0.897,2,2,2h1.777l3.6,4H6c-2.757,0-5,2.243-5,5
		c0,2.244,1.497,4.126,3.537,4.756l-0.891,0.891c-0.195,0.195-0.195,0.512,0,0.707c0.195,0.195,0.512,0.195,0.707,0l1.38-1.38
		C5.824,21.979,5.909,22,6,22h10.75c0.44,0,0.846-0.132,1.193-0.35l1.704,1.703c0.195,0.195,0.512,0.195,0.707,0
		c0.195-0.195,0.195-0.512,0-0.707l-1.704-1.703C18.869,20.596,19,20.19,19,19.75c0-1.115-0.831-2.073-1.856-2.21l-3.504-1.072
		c-0.016-0.003-0.03-0.009-0.045-0.013L17.9,8.3C18.131,7.993,18.493,7.981,19.17,7.996z M11.5,20.5H9c-0.276,0-0.5-0.224-0.5-0.5
		s0.224-0.5,0.5-0.5h0.334l-1.183-1.154C7.953,18.441,7.734,18.5,7.5,18.5C6.672,18.5,6,17.828,6,17s0.672-1.5,1.5-1.5
		S9,16.172,9,17c0,0.228-0.055,0.441-0.146,0.635l1.911,1.865H11.5c0.276,0,0.5,0.224,0.5,0.5S11.776,20.5,11.5,20.5z"/>
</g>
<g id="invisible_shape">
	<rect fill="none" width="24" height="24"/>
</g>
</svg>
