<?xml version="1.0" encoding="utf-8"?>
<!-- Generator: Adobe Illustrator 19.2.0, SVG Export Plug-In . SVG Version: 6.00 Build 0)  -->
<svg version="1.1" xmlns="http://www.w3.org/2000/svg" xmlns:xlink="http://www.w3.org/1999/xlink" x="0px" y="0px" width="24px"
	 height="24px" viewBox="0 0 24 24" enable-background="new 0 0 24 24" xml:space="preserve">
<g id="Filled_Icons">
	<g>
		<path d="M23.504,7h-23H0.5C0.224,7,0,7.224,0,7.5V12c0,0.276,0.224,0.5,0.5,0.5S1,12.276,1,12v-1h22.004v1
			c0,0.276,0.224,0.5,0.5,0.5s0.5-0.224,0.5-0.5V7.5C24.004,7.224,23.78,7,23.504,7z"/>
		<polygon points="11.004,0 9.631,0 9.041,3 11.004,3 		"/>
		<polygon points="4.913,24 11.004,24 11.004,17 6.289,17 		"/>
		<polygon points="12.004,17 12.004,24 18.087,24 16.718,17 		"/>
		<polygon points="15.741,12 7.272,12 6.486,16 16.523,16 		"/>
		<polygon points="13.394,0 12.004,0 12.004,3 13.981,3 		"/>
		<path d="M20.268,12H16.76l2.347,12h3.398c0.007,0,0.014,0,0.021,0c0.388,0,0.622-0.421,0.435-0.746L20.268,12z"/>
		<path d="M8.611,0H6.004C5.773,0,5.572,0.158,5.518,0.384L4.174,6h3.258L8.611,0z"/>
		<path d="M2.738,12L0.014,23.384C-0.061,23.696,0.176,24,0.5,24h3.394l2.359-12H2.738z"/>
		<polygon points="14.567,6 14.176,4 8.845,4 8.452,6 		"/>
		<path d="M18.833,6L17.49,0.384C17.437,0.159,17.235,0,17.004,0h-2.591l1.173,6H18.833z"/>
	</g>
</g>
<g id="invisible_shape">
	<rect fill="none" width="24" height="24"/>
</g>
</svg>
