<?xml version="1.0" encoding="utf-8"?>
<!-- Generator: Adobe Illustrator 19.2.0, SVG Export Plug-In . SVG Version: 6.00 Build 0)  -->
<svg version="1.1" xmlns="http://www.w3.org/2000/svg" xmlns:xlink="http://www.w3.org/1999/xlink" x="0px" y="0px" width="24px"
	 height="24px" viewBox="0 0 24 24" enable-background="new 0 0 24 24" xml:space="preserve">
<g id="Filled_Icons">
	<g>
		<path d="M22.068,2.296c-1.2-1.2-2.854-1.861-4.658-1.861c-2.149,0-4.317,0.936-5.949,2.567c-2.035,2.037-2.869,4.769-2.449,7.182
			l-0.014-0.002c-0.277,2.658-0.995,5.101-1.159,5.637L5.098,18.56l-0.283-0.283c-0.094-0.094-0.221-0.146-0.354-0.146
			c-0.133,0-0.26,0.053-0.353,0.146l-3.183,3.183c-0.283,0.283-0.439,0.66-0.439,1.061c0,0.401,0.156,0.778,0.438,1.06
			c0.283,0.284,0.66,0.44,1.063,0.44c0.402,0,0.779-0.156,1.061-0.439l3.181-3.182c0.195-0.195,0.195-0.512,0-0.707l-0.424-0.424
			l2.74-2.742c0.537-0.164,2.99-0.883,5.657-1.161c0.393,0.067,0.796,0.106,1.208,0.106c2.149,0,4.318-0.937,5.95-2.569
			c1.502-1.501,2.407-3.424,2.549-5.413C24.054,5.473,23.399,3.628,22.068,2.296z M22.912,7.417
			c-0.042,0.587-0.167,1.167-0.355,1.731l-1.194-1.194l1.537-1.539C22.927,6.742,22.937,7.075,22.912,7.417z M11.852,13.219
			l2.438-2.438l1.42,1.42l-1.997,2.001C13.023,13.996,12.396,13.666,11.852,13.219z M10.268,6.759l1.21,1.21L9.927,9.526
			C9.844,8.623,9.96,7.678,10.268,6.759z M17.825,5.831l-1.414,1.414l-1.404-1.404l1.411-1.417L17.825,5.831z M17.123,3.715
			l1.999-2.008c0.684,0.206,1.307,0.535,1.849,0.98l-2.438,2.438L17.123,3.715z M18.532,6.539l1.417,1.416L18.536,9.37l-1.417-1.418
			L18.532,6.539z M15.704,7.952L14.29,9.367l-1.4-1.4l1.412-1.418L15.704,7.952z M14.3,5.134l-1.761-1.761
			c0.518-0.459,1.085-0.843,1.683-1.145l1.488,1.489L14.3,5.134z M13.595,5.842L12.183,7.26l-1.497-1.498
			c0.298-0.591,0.68-1.158,1.145-1.684L13.595,5.842z M12.185,8.676l1.398,1.398l-2.454,2.454c-0.446-0.542-0.768-1.157-0.971-1.817
			L12.185,8.676z M14.997,10.074l1.414-1.415l1.419,1.419l-1.413,1.416L14.997,10.074z M18.537,10.785l1.747,1.746
			c-0.52,0.459-1.086,0.844-1.685,1.146l-1.476-1.476L18.537,10.785z M19.244,10.077l1.412-1.415l1.483,1.482
			c-0.302,0.598-0.686,1.162-1.146,1.682L19.244,10.077z M22.674,5.226l-2.018,2.022l-1.417-1.416l2.455-2.454
			C22.142,3.919,22.469,4.544,22.674,5.226z M17.935,1.482l-1.519,1.525l-1.201-1.201c0.717-0.241,1.458-0.372,2.195-0.372
			C17.59,1.435,17.759,1.468,17.935,1.482z M9.017,15.348c0.199-0.727,0.476-1.845,0.702-3.134c0.277,0.503,0.616,0.976,1.036,1.396
			c0.413,0.414,0.883,0.758,1.391,1.038C10.857,14.873,9.742,15.148,9.017,15.348z M14.904,14.425l1.513-1.517l1.189,1.189
			c-0.717,0.242-1.458,0.373-2.196,0.373C15.237,14.471,15.073,14.439,14.904,14.425z"/>
		<circle cx="4.375" cy="3.988" r="3"/>
	</g>
</g>
<g id="invisible_shape">
	<rect fill="none" width="24" height="24"/>
</g>
</svg>
