<?xml version="1.0" encoding="utf-8"?>
<!-- Generator: Adobe Illustrator 19.2.0, SVG Export Plug-In . SVG Version: 6.00 Build 0)  -->
<svg version="1.1" xmlns="http://www.w3.org/2000/svg" xmlns:xlink="http://www.w3.org/1999/xlink" x="0px" y="0px" width="24px"
	 height="24px" viewBox="0 0 24 24" enable-background="new 0 0 24 24" xml:space="preserve">
<g id="Filled_Icons">
	<g>
		<path d="M21,1c-1.103,0-2,0.898-2,2c0,0.37,0.108,0.712,0.283,1.01l2.727-2.727C21.712,1.107,21.37,1,21,1z"/>
		<path d="M12,14c1.103,0,2-0.898,2-2c0-0.37-0.108-0.712-0.283-1.01l-2.727,2.727C11.288,13.893,11.63,14,12,14z"/>
		<path d="M23,3c0-0.37-0.108-0.712-0.283-1.01L19.99,4.717C20.288,4.893,20.63,5,21,5C22.103,5,23,4.102,23,3z"/>
		<path d="M12,10c-1.103,0-2,0.898-2,2c0,0.37,0.108,0.712,0.283,1.01l2.727-2.727C12.712,10.107,12.37,10,12,10z"/>
		<path d="M9.56,13.732C9.21,13.242,9,12.646,9,12c0-1.654,1.346-3,3-3c0.647,0,1.243,0.211,1.733,0.561L15.293,8H8v7.293
			L9.56,13.732z"/>
		<path d="M21,6c-0.647,0-1.243-0.21-1.733-0.56L17.707,7H24V3C24,4.654,22.654,6,21,6z"/>
		<path d="M1,21c0,0.37,0.108,0.712,0.283,1.01l2.727-2.727C3.712,19.107,3.37,19,3,19C1.897,19,1,19.897,1,21z"/>
		<path d="M8,7h8V0H8V7z M9.646,1.146c0.195-0.195,0.512-0.195,0.707,0L12,2.793l1.646-1.646c0.195-0.195,0.512-0.195,0.707,0
			s0.195,0.512,0,0.707L12.707,3.5l1.647,1.647c0.195,0.195,0.195,0.512,0,0.707s-0.512,0.195-0.707,0L12,4.207l-1.646,1.647
			c-0.195,0.195-0.512,0.195-0.707,0s-0.195-0.512,0-0.707L11.293,3.5L9.646,1.854C9.451,1.658,9.451,1.342,9.646,1.146z"/>
		<path d="M24,3V0h-3C22.654,0,24,1.346,24,3z"/>
		<path d="M17,6.293l1.56-1.561C18.21,4.242,18,3.647,18,3c0-1.654,1.346-3,3-3h-4V6.293z"/>
		<path d="M3,23c1.103,0,2-0.897,2-2c0-0.37-0.108-0.712-0.283-1.01L1.99,22.717C2.288,22.893,2.63,23,3,23z"/>
		<path d="M14.44,10.267C14.79,10.758,15,11.354,15,12c0,1.654-1.346,3-3,3c-0.647,0-1.243-0.21-1.733-0.56L8.707,16H16V8.707
			L14.44,10.267z"/>
		<path d="M3,18c0.647,0,1.243,0.211,1.733,0.56L6.293,17H0v4C0,19.346,1.346,18,3,18z"/>
		<path d="M7,7V0H3c1.654,0,3,1.346,3,3S4.654,6,3,6S0,4.654,0,3v4H7z"/>
		<path d="M0,21v3h3C1.346,24,0,22.654,0,21z"/>
		<path d="M7,17.707l-1.56,1.56C5.79,19.758,6,20.354,6,21c0,1.654-1.346,3-3,3h4V17.707z"/>
		<circle cx="3" cy="3" r="2"/>
		<rect x="8" y="17" width="8" height="7"/>
		<path d="M17,17v7h7v-7H17z M22.854,22.146c0.195,0.195,0.195,0.512,0,0.707c-0.195,0.195-0.512,0.195-0.707,0L20.5,21.207
			l-1.646,1.646c-0.195,0.195-0.512,0.195-0.707,0c-0.195-0.195-0.195-0.512,0-0.707l1.646-1.646l-1.646-1.646
			c-0.195-0.195-0.195-0.512,0-0.707c0.195-0.195,0.512-0.195,0.707,0l1.646,1.646l1.646-1.646c0.195-0.195,0.512-0.195,0.707,0
			c0.195,0.195,0.195,0.512,0,0.707L21.207,20.5L22.854,22.146z"/>
		<rect x="17" y="8" width="7" height="8"/>
		<path d="M3,0H0v3C0,1.346,1.346,0,3,0z"/>
		<path d="M7,16V8H0v8H7z M1.146,9.646c0.195-0.195,0.512-0.195,0.707,0L3.5,11.293l1.647-1.647c0.195-0.195,0.512-0.195,0.707,0
			s0.195,0.512,0,0.707L4.207,12l1.647,1.646c0.195,0.195,0.195,0.512,0,0.707s-0.512,0.195-0.707,0L3.5,12.707l-1.646,1.647
			c-0.195,0.195-0.512,0.195-0.707,0s-0.195-0.512,0-0.707L2.793,12l-1.646-1.646C0.951,10.158,0.951,9.842,1.146,9.646z"/>
	</g>
</g>
<g id="invisible_shape">
	<rect fill="none" width="24" height="24"/>
</g>
</svg>
