<?xml version="1.0" encoding="utf-8"?>
<!-- Generator: Adobe Illustrator 19.2.0, SVG Export Plug-In . SVG Version: 6.00 Build 0)  -->
<svg version="1.1" xmlns="http://www.w3.org/2000/svg" xmlns:xlink="http://www.w3.org/1999/xlink" x="0px" y="0px" width="24px"
	 height="24px" viewBox="0 0 24 24" enable-background="new 0 0 24 24" xml:space="preserve">
<g id="Filled_Icons">
	<g>
		<path d="M15.5,4H15v5h-1V4h-1v5h-1V4h-1v5h-1V4H9.5C9.367,4,9.24,4.053,9.146,4.146C9.053,4.24,9,4.367,9,4.5v4.502H8
			c-0.132,0-0.26,0.052-0.353,0.144C7.553,9.241,7.5,9.369,7.5,9.502V11.5c0,1.177,0.816,2.166,1.914,2.431L7.508,23.41
			c-0.026,0.146,0.013,0.296,0.108,0.41C7.711,23.934,7.852,24,8,24h7.5c0.148,0,0.289-0.065,0.384-0.18
			c0.095-0.113,0.135-0.264,0.107-0.409l-1.717-8.446c-0.148-0.811,0.112-1.644,0.696-2.228C15.634,12.072,16,11.189,16,10.252V4.5
			C16,4.224,15.776,4,15.5,4z"/>
		<rect y="3" width="2" height="7"/>
		<rect x="22" y="3" width="2" height="7"/>
		<rect x="3" width="2" height="13"/>
		<rect x="19" width="2" height="13"/>
		<rect x="17" y="5" width="1" height="3"/>
		<rect x="6" y="5.001" width="2" height="2.999"/>
	</g>
</g>
<g id="invisible_shape">
	<rect fill="none" width="24" height="24"/>
</g>
</svg>
