<?xml version="1.0" encoding="utf-8"?>
<!-- Generator: Adobe Illustrator 16.0.3, SVG Export Plug-In . SVG Version: 6.00 Build 0)  -->
<!DOCTYPE svg PUBLIC "-//W3C//DTD SVG 1.1//EN" "http://www.w3.org/Graphics/SVG/1.1/DTD/svg11.dtd">
<svg version="1.1" xmlns="http://www.w3.org/2000/svg" xmlns:xlink="http://www.w3.org/1999/xlink" x="0px" y="0px" width="24px"
	 height="24px" viewBox="0 0 24 24" enable-background="new 0 0 24 24" xml:space="preserve">
<g id="Outline_Icons">
	<g>
		<g>
			<circle fill="none" stroke="#000000" stroke-linejoin="round" stroke-miterlimit="10" cx="17.5" cy="17.5" r="6"/>
			<g>
				<g>
					<g>
						<path d="M17.5,21c-0.277,0-0.5,0.225-0.5,0.501C17,21.776,17.223,22,17.5,22c0.275,0,0.5-0.224,0.5-0.499
							C18,21.225,17.775,21,17.5,21L17.5,21z"/>
					</g>
				</g>
			</g>
			<path fill="none" stroke="#000000" stroke-linecap="round" stroke-linejoin="round" stroke-miterlimit="10" d="M15.75,15.75
				c0-0.967,0.783-1.75,1.75-1.75s1.75,0.783,1.75,1.75s-0.783,1.75-1.75,1.75v2"/>
		</g>
		<g>
			<g>
				<polyline fill="none" stroke="#000000" stroke-linecap="round" stroke-linejoin="round" stroke-miterlimit="10" points="
					10.5,21.5 0.5,21.5 0.5,0.5 11.5,0.5 16.5,5.5 16.5,9.5 				"/>
				<polyline fill="none" stroke="#000000" stroke-linecap="round" stroke-linejoin="round" stroke-miterlimit="10" points="
					11.5,0.5 11.5,5.5 16.5,5.5 				"/>
			</g>
			<g>
				<polyline fill="none" stroke="#000000" stroke-linecap="round" stroke-linejoin="round" stroke-miterlimit="10" points="
					3.5,7.5 3.5,17.5 9.5,17.5 				"/>
				<polyline fill="none" stroke="#000000" stroke-linecap="round" stroke-linejoin="round" stroke-miterlimit="10" points="
					3.5,13.5 6.25,10.75 8.25,12.75 11.5,9.5 				"/>
			</g>
		</g>
	</g>
</g>
<g id="Invisible_Shape">
	<rect fill="none" width="24" height="24"/>
</g>
</svg>
