<?xml version="1.0" encoding="utf-8"?>
<!-- Generator: Adobe Illustrator 19.2.1, SVG Export Plug-In . SVG Version: 6.00 Build 0)  -->
<svg version="1.1" xmlns="http://www.w3.org/2000/svg" xmlns:xlink="http://www.w3.org/1999/xlink" x="0px" y="0px" width="24px"
	 height="24px" viewBox="0 0 24 24" enable-background="new 0 0 24 24" xml:space="preserve">
<g id="Filled_Icon">
	<path d="M23.502,2H0.5C0.224,2,0,2.224,0,2.5v19C0,21.776,0.224,22,0.5,22h23.002c0.276,0,0.5-0.224,0.498-0.5v-19
		C24.002,2.224,23.778,2,23.502,2z M4.469,21H1.5C1.224,21,1,20.776,1,20.5v-2.969c0-0.276,0.224-0.5,0.5-0.5s0.5,0.224,0.5,0.5V20
		h2.469c0.276,0,0.5,0.224,0.5,0.5S4.745,21,4.469,21z M3,17V7h1v10H3z M4.469,4H2v2.469c0,0.276-0.224,0.5-0.5,0.5S1,6.745,1,6.469
		V3.5C1,3.224,1.224,3,1.5,3h2.969c0.276,0,0.5,0.224,0.5,0.5S4.745,4,4.469,4z M6,16H5v-1h1V16z M6,14H5V7h1V14z M8,16H7v-1h1V16z
		 M8,14H7V7h1V14z M11,16h-1v-1h1V16z M11,14h-1V7h1V14z M13,16h-1v-1h1V16z M13,14h-1V7h1V14z M15,16h-1v-1h1V16z M15,14h-1V7h1V14
		z M17,16h-1v-1h1V16z M17,14h-1V7h1V14z M19,16h-1v-1h1V16z M19,14h-1V7h1V14z M23,20.469c0,0.276-0.224,0.5-0.5,0.531h-2.969
		c-0.276-0.031-0.5-0.255-0.5-0.531c0-0.276,0.224-0.5,0.5-0.5H22V17.5c0-0.276,0.224-0.5,0.5-0.5s0.5,0.224,0.5,0.5V20.469z M20,17
		V7h1v10H20z M23,6.5C23,6.776,22.776,7,22.5,7S22,6.776,22,6.5V4h-2.469c-0.276,0.031-0.5-0.192-0.5-0.469
		c0-0.276,0.224-0.5,0.5-0.531H22.5C22.776,3.031,23,3.255,23,3.531V6.5z"/>
</g>
<g id="Invisible_Shape">
	<rect fill="none" width="24" height="24"/>
</g>
</svg>
