<?xml version="1.0" encoding="utf-8"?>
<!-- Generator: Adobe Illustrator 19.2.1, SVG Export Plug-In . SVG Version: 6.00 Build 0)  -->
<svg version="1.1" xmlns="http://www.w3.org/2000/svg" xmlns:xlink="http://www.w3.org/1999/xlink" x="0px" y="0px" width="24px"
	 height="24px" viewBox="0 0 24 24" enable-background="new 0 0 24 24" xml:space="preserve">
<g id="Filled_Icon">
	<path d="M21.505,5h-19c-1.379,0-2.5,1.122-2.5,2.5v10c0,1.378,1.121,2.5,2.5,2.5h19c1.379,0,2.5-1.122,2.495-2.5v-10
		C24.005,6.122,22.884,5,21.505,5z M3,17H2V8h1V17z M5,17H4v-1h1V17z M5,15H4V8h1V15z M7,17H6v-1h1V17z M7,15H6V8h1V15z M10,17H9v-1
		h1V17z M10,15H9V8h1V15z M12,17h-1v-1h1V17z M12,15h-1V8h1V15z M16,17h-1v-1h1V17z M16,15h-1V8h1V15z M18,17h-1v-1h1V17z M18,15h-1
		V8h1V15z M20,17h-1v-1h1V17z M20,15h-1V8h1V15z M22,17h-1V8h1V17z"/>
</g>
<g id="Invisible_Shape">
	<rect fill="none" width="24" height="24"/>
</g>
</svg>
