<?xml version="1.0" encoding="utf-8"?>
<!-- Generator: Adobe Illustrator 19.2.1, SVG Export Plug-In . SVG Version: 6.00 Build 0)  -->
<svg version="1.1" xmlns="http://www.w3.org/2000/svg" xmlns:xlink="http://www.w3.org/1999/xlink" x="0px" y="0px" width="24px"
	 height="24px" viewBox="0 0 24 24" enable-background="new 0 0 24 24" xml:space="preserve">
<g id="Filled_Icon">
	<path d="M23.5,10h-0.6l-0.828-3.727c-0.66-2.969-3.162-5.075-6.159-5.255C15.711,0.428,15.156,0,14.5,0h-5
		C8.842,0,8.288,0.428,8.086,1.018c-2.998,0.18-5.5,2.286-6.16,5.255L1.099,10H0.5C0.224,10,0,10.224,0,10.5v2
		C0,12.776,0.224,13,0.5,13h0.582l1.926,10.59C3.051,23.827,3.258,24,3.5,24h17c0.241,0,0.448-0.173,0.491-0.41L22.917,13H23.5
		c0.275,0,0.5-0.224,0.5-0.5v-2C24,10.224,23.775,10,23.5,10z M2.902,6.489C3.461,3.978,5.566,2.19,8.097,2.018
		C8.309,2.59,8.856,3,9.5,3h5c0.644,0,1.19-0.41,1.402-0.982c2.529,0.173,4.636,1.961,5.194,4.472L21.876,10H2.123L2.902,6.489z
		 M6,20.5C6,20.776,5.775,21,5.5,21C5.224,21,5,20.776,5,20.5v-6C5,14.224,5.224,14,5.5,14C5.775,14,6,14.224,6,14.5V20.5z M10,20.5
		c0,0.276-0.225,0.5-0.5,0.5C9.224,21,9,20.776,9,20.5v-6C9,14.224,9.224,14,9.5,14c0.275,0,0.5,0.224,0.5,0.5V20.5z M15,20.5
		c0,0.276-0.225,0.5-0.5,0.5c-0.276,0-0.5-0.224-0.5-0.5v-6c0-0.276,0.224-0.5,0.5-0.5c0.275,0,0.5,0.224,0.5,0.5V20.5z M19,20.5
		c0,0.276-0.225,0.5-0.5,0.5c-0.276,0-0.5-0.224-0.5-0.5v-6c0-0.276,0.224-0.5,0.5-0.5c0.275,0,0.5,0.224,0.5,0.5V20.5z M23,12
		c-8.056,0-13.979,0-22,0v-1c8.013,0,13.909,0,22,0V12z"/>
</g>
<g id="Invisible_Shape">
	<rect fill="none" width="24" height="24"/>
</g>
</svg>
