<?xml version="1.0" encoding="utf-8"?>
<!-- Generator: Adobe Illustrator 19.2.1, SVG Export Plug-In . SVG Version: 6.00 Build 0)  -->
<svg version="1.1" xmlns="http://www.w3.org/2000/svg" xmlns:xlink="http://www.w3.org/1999/xlink" x="0px" y="0px" width="24px"
	 height="24px" viewBox="0 0 24 24" enable-background="new 0 0 24 24" xml:space="preserve">
<g id="Filled_Icon">
	<g>
		<path d="M19.44,12.076L19.9,10h0.6c0.275,0,0.5-0.224,0.5-0.5v-2C21,7.224,20.775,7,20.5,7h-20C0.224,7,0,7.224,0,7.5v2
			C0,9.776,0.224,10,0.5,10h0.599l1.913,8.608C3.062,18.838,3.266,19,3.5,19h8.525C11.69,14.956,15.218,11.462,19.44,12.076z M1,9V8
			h19v1C13.464,9,7.766,9,1,9z"/>
		<path d="M3.819,5.885l6-5c0.212-0.177,0.241-0.491,0.064-0.705C9.707-0.031,9.392-0.06,9.18,0.116l-6,5
			C2.967,5.293,2.938,5.608,3.115,5.82C3.295,6.036,3.611,6.058,3.819,5.885z"/>
		<path d="M17.18,5.885c0.217,0.178,0.531,0.145,0.704-0.064c0.177-0.212,0.147-0.527-0.065-0.704l-6-5
			c-0.212-0.176-0.527-0.148-0.704,0.064c-0.177,0.214-0.148,0.528,0.064,0.705L17.18,5.885z"/>
		<path d="M18.5,13c-3.033,0-5.5,2.469-5.5,5.5c0,3.033,2.467,5.5,5.5,5.5c3.032,0,5.5-2.467,5.5-5.5C24,15.469,21.532,13,18.5,13z
			 M21,19h-2v2c0,0.276-0.225,0.5-0.5,0.5c-0.276,0-0.5-0.224-0.5-0.5v-2h-0.5H16c-0.275,0-0.5-0.224-0.5-0.5S15.725,18,16,18h1.099
			H18v-2c0-0.276,0.224-0.5,0.5-0.5c0.275,0,0.5,0.224,0.5,0.5v2h2c0.276,0,0.5,0.224,0.5,0.5S21.276,19,21,19z"/>
	</g>
</g>
<g id="Invisible_Shape">
	<rect fill="none" width="24" height="24"/>
</g>
</svg>
