<?xml version="1.0" encoding="utf-8"?>
<!-- Generator: Adobe Illustrator 19.2.1, SVG Export Plug-In . SVG Version: 6.00 Build 0)  -->
<svg version="1.1" xmlns="http://www.w3.org/2000/svg" xmlns:xlink="http://www.w3.org/1999/xlink" x="0px" y="0px" width="24px"
	 height="24px" viewBox="0 0 24 24" enable-background="new 0 0 24 24" xml:space="preserve">
<g id="Filled_Icon">
	<g>
		<path d="M3.819,5.885l6-5c0.212-0.177,0.241-0.491,0.064-0.705C9.707-0.031,9.392-0.06,9.18,0.116l-6,5
			C2.967,5.293,2.938,5.608,3.115,5.82C3.295,6.036,3.611,6.058,3.819,5.885z"/>
		<path d="M17.18,5.885c0.217,0.178,0.531,0.145,0.704-0.064c0.177-0.212,0.147-0.527-0.065-0.704l-6-5
			c-0.212-0.176-0.527-0.148-0.704,0.064c-0.177,0.214-0.148,0.528,0.064,0.705L17.18,5.885z"/>
		<path d="M19.199,13.162L19.901,10H20.5c0.276,0,0.5-0.224,0.5-0.5v-2C21,7.224,20.776,7,20.5,7c-7.237,0-12.763,0-20,0
			C0.224,7,0,7.224,0,7.5v2C0,9.776,0.224,10,0.5,10h0.599l1.913,8.608C3.062,18.838,3.266,19,3.5,19c3.508,0,6.446,0,9.602,0
			C12.376,15.47,15.561,12.261,19.199,13.162z M1,9V8c6.875,0,12.125,0,19,0v1C17.697,9,3.102,9,1,9z"/>
		<path d="M23.854,23.146l-2.707-2.706C21.673,19.763,22,18.923,22,18c0-2.205-1.794-4-4-4s-4,1.795-4,4c0,2.206,1.794,4,4,4
			c0.923,0,1.762-0.326,2.44-0.852l2.707,2.705c0.195,0.195,0.512,0.195,0.707,0C24.049,23.659,24.049,23.342,23.854,23.146z M15,18
			c0-1.654,1.346-3,3-3s3,1.346,3,3s-1.346,3-3,3S15,19.654,15,18z"/>
	</g>
</g>
<g id="Invisible_Shape">
	<rect fill="none" width="24" height="24"/>
</g>
</svg>
