<?xml version="1.0" encoding="utf-8"?>
<!-- Generator: Adobe Illustrator 19.2.1, SVG Export Plug-In . SVG Version: 6.00 Build 0)  -->
<svg version="1.1" xmlns="http://www.w3.org/2000/svg" xmlns:xlink="http://www.w3.org/1999/xlink" x="0px" y="0px" width="24px"
	 height="24px" viewBox="0 0 24 24" enable-background="new 0 0 24 24" xml:space="preserve">
<g id="Filled_Icon">
	<g>
		<path d="M3.819,5.885l6-5c0.212-0.177,0.241-0.491,0.064-0.705C9.707-0.031,9.392-0.06,9.18,0.116l-6,5
			C2.967,5.293,2.938,5.608,3.115,5.82C3.295,6.036,3.611,6.058,3.819,5.885z"/>
		<path d="M17.18,5.885c0.217,0.178,0.531,0.145,0.704-0.064c0.177-0.212,0.147-0.527-0.065-0.704l-6-5
			c-0.212-0.176-0.527-0.148-0.704,0.064c-0.177,0.214-0.148,0.528,0.064,0.705L17.18,5.885z"/>
		<path d="M12.542,17.655C11.461,16.75,12.102,15,13.5,15h2.511l1.11-2.591c0.389-0.899,1.546-1.239,2.361-0.523L19.901,10H20.5
			c0.276,0,0.5-0.224,0.5-0.5v-2C21,7.224,20.776,7,20.5,7c-7.237,0-12.763,0-20,0C0.224,7,0,7.224,0,7.5v2C0,9.776,0.224,10,0.5,10
			h0.599l1.913,8.608C3.062,18.838,3.266,19,3.5,19c2.415,0,7.476,0,10.668,0L12.542,17.655z M1,9V8h19v1H1z"/>
		<path d="M23.5,16.003h-3.171l-1.369-3.2c-0.175-0.403-0.745-0.403-0.92,0l-1.369,3.2H13.5c-0.47,0-0.676,0.584-0.32,0.882
			l2.744,2.27l-1.375,3.669c-0.171,0.456,0.351,0.869,0.758,0.583l3.193-2.288l3.193,2.288c0.407,0.286,0.929-0.127,0.758-0.583
			l-1.375-3.669l2.744-2.27C24.176,16.587,23.97,16.003,23.5,16.003z"/>
	</g>
</g>
<g id="Invisible_Shape">
	<rect fill="none" width="24" height="24"/>
</g>
</svg>
