<?xml version="1.0" encoding="utf-8"?>
<!-- Generator: Adobe Illustrator 19.2.1, SVG Export Plug-In . SVG Version: 6.00 Build 0)  -->
<svg version="1.1" xmlns="http://www.w3.org/2000/svg" xmlns:xlink="http://www.w3.org/1999/xlink" x="0px" y="0px" width="24px"
	 height="24px" viewBox="0 0 24 24" enable-background="new 0 0 24 24" xml:space="preserve">
<g id="Filled_Icon">
	<g>
		<path d="M18.5,13c-3.037,0-5.5,2.463-5.5,5.5s2.463,5.5,5.5,5.5s5.5-2.463,5.5-5.5S21.537,13,18.5,13z M21.104,20.396
			c0.195,0.196,0.195,0.512,0,0.707c-0.195,0.195-0.512,0.195-0.707,0L18.5,19.206l-1.896,1.897c-0.195,0.195-0.512,0.195-0.707,0
			c-0.195-0.195-0.195-0.511,0-0.707l1.896-1.896l-1.896-1.896c-0.195-0.195-0.195-0.511,0-0.707c0.195-0.195,0.512-0.195,0.707,0
			l1.896,1.896l1.896-1.896c0.195-0.195,0.512-0.195,0.707,0c0.195,0.196,0.195,0.512,0,0.707L19.207,18.5L21.104,20.396z"/>
		<g>
			<path d="M19.44,12.076L19.9,10h0.6c0.275,0,0.5-0.224,0.5-0.5v-2C21,7.224,20.775,7,20.5,7h-20C0.224,7,0,7.224,0,7.5v2
				C0,9.776,0.224,10,0.5,10h0.599l1.913,8.608C3.062,18.838,3.266,19,3.5,19h8.525C11.69,14.956,15.218,11.462,19.44,12.076z M1,9
				V8h19v1C13.464,9,7.766,9,1,9z"/>
			<path d="M3.819,5.885l6-5c0.212-0.177,0.241-0.491,0.064-0.705C9.707-0.031,9.392-0.06,9.18,0.116l-6,5
				C2.967,5.293,2.938,5.608,3.115,5.82C3.295,6.036,3.611,6.058,3.819,5.885z"/>
			<path d="M17.18,5.885c0.217,0.178,0.531,0.145,0.704-0.064c0.177-0.212,0.147-0.527-0.065-0.704l-6-5
				c-0.212-0.176-0.527-0.148-0.704,0.064c-0.177,0.214-0.148,0.528,0.064,0.705L17.18,5.885z"/>
		</g>
	</g>
</g>
<g id="Invisible_Shape">
	<rect fill="none" width="24" height="24"/>
</g>
</svg>
