<?xml version="1.0" encoding="utf-8"?>
<!-- Generator: Adobe Illustrator 19.2.1, SVG Export Plug-In . SVG Version: 6.00 Build 0)  -->
<svg version="1.1" xmlns="http://www.w3.org/2000/svg" xmlns:xlink="http://www.w3.org/1999/xlink" x="0px" y="0px" width="24px"
	 height="24px" viewBox="0 0 24 24" enable-background="new 0 0 24 24" xml:space="preserve">
<g id="Filled_Icon">
	<g>
		<path d="M12,3c-4.963,0-9,4.038-9,9c0,4.963,4.037,9,9,9c4.962,0,9-4.037,9-9C21,7.038,16.962,3,12,3z M18.325,9.88l-3.245,3.281
			l1.394,4.181c0.069,0.208-0.005,0.436-0.182,0.565c-0.176,0.125-0.417,0.125-0.593-0.006L12,15.125L8.299,17.9
			c-0.174,0.132-0.414,0.135-0.592,0.006c-0.178-0.128-0.251-0.357-0.182-0.565l1.393-4.181L5.674,9.88
			C5.516,9.744,5.458,9.523,5.53,9.327C5.603,9.131,5.79,9,6,9h4.139l1.387-3.658C11.594,5.138,11.784,5,12,5
			c0.215,0,0.406,0.138,0.474,0.342L13.859,9H18c0.209,0,0.396,0.131,0.469,0.327C18.541,9.523,18.484,9.744,18.325,9.88z"/>
		<path d="M12,0C5.383,0,0,5.385,0,12c0,6.617,5.383,12,12,12c6.616,0,12-5.383,12-12C24,5.385,18.616,0,12,0z M12,23
			C5.934,23,1,18.066,1,12C1,5.935,5.934,1,12,1c6.065,0,11,4.935,11,11C23,18.066,18.065,23,12,23z"/>
	</g>
</g>
<g id="Invisible_Shape">
	<rect fill="none" width="24" height="24"/>
</g>
</svg>
