<?xml version="1.0" encoding="utf-8"?>
<!-- Generator: Adobe Illustrator 19.2.1, SVG Export Plug-In . SVG Version: 6.00 Build 0)  -->
<svg version="1.1" xmlns="http://www.w3.org/2000/svg" xmlns:xlink="http://www.w3.org/1999/xlink" x="0px" y="0px" width="24px"
	 height="24px" viewBox="0 0 24 24" enable-background="new 0 0 24 24" xml:space="preserve">
<g id="Filled_Icon">
	<g>
		<path d="M12.007,0c-6.617,0-12,5.383-12,12s5.383,12,12,12s12-5.383,12-12S18.624,0,12.007,0z M12.007,23c-6.065,0-11-4.934-11-11
			c0-6.065,4.935-11,11-11c6.066,0,11,4.935,11,11C23.007,18.066,18.072,23,12.007,23z"/>
		<path d="M13.058,7H11v4h2.058c1.726,0,2.053-0.592,2.053-2C15.11,7.591,14.783,7,13.058,7z"/>
		<path d="M12.007,3c-4.963,0-9,4.038-9,9s4.037,9,9,9s9-4.038,9-9S16.97,3,12.007,3z M13.058,12H11v5.188
			c0,0.277-0.224,0.5-0.5,0.5s-0.5-0.223-0.5-0.5V6.5C10,6.224,10.224,6,10.5,6h2.558c2.736,0,3.053,1.639,3.053,3
			C16.11,10.361,15.794,12,13.058,12z"/>
	</g>
</g>
<g id="Invisible_Shape">
	<rect fill="none" width="24" height="24"/>
</g>
</svg>
