<?xml version="1.0" encoding="utf-8"?>
<!-- Generator: Adobe Illustrator 19.2.1, SVG Export Plug-In . SVG Version: 6.00 Build 0)  -->
<svg version="1.1" xmlns="http://www.w3.org/2000/svg" xmlns:xlink="http://www.w3.org/1999/xlink" x="0px" y="0px" width="24px"
	 height="24px" viewBox="0 0 24 24" enable-background="new 0 0 24 24" xml:space="preserve">
<g id="Filled_Icon">
	<g>
		<path d="M23.5,9.5C23.776,9.5,24,9.276,24,9V4.5C24,4.224,23.776,4,23.5,4h-23C0.224,4,0,4.224,0,4.5V9c0,0.276,0.224,0.5,0.5,0.5
			C1.879,9.5,3,10.622,3,12s-1.121,2.5-2.5,2.5C0.224,14.5,0,14.724,0,15v4.5C0,19.776,0.224,20,0.5,20h23
			c0.276,0,0.5-0.224,0.5-0.5V15c0-0.276-0.224-0.5-0.5-0.5c-1.379,0-2.5-1.122-2.5-2.5S22.121,9.5,23.5,9.5z M8,7
			c1.102,0,2,0.897,2,2c0,1.102-0.898,2-2,2s-2-0.898-2-2C6,7.897,6.898,7,8,7z M6.647,16.354c-0.195-0.195-0.195-0.512,0-0.707l8-8
			c0.195-0.195,0.512-0.195,0.707,0s0.195,0.512,0,0.707l-8,8C7.158,16.549,6.842,16.549,6.647,16.354z M14,17c-1.102,0-2-0.897-2-2
			c0-1.103,0.898-2,2-2s2,0.897,2,2C16,16.103,15.102,17,14,17z M19,19h-1v-1h1V19z M19,17h-1v-1h1V17z M19,15h-1v-1h1V15z M19,13
			h-1v-1h1V13z M19,11h-1v-1h1V11z M19,9h-1V8h1V9z M19,7h-1V6h1V7z"/>
		<circle cx="8" cy="9" r="1"/>
		<circle cx="14" cy="15" r="1"/>
	</g>
</g>
<g id="Invisible_Shape">
	<rect fill="none" width="24" height="24"/>
</g>
</svg>
