<?xml version="1.0" encoding="utf-8"?>
<!-- Generator: Adobe Illustrator 19.2.1, SVG Export Plug-In . SVG Version: 6.00 Build 0)  -->
<svg version="1.1" xmlns="http://www.w3.org/2000/svg" xmlns:xlink="http://www.w3.org/1999/xlink" x="0px" y="0px" width="24px"
	 height="24px" viewBox="0 0 24 24" enable-background="new 0 0 24 24" xml:space="preserve">
<g id="Filled_Icon">
	<g>
		<path d="M11,17h-0.5c-0.276,0-0.5,0.224-0.5,0.5s0.224,0.5,0.5,0.5H11c0.275,0,0.5-0.224,0.5-0.5S11.275,17,11,17z"/>
		<path d="M17.545,17h-1.091c-0.276,0-0.5,0.224-0.5,0.5s0.224,0.5,0.5,0.5h1.091c0.276,0,0.5-0.224,0.5-0.5S17.821,17,17.545,17z"
			/>
		<path d="M20.818,17h-1.092c-0.275,0-0.5,0.224-0.5,0.5s0.225,0.5,0.5,0.5h1.092c0.275,0,0.5-0.224,0.5-0.5S21.094,17,20.818,17z"
			/>
		<path d="M14.273,17h-1.091c-0.276,0-0.5,0.224-0.5,0.5s0.224,0.5,0.5,0.5h1.091c0.276,0,0.5-0.224,0.5-0.5S14.549,17,14.273,17z"
			/>
		<path d="M23.5,17H23c-0.276,0-0.5,0.224-0.5,0.5S22.724,18,23,18h0.5c0.275,0,0.5-0.224,0.5-0.5S23.775,17,23.5,17z"/>
		<path d="M11.268,15.858c0.197-0.193,0.201-0.51,0.008-0.707c-0.638-0.653-1.216-1.376-1.729-2.147l7.774,2.965
			c0.253,0.095,0.545-0.028,0.646-0.29c0.098-0.259-0.031-0.546-0.289-0.646L9.746,12.01l13.936-5.455
			c0.41-0.161,0.427-0.737,0.026-0.921C17.599,2.831,11.79,5.425,8.394,10.947C7.502,9.036,7,6.969,7,5c0-1.93-1.57-3.5-3.5-3.5
			C1.569,1.5,0,3.07,0,5s1.569,3.5,3.5,3.5c1.081,0,2.049-0.493,2.691-1.266c0.271,1.623,0.825,3.251,1.61,4.767
			c-0.792,1.525-1.338,3.158-1.605,4.771C5.554,15.996,4.584,15.5,3.5,15.5C1.569,15.5,0,17.07,0,19s1.569,3.5,3.5,3.5
			C5.43,22.5,7,20.93,7,19c0-1.938,0.492-4.018,1.394-5.951c0.621,1.015,1.348,1.964,2.166,2.801
			C10.755,16.05,11.074,16.048,11.268,15.858z M3.5,6.5C2.672,6.5,2,5.827,2,5s0.672-1.5,1.5-1.5C4.326,3.5,5,4.173,5,5
			S4.326,6.5,3.5,6.5z M3.5,20.5C2.672,20.5,2,19.827,2,19s0.672-1.5,1.5-1.5C4.326,17.5,5,18.173,5,19S4.326,20.5,3.5,20.5z"/>
	</g>
</g>
<g id="Invisible_Shape">
	<rect fill="none" width="24" height="24"/>
</g>
</svg>
