<?xml version="1.0" encoding="utf-8"?>
<!-- Generator: Adobe Illustrator 19.2.1, SVG Export Plug-In . SVG Version: 6.00 Build 0)  -->
<svg version="1.1" xmlns="http://www.w3.org/2000/svg" xmlns:xlink="http://www.w3.org/1999/xlink" x="0px" y="0px" width="24px"
	 height="24px" viewBox="0 0 24 24" enable-background="new 0 0 24 24" xml:space="preserve">
<g id="Filled_Icon">
	<g>
		<path d="M22.825,12l-3.868-8.703C18.877,3.116,18.697,3,18.5,3h-13C5.303,3,5.123,3.116,5.043,3.297L1.175,12H22.825z"/>
		<path d="M22.09,16H1.91l-0.516,3.09C1.142,20.606,2.31,22,3.86,22h16.278c1.545,0,2.721-1.385,2.466-2.91L22.09,16z M11,19.5
			c0,0.276-0.224,0.5-0.5,0.5h-6C4.224,20,4,19.776,4,19.5v-2C4,17.224,4.224,17,4.5,17h6c0.276,0,0.5,0.224,0.5,0.5V19.5z
			 M15.458,19.5c-0.552,0-1-0.449-1-1s0.448-1,1-1s1,0.449,1,1S16.01,19.5,15.458,19.5z M18.458,19.5c-0.552,0-1-0.449-1-1
			s0.448-1,1-1s1,0.449,1,1S19.01,19.5,18.458,19.5z"/>
		<path d="M1.14,13c0.4,1.203,0.426,1.483,0.824,2h20.072c0.399-0.517,0.424-0.797,0.824-2H1.14z"/>
	</g>
</g>
<g id="Invisible_Shape">
	<rect fill="none" width="24" height="24"/>
</g>
</svg>
