<?xml version="1.0" encoding="utf-8"?>
<!-- Generator: Adobe Illustrator 19.2.1, SVG Export Plug-In . SVG Version: 6.00 Build 0)  -->
<svg version="1.1" xmlns="http://www.w3.org/2000/svg" xmlns:xlink="http://www.w3.org/1999/xlink" x="0px" y="0px" width="24px"
	 height="24px" viewBox="0 0 24 24" enable-background="new 0 0 24 24" xml:space="preserve">
<g id="Filled_Icon">
	<g>
		<path d="M23.986,20.385L20.514,5.628L17.171,19h5.463l0.38,1.615c0.062,0.267,0.329,0.435,0.601,0.372
			C23.884,20.923,24.05,20.654,23.986,20.385z"/>
		<path d="M19.5,3h-13C6.493,3,6.488,3.006,6.481,3.006c-0.226,0.009-0.41,0.186-0.459,0.35l-6,20
			c-0.08,0.264,0.07,0.543,0.335,0.623c0.269,0.08,0.545-0.075,0.622-0.335L1.771,21h12.838l-0.595,2.379
			c-0.066,0.268,0.096,0.539,0.364,0.606c0.268,0.067,0.54-0.095,0.607-0.364l0.75-3l4.25-17C20.065,3.293,19.797,3,19.5,3z M12,18
			H4.5C4.224,18,4,17.776,4,17.5S4.224,17,4.5,17H12c0.276,0,0.5,0.224,0.5,0.5S12.276,18,12,18z M14.981,8.637l-2,7
			C12.919,15.852,12.724,16,12.5,16h-7c-0.157,0-0.305-0.073-0.399-0.199c-0.095-0.125-0.124-0.288-0.081-0.439l2-7
			C7.081,8.148,7.276,8,7.5,8h7c0.157,0,0.305,0.074,0.399,0.199C14.994,8.324,15.023,8.486,14.981,8.637z M15.5,7H8
			C7.724,7,7.5,6.776,7.5,6.5S7.724,6,8,6h7.5C15.776,6,16,6.224,16,6.5S15.776,7,15.5,7z"/>
	</g>
</g>
<g id="Invisible_Shape">
	<rect fill="none" width="24" height="24"/>
</g>
</svg>
