<?xml version="1.0" encoding="utf-8"?>
<!-- Generator: Adobe Illustrator 19.2.1, SVG Export Plug-In . SVG Version: 6.00 Build 0)  -->
<svg version="1.1" xmlns="http://www.w3.org/2000/svg" xmlns:xlink="http://www.w3.org/1999/xlink" x="0px" y="0px" width="24px"
	 height="24px" viewBox="0 0 24 24" enable-background="new 0 0 24 24" xml:space="preserve">
<g id="Filled_Icon">
	<g>
		<path d="M21.5,6h-19C1.121,6,0,7.122,0,8.5v8C0,17.878,1.121,19,2.5,19h19c1.379,0,2.5-1.122,2.5-2.5v-8C24,7.122,22.879,6,21.5,6
			z M6.75,12c0.276,0,0.5,0.224,0.5,0.5S7.026,13,6.75,13H5v1.5C5,14.776,4.776,15,4.5,15S4,14.776,4,14.5v-4
			C4,10.224,4.224,10,4.5,10h2.25c0.276,0,0.5,0.224,0.5,0.5S7.026,11,6.75,11H5v1H6.75z M12,12.5c0,0.276-0.224,0.5-0.5,0.5h-0.793
			l1.147,1.146c0.195,0.195,0.195,0.512,0,0.707c-0.195,0.195-0.512,0.195-0.707,0L9.293,13H9v1.5C9,14.776,8.776,15,8.5,15
			S8,14.776,8,14.5v-4C8,10.224,8.224,10,8.5,10h3c0.276,0,0.5,0.224,0.5,0.5V12.5z M15.75,12c0.276,0,0.5,0.224,0.5,0.5
			s-0.224,0.5-0.5,0.5H14v1h1.75c0.276,0,0.5,0.224,0.5,0.5s-0.224,0.5-0.5,0.5H13.5c-0.276,0-0.5-0.224-0.5-0.5v-4
			c0-0.276,0.224-0.5,0.5-0.5h2.25c0.276,0,0.5,0.224,0.5,0.5s-0.224,0.5-0.5,0.5H14v1H15.75z M19.75,12c0.276,0,0.5,0.224,0.5,0.5
			s-0.224,0.5-0.5,0.5H18v1h1.75c0.276,0,0.5,0.224,0.5,0.5s-0.224,0.5-0.5,0.5H17.5c-0.276,0-0.5-0.224-0.5-0.5v-4
			c0-0.276,0.224-0.5,0.5-0.5h2.25c0.276,0,0.5,0.224,0.5,0.5s-0.224,0.5-0.5,0.5H18v1H19.75z"/>
		<rect x="9" y="11" width="2" height="1"/>
	</g>
</g>
<g id="Invisible_Shape">
	<rect fill="none" width="24" height="24"/>
</g>
</svg>
