<?xml version="1.0" encoding="utf-8"?>
<!-- Generator: Adobe Illustrator 19.2.1, SVG Export Plug-In . SVG Version: 6.00 Build 0)  -->
<svg version="1.1" xmlns="http://www.w3.org/2000/svg" xmlns:xlink="http://www.w3.org/1999/xlink" x="0px" y="0px" width="24px"
	 height="24px" viewBox="0 0 24 24" enable-background="new 0 0 24 24" xml:space="preserve">
<g id="Filled_Icon">
	<g>
		<path d="M12,0C5.383,0,0,5.383,0,12s5.383,12,12,12s12-5.383,12-12S18.617,0,12,0z M7,12c0.276,0,0.5,0.224,0.5,0.5S7.276,13,7,13
			H5v1.5C5,14.776,4.776,15,4.5,15S4,14.776,4,14.5v-4C4,10.224,4.224,10,4.5,10H7c0.276,0,0.5,0.224,0.5,0.5S7.276,11,7,11H5v1H7z
			 M12,12.5c0,0.276-0.224,0.5-0.5,0.5h-0.619l1,1.177c0.179,0.21,0.153,0.525-0.057,0.704c-0.216,0.182-0.53,0.15-0.705-0.057
			L9.568,13H9v1.5C9,14.776,8.776,15,8.5,15S8,14.776,8,14.5v-4C8,10.224,8.224,10,8.5,10h3c0.276,0,0.5,0.224,0.5,0.5V12.5z M16,12
			c0.276,0,0.5,0.224,0.5,0.5S16.276,13,16,13h-2v1h2c0.276,0,0.5,0.224,0.5,0.5S16.276,15,16,15h-2.5c-0.276,0-0.5-0.224-0.5-0.5
			v-4c0-0.276,0.224-0.5,0.5-0.5H16c0.276,0,0.5,0.224,0.5,0.5S16.276,11,16,11h-2v1H16z M20,14c0.276,0,0.5,0.224,0.5,0.5
			S20.276,15,20,15h-2.5c-0.276,0-0.5-0.224-0.5-0.5v-4c0-0.276,0.224-0.5,0.5-0.5H20c0.276,0,0.5,0.224,0.5,0.5S20.276,11,20,11h-2
			v1h2c0.276,0,0.5,0.224,0.5,0.5S20.276,13,20,13h-2v1H20z"/>
		<rect x="9" y="11" width="2" height="1"/>
	</g>
</g>
<g id="Invisible_Shape">
	<rect fill="none" width="24" height="24"/>
</g>
</svg>
