<?xml version="1.0" encoding="utf-8"?>
<!-- Generator: Adobe Illustrator 19.2.1, SVG Export Plug-In . SVG Version: 6.00 Build 0)  -->
<svg version="1.1" xmlns="http://www.w3.org/2000/svg" xmlns:xlink="http://www.w3.org/1999/xlink" x="0px" y="0px" width="24px"
	 height="24px" viewBox="0 0 24 24" enable-background="new 0 0 24 24" xml:space="preserve">
<g id="Filled_Icon">
	<g>
		<path d="M5.54,7.017c0.276,0,0.5-0.224,0.5-0.5C6.04,2.727,9.148,1,12.036,1c2.892,0,6.004,1.727,6.004,5.517
			c0,0.276,0.224,0.5,0.5,0.5c0.276,0,0.5-0.224,0.5-0.5C19.04,2.325,15.683,0,12.036,0C8.56,0,5.04,2.239,5.04,6.517
			C5.04,6.793,5.264,7.017,5.54,7.017z"/>
		<path d="M22.997,17.56L21.032,6.43c-0.106-0.603-0.992-0.516-0.992,0.087c0,0.827-0.673,1.5-1.5,1.5h-13
			c-0.827,0-1.5-0.673-1.5-1.5c0-0.605-0.887-0.688-0.992-0.087L1.083,17.56C0.485,20.946,3.109,24.036,6.5,24h11.08
			C20.978,24.036,23.594,20.94,22.997,17.56z M19.04,11.017h-12v1.5c0,0.276-0.224,0.5-0.5,0.5c-0.276,0-0.5-0.224-0.5-0.5v-1.5
			h-0.5c-0.276,0-0.5-0.224-0.5-0.5c0-0.277,0.224-0.5,0.5-0.517h13.5c0.276,0.017,0.5,0.24,0.5,0.517
			C19.54,10.793,19.316,11.017,19.04,11.017z"/>
	</g>
</g>
<g id="Invisible_Shape">
	<rect fill="none" width="24" height="24"/>
</g>
</svg>
