<?xml version="1.0" encoding="utf-8"?>
<!-- Generator: Adobe Illustrator 19.2.1, SVG Export Plug-In . SVG Version: 6.00 Build 0)  -->
<svg version="1.1" xmlns="http://www.w3.org/2000/svg" xmlns:xlink="http://www.w3.org/1999/xlink" x="0px" y="0px" width="24px"
	 height="24px" viewBox="0 0 24 24" enable-background="new 0 0 24 24" xml:space="preserve">
<g id="Filled_Icon">
	<g>
		<path d="M21.5,5H17V4.5C17,2.57,15.43,1,13.5,1h-3C8.57,1,7,2.57,7,4.5V5H2.5C1.121,5,0,6.122,0,7.5v7C0,14.776,0.224,15,0.5,15H9
			v-1.5C9,13.224,9.224,13,9.5,13h5c0.275,0,0.5,0.224,0.5,0.5V15h8.5c0.275,0,0.5-0.224,0.5-0.5v-7C24,6.122,22.878,5,21.5,5z
			 M16,5H8V4.5C8,3.122,9.121,2,10.5,2h3C14.878,2,16,3.122,16,4.5V5z"/>
		<path d="M22.5,16H15v0.5c0,0.276-0.225,0.5-0.5,0.5h-5C9.224,17,9,16.776,9,16.5V16H1.5C1.224,16,1,16.224,1,16.5v5
			C1,21.776,1.224,22,1.5,22h21c0.275,0,0.5-0.224,0.5-0.5v-5C23,16.224,22.775,16,22.5,16z"/>
		<rect x="10" y="14" width="4" height="2"/>
	</g>
</g>
<g id="Invisible_Shape">
	<rect fill="none" width="24" height="24"/>
</g>
</svg>
