<?xml version="1.0" encoding="utf-8"?>
<!-- Generator: Adobe Illustrator 19.2.1, SVG Export Plug-In . SVG Version: 6.00 Build 0)  -->
<svg version="1.1" xmlns="http://www.w3.org/2000/svg" xmlns:xlink="http://www.w3.org/1999/xlink" x="0px" y="0px" width="24px"
	 height="24px" viewBox="0 0 24 24" enable-background="new 0 0 24 24" xml:space="preserve">
<g id="Filled_Icon">
	<g>
		<path d="M6,11v1.39l-1.143-1.904C4.335,9.619,3,9.99,3,11v5c0,0.553,0.447,1,1,1c0.552,0,1-0.447,1-1v-1.39l1.143,1.904
			C6.659,17.377,8,17.015,8,16v-5c0-0.552-0.448-1-1-1C6.447,10,6,10.448,6,11z"/>
		<path d="M12.41,12c0.552,0,1-0.447,1-1c0-0.552-0.448-1-1-1H10c-0.553,0-1,0.448-1,1v5c0,0.553,0.447,1,1,1h2.5
			c0.552,0,1-0.447,1-1c0-0.552-0.448-1-1-1H11v-0.5h1c0.552,0,1-0.447,1-1c0-0.552-0.448-1-1-1h-1V12H12.41z"/>
		<path d="M20.043,10.713l-0.542,1.808l-0.543-1.808c-0.284-0.948-1.63-0.948-1.915,0l-0.542,1.808l-0.543-1.808
			c-0.158-0.529-0.717-0.826-1.245-0.671c-0.528,0.159-0.829,0.717-0.67,1.245l1.5,5c0.283,0.945,1.631,0.949,1.915,0l0.543-1.807
			l0.542,1.807c0.283,0.945,1.631,0.949,1.915,0l1.5-5c0.158-0.528-0.141-1.086-0.67-1.245
			C20.759,9.885,20.201,10.184,20.043,10.713z"/>
		<path d="M1,8h22c0.552,0,1-0.447,1-1c0-0.552-0.448-1-1-1H1C0.447,6,0,6.448,0,7C0,7.553,0.447,8,1,8z"/>
		<path d="M23,18H1c-0.553,0-1,0.448-1,1c0,0.553,0.447,1,1,1h22c0.552,0,1-0.447,1-1C24,18.448,23.552,18,23,18z"/>
	</g>
</g>
<g id="Invisible_Shape">
	<rect fill="none" width="24" height="24"/>
</g>
</svg>
