<?xml version="1.0" encoding="utf-8"?>
<!-- Generator: Adobe Illustrator 19.2.1, SVG Export Plug-In . SVG Version: 6.00 Build 0)  -->
<svg version="1.1" xmlns="http://www.w3.org/2000/svg" xmlns:xlink="http://www.w3.org/1999/xlink" x="0px" y="0px" width="24px"
	 height="24px" viewBox="0 0 24 24" enable-background="new 0 0 24 24" xml:space="preserve">
<g id="Filled_Icon">
	<g>
		<g>
			<path d="M24,16v-0.5c0-1.378-1.121-2.5-2.5-2.5h-10C10.121,13,9,14.122,9,15.5V16H24z"/>
			<path d="M9,17v4.5c0,1.378,1.121,2.5,2.5,2.5h10c1.379,0,2.5-1.122,2.5-2.5V17H9z M13.5,21h-2c-0.276,0-0.5-0.224-0.5-0.5
				s0.224-0.5,0.5-0.5h2c0.276,0,0.5,0.224,0.5,0.5S13.776,21,13.5,21z M15.5,19h-4c-0.276,0-0.5-0.224-0.5-0.5s0.224-0.5,0.5-0.5h4
				c0.276,0,0.5,0.224,0.5,0.5S15.776,19,15.5,19z M21.5,19h-2c-0.276,0-0.5-0.224-0.5-0.5s0.224-0.5,0.5-0.5h2
				c0.276,0,0.5,0.224,0.5,0.5S21.776,19,21.5,19z"/>
		</g>
		<g>
			<path d="M0,5v14h8v-3.5c0-0.404,0.083-0.786,0.209-1.148C8.143,14.379,8.07,14.397,8,14.417v0.502c0,0.276-0.224,0.5-0.5,0.5
				S7,15.194,7,14.918v-0.502c-0.799-0.22-1.391-0.947-1.391-1.815c0-0.276,0.224-0.5,0.5-0.5c0.276,0,0.5,0.224,0.5,0.5
				c0,0.491,0.399,0.891,0.891,0.891s0.891-0.399,0.891-0.891c0-0.491-0.399-0.893-0.891-0.893c-1.043,0-1.891-0.848-1.891-1.891
				c0-0.868,0.592-1.595,1.391-1.815V7.5C7,7.224,7.224,7,7.5,7S8,7.224,8,7.5v0.503c0.799,0.22,1.391,0.947,1.391,1.815
				c0,0.276-0.224,0.5-0.5,0.5c-0.276,0-0.5-0.224-0.5-0.5c0-0.492-0.399-0.891-0.891-0.891S6.609,9.327,6.609,9.818
				c0,0.491,0.399,0.891,0.891,0.891c1.028,0,1.953,0.845,1.877,2.028C9.968,12.282,10.698,12,11.5,12H15V5H0z"/>
			<path d="M8.221,22.685C7.596,23.346,6.5,22.894,6.5,22c0-0.721,0.774-1.277,1.5-0.846V20H0v1.5C0,22.878,1.121,24,2.5,24h6.559
				C8.686,23.635,8.402,23.185,8.221,22.685z"/>
			<path d="M15,4V2.5C15,1.122,13.879,0,12.5,0h-10C1.121,0,0,1.122,0,2.5V4H15z M5.5,2h4C9.776,2,10,2.224,10,2.5S9.776,3,9.5,3h-4
				C5.224,3,5,2.776,5,2.5S5.224,2,5.5,2z"/>
		</g>
	</g>
</g>
<g id="Invisible_Shape">
	<rect fill="none" width="24" height="24"/>
</g>
</svg>
