<?xml version="1.0" encoding="utf-8"?>
<!-- Generator: Adobe Illustrator 19.2.1, SVG Export Plug-In . SVG Version: 6.00 Build 0)  -->
<svg version="1.1" xmlns="http://www.w3.org/2000/svg" xmlns:xlink="http://www.w3.org/1999/xlink" x="0px" y="0px" width="24px"
	 height="24px" viewBox="0 0 24 24" enable-background="new 0 0 24 24" xml:space="preserve">
<g id="Filled_Icon">
	<g>
		<g>
			<path d="M23.854,14.662l-12.5-12.509C11.26,2.059,11.133,2.006,11,2.006H4.127l3.035,3.034c1.59-0.217,2.846,1.018,2.846,2.466
				c0,1.378-1.121,2.5-2.5,2.5c-1.472,0-2.691-1.294-2.465-2.843L2.01,4.13L2.016,11c0,0.132,0.053,0.26,0.147,0.353l12.499,12.5
				C14.759,23.951,14.887,24,15.015,24c0.128,0,0.256-0.049,0.354-0.146l8.485-8.485C24.049,15.174,24.049,14.858,23.854,14.662z
				 M18.354,18.354c-0.195,0.195-0.512,0.195-0.707,0l-0.654-0.654c-0.429,0.287-0.925,0.431-1.422,0.431
				c-0.656,0-1.312-0.25-1.812-0.75c-0.195-0.195-0.195-0.512,0-0.707c0.195-0.195,0.512-0.195,0.707,0
				c0.609,0.609,1.601,0.61,2.21,0c0.609-0.608,0.609-1.601,0-2.21c-0.609-0.608-1.601-0.608-2.21,0.001
				c-1.002,1-2.628,0.998-3.624-0.001c-0.877-0.878-0.982-2.239-0.318-3.234l-0.654-0.654c-0.195-0.195-0.195-0.511,0-0.707
				c0.195-0.195,0.512-0.195,0.707-0.001l0.653,0.653c0.418-0.28,0.909-0.431,1.424-0.431h0.001c0.685,0,1.328,0.267,1.811,0.75
				c0.195,0.195,0.195,0.512,0,0.707c-0.195,0.195-0.512,0.195-0.707,0c-0.602-0.601-1.591-0.619-2.21,0
				c-0.608,0.608-0.608,1.6,0,2.209c0.608,0.608,1.6,0.61,2.21,0c1-0.997,2.624-0.997,3.624-0.001
				c0.878,0.879,0.983,2.241,0.317,3.236l0.654,0.653C18.549,17.842,18.549,18.159,18.354,18.354z"/>
		</g>
		<g>
			<path d="M6.647,7.353l-6.5-6.5c-0.195-0.195-0.195-0.512,0-0.707s0.512-0.195,0.707,0l6.5,6.5c0.195,0.195,0.195,0.512,0,0.707
				C7.158,7.549,6.842,7.549,6.647,7.353z"/>
		</g>
	</g>
</g>
<g id="Invisible_Shape">
	<rect fill="none" width="24" height="24"/>
</g>
</svg>
