<?xml version="1.0" encoding="utf-8"?>
<!-- Generator: Adobe Illustrator 19.2.1, SVG Export Plug-In . SVG Version: 6.00 Build 0)  -->
<svg version="1.1" xmlns="http://www.w3.org/2000/svg" xmlns:xlink="http://www.w3.org/1999/xlink" x="0px" y="0px" width="24px"
	 height="24px" viewBox="0 0 24 24" enable-background="new 0 0 24 24" xml:space="preserve">
<g id="Filled_Icon">
	<path d="M20.146,0.147L18.5,1.793l-1.646-1.646c-0.195-0.195-0.512-0.195-0.707,0L14.5,1.793l-1.646-1.646
		c-0.195-0.195-0.512-0.195-0.707,0L10.5,1.793L8.854,0.147c-0.195-0.195-0.512-0.195-0.707,0L6.5,1.793L4.853,0.147
		C4.535-0.169,4,0.058,4,0.5v23c0,0.445,0.539,0.669,0.853,0.354L6.5,22.206l1.646,1.647c0.195,0.195,0.512,0.195,0.707,0
		l1.646-1.647l1.646,1.647c0.195,0.195,0.512,0.195,0.707,0l1.646-1.647l1.646,1.647c0.195,0.195,0.512,0.195,0.707,0l1.646-1.647
		l1.646,1.647C20.46,24.167,21,23.945,21,23.5v-23C21,0.057,20.463-0.169,20.146,0.147z M10.5,16h-3C7.224,16,7,15.776,7,15.5
		S7.224,15,7.5,15h3c0.275,0,0.5,0.224,0.5,0.5S10.775,16,10.5,16z M12.5,13h-5C7.224,13,7,12.776,7,12.5S7.224,12,7.5,12h5
		c0.275,0,0.5,0.224,0.5,0.5S12.775,13,12.5,13z M7,9.5C7,9.224,7.224,9,7.5,9h4C11.775,9,12,9.224,12,9.5S11.775,10,11.5,10h-4
		C7.224,10,7,9.776,7,9.5z M13.5,7h-6C7.224,7,7,6.776,7,6.5S7.224,6,7.5,6h6C13.775,6,14,6.224,14,6.5S13.775,7,13.5,7z M17.5,16
		h-1c-0.276,0-0.5-0.224-0.5-0.5s0.224-0.5,0.5-0.5h1c0.275,0,0.5,0.224,0.5,0.5S17.775,16,17.5,16z M17.5,13h-1
		c-0.276,0-0.5-0.224-0.5-0.5s0.224-0.5,0.5-0.5h1c0.275,0,0.5,0.224,0.5,0.5S17.775,13,17.5,13z M17.5,10h-1
		C16.224,10,16,9.776,16,9.5S16.224,9,16.5,9h1C17.775,9,18,9.224,18,9.5S17.775,10,17.5,10z M17.5,7h-1C16.224,7,16,6.776,16,6.5
		S16.224,6,16.5,6h1C17.775,6,18,6.224,18,6.5S17.775,7,17.5,7z"/>
</g>
<g id="Invisible_Shape">
	<rect fill="none" width="24" height="24"/>
</g>
</svg>
