<?xml version="1.0" encoding="utf-8"?>
<!-- Generator: Adobe Illustrator 19.2.1, SVG Export Plug-In . SVG Version: 6.00 Build 0)  -->
<svg version="1.1" xmlns="http://www.w3.org/2000/svg" xmlns:xlink="http://www.w3.org/1999/xlink" x="0px" y="0px" width="24px"
	 height="24px" viewBox="0 0 24 24" enable-background="new 0 0 24 24" xml:space="preserve">
<g id="Filled_Icon">
	<path d="M0,23.5C0,23.776,0.224,24,0.5,24h11.975c1.223,0,2.023-0.621,2.272-2h3.728C22.04,22,22.012,8.617,22,5h1.496
		c0.276,0,0.504-0.226,0.5-0.509C23.969,3.088,23.777,1,22.5,1H10.025C8.845,1,8.512,2.303,8.5,3.007
		C8.501,3.094,8.594,11.542,7.586,17H3c-3.185,0-0.433,5.422-2.619,5.958C0.157,23.012,0,23.27,0,23.5z M12,5h2
		c0.275,0,0.5,0.224,0.5,0.5S14.275,6,14,6h-2c-0.276,0-0.5-0.224-0.5-0.5S11.724,5,12,5z M11.5,9H18c0.275,0,0.5,0.224,0.5,0.5
		S18.275,10,18,10h-6.5C11.224,10,11,9.776,11,9.5S11.224,9,11.5,9z M14.843,21c0.017-0.563-0.1-2.502,0.282-2.888
		c0.182-0.181,0.685-0.124,0.817,0.01c0.169,0.172,0.165,0.654,0.159,1.122c-0.006,0.581-0.008,1.222,0.277,1.756H14.843z M18,16h-7
		c-0.276,0-0.5-0.224-0.5-0.5S10.724,15,11,15h7c0.275,0,0.5,0.224,0.5,0.5S18.275,16,18,16z M11,13.5c0-0.276,0.224-0.5,0.5-0.5h6
		c0.275,0,0.5,0.224,0.5,0.5S17.775,14,17.5,14h-6C11.224,14,11,13.776,11,13.5z M18.5,12h-7c-0.276,0-0.5-0.224-0.5-0.5
		s0.224-0.5,0.5-0.5h7c0.275,0,0.5,0.224,0.5,0.5S18.775,12,18.5,12z M18.5,8H13c-0.276,0-0.5-0.224-0.5-0.5S12.724,7,13,7h5.5
		C18.775,7,19,7.224,19,7.5S18.775,8,18.5,8z M21.992,4c-0.007-0.614-0.119-1.986,0.502-1.998c0.197,0.104,0.43,0.963,0.49,1.998
		H21.992z"/>
</g>
<g id="Invisible_Shape">
	<rect fill="none" width="24" height="24"/>
</g>
</svg>
