<?xml version="1.0" encoding="utf-8"?>
<!-- Generator: Adobe Illustrator 19.2.1, SVG Export Plug-In . SVG Version: 6.00 Build 0)  -->
<svg version="1.1" xmlns="http://www.w3.org/2000/svg" xmlns:xlink="http://www.w3.org/1999/xlink" x="0px" y="0px" width="24px"
	 height="24px" viewBox="0 0 24 24" enable-background="new 0 0 24 24" xml:space="preserve">
<g id="Filled_Icon">
	<path d="M1,23.5C1,23.776,1.224,24,1.5,24h11.976c1.21,0,2.021-0.61,2.271-2h3.728c3.752,0,3.599-16.794,3.499-21.51
		C22.969,0.218,22.747,0,22.476,0H9.999c-0.279,0-0.502,0.229-0.5,0.503C9.526,5.067,9.356,12.743,8.587,17H4
		c-3.109,0-0.495,5.414-2.623,5.956C1.155,23.013,1,23.272,1,23.5z M13,3h2c0.276,0,0.5,0.224,0.5,0.5S15.276,4,15,4h-2
		c-0.276,0-0.5-0.224-0.5-0.5S12.724,3,13,3z M12.5,7H19c0.276,0,0.5,0.224,0.5,0.5S19.276,8,19,8h-6.5C12.224,8,12,7.776,12,7.5
		S12.224,7,12.5,7z M12,13h7c0.276,0,0.5,0.224,0.5,0.5S19.276,14,19,14h-7c-0.276,0-0.5-0.224-0.5-0.5S11.724,13,12,13z M12,11.5
		c0-0.276,0.224-0.5,0.5-0.5h6c0.276,0,0.5,0.224,0.5,0.5S18.776,12,18.5,12h-6C12.224,12,12,11.776,12,11.5z M15.844,21
		c0.017-0.565-0.101-2.502,0.282-2.888c0.177-0.181,0.682-0.126,0.816,0.01c0.17,0.172,0.165,0.654,0.16,1.122
		c-0.006,0.581-0.008,1.222,0.277,1.756H15.844z M19.5,16h-8c-0.276,0-0.5-0.224-0.5-0.5s0.224-0.5,0.5-0.5h8
		c0.276,0,0.5,0.224,0.5,0.5S19.776,16,19.5,16z M19.5,10h-7C12.224,10,12,9.776,12,9.5S12.224,9,12.5,9h7C19.776,9,20,9.224,20,9.5
		S19.776,10,19.5,10z M19.5,6H14c-0.276,0-0.5-0.224-0.5-0.5S13.724,5,14,5h5.5C19.776,5,20,5.224,20,5.5S19.776,6,19.5,6z"/>
</g>
<g id="Invisible_Shape">
	<rect fill="none" width="24" height="24"/>
</g>
</svg>
