<?xml version="1.0" encoding="utf-8"?>
<!-- Generator: Adobe Illustrator 19.2.1, SVG Export Plug-In . SVG Version: 6.00 Build 0)  -->
<svg version="1.1" xmlns="http://www.w3.org/2000/svg" xmlns:xlink="http://www.w3.org/1999/xlink" x="0px" y="0px" width="24px"
	 height="24px" viewBox="0 0 24 24" enable-background="new 0 0 24 24" xml:space="preserve">
<g id="Filled_Icon">
	<path d="M23.5,1h-3c-0.232,0-0.434,0.16-0.487,0.386l-1.21,5.142L15.35,3.144c-0.195-0.192-0.51-0.191-0.703,0.004L13.793,4H9.5
		C9.224,4,9,4.224,9,4.5V7H6.323L3.456,0.606C3.339,0.348,3.035,0.24,2.785,0.359l-2.5,1.189c-0.246,0.117-0.354,0.41-0.24,0.659
		L2.223,7H1C0.656,7,0.418,7.335,0.525,7.659l3,9C3.594,16.862,3.784,17,4,17h12.339l-0.235,1H5.5c-1.103,0-2,0.898-2,2
		c0,1.104,0.897,2,2,2c1.498,0,2.521-1.625,1.722-3h7.556c-0.791,1.362,0.211,3,1.723,3c1.103,0,2-0.896,2-2
		c0-0.89-0.588-1.637-1.394-1.896L20.896,2H23.5C23.775,2,24,1.776,24,1.5S23.775,1,23.5,1z M3.321,7L1.158,2.241l1.595-0.759
		L5.227,7H3.321z M10,7V5h2.793l-2,2H10z M12.207,7l2.796-2.796L17.857,7H12.207z"/>
</g>
<g id="Invisible_Shape">
	<rect fill="none" width="24" height="24"/>
</g>
</svg>
