<?xml version="1.0" encoding="utf-8"?>
<!-- Generator: Adobe Illustrator 19.2.1, SVG Export Plug-In . SVG Version: 6.00 Build 0)  -->
<svg version="1.1" xmlns="http://www.w3.org/2000/svg" xmlns:xlink="http://www.w3.org/1999/xlink" x="0px" y="0px" width="24px"
	 height="24px" viewBox="0 0 24 24" enable-background="new 0 0 24 24" xml:space="preserve">
<g id="Filled_Icon">
	<g>
		<path d="M13.5,9H12v6.5c0,0.829-0.672,1.5-1.5,1.5S9,16.329,9,15.5V9H5v6.5C5,16.329,4.328,17,3.5,17S2,16.329,2,15.5V9H0.5
			C0.224,9,0,9.224,0,9.5v14C0,23.776,0.224,24,0.5,24h13c0.276,0,0.5-0.224,0.5-0.5v-14C14,9.224,13.776,9,13.5,9z"/>
		<g>
			<path d="M10.5,16c-0.276,0-0.5-0.224-0.5-0.5V6c0-1.654-1.346-3-3-3S4,4.346,4,6v9.5C4,15.776,3.776,16,3.5,16S3,15.776,3,15.5V6
				c0-2.206,1.794-4,4-4s4,1.794,4,4v9.5C11,15.776,10.776,16,10.5,16z"/>
		</g>
		<g>
			<rect x="15" y="20" width="4" height="4"/>
			<rect x="15" y="15" width="4" height="4"/>
			<path d="M20,19h4v-3.5c0-0.276-0.224-0.5-0.5-0.5H20V19z"/>
			<path d="M20,20v4h3.5c0.276,0,0.5-0.224,0.5-0.5V20H20z"/>
		</g>
		<path d="M23.5,7H23v2.5c0,0.829-0.672,1.5-1.5,1.5S20,10.329,20,9.5V7h-1v2.5c0,0.829-0.672,1.5-1.5,1.5S16,10.329,16,9.5V7h-0.5
			C15.224,7,15,7.224,15,7.5v6c0,0.276,0.224,0.5,0.5,0.5h8c0.276,0,0.5-0.224,0.5-0.5v-6C24,7.224,23.776,7,23.5,7z"/>
		<g>
			<path d="M21.5,10C21.224,10,21,9.776,21,9.5v-4C21,4.673,20.327,4,19.5,4S18,4.673,18,5.5v4c0,0.276-0.224,0.5-0.5,0.5
				S17,9.776,17,9.5v-4C17,4.122,18.121,3,19.5,3S22,4.122,22,5.5v4C22,9.776,21.776,10,21.5,10z"/>
		</g>
	</g>
</g>
<g id="Invisible_Shape">
	<rect fill="none" width="24" height="24"/>
</g>
</svg>
