<?xml version="1.0" encoding="utf-8"?>
<!-- Generator: Adobe Illustrator 19.2.1, SVG Export Plug-In . SVG Version: 6.00 Build 0)  -->
<svg version="1.1" xmlns="http://www.w3.org/2000/svg" xmlns:xlink="http://www.w3.org/1999/xlink" x="0px" y="0px" width="24px"
	 height="24px" viewBox="0 0 24 24" enable-background="new 0 0 24 24" xml:space="preserve">
<g id="Filled_Icon">
	<g>
		<path d="M12.963,18c-0.413-0.341-0.685-0.504-0.864-1H8.396L8.16,16h3.928c0.002-0.005,0.001-0.009,0.003-0.014
			C12.309,15.387,12.862,15,13.5,15h2.511l1.11-2.593c0.524-1.214,2.237-1.203,2.757-0.004L20.989,15h0.204l2.78-8.341
			C24.081,6.335,23.843,6,23.499,6H5.808L4.486,0.386C4.433,0.16,4.231,0,3.999,0h-3.5c-0.275,0-0.5,0.224-0.5,0.5S0.224,1,0.499,1
			h3.104l3.789,16.104C6.587,17.363,5.999,18.11,5.999,19c0,1.104,0.898,2,2,2c1.512,0,2.514-1.638,1.723-3H12.963z"/>
		<path d="M23.5,16h-3.171l-1.369-3.2c-0.175-0.404-0.745-0.404-0.92,0L16.671,16H13.5c-0.47,0-0.676,0.584-0.32,0.882l2.744,2.27
			l-1.375,3.669c-0.171,0.456,0.351,0.87,0.758,0.583l3.193-2.288l3.193,2.288c0.407,0.287,0.929-0.127,0.758-0.583l-1.375-3.669
			l2.744-2.27C24.176,16.584,23.97,16,23.5,16z"/>
	</g>
</g>
<g id="Invisible_Shape">
	<rect fill="none" width="24" height="24"/>
</g>
</svg>
