<?xml version="1.0" encoding="utf-8"?>
<!-- Generator: Adobe Illustrator 19.2.1, SVG Export Plug-In . SVG Version: 6.00 Build 0)  -->
<svg version="1.1" xmlns="http://www.w3.org/2000/svg" xmlns:xlink="http://www.w3.org/1999/xlink" x="0px" y="0px" width="24px"
	 height="24px" viewBox="0 0 24 24" enable-background="new 0 0 24 24" xml:space="preserve">
<g id="Filled_Icon">
	<g>
		<path d="M18.5,13c-3.033,0-5.5,2.469-5.5,5.5c0,3.033,2.467,5.5,5.5,5.5s5.5-2.467,5.5-5.5C24,15.469,21.533,13,18.5,13z
			 M18.5,17.94c0.915,0,1.659,0.745,1.659,1.661c0,0.739-0.489,1.358-1.159,1.571v0.359c0,0.277-0.224,0.5-0.5,0.5
			s-0.5-0.223-0.5-0.5v-0.359c-0.67-0.213-1.159-0.832-1.159-1.571c0-0.277,0.224-0.5,0.5-0.5c0.276,0,0.5,0.223,0.5,0.5
			c0,0.363,0.296,0.657,0.659,0.657s0.659-0.294,0.659-0.657c0-0.364-0.296-0.661-0.659-0.661c-0.915,0-1.659-0.744-1.659-1.657
			c0-0.741,0.489-1.361,1.159-1.576v-0.357c0-0.275,0.224-0.5,0.5-0.5s0.5,0.225,0.5,0.5v0.357c0.67,0.215,1.159,0.834,1.159,1.576
			c0,0.275-0.224,0.5-0.5,0.5c-0.276,0-0.5-0.225-0.5-0.5c0-0.364-0.296-0.661-0.659-0.661s-0.659,0.296-0.659,0.661
			C17.841,17.645,18.137,17.94,18.5,17.94z"/>
		<path d="M12.025,18c0.026-0.341,0.079-0.675,0.156-1H8.396l-0.235-1h4.341c1.53-3.66,5.96-5.131,9.374-3.044l2.099-6.297
			C24.082,6.335,23.844,6,23.5,6H5.809L4.487,0.386C4.434,0.16,4.232,0,4,0H0.5C0.225,0,0,0.224,0,0.5S0.225,1,0.5,1h3.105
			l3.789,16.104C6.588,17.363,6,18.11,6,19c0,1.104,0.898,2,2,2c1.506,0,2.517-1.633,1.723-3H12.025z"/>
	</g>
</g>
<g id="Invisible_Shape">
	<rect fill="none" width="24" height="24"/>
</g>
</svg>
