<?xml version="1.0" encoding="utf-8"?>
<!-- Generator: Adobe Illustrator 19.2.1, SVG Export Plug-In . SVG Version: 6.00 Build 0)  -->
<svg version="1.1" xmlns="http://www.w3.org/2000/svg" xmlns:xlink="http://www.w3.org/1999/xlink" x="0px" y="0px" width="24px"
	 height="24px" viewBox="0 0 24 24" enable-background="new 0 0 24 24" xml:space="preserve">
<g id="Filled_Icon">
	<path d="M23.512,7.016L17,7V6.016c0-2.757-2.231-5-4.988-5c-2.757,0-5,2.243-5,5v1h-6.5c-0.276,0-0.5,0.224-0.5,0.5v16
		c0,0.276,0.224,0.5,0.5,0.484h23c0.276,0.016,0.5-0.208,0.488-0.484v-16C24.012,7.24,23.788,7.016,23.512,7.016z M8.012,6.016
		c0-2.206,1.794-4,4-4c2.206,0,4,1.794,4,4v1h-8V6.016z M17.279,16.064l-8.5,5.375C8.457,21.644,8.026,21.427,8,21.016v-11
		c0.026-0.414,0.464-0.63,0.788-0.417l8.5,5.625C17.592,15.428,17.582,15.871,17.279,16.064z"/>
</g>
<g id="Invisible_Shape">
	<rect fill="none" width="24" height="24"/>
</g>
</svg>
