<?xml version="1.0" encoding="utf-8"?>
<!-- Generator: Adobe Illustrator 19.2.1, SVG Export Plug-In . SVG Version: 6.00 Build 0)  -->
<svg version="1.1" xmlns="http://www.w3.org/2000/svg" xmlns:xlink="http://www.w3.org/1999/xlink" x="0px" y="0px" width="24px"
	 height="24px" viewBox="0 0 24 24" enable-background="new 0 0 24 24" xml:space="preserve">
<g id="Filled_Icon">
	<g>
		<path d="M5.998,8L6,6.016H2.757c-0.122,0-0.24,0.044-0.332,0.127L0.335,8H5.998z"/>
		<polygon points="14.998,8 15,6.016 9.002,6.016 9,8 		"/>
		<g>
			<path d="M8,8V6.016c0.007-2.206,1.801-4,4.007-4c2.206,0,4,1.794,4,4V8H17V6.016c0.007-2.757-2.236-5-4.993-5
				c-2.757,0-5,2.243-5,5V8H8z"/>
		</g>
		<path d="M23.688,8l-1.964-1.848c-0.093-0.087-0.216-0.136-0.343-0.136h-3.375L18.005,8H23.688z"/>
		<path d="M0.007,9v14.516c0,0.276,0.224,0.5,0.5,0.484h23c0.276,0.016,0.5-0.208,0.493-0.484V9H0.007z M12.299,21.472
			c-0.172,0.126-0.412,0.126-0.584,0c-0.533-0.384-5.208-3.831-5.208-6.672c0-2.023,1.513-3.233,2.976-3.233
			c0.86,0,1.871,0.431,2.524,1.561c0.652-1.13,1.663-1.561,2.524-1.561c1.463,0,2.976,1.21,2.976,3.233
			C17.507,17.641,12.832,21.088,12.299,21.472z"/>
	</g>
</g>
<g id="Invisible_Shape">
	<rect fill="none" width="24" height="24"/>
</g>
</svg>
