<?xml version="1.0" encoding="utf-8"?>
<!-- Generator: Adobe Illustrator 19.2.1, SVG Export Plug-In . SVG Version: 6.00 Build 0)  -->
<svg version="1.1" xmlns="http://www.w3.org/2000/svg" xmlns:xlink="http://www.w3.org/1999/xlink" x="0px" y="0px" width="24px"
	 height="24px" viewBox="0 0 24 24" enable-background="new 0 0 24 24" xml:space="preserve">
<g id="Filled_Icon">
	<path d="M19,4V2.5C19,1.122,17.878,0,16.5,0h-3C12.121,0,11,1.122,11,2.5V4H8V2.5C8,1.673,8.672,1,9.5,1h1
		C10.775,1,11,0.776,11,0.5S10.775,0,10.5,0h-1C8.121,0,7,1.122,7,2.5V4H0.5C0.224,4,0,4.224,0,4.5v19C0,23.776,0.224,24,0.5,24h23
		c0.276,0,0.5-0.224,0.5-0.5v-19C24,4.224,23.776,4,23.5,4H19z M7,23H1V5h2v14.793l-1.354,1.354c-0.195,0.195-0.195,0.512,0,0.707
		c0.195,0.195,0.512,0.195,0.707,0L3.5,20.706l1.147,1.147c0.198,0.198,0.514,0.193,0.707,0c0.195-0.195,0.195-0.512,0-0.707
		L4,19.793V5h3V23z M18,4h-6V2.5C12,1.673,12.672,1,13.5,1h3C17.326,1,18,1.673,18,2.5V4z"/>
</g>
<g id="Invisible_Shape">
	<rect fill="none" width="24" height="24"/>
</g>
</svg>
