<?xml version="1.0" encoding="utf-8"?>
<!-- Generator: Adobe Illustrator 19.2.1, SVG Export Plug-In . SVG Version: 6.00 Build 0)  -->
<svg version="1.1" xmlns="http://www.w3.org/2000/svg" xmlns:xlink="http://www.w3.org/1999/xlink" x="0px" y="0px" width="24px"
	 height="24px" viewBox="0 0 24 24" enable-background="new 0 0 24 24" xml:space="preserve">
<g id="Filled_Icon">
	<g>
		<path d="M5.5,7C5.776,7,6,6.776,6,6.5V5c0-2.205,1.795-4,4-4s4,1.795,4,4v1.5C14,6.776,14.224,7,14.5,7S15,6.776,15,6.5V5
			c0-2.757-2.243-5-5-5S5,2.243,5,5v1.5C5,6.776,5.224,7,5.5,7z"/>
		<path d="M22.511,2.611L20.39,0.489c-0.195-0.195-0.512-0.195-0.707,0l-3.536,3.537C16.053,4.119,16,4.246,16,4.379V6.5
			C16,6.776,16.224,7,16.5,7h2.122c0.133,0,0.26-0.053,0.353-0.147l3.535-3.535C22.706,3.123,22.706,2.807,22.511,2.611z"/>
		<path d="M19.5,8h-19C0.224,8,0,8.224,0,8.5v15C0,23.776,0.224,24,0.5,24h19c0.276,0,0.5-0.224,0.5-0.5v-15
			C20,8.224,19.776,8,19.5,8z"/>
	</g>
</g>
<g id="Invisible_Shape">
	<rect fill="none" width="24" height="24"/>
</g>
</svg>
