<?xml version="1.0" encoding="utf-8"?>
<!-- Generator: Adobe Illustrator 19.2.1, SVG Export Plug-In . SVG Version: 6.00 Build 0)  -->
<svg version="1.1" xmlns="http://www.w3.org/2000/svg" xmlns:xlink="http://www.w3.org/1999/xlink" x="0px" y="0px" width="24px"
	 height="24px" viewBox="0 0 24 24" enable-background="new 0 0 24 24" xml:space="preserve">
<g id="Filled_Icon">
	<g>
		<g>
			<path d="M21.293,16.414l-4.879,4.879C16.998,21.73,17.716,22,18.5,22c1.93,0,3.5-1.57,3.5-3.5
				C22,17.715,21.731,16.998,21.293,16.414z"/>
			<path d="M18.5,13c-3.037,0-5.5,2.463-5.5,5.5s2.463,5.5,5.5,5.5s5.5-2.463,5.5-5.5S21.537,13,18.5,13z M18.5,23
				c-2.481,0-4.5-2.018-4.5-4.5c0-2.481,2.019-4.5,4.5-4.5s4.5,2.019,4.5,4.5C23,20.982,20.981,23,18.5,23z"/>
			<path d="M18.5,15c-1.93,0-3.5,1.57-3.5,3.5c0,0.785,0.269,1.502,0.707,2.086l4.879-4.879C20.002,15.269,19.284,15,18.5,15z"/>
		</g>
		<path d="M12.025,18c0.026-0.341,0.079-0.675,0.156-1H8.396l-0.235-1h4.341c1.53-3.66,5.96-5.131,9.374-3.044l2.099-6.297
			C24.082,6.335,23.844,6,23.5,6H5.809L4.487,0.386C4.434,0.16,4.232,0,4,0H0.5C0.225,0,0,0.224,0,0.5S0.225,1,0.5,1h3.105
			l3.789,16.104C6.588,17.363,6,18.11,6,19c0,1.104,0.898,2,2,2c1.506,0,2.517-1.633,1.723-3H12.025z"/>
	</g>
</g>
<g id="Invisible_Shape">
	<rect fill="none" width="24" height="24"/>
</g>
</svg>
