<?xml version="1.0" encoding="utf-8"?>
<!-- Generator: Adobe Illustrator 19.2.1, SVG Export Plug-In . SVG Version: 6.00 Build 0)  -->
<svg version="1.1" xmlns="http://www.w3.org/2000/svg" xmlns:xlink="http://www.w3.org/1999/xlink" x="0px" y="0px" width="24px"
	 height="24px" viewBox="0 0 24 24" enable-background="new 0 0 24 24" xml:space="preserve">
<g id="Filled_Icon">
	<g>
		<path d="M23.5,2h-2.566c-0.496,0-0.921,0.369-0.99,0.858L19.494,6H1.5C0.672,6,0,6.673,0,7.5S0.672,9,1.5,9H16
			c0.275,0,0.5,0.225,0.5,0.5c0,0.276-0.225,0.5-0.5,0.5H2.5C1.672,10,1,10.673,1,11.5S1.672,13,2.5,13h13
			c0.275,0,0.5,0.225,0.5,0.5c0,0.276-0.225,0.5-0.5,0.5h-12C2.672,14,2,14.673,2,15.5C2,16.327,2.672,17,3.5,17h14.566
			c0.494,0,0.92-0.369,0.989-0.858C20.692,4.679,20.31,7.356,20.934,3H23.5C23.775,3,24,2.776,24,2.5S23.775,2,23.5,2z"/>
		<circle cx="6" cy="20" r="2"/>
		<circle cx="17" cy="20" r="2"/>
	</g>
</g>
<g id="Invisible_Shape">
	<rect fill="none" width="24" height="24"/>
</g>
</svg>
