<?xml version="1.0" encoding="utf-8"?>
<!-- Generator: Adobe Illustrator 19.2.1, SVG Export Plug-In . SVG Version: 6.00 Build 0)  -->
<svg version="1.1" xmlns="http://www.w3.org/2000/svg" xmlns:xlink="http://www.w3.org/1999/xlink" x="0px" y="0px" width="24px"
	 height="24px" viewBox="0 0 24 24" enable-background="new 0 0 24 24" xml:space="preserve">
<g id="Filled_Icon">
	<g>
		<path d="M13.102,17H8.396L8.16,16h5.264c1.382-3.148,5.437-4.023,7.982-1.639l2.567-7.702C24.081,6.335,23.843,6,23.499,6H5.808
			L4.486,0.386C4.433,0.16,4.231,0,3.999,0h-3.5c-0.275,0-0.5,0.224-0.5,0.5S0.224,1,0.499,1h3.104l3.789,16.104
			C6.587,17.363,5.999,18.11,5.999,19c0,1.104,0.898,2,2,2c1.512,0,2.514-1.638,1.723-3H13C13,17.658,13.035,17.323,13.102,17z"/>
		<path d="M23.854,23.146l-2.707-2.706C21.673,19.763,22,18.923,22,18c0-2.205-1.794-4-4-4s-4,1.795-4,4c0,2.206,1.794,4,4,4
			c0.923,0,1.762-0.326,2.44-0.852l2.707,2.705c0.195,0.195,0.512,0.195,0.707,0C24.049,23.659,24.049,23.342,23.854,23.146z M15,18
			c0-1.654,1.346-3,3-3s3,1.346,3,3s-1.346,3-3,3S15,19.654,15,18z"/>
	</g>
</g>
<g id="Invisible_Shape">
	<rect fill="none" width="24" height="24"/>
</g>
</svg>
