<?xml version="1.0" encoding="utf-8"?>
<!-- Generator: Adobe Illustrator 19.2.1, SVG Export Plug-In . SVG Version: 6.00 Build 0)  -->
<svg version="1.1" xmlns="http://www.w3.org/2000/svg" xmlns:xlink="http://www.w3.org/1999/xlink" x="0px" y="0px" width="24px"
	 height="24px" viewBox="0 0 24 24" enable-background="new 0 0 24 24" xml:space="preserve">
<g id="Filled_Icon">
	<path d="M21.207,9l-8.854-8.854c-0.195-0.194-0.512-0.194-0.707,0L2.793,9C0.918,9,0,10.229,0,11.5v10C0,22.878,1.121,24,2.5,24h19
		c1.378,0,2.5-1.122,2.5-2.5v-10C24,10.227,23.084,9,21.207,9z M12,1.207L19.793,9H4.207L12,1.207z M21,19.5
		c0,0.827-0.674,1.5-1.5,1.5h-15C3.673,21,3,20.327,3,19.5v-6C3,12.672,3.673,12,4.5,12h15c0.826,0,1.5,0.672,1.5,1.5V19.5z"/>
</g>
<g id="Invisible_Shape">
	<rect fill="none" width="24" height="24"/>
</g>
</svg>
