<?xml version="1.0" encoding="utf-8"?>
<!-- Generator: Adobe Illustrator 19.2.1, SVG Export Plug-In . SVG Version: 6.00 Build 0)  -->
<svg version="1.1" xmlns="http://www.w3.org/2000/svg" xmlns:xlink="http://www.w3.org/1999/xlink" x="0px" y="0px" width="24px"
	 height="24px" viewBox="0 0 24 24" enable-background="new 0 0 24 24" xml:space="preserve">
<g id="Filled_Icon">
	<g>
		<path d="M5.109,6l0.998-4H2.5C2.31,2,2.138,2.106,2.053,2.276L0.19,6H5.109z"/>
		<polygon points="11,6 10.997,2 7.139,2 6.14,6 		"/>
		<polygon points="16.857,2 12,2 12.003,6 17.859,6 		"/>
		<path d="M18.891,6h4.919l-1.862-3.724C21.862,2.106,21.69,2,21.5,2h-3.611L18.891,6z"/>
		<path d="M17.999,7h-5.996l-0.004,4.217c1,0.676,3.777,1.51,5.996-0.394L17.999,7z"/>
		<path d="M4.999,7H0v0.5c0,2.623,2.871,4.367,4.996,3.047L4.999,7z"/>
		<path d="M18.999,7l-0.004,3.546C21.102,11.867,24,10.143,24,7.5V7H18.999z"/>
		<path d="M11,7H6l-0.004,3.816c1.497,1.29,3.198,1.62,5.004,0.408V7z"/>
		<g>
			<path d="M18.711,11.54c-2.406,2.131-5.678,1.564-7.208,0.566c-2.239,1.461-4.49,0.96-6.214-0.566
				C4.312,12.067,3.22,12.159,2,11.723V22.5C2,22.776,2.224,23,2.5,23h19c0.276,0,0.5-0.224,0.5-0.5V11.723
				C20.864,12.129,19.76,12.106,18.711,11.54z M4.521,19c0.167,0,0.374,0,0.491-0.541c0.058-0.27,0.329-0.441,0.594-0.383
				c0.269,0.058,0.441,0.324,0.383,0.594C5.752,19.769,5.06,20,4.521,20C3,20,3,18.312,3,17.5S3,15,4.521,15
				c0.539,0,1.231,0.231,1.469,1.33c0.058,0.27-0.114,0.537-0.384,0.594c-0.274,0.061-0.537-0.114-0.595-0.384
				C4.894,16,4.688,16,4.521,16C4.289,16,4,16,4,17.5S4.289,19,4.521,19z M9.007,20H7.5C7.224,20,7,19.776,7,19.5v-4
				C7,15.224,7.224,15,7.5,15S8,15.224,8,15.5V19h1.007c0.276,0,0.5,0.224,0.5,0.5S9.283,20,9.007,20z M11.5,20
				C10,20,10,18.435,10,17.5c0-0.935,0-2.5,1.5-2.5s1.5,1.565,1.5,2.5C13,18.435,13,20,11.5,20z M15.499,19.999
				c-0.758,0-1.388-0.618-1.434-1.408c-0.016-0.275,0.194-0.512,0.47-0.528c0.316-0.016,0.513,0.195,0.528,0.47
				c0.016,0.261,0.206,0.466,0.435,0.466c0.24,0,0.437-0.224,0.437-0.5c0-0.274-0.136-0.406-0.519-0.503
				c-1.134-0.301-1.352-0.978-1.352-1.497c0-0.826,0.644-1.499,1.436-1.499c0.759,0,1.389,0.618,1.435,1.406
				c0.016,0.275-0.194,0.512-0.47,0.528c-0.296,0.023-0.512-0.195-0.528-0.47C15.921,16.204,15.729,16,15.5,16
				c-0.24,0-0.436,0.224-0.436,0.499c0,0.271,0.135,0.404,0.517,0.505c1.189,0.303,1.354,1.065,1.354,1.495
				C16.935,19.326,16.291,19.999,15.499,19.999z M19.5,16.783c0.276,0,0.5,0.224,0.5,0.5c0,0.277-0.224,0.5-0.5,0.5H19V19h1.007
				c0.276,0,0.5,0.224,0.5,0.5s-0.224,0.5-0.5,0.5H18.5c-0.276,0-0.5-0.224-0.5-0.5v-4c0-0.276,0.224-0.5,0.5-0.5h1.507
				c0.276,0,0.5,0.224,0.5,0.5s-0.224,0.5-0.5,0.5H19v0.783H19.5z"/>
			<path d="M11.5,16c-0.31,0-0.5,0.073-0.5,1.5c0,1.428,0.19,1.5,0.5,1.5s0.5-0.072,0.5-1.5C12,16.073,11.81,16,11.5,16z"/>
		</g>
	</g>
</g>
<g id="Invisible_Shape">
	<rect fill="none" width="24" height="24"/>
</g>
</svg>
