<?xml version="1.0" encoding="utf-8"?>
<!-- Generator: Adobe Illustrator 19.2.1, SVG Export Plug-In . SVG Version: 6.00 Build 0)  -->
<svg version="1.1" xmlns="http://www.w3.org/2000/svg" xmlns:xlink="http://www.w3.org/1999/xlink" x="0px" y="0px" width="24px"
	 height="24px" viewBox="0 0 24 24" enable-background="new 0 0 24 24" xml:space="preserve">
<g id="Filled_Icon">
	<g>
		<path d="M5.109,6l0.998-4H2.5C2.31,2,2.138,2.106,2.053,2.276L0.19,6H5.109z"/>
		<polygon points="11,6 10.997,2 7.139,2 6.14,6 		"/>
		<polygon points="16.857,2 12,2 12.003,6 17.859,6 		"/>
		<path d="M18.891,6h4.919l-1.862-3.724C21.862,2.106,21.69,2,21.5,2h-3.611L18.891,6z"/>
		<path d="M17.999,7h-5.996L12,11.217c1,0.676,3.776,1.51,5.995-0.394L17.999,7z"/>
		<path d="M4.999,7H0v0.5c0,2.623,2.871,4.367,4.996,3.047L4.999,7z"/>
		<path d="M19,7v3.546c2.106,1.32,5-0.404,5-3.046V7H19z"/>
		<path d="M11,7H6v3.816c1.497,1.29,3.194,1.62,5,0.408V7z"/>
		<g>
			<circle cx="17.5" cy="18.5" r="0.5"/>
			<path d="M18.711,11.54c-2.406,2.131-5.678,1.564-7.208,0.566c-2.239,1.461-4.49,0.96-6.214-0.566
				C4.312,12.067,3.22,12.159,2,11.723V22.5C2,22.776,2.224,23,2.5,23h19c0.276,0,0.5-0.224,0.5-0.5V11.723
				C20.864,12.129,19.76,12.106,18.711,11.54z M12,18.5c0,0.276-0.224,0.5-0.5,0.5h-6C5.224,19,5,18.776,5,18.5v-4
				C5,14.224,5.224,14,5.5,14h6c0.276,0,0.5,0.224,0.5,0.5V18.5z M19,21.5c0,0.276-0.224,0.5-0.5,0.5h-3c-0.276,0-0.5-0.224-0.5-0.5
				v-7c0-0.276,0.224-0.5,0.5-0.5h3c0.276,0,0.5,0.224,0.5,0.5V21.5z"/>
		</g>
	</g>
</g>
<g id="Invisible_Shape">
	<rect fill="none" width="24" height="24"/>
</g>
</svg>
