<?xml version="1.0" encoding="utf-8"?>
<!-- Generator: Adobe Illustrator 19.2.1, SVG Export Plug-In . SVG Version: 6.00 Build 0)  -->
<svg version="1.1" xmlns="http://www.w3.org/2000/svg" xmlns:xlink="http://www.w3.org/1999/xlink" x="0px" y="0px" width="24px"
	 height="24px" viewBox="0 0 24 24" enable-background="new 0 0 24 24" xml:space="preserve">
<g id="Filled_Icon">
	<g>
		<path d="M5.114,6l0.998-4H2.505c-0.19,0-0.362,0.107-0.447,0.276L0.195,6H5.114z"/>
		<polygon points="11,6 11,2 7.144,2 6.144,6 		"/>
		<polygon points="16.862,2 12,2 12,6 17.864,6 		"/>
		<path d="M18.896,6h4.919l-1.862-3.724C21.867,2.107,21.694,2,21.505,2h-3.611L18.896,6z"/>
		<path d="M18,7h-5.996L12,11.218c1,0.676,3.782,1.51,6-0.394V7z"/>
		<path d="M5,7H0.005v0.5c0,2.638,2.882,4.358,4.995,3.048V7z"/>
		<path d="M19,7v3.547c2.089,1.309,5.005-0.386,5.005-3.047V7H19z"/>
		<path d="M11,7H6v3.816c1.5,1.292,3.197,1.618,5,0.409V7z"/>
		<g>
			<path d="M5.5,15C5.19,15,5,15.073,5,16.5C5,17.928,5.19,18,5.5,18c0.337,0,0.495-0.148,0.495-1.5S5.837,15,5.5,15z"/>
			<path d="M9.565,15H9v1h0.565C10,16,10,16,10,15.5C10,15.066,9.943,15,9.565,15z"/>
			<path d="M18.716,11.54c-2.641,2.338-6.051,1.322-7.212,0.566c-2.249,1.469-4.5,0.949-6.21-0.566
				c-1.049,0.57-2.16,0.586-3.289,0.183V22.5c0,0.276,0.224,0.5,0.5,0.5h19c0.276,0,0.5-0.224,0.495-0.5V11.724
				C20.784,12.161,19.687,12.064,18.716,11.54z M5.5,19C4,19,4,17.435,4,16.5C4,15.565,4,14,5.5,14c1.495,0,1.495,1.565,1.495,2.5
				C6.995,17.435,6.995,19,5.5,19z M9.565,17H9v1.5C9,18.776,8.776,19,8.5,19S8,18.776,8,18.5v-4C8,14.224,8.224,14,8.5,14h1.065
				C10.22,14,11,14.261,11,15.5C11,16.024,11,17,9.565,17z M14.303,16c0.276,0,0.5,0.224,0.5,0.5s-0.224,0.5-0.5,0.5H13v1h1.5
				c0.276,0,0.5,0.224,0.5,0.5S14.776,19,14.5,19h-2c-0.276,0-0.5-0.224-0.5-0.5v-4c0-0.276,0.224-0.5,0.5-0.5h2
				c0.276,0,0.5,0.224,0.5,0.5S14.776,15,14.5,15H13v1H14.303z M18.058,18.724L17,16.613V18.5c0,0.276-0.224,0.5-0.5,0.5
				S16,18.776,16,18.5v-4c0-0.52,0.708-0.698,0.947-0.224l1.055,2.105L18,14.5c0-0.275,0.224-0.5,0.499-0.5c0.001,0,0.001,0,0.001,0
				c0.276,0,0.5,0.224,0.5,0.5l0.005,4C19.005,19.025,18.295,19.193,18.058,18.724z"/>
		</g>
	</g>
</g>
<g id="Invisible_Shape">
	<rect fill="none" width="24" height="24"/>
</g>
</svg>
