<?xml version="1.0" encoding="utf-8"?>
<!-- Generator: Adobe Illustrator 19.2.1, SVG Export Plug-In . SVG Version: 6.00 Build 0)  -->
<svg version="1.1" xmlns="http://www.w3.org/2000/svg" xmlns:xlink="http://www.w3.org/1999/xlink" x="0px" y="0px" width="24px"
	 height="24px" viewBox="0 0 24 24" enable-background="new 0 0 24 24" xml:space="preserve">
<g id="Filled_Icons_1_">
	<g id="Filled_Icons">
		<path d="M23.5,8H21V5.5C21,5.224,20.776,5,20.5,5h-20C0.224,5,0,5.224,0,5.5v11C0,16.776,0.224,17,0.5,17H11v4.5
			c0,0.827,0.673,1.5,1.5,1.5s1.5-0.673,1.5-1.5V17h6.5c0.276,0,0.5-0.224,0.5-0.5V14h2.5c0.276,0,0.5-0.224,0.5-0.5v-5
			C24,8.224,23.776,8,23.5,8z M16,12.5c0,1.379-1.122,2.5-2.5,2.5H13v6.5c0,0.276-0.224,0.5-0.5,0.5S12,21.776,12,21.5V15h-0.5
			C10.122,15,9,13.879,9,12.5v-4C9,8.224,9.224,8,9.5,8H11V6.542c0-0.276,0.224-0.5,0.5-0.5s0.5,0.224,0.5,0.5V8h1V6.542
			c0-0.276,0.224-0.5,0.5-0.5s0.5,0.224,0.5,0.5V8h1.5C15.776,8,16,8.224,16,8.5V12.5z"/>
	</g>
	<g id="New_icons">
	</g>
</g>
<g id="Invisible_Shape">
	<rect fill="none" width="24" height="24"/>
</g>
</svg>
