<?xml version="1.0" encoding="utf-8"?>
<!-- Generator: Adobe Illustrator 19.2.1, SVG Export Plug-In . SVG Version: 6.00 Build 0)  -->
<svg version="1.1" xmlns="http://www.w3.org/2000/svg" xmlns:xlink="http://www.w3.org/1999/xlink" x="0px" y="0px" width="24px"
	 height="24px" viewBox="0 0 24 24" enable-background="new 0 0 24 24" xml:space="preserve">
<g id="Filled_Icons_1_">
	<g id="Filled_Icons">
		<g>
			<path d="M12.5,7h-11C0.673,7,0,7.673,0,8.5v8C0,17.327,0.673,18,1.5,18H5v2H4c-0.276,0-0.5,0.224-0.5,0.5S3.724,21,4,21h6
				c0.276,0,0.5-0.224,0.5-0.5S10.276,20,10,20H9v-2h3.5c0.827,0,1.5-0.673,1.5-1.5v-8C14,7.673,13.327,7,12.5,7z M12,16H2V9h10V16z
				"/>
			<g>
				<circle cx="19.5" cy="13" r="0.5"/>
				<rect x="18" y="6" width="3" height="1"/>
				<path d="M22.253,3h-5.57L15,5.339V21h9V5.334L22.253,3z M22,19h-5v-1h5V19z M22,17h-5v-1h5V17z M18,13
					c0-0.827,0.673-1.5,1.5-1.5S21,12.173,21,13s-0.673,1.5-1.5,1.5S18,13.827,18,13z M22,8h-5V5h5V8z"/>
			</g>
		</g>
	</g>
	<g id="New_icons">
	</g>
</g>
<g id="Invisible_Shape">
	<rect fill="none" width="24" height="24"/>
</g>
</svg>
