<?xml version="1.0" encoding="utf-8"?>
<!-- Generator: Adobe Illustrator 19.2.1, SVG Export Plug-In . SVG Version: 6.00 Build 0)  -->
<svg version="1.1" xmlns="http://www.w3.org/2000/svg" xmlns:xlink="http://www.w3.org/1999/xlink" x="0px" y="0px" width="24px"
	 height="24px" viewBox="0 0 24 24" enable-background="new 0 0 24 24" xml:space="preserve">
<g id="Filled_Icons_1_">
	<g id="Filled_Icons">
		<g>
			<path d="M0,16v1.911C0,19.063,0.896,20,2,20h9.5v1H5c-0.276,0-0.5,0.224-0.5,0.5S4.724,22,5,22h14c0.276,0,0.5-0.224,0.5-0.5
				S19.276,21,19,21h-6.5v-1H22c1.103,0,2-0.937,2-2.089V16H0z M12,16.5c0.551,0,1,0.448,1,1s-0.449,1-1,1c-0.552,0-1-0.448-1-1
				S11.448,16.5,12,16.5z"/>
			<path d="M22,1H2C0.896,1,0,1.936,0,3.089V15h24V3.089C24,1.936,23.103,1,22,1z"/>
		</g>
	</g>
	<g id="New_icons">
	</g>
</g>
<g id="Invisible_Shape">
	<rect fill="none" width="24" height="24"/>
</g>
</svg>
