<?xml version="1.0" encoding="utf-8"?>
<!-- Generator: Adobe Illustrator 19.2.1, SVG Export Plug-In . SVG Version: 6.00 Build 0)  -->
<svg version="1.1" xmlns="http://www.w3.org/2000/svg" xmlns:xlink="http://www.w3.org/1999/xlink" x="0px" y="0px" width="24px"
	 height="24px" viewBox="0 0 24 24" enable-background="new 0 0 24 24" xml:space="preserve">
<g id="Filled_Icons_1_">
	<g id="Filled_Icons">
		<g>
			<path d="M23.5,12c0.276,0,0.5-0.224,0.5-0.5S23.776,11,23.5,11H20V8h3.5C23.776,8,24,7.776,24,7.5S23.776,7,23.5,7H20V5.5
				C20,4.673,19.327,4,18.5,4H17V0.5C17,0.224,16.776,0,16.5,0S16,0.224,16,0.5V4h-4V0.5C12,0.224,11.776,0,11.5,0S11,0.224,11,0.5
				V4H8V0.5C8,0.224,7.776,0,7.5,0S7,0.224,7,0.5V4H5.5C4.673,4,4,4.673,4,5.5V7H0.5C0.224,7,0,7.224,0,7.5S0.224,8,0.5,8H4v4H0.5
				C0.224,12,0,12.224,0,12.5S0.224,13,0.5,13H4v3H0.5C0.224,16,0,16.224,0,16.5S0.224,17,0.5,17H4v1.5C4,19.327,4.673,20,5.5,20H7
				v3.5C7,23.776,7.224,24,7.5,24S8,23.776,8,23.5V20h4v3.5c0,0.276,0.224,0.5,0.5,0.5s0.5-0.224,0.5-0.5V20h3v3.5
				c0,0.276,0.224,0.5,0.5,0.5s0.5-0.224,0.5-0.5V20h1.5c0.827,0,1.5-0.673,1.5-1.5V17h3.5c0.276,0,0.5-0.224,0.5-0.5
				S23.776,16,23.5,16H20v-4H23.5z M17,15.5c0,0.827-0.673,1.5-1.5,1.5h-7C7.673,17,7,16.327,7,15.5v-7C7,7.673,7.673,7,8.5,7h7
				C16.327,7,17,7.673,17,8.5V15.5z"/>
			<path d="M15.18,10.951c0-0.79-0.644-1.434-1.436-1.434c-0.774,0-1.405,0.604-1.435,1.375c-0.011,0.275,0.204,0.509,0.48,0.519
				c0.283,0.012,0.509-0.204,0.519-0.481c0.009-0.232,0.201-0.414,0.436-0.414c0.334,0,0.573,0.37,0.346,0.695l-1.704,2.434
				c-0.232,0.332,0.007,0.787,0.41,0.787h1.873c0.276,0,0.5-0.224,0.5-0.5c0-0.276-0.224-0.5-0.5-0.5h-0.913l1.155-1.649
				C15.026,11.617,15.18,11.35,15.18,10.951z"/>
			<path d="M10.129,9.5c-0.833,0-1.396,0.555-1.435,1.414c-0.013,0.275,0.201,0.51,0.477,0.521c0.253,0.045,0.509-0.2,0.522-0.477
				C9.714,10.5,9.974,10.5,10.129,10.5c0.152,0,0.436,0,0.436,0.499c0,0.5-0.283,0.5-0.436,0.5c-0.276,0-0.5,0.224-0.5,0.5
				c0,0.276,0.224,0.5,0.5,0.5c0.152,0,0.436,0,0.436,0.501c0,0.5-0.283,0.5-0.436,0.5c-0.155,0-0.415,0-0.436-0.459
				c-0.013-0.276-0.272-0.504-0.522-0.477c-0.276,0.012-0.49,0.246-0.477,0.521c0.039,0.859,0.603,1.414,1.435,1.414
				c0.992,0,1.436-0.753,1.436-1.5c0-0.412-0.128-0.745-0.335-1.001c0.207-0.255,0.335-0.589,0.335-1
				C11.564,10.089,11.001,9.5,10.129,9.5z"/>
		</g>
	</g>
	<g id="New_icons">
	</g>
</g>
<g id="Invisible_Shape">
	<rect fill="none" width="24" height="24"/>
</g>
</svg>
