<?xml version="1.0" encoding="utf-8"?>
<!-- Generator: Adobe Illustrator 19.2.1, SVG Export Plug-In . SVG Version: 6.00 Build 0)  -->
<svg version="1.1" xmlns="http://www.w3.org/2000/svg" xmlns:xlink="http://www.w3.org/1999/xlink" x="0px" y="0px" width="24px"
	 height="24px" viewBox="0 0 24 24" enable-background="new 0 0 24 24" xml:space="preserve">
<g id="Filled_Icons_1_">
	<g id="Filled_Icons">
		<path d="M22.5,2.001h-21c-0.827,0-1.5,0.673-1.5,1.5V15.5c0,0.797,0.614,1.527,1.399,1.664L9.5,18.573v2.07
			c-1.997,0.225-3.799,0.71-5.142,1.414c-0.245,0.128-0.339,0.431-0.211,0.675c0.128,0.244,0.43,0.339,0.676,0.211
			C6.571,22.026,9.186,21.5,12,21.5s5.429,0.526,7.177,1.443c0.25,0.128,0.549,0.031,0.675-0.211
			c0.129-0.244,0.034-0.547-0.21-0.675c-1.343-0.704-3.146-1.189-5.142-1.414v-2.07l8.1-1.409c0.785-0.137,1.4-0.867,1.4-1.664
			V3.501C24,2.674,23.327,2.001,22.5,2.001z M12,17c-0.276,0-0.5-0.224-0.5-0.5S11.724,16,12,16s0.5,0.224,0.5,0.5S12.276,17,12,17z
			 M22,15.001H2V4h20V15.001z"/>
	</g>
	<g id="New_icons">
	</g>
</g>
<g id="Invisible_Shape">
	<rect fill="none" width="24" height="24"/>
</g>
</svg>
