<?xml version="1.0" encoding="utf-8"?>
<!-- Generator: Adobe Illustrator 19.2.1, SVG Export Plug-In . SVG Version: 6.00 Build 0)  -->
<svg version="1.1" xmlns="http://www.w3.org/2000/svg" xmlns:xlink="http://www.w3.org/1999/xlink" x="0px" y="0px" width="24px"
	 height="24px" viewBox="0 0 24 24" enable-background="new 0 0 24 24" xml:space="preserve">
<g id="Filled_Icons_1_">
	<g id="Filled_Icons">
		<g>
			<path d="M22.281,15H1.837l-1.715,6h23.745L22.281,15z M7.359,20l0.75-3h7.781l0.75,3H7.359z"/>
			<path d="M0,22c0,1.103,0.896,2,2,2h20c1.103,0,2-0.897,2-2H0z"/>
			<path d="M22,13.935V3c0-1.102-0.897-2-2-2H4C2.897,1,2,1.898,2,3v11h20.018L22,13.935z M20,12H4V3h16V12z"/>
		</g>
	</g>
	<g id="New_icons">
	</g>
</g>
<g id="Invisible_Shape">
	<rect fill="none" width="24" height="24"/>
</g>
</svg>
