<?xml version="1.0" encoding="utf-8"?>
<!-- Generator: Adobe Illustrator 19.2.1, SVG Export Plug-In . SVG Version: 6.00 Build 0)  -->
<svg version="1.1" xmlns="http://www.w3.org/2000/svg" xmlns:xlink="http://www.w3.org/1999/xlink" x="0px" y="0px" width="24px"
	 height="24px" viewBox="0 0 24 24" enable-background="new 0 0 24 24" xml:space="preserve">
<g id="Filled_Icons_1_">
	<g id="Filled_Icons">
		<g>
			<path d="M21.5,12c0.666,0,1.287,0.19,1.818,0.515l-1.83-7.205C21.15,4.014,19.838,3,18.5,3h-13C4.162,3,2.849,4.014,2.511,5.31
				l-1.89,7.242C1.165,12.204,1.809,12,2.5,12H21.5z"/>
			<path d="M21.5,13h-19C1.121,13,0,14.122,0,15.5v4C0,20.878,1.121,22,2.5,22h19c1.378,0,2.5-1.122,2.5-2.5v-4
				C24,14.122,22.878,13,21.5,13z M18.5,16c0.275,0,0.5,0.224,0.5,0.5c0,0.275-0.225,0.5-0.5,0.5c-0.276,0-0.5-0.225-0.5-0.5
				C18,16.224,18.224,16,18.5,16z M20.5,19h-17C3.224,19,3,18.776,3,18.5S3.224,18,3.5,18h17c0.276,0,0.5,0.224,0.5,0.5
				S20.776,19,20.5,19z M20.5,17c-0.276,0-0.5-0.225-0.5-0.5c0-0.276,0.224-0.5,0.5-0.5c0.275,0,0.5,0.224,0.5,0.5
				C21,16.775,20.775,17,20.5,17z"/>
		</g>
	</g>
	<g id="New_icons">
	</g>
</g>
<g id="Invisible_Shape">
	<rect fill="none" width="24" height="24"/>
</g>
</svg>
