<?xml version="1.0" encoding="utf-8"?>
<!-- Generator: Adobe Illustrator 19.2.1, SVG Export Plug-In . SVG Version: 6.00 Build 0)  -->
<svg version="1.1" xmlns="http://www.w3.org/2000/svg" xmlns:xlink="http://www.w3.org/1999/xlink" x="0px" y="0px" width="24px"
	 height="24px" viewBox="0 0 24 24" enable-background="new 0 0 24 24" xml:space="preserve">
<g id="Filled_Icons_1_">
	<g id="Filled_Icons">
	</g>
	<g id="New_icons">
		<g>
			<g>
				<path d="M23.5,12c0.276,0,0.5-0.224,0.5-0.5S23.776,11,23.5,11H20V8h3.5C23.776,8,24,7.776,24,7.5S23.776,7,23.5,7H20V5.5
					C20,4.673,19.327,4,18.5,4H17V0.5C17,0.224,16.776,0,16.5,0S16,0.224,16,0.5V4h-4V0.5C12,0.224,11.776,0,11.5,0S11,0.224,11,0.5
					V4H8V0.5C8,0.224,7.776,0,7.5,0S7,0.224,7,0.5V4H5.5C4.673,4,4,4.673,4,5.5V7H0.5C0.224,7,0,7.224,0,7.5S0.224,8,0.5,8H4v4H0.5
					C0.224,12,0,12.224,0,12.5S0.224,13,0.5,13H4v3H0.5C0.224,16,0,16.224,0,16.5S0.224,17,0.5,17H4v1.5C4,19.327,4.673,20,5.5,20H7
					v3.5C7,23.776,7.224,24,7.5,24S8,23.776,8,23.5V20h4v3.5c0,0.276,0.224,0.5,0.5,0.5s0.5-0.224,0.5-0.5V20h3v3.5
					c0,0.276,0.224,0.5,0.5,0.5s0.5-0.224,0.5-0.5V20h1.5c0.827,0,1.5-0.673,1.5-1.5V17h3.5c0.276,0,0.5-0.224,0.5-0.5
					S23.776,16,23.5,16H20v-4H23.5z M7,15.5v-7C7,7.673,7.673,7,8.5,7h7C16.327,7,17,7.673,17,8.5v7c0,0.827-0.673,1.5-1.5,1.5h-7
					C7.673,17,7,16.327,7,15.5z"/>
			</g>
			<g>
				<path d="M13.5,15h-3c-0.418,0-0.652-0.486-0.39-0.812l2.748-3.426C13.284,10.131,12.673,9.5,12,9.5c-0.402,0-1,0.267-1,1
					c0,0.276-0.224,0.5-0.5,0.5S10,10.776,10,10.5c0-1.299,1.03-2,2-2c0.946,0,2,0.742,2,1.807c0,0.503-0.195,0.842-0.341,1.053
					L11.542,14H13.5c0.276,0,0.5,0.224,0.5,0.5S13.776,15,13.5,15z"/>
			</g>
		</g>
	</g>
</g>
<g id="Invisible_Shape">
	<rect fill="none" width="24" height="24"/>
</g>
</svg>
