<?xml version="1.0" encoding="utf-8"?>
<!-- Generator: Adobe Illustrator 19.2.1, SVG Export Plug-In . SVG Version: 6.00 Build 0)  -->
<svg version="1.1" xmlns="http://www.w3.org/2000/svg" xmlns:xlink="http://www.w3.org/1999/xlink" x="0px" y="0px" width="24px"
	 height="24px" viewBox="0 0 24 24" enable-background="new 0 0 24 24" xml:space="preserve">
<g id="Filled_Icons_1_">
	<g id="Filled_Icons">
	</g>
	<g id="New_icons">
		<g>
			<path d="M13.5,20H13v-2h1v-2H2.5C2.224,16,2,15.776,2,15.5v-10C2,5.224,2.224,5,2.5,5h16C18.776,5,19,5.224,19,5.5V7h1.379
				C20.538,6.842,20.84,6.533,21,6.39V4.5C21,3.673,20.327,3,19.5,3h-18C0.673,3,0,3.673,0,4.5v12C0,17.327,0.673,18,1.5,18H8v2H7
				c-0.276,0-0.5,0.224-0.5,0.5S6.724,21,7,21h6.5c0.276,0,0.5-0.224,0.5-0.5S13.776,20,13.5,20z"/>
			<path d="M23.5,7H22c-0.133,0-0.26,0.053-0.354,0.147L20.793,8h-2.586l-0.854-0.853C17.26,7.053,17.133,7,17,7h-1.5
				C15.224,7,15,7.224,15,7.5v13c0,0.276,0.224,0.5,0.5,0.5H17c0.133,0,0.26-0.053,0.354-0.146L18.207,20h2.586l0.854,0.854
				C21.74,20.947,21.867,21,22,21h1.5c0.276,0,0.5-0.224,0.5-0.5v-13C24,7.224,23.776,7,23.5,7z M18.5,18.5h-2v-2h2V18.5z M21.5,13
				h-4c-0.276,0-0.5-0.224-0.5-0.5s0.224-0.5,0.5-0.5h4c0.276,0,0.5,0.224,0.5,0.5S21.776,13,21.5,13z M21.5,11h-4
				c-0.276,0-0.5-0.224-0.5-0.5s0.224-0.5,0.5-0.5h4c0.276,0,0.5,0.224,0.5,0.5S21.776,11,21.5,11z"/>
		</g>
	</g>
</g>
<g id="Invisible_Shape">
	<rect fill="none" width="24" height="24"/>
</g>
</svg>
