<?xml version="1.0" encoding="utf-8"?>
<!-- Generator: Adobe Illustrator 19.2.1, SVG Export Plug-In . SVG Version: 6.00 Build 0)  -->
<svg version="1.1" xmlns="http://www.w3.org/2000/svg" xmlns:xlink="http://www.w3.org/1999/xlink" x="0px" y="0px" width="24px"
	 height="24px" viewBox="0 0 24 24" enable-background="new 0 0 24 24" xml:space="preserve">
<g id="Filled_Icons_1_">
	<g id="Filled_Icons">
		<path d="M22.5,2h-21C0.673,2,0,2.673,0,3.5v13C0,17.327,0.673,18,1.5,18H10v2H7c-0.276,0-0.5,0.224-0.5,0.5S6.724,21,7,21h10
			c0.276,0,0.5-0.224,0.5-0.5S17.276,20,17,20h-3v-2h8.5c0.827,0,1.5-0.673,1.5-1.5v-13C24,2.673,23.327,2,22.5,2z M22,16H2V4h20V16
			z"/>
	</g>
	<g id="New_icons">
	</g>
</g>
<g id="Invisible_Shape">
	<rect fill="none" width="24" height="24"/>
</g>
</svg>
