<?xml version="1.0" encoding="utf-8"?>
<!-- Generator: Adobe Illustrator 19.2.1, SVG Export Plug-In . SVG Version: 6.00 Build 0)  -->
<svg version="1.1" xmlns="http://www.w3.org/2000/svg" xmlns:xlink="http://www.w3.org/1999/xlink" x="0px" y="0px" width="24px"
	 height="24px" viewBox="0 0 24 24" enable-background="new 0 0 24 24" xml:space="preserve">
<g id="Filled_Icons_1_">
	<g id="Filled_Icons">
	</g>
	<g id="New_icons">
		<g>
			<path d="M19.5,18H17v-3h2.5c0.276,0,0.5-0.224,0.5-0.5S19.776,14,19.5,14H17v-3.54l-0.349,0.299
				c-0.351,0.301-0.867,0.324-1.244,0.047c-0.375-0.276-0.51-0.774-0.326-1.201L15.773,8H11V5.5C11,5.224,10.776,5,10.5,5
				S10,5.224,10,5.5V8H7V5.5C7,5.224,6.776,5,6.5,5S6,5.224,6,5.5V8H5.5C4.673,8,4,8.673,4,9.5V10H1.5C1.224,10,1,10.224,1,10.5
				S1.224,11,1.5,11H4v3H1.5C1.224,14,1,14.224,1,14.5S1.224,15,1.5,15H4v3H1.5C1.224,18,1,18.224,1,18.5S1.224,19,1.5,19H4v0.5
				C4,20.327,4.673,21,5.5,21H6v2.5C6,23.776,6.224,24,6.5,24S7,23.776,7,23.5V21h3v2.5c0,0.276,0.224,0.5,0.5,0.5
				s0.5-0.224,0.5-0.5V21h3v2.5c0,0.276,0.224,0.5,0.5,0.5s0.5-0.224,0.5-0.5V21h0.5c0.827,0,1.5-0.673,1.5-1.5V19h2.5
				c0.276,0,0.5-0.224,0.5-0.5S19.776,18,19.5,18z M15,16.5c0,1.379-1.122,2.5-2.5,2.5h-4C7.122,19,6,17.879,6,16.5v-4
				C6,11.121,7.122,10,8.5,10h4c1.378,0,2.5,1.121,2.5,2.5V16.5z"/>
			<polygon points="22.5,0 18.837,4 23,4 16,10 17.725,6 15,6 17.5,0 			"/>
		</g>
	</g>
</g>
<g id="Invisible_Shape">
	<rect fill="none" width="24" height="24"/>
</g>
</svg>
