<?xml version="1.0" encoding="utf-8"?>
<!-- Generator: Adobe Illustrator 19.2.1, SVG Export Plug-In . SVG Version: 6.00 Build 0)  -->
<svg version="1.1" xmlns="http://www.w3.org/2000/svg" xmlns:xlink="http://www.w3.org/1999/xlink" x="0px" y="0px" width="24px"
	 height="24px" viewBox="0 0 24 24" enable-background="new 0 0 24 24" xml:space="preserve">
<g id="Filled_Icons_1_">
	<g id="Filled_Icons">
		<g>
			<path d="M22.911,12.875L20.489,2.309C20.15,1.014,18.837,0,17.5,0h-11C5.162,0,3.85,1.015,3.509,2.324L1.088,12.877
				C1.036,13.077,1,13.283,1,13.5v3C1,17.879,2.122,19,3.5,19C3.776,19,4,18.776,4,18.5S3.776,18,3.5,18C2.673,18,2,17.327,2,16.5
				v-3C2,12.673,2.673,12,3.5,12h17c0.827,0,1.5,0.673,1.5,1.5v3c0,0.827-0.673,1.5-1.5,1.5c-0.276,0-0.5,0.224-0.5,0.5
				s0.224,0.5,0.5,0.5c1.378,0,2.5-1.121,2.5-2.5v-3C23,13.283,22.963,13.075,22.911,12.875z M20,10h-4c-0.276,0-0.5-0.224-0.5-0.5
				S15.724,9,16,9h4c0.276,0,0.5,0.224,0.5,0.5S20.276,10,20,10z"/>
			<path d="M19.5,14H4.516c-0.276,0-0.5,0.224-0.5,0.5s0.224,0.5,0.5,0.5h1.686C5.68,15.91,5.41,16.854,5.41,17.819
				c0,3.233,2.936,5.862,6.545,5.862s6.545-2.646,6.545-5.898c0-0.945-0.27-1.878-0.791-2.783H19.5c0.276,0,0.5-0.224,0.5-0.5
				S19.776,14,19.5,14z M11.955,19.022c-0.668,0-1.209-0.473-1.209-1.058c0-0.584,0.541-1.058,1.209-1.058
				c0.668,0,1.209,0.474,1.209,1.058C13.164,18.55,12.623,19.022,11.955,19.022z"/>
		</g>
	</g>
	<g id="New_icons">
	</g>
</g>
<g id="Invisible_Shape">
	<rect fill="none" width="24" height="24"/>
</g>
</svg>
