<?xml version="1.0" encoding="utf-8"?>
<!-- Generator: Adobe Illustrator 19.2.1, SVG Export Plug-In . SVG Version: 6.00 Build 0)  -->
<svg version="1.1" xmlns="http://www.w3.org/2000/svg" xmlns:xlink="http://www.w3.org/1999/xlink" x="0px" y="0px" width="24px"
	 height="24px" viewBox="0 0 24 24" enable-background="new 0 0 24 24" xml:space="preserve">
<g id="Filled_Icons_1_">
	<g id="Filled_Icons">
		<g>
			<circle cx="11.74" cy="16" r="1"/>
			<path d="M19.169,4.748c-0.163-0.271-0.546-0.331-0.782-0.097c-0.679,0.677-1.577,1.393-2.186,1.698
				c-0.313-3.529-2.854-1.771-1.974-5.707C14.305,0.292,14-0.02,13.656,0.04c-3.942,0.659-6.249,2.444-5.55,6.396
				C6.555,6.087,5.109,4.662,5.093,4.647C4.885,4.439,4.528,4.449,4.34,4.7c-0.032,0.042-3.092,4.235,0.211,7.813
				C4.037,13.569,3.74,14.749,3.74,16c0,4.411,3.589,8,8,8c4.411,0,8-3.589,8-8c0-1.198-0.272-2.331-0.746-3.352
				C21.53,10.426,20.249,6.547,19.169,4.748z M11.74,20.842c-2.67,0-4.842-2.172-4.842-4.842c0-0.276,0.224-0.5,0.5-0.5
				c0.276,0,0.5,0.224,0.5,0.5c0,2.118,1.724,3.842,3.842,3.842c0.276,0,0.5,0.224,0.5,0.5C12.24,20.618,12.016,20.842,11.74,20.842
				z M11.74,18.473c-1.364,0-2.474-1.109-2.474-2.473c0-1.364,1.11-2.475,2.474-2.475c1.364,0,2.474,1.11,2.474,2.475
				C14.213,17.363,13.104,18.473,11.74,18.473z M16.081,16.5c-0.276,0-0.5-0.224-0.5-0.5c0-2.118-1.724-3.842-3.842-3.842
				c-0.276,0-0.5-0.224-0.5-0.5c0-0.276,0.224-0.5,0.5-0.5c2.67,0,4.842,2.172,4.842,4.842C16.581,16.276,16.358,16.5,16.081,16.5z
				 M11.74,8c-2.786,0-5.24,1.433-6.673,3.599c-1.893-2.3-0.812-4.813-0.225-5.834C5.586,6.39,7.135,7.502,8.737,7.512
				c0.001,0,0.002,0,0.003,0c0.325,0,0.563-0.305,0.485-0.62c-0.401-1.622-0.307-2.852,0.29-3.761
				c0.611-0.93,1.791-1.577,3.596-1.969c-0.575,3.806,2.128,2.412,2.116,5.836c-0.001,0.276,0.224,0.502,0.5,0.502
				c0.88,0,2.155-1.025,2.876-1.677c0.583,1.219,1.687,4.146-0.098,5.927C17.088,9.502,14.589,8,11.74,8z"/>
		</g>
	</g>
	<g id="New_icons">
	</g>
</g>
<g id="Invisible_Shape">
	<rect fill="none" width="24" height="24"/>
</g>
</svg>
