<?xml version="1.0" encoding="utf-8"?>
<!-- Generator: Adobe Illustrator 19.2.1, SVG Export Plug-In . SVG Version: 6.00 Build 0)  -->
<svg version="1.1" xmlns="http://www.w3.org/2000/svg" xmlns:xlink="http://www.w3.org/1999/xlink" x="0px" y="0px" width="24px"
	 height="24px" viewBox="0 0 24 24" enable-background="new 0 0 24 24" xml:space="preserve">
<g id="Filled_Icons_1_">
	<g id="Filled_Icons">
		<g>
			<path d="M8.984,9.38L3.599,3.442C1.383,5.618,0.004,8.644,0,11.987l8.017-0.314C8.088,10.799,8.44,10.005,8.984,9.38z"/>
			<path d="M14.384,0.238L13.07,8.149c2.722,0.76,3.841,4.045,2.085,6.299l5.67,5.672C27.172,13.229,23.48,2.08,14.384,0.238z"/>
			<path d="M8.061,12.672l-8.017,0.314c0.812,9.912,12.737,14.596,20.075,7.841l-5.67-5.671
				C12.054,17.016,8.565,15.632,8.061,12.672z"/>
			<path d="M12,8c0.027,0,0.054,0.004,0.081,0.004l1.315-7.92C10.026-0.31,6.799,0.726,4.34,2.772l5.388,5.94
				C10.374,8.264,11.156,8,12,8z"/>
		</g>
	</g>
	<g id="New_icons">
	</g>
</g>
<g id="Invisible_Shape">
	<rect fill="none" width="24" height="24"/>
</g>
</svg>
