<?xml version="1.0" encoding="utf-8"?>
<!-- Generator: Adobe Illustrator 19.2.1, SVG Export Plug-In . SVG Version: 6.00 Build 0)  -->
<svg version="1.1" xmlns="http://www.w3.org/2000/svg" xmlns:xlink="http://www.w3.org/1999/xlink" x="0px" y="0px" width="24px"
	 height="24px" viewBox="0 0 24 24" enable-background="new 0 0 24 24" xml:space="preserve">
<g id="Filled_Icons_1_">
	<g id="Filled_Icons">
		<g>
			<path d="M23.5,0h-23C0.224,0,0,0.224,0,0.5v23C0,23.776,0.224,24,0.5,24h23c0.276,0,0.5-0.224,0.5-0.5v-23
				C24,0.224,23.776,0,23.5,0z M12,21c-4.963,0-9-4.037-9-9s4.037-9,9-9c4.962,0,9,4.037,9,9S16.962,21,12,21z"/>
			<path d="M12,9c-1.654,0-3,1.346-3,3s1.346,3,3,3s3-1.346,3-3S13.654,9,12,9z M12,14c-1.104,0-2-0.898-2-2s0.896-2,2-2
				c1.102,0,2,0.898,2,2S13.102,14,12,14z"/>
			<circle cx="12" cy="12" r="1"/>
			<path d="M12,6c-0.276,0-0.5,0.224-0.5,0.5S11.724,7,12,7c2.757,0,5,2.243,5,5c0,0.276,0.224,0.5,0.5,0.5S18,12.276,18,12
				C18,8.691,15.309,6,12,6z"/>
			<path d="M12,17c-2.757,0-5-2.243-5-5c0-0.276-0.224-0.5-0.5-0.5S6,11.724,6,12c0,3.309,2.691,6,6,6c0.276,0,0.5-0.224,0.5-0.5
				S12.276,17,12,17z"/>
			<path d="M12,4c-0.276,0-0.5,0.224-0.5,0.5S11.724,5,12,5c3.859,0,7,3.14,7,7c0,0.276,0.224,0.5,0.5,0.5S20,12.276,20,12
				C20,7.589,16.411,4,12,4z"/>
			<path d="M12,19c-3.86,0-7-3.14-7-7c0-0.276-0.224-0.5-0.5-0.5S4,11.724,4,12c0,4.411,3.589,8,8,8c0.276,0,0.5-0.224,0.5-0.5
				S12.276,19,12,19z"/>
		</g>
	</g>
	<g id="New_icons">
	</g>
</g>
<g id="Invisible_Shape">
	<rect fill="none" width="24" height="24"/>
</g>
</svg>
