<?xml version="1.0" encoding="utf-8"?>
<!-- Generator: Adobe Illustrator 19.2.1, SVG Export Plug-In . SVG Version: 6.00 Build 0)  -->
<svg version="1.1" xmlns="http://www.w3.org/2000/svg" xmlns:xlink="http://www.w3.org/1999/xlink" x="0px" y="0px" width="24px"
	 height="24px" viewBox="0 0 24 24" enable-background="new 0 0 24 24" xml:space="preserve">
<g id="Filled_Icons_1_">
	<g id="Filled_Icons">
		<g>
			<path d="M15.161,0.435L12.325,5h2.764c0.431,0,0.661,0.511,0.373,0.833l-7.782,8.701c-0.383,0.429-1.068-0.027-0.825-0.545
				L9.661,8H6.723C6.331,8,6.093,7.571,6.296,7.239L10.66,0.09C4.566,0.766,0,5.834,0,12c0,6.617,5.383,12,12,12s12-5.383,12-12
				C24,6.593,20.32,1.844,15.161,0.435z M12,16c-1.054,0-2.049-0.407-2.802-1.146c-0.197-0.193-0.2-0.51-0.007-0.707
				c0.193-0.197,0.51-0.2,0.707-0.006C10.463,14.694,11.21,15,12,15c1.654,0,3-1.346,3-3c0-0.837-0.336-1.613-0.946-2.188
				c-0.201-0.189-0.21-0.506-0.022-0.707c0.19-0.201,0.506-0.21,0.707-0.022C15.54,9.838,16,10.901,16,12C16,14.206,14.206,16,12,16
				z"/>
		</g>
	</g>
	<g id="New_icons">
	</g>
</g>
<g id="Invisible_Shape">
	<rect fill="none" width="24" height="24"/>
</g>
</svg>
