<?xml version="1.0" encoding="utf-8"?>
<!-- Generator: Adobe Illustrator 19.2.1, SVG Export Plug-In . SVG Version: 6.00 Build 0)  -->
<svg version="1.1" xmlns="http://www.w3.org/2000/svg" xmlns:xlink="http://www.w3.org/1999/xlink" x="0px" y="0px" width="24px"
	 height="24px" viewBox="0 0 24 24" enable-background="new 0 0 24 24" xml:space="preserve">
<g id="Filled_Icons_1_">
	<g id="Filled_Icons">
		<g>
			<path d="M12,9c-1.654,0-3,1.346-3,3s1.346,3,3,3s3-1.346,3-3S13.654,9,12,9z M12,13.5c-0.827,0-1.5-0.673-1.5-1.5
				s0.673-1.5,1.5-1.5s1.5,0.673,1.5,1.5S12.827,13.5,12,13.5z"/>
			<path d="M12,0C5.383,0,0,5.384,0,12s5.383,12,12,12c6.616,0,12-5.384,12-12S18.616,0,12,0z M12,16c-2.206,0-4-1.794-4-4
				s1.794-4,4-4c2.205,0,4,1.794,4,4S14.205,16,12,16z"/>
		</g>
	</g>
	<g id="New_icons">
	</g>
</g>
<g id="Invisible_Shape">
	<rect fill="none" width="24" height="24"/>
</g>
</svg>
