<?xml version="1.0" encoding="utf-8"?>
<!-- Generator: Adobe Illustrator 19.2.1, SVG Export Plug-In . SVG Version: 6.00 Build 0)  -->
<svg version="1.1" xmlns="http://www.w3.org/2000/svg" xmlns:xlink="http://www.w3.org/1999/xlink" x="0px" y="0px" width="24px"
	 height="24px" viewBox="0 0 24 24" enable-background="new 0 0 24 24" xml:space="preserve">
<g id="Filled_Icons_1_">
	<g id="Filled_Icons">
		<g>
			<path d="M21.5,1h-14C6.122,1,5,2.121,5,3.5V19H4.5C3.673,19,3,18.327,3,17.5v-8C3,8.052,2.027,7,0.688,7
				c-0.276,0-0.5,0.224-0.5,0.5S0.411,8,0.688,8C1.589,8,2,8.777,2,9.5v8C2,18.879,3.122,20,4.5,20H5v0.5C5,21.879,6.122,23,7.5,23
				h14c1.378,0,2.5-1.121,2.5-2.5v-17C24,2.121,22.878,1,21.5,1z M10.5,19.5C9.122,19.5,8,18.379,8,17s1.122-2.5,2.5-2.5
				S13,15.621,13,17S11.878,19.5,10.5,19.5z M10.5,9.5C9.122,9.5,8,8.379,8,7s1.122-2.5,2.5-2.5S13,5.621,13,7S11.878,9.5,10.5,9.5z
				 M18.5,19.5c-1.378,0-2.5-1.121-2.5-2.5s1.122-2.5,2.5-2.5S21,15.621,21,17S19.878,19.5,18.5,19.5z M18.5,9.5
				C17.122,9.5,16,8.379,16,7s1.122-2.5,2.5-2.5S21,5.621,21,7S19.878,9.5,18.5,9.5z"/>
			<path d="M17.5,6.047c-0.276,0-0.5,0.224-0.5,0.5V7.5C17,7.776,17.224,8,17.5,8S18,7.776,18,7.5V6.547
				C18,6.271,17.776,6.047,17.5,6.047z"/>
			<path d="M19.5,6.047c-0.276,0-0.5,0.224-0.5,0.5V7.5C19,7.776,19.224,8,19.5,8S20,7.776,20,7.5V6.547
				C20,6.271,19.776,6.047,19.5,6.047z"/>
			<path d="M9.5,6.047c-0.276,0-0.5,0.224-0.5,0.5V7.5C9,7.776,9.224,8,9.5,8S10,7.776,10,7.5V6.547C10,6.271,9.776,6.047,9.5,6.047
				z"/>
			<path d="M11.5,6.047c-0.276,0-0.5,0.224-0.5,0.5V7.5C11,7.776,11.224,8,11.5,8S12,7.776,12,7.5V6.547
				C12,6.271,11.776,6.047,11.5,6.047z"/>
			<path d="M17.5,16.047c-0.276,0-0.5,0.224-0.5,0.5V17.5c0,0.276,0.224,0.5,0.5,0.5s0.5-0.224,0.5-0.5v-0.953
				C18,16.271,17.776,16.047,17.5,16.047z"/>
			<path d="M19.5,16.047c-0.276,0-0.5,0.224-0.5,0.5V17.5c0,0.276,0.224,0.5,0.5,0.5s0.5-0.224,0.5-0.5v-0.953
				C20,16.271,19.776,16.047,19.5,16.047z"/>
			<path d="M9.5,16.047c-0.276,0-0.5,0.224-0.5,0.5V17.5C9,17.776,9.224,18,9.5,18s0.5-0.224,0.5-0.5v-0.953
				C10,16.271,9.776,16.047,9.5,16.047z"/>
			<path d="M11.5,16.047c-0.276,0-0.5,0.224-0.5,0.5V17.5c0,0.276,0.224,0.5,0.5,0.5s0.5-0.224,0.5-0.5v-0.953
				C12,16.271,11.776,16.047,11.5,16.047z"/>
		</g>
	</g>
	<g id="New_icons">
	</g>
</g>
<g id="Invisible_Shape">
	<rect fill="none" width="24" height="24"/>
</g>
</svg>
