<?xml version="1.0" encoding="utf-8"?>
<!-- Generator: Adobe Illustrator 19.2.1, SVG Export Plug-In . SVG Version: 6.00 Build 0)  -->
<svg version="1.1" xmlns="http://www.w3.org/2000/svg" xmlns:xlink="http://www.w3.org/1999/xlink" x="0px" y="0px" width="24px"
	 height="24px" viewBox="0 0 24 24" enable-background="new 0 0 24 24" xml:space="preserve">
<g id="Filled_Icons_1_">
	<g id="Filled_Icons">
		<path d="M20.5,2h-17C1.227,2,0,7.152,0,12s1.227,10,3.5,10h17c2.273,0,3.5-5.152,3.5-10S22.773,2,20.5,2z M8,11.5
			C8,11.776,7.775,12,7.5,12C7.224,12,7,11.776,7,11.5v-5C7,6.224,7.224,6,7.5,6C7.775,6,8,6.224,8,6.5V11.5z M14.5,18.5
			c0,0.276-0.225,0.5-0.5,0.5h-4c-0.276,0-0.5-0.224-0.5-0.5v-3c0-1.378,1.121-2.5,2.5-2.5c1.378,0,2.5,1.122,2.5,2.5V18.5z
			 M17,11.5c0,0.276-0.225,0.5-0.5,0.5c-0.276,0-0.5-0.224-0.5-0.5v-5C16,6.224,16.224,6,16.5,6C16.775,6,17,6.224,17,6.5V11.5z"/>
	</g>
	<g id="New_icons">
	</g>
</g>
<g id="Invisible_Shape">
	<rect fill="none" width="24" height="24"/>
</g>
</svg>
