<?xml version="1.0" encoding="utf-8"?>
<!-- Generator: Adobe Illustrator 19.2.1, SVG Export Plug-In . SVG Version: 6.00 Build 0)  -->
<svg version="1.1" xmlns="http://www.w3.org/2000/svg" xmlns:xlink="http://www.w3.org/1999/xlink" x="0px" y="0px" width="24px"
	 height="24px" viewBox="0 0 24 24" enable-background="new 0 0 24 24" xml:space="preserve">
<g id="Filled_Icons_1_">
	<g id="Filled_Icons">
	</g>
	<g id="New_icons">
		<g>
			<g>
				<path d="M22.5,1h-21C1.224,1,1,1.224,1,1.5v21C1,22.776,1.224,23,1.5,23h21c0.276,0,0.5-0.224,0.5-0.5v-21
					C23,1.224,22.776,1,22.5,1z M12,20c-4.411,0-8-3.589-8-8s3.589-8,8-8s8,3.589,8,8S16.411,20,12,20z"/>
			</g>
			<g>
				<path d="M9.5,15C9.224,15,9,14.776,9,14.5v-5C9,9.224,9.224,9,9.5,9S10,9.224,10,9.5v5C10,14.776,9.776,15,9.5,15z"/>
			</g>
			<g>
				<path d="M14.5,15c-0.276,0-0.5-0.224-0.5-0.5v-5C14,9.224,14.224,9,14.5,9S15,9.224,15,9.5v5C15,14.776,14.776,15,14.5,15z"/>
			</g>
		</g>
	</g>
</g>
<g id="Invisible_Shape">
	<rect fill="none" width="24" height="24"/>
</g>
</svg>
