<?xml version="1.0" encoding="utf-8"?>
<!-- Generator: Adobe Illustrator 19.2.1, SVG Export Plug-In . SVG Version: 6.00 Build 0)  -->
<svg version="1.1" xmlns="http://www.w3.org/2000/svg" xmlns:xlink="http://www.w3.org/1999/xlink" x="0px" y="0px" width="24px"
	 height="24px" viewBox="0 0 24 24" enable-background="new 0 0 24 24" xml:space="preserve">
<g id="Filled_Icons_1_">
	<g id="Filled_Icons">
		<g>
			<circle cx="3.5" cy="14.5" r="0.5"/>
			<path d="M17.854,5.147C17.76,5.053,17.633,5,17.5,5h-11C6.367,5,6.24,5.053,6.147,5.147L0.293,11h23.414L17.854,5.147z"/>
			<path d="M0,12v3.5c0,1.207,0.859,2.218,2,2.449V18.5C2,18.776,2.224,19,2.5,19C2.775,19,3,18.776,3,18.5V18h18v0.5
				c0,0.276,0.224,0.5,0.5,0.5c0.275,0,0.5-0.224,0.5-0.5v-0.551c1.14-0.231,2-1.242,2-2.449V12H0z M3.5,16
				C2.673,16,2,15.327,2,14.5S2.673,13,3.5,13C4.326,13,5,13.673,5,14.5S4.326,16,3.5,16z M14,15.5c-0.552,0-1-0.448-1-1
				s0.448-1,1-1c0.551,0,1,0.448,1,1S14.551,15.5,14,15.5z M17,15.5c-0.552,0-1-0.448-1-1s0.448-1,1-1c0.551,0,1,0.448,1,1
				S17.551,15.5,17,15.5z M20,15.5c-0.552,0-1-0.448-1-1s0.448-1,1-1c0.551,0,1,0.448,1,1S20.551,15.5,20,15.5z"/>
		</g>
	</g>
	<g id="New_icons">
	</g>
</g>
<g id="Invisible_Shape">
	<rect fill="none" width="24" height="24"/>
</g>
</svg>
