<?xml version="1.0" encoding="utf-8"?>
<!-- Generator: Adobe Illustrator 19.2.1, SVG Export Plug-In . SVG Version: 6.00 Build 0)  -->
<svg version="1.1" xmlns="http://www.w3.org/2000/svg" xmlns:xlink="http://www.w3.org/1999/xlink" x="0px" y="0px" width="24px"
	 height="24px" viewBox="0 0 24 24" enable-background="new 0 0 24 24" xml:space="preserve">
<g id="Filled_Icons_1_">
	<g id="Filled_Icons">
	</g>
	<g id="New_icons">
		<path d="M23.5,0h-3C20.224,0,20,0.224,20,0.5V2h-3V0.5C17,0.224,16.776,0,16.5,0h-16C0.224,0,0,0.224,0,0.5v19
			C0,19.776,0.224,20,0.5,20H2v1H0.5C0.224,21,0,21.224,0,21.5v2C0,23.776,0.224,24,0.5,24h23c0.276,0,0.5-0.224,0.5-0.5v-23
			C24,0.224,23.776,0,23.5,0z M16,5h5c0.276,0,0.5,0.224,0.5,0.5S21.276,6,21,6h-5c-0.276,0-0.5-0.224-0.5-0.5S15.724,5,16,5z M16,7
			h5c0.276,0,0.5,0.224,0.5,0.5S21.276,8,21,8h-5c-0.276,0-0.5-0.224-0.5-0.5S15.724,7,16,7z M16,9h5c0.276,0,0.5,0.224,0.5,0.5
			S21.276,10,21,10h-5c-0.276,0-0.5-0.224-0.5-0.5S15.724,9,16,9z M7,5.5C7,5.224,7.224,5,7.5,5h2C9.776,5,10,5.224,10,5.5v4
			C10,9.776,9.776,10,9.5,10h-2C7.224,10,7,9.776,7,9.5V5.5z M3,9.5v-4C3,5.224,3.224,5,3.5,5h2C5.776,5,6,5.224,6,5.5v4
			C6,9.776,5.776,10,5.5,10h-2C3.224,10,3,9.776,3,9.5z M12.5,17c0.276,0,0.5,0.224,0.5,0.5S12.776,18,12.5,18H11v0.5
			c0,0.276-0.224,0.5-0.5,0.5H10v1.5c0,0.276-0.224,0.5-0.5,0.5S9,20.776,9,20.5V19H8v1.5C8,20.776,7.776,21,7.5,21S7,20.776,7,20.5
			V19H6.5C6.224,19,6,18.776,6,18.5V18H4.5C4.224,18,4,17.776,4,17.5S4.224,17,4.5,17H6v-1H4.5C4.224,16,4,15.776,4,15.5
			S4.224,15,4.5,15H6v-0.5C6,14.224,6.224,14,6.5,14H7v-1.5C7,12.224,7.224,12,7.5,12S8,12.224,8,12.5V14h1v-1.5
			C9,12.224,9.224,12,9.5,12s0.5,0.224,0.5,0.5V14h0.5c0.276,0,0.5,0.224,0.5,0.5V15h1.5c0.276,0,0.5,0.224,0.5,0.5
			S12.776,16,12.5,16H11v1H12.5z M14,9.5c0,0.276-0.224,0.5-0.5,0.5h-2C11.224,10,11,9.776,11,9.5v-4C11,5.224,11.224,5,11.5,5h2
			C13.776,5,14,5.224,14,5.5V9.5z M22,21.5c0,0.276-0.224,0.5-0.5,0.5h-6c-0.276,0-0.5-0.224-0.5-0.5v-6c0-0.276,0.224-0.5,0.5-0.5
			h2.232l1.852-2.777C19.677,12.084,19.833,12,20,12h1.5c0.276,0,0.5,0.224,0.5,0.5V21.5z"/>
	</g>
</g>
<g id="Invisible_Shape">
	<rect fill="none" width="24" height="24"/>
</g>
</svg>
