<?xml version="1.0" encoding="utf-8"?>
<!-- Generator: Adobe Illustrator 19.2.1, SVG Export Plug-In . SVG Version: 6.00 Build 0)  -->
<svg version="1.1" xmlns="http://www.w3.org/2000/svg" xmlns:xlink="http://www.w3.org/1999/xlink" x="0px" y="0px" width="24px"
	 height="24px" viewBox="0 0 24 24" enable-background="new 0 0 24 24" xml:space="preserve">
<g id="Filled_Icons_1_">
	<g id="Filled_Icons">
		<path d="M13.5,0h-3C6.916,0,4,2.915,4,6.5v11c0,3.584,2.916,6.5,6.5,6.5h3c3.584,0,6.5-2.916,6.5-6.5v-11
			C20,2.915,17.084,0,13.5,0z M13.5,7.5C13.5,8.327,12.826,9,12,9c-0.827,0-1.5-0.673-1.5-1.5v-2C10.5,4.673,11.173,4,12,4
			c0.826,0,1.5,0.673,1.5,1.5V7.5z"/>
	</g>
	<g id="New_icons">
	</g>
</g>
<g id="Invisible_Shape">
	<rect fill="none" width="24" height="24"/>
</g>
</svg>
