<?xml version="1.0" encoding="utf-8"?>
<!-- Generator: Adobe Illustrator 19.2.1, SVG Export Plug-In . SVG Version: 6.00 Build 0)  -->
<svg version="1.1" xmlns="http://www.w3.org/2000/svg" xmlns:xlink="http://www.w3.org/1999/xlink" x="0px" y="0px" width="24px"
	 height="24px" viewBox="0 0 24 24" enable-background="new 0 0 24 24" xml:space="preserve">
<g id="Filled_Icons_1_">
	<g id="Filled_Icons">
	</g>
	<g id="New_icons">
		<g>
			<g>
				<path d="M16.437,2.344c-2.636-1.758-6.238-1.758-8.874,0c-0.23,0.152-0.541,0.09-0.693-0.139
					c-0.153-0.23-0.091-0.54,0.139-0.693c2.965-1.979,7.019-1.979,9.983,0c0.23,0.153,0.292,0.464,0.139,0.693
					C16.977,2.437,16.666,2.496,16.437,2.344z"/>
			</g>
			<g>
				<path d="M15.327,4.008c-1.971-1.317-4.68-1.319-6.654,0C8.441,4.159,8.132,4.099,7.979,3.869
					c-0.153-0.23-0.091-0.54,0.138-0.693c2.304-1.54,5.464-1.539,7.766,0c0.23,0.154,0.291,0.464,0.138,0.694
					C15.868,4.098,15.559,4.161,15.327,4.008z"/>
			</g>
			<g>
				<path d="M9.088,5.533C8.935,5.304,8.997,4.993,9.226,4.84c1.646-1.1,3.898-1.1,5.547,0c0.23,0.153,0.292,0.464,0.139,0.693
					c-0.153,0.23-0.463,0.291-0.693,0.139c-1.318-0.879-3.12-0.878-4.437,0C9.551,5.824,9.242,5.764,9.088,5.533z"/>
			</g>
			<path d="M12.5,7h-1C8.519,7,6,9.519,6,12.5v6c0,2.981,2.519,5.5,5.5,5.5h1c2.981,0,5.5-2.519,5.5-5.5v-6
				C18,9.519,15.481,7,12.5,7z M13.5,13.5c0,0.827-0.673,1.5-1.5,1.5s-1.5-0.673-1.5-1.5v-2c0-0.827,0.673-1.5,1.5-1.5
				s1.5,0.673,1.5,1.5V13.5z"/>
		</g>
	</g>
</g>
<g id="Invisible_Shape">
	<rect fill="none" width="24" height="24"/>
</g>
</svg>
