<?xml version="1.0" encoding="utf-8"?>
<!-- Generator: Adobe Illustrator 19.2.1, SVG Export Plug-In . SVG Version: 6.00 Build 0)  -->
<svg version="1.1" xmlns="http://www.w3.org/2000/svg" xmlns:xlink="http://www.w3.org/1999/xlink" x="0px" y="0px" width="24px"
	 height="24px" viewBox="0 0 24 24" enable-background="new 0 0 24 24" xml:space="preserve">
<g id="Filled_Icons_1_">
	<g id="Filled_Icons">
		<path d="M20,7h-4V0.5C16,0.224,15.776,0,15.5,0S15,0.224,15,0.5V7H8V0.5C8,0.224,7.776,0,7.5,0S7,0.224,7,0.5V7H3
			C2.724,7,2.5,7.224,2.5,7.5S2.724,8,3,8h2v6.5c0,2.312,1.753,4.221,4,4.471V21.5C9,21.776,9.224,22,9.5,22H11v1.5
			c0,0.276,0.224,0.5,0.5,0.5s0.5-0.224,0.5-0.5V22h1.5c0.276,0,0.5-0.224,0.5-0.5v-2.529c2.246-0.25,4-2.159,4-4.471V8h2
			c0.276,0,0.5-0.224,0.5-0.5S20.276,7,20,7z"/>
	</g>
	<g id="New_icons">
	</g>
</g>
<g id="Invisible_Shape">
	<rect fill="none" width="24" height="24"/>
</g>
</svg>
