<?xml version="1.0" encoding="utf-8"?>
<!-- Generator: Adobe Illustrator 19.2.1, SVG Export Plug-In . SVG Version: 6.00 Build 0)  -->
<svg version="1.1" xmlns="http://www.w3.org/2000/svg" xmlns:xlink="http://www.w3.org/1999/xlink" x="0px" y="0px" width="24px"
	 height="24px" viewBox="0 0 24 24" enable-background="new 0 0 24 24" xml:space="preserve">
<g id="Filled_Icons_1_">
	<g id="Filled_Icons">
		<g>
			<path d="M16.5,8.042H16v-5.5c0-0.827-0.673-1.5-1.5-1.542h-6C7.673,1.042,7,1.715,7,2.542v5.5H6.5c-1.378,0-2.5,1.121-2.5,2.5v4
				c0,0.133,0.053,0.26,0.147,0.354L7,17.749v2.793c0,0.276,0.224,0.5,0.5,0.458H11v1.5c0,0.276,0.224,0.5,0.5,0.5
				s0.5-0.224,0.5-0.5V21h3.5c0.276,0.042,0.5-0.182,0.5-0.458v-2.793l2.854-2.854C18.947,14.802,19,14.675,19,14.542v-4
				C19,9.163,17.878,8.042,16.5,8.042z M14,14.042H9c-0.422,0-0.655-0.494-0.384-0.82l2.5-3c0.191-0.228,0.578-0.228,0.769,0l2.5,3
				C14.655,13.548,14.422,14.042,14,14.042z M15,8.042H8v-5.5C8,2.267,8.224,2.042,8.5,2h6C14.776,2.042,15,2.267,15,2.542V8.042z"
				/>
			<path d="M12.5,3.042h-2c-0.827,0-1.5,0.673-1.5,1.5v1c0,0.827,0.673,1.5,1.5,1.5h2c0.827,0,1.5-0.673,1.5-1.5v-1
				C14,3.715,13.327,3.042,12.5,3.042z"/>
		</g>
	</g>
	<g id="New_icons">
	</g>
</g>
<g id="Invisible_Shape">
	<rect fill="none" width="24" height="24"/>
</g>
</svg>
