<?xml version="1.0" encoding="utf-8"?>
<!-- Generator: Adobe Illustrator 19.2.1, SVG Export Plug-In . SVG Version: 6.00 Build 0)  -->
<svg version="1.1" xmlns="http://www.w3.org/2000/svg" xmlns:xlink="http://www.w3.org/1999/xlink" x="0px" y="0px" width="24px"
	 height="24px" viewBox="0 0 24 24" enable-background="new 0 0 24 24" xml:space="preserve">
<g id="Filled_Icons_1_">
	<g id="Filled_Icons">
	</g>
	<g id="New_icons">
		<path d="M21,8c0.276,0,0.5-0.224,0.5-0.5S21.276,7,21,7h-2V5h2c0.276,0,0.5-0.224,0.5-0.5S21.276,4,21,4h-2V0.5
			C19,0.224,18.776,0,18.5,0h-13C5.224,0,5,0.224,5,0.5V4H3C2.724,4,2.5,4.224,2.5,4.5S2.724,5,3,5h2v2H3C2.724,7,2.5,7.224,2.5,7.5
			S2.724,8,3,8h2v2H3c-0.276,0-0.5,0.224-0.5,0.5S2.724,11,3,11h2v2H3c-0.276,0-0.5,0.224-0.5,0.5S2.724,14,3,14h2v2H3
			c-0.276,0-0.5,0.224-0.5,0.5S2.724,17,3,17h2v2H3c-0.276,0-0.5,0.224-0.5,0.5S2.724,20,3,20h2v3.5C5,23.776,5.224,24,5.5,24h13
			c0.276,0,0.5-0.224,0.5-0.5V20h2c0.276,0,0.5-0.224,0.5-0.5S21.276,19,21,19h-2v-2h2c0.276,0,0.5-0.224,0.5-0.5S21.276,16,21,16
			h-2v-2h2c0.276,0,0.5-0.224,0.5-0.5S21.276,13,21,13h-2v-2h2c0.276,0,0.5-0.224,0.5-0.5S21.276,10,21,10h-2V8H21z M17,21.5
			c0,0.276-0.224,0.5-0.5,0.5h-3c-0.133,0-0.26-0.053-0.354-0.146L12,20.707l-1.146,1.146C10.76,21.947,10.633,22,10.5,22h-3
			C7.224,22,7,21.776,7,21.5v-19C7,2.224,7.224,2,7.5,2h3c0.133,0,0.26,0.053,0.354,0.147L12,3.293l1.146-1.146
			C13.24,2.053,13.367,2,13.5,2h3C16.776,2,17,2.224,17,2.5V21.5z"/>
	</g>
</g>
<g id="Invisible_Shape">
	<rect fill="none" width="24" height="24"/>
</g>
</svg>
