<?xml version="1.0" encoding="utf-8"?>
<!-- Generator: Adobe Illustrator 19.2.1, SVG Export Plug-In . SVG Version: 6.00 Build 0)  -->
<svg version="1.1" xmlns="http://www.w3.org/2000/svg" xmlns:xlink="http://www.w3.org/1999/xlink" x="0px" y="0px" width="24px"
	 height="24px" viewBox="0 0 24 24" enable-background="new 0 0 24 24" xml:space="preserve">
<g id="Filled_Icons_1_">
	<g id="Filled_Icons">
		<g>
			<path d="M23.839,19l-3.811-9.526l1.925-6.737C21.992,2.665,22.02,2.587,22.02,2.5c0-0.055-0.009-0.106-0.025-0.156
				C21.915,1.038,20.826,0,19.5,0h-15C3.154,0,2.06,1.071,2.01,2.406c-0.001,0.002,0,0.006-0.001,0.008C2.008,2.443,2,2.471,2,2.5
				s0.012,0.054,0.017,0.082C2.02,2.601,2.014,2.619,2.019,2.638l1.953,6.836L0.161,19H23.839z M19.5,18h-15
				c-0.341,0-0.582-0.336-0.474-0.658l2-6C6.094,11.138,6.285,11,6.5,11h11c0.215,0,0.406,0.138,0.474,0.342l2,6
				C20.083,17.664,19.841,18,19.5,18z M3.163,3h17.674l-1.714,6H4.877L3.163,3z"/>
			<path d="M0.051,20c0.246,2.473,2.271,4,5.449,4h13c3.178,0,5.203-1.527,5.449-4H0.051z M16.5,22c-0.276,0-0.5-0.224-0.5-0.5
				s0.224-0.5,0.5-0.5c0.275,0,0.5,0.224,0.5,0.5S16.775,22,16.5,22z M19.5,22c-0.276,0-0.5-0.224-0.5-0.5s0.224-0.5,0.5-0.5
				c0.275,0,0.5,0.224,0.5,0.5S19.775,22,19.5,22z"/>
		</g>
	</g>
	<g id="New_icons">
	</g>
</g>
<g id="Invisible_Shape">
	<rect fill="none" width="24" height="24"/>
</g>
</svg>
