<?xml version="1.0" encoding="utf-8"?>
<!-- Generator: Adobe Illustrator 19.2.1, SVG Export Plug-In . SVG Version: 6.00 Build 0)  -->
<svg version="1.1" xmlns="http://www.w3.org/2000/svg" xmlns:xlink="http://www.w3.org/1999/xlink" x="0px" y="0px" width="24px"
	 height="24px" viewBox="0 0 24 24" enable-background="new 0 0 24 24" xml:space="preserve">
<g id="Filled_Icons_1_">
	<g id="Filled_Icons">
		<g>
			<path d="M17.5,11c-3.584,0-6.5,2.916-6.5,6.5s2.916,6.5,6.5,6.5s6.5-2.916,6.5-6.5S21.084,11,17.5,11z M22.05,14.404
				c0,0-0.584,2.256-0.592,2.274c-0.099,0.253-0.375,0.37-0.581,0.306l-2.218-0.564c-0.268-0.068-0.429-0.341-0.36-0.608
				c0.067-0.268,0.339-0.431,0.607-0.36l1.202,0.306c-0.896-1.436-2.539-1.953-3.985-1.53c-1.884,0.548-2.963,2.518-2.414,4.396
				c0.54,1.861,2.491,2.97,4.398,2.416c0.264-0.08,0.543,0.074,0.619,0.34c0.078,0.265-0.074,0.543-0.34,0.619
				c-2.403,0.701-4.933-0.671-5.639-3.094c-0.703-2.413,0.682-4.937,3.096-5.638c1.791-0.523,3.819,0.069,5.005,1.803l0.233-0.912
				c0.067-0.269,0.34-0.43,0.608-0.36C21.957,13.865,22.118,14.137,22.05,14.404z"/>
			<path d="M18,10.025V5.5c0-0.133-0.053-0.26-0.146-0.353l-5-5C12.76,0.053,12.633,0,12.5,0h-12C0.224,0,0,0.224,0,0.5v9
				C0,9.776,0.224,10,0.5,10H1v2H0.5C0.224,12,0,12.224,0,12.5v11C0,23.776,0.224,24,0.5,24h13.274
				C6.946,20.07,10.039,9.51,18,10.025z M13,5.5C13,5.224,13.224,5,13.5,5S14,5.224,14,5.5v4c0,0.276-0.224,0.5-0.5,0.5
				S13,9.776,13,9.5V5.5z M10,3.5C10,3.224,10.224,3,10.5,3S11,3.224,11,3.5v5C11,8.776,10.776,9,10.5,9S10,8.776,10,8.5V3.5z
				 M5,8.5C5,8.776,4.776,9,4.5,9S4,8.776,4,8.5v-5C4,3.224,4.224,3,4.5,3S5,3.224,5,3.5V8.5z M8,8.5C8,8.776,7.776,9,7.5,9
				S7,8.776,7,8.5v-5C7,3.224,7.224,3,7.5,3S8,3.224,8,3.5V8.5z"/>
		</g>
	</g>
	<g id="New_icons">
	</g>
</g>
<g id="Invisible_Shape">
	<rect fill="none" width="24" height="24"/>
</g>
</svg>
