<?xml version="1.0" encoding="utf-8"?>
<!-- Generator: Adobe Illustrator 19.2.1, SVG Export Plug-In . SVG Version: 6.00 Build 0)  -->
<svg version="1.1" xmlns="http://www.w3.org/2000/svg" xmlns:xlink="http://www.w3.org/1999/xlink" x="0px" y="0px" width="24px"
	 height="24px" viewBox="0 0 24 24" enable-background="new 0 0 24 24" xml:space="preserve">
<g id="Filled_Icons_1_">
	<g id="Filled_Icons">
		<g>
			<path d="M14,23.26c-0.167-0.087-0.33-0.181-0.487-0.281c-1.004,0.58-1.854,0.281-2.261-0.436l-1.496-2.592
				c-0.398-0.688-0.267-1.579,0.751-2.166c-0.01-0.191-0.01-0.377,0-0.568c-1.006-0.58-1.162-1.459-0.753-2.167l1.499-2.599
				c0.395-0.688,1.235-1.02,2.256-0.429c0.159-0.102,0.322-0.195,0.49-0.283C14,10.584,14.681,10,15.5,10H18c0-2.673,0-4.625,0-4.5
				c0-0.133-0.053-0.26-0.146-0.353l-5-5C12.76,0.053,12.633,0,12.5,0h-12C0.224,0,0,0.224,0,0.5v9C0,9.776,0.224,10,0.5,10H1v2H0.5
				C0.224,12,0,12.224,0,12.5v11C0,23.776,0.224,24,0.5,24h13.592C13.988,23.708,14,23.56,14,23.26z M13,5.5
				C13,5.224,13.224,5,13.5,5S14,5.224,14,5.5v4c0,0.276-0.224,0.5-0.5,0.5S13,9.776,13,9.5V5.5z M10,3.5C10,3.224,10.224,3,10.5,3
				S11,3.224,11,3.5v5C11,8.776,10.776,9,10.5,9S10,8.776,10,8.5V3.5z M5,8.5C5,8.776,4.776,9,4.5,9S4,8.776,4,8.5v-5
				C4,3.224,4.224,3,4.5,3S5,3.224,5,3.5V8.5z M8,8.5C8,8.776,7.776,9,7.5,9S7,8.776,7,8.5v-5C7,3.224,7.224,3,7.5,3S8,3.224,8,3.5
				V8.5z"/>
			<path d="M23.195,18.769l-0.765-0.441c0.093-0.613,0.092-1.044,0.001-1.652l0.766-0.442c0.234-0.133,0.324-0.438,0.183-0.683
				l-1.5-2.599c-0.138-0.239-0.443-0.322-0.683-0.183l-0.765,0.441c-0.43-0.345-0.912-0.624-1.433-0.828V11.5
				c0-0.276-0.224-0.5-0.5-0.5h-3c-0.276,0-0.5,0.224-0.5,0.5v0.882c-0.521,0.204-1.003,0.483-1.433,0.828l-0.765-0.441
				c-0.237-0.138-0.545-0.057-0.683,0.183l-1.5,2.599c-0.142,0.245-0.052,0.55,0.183,0.683l0.766,0.442
				c-0.091,0.608-0.092,1.039,0.001,1.652l-0.765,0.441c-0.239,0.138-0.321,0.443-0.183,0.683l1.5,2.599
				c0.137,0.241,0.446,0.32,0.683,0.183l0.765-0.441c0.429,0.344,0.911,0.623,1.431,0.827V23.5c0,0.276,0.224,0.5,0.5,0.5h3
				c0.276,0,0.5-0.224,0.5-0.5v-0.882c0.52-0.204,1.002-0.483,1.431-0.827l0.765,0.441c0.237,0.138,0.546,0.058,0.683-0.183
				l1.5-2.599C23.517,19.212,23.435,18.906,23.195,18.769z M17,20c-1.379,0-2.5-1.121-2.5-2.5S15.621,15,17,15s2.5,1.121,2.5,2.5
				S18.379,20,17,20z"/>
		</g>
	</g>
	<g id="New_icons">
	</g>
</g>
<g id="Invisible_Shape">
	<rect fill="none" width="24" height="24"/>
</g>
</svg>
