<?xml version="1.0" encoding="utf-8"?>
<!-- Generator: Adobe Illustrator 19.2.1, SVG Export Plug-In . SVG Version: 6.00 Build 0)  -->
<svg version="1.1" xmlns="http://www.w3.org/2000/svg" xmlns:xlink="http://www.w3.org/1999/xlink" x="0px" y="0px" width="24px"
	 height="24px" viewBox="0 0 24 24" enable-background="new 0 0 24 24" xml:space="preserve">
<g id="Filled_Icons_1_">
	<g id="Filled_Icons">
		<path d="M20.854,5.147l-5-5C15.76,0.053,15.633,0,15.5,0h-12C3.224,0,3,0.224,3,0.5v9C3,9.776,3.224,10,3.5,10H4v2H3.5
			C3.224,12,3,12.224,3,12.5v11C3,23.776,3.224,24,3.5,24h17c0.275,0,0.5-0.224,0.5-0.5v-18C21,5.367,20.947,5.24,20.854,5.147z
			 M13,3.5C13,3.224,13.224,3,13.5,3C13.775,3,14,3.224,14,3.5v5C14,8.776,13.775,9,13.5,9C13.224,9,13,8.776,13,8.5V3.5z M10,3.5
			C10,3.224,10.224,3,10.5,3C10.775,3,11,3.224,11,3.5v5C11,8.776,10.775,9,10.5,9C10.224,9,10,8.776,10,8.5V3.5z M8,8.5
			C8,8.776,7.775,9,7.5,9C7.224,9,7,8.776,7,8.5v-5C7,3.224,7.224,3,7.5,3C7.775,3,8,3.224,8,3.5V8.5z M14.01,21
			c-0.003,0-0.006,0-0.01,0h-4c-0.4,0-0.638-0.446-0.416-0.777l2-3c0.186-0.278,0.647-0.278,0.832,0l1.952,2.929
			C14.672,20.462,14.456,21,14.01,21z M17,9.5c0,0.276-0.225,0.5-0.5,0.5C16.224,10,16,9.776,16,9.5v-4C16,5.224,16.224,5,16.5,5
			C16.775,5,17,5.224,17,5.5V9.5z"/>
	</g>
	<g id="New_icons">
	</g>
</g>
<g id="Invisible_Shape">
	<rect fill="none" width="24" height="24"/>
</g>
</svg>
