<?xml version="1.0" encoding="utf-8"?>
<!-- Generator: Adobe Illustrator 19.2.1, SVG Export Plug-In . SVG Version: 6.00 Build 0)  -->
<svg version="1.1" xmlns="http://www.w3.org/2000/svg" xmlns:xlink="http://www.w3.org/1999/xlink" x="0px" y="0px" width="24px"
	 height="24px" viewBox="0 0 24 24" enable-background="new 0 0 24 24" xml:space="preserve">
<g id="Filled_Icons_1_">
	<g id="Filled_Icons">
		<g>
			<path d="M17.5,24c3.59,0,6.5-2.91,6.5-6.5S21.09,11,17.5,11S11,13.91,11,17.5S13.91,24,17.5,24z M15,18
				c0.195-0.195,0.512-0.195,0.707,0L17,19.293V14.5c0-0.276,0.224-0.5,0.5-0.5s0.5,0.224,0.5,0.5v4.793L19.293,18
				c0.195-0.195,0.512-0.195,0.707,0s0.195,0.512,0,0.707l-2.146,2.146c-0.195,0.195-0.512,0.195-0.707,0L15,18.707
				C14.805,18.512,14.805,18.195,15,18z"/>
			<path d="M18,10.025V5.5c0-0.133-0.053-0.26-0.146-0.353l-5-5C12.76,0.053,12.633,0,12.5,0h-12C0.224,0,0,0.224,0,0.5v9
				C0,9.776,0.224,10,0.5,10H1v2H0.5C0.224,12,0,12.224,0,12.5v11C0,23.776,0.224,24,0.5,24h13.274
				C6.921,20.057,10.072,9.512,18,10.025z M13,5.5C13,5.224,13.224,5,13.5,5S14,5.224,14,5.5v4c0,0.276-0.224,0.5-0.5,0.5
				S13,9.776,13,9.5V5.5z M10,3.5C10,3.224,10.224,3,10.5,3S11,3.224,11,3.5v5C11,8.776,10.776,9,10.5,9S10,8.776,10,8.5V3.5z
				 M5,8.5C5,8.776,4.776,9,4.5,9S4,8.776,4,8.5v-5C4,3.224,4.224,3,4.5,3S5,3.224,5,3.5V8.5z M8,8.5C8,8.776,7.776,9,7.5,9
				S7,8.776,7,8.5v-5C7,3.224,7.224,3,7.5,3S8,3.224,8,3.5V8.5z"/>
		</g>
	</g>
	<g id="New_icons">
	</g>
</g>
<g id="Invisible_Shape">
	<rect fill="none" width="24" height="24"/>
</g>
</svg>
