<?xml version="1.0" encoding="utf-8"?>
<!-- Generator: Adobe Illustrator 19.2.1, SVG Export Plug-In . SVG Version: 6.00 Build 0)  -->
<svg version="1.1" xmlns="http://www.w3.org/2000/svg" xmlns:xlink="http://www.w3.org/1999/xlink" x="0px" y="0px" width="24px"
	 height="24px" viewBox="0 0 24 24" enable-background="new 0 0 24 24" xml:space="preserve">
<g id="Filled_Icons_1_">
	<g id="Filled_Icons">
		<g>
			<path d="M10.5,2h-2C8.224,2,8,2.224,8,2.5v2C8,4.776,8.224,5,8.5,5h2C10.776,5,11,4.776,11,4.5v-2C11,2.224,10.776,2,10.5,2z"/>
			<path d="M15.5,2h-2C13.224,2,13,2.224,13,2.5v2C13,4.776,13.224,5,13.5,5h2C15.776,5,16,4.776,16,4.5v-2
				C16,2.224,15.776,2,15.5,2z"/>
			<path d="M12,12c-0.551,0-1,0.448-1,1v2h2v-2C13,12.448,12.551,12,12,12z"/>
			<path d="M19.5,9H18V0.5C18,0.224,17.776,0,17.5,0h-11C6.224,0,6,0.224,6,0.5V9H4.5C4.224,9,4,9.224,4,9.5v12
				C4,22.879,5.122,24,6.5,24h11c1.378,0,2.5-1.121,2.5-2.5v-12C20,9.224,19.776,9,19.5,9z M7,1h10v8H7V1z M16,21.5
				c0,0.276-0.224,0.5-0.5,0.5h-7C8.224,22,8,21.776,8,21.5v-6C8,15.224,8.224,15,8.5,15H10v-2c0-1.102,0.897-2,2-2s2,0.898,2,2v2
				h1.5c0.276,0,0.5,0.224,0.5,0.5V21.5z"/>
			<path d="M12,17.016c-0.276,0-0.5,0.224-0.5,0.5v1.964c0,0.276,0.224,0.5,0.5,0.5s0.5-0.224,0.5-0.5v-1.964
				C12.5,17.239,12.276,17.016,12,17.016z"/>
		</g>
	</g>
	<g id="New_icons">
	</g>
</g>
<g id="Invisible_Shape">
	<rect fill="none" width="24" height="24"/>
</g>
</svg>
