<?xml version="1.0" encoding="utf-8"?>
<!-- Generator: Adobe Illustrator 19.2.1, SVG Export Plug-In . SVG Version: 6.00 Build 0)  -->
<svg version="1.1" xmlns="http://www.w3.org/2000/svg" xmlns:xlink="http://www.w3.org/1999/xlink" x="0px" y="0px" width="24px"
	 height="24px" viewBox="0 0 24 24" enable-background="new 0 0 24 24" xml:space="preserve">
<g id="Filled_Icons_1_">
	<g id="Filled_Icons">
		<g>
			<path d="M17.5,5H16V0.5C16,0.224,15.775,0,15.5,0h-6C9.224,0,9,0.224,9,0.5V5H7.5C7.224,5,7,5.224,7,5.5v14
				c0,2.481,2.019,4.5,4.5,4.5h2c2.481,0,4.5-2.019,4.5-4.5v-14C18,5.224,17.775,5,17.5,5z M10,1h5v4h-5V1z M15.5,8h-6
				C9.224,8,9,7.776,9,7.5S9.224,7,9.5,7h6C15.775,7,16,7.224,16,7.5S15.775,8,15.5,8z"/>
			<path d="M11.5,2C11.224,2,11,2.224,11,2.5v1C11,3.776,11.224,4,11.5,4C11.775,4,12,3.776,12,3.5v-1C12,2.224,11.775,2,11.5,2z"/>
			<path d="M13.5,2C13.224,2,13,2.224,13,2.5v1C13,3.776,13.224,4,13.5,4C13.775,4,14,3.776,14,3.5v-1C14,2.224,13.775,2,13.5,2z"/>
		</g>
	</g>
	<g id="New_icons">
	</g>
</g>
<g id="Invisible_Shape">
	<rect fill="none" width="24" height="24"/>
</g>
</svg>
