<?xml version="1.0" encoding="utf-8"?>
<!-- Generator: Adobe Illustrator 19.2.1, SVG Export Plug-In . SVG Version: 6.00 Build 0)  -->
<svg version="1.1" xmlns="http://www.w3.org/2000/svg" xmlns:xlink="http://www.w3.org/1999/xlink" x="0px" y="0px" width="24px"
	 height="24px" viewBox="0 0 24 24" enable-background="new 0 0 24 24" xml:space="preserve">
<g id="Filled_Icons_1_">
	<g id="Filled_Icons">
		<g>
			<path d="M11.5,8c-1.104,0-2,0.898-2,2c0,0.276,0.224,0.5,0.5,0.5s0.5-0.224,0.5-0.5c0-0.552,0.448-1,1-1
				C11.776,9,12,8.776,12,8.5S11.776,8,11.5,8z"/>
			<path d="M23.854,23.146l-4.848-4.848c2.139-1.924,3.494-4.702,3.494-7.799C22.5,4.71,17.789,0,12,0C6.21,0,1.5,4.71,1.5,10.5
				c0,3.097,1.355,5.875,3.494,7.799l-4.848,4.848c-0.195,0.195-0.195,0.512,0,0.707c0.195,0.195,0.512,0.195,0.707,0l4.919-4.919
				C7.518,20.226,9.667,21,12,21c2.332,0,4.482-0.774,6.227-2.065l0-0.001l4.919,4.92c0.195,0.195,0.512,0.195,0.707,0
				C24.049,23.658,24.049,23.342,23.854,23.146z M12,3c0.551,0,1,0.448,1,1s-0.449,1-1,1c-0.552,0-1-0.448-1-1S11.448,3,12,3z
				 M7.5,10.5C7.5,8.019,9.519,6,12,6s4.5,2.019,4.5,4.5S14.481,15,12,15S7.5,12.981,7.5,10.5z"/>
		</g>
	</g>
	<g id="New_icons">
	</g>
</g>
<g id="Invisible_Shape">
	<rect fill="none" width="24" height="24"/>
</g>
</svg>
