<?xml version="1.0" encoding="utf-8"?>
<!-- Generator: Adobe Illustrator 19.2.1, SVG Export Plug-In . SVG Version: 6.00 Build 0)  -->
<svg version="1.1" xmlns="http://www.w3.org/2000/svg" xmlns:xlink="http://www.w3.org/1999/xlink" x="0px" y="0px" width="24px"
	 height="24px" viewBox="0 0 24 24" enable-background="new 0 0 24 24" xml:space="preserve">
<g id="Filled_Icons">
	<g>
		<path d="M5.5,22C5.224,22,5,21.776,5,21.5V3H3.5C3.224,3,3,3.224,3,3.5v20C3,23.776,3.224,24,3.5,24h14c0.276,0,0.5-0.224,0.5-0.5
			V22H5.5z"/>
		<path d="M21,6.5c0-0.133-0.053-0.26-0.146-0.353l-6-6C14.76,0.053,14.632,0,14.5,0h-8C6.224,0,6,0.224,6,0.5v20
			C6,20.776,6.224,21,6.5,21h14c0.276,0,0.5-0.224,0.5-0.5V6.5z M14,7V1l6,6H14z"/>
	</g>
</g>
<g id="Invisible_Shape">
	<rect fill="none" width="24" height="24"/>
</g>
</svg>
