<?xml version="1.0" encoding="utf-8"?>
<!-- Generator: Adobe Illustrator 19.2.1, SVG Export Plug-In . SVG Version: 6.00 Build 0)  -->
<svg version="1.1" xmlns="http://www.w3.org/2000/svg" xmlns:xlink="http://www.w3.org/1999/xlink" x="0px" y="0px" width="24px"
	 height="24px" viewBox="0 0 24 24" enable-background="new 0 0 24 24" xml:space="preserve">
<g id="Filled_Icons">
	<g>
		<path d="M4.5,21C4.224,21,4,20.776,4,20.5V5V4H3.5C3.224,4,3,4.224,3,4.5v17C3,21.776,3.224,22,3.5,22h13
			c0.276,0,0.5-0.224,0.5-0.5V21h-1H4.5z"/>
		<path d="M19,7.5c0-0.133-0.053-0.26-0.146-0.353l-5-5C13.76,2.053,13.632,2,13.5,2h-8C5.224,2,5,2.224,5,2.5v17
			C5,19.776,5.224,20,5.5,20h13c0.276,0,0.5-0.224,0.5-0.5V7.5z M13,8V3l5,5H13z"/>
	</g>
</g>
<g id="Invisible_Shape">
	<rect fill="none" width="24" height="24"/>
</g>
</svg>
