<?xml version="1.0" encoding="utf-8"?>
<!-- Generator: Adobe Illustrator 19.2.1, SVG Export Plug-In . SVG Version: 6.00 Build 0)  -->
<svg version="1.1" xmlns="http://www.w3.org/2000/svg" xmlns:xlink="http://www.w3.org/1999/xlink" x="0px" y="0px" width="24px"
	 height="24px" viewBox="0 0 24 24" enable-background="new 0 0 24 24" xml:space="preserve">
<g id="Filled_Icons">
	<g>
		<path d="M12,19.5v-7.332c0-1.208,1.369-1.922,2.359-1.229c1.105,0.773,1.976,0.964,2.641,0.448V5.5
			c0-0.133-0.053-0.26-0.146-0.353l-5-5C11.76,0.053,11.632,0,11.5,0h-11C0.224,0,0,0.224,0,0.5v21C0,21.776,0.224,22,0.5,22h12.802
			C12.461,21.086,12,20.165,12,19.5z M11,1l5,5h-5V1z M3.5,6H8c0.276,0,0.5,0.224,0.5,0.5S8.276,7,8,7H3.5C3.224,7,3,6.776,3,6.5
			S3.224,6,3.5,6z M8.5,16h-5C3.224,16,3,15.776,3,15.5S3.224,15,3.5,15h5C8.776,15,9,15.224,9,15.5S8.776,16,8.5,16z M9.5,13h-6
			C3.224,13,3,12.776,3,12.5S3.224,12,3.5,12h6c0.276,0,0.5,0.224,0.5,0.5S9.776,13,9.5,13z M11.5,10h-8C3.224,10,3,9.776,3,9.5
			S3.224,9,3.5,9h8C11.776,9,12,9.224,12,9.5S11.776,10,11.5,10z"/>
		<path d="M23.213,11.759c-1.771,1.241-3.306,1.222-4.315-0.066c-0.189-0.243-0.605-0.243-0.795,0
			c-1.013,1.292-2.538,1.311-4.315,0.066C13.457,11.528,13,11.765,13,12.168V19.5c0,0.969,1.848,3.379,5.365,4.365
			c0.084,0.022,0.179,0.024,0.27,0C22.152,22.879,24,20.469,24,19.5v-7.332C24,11.765,23.543,11.528,23.213,11.759z M21,18h-2v2
			c0,0.276-0.224,0.5-0.5,0.5S18,20.276,18,20v-2h-2c-0.276,0-0.5-0.224-0.5-0.5S15.724,17,16,17h2v-2c0-0.276,0.224-0.5,0.5-0.5
			S19,14.724,19,15v2h2c0.276,0,0.5,0.224,0.5,0.5S21.276,18,21,18z"/>
	</g>
</g>
<g id="Invisible_Shape">
	<rect fill="none" width="24" height="24"/>
</g>
</svg>
