<?xml version="1.0" encoding="utf-8"?>
<!-- Generator: Adobe Illustrator 19.2.1, SVG Export Plug-In . SVG Version: 6.00 Build 0)  -->
<svg version="1.1" xmlns="http://www.w3.org/2000/svg" xmlns:xlink="http://www.w3.org/1999/xlink" x="0px" y="0px" width="24px"
	 height="24px" viewBox="0 0 24 24" enable-background="new 0 0 24 24" xml:space="preserve">
<g id="Filled_Icons">
	<g>
		<path d="M12,15.5c0-0.827,0.673-1.5,1.5-1.5h0.528c0.193-1.734,1.379-3.165,2.972-3.731V5.5c0-0.133-0.053-0.26-0.146-0.353l-5-5
			C11.76,0.053,11.632,0,11.5,0h-11C0.224,0,0,0.224,0,0.5v21C0,21.776,0.224,22,0.5,22H12V15.5z M11,1l5,5h-5V1z M3.5,6H8
			c0.276,0,0.5,0.224,0.5,0.5S8.276,7,8,7H3.5C3.224,7,3,6.776,3,6.5S3.224,6,3.5,6z M8.5,16h-5C3.224,16,3,15.776,3,15.5
			S3.224,15,3.5,15h5C8.776,15,9,15.224,9,15.5S8.776,16,8.5,16z M9.5,13h-6C3.224,13,3,12.776,3,12.5S3.224,12,3.5,12h6
			c0.276,0,0.5,0.224,0.5,0.5S9.776,13,9.5,13z M3.5,10C3.224,10,3,9.776,3,9.5S3.224,9,3.5,9h8C11.776,9,12,9.224,12,9.5
			S11.776,10,11.5,10H3.5z"/>
		<path d="M23.5,15H22v-0.5c0-1.929-1.57-3.5-3.5-3.5S15,12.571,15,14.5V15h-1.5c-0.276,0-0.5,0.224-0.5,0.5v8
			c0,0.276,0.224,0.5,0.5,0.5h10c0.276,0,0.5-0.224,0.5-0.5v-8C24,15.224,23.776,15,23.5,15z M19,19.348V21
			c0,0.276-0.224,0.5-0.5,0.5S18,21.276,18,21v-1.652c-0.293-0.175-0.5-0.483-0.5-0.848c0-0.551,0.448-1,1-1s1,0.449,1,1
			C19.5,18.865,19.293,19.172,19,19.348z M21,15h-5v-0.5c0-1.378,1.121-2.5,2.5-2.5s2.5,1.122,2.5,2.5V15z"/>
	</g>
</g>
<g id="Invisible_Shape">
	<rect fill="none" width="24" height="24"/>
</g>
</svg>
