<?xml version="1.0" encoding="utf-8"?>
<!-- Generator: Adobe Illustrator 19.2.1, SVG Export Plug-In . SVG Version: 6.00 Build 0)  -->
<svg version="1.1" xmlns="http://www.w3.org/2000/svg" xmlns:xlink="http://www.w3.org/1999/xlink" x="0px" y="0px" width="24px"
	 height="24px" viewBox="0 0 24 24" enable-background="new 0 0 24 24" xml:space="preserve">
<g id="Filled_Icons">
	<g>
		<path d="M13.753,19.498l-2.214-1.845c-0.485-0.405-0.665-1.07-0.45-1.663C11.305,15.396,11.869,15,12.5,15h2.575l1.592-3.173
			c0.083-0.165,0.201-0.301,0.333-0.422V5.5c0-0.133-0.053-0.26-0.146-0.353l-5-5C11.76,0.053,11.632,0,11.5,0h-11
			C0.224,0,0,0.224,0,0.5v21C0,21.776,0.224,22,0.5,22h12.419L13.753,19.498z M11,1l5,5h-5V1z M3.5,6H8c0.276,0,0.5,0.224,0.5,0.5
			S8.276,7,8,7H3.5C3.224,7,3,6.776,3,6.5S3.224,6,3.5,6z M3.5,9h8C11.776,9,12,9.224,12,9.5S11.776,10,11.5,10h-8
			C3.224,10,3,9.776,3,9.5S3.224,9,3.5,9z M8.5,16h-5C3.224,16,3,15.776,3,15.5S3.224,15,3.5,15h5C8.776,15,9,15.224,9,15.5
			S8.776,16,8.5,16z M9.5,13h-6C3.224,13,3,12.776,3,12.5S3.224,12,3.5,12h6c0.276,0,0.5,0.224,0.5,0.5S9.776,13,9.5,13z"/>
		<path d="M23.97,16.33C23.898,16.132,23.71,16,23.5,16h-3.19l-1.854-3.723C18.371,12.107,18.198,12,18.009,12
			c-0.219-0.038-0.363,0.106-0.448,0.276L15.691,16H12.5c-0.21,0-0.398,0.132-0.47,0.33c-0.072,0.199-0.012,0.42,0.15,0.555
			l2.738,2.281l-1.392,4.178c-0.068,0.205,0.002,0.428,0.173,0.559c0.089,0.066,0.195,0.1,0.301,0.1
			c0.099,0,0.198-0.029,0.283-0.088L18,21.361l3.717,2.552c0.177,0.122,0.413,0.117,0.584-0.013s0.242-0.354,0.173-0.558
			l-1.392-4.177l2.738-2.281C23.982,16.75,24.042,16.528,23.97,16.33z"/>
	</g>
</g>
<g id="Invisible_Shape">
	<rect fill="none" width="24" height="24"/>
</g>
</svg>
