<?xml version="1.0" encoding="utf-8"?>
<!-- Generator: Adobe Illustrator 19.2.1, SVG Export Plug-In . SVG Version: 6.00 Build 0)  -->
<svg version="1.1" xmlns="http://www.w3.org/2000/svg" xmlns:xlink="http://www.w3.org/1999/xlink" x="0px" y="0px" width="24px"
	 height="24px" viewBox="0 0 24 24" enable-background="new 0 0 24 24" xml:space="preserve">
<g id="Filled_Icons">
	<path d="M23.854,9.146l-6-6C17.76,3.053,17.632,3,17.5,3h-17C0.224,3,0,3.224,0,3.5v17C0,20.776,0.224,21,0.5,21h23
		c0.276,0,0.5-0.224,0.5-0.5v-11C24,9.367,23.947,9.24,23.854,9.146z M5.5,7h7C12.776,7,13,7.224,13,7.5S12.776,8,12.5,8h-7
		C5.224,8,5,7.776,5,7.5S5.224,7,5.5,7z M5.5,10h7c0.276,0,0.5,0.224,0.5,0.5S12.776,11,12.5,11h-7C5.224,11,5,10.776,5,10.5
		S5.224,10,5.5,10z M18.5,17h-13C5.224,17,5,16.776,5,16.5S5.224,16,5.5,16h13c0.276,0,0.5,0.224,0.5,0.5S18.776,17,18.5,17z
		 M18.5,14h-13C5.224,14,5,13.776,5,13.5S5.224,13,5.5,13h13c0.276,0,0.5,0.224,0.5,0.5S18.776,14,18.5,14z M17,10V4l6,6H17z"/>
</g>
<g id="Invisible_Shape">
	<rect fill="none" width="24" height="24"/>
</g>
</svg>
