<?xml version="1.0" encoding="utf-8"?>
<!-- Generator: Adobe Illustrator 19.2.1, SVG Export Plug-In . SVG Version: 6.00 Build 0)  -->
<svg version="1.1" xmlns="http://www.w3.org/2000/svg" xmlns:xlink="http://www.w3.org/1999/xlink" x="0px" y="0px" width="24px"
	 height="24px" viewBox="0 0 24 24" enable-background="new 0 0 24 24" xml:space="preserve">
<g id="Filled_Icons">
	<g>
		<path d="M2.5,19C2.224,19,2,18.776,2,18.5V6H0.5C0.224,6,0,6.224,0,6.5v14C0,20.776,0.224,21,0.5,21h20c0.276,0,0.5-0.224,0.5-0.5
			V19H2.5z"/>
		<path d="M23.854,9.146l-6-6C17.76,3.053,17.633,3,17.5,3h-14C3.224,3,3,3.224,3,3.5v14C3,17.776,3.224,18,3.5,18h20
			c0.276,0,0.5-0.224,0.5-0.5v-8C24,9.367,23.947,9.24,23.854,9.146z M17,10V4l6,6H17z"/>
	</g>
</g>
<g id="Invisible_Shape">
	<rect fill="none" width="24" height="24"/>
</g>
</svg>
