<?xml version="1.0" encoding="utf-8"?>
<!-- Generator: Adobe Illustrator 19.2.1, SVG Export Plug-In . SVG Version: 6.00 Build 0)  -->
<svg version="1.1" xmlns="http://www.w3.org/2000/svg" xmlns:xlink="http://www.w3.org/1999/xlink" x="0px" y="0px" width="24px"
	 height="24px" viewBox="0 0 24 24" enable-background="new 0 0 24 24" xml:space="preserve">
<g id="Filled_Icons">
	<g>
		<path d="M10,17.5c0-3.967,3.098-7.215,7-7.474V5.5c0-0.133-0.053-0.26-0.146-0.353l-5-5C11.76,0.053,11.632,0,11.5,0h-11
			C0.224,0,0,0.224,0,0.5v21C0,21.777,0.224,22,0.5,22h11.015C10.568,20.745,10,19.19,10,17.5z M11,1l5,5h-5V1z M3.5,6H8
			c0.276,0,0.5,0.224,0.5,0.5C8.5,6.777,8.276,7,8,7H3.5C3.224,7,3,6.777,3,6.5C3,6.224,3.224,6,3.5,6z M3.5,9h8
			C11.776,9,12,9.224,12,9.5c0,0.277-0.224,0.5-0.5,0.5h-8C3.224,10,3,9.777,3,9.5C3,9.224,3.224,9,3.5,9z M8.5,16h-5
			C3.224,16,3,15.777,3,15.5C3,15.224,3.224,15,3.5,15h5C8.776,15,9,15.224,9,15.5C9,15.777,8.776,16,8.5,16z M9.5,13h-6
			C3.224,13,3,12.777,3,12.5C3,12.224,3.224,12,3.5,12h6c0.276,0,0.5,0.224,0.5,0.5C10,12.777,9.776,13,9.5,13z"/>
		<path d="M17.5,11c-3.584,0-6.5,2.915-6.5,6.5c0,3.584,2.916,6.5,6.5,6.5s6.5-2.916,6.5-6.5C24,13.915,21.084,11,17.5,11z
			 M17.5,16.929c1.042,0,1.891,0.849,1.891,1.892c0,0.868-0.592,1.594-1.391,1.815v0.503c0,0.275-0.224,0.5-0.5,0.5
			s-0.5-0.225-0.5-0.5v-0.503c-0.799-0.221-1.391-0.947-1.391-1.815c0-0.276,0.224-0.5,0.5-0.5c0.276,0,0.5,0.224,0.5,0.5
			c0,0.491,0.399,0.891,0.891,0.891s0.891-0.4,0.891-0.891c0-0.491-0.399-0.892-0.891-0.892c-1.042,0-1.891-0.848-1.891-1.891
			c0-0.868,0.592-1.594,1.391-1.815V13.72c0-0.276,0.224-0.5,0.5-0.5s0.5,0.224,0.5,0.5v0.504c0.799,0.221,1.391,0.947,1.391,1.815
			c0,0.276-0.224,0.5-0.5,0.5c-0.276,0-0.5-0.224-0.5-0.5c0-0.49-0.399-0.89-0.891-0.89s-0.891,0.4-0.891,0.89
			C16.609,16.53,17.009,16.929,17.5,16.929z"/>
	</g>
</g>
<g id="Invisible_Shape">
	<rect fill="none" width="24" height="24"/>
</g>
</svg>
