<?xml version="1.0" encoding="utf-8"?>
<!-- Generator: Adobe Illustrator 19.2.1, SVG Export Plug-In . SVG Version: 6.00 Build 0)  -->
<svg version="1.1" xmlns="http://www.w3.org/2000/svg" xmlns:xlink="http://www.w3.org/1999/xlink" x="0px" y="0px" width="24px"
	 height="24px" viewBox="0 0 24 24" enable-background="new 0 0 24 24" xml:space="preserve">
<g id="Filled_Icons">
	<g>
		<path d="M13.261,19.499l-2.214-1.844c-1.076-0.894-0.444-2.653,0.96-2.653h2.572l1.578-3.169c0.176-0.355,0.482-0.608,0.842-0.735
			V5.5c0-0.133-0.053-0.26-0.146-0.353l-5-5C11.76,0.053,11.632,0,11.5,0h-11C0.224,0,0,0.224,0,0.5v21C0,21.776,0.224,22,0.5,22
			h11.927L13.261,19.499z M11,1l5,5h-5V1z"/>
		<path d="M23,16h-3.191l-1.854-3.724c-0.177-0.357-0.715-0.376-0.902,0.002l-1.854,3.723h-3.191c-0.468,0-0.679,0.586-0.32,0.885
			l2.738,2.281l-1.391,4.17c-0.162,0.465,0.352,0.845,0.748,0.569l3.723-2.545l3.719,2.543c0.398,0.276,0.911-0.108,0.748-0.57
			l-1.391-4.169l2.738-2.282C23.675,16.59,23.472,16,23,16z"/>
	</g>
</g>
<g id="Invisible_Shape">
	<rect fill="none" width="24" height="24"/>
</g>
</svg>
