<?xml version="1.0" encoding="utf-8"?>
<!-- Generator: Adobe Illustrator 19.2.1, SVG Export Plug-In . SVG Version: 6.00 Build 0)  -->
<svg version="1.1" xmlns="http://www.w3.org/2000/svg" xmlns:xlink="http://www.w3.org/1999/xlink" x="0px" y="0px" width="24px"
	 height="24px" viewBox="0 0 24 24" enable-background="new 0 0 24 24" xml:space="preserve">
<g id="Filled_Icons">
	<g>
		<path d="M17.5,11c-3.584,0-6.5,2.915-6.5,6.5c0,3.584,2.916,6.5,6.5,6.5s6.5-2.916,6.5-6.5C24,13.915,21.084,11,17.5,11z
			 M22.05,14.405c0,0-0.584,2.255-0.592,2.274c-0.099,0.252-0.375,0.369-0.581,0.305l-2.218-0.564
			c-0.268-0.068-0.429-0.341-0.36-0.608c0.067-0.268,0.339-0.431,0.607-0.36l1.202,0.306c-0.896-1.436-2.539-1.953-3.985-1.53
			c-1.885,0.548-2.964,2.518-2.414,4.396c0.54,1.862,2.491,2.97,4.398,2.417c0.264-0.081,0.543,0.074,0.619,0.339
			c0.078,0.265-0.074,0.544-0.34,0.619c-2.371,0.698-4.926-0.647-5.639-3.092c-0.702-2.41,0.676-4.934,3.096-5.639
			c1.776-0.518,3.808,0.056,5.005,1.803l0.233-0.912c0.067-0.268,0.34-0.43,0.608-0.36C21.957,13.865,22.118,14.138,22.05,14.405z"
			/>
		<path d="M10,17.5c0-3.967,3.098-7.215,7-7.474V5.5c0-0.133-0.053-0.26-0.146-0.353l-5-5C11.76,0.053,11.632,0,11.5,0h-11
			C0.224,0,0,0.224,0,0.5v21C0,21.776,0.224,22,0.5,22h11.015C10.568,20.745,10,19.19,10,17.5z M11,1l5,5h-5V1z M3.5,6H8
			c0.276,0,0.5,0.224,0.5,0.5S8.276,7,8,7H3.5C3.224,7,3,6.776,3,6.5S3.224,6,3.5,6z M3.5,9h8C11.776,9,12,9.224,12,9.5
			S11.776,10,11.5,10h-8C3.224,10,3,9.776,3,9.5S3.224,9,3.5,9z M8.5,16h-5C3.224,16,3,15.776,3,15.5S3.224,15,3.5,15h5
			C8.776,15,9,15.224,9,15.5S8.776,16,8.5,16z M9.5,13h-6C3.224,13,3,12.776,3,12.5S3.224,12,3.5,12h6c0.276,0,0.5,0.224,0.5,0.5
			S9.776,13,9.5,13z"/>
	</g>
</g>
<g id="Invisible_Shape">
	<rect fill="none" width="24" height="24"/>
</g>
</svg>
