<?xml version="1.0" encoding="utf-8"?>
<!-- Generator: Adobe Illustrator 19.2.1, SVG Export Plug-In . SVG Version: 6.00 Build 0)  -->
<svg version="1.1" xmlns="http://www.w3.org/2000/svg" xmlns:xlink="http://www.w3.org/1999/xlink" x="0px" y="0px" width="24px"
	 height="24px" viewBox="0 0 24 24" enable-background="new 0 0 24 24" xml:space="preserve">
<g id="Filled_Icons">
	<g>
		<path d="M17.5,11c-3.584,0-6.5,2.915-6.5,6.5c0,3.584,2.916,6.5,6.5,6.5s6.5-2.916,6.5-6.5C24,13.915,21.084,11,17.5,11z
			 M18.207,17.5l2.347,2.346c0.195,0.196,0.195,0.513,0,0.707c-0.195,0.195-0.512,0.195-0.707,0L17.5,18.206l-2.347,2.347
			c-0.195,0.195-0.512,0.195-0.707,0c-0.195-0.194-0.195-0.511,0-0.707l2.347-2.346l-2.347-2.346c-0.195-0.195-0.195-0.512,0-0.707
			c0.195-0.195,0.512-0.195,0.707,0l2.347,2.347l2.347-2.347c0.195-0.195,0.512-0.195,0.707,0c0.195,0.195,0.195,0.512,0,0.707
			L18.207,17.5z"/>
		<path d="M10,17.5c0-3.967,3.098-7.215,7-7.474V5.5c0-0.133-0.053-0.26-0.146-0.353l-5-5C11.76,0.053,11.632,0,11.5,0h-11
			C0.224,0,0,0.224,0,0.5v21C0,21.776,0.224,22,0.5,22h11.015C10.568,20.745,10,19.19,10,17.5z M11,1l5,5h-5V1z M3.5,6H8
			c0.276,0,0.5,0.224,0.5,0.5S8.276,7,8,7H3.5C3.224,7,3,6.776,3,6.5S3.224,6,3.5,6z M3.5,9h8C11.776,9,12,9.224,12,9.5
			S11.776,10,11.5,10h-8C3.224,10,3,9.776,3,9.5S3.224,9,3.5,9z M8.5,16h-5C3.224,16,3,15.776,3,15.5S3.224,15,3.5,15h5
			C8.776,15,9,15.224,9,15.5S8.776,16,8.5,16z M9.5,13h-6C3.224,13,3,12.776,3,12.5S3.224,12,3.5,12h6c0.276,0,0.5,0.224,0.5,0.5
			S9.776,13,9.5,13z"/>
	</g>
</g>
<g id="Invisible_Shape">
	<rect fill="none" width="24" height="24"/>
</g>
</svg>
