<?xml version="1.0" encoding="utf-8"?>
<!-- Generator: Adobe Illustrator 19.2.1, SVG Export Plug-In . SVG Version: 6.00 Build 0)  -->
<svg version="1.1" xmlns="http://www.w3.org/2000/svg" xmlns:xlink="http://www.w3.org/1999/xlink" x="0px" y="0px" width="24px"
	 height="24px" viewBox="0 0 24 24" enable-background="new 0 0 24 24" xml:space="preserve">
<g id="Filled_Icons">
	<g>
		<path d="M23.854,7.147l-5-5C18.76,2.053,18.632,2,18.5,2h-6C12.224,2,12,2.224,12,2.5v19c0,0.276,0.224,0.5,0.5,0.5h11
			c0.276,0,0.5-0.224,0.5-0.5v-14C24,7.367,23.947,7.24,23.854,7.147z M18,8V3l5,5H18z"/>
		<path d="M10.5,2h-5C5.368,2,5.24,2.053,5.147,2.147l-5,5C0.053,7.24,0,7.367,0,7.5v14C0,21.776,0.224,22,0.5,22h10
			c0.276,0,0.5-0.224,0.5-0.5v-19C11,2.224,10.776,2,10.5,2z M6,8H1l5-5V8z"/>
	</g>
</g>
<g id="Invisible_Shape">
	<rect fill="none" width="24" height="24"/>
</g>
</svg>
