<?xml version="1.0" encoding="utf-8"?>
<!-- Generator: Adobe Illustrator 19.2.1, SVG Export Plug-In . SVG Version: 6.00 Build 0)  -->
<svg version="1.1" xmlns="http://www.w3.org/2000/svg" xmlns:xlink="http://www.w3.org/1999/xlink" x="0px" y="0px" width="24px"
	 height="24px" viewBox="0 0 24 24" enable-background="new 0 0 24 24" xml:space="preserve">
<g id="Filled_Icons">
	<g>
		<path d="M14,4.5c0-0.133-0.053-0.26-0.146-0.353l-4-4C9.76,0.053,9.632,0,9.5,0h-9C0.224,0,0,0.224,0,0.5v17
			C0,17.776,0.224,18,0.5,18H9V6.5C9,6.224,9.224,6,9.5,6H14V4.5z M10,4V1.5L12.5,4H10z"/>
		<path d="M23.831,11.125l-4.003-4.002C19.737,7.043,19.621,7,19.5,7h-9C10.224,7,10,7.224,10,7.5v16c0,0.276,0.224,0.5,0.5,0.5h13
			c0.276,0,0.5-0.224,0.5-0.5v-12C24,11.356,23.938,11.22,23.831,11.125z M20,11V8.5l2.5,2.5H20z"/>
		<path d="M15.647,2.853l1.999,2c0.195,0.195,0.512,0.195,0.707,0c0.195-0.195,0.195-0.512,0-0.707L17.207,3H21c0.551,0,1,0.448,1,1
			v1.5C22,5.776,22.224,6,22.5,6S23,5.776,23,5.5V4c0-1.103-0.897-2-2-2h-3.793l1.146-1.146c0.195-0.195,0.195-0.512,0-0.707
			c-0.195-0.195-0.512-0.195-0.707,0l-1.999,1.999C15.453,2.338,15.452,2.661,15.647,2.853z"/>
		<path d="M8.353,21.146l-1.999-1.999c-0.195-0.195-0.512-0.195-0.707,0c-0.195,0.195-0.195,0.512,0,0.707L6.793,21H3
			c-0.551,0-1-0.449-1-1v-0.5C2,19.224,1.776,19,1.5,19S1,19.224,1,19.5V20c0,1.103,0.898,2,2,2h3.793l-1.147,1.146
			c-0.195,0.195-0.195,0.512,0,0.707c0.195,0.195,0.512,0.195,0.707,0l1.999-2C8.551,21.658,8.544,21.335,8.353,21.146z"/>
	</g>
</g>
<g id="Invisible_Shape">
	<rect fill="none" width="24" height="24"/>
</g>
</svg>
