<?xml version="1.0" encoding="utf-8"?>
<!-- Generator: Adobe Illustrator 19.2.1, SVG Export Plug-In . SVG Version: 6.00 Build 0)  -->
<svg version="1.1" xmlns="http://www.w3.org/2000/svg" xmlns:xlink="http://www.w3.org/1999/xlink" x="0px" y="0px" width="24px"
	 height="24px" viewBox="0 0 24 24" enable-background="new 0 0 24 24" xml:space="preserve">
<g id="Filled_Icons">
	<g>
		<g>
			<path d="M17,10.026V5.5c0-0.133-0.053-0.26-0.146-0.353l-5-5C11.76,0.053,11.632,0,11.5,0h-11C0.224,0,0,0.224,0,0.5v21
				C0,21.776,0.224,22,0.5,22h11.014C10.568,20.744,10,19.19,10,17.5C10,13.533,13.098,10.284,17,10.026z M11,1l5,5h-5V1z"/>
		</g>
		<path d="M17.5,11c-3.584,0-6.5,2.915-6.5,6.5c0,3.584,2.916,6.5,6.5,6.5s6.5-2.916,6.5-6.5C24,13.915,21.084,11,17.5,11z
			 M18.207,17.5l2.347,2.346c0.195,0.196,0.195,0.513,0,0.707c-0.195,0.195-0.512,0.195-0.707,0L17.5,18.206l-2.347,2.347
			c-0.195,0.195-0.512,0.195-0.707,0c-0.195-0.194-0.195-0.511,0-0.707l2.347-2.346l-2.347-2.346c-0.195-0.195-0.195-0.512,0-0.707
			c0.195-0.195,0.512-0.195,0.707,0l2.347,2.347l2.347-2.347c0.195-0.195,0.512-0.195,0.707,0c0.195,0.195,0.195,0.512,0,0.707
			L18.207,17.5z"/>
	</g>
</g>
<g id="Invisible_Shape">
	<rect fill="none" width="24" height="24"/>
</g>
</svg>
