<?xml version="1.0" encoding="utf-8"?>
<!-- Generator: Adobe Illustrator 19.2.1, SVG Export Plug-In . SVG Version: 6.00 Build 0)  -->
<svg version="1.1" xmlns="http://www.w3.org/2000/svg" xmlns:xlink="http://www.w3.org/1999/xlink" x="0px" y="0px" width="24px"
	 height="24px" viewBox="0 0 24 24" enable-background="new 0 0 24 24" xml:space="preserve">
<g id="Filled_Icons">
	<g>
		<path d="M16.158,10.829c0.174-0.346,0.48-0.592,0.842-0.715V5.5c0-0.133-0.053-0.26-0.146-0.353l-5-5C11.76,0.053,11.632,0,11.5,0
			h-11C0.224,0,0,0.224,0,0.5v21C0,21.776,0.224,22,0.5,22h10.073L16.158,10.829z M11,1l5,5h-5V1z"/>
		<path d="M23.947,23.276l-6-12c-0.17-0.338-0.725-0.338-0.895,0l-6,12C10.887,23.61,11.128,24,11.5,24h12
			C23.872,24,24.113,23.61,23.947,23.276z M17.5,22c-0.276,0-0.5-0.224-0.5-0.5s0.224-0.5,0.5-0.5s0.5,0.224,0.5,0.5
			S17.776,22,17.5,22z M18,20c0,0.276-0.224,0.5-0.5,0.5S17,20.276,17,20v-3.5c0-0.276,0.224-0.5,0.5-0.5s0.5,0.224,0.5,0.5V20z"/>
	</g>
</g>
<g id="Invisible_Shape">
	<rect fill="none" width="24" height="24"/>
</g>
</svg>
