<?xml version="1.0" encoding="utf-8"?>
<!-- Generator: Adobe Illustrator 19.2.1, SVG Export Plug-In . SVG Version: 6.00 Build 0)  -->
<svg version="1.1" xmlns="http://www.w3.org/2000/svg" xmlns:xlink="http://www.w3.org/1999/xlink" x="0px" y="0px" width="24px"
	 height="24px" viewBox="0 0 24 24" enable-background="new 0 0 24 24" xml:space="preserve">
<g id="Filled_Icons">
	<g>
		<path d="M11,16.5c0-2.841,2.147-4.538,4.223-4.538c0.629,0,1.228,0.168,1.777,0.452V5.5c0-0.133-0.053-0.26-0.146-0.353l-5-5
			C11.76,0.053,11.632,0,11.5,0h-11C0.224,0,0,0.224,0,0.5v21C0,21.776,0.224,22,0.5,22h13.535C12.5,20.429,11,18.409,11,16.5z
			 M11,1l5,5h-5V1z"/>
		<path d="M20.777,12.962c-0.951,0-2.071,0.492-2.777,1.786c-0.706-1.293-1.826-1.786-2.777-1.786C13.639,12.962,12,14.285,12,16.5
			c0,3.181,5.473,7.196,5.706,7.367c0.173,0.126,0.415,0.126,0.588,0C18.527,23.696,24,19.681,24,16.5
			C24,14.285,22.361,12.962,20.777,12.962z"/>
	</g>
</g>
<g id="Invisible_Shape">
	<rect fill="none" width="24" height="24"/>
</g>
</svg>
