<?xml version="1.0" encoding="utf-8"?>
<!-- Generator: Adobe Illustrator 19.2.1, SVG Export Plug-In . SVG Version: 6.00 Build 0)  -->
<svg version="1.1" xmlns="http://www.w3.org/2000/svg" xmlns:xlink="http://www.w3.org/1999/xlink" x="0px" y="0px" width="24px"
	 height="24px" viewBox="0 0 24 24" enable-background="new 0 0 24 24" xml:space="preserve">
<g id="Filled_Icons">
	<g>
		<path d="M11.932,19.41c-0.817-3.557,3.175-7.746,5.068-7.073V5.5c0-0.133-0.053-0.26-0.146-0.353l-5-5
			C11.76,0.053,11.632,0,11.5,0h-11C0.224,0,0,0.224,0,0.5v21C0,21.776,0.224,22,0.5,22l8.884,0L11.932,19.41z M11,1l5,5h-5V1z"/>
		<path d="M23.377,10.922c-0.105,0.014-2.612,0.37-4.919,1.383c-0.172,0.075-0.288,0.241-0.298,0.429
			c-0.001,0.019-0.114,1.745-1.159,2.171v-1.171c0-0.299-0.259-0.524-0.547-0.498c-1.2,0.115-4.579,3.571-3.397,6.463l-1.678,1.678
			c-0.586,0.586-0.586,1.536,0,2.121c0.586,0.587,1.535,0.587,2.121,0l1.933-1.932c2.938,0.207,6.997-3.518,8.502-10.037
			C24.011,11.19,23.727,10.873,23.377,10.922z M18.667,16.918l-5.875,5.874c-0.196,0.197-0.512,0.195-0.707,0
			c-0.195-0.195-0.195-0.511,0-0.707l5.875-5.875c0.195-0.195,0.512-0.195,0.707,0C18.862,16.406,18.862,16.723,18.667,16.918z"/>
	</g>
</g>
<g id="Invisible_Shape">
	<rect fill="none" width="24" height="24"/>
</g>
</svg>
