<?xml version="1.0" encoding="utf-8"?>
<!-- Generator: Adobe Illustrator 19.2.1, SVG Export Plug-In . SVG Version: 6.00 Build 0)  -->
<svg version="1.1" xmlns="http://www.w3.org/2000/svg" xmlns:xlink="http://www.w3.org/1999/xlink" x="0px" y="0px" width="24px"
	 height="24px" viewBox="0 0 24 24" enable-background="new 0 0 24 24" xml:space="preserve">
<g id="Filled_Icons">
	<g>
		<path d="M12,18.901c-0.576,0.192-1.256,0.035-1.652-0.44c-0.529-0.636-0.443-1.584,0.191-2.113l6.001-5
			c0.137-0.113,0.294-0.198,0.46-0.254V5.5c0-0.133-0.053-0.26-0.146-0.353l-5-5C11.76,0.053,11.632,0,11.5,0h-11
			C0.224,0,0,0.224,0,0.5v21C0,21.776,0.224,22,0.5,22H12V18.901z M11,1l5,5h-5V1z"/>
		<g>
			<path d="M17.5,14.453l-4.5,3.75V23.5c0,0.276,0.224,0.5,0.5,0.5h8c0.276,0,0.5-0.224,0.5-0.5v-5.297L17.5,14.453z"/>
			<g>
				<path d="M23.18,17.885l-5.68-4.734l-5.68,4.734c-0.213,0.176-0.528,0.147-0.705-0.065c-0.177-0.212-0.148-0.528,0.064-0.705l6-5
					c0.185-0.154,0.455-0.154,0.641,0l6,5c0.212,0.177,0.241,0.492,0.064,0.705C23.708,18.032,23.394,18.062,23.18,17.885z"/>
			</g>
		</g>
	</g>
</g>
<g id="Invisible_Shape">
	<rect fill="none" width="24" height="24"/>
</g>
</svg>
