<?xml version="1.0" encoding="utf-8"?>
<!-- Generator: Adobe Illustrator 19.2.1, SVG Export Plug-In . SVG Version: 6.00 Build 0)  -->
<svg version="1.1" xmlns="http://www.w3.org/2000/svg" xmlns:xlink="http://www.w3.org/1999/xlink" x="0px" y="0px" width="24px"
	 height="24px" viewBox="0 0 24 24" enable-background="new 0 0 24 24" xml:space="preserve">
<g id="Filled_Icons">
	<g>
		<path d="M13.5,22c-1.93,0-3.5-1.57-3.5-3.5s1.57-3.5,3.5-3.5c0.811,0,1.548,0.288,2.142,0.752L17,15.073c0-2.7,0,4.355,0-9.573
			c0-0.133-0.053-0.26-0.146-0.353l-5-5C11.76,0.053,11.632,0,11.5,0h-11C0.224,0,0,0.224,0,0.5v21C0,21.776,0.224,22,0.5,22
			C0.5,22,14.443,22,13.5,22z M11,1l5,5h-5V1z M3.5,6H8c0.276,0,0.5,0.224,0.5,0.5S8.276,7,8,7H3.5C3.224,7,3,6.776,3,6.5
			S3.224,6,3.5,6z M3.5,9h8C11.776,9,12,9.224,12,9.5S11.776,10,11.5,10h-8C3.224,10,3,9.776,3,9.5S3.224,9,3.5,9z M8.5,16h-5
			C3.224,16,3,15.776,3,15.5S3.224,15,3.5,15h5C8.776,15,9,15.224,9,15.5S8.776,16,8.5,16z M9.5,13h-6C3.224,13,3,12.776,3,12.5
			S3.224,12,3.5,12h6c0.276,0,0.5,0.224,0.5,0.5S9.776,13,9.5,13z"/>
		<path d="M21.5,19c-0.891,0-1.668,0.472-2.111,1.174l-3.428-1.285c0.054-0.342,0.067-0.575-0.056-1.032l3.638-1.82
			C20.002,16.619,20.704,17,21.5,17c1.378,0,2.5-1.122,2.5-2.5S22.878,12,21.5,12c-1.584,0-2.849,1.494-2.405,3.144l-3.638,1.819
			C14.998,16.381,14.296,16,13.5,16c-1.378,0-2.5,1.122-2.5,2.5s1.122,2.5,2.5,2.5c0.891,0,1.668-0.472,2.111-1.174l3.428,1.286
			C18.79,22.699,20.026,24,21.5,24c1.378,0,2.5-1.122,2.5-2.5S22.878,19,21.5,19z M21.5,13c0.827,0,1.5,0.673,1.5,1.5
			S22.327,16,21.5,16S20,15.327,20,14.5S20.673,13,21.5,13z M13.5,20c-0.827,0-1.5-0.673-1.5-1.5s0.673-1.5,1.5-1.5
			s1.5,0.673,1.5,1.5S14.327,20,13.5,20z M21.5,23c-0.827,0-1.5-0.673-1.5-1.5s0.673-1.5,1.5-1.5s1.5,0.673,1.5,1.5
			S22.327,23,21.5,23z"/>
	</g>
</g>
<g id="Invisible_Shape">
	<rect fill="none" width="24" height="24"/>
</g>
</svg>
