<?xml version="1.0" encoding="utf-8"?>
<!-- Generator: Adobe Illustrator 19.2.1, SVG Export Plug-In . SVG Version: 6.00 Build 0)  -->
<svg version="1.1" xmlns="http://www.w3.org/2000/svg" xmlns:xlink="http://www.w3.org/1999/xlink" x="0px" y="0px" width="24px"
	 height="24px" viewBox="0 0 24 24" enable-background="new 0 0 24 24" xml:space="preserve">
<g id="Filled_Icons">
	<g>
		<g>
			<path d="M17,10.026V5.5c0-0.133-0.053-0.26-0.146-0.353l-5-5C11.76,0.053,11.632,0,11.5,0h-11C0.224,0,0,0.224,0,0.5v21
				C0,21.776,0.224,22,0.5,22h11.014C10.568,20.744,10,19.19,10,17.5C10,13.533,13.098,10.284,17,10.026z M11,1l5,5h-5V1z"/>
		</g>
		<path d="M17.5,11c-3.59,0-6.5,2.911-6.5,6.5c0,3.59,2.91,6.5,6.5,6.5s6.5-2.91,6.5-6.5C24,13.911,21.09,11,17.5,11z M20,17
			c-0.195,0.195-0.512,0.195-0.707,0L18,15.707V20.5c0,0.276-0.224,0.5-0.5,0.5S17,20.776,17,20.5v-4.793L15.707,17
			c-0.195,0.195-0.512,0.195-0.707,0c-0.195-0.195-0.195-0.511,0-0.707l2.146-2.146c0.195-0.195,0.512-0.195,0.707,0L20,16.293
			C20.195,16.489,20.195,16.805,20,17z"/>
	</g>
</g>
<g id="Invisible_Shape">
	<rect fill="none" width="24" height="24"/>
</g>
</svg>
