<?xml version="1.0" encoding="utf-8"?>
<!-- Generator: Adobe Illustrator 19.2.1, SVG Export Plug-In . SVG Version: 6.00 Build 0)  -->
<svg version="1.1" xmlns="http://www.w3.org/2000/svg" xmlns:xlink="http://www.w3.org/1999/xlink" x="0px" y="0px" width="24px"
	 height="24px" viewBox="0 0 24 24" enable-background="new 0 0 24 24" xml:space="preserve">
<g id="Filled_Icons">
	<g>
		<g>
			<path d="M17,10.026V5.5c0-0.133-0.053-0.26-0.146-0.353l-5-5C11.76,0.053,11.632,0,11.5,0h-11C0.224,0,0,0.224,0,0.5v21
				C0,21.776,0.224,22,0.5,22h11.014C10.568,20.744,10,19.19,10,17.5C10,13.533,13.098,10.284,17,10.026z M11,1l5,5h-5V1z"/>
		</g>
		<path d="M17.5,11c-3.584,0-6.5,2.915-6.5,6.5c0,3.584,2.916,6.5,6.5,6.5s6.5-2.916,6.5-6.5C24,13.915,21.084,11,17.5,11z
			 M17.5,22.003c-0.383,0-0.691-0.309-0.691-0.691c0-0.38,0.309-0.689,0.691-0.689c0.382,0,0.691,0.309,0.691,0.689
			C18.191,21.694,17.882,22.003,17.5,22.003z M18,18.463V19c0,0.276-0.224,0.5-0.5,0.5S17,19.276,17,19v-0.991
			c0-0.276,0.224-0.5,0.5-0.5c0.869,0,1.5-0.635,1.5-1.509c0-0.869-0.631-1.5-1.5-1.5S16,15.131,16,16c0,0.276-0.224,0.5-0.5,0.5
			S15,16.276,15,16c0-1.425,1.074-2.5,2.5-2.5S20,14.575,20,16C20,17.258,19.17,18.243,18,18.463z"/>
	</g>
</g>
<g id="Invisible_Shape">
	<rect fill="none" width="24" height="24"/>
</g>
</svg>
