<?xml version="1.0" encoding="utf-8"?>
<!-- Generator: Adobe Illustrator 19.2.1, SVG Export Plug-In . SVG Version: 6.00 Build 0)  -->
<svg version="1.1" xmlns="http://www.w3.org/2000/svg" xmlns:xlink="http://www.w3.org/1999/xlink" x="0px" y="0px" width="24px"
	 height="24px" viewBox="0 0 24 24" enable-background="new 0 0 24 24" xml:space="preserve">
<g id="Filled_Icons">
	<path d="M20.854,4.147l-4-4C16.76,0.053,16.632,0,16.5,0H14v13c0,0.446-0.54,0.667-0.854,0.354L11,11.207l-2.146,2.147
		C8.542,13.668,8,13.446,8,13V0H3.5C3.224,0,3,0.224,3,0.5v23C3,23.776,3.224,24,3.5,24h17c0.276,0,0.5-0.224,0.5-0.5v-19
		C21,4.367,20.947,4.24,20.854,4.147z"/>
</g>
<g id="Invisible_Shape">
	<rect fill="none" width="24" height="24"/>
</g>
</svg>
