<?xml version="1.0" encoding="utf-8"?>
<!-- Generator: Adobe Illustrator 19.2.1, SVG Export Plug-In . SVG Version: 6.00 Build 0)  -->
<svg version="1.1" xmlns="http://www.w3.org/2000/svg" xmlns:xlink="http://www.w3.org/1999/xlink" x="0px" y="0px" width="24px"
	 height="24px" viewBox="0 0 24 24" enable-background="new 0 0 24 24" xml:space="preserve">
<g id="Filled_Icons">
	<g>
		<path d="M4.5,22C4.224,22,4,21.776,4,21.5V4H3.5C3.224,4,3,4.224,3,4.5v18C3,22.776,3.224,23,3.5,23h14c0.276,0,0.5-0.224,0.5-0.5
			V22H4.5z"/>
		<path d="M6.5,20C6.224,20,6,19.776,6,19.5v-17H5.5C5.224,2.5,5,2.724,5,3v17.5C5,20.776,5.224,21,5.5,21H19
			c0.276,0,0.5-0.224,0.5-0.5l0-0.5H6.5z"/>
		<path d="M21,6.5c0-0.133-0.053-0.26-0.146-0.353l-5-5C15.76,1.053,15.632,1,15.5,1h-8C7.224,1,7,1.224,7,1.5v17
			C7,18.776,7.224,19,7.5,19h13c0.276,0,0.5-0.224,0.5-0.5V6.5z M15,7V2l5,5H15z"/>
	</g>
</g>
<g id="Invisible_Shape">
	<rect fill="none" width="24" height="24"/>
</g>
</svg>
