<?xml version="1.0" encoding="utf-8"?>
<!-- Generator: Adobe Illustrator 16.0.3, SVG Export Plug-In . SVG Version: 6.00 Build 0)  -->
<!DOCTYPE svg PUBLIC "-//W3C//DTD SVG 1.1//EN" "http://www.w3.org/Graphics/SVG/1.1/DTD/svg11.dtd">
<svg version="1.1" xmlns="http://www.w3.org/2000/svg" xmlns:xlink="http://www.w3.org/1999/xlink" x="0px" y="0px" width="24px"
	 height="24px" viewBox="0 0 24 24" enable-background="new 0 0 24 24" xml:space="preserve">
<g id="Outline_Icons">
	<g>
		<path fill="none" stroke="#000000" stroke-linecap="round" stroke-linejoin="round" stroke-miterlimit="10" d="M8.055,0.5
			c0.693,1.191,1.969,2,3.445,2s2.752-0.809,3.445-2H8.055z"/>
		
			<line fill="none" stroke="#000000" stroke-linecap="round" stroke-linejoin="round" stroke-miterlimit="10" x1="11.5" y1="2.5" x2="11.5" y2="16"/>
		<path fill="none" stroke="#000000" stroke-linecap="round" stroke-linejoin="round" stroke-miterlimit="10" d="M1.5,10.5v1
			c0,2.762,2.238,5,5,5s5-2.238,5-5V10"/>
		<path fill="none" stroke="#000000" stroke-linecap="round" stroke-linejoin="round" stroke-miterlimit="10" d="M5.5,8v1.5
			c0,1.657,1.343,3,3,3s3-1.343,3-3"/>
		<path fill="none" stroke="#000000" stroke-linecap="round" stroke-linejoin="round" stroke-miterlimit="10" d="M2.5,8
			c0,0.553-0.447,1-1,1s-1-0.447-1-1c0-0.552,1-2,1-2S2.5,7.448,2.5,8z"/>
		<path fill="none" stroke="#000000" stroke-linecap="round" stroke-linejoin="round" stroke-miterlimit="10" d="M6.5,5.5
			c0,0.553-0.447,1-1,1s-1-0.447-1-1c0-0.552,1-2,1-2S6.5,4.948,6.5,5.5z"/>
		<path fill="none" stroke="#000000" stroke-linecap="round" stroke-linejoin="round" stroke-miterlimit="10" d="M21.5,10.5v1
			c0,2.762-2.238,5-5,5s-5-2.238-5-5V10"/>
		<path fill="none" stroke="#000000" stroke-linecap="round" stroke-linejoin="round" stroke-miterlimit="10" d="M17.5,8v1.5
			c0,1.657-1.343,3-3,3s-3-1.343-3-3"/>
		<path fill="none" stroke="#000000" stroke-linecap="round" stroke-linejoin="round" stroke-miterlimit="10" d="M20.5,8
			c0,0.553,0.447,1,1,1s1-0.447,1-1c0-0.552-1-2-1-2S20.5,7.448,20.5,8z"/>
		<path fill="none" stroke="#000000" stroke-linecap="round" stroke-linejoin="round" stroke-miterlimit="10" d="M16.5,5.5
			c0,0.553,0.447,1,1,1s1-0.447,1-1c0-0.552-1-2-1-2S16.5,4.948,16.5,5.5z"/>
		<path fill="none" stroke="#000000" stroke-linecap="round" stroke-linejoin="round" stroke-miterlimit="10" d="M12.5,18.5
			c0-0.552-0.447-1-1-1s-1,0.448-1,1c0,0.553,1,2,1,2S12.5,19.053,12.5,18.5z"/>
		<path fill="none" stroke="#000000" stroke-linecap="round" stroke-linejoin="round" stroke-miterlimit="10" d="M17.5,21.5
			c0-0.552-0.447-1-1-1s-1,0.448-1,1c0,0.553,1,2,1,2S17.5,22.053,17.5,21.5z"/>
		
			<line fill="none" stroke="#000000" stroke-linecap="round" stroke-linejoin="round" stroke-miterlimit="10" x1="16.5" y1="18" x2="16.5" y2="19"/>
		<path fill="none" stroke="#000000" stroke-linecap="round" stroke-linejoin="round" stroke-miterlimit="10" d="M5.5,21.5
			c0-0.552,0.447-1,1-1s1,0.448,1,1c0,0.553-1,2-1,2S5.5,22.053,5.5,21.5z"/>
		
			<line fill="none" stroke="#000000" stroke-linecap="round" stroke-linejoin="round" stroke-miterlimit="10" x1="6.5" y1="18" x2="6.5" y2="19"/>
	</g>
</g>
<g id="invisible_shape">
	<rect fill="none" width="24" height="24"/>
</g>
</svg>
