<?xml version="1.0" encoding="utf-8"?>
<!-- Generator: Adobe Illustrator 16.0.3, SVG Export Plug-In . SVG Version: 6.00 Build 0)  -->
<!DOCTYPE svg PUBLIC "-//W3C//DTD SVG 1.1//EN" "http://www.w3.org/Graphics/SVG/1.1/DTD/svg11.dtd">
<svg version="1.1" xmlns="http://www.w3.org/2000/svg" xmlns:xlink="http://www.w3.org/1999/xlink" x="0px" y="0px" width="24px"
	 height="24px" viewBox="0 0 24 24" enable-background="new 0 0 24 24" xml:space="preserve">
<g id="Outline_Icons">
	<g>
		<path fill="none" stroke="#000000" stroke-linejoin="round" stroke-miterlimit="10" d="M14.656,0.998
			c1.566,1.152,1.479,3.387,0.864,4.318c-0.423-0.346-0.799-0.725-0.864-1.295c-1.44,0.571-2.158,1.699-2.158,3.023
			c0,1.907,1.546,3.454,3.454,3.454s3.454-1.546,3.454-3.454C19.406,4.256,17.399,1.629,14.656,0.998z"/>
		<path fill="none" stroke="#000000" stroke-linejoin="round" stroke-miterlimit="10" d="M21.5,21.5c0,1.104-0.896,2-2,2h-9
			c-1.104,0-2-0.896-2-2v-8h13V21.5z"/>
		<path fill="none" stroke="#000000" stroke-linecap="round" stroke-linejoin="round" stroke-miterlimit="10" d="M2.5,4.5
			c0-2.209,1.791-4,4-4h2v13h-2c-2.209,0-4-1.791-4-4V4.5z"/>
		
			<rect x="12.5" y="10.5" fill="none" stroke="#000000" stroke-linecap="round" stroke-linejoin="round" stroke-miterlimit="10" width="7" height="3"/>
	</g>
</g>
<g id="invisible_shape">
	<rect fill="none" width="24" height="24"/>
</g>
</svg>
