<?xml version="1.0" encoding="utf-8"?>
<!-- Generator: Adobe Illustrator 16.0.3, SVG Export Plug-In . SVG Version: 6.00 Build 0)  -->
<!DOCTYPE svg PUBLIC "-//W3C//DTD SVG 1.1//EN" "http://www.w3.org/Graphics/SVG/1.1/DTD/svg11.dtd">
<svg version="1.1" xmlns="http://www.w3.org/2000/svg" xmlns:xlink="http://www.w3.org/1999/xlink" x="0px" y="0px" width="24px"
	 height="24px" viewBox="0 0 24 24" enable-background="new 0 0 24 24" xml:space="preserve">
<g id="Outline_Icons">
	<g>
		<path fill="none" stroke="#000000" stroke-linejoin="round" stroke-miterlimit="10" d="M10.688,11.375
			c1.587,1.168,1.498,3.432,0.875,4.375c-0.428-0.352-0.81-0.734-0.875-1.313C9.227,15.016,8.5,16.16,8.5,17.5
			c0,1.932,1.566,3.5,3.5,3.5c1.933,0,3.5-1.568,3.5-3.5C15.5,14.675,13.467,12.015,10.688,11.375z"/>
		<polygon fill="none" stroke="#000000" stroke-linejoin="round" stroke-miterlimit="10" points="4.5,9.5 19.5,9.5 17.5,21.5 
			6.5,21.5 		"/>
		<polygon fill="none" stroke="#000000" stroke-linejoin="round" stroke-miterlimit="10" points="9.5,4.5 14.5,4.5 19.5,7.5 
			4.5,7.5 		"/>
		<rect x="4.5" y="21.5" fill="none" stroke="#000000" stroke-linejoin="round" stroke-miterlimit="10" width="15" height="2"/>
		<rect x="2.5" y="7.5" fill="none" stroke="#000000" stroke-linejoin="round" stroke-miterlimit="10" width="19" height="2"/>
		<path fill="none" stroke="#000000" stroke-linejoin="round" stroke-miterlimit="10" d="M9.996,4.496C9.996,4.496,9.5,3.56,9.5,3
			c0-1.381,1.119-2.5,2.5-2.5s2.5,1.119,2.5,2.5c0,0.563-0.5,1.5-0.5,1.5"/>
	</g>
</g>
<g id="invisible_shape">
	<rect fill="none" width="24" height="24"/>
</g>
</svg>
