<?xml version="1.0" encoding="utf-8"?>
<!-- Generator: Adobe Illustrator 16.0.3, SVG Export Plug-In . SVG Version: 6.00 Build 0)  -->
<!DOCTYPE svg PUBLIC "-//W3C//DTD SVG 1.1//EN" "http://www.w3.org/Graphics/SVG/1.1/DTD/svg11.dtd">
<svg version="1.1" xmlns="http://www.w3.org/2000/svg" xmlns:xlink="http://www.w3.org/1999/xlink" x="0px" y="0px" width="24px"
	 height="24px" viewBox="0 0 24 24" enable-background="new 0 0 24 24" xml:space="preserve">
<g id="Outline_Icons">
	<g>
		<path fill="none" stroke="#000000" stroke-linejoin="round" stroke-miterlimit="10" d="M10.688,10.375
			c1.587,1.167,1.498,3.433,0.875,4.375c-0.428-0.351-0.81-0.734-0.875-1.312C9.228,14.016,8.5,15.159,8.5,16.5
			c0,1.933,1.566,3.5,3.5,3.5c1.933,0,3.5-1.567,3.5-3.5C15.5,13.677,13.467,11.015,10.688,10.375z"/>
		
			<line fill="none" stroke="#000000" stroke-linecap="round" stroke-linejoin="round" stroke-miterlimit="10" x1="7" y1="0.5" x2="17" y2="0.5"/>
		<path fill="none" stroke="#000000" stroke-linejoin="round" stroke-miterlimit="10" d="M3.5,23.5h17c0-1.657-1.344-3-3-3h-11
			C4.843,20.5,3.5,21.843,3.5,23.5z"/>
		<path fill="none" stroke="#000000" stroke-linejoin="round" stroke-miterlimit="10" d="M14.417,4.5H9.583
			C7.659,5.31,2,17,7.93,20.5h8.141C22,17,16.086,5.203,14.417,4.5z"/>
		<rect x="8.5" y="0.5" fill="none" stroke="#000000" stroke-linejoin="round" stroke-miterlimit="10" width="7" height="4"/>
		<path fill="none" stroke="#000000" stroke-linejoin="round" stroke-miterlimit="10" d="M15.5,3.5h2.901
			c0.935,0,1.745,0.648,1.95,1.56l2.732,14.097c0.233,1.035-0.382,2.072-1.402,2.364l-1.598,0.456"/>
		<path fill="none" stroke="#000000" stroke-linejoin="round" stroke-miterlimit="10" d="M8.5,3.5H5.599
			c-0.935,0-1.745,0.648-1.95,1.56L0.916,19.156c-0.233,1.035,0.382,2.072,1.402,2.364l1.601,0.458"/>
	</g>
</g>
<g id="invisible_shape">
	<rect fill="none" width="24" height="24"/>
</g>
</svg>
