<?xml version="1.0" encoding="utf-8"?>
<!-- Generator: Adobe Illustrator 16.0.3, SVG Export Plug-In . SVG Version: 6.00 Build 0)  -->
<!DOCTYPE svg PUBLIC "-//W3C//DTD SVG 1.1//EN" "http://www.w3.org/Graphics/SVG/1.1/DTD/svg11.dtd">
<svg version="1.1" xmlns="http://www.w3.org/2000/svg" xmlns:xlink="http://www.w3.org/1999/xlink" x="0px" y="0px" width="24px"
	 height="24px" viewBox="0 0 24 24" enable-background="new 0 0 24 24" xml:space="preserve">
<g id="Outline_Icons">
	<g>
		<path fill="none" stroke="#000000" stroke-linejoin="round" stroke-miterlimit="10" d="M21.5,14c0,5.25-4.25,9.5-9.5,9.5
			c-5.04,0-9.222-3.949-9.49-8.989C2.5,14.34,2.5,14.17,2.5,14c0-2.93,1.32-5.54,3.4-7.28c0.38,1.291,1.029,2.46,1.88,3.45
			C8.561,8.79,9,7.19,9,5.5c0-0.17,0-0.34-0.01-0.509C8.9,3.411,8.439,1.94,7.68,0.65c3.07,0.49,5.771,2.111,7.631,4.44
			C16.99,7.18,18,9.84,18,12.75c0,0.09,0,0.17-0.01,0.261c1.15-0.371,2.199-0.96,3.109-1.73C21.36,12.14,21.5,13.05,21.5,14z"/>
		<path fill="none" stroke="#000000" stroke-linecap="round" stroke-linejoin="round" stroke-miterlimit="10" d="M13.656,12.188
			c-1.864,1.373-1.762,4.033-1.027,5.142c0.503-0.413,0.95-0.863,1.027-1.54C15.373,16.466,16,17.924,16,19.5c0,2.272-1.728,4-4,4
			c-2.271,0-4-1.841-4-4.113C8,16.066,10.39,12.939,13.656,12.188z"/>
	</g>
</g>
<g id="invisible_shape">
	<rect fill="none" width="24" height="24"/>
</g>
</svg>
