<?xml version="1.0" encoding="utf-8"?>
<!-- Generator: Adobe Illustrator 16.0.3, SVG Export Plug-In . SVG Version: 6.00 Build 0)  -->
<!DOCTYPE svg PUBLIC "-//W3C//DTD SVG 1.1//EN" "http://www.w3.org/Graphics/SVG/1.1/DTD/svg11.dtd">
<svg version="1.1" xmlns="http://www.w3.org/2000/svg" xmlns:xlink="http://www.w3.org/1999/xlink" x="0px" y="0px" width="24px"
	 height="24px" viewBox="0 0 24 24" enable-background="new 0 0 24 24" xml:space="preserve">
<g id="Outline_Icons">
	<g>
		
			<line fill="none" stroke="#000000" stroke-linecap="round" stroke-linejoin="round" stroke-miterlimit="10" x1="7.5" y1="18.5" x2="7.5" y2="21"/>
		
			<line fill="none" stroke="#000000" stroke-linecap="round" stroke-linejoin="round" stroke-miterlimit="10" x1="9.5" y1="18.5" x2="9.5" y2="21"/>
		
			<line fill="none" stroke="#000000" stroke-linecap="round" stroke-linejoin="round" stroke-miterlimit="10" x1="11.5" y1="18.5" x2="11.5" y2="21"/>
		
			<line fill="none" stroke="#000000" stroke-linecap="round" stroke-linejoin="round" stroke-miterlimit="10" x1="13.5" y1="18.5" x2="13.5" y2="21"/>
		
			<line fill="none" stroke="#000000" stroke-linecap="round" stroke-linejoin="round" stroke-miterlimit="10" x1="15.5" y1="18.5" x2="15.5" y2="21"/>
		<polygon fill="none" stroke="#000000" stroke-linecap="round" stroke-linejoin="round" stroke-miterlimit="10" points="11.5,20.5 
			12.5,23.5 10.5,23.5 		"/>
		
			<line fill="none" stroke="#000000" stroke-linecap="round" stroke-linejoin="round" stroke-miterlimit="10" x1="11.5" y1="3.5" x2="11.5" y2="0.5"/>
		<line fill="none" stroke="#000000" stroke-linecap="round" stroke-miterlimit="10" x1="21" y1="10.5" x2="23" y2="10.5"/>
		<line fill="none" stroke="#000000" stroke-linecap="round" stroke-miterlimit="10" x1="20.5" y1="6" x2="22" y2="4.5"/>
		<line fill="none" stroke="#000000" stroke-linecap="round" stroke-miterlimit="10" x1="20.5" y1="15" x2="22" y2="16.5"/>
		<line fill="none" stroke="#000000" stroke-linecap="round" stroke-miterlimit="10" x1="2.5" y1="10.5" x2="0.5" y2="10.5"/>
		<line fill="none" stroke="#000000" stroke-linecap="round" stroke-miterlimit="10" x1="3" y1="6" x2="1.5" y2="4.5"/>
		<line fill="none" stroke="#000000" stroke-linecap="round" stroke-miterlimit="10" x1="3" y1="15" x2="1.5" y2="16.5"/>
		<path fill="none" stroke="#000000" stroke-miterlimit="10" d="M9.1,16.5C6.98,15.575,5.5,13.46,5.5,11s1.48-4.574,3.6-5.5"/>
		<path fill="none" stroke="#000000" stroke-miterlimit="10" d="M13.902,5.5C16.021,6.427,17.5,8.541,17.5,11
			c0,2.46-1.48,4.575-3.6,5.5"/>
		<line fill="none" stroke="#000000" stroke-miterlimit="10" x1="11.5" y1="5.5" x2="11.5" y2="16.5"/>
		<rect x="7.5" y="3.5" fill="none" stroke="#000000" stroke-linejoin="round" stroke-miterlimit="10" width="8" height="2"/>
		<path fill="none" stroke="#000000" stroke-miterlimit="10" d="M13.094,16.5c0.844-1.15,1.406-3.18,1.406-5.5
			c0-2.319-0.562-4.35-1.406-5.5H9.906C9.062,6.65,8.5,8.681,8.5,11c0,2.32,0.562,4.35,1.406,5.5H13.094z"/>
		<rect x="7.5" y="16.5" fill="none" stroke="#000000" stroke-linejoin="round" stroke-miterlimit="10" width="8" height="2"/>
		<line fill="none" stroke="#000000" stroke-miterlimit="10" x1="5.521" y1="10.5" x2="17.479" y2="10.5"/>
	</g>
</g>
<g id="invisible_shape">
	<rect fill="none" width="24" height="24"/>
</g>
</svg>
