<?xml version="1.0" encoding="utf-8"?>
<!-- Generator: Adobe Illustrator 16.0.3, SVG Export Plug-In . SVG Version: 6.00 Build 0)  -->
<!DOCTYPE svg PUBLIC "-//W3C//DTD SVG 1.1//EN" "http://www.w3.org/Graphics/SVG/1.1/DTD/svg11.dtd">
<svg version="1.1" xmlns="http://www.w3.org/2000/svg" xmlns:xlink="http://www.w3.org/1999/xlink" x="0px" y="0px" width="24px"
	 height="24px" viewBox="0 0 24 24" enable-background="new 0 0 24 24" xml:space="preserve">
<g id="Outline_Icons">
	<g>
		<path fill="none" stroke="#000000" stroke-linecap="round" stroke-linejoin="round" stroke-miterlimit="10" d="M10.679,2.214
			C9.28,3.062,8,4.762,8,6.5c0,1.427,0.62,2.867,1.607,3.75c0.817-0.735,1.438-2.074,1.607-3.215C13.889,8.283,15.5,11.133,15.5,14
			c0,4.143-3.359,7.5-7.5,7.5c-4.144,0-7.5-3.357-7.5-7.5C0.5,8.209,5.049,3.156,10.679,2.214z"/>
		<path fill="none" stroke="#000000" stroke-linecap="round" stroke-linejoin="round" stroke-miterlimit="10" d="M7.55,14.515
			c-0.515,0.281-0.881,0.773-0.998,1.347c-0.119,0.575,0.021,1.171,0.382,1.632c0.362,0.461,0.908,0.74,1.494,0.763
			c0.585,0.022,1.149-0.213,1.547-0.646l1.632-1.784l-1.934-2.471L7.55,14.515z"/>
		
			<line fill="none" stroke="#000000" stroke-linecap="round" stroke-linejoin="round" stroke-miterlimit="10" x1="10.562" y1="14.492" x2="22.305" y2="4.828"/>
	</g>
</g>
<g id="invisible_shape">
	<rect fill="none" width="24" height="24"/>
</g>
</svg>
