<?xml version="1.0" encoding="utf-8"?>
<!-- Generator: Adobe Illustrator 16.0.3, SVG Export Plug-In . SVG Version: 6.00 Build 0)  -->
<!DOCTYPE svg PUBLIC "-//W3C//DTD SVG 1.1//EN" "http://www.w3.org/Graphics/SVG/1.1/DTD/svg11.dtd">
<svg version="1.1" xmlns="http://www.w3.org/2000/svg" xmlns:xlink="http://www.w3.org/1999/xlink" x="0px" y="0px" width="24px"
	 height="24px" viewBox="0 0 24 24" enable-background="new 0 0 24 24" xml:space="preserve">
<g id="Outline_Icons">
	<g>
		<path fill="none" stroke="#000000" stroke-linejoin="round" stroke-miterlimit="10" d="M7,17c0,0,3.609-3,5-3s5,3,5,3
			s-3.957,2-5,2S7,17,7,17z"/>
		<path fill="none" stroke="#000000" stroke-linejoin="round" stroke-miterlimit="10" d="M21.5,16c0,5.248-4.253,7.5-9.5,7.5
			c-5.246,0-9.5-2.252-9.5-7.5c0-5.246,4.254-12.5,9.5-12.5C17.247,3.5,21.5,10.754,21.5,16z"/>
		
			<line fill="none" stroke="#000000" stroke-linecap="round" stroke-linejoin="round" stroke-miterlimit="10" x1="9.366" y1="4.111" x2="6" y2="3"/>
		
			<line fill="none" stroke="#000000" stroke-linecap="round" stroke-linejoin="round" stroke-miterlimit="10" x1="10.265" y1="3.766" x2="8" y2="1"/>
		
			<line fill="none" stroke="#000000" stroke-linecap="round" stroke-linejoin="round" stroke-miterlimit="10" x1="12" y1="11" x2="16" y2="8"/>
		
			<line fill="none" stroke="#000000" stroke-linecap="round" stroke-linejoin="round" stroke-miterlimit="10" x1="12" y1="11" x2="8" y2="8"/>
		<path fill="none" stroke="#000000" stroke-linecap="round" stroke-linejoin="round" stroke-miterlimit="10" d="M14.731,9.018
			c0.117-0.016,0.239-0.021,0.363-0.016c1.103,0.053,1.955,0.988,1.903,2.092c-0.053,1.104-0.989,1.955-2.093,1.904
			c-1.104-0.053-1.955-0.99-1.903-2.092c0.012-0.252,0.069-0.49,0.165-0.709"/>
		<path fill="none" stroke="#000000" stroke-linecap="round" stroke-linejoin="round" stroke-miterlimit="10" d="M9.25,9.016
			C9.132,9,9.011,8.998,8.888,9.004c-1.104,0.062-1.947,1.008-1.885,2.111c0.063,1.104,1.009,1.945,2.112,1.883
			c1.103-0.064,1.945-1.01,1.882-2.111c-0.014-0.252-0.074-0.488-0.17-0.705"/>
		<polyline fill="none" stroke="#000000" stroke-linecap="round" stroke-linejoin="round" stroke-miterlimit="10" points="9,18 
			11.938,21.531 15,18 		"/>
		<g>
			<path d="M15,10.516c-0.276,0-0.5,0.225-0.5,0.5c0,0.277,0.224,0.5,0.5,0.5s0.5-0.223,0.5-0.5C15.5,10.74,15.276,10.516,15,10.516
				L15,10.516z"/>
		</g>
		<g>
			<path d="M9,10.516c-0.276,0-0.5,0.225-0.5,0.5c0,0.277,0.224,0.5,0.5,0.5s0.5-0.223,0.5-0.5C9.5,10.74,9.276,10.516,9,10.516
				L9,10.516z"/>
		</g>
	</g>
</g>
<g id="invisible_shape">
	<rect fill="none" width="24" height="24"/>
</g>
</svg>
