<?xml version="1.0" encoding="utf-8"?>
<!-- Generator: Adobe Illustrator 16.0.3, SVG Export Plug-In . SVG Version: 6.00 Build 0)  -->
<!DOCTYPE svg PUBLIC "-//W3C//DTD SVG 1.1//EN" "http://www.w3.org/Graphics/SVG/1.1/DTD/svg11.dtd">
<svg version="1.1" xmlns="http://www.w3.org/2000/svg" xmlns:xlink="http://www.w3.org/1999/xlink" x="0px" y="0px" width="24px"
	 height="24px" viewBox="0 0 24 24" enable-background="new 0 0 24 24" xml:space="preserve">
<g id="Outline_Icons">
	<g>
		<path fill="none" stroke="#000000" stroke-linejoin="round" stroke-miterlimit="10" d="M17.844,9.662
			C19.746,8.977,21,5.363,21,3.188c-3.712,0.248-5.526,1.633-5.883,2.703"/>
		<path fill="none" stroke="#000000" stroke-linejoin="round" stroke-miterlimit="10" d="M4.546,9.594
			C2.644,8.908,1.5,5.363,1.5,3.188C5.212,3.436,6.996,4.74,7.353,5.809"/>
		<path fill="none" stroke="#000000" stroke-linejoin="round" stroke-miterlimit="10" d="M16.312,20.553
			c1.275-0.949,2.431-2.877,2.431-6.039c0-6.068-3.641-10.014-7.586-10.014c-3.944,0-7.585,3.945-7.585,10.014
			c0,3.334,1.144,5.145,2.522,6.059"/>
		<path fill="none" stroke="#000000" stroke-linejoin="round" stroke-miterlimit="10" d="M8.931,21.441
			c0.811,0.066,1.685,0.051,2.226,0.051c0.583,0,1.53,0.037,2.413-0.051"/>
		<path fill="none" stroke="#000000" stroke-linejoin="round" stroke-miterlimit="10" d="M3.75,23.5c0-1.656,1.343-3,3-3
			s3,1.344,3,3H3.75z"/>
		<path fill="none" stroke="#000000" stroke-linejoin="round" stroke-miterlimit="10" d="M12.75,23.5c0-1.656,1.343-3,3-3
			s3,1.344,3,3H12.75z"/>
		<path fill="none" stroke="#000000" stroke-linejoin="round" stroke-miterlimit="10" d="M13.75,15.5c0,1-1.119,2.5-2.5,2.5
			s-2.5-1.5-2.5-2.5H13.75z"/>
		<path fill="none" stroke="#000000" stroke-linejoin="round" stroke-miterlimit="10" d="M8.25,15.5c0-1,1.344-3,3-3s3,2,3,3H8.25z"
			/>
		<circle fill="none" stroke="#000000" stroke-linejoin="round" stroke-miterlimit="10" cx="8.25" cy="10" r="1.5"/>
		<circle fill="none" stroke="#000000" stroke-linejoin="round" stroke-miterlimit="10" cx="14.25" cy="10" r="1.5"/>
	</g>
</g>
<g id="invisible_shape">
	<rect fill="none" width="24" height="24"/>
</g>
</svg>
