<?xml version="1.0" encoding="utf-8"?>
<!-- Generator: Adobe Illustrator 16.0.3, SVG Export Plug-In . SVG Version: 6.00 Build 0)  -->
<!DOCTYPE svg PUBLIC "-//W3C//DTD SVG 1.1//EN" "http://www.w3.org/Graphics/SVG/1.1/DTD/svg11.dtd">
<svg version="1.1" xmlns="http://www.w3.org/2000/svg" xmlns:xlink="http://www.w3.org/1999/xlink" x="0px" y="0px" width="24px"
	 height="24px" viewBox="0 0 24 24" enable-background="new 0 0 24 24" xml:space="preserve">
<g id="Outline_Icons">
	<g>
		<path fill="none" stroke="#000000" stroke-linecap="round" stroke-linejoin="round" stroke-miterlimit="10" d="M6.5,14.5v5
			c0,1.104,0.896,2,2,2s2-0.896,2-2v-5"/>
		
			<line fill="none" stroke="#000000" stroke-linecap="round" stroke-linejoin="round" stroke-miterlimit="10" x1="5.5" y1="14.5" x2="11.5" y2="14.5"/>
		
			<line fill="none" stroke="#000000" stroke-linecap="round" stroke-linejoin="round" stroke-miterlimit="10" x1="8.5" y1="14.5" x2="8.5" y2="18.5"/>
		<path fill="none" stroke="#000000" stroke-linecap="round" stroke-linejoin="round" stroke-miterlimit="10" d="M10.5,19.5l2,0.5
			c2,0.5,2.249,0.499,2.968,0.499c1.767,0,3.296-1.019,4.032-2.499l3.5-7l-4.358,3.626C18.415,14.856,18.1,15,17.75,15
			c-0.69,0-1.25-0.56-1.25-1.25c0-0.28,0.092-0.539,0.248-0.748l2.588-3.632C19.437,9.278,19.5,9.146,19.5,9
			c0-0.276-0.224-0.5-0.5-0.5c-0.1,0-0.192,0.029-0.27,0.079l-2.23,0.92V8.5C16.5,4.91,13.59,2,10,2S3.5,4.91,3.5,8.5v0.999
			L1.284,8.59C1.203,8.533,1.105,8.5,1,8.5C0.724,8.5,0.5,8.724,0.5,9c0,0.112,0.037,0.216,0.1,0.299L3.5,13
			c0,2.302,1.196,4.323,3.002,5.479"/>
		
			<line fill="none" stroke="#000000" stroke-linecap="round" stroke-linejoin="round" stroke-miterlimit="10" x1="10" y1="9.5" x2="13" y2="7.5"/>
		
			<line fill="none" stroke="#000000" stroke-linecap="round" stroke-linejoin="round" stroke-miterlimit="10" x1="8" y1="9.5" x2="5" y2="7.5"/>
		
			<line fill="none" stroke="#000000" stroke-linecap="round" stroke-linejoin="round" stroke-miterlimit="10" x1="11.5" y1="8.5" x2="11.5" y2="10.5"/>
		
			<line fill="none" stroke="#000000" stroke-linecap="round" stroke-linejoin="round" stroke-miterlimit="10" x1="6.5" y1="8.5" x2="6.5" y2="10.5"/>
	</g>
</g>
<g id="invisible_shape">
	<rect fill="none" width="24" height="24"/>
</g>
</svg>
