<?xml version="1.0" encoding="utf-8"?>
<!-- Generator: Adobe Illustrator 16.0.3, SVG Export Plug-In . SVG Version: 6.00 Build 0)  -->
<!DOCTYPE svg PUBLIC "-//W3C//DTD SVG 1.1//EN" "http://www.w3.org/Graphics/SVG/1.1/DTD/svg11.dtd">
<svg version="1.1" xmlns="http://www.w3.org/2000/svg" xmlns:xlink="http://www.w3.org/1999/xlink" x="0px" y="0px" width="24px"
	 height="24px" viewBox="0 0 24 24" enable-background="new 0 0 24 24" xml:space="preserve">
<g id="Outline_Icons">
	<g>
		<path fill="none" stroke="#000000" stroke-linecap="round" stroke-linejoin="round" stroke-miterlimit="10" d="M18.5,10.999
			c0,0,5,8.5,5,9s0,1.5,0,1.5c0,1.104-0.896,2-2,2L19.12,23.5c0.239-0.358,0.38-0.788,0.38-1.251c0-0.62-0.251-1.182-0.657-1.589
			L12,14.499"/>
		<path fill="none" stroke="#000000" stroke-linecap="round" stroke-linejoin="round" stroke-miterlimit="10" d="M9.75,18.499
			c0.967,0,1.75,0.784,1.75,1.75v3.25h3.75c0.414,0,0.75-0.336,0.75-0.75c0-0.294-0.17-0.55-0.417-0.672l-0.756-0.708
			c-0.197-0.136-0.327-0.363-0.327-0.62c0-0.155,0.047-0.3,0.128-0.419L16,18.499"/>
		<path fill="none" stroke="#000000" stroke-linecap="round" stroke-linejoin="round" stroke-miterlimit="10" d="M11,17.499l-6,4
			l0.854,0.806C5.945,22.429,6,22.582,6,22.749c0,0.414-0.336,0.75-0.75,0.75h-3.5c-0.69,0-1.25-0.56-1.25-1.25
			c0-0.299,0.105-0.573,0.279-0.788l3.217-3.518C3.38,17.312,3,16.45,3,15.499C3,13.683,4.407,11.986,6.666,12
			C6.558,11.602,6.5,11.182,6.5,10.749c0-2.624,2.127-4.75,4.75-4.75h1.25c0-2.071,1.679-3.5,3.75-3.5
			c1.635,0,3.025,1.046,3.539,2.504L20.5,4.999c1.656,0,3,1.343,3,3s-1.344,3-3,3h-3.25c-1.519,0-2.75-1.231-2.75-2.75
			c0-0.864,0.376-1.746,1-2.25V3"/>
		
			<line fill="none" stroke="#000000" stroke-linecap="round" stroke-linejoin="round" stroke-miterlimit="10" x1="17.5" y1="5.499" x2="17.5" y2="6.499"/>
		
			<line fill="none" stroke="#000000" stroke-linecap="round" stroke-linejoin="round" stroke-miterlimit="10" x1="23" y1="8.5" x2="20" y2="8.5"/>
	</g>
</g>
<g id="invisible_shape">
	<rect fill="none" width="24" height="24"/>
</g>
</svg>
