<?xml version="1.0" encoding="utf-8"?>
<!-- Generator: Adobe Illustrator 16.0.3, SVG Export Plug-In . SVG Version: 6.00 Build 0)  -->
<!DOCTYPE svg PUBLIC "-//W3C//DTD SVG 1.1//EN" "http://www.w3.org/Graphics/SVG/1.1/DTD/svg11.dtd">
<svg version="1.1" xmlns="http://www.w3.org/2000/svg" xmlns:xlink="http://www.w3.org/1999/xlink" x="0px" y="0px" width="24px"
	 height="24px" viewBox="0 0 24 24" enable-background="new 0 0 24 24" xml:space="preserve">
<g id="Outline_Icons">
	<g>
		<path fill="none" stroke="#000000" stroke-linecap="round" stroke-linejoin="round" stroke-miterlimit="10" d="M20.25,11.5
			c1.795,0,3.25-1.455,3.25-3.25c0-1.15-0.598-2.162-1.5-2.74l-7.706-4.511C13.596,0.678,12.818,0.5,12,0.5S10.404,0.678,9.706,1
			L2,5.51C1.098,6.088,0.5,7.1,0.5,8.25c0,1.795,1.455,3.25,3.25,3.25H20.25z"/>
		<path fill="none" stroke="#000000" stroke-linecap="round" stroke-linejoin="round" stroke-miterlimit="10" d="M14.693,1.232
			C13.965,1.828,13.5,2.734,13.5,3.75C13.5,5.545,14.955,7,16.75,7c1.604,0,2.936-1.162,3.201-2.689"/>
		<path fill="none" stroke="#000000" stroke-linecap="round" stroke-linejoin="round" stroke-miterlimit="10" d="M4.048,4.31
			C4.313,5.838,5.646,7,7.25,7c1.795,0,3.25-1.455,3.25-3.25c0-1.014-0.463-1.918-1.19-2.514"/>
		<path fill="none" stroke="#000000" stroke-linecap="round" stroke-linejoin="round" stroke-miterlimit="10" d="M6,11.25
			C6,9.73,4.769,8.5,3.25,8.5c-0.993,0-1.863,0.525-2.347,1.315"/>
		<path fill="none" stroke="#000000" stroke-linecap="round" stroke-linejoin="round" stroke-miterlimit="10" d="M23.098,9.816
			C22.614,9.027,21.744,8.5,20.75,8.5C19.231,8.5,18,9.73,18,11.25"/>
		<path fill="none" stroke="#000000" stroke-linecap="round" stroke-linejoin="round" stroke-miterlimit="10" d="M7.505,11.5
			l-1.005,8c-0.381,2.673-2.11,4-4,4h19c-1.856,0-3.529-1.216-4-4l-1-8"/>
		<path fill="none" stroke="#000000" stroke-linecap="round" stroke-linejoin="round" stroke-miterlimit="10" d="M13.5,19
			c0,0.828-0.672,1.5-1.5,1.5s-1.5-0.672-1.5-1.5"/>
		
			<line fill="none" stroke="#000000" stroke-linecap="round" stroke-linejoin="round" stroke-miterlimit="10" x1="10.5" y1="14.5" x2="10.5" y2="15.5"/>
		
			<line fill="none" stroke="#000000" stroke-linecap="round" stroke-linejoin="round" stroke-miterlimit="10" x1="13.5" y1="14.5" x2="13.5" y2="15.5"/>
	</g>
</g>
<g id="invisible_shape">
	<rect fill="none" width="24" height="24"/>
</g>
</svg>
