<?xml version="1.0" encoding="utf-8"?>
<!-- Generator: Adobe Illustrator 16.0.3, SVG Export Plug-In . SVG Version: 6.00 Build 0)  -->
<!DOCTYPE svg PUBLIC "-//W3C//DTD SVG 1.1//EN" "http://www.w3.org/Graphics/SVG/1.1/DTD/svg11.dtd">
<svg version="1.1" xmlns="http://www.w3.org/2000/svg" xmlns:xlink="http://www.w3.org/1999/xlink" x="0px" y="0px" width="24px"
	 height="24px" viewBox="0 0 24 24" enable-background="new 0 0 24 24" xml:space="preserve">
<g id="Outline_Icons">
	<g>
		<path fill="none" stroke="#000000" stroke-linecap="round" stroke-linejoin="round" stroke-miterlimit="10" d="M12.25,20.5
			l6.927-2c1.046-1.114,1.826-2.48,2.24-3.998L10.25,14.5l-0.751-1.004"/>
		<path fill="none" stroke="#000000" stroke-linecap="round" stroke-linejoin="round" stroke-miterlimit="10" d="M0.5,21
			c2.348,0,4.25-1.903,4.25-4.25l-0.5-6.25c0-2.974,2.162-5.442,5.003-5.917l7.238-1.086c1.751,0.875,3.194,2.275,4.122,3.993"/>
		<path fill="none" stroke="#000000" stroke-linecap="round" stroke-linejoin="round" stroke-miterlimit="10" d="M15.5,19.678
			l2.736,1.949c0.307,0.171,0.514,0.497,0.514,0.873c0,0.552-0.447,1-1,1h-7"/>
		<path fill="none" stroke="#000000" stroke-linecap="round" stroke-linejoin="round" stroke-miterlimit="10" d="M9.522,11.971
			C9.352,12.185,9.25,12.455,9.25,12.75c0,0.69,0.56,1.25,1.25,1.25c0.312,0,0.598-0.114,0.817-0.305l2.933-2.694
			c0.418-0.314,0.938-0.501,1.5-0.501h6c0.828,0,1.5-0.671,1.5-1.5s-0.672-1.5-1.5-1.5h-7c-0.818,0-1.545,0.394-2.001,1
			L9.522,11.971z"/>
		
			<line fill="none" stroke="#000000" stroke-linecap="round" stroke-linejoin="round" stroke-miterlimit="10" x1="20.25" y1="10.5" x2="19.25" y2="14.5"/>
		<path fill="none" stroke="#000000" stroke-linecap="round" stroke-linejoin="round" stroke-miterlimit="10" d="M16.75,3.5l1.5-3
			L10.75,1c-4.971,0-9,4.029-9,9c0,1.052,0.18,2.062,0.512,2.999L4.25,18"/>
		<path fill="none" stroke="#000000" stroke-linecap="round" stroke-linejoin="round" stroke-miterlimit="10" d="M10.75,20.163
			c0.312-0.386,0.5-0.878,0.5-1.413c0-1.243-1.008-2.25-2.25-2.25s-2.25,1.007-2.25,2.25l0.492,4.75L10.75,20.163z"/>
	</g>
</g>
<g id="invisible_shape">
	<rect fill="none" width="24" height="24"/>
</g>
</svg>
