<?xml version="1.0" encoding="utf-8"?>
<!-- Generator: Adobe Illustrator 16.0.3, SVG Export Plug-In . SVG Version: 6.00 Build 0)  -->
<!DOCTYPE svg PUBLIC "-//W3C//DTD SVG 1.1//EN" "http://www.w3.org/Graphics/SVG/1.1/DTD/svg11.dtd">
<svg version="1.1" xmlns="http://www.w3.org/2000/svg" xmlns:xlink="http://www.w3.org/1999/xlink" x="0px" y="0px" width="24px"
	 height="24px" viewBox="0 0 24 24" enable-background="new 0 0 24 24" xml:space="preserve">
<g id="Outline_Icons">
	<g>
		<path fill="none" stroke="#000000" stroke-linecap="round" stroke-linejoin="round" stroke-miterlimit="10" d="M2.75,8.604
			C2.59,8.953,2.5,9.341,2.5,9.75c0,1.519,1.231,2.75,2.75,2.75c0.834,0,1.746-0.413,2.25-1h8c0.504,0.605,1.4,1,2.25,1
			c1.519,0,2.75-1.231,2.75-2.75c0-0.451-0.108-0.877-0.301-1.253"/>
		<path fill="none" stroke="#000000" stroke-linecap="round" stroke-linejoin="round" stroke-miterlimit="10" d="M2.75,8.5
			C1.508,8.5,0.5,7.493,0.5,6.25c0-1.123,0.823-2.054,1.899-2.224"/>
		<path fill="none" stroke="#000000" stroke-linecap="round" stroke-linejoin="round" stroke-miterlimit="10" d="M20.564,4.022
			C21.658,4.175,22.5,5.114,22.5,6.25c0,1.243-1.008,2.25-2.25,2.25"/>
		<path fill="none" stroke="#000000" stroke-linecap="round" stroke-linejoin="round" stroke-miterlimit="10" d="M2.5,4
			c0-1.933,1.567-3.5,3.5-3.5c1.547,0,2.861,1.005,3.323,2.397"/>
		<path fill="none" stroke="#000000" stroke-linecap="round" stroke-linejoin="round" stroke-miterlimit="10" d="M13.665,2.935
			C14.115,1.522,15.438,0.5,17,0.5c1.933,0,3.5,1.567,3.5,3.5"/>
		<path fill="none" stroke="#000000" stroke-linecap="round" stroke-linejoin="round" stroke-miterlimit="10" d="M9.295,2.821
			C9.716,2.034,10.545,1.5,11.5,1.5s1.784,0.535,2.205,1.321"/>
		
			<rect x="8.5" y="11.5" fill="none" stroke="#000000" stroke-linecap="round" stroke-linejoin="round" stroke-miterlimit="10" width="7" height="12"/>
		
			<line fill="none" stroke="#000000" stroke-linecap="round" stroke-linejoin="round" stroke-miterlimit="10" x1="10.5" y1="16.5" x2="5.5" y2="16.5"/>
		
			<line fill="none" stroke="#000000" stroke-linecap="round" stroke-linejoin="round" stroke-miterlimit="10" x1="10.5" y1="13.5" x2="10.5" y2="14.5"/>
		
			<line fill="none" stroke="#000000" stroke-linecap="round" stroke-linejoin="round" stroke-miterlimit="10" x1="12.5" y1="13.5" x2="12.5" y2="14.5"/>
		
			<ellipse fill="none" stroke="#000000" stroke-linecap="round" stroke-linejoin="round" stroke-miterlimit="10" cx="12" cy="19.75" rx="1.5" ry="1.25"/>
	</g>
</g>
<g id="invisible_shape">
	<rect fill="none" width="24" height="24"/>
</g>
</svg>
