<?xml version="1.0" encoding="utf-8"?>
<!-- Generator: Adobe Illustrator 16.0.3, SVG Export Plug-In . SVG Version: 6.00 Build 0)  -->
<!DOCTYPE svg PUBLIC "-//W3C//DTD SVG 1.1//EN" "http://www.w3.org/Graphics/SVG/1.1/DTD/svg11.dtd">
<svg version="1.1" xmlns="http://www.w3.org/2000/svg" xmlns:xlink="http://www.w3.org/1999/xlink" x="0px" y="0px" width="24px"
	 height="24px" viewBox="0 0 24 24" enable-background="new 0 0 24 24" xml:space="preserve">
<g id="Outline_Icons">
	<g>
		<path fill="none" stroke="#000000" stroke-linecap="round" stroke-linejoin="round" stroke-miterlimit="10" d="M7.5,4.998l-7-2.5
			l3.69,7.455c-0.103,0.511-0.156,1.038-0.156,1.579c0,4.399,3.565,7.966,7.966,7.966s7.966-3.566,7.966-7.966
			c0-0.551-0.056-1.088-0.161-1.605L23.5,2.498l-7,2.5"/>
		<path fill="none" stroke="#000000" stroke-linecap="round" stroke-linejoin="round" stroke-miterlimit="10" d="M5.833,6.489
			C7.293,4.705,9.514,3.566,12,3.566c2.5,0,4.732,1.151,6.193,2.953"/>
		<path fill="none" stroke="#000000" stroke-linejoin="round" stroke-miterlimit="10" d="M6,16.706
			c-0.734,0.32-1.285,0.984-1.449,1.788l-0.525,2.503C4.009,21.078,4,21.162,4,21.248c0,0.69,0.559,1.25,1.25,1.25
			c0.138,0,0.271-0.022,0.395-0.063l2.386-1.158c0.867-0.393,1.47-1.266,1.47-2.278"/>
		<path fill="none" stroke="#000000" stroke-linejoin="round" stroke-miterlimit="10" d="M17.892,16.632
			c0.828,0.283,1.462,0.99,1.64,1.862l0.525,2.503c0.017,0.081,0.025,0.165,0.025,0.251c0,0.69-0.559,1.25-1.25,1.25
			c-0.138,0-0.271-0.022-0.395-0.063l-2.386-1.158c-0.867-0.393-1.47-1.266-1.47-2.278"/>
		
			<line fill="none" stroke="#000000" stroke-linecap="round" stroke-linejoin="round" stroke-miterlimit="10" x1="9.5" y1="9.498" x2="9.5" y2="10.998"/>
		
			<line fill="none" stroke="#000000" stroke-linecap="round" stroke-linejoin="round" stroke-miterlimit="10" x1="14.5" y1="9.498" x2="14.5" y2="10.998"/>
		
			<line fill="none" stroke="#000000" stroke-linecap="round" stroke-linejoin="round" stroke-miterlimit="10" x1="16.5" y1="12.498" x2="17.5" y2="13.498"/>
		
			<line fill="none" stroke="#000000" stroke-linecap="round" stroke-linejoin="round" stroke-miterlimit="10" x1="7.5" y1="12.498" x2="6.5" y2="13.498"/>
		<path fill="none" stroke="#000000" stroke-linecap="round" stroke-linejoin="round" stroke-miterlimit="10" d="M14.5,14.498
			c0,1.381-1.119,2.5-2.5,2.5s-2.5-1.119-2.5-2.5H14.5z"/>
	</g>
</g>
<g id="invisible_shape">
	<rect fill="none" width="24" height="24"/>
</g>
</svg>
