<?xml version="1.0" encoding="utf-8"?>
<!-- Generator: Adobe Illustrator 16.0.3, SVG Export Plug-In . SVG Version: 6.00 Build 0)  -->
<!DOCTYPE svg PUBLIC "-//W3C//DTD SVG 1.1//EN" "http://www.w3.org/Graphics/SVG/1.1/DTD/svg11.dtd">
<svg version="1.1" xmlns="http://www.w3.org/2000/svg" xmlns:xlink="http://www.w3.org/1999/xlink" x="0px" y="0px" width="24px"
	 height="24px" viewBox="0 0 24 24" enable-background="new 0 0 24 24" xml:space="preserve">
<g id="Outline_Icons">
	<g>
		<path fill="none" stroke="#000000" stroke-linecap="round" stroke-linejoin="round" stroke-miterlimit="10" d="M15.496,1.761
			C14.486,1.116,13.287,0.743,12,0.743c-1.289,0-2.49,0.375-3.5,1.021"/>
		<path fill="none" stroke="#000000" stroke-linecap="round" stroke-linejoin="round" stroke-miterlimit="10" d="M6.104,4.505
			C5.716,5.337,5.5,6.265,5.5,7.243L4.026,7.63C2.566,8.052,1.5,9.397,1.5,10.993c0,1.933,1.566,3.5,3.5,3.5h14
			c1.934,0,3.5-1.567,3.5-3.5c0-1.613-1.09-2.97-2.573-3.377L18.5,7.243c0-0.984-0.218-1.916-0.608-2.75"/>
		<polyline fill="none" stroke="#000000" stroke-linecap="round" stroke-linejoin="round" stroke-miterlimit="10" points="
			9.5,10.493 8,12.493 6.5,10.493 17.5,10.493 16,12.493 14.5,10.493 		"/>
		<path fill="none" stroke="#000000" stroke-linecap="round" stroke-linejoin="round" stroke-miterlimit="10" d="M13.5,5.493l4-3.5
			c0.586-0.586,1.535-0.586,2.121,0L21,3.493"/>
		<path fill="none" stroke="#000000" stroke-linecap="round" stroke-linejoin="round" stroke-miterlimit="10" d="M10.5,5.493l-4-3.5
			c-0.586-0.586-1.535-0.586-2.121,0L3,3.493"/>
		<path fill="none" stroke="#000000" stroke-linecap="round" stroke-linejoin="round" stroke-miterlimit="10" d="M8,14.521
			c-1.228,1.1-2,2.695-2,4.473v1l2.5,3.5h7l2.5-3.5v-1c0-1.777-0.772-3.373-1.999-4.473"/>
		<path fill="none" stroke="#000000" stroke-linecap="round" stroke-linejoin="round" stroke-miterlimit="10" d="M8.5,23.493h-7v-1
			c0-0.361,0.191-0.679,0.479-0.854L6,19.993"/>
		<path fill="none" stroke="#000000" stroke-linecap="round" stroke-linejoin="round" stroke-miterlimit="10" d="M15.5,23.493h7v-1
			c0-0.361-0.191-0.679-0.479-0.854L18,19.993"/>
		<path fill="none" stroke="#000000" stroke-linecap="round" stroke-linejoin="round" stroke-miterlimit="10" d="M8.5,18.493
			c0-0.295,0.127-0.559,0.328-0.742L12,15.993l3.172,1.76c0.201,0.183,0.328,0.446,0.328,0.74"/>
		
			<line fill="none" stroke="#000000" stroke-linecap="round" stroke-linejoin="round" stroke-miterlimit="10" x1="8.5" y1="19.993" x2="8.5" y2="20.493"/>
		
			<line fill="none" stroke="#000000" stroke-linecap="round" stroke-linejoin="round" stroke-miterlimit="10" x1="15.5" y1="19.993" x2="15.5" y2="20.493"/>
		
			<line fill="none" stroke="#000000" stroke-linecap="round" stroke-linejoin="round" stroke-miterlimit="10" x1="8.5" y1="6.493" x2="8.5" y2="7.993"/>
		
			<line fill="none" stroke="#000000" stroke-linecap="round" stroke-linejoin="round" stroke-miterlimit="10" x1="15.5" y1="6.493" x2="15.5" y2="7.993"/>
	</g>
</g>
<g id="invisible_shape">
	<rect fill="none" width="24" height="24"/>
</g>
</svg>
