<?xml version="1.0" encoding="utf-8"?>
<!-- Generator: Adobe Illustrator 16.0.3, SVG Export Plug-In . SVG Version: 6.00 Build 0)  -->
<!DOCTYPE svg PUBLIC "-//W3C//DTD SVG 1.1//EN" "http://www.w3.org/Graphics/SVG/1.1/DTD/svg11.dtd">
<svg version="1.1" xmlns="http://www.w3.org/2000/svg" xmlns:xlink="http://www.w3.org/1999/xlink" x="0px" y="0px" width="24px"
	 height="24px" viewBox="0 0 24 24" enable-background="new 0 0 24 24" xml:space="preserve">
<g id="Outline_Icons">
	<g>
		<path fill="none" stroke="#000000" stroke-linecap="round" stroke-linejoin="round" stroke-miterlimit="10" d="M19,20.499
			c2.485,0,4.5-2.015,4.5-4.5s-2.015-4.5-4.5-4.5h-1.5v-1.5c0-3.038-2.463-5.5-5.5-5.5s-5.5,2.462-5.5,5.5v1.5H5
			c-2.485,0-4.5,2.015-4.5,4.5s2.015,4.5,4.5,4.5h0.604c0.326,1.154,1.388,2,2.646,2h6c1.259,0,2.32-0.846,2.646-2H19z"/>
		<path fill="none" stroke="#000000" stroke-linecap="round" stroke-linejoin="round" stroke-miterlimit="10" d="M7.467,15.999
			c0.736,1.481,2.266,2.5,4.032,2.5s3.296-1.019,4.032-2.5"/>
		
			<line fill="none" stroke="#000000" stroke-linecap="round" stroke-linejoin="round" stroke-miterlimit="10" x1="9.5" y1="9.499" x2="9.5" y2="11.499"/>
		
			<line fill="none" stroke="#000000" stroke-linecap="round" stroke-linejoin="round" stroke-miterlimit="10" x1="13.5" y1="9.499" x2="13.5" y2="11.499"/>
	</g>
</g>
<g id="invisible_shape">
	<rect fill="none" width="24" height="24"/>
</g>
</svg>
