<?xml version="1.0" encoding="utf-8"?>
<!-- Generator: Adobe Illustrator 16.0.3, SVG Export Plug-In . SVG Version: 6.00 Build 0)  -->
<!DOCTYPE svg PUBLIC "-//W3C//DTD SVG 1.1//EN" "http://www.w3.org/Graphics/SVG/1.1/DTD/svg11.dtd">
<svg version="1.1" xmlns="http://www.w3.org/2000/svg" xmlns:xlink="http://www.w3.org/1999/xlink" x="0px" y="0px" width="24px"
	 height="24px" viewBox="0 0 24 24" enable-background="new 0 0 24 24" xml:space="preserve">
<g id="Outline_Icons">
	<g>
		<path fill="none" stroke="#000000" stroke-linecap="round" stroke-linejoin="round" stroke-miterlimit="10" d="M20.5,10.5
			c1.221-1.055,2-2.511,2-4.25c0-3.176-2.574-5.75-5.75-5.75h-9.5C4.074,0.5,1.5,3.074,1.5,6.25c0,1.743,0.775,3.195,2,4.25H20.5z"
			/>
		<polyline fill="none" stroke="#000000" stroke-linecap="round" stroke-linejoin="round" stroke-miterlimit="10" points="9,5.5 
			10.5,2.5 12,4.5 13.5,2.5 15,5.5 		"/>
		<path fill="none" stroke="#000000" stroke-linecap="round" stroke-linejoin="round" stroke-miterlimit="10" d="M20.5,10.5
			c0-1.656-1.344-3-3-3h-11c-1.657,0-3,1.344-3,3V15c0,4.694,3.806,8.5,8.5,8.5s8.5-3.806,8.5-8.5V10.5z"/>
		<path fill="none" stroke="#000000" stroke-linecap="round" stroke-linejoin="round" stroke-miterlimit="10" d="M3,11.5
			c-1.381,0-2.5,1.119-2.5,2.5s1.119,2.5,2.5,2.5"/>
		<path fill="none" stroke="#000000" stroke-linecap="round" stroke-linejoin="round" stroke-miterlimit="10" d="M21,16.5
			c1.381,0,2.5-1.119,2.5-2.5s-1.119-2.5-2.5-2.5"/>
		
			<line fill="none" stroke="#000000" stroke-linecap="round" stroke-linejoin="round" stroke-miterlimit="10" x1="8.5" y1="13" x2="8.5" y2="14"/>
		
			<line fill="none" stroke="#000000" stroke-linecap="round" stroke-linejoin="round" stroke-miterlimit="10" x1="15.5" y1="13" x2="15.5" y2="14"/>
		<path fill="none" stroke="#000000" stroke-linecap="round" stroke-linejoin="round" stroke-miterlimit="10" d="M11.987,19.648
			c-0.306,0.51-0.864,0.852-1.503,0.852c-0.701,0-1.305-0.412-1.584-1.005l-0.55-0.993C8.076,18.808,7.678,19,7.234,19
			c-0.646,0-1.197-0.409-1.408-0.981L5.25,16.484L9.75,16c0,1.242,1.008,2.5,2.25,2.5s2.25-1.258,2.25-2.5l4.484,0.484l-0.576,1.534
			C17.947,18.591,17.396,19,16.75,19c-0.443,0-0.842-0.192-1.116-0.498l-0.55,0.993C14.805,20.088,14.201,20.5,13.5,20.5
			c-0.639,0-1.197-0.342-1.503-0.852"/>
	</g>
</g>
<g id="invisible_shape">
	<rect fill="none" width="24" height="24"/>
</g>
</svg>
