<?xml version="1.0" encoding="utf-8"?>
<!-- Generator: Adobe Illustrator 16.0.3, SVG Export Plug-In . SVG Version: 6.00 Build 0)  -->
<!DOCTYPE svg PUBLIC "-//W3C//DTD SVG 1.1//EN" "http://www.w3.org/Graphics/SVG/1.1/DTD/svg11.dtd">
<svg version="1.1" xmlns="http://www.w3.org/2000/svg" xmlns:xlink="http://www.w3.org/1999/xlink" x="0px" y="0px" width="24px"
	 height="24px" viewBox="0 0 24 24" enable-background="new 0 0 24 24" xml:space="preserve">
<g id="Outline_Icons">
	<g>
		<path fill="none" stroke="#000000" stroke-linejoin="round" stroke-miterlimit="10" d="M6,4.493l1.053,4.499
			c0.364,2.545,2.553,4.501,5.197,4.501s4.832-1.956,5.196-4.5l0.554-4"/>
		<path fill="none" stroke="#000000" stroke-linecap="round" stroke-linejoin="round" stroke-miterlimit="10" d="M15.447,1.397
			c0.41-0.55,1.065-0.904,1.803-0.904c1.242,0,2.25,1.007,2.25,2.25c0,0.704-0.324,1.333-0.831,1.745l-3.961,3.087
			C14.05,8.147,13.19,8.493,12.25,8.493c-1.088,0-2.083-0.375-2.75-1.021L5.84,4.497C5.328,4.083,5,3.452,5,2.743
			c0-1.243,1.008-2.25,2.25-2.25c0.621,0,1.184,0.252,1.591,0.658l3.409,3.342L15.447,1.397z"/>
		
			<line fill="none" stroke="#000000" stroke-linecap="round" stroke-linejoin="round" stroke-miterlimit="10" x1="12" y1="13.493" x2="9.5" y2="23.493"/>
		<path fill="none" stroke="#000000" stroke-linecap="round" stroke-linejoin="round" stroke-miterlimit="10" d="M5.55,20.493
			c-0.735,0-1.389-0.354-1.8-0.9l-1.8-3.1h3.6c0.736,0,1.389,0.354,1.801,0.899l1.35,3.101H5.55z"/>
		<path fill="none" stroke="#000000" stroke-linecap="round" stroke-linejoin="round" stroke-miterlimit="10" d="M15.65,21.493
			c0.735,0,1.389-0.354,1.8-0.9l1.8-3.1h-3.6c-0.735,0-1.389,0.354-1.8,0.899L12.5,21.493H15.65z"/>
	</g>
</g>
<g id="invisible_shape">
	<rect fill="none" width="24" height="24"/>
</g>
</svg>
