<?xml version="1.0" encoding="utf-8"?>
<!-- Generator: Adobe Illustrator 16.0.3, SVG Export Plug-In . SVG Version: 6.00 Build 0)  -->
<!DOCTYPE svg PUBLIC "-//W3C//DTD SVG 1.1//EN" "http://www.w3.org/Graphics/SVG/1.1/DTD/svg11.dtd">
<svg version="1.1" xmlns="http://www.w3.org/2000/svg" xmlns:xlink="http://www.w3.org/1999/xlink" x="0px" y="0px" width="24px"
	 height="24px" viewBox="0 0 24 24" enable-background="new 0 0 24 24" xml:space="preserve">
<g id="Outline_Icons">
	<g>
		
			<circle fill="none" stroke="#000000" stroke-linecap="round" stroke-linejoin="round" stroke-miterlimit="10" cx="8.75" cy="4.75" r="4.25"/>
		
			<circle fill="none" stroke="#000000" stroke-linecap="round" stroke-linejoin="round" stroke-miterlimit="10" cx="8" cy="4.5" r="1"/>
		<line fill="none" stroke="#000000" stroke-linejoin="round" stroke-miterlimit="10" x1="9" y1="4.5" x2="13" y2="4.5"/>
		
			<line fill="none" stroke="#000000" stroke-linecap="round" stroke-linejoin="round" stroke-miterlimit="10" x1="8.5" y1="5.5" x2="8.5" y2="9"/>
		<path fill="none" stroke="#000000" stroke-linecap="round" stroke-linejoin="round" stroke-miterlimit="10" d="M11.5,15
			c0,1.657-1.343,2.5-3,2.5s-3-0.843-3-2.5v-3c0-1.657,1.343-3,3-3s3,1.343,3,3V15z"/>
		<path fill="none" stroke="#000000" stroke-linecap="round" stroke-linejoin="round" stroke-miterlimit="10" d="M6.5,21.5h-3
			c-0.552,0-1,0.448-1,1c0,0.553,0.448,1,1,1h3c0.553,0,1-0.447,1-1C7.5,21.948,7.053,21.5,6.5,21.5z"/>
		<path fill="none" stroke="#000000" stroke-linecap="round" stroke-linejoin="round" stroke-miterlimit="10" d="M5.701,19.497
			c0.141-0.697,0.355-1.784,0.635-2.421"/>
		<path fill="none" stroke="#000000" stroke-linecap="round" stroke-linejoin="round" stroke-miterlimit="10" d="M6.5,21.5v-1
			c0-0.552-0.447-1-1-1s-1,0.448-1,1v1"/>
		<path fill="none" stroke="#000000" stroke-linecap="round" stroke-linejoin="round" stroke-miterlimit="10" d="M10.5,21.5h3
			c0.553,0,1,0.448,1,1c0,0.553-0.447,1-1,1h-3c-0.553,0-1-0.447-1-1C9.5,21.948,9.947,21.5,10.5,21.5z"/>
		<path fill="none" stroke="#000000" stroke-linecap="round" stroke-linejoin="round" stroke-miterlimit="10" d="M11.299,19.497
			c-0.141-0.697-0.355-1.784-0.635-2.421"/>
		<path fill="none" stroke="#000000" stroke-linecap="round" stroke-linejoin="round" stroke-miterlimit="10" d="M10.5,21.5v-1
			c0-0.552,0.447-1,1-1s1,0.448,1,1v1"/>
		<path fill="none" stroke="#000000" stroke-linecap="round" stroke-linejoin="round" stroke-miterlimit="10" d="M0.5,15.5
			c0-3.314,2.686-6,6-6"/>
		
			<line fill="none" stroke="#000000" stroke-linecap="round" stroke-linejoin="round" stroke-miterlimit="10" x1="10.5" y1="9.5" x2="14.5" y2="9.5"/>
		<path fill="none" stroke="#000000" stroke-linecap="round" stroke-linejoin="round" stroke-miterlimit="10" d="M18.5,12.322
			c-0.312,0.11-0.649,0.171-1,0.171c-1.656,0-3-1.344-3-3c0-1.657,1.344-3,3-3c0.353,0,0.691,0.061,1.006,0.172L21.5,7.493v4
			L18.5,12.322z"/>
		<polyline fill="none" stroke="#000000" stroke-linecap="round" stroke-linejoin="round" stroke-miterlimit="10" points="21.5,8.5 
			23.5,8.5 23.5,10.5 21.5,10.5 		"/>
		
			<line fill="none" stroke="#000000" stroke-linecap="round" stroke-linejoin="round" stroke-miterlimit="10" x1="5.5" y1="14.5" x2="11.5" y2="14.5"/>
	</g>
</g>
<g id="invisible_shape">
	<rect fill="none" width="24" height="24"/>
</g>
</svg>
