<?xml version="1.0" encoding="utf-8"?>
<!-- Generator: Adobe Illustrator 16.0.3, SVG Export Plug-In . SVG Version: 6.00 Build 0)  -->
<!DOCTYPE svg PUBLIC "-//W3C//DTD SVG 1.1//EN" "http://www.w3.org/Graphics/SVG/1.1/DTD/svg11.dtd">
<svg version="1.1" xmlns="http://www.w3.org/2000/svg" xmlns:xlink="http://www.w3.org/1999/xlink" x="0px" y="0px" width="24px"
	 height="24px" viewBox="0 0 24 24" enable-background="new 0 0 24 24" xml:space="preserve">
<g id="Outline_Icons">
	<g>
		<path fill="none" stroke="#000000" stroke-linecap="round" stroke-linejoin="round" stroke-miterlimit="10" d="M6.5,11.394V8
			c0-3.313,2.687-6,6-6s6,2.687,6,6v3"/>
		<path fill="none" stroke="#000000" stroke-linejoin="round" stroke-miterlimit="10" d="M17.553,16.733
			c0.257-0.398,0.466-0.829,0.623-1.285c3.256-1.58,5.324-5.087,5.324-8.948l-5,3"/>
		<path fill="none" stroke="#000000" stroke-linecap="round" stroke-linejoin="round" stroke-miterlimit="10" d="M6.5,11.394
			C4.225,12.062,2.254,13.548,1,15.5h5.839c0.13,0.369,0.354,0.93,0.55,1.262"/>
		<path fill="none" stroke="#000000" stroke-linecap="round" stroke-linejoin="round" stroke-miterlimit="10" d="M15.5,13.5
			c0,0.5-2.5,2-3,2s-3-1.5-3-2c0-1.657,1.343-3,3-3S15.5,11.843,15.5,13.5z"/>
		
			<line fill="none" stroke="#000000" stroke-linecap="round" stroke-linejoin="round" stroke-miterlimit="10" x1="10.5" y1="7" x2="10.5" y2="8.5"/>
		
			<line fill="none" stroke="#000000" stroke-linecap="round" stroke-linejoin="round" stroke-miterlimit="10" x1="14.5" y1="7" x2="14.5" y2="8.5"/>
		<path fill="none" stroke="#000000" stroke-linecap="round" stroke-linejoin="round" stroke-miterlimit="10" d="M11.5,18.5
			c-0.232-1.142-1.79-2-3-2C7.119,16.5,6,17.619,6,19c0,0.819,0.395,1.548,1.004,2.004L9,22.5l2.5-1V18.5z"/>
		<path fill="none" stroke="#000000" stroke-linecap="round" stroke-linejoin="round" stroke-miterlimit="10" d="M18,20.999
			c0.607-0.455,1-1.182,1-1.999c0-1.381-1.119-2.5-2.5-2.5c-1.209,0-2.767,0.859-3,2v3.001L16,22.5L18,20.999z"/>
		<line fill="none" stroke="#000000" stroke-linejoin="round" stroke-miterlimit="10" x1="11.5" y1="19.5" x2="13.5" y2="19.5"/>
	</g>
</g>
<g id="invisible_shape">
	<rect fill="none" width="24" height="24"/>
</g>
</svg>
