<?xml version="1.0" encoding="utf-8"?>
<!-- Generator: Adobe Illustrator 16.0.3, SVG Export Plug-In . SVG Version: 6.00 Build 0)  -->
<!DOCTYPE svg PUBLIC "-//W3C//DTD SVG 1.1//EN" "http://www.w3.org/Graphics/SVG/1.1/DTD/svg11.dtd">
<svg version="1.1" xmlns="http://www.w3.org/2000/svg" xmlns:xlink="http://www.w3.org/1999/xlink" x="0px" y="0px" width="24px"
	 height="24px" viewBox="0 0 24 24" enable-background="new 0 0 24 24" xml:space="preserve">
<g id="Outline_Icons">
	<g>
		<path fill="none" stroke="#000000" stroke-linecap="round" stroke-linejoin="round" stroke-miterlimit="10" d="M19.112,13.033
			c0.252,0.777,0.388,1.605,0.388,2.467c0,4.418-3.581,8-8,8c-4.418,0-8-3.582-8-8c0-0.875,0.141-1.717,0.4-2.505l2.6-7.494h10
			L19.112,13.033z"/>
		<path fill="none" stroke="#000000" stroke-linecap="round" stroke-linejoin="round" stroke-miterlimit="10" d="M6.5,5.501v-1.19
			c0-1.973,2.238-3.571,5-3.571c2.76,0,5,1.599,5,3.571v1.19"/>
		
			<line fill="none" stroke="#000000" stroke-linecap="round" stroke-linejoin="round" stroke-miterlimit="10" x1="4.5" y1="5.501" x2="18.5" y2="5.501"/>
		<path fill="none" stroke="#000000" stroke-linejoin="round" stroke-miterlimit="10" d="M3.5,13.001c-0.828,0-1.5-0.671-1.5-1.5
			s0.672-1.5,1.5-1.5H5"/>
		<path fill="none" stroke="#000000" stroke-linejoin="round" stroke-miterlimit="10" d="M19.5,13.001c0.828,0,1.5-0.671,1.5-1.5
			s-0.672-1.5-1.5-1.5H18"/>
		
			<circle fill="none" stroke="#000000" stroke-linecap="round" stroke-linejoin="round" stroke-miterlimit="10" cx="8.5" cy="10.751" r="2.25"/>
		
			<circle fill="none" stroke="#000000" stroke-linecap="round" stroke-linejoin="round" stroke-miterlimit="10" cx="14.5" cy="10.751" r="2.25"/>
		<path fill="none" stroke="#000000" stroke-linecap="round" stroke-linejoin="round" stroke-miterlimit="10" d="M9.001,15.985
			L10.086,13c0.206-0.582,0.762-0.999,1.414-0.999c0.653,0,1.209,0.418,1.416,1.002L14,16.001"/>
		<path fill="none" stroke="#000000" stroke-linecap="round" stroke-linejoin="round" stroke-miterlimit="10" d="M8.926,18.682
			C8.671,18.882,8.35,19.001,8,19.001c-0.828,0-1.5-0.671-1.5-1.5s0.672-1.5,1.5-1.5h7c0.828,0,1.5,0.671,1.5,1.5
			s-0.672,1.5-1.5,1.5c-0.385,0-0.736-0.146-1.002-0.384"/>
		<path fill="none" stroke="#000000" stroke-linecap="round" stroke-linejoin="round" stroke-miterlimit="10" d="M11.5,18.751
			c0,0.69-0.56,1.25-1.25,1.25S9,19.441,9,18.751"/>
		<path fill="none" stroke="#000000" stroke-linecap="round" stroke-linejoin="round" stroke-miterlimit="10" d="M14,18.751
			c0,0.69-0.56,1.25-1.25,1.25s-1.25-0.56-1.25-1.25"/>
		
			<line fill="none" stroke="#000000" stroke-linecap="round" stroke-linejoin="round" stroke-miterlimit="10" x1="8.5" y1="10.501" x2="8.5" y2="11.001"/>
		
			<line fill="none" stroke="#000000" stroke-linecap="round" stroke-linejoin="round" stroke-miterlimit="10" x1="14.5" y1="10.501" x2="14.5" y2="11.001"/>
	</g>
</g>
<g id="invisible_shape">
	<rect fill="none" width="24" height="24"/>
</g>
</svg>
