<?xml version="1.0" encoding="utf-8"?>
<!-- Generator: Adobe Illustrator 16.0.3, SVG Export Plug-In . SVG Version: 6.00 Build 0)  -->
<!DOCTYPE svg PUBLIC "-//W3C//DTD SVG 1.1//EN" "http://www.w3.org/Graphics/SVG/1.1/DTD/svg11.dtd">
<svg version="1.1" xmlns="http://www.w3.org/2000/svg" xmlns:xlink="http://www.w3.org/1999/xlink" x="0px" y="0px" width="24px"
	 height="24px" viewBox="0 0 24 24" enable-background="new 0 0 24 24" xml:space="preserve">
<g id="Outline_Icons">
	<g>
		<path fill="none" stroke="#000000" stroke-linejoin="round" stroke-miterlimit="10" d="M16.5,7.5c0-1.656,1.343-3,3-3s3,1.344,3,3
			v3h-6V7.5z"/>
		<path fill="none" stroke="#000000" stroke-linejoin="round" stroke-miterlimit="10" d="M8.5,3.5c0-1.656,1.343-3,3-3s3,1.344,3,3
			v3h-6V3.5z"/>
		<path fill="none" stroke="#000000" stroke-linejoin="round" stroke-miterlimit="10" d="M0.5,7.5c0-1.656,1.343-3,3-3s3,1.344,3,3
			v3h-6V7.5z"/>
		<polyline fill="none" stroke="#000000" stroke-linejoin="round" stroke-miterlimit="10" points="13.506,19.646 18.5,23.5 
			4.5,23.5 9.423,19.688 		"/>
		
			<line fill="none" stroke="#000000" stroke-linecap="round" stroke-linejoin="round" stroke-miterlimit="10" x1="11.5" y1="11" x2="11.5" y2="13"/>
		<g>
			<path d="M10.5,3C10.224,3,10,3.225,10,3.5S10.224,4,10.5,4S11,3.775,11,3.5S10.776,3,10.5,3L10.5,3z"/>
		</g>
		<g>
			<path d="M12.5,3C12.224,3,12,3.225,12,3.5S12.224,4,12.5,4S13,3.775,13,3.5S12.776,3,12.5,3L12.5,3z"/>
		</g>
		<g>
			<path d="M2.5,7C2.224,7,2,7.225,2,7.5S2.224,8,2.5,8S3,7.775,3,7.5S2.776,7,2.5,7L2.5,7z"/>
		</g>
		<g>
			<path d="M4.5,7C4.224,7,4,7.225,4,7.5S4.224,8,4.5,8S5,7.775,5,7.5S4.776,7,4.5,7L4.5,7z"/>
		</g>
		<g>
			<path d="M18.5,7C18.224,7,18,7.225,18,7.5S18.224,8,18.5,8S19,7.775,19,7.5S18.776,7,18.5,7L18.5,7z"/>
		</g>
		<g>
			<path d="M20.5,7C20.224,7,20,7.225,20,7.5S20.224,8,20.5,8S21,7.775,21,7.5S20.776,7,20.5,7L20.5,7z"/>
		</g>
		<path fill="none" stroke="#000000" stroke-linejoin="round" stroke-miterlimit="10" d="M13.5,17.5c0-1.104-0.896-2-2-2
			s-2,0.896-2,2v6h4V17.5z"/>
	</g>
</g>
<g id="invisible_shape">
	<rect fill="none" width="24" height="24"/>
</g>
</svg>
