<?xml version="1.0" encoding="utf-8"?>
<!-- Generator: Adobe Illustrator 16.0.3, SVG Export Plug-In . SVG Version: 6.00 Build 0)  -->
<!DOCTYPE svg PUBLIC "-//W3C//DTD SVG 1.1//EN" "http://www.w3.org/Graphics/SVG/1.1/DTD/svg11.dtd">
<svg version="1.1" xmlns="http://www.w3.org/2000/svg" xmlns:xlink="http://www.w3.org/1999/xlink" x="0px" y="0px" width="24px"
	 height="24px" viewBox="0 0 24 24" enable-background="new 0 0 24 24" xml:space="preserve">
<g id="Outline_Icons">
	<g>
		<path fill="none" stroke="#000000" stroke-linejoin="round" stroke-miterlimit="10" d="M5.5,22.5c0,0.553-0.447,1-1,1h-3
			c-0.552,0-1-0.447-1-1v-7c0-0.551,0.448-1,1-1h3c0.553,0,1,0.449,1,1V22.5z"/>
		<path fill="none" stroke="#000000" stroke-linejoin="round" stroke-miterlimit="10" d="M22.5,22.5c0,0.553-0.447,1-1,1h-3
			c-0.552,0-1-0.447-1-1v-7c0-0.551,0.448-1,1-1h3c0.553,0,1,0.449,1,1V22.5z"/>
		<rect x="5.5" y="10.5" fill="none" stroke="#000000" stroke-linejoin="round" stroke-miterlimit="10" width="12" height="10"/>
		<rect x="10.5" y="0.5" fill="none" stroke="#000000" stroke-linejoin="round" stroke-miterlimit="10" width="2" height="10"/>
		<line fill="none" stroke="#000000" stroke-linejoin="round" stroke-miterlimit="10" x1="5.5" y1="13.5" x2="17.5" y2="13.5"/>
		<path fill="none" stroke="#000000" stroke-linejoin="round" stroke-miterlimit="10" d="M13.5,1.5c0.047,0.002,1,0,4.5,0
			c1.446,0.088,2.5,1,2.5,3C20.5,8.023,13.5,8.662,13.5,1.5z"/>
		<circle fill="none" stroke="#000000" stroke-linejoin="round" stroke-miterlimit="10" cx="17.004" cy="4.038" r="1"/>
		<path fill="none" stroke="#000000" stroke-linejoin="round" stroke-miterlimit="10" d="M9.5,1.5c-0.047,0.002-1,0-4.5,0
			c-1.446,0.088-2.5,1-2.5,3C2.5,8.023,9.5,8.662,9.5,1.5z"/>
		<circle fill="none" stroke="#000000" stroke-linejoin="round" stroke-miterlimit="10" cx="5.997" cy="4.038" r="1"/>
		
			<line fill="none" stroke="#000000" stroke-linecap="round" stroke-linejoin="round" stroke-miterlimit="10" x1="14.5" y1="20.5" x2="14.5" y2="17.5"/>
		
			<line fill="none" stroke="#000000" stroke-linecap="round" stroke-linejoin="round" stroke-miterlimit="10" x1="12.5" y1="20.5" x2="12.5" y2="17.5"/>
	</g>
</g>
<g id="invisible_shape">
	<rect fill="none" width="24" height="24"/>
</g>
</svg>
