<?xml version="1.0" encoding="utf-8"?>
<!-- Generator: Adobe Illustrator 16.0.3, SVG Export Plug-In . SVG Version: 6.00 Build 0)  -->
<!DOCTYPE svg PUBLIC "-//W3C//DTD SVG 1.1//EN" "http://www.w3.org/Graphics/SVG/1.1/DTD/svg11.dtd">
<svg version="1.1" xmlns="http://www.w3.org/2000/svg" xmlns:xlink="http://www.w3.org/1999/xlink" x="0px" y="0px" width="24px"
	 height="24px" viewBox="0 0 24 24" enable-background="new 0 0 24 24" xml:space="preserve">
<g id="Outline_Icons">
	<g>
		<path fill="none" stroke="#000000" stroke-linecap="round" stroke-linejoin="round" stroke-miterlimit="10" d="M22.516,9.171
			c-1.5,0.5-3,0.5-4-0.5"/>
		
			<line fill="none" stroke="#000000" stroke-linecap="round" stroke-linejoin="round" stroke-miterlimit="10" x1="17" y1="3" x2="17" y2="4"/>
		<path fill="none" stroke="#000000" stroke-linecap="round" stroke-linejoin="round" stroke-miterlimit="10" d="M7.024,11.998
			c-0.006,0.083-0.009,0.166-0.009,0.252c0,1.795,1.455,3.25,3.25,3.25s3.25-1.455,3.25-3.25c0-0.442-0.088-0.863-0.248-1.247"/>
		<path fill="none" stroke="#000000" stroke-linecap="round" stroke-linejoin="round" stroke-miterlimit="10" d="M10.016,23.5
			c-0.237,0-0.436-0.166-0.488-0.387l-1.54-3.584c-1.497-0.58-2.745-1.661-3.538-3.037L0.5,11.001C2.521,11.721,4.247,12,6.516,12
			c2.658,0,5.19-0.539,7.493-1.513C13.285,9.733,12.516,8.353,12.516,7c0-1.851,1-3,2.499-3.821L15.016,2.5c0-1.105,0.896-2,2-2
			s2,0.895,2,2V4h0.5c1.934,0,3.5,1.566,3.5,3.5c0,1.932-1.566,3.5-3.5,3.5c-0.536,0-1.544-0.121-1.998-0.336"/>
		<path fill="none" stroke="#000000" stroke-linecap="round" stroke-linejoin="round" stroke-miterlimit="10" d="M18.016,11
			c0,1.5-0.534,2.801-0.6,3.186l1.801,0.898c0.467,0.18,0.799,0.635,0.799,1.166c0,0.689-0.56,1.25-1.25,1.25
			c-0.232,0-0.449-0.064-0.636-0.174l-1.557-0.816c-0.796,1.371-2.044,2.447-3.541,3.023L12.004,21"/>
		<path fill="none" stroke="#000000" stroke-linecap="round" stroke-linejoin="round" stroke-miterlimit="10" d="M12.004,21h2.012
			c0.828,0,1.5,0.671,1.5,1.5c0,0.828-0.672,1-1.5,1h-4"/>
	</g>
</g>
<g id="invisible_shape">
	<rect fill="none" width="24" height="24"/>
</g>
</svg>
