<?xml version="1.0" encoding="utf-8"?>
<!-- Generator: Adobe Illustrator 19.2.0, SVG Export Plug-In . SVG Version: 6.00 Build 0)  -->
<svg version="1.1" xmlns="http://www.w3.org/2000/svg" xmlns:xlink="http://www.w3.org/1999/xlink" x="0px" y="0px" width="24px"
	 height="24px" viewBox="0 0 24 24" enable-background="new 0 0 24 24" xml:space="preserve">
<g id="Filled_Icons">
	<g>
		<path d="M19.58,4.475l-0.001-0.003C19.563,2.003,17.552,0,15.081,0h-6C6.609,0,4.599,2.003,4.582,4.47L4.581,4.475L3.663,21.896
			c-0.028,0.545,0.171,1.086,0.547,1.479C4.586,23.773,5.114,24,5.661,24h12.838c0.546,0,1.075-0.227,1.45-0.622
			c0.375-0.395,0.575-0.935,0.548-1.482L19.58,4.475z M7.581,21c-0.552,0-1-0.447-1-1c0-0.551,0.448-1,1-1c0.551,0,1,0.449,1,1
			C8.581,20.553,8.132,21,7.581,21z M14.081,11c0-0.551,0.448-1,1-1c0.551,0,1,0.449,1,1c0,0.553-0.449,1-1,1
			C14.529,12,14.081,11.553,14.081,11z M14.581,14c0,0.553-0.449,1-1,1c-0.552,0-1-0.447-1-1c0-0.551,0.448-1,1-1
			C14.132,13,14.581,13.449,14.581,14z M13.581,9c-0.552,0-1-0.447-1-1c0-0.551,0.448-1,1-1c0.551,0,1,0.449,1,1
			C14.581,8.553,14.132,9,13.581,9z M13.081,11c0,0.553-0.449,1-1,1c-0.552,0-1-0.447-1-1c0-0.551,0.448-1,1-1
			C12.632,10,13.081,10.449,13.081,11z M11.581,14c0,0.553-0.449,1-1,1c-0.552,0-1-0.447-1-1c0-0.551,0.448-1,1-1
			C11.132,13,11.581,13.449,11.581,14z M10.581,9c-0.552,0-1-0.447-1-1c0-0.551,0.448-1,1-1c0.551,0,1,0.449,1,1
			C11.581,8.553,11.132,9,10.581,9z M10.081,11c0,0.553-0.449,1-1,1c-0.552,0-1-0.447-1-1c0-0.551,0.448-1,1-1
			C9.632,10,10.081,10.449,10.081,11z M7.581,9c-0.552,0-1-0.447-1-1c0-0.551,0.448-1,1-1c0.551,0,1,0.449,1,1
			C8.581,8.553,8.132,9,7.581,9z M7.581,13c0.551,0,1,0.449,1,1c0,0.553-0.449,1-1,1c-0.552,0-1-0.447-1-1
			C6.581,13.449,7.029,13,7.581,13z M8.081,17c0-0.551,0.448-1,1-1c0.551,0,1,0.449,1,1c0,0.553-0.449,1-1,1
			C8.529,18,8.081,17.553,8.081,17z M10.581,21c-0.552,0-1-0.447-1-1c0-0.551,0.448-1,1-1c0.551,0,1,0.449,1,1
			C11.581,20.553,11.132,21,10.581,21z M11.081,17c0-0.551,0.448-1,1-1c0.551,0,1,0.449,1,1c0,0.553-0.449,1-1,1
			C11.529,18,11.081,17.553,11.081,17z M13.581,21c-0.552,0-1-0.447-1-1c0-0.551,0.448-1,1-1c0.551,0,1,0.449,1,1
			C14.581,20.553,14.132,21,13.581,21z M14.081,17c0-0.551,0.448-1,1-1c0.551,0,1,0.449,1,1c0,0.553-0.449,1-1,1
			C14.529,18,14.081,17.553,14.081,17z M16.581,21c-0.552,0-1-0.447-1-1c0-0.551,0.448-1,1-1c0.551,0,1,0.449,1,1
			C17.581,20.553,17.132,21,16.581,21z M16.581,15c-0.552,0-1-0.447-1-1c0-0.551,0.448-1,1-1c0.551,0,1,0.449,1,1
			C17.581,14.553,17.132,15,16.581,15z M16.581,9c-0.552,0-1-0.447-1-1c0-0.551,0.448-1,1-1c0.551,0,1,0.449,1,1
			C17.581,8.553,17.132,9,16.581,9z M5.616,4C5.859,2.307,7.32,1,9.081,1h6c1.76,0,3.221,1.307,3.464,3H5.616z"/>
	</g>
</g>
<g id="invisible_shape">
	<rect fill="none" width="24" height="24"/>
</g>
</svg>
