<?xml version="1.0" encoding="utf-8"?>
<!-- Generator: Adobe Illustrator 19.2.0, SVG Export Plug-In . SVG Version: 6.00 Build 0)  -->
<svg version="1.1" xmlns="http://www.w3.org/2000/svg" xmlns:xlink="http://www.w3.org/1999/xlink" x="0px" y="0px" width="24px"
	 height="24px" viewBox="0 0 24 24" enable-background="new 0 0 24 24" xml:space="preserve">
<g id="Filled_Icons">
	<path d="M11.418,0C6.121,0,0.42,3.756,0.42,12c0,4.551,2.916,11.408,3.04,11.697C3.539,23.883,3.72,24,3.92,24h15
		c0.2,0,0.381-0.117,0.459-0.303C19.503,23.408,22.42,16.551,22.42,12C22.42,3.756,16.717,0,11.418,0z M11,3.5
		C11,3.225,11.224,3,11.5,3S12,3.225,12,3.5v1C12,4.776,11.776,5,11.5,5S11,4.776,11,4.5V3.5z M11,6.022V9
		c0,0.276,0.224,0.5,0.5,0.5S12,9.276,12,9V6.037C14.483,6.326,16.42,8.44,16.42,11c0,2.758-2.243,5-5,5c-2.757,0-5-2.242-5-5
		C6.42,8.386,8.439,6.236,11,6.022z M12,17.5v1c0,0.276-0.224,0.5-0.5,0.5S11,18.776,11,18.5v-1c0-0.275,0.224-0.5,0.5-0.5
		S12,17.225,12,17.5z M5,11.5H4c-0.276,0-0.5-0.224-0.5-0.5c0-0.275,0.224-0.5,0.5-0.5h1c0.276,0,0.5,0.225,0.5,0.5
		C5.5,11.276,5.276,11.5,5,11.5z M5.763,5.344C5.958,5.15,6.274,5.15,6.47,5.345l0.707,0.708c0.195,0.195,0.195,0.512,0,0.707
		C7.079,6.857,6.951,6.905,6.823,6.905c-0.128,0-0.257-0.048-0.355-0.147L5.762,6.051C5.567,5.856,5.567,5.539,5.763,5.344z
		 M6.116,16.804c-0.128,0-0.256-0.049-0.353-0.146c-0.195-0.196-0.195-0.513,0-0.707l0.707-0.708c0.195-0.194,0.512-0.194,0.707,0
		c0.195,0.195,0.195,0.512,0,0.708L6.47,16.658C6.372,16.755,6.244,16.804,6.116,16.804z M16,22H7c-0.276,0-0.5-0.224-0.5-0.5
		C6.5,21.225,6.724,21,7,21h9c0.276,0,0.5,0.225,0.5,0.5C16.5,21.776,16.276,22,16,22z M17.076,16.658
		c-0.098,0.097-0.226,0.146-0.354,0.146c-0.128,0-0.256-0.049-0.354-0.146l-0.707-0.707c-0.195-0.196-0.195-0.513,0-0.708
		c0.195-0.194,0.512-0.194,0.707,0l0.707,0.708C17.271,16.146,17.271,16.462,17.076,16.658z M17.076,6.051l-0.707,0.708
		c-0.098,0.099-0.226,0.147-0.354,0.147c-0.128,0-0.256-0.048-0.354-0.146c-0.195-0.195-0.195-0.512-0.001-0.707l0.707-0.708
		c0.195-0.194,0.513-0.194,0.708-0.001C17.271,5.539,17.271,5.856,17.076,6.051z M19,11.5h-1c-0.276,0-0.5-0.224-0.5-0.5
		c0-0.275,0.224-0.5,0.5-0.5h1c0.276,0,0.5,0.225,0.5,0.5C19.5,11.276,19.276,11.5,19,11.5z"/>
</g>
<g id="invisible_shape">
	<rect fill="none" width="24" height="24"/>
</g>
</svg>
