<?xml version="1.0" encoding="utf-8"?>
<!-- Generator: Adobe Illustrator 19.2.0, SVG Export Plug-In . SVG Version: 6.00 Build 0)  -->
<svg version="1.1" xmlns="http://www.w3.org/2000/svg" xmlns:xlink="http://www.w3.org/1999/xlink" x="0px" y="0px" width="24px"
	 height="24px" viewBox="0 0 24 24" enable-background="new 0 0 24 24" xml:space="preserve">
<g id="Filled_Icons">
	<g>
		<g>
			<g>
				<path d="M7.522,24c-0.128,0-0.256-0.049-0.353-0.146c-0.195-0.195-0.195-0.512,0-0.707c0.541-0.541,0.376-0.759-0.065-1.343
					c-0.428-0.566-1.143-1.516,0.04-2.699c0.195-0.195,0.512-0.195,0.707,0c0.195,0.196,0.195,0.513,0,0.707
					c-0.568,0.568-0.387,0.81,0.051,1.39c0.423,0.559,1.13,1.496-0.026,2.652C7.777,23.951,7.649,24,7.522,24z"/>
			</g>
			<g>
				<path d="M12.021,24c-0.128,0-0.256-0.049-0.353-0.146c-0.195-0.195-0.195-0.512,0-0.707c0.541-0.541,0.376-0.759-0.064-1.343
					c-0.428-0.566-1.144-1.516,0.04-2.699c0.195-0.195,0.512-0.195,0.707,0c0.195,0.196,0.195,0.513,0,0.707
					c-0.568,0.568-0.387,0.81,0.051,1.39c0.423,0.559,1.13,1.496-0.026,2.652C12.277,23.951,12.149,24,12.021,24z"/>
			</g>
			<g>
				<path d="M16.521,24c-0.128,0-0.256-0.049-0.354-0.146c-0.195-0.195-0.195-0.512,0-0.707c0.541-0.541,0.376-0.759-0.064-1.343
					c-0.428-0.566-1.144-1.516,0.04-2.699c0.195-0.195,0.512-0.195,0.707,0c0.195,0.196,0.195,0.513,0,0.707
					c-0.568,0.568-0.387,0.81,0.051,1.39c0.423,0.559,1.13,1.496-0.026,2.652C16.777,23.951,16.649,24,16.521,24z"/>
			</g>
		</g>
		<g>
			<polygon points="23.685,12 17.852,7 6.148,7 0.315,12 			"/>
			<path d="M17,6V0.5C17,0.224,16.776,0,16.5,0h-9C7.224,0,7,0.224,7,0.5V6H17z"/>
			<path d="M0,13.001V16.5C0,16.776,0.224,17,0.5,17h23c0.276,0,0.5-0.224,0.5-0.5v-3.499H0z M7.5,15H3.547
				c-0.276,0-0.5-0.224-0.5-0.5S3.27,14,3.547,14H7.5C7.776,14,8,14.224,8,14.5S7.776,15,7.5,15z M13.5,15H9.547
				c-0.276,0-0.5-0.224-0.5-0.5s0.224-0.5,0.5-0.5H13.5c0.276,0,0.5,0.224,0.5,0.5S13.776,15,13.5,15z M17.5,15
				c-0.276,0-0.5-0.224-0.5-0.5s0.224-0.5,0.5-0.5s0.5,0.224,0.5,0.5S17.776,15,17.5,15z M20.5,15c-0.276,0-0.5-0.224-0.5-0.5
				s0.224-0.5,0.5-0.5s0.5,0.224,0.5,0.5S20.776,15,20.5,15z"/>
		</g>
	</g>
</g>
<g id="invisible_shape">
	<rect fill="none" width="24" height="24"/>
</g>
</svg>
