<?xml version="1.0" encoding="utf-8"?>
<!-- Generator: Adobe Illustrator 19.2.0, SVG Export Plug-In . SVG Version: 6.00 Build 0)  -->
<svg version="1.1" xmlns="http://www.w3.org/2000/svg" xmlns:xlink="http://www.w3.org/1999/xlink" x="0px" y="0px" width="24px"
	 height="24px" viewBox="0 0 24 24" enable-background="new 0 0 24 24" xml:space="preserve">
<g id="Filled_Icons">
	<g>
		<path d="M14.962,4.3c1.609,0.558,2.589,2.184,2.328,3.865c-0.006,0.038-0.013,0.075-0.021,0.111l-1.407,6.027l0.828,1.815
			c0.001,0.002,0.001,0.004,0.002,0.006l0.933,2.043l4.577-2.09l-0.762-1.669l1.492-6.396c0.187-1.204-0.515-2.368-1.667-2.769
			c-1.209-0.417-2.723,0.157-3.246,1.669l-0.421-0.922c-1.184-2.594-3.235-4.142-5.488-4.142c-0.768,0-1.547,0.178-2.316,0.529
			C9.732,2.406,9.678,2.44,9.618,2.469c0.744,0.648,1.402,1.473,1.934,2.456C12.461,4.166,13.787,3.893,14.962,4.3z"/>
		<path d="M22.616,16.988l-4.652,2.123c0.025,0.231,0.004,0.464-0.079,0.685c-0.139,0.373-0.421,0.675-0.782,0.841l-4.246,1.938
			l0.521,1.14c0.084,0.184,0.266,0.292,0.455,0.292c0.069,0,0.141-0.014,0.208-0.045l9.277-4.234c0.12-0.055,0.214-0.156,0.261-0.28
			c0.046-0.124,0.041-0.262-0.014-0.382L22.616,16.988z"/>
	</g>
	<g>
		<path d="M15.571,16.078l-0.762-1.669l1.492-6.396c0.187-1.204-0.515-2.368-1.667-2.769c-1.194-0.412-2.716,0.142-3.246,1.669
			l-0.421-0.922C9.784,3.398,7.732,1.85,5.479,1.85c-0.768,0-1.547,0.178-2.316,0.529C0.117,3.77-0.841,7.09,0.779,10.641
			l4.606,10.088L15.571,16.078z"/>
		<path d="M15.986,16.988L5.8,21.639l0.947,2.075c0.084,0.184,0.266,0.292,0.455,0.292c0.069,0,0.141-0.014,0.208-0.045l9.277-4.234
			c0.12-0.055,0.214-0.156,0.261-0.28c0.046-0.124,0.041-0.262-0.014-0.382L15.986,16.988z"/>
	</g>
</g>
<g id="invisible_shape">
	<rect fill="none" width="24" height="24"/>
</g>
</svg>
