<?xml version="1.0" encoding="utf-8"?>
<!-- Generator: Adobe Illustrator 19.2.0, SVG Export Plug-In . SVG Version: 6.00 Build 0)  -->
<svg version="1.1" xmlns="http://www.w3.org/2000/svg" xmlns:xlink="http://www.w3.org/1999/xlink" x="0px" y="0px" width="24px"
	 height="24px" viewBox="0 0 24 24" enable-background="new 0 0 24 24" xml:space="preserve">
<g id="Filled_Icons">
	<g>
		<path d="M6.389,14.789C6.267,14.666,6.173,14.523,6.1,14.37l-5.367,5.368c-0.975,0.975-0.975,2.56,0,3.535
			c0.466,0.465,1.109,0.733,1.768,0.733c0.668,0,1.295-0.26,1.768-0.733L9.57,17.97L6.389,14.789z"/>
		<g>
			<path d="M11.32,17.599c4.732-5.041,7.687-11.485,6.865-14.977l-0.085-0.253L7.096,13.375c-0.094,0.093-0.146,0.22-0.146,0.352
				c0,0.133,0.053,0.261,0.146,0.354l3.871,3.871L11.32,17.599z"/>
			<path d="M20.178,1c-0.094-0.094-0.221-0.146-0.354-0.146c-0.133,0-0.26,0.053-0.354,0.146L18.89,1.581l0.257,0.767
				c0.92,3.896-2.074,10.583-7.108,15.946l-0.364,0.364l1.08,1.079c0.098,0.098,0.226,0.146,0.354,0.146
				c0.128,0,0.256-0.049,0.354-0.146C19.48,13.718,23.72,4.542,20.178,1z"/>
		</g>
	</g>
</g>
<g id="invisible_shape">
	<rect fill="none" width="24" height="24"/>
</g>
</svg>
