<?xml version="1.0" encoding="utf-8"?>
<!-- Generator: Adobe Illustrator 19.2.0, SVG Export Plug-In . SVG Version: 6.00 Build 0)  -->
<svg version="1.1" xmlns="http://www.w3.org/2000/svg" xmlns:xlink="http://www.w3.org/1999/xlink" x="0px" y="0px" width="24px"
	 height="24px" viewBox="0 0 24 24" enable-background="new 0 0 24 24" xml:space="preserve">
<g id="Filled_Icons">
	<g>
		<path d="M20.5,0.506c-0.276,0-0.5,0.224-0.5,0.5v21.5c0,0.276,0.224,0.5,0.5,0.5s0.5-0.224,0.5-0.5V17h2.5
			c0.276,0,0.5-0.224,0.5-0.5C24,13.393,23.585,0.506,20.5,0.506z"/>
		<path d="M7,7.006v-5c0-0.276-0.224-0.5-0.5-0.5S6,1.73,6,2.006v5c0,1.207-0.86,2.217-2,2.449V2.006c0-0.276-0.224-0.5-0.5-0.5
			S3,1.73,3,2.006v7.449C1.86,9.223,1,8.213,1,7.006v-5c0-0.276-0.224-0.5-0.5-0.5S0,1.73,0,2.006v5c0,1.759,1.309,3.204,3,3.449
			v12.051c0,0.276,0.224,0.5,0.5,0.5s0.5-0.224,0.5-0.5V10.455C5.691,10.21,7,8.765,7,7.006z"/>
		<circle cx="12" cy="16.006" r="7"/>
	</g>
</g>
<g id="invisible_shape">
	<rect fill="none" width="24" height="24"/>
</g>
</svg>
