<?xml version="1.0" encoding="utf-8"?>
<!-- Generator: Adobe Illustrator 19.2.0, SVG Export Plug-In . SVG Version: 6.00 Build 0)  -->
<svg version="1.1" xmlns="http://www.w3.org/2000/svg" xmlns:xlink="http://www.w3.org/1999/xlink" x="0px" y="0px" width="24px"
	 height="24px" viewBox="0 0 24 24" enable-background="new 0 0 24 24" xml:space="preserve">
<g id="Filled_Icons">
	<g>
		<path d="M10,0.006c-0.553,0-1,0.449-1,1v4.5c0,0.737-0.405,1.375-1,1.723V1.006c0-0.551-0.448-1-1-1c-0.553,0-1,0.449-1,1v6.223
			C5.404,6.881,5,6.243,5,5.506v-4.5c0-0.551-0.448-1-1-1c-0.553,0-1,0.449-1,1v4.5c0,1.86,1.277,3.423,3,3.869v13.633
			c0,0.551,0.447,1,1,1c0.552,0,1-0.449,1-1V9.375c1.722-0.446,3-2.009,3-3.869v-4.5C11,0.455,10.552,0.006,10,0.006z"/>
		<path d="M17,0.006c-1.795,0-3,1.407-3,3.5v2c0,1.675,0.773,2.908,2,3.336v14.166c0,0.551,0.447,1,1,1c0.552,0,1-0.449,1-1V8.859
			c1.443-0.432,2.5-1.77,2.5-3.353v-2C20.5,1.576,18.93,0.006,17,0.006z"/>
	</g>
</g>
<g id="invisible_shape">
	<rect fill="none" width="24" height="24"/>
</g>
</svg>
