<?xml version="1.0" encoding="utf-8"?>
<!-- Generator: Adobe Illustrator 19.2.0, SVG Export Plug-In . SVG Version: 6.00 Build 0)  -->
<svg version="1.1" xmlns="http://www.w3.org/2000/svg" xmlns:xlink="http://www.w3.org/1999/xlink" x="0px" y="0px" width="24px"
	 height="24px" viewBox="0 0 24 24" enable-background="new 0 0 24 24" xml:space="preserve">
<g id="Filled_Icons">
	<g>
		<path d="M19,15.5c-0.012-6.299-0.583-13.55-2.241-15.138C16.575,0.147,16.305,0.006,16,0.006c-0.553,0-1,0.449-1,1v22.002
			c0,0.551,0.447,1,1,1c0.552,0,1-0.449,1-1V16c0,0,1.507,0,1.51,0c0.276,0,0.5-0.124,0.5-0.398C19.01,15.566,19.006,15.533,19,15.5
			z"/>
		<path d="M11,0.006c-0.553,0-1,0.449-1,1v4.5c0,0.737-0.405,1.375-1,1.723V1.006c0-0.551-0.448-1-1-1c-0.553,0-1,0.449-1,1v6.223
			C6.404,6.881,6,6.243,6,5.506v-4.5c0-0.551-0.448-1-1-1c-0.553,0-1,0.449-1,1v4.5c0,1.86,1.277,3.423,3,3.869v13.633
			c0,0.551,0.447,1,1,1c0.552,0,1-0.449,1-1V9.375c1.722-0.446,3-2.009,3-3.869v-4.5C12,0.455,11.552,0.006,11,0.006z"/>
	</g>
</g>
<g id="invisible_shape">
	<rect fill="none" width="24" height="24"/>
</g>
</svg>
