<?xml version="1.0" encoding="utf-8"?>
<!-- Generator: Adobe Illustrator 19.2.0, SVG Export Plug-In . SVG Version: 6.00 Build 0)  -->
<svg version="1.1" xmlns="http://www.w3.org/2000/svg" xmlns:xlink="http://www.w3.org/1999/xlink" x="0px" y="0px" width="24px"
	 height="24px" viewBox="0 0 24 24" enable-background="new 0 0 24 24" xml:space="preserve">
<g id="Filled_Icons">
	<path d="M21.768,9.309l-7.071-7.07c-0.941-0.942-2.588-0.944-3.535,0l-7.778,7.778c-0.473,0.472-0.732,1.1-0.732,1.768
		c0,0.668,0.26,1.296,0.732,1.768l2.828,2.828l-4.949,4.95c-0.391,0.391-0.391,1.024,0,1.414c0.195,0.195,0.451,0.293,0.707,0.293
		c0.256,0,0.512-0.098,0.707-0.293l4.949-4.95l2.829,2.83c0.473,0.472,1.101,0.731,1.768,0.731c0.668,0,1.296-0.261,1.768-0.733
		l7.778-7.778C22.742,11.87,22.742,10.284,21.768,9.309z M12.929,18.147c-0.098,0.098-0.226,0.146-0.354,0.146
		s-0.256-0.049-0.354-0.146l-6.364-6.364c-0.195-0.195-0.195-0.512,0-0.707c0.195-0.195,0.512-0.195,0.707,0l6.364,6.365
		C13.124,17.636,13.124,17.952,12.929,18.147z M15.051,16.026c-0.098,0.099-0.226,0.147-0.354,0.147
		c-0.128,0-0.256-0.049-0.354-0.147L7.979,9.662c-0.195-0.195-0.195-0.512,0-0.707c0.195-0.195,0.512-0.195,0.707,0l6.364,6.364
		C15.246,15.515,15.246,15.831,15.051,16.026z M17.172,13.906c-0.098,0.097-0.226,0.146-0.354,0.146
		c-0.128,0-0.256-0.049-0.354-0.146l-6.364-6.365c-0.195-0.195-0.195-0.512,0-0.707s0.512-0.195,0.707,0l6.364,6.364
		C17.367,13.394,17.367,13.71,17.172,13.906z M19.293,11.783c-0.098,0.098-0.226,0.146-0.353,0.146
		c-0.128,0-0.256-0.049-0.354-0.146L12.222,5.42c-0.195-0.195-0.195-0.512,0-0.707c0.195-0.195,0.512-0.195,0.707,0l6.364,6.363
		C19.488,11.271,19.488,11.588,19.293,11.783z"/>
</g>
<g id="invisible_shape">
	<rect fill="none" width="24" height="24"/>
</g>
</svg>
