<?xml version="1.0" encoding="utf-8"?>
<!-- Generator: Adobe Illustrator 19.2.0, SVG Export Plug-In . SVG Version: 6.00 Build 0)  -->
<svg version="1.1" xmlns="http://www.w3.org/2000/svg" xmlns:xlink="http://www.w3.org/1999/xlink" x="0px" y="0px" width="24px"
	 height="24px" viewBox="0 0 24 24" enable-background="new 0 0 24 24" xml:space="preserve">
<g id="Filled_Icons">
	<g>
		<path d="M20.5,12h-16C4.224,12,4,12.225,4,12.5v8c0,1.208,0.859,2.219,2,2.451V23.5C6,23.776,6.224,24,6.5,24
			C6.775,24,7,23.776,7,23.5V23h11v0.5c0,0.276,0.224,0.5,0.5,0.5c0.275,0,0.5-0.224,0.5-0.5v-0.549c1.14-0.233,2-1.243,2-2.451v-8
			C21,12.225,20.775,12,20.5,12z M16,16.5c0,0.276-0.225,0.5-0.5,0.5c-0.276,0-0.5-0.224-0.5-0.5V16h-5v0.5
			c0,0.276-0.225,0.5-0.5,0.5C9.224,17,9,16.776,9,16.5v-1C9,15.225,9.224,15,9.5,15h6c0.275,0,0.5,0.225,0.5,0.5V16.5z"/>
		<rect x="10" y="4" width="2" height="7"/>
		<path d="M19,8.5v-4C19,4.225,18.775,4,18.5,4H16v7h0.5C17.878,11,19,9.879,19,8.5z"/>
		<rect x="13" y="4" width="2" height="7"/>
		<path d="M6,2.5v2v4C6,9.879,7.121,11,8.5,11H9V4H7V2.5C7,1.122,5.878,0,4.5,0h-4C0.224,0,0,0.225,0,0.5C0,0.776,0.224,1,0.5,1h4
			C5.326,1,6,1.674,6,2.5z"/>
	</g>
</g>
<g id="invisible_shape">
	<rect fill="none" width="24" height="24"/>
</g>
</svg>
