<?xml version="1.0" encoding="utf-8"?>
<!-- Generator: Adobe Illustrator 19.2.0, SVG Export Plug-In . SVG Version: 6.00 Build 0)  -->
<svg version="1.1" xmlns="http://www.w3.org/2000/svg" xmlns:xlink="http://www.w3.org/1999/xlink" x="0px" y="0px" width="24px"
	 height="24px" viewBox="0 0 24 24" enable-background="new 0 0 24 24" xml:space="preserve">
<g id="Filled_Icons">
	<g>
		<g>
			<path d="M15.92,0.584c1.306,0.96,1.232,2.822,0.721,3.598c-0.353-0.288-0.666-0.604-0.721-1.079
				c-1.201,0.476-1.799,1.417-1.799,2.519C14.121,7.211,15.41,8.5,17,8.5s2.879-1.289,2.879-2.879
				C19.879,3.299,18.206,1.109,15.92,0.584z"/>
		</g>
		<g>
			<path d="M5.92,0.584c1.306,0.96,1.232,2.822,0.721,3.598C6.288,3.894,5.975,3.578,5.92,3.102
				C4.719,3.578,4.121,4.519,4.121,5.621C4.121,7.211,5.41,8.5,7,8.5s2.879-1.289,2.879-2.879C9.879,3.299,8.206,1.109,5.92,0.584z"
				/>
		</g>
		<g>
			<path d="M11,10V9.5C11,9.224,10.776,9,10.5,9h-7C3.224,9,3,9.224,3,9.5V10H11z"/>
			<path d="M23.5,11h-23C0.224,11,0,11.224,0,11.5v12C0,23.776,0.224,24,0.5,24H5v-7.5C5,16.224,5.224,16,5.5,16h13
				c0.276,0,0.5,0.224,0.5,0.5V24h4.5c0.276,0,0.5-0.224,0.5-0.5v-12C24,11.224,23.776,11,23.5,11z M7,15
				c-0.827,0-1.5-0.673-1.5-1.5S6.173,12,7,12s1.5,0.673,1.5,1.5S7.827,15,7,15z M17,15c-0.827,0-1.5-0.673-1.5-1.5S16.173,12,17,12
				s1.5,0.673,1.5,1.5S17.827,15,17,15z"/>
			<path d="M6,24h12v-7H6V24z M9,18h6c0.276,0,0.5,0.224,0.5,0.5S15.276,19,15,19H9c-0.276,0-0.5-0.224-0.5-0.5S8.724,18,9,18z"/>
			<path d="M21,10V9.5C21,9.224,20.776,9,20.5,9h-7C13.224,9,13,9.224,13,9.5V10H21z"/>
		</g>
	</g>
</g>
<g id="invisible_shape">
	<rect fill="none" width="24" height="24"/>
</g>
</svg>
