<?xml version="1.0" encoding="utf-8"?>
<!-- Generator: Adobe Illustrator 19.2.0, SVG Export Plug-In . SVG Version: 6.00 Build 0)  -->
<svg version="1.1" xmlns="http://www.w3.org/2000/svg" xmlns:xlink="http://www.w3.org/1999/xlink" x="0px" y="0px" width="24px"
	 height="24px" viewBox="0 0 24 24" enable-background="new 0 0 24 24" xml:space="preserve">
<g id="Filled_Icons">
	<g>
		<path d="M18.5,0h-13C4.673,0,4,0.673,4,1.5v13C4,15.327,4.673,16,5.5,16H10v2h4v-2h4.5c0.827,0,1.5-0.673,1.5-1.5v-13
			C20,0.673,19.327,0,18.5,0z M19,1.5V3h-2V1h1.5C18.775,1,19,1.225,19,1.5z M11,9V7h2v2H11z M13,10v2h-2v-2H13z M10,9H8V7h2V9z
			 M11,6V4h2v2H11z M14,7h2v2h-2V7z M14,6V4h2v2H14z M14,3V1h2v2H14z M13,3h-2V1h2V3z M10,3H8V1h2V3z M10,4v2H8V4H10z M7,6H5V4h2V6z
			 M7,7v2H5V7H7z M7,10v2H5v-2H7z M8,10h2v2H8V10z M10,13v2H8v-2H10z M11,13h2v2h-2V13z M14,13h2v2h-2V13z M14,12v-2h2v2H14z M17,10
			h2v2h-2V10z M17,9V7h2v2H17z M17,6V4h2v2H17z M5.5,1H7v2H5V1.5C5,1.225,5.225,1,5.5,1z M5,14.5V13h2v2H5.5
			C5.225,15,5,14.776,5,14.5z M18.5,15H17v-2h2v1.5C19,14.776,18.775,15,18.5,15z"/>
		<path d="M10,19v2.758c0,1.104,0.898,2,2,2s2-0.896,2-2V19H10z"/>
	</g>
</g>
<g id="invisible_shape">
	<rect fill="none" width="24" height="24"/>
</g>
</svg>
