<?xml version="1.0" encoding="utf-8"?>
<!-- Generator: Adobe Illustrator 19.2.0, SVG Export Plug-In . SVG Version: 6.00 Build 0)  -->
<svg version="1.1" xmlns="http://www.w3.org/2000/svg" xmlns:xlink="http://www.w3.org/1999/xlink" x="0px" y="0px" width="24px"
	 height="24px" viewBox="0 0 24 24" enable-background="new 0 0 24 24" xml:space="preserve">
<g id="Filled_Icons">
	<g>
		<path d="M21.5,10.006h-21c-0.168,0-0.325,0.086-0.418,0.225c-0.092,0.142-0.108,0.318-0.042,0.473L3,17.609v0.896
			c0,1.379,1.121,2.5,2.5,2.494h13c1.378,0.006,2.5-1.115,2.5-2.494v-7.5h0.5c0.827,0,1.5,0.674,1.5,1.5v7
			c0,0.276,0.224,0.5,0.5,0.5s0.5-0.224,0.5-0.5v-7C24,11.128,22.878,10.006,21.5,10.006z"/>
		<path d="M7.5,9H11V1.12C9.451,1.752,7,4.959,7,8.5C7,8.776,7.224,9,7.5,9z"/>
		<path d="M15.5,8.998c0.276,0,0.5-0.224,0.5-0.5c0-0.035-0.004-0.069-0.011-0.104C15.942,4.896,13.523,1.742,12,1.118v7.88h3.49
			C15.494,9,15.497,9,15.5,8.998z"/>
	</g>
</g>
<g id="invisible_shape">
	<rect fill="none" width="24" height="24"/>
</g>
</svg>
