<?xml version="1.0" encoding="utf-8"?>
<!-- Generator: Adobe Illustrator 19.2.0, SVG Export Plug-In . SVG Version: 6.00 Build 0)  -->
<svg version="1.1" xmlns="http://www.w3.org/2000/svg" xmlns:xlink="http://www.w3.org/1999/xlink" x="0px" y="0px" width="24px"
	 height="24px" viewBox="0 0 24 24" enable-background="new 0 0 24 24" xml:space="preserve">
<g id="Filled_Icons">
	<g>
		<path d="M22.978,23.353l-4-13C18.913,10.144,18.72,10,18.5,10H16V7.58c2.957-1.26,5.325-3.733,6.396-6.921
			c0.052-0.152,0.026-0.32-0.067-0.451C22.234,0.078,22.083,0,21.922,0H1.078C0.917,0,0.767,0.078,0.672,0.208
			C0.578,0.339,0.553,0.507,0.604,0.659C1.675,3.848,4.042,6.32,7,7.58V10H4.5c-0.22,0-0.413,0.144-0.477,0.352l-4,13
			c-0.047,0.152-0.019,0.317,0.075,0.444C0.192,23.925,0.342,24,0.5,24h22c0.158,0,0.308-0.075,0.402-0.203
			C22.996,23.67,23.024,23.505,22.978,23.353z M8,7.953C9.111,8.309,10.288,8.5,11.5,8.5s2.389-0.191,3.5-0.547V10H8V7.953z
			 M11.5,22c-2.757,0-5-2.243-5-5s2.243-5,5-5s5,2.243,5,5S14.257,22,11.5,22z"/>
		<g>
			<path d="M11.5,17.5c-0.276,0-0.5-0.224-0.5-0.5v-3c0-0.276,0.224-0.5,0.5-0.5S12,13.724,12,14v3C12,17.276,11.776,17.5,11.5,17.5
				z"/>
		</g>
	</g>
</g>
<g id="invisible_shape">
	<rect fill="none" width="24" height="24"/>
</g>
</svg>
