<?xml version="1.0" encoding="utf-8"?>
<!-- Generator: Adobe Illustrator 19.2.0, SVG Export Plug-In . SVG Version: 6.00 Build 0)  -->
<svg version="1.1" xmlns="http://www.w3.org/2000/svg" xmlns:xlink="http://www.w3.org/1999/xlink" x="0px" y="0px" width="24px"
	 height="24px" viewBox="0 0 24 24" enable-background="new 0 0 24 24" xml:space="preserve">
<g id="Filled_Icons">
	<g>
		<path d="M7.376,23.917L8.793,22.5L6.75,20.457l-2.434,2.434C5.243,23.417,6.276,23.771,7.376,23.917z"/>
		<polygon points="3.707,16 6.75,19.043 9.043,16.75 8.293,16 		"/>
		<polygon points="14.543,16.75 13.793,16 11.207,16 10.457,16.75 12.5,18.793 		"/>
		<path d="M24,15v-1.5c0-0.276-0.224-0.5-0.5-0.5H23v-1c0-4.057-2.279-7.812-5.842-9.709l0.223-0.469
			c0.118-0.25,0.012-0.548-0.237-0.667c-3.221-1.527-7.067-1.527-10.287,0C6.607,1.274,6.501,1.572,6.619,1.822l0.223,0.469
			C3.279,4.188,1,7.943,1,12v1H0.5C0.224,13,0,13.224,0,13.5V15H24z M2,12c0-3.672,2.063-7.057,5.277-8.79l0.199,0.419
			C7.596,3.878,7.894,3.98,8.144,3.866c2.414-1.146,5.299-1.146,7.713,0c0.254,0.118,0.549,0.01,0.667-0.237l0.199-0.419
			C19.937,4.943,22,8.328,22,12v1H2V12z"/>
		<rect x="8.004" y="18.18" transform="matrix(0.7071 -0.7071 0.7071 0.7071 -11.0579 12.5539)" width="3.243" height="2.889"/>
		<path d="M22.707,16l-3.75,3.75l2.135,2.135c1.66-1.455,2.746-3.543,2.883-5.885H22.707z"/>
		<path d="M6.043,19.75L2.293,16H0.025c0.152,2.594,1.468,4.874,3.438,6.33L6.043,19.75z"/>
		<polygon points="21.293,16 16.707,16 15.957,16.75 18.25,19.043 		"/>
		<path d="M20.301,22.508l-2.051-2.051L16.207,22.5l1.261,1.261C18.496,23.516,19.454,23.09,20.301,22.508z"/>
		<path d="M15.5,23.207L14.707,24H15.5c0.255,0,0.506-0.017,0.755-0.038L15.5,23.207z"/>
		<polygon points="14.793,22.5 12.5,20.207 10.207,22.5 11.707,24 13.293,24 		"/>
		<polygon points="9.5,23.207 8.707,24 10.293,24 		"/>
		<rect x="13.93" y="18.004" transform="matrix(0.7071 -0.7071 0.7071 0.7071 -9.3737 16.6198)" width="2.889" height="3.243"/>
	</g>
</g>
<g id="invisible_shape">
	<rect fill="none" width="24" height="24"/>
</g>
</svg>
