<?xml version="1.0" encoding="utf-8"?>
<!-- Generator: Adobe Illustrator 19.2.0, SVG Export Plug-In . SVG Version: 6.00 Build 0)  -->
<svg version="1.1" xmlns="http://www.w3.org/2000/svg" xmlns:xlink="http://www.w3.org/1999/xlink" x="0px" y="0px" width="24px"
	 height="24px" viewBox="0 0 24 24" enable-background="new 0 0 24 24" xml:space="preserve">
<g id="Filled_Icons">
	<path d="M23.414,6.244c-0.78-0.781-2.05-0.78-2.828,0.001l-6.553,6.552c-0.28-0.327-0.585-0.632-0.89-0.936
		c0.615-0.54,1.338-1.218,1.87-1.718c0.207-0.195,0.211-0.519,0.012-0.718l-1.061-1.061l4.95-4.949
		c0.779-0.78,0.779-2.05-0.001-2.83c-0.78-0.78-2.05-0.777-2.828,0.001L8.249,8.463C6.188,7.531,3.907,7,1.5,7h-1
		C0.224,7,0,7.224,0,7.5v16C0,23.776,0.224,24,0.5,24h17c0.276,0,0.5-0.224,0.5-0.5c0-1.935-0.353-3.787-0.968-5.515
		c0,0.002,0.001,0.003,0.002,0.005c0.925-0.767,1.768-1.521,2.479-2.188c0.207-0.194,0.211-0.519,0.012-0.718l-1.061-1.061
		l4.95-4.95C24.194,8.294,24.194,7.024,23.414,6.244z M11.138,6.951l2.814,2.814c-0.458,0.422-1.056,0.979-1.541,1.407
		c-0.979-0.868-2.06-1.618-3.224-2.237L11.138,6.951z M3.647,16.354c-0.195-0.195-0.195-0.512,0-0.707l4-4
		c0.195-0.195,0.512-0.195,0.707,0s0.195,0.512,0,0.707l-4,4C4.158,16.549,3.842,16.549,3.647,16.354z M12.854,16.854l-4,4
		c-0.195,0.195-0.512,0.195-0.707,0c-0.195-0.195-0.195-0.512,0-0.707l4-4c0.195-0.195,0.512-0.195,0.707,0
		C13.049,16.342,13.049,16.658,12.854,16.854z M16.662,17.003v0.001c-0.527-1.227-1.21-2.365-2.004-3.418l0.977-0.977l2.816,2.816
		C17.848,15.982,17.251,16.508,16.662,17.003z"/>
</g>
<g id="invisible_shape">
	<rect fill="none" width="24" height="24"/>
</g>
</svg>
