<?xml version="1.0" encoding="utf-8"?>
<!-- Generator: Adobe Illustrator 19.2.0, SVG Export Plug-In . SVG Version: 6.00 Build 0)  -->
<svg version="1.1" xmlns="http://www.w3.org/2000/svg" xmlns:xlink="http://www.w3.org/1999/xlink" x="0px" y="0px" width="24px"
	 height="24px" viewBox="0 0 24 24" enable-background="new 0 0 24 24" xml:space="preserve">
<g id="Filled_Icons">
	<g>
		<path d="M4,17h8c0.276,0,0.5-0.224,0.5-0.5S12.276,16,12,16H9.445C10.375,15.328,11,14.036,11,12.5c0-0.276-0.224-0.5-0.5-0.5h-5
			C5.224,12,5,12.224,5,12.5c0,1.536,0.625,2.828,1.555,3.5H4c-0.276,0-0.5,0.224-0.5,0.5S3.724,17,4,17z"/>
		<path d="M0,7.5v12c0,1.207,0.86,2.217,2,2.449V24h1v-2h13V5H2.5C1.121,5,0,6.122,0,7.5z M11.5,7C12.879,7,14,8.122,14,9.5v8
			c0,1.379-1.121,2.5-2.5,2.5h-7C3.121,20,2,18.879,2,17.5v-8C2,8.122,3.121,7,4.5,7H11.5z"/>
		<path d="M21.5,5H17v17h4v2h1v-2.051c1.14-0.232,2-1.242,2-2.449v-12C24,6.122,22.879,5,21.5,5z M22,19.5
			c0,0.276-0.224,0.5-0.5,0.5h-3c-0.276,0-0.5-0.224-0.5-0.5v-2c0-0.276,0.224-0.5,0.5-0.5h3c0.276,0,0.5,0.224,0.5,0.5V19.5z
			 M22,15.5c0,0.276-0.224,0.5-0.5,0.5h-3c-0.276,0-0.5-0.224-0.5-0.5v-8C18,7.224,18.224,7,18.5,7h3C21.776,7,22,7.224,22,7.5V15.5
			z"/>
	</g>
</g>
<g id="invisible_shape">
	<rect fill="none" width="24" height="24"/>
</g>
</svg>
