<?xml version="1.0" encoding="utf-8"?>
<!-- Generator: Adobe Illustrator 19.2.0, SVG Export Plug-In . SVG Version: 6.00 Build 0)  -->
<svg version="1.1" xmlns="http://www.w3.org/2000/svg" xmlns:xlink="http://www.w3.org/1999/xlink" x="0px" y="0px" width="24px"
	 height="24px" viewBox="0 0 24 24" enable-background="new 0 0 24 24" xml:space="preserve">
<g id="Filled_Icons">
	<g>
		<path d="M3.51,12.654C3.551,12.861,4.499,17.447,7,18v-7.944H5.793l-2.147,2.146C3.528,12.321,3.477,12.49,3.51,12.654z"/>
		<path d="M22,0h-2v4.5C20,4.776,19.776,5,19.5,5S19,4.776,19,4.5V0h-2v4.5C17,4.776,16.776,5,16.5,5S16,4.776,16,4.5V0h-2v4.5
			C14,4.776,13.776,5,13.5,5S13,4.776,13,4.5V0H7.5C5.019,0,3,2.02,3,4.5v3C3,7.776,3.224,8,3.5,8H6v1h3V8h5v8.5
			c0,1.93-1.57,3.5-3.5,3.5H2c-1.102,0-2,0.897-2,2s0.897,2,2,2h21.5c0.276,0,0.5-0.224,0.5-0.5V2C24,0.897,23.103,0,22,0z M19,21
			c-1.654,0-3-1.346-3-3s1.346-3,3-3s3,1.346,3,3S20.654,21,19,21z"/>
		<path d="M11.49,12.654c0.033-0.164-0.019-0.333-0.137-0.452l-2.147-2.146H8V18C10.501,17.447,11.449,12.861,11.49,12.654z"/>
	</g>
</g>
<g id="invisible_shape">
	<rect fill="none" width="24" height="24"/>
</g>
</svg>
