<?xml version="1.0" encoding="utf-8"?>
<!-- Generator: Adobe Illustrator 19.2.0, SVG Export Plug-In . SVG Version: 6.00 Build 0)  -->
<svg version="1.1" xmlns="http://www.w3.org/2000/svg" xmlns:xlink="http://www.w3.org/1999/xlink" x="0px" y="0px" width="24px"
	 height="24px" viewBox="0 0 24 24" enable-background="new 0 0 24 24" xml:space="preserve">
<g id="Filled_Icons">
	<g>
		<path d="M3.744,19.12c-0.228-0.228-0.403-0.484-0.555-0.752L0.931,19.87c-0.521,0.396-0.876,1.036-0.924,1.671
			c-0.05,0.688,0.171,1.337,0.607,1.781c0.423,0.435,1.014,0.684,1.62,0.684l0.114-0.003c0.629-0.031,1.306-0.392,1.74-0.938
			l1.539-2.146c-0.164-0.116-0.323-0.24-0.469-0.386L3.744,19.12z M2.233,23.507v-0.008h0.001L2.233,23.507z"/>
		<path d="M22.836,1.442c-0.422-0.422-1.006-0.663-1.602-0.663l-0.141,0.004c-0.646,0.041-1.247,0.357-1.655,0.88L17.318,4.53
			c0.203,0.128,0.395,0.275,0.567,0.448L19.3,6.393c0.173,0.173,0.323,0.363,0.454,0.563l2.87-2.123
			c0.514-0.398,0.831-0.999,0.871-1.646C23.535,2.538,23.295,1.903,22.836,1.442z"/>
		<path d="M17.179,5.686c-0.946-0.945-2.593-0.943-3.535,0l-9.192,9.191c-0.975,0.976-0.975,2.563,0,3.536l1.414,1.414
			c0.473,0.473,1.1,0.733,1.768,0.733S8.928,20.3,9.4,19.827l9.192-9.192c0.473-0.472,0.732-1.1,0.732-1.768
			s-0.26-1.295-0.732-1.768L17.179,5.686z"/>
	</g>
</g>
<g id="invisible_shape">
	<rect fill="none" width="24" height="24"/>
</g>
</svg>
