<?xml version="1.0" encoding="utf-8"?>
<!-- Generator: Adobe Illustrator 19.2.0, SVG Export Plug-In . SVG Version: 6.00 Build 0)  -->
<svg version="1.1" xmlns="http://www.w3.org/2000/svg" xmlns:xlink="http://www.w3.org/1999/xlink" x="0px" y="0px" width="24px"
	 height="24px" viewBox="0 0 24 24" enable-background="new 0 0 24 24" xml:space="preserve">
<g id="Filled_Icons">
	<g>
		<path d="M10.563,23.006c-1.246,0-2.443-0.225-3.563-0.625v1.125c0,0.276,0.224,0.5,0.5,0.494h7c0.276,0.006,0.5-0.218,0.5-0.494
			v-1.125c-1.119,0.4-2.316,0.625-3.563,0.625H10.563z"/>
		<path d="M20.5,13.006h-19c-0.144,0-0.28,0.061-0.375,0.169s-0.139,0.251-0.121,0.393c0.602,4.812,4.711,8.438,9.559,8.438h0.875
			c4.848,0,8.957-3.627,9.559-8.438c0.018-0.142-0.026-0.285-0.121-0.393S20.644,13.006,20.5,13.006z"/>
		<path d="M22.838,5.877l-2.482-5.463c-0.114-0.252-0.409-0.362-0.662-0.249l-7.284,3.31c-0.12,0.054-0.215,0.154-0.261,0.278
			c-0.047,0.125-0.042,0.262,0.013,0.383l2.482,5.463c0.084,0.185,0.266,0.293,0.455,0.293c0.069,0,0.14-0.014,0.207-0.045
			l7.283-3.308C22.841,6.424,22.952,6.128,22.838,5.877z"/>
		<path d="M8.738,7.818c0.093,0,0.186-0.025,0.27-0.08l1.262-0.812c0.232-0.15,0.3-0.459,0.149-0.691
			c-0.148-0.233-0.459-0.299-0.69-0.15L8.468,6.898c-0.232,0.15-0.3,0.459-0.149,0.691C8.413,7.738,8.574,7.818,8.738,7.818z"/>
		<path d="M10.396,11.684c0.097,0.09,0.219,0.135,0.342,0.135c0.133,0,0.267-0.053,0.364-0.157l0.762-0.813
			c0.189-0.201,0.18-0.517-0.023-0.707c-0.201-0.186-0.519-0.179-0.706,0.023l-0.762,0.813
			C10.185,11.178,10.194,11.494,10.396,11.684z"/>
		<path d="M8.5,10.507c0.116,0,0.233-0.041,0.328-0.123l1.067-0.927c0.208-0.182,0.231-0.497,0.05-0.706
			c-0.183-0.208-0.497-0.23-0.706-0.049L8.172,9.629c-0.208,0.182-0.23,0.497-0.05,0.706C8.222,10.448,8.36,10.507,8.5,10.507z"/>
	</g>
</g>
<g id="invisible_shape">
	<rect fill="none" width="24" height="24"/>
</g>
</svg>
