<?xml version="1.0" encoding="utf-8"?>
<!-- Generator: Adobe Illustrator 19.2.0, SVG Export Plug-In . SVG Version: 6.00 Build 0)  -->
<svg version="1.1" xmlns="http://www.w3.org/2000/svg" xmlns:xlink="http://www.w3.org/1999/xlink" x="0px" y="0px" width="24px"
	 height="24px" viewBox="0 0 24 24" enable-background="new 0 0 24 24" xml:space="preserve">
<g id="Filled_Icons">
	<g>
		<g>
			<path d="M9.637,14.37c-0.482-0.481-0.896-1.014-1.252-1.577l-2.991,2.991l2.829,2.828l2.991-2.991
				C10.65,15.266,10.119,14.852,9.637,14.37z"/>
			<path d="M4.687,16.492L1.73,19.448c-0.779,0.78-0.779,2.049,0,2.828c0.377,0.378,0.879,0.586,1.414,0.586
				c0.534,0,1.036-0.208,1.414-0.586l2.957-2.957L4.687,16.492z"/>
		</g>
		<path d="M21.657,2.35c-1.511-1.511-3.52-2.344-5.656-2.344c-2.138,0-4.146,0.833-5.657,2.344C8.833,3.86,8.001,5.87,8.001,8.007
			c0,2.137,0.832,4.146,2.343,5.656c1.511,1.511,3.52,2.343,5.657,2.343c2.137,0,4.146-0.832,5.656-2.343
			C24.776,10.544,24.776,5.469,21.657,2.35z M12.465,8.713c-0.188,0.188-0.44,0.293-0.707,0.293s-0.519-0.105-0.707-0.293
			c-0.39-0.389-0.39-1.023,0-1.414c0.377-0.377,1.037-0.377,1.414,0C12.854,7.689,12.854,8.324,12.465,8.713z M14.586,10.834
			c-0.188,0.189-0.44,0.293-0.707,0.293c-0.267,0-0.518-0.104-0.707-0.293c-0.39-0.39-0.39-1.024,0-1.414
			c0.377-0.378,1.037-0.378,1.414,0C14.976,9.81,14.976,10.444,14.586,10.834z M14.586,6.592c-0.188,0.189-0.44,0.293-0.707,0.293
			c-0.267,0-0.518-0.104-0.707-0.293c-0.39-0.39-0.39-1.024,0-1.414c0.377-0.378,1.037-0.378,1.414,0
			C14.976,5.567,14.976,6.202,14.586,6.592z M16.707,12.957c-0.188,0.188-0.438,0.292-0.707,0.292c-0.267,0-0.519-0.103-0.707-0.292
			c-0.39-0.391-0.39-1.025,0-1.415c0.379-0.379,1.04-0.376,1.415,0.001C17.097,11.932,17.097,12.566,16.707,12.957z M16.707,8.713
			C16.52,8.901,16.269,9.006,16,9.006c-0.267,0-0.519-0.105-0.707-0.293c-0.39-0.389-0.39-1.023,0-1.414
			c0.379-0.379,1.04-0.375,1.415,0.001C17.097,7.689,17.097,8.324,16.707,8.713z M16.707,4.471C16.52,4.659,16.269,4.764,16,4.764
			c-0.267,0-0.519-0.103-0.707-0.293c-0.39-0.39-0.39-1.024,0-1.414c0.379-0.379,1.04-0.376,1.415,0.002
			C17.097,3.446,17.097,4.081,16.707,4.471z M18.829,10.834c-0.188,0.189-0.44,0.293-0.707,0.293c-0.267,0-0.519-0.104-0.707-0.293
			c-0.39-0.39-0.39-1.024,0-1.414c0.377-0.378,1.037-0.378,1.414,0C19.219,9.81,19.219,10.444,18.829,10.834z M18.829,6.592
			c-0.188,0.189-0.44,0.293-0.707,0.293c-0.267,0-0.519-0.104-0.707-0.293c-0.39-0.39-0.39-1.024,0-1.414
			c0.377-0.378,1.037-0.378,1.414,0C19.219,5.567,19.219,6.202,18.829,6.592z M20.95,8.713c-0.188,0.188-0.44,0.293-0.707,0.293
			s-0.519-0.105-0.707-0.293c-0.39-0.389-0.39-1.023,0-1.414c0.377-0.377,1.037-0.377,1.414,0C21.34,7.689,21.34,8.324,20.95,8.713z
			"/>
	</g>
</g>
<g id="invisible_shape">
	<rect fill="none" width="24" height="24"/>
</g>
</svg>
