<?xml version="1.0" encoding="utf-8"?>
<!-- Generator: Adobe Illustrator 19.2.0, SVG Export Plug-In . SVG Version: 6.00 Build 0)  -->
<svg version="1.1" xmlns="http://www.w3.org/2000/svg" xmlns:xlink="http://www.w3.org/1999/xlink" x="0px" y="0px" width="24px"
	 height="24px" viewBox="0 0 24 24" enable-background="new 0 0 24 24" xml:space="preserve">
<g id="Filled_Icons">
	<g>
		<path d="M14,15.765V2.5C14,1.122,12.878,0,11.5,0C10.121,0,9,1.122,9,2.5v13.265C7.759,16.595,7,18,7,19.5
			c0,2.482,2.019,4.5,4.5,4.5s4.5-2.018,4.5-4.5C16,18.002,15.24,16.596,14,15.765z M11.5,21c-0.827,0-1.5-0.672-1.5-1.5
			c0-0.65,0.419-1.199,1-1.407V7.5C11,7.225,11.224,7,11.5,7C11.775,7,12,7.225,12,7.5v10.593c0.58,0.208,1,0.757,1,1.407
			C13,20.328,12.326,21,11.5,21z"/>
		<path d="M15.5,3h1C16.775,3,17,2.776,17,2.5C17,2.225,16.775,2,16.5,2h-1C15.224,2,15,2.225,15,2.5C15,2.776,15.224,3,15.5,3z"/>
		<path d="M18.5,7h-3C15.224,7,15,7.225,15,7.5C15,7.776,15.224,8,15.5,8h3C18.775,8,19,7.776,19,7.5C19,7.225,18.775,7,18.5,7z"/>
		<path d="M16.5,12h-1c-0.276,0-0.5,0.225-0.5,0.5c0,0.276,0.224,0.5,0.5,0.5h1c0.275,0,0.5-0.224,0.5-0.5
			C17,12.225,16.775,12,16.5,12z"/>
	</g>
</g>
<g id="invisible_shape">
	<rect fill="none" width="24" height="24"/>
</g>
</svg>
