<?xml version="1.0" encoding="utf-8"?>
<!-- Generator: Adobe Illustrator 19.2.0, SVG Export Plug-In . SVG Version: 6.00 Build 0)  -->
<svg version="1.1" xmlns="http://www.w3.org/2000/svg" xmlns:xlink="http://www.w3.org/1999/xlink" x="0px" y="0px" width="24px"
	 height="24px" viewBox="0 0 24 24" enable-background="new 0 0 24 24" xml:space="preserve">
<g id="Filled_Icons">
	<g>
		<path d="M22.954,9.012L14.82,0.879c-0.188-0.188-0.519-0.188-0.707,0L8.811,6.184C7.921,7.074,7.352,8.75,7.518,9.999l0.444,3.37
			c0.178,1.329,1.36,2.486,2.691,2.634l3.186,0.356c0.123,0.015,0.25,0.021,0.38,0.021h0.001c1.202,0,2.645-0.57,3.431-1.356
			l5.304-5.305c0.094-0.094,0.146-0.221,0.146-0.354S23.048,9.106,22.954,9.012z M10.464,10.506c-0.128,0-0.256-0.049-0.353-0.148
			c-0.195-0.195-0.195-0.512,0-0.707l4.517-4.518c0.195-0.195,0.512-0.195,0.707,0s0.195,0.512,0,0.707l-4.517,4.518
			C10.72,10.457,10.592,10.506,10.464,10.506z M12.231,12.275c-0.128,0-0.256-0.05-0.353-0.148c-0.195-0.195-0.195-0.512,0-0.706
			l4.517-4.52c0.195-0.194,0.512-0.194,0.707,0c0.195,0.196,0.195,0.513,0,0.707l-4.517,4.52
			C12.487,12.226,12.359,12.275,12.231,12.275z M18.869,9.378l-4.517,4.518c-0.098,0.098-0.226,0.146-0.354,0.146
			c-0.128,0-0.256-0.049-0.353-0.146c-0.195-0.195-0.195-0.512,0-0.706l4.517-4.519c0.195-0.195,0.512-0.195,0.707,0
			C19.065,8.866,19.065,9.183,18.869,9.378z"/>
		<g>
			<path d="M7.102,14.075l-3.149,3.149l2.827,2.827l3.178-3.176C8.631,16.501,7.504,15.396,7.102,14.075z"/>
			<path d="M3.246,17.932l-2.66,2.66c-0.779,0.779-0.779,2.048,0,2.827c0.378,0.379,0.88,0.587,1.415,0.587
				c0.534,0,1.036-0.208,1.414-0.586l2.658-2.661L3.246,17.932z"/>
		</g>
	</g>
</g>
<g id="invisible_shape">
	<rect fill="none" width="24" height="24"/>
</g>
</svg>
