<?xml version="1.0" encoding="utf-8"?>
<!-- Generator: Adobe Illustrator 19.2.0, SVG Export Plug-In . SVG Version: 6.00 Build 0)  -->
<svg version="1.1" xmlns="http://www.w3.org/2000/svg" xmlns:xlink="http://www.w3.org/1999/xlink" x="0px" y="0px" width="24px"
	 height="24px" viewBox="0 0 24 24" enable-background="new 0 0 24 24" xml:space="preserve">
<g id="Filled_Icons">
	<path d="M9.331,17.504c-0.624-0.287-1.189-0.669-1.674-1.155c-0.488-0.487-0.866-1.055-1.153-1.675l-5.918,5.918
		C0.208,20.97,0,21.473,0,22.006c0,0.535,0.208,1.036,0.586,1.414c0.378,0.378,0.88,0.586,1.414,0.586s1.036-0.208,1.414-0.586
		L9.331,17.504z"/>
	<path d="M21.445,2.56c-0.956-0.956-2.281-1.462-3.831-1.462c-2.441,0-5.173,1.274-7.306,3.407c-1.724,1.723-2.885,3.81-3.271,5.879
		c-0.398,2.137,0.072,4.004,1.326,5.257c0.956,0.957,2.281,1.463,3.831,1.463c2.441,0,5.173-1.273,7.306-3.407
		c1.724-1.723,2.885-3.812,3.271-5.88C23.17,5.681,22.699,3.813,21.445,2.56z M20.331,6.008c-0.745,1.52-2.044,3.247-3.659,4.861
		c-1.777,1.777-5.172,4.451-7.083,4.255L20.935,3.778C20.985,4.302,20.78,5.089,20.331,6.008z M9.479,12.196
		c0.744-1.52,2.044-3.247,3.658-4.862c1.605-1.606,5.1-4.458,7.084-4.255L8.875,14.424C8.824,13.9,9.029,13.114,9.479,12.196z
		 M8.021,10.567c0.349-1.871,1.412-3.773,2.994-5.355c1.949-1.949,4.416-3.113,6.599-3.113c0.453,0,0.87,0.068,1.267,0.168
		c-1.82,0.528-4.205,2.112-6.452,4.36c-1.69,1.69-3.058,3.513-3.85,5.13c-0.234,0.478-0.407,0.922-0.527,1.333
		C7.865,12.34,7.85,11.488,8.021,10.567z M21.788,7.635c-0.349,1.872-1.412,3.773-2.994,5.355c-1.95,1.95-4.417,3.114-6.599,3.114
		c-0.453,0-0.871-0.068-1.269-0.168c1.821-0.528,4.205-2.112,6.452-4.36c1.691-1.69,3.059-3.512,3.85-5.13
		c0.234-0.478,0.407-0.923,0.528-1.334C21.944,5.862,21.96,6.715,21.788,7.635z"/>
</g>
<g id="invisible_shape">
	<rect fill="none" width="24" height="24"/>
</g>
</svg>
