<?xml version="1.0" encoding="utf-8"?>
<!-- Generator: Adobe Illustrator 19.2.0, SVG Export Plug-In . SVG Version: 6.00 Build 0)  -->
<svg version="1.1" xmlns="http://www.w3.org/2000/svg" xmlns:xlink="http://www.w3.org/1999/xlink" x="0px" y="0px" width="24px"
	 height="24px" viewBox="0 0 24 24" enable-background="new 0 0 24 24" xml:space="preserve">
<g id="Filled_Icons">
	<g>
		<path d="M11.46,10.425l-1.768,1.768c-0.195,0.196-0.195,0.513,0,0.707l0.354,0.354l-1.148,1.146l-1.323-0.733
			c-0.386-0.216-0.877-0.147-1.191,0.166c-0.315,0.314-0.385,0.805-0.168,1.193l1.836,3.305l-2.777-1.543
			c-0.408-0.227-0.93-0.139-1.242,0.218c-0.307,0.354-0.325,0.882-0.044,1.257l1.984,2.64l-2.229-0.626
			c-0.347-0.096-0.721,0.001-0.977,0.256l-2.621,2.621c-0.195,0.195-0.195,0.512,0,0.707c0.098,0.098,0.226,0.146,0.354,0.146
			s0.256-0.049,0.354-0.146l2.621-2.621l2.23,0.627c0.411,0.113,0.852-0.045,1.094-0.398c0.243-0.354,0.232-0.822-0.025-1.167
			l-1.985-2.639l2.779,1.543c0.386,0.215,0.876,0.148,1.193-0.168c0.313-0.313,0.381-0.805,0.166-1.191L7.09,14.54l1.321,0.733
			c0.387,0.219,0.881,0.15,1.194-0.166l1.147-1.147l0.353,0.354c0.098,0.098,0.226,0.146,0.354,0.146
			c0.128,0,0.256-0.049,0.354-0.146l1.768-1.768L11.46,10.425z"/>
		<path d="M22.42,11.485l-9.899-9.899c-0.945-0.945-2.593-0.942-3.535,0L8.277,2.293c-0.974,0.975-0.974,2.56,0,3.535l9.9,9.899
			c0.976,0.976,2.555,0.98,3.535,0l0.707-0.707C23.395,14.046,23.395,12.46,22.42,11.485z"/>
	</g>
</g>
<g id="invisible_shape">
	<rect fill="none" width="24" height="24"/>
</g>
</svg>
