<?xml version="1.0" encoding="utf-8"?>
<!-- Generator: Adobe Illustrator 19.2.1, SVG Export Plug-In . SVG Version: 6.00 Build 0)  -->
<svg version="1.1" xmlns="http://www.w3.org/2000/svg" xmlns:xlink="http://www.w3.org/1999/xlink" x="0px" y="0px" width="24px"
	 height="24px" viewBox="0 0 24 24" enable-background="new 0 0 24 24" xml:space="preserve">
<g id="Filled_Icons_1_">
	<g id="Filled_Icons">
		<g>
			<path d="M22.469,1.001h-19c-0.276,0-0.5,0.224-0.469,0.5v11c-0.031,0.275,0.192,0.5,0.469,0.499h19
				c0.275,0.001,0.5-0.224,0.5-0.499v-11C22.969,1.225,22.744,1.001,22.469,1.001z M22,6.001h-2V8h2v2.001h-2v2h-2.031v-2H16v2
				h-2.031v-2H12v2H9.969v-2H8v2H6v-2H3.969V8H6V6.001H3.969V4H6V2h2v2h2V2h2v2h2V2h2v2h2V2h2v2h2V6.001z"/>
			<path d="M1.469,0.001c-0.276,0-0.5,0.224-0.469,0.5v23c-0.031,0.275,0.192,0.5,0.469,0.5c0.275,0,0.5-0.225,0.5-0.5v-23
				C1.969,0.225,1.744,0.001,1.469,0.001z"/>
			<rect x="6" y="4.001" width="1.969" height="1.999"/>
			<rect x="10" y="4.001" width="1.969" height="1.999"/>
			<rect x="14" y="4.001" width="1.969" height="1.999"/>
			<rect x="18" y="4.001" width="1.969" height="2"/>
			<rect x="8" y="6.001" width="2" height="1.999"/>
			<rect x="12" y="6.001" width="2" height="1.999"/>
			<rect x="16" y="6.001" width="2" height="1.999"/>
			<rect x="6" y="8.001" width="1.969" height="1.999"/>
			<rect x="10" y="8.001" width="1.969" height="1.999"/>
			<rect x="14" y="8.001" width="1.969" height="1.999"/>
			<rect x="18" y="8.001" width="1.969" height="1.999"/>
		</g>
	</g>
	<g id="New_icons">
	</g>
</g>
<g id="Invisible_Shape">
	<rect fill="none" width="24" height="24"/>
</g>
</svg>
