<?xml version="1.0" encoding="utf-8"?>
<!-- Generator: Adobe Illustrator 19.2.1, SVG Export Plug-In . SVG Version: 6.00 Build 0)  -->
<svg version="1.1" xmlns="http://www.w3.org/2000/svg" xmlns:xlink="http://www.w3.org/1999/xlink" x="0px" y="0px" width="24px"
	 height="24px" viewBox="0 0 24 24" enable-background="new 0 0 24 24" xml:space="preserve">
<g id="Filled_Icons_1_">
	<g id="Filled_Icons">
		<g>
			<path d="M23.5,0.001c-0.276,0-0.5,0.224-0.5,0.5v0.5H1v-0.5c0-0.276-0.225-0.5-0.5-0.5c-0.276,0-0.5,0.224-0.5,0.5v23
				c0,0.275,0.224,0.5,0.5,0.5c0.275,0,0.5-0.225,0.5-0.5V15h22v8.501c0,0.275,0.224,0.5,0.5,0.5c0.275,0,0.5-0.225,0.5-0.5v-23
				C24,0.225,23.775,0.001,23.5,0.001z M23,6.001h-2V8h2v2.001h-2V12h2v2.001h-2v-2h-2v2h-2v-2h-2v2h-2v-2h-2v2H9v-2H7v2H5v-2H3v2H1
				V12h2v-1.999H1V8h2V6.001H1V4h2V2h2v2h2V2h2v2h2V2h2v2h2V2h2v2h2V2h2v2h2V6.001z"/>
			<rect x="3" y="4.001" width="2" height="1.999"/>
			<rect x="7" y="4.001" width="2" height="1.999"/>
			<rect x="11" y="4.001" width="2" height="1.999"/>
			<rect x="15" y="4.001" width="2" height="1.999"/>
			<rect x="19" y="4.001" width="2" height="1.999"/>
			<rect x="5" y="6.001" width="2" height="1.999"/>
			<rect x="9" y="6.001" width="2" height="1.999"/>
			<rect x="13" y="6.001" width="2" height="1.999"/>
			<rect x="17" y="6.001" width="2" height="1.999"/>
			<rect x="3" y="8.001" width="2" height="1.999"/>
			<rect x="7" y="8.001" width="2" height="1.999"/>
			<rect x="11" y="8.001" width="2" height="1.999"/>
			<rect x="15" y="8.001" width="2" height="1.999"/>
			<rect x="19" y="8.001" width="2" height="1.999"/>
			<rect x="5" y="10.001" width="2" height="1.999"/>
			<rect x="9" y="10.001" width="2" height="1.999"/>
			<rect x="13" y="10.001" width="2" height="1.999"/>
			<rect x="17" y="10.001" width="2" height="1.999"/>
		</g>
	</g>
	<g id="New_icons">
	</g>
</g>
<g id="Invisible_Shape">
	<rect fill="none" width="24" height="24"/>
</g>
</svg>
