<?xml version="1.0" encoding="utf-8"?>
<!-- Generator: Adobe Illustrator 19.2.1, SVG Export Plug-In . SVG Version: 6.00 Build 0)  -->
<svg version="1.1" xmlns="http://www.w3.org/2000/svg" xmlns:xlink="http://www.w3.org/1999/xlink" x="0px" y="0px" width="24px"
	 height="24px" viewBox="0 0 24 24" enable-background="new 0 0 24 24" xml:space="preserve">
<g id="Filled_Icons_1_">
	<g id="Filled_Icons">
		<g>
			<path d="M11.148,17.023c0.388,0.632,1.311,0.637,1.703,0l8-13c0.289-0.47,0.142-1.086-0.328-1.375
				c-0.471-0.29-1.086-0.144-1.375,0.327L12,14.592L4.852,2.976C4.562,2.505,3.945,2.358,3.476,2.648
				C3.005,2.938,2.858,3.554,3.148,4.023L11.148,17.023z"/>
			<path d="M23,20H1c-0.553,0-1,0.447-1,1c0,0.552,0.447,1,1,1h22c0.552,0,1-0.448,1-1C24,20.447,23.552,20,23,20z"/>
		</g>
	</g>
	<g id="New_icons">
	</g>
</g>
<g id="Invisible_Shape">
	<rect fill="none" width="24" height="24"/>
</g>
</svg>
