<?xml version="1.0" encoding="utf-8"?>
<!-- Generator: Adobe Illustrator 19.2.1, SVG Export Plug-In . SVG Version: 6.00 Build 0)  -->
<svg version="1.1" xmlns="http://www.w3.org/2000/svg" xmlns:xlink="http://www.w3.org/1999/xlink" x="0px" y="0px" width="24px"
	 height="24px" viewBox="0 0 24 24" enable-background="new 0 0 24 24" xml:space="preserve">
<g id="Filled_Icons_1_">
	<g id="Filled_Icons">
		<g>
			<path d="M7.147,8.854l4,4c0.195,0.195,0.512,0.195,0.707,0l4-4c0.195-0.195,0.195-0.512,0-0.707
				c-0.195-0.195-0.512-0.195-0.707,0L12,11.293V0.5C12,0.224,11.776,0,11.5,0S11,0.224,11,0.5v10.793L7.853,8.146
				c-0.195-0.195-0.512-0.195-0.707,0C6.951,8.342,6.951,8.658,7.147,8.854z"/>
			<path d="M23.884,17.18l-5-6C18.789,11.065,18.648,11,18.5,11H17c-0.276,0-0.5,0.224-0.5,0.5S16.724,12,17,12h1.266l4.167,5H1.567
				l4.167-5H6.5C6.776,12,7,11.776,7,11.5S6.776,11,6.5,11h-1c-0.148,0-0.289,0.065-0.384,0.18l-5,6C0.041,17.27,0,17.383,0,17.5v4
				C0,22.879,1.121,24,2.5,24h19c1.379,0,2.5-1.121,2.5-2.5v-4C24,17.383,23.959,17.27,23.884,17.18z M20,21h-4
				c-0.276,0-0.5-0.224-0.5-0.5S15.724,20,16,20h4c0.276,0,0.5,0.224,0.5,0.5S20.276,21,20,21z"/>
		</g>
	</g>
	<g id="New_icons">
	</g>
</g>
<g id="Invisible_Shape">
	<rect fill="none" width="24" height="24"/>
</g>
</svg>
