<?xml version="1.0" encoding="utf-8"?>
<!-- Generator: Adobe Illustrator 19.2.1, SVG Export Plug-In . SVG Version: 6.00 Build 0)  -->
<svg version="1.1" xmlns="http://www.w3.org/2000/svg" xmlns:xlink="http://www.w3.org/1999/xlink" x="0px" y="0px" width="24px"
	 height="24px" viewBox="0 0 24 24" enable-background="new 0 0 24 24" xml:space="preserve">
<g id="Filled_Icons_1_">
	<g id="Filled_Icons">
		<g>
			<path d="M19.5,7H13v5.84l1.329-1.661c1.237-1.546,3.583,0.324,2.342,1.874l-4,5c-0.584,0.75-1.763,0.744-2.342,0l-4-5
				c-1.241-1.55,1.106-3.421,2.342-1.874L10,12.84V7H3.5C3.224,7,3,7.224,3,7.5v16C3,23.776,3.224,24,3.5,24h16
				c0.276,0,0.5-0.224,0.5-0.5v-16C20,7.224,19.776,7,19.5,7z"/>
			<path d="M7.109,12.428l4,5c0.189,0.236,0.592,0.236,0.781,0l4-5c0.172-0.216,0.138-0.53-0.078-0.703
				c-0.216-0.171-0.531-0.138-0.703,0.078L12,15.689V0.5C12,0.224,11.776,0,11.5,0S11,0.224,11,0.5v15.189l-3.109-3.887
				c-0.172-0.216-0.487-0.249-0.703-0.078C6.972,11.898,6.938,12.212,7.109,12.428z"/>
		</g>
	</g>
	<g id="New_icons">
	</g>
</g>
<g id="Invisible_Shape">
	<rect fill="none" width="24" height="24"/>
</g>
</svg>
