<?xml version="1.0" encoding="utf-8"?>
<!-- Generator: Adobe Illustrator 19.2.1, SVG Export Plug-In . SVG Version: 6.00 Build 0)  -->
<svg version="1.1" xmlns="http://www.w3.org/2000/svg" xmlns:xlink="http://www.w3.org/1999/xlink" x="0px" y="0px" width="24px"
	 height="24px" viewBox="0 0 24 24" enable-background="new 0 0 24 24" xml:space="preserve">
<g id="Filled_Icons_1_">
	<g id="Filled_Icons">
		<g>
			<path d="M22.5,20H22V8c0-1.103-0.897-2-2-2h-7v2h6.5C19.776,8,20,8.224,20,8.5v10c0,0.276-0.224,0.5-0.5,0.5h-16
				C3.224,19,3,18.776,3,18.5v-10C3,8.224,3.224,8,3.5,8H10V6H3C1.898,6,1,6.897,1,8v12H0.5C0.224,20,0,20.224,0,20.5v2
				C0,23.327,0.673,24,1.5,24h20c0.827,0,1.5-0.673,1.5-1.5v-2C23,20.224,22.776,20,22.5,20z M22,22.5c0,0.276-0.225,0.5-0.5,0.5
				h-20C1.225,23,1,22.776,1,22.5V21h8v0.5v0.001c0,0.275,0.224,0.5,0.5,0.499h4c0.276,0.001,0.5-0.224,0.5-0.499V21.5V21h8V22.5z"
				/>
			<path d="M7.147,11.354l4,4c0.195,0.195,0.512,0.195,0.707,0l4-4c0.195-0.195,0.195-0.512,0-0.707
				c-0.195-0.195-0.512-0.195-0.707,0L12,13.793V0.5C12,0.224,11.776,0,11.5,0S11,0.224,11,0.5v13.293l-3.147-3.147
				c-0.195-0.195-0.512-0.195-0.707,0S6.951,11.158,7.147,11.354z"/>
		</g>
	</g>
	<g id="New_icons">
	</g>
</g>
<g id="Invisible_Shape">
	<rect fill="none" width="24" height="24"/>
</g>
</svg>
