<?xml version="1.0" encoding="utf-8"?>
<!-- Generator: Adobe Illustrator 19.2.1, SVG Export Plug-In . SVG Version: 6.00 Build 0)  -->
<svg version="1.1" xmlns="http://www.w3.org/2000/svg" xmlns:xlink="http://www.w3.org/1999/xlink" x="0px" y="0px" width="24px"
	 height="24px" viewBox="0 0 24 24" enable-background="new 0 0 24 24" xml:space="preserve">
<g id="Filled_Icons_1_">
	<g id="Filled_Icons">
		<g>
			<path d="M5,22h6v1.001H8.5c-0.276,0-0.5,0.224-0.5,0.5c0,0.275,0.224,0.5,0.5,0.499h6c0.275,0.001,0.5-0.224,0.5-0.499
				c0-0.276-0.225-0.5-0.5-0.5H12V22h6c1.103,0.001,2-0.896,2-2H3C3,21.104,3.897,22.001,5,22z"/>
			<path d="M18,11h-3.879c-1.258,1.258-1.698,2-2.621,2s-1.363-0.742-2.621-2H5c-1.103,0-2,0.898-2,2.001V19h17v-5.999
				C20,11.898,19.103,11,18,11z"/>
			<path d="M7.147,7.853l4,4c0.195,0.195,0.512,0.195,0.707,0l4-4c0.195-0.195,0.195-0.512,0-0.707
				c-0.195-0.195-0.512-0.195-0.707,0L12,10.293V0.5C12,0.224,11.776,0,11.5,0S11,0.224,11,0.5v9.793L7.853,7.147
				c-0.195-0.195-0.512-0.195-0.707,0S6.951,7.658,7.147,7.853z"/>
		</g>
	</g>
	<g id="New_icons">
	</g>
</g>
<g id="Invisible_Shape">
	<rect fill="none" width="24" height="24"/>
</g>
</svg>
