<?xml version="1.0" encoding="utf-8"?>
<!-- Generator: Adobe Illustrator 19.2.1, SVG Export Plug-In . SVG Version: 6.00 Build 0)  -->
<svg version="1.1" xmlns="http://www.w3.org/2000/svg" xmlns:xlink="http://www.w3.org/1999/xlink" x="0px" y="0px" width="24px"
	 height="24px" viewBox="0 0 24 24" enable-background="new 0 0 24 24" xml:space="preserve">
<g id="Filled_Icons_1_">
	<g id="Filled_Icons">
		<g>
			<path d="M3.819,16.732l7,7c0.383,0.356,0.977,0.356,1.36,0l7-7C19.842,16.117,19.41,15,18.499,15h-3.5v-1.5
				c0-0.553-0.446-1-0.999-1c-0.552,0-1,0.447-1,1V16c0,0.552,0.448,1,1,1h1.952l-4.453,4.635L7.046,17h1.953c0.553,0,1-0.448,1-1
				v-2.5c0-0.553-0.447-1-1-1c-0.552,0-1,0.447-0.999,1V15H4.499C3.59,15,3.156,16.116,3.819,16.732z"/>
			<path d="M14,11.5c0.553,0,0.999-0.448,0.999-1v-2c0-0.553-0.446-1-0.999-1c-0.552,0-1,0.447-1,1v2C13,11.052,13.448,11.5,14,11.5
				z"/>
			<path d="M8.999,11.5c0.553,0,1-0.448,1-1v-2c0-0.553-0.447-1-1-1c-0.552,0-1,0.447-0.999,1v2C7.999,11.052,8.447,11.5,8.999,11.5
				z"/>
			<path d="M14,6.5c0.553,0,0.999-0.448,0.999-1v-1c0-0.553-0.446-1-0.999-1c-0.552,0-1,0.447-1,1v1C13,6.052,13.448,6.5,14,6.5z"/>
			<path d="M8.999,6.5c0.553,0,1-0.448,1-1v-1c0-0.553-0.447-1-1-1c-0.552,0-1,0.447-0.999,1v1C7.999,6.052,8.447,6.5,8.999,6.5z"/>
			<path d="M14,2.5c0.553,0,0.999-0.448,0.999-1V1c0-0.553-0.447-1-1-1C13.447,0,13,0.447,13,1v0.5C13,2.052,13.448,2.5,14,2.5z"/>
			<path d="M8.999,2.5c0.553,0,1-0.448,1-1V1c0-0.553-0.447-1-1-1C8.447,0,8,0.447,8,1v0.5C8,2.052,8.447,2.5,8.999,2.5z"/>
		</g>
	</g>
	<g id="New_icons">
	</g>
</g>
<g id="Invisible_Shape">
	<rect fill="none" width="24" height="24"/>
</g>
</svg>
