<?xml version="1.0" encoding="utf-8"?>
<!-- Generator: Adobe Illustrator 19.2.1, SVG Export Plug-In . SVG Version: 6.00 Build 0)  -->
<svg version="1.1" xmlns="http://www.w3.org/2000/svg" xmlns:xlink="http://www.w3.org/1999/xlink" x="0px" y="0px" width="24px"
	 height="24px" viewBox="0 0 24 24" enable-background="new 0 0 24 24" xml:space="preserve">
<g id="Filled_Icons_1_">
	<g id="Filled_Icons">
		<g>
			<path d="M23,16.718c-0.553,0-1,0.448-1,1v1.913C22,20.675,21.119,22,20.13,22H3.869C2.88,22,2,20.675,2,19.631v-1.913
				c0-0.552-0.448-1-1-1c-0.553,0-1,0.448-1,1v1.913C0,21.693,1.654,24,3.869,24H20.13c2.215,0,3.87-2.307,3.87-4.369v-1.913
				C24,17.166,23.552,16.718,23,16.718z"/>
			<path d="M11.292,18.315c0.365,0.373,1.008,0.408,1.415,0l7-6.999c0.391-0.391,0.391-1.023,0-1.414
				c-0.391-0.391-1.024-0.391-1.414,0L13,15.195V1c0-0.552-0.448-1-1-1c-0.553,0-1,0.448-1,1v14.195L5.707,9.902
				c-0.391-0.391-1.024-0.391-1.414,0c-0.391,0.391-0.391,1.024,0,1.414L11.292,18.315z"/>
		</g>
	</g>
	<g id="New_icons">
	</g>
</g>
<g id="Invisible_Shape">
	<rect fill="none" width="24" height="24"/>
</g>
</svg>
