<?xml version="1.0" encoding="utf-8"?>
<!-- Generator: Adobe Illustrator 19.2.1, SVG Export Plug-In . SVG Version: 6.00 Build 0)  -->
<svg version="1.1" xmlns="http://www.w3.org/2000/svg" xmlns:xlink="http://www.w3.org/1999/xlink" x="0px" y="0px" width="24px"
	 height="24px" viewBox="0 0 24 24" enable-background="new 0 0 24 24" xml:space="preserve">
<g id="Filled_Icons_1_">
	<g id="Filled_Icons">
		<g>
			<path d="M18.207,13.294c-0.391-0.391-1.024-0.391-1.414,0L13,17.087V5c0-0.552-0.448-1-1-1c-0.553,0-1,0.448-1,1v12.087
				l-3.793-3.793c-0.391-0.391-1.024-0.391-1.414,0c-0.391,0.391-0.391,1.024,0,1.414l5.499,5.499c0.37,0.378,1.017,0.399,1.415,0
				l5.5-5.499C18.598,14.317,18.598,13.685,18.207,13.294z"/>
			<path d="M23,0h-6c-0.553,0-1,0.448-1,1c0,0.553,0.447,1,1,1h5v20.001h-5c-0.553,0-1,0.447-1,1C16,23.553,16.447,24,17,24h6
				c0.552,0,1-0.447,1-0.999V1C24,0.448,23.552,0,23,0z"/>
			<path d="M6,22.001H2V2h4c0.552,0,1-0.447,1-1c0-0.552-0.448-1-1-1H1C0.447,0,0,0.448,0,1v22.001C0,23.553,0.447,24,1,24h5
				c0.552,0,1-0.447,1-0.999C7,22.448,6.552,22.001,6,22.001z"/>
		</g>
	</g>
	<g id="New_icons">
	</g>
</g>
<g id="Invisible_Shape">
	<rect fill="none" width="24" height="24"/>
</g>
</svg>
