<?xml version="1.0" encoding="utf-8"?>
<!-- Generator: Adobe Illustrator 19.2.1, SVG Export Plug-In . SVG Version: 6.00 Build 0)  -->
<svg version="1.1" xmlns="http://www.w3.org/2000/svg" xmlns:xlink="http://www.w3.org/1999/xlink" x="0px" y="0px" width="24px"
	 height="24px" viewBox="0 0 24 24" enable-background="new 0 0 24 24" xml:space="preserve">
<g id="Filled_Icons_1_">
	<g id="Filled_Icons">
		<path d="M23.5,0h-23C0.224,0,0,0.225,0,0.5v23C0,23.776,0.224,24,0.5,24h23c0.276,0,0.5-0.224,0.5-0.5v-23
			C24,0.225,23.776,0,23.5,0z M21,16.5c0,0.276-0.224,0.5-0.5,0.5H15v1.5c0,0.276-0.224,0.5-0.5,0.5h-5C9.224,19,9,18.776,9,18.5V17
			H3.5C3.224,17,3,16.776,3,16.5v-12C3,4.225,3.224,4,3.5,4H7v4.5C7,8.776,7.224,9,7.5,9S8,8.776,8,8.5V4h2v4.5
			C10,8.776,10.224,9,10.5,9S11,8.776,11,8.5V4h2v4.5C13,8.776,13.224,9,13.5,9S14,8.776,14,8.5V4h2v4.5C16,8.776,16.224,9,16.5,9
			S17,8.776,17,8.5V4h3.5C20.776,4,21,4.225,21,4.5V16.5z"/>
	</g>
	<g id="New_icons">
	</g>
</g>
<g id="Invisible_Shape">
	<rect fill="none" width="24" height="24"/>
</g>
</svg>
