<?xml version="1.0" encoding="utf-8"?>
<!-- Generator: Adobe Illustrator 19.2.1, SVG Export Plug-In . SVG Version: 6.00 Build 0)  -->
<svg version="1.1" xmlns="http://www.w3.org/2000/svg" xmlns:xlink="http://www.w3.org/1999/xlink" x="0px" y="0px" width="24px"
	 height="24px" viewBox="0 0 24 24" enable-background="new 0 0 24 24" xml:space="preserve">
<g id="Filled_Icons_1_">
	<g id="Filled_Icons">
		<g>
			<circle cx="11.5" cy="11.5" r="3.5"/>
			<path d="M13.5,21h-4C9.224,21,9,21.225,9,21.5v2C9,23.776,9.224,24,9.5,24h4c0.275,0,0.5-0.224,0.5-0.5v-2
				C14,21.225,13.775,21,13.5,21z"/>
			<path d="M13.5,17h-4C9.224,17,9,17.225,9,17.5v2C9,19.776,9.224,20,9.5,20h4c0.275,0,0.5-0.224,0.5-0.5v-2
				C14,17.225,13.775,17,13.5,17z"/>
			<path d="M5.853,2.647l-1.5-1.5c-0.195-0.195-0.512-0.195-0.707,0l-3,3c-0.195,0.195-0.195,0.512,0,0.707l1.5,1.5
				c0.195,0.195,0.512,0.195,0.707,0l3-3C6.049,3.158,6.049,2.842,5.853,2.647z"/>
			<path d="M8.854,5.647l-1.5-1.5c-0.195-0.195-0.512-0.195-0.707,0l-3,3c-0.195,0.195-0.195,0.512,0,0.707l1.5,1.5
				c0.195,0.195,0.512,0.195,0.707,0l3-3C9.049,6.158,9.049,5.842,8.854,5.647z"/>
			<path d="M23.354,3.147l-3-3c-0.195-0.195-0.512-0.195-0.707,0l-5,5c-0.195,0.195-0.195,0.512,0,0.707l3,3
				c0.195,0.195,0.512,0.195,0.707,0l5-5C23.549,3.658,23.549,3.342,23.354,3.147z"/>
		</g>
	</g>
	<g id="New_icons">
	</g>
</g>
<g id="Invisible_Shape">
	<rect fill="none" width="24" height="24"/>
</g>
</svg>
