<?xml version="1.0" encoding="utf-8"?>
<!-- Generator: Adobe Illustrator 19.2.1, SVG Export Plug-In . SVG Version: 6.00 Build 0)  -->
<svg version="1.1" xmlns="http://www.w3.org/2000/svg" xmlns:xlink="http://www.w3.org/1999/xlink" x="0px" y="0px" width="24px"
	 height="24px" viewBox="0 0 24 24" enable-background="new 0 0 24 24" xml:space="preserve">
<g id="Filled_Icons_1_">
	<g id="Filled_Icons">
		<g>
			<circle cx="11.5" cy="11" r="3.5"/>
			<path d="M4.853,0.147c-0.195-0.195-0.512-0.195-0.707,0l-3.5,3.5c-0.195,0.195-0.195,0.512,0,0.707s0.512,0.196,0.707,0l3.5-3.5
				C5.049,0.658,5.049,0.342,4.853,0.147z"/>
			<path d="M7.853,3.147c-0.195-0.195-0.512-0.195-0.707,0l-3.5,3.5c-0.195,0.195-0.195,0.512,0,0.707
				c0.195,0.195,0.512,0.196,0.707,0l3.5-3.5C8.049,3.658,8.049,3.342,7.853,3.147z"/>
			<path d="M14,18H9c-0.276,0-0.5,0.225-0.5,0.5C8.5,18.776,8.724,19,9,19h5c0.275,0,0.5-0.224,0.5-0.5C14.5,18.225,14.275,18,14,18
				z"/>
			<path d="M14,22H9c-0.276,0-0.5,0.225-0.5,0.5C8.5,22.776,8.724,23,9,23h5c0.275,0,0.5-0.224,0.5-0.5C14.5,22.225,14.275,22,14,22
				z"/>
			<path d="M22.354,0.147c-0.195-0.195-0.512-0.195-0.707,0l-5,5c-0.195,0.195-0.196,0.511,0,0.707c0.195,0.195,0.512,0.195,0.707,0
				l5-5C22.549,0.658,22.549,0.342,22.354,0.147z"/>
		</g>
	</g>
	<g id="New_icons">
	</g>
</g>
<g id="Invisible_Shape">
	<rect fill="none" width="24" height="24"/>
</g>
</svg>
