<?xml version="1.0" encoding="utf-8"?>
<!-- Generator: Adobe Illustrator 19.2.1, SVG Export Plug-In . SVG Version: 6.00 Build 0)  -->
<svg version="1.1" xmlns="http://www.w3.org/2000/svg" xmlns:xlink="http://www.w3.org/1999/xlink" x="0px" y="0px" width="24px"
	 height="24px" viewBox="0 0 24 24" enable-background="new 0 0 24 24" xml:space="preserve">
<g id="Filled_Icons_1_">
	<g id="Filled_Icons">
		<g>
			<circle cx="18" cy="3" r="3"/>
			<path d="M7.519,6c0.836-2.267,2.225-4.393,3.751-5.965C7.009,0.277,3.41,2.59,1.493,6H7.519z"/>
			<path d="M6.562,12h-6.55c0.035,1.788,0.449,3.477,1.159,5h6.316C6.93,15.319,6.621,13.646,6.562,12z"/>
			<path d="M7.847,18H1.694c1.977,3.392,5.502,5.721,9.573,5.964C10.566,23.24,8.835,20.53,7.847,18z"/>
			<path d="M0.994,7c-0.542,1.231-0.869,2.578-0.957,4h6.519c0.036-1.36,0.233-2.699,0.616-4H0.994z"/>
			<path d="M23.638,7.519l-3.5-1c-0.232-0.064-0.477,0.042-0.585,0.258L18,9.882l-1.553-3.105c-0.108-0.216-0.354-0.322-0.585-0.258
				L14,7.052V16h0.029l0.975,7.563C15.036,23.813,15.249,24,15.5,24h5c0.251,0,0.464-0.187,0.496-0.437L21.97,16h1.53
				c0.276,0,0.5-0.224,0.5-0.5V8C24,7.776,23.852,7.581,23.638,7.519z"/>
			<g>
				<path d="M12.999,18H8.894c0.822,1.96,2.161,4.32,3.772,5.969L13,23.952V18H12.999z"/>
				<path d="M12.999,11H13V7h-0.001H8.189c-0.42,1.3-0.646,2.637-0.686,4H12.999z"/>
				<path d="M12.999,6H13V0.044l-0.332-0.015c-0.97,1-2.874,2.883-4.123,5.971H12.999z"/>
				<path d="M12.999,17H13v-5h-0.001h-5.49c0.062,1.642,0.389,3.314,0.991,5H12.999z"/>
			</g>
		</g>
	</g>
	<g id="New_icons">
	</g>
</g>
<g id="Invisible_Shape">
	<rect fill="none" width="24" height="24"/>
</g>
</svg>
