<?xml version="1.0" encoding="utf-8"?>
<!-- Generator: Adobe Illustrator 19.2.1, SVG Export Plug-In . SVG Version: 6.00 Build 0)  -->
<svg version="1.1" xmlns="http://www.w3.org/2000/svg" xmlns:xlink="http://www.w3.org/1999/xlink" x="0px" y="0px" width="24px"
	 height="24px" viewBox="0 0 24 24" enable-background="new 0 0 24 24" xml:space="preserve">
<g id="Filled_Icons_1_">
	<g id="Filled_Icons">
		<g>
			<path d="M9.1,8H0v0.5C0,9.327,0.638,10,1.422,10h4.829C6.727,8.825,7.824,8,9.1,8z"/>
			<path d="M13,1.5C13,0.673,12.361,0,11.576,0H1.422C0.638,0,0,0.673,0,1.5V7h13V1.5z"/>
			<path d="M5.5,11h-3C2.224,11,2,11.225,2,11.5C2,11.776,2.224,12,2.5,12h3C5.776,12,6,11.776,6,11.5C6,11.225,5.776,11,5.5,11z"/>
			<path d="M19.5,23h-8c-0.276,0-0.5,0.225-0.5,0.5c0,0.276,0.224,0.5,0.5,0.5h8c0.276,0,0.5-0.224,0.5-0.5
				C20,23.225,19.776,23,19.5,23z"/>
			<path d="M21.899,9H9.1C7.941,9,7,10.031,7,11.3V18h17v-6.7C24,10.031,23.058,9,21.899,9z"/>
			<path d="M7,19.7C7,20.969,7.941,22,9.1,22h12.8C23.058,22,24,20.969,24,19.7V19H7V19.7z M15.5,19.5c0.275,0,0.5,0.225,0.5,0.5
				c0,0.276-0.225,0.5-0.5,0.5c-0.277,0-0.5-0.224-0.5-0.5C15,19.725,15.223,19.5,15.5,19.5z"/>
		</g>
	</g>
	<g id="New_icons">
	</g>
</g>
<g id="Invisible_Shape">
	<rect fill="none" width="24" height="24"/>
</g>
</svg>
