<?xml version="1.0" encoding="utf-8"?>
<!-- Generator: Adobe Illustrator 19.2.1, SVG Export Plug-In . SVG Version: 6.00 Build 0)  -->
<svg version="1.1" xmlns="http://www.w3.org/2000/svg" xmlns:xlink="http://www.w3.org/1999/xlink" x="0px" y="0px" width="24px"
	 height="24px" viewBox="0 0 24 24" enable-background="new 0 0 24 24" xml:space="preserve">
<g id="Filled_Icons_1_">
	<g id="Filled_Icons">
	</g>
	<g id="New_icons">
		<g>
			<path d="M23.5,23H13.031v-3h6c0.276,0,0.5-0.224,0.5-0.5s-0.224-0.5-0.5-0.5h-3.64l-0.666-2h6.306c1.103,0,2-0.897,2-2V3
				c0-1.102-0.897-2-2-2h-17c-1.102,0-2,0.898-2,2v12c0,1.103,0.898,2,2,2h6.306l-0.666,2h-3.64c-0.276,0-0.5,0.224-0.5,0.5
				s0.224,0.5,0.5,0.5h6v3H1.553c-0.276,0-0.5,0.224-0.5,0.5s0.224,0.5,0.5,0.5H23.5c0.276,0,0.5-0.224,0.5-0.5S23.776,23,23.5,23z
				 M4.531,13c-0.276,0-0.5-0.224-0.5-0.5v-9c0-0.276,0.224-0.5,0.5-0.5h16c0.276,0,0.5,0.224,0.5,0.5v9c0,0.276-0.224,0.5-0.5,0.5
				H4.531z M11.531,15c0-0.552,0.448-1,1-1c0.552,0,1,0.448,1,1s-0.448,1-1,1C11.979,16,11.531,15.552,11.531,15z"/>
			<path d="M15.5,7H15V6.5C15,5.121,13.879,4,12.5,4S10,5.121,10,6.5V7H9.5C9.224,7,9,7.224,9,7.5v4C9,11.776,9.224,12,9.5,12h6
				c0.276,0,0.5-0.224,0.5-0.5v-4C16,7.224,15.776,7,15.5,7z M11,6.5C11,5.673,11.673,5,12.5,5S14,5.673,14,6.5V7h-3V6.5z"/>
		</g>
	</g>
</g>
<g id="Invisible_Shape">
	<rect fill="none" width="24" height="24"/>
</g>
</svg>
