<?xml version="1.0" encoding="utf-8"?>
<!-- Generator: Adobe Illustrator 19.2.1, SVG Export Plug-In . SVG Version: 6.00 Build 0)  -->
<svg version="1.1" xmlns="http://www.w3.org/2000/svg" xmlns:xlink="http://www.w3.org/1999/xlink" x="0px" y="0px" width="24px"
	 height="24px" viewBox="0 0 24 24" enable-background="new 0 0 24 24" xml:space="preserve">
<g id="Filled_Icons_1_">
	<g id="Filled_Icons">
		<path d="M22.5,10H19V9.5C19,9.224,18.776,9,18.5,9H14V4.5C14,4.224,13.776,4,13.5,4H13V0.5C13,0.224,12.776,0,12.5,0h-2
			C10.224,0,10,0.224,10,0.5V4H9.5C9.224,4,9,4.224,9,4.5V9H4.5C4.224,9,4,9.224,4,9.5V10H0.5C0.224,10,0,10.224,0,10.5v2
			C0,12.776,0.224,13,0.5,13H4v0.5C4,13.776,4.224,14,4.5,14H9v4.5C9,18.776,9.224,19,9.5,19H10v3.5c0,0.276,0.224,0.5,0.5,0.5h2
			c0.276,0,0.5-0.224,0.5-0.5V19h0.5c0.276,0,0.5-0.224,0.5-0.5V14h4.5c0.276,0,0.5-0.224,0.5-0.5V13h3.5c0.276,0,0.5-0.224,0.5-0.5
			v-2C23,10.224,22.776,10,22.5,10z M11,1h1v3h-1V1z M1,12v-1h3v1H1z M12,22h-1v-3h1V22z M22,12h-3v-1h3V12z"/>
	</g>
	<g id="New_icons">
	</g>
</g>
<g id="Invisible_Shape">
	<rect fill="none" width="24" height="24"/>
</g>
</svg>
