<?xml version="1.0" encoding="utf-8"?>
<!-- Generator: Adobe Illustrator 19.2.1, SVG Export Plug-In . SVG Version: 6.00 Build 0)  -->
<svg version="1.1" xmlns="http://www.w3.org/2000/svg" xmlns:xlink="http://www.w3.org/1999/xlink" x="0px" y="0px" width="24px"
	 height="24px" viewBox="0 0 24 24" enable-background="new 0 0 24 24" xml:space="preserve">
<g id="Filled_Icons_1_">
	<g id="Filled_Icons">
		<g>
			<path d="M22.469,23H12v-3h-1v3H0.521c-0.276,0-0.5,0.224-0.5,0.5s0.224,0.5,0.5,0.5h21.948c0.276,0,0.5-0.224,0.5-0.5
				S22.745,23,22.469,23z"/>
			<g>
				<path d="M7.152,10H2.055c0.074,1.055,0.307,2.065,0.686,3h4.974C7.413,11.993,7.225,10.991,7.152,10z"/>
				<path d="M11.333,1.009C10.481,1.959,9.802,2.96,9.283,4h4.441c-0.518-1.04-1.197-2.041-2.05-2.991H11.333z"/>
				<path d="M20.993,10h-5.138c-0.073,0.991-0.262,1.993-0.562,3h5.04C20.709,12.064,20.935,11.054,20.993,10z"/>
				<path d="M8.121,10c0.079,0.989,0.29,1.991,0.619,3h5.527c0.329-1.009,0.54-2.011,0.619-3H8.121z"/>
				<path d="M14.928,9c-0.007-1.372-0.262-2.712-0.761-4H8.842C8.343,6.288,8.088,7.628,8.08,9H14.928z"/>
				<path d="M11.644,17.991c0.972-1.326,1.716-2.662,2.257-3.991H9.106c0.541,1.329,1.285,2.666,2.257,3.992L11.644,17.991z"/>
				<path d="M2.035,9H7.11c0.007-1.369,0.247-2.708,0.696-4H3.055C2.437,6.196,2.08,7.552,2.035,9z"/>
				<path d="M15.201,5c0.449,1.292,0.689,2.631,0.695,4h5.101c-0.071-1.44-0.456-2.798-1.105-4H15.201z"/>
				<path d="M14.964,14c-0.703,1.883-1.658,3.444-2.8,4.966c3.329-0.232,6.195-2.176,7.708-4.966H14.964z"/>
				<path d="M8.043,14h-4.83c1.519,2.794,4.347,4.735,7.629,4.966C9.694,17.438,8.74,15.869,8.043,14z"/>
				<path d="M8.201,4c0.688-1.542,1.572-2.786,2.673-3.97C7.823,0.224,5.238,1.732,3.663,4H8.201z"/>
				<path d="M14.807,4h4.457c-1.611-2.261-4.189-3.781-7.129-3.97C13.241,1.23,14.112,2.444,14.807,4z"/>
			</g>
		</g>
	</g>
	<g id="New_icons">
	</g>
</g>
<g id="Invisible_Shape">
	<rect fill="none" width="24" height="24"/>
</g>
</svg>
