<?xml version="1.0" encoding="utf-8"?>
<!-- Generator: Adobe Illustrator 19.2.1, SVG Export Plug-In . SVG Version: 6.00 Build 0)  -->
<svg version="1.1" xmlns="http://www.w3.org/2000/svg" xmlns:xlink="http://www.w3.org/1999/xlink" x="0px" y="0px" width="24px"
	 height="24px" viewBox="0 0 24 24" enable-background="new 0 0 24 24" xml:space="preserve">
<g id="Filled_Icons_1_">
	<g id="Filled_Icons">
		<path d="M22.5,16H19v-0.5c0-0.276-0.224-0.5-0.5-0.5H14v-4.5c0-0.276-0.224-0.5-0.5-0.5H13V5.5C13,5.224,12.776,5,12.5,5h-2
			C10.224,5,10,5.224,10,5.5V10H9.5C9.224,10,9,10.224,9,10.5V15H4.5C4.224,15,4,15.224,4,15.5V16H0.5C0.224,16,0,16.224,0,16.5v2
			C0,18.776,0.224,19,0.5,19H4v0.5C4,19.776,4.224,20,4.5,20h14c0.276,0,0.5-0.224,0.5-0.5V19h3.5c0.276,0,0.5-0.224,0.5-0.5v-2
			C23,16.224,22.776,16,22.5,16z M11,6h1v4h-1V6z M1,18v-1h3v1H1z M22,18h-3v-1h3V18z"/>
	</g>
	<g id="New_icons">
	</g>
</g>
<g id="Invisible_Shape">
	<rect fill="none" width="24" height="24"/>
</g>
</svg>
