<?xml version="1.0" encoding="utf-8"?>
<!-- Generator: Adobe Illustrator 19.2.1, SVG Export Plug-In . SVG Version: 6.00 Build 0)  -->
<svg version="1.1" xmlns="http://www.w3.org/2000/svg" xmlns:xlink="http://www.w3.org/1999/xlink" x="0px" y="0px" width="24px"
	 height="24px" viewBox="0 0 24 24" enable-background="new 0 0 24 24" xml:space="preserve">
<g id="Filled_Icons_1_">
	<g id="Filled_Icons">
		<g>
			<g>
				<path d="M17.364,11.137c-1.7-1.7-3.96-2.637-6.363-2.637c-0.001,0-0.002,0-0.003,0c-2.402,0.001-4.662,0.938-6.361,2.637
					L3.223,9.723C5.299,7.646,8.061,6.501,10.998,6.5c0.001,0,0.002,0,0.003,0c2.938,0,5.699,1.144,7.777,3.223L17.364,11.137z"/>
			</g>
			<g>
				<path d="M1.807,7.309L0.393,5.894c5.849-5.848,15.365-5.848,21.214,0l-1.414,1.414C15.123,2.239,6.876,2.241,1.807,7.309z"/>
			</g>
			<g>
				<path d="M7.464,14.964L6.05,13.55c2.731-2.729,7.173-2.729,9.9,0l-1.414,1.414C12.588,13.018,9.414,13.016,7.464,14.964z"/>
			</g>
			<g>
				<path d="M17.364,11.137c-1.699-1.699-3.959-2.636-6.362-2.637c0,0-0.001,0-0.002,0c-2.403,0-4.663,0.936-6.363,2.637
					L3.223,9.723C5.3,7.644,8.062,6.5,11,6.5c0.001,0,0.002,0,0.003,0c2.938,0.001,5.699,1.146,7.775,3.223L17.364,11.137z"/>
			</g>
			<g>
				<path d="M14.536,14.964c-1.949-1.947-5.123-1.947-7.072,0L6.05,13.55c2.731-2.729,7.17-2.729,9.9,0L14.536,14.964z"/>
			</g>
			<circle cx="11" cy="19.5" r="2.5"/>
		</g>
	</g>
	<g id="New_icons">
	</g>
</g>
<g id="Invisible_Shape">
	<rect fill="none" width="24" height="24"/>
</g>
</svg>
