<?xml version="1.0" encoding="utf-8"?>
<!-- Generator: Adobe Illustrator 19.2.1, SVG Export Plug-In . SVG Version: 6.00 Build 0)  -->
<svg version="1.1" xmlns="http://www.w3.org/2000/svg" xmlns:xlink="http://www.w3.org/1999/xlink" x="0px" y="0px" width="24px"
	 height="24px" viewBox="0 0 24 24" enable-background="new 0 0 24 24" xml:space="preserve">
<g id="Filled_Icons_1_">
	<g id="Filled_Icons">
	</g>
	<g id="New_icons">
		<g>
			<path d="M20.745,4.285C21.21,3.831,21.5,3.199,21.5,2.5C21.5,1.121,20.379,0,19,0s-2.5,1.121-2.5,2.5
				c0,0.699,0.29,1.331,0.755,1.785C15.629,4.867,15,6.26,15,7.5C15,7.776,15.224,8,15.5,8h7C22.776,8,23,7.776,23,7.5
				C23,6.26,22.371,4.867,20.745,4.285z"/>
			<path d="M5.745,4.285C6.21,3.831,6.5,3.199,6.5,2.5C6.5,1.121,5.379,0,4,0S1.5,1.121,1.5,2.5c0,0.699,0.29,1.331,0.755,1.785
				C0.629,4.867,0,6.26,0,7.5C0,7.776,0.224,8,0.5,8h7C7.776,8,8,7.776,8,7.5C8,6.26,7.371,4.867,5.745,4.285z"/>
			<path d="M3,19.912C3,21.063,3.898,22,5,22h6v1H8c-0.276,0-0.5,0.224-0.5,0.5S7.724,24,8,24h7c0.276,0,0.5-0.224,0.5-0.5
				S15.276,23,15,23h-3v-1h6c1.103,0,2-0.937,2-2.088V19H3V19.912z"/>
			<path d="M9.854,13.146L6.707,10H8.5C8.776,10,9,9.776,9,9.5S8.776,9,8.5,9h-3C5.224,9,5,9.224,5,9.5v3C5,12.776,5.224,13,5.5,13
				S6,12.776,6,12.5v-1.793l3.146,3.147c0.195,0.195,0.512,0.195,0.707,0S10.049,13.342,9.854,13.146z"/>
			<path d="M9.854,13.146L6.707,10H8.5C8.776,10,9,9.776,9,9.5S8.776,9,8.5,9h-3C5.224,9,5,9.224,5,9.5v3C5,12.776,5.224,13,5.5,13
				S6,12.776,6,12.5v-1.793l3.146,3.147c0.195,0.195,0.512,0.195,0.707,0S10.049,13.342,9.854,13.146z"/>
			<path d="M13.146,13.146L16.293,10H14.5C14.224,10,14,9.776,14,9.5S14.224,9,14.5,9h3C17.776,9,18,9.224,18,9.5v3
				c0,0.276-0.224,0.5-0.5,0.5S17,12.776,17,12.5v-1.793l-3.146,3.147c-0.195,0.195-0.512,0.195-0.707,0
				S12.951,13.342,13.146,13.146z"/>
			<path d="M18.999,10.29L19,12.5c0,0.828-0.672,1.5-1.5,1.5c-0.618,0-1.197-0.41-1.406-0.973l-1.533,1.533
				c-0.585,0.585-1.537,0.584-2.121,0c-0.585-0.585-0.586-1.537,0-2.121l1.533-1.534c-0.404-0.15-0.725-0.495-0.875-0.905H9.902
				c-0.15,0.41-0.471,0.755-0.875,0.905l1.533,1.534c0.586,0.584,0.585,1.536,0,2.121c-0.584,0.584-1.536,0.585-2.121,0
				l-1.533-1.533C6.697,13.59,6.118,14,5.5,14C4.672,14,4,13.328,4,12.5l0.001-2.21C3.405,10.652,3,11.318,3,12.088V18h17v-5.912
				C20,11.318,19.595,10.652,18.999,10.29z"/>
		</g>
	</g>
</g>
<g id="Invisible_Shape">
	<rect fill="none" width="24" height="24"/>
</g>
</svg>
