<?xml version="1.0" encoding="utf-8"?>
<!-- Generator: Adobe Illustrator 19.2.1, SVG Export Plug-In . SVG Version: 6.00 Build 0)  -->
<svg version="1.1" xmlns="http://www.w3.org/2000/svg" xmlns:xlink="http://www.w3.org/1999/xlink" x="0px" y="0px" width="24px"
	 height="24px" viewBox="0 0 24 24" enable-background="new 0 0 24 24" xml:space="preserve">
<g id="Filled_Icons_1_">
	<g id="Filled_Icons">
	</g>
	<g id="New_icons">
		<g>
			<path d="M22.5,20c0.827,0,1.5-0.673,1.5-1.5v-2c0-0.276-0.224-0.5-0.5-0.5H23V3c0-1.104-0.897-2-2-2H4C2.898,1,2,1.896,2,3v13
				H1.5C1.224,16,1,16.224,1,16.5v2C1,19.327,1.673,20,2.5,20H12v3H1.52c-0.276,0-0.5,0.224-0.5,0.5S1.244,24,1.52,24h21.948
				c0.276,0,0.5-0.224,0.5-0.5s-0.224-0.5-0.5-0.5H13v-3H22.5z M4,3.5C4,3.224,4.224,3,4.5,3h16C20.776,3,21,3.224,21,3.5v11
				c0,0.276-0.224,0.5-0.5,0.5h-16C4.224,15,4,14.776,4,14.5V3.5z M2,18.5V17h8v0.5c0,0.276,0.224,0.5,0.5,0.5h4
				c0.276,0,0.5-0.224,0.5-0.5V17h8v1.5c0,0.276-0.225,0.5-0.5,0.5h-20C2.225,19,2,18.776,2,18.5z"/>
		</g>
	</g>
</g>
<g id="Invisible_Shape">
	<rect fill="none" width="24" height="24"/>
</g>
</svg>
