<?xml version="1.0" encoding="utf-8"?>
<!-- Generator: Adobe Illustrator 19.2.1, SVG Export Plug-In . SVG Version: 6.00 Build 0)  -->
<svg version="1.1" xmlns="http://www.w3.org/2000/svg" xmlns:xlink="http://www.w3.org/1999/xlink" x="0px" y="0px" width="24px"
	 height="24px" viewBox="0 0 24 24" enable-background="new 0 0 24 24" xml:space="preserve">
<g id="Filled_Icons_1_">
	<g id="Filled_Icons">
		<g>
			<path d="M17,8V2.963C17,1.862,16.205,1,15.084,1H10C8.878,1,8,1.862,8,2.963V8H17z M10,3.5C10,3.225,10.224,3,10.5,3h4
				C14.776,3,15,3.225,15,3.5v2C15,5.776,14.776,6,14.5,6h-4C10.224,6,10,5.776,10,5.5V3.5z"/>
			<path d="M23,18v-5.037C23,11.862,22.205,11,21.084,11H16c-1.122,0-2,0.862-2,1.963V18H23z M16,13.5c0-0.275,0.224-0.5,0.5-0.5h4
				c0.276,0,0.5,0.225,0.5,0.5v2c0,0.276-0.224,0.5-0.5,0.5h-4c-0.276,0-0.5-0.224-0.5-0.5V13.5z"/>
			<path d="M11,18v-5.037C11,11.862,10.205,11,9.084,11H4c-1.122,0-2,0.862-2,1.963V18H11z M4,13.5C4,13.225,4.224,13,4.5,13h4
				C8.776,13,9,13.225,9,13.5v2C9,15.776,8.776,16,8.5,16h-4C4.224,16,4,15.776,4,15.5V13.5z"/>
			<path d="M15.5,10H18c0-0.013,0.004-0.988,0-1c-4.239,0-6.76,0-11,0c-0.004,0.012,0,0.987,0,1h2.5c1.338,0,2.443,0.826,2.841,2
				h0.318C13.056,10.826,14.161,10,15.5,10z"/>
			<path d="M1,19c0,0,0,2.492,0,2.5C1,21.776,1.224,22,1.5,22h10c0.276,0,0.5-0.224,0.5-0.5c0-0.008,0-2.5,0-2.5
				C7.761,19,5.24,19,1,19z"/>
			<path d="M24,19c-4.239,0-6.76,0-11,0c0,0,0,2.492,0,2.5c0,0.276,0.224,0.5,0.5,0.5h10c0.276,0,0.5-0.224,0.5-0.5
				C24,21.115,24,19,24,19z"/>
		</g>
	</g>
	<g id="New_icons">
	</g>
</g>
<g id="Invisible_Shape">
	<rect fill="none" width="24" height="24"/>
</g>
</svg>
