<?xml version="1.0" encoding="utf-8"?>
<!-- Generator: Adobe Illustrator 19.2.1, SVG Export Plug-In . SVG Version: 6.00 Build 0)  -->
<svg version="1.1" xmlns="http://www.w3.org/2000/svg" xmlns:xlink="http://www.w3.org/1999/xlink" x="0px" y="0px" width="24px"
	 height="24px" viewBox="0 0 24 24" enable-background="new 0 0 24 24" xml:space="preserve">
<g id="Filled_Icons_1_">
	<g id="Filled_Icons">
		<g>
			<circle cx="12" cy="11.5" r="1.5"/>
			<circle cx="17" cy="11.5" r="1.5"/>
			<circle cx="7" cy="11.5" r="1.5"/>
			<g>
				<path d="M2.414,11.5l4.293-4.293c0.391-0.391,0.391-1.023,0-1.414c-0.391-0.391-1.023-0.391-1.414,0l-5,5
					c-0.391,0.391-0.391,1.023,0,1.414l5,5c0.391,0.391,1.023,0.391,1.414,0c0.391-0.391,0.391-1.023,0-1.414L2.414,11.5z"/>
				<path d="M21.586,11.5l-4.293-4.293c-0.391-0.391-0.391-1.023,0-1.414c0.391-0.391,1.023-0.391,1.414,0l5,5
					c0.391,0.391,0.391,1.023,0,1.414l-5,5c-0.391,0.391-1.023,0.391-1.414,0c-0.391-0.391-0.391-1.023,0-1.414L21.586,11.5z"/>
			</g>
		</g>
	</g>
	<g id="New_icons">
	</g>
</g>
<g id="Invisible_Shape">
	<rect fill="none" width="24" height="24"/>
</g>
</svg>
