<?xml version="1.0" encoding="utf-8"?>
<!-- Generator: Adobe Illustrator 19.2.1, SVG Export Plug-In . SVG Version: 6.00 Build 0)  -->
<svg version="1.1" xmlns="http://www.w3.org/2000/svg" xmlns:xlink="http://www.w3.org/1999/xlink" x="0px" y="0px" width="24px"
	 height="24px" viewBox="0 0 24 24" enable-background="new 0 0 24 24" xml:space="preserve">
<g id="Filled_Icons_1_">
	<g id="Filled_Icons">
	</g>
	<g id="New_icons">
		<path d="M23.469,23H13v-3h6c0.276,0,0.5-0.224,0.5-0.5S19.276,19,19,19h-3.64l-0.666-2H21c1.103,0,2-0.897,2-2V3
			c0-1.102-0.897-2-2-2H4C2.898,1,2,1.898,2,3v12c0,1.103,0.898,2,2,2h6.306L9.64,19H6c-0.276,0-0.5,0.224-0.5,0.5S5.724,20,6,20h6
			v3H1.521c-0.276,0-0.5,0.224-0.5,0.5s0.224,0.5,0.5,0.5h21.947c0.276,0,0.5-0.224,0.5-0.5S23.745,23,23.469,23z M4.5,13
			C4.224,13,4,12.776,4,12.5v-9C4,3.224,4.224,3,4.5,3h16C20.776,3,21,3.224,21,3.5v9c0,0.276-0.224,0.5-0.5,0.5H4.5z M11.5,15
			c0-0.552,0.448-1,1-1s1,0.448,1,1s-0.448,1-1,1S11.5,15.552,11.5,15z"/>
	</g>
</g>
<g id="Invisible_Shape">
	<rect fill="none" width="24" height="24"/>
</g>
</svg>
