<?xml version="1.0" encoding="utf-8"?>
<!-- Generator: Adobe Illustrator 19.2.1, SVG Export Plug-In . SVG Version: 6.00 Build 0)  -->
<svg version="1.1" xmlns="http://www.w3.org/2000/svg" xmlns:xlink="http://www.w3.org/1999/xlink" x="0px" y="0px" width="24px"
	 height="24px" viewBox="0 0 24 24" enable-background="new 0 0 24 24" xml:space="preserve">
<g id="Filled_Icons_1_">
	<g id="Filled_Icons">
		<g>
			<path d="M21.5,20c0.827,0,1.5-0.673,1.5-1.5v-2c0-0.276-0.224-0.5-0.5-0.5H22V3c0-1.104-0.897-2-2-2H3C1.898,1,1,1.896,1,3v13
				H0.5C0.224,16,0,16.224,0,16.5v2C0,19.327,0.673,20,1.5,20H11v3H0.521c-0.276,0-0.5,0.224-0.5,0.5s0.224,0.5,0.5,0.5h21.948
				c0.276,0,0.5-0.224,0.5-0.5s-0.224-0.5-0.5-0.5H12v-3H21.5z M3,3.5C3,3.224,3.224,3,3.5,3h16C19.776,3,20,3.224,20,3.5v11
				c0,0.276-0.224,0.5-0.5,0.5h-16C3.224,15,3,14.776,3,14.5V3.5z M1,18.5V17h8v0.5C9,17.776,9.224,18,9.5,18h4
				c0.276,0,0.5-0.224,0.5-0.5V17h8v1.5c0,0.276-0.225,0.5-0.5,0.5h-20C1.225,19,1,18.776,1,18.5z"/>
			<path d="M8.5,13h6c0.276,0,0.5-0.224,0.5-0.5v-4C15,8.224,14.776,8,14.5,8H14V7.5C14,6.122,12.879,5,11.5,5S9,6.122,9,7.5V8H8.5
				C8.224,8,8,8.224,8,8.5v4C8,12.776,8.224,13,8.5,13z M10,7.5C10,6.673,10.673,6,11.5,6S13,6.673,13,7.5V8h-3V7.5z"/>
		</g>
	</g>
	<g id="New_icons">
	</g>
</g>
<g id="Invisible_Shape">
	<rect fill="none" width="24" height="24"/>
</g>
</svg>
