<?xml version="1.0" encoding="utf-8"?>
<!-- Generator: Adobe Illustrator 19.2.1, SVG Export Plug-In . SVG Version: 6.00 Build 0)  -->
<svg version="1.1" xmlns="http://www.w3.org/2000/svg" xmlns:xlink="http://www.w3.org/1999/xlink" x="0px" y="0px" width="24px"
	 height="24px" viewBox="0 0 24 24" enable-background="new 0 0 24 24" xml:space="preserve">
<g id="Filled_Icons_1_">
	<g id="Filled_Icons">
		<g>
			<path d="M22.5,5h-21C0.673,5,0,5.673,0,6.5v13C0,20.327,0.673,21,1.5,21H10v2H7c-0.276,0-0.5,0.224-0.5,0.5S6.724,24,7,24h10
				c0.276,0,0.5-0.224,0.5-0.5S17.276,23,17,23h-3v-2h8.5c0.827,0,1.5-0.673,1.5-1.5v-13C24,5.673,23.327,5,22.5,5z M22,18.5
				c0,0.276-0.224,0.5-0.5,0.5h-19C2.224,19,2,18.776,2,18.5v-11C2,7.224,2.224,7,2.5,7h19C21.776,7,22,7.224,22,7.5V18.5z"/>
			<path d="M16.991,1.575c-2.964-1.98-7.02-1.978-9.982,0C6.778,1.729,6.717,2.039,6.87,2.269C7.023,2.498,7.335,2.56,7.563,2.407
				c2.634-1.759,6.237-1.761,8.873,0c0.229,0.152,0.54,0.091,0.693-0.139C17.283,2.039,17.222,1.729,16.991,1.575z"/>
			<path d="M15.882,3.238c-2.305-1.538-5.456-1.538-7.765,0C7.888,3.392,7.825,3.702,7.978,3.932c0.153,0.23,0.465,0.29,0.693,0.139
				c1.979-1.318,4.681-1.318,6.655,0c0.229,0.151,0.541,0.092,0.694-0.139C16.175,3.702,16.111,3.392,15.882,3.238z"/>
		</g>
	</g>
	<g id="New_icons">
	</g>
</g>
<g id="Invisible_Shape">
	<rect fill="none" width="24" height="24"/>
</g>
</svg>
