<?xml version="1.0" encoding="utf-8"?>
<!-- Generator: Adobe Illustrator 19.2.1, SVG Export Plug-In . SVG Version: 6.00 Build 0)  -->
<svg version="1.1" xmlns="http://www.w3.org/2000/svg" xmlns:xlink="http://www.w3.org/1999/xlink" x="0px" y="0px" width="24px"
	 height="24px" viewBox="0 0 24 24" enable-background="new 0 0 24 24" xml:space="preserve">
<g id="Filled_Icons_1_">
	<g id="Filled_Icons">
		<path d="M22.854,11.146l-11-11c-0.195-0.195-0.512-0.195-0.707,0l-11,11c-0.195,0.195-0.195,0.512,0,0.707l11,11
			c0.195,0.195,0.512,0.195,0.707,0l11-11C23.049,11.658,23.049,11.342,22.854,11.146z M14.146,13.146
			c0.195-0.195,0.512-0.195,0.707,0s0.195,0.512,0,0.707l-3,3c-0.195,0.195-0.512,0.195-0.707,0l-3-3
			c-0.195-0.195-0.195-0.512,0-0.707c0.195-0.195,0.512-0.195,0.707,0L11,15.293V7.707L8.854,9.854
			c-0.195,0.195-0.512,0.195-0.707,0c-0.195-0.195-0.195-0.512,0-0.707l3-3c0.195-0.195,0.512-0.195,0.707,0l3,3
			c0.195,0.195,0.195,0.512,0,0.707s-0.512,0.195-0.707,0L12,7.707v7.586L14.146,13.146z"/>
	</g>
	<g id="New_icons">
	</g>
</g>
<g id="Invisible_Shape">
	<rect fill="none" width="24" height="24"/>
</g>
</svg>
