<?xml version="1.0" encoding="utf-8"?>
<!-- Generator: Adobe Illustrator 19.2.1, SVG Export Plug-In . SVG Version: 6.00 Build 0)  -->
<svg version="1.1" xmlns="http://www.w3.org/2000/svg" xmlns:xlink="http://www.w3.org/1999/xlink" x="0px" y="0px" width="24px"
	 height="24px" viewBox="0 0 24 24" enable-background="new 0 0 24 24" xml:space="preserve">
<g id="Filled_Icons_1_">
	<g id="Filled_Icons">
		<g>
			<path d="M1.616,12.822c0.296,0.352,0.881,0.15,0.883-0.321l0.001-2.5C2.5,9.509,2.5,9,4.5,9H14v2.501
				c0,0.453,0.562,0.675,0.869,0.336l5-5.5c0.174-0.19,0.174-0.481,0-0.673l-5-5.5C14.561-0.174,14,0.046,14,0.501v2.5H4.5
				c-3.109,0-4.5,2.762-4.5,5.5C0,10.864,1.551,12.743,1.616,12.822z"/>
			<path d="M20.384,11.178c-0.296-0.352-0.881-0.15-0.883,0.321l-0.001,2.5c0,0.492,0,1.001-2,1.001H8v-2.501
				c0-0.453-0.562-0.675-0.869-0.336l-5,5.5c-0.174,0.19-0.174,0.481,0,0.673l5,5.5C7.438,24.174,8,23.954,8,23.499v-2.5h9.5
				c3.109,0,4.5-2.762,4.5-5.5C22,13.136,20.449,11.257,20.384,11.178z"/>
		</g>
	</g>
	<g id="New_icons">
	</g>
</g>
<g id="Invisible_Shape">
	<rect fill="none" width="24" height="24"/>
</g>
</svg>
