<?xml version="1.0" encoding="utf-8"?>
<!-- Generator: Adobe Illustrator 19.2.1, SVG Export Plug-In . SVG Version: 6.00 Build 0)  -->
<svg version="1.1" xmlns="http://www.w3.org/2000/svg" xmlns:xlink="http://www.w3.org/1999/xlink" x="0px" y="0px" width="24px"
	 height="24px" viewBox="0 0 24 24" enable-background="new 0 0 24 24" xml:space="preserve">
<g id="Filled_Icons_1_">
	<g id="Filled_Icons">
		<g>
			<path d="M2,22h5v1H4.5C4.224,23,4,23.224,4,23.5C4,23.775,4.224,24,4.5,24h6c0.275,0,0.5-0.225,0.5-0.5
				c0-0.276-0.225-0.5-0.5-0.5H8v-1h5c1.102,0,2-0.897,2-2H0C0,21.103,0.896,22,2,22z"/>
			<path d="M13,11h-2.879c-0.534,0.534-0.872,1-1.621,1s-1.087-0.466-1.621-1H2c-1.104,0-2,0.896-2,2v6h15v-6
				C15,11.896,14.102,11,13,11z"/>
			<path d="M13,1.119c0.184,0.07,0.417,0.177,0.561,0.32C14.766,2.645,15.5,3.083,15.5,4s-0.734,1.356-1.939,2.561
				C13.401,6.72,13.207,6.822,13,6.893C13,8.342,13.765,9,15,9h3v1h-1c-0.276,0-0.5,0.224-0.5,0.5c0,0.275,0.224,0.5,0.5,0.5h3
				c0.275,0,0.5-0.225,0.5-0.5c0-0.276-0.225-0.5-0.5-0.5h-1V9h3c1.103,0,2-0.898,2-2h-8c-0.276,0-0.5-0.225-0.5-0.5
				C15.5,6.224,15.724,6,16,6h8V2c0-1.104-0.897-2-2-2h-7C14.398,0,13.267,0.274,13,1.119z"/>
			<path d="M14.354,3.647l-1.5-1.5c-0.195-0.195-0.512-0.195-0.707,0c-0.195,0.195-0.195,0.512,0,0.707L12.793,3.5H12.25
				C9.906,3.5,8,5.406,8,7.75v1.543L6.853,8.146c-0.195-0.195-0.512-0.195-0.707,0c-0.195,0.195-0.195,0.512,0,0.707l2,2
				c0.195,0.195,0.512,0.195,0.707,0l2-2c0.195-0.195,0.195-0.512,0-0.707c-0.195-0.195-0.512-0.195-0.707,0L9,9.293V7.75
				c0-1.792,1.458-3.25,3.25-3.25h0.543l-0.647,0.647c-0.195,0.195-0.195,0.512,0,0.707s0.512,0.195,0.707,0l1.5-1.5
				C14.549,4.158,14.549,3.842,14.354,3.647z"/>
		</g>
	</g>
	<g id="New_icons">
	</g>
</g>
<g id="Invisible_Shape">
	<rect fill="none" width="24" height="24"/>
</g>
</svg>
