<?xml version="1.0" encoding="utf-8"?>
<!-- Generator: Adobe Illustrator 19.2.1, SVG Export Plug-In . SVG Version: 6.00 Build 0)  -->
<svg version="1.1" xmlns="http://www.w3.org/2000/svg" xmlns:xlink="http://www.w3.org/1999/xlink" x="0px" y="0px" width="24px"
	 height="24px" viewBox="0 0 24 24" enable-background="new 0 0 24 24" xml:space="preserve">
<g id="Filled_Icons_1_">
	<g id="Filled_Icons">
		<path d="M23.5,0h-23C0.224,0,0,0.224,0,0.5v23C0,23.775,0.224,24,0.5,24h23c0.275,0,0.5-0.225,0.5-0.5v-23
			C24,0.224,23.775,0,23.5,0z M14.924,12.782L8.707,19H11.5c0.276,0,0.5,0.224,0.5,0.5S11.776,20,11.5,20h-4
			C7.224,20,7,19.776,7,19.5v-4C7,15.224,7.224,15,7.5,15S8,15.224,8,15.5v2.793l6.217-6.218c0.195-0.195,0.512-0.195,0.707,0
			C15.119,12.271,15.119,12.587,14.924,12.782z M16.5,8.5C16.5,8.776,16.276,9,16,9s-0.5-0.224-0.5-0.5V5.707l-6.217,6.217
			c-0.195,0.195-0.512,0.195-0.707,0c-0.195-0.195-0.195-0.512,0-0.707L14.793,5H12c-0.276,0-0.5-0.224-0.5-0.5S11.724,4,12,4h4
			c0.276,0,0.5,0.224,0.5,0.5V8.5z"/>
	</g>
	<g id="New_icons">
	</g>
</g>
<g id="Invisible_Shape">
	<rect fill="none" width="24" height="24"/>
</g>
</svg>
