<?xml version="1.0" encoding="utf-8"?>
<!-- Generator: Adobe Illustrator 19.2.1, SVG Export Plug-In . SVG Version: 6.00 Build 0)  -->
<svg version="1.1" xmlns="http://www.w3.org/2000/svg" xmlns:xlink="http://www.w3.org/1999/xlink" x="0px" y="0px" width="24px"
	 height="24px" viewBox="0 0 24 24" enable-background="new 0 0 24 24" xml:space="preserve">
<g id="Filled_Icons_1_">
	<g id="Filled_Icons">
	</g>
	<g id="New_icons">
		<g>
			<path d="M23,11H7.412l1.294-1.294c0.391-0.391,0.391-1.024,0-1.414c-0.391-0.391-1.025-0.391-1.414,0l-3.001,3
				c-0.391,0.391-0.387,1.03,0,1.415l3.001,3.001c0.391,0.391,1.023,0.391,1.414,0c0.391-0.391,0.391-1.023,0-1.414L7.412,13H23
				c0.552,0,1-0.448,1-1C24,11.447,23.552,11,23,11z"/>
			<path d="M1,3.001h15.588l-1.294-1.294c-0.391-0.391-0.391-1.023,0-1.414c0.391-0.391,1.024-0.391,1.414,0l3.001,3
				c0.391,0.391,0.387,1.03,0,1.415l-3.001,3.001c-0.391,0.391-1.023,0.391-1.414,0c-0.391-0.391-0.391-1.023,0-1.414l1.294-1.294H1
				c-0.552,0-1-0.448-1-1C0,3.448,0.448,3.001,1,3.001z"/>
			<path d="M1,18.999h15.588l-1.294-1.294c-0.391-0.391-0.391-1.023,0-1.414c0.391-0.391,1.024-0.391,1.414,0l3.001,3
				c0.391,0.391,0.387,1.03,0,1.415l-3.001,3.001c-0.391,0.391-1.023,0.391-1.414,0c-0.391-0.391-0.391-1.023,0-1.414l1.294-1.294H1
				c-0.552,0-1-0.448-1-1C0,19.446,0.448,18.999,1,18.999z"/>
		</g>
	</g>
</g>
<g id="Invisible_Shape">
	<rect fill="none" width="24" height="24"/>
</g>
</svg>
