<?xml version="1.0" encoding="utf-8"?>
<!-- Generator: Adobe Illustrator 19.2.1, SVG Export Plug-In . SVG Version: 6.00 Build 0)  -->
<svg version="1.1" xmlns="http://www.w3.org/2000/svg" xmlns:xlink="http://www.w3.org/1999/xlink" x="0px" y="0px" width="24px"
	 height="24px" viewBox="0 0 24 24" enable-background="new 0 0 24 24" xml:space="preserve">
<g id="Filled_Icons_1_">
	<g id="Filled_Icons">
		<path d="M12,0C5.383,0,0,5.383,0,12c0,6.616,5.383,12,12,12c6.616,0,12-5.384,12-12C24,5.383,18.616,0,12,0z M13.5,16H6.707
			l2.147,2.146c0.195,0.195,0.195,0.512,0,0.707c-0.195,0.195-0.512,0.195-0.707,0l-3-3c-0.195-0.195-0.195-0.512,0-0.707l3-3
			c0.195-0.195,0.512-0.195,0.707,0s0.195,0.512,0,0.707L6.707,15H13.5c0.276,0,0.5,0.224,0.5,0.5S13.776,16,13.5,16z M18.854,8.854
			l-3,3c-0.195,0.195-0.512,0.195-0.707,0s-0.195-0.512,0-0.707L17.293,9H10.5C10.224,9,10,8.776,10,8.5S10.224,8,10.5,8h6.793
			l-2.146-2.147c-0.195-0.195-0.195-0.512,0-0.707s0.512-0.195,0.707,0l3,3C19.049,8.342,19.049,8.658,18.854,8.854z"/>
	</g>
	<g id="New_icons">
	</g>
</g>
<g id="Invisible_Shape">
	<rect fill="none" width="24" height="24"/>
</g>
</svg>
