<?xml version="1.0" encoding="utf-8"?>
<!-- Generator: Adobe Illustrator 19.2.1, SVG Export Plug-In . SVG Version: 6.00 Build 0)  -->
<svg version="1.1" xmlns="http://www.w3.org/2000/svg" xmlns:xlink="http://www.w3.org/1999/xlink" x="0px" y="0px" width="24px"
	 height="24px" viewBox="0 0 24 24" enable-background="new 0 0 24 24" xml:space="preserve">
<g id="Filled_Icons_1_">
	<g id="Filled_Icons">
		<g>
			<path d="M2,22h5v1H4.5C4.224,23,4,23.224,4,23.5C4,23.775,4.224,24,4.5,24h6c0.275,0,0.5-0.225,0.5-0.5
				c0-0.276-0.225-0.5-0.5-0.5H8v-1h5c1.102,0,2-0.897,2-2H0C0,21.103,0.896,22,2,22z"/>
			<path d="M23.5,3H23V1.5C23,1.224,22.775,1,22.5,1H16V0.5C16,0.224,15.775,0,15.5,0h-2C13.224,0,13,0.224,13,0.5v7
				C13,8.327,13.672,9,14.5,9H22c1.103,0,2-0.898,2-2V3.5C24,3.224,23.775,3,23.5,3z M22,3h-6.5C15.224,3,15,3.224,15,3.5v4
				C15,7.775,14.775,8,14.5,8C14.224,8,14,7.775,14,7.5V1h1v0.5C15,1.775,15.224,2,15.5,2H22V3z"/>
			<path d="M13,11H9.621C9.087,11.534,8.749,12,8,12s-1.087-0.466-1.621-1H2c-1.104,0-2,0.896-2,2v6h15v-6
				C15,11.896,14.102,11,13,11z"/>
			<path d="M11.5,3.5c-2.623,0-3.735,1.831-3.955,4.444C7.518,8.279,7.5,9.293,7.5,9.293L6.353,8.146
				c-0.195-0.195-0.512-0.195-0.707,0c-0.195,0.195-0.195,0.512,0,0.707l2,2c0.195,0.195,0.512,0.195,0.707,0l2-2
				c0.195-0.195,0.195-0.512,0-0.707c-0.195-0.195-0.512-0.195-0.707,0L8.43,9.363l0.106-1.352C8.683,5.946,9.405,4.5,11.5,4.5
				C11.775,4.5,12,4.275,12,4C12,3.724,11.775,3.5,11.5,3.5z"/>
		</g>
	</g>
	<g id="New_icons">
	</g>
</g>
<g id="Invisible_Shape">
	<rect fill="none" width="24" height="24"/>
</g>
</svg>
