<?xml version="1.0" encoding="utf-8"?>
<!-- Generator: Adobe Illustrator 19.2.1, SVG Export Plug-In . SVG Version: 6.00 Build 0)  -->
<svg version="1.1" xmlns="http://www.w3.org/2000/svg" xmlns:xlink="http://www.w3.org/1999/xlink" x="0px" y="0px" width="24px"
	 height="24px" viewBox="0 0 24 24" enable-background="new 0 0 24 24" xml:space="preserve">
<g id="Filled_Icons_1_">
	<g id="Filled_Icons">
		<g>
			<path d="M13,19.979C13,21.094,13.898,22,15,22h3v1h-1.5c-0.276,0-0.5,0.224-0.5,0.5s0.224,0.5,0.5,0.5h4
				c0.276,0,0.5-0.224,0.5-0.5S20.776,23,20.5,23H19v-1h3c1.103,0,2-0.906,2-2.021V19H13V19.979z"/>
			<path d="M22,12h-7c-1.102,0-2,0.896-2,2v4h11v-4C24,12.896,23.103,12,22,12z"/>
			<path d="M11.979,6.421L8.185,3.582l1.14-1.523c0.165-0.221,0.12-0.534-0.101-0.7c-0.22-0.164-0.533-0.121-0.7,0.102l-1.14,1.522
				L3.591,0.144c-0.22-0.164-0.533-0.121-0.7,0.101C1.23,2.464,1.399,5.473,3.183,7.477l-3.063,3.704
				C-0.148,11.504,0.081,12,0.505,12h6.691c0.424,0,0.653-0.496,0.386-0.818l-1.64-1.982c2.439,0.688,4.778-0.265,6.137-2.078
				C12.249,6.893,12.192,6.58,11.979,6.421z"/>
			<path d="M12,4h6v6c0,0.276,0.224,0.5,0.5,0.5S19,10.276,19,10V3.5C19,3.224,18.776,3,18.5,3H12c-0.276,0-0.5,0.224-0.5,0.5
				S11.724,4,12,4z"/>
			<path d="M10,20H4v-6c0-0.276-0.224-0.5-0.5-0.5S3,13.724,3,14v6.5C3,20.776,3.224,21,3.5,21H10c0.276,0,0.5-0.224,0.5-0.5
				S10.276,20,10,20z"/>
		</g>
	</g>
	<g id="New_icons">
	</g>
</g>
<g id="Invisible_Shape">
	<rect fill="none" width="24" height="24"/>
</g>
</svg>
