<?xml version="1.0" encoding="utf-8"?>
<!-- Generator: Adobe Illustrator 19.2.1, SVG Export Plug-In . SVG Version: 6.00 Build 0)  -->
<svg version="1.1" xmlns="http://www.w3.org/2000/svg" xmlns:xlink="http://www.w3.org/1999/xlink" x="0px" y="0px" width="24px"
	 height="24px" viewBox="0 0 24 24" enable-background="new 0 0 24 24" xml:space="preserve">
<g id="Filled_Icons_1_">
	<g id="Filled_Icons">
		<g>
			<path d="M9.793,12.793L2,20.586V17c0-0.553-0.448-1-1-1c-0.553,0-1,0.447-1,1v6c0,0.562,0.468,1,1,1h6c0.552,0,1-0.448,1-1
				c0-0.553-0.448-1-1-1H3.414l7.793-7.793c0.391-0.391,0.391-1.023,0-1.414C10.816,12.402,10.183,12.402,9.793,12.793z"/>
			<path d="M6.707,10.707L14,3.414V7c0,0.553,0.448,1,1,1c0.553,0,1-0.447,1-1V1c0-0.562-0.468-1-1-1H9C8.448,0,8,0.448,8,1
				c0,0.553,0.448,1,1,1h3.586L5.293,9.293c-0.391,0.391-0.391,1.023,0,1.414C5.684,11.098,6.317,11.098,6.707,10.707z"/>
		</g>
	</g>
	<g id="New_icons">
	</g>
</g>
<g id="Invisible_Shape">
	<rect fill="none" width="24" height="24"/>
</g>
</svg>
