<?xml version="1.0" encoding="utf-8"?>
<!-- Generator: Adobe Illustrator 19.2.1, SVG Export Plug-In . SVG Version: 6.00 Build 0)  -->
<svg version="1.1" xmlns="http://www.w3.org/2000/svg" xmlns:xlink="http://www.w3.org/1999/xlink" x="0px" y="0px" width="24px"
	 height="24px" viewBox="0 0 24 24" enable-background="new 0 0 24 24" xml:space="preserve">
<g id="Filled_Icons_1_">
	<g id="Filled_Icons">
		<path d="M23.5,0h-23C0.224,0,0,0.224,0,0.5v23C0,23.775,0.224,24,0.5,24h23c0.275,0,0.5-0.225,0.5-0.5v-23
			C24,0.224,23.775,0,23.5,0z M10,13.5c0,0.276-0.224,0.5-0.5,0.5S9,13.776,9,13.5V4.707L6.853,6.853
			c-0.195,0.195-0.512,0.195-0.707,0s-0.195-0.512,0-0.707l3-3c0.195-0.195,0.512-0.195,0.707,0l3,3
			c0.195,0.195,0.195,0.512,0,0.707s-0.512,0.195-0.707,0L10,4.707V13.5z M17.854,17.854l-3,3c-0.195,0.195-0.512,0.195-0.707,0
			l-3-3c-0.195-0.195-0.195-0.512,0-0.707c0.195-0.195,0.512-0.195,0.707,0L14,19.293V10.5c0-0.276,0.224-0.5,0.5-0.5
			s0.5,0.224,0.5,0.5v8.793l2.146-2.146c0.195-0.195,0.512-0.195,0.707,0C18.049,17.342,18.049,17.658,17.854,17.854z"/>
	</g>
	<g id="New_icons">
	</g>
</g>
<g id="Invisible_Shape">
	<rect fill="none" width="24" height="24"/>
</g>
</svg>
