<?xml version="1.0" encoding="utf-8"?>
<!-- Generator: Adobe Illustrator 19.2.1, SVG Export Plug-In . SVG Version: 6.00 Build 0)  -->
<svg version="1.1" xmlns="http://www.w3.org/2000/svg" xmlns:xlink="http://www.w3.org/1999/xlink" x="0px" y="0px" width="24px"
	 height="24px" viewBox="0 0 24 24" enable-background="new 0 0 24 24" xml:space="preserve">
<g id="Filled_Icons_1_">
	<g id="Filled_Icons">
		<g>
			<path d="M11.146,0.147l-3,3c-0.195,0.195-0.195,0.512,0,0.707c0.195,0.195,0.512,0.195,0.707,0L11,1.707V5.5
				C11,5.776,11.224,6,11.5,6S12,5.776,12,5.5V1.707l2.146,2.146c0.195,0.195,0.512,0.195,0.707,0c0.195-0.195,0.195-0.512,0-0.707
				l-3-3C11.658-0.049,11.342-0.049,11.146,0.147z"/>
			<path d="M11.854,23.854l3-3c0.195-0.195,0.195-0.512,0-0.707c-0.195-0.195-0.512-0.195-0.707,0L12,22.293V18.5
				c0-0.276-0.224-0.5-0.5-0.5S11,18.224,11,18.5v3.793l-2.146-2.146c-0.195-0.195-0.512-0.195-0.707,0
				c-0.195,0.195-0.195,0.512,0,0.707l3,3C11.342,24.049,11.658,24.049,11.854,23.854z"/>
			<g>
				<path d="M20.5,7h-18C2.224,7,2,7.224,2,7.5v9C2,16.776,2.224,17,2.5,17h18c0.276,0,0.5-0.224,0.5-0.5v-9
					C21,7.224,20.776,7,20.5,7z M7.75,10H6v1h1c0.276,0,0.5,0.224,0.5,0.5S7.276,12,7,12H6v2.5C6,14.776,5.776,15,5.5,15
					S5,14.776,5,14.5v-5C5,9.224,5.224,9,5.5,9h2.25c0.276,0,0.5,0.224,0.5,0.5S8.026,10,7.75,10z M12.75,10H12v4.5
					c0,0.276-0.224,0.5-0.5,0.5S11,14.776,11,14.5V10h-0.75c-0.276,0-0.5-0.224-0.5-0.5S9.974,9,10.25,9h2.5
					c0.276,0,0.5,0.224,0.5,0.5S13.026,10,12.75,10z M16.5,12.5H16v2c0,0.276-0.224,0.5-0.5,0.5S15,14.776,15,14.5v-5
					C15,9.224,15.224,9,15.5,9h1c0.932,0,2,0.199,2,1.75S17.432,12.5,16.5,12.5z"/>
				<path d="M16.5,10H16v1.5h0.5c0.918,0,1-0.194,1-0.75S17.418,10,16.5,10z"/>
			</g>
		</g>
	</g>
	<g id="New_icons">
	</g>
</g>
<g id="Invisible_Shape">
	<rect fill="none" width="24" height="24"/>
</g>
</svg>
