<?xml version="1.0" encoding="utf-8"?>
<!-- Generator: Adobe Illustrator 19.2.1, SVG Export Plug-In . SVG Version: 6.00 Build 0)  -->
<svg version="1.1" xmlns="http://www.w3.org/2000/svg" xmlns:xlink="http://www.w3.org/1999/xlink" x="0px" y="0px" width="24px"
	 height="24px" viewBox="0 0 24 24" enable-background="new 0 0 24 24" xml:space="preserve">
<g id="Filled_Icons_1_">
	<g id="Filled_Icons">
		<g>
			<path d="M11,5V0H3.5C3.296,0,3.111,0.125,3.036,0.315L1.162,5H11z"/>
			<path d="M22.839,5l-1.875-4.686C20.889,0.125,20.704,0,20.5,0H12v5H22.839z"/>
			<path d="M1,6v17.5C1,23.776,1.224,24,1.5,24h21c0.276,0,0.5-0.224,0.5-0.5V6H1z M18.488,15c-0.004,0.001-0.012,0-0.02,0H16v5.5
				c0,0.276-0.224,0.5-0.5,0.5h-7C8.224,21,8,20.776,8,20.5V15H5.5c-0.444,0-0.668-0.537-0.354-0.852l6.469-6.5
				c0.194-0.196,0.513-0.196,0.708-0.001l6.427,6.426C19.176,14.334,18.993,15,18.488,15z"/>
		</g>
	</g>
	<g id="New_icons">
	</g>
</g>
<g id="Invisible_Shape">
	<rect fill="none" width="24" height="24"/>
</g>
</svg>
