<?xml version="1.0" encoding="utf-8"?>
<!-- Generator: Adobe Illustrator 19.2.1, SVG Export Plug-In . SVG Version: 6.00 Build 0)  -->
<svg version="1.1" xmlns="http://www.w3.org/2000/svg" xmlns:xlink="http://www.w3.org/1999/xlink" x="0px" y="0px" width="24px"
	 height="24px" viewBox="0 0 24 24" enable-background="new 0 0 24 24" xml:space="preserve">
<g id="Filled_Icons_1_">
	<g id="Filled_Icons">
		<g>
			<path d="M5.793,10.706c0.391,0.391,1.024,0.391,1.414,0L11,6.913V19.5c0,0.552,0.448,1,1,1c0.553,0,1-0.448,1-1V6.913
				l3.793,3.793c0.391,0.391,1.024,0.391,1.414,0c0.391-0.391,0.391-1.024,0-1.414l-5.499-5.499c-0.37-0.378-1.017-0.399-1.415,0
				l-5.5,5.499C5.402,9.683,5.402,10.315,5.793,10.706z"/>
			<g>
				<path d="M23,0h-5c-0.553,0-1,0.448-1,1c0,0.553,0.447,1,1,1h4v20.001h-4c-0.553,0-1,0.447-1,1c0,0.552,0.447,1,1,1h5
					c0.552,0,1-0.448,1-1V1C24,0.448,23.552,0,23,0z"/>
				<path d="M7,22.001H2V2h5c0.552,0,1-0.447,1-1c0-0.552-0.448-1-1-1H1C0.447,0,0,0.448,0,1v22.001c0,0.552,0.447,1,1,1h6
					c0.552,0,1-0.448,1-1C8,22.448,7.552,22.001,7,22.001z"/>
			</g>
		</g>
	</g>
	<g id="New_icons">
	</g>
</g>
<g id="Invisible_Shape">
	<rect fill="none" width="24" height="24"/>
</g>
</svg>
