<?xml version="1.0" encoding="utf-8"?>
<!-- Generator: Adobe Illustrator 19.2.1, SVG Export Plug-In . SVG Version: 6.00 Build 0)  -->
<svg version="1.1" xmlns="http://www.w3.org/2000/svg" xmlns:xlink="http://www.w3.org/1999/xlink" x="0px" y="0px" width="24px"
	 height="24px" viewBox="0 0 24 24" enable-background="new 0 0 24 24" xml:space="preserve">
<g id="Filled_Icons_1_">
	<g id="Filled_Icons">
		<path d="M11.5,0C5.158,0,0,5.159,0,11.5C0,17.842,5.158,23,11.5,23C17.84,23,23,17.842,23,11.5C23,5.159,17.84,0,11.5,0z
			 M17.354,10.854c-0.195,0.195-0.512,0.195-0.707,0L12,6.207V18c0,0.276-0.224,0.5-0.5,0.5S11,18.276,11,18V6.207l-4.647,4.647
			c-0.195,0.195-0.512,0.195-0.707,0s-0.195-0.512,0-0.707l5.5-5.5c0.195-0.195,0.512-0.195,0.707,0l5.5,5.5
			C17.549,10.342,17.549,10.658,17.354,10.854z"/>
	</g>
	<g id="New_icons">
	</g>
</g>
<g id="Invisible_Shape">
	<rect fill="none" width="24" height="24"/>
</g>
</svg>
