<?xml version="1.0" encoding="utf-8"?>
<!-- Generator: Adobe Illustrator 19.2.1, SVG Export Plug-In . SVG Version: 6.00 Build 0)  -->
<svg version="1.1" xmlns="http://www.w3.org/2000/svg" xmlns:xlink="http://www.w3.org/1999/xlink" x="0px" y="0px" width="24px"
	 height="24px" viewBox="0 0 24 24" enable-background="new 0 0 24 24" xml:space="preserve">
<g id="Filled_Icons_1_">
	<g id="Filled_Icons">
		<g>
			<path d="M3.5,17H10v-5.84l-1.329,1.661c-1.237,1.546-3.583-0.324-2.342-1.874l4-5c0.584-0.75,1.763-0.744,2.342,0l4,5
				c1.241,1.55-1.106,3.421-2.342,1.874L13,11.16V17h6.5c0.276,0,0.5-0.224,0.5-0.5v-16C20,0.224,19.776,0,19.5,0h-16
				C3.224,0,3,0.224,3,0.5v16C3,16.776,3.224,17,3.5,17z"/>
			<path d="M15.891,11.572l-4-5c-0.189-0.236-0.592-0.236-0.781,0l-4,5c-0.172,0.216-0.138,0.53,0.078,0.703
				c0.216,0.171,0.531,0.138,0.703-0.078L11,8.311V23.5c0,0.276,0.224,0.5,0.5,0.5s0.5-0.224,0.5-0.5V8.311l3.109,3.887
				c0.172,0.216,0.487,0.249,0.703,0.078C16.028,12.102,16.062,11.788,15.891,11.572z"/>
		</g>
	</g>
	<g id="New_icons">
	</g>
</g>
<g id="Invisible_Shape">
	<rect fill="none" width="24" height="24"/>
</g>
</svg>
