<?xml version="1.0" encoding="utf-8"?>
<!-- Generator: Adobe Illustrator 19.2.1, SVG Export Plug-In . SVG Version: 6.00 Build 0)  -->
<svg version="1.1" xmlns="http://www.w3.org/2000/svg" xmlns:xlink="http://www.w3.org/1999/xlink" x="0px" y="0px" width="24px"
	 height="24px" viewBox="0 0 24 24" enable-background="new 0 0 24 24" xml:space="preserve">
<g id="Filled_Icons_1_">
	<g id="Filled_Icons">
		<path d="M23.5,0h-23C0.224,0,0,0.224,0,0.5v23C0,23.775,0.224,24,0.5,24h23c0.275,0,0.5-0.225,0.5-0.5v-23
			C24,0.224,23.775,0,23.5,0z M10,21.5c0,0.275-0.225,0.5-0.5,0.5C9.224,22,9,21.775,9,21.5v-2C9,19.224,9.224,19,9.5,19
			c0.275,0,0.5,0.224,0.5,0.5V21.5z M10,17.5c0,0.275-0.225,0.5-0.5,0.5C9.224,18,9,17.775,9,17.5v-2C9,15.224,9.224,15,9.5,15
			c0.275,0,0.5,0.224,0.5,0.5V17.5z M15,21.5c0,0.275-0.225,0.5-0.5,0.5c-0.276,0-0.5-0.225-0.5-0.5v-2c0-0.276,0.224-0.5,0.5-0.5
			c0.275,0,0.5,0.224,0.5,0.5V21.5z M15,17.5c0,0.275-0.225,0.5-0.5,0.5c-0.276,0-0.5-0.225-0.5-0.5v-2c0-0.276,0.224-0.5,0.5-0.5
			c0.275,0,0.5,0.224,0.5,0.5V17.5z M18,11h-3v2.5c0,0.275-0.225,0.5-0.5,0.5c-0.276,0-0.5-0.225-0.5-0.5v-3
			c0-0.276,0.224-0.5,0.5-0.5h2.293L12,5.207L7.207,10H9.5c0.275,0,0.5,0.224,0.5,0.5v3c0,0.275-0.225,0.5-0.5,0.5
			C9.224,14,9,13.775,9,13.5V11H6c-0.446,0-0.669-0.54-0.353-0.854l6-6c0.195-0.195,0.512-0.195,0.707,0l6,6
			C18.667,10.46,18.442,11,18,11z"/>
	</g>
	<g id="New_icons">
	</g>
</g>
<g id="Invisible_Shape">
	<rect fill="none" width="24" height="24"/>
</g>
</svg>
