<?xml version="1.0" encoding="utf-8"?>
<!-- Generator: Adobe Illustrator 19.2.1, SVG Export Plug-In . SVG Version: 6.00 Build 0)  -->
<svg version="1.1" xmlns="http://www.w3.org/2000/svg" xmlns:xlink="http://www.w3.org/1999/xlink" x="0px" y="0px" width="24px"
	 height="24px" viewBox="0 0 24 24" enable-background="new 0 0 24 24" xml:space="preserve">
<g id="Filled_Icons_1_">
	<g id="Filled_Icons">
		<g>
			<path d="M11.293,4.793l-5.5,5.499c-0.391,0.391-0.391,1.024,0,1.414c0.391,0.391,1.024,0.391,1.414,0L11,7.913V18.5
				c0,0.552,0.448,1,1,1c0.553,0,1-0.448,1-1V7.913l3.793,3.793c0.391,0.391,1.024,0.391,1.414,0c0.391-0.39,0.391-1.024,0-1.414
				l-5.499-5.499C12.338,4.415,11.691,4.394,11.293,4.793z"/>
			<path d="M5.544,1.999H6.5c0.553,0,1-0.447,1-1C7.5,0.447,7.053,0,6.5,0H5.544c-0.552,0-1,0.447-1,0.999
				C4.544,1.552,4.992,1.999,5.544,1.999z"/>
			<path d="M9.5,1.999h0.957c0.553,0,1-0.447,1-1c0-0.552-0.447-0.999-1-0.999H9.5c-0.552,0-1,0.447-1,0.999
				C8.5,1.552,8.948,1.999,9.5,1.999z"/>
			<path d="M13.5,1.999h0.957c0.553,0,1-0.447,1-1c0-0.552-0.447-0.999-1-0.999H13.5c-0.552,0-1,0.447-1,0.999
				C12.5,1.552,12.948,1.999,13.5,1.999z"/>
			<path d="M17.544,1.999H18.5c0.553,0,1-0.447,1-1C19.5,0.447,19.053,0,18.5,0h-0.956c-0.552,0-1,0.447-1,0.999
				C16.544,1.552,16.992,1.999,17.544,1.999z"/>
			<path d="M5.544,24H6.5c0.553,0,1-0.448,1-1c0-0.553-0.447-1-1-1H5.544c-0.552,0-1,0.447-1,1C4.544,23.552,4.992,24,5.544,24z"/>
			<path d="M10.457,22H9.5c-0.552,0-1,0.447-1,1c0,0.552,0.448,1,1,1h0.957c0.553,0,1-0.448,1-1C11.457,22.447,11.01,22,10.457,22z"
				/>
			<path d="M14.457,22H13.5c-0.552,0-1,0.447-1,1c0,0.552,0.448,1,1,1h0.957c0.553,0,1-0.448,1-1C15.457,22.447,15.01,22,14.457,22z
				"/>
			<path d="M18.5,22h-0.956c-0.552,0-1,0.447-1,1c0,0.552,0.448,1,1,1H18.5c0.553,0,1-0.448,1-1C19.5,22.447,19.053,22,18.5,22z"/>
			<path d="M23,4.543c-0.552,0-1,0.447-1,1v0.956c0,0.553,0.448,1,1,1c0.553,0,1-0.447,1-1V5.543C24,4.99,23.553,4.543,23,4.543z"/>
			<path d="M23,8.499c-0.552,0-1,0.448-1,1v0.957c0,0.552,0.448,1,1,1c0.553,0,1-0.448,1-1V9.499C24,8.947,23.553,8.499,23,8.499z"
				/>
			<path d="M23,12.5c-0.552,0-1,0.447-1,1v0.956c0,0.553,0.448,1,1,1c0.553,0,1-0.447,1-1V13.5C24,12.947,23.553,12.5,23,12.5z"/>
			<path d="M23,16.543c-0.552,0-1,0.448-1,1V18.5c0,0.552,0.448,1,1,1c0.553,0,1-0.448,1-1v-0.957
				C24,16.991,23.553,16.543,23,16.543z"/>
			<path d="M1,7.499c0.553,0,1-0.447,1-1V5.543c0-0.553-0.447-1-1-1c-0.552,0-1,0.447-1,1v0.956C0,7.052,0.448,7.499,1,7.499z"/>
			<path d="M1,11.456c0.553,0,1-0.448,1-1V9.499c0-0.552-0.447-1-1-1c-0.552,0-1,0.448-1,1v0.957C0,11.008,0.448,11.456,1,11.456z"
				/>
			<path d="M1,15.456c0.553,0,1-0.447,1-1V13.5c0-0.553-0.447-1-1-1c-0.552,0-1,0.447-1,1v0.956C0,15.009,0.448,15.456,1,15.456z"/>
			<path d="M1,19.5c0.553,0,1-0.448,1-1v-0.957c0-0.552-0.447-1-1-1c-0.552,0-1,0.448-1,1V18.5C0,19.052,0.448,19.5,1,19.5z"/>
			<g>
				<path d="M23,20.5c0.553,0,1,0.447,1,1V23c0,0.553-0.447,1-1,1h-1.5c-0.553,0-1-0.447-1-1s0.447-1,1-1H22v-0.5
					C22,20.947,22.447,20.5,23,20.5z"/>
			</g>
			<g>
				<path d="M1,20.5c-0.553,0-1,0.447-1,1V23c0,0.553,0.447,1,1,1h1.5c0.553,0,1-0.447,1-1s-0.447-1-1-1H2v-0.5
					C2,20.947,1.553,20.5,1,20.5z"/>
			</g>
			<g>
				<path d="M23,3.5c0.553,0,1-0.447,1-1V1c0-0.553-0.447-1-1-1h-1.5c-0.553,0-1,0.447-1,1s0.447,1,1,1H22v0.5
					C22,3.053,22.447,3.5,23,3.5z"/>
			</g>
			<g>
				<path d="M1,3.5c-0.553,0-1-0.447-1-1V1c0-0.553,0.447-1,1-1h1.5c0.553,0,1,0.447,1,1s-0.447,1-1,1H2v0.5
					C2,3.053,1.553,3.5,1,3.5z"/>
			</g>
		</g>
	</g>
	<g id="New_icons">
	</g>
</g>
<g id="Invisible_Shape">
	<rect fill="none" width="24" height="24"/>
</g>
</svg>
