<?xml version="1.0" encoding="utf-8"?>
<!-- Generator: Adobe Illustrator 19.2.1, SVG Export Plug-In . SVG Version: 6.00 Build 0)  -->
<svg version="1.1" xmlns="http://www.w3.org/2000/svg" xmlns:xlink="http://www.w3.org/1999/xlink" x="0px" y="0px" width="24px"
	 height="24px" viewBox="0 0 24 24" enable-background="new 0 0 24 24" xml:space="preserve">
<g id="Filled_Icons_1_">
	<g id="Filled_Icons">
		<g>
			<path d="M19.181,7.268l-7-7c-0.383-0.356-0.977-0.356-1.36,0l-7,7C3.158,7.883,3.59,9,4.501,9h3.5v1.5c0,0.553,0.446,1,0.999,1
				c0.552,0,1-0.447,1-1V8c0-0.552-0.448-1-1-1H7.048l4.453-4.635L15.954,7h-1.953c-0.553,0-1,0.448-1,1v2.5c0,0.553,0.447,1,1,1
				c0.552,0,1-0.447,0.999-1V9h3.501C19.41,9,19.844,7.884,19.181,7.268z"/>
			<path d="M9,12.5c-0.553,0-0.999,0.448-0.999,1v2c0,0.553,0.446,1,0.999,1c0.552,0,1-0.447,1-1v-2C10,12.948,9.552,12.5,9,12.5z"
				/>
			<path d="M14.001,12.5c-0.553,0-1,0.448-1,1v2c0,0.553,0.447,1,1,1c0.552,0,1-0.447,0.999-1v-2
				C15.001,12.948,14.553,12.5,14.001,12.5z"/>
			<path d="M9,17.5c-0.553,0-0.999,0.448-0.999,1v1c0,0.553,0.446,1,0.999,1c0.552,0,1-0.447,1-1v-1C10,17.948,9.552,17.5,9,17.5z"
				/>
			<path d="M14.001,17.5c-0.553,0-1,0.448-1,1v1c0,0.553,0.447,1,1,1c0.552,0,1-0.447,0.999-1v-1
				C15.001,17.948,14.553,17.5,14.001,17.5z"/>
			<path d="M9,21.5c-0.553,0-0.999,0.448-0.999,1V23c0,0.553,0.447,1,1,1C9.553,24,10,23.553,10,23v-0.5
				C10,21.948,9.552,21.5,9,21.5z"/>
			<path d="M14.001,21.5c-0.553,0-1,0.448-1,1V23c0,0.553,0.447,1,1,1C14.553,24,15,23.553,15,23v-0.5
				C15,21.948,14.553,21.5,14.001,21.5z"/>
		</g>
	</g>
	<g id="New_icons">
	</g>
</g>
<g id="Invisible_Shape">
	<rect fill="none" width="24" height="24"/>
</g>
</svg>
