<?xml version="1.0" encoding="utf-8"?>
<!-- Generator: Adobe Illustrator 19.2.1, SVG Export Plug-In . SVG Version: 6.00 Build 0)  -->
<svg version="1.1" xmlns="http://www.w3.org/2000/svg" xmlns:xlink="http://www.w3.org/1999/xlink" x="0px" y="0px" width="24px"
	 height="24px" viewBox="0 0 24 24" enable-background="new 0 0 24 24" xml:space="preserve">
<g id="Filled_Icons_1_">
	<g id="Filled_Icons">
		<g>
			<path d="M21.5,15h-19C1.121,15,0,16.122,0,17.5v4C0,22.879,1.121,24,2.5,24h19c1.378,0,2.5-1.121,2.5-2.5v-4
				C24,16.122,22.878,15,21.5,15z M18.5,18c0.275,0,0.5,0.224,0.5,0.5c0,0.277-0.225,0.5-0.5,0.5c-0.278,0-0.5-0.223-0.5-0.5
				C18,18.224,18.222,18,18.5,18z M20.5,21h-17C3.224,21,3,20.776,3,20.5C3,20.225,3.224,20,3.5,20h17c0.275,0,0.5,0.225,0.5,0.5
				C21,20.776,20.775,21,20.5,21z M20.5,19c-0.278,0-0.5-0.223-0.5-0.5c0-0.276,0.222-0.5,0.5-0.5c0.275,0,0.5,0.224,0.5,0.5
				C21,18.777,20.775,19,20.5,19z"/>
			<path d="M17.354,5.647l-5.5-5.5c-0.195-0.195-0.512-0.195-0.707,0l-5.5,5.5c-0.195,0.195-0.195,0.512,0,0.707
				s0.512,0.195,0.707,0L11,1.707V12.5c0,0.276,0.224,0.5,0.5,0.5s0.5-0.224,0.5-0.5V1.707l4.646,4.646
				c0.195,0.195,0.512,0.195,0.707,0C17.549,6.158,17.549,5.842,17.354,5.647z"/>
		</g>
	</g>
	<g id="New_icons">
	</g>
</g>
<g id="Invisible_Shape">
	<rect fill="none" width="24" height="24"/>
</g>
</svg>
