<?xml version="1.0" encoding="utf-8"?>
<!-- Generator: Adobe Illustrator 19.2.1, SVG Export Plug-In . SVG Version: 6.00 Build 0)  -->
<svg version="1.1" xmlns="http://www.w3.org/2000/svg" xmlns:xlink="http://www.w3.org/1999/xlink" x="0px" y="0px" width="24px"
	 height="24px" viewBox="0 0 24 24" enable-background="new 0 0 24 24" xml:space="preserve">
<g id="Filled_Icons_1_">
	<g id="Filled_Icons">
		<path d="M18,5h-3c-0.553,0-1,0.448-1,1v3c0,0.553,0.447,1,1,1h0.5v0.912L13,12.301V3.414l0.793,0.793
			c0.391,0.391,1.023,0.391,1.414,0c0.391-0.391,0.391-1.023,0-1.414l-2.5-2.5c-0.391-0.391-1.023-0.391-1.414,0l-2.5,2.5
			c-0.391,0.391-0.391,1.023,0,1.414c0.391,0.391,1.023,0.391,1.414,0L11,3.414v10.887l-2.5-1.389v-1.624
			C9.381,10.901,10,10.023,10,9c0-1.379-1.122-2.5-2.5-2.5C6.121,6.5,5,7.621,5,9c0,1.023,0.618,1.901,1.5,2.288V13.5
			c0,0.363,0.196,0.698,0.514,0.875L11,16.589v0.559c-1.444,0.432-2.5,1.771-2.5,3.353c0,1.93,1.57,3.5,3.5,3.5s3.5-1.57,3.5-3.5
			c0-1.582-1.057-2.921-2.5-3.353v-2.559l3.985-2.214c0.317-0.177,0.515-0.512,0.515-0.875V10H18c0.552,0,1-0.447,1-1V6
			C19,5.448,18.552,5,18,5z M7.5,9.5C7.224,9.5,7,9.275,7,9s0.224-0.5,0.5-0.5C7.775,8.5,8,8.725,8,9S7.775,9.5,7.5,9.5z M13.5,20.5
			c0,0.827-0.673,1.5-1.5,1.5s-1.5-0.673-1.5-1.5S11.173,19,12,19S13.5,19.673,13.5,20.5z M17,8h-1V7h1V8z"/>
	</g>
	<g id="New_icons">
	</g>
</g>
<g id="Invisible_Shape">
	<rect fill="none" width="24" height="24"/>
</g>
</svg>
