<?xml version="1.0" encoding="utf-8"?>
<!-- Generator: Adobe Illustrator 19.2.1, SVG Export Plug-In . SVG Version: 6.00 Build 0)  -->
<svg version="1.1" xmlns="http://www.w3.org/2000/svg" xmlns:xlink="http://www.w3.org/1999/xlink" x="0px" y="0px" width="24px"
	 height="24px" viewBox="0 0 24 24" enable-background="new 0 0 24 24" xml:space="preserve">
<g id="Filled_Icons_1_">
	<g id="Filled_Icons">
	</g>
	<g id="New_icons">
		<g>
			<circle cx="12" cy="7.999" r="1.5"/>
			<g>
				<path d="M14.475,6.524c-1.322-1.322-3.627-1.323-4.949,0c-0.195,0.195-0.512,0.195-0.707,0c-0.195-0.195-0.195-0.512,0-0.707
					c0.85-0.85,1.98-1.317,3.183-1.317c1.202,0,2.331,0.468,3.181,1.317c0.195,0.195,0.195,0.512,0,0.707
					C14.986,6.72,14.67,6.72,14.475,6.524z"/>
			</g>
			<g>
				<path d="M16.242,4.757c-1.133-1.133-2.64-1.758-4.241-1.758c-0.001,0-0.001,0-0.001,0c-1.604,0-3.109,0.624-4.242,1.758
					c-0.195,0.195-0.512,0.195-0.707,0c-0.195-0.195-0.195-0.512,0-0.707C8.373,2.727,10.13,1.999,12,1.999c0,0,0,0,0.001,0
					C13.87,2,15.628,2.727,16.949,4.05c0.195,0.195,0.195,0.512,0,0.707C16.754,4.952,16.438,4.952,16.242,4.757z"/>
			</g>
			<g>
				<path d="M17.656,3.343C16.146,1.832,14.137,1,12,1S7.854,1.832,6.344,3.343c-0.195,0.195-0.512,0.195-0.707,0
					c-0.195-0.195-0.195-0.512,0-0.707C7.336,0.936,9.596,0,12,0s4.664,0.936,6.363,2.636c0.195,0.195,0.195,0.512,0,0.707
					C18.168,3.538,17.852,3.538,17.656,3.343z"/>
			</g>
			<g>
				<path d="M1,17.999v1.912c0,1.151,0.896,2.088,2,2.088h8.5v1H6c-0.276,0-0.5,0.224-0.5,0.5c0,0.276,0.224,0.5,0.5,0.5h12
					c0.276,0,0.5-0.224,0.5-0.5c0-0.276-0.224-0.5-0.5-0.5h-5.5v-1H21c1.103,0,2-0.937,2-2.088v-1.912H1z M12,20.999
					c-0.551,0-1-0.448-1-1c0-0.552,0.449-1,1-1c0.552,0,1,0.448,1,1C13,20.551,12.552,20.999,12,20.999z"/>
				<path d="M23,16.999v-10c0-1.121-0.878-2-2-2h-2.81l-4.423,4.768c-0.977,0.977-2.557,0.977-3.533,0L5.811,4.999H3
					c-1.121,0-2,0.879-2,2v10H23z"/>
			</g>
		</g>
	</g>
</g>
<g id="Invisible_Shape">
	<rect fill="none" width="24" height="24"/>
</g>
</svg>
