<?xml version="1.0" encoding="utf-8"?>
<!-- Generator: Adobe Illustrator 19.2.1, SVG Export Plug-In . SVG Version: 6.00 Build 0)  -->
<svg version="1.1" xmlns="http://www.w3.org/2000/svg" xmlns:xlink="http://www.w3.org/1999/xlink" x="0px" y="0px" width="24px"
	 height="24px" viewBox="0 0 24 24" enable-background="new 0 0 24 24" xml:space="preserve">
<g id="Filled_Icons_1_">
	<g id="Filled_Icons">
		<g>
			<path d="M0,17.5v2c0,1.207,0.86,2.218,2,2.449V22.5C2,22.776,2.224,23,2.5,23S3,22.776,3,22.5V22h7v-7H2.5
				C1.121,15,0,16.122,0,17.5z M9,18.5C9,18.776,8.776,19,8.5,19h-6C2.224,19,2,18.776,2,18.5S2.224,18,2.5,18h6
				C8.776,18,9,18.224,9,18.5z"/>
			<path d="M21.5,15H19V6.5C19,6.224,18.776,6,18.5,6S18,6.224,18,6.5V15h-7v7h10v0.5c0,0.276,0.224,0.5,0.5,0.5s0.5-0.224,0.5-0.5
				v-0.551c1.14-0.231,2-1.242,2-2.449v-2C24,16.122,22.878,15,21.5,15z M14,19.5c-0.552,0-1-0.448-1-1s0.448-1,1-1
				c0.551,0,1,0.448,1,1S14.551,19.5,14,19.5z M17,19.5c-0.552,0-1-0.448-1-1s0.448-1,1-1c0.551,0,1,0.448,1,1S17.551,19.5,17,19.5z
				 M20,19.5c-0.552,0-1-0.448-1-1s0.448-1,1-1c0.551,0,1,0.448,1,1S20.551,19.5,20,19.5z"/>
			<path d="M16,6.5C16,6.776,16.224,7,16.5,7S17,6.776,17,6.5C17,5.673,17.673,5,18.5,5S20,5.673,20,6.5C20,6.776,20.224,7,20.5,7
				S21,6.776,21,6.5C21,5.122,19.878,4,18.5,4C17.121,4,16,5.122,16,6.5z"/>
			<path d="M13.5,7C13.776,7,14,6.776,14,6.5C14,4.019,16.019,2,18.5,2S23,4.019,23,6.5C23,6.776,23.224,7,23.5,7S24,6.776,24,6.5
				C24,3.468,21.532,1,18.5,1C15.467,1,13,3.468,13,6.5C13,6.776,13.224,7,13.5,7z"/>
		</g>
	</g>
	<g id="New_icons">
	</g>
</g>
<g id="Invisible_Shape">
	<rect fill="none" width="24" height="24"/>
</g>
</svg>
