<?xml version="1.0" encoding="utf-8"?>
<!-- Generator: Adobe Illustrator 19.2.1, SVG Export Plug-In . SVG Version: 6.00 Build 0)  -->
<svg version="1.1" xmlns="http://www.w3.org/2000/svg" xmlns:xlink="http://www.w3.org/1999/xlink" x="0px" y="0px" width="24px"
	 height="24px" viewBox="0 0 24 24" enable-background="new 0 0 24 24" xml:space="preserve">
<g id="Filled_Icons_1_">
	<g id="Filled_Icons">
	</g>
	<g id="New_icons">
		<g>
			<path d="M24,17V5.088C24,3.937,23.103,3,22,3H2C0.896,3,0,3.937,0,5.088V17H24z M12,15.5c-0.827,0-1.5-0.673-1.5-1.5
				s0.673-1.5,1.5-1.5s1.5,0.673,1.5,1.5S12.827,15.5,12,15.5z M15.182,12.525c-0.195,0.195-0.512,0.195-0.707,0
				c-1.321-1.322-3.627-1.323-4.949,0c-0.195,0.195-0.512,0.195-0.707,0c-0.195-0.195-0.195-0.512,0-0.707
				c0.85-0.85,1.98-1.317,3.182-1.317c1.203,0,2.332,0.468,3.182,1.317C15.377,12.014,15.377,12.33,15.182,12.525z M16.949,10.758
				c-0.195,0.195-0.512,0.195-0.707,0C15.109,9.625,13.602,9,12,9l0,0c-1.604,0-3.109,0.624-4.242,1.758
				c-0.195,0.195-0.512,0.195-0.707,0c-0.195-0.195-0.195-0.512,0-0.707C8.373,8.729,10.13,8,12,8l0,0
				c1.87,0.001,3.628,0.729,4.949,2.051C17.145,10.246,17.145,10.562,16.949,10.758z M5.637,8.637C7.336,6.937,9.596,6.001,12,6.001
				s4.664,0.936,6.363,2.636c0.195,0.195,0.195,0.512,0,0.707c-0.195,0.195-0.512,0.195-0.707,0C16.146,7.833,14.137,7.001,12,7.001
				S7.854,7.833,6.344,9.344c-0.195,0.195-0.512,0.195-0.707,0C5.441,9.148,5.441,8.832,5.637,8.637z"/>
			<path d="M0,18v1.912C0,21.063,0.896,22,2,22h9.5v1H5c-0.276,0-0.5,0.224-0.5,0.5S4.724,24,5,24h14c0.276,0,0.5-0.224,0.5-0.5
				S19.276,23,19,23h-6.5v-1H22c1.103,0,2-0.937,2-2.088V18H0z M12,21c-0.551,0-1-0.448-1-1s0.449-1,1-1c0.552,0,1,0.448,1,1
				S12.552,21,12,21z"/>
		</g>
	</g>
</g>
<g id="Invisible_Shape">
	<rect fill="none" width="24" height="24"/>
</g>
</svg>
