<?xml version="1.0" encoding="utf-8"?>
<!-- Generator: Adobe Illustrator 19.2.1, SVG Export Plug-In . SVG Version: 6.00 Build 0)  -->
<svg version="1.1" xmlns="http://www.w3.org/2000/svg" xmlns:xlink="http://www.w3.org/1999/xlink" x="0px" y="0px" width="24px"
	 height="24px" viewBox="0 0 24 24" enable-background="new 0 0 24 24" xml:space="preserve">
<g id="Filled_Icons_1_">
	<g id="Filled_Icons">
	</g>
	<g id="New_icons">
		<g>
			<g>
				<path d="M22.938,4.83c-2.637-1.758-6.238-1.758-8.875,0c-0.229,0.151-0.54,0.091-0.693-0.139
					c-0.153-0.23-0.091-0.54,0.139-0.693c2.967-1.978,7.018-1.978,9.984,0c0.229,0.153,0.292,0.463,0.139,0.693
					C23.476,4.922,23.165,4.981,22.938,4.83z"/>
			</g>
			<g>
				<path d="M21.828,6.494c-1.975-1.318-4.682-1.318-6.656,0c-0.228,0.151-0.54,0.091-0.693-0.138
					c-0.153-0.231-0.092-0.54,0.139-0.694c2.303-1.538,5.463-1.538,7.766,0c0.231,0.154,0.292,0.463,0.139,0.694
					C22.367,6.586,22.057,6.646,21.828,6.494z"/>
			</g>
			<g>
				<path d="M15.588,8.019c-0.153-0.23-0.091-0.541,0.139-0.694c1.646-1.099,3.898-1.099,5.547,0
					c0.229,0.153,0.292,0.463,0.139,0.693c-0.154,0.231-0.465,0.291-0.693,0.139c-1.316-0.878-3.119-0.879-4.438,0
					C16.053,8.31,15.743,8.25,15.588,8.019z"/>
			</g>
			<g>
				<path d="M9.938,4.83c-2.637-1.758-6.238-1.758-8.875,0C0.833,4.981,0.523,4.921,0.369,4.691c-0.153-0.23-0.091-0.54,0.139-0.693
					c2.967-1.978,7.018-1.978,9.984,0c0.229,0.153,0.292,0.463,0.139,0.693C10.476,4.922,10.165,4.981,9.938,4.83z"/>
			</g>
			<g>
				<path d="M8.828,6.494c-1.975-1.318-4.682-1.318-6.656,0c-0.229,0.151-0.54,0.091-0.693-0.138
					c-0.153-0.231-0.092-0.54,0.139-0.694c2.303-1.538,5.463-1.538,7.766,0c0.231,0.154,0.292,0.463,0.139,0.694
					C9.367,6.586,9.057,6.646,8.828,6.494z"/>
			</g>
			<g>
				<path d="M2.588,8.019C2.435,7.79,2.497,7.478,2.727,7.326c1.646-1.099,3.898-1.099,5.547,0c0.229,0.153,0.292,0.463,0.139,0.693
					C8.258,8.25,7.947,8.31,7.719,8.158c-1.316-0.878-3.119-0.879-4.438,0C3.053,8.31,2.743,8.25,2.588,8.019z"/>
			</g>
			<path d="M21.5,14.985H19v-5c0-0.276-0.224-0.5-0.5-0.5S18,9.709,18,9.985v5H6v-5c0-0.276-0.224-0.5-0.5-0.5S5,9.709,5,9.985v5
				H2.5c-1.379,0-2.5,1.122-2.5,2.5v2c0,1.379,1.121,2.5,2.5,2.5H3v1c0,0.276,0.224,0.5,0.5,0.5s0.5-0.224,0.5-0.5v-1h16v1
				c0,0.276,0.224,0.5,0.5,0.5s0.5-0.224,0.5-0.5v-1h0.5c1.379,0,2.5-1.121,2.5-2.5v-2C24,16.107,22.879,14.985,21.5,14.985z
				 M4,19.485c0,0.276-0.224,0.5-0.5,0.5S3,19.762,3,19.485v-2c0-0.276,0.224-0.5,0.5-0.5s0.5,0.224,0.5,0.5V19.485z M7,19.485
				c0,0.276-0.224,0.5-0.5,0.5S6,19.762,6,19.485v-2c0-0.276,0.224-0.5,0.5-0.5s0.5,0.224,0.5,0.5V19.485z M10,19.485
				c0,0.276-0.224,0.5-0.5,0.5S9,19.762,9,19.485v-2c0-0.276,0.224-0.5,0.5-0.5s0.5,0.224,0.5,0.5V19.485z M21,19.485
				c0,0.276-0.224,0.5-0.5,0.5H13c-0.276,0-0.5-0.224-0.5-0.5v-2c0-0.276,0.224-0.5,0.5-0.5h7.5c0.276,0,0.5,0.224,0.5,0.5V19.485z"
				/>
		</g>
	</g>
</g>
<g id="Invisible_Shape">
	<rect fill="none" width="24" height="24"/>
</g>
</svg>
