<?xml version="1.0" encoding="utf-8"?>
<!-- Generator: Adobe Illustrator 19.2.1, SVG Export Plug-In . SVG Version: 6.00 Build 0)  -->
<svg version="1.1" xmlns="http://www.w3.org/2000/svg" xmlns:xlink="http://www.w3.org/1999/xlink" x="0px" y="0px" width="24px"
	 height="24px" viewBox="0 0 24 24" enable-background="new 0 0 24 24" xml:space="preserve">
<g id="Filled_Icons_1_">
	<g id="Filled_Icons">
		<g>
			<path d="M18.996,11.999c0-1.683-0.598-3.228-1.591-4.437c-0.045,0.073-0.103,0.136-0.132,0.222
				c0.006,0.001-0.323,1.733-1.662,2.402c-0.108,0.054-0.23,0.066-0.345,0.038c-0.716-0.18-1.181-0.113-1.183-0.113
				c-0.005,0.08,0.274,0.869,0.303,0.954c0.081-0.024,0.175-0.06,0.214-0.079c0.25-0.119,0.545-0.02,0.668,0.222
				c0.495,0.976,0.589,1.833,0.28,2.551c-0.326,0.755-1.006,1.099-1.297,1.216c-1.358,1.387-1.069,2.047-2.82,2.047
				c-0.726,0-1.349-1.55-1.349-1.913c0-3.533-2.825-0.759-2.825-3.674c0-0.098,0.02-2.393,1.814-2.751
				c0.684-0.137,1.563-0.189,1.912,0.419c0.282-0.009,0.554-0.165,0.624-0.369c0.081-0.237-0.127-0.571-0.569-0.916
				c-0.224-0.174-0.326-0.423-0.282-0.685c0.099-0.577,1.102-1.191,2.981-1.824c0.016-0.009,0.047-0.031,0.081-0.06
				c-0.582-0.157-1.191-0.249-1.822-0.249c-3.859,0-7,3.141-7,7s3.141,7,7,7S18.996,15.858,18.996,11.999z"/>
			<path d="M6.611,17.509c-0.029-0.274-0.279-0.479-0.55-0.444c-0.274,0.029-0.474,0.275-0.444,0.55l0.24,2.262
				c-2.428-1.888-3.855-4.756-3.855-7.877c0-6.333,5.854-11.119,12.112-9.775c0.274,0.062,0.535-0.115,0.594-0.384
				c0.058-0.27-0.114-0.536-0.385-0.595C7.418-0.23,1.002,5.054,1.002,11.999c0,3.088,1.28,5.943,3.477,8.001L2.11,19.505
				c-0.275-0.057-0.535,0.117-0.592,0.387c-0.057,0.271,0.117,0.535,0.387,0.592l4.465,0.933c0.282,0.061,0.594-0.153,0.594-0.494
				C6.963,20.905,6.611,17.509,6.611,17.509z"/>
			<path d="M17.391,6.489c0.029,0.274,0.279,0.479,0.55,0.444c0.274-0.029,0.474-0.275,0.444-0.55l-0.24-2.262
				C20.572,6.01,22,8.878,22,11.999c0,6.333-5.854,11.119-12.112,9.775c-0.274-0.062-0.535,0.115-0.594,0.384
				c-0.058,0.271,0.114,0.536,0.385,0.595C16.584,24.229,23,18.944,23,11.999c0-3.088-1.28-5.943-3.478-8.001l2.369,0.495
				c0.274,0.057,0.535-0.117,0.592-0.387c0.057-0.27-0.117-0.535-0.387-0.592l-4.465-0.933c-0.282-0.06-0.594,0.153-0.594,0.494
				C17.039,3.093,17.391,6.489,17.391,6.489z"/>
		</g>
	</g>
	<g id="New_icons">
	</g>
</g>
<g id="Invisible_Shape">
	<rect fill="none" width="24" height="24"/>
</g>
</svg>
