<?xml version="1.0" encoding="utf-8"?>
<!-- Generator: Adobe Illustrator 19.2.0, SVG Export Plug-In . SVG Version: 6.00 Build 0)  -->
<svg version="1.1" xmlns="http://www.w3.org/2000/svg" xmlns:xlink="http://www.w3.org/1999/xlink" x="0px" y="0px" width="24px"
	 height="24px" viewBox="0 0 24 24" enable-background="new 0 0 24 24" xml:space="preserve">
<g id="Filled_Icons">
	<path d="M19.883,13.576c-0.375-0.156-0.804-0.07-1.09,0.217l-2,2c-0.391,0.391-0.391,1.023,0,1.415
		c0.303,0.302,0.751,0.37,1.118,0.203c-1.014,2.399-3.243,4.162-5.911,4.518V10h3.5c0.552,0,1-0.448,1-1c0-0.552-0.448-1-1-1H12
		V4.788c0.881-0.386,1.5-1.266,1.5-2.288C13.5,1.121,12.378,0,11,0C9.621,0,8.5,1.121,8.5,2.5c0,1.022,0.618,1.902,1.5,2.288V8H6.5
		c-0.553,0-1,0.448-1,1c0,0.552,0.447,1,1,1H10v11.929c-2.668-0.356-4.898-2.119-5.912-4.518c0.368,0.167,0.816,0.099,1.119-0.203
		c0.391-0.392,0.391-1.024,0-1.415l-2-2c-0.286-0.287-0.716-0.373-1.09-0.217C1.743,13.731,1.5,14.095,1.5,14.5
		c0,5.239,4.262,9.5,9.5,9.5s9.5-4.261,9.5-9.5C20.5,14.095,20.256,13.731,19.883,13.576z"/>
</g>
<g id="invisible_shape">
	<rect fill="none" width="24" height="24"/>
</g>
</svg>
