<?xml version="1.0" encoding="utf-8"?>
<!-- Generator: Adobe Illustrator 19.2.0, SVG Export Plug-In . SVG Version: 6.00 Build 0)  -->
<svg version="1.1" xmlns="http://www.w3.org/2000/svg" xmlns:xlink="http://www.w3.org/1999/xlink" x="0px" y="0px" width="24px"
	 height="24px" viewBox="0 0 24 24" enable-background="new 0 0 24 24" xml:space="preserve">
<g id="Filled_Icons">
	<g>
		<path d="M1.969,20.5L1.969,20.5c0,0.276,0.224,0.5,0.5,0.5h19c0.276,0,0.5-0.224,0.5-0.5l0,0c0-0.276-0.224-0.5-0.5-0.5h-19
			C2.192,20,1.969,20.224,1.969,20.5z"/>
		<path d="M5.5,19C5.776,19,6,18.776,6,18.5l-0.031-8.007c0-0.276-0.224-0.5-0.5-0.493h-2C3.192,9.993,2.969,10.217,3,10.493
			L3.031,18.5C3,18.776,3.224,19,3.5,19H5.5z"/>
		<path d="M10.5,19c0.276,0,0.5-0.224,0.5-0.5l-0.031-8.007c0-0.276-0.224-0.5-0.5-0.493h-2C8.192,9.993,7.969,10.217,8,10.493
			L8.031,18.5C8,18.776,8.224,19,8.5,19H10.5z"/>
		<path d="M15.5,19c0.276,0,0.5-0.224,0.5-0.5l-0.031-8.007c0-0.276-0.224-0.5-0.5-0.493h-2c-0.276-0.007-0.5,0.217-0.469,0.493
			l0.031,8.007C13,18.776,13.224,19,13.5,19H15.5z"/>
		<path d="M20.5,19c0.276,0,0.5-0.224,0.5-0.5l-0.031-8.007c0-0.276-0.224-0.5-0.5-0.493h-2c-0.276-0.007-0.5,0.217-0.469,0.493
			l0.031,8.007C18,18.776,18.224,19,18.5,19H20.5z"/>
		<path d="M3,6h18c0.276,0,0.5-0.224,0.5-0.5C21.5,2.262,17.593,0,12,0C6.406,0,2.5,2.262,2.5,5.5C2.5,5.776,2.724,6,3,6z M10.5,2
			C10.776,2,11,2.223,11,2.5C11,2.776,10.776,3,10.5,3c-1.234,0-3,0.588-3,1c0,0.276-0.224,0.5-0.5,0.5S6.5,4.276,6.5,4
			C6.5,2.492,9.475,2,10.5,2z"/>
		<path d="M1.5,9h21C22.776,9.007,23,8.783,23,8.507L22.969,7.5c0-0.276-0.224-0.5-0.5-0.5h-21c-0.276,0-0.5,0.224-0.5,0.5L1,8.507
			C1,8.783,1.224,9.007,1.5,9z"/>
		<path d="M23.5,22h-23C0.224,22,0,22.223,0,22.5v1C0,23.776,0.224,24,0.5,24h23c0.276,0,0.5-0.224,0.5-0.5v-1
			C24,22.223,23.776,22,23.5,22z"/>
	</g>
</g>
<g id="invisible_shape">
	<rect fill="none" width="24" height="24"/>
</g>
</svg>
