<?xml version="1.0" encoding="utf-8"?>
<!-- Generator: Adobe Illustrator 19.2.0, SVG Export Plug-In . SVG Version: 6.00 Build 0)  -->
<svg version="1.1" xmlns="http://www.w3.org/2000/svg" xmlns:xlink="http://www.w3.org/1999/xlink" x="0px" y="0px" width="24px"
	 height="24px" viewBox="0 0 24 24" enable-background="new 0 0 24 24" xml:space="preserve">
<g id="Filled_Icons">
	<g>
		<path d="M24,12.25v-1.5c-2.363,0-4.345-1.58-5-3.733V3h-2v4.017c-0.655,2.153-2.637,3.733-5,3.733S7.655,9.17,7,7.017V3H5v4.017
			C4.345,9.17,2.363,10.75,0,10.75v1.5c1.983,0,3.764-0.865,5-2.231V15H0v2h5v3H4l-1,4h6l-1-4H7v-3h10v3h-1l-1,4h6l-1-4h-1v-3h5v-2
			h-5v-4.981C20.236,11.385,22.017,12.25,24,12.25z M7,15v-4.981c1.236,1.366,3.017,2.231,5,2.231s3.764-0.865,5-2.231V15H7z"/>
	</g>
</g>
<g id="invisible_shape">
	<rect fill="none" width="24" height="24"/>
</g>
</svg>
