<?xml version="1.0" encoding="utf-8"?>
<!-- Generator: Adobe Illustrator 19.2.0, SVG Export Plug-In . SVG Version: 6.00 Build 0)  -->
<svg version="1.1" xmlns="http://www.w3.org/2000/svg" xmlns:xlink="http://www.w3.org/1999/xlink" x="0px" y="0px" width="24px"
	 height="24px" viewBox="0 0 24 24" enable-background="new 0 0 24 24" xml:space="preserve">
<g id="Filled_Icons">
	<g>
		<path d="M1.18,24c-0.255,0-0.515-0.025-0.782-0.082c-0.27-0.058-0.442-0.323-0.385-0.593c0.058-0.271,0.331-0.441,0.594-0.385
			c2.103,0.448,3.94-1.819,3.958-1.841c0.204-0.254,0.647-0.229,0.82,0.045c0.012,0.018,1.173,1.821,3.191,1.821
			c2.105,0,3.145-1.733,3.188-1.807c0.178-0.301,0.675-0.309,0.86-0.015c0.011,0.018,1.174,1.821,3.191,1.821
			c2.105,0,3.145-1.733,3.189-1.807c0.177-0.3,0.675-0.309,0.86-0.014c0.058,0.09,1.4,2.2,3.534,1.754
			c0.267-0.051,0.534,0.117,0.591,0.388c0.057,0.271-0.117,0.535-0.388,0.592c-2.026,0.42-3.481-0.853-4.157-1.639
			c-0.586,0.684-1.781,1.725-3.629,1.725c-1.785,0-3.005-1.051-3.607-1.73c-0.584,0.684-1.779,1.73-3.632,1.73
			c-1.829,0-3.063-1.102-3.649-1.778C4.262,22.855,2.876,24,1.18,24z"/>
		<path d="M22.5,3c0.171,0,0.339,0.018,0.5,0.05V0H0v3.05C0.161,3.018,0.329,3,0.5,3C1.881,3,3,4.12,3,5.5V9H0v3.76
			c1.205,0.807,2,2.18,2,3.74V19H1c-0.276,0-0.5,0.224-0.5,0.5S0.724,20,1,20h7c0.276,0,0.5-0.224,0.5-0.5S8.276,19,8,19H7v-2.5
			c0-2.485,2.015-4.5,4.5-4.5s4.5,2.015,4.5,4.5V19h-1c-0.276,0-0.5,0.224-0.5,0.5S14.724,20,15,20h7c0.276,0,0.5-0.224,0.5-0.5
			S22.276,19,22,19h-1v-2.5c0-1.56,0.795-2.933,2-3.74V9h-3V5.5C20,4.12,21.119,3,22.5,3z M14,9H9V5.5C9,4.12,10.119,3,11.5,3
			S14,4.12,14,5.5V9z"/>
	</g>
</g>
<g id="invisible_shape">
	<rect fill="none" width="24" height="24"/>
</g>
</svg>
