<?xml version="1.0" encoding="utf-8"?>
<!-- Generator: Adobe Illustrator 19.2.0, SVG Export Plug-In . SVG Version: 6.00 Build 0)  -->
<svg version="1.1" xmlns="http://www.w3.org/2000/svg" xmlns:xlink="http://www.w3.org/1999/xlink" x="0px" y="0px" width="24px"
	 height="24px" viewBox="0 0 24 24" enable-background="new 0 0 24 24" xml:space="preserve">
<g id="Filled_Icons">
	<g>
		<path d="M21.975,18c0-0.081,0.016-0.162-0.005-0.243l-2-8C19.858,9.313,19.459,9,19,9H5C4.541,9,4.142,9.313,4.03,9.757l-2,8
			C2.01,17.838,2.025,17.919,2.025,18H2v6h4v-5h12v5h4v-6H21.975z M12,11.677L14.661,17H9.339L12,11.677z M8.099,16.126L6.176,11
			h4.485L8.099,16.126z M13.339,11h4.485l-1.923,5.126L13.339,11z M18.701,12.932L19.719,17h-2.543L18.701,12.932z M5.299,12.932
			L6.824,17H4.281L5.299,12.932z"/>
	</g>
</g>
<g id="invisible_shape">
	<rect fill="none" width="24" height="24"/>
</g>
</svg>
