<?xml version="1.0" encoding="utf-8"?>
<!-- Generator: Adobe Illustrator 19.2.0, SVG Export Plug-In . SVG Version: 6.00 Build 0)  -->
<svg version="1.1" xmlns="http://www.w3.org/2000/svg" xmlns:xlink="http://www.w3.org/1999/xlink" x="0px" y="0px" width="24px"
	 height="24px" viewBox="0 0 24 24" enable-background="new 0 0 24 24" xml:space="preserve">
<g id="Filled_Icons">
	<path d="M21.289,21.105C20.95,20.428,20.258,20,19.5,20h-2l2-3l-1.95-3.896C17.211,12.428,16.519,12,15.762,12H14.5v-1.908
		c0.609-0.641,1-1.56,1-2.592c0-1.081-0.429-2.035-1.088-2.677L12.5,1l-1.911,3.823C9.929,5.464,9.5,6.419,9.5,7.5
		c0,1.033,0.391,1.951,1,2.592V12H9.238c-0.757,0-1.449,0.428-1.788,1.104L5.5,17l2,3h-2c-0.758,0-1.45,0.428-1.789,1.105
		C3.372,21.783,3.445,22.594,3.9,23.2L4.5,24h16l0.6-0.8C21.555,22.594,21.628,21.783,21.289,21.105z M9.5,20l-2-3l2-3V20z"/>
</g>
<g id="invisible_shape">
	<rect fill="none" width="24" height="24"/>
</g>
</svg>
