<?xml version="1.0" encoding="utf-8"?>
<!-- Generator: Adobe Illustrator 19.2.0, SVG Export Plug-In . SVG Version: 6.00 Build 0)  -->
<svg version="1.1" xmlns="http://www.w3.org/2000/svg" xmlns:xlink="http://www.w3.org/1999/xlink" x="0px" y="0px" width="24px"
	 height="24px" viewBox="0 0 24 24" enable-background="new 0 0 24 24" xml:space="preserve">
<g id="Filled_Icons">
	<g>
		<path d="M17.804,8C17.161,5.298,14.842,3.243,12,3.025V0.541c0-0.276-0.224-0.5-0.5-0.5S11,0.265,11,0.541v2.485
			C8.158,3.243,5.837,5.298,5.194,8H17.804z"/>
		<path d="M3.5,10H5v5h13v-5h1.5c0.276,0,0.5-0.224,0.5-0.5S19.776,9,19.5,9h-1h-0.527H5.025H4.5h-1C3.224,9,3,9.224,3,9.5
			S3.224,10,3.5,10z M13,11c0-0.276,0.224-0.5,0.5-0.5S14,10.724,14,11v2.5c0,0.276-0.224,0.5-0.5,0.5S13,13.776,13,13.5V11z M9,11
			c0-0.276,0.224-0.5,0.5-0.5S10,10.724,10,11v2.5c0,0.276-0.224,0.5-0.5,0.5S9,13.776,9,13.5V11z"/>
		<path d="M22.5,23H21v-6h1.5c0.276,0,0.5-0.224,0.5-0.5S22.776,16,22.5,16h-4H18H5H4.5h-4C0.224,16,0,16.224,0,16.5
			S0.224,17,0.5,17H2v6H0.5C0.224,23,0,23.224,0,23.5S0.224,24,0.5,24h22c0.276,0,0.5-0.224,0.5-0.5S22.776,23,22.5,23z M6,21
			c0,0.276-0.224,0.5-0.5,0.5S5,21.276,5,21v-2.5C5,18.224,5.224,18,5.5,18S6,18.224,6,18.5V21z M10,21c0,0.276-0.224,0.5-0.5,0.5
			S9,21.276,9,21v-2.5C9,18.224,9.224,18,9.5,18s0.5,0.224,0.5,0.5V21z M14,21c0,0.276-0.224,0.5-0.5,0.5S13,21.276,13,21v-2.5
			c0-0.276,0.224-0.5,0.5-0.5s0.5,0.224,0.5,0.5V21z M18,21c0,0.276-0.224,0.5-0.5,0.5S17,21.276,17,21v-2.5
			c0-0.276,0.224-0.5,0.5-0.5s0.5,0.224,0.5,0.5V21z"/>
	</g>
</g>
<g id="invisible_shape">
	<rect fill="none" width="24" height="24"/>
</g>
</svg>
