<?xml version="1.0" encoding="utf-8"?>
<!-- Generator: Adobe Illustrator 19.2.0, SVG Export Plug-In . SVG Version: 6.00 Build 0)  -->
<svg version="1.1" xmlns="http://www.w3.org/2000/svg" xmlns:xlink="http://www.w3.org/1999/xlink" x="0px" y="0px" width="24px"
	 height="24px" viewBox="0 0 24 24" enable-background="new 0 0 24 24" xml:space="preserve">
<g id="Filled_Icons">
	<path d="M23.5,9H23V6.5C23,6.223,22.776,6,22.5,6h-5C17.224,6,17,6.223,17,6.5V9h-0.5C16.224,9,16,9.223,16,9.5V13h-6V7.5
		C10,7.223,9.776,7,9.5,7H9V3.5C9,3.223,8.776,3,8.5,3H5V0.5C5,0.223,4.776,0,4.5,0S4,0.223,4,0.5V3H1.5C1.224,3,1,3.223,1,3.5V7
		H0.5C0.224,7,0,7.223,0,7.5v16C0,23.776,0.224,24,0.5,24H3v-2.5C3,21.223,3.224,21,3.5,21h2C5.776,21,6,21.223,6,21.5V24h13v-2.5
		c0-0.277,0.224-0.5,0.5-0.5h2c0.276,0,0.5,0.223,0.5,0.5V24h1.5c0.276,0,0.5-0.224,0.5-0.5v-14C24,9.223,23.776,9,23.5,9z M3.5,5h3
		C6.776,5,7,5.223,7,5.5C7,5.776,6.776,6,6.5,6h-3C3.224,6,3,5.776,3,5.5C3,5.223,3.224,5,3.5,5z M7.5,20h-5
		C2.224,20,2,19.776,2,19.5C2,19.223,2.224,19,2.5,19h5C7.776,19,8,19.223,8,19.5C8,19.776,7.776,20,7.5,20z M7.5,18h-5
		C2.224,18,2,17.776,2,17.5C2,17.223,2.224,17,2.5,17h5C7.776,17,8,17.223,8,17.5C8,17.776,7.776,18,7.5,18z M7.5,16h-5
		C2.224,16,2,15.776,2,15.5C2,15.223,2.224,15,2.5,15h5C7.776,15,8,15.223,8,15.5C8,15.776,7.776,16,7.5,16z M7.5,14h-5
		C2.224,14,2,13.776,2,13.5C2,13.223,2.224,13,2.5,13h5C7.776,13,8,13.223,8,13.5C8,13.776,7.776,14,7.5,14z M7.5,12h-5
		C2.224,12,2,11.776,2,11.5C2,11.223,2.224,11,2.5,11h5C7.776,11,8,11.223,8,11.5C8,11.776,7.776,12,7.5,12z M7.5,10h-5
		C2.224,10,2,9.776,2,9.5C2,9.223,2.224,9,2.5,9h5C7.776,9,8,9.223,8,9.5C8,9.776,7.776,10,7.5,10z M14.5,20h-3
		c-0.276,0-0.5-0.224-0.5-0.5c0-0.277,0.224-0.5,0.5-0.5h3c0.276,0,0.5,0.223,0.5,0.5C15,19.776,14.776,20,14.5,20z M14.5,18h-3
		c-0.276,0-0.5-0.224-0.5-0.5c0-0.277,0.224-0.5,0.5-0.5h3c0.276,0,0.5,0.223,0.5,0.5C15,17.776,14.776,18,14.5,18z M14.5,16h-3
		c-0.276,0-0.5-0.224-0.5-0.5c0-0.277,0.224-0.5,0.5-0.5h3c0.276,0,0.5,0.223,0.5,0.5C15,15.776,14.776,16,14.5,16z M21.5,20h-3
		c-0.276,0-0.5-0.224-0.5-0.5c0-0.277,0.224-0.5,0.5-0.5h3c0.276,0,0.5,0.223,0.5,0.5C22,19.776,21.776,20,21.5,20z M21.5,18h-3
		c-0.276,0-0.5-0.224-0.5-0.5c0-0.277,0.224-0.5,0.5-0.5h3c0.276,0,0.5,0.223,0.5,0.5C22,17.776,21.776,18,21.5,18z M21.5,16h-3
		c-0.276,0-0.5-0.224-0.5-0.5c0-0.277,0.224-0.5,0.5-0.5h3c0.276,0,0.5,0.223,0.5,0.5C22,15.776,21.776,16,21.5,16z M21.5,14h-3
		c-0.276,0-0.5-0.224-0.5-0.5c0-0.277,0.224-0.5,0.5-0.5h3c0.276,0,0.5,0.223,0.5,0.5C22,13.776,21.776,14,21.5,14z M21.5,12h-3
		c-0.276,0-0.5-0.224-0.5-0.5c0-0.277,0.224-0.5,0.5-0.5h3c0.276,0,0.5,0.223,0.5,0.5C22,11.776,21.776,12,21.5,12z"/>
</g>
<g id="invisible_shape">
	<rect fill="none" width="24" height="24"/>
</g>
</svg>
