<?xml version="1.0" encoding="utf-8"?>
<!-- Generator: Adobe Illustrator 19.2.0, SVG Export Plug-In . SVG Version: 6.00 Build 0)  -->
<svg version="1.1" xmlns="http://www.w3.org/2000/svg" xmlns:xlink="http://www.w3.org/1999/xlink" x="0px" y="0px" width="24px"
	 height="24px" viewBox="0 0 24 24" enable-background="new 0 0 24 24" xml:space="preserve">
<g id="Filled_Icons">
	<path d="M20.854,2.148c0,0-0.001-0.001-0.002-0.002l-1.999-1.999C18.76,0.053,18.633,0,18.5,0h-13C5.367,0,5.24,0.053,5.147,0.147
		l-2,1.999C3.145,2.147,3.145,2.148,3.145,2.148C3.052,2.243,3,2.394,3,2.5v21C3,23.776,3.224,24,3.5,24H10v-4.5
		c0-0.277,0.224-0.5,0.5-0.5h3c0.276,0,0.5,0.223,0.5,0.5V24h6.5c0.276,0,0.5-0.224,0.5-0.5v-21C21,2.394,20.946,2.239,20.854,2.148
		z M9,17H5v-3h4V17z M9,12H5V9h4V12z M9,7H5V4h4V7z M14,17h-4v-3h4V17z M14,12h-4V9h4V12z M14,7h-4V4h4V7z M19,17h-4v-3h4V17z
		 M19,12h-4V9h4V12z M19,7h-4V4h4V7z M4.707,2l1-1h12.586l1,1H4.707z"/>
</g>
<g id="invisible_shape">
	<rect fill="none" width="24" height="24"/>
</g>
</svg>
