<?xml version="1.0" encoding="utf-8"?>
<!-- Generator: Adobe Illustrator 19.2.0, SVG Export Plug-In . SVG Version: 6.00 Build 0)  -->
<svg version="1.1" xmlns="http://www.w3.org/2000/svg" xmlns:xlink="http://www.w3.org/1999/xlink" x="0px" y="0px" width="24px"
	 height="24px" viewBox="0 0 24 24" enable-background="new 0 0 24 24" xml:space="preserve">
<g id="Filled_Icons">
	<g>
		<path d="M9,6.1C9.007,6.066,9.019,6.035,9.019,6H2v1h7V6.1z"/>
		<rect x="11" y="10" width="2" height="4"/>
		<path d="M23.484,23H23V8h-9v15h-0.5c-0.276,0-0.5,0.223-0.5,0.5c0,0.276,0.224,0.5,0.5,0.5h9.984c0.276,0,0.5-0.224,0.5-0.5
			C23.984,23.223,23.761,23,23.484,23z M20.484,20H16.5c-0.276,0-0.5-0.224-0.5-0.5c0-0.277,0.224-0.5,0.5-0.5h3.984
			c0.276,0,0.5,0.223,0.5,0.5C20.984,19.776,20.761,20,20.484,20z M20.484,17H16.5c-0.276,0-0.5-0.224-0.5-0.5
			c0-0.277,0.224-0.5,0.5-0.5h3.984c0.276,0,0.5,0.223,0.5,0.5C20.984,16.776,20.761,17,20.484,17z M20.484,14H16.5
			c-0.276,0-0.5-0.224-0.5-0.5c0-0.277,0.224-0.5,0.5-0.5h3.984c0.276,0,0.5,0.223,0.5,0.5C20.984,13.776,20.761,14,20.484,14z
			 M20.484,11H16.5c-0.276,0-0.5-0.224-0.5-0.5c0-0.277,0.224-0.5,0.5-0.5h3.984c0.276,0,0.5,0.223,0.5,0.5
			C20.984,10.776,20.761,11,20.484,11z"/>
		<path d="M21.479,5l-2.582-4.759C18.806,0.091,18.644,0,18.469,0c-0.19-0.03-0.34,0.093-0.43,0.246L15.513,5H21.479z"/>
		<path d="M22,6.1c0.007-0.033,0.02-0.064,0.02-0.1H15v1h7V6.1z"/>
		<path d="M8.479,5L5.897,0.241C5.805,0.09,5.621-0.008,5.466,0C5.291,0.001,5.128,0.094,5.039,0.246L2.513,5H8.479z"/>
		<path d="M10.484,23H10V8H1v15H0.5C0.224,23,0,23.223,0,23.5C0,23.776,0.224,24,0.5,24h9.984c0.276,0,0.5-0.224,0.5-0.5
			C10.984,23.223,10.761,23,10.484,23z M7.484,20H3.5C3.224,20,3,19.776,3,19.5C3,19.223,3.224,19,3.5,19h3.984
			c0.276,0,0.5,0.223,0.5,0.5C7.984,19.776,7.761,20,7.484,20z M7.484,17H3.5C3.224,17,3,16.776,3,16.5C3,16.223,3.224,16,3.5,16
			h3.984c0.276,0,0.5,0.223,0.5,0.5C7.984,16.776,7.761,17,7.484,17z M7.484,14H3.5C3.224,14,3,13.776,3,13.5
			C3,13.223,3.224,13,3.5,13h3.984c0.276,0,0.5,0.223,0.5,0.5C7.984,13.776,7.761,14,7.484,14z M7.484,11H3.5
			C3.224,11,3,10.776,3,10.5C3,10.223,3.224,10,3.5,10h3.984c0.276,0,0.5,0.223,0.5,0.5C7.984,10.776,7.761,11,7.484,11z"/>
	</g>
</g>
<g id="invisible_shape">
	<rect fill="none" width="24" height="24"/>
</g>
</svg>
