<?xml version="1.0" encoding="utf-8"?>
<!-- Generator: Adobe Illustrator 19.2.0, SVG Export Plug-In . SVG Version: 6.00 Build 0)  -->
<svg version="1.1" xmlns="http://www.w3.org/2000/svg" xmlns:xlink="http://www.w3.org/1999/xlink" x="0px" y="0px" width="24px"
	 height="24px" viewBox="0 0 24 24" enable-background="new 0 0 24 24" xml:space="preserve">
<g id="Filled_Icons">
	<g>
		<path d="M3.5,4h17C20.775,4,21,3.776,21,3.5V3c0-0.221-0.146-0.417-0.359-0.48l-8.5-2.5c-0.092-0.026-0.19-0.026-0.282,0l-8.5,2.5
			C3.145,2.583,3,2.779,3,3v0.5C3,3.776,3.224,4,3.5,4z"/>
		<path d="M23.5,23H20V5.5C20,5.223,19.775,5,19.5,5h-15C4.224,5,4,5.223,4,5.5V23H0.5C0.224,23,0,23.223,0,23.5
			C0,23.776,0.224,24,0.5,24h23c0.275,0,0.5-0.224,0.5-0.5C24,23.223,23.775,23,23.5,23z M8,20H6v-2h2V20z M8,16H6v-2h2V16z M8,12H6
			v-2h2V12z M8,8H6V6h2V8z M10,6h4v2h-4V6z M10,10h4v2h-4V10z M10,14h4v2h-4V14z M14,23h-4v-4.5c0-0.277,0.224-0.5,0.5-0.5h3
			c0.275,0,0.5,0.223,0.5,0.5V23z M18,20h-2v-2h2V20z M18,16h-2v-2h2V16z M18,12h-2v-2h2V12z M18,8h-2V6h2V8z"/>
	</g>
</g>
<g id="invisible_shape">
	<rect fill="none" width="24" height="24"/>
</g>
</svg>
