<?xml version="1.0" encoding="utf-8"?>
<!-- Generator: Adobe Illustrator 19.2.0, SVG Export Plug-In . SVG Version: 6.00 Build 0)  -->
<svg version="1.1" xmlns="http://www.w3.org/2000/svg" xmlns:xlink="http://www.w3.org/1999/xlink" x="0px" y="0px" width="24px"
	 height="24px" viewBox="0 0 24 24" enable-background="new 0 0 24 24" xml:space="preserve">
<g id="Filled_Icons">
	<g>
		<path d="M14.707,6L11,2.293V0.5C11,0.224,10.776,0,10.5,0S10,0.224,10,0.5v1.793L6.293,6H14.707z"/>
		<path d="M23.681,14.035L15,10.659V7H6v6H0.5C0.224,13,0,13.224,0,13.5v10C0,23.776,0.224,24,0.5,24h21c0.276,0,0.5-0.224,0.5-0.5
			v-9.047l1.319,0.513c0.253,0.1,0.546-0.024,0.647-0.285C24.066,14.424,23.938,14.134,23.681,14.035z M3,22.5
			C3,22.776,2.776,23,2.5,23S2,22.776,2,22.5v-1C2,21.224,2.224,21,2.5,21S3,21.224,3,21.5V22.5z M3,19.5C3,19.776,2.776,20,2.5,20
			S2,19.776,2,19.5v-1C2,18.224,2.224,18,2.5,18S3,18.224,3,18.5V19.5z M3,16.5C3,16.776,2.776,17,2.5,17S2,16.776,2,16.5v-1
			C2,15.224,2.224,15,2.5,15S3,15.224,3,15.5V16.5z M5,22.5C5,22.776,4.776,23,4.5,23S4,22.776,4,22.5v-1C4,21.224,4.224,21,4.5,21
			S5,21.224,5,21.5V22.5z M5,19.5C5,19.776,4.776,20,4.5,20S4,19.776,4,19.5v-1C4,18.224,4.224,18,4.5,18S5,18.224,5,18.5V19.5z
			 M5,16.5C5,16.776,4.776,17,4.5,17S4,16.776,4,16.5v-1C4,15.224,4.224,15,4.5,15S5,15.224,5,15.5V16.5z M9,20.5
			C9,20.776,8.776,21,8.5,21S8,20.776,8,20.5v-12C8,8.224,8.224,8,8.5,8S9,8.224,9,8.5V20.5z M11,20.5c0,0.276-0.224,0.5-0.5,0.5
			S10,20.776,10,20.5v-12C10,8.224,10.224,8,10.5,8S11,8.224,11,8.5V20.5z M13,20.5c0,0.276-0.224,0.5-0.5,0.5S12,20.776,12,20.5
			v-12C12,8.224,12.224,8,12.5,8S13,8.224,13,8.5V20.5z M17,22.5c0,0.276-0.224,0.5-0.5,0.5S16,22.776,16,22.5v-1
			c0-0.276,0.224-0.5,0.5-0.5s0.5,0.224,0.5,0.5V22.5z M17,19.5c0,0.276-0.224,0.5-0.5,0.5S16,19.776,16,19.5v-1
			c0-0.276,0.224-0.5,0.5-0.5s0.5,0.224,0.5,0.5V19.5z M17,16.5c0,0.276-0.224,0.5-0.5,0.5S16,16.776,16,16.5v-1
			c0-0.276,0.224-0.5,0.5-0.5s0.5,0.224,0.5,0.5V16.5z M20,22.5c0,0.276-0.224,0.5-0.5,0.5S19,22.776,19,22.5v-1
			c0-0.276,0.224-0.5,0.5-0.5s0.5,0.224,0.5,0.5V22.5z M20,19.5c0,0.276-0.224,0.5-0.5,0.5S19,19.776,19,19.5v-1
			c0-0.276,0.224-0.5,0.5-0.5s0.5,0.224,0.5,0.5V19.5z M20,16.5c0,0.276-0.224,0.5-0.5,0.5S19,16.776,19,16.5v-1
			c0-0.276,0.224-0.5,0.5-0.5s0.5,0.224,0.5,0.5V16.5z"/>
	</g>
</g>
<g id="invisible_shape">
	<rect fill="none" width="24" height="24"/>
</g>
</svg>
