<?xml version="1.0" encoding="utf-8"?>
<!-- Generator: Adobe Illustrator 19.2.0, SVG Export Plug-In . SVG Version: 6.00 Build 0)  -->
<svg version="1.1" xmlns="http://www.w3.org/2000/svg" xmlns:xlink="http://www.w3.org/1999/xlink" x="0px" y="0px" width="24px"
	 height="24px" viewBox="0 0 24 24" enable-background="new 0 0 24 24" xml:space="preserve">
<g id="Filled_Icons">
	<g>
		<path d="M19.5,4H12V3h2.5C14.776,3,15,2.776,15,2.5v-2C15,0.223,14.776,0,14.5,0h-3C11.224,0,11,0.223,11,0.5V1v1.5V4H4.5
			C4.224,4,4,4.223,4,4.5v1C4,5.776,4.224,6,4.5,6h15C19.776,6,20,5.776,20,5.5v-1C20,4.223,19.776,4,19.5,4z"/>
		<g>
			<path d="M18,7.5C18,7.223,17.776,7,17.5,7h-11C6.224,7,6,7.223,6,7.5V17h12V7.5z M11,14.5c0,0.276-0.224,0.5-0.5,0.5h-2
				C8.224,15,8,14.776,8,14.5v-2C8,12.223,8.224,12,8.5,12h2c0.276,0,0.5,0.223,0.5,0.5V14.5z M11,10.5c0,0.276-0.224,0.5-0.5,0.5
				h-2C8.224,11,8,10.776,8,10.5v-2C8,8.223,8.224,8,8.5,8h2C10.776,8,11,8.223,11,8.5V10.5z M16,14.5c0,0.276-0.224,0.5-0.5,0.5h-2
				c-0.276,0-0.5-0.224-0.5-0.5v-2c0-0.277,0.224-0.5,0.5-0.5h2c0.276,0,0.5,0.223,0.5,0.5V14.5z M16,10.5
				c0,0.276-0.224,0.5-0.5,0.5h-2c-0.276,0-0.5-0.224-0.5-0.5v-2C13,8.223,13.224,8,13.5,8h2C15.776,8,16,8.223,16,8.5V10.5z"/>
			<path d="M6,23.5C6,23.776,6.224,24,6.5,24h11c0.276,0,0.5-0.224,0.5-0.5V18H6V23.5z M13,19.5c0-0.277,0.224-0.5,0.5-0.5h2
				c0.276,0,0.5,0.223,0.5,0.5v2c0,0.276-0.224,0.5-0.5,0.5h-2c-0.276,0-0.5-0.224-0.5-0.5V19.5z M8,19.5C8,19.223,8.224,19,8.5,19
				h2c0.276,0,0.5,0.223,0.5,0.5v2c0,0.276-0.224,0.5-0.5,0.5h-2C8.224,22,8,21.776,8,21.5V19.5z"/>
		</g>
		<g>
			<path d="M0.5,13H2v3h3v-4H2.5h-2C0.224,12,0,12.223,0,12.5C0,12.776,0.224,13,0.5,13z"/>
			<path d="M5,23.5V17H2H1.5h-1C0.224,17,0,17.223,0,17.5C0,17.776,0.224,18,0.5,18H2v5.5C2,23.776,2.224,24,2.5,24h2.592
				C5.036,23.843,5,23.677,5,23.5z"/>
		</g>
		<g>
			<path d="M19,16h3v-3h1.479c0.276,0,0.5-0.224,0.5-0.5c0-0.277-0.224-0.5-0.5-0.5H21.5H19V16z"/>
			<path d="M23.5,17H23h-1h-3v6.5c0,0.177-0.036,0.343-0.092,0.5H21.5c0.276,0,0.5-0.224,0.5-0.5V18h1.5c0.276,0,0.5-0.224,0.5-0.5
				C24,17.223,23.776,17,23.5,17z"/>
		</g>
	</g>
</g>
<g id="invisible_shape">
	<rect fill="none" width="24" height="24"/>
</g>
</svg>
