<?xml version="1.0" encoding="utf-8"?>
<!-- Generator: Adobe Illustrator 19.2.0, SVG Export Plug-In . SVG Version: 6.00 Build 0)  -->
<svg version="1.1" xmlns="http://www.w3.org/2000/svg" xmlns:xlink="http://www.w3.org/1999/xlink" x="0px" y="0px" width="24px"
	 height="24px" viewBox="0 0 24 24" enable-background="new 0 0 24 24" xml:space="preserve">
<g id="Filled_Icons">
	<path d="M23.5,23H22V5h1.5C23.775,5,24,4.776,24,4.5C24,4.223,23.775,4,23.5,4H21V2.5C21,2.223,20.775,2,20.5,2H15V0.5
		C15,0.223,14.775,0,14.5,0h-5C9.224,0,9,0.223,9,0.5V2H3.5C3.224,2,3,2.223,3,2.5V4H0.5C0.224,4,0,4.223,0,4.5
		C0,4.776,0.224,5,0.5,5H2v18H0.5C0.224,23,0,23.223,0,23.5C0,23.776,0.224,24,0.5,24H10v-4.5c0-0.277,0.224-0.5,0.5-0.5h3
		c0.275,0,0.5,0.223,0.5,0.5V24h9.5c0.275,0,0.5-0.224,0.5-0.5C24,23.223,23.775,23,23.5,23z M8.5,21h-3C5.224,21,5,20.776,5,20.5
		C5,20.223,5.224,20,5.5,20h3C8.775,20,9,20.223,9,20.5C9,20.776,8.775,21,8.5,21z M10.5,17h-5C5.224,17,5,16.776,5,16.5
		C5,16.223,5.224,16,5.5,16h5c0.275,0,0.5,0.223,0.5,0.5C11,16.776,10.775,17,10.5,17z M10.5,14h-5C5.224,14,5,13.776,5,13.5
		C5,13.223,5.224,13,5.5,13h5c0.275,0,0.5,0.223,0.5,0.5C11,13.776,10.775,14,10.5,14z M10.5,11h-5C5.224,11,5,10.776,5,10.5
		C5,10.223,5.224,10,5.5,10h5c0.275,0,0.5,0.223,0.5,0.5C11,10.776,10.775,11,10.5,11z M10.5,8h-5C5.224,8,5,7.776,5,7.5
		C5,7.223,5.224,7,5.5,7h5C10.775,7,11,7.223,11,7.5C11,7.776,10.775,8,10.5,8z M18.5,21h-3c-0.276,0-0.5-0.224-0.5-0.5
		c0-0.277,0.224-0.5,0.5-0.5h3c0.275,0,0.5,0.223,0.5,0.5C19,20.776,18.775,21,18.5,21z M18.5,17h-5c-0.276,0-0.5-0.224-0.5-0.5
		c0-0.277,0.224-0.5,0.5-0.5h5c0.275,0,0.5,0.223,0.5,0.5C19,16.776,18.775,17,18.5,17z M18.5,14h-5c-0.276,0-0.5-0.224-0.5-0.5
		c0-0.277,0.224-0.5,0.5-0.5h5c0.275,0,0.5,0.223,0.5,0.5C19,13.776,18.775,14,18.5,14z M18.5,11h-5c-0.276,0-0.5-0.224-0.5-0.5
		c0-0.277,0.224-0.5,0.5-0.5h5c0.275,0,0.5,0.223,0.5,0.5C19,10.776,18.775,11,18.5,11z M18.5,8h-5C13.224,8,13,7.776,13,7.5
		C13,7.223,13.224,7,13.5,7h5C18.775,7,19,7.223,19,7.5C19,7.776,18.775,8,18.5,8z"/>
</g>
<g id="invisible_shape">
	<rect fill="none" width="24" height="24"/>
</g>
</svg>
