<?xml version="1.0" encoding="utf-8"?>
<!-- Generator: Adobe Illustrator 19.2.0, SVG Export Plug-In . SVG Version: 6.00 Build 0)  -->
<svg version="1.1" xmlns="http://www.w3.org/2000/svg" xmlns:xlink="http://www.w3.org/1999/xlink" x="0px" y="0px" width="24px"
	 height="24px" viewBox="0 0 24 24" enable-background="new 0 0 24 24" xml:space="preserve">
<g id="Filled_Icons">
	<g>
		<path d="M20.5,0h-10C10.224,0,10,0.223,10,0.5V1h1h5.5C16.775,1,17,1.223,17,1.5C17,1.776,16.775,2,16.5,2H10v1h4.5
			C14.775,3,15,3.223,15,3.5C15,3.776,14.775,4,14.5,4H10v1h3.5C13.775,5,14,5.223,14,5.5C14,5.776,13.775,6,13.5,6H10v1h3.5
			C13.775,7,14,7.223,14,7.5V24h1v-3.5c0-0.277,0.224-0.5,0.5-0.5h3c0.275,0,0.5,0.223,0.5,0.5V24h1.5c0.275,0,0.5-0.224,0.5-0.5
			v-23C21,0.223,20.775,0,20.5,0z"/>
		<path d="M2.5,8C2.224,8,2,8.223,2,8.5V10h4.5C6.775,10,7,10.223,7,10.5C7,10.776,6.775,11,6.5,11H2v1h3.5
			C5.775,12,6,12.223,6,12.5C6,12.776,5.775,13,5.5,13H2v1h2.5C4.775,14,5,14.223,5,14.5C5,14.776,4.775,15,4.5,15H2v8.5
			C2,23.776,2.224,24,2.5,24H4v-3.5C4,20.223,4.224,20,4.5,20h3C7.775,20,8,20.223,8,20.5V24h5V8.5V8h-0.5H2.5z"/>
	</g>
</g>
<g id="invisible_shape">
	<rect fill="none" width="24" height="24"/>
</g>
</svg>
