<?xml version="1.0" encoding="utf-8"?>
<!-- Generator: Adobe Illustrator 19.2.0, SVG Export Plug-In . SVG Version: 6.00 Build 0)  -->
<svg version="1.1" xmlns="http://www.w3.org/2000/svg" xmlns:xlink="http://www.w3.org/1999/xlink" x="0px" y="0px" width="24px"
	 height="24px" viewBox="0 0 24 24" enable-background="new 0 0 24 24" xml:space="preserve">
<g id="Filled_Icons">
	<g>
		<rect x="16" y="22" width="8" height="1"/>
		<rect x="16" y="20" width="8" height="1"/>
		<rect x="16" y="18" width="8" height="1"/>
		<path d="M16,17h1v-5.5c0-1.378,1.122-2.5,2.5-2.5h1c1.378,0,2.5,1.122,2.5,2.5V17h1V0.5C24,0.223,23.776,0,23.5,0H16V17z M20,2.5
			c1.378,0,2.5,1.122,2.5,2.5c0,1.378-1.122,2.5-2.5,2.5c-1.378,0-2.5-1.122-2.5-2.5C17.5,3.622,18.622,2.5,20,2.5z"/>
		<path d="M15,0H0.5C0.224,0,0,0.223,0,0.5v23C0,23.776,0.224,24,0.5,24H15V0z M7,19.5C7,19.776,6.776,20,6.5,20h-4
			C2.224,20,2,19.776,2,19.5v-5C2,13.122,3.122,12,4.5,12C5.878,12,7,13.122,7,14.5V19.5z M7,9.5C7,9.776,6.776,10,6.5,10h-4
			C2.224,10,2,9.776,2,9.5v-5C2,3.122,3.122,2,4.5,2C5.878,2,7,3.122,7,4.5V9.5z M13,19.5c0,0.276-0.224,0.5-0.5,0.5h-4
			C8.224,20,8,19.776,8,19.5v-5c0-1.378,1.122-2.5,2.5-2.5c1.378,0,2.5,1.122,2.5,2.5V19.5z M13,9.5c0,0.276-0.224,0.5-0.5,0.5h-4
			C8.224,10,8,9.776,8,9.5v-5C8,3.122,9.122,2,10.5,2C11.878,2,13,3.122,13,4.5V9.5z"/>
	</g>
</g>
<g id="invisible_shape">
	<rect fill="none" width="24" height="24"/>
</g>
</svg>
