<?xml version="1.0" encoding="utf-8"?>
<!-- Generator: Adobe Illustrator 19.2.0, SVG Export Plug-In . SVG Version: 6.00 Build 0)  -->
<svg version="1.1" xmlns="http://www.w3.org/2000/svg" xmlns:xlink="http://www.w3.org/1999/xlink" x="0px" y="0px" width="24px"
	 height="24px" viewBox="0 0 24 24" enable-background="new 0 0 24 24" xml:space="preserve">
<g id="Filled_Icons">
	<g>
		<path d="M15,0v11.293l-3.146-3.147c-0.195-0.195-0.512-0.195-0.707,0l-4,4C7.051,12.243,7.019,12.37,7.019,12.5H7V15H2.5
			c-0.167,0-0.323,0.083-0.416,0.223l-2,3c-0.103,0.153-0.112,0.35-0.024,0.513C0.147,18.898,0.315,19,0.5,19H1v5h2v-3h2v3h19V0H15z
			 M7,18H1.435l1.333-2H7V18z M14,21H9v-2h5V21z M14,17H9v-2h5V17z M8.707,12L11.5,9.207L14.293,12H8.707z M18,20h-1v-2h1V20z
			 M18,16h-1v-2h1V16z M18,12h-1v-2h1V12z M18,8h-1V6h1V8z M18,4h-1V2h1V4z M20,20h-1v-2h1V20z M20,16h-1v-2h1V16z M20,12h-1v-2h1
			V12z M20,8h-1V6h1V8z M20,4h-1V2h1V4z M22,20h-1v-2h1V20z M22,16h-1v-2h1V16z M22,12h-1v-2h1V12z M22,8h-1V6h1V8z M22,4h-1V2h1V4z
			"/>
		<path d="M8.064,6C8.064,6,10,5.748,10,3.849c0-1.203-0.994-2.193-2.229-2.147C7.289,0.684,6.254,0,5.053,0
			C3.451,0,2.038,1.23,1.945,2.808C0.941,2.598,0,3.362,0,4.387C0,6.025,1.721,6,1.721,6H8.064z"/>
	</g>
</g>
<g id="invisible_shape">
	<rect fill="none" width="24" height="24"/>
</g>
</svg>
