<?xml version="1.0" encoding="utf-8"?>
<!-- Generator: Adobe Illustrator 19.2.0, SVG Export Plug-In . SVG Version: 6.00 Build 0)  -->
<svg version="1.1" xmlns="http://www.w3.org/2000/svg" xmlns:xlink="http://www.w3.org/1999/xlink" x="0px" y="0px" width="24px"
	 height="24px" viewBox="0 0 24 24" enable-background="new 0 0 24 24" xml:space="preserve">
<g id="Filled_Icons">
	<g>
		<path d="M21,10.5l-3,2.7V24h6V13.2L21,10.5z M23,23h-4v-1h4V23z M23,21h-4v-1h4V21z M23,19h-4v-1h4V19z M23,17h-4v-1h4V17z M23,15
			h-4v-1h4V15z"/>
		<polygon points="0.5,15 0.5,24 2,24 2,17 3,17 3,24 4,24 4,15.5 5,15.5 5,24 7,24 7,10.5 		"/>
		<g>
			<polygon points="17,11.191 17,8 10.618,8 			"/>
			<polygon points="8,15.809 8,23.191 15.382,19.5 			"/>
			<polygon points="15.382,11.5 8,7.809 8,15.191 			"/>
			<polygon points="16.785,7 13,3.467 13,0.5 12,0.5 12,3.467 8.215,7 			"/>
			<polygon points="8.618,24 17,24 17,19.809 			"/>
			<polygon points="17,11.809 9.618,15.5 17,19.191 			"/>
		</g>
	</g>
</g>
<g id="invisible_shape">
	<rect fill="none" width="24" height="24"/>
</g>
</svg>
