<?xml version="1.0" encoding="utf-8"?>
<!-- Generator: Adobe Illustrator 19.2.0, SVG Export Plug-In . SVG Version: 6.00 Build 0)  -->
<svg version="1.1" xmlns="http://www.w3.org/2000/svg" xmlns:xlink="http://www.w3.org/1999/xlink" x="0px" y="0px" width="24px"
	 height="24px" viewBox="0 0 24 24" enable-background="new 0 0 24 24" xml:space="preserve">
<g id="Filled_Icons">
	<path d="M23.5,23H23v-9.5c0-0.277-0.225-0.5-0.5-0.5H20v-0.5c0-0.277-0.225-0.5-0.5-0.5c-0.276,0-0.5,0.223-0.5,0.5V13h-0.5
		c-0.276,0-0.5,0.223-0.5,0.5V23h-1V4.5C17,4.223,16.775,4,16.5,4H14V2.5C14,2.223,13.775,2,13.5,2H13V0.5C13,0.223,12.775,0,12.5,0
		C12.224,0,12,0.223,12,0.5V2h-1.5C10.224,2,10,2.223,10,2.5V4H7.5C7.224,4,7,4.223,7,4.5V23H6v-9.5C6,13.223,5.775,13,5.5,13H5
		v-0.5C5,12.223,4.775,12,4.5,12C4.224,12,4,12.223,4,12.5V13H1.5C1.224,13,1,13.223,1,13.5V23H0.5C0.224,23,0,23.223,0,23.5
		C0,23.776,0.224,24,0.5,24h23c0.275,0,0.5-0.224,0.5-0.5C24,23.223,23.775,23,23.5,23z M14.5,20h-5C9.224,20,9,19.776,9,19.5
		C9,19.223,9.224,19,9.5,19h5c0.275,0,0.5,0.223,0.5,0.5C15,19.776,14.775,20,14.5,20z M14.5,17h-5C9.224,17,9,16.776,9,16.5
		C9,16.223,9.224,16,9.5,16h5c0.275,0,0.5,0.223,0.5,0.5C15,16.776,14.775,17,14.5,17z M14.5,14h-5C9.224,14,9,13.776,9,13.5
		C9,13.223,9.224,13,9.5,13h5c0.275,0,0.5,0.223,0.5,0.5C15,13.776,14.775,14,14.5,14z M14.5,11h-5C9.224,11,9,10.776,9,10.5
		C9,10.223,9.224,10,9.5,10h5c0.275,0,0.5,0.223,0.5,0.5C15,10.776,14.775,11,14.5,11z M14.5,8h-5C9.224,8,9,7.776,9,7.5
		C9,7.223,9.224,7,9.5,7h5C14.775,7,15,7.223,15,7.5C15,7.776,14.775,8,14.5,8z"/>
</g>
<g id="invisible_shape">
	<rect fill="none" width="24" height="24"/>
</g>
</svg>
