<?xml version="1.0" encoding="utf-8"?>
<!-- Generator: Adobe Illustrator 19.2.0, SVG Export Plug-In . SVG Version: 6.00 Build 0)  -->
<svg version="1.1" xmlns="http://www.w3.org/2000/svg" xmlns:xlink="http://www.w3.org/1999/xlink" x="0px" y="0px" width="24px"
	 height="24px" viewBox="0 0 24 24" enable-background="new 0 0 24 24" xml:space="preserve">
<g id="Filled_Icons">
	<path d="M18,23h-5v-2h1.5c0.827,0,1.5-0.673,1.5-1.5c0-0.828-0.673-1.5-1.5-1.5H13v-1h1.5c0.827,0,1.5-0.673,1.5-1.5
		c0-0.828-0.673-1.5-1.5-1.5H13v-1.269c1.26-0.456,2.255-1.462,2.706-2.731H17.5c0.276,0,0.5-0.224,0.5-0.5v-2
		C18,7.224,17.776,7,17.5,7h-1.794C15.143,5.412,13.727,4.243,12,4.047V0.5C12,0.224,11.776,0,11.5,0S11,0.224,11,0.5v3.547
		C9.273,4.243,7.857,5.412,7.294,7H5.5C5.224,7,5,7.224,5,7.5v2C5,9.776,5.224,10,5.5,10h1.794c0.45,1.269,1.445,2.275,2.706,2.731
		V14H8.5C7.673,14,7,14.672,7,15.5C7,16.327,7.673,17,8.5,17H10v1H8.5C7.673,18,7,18.672,7,19.5C7,20.327,7.673,21,8.5,21H10v2H5
		c-0.276,0-0.5,0.223-0.5,0.5C4.5,23.776,4.724,24,5,24h5.5h2H18c0.276,0,0.5-0.224,0.5-0.5C18.5,23.223,18.276,23,18,23z M7.051,9
		H6V8h1.051h1h6.898h1H17v1h-1.051h-1H8.051H7.051z M8.5,16C8.224,16,8,15.775,8,15.5C8,15.224,8.224,15,8.5,15h6
		c0.275,0,0.5,0.224,0.5,0.5c0,0.275-0.225,0.5-0.5,0.5H8.5z M8.5,20C8.224,20,8,19.775,8,19.5C8,19.224,8.224,19,8.5,19h6
		c0.275,0,0.5,0.224,0.5,0.5c0,0.275-0.225,0.5-0.5,0.5H8.5z"/>
</g>
<g id="invisible_shape">
	<rect fill="none" width="24" height="24"/>
</g>
</svg>
