<?xml version="1.0" encoding="utf-8"?>
<!-- Generator: Adobe Illustrator 19.2.0, SVG Export Plug-In . SVG Version: 6.00 Build 0)  -->
<svg version="1.1" xmlns="http://www.w3.org/2000/svg" xmlns:xlink="http://www.w3.org/1999/xlink" x="0px" y="0px" width="24px"
	 height="24px" viewBox="0 0 24 24" enable-background="new 0 0 24 24" xml:space="preserve">
<g id="Filled_Icons">
	<path d="M0,0v24h8v-4c0-2.206,1.794-4,4-4c2.206,0,4,1.794,4,4v4h8V0H0z M2,2.5C2,2.223,2.224,2,2.5,2h5C7.776,2,8,2.223,8,2.5V7H2
		V2.5z M7,20.5C7,20.776,6.776,21,6.5,21h-4C2.224,21,2,20.776,2,20.5v-5C2,15.223,2.224,15,2.5,15h4C6.776,15,7,15.223,7,15.5V20.5
		z M7.5,13h-5C2.224,13,2,12.776,2,12.5V8h6v4.5C8,12.776,7.776,13,7.5,13z M15,12.5c0,0.276-0.224,0.5-0.5,0.5h-5
		C9.224,13,9,12.776,9,12.5V8h6V12.5z M15,7H9V2.5C9,2.223,9.224,2,9.5,2h5C14.776,2,15,2.223,15,2.5V7z M22,20.5
		c0,0.276-0.224,0.5-0.5,0.5h-4c-0.276,0-0.5-0.224-0.5-0.5v-5c0-0.277,0.224-0.5,0.5-0.5h4c0.276,0,0.5,0.223,0.5,0.5V20.5z
		 M22,12.5c0,0.276-0.224,0.5-0.5,0.5h-5c-0.276,0-0.5-0.224-0.5-0.5V8h6V12.5z M22,7h-6V2.5C16,2.223,16.224,2,16.5,2h5
		C21.776,2,22,2.223,22,2.5V7z"/>
</g>
<g id="invisible_shape">
	<rect fill="none" width="24" height="24"/>
</g>
</svg>
