<?xml version="1.0" encoding="utf-8"?>
<!-- Generator: Adobe Illustrator 19.2.0, SVG Export Plug-In . SVG Version: 6.00 Build 0)  -->
<svg version="1.1" xmlns="http://www.w3.org/2000/svg" xmlns:xlink="http://www.w3.org/1999/xlink" x="0px" y="0px" width="24px"
	 height="24px" viewBox="0 0 24 24" enable-background="new 0 0 24 24" xml:space="preserve">
<g id="Filled_Icons">
	<g>
		<path d="M11.5,9H10V3.5C10,3.223,9.776,3,9.5,3H6V0.5C6,0.223,5.776,0,5.5,0S5,0.223,5,0.5V3H2.5C2.224,3,2,3.223,2,3.5V9H0.5
			C0.224,9,0,9.223,0,9.5v14C0,23.776,0.224,24,0.5,24H4v-2.5C4,21.223,4.224,21,4.5,21h2C6.776,21,7,21.223,7,21.5V24h4.5
			c0.276,0,0.5-0.224,0.5-0.5v-14C12,9.223,11.776,9,11.5,9z M4.5,5h3C7.776,5,8,5.223,8,5.5C8,5.776,7.776,6,7.5,6h-3
			C4.224,6,4,5.776,4,5.5C4,5.223,4.224,5,4.5,5z M4.5,7h3C7.776,7,8,7.223,8,7.5C8,7.776,7.776,8,7.5,8h-3C4.224,8,4,7.776,4,7.5
			C4,7.223,4.224,7,4.5,7z M9.5,19h-7C2.224,19,2,18.776,2,18.5C2,18.223,2.224,18,2.5,18h7c0.276,0,0.5,0.223,0.5,0.5
			C10,18.776,9.776,19,9.5,19z M9.5,16h-7C2.224,16,2,15.776,2,15.5C2,15.223,2.224,15,2.5,15h7c0.276,0,0.5,0.223,0.5,0.5
			C10,15.776,9.776,16,9.5,16z M9.5,13h-7C2.224,13,2,12.776,2,12.5C2,12.223,2.224,12,2.5,12h7c0.276,0,0.5,0.223,0.5,0.5
			C10,12.776,9.776,13,9.5,13z"/>
		<path d="M23.5,5h-9C14.224,5,14,5.223,14,5.5v18c0,0.276,0.224,0.5,0.5,0.5H18v-2.5c0-0.277,0.224-0.5,0.5-0.5h2
			c0.276,0,0.5,0.223,0.5,0.5V24h2.5c0.276,0,0.5-0.224,0.5-0.5v-18C24,5.223,23.776,5,23.5,5z M21.5,20h-5
			c-0.276,0-0.5-0.224-0.5-0.5c0-0.277,0.224-0.5,0.5-0.5h5c0.276,0,0.5,0.223,0.5,0.5C22,19.776,21.776,20,21.5,20z M21.5,18h-5
			c-0.276,0-0.5-0.224-0.5-0.5c0-0.277,0.224-0.5,0.5-0.5h5c0.276,0,0.5,0.223,0.5,0.5C22,17.776,21.776,18,21.5,18z M21.5,16h-5
			c-0.276,0-0.5-0.224-0.5-0.5c0-0.277,0.224-0.5,0.5-0.5h5c0.276,0,0.5,0.223,0.5,0.5C22,15.776,21.776,16,21.5,16z M21.5,14h-5
			c-0.276,0-0.5-0.224-0.5-0.5c0-0.277,0.224-0.5,0.5-0.5h5c0.276,0,0.5,0.223,0.5,0.5C22,13.776,21.776,14,21.5,14z M21.5,12h-5
			c-0.276,0-0.5-0.224-0.5-0.5c0-0.277,0.224-0.5,0.5-0.5h5c0.276,0,0.5,0.223,0.5,0.5C22,11.776,21.776,12,21.5,12z M21.5,10h-5
			C16.224,10,16,9.776,16,9.5C16,9.223,16.224,9,16.5,9h5C21.776,9,22,9.223,22,9.5C22,9.776,21.776,10,21.5,10z M21.5,8h-5
			C16.224,8,16,7.776,16,7.5C16,7.223,16.224,7,16.5,7h5C21.776,7,22,7.223,22,7.5C22,7.776,21.776,8,21.5,8z"/>
	</g>
</g>
<g id="invisible_shape">
	<rect fill="none" width="24" height="24"/>
</g>
</svg>
