<?xml version="1.0" encoding="utf-8"?>
<!-- Generator: Adobe Illustrator 19.2.0, SVG Export Plug-In . SVG Version: 6.00 Build 0)  -->
<svg version="1.1" xmlns="http://www.w3.org/2000/svg" xmlns:xlink="http://www.w3.org/1999/xlink" x="0px" y="0px" width="24px"
	 height="24px" viewBox="0 0 24 24" enable-background="new 0 0 24 24" xml:space="preserve">
<g id="Filled_Icons">
	<g>
		<g>
			<rect x="9" y="19" width="1" height="2"/>
			<rect x="11" y="19" width="1" height="2"/>
			<rect x="7" y="19" width="1" height="2"/>
			<path d="M23.4,15.2l-3-4C20.306,11.075,20.157,11,20,11H5c-0.157,0-0.306,0.075-0.4,0.2l-3,4
				c-0.113,0.151-0.132,0.354-0.047,0.523C1.638,15.893,1.811,16,2,16h2v5h2v-2.5C6,18.224,6.224,18,6.5,18h6
				c0.276,0,0.5,0.224,0.5,0.5V21h2v-4h4v4h2v-5h2c0.19,0,0.362-0.107,0.447-0.276C23.532,15.555,23.514,15.352,23.4,15.2z
				 M12.5,16.5c0,0.276-0.224,0.5-0.5,0.5H7c-0.276,0-0.5-0.224-0.5-0.5S6.724,16,7,16h5C12.276,16,12.5,16.224,12.5,16.5z"/>
		</g>
		<polygon points="14,4 11,4 11,1.5 12.5,0 14,1.5 		"/>
		<path d="M22.5,22h-20C2.224,22,2,22.224,2,22.5v1C2,23.776,2.224,24,2.5,24h20c0.276,0,0.5-0.224,0.5-0.5v-1
			C23,22.224,22.776,22,22.5,22z"/>
		<g>
			<path d="M19.416,6.223l-2-3C17.323,3.083,17.167,3,17,3h-2v1.5C15,4.776,14.776,5,14.5,5h-4C10.224,5,10,4.776,10,4.5V3H8
				C7.833,3,7.677,3.083,7.584,3.223l-2,3C5.481,6.376,5.472,6.573,5.56,6.736C5.647,6.898,5.815,7,6,7h2v3h9V7h2
				c0.185,0,0.354-0.102,0.44-0.264C19.528,6.573,19.519,6.376,19.416,6.223z M11.5,9H10C9.724,9,9.5,8.776,9.5,8.5S9.724,8,10,8
				h1.5C11.776,8,12,8.224,12,8.5S11.776,9,11.5,9z M15,9h-1.5C13.224,9,13,8.776,13,8.5S13.224,8,13.5,8H15
				c0.276,0,0.5,0.224,0.5,0.5S15.276,9,15,9z"/>
		</g>
	</g>
</g>
<g id="invisible_shape">
	<rect fill="none" width="24" height="24"/>
</g>
</svg>
