<?xml version="1.0" encoding="utf-8"?>
<!-- Generator: Adobe Illustrator 19.2.0, SVG Export Plug-In . SVG Version: 6.00 Build 0)  -->
<svg version="1.1" xmlns="http://www.w3.org/2000/svg" xmlns:xlink="http://www.w3.org/1999/xlink" x="0px" y="0px" width="24px"
	 height="24px" viewBox="0 0 24 24" enable-background="new 0 0 24 24" xml:space="preserve">
<g id="Filled_Icons">
	<g>
		<path d="M20.5,1h-3C17.224,1,17,1.224,17,1.5V3c0,0.551-0.448,1-1,1s-1-0.449-1-1V1.5C15,1.224,14.776,1,14.5,1h-5
			C9.224,1,9,1.224,9,1.5V3c0,0.551-0.448,1-1,1C7.733,4,7.482,3.896,7.293,3.707C7.104,3.518,7,3.267,7,3V1.5
			C7,1.224,6.776,1,6.5,1h-3C3.224,1,3,1.224,3,1.5V8c0,1.103,0.898,2,2,2h0.5h1h11H19c1.103,0,2-0.897,2-2V1.5
			C21,1.224,20.776,1,20.5,1z"/>
		<path d="M5.917,11L4.006,23.424c-0.022,0.144,0.02,0.291,0.114,0.401C4.216,23.937,4.354,24,4.5,24H10v-4.5c0-1.103,0.898-2,2-2
			s2,0.897,2,2V24h5.5c0.146,0,0.284-0.063,0.38-0.174c0.095-0.111,0.137-0.257,0.114-0.401L18.083,11H5.917z M12,16
			c-1.102,0-2-0.897-2-2s0.898-2,2-2s2,0.897,2,2S13.102,16,12,16z"/>
	</g>
</g>
<g id="invisible_shape">
	<rect fill="none" width="24" height="24"/>
</g>
</svg>
