<?xml version="1.0" encoding="utf-8"?>
<!-- Generator: Adobe Illustrator 19.2.0, SVG Export Plug-In . SVG Version: 6.00 Build 0)  -->
<svg version="1.1" xmlns="http://www.w3.org/2000/svg" xmlns:xlink="http://www.w3.org/1999/xlink" x="0px" y="0px" width="24px"
	 height="24px" viewBox="0 0 24 24" enable-background="new 0 0 24 24" xml:space="preserve">
<g id="Filled_Icons">
	<g>
		<path d="M4,15v-1.5C4,13.223,3.776,13,3.5,13h-3C0.224,13,0,13.223,0,13.5v10C0,23.776,0.224,24,0.5,24h2.413l1.286-9H4z"/>
		<path d="M23.5,13h-3c-0.276,0-0.5,0.223-0.5,0.5V15h-0.199l1.285,9H23.5c0.276,0,0.5-0.224,0.5-0.5v-10
			C24,13.223,23.776,13,23.5,13z"/>
		<path d="M19,10c1.065,0,2-0.873,2-2V4.5C21,4.223,20.776,4,20.5,4h-2C18.224,4,18,4.223,18,4.5V5c0,0.551-0.449,1-1,1
			c-0.552,0-1-0.449-1-1V4.5C16,4.223,15.776,4,15.5,4h-2C13.224,4,13,4.223,13,4.5V5c0,0.368-0.203,0.688-0.5,0.86H12V2
			c0.041,0,0.082-0.005,0.121-0.015l2-0.5C14.344,1.429,14.5,1.23,14.5,1s-0.156-0.429-0.379-0.485l-2-0.5
			C12.082,0.005,12.041,0,12,0h-0.5C11.224,0,11,0.224,11,0.5v1v3C11,4.223,10.776,4,10.5,4h-2C8.224,4,8,4.223,8,4.5V5
			c0,0.551-0.449,1-1,1C6.448,6,6,5.551,6,5V4.5C6,4.223,5.776,4,5.5,4h-2C3.224,4,3,4.223,3,4.5V8c0,1.119,0.927,2,2,2h0.924l-2,14
			H4.5h6c0.276,0,0.5-0.224,0.5-0.5v-4c0-0.552,0.448-1,1-1c0.551,0,1,0.448,1,1v4c0,0.276,0.224,0.5,0.5,0.5h6h0.576l-2-14H19z
			 M12.5,14H12v0.5c0,0.276-0.224,0.5-0.5,0.5S11,14.776,11,14.5V14h-0.5c-0.276,0-0.5-0.224-0.5-0.5c0-0.277,0.224-0.5,0.5-0.5H11
			v-0.5c0-0.277,0.224-0.5,0.5-0.5s0.5,0.223,0.5,0.5V13h0.5c0.276,0,0.5,0.223,0.5,0.5C13,13.776,12.776,14,12.5,14z"/>
	</g>
</g>
<g id="invisible_shape">
	<rect fill="none" width="24" height="24"/>
</g>
</svg>
