<?xml version="1.0" encoding="utf-8"?>
<!-- Generator: Adobe Illustrator 19.2.0, SVG Export Plug-In . SVG Version: 6.00 Build 0)  -->
<svg version="1.1" xmlns="http://www.w3.org/2000/svg" xmlns:xlink="http://www.w3.org/1999/xlink" x="0px" y="0px" width="24px"
	 height="24px" viewBox="0 0 24 24" enable-background="new 0 0 24 24" xml:space="preserve">
<g id="Filled_Icons">
	<g>
		<path d="M2.355,15.021C2.145,15.085,2,15.28,2,15.5V23H0.5C0.224,23,0,23.224,0,23.5S0.224,24,0.5,24h2H7V13.617L2.355,15.021z
			 M6,18.5C6,18.776,5.776,19,5.5,19h-2C3.224,19,3,18.776,3,18.5v-2C3,16.224,3.224,16,3.5,16h2C5.776,16,6,16.224,6,16.5V18.5z"/>
		<path d="M16,13c0-2.198-1.783-3.985-4-3.998V5h1.5C13.776,5,14,4.776,14,4.5S13.776,4,13.5,4H12V2.5
			C12.021,2.224,11.798,2,11.521,2c-0.276,0-0.5,0.224-0.5,0.5V4H9.5C9.224,4,9,4.224,9,4.5S9.224,5,9.5,5h1.521v4.135
			C9.29,9.575,8,11.134,8,13v0.314V24h0.5h7H16V13.294V13z M14,23h-4v-4c0-1.103,0.897-2,2-2s2,0.897,2,2V23z M12,15
			c-1.103,0-2-0.897-2-2s0.897-2,2-2s2,0.897,2,2S13.103,15,12,15z"/>
		<path d="M23.479,23H22v-7.5c0-0.22-0.144-0.414-0.354-0.478L17,13.6V24h4.5h1.979c0.276,0,0.5-0.224,0.5-0.5S23.755,23,23.479,23z
			 M21,18.5c0,0.276-0.224,0.5-0.5,0.5h-2c-0.276,0-0.5-0.224-0.5-0.5v-2c0-0.276,0.224-0.5,0.5-0.5h2c0.276,0,0.5,0.224,0.5,0.5
			V18.5z"/>
	</g>
</g>
<g id="invisible_shape">
	<rect fill="none" width="24" height="24"/>
</g>
</svg>
