<?xml version="1.0" encoding="utf-8"?>
<!-- Generator: Adobe Illustrator 19.2.0, SVG Export Plug-In . SVG Version: 6.00 Build 0)  -->
<svg version="1.1" xmlns="http://www.w3.org/2000/svg" xmlns:xlink="http://www.w3.org/1999/xlink" x="0px" y="0px" width="24px"
	 height="24px" viewBox="0 0 24 24" enable-background="new 0 0 24 24" xml:space="preserve">
<g id="Filled_Icons">
	<g>
		<path d="M0,4v5h2V7.5C2,6.672,2.672,6,3.5,6S5,6.672,5,7.5V9h2V7.5C7,6.672,7.672,6,8.5,6S10,6.672,10,7.5V9h2V4H0z"/>
		<path d="M0,11v5h2v-1.5C2,13.672,2.672,13,3.5,13S5,13.672,5,14.5V16h2v-1.5C7,13.672,7.672,13,8.5,13s1.5,0.672,1.5,1.5V16h2
			v-1.5c0-0.828,0.672-1.5,1.5-1.5s1.5,0.672,1.5,1.5V16h2v-5H0z"/>
		<path d="M0,18v6h2v-1.5C2,21.672,2.672,21,3.5,21S5,21.672,5,22.5V24h2v-1.5C7,21.672,7.672,21,8.5,21s1.5,0.672,1.5,1.5V24h2
			v-1.5c0-0.828,0.672-1.5,1.5-1.5s1.5,0.672,1.5,1.5V24h5v-6H0z"/>
	</g>
</g>
<g id="invisible_shape">
	<rect fill="none" width="24" height="24"/>
</g>
</svg>
