<?xml version="1.0" encoding="utf-8"?>
<!-- Generator: Adobe Illustrator 19.2.0, SVG Export Plug-In . SVG Version: 6.00 Build 0)  -->
<svg version="1.1" xmlns="http://www.w3.org/2000/svg" xmlns:xlink="http://www.w3.org/1999/xlink" x="0px" y="0px" width="24px"
	 height="24px" viewBox="0 0 24 24" enable-background="new 0 0 24 24" xml:space="preserve">
<g id="Filled_Icons">
	<path d="M20.5,9c0.133,0,0.26-0.053,0.354-0.146l3-3c0.195-0.195,0.195-0.512,0-0.707l-3-3C20.76,2.053,20.633,2,20.5,2H12V0.5
		C12,0.223,11.776,0,11.5,0S11,0.223,11,0.5V2H3.5C3.224,2,3,2.223,3,2.5v6C3,8.776,3.224,9,3.5,9H11v1H3.5
		c-0.133,0-0.26,0.053-0.353,0.146l-3,3c-0.195,0.195-0.195,0.512,0,0.708l3,3C3.24,16.947,3.367,17,3.5,17H11v6.5
		c0,0.276,0.224,0.5,0.5,0.5s0.5-0.224,0.5-0.5V17h8.5c0.276,0,0.5-0.224,0.5-0.5v-6c0-0.277-0.224-0.5-0.5-0.5H12V9H20.5z"/>
</g>
<g id="invisible_shape">
	<rect fill="none" width="24" height="24"/>
</g>
</svg>
