<?xml version="1.0" encoding="utf-8"?>
<!-- Generator: Adobe Illustrator 19.2.0, SVG Export Plug-In . SVG Version: 6.00 Build 0)  -->
<svg version="1.1" xmlns="http://www.w3.org/2000/svg" xmlns:xlink="http://www.w3.org/1999/xlink" x="0px" y="0px" width="24px"
	 height="24px" viewBox="0 0 24 24" enable-background="new 0 0 24 24" xml:space="preserve">
<g id="Filled_Icons">
	<g>
		<path d="M20.5,22h-18C2.224,22,2,22.223,2,22.5v1C2,23.776,2.224,24,2.5,24h18c0.276,0,0.5-0.224,0.5-0.5v-1
			C21,22.223,20.776,22,20.5,22z"/>
		<path d="M4.5,21h14c0.276,0,0.5-0.225,0.5-0.5v-20C19,0.223,18.776,0,18.5,0h-14C4.224,0,4,0.223,4,0.5v20
			C4,20.775,4.224,21,4.5,21z M15.91,8.991c-0.267-0.053-0.446-0.312-0.397-0.581c0.05-0.269,0.3-0.451,0.567-0.404
			C16.523,8.08,17,8.422,17,9v3c0,0.65-0.515,1-1,1c-0.276,0-0.5-0.224-0.5-0.5c0-0.277,0.224-0.5,0.5-0.5V9.002
			C15.997,9.02,15.946,9,15.91,8.991z"/>
	</g>
</g>
<g id="invisible_shape">
	<rect fill="none" width="24" height="24"/>
</g>
</svg>
