<?xml version="1.0" encoding="utf-8"?>
<!-- Generator: Adobe Illustrator 19.2.0, SVG Export Plug-In . SVG Version: 6.00 Build 0)  -->
<svg version="1.1" xmlns="http://www.w3.org/2000/svg" xmlns:xlink="http://www.w3.org/1999/xlink" x="0px" y="0px" width="24px"
	 height="24px" viewBox="0 0 24 24" enable-background="new 0 0 24 24" xml:space="preserve">
<g id="Filled_Icons">
	<g>
		<path d="M16,10H8v2h0.963c-0.344,0.986-0.736,1.99-1.154,3h2.441L11,12h2l0.75,3h2.441c-0.418-1.01-0.811-2.014-1.154-3H16V10z"/>
		<path d="M17.531,18H20v-2H4v2h2.469C5.487,20.02,4.357,22.04,3,24h5c0-2.209,0.791-4,3-4h2c2.209,0,3,1.791,3,4h5
			C19.643,22.04,18.513,20.02,17.531,18z"/>
		<path d="M14.088,9C13.674,7.61,13.303,6.255,13,5V3l-1-2l-1,2v2c-0.303,1.255-0.674,2.61-1.088,4H14.088z"/>
	</g>
</g>
<g id="invisible_shape">
	<rect fill="none" width="24" height="24"/>
</g>
</svg>
