<?xml version="1.0" encoding="utf-8"?>
<!-- Generator: Adobe Illustrator 19.2.0, SVG Export Plug-In . SVG Version: 6.00 Build 0)  -->
<svg version="1.1" xmlns="http://www.w3.org/2000/svg" xmlns:xlink="http://www.w3.org/1999/xlink" x="0px" y="0px" width="24px"
	 height="24px" viewBox="0 0 24 24" enable-background="new 0 0 24 24" xml:space="preserve">
<g id="Filled_Icons">
	<g>
		<path d="M11.72,5h2.78C14.776,5,15,4.776,15,4.5C15,4.223,14.776,4,14.5,4H14V2.5C14,2.223,13.776,2,13.5,2S13,2.223,13,2.5V4h-1
			V2.5C12,2.223,11.776,2,11.5,2S11,2.223,11,2.5V4H4V2.5C4,2.223,3.776,2,3.5,2S3,2.223,3,2.5V4H2V2.5C2,2.223,1.776,2,1.5,2
			S1,2.223,1,2.5V4H0.563c-0.276,0-0.5,0.223-0.5,0.5c0,0.276,0.224,0.5,0.5,0.5h2.736L7,9.674V23.5C7,23.776,7.224,24,7.5,24
			S8,23.776,8,23.5V9.675L11.72,5z M4.574,5h5.867l-2.94,3.696L4.574,5z"/>
		<path d="M23.5,11H23v-0.5c0-0.277-0.224-0.5-0.5-0.5S22,10.223,22,10.5V11h-7v-0.5c0-0.277-0.224-0.5-0.5-0.5S14,10.223,14,10.5
			V11h-1v-0.5c0-0.277-0.224-0.5-0.5-0.5S12,10.223,12,10.5V11h-0.438c-0.276,0-0.5,0.223-0.5,0.5c0,0.276,0.224,0.5,0.5,0.5h2.727
			L17,15.665V23.5c0,0.276,0.224,0.5,0.5,0.5s0.5-0.224,0.5-0.5v-7.835L20.729,12H23.5c0.276,0,0.5-0.224,0.5-0.5
			C24,11.223,23.776,11,23.5,11z M17.501,14.661L15.532,12h3.95L17.501,14.661z"/>
	</g>
</g>
<g id="invisible_shape">
	<rect fill="none" width="24" height="24"/>
</g>
</svg>
