<?xml version="1.0" encoding="utf-8"?>
<!-- Generator: Adobe Illustrator 19.2.0, SVG Export Plug-In . SVG Version: 6.00 Build 0)  -->
<svg version="1.1" xmlns="http://www.w3.org/2000/svg" xmlns:xlink="http://www.w3.org/1999/xlink" x="0px" y="0px" width="24px"
	 height="24px" viewBox="0 0 24 24" enable-background="new 0 0 24 24" xml:space="preserve">
<g id="Filled_Icons">
	<g>
		<path d="M18,13.768V10.35l-6,3.4v-3.491L6.611,13.79L4.754,4.912H1.509L0.005,15.516L0,24h24V10.321L18,13.768z M9.006,21H7.5
			C7.224,21,7,20.775,7,20.5C7,20.224,7.224,20,7.5,20h1.506c0.276,0,0.5,0.224,0.5,0.5C9.506,20.775,9.282,21,9.006,21z M9.006,18
			H7.5C7.224,18,7,17.776,7,17.5C7,17.224,7.224,17,7.5,17h1.506c0.276,0,0.5,0.224,0.5,0.5C9.506,17.776,9.282,18,9.006,18z
			 M15.029,21h-1.506c-0.276,0-0.5-0.225-0.5-0.5c0-0.276,0.224-0.5,0.5-0.5h1.506c0.276,0,0.5,0.224,0.5,0.5
			C15.529,20.775,15.306,21,15.029,21z M15.029,18h-1.506c-0.276,0-0.5-0.224-0.5-0.5c0-0.276,0.224-0.5,0.5-0.5h1.506
			c0.276,0,0.5,0.224,0.5,0.5C15.529,17.776,15.306,18,15.029,18z M21.052,21h-1.506c-0.276,0-0.5-0.225-0.5-0.5
			c0-0.276,0.224-0.5,0.5-0.5h1.506c0.276,0,0.5,0.224,0.5,0.5C21.552,20.775,21.328,21,21.052,21z M21.052,18h-1.506
			c-0.276,0-0.5-0.224-0.5-0.5c0-0.276,0.224-0.5,0.5-0.5h1.506c0.276,0,0.5,0.224,0.5,0.5C21.552,17.776,21.328,18,21.052,18z"/>
		<path d="M2.773,3.255c0.464-0.289,0.95-0.43,1.488-0.43c1.951,0,4.127,1.808,6.667,1.808c1.991,0,3.802-1.149,5.535-3.514
			c0.151-0.206,0.123-0.494-0.066-0.666c-0.189-0.173-0.478-0.173-0.669-0.003c-0.808,0.717-1.642,1.052-2.626,1.052
			C11.015,1.503,8.814,0,6.509,0C4.825,0,3.385,0.829,2.107,2.532C1.963,2.724,1.977,2.993,2.14,3.17
			C2.303,3.347,2.568,3.383,2.773,3.255z"/>
	</g>
</g>
<g id="invisible_shape">
	<rect fill="none" width="24" height="24"/>
</g>
</svg>
