<?xml version="1.0" encoding="utf-8"?>
<!-- Generator: Adobe Illustrator 19.2.0, SVG Export Plug-In . SVG Version: 6.00 Build 0)  -->
<svg version="1.1" xmlns="http://www.w3.org/2000/svg" xmlns:xlink="http://www.w3.org/1999/xlink" x="0px" y="0px" width="24px"
	 height="24px" viewBox="0 0 24 24" enable-background="new 0 0 24 24" xml:space="preserve">
<g id="Filled_Icons">
	<g>
		<path d="M23.5,23H22V12.5c0-0.277-0.225-0.5-0.5-0.5h-19C2.224,12,2,12.223,2,12.5V23H0.5C0.224,23,0,23.223,0,23.5
			C0,23.776,0.224,24,0.5,24h23c0.275,0,0.5-0.224,0.5-0.5C24,23.223,23.775,23,23.5,23z M19,23H5v-9h14V23z"/>
		<path d="M23.699,8.041l-11.5-5c-0.127-0.055-0.271-0.055-0.398,0l-11.5,5C0.118,8.121,0,8.301,0,8.5v2C0,10.776,0.224,11,0.5,11
			h23c0.275,0,0.5-0.224,0.5-0.5v-2C24,8.301,23.882,8.121,23.699,8.041z"/>
		<path d="M6.5,17h11c0.275,0,0.5-0.224,0.5-0.5c0-0.277-0.225-0.5-0.5-0.5h-11C6.224,16,6,16.223,6,16.5C6,16.776,6.224,17,6.5,17z
			"/>
		<path d="M6.5,19h11c0.275,0,0.5-0.224,0.5-0.5c0-0.277-0.225-0.5-0.5-0.5h-11C6.224,18,6,18.223,6,18.5C6,18.776,6.224,19,6.5,19z
			"/>
		<path d="M6.5,21h11c0.275,0,0.5-0.224,0.5-0.5c0-0.277-0.225-0.5-0.5-0.5h-11C6.224,20,6,20.223,6,20.5C6,20.776,6.224,21,6.5,21z
			"/>
	</g>
</g>
<g id="invisible_shape">
	<rect fill="none" width="24" height="24"/>
</g>
</svg>
