<?xml version="1.0" encoding="utf-8"?>
<!-- Generator: Adobe Illustrator 19.2.0, SVG Export Plug-In . SVG Version: 6.00 Build 0)  -->
<svg version="1.1" xmlns="http://www.w3.org/2000/svg" xmlns:xlink="http://www.w3.org/1999/xlink" x="0px" y="0px" width="24px"
	 height="24px" viewBox="0 0 24 24" enable-background="new 0 0 24 24" xml:space="preserve">
<g id="Filled_Icons">
	<g>
		<rect x="4" y="4" width="16" height="4"/>
		<g>
			<polygon points="3,19 2,19 2,21 3,21 3,24 8,24 8,19 			"/>
			<polygon points="16,19 16,24 21,24 21,21 22,21 22,19 21,19 			"/>
			<path d="M2,9v2h1v7h5v-1c0-2.209,1.791-4,4-4s4,1.791,4,4v1h5v-7h1V9H2z"/>
		</g>
	</g>
</g>
<g id="invisible_shape">
	<rect fill="none" width="24" height="24"/>
</g>
</svg>
