<?xml version="1.0" encoding="utf-8"?>
<!-- Generator: Adobe Illustrator 19.2.0, SVG Export Plug-In . SVG Version: 6.00 Build 0)  -->
<svg version="1.1" xmlns="http://www.w3.org/2000/svg" xmlns:xlink="http://www.w3.org/1999/xlink" x="0px" y="0px" width="24px"
	 height="24px" viewBox="0 0 24 24" enable-background="new 0 0 24 24" xml:space="preserve">
<g id="Filled_Icons">
	<path d="M21.14,4.236c-0.47,1.332-1.426,3.465-2.916,4.211c-0.107,0.053-0.23,0.066-0.345,0.037
		c-1.057-0.263-2.127,0.127-2.674,0.439c0.23,0.309,0.487,0.846,0.733,1.774c0.213,0.075,0.628-0.038,0.837-0.144
		c0.193-0.097,0.425-0.059,0.578,0.094c1.213,1.213-0.359,2.847-1.299,3.825c-0.166,0.172-0.378,0.392-0.496,0.536
		c0.04,0.037,0.087,0.079,0.124,0.11c0.228,0.199,0.541,0.471,0.557,0.902c0.01,0.287-0.12,0.567-0.386,0.834
		c-0.519,0.518-1.042,0.823-1.367,0.981C14.343,19.535,13.09,20.5,11,20.5c-0.976,0-2-2.493-2-3c0-0.368,0.16-0.69,0.303-0.974
		C9.399,16.333,9.5,16.132,9.5,16c-0.023-0.171-0.43-0.721-0.854-1.146C8.553,14.761,8.5,14.633,8.5,14.5
		c0-0.429-0.077-0.72-0.229-0.863C8.019,13.4,7.422,13.434,6.793,13.47C6.534,13.484,6.267,13.5,6,13.5c-1.582,0-2-1.635-2-2.5
		c0-0.16,0.033-3.917,2.901-4.49c1.308-0.262,2.19-0.185,2.703,0.236C9.785,6.894,9.894,7.068,9.95,7.23
		c0.526,0.389,1.47,0.168,2.309-0.026c0.277-0.065,0.546-0.127,0.795-0.165c0.093-0.845,0.096-1.663,0.009-2.018
		c-0.613,0.257-1.222,0.255-1.698-0.009c-0.493-0.274-0.8-0.795-0.862-1.467c-0.134-1.438,2.641-2.556,4.547-3.152
		C14.074,0.137,13.053,0,12,0C5.383,0,0,5.383,0,12s5.383,12,12,12c6.616,0,12-5.383,12-12C24,9.042,22.921,6.332,21.14,4.236z"/>
</g>
<g id="invisible_shape">
	<rect fill="none" width="24" height="24"/>
</g>
</svg>
