<?xml version="1.0" encoding="utf-8"?>
<!-- Generator: Adobe Illustrator 19.2.0, SVG Export Plug-In . SVG Version: 6.00 Build 0)  -->
<svg version="1.1" xmlns="http://www.w3.org/2000/svg" xmlns:xlink="http://www.w3.org/1999/xlink" x="0px" y="0px" width="24px"
	 height="24px" viewBox="0 0 24 24" enable-background="new 0 0 24 24" xml:space="preserve">
<g id="Filled_Icons">
	<g>
		<path d="M13.283,16h-2.429c0.331,0.661,0.734,1.32,1.214,1.978C12.548,17.32,12.951,16.66,13.283,16z"/>
		<path d="M14.385,12H9.752c0.043,0.984,0.257,1.988,0.651,3h3.33C14.127,13.988,14.342,12.984,14.385,12z"/>
		<path d="M10.612,8h2.912c-0.369-0.731-0.853-1.435-1.456-2.104C11.466,6.565,10.981,7.269,10.612,8z"/>
		<path d="M15.354,11h3.643c-0.096-0.706-0.297-1.377-0.589-2h-3.413C15.191,9.652,15.307,10.321,15.354,11z"/>
		<path d="M12.718,5.117c0.83,0.898,1.458,1.868,1.9,2.883h3.217c-1.173-1.695-3.079-2.852-5.247-3.023L12.718,5.117z"/>
		<path d="M14.786,15h3.563c0.444-0.909,0.702-1.924,0.713-3h-3.695C15.328,12.988,15.137,13.993,14.786,15z"/>
		<path d="M9.765,11h4.608c-0.054-0.682-0.199-1.349-0.426-2h-3.755C9.963,9.651,9.818,10.318,9.765,11z"/>
		<path d="M12.75,18.745l-0.133,0.177c2.116-0.171,3.966-1.285,5.136-2.922h-3.365C13.973,16.922,13.429,17.841,12.75,18.745z"/>
		<path d="M11.386,18.746c-0.678-0.904-1.223-1.824-1.639-2.746H6.406c1.173,1.647,3.013,2.761,5.113,2.923L11.386,18.746z"/>
		<path d="M9.144,9H5.658c-0.275,0.621-0.462,1.292-0.543,2h3.668C8.83,10.321,8.945,9.652,9.144,9z"/>
		<path d="M11.419,5.117l0.13-0.142C9.273,5.133,7.349,6.281,6.202,8h3.317C9.961,6.985,10.589,6.016,11.419,5.117z"/>
		<path d="M8.771,12H5.075c0.028,1.077,0.289,2.092,0.735,3h3.541C9,13.993,8.809,12.988,8.771,12z"/>
		<path d="M23.953,11.597l-3-3c-0.195-0.195-0.512-0.195-0.707,0c-0.195,0.196-0.195,0.512,0,0.707l2.646,2.646l-2.646,2.647
			c-0.195,0.196-0.195,0.512,0,0.707c0.098,0.097,0.226,0.146,0.354,0.146c0.128,0,0.256-0.049,0.354-0.146l3-3
			C24.148,12.109,24.148,11.793,23.953,11.597z"/>
		<path d="M14.696,20.147l-2.646,2.646l-2.646-2.646c-0.195-0.195-0.512-0.195-0.707,0c-0.195,0.195-0.195,0.511,0,0.707l3,3
			c0.098,0.098,0.226,0.147,0.354,0.147s0.256-0.049,0.354-0.147l3-3c0.195-0.195,0.195-0.512,0-0.707
			C15.208,19.952,14.892,19.952,14.696,20.147z"/>
		<path d="M3.853,8.597c-0.195-0.195-0.512-0.195-0.707,0l-3,3c-0.195,0.196-0.195,0.512,0,0.707l3,3
			c0.098,0.097,0.226,0.146,0.353,0.146s0.256-0.049,0.353-0.146c0.195-0.196,0.195-0.512,0-0.707l-2.646-2.647l2.646-2.646
			C4.049,9.109,4.049,8.793,3.853,8.597z"/>
		<path d="M9.403,3.756L12.05,1.11l2.646,2.646c0.098,0.097,0.226,0.146,0.354,0.146s0.256-0.049,0.354-0.146
			c0.195-0.196,0.195-0.512,0-0.707l-3-3c-0.195-0.195-0.512-0.195-0.707,0l-3,3c-0.195,0.195-0.195,0.512,0,0.707
			C8.892,3.951,9.208,3.951,9.403,3.756z"/>
	</g>
</g>
<g id="invisible_shape">
	<rect fill="none" width="24" height="24"/>
</g>
</svg>
