<?xml version="1.0" encoding="utf-8"?>
<!-- Generator: Adobe Illustrator 19.2.0, SVG Export Plug-In . SVG Version: 6.00 Build 0)  -->
<svg version="1.1" xmlns="http://www.w3.org/2000/svg" xmlns:xlink="http://www.w3.org/1999/xlink" x="0px" y="0px" width="24px"
	 height="24px" viewBox="0 0 24 24" enable-background="new 0 0 24 24" xml:space="preserve">
<g id="Filled_Icons">
	<path d="M23.5,23H22v-9.843l1.236,0.768C23.318,13.975,23.409,14,23.499,14c0.167,0,0.331-0.085,0.426-0.237
		c0.145-0.234,0.073-0.542-0.161-0.688L21,11.35V6.5C21,6.223,20.775,6,20.5,6h-2C18.224,6,18,6.223,18,6.5v2.989L9.264,4.075
		C9.029,3.929,8.721,4.002,8.575,4.236C8.43,4.471,8.501,4.78,8.736,4.925L10,5.709v5.452l-9.686,3.874
		c-0.257,0.102-0.382,0.394-0.279,0.649C0.113,15.881,0.302,16,0.5,16c0.062,0,0.125-0.012,0.186-0.036L2,15.439V23H0.5
		C0.224,23,0,23.223,0,23.5C0,23.776,0.224,24,0.5,24h23c0.275,0,0.5-0.224,0.5-0.5C24,23.223,23.775,23,23.5,23z M9,22.5
		C9,22.776,8.775,23,8.5,23h-4C4.224,23,4,22.776,4,22.5v-4C4,18.223,4.224,18,4.5,18h4C8.775,18,9,18.223,9,18.5V22.5z M8.5,17h-4
		C4.224,17,4,16.776,4,16.5C4,16.223,4.224,16,4.5,16h4C8.775,16,9,16.223,9,16.5C9,16.776,8.775,17,8.5,17z M16,23h-3h-1v-3.5
		c0-0.277,0.224-0.5,0.5-0.5H16V23z M14,14.5c-1.104,0-2-0.898-2-2c0-1.102,0.896-2,2-2c1.102,0,2,0.898,2,2
		C16,13.602,15.102,14.5,14,14.5z M20,23h-1h-2v-4h2.5c0.275,0,0.5,0.223,0.5,0.5V23z"/>
</g>
<g id="invisible_shape">
	<rect fill="none" width="24" height="24"/>
</g>
</svg>
