<?xml version="1.0" encoding="utf-8"?>
<!-- Generator: Adobe Illustrator 19.2.0, SVG Export Plug-In . SVG Version: 6.00 Build 0)  -->
<svg version="1.1" xmlns="http://www.w3.org/2000/svg" xmlns:xlink="http://www.w3.org/1999/xlink" x="0px" y="0px" width="24px"
	 height="24px" viewBox="0 0 24 24" enable-background="new 0 0 24 24" xml:space="preserve">
<g id="Filled_Icons">
	<g>
		<g>
			<path d="M7.5,4h-1h-2H3.516c-0.276,0-0.5,0.224-0.5,0.5c0,0.276,0.224,0.5,0.5,0.5H4v1.5C4,6.776,4.224,7,4.5,7h2
				C6.776,7,7,6.776,7,6.5V5h0.5C7.776,5,8,4.776,8,4.5C8,4.224,7.776,4,7.5,4z"/>
		</g>
		<g>
			<path d="M20.5,4h-1h-2h-0.984c-0.276,0-0.5,0.224-0.5,0.5c0,0.276,0.224,0.5,0.5,0.5H17v1.5C17,6.776,17.224,7,17.5,7h2
				C19.776,7,20,6.776,20,6.5V5h0.5C20.776,5,21,4.776,21,4.5C21,4.224,20.776,4,20.5,4z"/>
		</g>
		<g>
			<path d="M17.823,12.102l-5.431-6.891c-0.189-0.24-0.596-0.24-0.785,0l-5.5,6.979c-0.119,0.15-0.142,0.356-0.058,0.528
				C6.134,12.892,6.309,13,6.5,13h11c0.006,0,0.013,0,0.02,0c0.276,0,0.5-0.224,0.5-0.5C18.02,12.338,17.943,12.194,17.823,12.102z"
				/>
		</g>
		<path d="M8,14v9.5C8,23.776,8.224,24,8.5,24H10v-6.5c0-0.276,0.224-0.5,0.5-0.5h3c0.276,0,0.5,0.224,0.5,0.5V24h1.5
			c0.276,0,0.5-0.224,0.5-0.5V14H8z"/>
		<g>
			<path d="M7,24v-7H2v6.5C2,23.776,2.224,24,2.5,24H7L7,24z M6,20.5C6,20.776,5.776,21,5.5,21h-2C3.224,21,3,20.776,3,20.5v-2
				C3,18.223,3.224,18,3.5,18h2C5.776,18,6,18.223,6,18.5V20.5z"/>
			<path d="M17,17v7l0,0h4.5c0.276,0,0.5-0.224,0.5-0.5V17H17z M21,20.5c0,0.276-0.224,0.5-0.5,0.5h-2c-0.276,0-0.5-0.224-0.5-0.5
				v-2c0-0.277,0.224-0.5,0.5-0.5h2c0.276,0,0.5,0.223,0.5,0.5V20.5z"/>
		</g>
		<path d="M7,14H6.5c-0.575,0-1.099-0.328-1.35-0.845c-0.251-0.516-0.185-1.132,0.171-1.583L8.137,8H3.5
			C3.3,8,3.119,8.119,3.04,8.303l-3,7c-0.066,0.155-0.05,0.332,0.042,0.472C0.175,15.915,0.332,16,0.5,16H7V14z"/>
		<path d="M23.959,15.303l-3-7C20.881,8.119,20.7,8,20.5,8h-4.636l2.688,3.411c0.288,0.274,0.468,0.662,0.468,1.089
			c0,0.829-0.671,1.5-1.5,1.5c-0.007,0-0.014,0-0.02,0H17v2h6.5c0.168,0,0.324-0.085,0.417-0.225
			C24.01,15.635,24.026,15.458,23.959,15.303z"/>
	</g>
</g>
<g id="invisible_shape">
	<rect fill="none" width="24" height="24"/>
</g>
</svg>
