<?xml version="1.0" encoding="utf-8"?>
<!-- Generator: Adobe Illustrator 19.2.0, SVG Export Plug-In . SVG Version: 6.00 Build 0)  -->
<svg version="1.1" xmlns="http://www.w3.org/2000/svg" xmlns:xlink="http://www.w3.org/1999/xlink" x="0px" y="0px" width="24px"
	 height="24px" viewBox="0 0 24 24" enable-background="new 0 0 24 24" xml:space="preserve">
<g id="Filled_Icons">
	<g>
		<path d="M14.378,11.053c-0.142-0.066-0.309-0.061-0.448,0.013c-0.139,0.075-0.235,0.211-0.258,0.367
			c-0.106,0.712-0.434,1.476-0.845,2.009C12.309,12.803,12,11.931,12,11.061c0-1.266,0.997-2.531,1.981-3.128
			c0.205-0.124,0.293-0.376,0.21-0.6c-0.084-0.226-0.311-0.356-0.552-0.321c-4.97,0.831-8.862,5.343-8.862,10.27
			c0,3.708,3.016,6.723,6.723,6.723s6.723-3.016,6.723-6.723C18.223,14.629,16.678,12.125,14.378,11.053z"/>
		<g>
			<path d="M22.999,12.006c-0.239,0-0.48-0.086-0.672-0.261L12,2.358L1.673,11.746c-0.41,0.373-1.042,0.342-1.413-0.067
				c-0.372-0.408-0.342-1.041,0.067-1.412l11-10c0.382-0.347,0.964-0.347,1.346,0l11,10c0.408,0.371,0.438,1.003,0.066,1.412
				C23.542,11.896,23.271,12.006,22.999,12.006z"/>
		</g>
	</g>
</g>
<g id="invisible_shape">
	<rect fill="none" width="24" height="24"/>
</g>
</svg>
