<?xml version="1.0" encoding="utf-8"?>
<!-- Generator: Adobe Illustrator 19.2.0, SVG Export Plug-In . SVG Version: 6.00 Build 0)  -->
<svg version="1.1" xmlns="http://www.w3.org/2000/svg" xmlns:xlink="http://www.w3.org/1999/xlink" x="0px" y="0px" width="24px"
	 height="24px" viewBox="0 0 24 24" enable-background="new 0 0 24 24" xml:space="preserve">
<g id="Filled_Icons">
	<g>
		<path d="M7.528,10C7.777,7.753,9.688,6,12,6s4.223,1.753,4.472,4h7.367l-3.875-9.686C19.888,0.124,19.705,0,19.5,0h-15
			C4.295,0,4.112,0.124,4.036,0.315L0.161,10H7.528z"/>
		<path d="M16,11c-0.276,0-0.5-0.224-0.5-0.5C15.5,8.57,13.93,7,12,7s-3.5,1.57-3.5,3.5C8.5,10.776,8.276,11,8,11H1v12.5
			C1,23.776,1.224,24,1.5,24H10v-4c0-1.103,0.897-2,2-2s2,0.897,2,2v4h8.5c0.276,0,0.5-0.224,0.5-0.5V11H16z M7,21H3v-3h4V21z M7,16
			H3v-3h4V16z M14,14.5c0,0.276-0.224,0.5-0.5,0.5h-3c-0.276,0-0.5-0.224-0.5-0.5V11c0-1.103,0.897-2,2-2s2,0.897,2,2V14.5z M21,21
			h-4v-3h4V21z M21,16h-4v-3h4V16z"/>
	</g>
</g>
<g id="invisible_shape">
	<rect fill="none" width="24" height="24"/>
</g>
</svg>
