<?xml version="1.0" encoding="utf-8"?>
<!-- Generator: Adobe Illustrator 19.2.0, SVG Export Plug-In . SVG Version: 6.00 Build 0)  -->
<svg version="1.1" xmlns="http://www.w3.org/2000/svg" xmlns:xlink="http://www.w3.org/1999/xlink" x="0px" y="0px" width="24px"
	 height="24px" viewBox="0 0 24 24" enable-background="new 0 0 24 24" xml:space="preserve">
<g id="Filled_Icons">
	<g>
		<path d="M9,10.713l-6,6.706v6.044c0,0.276,0.224,0.5,0.5,0.5h11c0.276,0,0.5-0.224,0.5-0.5v-6.044L9,10.713z M10.5,16.963
			c0,0.276-0.224,0.5-0.5,0.5H8c-0.276,0-0.5-0.224-0.5-0.5v-2c0-0.277,0.224-0.5,0.5-0.5h2c0.276,0,0.5,0.223,0.5,0.5V16.963z"/>
		<g>
			<path d="M17.5,18.463c-0.138,0-0.274-0.056-0.373-0.166L9,9.213l-8.127,9.084c-0.184,0.205-0.5,0.223-0.707,0.039
				c-0.205-0.185-0.223-0.5-0.039-0.706l8.5-9.5c0.189-0.212,0.556-0.212,0.746,0l8.5,9.5c0.184,0.206,0.167,0.521-0.04,0.706
				C17.737,18.42,17.619,18.463,17.5,18.463z"/>
		</g>
		<path d="M22.995,6.334c-0.023-0.179-0.142-0.332-0.309-0.399c-0.167-0.068-0.357-0.039-0.498,0.073
			c-0.016,0.011-1.557,1.22-3.303,1.22c-0.289,0-0.569-0.034-0.839-0.101c0.061-1.028,0.359-4.009,1.816-6.372
			c0.095-0.155,0.099-0.348,0.011-0.506c-0.089-0.159-0.255-0.257-0.437-0.257c-2.173,0-5.391,1.241-7.017,3.318
			c-0.748,0.956-1.097,2.012-1.026,3.09c-1.233-0.542-2.51-2.484-2.955-3.304C8.362,2.957,8.223,2.861,8.063,2.841
			C7.905,2.823,7.743,2.878,7.634,2.997c-0.108,0.116-2.64,2.887-1.588,5.676c0,0,0.065,0.14,0.183,0.37
			c0.028,0.055,0.073,0.096,0.118,0.136l1.535-1.716c0.559-0.625,1.677-0.627,2.236,0l7.745,8.656
			c0.313-0.072,0.59-0.148,0.818-0.237C23.924,13.835,23.036,6.639,22.995,6.334z"/>
	</g>
</g>
<g id="invisible_shape">
	<rect fill="none" width="24" height="24"/>
</g>
</svg>
