<?xml version="1.0" encoding="utf-8"?>
<!-- Generator: Adobe Illustrator 19.2.0, SVG Export Plug-In . SVG Version: 6.00 Build 0)  -->
<svg version="1.1" xmlns="http://www.w3.org/2000/svg" xmlns:xlink="http://www.w3.org/1999/xlink" x="0px" y="0px" width="24px"
	 height="24px" viewBox="0 0 24 24" enable-background="new 0 0 24 24" xml:space="preserve">
<g id="Filled_Icons">
	<g>
		<g>
			<g>
				<path d="M9,10.75l-6,6.706V23.5C3,23.776,3.224,24,3.5,24h11c0.276,0,0.5-0.224,0.5-0.5v-6.044L9,10.75z M10,15.5
					c0,0.276-0.224,0.5-0.5,0.5h-1C8.224,16,8,15.776,8,15.5v-1C8,14.223,8.224,14,8.5,14h1c0.276,0,0.5,0.223,0.5,0.5V15.5z"/>
			</g>
			<g>
				<g>
					<path d="M17.127,18.334L9,9.25l-8.127,9.084c-0.184,0.206-0.5,0.223-0.707,0.039c-0.205-0.185-0.223-0.5-0.039-0.706l8.5-9.5
						c0.189-0.212,0.556-0.212,0.746,0l8.5,9.5c0.184,0.206,0.167,0.521-0.04,0.706C17.623,18.559,17.309,18.536,17.127,18.334z"/>
				</g>
			</g>
		</g>
		<g>
			<path d="M21.5,1h-11C10.224,1,10,0.776,10,0.5S10.224,0,10.5,0h11C21.776,0,22,0.224,22,0.5S21.776,1,21.5,1z"/>
		</g>
		<g>
			<path d="M22.5,3h-10C12.224,3,12,2.776,12,2.5S12.224,2,12.5,2h10C22.776,2,23,2.224,23,2.5S22.776,3,22.5,3z"/>
		</g>
		<g>
			<path d="M23.5,5h-9C14.224,5,14,4.776,14,4.5S14.224,4,14.5,4h9C23.776,4,24,4.224,24,4.5S23.776,5,23.5,5z"/>
		</g>
		<g>
			<path d="M21.5,7h-10C11.224,7,11,6.776,11,6.5S11.224,6,11.5,6h10C21.776,6,22,6.224,22,6.5S21.776,7,21.5,7z"/>
		</g>
		<g>
			<path d="M19.5,9h-7C12.224,9,12,8.776,12,8.5S12.224,8,12.5,8h7C19.776,8,20,8.224,20,8.5S19.776,9,19.5,9z"/>
		</g>
		<g>
			<path d="M21.5,11h-6c-0.276,0-0.5-0.224-0.5-0.5s0.224-0.5,0.5-0.5h6c0.276,0,0.5,0.224,0.5,0.5S21.776,11,21.5,11z"/>
		</g>
		<g>
			<path d="M22.5,13h-5c-0.276,0-0.5-0.224-0.5-0.5s0.224-0.5,0.5-0.5h5c0.276,0,0.5,0.224,0.5,0.5S22.776,13,22.5,13z"/>
		</g>
		<g>
			<path d="M21.5,15h-2c-0.276,0-0.5-0.224-0.5-0.5s0.224-0.5,0.5-0.5h2c0.276,0,0.5,0.224,0.5,0.5S21.776,15,21.5,15z"/>
		</g>
		<g>
			<path d="M20.5,17h-1c-0.276,0-0.5-0.224-0.5-0.5s0.224-0.5,0.5-0.5h1c0.276,0,0.5,0.224,0.5,0.5S20.776,17,20.5,17z"/>
		</g>
	</g>
</g>
<g id="invisible_shape">
	<rect fill="none" width="24" height="24"/>
</g>
</svg>
