<?xml version="1.0" encoding="utf-8"?>
<!-- Generator: Adobe Illustrator 19.2.0, SVG Export Plug-In . SVG Version: 6.00 Build 0)  -->
<svg version="1.1" xmlns="http://www.w3.org/2000/svg" xmlns:xlink="http://www.w3.org/1999/xlink" x="0px" y="0px" width="24px"
	 height="24px" viewBox="0 0 24 24" enable-background="new 0 0 24 24" xml:space="preserve">
<g id="Filled_Icons">
	<g>
		<path d="M20.5,3.5C20.5,3,20,3,20,3h-2.5c0,0-0.5,0-0.5,0.5s0,1,0,1L20.5,8C20.5,8,20.5,4,20.5,3.5z"/>
		<path d="M23.854,12.646l-11.5-11.5c-0.195-0.195-0.512-0.195-0.707,0l-11.5,11.5C-0.168,12.962,0.055,13.5,0.5,13.5H3v10
			C3,23.776,3.224,24,3.5,24h17c0.276,0,0.5-0.224,0.5-0.5v-10h2.5C23.945,13.5,24.167,12.962,23.854,12.646z M12.294,19.904
			C12.206,19.969,12.104,20,12,20s-0.206-0.031-0.294-0.096C11.225,19.555,7,16.407,7,13.803c0-1.867,1.387-2.984,2.727-2.984
			c0.771,0,1.674,0.38,2.273,1.368c0.599-0.988,1.501-1.368,2.273-1.368c1.341,0,2.727,1.117,2.727,2.984
			C17,16.407,12.775,19.555,12.294,19.904z"/>
	</g>
</g>
<g id="invisible_shape">
	<rect fill="none" width="24" height="24"/>
</g>
</svg>
