<?xml version="1.0" encoding="utf-8"?>
<!-- Generator: Adobe Illustrator 19.2.0, SVG Export Plug-In . SVG Version: 6.00 Build 0)  -->
<svg version="1.1" xmlns="http://www.w3.org/2000/svg" xmlns:xlink="http://www.w3.org/1999/xlink" x="0px" y="0px" width="24px"
	 height="24px" viewBox="0 0 24 24" enable-background="new 0 0 24 24" xml:space="preserve">
<g id="Filled_Icons">
	<g>
		<path d="M18.5,23H16V11h0.5c0.276,0,0.5-0.224,0.5-0.5c0-0.277-0.224-0.5-0.5-0.5H15V7.5C15,7.223,14.776,7,14.5,7h-5
			C9.224,7,9,7.223,9,7.5V10H7.5C7.224,10,7,10.223,7,10.5C7,10.776,7.224,11,7.5,11H8v12H5.5C5.224,23,5,23.223,5,23.5
			C5,23.776,5.224,24,5.5,24H10v-3.5c0-0.277,0.224-0.5,0.5-0.5h3c0.276,0,0.5,0.223,0.5,0.5V24h4.5c0.276,0,0.5-0.224,0.5-0.5
			C19,23.223,18.776,23,18.5,23z"/>
		<path d="M0.341,4.974l6,2C6.394,6.991,6.447,7,6.499,7c0.21,0,0.404-0.133,0.475-0.341c0.087-0.263-0.055-0.546-0.316-0.633l-6-2
			C0.393,3.938,0.112,4.08,0.025,4.342C-0.063,4.604,0.079,4.887,0.341,4.974z"/>
		<path d="M6.974,8.342C6.887,8.08,6.606,7.938,6.341,8.026l-6,2c-0.262,0.087-0.403,0.37-0.315,0.633
			C0.095,10.867,0.29,11,0.499,11c0.053,0,0.105-0.009,0.158-0.026l6-2C6.919,8.887,7.061,8.604,6.974,8.342z"/>
		<path d="M17.499,7c0.053,0,0.105-0.009,0.158-0.026l6-2c0.262-0.086,0.403-0.37,0.316-0.632c-0.088-0.262-0.368-0.403-0.633-0.316
			l-6,2c-0.262,0.087-0.403,0.37-0.315,0.633C17.095,6.867,17.29,7,17.499,7z"/>
		<path d="M23.657,10.026l-6-2c-0.264-0.088-0.545,0.054-0.632,0.316c-0.088,0.262,0.054,0.545,0.315,0.632l6,2
			C23.394,10.991,23.447,11,23.499,11c0.21,0,0.404-0.133,0.475-0.341C24.06,10.396,23.919,10.113,23.657,10.026z"/>
		<path d="M2.5,7C2.224,7,2,7.223,2,7.5C2,7.776,2.224,8,2.5,8h2C4.776,8,5,7.776,5,7.5C5,7.223,4.776,7,4.5,7H2.5z"/>
		<path d="M19.5,7C19.224,7,19,7.223,19,7.5C19,7.776,19.224,8,19.5,8h2C21.776,8,22,7.776,22,7.5C22,7.223,21.776,7,21.5,7H19.5z"
			/>
		<path d="M8.5,6h7C15.776,6,16,5.776,16,5.5S15.776,5,15.5,5h-0.55C14.71,3.582,13.485,2.5,12,2.5v-2C12,0.224,11.776,0,11.5,0
			S11,0.224,11,0.5v2.184C9.99,3.043,9.233,3.919,9.05,5H8.5C8.224,5,8,5.224,8,5.5S8.224,6,8.5,6z"/>
	</g>
</g>
<g id="invisible_shape">
	<rect fill="none" width="24" height="24"/>
</g>
</svg>
