<?xml version="1.0" encoding="utf-8"?>
<!-- Generator: Adobe Illustrator 19.2.0, SVG Export Plug-In . SVG Version: 6.00 Build 0)  -->
<svg version="1.1" xmlns="http://www.w3.org/2000/svg" xmlns:xlink="http://www.w3.org/1999/xlink" x="0px" y="0px" width="24px"
	 height="24px" viewBox="0 0 24 24" enable-background="new 0 0 24 24" xml:space="preserve">
<g id="Filled_Icons">
	<g>
		<path d="M6.647,2.353l-1.5-1.5c-0.195-0.195-0.195-0.512,0-0.707s0.512-0.195,0.707,0L7,1.293l1.146-1.146
			c0.195-0.195,0.512-0.195,0.707,0s0.195,0.512,0,0.707l-1.5,1.5C7.158,2.549,6.842,2.549,6.647,2.353z"/>
	</g>
	<g>
		<path d="M2.647,5.853l-1.5-1.5c-0.195-0.195-0.195-0.512,0-0.707c0.195-0.195,0.512-0.195,0.707,0L3,4.793l1.147-1.147
			c0.195-0.195,0.512-0.195,0.707,0c0.195,0.195,0.195,0.512,0,0.707l-1.5,1.5C3.158,6.049,2.842,6.049,2.647,5.853z"/>
	</g>
	<g>
		<rect x="10" y="6" width="7" height="3"/>
		<path d="M17.976,14H9.024l-0.856,4h10.665L17.976,14z M13.5,17c-0.276,0-0.5-0.224-0.5-0.5v-1c0-0.276,0.224-0.5,0.5-0.5
			s0.5,0.224,0.5,0.5v1C14,16.776,13.776,17,13.5,17z"/>
		<path d="M17.118,10H9.881l-0.642,3h8.522L17.118,10z M13.5,12.5c-0.276,0-0.5-0.224-0.5-0.5v-1c0-0.276,0.224-0.5,0.5-0.5
			S14,10.724,14,11v1C14,12.276,13.776,12.5,13.5,12.5z"/>
		<path d="M23.99,23.286c-0.057-0.271-0.322-0.442-0.592-0.388c-2.125,0.442-3.477-1.664-3.534-1.754
			c-0.087-0.138-0.244-0.204-0.402-0.21L19.047,19H7.953l-0.782,3.653c-1.141-0.516-1.778-1.496-1.786-1.509
			c-0.172-0.274-0.618-0.298-0.82-0.045c-0.018,0.022-1.843,2.292-3.959,1.841c-0.272-0.057-0.536,0.115-0.593,0.385
			c-0.057,0.27,0.115,0.536,0.385,0.593C0.665,23.975,0.925,24,1.179,24c1.697,0,3.082-1.145,3.747-1.814
			c0.586,0.677,1.821,1.778,3.65,1.778c1.852,0,3.048-1.046,3.632-1.73c0.602,0.679,1.822,1.73,3.607,1.73
			c1.848,0,3.043-1.041,3.628-1.725c0.678,0.786,2.124,2.061,4.158,1.638C23.872,23.821,24.046,23.557,23.99,23.286z"/>
		<path d="M16.95,5C16.729,3.475,15.527,2.27,14,2.049V0.5C14,0.224,13.776,0,13.5,0S13,0.224,13,0.5v1.551
			C11.473,2.272,10.268,3.475,10.046,5H16.95z"/>
	</g>
</g>
<g id="invisible_shape">
	<rect fill="none" width="24" height="24"/>
</g>
</svg>
