<?xml version="1.0" encoding="utf-8"?>
<!-- Generator: Adobe Illustrator 19.2.0, SVG Export Plug-In . SVG Version: 6.00 Build 0)  -->
<svg version="1.1" xmlns="http://www.w3.org/2000/svg" xmlns:xlink="http://www.w3.org/1999/xlink" x="0px" y="0px" width="24px"
	 height="24px" viewBox="0 0 24 24" enable-background="new 0 0 24 24" xml:space="preserve">
<g id="Filled_Icons">
	<path d="M22.999,3.473c-0.008-0.15-0.084-0.29-0.207-0.378c-0.122-0.088-0.278-0.116-0.424-0.077l-5.362,1.462L12.144,3.02
		c-0.094-0.027-0.193-0.027-0.287,0L6.993,4.479L1.631,3.018c-0.145-0.04-0.302-0.011-0.424,0.077C1.084,3.183,1.009,3.323,1,3.473
		l-1,18.5c-0.013,0.239,0.147,0.454,0.379,0.511l6,1.5c0.083,0.022,0.17,0.02,0.252-0.003L12,22.518l5.368,1.464
		C17.411,23.994,17.455,24,17.5,24c0.04,0,0.081-0.004,0.121-0.016l6-1.5c0.232-0.058,0.391-0.272,0.378-0.511L22.999,3.473z
		 M5.353,17.354l-0.5,0.5C4.756,17.951,4.628,18,4.5,18s-0.256-0.049-0.353-0.146c-0.195-0.195-0.195-0.512,0-0.708l0.5-0.5
		c0.195-0.195,0.512-0.195,0.707,0C5.549,16.842,5.549,17.159,5.353,17.354z M8.354,14.354l-0.5,0.5C7.756,14.951,7.628,15,7.5,15
		s-0.256-0.049-0.353-0.146c-0.195-0.195-0.195-0.512,0-0.708l0.5-0.5c0.195-0.195,0.512-0.195,0.707,0S8.549,14.159,8.354,14.354z
		 M12,13h-1c-0.276,0-0.5-0.224-0.5-0.5c0-0.277,0.224-0.5,0.5-0.5h1c0.276,0,0.5,0.223,0.5,0.5C12.5,12.776,12.276,13,12,13z
		 M14.854,15.354C14.756,15.451,14.628,15.5,14.5,15.5s-0.256-0.049-0.354-0.146l-0.5-0.5c-0.195-0.195-0.195-0.512,0-0.708
		s0.512-0.195,0.707,0l0.5,0.5C15.049,14.842,15.049,15.159,14.854,15.354z M18.354,15.854l-0.5,0.5
		C17.756,16.451,17.628,16.5,17.5,16.5s-0.256-0.049-0.354-0.146c-0.195-0.195-0.195-0.512,0-0.708l0.5-0.5
		c0.195-0.195,0.512-0.195,0.707,0C18.549,15.342,18.549,15.659,18.354,15.854z M19,13c0,0.276-0.224,0.5-0.5,0.5S18,13.276,18,13
		v-1c0-0.277,0.224-0.5,0.5-0.5S19,11.723,19,12V13z M19.354,10.146c0.195,0.195,0.195,0.512,0,0.708C19.256,10.951,19.128,11,19,11
		s-0.256-0.049-0.354-0.146L18,10.207l-0.646,0.648C17.256,10.951,17.128,11,17,11s-0.256-0.049-0.354-0.146
		c-0.195-0.195-0.195-0.512,0-0.708L17.293,9.5l-0.646-0.646c-0.195-0.195-0.195-0.512,0-0.708c0.195-0.195,0.512-0.195,0.707,0
		L18,8.793l0.646-0.647c0.195-0.195,0.512-0.195,0.707,0c0.195,0.195,0.195,0.512,0,0.708L18.707,9.5L19.354,10.146z"/>
</g>
<g id="invisible_shape">
	<rect fill="none" width="24" height="24"/>
</g>
</svg>
