<?xml version="1.0" encoding="utf-8"?>
<!-- Generator: Adobe Illustrator 19.2.0, SVG Export Plug-In . SVG Version: 6.00 Build 0)  -->
<svg version="1.1" xmlns="http://www.w3.org/2000/svg" xmlns:xlink="http://www.w3.org/1999/xlink" x="0px" y="0px" width="24px"
	 height="24px" viewBox="0 0 24 24" enable-background="new 0 0 24 24" xml:space="preserve">
<g id="Filled_Icons">
	<g>
		<path d="M7,10.977V8.5C7,8.224,6.776,8,6.5,8H6.257L4,4.84V3h1c0.276,0,0.5-0.224,0.5-0.5S5.276,2,5,2H4V0.5
			C4,0.224,3.776,0,3.5,0S3,0.224,3,0.5V2H2C1.724,2,1.5,2.224,1.5,2.5S1.724,3,2,3h1v1.84L0.743,8H0.5C0.224,8,0,8.224,0,8.5v2.477
			H7L7,10.977z"/>
		<path d="M7,17H0v6.5C0,23.776,0.224,24,0.5,24H7V17z M3,19.5C3,19.776,2.776,20,2.5,20S2,19.776,2,19.5v-1
			C2,18.224,2.224,18,2.5,18S3,18.224,3,18.5V19.5z M4.5,20C4.224,20,4,19.776,4,19.5v-1C4,18.224,4.224,18,4.5,18S5,18.224,5,18.5
			v1C5,19.776,4.776,20,4.5,20z"/>
		<path d="M3.5,14C3.224,14,3,14.224,3,14.5V16h1v-1.5C4,14.224,3.776,14,3.5,14z"/>
		<path d="M10,20c0-1.103,0.897-2,2-2s2,0.897,2,2v4h2V13.477c0-0.276,0.224-0.5,0.5-0.5s0.5,0.224,0.5,0.5V16h2v-1.5
			c0-0.827,0.673-1.5,1.5-1.5s1.5,0.673,1.5,1.5V16h2v-4h-7.239l-4.351-6.285c-0.186-0.269-0.635-0.269-0.821,0L7.239,12H0v4h2v-1.5
			C2,13.673,2.673,13,3.5,13S5,13.673,5,14.5V16h2v-2.523c0-0.276,0.224-0.5,0.5-0.5s0.5,0.224,0.5,0.5V24h0.5H10V20z M12,11
			c1.378,0,2.5,1.122,2.5,2.5S13.378,16,12,16s-2.5-1.122-2.5-2.5S10.622,11,12,11z"/>
		<path d="M12,19c-0.551,0-1,0.449-1,1v4h2v-4C13,19.449,12.551,19,12,19z"/>
		<path d="M17,10.977h7V8.5C24,8.224,23.776,8,23.5,8h-0.243L21,4.84V3h1c0.276,0,0.5-0.224,0.5-0.5S22.276,2,22,2h-1V0.5
			C21,0.224,20.776,0,20.5,0S20,0.224,20,0.5V2h-1c-0.276,0-0.5,0.224-0.5,0.5S18.724,3,19,3h1v1.84L17.743,8H17.5
			C17.224,8,17,8.224,17,8.5L17,10.977L17,10.977z"/>
		<path d="M17,17v7h6.5c0.276,0,0.5-0.224,0.5-0.5V17H17z M20,19.5c0,0.276-0.224,0.5-0.5,0.5S19,19.776,19,19.5v-1
			c0-0.276,0.224-0.5,0.5-0.5s0.5,0.224,0.5,0.5V19.5z M22,19.5c0,0.276-0.224,0.5-0.5,0.5S21,19.776,21,19.5v-1
			c0-0.276,0.224-0.5,0.5-0.5s0.5,0.224,0.5,0.5V19.5z"/>
		<path d="M20.5,14c-0.276,0-0.5,0.224-0.5,0.5V16h1v-1.5C21,14.224,20.776,14,20.5,14z"/>
	</g>
</g>
<g id="invisible_shape">
	<rect fill="none" width="24" height="24"/>
</g>
</svg>
