<?xml version="1.0" encoding="utf-8"?>
<!-- Generator: Adobe Illustrator 19.2.0, SVG Export Plug-In . SVG Version: 6.00 Build 0)  -->
<svg version="1.1" xmlns="http://www.w3.org/2000/svg" xmlns:xlink="http://www.w3.org/1999/xlink" x="0px" y="0px" width="24px"
	 height="24px" viewBox="0 0 24 24" enable-background="new 0 0 24 24" xml:space="preserve">
<g id="Filled_Icons">
	<g>
		<path d="M10.04,14h1.46c0.186,0,0.357-0.104,0.443-0.269c0.086-0.165,0.073-0.364-0.034-0.517L8.96,9H9.5
			c0.18,0,0.346-0.097,0.435-0.253c0.088-0.157,0.086-0.349-0.006-0.504l-3-5C6.835,3.086,6.666,2.997,6.481,3
			C6.298,3.007,6.134,3.113,6.053,3.276l-2.5,5C3.475,8.431,3.483,8.615,3.574,8.763C3.666,8.911,3.827,9,4,9h0.54l-2.95,4.214
			c-0.106,0.152-0.12,0.352-0.033,0.517C1.643,13.896,1.814,14,2,14h1.46l-3.35,4.188c-0.12,0.15-0.144,0.356-0.061,0.529
			C0.133,18.889,0.308,19,0.5,19H6v4.5C6,23.776,6.224,24,6.5,24S7,23.776,7,23.5V19h6c0.192,0,0.367-0.111,0.45-0.283
			c0.083-0.173,0.061-0.379-0.06-0.529L10.04,14z"/>
		<path d="M23.5,15h-8c-0.276,0-0.5,0.223-0.5,0.5v6c0,0.276,0.224,0.5,0.5,0.5H16v2h1v-2h5v2h1v-2h0.5c0.276,0,0.5-0.224,0.5-0.5
			v-6C24,15.223,23.776,15,23.5,15z M17,19h-1v-3h1V19z M19,19h-1v-3h1V19z M21,19h-1v-3h1V19z M23,19h-1v-3h1V19z"/>
	</g>
</g>
<g id="invisible_shape">
	<rect fill="none" width="24" height="24"/>
</g>
</svg>
