<?xml version="1.0" encoding="utf-8"?>
<!-- Generator: Adobe Illustrator 19.2.0, SVG Export Plug-In . SVG Version: 6.00 Build 0)  -->
<svg version="1.1" xmlns="http://www.w3.org/2000/svg" xmlns:xlink="http://www.w3.org/1999/xlink" x="0px" y="0px" width="24px"
	 height="24px" viewBox="0 0 24 24" enable-background="new 0 0 24 24" xml:space="preserve">
<g id="Filled_Icons">
	<g>
		<circle cx="7.5" cy="7.5" r="3.5"/>
		<g>
			<path d="M14.5,8h-2C12.224,8,12,7.776,12,7.5S12.224,7,12.5,7h2C14.776,7,15,7.224,15,7.5S14.776,8,14.5,8z"/>
		</g>
		<g>
			<path d="M7.5,15C7.224,15,7,14.776,7,14.5v-2C7,12.224,7.224,12,7.5,12S8,12.224,8,12.5v2C8,14.776,7.776,15,7.5,15z"/>
		</g>
		<g>
			<path d="M2.197,12.803c-0.195-0.195-0.195-0.512,0-0.707l1.414-1.414c0.195-0.195,0.512-0.195,0.707,0
				c0.195,0.196,0.195,0.512,0,0.707l-1.414,1.414C2.708,12.998,2.392,12.998,2.197,12.803z"/>
		</g>
		<g>
			<path d="M2.5,8h-2C0.224,8,0,7.776,0,7.5S0.224,7,0.5,7h2C2.776,7,3,7.224,3,7.5S2.776,8,2.5,8z"/>
		</g>
		<g>
			<path d="M3.611,4.318L2.197,2.904c-0.195-0.196-0.195-0.512,0-0.707c0.195-0.195,0.512-0.195,0.707,0l1.414,1.414
				c0.195,0.196,0.195,0.512,0,0.707C4.123,4.513,3.806,4.513,3.611,4.318z"/>
		</g>
		<g>
			<path d="M7.5,3C7.224,3,7,2.776,7,2.5v-2C7,0.224,7.224,0,7.5,0S8,0.224,8,0.5v2C8,2.776,7.776,3,7.5,3z"/>
		</g>
		<g>
			<path d="M10.682,4.318c-0.195-0.195-0.195-0.511,0-0.707l1.414-1.414c0.195-0.195,0.512-0.195,0.707,0
				c0.195,0.195,0.195,0.512,0,0.707l-1.414,1.414C11.194,4.513,10.877,4.513,10.682,4.318z"/>
		</g>
		<g>
			<polygon points="18.176,18 12,18 12,20 19.994,20 			"/>
			<path d="M22.87,23.164L20.903,21H12v2H3.63L12,13.794V17h5.267l-4.396-4.836c-0.189-0.208-0.551-0.208-0.74,0l-10,11
				C1.839,23.485,2.068,24,2.5,24h20C22.932,24,23.161,23.485,22.87,23.164z"/>
		</g>
	</g>
</g>
<g id="invisible_shape">
	<rect fill="none" width="24" height="24"/>
</g>
</svg>
