<?xml version="1.0" encoding="utf-8"?>
<!-- Generator: Adobe Illustrator 19.2.0, SVG Export Plug-In . SVG Version: 6.00 Build 0)  -->
<svg version="1.1" xmlns="http://www.w3.org/2000/svg" xmlns:xlink="http://www.w3.org/1999/xlink" x="0px" y="0px" width="24px"
	 height="24px" viewBox="0 0 24 24" enable-background="new 0 0 24 24" xml:space="preserve">
<g id="Filled_Icons">
	<path d="M21.947,21.276C21.862,21.107,21.69,21,21.5,21H18v-4h2.5c0.137,0,0.289-0.082,0.354-0.146l2-2
		c0.195-0.195,0.195-0.512,0-0.707c-0.195-0.195-0.512-0.195-0.707,0l-1.428,1.428C20.225,14.308,18.985,12,16.5,12H15V9.96
		c2.454-0.389,3.856-3.526,3.954-3.75l0.993-1.987c0.123-0.247,0.023-0.547-0.224-0.671c-0.247-0.122-0.546-0.023-0.671,0.224
		L18.191,5.5h-2.248C15.685,3.842,14.16,2.692,12,2.535V0.5C12,0.224,11.776,0,11.5,0S11,0.224,11,0.5v2.035
		C8.84,2.692,7.315,3.842,7.057,5.5H4.809L3.947,3.776C3.823,3.529,3.523,3.43,3.276,3.553C3.029,3.677,2.93,3.977,3.053,4.224
		L4.046,6.21C4.144,6.434,5.546,9.571,8,9.96V12H6.5c-2.144,0-3.574,2.405-4.164,3.629l-1.482-1.482
		c-0.195-0.195-0.512-0.195-0.707,0s-0.195,0.512,0,0.707l2,2C2.207,16.915,2.363,17,2.5,17H5v4H1.5
		c-0.189,0-0.362,0.107-0.447,0.276l-1,2C-0.114,23.61,0.13,24,0.5,24h22c0.37,0,0.614-0.39,0.447-0.724L21.947,21.276z M12,10v2h-1
		v-2H12z M12,21v-4h2v4H12z M11,17v4H9v-4H11z M17,21h-2v-4h2V21z M13,12v-2h1v2H13z M9,10h1v2H9V10z M6,17h2v4H6V17z"/>
</g>
<g id="invisible_shape">
	<rect fill="none" width="24" height="24"/>
</g>
</svg>
