<?xml version="1.0" encoding="utf-8"?>
<!-- Generator: Adobe Illustrator 19.2.0, SVG Export Plug-In . SVG Version: 6.00 Build 0)  -->
<svg version="1.1" xmlns="http://www.w3.org/2000/svg" xmlns:xlink="http://www.w3.org/1999/xlink" x="0px" y="0px" width="24px"
	 height="24px" viewBox="0 0 24 24" enable-background="new 0 0 24 24" xml:space="preserve">
<g id="Filled_Icons">
	<path d="M23.293,0.095C23.115-0.033,22.876-0.03,22.7,0.1C22.662,0.128,18.731,3,12,3S1.338,0.128,1.3,0.1
		C1.125-0.03,0.886-0.033,0.707,0.095C0.53,0.224,0.457,0.451,0.525,0.659l2,6C2.594,6.862,2.785,7,3,7h3.438l-0.471,4H4
		c-0.276,0-0.5,0.224-0.5,0.5S3.724,12,4,12h1.85L4.504,23.442c-0.018,0.142,0.027,0.284,0.122,0.39C4.722,23.939,4.857,24,5,24h2.5
		C7.776,24,8,23.776,8,23.5V12h8v11.5c0,0.276,0.224,0.5,0.5,0.5H19c0.143,0,0.278-0.061,0.374-0.168
		c0.095-0.106,0.14-0.249,0.122-0.39L18.15,12H20c0.276,0,0.5-0.224,0.5-0.5S20.276,11,20,11h-1.968l-0.471-4H21
		c0.215,0,0.406-0.138,0.475-0.341l2-6C23.543,0.451,23.47,0.224,23.293,0.095z M8,7h3v4H8V7z M13,11V7h3v4H13z"/>
</g>
<g id="invisible_shape">
	<rect fill="none" width="24" height="24"/>
</g>
</svg>
