<?xml version="1.0" encoding="utf-8"?>
<!-- Generator: Adobe Illustrator 19.2.0, SVG Export Plug-In . SVG Version: 6.00 Build 0)  -->
<svg version="1.1" xmlns="http://www.w3.org/2000/svg" xmlns:xlink="http://www.w3.org/1999/xlink" x="0px" y="0px" width="24px"
	 height="24px" viewBox="0 0 24 24" enable-background="new 0 0 24 24" xml:space="preserve">
<g id="Filled_Icons">
	<path d="M19.645,3.36C19.764,1.538,18.318,0,16.5,0h-4.35C10.413,0,9,1.414,9,3.152v1.153l-6.895,8.888
		C1.85,13.521,2.085,14,2.5,14h2.234l-1.219,4.879C3.436,19.194,3.674,19.5,4,19.5h2.106l-1.688,3.797
		C4.273,23.624,4.511,24,4.875,24h13.214c0.276,0,0.5-0.224,0.5-0.5l-0.001-4.279L19.645,3.36z M13.5,8h-3C10.224,8,10,7.776,10,7.5
		S10.224,7,10.5,7h3C13.776,7,14,7.224,14,7.5S13.776,8,13.5,8z"/>
</g>
<g id="invisible_shape">
	<rect fill="none" width="24" height="24"/>
</g>
</svg>
