<?xml version="1.0" encoding="utf-8"?>
<!-- Generator: Adobe Illustrator 19.2.0, SVG Export Plug-In . SVG Version: 6.00 Build 0)  -->
<svg version="1.1" xmlns="http://www.w3.org/2000/svg" xmlns:xlink="http://www.w3.org/1999/xlink" x="0px" y="0px" width="24px"
	 height="24px" viewBox="0 0 24 24" enable-background="new 0 0 24 24" xml:space="preserve">
<g id="Filled_Icons">
	<g>
		<path d="M22,13c0-1.104-2-3-2-3s-2,1.896-2,3s0.896,2,2,2S22,14.104,22,13z"/>
		<path d="M6,13c0-1.104-2-3-2-3s-2,1.896-2,3s0.895,2,2,2S6,14.104,6,13z"/>
		<path d="M15,15v-2.814c0.615-0.477,1-1.178,1-2.186c0-2.209-4-5-4-5s-4,2.791-4,5c0,1.007,0.385,1.708,1,2.186V15H4H2v9h8v-4l2-2
			l2,2v4h8v-9h-2H15z M7,22H4v-2.5C4,18.672,4.672,18,5.5,18S7,18.672,7,19.5V22z M20,22h-3v-2.5c0-0.828,0.672-1.5,1.5-1.5
			s1.5,0.672,1.5,1.5V22z"/>
	</g>
</g>
<g id="invisible_shape">
	<rect fill="none" width="24" height="24"/>
</g>
</svg>
