<?xml version="1.0" encoding="utf-8"?>
<!-- Generator: Adobe Illustrator 19.2.0, SVG Export Plug-In . SVG Version: 6.00 Build 0)  -->
<svg version="1.1" xmlns="http://www.w3.org/2000/svg" xmlns:xlink="http://www.w3.org/1999/xlink" x="0px" y="0px" width="24px"
	 height="24px" viewBox="0 0 24 24" enable-background="new 0 0 24 24" xml:space="preserve">
<g id="Filled_Icons">
	<g>
		<path d="M17,9H7c0,0-1,1.666-3,3h3v1h10v-1h3C18,10.666,17,9,17,9z"/>
		<path d="M15,4H9c0,0-1,1.666-3,3h3v1h6V7h3C16,5.666,15,4,15,4z"/>
		<path d="M19,17h4c-2-1.334-3-3-3-3H4c0,0-1,1.666-3,3h4v4H2v3h20v-3h-3V17z M9,20H7v-2h2V20z M13,20h-2v-2h2V20z M17,20h-2v-2h2
			V20z"/>
	</g>
</g>
<g id="invisible_shape">
	<rect fill="none" width="24" height="24"/>
</g>
</svg>
