<?xml version="1.0" encoding="utf-8"?>
<!-- Generator: Adobe Illustrator 19.2.0, SVG Export Plug-In . SVG Version: 6.00 Build 0)  -->
<svg version="1.1" xmlns="http://www.w3.org/2000/svg" xmlns:xlink="http://www.w3.org/1999/xlink" x="0px" y="0px" width="24px"
	 height="24px" viewBox="0 0 24 24" enable-background="new 0 0 24 24" xml:space="preserve">
<g id="Filled_Icons">
	<g>
		<polygon points="12,24 16.5,24 12,19.5 		"/>
		<path d="M22.919,23.228L12.097,6.577l1.822-2.805c0.15-0.232,0.085-0.541-0.146-0.691c-0.229-0.15-0.54-0.086-0.691,0.146
			L11.5,5.66L9.919,3.227c-0.15-0.232-0.461-0.296-0.691-0.146c-0.231,0.15-0.297,0.459-0.146,0.691l1.822,2.805L0.081,23.228
			c-0.101,0.154-0.108,0.35-0.021,0.511C0.148,23.899,0.316,24,0.5,24H11V9.5C11,9.224,11.224,9,11.5,9S12,9.224,12,9.5V18h5.5
			c0.276,0,0.5,0.224,0.5,0.5V24h4.5c0.184,0,0.352-0.101,0.44-0.262C23.027,23.577,23.02,23.381,22.919,23.228z"/>
	</g>
</g>
<g id="invisible_shape">
	<rect fill="none" width="24" height="24"/>
</g>
</svg>
