<?xml version="1.0" encoding="utf-8"?>
<!-- Generator: Adobe Illustrator 19.2.0, SVG Export Plug-In . SVG Version: 6.00 Build 0)  -->
<svg version="1.1" xmlns="http://www.w3.org/2000/svg" xmlns:xlink="http://www.w3.org/1999/xlink" x="0px" y="0px" width="24px"
	 height="24px" viewBox="0 0 24 24" enable-background="new 0 0 24 24" xml:space="preserve">
<g id="Filled_Icons">
	<g>
		<rect x="8" y="22" width="7" height="2"/>
		<rect x="14" y="19" width="1" height="2"/>
		<rect x="8" y="19" width="1" height="2"/>
		<rect x="10" y="19" width="3" height="2"/>
		<path d="M14.646,16.146L13.5,15l-1.646,1.646c-0.098,0.098-0.226,0.146-0.354,0.146s-0.256-0.049-0.354-0.146L9.5,15l-1.146,1.146
			C8.256,16.244,8.128,16.293,8,16.293V18h7v-1.707C14.872,16.293,14.744,16.244,14.646,16.146z"/>
		<path d="M11.5,0c-0.724,0-1.396,0.22-1.954,0.596L11.5,1.899l1.954-1.303C12.896,0.22,12.224,0,11.5,0z"/>
		<g>
			<polygon points="9.51,8.19 11.5,9.849 13.49,8.19 11.5,7.527 			"/>
			<path d="M15,6V3.5c0-0.838-0.307-1.597-0.799-2.2l-2.424,1.616C11.693,2.972,11.597,3,11.5,3s-0.193-0.028-0.277-0.084L8.799,1.3
				C8.307,1.903,8,2.662,8,3.5V6H0.5c0,1.378,1.121,3,2.5,3h2.5C5.776,9,6,9.224,6,9.5S5.776,10,5.5,10H3.051
				C3.289,11.418,4.514,12,6,12h2v3.293l1.146-1.147c0.195-0.195,0.512-0.195,0.707,0l1.646,1.647l1.646-1.647
				c0.195-0.195,0.512-0.195,0.707,0L15,15.293V12h2c1.486,0,2.711-0.582,2.949-2H17.5C17.224,10,17,9.776,17,9.5S17.224,9,17.5,9
				H20c1.379,0,2.5-1.622,2.5-3H15z M12,4c0-0.276,0.224-0.5,0.5-0.5S13,3.724,13,4v1c0,0.276-0.224,0.5-0.5,0.5S12,5.276,12,5V4z
				 M10,4c0-0.276,0.224-0.5,0.5-0.5S11,3.724,11,4v1c0,0.276-0.224,0.5-0.5,0.5S10,5.276,10,5V4z M14.82,8.384l-3,2.5
				C11.727,10.962,11.614,11,11.5,11s-0.227-0.038-0.32-0.116l-3-2.5c-0.3-0.25-0.208-0.734,0.162-0.858l3-1
				c0.102-0.034,0.214-0.034,0.316,0l3,1C15.029,7.65,15.12,8.134,14.82,8.384z"/>
		</g>
	</g>
</g>
<g id="invisible_shape">
	<rect fill="none" width="24" height="24"/>
</g>
</svg>
