<?xml version="1.0" encoding="utf-8"?>
<!-- Generator: Adobe Illustrator 19.2.0, SVG Export Plug-In . SVG Version: 6.00 Build 0)  -->
<svg version="1.1" xmlns="http://www.w3.org/2000/svg" xmlns:xlink="http://www.w3.org/1999/xlink" x="0px" y="0px" width="24px"
	 height="24px" viewBox="0 0 24 24" enable-background="new 0 0 24 24" xml:space="preserve">
<g id="Filled_Icons">
	<g>
		<path d="M23.757,23.071c-0.072-0.044-7.293-4.425-7.76-8.627C15.969,14.191,15.755,14,15.5,14h-7C8.224,14,8,14.223,8,14.5
			c0,4.155-7.668,8.52-7.745,8.564c-0.198,0.112-0.296,0.343-0.238,0.563C0.074,23.847,0.273,24,0.5,24h23
			c0.225,0,0.422-0.15,0.481-0.367C24.042,23.417,23.95,23.188,23.757,23.071z"/>
		<path d="M1.317,9.706c0.647,0.347,1.399,0.389,2.064,0.138c0.374,0.594,0.997,1.052,1.83,1.342
			c1.328,0.461,3.052,0.418,4.165-0.064C9.786,11.633,9.925,12.183,9.973,13h4.055c0.048-0.819,0.187-1.368,0.598-1.88
			c0.955,0.405,2.42,0.509,3.634,0.224c0.885-0.209,1.594-0.596,2.078-1.132c0.685,0.367,1.498,0.396,2.224,0.057
			C23.448,9.854,24,8.986,24,8.006c0-1.451-1.225-2.467-2.295-2.449c-2.417,0.143-2.569,1.888-2.569,1.907
			c0,0.276-0.224,0.5-0.5,0.5c-0.276,0-0.5-0.224-0.5-0.5c0-0.67,0.503-1.91,1.919-2.535c-0.01-0.026-0.024-0.05-0.028-0.078
			c-0.104-0.591-0.581-0.969-0.965-1.18c-1.052-0.582-2.591-0.636-3.831-0.13c-0.256,0.104-0.547-0.019-0.651-0.275
			c-0.104-0.256,0.019-0.548,0.274-0.652c0.476-0.192,0.989-0.31,1.511-0.369C15.246,1.154,13.682,0.506,12,0.506
			c-1.679,0-3.241,0.646-4.358,1.736c0.533,0.056,1.06,0.174,1.548,0.372c0.255,0.104,0.378,0.396,0.274,0.652
			C9.359,3.523,9.066,3.645,8.811,3.542c-1.239-0.504-2.779-0.453-3.831,0.13C4.68,3.838,4.323,4.108,4.133,4.502
			c1.307,0.644,1.773,1.817,1.773,2.462c0,0.276-0.223,0.5-0.5,0.5c-0.275,0-0.5-0.224-0.5-0.5c0-0.019-0.152-1.764-2.591-1.907
			C1.813,5.049,1.227,5.298,0.779,5.739C0.291,6.222,0.011,6.858,0.011,7.485c0,0.015-0.008,0.029-0.009,0.044
			C0.01,8.455,0.5,9.267,1.317,9.706z"/>
	</g>
</g>
<g id="invisible_shape">
	<rect fill="none" width="24" height="24"/>
</g>
</svg>
