<?xml version="1.0" encoding="utf-8"?>
<!-- Generator: Adobe Illustrator 19.2.0, SVG Export Plug-In . SVG Version: 6.00 Build 0)  -->
<svg version="1.1" xmlns="http://www.w3.org/2000/svg" xmlns:xlink="http://www.w3.org/1999/xlink" x="0px" y="0px" width="24px"
	 height="24px" viewBox="0 0 24 24" enable-background="new 0 0 24 24" xml:space="preserve">
<g id="Filled_Icons">
	<g>
		<path d="M21,13.5c0-0.277-0.224-0.5-0.5-0.5h-7v-1.096c2.706-0.349,4.988-1.438,4.988-3.404c0-0.277-0.224-0.5-0.5-0.5H12V2.5
			C12,1.672,12.673,1,13.5,1S15,1.672,15,2.5V3c0,0.276,0.224,0.5,0.5,0.5S16,3.276,16,3V2.5C16,1.122,14.878,0,13.5,0
			c-0.821,0-1.544,0.402-2,1.015C11.044,0.402,10.32,0,9.5,0C8.122,0,7,1.122,7,2.5V3c0,0.276,0.224,0.5,0.5,0.5S8,3.276,8,3V2.5
			C8,1.672,8.673,1,9.5,1S11,1.672,11,2.5V8H5.012c-0.276,0-0.5,0.223-0.5,0.5c0,1.967,2.281,3.055,4.988,3.404V13h-7
			C2.224,13,2,13.223,2,13.5c0,3.512,3.008,5.521,6.5,6.231v1.266H7.987c-0.644,0-1.987,0-1.987,1.503v1C6,23.776,6.224,24,6.5,24
			h10c0.276,0,0.5-0.224,0.5-0.5v-1c0-1.503-1.343-1.503-1.988-1.503L14.5,21v-1.279C17.997,19.002,21,16.996,21,13.5z"/>
		<path d="M15.5,4.5C15.224,4.5,15,4.723,15,5v1c0,0.276,0.224,0.5,0.5,0.5S16,6.276,16,6V5C16,4.723,15.776,4.5,15.5,4.5z"/>
		<path d="M7.5,6.5C7.776,6.5,8,6.276,8,6V5c0-0.277-0.224-0.5-0.5-0.5S7,4.723,7,5v1C7,6.276,7.224,6.5,7.5,6.5z"/>
	</g>
</g>
<g id="invisible_shape">
	<rect fill="none" width="24" height="24"/>
</g>
</svg>
