<?xml version="1.0" encoding="utf-8"?>
<!-- Generator: Adobe Illustrator 19.2.0, SVG Export Plug-In . SVG Version: 6.00 Build 0)  -->
<svg version="1.1" xmlns="http://www.w3.org/2000/svg" xmlns:xlink="http://www.w3.org/1999/xlink" x="0px" y="0px" width="24px"
	 height="24px" viewBox="0 0 24 24" enable-background="new 0 0 24 24" xml:space="preserve">
<g id="Filled_Icons">
	<g>
		<rect x="11" y="20" width="3" height="4"/>
		<rect x="15" y="20" width="3" height="4"/>
		<path d="M6,20H4v3.5C4,23.776,4.224,24,4.5,24H6V20z"/>
		<rect x="9" y="15" width="3" height="4"/>
		<rect x="13" y="15" width="3" height="4"/>
		<path d="M21.947,4.276l-2-4C19.862,0.106,19.69,0,19.5,0h-14C5.311,0,5.138,0.106,5.053,0.276l-2,4
			C2.975,4.431,2.983,4.615,3.074,4.763C3.166,4.911,3.327,5,3.5,5H6v10H4.5C4.224,15,4,15.223,4,15.5V19h4v-4H7V5h5v3H9.5
			C9.35,8,9.208,8.067,9.113,8.184C9.019,8.298,8.981,8.451,9.01,8.598l1,5C10.057,13.832,10.262,14,10.5,14h4
			c0.238,0,0.443-0.168,0.49-0.402l1-5c0.029-0.147-0.009-0.299-0.104-0.414C15.791,8.067,15.649,8,15.5,8H13V5h5v10h-1v4h4v-3.5
			c0-0.277-0.224-0.5-0.5-0.5H19V5h2.5c0.173,0,0.334-0.089,0.425-0.237C22.017,4.615,22.024,4.431,21.947,4.276z"/>
		<path d="M19,20v4h1.5c0.276,0,0.5-0.224,0.5-0.5V20H19z"/>
		<rect x="7" y="20" width="3" height="4"/>
	</g>
</g>
<g id="invisible_shape">
	<rect fill="none" width="24" height="24"/>
</g>
</svg>
