<?xml version="1.0" encoding="utf-8"?>
<!-- Generator: Adobe Illustrator 19.2.0, SVG Export Plug-In . SVG Version: 6.00 Build 0)  -->
<svg version="1.1" xmlns="http://www.w3.org/2000/svg" xmlns:xlink="http://www.w3.org/1999/xlink" x="0px" y="0px" width="24px"
	 height="24px" viewBox="0 0 24 24" enable-background="new 0 0 24 24" xml:space="preserve">
<g id="Filled_Icons">
	<g>
		<path d="M20.5,8h-18C2.224,8,2,8.224,2,8.5v2C2,10.776,2.224,11,2.5,11h18c0.276,0,0.5-0.224,0.5-0.5v-2C21,8.224,20.776,8,20.5,8
			z"/>
		<path d="M14,0.763c-0.924-0.42-1.936-0.675-3-0.737V7h3V0.763z"/>
		<rect x="15" y="12" width="4" height="4"/>
		<path d="M10,0.026C8.936,0.088,7.924,0.343,7,0.763V7h3V0.026z"/>
		<rect x="7" y="21" width="3" height="3"/>
		<rect x="11" y="21" width="3" height="3"/>
		<rect x="11" y="12" width="3" height="4"/>
		<path d="M2,23.5C2,23.776,2.224,24,2.5,24H6v-3H2V23.5z"/>
		<path d="M15,1.303V7h3.859C18.43,4.601,16.993,2.552,15,1.303z"/>
		<path d="M15,24h3.5c0.276,0,0.5-0.224,0.5-0.5V21h-4V24z"/>
		<path d="M10,12H2v4h8V12z M6,15.5c-0.827,0-1.5-0.673-1.5-1.5s0.673-1.5,1.5-1.5s1.5,0.673,1.5,1.5S6.827,15.5,6,15.5z"/>
		<path d="M6,1.303C4.007,2.552,2.57,4.601,2.141,7H6V1.303z"/>
		<path d="M20.5,17h-18C2.224,17,2,17.224,2,17.5v2C2,19.776,2.224,20,2.5,20h18c0.276,0,0.5-0.224,0.5-0.5v-2
			C21,17.224,20.776,17,20.5,17z"/>
	</g>
</g>
<g id="invisible_shape">
	<rect fill="none" width="24" height="24"/>
</g>
</svg>
