<?xml version="1.0" encoding="utf-8"?>
<!-- Generator: Adobe Illustrator 19.2.0, SVG Export Plug-In . SVG Version: 6.00 Build 0)  -->
<svg version="1.1" xmlns="http://www.w3.org/2000/svg" xmlns:xlink="http://www.w3.org/1999/xlink" x="0px" y="0px" width="24px"
	 height="24px" viewBox="0 0 24 24" enable-background="new 0 0 24 24" xml:space="preserve">
<g id="Filled_Icons">
	<path d="M23.854,9.153l-3-3c-0.195-0.195-0.512-0.195-0.707,0l-3,3C17.053,9.247,17,9.373,17,9.506v1.5h-1v-1.5
		c0-0.133-0.053-0.26-0.146-0.354l-3.5-3.5c-0.195-0.195-0.512-0.195-0.707,0l-3.5,3.5C8.053,9.247,8,9.373,8,9.506v1.5H7v-1.5
		c0-0.133-0.053-0.26-0.147-0.354l-3-3c-0.195-0.195-0.512-0.195-0.707,0l-3,3C0.053,9.247,0,9.373,0,9.506v14
		c0,0.276,0.224,0.5,0.5,0.494h6C6.776,24.006,7,23.783,7,23.506V21h1v2.506c0,0.276,0.224,0.5,0.5,0.494h7
		c0.276,0.006,0.5-0.217,0.5-0.494V21h1v2.506c0,0.276,0.224,0.5,0.5,0.494h6c0.276,0.006,0.5-0.217,0.5-0.494v-14
		C24,9.373,23.947,9.247,23.854,9.153z M8,20.006H7V12h1V20.006z M17,20.006h-1V12h1V20.006z"/>
</g>
<g id="invisible_shape">
	<rect fill="none" width="24" height="24"/>
</g>
</svg>
