<?xml version="1.0" encoding="utf-8"?>
<!-- Generator: Adobe Illustrator 19.2.1, SVG Export Plug-In . SVG Version: 6.00 Build 0)  -->
<svg version="1.1" xmlns="http://www.w3.org/2000/svg" xmlns:xlink="http://www.w3.org/1999/xlink" x="0px" y="0px" width="24px"
	 height="24px" viewBox="0 0 24 24" enable-background="new 0 0 24 24" xml:space="preserve">
<g id="Filled_Icon">
	<g>
		<path d="M9.303,11.994l5.587-5.125c0.208-0.191,0.22-0.521,0.014-0.725l-6.052-6C8.54-0.168,8,0.057,8,0.5v10.297L1.839,5.132
			C1.635,4.945,1.32,4.958,1.132,5.162c-0.187,0.203-0.174,0.52,0.029,0.706l6.663,6.126l-6.689,6.137
			c-0.204,0.188-0.217,0.504-0.03,0.707c0.188,0.205,0.505,0.217,0.706,0.031L8,13.19V23.5c0,0.445,0.538,0.666,0.852,0.355l6.052-6
			c0.206-0.204,0.193-0.533-0.013-0.724L9.303,11.994z M9,1.699l4.827,4.787L9,10.916V1.699z M9,22.301v-9.226l4.828,4.439L9,22.301
			z"/>
		<path d="M20.484,3.633c-0.195-0.195-0.512-0.195-0.707,0c-0.195,0.195-0.195,0.512,0,0.707c4.3,4.302,4.299,11.256,0,15.557
			c-0.195,0.195-0.195,0.512,0,0.707c0.195,0.195,0.512,0.195,0.707,0C25.174,15.914,25.175,8.323,20.484,3.633z"/>
		<path d="M17.656,6.461c-0.195-0.195-0.512-0.195-0.707,0c-0.195,0.195-0.195,0.512,0,0.707c2.733,2.733,2.737,7.164,0,9.899
			c-0.195,0.195-0.195,0.512,0,0.707c0.195,0.195,0.512,0.195,0.707,0C20.782,14.648,20.782,9.587,17.656,6.461z"/>
		<path d="M14.12,9.29c-0.195,0.196-0.195,0.513,0,0.708c1.166,1.162,1.18,3.06,0,4.241c-0.195,0.195-0.195,0.512,0,0.707
			c0.195,0.195,0.512,0.195,0.707,0c1.564-1.563,1.564-4.093,0-5.657C14.632,9.096,14.315,9.095,14.12,9.29z"/>
	</g>
</g>
<g id="Invisible_Shape">
	<rect fill="none" width="24" height="24"/>
</g>
</svg>
