<?xml version="1.0" encoding="utf-8"?>
<!-- Generator: Adobe Illustrator 19.2.1, SVG Export Plug-In . SVG Version: 6.00 Build 0)  -->
<svg version="1.1" xmlns="http://www.w3.org/2000/svg" xmlns:xlink="http://www.w3.org/1999/xlink" x="0px" y="0px" width="24px"
	 height="24px" viewBox="0 0 24 24" enable-background="new 0 0 24 24" xml:space="preserve">
<g id="Filled_Icon">
	<g>
		<path d="M13.304,11.994l5.587-5.125c0.208-0.191,0.22-0.521,0.014-0.725l-6.053-6C12.54-0.168,12,0.057,12,0.5v10.297L5.839,5.132
			c-0.204-0.187-0.52-0.174-0.707,0.03c-0.187,0.203-0.174,0.52,0.029,0.706l6.664,6.126l-6.689,6.137
			c-0.203,0.188-0.217,0.504-0.03,0.707c0.188,0.205,0.505,0.217,0.706,0.031L12,13.19V23.5c0,0.442,0.536,0.668,0.852,0.355
			l6.053-6c0.206-0.204,0.193-0.533-0.013-0.724L13.304,11.994z M13,1.699l4.828,4.787L13,10.916V1.699z M13,22.301v-9.227
			l4.829,4.44L13,22.301z"/>
		<path d="M6.353,14.475l2.121-2.121c0.195-0.195,0.195-0.512,0-0.707L6.353,9.525c-0.195-0.195-0.512-0.195-0.707,0l-2.121,2.121
			c-0.195,0.195-0.195,0.512,0,0.707l2.121,2.121C5.842,14.67,6.158,14.67,6.353,14.475z"/>
		<path d="M21.475,11.646l-2.121-2.121c-0.195-0.195-0.512-0.195-0.707,0l-2.121,2.121c-0.195,0.195-0.195,0.512,0,0.707
			l2.121,2.121c0.195,0.195,0.512,0.195,0.707,0l2.121-2.121C21.67,12.158,21.67,11.842,21.475,11.646z"/>
	</g>
</g>
<g id="Invisible_Shape">
	<rect fill="none" width="24" height="24"/>
</g>
</svg>
