<?xml version="1.0" encoding="utf-8"?>
<!-- Generator: Adobe Illustrator 19.2.1, SVG Export Plug-In . SVG Version: 6.00 Build 0)  -->
<svg version="1.1" xmlns="http://www.w3.org/2000/svg" xmlns:xlink="http://www.w3.org/1999/xlink" x="0px" y="0px" width="24px"
	 height="24px" viewBox="0 0 24 24" enable-background="new 0 0 24 24" xml:space="preserve">
<g id="Filled_Icon">
	<g>
		<g>
			<path d="M9.727,18c0.74,1.559,1.749,3.104,2.273,3.73c0.524-0.627,1.533-2.172,2.273-3.73C12.628,18,11.372,18,9.727,18z"/>
			<path d="M12.685,22.473c3.19-0.22,6.098-1.9,7.906-4.473h-5.22C14.557,19.825,13.414,21.609,12.685,22.473z"/>
			<path d="M20.635,6c-1.802-2.582-4.726-4.265-7.95-4.474c0.857,1,2.01,2.231,2.998,4.474H20.635z"/>
			<path d="M23.5,8h-1.792c-0.141-0.34-0.283-0.68-0.455-1h-5.177c0.116,0.329,0.207,0.664,0.299,1H15.33
				c-0.097-0.335-0.186-0.672-0.312-1H8.982C8.856,7.328,8.767,7.665,8.67,8H7.625c0.092-0.336,0.183-0.671,0.299-1H2.747
				C2.575,7.32,2.433,7.66,2.292,8H0.5C0.224,8,0,8.224,0,8.5v7C0,15.776,0.224,16,0.5,16h1.823c0.143,0.341,0.287,0.68,0.462,1
				h5.424c-0.126-0.333-0.235-0.666-0.343-1h1.058c0.108,0.334,0.212,0.667,0.346,1h5.461c0.134-0.333,0.237-0.666,0.346-1h1.058
				c-0.107,0.334-0.217,0.667-0.343,1h5.424c0.175-0.32,0.319-0.659,0.462-1H23.5c0.276,0,0.5-0.224,0.5-0.5v-7
				C24,8.224,23.776,8,23.5,8z M23,15H12H1V9c7.961,0,14.039,0,22,0V15z"/>
			<path d="M3.409,18c1.809,2.572,4.716,4.253,7.906,4.473C10.586,21.609,9.443,19.825,8.629,18H3.409z"/>
			<path d="M14.584,6C13.735,4.237,12.862,3.27,12,2.27c-0.862,1-1.735,1.968-2.584,3.73C11.286,6,12.714,6,14.584,6z"/>
			<path d="M11.315,1.526C8.091,1.735,5.167,3.418,3.365,6h4.952C9.306,3.758,10.458,2.526,11.315,1.526z"/>
		</g>
		<g>
			<g>
				<path d="M16.5,14h1.305c0.276,0,0.5-0.224,0.5-0.5s-0.224-0.5-0.5-0.5H17v-0.5h0.448c0.276,0,0.5-0.224,0.5-0.5
					s-0.224-0.5-0.5-0.5H17V11h0.805c0.276,0,0.5-0.224,0.5-0.5s-0.224-0.5-0.5-0.5H16.5c-0.276,0-0.5,0.224-0.5,0.5v3
					C16,13.776,16.224,14,16.5,14z"/>
				<path d="M9.5,14c0.276,0,0.5-0.224,0.5-0.5v-3c0-0.276-0.224-0.5-0.5-0.5S9,10.224,9,10.5v3C9,13.776,9.224,14,9.5,14z"/>
				<path d="M5.5,14h1.436c0.276,0,0.5-0.224,0.5-0.5S7.212,13,6.936,13H6v-2.5C6,10.224,5.776,10,5.5,10S5,10.224,5,10.5v3
					C5,13.776,5.224,14,5.5,14z"/>
				<path d="M12.823,13.636C12.885,13.852,13.081,14,13.305,14c0.224,0,0.42-0.148,0.481-0.364l0.848-3
					c0.075-0.266-0.08-0.542-0.346-0.617c-0.265-0.075-0.542,0.079-0.617,0.346l-0.366,1.297l-0.366-1.297
					c-0.075-0.266-0.352-0.419-0.617-0.346c-0.266,0.075-0.421,0.351-0.346,0.617L12.823,13.636z"/>
			</g>
		</g>
	</g>
</g>
<g id="Invisible_Shape">
	<rect fill="none" width="24" height="24"/>
</g>
</svg>
