<?xml version="1.0" encoding="utf-8"?>
<!-- Generator: Adobe Illustrator 19.2.1, SVG Export Plug-In . SVG Version: 6.00 Build 0)  -->
<svg version="1.1" xmlns="http://www.w3.org/2000/svg" xmlns:xlink="http://www.w3.org/1999/xlink" x="0px" y="0px" width="24px"
	 height="24px" viewBox="0 0 24 24" enable-background="new 0 0 24 24" xml:space="preserve">
<g id="Filled_Icon">
	<g>
		<path d="M15.207,5C14.13,2.782,12.905,1.464,12,0.464c-0.904,1-2.126,2.315-3.206,4.536H15.207z"/>
		<path d="M6.388,12H0c0,1.785,0.402,3.476,1.105,5h6.231C6.771,15.318,6.455,13.646,6.388,12z"/>
		<path d="M16.285,5h5.441c-2.002-2.774-5.152-4.66-8.754-4.951C14.248,1.459,15.354,2.899,16.285,5z"/>
		<path d="M7.7,18H1.623c1.939,3.338,5.433,5.655,9.487,5.955C9.812,22.287,8.556,20.164,7.7,18z"/>
		<path d="M16.674,11c-0.041-1.717-0.371-3.393-1.013-5H8.34c-0.642,1.607-0.972,3.283-1.012,5H16.674z"/>
		<path d="M7.716,5c0.896-2.019,1.959-3.45,3.312-4.951C7.426,0.34,4.275,2.226,2.273,5H7.716z"/>
		<path d="M16.69,6c0.587,1.611,0.901,3.285,0.938,5h6.322c-0.15-1.811-0.705-3.506-1.572-5H16.69z"/>
		<path d="M0.051,11h6.323c0.037-1.715,0.351-3.389,0.938-5H1.623C0.756,7.494,0.201,9.189,0.051,11z"/>
		<path d="M14.604,21.415c-0.538,0.907-1.116,1.77-1.715,2.54c1.062-0.078,2.082-0.303,3.05-0.641
			C15.526,22.771,15.055,22.117,14.604,21.415z"/>
		<path d="M12.981,18H8.759c0.833,1.966,1.971,3.84,3.241,5.469c0.731-0.939,1.408-1.961,2.018-3.027
			C13.549,19.611,13.163,18.766,12.981,18z"/>
		<path d="M16.645,12.203c0.003-0.067,0.014-0.136,0.017-0.203H7.34c0.072,1.641,0.407,3.312,1.019,5h4.519
			C12.939,14.701,14.515,12.791,16.645,12.203z"/>
		<path d="M18.01,12c2.626,0.005,4.771,1.997,5.066,4.546C23.658,15.141,24,13.612,24,12H18.01z"/>
		<path d="M18,12.999c-2.28,0-4.136,1.856-4.136,4.136c0,2.127,3.368,6.223,3.752,6.683c0.198,0.239,0.569,0.239,0.768,0
			c0.384-0.46,3.752-4.556,3.752-6.683C22.136,14.854,20.28,12.999,18,12.999z M18,18.998c-1.027,0-1.863-0.836-1.863-1.863
			c0-1.027,0.836-1.863,1.863-1.863s1.863,0.836,1.863,1.863C19.863,18.162,19.027,18.998,18,18.998z"/>
	</g>
</g>
<g id="Invisible_Shape">
	<rect fill="none" width="24" height="24"/>
</g>
</svg>
