<?xml version="1.0" encoding="utf-8"?>
<!-- Generator: Adobe Illustrator 19.2.1, SVG Export Plug-In . SVG Version: 6.00 Build 0)  -->
<svg version="1.1" xmlns="http://www.w3.org/2000/svg" xmlns:xlink="http://www.w3.org/1999/xlink" x="0px" y="0px" width="24px"
	 height="24px" viewBox="0 0 24 24" enable-background="new 0 0 24 24" xml:space="preserve">
<g id="Filled_Icon">
	<g>
		<path d="M15.207,5C14.13,2.782,12.905,1.464,12,0.464c-0.904,1-2.126,2.315-3.206,4.536H15.207z"/>
		<path d="M6.388,12H0c0,1.785,0.402,3.476,1.105,5h6.231C6.771,15.318,6.455,13.646,6.388,12z"/>
		<path d="M16.285,5h5.441c-2.002-2.774-5.152-4.66-8.754-4.951C14.248,1.459,15.354,2.899,16.285,5z"/>
		<path d="M7.7,18H1.623c1.939,3.338,5.433,5.655,9.487,5.955C9.812,22.287,8.556,20.164,7.7,18z"/>
		<path d="M16.674,11c-0.041-1.717-0.371-3.393-1.013-5H8.34c-0.642,1.607-0.972,3.283-1.012,5H16.674z"/>
		<path d="M7.716,5c0.896-2.019,1.959-3.45,3.312-4.951C7.426,0.34,4.275,2.226,2.273,5H7.716z"/>
		<path d="M16.69,6c0.587,1.611,0.901,3.285,0.938,5h6.322c-0.15-1.811-0.705-3.506-1.572-5H16.69z"/>
		<path d="M0.051,11h6.323c0.037-1.715,0.351-3.389,0.938-5H1.623C0.756,7.494,0.201,9.189,0.051,11z"/>
		<path d="M16.941,21.784c-0.757,0.643-1.814,0.913-2.904,0.542c-0.372,0.57-0.754,1.123-1.148,1.629
			c1.941-0.144,3.745-0.76,5.32-1.718L16.941,21.784z"/>
		<path d="M12.417,18H8.759c0.833,1.966,1.971,3.84,3.241,5.469c0.402-0.517,0.784-1.063,1.154-1.623
			C12.009,20.944,11.627,19.354,12.417,18z"/>
		<path d="M15.769,16.607c0.523-1.555,0.825-3.095,0.892-4.607H7.34c0.072,1.641,0.407,3.312,1.019,5h4.987
			C14.041,16.538,14.904,16.37,15.769,16.607z"/>
		<path d="M19.011,15.816c0.143-2.428,2.975-3.671,4.859-2.164C23.947,13.111,24,12.562,24,12h-6.387
			c-0.066,1.641-0.382,3.311-0.944,4.986L19.011,15.816z"/>
		<path d="M22.673,20.115c-0.854-0.309-1.815,0.048-2.317,0.766l-3.373-1.205c0.016-0.19,0.043-0.268-0.028-0.596l3.543-1.77
			c0.612,0.706,1.596,0.879,2.395,0.478c0.991-0.493,1.392-1.693,0.897-2.684c-0.499-0.999-1.7-1.384-2.683-0.894
			c-0.778,0.39-1.259,1.263-1.056,2.204l-3.552,1.775C16.133,17.771,15.6,17.499,15,17.499c-1.102,0-2,0.897-2,2
			c0,1.103,0.898,2,2,2c0.688,0,1.294-0.349,1.654-0.879l3.36,1.2c-0.088,0.962,0.493,1.771,1.312,2.062
			c1.045,0.374,2.188-0.18,2.557-1.21C24.256,21.627,23.711,20.485,22.673,20.115z M21.554,15.104
			c0.478-0.239,1.086-0.061,1.341,0.447c0.246,0.495,0.047,1.097-0.448,1.342c-0.482,0.243-1.099,0.032-1.339-0.446
			c-0.001-0.001-0.001-0.001-0.001-0.001c0-0.002-0.001-0.002-0.002-0.003C20.856,15.945,21.065,15.348,21.554,15.104z M15,20.499
			c-0.552,0-1-0.448-1-1c0-0.552,0.448-1,1-1s1,0.448,1,1C16,20.051,15.552,20.499,15,20.499z M22.941,22.336
			c-0.181,0.504-0.765,0.787-1.278,0.604c-0.514-0.184-0.79-0.749-0.605-1.272c0.001-0.002,0.003-0.003,0.004-0.005
			c0.001-0.003,0-0.006,0.001-0.009c0.19-0.515,0.76-0.783,1.273-0.598C22.856,21.242,23.129,21.812,22.941,22.336z"/>
	</g>
</g>
<g id="Invisible_Shape">
	<rect fill="none" width="24" height="24"/>
</g>
</svg>
