<?xml version="1.0" encoding="utf-8"?>
<!-- Generator: Adobe Illustrator 19.2.1, SVG Export Plug-In . SVG Version: 6.00 Build 0)  -->
<svg version="1.1" xmlns="http://www.w3.org/2000/svg" xmlns:xlink="http://www.w3.org/1999/xlink" x="0px" y="0px" width="24px"
	 height="24px" viewBox="0 0 24 24" enable-background="new 0 0 24 24" xml:space="preserve">
<g id="Filled_Icon">
	<g>
		<path d="M15.207,5C14.13,2.782,12.905,1.464,12,0.464c-0.904,1-2.126,2.315-3.206,4.536H15.207z"/>
		<path d="M6.388,12H0c0,1.785,0.402,3.476,1.105,5h6.231C6.771,15.318,6.455,13.646,6.388,12z"/>
		<path d="M16.285,5h5.441c-2.002-2.774-5.152-4.66-8.754-4.951C14.248,1.459,15.354,2.899,16.285,5z"/>
		<path d="M7.7,18H1.623c1.939,3.338,5.433,5.655,9.487,5.955C9.812,22.287,8.556,20.164,7.7,18z"/>
		<path d="M16.674,11c-0.041-1.717-0.371-3.393-1.013-5H8.34c-0.642,1.607-0.972,3.283-1.012,5H16.674z"/>
		<path d="M7.716,5c0.896-2.019,1.959-3.45,3.312-4.951C7.426,0.34,4.275,2.226,2.273,5H7.716z"/>
		<path d="M16.69,6c0.587,1.611,0.901,3.285,0.938,5h6.322c-0.15-1.811-0.705-3.506-1.572-5H16.69z"/>
		<path d="M0.051,11h6.323c0.037-1.715,0.351-3.389,0.938-5H1.623C0.756,7.494,0.201,9.189,0.051,11z"/>
		<path d="M13.686,22.852c-0.262,0.38-0.525,0.756-0.796,1.103c0.586-0.043,1.155-0.141,1.714-0.265
			C14.271,23.44,13.965,23.16,13.686,22.852z"/>
		<path d="M12.025,18H8.759c0.833,1.966,1.971,3.84,3.241,5.469c0.361-0.465,0.708-0.951,1.043-1.449
			C12.297,20.867,11.91,19.5,12.025,18z"/>
		<path d="M16.638,12.275c0.006-0.092,0.02-0.184,0.023-0.275H7.34c0.072,1.641,0.407,3.312,1.019,5h3.823
			C12.718,14.742,14.431,12.936,16.638,12.275z"/>
		<path d="M18.5,12c2.13,0,4.018,1.034,5.204,2.622C23.896,13.778,24,12.901,24,12H18.5z"/>
		<path d="M18.5,13c-3.033,0-5.5,2.468-5.5,5.5s2.467,5.5,5.5,5.5s5.5-2.468,5.5-5.5S21.533,13,18.5,13z M18.5,22
			c-0.276,0-0.5-0.224-0.5-0.5s0.224-0.5,0.5-0.5s0.5,0.224,0.5,0.5S18.776,22,18.5,22z M19,18.937V20c0,0.276-0.224,0.5-0.5,0.5
			S18,20.276,18,20v-1.5c0-0.276,0.224-0.5,0.5-0.5c0.551,0,1-0.448,1-1s-0.449-1-1-1s-1,0.448-1,1c0,0.276-0.224,0.5-0.5,0.5
			s-0.5-0.224-0.5-0.5c0-1.102,0.896-2,2-2s2,0.898,2,2C20.5,17.931,19.861,18.714,19,18.937z"/>
	</g>
</g>
<g id="Invisible_Shape">
	<rect fill="none" width="24" height="24"/>
</g>
</svg>
