<?xml version="1.0" encoding="utf-8"?>
<!-- Generator: Adobe Illustrator 19.2.1, SVG Export Plug-In . SVG Version: 6.00 Build 0)  -->
<svg version="1.1" xmlns="http://www.w3.org/2000/svg" xmlns:xlink="http://www.w3.org/1999/xlink" x="0px" y="0px" width="24px"
	 height="24px" viewBox="0 0 24 24" enable-background="new 0 0 24 24" xml:space="preserve">
<g id="Filled_Icon">
	<path d="M18.5,1H17v18.875c0,0.469-0.59,0.678-0.886,0.318l-6.5-7.875c-0.176-0.213-0.146-0.528,0.067-0.704
		c0.211-0.175,0.528-0.146,0.704,0.067L16,18.484V1H5.5C3.019,1,1,3.019,1,5.5v13C1,20.981,3.019,23,5.5,23H7V4
		c0-0.47,0.594-0.679,0.888-0.315l6.5,8c0.175,0.214,0.142,0.529-0.072,0.704c-0.215,0.172-0.529,0.141-0.703-0.073L8,5.408V23h10.5
		c2.481,0,4.5-2.019,4.5-4.5v-13C23,3.019,20.981,1,18.5,1z"/>
</g>
<g id="Invisible_Shape">
	<rect fill="none" width="24" height="24"/>
</g>
</svg>
