<?xml version="1.0" encoding="utf-8"?>
<!-- Generator: Adobe Illustrator 19.2.1, SVG Export Plug-In . SVG Version: 6.00 Build 0)  -->
<svg version="1.1" xmlns="http://www.w3.org/2000/svg" xmlns:xlink="http://www.w3.org/1999/xlink" x="0px" y="0px" width="24px"
	 height="24px" viewBox="0 0 24 24" enable-background="new 0 0 24 24" xml:space="preserve">
<g id="Filled_Icon">
	<g>
		<path d="M15.207,5C14.13,2.782,12.905,1.464,12,0.464c-0.904,1-2.126,2.315-3.206,4.536H15.207z"/>
		<path d="M6.388,12H0c0,1.785,0.402,3.476,1.105,5h6.231C6.771,15.318,6.455,13.646,6.388,12z"/>
		<path d="M16.285,5h5.441c-2.002-2.774-5.152-4.66-8.754-4.951C14.248,1.459,15.354,2.899,16.285,5z"/>
		<path d="M7.7,18H1.623c1.939,3.338,5.433,5.655,9.487,5.955C9.812,22.287,8.556,20.164,7.7,18z"/>
		<path d="M16.674,11c-0.041-1.717-0.371-3.393-1.013-5H8.34c-0.642,1.607-0.972,3.283-1.012,5H16.674z"/>
		<path d="M7.716,5c0.896-2.019,1.959-3.45,3.312-4.951C7.426,0.34,4.275,2.226,2.273,5H7.716z"/>
		<path d="M16.69,6c0.587,1.611,0.901,3.285,0.938,5h6.322c-0.15-1.811-0.705-3.506-1.572-5H16.69z"/>
		<path d="M0.051,11h6.323c0.037-1.715,0.351-3.389,0.938-5H1.623C0.756,7.494,0.201,9.189,0.051,11z"/>
		<path d="M14,23.5v-1.115c-0.36,0.55-0.731,1.081-1.11,1.57c0.388-0.028,0.765-0.092,1.141-0.156C14.011,23.702,14,23.602,14,23.5z
			"/>
		<path d="M14,18H8.759c0.833,1.966,1.971,3.84,3.241,5.469c0.725-0.93,1.396-1.94,2-2.996V18z"/>
		<path d="M14,16.5c0-0.659,0.428-1.221,1.019-1.421c0.114-1.229,0.734-2.304,1.639-3.046c0.001-0.012,0.002-0.023,0.003-0.033H7.34
			c0.072,1.641,0.407,3.312,1.019,5H14V16.5z"/>
		<path d="M23.786,14.153C23.916,13.453,24,12.737,24,12h-1.701C22.987,12.552,23.515,13.293,23.786,14.153z"/>
		<path d="M23.5,16H23v-0.5c0-1.93-1.57-3.5-3.5-3.5S16,13.57,16,15.5V16h-0.5c-0.276,0-0.5,0.224-0.5,0.5v7
			c0,0.276,0.224,0.5,0.5,0.5h8c0.276,0,0.5-0.224,0.5-0.5v-7C24,16.224,23.776,16,23.5,16z M17,15.5c0-1.379,1.121-2.5,2.5-2.5
			s2.5,1.121,2.5,2.5V16h-5V15.5z M20,19.847v1.654c0,0.276-0.225,0.5-0.501,0.5c-0.276,0-0.499-0.224-0.499-0.5v-1.654
			c-0.294-0.175-0.5-0.482-0.5-0.847c0-0.552,0.448-1,1-1s1,0.448,1,1C20.5,19.365,20.293,19.672,20,19.847z"/>
	</g>
</g>
<g id="Invisible_Shape">
	<rect fill="none" width="24" height="24"/>
</g>
</svg>
