<?xml version="1.0" encoding="utf-8"?>
<!-- Generator: Adobe Illustrator 19.2.1, SVG Export Plug-In . SVG Version: 6.00 Build 0)  -->
<svg version="1.1" xmlns="http://www.w3.org/2000/svg" xmlns:xlink="http://www.w3.org/1999/xlink" x="0px" y="0px" width="24px"
	 height="24px" viewBox="0 0 24 24" enable-background="new 0 0 24 24" xml:space="preserve">
<g id="Filled_Icon">
	<g>
		<path d="M15.207,5C14.13,2.782,12.905,1.464,12,0.464c-0.904,1-2.126,2.315-3.206,4.536H15.207z"/>
		<path d="M6.388,12H0c0,1.785,0.402,3.476,1.105,5h6.231C6.771,15.318,6.455,13.646,6.388,12z"/>
		<path d="M16.285,5h5.441c-2.002-2.774-5.152-4.66-8.754-4.951C14.248,1.459,15.354,2.899,16.285,5z"/>
		<path d="M7.7,18H1.623c1.939,3.338,5.433,5.655,9.487,5.955C9.812,22.287,8.556,20.164,7.7,18z"/>
		<path d="M16.674,11c-0.041-1.717-0.371-3.393-1.013-5H8.34c-0.642,1.607-0.972,3.283-1.012,5H16.674z"/>
		<path d="M7.716,5c0.896-2.019,1.959-3.45,3.312-4.951C7.426,0.34,4.275,2.226,2.273,5H7.716z"/>
		<path d="M16.69,6c0.587,1.611,0.901,3.285,0.938,5h6.322c-0.15-1.811-0.705-3.506-1.572-5H16.69z"/>
		<path d="M0.051,11h6.323c0.037-1.715,0.351-3.389,0.938-5H1.623C0.756,7.494,0.201,9.189,0.051,11z"/>
		<path d="M13.527,23.071c-0.211,0.3-0.421,0.604-0.638,0.884c0.3-0.022,0.59-0.078,0.884-0.121
			C13.619,23.605,13.54,23.341,13.527,23.071z"/>
		<path d="M12.959,18h-4.2c0.833,1.966,1.971,3.84,3.241,5.469c0.976-1.252,1.867-2.642,2.606-4.106L12.959,18z"/>
		<path d="M12.091,15.988c0.218-0.599,0.771-0.985,1.409-0.985h2.511l0.418-0.976c0.118-0.68,0.203-1.357,0.232-2.027H7.34
			c0.072,1.641,0.407,3.312,1.019,5h3.739C11.982,16.68,11.968,16.328,12.091,15.988z"/>
		<path d="M19.878,12.405l1.111,2.598L23.593,15C23.848,14.033,24,13.045,24,12h-4.39C19.718,12.119,19.812,12.252,19.878,12.405z"
			/>
		<path d="M23.5,16.003h-3.171l-1.369-3.2c-0.175-0.403-0.745-0.403-0.92,0l-1.369,3.2H13.5c-0.47,0-0.676,0.584-0.32,0.882
			l2.744,2.27l-1.375,3.669c-0.171,0.456,0.351,0.869,0.758,0.583l3.193-2.288l3.193,2.288c0.407,0.286,0.929-0.127,0.758-0.583
			l-1.375-3.669l2.744-2.27C24.176,16.587,23.97,16.003,23.5,16.003z"/>
	</g>
</g>
<g id="Invisible_Shape">
	<rect fill="none" width="24" height="24"/>
</g>
</svg>
