<?xml version="1.0" encoding="utf-8"?>
<!-- Generator: Adobe Illustrator 19.2.1, SVG Export Plug-In . SVG Version: 6.00 Build 0)  -->
<svg version="1.1" xmlns="http://www.w3.org/2000/svg" xmlns:xlink="http://www.w3.org/1999/xlink" x="0px" y="0px" width="24px"
	 height="24px" viewBox="0 0 24 24" enable-background="new 0 0 24 24" xml:space="preserve">
<g id="Filled_Icon">
	<g>
		<g>
			<path d="M9,11V8H7.565c-0.35,0.974-0.553,1.977-0.609,3H9z"/>
			<path d="M1.172,11h4.814C6.034,9.977,6.21,8.975,6.523,8H1.998C1.557,8.92,1.268,9.928,1.172,11z"/>
			<path d="M9,7V5.259C8.604,5.825,8.264,6.406,7.982,7H9z"/>
			<path d="M5.978,12H1.14c0.021,1.054,0.219,2.061,0.56,3h4.735C6.157,13.992,6.014,12.99,5.978,12z"/>
			<path d="M9,20.261C8.013,18.854,7.26,17.426,6.756,16H2.127C3.456,18.644,5.999,20.543,9,20.923V20.261z"/>
			<path d="M6.892,7C7.391,5.819,8.098,4.691,9,3.629V3.074C6.269,3.397,3.956,4.868,2.559,7H6.892z"/>
			<path d="M9,12H6.948c0.037,0.987,0.204,1.989,0.509,3H9V12z"/>
			<path d="M9,16H7.799C8.112,16.81,8.517,17.623,9,18.435V16z"/>
		</g>
		<g>
			<path d="M24,4V2.5C24,1.121,22.879,0,21.5,0h-9C11.121,0,10,1.121,10,2.5V4H24z M14.5,2h5C19.776,2,20,2.224,20,2.5
				S19.776,3,19.5,3h-5C14.224,3,14,2.776,14,2.5S14.224,2,14.5,2z"/>
			<path d="M10,20v1.5c0,1.379,1.121,2.5,2.5,2.5h9c1.379,0,2.5-1.121,2.5-2.5V20H10z M17,22.501c-0.552,0-1-0.448-1-1
				c0-0.552,0.448-1,1-1s1,0.448,1,1C18,22.053,17.552,22.501,17,22.501z"/>
			<rect x="10" y="5" width="14" height="14"/>
		</g>
	</g>
</g>
<g id="Invisible_Shape">
	<rect fill="none" width="24" height="24"/>
</g>
</svg>
