<?xml version="1.0" encoding="utf-8"?>
<!-- Generator: Adobe Illustrator 19.2.1, SVG Export Plug-In . SVG Version: 6.00 Build 0)  -->
<svg version="1.1" xmlns="http://www.w3.org/2000/svg" xmlns:xlink="http://www.w3.org/1999/xlink" x="0px" y="0px" width="24px"
	 height="24px" viewBox="0 0 24 24" enable-background="new 0 0 24 24" xml:space="preserve">
<g id="Filled_Icon">
	<g>
		<path d="M15.207,5C14.13,2.782,12.905,1.464,12,0.464c-0.904,1-2.126,2.315-3.206,4.536H15.207z"/>
		<path d="M6.388,12H0c0,1.785,0.402,3.476,1.105,5h6.231C6.771,15.318,6.455,13.646,6.388,12z"/>
		<path d="M16.285,5h5.441c-2.002-2.774-5.152-4.66-8.754-4.951C14.248,1.459,15.354,2.899,16.285,5z"/>
		<path d="M7.7,18H1.623c1.939,3.338,5.433,5.655,9.487,5.955C9.812,22.287,8.556,20.164,7.7,18z"/>
		<path d="M16.674,11c-0.041-1.717-0.371-3.393-1.013-5H8.34c-0.642,1.607-0.972,3.283-1.012,5H16.674z"/>
		<path d="M7.716,5c0.896-2.019,1.959-3.45,3.312-4.951C7.426,0.34,4.275,2.226,2.273,5H7.716z"/>
		<path d="M16.69,6c0.587,1.611,0.901,3.285,0.938,5h6.322c-0.15-1.811-0.705-3.506-1.572-5H16.69z"/>
		<path d="M0.051,11h6.323c0.037-1.715,0.351-3.389,0.938-5H1.623C0.756,7.494,0.201,9.189,0.051,11z"/>
		<path d="M12,23c0-1.155,0.817-2.367,2.115-2.734c0.193-0.346,0.383-0.693,0.56-1.049c-0.22-0.373-0.378-0.785-0.493-1.217H8.759
			c0.833,1.966,1.971,3.84,3.241,5.469V23z"/>
		<path d="M16.624,12.446c0.011-0.148,0.03-0.298,0.037-0.446H7.34c0.072,1.641,0.407,3.312,1.019,5h5.665
			C13.904,14.955,15.032,13.223,16.624,12.446z"/>
		<path d="M22.999,16.739C23.631,15.282,24,13.686,24,12h-5.5C20.978,12,22.993,14.125,22.999,16.739z"/>
		<g>
			<path d="M18.629,15.314c0.229-0.23,0.63-0.187,0.794,0.116c0.224,0.417,0.642,0.535,0.872,0.569
				c0.634,0.093,0.947-0.252,1.436-0.686C21.203,13.957,19.954,13,18.5,13c-1.464,0-2.717,0.97-3.238,2.34
				C16.234,15.942,17.463,16.479,18.629,15.314z"/>
			<path d="M20.5,20.623v-0.804c0.968-0.726,1.597-1.952,1.469-3.398c-1.092,0.909-2.354,0.666-3.067-0.037
				c-1.5,1.044-2.797,0.599-3.865-0.019c-0.145,1.463,0.472,2.709,1.464,3.454v0.804C14.849,21.096,13,21.293,13,23v0.5
				c0,0.276,0.224,0.5,0.5,0.5h10c0.276,0,0.5-0.224,0.5-0.5V23C24,21.294,22.154,21.097,20.5,20.623z"/>
		</g>
	</g>
</g>
<g id="Invisible_Shape">
	<rect fill="none" width="24" height="24"/>
</g>
</svg>
