<?xml version="1.0" encoding="utf-8"?>
<!-- Generator: Adobe Illustrator 19.2.1, SVG Export Plug-In . SVG Version: 6.00 Build 0)  -->
<svg version="1.1" xmlns="http://www.w3.org/2000/svg" xmlns:xlink="http://www.w3.org/1999/xlink" x="0px" y="0px" width="24px"
	 height="24px" viewBox="0 0 24 24" enable-background="new 0 0 24 24" xml:space="preserve">
<g id="Filled_Icon">
	<g>
		<path d="M15.673,9.115c-0.854-0.309-1.816,0.048-2.317,0.766L9.982,8.676c0.016-0.189,0.043-0.268-0.028-0.596l3.543-1.771
			c0.612,0.706,1.596,0.879,2.396,0.478c0.991-0.493,1.392-1.693,0.897-2.684c-0.499-0.999-1.7-1.384-2.683-0.894
			c-0.778,0.39-1.259,1.263-1.056,2.204L9.499,7.189C9.133,6.771,8.6,6.499,8,6.499c-1.102,0-2,0.898-2,2c0,1.103,0.898,2,2,2
			c0.688,0,1.294-0.349,1.654-0.879l3.36,1.2c-0.088,0.962,0.493,1.771,1.312,2.062c1.045,0.374,2.188-0.18,2.557-1.21
			C17.256,10.627,16.711,9.485,15.673,9.115z M14.554,4.104c0.477-0.239,1.086-0.061,1.341,0.447
			c0.246,0.495,0.047,1.097-0.448,1.342c-0.481,0.243-1.099,0.032-1.339-0.446c-0.001-0.001-0.001-0.001-0.001-0.001
			c0-0.002-0.001-0.002-0.002-0.003C13.856,4.945,14.065,4.348,14.554,4.104z M8,9.499c-0.552,0-1-0.448-1-1c0-0.552,0.448-1,1-1
			s1,0.448,1,1C9,9.051,8.552,9.499,8,9.499z M15.941,11.336c-0.181,0.504-0.765,0.787-1.278,0.604
			c-0.514-0.184-0.79-0.749-0.606-1.272c0.001-0.002,0.003-0.003,0.004-0.005c0.001-0.003,0-0.006,0.001-0.009
			c0.19-0.515,0.76-0.783,1.273-0.598C15.856,10.242,16.129,10.811,15.941,11.336z"/>
		<path d="M9.5,16c0.653,0,1.209,0.418,1.415,1h1.17c0.206-0.582,0.762-1,1.415-1H22V2c0-1.104-0.897-2-2-2H3C1.898,0,1,0.896,1,2
			v14H9.5z M3,2.5C3,2.224,3.224,2,3.5,2h16C19.776,2,20,2.224,20,2.5v11c0,0.276-0.224,0.5-0.5,0.5h-16C3.224,14,3,13.776,3,13.5
			V2.5z"/>
		<path d="M21.5,20c0.827,0,1.5-0.673,1.5-1.5v-1c0-0.276-0.224-0.5-0.5-0.5h-9c-0.276,0-0.5,0.224-0.5,0.5V18h-3v-0.5
			c0-0.276-0.224-0.5-0.5-0.5h-9C0.224,17,0,17.224,0,17.5v1C0,19.327,0.673,20,1.5,20H11v3H0.521c-0.276,0-0.5,0.224-0.5,0.5
			s0.224,0.5,0.5,0.5h21.947c0.276,0,0.5-0.224,0.5-0.5s-0.224-0.5-0.5-0.5H12v-3H21.5z"/>
	</g>
</g>
<g id="Invisible_Shape">
	<rect fill="none" width="24" height="24"/>
</g>
</svg>
