<?xml version="1.0" encoding="utf-8"?>
<!-- Generator: Adobe Illustrator 19.2.1, SVG Export Plug-In . SVG Version: 6.00 Build 0)  -->
<svg version="1.1" xmlns="http://www.w3.org/2000/svg" xmlns:xlink="http://www.w3.org/1999/xlink" x="0px" y="0px" width="24px"
	 height="24px" viewBox="0 0 24 24" enable-background="new 0 0 24 24" xml:space="preserve">
<g id="Filled_Icon">
	<g>
		<path d="M15.207,5C14.13,2.782,12.905,1.464,12,0.464c-0.904,1-2.126,2.315-3.206,4.536H15.207z"/>
		<path d="M6.388,12H0c0,1.785,0.402,3.476,1.105,5h6.231C6.771,15.318,6.455,13.646,6.388,12z"/>
		<path d="M16.285,5h5.441c-2.002-2.774-5.152-4.66-8.754-4.951C14.248,1.459,15.354,2.899,16.285,5z"/>
		<path d="M7.7,18H1.623c1.939,3.338,5.433,5.655,9.487,5.955C9.812,22.287,8.556,20.164,7.7,18z"/>
		<path d="M16.674,11c-0.041-1.717-0.371-3.393-1.013-5H8.34c-0.642,1.607-0.972,3.283-1.012,5H16.674z"/>
		<path d="M7.716,5c0.896-2.019,1.959-3.45,3.312-4.951C7.426,0.34,4.275,2.226,2.273,5H7.716z"/>
		<path d="M16.69,6c0.587,1.611,0.901,3.285,0.938,5h6.322c-0.15-1.811-0.705-3.506-1.572-5H16.69z"/>
		<path d="M0.051,11h6.323c0.037-1.715,0.351-3.389,0.938-5H1.623C0.756,7.494,0.201,9.189,0.051,11z"/>
		<path d="M13.96,22.45c-0.348,0.526-0.705,1.034-1.07,1.505c0.782-0.058,1.536-0.212,2.27-0.413
			C14.683,23.198,14.289,22.826,13.96,22.45z"/>
		<path d="M13,20.434V18H8.759c0.833,1.966,1.971,3.84,3.241,5.469c0.469-0.601,0.91-1.244,1.333-1.902
			C13.122,21.17,13,20.782,13,20.434z"/>
		<path d="M13,14.509c0-0.827,0.674-1.5,1.503-1.5c0.854,0,1.111,0.68,1.971,0.741c0.092-0.586,0.162-1.171,0.188-1.75H7.34
			c0.072,1.641,0.407,3.312,1.019,5H13V14.509z"/>
		<path d="M19.685,13.373c0.436,0.559,1.125,0.486,1.955-0.093c0.74-0.523,1.78-0.274,2.198,0.564C23.934,13.242,24,12.629,24,12
			h-6.387c-0.016,0.39-0.048,0.781-0.092,1.174C18.14,12.67,19.182,12.734,19.685,13.373z"/>
		<path d="M22.213,14.1c-1.449,1.013-2.639,0.756-3.315-0.108c-0.189-0.241-0.605-0.241-0.795,0
			c-0.681,0.867-1.868,1.12-3.317,0.107C14.451,13.867,14,14.11,14,14.509v5.925c0,0.802,1.463,2.735,4.365,3.549
			c0.096,0.023,0.174,0.023,0.27,0C21.537,23.169,23,21.235,23,20.434v-5.925C23,14.108,22.546,13.865,22.213,14.1z M20.519,19H19
			v1.466c0,0.277-0.224,0.5-0.5,0.5s-0.5-0.223-0.5-0.5V19h-1.522c-0.276,0-0.5-0.224-0.5-0.5s0.224-0.5,0.5-0.5H18v-1.521
			c0-0.276,0.224-0.5,0.5-0.5s0.5,0.224,0.5,0.5V18h1.519c0.276,0,0.5,0.224,0.5,0.5S20.795,19,20.519,19z"/>
	</g>
</g>
<g id="Invisible_Shape">
	<rect fill="none" width="24" height="24"/>
</g>
</svg>
