<?xml version="1.0" encoding="utf-8"?>
<!-- Generator: Adobe Illustrator 19.2.1, SVG Export Plug-In . SVG Version: 6.00 Build 0)  -->
<svg version="1.1" xmlns="http://www.w3.org/2000/svg" xmlns:xlink="http://www.w3.org/1999/xlink" x="0px" y="0px" width="24px"
	 height="24px" viewBox="0 0 24 24" enable-background="new 0 0 24 24" xml:space="preserve">
<g id="Filled_Icon">
	<g>
		<path d="M15.207,5C14.13,2.782,12.905,1.464,12,0.464c-0.904,1-2.126,2.315-3.206,4.536H15.207z"/>
		<path d="M6.388,12H0c0,1.785,0.402,3.476,1.105,5h6.231C6.771,15.318,6.455,13.646,6.388,12z"/>
		<path d="M16.285,5h5.441c-2.002-2.774-5.152-4.66-8.754-4.951C14.248,1.459,15.354,2.899,16.285,5z"/>
		<path d="M7.7,18H1.623c1.939,3.338,5.433,5.655,9.487,5.955C9.812,22.287,8.556,20.164,7.7,18z"/>
		<path d="M16.674,11c-0.041-1.717-0.371-3.393-1.013-5H8.34c-0.642,1.607-0.972,3.283-1.012,5H16.674z"/>
		<path d="M7.716,5c0.896-2.019,1.959-3.45,3.312-4.951C7.426,0.34,4.275,2.226,2.273,5H7.716z"/>
		<path d="M16.69,6c0.587,1.611,0.901,3.285,0.938,5h6.322c-0.15-1.811-0.705-3.506-1.572-5H16.69z"/>
		<path d="M0.051,11h6.323c0.037-1.715,0.351-3.389,0.938-5H1.623C0.756,7.494,0.201,9.189,0.051,11z"/>
		<path d="M12.157,22.832L14.573,18H8.759c0.833,1.966,1.971,3.84,3.241,5.469c0.004-0.004,0.007-0.01,0.01-0.014
			C12.017,23.243,12.059,23.031,12.157,22.832z"/>
		<path d="M16.365,14.416c0.161-0.812,0.261-1.617,0.296-2.416H7.34c0.072,1.641,0.407,3.312,1.019,5h6.715L16.365,14.416z"/>
		<path d="M23.947,23.276l-5-10c-0.17-0.338-0.725-0.338-0.895,0l-5,10C12.887,23.611,13.13,24,13.5,24h10
			C23.87,24,24.113,23.611,23.947,23.276z M18.5,22c-0.276,0-0.5-0.223-0.5-0.5c0-0.274,0.224-0.5,0.5-0.5
			c0.275,0,0.5,0.226,0.5,0.5C19,21.777,18.775,22,18.5,22z M19,20c0,0.276-0.224,0.5-0.5,0.5S18,20.276,18,20v-3
			c0-0.276,0.224-0.5,0.5-0.5S19,16.724,19,17V20z"/>
		<path d="M18.5,12v0.023c0.577,0,1.091,0.308,1.341,0.804L21.928,17h0.967C23.598,15.476,24,13.785,24,12H18.5z"/>
	</g>
</g>
<g id="Invisible_Shape">
	<rect fill="none" width="24" height="24"/>
</g>
</svg>
