<?xml version="1.0" encoding="utf-8"?>
<!-- Generator: Adobe Illustrator 19.2.1, SVG Export Plug-In . SVG Version: 6.00 Build 0)  -->
<svg version="1.1" xmlns="http://www.w3.org/2000/svg" xmlns:xlink="http://www.w3.org/1999/xlink" x="0px" y="0px" width="24px"
	 height="24px" viewBox="0 0 24 24" enable-background="new 0 0 24 24" xml:space="preserve">
<g id="Filled_Icon">
	<g>
		<path d="M20.95,9.281c0.564,0.325,0.985,0.86,1.161,1.502c1.064-0.223,1.365-0.378,1.74-0.57c-0.282-1.881-0.996-3.62-2.048-5.11
			C21.679,6.305,21.401,7.752,20.95,9.281z"/>
		<path d="M3.051,4.033c1.402,1.595,2.415,3.671,2.847,5.924C7.4,10.07,8.568,11.519,8.097,13.14
			c1.201,0.803,2.416,1.918,3.028,2.509c1.201-0.592,2.547,0.131,2.822,1.35c0.158-0.008,0.323-0.017,0.48-0.026
			c0.041-1.368,1.429-2.32,2.736-1.794c0.376-0.598,0.72-1.222,1.011-1.78c-0.526-0.413-0.878-1.028-0.942-1.731
			c-2.624-0.62-4.947-2.102-6.627-4.221C8.971,8.096,7.257,6.907,7.196,5.215L7.176,5.21C5.824,4.833,4.566,4.225,3.538,3.501
			C3.367,3.671,3.211,3.853,3.051,4.033z"/>
		<path d="M12.688,19.309c-1.144,0.422-2.296-0.251-2.602-1.326c-1.324-0.066-2.64-0.208-3.986-0.423
			c-0.231,0.571-0.798,0.983-1.502,0.929c-0.323,0.579-0.782,1.322-1.227,1.829c1.295,1.344,2.899,2.382,4.698,3.008
			c2.008-1.086,3.536-2.173,4.971-3.447C12.928,19.692,12.809,19.502,12.688,19.309z"/>
		<path d="M23.502,15.402c0.45-1.521,0.542-2.793,0.461-4.132c-0.489,0.227-1.264,0.417-1.789,0.519
			c-0.202,1.413-1.582,2.462-3.104,2.056c-0.313,0.602-0.688,1.281-1.102,1.933c0.182,0.223,0.316,0.482,0.389,0.769
			C19.979,16.295,21.636,15.948,23.502,15.402z"/>
		<path d="M7.364,4.219c0.2-0.512,0.563-0.936,1.026-1.22C8.148,2.05,8.099,1.576,8.008,0.697C6.643,1.181,5.388,1.895,4.299,2.81
			C5.212,3.418,6.246,3.898,7.364,4.219z"/>
		<path d="M5.888,14.92c-0.066,0.353-0.136,0.667-0.209,0.945c0.212,0.182,0.37,0.418,0.455,0.69
			c1.328,0.217,2.623,0.355,3.925,0.424c0.058-0.246,0.158-0.475,0.298-0.676c-0.798-0.766-1.81-1.641-2.737-2.271
			C7.196,14.537,6.584,14.869,5.888,14.92z"/>
		<path d="M11.446,6.899c1.511,1.872,3.572,3.188,5.897,3.766C17.69,9.608,18.726,8.814,20,8.968
			c0.454-1.547,0.84-3.394,0.865-5.026c-0.604-0.665-1.276-1.265-2.016-1.78c-1.396,1.511-3.941,2.943-6.701,3.356
			C12.064,6.053,11.815,6.533,11.446,6.899z"/>
		<path d="M9.338,2.661c1.341-0.193,2.467,0.682,2.765,1.851c2.371-0.377,4.641-1.608,5.887-2.895
			c-2.62-1.519-5.775-2.059-9.005-1.219C9.07,1.298,9.119,1.777,9.338,2.661z"/>
		<path d="M13.547,20.763c-1.27,1.108-2.64,2.103-4.126,2.939c-0.002,0.001-0.011,0.007-0.014,0.009
			c1.881,0.415,3.63,0.375,5.424-0.062C14.475,22.648,14.291,22.111,13.547,20.763z"/>
		<path d="M18.341,17.562c-0.323,1.165-1.625,1.836-2.799,1.256c-0.396,0.436-0.801,0.861-1.227,1.266
			c0.901,1.601,1.125,2.291,1.479,3.291c3.31-1.107,5.981-3.613,7.302-6.82C21.478,16.993,20.107,17.298,18.341,17.562z"/>
		<path d="M3.631,11.051c0.302-0.45,0.75-0.788,1.271-0.968C4.499,8.03,3.576,6.181,2.408,4.819
			c-1.172,1.562-1.969,3.413-2.266,5.43C1.143,10.413,1.95,10.503,3.631,11.051z"/>
		<path d="M0.435,15.155c0.916,0.365,2.135,0.646,3.096,0.866l0.043,0.01c0.275-0.322,0.68-0.531,1.136-0.531
			c0.011,0,0.02,0.003,0.031,0.003c0.054-0.213,0.104-0.451,0.155-0.712c-1.117-0.389-1.876-1.529-1.641-2.81
			c-1.457-0.47-2.217-0.581-3.217-0.735C-0.038,12.465,0.018,13.627,0.435,15.155z"/>
		<path d="M14.66,17.958c-0.25,0.017-0.503,0.031-0.751,0.042c-0.081,0.275-0.218,0.523-0.399,0.735
			c0.099,0.158,0.192,0.311,0.285,0.463c0.341-0.33,0.665-0.678,0.986-1.029C14.734,18.103,14.698,18.03,14.66,17.958z"/>
		<path d="M3.673,18.08C3.388,17.807,3.209,17.425,3.209,17c0-0.009,0.002-0.018,0.003-0.025c-0.848-0.196-1.55-0.361-2.381-0.617
			c0.457,1.168,1.085,2.249,1.863,3.206C3.038,19.162,3.413,18.538,3.673,18.08z"/>
	</g>
</g>
<g id="Invisible_Shape">
	<rect fill="none" width="24" height="24"/>
</g>
</svg>
