<?xml version="1.0" encoding="utf-8"?>
<!-- Generator: Adobe Illustrator 19.2.1, SVG Export Plug-In . SVG Version: 6.00 Build 0)  -->
<svg version="1.1" xmlns="http://www.w3.org/2000/svg" xmlns:xlink="http://www.w3.org/1999/xlink" x="0px" y="0px" width="24px"
	 height="24px" viewBox="0 0 24 24" enable-background="new 0 0 24 24" xml:space="preserve">
<g id="Filled_Icon">
	<g>
		<path d="M15.207,5C14.13,2.782,12.905,1.464,12,0.464c-0.904,1-2.126,2.315-3.206,4.536H15.207z"/>
		<path d="M6.388,12H0c0,1.785,0.402,3.476,1.105,5h6.231C6.771,15.318,6.455,13.646,6.388,12z"/>
		<path d="M16.285,5h5.441c-2.002-2.774-5.152-4.66-8.754-4.951C14.248,1.459,15.354,2.899,16.285,5z"/>
		<path d="M7.7,18H1.623c1.939,3.338,5.433,5.655,9.487,5.955C9.812,22.287,8.556,20.164,7.7,18z"/>
		<path d="M16.674,11c-0.041-1.717-0.371-3.393-1.013-5H8.34c-0.642,1.607-0.972,3.283-1.012,5H16.674z"/>
		<path d="M7.716,5c0.896-2.019,1.959-3.45,3.312-4.951C7.426,0.34,4.275,2.226,2.273,5H7.716z"/>
		<path d="M16.69,6c0.587,1.611,0.901,3.285,0.938,5h6.322c-0.15-1.811-0.705-3.506-1.572-5H16.69z"/>
		<path d="M0.051,11h6.323c0.037-1.715,0.351-3.389,0.938-5H1.623C0.756,7.494,0.201,9.189,0.051,11z"/>
		<path d="M13.747,22.767c-0.28,0.411-0.566,0.813-0.858,1.188c0.714-0.053,1.402-0.189,2.076-0.361
			C14.436,23.539,14.037,23.27,13.747,22.767z"/>
		<path d="M12.803,21.133c-0.397-0.696-0.249-1.589,0.696-2.134c-0.415-0.239-0.707-0.479-0.845-0.994c0-0.001,0-0.003-0.001-0.005
			H8.759c0.833,1.966,1.971,3.84,3.241,5.469c0.415-0.532,0.807-1.096,1.186-1.672L12.803,21.133z"/>
		<path d="M13.804,15.133C14.19,14.469,15.068,14.13,16,14.67c0-0.523,0.093-0.934,0.537-1.311c0.061-0.455,0.104-0.908,0.124-1.359
			H7.34c0.072,1.641,0.407,3.312,1.019,5h4.385C12.842,16.783,13.685,15.34,13.804,15.133z"/>
		<path d="M19.5,13c0.804,0,1.5,0.592,1.5,1.668c0.942-0.544,1.82-0.191,2.197,0.469l0.243,0.42C23.795,14.432,24,13.241,24,12
			h-6.387c-0.014,0.332-0.044,0.666-0.078,1H19.5z"/>
		<path d="M23.147,19.951l-0.702-0.406c0.073-0.541,0.073-0.547,0-1.092l0.702-0.404c0.239-0.138,0.319-0.443,0.183-0.684
			l-1.001-1.732c-0.137-0.239-0.443-0.322-0.683-0.184l-0.702,0.406c-0.288-0.226-0.601-0.419-0.944-0.559V14.5
			c0-0.276-0.224-0.5-0.5-0.5h-2c-0.276,0-0.5,0.224-0.5,0.5v0.797c-0.344,0.14-0.656,0.334-0.945,0.559l-0.701-0.404
			c-0.24-0.139-0.545-0.057-0.684,0.182l-1,1.732c-0.139,0.239-0.057,0.546,0.184,0.684l0.701,0.405c-0.073,0.54-0.074,0.548,0,1.09
			l-0.702,0.405c-0.239,0.139-0.32,0.444-0.184,0.684l1.001,1.732c0.137,0.239,0.443,0.321,0.684,0.184l0.7-0.405
			c0.289,0.226,0.602,0.42,0.946,0.559V23.5c0,0.276,0.224,0.5,0.5,0.5h2c0.276,0,0.5-0.224,0.5-0.5v-0.797
			c0.345-0.14,0.657-0.334,0.946-0.559l0.701,0.404c0.239,0.138,0.544,0.056,0.683-0.184l1-1.732
			C23.469,20.395,23.387,20.088,23.147,19.951z M18.5,21c-1.104,0-2-0.896-2-2s0.896-2,2-2s2,0.896,2,2S19.604,21,18.5,21z"/>
	</g>
</g>
<g id="Invisible_Shape">
	<rect fill="none" width="24" height="24"/>
</g>
</svg>
