<?xml version="1.0" encoding="utf-8"?>
<!-- Generator: Adobe Illustrator 19.2.1, SVG Export Plug-In . SVG Version: 6.00 Build 0)  -->
<svg version="1.1" xmlns="http://www.w3.org/2000/svg" xmlns:xlink="http://www.w3.org/1999/xlink" x="0px" y="0px" width="24px"
	 height="24px" viewBox="0 0 24 24" enable-background="new 0 0 24 24" xml:space="preserve">
<g id="Filled_Icon">
	<g>
		<path d="M15.207,5C14.13,2.782,12.905,1.464,12,0.464c-0.904,1-2.126,2.315-3.206,4.536H15.207z"/>
		<path d="M6.388,12H0c0,1.785,0.402,3.476,1.105,5h6.231C6.771,15.318,6.455,13.646,6.388,12z"/>
		<path d="M16.285,5h5.441c-2.002-2.774-5.152-4.66-8.754-4.951C14.248,1.459,15.354,2.899,16.285,5z"/>
		<path d="M7.7,18H1.623c1.939,3.338,5.433,5.655,9.487,5.955C9.812,22.287,8.556,20.164,7.7,18z"/>
		<path d="M16.674,11c-0.041-1.717-0.371-3.393-1.013-5H8.34c-0.642,1.607-0.972,3.283-1.012,5H16.674z"/>
		<path d="M7.716,5c0.896-2.019,1.959-3.45,3.312-4.951C7.426,0.34,4.275,2.226,2.273,5H7.716z"/>
		<path d="M16.69,6c0.587,1.611,0.901,3.285,0.938,5h6.322c-0.15-1.811-0.705-3.506-1.572-5H16.69z"/>
		<path d="M0.051,11h6.323c0.037-1.715,0.351-3.389,0.938-5H1.623C0.756,7.494,0.201,9.189,0.051,11z"/>
		<path d="M14.509,21.568c-0.513,0.85-1.056,1.661-1.619,2.387c1.452-0.107,2.827-0.482,4.089-1.061
			C16.028,22.695,15.179,22.225,14.509,21.568z"/>
		<path d="M13,18H8.759c0.833,1.966,1.971,3.84,3.241,5.469c0.658-0.846,1.277-1.754,1.839-2.705C13.311,19.972,13,19.021,13,18z"/>
		<path d="M16.558,13.237c0.051-0.414,0.085-0.827,0.104-1.237H7.34c0.072,1.641,0.407,3.312,1.019,5h4.743
			C13.469,15.197,14.818,13.767,16.558,13.237z"/>
		<path d="M18,13c2.412,0,4.43,1.717,4.897,3.992C23.599,15.47,24,13.782,24,12h-6.387c-0.014,0.348-0.045,0.697-0.082,1.047
			C17.688,13.032,17.84,13,18,13z"/>
		<path d="M23.854,23.146l-2.707-2.706C21.673,19.763,22,18.923,22,18c0-2.205-1.794-4-4-4s-4,1.795-4,4s1.794,4,4,4
			c0.923,0,1.762-0.326,2.44-0.852l2.707,2.705c0.195,0.195,0.512,0.195,0.707,0C24.049,23.658,24.049,23.342,23.854,23.146z M15,18
			c0-1.654,1.346-3,3-3s3,1.346,3,3s-1.346,3-3,3S15,19.654,15,18z"/>
	</g>
</g>
<g id="Invisible_Shape">
	<rect fill="none" width="24" height="24"/>
</g>
</svg>
