<?xml version="1.0" encoding="utf-8"?>
<!-- Generator: Adobe Illustrator 19.2.1, SVG Export Plug-In . SVG Version: 6.00 Build 0)  -->
<svg version="1.1" xmlns="http://www.w3.org/2000/svg" xmlns:xlink="http://www.w3.org/1999/xlink" x="0px" y="0px" width="24px"
	 height="24px" viewBox="0 0 24 24" enable-background="new 0 0 24 24" xml:space="preserve">
<g id="Filled_Icon">
	<g>
		<path d="M18.5,13c-3.033,0-5.5,2.468-5.5,5.5s2.467,5.5,5.5,5.5s5.5-2.468,5.5-5.5S21.533,13,18.5,13z M18.5,22
			c-0.276,0-0.5-0.224-0.5-0.5s0.224-0.5,0.5-0.5s0.5,0.224,0.5,0.5S18.776,22,18.5,22z M19,18.937V20c0,0.276-0.224,0.5-0.5,0.5
			S18,20.276,18,20v-1.5c0-0.276,0.224-0.5,0.5-0.5c0.551,0,1-0.448,1-1s-0.449-1-1-1s-1,0.448-1,1c0,0.276-0.224,0.5-0.5,0.5
			s-0.5-0.224-0.5-0.5c0-1.102,0.896-2,2-2s2,0.898,2,2C20.5,17.931,19.861,18.714,19,18.937z"/>
		<g>
			<path d="M18.711,3.815c-5.078-5.078-13.343-5.077-18.423,0c-0.195,0.195-0.195,0.512,0,0.707c0.195,0.195,0.512,0.195,0.707,0
				c4.689-4.688,12.319-4.689,17.009,0c0.195,0.195,0.512,0.195,0.707,0C18.906,4.327,18.906,4.011,18.711,3.815z"/>
			<path d="M2.82,7.242c-0.195,0.195-0.195,0.512,0,0.707c0.195,0.195,0.512,0.195,0.707,0c3.294-3.294,8.64-3.307,11.946,0
				c0.195,0.194,0.512,0.195,0.707,0c0.195-0.195,0.195-0.512,0-0.707C12.43,3.487,6.45,3.61,2.82,7.242z"/>
			<path d="M13.65,10.666c-2.288-2.286-6.012-2.287-8.301,0c-0.195,0.195-0.195,0.512,0,0.707c0.195,0.195,0.512,0.195,0.707,0
				c1.898-1.897,4.988-1.896,6.887,0c0.195,0.195,0.512,0.195,0.707,0C13.846,11.178,13.846,10.861,13.65,10.666z"/>
			<circle cx="9.5" cy="15.71" r="2.289"/>
		</g>
	</g>
</g>
<g id="Invisible_Shape">
	<rect fill="none" width="24" height="24"/>
</g>
</svg>
