<?xml version="1.0" encoding="utf-8"?>
<!-- Generator: Adobe Illustrator 19.2.1, SVG Export Plug-In . SVG Version: 6.00 Build 0)  -->
<svg version="1.1" xmlns="http://www.w3.org/2000/svg" xmlns:xlink="http://www.w3.org/1999/xlink" x="0px" y="0px" width="24px"
	 height="24px" viewBox="0 0 24 24" enable-background="new 0 0 24 24" xml:space="preserve">
<g id="Filled_Icon">
	<g>
		<path d="M18,14h-1v-0.5c0-0.276-0.224-0.5-0.5-0.5h-10C6.224,13,6,13.224,6,13.5v6c0,2.481,2.019,4.5,4.5,4.5h2
			c2.311,0,4.197-1.756,4.449-4H18c1.654,0,3-1.346,3-3S19.654,14,18,14z M18,19h-1v-4h1c1.103,0,2,0.896,2,2
			C20,18.103,19.103,19,18,19z"/>
		<path d="M20.004,4.557c0.195,0.195,0.512,0.195,0.707,0c0.195-0.195,0.195-0.512,0-0.707C15.633-1.23,7.367-1.23,2.289,3.85
			c-0.195,0.195-0.195,0.512,0,0.707c0.195,0.195,0.512,0.195,0.707,0C7.686-0.133,15.314-0.133,20.004,4.557z"/>
		<path d="M17.473,7.982c0.195,0.195,0.512,0.195,0.707,0c0.195-0.195,0.195-0.512,0-0.707c-3.726-3.728-9.709-3.652-13.359,0
			c-0.195,0.195-0.195,0.512,0,0.707s0.512,0.195,0.707,0C8.825,4.686,14.172,4.68,17.473,7.982z"/>
		<path d="M7.35,10.7c-0.195,0.195-0.195,0.512,0,0.707c0.195,0.195,0.512,0.195,0.707,0c1.899-1.897,4.988-1.897,6.887,0
			c0.195,0.195,0.512,0.195,0.707,0s0.195-0.512,0-0.707C13.361,8.412,9.639,8.412,7.35,10.7z"/>
	</g>
</g>
<g id="Invisible_Shape">
	<rect fill="none" width="24" height="24"/>
</g>
</svg>
