<?xml version="1.0" encoding="utf-8"?>
<!-- Generator: Adobe Illustrator 19.2.1, SVG Export Plug-In . SVG Version: 6.00 Build 0)  -->
<svg version="1.1" xmlns="http://www.w3.org/2000/svg" xmlns:xlink="http://www.w3.org/1999/xlink" x="0px" y="0px" width="24px"
	 height="24px" viewBox="0 0 24 24" enable-background="new 0 0 24 24" xml:space="preserve">
<g id="Filled_Icon">
	<g>
		<path d="M21.272,14.818c-0.771,0-1.674,0.38-2.272,1.368c-0.599-0.988-1.501-1.368-2.272-1.368c-1.341,0-2.728,1.117-2.728,2.984
			c0,2.604,4.225,5.752,4.706,6.102C18.794,23.969,18.896,24,19,24s0.206-0.031,0.294-0.096C19.775,23.555,24,20.407,24,17.803
			C24,15.936,22.613,14.818,21.272,14.818z"/>
		<g>
			<path d="M18.711,3.815c-5.078-5.078-13.343-5.077-18.423,0c-0.195,0.195-0.195,0.512,0,0.707c0.195,0.195,0.512,0.195,0.707,0
				c4.689-4.688,12.319-4.689,17.009,0c0.195,0.195,0.512,0.195,0.707,0C18.906,4.327,18.906,4.011,18.711,3.815z"/>
			<path d="M2.82,7.242c-0.195,0.195-0.195,0.512,0,0.707c0.195,0.195,0.512,0.195,0.707,0c3.294-3.294,8.64-3.307,11.946,0
				c0.195,0.194,0.512,0.195,0.707,0c0.195-0.195,0.195-0.512,0-0.707C12.43,3.487,6.45,3.61,2.82,7.242z"/>
			<path d="M13.65,10.666c-2.288-2.286-6.012-2.287-8.301,0c-0.195,0.195-0.195,0.512,0,0.707c0.195,0.195,0.512,0.195,0.707,0
				c1.898-1.897,4.988-1.896,6.887,0c0.195,0.195,0.512,0.195,0.707,0C13.846,11.178,13.846,10.861,13.65,10.666z"/>
			<circle cx="9.5" cy="15.71" r="2.289"/>
		</g>
	</g>
</g>
<g id="Invisible_Shape">
	<rect fill="none" width="24" height="24"/>
</g>
</svg>
