<?xml version="1.0" encoding="utf-8"?>
<!-- Generator: Adobe Illustrator 19.2.1, SVG Export Plug-In . SVG Version: 6.00 Build 0)  -->
<svg version="1.1" xmlns="http://www.w3.org/2000/svg" xmlns:xlink="http://www.w3.org/1999/xlink" x="0px" y="0px" width="24px"
	 height="24px" viewBox="0 0 24 24" enable-background="new 0 0 24 24" xml:space="preserve">
<g id="Filled_Icon">
	<g>
		<path d="M18.5,13c-3.033,0-5.5,2.469-5.5,5.5c0,3.033,2.467,5.5,5.5,5.5s5.5-2.467,5.5-5.5C24,15.469,21.533,13,18.5,13z
			 M18.5,17.94c0.915,0,1.659,0.745,1.659,1.661c0,0.739-0.489,1.358-1.159,1.571v0.359c0,0.277-0.224,0.5-0.5,0.5
			s-0.5-0.223-0.5-0.5v-0.359c-0.67-0.213-1.159-0.832-1.159-1.571c0-0.277,0.224-0.5,0.5-0.5c0.276,0,0.5,0.223,0.5,0.5
			c0,0.363,0.296,0.657,0.659,0.657s0.659-0.294,0.659-0.657c0-0.364-0.296-0.661-0.659-0.661c-0.915,0-1.659-0.744-1.659-1.657
			c0-0.741,0.489-1.361,1.159-1.575v-0.357c0-0.275,0.224-0.5,0.5-0.5s0.5,0.225,0.5,0.5v0.357c0.67,0.214,1.159,0.834,1.159,1.575
			c0,0.275-0.224,0.5-0.5,0.5c-0.276,0-0.5-0.225-0.5-0.5c0-0.364-0.296-0.66-0.659-0.66s-0.659,0.296-0.659,0.66
			C17.841,17.645,18.137,17.94,18.5,17.94z"/>
		<g>
			<path d="M18.711,3.815c-5.078-5.078-13.343-5.077-18.423,0c-0.195,0.195-0.195,0.512,0,0.707c0.195,0.195,0.512,0.195,0.707,0
				c4.689-4.688,12.319-4.689,17.009,0c0.195,0.195,0.512,0.195,0.707,0C18.906,4.327,18.906,4.011,18.711,3.815z"/>
			<path d="M2.82,7.242c-0.195,0.195-0.195,0.512,0,0.707c0.195,0.195,0.512,0.195,0.707,0c3.294-3.294,8.64-3.307,11.946,0
				c0.195,0.194,0.512,0.195,0.707,0c0.195-0.195,0.195-0.512,0-0.707C12.43,3.487,6.45,3.61,2.82,7.242z"/>
			<path d="M13.65,10.666c-2.288-2.286-6.012-2.287-8.301,0c-0.195,0.195-0.195,0.512,0,0.707c0.195,0.195,0.512,0.195,0.707,0
				c1.898-1.897,4.988-1.896,6.887,0c0.195,0.195,0.512,0.195,0.707,0C13.846,11.178,13.846,10.861,13.65,10.666z"/>
			<circle cx="9.5" cy="15.71" r="2.289"/>
		</g>
	</g>
</g>
<g id="Invisible_Shape">
	<rect fill="none" width="24" height="24"/>
</g>
</svg>
