<?xml version="1.0" encoding="utf-8"?>
<!-- Generator: Adobe Illustrator 19.2.1, SVG Export Plug-In . SVG Version: 6.00 Build 0)  -->
<svg version="1.1" xmlns="http://www.w3.org/2000/svg" xmlns:xlink="http://www.w3.org/1999/xlink" x="0px" y="0px" width="24px"
	 height="24px" viewBox="0 0 24 24" enable-background="new 0 0 24 24" xml:space="preserve">
<g id="Filled_Icon">
	<g>
		<g>
			<path d="M18.5,13c-3.032,0-5.5,2.467-5.5,5.5s2.468,5.5,5.5,5.5s5.5-2.467,5.5-5.5S21.532,13,18.5,13z M15.231,17.346
				c0.833-2.349,3.811-3.129,5.798-1.371V15.85c0-0.276,0.224-0.5,0.5-0.5c0.276,0,0.5,0.224,0.5,0.5v1.665
				c0,0.276-0.224,0.5-0.5,0.5h-1.666c-0.276,0-0.5-0.224-0.5-0.5c0-0.276,0.224-0.5,0.5-0.5h0.795
				c-1.243-1.534-3.793-1.28-4.483,0.665c-0.094,0.262-0.38,0.395-0.639,0.305C15.276,17.892,15.14,17.605,15.231,17.346z
				 M22.162,19.659c-0.833,2.346-3.804,3.129-5.798,1.37v0.125c0,0.277-0.224,0.5-0.5,0.5c-0.276,0-0.5-0.223-0.5-0.5v-1.665
				c0-0.276,0.224-0.5,0.5-0.5h1.666c0.276,0,0.5,0.224,0.5,0.5c0,0.276-0.224,0.5-0.5,0.5h-0.795
				c1.243,1.533,3.793,1.281,4.483-0.665c0.094-0.26,0.383-0.396,0.639-0.305C22.118,19.112,22.254,19.398,22.162,19.659z"/>
		</g>
		<g>
			<path d="M18.711,3.815c-5.078-5.078-13.343-5.077-18.423,0c-0.195,0.195-0.195,0.512,0,0.707c0.195,0.195,0.512,0.195,0.707,0
				c4.689-4.688,12.319-4.689,17.009,0c0.195,0.195,0.512,0.195,0.707,0C18.906,4.327,18.906,4.011,18.711,3.815z"/>
			<path d="M2.82,7.242c-0.195,0.195-0.195,0.512,0,0.707c0.195,0.195,0.512,0.195,0.707,0c3.294-3.294,8.64-3.307,11.946,0
				c0.195,0.194,0.512,0.195,0.707,0c0.195-0.195,0.195-0.512,0-0.707C12.43,3.487,6.45,3.61,2.82,7.242z"/>
			<path d="M13.65,10.666c-2.288-2.286-6.012-2.287-8.301,0c-0.195,0.195-0.195,0.512,0,0.707c0.195,0.195,0.512,0.195,0.707,0
				c1.898-1.897,4.988-1.896,6.887,0c0.195,0.195,0.512,0.195,0.707,0C13.846,11.178,13.846,10.861,13.65,10.666z"/>
			<circle cx="9.5" cy="15.71" r="2.289"/>
		</g>
	</g>
</g>
<g id="Invisible_Shape">
	<rect fill="none" width="24" height="24"/>
</g>
</svg>
