<?xml version="1.0" encoding="utf-8"?>
<!-- Generator: Adobe Illustrator 19.2.1, SVG Export Plug-In . SVG Version: 6.00 Build 0)  -->
<svg version="1.1" xmlns="http://www.w3.org/2000/svg" xmlns:xlink="http://www.w3.org/1999/xlink" x="0px" y="0px" width="24px"
	 height="24px" viewBox="0 0 24 24" enable-background="new 0 0 24 24" xml:space="preserve">
<g id="Filled_Icon">
	<g>
		<path d="M23.854,23.146l-2.707-2.706C21.673,19.763,22,18.923,22,18c0-2.205-1.794-4-4-4s-4,1.795-4,4s1.794,4,4,4
			c0.923,0,1.762-0.326,2.44-0.852l2.707,2.705c0.195,0.195,0.512,0.195,0.707,0C24.049,23.658,24.049,23.342,23.854,23.146z M15,18
			c0-1.654,1.346-3,3-3s3,1.346,3,3s-1.346,3-3,3S15,19.654,15,18z"/>
		<g>
			<path d="M18.711,3.815c-5.078-5.078-13.343-5.077-18.423,0c-0.195,0.195-0.195,0.512,0,0.707c0.195,0.195,0.512,0.195,0.707,0
				c4.689-4.688,12.319-4.689,17.009,0c0.195,0.195,0.512,0.195,0.707,0C18.906,4.327,18.906,4.011,18.711,3.815z"/>
			<path d="M2.82,7.242c-0.195,0.195-0.195,0.512,0,0.707c0.195,0.195,0.512,0.195,0.707,0c3.294-3.294,8.64-3.307,11.946,0
				c0.195,0.194,0.512,0.195,0.707,0c0.195-0.195,0.195-0.512,0-0.707C12.43,3.487,6.45,3.61,2.82,7.242z"/>
			<path d="M13.65,10.666c-2.288-2.286-6.012-2.287-8.301,0c-0.195,0.195-0.195,0.512,0,0.707c0.195,0.195,0.512,0.195,0.707,0
				c1.898-1.897,4.988-1.896,6.887,0c0.195,0.195,0.512,0.195,0.707,0C13.846,11.178,13.846,10.861,13.65,10.666z"/>
			<circle cx="9.5" cy="15.71" r="2.289"/>
		</g>
	</g>
</g>
<g id="Invisible_Shape">
	<rect fill="none" width="24" height="24"/>
</g>
</svg>
