<?xml version="1.0" encoding="utf-8"?>
<!-- Generator: Adobe Illustrator 19.2.1, SVG Export Plug-In . SVG Version: 6.00 Build 0)  -->
<svg version="1.1" xmlns="http://www.w3.org/2000/svg" xmlns:xlink="http://www.w3.org/1999/xlink" x="0px" y="0px" width="24px"
	 height="24px" viewBox="0 0 24 24" enable-background="new 0 0 24 24" xml:space="preserve">
<g id="Filled_Icons_1_">
	<g id="Filled_Icons">
		<path d="M12,0C5.383,0,0,5.383,0,12c0,6.617,5.383,12,12,12c2.447,0,4.792-0.723,6.783-2.088c0.456-0.312,0.571-0.934,0.258-1.39
			c-0.312-0.455-0.935-0.57-1.39-0.259C15.996,21.399,14.042,22,12,22C6.486,22,2,17.515,2,12C2,6.486,6.486,2,12,2s10,4.486,10,10
			v0.957c0,1.294-1.053,2.348-2.348,2.348c-1.294,0-2.348-1.054-2.348-2.348V12c0-2.925-2.379-5.305-5.304-5.305
			S6.695,9.075,6.695,12s2.38,5.305,5.305,5.305c1.629,0,3.088-0.74,4.062-1.9c0.784,1.146,2.1,1.9,3.59,1.9
			c2.397,0,4.348-1.951,4.348-4.348V12C24,5.383,18.617,0,12,0z M12,15.305c-1.822,0-3.305-1.482-3.305-3.305S10.178,8.695,12,8.695
			s3.304,1.482,3.304,3.305S13.822,15.305,12,15.305z"/>
	</g>
	<g id="New_icons">
	</g>
</g>
<g id="Invisible_Shape">
	<rect fill="none" width="24" height="24"/>
</g>
</svg>
