<?xml version="1.0" encoding="utf-8"?>
<!-- Generator: Adobe Illustrator 19.2.1, SVG Export Plug-In . SVG Version: 6.00 Build 0)  -->
<svg version="1.1" xmlns="http://www.w3.org/2000/svg" xmlns:xlink="http://www.w3.org/1999/xlink" x="0px" y="0px" width="24px"
	 height="24px" viewBox="0 0 24 24" enable-background="new 0 0 24 24" xml:space="preserve">
<g id="Filled_Icons_1_">
	<g id="Filled_Icons">
		<g>
			<path d="M20.952,1.252C20.667,1.097,20.346,1,20,1H2C1.654,1,1.333,1.097,1.049,1.252L11,7.412L20.952,1.252z"/>
			<path d="M19.941,9.439c0.548-0.549,1.486-0.554,2.059-0.04V3c0-0.381-0.113-0.733-0.298-1.037L11.247,8.425
				c-0.155,0.09-0.338,0.09-0.493,0L0.298,1.963C0.113,2.267,0,2.619,0,3v11c0,1.102,0.897,2,2,2h11.38L19.941,9.439z"/>
			<g>
				<rect x="14.11" y="14.234" transform="matrix(0.7071 -0.7071 0.7071 0.7071 -6.5427 17.2073)" width="6.78" height="4.535"/>
				<path d="M23.855,12.646l-2.5-2.5c-0.195-0.195-0.512-0.195-0.707,0L19,11.794l3.207,3.207l1.647-1.648
					C24.05,13.159,24.05,12.842,23.855,12.646z"/>
				<path d="M15.847,21.067L12.93,18.15l-0.911,3.226c-0.046,0.168-0.011,0.353,0.121,0.484c0.131,0.131,0.316,0.166,0.483,0.122
					L15.847,21.067z"/>
			</g>
		</g>
	</g>
	<g id="New_icons">
	</g>
</g>
<g id="Invisible_Shape">
	<rect fill="none" width="24" height="24"/>
</g>
</svg>
