<?xml version="1.0" encoding="utf-8"?>
<!-- Generator: Adobe Illustrator 19.2.1, SVG Export Plug-In . SVG Version: 6.00 Build 0)  -->
<svg version="1.1" xmlns="http://www.w3.org/2000/svg" xmlns:xlink="http://www.w3.org/1999/xlink" x="0px" y="0px" width="24px"
	 height="24px" viewBox="0 0 24 24" enable-background="new 0 0 24 24" xml:space="preserve">
<g id="Filled_Icons_1_">
	<g id="Filled_Icons">
		<g>
			<path d="M20.952,1.252C20.667,1.097,20.346,1,20,1H2C1.654,1,1.333,1.097,1.049,1.252L11,7.412L20.952,1.252z"/>
			<g>
				<path d="M12,15.306C12,12.38,14.38,10,17.306,10c2.049,0,3.811,1.181,4.694,2.887V3c0-0.381-0.113-0.733-0.298-1.037
					L11.247,8.425c-0.155,0.09-0.338,0.09-0.493,0L0.298,1.963C0.113,2.267,0,2.619,0,3v11c0,1.102,0.897,2,2,2h10.07
					C12.04,15.771,12,15.544,12,15.306z"/>
			</g>
			<path d="M23.854,21.146l-3.174-3.174c0.582-0.734,0.932-1.659,0.932-2.667c0-2.374-1.931-4.306-4.305-4.306
				C14.932,11,13,12.932,13,15.306c0,2.374,1.932,4.306,4.306,4.306c1.007,0,1.932-0.351,2.666-0.932l3.174,3.174
				c0.195,0.195,0.512,0.195,0.707,0C24.049,21.658,24.049,21.343,23.854,21.146z M17.306,18.611c-1.823,0-3.306-1.482-3.306-3.306
				C14,13.483,15.483,12,17.306,12c1.822,0,3.305,1.483,3.305,3.306C20.611,17.129,19.128,18.611,17.306,18.611z"/>
		</g>
	</g>
	<g id="New_icons">
	</g>
</g>
<g id="Invisible_Shape">
	<rect fill="none" width="24" height="24"/>
</g>
</svg>
