<?xml version="1.0" encoding="utf-8"?>
<!-- Generator: Adobe Illustrator 19.2.1, SVG Export Plug-In . SVG Version: 6.00 Build 0)  -->
<svg version="1.1" xmlns="http://www.w3.org/2000/svg" xmlns:xlink="http://www.w3.org/1999/xlink" x="0px" y="0px" width="24px"
	 height="24px" viewBox="0 0 24 24" enable-background="new 0 0 24 24" xml:space="preserve">
<g id="Filled_Icons_1_">
	<g id="Filled_Icons">
		<path d="M23.854,23.146L21,20.293c0.616-0.77,1-1.733,1-2.793c0-2.481-2.018-4.5-4.499-4.5C15.019,13,13,15.019,13,17.5
			c0,2.48,2.019,4.5,4.501,4.5c1.059,0,2.022-0.385,2.792-1l2.854,2.854c0.195,0.195,0.512,0.195,0.707,0
			C24.049,23.659,24.049,23.342,23.854,23.146z M17.501,21C15.57,21,14,19.43,14,17.5s1.57-3.5,3.501-3.5C19.43,14,21,15.57,21,17.5
			S19.43,21,17.501,21z"/>
		<path d="M14.736,11.94c-0.242,0.13-0.546,0.04-0.676-0.204c-0.131-0.243-0.04-0.546,0.203-0.677l6.118-3.295l-9.57-7.655
			c-0.182-0.146-0.441-0.146-0.624,0L0.619,7.765l6.118,3.295c0.243,0.131,0.334,0.434,0.203,0.677
			c-0.13,0.243-0.434,0.334-0.676,0.204L0,8.567V18c0,1.103,0.897,2,2,2h10.607C12.222,19.249,12,18.4,12,17.5
			c0-3.033,2.468-5.5,5.501-5.5c1.328,0,2.548,0.474,3.499,1.261V8.567L14.736,11.94z M12.5,13H8.675c0,0-4.862,3.89-4.863,3.891
			c-0.216,0.172-0.53,0.137-0.703-0.079c-0.172-0.216-0.137-0.53,0.079-0.702l5-4C8.276,12.038,8.386,12,8.5,12h4
			c0.276,0,0.5,0.224,0.5,0.5S12.776,13,12.5,13z"/>
	</g>
	<g id="New_icons">
	</g>
</g>
<g id="Invisible_Shape">
	<rect fill="none" width="24" height="24"/>
</g>
</svg>
