<?xml version="1.0" encoding="utf-8"?>
<!-- Generator: Adobe Illustrator 19.2.1, SVG Export Plug-In . SVG Version: 6.00 Build 0)  -->
<svg version="1.1" xmlns="http://www.w3.org/2000/svg" xmlns:xlink="http://www.w3.org/1999/xlink" x="0px" y="0px" width="24px"
	 height="24px" viewBox="0 0 24 24" enable-background="new 0 0 24 24" xml:space="preserve">
<g id="Filled_Icons_1_">
	<g id="Filled_Icons">
		<g>
			<g>
				<path d="M20.952,1.252C20.667,1.097,20.346,1,20,1H2C1.654,1,1.333,1.097,1.049,1.252L11,7.412L20.952,1.252z"/>
				<path d="M21.702,1.963L11.247,8.425c-0.155,0.09-0.338,0.09-0.493,0L0.298,1.963C0.113,2.267,0,2.619,0,3v11
					c0,1.102,0.897,2,2,2h8.025C9.592,9.598,16.897,5.668,22,9.515V3C22,2.619,21.887,2.267,21.702,1.963z"/>
			</g>
			<path d="M17.5,22c3.59,0,6.5-2.91,6.5-6.5S21.09,9,17.5,9S11,11.91,11,15.5S13.91,22,17.5,22z M15,16
				c0.195-0.195,0.512-0.195,0.707,0L17,17.293V12.5c0-0.276,0.224-0.5,0.5-0.5s0.5,0.224,0.5,0.5v4.793L19.293,16
				c0.195-0.195,0.512-0.195,0.707,0c0.195,0.195,0.195,0.512,0,0.707l-2.146,2.146c-0.195,0.195-0.512,0.195-0.707,0L15,16.707
				C14.805,16.512,14.805,16.195,15,16z"/>
		</g>
	</g>
	<g id="New_icons">
	</g>
</g>
<g id="Invisible_Shape">
	<rect fill="none" width="24" height="24"/>
</g>
</svg>
