<?xml version="1.0" encoding="utf-8"?>
<!-- Generator: Adobe Illustrator 19.2.1, SVG Export Plug-In . SVG Version: 6.00 Build 0)  -->
<svg version="1.1" xmlns="http://www.w3.org/2000/svg" xmlns:xlink="http://www.w3.org/1999/xlink" x="0px" y="0px" width="24px"
	 height="24px" viewBox="0 0 24 24" enable-background="new 0 0 24 24" xml:space="preserve">
<g id="Filled_Icons_1_">
	<g id="Filled_Icons">
		<g>
			<path d="M17.776,15.917c-0.23,0.153-0.54,0.091-0.693-0.139c-0.153-0.229-0.091-0.54,0.139-0.693l6.283-4.189L20,8.487V0.5
				C20,0.224,19.776,0,19.5,0h-15C4.224,0,4,0.224,4,0.5v7.987l-3.504,2.41l6.283,4.189c0.23,0.153,0.292,0.464,0.139,0.693
				c-0.153,0.229-0.463,0.292-0.693,0.139L0,11.768V22c0,1.103,0.897,2,2,2h20c1.103,0,2-0.897,2-2V11.768L17.776,15.917z M5,13V1
				h14v12H5z M20.891,20.812c-0.173,0.216-0.487,0.25-0.703,0.078L15.325,17H8.675l-4.863,3.891
				c-0.216,0.173-0.53,0.136-0.703-0.078c-0.172-0.216-0.137-0.53,0.078-0.703l5-4C8.276,16.039,8.386,16,8.5,16h7
				c0.114,0,0.224,0.039,0.312,0.109l5,4.001C21.028,20.282,21.063,20.597,20.891,20.812z"/>
			<path d="M16.748,6.566l-7-4C9.593,2.477,9.403,2.477,9.249,2.567C9.095,2.657,9,2.822,9,3v8c0,0.179,0.095,0.343,0.249,0.433
				c0.154,0.089,0.344,0.09,0.499,0.002l7-4C17.06,7.257,17.06,6.744,16.748,6.566z"/>
		</g>
	</g>
	<g id="New_icons">
	</g>
</g>
<g id="Invisible_Shape">
	<rect fill="none" width="24" height="24"/>
</g>
</svg>
