<?xml version="1.0" encoding="utf-8"?>
<!-- Generator: Adobe Illustrator 19.2.1, SVG Export Plug-In . SVG Version: 6.00 Build 0)  -->
<svg version="1.1" xmlns="http://www.w3.org/2000/svg" xmlns:xlink="http://www.w3.org/1999/xlink" x="0px" y="0px" width="24px"
	 height="24px" viewBox="0 0 24 24" enable-background="new 0 0 24 24" xml:space="preserve">
<g id="Filled_Icons_1_">
	<g id="Filled_Icons">
		<g>
			<path d="M12,2C9.243,2,7,4.243,7,7s2.243,5,5,5c1.019,0,1.997-0.301,2.826-0.87c0.228-0.156,0.285-0.467,0.129-0.695
				c-0.156-0.228-0.466-0.285-0.695-0.129C13.598,10.76,12.817,11,12,11c-2.206,0-4-1.794-4-4c0-2.206,1.794-4,4-4s4,1.794,4,4
				v0.392c0,0.479-0.39,0.869-0.869,0.869c-0.48,0-0.87-0.39-0.87-0.869V7c0-1.246-1.014-2.261-2.261-2.261S9.739,5.754,9.739,7
				c0,1.247,1.014,2.261,2.261,2.261c0.656,0,1.243-0.285,1.656-0.733c0.342,0.443,0.873,0.733,1.475,0.733
				C16.162,9.261,17,8.423,17,7.392V7C17,4.243,14.757,2,12,2z M12,8.261c-0.695,0-1.261-0.565-1.261-1.261S11.305,5.739,12,5.739
				S13.261,6.305,13.261,7S12.695,8.261,12,8.261z"/>
			<path d="M17.776,15.917c-0.23,0.153-0.54,0.091-0.693-0.139c-0.153-0.229-0.091-0.54,0.139-0.693l6.283-4.189L20,8.487V0.5
				C20,0.224,19.776,0,19.5,0h-15C4.224,0,4,0.224,4,0.5v7.987l-3.504,2.41l6.283,4.189c0.23,0.153,0.292,0.464,0.139,0.693
				c-0.153,0.229-0.463,0.292-0.693,0.139L0,11.768V22c0,1.103,0.897,2,2,2h20c1.103,0,2-0.897,2-2V11.768L17.776,15.917z M5,13V1
				h14v12H5z M20.891,20.812c-0.173,0.216-0.487,0.25-0.703,0.078L15.325,17H8.675l-4.863,3.891
				c-0.216,0.173-0.53,0.136-0.703-0.078c-0.172-0.216-0.137-0.53,0.078-0.703l5-4C8.276,16.039,8.386,16,8.5,16h7
				c0.114,0,0.224,0.039,0.312,0.109l5,4.001C21.028,20.282,21.063,20.597,20.891,20.812z"/>
		</g>
	</g>
	<g id="New_icons">
	</g>
</g>
<g id="Invisible_Shape">
	<rect fill="none" width="24" height="24"/>
</g>
</svg>
