<?xml version="1.0" encoding="utf-8"?>
<!-- Generator: Adobe Illustrator 19.2.1, SVG Export Plug-In . SVG Version: 6.00 Build 0)  -->
<svg version="1.1" xmlns="http://www.w3.org/2000/svg" xmlns:xlink="http://www.w3.org/1999/xlink" x="0px" y="0px" width="24px"
	 height="24px" viewBox="0 0 24 24" enable-background="new 0 0 24 24" xml:space="preserve">
<g id="Filled_Icons_1_">
	<g id="Filled_Icons">
		<g>
			<g>
				<path d="M20.952,1.252C20.667,1.097,20.346,1,20,1H2C1.654,1,1.333,1.097,1.049,1.252L11,7.412L20.952,1.252z"/>
				<path d="M15.223,10c1.039,0,2.014,0.414,2.777,1.148C18.763,10.414,19.738,10,20.777,10C21.19,10,21.6,10.085,22,10.215V3
					c0-0.381-0.113-0.733-0.298-1.037L11.247,8.425c-0.155,0.09-0.338,0.09-0.493,0L0.298,1.963C0.113,2.267,0,2.619,0,3v11
					c0,1.102,0.897,2,2,2h9.269C10.231,12.967,12.369,10,15.223,10z"/>
			</g>
			<path d="M20.777,11c-0.951,0-2.071,0.492-2.777,1.785C17.294,11.492,16.174,11,15.223,11C13.639,11,12,12.323,12,14.537
				c0,3.182,5.473,7.197,5.706,7.367C17.793,21.969,17.896,22,18,22s0.207-0.031,0.294-0.096C18.527,21.734,24,17.719,24,14.537
				C24,12.323,22.361,11,20.777,11z"/>
		</g>
	</g>
	<g id="New_icons">
	</g>
</g>
<g id="Invisible_Shape">
	<rect fill="none" width="24" height="24"/>
</g>
</svg>
