<?xml version="1.0" encoding="utf-8"?>
<!-- Generator: Adobe Illustrator 19.2.1, SVG Export Plug-In . SVG Version: 6.00 Build 0)  -->
<svg version="1.1" xmlns="http://www.w3.org/2000/svg" xmlns:xlink="http://www.w3.org/1999/xlink" x="0px" y="0px" width="24px"
	 height="24px" viewBox="0 0 24 24" enable-background="new 0 0 24 24" xml:space="preserve">
<g id="Filled_Icons_1_">
	<g id="Filled_Icons">
	</g>
	<g id="New_icons">
		<path d="M15.747,2.065c-0.157-0.089-0.35-0.086-0.504,0.006l-5,3C10.092,5.162,10,5.324,10,5.5V9H9.5C8.673,9,8,9.673,8,10.5
			S8.673,12,9.5,12s1.5-0.673,1.5-1.5V5.783l4-2.4V7h-0.5C13.673,7,13,7.673,13,8.5s0.673,1.5,1.5,1.5S16,9.327,16,8.5v-6
			C16,2.32,15.903,2.154,15.747,2.065z"/>
		<path d="M17.776,15.917c-0.23,0.153-0.54,0.091-0.693-0.139c-0.153-0.229-0.091-0.54,0.139-0.693l6.283-4.189L20,8.487V0.5
			C20,0.224,19.776,0,19.5,0h-15C4.224,0,4,0.224,4,0.5v7.987l-3.504,2.41l6.283,4.189c0.23,0.153,0.292,0.464,0.139,0.693
			c-0.153,0.229-0.463,0.292-0.693,0.139L0,11.768V22c0,1.103,0.897,2,2,2h20c1.103,0,2-0.897,2-2V11.768L17.776,15.917z M5,13V1h14
			v12H5z M20.891,20.812c-0.173,0.216-0.487,0.25-0.703,0.078L15.325,17H8.675l-4.863,3.891c-0.216,0.173-0.53,0.136-0.703-0.078
			c-0.172-0.216-0.137-0.53,0.078-0.703l5-4C8.276,16.039,8.386,16,8.5,16h7c0.114,0,0.224,0.039,0.312,0.109l5,4.001
			C21.028,20.282,21.063,20.597,20.891,20.812z"/>
	</g>
</g>
<g id="Invisible_Shape">
	<rect fill="none" width="24" height="24"/>
</g>
</svg>
