<?xml version="1.0" encoding="utf-8"?>
<!-- Generator: Adobe Illustrator 19.2.1, SVG Export Plug-In . SVG Version: 6.00 Build 0)  -->
<svg version="1.1" xmlns="http://www.w3.org/2000/svg" xmlns:xlink="http://www.w3.org/1999/xlink" x="0px" y="0px" width="24px"
	 height="24px" viewBox="0 0 24 24" enable-background="new 0 0 24 24" xml:space="preserve">
<g id="Filled_Icons_1_">
	<g id="Filled_Icons">
		<path d="M17.5,9c-3.585,0-6.5,2.916-6.5,6.5s2.915,6.5,6.5,6.5s6.5-2.916,6.5-6.5S21.084,9,17.5,9z M20.227,16h-5.454
			c-0.276,0-0.5-0.224-0.5-0.5c0-0.275,0.224-0.5,0.5-0.5h5.454c0.276,0,0.5,0.225,0.5,0.5C20.727,15.776,20.503,16,20.227,16z"/>
		<g>
			<path d="M20.952,1.252C20.667,1.097,20.346,1,20,1H2C1.654,1,1.333,1.097,1.049,1.252L11,7.412L20.952,1.252z"/>
			<path d="M21.702,1.963L11.247,8.425c-0.155,0.09-0.338,0.09-0.493,0L0.298,1.963C0.113,2.267,0,2.619,0,3v11c0,1.102,0.897,2,2,2
				h8.025C9.591,9.584,16.907,5.676,22,9.515V3C22,2.619,21.887,2.267,21.702,1.963z"/>
		</g>
	</g>
	<g id="New_icons">
	</g>
</g>
<g id="Invisible_Shape">
	<rect fill="none" width="24" height="24"/>
</g>
</svg>
