<?xml version="1.0" encoding="utf-8"?>
<!-- Generator: Adobe Illustrator 19.2.1, SVG Export Plug-In . SVG Version: 6.00 Build 0)  -->
<svg version="1.1" xmlns="http://www.w3.org/2000/svg" xmlns:xlink="http://www.w3.org/1999/xlink" x="0px" y="0px" width="24px"
	 height="24px" viewBox="0 0 24 24" enable-background="new 0 0 24 24" xml:space="preserve">
<g id="Filled_Icons_1_">
	<g id="Filled_Icons">
		<g>
			<path d="M20.952,1.252C20.667,1.097,20.346,1,20,1H2C1.654,1,1.333,1.097,1.049,1.252L11,7.412L20.952,1.252z"/>
			<g>
				<path d="M12,13.5c0-0.827,0.673-1.5,1.5-1.5h0.528c0.25-2.247,2.16-4,4.472-4c1.415,0,2.675,0.661,3.5,1.686V3
					c0-0.381-0.113-0.733-0.298-1.037L11.247,8.425c-0.155,0.09-0.338,0.09-0.493,0L0.298,1.963C0.113,2.267,0,2.619,0,3v11
					c0,1.102,0.897,2,2,2h10V13.5z"/>
			</g>
			<path d="M23.5,13H22v-0.5c0-1.93-1.57-3.5-3.5-3.5S15,10.57,15,12.5V13h-1.5c-0.276,0-0.5,0.224-0.5,0.5v8
				c0,0.276,0.224,0.5,0.5,0.5h10c0.276,0,0.5-0.224,0.5-0.5v-8C24,13.224,23.776,13,23.5,13z M19,17.347V19
				c0,0.276-0.224,0.5-0.5,0.5S18,19.276,18,19v-1.653c-0.293-0.175-0.5-0.482-0.5-0.847c0-0.552,0.448-1,1-1s1,0.448,1,1
				C19.5,16.865,19.293,17.172,19,17.347z M21,13h-5v-0.5c0-1.379,1.121-2.5,2.5-2.5s2.5,1.121,2.5,2.5V13z"/>
		</g>
	</g>
	<g id="New_icons">
	</g>
</g>
<g id="Invisible_Shape">
	<rect fill="none" width="24" height="24"/>
</g>
</svg>
