<?xml version="1.0" encoding="utf-8"?>
<!-- Generator: Adobe Illustrator 19.2.1, SVG Export Plug-In . SVG Version: 6.00 Build 0)  -->
<svg version="1.1" xmlns="http://www.w3.org/2000/svg" xmlns:xlink="http://www.w3.org/1999/xlink" x="0px" y="0px" width="24px"
	 height="24px" viewBox="0 0 24 24" enable-background="new 0 0 24 24" xml:space="preserve">
<g id="Filled_Icons_1_">
	<g id="Filled_Icons">
		<g>
			<path d="M20.952,1.252C20.667,1.097,20.346,1,20,1H2C1.654,1,1.333,1.097,1.049,1.252L11,7.412L20.952,1.252z"/>
			<path d="M17.5,9c-3.584,0-6.5,2.916-6.5,6.5s2.916,6.5,6.5,6.5s6.5-2.916,6.5-6.5S21.084,9,17.5,9z M21.597,13.9l-4.096,4.357
				c-0.092,0.097-0.219,0.154-0.353,0.157c-0.004,0-0.008,0-0.012,0c-0.13,0-0.255-0.05-0.348-0.141l-2.926-2.841
				c-0.197-0.19-0.203-0.509-0.01-0.706c0.191-0.198,0.508-0.203,0.707-0.011l2.561,2.485l3.747-3.987
				c0.188-0.201,0.507-0.211,0.706-0.021C21.775,13.383,21.785,13.699,21.597,13.9z"/>
			<path d="M21.702,1.963L11.247,8.425c-0.155,0.09-0.338,0.09-0.493,0L0.298,1.963C0.113,2.267,0,2.619,0,3v11c0,1.102,0.897,2,2,2
				h8.025C10.014,15.834,10,15.669,10,15.5c0-4.135,3.365-7.5,7.5-7.5c1.69,0,3.245,0.568,4.5,1.515V3
				C22,2.619,21.887,2.267,21.702,1.963z"/>
		</g>
	</g>
	<g id="New_icons">
	</g>
</g>
<g id="Invisible_Shape">
	<rect fill="none" width="24" height="24"/>
</g>
</svg>
