<?xml version="1.0" encoding="utf-8"?>
<!-- Generator: Adobe Illustrator 19.2.1, SVG Export Plug-In . SVG Version: 6.00 Build 0)  -->
<svg version="1.1" xmlns="http://www.w3.org/2000/svg" xmlns:xlink="http://www.w3.org/1999/xlink" x="0px" y="0px" width="24px"
	 height="24px" viewBox="0 0 24 24" enable-background="new 0 0 24 24" xml:space="preserve">
<g id="Filled_Icons_1_">
	<g id="Filled_Icons">
		<g>
			<g>
				<path d="M20.952,1.252C20.667,1.097,20.346,1,20,1H2C1.654,1,1.333,1.097,1.049,1.252L11,7.412L20.952,1.252z"/>
				<path d="M21.702,1.963L11.247,8.425c-0.155,0.09-0.338,0.09-0.493,0L0.298,1.963C0.113,2.267,0,2.619,0,3v11
					c0,1.102,0.897,2,2,2h8.025C9.592,9.598,16.897,5.668,22,9.515V3C22,2.619,21.887,2.267,21.702,1.963z"/>
			</g>
			<path d="M17.5,9c-3.584,0-6.5,2.916-6.5,6.5s2.916,6.5,6.5,6.5s6.5-2.916,6.5-6.5S21.084,9,17.5,9z M13.035,14.014
				c0.635-1.794,2.34-2.998,4.242-2.998c1.337,0,2.619,0.593,3.5,1.513v-0.567c0-0.277,0.224-0.5,0.5-0.5c0.276,0,0.5,0.223,0.5,0.5
				v2.221c0,0.276-0.224,0.5-0.5,0.5h-2.223c-0.275,0-0.5-0.224-0.5-0.5c0-0.276,0.225-0.5,0.5-0.5h1.379
				c-0.653-0.991-1.873-1.666-3.156-1.666c-1.479,0-2.806,0.938-3.301,2.332c-0.072,0.205-0.266,0.334-0.471,0.334
				c-0.056,0-0.111-0.01-0.167-0.029C13.078,14.56,12.942,14.274,13.035,14.014z M21.965,16.985
				c-0.635,1.794-2.34,2.999-4.242,2.999c-1.336,0-2.619-0.591-3.5-1.511v0.566c0,0.276-0.223,0.5-0.5,0.5
				c-0.275,0-0.5-0.224-0.5-0.5v-2.222c0-0.277,0.225-0.5,0.5-0.5h2.223c0.276,0,0.5,0.223,0.5,0.5c0,0.275-0.224,0.5-0.5,0.5
				h-1.379c0.653,0.992,1.873,1.666,3.156,1.666c1.479,0,2.806-0.938,3.301-2.333c0.092-0.261,0.378-0.397,0.638-0.304
				C21.922,16.44,22.058,16.726,21.965,16.985z"/>
		</g>
	</g>
	<g id="New_icons">
	</g>
</g>
<g id="Invisible_Shape">
	<rect fill="none" width="24" height="24"/>
</g>
</svg>
