<?xml version="1.0" encoding="utf-8"?>
<!-- Generator: Adobe Illustrator 19.2.1, SVG Export Plug-In . SVG Version: 6.00 Build 0)  -->
<svg version="1.1" xmlns="http://www.w3.org/2000/svg" xmlns:xlink="http://www.w3.org/1999/xlink" x="0px" y="0px" width="24px"
	 height="24px" viewBox="0 0 24 24" enable-background="new 0 0 24 24" xml:space="preserve">
<g id="Filled_Icons_1_">
	<g id="Filled_Icons">
		<g>
			<path d="M16.986,11.31l-2.142-5.7c-0.07-0.171-0.229-0.289-0.413-0.307c-0.18-0.013-0.363,0.066-0.465,0.219l-2.008,3
				L9.945,6.869C9.829,6.773,9.676,6.737,9.527,6.766c-0.148,0.03-0.274,0.126-0.343,0.259L7.247,11.27
				c-0.081,0.156-0.074,0.341,0.017,0.49C7.354,11.909,7.516,12,7.69,12h8.833c0.167,0,0.323-0.083,0.416-0.222
				C17.032,11.64,17.049,11.464,16.986,11.31z"/>
			<circle cx="9.749" cy="3.716" r="1.369"/>
			<path d="M17.776,15.917c-0.23,0.153-0.54,0.091-0.693-0.139c-0.153-0.229-0.091-0.54,0.139-0.693l6.283-4.189L20,8.487V0.5
				C20,0.224,19.776,0,19.5,0h-15C4.224,0,4,0.224,4,0.5v7.987l-3.504,2.41l6.283,4.189c0.23,0.153,0.292,0.464,0.139,0.693
				c-0.153,0.229-0.463,0.292-0.693,0.139L0,11.768V22c0,1.103,0.897,2,2,2h20c1.103,0,2-0.897,2-2V11.768L17.776,15.917z M5,13V1
				h14v12H5z M20.891,20.812c-0.173,0.216-0.487,0.25-0.703,0.078L15.325,17H8.675l-4.863,3.891
				c-0.216,0.173-0.53,0.136-0.703-0.078c-0.172-0.216-0.137-0.53,0.078-0.703l5-4C8.276,16.039,8.386,16,8.5,16h7
				c0.114,0,0.224,0.039,0.312,0.109l5,4.001C21.028,20.282,21.063,20.597,20.891,20.812z"/>
		</g>
	</g>
	<g id="New_icons">
	</g>
</g>
<g id="Invisible_Shape">
	<rect fill="none" width="24" height="24"/>
</g>
</svg>
