<?xml version="1.0" encoding="utf-8"?>
<!-- Generator: Adobe Illustrator 19.2.1, SVG Export Plug-In . SVG Version: 6.00 Build 0)  -->
<svg version="1.1" xmlns="http://www.w3.org/2000/svg" xmlns:xlink="http://www.w3.org/1999/xlink" x="0px" y="0px" width="24px"
	 height="24px" viewBox="0 0 24 24" enable-background="new 0 0 24 24" xml:space="preserve">
<g id="Filled_Icons_1_">
	<g id="Filled_Icons">
		<g>
			<path d="M0.501,8h5c0.276,0,0.5-0.224,0.5-0.5c0-0.276-0.224-0.5-0.5-0.5h-5c-0.276,0-0.5,0.224-0.5,0.5
				C0.001,7.776,0.225,8,0.501,8z"/>
			<path d="M2.501,16h-2c-0.276,0-0.5,0.224-0.5,0.5c0,0.276,0.224,0.5,0.5,0.5h2c0.276,0,0.5-0.224,0.5-0.5
				C3.001,16.224,2.777,16,2.501,16z"/>
			<path d="M3.501,11h-3c-0.276,0-0.5,0.224-0.5,0.5c0,0.276,0.224,0.5,0.5,0.5h3c0.276,0,0.5-0.224,0.5-0.5
				C4.001,11.224,3.777,11,3.501,11z"/>
			<path d="M23.759,7.621C23.492,7.226,23.028,7,22.485,7h-12c-1.03,0-2.157,0.797-2.564,1.814l-2.8,7
				c-0.229,0.572-0.196,1.143,0.089,1.565C5.477,17.774,5.942,18,6.485,18h12c1.031,0,2.157-0.797,2.565-1.815l2.799-7
				C24.078,8.615,24.045,8.043,23.759,7.621z M11.375,13.908l-3.499,2.5c-0.225,0.161-0.537,0.108-0.697-0.117
				c-0.161-0.224-0.109-0.537,0.116-0.697l3.499-2.5c0.225-0.16,0.537-0.108,0.698,0.117C11.651,13.436,11.599,13.747,11.375,13.908
				z M18.842,16.428c-0.236,0.143-0.544,0.066-0.686-0.171l-1.501-2.499c-0.143-0.237-0.066-0.544,0.171-0.687
				c0.237-0.142,0.544-0.065,0.686,0.172l1.501,2.499C19.155,15.979,19.078,16.286,18.842,16.428z M21.43,9.936l-7.099,4
				C14.254,13.979,14.169,14,14.085,14c-0.131,0-0.262-0.052-0.358-0.15l-3.9-4C9.634,9.651,9.638,9.335,9.835,9.142
				c0.198-0.193,0.515-0.189,0.707,0.009l3.632,3.725l6.765-3.812c0.24-0.136,0.545-0.05,0.681,0.19
				C21.755,9.495,21.671,9.801,21.43,9.936z"/>
		</g>
	</g>
	<g id="New_icons">
	</g>
</g>
<g id="Invisible_Shape">
	<rect fill="none" width="24" height="24"/>
</g>
</svg>
