<?xml version="1.0" encoding="utf-8"?>
<!-- Generator: Adobe Illustrator 19.2.1, SVG Export Plug-In . SVG Version: 6.00 Build 0)  -->
<svg version="1.1" xmlns="http://www.w3.org/2000/svg" xmlns:xlink="http://www.w3.org/1999/xlink" x="0px" y="0px" width="24px"
	 height="24px" viewBox="0 0 24 24" enable-background="new 0 0 24 24" xml:space="preserve">
<g id="Filled_Icons_1_">
	<g id="Filled_Icons">
		<g>
			<path d="M0.309,10.538C0.12,10.616-0.002,10.801,0,11.007c0.002,0.203,0.128,0.385,0.319,0.459l8.302,3.229L23.15,1.104
				L0.309,10.538z"/>
			<path d="M9.01,15.7L9,15.69v6.81C9,22.774,9.221,23,9.5,23c0.174,0,0.341-0.092,0.432-0.248l3.287-5.636l6.04,3.321
				c0.142,0.08,0.311,0.081,0.448,0.018c0.144-0.065,0.248-0.194,0.281-0.35L23.966,1.71L9.01,15.7z"/>
		</g>
	</g>
	<g id="New_icons">
	</g>
</g>
<g id="Invisible_Shape">
	<rect fill="none" width="24" height="24"/>
</g>
</svg>
