<?xml version="1.0" encoding="utf-8"?>
<!-- Generator: Adobe Illustrator 19.2.1, SVG Export Plug-In . SVG Version: 6.00 Build 0)  -->
<svg version="1.1" xmlns="http://www.w3.org/2000/svg" xmlns:xlink="http://www.w3.org/1999/xlink" x="0px" y="0px" width="24px"
	 height="24px" viewBox="0 0 24 24" enable-background="new 0 0 24 24" xml:space="preserve">
<g id="Filled_Icons_1_">
	<g id="Filled_Icons">
		<g>
			<path d="M20.952,1.252C20.667,1.097,20.346,1,20,1H2C1.654,1,1.333,1.097,1.049,1.252L11,7.412L20.952,1.252z"/>
			<path d="M16.158,8.829c0.251-0.498,0.764-0.806,1.342-0.806s1.091,0.308,1.341,0.804L22,15.146V3
				c0-0.381-0.113-0.733-0.298-1.037L11.247,8.425c-0.155,0.09-0.338,0.09-0.493,0L0.298,1.963C0.113,2.267,0,2.619,0,3v11
				c0,1.102,0.897,2,2,2h10.573L16.158,8.829z"/>
			<path d="M23.947,21.276l-6-12c-0.17-0.338-0.725-0.338-0.895,0l-6,12c-0.077,0.155-0.069,0.339,0.021,0.486
				C11.166,21.91,11.327,22,11.5,22h12c0.173,0,0.334-0.09,0.426-0.237C24.017,21.615,24.024,21.432,23.947,21.276z M17.5,20
				c-0.276,0-0.5-0.224-0.5-0.5s0.224-0.5,0.5-0.5s0.5,0.224,0.5,0.5S17.776,20,17.5,20z M18,18c0,0.276-0.224,0.5-0.5,0.5
				S17,18.276,17,18v-3.5c0-0.276,0.224-0.5,0.5-0.5s0.5,0.224,0.5,0.5V18z"/>
		</g>
	</g>
	<g id="New_icons">
	</g>
</g>
<g id="Invisible_Shape">
	<rect fill="none" width="24" height="24"/>
</g>
</svg>
