<?xml version="1.0" encoding="utf-8"?>
<!-- Generator: Adobe Illustrator 19.2.1, SVG Export Plug-In . SVG Version: 6.00 Build 0)  -->
<svg version="1.1" xmlns="http://www.w3.org/2000/svg" xmlns:xlink="http://www.w3.org/1999/xlink" x="0px" y="0px" width="24px"
	 height="24px" viewBox="0 0 24 24" enable-background="new 0 0 24 24" xml:space="preserve">
<g id="Filled_Icons_1_">
	<g id="Filled_Icons">
		<g>
			<path d="M11.002,8.36l10.095-8.03C20.782,0.123,20.406,0,20.001,0h-18C1.614,0,1.255,0.115,0.948,0.307L11.002,8.36z"/>
			<path d="M9,13.5c0-0.827,0.673-1.5,1.5-1.5H16v-1.5c0-0.594,0.352-1.133,0.896-1.373c0.525-0.233,1.182-0.13,1.615,0.265
				L22,12.59V2c0-0.335-0.09-0.646-0.236-0.924L11.296,9.392c-0.178,0.134-0.416,0.134-0.594-0.001L0.26,1.036
				C0.1,1.323,0.001,1.648,0,2v11c0.001,1.102,0.898,2,2.001,2H9V13.5z"/>
			<path d="M17.917,21.796l5.921-5.427c0.207-0.19,0.207-0.548,0-0.738l-6-5.5c-0.146-0.133-0.358-0.169-0.539-0.089
				C17.117,10.122,17,10.302,17,10.5V13h-6.5c-0.276,0-0.5,0.224-0.5,0.5v5c0,0.276,0.224,0.5,0.5,0.5H17v2.5
				c0,0.003,0,0.007,0,0.01c-0.002,0.304,0.22,0.51,0.5,0.51C17.674,22.02,17.827,21.932,17.917,21.796z"/>
		</g>
	</g>
	<g id="New_icons">
	</g>
</g>
<g id="Invisible_Shape">
	<rect fill="none" width="24" height="24"/>
</g>
</svg>
