<?xml version="1.0" encoding="utf-8"?>
<!-- Generator: Adobe Illustrator 19.2.1, SVG Export Plug-In . SVG Version: 6.00 Build 0)  -->
<svg version="1.1" xmlns="http://www.w3.org/2000/svg" xmlns:xlink="http://www.w3.org/1999/xlink" x="0px" y="0px" width="24px"
	 height="24px" viewBox="0 0 24 24" enable-background="new 0 0 24 24" xml:space="preserve">
<g id="Filled_Icons_1_">
	<g id="Filled_Icons">
		<path d="M22,4H2C0.897,4,0,4.898,0,6v12c0,1.103,0.897,2,2,2h20c1.103,0,2-0.897,2-2V6C24,4.898,23.103,4,22,4z M7.248,14.434
			l-3.5,1.999c-0.239,0.139-0.544,0.053-0.682-0.186c-0.137-0.24-0.054-0.545,0.186-0.682l3.5-1.999
			c0.239-0.139,0.544-0.054,0.682,0.186C7.571,13.992,7.488,14.298,7.248,14.434z M11.729,14.42l-8.5-5.5
			C2.997,8.77,2.93,8.46,3.081,8.229C3.23,7.998,3.54,7.931,3.772,8.081L12,13.405l8.229-5.324c0.232-0.15,0.542-0.084,0.691,0.147
			c0.15,0.232,0.083,0.542-0.148,0.691l-8.5,5.5C12.106,14.526,11.894,14.526,11.729,14.42z M20.934,16.247
			c-0.138,0.24-0.442,0.325-0.682,0.186l-3.5-1.999c-0.24-0.136-0.323-0.442-0.186-0.682c0.138-0.24,0.443-0.325,0.682-0.186
			l3.5,1.999C20.988,15.702,21.071,16.007,20.934,16.247z"/>
	</g>
	<g id="New_icons">
	</g>
</g>
<g id="Invisible_Shape">
	<rect fill="none" width="24" height="24"/>
</g>
</svg>
