<?xml version="1.0" encoding="utf-8"?>
<!-- Generator: Adobe Illustrator 19.2.1, SVG Export Plug-In . SVG Version: 6.00 Build 0)  -->
<svg version="1.1" xmlns="http://www.w3.org/2000/svg" xmlns:xlink="http://www.w3.org/1999/xlink" x="0px" y="0px" width="24px"
	 height="24px" viewBox="0 0 24 24" enable-background="new 0 0 24 24" xml:space="preserve">
<g id="Filled_Icons_1_">
	<g id="Filled_Icons">
		<g>
			<path d="M12.001,18.367l9.088-7.041C20.775,11.122,20.402,11,20,11H4c-0.388,0-0.746,0.115-1.053,0.307L12.001,18.367z"/>
			<g>
				<path d="M16.667,6.029c-0.26-0.092-0.546,0.044-0.638,0.305C15.491,7.853,13.759,9,12,9c-1.482,0-2.954-0.818-3.699-2H10
					c0.276,0,0.5-0.224,0.5-0.5S10.276,6,10,6H7.5C7.224,6,7,6.224,7,6.5V9c0,0.276,0.224,0.5,0.5,0.5S8,9.276,8,9V8.243
					C8.991,9.317,10.471,10,12,10c2.198,0,4.289-1.402,4.971-3.333C17.063,6.406,16.927,6.121,16.667,6.029z"/>
				<path d="M7.333,3.971c0.26,0.092,0.546-0.044,0.638-0.305C8.509,2.147,10.241,1,12,1c1.482,0,2.954,0.818,3.699,2H14
					c-0.276,0-0.5,0.224-0.5,0.5S13.724,4,14,4h2.5C16.776,4,17,3.776,17,3.5V1c0-0.276-0.224-0.5-0.5-0.5S16,0.724,16,1v0.757
					C15.009,0.683,13.529,0,12,0C9.802,0,7.711,1.402,7.029,3.334C6.937,3.594,7.073,3.879,7.333,3.971z"/>
			</g>
			<path d="M21.761,12.071l-9.471,7.324c-0.175,0.128-0.407,0.128-0.582-0.001l-9.451-7.356C2.099,12.325,2,12.649,2,13v9
				c0,1.103,0.897,2,2,2h16c1.103,0,2-0.897,2-2v-9C22,12.663,21.908,12.35,21.761,12.071z"/>
		</g>
	</g>
	<g id="New_icons">
	</g>
</g>
<g id="Invisible_Shape">
	<rect fill="none" width="24" height="24"/>
</g>
</svg>
