<?xml version="1.0" encoding="utf-8"?>
<!-- Generator: Adobe Illustrator 19.2.1, SVG Export Plug-In . SVG Version: 6.00 Build 0)  -->
<svg version="1.1" xmlns="http://www.w3.org/2000/svg" xmlns:xlink="http://www.w3.org/1999/xlink" x="0px" y="0px" width="24px"
	 height="24px" viewBox="0 0 24 24" enable-background="new 0 0 24 24" xml:space="preserve">
<g id="Filled_Icons_1_">
	<g id="Filled_Icons">
		<path d="M22.065,4h-20c-1.103-0.007-2,0.891-2,1.993v12c0,1.103,0.897,2,2,2h20c1.103,0,2-0.897,2-2v-12
			C24.065,4.891,23.168,3.993,22.065,4z M4.565,8h2c0.276-0.007,0.5,0.217,0.5,0.493c0,0.276-0.224,0.5-0.5,0.507h-2
			c-0.276-0.007-0.5-0.231-0.5-0.507C4.065,8.217,4.289,7.993,4.565,8z M4.565,14h9c0.276-0.007,0.5,0.217,0.5,0.493
			c0,0.276-0.224,0.5-0.5,0.507h-9c-0.276-0.007-0.5-0.231-0.5-0.507C4.065,14.217,4.289,13.993,4.565,14z M16.565,17h-12
			c-0.276-0.007-0.5-0.23-0.5-0.507c0-0.276,0.224-0.5,0.5-0.493h12c0.276-0.007,0.5,0.217,0.5,0.493
			C17.065,16.77,16.841,16.993,16.565,17z M21.065,11.493c0,0.276-0.224,0.5-0.5,0.507h-4c-0.276-0.007-0.5-0.231-0.5-0.507v-4
			c0-0.276,0.224-0.5,0.5-0.5h4c0.276,0,0.5,0.224,0.5,0.5V11.493z"/>
	</g>
	<g id="New_icons">
	</g>
</g>
<g id="Invisible_Shape">
	<rect fill="none" width="24" height="24"/>
</g>
</svg>
