<?xml version="1.0" encoding="utf-8"?>
<!-- Generator: Adobe Illustrator 19.2.1, SVG Export Plug-In . SVG Version: 6.00 Build 0)  -->
<svg version="1.1" xmlns="http://www.w3.org/2000/svg" xmlns:xlink="http://www.w3.org/1999/xlink" x="0px" y="0px" width="24px"
	 height="24px" viewBox="0 0 24 24" enable-background="new 0 0 24 24" xml:space="preserve">
<g id="Filled_Icons_1_">
	<g id="Filled_Icons">
		<g>
			<path d="M7.185,4h8.63c0,0,1.153-0.181,1.261-0.315L20.38,0H2.62l3.287,3.666C6.045,3.835,7.185,4,7.185,4z"/>
			<path d="M4.623,20.171C4.719,20.062,4.856,20,5,20h6V5H7.091C6.693,5,5.515,4.771,5.147,4.314L2,0.807v22.362L4.623,20.171z"/>
			<path d="M17.837,4.334C17.488,4.767,16.294,5,15.909,5H12v15h6c0.144,0,0.281,0.062,0.376,0.171L21,23.169V0.807L17.837,4.334z"
				/>
			<polygon points="17.773,21 5.227,21 2.602,24 20.398,24 			"/>
		</g>
	</g>
	<g id="New_icons">
	</g>
</g>
<g id="Invisible_Shape">
	<rect fill="none" width="24" height="24"/>
</g>
</svg>
