<?xml version="1.0" encoding="utf-8"?>
<!-- Generator: Adobe Illustrator 19.2.1, SVG Export Plug-In . SVG Version: 6.00 Build 0)  -->
<svg version="1.1" xmlns="http://www.w3.org/2000/svg" xmlns:xlink="http://www.w3.org/1999/xlink" x="0px" y="0px" width="24px"
	 height="24px" viewBox="0 0 24 24" enable-background="new 0 0 24 24" xml:space="preserve">
<g id="Filled_Icons_1_">
	<g id="Filled_Icons">
		<path d="M23.932,16.248l-3.5-6C20.342,10.095,20.178,10,20,10h-1V1.5C19,1.224,18.776,1,18.5,1h-13C5.224,1,5,1.224,5,1.5V10H4
			c-0.178,0-0.342,0.095-0.432,0.248l-3.5,6C0.023,16.325,0,16.412,0,16.5v7C0,23.776,0.224,24,0.5,24h23c0.276,0,0.5-0.224,0.5-0.5
			v-7C24,16.412,23.977,16.325,23.932,16.248z M9.685,3.847c0.754,0,1.368,0.614,1.368,1.369s-0.614,1.368-1.368,1.368
			c-0.755,0-1.369-0.613-1.369-1.368S8.93,3.847,9.685,3.847z M7.181,12.27l1.938-3.745c0.069-0.133,0.195-0.23,0.343-0.259
			C9.609,8.236,9.763,8.273,9.88,8.369l2.011,1.651L13.9,7.022c0.102-0.152,0.286-0.232,0.465-0.219
			c0.184,0.018,0.342,0.136,0.413,0.307l2.143,5.2c0.063,0.154,0.046,0.33-0.047,0.469C16.781,12.917,16.625,13,16.458,13H7.625
			c-0.174,0-0.336-0.091-0.427-0.24C7.107,12.611,7.101,12.425,7.181,12.27z M16.5,16C16.224,16,16,16.224,16,16.5v1
			c0,0.827-0.673,1.5-1.5,1.5H10c-0.827,0-1.5-0.673-1.5-1.5v-1C8.5,16.224,8.276,16,8,16H1.371l2.916-5H5v3.484
			c0,0.276,0.224,0.5,0.5,0.5h13c0.276,0,0.5-0.224,0.5-0.5V11h0.713l2.917,5H16.5z"/>
	</g>
	<g id="New_icons">
	</g>
</g>
<g id="Invisible_Shape">
	<rect fill="none" width="24" height="24"/>
</g>
</svg>
