<?xml version="1.0" encoding="utf-8"?>
<!-- Generator: Adobe Illustrator 19.2.1, SVG Export Plug-In . SVG Version: 6.00 Build 0)  -->
<svg version="1.1" xmlns="http://www.w3.org/2000/svg" xmlns:xlink="http://www.w3.org/1999/xlink" x="0px" y="0px" width="24px"
	 height="24px" viewBox="0 0 24 24" enable-background="new 0 0 24 24" xml:space="preserve">
<g id="Filled_Icons_1_">
	<g id="Filled_Icons">
	</g>
	<g id="New_icons">
		<path d="M23.932,16.248l-3.5-6C20.342,10.095,20.178,10,20,10h-1V1.5C19,1.224,18.776,1,18.5,1h-13C5.224,1,5,1.224,5,1.5V10H4
			c-0.178,0-0.342,0.095-0.432,0.248l-3.5,6C0.023,16.325,0,16.412,0,16.5v7C0,23.776,0.224,24,0.5,24h23c0.276,0,0.5-0.224,0.5-0.5
			v-7C24,16.412,23.977,16.325,23.932,16.248z M9,5.5c0-0.176,0.092-0.339,0.244-0.429c0.151-0.09,0.338-0.094,0.493-0.011l6.5,3.5
			c0.324,0.175,0.324,0.706,0,0.881l-6.5,3.5c-0.155,0.083-0.342,0.079-0.493-0.011C9.092,12.839,9,12.676,9,12.5V5.5z M16.5,16
			C16.224,16,16,16.224,16,16.5v1c0,0.827-0.673,1.5-1.5,1.5H10c-0.827,0-1.5-0.673-1.5-1.5v-1C8.5,16.224,8.276,16,8,16H1.371
			l2.916-5H5v3.5C5,14.776,5.224,15,5.5,15h13c0.276,0,0.5-0.224,0.5-0.5V11h0.713l2.917,5H16.5z"/>
	</g>
</g>
<g id="Invisible_Shape">
	<rect fill="none" width="24" height="24"/>
</g>
</svg>
