<?xml version="1.0" encoding="utf-8"?>
<!-- Generator: Adobe Illustrator 19.2.1, SVG Export Plug-In . SVG Version: 6.00 Build 0)  -->
<svg version="1.1" xmlns="http://www.w3.org/2000/svg" xmlns:xlink="http://www.w3.org/1999/xlink" x="0px" y="0px" width="24px"
	 height="24px" viewBox="0 0 24 24" enable-background="new 0 0 24 24" xml:space="preserve">
<g id="Filled_Icons_1_">
	<g id="Filled_Icons">
		<g>
			<path d="M23.932,16.248l-3.5-6C20.342,10.095,20.178,10,20,10h-3c-0.276,0-0.5,0.224-0.5,0.5S16.724,11,17,11h2.713l2.917,5H16.5
				C16.224,16,16,16.224,16,16.5v1c0,0.827-0.673,1.5-1.5,1.5H10c-0.827,0-1.5-0.673-1.5-1.5v-1C8.5,16.224,8.276,16,8,16H1.371
				l2.916-5H6.5C6.776,11,7,10.776,7,10.5S6.776,10,6.5,10H4c-0.178,0-0.342,0.095-0.432,0.248l-3.5,6C0.023,16.325,0,16.412,0,16.5
				v7C0,23.776,0.224,24,0.5,24h23c0.276,0,0.5-0.224,0.5-0.5v-7C24,16.412,23.977,16.325,23.932,16.248z"/>
			<path d="M15.854,7.147c-0.195-0.195-0.512-0.195-0.707,0L12,10.293V0.5C12,0.224,11.776,0,11.5,0S11,0.224,11,0.5v9.793
				L7.853,7.147c-0.195-0.195-0.512-0.195-0.707,0s-0.195,0.512,0,0.707l4,4c0.195,0.195,0.512,0.195,0.707,0l4-4
				C16.049,7.658,16.049,7.342,15.854,7.147z"/>
		</g>
	</g>
	<g id="New_icons">
	</g>
</g>
<g id="Invisible_Shape">
	<rect fill="none" width="24" height="24"/>
</g>
</svg>
