<?xml version="1.0" encoding="utf-8"?>
<!-- Generator: Adobe Illustrator 19.2.1, SVG Export Plug-In . SVG Version: 6.00 Build 0)  -->
<svg version="1.1" xmlns="http://www.w3.org/2000/svg" xmlns:xlink="http://www.w3.org/1999/xlink" x="0px" y="0px" width="24px"
	 height="24px" viewBox="0 0 24 24" enable-background="new 0 0 24 24" xml:space="preserve">
<g id="Filled_Icons_1_">
	<g id="Filled_Icons">
	</g>
	<g id="New_icons">
		<g>
			<path d="M23.932,16.248l-3.5-6C20.342,10.095,20.178,10,20,10h-1V1.5C19,1.224,18.776,1,18.5,1h-13C5.224,1,5,1.224,5,1.5V10H4
				c-0.178,0-0.342,0.095-0.432,0.248l-3.5,6C0.023,16.325,0,16.412,0,16.5v7C0,23.776,0.224,24,0.5,24h23
				c0.276,0,0.5-0.224,0.5-0.5v-7C24,16.412,23.977,16.325,23.932,16.248z M7,8c0-2.757,2.243-5,5-5s5,2.243,5,5v0.5
				c0,1.208-0.86,2.217-2,2.45v0.55c0,1.378-1.122,2.5-2.5,2.5h-1C10.122,14,9,12.878,9,11.5v-0.55C7.86,10.717,7,9.708,7,8.5V8z
				 M16.5,16C16.224,16,16,16.224,16,16.5v1c0,0.827-0.673,1.5-1.5,1.5H10c-0.827,0-1.5-0.673-1.5-1.5v-1C8.5,16.224,8.276,16,8,16
				H1.371l2.916-5H5v3.5C5,14.776,5.224,15,5.5,15h13c0.276,0,0.5-0.224,0.5-0.5V11h0.713l2.917,5H16.5z"/>
			<circle cx="10" cy="7" r="1.5"/>
			<circle cx="14" cy="7" r="1.5"/>
		</g>
	</g>
</g>
<g id="Invisible_Shape">
	<rect fill="none" width="24" height="24"/>
</g>
</svg>
