<?xml version="1.0" encoding="utf-8"?>
<!-- Generator: Adobe Illustrator 19.2.1, SVG Export Plug-In . SVG Version: 6.00 Build 0)  -->
<svg version="1.1" xmlns="http://www.w3.org/2000/svg" xmlns:xlink="http://www.w3.org/1999/xlink" x="0px" y="0px" width="24px"
	 height="24px" viewBox="0 0 24 24" enable-background="new 0 0 24 24" xml:space="preserve">
<g id="Filled_Icons_1_">
	<g id="Filled_Icons">
	</g>
	<g id="New_icons">
		<path d="M23.932,16.248l-3.5-6C20.342,10.095,20.178,10,20,10h-1V1.5C19,1.224,18.776,1,18.5,1h-13C5.224,1,5,1.224,5,1.5V10H4
			c-0.178,0-0.342,0.095-0.432,0.248l-3.5,6C0.023,16.325,0,16.412,0,16.5v7C0,23.776,0.224,24,0.5,24h23c0.276,0,0.5-0.224,0.5-0.5
			v-7C24,16.412,23.977,16.325,23.932,16.248z M7.193,8.081l4.5-3.5c0.181-0.141,0.434-0.141,0.614,0l4.5,3.5
			c0.218,0.169,0.257,0.483,0.087,0.702C16.725,9,16.411,9.041,16.193,8.87L12,5.609L7.807,8.87C7.589,9.041,7.275,9,7.106,8.783
			C6.936,8.564,6.975,8.25,7.193,8.081z M15,9.209v3.267c0,0.276-0.224,0.5-0.5,0.5h-5c-0.276,0-0.5-0.224-0.5-0.5V9.209l3-2.333
			L15,9.209z M16.5,16C16.224,16,16,16.224,16,16.5v1c0,0.827-0.673,1.5-1.5,1.5H10c-0.827,0-1.5-0.673-1.5-1.5v-1
			C8.5,16.224,8.276,16,8,16H1.371l2.916-5H5v3.5C5,14.776,5.224,15,5.5,15h13c0.276,0,0.5-0.224,0.5-0.5V11h0.713l2.917,5H16.5z"/>
	</g>
</g>
<g id="Invisible_Shape">
	<rect fill="none" width="24" height="24"/>
</g>
</svg>
