<?xml version="1.0" encoding="utf-8"?>
<!-- Generator: Adobe Illustrator 19.2.1, SVG Export Plug-In . SVG Version: 6.00 Build 0)  -->
<svg version="1.1" xmlns="http://www.w3.org/2000/svg" xmlns:xlink="http://www.w3.org/1999/xlink" x="0px" y="0px" width="24px"
	 height="24px" viewBox="0 0 24 24" enable-background="new 0 0 24 24" xml:space="preserve">
<g id="Filled_Icons_1_">
	<g id="Filled_Icons">
	</g>
	<g id="New_icons">
		<path d="M23.932,16.248l-3.5-6C20.342,10.095,20.178,10,20,10h-1V1.5C19,1.224,18.776,1,18.5,1h-13C5.224,1,5,1.224,5,1.5V10H4
			c-0.178,0-0.342,0.095-0.432,0.248l-3.5,6C0.023,16.325,0,16.412,0,16.5v7C0,23.776,0.224,24,0.5,24h23c0.276,0,0.5-0.224,0.5-0.5
			v-7C24,16.412,23.977,16.325,23.932,16.248z M10.006,4.476c0.673,0,1.457,0.319,1.994,1.146c0.537-0.826,1.321-1.146,1.994-1.146
			c1.208,0,2.456,1.002,2.456,2.681c0,2.317-3.731,5.096-4.156,5.405c-0.087,0.065-0.191,0.096-0.294,0.096
			s-0.207-0.031-0.294-0.096C11.281,12.252,7.55,9.474,7.55,7.156C7.55,5.477,8.798,4.476,10.006,4.476z M16.5,16
			C16.224,16,16,16.224,16,16.5v1c0,0.827-0.673,1.5-1.5,1.5H10c-0.827,0-1.5-0.673-1.5-1.5v-1C8.5,16.224,8.276,16,8,16H1.371
			l2.916-5H5v3.5C5,14.776,5.224,15,5.5,15h13c0.276,0,0.5-0.224,0.5-0.5V11h0.713l2.917,5H16.5z"/>
	</g>
</g>
<g id="Invisible_Shape">
	<rect fill="none" width="24" height="24"/>
</g>
</svg>
