<?xml version="1.0" encoding="utf-8"?>
<!-- Generator: Adobe Illustrator 19.2.1, SVG Export Plug-In . SVG Version: 6.00 Build 0)  -->
<svg version="1.1" xmlns="http://www.w3.org/2000/svg" xmlns:xlink="http://www.w3.org/1999/xlink" x="0px" y="0px" width="24px"
	 height="24px" viewBox="0 0 24 24" enable-background="new 0 0 24 24" xml:space="preserve">
<g id="Filled_Icons_1_">
	<g id="Filled_Icons">
		<g>
			<path d="M23.881,9.177C23.787,9.065,23.647,9,23.5,9H21V6.5C21,6.224,20.776,6,20.5,6H18v3.5c0,0.827-0.673,1.5-1.5,1.5
				c-0.827,0-1.5-0.673-1.5-1.5V6H4.5C2.019,6,0,8.019,0,10.5v6C0,16.776,0.224,17,0.5,17H11v6.5c0,0.276,0.224,0.5,0.5,0.5
				s0.5-0.224,0.5-0.5V17h8.5c0.276,0,0.5-0.224,0.5-0.5V16h1.5c0.245,0,0.453-0.177,0.493-0.417l1-6
				C24.017,9.438,23.977,9.289,23.881,9.177z M22.077,15H21v-5h1.91L22.077,15z"/>
			<path d="M11.5,4H16v5.5c0,0.276,0.224,0.5,0.5,0.5S17,9.776,17,9.5v-9C17,0.224,16.776,0,16.5,0h-5C11.224,0,11,0.224,11,0.5v3
				C11,3.776,11.224,4,11.5,4z"/>
		</g>
	</g>
	<g id="New_icons">
	</g>
</g>
<g id="Invisible_Shape">
	<rect fill="none" width="24" height="24"/>
</g>
</svg>
