<?xml version="1.0" encoding="utf-8"?>
<!-- Generator: Adobe Illustrator 19.2.1, SVG Export Plug-In . SVG Version: 6.00 Build 0)  -->
<svg version="1.1" xmlns="http://www.w3.org/2000/svg" xmlns:xlink="http://www.w3.org/1999/xlink" x="0px" y="0px" width="24px"
	 height="24px" viewBox="0 0 24 24" enable-background="new 0 0 24 24" xml:space="preserve">
<g id="Filled_Icons_1_">
	<g id="Filled_Icons">
		<g>
			<path d="M4.5,15h-2C2.224,15,2,15.224,2,15.5C2,15.776,2.224,16,2.5,16h2C4.776,16,5,15.776,5,15.5C5,15.224,4.776,15,4.5,15z"/>
			<path d="M20.5,5H5V3h2.5C7.776,3,8,2.776,8,2.5v-2C8,0.224,7.776,0,7.5,0h-3C4.224,0,4,0.224,4,0.5V5H3.5C1.57,5,0,6.57,0,8.5v9
				C0,17.776,0.224,18,0.5,18H13v5.5c0,0.276,0.224,0.5,0.5,0.5s0.5-0.224,0.5-0.5V18h9.5c0.276,0,0.5-0.224,0.5-0.5v-9
				C24,6.57,22.43,5,20.5,5z M6,17H1V8.5C1,7.122,2.122,6,3.5,6S6,7.122,6,8.5V17z"/>
		</g>
	</g>
	<g id="New_icons">
	</g>
</g>
<g id="Invisible_Shape">
	<rect fill="none" width="24" height="24"/>
</g>
</svg>
