<?xml version="1.0" encoding="utf-8"?>
<!-- Generator: Adobe Illustrator 19.2.1, SVG Export Plug-In . SVG Version: 6.00 Build 0)  -->
<svg version="1.1" xmlns="http://www.w3.org/2000/svg" xmlns:xlink="http://www.w3.org/1999/xlink" x="0px" y="0px" width="24px"
	 height="24px" viewBox="0 0 24 24" enable-background="new 0 0 24 24" xml:space="preserve">
<g id="Filled_Icons_1_">
	<g id="Filled_Icons">
		<g>
			<path d="M5,23.5C5,23.776,5.224,24,5.5,24h13c0.276,0,0.5-0.224,0.5-0.5V22H5V23.5z"/>
			<g>
				<path d="M11.752,14.934L9,13.361V16h6v-2.639l-2.752,1.573C12.095,15.021,11.905,15.021,11.752,14.934z"/>
				<path d="M20.5,4h-1.793l-2.854-2.853C15.76,1.053,15.632,1,15.5,1h-3V0.5C12.5,0.224,12.276,0,12,0c-0.276,0-0.5,0.224-0.5,0.5
					V1h-3C8.367,1,8.24,1.053,8.146,1.146L5.293,4H3.5C3.224,4,3,4.224,3,4.5v2C3,6.776,3.224,7,3.5,7h0.793L5,7.707V21h14V7.707
					L19.707,7H20.5C20.776,7,21,6.776,21,6.5v-2C21,4.224,20.776,4,20.5,4z M16,16.5c0,0.276-0.224,0.5-0.5,0.5h-7
					C8.224,17,8,16.776,8,16.5v-4C8,12.224,8.224,12,8.5,12h7c0.276,0,0.5,0.224,0.5,0.5V16.5z M16,10H8c-0.276,0-0.5-0.224-0.5-0.5
					C7.5,9.224,7.724,9,8,9h8c0.276,0,0.5,0.224,0.5,0.5C16.5,9.776,16.276,10,16,10z M20,6H4V5h16V6z"/>
				<polygon points="13.617,13 10.382,13 12,13.925 				"/>
			</g>
		</g>
	</g>
	<g id="New_icons">
	</g>
</g>
<g id="Invisible_Shape">
	<rect fill="none" width="24" height="24"/>
</g>
</svg>
