<?xml version="1.0" encoding="utf-8"?>
<!-- Generator: Adobe Illustrator 19.2.1, SVG Export Plug-In . SVG Version: 6.00 Build 0)  -->
<svg version="1.1" xmlns="http://www.w3.org/2000/svg" xmlns:xlink="http://www.w3.org/1999/xlink" x="0px" y="0px" width="24px"
	 height="24px" viewBox="0 0 24 24" enable-background="new 0 0 24 24" xml:space="preserve">
<g id="Filled_Icons_1_">
	<g id="Filled_Icons">
		<g>
			<path d="M18.905,9.596C16.557,8.263,14.059,8.034,13,8.002V4.5c0-0.193-0.111-0.369-0.287-0.452
				c-0.175-0.083-0.382-0.057-0.531,0.066l-8.5,7c-0.23,0.189-0.23,0.582,0,0.771l8.5,7.001c0.149,0.123,0.356,0.149,0.531,0.065
				C12.889,18.87,13,18.693,13,18.5v-3.625c0.426-0.11,1.227-0.274,2.22-0.274c2.327,0,5.575,0.891,7.839,5.135
				C23.147,19.901,23.319,20,23.5,20c0.276,0,0.5-0.224,0.5-0.5C24,13.707,21.229,10.917,18.905,9.596z"/>
			<path d="M9.318,18.114L1.287,11.5l8.031-6.613C9.531,4.71,9.561,4.396,9.386,4.182C9.21,3.969,8.895,3.938,8.682,4.114l-8.5,7
				c-0.23,0.189-0.23,0.583,0,0.772l8.5,6.999c0.214,0.177,0.529,0.146,0.703-0.067C9.561,18.604,9.531,18.29,9.318,18.114z"/>
		</g>
	</g>
	<g id="New_icons">
	</g>
</g>
<g id="Invisible_Shape">
	<rect fill="none" width="24" height="24"/>
</g>
</svg>
