<?xml version="1.0" encoding="utf-8"?>
<!-- Generator: Adobe Illustrator 19.2.1, SVG Export Plug-In . SVG Version: 6.00 Build 0)  -->
<svg version="1.1" xmlns="http://www.w3.org/2000/svg" xmlns:xlink="http://www.w3.org/1999/xlink" x="0px" y="0px" width="24px"
	 height="24px" viewBox="0 0 24 24" enable-background="new 0 0 24 24" xml:space="preserve">
<g id="Filled_Icons_1_">
	<g id="Filled_Icons">
		<path d="M10.724,7.944c-0.282,0-0.526,0.007-0.724,0.018V4.5c0-0.193-0.111-0.369-0.287-0.452
			C9.539,3.965,9.332,3.991,9.182,4.114l-8.5,7C0.567,11.209,0.5,11.351,0.5,11.5s0.067,0.291,0.182,0.387l8.5,7
			c0.149,0.123,0.357,0.149,0.531,0.065C9.889,18.87,10,18.693,10,18.5v-3.608c0.506-0.112,1.509-0.292,2.748-0.292
			c2.77,0,6.557,0.889,8.82,5.133c0.105,0.196,0.327,0.309,0.553,0.252c0.227-0.057,0.368-0.26,0.37-0.483
			C22.491,8.779,13.486,7.944,10.724,7.944z"/>
	</g>
	<g id="New_icons">
	</g>
</g>
<g id="Invisible_Shape">
	<rect fill="none" width="24" height="24"/>
</g>
</svg>
