<?xml version="1.0" encoding="utf-8"?>
<!-- Generator: Adobe Illustrator 19.2.1, SVG Export Plug-In . SVG Version: 6.00 Build 0)  -->
<svg version="1.1" xmlns="http://www.w3.org/2000/svg" xmlns:xlink="http://www.w3.org/1999/xlink" x="0px" y="0px" width="24px"
	 height="24px" viewBox="0 0 24 24" enable-background="new 0 0 24 24" xml:space="preserve">
<g id="Filled_Icons_1_">
	<g id="Filled_Icons">
		<g>
			<polygon points="7.001,21 7,24 6.999,24 17,24 17,24 17,21 			"/>
			<g>
				<path d="M15.75,16c-0.138,0-0.25,0.112-0.25,0.25c0,0.088,0.168,0.205,0.391,0.271c0.096,0.028,0.187,0.062,0.272,0.099
					C16.063,16.528,16,16.396,16,16.25C16,16.112,15.888,16,15.75,16z"/>
				<path d="M15.609,17.479c-0.096-0.028-0.187-0.062-0.272-0.099c0.1,0.091,0.163,0.223,0.163,0.369c0,0.275,0.5,0.275,0.5,0
					C16,17.644,15.804,17.537,15.609,17.479z"/>
				<path d="M20.5,0h-17C3.224,0,3,0.224,3,0.5v23C3,23.776,3.224,24,3.5,24H6v-3.5C6,20.224,6.224,20,6.5,20h11
					c0.133,0,0.26,0.053,0.354,0.146C17.947,20.24,18,20.368,18,20.5V24h2.5c0.276,0,0.5-0.224,0.5-0.5v-23
					C21,0.224,20.776,0,20.5,0z M10,17.75C10,18.44,9.439,19,8.75,19S7.5,18.44,7.5,17.75v-2.217c0-0.276,0.224-0.5,0.5-0.5
					c0.276,0,0.5,0.224,0.5,0.5v2.217c0,0.275,0.5,0.275,0.5,0V15.5C9,15.224,9.224,15,9.5,15s0.5,0.224,0.5,0.5V17.75z
					 M12.203,17.5H12v0.935c0,0.276-0.224,0.5-0.5,0.5s-0.5-0.224-0.5-0.5V15.5c0-0.276,0.224-0.5,0.5-0.5h0.703
					c0.8,0,1.297,0.474,1.297,1.235C13.5,17.003,12.991,17.5,12.203,17.5z M12,14c-1.654,0-3-1.346-3-3s1.346-3,3-3s3,1.346,3,3
					S13.654,14,12,14z M17,17.75c0,0.69-0.56,1.25-1.25,1.25c-0.689,0-1.25-0.56-1.25-1.25c0-0.315,0.32-0.554,0.613-0.487
					c-0.391-0.242-0.613-0.599-0.613-1.013c0-0.689,0.561-1.25,1.25-1.25c0.69,0,1.25,0.561,1.25,1.25
					c0,0.315-0.323,0.553-0.613,0.487C16.778,16.979,17,17.336,17,17.75z M17,7H7C6.724,7,6.5,6.776,6.5,6.5S6.724,6,7,6h10
					c0.276,0,0.5,0.224,0.5,0.5S17.276,7,17,7z M17,5H7C6.724,5,6.5,4.776,6.5,4.5S6.724,4,7,4h10c0.276,0,0.5,0.224,0.5,0.5
					S17.276,5,17,5z M17,3H7C6.724,3,6.5,2.776,6.5,2.5S6.724,2,7,2h10c0.276,0,0.5,0.224,0.5,0.5S17.276,3,17,3z"/>
				<path d="M12.203,16H12v0.5h0.203c0.254,0,0.297-0.066,0.297-0.265C12.5,16.079,12.5,16,12.203,16z"/>
			</g>
		</g>
	</g>
	<g id="New_icons">
	</g>
</g>
<g id="Invisible_Shape">
	<rect fill="none" width="24" height="24"/>
</g>
</svg>
