<?xml version="1.0" encoding="utf-8"?>
<!-- Generator: Adobe Illustrator 19.2.1, SVG Export Plug-In . SVG Version: 6.00 Build 0)  -->
<svg version="1.1" xmlns="http://www.w3.org/2000/svg" xmlns:xlink="http://www.w3.org/1999/xlink" x="0px" y="0px" width="24px"
	 height="24px" viewBox="0 0 24 24" enable-background="new 0 0 24 24" xml:space="preserve">
<g id="Filled_Icons">
	<g>
		<path d="M5.938,10H5v4.998h0.938c1.233,0,2.062-1.292,2.062-2.5C8,11.292,7.171,10,5.938,10z"/>
		<path d="M23.5,6h-23C0.224,6,0,6.224,0,6.5v12C0,18.776,0.224,19,0.5,19h23c0.276,0,0.5-0.224,0.5-0.5v-12
			C24,6.224,23.776,6,23.5,6z M5.938,15.998H4.5c-0.276,0-0.5-0.223-0.5-0.5V9.5C4,9.224,4.224,9,4.5,9h1.438
			C7.829,9,9,10.816,9,12.498C9,14.182,7.829,15.998,5.938,15.998z M13.998,15.542c-0.042,0.516-0.752,0.633-0.958,0.155L12,13.269
			l-1.04,2.427c-0.206,0.479-0.916,0.36-0.958-0.155l-0.5-6c-0.023-0.275,0.182-0.517,0.456-0.54c0.261-0.029,0.518,0.18,0.54,0.457
			l0.333,3.998l0.709-1.653c0.158-0.368,0.762-0.368,0.92,0l0.709,1.653l0.333-3.998c0.022-0.276,0.28-0.477,0.54-0.457
			c0.274,0.023,0.479,0.264,0.456,0.54L13.998,15.542z M17,16c-1.374,0-2-1.814-2-3.5c0-2.322,0.673-3.5,2-3.5
			c1.111,0,1.78,0.469,1.987,1.39c0.061,0.27-0.108,0.537-0.377,0.599c-0.271,0.061-0.538-0.11-0.598-0.378
			C17.94,10.29,17.808,10,17,10c-0.247,0-1,0-1,2.5c0,1.355,0.458,2.5,1,2.5c0.774,0,0.966-0.511,0.996-2H17
			c-0.276,0-0.5-0.224-0.5-0.5S16.724,12,17,12h1.5c0.276,0,0.5,0.224,0.5,0.5C19,13.977,19,16,17,16z"/>
	</g>
</g>
<g id="Invisible_Shape">
	<rect fill="none" width="24" height="24"/>
</g>
</svg>
