<?xml version="1.0" encoding="utf-8"?>
<!-- Generator: Adobe Illustrator 19.2.1, SVG Export Plug-In . SVG Version: 6.00 Build 0)  -->
<svg version="1.1" xmlns="http://www.w3.org/2000/svg" xmlns:xlink="http://www.w3.org/1999/xlink" x="0px" y="0px" width="24px"
	 height="24px" viewBox="0 0 24 24" enable-background="new 0 0 24 24" xml:space="preserve">
<g id="Filled_Icons">
	<g>
		<polygon points="12.472,17 13.528,17 13,15.24 		"/>
		<path d="M21.854,6.147l-6-6C15.76,0.053,15.633,0,15.5,0h-13C2.225,0,2,0.224,2,0.5v23C2,23.776,2.225,24,2.5,24h19
			c0.276,0,0.5-0.224,0.5-0.5v-17C22,6.367,21.947,6.24,21.854,6.147z M10,18.502c0,0.276-0.224,0.5-0.5,0.5S9,18.778,9,18.502
			v-3.576l-1.109,1.388c-0.189,0.237-0.592,0.237-0.781,0L6,14.926v3.576c0,0.276-0.224,0.5-0.5,0.5S5,18.778,5,18.502V13.5
			c0-0.472,0.597-0.68,0.891-0.312L7.5,15.2l1.609-2.013C9.403,12.82,10,13.028,10,13.5V18.502z M14.644,18.979
			c-0.269,0.08-0.545-0.074-0.622-0.335L13.828,18h-1.656l-0.193,0.644c-0.079,0.266-0.358,0.414-0.622,0.335
			c-0.265-0.079-0.415-0.357-0.335-0.622l1.5-5c0.127-0.423,0.83-0.423,0.957,0l1.5,5C15.059,18.621,14.908,18.899,14.644,18.979z
			 M19.929,18.243c0.143,0.236,0.065,0.543-0.172,0.685c-0.233,0.141-0.543,0.067-0.685-0.171L18,16.972l-1.071,1.786
			c-0.143,0.238-0.452,0.312-0.685,0.171c-0.237-0.142-0.314-0.449-0.172-0.685L17.417,16l-1.346-2.243
			c-0.143-0.237-0.065-0.543,0.172-0.686c0.235-0.14,0.543-0.066,0.685,0.172L18,15.028l1.071-1.785
			c0.143-0.238,0.452-0.312,0.685-0.172c0.237,0.143,0.315,0.449,0.172,0.686L18.583,16L19.929,18.243z M15,7V1l6,6H15z"/>
	</g>
</g>
<g id="Invisible_Shape">
	<rect fill="none" width="24" height="24"/>
</g>
</svg>
