<?xml version="1.0" encoding="utf-8"?>
<!-- Generator: Adobe Illustrator 19.2.1, SVG Export Plug-In . SVG Version: 6.00 Build 0)  -->
<svg version="1.1" xmlns="http://www.w3.org/2000/svg" xmlns:xlink="http://www.w3.org/1999/xlink" x="0px" y="0px" width="24px"
	 height="24px" viewBox="0 0 24 24" enable-background="new 0 0 24 24" xml:space="preserve">
<g id="Filled_Icons">
	<g>
		<path d="M16.938,10.001H16V15h0.938C18.171,15,19,13.708,19,12.5C19,11.293,18.171,10.001,16.938,10.001z"/>
		<path d="M6.742,10H6v2.001h0.742c1.167,0,1.258-0.766,1.258-1C8,10.766,7.909,10,6.742,10z"/>
		<path d="M23.5,6h-23C0.224,6,0,6.224,0,6.5v12C0,18.776,0.224,19,0.5,19h23c0.276,0,0.5-0.224,0.5-0.5v-12
			C24,6.224,23.776,6,23.5,6z M6.742,13.001H6v2.497c0,0.277-0.224,0.5-0.5,0.5S5,15.775,5,15.498V9.5C5,9.224,5.224,9,5.5,9h1.242
			C8.294,9,9,10.037,9,11.001C9,11.964,8.294,13.001,6.742,13.001z M11.76,16c-0.919,0-1.683-0.752-1.739-1.712
			c-0.017-0.276,0.193-0.513,0.47-0.529c0.264-0.007,0.512,0.194,0.528,0.469C11.044,14.661,11.37,15,11.76,15
			c0.408,0,0.74-0.37,0.74-0.827c0-0.786-0.783-1.303-0.894-1.349c-0.724-0.213-1.586-0.869-1.586-1.999
			C10.019,9.819,10.801,9,11.762,9c0.917,0,1.681,0.752,1.737,1.71c0.017,0.276-0.193,0.513-0.47,0.529
			c-0.26,0.02-0.512-0.193-0.528-0.469C12.476,10.338,12.15,10,11.762,10c-0.409,0-0.742,0.37-0.742,0.825
			c0,0.762,0.793,1.018,0.884,1.045c0.451,0.128,1.597,1.006,1.597,2.303C13.5,15.181,12.72,16,11.76,16z M16.938,16H15.5
			c-0.276,0-0.5-0.224-0.5-0.5V9.501c0-0.276,0.224-0.5,0.5-0.5h1.438C18.829,9.001,20,10.818,20,12.5
			C20,14.183,18.829,16,16.938,16z"/>
	</g>
</g>
<g id="Invisible_Shape">
	<rect fill="none" width="24" height="24"/>
</g>
</svg>
