<?xml version="1.0" encoding="utf-8"?>
<!-- Generator: Adobe Illustrator 19.2.1, SVG Export Plug-In . SVG Version: 6.00 Build 0)  -->
<svg version="1.1" xmlns="http://www.w3.org/2000/svg" xmlns:xlink="http://www.w3.org/1999/xlink" x="0px" y="0px" width="24px"
	 height="24px" viewBox="0 0 24 24" enable-background="new 0 0 24 24" xml:space="preserve">
<g id="Filled_Icons">
	<g>
		<path d="M16.5,14H16v4h0.5c0.869,0,1.5-0.841,1.5-2S17.369,14,16.5,14z"/>
		<path d="M21.854,6.147l-6-6C15.76,0.053,15.633,0,15.5,0h-13C2.225,0,2,0.224,2,0.5v23C2,23.776,2.225,24,2.5,24h19
			c0.276,0,0.5-0.224,0.5-0.5v-17C22,6.367,21.947,6.24,21.854,6.147z M6.75,16.5H6v1.999c0,0.277-0.224,0.5-0.5,0.5
			S5,18.775,5,18.499V13.5C5,13.224,5.224,13,5.5,13h1.25c0.965,0,1.75,0.785,1.75,1.75S7.715,16.5,6.75,16.5z M11.5,19
			c-0.919,0-1.683-0.752-1.739-1.712c-0.017-0.276,0.193-0.513,0.47-0.529c0.286-0.018,0.512,0.194,0.528,0.469
			C10.784,17.661,11.11,18,11.5,18c0.408,0,0.74-0.37,0.74-0.827c0-0.586-0.351-0.547-0.879-0.692
			c-1.089-0.204-1.604-0.756-1.604-1.656C9.758,13.819,10.539,13,11.5,13c0.917,0,1.681,0.752,1.737,1.71
			c0.017,0.276-0.193,0.513-0.47,0.529c-0.263,0.017-0.512-0.193-0.528-0.469C12.214,14.338,11.889,14,11.5,14
			c-0.409,0-0.742,0.37-0.742,0.825c0,0.447,0.229,0.568,0.713,0.658c1.04,0.197,1.769,0.587,1.769,1.69
			C13.24,18.181,12.46,19,11.5,19z M16.5,19h-1c-0.276,0-0.5-0.224-0.5-0.5v-5c0-0.276,0.224-0.5,0.5-0.5h1c1.425,0,2.5,1.29,2.5,3
			S17.925,19,16.5,19z M15,7V1l6,6H15z"/>
		<path d="M6.75,14H6v1.5h0.75c0.413,0,0.75-0.336,0.75-0.75S7.163,14,6.75,14z"/>
	</g>
</g>
<g id="Invisible_Shape">
	<rect fill="none" width="24" height="24"/>
</g>
</svg>
