<?xml version="1.0" encoding="utf-8"?>
<!-- Generator: Adobe Illustrator 19.2.1, SVG Export Plug-In . SVG Version: 6.00 Build 0)  -->
<svg version="1.1" xmlns="http://www.w3.org/2000/svg" xmlns:xlink="http://www.w3.org/1999/xlink" x="0px" y="0px" width="24px"
	 height="24px" viewBox="0 0 24 24" enable-background="new 0 0 24 24" xml:space="preserve">
<g id="Filled_Icons">
	<g>
		<polygon points="9.515,13.503 10.485,13.503 10,11.561 		"/>
		<path d="M23.5,6h-23C0.224,6,0,6.224,0,6.5v12C0,18.776,0.224,19,0.5,19h23c0.276,0,0.5-0.224,0.5-0.5v-12
			C24,6.224,23.776,6,23.5,6z M11.621,15.985c-0.264,0.068-0.539-0.093-0.607-0.364l-0.279-1.118H9.265l-0.279,1.118
			c-0.067,0.268-0.335,0.43-0.607,0.364c-0.268-0.067-0.431-0.338-0.364-0.606l1.5-6c0.111-0.445,0.859-0.445,0.971,0l1.5,6
			C12.052,15.646,11.89,15.918,11.621,15.985z M15,15.5c0,0.276-0.224,0.5-0.5,0.5S14,15.776,14,15.5v-6C14,9.224,14.224,9,14.5,9
			S15,9.224,15,9.5V15.5z"/>
	</g>
</g>
<g id="Invisible_Shape">
	<rect fill="none" width="24" height="24"/>
</g>
</svg>
