<?xml version="1.0" encoding="utf-8"?>
<!-- Generator: Adobe Illustrator 19.2.1, SVG Export Plug-In . SVG Version: 6.00 Build 0)  -->
<svg version="1.1" xmlns="http://www.w3.org/2000/svg" xmlns:xlink="http://www.w3.org/1999/xlink" x="0px" y="0px" width="24px"
	 height="24px" viewBox="0 0 24 24" enable-background="new 0 0 24 24" xml:space="preserve">
<g id="Filled_Icons">
	<path d="M21.854,6.147l-6-6C15.76,0.053,15.633,0,15.5,0h-13C2.225,0,2,0.224,2,0.5v23C2,23.776,2.225,24,2.5,24h19
		c0.275,0,0.5-0.224,0.5-0.5v-17C22,6.367,21.947,6.24,21.854,6.147z M7.768,18.575c-0.392,0.391-1.023,0.391-1.414,0.001
		c-0.39-0.39-0.39-1.025,0-1.415c0.248-0.247,0.614-0.317,0.946-0.239l7.295-7.295c-0.084-0.331-0.014-0.692,0.243-0.95
		c0.379-0.378,1.038-0.378,1.415,0c0.389,0.389,0.389,1.023,0.001,1.413c-0.243,0.243-0.549,0.347-0.953,0.245l-7.288,7.289
		C8.097,17.954,8.025,18.317,7.768,18.575z M18,14.5c0,0.276-0.224,0.5-0.5,0.5h-2c-0.276,0-0.5-0.224-0.5-0.5V14l-0.501,0
		C12.57,14,11,15.57,11,17.5V18h0.5c0.276,0,0.5,0.224,0.5,0.5v2c0,0.276-0.224,0.5-0.5,0.5h-2C9.224,21,9,20.776,9,20.5v-2
		C9,18.224,9.224,18,9.5,18H10v-0.5c0-2.481,2.019-4.5,4.5-4.5l0.5,0v-0.5c0-0.276,0.224-0.5,0.5-0.5h2c0.276,0,0.5,0.224,0.5,0.5
		V14.5z M15,7V1l6,6H15z"/>
</g>
<g id="Invisible_Shape">
	<rect fill="none" width="24" height="24"/>
</g>
</svg>
