<?xml version="1.0" encoding="utf-8"?>
<!-- Generator: Adobe Illustrator 19.2.1, SVG Export Plug-In . SVG Version: 6.00 Build 0)  -->
<svg version="1.1" xmlns="http://www.w3.org/2000/svg" xmlns:xlink="http://www.w3.org/1999/xlink" x="0px" y="0px" width="24px"
	 height="24px" viewBox="0 0 24 24" enable-background="new 0 0 24 24" xml:space="preserve">
<g id="Filled_Icons">
	<g>
		<path d="M21.854,6.147l-6-6C15.76,0.053,15.633,0,15.5,0h-13C2.225,0,2,0.224,2,0.5v23C2,23.776,2.225,24,2.5,24h19
			c0.275,0,0.5-0.224,0.5-0.5v-17C22,6.367,21.947,6.24,21.854,6.147z M17,12.5c0,0.276-0.224,0.5-0.5,0.5H16v5h0.5
			c0.276,0,0.5,0.224,0.5,0.5v2c0,0.276-0.224,0.5-0.5,0.5h-2c-0.276,0-0.5-0.224-0.5-0.5V20H9v0.5C9,20.776,8.776,21,8.5,21h-2
			C6.224,21,6,20.776,6,20.5v-2C6,18.224,6.224,18,6.5,18H7v-5H6.5C6.224,13,6,12.776,6,12.5v-2C6,10.224,6.224,10,6.5,10h2
			C8.776,10,9,10.224,9,10.5V11h5v-0.5c0-0.276,0.224-0.5,0.5-0.5h2c0.276,0,0.5,0.224,0.5,0.5V12.5z M15,7V1l6,6H15z"/>
		<path d="M14,12.5V12H9v0.5C9,12.776,8.776,13,8.5,13H8v5h0.5C8.776,18,9,18.224,9,18.5V19h5v-0.5c0-0.276,0.224-0.5,0.5-0.5H15v-5
			h-0.5C14.224,13,14,12.776,14,12.5z"/>
	</g>
</g>
<g id="Invisible_Shape">
	<rect fill="none" width="24" height="24"/>
</g>
</svg>
