<?xml version="1.0" encoding="utf-8"?>
<!-- Generator: Adobe Illustrator 19.2.1, SVG Export Plug-In . SVG Version: 6.00 Build 0)  -->
<svg version="1.1" xmlns="http://www.w3.org/2000/svg" xmlns:xlink="http://www.w3.org/1999/xlink" x="0px" y="0px" width="24px"
	 height="24px" viewBox="0 0 24 24" enable-background="new 0 0 24 24" xml:space="preserve">
<g id="Filled_Icons">
	<g>
		<path d="M21.854,6.147l-6-6C15.76,0.053,15.633,0,15.5,0h-13C2.225,0,2,0.224,2,0.5v23C2,23.776,2.225,24,2.5,24h19
			c0.276,0,0.5-0.224,0.5-0.5v-17C22,6.367,21.947,6.24,21.854,6.147z M8,19c-2,0-2-2.102-2-3s0-3,2-3s2,2.102,2,3S10,19,8,19z
			 M13.5,14H13v4.5c0,0.276-0.224,0.5-0.5,0.5S12,18.776,12,18.5V14h-0.5c-0.276,0-0.5-0.224-0.5-0.5s0.224-0.5,0.5-0.5h2
			c0.276,0,0.5,0.224,0.5,0.5S13.776,14,13.5,14z M18,14h-2v1h1c0.276,0,0.5,0.224,0.5,0.5S17.276,16,17,16h-1v2.5
			c0,0.276-0.224,0.5-0.5,0.5S15,18.776,15,18.5v-5c0-0.276,0.224-0.5,0.5-0.5H18c0.276,0,0.5,0.224,0.5,0.5S18.276,14,18,14z M15,7
			V1l6,6H15z"/>
		<path d="M8,14c-0.547,0-1,0.15-1,2s0.453,2,1,2s1-0.15,1-2S8.547,14,8,14z"/>
	</g>
</g>
<g id="Invisible_Shape">
	<rect fill="none" width="24" height="24"/>
</g>
</svg>
