<?xml version="1.0" encoding="utf-8"?>
<!-- Generator: Adobe Illustrator 19.2.1, SVG Export Plug-In . SVG Version: 6.00 Build 0)  -->
<svg version="1.1" xmlns="http://www.w3.org/2000/svg" xmlns:xlink="http://www.w3.org/1999/xlink" x="0px" y="0px" width="24px"
	 height="24px" viewBox="0 0 24 24" enable-background="new 0 0 24 24" xml:space="preserve">
<g id="Filled_Icons">
	<g>
		<path d="M11.74,17.89c-2.394,0-3.388,0.688-3.388,1.055C8.352,19.313,9.347,20,11.74,20c2.537,0,3.906-0.749,3.906-1.055
			C15.646,18.639,14.277,17.89,11.74,17.89z"/>
		<path d="M22,6.5c0-0.133-0.053-0.26-0.146-0.353l-6-6C15.76,0.053,15.633,0,15.5,0h-13C2.225,0,2,0.224,2,0.5v23
			C2,23.776,2.225,24,2.5,24h19c0.275,0,0.5-0.224,0.5-0.5V6.5z M11.74,21c-2.665,0-4.388-0.806-4.388-2.055
			c0-0.163,4.123-10.401,4.184-10.553c0.166-0.418,0.763-0.418,0.928,0c0.059,0.147,4.183,10.396,4.183,10.553
			C16.646,20.357,14.104,21,11.74,21z M15,7V1l6,6H15z"/>
	</g>
</g>
<g id="Invisible_Shape">
	<rect fill="none" width="24" height="24"/>
</g>
</svg>
