<?xml version="1.0" encoding="utf-8"?>
<!-- Generator: Adobe Illustrator 19.2.1, SVG Export Plug-In . SVG Version: 6.00 Build 0)  -->
<svg version="1.1" xmlns="http://www.w3.org/2000/svg" xmlns:xlink="http://www.w3.org/1999/xlink" x="0px" y="0px" width="24px"
	 height="24px" viewBox="0 0 24 24" enable-background="new 0 0 24 24" xml:space="preserve">
<g id="Filled_Icons">
	<g>
		<path d="M18.5,14H18v4h0.5c0.869,0,1.5-0.841,1.5-2S19.369,14,18.5,14z"/>
		<path d="M13.5,14H13v4h0.5c0.869,0,1.5-0.841,1.5-2S14.369,14,13.5,14z"/>
		<path d="M21.854,6.147l-6-6C15.76,0.053,15.633,0,15.5,0h-13C2.225,0,2,0.224,2,0.5v23C2,23.776,2.225,24,2.5,24h19
			c0.276,0,0.5-0.224,0.5-0.5v-17C22,6.367,21.947,6.24,21.854,6.147z M4,18.5C4,18.776,3.776,19,3.5,19S3,18.776,3,18.5v-5
			C3,13.224,3.224,13,3.5,13S4,13.224,4,13.5V18.5z M10,18.5c0,0.225-0.15,0.422-0.366,0.482c-0.224,0.061-0.45-0.036-0.562-0.225
			L7,15.305V18.5C7,18.776,6.776,19,6.5,19S6,18.776,6,18.5v-5c0-0.225,0.15-0.422,0.366-0.482c0.221-0.059,0.447,0.032,0.562,0.225
			L9,16.695V13.5C9,13.224,9.224,13,9.5,13s0.5,0.224,0.5,0.5V18.5z M13.5,19h-1c-0.276,0-0.5-0.224-0.5-0.5v-5
			c0-0.276,0.224-0.5,0.5-0.5h1c1.425,0,2.5,1.29,2.5,3S14.925,19,13.5,19z M18.5,19h-1c-0.276,0-0.5-0.224-0.5-0.5v-5
			c0-0.276,0.224-0.5,0.5-0.5h1c1.425,0,2.5,1.29,2.5,3S19.925,19,18.5,19z M15,7V1l6,6H15z"/>
	</g>
</g>
<g id="Invisible_Shape">
	<rect fill="none" width="24" height="24"/>
</g>
</svg>
