<?xml version="1.0" encoding="utf-8"?>
<!-- Generator: Adobe Illustrator 19.2.1, SVG Export Plug-In . SVG Version: 6.00 Build 0)  -->
<svg version="1.1" xmlns="http://www.w3.org/2000/svg" xmlns:xlink="http://www.w3.org/1999/xlink" x="0px" y="0px" width="24px"
	 height="24px" viewBox="0 0 24 24" enable-background="new 0 0 24 24" xml:space="preserve">
<g id="Filled_Icons">
	<g>
		<path d="M14.644,16.172L12,19.212V20h5v-1.256l-1.554-2.507C15.273,15.955,14.865,15.915,14.644,16.172z"/>
		<circle cx="13.5" cy="15.5" r="0.5"/>
		<path d="M21.854,6.147l-6-6C15.76,0.053,15.633,0,15.5,0h-13C2.225,0,2,0.224,2,0.5v23C2,23.776,2.225,24,2.5,24h19
			c0.275,0,0.5-0.224,0.5-0.5v-17C22,6.367,21.947,6.24,21.854,6.147z M6.5,7h5C11.776,7,12,7.224,12,7.5S11.776,8,11.5,8h-5
			C6.224,8,6,7.776,6,7.5S6.224,7,6.5,7z M6.5,10h9c0.276,0,0.5,0.224,0.5,0.5S15.776,11,15.5,11h-9C6.224,11,6,10.776,6,10.5
			S6.224,10,6.5,10z M8.5,20h-2C6.224,20,6,19.776,6,19.5S6.224,19,6.5,19h2C8.776,19,9,19.224,9,19.5S8.776,20,8.5,20z M8.5,17h-2
			C6.224,17,6,16.776,6,16.5S6.224,16,6.5,16h2C8.776,16,9,16.224,9,16.5S8.776,17,8.5,17z M8.5,14h-2C6.224,14,6,13.776,6,13.5
			S6.224,13,6.5,13h2C8.776,13,9,13.224,9,13.5S8.776,14,8.5,14z M18,20.5c0,0.276-0.224,0.5-0.5,0.5h-6c-0.276,0-0.5-0.224-0.5-0.5
			v-7c0-0.276,0.224-0.5,0.5-0.5h6c0.276,0,0.5,0.224,0.5,0.5V20.5z M15,7V1l6,6H15z"/>
	</g>
</g>
<g id="Invisible_Shape">
	<rect fill="none" width="24" height="24"/>
</g>
</svg>
