<?xml version="1.0" encoding="utf-8"?>
<!-- Generator: Adobe Illustrator 19.2.1, SVG Export Plug-In . SVG Version: 6.00 Build 0)  -->
<svg version="1.1" xmlns="http://www.w3.org/2000/svg" xmlns:xlink="http://www.w3.org/1999/xlink" x="0px" y="0px" width="24px"
	 height="24px" viewBox="0 0 24 24" enable-background="new 0 0 24 24" xml:space="preserve">
<g id="Filled_Icons">
	<path d="M21.854,6.147l-6-6C15.76,0.053,15.633,0,15.5,0h-13C2.225,0,2,0.224,2,0.5v23C2,23.776,2.225,24,2.5,24h19
		c0.276,0,0.5-0.224,0.5-0.5v-17C22,6.367,21.947,6.24,21.854,6.147z M7.5,14H7v4.5C7,18.776,6.776,19,6.5,19S6,18.776,6,18.5V14
		H5.5C5.224,14,5,13.776,5,13.5S5.224,13,5.5,13h2C7.776,13,8,13.224,8,13.5S7.776,14,7.5,14z M12.5,14H12v4.5
		c0,0.276-0.224,0.5-0.5,0.5S11,18.776,11,18.5V14h-0.5c-0.276,0-0.5-0.224-0.5-0.5s0.224-0.5,0.5-0.5h2c0.276,0,0.5,0.224,0.5,0.5
		S12.776,14,12.5,14z M18,14h-2v1h1c0.276,0,0.5,0.224,0.5,0.5S17.276,16,17,16h-1v2.5c0,0.276-0.224,0.5-0.5,0.5S15,18.776,15,18.5
		v-5c0-0.276,0.224-0.5,0.5-0.5H18c0.276,0,0.5,0.224,0.5,0.5S18.276,14,18,14z M15,7V1l6,6H15z"/>
</g>
<g id="Invisible_Shape">
	<rect fill="none" width="24" height="24"/>
</g>
</svg>
