<?xml version="1.0" encoding="utf-8"?>
<!-- Generator: Adobe Illustrator 19.2.1, SVG Export Plug-In . SVG Version: 6.00 Build 0)  -->
<svg version="1.1" xmlns="http://www.w3.org/2000/svg" xmlns:xlink="http://www.w3.org/1999/xlink" x="0px" y="0px" width="24px"
	 height="24px" viewBox="0 0 24 24" enable-background="new 0 0 24 24" xml:space="preserve">
<g id="Filled_Icons">
	<g>
		<path d="M23.5,6h-23C0.224,6,0,6.224,0,6.5v12C0,18.776,0.224,19,0.5,19h23c0.276,0,0.5-0.224,0.5-0.5v-12
			C24,6.224,23.776,6,23.5,6z M7.466,16C5.5,16,5.5,13.366,5.5,12.5c0-0.865,0-3.5,1.966-3.5C8.394,9,9.5,9.607,9.5,12.5
			C9.5,15.394,8.394,16,7.466,16z M14,10h-1v5.5c0,0.276-0.224,0.5-0.5,0.5S12,15.776,12,15.5V10h-1c-0.276,0-0.5-0.224-0.5-0.5
			S10.724,9,11,9h3c0.276,0,0.5,0.224,0.5,0.5S14.276,10,14,10z M19,10.001h-2v2h1.5c0.276,0,0.5,0.224,0.5,0.5
			c0,0.276-0.224,0.5-0.5,0.5H17V15.5c0,0.276-0.224,0.5-0.5,0.5S16,15.776,16,15.5V9.501c0-0.276,0.224-0.5,0.5-0.5H19
			c0.276,0,0.5,0.224,0.5,0.5C19.5,9.777,19.276,10.001,19,10.001z"/>
		<path d="M7.466,10C7.202,10,6.5,10,6.5,12.5S7.202,15,7.466,15C8.32,15,8.5,13.641,8.5,12.5C8.5,11.359,8.32,10,7.466,10z"/>
	</g>
</g>
<g id="Invisible_Shape">
	<rect fill="none" width="24" height="24"/>
</g>
</svg>
