<?xml version="1.0" encoding="utf-8"?>
<!-- Generator: Adobe Illustrator 19.2.1, SVG Export Plug-In . SVG Version: 6.00 Build 0)  -->
<svg version="1.1" xmlns="http://www.w3.org/2000/svg" xmlns:xlink="http://www.w3.org/1999/xlink" x="0px" y="0px" width="24px"
	 height="24px" viewBox="0 0 24 24" enable-background="new 0 0 24 24" xml:space="preserve">
<g id="Filled_Icons">
	<g>
		<path d="M11.938,10.001H11V15h0.938C13.171,15,14,13.708,14,12.5C14,11.293,13.171,10.001,11.938,10.001z"/>
		<path d="M23.5,6h-23C0.224,6,0,6.224,0,6.5v12C0,18.776,0.224,19,0.5,19h23c0.276,0,0.5-0.224,0.5-0.5v-12
			C24,6.224,23.776,6,23.5,6z M9,14c0,1.102-0.898,2-2,2s-2-0.898-2-2c0-0.276,0.224-0.5,0.5-0.5S6,13.724,6,14c0,0.551,0.448,1,1,1
			s1-0.449,1-1s-0.448-1-1-1c-0.276,0-0.5-0.224-0.5-0.5S6.724,12,7,12c0.552,0,1-0.449,1-1s-0.448-1-1-1s-1,0.449-1,1
			c0,0.276-0.224,0.5-0.5,0.5S5,11.276,5,11c0-1.103,0.898-2,2-2s2,0.897,2,2c0,0.6-0.271,1.133-0.691,1.5C8.729,12.867,9,13.4,9,14
			z M11.938,16H10.5c-0.276,0-0.5-0.224-0.5-0.5V9.501c0-0.276,0.224-0.5,0.5-0.5h1.438C13.829,9.001,15,10.818,15,12.5
			C15,14.183,13.829,16,11.938,16z M17.74,16c-0.919,0-1.683-0.752-1.739-1.712c-0.017-0.276,0.193-0.513,0.47-0.529
			c0.266-0.007,0.512,0.194,0.528,0.469C17.024,14.661,17.351,15,17.74,15c0.408,0,0.74-0.37,0.74-0.827
			c0-0.786-0.783-1.303-0.895-1.349C16.862,12.611,16,11.956,16,10.825C16,9.819,16.781,9,17.742,9c0.917,0,1.681,0.752,1.737,1.71
			c0.017,0.276-0.193,0.513-0.47,0.529c-0.285,0.02-0.512-0.193-0.528-0.469C18.456,10.338,18.131,10,17.742,10
			C17.333,10,17,10.37,17,10.825c0,0.762,0.793,1.018,0.884,1.045c0.451,0.128,1.597,1.006,1.597,2.303
			C19.48,15.181,18.7,16,17.74,16z"/>
	</g>
</g>
<g id="Invisible_Shape">
	<rect fill="none" width="24" height="24"/>
</g>
</svg>
