<?xml version="1.0" encoding="utf-8"?>
<!-- Generator: Adobe Illustrator 19.2.1, SVG Export Plug-In . SVG Version: 6.00 Build 0)  -->
<svg version="1.1" xmlns="http://www.w3.org/2000/svg" xmlns:xlink="http://www.w3.org/1999/xlink" x="0px" y="0px" width="24px"
	 height="24px" viewBox="0 0 24 24" enable-background="new 0 0 24 24" xml:space="preserve">
<g id="Filled_Icons">
	<g>
		<path d="M21.854,6.147l-6-6C15.76,0.053,15.633,0,15.5,0h-13C2.225,0,2,0.224,2,0.5v23C2,23.776,2.225,24,2.5,24h19
			c0.276,0,0.5-0.224,0.5-0.5v-17C22,6.367,21.947,6.24,21.854,6.147z M12.644,17.979c-0.269,0.08-0.545-0.074-0.622-0.335
			L11.828,17h-1.656l-0.193,0.644c-0.079,0.265-0.359,0.415-0.622,0.335c-0.265-0.079-0.415-0.357-0.335-0.622l1.5-5
			c0.127-0.423,0.83-0.423,0.957,0l1.5,5C13.059,17.621,12.908,17.899,12.644,17.979z M15,17.5c0,0.276-0.224,0.5-0.5,0.5
			S14,17.776,14,17.5v-5c0-0.276,0.224-0.5,0.5-0.5s0.5,0.224,0.5,0.5V17.5z M15,7V1l6,6H15z"/>
		<polygon points="10.472,16 11.528,16 11,14.24 		"/>
	</g>
</g>
<g id="Invisible_Shape">
	<rect fill="none" width="24" height="24"/>
</g>
</svg>
