<?xml version="1.0" encoding="utf-8"?>
<!-- Generator: Adobe Illustrator 19.2.1, SVG Export Plug-In . SVG Version: 6.00 Build 0)  -->
<svg version="1.1" xmlns="http://www.w3.org/2000/svg" xmlns:xlink="http://www.w3.org/1999/xlink" x="0px" y="0px" width="24px"
	 height="24px" viewBox="0 0 24 24" enable-background="new 0 0 24 24" xml:space="preserve">
<g id="Filled_Icons">
	<g>
		<path d="M11.938,10.001H11V15h0.938C13.171,15,14,13.708,14,12.5C14,11.293,13.171,10.001,11.938,10.001z"/>
		<path d="M17.938,10.001H17V15h0.938C19.171,15,20,13.708,20,12.5C20,11.293,19.171,10.001,17.938,10.001z"/>
		<path d="M23.5,6h-23C0.224,6,0,6.224,0,6.5v12C0,18.776,0.224,19,0.5,19h23c0.276,0,0.5-0.224,0.5-0.5v-12
			C24,6.224,23.776,6,23.5,6z M4,15.5C4,15.776,3.776,16,3.5,16S3,15.776,3,15.5v-6C3,9.224,3.224,9,3.5,9S4,9.224,4,9.5V15.5z
			 M9,15.5c0,0.528-0.713,0.692-0.947,0.224L6,11.619V15.5C6,15.776,5.776,16,5.5,16S5,15.776,5,15.5v-6
			c0-0.527,0.714-0.693,0.947-0.224L8,13.382V9.5C8,9.224,8.224,9,8.5,9S9,9.224,9,9.5V15.5z M11.938,16H10.5
			c-0.276,0-0.5-0.224-0.5-0.5V9.501c0-0.276,0.224-0.5,0.5-0.5h1.438C13.829,9.001,15,10.818,15,12.5
			C15,14.183,13.829,16,11.938,16z M17.938,16H16.5c-0.276,0-0.5-0.224-0.5-0.5V9.501c0-0.276,0.224-0.5,0.5-0.5h1.438
			C19.829,9.001,21,10.818,21,12.5C21,14.183,19.829,16,17.938,16z"/>
	</g>
</g>
<g id="Invisible_Shape">
	<rect fill="none" width="24" height="24"/>
</g>
</svg>
