<?xml version="1.0" encoding="utf-8"?>
<!-- Generator: Adobe Illustrator 19.2.0, SVG Export Plug-In . SVG Version: 6.00 Build 0)  -->
<svg version="1.1" xmlns="http://www.w3.org/2000/svg" xmlns:xlink="http://www.w3.org/1999/xlink" x="0px" y="0px" width="24px"
	 height="24px" viewBox="0 0 24 24" enable-background="new 0 0 24 24" xml:space="preserve">
<g id="Filled_Icons">
	<g>
		<g>
			<circle cx="15" cy="11.021" r="0.5"/>
		</g>
		<g>
			<circle cx="9" cy="11.021" r="0.5"/>
		</g>
		<path d="M12,3.006c-0.531,0-1.044,0.086-1.547,0.207L8.387,0.689c-0.175-0.215-0.489-0.245-0.703-0.07s-0.245,0.49-0.07,0.703
			c0.102,0.125,1.73,2.261,1.73,2.261L6.157,2.531c-0.267-0.09-0.545,0.056-0.632,0.317C5.438,3.111,5.581,3.395,5.843,3.48
			l2.269,0.749C4.417,6.621,2,12.037,2,16.006c0,5.01,3.738,8,10,8s10-2.99,10-8C22,10.771,17.801,3.006,12,3.006z M6.9,16.441
			c0.945-0.769,3.732-2.936,5.1-2.936c1.365,0,4.143,2.158,5.094,2.931c-1.981,0.966-4.455,2.069-5.094,2.069
			C11.393,18.506,9.036,17.467,6.9,16.441z M8.082,8.692L7.7,8.406C7.479,8.24,7.435,7.927,7.6,7.706
			C7.767,7.485,8.08,7.44,8.3,7.606l3.7,2.775l3.7-2.775c0.221-0.166,0.533-0.121,0.7,0.101c0.165,0.221,0.12,0.534-0.101,0.7
			l-0.382,0.286c0.964,0.384,1.631,1.339,1.579,2.431c-0.064,1.337-1.173,2.383-2.498,2.383c-1.301,0-2.359-1.003-2.477-2.266
			c-0.462,0.346-0.504,0.402-1.042,0.002c-0.118,1.258-1.171,2.265-2.478,2.265c-1.316,0-2.421-1.029-2.497-2.357
			C6.446,10.137,7.002,9.12,8.082,8.692z M11.553,21.856l-2.916-3.506c1.427,0.631,2.786,1.155,3.363,1.155
			c0.602,0,1.987-0.541,3.36-1.152l-3.045,3.511C12.115,22.098,11.75,22.095,11.553,21.856z"/>
	</g>
</g>
<g id="invisible_shape">
	<rect fill="none" width="24" height="24"/>
</g>
</svg>
