<?xml version="1.0" encoding="utf-8"?>
<!-- Generator: Adobe Illustrator 19.2.0, SVG Export Plug-In . SVG Version: 6.00 Build 0)  -->
<svg version="1.1" xmlns="http://www.w3.org/2000/svg" xmlns:xlink="http://www.w3.org/1999/xlink" x="0px" y="0px" width="24px"
	 height="24px" viewBox="0 0 24 24" enable-background="new 0 0 24 24" xml:space="preserve">
<g id="Filled_Icons">
	<g>
		<path d="M17.5,1h-9C6.019,1,4,3.019,4,5.5V12c0,2.791,1.361,5.39,3.65,6.982l9.695,0.002C19.637,17.393,21,14.793,21,12V9.739
			C20.049,10.526,18.828,11,17.5,11h-1.777C15.903,11.563,16,12.148,16,12.75c0,0.864-0.186,1.693-0.553,2.466
			c-0.12,0.251-0.42,0.354-0.667,0.236c-0.249-0.118-0.356-0.417-0.236-0.666C14.847,14.149,15,13.465,15,12.75
			c0-0.608-0.119-1.194-0.341-1.75H10.25C8.458,11,7,9.542,7,7.75V5.5C7,5.224,7.224,5,7.5,5S8,5.224,8,5.5v2.25
			C8,8.99,9.01,10,10.25,10h7.25c2.481,0,4.5-2.019,4.5-4.5S19.981,1,17.5,1z"/>
		<polyline points="7,20 7,24 18,24 18,20 		"/>
	</g>
</g>
<g id="invisible_shape">
	<rect fill="none" width="24" height="24"/>
</g>
</svg>
