<?xml version="1.0" encoding="utf-8"?>
<!-- Generator: Adobe Illustrator 19.2.0, SVG Export Plug-In . SVG Version: 6.00 Build 0)  -->
<svg version="1.1" xmlns="http://www.w3.org/2000/svg" xmlns:xlink="http://www.w3.org/1999/xlink" x="0px" y="0px" width="24px"
	 height="24px" viewBox="0 0 24 24" enable-background="new 0 0 24 24" xml:space="preserve">
<g id="Filled_Icons">
	<g>
		<path d="M18.68,8.99L20.172,7l0.048,0.002c-0.401-0.432-0.831-0.843-1.276-1.236l1.91-1.912c0.195-0.194,0.195-0.511,0-0.707
			c-0.195-0.195-0.512-0.195-0.707,0l-1.981,1.982C17.551,4.672,16.896,4.273,16.172,4l-1.453,2.423
			C16.263,6.913,17.62,7.814,18.68,8.99z"/>
		<path d="M21.646,2.353c-0.195-0.194-0.195-0.511,0-0.707l1.5-1.5c0.195-0.195,0.512-0.195,0.707,0
			c0.195,0.196,0.195,0.513,0,0.707l-1.5,1.5C22.158,2.549,21.842,2.549,21.646,2.353z"/>
		<path d="M23.223,5.917l-1.5-1c-0.229-0.153-0.292-0.464-0.139-0.693c0.154-0.23,0.466-0.29,0.693-0.14l1.5,1
			c0.229,0.154,0.292,0.465,0.139,0.694C23.761,6.01,23.45,6.068,23.223,5.917z"/>
		<path d="M19.084,2.278l-1-1.5c-0.153-0.229-0.091-0.54,0.139-0.694c0.227-0.152,0.538-0.092,0.693,0.14l1,1.5
			c0.153,0.229,0.091,0.54-0.139,0.693C19.55,2.568,19.239,2.51,19.084,2.278z"/>
		<path d="M4.5,12h-4C0.224,12,0,11.776,0,11.5S0.224,11,0.5,11h4C4.776,11,5,11.224,5,11.5S4.776,12,4.5,12z"/>
		<path d="M4,15H0.5C0.224,15,0,14.776,0,14.5S0.224,14,0.5,14H4c0.276,0,0.5,0.224,0.5,0.5S4.276,15,4,15z"/>
		<path d="M4,18H0.5C0.224,18,0,17.776,0,17.5S0.224,17,0.5,17H4c0.276,0,0.5,0.224,0.5,0.5S4.276,18,4,18z"/>
		<path d="M12,6.99c-2.953,0-5.532,1.622-6.918,4.01H12.5c0.276,0,0.5,0.225,0.5,0.5c0,0.277-0.224,0.5-0.5,0.5H4.589
			c-0.256,0.632-0.432,1.302-0.52,2H10.5c0.276,0,0.5,0.225,0.5,0.5c0,0.277-0.224,0.5-0.5,0.5H4c0,0.692,0.098,1.359,0.264,2H7.5
			C7.776,17,8,17.225,8,17.5C8,17.777,7.776,18,7.5,18H4.59c1.19,2.927,4.061,4.99,7.41,4.99c4.411,0,8-3.59,8-8
			C20,10.579,16.411,6.99,12,6.99z"/>
	</g>
</g>
<g id="invisible_shape">
	<rect fill="none" width="24" height="24"/>
</g>
</svg>
