<?xml version="1.0" encoding="utf-8"?>
<!-- Generator: Adobe Illustrator 19.2.0, SVG Export Plug-In . SVG Version: 6.00 Build 0)  -->
<svg version="1.1" xmlns="http://www.w3.org/2000/svg" xmlns:xlink="http://www.w3.org/1999/xlink" x="0px" y="0px" width="24px"
	 height="24px" viewBox="0 0 24 24" enable-background="new 0 0 24 24" xml:space="preserve">
<g id="Filled_Icons">
	<g>
		<path d="M14,12V4c-3.314,0-6,2.687-6,6V4c-4.419,0-8,3.581-8,8v5.75C0,21.202,2.799,24,6.25,24h6.5c3.451,0,6.25-2.798,6.25-6.25
			V7C16.238,7,14,9.238,14,12z M9,13c0-0.276,0.224-0.5,0.5-0.5S10,12.724,10,13v2.5c0,0.276-0.224,0.5-0.5,0.5S9,15.776,9,15.5V13z
			 M4,13c0-0.276,0.224-0.5,0.5-0.5S5,12.724,5,13v2.5C5,15.776,4.776,16,4.5,16S4,15.776,4,15.5V13z M7,22c-2.209,0-4-1.791-4-4h8
			C11,20.209,9.209,22,7,22z"/>
		<path d="M9.776,2.947C9.529,2.823,9.43,2.523,9.553,2.276C10.109,1.164,11.211,0.5,12.5,0.5H14c0.276,0,0.5,0.224,0.5,0.5
			S14.276,1.5,14,1.5h-1.5c-0.915,0-1.664,0.446-2.053,1.224C10.321,2.974,10.019,3.069,9.776,2.947z"/>
		<path d="M16.276,3.447c-0.247-0.124-0.347-0.424-0.224-0.671C16.609,1.664,17.711,1,19,1h1.5C20.776,1,21,1.224,21,1.5
			S20.776,2,20.5,2H19c-0.915,0-1.664,0.446-2.053,1.224C16.821,3.474,16.519,3.569,16.276,3.447z"/>
		<path d="M18.776,5.947c-0.247-0.124-0.347-0.424-0.224-0.671C19.109,4.164,20.211,3.5,21.5,3.5H23c0.276,0,0.5,0.224,0.5,0.5
			S23.276,4.5,23,4.5h-1.5c-0.915,0-1.664,0.446-2.053,1.224C19.321,5.974,19.019,6.069,18.776,5.947z"/>
	</g>
</g>
<g id="invisible_shape">
	<rect fill="none" width="24" height="24"/>
</g>
</svg>
