<?xml version="1.0" encoding="utf-8"?>
<!-- Generator: Adobe Illustrator 19.2.0, SVG Export Plug-In . SVG Version: 6.00 Build 0)  -->
<svg version="1.1" xmlns="http://www.w3.org/2000/svg" xmlns:xlink="http://www.w3.org/1999/xlink" x="0px" y="0px" width="24px"
	 height="24px" viewBox="0 0 24 24" enable-background="new 0 0 24 24" xml:space="preserve">
<g id="Filled_Icons">
	<g>
		<g>
			<path d="M11.5,6.5h2c0.552,0,1-0.449,1-1V4c0-1.103-0.898-2-2-2c-1.104,0-2,0.897-2,2v1.5C10.5,6.051,10.949,6.5,11.5,6.5z
				 M12.5,4.5C12.5,4.223,12.724,4,13,4s0.5,0.223,0.5,0.5v1C13.5,5.775,13.276,6,13,6s-0.5-0.225-0.5-0.5V4.5z"/>
			<path d="M4.5,6.5h2c0.552,0,1-0.449,1-1V4c0-1.103-0.898-2-2-2c-1.103,0-2,0.897-2,2v1.5C3.5,6.051,3.949,6.5,4.5,6.5z M4.5,3.5
				C4.5,3.223,4.724,3,5,3s0.5,0.223,0.5,0.5v1C5.5,4.775,5.276,5,5,5S4.5,4.775,4.5,4.5V3.5z"/>
			<path d="M15.5,5.082V5.5c0,1.102-0.898,2-2,2h-2c-1.104,0-2-0.898-2-2v-1h-1v1c0,1.102-0.898,2-2,2h-2c-1.103,0-2-0.898-2-2
				V5.082C1.574,6.027,1,7.32,1,8.75c0,1.449,0.588,2.762,1.538,3.711c0,0,6.078,3.039,6.462,3.039c0.79,0,1.061-0.301,6.5-3.078
				C16.428,11.477,17,10.18,17,8.75S16.427,6.027,15.5,5.082z M13.501,10.865L9,13l-4.503-2.137C4.199,10.691,4,10.367,4,10
				c0-0.553,0.447-1,1-1h8c0.553,0,1,0.447,1,1C14,10.369,13.8,10.691,13.501,10.865z"/>
		</g>
		<path d="M18.5,14c-0.711,0-1.388,0.148-2,0.416L16,17.5L13.916,17c-0.268,0.611-0.416,1.287-0.416,2c0,2.76,2.238,5,5,5
			s5-2.24,5-5C23.5,16.238,21.262,14,18.5,14z M17,21.5c-0.553,0-1-0.449-1-1c0-0.553,0.447-1,1-1s1,0.447,1,1
			C18,21.051,17.553,21.5,17,21.5z M20.5,19.5c-0.553,0-1-0.449-1-1c0-0.553,0.447-1,1-1s1,0.447,1,1
			C21.5,19.051,21.053,19.5,20.5,19.5z"/>
	</g>
</g>
<g id="invisible_shape">
	<rect fill="none" width="24" height="24"/>
</g>
</svg>
