<?xml version="1.0" encoding="utf-8"?>
<!-- Generator: Adobe Illustrator 19.2.0, SVG Export Plug-In . SVG Version: 6.00 Build 0)  -->
<svg version="1.1" xmlns="http://www.w3.org/2000/svg" xmlns:xlink="http://www.w3.org/1999/xlink" x="0px" y="0px" width="24px"
	 height="24px" viewBox="0 0 24 24" enable-background="new 0 0 24 24" xml:space="preserve">
<g id="Filled_Icons">
	<g>
		<g>
			<rect x="6.036" y="15" width="12.964" height="2"/>
			<rect x="6.036" y="12" width="12.964" height="2"/>
			<path d="M4.5,10h1.536v1H19v-1h1.5c0.276,0,0.5-0.225,0.5-0.5C21,9.223,20.776,9,20.5,9h-16C4.224,9,4,9.223,4,9.5
				C4,9.775,4.224,10,4.5,10z"/>
			<path d="M20.5,23H19v-2H6.036v2H4.5C4.224,23,4,23.223,4,23.5C4,23.775,4.224,24,4.5,24h16c0.276,0,0.5-0.225,0.5-0.5
				C21,23.223,20.776,23,20.5,23z"/>
			<rect x="6.036" y="18" width="12.964" height="2"/>
		</g>
		<path d="M6.802,8l0.728-1.203c0.259-0.545,0.404-1.152,0.404-1.795c0-1.396-0.83-2.631-1.996-3.393L5.536,1.514
			c0.425-0.191,0.898-0.299,1.396-0.299c1.873,0,3.39,1.518,3.39,3.389v0.199c0,0.33,0.268,0.598,0.598,0.598
			c0.727,0,0.835-1.163,0.835-1.893c0-1.363-0.621-2.58-1.597-3.385l0.164-0.105c3.304,0,5.981,2.678,5.981,5.982L18.5,3.607V8"/>
		<path d="M4,2H3V1c0-0.277-0.224-0.5-0.5-0.5S2,0.723,2,1v1H1C0.724,2,0.5,2.223,0.5,2.5C0.5,2.775,0.724,3,1,3h1v1
			c0,0.275,0.224,0.5,0.5,0.5S3,4.275,3,4V3h1c0.276,0,0.5-0.225,0.5-0.5C4.5,2.223,4.276,2,4,2z"/>
		<path d="M23,5h-1V4c0-0.277-0.224-0.5-0.5-0.5S21,3.723,21,4v1h-1c-0.276,0-0.5,0.223-0.5,0.5C19.5,5.775,19.724,6,20,6h1v1
			c0,0.275,0.224,0.5,0.5,0.5S22,7.275,22,7V6h1c0.276,0,0.5-0.225,0.5-0.5C23.5,5.223,23.276,5,23,5z"/>
	</g>
</g>
<g id="invisible_shape">
	<rect fill="none" width="24" height="24"/>
</g>
</svg>
