<?xml version="1.0" encoding="utf-8"?>
<!-- Generator: Adobe Illustrator 19.2.0, SVG Export Plug-In . SVG Version: 6.00 Build 0)  -->
<svg version="1.1" xmlns="http://www.w3.org/2000/svg" xmlns:xlink="http://www.w3.org/1999/xlink" x="0px" y="0px" width="24px"
	 height="24px" viewBox="0 0 24 24" enable-background="new 0 0 24 24" xml:space="preserve">
<g id="Filled_Icons">
	<g>
		<path d="M16,8.148v4.394C16.425,12.208,16.953,12,17.535,12h2.975c-0.149-2.415-1.366-4.535-3.19-5.9
			C16.529,6.46,16,7.259,16,8.148z M17,9.5C17,9.224,17.224,9,17.5,9S18,9.224,18,9.5v1c0,0.276-0.224,0.5-0.5,0.5
			S17,10.776,17,10.5V9.5z"/>
		<path d="M16.127,14h7.315c-0.207-0.581-0.757-1-1.407-1h-4.5C16.884,13,16.334,13.419,16.127,14z"/>
		<path d="M17.535,16h4.5c0.65,0,1.2-0.419,1.407-1h-7.315C16.334,15.581,16.884,16,17.535,16z"/>
		<path d="M17.535,17C16.097,17,15,15.787,15,14.396V8.148c0-1.076,0.537-2.063,1.385-2.66C15.242,4.859,13.931,4.5,12.535,4.5
			c-1.9,0-3.645,0.662-5.017,1.769L4.125,9.42l4.977,0.685c2.582,0.523,4.398,2.791,4.398,5.396c0,1.978-1.018,3.709-2.588,4.679
			c0.714,0.32,1.027,0.321,1.623,0.321c2.746,0,5.156-1.393,6.597-3.5H17.535z"/>
		<path d="M12.5,15.5c0-2.133-1.479-3.986-3.565-4.41l-7.399-1.017c0.034,1.396,1.025,2.559,2.342,2.856
			C4.087,12.971,4.31,13,4.531,13c0,0,0.002,0,0.004,0l2.557,0.003c0.275,0.001,0.499,0.225,0.498,0.501
			c0,0.275-0.224,0.499-0.5,0.499l0,0L4.534,14c-0.504,0-1.021-0.106-1.499-0.265c0,1.852,1.244,2.765,2.5,2.765h3
			c0.275,0,0.5,0.224,0.5,0.5c0,0.275-0.225,0.5-0.5,0.5h-3c-0.158,0-0.313-0.011-0.464-0.03C5.298,18.9,6.54,20,8.035,20
			C10.516,20,12.5,17.98,12.5,15.5z"/>
	</g>
</g>
<g id="invisible_shape">
	<rect fill="none" width="24" height="24"/>
</g>
</svg>
