<?xml version="1.0" encoding="utf-8"?>
<!-- Generator: Adobe Illustrator 19.2.0, SVG Export Plug-In . SVG Version: 6.00 Build 0)  -->
<svg version="1.1" xmlns="http://www.w3.org/2000/svg" xmlns:xlink="http://www.w3.org/1999/xlink" x="0px" y="0px" width="24px"
	 height="24px" viewBox="0 0 24 24" enable-background="new 0 0 24 24" xml:space="preserve">
<g id="Filled_Icons">
	<g>
		<path d="M6.75,20c-1.93,0-3.5,1.57-3.5,3.5c0,0.276,0.224,0.5,0.5,0.5h6c0.276,0,0.5-0.224,0.5-0.5C10.25,21.57,8.68,20,6.75,20z"
			/>
		<path d="M15.75,20c-1.93,0-3.5,1.57-3.5,3.5c0,0.276,0.224,0.5,0.5,0.5h6c0.276,0,0.5-0.224,0.5-0.5
			C19.25,21.57,17.68,20,15.75,20z"/>
		<path d="M21.5,3.188c0-0.299-0.263-0.526-0.533-0.499c-3.447,0.23-5.329,1.401-6.054,2.511C13.742,4.418,12.443,4,11.156,4
			c-1.233,0-2.48,0.38-3.613,1.1c-0.73-1.096-2.586-2.182-6.01-2.411C1.263,2.661,1,2.889,1,3.188C1,5.319,2.023,8.689,3.884,9.82
			c-0.51,1.359-0.813,2.928-0.813,4.693c0,2.458,0.611,4.073,1.378,5.14C5.125,19.248,5.906,19,6.75,19
			c1.95,0,3.599,1.254,4.222,2.993l0.557,0.002C12.15,20.256,13.799,19,15.75,19c0.784,0,1.512,0.22,2.154,0.574
			c0.711-1.053,1.338-2.657,1.338-5.061c0-1.725-0.287-3.262-0.775-4.599C20.356,8.811,21.5,5.391,21.5,3.188z M11.25,12
			c1.768,0,3.117,1.757,3.431,3H7.819C8.133,13.757,9.482,12,11.25,12z M4.287,8.88c-1.256-0.872-2.11-3.351-2.263-5.148
			c2.925,0.294,4.273,1.257,4.717,1.956C5.772,6.488,4.924,7.563,4.287,8.88z M6.25,10c0-1.102,0.898-2,2-2s2,0.898,2,2
			s-0.898,2-2,2S6.25,11.102,6.25,10z M11.25,18.5c-1.512,0-2.659-1.353-2.935-2.5h5.869C13.909,17.147,12.762,18.5,11.25,18.5z
			 M14.25,12c-1.102,0-2-0.898-2-2s0.898-2,2-2s2,0.898,2,2S15.352,12,14.25,12z M15.709,5.81c0.418-0.702,1.774-1.767,4.766-2.076
			c-0.165,1.841-1.108,4.378-2.404,5.234C17.459,7.674,16.644,6.615,15.709,5.81z"/>
	</g>
</g>
<g id="invisible_shape">
	<rect fill="none" width="24" height="24"/>
</g>
</svg>
