<?xml version="1.0" encoding="utf-8"?>
<!-- Generator: Adobe Illustrator 19.2.0, SVG Export Plug-In . SVG Version: 6.00 Build 0)  -->
<svg version="1.1" xmlns="http://www.w3.org/2000/svg" xmlns:xlink="http://www.w3.org/1999/xlink" x="0px" y="0px" width="24px"
	 height="24px" viewBox="0 0 24 24" enable-background="new 0 0 24 24" xml:space="preserve">
<g id="Filled_Icons">
	<g>
		<polygon points="18,15.5 18,15 17.999,15.002 		"/>
		<polygon points="15,17 15,16.5 14.999,16.501 		"/>
		<path d="M18.5,0h-13C4.121,0,3,1.121,3,2.5v19C3,22.878,4.121,24,5.5,24h10c1.237,0,2.893-0.685,3.767-1.56l0.173-0.172
			C20.315,21.393,21,19.738,21,18.5v-16C21,1.121,19.878,0,18.5,0z M8,18.5C8,18.776,7.776,19,7.5,19S7,18.776,7,18.5V17H5.5
			C5.224,17,5,16.776,5,16.5C5,16.225,5.224,16,5.5,16H7v-1.5C7,14.225,7.224,14,7.5,14S8,14.225,8,14.5V16h1.5
			c0.276,0,0.5,0.225,0.5,0.5c0,0.276-0.224,0.5-0.5,0.5H8V18.5z M10.724,20.947l-1,0.5C9.651,21.483,9.575,21.5,9.5,21.5
			c-0.184,0-0.359-0.101-0.447-0.275c-0.124-0.248-0.023-0.548,0.224-0.672l1-0.5c0.246-0.124,0.547-0.023,0.671,0.224
			C11.07,20.523,10.971,20.823,10.724,20.947z M13.724,20.947l-1,0.5C12.651,21.483,12.575,21.5,12.5,21.5
			c-0.184,0-0.359-0.101-0.447-0.275c-0.124-0.248-0.023-0.548,0.224-0.672l1-0.5c0.247-0.124,0.547-0.023,0.671,0.224
			C14.07,20.523,13.971,20.823,13.724,20.947z M15,17.5c-0.552,0-1-0.447-1-1c0-0.552,0.448-1,1-1c0.551,0,1,0.448,1,1
			C16,17.053,15.551,17.5,15,17.5z M7.5,12C6.673,12,6,11.327,6,10.5v-6C6,3.673,6.673,3,7.5,3h9C17.327,3,18,3.673,18,4.5v6
			c0,0.827-0.673,1.5-1.5,1.5H7.5z M18,16c-0.552,0-1-0.447-1-1c0-0.552,0.448-1,1-1c0.551,0,1,0.448,1,1C19,15.553,18.551,16,18,16
			z"/>
	</g>
</g>
<g id="invisible_shape">
	<rect fill="none" width="24" height="24"/>
</g>
</svg>
