<?xml version="1.0" encoding="utf-8"?>
<!-- Generator: Adobe Illustrator 19.2.0, SVG Export Plug-In . SVG Version: 6.00 Build 0)  -->
<svg version="1.1" xmlns="http://www.w3.org/2000/svg" xmlns:xlink="http://www.w3.org/1999/xlink" x="0px" y="0px" width="24px"
	 height="24px" viewBox="0 0 24 24" enable-background="new 0 0 24 24" xml:space="preserve">
<g id="Filled_Icons">
	<path d="M21.5,5h-3.44c-0.505,0-0.974-0.251-1.252-0.672L16.01,3.12C15.545,2.419,14.766,2,13.925,2h-3.841
		c-0.85,0-1.633,0.426-2.095,1.138L7.22,4.318C6.941,4.745,6.472,5,5.963,5H2.5C1.121,5,0,6.121,0,7.5v11
		c0,2.294,8.392,2.542,12,2.542s12-0.248,12-2.542v-11C24,6.121,22.879,5,21.5,5z M4.484,17H2.516c-0.276,0-0.5-0.224-0.5-0.5
		s0.224-0.5,0.5-0.5h1.969c0.276,0,0.5,0.224,0.5,0.5S4.761,17,4.484,17z M5.5,12H4v1.484c0,0.276-0.224,0.5-0.5,0.5
		S3,13.761,3,13.484V12H1.5C1.224,12,1,11.776,1,11.5S1.224,11,1.5,11H3V9.5C3,9.224,3.224,9,3.5,9S4,9.224,4,9.5V11h1.5
		C5.776,11,6,11.224,6,11.5S5.776,12,5.5,12z M17,16.5c0,0.276-0.224,0.5-0.5,0.5h-9C7.224,17,7,16.776,7,16.5v-8
		C7,8.224,7.224,8,7.5,8h9C16.776,8,17,8.224,17,8.5V16.5z M21.729,15.416l-1.469,1.469c-0.098,0.098-0.226,0.146-0.354,0.146
		c-0.128,0-0.256-0.049-0.354-0.146c-0.195-0.195-0.195-0.512,0-0.707l1.469-1.469c0.195-0.195,0.512-0.195,0.707,0
		C21.924,14.904,21.924,15.221,21.729,15.416z M21.729,12.416l-1.469,1.469c-0.098,0.098-0.226,0.146-0.354,0.146
		c-0.128,0-0.256-0.049-0.354-0.146c-0.195-0.195-0.195-0.512,0-0.707l1.469-1.469c0.195-0.195,0.512-0.195,0.707,0
		C21.924,11.904,21.924,12.221,21.729,12.416z M21.729,9.416l-1.469,1.469c-0.098,0.098-0.226,0.146-0.354,0.146
		c-0.128,0-0.256-0.049-0.354-0.146c-0.195-0.195-0.195-0.512,0-0.707l1.469-1.469c0.195-0.195,0.512-0.195,0.707,0
		C21.924,8.904,21.924,9.221,21.729,9.416z"/>
</g>
<g id="invisible_shape">
	<rect fill="none" width="24" height="24"/>
</g>
</svg>
