<?xml version="1.0" encoding="utf-8"?>
<!-- Generator: Adobe Illustrator 19.2.0, SVG Export Plug-In . SVG Version: 6.00 Build 0)  -->
<svg version="1.1" xmlns="http://www.w3.org/2000/svg" xmlns:xlink="http://www.w3.org/1999/xlink" x="0px" y="0px" width="24px"
	 height="24px" viewBox="0 0 24 24" enable-background="new 0 0 24 24" xml:space="preserve">
<g id="Filled_Icons">
	<path d="M19.5,16H19v-0.5c0-0.827-0.673-1.5-1.5-1.5h-2c-0.827,0-1.5,0.673-1.5,1.5V16h-4V7.96c1.693-0.243,3-1.7,3-3.46
		C13,2.57,11.43,1,9.5,1S6,2.57,6,4.5c0,1.76,1.307,3.217,3,3.46V16H4.5C4.224,16,4,16.225,4,16.5v6C4,22.776,4.224,23,4.5,23h15
		c0.276,0,0.5-0.224,0.5-0.5v-6C20,16.225,19.776,16,19.5,16z M17.5,19h-11C6.224,19,6,18.776,6,18.5C6,18.225,6.224,18,6.5,18h11
		c0.276,0,0.5,0.225,0.5,0.5C18,18.776,17.776,19,17.5,19z"/>
</g>
<g id="invisible_shape">
	<rect fill="none" width="24" height="24"/>
</g>
</svg>
