<?xml version="1.0" encoding="utf-8"?>
<!-- Generator: Adobe Illustrator 19.2.0, SVG Export Plug-In . SVG Version: 6.00 Build 0)  -->
<svg version="1.1" xmlns="http://www.w3.org/2000/svg" xmlns:xlink="http://www.w3.org/1999/xlink" x="0px" y="0px" width="24px"
	 height="24px" viewBox="0 0 24 24" enable-background="new 0 0 24 24" xml:space="preserve">
<g id="Filled_Icons">
	<path d="M20.016,12.406L20.5,9.641L23.5,9l-3.289-2.093c-0.303-0.214-0.274-0.671,0.051-0.848L23.5,4l-3-0.5l-0.5-3l-2.063,3.244
		c-0.198,0.351-0.705,0.338-0.885-0.021L15,0.5l-0.484,3.016l-2.507,0.402L9.5,3.5L9,0.5L6.937,3.744
		C6.738,4.095,6.231,4.082,6.052,3.723L4,0.5L3.516,3.516L0.5,4l3.238,2.06c0.325,0.177,0.354,0.634,0.051,0.848L0.5,9l2.984,0.469
		l0.531,2.938l2.036-3.127c0.182,0.782,1.034,4.698,1.339,10.273L5.5,18.5c-0.434-0.239-0.932-0.246-1.352-0.06L2.18,20.116
		l1.851,1.027c0.433,0.239,0.932,0.246,1.352,0.059l2.021-1.383C7.463,20.982,7.5,22.209,7.5,23.5C7.5,23.775,7.724,24,8,24
		c0.276,0,0.5-0.225,0.5-0.5c0-2.979-0.186-5.666-0.428-7.898l1.694,1.159c0.42,0.187,0.919,0.18,1.352-0.059l1.851-1.029L11,14
		c-0.42-0.188-0.918-0.181-1.352,0.059l-1.647,0.916c-0.298-2.539-0.654-4.425-0.857-5.381l1.871,2.813L9.5,9.641l2.576-0.55
		l2.408,0.378l0.531,2.938l1.844-2.831c-0.31,1.464-0.995,5.149-1.256,10.07l-1.718-0.955c-0.434-0.241-0.932-0.246-1.352-0.059
		l-1.969,1.673l1.851,1.029c0.433,0.24,0.932,0.247,1.352,0.06l1.811-1.24C15.53,21.22,15.5,22.334,15.5,23.5
		c0,0.275,0.224,0.5,0.5,0.5s0.5-0.225,0.5-0.5c0-2.78,0.164-5.294,0.382-7.417l1.916,1.311c0.42,0.188,0.919,0.181,1.352-0.06
		L22,16.305l-1.969-1.673c-0.42-0.188-0.918-0.183-1.351,0.059l-1.753,0.975c0.374-3.436,0.878-5.765,1.018-6.371L20.016,12.406z
		 M7.853,7.147c0.195,0.195,0.195,0.512,0,0.707c-0.195,0.195-0.512,0.195-0.707,0L6.5,7.207L5.853,7.853
		c-0.195,0.195-0.512,0.195-0.707,0c-0.195-0.195-0.195-0.512,0-0.707L5.793,6.5L5.147,5.853c-0.195-0.195-0.195-0.512,0-0.707
		s0.512-0.195,0.707,0L6.5,5.793l0.647-0.647c0.195-0.195,0.512-0.195,0.707,0c0.195,0.195,0.195,0.512,0,0.707L7.207,6.5
		L7.853,7.147z M14.789,6.907L12,8.682L9.211,6.907C8.908,6.693,8.936,6.236,9.262,6.06L12,4.318l2.738,1.741
		C15.064,6.236,15.092,6.693,14.789,6.907z M16.854,7.853c-0.195,0.195-0.512,0.195-0.707,0c-0.195-0.195-0.195-0.512,0-0.707
		L16.793,6.5l-0.646-0.647c-0.195-0.195-0.195-0.512,0-0.707c0.195-0.195,0.512-0.195,0.707,0L17.5,5.793l0.646-0.647
		c0.195-0.195,0.512-0.195,0.707,0c0.195,0.195,0.195,0.512,0,0.707L18.207,6.5l0.646,0.647c0.195,0.195,0.195,0.512,0,0.707
		c-0.195,0.195-0.512,0.195-0.707,0L17.5,7.207L16.854,7.853z"/>
</g>
<g id="invisible_shape">
	<rect fill="none" width="24" height="24"/>
</g>
</svg>
