<?xml version="1.0" encoding="utf-8"?>
<!-- Generator: Adobe Illustrator 19.2.0, SVG Export Plug-In . SVG Version: 6.00 Build 0)  -->
<svg version="1.1" xmlns="http://www.w3.org/2000/svg" xmlns:xlink="http://www.w3.org/1999/xlink" x="0px" y="0px" width="24px"
	 height="24px" viewBox="0 0 24 24" enable-background="new 0 0 24 24" xml:space="preserve">
<g id="Filled_Icons">
	<path d="M4.5,3H14V0H4v2.5C4,2.775,4.225,3,4.5,3z"/>
	<path d="M14,4H4.5C3.673,4,3,3.326,3,2.5V0H0v6h14V4z"/>
	<rect x="19" width="4" height="6"/>
	<path d="M15,11.5h0.5c0,1.379-1.121,2.5-2.5,2.5h-3c-0.982,0-2,0.748-2,2v2H1v6h15v-6H9v-2c0-0.734,0.598-1,1-1h3
		c1.93,0,3.5-1.57,3.5-3.5H18V0h-3V11.5z M5.5,21H5v0.5C5,21.775,4.776,22,4.5,22S4,21.775,4,21.5V21H3.5C3.224,21,3,20.775,3,20.5
		C3,20.223,3.224,20,3.5,20H4v-0.5C4,19.223,4.224,19,4.5,19S5,19.223,5,19.5V20h0.5C5.776,20,6,20.223,6,20.5
		C6,20.775,5.776,21,5.5,21z M13.5,19.5c0.553,0,1,0.447,1,1c0,0.551-0.447,1-1,1s-1-0.449-1-1C12.5,19.947,12.947,19.5,13.5,19.5z
		 M10.5,20.5c0,0.551-0.447,1-1,1s-1-0.449-1-1c0-0.553,0.447-1,1-1S10.5,19.947,10.5,20.5z"/>
	<path d="M2.75,11H14V7H0.256l1.786,3.498C2.145,10.791,2.424,11,2.75,11z M7.5,9H9c0.276,0,0.5,0.223,0.5,0.5
		C9.5,9.775,9.276,10,9,10H7.5C7.224,10,7,9.775,7,9.5C7,9.223,7.224,9,7.5,9z M4,9h1.5C5.776,9,6,9.223,6,9.5
		C6,9.775,5.776,10,5.5,10H4c-0.276,0-0.5-0.225-0.5-0.5C3.5,9.223,3.724,9,4,9z"/>
	<path d="M19,10.996h1.25c0.325,0,0.603-0.209,0.706-0.498l1.788-3.473L19,7V10.996z"/>
</g>
<g id="invisible_shape">
	<rect fill="none" width="24" height="24"/>
</g>
</svg>
