<?xml version="1.0" encoding="utf-8"?>
<!-- Generator: Adobe Illustrator 19.2.0, SVG Export Plug-In . SVG Version: 6.00 Build 0)  -->
<svg version="1.1" xmlns="http://www.w3.org/2000/svg" xmlns:xlink="http://www.w3.org/1999/xlink" x="0px" y="0px" width="24px"
	 height="24px" viewBox="0 0 24 24" enable-background="new 0 0 24 24" xml:space="preserve">
<g id="Filled_Icons">
	<g>
		<path d="M17.25,11C15.458,11,14,9.541,14,7.75c0-0.947,0.378-1.871,1-2.475c0-0.112,0.038-2.92,0-3.025
			c-1.381,0.506-2.5,1.701-2.5,3.25h-1.25c-2.623,0-4.75,2.125-4.75,4.75c0,0.432,0.058,0.852,0.166,1.25C4.393,11.5,3,13.188,3,15
			c0,0.951,0.38,1.813,0.996,2.443l-3.217,3.517C0.122,21.774,0.695,23,1.75,23h3.5c0.614,0,0.967-0.7,0.603-1.195L5,21
			c3.915-2.61,4.1-2.735,4.508-3C10.475,18,11,18.783,11,19.75V23h4.25c0.793,0,1.036-1.077,0.333-1.422l-0.756-0.709
			c-0.348-0.237-0.425-0.707-0.199-1.039l0.968-1.281l-4.116-3.865c-0.201-0.19-0.211-0.506-0.021-0.707
			c0.19-0.203,0.506-0.211,0.707-0.021l4.988,4.684c1.518,1.366,2.347,1.827,2.347,3.111c0,0.463-0.141,0.893-0.38,1.25h2.38
			c1.104,0,2-0.896,2-2c0-1.063-4.705-10-4.705-10H17.25z"/>
		<path d="M20,9c-0.276,0-0.5-0.225-0.5-0.5C19.5,8.223,19.724,8,20,8h2.949C22.982,7.838,23,7.67,23,7.5C23,6.121,21.879,5,20.5,5
			l-0.708,0.004c-0.001,0-0.002,0-0.003,0c-0.212,0-0.401-0.135-0.472-0.334C18.833,3.293,17.457,2.422,16,2.508V5.5
			c0,0.15-0.068,0.293-0.186,0.389C15.319,6.287,15,7.018,15,7.75C15,8.99,16.01,10,17.25,10h3.25c0.813,0,1.531-0.396,1.987-1H20z
			 M18,6c0,0.275-0.224,0.5-0.5,0.5S17,6.275,17,6V5c0-0.277,0.224-0.5,0.5-0.5S18,4.723,18,5V6z"/>
	</g>
</g>
<g id="invisible_shape">
	<rect fill="none" width="24" height="24"/>
</g>
</svg>
