<?xml version="1.0" encoding="utf-8"?>
<!-- Generator: Adobe Illustrator 19.2.0, SVG Export Plug-In . SVG Version: 6.00 Build 0)  -->
<svg version="1.1" xmlns="http://www.w3.org/2000/svg" xmlns:xlink="http://www.w3.org/1999/xlink" x="0px" y="0px" width="24px"
	 height="24px" viewBox="0 0 24 24" enable-background="new 0 0 24 24" xml:space="preserve">
<g id="Filled_Icons">
	<g>
		<path d="M4.25,9C3.008,9,2,7.992,2,6.75c0-1.123,0.823-2.055,1.899-2.225L4,4.5C4,2.566,5.567,1,7.5,1
			c1.547,0,2.833,0.928,3.295,2.32c0,0,0.633-1.32,2.205-1.32c1.569,0,2.205,1.32,2.205,1.32C15.655,1.908,16.938,1,18.5,1
			C20.433,1,22,2.566,22,4.5l0.065,0.022C23.158,4.674,24,5.613,24,6.75C24,7.992,22.992,9,21.75,9l-0.051-0.004
			C21.892,9.373,22,9.799,22,10.25c0,1.518-1.231,2.75-2.75,2.75c-0.85,0-1.746-0.394-2.25-1H9c-0.504,0.586-1.416,1-2.25,1
			C5.231,13,4,11.768,4,10.25c0-0.41,0.09-0.797,0.25-1.146"/>
		<path d="M10,17H7c-0.276,0-0.5,0.223-0.5,0.5C6.5,17.775,6.724,18,7,18h3v6h7V13h-7V17z M13,14.5c0-0.277,0.224-0.5,0.5-0.5
			s0.5,0.223,0.5,0.5v1c0,0.275-0.224,0.5-0.5,0.5S13,15.775,13,15.5V14.5z M15,20.75c0,0.69-0.672,1.25-1.5,1.25S12,21.44,12,20.75
			c0-0.691,0.672-1.25,1.5-1.25S15,20.059,15,20.75z M11,14.5c0-0.277,0.224-0.5,0.5-0.5s0.5,0.223,0.5,0.5v1
			c0,0.275-0.224,0.5-0.5,0.5S11,15.775,11,15.5V14.5z"/>
	</g>
</g>
<g id="invisible_shape">
	<rect fill="none" width="24" height="24"/>
</g>
</svg>
