<?xml version="1.0" encoding="utf-8"?>
<!-- Generator: Adobe Illustrator 19.2.0, SVG Export Plug-In . SVG Version: 6.00 Build 0)  -->
<svg version="1.1" xmlns="http://www.w3.org/2000/svg" xmlns:xlink="http://www.w3.org/1999/xlink" x="0px" y="0px" width="24px"
	 height="24px" viewBox="0 0 24 24" enable-background="new 0 0 24 24" xml:space="preserve">
<g id="Filled_Icons">
	<g>
		<g>
			<path d="M16,12c-0.436,0-0.852,0.139-1.199,0.4L11.975,15h7.135l0.75-3H16z"/>
			<path d="M1,22.476V24h5.938l-0.435-4.198C6.5,18.233,7.733,17,9.25,17S12,18.233,12,19.75c0,0.628-0.217,1.241-0.611,1.728
				L8.742,24H18c0.512,0,0.692-0.685,0.243-0.937l-2.702-1.921l-2.902,0.838c-0.264,0.079-0.542-0.077-0.619-0.342
				c-0.076-0.266,0.076-0.542,0.342-0.619l3.134-0.905c0.007-0.002,0.013-0.004,0.019-0.005l3.64-1.051
				c0.808-0.888,1.433-1.933,1.832-3.057L10.5,16h-0.001c0,0,0,0-0.001,0h-0.001c-0.779-0.006-2.078-2.134-1.115-3.342l3.251-3.499
				C13.164,8.448,14.061,8,15,8h4.977c-0.858-1.362-1.842-2.341-3.063-2.982l-7.34,1.061C6.929,6.521,5,8.801,5,11.5l0.498,6.21
				C5.5,20.162,3.486,22.228,1,22.476z"/>
			<path d="M11,19.75C11,18.785,10.215,18,9.25,18S7.5,18.785,7.5,19.75l0.384,3.688l2.772-2.637C10.862,20.539,11,20.149,11,19.75z
				"/>
			<path d="M4.359,18.646C4.442,18.355,4.5,18.058,4.5,17.75l-0.498-6.21C4,8.311,6.279,5.614,9.421,5.09l7.313-1.057L17.833,1.5
				L11,2c-4.971,0-9,4.029-9,9c0,1.052,0.18,2.061,0.512,2.999L4.359,18.646z"/>
			<path d="M22,9h-7c-0.635,0-1.219,0.292-1.602,0.801l-3.26,3.511c-0.52,0.66,0.412,1.603,1.102,1.006l2.922-2.685
				C14.723,11.208,15.345,11,16,11h6c0.552,0,1-0.448,1-1S22.552,9,22,9z"/>
		</g>
	</g>
</g>
<g id="invisible_shape">
	<rect fill="none" width="24" height="24"/>
</g>
</svg>
