<?xml version="1.0" encoding="utf-8"?>
<!-- Generator: Adobe Illustrator 19.2.0, SVG Export Plug-In . SVG Version: 6.00 Build 0)  -->
<svg version="1.1" xmlns="http://www.w3.org/2000/svg" xmlns:xlink="http://www.w3.org/1999/xlink" x="0px" y="0px" width="24px"
	 height="24px" viewBox="0 0 24 24" enable-background="new 0 0 24 24" xml:space="preserve">
<g id="Filled_Icons">
	<g>
		<path d="M7.144,10.584l0.575-0.006C9.07,8.981,11.073,8,13.25,8c2.106,0,4.056,0.894,5.434,2.461l0.468-0.004l0.365-0.17
			C18.506,7.715,16.04,6,13.25,6c-2.856,0-5.343,1.768-6.317,4.42L7.144,10.584z"/>
		<path d="M19.61,8.391L23.5,1c-4.327,0-8.286,1.539-11.391,4.084C12.482,5.029,12.863,5,13.25,5C15.854,5,18.196,6.316,19.61,8.391
			z"/>
		<path d="M16.222,21.855l0.991,1.594C17.438,23.781,17.818,24,18.25,24c0.69,0,1.25-0.56,1.25-1.25l-0.481-3.127
			C18.29,20.582,17.332,21.354,16.222,21.855z"/>
		<path d="M8.615,17.803C8.285,17.33,7.665,17,7,17c-1.103,0-2,0.896-2,2c0,0.52,0.199,1.014,0.561,1.387
			C8.258,22.999,8.47,23.5,9.25,23.5c0.689,0,1.25-0.56,1.25-1.25C10.5,21.934,8.743,18.093,8.615,17.803z"/>
		<path d="M16.546,12.209c-0.115-0.25-0.006-0.547,0.245-0.664l1.084-0.5C16.691,9.738,15.033,9,13.25,9
			c-2.664,0-5.039,1.691-5.909,4.209c-0.088,0.252-0.357,0.389-0.613,0.316c-0.256-0.074-0.408-0.338-0.345-0.598
			c0.092-0.381,0.326-0.922,0.493-1.283l-2.31-1.809C4.633,9.665,4.75,9.371,4.896,9H6.5C6.776,9,7,8.775,7,8.5
			C7,8.223,6.776,8,6.5,8H5.284C5.845,6.547,6.5,4.786,6.5,4.5C6.5,4,5,2,4.5,2s-2,2-2,2.5c0,0.286,0.655,2.047,1.216,3.5H2.5
			C2.224,8,2,8.223,2,8.5C2,8.775,2.224,9,2.5,9h1.604c0.17,0.433,0.302,0.764,0.359,0.91C3.852,10.63,3.5,11.544,3.5,12.5
			c0,1.623,0.992,3.076,2.481,3.69c1.386-0.5,2.777,0.056,3.507,1.133c0.135,0.305,1.554,3.638,1.778,3.855
			c0.638,0.213,1.305,0.322,1.984,0.322c3.446,0,6.25-2.805,6.25-6.25c0-0.25-0.015-0.496-0.043-0.736
			c-0.016-0.141,0.027-0.281,0.12-0.387c0.077-0.088,0.181-0.146,0.295-0.164c1.657-0.795,2.8-2.367,3.067-4.154l-5.73,2.644
			C16.957,12.568,16.662,12.459,16.546,12.209z M13,12c0-0.277,0.224-0.5,0.5-0.5S14,11.723,14,12v1c0,0.275-0.224,0.5-0.5,0.5
			S13,13.275,13,13V12z M10.5,13.5c-0.276,0-0.5-0.225-0.5-0.5v-1c0-0.277,0.224-0.5,0.5-0.5S11,11.723,11,12v1
			C11,13.275,10.776,13.5,10.5,13.5z M12.5,18c-0.276,0-0.5-0.225-0.5-0.5c0-0.277,0.224-0.5,0.5-0.5c0.931,0,1.715-0.639,1.936-1.5
			H11.5c-0.276,0-0.5-0.225-0.5-0.5c0-0.277,0.224-0.5,0.5-0.5H15c0.276,0,0.5,0.223,0.5,0.5C15.5,16.654,14.154,18,12.5,18z"/>
	</g>
</g>
<g id="invisible_shape">
	<rect fill="none" width="24" height="24"/>
</g>
</svg>
