<?xml version="1.0" encoding="utf-8"?>
<!-- Generator: Adobe Illustrator 19.2.0, SVG Export Plug-In . SVG Version: 6.00 Build 0)  -->
<svg version="1.1" xmlns="http://www.w3.org/2000/svg" xmlns:xlink="http://www.w3.org/1999/xlink" x="0px" y="0px" width="24px"
	 height="24px" viewBox="0 0 24 24" enable-background="new 0 0 24 24" xml:space="preserve">
<g id="Filled_Icons">
	<g>
		<g>
			<path d="M17.766,20.536c-0.088-0.33-0.19-0.592-0.266-1.036L16.563,12H7.434L6.5,19.5c-0.06,0.419-0.147,0.673-0.234,1
				c-0.454,1.709-1.912,3-3.766,3V24h19v-0.5C19.649,23.5,18.223,22.242,17.766,20.536z M10,14c0-0.276,0.224-0.5,0.5-0.5
				S11,13.724,11,14v1c0,0.275-0.224,0.5-0.5,0.5S10,15.275,10,15V14z M12,20.5c-1.102,0-2-0.897-2-2c0-0.276,0.224-0.5,0.5-0.5
				s0.5,0.224,0.5,0.5c0,0.552,0.448,1,1,1s1-0.448,1-1c0-0.276,0.224-0.5,0.5-0.5s0.5,0.224,0.5,0.5C14,19.603,13.102,20.5,12,20.5
				z M14,15c0,0.275-0.224,0.5-0.5,0.5S13,15.275,13,15v-1c0-0.276,0.224-0.5,0.5-0.5S14,13.724,14,14V15z"/>
		</g>
		<g>
			<path d="M16.75,6c1.34,0,2.479-0.957,2.709-2.275c0.011-0.061,0.035-0.114,0.063-0.165l-4.401-2.576
				c-0.029,0.05-0.065,0.097-0.111,0.136C14.368,1.645,14,2.421,14,3.25C14,4.767,15.233,6,16.75,6z"/>
			<path d="M22.983,9.496C22.527,8.894,21.812,8.5,21,8.5c-1.379,0-2.5,1.121-2.5,2.5h1.75C21.401,11,22.406,10.398,22.983,9.496z"
				/>
			<path d="M4.541,3.725C4.771,5.043,5.91,6,7.25,6C8.767,6,10,4.767,10,3.25c0-0.829-0.368-1.605-1.01-2.131
				C8.943,1.081,8.908,1.033,8.879,0.984L4.477,3.56C4.506,3.61,4.53,3.664,4.541,3.725z"/>
			<path d="M3,8.5c-0.812,0-1.527,0.394-1.983,0.996C1.594,10.398,2.6,11,3.75,11H5.5C5.5,9.621,4.379,8.5,3,8.5z"/>
			<path d="M21,7.5c0.937,0,1.783,0.375,2.412,0.976C23.466,8.242,23.5,8,23.5,7.75c0-1.15-0.598-2.162-1.5-2.74l-1.604-0.938
				C20.015,5.775,18.516,7,16.75,7C14.683,7,13,5.317,13,3.25c0-1.067,0.46-2.06,1.245-2.77C13.56,0.172,12.8,0,12,0
				s-1.559,0.172-2.245,0.481C10.541,1.19,11,2.184,11,3.25C11,5.317,9.317,7,7.25,7C5.484,7,3.985,5.776,3.603,4.071L2,5.01
				C1.098,5.588,0.5,6.6,0.5,7.75C0.5,8,0.534,8.242,0.588,8.476C1.217,7.875,2.063,7.5,3,7.5c1.93,0,3.5,1.57,3.5,3.5h11
				C17.5,9.07,19.07,7.5,21,7.5z"/>
		</g>
	</g>
</g>
<g id="invisible_shape">
	<rect fill="none" width="24" height="24"/>
</g>
</svg>
