<?xml version="1.0" encoding="utf-8"?>
<!-- Generator: Adobe Illustrator 19.2.0, SVG Export Plug-In . SVG Version: 6.00 Build 0)  -->
<svg version="1.1" xmlns="http://www.w3.org/2000/svg" xmlns:xlink="http://www.w3.org/1999/xlink" x="0px" y="0px" width="24px"
	 height="24px" viewBox="0 0 24 24" enable-background="new 0 0 24 24" xml:space="preserve">
<g id="Filled_Icons">
	<g>
		<path d="M9.909,6h5.183c0.143-0.353,0.309-0.674,0.498-1H9.41C9.6,5.326,9.767,5.647,9.909,6z"/>
		<polygon points="13.656,12.863 12.5,11.707 11.344,12.863 12.5,13.439 		"/>
		<path d="M10.231,7c0.084,0.326,0.146,0.658,0.189,1h4.161c0.042-0.342,0.104-0.674,0.188-1H10.231z"/>
		<path d="M8.731,4h7.544C17.303,3.391,18,2.281,18,1H7C7,2.283,7.699,3.391,8.731,4z"/>
		<path d="M21.36,20.379l-1.788-6.883C18.838,11.418,17.204,9.777,15.148,9H9.854c-2.058,0.779-3.691,2.42-4.427,4.5L3.64,20.379
			C3.049,22.159,4.375,24,6.25,24h12.5C20.626,24,21.951,22.158,21.36,20.379z M15,19c0,0.133-0.053,0.26-0.146,0.354l-2,2
			c-0.195,0.195-0.512,0.195-0.707,0l-2-2C10.053,19.26,10,19.133,10,19c0-0.023,0-6,0-6c0.012-0.352,1.896-2.104,2.146-2.354
			c0.195-0.195,0.512-0.195,0.707,0C13.119,10.912,15,12.633,15,13V19z"/>
		<polygon points="12,14.309 11,13.809 11,17.69 12,17.19 		"/>
		<polygon points="13,17.19 14,17.69 14,13.809 13,14.309 		"/>
		<polygon points="11.011,18.803 12.5,20.293 13.989,18.803 12.5,18.059 		"/>
	</g>
</g>
<g id="invisible_shape">
	<rect fill="none" width="24" height="24"/>
</g>
</svg>
