<?xml version="1.0" encoding="utf-8"?>
<!-- Generator: Adobe Illustrator 19.2.0, SVG Export Plug-In . SVG Version: 6.00 Build 0)  -->
<svg version="1.1" xmlns="http://www.w3.org/2000/svg" xmlns:xlink="http://www.w3.org/1999/xlink" x="0px" y="0px" width="24px"
	 height="24px" viewBox="0 0 24 24" enable-background="new 0 0 24 24" xml:space="preserve">
<g id="Filled_Icons">
	<path d="M18.5,12H17v-1.5C17,7.463,14.537,5,11.5,5S6,7.463,6,10.5V12H4.5C2.015,12,0,14.015,0,16.5S2.015,21,4.5,21h0.603
		c0.326,1.154,1.388,2,2.647,2h6c1.259,0,2.32-0.846,2.646-2H18.5c2.485,0,4.5-2.015,4.5-4.5S20.985,12,18.5,12z M13,10
		c0-0.276,0.224-0.5,0.5-0.5S14,9.724,14,10v2c0,0.276-0.224,0.5-0.5,0.5S13,12.276,13,12V10z M9,10c0-0.276,0.224-0.5,0.5-0.5
		S10,9.724,10,10v2c0,0.276-0.224,0.5-0.5,0.5S9,12.276,9,12V10z M15.479,17.223C14.629,18.935,12.912,20,11,20
		s-3.629-1.065-4.481-2.777c-0.123-0.248-0.021-0.547,0.226-0.67c0.248-0.123,0.548-0.023,0.671,0.225C8.097,18.148,9.47,19,11,19
		s2.903-0.852,3.585-2.223c0.123-0.248,0.42-0.348,0.67-0.225C15.502,16.676,15.604,16.975,15.479,17.223z"/>
</g>
<g id="invisible_shape">
	<rect fill="none" width="24" height="24"/>
</g>
</svg>
