<?xml version="1.0" encoding="utf-8"?>
<!-- Generator: Adobe Illustrator 19.2.0, SVG Export Plug-In . SVG Version: 6.00 Build 0)  -->
<svg version="1.1" xmlns="http://www.w3.org/2000/svg" xmlns:xlink="http://www.w3.org/1999/xlink" x="0px" y="0px" width="24px"
	 height="24px" viewBox="0 0 24 24" enable-background="new 0 0 24 24" xml:space="preserve">
<g id="Filled_Icons">
	<g>
		<path d="M8.854,8.146c-0.195-0.195-0.512-0.195-0.707,0L7.5,8.793L6.853,8.146c-0.195-0.195-0.512-0.195-0.707,0
			c-0.195,0.195-0.195,0.512,0,0.706L6.793,9.5l-0.647,0.646c-0.195,0.195-0.195,0.512,0,0.706c0.194,0.197,0.513,0.197,0.707,0
			L7.5,10.207l0.646,0.646c0.194,0.197,0.513,0.197,0.707,0c0.195-0.194,0.195-0.511,0-0.706L8.207,9.5l0.647-0.648
			C9.049,8.658,9.049,8.342,8.854,8.146z"/>
		<path d="M3.853,13.146c-0.195-0.195-0.512-0.195-0.707,0L2.5,13.793l-0.646-0.647c-0.195-0.195-0.512-0.195-0.707,0
			s-0.195,0.512,0,0.707L1.793,14.5l-0.646,0.646c-0.195,0.195-0.195,0.512,0,0.707c0.195,0.195,0.512,0.195,0.707,0L2.5,15.207
			l0.647,0.647c0.195,0.195,0.512,0.195,0.707,0c0.195-0.195,0.195-0.512,0-0.707L3.207,14.5l0.646-0.646
			C4.049,13.658,4.049,13.342,3.853,13.146z"/>
		<path d="M22,13h-3.009c0-0.164-0.887-3.205-0.932-3.363C19.783,8.924,21,7.227,21,5.25c0-2.619-2.131-4.75-4.75-4.75
			c-2.264,0-4.156,1.678-4.63,3.912l-0.767-0.766c-0.195-0.195-0.512-0.195-0.707,0c-0.195,0.195-0.195,0.512,0,0.706l1.499,1.5
			C11.742,5.947,11.871,6,12,6h2.624L12.69,7.619C12.58,7.711,12.5,7.894,12.5,8v1.996c-0.002,0.277,0.221,0.502,0.497,0.504H13
			c0.274,0,0.498-0.223,0.5-0.498l0.005-0.881c1.012,0.715,2.263,1.037,3.594,0.793L17.98,13H15c-0.553,0-1,0.448-1,1
			c0,0.551,0.447,1,1,1h7c0.553,0,1-0.449,1-1C23,13.448,22.553,13,22,13z"/>
		<polygon points="15.389,16 14.5,24 22.5,24 21.611,16 		"/>
	</g>
</g>
<g id="invisible_shape">
	<rect fill="none" width="24" height="24"/>
</g>
</svg>
