<?xml version="1.0" encoding="utf-8"?>
<!-- Generator: Adobe Illustrator 19.2.0, SVG Export Plug-In . SVG Version: 6.00 Build 0)  -->
<svg version="1.1" xmlns="http://www.w3.org/2000/svg" xmlns:xlink="http://www.w3.org/1999/xlink" x="0px" y="0px" width="24px"
	 height="24px" viewBox="0 0 24 24" enable-background="new 0 0 24 24" xml:space="preserve">
<g id="Filled_Icons">
	<g>
		<path d="M1.479,21.646C1.191,21.82,1,22.139,1,22.5V24h7v-0.5L5.5,20L1.479,21.646z"/>
		<path d="M22.521,21.646L18.5,20L16,23.5V24h7v-1.5C23,22.139,22.809,21.82,22.521,21.646z"/>
		<g>
			<polygon points="16,11.666 16.5,11 15.5,11 			"/>
			<polygon points="8,11.666 8.5,11 7.5,11 			"/>
			<path d="M19.927,7.124L18.5,6.75c0-0.984-0.272-1.893-0.608-2.75c-0.185-0.477-0.514-0.941-0.911-1.383l-3.151,2.758
				C13.734,5.459,13.617,5.5,13.5,5.5c-0.139,0-0.277-0.059-0.377-0.172c-0.182-0.207-0.16-0.523,0.048-0.704l3.1-2.712
				c-0.252-0.226-0.513-0.441-0.774-0.643C14.548,0.536,13.287,0.25,12,0.25c-1.289,0-2.551,0.289-3.5,1.021
				C8.239,1.473,7.979,1.688,7.728,1.912l3.101,2.712c0.208,0.181,0.23,0.497,0.048,0.704C10.777,5.441,10.64,5.5,10.5,5.5
				c-0.117,0-0.234-0.041-0.329-0.125l-3.15-2.756c-0.398,0.442-0.727,0.91-0.917,1.393C5.769,4.865,5.5,5.772,5.5,6.75L4.026,7.137
				C2.566,7.559,1.5,8.904,1.5,10.5C1.5,12.432,3.066,14,5,14h14c1.934,0,3.5-1.568,3.5-3.5C22.5,8.887,21.41,7.529,19.927,7.124z
				 M15,6.5C15,6.224,15.224,6,15.5,6S16,6.224,16,6.5V8c0,0.275-0.224,0.5-0.5,0.5S15,8.275,15,8V6.5z M8,6.5
				C8,6.224,8.224,6,8.5,6S9,6.224,9,6.5V8c0,0.275-0.224,0.5-0.5,0.5S8,8.275,8,8V6.5z M17.9,10.799l-1.5,2
				C16.306,12.926,16.157,13,16,13s-0.306-0.074-0.4-0.201L14.25,11h-4.5L8.4,12.799c-0.189,0.253-0.611,0.253-0.801,0l-1.5-2
				c-0.113-0.15-0.131-0.354-0.047-0.523C6.138,10.107,6.311,10,6.5,10h2.995c0.003,0,0.007,0,0.011,0h4.988
				c0.004,0,0.008,0,0.011,0H17.5c0.19,0,0.362,0.107,0.447,0.275C18.031,10.445,18.014,10.648,17.9,10.799z"/>
		</g>
		<path d="M15.768,15H8.234C7.133,16.037,6.5,17.484,6.5,19v0.84L8.758,23h6.485l2.257-3.16V19C17.5,17.484,16.868,16.037,15.768,15
			z M15.5,19.998c-0.276,0-0.5-0.223-0.5-0.5c0-0.125-0.046-0.242-0.131-0.336L12,17.57l-2.869,1.592
			C9.047,19.254,9,19.375,9,19.498c0,0.277-0.224,0.5-0.5,0.5S8,19.775,8,19.498c0-0.422,0.18-0.826,0.492-1.109
			c0.028-0.027,0.06-0.049,0.094-0.068l3.172-1.758c0.151-0.084,0.334-0.084,0.485,0l3.172,1.758
			c0.033,0.02,0.066,0.043,0.094,0.068C15.82,18.674,16,19.078,16,19.498C16,19.775,15.776,19.998,15.5,19.998z"/>
	</g>
</g>
<g id="invisible_shape">
	<rect fill="none" width="24" height="24"/>
</g>
</svg>
