<?xml version="1.0" encoding="utf-8"?>
<!-- Generator: Adobe Illustrator 19.2.0, SVG Export Plug-In . SVG Version: 6.00 Build 0)  -->
<svg version="1.1" xmlns="http://www.w3.org/2000/svg" xmlns:xlink="http://www.w3.org/1999/xlink" x="0px" y="0px" width="24px"
	 height="24px" viewBox="0 0 24 24" enable-background="new 0 0 24 24" xml:space="preserve">
<g id="Filled_Icons">
	<g>
		<path d="M12,15.002c-1.169,0-7,0.119-7,2.498v2C5,21.981,7.019,24,9.5,24h5c2.481,0,4.5-2.019,4.5-4.5v-2
			C19,15.121,13.169,15.002,12,15.002z M10,20c0,0.276-0.224,0.5-0.5,0.5S9,20.276,9,20v-2c0-0.276,0.224-0.5,0.5-0.5
			S10,17.724,10,18V20z M15,20c0,0.276-0.224,0.5-0.5,0.5S14,20.276,14,20v-2c0-0.276,0.224-0.5,0.5-0.5S15,17.724,15,18V20z"/>
		<path d="M22.093,6.834c-0.375-0.844-0.94-1.874-1.743-2.877C19.931,5.42,18.596,6.5,17,6.5c-1.93,0-3.5-1.57-3.5-3.5
			c0-1.069,0.492-2.016,1.251-2.659C13.916,0.138,13.007,0.014,12,0.014c-4.576,0-8.166,2.4-10.106,6.759
			c-1.831,4.113-1.798,9.344,0.073,11.422c0.565,0.628,1.27,1.09,2.038,1.399C4.004,19.563,4,19.531,4,19.5v-2
			c0-3.158,5.595-3.498,8-3.498s8,0.34,8,3.498v2c0,0.022-0.003,0.045-0.004,0.067c0.793-0.331,1.521-0.801,2.037-1.373
			C23.89,16.133,23.917,10.93,22.093,6.834z M7.5,13c-2.206,0-4-1.794-4-4s1.794-4,4-4s4,1.794,4,4S9.706,13,7.5,13z M18,13.5
			c-1.379,0-2.5-1.121-2.5-2.5s1.121-2.5,2.5-2.5s2.5,1.121,2.5,2.5S19.379,13.5,18,13.5z"/>
	</g>
</g>
<g id="invisible_shape">
	<rect fill="none" width="24" height="24"/>
</g>
</svg>
