<?xml version="1.0" encoding="utf-8"?>
<!-- Generator: Adobe Illustrator 19.2.0, SVG Export Plug-In . SVG Version: 6.00 Build 0)  -->
<svg version="1.1" xmlns="http://www.w3.org/2000/svg" xmlns:xlink="http://www.w3.org/1999/xlink" x="0px" y="0px" width="24px"
	 height="24px" viewBox="0 0 24 24" enable-background="new 0 0 24 24" xml:space="preserve">
<g id="Filled_Icons">
	<path d="M16,19c-1.455,0-3.017,0.734-4,1.9v-4.426c3.902-0.26,7-3.508,7-7.475V2c0-0.486-0.618-0.676-0.9-0.3l-2.594,3.458
		l-3.602-4.952c-0.188-0.26-0.621-0.26-0.809,0L7.494,5.158L4.9,1.7C4.617,1.323,4,1.515,4,2v6.734c0,3.939,2.857,7.464,7,7.734
		l0.001,4.43C10.017,19.732,8.456,19,7,19c-2.353,0-6.5,3.105-6.5,4.5C0.5,23.776,0.724,24,1,24h21c0.276,0,0.5-0.224,0.5-0.5
		C22.5,22.105,18.354,19,16,19z M14.5,8c1.102,0,2,0.898,2,2c0,0.276-0.224,0.5-0.5,0.5s-0.5-0.224-0.5-0.5c0-0.552-0.448-1-1-1
		s-1,0.448-1,1c0,0.276-0.224,0.5-0.5,0.5s-0.5-0.224-0.5-0.5C12.5,8.898,13.398,8,14.5,8z M10,10.5c-0.276,0-0.5-0.224-0.5-0.5
		c0-0.552-0.448-1-1-1s-1,0.448-1,1c0,0.276-0.224,0.5-0.5,0.5S6.5,10.276,6.5,10c0-1.102,0.898-2,2-2s2,0.898,2,2
		C10.5,10.276,10.276,10.5,10,10.5z"/>
</g>
<g id="invisible_shape">
	<rect fill="none" width="24" height="24"/>
</g>
</svg>
