<?xml version="1.0" encoding="utf-8"?>
<!-- Generator: Adobe Illustrator 19.2.0, SVG Export Plug-In . SVG Version: 6.00 Build 0)  -->
<svg version="1.1" xmlns="http://www.w3.org/2000/svg" xmlns:xlink="http://www.w3.org/1999/xlink" x="0px" y="0px" width="24px"
	 height="24px" viewBox="0 0 24 24" enable-background="new 0 0 24 24" xml:space="preserve">
<g id="Filled_Icons">
	<g>
		<path d="M17.5,7c1.759,0,3.204,1.309,3.449,3C22,9,23,8,23,6c0-3.446-2.804-6-6.25-6h-9.5C3.804,0,1,2.554,1,6c0,2,1,3,2.051,4
			C3.296,8.309,4.741,7,6.5,7H17.5z M8.553,5.276l1.5-3C10.221,1.939,10.681,1.911,10.9,2.2L12,3.667L13.1,2.2
			c0.217-0.288,0.679-0.265,0.848,0.076l1.5,3c0.123,0.247,0.023,0.547-0.224,0.671c-0.246,0.123-0.547,0.023-0.671-0.224
			l-1.138-2.276L12.4,4.8c-0.189,0.252-0.611,0.252-0.801,0l-1.015-1.352L9.447,5.724c-0.123,0.247-0.423,0.35-0.671,0.224
			C8.529,5.823,8.43,5.523,8.553,5.276z"/>
		<path d="M17.5,8h-11c-1.208,0-2.217,0.86-2.449,2h15.898C19.717,8.86,18.708,8,17.5,8z"/>
		<path d="M3,11v4c0,4.963,4.037,9,9,9s9-4.037,9-9v-4H3z M15,13c0-0.276,0.224-0.5,0.5-0.5S16,12.724,16,13v1
			c0,0.276-0.224,0.5-0.5,0.5S15,14.276,15,14V13z M8,13c0-0.276,0.224-0.5,0.5-0.5S9,12.724,9,13v1c0,0.276-0.224,0.5-0.5,0.5
			S8,14.276,8,14V13z M18.158,18.019C17.947,18.591,17.396,19,16.75,19c-0.443,0-0.842-0.192-1.116-0.498l-0.55,0.993
			C14.805,20.088,14.201,20.5,13.5,20.5c-0.639,0-1.197-0.342-1.503-0.852h-0.01c-0.306,0.51-0.864,0.852-1.503,0.852
			c-0.701,0-1.305-0.412-1.584-1.005l-0.55-0.993C8.076,18.808,7.678,19,7.234,19c-0.646,0-1.197-0.409-1.408-0.981L5.25,16.484
			L9.75,16c0,1.242,1.008,2.5,2.25,2.5s2.25-1.258,2.25-2.5l4.484,0.484L18.158,18.019z"/>
		<path d="M2,11.185C0.839,11.599,0,12.698,0,14s0.839,2.401,2,2.815V11.185z"/>
		<path d="M22,11.185v5.631c1.161-0.414,2-1.514,2-2.815S23.161,11.599,22,11.185z"/>
	</g>
</g>
<g id="invisible_shape">
	<rect fill="none" width="24" height="24"/>
</g>
</svg>
