<?xml version="1.0" encoding="utf-8"?>
<!-- Generator: Adobe Illustrator 19.2.0, SVG Export Plug-In . SVG Version: 6.00 Build 0)  -->
<svg version="1.1" xmlns="http://www.w3.org/2000/svg" xmlns:xlink="http://www.w3.org/1999/xlink" x="0px" y="0px" width="24px"
	 height="24px" viewBox="0 0 24 24" enable-background="new 0 0 24 24" xml:space="preserve">
<g id="Filled_Icons">
	<g>
		<circle cx="12" cy="20" r="1"/>
		<path d="M12,4C9.412,4,7.276,5.977,7.024,8.5h2.018C9.28,7.083,10.517,6,12,6c1.654,0,3,1.346,3,3s-1.346,3-3,3h-0.5
			c-0.275,0-0.5,0.225-0.5,0.5V16h2v-1.7c0-0.225,0.149-0.422,0.366-0.481C15.506,13.224,17,11.243,17,9C17,6.243,14.757,4,12,4z"/>
		<path d="M0,0v24h24V0H0z M4.853,21.146c0.195,0.195,0.195,0.512,0,0.707c-0.195,0.195-0.512,0.195-0.707,0L3.5,21.207
			l-0.647,0.646c-0.195,0.195-0.512,0.195-0.707,0c-0.195-0.195-0.195-0.512,0-0.707L2.793,20.5l-0.646-0.646
			c-0.195-0.195-0.195-0.512,0-0.707c0.195-0.195,0.512-0.195,0.707,0L3.5,19.793l0.647-0.646c0.195-0.195,0.512-0.195,0.707,0
			c0.195,0.195,0.195,0.512,0,0.707L4.207,20.5L4.853,21.146z M4.853,4.147c0.195,0.195,0.195,0.512,0,0.707s-0.512,0.195-0.707,0
			L3.5,4.207L2.853,4.853c-0.195,0.195-0.512,0.195-0.707,0c-0.195-0.195-0.195-0.512,0-0.707L2.793,3.5L2.147,2.853
			c-0.195-0.195-0.195-0.512,0-0.707c0.195-0.195,0.512-0.195,0.707,0L3.5,2.793l0.647-0.646c0.195-0.195,0.512-0.195,0.707,0
			c0.195,0.195,0.195,0.512,0,0.707L4.207,3.5L4.853,4.147z M12,22c-1.102,0-2-0.897-2-2s0.898-2,2-2s2,0.897,2,2S13.102,22,12,22z
			 M14,14.667V16.5c0,0.276-0.224,0.5-0.5,0.5h-3c-0.276,0-0.5-0.224-0.5-0.5v-4c0-0.827,0.673-1.5,1.5-1.5H12c1.102,0,2-0.898,2-2
			s-0.898-2-2-2s-2,0.898-2,2c0,0.276-0.224,0.5-0.5,0.5h-3C6.224,9.5,6,9.276,6,9c0-3.309,2.691-6,6-6s6,2.691,6,6
			C18,11.561,16.373,13.838,14,14.667z M21.854,21.146c0.195,0.195,0.195,0.512,0,0.707c-0.195,0.195-0.512,0.195-0.707,0
			L20.5,21.207l-0.646,0.646c-0.195,0.195-0.512,0.195-0.707,0c-0.195-0.195-0.195-0.512,0-0.707l0.646-0.646l-0.646-0.646
			c-0.195-0.195-0.195-0.512,0-0.707c0.195-0.195,0.512-0.195,0.707,0l0.646,0.646l0.646-0.646c0.195-0.195,0.512-0.195,0.707,0
			c0.195,0.195,0.195,0.512,0,0.707L21.207,20.5L21.854,21.146z M21.854,4.147c0.195,0.195,0.195,0.512,0,0.707
			c-0.195,0.195-0.512,0.195-0.707,0L20.5,4.207l-0.646,0.647c-0.195,0.195-0.512,0.195-0.707,0c-0.195-0.195-0.195-0.512,0-0.707
			L19.793,3.5l-0.646-0.647c-0.195-0.195-0.195-0.512,0-0.707c0.195-0.195,0.512-0.195,0.707,0L20.5,2.793l0.646-0.646
			c0.195-0.195,0.512-0.195,0.707,0c0.195,0.195,0.195,0.512,0,0.707L21.207,3.5L21.854,4.147z"/>
	</g>
</g>
<g id="invisible_shape">
	<rect fill="none" width="24" height="24"/>
</g>
</svg>
