<?xml version="1.0" encoding="utf-8"?>
<!-- Generator: Adobe Illustrator 19.2.0, SVG Export Plug-In . SVG Version: 6.00 Build 0)  -->
<svg version="1.1" xmlns="http://www.w3.org/2000/svg" xmlns:xlink="http://www.w3.org/1999/xlink" x="0px" y="0px" width="24px"
	 height="24px" viewBox="0 0 24 24" enable-background="new 0 0 24 24" xml:space="preserve">
<g id="Filled_Icons">
	<g>
		<g>
			<path d="M7,6.908C6.419,6.701,6,6.15,6,5.5C6,4.673,6.673,4,7.5,4c0.651,0,1.201,0.419,1.408,1h3.517
				c-0.356-1.988-2.084-3.5-4.175-3.5C5.902,1.5,4,3.403,4,5.75c0,1.909,1.267,3.505,3,4.042V6.908z"/>
			<path d="M8.908,6C8.757,6.424,8.424,6.757,8,6.908v3.066C8.084,9.979,8.164,10,8.25,10c2.262,0,4.093-1.773,4.225-4H8.908z"/>
			<circle cx="7.5" cy="5.5" r="0.5"/>
		</g>
		<g>
			<polyline points="22,9 24,9 24,12 22,12 			"/>
		</g>
		<path d="M13,22h-1v-1c0-0.434-0.279-0.794-0.665-0.933c-0.277-1.33-0.519-2.25-0.713-2.692c-0.005-0.012-0.016-0.02-0.021-0.03
			C10.848,16.979,11,16.537,11,16H5c0,0.537,0.152,0.979,0.399,1.345c-0.006,0.011-0.017,0.019-0.022,0.03
			c-0.194,0.442-0.436,1.362-0.713,2.692C4.279,20.206,4,20.566,4,21v1H3c-0.552,0-1,0.448-1,1c0,0.553,0.448,1,1,1h3
			c0.553,0,1-0.447,1-1c0-0.552-0.447-1-1-1v-1c0-0.302-0.141-0.565-0.353-0.748c0.247-1.184,0.426-1.84,0.541-2.19
			C6.692,18.348,7.315,18.5,8,18.5s1.308-0.152,1.813-0.438c0.115,0.35,0.293,1.006,0.541,2.19C10.141,20.435,10,20.698,10,21v1
			c-0.553,0-1,0.448-1,1c0,0.553,0.447,1,1,1h3c0.553,0,1-0.447,1-1C14,22.448,13.553,22,13,22z"/>
		<path d="M21,8.354l-2.494-0.689c-0.314-0.111-0.653-0.172-1.006-0.172c-1.491,0-2.719,1.091-2.951,2.517
			C14.532,10.008,14.518,10,14.5,10h-8C2.916,10,0,12.916,0,16.5C0,16.776,0.224,17,0.5,17S1,16.776,1,16.5
			c0-2.769,2.06-5.063,4.728-5.439C5.28,11.585,5,12.257,5,13v2h6v-2c0-0.773-0.3-1.469-0.778-2H14.5c0.018,0,0.033-0.008,0.05-0.01
			c0.238,1.419,1.464,2.503,2.95,2.503c0.351,0,0.688-0.061,1-0.171l2.5-0.691V8.354z"/>
	</g>
</g>
<g id="invisible_shape">
	<rect fill="none" width="24" height="24"/>
</g>
</svg>
