<?xml version="1.0" encoding="utf-8"?>
<!-- Generator: Adobe Illustrator 19.2.0, SVG Export Plug-In . SVG Version: 6.00 Build 0)  -->
<svg version="1.1" xmlns="http://www.w3.org/2000/svg" xmlns:xlink="http://www.w3.org/1999/xlink" x="0px" y="0px" width="24px"
	 height="24px" viewBox="0 0 24 24" enable-background="new 0 0 24 24" xml:space="preserve">
<g id="Filled_Icons">
	<g>
		<g>
			<path d="M13,12c-2.481,0-4.5,2.018-4.5,4.5c0,2.48,2.019,4.5,4.5,4.5s4.5-2.02,4.5-4.5C17.5,14.018,15.481,12,13,12z M12,17.5
				c0,0.275-0.224,0.5-0.5,0.5S11,17.775,11,17.5v-2c0-0.277,0.224-0.5,0.5-0.5s0.5,0.223,0.5,0.5V17.5z M15,17.5
				c0,0.275-0.224,0.5-0.5,0.5S14,17.775,14,17.5v-2c0-0.277,0.224-0.5,0.5-0.5s0.5,0.223,0.5,0.5V17.5z"/>
			<path d="M18,10.5C18,6.357,14.643,3,10.5,3l-0.205,0.131c1.223,1.01,2.002,2.535,2.002,4.244c0,0.705-0.133,1.379-0.375,2
				l0.019-0.084C11.827,9.561,11.561,9.75,11.25,9.75c-0.414,0-0.75-0.336-0.75-0.75V8.75c0-2.348-1.902-4.25-4.25-4.25
				c-0.624,0-1.217,0.135-1.75,0.375l0.504,0.119c1.462,0.955,2.502,2.504,2.502,4.254c0,0.807-0.182,1.568-0.506,2.252
				l-1.073,2.498C5.65,14.781,5.5,15.623,5.5,16.5c0,4.141,3.357,7.5,7.5,7.5s7.5-3.359,7.5-7.5v-9L18,10.5z M13,22
				c-3.033,0-5.5-2.469-5.5-5.5c0-3.033,2.467-5.5,5.5-5.5s5.5,2.467,5.5,5.5C18.5,19.531,16.033,22,13,22z"/>
		</g>
		<path d="M4,9H3V8c0-0.277-0.224-0.5-0.5-0.5S2,7.723,2,8v1H1C0.724,9,0.5,9.223,0.5,9.5C0.5,9.775,0.724,10,1,10h1v1
			c0,0.275,0.224,0.5,0.5,0.5S3,11.275,3,11v-1h1c0.276,0,0.5-0.225,0.5-0.5C4.5,9.223,4.276,9,4,9z"/>
		<path d="M23,3h-1V2c0-0.277-0.224-0.5-0.5-0.5S21,1.723,21,2v1h-1c-0.276,0-0.5,0.223-0.5,0.5C19.5,3.775,19.724,4,20,4h1v1
			c0,0.275,0.224,0.5,0.5,0.5S22,5.275,22,5V4h1c0.276,0,0.5-0.225,0.5-0.5C23.5,3.223,23.276,3,23,3z"/>
	</g>
</g>
<g id="invisible_shape">
	<rect fill="none" width="24" height="24"/>
</g>
</svg>
