<?xml version="1.0" encoding="utf-8"?>
<!-- Generator: Adobe Illustrator 19.2.0, SVG Export Plug-In . SVG Version: 6.00 Build 0)  -->
<svg version="1.1" xmlns="http://www.w3.org/2000/svg" xmlns:xlink="http://www.w3.org/1999/xlink" x="0px" y="0px" width="24px"
	 height="24px" viewBox="0 0 24 24" enable-background="new 0 0 24 24" xml:space="preserve">
<g id="Filled_Icons">
	<g>
		<path d="M6.304,20.604l1.772,1.328L10,21.161v-2.605C9.785,17.69,8.473,17,7.5,17c-1.102,0-2,0.897-2,2
			C5.5,19.637,5.793,20.222,6.304,20.604z"/>
		<g>
			<path d="M7.5,16c1.87,0,3.5,1.497,3.5,2.5V20h3v-1.5c0-0.999,1.629-2.5,3.5-2.5h0.993c0.026-0.065,0.059-0.127,0.085-0.193
				C21.879,14.112,24,10.483,24,6.5c0-0.387-0.422-0.629-0.757-0.429L19,8.624V8c0-3.584-2.916-6.5-6.5-6.5S6,4.416,6,8v3.037
				c-2.234,0.745-4.152,2.218-5.421,4.192C0.367,15.561,0.604,16,1,16H7.5z M14,7c0-0.276,0.224-0.5,0.5-0.5S15,6.724,15,7v1.5
				C15,8.776,14.776,9,14.5,9S14,8.776,14,8.5V7z M10,7c0-0.276,0.224-0.5,0.5-0.5S11,6.724,11,7v1.5C11,8.776,10.776,9,10.5,9
				S10,8.776,10,8.5V7z M12.5,10c1.93,0,3.5,1.57,3.5,3.5c0,0.924-2.889,2.5-3.5,2.5S9,14.424,9,13.5C9,11.57,10.57,10,12.5,10z"/>
		</g>
		<path d="M15,21.162l1.925,0.77l1.775-1.333c0.508-0.381,0.8-0.963,0.8-1.599c0-1.103-0.897-2-2-2c-0.972,0-2.284,0.69-2.5,1.556
			V21.162z"/>
	</g>
</g>
<g id="invisible_shape">
	<rect fill="none" width="24" height="24"/>
</g>
</svg>
