<?xml version="1.0" encoding="utf-8"?>
<!-- Generator: Adobe Illustrator 19.2.0, SVG Export Plug-In . SVG Version: 6.00 Build 0)  -->
<svg version="1.1" xmlns="http://www.w3.org/2000/svg" xmlns:xlink="http://www.w3.org/1999/xlink" x="0px" y="0px" width="24px"
	 height="24px" viewBox="0 0 24 24" enable-background="new 0 0 24 24" xml:space="preserve">
<g id="Filled_Icons">
	<path d="M13.979,12.006l8.81-6.23c0.108-0.077,0.182-0.193,0.204-0.324c0.022-0.131-0.008-0.265-0.084-0.373
		c-2.251-3.177-5.913-5.073-9.796-5.073c-6.617,0-12,5.383-12,12c0,6.616,5.383,12,12,12c3.884,0,7.546-1.896,9.796-5.072
		c0.076-0.108,0.106-0.243,0.084-0.374c-0.021-0.131-0.096-0.247-0.204-0.323L13.979,12.006z M10.613,9.006
		c-1.379,0-2.5-1.122-2.5-2.5c0-1.379,1.121-2.5,2.5-2.5c1.378,0,2.5,1.121,2.5,2.5C13.113,7.884,11.991,9.006,10.613,9.006z"/>
</g>
<g id="invisible_shape">
	<rect fill="none" width="24" height="24"/>
</g>
</svg>
