<?xml version="1.0" encoding="utf-8"?>
<!-- Generator: Adobe Illustrator 19.2.0, SVG Export Plug-In . SVG Version: 6.00 Build 0)  -->
<svg version="1.1" xmlns="http://www.w3.org/2000/svg" xmlns:xlink="http://www.w3.org/1999/xlink" x="0px" y="0px" width="24px"
	 height="24px" viewBox="0 0 24 24" enable-background="new 0 0 24 24" xml:space="preserve">
<g id="Filled_Icons">
	<g>
		<path d="M22.22,20.72l-0.836,1.115c-0.531-0.572-1.63-1.15-2.827-1.283C18.832,20.099,19,19.571,19,19.001v-2.762
			c0.395,0.164,0.816,0.262,1.25,0.262c1.792,0,3.25-1.459,3.25-3.251c0-0.275-0.224-0.5-0.5-0.5s-0.5,0.225-0.5,0.5
			c0,1.24-1.01,2.251-2.25,2.251c-0.532,0-1.028-0.18-1.437-0.52c-0.001,0-0.002,0-0.003-0.002C18.392,13.828,17.297,13,16,13
			c-2.71,0-2.484,0-2.5,0c-2.206,0-4,1.794-4,4.001c0,0.275,0.224,0.5,0.5,0.5s0.5-0.225,0.5-0.5c0-1.654,1.346-3.001,3-3.001h0.278
			C13.3,14.531,13,15.229,13,16.001v3c0,0.924,0.427,1.74,1.083,2.289c-0.866,0.773-2.202,0.918-3.204,0.342
			c0.174-0.289,0.149-0.662-0.1-0.912c-0.293-0.293-0.769-0.293-1.061,0l-1.5,2c-0.293,0.293-0.293,0.768,0,1.061
			c0.292,0.293,0.768,0.293,1.061,0l1.01-1.346c0.451,0.318,1.19,0.566,1.961,0.566c1.288,0,2.509-0.767,2.703-1.199
			c0.327,0.123,0.677,0.199,1.047,0.199c0.656,0,1.259-0.217,1.753-0.574c0.074,0.043,0.155,0.074,0.247,0.074
			c1.786,0,1.805,0.662,2.805,1.105L20.72,22.72c-0.293,0.293-0.293,0.768,0,1.061c0.292,0.293,0.768,0.293,1.061,0l1.5-2
			c0.293-0.293,0.293-0.768,0-1.061C22.987,20.427,22.512,20.427,22.22,20.72z"/>
		<path d="M8.5,7h-5C3.224,7,3,6.777,3,6.5C3,6.225,3.224,6,3.5,6h5C8.776,6,9,6.225,9,6.5C9,6.777,8.776,7,8.5,7z"/>
		<path d="M8.5,10h-5C3.224,10,3,9.777,3,9.5C3,9.225,3.224,9,3.5,9h5C8.776,9,9,9.225,9,9.5C9,9.777,8.776,10,8.5,10z"/>
		<path d="M7.5,13h-4C3.224,13,3,12.777,3,12.5C3,12.225,3.224,12,3.5,12h4C7.776,12,8,12.225,8,12.5C8,12.777,7.776,13,7.5,13z"/>
		<path d="M1.5,7h-1C0.224,7,0,6.777,0,6.5C0,6.225,0.224,6,0.5,6h1C1.776,6,2,6.225,2,6.5C2,6.777,1.776,7,1.5,7z"/>
		<path d="M1.5,10h-1C0.224,10,0,9.777,0,9.5C0,9.225,0.224,9,0.5,9h1C1.776,9,2,9.225,2,9.5C2,9.777,1.776,10,1.5,10z"/>
		<path d="M1.5,13h-1C0.224,13,0,12.777,0,12.5C0,12.225,0.224,12,0.5,12h1C1.776,12,2,12.225,2,12.5C2,12.777,1.776,13,1.5,13z"/>
		<g>
			<path d="M17.5,11c-1.103,0-2-0.898-2-2c0-1.102,0.897-2,2-2h2.445c-0.692-1.189-1.969-2-3.445-2
				c-0.795,0-1.531,0.238-2.154,0.639l-1.895-1.895C12.634,3.031,12.096,2.5,11.5,2.5c-0.553,0-1,0.449-1,1
				c0,0.607,0.551,1.138,1.244,0.951l1.834,1.834C12.914,7,12.5,7.949,12.5,9c0,2.211,1.791,4,4,4c1.477,0,2.753-0.809,3.445-2H17.5
				z"/>
			<path d="M16.5,9c0,0.553,0.448,1,1,1h2.858c0.189-0.732,0.188-1.268,0-2H17.5C16.948,8,16.5,8.449,16.5,9z"/>
		</g>
	</g>
</g>
<g id="invisible_shape">
	<rect fill="none" width="24" height="24"/>
</g>
</svg>
