<?xml version="1.0" encoding="utf-8"?>
<!-- Generator: Adobe Illustrator 19.2.0, SVG Export Plug-In . SVG Version: 6.00 Build 0)  -->
<svg version="1.1" xmlns="http://www.w3.org/2000/svg" xmlns:xlink="http://www.w3.org/1999/xlink" x="0px" y="0px" width="24px"
	 height="24px" viewBox="0 0 24 24" enable-background="new 0 0 24 24" xml:space="preserve">
<g id="Filled_Icons">
	<g>
		<path d="M12,0.006c-4.963,0-9,4.037-9,9v13.5c0,0.827,0.673,1.5,1.5,1.5H5c0.826,0,1.5-0.673,1.5-1.5c0-0.276,0.224-0.5,0.5-0.5
			c0.275,0,0.5,0.224,0.5,0.5c0,0.827,0.673,1.5,1.5,1.5h1c0.826,0,1.5-0.673,1.5-1.5c0-0.276,0.224-0.5,0.5-0.5
			c0.275,0,0.5,0.224,0.5,0.5c0,0.827,0.673,1.5,1.5,1.5h1c0.826,0,1.5-0.673,1.5-1.5c0-0.276,0.224-0.5,0.5-0.5
			c0.275,0,0.5,0.224,0.5,0.5c0,0.827,0.673,1.5,1.5,1.5h0.5c0.826,0,1.5-0.673,1.5-1.5v-13.5C21,4.043,16.962,0.006,12,0.006z
			 M11,12.006c0,1.102-0.898,2-2,2c-1.103,0-2-0.898-2-2v-1v-2c0-1.104,0.897-2,2-2c1.102,0,2,0.896,2,2V12.006z M17,12.006
			c0,1.102-0.897,2-2,2c-1.104,0-2-0.898-2-2v-1v-2c0-1.104,0.896-2,2-2c1.103,0,2,0.896,2,2V12.006z"/>
		<circle cx="14" cy="11.006" r="1"/>
		<circle cx="8" cy="11.006" r="1"/>
	</g>
</g>
<g id="invisible_shape">
	<rect fill="none" width="24" height="24"/>
</g>
</svg>
