<?xml version="1.0" encoding="utf-8"?>
<!-- Generator: Adobe Illustrator 19.2.0, SVG Export Plug-In . SVG Version: 6.00 Build 0)  -->
<svg version="1.1" xmlns="http://www.w3.org/2000/svg" xmlns:xlink="http://www.w3.org/1999/xlink" x="0px" y="0px" width="24px"
	 height="24px" viewBox="0 0 24 24" enable-background="new 0 0 24 24" xml:space="preserve">
<g id="Filled_Icons">
	<g>
		<path d="M11.5,0C5.159,0,0,5.159,0,11.5S5.159,23,11.5,23S23,17.841,23,11.5S17.841,0,11.5,0z M11.5,7.5c2.206,0,4,1.794,4,4
			s-1.794,4-4,4s-4-1.794-4-4S9.294,7.5,11.5,7.5z M11.5,22C5.879,22,1.289,17.557,1.025,12h5.525c0.255,2.519,2.363,4.5,4.949,4.5
			s4.694-1.981,4.949-4.5h5.525C21.711,17.557,17.121,22,11.5,22z"/>
		<circle cx="11.5" cy="11.5" r="2.5"/>
	</g>
</g>
<g id="invisible_shape">
	<rect fill="none" width="24" height="24"/>
</g>
</svg>
