<?xml version="1.0" encoding="utf-8"?>
<!-- Generator: Adobe Illustrator 19.2.0, SVG Export Plug-In . SVG Version: 6.00 Build 0)  -->
<svg version="1.1" xmlns="http://www.w3.org/2000/svg" xmlns:xlink="http://www.w3.org/1999/xlink" x="0px" y="0px" width="24px"
	 height="24px" viewBox="0 0 24 24" enable-background="new 0 0 24 24" xml:space="preserve">
<g id="Filled_Icons">
	<path d="M22.5,10.123V3c0-0.482-0.615-0.683-0.902-0.298C21.573,2.732,18.5,6.5,18.5,6.5c-1.893-1.367-3.988-2-6.5-2
		c-2.172,0-4.203,0.602-5.936,1.648L2.353,2.647C2.047,2.336,1.5,2.549,1.5,3c0,0.057,0,7,0,7c-0.84,1.266-1,2.366-1,4
		c0,4.419,3.582,8,8,8h7c4.418,0,8-3.581,8-8C23.5,12.593,23.137,11.271,22.5,10.123z M13,13c0,0.276-0.224,0.5-0.5,0.5
		S12,13.276,12,13v-2c0-0.276,0.224-0.5,0.5-0.5S13,10.724,13,11V13z M18.5,17.75c0,1.104-0.896,2-2,2s-2-0.896-2-2V15.5h4V17.75z
		 M20,13c0,0.276-0.224,0.5-0.5,0.5S19,13.276,19,13v-2c0-0.276,0.224-0.5,0.5-0.5S20,10.724,20,11V13z"/>
</g>
<g id="invisible_shape">
	<rect fill="none" width="24" height="24"/>
</g>
</svg>
