<?xml version="1.0" encoding="utf-8"?>
<!-- Generator: Adobe Illustrator 19.2.0, SVG Export Plug-In . SVG Version: 6.00 Build 0)  -->
<svg version="1.1" xmlns="http://www.w3.org/2000/svg" xmlns:xlink="http://www.w3.org/1999/xlink" x="0px" y="0px" width="24px"
	 height="24px" viewBox="0 0 24 24" enable-background="new 0 0 24 24" xml:space="preserve">
<g id="Filled_Icons">
	<g>
		<path d="M11,12l5,0.434V10c0-1.104,0.898-2,2.001-2h3.439c-0.3-2.633-1.804-5-4.69-5H12c-1.657,0-3,1.342-3,3l3.5,0.75
			c-1.242,0-2.25,1.006-2.25,2.25L13,10C11.896,10,11,10.894,11,12z M18,6c0-0.277,0.224-0.5,0.5-0.5S19,5.723,19,6v1
			c0,0.275-0.224,0.5-0.5,0.5S18,7.275,18,7V6z"/>
		<path d="M18.001,9c-0.552,0-1,0.447-1,1v2.5l1.249-0.002C20.5,12.5,22.5,11.5,22.5,9H18.001z"/>
		<path d="M22.22,20.719l-0.835,1.115c-0.013-0.016-0.02-0.033-0.033-0.045c-0.78-0.705-1.759-1.123-2.795-1.238
			C18.832,20.098,19,19.57,19,19v-2.764c0.396,0.166,0.82,0.264,1.256,0.264c1.792,0,3.25-1.459,3.25-3.25
			c0-0.277-0.224-0.5-0.5-0.5c-0.276,0-0.5,0.223-0.5,0.5c0,1.24-1.009,2.25-2.25,2.25c-0.532,0-1.028-0.18-1.437-0.519
			c-0.003-0.002-0.008-0.002-0.011-0.006C18.389,13.824,17.296,13,16,13c-2.707,0-2.483,0-2.5,0c-2.206,0-4,1.793-4,4
			c0,0.275,0.224,0.5,0.5,0.5s0.5-0.225,0.5-0.5c0-1.654,1.346-3,3-3h0.278C13.3,14.531,13,15.229,13,16v3
			c0,0.924,0.427,1.74,1.084,2.291c-0.867,0.771-2.2,0.916-3.206,0.34c0.175-0.289,0.15-0.662-0.099-0.912
			c-0.293-0.293-0.769-0.293-1.061,0l-1.5,2c-0.293,0.293-0.293,0.768,0,1.061c0.292,0.293,0.768,0.293,1.061,0l1.01-1.346
			c0.017,0.012,0.027,0.029,0.046,0.041C10.913,22.818,11.575,23,12.25,23c0.973,0,1.894-0.371,2.597-1.045
			c0.047-0.045,0.08-0.098,0.105-0.154C15.28,21.924,15.63,22,16,22c0.657,0,1.259-0.217,1.753-0.574
			C17.827,21.469,17.908,21.5,18,21.5c0.993,0,1.945,0.365,2.681,1.031c0.037,0.033,0.08,0.055,0.124,0.074l-0.085,0.113
			c-0.293,0.293-0.293,0.768,0,1.061c0.292,0.293,0.768,0.293,1.061,0l1.5-2c0.293-0.293,0.293-0.768,0-1.061
			C22.987,20.426,22.512,20.426,22.22,20.719z"/>
		<path d="M7.5,4h-3C4.224,4,4,3.775,4,3.5C4,3.223,4.224,3,4.5,3h3C7.776,3,8,3.223,8,3.5C8,3.775,7.776,4,7.5,4z"/>
		<path d="M2,4H1C0.724,4,0.5,3.775,0.5,3.5C0.5,3.223,0.724,3,1,3h1c0.276,0,0.5,0.223,0.5,0.5C2.5,3.775,2.276,4,2,4z"/>
		<path d="M7.5,8H5C4.724,8,4.5,7.775,4.5,7.5C4.5,7.223,4.724,7,5,7h2.5C7.776,7,8,7.223,8,7.5C8,7.775,7.776,8,7.5,8z"/>
		<path d="M2,8H1C0.724,8,0.5,7.775,0.5,7.5C0.5,7.223,0.724,7,1,7h1c0.276,0,0.5,0.223,0.5,0.5C2.5,7.775,2.276,8,2,8z"/>
		<path d="M8,12H5.5C5.224,12,5,11.775,5,11.5C5,11.223,5.224,11,5.5,11H8c0.276,0,0.5,0.223,0.5,0.5C8.5,11.775,8.276,12,8,12z"/>
		<path d="M2.5,12h-1C1.224,12,1,11.775,1,11.5C1,11.223,1.224,11,1.5,11h1C2.776,11,3,11.223,3,11.5C3,11.775,2.776,12,2.5,12z"/>
		<path d="M7.5,16H6c-0.276,0-0.5-0.225-0.5-0.5C5.5,15.223,5.724,15,6,15h1.5C7.776,15,8,15.223,8,15.5C8,15.775,7.776,16,7.5,16z"
			/>
		<path d="M3,16H2c-0.276,0-0.5-0.225-0.5-0.5C1.5,15.223,1.724,15,2,15h1c0.276,0,0.5,0.223,0.5,0.5C3.5,15.775,3.276,16,3,16z"/>
		<path d="M8,20H6.5C6.224,20,6,19.775,6,19.5C6,19.223,6.224,19,6.5,19H8c0.276,0,0.5,0.223,0.5,0.5C8.5,19.775,8.276,20,8,20z"/>
		<path d="M3.5,20h-1C2.224,20,2,19.775,2,19.5C2,19.223,2.224,19,2.5,19h1C3.776,19,4,19.223,4,19.5C4,19.775,3.776,20,3.5,20z"/>
		<path d="M7,24H5c-0.276,0-0.5-0.225-0.5-0.5C4.5,23.223,4.724,23,5,23h2c0.276,0,0.5,0.223,0.5,0.5C7.5,23.775,7.276,24,7,24z"/>
		<path d="M3,24H2c-0.276,0-0.5-0.225-0.5-0.5C1.5,23.223,1.724,23,2,23h1c0.276,0,0.5,0.223,0.5,0.5C3.5,23.775,3.276,24,3,24z"/>
	</g>
</g>
<g id="invisible_shape">
	<rect fill="none" width="24" height="24"/>
</g>
</svg>
