<?xml version="1.0" encoding="utf-8"?>
<!-- Generator: Adobe Illustrator 19.2.0, SVG Export Plug-In . SVG Version: 6.00 Build 0)  -->
<svg version="1.1" xmlns="http://www.w3.org/2000/svg" xmlns:xlink="http://www.w3.org/1999/xlink" x="0px" y="0px" width="24px"
	 height="24px" viewBox="0 0 24 24" enable-background="new 0 0 24 24" xml:space="preserve">
<g id="Filled_Icons">
	<g>
		<g>
			<path d="M11.5,13.5c-0.276,0-0.5-0.224-0.5-0.5v-2c0-0.276,0.224-0.5,0.5-0.5S12,10.724,12,11v2C12,13.276,11.776,13.5,11.5,13.5
				z"/>
		</g>
		<path d="M11.5,0C9.57,0,8,1.57,8,3.5v3C8,6.776,8.224,7,8.5,7h6C14.776,7,15,6.776,15,6.5v-3C15,1.57,13.43,0,11.5,0z M10,4
			C9.724,4,9.5,3.775,9.5,3.5S9.724,3,10,3s0.5,0.225,0.5,0.5S10.276,4,10,4z M13,4c-0.276,0-0.5-0.225-0.5-0.5S12.724,3,13,3
			s0.5,0.225,0.5,0.5S13.276,4,13,4z"/>
		<path d="M3.5,4C1.57,4,0,5.57,0,7.5v3C0,10.776,0.224,11,0.5,11h6C6.776,11,7,10.776,7,10.5v-3C7,5.57,5.43,4,3.5,4z M2,8
			C1.724,8,1.5,7.775,1.5,7.5S1.724,7,2,7s0.5,0.225,0.5,0.5S2.276,8,2,8z M5,8C4.724,8,4.5,7.775,4.5,7.5S4.724,7,5,7
			s0.5,0.225,0.5,0.5S5.276,8,5,8z"/>
		<path d="M19.5,4C17.57,4,16,5.57,16,7.5v3c0,0.276,0.224,0.5,0.5,0.5h6c0.276,0,0.5-0.224,0.5-0.5v-3C23,5.57,21.43,4,19.5,4z
			 M18,8c-0.276,0-0.5-0.225-0.5-0.5S17.724,7,18,7s0.5,0.225,0.5,0.5S18.276,8,18,8z M21,8c-0.276,0-0.5-0.225-0.5-0.5
			S20.724,7,21,7s0.5,0.225,0.5,0.5S21.276,8,21,8z"/>
		<g>
			<path d="M8,20.157l-3.806,2.947c-0.17,0.132-0.236,0.355-0.167,0.558C4.096,23.864,4.286,24,4.5,24H8V20.157z"/>
			<path d="M14,17.5c0-1.379-1.121-2.5-2.5-2.5S9,16.121,9,17.5V24h5V17.5z"/>
			<path d="M18.806,23.104L15,20.168V24h3.5c0.214,0,0.404-0.136,0.474-0.339C19.042,23.459,18.975,23.234,18.806,23.104z"/>
		</g>
	</g>
</g>
<g id="invisible_shape">
	<rect fill="none" width="24" height="24"/>
</g>
</svg>
