<?xml version="1.0" encoding="utf-8"?>
<!-- Generator: Adobe Illustrator 19.2.0, SVG Export Plug-In . SVG Version: 6.00 Build 0)  -->
<svg version="1.1" xmlns="http://www.w3.org/2000/svg" xmlns:xlink="http://www.w3.org/1999/xlink" x="0px" y="0px" width="24px"
	 height="24px" viewBox="0 0 24 24" enable-background="new 0 0 24 24" xml:space="preserve">
<g id="Filled_Icons">
	<path d="M23.5,7.006c0-2.757-2.243-5-5-5c-2.068,0-3.847,1.262-4.606,3.057c-0.007,0.01-0.018,0.017-0.024,0.027l-4.967,9.086
		c-0.273-0.072-0.556-0.121-0.851-0.124l-2.168-3.269C6.419,8.808,4.91,7.006,3,7.006c-1.654,0-3,1.346-3,3
		c0,1.498,1.107,2.732,2.544,2.954l2.2,3.363c-0.859,2.302,0.845,4.726,3.272,4.726c1.121-0.029,1.973-0.456,2.602-1.156
		c0.614-0.682,0.946-1.533,0.881-2.621l9.385-5.898C22.435,10.523,23.5,8.894,23.5,7.006z M18.5,4.006c1.654,0,3,1.346,3,3
		s-1.346,3-3,3s-3-1.346-3-3S16.846,4.006,18.5,4.006z M3.707,12.913c0.675-0.165,1.255-0.558,1.665-1.092l1.594,2.402
		c-0.655,0.207-1.193,0.553-1.659,1.134L3.707,12.913z M9.831,14.563l3.741-6.843c0.329,2.274,2.184,4.041,4.496,4.242l-6.814,4.284
		C10.97,15.54,10.472,14.951,9.831,14.563z"/>
</g>
<g id="invisible_shape">
	<rect fill="none" width="24" height="24"/>
</g>
</svg>
