<?xml version="1.0" encoding="utf-8"?>
<!-- Generator: Adobe Illustrator 19.2.0, SVG Export Plug-In . SVG Version: 6.00 Build 0)  -->
<svg version="1.1" xmlns="http://www.w3.org/2000/svg" xmlns:xlink="http://www.w3.org/1999/xlink" x="0px" y="0px" width="24px"
	 height="24px" viewBox="0 0 24 24" enable-background="new 0 0 24 24" xml:space="preserve">
<g id="Filled_Icons">
	<g>
		<path d="M19.593,7.557C21.535,7.557,23,6.243,23,4.5c0-2.078-1.11-3.386-3-3.5h-4.479C15.231,0.99,15,1.222,15,1.5
			C15,5.684,17.307,7.557,19.593,7.557z M18.798,2.554c0.791-0.105,1.578,0.47,1.691,1.277c0.112,0.817-0.46,1.576-1.276,1.693
			c-0.834,0.113-1.585-0.475-1.694-1.281C17.404,3.429,17.969,2.666,18.798,2.554z"/>
		<path d="M3.5,14h-2C0.673,14,0,14.673,0,15.5v7C0,23.327,0.673,24,1.5,24h2C4.327,24,5,23.327,5,22.5v-7C5,14.673,4.327,14,3.5,14
			z"/>
		<path d="M22.5,14h-2c-0.827,0-1.5,0.673-1.5,1.5v7c0,0.827,0.673,1.5,1.5,1.5h2c0.827,0,1.5-0.673,1.5-1.5v-7
			C24,14.673,23.327,14,22.5,14z"/>
		<path d="M4.407,7.557C7.389,7.557,9,4.785,9,1.5C9,1.247,8.832,1.029,8.485,1L3.97,1.001C2.11,1.114,1,2.422,1,4.5
			C1,6.242,2.465,7.557,4.407,7.557z M3.512,3.832c0.113-0.809,0.86-1.385,1.695-1.278c0.817,0.112,1.391,0.868,1.275,1.692
			C6.37,5.074,5.588,5.639,4.792,5.524C3.972,5.407,3.399,4.648,3.512,3.832z"/>
		<path d="M6,20.5C6,20.776,6.224,21,6.5,21H12v-3.5c0-0.276,0.224-0.5,0.5-0.5s0.5,0.224,0.5,0.5V21h1v-3.5
			c0-0.276,0.224-0.5,0.5-0.5s0.5,0.224,0.5,0.5V21h2.5c0.276,0,0.5-0.224,0.5-0.5V14H6V20.5z"/>
		<path d="M14,0.5C14,0.224,13.776,0,13.5,0h-3C10.224,0,10,0.224,10,0.5V9h4V0.5z"/>
		<path d="M17.5,10h-11C6.224,10,6,10.224,6,10.5V13h12v-2.5C18,10.224,17.776,10,17.5,10z"/>
	</g>
</g>
<g id="invisible_shape">
	<rect fill="none" width="24" height="24"/>
</g>
</svg>
