<?xml version="1.0" encoding="utf-8"?>
<!-- Generator: Adobe Illustrator 19.2.0, SVG Export Plug-In . SVG Version: 6.00 Build 0)  -->
<svg version="1.1" xmlns="http://www.w3.org/2000/svg" xmlns:xlink="http://www.w3.org/1999/xlink" x="0px" y="0px" width="24px"
	 height="24px" viewBox="0 0 24 24" enable-background="new 0 0 24 24" xml:space="preserve">
<g id="Filled_Icons">
	<g>
		<path d="M16.5,8h-9c-1.207,0-2.217,0.86-2.449,2h13.898C18.718,8.86,17.707,8,16.5,8z"/>
		<path d="M18.5,3.5H18C18,1.844,16.656,0,15,0H9C7.343,0,6,1.844,6,3.5H5.5C3.567,3.5,2,5.066,2,7c0,1.408,0.836,2.613,2.033,3.169
			C4.203,8.396,5.685,7,7.5,7h9c1.816,0,3.297,1.396,3.467,3.169C21.164,9.613,22,8.408,22,7C22,5.066,20.433,3.5,18.5,3.5z
			 M14.929,3.258l-1.5,2.5C13.34,5.904,13.184,5.996,13.012,6C13.008,6,13.004,6,13,6c-0.167,0-0.323-0.084-0.416-0.223L12,4.901
			l-0.584,0.876C11.32,5.92,11.166,5.996,10.988,6c-0.172-0.004-0.328-0.096-0.417-0.242l-1.5-2.5
			C8.93,3.02,9.006,2.713,9.243,2.571C9.481,2.43,9.787,2.506,9.929,2.742l1.094,1.823l0.561-0.843c0.186-0.278,0.647-0.278,0.832,0
			l0.561,0.843l1.094-1.823c0.142-0.236,0.448-0.313,0.687-0.171C14.994,2.713,15.07,3.02,14.929,3.258z"/>
		<path d="M23,11.5c-0.069,0-0.135,0.015-0.194,0.039L20,12.354V15.5c0,0.178-0.015,0.352-0.025,0.527l3.426-3.728
			c0.063-0.083,0.1-0.187,0.1-0.299C23.5,11.724,23.276,11.5,23,11.5z"/>
		<path d="M4,15.5v-3.146l-2.806-0.815C1.135,11.515,1.069,11.5,1,11.5c-0.276,0-0.5,0.224-0.5,0.5c0,0.112,0.037,0.216,0.1,0.299
			l3.486,4.242C4.035,16.185,4,15.835,4,15.5z"/>
		<path d="M18.169,18.441l-0.798,0.893c-0.092,0.103-0.223,0.162-0.359,0.166c-0.138,0.004-0.268-0.049-0.366-0.146l-1-1
			C15.445,18.162,15.152,18,14.999,18c-0.347,0-0.898,0.61-1.151,0.859c-0.198,0.191-0.514,0.188-0.707-0.012
			c-0.191-0.197-0.188-0.514,0.012-0.707C13.696,17.605,14.235,17,14.999,17c0.502,0,1.024,0.33,1.347,0.64l0.635,0.634l0.402-0.446
			c0.307-0.462,0.865-0.767,1.476-0.81C18.95,16.523,19,16.018,19,15.5V11H5v4.5c0,0.49,0.07,1.019,0.195,1.557
			c0.741-0.101,1.533,0.188,1.963,0.824l0.359,0.395l0.629-0.629C8.476,17.33,8.998,17,9.5,17c0.764,0,1.303,0.605,1.848,1.141
			c0.197,0.193,0.203,0.51,0.01,0.707c-0.191,0.199-0.508,0.203-0.706,0.012C10.398,18.61,9.847,18,9.5,18
			c-0.153,0-0.447,0.162-0.654,0.361l-0.992,0.992c-0.097,0.098-0.232,0.149-0.367,0.146c-0.137-0.004-0.266-0.063-0.357-0.166
			l-0.756-0.838C6.14,18.16,5.806,18.02,5.481,18.023C6.568,21.168,8.6,23,12,23c3.304,0,5.558-1.924,6.562-4.871
			C18.408,18.199,18.268,18.296,18.169,18.441z M13.752,14.066l3.5-2c0.239-0.139,0.546-0.055,0.683,0.186
			c0.137,0.24,0.054,0.546-0.187,0.682L17,13.361V15c0,0.276-0.224,0.5-0.5,0.5S16,15.276,16,15v-1.066l-1.752,1
			C14.17,14.979,14.085,15,14.001,15c-0.174,0-0.343-0.09-0.435-0.252C13.429,14.508,13.512,14.203,13.752,14.066z M10.435,14.748
			C10.342,14.91,10.174,15,10,15c-0.084,0-0.17-0.021-0.248-0.066l-1.752-1V15c0,0.276-0.224,0.5-0.5,0.5S7,15.276,7,15v-1.639
			l-0.748-0.428c-0.24-0.136-0.323-0.441-0.186-0.682c0.137-0.24,0.441-0.324,0.682-0.186l3.5,2
			C10.488,14.203,10.571,14.508,10.435,14.748z"/>
	</g>
</g>
<g id="invisible_shape">
	<rect fill="none" width="24" height="24"/>
</g>
</svg>
