<?xml version="1.0" encoding="utf-8"?>
<!-- Generator: Adobe Illustrator 19.2.0, SVG Export Plug-In . SVG Version: 6.00 Build 0)  -->
<svg version="1.1" xmlns="http://www.w3.org/2000/svg" xmlns:xlink="http://www.w3.org/1999/xlink" x="0px" y="0px" width="24px"
	 height="24px" viewBox="0 0 24 24" enable-background="new 0 0 24 24" xml:space="preserve">
<g id="Filled_Icons">
	<g>
		<path d="M1,20.084v1.5c0,0.551,0.447,1,1,1c0.369,0,0.691-0.201,0.865-0.498l0.406-0.717l-1.865-2.098L1,20.084z"/>
		<path d="M20.628,21.482l0.507,0.895c0.174,0.297,0.496,0.498,0.865,0.498c0.553,0,1-0.449,1-1v-1.5l-0.499-0.998L20.628,21.482z"
			/>
		<path d="M23.124,17.17c-1.019-0.895-3.812-3.357-4.624-4.17c-0.625-0.625-1.055-0.859-1.289-0.947
			c-0.166,0.498-0.425,1.064-0.836,1.611c-1.094,1.455-4.052,2.74-4.177,2.795l-0.191,0.082l-0.192-0.078
			c-0.108-0.043-2.656-1.076-3.731-2.686c-0.408-0.613-0.661-1.223-0.82-1.75C6.911,12.088,6.209,12.291,5.5,13
			c-0.813,0.813-3.605,3.275-4.624,4.17l3.903,4.391L8,16.5L6.5,24h11L16,16.5l3.222,5.06L23.124,17.17z"/>
		<path d="M8.068,11.074c0.091,0.525,0.304,1.33,0.848,2.149c0.75,1.123,2.499,1.973,3.08,2.23c0.654-0.301,2.789-1.338,3.578-2.389
			c0.521-0.693,0.742-1.42,0.842-1.926C18.677,11.387,21,11,21,11l-4-3H7l-4,3C3,11,5.668,11.443,8.068,11.074z M12,9
			c0,0,0.472,0.682,1.539,1.279C13.221,10.625,12.719,11,12,11c-0.719,0-1.22-0.375-1.538-0.721C11.528,9.682,12,9,12,9z"/>
		<path d="M16.892,7C16.958,6.672,17,6.338,17,6c0-2.758-2.243-5-5-5S7,3.242,7,6c0,0.339,0.042,0.673,0.108,1H16.892z M13,4
			c0-0.277,0.224-0.5,0.5-0.5S14,3.723,14,4v1c0,0.275-0.224,0.5-0.5,0.5S13,5.275,13,5V4z M10,4c0-0.277,0.224-0.5,0.5-0.5
			S11,3.723,11,4v1c0,0.275-0.224,0.5-0.5,0.5S10,5.275,10,5V4z"/>
	</g>
</g>
<g id="invisible_shape">
	<rect fill="none" width="24" height="24"/>
</g>
</svg>
