<?xml version="1.0" encoding="utf-8"?>
<!-- Generator: Adobe Illustrator 19.2.0, SVG Export Plug-In . SVG Version: 6.00 Build 0)  -->
<svg version="1.1" xmlns="http://www.w3.org/2000/svg" xmlns:xlink="http://www.w3.org/1999/xlink" x="0px" y="0px" width="24px"
	 height="24px" viewBox="0 0 24 24" enable-background="new 0 0 24 24" xml:space="preserve">
<g id="Filled_Icons">
	<g>
		<path d="M7.512,12.449c0.004,0.028,0.014,0.055,0.012,0.084c-0.005,0.072-0.008,0.144-0.008,0.217c0,1.516,1.233,2.75,2.75,2.75
			s2.75-1.234,2.75-2.75c0-0.367-0.07-0.721-0.209-1.055c-0.036-0.085-0.038-0.174-0.026-0.259
			C11.115,12.011,9.349,12.356,7.512,12.449z"/>
		<path d="M19.516,11.5c1.084,0,2.041-0.504,2.684-1.277c-0.36,0.068-0.709,0.109-1.037,0.109c-1.013,0-1.864-0.328-2.516-0.979
			c-0.195-0.194-0.195-0.511,0-0.706c0.195-0.195,0.512-0.195,0.707,0c0.955,0.953,2.424,0.734,3.488,0.379c0.001,0,0.002,0,0.004,0
			c0.1-0.326,0.17-0.666,0.17-1.025c0-1.934-1.566-3.5-3.5-3.5h-0.5V3c0-1.105-0.896-2-2-2s-2,0.895-2,2l-0.001,0.678
			C13.516,4.5,12.516,5.648,12.516,7.5c0,1.352,0.5,2.5,1.224,3.254l0.269,0.232c-0.132,0.057-0.272,0.096-0.406,0.149
			c0.053,0.048,0.098,0.104,0.126,0.175c0.191,0.457,0.287,0.941,0.287,1.439c0,2.066-1.682,3.75-3.75,3.75
			c-2.067,0-3.75-1.684-3.75-3.75c0-0.085,0.004-0.168,0.009-0.25c-0.003,0-0.006,0-0.009,0c-2.269,0-3.995-0.279-6.016-1
			l3.949,5.492c0.793,1.375,2.041,2.457,3.538,3.037l1.54,3.584C9.58,23.834,9.778,24,10.016,24h4c0.828,0,1.5-0.172,1.5-1
			c0-0.83-0.672-1.5-1.5-1.5h-2.012l1.028-1.467c1.497-0.576,2.745-1.652,3.541-3.023l1.557,0.816
			C18.316,17.935,18.533,18,18.766,18c0.691,0,1.25-0.56,1.25-1.25c0-0.531-0.332-0.986-0.799-1.166l-1.801-0.898
			c0.062-0.359,0.51-1.943,0.572-3.371C18.482,11.434,19.124,11.5,19.516,11.5z M17.516,4.531c0,0.275-0.224,0.5-0.5,0.5
			c-0.276,0-0.5-0.225-0.5-0.5V3.547c0-0.277,0.224-0.5,0.5-0.5c0.276,0,0.5,0.223,0.5,0.5V4.531z"/>
	</g>
</g>
<g id="invisible_shape">
	<rect fill="none" width="24" height="24"/>
</g>
</svg>
