<?xml version="1.0" encoding="utf-8"?>
<!-- Generator: Adobe Illustrator 19.2.1, SVG Export Plug-In . SVG Version: 6.00 Build 0)  -->
<svg version="1.1" xmlns="http://www.w3.org/2000/svg" xmlns:xlink="http://www.w3.org/1999/xlink" x="0px" y="0px" width="24px"
	 height="24px" viewBox="0 0 24 24" enable-background="new 0 0 24 24" xml:space="preserve">
<g id="Filled_Icons_1_">
	<g id="Filled_Icons">
	</g>
	<g id="New_icons">
		<g>
			<path d="M20.854,17.646l-1.5-1.5C19.26,16.053,19.133,16,19,16h-7.348c-0.84-2.373-3.111-4-5.652-4c-3.309,0-6,2.691-6,6
				s2.691,6,6,6c2.541,0,4.812-1.627,5.652-4h0.641l0.853,0.854c0.195,0.195,0.512,0.195,0.707,0L14.707,20h0.586l0.853,0.854
				c0.195,0.195,0.512,0.195,0.707,0L17.707,20H19c0.133,0,0.26-0.053,0.354-0.146l1.5-1.5
				C21.049,18.158,21.049,17.842,20.854,17.646z M4,19.5c-0.828,0-1.5-0.672-1.5-1.5c0-0.829,0.672-1.5,1.5-1.5s1.5,0.671,1.5,1.5
				C5.5,18.828,4.828,19.5,4,19.5z"/>
			<path d="M23.5,7H22V5c0-2.757-2.243-5-5-5s-5,2.243-5,5v2h-1.5C10.224,7,10,7.224,10,7.5v4.783
				c0.981,0.688,1.793,1.611,2.319,2.717H19c0.397,0,0.779,0.158,1.06,0.439l1.5,1.5C21.854,17.232,22,17.616,22,18h1.5
				c0.276,0,0.5-0.224,0.5-0.5v-10C24,7.224,23.776,7,23.5,7z M17.5,11.347V13c0,0.276-0.224,0.5-0.5,0.5s-0.5-0.224-0.5-0.5v-1.653
				C16.207,11.172,16,10.865,16,10.5c0-0.551,0.448-1,1-1s1,0.449,1,1C18,10.865,17.793,11.172,17.5,11.347z M21,7h-8V5
				c0-2.206,1.794-4,4-4s4,1.794,4,4V7z"/>
		</g>
	</g>
</g>
<g id="Invisible_Shape">
	<rect fill="none" width="24" height="24"/>
</g>
</svg>
