<?xml version="1.0" encoding="utf-8"?>
<!-- Generator: Adobe Illustrator 19.2.1, SVG Export Plug-In . SVG Version: 6.00 Build 0)  -->
<svg version="1.1" xmlns="http://www.w3.org/2000/svg" xmlns:xlink="http://www.w3.org/1999/xlink" x="0px" y="0px" width="24px"
	 height="24px" viewBox="0 0 24 24" enable-background="new 0 0 24 24" xml:space="preserve">
<g id="Filled_Icons_1_">
	<g id="Filled_Icons">
		<path d="M20.5,9H18V6c0-3.309-2.692-6-6-6C8.691,0,6,2.691,6,6v3H3.501c-0.276,0-0.5,0.224-0.5,0.5v14c0,0.276,0.224,0.5,0.5,0.5
			H20.5c0.276,0,0.5-0.224,0.5-0.5v-14C21,9.224,20.776,9,20.5,9z M7,6c0-2.757,2.242-5,5-5c2.757,0,5,2.243,5,5v3H7V6z M12.5,15.86
			v2.64c0,0.275-0.225,0.5-0.5,0.5c-0.276,0-0.5-0.225-0.5-0.5v-2.64C11.202,15.688,11,15.368,11,15c0-0.552,0.448-1,1-1
			c0.551,0,1,0.448,1,1C13,15.368,12.797,15.688,12.5,15.86z"/>
	</g>
	<g id="New_icons">
	</g>
</g>
<g id="Invisible_Shape">
	<rect fill="none" width="24" height="24"/>
</g>
</svg>
