<?xml version="1.0" encoding="utf-8"?>
<!-- Generator: Adobe Illustrator 19.2.1, SVG Export Plug-In . SVG Version: 6.00 Build 0)  -->
<svg version="1.1" xmlns="http://www.w3.org/2000/svg" xmlns:xlink="http://www.w3.org/1999/xlink" x="0px" y="0px" width="24px"
	 height="24px" viewBox="0 0 24 24" enable-background="new 0 0 24 24" xml:space="preserve">
<g id="Filled_Icons_1_">
	<g id="Filled_Icons">
	</g>
	<g id="New_icons">
		<g>
			<g>
				<path d="M13,13h4V6.5C17,2.916,14.084,0,10.5,0S4,2.916,4,6.5v9C4,15.776,4.224,16,4.5,16h3C7.776,16,8,15.776,8,15.5V7
					c0-1.378,1.121-2.5,2.5-2.5S13,5.622,13,7V13z"/>
				<path d="M13,14v1.5c0,0.276,0.224,0.5,0.5,0.5h3c0.276,0,0.5-0.224,0.5-0.5V14H13z"/>
			</g>
			<g>
				<path d="M19,17.5c0-0.276-0.224-0.5-0.5-0.5H4v7h14.5c0.276,0,0.5-0.224,0.5-0.5V17.5z"/>
				<path d="M3,17H0.5C0.224,17,0,17.224,0,17.5v6C0,23.776,0.224,24,0.5,24H3V17z"/>
				<path d="M21.5,18H20v5h1.5c1.379,0,2.5-1.122,2.5-2.5S22.879,18,21.5,18z"/>
			</g>
		</g>
	</g>
</g>
<g id="Invisible_Shape">
	<rect fill="none" width="24" height="24"/>
</g>
</svg>
