<?xml version="1.0" encoding="utf-8"?>
<!-- Generator: Adobe Illustrator 19.2.1, SVG Export Plug-In . SVG Version: 6.00 Build 0)  -->
<svg version="1.1" xmlns="http://www.w3.org/2000/svg" xmlns:xlink="http://www.w3.org/1999/xlink" x="0px" y="0px" width="24px"
	 height="24px" viewBox="0 0 24 24" enable-background="new 0 0 24 24" xml:space="preserve">
<g id="Filled_Icons_1_">
	<g id="Filled_Icons">
		<path d="M20.499,9H18V6c0-3.309-2.692-6-6-6C8.691,0,6,2.691,6,6c0,0.276,0.224,0.5,0.5,0.5S7,6.276,7,6c0-2.757,2.242-5,5-5
			c2.757,0,5,2.243,5,5v3H3.5C3.224,9,3,9.224,3,9.5v14C3,23.776,3.224,24,3.5,24h16.999c0.276,0,0.5-0.224,0.5-0.5v-14
			C20.999,9.224,20.775,9,20.499,9z M12.499,15.86v2.64c0,0.275-0.225,0.5-0.5,0.5c-0.276,0-0.5-0.225-0.5-0.5v-2.64
			c-0.298-0.173-0.5-0.492-0.5-0.86c0-0.552,0.448-1,1-1c0.551,0,1,0.448,1,1C12.999,15.368,12.796,15.688,12.499,15.86z"/>
	</g>
	<g id="New_icons">
	</g>
</g>
<g id="Invisible_Shape">
	<rect fill="none" width="24" height="24"/>
</g>
</svg>
