<?xml version="1.0" encoding="utf-8"?>
<!-- Generator: Adobe Illustrator 19.2.1, SVG Export Plug-In . SVG Version: 6.00 Build 0)  -->
<svg version="1.1" xmlns="http://www.w3.org/2000/svg" xmlns:xlink="http://www.w3.org/1999/xlink" x="0px" y="0px" width="24px"
	 height="24px" viewBox="0 0 24 24" enable-background="new 0 0 24 24" xml:space="preserve">
<g id="Filled_Icons_1_">
	<g id="Filled_Icons">
		<g>
			<g>
				<path d="M21.5,0h-15C6.224,0,6,0.224,6,0.5v4.548C6.166,5.029,6.329,5,6.5,5c2.34,0,4.268,1.794,4.481,4.079
					C11.572,9.28,12,9.841,12,10.5v7c0,0.827-0.673,1.5-1.5,1.5H6v4.5C6,23.776,6.224,24,6.5,24h15c0.276,0,0.5-0.224,0.5-0.5v-23
					C22,0.224,21.776,0,21.5,0z"/>
			</g>
			<path d="M10.5,10H10V9.5C10,7.57,8.43,6,6.5,6S3,7.57,3,9.5V10H2.5C2.224,10,2,10.224,2,10.5v7C2,17.776,2.224,18,2.5,18h8
				c0.276,0,0.5-0.224,0.5-0.5v-7C11,10.224,10.776,10,10.5,10z M4,9.5C4,8.121,5.121,7,6.5,7S9,8.121,9,9.5V10H4V9.5z M7,13.847
				l-0.001,1.654c0,0.276-0.224,0.5-0.5,0.5c-0.276,0-0.5-0.224-0.5-0.5L6,13.847C5.706,13.672,5.5,13.365,5.5,13
				c0-0.552,0.448-1,1-1s1,0.448,1,1C7.5,13.365,7.293,13.672,7,13.847z"/>
		</g>
	</g>
	<g id="New_icons">
	</g>
</g>
<g id="Invisible_Shape">
	<rect fill="none" width="24" height="24"/>
</g>
</svg>
