<?xml version="1.0" encoding="utf-8"?>
<!-- Generator: Adobe Illustrator 19.2.1, SVG Export Plug-In . SVG Version: 6.00 Build 0)  -->
<svg version="1.1" xmlns="http://www.w3.org/2000/svg" xmlns:xlink="http://www.w3.org/1999/xlink" x="0px" y="0px" width="24px"
	 height="24px" viewBox="0 0 24 24" enable-background="new 0 0 24 24" xml:space="preserve">
<g id="Filled_Icons_1_">
	<g id="Filled_Icons">
		<path d="M20.5,10H18V7c0-3.309-2.691-6-6-6S6,3.691,6,7v3H3.5C3.224,10,3,10.224,3,10.5v13C3,23.776,3.224,24,3.5,24h17
			c0.276,0,0.5-0.224,0.5-0.5v-13C21,10.224,20.776,10,20.5,10z M7,7c0-2.757,2.243-5,5-5s5,2.243,5,5v3H7V7z M16,15h-2v-2h2V15z
			 M11,18v-2h2v2H11z M13,19v2h-2v-2H13z M13,13v2h-2v-2H13z M10,15H8v-2h2V15z M8,16h2v2H8V16z M14,16h2v2h-2V16z M8,19h2v2H8V19z
			 M14,21v-2h2v2H14z"/>
	</g>
	<g id="New_icons">
	</g>
</g>
<g id="Invisible_Shape">
	<rect fill="none" width="24" height="24"/>
</g>
</svg>
