<?xml version="1.0" encoding="utf-8"?>
<!-- Generator: Adobe Illustrator 19.2.1, SVG Export Plug-In . SVG Version: 6.00 Build 0)  -->
<svg version="1.1" xmlns="http://www.w3.org/2000/svg" xmlns:xlink="http://www.w3.org/1999/xlink" x="0px" y="0px" width="24px"
	 height="24px" viewBox="0 0 24 24" enable-background="new 0 0 24 24" xml:space="preserve">
<g id="Filled_Icons_1_">
	<g id="Filled_Icons">
		<path d="M18,10.726V6.007C18,2.582,15.635,0,12.5,0C9.467,0,7,2.467,7,5.5C7,5.776,7.224,6,7.5,6S8,5.776,8,5.5
			C8,3.018,10.019,1,12.5,1C15.107,1,17,3.105,17,6.007v3.759C15.629,8.664,13.891,8,12,8c-4.412,0-8,3.588-8,8c0,4.411,3.588,8,8,8
			c4.41,0,8-3.589,8-8C20,13.979,19.24,12.136,18,10.726z M12.5,16.86v2.64c0,0.275-0.225,0.5-0.5,0.5c-0.276,0-0.5-0.225-0.5-0.5
			v-2.64C11.202,16.688,11,16.368,11,16c0-0.552,0.448-1,1-1c0.551,0,1,0.448,1,1C13,16.368,12.797,16.688,12.5,16.86z"/>
	</g>
	<g id="New_icons">
	</g>
</g>
<g id="Invisible_Shape">
	<rect fill="none" width="24" height="24"/>
</g>
</svg>
