<?xml version="1.0" encoding="utf-8"?>
<!-- Generator: Adobe Illustrator 19.2.1, SVG Export Plug-In . SVG Version: 6.00 Build 0)  -->
<svg version="1.1" xmlns="http://www.w3.org/2000/svg" xmlns:xlink="http://www.w3.org/1999/xlink" x="0px" y="0px" width="24px"
	 height="24px" viewBox="0 0 24 24" enable-background="new 0 0 24 24" xml:space="preserve">
<g id="Filled_Icons_1_">
	<g id="Filled_Icons">
		<path d="M18,9.276V6c0-3.309-2.691-6-6-6S6,2.691,6,6c0,0.276,0.224,0.5,0.5,0.5S7,6.276,7,6c0-2.757,2.243-5,5-5s5,2.243,5,5v3
			H7.5C5.019,9,3,11.019,3,13.5v6C3,21.981,5.019,24,7.5,24h9c2.481,0,4.5-2.019,4.5-4.5v-6C21,11.547,19.742,9.898,18,9.276z
			 M12,18c-1.106,0-2-0.895-2-2c0-1.106,0.894-2,2-2c1.104,0,2,0.894,2,2C14,17.105,13.104,18,12,18z"/>
	</g>
	<g id="New_icons">
	</g>
</g>
<g id="Invisible_Shape">
	<rect fill="none" width="24" height="24"/>
</g>
</svg>
