<?xml version="1.0" encoding="utf-8"?>
<!-- Generator: Adobe Illustrator 19.2.1, SVG Export Plug-In . SVG Version: 6.00 Build 0)  -->
<svg version="1.1" xmlns="http://www.w3.org/2000/svg" xmlns:xlink="http://www.w3.org/1999/xlink" x="0px" y="0px" width="24px"
	 height="24px" viewBox="0 0 24 24" enable-background="new 0 0 24 24" xml:space="preserve">
<g id="Filled_Icons_1_">
	<g id="Filled_Icons">
		<g>
			<path d="M15,15.5h0.449c-0.221-1.526-1.422-2.729-2.949-2.949V13c0,0.276-0.224,0.5-0.5,0.5s-0.5-0.224-0.5-0.5v-0.449
				c-1.527,0.221-2.729,1.423-2.949,2.949H9c0.276,0,0.5,0.224,0.5,0.5S9.276,16.5,9,16.5H8.551
				c0.221,1.527,1.422,2.728,2.949,2.949V19c0-0.276,0.224-0.5,0.5-0.5s0.5,0.224,0.5,0.5v0.449
				c1.527-0.222,2.729-1.422,2.949-2.949H15c-0.276,0-0.5-0.224-0.5-0.5S14.724,15.5,15,15.5z M12,17c-0.552,0-1-0.449-1-1
				c0-0.551,0.448-1,1-1s1,0.449,1,1C13,16.551,12.552,17,12,17z"/>
			<path d="M18,10.726l-0.008-5.315C17.424,2.275,14.904,0,12,0S6.576,2.275,6,5.5v5.227C4.76,12.136,4,13.979,4,16
				c0,4.411,3.589,8,8,8s8-3.589,8-8C20,13.979,19.24,12.136,18,10.726z M12,1c2.42,0,4.526,1.931,5,4.5v4.265
				C15.629,8.663,13.892,8,12,8c-1.893,0-3.631,0.664-5.002,1.766L6.992,5.589C7.474,2.931,9.58,1,12,1z M17,16.5h-0.551
				c-0.233,2.078-1.872,3.716-3.949,3.949V21c0,0.276-0.224,0.5-0.5,0.5s-0.5-0.224-0.5-0.5v-0.551
				c-2.077-0.233-3.716-1.872-3.949-3.949H7c-0.276,0-0.5-0.224-0.5-0.5s0.224-0.5,0.5-0.5h0.551
				c0.233-2.077,1.872-3.716,3.949-3.949V11c0-0.276,0.224-0.5,0.5-0.5s0.5,0.224,0.5,0.5v0.551
				c2.077,0.233,3.716,1.872,3.949,3.949H17c0.276,0,0.5,0.224,0.5,0.5S17.276,16.5,17,16.5z"/>
		</g>
	</g>
	<g id="New_icons">
	</g>
</g>
<g id="Invisible_Shape">
	<rect fill="none" width="24" height="24"/>
</g>
</svg>
