<?xml version="1.0" encoding="utf-8"?>
<!-- Generator: Adobe Illustrator 19.2.1, SVG Export Plug-In . SVG Version: 6.00 Build 0)  -->
<svg version="1.1" xmlns="http://www.w3.org/2000/svg" xmlns:xlink="http://www.w3.org/1999/xlink" x="0px" y="0px" width="24px"
	 height="24px" viewBox="0 0 24 24" enable-background="new 0 0 24 24" xml:space="preserve">
<g id="Filled_Icons_1_">
	<g id="Filled_Icons">
	</g>
	<g id="New_icons">
		<g>
			<path d="M22,3V0.5C22,0.224,21.776,0,21.5,0h-19C2.224,0,2,0.224,2,0.5V3H22z"/>
			<path d="M12,7c-1.379,0-2.5,1.122-2.5,2.5V10h5V9.5C14.5,8.122,13.379,7,12,7z"/>
			<path d="M12,12c-0.552,0-1,0.449-1,1c0,0.365,0.207,0.672,0.5,0.847V15.5c0,0.276,0.224,0.5,0.5,0.5s0.5-0.224,0.5-0.5v-1.653
				C12.793,13.672,13,13.365,13,13C13,12.449,12.552,12,12,12z"/>
			<path d="M2,4v3.766c0,6.809,3.742,13.007,9.768,16.177c0.146,0.077,0.319,0.077,0.465,0C18.258,20.772,22,14.574,22,7.766V4H2z
				 M17,17.5c0,0.276-0.224,0.5-0.5,0.5h-9C7.224,18,7,17.776,7,17.5v-7C7,10.224,7.224,10,7.5,10h1V9.5C8.5,7.57,10.07,6,12,6
				s3.5,1.57,3.5,3.5V10h1c0.276,0,0.5,0.224,0.5,0.5V17.5z"/>
		</g>
	</g>
</g>
<g id="Invisible_Shape">
	<rect fill="none" width="24" height="24"/>
</g>
</svg>
