<?xml version="1.0" encoding="utf-8"?>
<!-- Generator: Adobe Illustrator 16.0.3, SVG Export Plug-In . SVG Version: 6.00 Build 0)  -->
<!DOCTYPE svg PUBLIC "-//W3C//DTD SVG 1.1//EN" "http://www.w3.org/Graphics/SVG/1.1/DTD/svg11.dtd">
<svg version="1.1" xmlns="http://www.w3.org/2000/svg" xmlns:xlink="http://www.w3.org/1999/xlink" x="0px" y="0px" width="24px"
	 height="24px" viewBox="0 0 24 24" enable-background="new 0 0 24 24" xml:space="preserve">
<g id="Outline_Icons_1_">
	<g id="Outline_Icons">
		<g>
			<polyline fill="none" stroke="#000000" stroke-linejoin="round" stroke-miterlimit="10" points="11.5,6.5 11.5,0.5 19,0.5 
				21.5,2.5 21.5,6.5 			"/>
			<line fill="none" stroke="#000000" stroke-linejoin="round" stroke-miterlimit="10" x1="13" y1="2.5" x2="17.5" y2="2.5"/>
			<line fill="none" stroke="#000000" stroke-linejoin="round" stroke-miterlimit="10" x1="13" y1="4.5" x2="20" y2="4.5"/>
			<path fill="none" stroke="#000000" stroke-linejoin="round" stroke-miterlimit="10" d="M9.5,21.5c0,1.104-0.896,2-2,2h-3
				c-1.104,0-2-0.896-2-2v-16c0-1.104,0.896-2,2-2h3c1.104,0,2,0.896,2,2V21.5z"/>
			<path fill="none" stroke="#000000" stroke-linejoin="round" stroke-miterlimit="10" d="M9.5,6.5h13c0.55,0,1,0.45,1,1v13
				c0,0.55-0.45,1-1,1h-13"/>
			<path fill="none" stroke="#000000" stroke-linejoin="round" stroke-miterlimit="10" d="M2.5,21.5h-1c-0.55,0-1-0.45-1-1v-13
				c0-0.55,0.45-1,1-1h1"/>
			<rect x="13.5" y="8.5" fill="none" stroke="#000000" stroke-linejoin="round" stroke-miterlimit="10" width="6" height="2"/>
			
				<line fill="none" stroke="#000000" stroke-linecap="round" stroke-linejoin="round" stroke-miterlimit="10" x1="4.5" y1="3.5" x2="4.5" y2="0.5"/>
			<g>
				<g>
					<g>
						<polygon points="14,13 13,13 13,14 14,14 14,13 						"/>
					</g>
				</g>
			</g>
			<g>
				<g>
					<g>
						<polygon points="17,13 16,13 16,14 17,14 17,13 						"/>
					</g>
				</g>
			</g>
			<g>
				<g>
					<g>
						<polygon points="20,13 19,13 19,14 20,14 20,13 						"/>
					</g>
				</g>
			</g>
			<g>
				<g>
					<g>
						<polygon points="14,15 13,15 13,16 14,16 14,15 						"/>
					</g>
				</g>
			</g>
			<g>
				<g>
					<g>
						<polygon points="17,15 16,15 16,16 17,16 17,15 						"/>
					</g>
				</g>
			</g>
			<g>
				<g>
					<g>
						<polygon points="20,15 19,15 19,16 20,16 20,15 						"/>
					</g>
				</g>
			</g>
			<g>
				<g>
					<g>
						<polygon points="14,17 13,17 13,18 14,18 14,17 						"/>
					</g>
				</g>
			</g>
			<g>
				<g>
					<g>
						<polygon points="17,17 16,17 16,18 17,18 17,17 						"/>
					</g>
				</g>
			</g>
			<g>
				<g>
					<g>
						<polygon points="20,17 19,17 19,18 20,18 20,17 						"/>
					</g>
				</g>
			</g>
		</g>
	</g>
	<g id="New_icons_1_">
	</g>
</g>
<g id="Invisible_Shape">
	<rect fill="none" width="24" height="24"/>
</g>
</svg>
