<?xml version="1.0" encoding="utf-8"?>
<!-- Generator: Adobe Illustrator 16.0.3, SVG Export Plug-In . SVG Version: 6.00 Build 0)  -->
<!DOCTYPE svg PUBLIC "-//W3C//DTD SVG 1.1//EN" "http://www.w3.org/Graphics/SVG/1.1/DTD/svg11.dtd">
<svg version="1.1" xmlns="http://www.w3.org/2000/svg" xmlns:xlink="http://www.w3.org/1999/xlink" x="0px" y="0px" width="24px"
	 height="24px" viewBox="0 0 24 24" enable-background="new 0 0 24 24" xml:space="preserve">
<g id="Outline_Icons_1_">
	<g id="Outline_Icons">
		<g>
			<path fill="none" stroke="#000000" stroke-linecap="round" stroke-linejoin="round" stroke-miterlimit="10" d="M21,3.409
				c1.381,0.282,2.5,1.501,2.5,2.91V8.5c0,1.093-0.907,2.181-2,2.181h-3c-1.093,0-2-1.088-2-2.181V6.819
				c-2.965-0.294-6.033-0.294-9,0V8.5c0,1.093-0.907,2.181-2,2.181h-3c-1.093,0-2-1.088-2-2.181V6.319c0-1.409,1.119-2.628,2.5-2.91
				C8.751,2.238,14.848,2.156,21,3.409z"/>
			<path fill="none" stroke="#000000" stroke-linejoin="round" stroke-miterlimit="10" d="M18.5,12v7.5c0,1.101-0.9,2-2,2h-10
				c-1.1,0-2-0.899-2-2V12"/>
			<g>
				<g>
					<g>
						<g>
							<polygon points="9,13 8,13 8,14 9,14 9,13 							"/>
						</g>
					</g>
				</g>
				<g>
					<g>
						<g>
							<polygon points="12,13 11,13 11,14 12,14 12,13 							"/>
						</g>
					</g>
				</g>
				<g>
					<g>
						<g>
							<polygon points="15,13 14,13 14,14 15,14 15,13 							"/>
						</g>
					</g>
				</g>
				<g>
					<g>
						<g>
							<polygon points="9,15 8,15 8,16 9,16 9,15 							"/>
						</g>
					</g>
				</g>
				<g>
					<g>
						<g>
							<polygon points="12,15 11,15 11,16 12,16 12,15 							"/>
						</g>
					</g>
				</g>
				<g>
					<g>
						<g>
							<polygon points="15,15 14,15 14,16 15,16 15,15 							"/>
						</g>
					</g>
				</g>
				<g>
					<g>
						<g>
							<polygon points="9,17 8,17 8,18 9,18 9,17 							"/>
						</g>
					</g>
				</g>
				<g>
					<g>
						<g>
							<polygon points="12,17 11,17 11,18 12,18 12,17 							"/>
						</g>
					</g>
				</g>
				<g>
					<g>
						<g>
							<polygon points="15,17 14,17 14,18 15,18 15,17 							"/>
						</g>
					</g>
				</g>
			</g>
		</g>
	</g>
	<g id="New_icons_1_">
	</g>
</g>
<g id="Invisible_Shape">
	<rect fill="none" width="24" height="24"/>
</g>
</svg>
