<?xml version="1.0" encoding="utf-8"?>
<!-- Generator: Adobe Illustrator 16.0.3, SVG Export Plug-In . SVG Version: 6.00 Build 0)  -->
<!DOCTYPE svg PUBLIC "-//W3C//DTD SVG 1.1//EN" "http://www.w3.org/Graphics/SVG/1.1/DTD/svg11.dtd">
<svg version="1.1" xmlns="http://www.w3.org/2000/svg" xmlns:xlink="http://www.w3.org/1999/xlink" x="0px" y="0px" width="24px"
	 height="24px" viewBox="0 0 24 24" enable-background="new 0 0 24 24" xml:space="preserve">
<g id="Outline_Icons_1_">
	<g id="Outline_Icons">
		<g>
			<g>
				<circle fill="none" stroke="#000000" stroke-linejoin="round" stroke-miterlimit="10" cx="17.5" cy="6.5" r="6"/>
				
					<line fill="none" stroke="#000000" stroke-linecap="round" stroke-linejoin="round" stroke-miterlimit="10" x1="15" y1="6.5" x2="20" y2="6.5"/>
				
					<line fill="none" stroke="#000000" stroke-linecap="round" stroke-linejoin="round" stroke-miterlimit="10" x1="17.5" y1="9" x2="17.5" y2="4"/>
			</g>
			<g>
				<path fill="none" stroke="#000000" stroke-linecap="round" stroke-linejoin="round" stroke-miterlimit="10" d="M7.492,10.012
					c0.779-0.78,0.779-2.047,0-2.828L5.37,5.062c-0.78-0.781-2.048-0.781-2.829,0L1.378,6.226c-1.01,1.01-1.165,2.584-0.379,3.775
					c3.381,5.11,7.89,9.619,13,13c1.188,0.785,2.768,0.628,3.774-0.379l1.164-1.164c0.781-0.78,0.781-2.047,0-2.828l-2.121-2.121
					c-0.781-0.781-2.047-0.781-2.829,0l-0.706,0.707c-2.327-1.906-4.591-4.171-6.497-6.497L7.492,10.012z"/>
			</g>
		</g>
	</g>
	<g id="New_icons_1_">
	</g>
</g>
<g id="Invisible_Shape">
	<rect fill="none" width="24" height="24"/>
</g>
</svg>
