<?xml version="1.0" encoding="utf-8"?>
<!-- Generator: Adobe Illustrator 16.0.3, SVG Export Plug-In . SVG Version: 6.00 Build 0)  -->
<!DOCTYPE svg PUBLIC "-//W3C//DTD SVG 1.1//EN" "http://www.w3.org/Graphics/SVG/1.1/DTD/svg11.dtd">
<svg version="1.1" xmlns="http://www.w3.org/2000/svg" xmlns:xlink="http://www.w3.org/1999/xlink" x="0px" y="0px" width="24px"
	 height="24px" viewBox="0 0 24 24" enable-background="new 0 0 24 24" xml:space="preserve">
<g id="Outline_Icons_1_">
	<g id="Outline_Icons">
		<g>
			<g>
				
					<circle fill="none" stroke="#000000" stroke-linecap="round" stroke-linejoin="round" stroke-miterlimit="10" cx="12.523" cy="7.639" r="1"/>
				
					<circle fill="none" stroke="#000000" stroke-linecap="round" stroke-linejoin="round" stroke-miterlimit="10" cx="16.523" cy="7.639" r="1"/>
				
					<circle fill="none" stroke="#000000" stroke-linecap="round" stroke-linejoin="round" stroke-miterlimit="10" cx="20.523" cy="7.639" r="1"/>
			</g>
			<path fill="none" stroke="#000000" stroke-linecap="round" stroke-linejoin="round" stroke-miterlimit="10" d="M7.491,10.012
				c0.781-0.781,0.781-2.047,0-2.828L5.37,5.062c-0.781-0.781-2.048-0.781-2.829,0L1.378,6.226C0.368,7.234,0.212,8.81,1,10
				c3.38,5.111,7.889,9.62,13,13c1.188,0.786,2.767,0.629,3.773-0.379l1.164-1.163c0.781-0.781,0.781-2.047,0-2.828l-2.121-2.121
				c-0.781-0.781-2.048-0.781-2.829,0l-0.707,0.707c-2.325-1.907-4.59-4.171-6.496-6.497L7.491,10.012z"/>
		</g>
	</g>
	<g id="New_icons_1_">
	</g>
</g>
<g id="Invisible_Shape">
	<rect fill="none" width="24" height="24"/>
</g>
</svg>
