<?xml version="1.0" encoding="utf-8"?>
<!-- Generator: Adobe Illustrator 16.0.3, SVG Export Plug-In . SVG Version: 6.00 Build 0)  -->
<!DOCTYPE svg PUBLIC "-//W3C//DTD SVG 1.1//EN" "http://www.w3.org/Graphics/SVG/1.1/DTD/svg11.dtd">
<svg version="1.1" xmlns="http://www.w3.org/2000/svg" xmlns:xlink="http://www.w3.org/1999/xlink" x="0px" y="0px" width="24px"
	 height="24px" viewBox="0 0 24 24" enable-background="new 0 0 24 24" xml:space="preserve">
<g id="Outline_Icons_1_">
	<g id="Outline_Icons">
		<g>
			<path fill="none" stroke="#000000" stroke-linecap="round" stroke-linejoin="round" stroke-miterlimit="10" d="M7.491,10.014
				c0.781-0.78,0.781-2.047,0-2.828L5.37,5.063c-0.781-0.78-2.048-0.78-2.829,0L1.378,6.228C0.368,7.237,0.213,8.812,1,10.002
				c3.38,5.111,7.889,9.62,13,13c1.188,0.786,2.768,0.629,3.773-0.378l1.164-1.164c0.781-0.781,0.781-2.047,0-2.828l-2.121-2.121
				c-0.781-0.781-2.048-0.781-2.829,0l-0.706,0.707c-2.327-1.906-4.591-4.171-6.497-6.497L7.491,10.014z"/>
			<polyline fill="none" stroke="#000000" stroke-linecap="round" stroke-linejoin="round" stroke-miterlimit="10" points="11.5,9 
				11.5,3.5 17,3.5 			"/>
			<polyline fill="none" stroke="#000000" stroke-linecap="round" stroke-linejoin="round" stroke-miterlimit="10" points="
				11.5,3.5 17.472,9.5 23.472,3.5 			"/>
		</g>
	</g>
	<g id="New_icons_1_">
	</g>
</g>
<g id="Invisible_Shape">
	<rect fill="none" width="24" height="24"/>
</g>
</svg>
