<?xml version="1.0" encoding="utf-8"?>
<!-- Generator: Adobe Illustrator 16.0.3, SVG Export Plug-In . SVG Version: 6.00 Build 0)  -->
<!DOCTYPE svg PUBLIC "-//W3C//DTD SVG 1.1//EN" "http://www.w3.org/Graphics/SVG/1.1/DTD/svg11.dtd">
<svg version="1.1" xmlns="http://www.w3.org/2000/svg" xmlns:xlink="http://www.w3.org/1999/xlink" x="0px" y="0px" width="24px"
	 height="24px" viewBox="0 0 24 24" enable-background="new 0 0 24 24" xml:space="preserve">
<g id="Outline_Icons_1_">
	<g id="Outline_Icons">
		<g>
			<g>
				<path fill="none" stroke="#000000" stroke-linecap="round" stroke-linejoin="round" stroke-miterlimit="10" d="M7.501,10.014
					c0.781-0.781,0.781-2.048,0-2.828L5.38,5.063c-0.781-0.78-2.048-0.78-2.829,0L1.388,6.228c-1.01,1.009-1.166,2.584-0.379,3.774
					c3.381,5.11,7.89,9.62,13,13c1.188,0.786,2.768,0.629,3.774-0.379l1.164-1.163c0.781-0.781,0.781-2.048,0-2.828l-2.121-2.121
					c-0.781-0.781-2.048-0.781-2.829,0l-0.707,0.706c-2.326-1.906-4.59-4.17-6.496-6.496L7.501,10.014z"/>
			</g>
			<g>
				<polyline fill="none" stroke="#000000" stroke-linecap="round" stroke-linejoin="round" stroke-miterlimit="10" points="
					14.5,2.5 21.552,9.5 18.5,12.5 18.5,0.5 21.552,3.5 14.474,10.5 				"/>
			</g>
		</g>
	</g>
	<g id="New_icons_1_">
	</g>
</g>
<g id="Invisible_Shape">
	<rect fill="none" width="24" height="24"/>
</g>
</svg>
