<?xml version="1.0" encoding="utf-8"?>
<!-- Generator: Adobe Illustrator 16.0.3, SVG Export Plug-In . SVG Version: 6.00 Build 0)  -->
<!DOCTYPE svg PUBLIC "-//W3C//DTD SVG 1.1//EN" "http://www.w3.org/Graphics/SVG/1.1/DTD/svg11.dtd">
<svg version="1.1" xmlns="http://www.w3.org/2000/svg" xmlns:xlink="http://www.w3.org/1999/xlink" x="0px" y="0px" width="24px"
	 height="24px" viewBox="0 0 24 24" enable-background="new 0 0 24 24" xml:space="preserve">
<g id="Outline_Icons_1_">
	<g id="Outline_Icons">
		<g>
			<path fill="none" stroke="#000000" stroke-linecap="round" stroke-linejoin="round" stroke-miterlimit="10" d="M8.586,7.902
				c0.902-0.903,0.902-2.368,0-3.271L6.132,2.178c-0.903-0.903-2.368-0.903-3.271,0L1.516,3.523
				C0.348,4.691,0.167,6.512,1.077,7.889c3.909,5.91,9.124,11.125,15.034,15.034c1.375,0.909,3.201,0.728,4.365-0.438l1.346-1.346
				c0.903-0.903,0.903-2.368,0-3.271l-2.453-2.453c-0.902-0.904-2.367-0.904-3.271,0l-0.817,0.817
				c-2.69-2.204-5.309-4.823-7.513-7.514L8.586,7.902z"/>
		</g>
	</g>
	<g id="New_icons_1_">
	</g>
</g>
<g id="Invisible_Shape">
	<rect fill="none" width="24" height="24"/>
</g>
</svg>
