<?xml version="1.0" encoding="utf-8"?>
<!-- Generator: Adobe Illustrator 16.0.3, SVG Export Plug-In . SVG Version: 6.00 Build 0)  -->
<!DOCTYPE svg PUBLIC "-//W3C//DTD SVG 1.1//EN" "http://www.w3.org/Graphics/SVG/1.1/DTD/svg11.dtd">
<svg version="1.1" xmlns="http://www.w3.org/2000/svg" xmlns:xlink="http://www.w3.org/1999/xlink" x="0px" y="0px" width="24px"
	 height="24px" viewBox="0 0 24 24" enable-background="new 0 0 24 24" xml:space="preserve">
<g id="Outline_Icons_1_">
	<g id="Outline_Icons">
		<g>
			<path fill="none" stroke="#000000" stroke-linecap="round" stroke-linejoin="round" stroke-miterlimit="10" d="M10.227,9.028
				c0.634-0.634,0.686-1.61,0.115-2.182l-1.55-1.549c-0.57-0.57-1.547-0.52-2.181,0.115L5.667,6.356
				C4.848,7.176,4.664,8.396,5.223,9.282c2.398,3.803,5.692,7.097,9.496,9.495c0.884,0.559,2.107,0.374,2.925-0.443l0.944-0.944
				c0.634-0.635,0.686-1.611,0.114-2.182l-1.549-1.549c-0.571-0.57-1.547-0.52-2.181,0.114l-0.574,0.573
				c-1.716-1.375-3.37-3.028-4.745-4.745L10.227,9.028z"/>
			<path fill="none" stroke="#000000" stroke-linecap="round" stroke-linejoin="round" stroke-miterlimit="10" d="M18,18
				c0.5,0.5,1.561,5.5-6,5.5C5.648,23.5,0.5,18.352,0.5,12C0.5,5.649,5.648,0.5,12,0.5S23.5,5.649,23.5,12
				c0,2.412-0.742,4.651-2.012,6.5"/>
		</g>
	</g>
	<g id="New_icons_1_">
	</g>
</g>
<g id="Invisible_Shape">
	<rect fill="none" width="24" height="24"/>
</g>
</svg>
