<?xml version="1.0" encoding="utf-8"?>
<!-- Generator: Adobe Illustrator 16.0.3, SVG Export Plug-In . SVG Version: 6.00 Build 0)  -->
<!DOCTYPE svg PUBLIC "-//W3C//DTD SVG 1.1//EN" "http://www.w3.org/Graphics/SVG/1.1/DTD/svg11.dtd">
<svg version="1.1" xmlns="http://www.w3.org/2000/svg" xmlns:xlink="http://www.w3.org/1999/xlink" x="0px" y="0px" width="24px"
	 height="24px" viewBox="0 0 24 24" enable-background="new 0 0 24 24" xml:space="preserve">
<g id="Outline_Icons_1_">
	<g id="Outline_Icons">
		<g>
			<path fill="none" stroke="#000000" stroke-linecap="round" stroke-linejoin="round" stroke-miterlimit="10" d="M10.909,11.16
				c0.493-0.492,0.494-1.292,0.001-1.783L9.572,8.038c-0.493-0.492-1.293-0.492-1.785,0L7.053,8.772
				c-0.636,0.637-0.734,1.629-0.237,2.381c2.131,3.224,4.976,6.068,8.2,8.199c0.749,0.495,1.745,0.397,2.381-0.238l0.733-0.733
				c0.493-0.493,0.493-1.292,0-1.784l-1.338-1.338c-0.493-0.493-1.292-0.493-1.784,0l-0.445,0.445
				c-1.469-1.202-2.896-2.631-4.1-4.098L10.909,11.16z"/>
			<g>
				<path fill="none" stroke="#000000" stroke-linecap="round" stroke-linejoin="round" stroke-miterlimit="10" d="M21.5,0.5h-17
					c-1.104,0-2,0.896-2,2s0.896,2,2,2h17v19h-17c-1.104,0-2-0.896-2-2V3"/>
				
					<line fill="none" stroke="#000000" stroke-linecap="round" stroke-linejoin="round" stroke-miterlimit="10" x1="4.5" y1="2.5" x2="20.5" y2="2.5"/>
			</g>
			
				<line fill="none" stroke="#000000" stroke-linecap="round" stroke-linejoin="round" stroke-miterlimit="10" x1="1.5" y1="7.5" x2="3.5" y2="7.5"/>
			
				<line fill="none" stroke="#000000" stroke-linecap="round" stroke-linejoin="round" stroke-miterlimit="10" x1="1.5" y1="10.5" x2="3.5" y2="10.5"/>
			
				<line fill="none" stroke="#000000" stroke-linecap="round" stroke-linejoin="round" stroke-miterlimit="10" x1="1.5" y1="13.5" x2="3.5" y2="13.5"/>
			
				<line fill="none" stroke="#000000" stroke-linecap="round" stroke-linejoin="round" stroke-miterlimit="10" x1="1.5" y1="16.5" x2="3.5" y2="16.5"/>
			
				<line fill="none" stroke="#000000" stroke-linecap="round" stroke-linejoin="round" stroke-miterlimit="10" x1="1.5" y1="19.5" x2="3.5" y2="19.5"/>
		</g>
	</g>
	<g id="New_icons_1_">
	</g>
</g>
<g id="Invisible_Shape">
	<rect fill="none" width="24" height="24"/>
</g>
</svg>
