<?xml version="1.0" encoding="utf-8"?>
<!-- Generator: Adobe Illustrator 16.0.3, SVG Export Plug-In . SVG Version: 6.00 Build 0)  -->
<!DOCTYPE svg PUBLIC "-//W3C//DTD SVG 1.1//EN" "http://www.w3.org/Graphics/SVG/1.1/DTD/svg11.dtd">
<svg version="1.1" xmlns="http://www.w3.org/2000/svg" xmlns:xlink="http://www.w3.org/1999/xlink" x="0px" y="0px" width="24px"
	 height="24px" viewBox="0 0 24 24" enable-background="new 0 0 24 24" xml:space="preserve">
<g id="Outline_Icons_1_">
	<g id="Outline_Icons">
		<g>
			<path fill="none" stroke="#000000" stroke-linecap="round" stroke-linejoin="round" stroke-miterlimit="10" d="M11.898,16.101
				c1.608,1.426,3.312,2.737,5.09,3.912c1.188,0.786,2.768,0.629,3.774-0.378l1.164-1.164c0.78-0.78,0.78-2.047,0-2.828
				l-2.122-2.121c-0.78-0.781-2.047-0.781-2.829,0l-0.706,0.706c-0.452-0.369-0.902-0.754-1.348-1.149"/>
			<path fill="none" stroke="#000000" stroke-linecap="round" stroke-linejoin="round" stroke-miterlimit="10" d="M10.922,9.078
				c-0.395-0.445-0.779-0.895-1.148-1.347l0.707-0.707c0.781-0.781,0.781-2.047,0-2.828L8.358,2.075
				c-0.78-0.781-2.047-0.781-2.828,0L4.366,3.239C3.357,4.248,3.201,5.822,3.988,7.013c1.175,1.776,2.486,3.48,3.911,5.089"/>
			
				<line fill="none" stroke="#000000" stroke-linecap="round" stroke-linejoin="round" stroke-miterlimit="10" x1="23.5" y1="0.5" x2="0.5" y2="23.5"/>
		</g>
	</g>
	<g id="New_icons_1_">
	</g>
</g>
<g id="Invisible_Shape">
	<rect fill="none" width="24" height="24"/>
</g>
</svg>
