<?xml version="1.0" encoding="utf-8"?>
<!-- Generator: Adobe Illustrator 16.0.3, SVG Export Plug-In . SVG Version: 6.00 Build 0)  -->
<!DOCTYPE svg PUBLIC "-//W3C//DTD SVG 1.1//EN" "http://www.w3.org/Graphics/SVG/1.1/DTD/svg11.dtd">
<svg version="1.1" xmlns="http://www.w3.org/2000/svg" xmlns:xlink="http://www.w3.org/1999/xlink" x="0px" y="0px" width="24px"
	 height="24px" viewBox="0 0 24 24" enable-background="new 0 0 24 24" xml:space="preserve">
<g id="Outline_Icons_1_">
	<g id="Outline_Icons">
		<g>
			<path fill="none" stroke="#000000" stroke-linecap="round" stroke-linejoin="round" stroke-miterlimit="10" d="M11.072,10.192
				c-0.317-0.359-0.625-0.724-0.919-1.091l0.574-0.573c0.634-0.634,0.685-1.61,0.114-2.182l-1.55-1.549
				c-0.569-0.57-1.547-0.52-2.181,0.115L6.167,5.856C5.349,6.676,5.164,7.896,5.723,8.782c0.857,1.358,1.828,2.651,2.896,3.862"/>
			<path fill="none" stroke="#000000" stroke-linecap="round" stroke-linejoin="round" stroke-miterlimit="10" d="M11.356,15.383
				c1.211,1.067,2.504,2.038,3.862,2.895c0.884,0.559,2.108,0.374,2.926-0.443l0.943-0.944c0.635-0.635,0.686-1.611,0.115-2.182
				l-1.55-1.549c-0.57-0.57-1.547-0.52-2.181,0.114l-0.573,0.573c-0.367-0.293-0.731-0.6-1.091-0.918"/>
			
				<circle fill="none" stroke="#000000" stroke-linecap="round" stroke-linejoin="round" stroke-miterlimit="10" cx="12" cy="12" r="11.5"/>
			
				<line fill="none" stroke="#000000" stroke-linecap="round" stroke-linejoin="round" stroke-miterlimit="10" x1="20.132" y1="3.869" x2="3.869" y2="20.132"/>
		</g>
	</g>
	<g id="New_icons_1_">
	</g>
</g>
<g id="Invisible_Shape">
	<rect fill="none" width="24" height="24"/>
</g>
</svg>
