<?xml version="1.0" encoding="utf-8"?>
<!-- Generator: Adobe Illustrator 16.0.3, SVG Export Plug-In . SVG Version: 6.00 Build 0)  -->
<!DOCTYPE svg PUBLIC "-//W3C//DTD SVG 1.1//EN" "http://www.w3.org/Graphics/SVG/1.1/DTD/svg11.dtd">
<svg version="1.1" xmlns="http://www.w3.org/2000/svg" xmlns:xlink="http://www.w3.org/1999/xlink" x="0px" y="0px" width="24px"
	 height="24px" viewBox="0 0 24 24" enable-background="new 0 0 24 24" xml:space="preserve">
<g id="Outline_Icons_1_">
	<g id="Outline_Icons">
	</g>
	<g id="New_icons_1_">
		<g>
			<path fill="none" stroke="#000000" stroke-linecap="round" stroke-linejoin="round" stroke-miterlimit="10" d="M7.492,10.037
				c0.779-0.781,0.779-2.047,0-2.828L5.369,5.088c-0.779-0.781-2.047-0.781-2.828,0L1.378,6.252
				c-1.01,1.008-1.165,2.584-0.379,3.773c3.38,5.111,7.89,9.621,13,13c1.188,0.787,2.768,0.629,3.774-0.379l1.164-1.162
				c0.781-0.781,0.781-2.047,0-2.828l-2.121-2.123c-0.781-0.781-2.048-0.781-2.829,0L13.28,17.24
				c-2.326-1.906-4.59-4.17-6.496-6.496L7.492,10.037z"/>
			
				<circle fill="none" stroke="#000000" stroke-linecap="round" stroke-linejoin="round" stroke-miterlimit="10" cx="17.5" cy="6.5" r="6"/>
			
				<circle fill="none" stroke="#000000" stroke-linecap="round" stroke-linejoin="round" stroke-miterlimit="10" cx="17.5" cy="6.5" r="2"/>
		</g>
	</g>
</g>
<g id="Invisible_Shape">
	<rect fill="none" width="24" height="24"/>
</g>
</svg>
