<?xml version="1.0" encoding="utf-8"?>
<!-- Generator: Adobe Illustrator 16.0.3, SVG Export Plug-In . SVG Version: 6.00 Build 0)  -->
<!DOCTYPE svg PUBLIC "-//W3C//DTD SVG 1.1//EN" "http://www.w3.org/Graphics/SVG/1.1/DTD/svg11.dtd">
<svg version="1.1" xmlns="http://www.w3.org/2000/svg" xmlns:xlink="http://www.w3.org/1999/xlink" x="0px" y="0px" width="24px"
	 height="24px" viewBox="0 0 24 24" enable-background="new 0 0 24 24" xml:space="preserve">
<g id="Outline_Icons_1_">
	<g id="Outline_Icons">
		<g>
			<path fill="none" stroke="#000000" stroke-linecap="round" stroke-linejoin="round" stroke-miterlimit="10" d="M7.493,10.012
				c0.78-0.781,0.78-2.048,0-2.829L5.371,5.062c-0.78-0.78-2.047-0.78-2.828,0L1.379,6.226C0.37,7.234,0.213,8.81,1,10
				c3.381,5.11,7.891,9.619,13,13c1.189,0.785,2.769,0.629,3.775-0.379l1.164-1.164c0.781-0.78,0.781-2.047,0-2.828l-2.122-2.121
				c-0.78-0.781-2.047-0.781-2.828,0l-0.707,0.707c-2.326-1.906-4.591-4.17-6.497-6.496L7.493,10.012z"/>
			
				<line fill="none" stroke="#000000" stroke-linecap="round" stroke-linejoin="round" stroke-miterlimit="10" x1="13.5" y1="10.5" x2="23.5" y2="0.5"/>
			<polyline fill="none" stroke="#000000" stroke-linecap="round" stroke-linejoin="round" stroke-miterlimit="10" points="
				20.002,10.499 13.502,10.499 13.502,3.999 			"/>
		</g>
	</g>
	<g id="New_icons_1_">
	</g>
</g>
<g id="Invisible_Shape">
	<rect fill="none" width="24" height="24"/>
</g>
</svg>
