<?xml version="1.0" encoding="utf-8"?>
<!-- Generator: Adobe Illustrator 16.0.3, SVG Export Plug-In . SVG Version: 6.00 Build 0)  -->
<!DOCTYPE svg PUBLIC "-//W3C//DTD SVG 1.1//EN" "http://www.w3.org/Graphics/SVG/1.1/DTD/svg11.dtd">
<svg version="1.1" xmlns="http://www.w3.org/2000/svg" xmlns:xlink="http://www.w3.org/1999/xlink" x="0px" y="0px" width="24px"
	 height="24px" viewBox="0 0 24 24" enable-background="new 0 0 24 24" xml:space="preserve">
<g id="Outline_Icons_1_">
	<g id="Outline_Icons">
		<g>
			<g>
				<path fill="none" stroke="#000000" stroke-linecap="round" stroke-linejoin="round" stroke-miterlimit="10" d="M7.676,10.014
					c0.78-0.781,0.78-2.047,0-2.828L5.554,5.064c-0.781-0.781-2.047-0.781-2.828,0L1.562,6.228
					c-1.009,1.009-1.166,2.584-0.378,3.774c3.381,5.111,7.89,9.62,13,13c1.188,0.786,2.767,0.629,3.774-0.379l1.163-1.163
					c0.782-0.781,0.782-2.048,0-2.828l-2.12-2.121c-0.781-0.781-2.048-0.781-2.829,0l-0.707,0.707
					c-2.327-1.907-4.59-4.171-6.496-6.497L7.676,10.014z"/>
			</g>
			<g>
				<polyline fill="none" stroke="#000000" stroke-linecap="round" stroke-linejoin="round" stroke-miterlimit="10" points="
					10.959,3.701 13.246,6.436 15.875,4.014 				"/>
				<path fill="none" stroke="#000000" stroke-linecap="round" stroke-linejoin="round" stroke-miterlimit="10" d="M13.249,6.436
					c-0.262-3.454,2.105-5.829,4.936-5.934c2.829-0.104,5.208,2.105,5.312,4.936s-2.105,5.208-4.936,5.312"/>
			</g>
		</g>
	</g>
	<g id="New_icons_1_">
	</g>
</g>
<g id="Invisible_Shape">
	<rect fill="none" width="24" height="24"/>
</g>
</svg>
