<?xml version="1.0" encoding="utf-8"?>
<!-- Generator: Adobe Illustrator 16.0.3, SVG Export Plug-In . SVG Version: 6.00 Build 0)  -->
<!DOCTYPE svg PUBLIC "-//W3C//DTD SVG 1.1//EN" "http://www.w3.org/Graphics/SVG/1.1/DTD/svg11.dtd">
<svg version="1.1" xmlns="http://www.w3.org/2000/svg" xmlns:xlink="http://www.w3.org/1999/xlink" x="0px" y="0px" width="24px"
	 height="24px" viewBox="0 0 24 24" enable-background="new 0 0 24 24" xml:space="preserve">
<g id="Outline_Icons">
	<g>
		<g>
			<g>
				<polyline fill="none" stroke="#000000" stroke-linecap="round" stroke-linejoin="round" stroke-miterlimit="10" points="
					23.5,15 23.5,17.5 21,17.5 				"/>
				<path fill="none" stroke="#000000" stroke-linecap="round" stroke-linejoin="round" stroke-miterlimit="10" d="M14.5,17.5
					c0.617-1.747,2.541-3,4.5-3s3.883,1.253,4.5,3"/>
			</g>
			<g>
				<polyline fill="none" stroke="#000000" stroke-linecap="round" stroke-linejoin="round" stroke-miterlimit="10" points="
					14.5,23 14.5,20.5 17,20.5 				"/>
				<path fill="none" stroke="#000000" stroke-linecap="round" stroke-linejoin="round" stroke-miterlimit="10" d="M23.5,20.5
					c-0.617,1.748-2.541,3-4.5,3s-3.883-1.252-4.5-3"/>
			</g>
		</g>
		<g>
			<g>
				
					<line fill="none" stroke="#000000" stroke-linecap="round" stroke-linejoin="round" stroke-miterlimit="10" x1="0.5" y1="4.5" x2="20.5" y2="4.5"/>
				<g>
					<g>
						<path d="M3.5,2C3.224,2,3,2.224,3,2.5S3.224,3,3.5,3S4,2.776,4,2.5S3.776,2,3.5,2L3.5,2z"/>
					</g>
				</g>
				<g>
					<g>
						<path d="M5.5,2C5.224,2,5,2.224,5,2.5S5.224,3,5.5,3S6,2.776,6,2.5S5.776,2,5.5,2L5.5,2z"/>
					</g>
				</g>
				<g>
					<g>
						<path d="M7.5,2C7.224,2,7,2.224,7,2.5S7.224,3,7.5,3S8,2.776,8,2.5S7.776,2,7.5,2L7.5,2z"/>
					</g>
				</g>
				<path fill="none" stroke="#000000" stroke-linecap="round" stroke-linejoin="round" stroke-miterlimit="10" d="M9.5,16.5h-7
					c-1.104,0-2-0.896-2-2v-12c0-1.104,0.896-2,2-2h16c1.105,0,2,0.896,2,2v8"/>
			</g>
		</g>
	</g>
</g>
<g id="Invisible_Shape">
	<rect fill="none" width="24" height="24"/>
</g>
</svg>
