<?xml version="1.0" encoding="utf-8"?>
<!-- Generator: Adobe Illustrator 16.0.3, SVG Export Plug-In . SVG Version: 6.00 Build 0)  -->
<!DOCTYPE svg PUBLIC "-//W3C//DTD SVG 1.1//EN" "http://www.w3.org/Graphics/SVG/1.1/DTD/svg11.dtd">
<svg version="1.1" xmlns="http://www.w3.org/2000/svg" xmlns:xlink="http://www.w3.org/1999/xlink" x="0px" y="0px" width="24px"
	 height="24px" viewBox="0 0 24 24" enable-background="new 0 0 24 24" xml:space="preserve">
<g id="Outline_Icons">
	<g>
		<g>
			
				<line fill="none" stroke="#000000" stroke-linecap="round" stroke-linejoin="round" stroke-miterlimit="10" x1="0.5" y1="4.5" x2="21.5" y2="4.5"/>
			<g>
				<g>
					<path d="M3.526,2c-0.276,0-0.5,0.224-0.5,0.5S3.25,3,3.526,3s0.5-0.224,0.5-0.5S3.803,2,3.526,2L3.526,2z"/>
				</g>
			</g>
			<g>
				<g>
					<path d="M5.526,2c-0.276,0-0.5,0.224-0.5,0.5S5.25,3,5.526,3s0.5-0.224,0.5-0.5S5.803,2,5.526,2L5.526,2z"/>
				</g>
			</g>
			<g>
				<g>
					<path d="M7.526,2c-0.276,0-0.5,0.224-0.5,0.5S7.25,3,7.526,3s0.5-0.224,0.5-0.5S7.803,2,7.526,2L7.526,2z"/>
				</g>
			</g>
			<path fill="none" stroke="#000000" stroke-linecap="round" stroke-linejoin="round" stroke-miterlimit="10" d="M5.5,15.5H2.526
				c-1.104,0-2.026-0.896-2.026-2v-11c0-1.104,0.923-2,2.026-2h17c1.105,0,1.974,0.896,1.974,2v11c0,1.104-0.868,2-1.974,2H17"/>
		</g>
		<g>
			<polyline fill="none" stroke="#000000" stroke-linecap="round" stroke-linejoin="round" stroke-miterlimit="10" points="15.5,13 
				11.5,9 7.5,13 			"/>
			
				<line fill="none" stroke="#000000" stroke-linecap="round" stroke-linejoin="round" stroke-miterlimit="10" x1="11.5" y1="20.5" x2="11.5" y2="9"/>
		</g>
	</g>
</g>
<g id="Invisible_Shape">
	<rect fill="none" width="24" height="24"/>
</g>
</svg>
