<?xml version="1.0" encoding="utf-8"?>
<!-- Generator: Adobe Illustrator 16.0.3, SVG Export Plug-In . SVG Version: 6.00 Build 0)  -->
<!DOCTYPE svg PUBLIC "-//W3C//DTD SVG 1.1//EN" "http://www.w3.org/Graphics/SVG/1.1/DTD/svg11.dtd">
<svg version="1.1" xmlns="http://www.w3.org/2000/svg" xmlns:xlink="http://www.w3.org/1999/xlink" x="0px" y="0px" width="24px"
	 height="24px" viewBox="0 0 24 24" enable-background="new 0 0 24 24" xml:space="preserve">
<g id="Outline_Icons">
	<g>
		<g>
			
				<line fill="none" stroke="#000000" stroke-linecap="round" stroke-linejoin="round" stroke-miterlimit="10" x1="16.5" y1="9.5" x2="7.086" y2="18.898"/>
			<polyline fill="none" stroke="#000000" stroke-linecap="round" stroke-linejoin="round" stroke-miterlimit="10" points="
				16.5,13.458 16.5,9.5 12,9.5 			"/>
		</g>
		
			<rect x="1.5" y="21.5" fill="none" stroke="#000000" stroke-linecap="round" stroke-linejoin="round" stroke-miterlimit="10" width="7" height="2"/>
		
			<line fill="none" stroke="#000000" stroke-linecap="round" stroke-linejoin="round" stroke-miterlimit="10" x1="3.5" y1="4.5" x2="23.5" y2="4.5"/>
		<g>
			<g>
				<path d="M6.5,2C6.225,2,6,2.224,6,2.5S6.225,3,6.5,3C6.777,3,7,2.776,7,2.5S6.777,2,6.5,2L6.5,2z"/>
			</g>
		</g>
		<g>
			<g>
				<path d="M8.5,2C8.225,2,8,2.224,8,2.5S8.225,3,8.5,3C8.776,3,9,2.776,9,2.5S8.776,2,8.5,2L8.5,2z"/>
			</g>
		</g>
		<g>
			<g>
				<path d="M10.5,2C10.224,2,10,2.224,10,2.5S10.224,3,10.5,3S11,2.776,11,2.5S10.776,2,10.5,2L10.5,2z"/>
			</g>
		</g>
		<path fill="none" stroke="#000000" stroke-linecap="round" stroke-linejoin="round" stroke-miterlimit="10" d="M6.97,15.5H5.5
			c-1.104,0-2-0.896-2-2v-11c0-1.105,0.896-2,2-2h16c1.104,0,2,0.895,2,2v11c0,1.104-0.896,2-2,2h-7.531"/>
	</g>
</g>
<g id="Invisible_Shape">
	<rect fill="none" width="24" height="24"/>
</g>
</svg>
