<?xml version="1.0" encoding="utf-8"?>
<!-- Generator: Adobe Illustrator 16.0.3, SVG Export Plug-In . SVG Version: 6.00 Build 0)  -->
<!DOCTYPE svg PUBLIC "-//W3C//DTD SVG 1.1//EN" "http://www.w3.org/Graphics/SVG/1.1/DTD/svg11.dtd">
<svg version="1.1" xmlns="http://www.w3.org/2000/svg" xmlns:xlink="http://www.w3.org/1999/xlink" x="0px" y="0px" width="24px"
	 height="24px" viewBox="0 0 24 24" enable-background="new 0 0 24 24" xml:space="preserve">
<g id="Outline_Icons">
	<g>
		<path fill="none" stroke="#000000" stroke-linecap="round" stroke-linejoin="round" stroke-miterlimit="10" d="M10.5,8.5
			c0,1.101-0.899,2-2,2h-6c-1.1,0-2-0.899-2-2v-6c0-1.1,0.9-2,2-2h6c1.101,0,2,0.9,2,2V8.5z"/>
		
			<line fill="none" stroke="#000000" stroke-linecap="round" stroke-linejoin="round" stroke-miterlimit="10" x1="0.5" y1="3.5" x2="10.5" y2="3.5"/>
		<path fill="none" stroke="#000000" stroke-linecap="round" stroke-linejoin="round" stroke-miterlimit="10" d="M13.5,8.5
			c0,1.101,0.9,2,2,2h6c1.101,0,2-0.899,2-2v-6c0-1.1-0.899-2-2-2h-6c-1.1,0-2,0.9-2,2V8.5z"/>
		
			<line fill="none" stroke="#000000" stroke-linecap="round" stroke-linejoin="round" stroke-miterlimit="10" x1="23.5" y1="3.5" x2="13.5" y2="3.5"/>
		<path fill="none" stroke="#000000" stroke-linecap="round" stroke-linejoin="round" stroke-miterlimit="10" d="M10.5,21.5
			c0,1.101-0.899,2-2,2h-6c-1.1,0-2-0.899-2-2v-6c0-1.1,0.9-2,2-2h6c1.101,0,2,0.9,2,2V21.5z"/>
		
			<line fill="none" stroke="#000000" stroke-linecap="round" stroke-linejoin="round" stroke-miterlimit="10" x1="0.5" y1="16.5" x2="10.5" y2="16.5"/>
		<path fill="none" stroke="#000000" stroke-linecap="round" stroke-linejoin="round" stroke-miterlimit="10" d="M13.5,21.5
			c0,1.101,0.9,2,2,2h6c1.101,0,2-0.899,2-2v-6c0-1.1-0.899-2-2-2h-6c-1.1,0-2,0.9-2,2V21.5z"/>
		
			<line fill="none" stroke="#000000" stroke-linecap="round" stroke-linejoin="round" stroke-miterlimit="10" x1="23.5" y1="16.5" x2="13.5" y2="16.5"/>
	</g>
</g>
<g id="Invisible_Shape">
	<rect fill="none" width="24" height="24"/>
</g>
</svg>
