<?xml version="1.0" encoding="utf-8"?>
<!-- Generator: Adobe Illustrator 16.0.3, SVG Export Plug-In . SVG Version: 6.00 Build 0)  -->
<!DOCTYPE svg PUBLIC "-//W3C//DTD SVG 1.1//EN" "http://www.w3.org/Graphics/SVG/1.1/DTD/svg11.dtd">
<svg version="1.1" xmlns="http://www.w3.org/2000/svg" xmlns:xlink="http://www.w3.org/1999/xlink" x="0px" y="0px" width="24px"
	 height="24px" viewBox="0 0 24 24" enable-background="new 0 0 24 24" xml:space="preserve">
<g id="Outline_Icons">
	<g>
		<path fill="none" stroke="#000000" stroke-linecap="round" stroke-linejoin="round" stroke-miterlimit="10" d="M19.5,14.5
			c0,1.104-0.895,2-2,2h-11c-1.104,0-2-0.896-2-2v-6c0-1.104,0.896-2,2-2h11c1.105,0,2,0.896,2,2V14.5z"/>
		
			<line fill="none" stroke="#000000" stroke-linecap="round" stroke-linejoin="round" stroke-miterlimit="10" x1="4.5" y1="9.5" x2="19.5" y2="9.5"/>
		<g>
			<g>
				<path d="M7.5,7.5C7.224,7.5,7,7.725,7,8c0,0.276,0.224,0.5,0.5,0.5S8,8.276,8,8C8,7.725,7.776,7.5,7.5,7.5L7.5,7.5z"/>
			</g>
		</g>
		<g>
			<g>
				<path d="M9.5,7.5C9.224,7.5,9,7.725,9,8c0,0.276,0.224,0.5,0.5,0.5S10,8.276,10,8C10,7.725,9.776,7.5,9.5,7.5L9.5,7.5z"/>
			</g>
		</g>
		<g>
			<g>
				<path d="M11.5,7.5C11.224,7.5,11,7.725,11,8c0,0.276,0.224,0.5,0.5,0.5S12,8.276,12,8C12,7.725,11.776,7.5,11.5,7.5L11.5,7.5z"
					/>
			</g>
		</g>
	</g>
</g>
<g id="Invisible_Shape">
	<rect fill="none" width="24" height="24"/>
</g>
</svg>
