<?xml version="1.0" encoding="utf-8"?>
<!-- Generator: Adobe Illustrator 16.0.3, SVG Export Plug-In . SVG Version: 6.00 Build 0)  -->
<!DOCTYPE svg PUBLIC "-//W3C//DTD SVG 1.1//EN" "http://www.w3.org/Graphics/SVG/1.1/DTD/svg11.dtd">
<svg version="1.1" xmlns="http://www.w3.org/2000/svg" xmlns:xlink="http://www.w3.org/1999/xlink" x="0px" y="0px" width="24px"
	 height="24px" viewBox="0 0 24 24" enable-background="new 0 0 24 24" xml:space="preserve">
<g id="Outline_Icons">
	<g>
		<path fill="none" stroke="#000000" stroke-linecap="round" stroke-linejoin="round" stroke-miterlimit="10" d="M19.5,12.5
			c0,1.104-0.895,2-2,2h-15c-1.104,0-2-0.896-2-2v-10c0-1.104,0.896-2,2-2h15c1.105,0,2,0.896,2,2V12.5z"/>
		
			<line fill="none" stroke="#000000" stroke-linecap="round" stroke-linejoin="round" stroke-miterlimit="10" x1="0.5" y1="3.5" x2="19.5" y2="3.5"/>
		<g>
			<g>
				<path d="M3.5,1.5C3.224,1.5,3,1.725,3,2c0,0.276,0.224,0.5,0.5,0.5S4,2.276,4,2C4,1.725,3.776,1.5,3.5,1.5L3.5,1.5z"/>
			</g>
		</g>
		<g>
			<g>
				<path d="M5.5,1.5C5.224,1.5,5,1.725,5,2c0,0.276,0.224,0.5,0.5,0.5S6,2.276,6,2C6,1.725,5.776,1.5,5.5,1.5L5.5,1.5z"/>
			</g>
		</g>
		<g>
			<g>
				<path d="M7.5,1.5C7.224,1.5,7,1.725,7,2c0,0.276,0.224,0.5,0.5,0.5S8,2.276,8,2C8,1.725,7.776,1.5,7.5,1.5L7.5,1.5z"/>
			</g>
		</g>
	</g>
</g>
<g id="Invisible_Shape">
	<rect fill="none" width="24" height="24"/>
</g>
</svg>
