<?xml version="1.0" encoding="utf-8"?>
<!-- Generator: Adobe Illustrator 16.0.3, SVG Export Plug-In . SVG Version: 6.00 Build 0)  -->
<!DOCTYPE svg PUBLIC "-//W3C//DTD SVG 1.1//EN" "http://www.w3.org/Graphics/SVG/1.1/DTD/svg11.dtd">
<svg version="1.1" xmlns="http://www.w3.org/2000/svg" xmlns:xlink="http://www.w3.org/1999/xlink" x="0px" y="0px" width="24px"
	 height="24px" viewBox="0 0 24 24" enable-background="new 0 0 24 24" xml:space="preserve">
<g id="Outline_Icons">
	<g>
		
			<line fill="none" stroke="#000000" stroke-linecap="round" stroke-linejoin="round" stroke-miterlimit="10" x1="0.5" y1="4.5" x2="20.5" y2="4.5"/>
		<g>
			<g>
				<path d="M3.5,2.002c-0.276,0-0.5,0.224-0.5,0.5c0,0.275,0.224,0.5,0.5,0.5S4,2.777,4,2.502C4,2.226,3.776,2.002,3.5,2.002
					L3.5,2.002z"/>
			</g>
		</g>
		<g>
			<g>
				<path d="M5.5,2.002c-0.276,0-0.5,0.224-0.5,0.5c0,0.275,0.224,0.5,0.5,0.5S6,2.777,6,2.502C6,2.226,5.776,2.002,5.5,2.002
					L5.5,2.002z"/>
			</g>
		</g>
		<g>
			<g>
				<path d="M7.5,2.002c-0.276,0-0.5,0.224-0.5,0.5c0,0.275,0.224,0.5,0.5,0.5S8,2.777,8,2.502C8,2.226,7.776,2.002,7.5,2.002
					L7.5,2.002z"/>
			</g>
		</g>
		<path fill="none" stroke="#000000" stroke-linecap="round" stroke-linejoin="round" stroke-miterlimit="10" d="M9.5,16.5h-7
			c-1.104,0-2-0.895-2-1.998v-12c0-1.105,0.896-2.002,2-2.002h16c1.105,0,2,0.896,2,2.002V10.5"/>
		<g>
			<polygon fill="none" stroke="#000000" stroke-linecap="round" stroke-linejoin="round" stroke-miterlimit="10" points="
				15.998,22.5 12.498,23.5 13.498,20 21,12.499 23.5,14.999 			"/>
			<line fill="none" stroke="#000000" stroke-linejoin="round" stroke-miterlimit="10" x1="19" y1="14.499" x2="21.5" y2="16.999"/>
			
				<line fill="none" stroke="#000000" stroke-linecap="round" stroke-linejoin="round" stroke-miterlimit="10" x1="13.498" y1="20" x2="15.998" y2="22.5"/>
		</g>
	</g>
</g>
<g id="Invisible_Shape">
	<rect fill="none" width="24" height="24"/>
</g>
</svg>
