<?xml version="1.0" encoding="utf-8"?>
<!-- Generator: Adobe Illustrator 16.0.3, SVG Export Plug-In . SVG Version: 6.00 Build 0)  -->
<!DOCTYPE svg PUBLIC "-//W3C//DTD SVG 1.1//EN" "http://www.w3.org/Graphics/SVG/1.1/DTD/svg11.dtd">
<svg version="1.1" xmlns="http://www.w3.org/2000/svg" xmlns:xlink="http://www.w3.org/1999/xlink" x="0px" y="0px" width="24px"
	 height="24px" viewBox="0 0 24 24" enable-background="new 0 0 24 24" xml:space="preserve">
<g id="Outline_Icons">
	<g>
		<path fill="none" stroke="#000000" stroke-linecap="round" stroke-linejoin="round" stroke-miterlimit="10" d="M23.5,18.5
			c0,1.105-0.895,2-2,2h-19c-1.104,0-2-0.895-2-2v-14c0-1.104,0.896-2,2-2h19c1.105,0,2,0.896,2,2V18.5z"/>
		
			<line fill="none" stroke="#000000" stroke-linecap="round" stroke-linejoin="round" stroke-miterlimit="10" x1="0.5" y1="7.5" x2="23.5" y2="7.5"/>
		
			<circle fill="none" stroke="#000000" stroke-linecap="round" stroke-linejoin="round" stroke-miterlimit="10" cx="4" cy="5" r="0.5"/>
		
			<circle fill="none" stroke="#000000" stroke-linecap="round" stroke-linejoin="round" stroke-miterlimit="10" cx="7" cy="5" r="0.5"/>
		
			<circle fill="none" stroke="#000000" stroke-linecap="round" stroke-linejoin="round" stroke-miterlimit="10" cx="10" cy="5" r="0.5"/>
		<g>
			
				<line fill="none" stroke="#000000" stroke-linecap="round" stroke-linejoin="round" stroke-miterlimit="10" x1="3.5" y1="11.5" x2="3.5" y2="16.5"/>
			
				<line fill="none" stroke="#000000" stroke-linecap="round" stroke-linejoin="round" stroke-miterlimit="10" x1="6.5" y1="11.5" x2="6.5" y2="16.5"/>
			<g>
				
					<line fill="none" stroke="#000000" stroke-linecap="round" stroke-linejoin="round" stroke-miterlimit="10" x1="9.5" y1="11.5" x2="9.5" y2="16.5"/>
				
					<line fill="none" stroke="#000000" stroke-linecap="round" stroke-linejoin="round" stroke-miterlimit="10" x1="11" y1="11.5" x2="8" y2="11.5"/>
			</g>
			<g>
				
					<line fill="none" stroke="#000000" stroke-linecap="round" stroke-linejoin="round" stroke-miterlimit="10" x1="14.5" y1="11.5" x2="14.5" y2="16.5"/>
				
					<line fill="none" stroke="#000000" stroke-linecap="round" stroke-linejoin="round" stroke-miterlimit="10" x1="16" y1="11.5" x2="13" y2="11.5"/>
			</g>
			
				<line fill="none" stroke="#000000" stroke-linecap="round" stroke-linejoin="round" stroke-miterlimit="10" x1="6.5" y1="14.5" x2="3.5" y2="14.5"/>
			<g>
				
					<line fill="none" stroke="#000000" stroke-linecap="round" stroke-linejoin="round" stroke-miterlimit="10" x1="17.5" y1="11.5" x2="17.5" y2="16.5"/>
				<path fill="none" stroke="#000000" stroke-linecap="round" stroke-linejoin="round" stroke-miterlimit="10" d="M21,13
					c0,0.697-0.304,1.5-1,1.5h-2.5v-3H20C20.696,11.5,21,12.305,21,13z"/>
			</g>
		</g>
	</g>
</g>
<g id="Invisible_Shape">
	<rect fill="none" width="24" height="24"/>
</g>
</svg>
