<?xml version="1.0" encoding="utf-8"?>
<!-- Generator: Adobe Illustrator 16.0.3, SVG Export Plug-In . SVG Version: 6.00 Build 0)  -->
<!DOCTYPE svg PUBLIC "-//W3C//DTD SVG 1.1//EN" "http://www.w3.org/Graphics/SVG/1.1/DTD/svg11.dtd">
<svg version="1.1" xmlns="http://www.w3.org/2000/svg" xmlns:xlink="http://www.w3.org/1999/xlink" x="0px" y="0px" width="24px"
	 height="24px" viewBox="0 0 24 24" enable-background="new 0 0 24 24" xml:space="preserve">
<g id="Outline_Icons">
	<g>
		
			<ellipse transform="matrix(-0.7071 -0.7071 0.7071 -0.7071 2.2188 33.0304)" fill="none" stroke="#000000" stroke-linejoin="round" stroke-miterlimit="10" cx="7.95" cy="16.056" rx="2" ry="2.5"/>
		
			<line fill="none" stroke="#000000" stroke-linecap="round" stroke-linejoin="round" stroke-miterlimit="10" x1="20.324" y1="9.338" x2="14.679" y2="3.692"/>
		
			<line fill="none" stroke="#000000" stroke-linecap="round" stroke-linejoin="round" stroke-miterlimit="10" x1="16.082" y1="13.581" x2="10.435" y2="7.935"/>
		
			<line fill="none" stroke="#000000" stroke-linecap="round" stroke-linejoin="round" stroke-miterlimit="10" x1="13.254" y1="16.409" x2="7.607" y2="10.763"/>
		<circle fill="none" stroke="#000000" stroke-linejoin="round" stroke-miterlimit="10" cx="15.375" cy="8.631" r="2"/>
		
			<rect x="9.839" y="10.167" transform="matrix(0.707 0.7072 -0.7072 0.707 12.0735 -4.8078)" fill="none" stroke="#000000" stroke-linecap="round" stroke-linejoin="round" stroke-miterlimit="10" width="4" height="4"/>
		<path fill="none" stroke="#000000" stroke-linecap="round" stroke-linejoin="round" stroke-miterlimit="10" d="M16.082,5.096
			l2.828,2.828l2.828-2.828c0.391-0.391,0.391-1.023,0-1.414l-1.414-1.414c-0.391-0.392-1.023-0.392-1.414,0L16.082,5.096z"/>
		
			<line fill="none" stroke="#000000" stroke-linecap="round" stroke-linejoin="round" stroke-miterlimit="10" x1="21.035" y1="2.979" x2="22.938" y2="1.068"/>
		<path fill="none" stroke="#000000" stroke-linecap="round" stroke-linejoin="round" stroke-miterlimit="10" d="M6.183,17.823
			l-1.414,1.414c0.975,0.977,0.975,2.56,0,3.536c-0.977,0.977-2.56,0.977-3.536,0s-0.977-2.56,0-3.536"/>
	</g>
</g>
<g id="invisible_shape">
	<rect fill="none" width="24" height="24"/>
</g>
</svg>
