<?xml version="1.0" encoding="utf-8"?>
<!-- Generator: Adobe Illustrator 16.0.3, SVG Export Plug-In . SVG Version: 6.00 Build 0)  -->
<!DOCTYPE svg PUBLIC "-//W3C//DTD SVG 1.1//EN" "http://www.w3.org/Graphics/SVG/1.1/DTD/svg11.dtd">
<svg version="1.1" xmlns="http://www.w3.org/2000/svg" xmlns:xlink="http://www.w3.org/1999/xlink" x="0px" y="0px" width="24px"
	 height="24px" viewBox="0 0 24 24" enable-background="new 0 0 24 24" xml:space="preserve">
<g id="Outline_Icons">
	<g>
		<path fill="none" stroke="#000000" stroke-linejoin="round" stroke-miterlimit="10" d="M15.5,8.006c0-3.07,6-4,6,3
			c0,4-2,11.5-5,11.5c-2,0-1.958-1.417-1.958-1.417"/>
		<path fill="none" stroke="#000000" stroke-linejoin="round" stroke-miterlimit="10" d="M8.5,8.006c-0.042-3-6-4-6,3
			c0,4,2.042,11.5,5.042,11.5c2,0,1.958-1.417,1.958-1.417"/>
		<path fill="none" stroke="#000000" stroke-linecap="round" stroke-linejoin="round" stroke-miterlimit="10" d="M12.5,5.506v-2
			c0-1.1-0.4-2-1.5-2h-1"/>
		<path fill="none" stroke="#000000" stroke-linejoin="round" stroke-miterlimit="10" d="M8.25,9.499
			C8.185,8.463,8.551,7.447,9.261,6.691C9.972,5.935,10.963,5.506,12,5.506s2.028,0.429,2.738,1.186
			c0.711,0.756,1.077,1.771,1.012,2.808l-0.577,10.013c-0.097,1.681-1.489,2.994-3.173,2.994s-3.076-1.313-3.173-2.994L8.25,9.499z"
			/>
	</g>
</g>
<g id="invisible_shape">
	<rect fill="none" width="24" height="24"/>
</g>
</svg>
