<?xml version="1.0" encoding="utf-8"?>
<!-- Generator: Adobe Illustrator 16.0.3, SVG Export Plug-In . SVG Version: 6.00 Build 0)  -->
<!DOCTYPE svg PUBLIC "-//W3C//DTD SVG 1.1//EN" "http://www.w3.org/Graphics/SVG/1.1/DTD/svg11.dtd">
<svg version="1.1" xmlns="http://www.w3.org/2000/svg" xmlns:xlink="http://www.w3.org/1999/xlink" x="0px" y="0px" width="24px"
	 height="24px" viewBox="0 0 24 24" enable-background="new 0 0 24 24" xml:space="preserve">
<g id="Outline_Icons">
	<g>
		
			<line fill="none" stroke="#000000" stroke-linecap="round" stroke-linejoin="round" stroke-miterlimit="10" x1="0.5" y1="23.5" x2="23.5" y2="23.5"/>
		<path fill="none" stroke="#000000" stroke-linecap="round" stroke-linejoin="round" stroke-miterlimit="10" d="M1.5,13v6.5
			c0,1.101,0.9,2,2,2h17c1.1,0,2-0.899,2-2V13"/>
		<path fill="none" stroke="#000000" stroke-linecap="round" stroke-linejoin="round" stroke-miterlimit="10" d="M1.5,13
			c0,1.381,1.5,2.5,2.5,2.5s2.5-1.119,2.5-2.5c0,1.521,1.5,2.75,2.75,2.75S12,14.521,12,13c0,1.521,1.5,2.75,2.75,2.75
			S17.5,14.521,17.5,13c0,1.381,1.5,2.5,2.5,2.5s2.5-1.119,2.5-2.5v-2.5h-21V13z"/>
		<path fill="none" stroke="#000000" stroke-linecap="round" stroke-linejoin="round" stroke-miterlimit="10" d="M7,3
			c0,0.829-0.672,1.5-1.5,1.5C4.671,4.5,4,3.829,4,3c0-0.827,1.5-2.5,1.5-2.5S7,2.173,7,3z"/>
		<path fill="none" stroke="#000000" stroke-linecap="round" stroke-linejoin="round" stroke-miterlimit="10" d="M20,3
			c0,0.829-0.672,1.5-1.5,1.5C17.671,4.5,17,3.829,17,3c0-0.827,1.5-2.5,1.5-2.5S20,2.173,20,3z"/>
		<path fill="none" stroke="#000000" stroke-linecap="round" stroke-linejoin="round" stroke-miterlimit="10" d="M13,3
			c0,0.829-0.672,1.5-1.5,1.5C10.671,4.5,10,3.829,10,3c0-0.827,1.5-2.5,1.5-2.5S13,2.173,13,3z"/>
		
			<rect x="10.5" y="6.5" fill="none" stroke="#000000" stroke-linecap="round" stroke-linejoin="round" stroke-miterlimit="10" width="2" height="4"/>
		
			<rect x="4.5" y="6.5" fill="none" stroke="#000000" stroke-linecap="round" stroke-linejoin="round" stroke-miterlimit="10" width="2" height="4"/>
		
			<rect x="17.5" y="6.5" fill="none" stroke="#000000" stroke-linecap="round" stroke-linejoin="round" stroke-miterlimit="10" width="2" height="4"/>
	</g>
</g>
<g id="invisible_shape">
	<rect fill="none" width="24" height="24"/>
</g>
</svg>
