<?xml version="1.0" encoding="utf-8"?>
<!-- Generator: Adobe Illustrator 16.0.3, SVG Export Plug-In . SVG Version: 6.00 Build 0)  -->
<!DOCTYPE svg PUBLIC "-//W3C//DTD SVG 1.1//EN" "http://www.w3.org/Graphics/SVG/1.1/DTD/svg11.dtd">
<svg version="1.1" xmlns="http://www.w3.org/2000/svg" xmlns:xlink="http://www.w3.org/1999/xlink" x="0px" y="0px" width="24px"
	 height="24px" viewBox="0 0 24 24" enable-background="new 0 0 24 24" xml:space="preserve">
<g id="Outline_Icons">
	<g>
		<polygon fill="none" stroke="#000000" stroke-linejoin="round" stroke-miterlimit="10" points="0.5,18.5 23.5,18.5 18.5,23.5 
			5.5,23.5 		"/>
		<path fill="none" stroke="#000000" stroke-linejoin="round" stroke-miterlimit="10" d="M11.5,16.5c0-2.209,1.791-4,4-4h3
			c2.209,0,4,1.791,4,4c0,1.104-0.896,2-2,2h-7C12.396,18.5,11.5,17.604,11.5,16.5z"/>
		<path fill="none" stroke="#000000" stroke-linecap="round" stroke-linejoin="round" stroke-miterlimit="10" d="M14.667,16.062
			c0.521-1.667-0.209-3.229-0.209-3.229l-0.092-0.168"/>
		<path fill="none" stroke="#000000" stroke-linecap="round" stroke-linejoin="round" stroke-miterlimit="10" d="M16.667,16.062
			c0.521-1.667-0.209-3.229-0.209-3.229L16.342,12.5"/>
		<path fill="none" stroke="#000000" stroke-linecap="round" stroke-linejoin="round" stroke-miterlimit="10" d="M18.667,16.062
			c0.521-1.667-0.209-3.229-0.209-3.229L18.305,12.5"/>
		
			<line fill="none" stroke="#000000" stroke-linejoin="round" stroke-miterlimit="10" x1="9.792" y1="18.5" x2="11.524" y2="16.808"/>
		<path fill="none" stroke="#000000" stroke-linejoin="round" stroke-miterlimit="10" d="M15.813,12.5l5.812-5.834
			c1.172-1.172,1.172-3.07,0-4.242c-1.172-1.171-3.071-1.171-4.242,0L3.24,16.566c-0.537,0.537-0.829,1.229-0.872,1.932"/>
		<path fill="none" stroke="#000000" stroke-linejoin="round" stroke-miterlimit="10" d="M9.443,10.348
			c0.945,1.207,2.347,1.75,3.041,1.105c1.087-1.01-0.74-1.394-1.392-2.745"/>
		<path fill="none" stroke="#000000" stroke-linejoin="round" stroke-miterlimit="10" d="M14.193,5.598
			c0.945,1.207,2.347,1.75,3.041,1.105c1.085-1.008-0.735-1.393-1.392-2.74"/>
		<path fill="none" stroke="#000000" stroke-linejoin="round" stroke-miterlimit="10" d="M4.943,14.848
			c0.945,1.207,2.347,1.75,3.041,1.105c1.087-1.01-0.74-1.394-1.392-2.745"/>
	</g>
</g>
<g id="invisible_shape">
	<rect fill="none" width="24" height="24"/>
</g>
</svg>
