<?xml version="1.0" encoding="utf-8"?>
<!-- Generator: Adobe Illustrator 16.0.3, SVG Export Plug-In . SVG Version: 6.00 Build 0)  -->
<!DOCTYPE svg PUBLIC "-//W3C//DTD SVG 1.1//EN" "http://www.w3.org/Graphics/SVG/1.1/DTD/svg11.dtd">
<svg version="1.1" xmlns="http://www.w3.org/2000/svg" xmlns:xlink="http://www.w3.org/1999/xlink" x="0px" y="0px" width="24px"
	 height="24px" viewBox="0 0 24 24" enable-background="new 0 0 24 24" xml:space="preserve">
<g id="Outline_Icons">
	<g>
		<path fill="none" stroke="#000000" stroke-linecap="round" stroke-linejoin="round" stroke-miterlimit="10" d="M18.425,11.1
			c1.825-0.923,3.075-2.816,3.075-5c0-3.093-2.506-5.6-5.6-5.6H6.041C2.951,0.5,0.5,3.007,0.5,6.1c0,3.092,2.11,5.6,5.2,5.6
			L4.301,23.5h14l-1.455-7.155"/>
		<path fill="none" stroke="#000000" stroke-linecap="round" stroke-linejoin="round" stroke-miterlimit="10" d="M22.262,21.771
			L10.502,2.589l-0.187,0.114c-4.076,2.5,1.341,11.494,5.248,9.1l0.438-0.242"/>
		<path fill="none" stroke="#000000" stroke-linecap="round" stroke-linejoin="round" stroke-miterlimit="10" d="M9,11
			c-1.5,1.5-0.5,4.5,1.5,4.5c-2.225,4.894,5.445,4.642,3.996,1.006"/>
	</g>
</g>
<g id="invisible_shape">
	<rect fill="none" width="24" height="24"/>
</g>
</svg>
