<?xml version="1.0" encoding="utf-8"?>
<!-- Generator: Adobe Illustrator 16.0.3, SVG Export Plug-In . SVG Version: 6.00 Build 0)  -->
<!DOCTYPE svg PUBLIC "-//W3C//DTD SVG 1.1//EN" "http://www.w3.org/Graphics/SVG/1.1/DTD/svg11.dtd">
<svg version="1.1" xmlns="http://www.w3.org/2000/svg" xmlns:xlink="http://www.w3.org/1999/xlink" x="0px" y="0px" width="24px"
	 height="24px" viewBox="0 0 24 24" enable-background="new 0 0 24 24" xml:space="preserve">
<g id="Outline_Icons">
	<g>
		<g>
			<path fill="none" stroke="#000000" stroke-miterlimit="10" d="M19.5,22c0,0.828-0.672,1.5-1.5,1.5s-1.5-0.672-1.5-1.5V8.5
				c0-2.757-2.243-5-5-5s-5,2.243-5,5c0,0.552-0.447,1-1,1h-1c-0.553,0-1-0.448-1-1c0-4.411,3.589-8,8-8s8,3.589,8,8V22z"/>
		</g>
		<line fill="none" stroke="#000000" stroke-miterlimit="10" x1="5" y1="3.5" x2="7" y2="6"/>
		<line fill="none" stroke="#000000" stroke-miterlimit="10" x1="9" y1="1" x2="10" y2="3.5"/>
		<line fill="none" stroke="#000000" stroke-miterlimit="10" x1="13.5" y1="3.5" x2="14.5" y2="1.5"/>
		<line fill="none" stroke="#000000" stroke-miterlimit="10" x1="16.5" y1="6.5" x2="18.5" y2="5"/>
		<line fill="none" stroke="#000000" stroke-miterlimit="10" x1="16.5" y1="11.5" x2="19.5" y2="9.5"/>
		<line fill="none" stroke="#000000" stroke-miterlimit="10" x1="16.5" y1="16" x2="19.5" y2="14"/>
		<line fill="none" stroke="#000000" stroke-miterlimit="10" x1="16.5" y1="20.5" x2="19.5" y2="18.5"/>
	</g>
</g>
<g id="invisible_shape">
	<rect fill="none" width="24" height="24"/>
</g>
</svg>
