<?xml version="1.0" encoding="utf-8"?>
<!-- Generator: Adobe Illustrator 16.0.3, SVG Export Plug-In . SVG Version: 6.00 Build 0)  -->
<!DOCTYPE svg PUBLIC "-//W3C//DTD SVG 1.1//EN" "http://www.w3.org/Graphics/SVG/1.1/DTD/svg11.dtd">
<svg version="1.1" xmlns="http://www.w3.org/2000/svg" xmlns:xlink="http://www.w3.org/1999/xlink" x="0px" y="0px" width="24px"
	 height="24px" viewBox="0 0 24 24" enable-background="new 0 0 24 24" xml:space="preserve">
<g id="Outline_Icons">
	<g>
		<g>
			<g>
				<path d="M7.5,4C7.224,4,7,4.223,7,4.5C7,4.775,7.224,5,7.5,5S8,4.775,8,4.5C8,4.223,7.776,4,7.5,4L7.5,4z"/>
			</g>
		</g>
		<g>
			<g>
				<path d="M9.5,3C9.224,3,9,3.223,9,3.5C9,3.775,9.224,4,9.5,4S10,3.775,10,3.5C10,3.223,9.776,3,9.5,3L9.5,3z"/>
			</g>
		</g>
		<g>
			<g>
				<path d="M14.5,3C14.224,3,14,3.223,14,3.5C14,3.775,14.224,4,14.5,4S15,3.775,15,3.5C15,3.223,14.776,3,14.5,3L14.5,3z"/>
			</g>
		</g>
		<g>
			<g>
				<path d="M12,4c-0.276,0-0.5,0.223-0.5,0.5C11.5,4.775,11.724,5,12,5s0.5-0.225,0.5-0.5C12.5,4.223,12.276,4,12,4L12,4z"/>
			</g>
		</g>
		<g>
			<g>
				<path d="M16.542,4c-0.276,0-0.5,0.223-0.5,0.5c0,0.275,0.224,0.5,0.5,0.5s0.5-0.225,0.5-0.5C17.042,4.223,16.818,4,16.542,4
					L16.542,4z"/>
			</g>
		</g>
		<polyline fill="none" stroke="#000000" stroke-linecap="round" stroke-linejoin="round" stroke-miterlimit="10" points="12,16.5 
			18,19.5 21,16.5 		"/>
		<path fill="none" stroke="#000000" stroke-linecap="round" stroke-linejoin="round" stroke-miterlimit="10" d="M23.5,18.5
			c0,1.104-0.895,2-2,2h-19c-1.104,0-2-0.896-2-2c0-1.105,0.896-2,2-2h19C22.605,16.5,23.5,17.395,23.5,18.5z"/>
		<path fill="none" stroke="#000000" stroke-linecap="round" stroke-linejoin="round" stroke-miterlimit="10" d="M21.5,12.5
			c1.105,0,2,0.895,2,2c0,1.104-0.895,2-2,2h-19c-1.104,0-2-0.896-2-2c0-1.105,0.896-2,2-2"/>
		<path fill="none" stroke="#000000" stroke-linecap="round" stroke-linejoin="round" stroke-miterlimit="10" d="M2.5,20.5v1
			c0,1.104,0.896,2,2,2h15c1.105,0,2-0.896,2-2v-1H2.5z"/>
		<path fill="none" stroke="#000000" stroke-linecap="round" stroke-linejoin="round" stroke-miterlimit="10" d="M21.5,9.5
			c0-5.247-4.254-9-9.5-9c-5.247,0-9.5,3.753-9.5,9H21.5z"/>
		<path fill="none" stroke="#000000" stroke-linecap="round" stroke-linejoin="round" stroke-miterlimit="10" d="M2.5,9.5
			c0,0-2,0.395-2,1.5c0,1.104,0.896,1.5,2,1.5c0.533,0,1.142-0.161,1.5-0.5c0.511,0.923,1.368,1.5,2.5,1.5
			c1.23,0,2.037-0.439,2.5-1.5c0.462,1.061,1.769,1.5,3,1.5c1.23,0,2.537-0.439,3-1.5c0.462,1.061,1.269,1.5,2.5,1.5
			c1.131,0,1.988-0.577,2.5-1.5c0.358,0.339,0.967,0.5,1.5,0.5c1.105,0,2-0.396,2-1.5c0-1.105-2-1.5-2-1.5"/>
	</g>
</g>
<g id="invisible_shape">
	<rect fill="none" width="24" height="24"/>
</g>
</svg>
