<?xml version="1.0" encoding="utf-8"?>
<!-- Generator: Adobe Illustrator 16.0.3, SVG Export Plug-In . SVG Version: 6.00 Build 0)  -->
<!DOCTYPE svg PUBLIC "-//W3C//DTD SVG 1.1//EN" "http://www.w3.org/Graphics/SVG/1.1/DTD/svg11.dtd">
<svg version="1.1" xmlns="http://www.w3.org/2000/svg" xmlns:xlink="http://www.w3.org/1999/xlink" x="0px" y="0px" width="24px"
	 height="24px" viewBox="0 0 24 24" enable-background="new 0 0 24 24" xml:space="preserve">
<g id="Outline_Icons">
	<g>
		<path fill="none" stroke="#000000" stroke-linejoin="round" stroke-miterlimit="10" d="M18.369,11.393
			c-0.379-2.724-2.16-3.484-4.751-3.117c-2.861,0.407-5.214,8.02-7.063,10.396c-2.021,2.6-4.693,1.798-5.74,1.905
			c-0.126,0.014-0.235,0.094-0.285,0.21c-0.051,0.116-0.035,0.25,0.041,0.352c0.597,0.794,2.53,2.367,5.686,2.367
			C11.202,23.506,18.846,14.824,18.369,11.393z"/>
		<path fill="none" stroke="#000000" stroke-linejoin="round" stroke-miterlimit="10" d="M13.618,8.275c0,0,2.952-4.213,5.437-2.619
			c2.484,1.595-0.686,5.736-0.686,5.736"/>
		
			<line fill="none" stroke="#000000" stroke-linecap="round" stroke-linejoin="round" stroke-miterlimit="10" x1="6.555" y1="18.672" x2="8.555" y2="19.672"/>
		
			<line fill="none" stroke="#000000" stroke-linecap="round" stroke-linejoin="round" stroke-miterlimit="10" x1="5.555" y1="19.672" x2="6.055" y2="21.172"/>
		
			<line fill="none" stroke="#000000" stroke-linecap="round" stroke-linejoin="round" stroke-miterlimit="10" x1="19.129" y1="5.706" x2="22.555" y2="1.203"/>
	</g>
</g>
<g id="invisible_shape">
	<rect fill="none" width="24" height="24"/>
</g>
</svg>
