<?xml version="1.0" encoding="utf-8"?>
<!-- Generator: Adobe Illustrator 16.0.3, SVG Export Plug-In . SVG Version: 6.00 Build 0)  -->
<!DOCTYPE svg PUBLIC "-//W3C//DTD SVG 1.1//EN" "http://www.w3.org/Graphics/SVG/1.1/DTD/svg11.dtd">
<svg version="1.1" xmlns="http://www.w3.org/2000/svg" xmlns:xlink="http://www.w3.org/1999/xlink" x="0px" y="0px" width="24px"
	 height="24px" viewBox="0 0 24 24" enable-background="new 0 0 24 24" xml:space="preserve">
<g id="Outline_Icons">
	<g>
		<circle fill="none" stroke="#000000" stroke-linejoin="round" stroke-miterlimit="10" cx="12" cy="12" r="11.5"/>
		<circle fill="none" stroke="#000000" stroke-linejoin="round" stroke-miterlimit="10" cx="12" cy="12" r="9.5"/>
		<path fill="none" stroke="#000000" stroke-linejoin="round" stroke-miterlimit="10" d="M16.026,10.442
			c0.703-0.183,1.255-0.728,1.445-1.428c0.191-0.702-0.008-1.451-0.522-1.965c-0.489-0.49-1.197-0.696-1.873-0.544
			c-0.677,0.151-1.229,0.638-1.464,1.289l-0.905,3.498L16.026,10.442z"/>
		<path fill="none" stroke="#000000" stroke-linejoin="round" stroke-miterlimit="10" d="M13.571,16.02
			c0.186,0.703,0.732,1.252,1.434,1.441c0.702,0.188,1.45-0.014,1.963-0.529c0.488-0.492,0.69-1.2,0.537-1.877
			c-0.153-0.676-0.643-1.227-1.296-1.459l-3.499-0.893L13.571,16.02z"/>
		<path fill="none" stroke="#000000" stroke-linejoin="round" stroke-miterlimit="10" d="M7.985,13.586
			c-0.702,0.188-1.25,0.736-1.436,1.438s0.019,1.451,0.536,1.961c0.494,0.486,1.202,0.687,1.878,0.53s1.225-0.646,1.454-1.301
			l0.88-3.504L7.985,13.586z"/>
		<path fill="none" stroke="#000000" stroke-linejoin="round" stroke-miterlimit="10" d="M10.399,7.991
			C10.209,7.29,9.658,6.744,8.955,6.56c-0.703-0.183-1.45,0.025-1.958,0.544C6.512,7.6,6.314,8.309,6.473,8.983
			s0.651,1.222,1.307,1.45l3.506,0.867L10.399,7.991z"/>
	</g>
</g>
<g id="invisible_shape">
	<rect fill="none" width="24" height="24"/>
</g>
</svg>
