<?xml version="1.0" encoding="utf-8"?>
<!-- Generator: Adobe Illustrator 16.0.3, SVG Export Plug-In . SVG Version: 6.00 Build 0)  -->
<!DOCTYPE svg PUBLIC "-//W3C//DTD SVG 1.1//EN" "http://www.w3.org/Graphics/SVG/1.1/DTD/svg11.dtd">
<svg version="1.1" xmlns="http://www.w3.org/2000/svg" xmlns:xlink="http://www.w3.org/1999/xlink" x="0px" y="0px" width="24px"
	 height="24px" viewBox="0 0 24 24" enable-background="new 0 0 24 24" xml:space="preserve">
<g id="Outline_Icons">
	<g>
		<path fill="none" stroke="#000000" stroke-linejoin="round" stroke-miterlimit="10" d="M13.471,3.121c0,0,2.792,0.898,3.853,2.82
			c-1.211,0.195-3.058-0.013-3.058-0.013c1.381,2.868,6.822,4.371,7.984,1.298C23.381,4.234,16.994-0.452,13.471,3.121z"/>
		<path fill="none" stroke="#000000" stroke-linejoin="round" stroke-miterlimit="10" d="M13.056,22.5h-2.102
			C6.46,20.487,5.628,16.677,4,13.298c4.604-3.039,11.346-3.055,16,0C18.378,16.739,17.551,20.548,13.056,22.5z"/>
		<path fill="none" stroke="#000000" stroke-linecap="round" stroke-linejoin="round" stroke-miterlimit="10" d="M23.375,19.006
			c0,0-1.863-3.006-4.547-3.006"/>
		<path fill="none" stroke="#000000" stroke-linecap="round" stroke-linejoin="round" stroke-miterlimit="10" d="M22.094,21.256
			c0,0-1.667-3.006-4.351-3.006"/>
		<path fill="none" stroke="#000000" stroke-linecap="round" stroke-linejoin="round" stroke-miterlimit="10" d="M20.812,23.506
			c0,0-1.984-3.006-4.668-3.006"/>
		<path fill="none" stroke="#000000" stroke-linecap="round" stroke-linejoin="round" stroke-miterlimit="10" d="M0.625,19.006
			c0,0,1.883-3.006,4.567-3.006"/>
		<path fill="none" stroke="#000000" stroke-linecap="round" stroke-linejoin="round" stroke-miterlimit="10" d="M1.906,21.256
			c0,0,1.666-3.006,4.351-3.006"/>
		<path fill="none" stroke="#000000" stroke-linecap="round" stroke-linejoin="round" stroke-miterlimit="10" d="M3.188,23.506
			c0,0,2.028-3.006,4.712-3.006"/>
		<path fill="none" stroke="#000000" stroke-linecap="round" stroke-linejoin="round" stroke-miterlimit="10" d="M18.219,12.142
			c0,0,3.516-1.328,4.062-5.031"/>
		<path fill="none" stroke="#000000" stroke-linejoin="round" stroke-miterlimit="10" d="M10.529,3.121c0,0-2.792,0.898-3.853,2.82
			c1.211,0.195,3.058-0.013,3.058-0.013C8.354,8.797,2.912,10.3,1.75,7.227C0.619,4.234,7.006-0.452,10.529,3.121z"/>
		<path fill="none" stroke="#000000" stroke-linecap="round" stroke-linejoin="round" stroke-miterlimit="10" d="M5.688,12.204
			c0,0-3.422-1.391-3.969-5.094"/>
		
			<line fill="none" stroke="#000000" stroke-linecap="round" stroke-linejoin="round" stroke-miterlimit="10" x1="12" y1="13.298" x2="12" y2="15.298"/>
		
			<line fill="none" stroke="#000000" stroke-linecap="round" stroke-linejoin="round" stroke-miterlimit="10" x1="15.161" y1="13.816" x2="14.308" y2="15.625"/>
		
			<line fill="none" stroke="#000000" stroke-linecap="round" stroke-linejoin="round" stroke-miterlimit="10" x1="8.808" y1="13.816" x2="9.661" y2="15.625"/>
	</g>
</g>
<g id="invisible_shape">
	<rect fill="none" width="24" height="24"/>
</g>
</svg>
