<?xml version="1.0" encoding="utf-8"?>
<!-- Generator: Adobe Illustrator 16.0.3, SVG Export Plug-In . SVG Version: 6.00 Build 0)  -->
<!DOCTYPE svg PUBLIC "-//W3C//DTD SVG 1.1//EN" "http://www.w3.org/Graphics/SVG/1.1/DTD/svg11.dtd">
<svg version="1.1" xmlns="http://www.w3.org/2000/svg" xmlns:xlink="http://www.w3.org/1999/xlink" x="0px" y="0px" width="24px"
	 height="24px" viewBox="0 0 24 24" enable-background="new 0 0 24 24" xml:space="preserve">
<g id="Outline_Icons">
	<g>
		<polyline fill="none" stroke="#000000" stroke-linejoin="round" stroke-miterlimit="10" points="19.236,17.424 17.5,23.502 
			6.5,23.502 4.73,17.309 		"/>
		
			<line fill="none" stroke="#000000" stroke-linejoin="round" stroke-miterlimit="10" x1="9.993" y1="23.502" x2="8.949" y2="16.063"/>
		
			<line fill="none" stroke="#000000" stroke-linejoin="round" stroke-miterlimit="10" x1="14.006" y1="23.502" x2="15.055" y2="16.115"/>
		<path fill="none" stroke="#000000" stroke-linejoin="round" stroke-miterlimit="10" d="M14.921,7.866
			c3.604,0.86,6.599,3.212,6.599,6.136c0,2.071-1.448,3.625-3.52,3.625c-1.232,0-2.316-0.664-3-1.582
			c-0.685,0.918-1.769,1.488-3,1.488c-1.232,0-2.316-0.618-3-1.536c-0.685,0.918-1.769,1.513-3,1.513c-2.07,0-3.5-1.432-3.5-3.504
			c0-2.949,2.918-5.281,6.477-6.139l0.138-0.046"/>
		<circle fill="none" stroke="#000000" stroke-linejoin="round" stroke-miterlimit="10" cx="12" cy="7.002" r="3"/>
		<path fill="none" stroke="#000000" stroke-linecap="round" stroke-linejoin="round" stroke-miterlimit="10" d="M12,4.002
			c0-1.656,1.344-3,3-3"/>
	</g>
</g>
<g id="invisible_shape">
	<rect fill="none" width="24" height="24"/>
</g>
</svg>
