<?xml version="1.0" encoding="utf-8"?>
<!-- Generator: Adobe Illustrator 16.0.3, SVG Export Plug-In . SVG Version: 6.00 Build 0)  -->
<!DOCTYPE svg PUBLIC "-//W3C//DTD SVG 1.1//EN" "http://www.w3.org/Graphics/SVG/1.1/DTD/svg11.dtd">
<svg version="1.1" xmlns="http://www.w3.org/2000/svg" xmlns:xlink="http://www.w3.org/1999/xlink" x="0px" y="0px" width="24px"
	 height="24px" viewBox="0 0 24 24" enable-background="new 0 0 24 24" xml:space="preserve">
<g id="Outline_Icons">
	<g>
		<path fill="none" stroke="#000000" stroke-linejoin="round" stroke-miterlimit="10" d="M10.5,11.5
			c0-2.924-2.509-5.261-5.491-4.977C2.409,6.771,0.5,9.104,0.5,11.715V13.5c0,2.209,1.791,4,4,4h2c2.209,0,4-1.791,4-4V11.5z"/>
		<path fill="none" stroke="#000000" stroke-linejoin="round" stroke-miterlimit="10" d="M5.5,6.5c7,0,10.699,1.869,14,5
			c-1.37,3.65-4.739,5.864-11,6h-3"/>
		<path fill="none" stroke="#000000" stroke-linejoin="round" stroke-miterlimit="10" d="M19.5,11.5v-1c0-2.209,1.791-4,4-4v1
			C23.5,9.709,21.709,11.5,19.5,11.5z"/>
		<path fill="none" stroke="#000000" stroke-linejoin="round" stroke-miterlimit="10" d="M19.5,11.5v1c0,2.209,1.791,4,4,4v-1
			C23.5,13.291,21.709,11.5,19.5,11.5z"/>
		<path fill="none" stroke="#000000" stroke-linejoin="round" stroke-miterlimit="10" d="M8.5,11.5c0-1.656-1.343-3-3-3
			s-3,1.344-3,3v1c0,1.657,1.343,3,3,3s3-1.343,3-3V11.5z"/>
		<path fill="none" stroke="#000000" stroke-linejoin="round" stroke-miterlimit="10" d="M6.5,11.5c0-0.553-0.447-1-1-1
			s-1,0.447-1,1v1c0,0.553,0.447,1,1,1s1-0.447,1-1V11.5z"/>
	</g>
</g>
<g id="invisible_shape">
	<rect fill="none" width="24" height="24"/>
</g>
</svg>
