<?xml version="1.0" encoding="utf-8"?>
<!-- Generator: Adobe Illustrator 16.0.3, SVG Export Plug-In . SVG Version: 6.00 Build 0)  -->
<!DOCTYPE svg PUBLIC "-//W3C//DTD SVG 1.1//EN" "http://www.w3.org/Graphics/SVG/1.1/DTD/svg11.dtd">
<svg version="1.1" xmlns="http://www.w3.org/2000/svg" xmlns:xlink="http://www.w3.org/1999/xlink" x="0px" y="0px" width="24px"
	 height="24px" viewBox="0 0 24 24" enable-background="new 0 0 24 24" xml:space="preserve">
<g id="Outline_Icons">
	<g>
		<path fill="none" stroke="#000000" stroke-linejoin="round" stroke-miterlimit="10" d="M3.5,15.531V17.5c0,2.209,1.791,4,4,4h9
			c2.209,0,4-1.791,4-4v-1.969"/>
		<path fill="none" stroke="#000000" stroke-linejoin="round" stroke-miterlimit="10" d="M12,12.5c3.847,0,7.316,1.609,9.775,4.192
			c0.281,0.295,0.715,0.39,1.094,0.239c0.38-0.151,0.629-0.518,0.631-0.926C23.52,9.786,18.47,4.5,12,4.5
			C5.529,4.5,0.48,9.787,0.5,16.006c0.002,0.408,0.251,0.774,0.631,0.926c0.379,0.15,0.812,0.056,1.094-0.239
			C4.684,14.109,8.153,12.5,12,12.5z"/>
		
			<line fill="none" stroke="#000000" stroke-linejoin="round" stroke-miterlimit="10" x1="4.25" y1="15.031" x2="9.062" y2="4.812"/>
		
			<line fill="none" stroke="#000000" stroke-linejoin="round" stroke-miterlimit="10" x1="11.401" y1="12.586" x2="15.062" y2="4.812"/>
		
			<line fill="none" stroke="#000000" stroke-linejoin="round" stroke-miterlimit="10" x1="16.98" y1="13.479" x2="19.787" y2="7.52"/>
	</g>
</g>
<g id="invisible_shape">
	<rect fill="none" width="24" height="24"/>
</g>
</svg>
