<?xml version="1.0" encoding="utf-8"?>
<!-- Generator: Adobe Illustrator 16.0.3, SVG Export Plug-In . SVG Version: 6.00 Build 0)  -->
<!DOCTYPE svg PUBLIC "-//W3C//DTD SVG 1.1//EN" "http://www.w3.org/Graphics/SVG/1.1/DTD/svg11.dtd">
<svg version="1.1" xmlns="http://www.w3.org/2000/svg" xmlns:xlink="http://www.w3.org/1999/xlink" x="0px" y="0px" width="24px"
	 height="24px" viewBox="0 0 24 24" enable-background="new 0 0 24 24" xml:space="preserve">
<g id="Outline_Icons">
	<g>
		<path fill="none" stroke="#000000" stroke-linejoin="round" stroke-miterlimit="10" d="M22.5,12.5h-21V11
			c0-3.591,2.91-6.5,6.5-6.5h8c3.59,0,6.5,2.909,6.5,6.5V12.5z"/>
		<path fill="none" stroke="#000000" stroke-linejoin="round" stroke-miterlimit="10" d="M23.5,15c0,0.828-0.672,1.5-1.5,1.5H2
			c-0.828,0-1.5-0.672-1.5-1.5v-1c0-0.828,0.672-1.5,1.5-1.5h20c0.828,0,1.5,0.672,1.5,1.5V15z"/>
		<path fill="none" stroke="#000000" stroke-linejoin="round" stroke-miterlimit="10" d="M22.5,17.5c0,1.104-0.895,2-2,2h-17
			c-1.104,0-2-0.896-2-2v-1h21V17.5z"/>
		<g>
			<g>
				<path d="M7.5,7C7.224,7,7,7.224,7,7.5C7,7.775,7.224,8,7.5,8S8,7.775,8,7.5C8,7.224,7.776,7,7.5,7L7.5,7z"/>
			</g>
		</g>
		<g>
			<g>
				<path d="M9.5,6C9.224,6,9,6.224,9,6.5C9,6.775,9.224,7,9.5,7S10,6.775,10,6.5C10,6.224,9.776,6,9.5,6L9.5,6z"/>
			</g>
		</g>
		<g>
			<g>
				<path d="M14.5,6C14.224,6,14,6.224,14,6.5C14,6.775,14.224,7,14.5,7S15,6.775,15,6.5C15,6.224,14.776,6,14.5,6L14.5,6z"/>
			</g>
		</g>
		<g>
			<g>
				<path d="M12,7c-0.276,0-0.5,0.224-0.5,0.5C11.5,7.775,11.724,8,12,8s0.5-0.225,0.5-0.5C12.5,7.224,12.276,7,12,7L12,7z"/>
			</g>
		</g>
		<g>
			<g>
				<path d="M16.542,7c-0.276,0-0.5,0.224-0.5,0.5c0,0.275,0.224,0.5,0.5,0.5s0.5-0.225,0.5-0.5C17.042,7.224,16.818,7,16.542,7
					L16.542,7z"/>
			</g>
		</g>
	</g>
</g>
<g id="invisible_shape">
	<rect fill="none" width="24" height="24"/>
</g>
</svg>
