<?xml version="1.0" encoding="utf-8"?>
<!-- Generator: Adobe Illustrator 16.0.3, SVG Export Plug-In . SVG Version: 6.00 Build 0)  -->
<!DOCTYPE svg PUBLIC "-//W3C//DTD SVG 1.1//EN" "http://www.w3.org/Graphics/SVG/1.1/DTD/svg11.dtd">
<svg version="1.1" xmlns="http://www.w3.org/2000/svg" xmlns:xlink="http://www.w3.org/1999/xlink" x="0px" y="0px" width="24px"
	 height="24px" viewBox="0 0 24 24" enable-background="new 0 0 24 24" xml:space="preserve">
<g id="Outline_Icons">
	<g>
		
			<line fill="none" stroke="#000000" stroke-linecap="round" stroke-linejoin="round" stroke-miterlimit="10" x1="12.857" y1="6.17" x2="21.614" y2="1.963"/>
		<path fill="none" stroke="#000000" stroke-linejoin="round" stroke-miterlimit="10" d="M10.582,3.975
			c0.489-0.256,1.094-0.066,1.35,0.423l1.853,3.545c0.256,0.489,0.066,1.094-0.423,1.35s-1.094,0.066-1.35-0.423l-1.853-3.545
			C9.903,4.834,10.093,4.23,10.582,3.975z"/>
		<path fill="none" stroke="#000000" stroke-linecap="round" stroke-linejoin="round" stroke-miterlimit="10" d="M8.002,9.847
			l-1.388-2.67c-0.256-0.489-0.066-1.094,0.423-1.35c0.489-0.255,1.094-0.066,1.35,0.423l1.618,3.097"/>
		<path fill="none" stroke="#000000" stroke-linejoin="round" stroke-miterlimit="10" d="M10.005,9.347L7.923,5.364
			c-0.256-0.489-0.066-1.094,0.423-1.35c0.49-0.256,1.094-0.066,1.35,0.423l2.316,4.432"/>
		<circle fill="none" stroke="#000000" stroke-linejoin="round" stroke-miterlimit="10" cx="22.5" cy="1.5" r="1"/>
		<path fill="none" stroke="#000000" stroke-linejoin="round" stroke-miterlimit="10" d="M16.5,17.5c0,0.553-0.447,1-1,1h-14
			c-0.553,0-1-0.447-1-1v-1c0-0.553,0.447-1,1-1h14c0.553,0,1,0.447,1,1V17.5z"/>
		<path fill="none" stroke="#000000" stroke-linejoin="round" stroke-miterlimit="10" d="M14.5,18.5h-12v0.05
			c0,2.734,2.216,4.95,4.95,4.95h2.1c2.734,0,4.95-2.216,4.95-4.95V18.5z"/>
		<path fill="none" stroke="#000000" stroke-linecap="round" stroke-linejoin="round" stroke-miterlimit="10" d="M12.502,11v0.846
			c0,0.553-0.447,1-1,1c-0.552,0-1-0.793-1-1.346c0,1.104-0.895,2-2,2c-1.104,0-2-0.896-2-2V11"/>
	</g>
</g>
<g id="invisible_shape">
	<rect fill="none" width="24" height="24"/>
</g>
</svg>
