<?xml version="1.0" encoding="utf-8"?>
<!-- Generator: Adobe Illustrator 16.0.3, SVG Export Plug-In . SVG Version: 6.00 Build 0)  -->
<!DOCTYPE svg PUBLIC "-//W3C//DTD SVG 1.1//EN" "http://www.w3.org/Graphics/SVG/1.1/DTD/svg11.dtd">
<svg version="1.1" xmlns="http://www.w3.org/2000/svg" xmlns:xlink="http://www.w3.org/1999/xlink" x="0px" y="0px" width="24px"
	 height="24px" viewBox="0 0 24 24" enable-background="new 0 0 24 24" xml:space="preserve">
<g id="Outline_Icons">
	<g>
		<path fill="none" stroke="#000000" stroke-linejoin="round" stroke-miterlimit="10" d="M3.863,9.89
			C1.083,16,6.853,22.5,8.923,22.5h6.139c1.544,0,7.979-6.5,4.961-12.738"/>
		<path fill="none" stroke="#000000" stroke-linecap="round" stroke-linejoin="round" stroke-miterlimit="10" d="M17.5,3.5
			c0-0.553-0.447-1-1-1h-9c-0.553,0-1,0.447-1,1v2h11V3.5z"/>
		<path fill="none" stroke="#000000" stroke-linecap="round" stroke-linejoin="round" stroke-miterlimit="10" d="M6.755,5.5
			c-0.143,0-0.278,0.061-0.373,0.167L3.329,9.082c-0.151,0.17-0.17,0.42-0.044,0.609C3.41,9.881,3.647,9.963,3.862,9.89
			C6.013,9.16,6.407,8.519,7.5,8.531c2.018,0.022,2.508,1.96,4.5,1.953c2.031-0.007,2.388-1.983,4.453-1.953
			c1,0.015,1.486,0.624,3.756,1.376c0.216,0.071,0.452-0.012,0.576-0.201c0.124-0.19,0.104-0.439-0.047-0.608l-3.089-3.432
			C17.554,5.56,17.419,5.5,17.277,5.5H6.755z"/>
		
			<circle fill="none" stroke="#000000" stroke-linecap="round" stroke-linejoin="round" stroke-miterlimit="10" cx="9" cy="17" r="1"/>
		
			<circle fill="none" stroke="#000000" stroke-linecap="round" stroke-linejoin="round" stroke-miterlimit="10" cx="12" cy="19" r="1"/>
		
			<circle fill="none" stroke="#000000" stroke-linecap="round" stroke-linejoin="round" stroke-miterlimit="10" cx="13" cy="16" r="1"/>
	</g>
</g>
<g id="invisible_shape">
	<rect fill="none" width="24" height="24"/>
</g>
</svg>
