<?xml version="1.0" encoding="utf-8"?>
<!-- Generator: Adobe Illustrator 16.0.3, SVG Export Plug-In . SVG Version: 6.00 Build 0)  -->
<!DOCTYPE svg PUBLIC "-//W3C//DTD SVG 1.1//EN" "http://www.w3.org/Graphics/SVG/1.1/DTD/svg11.dtd">
<svg version="1.1" xmlns="http://www.w3.org/2000/svg" xmlns:xlink="http://www.w3.org/1999/xlink" x="0px" y="0px" width="24px"
	 height="24px" viewBox="0 0 24 24" enable-background="new 0 0 24 24" xml:space="preserve">
<g id="Outline_Icons">
	<g>
		<path fill="none" stroke="#000000" stroke-linejoin="round" stroke-miterlimit="10" d="M4.5,5.5h15c0.553,0,1-0.447,1-1v-2
			c0-0.553-0.447-1-1-1h-15c-0.553,0-1,0.447-1,1v2C3.5,5.053,3.947,5.5,4.5,5.5z"/>
		<path fill="none" stroke="#000000" stroke-linejoin="round" stroke-miterlimit="10" d="M19.505,5.5c0,0,3,1.752,3,5
			c0,3.826-2.503,12-6,12H7.5c-3.498,0-6-8.174-6-12c0-3.248,3-5,3-5"/>
		<g>
			<polygon fill="none" stroke="#000000" stroke-linejoin="round" stroke-miterlimit="10" points="13.502,8.5 15.002,11 
				13.502,13.5 10.502,13.5 9.002,11 10.502,8.5 			"/>
			<polygon fill="none" stroke="#000000" stroke-linejoin="round" stroke-miterlimit="10" points="13.502,13.5 15.002,16 
				13.502,18.5 10.502,18.5 9.002,16 10.502,13.5 			"/>
			<polygon fill="none" stroke="#000000" stroke-linejoin="round" stroke-miterlimit="10" points="18.002,11 19.502,13.5 18.002,16 
				15.002,16 13.502,13.5 15.002,11 			"/>
			<polygon fill="none" stroke="#000000" stroke-linejoin="round" stroke-miterlimit="10" points="9.002,11 10.502,13.5 9.002,16 
				6.002,16 4.502,13.5 6.002,11 			"/>
		</g>
	</g>
</g>
<g id="invisible_shape">
	<rect fill="none" width="24" height="24"/>
</g>
</svg>
