<?xml version="1.0" encoding="utf-8"?>
<!-- Generator: Adobe Illustrator 16.0.3, SVG Export Plug-In . SVG Version: 6.00 Build 0)  -->
<!DOCTYPE svg PUBLIC "-//W3C//DTD SVG 1.1//EN" "http://www.w3.org/Graphics/SVG/1.1/DTD/svg11.dtd">
<svg version="1.1" xmlns="http://www.w3.org/2000/svg" xmlns:xlink="http://www.w3.org/1999/xlink" x="0px" y="0px" width="24px"
	 height="24px" viewBox="0 0 24 24" enable-background="new 0 0 24 24" xml:space="preserve">
<g id="Outline_Icons">
	<g>
		<path fill="none" stroke="#000000" stroke-linecap="round" stroke-linejoin="round" stroke-miterlimit="10" d="M19.701,4.308
			c-0.391-0.391-1.024-0.391-1.415-0.001c-0.39,0.39-0.39,1.023,0,1.415c0.392,0.39,0.392,1.023,0.001,1.414s-1.023,0.391-1.414,0
			c-0.392-0.391-1.024-0.391-1.414,0s-0.39,1.023,0,1.413c0.39,0.392,0.39,1.025,0,1.415c-0.39,0.391-1.024,0.391-1.415,0
			s-1.023-0.391-1.414,0s-0.391,1.022,0,1.414c0.391,0.39,0.391,1.023,0,1.414s-1.023,0.391-1.414,0s-1.024-0.391-1.414,0
			c-0.391,0.391-0.391,1.023,0,1.415c0.391,0.39,0.391,1.023,0,1.413c-0.391,0.392-1.023,0.392-1.414,0
			c-0.391-0.39-1.024-0.39-1.414,0c-0.392,0.391-0.392,1.024,0,1.414c0.39,0.392,0.39,1.023,0,1.415c-0.391,0.39-1.024,0.39-1.415,0
			c-0.39-0.392-1.023-0.392-1.414,0c-0.391,0.39-0.391,1.022,0,1.414"/>
		<path fill="none" stroke="#000000" stroke-linecap="round" stroke-linejoin="round" stroke-miterlimit="10" d="M2.73,17.034
			c-1.172,1.173-1.172,3.072,0,4.244c1.172,1.171,3.071,1.171,4.242,0L21.115,7.136c1.171-1.172,1.171-3.071,0-4.243
			c-1.171-1.171-3.071-1.171-4.243,0L2.73,17.034z"/>
		<path fill="none" stroke="#000000" stroke-linejoin="round" stroke-miterlimit="10" d="M21.893,5.782
			c2.073,2.15,1.706,4.527,0.283,5.95L11.57,22.339c-1.438,1.438-3.921,1.783-5.937-0.286"/>
		<path fill="none" stroke="#000000" stroke-linecap="round" stroke-linejoin="round" stroke-miterlimit="10" d="M1.953,18.386
			c-2.077-2.124-1.703-4.528-0.283-5.946L12.277,1.832c1.408-1.41,3.576-1.809,5.974,0.275"/>
	</g>
</g>
<g id="invisible_shape">
	<rect fill="none" width="24" height="24"/>
</g>
</svg>
