<?xml version="1.0" encoding="utf-8"?>
<!-- Generator: Adobe Illustrator 16.0.3, SVG Export Plug-In . SVG Version: 6.00 Build 0)  -->
<!DOCTYPE svg PUBLIC "-//W3C//DTD SVG 1.1//EN" "http://www.w3.org/Graphics/SVG/1.1/DTD/svg11.dtd">
<svg version="1.1" xmlns="http://www.w3.org/2000/svg" xmlns:xlink="http://www.w3.org/1999/xlink" x="0px" y="0px" width="24px"
	 height="24px" viewBox="0 0 24 24" enable-background="new 0 0 24 24" xml:space="preserve">
<g id="Outline_Icons">
	<g>
		<path fill="none" stroke="#000000" stroke-linejoin="round" stroke-miterlimit="10" d="M18.5,9.5v12c0,1.104-0.896,2-2,2h-9
			c-1.104,0-2-0.896-2-2v-12"/>
		<path fill="none" stroke="#000000" stroke-linejoin="round" stroke-miterlimit="10" d="M19.5,6.5l0.5,2c-0.456,0.607-1.182,1-2,1
			c-0.565,0-1.081-0.195-1.5-0.512C16.081,9.305,15.565,9.5,15,9.5s-1.081-0.195-1.5-0.512C13.081,9.305,12.565,9.5,12,9.5
			s-1.081-0.195-1.5-0.512C10.081,9.305,9.565,9.5,9,9.5S7.919,9.305,7.5,8.988C7.081,9.305,6.565,9.5,6,9.5
			c-0.819,0-1.547-0.395-2.003-1.004L4.5,6.5c-0.553,0-1-0.447-1-1v-1c0-0.553,0.447-1,1-1h15c0.553,0,1,0.447,1,1v1
			C20.5,6.053,20.053,6.5,19.5,6.5z"/>
		<line fill="none" stroke="#000000" stroke-linejoin="round" stroke-miterlimit="10" x1="4.5" y1="6.5" x2="19.5" y2="6.5"/>
		<rect x="8.502" y="14.5" fill="none" stroke="#000000" stroke-linejoin="round" stroke-miterlimit="10" width="7" height="5"/>
	</g>
</g>
<g id="invisible_shape">
	<rect fill="none" width="24" height="24"/>
</g>
</svg>
