<?xml version="1.0" encoding="utf-8"?>
<!-- Generator: Adobe Illustrator 16.0.3, SVG Export Plug-In . SVG Version: 6.00 Build 0)  -->
<!DOCTYPE svg PUBLIC "-//W3C//DTD SVG 1.1//EN" "http://www.w3.org/Graphics/SVG/1.1/DTD/svg11.dtd">
<svg version="1.1" xmlns="http://www.w3.org/2000/svg" xmlns:xlink="http://www.w3.org/1999/xlink" x="0px" y="0px" width="24px"
	 height="24px" viewBox="0 0 24 24" enable-background="new 0 0 24 24" xml:space="preserve">
<g id="Outline_Icons">
	<g>
		<path fill="none" stroke="#000000" stroke-linecap="round" stroke-linejoin="round" stroke-miterlimit="10" d="M13.5,0.5
			c2.485,0,4.734,1,6.363,2.5h0.001L13.5,9.5V0.5z"/>
		<path fill="none" stroke="#000000" stroke-linecap="round" stroke-linejoin="round" stroke-miterlimit="10" d="M17.864,8.136
			L11.5,14.5v-9c-4.971,0-9,4.03-9,9c0,4.971,4.029,9,9,9s9-4.029,9-9C20.5,12.015,19.493,9.764,17.864,8.136z"/>
		<path fill="none" stroke="#000000" stroke-linecap="round" stroke-linejoin="round" stroke-miterlimit="10" d="M16.449,9.549
			L11.5,14.5v-7c-3.866,0-7,3.135-7,7c0,3.866,3.134,7,7,7s7-3.134,7-7C18.5,12.567,17.717,10.817,16.449,9.549z"/>
		<path fill="none" stroke="#000000" stroke-linecap="round" stroke-linejoin="round" stroke-miterlimit="10" d="M13.5,2.5
			c1.933,0,3.683,0.783,4.949,2.049"/>
		
			<circle fill="none" stroke="#000000" stroke-linecap="round" stroke-linejoin="round" stroke-miterlimit="10" cx="9" cy="11" r="1"/>
		
			<circle fill="none" stroke="#000000" stroke-linecap="round" stroke-linejoin="round" stroke-miterlimit="10" cx="8" cy="15.5" r="1"/>
		
			<circle fill="none" stroke="#000000" stroke-linecap="round" stroke-linejoin="round" stroke-miterlimit="10" cx="12" cy="18.5" r="1"/>
		
			<circle fill="none" stroke="#000000" stroke-linecap="round" stroke-linejoin="round" stroke-miterlimit="10" cx="15.5" cy="15.5" r="1"/>
		<path fill="none" stroke="#000000" stroke-linejoin="round" stroke-miterlimit="10" d="M15.227,10.774L15.5,11
			c0.391,0.39,0.391,1.109,0,1.5c-0.391,0.39-1.109,0.39-1.5,0l-0.273-0.226"/>
		<path fill="none" stroke="#000000" stroke-linecap="round" stroke-linejoin="round" stroke-miterlimit="10" d="M17.266,5.734
			L17,5.5c-0.391-0.391-1.109-0.391-1.5,0c-0.391,0.39-0.391,1.109,0,1.5l0.258,0.243"/>
	</g>
</g>
<g id="invisible_shape">
	<rect fill="none" width="24" height="24"/>
</g>
</svg>
