<?xml version="1.0" encoding="utf-8"?>
<!-- Generator: Adobe Illustrator 16.0.3, SVG Export Plug-In . SVG Version: 6.00 Build 0)  -->
<!DOCTYPE svg PUBLIC "-//W3C//DTD SVG 1.1//EN" "http://www.w3.org/Graphics/SVG/1.1/DTD/svg11.dtd">
<svg version="1.1" xmlns="http://www.w3.org/2000/svg" xmlns:xlink="http://www.w3.org/1999/xlink" x="0px" y="0px" width="24px"
	 height="24px" viewBox="0 0 24 24" enable-background="new 0 0 24 24" xml:space="preserve">
<g id="Outline_Icons">
	<g>
		<polygon fill="none" stroke="#000000" stroke-linejoin="round" stroke-miterlimit="10" points="19.5,23.5 4.5,23.5 3.5,7.5 
			20.5,7.5 		"/>
		<line fill="none" stroke="#000000" stroke-linejoin="round" stroke-miterlimit="10" x1="3.833" y1="12.5" x2="20.166" y2="12.5"/>
		<line fill="none" stroke="#000000" stroke-linejoin="round" stroke-miterlimit="10" x1="4.083" y1="16.5" x2="19.938" y2="16.5"/>
		<line fill="none" stroke="#000000" stroke-linejoin="round" stroke-miterlimit="10" x1="7.5" y1="7.5" x2="7.5" y2="12.5"/>
		<line fill="none" stroke="#000000" stroke-linejoin="round" stroke-miterlimit="10" x1="10.5" y1="7.5" x2="10.5" y2="12.5"/>
		<line fill="none" stroke="#000000" stroke-linejoin="round" stroke-miterlimit="10" x1="13.5" y1="7.5" x2="13.5" y2="12.5"/>
		<line fill="none" stroke="#000000" stroke-linejoin="round" stroke-miterlimit="10" x1="16.5" y1="7.5" x2="16.5" y2="12.5"/>
		<line fill="none" stroke="#000000" stroke-linejoin="round" stroke-miterlimit="10" x1="7.5" y1="16.5" x2="7.5" y2="23.5"/>
		<line fill="none" stroke="#000000" stroke-linejoin="round" stroke-miterlimit="10" x1="10.5" y1="16.5" x2="10.5" y2="23.5"/>
		<line fill="none" stroke="#000000" stroke-linejoin="round" stroke-miterlimit="10" x1="13.5" y1="16.5" x2="13.5" y2="23.5"/>
		<line fill="none" stroke="#000000" stroke-linejoin="round" stroke-miterlimit="10" x1="16.5" y1="16.5" x2="16.5" y2="23.5"/>
		<path fill="none" stroke="#000000" stroke-linecap="round" stroke-linejoin="round" stroke-miterlimit="10" d="M20.5,5.5
			c0-3.494-3.397-3.702-4.595-1.859c-0.911-4.165-6.896-4.184-7.811,0C6.892,1.792,3.5,2.016,3.5,5.5"/>
	</g>
</g>
<g id="invisible_shape">
	<rect fill="none" width="24" height="24"/>
</g>
</svg>
