<?xml version="1.0" encoding="utf-8"?>
<!-- Generator: Adobe Illustrator 16.0.3, SVG Export Plug-In . SVG Version: 6.00 Build 0)  -->
<!DOCTYPE svg PUBLIC "-//W3C//DTD SVG 1.1//EN" "http://www.w3.org/Graphics/SVG/1.1/DTD/svg11.dtd">
<svg version="1.1" xmlns="http://www.w3.org/2000/svg" xmlns:xlink="http://www.w3.org/1999/xlink" x="0px" y="0px" width="24px"
	 height="24px" viewBox="0 0 24 24" enable-background="new 0 0 24 24" xml:space="preserve">
<g id="Outline_Icons">
	<g>
		<path fill="none" stroke="#000000" stroke-linejoin="round" stroke-miterlimit="10" d="M12,21.11c-2.954,0-5.726-0.9-7.803-2.535
			C1.778,16.672,0.5,13.968,0.5,10.756c0-4.273,3.477-7.75,7.75-7.75c1.359,0,2.638,0.352,3.75,0.969
			c1.111-0.617,2.391-0.969,3.75-0.969c4.273,0,7.75,3.477,7.75,7.75C23.5,17.554,17.715,21.11,12,21.11z M14.725,14.866
			c0.698,0.537,1.519,1.054,2.466,1.521c2.245-1.13,3.31-2.515,3.31-5.632c0-2.619-2.131-4.75-4.75-4.75
			c-0.434,0-0.854,0.059-1.253,0.168C15.441,7.458,16,9.043,16,10.756C16,12.358,15.93,13.335,14.725,14.866z M8.25,6.006
			c-2.619,0-4.75,2.131-4.75,4.75c0,3.107,1.032,4.5,3.267,5.631c0.932-0.457,1.751-0.97,2.454-1.511C8.03,13.354,8,12.375,8,10.756
			c0-1.713,0.559-3.298,1.503-4.582C9.104,6.064,8.684,6.006,8.25,6.006z M12,7.844c-0.627,0.805-1,1.815-1,2.912
			c0,0.753,0.321,1.673,0.99,2.627c0.669-0.941,1.01-1.861,1.01-2.627C13,9.659,12.627,8.648,12,7.844z"/>
		<path fill="none" stroke="#000000" stroke-linejoin="round" stroke-miterlimit="10" d="M12.037,16.241c0,0-1.938,1.271-3,1.854
			c2,0.604,4.021,0.604,5.959,0.021C13.975,17.47,12.037,16.241,12.037,16.241z"/>
	</g>
</g>
<g id="invisible_shape">
	<rect fill="none" width="24" height="24"/>
</g>
</svg>
