<?xml version="1.0" encoding="utf-8"?>
<!-- Generator: Adobe Illustrator 16.0.3, SVG Export Plug-In . SVG Version: 6.00 Build 0)  -->
<!DOCTYPE svg PUBLIC "-//W3C//DTD SVG 1.1//EN" "http://www.w3.org/Graphics/SVG/1.1/DTD/svg11.dtd">
<svg version="1.1" xmlns="http://www.w3.org/2000/svg" xmlns:xlink="http://www.w3.org/1999/xlink" x="0px" y="0px" width="24px"
	 height="24px" viewBox="0 0 24 24" enable-background="new 0 0 24 24" xml:space="preserve">
<g id="Outline_Icons">
	<g>
		<path fill="none" stroke="#000000" stroke-linecap="round" stroke-linejoin="round" stroke-miterlimit="10" d="M4.5,19.5
			c-2.209,0-4-1.791-4-4v-7c0-2.209,1.791-4,4-4h15c2.209,0,4,1.791,4,4v7c0,2.209-1.791,4-4,4H4.5z"/>
		<path fill="none" stroke="#000000" stroke-linejoin="round" stroke-miterlimit="10" d="M17.5,18.5c0,0.553-0.447,1-1,1h-2
			c-0.553,0-1-0.447-1-1v-12c0-0.553,0.447-1,1-1h2c0.553,0,1,0.447,1,1V18.5z"/>
		<path fill="none" stroke="#000000" stroke-linecap="round" stroke-linejoin="round" stroke-miterlimit="10" d="M14.5,21.5H14
			c-0.553,0-1,0.447-1,1s0.447,1,1,1h3c0.553,0,1-0.447,1-1s-0.447-1-1-1c-0.828,0-1.5-0.672-1.5-1.5v-0.5"/>
		<path fill="none" stroke="#000000" stroke-linecap="round" stroke-linejoin="round" stroke-miterlimit="10" d="M18.5,16.5
			c1.104,0,2-0.896,2-2v-5c0-1.104-0.896-2-2-2"/>
		<path fill="none" stroke="#000000" stroke-linecap="round" stroke-linejoin="round" stroke-miterlimit="10" d="M2.5,8
			c1.973,0.986,4.148,1.5,6.354,1.5H13.5v-3H8.854C6.648,6.5,4.473,7.014,2.5,8z"/>
		<path fill="none" stroke="#000000" stroke-linecap="round" stroke-linejoin="round" stroke-miterlimit="10" d="M2.5,12
			c1.973,0.986,4.148,1.5,6.354,1.5H13.5v-3H8.854C6.648,10.5,4.473,11.014,2.5,12z"/>
		<path fill="none" stroke="#000000" stroke-linecap="round" stroke-linejoin="round" stroke-miterlimit="10" d="M2.5,16
			c1.973,0.986,4.148,1.5,6.354,1.5H13.5v-3H8.854C6.648,14.5,4.473,15.014,2.5,16z"/>
	</g>
</g>
<g id="invisible_shape">
	<rect fill="none" width="24" height="24"/>
</g>
</svg>
