<?xml version="1.0" encoding="utf-8"?>
<!-- Generator: Adobe Illustrator 16.0.3, SVG Export Plug-In . SVG Version: 6.00 Build 0)  -->
<!DOCTYPE svg PUBLIC "-//W3C//DTD SVG 1.1//EN" "http://www.w3.org/Graphics/SVG/1.1/DTD/svg11.dtd">
<svg version="1.1" xmlns="http://www.w3.org/2000/svg" xmlns:xlink="http://www.w3.org/1999/xlink" x="0px" y="0px" width="24px"
	 height="24px" viewBox="0 0 24 24" enable-background="new 0 0 24 24" xml:space="preserve">
<g id="Outline_Icons">
	<g>
		<g>
			<path fill="none" stroke="#000000" stroke-miterlimit="10" d="M17.208,17c-0.595,1.465-2.032,2.5-3.708,2.5h-2
				c-1.104,0-2,0.896-2,2c0,0.552-0.447,1-1,1c-0.552,0-1-0.448-1-1c0-2.206,1.795-4,4-4h2c1.103,0,2-0.897,2-2"/>
		</g>
		<path fill="none" stroke="#000000" stroke-linejoin="round" stroke-miterlimit="10" d="M12.5,15.5v-9c-2.003,0-3.554,1.277-4,3h-8
			v3h8C8.946,14.222,10.497,15.5,12.5,15.5z"/>
		<line fill="none" stroke="#000000" stroke-linecap="round" stroke-miterlimit="10" x1="21.5" y1="6.5" x2="23.5" y2="6.5"/>
		<line fill="none" stroke="#000000" stroke-linecap="round" stroke-miterlimit="10" x1="12.5" y1="6.5" x2="15.5" y2="6.5"/>
		<line fill="none" stroke="#000000" stroke-linecap="round" stroke-miterlimit="10" x1="21.5" y1="9.5" x2="23.5" y2="9.5"/>
		<line fill="none" stroke="#000000" stroke-linecap="round" stroke-miterlimit="10" x1="12.5" y1="9.5" x2="15.5" y2="9.5"/>
		<line fill="none" stroke="#000000" stroke-linecap="round" stroke-miterlimit="10" x1="21.5" y1="12.5" x2="23.5" y2="12.5"/>
		<line fill="none" stroke="#000000" stroke-linecap="round" stroke-miterlimit="10" x1="12.5" y1="12.5" x2="15.5" y2="12.5"/>
		<line fill="none" stroke="#000000" stroke-linecap="round" stroke-miterlimit="10" x1="21.5" y1="15.5" x2="23.5" y2="15.5"/>
		<line fill="none" stroke="#000000" stroke-linecap="round" stroke-miterlimit="10" x1="12.5" y1="15.5" x2="15.5" y2="15.5"/>
		<path fill="none" stroke="#000000" stroke-linejoin="round" stroke-miterlimit="10" d="M20.5,5c-0.553,0-1,0.447-1,1v10
			c0,0.552,0.447,1,1,1s1-0.448,1-1V6C21.5,5.447,21.053,5,20.5,5z"/>
		<path fill="none" stroke="#000000" stroke-linejoin="round" stroke-miterlimit="10" d="M18.5,5c-0.553,0-1,0.447-1,1v10
			c0,0.552,0.447,1,1,1s1-0.448,1-1V6C19.5,5.447,19.053,5,18.5,5z"/>
		<path fill="none" stroke="#000000" stroke-linejoin="round" stroke-miterlimit="10" d="M16.5,5c-0.553,0-1,0.447-1,1v10
			c0,0.552,0.447,1,1,1s1-0.448,1-1V6C17.5,5.447,17.053,5,16.5,5z"/>
	</g>
</g>
<g id="invisible_shape">
	<rect fill="none" width="24" height="24"/>
</g>
</svg>
