<?xml version="1.0" encoding="utf-8"?>
<!-- Generator: Adobe Illustrator 16.0.3, SVG Export Plug-In . SVG Version: 6.00 Build 0)  -->
<!DOCTYPE svg PUBLIC "-//W3C//DTD SVG 1.1//EN" "http://www.w3.org/Graphics/SVG/1.1/DTD/svg11.dtd">
<svg version="1.1" xmlns="http://www.w3.org/2000/svg" xmlns:xlink="http://www.w3.org/1999/xlink" x="0px" y="0px" width="24px"
	 height="24px" viewBox="0 0 24 24" enable-background="new 0 0 24 24" xml:space="preserve">
<g id="Outline_Icons">
	<g>
		<path fill="none" stroke="#000000" stroke-linejoin="round" stroke-miterlimit="10" d="M10.5,0.5c-5.522,0-10,4.478-10,10v3V19
			c0,2.484,2.015,4.5,4.5,4.5s4.5-2.016,4.5-4.5c0-2.485,2.015-4.5,4.5-4.5h2.5c3.866,0,7-3.135,7-7c0-3.867-3.134-7-7-7H10.5z"/>
		<path fill="none" stroke="#000000" stroke-linejoin="round" stroke-miterlimit="10" d="M11.5,3.5c-4.418,0-8,3.581-8,8V13
			c0,2,1.5,3,2.5,3c2,0,0.118-4.5,7-4.5h3.5c2.209,0,4-1.791,4-4s-1.791-4-4-4H11.5z"/>
		<circle fill="none" stroke="#000000" stroke-linejoin="round" stroke-miterlimit="10" cx="5" cy="19" r="1"/>
	</g>
</g>
<g id="invisible_shape">
	<rect fill="none" width="24" height="24"/>
</g>
</svg>
