<?xml version="1.0" encoding="utf-8"?>
<!-- Generator: Adobe Illustrator 16.0.3, SVG Export Plug-In . SVG Version: 6.00 Build 0)  -->
<!DOCTYPE svg PUBLIC "-//W3C//DTD SVG 1.1//EN" "http://www.w3.org/Graphics/SVG/1.1/DTD/svg11.dtd">
<svg version="1.1" xmlns="http://www.w3.org/2000/svg" xmlns:xlink="http://www.w3.org/1999/xlink" x="0px" y="0px" width="24px"
	 height="24px" viewBox="0 0 24 24" enable-background="new 0 0 24 24" xml:space="preserve">
<g id="Outline_Icons">
	<g>
		<path fill="none" stroke="#000000" stroke-linecap="round" stroke-linejoin="round" stroke-miterlimit="10" d="M11.525,19.955
			l-2.49,2.49c-0.78,0.781-2.047,0.781-2.828,0l-0.354-0.354C3.654,19.893,2.831,16.839,3.384,14"/>
		<path fill="none" stroke="#000000" stroke-linecap="round" stroke-linejoin="round" stroke-miterlimit="10" d="M17.546,3
			c0-0.64-0.244-1.279-0.732-1.768c-0.976-0.977-2.559-0.977-3.535,0c-0.013,0.012-0.021,0.026-0.032,0.038
			c-0.971-0.646-2.293-0.541-3.15,0.315C9.644,2.039,9.41,2.623,9.377,3.215C8.453,2.786,7.323,2.944,6.561,3.707
			S5.64,5.6,6.068,6.523C5.476,6.557,4.892,6.79,4.439,7.243c-0.87,0.87-0.96,2.22-0.277,3.195c-0.152,0.097-0.297,0.207-0.43,0.34
			c-0.977,0.976-0.977,2.56,0,3.536c0.166,0.165,0.354,0.293,0.549,0.402c-0.407,0.917-0.24,2.027,0.512,2.779
			c0.51,0.51,1.184,0.746,1.852,0.724c-0.243,0.846-0.043,1.792,0.623,2.458c0.977,0.977,2.56,0.977,3.536,0"/>
		<path fill="none" stroke="#000000" stroke-linecap="round" stroke-linejoin="round" stroke-miterlimit="10" d="M9.742,18.203
			C6.088,14.548,6.233,8.531,10.18,5.064c3.602-3.163,9.119-2.762,12.509,0.629l0.136,0.135c0.781,0.781,0.781,2.048,0,2.829
			L11.511,19.971L9.742,18.203z"/>
		<g>
			<g>
				<path d="M19.5,7c-0.127,0-0.255,0.049-0.354,0.146c-0.195,0.195-0.195,0.512,0,0.707C19.244,7.951,19.372,8,19.5,8
					s0.256-0.049,0.354-0.146c0.196-0.195,0.195-0.512,0-0.707C19.756,7.049,19.628,7,19.5,7L19.5,7z"/>
			</g>
		</g>
		<g>
			<g>
				<path d="M15.5,7c-0.128,0-0.256,0.049-0.354,0.146c-0.195,0.195-0.196,0.512,0,0.707C15.244,7.951,15.372,8,15.5,8
					s0.256-0.049,0.354-0.146c0.195-0.195,0.195-0.512,0-0.707C15.755,7.049,15.627,7,15.5,7L15.5,7z"/>
			</g>
		</g>
		<g>
			<g>
				<path d="M15.5,11c-0.128,0-0.256,0.049-0.354,0.146c-0.195,0.195-0.196,0.512,0,0.707C15.244,11.951,15.372,12,15.5,12
					s0.256-0.049,0.354-0.146c0.195-0.195,0.195-0.512,0-0.707C15.755,11.049,15.627,11,15.5,11L15.5,11z"/>
			</g>
		</g>
		<g>
			<g>
				<path d="M17.5,9c-0.128,0-0.256,0.049-0.354,0.146c-0.195,0.195-0.196,0.512,0,0.707C17.244,9.951,17.372,10,17.5,10
					s0.256-0.049,0.354-0.146c0.195-0.195,0.195-0.512,0-0.707C17.756,9.049,17.628,9,17.5,9L17.5,9z"/>
			</g>
		</g>
		<g>
			<g>
				<path d="M11.5,7c-0.127,0-0.255,0.049-0.354,0.146c-0.195,0.195-0.195,0.512,0,0.707C11.244,7.951,11.372,8,11.5,8
					s0.256-0.049,0.354-0.146c0.196-0.195,0.195-0.512,0-0.707C11.756,7.049,11.628,7,11.5,7L11.5,7z"/>
			</g>
		</g>
		<g>
			<g>
				<path d="M11.5,11c-0.127,0-0.255,0.049-0.354,0.146c-0.195,0.195-0.195,0.512,0,0.707C11.244,11.951,11.372,12,11.5,12
					s0.256-0.049,0.354-0.146c0.196-0.195,0.195-0.512,0-0.707C11.756,11.049,11.628,11,11.5,11L11.5,11z"/>
			</g>
		</g>
		<g>
			<g>
				<path d="M13.5,9c-0.127,0-0.255,0.049-0.354,0.146c-0.195,0.195-0.195,0.512,0,0.707C13.244,9.951,13.372,10,13.5,10
					s0.256-0.049,0.354-0.146c0.196-0.195,0.195-0.512,0-0.707C13.756,9.049,13.628,9,13.5,9L13.5,9z"/>
			</g>
		</g>
		<g>
			<g>
				<path d="M11.5,15c-0.128,0-0.256,0.049-0.354,0.146c-0.195,0.195-0.196,0.512,0,0.707C11.244,15.951,11.372,16,11.5,16
					s0.256-0.049,0.354-0.146c0.195-0.195,0.195-0.512,0-0.707C11.755,15.049,11.627,15,11.5,15L11.5,15z"/>
			</g>
		</g>
		<g>
			<g>
				<path d="M13.5,13c-0.128,0-0.256,0.049-0.354,0.146c-0.195,0.195-0.196,0.512,0,0.707C13.244,13.951,13.372,14,13.5,14
					s0.256-0.049,0.354-0.146c0.195-0.195,0.195-0.512,0-0.707C13.756,13.049,13.628,13,13.5,13L13.5,13z"/>
			</g>
		</g>
	</g>
</g>
<g id="invisible_shape">
	<rect fill="none" width="24" height="24"/>
</g>
</svg>
