<?xml version="1.0" encoding="utf-8"?>
<!-- Generator: Adobe Illustrator 16.0.3, SVG Export Plug-In . SVG Version: 6.00 Build 0)  -->
<!DOCTYPE svg PUBLIC "-//W3C//DTD SVG 1.1//EN" "http://www.w3.org/Graphics/SVG/1.1/DTD/svg11.dtd">
<svg version="1.1" xmlns="http://www.w3.org/2000/svg" xmlns:xlink="http://www.w3.org/1999/xlink" x="0px" y="0px" width="24px"
	 height="24px" viewBox="0 0 24 24" enable-background="new 0 0 24 24" xml:space="preserve">
<g id="Outline_Icons">
	<g>
		<path fill="none" stroke="#000000" stroke-linejoin="round" stroke-miterlimit="10" d="M12.91,5.5
			c0.095-0.139,0.204-0.271,0.327-0.395c1.074-1.073,2.815-1.073,3.89,0c0.782,0.783,0.994,1.92,0.637,2.895"/>
		<path fill="none" stroke="#000000" stroke-linejoin="round" stroke-miterlimit="10" d="M15.758,10.506
			c-0.229-0.694-0.067-1.489,0.484-2.041c0.781-0.781,2.048-0.781,2.829,0s0.781,2.047,0,2.828"/>
		<polyline fill="none" stroke="#000000" stroke-linejoin="round" stroke-miterlimit="10" points="13.99,10.232 19.071,11.293 
			15.035,15.329 		"/>
		<path fill="none" stroke="#000000" stroke-linejoin="round" stroke-miterlimit="10" d="M18.718,10.939
			c0.586,0.586,1.535,0.586,2.121,0s0.586-1.535,0-2.121c-0.022-0.023-0.05-0.039-0.073-0.061c0.153-0.072,0.3-0.166,0.427-0.293
			c0.586-0.586,0.586-1.536,0-2.121c-0.276-0.277-0.634-0.418-0.995-0.434c0.513-0.59,0.495-1.48-0.065-2.042
			c-0.562-0.561-1.453-0.579-2.042-0.065c-0.016-0.361-0.156-0.719-0.433-0.995c-0.586-0.585-1.536-0.586-2.122,0
			c-0.127,0.127-0.221,0.273-0.293,0.427c-0.021-0.023-0.037-0.051-0.061-0.073c-0.586-0.586-1.535-0.586-2.121,0
			s-0.586,1.536,0,2.121"/>
		<path fill="none" stroke="#000000" stroke-linejoin="round" stroke-miterlimit="10" d="M10.753,19.611l-2.995,2.995
			c-0.391,0.391-1.024,0.391-1.415,0l-4.949-4.949c-0.391-0.391-0.391-1.024,0-1.415L12.707,4.929l2.169,9.042
			c0.407,1.402,0.019,2.913-1.013,3.944l-0.545,0.544c-1.031,1.032-2.542,1.42-3.943,1.014l-7.981-2.523"/>
		<g>
			<g>
				<path d="M11.5,10c-0.128,0-0.256,0.049-0.354,0.146c-0.195,0.195-0.195,0.512,0,0.707C11.244,10.951,11.372,11,11.5,11
					s0.256-0.049,0.354-0.146c0.196-0.195,0.195-0.512,0-0.707C11.756,10.049,11.628,10,11.5,10L11.5,10z"/>
			</g>
		</g>
		<g>
			<g>
				<path d="M11.5,13c-0.128,0-0.256,0.049-0.354,0.146c-0.195,0.195-0.195,0.512,0,0.707C11.244,13.951,11.372,14,11.5,14
					s0.256-0.049,0.354-0.146c0.196-0.195,0.195-0.512,0-0.707C11.756,13.049,11.628,13,11.5,13L11.5,13z"/>
			</g>
		</g>
		<g>
			<g>
				<path d="M8.5,16c-0.127,0-0.255,0.049-0.354,0.146c-0.195,0.195-0.195,0.512,0,0.707C8.244,16.951,8.372,17,8.5,17
					s0.256-0.049,0.354-0.146c0.196-0.195,0.195-0.511,0-0.707C8.756,16.049,8.628,16,8.5,16L8.5,16z"/>
			</g>
		</g>
		<g>
			<g>
				<path d="M8.5,13c-0.127,0-0.255,0.049-0.354,0.146c-0.195,0.195-0.195,0.512,0,0.707C8.244,13.951,8.372,14,8.5,14
					s0.256-0.049,0.354-0.146c0.196-0.195,0.195-0.511,0-0.707C8.756,13.049,8.628,13,8.5,13L8.5,13z"/>
			</g>
		</g>
	</g>
</g>
<g id="invisible_shape">
	<rect fill="none" width="24" height="24"/>
</g>
</svg>
