<?xml version="1.0" encoding="utf-8"?>
<!-- Generator: Adobe Illustrator 16.0.3, SVG Export Plug-In . SVG Version: 6.00 Build 0)  -->
<!DOCTYPE svg PUBLIC "-//W3C//DTD SVG 1.1//EN" "http://www.w3.org/Graphics/SVG/1.1/DTD/svg11.dtd">
<svg version="1.1" xmlns="http://www.w3.org/2000/svg" xmlns:xlink="http://www.w3.org/1999/xlink" x="0px" y="0px" width="24px"
	 height="24px" viewBox="0 0 24 24" enable-background="new 0 0 24 24" xml:space="preserve">
<g id="Outline_Icons">
	<g>
		<path fill="none" stroke="#000000" stroke-linejoin="round" stroke-miterlimit="10" d="M17.158,2.593
			c0.122,0.11,0.248,0.213,0.365,0.33c4.033,4.033,4.034,10.573,0,14.607c-4.033,4.033-10.573,4.033-14.606,0
			c-0.117-0.117-0.22-0.243-0.33-0.366L0.5,19.252c0.112,0.119,0.213,0.248,0.33,0.365c5.186,5.186,13.594,5.186,18.78,0
			c5.187-5.187,5.187-13.596,0-18.781c-0.117-0.117-0.245-0.217-0.365-0.33L17.158,2.593z"/>
		
			<line fill="none" stroke="#000000" stroke-linejoin="round" stroke-miterlimit="10" x1="2.221" y1="17.53" x2="17.523" y2="2.227"/>
		
			<ellipse transform="matrix(0.7069 -0.7074 0.7074 0.7069 -5.5343 13.3586)" fill="none" stroke="#000000" stroke-linejoin="round" stroke-miterlimit="10" cx="13.35" cy="13.356" rx="0.984" ry="1.475"/>
		
			<ellipse fill="none" stroke="#000000" stroke-linejoin="round" stroke-miterlimit="10" cx="16.133" cy="7.792" rx="1.476" ry="0.983"/>
		
			<ellipse fill="none" stroke="#000000" stroke-linejoin="round" stroke-miterlimit="10" cx="7.786" cy="16.139" rx="0.984" ry="1.476"/>
	</g>
</g>
<g id="invisible_shape">
	<rect fill="none" width="24" height="24"/>
</g>
</svg>
