<?xml version="1.0" encoding="utf-8"?>
<!-- Generator: Adobe Illustrator 16.0.3, SVG Export Plug-In . SVG Version: 6.00 Build 0)  -->
<!DOCTYPE svg PUBLIC "-//W3C//DTD SVG 1.1//EN" "http://www.w3.org/Graphics/SVG/1.1/DTD/svg11.dtd">
<svg version="1.1" xmlns="http://www.w3.org/2000/svg" xmlns:xlink="http://www.w3.org/1999/xlink" x="0px" y="0px" width="24px"
	 height="24px" viewBox="0 0 24 24" enable-background="new 0 0 24 24" xml:space="preserve">
<g id="Outline_Icons_1_">
	<g id="Outline_Icons">
		<g>
			<g>
				<path fill="none" stroke="#000000" stroke-linejoin="round" stroke-miterlimit="10" d="M15.897,20.117l1-1.732l-1-0.577
					c0.137-0.579,0.136-1.038,0-1.614l0.999-0.576l-1-1.732l-0.999,0.576c-0.392-0.369-0.868-0.64-1.397-0.799V12.5h-2v1.162
					c-0.529,0.159-1.006,0.43-1.397,0.799l-0.999-0.576l-1,1.732l0.999,0.576c-0.136,0.576-0.137,1.035,0,1.614l-1,0.577l1,1.732
					l1-0.578c0.392,0.369,0.869,0.64,1.397,0.799V21.5h2v-1.162c0.528-0.159,1.006-0.43,1.396-0.799L15.897,20.117z"/>
				<circle fill="none" stroke="#000000" stroke-linejoin="round" stroke-miterlimit="10" cx="12.5" cy="17" r="1.5"/>
			</g>
			<g>
				<path fill="none" stroke="#000000" stroke-linecap="round" stroke-linejoin="round" stroke-miterlimit="10" d="M19.196,16.391
					c0,0,4.304-0.561,4.304-4.782c0-2.677-2.207-4.876-4.954-4.774C17.473,4.568,15.173,3,12.5,3C8.938,3,6.032,5.783,5.825,9.294
					C3.593,8.827,1.5,10.526,1.5,12.803c0,2.992,2.579,3.49,3.502,3.572"/>
			</g>
		</g>
	</g>
	<g id="New_icons_1_">
	</g>
</g>
<g id="Invisible_Shape">
	<rect fill="none" width="24" height="24"/>
</g>
</svg>
