<?xml version="1.0" encoding="utf-8"?>
<!-- Generator: Adobe Illustrator 16.0.3, SVG Export Plug-In . SVG Version: 6.00 Build 0)  -->
<!DOCTYPE svg PUBLIC "-//W3C//DTD SVG 1.1//EN" "http://www.w3.org/Graphics/SVG/1.1/DTD/svg11.dtd">
<svg version="1.1" xmlns="http://www.w3.org/2000/svg" xmlns:xlink="http://www.w3.org/1999/xlink" x="0px" y="0px" width="24px"
	 height="24px" viewBox="0 0 24 24" enable-background="new 0 0 24 24" xml:space="preserve">
<g id="Outline_Icons_1_">
	<g id="Outline_Icons">
		<g>
			<g>
				<path fill="none" stroke="#000000" stroke-linejoin="round" stroke-miterlimit="10" d="M23.5,9.5c0-2.797-2.31-5.097-5.18-4.991
					C17.198,2.142,14.793,0.5,12,0.5c-3.726,0-6.762,2.91-6.979,6.58C2.688,6.593,0.5,8.369,0.5,10.75c0,3.81,4,3.75,4,3.75H19
					C19,14.5,23.5,13.914,23.5,9.5z"/>
			</g>
			<path fill="none" stroke="#000000" stroke-linejoin="round" stroke-miterlimit="10" d="M2.5,20c0-1.381,1.119-2.5,2.5-2.5h14
				c1.381,0,2.5,1.119,2.5,2.5s-1.119,2.5-2.5,2.5H5C3.619,22.5,2.5,21.381,2.5,20z"/>
			
				<line fill="none" stroke="#000000" stroke-linejoin="round" stroke-miterlimit="10" x1="3.281" y1="21.812" x2="7.562" y2="17.531"/>
		</g>
	</g>
	<g id="New_icons_1_">
	</g>
</g>
<g id="Invisible_Shape">
	<rect fill="none" width="24" height="24"/>
</g>
</svg>
