<?xml version="1.0" encoding="utf-8"?>
<!-- Generator: Adobe Illustrator 16.0.3, SVG Export Plug-In . SVG Version: 6.00 Build 0)  -->
<!DOCTYPE svg PUBLIC "-//W3C//DTD SVG 1.1//EN" "http://www.w3.org/Graphics/SVG/1.1/DTD/svg11.dtd">
<svg version="1.1" xmlns="http://www.w3.org/2000/svg" xmlns:xlink="http://www.w3.org/1999/xlink" x="0px" y="0px" width="24px"
	 height="24px" viewBox="0 0 24 24" enable-background="new 0 0 24 24" xml:space="preserve">
<g id="Outline_Icons_1_">
	<g id="Outline_Icons">
		<g>
			<path fill="none" stroke="#000000" stroke-linejoin="round" stroke-miterlimit="10" d="M19.151,14.473
				c0,0,4.349-0.559,4.349-4.973c0-2.797-2.31-5.098-5.18-4.992C17.198,2.141,14.793,0.5,12,0.5c-3.726,0-6.762,2.91-6.979,6.58
				C2.688,6.592,0.5,8.369,0.5,10.75c0,3.809,3.835,3.744,3.835,3.744"/>
			<path fill="none" stroke="#000000" stroke-linecap="round" stroke-linejoin="round" stroke-miterlimit="10" d="M21.5,21
				c0,1.381-1.119,2.5-2.5,2.5H5c-1.381,0-2.5-1.119-2.5-2.5v-2.5h19V21z"/>
			<path fill="none" stroke="#000000" stroke-linecap="round" stroke-linejoin="round" stroke-miterlimit="10" d="M2.5,18.5
				l2.333-5.092C5.062,12.908,5.7,12.5,6.25,12.5H17c0.55,0,1.227,0.389,1.504,0.863L21.5,18.5H2.5z"/>
			
				<line fill="none" stroke="#000000" stroke-linecap="round" stroke-linejoin="round" stroke-miterlimit="10" x1="15" y1="21.5" x2="18" y2="21.5"/>
		</g>
	</g>
	<g id="New_icons_1_">
	</g>
</g>
<g id="Invisible_Shape">
	<rect fill="none" width="24" height="24"/>
</g>
</svg>
