<?xml version="1.0" encoding="utf-8"?>
<!-- Generator: Adobe Illustrator 16.0.3, SVG Export Plug-In . SVG Version: 6.00 Build 0)  -->
<!DOCTYPE svg PUBLIC "-//W3C//DTD SVG 1.1//EN" "http://www.w3.org/Graphics/SVG/1.1/DTD/svg11.dtd">
<svg version="1.1" xmlns="http://www.w3.org/2000/svg" xmlns:xlink="http://www.w3.org/1999/xlink" x="0px" y="0px" width="24px"
	 height="24px" viewBox="0 0 24 24" enable-background="new 0 0 24 24" xml:space="preserve">
<g id="Outline_Icons_1_">
	<g id="Outline_Icons">
	</g>
	<g id="New_icons_1_">
		<g>
			<path fill="none" stroke="#000000" stroke-linecap="round" stroke-linejoin="round" stroke-miterlimit="10" d="M21.007,13.387
				c1.177-0.62,2.493-1.835,2.493-4.17c0-2.675-2.209-4.874-4.955-4.773c-1.073-2.266-3.373-3.835-6.045-3.835
				c-3.563,0-6.468,2.784-6.676,6.294C3.592,6.436,1.5,8.135,1.5,10.412C1.5,14.057,5.326,14,5.326,14"/>
			<g>
				<circle fill="none" stroke="#000000" stroke-linejoin="round" stroke-miterlimit="10" cx="13" cy="14.5" r="2"/>
				<path fill="none" stroke="#000000" stroke-linecap="round" stroke-linejoin="round" stroke-miterlimit="10" d="M10.5,11.5l1-1.5
					h3l1,1.5H17c0.825,0,1.5,0.675,1.5,1.5v4c0,0.825-0.675,1.5-1.5,1.5H9c-0.825,0-1.5-0.675-1.5-1.5v-4c0-0.825,0.675-1.5,1.5-1.5
					H10.5z"/>
			</g>
		</g>
	</g>
</g>
<g id="Invisible_Shape">
	<rect fill="none" width="24" height="24"/>
</g>
</svg>
