<?xml version="1.0" encoding="utf-8"?>
<!-- Generator: Adobe Illustrator 16.0.3, SVG Export Plug-In . SVG Version: 6.00 Build 0)  -->
<!DOCTYPE svg PUBLIC "-//W3C//DTD SVG 1.1//EN" "http://www.w3.org/Graphics/SVG/1.1/DTD/svg11.dtd">
<svg version="1.1" xmlns="http://www.w3.org/2000/svg" xmlns:xlink="http://www.w3.org/1999/xlink" x="0px" y="0px" width="24px"
	 height="24px" viewBox="0 0 24 24" enable-background="new 0 0 24 24" xml:space="preserve">
<g id="Outline_Icons">
	<g>
		<path fill="none" stroke="#000000" stroke-linecap="round" stroke-linejoin="round" stroke-miterlimit="10" d="M6.02,14.259
			C6.061,14.951,6.6,15.5,7.26,15.5c0.686,0,1.24-0.594,1.24-1.326c0-2.124-2.48-1.531-2.48-3.349c0-0.731,0.557-1.325,1.242-1.325
			c0.658,0,1.197,0.549,1.238,1.24"/>
		
			<rect x="0.5" y="6.5" fill="none" stroke="#000000" stroke-linecap="round" stroke-linejoin="round" stroke-miterlimit="10" width="23" height="12"/>
		<polyline fill="none" stroke="#000000" stroke-linecap="round" stroke-linejoin="round" stroke-miterlimit="10" points="19,15.5 
			16.52,15.5 16.52,9.5 		"/>
		<path fill="none" stroke="#000000" stroke-linecap="round" stroke-linejoin="round" stroke-miterlimit="10" d="M14.5,12.5
			c0,1.463-0.719,3-1.967,3s-2.033-1.537-2.033-3c0-1.464,0.785-3,2.033-3S14.5,11.036,14.5,12.5z"/>
		<path fill="none" stroke="#000000" stroke-linecap="round" stroke-linejoin="round" stroke-miterlimit="10" d="M12.533,16
			C13,15.5,14,16.5,14.5,16"/>
	</g>
</g>
<g id="Invisible_Shape">
	<rect fill="none" width="24" height="24"/>
</g>
</svg>
