<?xml version="1.0" encoding="utf-8"?>
<!-- Generator: Adobe Illustrator 19.2.0, SVG Export Plug-In . SVG Version: 6.00 Build 0)  -->
<svg version="1.1" xmlns="http://www.w3.org/2000/svg" xmlns:xlink="http://www.w3.org/1999/xlink" x="0px" y="0px" width="24px"
	 height="24px" viewBox="0 0 24 24" enable-background="new 0 0 24 24" xml:space="preserve">
<g id="Filled_Icons">
	<path d="M19,8c0-4.636-3.154-8-7.5-8S4,3.364,4,8c0,2.726,2.182,5.542,6.318,8.164l-1.247,2.078
		c-0.093,0.154-0.096,0.347-0.007,0.504C9.153,18.903,9.319,19,9.5,19H11v2.5c0,0.827,0.673,1.5,1.5,1.5c0.826,0,1.5-0.673,1.5-1.5
		c0-0.276,0.224-0.5,0.5-0.5c0.275,0,0.5,0.224,0.5,0.5v2c0,0.276,0.224,0.5,0.5,0.5c0.275,0,0.5-0.224,0.5-0.5v-2
		c0-0.827-0.674-1.5-1.5-1.5c-0.827,0-1.5,0.673-1.5,1.5c0,0.275-0.225,0.5-0.5,0.5c-0.276,0-0.5-0.225-0.5-0.5V19h1.5
		c0.18,0,0.346-0.097,0.435-0.254c0.089-0.157,0.087-0.35-0.006-0.504l-1.247-2.078C16.817,13.542,19,10.726,19,8z M11.5,3
		C9.019,3,7,5.019,7,7.5C7,7.776,6.775,8,6.5,8C6.224,8,6,7.776,6,7.5C6,4.467,8.467,2,11.5,2C11.775,2,12,2.224,12,2.5
		S11.775,3,11.5,3z"/>
</g>
<g id="invisble_shape">
	<rect fill="none" width="24" height="24"/>
</g>
</svg>
