<?xml version="1.0" encoding="utf-8"?>
<!-- Generator: Adobe Illustrator 19.2.0, SVG Export Plug-In . SVG Version: 6.00 Build 0)  -->
<svg version="1.1" xmlns="http://www.w3.org/2000/svg" xmlns:xlink="http://www.w3.org/1999/xlink" x="0px" y="0px" width="24px"
	 height="24px" viewBox="0 0 24 24" enable-background="new 0 0 24 24" xml:space="preserve">
<g id="Filled_Icons">
	<path d="M18.5,0h-14C3.121,0,2,1.122,2,2.5v19C2,22.879,3.121,24,4.5,24h14c1.379,0,2.5-1.121,2.5-2.5v-19
		C21,1.122,19.879,0,18.5,0z M6.812,5.892C6.72,5.964,6.61,6,6.5,6S6.28,5.964,6.188,5.892C5.907,5.668,4.5,4.498,4.5,3.48
		C4.5,2,6.005,2,6.5,2s2,0,2,1.48C8.5,4.498,7.093,5.668,6.812,5.892z M11.792,16.708c-0.087,0.063-0.189,0.095-0.292,0.095
		c-0.097,0-0.192-0.028-0.276-0.084c-0.152-0.101-3.724-2.505-3.724-5.5c0-1.858,1.085-2.705,2.093-2.705
		c0.726,0,1.396,0.402,1.871,1.082c0.44-0.69,1.105-1.099,1.861-1.099c1.08,0,2.175,0.934,2.175,2.722
		C15.5,14.006,11.943,16.599,11.792,16.708z M16.812,21.892C16.72,21.964,16.61,22,16.5,22s-0.22-0.036-0.312-0.108
		c-0.281-0.224-1.688-1.394-1.688-2.411c0-1.48,1.505-1.48,2-1.48s2,0,2,1.48C18.5,20.498,17.093,21.668,16.812,21.892z"/>
</g>
<g id="invisble_shape">
	<rect fill="none" width="24" height="24"/>
</g>
</svg>
