<?xml version="1.0" encoding="utf-8"?>
<!-- Generator: Adobe Illustrator 19.2.0, SVG Export Plug-In . SVG Version: 6.00 Build 0)  -->
<svg version="1.1" xmlns="http://www.w3.org/2000/svg" xmlns:xlink="http://www.w3.org/1999/xlink" x="0px" y="0px" width="24px"
	 height="24px" viewBox="0 0 24 24" enable-background="new 0 0 24 24" xml:space="preserve">
<g id="Filled_Icons">
	<path d="M18.5,0h-14C3.121,0,2,1.121,2,2.5v19C2,22.878,3.121,24,4.5,24h14c1.378,0,2.5-1.122,2.5-2.5v-19
		C21,1.121,19.878,0,18.5,0z M6.5,7C6.343,7,6.194,6.926,6.1,6.801l-1.5-2c-0.133-0.179-0.133-0.423,0-0.6l1.5-2
		c0.188-0.253,0.611-0.253,0.8,0l1.5,2c0.134,0.177,0.134,0.421,0,0.6l-1.5,2C6.806,6.926,6.657,7,6.5,7z M11.5,16.5
		c-0.157,0-0.306-0.074-0.4-0.199l-3-4c-0.133-0.179-0.133-0.423,0-0.6l3-4c0.189-0.253,0.611-0.253,0.8,0l3,4
		c0.134,0.177,0.134,0.421,0,0.6l-3,4C11.806,16.426,11.657,16.5,11.5,16.5z M18.399,19.801l-1.5,2C16.806,21.926,16.657,22,16.5,22
		s-0.306-0.074-0.4-0.199l-1.5-2c-0.133-0.179-0.133-0.423,0-0.6l1.5-2c0.188-0.253,0.611-0.253,0.8,0l1.5,2
		C18.533,19.378,18.533,19.622,18.399,19.801z"/>
</g>
<g id="invisble_shape">
	<rect fill="none" width="24" height="24"/>
</g>
</svg>
