<?xml version="1.0" encoding="utf-8"?>
<!-- Generator: Adobe Illustrator 19.2.0, SVG Export Plug-In . SVG Version: 6.00 Build 0)  -->
<svg version="1.1" xmlns="http://www.w3.org/2000/svg" xmlns:xlink="http://www.w3.org/1999/xlink" x="0px" y="0px" width="24px"
	 height="24px" viewBox="0 0 24 24" enable-background="new 0 0 24 24" xml:space="preserve">
<g id="Filled_Icons">
	<path d="M18.5,0h-14C3.121,0,2,1.122,2,2.5v19C2,22.879,3.121,24,4.5,24h14c1.379,0,2.5-1.121,2.5-2.5v-19
		C21,1.122,19.879,0,18.5,0z M7,7c0,0.276-0.224,0.5-0.5,0.5S6,7.276,6,7V5.978C5.365,5.913,4.5,5.644,4.5,4.523
		c0-1.02,1.407-2.188,1.688-2.414c0.184-0.145,0.439-0.145,0.623,0C7.093,2.334,8.5,3.503,8.5,4.523c0,1.121-0.865,1.391-1.5,1.456
		V7z M12,15.49v2.01c0,0.276-0.224,0.5-0.5,0.5S11,17.776,11,17.5v-2.01C9.898,15.442,8,15.123,8,13
		c0-1.796,2.808-4.977,3.128-5.334c0.189-0.211,0.555-0.211,0.744,0C12.192,8.023,15,11.204,15,13C15,15.123,13.102,15.442,12,15.49
		z M17,20.979V22c0,0.276-0.224,0.5-0.5,0.5S16,22.276,16,22v-1.021c-0.635-0.065-1.5-0.335-1.5-1.456
		c0-1.02,1.407-2.188,1.688-2.414c0.184-0.145,0.439-0.145,0.623,0c0.281,0.226,1.688,1.394,1.688,2.414
		C18.5,20.644,17.635,20.913,17,20.979z"/>
</g>
<g id="invisble_shape">
	<rect fill="none" width="24" height="24"/>
</g>
</svg>
