<?xml version="1.0" encoding="utf-8"?>
<!-- Generator: Adobe Illustrator 19.2.0, SVG Export Plug-In . SVG Version: 6.00 Build 0)  -->
<svg version="1.1" xmlns="http://www.w3.org/2000/svg" xmlns:xlink="http://www.w3.org/1999/xlink" x="0px" y="0px" width="24px"
	 height="24px" viewBox="0 0 24 24" enable-background="new 0 0 24 24" xml:space="preserve">
<g id="Filled_Icons">
	<g>
		<path d="M11.984,20.498C11.999,20.223,11.775,20,11.5,20h-8c-0.133,0-0.261,0.054-0.355,0.147C3.052,20.242,2.999,20.37,3,20.503
			l0.016,3C3.017,23.778,3.24,24,3.516,24h8c0.133,0,0.261-0.053,0.354-0.147c0.094-0.094,0.146-0.222,0.13-0.355L11.984,20.498z"/>
		<g>
			<path d="M14.5,0h-8C5.673,0,5,0.673,5,1.5v11.498l1.718-4.275C6.994,8.002,7.541,7.456,8.25,7.205
				c0.595-0.213,1.268-0.196,1.894,0.045c1.484,0.57,2.21,2.152,1.653,3.602c-0.308,0.799-0.474,1.617-0.551,2.07
				c0.249,0.641,0.434,1.337,0.563,2.078H14.5c0.827,0,1.5-0.673,1.5-1.5v-12C16,0.673,15.327,0,14.5,0z"/>
		</g>
		<path d="M21.071,3.801c-0.21-0.342-0.54-0.58-0.931-0.672l-3.125-0.743V13.5c0,1.379-1.121,2.5-2.5,2.5h-3.584v0.001
			c-0.113-1.095-0.347-2.091-0.715-2.96c0.052-0.367,0.231-1.466,0.648-2.549c0.214-0.557,0.152-1.127-0.176-1.604
			c-0.347-0.505-0.962-0.831-1.567-0.831c-0.674,0-1.227,0.391-1.476,1.038l-1.948,4.853c-0.19,0.394-0.56,0.648-0.938,0.648
			c-0.141,0-0.341-0.037-0.501-0.218c-0.083-0.093-0.146-0.215-0.189-0.358C4.033,13.84,4.016,13.664,4,13.5V4.414
			C3.699,5.073,3.408,5.67,3.145,6.213c-2.687,5.525-2.791,5.741-0.61,9.693c0.411,0.746,0.901,1.635,1.466,2.74V19h7.016v-1.5
			c0-0.39-0.019-0.766-0.046-1.134l5.703,1.356c0.116,0.028,0.234,0.042,0.351,0.042c0.274,0,0.544-0.076,0.783-0.224
			c0.342-0.21,0.58-0.54,0.672-0.93l2.775-11.675C21.347,4.545,21.282,4.142,21.071,3.801z"/>
	</g>
</g>
<g id="invisble_shape">
	<rect fill="none" width="24" height="24"/>
</g>
</svg>
