<?xml version="1.0" encoding="utf-8"?>
<!-- Generator: Adobe Illustrator 19.2.0, SVG Export Plug-In . SVG Version: 6.00 Build 0)  -->
<svg version="1.1" xmlns="http://www.w3.org/2000/svg" xmlns:xlink="http://www.w3.org/1999/xlink" x="0px" y="0px" width="24px"
	 height="24px" viewBox="0 0 24 24" enable-background="new 0 0 24 24" xml:space="preserve">
<g id="Filled_Icons">
	<g>
		<path d="M12.217,4.023l-0.511-2.217c-0.063-0.27-0.331-0.438-0.6-0.375L0.388,3.9C0.259,3.93,0.147,4.01,0.076,4.123
			C0.006,4.234-0.018,4.37,0.013,4.5L3.38,19.117c0.03,0.129,0.11,0.241,0.223,0.311c0.08,0.05,0.172,0.077,0.265,0.077
			c0.038,0,0.075-0.006,0.112-0.014l2.848-0.656l5.245-14.611C12.102,4.142,12.155,4.077,12.217,4.023z M3.01,6.375
			C2.972,6.384,2.934,6.388,2.897,6.388C2.669,6.388,2.463,6.231,2.41,6C2.349,5.731,2.516,5.463,2.785,5.4
			C2.822,5.392,2.86,5.388,2.898,5.388c0.228,0,0.434,0.155,0.487,0.388C3.446,6.045,3.278,6.313,3.01,6.375z M8.971,10.986
			c-0.266,0.281-0.622,0.51-1.028,0.668l0.121,0.525c0.063,0.269-0.106,0.537-0.375,0.6c-0.037,0.01-0.075,0.013-0.112,0.013
			c-0.228,0-0.434-0.156-0.487-0.388l-0.122-0.527c-0.088,0.007-0.176,0.016-0.263,0.016c-1.102,0-1.916-0.566-2.126-1.476
			c-0.267-1.159,1.196-2.97,1.492-3.32c0.144-0.17,0.382-0.224,0.585-0.135c0.42,0.186,2.528,1.172,2.796,2.332
			C9.592,9.908,9.422,10.508,8.971,10.986z"/>
		<path d="M23.952,9.174c-0.057-0.12-0.158-0.212-0.283-0.257L13.314,5.2c-0.258-0.092-0.544,0.043-0.638,0.302L7.608,19.62
			c-0.094,0.26,0.042,0.546,0.302,0.64l5.176,1.858l5.177,1.858c0.125,0.045,0.261,0.038,0.383-0.019
			c0.119-0.057,0.212-0.158,0.257-0.283l2.534-7.06l2.534-7.059C24.016,9.432,24.009,9.294,23.952,9.174z M14.521,7.759l0.303,0.64
			L14.185,8.7l-0.302-0.64L14.521,7.759z M17.057,21.418l-0.303-0.639l0.641-0.303l0.302,0.641L17.057,21.418z M17.97,15.666
			l-2.896,2.147c-0.088,0.064-0.192,0.099-0.298,0.099c-0.057,0-0.114-0.01-0.169-0.029c-0.157-0.057-0.276-0.188-0.316-0.351
			l-0.869-3.499c-0.049-0.195,0.025-0.401,0.188-0.523l2.896-2.147c0.135-0.099,0.31-0.123,0.467-0.068
			c0.157,0.057,0.276,0.188,0.316,0.35l0.869,3.499C18.205,15.34,18.132,15.546,17.97,15.666z"/>
	</g>
</g>
<g id="invisble_shape">
	<rect fill="none" width="24" height="24"/>
</g>
</svg>
