<?xml version="1.0" encoding="utf-8"?>
<!-- Generator: Adobe Illustrator 19.2.0, SVG Export Plug-In . SVG Version: 6.00 Build 0)  -->
<svg version="1.1" xmlns="http://www.w3.org/2000/svg" xmlns:xlink="http://www.w3.org/1999/xlink" x="0px" y="0px" width="24px"
	 height="24px" viewBox="0 0 24 24" enable-background="new 0 0 24 24" xml:space="preserve">
<g id="Filled_Icons">
	<path d="M12,0.006c-6.595,0-12,5.375-12,12c0,6.559,5.352,12,12,12c6.548,0,12-5.338,12-12C24,5.51,18.717,0.006,12,0.006z
		 M12,2.632c0.552,0,1,0.449,1,1c0,0.552-0.448,1-1,1s-1-0.448-1-1C11,3.081,11.448,2.632,12,2.632z M7.557,1.951l1.955,4.602
		c-1.352,0.62-2.437,1.723-3.026,3.093L1.884,7.691C2.978,5.135,5.018,3.078,7.557,1.951z M4.563,12.068c0,0.552-0.448,1-1,1
		s-1-0.448-1-1c0-0.551,0.448-1,1-1S4.563,11.518,4.563,12.068z M7.64,22.101c-2.545-1.103-4.591-3.142-5.708-5.68l4.594-1.972
		c0.607,1.357,1.703,2.447,3.064,3.048L7.64,22.101z M12,21.506c-0.552,0-1-0.448-1-1c0-0.551,0.448-1,1-1s1,0.449,1,1
		C13,21.058,12.552,21.506,12,21.506z M12,11.506c0.989,0,1.628,0.705,1.628,1.797c0,1.093-0.639,1.798-1.628,1.798h-1.128
		c-0.276,0-0.5-0.224-0.5-0.5c0-0.276,0.224-0.5,0.5-0.5H12c0.155,0,0.628,0,0.628-0.798c0-0.797-0.473-0.797-0.628-0.797h-1.128
		c-0.276,0-0.5-0.224-0.5-0.5V9.413c0-0.276,0.224-0.5,0.5-0.5h2.256c0.276,0,0.5,0.224,0.5,0.5c0,0.276-0.224,0.5-0.5,0.5h-1.756
		v1.593H12z M16.316,1.891c2.561,1.097,4.62,3.141,5.745,5.688l-4.603,1.953c-0.62-1.363-1.731-2.457-3.111-3.046L16.316,1.891z
		 M21.438,12.068c0,0.552-0.448,1-1,1s-1-0.448-1-1c0-0.551,0.448-1,1-1S21.438,11.518,21.438,12.068z M16.397,22.082l-1.968-4.595
		c1.375-0.611,2.478-1.723,3.077-3.105l4.597,1.966C20.999,18.908,18.949,20.964,16.397,22.082z"/>
</g>
<g id="invisble_shape">
	<rect fill="none" width="24" height="24"/>
</g>
</svg>
