<?xml version="1.0" encoding="utf-8"?>
<!-- Generator: Adobe Illustrator 19.2.0, SVG Export Plug-In . SVG Version: 6.00 Build 0)  -->
<svg version="1.1" xmlns="http://www.w3.org/2000/svg" xmlns:xlink="http://www.w3.org/1999/xlink" x="0px" y="0px" width="24px"
	 height="24px" viewBox="0 0 24 24" enable-background="new 0 0 24 24" xml:space="preserve">
<g id="Filled_Icons">
	<g>
		<path d="M12,13.966c-0.3,0.24-0.64,0.43-1,0.576V24h2v-9.458C12.64,14.396,12.3,14.206,12,13.966z"/>
		<g>
			<path d="M12.5,3.5l0.5,9.573c0.531,0.478,0.731,0.771,1.5,0.771c0.721,0,1.372-0.268,1.891-0.692L12.5,3.5z"/>
			<path d="M21.427,9.564l-9.063-9.563h-0.001c0.017,0.017,0.025,0.042,0.04,0.063c0.001,0.001,0.002,0.003,0.003,0.005
				c0.018,0.026,0.04,0.049,0.053,0.077c0.002,0.005,0.003,0.009,0.005,0.013c0.001,0.003,0.003,0.005,0.004,0.007l4.918,12.787
				c0.544,0.546,1.286,0.893,2.115,0.893c0.307,0,0.609-0.046,0.9-0.138c0.828-0.261,1.471-0.947,1.677-1.79
				C22.284,11.073,22.03,10.169,21.427,9.564z"/>
			<path d="M6.615,12.952l4.918-12.787c0.001-0.002,0.003-0.004,0.004-0.007c0.002-0.004,0.003-0.008,0.005-0.013
				c0.013-0.028,0.035-0.051,0.053-0.077c0.001-0.002,0.002-0.004,0.004-0.005c0.014-0.022,0.023-0.046,0.04-0.064L2.434,9.62
				c-0.528,0.585-0.752,1.394-0.598,2.168c0.154,0.772,0.671,1.435,1.383,1.771c0.401,0.19,0.833,0.286,1.281,0.286
				C5.329,13.845,6.071,13.498,6.615,12.952z"/>
			<path d="M11.5,3.5l-3.891,9.652c0.519,0.425,1.17,0.692,1.891,0.692c0.769,0,0.969-0.294,1.5-0.771L11.5,3.5z"/>
		</g>
		<path d="M9,20H4.802l-0.826-4.196c-0.12-0.539-0.654-0.874-1.193-0.758c-0.539,0.12-0.879,0.654-0.758,1.194L3,21.108v1.913
			c0,0.553,0.447,1,1,1s1-0.447,1-1V22h3v1.006c0,0.553,0.447,1,1,1s1-0.447,1-1V21C10,20.448,9.553,20,9,20z"/>
		<path d="M21.218,15.046c-0.536-0.115-1.073,0.219-1.193,0.758L19.198,20H15c-0.553,0-1,0.448-1,1v2.006c0,0.553,0.447,1,1,1
			s1-0.447,1-1V22h3v1.006c0,0.553,0.447,1,1,1s1-0.447,1-1v-1.897l0.976-4.868C22.097,15.7,21.757,15.166,21.218,15.046z"/>
	</g>
</g>
<g id="invisble_shape">
	<rect fill="none" width="24" height="24"/>
</g>
</svg>
