<?xml version="1.0" encoding="utf-8"?>
<!-- Generator: Adobe Illustrator 19.2.0, SVG Export Plug-In . SVG Version: 6.00 Build 0)  -->
<svg version="1.1" xmlns="http://www.w3.org/2000/svg" xmlns:xlink="http://www.w3.org/1999/xlink" x="0px" y="0px" width="24px"
	 height="24px" viewBox="0 0 24 24" enable-background="new 0 0 24 24" xml:space="preserve">
<g id="Filled_Icons">
	<g>
		<g>
			<circle cx="4.5" cy="19.5" r="1"/>
			<circle cx="9.5" cy="14.5" r="1"/>
			<circle cx="4.5" cy="9.5" r="1"/>
			<circle cx="9.5" cy="4.5" r="1"/>
			<circle cx="19.5" cy="4.5" r="1"/>
			<circle cx="14.5" cy="9.5" r="1"/>
			<circle cx="14.5" cy="19.5" r="1"/>
			<circle cx="19.5" cy="14.5" r="1"/>
			<rect x="12" y="12" width="5" height="5"/>
			<rect x="7" y="7" width="5" height="5"/>
			<path d="M20.5,1h-17C2.121,1,1,2.122,1,3.5v17C1,21.879,2.121,23,3.5,23h17c1.379,0,2.5-1.121,2.5-2.5v-17
				C23,2.122,21.879,1,20.5,1z M22,7h-5v5h5v5h-5v5h-5v-5H7v5H3.5C2.673,22,2,21.327,2,20.5V17h5v-5H2V7h5V2h13.5
				C21.327,2,22,2.673,22,3.5V7z"/>
		</g>
		<rect x="12" y="2" width="5" height="5"/>
	</g>
</g>
<g id="invisble_shape">
	<rect fill="none" width="24" height="24"/>
</g>
</svg>
