<?xml version="1.0" encoding="utf-8"?>
<!-- Generator: Adobe Illustrator 19.2.0, SVG Export Plug-In . SVG Version: 6.00 Build 0)  -->
<svg version="1.1" xmlns="http://www.w3.org/2000/svg" xmlns:xlink="http://www.w3.org/1999/xlink" x="0px" y="0px" width="24px"
	 height="24px" viewBox="0 0 24 24" enable-background="new 0 0 24 24" xml:space="preserve">
<g id="Filled_Icons">
	<g>
		<path d="M16.833,17c-1.378-3.25-2.273-6.036-0.873-9.303c0.065-0.154,0.05-0.332-0.043-0.473C15.825,7.085,15.668,7,15.5,7h-7
			C8.332,7,8.175,7.085,8.083,7.225C7.99,7.365,7.975,7.543,8.04,7.697C9.441,10.964,8.546,13.75,7.168,17H16.833z"/>
		<path d="M18.924,18H5.076c-0.54,0.522-0.912,1.218-1.025,2h15.898C19.836,19.219,19.464,18.522,18.924,18z"/>
		<path d="M15.426,6C15.777,5.41,16,4.736,16,4c0-2.205-1.794-4-4-4S8,1.795,8,4c0,0.736,0.223,1.41,0.574,2H15.426z"/>
		<path d="M3,21v2.5C3,23.776,3.224,24,3.5,24h17c0.276,0,0.5-0.224,0.5-0.5V21H3z"/>
	</g>
</g>
<g id="invisble_shape">
	<rect fill="none" width="24" height="24"/>
</g>
</svg>
