<?xml version="1.0" encoding="utf-8"?>
<!-- Generator: Adobe Illustrator 19.2.0, SVG Export Plug-In . SVG Version: 6.00 Build 0)  -->
<svg version="1.1" xmlns="http://www.w3.org/2000/svg" xmlns:xlink="http://www.w3.org/1999/xlink" x="0px" y="0px" width="24px"
	 height="24px" viewBox="0 0 24 24" enable-background="new 0 0 24 24" xml:space="preserve">
<g id="Filled_Icons">
	<g>
		<path d="M12.356,6.069l4.4-2.641c0.157-0.093,0.25-0.266,0.243-0.447c-0.008-0.183-0.113-0.347-0.276-0.429l-5-2.5
			c-0.154-0.077-0.34-0.068-0.486,0.022C11.09,0.166,11,0.327,11,0.5v5.268L4.816,11h13.367L12.356,6.069z"/>
		<path d="M22.911,23.216C22.868,23.154,18.78,17.177,18.524,12H4.476C4.22,17.172,0.132,23.154,0.089,23.216
			c-0.105,0.153-0.118,0.353-0.031,0.517C0.144,23.897,0.315,24,0.5,24h5.618L11,14.876V24h1v-9.123L16.771,24H22.5
			c0.185,0,0.356-0.103,0.443-0.268C23.029,23.568,23.017,23.369,22.911,23.216z"/>
	</g>
</g>
<g id="invisble_shape">
	<rect fill="none" width="24" height="24"/>
</g>
</svg>
