<?xml version="1.0" encoding="utf-8"?>
<!-- Generator: Adobe Illustrator 19.2.0, SVG Export Plug-In . SVG Version: 6.00 Build 0)  -->
<svg version="1.1" xmlns="http://www.w3.org/2000/svg" xmlns:xlink="http://www.w3.org/1999/xlink" x="0px" y="0px" width="24px"
	 height="24px" viewBox="0 0 24 24" enable-background="new 0 0 24 24" xml:space="preserve">
<g id="Filled_Icons">
	<g>
		<path d="M22.287,21.091l-3.91-2.747C16.746,19.984,14.49,21,12,21c-2.479,0-4.727-1.008-6.356-2.635L1.715,21.09
			c-0.18,0.124-0.257,0.351-0.192,0.561C1.588,21.858,1.781,22,2,22h5.881l3.893,1.969c0.071,0.035,0.149,0.053,0.226,0.053
			s0.154-0.018,0.226-0.053L16.119,22H22c0.218,0,0.411-0.141,0.477-0.349C22.542,21.443,22.466,21.217,22.287,21.091z"/>
		<path d="M3,12c0-1.379,0.321-2.682,0.878-3.852L1.683,7.505C1.514,7.456,1.329,7.5,1.199,7.62C1.07,7.742,1.015,7.923,1.055,8.096
			l0.398,1.752l-1.271,1.321c-0.188,0.195-0.186,0.504,0.004,0.698l1.266,1.288l-0.396,1.733c-0.04,0.172,0.015,0.354,0.143,0.475
			C1.293,15.452,1.416,15.5,1.542,15.5c0.046,0,0.093-0.006,0.139-0.019l1.827-0.527C3.185,14.026,3,13.035,3,12z"/>
		<path d="M23.818,11.169l-1.271-1.321l0.398-1.752c0.04-0.174-0.016-0.356-0.146-0.477c-0.13-0.122-0.314-0.164-0.484-0.113
			l-2.186,0.656C20.682,9.328,21,10.626,21,12c0,1.035-0.185,2.026-0.508,2.953l1.827,0.527c0.046,0.014,0.093,0.019,0.139,0.019
			c0.126,0,0.249-0.048,0.344-0.137c0.129-0.121,0.184-0.303,0.143-0.475l-0.396-1.733l1.266-1.288
			C24.004,11.673,24.006,11.364,23.818,11.169z"/>
		<g>
			<path d="M15.864,5H19c0.276,0,0.5-0.224,0.5-0.5S19.276,4,19,4H5C4.724,4,4.5,4.224,4.5,4.5S4.724,5,5,5h3.136
				C5.673,6.365,4,8.99,4,12c0,4.411,3.589,8,8,8s8-3.589,8-8C20,8.99,18.327,6.365,15.864,5z M13.5,8H14V7.5
				C14,7.224,14.224,7,14.5,7S15,7.224,15,7.5V8h0.5C15.776,8,16,8.224,16,8.5S15.776,9,15.5,9H15v0.5c0,0.276-0.224,0.5-0.5,0.5
				S14,9.776,14,9.5V9h-0.5C13.224,9,13,8.776,13,8.5S13.224,8,13.5,8z M14.479,13.5c0,1.379-1.121,2.5-2.5,2.5s-2.5-1.121-2.5-2.5
				c0-1.378,1.121-2.5,2.5-2.5S14.479,12.122,14.479,13.5z M8.5,8H9V7.5C9,7.224,9.224,7,9.5,7S10,7.224,10,7.5V8h0.5
				C10.776,8,11,8.224,11,8.5S10.776,9,10.5,9H10v0.5C10,9.776,9.776,10,9.5,10S9,9.776,9,9.5V9H8.5C8.224,9,8,8.776,8,8.5
				S8.224,8,8.5,8z M18,12c0,3.309-2.691,6-6,6s-6-2.691-6-6c0-0.276,0.224-0.5,0.5-0.5S7,11.724,7,12c0,2.757,2.243,5,5,5
				s5-2.243,5-5c0-0.276,0.224-0.5,0.5-0.5S18,11.724,18,12z"/>
			<path d="M16,3V2.5C16,1.122,14.879,0,13.5,0h-3C9.121,0,8,1.122,8,2.5V3H16z"/>
		</g>
	</g>
</g>
<g id="invisble_shape">
	<rect fill="none" width="24" height="24"/>
</g>
</svg>
