<?xml version="1.0" encoding="utf-8"?>
<!-- Generator: Adobe Illustrator 19.2.0, SVG Export Plug-In . SVG Version: 6.00 Build 0)  -->
<svg version="1.1" xmlns="http://www.w3.org/2000/svg" xmlns:xlink="http://www.w3.org/1999/xlink" x="0px" y="0px" width="24px"
	 height="24px" viewBox="0 0 24 24" enable-background="new 0 0 24 24" xml:space="preserve">
<g id="Filled_Icons">
	<g>
		<path d="M22.32,2.428l-7.671-2.399c-0.098-0.03-0.201-0.03-0.299,0l-8,2.502C6.258,2.56,6.182,2.616,6.122,2.687l8.364,2.788
			L22.32,2.428z M13.5,3.008c0-0.554,0.447-1,1-1c0.552,0,1,0.446,1,1c0,0.551-0.448,1-1,1C13.947,4.008,13.5,3.559,13.5,3.008z"/>
		<path d="M15,6.348v1.307l3.649,1.142C18.857,8.86,19,9.054,19,9.273v5.671l3.685-1.475C22.875,13.394,23,13.21,23,13.006v-9.77
			L15,6.348z M20.5,12.506c-0.553,0-1-0.447-1-1c0-0.552,0.447-1,1-1c0.552,0,1,0.448,1,1C21.5,12.059,21.052,12.506,20.5,12.506z
			 M20.5,7.506c-0.553,0-1-0.447-1-1c0-0.552,0.447-1,1-1c0.552,0,1,0.448,1,1C21.5,7.059,21.052,7.506,20.5,7.506z"/>
		<path d="M9.649,5.981L14,7.342V6.366L6,3.699v3.329l3.351-1.048C9.448,5.95,9.552,5.95,9.649,5.981z"/>
		<path d="M1,20.006c0,0.198,0.117,0.377,0.299,0.457L9,23.832V13.506c0-0.053,0.015-0.1,0.029-0.148L1,10.236V20.006z M7,18.506
			c0.552,0,1,0.448,1,1c0,0.553-0.448,1-1,1c-0.553,0-1-0.447-1-1C6,18.954,6.447,18.506,7,18.506z M4,13.506c0.552,0,1,0.448,1,1
			c0,0.553-0.448,1-1,1c-0.553,0-1-0.447-1-1C3,13.954,3.447,13.506,4,13.506z"/>
		<path d="M10,13.506v10.326l7.701-3.369C17.883,20.383,18,20.204,18,20.006v-9.77l-8.03,3.122C9.984,13.406,10,13.453,10,13.506z
			 M15,13.506c0.552,0,1,0.448,1,1c0,0.553-0.448,1-1,1c-0.553,0-1-0.447-1-1C14,13.954,14.447,13.506,15,13.506z M13.5,16.006
			c0.552,0,1,0.448,1,1c0,0.553-0.448,1-1,1c-0.553,0-1-0.447-1-1C12.5,16.454,12.947,16.006,13.5,16.006z M12,18.506
			c0.552,0,1,0.448,1,1c0,0.553-0.448,1-1,1c-0.553,0-1-0.447-1-1C11,18.954,11.447,18.506,12,18.506z"/>
		<path d="M9.5,6.981L1.679,9.428L9.5,12.469l7.82-3.041L9.5,6.981z M9.5,11.008c-0.553,0-1-0.449-1-1c0-0.554,0.447-1,1-1
			c0.552,0,1,0.446,1,1C10.5,10.559,10.052,11.008,9.5,11.008z"/>
	</g>
</g>
<g id="invisble_shape">
	<rect fill="none" width="24" height="24"/>
</g>
</svg>
