<?xml version="1.0" encoding="utf-8"?>
<!-- Generator: Adobe Illustrator 19.2.0, SVG Export Plug-In . SVG Version: 6.00 Build 0)  -->
<svg version="1.1" xmlns="http://www.w3.org/2000/svg" xmlns:xlink="http://www.w3.org/1999/xlink" x="0px" y="0px" width="24px"
	 height="24px" viewBox="0 0 24 24" enable-background="new 0 0 24 24" xml:space="preserve">
<g id="Filled_Icons">
	<g>
		<path d="M22.5,1h-12C9.673,1,9,1.673,9,2.5V7h4.5C14.878,7,16,8.121,16,9.5V16h6.5c0.827,0,1.5-0.673,1.5-1.5v-12
			C24,1.673,23.327,1,22.5,1z M14,6c-0.553,0-1-0.447-1-1c0-0.552,0.447-1,1-1c0.552,0,1,0.448,1,1C15,5.553,14.552,6,14,6z M19,13
			c-0.553,0-1-0.447-1-1c0-0.552,0.447-1,1-1c0.552,0,1,0.448,1,1C20,12.553,19.552,13,19,13z M19,6c-0.553,0-1-0.447-1-1
			c0-0.552,0.447-1,1-1c0.552,0,1,0.448,1,1C20,5.553,19.552,6,19,6z"/>
		<path d="M13.5,8h-12C0.673,8,0,8.673,0,9.5v12C0,22.327,0.673,23,1.5,23h12c0.827,0,1.5-0.673,1.5-1.5v-12
			C15,8.673,14.327,8,13.5,8z M4,19c-0.552,0-1-0.447-1-1c0-0.552,0.448-1,1-1s1,0.448,1,1C5,18.553,4.552,19,4,19z M4,14
			c-0.552,0-1-0.447-1-1c0-0.552,0.448-1,1-1s1,0.448,1,1C5,13.553,4.552,14,4,14z M7.5,19c-0.552,0-1-0.447-1-1
			c0-0.552,0.448-1,1-1s1,0.448,1,1C8.5,18.553,8.052,19,7.5,19z M7.5,14c-0.552,0-1-0.447-1-1c0-0.552,0.448-1,1-1s1,0.448,1,1
			C8.5,13.553,8.052,14,7.5,14z M11,19c-0.552,0-1-0.447-1-1c0-0.552,0.448-1,1-1s1,0.448,1,1C12,18.553,11.552,19,11,19z M11,14
			c-0.552,0-1-0.447-1-1c0-0.552,0.448-1,1-1s1,0.448,1,1C12,13.553,11.552,14,11,14z"/>
	</g>
</g>
<g id="invisble_shape">
	<rect fill="none" width="24" height="24"/>
</g>
</svg>
