<?xml version="1.0" encoding="utf-8"?>
<!-- Generator: Adobe Illustrator 19.2.0, SVG Export Plug-In . SVG Version: 6.00 Build 0)  -->
<svg version="1.1" xmlns="http://www.w3.org/2000/svg" xmlns:xlink="http://www.w3.org/1999/xlink" x="0px" y="0px" width="24px"
	 height="24px" viewBox="0 0 24 24" enable-background="new 0 0 24 24" xml:space="preserve">
<g id="Filled_Icons">
	<g>
		<g>
			<rect x="11" y="0.006" width="1" height="3.517"/>
		</g>
		<g>
			<path d="M16.568,5.11c-0.099,0-0.197-0.028-0.284-0.088C16.057,4.865,16,4.554,16.157,4.326l1.137-1.647
				c0.157-0.228,0.469-0.283,0.695-0.127c0.228,0.157,0.284,0.468,0.127,0.695l-1.137,1.646C16.883,5.035,16.727,5.11,16.568,5.11z"
				/>
		</g>
		<g>
			<path d="M20.371,11.641c-0.254,0-0.472-0.194-0.497-0.452c-0.026-0.275,0.175-0.52,0.45-0.546l1.991-0.193
				c0.259-0.024,0.52,0.174,0.546,0.449c0.026,0.275-0.175,0.52-0.45,0.546l-1.991,0.193C20.404,11.639,20.388,11.641,20.371,11.641
				z"/>
		</g>
		<g>
			<path d="M18.61,21.778c-0.14,0-0.278-0.058-0.378-0.171l-1.312-1.511c-0.181-0.208-0.158-0.524,0.05-0.705
				c0.209-0.181,0.523-0.16,0.706,0.05l1.312,1.509c0.181,0.209,0.158,0.524-0.05,0.706C18.844,21.738,18.727,21.778,18.61,21.778z"
				/>
		</g>
		<g>
			<path d="M4.235,21.745c-0.116,0-0.233-0.04-0.327-0.122c-0.209-0.181-0.231-0.496-0.051-0.705l1.31-1.512
				c0.181-0.208,0.497-0.231,0.705-0.051c0.209,0.181,0.231,0.497,0.051,0.705l-1.31,1.512C4.515,21.687,4.375,21.745,4.235,21.745z
				"/>
		</g>
		<g>
			<path d="M2.52,11.585c-0.017,0-0.032,0-0.049-0.002l-1.991-0.191c-0.274-0.026-0.477-0.27-0.45-0.546
				c0.027-0.275,0.275-0.477,0.546-0.449l1.991,0.191c0.274,0.026,0.477,0.271,0.45,0.545C2.991,11.392,2.773,11.585,2.52,11.585z"
				/>
		</g>
		<g>
			<path d="M6.611,4.925c-0.164,0-0.325-0.081-0.42-0.229L5.108,3.014c-0.15-0.231-0.083-0.541,0.149-0.691
				c0.231-0.149,0.541-0.083,0.69,0.15l1.083,1.682c0.15,0.232,0.083,0.541-0.149,0.691C6.798,4.899,6.704,4.925,6.611,4.925z"/>
		</g>
		<g>
			<g>
				<path d="M7.459,15.138C7.329,14.456,7.251,13.739,7.224,13H4.358C5.136,13.922,5.784,14.548,7.459,15.138z"/>
			</g>
			<g>
				<path d="M11,8.234V5.26l-0.389,0.323C9.858,6.211,9.246,7.234,8.825,8.479C9.519,8.344,10.247,8.263,11,8.234z"/>
			</g>
			<g>
				<path d="M10.775,13.225H8c0.034,0.856,0.143,1.684,0.324,2.45c0.768,0.183,1.595,0.29,2.451,0.325V13.225z"/>
			</g>
			<g>
				<path d="M4.358,12h2.86c0.023-0.734,0.092-1.447,0.215-2.125C5.755,10.471,5.127,11.091,4.358,12z"/>
			</g>
			<g>
				<path d="M15.551,9.834c0.128,0.691,0.203,1.417,0.226,2.166h2.967C17.971,11.074,17.305,10.431,15.551,9.834z"/>
			</g>
			<g>
				<path d="M12,5.263v2.967c0.748,0.023,1.474,0.098,2.165,0.226c-0.41-1.203-1.001-2.197-1.723-2.823L12,5.263z"/>
			</g>
			<g>
				<path d="M12.223,12H15c-0.028-0.86-0.133-1.692-0.311-2.467c-0.775-0.179-1.608-0.283-2.467-0.312V12z"/>
			</g>
			<g>
				<path d="M10.999,12V9.226c-0.864,0.036-1.7,0.144-2.475,0.33C8.35,10.324,8.247,11.146,8.219,12H10.999z"/>
			</g>
			<g>
				<path d="M7.731,16.275c-2.368-0.689-3.294-1.625-4.138-2.626c0.507,3.487,3.265,6.247,6.752,6.755
					C9.345,19.56,8.415,18.631,7.731,16.275z"/>
			</g>
			<g>
				<path d="M13.089,4.87c0.983,0.853,1.737,2.218,2.199,3.848c2.125,0.601,3.229,1.458,4.1,2.501
					c-0.548-3.388-3.224-6.063-6.611-6.61L13.089,4.87z"/>
			</g>
			<g>
				<path d="M7.693,8.754c0.47-1.686,1.254-3.086,2.277-3.939l0.246-0.204c-3.435,0.557-6.136,3.303-6.628,6.758
					C4.435,10.368,5.349,9.443,7.693,8.754z"/>
			</g>
			<g>
				<path d="M11,19.647v-2.865c-0.74-0.026-1.457-0.105-2.139-0.235C9.457,18.237,10.081,18.873,11,19.647z"/>
			</g>
			<g>
				<path d="M15.252,16.313c-0.685,2.323-1.6,3.245-2.6,4.091c3.437-0.498,6.166-3.185,6.732-6.599
					C18.287,15.12,16.979,15.832,15.252,16.313z"/>
			</g>
			<g>
				<path d="M18.746,13h-2.975c-0.027,0.753-0.109,1.481-0.244,2.174C17.28,14.581,17.967,13.936,18.746,13z"/>
			</g>
			<g>
				<path d="M12,16.787v2.86c0.911-0.772,1.529-1.402,2.124-3.075C13.445,16.695,12.733,16.766,12,16.787z"/>
			</g>
			<g>
				<path d="M12.227,13.221V16c0.853-0.027,1.675-0.131,2.442-0.305c0.186-0.774,0.295-1.61,0.33-2.475H12.227z"/>
			</g>
		</g>
	</g>
</g>
<g id="invisble_shape">
	<rect fill="none" width="24" height="24"/>
</g>
</svg>
