<?xml version="1.0" encoding="utf-8"?>
<!-- Generator: Adobe Illustrator 19.2.0, SVG Export Plug-In . SVG Version: 6.00 Build 0)  -->
<svg version="1.1" xmlns="http://www.w3.org/2000/svg" xmlns:xlink="http://www.w3.org/1999/xlink" x="0px" y="0px" width="24px"
	 height="24px" viewBox="0 0 24 24" enable-background="new 0 0 24 24" xml:space="preserve">
<g id="Filled_Icons">
	<g>
		<circle cx="12" cy="7" r="3"/>
		<path d="M7,15h10c0-2.206-1.794-4-4-4h-2C8.794,11,7,12.794,7,15z"/>
		<path d="M23.98,23.362l-2-7C21.919,16.148,21.724,16,21.5,16h-19c-0.224,0-0.419,0.148-0.48,0.362l-2,7
			c-0.043,0.151-0.014,0.313,0.081,0.438C0.195,23.927,0.343,24,0.5,24h23c0.157,0,0.305-0.073,0.399-0.199
			C23.994,23.676,24.023,23.514,23.98,23.362z M7.01,22c-1.683,0-3-0.879-3-2s1.317-2,3-2c1.683,0,3,0.879,3,2S8.692,22,7.01,22z
			 M17,22c-1.683,0-3-0.879-3-2s1.317-2,3-2s3,0.879,3,2S18.683,22,17,22z"/>
		<path d="M6.459,9H7.5C7.776,9,8,8.776,8,8.5V4.521c0-1.721,1.496-3.5,4-3.5s4,1.779,4,3.5V8.5C16,8.776,16.224,9,16.5,9h1
			C18.879,9,20,7.879,20,6.5S18.879,4,17.5,4h-0.555c-0.267-2.035-2.061-3.98-4.945-3.98S7.321,1.965,7.055,4H6.459
			C5.103,4,4,5.121,4,6.5S5.103,9,6.459,9z"/>
	</g>
</g>
<g id="invisble_shape">
	<rect fill="none" width="24" height="24"/>
</g>
</svg>
