<?xml version="1.0" encoding="utf-8"?>
<!-- Generator: Adobe Illustrator 19.2.0, SVG Export Plug-In . SVG Version: 6.00 Build 0)  -->
<svg version="1.1" xmlns="http://www.w3.org/2000/svg" xmlns:xlink="http://www.w3.org/1999/xlink" x="0px" y="0px" width="24px"
	 height="24px" viewBox="0 0 24 24" enable-background="new 0 0 24 24" xml:space="preserve">
<g id="Filled_Icons">
	<g>
		<path d="M6.624,8.337l-5.901,5.901c-0.466,0.465-0.722,1.084-0.722,1.743c0,0.658,0.256,1.277,0.722,1.743l5.56,5.561
			c0.466,0.466,1.085,0.723,1.743,0.723s1.277-0.257,1.743-0.723l5.9-5.901L6.624,8.337z M4.783,16.396
			c-0.391,0.391-1.023,0.391-1.414,0c-0.391-0.391-0.391-1.023,0-1.413c0.391-0.392,1.023-0.392,1.414,0
			C5.174,15.372,5.174,16.005,4.783,16.396z M6.197,13.566c-0.391-0.391-0.391-1.023,0-1.413c0.391-0.391,1.023-0.391,1.414,0
			c0.391,0.39,0.391,1.023,0,1.413C7.221,13.958,6.588,13.958,6.197,13.566z M9.025,20.64c-0.391,0.39-1.023,0.39-1.414,0
			c-0.391-0.392-0.391-1.024,0-1.416c0.391-0.39,1.023-0.39,1.414,0C9.416,19.615,9.416,20.248,9.025,20.64z M10.439,17.81
			c-0.391-0.391-0.391-1.024,0-1.414c0.391-0.391,1.023-0.391,1.414,0c0.391,0.391,0.391,1.023,0,1.414
			C11.463,18.2,10.83,18.2,10.439,17.81z"/>
		<path d="M22.277,7.288l-5.559-5.56c-0.932-0.932-2.555-0.932-3.486,0L7.331,7.63l9.046,9.047l5.9-5.9
			C23.238,9.814,23.238,8.249,22.277,7.288z M12.561,8.617c-0.391,0.392-1.023,0.392-1.414,0c-0.391-0.391-0.391-1.023,0-1.414
			c0.391-0.391,1.023-0.391,1.414,0C12.951,7.594,12.951,8.227,12.561,8.617z M19.633,10.031c-0.391,0.392-1.023,0.392-1.414,0
			c-0.391-0.39-0.391-1.022,0-1.414c0.391-0.391,1.024-0.391,1.414,0C20.023,9.009,20.023,9.642,19.633,10.031z"/>
	</g>
</g>
<g id="invisble_shape">
	<rect fill="none" width="24" height="24"/>
</g>
</svg>
