<?xml version="1.0" encoding="utf-8"?>
<!-- Generator: Adobe Illustrator 19.2.0, SVG Export Plug-In . SVG Version: 6.00 Build 0)  -->
<svg version="1.1" xmlns="http://www.w3.org/2000/svg" xmlns:xlink="http://www.w3.org/1999/xlink" x="0px" y="0px" width="24px"
	 height="24px" viewBox="0 0 24 24" enable-background="new 0 0 24 24" xml:space="preserve">
<g id="Filled_Icons">
	<g>
		<path d="M13.164,14.265c-0.366,0.13-0.754,0.214-1.164,0.214s-0.798-0.084-1.164-0.214l-4.287,9.021
			c-0.074,0.155-0.063,0.337,0.028,0.482C6.669,23.912,6.828,24,7,24h10c0.172,0,0.331-0.088,0.423-0.232
			c0.092-0.145,0.103-0.327,0.028-0.482L13.164,14.265z"/>
		<circle cx="12" cy="10.979" r="2.5"/>
		<path d="M23,9.5v-3C23,5.122,21.879,4,20.5,4h-1c-0.505,0-0.974,0.153-1.367,0.412c-0.942-0.889-2.011-1.557-3.138-1.959
			C14.97,1.097,13.863,0,12.5,0h-1C10.121,0,9,1.122,9,2.5v0.008c-1.159,0.41-2.226,1.061-3.13,1.905C5.476,4.153,5.006,4,4.5,4h-1
			C2.121,4,1,5.122,1,6.5v3C1,9.776,1.224,10,1.5,10h1.56C3.024,10.326,3,10.652,3,10.979c0,0.357,0.028,0.713,0.07,1.065
			C1.896,12.25,1,13.269,1,14.5v3C1,17.776,1.224,18,1.5,18h4.841c0.444,0.36,0.914,0.691,1.419,0.962l0.473-0.882
			C7.794,17.846,7.387,17.56,7,17.249V14.5C7,13.122,5.879,12,4.5,12H4.072C4.029,11.663,4,11.322,4,10.979
			C4,10.652,4.027,10.326,4.067,10H6.5C6.776,10,7,9.776,7,9.5v-3c0-0.512-0.155-0.986-0.42-1.383C7.29,4.46,8.109,3.938,9,3.576
			V5.5C9,5.776,9.224,6,9.5,6h5C14.776,6,15,5.776,15,5.5V3.523c0.863,0.359,1.683,0.9,2.422,1.591C17.156,5.512,17,5.987,17,6.5v3
			c0,0.276,0.224,0.5,0.5,0.5h2.435C19.974,10.323,20,10.65,20,10.979c0,0.387-0.024,0.711-0.062,1.021H19.5
			c-1.379,0-2.5,1.122-2.5,2.5v2.755c-0.345,0.277-0.71,0.534-1.099,0.753l0.49,0.872c0.452-0.255,0.877-0.555,1.276-0.88H22.5
			c0.276,0,0.5-0.224,0.5-0.5v-3c0-1.227-0.892-2.246-2.06-2.455c0.036-0.328,0.06-0.669,0.06-1.066
			c0-0.328-0.023-0.654-0.059-0.979H22.5C22.776,10,23,9.776,23,9.5z"/>
	</g>
</g>
<g id="invisble_shape">
	<rect fill="none" width="24" height="24"/>
</g>
</svg>
