<?xml version="1.0" encoding="utf-8"?>
<!-- Generator: Adobe Illustrator 19.2.0, SVG Export Plug-In . SVG Version: 6.00 Build 0)  -->
<svg version="1.1" xmlns="http://www.w3.org/2000/svg" xmlns:xlink="http://www.w3.org/1999/xlink" x="0px" y="0px" width="24px"
	 height="24px" viewBox="0 0 24 24" enable-background="new 0 0 24 24" xml:space="preserve">
<g id="Filled_Icons">
	<g>
		<path d="M9.373,9.933c-0.094,0.094-0.146,0.221-0.146,0.354c0,0.133,0.053,0.26,0.146,0.354l1.777,1.775l-8.08,8.062
			c-0.195,0.195-0.195,0.512,0,0.707c0.098,0.098,0.226,0.146,0.353,0.146c0.128,0,0.256-0.049,0.353-0.146l8.08-8.061l0.6,0.599
			c-0.46,0.555-1.804,2.354-1.593,4.296c0.122,1.127,0.739,2.086,1.834,2.851c0.087,0.061,0.187,0.09,0.286,0.09
			c0.157,0,0.313-0.074,0.41-0.214c0.158-0.226,0.103-0.538-0.124-0.695c-0.846-0.592-1.321-1.31-1.412-2.136
			c-0.163-1.483,0.894-2.961,1.31-3.48l0.448,0.447c0.098,0.098,0.226,0.147,0.353,0.147c0.128,0,0.256-0.049,0.354-0.147
			l6.412-6.411l-4.878-5.023L9.373,9.933z"/>
		<path d="M23.5,0.006h-8.409c-0.201,0-0.382,0.12-0.461,0.306c-0.078,0.185-0.038,0.398,0.102,0.543l8.409,8.659
			c0.096,0.099,0.226,0.151,0.358,0.151c0.063,0,0.127-0.012,0.188-0.036C23.877,9.552,24,9.369,24,9.165V0.506
			C24,0.229,23.776,0.006,23.5,0.006z"/>
		<path d="M18.627,17.942l-1.414,1.415c-0.195,0.195-0.195,0.513,0,0.707c0.098,0.098,0.226,0.146,0.354,0.146
			c0.128,0,0.256-0.049,0.354-0.146l1.414-1.415c0.195-0.195,0.195-0.512,0-0.707C19.139,17.747,18.822,17.747,18.627,17.942z"/>
		<path d="M14.404,17.942c-0.195-0.195-0.512-0.195-0.707,0s-0.195,0.512,0,0.707l1.414,1.415c0.098,0.098,0.226,0.146,0.353,0.146
			c0.128,0,0.256-0.049,0.354-0.146c0.195-0.194,0.195-0.512,0-0.707L14.404,17.942z"/>
		<path d="M17.92,21.515c-0.195-0.195-0.512-0.195-0.707,0c-0.195,0.195-0.195,0.512,0,0.708l1.414,1.413
			c0.098,0.098,0.226,0.146,0.353,0.146c0.128,0,0.256-0.049,0.354-0.146c0.195-0.194,0.195-0.511,0-0.707L17.92,21.515z"/>
		<path d="M15.111,21.515l-1.414,1.414c-0.195,0.196-0.195,0.513,0,0.707c0.098,0.098,0.226,0.146,0.354,0.146
			s0.256-0.049,0.353-0.146l1.414-1.413c0.195-0.196,0.195-0.513,0-0.708C15.623,21.319,15.307,21.319,15.111,21.515z"/>
	</g>
</g>
<g id="invisble_shape">
	<rect fill="none" width="24" height="24"/>
</g>
</svg>
