<?xml version="1.0" encoding="utf-8"?>
<!-- Generator: Adobe Illustrator 19.2.0, SVG Export Plug-In . SVG Version: 6.00 Build 0)  -->
<svg version="1.1" xmlns="http://www.w3.org/2000/svg" xmlns:xlink="http://www.w3.org/1999/xlink" x="0px" y="0px" width="24px"
	 height="24px" viewBox="0 0 24 24" enable-background="new 0 0 24 24" xml:space="preserve">
<g id="Filled_Icons">
	<g>
		<path d="M0.361,2.66L0.878,2.81L1.88,9.561c0.028,0.192,0.166,0.352,0.352,0.406c0.047,0.014,0.095,0.021,0.142,0.021
			c0.142,0,0.278-0.06,0.375-0.169l4.546-5.155l1.243,0.359l0.944,6.77c0.034,0.248,0.247,0.432,0.495,0.432
			c0.14,0,0.275-0.06,0.372-0.166l4.64-5.17l1.202,0.347l0.944,6.772c0.026,0.191,0.163,0.351,0.349,0.408
			c0.182,0.057,0.385,0.004,0.518-0.145l4.642-5.171l0.658,0.19c0.046,0.014,0.093,0.019,0.139,0.019
			c0.217,0,0.417-0.142,0.48-0.361c0.076-0.265-0.076-0.542-0.342-0.619L0.639,1.699C0.376,1.623,0.097,1.775,0.02,2.041
			C-0.057,2.307,0.096,2.584,0.361,2.66z"/>
		<path d="M23.412,14.298L1.195,16.796L0.87,16.827c-0.008,0-0.014,0.006-0.021,0.007l-0.372,0.042
			c-0.274,0.032-0.472,0.278-0.441,0.553c0.029,0.256,0.245,0.444,0.496,0.444c0.019,0,0.038,0,0.057-0.003l0.064-0.007l3.443,5.894
			c0.09,0.155,0.255,0.248,0.432,0.248c0.016,0,0.031,0,0.047-0.002c0.193-0.019,0.359-0.146,0.424-0.33l2.332-6.561l1.528-0.171
			l3.468,5.939c0.09,0.155,0.255,0.248,0.432,0.248c0.016,0,0.031,0,0.047-0.002c0.193-0.019,0.359-0.147,0.424-0.33l2.352-6.612
			l1.091-0.122l3.43,5.875c0.09,0.155,0.255,0.248,0.432,0.248c0.016,0,0.031,0,0.047-0.002c0.193-0.019,0.359-0.147,0.424-0.33
			l2.325-6.539l0.194-0.023c0.274-0.031,0.472-0.278,0.441-0.552C23.933,14.465,23.678,14.271,23.412,14.298z"/>
	</g>
</g>
<g id="invisble_shape">
	<rect fill="none" width="24" height="24"/>
</g>
</svg>
