<?xml version="1.0" encoding="utf-8"?>
<!-- Generator: Adobe Illustrator 19.2.0, SVG Export Plug-In . SVG Version: 6.00 Build 0)  -->
<svg version="1.1" xmlns="http://www.w3.org/2000/svg" xmlns:xlink="http://www.w3.org/1999/xlink" x="0px" y="0px" width="24px"
	 height="24px" viewBox="0 0 24 24" enable-background="new 0 0 24 24" xml:space="preserve">
<g id="Filled_Icons">
	<g>
		<path d="M3.5,14h-3C0.224,14,0,14.224,0,14.5v8c0,0.276,0.224,0.5,0.5,0.494h3C3.776,23,4,22.776,4,22.5v-8
			C4,14.224,3.776,14,3.5,14z"/>
		<path d="M23.854,18.146c-1.175-1.173-2.186-1.499-3.512-1.12l-3.007,0.998c0.025,0.156,0.04,0.316,0.04,0.477
			c0,1.316-0.881,2.512-2.375,2.5H9.5C9.224,21.006,9,20.776,9,20.5s0.224-0.494,0.5-0.5H15c0.889,0.012,1.375-0.68,1.375-1.5
			c0-0.558-0.29-1.5-1.375-1.5h-3c-0.132,0-0.26-0.053-0.354-0.146C11.09,16.296,9.569,15,7.5,15h-2C5.224,15,5,15.224,5,15.5V21
			c0,0.215,0.138,0.406,0.342,0.474c1.585,0.528,2.831,0.981,3.833,1.345c2.004,0.729,3.13,1.123,4.141,1.123
			c1.212,0,2.258-0.567,4.453-1.807c1.368-0.774,3.242-1.832,5.955-3.188C24.033,18.793,24.092,18.386,23.854,18.146z"/>
		<path d="M10.5,14H15V8h-5v5.5C10,13.776,10.224,14,10.5,14z"/>
		<path d="M9.5,7H15V4.875V4h1v0.875V7h5.5C21.776,7,22,6.776,22,6.5v-2C22,4.224,21.776,4,21.5,4h-3.539
			c0.274-0.168,0.529-0.353,0.736-0.56c0.938-0.939,1.058-1.771,0.354-2.475c-0.797-0.797-1.675-0.448-2.475,0.354
			c-0.455,0.455-0.816,1.141-1.076,1.748c-0.26-0.607-0.621-1.293-1.076-1.748c-0.801-0.803-1.681-1.15-2.475-0.354
			c-0.704,0.704-0.585,1.536,0.354,2.475C12.51,3.647,12.766,3.832,13.039,4H9.5C9.224,4,9,4.224,9,4.5v2C9,6.776,9.224,7,9.5,7z
			 M17.283,2.025c0.353-0.352,0.724-0.69,1.061-0.353c0.157,0.157,0.354,0.353-0.354,1.06c-0.389,0.389-1.076,0.727-1.671,0.964
			C16.557,3.102,16.895,2.414,17.283,2.025z M12.656,1.672c0.338-0.338,0.676-0.031,1.061,0.353
			c0.389,0.389,0.727,1.076,0.964,1.671c-0.595-0.237-1.282-0.575-1.671-0.964C12.303,2.025,12.499,1.829,12.656,1.672z"/>
		<path d="M16,14h4.5c0.276,0,0.5-0.224,0.5-0.5V8h-5V14z"/>
	</g>
</g>
<g id="invisble_shape">
	<rect fill="none" width="24" height="24"/>
</g>
</svg>
