<?xml version="1.0" encoding="utf-8"?>
<!-- Generator: Adobe Illustrator 19.2.0, SVG Export Plug-In . SVG Version: 6.00 Build 0)  -->
<svg version="1.1" xmlns="http://www.w3.org/2000/svg" xmlns:xlink="http://www.w3.org/1999/xlink" x="0px" y="0px" width="24px"
	 height="24px" viewBox="0 0 24 24" enable-background="new 0 0 24 24" xml:space="preserve">
<g id="Filled_Icons">
	<g>
		<path d="M23.854,10.146l-3.657-3.657l3.419-3.647C23.912,2.523,23.688,2,23.25,2H12V1.5C12,1.224,11.776,1,11.5,1S11,1.224,11,1.5
			v19c0,0.276,0.224,0.5,0.5,0.5s0.5-0.224,0.5-0.5V11h11.5C23.945,11,24.167,10.46,23.854,10.146z"/>
		<path d="M13,18.06v2.44c0,0.828-0.672,1.5-1.5,1.5S10,21.328,10,20.5v-2.44C6.876,18.308,4,19.319,4,21c0,1.948,3.864,3,7.5,3
			s7.5-1.052,7.5-3C19,19.319,16.124,18.308,13,18.06z"/>
	</g>
</g>
<g id="invisble_shape">
	<rect fill="none" width="24" height="24"/>
</g>
</svg>
