<?xml version="1.0" encoding="utf-8"?>
<!-- Generator: Adobe Illustrator 19.2.0, SVG Export Plug-In . SVG Version: 6.00 Build 0)  -->
<svg version="1.1" xmlns="http://www.w3.org/2000/svg" xmlns:xlink="http://www.w3.org/1999/xlink" x="0px" y="0px" width="24px"
	 height="24px" viewBox="0 0 24 24" enable-background="new 0 0 24 24" xml:space="preserve">
<g id="Filled_Icons">
	<g>
		<path d="M22.95,0.336c-0.091-0.192-0.297-0.305-0.506-0.28l-3.182,0.354c-0.274,0.03-0.472,0.278-0.441,0.553
			s0.267,0.463,0.553,0.441l1.765-0.196l-7.838,7.838c-0.046-0.115-0.082-0.231-0.139-0.346c-0.072-0.143-0.209-0.244-0.367-0.269
			c-0.158-0.028-0.32,0.025-0.434,0.14l-9.804,9.805l2.305,2.305l0.881,2.641c0.055,0.164,0.191,0.289,0.359,0.328
			c0.038,0.01,0.077,0.014,0.115,0.014c0.131,0,0.259-0.052,0.353-0.146l2.121-2.121c0.134-0.134,0.181-0.332,0.121-0.512
			l-0.256-0.768l1.902-1.902c0.134-0.134,0.181-0.332,0.121-0.512l-0.609-1.828l1.902-1.902c0.939-0.939,1.482-1.936,1.645-2.929
			c1.031,0.793,2.114,1.203,3.18,1.203c0.788,0,1.566-0.222,2.304-0.67c2.807-1.707,4.085-5.968,2.996-9.812l0.856-0.856
			C23.004,0.756,23.043,0.527,22.95,0.336z M9.534,17.723l-1.33,1.33l-0.353-1.06l1.33-1.33L9.534,17.723z M18.482,10.719
			c-1.475,0.898-3.125,0.617-4.688-0.754l7.384-7.383C21.96,6.144,20.477,9.506,18.482,10.719z"/>
		<path d="M0.227,19.291c-0.195,0.195-0.195,0.512,0,0.707l2.455,2.456c0.094,0.094,0.221,0.146,0.354,0.146
			c0.133,0,0.26-0.053,0.353-0.146l0.918-0.917l-3.163-3.162L0.227,19.291z"/>
	</g>
</g>
<g id="invisble_shape">
	<rect fill="none" width="24" height="24"/>
</g>
</svg>
