<?xml version="1.0" encoding="utf-8"?>
<!-- Generator: Adobe Illustrator 19.2.0, SVG Export Plug-In . SVG Version: 6.00 Build 0)  -->
<svg version="1.1" xmlns="http://www.w3.org/2000/svg" xmlns:xlink="http://www.w3.org/1999/xlink" x="0px" y="0px" width="24px"
	 height="24px" viewBox="0 0 24 24" enable-background="new 0 0 24 24" xml:space="preserve">
<g id="Filled_Icons">
	<path d="M23.82,5.158l-6-5c-0.185-0.154-0.455-0.154-0.641,0l-6,5c-0.196,0.163-0.237,0.449-0.096,0.661l5.836,8.755
		c-3.195,6.331-5.334,5.395-7.805,4.292c-2.546-1.138-5.428-2.421-9.057,4.399c-0.13,0.243-0.037,0.546,0.207,0.676
		C0.34,23.981,0.42,24,0.5,24c0.179,0,0.352-0.096,0.441-0.265c3.19-5.997,5.309-5.055,7.766-3.956
		c2.594,1.157,5.533,2.467,9.222-4.979l5.987-8.982C24.058,5.607,24.017,5.321,23.82,5.158z M22.5,6H18v7c0,0.276-0.224,0.5-0.5,0.5
		S17,13.276,17,13V6h-4.5C12.224,6,12,5.776,12,5.5S12.224,5,12.5,5H17V1.5C17,1.224,17.224,1,17.5,1S18,1.224,18,1.5V5h4.5
		C22.776,5,23,5.224,23,5.5S22.776,6,22.5,6z"/>
</g>
<g id="invisble_shape">
	<rect fill="none" width="24" height="24"/>
</g>
</svg>
