<?xml version="1.0" encoding="utf-8"?>
<!-- Generator: Adobe Illustrator 19.2.0, SVG Export Plug-In . SVG Version: 6.00 Build 0)  -->
<svg version="1.1" xmlns="http://www.w3.org/2000/svg" xmlns:xlink="http://www.w3.org/1999/xlink" x="0px" y="0px" width="24px"
	 height="24px" viewBox="0 0 24 24" enable-background="new 0 0 24 24" xml:space="preserve">
<g id="Filled_Icons">
	<g>
		<path d="M17.891,16L13.985,0.379C13.93,0.156,13.729,0,13.5,0h-4C9.271,0,9.07,0.156,9.015,0.379L5.109,16H17.891z M15,13
			c0,0.552-0.448,1-1,1s-1-0.448-1-1c0-0.551,0.448-1,1-1S15,12.449,15,13z M13,6c0.552,0,1,0.449,1,1c0,0.552-0.448,1-1,1
			s-1-0.448-1-1C12,6.449,12.448,6,13,6z M11,3c0.552,0,1,0.449,1,1c0,0.552-0.448,1-1,1s-1-0.448-1-1C10,3.449,10.448,3,11,3z
			 M11,8c1.102,0,2,0.898,2,2s-0.898,2-2,2s-2-0.898-2-2S9.898,8,11,8z M9,13c0.552,0,1,0.449,1,1c0,0.552-0.448,1-1,1s-1-0.448-1-1
			C8,13.449,8.448,13,9,13z"/>
		<path d="M16.001,19.856c0.022-0.947,0.603-1.907,1.698-2.856H5.308c1.16,1.021,1.755,2.03,1.755,3
			c0,1.008-0.635,2.058-1.886,3.119c-0.16,0.136-0.219,0.356-0.146,0.554C5.102,23.869,5.29,24,5.5,24h12
			c0.206,0,0.392-0.126,0.466-0.318c0.075-0.192,0.024-0.41-0.128-0.55C16.595,21.992,15.977,20.89,16.001,19.856z"/>
	</g>
</g>
<g id="invisble_shape">
	<rect fill="none" width="24" height="24"/>
</g>
</svg>
