<?xml version="1.0" encoding="utf-8"?>
<!-- Generator: Adobe Illustrator 19.2.0, SVG Export Plug-In . SVG Version: 6.00 Build 0)  -->
<svg version="1.1" xmlns="http://www.w3.org/2000/svg" xmlns:xlink="http://www.w3.org/1999/xlink" x="0px" y="0px" width="24px"
	 height="24px" viewBox="0 0 24 24" enable-background="new 0 0 24 24" xml:space="preserve">
<g id="Filled_Icons">
	<g>
		<path d="M11.153,10.028L10.797,2.97c-0.044-0.896-0.478-1.72-1.191-2.264C8.906,0.17,7.976-0.039,7.109,0.15
			C6.234,0.343,5.492,0.906,5.073,1.697c-0.42,0.79-0.47,1.721-0.137,2.555l2.87,7.172C8.715,10.606,9.882,10.1,11.153,10.028z"/>
		<path d="M18.17,1.881c-0.379-0.813-1.091-1.413-1.954-1.65c-0.858-0.233-1.792-0.075-2.522,0.426
			c-0.74,0.506-1.216,1.308-1.306,2.198l-0.733,7.165c1.261,0.047,2.425,0.522,3.344,1.304l3.176-6.884
			C18.549,3.626,18.548,2.694,18.17,1.881z"/>
		<g>
			<path d="M6,18v3.5C6,22.879,7.121,24,8.5,24h6c1.379,0,2.5-1.121,2.5-2.5V18H6z"/>
			<path d="M20,14H3c-0.276,0-0.5,0.224-0.5,0.5S2.724,15,3,15h3v2h11v-2h3c0.276,0,0.5-0.224,0.5-0.5S20.276,14,20,14z"/>
		</g>
		<g>
			<path d="M15.183,13c-0.816-1.221-2.199-1.997-3.726-1.997c-1.525,0-2.908,0.776-3.725,1.997H15.183z"/>
		</g>
	</g>
</g>
<g id="invisble_shape">
	<rect fill="none" width="24" height="24"/>
</g>
</svg>
