<?xml version="1.0" encoding="utf-8"?>
<!-- Generator: Adobe Illustrator 19.2.0, SVG Export Plug-In . SVG Version: 6.00 Build 0)  -->
<svg version="1.1" xmlns="http://www.w3.org/2000/svg" xmlns:xlink="http://www.w3.org/1999/xlink" x="0px" y="0px" width="24px"
	 height="24px" viewBox="0 0 24 24" enable-background="new 0 0 24 24" xml:space="preserve">
<g id="Filled_Icons">
	<path d="M22.691,0.044c-0.188-0.079-0.402-0.035-0.545,0.108C21.128,1.169,16.955,1.88,11.997,1.88
		c-4.955,0-9.126-0.71-10.144-1.728C1.71,0.009,1.496-0.034,1.309,0.044C1.121,0.121,1,0.304,1,0.506v11.5c0,6.753,8.773,12,11,12
		c2.226,0,11-5.247,11-12v-11.5C23,0.304,22.878,0.121,22.691,0.044z M6,9.004c0,0.276-0.224,0.5-0.5,0.5S5,9.28,5,9.004
		c0-1.379,1.121-2.5,2.5-2.5c1.378,0,2.5,1.121,2.5,2.5c0,0.276-0.224,0.5-0.5,0.5S9,9.28,9,9.004c0-0.827-0.673-1.5-1.5-1.5
		S6,8.177,6,9.004z M12,18.504c-2.481,0-4.5-2.019-4.5-4.5c0-0.276,0.224-0.5,0.5-0.5c0.276,0,0.5,0.224,0.5,0.5
		c0,1.93,1.57,3.5,3.5,3.5s3.5-1.57,3.5-3.5c0-0.276,0.224-0.5,0.5-0.5s0.5,0.224,0.5,0.5C16.5,16.485,14.481,18.504,12,18.504z
		 M18.5,9.504c-0.276,0-0.5-0.224-0.5-0.5c0-0.827-0.673-1.5-1.5-1.5c-0.827,0-1.5,0.673-1.5,1.5c0,0.276-0.224,0.5-0.5,0.5
		S14,9.28,14,9.004c0-1.379,1.121-2.5,2.5-2.5c1.378,0,2.5,1.121,2.5,2.5C19,9.28,18.776,9.504,18.5,9.504z"/>
</g>
<g id="invisble_shape">
	<rect fill="none" width="24" height="24"/>
</g>
</svg>
