<?xml version="1.0" encoding="utf-8"?>
<!-- Generator: Adobe Illustrator 19.2.0, SVG Export Plug-In . SVG Version: 6.00 Build 0)  -->
<svg version="1.1" xmlns="http://www.w3.org/2000/svg" xmlns:xlink="http://www.w3.org/1999/xlink" x="0px" y="0px" width="24px"
	 height="24px" viewBox="0 0 24 24" enable-background="new 0 0 24 24" xml:space="preserve">
<g id="Filled_Icons">
	<path d="M22.691,0.044c-0.188-0.079-0.402-0.035-0.545,0.108C21.128,1.169,16.955,1.88,11.997,1.88
		c-4.955,0-9.126-0.71-10.144-1.728C1.71,0.009,1.495-0.034,1.309,0.044C1.121,0.121,1,0.304,1,0.506v11.5c0,6.753,8.773,12,11,12
		c2.226,0,11-5.247,11-12v-11.5C23,0.304,22.878,0.121,22.691,0.044z M5,7.004c0-0.276,0.224-0.5,0.5-0.5S6,6.727,6,7.004
		c0,0.827,0.673,1.5,1.5,1.5S9,7.831,9,7.004c0-0.276,0.224-0.5,0.5-0.5s0.5,0.224,0.5,0.5c0,1.378-1.122,2.5-2.5,2.5
		C6.121,9.504,5,8.382,5,7.004z M16,18.504c-0.276,0-0.5-0.224-0.5-0.5c0-1.93-1.57-3.5-3.5-3.5s-3.5,1.57-3.5,3.5
		c0,0.276-0.224,0.5-0.5,0.5c-0.276,0-0.5-0.224-0.5-0.5c0-2.481,2.019-4.5,4.5-4.5s4.5,2.02,4.5,4.5
		C16.5,18.28,16.276,18.504,16,18.504z M16.5,9.504c-1.379,0-2.5-1.122-2.5-2.5c0-0.276,0.224-0.5,0.5-0.5s0.5,0.224,0.5,0.5
		c0,0.827,0.673,1.5,1.5,1.5c0.827,0,1.5-0.673,1.5-1.5c0-0.276,0.224-0.5,0.5-0.5s0.5,0.224,0.5,0.5
		C19,8.382,17.878,9.504,16.5,9.504z"/>
</g>
<g id="invisble_shape">
	<rect fill="none" width="24" height="24"/>
</g>
</svg>
