<?xml version="1.0" encoding="utf-8"?>
<!-- Generator: Adobe Illustrator 19.2.0, SVG Export Plug-In . SVG Version: 6.00 Build 0)  -->
<svg version="1.1" xmlns="http://www.w3.org/2000/svg" xmlns:xlink="http://www.w3.org/1999/xlink" x="0px" y="0px" width="24px"
	 height="24px" viewBox="0 0 24 24" enable-background="new 0 0 24 24" xml:space="preserve">
<g id="Filled_Icons">
	<g>
		<path d="M19.5,16h-14c-1.208,0-2.217,0.86-2.449,2H7c0.276,0,0.5,0.224,0.5,0.5S7.276,19,7,19H3.051c0.232,1.14,1.241,2,2.449,2
			h10c2.481,0,4.5-2.019,4.5-4.5C20,16.224,19.776,16,19.5,16z"/>
		<path d="M5.5,15H9v-1.5C9,13.224,8.776,13,8.5,13c-1.517,0-2.896,0.731-3.658,2C5.056,14.959,5.274,15,5.5,15z"/>
		<g>
			<path d="M14,12.576C13.387,12.846,12.712,13,12,13s-1.387-0.154-2-0.424V15h4V12.576z"/>
			<path d="M10,22v1.5c0,0.276,0.224,0.5,0.5,0.5h3c0.276,0,0.5-0.224,0.5-0.5V22H10z"/>
		</g>
		<polygon points="15.15,7 12.001,1.525 8.862,7 		"/>
		<path d="M16,8c0,2.206,1.794,4,4,4s4-1.794,4-4H16z"/>
		<path d="M4,12c2.206,0,4-1.794,4-4H0C0,10.206,1.794,12,4,12z"/>
		<path d="M12,12c2.206,0,4-1.794,4-4H8C8,10.206,9.794,12,12,12z"/>
		<path d="M11.55,0.21L0.36,7h7.35l3.855-6.727c0.004-0.007,0.01-0.012,0.015-0.017C11.571,0.24,11.558,0.228,11.55,0.21z"/>
		<path d="M12.45,0.21c-0.008,0.018-0.021,0.03-0.03,0.046c0.005,0.005,0.01,0.01,0.014,0.017L16.305,7h7.314L12.45,0.21z"/>
	</g>
</g>
<g id="invisble_shape">
	<rect fill="none" width="24" height="24"/>
</g>
</svg>
