<?xml version="1.0" encoding="utf-8"?>
<!-- Generator: Adobe Illustrator 19.2.0, SVG Export Plug-In . SVG Version: 6.00 Build 0)  -->
<svg version="1.1" xmlns="http://www.w3.org/2000/svg" xmlns:xlink="http://www.w3.org/1999/xlink" x="0px" y="0px" width="24px"
	 height="24px" viewBox="0 0 24 24" enable-background="new 0 0 24 24" xml:space="preserve">
<g id="Filled_Icons">
	<g>
		<path d="M7.203,8.498c-0.22,0.22-0.347,0.503-0.431,0.812l-0.01-0.006L0.191,21.612c-0.34,0.637-0.225,1.407,0.285,1.917
			c0.315,0.314,0.729,0.479,1.149,0.479c0.261,0,0.524-0.064,0.768-0.194l12.297-6.557c0.321-0.085,0.602-0.23,0.821-0.449
			c1.201-1.201,0.321-3.894-2.047-6.264C11.196,8.276,8.37,7.329,7.203,8.498z M14.806,16.102c-0.159,0.159-0.404,0.24-0.729,0.24
			c-1.114,0-2.731-0.898-4.12-2.287c-2.03-2.031-2.708-4.186-2.047-4.85c0.159-0.159,0.403-0.239,0.727-0.239
			c1.113,0,2.731,0.898,4.121,2.286C14.79,13.284,15.468,15.439,14.806,16.102z"/>
		<path d="M23.818,11.87c-2.128-2.128-5.593-2.128-7.725,0c-0.195,0.194-0.195,0.512,0,0.707c0.098,0.098,0.226,0.147,0.354,0.147
			c0.128,0,0.256-0.049,0.354-0.147c1.74-1.738,4.572-1.738,6.31,0c0.195,0.195,0.512,0.195,0.707,0
			C24.014,12.382,24.014,12.065,23.818,11.87z"/>
		<path d="M11.415,7.899c0.098,0.098,0.226,0.147,0.354,0.147c0.128,0,0.256-0.049,0.353-0.147c1.032-1.031,1.601-2.403,1.601-3.862
			s-0.568-2.83-1.601-3.862c-0.195-0.195-0.512-0.195-0.707,0c-0.195,0.195-0.195,0.512,0,0.707
			c0.843,0.843,1.308,1.964,1.308,3.155c0,1.192-0.465,2.313-1.308,3.154C11.22,7.388,11.22,7.704,11.415,7.899z"/>
		<path d="M18.075,8.756c0.053,0,0.106-0.008,0.158-0.025l3.509-1.168c0.262-0.088,0.403-0.371,0.316-0.633
			c-0.088-0.263-0.371-0.402-0.633-0.316l-3.509,1.168c-0.262,0.088-0.403,0.371-0.316,0.633
			C17.671,8.624,17.865,8.756,18.075,8.756z"/>
		<path d="M15.578,6.392c0.053,0.018,0.106,0.026,0.158,0.026c0.209,0,0.404-0.133,0.475-0.342l1.17-3.51
			c0.087-0.262-0.055-0.545-0.316-0.632c-0.26-0.087-0.544,0.055-0.633,0.316l-1.17,3.509C15.175,6.022,15.316,6.305,15.578,6.392z"
			/>
		<path d="M15.566,9.258c0.268,0,0.519-0.104,0.707-0.293c0.389-0.39,0.39-1.023,0-1.417c-0.379-0.377-1.034-0.379-1.415,0.002
			c-0.389,0.392-0.388,1.025,0.001,1.414C15.048,9.153,15.299,9.258,15.566,9.258z"/>
		<path d="M8.134,6.333c0.268,0,0.52-0.106,0.707-0.294C9.029,5.851,9.134,5.6,9.134,5.332c0-0.267-0.104-0.518-0.293-0.706
			C8.464,4.248,7.804,4.248,7.427,4.625c-0.188,0.188-0.293,0.44-0.293,0.707c0,0.268,0.104,0.519,0.292,0.705
			C7.614,6.227,7.866,6.333,8.134,6.333z"/>
		<path d="M19.908,5.102c0.267,0,0.518-0.104,0.708-0.293c0.389-0.391,0.389-1.024-0.001-1.414c-0.377-0.378-1.037-0.378-1.414,0
			c-0.39,0.39-0.39,1.024,0.001,1.415C19.391,4.998,19.642,5.102,19.908,5.102z"/>
		<path d="M18.538,13.398c-0.39,0.39-0.39,1.024,0,1.414c0.189,0.189,0.44,0.293,0.707,0.293s0.519-0.104,0.707-0.293
			c0.39-0.39,0.39-1.024,0-1.415C19.573,13.021,18.917,13.021,18.538,13.398z"/>
	</g>
</g>
<g id="invisble_shape">
	<rect fill="none" width="24" height="24"/>
</g>
</svg>
