<?xml version="1.0" encoding="utf-8"?>
<!-- Generator: Adobe Illustrator 19.2.0, SVG Export Plug-In . SVG Version: 6.00 Build 0)  -->
<svg version="1.1" xmlns="http://www.w3.org/2000/svg" xmlns:xlink="http://www.w3.org/1999/xlink" x="0px" y="0px" width="24px"
	 height="24px" viewBox="0 0 24 24" enable-background="new 0 0 24 24" xml:space="preserve">
<g id="Filled_Icons">
	<path d="M23.5,0h-23C0.224,0,0,0.224,0,0.5v23C0,23.776,0.224,24,0.5,24h8C8.776,24,9,23.776,9,23.5c0-1.631-0.21-3.153-0.575-4.5
		h7.15C15.209,20.347,15,21.869,15,23.5c0,0.276,0.224,0.5,0.5,0.5h8c0.276,0,0.5-0.224,0.5-0.5v-23C24,0.224,23.776,0,23.5,0z
		 M15.401,2.51c0.273-0.057,0.534,0.121,0.589,0.392c0.447,2.238,2.268,4.667,4.233,5.65c0.247,0.123,0.347,0.424,0.224,0.671
		C20.359,9.398,20.183,9.5,19.999,9.5c-0.075,0-0.151-0.018-0.223-0.053c-2.252-1.126-4.256-3.795-4.767-6.35
		C14.955,2.827,15.131,2.563,15.401,2.51z M3.776,8.553c1.966-0.983,3.785-3.412,4.233-5.65C8.064,2.63,8.328,2.453,8.598,2.51
		C8.868,2.563,9.044,2.827,8.99,3.098c-0.511,2.555-2.516,5.224-4.767,6.35C4.151,9.482,4.075,9.5,4,9.5
		c-0.184,0-0.359-0.102-0.447-0.276C3.429,8.977,3.529,8.676,3.776,8.553z M1,14.023V13h2v1.023H1L1,14.023z M5,19.5
		c-0.276,0-0.5-0.224-0.5-0.5c0-0.799-0.772-2.279-1.083-2.507C3.18,16.453,3,16.248,3,16c0-0.276,0.224-0.5,0.5-0.5
		c1.027,0,2,2.547,2,3.5C5.5,19.276,5.276,19.5,5,19.5z M15.885,18h-7.77C7.227,15.509,5.742,14.342,4,14.067v-0.044V13
		c4.193-0.186,6.94-3.231,8-7.768c1.06,4.537,3.806,7.558,8,7.744V14v0.044C18.257,14.318,16.772,15.509,15.885,18z M20.583,16.493
		C20.271,16.721,19.5,18.201,19.5,19c0,0.276-0.224,0.5-0.5,0.5s-0.5-0.224-0.5-0.5c0-0.953,0.973-3.5,2-3.5
		c0.276,0,0.5,0.224,0.5,0.5C21,16.248,20.819,16.453,20.583,16.493z M23,14L23,14L23,14h-2l0,0v-1h2V14z"/>
</g>
<g id="invisble_shape">
	<rect fill="none" width="24" height="24"/>
</g>
</svg>
