<?xml version="1.0" encoding="utf-8"?>
<!-- Generator: Adobe Illustrator 19.2.0, SVG Export Plug-In . SVG Version: 6.00 Build 0)  -->
<svg version="1.1" xmlns="http://www.w3.org/2000/svg" xmlns:xlink="http://www.w3.org/1999/xlink" x="0px" y="0px" width="24px"
	 height="24px" viewBox="0 0 24 24" enable-background="new 0 0 24 24" xml:space="preserve">
<g id="Filled_Icons">
	<g>
		<path d="M15.307,24H8.83c-0.332,0-0.653-0.138-0.883-0.379c-0.229-0.242-0.35-0.57-0.333-0.901
			c0.104-2.02,0.882-8.606,6.398-14.564c-0.286,0.038-0.582,0.058-0.891,0.058c-1.039,0-2.118-0.412-3.161-0.811
			C9.119,7.081,8.325,6.777,7.739,6.777c-1.12,0-2.439,0.639-2.687,2.04C4.952,9.386,4.466,10,3.855,10H2.357
			C1.621,10,1,9.035,1,8.43V1.254C1,0.548,1.73,0,2.357,0h1.436c0.586,0,1.075,0.435,1.184,1.011
			c0.759-0.446,2.037-0.975,3.833-0.975c1.532,0,2.49,0.383,3.417,0.754c0.877,0.351,1.705,0.682,3.044,0.682
			c2.688,0,4.726-1.338,4.747-1.352c0.212-0.142,0.498-0.101,0.661,0.096l1.795,2.153c0.116,0.14,0.148,0.331,0.083,0.501
			c-0.057,0.145-5.596,14.533-6.039,20.011C16.468,23.509,15.936,24,15.307,24z"/>
	</g>
</g>
<g id="invisble_shape">
	<rect fill="none" width="24" height="24"/>
</g>
</svg>
