<?xml version="1.0" encoding="utf-8"?>
<!-- Generator: Adobe Illustrator 19.2.0, SVG Export Plug-In . SVG Version: 6.00 Build 0)  -->
<svg version="1.1" xmlns="http://www.w3.org/2000/svg" xmlns:xlink="http://www.w3.org/1999/xlink" x="0px" y="0px" width="24px"
	 height="24px" viewBox="0 0 24 24" enable-background="new 0 0 24 24" xml:space="preserve">
<g id="Filled_Icons">
	<g>
		<path d="M14,8v8h5V8H14z M17.469,10.624l-1.521,3.5c-0.082,0.189-0.267,0.301-0.459,0.301c-0.066,0-0.135-0.013-0.199-0.041
			c-0.253-0.11-0.369-0.405-0.26-0.658l1.218-2.801h-0.759c-0.276,0-0.5-0.224-0.5-0.5s0.224-0.5,0.5-0.5h1.521
			c0.169,0,0.326,0.085,0.418,0.227C17.521,10.292,17.535,10.47,17.469,10.624z"/>
		<path d="M16.395,3c-1.689-1.893-4.087-2.998-6.682-2.998C7.117,0.002,4.719,1.107,3.029,3H16.395z"/>
		<path d="M5,16V8H0v8H5z M1.957,9.925h1.521c0.169,0,0.326,0.085,0.418,0.227c0.093,0.141,0.107,0.318,0.041,0.473l-1.522,3.5
			c-0.082,0.189-0.267,0.301-0.459,0.301c-0.066,0-0.135-0.013-0.199-0.041c-0.253-0.11-0.369-0.405-0.26-0.658l1.218-2.801H1.957
			c-0.276,0-0.5-0.224-0.5-0.5S1.681,9.925,1.957,9.925z"/>
		<path d="M13,8H6v8h7V8z M9.198,14.124c-0.082,0.189-0.267,0.301-0.459,0.301c-0.066,0-0.135-0.013-0.199-0.041
			c-0.253-0.11-0.369-0.405-0.26-0.658l1.218-2.801H8.739c-0.276,0-0.5-0.224-0.5-0.5s0.224-0.5,0.5-0.5h1.521
			c0.169,0,0.326,0.085,0.418,0.227c0.093,0.141,0.107,0.318,0.041,0.473L9.198,14.124z"/>
		<path d="M19,4.5C19,4.224,18.776,4,18.5,4H18h-0.82H2.244H2H0.5C0.224,4,0,4.224,0,4.5V7h19V4.5z"/>
		<path d="M21.5,6c-1.103,0-2,0.898-2,2c0,0.93,0.64,1.705,1.5,1.929V20h-2v-3H0v6.5C0,23.776,0.224,24,0.5,24h18
			c0.276,0,0.5-0.224,0.5-0.5V21h2.5c0.276,0,0.5-0.224,0.5-0.5V9.929C22.86,9.705,23.5,8.93,23.5,8C23.5,6.898,22.603,6,21.5,6z
			 M8,21.5C8,21.776,7.776,22,7.5,22h-5C2.224,22,2,21.776,2,21.5v-2C2,19.224,2.224,19,2.5,19h5C7.776,19,8,19.224,8,19.5V21.5z"/>
	</g>
</g>
<g id="invisble_shape">
	<rect fill="none" width="24" height="24"/>
</g>
</svg>
