<?xml version="1.0" encoding="utf-8"?>
<!-- Generator: Adobe Illustrator 19.2.0, SVG Export Plug-In . SVG Version: 6.00 Build 0)  -->
<svg version="1.1" xmlns="http://www.w3.org/2000/svg" xmlns:xlink="http://www.w3.org/1999/xlink" x="0px" y="0px" width="24px"
	 height="24px" viewBox="0 0 24 24" enable-background="new 0 0 24 24" xml:space="preserve">
<g id="Filled_Icons">
	<g>
		<path d="M4.806,3h13.389l0.78-2.342C19.082,0.335,18.841,0,18.5,0h-14C4.159,0,3.918,0.335,4.025,0.658L4.806,3z"/>
		<circle cx="11.5" cy="10.5" r="1.5"/>
		<path d="M5,4v3.648c0,4.059,0.729,8.401,2,11.933v3.92C7,23.776,7.224,24,7.5,24h8c0.276,0,0.5-0.224,0.5-0.5v-3.917
			c1.271-3.533,2-7.876,2-11.934V4H5z M13.621,7.672l0.707-0.707c0.195-0.195,0.512-0.195,0.707,0c0.195,0.195,0.195,0.512,0,0.707
			l-0.707,0.707c-0.195,0.195-0.512,0.195-0.707,0C13.426,8.184,13.426,7.867,13.621,7.672z M11,6c0-0.276,0.224-0.5,0.5-0.5
			S12,5.724,12,6v1c0,0.276-0.224,0.5-0.5,0.5S11,7.276,11,7V6z M7.965,6.965c0.195-0.195,0.512-0.195,0.707,0l0.707,0.707
			c0.195,0.195,0.195,0.512,0,0.707c-0.195,0.195-0.512,0.195-0.707,0L7.965,7.672C7.769,7.477,7.769,7.16,7.965,6.965z M7,11
			c-0.276,0-0.5-0.224-0.5-0.5S6.724,10,7,10h1c0.276,0,0.5,0.224,0.5,0.5S8.276,11,8,11H7z M9,23H8v-3h1V23z M9.379,13.328
			l-0.707,0.707c-0.195,0.195-0.512,0.195-0.707,0c-0.195-0.195-0.195-0.512,0-0.707l0.707-0.707c0.195-0.195,0.512-0.195,0.707,0
			C9.574,12.816,9.574,13.133,9.379,13.328z M11,23h-1v-3h1V23z M11.5,15.5c-0.276,0-0.5-0.224-0.5-0.5v-1
			c0-0.276,0.224-0.5,0.5-0.5S12,13.724,12,14v1C12,15.276,11.776,15.5,11.5,15.5z M13,23h-1v-3h1V23z M11.5,13
			C10.121,13,9,11.879,9,10.5S10.121,8,11.5,8S14,9.121,14,10.5S12.879,13,11.5,13z M15,23h-1v-3h1V23z M15.035,14.035
			c-0.195,0.195-0.512,0.195-0.707,0l-0.707-0.707c-0.195-0.195-0.195-0.512,0-0.707c0.195-0.195,0.512-0.195,0.707,0l0.707,0.707
			C15.231,13.523,15.231,13.84,15.035,14.035z M16,11h-1c-0.276,0-0.5-0.224-0.5-0.5S14.724,10,15,10h1c0.276,0,0.5,0.224,0.5,0.5
			S16.276,11,16,11z"/>
	</g>
</g>
<g id="invisble_shape">
	<rect fill="none" width="24" height="24"/>
</g>
</svg>
