<?xml version="1.0" encoding="utf-8"?>
<!-- Generator: Adobe Illustrator 19.2.0, SVG Export Plug-In . SVG Version: 6.00 Build 0)  -->
<svg version="1.1" xmlns="http://www.w3.org/2000/svg" xmlns:xlink="http://www.w3.org/1999/xlink" x="0px" y="0px" width="24px"
	 height="24px" viewBox="0 0 24 24" enable-background="new 0 0 24 24" xml:space="preserve">
<g id="Filled_Icons">
	<g>
		<polygon points="5.577,12 17.423,12 15.953,9 7.047,9 		"/>
		<path d="M15.463,8l-3.514-7.173c-0.168-0.343-0.73-0.343-0.898,0L7.537,8H15.463z"/>
	</g>
	<path d="M22.949,23.28L17.913,13H5.087L0.051,23.28c-0.076,0.155-0.066,0.339,0.025,0.484C0.167,23.911,0.327,24,0.5,24h5.273
		L11,14.373V24h1v-9.628L17.269,24H22.5c0.173,0,0.333-0.089,0.424-0.235C23.016,23.619,23.025,23.435,22.949,23.28z"/>
</g>
<g id="invisble_shape">
	<rect fill="none" width="24" height="24"/>
</g>
</svg>
