<?xml version="1.0" encoding="utf-8"?>
<!-- Generator: Adobe Illustrator 19.2.0, SVG Export Plug-In . SVG Version: 6.00 Build 0)  -->
<svg version="1.1" xmlns="http://www.w3.org/2000/svg" xmlns:xlink="http://www.w3.org/1999/xlink" x="0px" y="0px" width="24px"
	 height="24px" viewBox="0 0 24 24" enable-background="new 0 0 24 24" xml:space="preserve">
<g id="Filled_Icons">
	<g>
		<rect x="9" y="1" width="6" height="7"/>
		<rect x="1" y="9" width="7" height="6"/>
		<circle cx="4.5" cy="4.5" r="1"/>
		<rect x="16" y="9" width="7" height="6"/>
		<rect x="9" y="16" width="6" height="7"/>
		<path d="M16,8h7V1.5C23,1.224,22.776,1,22.5,1H16V8z"/>
		<path d="M9,9v6h6V9H9z M13.822,13.822c-0.098,0.098-0.226,0.146-0.354,0.146c-0.128,0-0.256-0.049-0.354-0.146L12,12.707
			l-1.115,1.115c-0.098,0.098-0.226,0.146-0.354,0.146c-0.128,0-0.256-0.049-0.354-0.146c-0.195-0.195-0.195-0.512,0-0.707
			L11.293,12l-1.115-1.115c-0.195-0.195-0.195-0.512,0-0.707s0.512-0.195,0.707,0L12,11.293l1.115-1.115
			c0.195-0.195,0.512-0.195,0.707,0s0.195,0.512,0,0.707L12.707,12l1.115,1.115C14.018,13.311,14.018,13.627,13.822,13.822z"/>
		<path d="M16,16v7h6.5c0.276,0,0.5-0.224,0.5-0.5V16H16z M19.5,21.5c-1.103,0-2-0.897-2-2s0.897-2,2-2s2,0.897,2,2
			S20.603,21.5,19.5,21.5z"/>
		<path d="M8,16H1v6.5C1,22.776,1.224,23,1.5,23H8V16z"/>
		<circle cx="19.5" cy="19.5" r="1"/>
		<path d="M8,8V1H1.5C1.224,1,1,1.224,1,1.5V8H8z M4.5,2.5c1.102,0,2,0.898,2,2s-0.898,2-2,2s-2-0.898-2-2S3.398,2.5,4.5,2.5z"/>
	</g>
</g>
<g id="invisble_shape">
	<rect fill="none" width="24" height="24"/>
</g>
</svg>
