<?xml version="1.0" encoding="utf-8"?>
<!-- Generator: Adobe Illustrator 19.2.0, SVG Export Plug-In . SVG Version: 6.00 Build 0)  -->
<svg version="1.1" xmlns="http://www.w3.org/2000/svg" xmlns:xlink="http://www.w3.org/1999/xlink" x="0px" y="0px" width="24px"
	 height="24px" viewBox="0 0 24 24" enable-background="new 0 0 24 24" xml:space="preserve">
<g id="Filled_Icons">
	<g>
		<rect x="7" y="17" width="10" height="2"/>
		<rect x="7" y="5" width="10" height="2"/>
		<path d="M7,16h10V8H7V16z M9,9.5C9,9.224,9.224,9,9.5,9C9.775,9,10,9.224,10,9.5v5c0,0.276-0.225,0.5-0.5,0.5
			C9.224,15,9,14.776,9,14.5V9.5z"/>
		<path d="M17.5,0H14c-0.276,0-0.5,0.224-0.5,0.5C13.5,1.327,12.826,2,12,2c-0.827,0-1.5-0.673-1.5-1.5C10.5,0.224,10.275,0,10,0
			H6.5C5.121,0,4,1.121,4,2.5v19C4,22.878,5.121,24,6.5,24H10c0.275,0,0.5-0.224,0.5-0.5c0-0.827,0.673-1.5,1.5-1.5
			c0.826,0,1.5,0.673,1.5,1.5c0,0.276,0.224,0.5,0.5,0.5h3.5c1.378,0,2.5-1.122,2.5-2.5v-19C20,1.121,18.878,0,17.5,0z M18,19.5
			c0,0.276-0.225,0.5-0.5,0.5h-11C6.224,20,6,19.776,6,19.5v-15C6,4.224,6.224,4,6.5,4h11C17.775,4,18,4.224,18,4.5V19.5z"/>
	</g>
</g>
<g id="invisble_shape">
	<rect fill="none" width="24" height="24"/>
</g>
</svg>
