<?xml version="1.0" encoding="utf-8"?>
<!-- Generator: Adobe Illustrator 19.2.0, SVG Export Plug-In . SVG Version: 6.00 Build 0)  -->
<svg version="1.1" xmlns="http://www.w3.org/2000/svg" xmlns:xlink="http://www.w3.org/1999/xlink" x="0px" y="0px" width="24px"
	 height="24px" viewBox="0 0 24 24" enable-background="new 0 0 24 24" xml:space="preserve">
<g id="Filled_Icons">
	<g>
		<path d="M7,16h8V8H7V16z M9.5,10h3c0.275,0,0.5,0.224,0.5,0.5S12.775,11,12.5,11h-3C9.224,11,9,10.776,9,10.5S9.224,10,9.5,10z
			 M9.5,13h3c0.275,0,0.5,0.224,0.5,0.5S12.775,14,12.5,14h-3C9.224,14,9,13.776,9,13.5S9.224,13,9.5,13z"/>
		<path d="M23.5,9.5C23.775,9.5,24,9.276,24,9V4.5C24,4.224,23.775,4,23.5,4h-23C0.224,4,0,4.224,0,4.5V9c0,0.276,0.224,0.5,0.5,0.5
			C1.878,9.5,3,10.621,3,12c0,1.378-1.122,2.5-2.5,2.5C0.224,14.5,0,14.724,0,15v4.5C0,19.776,0.224,20,0.5,20h23
			c0.275,0,0.5-0.224,0.5-0.5V15c0-0.276-0.225-0.5-0.5-0.5c-1.379,0-2.5-1.122-2.5-2.5C21,10.621,22.121,9.5,23.5,9.5z M16,16.5
			c0,0.276-0.225,0.5-0.5,0.5h-9C6.224,17,6,16.776,6,16.5v-9C6,7.224,6.224,7,6.5,7h9C15.775,7,16,7.224,16,7.5V16.5z M19,19h-1v-1
			h1V19z M19,17h-1v-1h1V17z M19,15h-1v-1h1V15z M19,13h-1v-1h1V13z M19,11h-1v-1h1V11z M19,9h-1V8h1V9z M19,7h-1V6h1V7z"/>
	</g>
</g>
<g id="invisble_shape">
	<rect fill="none" width="24" height="24"/>
</g>
</svg>
