<?xml version="1.0" encoding="utf-8"?>
<!-- Generator: Adobe Illustrator 19.2.0, SVG Export Plug-In . SVG Version: 6.00 Build 0)  -->
<svg version="1.1" xmlns="http://www.w3.org/2000/svg" xmlns:xlink="http://www.w3.org/1999/xlink" x="0px" y="0px" width="24px"
	 height="24px" viewBox="0 0 24 24" enable-background="new 0 0 24 24" xml:space="preserve">
<g id="Filled_Icons">
	<g>
		<path d="M20,7h2c0.276,0,0.5-0.224,0.5-0.5S22.276,6,22,6h-2c-0.276,0-0.5,0.224-0.5,0.5S19.724,7,20,7z"/>
		<path d="M12,2H4.5C2.019,2,0,4.019,0,6.5C0,7.918,0.665,9.176,1.693,10H12V2z"/>
		<path d="M18.89,8.331C18.961,8.242,19,8.131,19,8.018V5c0-0.113-0.039-0.224-0.109-0.313C17.61,3.089,16.158,2,13.856,2H13v8h4
			C17.53,10,18.557,8.744,18.89,8.331z"/>
		<path d="M21.5,10h-2c-0.276,0-0.5,0.224-0.5,0.5V12h-3v-1H2v3.5C2,14.776,2.224,15,2.5,15h10.516
			c0.047,0.638,0.242,1.723,1.001,2.526c0.609,0.646,1.445,0.974,2.483,0.974c0.276,0,0.5-0.224,0.5-0.5s-0.224-0.5-0.5-0.5
			c-0.75,0-1.34-0.221-1.753-0.655C14.223,16.291,14.064,15.5,14.018,15H15.5c0.276,0,0.5-0.224,0.5-0.5V13h3v1.5
			c0,0.276,0.224,0.5,0.5,0.5h2c1.379,0,2.5-1.121,2.5-2.5C24,11.122,22.879,10,21.5,10z"/>
		<path d="M3.04,21.304c-0.065,0.154-0.05,0.331,0.043,0.472C3.175,21.916,3.332,22,3.5,22h6c0.2,0,0.381-0.119,0.46-0.303
			L12.401,16H5.313L3.04,21.304z"/>
	</g>
</g>
<g id="invisble_shape">
	<rect fill="none" width="24" height="24"/>
</g>
</svg>
