<?xml version="1.0" encoding="utf-8"?>
<!-- Generator: Adobe Illustrator 19.2.1, SVG Export Plug-In . SVG Version: 6.00 Build 0)  -->
<svg version="1.1" xmlns="http://www.w3.org/2000/svg" xmlns:xlink="http://www.w3.org/1999/xlink" x="0px" y="0px" width="24px"
	 height="24px" viewBox="0 0 24 24" enable-background="new 0 0 24 24" xml:space="preserve">
<g id="Filled_Icon">
	<g>
		<path d="M13,9h-3v2h3c0.552,0,1-0.449,1-1C14,9.449,13.552,9,13,9z"/>
		<path d="M13,12h-3v2h3c0.552,0,1-0.449,1-1C14,12.449,13.552,12,13,12z"/>
		<path d="M23.5,12c0.276,0,0.5-0.224,0.5-0.5S23.776,11,23.5,11H20V8h3.5C23.776,8,24,7.776,24,7.5S23.776,7,23.5,7H20V5.5
			C20,4.673,19.327,4,18.5,4H17V0.5C17,0.224,16.776,0,16.5,0S16,0.224,16,0.5V4h-4V0.5C12,0.224,11.776,0,11.5,0S11,0.224,11,0.5V4
			H8V0.5C8,0.224,7.776,0,7.5,0S7,0.224,7,0.5V4H5.5C4.673,4,4,4.673,4,5.5V7H0.5C0.224,7,0,7.224,0,7.5S0.224,8,0.5,8H4v4H0.5
			C0.224,12,0,12.224,0,12.5S0.224,13,0.5,13H4v3H0.5C0.224,16,0,16.224,0,16.5S0.224,17,0.5,17H4v1.5C4,19.327,4.673,20,5.5,20H7
			v3.5C7,23.776,7.224,24,7.5,24S8,23.776,8,23.5V20h4v3.5c0,0.276,0.224,0.5,0.5,0.5s0.5-0.224,0.5-0.5V20h3v3.5
			c0,0.276,0.224,0.5,0.5,0.5s0.5-0.224,0.5-0.5V20h1.5c0.827,0,1.5-0.673,1.5-1.5V17h3.5c0.276,0,0.5-0.224,0.5-0.5
			S23.776,16,23.5,16H20v-4H23.5z M15,13c0,1.102-0.898,2-2,2v1c0,0.276-0.224,0.5-0.5,0.5S12,16.276,12,16v-1h-1v1
			c0,0.276-0.224,0.5-0.5,0.5S10,16.276,10,16v-1H9.5C9.224,15,9,14.776,9,14.5v-3v-3C9,8.224,9.224,8,9.5,8H10V7
			c0-0.276,0.224-0.5,0.5-0.5S11,6.724,11,7v1h1V7c0-0.276,0.224-0.5,0.5-0.5S13,6.724,13,7v1c1.102,0,2,0.896,2,2
			c0,0.6-0.271,1.133-0.691,1.5C14.729,11.867,15,12.4,15,13z"/>
	</g>
</g>
<g id="Invisible_Shape">
	<rect fill="none" width="24" height="24"/>
</g>
</svg>
