<?xml version="1.0" encoding="utf-8"?>
<!-- Generator: Adobe Illustrator 19.2.1, SVG Export Plug-In . SVG Version: 6.00 Build 0)  -->
<svg version="1.1" xmlns="http://www.w3.org/2000/svg" xmlns:xlink="http://www.w3.org/1999/xlink" x="0px" y="0px" width="24px"
	 height="24px" viewBox="0 0 24 24" enable-background="new 0 0 24 24" xml:space="preserve">
<g id="Filled_Icon">
	<g>
		<g>
			<path d="M14.065,4.46c-0.964-1.791-2.026-3.101-2.565-3.714C10.961,1.359,9.898,2.669,8.935,4.46
				C10.576,3.861,12.346,3.832,14.065,4.46z"/>
			<path d="M0.025,11h4c0.131-1.975,1.021-3.736,2.388-5H1.404C0.586,7.496,0.104,9.196,0.025,11z"/>
			<path d="M8.935,18.54c0.964,1.791,2.026,3.102,2.565,3.714c0.539-0.612,1.602-1.923,2.565-3.714
				C12.424,19.14,10.654,19.168,8.935,18.54z"/>
			<path d="M22.975,12h-4c-0.099,1.497-0.635,2.871-1.484,4h4.591C22.609,14.763,22.913,13.413,22.975,12z"/>
			<path d="M4.025,12h-4c0.062,1.413,0.365,2.763,0.894,4H5.51C4.66,14.871,4.124,13.497,4.025,12z"/>
			<path d="M7.443,17.803C7.076,17.565,6.732,17.296,6.413,17H1.404c1.846,3.375,5.336,5.715,9.384,5.964
				C10.102,22.2,8.59,20.348,7.443,17.803z"/>
			<path d="M7.53,5c1.135-2.445,2.59-4.219,3.258-4.964C7.154,0.261,3.971,2.168,2.023,5H7.53z"/>
			<path d="M16.587,17c-0.319,0.296-0.663,0.565-1.03,0.803c-1.146,2.545-2.659,4.397-3.345,5.161
				c4.048-0.249,7.538-2.589,9.384-5.964H16.587z"/>
			<path d="M15.47,5h5.508c-1.948-2.832-5.132-4.739-8.766-4.964C12.88,0.781,14.335,2.555,15.47,5z"/>
			<path d="M16.587,6c1.366,1.264,2.257,3.025,2.388,5h4c-0.078-1.804-0.56-3.504-1.379-5H16.587z"/>
		</g>
		<g>
			<path d="M13,8V6.521c0-0.276-0.224-0.5-0.5-0.5S12,6.244,12,6.521V8h-1V6.521c0-0.276-0.224-0.5-0.5-0.5S10,6.244,10,6.521V8H9.5
				C9.224,8,9,8.224,9,8.5v3v3C9,14.776,9.224,15,9.5,15H10v1.5c0,0.276,0.224,0.5,0.5,0.5s0.5-0.224,0.5-0.5V15h1v1.5
				c0,0.276,0.224,0.5,0.5,0.5s0.5-0.224,0.5-0.5V15c1.102,0,2-0.898,2-2c0-0.6-0.271-1.133-0.691-1.5C14.729,11.133,15,10.6,15,10
				C15,8.896,14.102,8,13,8z M13,14h-3v-2h3c0.552,0,1,0.449,1,1C14,13.551,13.552,14,13,14z M13,11h-3V9h3c0.552,0,1,0.449,1,1
				C14,10.551,13.552,11,13,11z"/>
		</g>
	</g>
</g>
<g id="Invisible_Shape">
	<rect fill="none" width="24" height="24"/>
</g>
</svg>
