<?xml version="1.0" encoding="utf-8"?>
<!-- Generator: Adobe Illustrator 19.2.1, SVG Export Plug-In . SVG Version: 6.00 Build 0)  -->
<svg version="1.1" xmlns="http://www.w3.org/2000/svg" xmlns:xlink="http://www.w3.org/1999/xlink" x="0px" y="0px" width="24px"
	 height="24px" viewBox="0 0 24 24" enable-background="new 0 0 24 24" xml:space="preserve">
<g id="Filled_Icon">
	<g>
		<g>
			<path d="M14,11c0-0.552-0.448-1-1-1h-3v2h3C13.552,12,14,11.552,14,11z"/>
			<path d="M14,8c0-0.552-0.448-1-1-1h-3v2h3C13.552,9,14,8.552,14,8z"/>
			<path d="M9.5,16c0.653,0,1.209,0.418,1.415,1h2.17c0.206-0.582,0.762-1,1.415-1H23V5c0-1.103-0.897-2-2-2H3C1.898,3,1,3.897,1,5
				v11H9.5z M9,9.5v-3C9,6.224,9.224,6,9.5,6H10V4.521c0-0.276,0.224-0.5,0.5-0.5s0.5,0.224,0.5,0.5V6h1V4.521
				c0-0.276,0.224-0.5,0.5-0.5s0.5,0.224,0.5,0.5V6c1.102,0,2,0.897,2,2c0,0.6-0.271,1.133-0.691,1.5C14.729,9.867,15,10.4,15,11
				c0,1.102-0.898,2-2,2v1.5c0,0.276-0.224,0.5-0.5,0.5S12,14.776,12,14.5V13h-1v1.5c0,0.276-0.224,0.5-0.5,0.5S10,14.776,10,14.5
				V13H9.5C9.224,13,9,12.776,9,12.5V9.5z"/>
		</g>
		<path d="M23.5,17h-9c-0.276,0-0.5,0.224-0.5,0.5V18h-4v-0.5c0-0.276-0.224-0.5-0.5-0.5h-9C0.224,17,0,17.224,0,17.5v2
			C0,20.327,0.673,21,1.5,21h21c0.827,0,1.5-0.673,1.5-1.5v-2C24,17.224,23.776,17,23.5,17z"/>
	</g>
</g>
<g id="Invisible_Shape">
	<rect fill="none" width="24" height="24"/>
</g>
</svg>
