<?xml version="1.0" encoding="utf-8"?>
<!-- Generator: Adobe Illustrator 19.2.1, SVG Export Plug-In . SVG Version: 6.00 Build 0)  -->
<svg version="1.1" xmlns="http://www.w3.org/2000/svg" xmlns:xlink="http://www.w3.org/1999/xlink" x="0px" y="0px" width="24px"
	 height="24px" viewBox="0 0 24 24" enable-background="new 0 0 24 24" xml:space="preserve">
<g id="Filled_Icon">
	<g>
		<path d="M24,7V4.5C24,3.122,22.879,2,21.5,2h-19C1.121,2,0,3.122,0,4.5V7H24z M10,4c0.552,0,1,0.449,1,1c0,0.551-0.448,1-1,1
			S9,5.551,9,5C9,4.449,9.448,4,10,4z M7,4c0.552,0,1,0.449,1,1c0,0.551-0.448,1-1,1S6,5.551,6,5C6,4.449,6.448,4,7,4z M4,4
			c0.552,0,1,0.449,1,1c0,0.551-0.448,1-1,1S3,5.551,3,5C3,4.449,3.448,4,4,4z"/>
		<g>
			<path d="M13,12h-3v2h3c0.552,0,1-0.449,1-1C14,12.449,13.552,12,13,12z"/>
			<path d="M0,8v11.5C0,20.878,1.121,22,2.5,22h19c1.379,0,2.5-1.122,2.5-2.5V8H0z M15,16c0,1.103-0.898,2-2,2v1.5
				c0,0.276-0.224,0.5-0.5,0.5S12,19.776,12,19.5V18h-1v1.5c0,0.276-0.224,0.5-0.5,0.5S10,19.776,10,19.5V18H9.5
				C9.224,18,9,17.776,9,17.5c0-2.171,0-3.829,0-6C9,11.224,9.224,11,9.5,11H10V9.521c0-0.276,0.224-0.5,0.5-0.5s0.5,0.224,0.5,0.5
				V11h1V9.521c0-0.276,0.224-0.5,0.5-0.5s0.5,0.224,0.5,0.5V11c1.102,0,2,0.896,2,2c0,0.6-0.271,1.133-0.691,1.5
				C14.729,14.867,15,15.4,15,16z"/>
			<path d="M13,15h-3v2h3c0.552,0,1-0.449,1-1C14,15.449,13.552,15,13,15z"/>
		</g>
	</g>
</g>
<g id="Invisible_Shape">
	<rect fill="none" width="24" height="24"/>
</g>
</svg>
