<?xml version="1.0" encoding="utf-8"?>
<!-- Generator: Adobe Illustrator 19.2.1, SVG Export Plug-In . SVG Version: 6.00 Build 0)  -->
<svg version="1.1" xmlns="http://www.w3.org/2000/svg" xmlns:xlink="http://www.w3.org/1999/xlink" x="0px" y="0px" width="24px"
	 height="24px" viewBox="0 0 24 24" enable-background="new 0 0 24 24" xml:space="preserve">
<g id="Filled_Icon">
	<g>
		<path d="M3.5,13.977c0.276,0,0.5-0.223,0.5-0.5V13h7v0.477c0,0.277,0.224,0.5,0.5,0.5s0.5-0.223,0.5-0.5V13h7v0.477
			c0,0.277,0.224,0.5,0.5,0.5s0.5-0.223,0.5-0.5V12.5c0-0.276-0.224-0.5-0.5-0.5H12v-1h4c0.276,0,0.5-0.224,0.5-0.5
			c0-2.086-1.286-3.873-3.104-4.621c0.816-0.592,1.354-1.546,1.354-2.629C14.75,1.458,13.292,0,11.5,0S8.25,1.458,8.25,3.25
			c0,1.083,0.538,2.037,1.354,2.629C7.786,6.627,6.5,8.414,6.5,10.5C6.5,10.776,6.724,11,7,11h4v1H3.5C3.224,12,3,12.224,3,12.5
			v0.977C3,13.754,3.224,13.977,3.5,13.977z"/>
		<path d="M3.5,17c0.552,0,1,0.449,1,1c0,0.276,0.224,0.5,0.5,0.5s0.5-0.224,0.5-0.5c0-0.929-0.64-1.706-1.5-1.929V15.5
			C4,15.224,3.776,15,3.5,15S3,15.224,3,15.5v0.571c-0.86,0.224-1.5,1-1.5,1.929c0,1.103,0.898,2,2,2c0.552,0,1,0.449,1,1
			c0,0.551-0.448,1-1,1s-1-0.449-1-1c0-0.276-0.224-0.5-0.5-0.5S1.5,20.724,1.5,21c0,0.929,0.64,1.706,1.5,1.929V23.5
			C3,23.776,3.224,24,3.5,24S4,23.776,4,23.5v-0.571c0.86-0.223,1.5-1,1.5-1.929c0-1.104-0.898-2-2-2c-0.552,0-1-0.449-1-1
			C2.5,17.449,2.948,17,3.5,17z"/>
		<path d="M13.084,16.224L11.5,18.6l-1.584-2.376c-0.154-0.232-0.466-0.292-0.693-0.14c-0.229,0.153-0.292,0.463-0.139,0.693
			L11,19.652V20h-0.5c-0.276,0-0.5,0.224-0.5,0.5s0.224,0.5,0.5,0.5H11v0.5h-0.5c-0.276,0-0.5,0.224-0.5,0.5s0.224,0.5,0.5,0.5H11v1
			c0,0.276,0.224,0.5,0.5,0.5s0.5-0.224,0.5-0.5v-1h0.5c0.276,0,0.5-0.224,0.5-0.5s-0.224-0.5-0.5-0.5H12V21h0.5
			c0.276,0,0.5-0.224,0.5-0.5S12.776,20,12.5,20H12v-0.348l1.916-2.875c0.153-0.23,0.091-0.54-0.139-0.693
			C13.55,15.932,13.238,15.992,13.084,16.224z"/>
		<path d="M21,23h-2.449C18.827,22.584,19,22.115,19,21.75V21h2c0.276,0,0.5-0.224,0.5-0.5S21.276,20,21,20h-2v-2.334
			C19,17.292,19.284,17,19.646,17c0.362,0,0.646,0.292,0.646,0.666c0,0.276,0.224,0.5,0.5,0.5s0.5-0.224,0.5-0.5
			c0-0.918-0.738-1.666-1.646-1.666C18.738,16,18,16.748,18,17.666V20h-1.5c-0.276,0-0.5,0.224-0.5,0.5s0.224,0.5,0.5,0.5H18v0.75
			c0,0.452-0.633,1.25-0.917,1.25c-0.276,0-0.5,0.224-0.5,0.5s0.224,0.5,0.5,0.5H21c0.276,0,0.5-0.224,0.5-0.5S21.276,23,21,23z"/>
	</g>
</g>
<g id="Invisible_Shape">
	<rect fill="none" width="24" height="24"/>
</g>
</svg>
