<?xml version="1.0" encoding="utf-8"?>
<!-- Generator: Adobe Illustrator 19.2.1, SVG Export Plug-In . SVG Version: 6.00 Build 0)  -->
<svg version="1.1" xmlns="http://www.w3.org/2000/svg" xmlns:xlink="http://www.w3.org/1999/xlink" x="0px" y="0px" width="24px"
	 height="24px" viewBox="0 0 24 24" enable-background="new 0 0 24 24" xml:space="preserve">
<g id="Filled_Icon">
	<g>
		<path d="M9.5,9c0,0.929,0.64,1.705,1.5,1.929V7.071C10.14,7.295,9.5,8.071,9.5,9z"/>
		<path d="M12,15.929c0.86-0.224,1.5-1,1.5-1.929s-0.64-1.705-1.5-1.929V15.929z"/>
		<path d="M11.5,0C5.159,0,0,5.159,0,11.5C0,17.841,5.159,23,11.5,23S23,17.841,23,11.5C23,5.159,17.841,0,11.5,0z M14.5,14
			c0,1.483-1.084,2.71-2.5,2.949V18c0,0.276-0.224,0.5-0.5,0.5S11,18.276,11,18v-1.051C9.584,16.71,8.5,15.483,8.5,14
			c0-0.276,0.224-0.5,0.5-0.5s0.5,0.224,0.5,0.5c0,0.929,0.64,1.705,1.5,1.929v-3.98C9.584,11.71,8.5,10.483,8.5,9
			S9.584,6.29,11,6.051V5c0-0.276,0.224-0.5,0.5-0.5S12,4.724,12,5v1.051C13.416,6.29,14.5,7.517,14.5,9c0,0.276-0.224,0.5-0.5,0.5
			S13.5,9.276,13.5,9c0-0.929-0.64-1.705-1.5-1.929v3.98C13.416,11.29,14.5,12.517,14.5,14z"/>
	</g>
</g>
<g id="Invisible_Shape">
	<rect fill="none" width="24" height="24"/>
</g>
</svg>
