<?xml version="1.0" encoding="utf-8"?>
<!-- Generator: Adobe Illustrator 19.2.1, SVG Export Plug-In . SVG Version: 6.00 Build 0)  -->
<svg version="1.1" xmlns="http://www.w3.org/2000/svg" xmlns:xlink="http://www.w3.org/1999/xlink" x="0px" y="0px" width="24px"
	 height="24px" viewBox="0 0 24 24" enable-background="new 0 0 24 24" xml:space="preserve">
<g id="Filled_Icon">
	<path d="M21,7.422V5.5C21,5.224,20.776,5,20.5,5h-17C3.224,5,3,5.224,3,5.5v1.922C1.191,8.212,0,10.009,0,12
		c0,1.991,1.191,3.788,3,4.579V18.5C3,18.776,3.224,19,3.5,19h17c0.276,0,0.5-0.224,0.5-0.5v-1.921c1.808-0.79,3-2.587,3-4.579
		C24,10.009,22.808,8.212,21,7.422z M12,11.5c1.102,0,2,0.898,2,2c0,0.929-0.641,1.705-1.5,1.929V16c0,0.276-0.224,0.5-0.5,0.5
		s-0.5-0.224-0.5-0.5v-0.571c-0.86-0.224-1.5-1-1.5-1.929c0-0.276,0.224-0.5,0.5-0.5s0.5,0.224,0.5,0.5c0,0.551,0.448,1,1,1
		c0.551,0,1-0.449,1-1c0-0.551-0.449-1-1-1c-1.104,0-2-0.898-2-2c0-0.929,0.64-1.705,1.5-1.929V8c0-0.276,0.224-0.5,0.5-0.5
		s0.5,0.224,0.5,0.5v0.571c0.859,0.224,1.5,1,1.5,1.929c0,0.276-0.224,0.5-0.5,0.5S13,10.776,13,10.5c0-0.551-0.449-1-1-1
		c-0.552,0-1,0.449-1,1C11,11.051,11.448,11.5,12,11.5z"/>
</g>
<g id="Invisible_Shape">
	<rect fill="none" width="24" height="24"/>
</g>
</svg>
