<?xml version="1.0" encoding="utf-8"?>
<!-- Generator: Adobe Illustrator 19.2.1, SVG Export Plug-In . SVG Version: 6.00 Build 0)  -->
<svg version="1.1" xmlns="http://www.w3.org/2000/svg" xmlns:xlink="http://www.w3.org/1999/xlink" x="0px" y="0px" width="24px"
	 height="24px" viewBox="0 0 24 24" enable-background="new 0 0 24 24" xml:space="preserve">
<g id="Filled_Icon">
	<g>
		<path d="M8,16.09c0.699-0.215,1.212-0.859,1.212-1.628c0-0.768-0.513-1.413-1.212-1.629V16.09z"/>
		<path d="M5.789,10.038c0,0.769,0.513,1.414,1.211,1.629V8.41C6.302,8.626,5.789,9.269,5.789,10.038z"/>
		<path d="M18.145,2.124c-0.03-0.022-0.066-0.028-0.101-0.042L15.912,7h3.427l-7.187,8.261L14.459,9h-2.736l3.523-8.363
			c-0.005-0.002-0.008-0.005-0.012-0.006C14.016,0.212,12.759,0,11.5,0C5.159,0,0,5.159,0,11.5C0,17.841,5.159,23,11.5,23
			S23,17.841,23,11.5C23,7.788,21.185,4.283,18.145,2.124z M10.212,14.462c0,1.323-0.955,2.425-2.212,2.66V18
			c0,0.276-0.224,0.5-0.5,0.5S7,18.276,7,18v-0.878c-1.257-0.235-2.211-1.337-2.211-2.66c0-0.276,0.224-0.5,0.5-0.5
			c0.276,0,0.5,0.224,0.5,0.5c0,0.769,0.513,1.412,1.211,1.628v-3.391c-1.257-0.235-2.211-1.338-2.211-2.662S5.743,7.613,7,7.378
			V6.5C7,6.224,7.224,6,7.5,6S8,6.224,8,6.5v0.878c1.257,0.235,2.212,1.336,2.212,2.66c0,0.276-0.224,0.5-0.5,0.5
			c-0.276,0-0.5-0.224-0.5-0.5C9.212,9.269,8.699,8.626,8,8.41v3.391C9.257,12.036,10.212,13.138,10.212,14.462z"/>
	</g>
</g>
<g id="Invisible_Shape">
	<rect fill="none" width="24" height="24"/>
</g>
</svg>
