<?xml version="1.0" encoding="utf-8"?>
<!-- Generator: Adobe Illustrator 19.2.1, SVG Export Plug-In . SVG Version: 6.00 Build 0)  -->
<svg version="1.1" xmlns="http://www.w3.org/2000/svg" xmlns:xlink="http://www.w3.org/1999/xlink" x="0px" y="0px" width="24px"
	 height="24px" viewBox="0 0 24 24" enable-background="new 0 0 24 24" xml:space="preserve">
<g id="Filled_Icon">
	<g>
		<path d="M23.5,19.024c-0.276,0-0.5,0.224-0.5,0.5v2.828l-6.659-6.188c-0.183-0.169-0.46-0.179-0.653-0.024l-4.671,3.737
			l-8.685-7.72c-0.206-0.184-0.523-0.166-0.706,0.042c-0.184,0.206-0.164,0.523,0.042,0.706l9,8
			c0.183,0.162,0.454,0.169,0.644,0.017l4.663-3.731L22.227,23h-2.664c-0.276,0-0.5,0.224-0.5,0.5s0.224,0.5,0.5,0.5H23.5
			c0.226,0,0.445-0.15,0.487-0.435C23.99,23.543,24,23.523,24,23.5v-3.976C24,19.248,23.776,19.024,23.5,19.024z"/>
		<path d="M15,0c-4.963,0-9,4.038-9,9c0,4.018,2.646,7.427,6.287,8.58l2.775-2.22c0.581-0.464,1.413-0.435,1.959,0.072l1.822,1.693
			C21.887,15.681,24,12.586,24,9C24,4.038,19.963,0,15,0z M15,8.033c1.213,0,2.2,0.987,2.2,2.201c0,1.04-0.728,1.909-1.7,2.137
			v0.695c0,0.276-0.224,0.5-0.5,0.5s-0.5-0.224-0.5-0.5v-0.695c-0.972-0.227-1.699-1.097-1.699-2.137c0-0.276,0.224-0.5,0.5-0.5
			c0.276,0,0.5,0.224,0.5,0.5c0,0.661,0.538,1.199,1.199,1.199c0.662,0,1.2-0.538,1.2-1.199c0-0.662-0.538-1.201-1.2-1.201
			c-1.213,0-2.199-0.986-2.199-2.199c0-1.04,0.727-1.909,1.699-2.137V4c0-0.276,0.224-0.5,0.5-0.5s0.5,0.224,0.5,0.5v0.697
			c0.972,0.227,1.7,1.097,1.7,2.137c0,0.276-0.224,0.5-0.5,0.5c-0.276,0-0.5-0.224-0.5-0.5c0-0.661-0.538-1.199-1.2-1.199
			c-0.661,0-1.199,0.538-1.199,1.199S14.339,8.033,15,8.033z"/>
	</g>
</g>
<g id="Invisible_Shape">
	<rect fill="none" width="24" height="24"/>
</g>
</svg>
