<?xml version="1.0" encoding="utf-8"?>
<!-- Generator: Adobe Illustrator 19.2.1, SVG Export Plug-In . SVG Version: 6.00 Build 0)  -->
<svg version="1.1" xmlns="http://www.w3.org/2000/svg" xmlns:xlink="http://www.w3.org/1999/xlink" x="0px" y="0px" width="24px"
	 height="24px" viewBox="0 0 24 24" enable-background="new 0 0 24 24" xml:space="preserve">
<g id="Filled_Icon">
	<path d="M13,11.096V4.163c1.44,0.434,2.5,1.757,2.5,3.337c0,0.552,0.447,1,1,1s1-0.448,1-1c0-2.69-1.944-4.932-4.5-5.404V1
		c0-0.552-0.447-1-1-1s-1,0.448-1,1v1.096C8.444,2.568,6.5,4.81,6.5,7.5c0,2.691,1.944,4.932,4.5,5.404v6.933
		C9.56,19.403,8.5,18.08,8.5,16.5c0-0.552-0.447-1-1-1s-1,0.448-1,1c0,2.691,1.944,4.932,4.5,5.404V23c0,0.552,0.447,1,1,1
		s1-0.448,1-1v-1.096c2.556-0.472,4.5-2.713,4.5-5.404C17.5,13.81,15.556,11.568,13,11.096z M8.5,7.5c0-1.58,1.06-2.903,2.5-3.337
		v6.674C9.56,10.403,8.5,9.08,8.5,7.5z M13,19.837v-6.674c1.44,0.434,2.5,1.757,2.5,3.337S14.44,19.403,13,19.837z"/>
</g>
<g id="Invisible_Shape">
	<rect fill="none" width="24" height="24"/>
</g>
</svg>
