<?xml version="1.0" encoding="utf-8"?>
<!-- Generator: Adobe Illustrator 19.2.1, SVG Export Plug-In . SVG Version: 6.00 Build 0)  -->
<svg version="1.1" xmlns="http://www.w3.org/2000/svg" xmlns:xlink="http://www.w3.org/1999/xlink" x="0px" y="0px" width="24px"
	 height="24px" viewBox="0 0 24 24" enable-background="new 0 0 24 24" xml:space="preserve">
<g id="Filled_Icon">
	<path d="M21,7.422V5.5C21,5.224,20.775,5,20.5,5h-17C3.224,5,3,5.224,3,5.5v1.922C1.191,8.212,0,10.009,0,12s1.191,3.788,3,4.578
		V18.5C3,18.775,3.224,19,3.5,19h17c0.275,0,0.5-0.225,0.5-0.5v-1.922c1.808-0.79,3-2.587,3-4.578S22.808,8.212,21,7.422z M13.5,10
		c0.275,0,0.5,0.224,0.5,0.5c0,0.275-0.225,0.5-0.5,0.5h-2.455c-0.061,0.361-0.059,0.648,0,1H13.5c0.275,0,0.5,0.224,0.5,0.5
		c0,0.275-0.225,0.5-0.5,0.5h-2.095c0.519,0.894,1.487,1.5,2.595,1.5c0.275,0,0.5,0.224,0.5,0.5c0,0.275-0.225,0.5-0.5,0.5
		c-1.676,0-3.111-1.036-3.706-2.5H9.5C9.224,13,9,12.775,9,12.5C9,12.224,9.224,12,9.5,12h0.534c-0.046-0.368-0.045-0.641,0-1H9.5
		C9.224,11,9,10.775,9,10.5C9,10.224,9.224,10,9.5,10h0.794c0.595-1.464,2.03-2.5,3.706-2.5c0.275,0,0.5,0.224,0.5,0.5
		c0,0.275-0.225,0.5-0.5,0.5c-1.107,0-2.075,0.604-2.595,1.5H13.5z"/>
</g>
<g id="Invisible_Shape">
	<rect fill="none" width="24" height="24"/>
</g>
</svg>
