<?xml version="1.0" encoding="utf-8"?>
<!-- Generator: Adobe Illustrator 19.2.1, SVG Export Plug-In . SVG Version: 6.00 Build 0)  -->
<svg version="1.1" xmlns="http://www.w3.org/2000/svg" xmlns:xlink="http://www.w3.org/1999/xlink" x="0px" y="0px" width="24px"
	 height="24px" viewBox="0 0 24 24" enable-background="new 0 0 24 24" xml:space="preserve">
<g id="Filled_Icon">
	<g>
		<path d="M23.5,19c-2.698,0-5.017-1.653-5.998-4h4.039c0.276,0,0.5-0.224,0.5-0.5s-0.224-0.5-0.5-0.5h-4.359
			c-0.199-0.84-0.195-1.334-0.158-2h4.518c0.276,0.04,0.5-0.184,0.5-0.46c0-0.276-0.224-0.5-0.5-0.5h-4.369
			C17.837,8.158,20.419,6,23.5,6C23.776,6,24,5.776,24,5.5S23.776,5,23.5,5c-3.636,0-6.674,2.602-7.355,6.04h-1.52
			c-0.276,0-0.5,0.224-0.5,0.5c0,0.276,0.224,0.5,0.5,0.46h1.398c-0.033,0.662-0.042,1.168,0.128,2h-1.526
			c-0.276,0-0.5,0.224-0.5,0.5s0.224,0.5,0.5,0.5h1.812c1.033,2.908,3.805,5,7.062,5c0.276,0,0.5-0.224,0.5-0.5S23.776,19,23.5,19z"
			/>
		<g>
			<path d="M0.051,11h6.498c0.082-1.449,0.318-2.789,0.688-4H1.105C0.535,8.236,0.169,9.582,0.051,11z"/>
			<path d="M6.5,12H0c0,1.786,0.402,3.476,1.105,5h6.131C6.783,15.512,6.5,13.848,6.5,12z"/>
			<path d="M7.549,11H13V7H8.294C7.901,8.203,7.637,9.538,7.549,11z"/>
			<path d="M13,18H8.643c1.111,2.77,2.815,4.755,4.146,6H13V18z"/>
			<path d="M13,12H7.5c0,1.866,0.312,3.525,0.791,5H13V12z"/>
			<path d="M7.585,18H1.624c1.976,3.403,5.57,5.743,9.727,5.967C10.031,22.578,8.561,20.595,7.585,18z"/>
			<path d="M7.585,6c0.976-2.595,2.446-4.577,3.766-5.967C7.194,0.257,3.6,2.597,1.624,6H7.585z"/>
			<path d="M8.646,6H13V0h-0.206C11.464,1.246,9.76,3.233,8.646,6z"/>
		</g>
	</g>
</g>
<g id="Invisible_Shape">
	<rect fill="none" width="24" height="24"/>
</g>
</svg>
