<?xml version="1.0" encoding="utf-8"?>
<!-- Generator: Adobe Illustrator 19.2.1, SVG Export Plug-In . SVG Version: 6.00 Build 0)  -->
<svg version="1.1" xmlns="http://www.w3.org/2000/svg" xmlns:xlink="http://www.w3.org/1999/xlink" x="0px" y="0px" width="24px"
	 height="24px" viewBox="0 0 24 24" enable-background="new 0 0 24 24" xml:space="preserve">
<g id="Filled_Icon">
	<g>
		<path d="M9,17H6v2h3c0.552,0,1-0.449,1-1C10,17.449,9.552,17,9,17z"/>
		<path d="M9,14H6v2h3c0.552,0,1-0.449,1-1C10,14.449,9.552,14,9,14z"/>
		<path d="M7.5,9C3.364,9,0,12.364,0,16.5S3.364,24,7.5,24s7.5-3.364,7.5-7.5S11.636,9,7.5,9z M11,18c0,1.103-0.898,2-2,2v1.5
			C9,21.776,8.776,22,8.5,22S8,21.776,8,21.5V20H7v1.5C7,21.776,6.776,22,6.5,22S6,21.776,6,21.5V20H5.5C5.224,20,5,19.776,5,19.5
			v-3v-3C5,13.224,5.224,13,5.5,13H6v-1.479c0-0.276,0.224-0.5,0.5-0.5s0.5,0.224,0.5,0.5V13h1v-1.479c0-0.276,0.224-0.5,0.5-0.5
			s0.5,0.224,0.5,0.5V13c1.102,0,2,0.896,2,2c0,0.6-0.271,1.133-0.691,1.5C10.729,16.867,11,17.4,11,18z"/>
		<path d="M18.5,11c3.032,0,5.5-2.467,5.5-5.5C24,2.467,21.532,0,18.5,0S13,2.467,13,5.5C13,8.533,15.468,11,18.5,11z M18.5,6
			c-0.915,0-1.659-0.744-1.659-1.659c0-0.739,0.489-1.359,1.159-1.573V2.409c0-0.276,0.224-0.5,0.5-0.5s0.5,0.224,0.5,0.5v0.359
			c0.67,0.213,1.159,0.833,1.159,1.573c0,0.276-0.224,0.5-0.5,0.5c-0.276,0-0.5-0.224-0.5-0.5c0-0.363-0.296-0.658-0.659-0.658
			s-0.659,0.295-0.659,0.658C17.841,4.704,18.137,5,18.5,5c0.915,0,1.659,0.744,1.659,1.659c0,0.74-0.489,1.36-1.159,1.574v0.358
			c0,0.276-0.224,0.5-0.5,0.5S18,8.867,18,8.591V8.233c-0.67-0.213-1.159-0.834-1.159-1.574c0-0.276,0.224-0.5,0.5-0.5
			c0.276,0,0.5,0.224,0.5,0.5c0,0.363,0.296,0.659,0.659,0.659s0.659-0.296,0.659-0.659C19.159,6.296,18.863,6,18.5,6z"/>
		<path d="M8.969,0.513C6.055,0.521,3.596,2.805,3.502,5.841L2.334,4.681C2.138,4.485,1.821,4.487,1.627,4.683
			C1.432,4.878,1.434,5.195,1.629,5.39l2.006,1.993l0,0l0,0c0.002,0.002,0.004,0.002,0.006,0.004
			c0.197,0.192,0.511,0.187,0.701-0.006l1.994-2.006C6.53,5.179,6.53,4.863,6.334,4.668C6.138,4.474,5.821,4.474,5.627,4.67
			L4.506,5.798C4.623,3.329,6.624,1.52,8.971,1.513C9.246,1.512,9.47,1.288,9.469,1.012C9.468,0.736,9.244,0.513,8.969,0.513z"/>
		<path d="M16.033,21.487c2.966-0.01,5.378-2.379,5.473-5.32l1.16,1.152c0.196,0.195,0.513,0.194,0.707-0.002
			c0.195-0.196,0.193-0.513-0.002-0.707l-2.006-1.993v0l0,0c-0.002-0.002-0.004-0.002-0.006-0.004
			c-0.191-0.187-0.505-0.191-0.701,0.006l-1.994,2.006c-0.194,0.196-0.194,0.512,0.002,0.707c0.196,0.195,0.512,0.194,0.707-0.002
			l1.12-1.127c-0.115,2.373-2.062,4.276-4.464,4.284c-0.275,0.001-0.499,0.226-0.498,0.502
			C15.532,21.265,15.758,21.487,16.033,21.487z"/>
	</g>
</g>
<g id="Invisible_Shape">
	<rect fill="none" width="24" height="24"/>
</g>
</svg>
