<?xml version="1.0" encoding="utf-8"?>
<!-- Generator: Adobe Illustrator 19.2.1, SVG Export Plug-In . SVG Version: 6.00 Build 0)  -->
<svg version="1.1" xmlns="http://www.w3.org/2000/svg" xmlns:xlink="http://www.w3.org/1999/xlink" x="0px" y="0px" width="24px"
	 height="24px" viewBox="0 0 24 24" enable-background="new 0 0 24 24" xml:space="preserve">
<g id="Filled_Icon">
	<g>
		<path d="M19.292,5.601l3.658-1.546c-0.723-1.269-1.78-2.322-3.056-3.036l-1.571,3.626C18.699,4.906,19.022,5.231,19.292,5.601z"/>
		<path d="M19.799,9.48l3.622,1.492c0.771-1.918,0.782-4.062-0.027-6.02l-3.608,1.525C20.173,7.436,20.197,8.465,19.799,9.48z"/>
		<circle cx="16" cy="8" r="3.087"/>
		<path d="M8.614,11.068l3.597-1.555c-0.383-0.957-0.405-1.962-0.017-2.969L8.578,5.029C7.767,7.051,7.837,9.206,8.614,11.068z"/>
		<path d="M9.061,11.965c0.72,1.254,1.767,2.296,3.026,3.006l1.552-3.647c-0.361-0.257-0.677-0.573-0.938-0.932L9.061,11.965z"/>
		<path d="M22.992,11.877l-3.671-1.513c-0.263,0.367-0.583,0.688-0.949,0.951l1.562,3.642
			C21.215,14.231,22.276,13.164,22.992,11.877z"/>
		<path d="M17.433,4.186l1.56-3.6c-2.004-0.812-4.174-0.76-6.063,0.029l1.541,3.601C15.4,3.84,16.396,3.797,17.433,4.186z"/>
		<path d="M19.037,15.398l-1.546-3.602c-0.954,0.375-1.96,0.398-2.969,0.004l-1.534,3.607
			C14.977,16.217,17.134,16.182,19.037,15.398z"/>
		<path d="M13.595,4.712l-1.561-3.649c-1.266,0.727-2.316,1.786-3.027,3.062l3.655,1.532C12.918,5.292,13.235,4.976,13.595,4.712z"
			/>
		<path d="M9.625,14.542c0,0.276-0.224,0.5-0.5,0.5s-0.5-0.224-0.5-0.5c0-0.619-0.505-1.124-1.125-1.124s-1.125,0.505-1.125,1.124
			c0,0.62,0.505,1.125,1.125,1.125c1.172,0,2.125,0.953,2.125,2.125c0,0.999-0.695,1.834-1.625,2.061V20.5C8,20.776,7.776,21,7.5,21
			S7,20.776,7,20.5v-0.647c-0.93-0.227-1.625-1.062-1.625-2.061c0-0.276,0.224-0.5,0.5-0.5s0.5,0.224,0.5,0.5
			c0,0.621,0.505,1.126,1.125,1.126s1.125-0.505,1.125-1.126c0-0.62-0.505-1.125-1.125-1.125c-1.172,0-2.125-0.953-2.125-2.125
			c0-0.998,0.695-1.832,1.625-2.059v-0.649c0-0.329,0.319-0.59,0.664-0.467C7.345,10.579,7.128,9.74,7.044,8.86
			C3.114,9.14,0,12.418,0,16.417C0,20.598,3.402,24,7.584,24c4,0,7.277-3.114,7.556-7.044c-2.156-0.205-4.092-1.176-5.534-2.635
			C9.613,14.394,9.625,14.467,9.625,14.542z"/>
		<path d="M2.635,7.383L2.635,7.383L2.635,7.383c0.002,0.002,0.004,0.002,0.006,0.004C2.838,7.58,3.152,7.57,3.342,7.381
			l1.994-2.006C5.53,5.179,5.53,4.863,5.334,4.668C5.139,4.474,4.822,4.474,4.627,4.67l-1.12,1.127
			C3.622,3.424,5.568,1.52,7.971,1.513C8.246,1.512,8.47,1.287,8.469,1.011c-0.001-0.276-0.225-0.498-0.5-0.498
			c-0.001,0-0.001,0-0.001,0c-2.926,0.01-5.373,2.302-5.466,5.329L1.334,4.681C1.138,4.485,0.821,4.487,0.627,4.683
			C0.432,4.878,0.434,5.195,0.629,5.39L2.635,7.383z"/>
		<path d="M21.365,16.618L21.365,16.618L21.365,16.618c-0.001-0.002-0.003-0.003-0.005-0.003c-0.2-0.195-0.512-0.186-0.702,0.005
			l-1.994,2.006c-0.194,0.196-0.194,0.512,0.002,0.707c0.196,0.195,0.512,0.194,0.707-0.002l1.12-1.127
			c-0.115,2.373-2.062,4.276-4.464,4.284c-0.275,0.001-0.499,0.226-0.498,0.502c0.001,0.275,0.225,0.498,0.5,0.498
			c0,0,0.001,0,0.002,0c2.966-0.01,5.378-2.379,5.473-5.32l1.16,1.152c0.196,0.195,0.513,0.193,0.707-0.002
			c0.195-0.196,0.193-0.513-0.002-0.707L21.365,16.618z"/>
	</g>
</g>
<g id="Invisible_Shape">
	<rect fill="none" width="24" height="24"/>
</g>
</svg>
