<?xml version="1.0" encoding="utf-8"?>
<!-- Generator: Adobe Illustrator 19.2.1, SVG Export Plug-In . SVG Version: 6.00 Build 0)  -->
<svg version="1.1" xmlns="http://www.w3.org/2000/svg" xmlns:xlink="http://www.w3.org/1999/xlink" x="0px" y="0px" width="24px"
	 height="24px" viewBox="0 0 24 24" enable-background="new 0 0 24 24" xml:space="preserve">
<g id="Filled_Icon">
	<path d="M12,0C5.383,0,0,5.383,0,12c0,6.616,5.383,12,12,12c6.616,0,12-5.384,12-12C24,5.383,18.616,0,12,0z M13,11
		c0.275,0,0.5,0.224,0.5,0.5c0,0.275-0.225,0.5-0.5,0.5h-2v1c0,1.446-0.261,2.393-0.648,3H14.5c0.275,0,0.5,0.224,0.5,0.5
		c0,0.275-0.225,0.5-0.5,0.5h-6C8.224,17,8,16.775,8,16.5C8,16.224,8.224,16,8.5,16c0.371,0,1.5,0,1.5-3v-1H8
		c-0.276,0-0.5-0.225-0.5-0.5C7.5,11.224,7.724,11,8,11h2V8.5C10,7.121,11.121,6,12.5,6C13.878,6,15,7.121,15,8.5
		C15,8.775,14.775,9,14.5,9C14.224,9,14,8.775,14,8.5C14,7.673,13.326,7,12.5,7C11.673,7,11,7.673,11,8.5V11H13z"/>
</g>
<g id="Invisible_Shape">
	<rect fill="none" width="24" height="24"/>
</g>
</svg>
