<?xml version="1.0" encoding="utf-8"?>
<!-- Generator: Adobe Illustrator 19.2.1, SVG Export Plug-In . SVG Version: 6.00 Build 0)  -->
<svg version="1.1" xmlns="http://www.w3.org/2000/svg" xmlns:xlink="http://www.w3.org/1999/xlink" x="0px" y="0px" width="24px"
	 height="24px" viewBox="0 0 24 24" enable-background="new 0 0 24 24" xml:space="preserve">
<g id="Filled_Icon">
	<path d="M20,22H8.735C9.537,21.068,10,19.864,10,18.5V14h8c0.552,0,1-0.448,1-1s-0.448-1-1-1h-8V6.5C10,4.018,12.019,2,14.5,2
		S19,4.018,19,6.5c0,0.552,0.447,1,1,1c0.552,0,1-0.448,1-1C21,2.916,18.084,0,14.5,0S8,2.916,8,6.5V12H3c-0.553,0-1,0.448-1,1
		s0.447,1,1,1h5v4.5C8,20.904,5.927,22,4,22c-0.553,0-1,0.448-1,1s0.447,1,1,1h16c0.552,0,1-0.448,1-1S20.552,22,20,22z"/>
</g>
<g id="Invisible_Shape">
	<rect fill="none" width="24" height="24"/>
</g>
</svg>
