<?xml version="1.0" encoding="utf-8"?>
<!-- Generator: Adobe Illustrator 19.2.1, SVG Export Plug-In . SVG Version: 6.00 Build 0)  -->
<svg version="1.1" xmlns="http://www.w3.org/2000/svg" xmlns:xlink="http://www.w3.org/1999/xlink" x="0px" y="0px" width="24px"
	 height="24px" viewBox="0 0 24 24" enable-background="new 0 0 24 24" xml:space="preserve">
<g id="Filled_Icon">
	<g>
		<path d="M23.503,20h-6.738c0.72-0.833,1.234-2.297,1.234-4.782V13h2.521c0.276,0,0.5-0.224,0.5-0.5s-0.224-0.5-0.5-0.5h-2.521
			V8.462c0-1.379,1.122-2.502,2.502-2.502s2.502,1.122,2.502,2.502c0,0.276,0.224,0.5,0.5,0.5c0.276,0,0.5-0.224,0.5-0.5
			c0-1.931-1.571-3.502-3.502-3.502c-1.931,0-3.502,1.571-3.501,3.502V12h-2.504c-0.276,0-0.5,0.224-0.5,0.5s0.224,0.5,0.5,0.5H17
			v2.218C16.999,18.392,16.157,20,14.496,20c-0.276,0-0.5,0.224-0.5,0.5s0.224,0.5,0.5,0.5h9.007c0.276,0,0.5-0.224,0.5-0.5
			S23.779,20,23.503,20z"/>
		<g>
			<path d="M0.051,11h6.498c0.082-1.449,0.318-2.789,0.688-4H1.105C0.535,8.236,0.169,9.582,0.051,11z"/>
			<path d="M6.5,12H0c0,1.786,0.402,3.476,1.105,5h6.131C6.783,15.512,6.5,13.848,6.5,12z"/>
			<path d="M7.549,11H13V7H8.294C7.901,8.203,7.637,9.538,7.549,11z"/>
			<path d="M13,18H8.643c1.111,2.77,2.815,4.755,4.146,6H13V18z"/>
			<path d="M13,12H7.5c0,1.866,0.312,3.525,0.791,5H13V12z"/>
			<path d="M7.585,18H1.624c1.976,3.403,5.57,5.743,9.727,5.967C10.031,22.578,8.561,20.595,7.585,18z"/>
			<path d="M7.585,6c0.976-2.595,2.446-4.577,3.766-5.967C7.194,0.257,3.6,2.597,1.624,6H7.585z"/>
			<path d="M8.646,6H13V0h-0.206C11.464,1.246,9.76,3.233,8.646,6z"/>
		</g>
	</g>
</g>
<g id="Invisible_Shape">
	<rect fill="none" width="24" height="24"/>
</g>
</svg>
