<?xml version="1.0" encoding="utf-8"?>
<!-- Generator: Adobe Illustrator 19.2.1, SVG Export Plug-In . SVG Version: 6.00 Build 0)  -->
<svg version="1.1" xmlns="http://www.w3.org/2000/svg" xmlns:xlink="http://www.w3.org/1999/xlink" x="0px" y="0px" width="24px"
	 height="24px" viewBox="0 0 24 24" enable-background="new 0 0 24 24" xml:space="preserve">
<g id="Filled_Icon">
	<path d="M21,7.422V5.5C21,5.224,20.775,5,20.5,5h-17C3.224,5,3,5.224,3,5.5v1.922C1.191,8.212,0,10.009,0,12s1.191,3.788,3,4.578
		V18.5C3,18.775,3.224,19,3.5,19h17c0.275,0,0.5-0.225,0.5-0.5v-1.922c1.808-0.79,3-2.587,3-4.578S22.808,8.212,21,7.422z M13,11
		c0.275,0,0.5,0.224,0.5,0.5c0,0.275-0.225,0.5-0.5,0.5h-1v1c0,0.303-0.087,0.667-0.245,1H13.5c0.275,0,0.5,0.224,0.5,0.5
		c0,0.275-0.225,0.5-0.5,0.5h-3c-0.276,0-0.5-0.225-0.5-0.5c0-0.276,0.224-0.5,0.5-0.5c0.16-0.023,0.5-0.59,0.5-1v-1h-1
		c-0.276,0-0.5-0.225-0.5-0.5c0-0.276,0.224-0.5,0.5-0.5h1V9.5C11,8.673,11.673,8,12.5,8C13.326,8,14,8.673,14,9.5
		c0,0.275-0.225,0.5-0.5,0.5C13.224,10,13,9.775,13,9.5C13,9.224,12.775,9,12.5,9C12.224,9,12,9.224,12,9.5V11H13z"/>
</g>
<g id="Invisible_Shape">
	<rect fill="none" width="24" height="24"/>
</g>
</svg>
