<?xml version="1.0" encoding="utf-8"?>
<!-- Generator: Adobe Illustrator 19.2.1, SVG Export Plug-In . SVG Version: 6.00 Build 0)  -->
<svg version="1.1" xmlns="http://www.w3.org/2000/svg" xmlns:xlink="http://www.w3.org/1999/xlink" x="0px" y="0px" width="24px"
	 height="24px" viewBox="0 0 24 24" enable-background="new 0 0 24 24" xml:space="preserve">
<g id="Filled_Icon">
	<g>
		<path d="M15,0c-4.963,0-9,4.038-9,9c0,4.018,2.646,7.427,6.287,8.58l2.775-2.22c0.581-0.464,1.413-0.435,1.959,0.072l1.822,1.693
			C21.887,15.681,24,12.586,24,9C24,4.038,19.963,0,15,0z M17,7c0.276,0,0.5,0.224,0.5,0.5S17.276,8,17,8h-2v1.339
			c0,1.163-0.175,2.051-0.521,2.661H18c0.276,0,0.5,0.224,0.5,0.5S18.276,13,18,13h-5.266c-0.276,0-0.5-0.224-0.5-0.5
			s0.224-0.5,0.5-0.5C13.048,12,14,12,14,9.339V8h-2c-0.276,0-0.5-0.224-0.5-0.5S11.724,7,12,7h2V5.297C14,4.03,15.023,3,16.281,3
			c1.258,0,2.281,1.03,2.281,2.297c0,0.276-0.224,0.5-0.5,0.5s-0.5-0.224-0.5-0.5C17.562,4.582,16.987,4,16.281,4
			C15.575,4,15,4.582,15,5.297V7H17z"/>
		<path d="M23.5,19.023c-0.276,0-0.5,0.224-0.5,0.5v2.829l-6.659-6.188c-0.183-0.169-0.46-0.179-0.653-0.024l-4.671,3.737
			l-8.685-7.72c-0.206-0.184-0.523-0.166-0.706,0.042c-0.184,0.206-0.164,0.523,0.042,0.706l9,8
			c0.182,0.162,0.453,0.169,0.644,0.017l4.663-3.731L22.227,23h-2.664c-0.276,0-0.5,0.224-0.5,0.5s0.224,0.5,0.5,0.5H23.5
			c0.285,0,0.5-0.239,0.5-0.5v-3.977C24,19.247,23.776,19.023,23.5,19.023z"/>
	</g>
</g>
<g id="Invisible_Shape">
	<rect fill="none" width="24" height="24"/>
</g>
</svg>
