<?xml version="1.0" encoding="utf-8"?>
<!-- Generator: Adobe Illustrator 19.2.1, SVG Export Plug-In . SVG Version: 6.00 Build 0)  -->
<svg version="1.1" xmlns="http://www.w3.org/2000/svg" xmlns:xlink="http://www.w3.org/1999/xlink" x="0px" y="0px" width="24px"
	 height="24px" viewBox="0 0 24 24" enable-background="new 0 0 24 24" xml:space="preserve">
<g id="Filled_Icon">
	<g>
		<path d="M9,0C4.037,0,0,4.038,0,9c0,4.049,2.688,7.479,6.373,8.606l3.631-3.227c0.546-0.486,1.36-0.507,1.934-0.05l2.388,1.91
			C16.549,14.599,18,11.969,18,9C18,4.038,13.963,0,9,0z M11,7c0.276,0,0.5,0.224,0.5,0.5S11.276,8,11,8H9v1.339
			C9,10.502,8.825,11.39,8.479,12H12c0.276,0,0.5,0.224,0.5,0.5S12.276,13,12,13H6.734c-0.276,0-0.5-0.224-0.5-0.5
			s0.224-0.5,0.5-0.5C7.048,12,8,12,8,9.339V8H6C5.724,8,5.5,7.776,5.5,7.5S5.724,7,6,7h2V5.297C8,4.03,9.023,3,10.281,3
			c1.258,0,2.281,1.03,2.281,2.297c0,0.276-0.224,0.5-0.5,0.5s-0.5-0.224-0.5-0.5C11.562,4.582,10.987,4,10.281,4
			C9.575,4,9,4.582,9,5.297V7H11z"/>
		<path d="M23.509,12.033c-0.003,0-0.006-0.002-0.009-0.002h-3.938c-0.276,0-0.5,0.224-0.5,0.5c0,0.276,0.224,0.5,0.5,0.5h2.664
			l-6.251,5.81l-4.663-3.731c-0.191-0.153-0.462-0.145-0.644,0.017l-9,8c-0.206,0.183-0.226,0.5-0.042,0.706
			c0.184,0.208,0.502,0.224,0.706,0.042l8.685-7.72l4.671,3.737c0.194,0.155,0.472,0.146,0.653-0.024L23,13.679v2.829
			c0,0.276,0.224,0.5,0.5,0.5s0.5-0.224,0.5-0.5v-3.977C24,12.273,23.778,12.037,23.509,12.033z"/>
	</g>
</g>
<g id="Invisible_Shape">
	<rect fill="none" width="24" height="24"/>
</g>
</svg>
