<?xml version="1.0" encoding="utf-8"?>
<!-- Generator: Adobe Illustrator 19.2.1, SVG Export Plug-In . SVG Version: 6.00 Build 0)  -->
<svg version="1.1" xmlns="http://www.w3.org/2000/svg" xmlns:xlink="http://www.w3.org/1999/xlink" x="0px" y="0px" width="24px"
	 height="24px" viewBox="0 0 24 24" enable-background="new 0 0 24 24" xml:space="preserve">
<g id="Filled_Icon">
	<path d="M11.5,0C5.159,0,0,5.159,0,11.5C0,17.841,5.159,23,11.5,23S23,17.841,23,11.5C23,5.159,17.841,0,11.5,0z M15.409,6.786
		L12.46,11H14c0.276,0,0.5,0.224,0.5,0.5S14.276,12,14,12h-2v1h2c0.276,0,0.5,0.224,0.5,0.5S14.276,14,14,14h-2v3.5
		c0,0.276-0.224,0.5-0.5,0.5S11,17.776,11,17.5V14H9c-0.276,0-0.5-0.224-0.5-0.5S8.724,13,9,13h2v-1H9c-0.276,0-0.5-0.224-0.5-0.5
		S8.724,11,9,11h1.54L7.591,6.786C7.432,6.561,7.487,6.248,7.713,6.091c0.226-0.157,0.539-0.104,0.696,0.123l3.091,4.414
		l3.091-4.414c0.158-0.228,0.471-0.28,0.696-0.123C15.513,6.248,15.568,6.561,15.409,6.786z"/>
</g>
<g id="Invisible_Shape">
	<rect fill="none" width="24" height="24"/>
</g>
</svg>
