<?xml version="1.0" encoding="utf-8"?>
<!-- Generator: Adobe Illustrator 19.2.1, SVG Export Plug-In . SVG Version: 6.00 Build 0)  -->
<svg version="1.1" xmlns="http://www.w3.org/2000/svg" xmlns:xlink="http://www.w3.org/1999/xlink" x="0px" y="0px" width="24px"
	 height="24px" viewBox="0 0 24 24" enable-background="new 0 0 24 24" xml:space="preserve">
<g id="Filled_Icon">
	<path d="M19.35,1.526c0.291-0.47,0.146-1.086-0.323-1.377c-0.471-0.291-1.086-0.145-1.377,0.324L12,9.6L6.35,0.474
		c-0.29-0.47-0.906-0.615-1.376-0.324C4.504,0.44,4.358,1.057,4.649,1.526L11,11.784V12H7.5c-0.553,0-1,0.448-1,1s0.447,1,1,1H11v2
		H7.5c-0.553,0-1,0.448-1,1s0.447,1,1,1H11v5c0,0.552,0.447,1,1,1c0.552,0,1-0.448,1-1v-5h3.5c0.552,0,1-0.448,1-1s-0.448-1-1-1H13
		v-2h3.5c0.552,0,1-0.448,1-1s-0.448-1-1-1H13v-0.216L19.35,1.526z"/>
</g>
<g id="Invisible_Shape">
	<rect fill="none" width="24" height="24"/>
</g>
</svg>
