<?xml version="1.0" encoding="utf-8"?>
<!-- Generator: Adobe Illustrator 19.2.1, SVG Export Plug-In . SVG Version: 6.00 Build 0)  -->
<svg version="1.1" xmlns="http://www.w3.org/2000/svg" xmlns:xlink="http://www.w3.org/1999/xlink" x="0px" y="0px" width="24px"
	 height="24px" viewBox="0 0 24 24" enable-background="new 0 0 24 24" xml:space="preserve">
<g id="Filled_Icon">
	<g>
		<path d="M23.51,12.002c-0.004,0-0.007-0.002-0.01-0.002h-3.938c-0.276,0-0.5,0.224-0.5,0.5s0.224,0.5,0.5,0.5h2.665l-6.252,5.81
			l-4.663-3.732c-0.191-0.153-0.463-0.144-0.644,0.017l-9,8c-0.206,0.184-0.226,0.5-0.042,0.706
			c0.184,0.207,0.501,0.224,0.706,0.042l8.685-7.721l4.671,3.737c0.194,0.156,0.473,0.145,0.652-0.024L23,13.646v2.831
			c0,0.276,0.224,0.5,0.5,0.5s0.5-0.224,0.5-0.5V12.5C24,12.243,23.778,12.006,23.51,12.002z"/>
		<path d="M6.373,17.606l3.631-3.227c0.546-0.486,1.36-0.507,1.934-0.05l2.388,1.91C16.549,14.599,18,11.969,18,9
			c0-4.962-4.037-9-9-9S0,4.038,0,9C0,13.049,2.688,16.479,6.373,17.606z M6.328,3.058C6.556,2.899,6.867,2.953,7.024,3.18
			L9.5,6.716l2.476-3.536c0.157-0.227,0.47-0.281,0.696-0.123c0.226,0.158,0.281,0.47,0.122,0.696L10.521,7H11.5
			C11.776,7,12,7.224,12,7.5S11.776,8,11.5,8H10v1h1.5C11.776,9,12,9.224,12,9.5S11.776,10,11.5,10H10v2.533
			c0,0.276-0.224,0.5-0.5,0.5S9,12.81,9,12.533V10H7.5C7.224,10,7,9.776,7,9.5S7.224,9,7.5,9H9V8H7.5C7.224,8,7,7.776,7,7.5
			S7.224,7,7.5,7h0.979L6.206,3.754C6.047,3.527,6.102,3.215,6.328,3.058z"/>
	</g>
</g>
<g id="Invisible_Shape">
	<rect fill="none" width="24" height="24"/>
</g>
</svg>
