<?xml version="1.0" encoding="utf-8"?>
<!-- Generator: Adobe Illustrator 19.2.1, SVG Export Plug-In . SVG Version: 6.00 Build 0)  -->
<svg version="1.1" xmlns="http://www.w3.org/2000/svg" xmlns:xlink="http://www.w3.org/1999/xlink" x="0px" y="0px" width="24px"
	 height="24px" viewBox="0 0 24 24" enable-background="new 0 0 24 24" xml:space="preserve">
<g id="Filled_Icons">
	<g>
		<path d="M6.18,13.637l-0.787-3.019c-0.13-0.496-0.641-1.01-1.138-1.14L0.871,8.59c-0.495-0.13-0.495-0.342,0-0.473l3.384-0.887
			C4.752,7.1,5.264,6.588,5.393,6.09l0.884-3.394c0.13-0.496,0.342-0.496,0.472,0L7.633,6.09C7.762,6.588,8.274,7.1,8.769,7.231
			l3.385,0.887c0.495,0.131,0.495,0.343,0,0.473L8.769,9.477c-0.495,0.13-1.008,0.644-1.137,1.14L7.228,12.17
			C6.848,12.616,6.492,13.112,6.18,13.637"/>
		<path d="M9.833,4.494L11.1,4.161c0.187-0.049,0.379-0.241,0.427-0.427l0.332-1.273c0.047-0.187,0.127-0.187,0.176,0l0.331,1.273
			c0.049,0.185,0.24,0.378,0.426,0.427l1.268,0.333c0.185,0.047,0.185,0.127,0,0.176l-1.268,0.332
			c-0.186,0.049-0.377,0.241-0.426,0.428l-0.331,1.272c-0.049,0.186-0.128,0.186-0.176,0L11.526,5.43
			c-0.048-0.187-0.24-0.379-0.427-0.428L9.833,4.67C9.648,4.621,9.648,4.541,9.833,4.494"/>
		<path d="M21.272,15.055l2.008,0.527c0.293,0.077,0.293,0.203,0,0.281l-2.008,0.525c-0.293,0.077-0.597,0.382-0.674,0.676
			l-0.525,2.013c-0.077,0.294-0.2,0.294-0.278,0l-0.525-2.013c-0.076-0.294-0.379-0.599-0.674-0.676l-2.006-0.525
			c-0.294-0.078-0.294-0.204,0-0.281l2.006-0.527c0.295-0.076,0.598-0.38,0.674-0.676l0.525-2.012c0.078-0.295,0.201-0.295,0.278,0
			l0.525,2.012C20.676,14.675,20.979,14.979,21.272,15.055"/>
		<path d="M17.267,8.512c0.178-0.447,0.3-0.952,0.308-1.426c0.016-0.783-0.512-1.305-1.244-1.418c0,0-0.414,1.557-0.494,1.805
			c-0.513,1.635-1.386,3.318-2.365,5.217c-0.158-1.035-1.05-1.568-1.982-1.568c-2.358,0-4.723,3.06-5.53,5.523
			c-0.805,2.577-1.066,5.804,1.84,5.856c1.142,0,2.036-1.009,2.774-1.877c-0.009,1.312,0.635,1.853,1.309,1.853
			c1.006,0,2.142-0.898,3.881-2.833c0.271-0.296,1.264-1.418,1.27-1.82c0.004-0.17-0.081-0.256-0.192-0.256
			c-0.23,0-1.312,1.318-1.511,1.514c-0.522,0.529-1.589,1.607-2.321,1.543c-0.332-0.083-0.386-0.365-0.38-0.645
			c0.027-1.336,2.284-5.958,3.09-7.847C16.243,10.924,16.851,9.744,17.267,8.512z M10.37,18.566
			c-0.323,0.566-1.238,1.792-1.896,1.792c-0.452,0-0.757-0.47-0.727-1.155c0.059-1.743,0.866-3.537,2.051-4.93
			c0.357-0.404,0.745-0.898,1.332-0.898c0.496,0,0.746,0.307,0.736,0.873C11.837,15.781,11.173,17.246,10.37,18.566z"/>
	</g>
</g>
<g id="Frames-24px">
	<rect fill="none" width="24" height="24"/>
</g>
</svg>
