<?xml version="1.0" encoding="utf-8"?>
<!-- Generator: Adobe Illustrator 19.2.1, SVG Export Plug-In . SVG Version: 6.00 Build 0)  -->
<svg version="1.1" xmlns="http://www.w3.org/2000/svg" xmlns:xlink="http://www.w3.org/1999/xlink" x="0px" y="0px" width="24px"
	 height="24px" viewBox="0 0 24 24" enable-background="new 0 0 24 24" xml:space="preserve">
<g id="Filled_Icons">
	<path d="M22.148,13.424c-1-0.869-1.998-0.969-3.527-1.371c-0.225-0.826,0.075-1.357,0.445-2.016
		c0.321-0.57,0.685-1.217,0.688-2.093c0.018-4.048-4.746-4.209-5.747-4.931c-0.314-0.226-0.431-0.674-0.566-1.193
		c-0.054-0.205-0.108-0.412-0.176-0.614c-0.072-0.216-0.283-0.364-0.509-0.339C12.529,0.882,12.342,1.05,12.3,1.273
		c-0.476,2.578,1.094,3.211,2.355,3.72c0.493,0.198,0.957,0.387,1.315,0.669c0.486,0.384,1.061,0.999,1.041,1.752
		c-0.011,0.408-0.857,1.451-1.091,1.785c-0.766-2.351-2.503-3.771-3.906-4.569c-0.337-0.192-0.701-0.333-1.052-0.469
		C10.497,3.982,10.057,3.81,9.72,3.543C8.856,2.855,8.612,1.828,8.361,0.452C8.315,0.203,8.072,0.023,7.841,0.043
		C7.589,0.057,7.388,0.256,7.37,0.508c-0.211,3.08,0.841,4.485,2.01,5.545c0.428,0.387,0.91,0.703,1.375,1.008
		c1.288,0.846,2.324,1.526,2.044,3.42c-0.896-0.127-3.051-0.847-3.624-1.524C8.688,8.379,8.465,7.482,8.25,6.615
		C7.976,5.508,7.692,4.363,6.829,3.734c-1.22-0.887-4.148-0.672-5.335,0.332C1.32,4.215,1.267,4.459,1.365,4.664
		c0.097,0.205,0.32,0.318,0.545,0.275c1.619-0.309,2.823-0.173,3.474,0.397C5.943,5.827,6.17,6.982,6.39,8.098
		c0.176,0.896,0.358,1.82,0.727,2.539c0.513,1,1.622,2.217,3.306,3.109c-0.786,0.166-3.141,0.682-3.825,0.249
		c-0.532-0.336-0.48-1.436-0.43-2.499c0.049-1.043,0.1-2.123-0.312-2.955C5.346,7.519,4.356,7.312,3.56,7.146
		C3.31,7.095,3.062,7.236,2.982,7.478S3.018,7.984,3.25,8.09c1.586,0.721,0.272,3.195,0.323,5.211
		c0.059,2.284,1.439,3.927,3.517,4.184c0.909,0.113,1.825-0.039,2.688-0.184c0.99-0.168,1.913-0.281,2.533-0.049
		c0.4,0.148,0.417,1.721,0.503,2.189c0.441,2.41,2.308,4.269,4.54,4.519C17.591,23.986,17.824,24,18.051,24
		c2.476,0,4.591-1.543,5.52-4.025C24.481,17.537,23.923,14.967,22.148,13.424z M21.546,18.938c-0.308,1.034-1.203,1.757-2.175,1.757
		c-0.189,0-0.377-0.028-0.559-0.082c-1.13-0.341-1.742-1.643-1.365-2.902c0.369-1.235,1.619-2.007,2.734-1.674
		C21.312,16.375,21.924,17.677,21.546,18.938z"/>
</g>
<g id="Frames-24px">
	<rect fill="none" width="24" height="24"/>
</g>
</svg>
