<?xml version="1.0" encoding="utf-8"?>
<!-- Generator: Adobe Illustrator 19.2.1, SVG Export Plug-In . SVG Version: 6.00 Build 0)  -->
<svg version="1.1" xmlns="http://www.w3.org/2000/svg" xmlns:xlink="http://www.w3.org/1999/xlink" x="0px" y="0px" width="24px"
	 height="24px" viewBox="0 0 24 24" enable-background="new 0 0 24 24" xml:space="preserve">
<g id="Filled_Icons">
	<path d="M9.018,19.526c0.964,0.199,1.966,0.302,2.982,0.302c2.735,0,5.369-0.746,7.417-2.101c2.595-1.716,4.083-4.291,4.083-7.063
		c0-2.772-1.488-5.348-4.083-7.064C17.369,2.246,14.735,1.5,12,1.5S6.631,2.246,4.584,3.6C1.988,5.316,0.5,7.892,0.5,10.664
		c0,2.764,1.48,5.329,4.057,7.046L2.8,22.2L9.018,19.526z M12,6.102c3.811,0,6.9,2.042,6.9,4.562c0,2.521-3.089,4.563-6.9,4.563
		c-3.811,0-6.899-2.042-6.899-4.563C5.101,8.144,8.189,6.102,12,6.102z"/>
</g>
<g id="Frames-24px">
	<rect fill="none" width="24" height="24"/>
</g>
</svg>
