<?xml version="1.0" encoding="utf-8"?>
<!-- Generator: Adobe Illustrator 19.2.1, SVG Export Plug-In . SVG Version: 6.00 Build 0)  -->
<svg version="1.1" xmlns="http://www.w3.org/2000/svg" xmlns:xlink="http://www.w3.org/1999/xlink" x="0px" y="0px" width="24px"
	 height="24px" viewBox="0 0 24 24" enable-background="new 0 0 24 24" xml:space="preserve">
<g id="Filled_Icons">
	<path d="M12,0C5.383,0,0,5.383,0,12s5.383,12,12,12s12-5.383,12-12S18.617,0,12,0z M12,5.5c0.698,0,1.369,0.113,2,0.317v3.88
		l-3.909-3.911C10.694,5.602,11.335,5.5,12,5.5z M14,11.11V14h-4v-2.89l2-2L14,11.11z M5.5,12c0-2.54,1.461-4.735,3.586-5.803
		l2.207,2.206l-5.507,5.506C5.601,13.306,5.5,12.665,5.5,12z M9,17.763c-1.209-0.63-2.191-1.63-2.805-2.849L9,12.11V17.763z
		 M12,18.5c-0.698,0-1.369-0.113-2-0.317V15h7.763C16.679,17.079,14.507,18.5,12,18.5z M18.184,14H15V6.237
		c2.079,1.085,3.5,3.256,3.5,5.763C18.5,12.699,18.387,13.37,18.184,14z"/>
</g>
<g id="Frames-24px">
	<rect fill="none" width="24" height="24"/>
</g>
</svg>
