<?xml version="1.0" encoding="utf-8"?>
<!-- Generator: Adobe Illustrator 19.2.1, SVG Export Plug-In . SVG Version: 6.00 Build 0)  -->
<svg version="1.1" xmlns="http://www.w3.org/2000/svg" xmlns:xlink="http://www.w3.org/1999/xlink" x="0px" y="0px" width="24px"
	 height="24px" viewBox="0 0 24 24" enable-background="new 0 0 24 24" xml:space="preserve">
<g id="Filled_Icons">
	<path d="M12,0C5.383,0,0,5.383,0,12s5.383,12,12,12s12-5.383,12-12S18.617,0,12,0z M12.994,6.691
		c0.272-1.064,1.128-1.765,1.915-1.564c0.189,0.048,1.286,0.905,0.933,2.291c-0.269,1.064-1.127,1.766-1.914,1.564
		C13.141,8.783,12.723,7.756,12.994,6.691z M10.162,4.719c0.827,0,1.5,0.93,1.5,2.073c0,1.146-0.673,2.073-1.5,2.073
		c-0.829,0-1.5-0.928-1.5-2.073C8.662,5.648,9.333,4.719,10.162,4.719z M5.304,10.322C5.226,9.205,5.831,8.254,6.655,8.196
		c0.825-0.058,1.558,0.802,1.635,1.917c0.078,1.115-0.526,2.068-1.352,2.125C6.114,12.297,5.382,11.439,5.304,10.322z M15.17,19.5
		c-1.44,0-2.201-0.444-3.341-0.444s-1.837,0.315-3.277,0.315c-1.44,0-1.947-1.473-1.947-2.36c0-1.8,1.831-2.117,3.546-4.581
		c0.476-0.684,1.093-0.888,1.68-0.888c0.585,0,1.144,0.086,1.63,0.761c1.821,3.221,3.625,3.086,3.753,4.945
		C17.273,18.134,16.61,19.5,15.17,19.5z M17.206,13.078c-0.829,0.012-1.515-0.543-1.532-1.764c-0.018-1.22,0.639-2.008,1.467-2.021
		c0.198-0.002,1.509,0.388,1.532,1.976C18.691,12.49,18.033,13.066,17.206,13.078z"/>
</g>
<g id="Frames-24px">
	<rect fill="none" width="24" height="24"/>
</g>
</svg>
