<?xml version="1.0" encoding="utf-8"?>
<!-- Generator: Adobe Illustrator 19.2.1, SVG Export Plug-In . SVG Version: 6.00 Build 0)  -->
<svg version="1.1" xmlns="http://www.w3.org/2000/svg" xmlns:xlink="http://www.w3.org/1999/xlink" x="0px" y="0px" width="24px"
	 height="24px" viewBox="0 0 24 24" enable-background="new 0 0 24 24" xml:space="preserve">
<g id="Filled_Icons">
	<g>
		<path d="M12.5,10.231c-2.635,0-4.773,1.533-4.773,3.42c0,1.89,2.138,3.422,4.773,3.422c2.637,0,4.772-1.531,4.772-3.422
			C17.272,11.764,15.137,10.231,12.5,10.231z M12.5,15.084c-1.104,0-2-0.641-2-1.434c0-0.791,0.896-1.432,2-1.432
			c1.106,0,2,0.641,2,1.432C14.5,14.443,13.606,15.084,12.5,15.084z"/>
		<path d="M12,0C5.383,0,0,5.383,0,12s5.383,12,12,12s12-5.383,12-12S18.617,0,12,0z M12.5,18.783c-4.072,0-7.388-2.244-7.5-5.012
			V5.783h2.608v3.91C8.905,8.96,10.688,8.519,12.5,8.519c4.143,0,7.5,2.299,7.5,5.131C20,16.486,16.643,18.783,12.5,18.783z"/>
	</g>
</g>
<g id="Frames-24px">
	<rect fill="none" width="24" height="24"/>
</g>
</svg>
