<?xml version="1.0" encoding="utf-8"?>
<!-- Generator: Adobe Illustrator 19.2.1, SVG Export Plug-In . SVG Version: 6.00 Build 0)  -->
<svg version="1.1" xmlns="http://www.w3.org/2000/svg" xmlns:xlink="http://www.w3.org/1999/xlink" x="0px" y="0px" width="24px"
	 height="24px" viewBox="0 0 24 24" enable-background="new 0 0 24 24" xml:space="preserve">
<g id="Filled_Icons">
	<g>
		<path d="M10.163,6.336C9.618,6.479,9.501,7.082,9.979,6.957C10.474,6.83,10.624,6.219,10.163,6.336z"/>
		<path d="M16.359,6.234c0.427-0.062,0.534-0.561,0.092-0.484C16.004,5.826,15.906,6.305,16.359,6.234z"/>
		<path d="M6.012,11.467c-0.29,0.062-0.519,0.447-0.359,0.602c0.152,0.144,0.547-0.084,0.581-0.416
			C6.247,11.507,6.157,11.438,6.012,11.467z"/>
		<path d="M17.289,12.278c-0.672,0.17-0.455,0.98,0.199,0.811c0.206-0.055,0.418-0.229,0.388-0.49
			C17.846,12.356,17.56,12.205,17.289,12.278z"/>
		<path d="M8.825,16.339c-0.223,0.028-0.411,0.251-0.474,0.452c-0.202,0.641,0.62,0.767,0.836,0.098
			C9.277,16.61,9.146,16.297,8.825,16.339z"/>
		<path d="M12,0C5.383,0,0,5.383,0,12s5.383,12,12,12s12-5.383,12-12S18.617,0,12,0z M18.397,14.443
			c-1.187,0.658-3.212,0.419-3.535-1.15c-0.108-0.528-0.048-0.757-0.36-1.177c-0.922-1.281-2.684-0.777-3.679,0.373
			c-0.18,0.191-0.335,0.418-0.455,0.658c-0.419,0.756-0.335,1.283-0.012,2.17c0.515,1.392,0.3,2.996-1.294,3.427
			c-0.994,0.276-1.989-0.12-2.133-1.138c-0.168-1.199,0.503-2.146,1.449-2.732c0.768-0.479,1.318-0.887,1.607-1.844
			c0.551-1.775-1.391-2.663-2.937-0.924c-0.312,0.359-0.599,0.873-1.366,1.029c-1.762,0.385-0.982-2.504,0.72-2.768
			c0.658-0.095,0.755,0.192,1.054,0.433c0.743,0.588,2.157-0.312,2.696-1.15c0.407-0.647,0.539-1.678-0.431-1.774
			c-0.48-0.048-0.887,0.062-0.995-0.419c-0.12-0.504,0.287-1.043,0.767-1.403c0.547-0.399,1.561-0.727,1.87-0.118
			c0.227,0.539-0.443,1.114-0.611,1.558c-0.611,1.665,2.001,1.858,3.284,0.167c0.574-0.754,0.179-1.043,0.526-1.665
			c0.443-0.78,1.186-1.127,2.025-1.224c0.383-0.047,0.731-0.022,1.055,0.157c0.851,0.442,0.455,1.569-0.551,2.121
			c-1.02,0.562-1.523,0.19-2.709,0.826c-1.666,0.9-1.941,2.984-0.168,3.355c0.695,0.144,1.366-0.048,1.93-0.287
			c0.767-0.323,1.366-0.384,2.097-0.216c0.612,0.144,1.163,0.646,1.343,1.186C19.943,13.018,19.296,13.951,18.397,14.443z"/>
	</g>
</g>
<g id="Frames-24px">
	<rect fill="none" width="24" height="24"/>
</g>
</svg>
