<?xml version="1.0" encoding="utf-8"?>
<!-- Generator: Adobe Illustrator 19.2.1, SVG Export Plug-In . SVG Version: 6.00 Build 0)  -->
<svg version="1.1" xmlns="http://www.w3.org/2000/svg" xmlns:xlink="http://www.w3.org/1999/xlink" x="0px" y="0px" width="24px"
	 height="24px" viewBox="0 0 24 24" enable-background="new 0 0 24 24" xml:space="preserve">
<g id="Filled_Icons">
	<path d="M12,0C5.383,0,0,5.383,0,12s5.383,12,12,12s12-5.383,12-12S18.617,0,12,0z M10.229,5.166
		c0.774-0.725,1.951-1.141,3.227-1.141c1.234,0,2.388,0.394,3.163,1.08c0.207,0.184,0.226,0.499,0.044,0.705
		c-0.185,0.208-0.501,0.226-0.706,0.044c-0.587-0.519-1.522-0.829-2.501-0.829c-1.01,0-1.961,0.326-2.545,0.871
		c-0.096,0.09-0.219,0.135-0.341,0.135c-0.134,0-0.267-0.054-0.365-0.159C10.016,5.67,10.026,5.353,10.229,5.166z M16.903,18.89
		c0.1,0.181,0.077,0.404-0.056,0.562c-0.132,0.158-0.349,0.219-0.545,0.151l-3.214-1.099c-2.057,0.766-4.417,0.502-6.205-0.703
		c-1.493-1.006-2.35-2.492-2.35-4.075c0-2.782,2.943-5.134,6.427-5.134c2.509,0,6.041,1.174,6.041,3.779
		c0,2.019-2.273,3.602-5.174,3.602c-2.9,0-5.172-1.583-5.172-3.602c0-0.276,0.224-0.5,0.5-0.5c0.276,0,0.5,0.224,0.5,0.5
		c0,1.41,1.91,2.602,4.172,2.602c2.263,0,4.174-1.192,4.174-2.602c0-1.897-3.008-2.779-5.041-2.779
		c-2.891,0-5.427,1.932-5.427,4.134c0,1.245,0.695,2.429,1.908,3.246c1.569,1.057,3.655,1.263,5.448,0.536
		c0.111-0.045,0.235-0.049,0.35-0.01l2.166,0.741l-0.65-1.187c-0.121-0.221-0.06-0.496,0.143-0.645
		c0.524-0.381,0.915-0.822,1.163-1.309c0.125-0.247,0.43-0.342,0.672-0.218c0.246,0.125,0.345,0.427,0.219,0.673
		c-0.26,0.512-0.635,0.977-1.117,1.389L16.903,18.89z M8.474,10.791c0.229-0.156,0.54-0.1,0.695,0.129
		c0.632,0.92,2.029,1.515,3.562,1.515c0.756,0,1.49-0.143,2.123-0.413c0.256-0.107,0.548,0.01,0.656,0.265
		c0.108,0.254-0.01,0.548-0.264,0.655c-0.757,0.322-1.627,0.493-2.516,0.493c-1.881,0-3.562-0.747-4.387-1.948
		C8.189,11.258,8.246,10.947,8.474,10.791z M17.619,10.088c-0.017,0.275-0.254,0.484-0.529,0.469
		c-0.276-0.017-0.485-0.254-0.469-0.53c0.057-1.65-2.037-2.633-3.89-2.633c-0.834,0-1.63,0.171-2.302,0.495
		c-0.245,0.119-0.547,0.017-0.667-0.233c-0.12-0.25-0.016-0.549,0.233-0.668c0.807-0.389,1.752-0.595,2.735-0.595
		C15.506,6.394,17.755,8.066,17.619,10.088z"/>
</g>
<g id="Frames-24px">
	<rect fill="none" width="24" height="24"/>
</g>
</svg>
