<?xml version="1.0" encoding="utf-8"?>
<!-- Generator: Adobe Illustrator 19.2.1, SVG Export Plug-In . SVG Version: 6.00 Build 0)  -->
<svg version="1.1" xmlns="http://www.w3.org/2000/svg" xmlns:xlink="http://www.w3.org/1999/xlink" x="0px" y="0px" width="24px"
	 height="24px" viewBox="0 0 24 24" enable-background="new 0 0 24 24" xml:space="preserve">
<g id="Filled_Icons">
	<g>
		<path d="M15.5,6.484c-0.276,0-0.5,0.224-0.5,0.5v2c0,0.276,0.224,0.5,0.5,0.5s0.5-0.224,0.5-0.5v-2
			C16,6.708,15.776,6.484,15.5,6.484z"/>
		<circle cx="15.5" cy="10.519" r="0.5"/>
		<path d="M12,0C5.383,0,0,5.383,0,12s5.383,12,12,12s12-5.383,12-12S18.617,0,12,0z M9.021,19.52c-2.481,0-4.5-2.017-4.5-4.5
			c0-2.48,2.019-4.5,4.5-4.5c0.181,0,0.358,0.012,0.534,0.031c0.253,0.029,0.444,0.243,0.444,0.498V14l2.988,0.002
			c0.251,0,0.463,0.186,0.496,0.434c0.025,0.192,0.037,0.386,0.037,0.583C13.521,17.502,11.502,19.52,9.021,19.52z M15.324,12.5
			h-3.355c-0.276,0-0.5-0.224-0.5-0.5V8.438c0-1.367,0.843-3.953,4.031-3.953c2.524,0,4.031,1.509,4.031,4.035
			C19.531,10.975,17.919,12.5,15.324,12.5z"/>
	</g>
</g>
<g id="Frames-24px">
	<rect fill="none" width="24" height="24"/>
</g>
</svg>
