<?xml version="1.0" encoding="utf-8"?>
<!-- Generator: Adobe Illustrator 19.2.1, SVG Export Plug-In . SVG Version: 6.00 Build 0)  -->
<svg version="1.1" xmlns="http://www.w3.org/2000/svg" xmlns:xlink="http://www.w3.org/1999/xlink" x="0px" y="0px" width="24px"
	 height="24px" viewBox="0 0 24 24" enable-background="new 0 0 24 24" xml:space="preserve">
<g id="Filled_Icons">
	<path d="M21.585,5.032c-0.004-0.003-0.008-0.004-0.012-0.007l-1.32-0.773c-0.258-0.15-0.537-0.228-0.829-0.228
		c-1.249,0-2.637,1.409-4.254,4.329c-0.554,1.135-0.467,2.478,0.262,3.562c0.337,0.502,0.762,1,1.138,1.439
		c0.318,0.371,0.753,0.879,0.802,1.049c0.147,0.545-0.155,1.111-0.673,1.262c-0.505,0.145-1.046-0.18-1.187-0.703
		c-0.067-0.248-0.055-0.403-0.04-0.582c0.039-0.483,0.017-0.883-0.631-1.631c-0.179-0.207-0.423-0.32-0.689-0.32
		c-0.794,0-1.595,1.048-1.882,2.018c-0.629,2.135-0.498,2.334-0.392,2.494c0.191,0.287,0.252,0.648,0.169,0.992
		c-0.083,0.337-0.29,0.613-0.582,0.774c-0.548,0.302-1.261,0.067-1.551-0.498c-0.156-0.305-0.181-0.666-0.067-0.991
		c0.109-0.316,0.332-0.564,0.623-0.697c0.281-0.128,0.435-0.199,1.752-5.24l0.047-0.178c0.067-0.25-0.067-0.511-0.311-0.6
		c-0.242-0.09-0.514,0.022-0.625,0.257c-0.626,1.33-1.07,1.569-1.542,1.823c-0.467,0.252-0.996,0.536-1.537,1.615
		c-0.062,0.121-0.147,0.229-0.251,0.316c-0.397,0.332-1.012,0.264-1.335-0.147c-0.342-0.438-0.278-1.08,0.142-1.433
		c0.116-0.097,0.253-0.165,0.396-0.198c0.872-0.195,2.503-1.459,3.964-2.628l0.351-0.278c0.205-0.162,0.251-0.454,0.107-0.671
		c-0.144-0.218-0.431-0.288-0.66-0.159C9.647,9.74,8.95,9.852,8.652,9.852c-0.1,0-0.155-0.014-0.144-0.002
		C8.29,9.713,8.003,9.766,7.846,9.971c-0.046,0.062-0.102,0.117-0.164,0.164c-0.349,0.261-0.857,0.171-1.109-0.191
		C6.305,9.559,6.388,9.021,6.755,8.746C6.892,8.644,7.052,8.59,7.236,8.59h0.001c0.126,0.005,0.291,0.024,0.484,0.045
		c0.38,0.042,0.853,0.093,1.384,0.093c2.047,0,3.508-0.825,4.337-2.438l1.075-1.956c0.734-1.337,0.61-2.794-0.283-3.315L13.061,0.33
		c-0.724-0.425-1.934-0.427-2.658-0.002L2.326,5.046C1.582,5.478,1,6.507,1,7.387v9.224c0,0.882,0.582,1.91,1.324,2.341l8.082,4.719
		c0.362,0.213,0.834,0.33,1.33,0.33c0.496,0,0.968-0.117,1.319-0.323l8.53-4.735C22.266,18.542,23,17.533,23,16.598V7.376
		C23,6.441,22.266,5.432,21.585,5.032z"/>
</g>
<g id="Frames-24px">
	<rect fill="none" width="24" height="24"/>
</g>
</svg>
