<?xml version="1.0" encoding="utf-8"?>
<!-- Generator: Adobe Illustrator 19.2.1, SVG Export Plug-In . SVG Version: 6.00 Build 0)  -->
<svg version="1.1" xmlns="http://www.w3.org/2000/svg" xmlns:xlink="http://www.w3.org/1999/xlink" x="0px" y="0px" width="24px"
	 height="24px" viewBox="0 0 24 24" enable-background="new 0 0 24 24" xml:space="preserve">
<g id="Filled_Icons">
	<g>
		<circle cx="12" cy="12" r="6"/>
	</g>
	<g>
		<path d="M4,1.051C3.647,1.102,3.312,1.202,3,1.352V8.5h1V1.051z"/>
	</g>
	<path d="M6,8.422V1H5v7.5h0.947C5.963,8.473,5.983,8.448,6,8.422z"/>
	<g>
		<path d="M23,18.848V8.5V5.152V4.5C23,2.57,21.43,1,19.5,1H7v6.119C8.271,5.815,10.04,5,12,5c2.584,0,4.84,1.411,6.053,3.5H22
			v10.348C22,20.586,20.586,22,18.848,22H5.152C3.414,22,2,20.586,2,18.848V8.5V5.152V2.058C1.383,2.69,1,3.55,1,4.5v0.652V8.5
			v10.348C1,21.137,2.863,23,5.152,23h13.695C21.137,23,23,21.137,23,18.848z M21.5,7h-3C18.224,7,18,6.776,18,6.5v-3
			C18,3.224,18.224,3,18.5,3h3C21.776,3,22,3.224,22,3.5v1.652V6.5C22,6.776,21.776,7,21.5,7z"/>
	</g>
</g>
<g id="Frames-24px">
	<rect fill="none" width="24" height="24"/>
</g>
</svg>
