<?xml version="1.0" encoding="utf-8"?>
<!-- Generator: Adobe Illustrator 19.2.1, SVG Export Plug-In . SVG Version: 6.00 Build 0)  -->
<svg version="1.1" xmlns="http://www.w3.org/2000/svg" xmlns:xlink="http://www.w3.org/1999/xlink" x="0px" y="0px" width="24px"
	 height="24px" viewBox="0 0 24 24" enable-background="new 0 0 24 24" xml:space="preserve">
<g id="Filled_Icons">
	<g>
		<path d="M4.623,8.5c-1.504,0-3.123,0-3.123,0l0.848-4c0,0,2.202,0,3.004,0c1.949,0,2.415,1.014,2.415,1.772
			C7.767,7.345,7.068,8.5,4.623,8.5z"/>
		<path d="M12.623,8.5c-1.504,0-3.123,0-3.123,0l0.848-4c0,0,2.202,0,3.004,0c1.949,0,2.415,1.014,2.415,1.772
			C15.767,7.345,15.068,8.5,12.623,8.5z"/>
		<path d="M20.268,11.5c-1.503,0-3.122,0-3.122,0l0.848-4c0,0,2.202,0,3.004,0c1.949,0,2.415,1.014,2.415,1.771
			C23.412,10.345,22.714,11.5,20.268,11.5z"/>
		<path d="M19.268,17.5c-1.503,0-3.122,0-3.122,0l0.848-4c0,0,2.202,0,3.004,0c1.949,0,2.415,1.014,2.415,1.771
			C22.412,16.345,21.714,17.5,19.268,17.5z"/>
		<path d="M3.623,14.5c-1.504,0-3.123,0-3.123,0l0.848-4c0,0,2.202,0,3.004,0c1.949,0,2.415,1.014,2.415,1.771
			C6.767,13.345,6.068,14.5,3.623,14.5z"/>
		<path d="M11.623,14.5c-1.504,0-3.123,0-3.123,0l0.848-4c0,0,2.202,0,3.004,0c1.949,0,2.415,1.014,2.415,1.771
			C14.767,13.345,14.068,14.5,11.623,14.5z"/>
		<path d="M10.623,20.5c-1.504,0-3.123,0-3.123,0l0.848-4c0,0,2.202,0,3.004,0c1.949,0,2.415,1.014,2.415,1.771
			C13.767,19.345,13.068,20.5,10.623,20.5z"/>
	</g>
</g>
<g id="Frames-24px">
	<rect fill="none" width="24" height="24"/>
</g>
</svg>
