<?xml version="1.0" encoding="utf-8"?>
<!-- Generator: Adobe Illustrator 19.2.1, SVG Export Plug-In . SVG Version: 6.00 Build 0)  -->
<svg version="1.1" xmlns="http://www.w3.org/2000/svg" xmlns:xlink="http://www.w3.org/1999/xlink" x="0px" y="0px" width="24px"
	 height="24px" viewBox="0 0 24 24" enable-background="new 0 0 24 24" xml:space="preserve">
<g id="Filled_Icons">
	<g>
		<g>
			<path d="M19.5,4h-1.691l-0.862-1.724C16.862,2.107,16.69,2,16.5,2h-3c-0.189,0-0.362,0.107-0.447,0.276L12.191,4H10.5
				C9.122,4,8,5.122,8,6.5v6c0,1.378,1.122,2.5,2.5,2.5h9c1.378,0,2.5-1.122,2.5-2.5v-6C22,5.122,20.878,4,19.5,4z M15,13
				c-1.93,0-3.5-1.57-3.5-3.5S13.07,6,15,6s3.5,1.57,3.5,3.5S16.93,13,15,13z"/>
			<circle cx="15" cy="9.5" r="1.5"/>
			<path d="M5.5,4h-3C2.224,4,2,4.224,2,4.5v10C2,14.776,2.224,15,2.5,15h3C5.776,15,6,14.776,6,14.5v-10C6,4.224,5.776,4,5.5,4z"/>
		</g>
		<g>
			<path d="M6.109,17H3.5C3.224,17,3,17.224,3,17.5v6C3,23.776,3.224,24,3.5,24S4,23.776,4,23.5V21h1.398c0.276,0,0.5-0.224,0.5-0.5
				S5.675,20,5.398,20H4v-2h2.109c0.276,0,0.5-0.224,0.5-0.5S6.386,17,6.109,17z"/>
			<path d="M19.5,17c-0.276,0-0.5,0.224-0.5,0.5v2.093c-0.254-0.116-0.504-0.148-0.676-0.148c-0.503,0-1.673,0.223-1.673,2.278
				c0,2.055,1.17,2.277,1.673,2.277c0.196,0,0.494-0.038,0.785-0.202C19.201,23.918,19.338,24,19.5,24c0.276,0,0.5-0.224,0.5-0.5v-6
				C20,17.224,19.776,17,19.5,17z M18.324,23c-0.184,0-0.673,0-0.673-1.277c0-1.278,0.489-1.278,0.673-1.278
				c0.185,0,0.676,0,0.676,1.278C19,23,18.509,23,18.324,23z"/>
			<path d="M9.144,19.445c-0.503,0-1.674,0.223-1.674,2.278c0,2.055,1.17,2.277,1.674,2.277s1.674-0.222,1.674-2.277
				C10.818,19.668,9.648,19.445,9.144,19.445z M9.144,23c-0.184,0-0.674,0-0.674-1.277c0-1.278,0.49-1.278,0.674-1.278
				s0.674,0,0.674,1.278C9.818,23,9.329,23,9.144,23z"/>
			<path d="M13.986,19.445c-0.504,0-1.676,0.223-1.676,2.278c0,2.055,1.172,2.277,1.676,2.277c0.503,0,1.674-0.222,1.674-2.277
				C15.66,19.668,14.49,19.445,13.986,19.445z M13.986,23c-0.185,0-0.676,0-0.676-1.277c0-1.278,0.491-1.278,0.676-1.278
				c0.184,0,0.674,0,0.674,1.278C14.66,23,14.17,23,13.986,23z"/>
		</g>
	</g>
</g>
<g id="Frames-24px">
	<rect fill="none" width="24" height="24"/>
</g>
</svg>
