<?xml version="1.0" encoding="utf-8"?>
<!-- Generator: Adobe Illustrator 19.2.1, SVG Export Plug-In . SVG Version: 6.00 Build 0)  -->
<svg version="1.1" xmlns="http://www.w3.org/2000/svg" xmlns:xlink="http://www.w3.org/1999/xlink" x="0px" y="0px" width="24px"
	 height="24px" viewBox="0 0 24 24" enable-background="new 0 0 24 24" xml:space="preserve">
<g id="Filled_Icons">
	<path d="M11.548,17.947c1.548,0-0.452,5.473,3.548,5.473c2.206,0,5.729-2.523,3.489-6.532c-0.715-1.278,3.853-2.529,3.853-4.388
		c-1.082,0.463-4.145,1.83-8.121,1.825c-2.296-0.002-2.768,1.086-2.768,1.086s-0.472-1.088-2.769-1.086
		c-3.977,0.005-7.234-1.392-8.316-1.854c0,1.859,4.764,3.139,4.049,4.417C2.27,20.896,5.794,23.42,8,23.42
		C12,23.42,10,17.947,11.548,17.947z"/>
	<g>
		<path d="M11.5,11.396c-0.508,0.934-1.369,1.649-2.407,1.949c1.147,0.053,1.94,0.34,2.453,0.675
			c0.501-0.329,1.271-0.612,2.376-0.671C12.878,13.053,12.011,12.335,11.5,11.396z"/>
		<path d="M18.5,0.5h-14c-1.105,0-2,0.896-2,2v9.693c1.011,0.353,2.347,0.738,3.877,0.955C4.979,12.523,4,11.127,4,9.5
			c0-2.205,1.794-4,4-4c1.516,0,2.822,0.857,3.5,2.103C12.178,6.357,13.484,5.5,15,5.5c2.206,0,4,1.795,4,4
			c0,1.638-0.991,3.045-2.403,3.663c1.57-0.215,2.909-0.608,3.903-0.967V2.5C20.5,1.396,19.604,0.5,18.5,0.5z"/>
	</g>
	<circle cx="15" cy="9.5" r="3"/>
	<circle cx="8" cy="9.5" r="3"/>
</g>
<g id="Frames-24px">
	<rect fill="none" width="24" height="24"/>
</g>
</svg>
