<?xml version="1.0" encoding="utf-8"?>
<!-- Generator: Adobe Illustrator 19.2.1, SVG Export Plug-In . SVG Version: 6.00 Build 0)  -->
<svg version="1.1" xmlns="http://www.w3.org/2000/svg" xmlns:xlink="http://www.w3.org/1999/xlink" x="0px" y="0px" width="24px"
	 height="24px" viewBox="0 0 24 24" enable-background="new 0 0 24 24" xml:space="preserve">
<g id="Filled_Icons">
	<g>
		<path d="M16.584,12.785c-0.219-0.108-1.295-0.633-1.494-0.705c-0.201-0.073-0.347-0.109-0.492,0.107
			c-0.146,0.217-0.564,0.706-0.692,0.85c-0.128,0.147-0.255,0.164-0.474,0.056c-0.219-0.108-0.924-0.338-1.759-1.075
			c-0.649-0.575-1.089-1.287-1.217-1.503c-0.127-0.216-0.013-0.335,0.097-0.442c0.368-0.365,0.459-0.568,0.546-0.742
			c0.073-0.145,0.037-0.271-0.017-0.381c-0.055-0.108-0.493-1.176-0.675-1.61C10.2,6.847,9.282,6.83,8.912,7.231
			C7.744,8.498,8.015,9.932,9.04,11.283c0.109,0.144,1.512,2.407,3.735,3.275c2.223,0.869,2.223,0.58,2.624,0.543
			c1.151-0.104,1.933-1.516,1.603-2.064C16.948,12.948,16.803,12.894,16.584,12.785z"/>
		<path d="M12,0C5.383,0,0,5.383,0,12s5.383,12,12,12s12-5.383,12-12S18.617,0,12,0z M12.498,18.442
			c-1.523,0-2.941-0.454-4.126-1.232L5.49,18.127l0.937-2.764C5.529,14.137,4.998,12.628,4.998,11c0-4.103,3.364-7.442,7.5-7.442
			c4.136,0,7.5,3.339,7.5,7.442S16.634,18.442,12.498,18.442z"/>
	</g>
</g>
<g id="Frames-24px">
	<rect fill="none" width="24" height="24"/>
</g>
</svg>
