<?xml version="1.0" encoding="utf-8"?>
<!-- Generator: Adobe Illustrator 19.2.1, SVG Export Plug-In . SVG Version: 6.00 Build 0)  -->
<svg version="1.1" xmlns="http://www.w3.org/2000/svg" xmlns:xlink="http://www.w3.org/1999/xlink" x="0px" y="0px" width="24px"
	 height="24px" viewBox="0 0 24 24" enable-background="new 0 0 24 24" xml:space="preserve">
<g id="Filled_Icons">
	<path d="M12,0C5.383,0,0,5.383,0,12s5.383,12,12,12s12-5.383,12-12S18.617,0,12,0z M5.456,13.5c-0.828,0-1.5-0.67-1.5-1.5
		c0-0.829,0.672-1.5,1.5-1.5c0.829,0,1.5,0.671,1.5,1.5C6.956,12.83,6.285,13.5,5.456,13.5z M11,18.52c-0.828,0-1.5-0.67-1.5-1.5
		c0-0.828,0.672-1.5,1.5-1.5s1.5,0.672,1.5,1.5C12.5,17.85,11.828,18.52,11,18.52z M11,13.5c-0.828,0-1.5-0.67-1.5-1.5
		c0-0.829,0.672-1.5,1.5-1.5s1.5,0.671,1.5,1.5C12.5,12.83,11.828,13.5,11,13.5z M11,8.54c-0.828,0-1.5-0.671-1.5-1.5
		c0-0.826,0.672-1.5,1.5-1.5s1.5,0.674,1.5,1.5C12.5,7.87,11.828,8.54,11,8.54z M16.543,18.52c-0.828,0-1.5-0.67-1.5-1.5
		c0-0.828,0.672-1.5,1.5-1.5c0.829,0,1.5,0.672,1.5,1.5C18.043,17.85,17.372,18.52,16.543,18.52z M16.543,13.5
		c-0.828,0-1.5-0.67-1.5-1.5c0-0.829,0.672-1.5,1.5-1.5c0.829,0,1.5,0.671,1.5,1.5C18.043,12.83,17.372,13.5,16.543,13.5z
		 M16.543,8.54c-0.828,0-1.5-0.671-1.5-1.5c0-0.826,0.672-1.5,1.5-1.5c0.829,0,1.5,0.674,1.5,1.5
		C18.043,7.87,17.372,8.54,16.543,8.54z"/>
</g>
<g id="Frames-24px">
	<rect fill="none" width="24" height="24"/>
</g>
</svg>
