<?xml version="1.0" encoding="utf-8"?>
<!-- Generator: Adobe Illustrator 19.2.1, SVG Export Plug-In . SVG Version: 6.00 Build 0)  -->
<svg version="1.1" xmlns="http://www.w3.org/2000/svg" xmlns:xlink="http://www.w3.org/1999/xlink" x="0px" y="0px" width="24px"
	 height="24px" viewBox="0 0 24 24" enable-background="new 0 0 24 24" xml:space="preserve">
<g id="Filled_Icons">
	<path d="M12,0C5.383,0,0,5.383,0,12s5.383,12,12,12s12-5.383,12-12S18.617,0,12,0z M10.809,17.982
		c-0.009,0.026-0.006,0.055-0.013,0.082l-7.481-5.15c-0.181-0.124-0.259-0.352-0.194-0.561c0.065-0.209,0.259-0.352,0.478-0.352
		h7.771l2.401-7.365c0.066-0.205,0.257-0.343,0.472-0.346c0.001,0,0.003,0,0.003,0c0.214,0,0.404,0.136,0.474,0.338l2.891,8.373
		c-0.004,0-0.008-0.002-0.012-0.002h-1.453l-0.439-1.314c-0.205-0.611-0.778-1.023-1.423-1.023c-0.644,0-1.218,0.412-1.423,1.023
		L12.42,13h-1.451c-0.645,0-1.218,0.412-1.422,1.023c-0.205,0.611,0.004,1.286,0.518,1.674l1.194,0.901L10.809,17.982z
		 M17.898,14.898l-1.764,1.332l0.671,2.062c0.066,0.206-0.006,0.432-0.182,0.56c-0.173,0.127-0.412,0.127-0.587,0l-1.755-1.27
		l-1.755,1.27c-0.087,0.062-0.19,0.096-0.293,0.096c-0.103,0-0.207-0.033-0.294-0.096c-0.176-0.128-0.249-0.354-0.182-0.56
		l0.672-2.062l-1.764-1.332c-0.171-0.129-0.24-0.354-0.172-0.557C10.562,14.137,10.754,14,10.969,14h2.171l0.668-1.996
		c0.137-0.408,0.812-0.408,0.949,0L15.425,14h2.173c0.215,0,0.406,0.137,0.474,0.342C18.14,14.545,18.07,14.769,17.898,14.898z"/>
</g>
<g id="Frames-24px">
	<rect fill="none" width="24" height="24"/>
</g>
</svg>
