<?xml version="1.0" encoding="utf-8"?>
<!-- Generator: Adobe Illustrator 19.2.1, SVG Export Plug-In . SVG Version: 6.00 Build 0)  -->
<svg version="1.1" xmlns="http://www.w3.org/2000/svg" xmlns:xlink="http://www.w3.org/1999/xlink" x="0px" y="0px" width="24px"
	 height="24px" viewBox="0 0 24 24" enable-background="new 0 0 24 24" xml:space="preserve">
<g id="Filled_Icons">
	<path d="M12,0C5.383,0,0,5.383,0,12s5.383,12,12,12s12-5.383,12-12S18.617,0,12,0z M19.5,14.998c0,0.459-0.376,1.02-0.762,1.248
		l-5.556,3.084c-0.386,0.228-1.019,0.228-1.405,0l-5.575-3.078C5.816,16.029,5.5,15.466,5.5,15.006V8.991
		c0-0.46,0.316-1.02,0.702-1.246l5.573-3.077c0.387-0.226,1.018-0.224,1.404,0.002l0.766,0.449c0.422,0.246,0.451,1.018,0.063,1.723
		c-0.388,0.705-0.701,1.277-0.701,1.277c-0.976,1.899-3.099,1.353-3.751,1.332c-0.18-0.006-0.361,0.046-0.519,0.164
		c-0.381,0.284-0.467,0.836-0.192,1.229c0.445,0.64,2.245,0.432,2.926,0.05c-2.259,1.778-2.712,1.466-2.712,1.466
		c-0.407,0.342-0.47,0.962-0.14,1.385c0.958,1.223,2.902-0.578,3.372-1.575c0,0-1.479,3.286-1.289,4.028
		c0.189,0.739,0.933,0.753,1.459,0.462c0.809-0.449,0.12-1.071,0.681-2.973c0.199-0.677,0.815-1.334,1.116-0.986
		c0.578,0.667,0.209,0.721,0.37,1.316c0.341,1.26,2.185,0.73,1.843-0.535c-0.085-0.321-0.847-1.029-1.31-1.719l-0.024-0.037
		c-0.39-0.579-0.432-1.332-0.124-1.963c0.467-0.841,1.801-3.153,2.856-2.536c0.48,0.281,0.869,0.509,0.869,0.509
		C19.124,7.963,19.5,8.524,19.5,8.983V14.998z"/>
</g>
<g id="Frames-24px">
	<rect fill="none" width="24" height="24"/>
</g>
</svg>
