<?xml version="1.0" encoding="utf-8"?>
<!-- Generator: Adobe Illustrator 19.2.1, SVG Export Plug-In . SVG Version: 6.00 Build 0)  -->
<svg version="1.1" xmlns="http://www.w3.org/2000/svg" xmlns:xlink="http://www.w3.org/1999/xlink" x="0px" y="0px" width="24px"
	 height="24px" viewBox="0 0 24 24" enable-background="new 0 0 24 24" xml:space="preserve">
<g id="Filled_Icons">
	<path d="M12,0C5.383,0,0,5.383,0,12s5.383,12,12,12s12-5.383,12-12S18.617,0,12,0z M6.5,16C6.224,16,6,15.776,6,15.5
		S6.224,15,6.5,15C6.775,15,7,15.224,7,15.5S6.775,16,6.5,16z M9,15.5C9,15.776,8.776,16,8.5,16S8,15.776,8,15.5V11l-3.6,4.801
		C4.302,15.932,4.151,16,4,16c-0.105,0-0.21-0.033-0.3-0.1C3.48,15.734,3.435,15.421,3.6,15.2l4.5-6
		c0.13-0.172,0.356-0.243,0.559-0.175C8.862,9.094,9,9.285,9,9.5V15.5z M16.5,10H14v5.5c0,0.276-0.224,0.5-0.5,0.5
		S13,15.776,13,15.5V10h-2.469c-0.276,0-0.5-0.224-0.5-0.5s0.224-0.5,0.5-0.5H16.5C16.776,9,17,9.224,17,9.5S16.776,10,16.5,10z
		 M19,15.5c0,0.276-0.224,0.5-0.5,0.5S18,15.776,18,15.5V9c0-0.276,0.224-0.5,0.5-0.5S19,8.724,19,9V15.5z"/>
</g>
<g id="Frames-24px">
	<rect fill="none" width="24" height="24"/>
</g>
</svg>
