<?xml version="1.0" encoding="utf-8"?>
<!-- Generator: Adobe Illustrator 19.2.1, SVG Export Plug-In . SVG Version: 6.00 Build 0)  -->
<svg version="1.1" xmlns="http://www.w3.org/2000/svg" xmlns:xlink="http://www.w3.org/1999/xlink" x="0px" y="0px" width="24px"
	 height="24px" viewBox="0 0 24 24" enable-background="new 0 0 24 24" xml:space="preserve">
<g id="Filled_Icons">
	<path d="M12,0.004c-6.617,0-12,5.383-12,12s5.383,12,12,12s12-5.383,12-12S18.617,0.004,12,0.004z M4.001,13.477L4.001,13.477
		c0.25-2.336,2.188-3.163,2.472-3.272C5.99,9.823,5.676,9.239,5.676,8.584c0-1.152,0.942-2.084,2.117-2.084
		c1.174,0,2.106,0.932,2.106,2.084c0,0.648-0.341,1.229-0.816,1.611c0.398,0.14,0.712,0.35,1.061,0.624
		c-2.084,1.042-3.419,3.931-3.419,4.738C4.927,15.432,3.978,14.214,4.001,13.477z M8.09,15.991c0.371-3.46,3.248-4.686,3.67-4.848
		h0.001c-0.716-0.566-1.174-1.432-1.174-2.402c0-1.705,1.411-3.086,3.15-3.086s3.15,1.381,3.15,3.086
		c0,0.962-0.428,1.82-1.132,2.386c2.3,0.813,3.719,2.826,3.744,4.874C19.556,20.571,7.963,20.32,8.09,15.991z"/>
</g>
<g id="Frames-24px">
	<rect fill="none" width="24" height="24"/>
</g>
</svg>
