<?xml version="1.0" encoding="utf-8"?>
<!-- Generator: Adobe Illustrator 19.2.1, SVG Export Plug-In . SVG Version: 6.00 Build 0)  -->
<svg version="1.1" xmlns="http://www.w3.org/2000/svg" xmlns:xlink="http://www.w3.org/1999/xlink" x="0px" y="0px" width="24px"
	 height="24px" viewBox="0 0 24 24" enable-background="new 0 0 24 24" xml:space="preserve">
<g id="Filled_Icons">
	<g>
		<path d="M13.5,9H12v5h1.5c0.827,0,1.5-0.673,1.5-1.5v-2C15,9.673,14.327,9,13.5,9z"/>
		<path d="M20,12h-2v2h2c0.552,0,1-0.449,1-1S20.552,12,20,12z"/>
		<path d="M12,0C5.383,0,0,5.383,0,12s5.383,12,12,12s12-5.383,12-12S18.617,0,12,0z M4,14.5C4,14.776,3.776,15,3.5,15
			S3,14.776,3,14.5v-6C3,8.224,3.224,8,3.5,8S4,8.224,4,8.5V14.5z M10,14.5c0,0.276-0.224,0.5-0.5,0.5S9,14.776,9,14.5v-2.824
			l-0.962,2.978C7.973,14.858,7.782,14.998,7.567,15c-0.002,0-0.003,0-0.005,0c-0.213,0-0.403-0.135-0.473-0.338L6,11.492V14.5
			C6,14.776,5.776,15,5.5,15S5,14.776,5,14.5v-6c0-0.244,0.177-0.453,0.418-0.493c0.236-0.041,0.475,0.1,0.555,0.331l1.575,4.581
			l1.476-4.572C9.1,8.112,9.329,7.969,9.578,8.006C9.821,8.045,10,8.254,10,8.5V14.5z M16,12.5c0,1.379-1.121,2.5-2.5,2.5h-2
			c-0.276,0-0.5-0.224-0.5-0.5v-6C11,8.224,11.224,8,11.5,8h2c1.379,0,2.5,1.121,2.5,2.5V12.5z M20,15h-2.5
			c-0.276,0-0.5-0.224-0.5-0.5v-3v-3C17,8.224,17.224,8,17.5,8S18,8.224,18,8.5V11h2c1.103,0,2,0.896,2,2C22,14.102,21.103,15,20,15
			z"/>
	</g>
</g>
<g id="Frames-24px">
	<rect fill="none" width="24" height="24"/>
</g>
</svg>
