<?xml version="1.0" encoding="utf-8"?>
<!-- Generator: Adobe Illustrator 19.2.1, SVG Export Plug-In . SVG Version: 6.00 Build 0)  -->
<svg version="1.1" xmlns="http://www.w3.org/2000/svg" xmlns:xlink="http://www.w3.org/1999/xlink" x="0px" y="0px" width="24px"
	 height="24px" viewBox="0 0 24 24" enable-background="new 0 0 24 24" xml:space="preserve">
<g id="Filled_Icons">
	<path d="M21.025,3.352c-1.62-1.694-3.898-2.743-6.416-2.743H9.39C4.502,0.609,0.5,4.612,0.5,9.5v5.218
		c0,2.639,1.154,5.009,2.998,6.643c1.559,1.409,3.629,2.249,5.892,2.249h5.219h6.911c1.095,0,1.98-0.885,1.98-1.979v-6.912V9.5
		C23.5,7.116,22.555,4.957,21.025,3.352z M9.241,7.684c0.556,0,1,0.441,1,0.994c0,0.551-0.444,1.006-1,1.006
		c-0.556,0-1-0.455-1-1.006C8.241,8.125,8.685,7.684,9.241,7.684z M10.177,14.16l-2.541,4.188c-0.094,0.156-0.259,0.241-0.428,0.241
		c-0.088,0-0.178-0.022-0.259-0.073c-0.236-0.143-0.312-0.449-0.168-0.686l2.541-4.188c0.143-0.236,0.45-0.311,0.687-0.168
		C10.246,13.617,10.321,13.924,10.177,14.16z M14.873,18.375c-0.097,0.14-0.252,0.214-0.41,0.214c-0.099,0-0.199-0.029-0.286-0.091
		c-0.226-0.158-0.281-0.469-0.123-0.695c1.069-1.529,1.634-3.325,1.634-5.193c0-2.103-0.737-4.152-2.075-5.771
		c-0.176-0.213-0.146-0.527,0.067-0.703c0.213-0.177,0.529-0.146,0.704,0.066c1.486,1.797,2.305,4.073,2.305,6.408
		C16.688,14.684,16.06,16.677,14.873,18.375z"/>
</g>
<g id="Frames-24px">
	<rect fill="none" width="24" height="24"/>
</g>
</svg>
