<?xml version="1.0" encoding="utf-8"?>
<!-- Generator: Adobe Illustrator 19.2.1, SVG Export Plug-In . SVG Version: 6.00 Build 0)  -->
<svg version="1.1" xmlns="http://www.w3.org/2000/svg" xmlns:xlink="http://www.w3.org/1999/xlink" x="0px" y="0px" width="24px"
	 height="24px" viewBox="0 0 24 24" enable-background="new 0 0 24 24" xml:space="preserve">
<g id="Filled_Icons">
	<path d="M23,4.5h-4c-0.552,0-1,0.448-1,1c0,0.553,0.448,1,1,1h1.029l-5.103,10.535l-2.066-5.114L15.485,6.5H16c0.552,0,1-0.447,1-1
		c0-0.552-0.448-1-1-1h-2.5c-0.552,0-1,0.448-1,1c0,0.476,0.339,0.856,0.784,0.957L11.85,9.419l-1.192-2.95
		C11.132,6.391,11.5,5.998,11.5,5.5c0-0.552-0.448-1-1-1H8c-0.552,0-1,0.448-1,1c0,0.553,0.448,1,1,1h0.513l2.161,5.348
		l-2.528,5.219L3.876,6.5H5c0.552,0,1-0.447,1-1c0-0.552-0.448-1-1-1H1c-0.552,0-1,0.448-1,1c0,0.553,0.448,1,1,1h0.719
		l5.416,13.406c0.148,0.366,0.498,0.611,0.893,0.625c0.011,0,0.023,0,0.034,0c0.382,0,0.732-0.219,0.9-0.564l2.722-5.617
		l2.232,5.525c0.148,0.366,0.498,0.611,0.894,0.625c0.011,0,0.022,0,0.034,0c0.382,0,0.732-0.219,0.9-0.565L22.252,6.5H23
		c0.552,0,1-0.447,1-1C24,4.948,23.552,4.5,23,4.5z"/>
</g>
<g id="Frames-24px">
	<rect fill="none" width="24" height="24"/>
</g>
</svg>
