<?xml version="1.0" encoding="utf-8"?>
<!-- Generator: Adobe Illustrator 19.2.1, SVG Export Plug-In . SVG Version: 6.00 Build 0)  -->
<svg version="1.1" xmlns="http://www.w3.org/2000/svg" xmlns:xlink="http://www.w3.org/1999/xlink" x="0px" y="0px" width="24px"
	 height="24px" viewBox="0 0 24 24" enable-background="new 0 0 24 24" xml:space="preserve">
<g id="Filled_Icons">
	<path d="M12,0C5.383,0,0,5.383,0,12s5.383,12,12,12s12-5.383,12-12S18.617,0,12,0z M12,5.5c1.749,0,3.334,0.695,4.502,1.818
		c-1.115,1.065-2.395,1.899-3.772,2.505c-0.863-1.426-1.982-2.706-3.337-3.775C10.191,5.697,11.072,5.5,12,5.5z M8.442,6.564
		l0.156,0.118c1.296,0.986,2.362,2.179,3.192,3.51c-1.372,0.479-2.823,0.743-4.313,0.743c-0.621,0-1.249-0.044-1.863-0.131
		C5.944,9.033,6.99,7.516,8.442,6.564z M5.51,11.798c0.651,0.089,1.312,0.136,1.969,0.136c1.666,0,3.289-0.304,4.815-0.86
		c0.2,0.385,0.374,0.781,0.534,1.185c-2.299,0.592-4.423,1.751-6.181,3.426C5.888,14.583,5.466,13.272,5.51,11.798z M13.709,18.265
		C13.164,18.414,12.593,18.5,12,18.5c-1.861,0-3.535-0.786-4.72-2.04l0.013-0.013c1.661-1.597,3.681-2.692,5.865-3.24
		c0.384,1.239,0.602,2.538,0.602,3.879C13.761,17.556,13.74,17.851,13.709,18.265z M14.731,17.894
		c0.015-0.269,0.029-0.535,0.029-0.807c0-1.413-0.227-2.782-0.622-4.089c0.725-0.124,1.461-0.197,2.209-0.197
		c0.568,0,1.339,0.064,2.062,0.171l0.01,0.001C18.09,15.164,16.672,16.991,14.731,17.894z M16.348,11.801
		c-0.856,0-1.701,0.084-2.529,0.234c-0.175-0.458-0.368-0.905-0.591-1.341c1.435-0.643,2.77-1.517,3.938-2.628
		c0.829,1.086,1.328,2.439,1.334,3.909C18.102,11.918,17.2,11.801,16.348,11.801z"/>
</g>
<g id="Frames-24px">
	<rect fill="none" width="24" height="24"/>
</g>
</svg>
