<?xml version="1.0" encoding="utf-8"?>
<!-- Generator: Adobe Illustrator 19.2.1, SVG Export Plug-In . SVG Version: 6.00 Build 0)  -->
<svg version="1.1" xmlns="http://www.w3.org/2000/svg" xmlns:xlink="http://www.w3.org/1999/xlink" x="0px" y="0px" width="24px"
	 height="24px" viewBox="0 0 24 24" enable-background="new 0 0 24 24" xml:space="preserve">
<g id="Filled_Icons">
	<g>
		<path d="M2.598,4.5L6.5,0.71V4.5H2.598z M19.533,3.547c-0.398-0.685-2.477-1.475-3.556-1.475h-2.78c0,0-0.598-1.604-2.697-1.604
			s-2,0.916-2,1.715v3.232L7.417,6.457H3.022c0,0-1.36,0.791-1.36,2.562c0,1.77,0.549,7.94,4.238,8.511
			c4.365,0.676,5.112-1.352,5.112-1.596c0-1.027,0.025-2.584,0.025-2.584s1.279,2.442,3.209,2.442s3.053,1.11,3.053,2.251v2.113
			c0,0-0.072,1.321-1.207,1.321H13.67c0,0-0.795-0.618-0.795-1.474c0-0.857,0.389-1.09,0.842-1.09c0.454,0,0.826,0.053,0.826,0.053
			v-1.801c0,0-3.655-0.023-3.655,2.775c0.001,2.797,1.912,3.516,3.445,3.516h2.497c0,0,4.51-0.58,4.51-9.486
			C21.339,5.061,19.93,4.232,19.533,3.547 M15.049,11.532c0,0,0.22-1.47,1.071-1.47c0.852,0,2.022,1.964,2.022,1.964
			S15.474,11.532,15.049,11.532z"/>
	</g>
</g>
<g id="Frames-24px">
	<rect fill="none" width="24" height="24"/>
</g>
</svg>
