<?xml version="1.0" encoding="utf-8"?>
<!-- Generator: Adobe Illustrator 19.2.1, SVG Export Plug-In . SVG Version: 6.00 Build 0)  -->
<svg version="1.1" xmlns="http://www.w3.org/2000/svg" xmlns:xlink="http://www.w3.org/1999/xlink" x="0px" y="0px" width="24px"
	 height="24px" viewBox="0 0 24 24" enable-background="new 0 0 24 24" xml:space="preserve">
<g id="Filled_Icons">
	<path d="M12,0C5.383,0,0,5.383,0,12s5.383,12,12,12s12-5.383,12-12S18.617,0,12,0z M12.366,19.191c-4.385,0-5.781-2.581-5.781-3.96
		c0-1.146,1.464-1.722,2.308-1.012c0.486,0.417,0.689,1.25,1.144,1.848c0.899,1.192,3.213,1.083,4.243,0.378
		c0.491-0.334,0.729-0.738,0.729-1.23c0-2.913-8.152-0.944-8.152-5.949c0-2.688,2.698-3.777,5.473-3.777
		c4.633,0,5.909,3.099,4.789,4.266c-0.27,0.281-0.61,0.423-1.012,0.423c-1.926,0-0.902-2.521-3.967-2.521
		c-2.035,0-2.703,1.231-2.121,1.939c1.357,1.675,8.12,0.661,8.12,5.338C18.138,17.763,15.499,19.191,12.366,19.191z"/>
</g>
<g id="Frames-24px">
	<rect fill="none" width="24" height="24"/>
</g>
</svg>
