<?xml version="1.0" encoding="utf-8"?>
<!-- Generator: Adobe Illustrator 19.2.1, SVG Export Plug-In . SVG Version: 6.00 Build 0)  -->
<svg version="1.1" xmlns="http://www.w3.org/2000/svg" xmlns:xlink="http://www.w3.org/1999/xlink" x="0px" y="0px" width="24px"
	 height="24px" viewBox="0 0 24 24" enable-background="new 0 0 24 24" xml:space="preserve">
<g id="Filled_Icons">
	<g>
		<path d="M3.873,21.816l11.029-10.356L3.791,1.178C3.322,1.108,2.838,1.199,2.428,1.46C1.85,1.827,1.5,2.465,1.5,3.148v16.703
			c0,0.684,0.35,1.321,0.928,1.688C2.862,21.816,3.38,21.91,3.873,21.816z"/>
		<polygon points="18.573,8.015 6.557,2.375 15.634,10.774 		"/>
		<polygon points="15.639,12.143 6.648,20.584 18.665,14.943 		"/>
		<path d="M22.143,9.689l-2.595-1.217l-3.178,2.982l3.272,3.029l2.5-1.174c0.702-0.33,1.15-1.035,1.15-1.811
			C23.293,10.726,22.845,10.019,22.143,9.689z"/>
	</g>
</g>
<g id="Frames-24px">
	<rect fill="none" width="24" height="24"/>
</g>
</svg>
