<?xml version="1.0" encoding="utf-8"?>
<!-- Generator: Adobe Illustrator 19.2.1, SVG Export Plug-In . SVG Version: 6.00 Build 0)  -->
<svg version="1.1" xmlns="http://www.w3.org/2000/svg" xmlns:xlink="http://www.w3.org/1999/xlink" x="0px" y="0px" width="24px"
	 height="24px" viewBox="0 0 24 24" enable-background="new 0 0 24 24" xml:space="preserve">
<g id="Filled_Icons">
	<g>
		<g>
			<path d="M19.616,12.861c-0.202-0.184-0.386-0.312-0.606-0.459c-0.386-0.259-0.772-0.404-1.23-0.551
				c-0.442-0.148-0.516-0.222-0.35-0.662c0.109-0.313,0.202-0.588,0.238-0.957c0.202-1.653-1.139-2.149-2.664-2.021
				c-0.717,0.056-1.322,0.239-1.948,0.44c-0.404,0.129-1.158,0.552-1.323,0.295c-0.092-0.129,0.019-0.331,0.056-0.46
				c0.238-0.899,0.331-2.149-0.552-2.7c-0.643-0.405-1.764-0.295-2.443-0.056C5.117,6.981-0.486,12.273,0.652,16.48
				c0.257,0.957,0.79,1.672,1.305,2.188c0.866,0.865,2.008,1.506,3.23,1.961c-0.759-0.4-1.399-0.917-1.833-1.566
				c-0.938-1.414-0.569-2.885,0.331-4.023c0.771-0.975,2.076-1.746,3.307-2.15c2.463-0.809,5.513-0.79,7.792,0.643
				c1.47,0.938,2.352,2.664,1.544,4.355c-0.864,1.837-2.903,2.902-4.815,3.345c-0.675,0.148-1.334,0.217-1.98,0.246
				c1.122,0.048,2.253-0.016,3.359-0.22c2.609-0.477,5.108-1.652,6.726-3.747C20.7,16.113,21.049,14.129,19.616,12.861z"/>
		</g>
		<g>
			<path d="M9.153,14.711c-0.147,0.605,0.791,0.643,0.92,0.092c0.054-0.275-0.147-0.479-0.404-0.479
				C9.43,14.324,9.19,14.508,9.153,14.711L9.153,14.711z"/>
		</g>
		<g>
			<path d="M8.407,16.756c0.148-0.717-0.44-1.249-1.14-1.212c-0.661,0.056-1.212,0.515-1.322,1.083
				c-0.166,0.736,0.441,1.269,1.14,1.214C7.746,17.805,8.297,17.345,8.407,16.756L8.407,16.756z"/>
		</g>
		<g>
			<path d="M23.417,10.736c-0.026,0-0.053-0.002-0.08-0.006c-0.273-0.045-0.458-0.301-0.415-0.573C22.974,9.84,23,9.516,23,9.191
				c0-3.309-2.691-6-6-6c-0.635,0-1.262,0.1-1.864,0.295c-0.263,0.084-0.544-0.059-0.63-0.32c-0.086-0.263,0.059-0.545,0.321-0.631
				C15.529,2.308,16.26,2.191,17,2.191c3.86,0,7,3.141,7,7c0,0.377-0.03,0.755-0.089,1.124
				C23.871,10.561,23.659,10.736,23.417,10.736z"/>
		</g>
		<g>
			<path d="M20.273,10.215c-0.052,0-0.105-0.009-0.158-0.026c-0.262-0.087-0.403-0.37-0.316-0.632
				c0.085-0.254,0.128-0.52,0.128-0.791c0-1.379-1.122-2.5-2.5-2.5c-0.291,0-0.576,0.049-0.846,0.146
				c-0.261,0.092-0.546-0.043-0.64-0.302c-0.093-0.261,0.042-0.546,0.302-0.64c0.378-0.137,0.777-0.205,1.184-0.205
				c1.93,0,3.5,1.57,3.5,3.5c0,0.378-0.06,0.75-0.179,1.107C20.678,10.082,20.483,10.215,20.273,10.215z"/>
		</g>
	</g>
</g>
<g id="Frames-24px">
	<rect fill="none" width="24" height="24"/>
</g>
</svg>
