<?xml version="1.0" encoding="utf-8"?>
<!-- Generator: Adobe Illustrator 19.2.1, SVG Export Plug-In . SVG Version: 6.00 Build 0)  -->
<svg version="1.1" xmlns="http://www.w3.org/2000/svg" xmlns:xlink="http://www.w3.org/1999/xlink" x="0px" y="0px" width="24px"
	 height="24px" viewBox="0 0 24 24" enable-background="new 0 0 24 24" xml:space="preserve">
<g id="Filled_Icons">
	<path d="M12,0C5.383,0,0,5.383,0,12s5.383,12,12,12s12-5.383,12-12S18.617,0,12,0z M5.545,14.5c-0.984,0-2.045,0-2.045,0l0.555-3
		c0,0,1.441,0,1.967,0c1.276,0,1.581,0.854,1.581,1.35C7.602,13.553,7.146,14.5,5.545,14.5z M6.199,9.5c-0.984,0-2.045,0-2.045,0
		l0.555-3c0,0,1.442,0,1.968,0c1.275,0,1.581,0.853,1.581,1.35C8.258,8.553,7.801,9.5,6.199,9.5z M11.127,18.5
		c-0.984,0-2.044,0-2.044,0l0.555-3c0,0,1.441,0,1.967,0c1.276,0,1.581,0.854,1.581,1.35C13.186,17.553,12.729,18.5,11.127,18.5z
		 M11.782,13.5c-0.984,0-2.045,0-2.045,0l0.555-3c0,0,1.442,0,1.967,0c1.276,0,1.581,0.854,1.581,1.35
		C13.84,12.553,13.383,13.5,11.782,13.5z M12.436,8.5c-0.984,0-2.044,0-2.044,0l0.555-3c0,0,1.441,0,1.967,0
		c1.275,0,1.58,0.853,1.58,1.35C14.494,7.553,14.037,8.5,12.436,8.5z M17.787,15.5c-0.984,0-2.045,0-2.045,0l0.556-3
		c0,0,1.441,0,1.967,0c1.275,0,1.581,0.854,1.581,1.35C19.846,14.553,19.389,15.5,17.787,15.5z M18.441,10.5
		c-0.984,0-2.044,0-2.044,0l0.555-3c0,0,1.441,0,1.967,0c1.276,0,1.581,0.854,1.581,1.35C20.5,9.553,20.043,10.5,18.441,10.5z"/>
</g>
<g id="Frames-24px">
	<rect fill="none" width="24" height="24"/>
</g>
</svg>
