<?xml version="1.0" encoding="utf-8"?>
<!-- Generator: Adobe Illustrator 19.2.1, SVG Export Plug-In . SVG Version: 6.00 Build 0)  -->
<svg version="1.1" xmlns="http://www.w3.org/2000/svg" xmlns:xlink="http://www.w3.org/1999/xlink" x="0px" y="0px" width="24px"
	 height="24px" viewBox="0 0 24 24" enable-background="new 0 0 24 24" xml:space="preserve">
<g id="Filled_Icons">
	<g>
		<g>
			<path d="M12.111,6.837h-1.596L9.936,9.316h1.029c0.296,0,0.625-0.104,0.926-0.293c0.112-0.072,0.226-0.156,0.329-0.252
				c0.282-0.266,0.482-0.596,0.562-0.929c0.111-0.398,0.037-0.7-0.192-0.864C12.461,6.885,12.296,6.837,12.111,6.837z"/>
			<path d="M19.447,6.169c0.063,0.619,0.039,1.32-0.138,2.123c-0.818,3.713-3.967,6.208-7.836,6.208H8.769l-1.305,5.234
				c-0.111,0.444-0.511,0.757-0.97,0.757H5.101L4.631,22.5H9.51l1.494-5.991h3.485c3.377,0,6.127-2.099,6.859-5.424
				C21.894,8.612,20.896,6.996,19.447,6.169z"/>
		</g>
		<path d="M13.903,2.5H5.589L1.615,19.491h4.879L7.988,13.5h3.485c3.377,0,6.127-2.099,6.859-5.424
			C19.167,4.29,16.393,2.5,13.903,2.5z M13.753,8.076c-0.131,0.543-0.44,1.038-0.851,1.424c-0.148,0.139-0.31,0.261-0.48,0.37
			c-0.443,0.279-0.95,0.447-1.458,0.447H8.675l0.97-4.151l0.076-0.328h2.39c0.412,0,0.775,0.122,1.062,0.328
			C13.716,6.555,13.981,7.263,13.753,8.076z"/>
	</g>
</g>
<g id="Frames-24px">
	<rect fill="none" width="24" height="24"/>
</g>
</svg>
