<?xml version="1.0" encoding="utf-8"?>
<!-- Generator: Adobe Illustrator 19.2.1, SVG Export Plug-In . SVG Version: 6.00 Build 0)  -->
<svg version="1.1" xmlns="http://www.w3.org/2000/svg" xmlns:xlink="http://www.w3.org/1999/xlink" x="0px" y="0px" width="24px"
	 height="24px" viewBox="0 0 24 24" enable-background="new 0 0 24 24" xml:space="preserve">
<g id="Filled_Icons">
	<g>
		<path d="M15.919,11L7.5,11v3h5.277c-0.249,1.777-1.818,3.5-4.527,3.5C5.355,17.5,3,15.145,3,12.25S5.355,7,8.25,7
			c1.268,0,2.492,0.458,3.447,1.29l0.338,0.295l2.202-2.036l-0.398-0.367C12.312,4.775,10.327,4,8.25,4C3.701,4,0,7.701,0,12.25
			s3.701,8.25,8.25,8.25c5.714,0,7.75-4.262,7.75-8.25c0-0.269-0.013-0.535-0.038-0.797L15.919,11z"/>
		<polygon points="22,11 22,9 19,9 19,11 17,11 17,14 19,14 19,16 22,16 22,14 24,14 24,11 		"/>
	</g>
</g>
<g id="Frames-24px">
	<rect fill="none" width="24" height="24"/>
</g>
</svg>
