<?xml version="1.0" encoding="utf-8"?>
<!-- Generator: Adobe Illustrator 19.2.1, SVG Export Plug-In . SVG Version: 6.00 Build 0)  -->
<svg version="1.1" xmlns="http://www.w3.org/2000/svg" xmlns:xlink="http://www.w3.org/1999/xlink" x="0px" y="0px" width="24px"
	 height="24px" viewBox="0 0 24 24" enable-background="new 0 0 24 24" xml:space="preserve">
<g id="Filled_Icons">
	<g>
		<path d="M12,0C5.383,0,0,5.383,0,12s5.383,12,12,12s12-5.383,12-12S18.617,0,12,0z M12.005,4c2.16,0,3.911,1.75,3.911,3.91
			c0,2.159-1.751,3.91-3.911,3.91c-2.159,0-3.91-1.751-3.91-3.91C8.095,5.75,9.846,4,12.005,4z M16.328,17.773
			c0.509,0.51,0.509,1.335,0,1.846c-0.509,0.508-1.334,0.508-1.844,0l-2.457-2.459l-2.458,2.459c-0.51,0.508-1.335,0.508-1.844,0
			c-0.509-0.511-0.509-1.336,0-1.846l2.294-2.293c-0.977-0.274-1.875-0.738-2.644-1.359c-0.462-0.371-0.481-1.072-0.065-1.496
			l0.089-0.09c0.377-0.385,0.972-0.393,1.395-0.061c0.886,0.693,2,1.107,3.211,1.107c1.209,0,2.321-0.412,3.206-1.103
			c0.426-0.33,1.023-0.322,1.398,0.065l0.084,0.087c0.414,0.427,0.393,1.131-0.071,1.502c-0.757,0.607-1.639,1.064-2.598,1.336
			L16.328,17.773z"/>
		<circle cx="12.005" cy="7.91" r="1.738"/>
	</g>
</g>
<g id="Frames-24px">
	<rect fill="none" width="24" height="24"/>
</g>
</svg>
