<?xml version="1.0" encoding="utf-8"?>
<!-- Generator: Adobe Illustrator 19.2.1, SVG Export Plug-In . SVG Version: 6.00 Build 0)  -->
<svg version="1.1" xmlns="http://www.w3.org/2000/svg" xmlns:xlink="http://www.w3.org/1999/xlink" x="0px" y="0px" width="24px"
	 height="24px" viewBox="0 0 24 24" enable-background="new 0 0 24 24" xml:space="preserve">
<g id="Filled_Icons">
	<path d="M12,0C5.383,0,0,5.383,0,12s5.383,12,12,12s12-5.383,12-12S18.617,0,12,0z M10.55,7.897
		c0.163-0.225,0.477-0.273,0.698-0.111l4.139,2.998c0.224,0.162,0.274,0.475,0.112,0.699c-0.098,0.134-0.251,0.205-0.405,0.205
		c-0.102,0-0.205-0.03-0.293-0.095l-4.139-2.998C10.439,8.434,10.388,8.12,10.55,7.897z M9.044,10.379
		c0.113-0.253,0.407-0.365,0.66-0.254l4.671,2.074c0.252,0.111,0.366,0.407,0.254,0.66c-0.083,0.186-0.266,0.297-0.457,0.297
		c-0.068,0-0.137-0.014-0.203-0.043l-4.671-2.074C9.046,10.927,8.932,10.631,9.044,10.379z M8.085,13.119
		c0.058-0.269,0.328-0.439,0.593-0.385l5,1.059c0.271,0.058,0.443,0.323,0.386,0.593c-0.05,0.235-0.258,0.397-0.488,0.397
		c-0.035,0-0.069-0.002-0.104-0.011l-5-1.06C8.2,13.654,8.027,13.39,8.085,13.119z M8.216,15.5h5.11c0.276,0,0.5,0.224,0.5,0.5
		s-0.224,0.5-0.5,0.5h-5.11c-0.276,0-0.5-0.224-0.5-0.5S7.939,15.5,8.216,15.5z M16,17.278C16,18.261,15.263,19,14.285,19H7.777
		C6.78,19,6,18.244,6,17.278V13.5C6,13.224,6.224,13,6.5,13S7,13.224,7,13.5v3.778C7,17.69,7.334,18,7.777,18h6.508
		C14.713,18,15,17.71,15,17.278V13.5c0-0.276,0.224-0.5,0.5-0.5s0.5,0.224,0.5,0.5V17.278z M16.636,10.314
		c-0.096,0.086-0.215,0.128-0.335,0.128c-0.137,0-0.273-0.056-0.371-0.165l-3.426-3.791c-0.185-0.205-0.169-0.522,0.036-0.707
		c0.204-0.185,0.521-0.169,0.706,0.036l3.426,3.792C16.856,9.811,16.841,10.129,16.636,10.314z M17.991,9.408
		c-0.079,0.046-0.165,0.067-0.251,0.067c-0.172,0-0.34-0.089-0.433-0.249l-2.564-4.42c-0.139-0.239-0.058-0.545,0.182-0.684
		c0.236-0.139,0.544-0.059,0.684,0.182l2.564,4.42C18.312,8.963,18.23,9.269,17.991,9.408z"/>
</g>
<g id="Frames-24px">
	<rect fill="none" width="24" height="24"/>
</g>
</svg>
