<?xml version="1.0" encoding="utf-8"?>
<!-- Generator: Adobe Illustrator 19.2.1, SVG Export Plug-In . SVG Version: 6.00 Build 0)  -->
<svg version="1.1" xmlns="http://www.w3.org/2000/svg" xmlns:xlink="http://www.w3.org/1999/xlink" x="0px" y="0px" width="24px"
	 height="24px" viewBox="0 0 24 24" enable-background="new 0 0 24 24" xml:space="preserve">
<g id="Filled_Icons">
	<g>
		<circle cx="8.75" cy="10.215" r="0.5"/>
		<circle cx="8.75" cy="5.793" r="0.5"/>
		<circle cx="8.75" cy="15.215" r="0.5"/>
		<circle cx="14.25" cy="8.793" r="0.5"/>
		<circle cx="14.25" cy="18.215" r="0.5"/>
		<path d="M12,0.004c-6.617,0-12,5.383-12,12s5.383,12,12,12s12-5.383,12-12S18.617,0.004,12,0.004z M12.75,13.215
			c0-0.827,0.673-1.5,1.5-1.5s1.5,0.673,1.5,1.5c0,0.827-0.673,1.5-1.5,1.5c-0.337,0-0.644-0.116-0.896-0.304L12,15.265v3.817
			l0.8-0.504c-0.029-0.117-0.05-0.238-0.05-0.364c0-0.827,0.673-1.5,1.5-1.5s1.5,0.673,1.5,1.5c0,0.827-0.673,1.5-1.5,1.5
			c-0.337,0-0.644-0.116-0.896-0.304L12,20.265v0.739h-1v-3.742L9.658,16.4c-0.253,0.194-0.565,0.314-0.908,0.314
			c-0.827,0-1.5-0.673-1.5-1.5c0-0.827,0.673-1.5,1.5-1.5s1.5,0.673,1.5,1.5c0,0.12-0.018,0.236-0.045,0.348L11,16.073v-3.812
			l-1.339-0.863c-0.254,0.195-0.567,0.316-0.911,0.316c-0.827,0-1.5-0.673-1.5-1.5c0-0.827,0.673-1.5,1.5-1.5s1.5,0.673,1.5,1.5
			c0,0.119-0.018,0.234-0.044,0.345L11,11.073V7.839L9.661,6.976C9.408,7.172,9.094,7.293,8.75,7.293c-0.827,0-1.5-0.673-1.5-1.5
			c0-0.827,0.673-1.5,1.5-1.5s1.5,0.673,1.5,1.5c0,0.119-0.018,0.233-0.044,0.345L11,6.65V4.004h1V9.65l0.794-0.512
			c-0.026-0.111-0.044-0.226-0.044-0.345c0-0.827,0.673-1.5,1.5-1.5s1.5,0.673,1.5,1.5c0,0.827-0.673,1.5-1.5,1.5
			c-0.345,0-0.658-0.121-0.911-0.317L12,10.839v3.244l0.8-0.504C12.771,13.462,12.75,13.341,12.75,13.215z"/>
		<circle cx="14.25" cy="13.215" r="0.5"/>
	</g>
</g>
<g id="Frames-24px">
	<rect fill="none" width="24" height="24"/>
</g>
</svg>
