<?xml version="1.0" encoding="utf-8"?>
<!-- Generator: Adobe Illustrator 19.2.1, SVG Export Plug-In . SVG Version: 6.00 Build 0)  -->
<svg version="1.1" xmlns="http://www.w3.org/2000/svg" xmlns:xlink="http://www.w3.org/1999/xlink" x="0px" y="0px" width="24px"
	 height="24px" viewBox="0 0 24 24" enable-background="new 0 0 24 24" xml:space="preserve">
<g id="Filled_Icons">
	<g>
		<path d="M12,0C5.383,0,0,5.383,0,12s5.383,12,12,12s12-5.383,12-12S18.617,0,12,0z M12,21c-4.963,0-9-4.038-9-9s4.037-9,9-9
			s9,4.038,9,9S16.963,21,12,21z"/>
		<circle cx="12" cy="12" r="2"/>
		<path d="M12.875,8.73c1.176,0.305,2.094,1.223,2.396,2.397c0.057,0.221,0.256,0.375,0.484,0.375h0.001l2.283-0.002
			c0.146,0,0.284-0.064,0.38-0.176c0.095-0.111,0.136-0.258,0.113-0.402c-0.447-2.812-2.638-5.004-5.449-5.453
			c-0.144-0.024-0.292,0.018-0.403,0.112c-0.111,0.095-0.176,0.234-0.176,0.38L12.5,8.245C12.5,8.474,12.653,8.673,12.875,8.73z"/>
		<path d="M5.959,11.5h2.284c0.226,0,0.424-0.151,0.482-0.37c0.309-1.142,1.273-2.107,2.4-2.4C11.347,8.672,11.5,8.474,11.5,8.246
			V5.96c0-0.146-0.064-0.285-0.176-0.38c-0.111-0.095-0.265-0.137-0.402-0.113C8.153,5.905,5.91,8.148,5.465,10.921
			c-0.022,0.145,0.019,0.292,0.113,0.403C5.674,11.436,5.812,11.5,5.959,11.5z"/>
		<path d="M18.029,12.502L15.745,12.5c-0.229,0-0.428,0.154-0.484,0.375c-0.301,1.171-1.216,2.09-2.388,2.397
			c-0.22,0.058-0.373,0.256-0.373,0.484v2.285c0,0.146,0.064,0.286,0.176,0.381c0.091,0.077,0.206,0.119,0.324,0.119
			c1.463,0,4.924-1.685,5.523-5.462c0.023-0.144-0.018-0.292-0.114-0.403C18.315,12.566,18.176,12.502,18.029,12.502z"/>
		<path d="M11.132,15.276c-1.149-0.314-2.116-1.279-2.404-2.401C8.671,12.654,8.472,12.5,8.243,12.5H8.242L5.96,12.504
			c-0.147,0.001-0.285,0.065-0.38,0.176c-0.095,0.111-0.136,0.258-0.113,0.403c0.578,3.629,3.999,5.459,5.533,5.459
			c0.118,0,0.233-0.042,0.324-0.119c0.111-0.095,0.176-0.234,0.176-0.381v-2.283C11.5,15.533,11.35,15.335,11.132,15.276z"/>
	</g>
</g>
<g id="Frames-24px">
	<rect fill="none" width="24" height="24"/>
</g>
</svg>
