<?xml version="1.0" encoding="utf-8"?>
<!-- Generator: Adobe Illustrator 19.2.1, SVG Export Plug-In . SVG Version: 6.00 Build 0)  -->
<svg version="1.1" xmlns="http://www.w3.org/2000/svg" xmlns:xlink="http://www.w3.org/1999/xlink" x="0px" y="0px" width="24px"
	 height="24px" viewBox="0 0 24 24" enable-background="new 0 0 24 24" xml:space="preserve">
<g id="Filled_Icons">
	<path d="M12.5,15.498l2.087-1.492c0.384,0.24,0.834,0.385,1.319,0.385c1.378,0,2.5-1.121,2.5-2.5s-1.122-2.5-2.5-2.5
		c-1.378,0-2.5,1.121-2.5,2.5c0,0.16,0.019,0.314,0.047,0.466L12.5,13.039V9.077l2.089-1.493c0.384,0.24,0.833,0.385,1.317,0.385
		c1.378,0,2.5-1.121,2.5-2.5c0-1.379-1.122-2.5-2.5-2.5c-1.378,0-2.5,1.121-2.5,2.5c0,0.162,0.019,0.317,0.047,0.469L12.5,6.619V0
		h-2v3.619L9.549,2.94C9.575,2.797,9.594,2.65,9.594,2.5c0-1.379-1.122-2.5-2.5-2.5c-1.378,0-2.5,1.121-2.5,2.5S5.715,5,7.094,5
		c0.494,0,0.953-0.148,1.341-0.398L10.5,6.077v3.964L9.546,9.359c0.029-0.152,0.047-0.309,0.047-0.469c0-1.379-1.122-2.5-2.5-2.5
		c-1.378,0-2.5,1.121-2.5,2.5s1.122,2.5,2.5,2.5c0.484,0,0.934-0.144,1.317-0.385l2.089,1.492v4.543L9.546,16.36
		c0.029-0.153,0.047-0.31,0.047-0.47c0-1.379-1.122-2.5-2.5-2.5c-1.378,0-2.5,1.121-2.5,2.5s1.122,2.5,2.5,2.5
		c0.484,0,0.933-0.145,1.317-0.384l2.09,1.491V24h2v-1.502l2.09-1.491c0.383,0.239,0.832,0.384,1.316,0.384
		c1.378,0,2.5-1.121,2.5-2.5s-1.122-2.5-2.5-2.5c-1.378,0-2.5,1.121-2.5,2.5c0,0.16,0.019,0.316,0.047,0.47L12.5,20.041V15.498z
		 M15.906,10.891c0.551,0,1,0.449,1,1c0,0.551-0.449,1-1,1c-0.551,0-1-0.449-1-1C14.906,11.34,15.355,10.891,15.906,10.891z
		 M15.906,4.469c0.551,0,1,0.449,1,1c0,0.551-0.449,1-1,1c-0.551,0-1-0.449-1-1C14.906,4.918,15.355,4.469,15.906,4.469z M7.094,1.5
		c0.551,0,1,0.449,1,1s-0.449,1-1,1c-0.551,0-1-0.449-1-1S6.543,1.5,7.094,1.5z M7.094,7.891c0.551,0,1,0.449,1,1
		c0,0.551-0.449,1-1,1c-0.551,0-1-0.449-1-1C6.094,8.34,6.543,7.891,7.094,7.891z M7.094,14.891c0.551,0,1,0.449,1,1s-0.449,1-1,1
		c-0.551,0-1-0.449-1-1S6.543,14.891,7.094,14.891z M15.906,17.891c0.551,0,1,0.449,1,1s-0.449,1-1,1c-0.551,0-1-0.449-1-1
		S15.355,17.891,15.906,17.891z"/>
</g>
<g id="Frames-24px">
	<rect fill="none" width="24" height="24"/>
</g>
</svg>
