<?xml version="1.0" encoding="utf-8"?>
<!-- Generator: Adobe Illustrator 19.2.1, SVG Export Plug-In . SVG Version: 6.00 Build 0)  -->
<svg version="1.1" xmlns="http://www.w3.org/2000/svg" xmlns:xlink="http://www.w3.org/1999/xlink" x="0px" y="0px" width="24px"
	 height="24px" viewBox="0 0 24 24" enable-background="new 0 0 24 24" xml:space="preserve">
<g id="Filled_Icons">
	<path d="M12,1.5c-6.352,0-11.5,4.201-11.5,9.383c0,2.625,1.321,4.998,3.45,6.7c0.227,1.672-0.74,3.399-2.588,5.166
		c0,0,7.614-2.8,8.139-2.706c0.805,0.146,1.641,0.222,2.499,0.222c6.352,0,11.5-4.201,11.5-9.382C23.5,5.701,18.352,1.5,12,1.5z
		 M17.565,16.411c-0.088,0.063-0.19,0.094-0.29,0.094c-0.156,0-0.31-0.073-0.407-0.209c-0.161-0.224-0.109-0.537,0.115-0.697
		c1.599-1.146,2.517-2.787,2.517-4.502c0-2.759-2.323-5.161-5.649-5.841c-0.271-0.055-0.445-0.319-0.39-0.59
		c0.055-0.27,0.32-0.446,0.59-0.389c3.797,0.777,6.449,3.581,6.449,6.821C20.5,13.139,19.431,15.075,17.565,16.411z"/>
</g>
<g id="Frames-24px">
	<rect fill="none" width="24" height="24"/>
</g>
</svg>
