<?xml version="1.0" encoding="utf-8"?>
<!-- Generator: Adobe Illustrator 19.2.1, SVG Export Plug-In . SVG Version: 6.00 Build 0)  -->
<svg version="1.1" xmlns="http://www.w3.org/2000/svg" xmlns:xlink="http://www.w3.org/1999/xlink" x="0px" y="0px" width="24px"
	 height="24px" viewBox="0 0 24 24" enable-background="new 0 0 24 24" xml:space="preserve">
<g id="Filled_Icons">
	<g>
		<path d="M3.808,5.082C8.756,2.268,15.15,2.27,20.098,5.088c0.078,0.045,0.163,0.066,0.247,0.066c0.174,0,0.343-0.092,0.435-0.252
			c0.137-0.241,0.053-0.547-0.187-0.684C15.345,1.23,8.562,1.227,3.313,4.215c-0.24,0.135-0.324,0.441-0.188,0.68
			C3.263,5.135,3.569,5.219,3.808,5.082z"/>
		<path d="M18.677,7.986c0.161,0,0.318-0.078,0.415-0.221c0.155-0.229,0.095-0.539-0.134-0.693
			c-4.06-2.746-9.764-2.787-13.871-0.101C4.856,7.123,4.792,7.434,4.943,7.664C5.094,7.894,5.404,7.96,5.635,7.81
			C9.413,5.336,14.662,5.373,18.397,7.9C18.483,7.957,18.581,7.986,18.677,7.986z"/>
		<path d="M16.879,9.738c-2.808-2.38-7.255-2.345-10.008,0.116c-0.206,0.185-0.224,0.501-0.04,0.706
			c0.147,0.186,0.483,0.235,0.706,0.041c2.258-2.021,6.278-2.273,8.82,0c0.218,0.188,0.536,0.15,0.706-0.041l0,0h0
			C17.317,10.277,17.169,9.981,16.879,9.738z"/>
		<path d="M11.947,12.039c-5.401,0-9.891,4.045-10.445,9.41c-0.014,0.141,0.032,0.281,0.127,0.386C1.724,21.94,1.858,22,2,22h4.815
			c0.237,0,0.442-0.168,0.49-0.4c0.45-2.201,2.402-3.799,4.642-3.799c2.212,0,4.187,1.976,4.643,3.819
			c0.055,0.224,0.255,0.38,0.485,0.38h4.82c0.142,0,0.276-0.06,0.371-0.165c0.095-0.104,0.141-0.245,0.126-0.386
			C21.848,16.085,17.357,12.039,11.947,12.039z"/>
	</g>
</g>
<g id="Frames-24px">
	<rect fill="none" width="24" height="24"/>
</g>
</svg>
