<?xml version="1.0" encoding="utf-8"?>
<!-- Generator: Adobe Illustrator 19.2.1, SVG Export Plug-In . SVG Version: 6.00 Build 0)  -->
<svg version="1.1" xmlns="http://www.w3.org/2000/svg" xmlns:xlink="http://www.w3.org/1999/xlink" x="0px" y="0px" width="24px"
	 height="24px" viewBox="0 0 24 24" enable-background="new 0 0 24 24" xml:space="preserve">
<g id="Filled_Icons">
	<path d="M12,0C5.383,0,0,5.383,0,12s5.383,12,12,12s12-5.383,12-12S18.617,0,12,0z M4.5,16.413c-0.081,0-0.162-0.019-0.236-0.06
		C4.102,16.268,4,16.098,4,15.913V8.086c0-0.184,0.102-0.354,0.264-0.44C4.427,7.559,4.623,7.568,4.777,7.67l5.869,3.914
		c0.139,0.093,0.223,0.249,0.223,0.416s-0.084,0.323-0.223,0.416l-5.869,3.913C4.693,16.385,4.597,16.413,4.5,16.413z
		 M12.979,19.021c-2.349,0-4.492-1.154-5.804-3.088l2.454-1.637c0.733,1.066,1.96,1.77,3.35,1.77c2.242,0,4.066-1.824,4.066-4.066
		s-1.824-4.066-4.066-4.066c-1.39,0-2.617,0.703-3.351,1.77L7.174,8.066c1.31-1.934,3.458-3.089,5.805-3.089
		C16.851,4.977,20,8.128,20,12C20,15.871,16.851,19.021,12.979,19.021z"/>
</g>
<g id="Frames-24px">
	<rect fill="none" width="24" height="24"/>
</g>
</svg>
