<?xml version="1.0" encoding="utf-8"?>
<!-- Generator: Adobe Illustrator 19.2.1, SVG Export Plug-In . SVG Version: 6.00 Build 0)  -->
<svg version="1.1" xmlns="http://www.w3.org/2000/svg" xmlns:xlink="http://www.w3.org/1999/xlink" x="0px" y="0px" width="24px"
	 height="24px" viewBox="0 0 24 24" enable-background="new 0 0 24 24" xml:space="preserve">
<g id="Filled_Icons">
	<path d="M12,0C5.383,0,0,5.383,0,12s5.383,12,12,12s12-5.383,12-12S18.617,0,12,0z M4.5,10.5h3.84l-1.719,3H4.5V10.5z
		 M7.377,17.229L6.715,17.68c-0.083,0.057-0.258,0.116-0.358,0.116c-0.142,0-0.321-0.079-0.416-0.185
		c-0.095-0.106-0.16-0.342-0.145-0.483l0.088-0.771c0.043-0.329,0.301-0.561,0.612-0.561c0.087,0,0.25,0.045,0.325,0.087
		l0.511,0.293c0.193,0.111,0.314,0.303,0.322,0.513C7.664,16.9,7.56,17.102,7.377,17.229z M7.312,15.811
		c-0.085,0-0.17-0.021-0.248-0.066c-0.24-0.138-0.323-0.443-0.186-0.683l4.062-7.092c0.137-0.241,0.443-0.322,0.682-0.185
		c0.24,0.137,0.323,0.442,0.186,0.682L7.746,15.56C7.654,15.721,7.485,15.811,7.312,15.811z M10.079,13.5l1.718-3h1.144l1.477,3
		H10.079z M11.856,6.032c-0.122-0.247-0.02-0.547,0.228-0.669c0.248-0.12,0.547-0.02,0.669,0.228l4.57,9.282
		c0.122,0.248,0.021,0.547-0.228,0.669c-0.071,0.035-0.146,0.051-0.221,0.051c-0.185,0-0.361-0.103-0.448-0.279L11.856,6.032z
		 M18.302,17.611c-0.105,0.117-0.257,0.185-0.416,0.185c-0.101,0-0.276-0.06-0.359-0.117l-0.657-0.447
		c-0.188-0.13-0.291-0.332-0.281-0.543c0.01-0.211,0.131-0.403,0.325-0.512l0.506-0.292c0.075-0.043,0.239-0.089,0.327-0.089
		c0.312,0,0.569,0.232,0.611,0.553l0.089,0.775C18.462,17.267,18.397,17.504,18.302,17.611z M19.5,13.5h-1.737l-1.477-3H19.5V13.5z"
		/>
</g>
<g id="Frames-24px">
	<rect fill="none" width="24" height="24"/>
</g>
</svg>
