<?xml version="1.0" encoding="utf-8"?>
<!-- Generator: Adobe Illustrator 19.2.1, SVG Export Plug-In . SVG Version: 6.00 Build 0)  -->
<svg version="1.1" xmlns="http://www.w3.org/2000/svg" xmlns:xlink="http://www.w3.org/1999/xlink" x="0px" y="0px" width="24px"
	 height="24px" viewBox="0 0 24 24" enable-background="new 0 0 24 24" xml:space="preserve">
<g id="Filled_Icons">
	<g>
		<path d="M12,0C5.383,0,0,5.383,0,12s5.383,12,12,12s12-5.383,12-12S18.617,0,12,0z M17.892,15.854l1.024,2.468l-2.457-0.888
			C15.255,18.413,13.72,19,12.048,19c-3.866,0-7-3.133-7-7s3.134-7,7-7c3.866,0,7,3.133,7,7
			C19.048,13.425,18.622,14.748,17.892,15.854L17.892,15.854z"/>
		<path d="M15.481,9.18c-0.089-0.376-0.43-0.615-0.763-0.538l-1.413,0.331c-0.41-0.301-0.918-0.479-1.467-0.479
			c-0.96,0-1.792,0.544-2.205,1.343L8.174,10.18C7.842,10.257,7.643,10.625,7.731,11l0.953,4.059
			c0.088,0.375,0.43,0.618,0.763,0.539l6.543-1.537c0.333-0.078,0.531-0.445,0.443-0.822L15.481,9.18z M12.189,13.303
			c-0.691,0-1.25-0.559-1.25-1.25c0-0.691,0.559-1.25,1.25-1.25c0.69,0,1.25,0.559,1.25,1.25
			C13.439,12.743,12.88,13.303,12.189,13.303z"/>
	</g>
</g>
<g id="Frames-24px">
	<rect fill="none" width="24" height="24"/>
</g>
</svg>
