<?xml version="1.0" encoding="utf-8"?>
<!-- Generator: Adobe Illustrator 19.2.1, SVG Export Plug-In . SVG Version: 6.00 Build 0)  -->
<svg version="1.1" xmlns="http://www.w3.org/2000/svg" xmlns:xlink="http://www.w3.org/1999/xlink" x="0px" y="0px" width="24px"
	 height="24px" viewBox="0 0 24 24" enable-background="new 0 0 24 24" xml:space="preserve">
<g id="Filled_Icons">
	<g>
		<path d="M8.01,11.697c-0.044,2.471,1.674,4.676,4.195,4.676c2.279,0,4.141-1.789,4.141-4.014c0-1.973-1.48-3.607-3.418-3.939
			c0.045-1.369,0.457-2.951,2.221-3.214c-0.005-0.003-0.01-0.005-0.016-0.007C12.736,4.74,8.01,6.598,8.01,11.697z"/>
		<path d="M12,0C5.383,0,0,5.383,0,12s5.383,12,12,12s12-5.383,12-12S18.617,0,12,0z M11.984,19.5c-4.137,0-7.484-3.348-7.484-7.516
			C4.5,7.848,7.848,4.5,11.984,4.5c1.123,0,2.188,0.255,3.148,0.699c0.01,0.002,0.021,0.002,0.029,0.004
			c-0.005,0-0.009,0.002-0.014,0.003c2.558,1.189,4.352,3.766,4.352,6.778C19.5,16.152,16.121,19.5,11.984,19.5z"/>
	</g>
</g>
<g id="Frames-24px">
	<rect fill="none" width="24" height="24"/>
</g>
</svg>
