<?xml version="1.0" encoding="utf-8"?>
<!-- Generator: Adobe Illustrator 19.2.1, SVG Export Plug-In . SVG Version: 6.00 Build 0)  -->
<svg version="1.1" xmlns="http://www.w3.org/2000/svg" xmlns:xlink="http://www.w3.org/1999/xlink" x="0px" y="0px" width="24px"
	 height="24px" viewBox="0 0 24 24" enable-background="new 0 0 24 24" xml:space="preserve">
<g id="Filled_Icons">
	<path d="M12,0C5.383,0,0,5.383,0,12s5.383,12,12,12s12-5.383,12-12S18.617,0,12,0z M17,7h-1.5C14.673,7,14,7.673,14,8.5V10h3v1h-3
		v7h-1v-7H9v7H8v-7H6v-1h2V8.5C8,7.122,9.121,6,10.5,6H12v1h-1.5C9.673,7,9,7.673,9,8.5V10h4V8.5C13,7.122,14.121,6,15.5,6H17V7z"/>
</g>
<g id="Frames-24px">
	<rect fill="none" width="24" height="24"/>
</g>
</svg>
