<?xml version="1.0" encoding="utf-8"?>
<!-- Generator: Adobe Illustrator 19.2.1, SVG Export Plug-In . SVG Version: 6.00 Build 0)  -->
<svg version="1.1" xmlns="http://www.w3.org/2000/svg" xmlns:xlink="http://www.w3.org/1999/xlink" x="0px" y="0px" width="24px"
	 height="24px" viewBox="0 0 24 24" enable-background="new 0 0 24 24" xml:space="preserve">
<g id="Filled_Icons">
	<g>
		<path d="M16.5,10c-1.207,0-2.218,0.86-2.45,2h4.9C18.718,10.86,17.707,10,16.5,10z"/>
		<path d="M12,0C5.383,0,0,5.383,0,12s5.383,12,12,12s12-5.383,12-12S18.617,0,12,0z M12,15.5c0,0.276-0.224,0.5-0.5,0.5
			S11,15.776,11,15.5V11c0-0.551-0.448-1-1-1s-1,0.449-1,1v4.5C9,15.776,8.776,16,8.5,16S8,15.776,8,15.5V11c0-0.551-0.448-1-1-1
			s-1,0.449-1,1v4.5C6,15.776,5.776,16,5.5,16S5,15.776,5,15.5V11V9c0-0.276,0.224-0.5,0.5-0.5S6,8.724,6,9v0.278
			C6.295,9.106,6.634,9,7,9c0.6,0,1.133,0.271,1.5,0.691C8.867,9.271,9.4,9,10,9c1.102,0,2,0.897,2,2V15.5z M19.5,13h-5.45
			c0.232,1.14,1.243,2,2.45,2c0.668,0,1.296-0.26,1.768-0.732c0.195-0.195,0.512-0.195,0.707,0c0.195,0.195,0.195,0.513,0,0.707
			C18.315,15.636,17.435,16,16.5,16c-1.93,0-3.5-1.57-3.5-3.5S14.57,9,16.5,9s3.5,1.57,3.5,3.5C20,12.776,19.776,13,19.5,13z"/>
	</g>
</g>
<g id="Frames-24px">
	<rect fill="none" width="24" height="24"/>
</g>
</svg>
