<?xml version="1.0" encoding="utf-8"?>
<!-- Generator: Adobe Illustrator 19.2.1, SVG Export Plug-In . SVG Version: 6.00 Build 0)  -->
<svg version="1.1" xmlns="http://www.w3.org/2000/svg" xmlns:xlink="http://www.w3.org/1999/xlink" x="0px" y="0px" width="24px"
	 height="24px" viewBox="0 0 24 24" enable-background="new 0 0 24 24" xml:space="preserve">
<g id="Filled_Icons">
	<path d="M12,0C5.383,0,0,5.383,0,12s5.383,12,12,12s12-5.383,12-12S18.617,0,12,0z M12,20c-4.411,0-8-3.589-8-8
		c0-2.953,1.613-5.531,4-6.918V12l0,0l0,0c0,2.205,1.794,4,4,4s4-1.795,4-4s-1.794-4-4-4c-1.2,0-2.267,0.543-3,1.383V4.589
		C9.928,4.212,10.939,4,12,4c4.411,0,8,3.589,8,8S16.411,20,12,20z M12,9c1.654,0,3,1.346,3,3s-1.346,3-3,3s-3-1.346-3-3
		S10.346,9,12,9z"/>
</g>
<g id="Frames-24px">
	<rect fill="none" width="24" height="24"/>
</g>
</svg>
