<?xml version="1.0" encoding="utf-8"?>
<!-- Generator: Adobe Illustrator 19.2.1, SVG Export Plug-In . SVG Version: 6.00 Build 0)  -->
<svg version="1.1" xmlns="http://www.w3.org/2000/svg" xmlns:xlink="http://www.w3.org/1999/xlink" x="0px" y="0px" width="24px"
	 height="24px" viewBox="0 0 24 24" enable-background="new 0 0 24 24" xml:space="preserve">
<g id="Filled_Icons">
	<path d="M12,0C5.383,0,0,5.383,0,12s5.383,12,12,12s12-5.383,12-12S18.617,0,12,0z M18.604,17.114L18.485,17.6
		C18.43,17.828,18.226,17.98,18,17.98c-0.1,0-0.496-0.106-0.604-0.133c-0.268-0.065-0.432-0.336-0.367-0.604l0.119-0.486
		c0.031-0.129,0.112-0.24,0.226-0.309c0.114-0.068,0.25-0.088,0.378-0.059l0.486,0.119c0.129,0.032,0.24,0.113,0.31,0.227
		C18.615,16.849,18.637,16.985,18.604,17.114z M18.687,16.104l-0.971-0.237l0.949-3.886l0.971,0.238L18.687,16.104z M20,10h-2.339
		L13.5,14.113V17H16v1H8v-1h2.5v-2.87L6.532,9H4V8h7v1H8.993c0.801,1.088,2.675,3.634,3.08,4.194L15.486,10H14V9h6V10z"/>
</g>
<g id="Frames-24px">
	<rect fill="none" width="24" height="24"/>
</g>
</svg>
