<?xml version="1.0" encoding="utf-8"?>
<!-- Generator: Adobe Illustrator 19.2.1, SVG Export Plug-In . SVG Version: 6.00 Build 0)  -->
<svg version="1.1" xmlns="http://www.w3.org/2000/svg" xmlns:xlink="http://www.w3.org/1999/xlink" x="0px" y="0px" width="24px"
	 height="24px" viewBox="0 0 24 24" enable-background="new 0 0 24 24" xml:space="preserve">
<g id="Filled_Icons">
	<g>
		<path d="M10.42,16.791c-0.32-0.371-0.412-0.931-0.287-1.76c0.303-2.008,0.653-4.669,0.653-4.669
			c0.025-0.191,0.187-0.335,0.38-0.335c0.824,0,1.627-0.184,2.193,0.463c0.303,0.344,0.412,0.854,0.326,1.518
			c-0.017,0.13-0.676,4.802-0.684,4.914c-0.017,0.199-0.183,0.351-0.384,0.351C11.841,17.285,10.918,17.37,10.42,16.791z"/>
		<path d="M12.394,8.528c-0.751,0-1.373-0.435-1.542-1.084c-0.209-0.799,0.362-1.644,1.273-1.883
			c0.906-0.237,1.827,0.232,2.032,1.02c0.104,0.399,0.021,0.816-0.235,1.179c-0.239,0.339-0.609,0.591-1.037,0.704
			C12.723,8.505,12.559,8.528,12.394,8.528z"/>
		<path d="M20.851,17.358c-1.374,0-2.002-1.142-2.565-2.323c-0.117,0.814-0.251,1.748-0.262,1.892
			c-0.016,0.199-0.183,0.353-0.383,0.353c-0.776,0.007-1.699,0.096-2.199-0.485c-0.32-0.373-0.412-0.932-0.287-1.759
			c0.304-2.012,1.021-7.201,1.021-7.201c0.027-0.188,0.189-0.331,0.381-0.331c0.826,0,1.61-0.204,2.193,0.464
			c0.304,0.344,0.411,0.855,0.325,1.516c-0.072,0.555-0.185,1.359-0.31,2.242c0.37-0.453,0.801-0.947,1.102-1.271
			c0.817-0.875,3.449-0.742,3.602-0.389c0.062,0.141,0.034,0.303-0.069,0.413c-0.084,0.092-1.916,2.075-2.685,2.87
			c0.639,1.438,1.338,2.002,1.668,2.027c0.209,0.016,0.367,0.197,0.352,0.408C22.705,16.207,22.207,17.358,20.851,17.358z"/>
		<path d="M7.898,10.604C7.259,9.818,6.372,9.57,5.379,9.57c-1.273,0-4.295,0.398-4.826,4.101c-0.517,3.595,2.978,4.237,4.365,3.567
			c-0.065,0.673,0.039,1.166,0.31,1.522c0.498,0.646,1.313,0.579,2.119,0.564c0.191,0,0.354-0.142,0.38-0.332
			c0,0,0.407-3.04,0.766-5.509C8.67,12.281,8.469,11.309,7.898,10.604z M4.144,15.589C2,15.477,2.957,11.018,5.059,11.475
			C7.224,11.94,6.222,15.646,4.144,15.589z"/>
	</g>
</g>
<g id="Frames-24px">
	<rect fill="none" width="24" height="24"/>
</g>
</svg>
