<?xml version="1.0" encoding="utf-8"?>
<!-- Generator: Adobe Illustrator 19.2.1, SVG Export Plug-In . SVG Version: 6.00 Build 0)  -->
<svg version="1.1" xmlns="http://www.w3.org/2000/svg" xmlns:xlink="http://www.w3.org/1999/xlink" x="0px" y="0px" width="24px"
	 height="24px" viewBox="0 0 24 24" enable-background="new 0 0 24 24" xml:space="preserve">
<g id="Filled_Icons">
	<g>
		<ellipse transform="matrix(0.7073 -0.7069 0.7069 0.7073 -7.9372 12.987)" cx="11.715" cy="16.079" rx="1.129" ry="0.79"/>
		<path d="M12,0C5.383,0,0,5.383,0,12s5.383,12,12,12s12-5.383,12-12S18.617,0,12,0z M16.5,15.902c0,1.959-1.327,3.624-4.268,3.624
			c-2.94,0-2.988-2.04-3.043-3.592c-3.191-0.985-3.708-3.677-3.708-5.749c0-6.727,9.854-7.037,9.854-3.137
			c0,2.341-3.249,2.794-3.58-0.35c0,0-2.354,0.137-2.354,3.676S11.5,13.75,11.5,13.75V11.5h5C16.5,11.5,16.5,13.942,16.5,15.902z"/>
	</g>
</g>
<g id="Frames-24px">
	<rect fill="none" width="24" height="24"/>
</g>
</svg>
