<?xml version="1.0" encoding="utf-8"?>
<!-- Generator: Adobe Illustrator 19.2.1, SVG Export Plug-In . SVG Version: 6.00 Build 0)  -->
<svg version="1.1" xmlns="http://www.w3.org/2000/svg" xmlns:xlink="http://www.w3.org/1999/xlink" x="0px" y="0px" width="24px"
	 height="24px" viewBox="0 0 24 24" enable-background="new 0 0 24 24" xml:space="preserve">
<g id="Filled_Icons">
	<g>
		<path d="M12.632,9c0-2.206-1.789-4-3.989-4H0.5C0.224,5,0,5.224,0,5.5v7v7C0,19.776,0.224,20,0.5,20h8.143
			c2.2,0,3.989-1.794,3.989-4c0-1.516-0.855-2.821-2.098-3.5C11.776,11.822,12.632,10.516,12.632,9z M11.632,16
			c0,1.654-1.341,3-2.989,3H1v-6h7.643C10.291,13,11.632,14.346,11.632,16z M8.643,12H1V6h7.643c1.648,0,2.989,1.346,2.989,3
			S10.291,12,8.643,12z"/>
		<path d="M24,14.5c0-3.033-2.467-5.5-5.5-5.5S13,11.467,13,14.5s2.467,5.5,5.5,5.5c2.221,0,4.212-1.323,5.072-3.373
			c0.107-0.254-0.013-0.547-0.268-0.654c-0.253-0.108-0.548,0.012-0.654,0.267C21.947,17.917,20.317,19,18.5,19
			c-2.312,0-4.223-1.752-4.472-4H23.5C23.776,15,24,14.776,24,14.5z M14.028,14c0.25-2.247,2.16-4,4.472-4s4.223,1.753,4.472,4
			H14.028z"/>
		<path d="M16.5,7h4C20.776,7,21,6.776,21,6.5S20.776,6,20.5,6h-4C16.224,6,16,6.224,16,6.5S16.224,7,16.5,7z"/>
	</g>
</g>
<g id="Frames-24px">
	<rect fill="none" width="24" height="24"/>
</g>
</svg>
