<?xml version="1.0" encoding="utf-8"?>
<!-- Generator: Adobe Illustrator 19.2.1, SVG Export Plug-In . SVG Version: 6.00 Build 0)  -->
<svg version="1.1" xmlns="http://www.w3.org/2000/svg" xmlns:xlink="http://www.w3.org/1999/xlink" x="0px" y="0px" width="24px"
	 height="24px" viewBox="0 0 24 24" enable-background="new 0 0 24 24" xml:space="preserve">
<g id="Filled_Icons">
	<g>
		<path d="M3.5,3.5c0-1.656,1.344-3,3-3c1.656,0,3,1.344,3,3v2h8c1.656,0,3,1.344,3,3c0,1.657-1.344,3-3,3h-8v3c0,1.657,1.344,3,3,3
			h5c1.656,0,3,1.344,3,3c0,1.657-1.344,3-3,3h-6c-4.418,0-8-3.581-8-8V3.5z"/>
	</g>
</g>
<g id="Frames-24px">
	<rect fill="none" width="24" height="24"/>
</g>
</svg>
