<?xml version="1.0" encoding="utf-8"?>
<!-- Generator: Adobe Illustrator 19.2.1, SVG Export Plug-In . SVG Version: 6.00 Build 0)  -->
<svg version="1.1" xmlns="http://www.w3.org/2000/svg" xmlns:xlink="http://www.w3.org/1999/xlink" x="0px" y="0px" width="24px"
	 height="24px" viewBox="0 0 24 24" enable-background="new 0 0 24 24" xml:space="preserve">
<g id="Filled_Icons">
	<path d="M16.969,9c-0.449,0-0.889,0.059-1.315,0.16c-0.844-1.652-4.511-8.025-9.923-6.209C5.712,2.942,5.692,2.934,5.673,2.925
		C5.948,2.389,6.122,1.64,5.996,0.606C5.963,0.333,5.717,0.13,5.439,0.17C5.166,0.204,4.97,0.453,5.004,0.728
		c0.122,1.001-0.074,1.75-0.582,2.226C3.883,3.457,3.11,3.536,2.75,3.467C2.478,3.418,2.216,3.595,2.165,3.865
		C2.113,4.136,2.292,4.398,2.563,4.45c0.135,0.025,0.285,0.039,0.444,0.039c0.635,0,1.422-0.223,2.029-0.753
		c3.948,1.659,3.992,6.769,3.93,8.1c-2.466,0.837-4.248,3.169-4.248,5.915c0,3.446,2.804,6.25,6.25,6.25
		c3.446,0,6.25-2.804,6.25-6.25s-2.804-6.25-6.25-6.25c-0.34,0-0.671,0.035-0.996,0.087c0.032-1.598-0.189-5.679-3.036-7.907
		c4.067-0.599,6.942,4.238,7.755,5.794c-0.692,0.3-1.322,0.734-1.852,1.279c3.092,0.828,5.379,3.647,5.379,6.996
		c0,0.956-0.19,1.865-0.527,2.699c2.83-0.357,5.027-2.774,5.027-5.699C22.719,11.58,20.139,9,16.969,9z M10.01,15.542
		c0,0.553-0.447,1-1,1c-0.552,0-1-0.447-1-1s0.448-1,1-1C9.562,14.542,10.01,14.989,10.01,15.542z"/>
</g>
<g id="Frames-24px">
	<rect fill="none" width="24" height="24"/>
</g>
</svg>
