<?xml version="1.0" encoding="utf-8"?>
<!-- Generator: Adobe Illustrator 19.2.1, SVG Export Plug-In . SVG Version: 6.00 Build 0)  -->
<svg version="1.1" xmlns="http://www.w3.org/2000/svg" xmlns:xlink="http://www.w3.org/1999/xlink" x="0px" y="0px" width="24px"
	 height="24px" viewBox="0 0 24 24" enable-background="new 0 0 24 24" xml:space="preserve">
<g id="Filled_Icons">
	<g>
		<path d="M14.332,16H8v-5.951c0-0.277-0.224-0.5-0.5-0.5c-4.136,0-7.5,3.241-7.5,7.226S3.327,24,7.416,24
			c4.02,0,7.416-3.434,7.416-7.5C14.832,16.224,14.608,16,14.332,16z"/>
		<path d="M16.963,0C10.249,0,10.002,6.887,10,6.969V13.5c0,0.276,0.224,0.5,0.5,0.5h6.191C20.79,14,24,10.926,24,7
			C24,3.01,20.975,0,16.963,0z M16,3c0-0.276,0.224-0.5,0.5-0.5S17,2.724,17,3v5c0,0.276-0.224,0.5-0.5,0.5S16,8.276,16,8V3z
			 M16.5,11.969c-0.827,0-1.5-0.66-1.5-1.471c0-0.812,0.673-1.475,1.5-1.475c0.827,0,1.5,0.662,1.5,1.475
			C18,11.309,17.327,11.969,16.5,11.969z"/>
	</g>
</g>
<g id="Frames-24px">
	<rect fill="none" width="24" height="24"/>
</g>
</svg>
