<?xml version="1.0" encoding="utf-8"?>
<!-- Generator: Adobe Illustrator 19.2.1, SVG Export Plug-In . SVG Version: 6.00 Build 0)  -->
<svg version="1.1" xmlns="http://www.w3.org/2000/svg" xmlns:xlink="http://www.w3.org/1999/xlink" x="0px" y="0px" width="24px"
	 height="24px" viewBox="0 0 24 24" enable-background="new 0 0 24 24" xml:space="preserve">
<g id="Filled_Icons">
	<g>
		<path d="M6.483,7.706C7.766,6.062,9.759,5,12,5c1.953,0,3.765,0.784,5.104,2.209l0.342,0.364l3.644-3.423l-0.342-0.365
			C18.488,1.38,15.299,0,12,0C8.182,0,4.782,1.799,2.582,4.586L6.483,7.706z"/>
		<path d="M5.492,14.561C5.178,13.768,4.999,12.904,4.999,12c0-0.894,0.175-1.746,0.482-2.533L1.468,6.256
			C0.533,7.963-0.001,9.92-0.001,12c0,2.199,0.604,4.254,1.641,6.028L5.492,14.561z"/>
		<path d="M15.264,18.178C14.276,18.697,13.166,19,12,19c-2.223,0-4.204-1.045-5.487-2.666l-3.721,3.348
			C4.995,22.318,8.304,24,12,24c2.457,0,4.743-0.742,6.651-2.012L15.264,18.178z"/>
		<path d="M13,10v5h5.341c-0.36,0.761-0.863,1.425-1.451,1.997l3.333,3.749c2.185-2.053,3.607-4.917,3.774-8.142L24,10H13z"/>
	</g>
</g>
<g id="Frames-24px">
</g>
</svg>
