<?xml version="1.0" encoding="utf-8"?>
<!-- Generator: Adobe Illustrator 19.2.1, SVG Export Plug-In . SVG Version: 6.00 Build 0)  -->
<svg version="1.1" xmlns="http://www.w3.org/2000/svg" xmlns:xlink="http://www.w3.org/1999/xlink" x="0px" y="0px" width="24px"
	 height="24px" viewBox="0 0 24 24" enable-background="new 0 0 24 24" xml:space="preserve">
<g id="Filled_Icons">
	<path d="M8,7.5c1.347,0,2.424,1.078,2.424,2.424c0,1.333-1.077,2.424-2.424,2.424c-1.332,0-2.424-1.091-2.424-2.424
		C5.576,8.578,6.668,7.5,8,7.5L8,7.5z M11.246,14.479c3.955-0.467,8.576,0.086,11.625,1.73c0.425,0.24,0.213,0.553-0.312,0.382
		c-1.928-0.608-3.912-0.935-6.322-1.007c-5.473-0.17-8.363,1.658-10.76,4.141c-1.445,1.503-3.402,0.256-2.707-1.276
		C3.634,16.521,8,14.876,11.246,14.479L11.246,14.479z"/>
</g>
<g id="Frames-24px">
	<rect fill="none" width="24" height="24"/>
</g>
</svg>
