<?xml version="1.0" encoding="utf-8"?>
<!-- Generator: Adobe Illustrator 19.2.1, SVG Export Plug-In . SVG Version: 6.00 Build 0)  -->
<svg version="1.1" xmlns="http://www.w3.org/2000/svg" xmlns:xlink="http://www.w3.org/1999/xlink" x="0px" y="0px" width="24px"
	 height="24px" viewBox="0 0 24 24" enable-background="new 0 0 24 24" xml:space="preserve">
<g id="Filled_Icons">
	<path d="M12,0C5.383,0,0,5.383,0,12s5.383,12,12,12s12-5.383,12-12S18.617,0,12,0z M13.505,17.261
		c0.032-0.226,0.224-0.348,0.484-0.455c0.176-0.069,0.578-0.029,0.727-0.181c0.19-0.188,0.043-0.977,0.028-1.419
		c-0.002-0.08,0.016-1.455-0.028-1.517c-0.271-0.347-4.911,0.476-5.278,1.035c-0.174,0.266-0.005,2.449,0.034,2.507
		c0.123,0.197,0.634,0.108,0.752,0.149c0.295,0.102,0.724,0.554,0.672,1.001c-0.122,0.99-4.686,1.915-4.49,0.031
		c0.035-0.33,0.499-0.522,0.823-0.638c0.102-0.038,0.303-0.051,0.358-0.12c0.123-0.147,0.049-0.774,0-1.147
		c-0.135-1.112-0.162-2.455-0.181-3.6c-0.018-1.363-0.091-2.312-0.091-3.726c0-0.396,0.038-1.048-0.059-1.179
		C7.143,7.86,6.777,7.885,6.56,7.792c-3.743-1.609,5.852-3.67,4.093-0.759c-0.218,0.36-1.062,0.283-1.243,0.58
		C9.331,7.734,9.346,8.186,9.346,8.58c0,1.179-0.148,2.002-0.059,3.206C9.3,11.96,9.356,12.512,9.472,12.57l5.214-0.844
		c0.25-0.208,0.096-0.823,0.059-1.12c-0.103-0.906-0.092-1.549,0-2.42c0.038-0.334,0.144-0.974-0.028-1.152
		c-0.11-0.111-0.539-0.126-0.668-0.183c-3.814-1.596,4.99-3.891,3.96-0.877c-0.094,0.291-0.861,0.421-1.031,0.64
		c-0.292,0.372-0.182,1.524-0.182,2.299v6.203c0,0.348-0.045,1.039,0.061,1.149c0.11,0.109,0.507,0.038,0.665,0.088
		C20.742,17.389,13.085,20.125,13.505,17.261z"/>
</g>
<g id="Frames-24px">
	<rect fill="none" width="24" height="24"/>
</g>
</svg>
