<?xml version="1.0" encoding="utf-8"?>
<!-- Generator: Adobe Illustrator 19.2.1, SVG Export Plug-In . SVG Version: 6.00 Build 0)  -->
<svg version="1.1" xmlns="http://www.w3.org/2000/svg" xmlns:xlink="http://www.w3.org/1999/xlink" x="0px" y="0px" width="24px"
	 height="24px" viewBox="0 0 24 24" enable-background="new 0 0 24 24" xml:space="preserve">
<g id="Filled_Icons">
	<path d="M20.359,10.501l3.455-5.466c0.195-0.309,0.207-0.699,0.031-1.018C23.669,3.699,23.333,3.5,22.969,3.5h-6
		c-0.448,0-0.841,0.299-0.962,0.728l-3.557,12.629L8.92,4.231c-0.149-0.531-0.7-0.844-1.232-0.693
		c-0.532,0.148-0.843,0.7-0.694,1.232l0.914,3.27l-2.442,8.787L1.963,4.232C1.816,3.7,1.265,3.389,0.732,3.537
		C0.2,3.685-0.111,4.236,0.037,4.768l4.467,16.061c0.12,0.433,0.514,0.732,0.963,0.732c0.449,0,0.843-0.299,0.963-0.733l2.518-9.064
		l2.534,9.066c0.121,0.432,0.514,0.729,0.962,0.731h0.001c0.448,0,0.841-0.298,0.962-0.73L17.726,5.5h3.428l-3.186,5.043
		c-0.182,0.287-0.205,0.646-0.062,0.955c0.143,0.309,0.433,0.523,0.769,0.569c0.135,0.019,3.294,0.503,3.294,4.308
		c0,2.012-1.124,2.949-2.086,3.143c-0.93,0.188-2.176-0.217-2.877-1.902c-0.212-0.509-0.797-0.75-1.308-0.538
		c-0.51,0.212-0.751,0.798-0.539,1.308c1.093,2.625,3.356,3.444,5.116,3.093c1.839-0.367,3.694-2.087,3.694-5.103
		C23.969,12.988,22.042,11.241,20.359,10.501z"/>
</g>
<g id="Frames-24px">
	<rect fill="none" width="24" height="24"/>
</g>
</svg>
