<?xml version="1.0" encoding="utf-8"?>
<!-- Generator: Adobe Illustrator 19.2.1, SVG Export Plug-In . SVG Version: 6.00 Build 0)  -->
<svg version="1.1" xmlns="http://www.w3.org/2000/svg" xmlns:xlink="http://www.w3.org/1999/xlink" x="0px" y="0px" width="24px"
	 height="24px" viewBox="0 0 24 24" enable-background="new 0 0 24 24" xml:space="preserve">
<g id="Filled_Icons">
	<g>
		<path d="M6.5,5C6.224,5,6,5.224,6,5.5V8H1.5C1.224,8,1,8.224,1,8.5v7C1,15.776,1.224,16,1.5,16h5C6.776,16,7,15.776,7,15.5v-10
			C7,5.224,6.776,5,6.5,5z M6,15H2V9h4V15z"/>
		<path d="M8.5,8C8.224,8,8,8.224,8,8.5v7C8,15.776,8.224,16,8.5,16S9,15.776,9,15.5v-7C9,8.224,8.776,8,8.5,8z"/>
		<path d="M8.5,5C8.224,5,8,5.224,8,5.5v1C8,6.776,8.224,7,8.5,7S9,6.776,9,6.5v-1C9,5.224,8.776,5,8.5,5z"/>
		<path d="M15.5,8h-5C10.224,8,10,8.224,10,8.5v7c0,0.276,0.224,0.5,0.5,0.5H15v2h-4.5c-0.276,0-0.5,0.224-0.5,0.5
			s0.224,0.5,0.5,0.5h5c0.276,0,0.5-0.224,0.5-0.5v-10C16,8.224,15.776,8,15.5,8z M15,15h-4V9h4V15z"/>
		<path d="M22.5,8h-5C17.224,8,17,8.224,17,8.5v7c0,0.276,0.224,0.5,0.5,0.5H22v2h-4.5c-0.276,0-0.5,0.224-0.5,0.5
			s0.224,0.5,0.5,0.5h5c0.276,0,0.5-0.224,0.5-0.5v-10C23,8.224,22.776,8,22.5,8z M22,15h-4V9h4V15z"/>
	</g>
</g>
<g id="Frames-24px">
	<rect fill="none" width="24" height="24"/>
</g>
</svg>
