<?xml version="1.0" encoding="utf-8"?>
<!-- Generator: Adobe Illustrator 19.2.1, SVG Export Plug-In . SVG Version: 6.00 Build 0)  -->
<svg version="1.1" xmlns="http://www.w3.org/2000/svg" xmlns:xlink="http://www.w3.org/1999/xlink" x="0px" y="0px" width="24px"
	 height="24px" viewBox="0 0 24 24" enable-background="new 0 0 24 24" xml:space="preserve">
<g id="Filled_Icons">
	<g>
		<g>
			<path d="M11,8.012v2.033C11.165,10.026,11.329,10,11.5,10s0.335,0.026,0.5,0.045V8.012c1.14-0.23,2-1.242,2-2.449
				c0-1.379-1.122-2.5-2.5-2.5S9,4.184,9,5.562C9,6.769,9.86,7.781,11,8.012z"/>
			<path d="M2.803,9.402C3.052,9.57,3.342,9.66,3.642,9.66c0.324,0,0.628-0.113,0.882-0.3l3.526,2.398
				c0.184-0.278,0.399-0.537,0.661-0.761L5.09,8.535c0.153-0.596-0.067-1.252-0.606-1.617C3.82,6.469,2.847,6.658,2.401,7.319
				C2.177,7.651,2.095,8.051,2.17,8.444C2.246,8.838,2.471,9.179,2.803,9.402z"/>
			<path d="M14.434,11.139c0.248,0.236,0.455,0.504,0.623,0.793l4.486-2.717c0.264,0.217,0.593,0.347,0.941,0.347
				c0.272,0,0.54-0.074,0.776-0.216c0.705-0.428,0.933-1.352,0.505-2.063c-0.416-0.684-1.367-0.922-2.061-0.504
				c-0.556,0.338-0.809,0.981-0.685,1.584L14.434,11.139z"/>
			<path d="M17.406,16.128c-0.495-0.374-1.201-0.369-1.717-0.05l-0.854-0.653c-0.201,0.266-0.45,0.497-0.724,0.705l0.965,0.739
				c-0.067,0.211-0.092,0.434-0.061,0.66c0.055,0.396,0.261,0.748,0.581,0.991c0.263,0.198,0.575,0.304,0.904,0.304
				c0.475,0,0.911-0.217,1.196-0.595c0.242-0.319,0.345-0.714,0.291-1.11C17.931,16.722,17.725,16.37,17.406,16.128z"/>
			<path d="M22,11.5c-0.93,0-1.706,0.64-1.929,1.5h-4.629c0.027,0.164,0.058,0.329,0.058,0.5c0,0.172-0.03,0.336-0.058,0.5h4.629
				c0.223,0.86,0.999,1.5,1.929,1.5c1.103,0,2-0.898,2-2C24,12.396,23.103,11.5,22,11.5z"/>
			<path d="M8.648,15.946c-0.256-0.228-0.463-0.493-0.641-0.776L6.31,16.271c-0.481-0.368-1.175-0.44-1.71-0.113
				c-0.705,0.431-0.928,1.357-0.497,2.062c0.275,0.449,0.753,0.718,1.281,0.718c0.275,0,0.545-0.076,0.78-0.22
				c0.559-0.341,0.809-0.991,0.677-1.6L8.648,15.946z"/>
			<path d="M7.558,14.001C7.53,13.836,7.5,13.672,7.5,13.5c0-0.171,0.03-0.334,0.058-0.499l-3.63,0.001
				c-0.225-0.858-1.001-1.495-1.933-1.495c-0.535,0.001-1.037,0.21-1.414,0.591C0.206,12.475-0.002,12.977,0,13.512
				c0.002,1.101,0.9,1.995,2,1.995h0.005c0.929-0.003,1.703-0.644,1.924-1.505L7.558,14.001z"/>
		</g>
		<ellipse cx="11.5" cy="13.5" rx="3" ry="2.5"/>
	</g>
</g>
<g id="Frames-24px">
	<rect fill="none" width="24" height="24"/>
</g>
</svg>
