<?xml version="1.0" encoding="utf-8"?>
<!-- Generator: Adobe Illustrator 19.2.1, SVG Export Plug-In . SVG Version: 6.00 Build 0)  -->
<svg version="1.1" xmlns="http://www.w3.org/2000/svg" xmlns:xlink="http://www.w3.org/1999/xlink" x="0px" y="0px" width="24px"
	 height="24px" viewBox="0 0 24 24" enable-background="new 0 0 24 24" xml:space="preserve">
<g id="Filled_Icons">
	<path d="M12,0C5.383,0,0,5.383,0,12s5.383,12,12,12s12-5.383,12-12S18.617,0,12,0z M11,18.049c0,0.17-0.086,0.328-0.229,0.42
		c-0.082,0.054-0.177,0.08-0.271,0.08c-0.07,0-0.14-0.014-0.205-0.044l-5-2.254C5.115,16.17,5,15.992,5,15.795v-7.42
		c0-0.169,0.085-0.326,0.226-0.418C5.366,7.865,5.544,7.85,5.698,7.916l5,2.162c0.184,0.08,0.302,0.26,0.302,0.459V18.049z M12,9.5
		c-0.065,0-0.13-0.013-0.191-0.038L5.481,6.847c-0.197-0.081-0.321-0.28-0.308-0.494C5.187,6.14,5.334,5.959,5.54,5.902l6.781-1.853
		c0.095-0.026,0.195-0.023,0.29,0.008l5.875,1.955c0.199,0.066,0.336,0.25,0.342,0.46c0.006,0.21-0.12,0.401-0.315,0.479
		l-6.328,2.514C12.125,9.488,12.062,9.5,12,9.5z M19,15.795c0,0.195-0.114,0.373-0.292,0.455l-5,2.286
		c-0.066,0.03-0.138,0.046-0.208,0.046c-0.095,0-0.189-0.027-0.271-0.08C13.087,18.41,13,18.252,13,18.082v-7.576
		c0-0.201,0.122-0.385,0.309-0.461l5-2.07c0.154-0.064,0.331-0.047,0.469,0.047C18.917,8.113,19,8.269,19,8.436V15.795z"/>
</g>
<g id="Frames-24px">
	<rect fill="none" width="24" height="24"/>
</g>
</svg>
