<?xml version="1.0" encoding="utf-8"?>
<!-- Generator: Adobe Illustrator 19.2.1, SVG Export Plug-In . SVG Version: 6.00 Build 0)  -->
<svg version="1.1" xmlns="http://www.w3.org/2000/svg" xmlns:xlink="http://www.w3.org/1999/xlink" x="0px" y="0px" width="24px"
	 height="24px" viewBox="0 0 24 24" enable-background="new 0 0 24 24" xml:space="preserve">
<g id="Filled_Icons">
	<path d="M12,0.5C5.648,0.5,0.5,5.649,0.5,12c0,6.352,5.148,11.5,11.5,11.5S23.5,18.352,23.5,12C23.5,5.649,18.352,0.5,12,0.5z
		 M17,14.515c0,1.5-1.504,1.5-2.5,1.5c-1.208,0-2.5-0.659-2.5-2.507C12,11.659,13.292,11,14.5,11H16V6.449l-5,3.334v7.732
		c0,1.5-1.504,1.5-2.5,1.5c-1.208,0-2.5-0.659-2.5-2.507C6,14.659,7.292,14,8.5,14H10V9.515c0-0.167,0.083-0.323,0.223-0.416l6-4
		c0.153-0.101,0.351-0.112,0.513-0.025C16.898,5.161,17,5.33,17,5.515V14.515z"/>
</g>
<g id="Frames-24px">
	<rect fill="none" width="24" height="24"/>
</g>
</svg>
