<?xml version="1.0" encoding="utf-8"?>
<!-- Generator: Adobe Illustrator 19.2.1, SVG Export Plug-In . SVG Version: 6.00 Build 0)  -->
<svg version="1.1" xmlns="http://www.w3.org/2000/svg" xmlns:xlink="http://www.w3.org/1999/xlink" x="0px" y="0px" width="24px"
	 height="24px" viewBox="0 0 24 24" enable-background="new 0 0 24 24" xml:space="preserve">
<g id="Filled_Icons">
	<path d="M23.852,17.234c0.072-0.178,0.125-0.352,0.139-0.514c0.235-2.914-3.857-14.887-11.733-14.887h-0.705
		C5.399,1.834,0,10.973,0,16.496c0,0.295,0.111,0.606,0.248,0.867C2.132,20.881,7.837,22,12.039,22
		C17.69,22,22.809,19.721,23.852,17.234z M14.585,20.869C13.76,20.956,12.903,21,12.039,21c-0.738,0-1.496-0.031-2.254-0.095
		c-3.034-0.252-5.427-1.044-7.113-2.354c-0.354-0.274-0.675-0.568-0.94-0.852c0.541-1.739,2.7-5.612,4.364-6.15
		c0.166-0.053,0.334-0.08,0.499-0.08c0.838,0,1.437,0.675,1.964,1.271c0.452,0.511,0.879,0.993,1.335,0.993
		c0.546-0.033,1.817-1.666,2.576-2.642c1.046-1.345,1.666-2.113,2.222-2.296c0.269-0.088,0.582-0.068,0.853,0.055
		c1.086,0.496,3.764,2.998,6.322,7.604c0.206,0.372,0.411,0.777,0.517,1.205C21.257,18.857,18.59,20.448,14.585,20.869z"/>
</g>
<g id="Frames-24px">
	<rect fill="none" width="24" height="24"/>
</g>
</svg>
