<?xml version="1.0" encoding="utf-8"?>
<!-- Generator: Adobe Illustrator 19.2.1, SVG Export Plug-In . SVG Version: 6.00 Build 0)  -->
<svg version="1.1" xmlns="http://www.w3.org/2000/svg" xmlns:xlink="http://www.w3.org/1999/xlink" x="0px" y="0px" width="24px"
	 height="24px" viewBox="0 0 24 24" enable-background="new 0 0 24 24" xml:space="preserve">
<g id="Filled_Icons">
	<g>
		<ellipse cx="17.272" cy="13.197" rx="1.935" ry="1.761"/>
		<ellipse cx="12.401" cy="13.197" rx="1.936" ry="1.76"/>
		<path d="M12,0C5.383,0,0,5.383,0,12s5.383,12,12,12s12-5.383,12-12S18.617,0,12,0z M17.271,15.958
			c-1.013,0-1.907-0.485-2.435-1.221c-0.527,0.736-1.422,1.221-2.436,1.221c-1.331,0-2.444-0.842-2.804-1.985
			c-0.397,1.15-1.479,1.985-2.764,1.985c-1.127,0-2.137-0.627-2.635-1.637l0.896-0.442c0.329,0.666,0.995,1.08,1.738,1.08
			c1.067,0,1.935-0.868,1.935-1.935c0-1.067-0.868-1.935-1.935-1.935c-0.829,0-1.575,0.541-1.836,1.323
			c-0.066,0.396-0.655,0.538-0.896,0.215c-0.095-0.127-0.126-0.29-0.081-0.441c0-0.001,0.001-0.002,0.001-0.002L4.6,8.424
			C4.637,8.18,4.847,8,5.094,8h3.864v1H5.523l-0.235,1.533c0.455-0.285,0.988-0.446,1.547-0.446c1.351,0,2.48,0.922,2.82,2.165
			c0.412-1.056,1.482-1.816,2.747-1.816c1.014,0,1.908,0.486,2.436,1.222c0.527-0.736,1.422-1.222,2.435-1.222
			c1.619,0,2.936,1.238,2.936,2.761C20.207,14.719,18.891,15.958,17.271,15.958z"/>
	</g>
</g>
<g id="Frames-24px">
	<rect fill="none" width="24" height="24"/>
</g>
</svg>
