<?xml version="1.0" encoding="utf-8"?>
<!-- Generator: Adobe Illustrator 19.2.1, SVG Export Plug-In . SVG Version: 6.00 Build 0)  -->
<svg version="1.1" xmlns="http://www.w3.org/2000/svg" xmlns:xlink="http://www.w3.org/1999/xlink" x="0px" y="0px" width="24px"
	 height="24px" viewBox="0 0 24 24" enable-background="new 0 0 24 24" xml:space="preserve">
<g id="Filled_Icons">
	<g>
		<path d="M12,0.004c-6.617,0-12,5.383-12,12s5.383,12,12,12s12-5.383,12-12S18.617,0.004,12,0.004z M9.713,12.029
			c-0.233,1.61-0.499,3.593-0.499,3.593c-0.017,0.124-0.122,0.217-0.247,0.217c-0.525,0.01-1.059,0.053-1.383-0.369
			c-0.178-0.23-0.244-0.554-0.203-0.992c-0.904,0.436-3.184,0.018-2.847-2.327c0.347-2.414,2.317-2.674,3.147-2.674
			c0.648,0,1.227,0.162,1.643,0.674C9.697,10.61,9.828,11.243,9.713,12.029z M13.018,14.271c-0.01,0.13-0.119,0.229-0.249,0.229
			c-0.507,0.008-1.108,0.063-1.434-0.314c-0.208-0.243-0.269-0.608-0.187-1.147c0.197-1.309,0.426-3.045,0.426-3.045
			c0.017-0.125,0.121-0.219,0.247-0.219c0.538,0,1.062-0.12,1.432,0.302c0.197,0.224,0.269,0.559,0.212,0.99
			C13.453,11.15,13.023,14.198,13.018,14.271z M13.619,8.295c-0.156,0.222-0.397,0.386-0.677,0.459
			c-0.106,0.027-0.212,0.042-0.319,0.042c-0.49,0-0.896-0.283-1.006-0.706c-0.137-0.522,0.236-1.073,0.83-1.227
			c0.591-0.156,1.191,0.15,1.326,0.664C13.842,7.788,13.786,8.06,13.619,8.295z M20.46,10.068c-0.055,0.059-1.249,1.352-1.751,1.871
			c0.416,0.937,0.873,1.307,1.087,1.323c0.137,0.011,0.239,0.13,0.229,0.266c-0.018,0.278-0.342,1.028-1.227,1.028
			c-0.896,0-1.307-0.745-1.674-1.513c-0.076,0.531-0.164,1.137-0.17,1.231c-0.012,0.13-0.119,0.231-0.25,0.231
			c-0.507,0.005-1.108,0.062-1.434-0.317c-0.209-0.242-0.269-0.607-0.188-1.147c0.197-1.31,0.666-4.695,0.666-4.695
			c0.016-0.123,0.122-0.218,0.247-0.218c0.539,0,1.05-0.131,1.431,0.303c0.198,0.225,0.269,0.559,0.213,0.99
			c-0.048,0.361-0.121,0.886-0.203,1.461c0.241-0.295,0.521-0.617,0.719-0.83c0.533-0.57,2.249-0.482,2.35-0.253
			C20.545,9.892,20.527,9.996,20.46,10.068z"/>
		<path d="M7.312,11.438c-0.631-0.137-0.917,1.199-0.274,1.232C7.661,12.688,7.961,11.577,7.312,11.438z"/>
	</g>
</g>
<g id="Frames-24px">
	<rect fill="none" width="24" height="24"/>
</g>
</svg>
