<?xml version="1.0" encoding="utf-8"?>
<!-- Generator: Adobe Illustrator 19.2.1, SVG Export Plug-In . SVG Version: 6.00 Build 0)  -->
<svg version="1.1" xmlns="http://www.w3.org/2000/svg" xmlns:xlink="http://www.w3.org/1999/xlink" x="0px" y="0px" width="24px"
	 height="24px" viewBox="0 0 24 24" enable-background="new 0 0 24 24" xml:space="preserve">
<g id="Filled_Icons">
	<path d="M12,0C5.383,0,0,5.383,0,12s5.383,12,12,12s12-5.383,12-12S18.617,0,12,0z M18.315,16.471l-2.002,0.023
		c0,0-0.432,0.077-0.998-0.312c-0.748-0.514-1.455-1.867-2.006-1.693c-0.757,0.239-0.305,1.289-0.664,1.674
		c-0.068,0.074-1.205,0.049-1.306,0.049c0,0-1.978,0.252-3.721-1.562c-1.899-1.98-3.577-5.773-3.577-5.773S3.943,8.617,4.049,8.493
		c0.118-0.141,0.439-0.149,0.439-0.149L6.632,8.33c0,0,0.202,0.035,0.347,0.141c0.119,0.086,0.186,0.25,0.186,0.25
		c0.295,0.748,1.73,3.766,2.422,3.39c0.461-0.251,0.4-2.783,0.087-3.208C9.494,8.659,9.156,8.587,9.008,8.568
		C8.887,8.551,9.085,8.271,9.342,8.144c0.385-0.189,1.066-0.199,1.871-0.191C11.84,7.961,12.021,8,12.266,8.059
		c1.184,0.285-0.039,3.515,0.775,4.041c0.608,0.394,2.092-2.622,2.402-3.447c0,0,0.078-0.17,0.199-0.243
		c0.123-0.074,0.291-0.051,0.291-0.051l2.256-0.015c0,0,0.678-0.08,0.787,0.225c0.115,0.322-0.253,1.07-1.174,2.299
		c-1.514,2.018-1.682,1.828-0.426,2.994c1.199,1.113,1.449,1.654,1.489,1.721C19.363,16.406,18.315,16.471,18.315,16.471z"/>
</g>
<g id="Frames-24px">
	<rect fill="none" width="24" height="24"/>
</g>
</svg>
