<?xml version="1.0" encoding="utf-8"?>
<!-- Generator: Adobe Illustrator 19.2.1, SVG Export Plug-In . SVG Version: 6.00 Build 0)  -->
<svg version="1.1" xmlns="http://www.w3.org/2000/svg" xmlns:xlink="http://www.w3.org/1999/xlink" x="0px" y="0px" width="24px"
	 height="24px" viewBox="0 0 24 24" enable-background="new 0 0 24 24" xml:space="preserve">
<g id="Filled_Icons">
	<g>
		<path d="M0.5,7.894l0.934,1.224c0,0,1.927-1.518,2.569-0.759c0.643,0.759,3.093,9.925,3.912,11.617
			c0.714,1.483,2.685,3.444,4.845,2.042c2.16-1.399,9.341-7.529,10.626-14.769c1.284-7.238-8.642-5.723-9.692,0.583
			c2.627-1.578,4.029,0.642,2.686,3.153c-1.342,2.51-2.568,4.146-3.211,4.146c-0.641,0-1.135-1.679-1.868-4.613
			c-0.76-3.035-0.755-8.5-3.911-7.882C4.412,3.222,0.5,7.894,0.5,7.894z"/>
	</g>
</g>
<g id="Frames-24px">
	<rect fill="none" width="24" height="24"/>
</g>
</svg>
