<?xml version="1.0" encoding="utf-8"?>
<!-- Generator: Adobe Illustrator 19.2.1, SVG Export Plug-In . SVG Version: 6.00 Build 0)  -->
<svg version="1.1" xmlns="http://www.w3.org/2000/svg" xmlns:xlink="http://www.w3.org/1999/xlink" x="0px" y="0px" width="24px"
	 height="24px" viewBox="0 0 24 24" enable-background="new 0 0 24 24" xml:space="preserve">
<g id="Filled_Icons">
	<path d="M12,0C5.383,0,0,5.383,0,12s5.383,12,12,12s12-5.383,12-12S18.617,0,12,0z M13,5.529c1.161,0,2.254,0.222,3.219,0.61
		l-5.702,5.17L7.163,7.959C8.417,6.495,10.561,5.529,13,5.529z M6.58,8.79l3.195,3.192l-2.403,2.179C6.514,13.262,6,12.153,6,10.948
		C6,10.181,6.209,9.452,6.58,8.79z M13,16.369c-0.863,0-1.689-0.123-2.452-0.343l-4.023,1.777l1.542-2.92l4.944-4.485l4.499,4.694
		C16.291,15.888,14.719,16.369,13,16.369z M18.306,14.477l-4.554-4.752l3.433-3.114C18.892,7.6,20,9.171,20,10.948
		C20,12.298,19.359,13.529,18.306,14.477z"/>
</g>
<g id="Frames-24px">
	<rect fill="none" width="24" height="24"/>
</g>
</svg>
