<?xml version="1.0" encoding="utf-8"?>
<!-- Generator: Adobe Illustrator 19.2.1, SVG Export Plug-In . SVG Version: 6.00 Build 0)  -->
<svg version="1.1" xmlns="http://www.w3.org/2000/svg" xmlns:xlink="http://www.w3.org/1999/xlink" x="0px" y="0px" width="24px"
	 height="24px" viewBox="0 0 24 24" enable-background="new 0 0 24 24" xml:space="preserve">
<g id="Filled_Icons">
	<path d="M12,0C5.383,0,0,5.383,0,12s5.383,12,12,12s12-5.383,12-12S18.617,0,12,0z M11.277,18.664
		C11.207,18.865,11.018,19,10.805,19H7.978c-0.162,0-0.313-0.078-0.407-0.211c-0.094-0.131-0.118-0.301-0.065-0.453l4.521-13
		C12.098,5.135,12.287,5,12.5,5h2.826c0.162,0,0.313,0.078,0.407,0.211c0.094,0.131,0.118,0.301,0.065,0.453L11.277,18.664z
		 M15.608,19c-1.055,0-1.913-0.858-1.913-1.914c0-1.055,0.858-1.912,1.913-1.912s1.913,0.857,1.913,1.912
		C17.521,18.142,16.663,19,15.608,19z"/>
</g>
<g id="Frames-24px">
	<rect fill="none" width="24" height="24"/>
</g>
</svg>
