<?xml version="1.0" encoding="utf-8"?>
<!-- Generator: Adobe Illustrator 19.2.1, SVG Export Plug-In . SVG Version: 6.00 Build 0)  -->
<svg version="1.1" xmlns="http://www.w3.org/2000/svg" xmlns:xlink="http://www.w3.org/1999/xlink" x="0px" y="0px" width="24px"
	 height="24px" viewBox="0 0 24 24" enable-background="new 0 0 24 24" xml:space="preserve">
<g id="Filled_Icons">
	<g>
		<path d="M4.502,7.923l6.812-4.081l3.238,1.869c0.748,0.427,1.711,0.171,2.139-0.567c0.428-0.747,0.17-1.698-0.578-2.126
			l-3.356-1.945c-1.303-0.749-1.518-0.77-2.832-0.021L2.945,5.294h-0.01C1.588,6.073,1.502,6.266,1.502,7.773v8.454
			c0,1.518,0.086,1.699,1.453,2.489l6.98,4.232c1.305,0.748,1.52,0.728,2.811-0.021l3.453-1.987c0.662-0.46,0.877-1.356,0.471-2.073
			c-0.428-0.737-1.369-0.994-2.105-0.588l-3.25,1.881l-6.812-4.082V7.923L4.502,7.923z"/>
		<path d="M18.502,16.478c0,0.522,0.494,0.95,1.019,0.95h1.027c0.524,0,0.951-0.428,0.951-0.95V7.335
			c0-0.524-0.428-0.907-0.951-0.907h-1.027c-0.525,0-1.019,0.383-1.019,0.907V16.478z"/>
		<path d="M6.502,9.312v3.998c0,0.598,0.35,1.1,0.957,1.1c0.609,0,1.043-0.502,1.043-1.1v-2.727l2.514-1.346
			c0.523-0.311,0.693-0.995,0.395-1.518c-0.277-0.471-0.844-0.662-1.348-0.481L6.502,9.312z"/>
	</g>
</g>
<g id="Frames-24px">
	<rect fill="none" width="24" height="24"/>
</g>
</svg>
