<?xml version="1.0" encoding="utf-8"?>
<!-- Generator: Adobe Illustrator 19.2.1, SVG Export Plug-In . SVG Version: 6.00 Build 0)  -->
<svg version="1.1" xmlns="http://www.w3.org/2000/svg" xmlns:xlink="http://www.w3.org/1999/xlink" x="0px" y="0px" width="24px"
	 height="24px" viewBox="0 0 24 24" enable-background="new 0 0 24 24" xml:space="preserve">
<g id="Filled_Icons">
	<g>
		<path d="M5.381,12.777c-0.525,2.408,1.649,4.593,5.974,6.012L13,17.574V8.283c-0.188-0.014-0.374-0.02-0.559-0.02
			C8.899,8.264,5.879,10.491,5.381,12.777z"/>
		<path d="M12,0C5.383,0,0,5.383,0,12s5.383,12,12,12s12-5.383,12-12S18.617,0,12,0z M20,10.488
			c0.003,0.103-0.027,0.213-0.096,0.306c-0.096,0.135-0.259,0.212-0.416,0.206H16c-0.276,0-0.5-0.224-0.5-0.5S15.724,10,16,10h2.428
			C17.702,9.449,16.293,8.754,14,8.4v9.427c0,0.159-0.075,0.308-0.203,0.402l-2.055,1.517c-0.129,0.096-0.295,0.123-0.447,0.074
			c-7.154-2.26-7.203-5.827-6.892-7.256C5.09,9.42,9.023,7.053,13,7.281V4c0-0.276,0.224-0.5,0.5-0.5S14,3.724,14,4v3.39
			c2.431,0.354,4.058,1.081,5,1.796V7c0-0.276,0.224-0.5,0.5-0.5S20,6.724,20,7V10.488z"/>
	</g>
</g>
<g id="Frames-24px">
	<rect fill="none" width="24" height="24"/>
</g>
</svg>
