<?xml version="1.0" encoding="utf-8"?>
<!-- Generator: Adobe Illustrator 19.2.1, SVG Export Plug-In . SVG Version: 6.00 Build 0)  -->
<svg version="1.1" xmlns="http://www.w3.org/2000/svg" xmlns:xlink="http://www.w3.org/1999/xlink" x="0px" y="0px" width="24px"
	 height="24px" viewBox="0 0 24 24" enable-background="new 0 0 24 24" xml:space="preserve">
<g id="Filled_Icons">
	<path d="M24,7.5c0-1.103-0.897-2-2-2c-0.804,0-1.493,0.478-1.81,1.164l-7.744-2.545C12.275,3.477,11.695,3,11,3
		c-0.827,0-1.5,0.673-1.5,1.5c0,0.18,0.037,0.35,0.095,0.511l-8.082,9.491C1.508,14.501,1.504,14.5,1.5,14.5
		C0.673,14.5,0,15.173,0,16c0,0.827,0.673,1.5,1.5,1.5c0.427,0,0.81-0.181,1.083-0.468l6.936,1.778C9.513,18.873,9.5,18.935,9.5,19
		c0,1.103,0.897,2,2,2s2-0.897,2-2c0-0.076-0.014-0.147-0.023-0.221l5.667-2.551C19.388,16.398,19.682,16.5,20,16.5
		c0.827,0,1.5-0.673,1.5-1.5c0-0.37-0.14-0.705-0.363-0.967l0.997-4.547C23.173,9.416,24,8.557,24,7.5z M20,13.5
		c-0.245,0-0.474,0.064-0.678,0.17l-1.088-1.357l2.802-3.071c0.038,0.021,0.075,0.044,0.114,0.062l-0.925,4.22
		C20.151,13.512,20.077,13.5,20,13.5z M7,12.5c0,0.148,0.028,0.289,0.068,0.424l-4.459,1.832l7.212-8.468l-1.238,4.72
		C8.555,11.007,8.528,11,8.5,11C7.673,11,7,11.673,7,12.5z M12.4,17.225c-0.094-0.048-0.192-0.088-0.295-0.121l-0.264-5.062
		l3.68-1.513l1.397,1.742L12.4,17.225z M9.815,11.795c-0.079-0.148-0.18-0.28-0.301-0.393l1.078-4.113l0.214,4.098L9.815,11.795z
		 M11.521,5.902c0.073-0.029,0.142-0.062,0.209-0.101l3.14,3.915l-3.083,1.268L11.521,5.902z M16.486,10.133l3.812-1.566
		l-2.698,2.957L16.486,10.133z M15.834,9.32l-3.303-4.119l7.406,2.433L15.834,9.32z M8.5,12C8.776,12,9,12.225,9,12.5
		S8.776,13,8.5,13S8,12.775,8,12.5S8.224,12,8.5,12z M9.966,12.814l0.896-0.368l0.227,4.345l-1.513-3.247
		C9.767,13.344,9.906,13.094,9.966,12.814z M17.552,13.061l1.075,1.342C18.546,14.585,18.5,14.787,18.5,15
		c0,0.138,0.024,0.269,0.06,0.396l-5.321,2.394L17.552,13.061z M22,6.5c0.551,0,1,0.449,1,1s-0.449,1-1,1s-1-0.449-1-1
		S21.449,6.5,22,6.5z M11,4c0.276,0,0.5,0.225,0.5,0.5S11.276,5,11,5s-0.5-0.225-0.5-0.5S10.724,4,11,4z M1.5,16.5
		C1.224,16.5,1,16.275,1,16s0.224-0.5,0.5-0.5S2,15.725,2,16S1.776,16.5,1.5,16.5z M2.989,16.104C2.992,16.069,3,16.035,3,16
		c0-0.106-0.012-0.209-0.033-0.31l4.714-1.937C7.916,13.908,8.197,14,8.5,14c0.061,0,0.118-0.011,0.177-0.018l1.604,3.443
		c-0.162,0.125-0.308,0.271-0.425,0.439L2.989,16.104z M11.5,20c-0.551,0-1-0.449-1-1s0.449-1,1-1s1,0.449,1,1S12.051,20,11.5,20z
		 M20,15.5c-0.276,0-0.5-0.225-0.5-0.5s0.224-0.5,0.5-0.5s0.5,0.225,0.5,0.5S20.276,15.5,20,15.5z"/>
</g>
<g id="Frames-24px">
	<rect fill="none" width="24" height="24"/>
</g>
</svg>
