<?xml version="1.0" encoding="utf-8"?>
<!-- Generator: Adobe Illustrator 19.2.1, SVG Export Plug-In . SVG Version: 6.00 Build 0)  -->
<svg version="1.1" xmlns="http://www.w3.org/2000/svg" xmlns:xlink="http://www.w3.org/1999/xlink" x="0px" y="0px" width="24px"
	 height="24px" viewBox="0 0 24 24" enable-background="new 0 0 24 24" xml:space="preserve">
<g id="Filled_Icons">
	<path d="M12,0C5.383,0,0,5.383,0,12s5.383,12,12,12s12-5.383,12-12S18.617,0,12,0z M12,4c2.076,0,4.045,0.792,5.541,2.229
		l-2.077,2.164C14.527,7.495,13.298,7,12,7C9.972,7,8.229,8.219,7.446,9.959L5.005,8.128C6.371,5.67,8.993,4,12,4z M4.57,9.053
		l2.542,1.907C7.041,11.296,7,11.644,7,12c0,0.651,0.134,1.269,0.361,1.842l-2.487,1.777C4.319,14.529,4,13.303,4,12
		C4,10.959,4.206,9.966,4.57,9.053z M5.381,16.486l2.445-1.747C8.721,16.098,10.255,17,12,17c0.941,0,1.814-0.272,2.566-0.727
		l2.164,2.164C15.403,19.414,13.771,20,12,20C9.25,20,6.82,18.605,5.381,16.486z M20,12c0,2.281-0.964,4.335-2.499,5.794
		l-2.126-2.126c0.636-0.586,1.129-1.324,1.395-2.168H12.5v-3H20V12z"/>
</g>
<g id="Frames-24px">
</g>
</svg>
