<?xml version="1.0" encoding="utf-8"?>
<!-- Generator: Adobe Illustrator 19.2.1, SVG Export Plug-In . SVG Version: 6.00 Build 0)  -->
<svg version="1.1" xmlns="http://www.w3.org/2000/svg" xmlns:xlink="http://www.w3.org/1999/xlink" x="0px" y="0px" width="24px"
	 height="24px" viewBox="0 0 24 24" enable-background="new 0 0 24 24" xml:space="preserve">
<g id="Filled_Icons">
	<g>
		<path d="M12.051,6.195c-1.881,0-3.404,1.887-3.404,4.215v1.74c0,2.328,1.523,4.217,3.404,4.217c0.272,0,0.536-0.042,0.789-0.117
			c-0.676-1.162-1.665-1.201-1.665-1.201v-1.328c1.458-0.082,2.606,0.561,3.339,1.34c0.584-0.758,0.942-1.779,0.942-2.91v-1.74
			C15.456,8.082,13.932,6.195,12.051,6.195z"/>
		<path d="M12,0C5.383,0,0,5.383,0,12s5.383,12,12,12s12-5.383,12-12S18.617,0,12,0z M17.215,18.256v1.146
			c-2.047,0.389-3.011-0.427-3.644-1.578c-0.504,0.124-1.03,0.191-1.571,0.191c-3.683,0-6.667-3.025-6.667-6.758
			C5.333,7.526,8.317,4.5,12,4.5c3.682,0,6.667,3.026,6.667,6.758c0,2.429-1.266,4.559-3.164,5.751
			C15.902,17.927,17.215,18.256,17.215,18.256z"/>
	</g>
</g>
<g id="Frames-24px">
	<rect fill="none" width="24" height="24"/>
</g>
</svg>
