<?xml version="1.0" encoding="utf-8"?>
<!-- Generator: Adobe Illustrator 19.2.1, SVG Export Plug-In . SVG Version: 6.00 Build 0)  -->
<svg version="1.1" xmlns="http://www.w3.org/2000/svg" xmlns:xlink="http://www.w3.org/1999/xlink" x="0px" y="0px" width="24px"
	 height="24px" viewBox="0 0 24 24" enable-background="new 0 0 24 24" xml:space="preserve">
<g id="Filled_Icons">
	<g>
		<path d="M12,12.013c-2.156,0-4.791-1.518-4.791,2.256c0,1.233,1.001,2.235,2.236,2.235h5.109c1.234,0,2.235-1.002,2.235-2.235
			C16.79,10.456,14.155,12.013,12,12.013z M10,15.004H9v-2h1V15.004z M15,15.004h-1v-2h1V15.004z"/>
		<path d="M12,0.004c-6.617,0-12,5.383-12,12s5.383,12,12,12s12-5.383,12-12S18.617,0.004,12,0.004z M18.979,14.327
			c-0.153,1.996-1.818,4.177-3.821,4.177H8.842c-2.002,0-3.667-2.181-3.821-4.177c-0.113-1.476,0.241-2.692,0.892-3.668
			c-0.074-0.131-1.635-2.948,0.393-4.611c1.273,0,3.22,2.099,3.231,2.11c1.594-0.461,3.379-0.457,4.97,0.009L14.49,8.159
			c0,0,1.954-2.111,3.233-2.111c2.075,1.703,0.385,4.624,0.385,4.624l-0.022-0.016C18.737,11.631,19.093,12.852,18.979,14.327z"/>
	</g>
</g>
<g id="Frames-24px">
	<rect fill="none" width="24" height="24"/>
</g>
</svg>
