<?xml version="1.0" encoding="utf-8"?>
<!-- Generator: Adobe Illustrator 19.2.1, SVG Export Plug-In . SVG Version: 6.00 Build 0)  -->
<svg version="1.1" xmlns="http://www.w3.org/2000/svg" xmlns:xlink="http://www.w3.org/1999/xlink" x="0px" y="0px" width="24px"
	 height="24px" viewBox="0 0 24 24" enable-background="new 0 0 24 24" xml:space="preserve">
<g id="Filled_Icons">
	<path d="M12,0C5.383,0,0,5.383,0,12s5.383,12,12,12s12-5.383,12-12S18.617,0,12,0z M4.526,10.644
		c0.239-0.25,0.669-0.527,1.336-0.607C6.885,7.666,9.244,6,11.987,6c2.635,0,4.911,1.54,5.993,3.764V7.083
		c-0.313-0.178-0.535-0.501-0.535-0.887c0-0.571,0.465-1.035,1.035-1.035c0.569,0,1.033,0.464,1.033,1.035
		c0,0.386-0.221,0.708-0.533,0.886v3.02c0.655,0.36,0.997,1.141,0.997,1.916c0,0.531-0.151,1.031-0.426,1.41
		c-0.333,0.461-0.829,0.714-1.396,0.714c-0.276,0-0.5-0.224-0.5-0.5v-0.974C17.655,9.543,15.112,7,11.987,7
		s-5.668,2.543-5.668,5.668v0.974c0,0.276-0.224,0.5-0.5,0.5c-1.15,0-1.838-1.056-1.838-2.075
		C3.981,11.518,4.175,11.014,4.526,10.644z M11.987,9.463c-1.786,0-3.239,1.453-3.239,3.239c0,0.439,0.085,0.864,0.254,1.263
		c0.107,0.254-0.012,0.547-0.267,0.654c-0.064,0.027-0.129,0.04-0.194,0.04c-0.194,0-0.38-0.114-0.461-0.306
		c-0.221-0.522-0.332-1.078-0.332-1.651c0-2.337,1.901-4.239,4.239-4.239s4.24,1.902,4.24,4.239c0,0.567-0.11,1.117-0.327,1.636
		c-0.107,0.254-0.4,0.375-0.654,0.268c-0.255-0.108-0.374-0.399-0.268-0.654c0.165-0.395,0.249-0.815,0.249-1.249
		C15.227,10.916,13.774,9.463,11.987,9.463z M19.504,16.734c-0.051,0.002-5.119,0.256-7.104,2.646
		c-0.095,0.115-0.236,0.182-0.385,0.182c-0.148,0-0.29-0.066-0.385-0.182c-1.989-2.395-7.053-2.645-7.105-2.646
		c-0.275-0.014-0.489-0.246-0.478-0.522c0.013-0.269,0.233-0.478,0.5-0.478c0.007,0,0.015,0,0.023,0
		c0.214,0.01,5.009,0.248,7.444,2.595c2.434-2.347,7.229-2.585,7.443-2.595c0.291-0.027,0.509,0.201,0.521,0.476
		C19.993,16.487,19.779,16.721,19.504,16.734z"/>
</g>
<g id="Frames-24px">
	<rect fill="none" width="24" height="24"/>
</g>
</svg>
