<?xml version="1.0" encoding="utf-8"?>
<!-- Generator: Adobe Illustrator 19.2.1, SVG Export Plug-In . SVG Version: 6.00 Build 0)  -->
<svg version="1.1" xmlns="http://www.w3.org/2000/svg" xmlns:xlink="http://www.w3.org/1999/xlink" x="0px" y="0px" width="24px"
	 height="24px" viewBox="0 0 24 24" enable-background="new 0 0 24 24" xml:space="preserve">
<g id="Filled_Icons">
	<g>
		<circle cx="19.5" cy="18.5" r="3"/>
		<path d="M16.051,14.965C14.087,9.152,5.896,9.742,5.896,6.121c0-1.758,1.829-2.57,3.59-2.57c0.854,0,1.522,0.131,2.023,0.379
			c-0.756,1.676,0.492,3.497,2.271,3.497c1.378,0,2.495-1.11,2.495-2.479c0-1.716-2.961-4.447-7.054-4.447
			c-3.385,0-6.43,2.312-6.43,5.59c0,6.78,9.771,5.709,9.771,10.896c0,3.299-4.066,4.797-6.774,1.678
			c0.47-0.451,0.767-1.08,0.767-1.783c0-1.369-1.115-2.479-2.494-2.479c-1.377,0-2.494,1.109-2.494,2.479
			c0,1.316,2.15,6.619,8.08,6.619c2.161,0,3.972-0.864,5.324-2.507c-0.41-0.703-0.664-1.509-0.664-2.38
			C14.307,17.139,14.994,15.838,16.051,14.965z"/>
	</g>
</g>
<g id="Frames-24px">
	<rect fill="none" width="24" height="24"/>
</g>
</svg>
