<?xml version="1.0" encoding="utf-8"?>
<!-- Generator: Adobe Illustrator 19.2.1, SVG Export Plug-In . SVG Version: 6.00 Build 0)  -->
<svg version="1.1" xmlns="http://www.w3.org/2000/svg" xmlns:xlink="http://www.w3.org/1999/xlink" x="0px" y="0px" width="24px"
	 height="24px" viewBox="0 0 24 24" enable-background="new 0 0 24 24" xml:space="preserve">
<g id="Filled_Icons">
	<g>
		<g>
			<path d="M12,23c4.852,0,8.972-3.161,10.43-7.528c-3.903-0.286-6.139-3.459-8.117-6.281c-2.041-2.911-3.45-4.71-5.648-3.93
				c1.17,2.795,0.902,5.484-0.76,7.441c-1.457,1.715-3.831,2.58-5.639,2.057c-0.392-0.113-0.734-0.29-1.033-0.511
				C2.273,19.239,6.705,23,12,23z"/>
		</g>
		<g>
			<path d="M12,1C5.948,1,1.023,5.914,1.002,11.961c0.184,1.201,0.937,1.663,1.541,1.837c1.452,0.419,3.386-0.315,4.6-1.744
				c0.875-1.031,2.093-3.291,0.406-6.84C7.431,4.967,7.534,4.671,7.78,4.551c3.35-1.64,5.294,1.131,7.351,4.066
				c1.882,2.684,4.012,5.707,7.575,5.868C22.892,13.686,23,12.856,23,12C23,5.935,18.065,1,12,1z"/>
		</g>
	</g>
</g>
<g id="Frames-24px">
	<rect fill="none" width="24" height="24"/>
</g>
</svg>
