<?xml version="1.0" encoding="utf-8"?>
<!-- Generator: Adobe Illustrator 19.2.1, SVG Export Plug-In . SVG Version: 6.00 Build 0)  -->
<svg version="1.1" xmlns="http://www.w3.org/2000/svg" xmlns:xlink="http://www.w3.org/1999/xlink" x="0px" y="0px" width="24px"
	 height="24px" viewBox="0 0 24 24" enable-background="new 0 0 24 24" xml:space="preserve">
<g id="Filled_Icons">
	<path d="M18.159,2.914c-2.682,0-5.135,1.959-5.514,4.514c0,0-0.877-4.514-5.218-4.514c-2.949,0-5.338,2.371-5.338,5.292
		c0,2.821,2.251,5.294,5.41,5.294v1.961l-7-1.645v7.039l7-1.826V21.5h9.008l-2.639-8h4.279h0.011c2.949,0,5.341-2.37,5.341-5.294
		C23.5,5.285,21.108,2.914,18.159,2.914z M7.428,9.701c-0.832,0-1.508-0.668-1.508-1.495c0-0.825,0.676-1.495,1.508-1.495
		c0.832,0,1.508,0.67,1.508,1.495C8.936,9.033,8.26,9.701,7.428,9.701z M18.268,9.703c-0.832,0-1.506-0.67-1.506-1.497
		c0-0.825,0.674-1.495,1.506-1.495c0.835,0,1.51,0.67,1.51,1.495C19.777,9.033,19.103,9.703,18.268,9.703z"/>
</g>
<g id="Frames-24px">
	<rect fill="none" width="24" height="24"/>
</g>
</svg>
