<?xml version="1.0" encoding="utf-8"?>
<!-- Generator: Adobe Illustrator 19.2.1, SVG Export Plug-In . SVG Version: 6.00 Build 0)  -->
<svg version="1.1" xmlns="http://www.w3.org/2000/svg" xmlns:xlink="http://www.w3.org/1999/xlink" x="0px" y="0px" width="24px"
	 height="24px" viewBox="0 0 24 24" enable-background="new 0 0 24 24" xml:space="preserve">
<g id="Filled_Icons">
	<g>
		<path d="M14.5,15.5h-2v-4.102c2.279-0.465,4-2.484,4-4.898h4c0.552,0,1-0.447,1-1c0-0.552-0.448-1-1-1h-4V1c0-0.552-0.448-1-1-1
			s-1,0.448-1,1v3.5h-6V1c0-0.552-0.448-1-1-1s-1,0.448-1,1v3.5h-4c-0.552,0-1,0.448-1,1c0,0.553,0.448,1,1,1h4
			c0,2.414,1.721,4.434,4,4.898V15.5h-2c-2.206,0-4,1.795-4,4V23c0,0.553,0.448,1,1,1s1-0.447,1-1v-3.5c0-1.104,0.897-2,2-2h2V23
			c0,0.553,0.448,1,1,1s1-0.447,1-1v-5.5h2c1.103,0,2,0.896,2,2V23c0,0.553,0.448,1,1,1s1-0.447,1-1v-3.5
			C18.5,17.295,16.706,15.5,14.5,15.5z M8.5,6.5h6c0,1.654-1.346,3-3,3S8.5,8.154,8.5,6.5z"/>
		<path d="M21.659,14.248l-4-3.5c-0.416-0.363-1.048-0.321-1.411,0.094c-0.364,0.416-0.322,1.047,0.094,1.41l4,3.5
			C20.531,15.918,20.766,16,21,16c0.278,0,0.555-0.115,0.753-0.342C22.116,15.243,22.074,14.611,21.659,14.248z"/>
		<path d="M6.752,10.842c-0.364-0.415-0.996-0.459-1.411-0.094l-4,3.5c-0.415,0.363-0.457,0.995-0.094,1.41
			C1.445,15.885,1.722,16,2,16c0.233,0,0.468-0.082,0.658-0.248l4-3.5C7.074,11.889,7.116,11.258,6.752,10.842z"/>
	</g>
</g>
<g id="Frames-24px">
	<rect fill="none" width="24" height="24"/>
</g>
</svg>
