<?xml version="1.0" encoding="utf-8"?>
<!-- Generator: Adobe Illustrator 19.2.1, SVG Export Plug-In . SVG Version: 6.00 Build 0)  -->
<svg version="1.1" xmlns="http://www.w3.org/2000/svg" xmlns:xlink="http://www.w3.org/1999/xlink" x="0px" y="0px" width="24px"
	 height="24px" viewBox="0 0 24 24" enable-background="new 0 0 24 24" xml:space="preserve">
<g id="Filled_Icons">
	<g>
		<path d="M15.472,12.691c-0.471,0.82-1.938,0.332-1.938,0.332V8.842c0,0,0.271-0.512,1.382-0.383
			C16.153,8.602,15.99,11.785,15.472,12.691z M23.5,0.5v14.477c0,0.511-0.348,1.064-0.994,1.363
			C21.031,17.023,2.033,23.5,2.033,23.5L6.252,1.855c0,0,0.344-1.355,2.167-1.355H23.5z M17.966,7.734
			c-0.941-2.561-4.225-1.409-4.268-0.556l-0.164-0.043V2.869L10.5,3.296V14.09c0,0,1.877,1.535,4.57,1.109
			c2.693-0.428,3.102-2.688,3.102-2.688S18.905,10.293,17.966,7.734"/>
	</g>
</g>
<g id="Frames-24px">
	<rect fill="none" width="24" height="24"/>
</g>
</svg>
