<?xml version="1.0" encoding="utf-8"?>
<!-- Generator: Adobe Illustrator 19.2.1, SVG Export Plug-In . SVG Version: 6.00 Build 0)  -->
<svg version="1.1" xmlns="http://www.w3.org/2000/svg" xmlns:xlink="http://www.w3.org/1999/xlink" x="0px" y="0px" width="24px"
	 height="24px" viewBox="0 0 24 24" enable-background="new 0 0 24 24" xml:space="preserve">
<g id="Filled_Icons">
	<g>
		<path d="M12.962,21.923l0.835-2.565l-2.201-1.661c-0.515-0.388-0.724-1.062-0.519-1.674C11.283,15.412,11.855,15,12.5,15h2.697
			l0.824-2.461c0.205-0.612,0.777-1.024,1.422-1.024c0.645,0,1.218,0.412,1.422,1.024L19.69,15h2.697
			c0.004,0,0.008,0.002,0.012,0.002L17.855,1.837c-0.07-0.203-0.273-0.375-0.477-0.337c-0.215,0.002-0.404,0.141-0.471,0.345
			L13.27,13H1.5c-0.219,0-0.413,0.143-0.477,0.352c-0.065,0.209,0.014,0.436,0.194,0.561l11.736,8.078
			C12.958,21.969,12.955,21.945,12.962,21.923z"/>
		<path d="M22.861,16.341C22.792,16.137,22.602,16,22.387,16H18.97l-1.053-3.144c-0.137-0.408-0.811-0.408-0.948,0L15.917,16H12.5
			c-0.215,0-0.406,0.137-0.474,0.341c-0.068,0.204,0.001,0.428,0.173,0.558l2.77,2.09l-1.056,3.243
			c-0.067,0.206,0.006,0.432,0.181,0.559c0.088,0.065,0.191,0.096,0.294,0.096c0.103,0,0.206-0.031,0.293-0.095l2.761-2l2.761,2
			c0.176,0.127,0.413,0.127,0.588,0c0.175-0.127,0.248-0.354,0.181-0.559l-1.057-3.243l2.771-2.09
			C22.859,16.77,22.929,16.545,22.861,16.341z"/>
	</g>
</g>
<g id="Frames-24px">
	<rect fill="none" width="24" height="24"/>
</g>
</svg>
