<?xml version="1.0" encoding="utf-8"?>
<!-- Generator: Adobe Illustrator 19.2.1, SVG Export Plug-In . SVG Version: 6.00 Build 0)  -->
<svg version="1.1" xmlns="http://www.w3.org/2000/svg" xmlns:xlink="http://www.w3.org/1999/xlink" x="0px" y="0px" width="24px"
	 height="24px" viewBox="0 0 24 24" enable-background="new 0 0 24 24" xml:space="preserve">
<g id="Filled_Icons">
	<path d="M12,0C5.383,0,0,5.383,0,12s5.383,12,12,12s12-5.383,12-12S18.617,0,12,0z M15.652,4c1.45,0,2.63,1.18,2.63,2.631
		c0,1.451-1.18,2.63-2.63,2.63s-2.631-1.179-2.631-2.63C13.021,5.18,14.202,4,15.652,4z M10.782,4.608
		c0.599,0,1.132,0.267,1.503,0.682c-0.166,0.416-0.264,0.866-0.264,1.341c0,0.474,0.098,0.924,0.264,1.34
		c-0.371,0.415-0.904,0.682-1.503,0.682c-1.114,0-2.021-0.907-2.021-2.021C8.761,5.516,9.668,4.608,10.782,4.608z M7.131,5.217
		c0.32,0,0.613,0.112,0.851,0.293c-0.14,0.348-0.221,0.725-0.221,1.121c0,0.396,0.081,0.773,0.221,1.12
		c-0.237,0.181-0.53,0.293-0.851,0.293c-0.779,0-1.413-0.634-1.413-1.413S6.352,5.217,7.131,5.217z M7,14H5.5
		C5.224,14,5,13.776,5,13.5V11c0-1.104,0.898-2,2-2c0.444,0,0.852,0.15,1.184,0.396C7.463,10.038,7,10.962,7,12V14z M11,13.5V17H8.5
		C8.224,17,8,16.776,8,16.5V12c0-1.379,1.121-2.5,2.5-2.5c0.726,0,1.374,0.315,1.831,0.811C11.51,11.126,11,12.254,11,13.5z
		 M19,18.5c0,0.276-0.224,0.5-0.5,0.5h-6c-0.276,0-0.5-0.224-0.5-0.5v-5c0-1.93,1.57-3.5,3.5-3.5s3.5,1.57,3.5,3.5V18.5z"/>
</g>
<g id="Frames-24px">
	<rect fill="none" width="24" height="24"/>
</g>
</svg>
