<?xml version="1.0" encoding="utf-8"?>
<!-- Generator: Adobe Illustrator 19.2.1, SVG Export Plug-In . SVG Version: 6.00 Build 0)  -->
<svg version="1.1" xmlns="http://www.w3.org/2000/svg" xmlns:xlink="http://www.w3.org/1999/xlink" x="0px" y="0px" width="24px"
	 height="24px" viewBox="0 0 24 24" enable-background="new 0 0 24 24" xml:space="preserve">
<g id="Filled_Icons">
	<g>
		<path d="M1.5,7C1.224,7,1,7.224,1,7.5v9C1,16.776,1.224,17,1.5,17S2,16.776,2,16.5v-9C2,7.224,1.776,7,1.5,7z"/>
		<path d="M9.579,7.006C9.341,6.967,9.101,7.111,9.025,7.345l-2.472,7.574l-2.58-7.58C3.895,7.107,3.657,6.967,3.418,7.007
			C3.177,7.047,3,7.256,3,7.5v9C3,16.776,3.224,17,3.5,17S4,16.776,4,16.5v-5.979l2.089,6.14C6.158,16.865,6.322,16.982,6.565,17
			c0.215-0.002,0.406-0.14,0.472-0.345L9,10.644V16.5C9,16.776,9.224,17,9.5,17s0.5-0.224,0.5-0.5v-9
			C10,7.254,9.821,7.045,9.579,7.006z"/>
		<path d="M14.5,7h-3C11.224,7,11,7.224,11,7.5v9c0,0.276,0.224,0.5,0.5,0.5h3c1.378,0,2.5-1.121,2.5-2.5v-5
			C17,8.121,15.878,7,14.5,7z M16,14.5c0,0.827-0.673,1.5-1.5,1.5H12V8h2.5C15.327,8,16,8.673,16,9.5V14.5z"/>
		<path d="M21.5,10H19V7.5C19,7.224,18.776,7,18.5,7S18,7.224,18,7.5v3v6c0,0.276,0.224,0.5,0.5,0.5h3c1.378,0,2.5-1.121,2.5-2.5v-2
			C24,11.121,22.878,10,21.5,10z M23,14.5c0,0.827-0.673,1.5-1.5,1.5H19v-5h2.5c0.827,0,1.5,0.673,1.5,1.5V14.5z"/>
	</g>
</g>
<g id="Frames-24px">
	<rect fill="none" width="24" height="24"/>
</g>
</svg>
