<?xml version="1.0" encoding="utf-8"?>
<!-- Generator: Adobe Illustrator 19.2.1, SVG Export Plug-In . SVG Version: 6.00 Build 0)  -->
<svg version="1.1" xmlns="http://www.w3.org/2000/svg" xmlns:xlink="http://www.w3.org/1999/xlink" x="0px" y="0px" width="24px"
	 height="24px" viewBox="0 0 24 24" enable-background="new 0 0 24 24" xml:space="preserve">
<g id="Filled_Icons">
	<path d="M12,0C5.383,0,0,5.383,0,12s5.383,12,12,12s12-5.383,12-12S18.617,0,12,0z M13.309,17.711
		c-2.488,0-4.501-2.012-4.501-4.499c0-2.481,2.013-4.501,4.501-4.501c0.771,0,1.492,0.193,2.123,0.535
		c-0.787,0.283-1.351,1.039-1.351,1.924c0,1.129,0.914,2.042,2.042,2.042c0.653,0,1.241-0.311,1.612-0.788
		c0.044,0.254,0.073,0.52,0.073,0.788C17.808,15.699,15.788,17.711,13.309,17.711z M19.482,12.471
		c-0.227-3.418-3.078-6.131-6.566-6.131c-3.628,0-6.576,2.947-6.576,6.576c0,3.488,2.713,6.34,6.131,6.566
		C12.322,19.49,12.157,19.5,12,19.5c-4.143,0-7.5-3.357-7.5-7.5c0-4.142,3.357-7.5,7.5-7.5s7.5,3.358,7.5,7.5
		C19.5,12.156,19.491,12.322,19.482,12.471z"/>
</g>
<g id="Frames-24px">
	<rect fill="none" width="24" height="24"/>
</g>
</svg>
