<?xml version="1.0" encoding="utf-8"?>
<!-- Generator: Adobe Illustrator 19.2.1, SVG Export Plug-In . SVG Version: 6.00 Build 0)  -->
<svg version="1.1" xmlns="http://www.w3.org/2000/svg" xmlns:xlink="http://www.w3.org/1999/xlink" x="0px" y="0px" width="24px"
	 height="24px" viewBox="0 0 24 24" enable-background="new 0 0 24 24" xml:space="preserve">
<g id="Filled_Icons">
	<path d="M12,0C5.383,0,0,5.383,0,12s5.383,12,12,12s12-5.383,12-12S18.617,0,12,0z M18.435,9.88
		c-0.726,4.091-4.785,7.555-6.006,8.346c-1.221,0.793-2.335-0.316-2.738-1.154c-0.463-0.956-1.849-6.138-2.211-6.566
		c-0.363-0.429-1.453,0.428-1.453,0.428L5.5,10.243c0,0,2.211-2.642,3.894-2.971c1.784-0.35,1.781,2.739,2.21,4.455
		c0.416,1.661,0.695,2.608,1.057,2.608c0.363,0,1.057-0.924,1.814-2.343c0.76-1.418-0.033-2.673-1.518-1.781
		C13.551,6.644,19.161,5.79,18.435,9.88z"/>
</g>
<g id="Frames-24px">
	<rect fill="none" width="24" height="24"/>
</g>
</svg>
