<?xml version="1.0" encoding="utf-8"?>
<!-- Generator: Adobe Illustrator 19.2.1, SVG Export Plug-In . SVG Version: 6.00 Build 0)  -->
<svg version="1.1" xmlns="http://www.w3.org/2000/svg" xmlns:xlink="http://www.w3.org/1999/xlink" x="0px" y="0px" width="24px"
	 height="24px" viewBox="0 0 24 24" enable-background="new 0 0 24 24" xml:space="preserve">
<g id="Filled_Icons">
	<g>
		<path d="M11.969,9.182c0.451,0,0.875,0.108,1.26,0.287c0.553-0.77,1.995-2.684,3.69-4.313c0.201-6.891-6.822-4.71-6.731-1.504
			c0.017,0.58,0.059,1.152,0.112,1.708c0.437,1.078,0.872,2.394,1.154,3.874C11.622,9.206,11.792,9.182,11.969,9.182z"/>
		<path d="M18.381,17.539c-1.346-1.361-2.99-2.711-4.056-3.522c-0.299,0.383-0.682,0.694-1.129,0.896
			c0.282,1.884,0.814,4.122,1.484,5.742C16.459,22.032,19.109,20.254,18.381,17.539z"/>
		<path d="M23.031,15.464c0.509-0.938,0.573-4.51-2.176-5.235l-5.938,1.44c0.029,0.167,0.052,0.337,0.052,0.512
			c0,0.332-0.067,0.645-0.167,0.943c0.83,0.623,2.936,2.267,4.597,4.024C21.295,17.749,22.559,16.334,23.031,15.464z"/>
		<path d="M9.748,14.182c-0.122-0.135-0.231-0.279-0.327-0.435c-1.56,0.406-4.404,1.286-6.41,2.347
			c-0.786,1.423,0.157,3.176,2.468,2.811C7.477,17.394,9.169,15.04,9.748,14.182z"/>
		<circle cx="11.969" cy="12.182" r="2"/>
		<path d="M12.938,21.09c0.135-0.451,0.26-0.883,0.362-1.243c-0.583-1.77-0.924-3.67-1.08-4.691
			c-0.084,0.007-0.165,0.025-0.251,0.025c-0.521,0-1.004-0.145-1.431-0.379c-0.59,0.874-2.069,2.919-3.921,4.475
			C4.723,23.341,11.634,25.432,12.938,21.09z"/>
		<path d="M3.42,14.783c2.117-0.981,4.569-1.688,5.619-1.968c-0.044-0.205-0.07-0.416-0.07-0.633c0-0.052,0.013-0.101,0.016-0.154
			c-0.672-0.506-2.14-1.651-3.503-2.946c-0.292-0.052-0.601-0.081-0.95-0.056C1.889,9.215,0.5,10.788,0.5,12.527
			C0.5,13.81,1.98,14.63,3.42,14.783z"/>
		<path d="M14.054,10.033c0.208,0.202,0.378,0.437,0.52,0.691l5.503-1.335c3.184-3.084,0.854-4.867-1.375-4.48
			C16.86,6.396,14.997,8.713,14.054,10.033z"/>
		<path d="M5.625,3.776C4.884,4.304,4.272,5.428,4.732,6.852c1.136,1.308,2.93,2.892,4.502,4.109
			c0.263-0.586,0.711-1.064,1.267-1.379c-0.305-1.67-0.825-3.142-1.315-4.278C8.12,3.955,6.651,3.047,5.625,3.776z"/>
	</g>
</g>
<g id="Frames-24px">
	<rect fill="none" width="24" height="24"/>
</g>
</svg>
