<?xml version="1.0" encoding="utf-8"?>
<!-- Generator: Adobe Illustrator 19.2.1, SVG Export Plug-In . SVG Version: 6.00 Build 0)  -->
<svg version="1.1" xmlns="http://www.w3.org/2000/svg" xmlns:xlink="http://www.w3.org/1999/xlink" x="0px" y="0px" width="24px"
	 height="24px" viewBox="0 0 24 24" enable-background="new 0 0 24 24" xml:space="preserve">
<g id="Filled_Icons">
	<g>
		<circle cx="17.069" cy="12.112" r="0.501"/>
		<path d="M10.949,13.818c0.188,0.566,0.719,0.976,1.347,0.976c0.782,0,1.417-0.636,1.417-1.422c0-0.037-0.003-0.074-0.006-0.112
			L10.949,13.818z"/>
		<path d="M12,0C5.383,0,0,5.383,0,12s5.383,12,12,12s12-5.383,12-12S18.617,0,12,0z M19.5,15.102c0,0.654-0.529,1.398-1.181,1.398
			H7.868c-0.201,1.547-2.243,1.875-2.243,1.875c0.348-0.598,0.647-1.67,0.62-1.875H5.682c-0.652,0-1.182-0.744-1.182-1.398V7.684
			C4.5,7.031,5.029,6.5,5.682,6.5h12.638c0.651,0,1.181,0.531,1.181,1.184V15.102z"/>
		<circle cx="6.99" cy="12.112" r="0.501"/>
	</g>
</g>
<g id="Frames-24px">
	<rect fill="none" width="24" height="24"/>
</g>
</svg>
