<?xml version="1.0" encoding="utf-8"?>
<!-- Generator: Adobe Illustrator 19.2.1, SVG Export Plug-In . SVG Version: 6.00 Build 0)  -->
<svg version="1.1" xmlns="http://www.w3.org/2000/svg" xmlns:xlink="http://www.w3.org/1999/xlink" x="0px" y="0px" width="24px"
	 height="24px" viewBox="0 0 24 24" enable-background="new 0 0 24 24" xml:space="preserve">
<g id="Filled_Icons">
	<g>
		<path d="M18.342,17.352c-0.939-0.733-0.84-0.656-2.002-1.469c-1.527-1.072-2.828-0.854-3.764,0.562
			c-0.308,0.467-0.695,0.508-1.237,0.262c-1.947-0.883-3.279-2.179-4.073-3.963c-0.35-0.785-0.251-1.251,0.35-1.66
			c0.421-0.285,1.204-0.814,1.147-1.867C8.7,8.074,6.289,4.789,5.23,4.4c-0.461-0.17-0.948-0.172-1.446-0.006
			c-1.193,0.401-2.051,1.11-2.483,2.051C0.883,7.357,0.9,8.422,1.35,9.523c2.469,6.061,6.879,10.494,13.108,13.176
			c2.341,1.01,4.504-1.199,5.016-2.643C19.986,18.608,19.036,17.882,18.342,17.352z"/>
		<path d="M23.207,11.789C21.842,6.803,17.738,2.694,12.75,1.323c-0.264-0.073-0.541,0.083-0.614,0.35
			c-0.073,0.267,0.083,0.542,0.35,0.614c4.653,1.279,8.483,5.113,9.756,9.766c0.061,0.222,0.262,0.367,0.482,0.367
			c0.044,0,0.088-0.006,0.132-0.018C23.123,12.33,23.28,12.055,23.207,11.789z"/>
		<path d="M12.153,4.053c-0.272-0.059-0.535,0.117-0.591,0.387c-0.057,0.271,0.117,0.535,0.387,0.592
			c3.738,0.781,6.853,3.942,7.576,7.686c0.046,0.238,0.255,0.404,0.49,0.404c0.031,0,0.063-0.002,0.095-0.009
			c0.271-0.053,0.449-0.313,0.396-0.586C19.709,8.398,16.274,4.914,12.153,4.053z"/>
		<path d="M11.424,7.86c2.725,0.151,5.088,2.496,5.243,5.243c0.015,0.267,0.235,0.473,0.499,0.473c0.009,0,0.019-0.001,0.028-0.002
			c0.276-0.015,0.487-0.25,0.471-0.525c-0.182-3.254-2.986-6.01-6.185-6.187c-0.278-0.016-0.512,0.195-0.527,0.472
			C10.938,7.609,11.148,7.846,11.424,7.86z"/>
	</g>
</g>
<g id="Frames-24px">
	<rect fill="none" width="24" height="24"/>
</g>
</svg>
