<?xml version="1.0" encoding="utf-8"?>
<!-- Generator: Adobe Illustrator 19.2.1, SVG Export Plug-In . SVG Version: 6.00 Build 0)  -->
<svg version="1.1" xmlns="http://www.w3.org/2000/svg" xmlns:xlink="http://www.w3.org/1999/xlink" x="0px" y="0px" width="24px"
	 height="24px" viewBox="0 0 24 24" enable-background="new 0 0 24 24" xml:space="preserve">
<g id="Filled_Icons">
	<g>
		<g>
			<path d="M19,21.5c-2.481,0-4.5-2.018-4.5-4.5v-6.5c0-0.551-0.449-1-1-1h-6c-1.103,0-2,0.897-2,2c0,1.102,0.897,2,2,2
				c2.206,0,4,1.794,4,4s-1.794,4-4,4H0v-2h7.5c1.103,0,2-0.897,2-2c0-1.103-0.897-2-2-2c-2.206,0-4-1.794-4-4s1.794-4,4-4h6
				c1.654,0,3,1.346,3,3V17c0,1.378,1.122,2.5,2.5,2.5s2.5-1.122,2.5-2.5V0h2v17C23.5,19.482,21.481,21.5,19,21.5z"/>
		</g>
	</g>
</g>
<g id="Frames-24px">
	<rect fill="none" width="24" height="24"/>
</g>
</svg>
