<?xml version="1.0" encoding="utf-8"?>
<!-- Generator: Adobe Illustrator 19.2.1, SVG Export Plug-In . SVG Version: 6.00 Build 0)  -->
<svg version="1.1" xmlns="http://www.w3.org/2000/svg" xmlns:xlink="http://www.w3.org/1999/xlink" x="0px" y="0px" width="24px"
	 height="24px" viewBox="0 0 24 24" enable-background="new 0 0 24 24" xml:space="preserve">
<g id="Filled_Icons">
	<path d="M12,0C5.383,0,0,5.383,0,12s5.383,12,12,12s12-5.383,12-12S18.617,0,12,0z M9.912,9.201
		c0.194-0.194,0.508-0.195,0.702-0.005l1.684,1.638l-1.871,2.059c0.04-0.224,0.061-0.454,0.061-0.688
		c0-0.989-0.394-1.885-1.023-2.555L9.912,9.201z M15.606,14.9l-4.986,4.991c-0.094,0.094-0.221,0.146-0.353,0.146
		s-0.26-0.053-0.354-0.146l-4.048-4.052c0.282,0.069,0.573,0.115,0.876,0.115c0.249,0,0.498-0.026,0.745-0.078l2.789,2.362
		l5.044-4.34l0.287,0.295C15.801,14.388,15.801,14.706,15.606,14.9z M18.5,9.84l-8.231,7.083l-2.548-2.158
		c-0.306,0.118-0.635,0.189-0.982,0.189c-1.515,0-2.742-1.228-2.742-2.745c0-1.516,1.23-2.746,2.744-2.746
		c1.515,0,2.745,1.227,2.745,2.743c0,0.376-0.069,0.728-0.206,1.053l1.007,1.273L18.5,5.5V9.84z"/>
</g>
<g id="Frames-24px">
	<rect fill="none" width="24" height="24"/>
</g>
</svg>
