<?xml version="1.0" encoding="utf-8"?>
<!-- Generator: Adobe Illustrator 19.2.1, SVG Export Plug-In . SVG Version: 6.00 Build 0)  -->
<svg version="1.1" xmlns="http://www.w3.org/2000/svg" xmlns:xlink="http://www.w3.org/1999/xlink" x="0px" y="0px" width="24px"
	 height="24px" viewBox="0 0 24 24" enable-background="new 0 0 24 24" xml:space="preserve">
<g id="Filled_Icons">
	<g>
		<path d="M12,0C5.383,0,0,5.383,0,12s5.383,12,12,12s12-5.383,12-12S18.617,0,12,0z M13.962,17.644
			c-0.859,0.905-1.508,0.856-2.453,0.859c-1.719-0.192-3.161-0.875-4.172-1.974c-1.149-1.252-1.75-2.643-1.837-4.229
			c-0.002-0.875,0.033-1.496,0.485-2.664C6.154,9.2,6.364,8.793,6.599,8.439c0.163,0.874,0.648,1.813,1.247,2.411
			c0.647,0.647,1.8,1.186,3.502,2.059c1.57,0.805,3.131,1.426,3.396,2.396C15.044,16.394,14.221,17.371,13.962,17.644z
			 M18.591,15.63c-0.184,0.335-0.379,0.604-0.581,0.804c-0.096,0.093-0.222,0.142-0.35,0.142c-0.07,0-0.141-0.015-0.207-0.044
			c-0.188-0.086-0.305-0.279-0.292-0.485c0.073-1.252-0.241-2.212-0.989-3.023c-0.35-0.379-0.811-0.658-1.395-0.963l-3.419-1.777
			c-1.148-0.602-2.527-1.326-2.372-3.246c0.041-0.511,0.329-1.188,0.67-1.574c0.586-0.664,1.669-0.949,2.562-0.963
			c4.072,0.327,6.778,2.902,7.277,6.891l0.004,1.156C19.5,13.14,19.139,14.628,18.591,15.63z"/>
		<path d="M12.179,5.498c-0.869,0.004-1.527,0.35-1.773,0.627c-0.217,0.244-0.402,0.727-0.424,0.992
			c-0.097,1.201,0.622,1.641,1.802,2.261l3.455,1.796c0.586,0.305,1.193,0.658,1.667,1.17c0.57,0.619,0.945,1.318,1.13,2.117
			c0.3-0.757,0.464-1.235,0.464-3.008C18.062,7.979,15.756,5.786,12.179,5.498z"/>
	</g>
</g>
<g id="Frames-24px">
	<rect fill="none" width="24" height="24"/>
</g>
</svg>
