<?xml version="1.0" encoding="utf-8"?>
<!-- Generator: Adobe Illustrator 19.2.1, SVG Export Plug-In . SVG Version: 6.00 Build 0)  -->
<svg version="1.1" xmlns="http://www.w3.org/2000/svg" xmlns:xlink="http://www.w3.org/1999/xlink" x="0px" y="0px" width="24px"
	 height="24px" viewBox="0 0 24 24" enable-background="new 0 0 24 24" xml:space="preserve">
<g id="Filled_Icons">
	<path d="M23.782,15.337c-0.211-0.525-0.967-0.738-1.625-0.497c-0.251,0.092-3.73,1.319-4.056,1.319
		c-0.502,0-2.774-1.58-3.219-1.847C14.347,8.644,9.04,7.024,6.74,6.583c0.418-2.719,0.354-4.22-0.203-4.976
		C6.292,1.274,5.944,1.075,5.504,1.014C4.611,0.883,3.903,1.575,3.528,2.82c-0.085-0.064-0.17-0.128-0.256-0.189
		C2.257,1.909,0.939,2.252,0.456,3.269C0.167,3.875,0.24,4.539,0.618,4.998C1.451,6.29,2.359,7.163,2.931,7.641
		C2.348,8.065,1.424,8.79,0.633,9.643c-0.713,0.771-0.938,1.869-0.561,2.732c0.386,0.882,1.327,1.264,2.341,0.91
		c1.095-0.381,2.076-1.446,2.743-2.449c-0.182,0.922-1.078,1.609-1.841,2.091c-0.677,0.436-1.509,1.07-1.515,1.875
		c-0.002,0.29,0.108,0.712,0.643,1.079c0.304,0.208,0.597,0.313,0.873,0.313c0.698,0,1.092-0.616,1.227-1.357
		c0.193,0.032,0.413,0.061,0.649,0.08c-0.12,0.64-0.143,1.355-0.063,2.071c0.081,0.729,0.393,1.5,0.876,2.19
		c-1.278,0.677-2.316,1.795-1.939,2.975c0.185,0.578,0.734,1.267,2.296,1.267c1.338,0,3.196-0.532,4.848-1.389
		c0.384-0.2,0.712-0.433,0.978-0.694c5.377-0.628,9.174-2.647,10.802-4.2C23.717,16.444,23.983,15.838,23.782,15.337z M4.671,5.819
		c-0.001,0.081-0.025,0.11-0.07,0.197C4.505,5.959,4.319,5.585,4.272,4.954C4.545,5.329,4.672,5.633,4.671,5.819z M5.48,13.936
		c-0.581-0.033-1.043-0.125-1.224-0.184c-0.153-0.052-0.32-0.026-0.451,0.068c-0.13,0.094-0.207,0.245-0.207,0.406
		c0,0.55-0.187,0.97-0.281,0.97c-0.025,0-0.121-0.009-0.308-0.138C2.946,15.013,2.8,14.902,2.8,14.808
		c0.002-0.332,0.771-0.856,1.049-1.036c2.706-1.71,2.583-3.469,2.003-4.645C5.767,8.953,5.594,8.854,5.389,8.849
		C5.193,8.856,5.019,8.975,4.943,9.156C4.51,10.19,3.302,11.917,2.085,12.34c-0.612,0.213-0.978-0.093-1.097-0.366
		c-0.178-0.406-0.135-1.098,0.378-1.653C2.519,9.08,4.036,8.089,4.051,8.079C4.192,7.987,4.277,7.83,4.278,7.661
		c0-0.169-0.084-0.327-0.226-0.42C4.039,7.232,2.653,6.31,1.426,4.412C1.194,4.127,1.302,3.818,1.359,3.699
		C1.52,3.36,2.101,3.026,2.692,3.446c0.211,0.15,0.417,0.312,0.613,0.482C3.295,4.01,3.287,4.093,3.28,4.177
		C3.191,5.243,3.406,6.199,3.838,6.669C4.096,6.948,4.373,7.007,4.56,7.007c0.258,0,0.505-0.106,0.735-0.316
		C5.54,6.467,5.67,6.167,5.671,5.823c0.003-0.825-0.738-1.714-1.296-2.266c0.186-0.914,0.567-1.553,0.988-1.553
		c0.001,0,0.002,0,0.003,0c0.174,0.024,0.28,0.081,0.365,0.197c0.392,0.531,0.373,2.115-0.063,4.789c0,0.247,0.27,0.472,0.514,0.51
		c1.618,0.25,6.708,1.416,7.606,6.21c-2.078-1.019-3.595-0.98-4.624,0.03c-1.572,1.545-1.332,3.443-0.745,4.745
		c-0.469,0.021-0.968,0.119-1.47,0.288c-0.455-0.592-0.757-1.281-0.826-1.895c-0.076-0.683-0.046-1.356,0.084-1.936
		c0.336-0.012,0.662-0.045,0.97-0.098c0.82-0.141,1.069-0.686,1.033-1.111c-0.052-0.606-0.638-1.137-1.254-1.137
		c-0.223,0-0.439,0.068-0.626,0.198C5.984,13.035,5.694,13.426,5.48,13.936z M6.63,13.912c0.096-0.132,0.205-0.239,0.326-0.314
		c0.119,0,0.255,0.156,0.272,0.185c0,0-0.049,0.047-0.22,0.078C6.887,13.881,6.762,13.898,6.63,13.912z M6.363,22.42
		c-0.53,0-1.193-0.099-1.344-0.571c-0.176-0.553,0.548-1.36,1.651-1.885c0.925,0.91,2.107,1.438,3.389,1.512
		C8.747,22.06,7.356,22.42,6.363,22.42z M11.604,18.019c0.134,0.144,0.834,1.357,0.092,2.366c-1.009,0.104-2.458,0.36-3.942-0.799
		c0.542-0.123,1.054-0.135,1.445-0.034c0.205,0.051,0.419-0.026,0.539-0.2c0.119-0.173,0.117-0.403-0.005-0.575
		c-0.18-0.251-1.708-2.512,0.135-4.323c0.805-0.79,2.108-0.631,4.052,0.454c0.005,0.151,0.007,0.304,0.005,0.464
		c0,0.97-1.685,1.758-1.965,1.794c-0.199,0-0.374,0.124-0.453,0.306C11.427,17.655,11.468,17.873,11.604,18.019z M22.3,16.413
		c-1.434,1.368-4.713,3.128-9.405,3.822c0.291-0.854,0.088-1.707-0.177-2.283c0.883-0.381,2.115-1.25,2.201-2.44
		c0.008,0.005,1.053,0.686,1.278,0.832c2.647,1.693,5.085-0.537,6.633-0.607C22.794,15.835,22.676,16.055,22.3,16.413z"/>
</g>
<g id="Frames-24px">
	<rect fill="none" width="24" height="24"/>
</g>
</svg>
