<?xml version="1.0" encoding="utf-8"?>
<!-- Generator: Adobe Illustrator 19.2.1, SVG Export Plug-In . SVG Version: 6.00 Build 0)  -->
<svg version="1.1" xmlns="http://www.w3.org/2000/svg" xmlns:xlink="http://www.w3.org/1999/xlink" x="0px" y="0px" width="24px"
	 height="24px" viewBox="0 0 24 24" enable-background="new 0 0 24 24" xml:space="preserve">
<g id="Filled_Icons">
	<g>
		<path d="M13.5,2.5c-3.728,0-6.974,2.044-8.693,5.068L7.31,9.236C8.482,7.016,10.813,5.5,13.5,5.5c3.866,0,7,3.134,7,7
			c0,3.867-3.134,7-7,7c-2.687,0-5.018-1.516-6.19-3.736l-2.503,1.668C6.526,20.456,9.772,22.5,13.5,22.5c5.523,0,10-4.477,10-10
			C23.5,6.977,19.023,2.5,13.5,2.5z"/>
		<path d="M9.777,12.084l-9-6C0.624,5.982,0.426,5.973,0.264,6.059C0.102,6.147,0,6.315,0,6.5v12c0,0.185,0.102,0.354,0.264,0.441
			C0.338,18.98,0.419,19,0.5,19c0.097,0,0.194-0.028,0.277-0.084l9-6C9.917,12.823,10,12.667,10,12.5S9.917,12.177,9.777,12.084z"/>
	</g>
</g>
<g id="Frames-24px">
	<rect fill="none" width="24" height="24"/>
</g>
</svg>
