<?xml version="1.0" encoding="utf-8"?>
<!-- Generator: Adobe Illustrator 19.2.1, SVG Export Plug-In . SVG Version: 6.00 Build 0)  -->
<svg version="1.1" xmlns="http://www.w3.org/2000/svg" xmlns:xlink="http://www.w3.org/1999/xlink" x="0px" y="0px" width="24px"
	 height="24px" viewBox="0 0 24 24" enable-background="new 0 0 24 24" xml:space="preserve">
<g id="Filled_Icons">
	<g>
		<path d="M12,0C5.383,0,0,5.383,0,12s5.383,12,12,12s12-5.383,12-12S18.617,0,12,0z M13.553,15.883l-1.072,3.754
			C12.42,19.852,12.224,20,12,20s-0.42-0.148-0.481-0.363l-1.072-3.754c-2.62-0.697-4.491-3.104-4.491-5.839
			C5.956,6.711,8.667,4,12,4c3.332,0,6.043,2.711,6.043,6.044C18.043,12.778,16.172,15.186,13.553,15.883z"/>
		<path d="M12,6.044c-2.206,0-4,1.794-4,4c0,2.206,1.794,4,4,4s4-1.794,4-4C16,7.838,14.206,6.044,12,6.044z M12,11.544
			c-0.827,0-1.5-0.673-1.5-1.5c0-0.827,0.673-1.5,1.5-1.5s1.5,0.673,1.5,1.5C13.5,10.871,12.827,11.544,12,11.544z"/>
	</g>
</g>
<g id="Frames-24px">
	<rect fill="none" width="24" height="24"/>
</g>
</svg>
