<?xml version="1.0" encoding="utf-8"?>
<!-- Generator: Adobe Illustrator 19.2.1, SVG Export Plug-In . SVG Version: 6.00 Build 0)  -->
<svg version="1.1" xmlns="http://www.w3.org/2000/svg" xmlns:xlink="http://www.w3.org/1999/xlink" x="0px" y="0px" width="24px"
	 height="24px" viewBox="0 0 24 24" enable-background="new 0 0 24 24" xml:space="preserve">
<g id="Filled_Icons">
	<path d="M12,0C5.383,0,0,5.383,0,12s5.383,12,12,12s12-5.383,12-12S18.617,0,12,0z M20.356,9.633l-3.707,3.766l0.795,5.217
		c0.028,0.186-0.049,0.369-0.2,0.479c-0.087,0.063-0.19,0.096-0.294,0.096c-0.076,0-0.152-0.017-0.224-0.053L12,16.775l-4.715,2.362
		c-0.165,0.083-0.366,0.067-0.518-0.043c-0.151-0.11-0.228-0.294-0.2-0.479l0.794-5.217L3.645,9.635
		c-0.132-0.134-0.178-0.329-0.12-0.507C3.583,8.949,3.735,8.819,3.92,8.789l5.217-0.851l2.419-4.691
		c0.086-0.166,0.257-0.27,0.444-0.27c0.186,0,0.358,0.105,0.444,0.27l2.429,4.691l5.208,0.851c0.184,0.03,0.336,0.16,0.394,0.338
		C20.533,9.305,20.487,9.5,20.356,9.633z"/>
</g>
<g id="Frames-24px">
	<rect fill="none" width="24" height="24"/>
</g>
</svg>
