<?xml version="1.0" encoding="utf-8"?>
<!-- Generator: Adobe Illustrator 19.2.1, SVG Export Plug-In . SVG Version: 6.00 Build 0)  -->
<svg version="1.1" xmlns="http://www.w3.org/2000/svg" xmlns:xlink="http://www.w3.org/1999/xlink" x="0px" y="0px" width="24px"
	 height="24px" viewBox="0 0 24 24" enable-background="new 0 0 24 24" xml:space="preserve">
<g id="Filled_Icons">
	<g>
		<path d="M23.478,15.318c-0.331,0.015-7.874,0.391-11.478,4.109c-3.606-3.72-11.147-4.094-11.478-4.109
			c-0.128-0.004-0.269,0.045-0.368,0.139C0.056,15.551,0,15.682,0,15.818v3.051c0,0.274,0.222,0.498,0.498,0.5
			c7.082,0.033,11.09,4.42,11.129,4.464c0.095,0.107,0.23,0.165,0.373,0.165H12c0.143,0,0.278-0.06,0.373-0.166
			c0.04-0.045,4.024-4.432,11.129-4.464c0.275-0.001,0.498-0.225,0.498-0.5v-3.05c0-0.137-0.056-0.268-0.154-0.361
			C23.747,15.361,23.607,15.307,23.478,15.318z"/>
		<path d="M17.805,14.939c0.255,0.106,0.547-0.014,0.655-0.269C18.818,13.814,19,12.904,19,11.969c0-3.859-3.14-7-7-7s-7,3.141-7,7
			c0,0.945,0.185,1.861,0.55,2.726C5.631,14.885,5.816,15,6.011,15c0.065,0,0.131-0.014,0.195-0.04
			c0.254-0.108,0.373-0.401,0.266-0.655C6.159,13.566,6,12.779,6,11.969c0-3.309,2.691-6,6-6s6,2.692,6,6
			c0,0.803-0.156,1.582-0.463,2.316C17.43,14.539,17.55,14.832,17.805,14.939z"/>
		<path d="M22.5,8.182V3.93C23.36,3.705,24,2.93,24,2c0-1.104-0.897-2-2-2s-2,0.896-2,2c0,0.93,0.64,1.705,1.5,1.93v4.039
			c-0.111,0-0.208,0.043-0.291,0.104C19.688,4.488,16.133,1.969,12,1.969s-7.688,2.52-9.21,6.104C2.708,8.012,2.611,7.969,2.5,7.969
			c-1.378,0-2.5,1.121-2.5,2.5v1c0,1.379,1.122,2.5,2.5,2.5c0.276,0,0.5-0.224,0.5-0.5v-1.5c0-4.963,4.038-9,9-9s9,4.037,9,9v1.5
			c0,0.276,0.224,0.5,0.5,0.5c1.378,0,2.5-1.121,2.5-2.5v-1C24,9.446,23.381,8.567,22.5,8.182z"/>
	</g>
</g>
<g id="Frames-24px">
	<rect fill="none" width="24" height="24"/>
</g>
</svg>
