<?xml version="1.0" encoding="utf-8"?>
<!-- Generator: Adobe Illustrator 19.2.1, SVG Export Plug-In . SVG Version: 6.00 Build 0)  -->
<svg version="1.1" xmlns="http://www.w3.org/2000/svg" xmlns:xlink="http://www.w3.org/1999/xlink" x="0px" y="0px" width="24px"
	 height="24px" viewBox="0 0 24 24" enable-background="new 0 0 24 24" xml:space="preserve">
<g id="Filled_Icons">
	<g>
		<path d="M9.081,11.022c-0.082,0.08-0.181,0.204-0.27,0.356c0.082,0.017,0.159,0.031,0.23,0.045
			C9.06,11.294,9.075,11.148,9.081,11.022z"/>
		<path d="M19.634,10.544c-0.009,0-0.017,0-0.024,0.002c-0.189,0.03-0.562,0.456-0.649,1.8c0.905-0.333,1.175-0.854,1.099-1.283
			C20.006,10.763,19.79,10.544,19.634,10.544z"/>
		<path d="M12,0C5.383,0,0,5.383,0,12s5.383,12,12,12s12-5.383,12-12S18.617,0,12,0z M6.62,13.123
			c-0.133-0.638-0.286-1.329-0.428-1.926c-0.019,0.129-0.038,0.249-0.054,0.353c-0.189,1.254-0.24,1.591-0.733,1.591
			c-0.325,0-0.43-0.106-1.148-1.361c0.039,0.331,0.081,0.673,0.123,1.003l-0.992,0.127C2.97,9.627,3.035,9.553,3.21,9.354
			l0.381-0.172c0.342,0,0.358,0.029,1.217,1.543c0.105,0.186,0.229,0.404,0.352,0.617C5.41,9.678,5.536,8.889,6.143,8.887
			c0.48-0.053,0.624,0.032,1.456,4.032L6.62,13.123z M11.567,13.716c-0.152,0-0.314-0.023-0.485-0.077
			c-0.335-0.104-0.586-0.308-0.759-0.572c-0.187,0.26-0.646,0.649-1.272,0.649c-0.152,0-0.314-0.023-0.485-0.077
			c-0.532-0.167-0.88-0.558-0.978-1.102c-0.158-0.865,0.356-1.881,0.923-2.326c0.5-0.393,0.922-0.296,1.128-0.203
			c0.12,0.053,0.281,0.17,0.371,0.423c0.188,0.523-0.041,1.551-0.128,1.725c-0.174,0.345-0.501,0.37-1.312,0.195
			c0.045,0.255,0.215,0.308,0.297,0.334c0.38,0.118,0.608-0.152,0.651-0.208l0.79,0.566c-0.094-0.149-0.169-0.314-0.204-0.505
			c-0.158-0.865,0.356-1.881,0.924-2.326c0.5-0.393,0.922-0.296,1.128-0.203c0.12,0.053,0.281,0.17,0.371,0.423
			c0.188,0.523-0.041,1.551-0.128,1.725c-0.171,0.345-0.5,0.371-1.312,0.195c0.045,0.255,0.215,0.308,0.297,0.334
			c0.382,0.118,0.608-0.152,0.651-0.208l0.813,0.582C12.664,13.318,12.199,13.716,11.567,13.716z M16.289,13.509
			c-0.159,0.037-0.336-0.009-0.459-0.13c-0.446-0.436-0.566-1.1-0.58-1.641c-0.21,0.075-0.519,0.121-0.852,0.147
			c0.051,0.743,0.132,1.595,0.133,1.608l-0.996,0.094c-0.005-0.052-0.086-0.919-0.138-1.682c-0.275-0.009-0.516-0.03-0.665-0.059
			l0.184-0.983c0.108,0.02,0.263,0.034,0.438,0.042c-0.002-0.188-0.009-0.421-0.018-0.688c-0.033-1.017-0.05-1.763,0.033-2.108
			l0.973,0.233c-0.059,0.241-0.025,1.243-0.006,1.842c0.008,0.272,0.015,0.509,0.018,0.701c0.242-0.019,0.452-0.049,0.564-0.09
			l0.331,0.894c-0.006-0.416,0.045-0.753,0.059-0.829l0.984,0.179c-0.045,0.25-0.102,0.932,0.076,1.371
			c0.232-0.161,0.504-0.542,0.599-1.508L17.963,11C17.82,12.447,17.258,13.29,16.289,13.509z M18.952,13.398
			c0.02,0.504,0.07,1.091,0.162,1.771l-0.99,0.135c-0.666-4.893,0.708-5.648,1.33-5.746c0.722-0.108,1.438,0.482,1.59,1.329
			C21.198,11.756,20.725,12.89,18.952,13.398z"/>
		<path d="M11.598,11.022c-0.082,0.08-0.181,0.204-0.27,0.356c0.081,0.016,0.159,0.031,0.229,0.043
			C11.576,11.293,11.592,11.147,11.598,11.022z"/>
	</g>
</g>
<g id="Frames-24px">
	<rect fill="none" width="24" height="24"/>
</g>
</svg>
