<?xml version="1.0" encoding="utf-8"?>
<!-- Generator: Adobe Illustrator 19.2.1, SVG Export Plug-In . SVG Version: 6.00 Build 0)  -->
<svg version="1.1" xmlns="http://www.w3.org/2000/svg" xmlns:xlink="http://www.w3.org/1999/xlink" x="0px" y="0px" width="24px"
	 height="24px" viewBox="0 0 24 24" enable-background="new 0 0 24 24" xml:space="preserve">
<g id="Filled_Icons">
	<path d="M12,0C5.383,0,0,5.383,0,12s5.383,12,12,12s12-5.383,12-12S18.617,0,12,0z M4.857,13.951c-1.141-1.141-1.141-2.998,0-4.141
		L8.78,5.89c1.085-1.087,2.966-1.1,4.077-0.049c0.979-0.265,2.067-0.026,2.835,0.741c0.195,0.193,0.195,0.511,0,0.706
		c-0.195,0.195-0.512,0.195-0.707,0c-0.749-0.749-1.972-0.75-2.725,0.001L7.15,12.4c-0.098,0.098-0.226,0.146-0.354,0.146
		c-0.128,0-0.256-0.049-0.353-0.146c-0.195-0.195-0.195-0.512,0-0.707l5.11-5.111c0.096-0.096,0.203-0.172,0.308-0.252
		c-0.738-0.443-1.751-0.357-2.374,0.266l-3.923,3.922c-0.751,0.752-0.751,1.976,0,2.726c0.752,0.75,1.973,0.75,2.725,0l5.363-5.363
		c0.195-0.195,0.512-0.195,0.707,0c0.195,0.195,0.195,0.512,0,0.707l-5.363,5.363c-0.57,0.57-1.32,0.855-2.069,0.855
		C6.178,14.807,5.428,14.521,4.857,13.951z M19.143,14.188l-3.923,3.924c-0.553,0.553-1.287,0.857-2.069,0.857
		c-0.756,0-1.463-0.29-2.008-0.808c-0.248,0.066-0.502,0.114-0.766,0.114c-0.782,0-1.518-0.305-2.07-0.857
		c-0.195-0.195-0.195-0.512,0-0.707c0.195-0.195,0.512-0.195,0.707,0c0.729,0.727,1.997,0.727,2.726,0l5.067-5.067
		c0.195-0.194,0.512-0.194,0.707,0c0.195,0.196,0.195,0.513,0,0.708l-5.067,5.066c-0.095,0.095-0.202,0.172-0.308,0.252
		c0.738,0.442,1.752,0.355,2.374-0.266l3.923-3.924c0.751-0.751,0.751-1.973,0-2.725c-0.752-0.752-1.974-0.75-2.725,0l-5.387,5.388
		c-0.195,0.194-0.512,0.194-0.707,0c-0.195-0.195-0.195-0.513,0-0.708l5.387-5.387c1.14-1.141,2.998-1.142,4.14,0
		C20.283,11.189,20.283,13.047,19.143,14.188z"/>
</g>
<g id="Frames-24px">
	<rect fill="none" width="24" height="24"/>
</g>
</svg>
