<?xml version="1.0" encoding="utf-8"?>
<!-- Generator: Adobe Illustrator 19.2.1, SVG Export Plug-In . SVG Version: 6.00 Build 0)  -->
<svg version="1.1" xmlns="http://www.w3.org/2000/svg" xmlns:xlink="http://www.w3.org/1999/xlink" x="0px" y="0px" width="24px"
	 height="24px" viewBox="0 0 24 24" enable-background="new 0 0 24 24" xml:space="preserve">
<g id="Filled_Icons">
	<path id="path11-1_2_" d="M12.414,4.163c-2.182-1.229-4.901-1.415-7.25-0.565c-1.542,0.555-2.94,1.588-3.803,2.994
		C0.58,7.86,0.285,9.441,0.664,10.893c0.378,1.61,1.494,2.959,2.855,3.862C3.262,15.498,3.01,16.24,2.773,16.99
		c0.859-0.447,1.709-0.912,2.564-1.367c1.033,0.33,2.117,0.49,3.201,0.455c-0.282-0.828-0.35-1.721-0.221-2.584
		c0.206-1.199,0.854-2.297,1.75-3.109c1.509-1.413,3.649-2.01,5.685-1.867C15.371,6.652,14.06,5.073,12.414,4.163L12.414,4.163z
		 M6.01,7.411C5.939,7.75,5.484,7.914,5.219,7.687C4.91,7.469,4.996,6.932,5.359,6.822C5.713,6.686,6.117,7.045,6.01,7.411z
		 M11.293,7.314c0.003,0.391-0.519,0.635-0.812,0.369c-0.304-0.217-0.218-0.747,0.14-0.857C10.939,6.701,11.317,6.971,11.293,7.314z
		"/>
	<g>
		<path id="path13-81_2_" d="M22.098,13.443c-0.533-1.207-1.539-2.162-2.705-2.754c-2.06-1.046-4.622-1.037-6.674,0.025
			c-1.428,0.733-2.619,2.045-2.958,3.642c-0.279,1.175-0.028,2.441,0.595,3.467c0.929,1.539,2.604,2.521,4.35,2.837
			c1.264,0.257,2.569,0.106,3.795-0.25c0.734,0.286,1.395,0.748,2.107,1.09c-0.184-0.617-0.379-1.23-0.59-1.838
			c0.799-0.568,1.525-1.277,1.963-2.168C22.631,16.255,22.671,14.719,22.098,13.443L22.098,13.443z M14.594,13.773
			c-0.105,0.331-0.588,0.431-0.819,0.178c-0.257-0.232-0.157-0.721,0.179-0.823C14.327,12.971,14.758,13.4,14.594,13.773
			L14.594,13.773z M18.783,13.814c-0.125,0.291-0.559,0.357-0.773,0.133c-0.104-0.094-0.13-0.235-0.172-0.361
			c0.057-0.226,0.207-0.461,0.463-0.471C18.656,13.066,18.969,13.498,18.783,13.814L18.783,13.814z"/>
	</g>
</g>
<g id="Frames-24px">
	<rect fill="none" width="24" height="24"/>
</g>
</svg>
