<?xml version="1.0" encoding="utf-8"?>
<!-- Generator: Adobe Illustrator 19.2.1, SVG Export Plug-In . SVG Version: 6.00 Build 0)  -->
<svg version="1.1" xmlns="http://www.w3.org/2000/svg" xmlns:xlink="http://www.w3.org/1999/xlink" x="0px" y="0px" width="24px"
	 height="24px" viewBox="0 0 24 24" enable-background="new 0 0 24 24" xml:space="preserve">
<g id="Filled_Icons">
	<path d="M23.736,7.795c-0.163-0.086-0.36-0.076-0.513,0.025l-1.989,1.328c-1.982-1.082-4.066-1.795-6.205-2.123V1.5
		c0-0.184-0.1-0.352-0.261-0.439c-0.16-0.088-0.357-0.08-0.51,0.02l-3.488,2.244c-0.143,0.092-0.229,0.251-0.229,0.421v3.169
		C4.794,7.519,0.206,10.959,0.006,14.878c-0.092,1.811,0.789,6.222,10.946,8.07c0.03,0.005,0.059,0.008,0.089,0.008
		c0.095,0,0.189-0.027,0.27-0.079l3.488-2.246c0.143-0.092,0.229-0.25,0.229-0.42v-9.795c0.958,0.204,1.936,0.506,2.919,0.9
		l-1.196,0.762c-0.188,0.119-0.273,0.349-0.211,0.561c0.062,0.213,0.258,0.36,0.48,0.36H23.5c0.276,0,0.5-0.224,0.5-0.5V8.236
		C24,8.053,23.898,7.883,23.736,7.795z M10.541,10.193v9.439c-4.475-0.727-6.046-2.811-6.007-4.572
		C4.579,13.031,6.693,10.705,10.541,10.193z"/>
</g>
<g id="Frames-24px">
	<rect fill="none" width="24" height="24"/>
</g>
</svg>
