<?xml version="1.0" encoding="utf-8"?>
<!-- Generator: Adobe Illustrator 19.2.1, SVG Export Plug-In . SVG Version: 6.00 Build 0)  -->
<svg version="1.1" xmlns="http://www.w3.org/2000/svg" xmlns:xlink="http://www.w3.org/1999/xlink" x="0px" y="0px" width="24px"
	 height="24px" viewBox="0 0 24 24" enable-background="new 0 0 24 24" xml:space="preserve">
<g id="Filled_Icons">
	<path d="M23.766,18.951c-0.007-0.16-0.032-0.285-0.113-0.431c-0.005-0.009-0.014-0.014-0.019-0.023
		c-0.655-1.161-3.586-1.932-5.618-1.122c-0.513,0.205-0.763,0.786-0.559,1.299c0.205,0.513,0.785,0.763,1.299,0.559
		c0.523-0.209,1.107-0.232,1.637-0.174c-10.591,4.712-18.281-0.704-18.62-0.95c-0.447-0.327-1.071-0.229-1.398,0.216
		c-0.326,0.446-0.229,1.072,0.216,1.398c0.266,0.194,4.572,3.264,11.163,3.264c2.735,0,5.868-0.545,9.263-2.026
		c-0.303,0.389-0.667,0.747-1.064,0.957c-0.488,0.257-0.675,0.863-0.417,1.351c0.179,0.34,0.526,0.534,0.885,0.534
		c0.157,0,0.317-0.037,0.466-0.116C22.449,22.863,24.036,20.478,23.766,18.951z"/>
	<g>
		<path fill-rule="evenodd" clip-rule="evenodd" d="M12.387,7.931c-4.545,0.341-8.633,1.096-8.633,5.787
			c0,2.997,1.93,4.52,4.368,4.52c2.091,0,3.284-0.511,4.823-2.133c0.559,0.762,0.712,1.118,1.676,1.93
			c0.254,0.1,0.508,0.1,0.711-0.051c0.609-0.508,1.677-1.424,2.234-1.929c0.254-0.204,0.203-0.509,0.051-0.761
			c-0.558-0.712-1.117-1.321-1.117-2.692v-4.57c0-1.93,0.152-3.708-1.269-5.025c-1.167-1.067-2.996-1.475-4.418-1.475
			c-3.253,0-5.953,1.33-6.551,4.469C4.16,6.407,4.465,6.559,4.669,6.61l2.843,0.354c0.306-0.05,0.457-0.305,0.508-0.558
			c0.262-1.153,1.279-1.778,2.387-1.778c0.61,0,1.27,0.256,1.625,0.762C12.455,6.026,12.387,6.852,12.387,7.931z M11.828,13.973
			c-0.97,1.935-3.809,1.941-3.809-0.762c0-1.625,0.965-2.387,2.184-2.742c0.66-0.152,1.422-0.204,2.184-0.204v0.609
			C12.387,12.043,12.438,12.957,11.828,13.973z"/>
	</g>
</g>
<g id="Frames-24px">
	<rect fill="none" width="24" height="24"/>
</g>
</svg>
