<?xml version="1.0" encoding="utf-8"?>
<!-- Generator: Adobe Illustrator 19.2.1, SVG Export Plug-In . SVG Version: 6.00 Build 0)  -->
<svg version="1.1" xmlns="http://www.w3.org/2000/svg" xmlns:xlink="http://www.w3.org/1999/xlink" x="0px" y="0px" width="24px"
	 height="24px" viewBox="0 0 24 24" enable-background="new 0 0 24 24" xml:space="preserve">
<g id="Filled_Icons">
	<path d="M13.107,4.327L8.101,17.09c-0.967,2.445-1.726,4.969-4.912,5.025c-0.568,0-1.365,0.02-1.782-0.226
		c-0.739-0.455-0.607-1.479,0-1.842c0.284-0.169,0.55-0.189,0.853-0.15c2.238,0.15,2.808-1.253,3.472-3.035L0.647,4.327
		c-0.284-0.702-0.19-1.404,0.569-1.708c0.834-0.34,1.46,0.076,1.764,0.854c0.093,0.232,4.04,10.35,4.153,10.127
		c0,0,2.958-7.68,3.773-9.993c0.189-0.551,0.531-0.93,1.194-0.93c0.229,0,0.38,0.038,0.512,0.114
		C13.126,3.037,13.392,3.625,13.107,4.327L13.107,4.327z M13.998,9.067c0.532-0.606,4.666-3.925,5.5-4.116
		c1.233-0.283,1.992,1.045,1.101,1.992c-0.551,0.57-5.311,2.504-6.202,2.674c-0.208,0.059-0.512,0.096-0.588-0.019
		C13.715,9.447,13.865,9.219,13.998,9.067L13.998,9.067z M22.646,11.419c0.568,0.191,0.854,0.646,0.854,1.081v0.019l0,0
		c0,0.455-0.285,0.91-0.854,1.1c-0.606,0.19-4.42-0.171-6.201-0.625c-0.512-0.152-0.853-0.267-0.873-0.475
		c0.019-0.208,0.361-0.341,0.873-0.474C18.227,11.571,22.04,11.211,22.646,11.419L22.646,11.419z M13.809,15.535
		c0.076-0.133,0.38-0.076,0.588-0.039c0.892,0.172,5.651,2.106,6.202,2.693c0.892,0.93,0.133,2.275-1.101,1.992
		c-0.834-0.189-4.969-3.528-5.5-4.115C13.865,15.894,13.715,15.686,13.809,15.535L13.809,15.535z"/>
</g>
<g id="Frames-24px">
	<rect fill="none" width="24" height="24"/>
</g>
</svg>
