<?xml version="1.0" encoding="utf-8"?>
<!-- Generator: Adobe Illustrator 19.2.1, SVG Export Plug-In . SVG Version: 6.00 Build 0)  -->
<svg version="1.1" xmlns="http://www.w3.org/2000/svg" xmlns:xlink="http://www.w3.org/1999/xlink" x="0px" y="0px" width="24px"
	 height="24px" viewBox="0 0 24 24" enable-background="new 0 0 24 24" xml:space="preserve">
<g id="Filled_Icons">
	<g>
		<path d="M15.537,10.726c-0.365,0.033-0.67,0.194-0.893,0.405c-0.385,0.357-0.682,0.742-0.967,0.972
			c-0.067,0.057-0.088,0.103-0.04,0.183c0.048,0.086,1.767,1.394,1.818,1.407c0.386,0.081,0.831-0.021,1.169-0.353
			c0.324-0.317,0.621-1.006,0.379-1.723C16.815,11.056,16.185,10.656,15.537,10.726z"/>
		<path d="M9.271,11.186c-0.223-0.211-0.526-0.373-0.892-0.406c-0.649-0.061-1.278,0.338-1.467,0.9
			c-0.243,0.707,0.054,1.397,0.379,1.723c0.378,0.371,0.905,0.445,1.304,0.311l1.684-1.373c0.047-0.081,0.027-0.129-0.041-0.181
			C9.955,11.928,9.657,11.543,9.271,11.186z"/>
		<path d="M12,0C5.383,0,0,5.383,0,12s5.383,12,12,12s12-5.383,12-12S18.617,0,12,0z M19.486,12.102
			c-0.188,2.161-1.692,3.312-3.676,3.594c-1.536,0.134-2.97-0.654-4.039-2.149c-0.955,1.039-2.398,2.088-4.164,2.088
			c-2.865,0-3.188-1.993-3.094-3.146c0.177-2.15,1.682-3.303,3.676-3.583c1.525-0.136,2.97,0.644,4.039,2.14
			c0.955-1.039,2.398-2.088,4.152-2.088C19.258,8.957,19.58,10.963,19.486,12.102z"/>
	</g>
</g>
<g id="Frames-24px">
	<rect fill="none" width="24" height="24"/>
</g>
</svg>
