<?xml version="1.0" encoding="utf-8"?>
<!-- Generator: Adobe Illustrator 19.2.1, SVG Export Plug-In . SVG Version: 6.00 Build 0)  -->
<svg version="1.1" xmlns="http://www.w3.org/2000/svg" xmlns:xlink="http://www.w3.org/1999/xlink" x="0px" y="0px" width="24px"
	 height="24px" viewBox="0 0 24 24" enable-background="new 0 0 24 24" xml:space="preserve">
<g id="Filled_Icons">
	<g>
		<path d="M3.321,13.404c0-5.563,4.519-10.082,10.083-10.082c5.348,0,9.721,4.157,10.068,9.4C23.486,12.494,23.5,12.24,23.5,12
			c0-6.35-5.148-11.5-11.5-11.5S0.5,5.65,0.5,12c0,6.352,5.148,11.5,11.5,11.5c0.24,0,0.494-0.014,0.723-0.027
			C7.481,23.125,3.321,18.752,3.321,13.404L3.321,13.404z"/>
		<path d="M14.006,6.358c-4.147,0-7.5,3.366-7.5,7.501c0,4.145,3.353,7.499,7.5,7.499c4.133,0,7.5-3.354,7.5-7.499
			c0-0.446-0.05-0.891-0.124-1.313c-0.618,0.794-1.597,1.313-2.687,1.313c-1.88,0-3.402-1.523-3.402-3.404
			c0-1.473,0.94-2.736,2.252-3.207C16.493,6.68,15.293,6.358,14.006,6.358L14.006,6.358z"/>
	</g>
</g>
<g id="Frames-24px">
	<rect fill="none" width="24" height="24"/>
</g>
</svg>
