<?xml version="1.0" encoding="utf-8"?>
<!-- Generator: Adobe Illustrator 19.2.1, SVG Export Plug-In . SVG Version: 6.00 Build 0)  -->
<svg version="1.1" xmlns="http://www.w3.org/2000/svg" xmlns:xlink="http://www.w3.org/1999/xlink" x="0px" y="0px" width="24px"
	 height="24px" viewBox="0 0 24 24" enable-background="new 0 0 24 24" xml:space="preserve">
<g id="Filled_Icons">
	<path d="M19.5,8c-1.421,0-2.675,0.638-3.5,1.612C15.175,8.638,13.921,8,12.5,8c-1.738,0-3.232,0.946-3.981,2.311
		c-0.67-1.645-2.281-2.809-4.164-2.809c-0.654,0-1.286,0.146-1.859,0.407l0.217-1.407h5.642v-2h-6.5
		c-0.494,0-0.913,0.36-0.988,0.848l-0.829,5.381c-0.141,0.504,0.138,1.037,0.633,1.213c0.281,0.101,0.593,0.07,0.848-0.083
		c0.247-0.147,0.417-0.392,0.471-0.671c0.343-0.999,1.301-1.688,2.365-1.688c1.378,0,2.5,1.121,2.5,2.5c0,1.378-1.122,2.5-2.5,2.5
		c-0.961,0-1.821-0.535-2.245-1.396l-1.795,0.883c0.763,1.551,2.311,2.514,4.04,2.514c1.777,0,3.302-1.043,4.033-2.542
		c0.699,1.493,2.276,2.54,4.113,2.54c1.421,0,2.675-0.638,3.5-1.612c0.825,0.974,2.079,1.612,3.5,1.612c2.481,0,4.5-1.907,4.5-4.25
		S21.981,8,19.5,8z M12.5,14.5c-1.378,0-2.5-1.009-2.5-2.25S11.122,10,12.5,10s2.5,1.009,2.5,2.25S13.878,14.5,12.5,14.5z
		 M19.5,14.5c-1.378,0-2.5-1.009-2.5-2.25S18.122,10,19.5,10s2.5,1.009,2.5,2.25S20.878,14.5,19.5,14.5z"/>
</g>
<g id="Frames-24px">
	<rect fill="none" width="24" height="24"/>
</g>
</svg>
