<?xml version="1.0" encoding="utf-8"?>
<!-- Generator: Adobe Illustrator 19.2.1, SVG Export Plug-In . SVG Version: 6.00 Build 0)  -->
<svg version="1.1" xmlns="http://www.w3.org/2000/svg" xmlns:xlink="http://www.w3.org/1999/xlink" x="0px" y="0px" width="24px"
	 height="24px" viewBox="0 0 24 24" enable-background="new 0 0 24 24" xml:space="preserve">
<g id="Filled_Icons">
	<path d="M12,0C5.383,0,0,5.383,0,12s5.383,12,12,12s12-5.383,12-12S18.617,0,12,0z M9.791,17.197
		c-0.687-0.458-1.414-0.863-2.461-0.863c-0.637,0-1.394,0.152-2.33,0.529l1.239-4.296C7.223,12.164,8.139,12,8.694,12
		c0.986,0,1.761,0.436,2.38,0.821C10.91,13.382,10.045,16.334,9.791,17.197z M8.926,9.734c-0.819,0-1.636,0.248-2.402,0.559
		l1.221-4.288C8.669,5.63,9.422,5.477,10.05,5.465c0.8,0,1.425,0.15,2.518,0.804v0.003c-0.255,0.871-1.009,3.454-1.262,4.314
		C10.643,10.146,9.932,9.746,8.926,9.734z M16.422,17.952c-1.027,0.424-1.849,0.592-2.535,0.592c-1.084,0-2.531-0.892-2.529-0.891
		l1.235-4.29c0.376,0.3,1.247,0.872,2.68,0.872c0.657,0,1.436-0.122,2.341-0.445L16.422,17.952z M17.935,11.419
		c-0.003,0.003-0.006,0.003-0.006,0.003c-0.002,0.002-0.002,0.004-0.002,0.006C17.06,11.838,16.267,12,15.553,12
		c-1.08,0-1.977-0.373-2.665-0.833c-0.004-0.002-0.009-0.005-0.013-0.009l1.252-4.333c0.396,0.309,1.291,0.886,2.649,0.886
		c0.683,0,1.481-0.146,2.394-0.545L17.935,11.419z"/>
</g>
<g id="Frames-24px">
	<rect fill="none" width="24" height="24"/>
</g>
</svg>
