<?xml version="1.0" encoding="utf-8"?>
<!-- Generator: Adobe Illustrator 19.2.1, SVG Export Plug-In . SVG Version: 6.00 Build 0)  -->
<svg version="1.1" xmlns="http://www.w3.org/2000/svg" xmlns:xlink="http://www.w3.org/1999/xlink" x="0px" y="0px" width="24px"
	 height="24px" viewBox="0 0 24 24" enable-background="new 0 0 24 24" xml:space="preserve">
<g id="Filled_Icons">
	<path d="M12,0C5.383,0,0,5.383,0,12s5.383,12,12,12s12-5.383,12-12S18.617,0,12,0z M6.491,8h6.469c0.276,0,0.5,0.224,0.5,0.5
		S13.236,9,12.96,9H6.491c-0.276,0-0.5-0.224-0.5-0.5S6.215,8,6.491,8z M18.913,15.934C18.835,15.979,18.75,16,18.665,16
		c-0.173,0-0.342-0.09-0.435-0.252L17.232,14h-2.835c-0.276,0-0.5-0.224-0.5-0.5s0.224-0.5,0.5-0.5h2.264l-1.986-3.479l-3.434,6.221
		C11.153,15.9,10.985,16,10.804,16H4.694c-0.169,0-0.326-0.086-0.419-0.227c-0.092-0.141-0.107-0.32-0.039-0.475L5.684,12H4.335
		c-0.276,0-0.5-0.224-0.5-0.5s0.224-0.5,0.5-0.5h6.469c0.276,0,0.5,0.224,0.5,0.5s-0.224,0.5-0.5,0.5H6.776L5.46,15h5.049
		l3.721-6.742C14.316,8.1,14.482,8.002,14.663,8c0.002,0,0.003,0,0.004,0c0.18,0,0.345,0.096,0.435,0.252l3.998,7
		C19.236,15.492,19.152,15.799,18.913,15.934z"/>
</g>
<g id="Frames-24px">
	<rect fill="none" width="24" height="24"/>
</g>
</svg>
