<?xml version="1.0" encoding="utf-8"?>
<!-- Generator: Adobe Illustrator 19.2.1, SVG Export Plug-In . SVG Version: 6.00 Build 0)  -->
<svg version="1.1" xmlns="http://www.w3.org/2000/svg" xmlns:xlink="http://www.w3.org/1999/xlink" x="0px" y="0px" width="24px"
	 height="24px" viewBox="0 0 24 24" enable-background="new 0 0 24 24" xml:space="preserve">
<g id="Filled_Icons">
	<path d="M12,0C5.383,0,0,5.383,0,12s5.383,12,12,12s12-5.383,12-12S18.617,0,12,0z M11.449,7.889
		c1.178,0.065,2.273,0.605,3.089,1.422c0.816,0.816,1.354,1.91,1.42,3.088c0.016,0.275-0.195,0.511-0.472,0.525
		c-0.009,0.002-0.019,0.002-0.027,0.002c-0.264,0-0.484-0.207-0.499-0.473c-0.016-0.274-0.072-0.54-0.149-0.8
		c-0.312-1.059-1.093-1.96-2.09-2.427c-0.413-0.194-0.863-0.313-1.329-0.34c-0.275-0.016-0.486-0.252-0.471-0.527
		C10.938,8.084,11.162,7.883,11.449,7.889z M17.229,17.408c-0.365,1.029-1.639,2.178-2.882,2.178
		c-2.512-0.434-7.795-3.705-10.201-9.615C3.812,9.152,3.802,8.36,4.114,7.678c0.322-0.702,0.959-1.229,1.841-1.525
		c0.386-0.129,0.763-0.125,1.118,0.004c0.802,0.295,2.546,2.673,2.593,3.533c0.045,0.826-0.576,1.248-0.875,1.45
		c-0.316,0.215-0.442,0.438-0.195,0.991c0.545,1.226,1.463,2.117,2.806,2.728c0.264,0.119,0.43,0.266,0.69-0.133
		c0.708-1.069,1.717-1.244,2.867-0.438l0.201,0.141c0.351,0.244,0.701,0.49,1.033,0.756l0.187,0.146
		C16.876,15.711,17.626,16.284,17.229,17.408z M17.472,12.604c-0.234,0-0.443-0.166-0.49-0.404c-0.499-2.589-2.654-4.775-5.24-5.316
		c-0.271-0.056-0.443-0.321-0.387-0.592c0.057-0.27,0.317-0.444,0.592-0.387c2.969,0.621,5.443,3.132,6.018,6.105
		C18.022,12.318,17.787,12.604,17.472,12.604z M19.388,12.11c-0.22,0-0.422-0.146-0.482-0.367c-0.887-3.241-3.553-5.911-6.793-6.802
		c-0.266-0.072-0.423-0.348-0.35-0.613c0.073-0.268,0.347-0.422,0.615-0.351c3.573,0.983,6.514,3.927,7.492,7.501
		C19.957,11.799,19.716,12.11,19.388,12.11z"/>
</g>
<g id="Frames-24px">
	<rect fill="none" width="24" height="24"/>
</g>
</svg>
