<?xml version="1.0" encoding="utf-8"?>
<!-- Generator: Adobe Illustrator 19.2.1, SVG Export Plug-In . SVG Version: 6.00 Build 0)  -->
<svg version="1.1" xmlns="http://www.w3.org/2000/svg" xmlns:xlink="http://www.w3.org/1999/xlink" x="0px" y="0px" width="24px"
	 height="24px" viewBox="0 0 24 24" enable-background="new 0 0 24 24" xml:space="preserve">
<g id="Filled_Icons">
	<g>
		<path d="M17.148,19.68C20.06,17.852,22,14.587,22,10.863C22,5.139,17.423,0.5,11.777,0.5C6.131,0.5,1.555,5.139,1.555,10.863
			c0,5.723,4.576,10.361,10.223,10.361c0.83,0,1.637-0.104,2.409-0.293c0.971,1.766,2.448,3.016,5.587,2.418v-1.758
			C19.773,21.592,17.761,21.087,17.148,19.68z M17.076,12.232c0,1.731-0.55,3.3-1.444,4.46c-1.124-1.194-2.885-2.179-5.119-2.054
			v2.036c0,0,1.516,0.06,2.554,1.843c-0.389,0.115-0.794,0.177-1.211,0.177c-2.885,0-5.221-2.893-5.221-6.463v-2.67
			c0-3.568,2.336-6.462,5.221-6.462c2.884,0,5.222,2.894,5.222,6.462L17.076,12.232L17.076,12.232z"/>
	</g>
</g>
<g id="Frames-24px">
	<rect fill="none" width="24" height="24"/>
</g>
</svg>
