<?xml version="1.0" encoding="utf-8"?>
<!-- Generator: Adobe Illustrator 19.2.1, SVG Export Plug-In . SVG Version: 6.00 Build 0)  -->
<svg version="1.1" xmlns="http://www.w3.org/2000/svg" xmlns:xlink="http://www.w3.org/1999/xlink" x="0px" y="0px" width="24px"
	 height="24px" viewBox="0 0 24 24" enable-background="new 0 0 24 24" xml:space="preserve">
<g id="Filled_Icons">
	<path d="M12,0C5.383,0,0,5.383,0,12s5.383,12,12,12s12-5.383,12-12S18.617,0,12,0z M19.261,15.028c-0.67,0-1.235-0.431-1.448-1.03
		l-3.707-0.012c-0.029,0.086-0.058,0.174-0.1,0.255l0.922,0.847c0.393-0.178,0.877-0.164,1.229,0.103
		c0.525,0.397,0.63,1.148,0.233,1.674c-0.226,0.297-0.582,0.475-0.955,0.475c-0.262,0-0.512-0.084-0.721-0.242
		c-0.394-0.299-0.551-0.797-0.436-1.25l-0.954-0.877c-0.38,0.25-0.851,0.404-1.367,0.404c-0.539,0-1.027-0.168-1.413-0.436
		l-1.661,1.128c0.019,0.144,0.017,0.289-0.017,0.435c-0.075,0.311-0.267,0.574-0.539,0.741c-0.187,0.115-0.403,0.176-0.624,0.176
		c-0.42,0-0.801-0.213-1.021-0.57c-0.343-0.563-0.165-1.301,0.396-1.645c0.393-0.24,0.884-0.205,1.258,0.025l1.545-1.049
		c-0.027-0.059-0.046-0.12-0.066-0.182l-3.011-0.011c-0.074,0.219-0.192,0.421-0.36,0.59c-0.291,0.292-0.678,0.454-1.09,0.454H5.345
		c-0.847,0-1.537-0.689-1.54-1.538c-0.003-0.851,0.688-1.545,1.538-1.548c0.677,0,1.248,0.438,1.457,1.042l3.002,0.011
		c0.032-0.1,0.069-0.197,0.119-0.291l-2.816-1.918c-0.184,0.109-0.393,0.176-0.613,0.176c-0.24,0-0.472-0.071-0.67-0.207
		c-0.265-0.176-0.443-0.449-0.504-0.763C5.257,9.682,5.322,9.363,5.501,9.098c0.355-0.525,1.132-0.676,1.661-0.316
		c0.262,0.176,0.441,0.445,0.502,0.758c0.027,0.142,0.021,0.283-0.001,0.422l2.959,2.014c0.245-0.155,0.526-0.271,0.834-0.33V9.778
		c-0.799-0.221-1.391-0.946-1.391-1.815c0-1.043,0.848-1.893,1.891-1.893c1.043,0,1.892,0.85,1.892,1.893
		c0,0.869-0.592,1.595-1.392,1.815v1.866c0.39,0.075,0.737,0.237,1.02,0.46l3.547-2.263c-0.053-0.451,0.149-0.914,0.562-1.163
		c0.545-0.331,1.316-0.138,1.642,0.403c0.341,0.564,0.16,1.3-0.402,1.642c-0.188,0.113-0.402,0.173-0.619,0.173
		c-0.241,0-0.465-0.077-0.657-0.205l-3.472,2.215c0.01,0.027,0.021,0.053,0.029,0.08l3.697,0.012
		c0.205-0.612,0.777-1.058,1.457-1.058c0.852,0,1.544,0.692,1.544,1.544C20.805,14.336,20.112,15.028,19.261,15.028z"/>
</g>
<g id="Frames-24px">
	<rect fill="none" width="24" height="24"/>
</g>
</svg>
