<?xml version="1.0" encoding="utf-8"?>
<!-- Generator: Adobe Illustrator 19.2.1, SVG Export Plug-In . SVG Version: 6.00 Build 0)  -->
<svg version="1.1" xmlns="http://www.w3.org/2000/svg" xmlns:xlink="http://www.w3.org/1999/xlink" x="0px" y="0px" width="24px"
	 height="24px" viewBox="0 0 24 24" enable-background="new 0 0 24 24" xml:space="preserve">
<g id="Filled_Icons">
	<g>
		<path d="M16.816,6h-4.722c-0.21,0-0.398,0.131-0.47,0.329l-2.878,7.907L5.832,6.327C5.76,6.131,5.573,6,5.363,6H0.5
			C0.333,6,0.178,6.082,0.085,6.221c-0.093,0.138-0.111,0.312-0.049,0.467l5.686,14.056c0.076,0.188,0.26,0.312,0.463,0.312h5.042
			c0.205,0,0.389-0.123,0.465-0.315l5.589-14.055c0.061-0.154,0.042-0.329-0.051-0.467C17.137,6.082,16.982,6,16.816,6z"/>
		<ellipse cx="21.118" cy="8.926" rx="2.882" ry="2.877"/>
	</g>
</g>
<g id="Frames-24px">
	<rect fill="none" width="24" height="24"/>
</g>
</svg>
