<?xml version="1.0" encoding="utf-8"?>
<!-- Generator: Adobe Illustrator 19.2.1, SVG Export Plug-In . SVG Version: 6.00 Build 0)  -->
<svg version="1.1" xmlns="http://www.w3.org/2000/svg" xmlns:xlink="http://www.w3.org/1999/xlink" x="0px" y="0px" width="24px"
	 height="24px" viewBox="0 0 24 24" enable-background="new 0 0 24 24" xml:space="preserve">
<g id="Filled_Icons">
	<g>
		<g>
			<path d="M13.5,21.5h-2c-3.86,0-7-3.14-7-7V5c0-0.552,0.448-1,1-1s1,0.448,1,1v9.5c0,2.757,2.243,5,5,5h2c2.206,0,4-1.794,4-4
				s-1.794-4-4-4h-4c-0.552,0-1-0.448-1-1c0-0.552,0.448-1,1-1h4c3.309,0,6,2.691,6,6C19.5,18.81,16.809,21.5,13.5,21.5z"/>
		</g>
	</g>
</g>
<g id="Frames-24px">
	<rect fill="none" width="24" height="24"/>
</g>
</svg>
