<?xml version="1.0" encoding="utf-8"?>
<!-- Generator: Adobe Illustrator 19.2.1, SVG Export Plug-In . SVG Version: 6.00 Build 0)  -->
<svg version="1.1" xmlns="http://www.w3.org/2000/svg" xmlns:xlink="http://www.w3.org/1999/xlink" x="0px" y="0px" width="24px"
	 height="24px" viewBox="0 0 24 24" enable-background="new 0 0 24 24" xml:space="preserve">
<g id="Filled_Icons">
	<path d="M23,0H12c-0.552,0-1,0.448-1,1v10H1c-0.552,0-1,0.448-1,1v11c0,0.552,0.448,1,1,1h11c0.552,0,1-0.448,1-1V13h10
		c0.552,0,1-0.448,1-1V1C24,0.448,23.552,0,23,0z M11,22H2v-9h9V22z M22,11h-9V2h9V11z"/>
</g>
<g id="Frames-24px">
	<rect fill="none" width="24" height="24"/>
</g>
</svg>
