<?xml version="1.0" encoding="utf-8"?>
<!-- Generator: Adobe Illustrator 19.2.1, SVG Export Plug-In . SVG Version: 6.00 Build 0)  -->
<svg version="1.1" xmlns="http://www.w3.org/2000/svg" xmlns:xlink="http://www.w3.org/1999/xlink" x="0px" y="0px" width="24px"
	 height="24px" viewBox="0 0 24 24" enable-background="new 0 0 24 24" xml:space="preserve">
<g id="Filled_Icons">
	<path d="M20.766,18.199c-0.229-0.074-0.525-0.051-0.768-0.062c-0.021-0.256-0.01-0.707-0.005-0.952L20,7.263
		c0-0.496-0.138-2.823,0.164-3.208c0.065-0.061,0.329-0.172,0.503-0.245c0.5-0.211,1.017-0.428,1.167-0.892
		c0.319-0.934,0.086-1.548-0.165-1.899c-0.477-0.667-1.442-1.019-2.792-1.019c-2.106,0-5.235,0.945-5.544,2.483
		c-0.114,0.566,0.1,1.386,1.758,2.081c0.129,0.055,0.292,0.082,0.479,0.113c0.101,0.016,0.269,0.044,0.37,0.072
		c0,0.001,0.031,6.371,0.031,6.371l-7.399,1.199c-0.195-1-0.037-6.477,0.012-6.769c0.072-0.065,0.387-0.14,0.575-0.185
		c0.498-0.12,1.064-0.254,1.349-0.725c0.454-0.751,0.529-1.407,0.224-1.947c-0.39-0.691-1.368-1.057-2.827-1.057
		c-2.263,0-5.61,0.924-5.92,2.429C1.83,4.823,2.375,5.476,3.606,6.006C3.798,6.087,4.012,6.122,4.2,6.152
		C4.277,6.165,4.38,6.182,4.454,6.2c0,0,0.006,2.603,0.08,4.697c0.113,3.151,0.057,5.654,0.35,8.078
		c0.11,0.844,0.109,1.2,0.106,1.326c-0.093,0.019-0.237,0.05-0.327,0.083c-0.449,0.16-1.501,0.534-1.59,1.397
		c-0.057,0.543,0.089,1.026,0.422,1.396c0.617,0.684,1.721,0.828,2.538,0.828c1.942,0,4.752-0.822,4.918-2.163
		c0.111-0.947-0.718-1.839-1.36-2.063c-0.137-0.048-0.287-0.049-0.477-0.049c-0.105,0-0.299-0.001-0.385,0.007
		c-0.085-0.7-0.204-2.952-0.105-3.27c0.494-0.52,5.072-1.503,6.998-1.503c0.094,0,0.168,0.003,0.227,0.007
		c0,0.005,0.13,3.754,0.13,3.754c-0.064,0.038-0.293,0.062-0.416,0.075c-0.196,0.021-0.382,0.041-0.553,0.108
		c-0.284,0.116-0.949,0.388-1.049,1.087c-0.101,0.684,0.04,1.252,0.418,1.689c0.469,0.544,1.288,0.83,2.368,0.83
		c2.028,0,5.334-1.139,5.571-2.651C22.396,19.356,22.191,18.657,20.766,18.199z"/>
</g>
<g id="Frames-24px">
	<rect fill="none" width="24" height="24"/>
</g>
</svg>
