<?xml version="1.0" encoding="utf-8"?>
<!-- Generator: Adobe Illustrator 19.2.1, SVG Export Plug-In . SVG Version: 6.00 Build 0)  -->
<svg version="1.1" xmlns="http://www.w3.org/2000/svg" xmlns:xlink="http://www.w3.org/1999/xlink" x="0px" y="0px" width="24px"
	 height="24px" viewBox="0 0 24 24" enable-background="new 0 0 24 24" xml:space="preserve">
<g id="Filled_Icons">
	<path d="M12,0C5.383,0,0,5.383,0,12s5.383,12,12,12s12-5.383,12-12S18.617,0,12,0z M13.643,9.935
		c0.314-0.358,2.753-2.315,3.245-2.429c0.728-0.168,1.176,0.615,0.649,1.176c-0.324,0.336-3.134,1.478-3.66,1.579
		c-0.123,0.032-0.303,0.054-0.347-0.013C13.475,10.159,13.564,10.023,13.643,9.935z M12.38,6.745l-3.257,9.56
		C8.777,17.318,7.826,18,6.756,18H5c-0.276,0-0.5-0.224-0.5-0.5S4.724,17,5,17h1.756c0.642,0,1.213-0.409,1.42-1.018l0.262-0.769
		L5.573,6.744C5.484,6.482,5.625,6.199,5.887,6.11C6.15,6.022,6.433,6.162,6.521,6.424l2.447,7.234l2.465-7.235
		c0.09-0.262,0.373-0.401,0.635-0.312C12.329,6.199,12.469,6.484,12.38,6.745z M16.888,16.494c-0.493-0.112-2.933-2.082-3.246-2.428
		c-0.078-0.102-0.167-0.226-0.111-0.314c0.044-0.078,0.224-0.047,0.347-0.023c0.526,0.102,3.336,1.242,3.66,1.59
		C18.063,15.867,17.615,16.662,16.888,16.494z M19.25,11.972c0,0.269-0.168,0.537-0.504,0.649c-0.358,0.113-2.607-0.102-3.66-0.369
		c-0.302-0.09-0.504-0.157-0.515-0.28c0.011-0.122,0.213-0.202,0.515-0.279c1.053-0.279,3.302-0.493,3.66-0.37
		c0.336,0.112,0.504,0.381,0.504,0.639V11.972z"/>
</g>
<g id="Frames-24px">
	<rect fill="none" width="24" height="24"/>
</g>
</svg>
