<?xml version="1.0" encoding="utf-8"?>
<!-- Generator: Adobe Illustrator 19.2.1, SVG Export Plug-In . SVG Version: 6.00 Build 0)  -->
<svg version="1.1" xmlns="http://www.w3.org/2000/svg" xmlns:xlink="http://www.w3.org/1999/xlink" x="0px" y="0px" width="24px"
	 height="24px" viewBox="0 0 24 24" enable-background="new 0 0 24 24" xml:space="preserve">
<g id="Filled_Icons">
	<g>
		<path d="M2.5,21.144V2.855C2.5,1.555,3.427,0.5,4.573,0.5C5.718,0.5,6.5,1.691,6.5,2.993v10.291l5.328-5.717
			c0.601-0.651,1.091-1.054,1.827-1.054c1.118,0,1.827,1.023,1.827,2.107c0,0.807-0.381,1.426-0.955,2.047l-3.271,3.191l3.9,5.982
			c0.354,0.559,0.519,0.992,0.519,1.519c0,1.271-0.9,2.138-1.938,2.138c-0.817,0-1.309-0.308-1.8-1.084L8.31,16.743L6.5,18.584
			v2.697c0,1.303-0.782,2.219-1.927,2.219C3.427,23.5,2.5,22.445,2.5,21.144 M19.175,18.36c1.376,0,2.491-1.121,2.491-2.505
			c0-1.383-1.115-2.505-2.491-2.505c-1.376,0-2.491,1.122-2.491,2.505C16.684,17.239,17.799,18.36,19.175,18.36"/>
	</g>
</g>
<g id="Frames-24px">
	<rect fill="none" width="24" height="24"/>
</g>
</svg>
