<?xml version="1.0" encoding="utf-8"?>
<!-- Generator: Adobe Illustrator 19.2.1, SVG Export Plug-In . SVG Version: 6.00 Build 0)  -->
<svg version="1.1" xmlns="http://www.w3.org/2000/svg" xmlns:xlink="http://www.w3.org/1999/xlink" x="0px" y="0px" width="24px"
	 height="24px" viewBox="0 0 24 24" enable-background="new 0 0 24 24" xml:space="preserve">
<g id="Filled_Icons">
	<g>
		<g>
			<path d="M19.573,19.489c-4.309,0-5.529-3.339-6.606-6.285c-1.117-3.055-2.081-5.693-5.977-5.693C4.239,7.511,2,9.748,2,12.5
				c0,2.751,2.239,4.989,4.99,4.989c1.603,0,3.068-0.741,4.019-2.032c0.327-0.444,0.953-0.538,1.398-0.211
				c0.444,0.328,0.54,0.954,0.212,1.399c-1.313,1.782-3.417,2.845-5.629,2.845C3.136,19.489,0,16.354,0,12.5
				c0-3.854,3.136-6.989,6.99-6.989c5.293,0,6.714,3.885,7.855,7.007c1.127,3.082,1.958,4.971,4.728,4.971
				c1.375,0,2.016-0.639,2.016-2.009c0-1.377-0.696-1.664-2.271-2.184c-1.58-0.521-3.745-1.235-3.745-4.265
				c0-1.133,0.505-2.106,1.422-2.739c0.723-0.499,1.688-0.774,2.718-0.774c2.246,0,3.876,1.18,3.876,2.805c0,0.552-0.448,1-1,1
				c-0.552,0-1-0.448-1-1c0-0.372-0.819-0.805-1.876-0.805c-0.619,0-1.195,0.153-1.582,0.42c-0.381,0.263-0.558,0.61-0.558,1.093
				c0,1.517,0.77,1.837,2.371,2.366c1.538,0.508,3.645,1.202,3.645,4.083C23.589,17.953,22.05,19.489,19.573,19.489z"/>
		</g>
	</g>
</g>
<g id="Frames-24px">
	<rect fill="none" width="24" height="24"/>
</g>
</svg>
