<?xml version="1.0" encoding="utf-8"?>
<!-- Generator: Adobe Illustrator 19.2.1, SVG Export Plug-In . SVG Version: 6.00 Build 0)  -->
<svg version="1.1" xmlns="http://www.w3.org/2000/svg" xmlns:xlink="http://www.w3.org/1999/xlink" x="0px" y="0px" width="24px"
	 height="24px" viewBox="0 0 24 24" enable-background="new 0 0 24 24" xml:space="preserve">
<g id="Filled_Icons">
	<path d="M12,0C5.383,0,0,5.383,0,12s5.383,12,12,12s12-5.383,12-12S18.617,0,12,0z M12,8h1v1h-1V8z M10,16H9v-3.5
		C9,11.673,8.327,11,7.5,11S6,11.673,6,12.5V15v0.5C6,15.776,5.776,16,5.5,16H4v-1h1v-2.5V9H4V8h1.5C5.776,8,6,8.224,6,8.5v2.013
		C6.419,10.195,6.935,10,7.5,10c1.379,0,2.5,1.121,2.5,2.5V16z M14,16h-3v-1h1v-4h-1v-1h1.5c0.276,0,0.5,0.224,0.5,0.5V15h1V16z
		 M20,8h-3.63l-0.611,2H17c1.654,0,3,1.346,3,3s-1.346,3-3,3s-3-1.346-3-3c0-0.276,0.224-0.5,0.5-0.5S15,12.724,15,13
		c0,1.102,0.898,2,2,2s2-0.898,2-2c0-1.104-0.897-2-2-2h-1.917c-0.158,0-0.308-0.075-0.402-0.201
		c-0.094-0.129-0.122-0.293-0.076-0.445l0.917-3C15.586,7.144,15.78,7,16,7h4c0.276,0,0.5,0.224,0.5,0.5S20.276,8,20,8z"/>
</g>
<g id="Frames-24px">
	<rect fill="none" width="24" height="24"/>
</g>
</svg>
