<?xml version="1.0" encoding="utf-8"?>
<!-- Generator: Adobe Illustrator 19.2.1, SVG Export Plug-In . SVG Version: 6.00 Build 0)  -->
<svg version="1.1" xmlns="http://www.w3.org/2000/svg" xmlns:xlink="http://www.w3.org/1999/xlink" x="0px" y="0px" width="24px"
	 height="24px" viewBox="0 0 24 24" enable-background="new 0 0 24 24" xml:space="preserve">
<g id="Filled_Icons">
	<g>
		<path d="M13.5,8.5V7h-3v1.5c0,0.827,0.673,1.5,1.5,1.5S13.5,9.327,13.5,8.5z"/>
		<path d="M12,0.004c-6.617,0-12,5.383-12,12s5.383,12,12,12s12-5.383,12-12S18.617,0.004,12,0.004z M6,13.504
			c-0.152,0-0.303-0.07-0.401-0.202c-0.165-0.221-0.119-0.535,0.103-0.699l2.687-2c0.221-0.165,0.533-0.12,0.7,0.103
			c0.165,0.221,0.119,0.535-0.103,0.699l-2.688,2C6.209,13.472,6.104,13.504,6,13.504z M15.5,19.396c0,0.276-0.224,0.5-0.5,0.5
			s-0.5-0.224-0.5-0.5V17.5c0-1.207-0.86-2.217-2-2.449v4.345c0,0.276-0.224,0.5-0.5,0.5s-0.5-0.224-0.5-0.5v-4.345
			c-1.14,0.232-2,1.242-2,2.449v1.896c0,0.276-0.224,0.5-0.5,0.5s-0.5-0.224-0.5-0.5V17.5c0-1.758,1.309-3.204,3-3.449v-3.102
			c-1.14-0.232-2-1.243-2-2.449V7h-2C7.224,7,7,6.776,7,6.5S7.224,6,7.5,6h2V5c0-0.276,0.224-0.5,0.5-0.5s0.5,0.224,0.5,0.5v1h3V5
			c0-0.276,0.224-0.5,0.5-0.5s0.5,0.224,0.5,0.5v1h2C16.776,6,17,6.224,17,6.5S16.776,7,16.5,7h-2v1.5c0,1.207-0.86,2.217-2,2.449
			v3.102c1.691,0.245,3,1.691,3,3.449V19.396z M18.401,13.303c-0.099,0.132-0.249,0.202-0.401,0.202
			c-0.104,0-0.209-0.032-0.299-0.099l-2.688-2c-0.222-0.165-0.268-0.478-0.103-0.699c0.167-0.222,0.479-0.266,0.7-0.103l2.687,2
			C18.521,12.768,18.566,13.082,18.401,13.303z"/>
	</g>
</g>
<g id="Frames-24px">
	<rect fill="none" width="24" height="24"/>
</g>
</svg>
