<?xml version="1.0" encoding="utf-8"?>
<!-- Generator: Adobe Illustrator 19.2.1, SVG Export Plug-In . SVG Version: 6.00 Build 0)  -->
<svg version="1.1" xmlns="http://www.w3.org/2000/svg" xmlns:xlink="http://www.w3.org/1999/xlink" x="0px" y="0px" width="24px"
	 height="24px" viewBox="0 0 24 24" enable-background="new 0 0 24 24" xml:space="preserve">
<g id="Filled_Icons">
	<path d="M23.345,11.894c-0.274-0.826-1.12-1.598-2.059-1.819c-1.119-0.257-2.039-0.164-3.215,0.331
		c-0.863,0.369-1.892,0.662-2.958,0.441c-2.72-0.569-2.297-3.766,0.257-5.145c1.818-0.974,2.592-0.404,4.153-1.268
		c1.544-0.846,2.149-2.573,0.845-3.252c-0.496-0.277-1.029-0.313-1.617-0.239c-1.285,0.146-2.425,0.679-3.105,1.874
		c-0.532,0.955,0.074,1.396-0.808,2.553c-1.966,2.594-5.973,2.297-5.034-0.256c0.256-0.68,1.285-1.562,0.936-2.389
		c-0.091-0.184-0.238-0.312-0.367-0.387c-0.312-0.184-1.011-0.128-1.414,0.02c-0.331,0.109-0.735,0.293-1.085,0.55
		C7.138,3.461,6.514,4.287,6.697,5.06c0.166,0.735,0.79,0.57,1.525,0.644C9.71,5.85,9.509,7.432,8.884,8.422
		C8.058,9.71,5.89,11.087,4.75,10.186c-0.46-0.367-0.607-0.808-1.617-0.66c-2.609,0.403-3.804,4.832-1.103,4.244
		c1.176-0.238,1.617-1.029,2.095-1.58c2.37-2.664,5.347-1.305,4.502,1.415c-0.441,1.47-1.286,2.095-2.462,2.829
		c-1.451,0.901-2.48,2.352-2.224,4.189c0.221,1.562,1.745,2.168,3.271,1.746c2.444-0.662,2.774-3.124,1.984-5.256
		c-0.496-1.359-0.625-2.168,0.019-3.326c0.184-0.367,0.423-0.717,0.698-1.01c1.525-1.765,4.226-2.537,5.641-0.57
		c0.478,0.645,0.386,0.992,0.552,1.801c0.496,2.408,3.602,2.775,5.421,1.764C22.904,15.019,23.896,13.586,23.345,11.894z
		 M18.483,1.836c0.783-0.135,1.117,0.307,1.149,0.729c0.038,0.502-0.401,1.114-1.175,1.23c-0.087,0.014-0.168,0.02-0.243,0.02
		c-0.592,0-0.888-0.375-0.919-0.746C17.253,2.568,17.686,1.971,18.483,1.836z M8.617,4.293C7.886,4.486,8.065,3.56,8.9,3.342
		C9.606,3.162,9.376,4.102,8.617,4.293z M1.983,12.13c-0.244-0.234,0.106-0.827,0.551-0.923c0.223-0.043,0.361,0.062,0.34,0.285
		C2.821,12.002,2.217,12.352,1.983,12.13z M8.374,19.74c-0.37,1.147-1.249,1.555-1.889,1.555c-0.475,0-0.898-0.206-1.162-0.565
		c-0.297-0.405-0.357-0.958-0.168-1.558c0.218-0.703,0.872-1.471,1.7-1.573c0.536-0.071,1.022,0.126,1.319,0.536
		C8.481,18.559,8.558,19.174,8.374,19.74z M20.434,14.819c-0.229,0.06-0.451,0.089-0.664,0.089c-0.978,0-1.739-0.629-1.851-1.53
		c-0.099-0.793,0.371-1.737,1.642-2.058c0.178-0.047,0.368-0.072,0.558-0.072c0.973,0,1.786,0.643,1.893,1.497
		C22.139,13.852,21.283,14.595,20.434,14.819z"/>
</g>
<g id="Frames-24px">
	<rect fill="none" width="24" height="24"/>
</g>
</svg>
