<?xml version="1.0" encoding="utf-8"?>
<!-- Generator: Adobe Illustrator 19.2.1, SVG Export Plug-In . SVG Version: 6.00 Build 0)  -->
<svg version="1.1" xmlns="http://www.w3.org/2000/svg" xmlns:xlink="http://www.w3.org/1999/xlink" x="0px" y="0px" width="24px"
	 height="24px" viewBox="0 0 24 24" enable-background="new 0 0 24 24" xml:space="preserve">
<g id="Filled_Icons">
	<path d="M12,0C5.383,0,0,5.383,0,12s5.383,12,12,12s12-5.383,12-12S18.617,0,12,0z M10,18H7v-3C8.856,15,10,15.882,10,18z
		 M12.998,18c0-3.307-2.69-5.998-5.998-5.998v-1c3.858,0,6.998,3.139,6.998,6.998H12.998z M17.031,18
		c0-5.531-4.5-10.031-10.031-10.031v-1c6.083,0,11.031,4.949,11.031,11.031H17.031z"/>
</g>
<g id="Frames-24px">
	<rect fill="none" width="24" height="24"/>
</g>
</svg>
