<?xml version="1.0" encoding="utf-8"?>
<!-- Generator: Adobe Illustrator 19.2.1, SVG Export Plug-In . SVG Version: 6.00 Build 0)  -->
<svg version="1.1" xmlns="http://www.w3.org/2000/svg" xmlns:xlink="http://www.w3.org/1999/xlink" x="0px" y="0px" width="24px"
	 height="24px" viewBox="0 0 24 24" enable-background="new 0 0 24 24" xml:space="preserve">
<g id="Filled_Icons">
	<g>
		<path d="M12,0C5.383,0,0,5.383,0,12s5.383,12,12,12s12-5.383,12-12S18.617,0,12,0z M18,11.5c0,0.276-0.224,0.5-0.5,0.5H12v5.5
			c0,0.276-0.224,0.5-0.5,0.5h-6C5.224,18,5,17.776,5,17.5v-6C5,11.224,5.224,11,5.5,11H11V5.5C11,5.224,11.224,5,11.5,5h6
			C17.776,5,18,5.224,18,5.5V11.5z"/>
		<rect x="12" y="6" width="5" height="5"/>
		<rect x="6" y="12" width="5" height="5"/>
	</g>
</g>
<g id="Frames-24px">
	<rect fill="none" width="24" height="24"/>
</g>
</svg>
