<?xml version="1.0" encoding="utf-8"?>
<!-- Generator: Adobe Illustrator 19.2.1, SVG Export Plug-In . SVG Version: 6.00 Build 0)  -->
<svg version="1.1" xmlns="http://www.w3.org/2000/svg" xmlns:xlink="http://www.w3.org/1999/xlink" x="0px" y="0px" width="24px"
	 height="24px" viewBox="0 0 24 24" enable-background="new 0 0 24 24" xml:space="preserve">
<g id="Filled_Icons">
	<g>
		<g>
			<path d="M10.418,1.368c0.169-0.218,0.129-0.532-0.089-0.701c-0.217-0.169-0.533-0.129-0.701,0.089L7,4.147l-2.63-3.39
				C4.201,0.54,3.887,0.498,3.668,0.669C3.45,0.838,3.41,1.152,3.58,1.371L6.5,5.135l0.001,4.367c0,0.276,0.224,0.5,0.5,0.5
				c0.276,0,0.5-0.224,0.5-0.5L7.5,5.134L10.418,1.368z"/>
			<path d="M11.5,3c-1.103,0-2,0.898-2,2.001v3c0,1.102,0.898,2,2.001,2c1.103,0,2-0.898,2-2L13.5,5C13.5,3.897,12.603,3,11.5,3z
				 M11.501,9C10.949,9,10.5,8.552,10.5,8v-3C10.5,4.449,10.949,4,11.5,4s1,0.449,1,1l0.001,3C12.501,8.551,12.052,9,11.501,9z"/>
			<path d="M19.501,7.498l-0.001-4c0-0.276-0.224-0.5-0.5-0.5c-0.276,0-0.5,0.224-0.5,0.5l0.001,4.003
				c-0.002,0.827-0.674,1.497-1.5,1.497c-0.416-0.029-0.777-0.155-1.06-0.438c-0.284-0.283-0.439-0.66-0.439-1.061l-0.001-4
				c0-0.275-0.224-0.5-0.5-0.5c-0.276,0-0.5,0.225-0.5,0.5l0.001,4c0,0.668,0.26,1.296,0.732,1.768
				c0.472,0.471,1.099,0.731,1.765,0.731c0.001,0,0.002,0,0.002,0c0.572,0,1.093-0.199,1.514-0.524
				c0.035,0.243,0.235,0.431,0.486,0.431c0.276,0,0.5-0.224,0.5-0.5V7.501C19.501,7.499,19.501,7.498,19.501,7.498z"/>
		</g>
		<g>
			<path d="M14,17c-0.276,0-0.5,0.224-0.5,0.5v2c0,0.276,0.224,0.5,0.5,0.5s0.5-0.224,0.5-0.5v-2C14.5,17.224,14.276,17,14,17z"/>
			<path d="M18.5,17.5c0-0.276-0.224-0.5-0.5-0.5s-0.5,0.224-0.5,0.5V18h1V17.5z"/>
			<path d="M19,12.5H5c-2.209,0-4,1.79-4,4v3c0,2.209,1.791,4,4,4h14c2.209,0,4-1.791,4-4v-3C23,14.29,21.209,12.5,19,12.5z
				 M8.021,16H6.5v4.479c0,0.276-0.224,0.5-0.5,0.5s-0.5-0.224-0.5-0.5V16H3.978c-0.276,0-0.5-0.224-0.5-0.5s0.224-0.5,0.5-0.5
				h4.042c0.276,0,0.5,0.224,0.5,0.5S8.297,16,8.021,16z M11.001,20.905c-0.107,0-0.199-0.04-0.281-0.097
				C10.506,20.927,10.263,21,10,21c-0.827,0-1.5-0.673-1.5-1.5v-3.002c0-0.276,0.224-0.5,0.5-0.5s0.5,0.224,0.5,0.5V19.5
				c0,0.276,0.224,0.5,0.5,0.5s0.5-0.224,0.5-0.5v-3.002c0-0.276,0.224-0.5,0.5-0.5s0.5,0.224,0.5,0.5l0.001,3.907
				C11.501,20.681,11.277,20.905,11.001,20.905z M15.5,19.5c0,0.827-0.673,1.5-1.5,1.5c-0.237,0-0.459-0.06-0.659-0.159
				c-0.089,0.084-0.208,0.138-0.341,0.138c-0.276,0-0.5-0.224-0.5-0.5V14.5c0-0.276,0.224-0.5,0.5-0.5s0.5,0.224,0.5,0.5v1.593
				C13.657,16.036,13.824,16,14,16c0.827,0,1.5,0.673,1.5,1.5V19.5z M18.086,21.125c-0.815,0-1.586-0.79-1.586-1.625v-2
				c0-0.827,0.673-1.5,1.5-1.5s1.5,0.673,1.5,1.5v1c0,0.276-0.224,0.5-0.5,0.5h-1.5v0.5c0,0.286,0.317,0.625,0.586,0.625
				c0.227,0,0.586-0.102,0.586-0.375c0-0.276,0.224-0.5,0.5-0.5c0.276,0,0.5,0.224,0.5,0.5
				C19.672,20.534,18.99,21.125,18.086,21.125z"/>
		</g>
	</g>
</g>
<g id="Frames-24px">
	<rect fill="none" width="24" height="24"/>
</g>
</svg>
