<?xml version="1.0" encoding="utf-8"?>
<!-- Generator: Adobe Illustrator 19.2.1, SVG Export Plug-In . SVG Version: 6.00 Build 0)  -->
<svg version="1.1" xmlns="http://www.w3.org/2000/svg" xmlns:xlink="http://www.w3.org/1999/xlink" x="0px" y="0px" width="24px"
	 height="24px" viewBox="0 0 24 24" enable-background="new 0 0 24 24" xml:space="preserve">
<g id="Filled_Icons">
	<path d="M12,0C5.383,0,0,5.383,0,12s5.383,12,12,12s12-5.383,12-12S18.617,0,12,0z M8.11,16.5c-0.773,0-1.597-0.629-1.597-1.4v-3.6
		H5l2.45-3.002L9.9,11.5H8.652v3h3.654l1.793,2H8.11z M16.55,16.503L14.1,13.5h1.4v-4h-3.808L9.9,7.5h6.286
		c0.772,0,1.313,0.748,1.313,1.521V13.5H19L16.55,16.503z"/>
</g>
<g id="Frames-24px">
	<rect fill="none" width="24" height="24"/>
</g>
</svg>
