<?xml version="1.0" encoding="utf-8"?>
<!-- Generator: Adobe Illustrator 19.2.1, SVG Export Plug-In . SVG Version: 6.00 Build 0)  -->
<svg version="1.1" xmlns="http://www.w3.org/2000/svg" xmlns:xlink="http://www.w3.org/1999/xlink" x="0px" y="0px" width="24px"
	 height="24px" viewBox="0 0 24 24" enable-background="new 0 0 24 24" xml:space="preserve">
<g id="Filled_Icons">
	<g>
		<path d="M10.485,18.739c0,0.31,0.069,0.393,0.069,0.395l0.018-0.006c0.017,0,0.025-0.001,0.028-0.003
			c-0.003-0.003,0.058-0.095,0.058-0.386c0-0.31-0.068-0.394-0.068-0.394C10.554,18.346,10.485,18.429,10.485,18.739z"/>
		<path d="M12.905,18.739c0,0.31,0.069,0.393,0.069,0.395l0.018-0.006c0.018,0,0.026-0.002,0.03-0.003
			c-0.003-0.003,0.058-0.094,0.058-0.386c0-0.31-0.068-0.393-0.069-0.394C12.974,18.346,12.905,18.429,12.905,18.739z"/>
		<path d="M15.366,18.739c0,0.31,0.068,0.394,0.069,0.395l0.017-0.006c0.018,0,0.027-0.002,0.03-0.003
			c-0.003-0.003,0.058-0.094,0.058-0.386c0-0.31-0.068-0.393-0.069-0.394C15.435,18.345,15.366,18.429,15.366,18.739z"/>
		<circle cx="14.5" cy="11" r="1.5"/>
		<path d="M12,0C5.383,0,0,5.383,0,12s5.383,12,12,12s12-5.383,12-12S18.617,0,12,0z M5.5,7.5h2v7h-2V7.5z M8.699,17.627
			c0.276,0,0.5,0.224,0.5,0.5c0,0.277-0.224,0.5-0.5,0.5H8.25v1c0,0.277-0.224,0.5-0.5,0.5c-0.276,0-0.5-0.223-0.5-0.5v-3
			c0-0.276,0.224-0.5,0.5-0.5h1.305c0.276,0,0.5,0.224,0.5,0.5c0,0.277-0.224,0.5-0.5,0.5H8.25v0.5H8.699z M10.572,20.127
			c-0.255,0-1.087-0.1-1.087-1.389c0-1.288,0.832-1.388,1.087-1.388c0.255,0,1.086,0.101,1.086,1.388
			C11.658,20.027,10.827,20.127,10.572,20.127z M12.992,20.127c-0.255,0-1.087-0.1-1.087-1.389c0-1.288,0.832-1.388,1.087-1.388
			s1.088,0.101,1.088,1.388C14.08,20.027,13.247,20.127,12.992,20.127z M16.54,19.627c0,0.277-0.224,0.5-0.5,0.5
			c-0.085,0-0.51,0-0.588,0c-0.255,0-1.086-0.1-1.086-1.389c0-1.288,0.831-1.388,1.086-1.388c0.024,0,0.056,0.002,0.088,0.005
			v-0.729c0-0.276,0.224-0.5,0.5-0.5c0.276,0,0.5,0.224,0.5,0.5V19.627z M19.5,12.5c0,1.104-0.896,2-2,2h-6c-1.104,0-2-0.896-2-2v-3
			c0-1.106,0.896-2,2-2h1l1-1h2l1,1h1c1.104,0,2,0.894,2,2V12.5z"/>
	</g>
</g>
<g id="Frames-24px">
	<rect fill="none" width="24" height="24"/>
</g>
</svg>
