<?xml version="1.0" encoding="utf-8"?>
<!-- Generator: Adobe Illustrator 19.2.1, SVG Export Plug-In . SVG Version: 6.00 Build 0)  -->
<svg version="1.1" xmlns="http://www.w3.org/2000/svg" xmlns:xlink="http://www.w3.org/1999/xlink" x="0px" y="0px" width="24px"
	 height="24px" viewBox="0 0 24 24" enable-background="new 0 0 24 24" xml:space="preserve">
<g id="Filled_Icons">
	<g>
		<g>
			<path d="M3,12.5c0-2.826,1.312-5.349,3.356-7H1.5c-0.553,0-1,0.448-1,1v12c0,0.553,0.447,1,1,1h4.856
				C4.312,17.85,3,15.327,3,12.5z"/>
			<path d="M22.5,5.5h-4.856C19.688,7.151,21,9.674,21,12.5c0,2.827-1.312,5.35-3.356,7H22.5c0.553,0,1-0.447,1-1v-12
				C23.5,5.948,23.053,5.5,22.5,5.5z"/>
		</g>
		<path d="M12,4.5c-4.418,0-8,3.582-8,8s3.582,8,8,8s8-3.582,8-8S16.418,4.5,12,4.5z M17.5,13c-0.276,0-0.5-0.224-0.5-0.5
			c0-2.757-2.243-5-5-5c-0.276,0-0.5-0.224-0.5-0.5s0.224-0.5,0.5-0.5c3.309,0,6,2.691,6,6C18,12.776,17.776,13,17.5,13z"/>
		<rect x="1.5" y="3" width="4" height="1.5"/>
	</g>
</g>
<g id="Frames-24px">
	<rect fill="none" width="24" height="24"/>
</g>
</svg>
