<?xml version="1.0" encoding="utf-8"?>
<!-- Generator: Adobe Illustrator 19.2.1, SVG Export Plug-In . SVG Version: 6.00 Build 0)  -->
<svg version="1.1" xmlns="http://www.w3.org/2000/svg" xmlns:xlink="http://www.w3.org/1999/xlink" x="0px" y="0px" width="24px"
	 height="24px" viewBox="0 0 24 24" enable-background="new 0 0 24 24" xml:space="preserve">
<g id="Filled_Icons">
	<path d="M11.748,8.5c-2.5,0-4.735,0.88-6.248,2.265V2c0-0.552-0.448-1-1-1s-1,0.448-1,1v13c0,3.59,3.692,6.5,8.248,6.5
		c4.555,0,8.248-2.91,8.248-6.5C19.996,11.411,16.303,8.5,11.748,8.5z M11.748,18.152c-2.209,0-4-1.411-4-3.152
		c0-1.741,1.791-3.152,4-3.152c2.209,0,4,1.412,4,3.152C15.748,16.741,13.957,18.152,11.748,18.152z"/>
</g>
<g id="Frames-24px">
	<rect fill="none" width="24" height="24"/>
</g>
</svg>
