<?xml version="1.0" encoding="utf-8"?>
<!-- Generator: Adobe Illustrator 19.2.1, SVG Export Plug-In . SVG Version: 6.00 Build 0)  -->
<svg version="1.1" xmlns="http://www.w3.org/2000/svg" xmlns:xlink="http://www.w3.org/1999/xlink" x="0px" y="0px" width="24px"
	 height="24px" viewBox="0 0 24 24" enable-background="new 0 0 24 24" xml:space="preserve">
<g id="Filled_Icons">
	<path d="M12,0C5.383,0,0,5.383,0,12s5.383,12,12,12s12-5.383,12-12S18.617,0,12,0z M8.794,15.65
		c-0.455,0.036-0.85-0.312-0.742-0.79c0.071-0.372,0.431-0.672,0.862-0.708c0.455-0.023,0.839,0.325,0.743,0.791
		C9.585,15.327,9.226,15.627,8.794,15.65z M16.968,15.435c-1.056,1.366-2.685,2.134-4.386,2.444
		c-0.61,0.114-1.232,0.157-1.852,0.152c0.302-0.04,0.616-0.094,0.952-0.17c1.247-0.286,2.578-0.982,3.141-2.18
		c0.527-1.103-0.048-2.23-1.006-2.842c-1.487-0.936-3.477-0.946-5.083-0.42c-2.141,0.709-3.385,2.496-2.373,4.028
		c0.217,0.323,0.475,0.607,0.779,0.846c-1.152-0.509-2.212-1.309-2.541-2.53c-0.743-2.745,2.912-6.197,5.31-7.012
		c0.443-0.156,1.175-0.229,1.594,0.037c0.575,0.359,0.516,1.174,0.36,1.761c-0.024,0.085-0.097,0.216-0.036,0.3
		c0.107,0.168,0.599-0.106,0.862-0.19c0.408-0.133,0.804-0.253,1.27-0.289c0.995-0.084,1.87,0.24,1.738,1.318
		c-0.023,0.239-0.084,0.42-0.156,0.623c-0.107,0.288-0.06,0.337,0.228,0.432c0.439,0.143,0.79,0.29,1.198,0.659
		C17.902,13.231,17.675,14.523,16.968,15.435z M17.872,10.506c-0.068,0.211-0.265,0.344-0.475,0.344
		c-0.342,0-0.581-0.334-0.475-0.656c0.049-0.149,0.073-0.305,0.073-0.463c0-0.803-0.653-1.457-1.456-1.457
		c-0.169,0-0.335,0.029-0.492,0.086c-0.261,0.096-0.546-0.041-0.641-0.301c-0.094-0.26,0.041-0.546,0.301-0.64
		c0.267-0.097,0.547-0.146,0.832-0.146c1.355,0,2.456,1.103,2.456,2.457C17.996,9.995,17.954,10.256,17.872,10.506z M19.941,10.769
		c-0.044,0.277-0.308,0.458-0.572,0.414c-0.273-0.043-0.459-0.299-0.416-0.572c0.031-0.195,0.048-0.397,0.048-0.602
		c0-2.062-1.678-3.74-3.739-3.74c-0.395,0-0.786,0.062-1.163,0.184c-0.261,0.085-0.544-0.06-0.629-0.322
		c-0.085-0.262,0.06-0.545,0.322-0.629c0.476-0.154,0.97-0.233,1.47-0.233c2.613,0,4.739,2.127,4.739,4.74
		C20.001,10.268,19.98,10.521,19.941,10.769z"/>
</g>
<g id="Frames-24px">
	<rect fill="none" width="24" height="24"/>
</g>
</svg>
