<?xml version="1.0" encoding="utf-8"?>
<!-- Generator: Adobe Illustrator 19.2.1, SVG Export Plug-In . SVG Version: 6.00 Build 0)  -->
<svg version="1.1" xmlns="http://www.w3.org/2000/svg" xmlns:xlink="http://www.w3.org/1999/xlink" x="0px" y="0px" width="24px"
	 height="24px" viewBox="0 0 24 24" enable-background="new 0 0 24 24" xml:space="preserve">
<g id="Filled_Icons">
	<g>
		<path d="M12,3c-3.86,0-7,3.141-7,7c0,1.318,0.368,2.602,1.063,3.711c0.147,0.234,0.455,0.305,0.689,0.158
			c0.234-0.146,0.305-0.455,0.158-0.689C6.315,12.229,6,11.131,6,10c0-3.309,2.691-6,6-6s6,2.691,6,6
			c0,1.135-0.318,2.238-0.92,3.193c-0.147,0.233-0.077,0.543,0.156,0.689c0.083,0.053,0.175,0.077,0.266,0.077
			c0.166,0,0.329-0.082,0.423-0.233C18.628,12.612,19,11.323,19,10C19,6.141,15.86,3,12,3z"/>
		<path d="M12,0C6.486,0,2,4.486,2,10c0,2.512,0.935,4.914,2.635,6.764c0.099,0.107,0.233,0.162,0.368,0.162
			c0.121,0,0.242-0.043,0.338-0.132c0.203-0.186,0.217-0.503,0.03-0.706C3.842,14.423,3,12.262,3,10c0-4.963,4.038-9,9-9
			s9,4.037,9,9c0,2.248-0.833,4.4-2.346,6.062c-0.186,0.204-0.171,0.521,0.033,0.706c0.204,0.186,0.521,0.172,0.706-0.033
			C21.074,14.889,22,12.498,22,10C22,4.486,17.514,0,12,0z"/>
		<path d="M13.266,13h-2.531c-0.709,0-1.388,0.303-1.863,0.832c-0.473,0.53-0.7,1.238-0.622,1.944l0.557,5
			C8.946,22.044,10.014,23,11.29,23h1.42c1.276,0,2.344-0.956,2.484-2.224l0.556-4.999c0.079-0.705-0.148-1.414-0.623-1.945
			C14.652,13.303,13.974,13,13.266,13z"/>
		<circle cx="12" cy="9.042" r="3"/>
	</g>
</g>
<g id="Frames-24px">
	<rect fill="none" width="24" height="24"/>
</g>
</svg>
