<?xml version="1.0" encoding="utf-8"?>
<!-- Generator: Adobe Illustrator 19.2.1, SVG Export Plug-In . SVG Version: 6.00 Build 0)  -->
<svg version="1.1" xmlns="http://www.w3.org/2000/svg" xmlns:xlink="http://www.w3.org/1999/xlink" x="0px" y="0px" width="24px"
	 height="24px" viewBox="0 0 24 24" enable-background="new 0 0 24 24" xml:space="preserve">
<g id="Filled_Icons">
	<path d="M12,0C5.383,0,0,5.383,0,12s5.383,12,12,12s12-5.383,12-12S18.617,0,12,0z M17.157,9.558l-1.91,1.78L9.421,5.927
		L17.157,9.558z M6.139,18.91C5.74,18.659,5.5,18.219,5.5,17.748V6.252c0-0.471,0.24-0.91,0.639-1.162
		c0.209-0.134,0.447-0.201,0.688-0.21l7.688,7.141l-7.612,7.095C6.637,19.12,6.37,19.058,6.139,18.91z M9.551,18.014l5.698-5.311
		l1.886,1.75L9.551,18.014z M19.708,13.246l-1.599,0.75l-2.127-1.977l2.15-2.004l1.575,0.738C20.191,10.981,20.5,11.466,20.5,12
		C20.5,12.533,20.191,13.019,19.708,13.246z"/>
</g>
<g id="Frames-24px">
	<rect fill="none" width="24" height="24"/>
</g>
</svg>
