<?xml version="1.0" encoding="utf-8"?>
<!-- Generator: Adobe Illustrator 19.2.1, SVG Export Plug-In . SVG Version: 6.00 Build 0)  -->
<svg version="1.1" xmlns="http://www.w3.org/2000/svg" xmlns:xlink="http://www.w3.org/1999/xlink" x="0px" y="0px" width="24px"
	 height="24px" viewBox="0 0 24 24" enable-background="new 0 0 24 24" xml:space="preserve">
<g id="Filled_Icons">
	<g>
		<path d="M4.15,8.327H4.148c-0.647,0-0.811,0.864-1.168,3.225c-0.02,0.13-0.041,0.268-0.062,0.404
			c-0.237-0.404-0.504-0.877-0.719-1.255C1.099,8.756,1.077,8.719,0.718,8.719c-0.144,0-0.288,0.065-0.382,0.173
			c-0.176,0.2-0.273,0.31,0.28,4.643c0.035,0.273,0.288,0.462,0.56,0.432c0.274-0.035,0.467-0.286,0.433-0.56
			c-0.094-0.733-0.185-1.505-0.259-2.182c1.366,2.412,1.429,2.469,1.805,2.469c0.515,0,0.561-0.304,0.816-1.993
			c0.054-0.354,0.128-0.848,0.209-1.306c0.234,0.925,0.525,2.212,0.774,3.411c0.049,0.235,0.257,0.398,0.489,0.398
			c0.034,0,0.068-0.003,0.103-0.01c0.27-0.057,0.444-0.321,0.388-0.592C4.846,8.385,4.631,8.266,4.15,8.327z"/>
		<path d="M8.551,13.312c-0.003,0.002-0.347,0.261-0.791,0.11c-0.305-0.104-0.471-0.3-0.522-0.615
			c-0.012-0.07-0.017-0.144-0.017-0.219c1.317,0.303,1.615,0.226,1.788-0.122c0.095-0.189,0.394-1.535,0.164-2.183
			c-0.1-0.281-0.276-0.41-0.407-0.468c-0.416-0.188-0.888-0.101-1.329,0.238c-0.711,0.548-1.367,1.818-1.187,2.917
			c0.111,0.678,0.532,1.175,1.185,1.398c0.208,0.071,0.411,0.101,0.601,0.101c0.51,0,0.929-0.209,1.136-0.374
			c0.216-0.171,0.253-0.485,0.081-0.702C9.082,13.177,8.768,13.141,8.551,13.312z M8.048,10.847c0.064-0.05,0.142-0.097,0.208-0.117
			c0.027,0.244-0.026,0.712-0.082,1.022c-0.19-0.028-0.449-0.078-0.705-0.133C7.625,11.294,7.835,11.01,8.048,10.847z"/>
		<path d="M11.93,13.312c-0.003,0.002-0.347,0.261-0.791,0.11c-0.305-0.104-0.471-0.3-0.522-0.615
			c-0.012-0.07-0.017-0.144-0.017-0.219c1.316,0.303,1.616,0.226,1.788-0.122c0.095-0.189,0.395-1.535,0.164-2.183
			c-0.1-0.281-0.276-0.41-0.407-0.468c-0.416-0.188-0.887-0.101-1.329,0.238c-0.711,0.548-1.367,1.818-1.187,2.917
			c0.111,0.678,0.532,1.175,1.185,1.398c0.208,0.071,0.411,0.101,0.601,0.101c0.51,0,0.929-0.209,1.136-0.374
			c0.216-0.171,0.252-0.485,0.081-0.702C12.461,13.177,12.146,13.141,11.93,13.312z M11.427,10.847
			c0.064-0.05,0.142-0.097,0.208-0.117c0.027,0.244-0.026,0.712-0.082,1.022c-0.19-0.028-0.449-0.078-0.705-0.133
			C11.004,11.294,11.214,11.01,11.427,10.847z"/>
		<path d="M15.66,10.966c-0.209,0.026-0.433,0.043-0.66,0.057c0-0.007,0-0.016,0-0.023c0-0.27-0.013-0.662-0.026-1.097
			c-0.028-0.865-0.07-2.172,0.013-2.519c0.064-0.269-0.101-0.538-0.37-0.603c-0.27-0.063-0.538,0.103-0.603,0.37
			c-0.106,0.443-0.083,1.434-0.04,2.784C13.987,10.357,14,10.739,14,11c0,0.011,0.001,0.028,0.001,0.04
			c-0.149-0.004-0.295-0.01-0.43-0.021c-0.278-0.017-0.516,0.184-0.538,0.459c-0.021,0.276,0.184,0.517,0.459,0.539
			c0.171,0.013,0.364,0.016,0.553,0.02c0.067,1.053,0.189,2.339,0.196,2.414c0.024,0.259,0.242,0.453,0.497,0.453
			c0.016,0,0.032,0,0.048-0.002c0.275-0.026,0.477-0.27,0.45-0.545c-0.001-0.018-0.122-1.294-0.19-2.332
			c0.254-0.015,0.503-0.036,0.737-0.065c0.274-0.034,0.469-0.283,0.435-0.558C16.184,11.127,15.934,10.926,15.66,10.966z"/>
		<path d="M19.394,10.753c-0.267-0.023-0.519,0.174-0.546,0.449c-0.156,1.599-0.673,2.081-1.046,2.251
			c-0.357-0.62-0.273-1.702-0.2-2.114c0.048-0.272-0.132-0.532-0.404-0.581c-0.267-0.047-0.531,0.131-0.58,0.402
			c-0.041,0.226-0.369,2.226,0.653,3.227c0.095,0.093,0.221,0.143,0.35,0.143c0.036,0,0.072-0.004,0.108-0.012
			c1.221-0.27,1.933-1.354,2.114-3.221C19.87,11.024,19.669,10.781,19.394,10.753z"/>
		<path d="M23.975,10.863c-0.191-1.049-1.064-1.788-1.946-1.648c-0.781,0.123-2.502,1.106-1.627,7.532
			c0.034,0.251,0.249,0.433,0.495,0.433c0.022,0,0.045-0.001,0.068-0.004c0.274-0.038,0.465-0.29,0.428-0.562
			c-0.133-0.979-0.202-1.816-0.223-2.531C23.549,13.456,24.179,11.982,23.975,10.863z M21.175,13.042
			c0.091-2.136,0.693-2.79,1.012-2.84c0.02-0.003,0.04-0.005,0.06-0.005c0.316,0,0.661,0.382,0.745,0.845
			C23.116,11.729,22.684,12.573,21.175,13.042z"/>
	</g>
</g>
<g id="Frames-24px">
	<rect fill="none" width="24" height="24"/>
</g>
</svg>
