<?xml version="1.0" encoding="utf-8"?>
<!-- Generator: Adobe Illustrator 19.2.1, SVG Export Plug-In . SVG Version: 6.00 Build 0)  -->
<svg version="1.1" xmlns="http://www.w3.org/2000/svg" xmlns:xlink="http://www.w3.org/1999/xlink" x="0px" y="0px" width="24px"
	 height="24px" viewBox="0 0 24 24" enable-background="new 0 0 24 24" xml:space="preserve">
<g id="Filled_Icons">
	<path d="M12,0C5.383,0,0,5.383,0,12s5.383,12,12,12s12-5.383,12-12S18.617,0,12,0z M13.787,18h-1.191C10.471,18,8,16.162,8,13.792
		V6c0-0.276,0.224-0.5,0.5-0.5S9,5.724,9,6v7.792C9,15.411,10.781,17,12.596,17h1.191c1.372,0,2.477-1.641,2.477-3s-1.105-3-2.477-3
		H10c-0.276,0-0.5-0.224-0.5-0.5S9.724,10,10,10h3.787c1.958,0,3.477,2.15,3.477,4S15.745,18,13.787,18z"/>
</g>
<g id="Frames-24px">
	<rect fill="none" width="24" height="24"/>
</g>
</svg>
