<?xml version="1.0" encoding="utf-8"?>
<!-- Generator: Adobe Illustrator 19.2.1, SVG Export Plug-In . SVG Version: 6.00 Build 0)  -->
<svg version="1.1" xmlns="http://www.w3.org/2000/svg" xmlns:xlink="http://www.w3.org/1999/xlink" x="0px" y="0px" width="24px"
	 height="24px" viewBox="0 0 24 24" enable-background="new 0 0 24 24" xml:space="preserve">
<g id="Filled_Icons">
	<g>
		<path d="M12,0C5.383,0,0,5.383,0,12s5.383,12,12,12s12-5.383,12-12S18.617,0,12,0z M20.388,14.879
			c-0.392,0.374-2.554,2.242-7.1,2.784c-0.178,0.167-0.392,0.314-0.639,0.443c-1.102,0.572-2.347,0.928-3.248,0.928
			c-1.184,0-1.551-0.594-1.665-0.947c-0.259-0.812,0.365-1.572,1.186-2.057c-0.273-0.432-0.448-0.904-0.498-1.353
			c-0.046-0.416-0.041-0.834,0.013-1.219c-0.03-0.003-0.06-0.006-0.09-0.011c-0.13,0.484-0.433,0.864-0.935,0.864
			c-0.216,0-0.441-0.08-0.669-0.236c-0.412-0.282-0.497-0.618-0.496-0.849c0.002-0.284,0.131-0.532,0.311-0.745
			c-0.632,0.096-1.179-0.206-1.426-0.769c-0.273-0.626-0.113-1.419,0.398-1.973C5.982,9.252,6.5,8.827,6.883,8.538
			c-0.381-0.34-0.9-0.877-1.381-1.622C5.227,6.582,5.171,6.068,5.386,5.616C5.74,4.871,6.72,4.606,7.462,5.119
			c0.266-0.69,0.707-1.083,1.252-1.083c0.023,0,0.128,0.008,0.151,0.011c0.334,0.045,0.601,0.199,0.79,0.456
			c0.387,0.524,0.445,1.471,0.189,3.216c1.598,0.335,4.897,1.461,5.287,5.085c0.223,0.137,1.685,1.138,1.941,1.138
			c0.194,0,2.407-0.788,2.591-0.854c0.524-0.189,1.11-0.007,1.282,0.424C21.105,13.913,20.918,14.373,20.388,14.879z"/>
		<path d="M7.222,6.195C7.118,6.108,7.011,6.026,6.902,5.948C6.797,5.873,6.695,5.834,6.603,5.834c-0.158,0-0.268,0.114-0.315,0.212
			C6.253,6.12,6.228,6.228,6.31,6.329c0.372,0.574,0.763,1.007,1.074,1.307C7.21,7.215,7.169,6.628,7.222,6.195z"/>
		<path d="M9.281,11.775c0.15-0.105,0.326-0.161,0.509-0.161c0.496,0,0.95,0.413,0.992,0.901c0.009,0.107-0.003,0.224-0.043,0.337
			c0.104-0.15,0.227-0.298,0.372-0.44c0.671-0.658,1.631-0.743,2.895-0.2c-0.735-2.741-3.762-3.43-4.749-3.584
			C9.014,8.59,8.775,8.369,8.775,8.123C8.777,8.112,8.779,8.102,8.78,8.09C8.523,8.304,8.3,8.321,8.141,8.302
			c0.046,0.078,0.072,0.167,0.071,0.26c0,0.169-0.085,0.326-0.226,0.418c-0.01,0.006-0.984,0.644-1.722,1.439
			c-0.282,0.306-0.31,0.677-0.216,0.892c0.134,0.304,0.316,0.21,0.502,0.145c0.773-0.269,1.53-1.425,1.765-1.985
			C8.39,9.29,8.564,9.17,8.76,9.164c0.232,0,0.378,0.104,0.464,0.279c0.377,0.765,0.487,1.878-0.964,2.977
			c0.116,0.022,0.272,0.045,0.457,0.061C8.863,12.172,9.056,11.932,9.281,11.775z"/>
		<path d="M8.851,5.097c-0.018-0.024-0.035-0.048-0.122-0.06H8.727c-0.093,0-0.307,0.23-0.436,0.787c0.234,0.24,0.5,0.558,0.667,0.9
			C9.061,5.602,8.946,5.226,8.851,5.097z"/>
		<path d="M9.964,13.427c-0.167,0.029-0.341,0.048-0.52,0.06c-0.059,0.33-0.068,0.702-0.026,1.08
			c0.037,0.338,0.194,0.716,0.434,1.055c0.218-0.066,0.435-0.112,0.645-0.138c-0.255-0.682-0.35-1.545,0.077-2.357
			C10.442,13.266,10.246,13.378,9.964,13.427z"/>
		<path d="M18.201,14.652c-1.343,0.516-1.576,0.333-3.083-0.673c-0.181,0.648-0.806,1.127-1.338,1.391
			c0.128,0.34,0.201,0.764,0.121,1.198c3.816-0.617,5.593-2.219,5.796-2.412c0.029-0.029,0.101-0.054-0.174,0.032
			C19.239,14.277,18.886,14.388,18.201,14.652z"/>
		<path d="M8.689,17.781c0.072,0.228,0.522,0.253,0.712,0.253c0.481,0,1.113-0.136,1.759-0.367
			c-0.589-0.143-1.132-0.434-1.589-0.856C8.971,17.124,8.616,17.552,8.689,17.781z"/>
		<path d="M14.169,13.602c0.001-0.068,0.001-0.135-0.001-0.199c-1.14-0.622-1.899-0.729-2.356-0.278
			c-1.078,1.059-0.246,2.353-0.068,2.603c0.122,0.171,0.124,0.4,0.004,0.574c-0.119,0.174-0.333,0.255-0.538,0.2
			c-0.12-0.031-0.257-0.045-0.417-0.039c0.322,0.174,0.729,0.306,1.225,0.306c0.298-0.016,0.543-0.034,0.772-0.057
			c0.366-0.588-0.088-1.258-0.094-1.266c-0.125-0.149-0.162-0.368-0.08-0.543c0.082-0.177,0.248-0.301,0.442-0.301
			C13.249,14.562,14.169,14.087,14.169,13.602z"/>
	</g>
</g>
<g id="Frames-24px">
	<rect fill="none" width="24" height="24"/>
</g>
</svg>
