<?xml version="1.0" encoding="utf-8"?>
<!-- Generator: Adobe Illustrator 19.2.1, SVG Export Plug-In . SVG Version: 6.00 Build 0)  -->
<svg version="1.1" xmlns="http://www.w3.org/2000/svg" xmlns:xlink="http://www.w3.org/1999/xlink" x="0px" y="0px" width="24px"
	 height="24px" viewBox="0 0 24 24" enable-background="new 0 0 24 24" xml:space="preserve">
<g id="Filled_Icons">
	<path d="M12,0C5.383,0,0,5.383,0,12s5.383,12,12,12s12-5.383,12-12S18.617,0,12,0z M8.922,6.336c0.987,0,1.776,0.789,1.776,1.777
		c0,0.975-0.789,1.773-1.776,1.773c-0.976,0-1.775-0.799-1.775-1.773C7.147,7.125,7.946,6.336,8.922,6.336z M19.59,12.998
		c-1.413-0.449-2.867-0.688-4.633-0.739c-4.01-0.126-6.128,1.215-7.883,3.033c-1.061,1.102-2.494,0.187-1.984-0.936
		c0.634-1.412,3.832-2.617,6.211-2.908c2.898-0.343,6.283,0.062,8.518,1.269C20.129,12.894,19.974,13.121,19.59,12.998z"/>
</g>
<g id="Frames-24px">
	<rect fill="none" width="24" height="24"/>
</g>
</svg>
