<?xml version="1.0" encoding="utf-8"?>
<!-- Generator: Adobe Illustrator 19.2.1, SVG Export Plug-In . SVG Version: 6.00 Build 0)  -->
<svg version="1.1" xmlns="http://www.w3.org/2000/svg" xmlns:xlink="http://www.w3.org/1999/xlink" x="0px" y="0px" width="24px"
	 height="24px" viewBox="0 0 24 24" enable-background="new 0 0 24 24" xml:space="preserve">
<g id="Filled_Icons">
	<path d="M12,0C5.383,0,0,5.383,0,12s5.383,12,12,12s12-5.383,12-12S18.617,0,12,0z M6.5,6.721C6.5,6.047,7.08,5.5,7.755,5.5h8.552
		c0.674,0,1.193,0.547,1.193,1.221v5.52c-0.277,0.104-0.601,0.212-0.97,0.314c0.296-0.447,0.471-0.982,0.471-1.557
		c0-1.562-1.27-2.834-2.833-2.834c-0.858,0-1.618,0.391-2.138,0.996c-0.52-0.606-1.28-0.996-2.138-0.996
		c-1.562,0-2.833,1.271-2.833,2.834c0,0.57,0.173,1.102,0.465,1.547c-0.391-0.107-0.732-0.221-1.024-0.327V6.721z M16.001,10.998
		c0,1.011-0.821,1.832-1.833,1.832c-1.012,0-1.832-0.821-1.832-1.832c0-1.012,0.82-1.834,1.832-1.834
		C15.18,9.164,16.001,9.986,16.001,10.998z M11.725,10.998c0,1.011-0.82,1.832-1.832,1.832S8.06,12.009,8.06,10.998
		c0-1.012,0.821-1.834,1.833-1.834S11.725,9.986,11.725,10.998z M16.357,15.51c1.369,2.448-0.783,3.99-2.131,3.99
		c-2.443,0-1.222-3.344-2.167-3.344S12.336,19.5,9.893,19.5c-1.348,0-3.499-1.542-2.131-3.99c0.437-0.782-2.473-1.562-2.473-2.699
		c0.66,0.284,2.65,1.137,5.08,1.134c1.402-0.001,1.691,0.663,1.691,0.663s0.289-0.664,1.69-0.663
		c2.43,0.003,4.301-0.831,4.961-1.114C18.711,13.965,15.921,14.727,16.357,15.51z"/>
</g>
<g id="Frames-24px">
	<rect fill="none" width="24" height="24"/>
</g>
</svg>
