<?xml version="1.0" encoding="utf-8"?>
<!-- Generator: Adobe Illustrator 19.2.1, SVG Export Plug-In . SVG Version: 6.00 Build 0)  -->
<svg version="1.1" xmlns="http://www.w3.org/2000/svg" xmlns:xlink="http://www.w3.org/1999/xlink" x="0px" y="0px" width="24px"
	 height="24px" viewBox="0 0 24 24" enable-background="new 0 0 24 24" xml:space="preserve">
<g id="Filled_Icons">
	<path d="M15.121,4.047c-1.462-0.983-2.726-1.833-3.021-2.691c-0.071-0.207-0.257-0.364-0.49-0.337
		c-0.22,0.007-0.409,0.157-0.466,0.369c-0.25,0.927-1.52,1.958-2.991,3.15C5.412,6.763,2,9.53,2,14c0,5.515,4.486,10,10,10
		s10-4.485,10-10C22,8.672,18.024,5.998,15.121,4.047z M16.055,21.042c-0.969,0.655-1.883,0.88-2.683,0.88
		c-1.356,0-2.38-0.648-2.769-0.938c-0.222-0.165-0.268-0.478-0.102-0.699c0.165-0.221,0.478-0.268,0.699-0.103
		c0.485,0.361,2.227,1.428,4.295,0.031c0.227-0.155,0.54-0.094,0.694,0.135C16.344,20.577,16.284,20.888,16.055,21.042z
		 M12.294,18.952c0.491-0.768,1.23-1.191,2.081-1.191c0.583,0,1.1,0.363,1.496,1.05c0.138,0.24,0.056,0.545-0.184,0.683
		c-0.239,0.139-0.545,0.056-0.683-0.184c-0.095-0.165-0.347-0.549-0.629-0.549c-0.638,0-1.025,0.396-1.238,0.729
		c-0.096,0.149-0.257,0.231-0.422,0.231c-0.092,0-0.185-0.025-0.269-0.079C12.214,19.494,12.146,19.185,12.294,18.952z
		 M18.064,18.754c-0.865,0.147-1.901-0.902-2.546-1.502c-0.414-0.385-1.041-0.968-1.261-1.007c-0.218,0.025-1.067,0.56-1.686,0.95
		c-1.294,0.816-2.761,1.74-3.791,1.74c-2.308,0-3.34-1.599-3.34-3.183c0-1.931,1.448-3.929,3.872-3.929
		c1.224,0,2.386,0.771,3.411,1.452c0.578,0.383,1.233,0.818,1.549,0.818c0.403,0,1.19-0.45,1.885-0.847
		c0.902-0.516,1.755-1.003,2.454-1.003c0.539,0,0.989,0.424,1.236,1.162C20.638,15.778,19.064,18.57,18.064,18.754z"/>
</g>
<g id="Frames-24px">
	<rect fill="none" width="24" height="24"/>
</g>
</svg>
