<?xml version="1.0" encoding="utf-8"?>
<!-- Generator: Adobe Illustrator 19.2.1, SVG Export Plug-In . SVG Version: 6.00 Build 0)  -->
<svg version="1.1" xmlns="http://www.w3.org/2000/svg" xmlns:xlink="http://www.w3.org/1999/xlink" x="0px" y="0px" width="24px"
	 height="24px" viewBox="0 0 24 24" enable-background="new 0 0 24 24" xml:space="preserve">
<g id="Filled_Icons">
	<g>
		<polygon points="9.207,7 8,8.207 8,12.793 9.207,14 15.751,14 16,13.671 16,8.207 14.793,7 		"/>
		<path d="M12,0C5.383,0,0,5.383,0,12s5.383,12,12,12s12-5.383,12-12S18.617,0,12,0z M17,14.007v3.199L15.207,19H8.763l-1.274-1.559
			l0.773-0.633L9.237,18h5.556L16,16.793V15H8.793L7,13.207V7.793L8.793,6h6.414L17,7.793v4.557l1.977-2.611l0.797,0.604L17,14.007z
			"/>
	</g>
</g>
<g id="Frames-24px">
	<rect fill="none" width="24" height="24"/>
</g>
</svg>
