<?xml version="1.0" encoding="utf-8"?>
<!-- Generator: Adobe Illustrator 19.2.1, SVG Export Plug-In . SVG Version: 6.00 Build 0)  -->
<svg version="1.1" xmlns="http://www.w3.org/2000/svg" xmlns:xlink="http://www.w3.org/1999/xlink" x="0px" y="0px" width="24px"
	 height="24px" viewBox="0 0 24 24" enable-background="new 0 0 24 24" xml:space="preserve">
<g id="Filled_Icons">
	<path d="M12,0C5.383,0,0,5.383,0,12s5.383,12,12,12s12-5.383,12-12S18.617,0,12,0z M17.271,18.898
		c-0.387,0.249-0.819-0.031-1.288-0.071c-1.162-0.096-2.639,0-4.08,0c-1.396,0-2.828-0.051-4.008,0
		c-0.609,0.026-1.266,0.233-1.719-0.071c-0.13-1.045,1.159-0.506,1.647-0.993c0.086-0.084,0.312-0.688,0.358-1.064
		c0.134-1.073,0-2.85,0-4.61c0-1.667,0.113-3.403,0-4.539C8.139,7.122,7.95,6.489,7.822,6.345c-0.391-0.44-1.509-0.102-1.359-0.922
		C6.685,5.055,7.227,5.21,7.537,5.21c2.597,0,6.296,0.159,8.73-0.142c0.235-0.03,0.609-0.201,0.859,0.142
		c0.092,0.347-0.119,0.657-0.143,1.135c-0.031,0.639,0.345,2.023-0.43,1.844c-0.385-0.087-0.215-0.844-0.43-1.206
		c-0.396-0.665-2.466-0.775-3.793-0.78C11.573,6.2,10.455,6.217,9.97,6.7c-0.113,1.309-0.124,3.09,0,4.398
		c0.896,0.163,2.578,0.254,3.65,0.142c0.273-0.029,0.674-0.084,0.858-0.212c0.578-0.405,0.158-1.127,0.716-1.561
		c0.711,0.01,0.459,0.766,0.43,1.42c-0.021,0.482-0.022,1.07,0,1.488c0.036,0.649,0.323,1.346-0.214,1.49
		c-0.783-0.265-0.399-1.075-1.074-1.49c-1.011-0.618-2.862-0.037-4.295-0.141c-0.243,0.717-0.143,1.616-0.143,2.554
		c0,0.83-0.198,1.834,0.143,2.481c0.405,0.769,2.381,0.656,3.508,0.567c1.313-0.102,2.693-0.367,3.078-1.135
		c0.318-0.633-0.061-1.12,0.5-1.631c1.318,0.25,0.412,1.429,0.287,2.41C17.348,17.998,17.569,18.513,17.271,18.898z"/>
</g>
<g id="Frames-24px">
	<rect fill="none" width="24" height="24"/>
</g>
</svg>
