<?xml version="1.0" encoding="utf-8"?>
<!-- Generator: Adobe Illustrator 19.2.1, SVG Export Plug-In . SVG Version: 6.00 Build 0)  -->
<svg version="1.1" xmlns="http://www.w3.org/2000/svg" xmlns:xlink="http://www.w3.org/1999/xlink" x="0px" y="0px" width="24px"
	 height="24px" viewBox="0 0 24 24" enable-background="new 0 0 24 24" xml:space="preserve">
<g id="Filled_Icons">
	<g>
		<path d="M12,8.911v1c1.431,0,2.594,1.164,2.594,2.593h1C15.594,10.523,13.981,8.911,12,8.911z"/>
		<path d="M12,0.004c-6.617,0-12,5.383-12,12s5.383,12,12,12s12-5.383,12-12S18.617,0.004,12,0.004z M5.5,6.5h2v1h-2V6.5z
			 M5.5,16.504c-0.553,0-1-0.448-1-1v-6c0-0.552,0.447-1,1-1h2.737c-1.066,1.004-1.737,2.423-1.737,4c0,1.577,0.671,2.996,1.737,4
			H5.5z M12,17.004c-2.485,0-4.5-2.015-4.5-4.5c0-2.486,2.015-4.5,4.5-4.5s4.5,2.014,4.5,4.5C16.5,14.99,14.485,17.004,12,17.004z
			 M19.5,15.504c0,0.552-0.447,1-1,1h-2.737c1.066-1.004,1.737-2.423,1.737-4c0-1.577-0.671-2.996-1.737-4H18.5c0.553,0,1,0.448,1,1
			V15.504z"/>
	</g>
</g>
<g id="Frames-24px">
	<rect fill="none" width="24" height="24"/>
</g>
</svg>
