<?xml version="1.0" encoding="utf-8"?>
<!-- Generator: Adobe Illustrator 19.2.1, SVG Export Plug-In . SVG Version: 6.00 Build 0)  -->
<svg version="1.1" xmlns="http://www.w3.org/2000/svg" xmlns:xlink="http://www.w3.org/1999/xlink" x="0px" y="0px" width="24px"
	 height="24px" viewBox="0 0 24 24" enable-background="new 0 0 24 24" xml:space="preserve">
<g id="Filled_Icons">
	<g>
		<ellipse cx="16.828" cy="10.279" rx="0.5" ry="0.496"/>
		<path d="M18.656,6.277c-2.691,0-4.904,1.608-6.369,3.201c-1.639-2.293-3.852-3.486-6.192-3.281
			c-3.058,0.431-5.365,2.197-5.637,5.494c-0.144,1.766,0.351,4.824,4.745,4.824c2.706,0,4.919-1.609,6.385-3.201
			c1.639,2.293,3.837,3.504,6.192,3.297c3.041-0.43,5.349-2.197,5.636-5.51C23.559,9.35,23.066,6.277,18.656,6.277z M10.449,11.519
			c-0.724,1.275-2.552,1.587-3.983,1.614c-0.171,0-0.156,0.115-0.114,0.256c0.086,0.256,0.512,0.582,0.667,0.724
			c0.185,0.169,0.069,0.227-0.1,0.283c-0.837,0.283-1.942,0.128-2.735-0.651c-0.682-0.682-1.305-2.127-0.795-3.615
			c0.398-1.177,1.716-2.014,3.077-1.887c0.765,0.071,1.403,0.412,1.87,0.852c0.809,0.752,1.433,1.56,2.027,2.041
			C10.505,11.248,10.547,11.348,10.449,11.519z M19.564,13.615c-0.709,0.695-1.645,0.908-2.453,0.737
			c-0.184-0.042-0.439-0.099-0.439-0.296c-0.014-0.328,0.043-1.079-0.043-1.758c-0.014-0.129-0.155-0.199-0.297-0.143
			c-1.247,0.426-2.396,0.368-3.033-0.752c-0.1-0.17-0.058-0.269,0.085-0.384c0.595-0.481,1.219-1.289,2.026-2.04
			c0.469-0.439,1.105-0.78,1.871-0.851c1.361-0.142,2.68,0.694,3.078,1.87C20.867,11.504,20.244,12.949,19.564,13.615z"/>
		<circle cx="6.918" cy="10.398" r="0.5"/>
	</g>
</g>
<g id="Frames-24px">
	<rect fill="none" width="24" height="24"/>
</g>
</svg>
