<?xml version="1.0" encoding="utf-8"?>
<!-- Generator: Adobe Illustrator 19.2.1, SVG Export Plug-In . SVG Version: 6.00 Build 0)  -->
<svg version="1.1" xmlns="http://www.w3.org/2000/svg" xmlns:xlink="http://www.w3.org/1999/xlink" x="0px" y="0px" width="24px"
	 height="24px" viewBox="0 0 24 24" enable-background="new 0 0 24 24" xml:space="preserve">
<g id="Filled_Icons">
	<g>
		<ellipse cx="12" cy="11.078" rx="4.2" ry="2.777"/>
		<path d="M12,0C5.383,0,0,5.383,0,12s5.383,12,12,12s12-5.383,12-12S18.617,0,12,0z M16.514,15.378
			c-1.246,0.823-2.85,1.278-4.514,1.278c-0.619,0-1.229-0.063-1.815-0.184L6.4,18.1l1.068-2.732C5.9,14.322,5,12.761,5,11.078
			c0-1.688,0.905-3.256,2.485-4.301C8.732,5.953,10.335,5.5,12,5.5c1.664,0,3.268,0.453,4.514,1.277
			C18.094,7.822,19,9.391,19,11.078S18.094,14.332,16.514,15.378z"/>
	</g>
</g>
<g id="Frames-24px">
	<rect fill="none" width="24" height="24"/>
</g>
</svg>
