<?xml version="1.0" encoding="utf-8"?>
<!-- Generator: Adobe Illustrator 19.2.1, SVG Export Plug-In . SVG Version: 6.00 Build 0)  -->
<svg version="1.1" xmlns="http://www.w3.org/2000/svg" xmlns:xlink="http://www.w3.org/1999/xlink" x="0px" y="0px" width="24px"
	 height="24px" viewBox="0 0 24 24" enable-background="new 0 0 24 24" xml:space="preserve">
<g id="Filled_Icons">
	<g>
		<path d="M22.526,14.442c0.163-0.75,0.249-1.524,0.249-2.321c0-5.973-4.842-10.816-10.815-10.816c-0.631,0-1.248,0.056-1.851,0.158
			C9.144,0.854,8,0.5,6.773,0.5C3.309,0.5,0.5,3.31,0.5,6.774c0,1.158,0.315,2.241,0.862,3.172c-0.144,0.703-0.219,1.43-0.219,2.175
			c0,5.974,4.843,10.815,10.816,10.815c0.677,0,1.338-0.062,1.979-0.18c0.885,0.474,1.894,0.743,2.966,0.743
			c3.464,0,6.272-2.808,6.272-6.272C23.178,16.228,22.943,15.282,22.526,14.442z M11.93,19.552c-4.792,0-6.346-2.815-6.346-4.349
			c0-0.394,0.152-0.739,0.451-1.02c0.296-0.279,0.676-0.42,1.129-0.42c0.372,0,0.693,0.111,0.953,0.331
			c1.019,0.868,0.715,3.011,3.732,3.011c1.34,0,2.979-0.577,2.979-1.918c0-1.525-2.033-1.833-3.556-2.155
			c-2.787-0.593-5.393-1.522-5.393-4.375c0-2.937,2.939-4.146,6.008-4.146c3.987,0,5.699,2.106,5.699,3.638
			c0,0.753-0.631,1.508-1.555,1.508c-0.399,0-0.713-0.099-0.931-0.29C14.096,8.47,14.31,6.89,11.68,6.89
			c-0.774,0-1.406,0.155-1.873,0.463C9.016,7.87,8.993,8.579,9.352,9.019c0.583,0.719,2.106,0.985,3.012,1.194
			c3.306,0.71,5.9,1.57,5.9,4.664C18.264,18.042,15.282,19.552,11.93,19.552z"/>
	</g>
</g>
<g id="Frames-24px">
	<rect fill="none" width="24" height="24"/>
</g>
</svg>
