<?xml version="1.0" encoding="utf-8"?>
<!-- Generator: Adobe Illustrator 19.2.1, SVG Export Plug-In . SVG Version: 6.00 Build 0)  -->
<svg version="1.1" xmlns="http://www.w3.org/2000/svg" xmlns:xlink="http://www.w3.org/1999/xlink" x="0px" y="0px" width="24px"
	 height="24px" viewBox="0 0 24 24" enable-background="new 0 0 24 24" xml:space="preserve">
<g id="Filled_Icons">
	<path d="M12,0C5.383,0,0,5.383,0,12s5.383,12,12,12s12-5.383,12-12S18.617,0,12,0z M5.5,10.456L9.801,12.7L5.5,15.262V10.456z
		 M18.5,17.5h-13v-1.074l5.343-3.183L12,13.847l1.143-0.596L18.5,16.4V17.5z M18.5,15.241l-4.312-2.535l4.312-2.251V15.241z
		 M18.5,8.196l-6.5,3.39l-6.5-3.39V6.5h13V8.196z"/>
</g>
<g id="Frames-24px">
	<rect fill="none" width="24" height="24"/>
</g>
</svg>
