<?xml version="1.0" encoding="utf-8"?>
<!-- Generator: Adobe Illustrator 19.2.1, SVG Export Plug-In . SVG Version: 6.00 Build 0)  -->
<svg version="1.1" xmlns="http://www.w3.org/2000/svg" xmlns:xlink="http://www.w3.org/1999/xlink" x="0px" y="0px" width="24px"
	 height="24px" viewBox="0 0 24 24" enable-background="new 0 0 24 24" xml:space="preserve">
<g id="Filled_Icons">
	<path d="M12,0C5.383,0,0,5.383,0,12s5.383,12,12,12s12-5.383,12-12S18.617,0,12,0z M18.049,17.367
		C17.994,17.451,17.9,17.5,17.801,17.5H13v-1.253l1.25-0.83c0.231-0.153,0.293-0.463,0.141-0.693
		c-0.154-0.231-0.466-0.292-0.693-0.14L13,15.046v-0.62l1.198-0.803c0.229-0.154,0.291-0.464,0.137-0.694
		c-0.153-0.23-0.467-0.29-0.693-0.137L13,13.223V12.5c0-0.276-0.224-0.5-0.5-0.5S12,12.224,12,12.5v1.475l-0.776-0.397
		c-0.245-0.124-0.546-0.028-0.673,0.218c-0.126,0.246-0.028,0.547,0.218,0.673L12,15.098V17.5H7.012c-0.1,0-0.193-0.049-0.249-0.133
		c-0.056-0.085-0.064-0.19-0.024-0.285l5.404-12.402C12.189,4.57,12.297,4.5,12.416,4.5c0.118,0,0.226,0.07,0.273,0.18l5.385,12.402
		C18.113,17.177,18.104,17.283,18.049,17.367z"/>
</g>
<g id="Frames-24px">
	<rect fill="none" width="24" height="24"/>
</g>
</svg>
