<?xml version="1.0" encoding="utf-8"?>
<!-- Generator: Adobe Illustrator 19.2.1, SVG Export Plug-In . SVG Version: 6.00 Build 0)  -->
<svg version="1.1" xmlns="http://www.w3.org/2000/svg" xmlns:xlink="http://www.w3.org/1999/xlink" x="0px" y="0px" width="24px"
	 height="24px" viewBox="0 0 24 24" enable-background="new 0 0 24 24" xml:space="preserve">
<g id="Filled_Icons">
	<g>
		<path d="M23.996,11.039C23.088,3.783,17.561-0.053,11.693,0.007c-1.099,0.185-2.467,0.517-3.302,1.466
			C7.82,2.119,7.423,3.202,7.369,3.875c-0.237,2.943,1.928,4.077,3.725,5.019c6.237,3.27,7.028,3.518,7.996,4.568
			c1.294,1.403,1.837,3.056,1.71,5.202c-0.012,0.206,0.103,0.398,0.29,0.484c0.184,0.084,0.406,0.051,0.557-0.096
			c0.309-0.299,0.611-0.717,0.899-1.242C24.031,15.09,24,12.828,23.996,11.039z"/>
		<path d="M11.577,12.34c-1.198-0.614-4.569-2.264-5.468-3.163C4.294,7.36,4.324,5.182,4.324,4.095c0-0.194-0.113-0.372-0.29-0.454
			C3.857,3.559,3.649,3.587,3.501,3.715C2.469,4.588,1.516,6.019,0.887,7.643c-1.831,4.721-0.747,9.182,2.479,12.693
			c3.17,3.447,9.567,5.268,12.815,1.847c0.546-0.575,2.277-2.646,1.602-5.104C17.227,15.05,15.132,14.162,11.577,12.34z
			 M15.456,21.494c-2.844,2.997-8.642,1.111-11.353-1.835C2.162,17.547,1.146,15.193,1,12.494c-0.001-1-0.062-2.216,0.82-4.49
			c0.399-1.031,0.935-1.971,1.532-2.705C3.368,5.57,3.39,5.791,3.421,5.975c0.235,1.404,1.013,2.939,1.981,3.908
			c1,1,2.835,1.868,5.719,3.347c3.465,1.776,5.273,2.565,5.698,4.114C17.355,19.297,15.911,21.015,15.456,21.494z"/>
	</g>
</g>
<g id="Frames-24px">
	<rect fill="none" width="24" height="24"/>
</g>
</svg>
