<?xml version="1.0" encoding="utf-8"?>
<!-- Generator: Adobe Illustrator 19.2.1, SVG Export Plug-In . SVG Version: 6.00 Build 0)  -->
<svg version="1.1" xmlns="http://www.w3.org/2000/svg" xmlns:xlink="http://www.w3.org/1999/xlink" x="0px" y="0px" width="24px"
	 height="24px" viewBox="0 0 24 24" enable-background="new 0 0 24 24" xml:space="preserve">
<g id="Filled_Icons">
	<g>
		<path d="M12.583,11.659c-1.217,0-2.627,1.717-3.131,3.257c-0.4,1.281-0.434,2.336-0.089,2.815
			c0.164,0.228,0.433,0.341,0.822,0.349c0.469,0,0.917-0.463,1.371-0.991c0.172-0.401,1.049-2.464,1.922-4.661
			C13.35,12.023,12.891,11.659,12.583,11.659z"/>
		<path d="M12,0C5.383,0,0,5.383,0,12s5.383,12,12,12s12-5.383,12-12S18.617,0,12,0z M12.087,5.836l0.826-0.217
			c0.122-0.031,0.246-0.156,0.278-0.279l0.216-0.829c0.031-0.121,0.083-0.121,0.115,0l0.216,0.829
			c0.032,0.123,0.156,0.248,0.278,0.279l0.826,0.217c0.121,0.031,0.121,0.084,0,0.115l-0.826,0.217
			c-0.122,0.031-0.246,0.157-0.278,0.279l-0.216,0.828c-0.032,0.123-0.084,0.123-0.115,0l-0.216-0.828
			c-0.032-0.122-0.156-0.248-0.278-0.279l-0.826-0.217C11.966,5.92,11.966,5.867,12.087,5.836z M7.348,10.83
			c-0.084-0.324-0.418-0.658-0.741-0.744L4.399,9.509c-0.323-0.086-0.323-0.224,0-0.31l2.207-0.578
			c0.324-0.086,0.657-0.42,0.741-0.743l0.577-2.216c0.084-0.323,0.223-0.323,0.308,0l0.576,2.216
			c0.085,0.323,0.418,0.657,0.742,0.743l2.207,0.578c0.323,0.086,0.323,0.224,0,0.31l-2.207,0.577
			c-0.324,0.086-0.657,0.42-0.742,0.744c0,0-0.743,1.626-0.948,1.969L7.348,10.83z M15.742,17.051
			c-1.118,1.243-1.994,2.013-2.903,2.013c-0.339,0-0.656-0.132-0.894-0.37c-0.076-0.078-0.158-0.18-0.231-0.312
			c-0.411,0.377-0.921,0.699-1.538,0.699c-0.9-0.018-1.379-0.425-1.623-0.764c-0.698-0.967-0.414-2.549-0.054-3.704
			c0.524-1.599,2.182-3.953,4.084-3.953c0.478,0,0.972,0.255,1.34,0.636c0.577-1.491,1.096-2.924,1.334-3.822
			c0.07-0.266,0.341-0.426,0.611-0.354c0.267,0.07,0.426,0.344,0.355,0.611c-0.669,2.517-3.35,8.822-3.735,9.725
			c0.011,0.244,0.07,0.436,0.167,0.533c0.05,0.051,0.11,0.075,0.184,0.075c0.453,0,1.099-0.503,2.159-1.681
			c0.187-0.206,0.502-0.222,0.707-0.037C15.91,16.529,15.927,16.847,15.742,17.051z M19.856,14.25l-1.309,0.344
			c-0.192,0.05-0.39,0.249-0.439,0.441l-0.343,1.312c-0.051,0.192-0.131,0.192-0.182,0l-0.343-1.312
			c-0.05-0.192-0.247-0.392-0.439-0.441l-1.309-0.344c-0.191-0.051-0.191-0.131,0-0.182l1.309-0.343
			c0.191-0.052,0.39-0.248,0.439-0.442l0.343-1.312c0.051-0.191,0.131-0.191,0.182,0l0.343,1.312
			c0.05,0.194,0.247,0.391,0.439,0.442l1.309,0.343C20.048,14.119,20.048,14.199,19.856,14.25z"/>
	</g>
</g>
<g id="Frames-24px">
	<rect fill="none" width="24" height="24"/>
</g>
</svg>
