<?xml version="1.0" encoding="utf-8"?>
<!-- Generator: Adobe Illustrator 19.2.1, SVG Export Plug-In . SVG Version: 6.00 Build 0)  -->
<svg version="1.1" xmlns="http://www.w3.org/2000/svg" xmlns:xlink="http://www.w3.org/1999/xlink" x="0px" y="0px" width="24px"
	 height="24px" viewBox="0 0 24 24" enable-background="new 0 0 24 24" xml:space="preserve">
<g id="Filled_Icons">
	<path d="M12,0C5.383,0,0,5.383,0,12s5.383,12,12,12s12-5.383,12-12S18.617,0,12,0z M9.261,5.125c0.337,0,0.608,0.273,0.608,0.609
		c0,0.335-0.271,0.607-0.608,0.607c-0.336,0-0.608-0.273-0.608-0.607C8.652,5.398,8.925,5.125,9.261,5.125z M8.5,10.032
		c0.336,0,0.608,0.273,0.608,0.609c0,0.336-0.273,0.608-0.608,0.608s-0.609-0.273-0.609-0.608C7.891,10.305,8.164,10.032,8.5,10.032
		z M5.608,15.473C5.273,15.473,5,15.199,5,14.865c0-0.337,0.273-0.61,0.608-0.61c0.337,0,0.609,0.273,0.609,0.61
		C6.218,15.199,5.945,15.473,5.608,15.473z M5.608,9.994C5.273,9.994,5,9.723,5,9.385c0-0.336,0.273-0.608,0.608-0.608
		c0.337,0,0.609,0.272,0.609,0.608C6.218,9.723,5.945,9.994,5.608,9.994z M7.891,13.381c0-0.337,0.273-0.609,0.609-0.609
		s0.608,0.272,0.608,0.609c0,0.336-0.273,0.607-0.608,0.607S7.891,13.717,7.891,13.381z M9.261,19.125
		c-0.336,0-0.608-0.273-0.608-0.607c0-0.338,0.273-0.61,0.608-0.61c0.337,0,0.608,0.273,0.608,0.61
		C9.869,18.852,9.598,19.125,9.261,19.125z M10.479,15.967c-0.337,0-0.609-0.273-0.609-0.608c0-0.337,0.273-0.608,0.609-0.608
		c0.336,0,0.608,0.271,0.608,0.608C11.087,15.694,10.814,15.967,10.479,15.967z M10.479,9.271c-0.337,0-0.609-0.273-0.609-0.609
		c0-0.335,0.273-0.607,0.609-0.607c0.336,0,0.608,0.272,0.608,0.607C11.087,8.998,10.814,9.271,10.479,9.271z M14.739,5.125
		c0.336,0,0.608,0.273,0.608,0.609c0,0.335-0.273,0.607-0.608,0.607c-0.337,0-0.608-0.273-0.608-0.607
		C14.131,5.398,14.402,5.125,14.739,5.125z M13.218,15.967c-0.337,0-0.609-0.273-0.609-0.608c0-0.337,0.273-0.608,0.609-0.608
		c0.336,0,0.608,0.271,0.608,0.608C13.826,15.694,13.554,15.967,13.218,15.967z M13.218,9.271c-0.337,0-0.609-0.273-0.609-0.609
		c0-0.335,0.273-0.607,0.609-0.607c0.336,0,0.608,0.272,0.608,0.607C13.826,8.998,13.554,9.271,13.218,9.271z M14.739,19.125
		c-0.337,0-0.608-0.273-0.608-0.607c0-0.338,0.271-0.61,0.608-0.61c0.336,0,0.608,0.273,0.608,0.61
		C15.348,18.852,15.075,19.125,14.739,19.125z M15.195,13.988c-0.336,0-0.608-0.272-0.608-0.607c0-0.337,0.273-0.609,0.608-0.609
		c0.337,0,0.609,0.272,0.609,0.609C15.805,13.717,15.532,13.988,15.195,13.988z M15.195,11.25c-0.336,0-0.608-0.273-0.608-0.608
		c0-0.337,0.273-0.609,0.608-0.609c0.337,0,0.609,0.273,0.609,0.609C15.805,10.977,15.532,11.25,15.195,11.25z M18.391,15.473
		c-0.336,0-0.608-0.274-0.608-0.608c0-0.337,0.273-0.61,0.608-0.61c0.337,0,0.609,0.273,0.609,0.61
		C19,15.199,18.728,15.473,18.391,15.473z M18.391,9.994c-0.336,0-0.608-0.271-0.608-0.609c0-0.336,0.273-0.608,0.608-0.608
		C18.728,8.777,19,9.049,19,9.385C19,9.723,18.728,9.994,18.391,9.994z"/>
</g>
<g id="Frames-24px">
	<rect fill="none" width="24" height="24"/>
</g>
</svg>
