<?xml version="1.0" encoding="utf-8"?>
<!-- Generator: Adobe Illustrator 19.2.1, SVG Export Plug-In . SVG Version: 6.00 Build 0)  -->
<svg version="1.1" xmlns="http://www.w3.org/2000/svg" xmlns:xlink="http://www.w3.org/1999/xlink" x="0px" y="0px" width="24px"
	 height="24px" viewBox="0 0 24 24" enable-background="new 0 0 24 24" xml:space="preserve">
<g id="Filled_Icons">
	<path fill-rule="evenodd" clip-rule="evenodd" d="M23.238,9.688l-0.324-0.254c-0.424-0.332-2.568,0.022-3.146-0.502
		c-0.41-0.377-0.474-1.057-0.597-1.974c-0.23-1.784-0.377-1.876-0.654-2.477c-1.01-2.144-3.749-3.756-5.631-3.981H7.788
		C3.778,0.5,0.5,3.785,0.5,7.795v8.51c0,4.002,3.278,7.281,7.288,7.281h8.376c4.011,0,7.268-3.279,7.291-7.281l0.045-5.895
		C23.417,10.014,23.477,10.18,23.238,9.688z M8,6.5h4c0.828,0,1.5,0.671,1.5,1.5c0,0.83-0.672,1.5-1.5,1.5H8
		C7.172,9.5,6.5,8.83,6.5,8C6.5,7.171,7.172,6.5,8,6.5z M16,17.5H8c-0.828,0-1.5-0.67-1.5-1.5c0-0.829,0.672-1.5,1.5-1.5h8
		c0.828,0,1.5,0.671,1.5,1.5C17.5,16.83,16.828,17.5,16,17.5z"/>
</g>
<g id="Frames-24px">
	<rect fill="none" width="24" height="24"/>
</g>
</svg>
