<?xml version="1.0" encoding="utf-8"?>
<!-- Generator: Adobe Illustrator 19.2.1, SVG Export Plug-In . SVG Version: 6.00 Build 0)  -->
<svg version="1.1" xmlns="http://www.w3.org/2000/svg" xmlns:xlink="http://www.w3.org/1999/xlink" x="0px" y="0px" width="24px"
	 height="24px" viewBox="0 0 24 24" enable-background="new 0 0 24 24" xml:space="preserve">
<g id="Filled_Icons">
	<g>
		<path d="M5.917,5.587C6.439,5.769,7.008,5.493,7.19,4.972c0.541-1.55,1.997-2.633,3.54-2.633c2.043,0,3.769,1.827,3.769,3.991
			v0.066c-6.953-0.551-8.491,2.845-8.8,3.949c-0.621,2.213,0.532,4.672,2.624,5.598c0.337,0.149,0.962,0.363,1.779,0.363
			c1.208-0.001,2.833-0.47,4.559-2.3c0.348,1.24,1.255,2.303,2.551,2.303c0.552,0,1-0.449,1-1c0-0.553-0.448-1-1-1
			c-0.315,0-0.713-0.667-0.713-1.416V6.33c0-3.248-2.642-5.991-5.769-5.991c-2.38,0-4.612,1.634-5.429,3.974
			C5.12,4.834,5.395,5.405,5.917,5.587z M9.134,14.115c-1.184-0.524-1.861-1.973-1.508-3.229c0.536-1.912,3.091-2.804,6.874-2.474
			v2.537C12.743,13.641,10.752,14.832,9.134,14.115z"/>
		<path d="M23.222,18.084c-0.001,0-0.002-0.002-0.003-0.002l-4.359-1.204c-0.532-0.145-1.083,0.165-1.23,0.698
			c-0.147,0.532,0.165,1.083,0.698,1.229l1.802,0.499c-2.546,1.048-5.257,1.583-8.093,1.583c-3.7,0-7.347-0.954-10.546-2.759
			c-0.48-0.271-1.09-0.101-1.362,0.38c-0.271,0.481-0.101,1.091,0.38,1.362c3.498,1.974,7.485,3.017,11.528,3.017
			c2.923,0,5.725-0.524,8.371-1.546l-0.626,1.043c-0.284,0.473-0.131,1.087,0.343,1.372c0.161,0.096,0.338,0.143,0.514,0.143
			c0.339,0,0.671-0.173,0.858-0.485l2.313-3.852C24.129,19.022,23.859,18.261,23.222,18.084z"/>
	</g>
</g>
<g id="Frames-24px">
	<rect fill="none" width="24" height="24"/>
</g>
</svg>
