<?xml version="1.0" encoding="utf-8"?>
<!-- Generator: Adobe Illustrator 19.2.1, SVG Export Plug-In . SVG Version: 6.00 Build 0)  -->
<svg version="1.1" xmlns="http://www.w3.org/2000/svg" xmlns:xlink="http://www.w3.org/1999/xlink" x="0px" y="0px" width="24px"
	 height="24px" viewBox="0 0 24 24" enable-background="new 0 0 24 24" xml:space="preserve">
<g id="Filled_Icons">
	<path d="M12,0C5.383,0,0,5.383,0,12s5.383,12,12,12s12-5.383,12-12S18.617,0,12,0z M12.307,6.217
		c0.468-0.546,1.257-0.954,1.909-0.98c0.083,0.758-0.223,1.52-0.675,2.068c-0.453,0.546-1.195,0.976-1.923,0.918
		C11.519,7.477,11.887,6.704,12.307,6.217z M15.784,17.155c-0.512,0.748-1.107,1.349-1.944,1.363
		c-0.822,0.018-1.087-0.487-2.027-0.487s-1.234,0.473-2.012,0.504c-0.808,0.031-1.357-0.665-1.873-1.409
		c-1.056-1.524-1.861-4.31-0.778-6.189c0.537-0.933,1.438-1.383,2.482-1.399c0.792-0.014,1.487,0.774,1.972,0.774
		c0.485,0,1.449-0.898,2.405-0.802c0.4,0.017,1.584,0.021,2.305,1.077c-0.057,0.036-1.341,0.783-1.325,2.339
		c0.017,1.856,1.63,2.474,1.648,2.483C16.621,15.451,16.377,16.29,15.784,17.155z"/>
</g>
<g id="Frames-24px">
	<rect fill="none" width="24" height="24"/>
</g>
</svg>
