<?xml version="1.0" encoding="utf-8"?>
<!-- Generator: Adobe Illustrator 19.2.1, SVG Export Plug-In . SVG Version: 6.00 Build 0)  -->
<svg version="1.1" xmlns="http://www.w3.org/2000/svg" xmlns:xlink="http://www.w3.org/1999/xlink" x="0px" y="0px" width="24px"
	 height="24px" viewBox="0 0 24 24" enable-background="new 0 0 24 24" xml:space="preserve">
<g id="Filled_Icons">
	<g>
		<path d="M2.31,18.505h0.865c0.041,0.314,0.092,1.201-0.441,2.117c0,0,2.434-0.117,2.93-2.117H21.69c1,0,1.81-0.812,1.81-1.815
			V5.315c0-1.003-0.81-1.815-1.81-1.815H2.31c-1,0-1.81,0.812-1.81,1.815V16.69C0.5,17.692,1.311,18.505,2.31,18.505 M19.772,11.243
			c0.476,0,0.86,0.386,0.86,0.861c0,0.477-0.385,0.862-0.86,0.862c-0.475,0-0.859-0.385-0.859-0.862
			C18.913,11.629,19.298,11.243,19.772,11.243 M14.618,13.865c0.09,1.352-0.958,2.354-2.164,2.354c-0.964,0-1.778-0.627-2.064-1.496
			L14.618,13.865z M4.318,11.243c0.475,0,0.86,0.386,0.86,0.861c0,0.477-0.386,0.862-0.86,0.862c-0.475,0-0.86-0.385-0.86-0.862
			C3.458,11.629,3.844,11.243,4.318,11.243"/>
	</g>
</g>
<g id="Frames-24px">
	<rect fill="none" width="24" height="24"/>
</g>
</svg>
