<?xml version="1.0" encoding="utf-8"?>
<!-- Generator: Adobe Illustrator 19.2.1, SVG Export Plug-In . SVG Version: 6.00 Build 0)  -->
<svg version="1.1" xmlns="http://www.w3.org/2000/svg" xmlns:xlink="http://www.w3.org/1999/xlink" x="0px" y="0px" width="24px"
	 height="24px" viewBox="0 0 24 24" enable-background="new 0 0 24 24" xml:space="preserve">
<g id="Filled_Icons">
	<g>
		<path d="M13.5,7.5c-0.553,0-1,0.448-1,1c0,0.553,0.447,1,1,1h1v7c0,0.553,0.447,1,1,1s1-0.447,1-1v-7h1c0.553,0,1-0.447,1-1
			c0-0.552-0.447-1-1-1H13.5z"/>
		<path d="M22.5,8.5c0-0.552-0.447-1-1-1s-1,0.448-1,1v8c0,0.553,0.447,1,1,1s1-0.447,1-1V8.5z"/>
		<path d="M10.5,16.5c0,0.553-0.447,1-1,1s-1-0.447-1-1V12l-5.828,5.164c-0.52,0.47-1.318,0.443-1.806-0.06
			c-0.247-0.255-0.379-0.6-0.365-0.954c0.014-0.354,0.172-0.688,0.438-0.924L10.5,6.854V16.5z"/>
	</g>
</g>
<g id="Frames-24px">
	<rect fill="none" width="24" height="24"/>
</g>
</svg>
