<?xml version="1.0" encoding="utf-8"?>
<!-- Generator: Adobe Illustrator 19.2.1, SVG Export Plug-In . SVG Version: 6.00 Build 0)  -->
<svg version="1.1" xmlns="http://www.w3.org/2000/svg" xmlns:xlink="http://www.w3.org/1999/xlink" x="0px" y="0px" width="24px"
	 height="24px" viewBox="0 0 24 24" enable-background="new 0 0 24 24" xml:space="preserve">
<g id="Filled_Icons">
	<g>
		<path d="M3.82,18.67h0.707c7.304,0,7.158,4.215,12.175,4.808c2.713,0.321,3.804-2.959,3.351-5.084
			c-3.943,3.178-8-2.763-11.686-2.595c0-1.637,10.273-11.608,10.39-12.61c0.075-0.65,0.15-1.303,0.226-1.954
			c0.053-0.451-0.416-0.344-0.416-0.344l-0.001-0.002c-2.007,0.41-4.068,0.622-6.114,0.527C10.955,1.348,9.694,1.197,8.57,0.584
			C8.262,0.425,8.056,0.527,7.947,0.619C7.285,1.445,6.663,2.41,6.559,3.46C6.494,4.106,6.624,4.359,6.624,4.359
			c0.571,1.445,4.571,0.908,6.103,0.602C9.73,8.498,6.734,12.033,3.738,15.568l0,0C3.423,15.943,3.391,18.615,3.82,18.67z"/>
	</g>
</g>
<g id="Frames-24px">
	<rect fill="none" width="24" height="24"/>
</g>
</svg>
