<?xml version="1.0" encoding="utf-8"?>
<!-- Generator: Adobe Illustrator 19.2.1, SVG Export Plug-In . SVG Version: 6.00 Build 0)  -->
<svg version="1.1" xmlns="http://www.w3.org/2000/svg" xmlns:xlink="http://www.w3.org/1999/xlink" x="0px" y="0px" width="24px"
	 height="24px" viewBox="0 0 24 24" enable-background="new 0 0 24 24" xml:space="preserve">
<g id="Filled_Icons">
	<g>
		<path d="M11.229,13.516c-1.143-0.227-1.947-1.322-2.136-2.705c-0.308,0.53-0.489,1.146-0.489,1.811
			c0,1.939,1.52,3.514,3.396,3.514c1.875,0,3.396-1.574,3.396-3.514c0-0.772-0.244-1.482-0.65-2.062
			C14.267,12.502,12.732,13.814,11.229,13.516z"/>
		<path d="M12,0C5.383,0,0,5.383,0,12s5.383,12,12,12s12-5.383,12-12S18.617,0,12,0z M12,18.334c-3.865,0-7-1.281-7-2.863
			c0-0.778,0.763-1.484,1.996-2c-0.213-2.244-0.16-7.07,3.691-9.712c0,2.981,2.606,3.241,0.854,7.119
			c1.074-0.119,2.566-0.259,2.367-2.486c1.314,0.677,3.403,1.567,3.233,5.142C18.292,14.044,19,14.723,19,15.471
			C19,17.053,15.866,18.334,12,18.334z"/>
	</g>
</g>
<g id="Frames-24px">
	<rect fill="none" width="24" height="24"/>
</g>
</svg>
