<?xml version="1.0" encoding="utf-8"?>
<!-- Generator: Adobe Illustrator 19.2.1, SVG Export Plug-In . SVG Version: 6.00 Build 0)  -->
<svg version="1.1" xmlns="http://www.w3.org/2000/svg" xmlns:xlink="http://www.w3.org/1999/xlink" x="0px" y="0px" width="24px"
	 height="24px" viewBox="0 0 24 24" enable-background="new 0 0 24 24" xml:space="preserve">
<g id="Filled_Icons">
	<path d="M12,0C5.383,0,0,5.383,0,12s5.383,12,12,12s12-5.383,12-12S18.617,0,12,0z M9,17.5c-3.032,0-5.5-2.467-5.5-5.5
		S5.968,6.5,9,6.5c1.562,0,3.057,0.668,4.099,1.832l-1.49,1.334C10.945,8.926,9.994,8.5,9,8.5c-1.93,0-3.5,1.57-3.5,3.5
		s1.57,3.5,3.5,3.5c1.389,0,2.602-0.807,3.165-1.999H9v-2h4.473c0.284,0,0.555,0.121,0.745,0.333
		c0.189,0.212,0.28,0.495,0.249,0.777C14.157,15.398,11.807,17.5,9,17.5z M19.5,13.5v2h-2v-2h-2v-2h2v-2h2v2h2v2H19.5z"/>
</g>
<g id="Frames-24px">
	<rect fill="none" width="24" height="24"/>
</g>
</svg>
