<?xml version="1.0" encoding="utf-8"?>
<!-- Generator: Adobe Illustrator 19.2.1, SVG Export Plug-In . SVG Version: 6.00 Build 0)  -->
<svg version="1.1" xmlns="http://www.w3.org/2000/svg" xmlns:xlink="http://www.w3.org/1999/xlink" x="0px" y="0px" width="24px"
	 height="24px" viewBox="0 0 24 24" enable-background="new 0 0 24 24" xml:space="preserve">
<g id="Filled_Icons">
	<g>
		<circle cx="10.367" cy="14.203" r="0.613"/>
		<path d="M12,0C5.383,0,0,5.383,0,12s5.383,12,12,12s12-5.383,12-12S18.617,0,12,0z M16.271,17.275
			c0.197-0.539,0.322-1.112,0.322-1.719c0-2.271-1.525-4.175-3.6-4.794c0.185-0.142,0.386-0.259,0.593-0.363
			c-0.54-0.989-1.995-3.249-3.996-3.302c1.386,1.359,1.571,3.434,1.567,4.476c0.137-0.014,0.269-0.042,0.41-0.042
			c2.22,0,4.025,1.807,4.025,4.025c0,2.221-1.806,4.025-4.025,4.025c-2.22,0-4.026-1.805-4.026-4.025
			c0-1.719,1.089-3.179,2.609-3.754c0.026-0.909-0.083-3.644-2.195-4.617C7.562,7.486,7.093,7.621,6.693,7.621
			c-0.112,0-0.219-0.01-0.315-0.028C6.106,7.541,5.929,7.279,5.981,7.008C6.032,6.736,6.287,6.56,6.565,6.61
			c0.152,0.03,0.568,0.003,0.855-0.267c0.265-0.246,0.364-0.65,0.298-1.2C7.686,4.869,7.881,4.619,8.154,4.586
			c0.27-0.03,0.523,0.162,0.557,0.436c0.06,0.49,0.006,0.872-0.092,1.189c2.797-0.688,4.987,1.996,5.934,3.859
			c0.228-0.043,0.458-0.072,0.694-0.072c2.051,0,3.72,1.67,3.72,3.721C18.967,15.411,17.822,16.827,16.271,17.275z"/>
	</g>
</g>
<g id="Frames-24px">
	<rect fill="none" width="24" height="24"/>
</g>
</svg>
