<?xml version="1.0" encoding="utf-8"?>
<!-- Generator: Adobe Illustrator 19.2.1, SVG Export Plug-In . SVG Version: 6.00 Build 0)  -->
<svg version="1.1" xmlns="http://www.w3.org/2000/svg" xmlns:xlink="http://www.w3.org/1999/xlink" x="0px" y="0px" width="24px"
	 height="24px" viewBox="0 0 24 24" enable-background="new 0 0 24 24" xml:space="preserve">
<g id="Filled_Icons">
	<g>
		<path d="M12,0.504c-3.104,0-5.621,2.516-5.621,5.619c0,3.104,2.517,5.621,5.621,5.621c3.104,0,5.619-2.517,5.619-5.621
			C17.619,3.02,15.104,0.504,12,0.504z M12,8.621c-1.38,0-2.498-1.117-2.498-2.498c0-1.379,1.118-2.498,2.498-2.498
			c1.379,0,2.497,1.119,2.497,2.498C14.497,7.504,13.379,8.621,12,8.621z"/>
		<path d="M14.9,16.988c1.379-0.391,2.645-1.047,3.733-1.92c0.667-0.535,0.698-1.546,0.102-2.16
			c-0.707-0.731-1.512-0.698-2.13-0.218c-1.27,0.992-2.87,1.583-4.606,1.583c-1.741,0-3.344-0.594-4.615-1.588
			c-0.609-0.479-1.465-0.467-2.007,0.086c-0.817,0.83-0.658,1.777-0.032,2.281c1.106,0.891,2.395,1.56,3.801,1.951L5.85,20.301
			c-0.732,0.732-0.732,1.918,0,2.65c0.731,0.731,1.917,0.731,2.648,0l3.533-3.533l3.532,3.533c0.731,0.731,1.918,0.731,2.649,0
			c0.731-0.733,0.731-1.918,0-2.65L14.9,16.988z"/>
	</g>
</g>
<g id="Frames-24px">
	<rect fill="none" width="24" height="24"/>
</g>
</svg>
