<?xml version="1.0" encoding="utf-8"?>
<!-- Generator: Adobe Illustrator 19.2.1, SVG Export Plug-In . SVG Version: 6.00 Build 0)  -->
<svg version="1.1" xmlns="http://www.w3.org/2000/svg" xmlns:xlink="http://www.w3.org/1999/xlink" x="0px" y="0px" width="24px"
	 height="24px" viewBox="0 0 24 24" enable-background="new 0 0 24 24" xml:space="preserve">
<g id="Filled_Icons">
	<g>
		<path d="M7.678,15.523c-1.427,2.736-2.49,3.659-5.407,4.334c0.549,1.298,0.77,1.784,1.583,3.505
			c3.648-0.996,5.98-3.152,7.413-4.998c2.44,0.625,4.225,2.188,5.698,5.025c1.531-1.287,1.7-1.418,3.002-2.472
			c-1.015-2.451-3.507-4.57-5.88-5.724c0.022-0.58,0.039-0.725,0.062-1.179c3.487,0.918,6.433-2.008,6.433-2.008
			s-0.746-1.403-1.689-2.853c-3.233,2.932-4.749-0.347-8.334-1.522C8.43,8.938,7.576,12.203,7.678,15.523z"/>
		<path d="M17.795,3.756c0-1.799-1.514-3.256-3.295-3.256c-1.781,0-3.273,1.457-3.273,3.256c0,1.797,1.491,3.255,3.273,3.255
			C16.281,7.011,17.795,5.554,17.795,3.756z"/>
	</g>
</g>
<g id="Frames-24px">
	<rect fill="none" width="24" height="24"/>
</g>
</svg>
