<?xml version="1.0" encoding="utf-8"?>
<!-- Generator: Adobe Illustrator 19.2.1, SVG Export Plug-In . SVG Version: 6.00 Build 0)  -->
<svg version="1.1" xmlns="http://www.w3.org/2000/svg" xmlns:xlink="http://www.w3.org/1999/xlink" x="0px" y="0px" width="24px"
	 height="24px" viewBox="0 0 24 24" enable-background="new 0 0 24 24" xml:space="preserve">
<g id="Filled_Icons">
	<path d="M12,0C5.383,0,0,5.383,0,12s5.383,12,12,12s12-5.383,12-12S18.617,0,12,0z M14.537,20.07
		c-0.405,0.078-0.535-0.158-0.535-0.371c0-0.265,0-1.217,0-2.217c0-0.746-0.26-1.226-0.547-1.473
		c1.782-0.198,3.652-0.875,3.652-3.948c0-0.874-0.311-1.587-0.822-2.147c0.082-0.199,0.357-1.015-0.079-2.115
		c0,0-0.671-0.216-2.198,0.82c-0.64-0.177-1.324-0.267-2.004-0.269c-0.68,0.002-1.364,0.093-2.002,0.269
		c-1.528-1.037-2.2-0.82-2.2-0.82C7.365,8.899,7.641,9.715,7.723,9.914C7.212,10.475,6.9,11.188,6.9,12.061
		c0,3.066,1.867,3.753,3.643,3.954c-0.228,0.201-0.435,0.553-0.509,1.07c-0.455,0.203-1.613,0.557-2.327-0.666
		c0,0-0.423-0.768-1.226-0.824c0,0-0.781-0.01-0.055,0.486c0,0,0.523,0.248,0.888,1.172c0,0,0.461,1.536,2.687,1.053
		c0.004,0.668,0,1.199,0,1.39c0,0.212-0.127,0.447-0.527,0.376c-3.18-1.059-5.471-4.058-5.471-7.592c0-4.419,3.582-8,8-8
		s8,3.581,8,8C20.004,16.015,17.715,19.011,14.537,20.07z"/>
</g>
<g id="Frames-24px">
	<rect fill="none" width="24" height="24"/>
</g>
</svg>
