<?xml version="1.0" encoding="utf-8"?>
<!-- Generator: Adobe Illustrator 19.2.1, SVG Export Plug-In . SVG Version: 6.00 Build 0)  -->
<svg version="1.1" xmlns="http://www.w3.org/2000/svg" xmlns:xlink="http://www.w3.org/1999/xlink" x="0px" y="0px" width="24px"
	 height="24px" viewBox="0 0 24 24" enable-background="new 0 0 24 24" xml:space="preserve">
<g id="Filled_Icons">
	<g>
		<path d="M10.667,8.25l-10-3.314C0.515,4.885,0.347,4.91,0.216,5.005S0.009,5.251,0.01,5.412l0.066,14.443
			c0.001,0.213,0.135,0.4,0.335,0.471l9.934,3.457c0.161,0.054,0.327,0.025,0.454-0.065c0.132-0.095,0.21-0.245,0.21-0.407V8.725
			C11.01,8.509,10.872,8.318,10.667,8.25z"/>
		<path d="M23.805,5.102c-0.129-0.096-0.294-0.121-0.447-0.074l-10,3.173c-0.208,0.065-0.349,0.259-0.349,0.477v14.682
			c0,0.162,0.079,0.313,0.211,0.407c0.129,0.092,0.298,0.119,0.455,0.064l10-3.505c0.2-0.069,0.334-0.259,0.334-0.472V5.504
			C24.01,5.344,23.934,5.194,23.805,5.102z"/>
		<path d="M23.041,3.501c0.001-0.225-0.147-0.422-0.363-0.483L12.137,0.019c-0.087-0.025-0.181-0.025-0.268-0.001L1.47,2.859
			C1.254,2.918,1.104,3.113,1.102,3.336C1.1,3.56,1.246,3.758,1.461,3.821l10.398,3.052C11.905,6.887,11.953,6.894,12,6.894
			c0.044,0,0.089-0.006,0.132-0.019L22.673,3.98C22.89,3.922,23.04,3.725,23.041,3.501z"/>
	</g>
</g>
<g id="Frames-24px">
	<rect fill="none" width="24" height="24"/>
</g>
</svg>
