<?xml version="1.0" encoding="utf-8"?>
<!-- Generator: Adobe Illustrator 19.2.1, SVG Export Plug-In . SVG Version: 6.00 Build 0)  -->
<svg version="1.1" xmlns="http://www.w3.org/2000/svg" xmlns:xlink="http://www.w3.org/1999/xlink" x="0px" y="0px" width="24px"
	 height="24px" viewBox="0 0 24 24" enable-background="new 0 0 24 24" xml:space="preserve">
<g id="Filled_Icons">
	<path d="M12,0.004c-6.617,0-12,5.383-12,12s5.383,12,12,12s12-5.383,12-12S18.617,0.004,12,0.004z M14.219,14.882l-0.38,3.408
		c-0.076,0.691-0.659,1.214-1.354,1.214h-0.969c-0.694,0-1.278-0.523-1.355-1.214l-0.378-3.408c-0.043-0.386,0.08-0.772,0.339-1.06
		c0.259-0.29,0.629-0.455,1.016-0.455h1.727c0.387,0,0.757,0.165,1.016,0.455C14.138,14.111,14.262,14.496,14.219,14.882z
		 M10.295,10.328c0-0.941,0.764-1.705,1.705-1.705s1.705,0.764,1.705,1.705c0,0.942-0.764,1.706-1.705,1.706
		S10.295,11.269,10.295,10.328z M15.752,13.84c-0.092,0-0.185-0.025-0.267-0.077c-0.234-0.148-0.304-0.457-0.156-0.69
		c0.395-0.623,0.602-1.347,0.602-2.092c0-2.167-1.764-3.93-3.932-3.93s-3.932,1.763-3.932,3.93c0,0.74,0.207,1.461,0.598,2.084
		c0.146,0.234,0.075,0.542-0.158,0.689c-0.233,0.148-0.543,0.076-0.689-0.158c-0.49-0.783-0.75-1.688-0.75-2.615
		c0-2.718,2.212-4.93,4.932-4.93s4.932,2.212,4.932,4.93c0,0.934-0.262,1.843-0.757,2.626C16.079,13.758,15.917,13.84,15.752,13.84z
		 M17.157,15.68c-0.185,0.205-0.502,0.219-0.706,0.033c-0.204-0.187-0.219-0.503-0.032-0.707c1.005-1.102,1.559-2.532,1.559-4.025
		c0-3.295-2.682-5.977-5.978-5.977s-5.977,2.681-5.977,5.977c0,1.503,0.559,2.939,1.574,4.043c0.187,0.203,0.174,0.519-0.03,0.707
		c-0.096,0.088-0.217,0.132-0.338,0.132c-0.135,0-0.269-0.053-0.368-0.162c-1.186-1.29-1.838-2.966-1.838-4.72
		c0-3.846,3.13-6.977,6.977-6.977c3.848,0,6.978,3.13,6.978,6.977C18.978,12.725,18.331,14.394,17.157,15.68z"/>
</g>
<g id="Frames-24px">
	<rect fill="none" width="24" height="24"/>
</g>
</svg>
