<?xml version="1.0" encoding="utf-8"?>
<!-- Generator: Adobe Illustrator 19.2.1, SVG Export Plug-In . SVG Version: 6.00 Build 0)  -->
<svg version="1.1" xmlns="http://www.w3.org/2000/svg" xmlns:xlink="http://www.w3.org/1999/xlink" x="0px" y="0px" width="24px"
	 height="24px" viewBox="0 0 24 24" enable-background="new 0 0 24 24" xml:space="preserve">
<g id="Filled_Icons">
	<g>
		<path d="M18.651,3.596c0.121-0.057,0.233-0.136,0.327-0.242c0.366-0.413,0.328-1.045-0.085-1.412c-1.22-1.08-3.028-1.7-4.962-1.7
			c-1.999,0-3.845,0.653-5.066,1.794c-0.21,0.196-0.311,0.461-0.312,0.727c1.285-0.546,2.746-0.843,4.278-0.843
			C15.094,1.92,17.122,2.553,18.651,3.596z"/>
		<path d="M19.457,17.182c0.233-0.457,0.07-0.996-0.346-1.275c-1.273,1.463-2.129,1.549-3.129,2.269
			c-0.406,0.296-0.529,0.848-0.288,1.288l0.689,1.256l-2.702-0.924c-0.227-0.07-0.564-0.035-0.699,0.02
			c-2.647,1.074-5.73,0.769-8.046-0.79c-1.774-1.195-2.792-2.921-2.792-4.731c0-3.215,3.738-6.034,8-6.034
			c3.107,0,7.412,1.383,7.412,3.979c0,2.013-2.791,3.712-6.095,3.712c-3.304,0-6.096-1.699-6.096-3.712
			c0-0.46-0.317-0.831-0.74-0.947c-0.537,0.509-0.943,1.078-1.193,1.664c0.486,2.852,3.834,4.995,8.028,4.995
			c4.539,0,8.095-2.509,8.095-5.712c0-4.355-5.773-5.978-9.412-5.978c-5.421,0-10,3.679-10,8.034c0,2.488,1.339,4.817,3.675,6.391
			c1.729,1.164,3.8,1.763,5.887,1.763c1.236,0,2.474-0.222,3.652-0.648l4.818,1.648c0.106,0.036,0.215,0.054,0.324,0.054
			c0.29,0,0.572-0.127,0.765-0.356c0.266-0.316,0.31-0.763,0.112-1.125l-1.527-2.784C18.534,18.62,19.073,17.934,19.457,17.182z"/>
		<path d="M12.831,2.92c-2.103,0-4.131,0.629-5.564,1.724C6.941,4.893,6.813,5.302,6.905,5.677c1.029-0.271,2.117-0.418,3.239-0.418
			c0.092,0,0.191,0.007,0.286,0.009c0.745-0.227,1.562-0.348,2.401-0.348c2.729,0,5.078,1.297,5.571,2.947
			c0.608,0.506,1.12,1.092,1.492,1.767c0.329-0.145,0.572-0.458,0.598-0.843c0.006-0.094,0.009-0.189,0.009-0.283
			C20.502,5.375,17.132,2.92,12.831,2.92z"/>
		<path d="M12.831,14.096c0.984,0,1.936-0.147,2.831-0.403c0.565-0.447,0.894-0.962,0.894-1.455c0-0.306-0.118-0.601-0.324-0.877
			c-0.991,0.481-2.166,0.735-3.4,0.735c-2.38,0-4.546-1.014-5.339-2.439c-0.673,0.21-1.284,0.491-1.821,0.829
			C6.782,12.654,9.587,14.096,12.831,14.096z"/>
	</g>
</g>
<g id="Frames-24px">
	<rect fill="none" width="24" height="24"/>
</g>
</svg>
