<?xml version="1.0" encoding="utf-8"?>
<!-- Generator: Adobe Illustrator 19.2.1, SVG Export Plug-In . SVG Version: 6.00 Build 0)  -->
<svg version="1.1" xmlns="http://www.w3.org/2000/svg" xmlns:xlink="http://www.w3.org/1999/xlink" x="0px" y="0px" width="24px"
	 height="24px" viewBox="0 0 24 24" enable-background="new 0 0 24 24" xml:space="preserve">
<g id="Filled_Icons">
	<path d="M12,0C5.383,0,0,5.383,0,12s5.383,12,12,12s12-5.383,12-12S18.617,0,12,0z M20,9h-1.535l-4.101,8.406
		c-0.084,0.172-0.259,0.281-0.449,0.281c-0.006,0-0.011,0-0.017-0.001c-0.197-0.007-0.372-0.128-0.446-0.312l-1.568-3.852
		l-1.894,3.884c-0.084,0.172-0.259,0.281-0.449,0.281c-0.006,0-0.011,0-0.017-0.001c-0.197-0.007-0.372-0.128-0.446-0.312L5.668,9H4
		V8h4v1H6.747l2.833,6.962l1.797-3.683L10.043,9H9V8h2v0.7l0.966,2.373L13,8.953V8h2v1h-0.91l-1.618,3.316l1.483,3.646L17.353,9H16
		V8h4V9z"/>
</g>
<g id="Frames-24px">
	<rect fill="none" width="24" height="24"/>
</g>
</svg>
