<?xml version="1.0" encoding="utf-8"?>
<!-- Generator: Adobe Illustrator 19.2.1, SVG Export Plug-In . SVG Version: 6.00 Build 0)  -->
<svg version="1.1" xmlns="http://www.w3.org/2000/svg" xmlns:xlink="http://www.w3.org/1999/xlink" x="0px" y="0px" width="24px"
	 height="24px" viewBox="0 0 24 24" enable-background="new 0 0 24 24" xml:space="preserve">
<g id="Filled_Icons">
	<g>
		<path fill-rule="evenodd" clip-rule="evenodd" d="M13.626,9.504c0.513,0.965,0.954,1.963,1.334,2.987
			c1.541-0.301,3.12-0.459,4.732-0.459c1.048,0,2.636,0.13,3.792,0.271c0.082-2.866-0.878-5.502-2.589-7.589
			C18.714,6.748,16.263,8.368,13.626,9.504z"/>
		<path fill-rule="evenodd" clip-rule="evenodd" d="M19.692,13.032c-1.496,0-2.963,0.145-4.396,0.415
			C16.082,15.86,16.5,18.404,16.5,21c0,0.36-0.026,1.007-0.058,1.609c3.763-1.577,6.504-5.098,6.979-9.306
			C22.287,13.162,20.689,13.032,19.692,13.032z"/>
		<path fill-rule="evenodd" clip-rule="evenodd" d="M0.641,10.292C1.815,10.423,3.143,10.5,4,10.5c2.821,0,5.584-0.517,8.19-1.496
			c-1.554-2.62-3.635-4.938-6.13-6.839C3.196,3.9,1.155,6.843,0.641,10.292z"/>
		<path fill-rule="evenodd" clip-rule="evenodd" d="M15.42,22.983C15.46,22.298,15.5,21.421,15.5,21
			c0-2.525-0.415-4.998-1.189-7.343c-4.001,0.941-7.698,2.954-10.925,5.945C5.493,21.987,8.566,23.5,12,23.5
			C13.191,23.5,14.34,23.319,15.42,22.983z"/>
		<path fill-rule="evenodd" clip-rule="evenodd" d="M13.977,12.707c-0.366-0.968-0.794-1.912-1.284-2.824
			C9.931,10.94,6.998,11.5,4,11.5c-0.905,0-2.251-0.081-3.464-0.217C0.521,11.522,0.5,11.758,0.5,12
			c0,2.557,0.845,4.911,2.256,6.821C6.072,15.761,9.868,13.691,13.977,12.707z"/>
		<path fill-rule="evenodd" clip-rule="evenodd" d="M7.024,1.645c2.482,1.962,4.55,4.329,6.104,6.986
			c2.576-1.096,4.97-2.673,7.097-4.66C18.137,1.832,15.226,0.5,12,0.5C10.215,0.5,8.532,0.919,7.024,1.645z"/>
	</g>
</g>
<g id="Frames-24px">
	<rect fill="none" width="24" height="24"/>
</g>
</svg>
