<?xml version="1.0" encoding="utf-8"?>
<!-- Generator: Adobe Illustrator 19.2.1, SVG Export Plug-In . SVG Version: 6.00 Build 0)  -->
<svg version="1.1" xmlns="http://www.w3.org/2000/svg" xmlns:xlink="http://www.w3.org/1999/xlink" x="0px" y="0px" width="24px"
	 height="24px" viewBox="0 0 24 24" enable-background="new 0 0 24 24" xml:space="preserve">
<g id="Filled_Icons">
	<g>
		<path d="M16.848,1.578c-2.723,0.391-3.356,2.824-3.425,4.934c2.97,0.506,5.239,3.015,5.239,6.037c0,3.414-2.853,6.156-6.349,6.156
			c-3.865,0-6.499-3.381-6.431-7.169C5.883,3.685,13.188,0.844,16.848,1.578z M11.976,0.5C5.633,0.5,0.5,5.633,0.5,11.977
			C0.5,18.367,5.633,23.5,11.976,23.5c6.344,0,11.524-5.133,11.524-11.523C23.5,5.613,18.296,0.5,11.976,0.5z"/>
	</g>
</g>
<g id="Frames-24px">
	<rect fill="none" width="24" height="24"/>
</g>
</svg>
