<?xml version="1.0" encoding="utf-8"?>
<!-- Generator: Adobe Illustrator 19.2.1, SVG Export Plug-In . SVG Version: 6.00 Build 0)  -->
<svg version="1.1" xmlns="http://www.w3.org/2000/svg" xmlns:xlink="http://www.w3.org/1999/xlink" x="0px" y="0px" width="24px"
	 height="24px" viewBox="0 0 24 24" enable-background="new 0 0 24 24" xml:space="preserve">
<g id="Filled_Icons">
	<path d="M12,0C5.383,0,0,5.383,0,12s5.383,12,12,12s12-5.383,12-12S18.617,0,12,0z M17.052,10.121
		c-1.406,0.19-2.75,0.525-3.394,0.699c-0.036-0.054-0.081-0.099-0.121-0.148c0.545-0.599,1.562-1.797,2.259-3.089
		C17.2,7.123,18.949,8.173,17.052,10.121z M14.973,7.007c-0.613,1.158-1.6,2.364-2.242,3.064c-0.234-0.094-0.488-0.149-0.756-0.149
		c-0.093,0-0.182,0.015-0.271,0.027c-0.259-1.163-0.529-2.665-0.648-3.921C11.797,4.62,14.689,4.062,14.973,7.007z M8.094,6.81
		c0.625-0.445,1.519,0.104,2.171,0.923c0.172,1.098,0.384,2.086,0.5,2.599c-0.197,0.148-0.367,0.329-0.5,0.538
		c-0.548-0.456-1.454-1.145-2.49-1.685C7.136,8.082,7.558,7.19,8.094,6.81z M4.959,12.161c0-1.026,0.799-1.951,2.307-2.119
		c1.089,0.561,2.106,1.355,2.684,1.872c0,0.012-0.004,0.024-0.004,0.037c0,0.099,0.016,0.193,0.029,0.288
		c-1.045,0.369-2.792,0.865-4.286,0.965C5.266,12.963,4.959,12.612,4.959,12.161z M6.656,14.112c1.48-0.21,2.897-0.661,3.631-0.922
		c-0.434,0.513-1.255,1.554-1.921,2.788C6.553,16.498,5.865,15.073,6.656,14.112z M12.567,17.398
		c-0.614,2.048-3.261,1.752-3.912,0.37c0.54-1.541,1.715-3.144,2.444-3.995c0.267,0.128,0.561,0.206,0.875,0.206
		c0.013,0,0.024-0.002,0.036-0.002c0.279,1.133,0.485,2.321,0.577,3.352C12.581,17.353,12.574,17.375,12.567,17.398z M11.975,12.98
		c-0.567,0-1.029-0.461-1.029-1.029c0-0.566,0.462-1.029,1.029-1.029s1.029,0.462,1.029,1.029
		C13.004,12.519,12.542,12.98,11.975,12.98z M13.571,17.075c-0.127-1.327-0.417-2.636-0.597-3.369
		c0.16-0.091,0.311-0.197,0.439-0.327c0.485,0.443,1.413,1.241,2.516,1.951C16.291,16.966,14.636,17.993,13.571,17.075z
		 M18.741,13.957c-0.206,0.382-0.663,0.936-1.331,1.084c-1.553-0.812-3.008-2.106-3.487-2.554c0.048-0.171,0.081-0.349,0.081-0.535
		c0-0.063-0.013-0.123-0.018-0.185c0.985-0.264,2.598-0.625,4.017-0.748C19.078,11.757,19.012,13.462,18.741,13.957z"/>
</g>
<g id="Frames-24px">
	<rect fill="none" width="24" height="24"/>
</g>
</svg>
