<?xml version="1.0" encoding="utf-8"?>
<!-- Generator: Adobe Illustrator 19.2.1, SVG Export Plug-In . SVG Version: 6.00 Build 0)  -->
<svg version="1.1" xmlns="http://www.w3.org/2000/svg" xmlns:xlink="http://www.w3.org/1999/xlink" x="0px" y="0px" width="24px"
	 height="24px" viewBox="0 0 24 24" enable-background="new 0 0 24 24" xml:space="preserve">
<g id="Filled_Icons">
	<g>
		<path d="M12,0C5.383,0,0,5.383,0,12s5.383,12,12,12s12-5.383,12-12S18.617,0,12,0z M6.304,6.162l1.828-1.994
			c0.14-0.15,0.355-0.203,0.55-0.127C8.873,4.115,9,4.301,9,4.506V6.5C9,6.776,8.776,7,8.5,7H6.672C6.474,7,6.294,6.883,6.214,6.701
			C6.135,6.519,6.169,6.309,6.304,6.162z M16.041,20.002c-0.021,0.003-0.042,0.004-0.064,0.004h-1.629c-0.68,0-2.748,0-2.748-2.506
			c0-0.276,0.224-0.5,0.5-0.5h1.297c0.276,0,0.5,0.224,0.5,0.5c0,0.116,0.062,0.18,0.121,0.215h1.477
			c0.239,0,0.281-0.303,0.288-0.396l-0.001-1.347c0-0.469-0.523-0.969-1.491-0.969c-0.649,0-1.193-0.314-1.609-0.685
			c-0.001,0.096-0.001,0.191-0.001,0.279c0,0.323-0.492,1.631-2.764,1.631c-0.354,0-0.74-0.032-1.149-0.096
			c-3.153-0.489-3.189-5.822-3.189-6.049c0-1.451,1.122-2.012,1.17-2.034C6.818,8.018,6.893,8,6.968,8h2.649L10,7.539V5.625
			c-0.002-0.388,0.038-0.828,0.387-1.18c0.298-0.299,0.763-0.439,1.461-0.439c1.184,0,1.79,0.641,2.056,1.047h1.519
			c0.809,0,2.365,0.543,2.753,1.211c0.021,0.038,0.05,0.074,0.081,0.118c0.407,0.562,1.164,1.606,1.164,6.933
			C19.42,19.496,16.18,19.984,16.041,20.002z"/>
		<rect x="15.688" y="9.961" transform="matrix(0.4692 -0.8831 0.8831 0.4692 -1.204 20.1845)" width="1" height="2.265"/>
	</g>
</g>
<g id="Frames-24px">
	<rect fill="none" width="24" height="24"/>
</g>
</svg>
