<?xml version="1.0" encoding="utf-8"?>
<!-- Generator: Adobe Illustrator 19.2.1, SVG Export Plug-In . SVG Version: 6.00 Build 0)  -->
<svg version="1.1" xmlns="http://www.w3.org/2000/svg" xmlns:xlink="http://www.w3.org/1999/xlink" x="0px" y="0px" width="24px"
	 height="24px" viewBox="0 0 24 24" enable-background="new 0 0 24 24" xml:space="preserve">
<g id="Filled_Icons">
	<g>
		<path d="M1,6.5C1,5.671,1.671,5,2.5,5H19V4.5C19,4.224,18.776,4,18.5,4H7.707L5.853,2.147C5.76,2.053,5.633,2,5.5,2h-5
			C0.224,2,0,2.224,0,2.5v14C0,16.776,0.224,17,0.5,17H1V6.5z"/>
		<path d="M3,8.5C3,7.671,3.671,7,4.5,7H21V6.5C21,6.224,20.776,6,20.5,6h-18C2.224,6,2,6.224,2,6.5v12C2,18.776,2.224,19,2.5,19H3
			V8.5z"/>
		<path d="M22.5,8h-18C4.224,8,4,8.224,4,8.5v12C4,20.776,4.224,21,4.5,21h18c0.276,0,0.5-0.224,0.5-0.5v-12
			C23,8.224,22.776,8,22.5,8z M9,10c0.551,0,1,0.449,1,1s-0.449,1-1,1s-1-0.449-1-1S8.449,10,9,10z M20.531,19H6.562
			c-0.276,0-0.5-0.224-0.5-0.5s0.224-0.5,0.5-0.5h0.659l2.853-4.597c0.184-0.297,0.597-0.31,0.809-0.057l1.99,2.389l2.17-4.775
			c0.203-0.445,0.769-0.346,0.918,0.017L18.836,18h1.695c0.276,0,0.5,0.224,0.5,0.5S20.808,19,20.531,19z"/>
	</g>
</g>
<g id="Invisible_Shape">
	<rect fill="none" width="24" height="24"/>
</g>
</svg>
