<?xml version="1.0" encoding="utf-8"?>
<!-- Generator: Adobe Illustrator 19.2.1, SVG Export Plug-In . SVG Version: 6.00 Build 0)  -->
<svg version="1.1" xmlns="http://www.w3.org/2000/svg" xmlns:xlink="http://www.w3.org/1999/xlink" x="0px" y="0px" width="24px"
	 height="24px" viewBox="0 0 24 24" enable-background="new 0 0 24 24" xml:space="preserve">
<g id="Filled_Icons">
	<g>
		<rect x="11.818" y="12.732" transform="matrix(0.7071 -0.7071 0.7071 0.7071 -5.6529 14.3533)" width="5.363" height="2.536"/>
		<rect x="16.938" y="9.732" transform="matrix(0.7072 -0.707 0.707 0.7072 -2.6535 15.5929)" width="1.123" height="2.536"/>
		<polygon points="10.728,17.772 12.546,17.252 11.247,15.955 		"/>
		<path d="M23.5,6H21V4.5C21,4.225,20.776,4,20.5,4H8V2.5C8,2.225,7.776,2,7.5,2h-7C0.224,2,0,2.225,0,2.5V19c0,1.655,1.346,3,3,3
			h17.5c1.93,0,3.5-1.569,3.5-3.5v-12C24,6.225,23.776,6,23.5,6z M19.853,11.852l-6,6.001c-0.059,0.06-0.163,0.113-0.216,0.128
			l-3.5,1c-0.174,0.049-0.362,0.001-0.491-0.128c-0.128-0.128-0.177-0.316-0.127-0.491l1-3.5c0.019-0.063,0.072-0.16,0.127-0.216
			l6-6c0.188-0.188,0.52-0.188,0.707,0l2.5,2.5C20.048,11.341,20.048,11.658,19.853,11.852z M20,6H5.5C5.224,6,5,6.225,5,6.5V19
			c0,1.103-0.897,2-2,2c-1.102,0-2-0.897-2-2V3h6v1.5C7,4.777,7.224,5,7.5,5H20V6z"/>
	</g>
</g>
<g id="Invisible_Shape">
	<rect fill="none" width="24" height="24"/>
</g>
</svg>
