<?xml version="1.0" encoding="utf-8"?>
<!-- Generator: Adobe Illustrator 19.2.1, SVG Export Plug-In . SVG Version: 6.00 Build 0)  -->
<svg version="1.1" xmlns="http://www.w3.org/2000/svg" xmlns:xlink="http://www.w3.org/1999/xlink" x="0px" y="0px" width="24px"
	 height="24px" viewBox="0 0 24 24" enable-background="new 0 0 24 24" xml:space="preserve">
<g id="Filled_Icons">
	<path d="M23.5,6H21V4.5C21,4.225,20.776,4,20.5,4H8V2.5C8,2.225,7.776,2,7.5,2h-7C0.224,2,0,2.225,0,2.5V19c0,1.655,1.346,3,3,3
		h17.5c1.93,0,3.5-1.569,3.5-3.5v-12C24,6.225,23.776,6,23.5,6z M18.007,12.122c-0.067,0.268-0.338,0.433-0.606,0.363
		c-0.268-0.066-0.431-0.338-0.364-0.606c0.15-0.604-0.042-1.22-1.393-1.555l-0.663,4.669c0.182,1.353-1.395,2.506-3.086,2.506
		c-1.207,0-2.144-0.593-2.33-1.477c-0.231-1.102,0.774-2.215,2.288-2.532c0.761-0.161,1.625-0.1,2.289,0.3l0.585-4.119
		c0.038-0.264,0.278-0.447,0.542-0.427C16.971,9.405,18.432,10.427,18.007,12.122z M20,6H5.5C5.224,6,5,6.225,5,6.5V19
		c0,1.103-0.897,2-2,2c-1.102,0-2-0.897-2-2V3h6v1.5C7,4.777,7.224,5,7.5,5H20V6z"/>
</g>
<g id="Invisible_Shape">
	<rect fill="none" width="24" height="24"/>
</g>
</svg>
