<?xml version="1.0" encoding="utf-8"?>
<!-- Generator: Adobe Illustrator 19.2.1, SVG Export Plug-In . SVG Version: 6.00 Build 0)  -->
<svg version="1.1" xmlns="http://www.w3.org/2000/svg" xmlns:xlink="http://www.w3.org/1999/xlink" x="0px" y="0px" width="24px"
	 height="24px" viewBox="0 0 24 24" enable-background="new 0 0 24 24" xml:space="preserve">
<g id="Filled_Icons">
	<g>
		<path d="M16.158,10.829c0.251-0.498,0.764-0.806,1.342-0.806s1.091,0.309,1.341,0.804L21,15.146V4.5C21,4.225,20.776,4,20.5,4H19
			V2.5C19,2.225,18.776,2,18.5,2H6V0.5C6,0.225,5.776,0,5.5,0h-5C0.224,0,0,0.225,0,0.5V16c0,1.103,0.897,2,2,2h10.573
			L16.158,10.829z M3,4.5V16c0,0.551-0.449,1-1,1s-1-0.449-1-1V1h4v1.5C5,2.777,5.224,3,5.5,3H18v1H3.5C3.224,4,3,4.225,3,4.5z"/>
		<path d="M23.947,23.276l-6-12c-0.17-0.338-0.725-0.338-0.895,0l-6,12C10.887,23.61,11.128,24,11.5,24h12
			C23.872,24,24.113,23.61,23.947,23.276z M17.5,22c-0.276,0-0.5-0.224-0.5-0.5s0.224-0.5,0.5-0.5s0.5,0.224,0.5,0.5
			S17.776,22,17.5,22z M18,20c0,0.276-0.224,0.5-0.5,0.5S17,20.276,17,20v-3.5c0-0.276,0.224-0.5,0.5-0.5s0.5,0.224,0.5,0.5V20z"/>
	</g>
</g>
<g id="Invisible_Shape">
	<rect fill="none" width="24" height="24"/>
</g>
</svg>
