<?xml version="1.0" encoding="utf-8"?>
<!-- Generator: Adobe Illustrator 19.2.1, SVG Export Plug-In . SVG Version: 6.00 Build 0)  -->
<svg version="1.1" xmlns="http://www.w3.org/2000/svg" xmlns:xlink="http://www.w3.org/1999/xlink" x="0px" y="0px" width="24px"
	 height="24px" viewBox="0 0 24 24" enable-background="new 0 0 24 24" xml:space="preserve">
<g id="Filled_Icons">
	<g>
		<path d="M1,6.5C1,5.671,1.671,5,2.5,5H19V4.5C19,4.224,18.776,4,18.5,4H7.707L5.853,2.147C5.76,2.053,5.633,2,5.5,2h-5
			C0.224,2,0,2.224,0,2.5v14C0,16.776,0.224,17,0.5,17H1V6.5z"/>
		<path d="M3,8.5C3,7.671,3.671,7,4.5,7H21V6.5C21,6.224,20.776,6,20.5,6h-18C2.224,6,2,6.224,2,6.5v12C2,18.776,2.224,19,2.5,19H3
			V8.5z"/>
		<path d="M22.5,8h-18C4.224,8,4,8.224,4,8.5v12C4,20.776,4.224,21,4.5,21h18c0.276,0,0.5-0.224,0.5-0.5v-12
			C23,8.224,22.776,8,22.5,8z M17,15.515c0,1.323-0.31,1.5-1.545,1.5c-0.985,0-1.601-0.708-1.601-1.528
			c0-0.739,0.523-1.486,1.523-1.486H16v-2.676l-3,1.5v4.691c0,1.323-0.311,1.5-1.545,1.5c-0.985,0-1.601-0.708-1.601-1.528
			c0-0.739,0.523-1.486,1.523-1.486H12v-3.485c0-0.189,0.107-0.362,0.276-0.447l4-2C16.608,9.9,17,10.146,17,10.515V15.515z"/>
	</g>
</g>
<g id="Invisible_Shape">
	<rect fill="none" width="24" height="24"/>
</g>
</svg>
