<?xml version="1.0" encoding="utf-8"?>
<!-- Generator: Adobe Illustrator 19.2.1, SVG Export Plug-In . SVG Version: 6.00 Build 0)  -->
<svg version="1.1" xmlns="http://www.w3.org/2000/svg" xmlns:xlink="http://www.w3.org/1999/xlink" x="0px" y="0px" width="24px"
	 height="24px" viewBox="0 0 24 24" enable-background="new 0 0 24 24" xml:space="preserve">
<g id="Filled_Icons">
	<path d="M23.5,6H21V4.5C21,4.224,20.776,4,20.5,4H8V2.5C8,2.224,7.776,2,7.5,2h-7C0.224,2,0,2.224,0,2.5V19c0,1.654,1.346,3,3,3
		h17.5c1.93,0,3.5-1.57,3.5-3.5v-12C24,6.224,23.776,6,23.5,6z M20,6H5.5C5.224,6,5,6.224,5,6.5V19c0,1.103-0.897,2-2,2
		c-1.102,0-2-0.897-2-2V3h6v1.5C7,4.776,7.224,5,7.5,5H20V6z"/>
</g>
<g id="Invisible_Shape">
	<rect fill="none" width="24" height="24"/>
</g>
</svg>
