<?xml version="1.0" encoding="utf-8"?>
<!-- Generator: Adobe Illustrator 19.2.1, SVG Export Plug-In . SVG Version: 6.00 Build 0)  -->
<svg version="1.1" xmlns="http://www.w3.org/2000/svg" xmlns:xlink="http://www.w3.org/1999/xlink" x="0px" y="0px" width="24px"
	 height="24px" viewBox="0 0 24 24" enable-background="new 0 0 24 24" xml:space="preserve">
<g id="Filled_Icons">
	<g>
		<path d="M23.5,6H21V4.5C21,4.225,20.776,4,20.5,4H8V2.5C8,2.225,7.776,2,7.5,2h-7C0.224,2,0,2.225,0,2.5V19c0,1.655,1.346,3,3,3
			h17.5c1.93,0,3.5-1.569,3.5-3.5v-12C24,6.225,23.776,6,23.5,6z M19,17.5c0,0.827-0.673,1.5-1.5,1.5h-6c-0.827,0-1.5-0.673-1.5-1.5
			v-5c0-0.661,0.43-1.224,1.025-1.423C11.235,9.346,12.713,8,14.5,8s3.265,1.346,3.475,3.077C18.57,11.276,19,11.839,19,12.5V17.5z
			 M20,6H5.5C5.224,6,5,6.225,5,6.5V19c0,1.103-0.897,2-2,2c-1.102,0-2-0.897-2-2V3h6v1.5C7,4.777,7.224,5,7.5,5H20V6z"/>
		<path d="M17.5,12H17v-0.5c0-1.378-1.122-2.5-2.5-2.5S12,10.122,12,11.5V12h-0.5c-0.276,0-0.5,0.224-0.5,0.5v5
			c0,0.276,0.224,0.5,0.5,0.5h6c0.276,0,0.5-0.224,0.5-0.5v-5C18,12.224,17.776,12,17.5,12z M14.5,16c-0.551,0-1-0.449-1-1
			s0.449-1,1-1s1,0.449,1,1S15.051,16,14.5,16z M16,12h-3v-0.5c0-0.827,0.673-1.5,1.5-1.5s1.5,0.673,1.5,1.5V12z"/>
	</g>
</g>
<g id="Invisible_Shape">
	<rect fill="none" width="24" height="24"/>
</g>
</svg>
