<?xml version="1.0" encoding="utf-8"?>
<!-- Generator: Adobe Illustrator 19.2.1, SVG Export Plug-In . SVG Version: 6.00 Build 0)  -->
<svg version="1.1" xmlns="http://www.w3.org/2000/svg" xmlns:xlink="http://www.w3.org/1999/xlink" x="0px" y="0px" width="24px"
	 height="24px" viewBox="0 0 24 24" enable-background="new 0 0 24 24" xml:space="preserve">
<g id="Filled_Icons">
	<g>
		<path d="M17.5,11c-3.584,0-6.5,2.915-6.5,6.5c0,3.584,2.916,6.5,6.5,6.5s6.5-2.916,6.5-6.5C24,13.915,21.084,11,17.5,11z
			 M21.597,15.9l-4.096,4.357c-0.198,0.209-0.521,0.203-0.712,0.017l-2.926-2.841c-0.197-0.19-0.203-0.509-0.01-0.706
			c0.191-0.198,0.508-0.203,0.707-0.011l2.561,2.485l3.747-3.987c0.188-0.201,0.507-0.211,0.706-0.021
			C21.775,15.383,21.785,15.699,21.597,15.9z"/>
		<path d="M17.5,10c1.264,0,2.454,0.318,3.5,0.872V4.5C21,4.225,20.776,4,20.5,4H19V2.5C19,2.225,18.776,2,18.5,2H6V0.5
			C6,0.225,5.776,0,5.5,0h-5C0.224,0,0,0.225,0,0.5V16c0,1.103,0.897,2,2,2h8.025C9.727,13.607,13.229,10,17.5,10z M3,4.5V16
			c0,0.551-0.449,1-1,1s-1-0.449-1-1V1h4v1.5C5,2.777,5.224,3,5.5,3H18v1H3.5C3.224,4,3,4.225,3,4.5z"/>
	</g>
</g>
<g id="Invisible_Shape">
	<rect fill="none" width="24" height="24"/>
</g>
</svg>
