<?xml version="1.0" encoding="utf-8"?>
<!-- Generator: Adobe Illustrator 19.2.1, SVG Export Plug-In . SVG Version: 6.00 Build 0)  -->
<svg version="1.1" xmlns="http://www.w3.org/2000/svg" xmlns:xlink="http://www.w3.org/1999/xlink" x="0px" y="0px" width="24px"
	 height="24px" viewBox="0 0 24 24" enable-background="new 0 0 24 24" xml:space="preserve">
<g id="Filled_Icons">
	<g>
		<path d="M17.5,11c-3.584,0-6.5,2.916-6.5,6.5s2.916,6.5,6.5,6.5s6.5-2.916,6.5-6.5S21.084,11,17.5,11z M17.5,16.928
			c1.042,0,1.891,0.849,1.891,1.893c0,0.867-0.592,1.593-1.391,1.814v0.503c0,0.276-0.224,0.5-0.5,0.5s-0.5-0.224-0.5-0.5v-0.503
			c-0.799-0.221-1.391-0.947-1.391-1.814c0-0.276,0.224-0.5,0.5-0.5c0.276,0,0.5,0.224,0.5,0.5c0,0.49,0.399,0.89,0.891,0.89
			s0.891-0.399,0.891-0.89c0-0.492-0.399-0.893-0.891-0.893c-1.042,0-1.891-0.848-1.891-1.89c0-0.869,0.592-1.595,1.391-1.814
			v-0.504c0-0.276,0.224-0.5,0.5-0.5s0.5,0.224,0.5,0.5v0.504c0.799,0.22,1.391,0.946,1.391,1.814c0,0.276-0.224,0.5-0.5,0.5
			c-0.276,0-0.5-0.224-0.5-0.5c0-0.491-0.399-0.891-0.891-0.891s-0.891,0.4-0.891,0.891C16.609,16.528,17.009,16.928,17.5,16.928z"
			/>
		<path d="M17.5,10c1.264,0,2.454,0.318,3.5,0.872V4.5C21,4.225,20.776,4,20.5,4H19V2.5C19,2.225,18.776,2,18.5,2H6V0.5
			C6,0.225,5.776,0,5.5,0h-5C0.224,0,0,0.225,0,0.5V16c0,1.103,0.897,2,2,2h8.025C9.727,13.607,13.229,10,17.5,10z M3,4.5V16
			c0,0.551-0.449,1-1,1s-1-0.449-1-1V1h4v1.5C5,2.777,5.224,3,5.5,3H18v1H3.5C3.224,4,3,4.225,3,4.5z"/>
	</g>
</g>
<g id="Invisible_Shape">
	<rect fill="none" width="24" height="24"/>
</g>
</svg>
