<?xml version="1.0" encoding="utf-8"?>
<!-- Generator: Adobe Illustrator 19.2.1, SVG Export Plug-In . SVG Version: 6.00 Build 0)  -->
<svg version="1.1" xmlns="http://www.w3.org/2000/svg" xmlns:xlink="http://www.w3.org/1999/xlink" x="0px" y="0px" width="24px"
	 height="24px" viewBox="0 0 24 24" enable-background="new 0 0 24 24" xml:space="preserve">
<g id="Filled_Icons">
	<g>
		<path d="M17.5,11c-3.59,0-6.5,2.911-6.5,6.5c0,3.59,2.91,6.5,6.5,6.5s6.5-2.91,6.5-6.5C24,13.911,21.09,11,17.5,11z M20,17
			c-0.195,0.195-0.512,0.195-0.707,0L18,15.707V20.5c0,0.276-0.224,0.5-0.5,0.5S17,20.776,17,20.5v-4.793L15.707,17
			c-0.195,0.195-0.512,0.195-0.707,0c-0.195-0.195-0.195-0.511,0-0.707l2.146-2.146c0.195-0.195,0.512-0.195,0.707,0L20,16.293
			C20.195,16.489,20.195,16.805,20,17z"/>
		<path d="M17.5,10c1.264,0,2.454,0.318,3.5,0.872V4.5C21,4.225,20.776,4,20.5,4H19V2.5C19,2.225,18.776,2,18.5,2H6V0.5
			C6,0.225,5.776,0,5.5,0h-5C0.224,0,0,0.225,0,0.5V16c0,1.103,0.897,2,2,2h8.025C9.727,13.607,13.229,10,17.5,10z M3,4.5V16
			c0,0.551-0.449,1-1,1s-1-0.449-1-1V1h4v1.5C5,2.777,5.224,3,5.5,3H18v1H3.5C3.224,4,3,4.225,3,4.5z"/>
	</g>
</g>
<g id="Invisible_Shape">
	<rect fill="none" width="24" height="24"/>
</g>
</svg>
