<?xml version="1.0" encoding="utf-8"?>
<!-- Generator: Adobe Illustrator 19.2.1, SVG Export Plug-In . SVG Version: 6.00 Build 0)  -->
<svg version="1.1" xmlns="http://www.w3.org/2000/svg" xmlns:xlink="http://www.w3.org/1999/xlink" x="0px" y="0px" width="24px"
	 height="24px" viewBox="0 0 24 24" enable-background="new 0 0 24 24" xml:space="preserve">
<g id="Filled_Icons">
	<g>
		<path d="M12,16.909c-0.575,0.204-1.239,0.047-1.652-0.449c-0.53-0.637-0.444-1.582,0.192-2.113l6-5
			c0.557-0.463,1.364-0.463,1.921,0L21,11.464V4.5C21,4.225,20.776,4,20.5,4H19V2.5C19,2.225,18.776,2,18.5,2H6V0.5
			C6,0.225,5.776,0,5.5,0h-5C0.224,0,0,0.225,0,0.5V16c0,1.103,0.897,2,2,2h10V16.909z M3,4.5V16c0,0.551-0.449,1-1,1s-1-0.449-1-1
			V1h4v1.5C5,2.777,5.224,3,5.5,3H18v1H3.5C3.224,4,3,4.225,3,4.5z"/>
		<g>
			<g>
				<path d="M17.5,12.453l-4.5,3.75V21.5c0,0.276,0.224,0.5,0.5,0.5h8c0.276,0,0.5-0.224,0.5-0.5v-5.297L17.5,12.453z"/>
			</g>
			<g>
				<path d="M23.18,15.884l-5.68-4.733l-5.68,4.733c-0.213,0.176-0.527,0.148-0.705-0.064c-0.177-0.212-0.148-0.528,0.064-0.705l6-5
					c0.185-0.154,0.455-0.154,0.641,0l6,5c0.212,0.177,0.241,0.492,0.064,0.705C23.708,16.032,23.394,16.062,23.18,15.884z"/>
			</g>
		</g>
	</g>
</g>
<g id="Invisible_Shape">
	<rect fill="none" width="24" height="24"/>
</g>
</svg>
