<?xml version="1.0" encoding="utf-8"?>
<!-- Generator: Adobe Illustrator 19.2.1, SVG Export Plug-In . SVG Version: 6.00 Build 0)  -->
<svg version="1.1" xmlns="http://www.w3.org/2000/svg" xmlns:xlink="http://www.w3.org/1999/xlink" x="0px" y="0px" width="24px"
	 height="24px" viewBox="0 0 24 24" enable-background="new 0 0 24 24" xml:space="preserve">
<g id="Filled_Icons">
	<g>
		<path d="M22.5,4H7.707L5.853,2.147C5.76,2.053,5.633,2,5.5,2h-5C0.224,2,0,2.224,0,2.5v16C0,18.776,0.224,19,0.5,19H11v3H5
			c-0.276,0-0.5,0.224-0.5,0.5S4.724,23,5,23h13c0.276,0,0.5-0.224,0.5-0.5S18.276,22,18,22h-6v-3h10.5c0.276,0,0.5-0.224,0.5-0.5
			v-14C23,4.224,22.776,4,22.5,4z"/>
		<circle cx="0.5" cy="22.5" r="0.5"/>
		<circle cx="2.5" cy="22.5" r="0.5"/>
		<circle cx="20.5" cy="22.5" r="0.5"/>
		<circle cx="22.5" cy="22.5" r="0.5"/>
	</g>
</g>
<g id="Invisible_Shape">
	<rect fill="none" width="24" height="24"/>
</g>
</svg>
