<?xml version="1.0" encoding="utf-8"?>
<!-- Generator: Adobe Illustrator 19.2.1, SVG Export Plug-In . SVG Version: 6.00 Build 0)  -->
<svg version="1.1" xmlns="http://www.w3.org/2000/svg" xmlns:xlink="http://www.w3.org/1999/xlink" x="0px" y="0px" width="24px"
	 height="24px" viewBox="0 0 24 24" enable-background="new 0 0 24 24" xml:space="preserve">
<g id="Filled_Icons">
	<g>
		<path d="M21.884,6.18l-5-6C16.789,0.066,16.648,0,16.5,0h-11C5.224,0,5,0.224,5,0.5V10h1.5c0.398,0,0.779,0.159,1.061,0.44
			l0.688,0.688C8.379,10.723,8.568,10.347,8.8,10H8.5C8.224,10,8,9.776,8,9.5S8.224,9,8.5,9h1.217
			c0.765-0.616,1.724-0.998,2.783-0.998S14.518,8.384,15.283,9H18.5C18.776,9,19,9.224,19,9.5S18.776,10,18.5,10h-2.3
			c0.407,0.607,0.684,1.311,0.757,2.079C17.56,12.273,18,12.832,18,13.5v7c0,0.803-0.667,1.5-1.5,1.5h-8C7.671,22,7,21.329,7,20.5
			v-7c0-0.6,0.363-1.097,0.872-1.335l-1.019-1.018C6.76,11.053,6.633,11,6.5,11h-6C0.224,11,0,11.224,0,11.5v12
			C0,23.776,0.224,24,0.5,24h17c0.276,0,0.5-0.224,0.5-0.5V22h3.5c0.276,0,0.5-0.224,0.5-0.5v-15C22,6.383,21.959,6.269,21.884,6.18
			z M14.5,7h-6C8.224,7,8,6.776,8,6.5S8.224,6,8.5,6h6C14.776,6,15,6.224,15,6.5S14.776,7,14.5,7z M14.5,4h-6C8.224,4,8,3.776,8,3.5
			S8.224,3,8.5,3h6C14.776,3,15,3.224,15,3.5S14.776,4,14.5,4z M16.5,7C16.224,7,16,6.776,16,6.5V1.148L21.087,7H16.5z"/>
		<path d="M12.5,9.002c-1.93,0-3.5,1.571-3.5,3.5V13H8.5C8.224,13,8,13.224,8,13.5v7C8,20.776,8.224,21,8.5,21h8
			c0.276,0,0.5-0.224,0.5-0.5v-7c0-0.276-0.224-0.5-0.5-0.5H16v-0.498C16,10.573,14.43,9.002,12.5,9.002z M13,16.847V18.5
			c0,0.276-0.224,0.5-0.5,0.5S12,18.776,12,18.5v-1.653c-0.293-0.174-0.5-0.482-0.5-0.847c0-0.551,0.449-1,1-1s1,0.449,1,1
			C13.5,16.365,13.293,16.672,13,16.847z M15,13h-5v-0.498c0-1.378,1.122-2.5,2.5-2.5s2.5,1.122,2.5,2.5V13z"/>
	</g>
</g>
<g id="Invisible_Shape">
	<rect fill="none" width="24" height="24"/>
</g>
</svg>
