<?xml version="1.0" encoding="utf-8"?>
<!-- Generator: Adobe Illustrator 19.2.1, SVG Export Plug-In . SVG Version: 6.00 Build 0)  -->
<svg version="1.1" xmlns="http://www.w3.org/2000/svg" xmlns:xlink="http://www.w3.org/1999/xlink" x="0px" y="0px" width="24px"
	 height="24px" viewBox="0 0 24 24" enable-background="new 0 0 24 24" xml:space="preserve">
<g id="Filled_Icons">
	<g>
		<path d="M12,15.5c0-0.827,0.673-1.5,1.5-1.5h0.528c0.25-2.247,2.16-4,4.472-4c0.928,0,1.783,0.292,2.5,0.774V4.5
			C21,4.225,20.776,4,20.5,4H19V2.5C19,2.225,18.776,2,18.5,2H6V0.5C6,0.225,5.776,0,5.5,0h-5C0.224,0,0,0.225,0,0.5V16
			c0,1.103,0.897,2,2,2h10V15.5z M3,4.5V16c0,0.551-0.449,1-1,1s-1-0.449-1-1V1h4v1.5C5,2.777,5.224,3,5.5,3H18v1H3.5
			C3.224,4,3,4.225,3,4.5z"/>
		<path d="M23.5,15H22v-0.5c0-1.929-1.57-3.5-3.5-3.5S15,12.571,15,14.5V15h-1.5c-0.276,0-0.5,0.224-0.5,0.5v8
			c0,0.276,0.224,0.5,0.5,0.5h10c0.276,0,0.5-0.224,0.5-0.5v-8C24,15.224,23.776,15,23.5,15z M19,19.348V21
			c0,0.276-0.224,0.5-0.5,0.5S18,21.276,18,21v-1.652c-0.293-0.175-0.5-0.483-0.5-0.848c0-0.551,0.448-1,1-1s1,0.449,1,1
			C19.5,18.865,19.293,19.172,19,19.348z M21,15h-5v-0.5c0-1.378,1.121-2.5,2.5-2.5s2.5,1.122,2.5,2.5V15z"/>
	</g>
</g>
<g id="Invisible_Shape">
	<rect fill="none" width="24" height="24"/>
</g>
</svg>
