<?xml version="1.0" encoding="utf-8"?>
<!-- Generator: Adobe Illustrator 19.2.1, SVG Export Plug-In . SVG Version: 6.00 Build 0)  -->
<svg version="1.1" xmlns="http://www.w3.org/2000/svg" xmlns:xlink="http://www.w3.org/1999/xlink" x="0px" y="0px" width="24px"
	 height="24px" viewBox="0 0 24 24" enable-background="new 0 0 24 24" xml:space="preserve">
<g id="Filled_Icons">
	<g>
		<circle cx="0.75" cy="2.25" r="0.75"/>
		<circle cx="0.75" cy="4.25" r="0.75"/>
		<circle cx="0.75" cy="6.25" r="0.75"/>
		<circle cx="0.75" cy="8.25" r="0.75"/>
		<circle cx="0.75" cy="10.25" r="0.75"/>
		<circle cx="0.75" cy="12.25" r="0.75"/>
		<circle cx="0.75" cy="14.25" r="0.75"/>
		<circle cx="0.75" cy="16.25" r="0.75"/>
		<circle cx="0.75" cy="18.25" r="0.75"/>
		<circle cx="1.75" cy="20.25" r="0.75"/>
		<circle cx="9" cy="21.25" r="0.75"/>
		<circle cx="7" cy="21.25" r="0.75"/>
		<circle cx="11" cy="21.25" r="0.75"/>
		<circle cx="13" cy="21.25" r="0.75"/>
		<circle cx="15" cy="21.25" r="0.75"/>
		<circle cx="17" cy="21.25" r="0.75"/>
		<circle cx="19" cy="21.25" r="0.75"/>
		<circle cx="21" cy="21.25" r="0.75"/>
		<circle cx="23.25" cy="20.25" r="0.75"/>
		<circle cx="23.25" cy="18.25" r="0.75"/>
		<circle cx="23.25" cy="16.25" r="0.75"/>
		<circle cx="23.25" cy="14.25" r="0.75"/>
		<circle cx="23.25" cy="12.25" r="0.75"/>
		<circle cx="23.25" cy="10.25" r="0.75"/>
		<circle cx="23.25" cy="8.25" r="0.75"/>
		<circle cx="23.25" cy="6.25" r="0.75"/>
		<circle cx="21.5" cy="6.25" r="0.75"/>
		<circle cx="19.5" cy="6.25" r="0.75"/>
		<circle cx="17.5" cy="6.25" r="0.75"/>
		<circle cx="15.5" cy="6.25" r="0.75"/>
		<circle cx="13.5" cy="6.25" r="0.75"/>
		<circle cx="11.5" cy="6.25" r="0.75"/>
		<circle cx="9.5" cy="6.25" r="0.75"/>
		<circle cx="7.5" cy="6.25" r="0.75"/>
		<circle cx="5.5" cy="6.25" r="0.75"/>
		<circle cx="5.5" cy="8.25" r="0.75"/>
		<circle cx="5.5" cy="10.25" r="0.75"/>
		<circle cx="5.5" cy="12.25" r="0.75"/>
		<circle cx="5.5" cy="14.25" r="0.75"/>
		<circle cx="5.5" cy="16.25" r="0.75"/>
		<circle cx="5.5" cy="18.25" r="0.75"/>
		<circle cx="4.5" cy="20.25" r="0.75"/>
		<circle cx="2.75" cy="2.25" r="0.75"/>
		<circle cx="4.75" cy="2.25" r="0.75"/>
		<circle cx="6.75" cy="2.25" r="0.75"/>
		<circle cx="8.75" cy="2.25" r="0.75"/>
		<circle cx="8.5" cy="4.25" r="0.75"/>
		<circle cx="10.5" cy="4.25" r="0.75"/>
		<circle cx="12.5" cy="4.25" r="0.75"/>
		<circle cx="14.5" cy="4.25" r="0.75"/>
		<circle cx="16.5" cy="4.25" r="0.75"/>
		<circle cx="18.5" cy="4.25" r="0.75"/>
		<circle cx="20.5" cy="4.25" r="0.75"/>
	</g>
</g>
<g id="Invisible_Shape">
	<rect fill="none" width="24" height="24"/>
</g>
</svg>
