<?xml version="1.0" encoding="utf-8"?>
<!-- Generator: Adobe Illustrator 19.2.1, SVG Export Plug-In . SVG Version: 6.00 Build 0)  -->
<svg version="1.1" xmlns="http://www.w3.org/2000/svg" xmlns:xlink="http://www.w3.org/1999/xlink" x="0px" y="0px" width="24px"
	 height="24px" viewBox="0 0 24 24" enable-background="new 0 0 24 24" xml:space="preserve">
<g id="Filled_Icons">
	<g>
		<path d="M17.5,11c-3.584,0-6.5,2.915-6.5,6.5c0,3.584,2.916,6.5,6.5,6.5s6.5-2.916,6.5-6.5C24,13.915,21.084,11,17.5,11z
			 M13.035,16.014c1.135-3.208,5.287-4.051,7.742-1.484v-0.568c0-0.277,0.224-0.5,0.5-0.5c0.276,0,0.5,0.223,0.5,0.5v2.221
			c0,0.276-0.224,0.5-0.5,0.5h-2.223c-0.275,0-0.5-0.224-0.5-0.5c0-0.276,0.225-0.5,0.5-0.5h1.379
			c-1.579-2.395-5.434-2.215-6.457,0.666c-0.089,0.252-0.366,0.4-0.638,0.305C13.078,16.56,12.942,16.274,13.035,16.014z
			 M21.965,18.986c-1.137,3.213-5.293,4.047-7.742,1.487v0.567c0,0.276-0.223,0.5-0.5,0.5c-0.275,0-0.5-0.224-0.5-0.5v-2.222
			c0-0.276,0.225-0.5,0.5-0.5h2.223c0.276,0,0.5,0.224,0.5,0.5c0,0.275-0.224,0.5-0.5,0.5h-1.379
			c1.577,2.396,5.435,2.215,6.457-0.667c0.092-0.26,0.378-0.396,0.638-0.304C21.922,18.44,22.058,18.726,21.965,18.986z"/>
		<path d="M17.5,10c1.264,0,2.454,0.318,3.5,0.872V4.5C21,4.225,20.776,4,20.5,4H19V2.5C19,2.225,18.776,2,18.5,2H6V0.5
			C6,0.225,5.776,0,5.5,0h-5C0.224,0,0,0.225,0,0.5V16c0,1.103,0.897,2,2,2h8.025C9.727,13.607,13.229,10,17.5,10z M3,4.5V16
			c0,0.551-0.449,1-1,1s-1-0.449-1-1V1h4v1.5C5,2.777,5.224,3,5.5,3H18v1H3.5C3.224,4,3,4.225,3,4.5z"/>
	</g>
</g>
<g id="Invisible_Shape">
	<rect fill="none" width="24" height="24"/>
</g>
</svg>
