<?xml version="1.0" encoding="utf-8"?>
<!-- Generator: Adobe Illustrator 19.2.1, SVG Export Plug-In . SVG Version: 6.00 Build 0)  -->
<svg version="1.1" xmlns="http://www.w3.org/2000/svg" xmlns:xlink="http://www.w3.org/1999/xlink" x="0px" y="0px" width="24px"
	 height="24px" viewBox="0 0 24 24" enable-background="new 0 0 24 24" xml:space="preserve">
<g id="Filled_Icons">
	<g>
		<path d="M17.991,13.454c0.013,0.452-0.177,0.896-0.538,1.196l-2.182,1.816l1.126,3.006c0.517,1.382-1.075,2.605-2.276,1.747
			l-2.628-1.876l-2.629,1.876c-1.2,0.858-2.794-0.365-2.276-1.748l1.126-3.005L5.533,14.65c-1.075-0.896-0.439-2.652,0.96-2.652
			h1.211l-0.851-0.851C6.76,11.053,6.633,11,6.5,11h-6C0.224,11,0,11.224,0,11.5v12C0,23.776,0.224,24,0.5,24h17
			c0.276,0,0.5-0.224,0.5-0.5C18,23.349,18.005,13.604,17.991,13.454z"/>
		<path d="M21.884,6.18l-5-6C16.789,0.066,16.648,0,16.5,0h-11C5.224,0,5,0.224,5,0.5V10h1.5c0.398,0,0.779,0.159,1.061,0.44
			l1.479,1.479L9.867,10H8.5C8.224,10,8,9.776,8,9.5S8.224,9,8.5,9h1.891c0.602-0.667,1.617-0.667,2.218,0H18.5
			C18.776,9,19,9.224,19,9.5S18.776,10,18.5,10h-5.369l0.853,2H17.5c0.829,0,1.5,0.671,1.5,1.5V22h2.5c0.276,0,0.5-0.224,0.5-0.5
			v-15C22,6.383,21.959,6.269,21.884,6.18z M14.5,7h-6C8.224,7,8,6.776,8,6.5S8.224,6,8.5,6h6C14.776,6,15,6.224,15,6.5
			S14.776,7,14.5,7z M14.5,4h-6C8.224,4,8,3.776,8,3.5S8.224,3,8.5,3h6C14.776,3,15,3.224,15,3.5S14.776,4,14.5,4z M16.5,7
			C16.224,7,16,6.776,16,6.5V1.148L21.087,7H16.5z"/>
		<path d="M16.493,12.998h-3.17L11.96,9.804c-0.172-0.403-0.746-0.405-0.919-0.001l-1.377,3.195H6.493
			c-0.468,0-0.678,0.586-0.32,0.884L8.9,16.152l-1.376,3.67c-0.173,0.461,0.359,0.867,0.759,0.583l3.21-2.29l3.209,2.29
			c0.397,0.285,0.933-0.119,0.759-0.582l-1.375-3.67l2.727-2.271C17.172,13.583,16.96,12.998,16.493,12.998z"/>
	</g>
</g>
<g id="Invisible_Shape">
	<rect fill="none" width="24" height="24"/>
</g>
</svg>
