<?xml version="1.0" encoding="utf-8"?>
<!-- Generator: Adobe Illustrator 19.2.1, SVG Export Plug-In . SVG Version: 6.00 Build 0)  -->
<svg version="1.1" xmlns="http://www.w3.org/2000/svg" xmlns:xlink="http://www.w3.org/1999/xlink" x="0px" y="0px" width="24px"
	 height="24px" viewBox="0 0 24 24" enable-background="new 0 0 24 24" xml:space="preserve">
<g id="Filled_Icons">
	<path d="M23.5,6H21V4.5C21,4.224,20.776,4,20.5,4H8V2.5C8,2.224,7.776,2,7.5,2h-7C0.224,2,0,2.224,0,2.5V19c0,1.654,1.346,3,3,3
		h17.5c1.93,0,3.5-1.57,3.5-3.5v-12C24,6.224,23.776,6,23.5,6z M17.5,17.5c0,0.276-0.224,0.5-0.5,0.5h1c0.276,0,0.5,0.224,0.5,0.5
		S18.276,19,18,19h-1c0.276,0,0.5,0.224,0.5,0.5S17.276,20,17,20h1c0.276,0,0.5,0.224,0.5,0.5S18.276,21,18,21h-1
		c-0.276,0-0.5-0.224-0.5-0.5S16.724,20,17,20h-1c-0.276,0-0.5-0.224-0.5-0.5S15.724,19,16,19h1c-0.276,0-0.5-0.224-0.5-0.5
		S16.724,18,17,18h-1c-0.276,0-0.5-0.224-0.5-0.5S15.724,17,16,17h1c-0.276,0-0.5-0.224-0.5-0.5S16.724,16,17,16h-1
		c-0.276,0-0.5-0.224-0.5-0.5S15.724,15,16,15h1c0.276,0,0.5,0.224,0.5,0.5S17.276,16,17,16h1c0.276,0,0.5,0.224,0.5,0.5
		S18.276,17,18,17h-1C17.276,17,17.5,17.224,17.5,17.5z M16,13h2V9h-0.5C17.224,9,17,8.776,17,8.5V6H5.5C5.224,6,5,6.224,5,6.5V19
		c0,1.103-0.897,2-2,2c-1.102,0-2-0.897-2-2V3h6v1.5C7,4.776,7.224,5,7.5,5H20v1h-2v2h0.5C18.776,8,19,8.224,19,8.5v5
		c0,0.276-0.224,0.5-0.5,0.5h-3c-0.276,0-0.5-0.224-0.5-0.5v-5C15,8.224,15.224,8,15.5,8S16,8.224,16,8.5V11h1v1h-1V13z"/>
</g>
<g id="Invisible_Shape">
	<rect fill="none" width="24" height="24"/>
</g>
</svg>
