<?xml version="1.0" encoding="utf-8"?>
<!-- Generator: Adobe Illustrator 19.2.1, SVG Export Plug-In . SVG Version: 6.00 Build 0)  -->
<svg version="1.1" xmlns="http://www.w3.org/2000/svg" xmlns:xlink="http://www.w3.org/1999/xlink" x="0px" y="0px" width="24px"
	 height="24px" viewBox="0 0 24 24" enable-background="new 0 0 24 24" xml:space="preserve">
<g id="Filled_Icons">
	<g>
		<path d="M14,10c-2.206,0-4,1.794-4,4s1.794,4,4,4s4-1.794,4-4S16.206,10,14,10z M11,14c0-1.654,1.346-3,3-3
			c0.646,0,1.242,0.21,1.733,0.56l-4.173,4.173C11.21,15.243,11,14.647,11,14z M14,17c-0.647,0-1.243-0.21-1.733-0.56l4.173-4.173
			C16.79,12.758,17,13.354,17,14C17,15.654,15.654,17,14,17z"/>
		<path d="M23.5,6H21V4.5C21,4.225,20.776,4,20.5,4H8V2.5C8,2.225,7.776,2,7.5,2h-7C0.224,2,0,2.225,0,2.5V19c0,1.655,1.346,3,3,3
			h17.5c1.93,0,3.5-1.569,3.5-3.5v-12C24,6.225,23.776,6,23.5,6z M14,19c-2.757,0-5-2.243-5-5s2.243-5,5-5s5,2.243,5,5
			S16.757,19,14,19z M20,6H5.5C5.224,6,5,6.225,5,6.5V19c0,1.103-0.897,2-2,2c-1.102,0-2-0.897-2-2V3h6v1.5C7,4.777,7.224,5,7.5,5
			H20V6z"/>
	</g>
</g>
<g id="Invisible_Shape">
	<rect fill="none" width="24" height="24"/>
</g>
</svg>
