<?xml version="1.0" encoding="utf-8"?>
<!-- Generator: Adobe Illustrator 19.2.1, SVG Export Plug-In . SVG Version: 6.00 Build 0)  -->
<svg version="1.1" xmlns="http://www.w3.org/2000/svg" xmlns:xlink="http://www.w3.org/1999/xlink" x="0px" y="0px" width="24px"
	 height="24px" viewBox="0 0 24 24" enable-background="new 0 0 24 24" xml:space="preserve">
<g id="Filled_Icons">
	<path d="M23.5,4H21V2.5C21,2.224,20.776,2,20.5,2h-6C14.224,2,14,2.224,14,2.5V4H9.707L7.853,2.147C7.76,2.053,7.633,2,7.5,2h-7
		C0.224,2,0,2.224,0,2.5v19C0,21.776,0.224,22,0.5,22h23c0.276,0,0.5-0.224,0.5-0.5v-17C24,4.224,23.776,4,23.5,4z M20,13.293
		l-2.146-2.147c-0.195-0.195-0.512-0.195-0.707,0L15,13.293V3h5V13.293z"/>
</g>
<g id="Invisible_Shape">
	<rect fill="none" width="24" height="24"/>
</g>
</svg>
