<?xml version="1.0" encoding="utf-8"?>
<!-- Generator: Adobe Illustrator 19.2.1, SVG Export Plug-In . SVG Version: 6.00 Build 0)  -->
<svg version="1.1" xmlns="http://www.w3.org/2000/svg" xmlns:xlink="http://www.w3.org/1999/xlink" x="0px" y="0px" width="24px"
	 height="24px" viewBox="0 0 24 24" enable-background="new 0 0 24 24" xml:space="preserve">
<g id="Filled_Icons">
	<g>
		<path d="M21.884,6.18l-5-6C16.789,0.066,16.648,0,16.5,0h-11C5.224,0,5,0.224,5,0.5V10h1.5c0.398,0,0.779,0.159,1.061,0.44
			L9.121,12h1.04l2-2H8.5C8.224,10,8,9.776,8,9.5S8.224,9,8.5,9h10C18.776,9,19,9.224,19,9.5S18.776,10,18.5,10h-3.11l2.11,2
			c0.829,0,1.5,0.671,1.5,1.5V22h2.5c0.276,0,0.5-0.224,0.5-0.5v-15C22,6.383,21.959,6.269,21.884,6.18z M14.5,7h-6
			C8.224,7,8,6.776,8,6.5S8.224,6,8.5,6h6C14.776,6,15,6.224,15,6.5S14.776,7,14.5,7z M14.5,4h-6C8.224,4,8,3.776,8,3.5
			S8.224,3,8.5,3h6C14.776,3,15,3.224,15,3.5S14.776,4,14.5,4z M16.5,7C16.224,7,16,6.776,16,6.5V1.148L21.087,7H16.5z"/>
		<path d="M17.761,13.083c-0.019,0.357-0.152,0.711-0.425,0.984l-7.501,7.501c-0.127,0.126-0.279,0.218-0.441,0.292
			c-0.271,0.123-3.417,1.006-3.708,1.089c-0.524,0.149-1.086,0.005-1.473-0.382c-0.385-0.385-0.531-0.949-0.382-1.473
			c0.078-0.273,0.973-3.457,1.09-3.709c0.074-0.161,0.166-0.313,0.292-0.439L9.161,13H8.707l-1.853-1.854
			C6.76,11.053,6.633,11,6.5,11h-6C0.224,11,0,11.224,0,11.5v12C0,23.776,0.224,24,0.5,24h17c0.276,0,0.5-0.224,0.5-0.5v-10
			C18,13.321,17.901,13.172,17.761,13.083z"/>
		<g>
			<path d="M5.713,18.154l-0.919,3.217c-0.05,0.175-0.001,0.363,0.127,0.491c0.129,0.129,0.316,0.177,0.491,0.128l3.217-0.919
				L5.713,18.154z"/>
			<rect x="6.885" y="14.24" transform="matrix(0.707 -0.7072 0.7072 0.707 -8.6641 12.1024)" width="6.78" height="4.535"/>
			<path d="M16.629,12.653l-2.5-2.5c-0.188-0.188-0.519-0.188-0.707,0L11.775,11.8l3.207,3.207l1.647-1.647
				C16.824,13.165,16.824,12.849,16.629,12.653z"/>
		</g>
	</g>
</g>
<g id="Invisible_Shape">
	<rect fill="none" width="24" height="24"/>
</g>
</svg>
