<?xml version="1.0" encoding="utf-8"?>
<!-- Generator: Adobe Illustrator 19.2.1, SVG Export Plug-In . SVG Version: 6.00 Build 0)  -->
<svg version="1.1" xmlns="http://www.w3.org/2000/svg" xmlns:xlink="http://www.w3.org/1999/xlink" x="0px" y="0px" width="24px"
	 height="24px" viewBox="0 0 24 24" enable-background="new 0 0 24 24" xml:space="preserve">
<g id="Filled_Icons">
	<g>
		<path d="M11.54,17.653c-0.49-0.408-0.668-1.06-0.45-1.663C11.307,15.389,11.861,15,12.5,15h2.572l1.578-3.168
			C16.903,11.319,17.419,11,17.994,11c0.578,0,1.095,0.318,1.349,0.83l1.577,3.167H21V4.5C21,4.225,20.776,4,20.5,4H19V2.5
			C19,2.225,18.776,2,18.5,2H6V0.5C6,0.225,5.776,0,5.5,0h-5C0.224,0,0,0.225,0,0.5V16c0,1.103,0.897,2,2,2h9.956L11.54,17.653z
			 M3,4.5V16c0,0.551-0.449,1-1,1s-1-0.449-1-1V1h4v1.5C5,2.777,5.224,3,5.5,3H18v1H3.5C3.224,4,3,4.225,3,4.5z"/>
		<path d="M23.492,16h-3.191l-1.854-3.726c-0.177-0.356-0.715-0.376-0.902,0.003L15.691,16H12.5c-0.468,0-0.679,0.587-0.32,0.885
			l2.738,2.281l-1.391,4.17c-0.162,0.465,0.353,0.846,0.748,0.569l3.723-2.545l3.719,2.542c0.397,0.276,0.911-0.107,0.748-0.57
			l-1.391-4.169l2.738-2.282C24.167,16.589,23.964,16,23.492,16z"/>
	</g>
</g>
<g id="Invisible_Shape">
	<rect fill="none" width="24" height="24"/>
</g>
</svg>
