<?xml version="1.0" encoding="utf-8"?>
<!-- Generator: Adobe Illustrator 19.2.1, SVG Export Plug-In . SVG Version: 6.00 Build 0)  -->
<svg version="1.1" xmlns="http://www.w3.org/2000/svg" xmlns:xlink="http://www.w3.org/1999/xlink" x="0px" y="0px" width="24px"
	 height="24px" viewBox="0 0 24 24" enable-background="new 0 0 24 24" xml:space="preserve">
<g id="Filled_Icons">
	<g>
		<path d="M24,14.5c0-0.276-0.224-0.5-0.5-0.5H22v-1.5c0-0.276-0.224-0.5-0.5-0.5h-9c-0.276,0-0.5-0.224-0.5-0.5
			c0-0.276-0.224-0.5-0.5-0.5h-4C7.224,11,7,11.224,7,11.5V22c0,1.103,0.898,2,2,2h11.5c1.874,0,3.5-1.529,3.5-3.5V14.5z M21,14
			H10.5c-0.276,0-0.5,0.224-0.5,0.5V22c0,0.551-0.449,1-1,1s-1-0.449-1-1V12h3v0.5c0,0.276,0.224,0.5,0.5,0.5H21V14z"/>
		<path d="M18.147,2.853l2,2c0.195,0.195,0.512,0.195,0.707,0c0.195-0.195,0.195-0.512,0-0.707L19.707,3H21c0.551,0,1,0.448,1,1v4.5
			C22,8.776,22.224,9,22.5,9S23,8.776,23,8.5V4c0-1.103-0.897-2-2-2h-1.293l1.146-1.146c0.195-0.195,0.195-0.512,0-0.707
			c-0.195-0.195-0.512-0.195-0.707,0l-2,1.999C17.947,2.347,17.956,2.665,18.147,2.853z"/>
		<path d="M5.853,21.146l-2-1.999c-0.195-0.195-0.512-0.195-0.707,0c-0.195,0.195-0.195,0.512,0,0.707L4.293,21H3
			c-0.551,0-1-0.449-1-1v-3.5C2,16.224,1.776,16,1.5,16S1,16.224,1,16.5V20c0,1.103,0.898,2,2,2h1.293l-1.147,1.146
			c-0.195,0.195-0.195,0.512,0,0.707c0.195,0.195,0.512,0.195,0.707,0l2-2C6.042,21.667,6.056,21.351,5.853,21.146z"/>
		<path d="M12.5,10c0.276,0,0.5,0.224,0.5,0.5V11h4V4.5C17,4.224,16.776,4,16.5,4H15V2.5C15,2.224,14.776,2,14.5,2H6V0.5
			C6,0.224,5.776,0,5.5,0h-5C0.224,0,0,0.224,0,0.5V11c0,1.102,0.897,2,2,2h4v-2.5C6,10.224,6.224,10,6.5,10H12.5z M3.5,4
			C3.224,4,3,4.224,3,4.5V11c0,0.551-0.449,1-1,1s-1-0.449-1-1V1h4v1.5C5,2.776,5.224,3,5.5,3H14v1H3.5z"/>
	</g>
</g>
<g id="Invisible_Shape">
	<rect fill="none" width="24" height="24"/>
</g>
</svg>
