<?xml version="1.0" encoding="utf-8"?>
<!-- Generator: Adobe Illustrator 19.2.0, SVG Export Plug-In . SVG Version: 6.00 Build 0)  -->
<svg version="1.1" xmlns="http://www.w3.org/2000/svg" xmlns:xlink="http://www.w3.org/1999/xlink" x="0px" y="0px" width="24px"
	 height="24px" viewBox="0 0 24 24" enable-background="new 0 0 24 24" xml:space="preserve">
<g id="Filled_Icons">
	<path d="M22.147,9c1.211-0.621,1.574-2.125,0.871-2.829c-0.594-0.594-1.682-0.439-2.476,0.354
		c-0.525,0.526-0.735,1.546-0.813,2.089C18.866,8.852,16.161,9.5,12.189,9.5c-3.972,0-6.677-0.648-7.542-0.887
		C4.57,8.069,4.361,7.051,3.836,6.524C3.044,5.731,1.957,5.576,1.361,6.171C0.655,6.877,1.026,8.382,2.231,9
		c-1.074,0.545-1.655,2.043-0.87,2.828c0.584,0.584,1.522,0.396,2.194-0.118l-0.547,3.011c-0.049,0.273,0.131,0.532,0.402,0.582
		c0.295,0.048,0.535-0.146,0.582-0.402l0.817-4.496c2.479,2.768,4.256,5.648,5.41,8.769c0.072,0.196,0.26,0.326,0.469,0.326h3
		c0.209,0,0.396-0.13,0.469-0.326c1.154-3.122,2.932-6.002,5.41-8.771l0.818,4.498c0.046,0.256,0.287,0.45,0.582,0.402
		c0.271-0.05,0.451-0.309,0.402-0.582l-0.548-3.01c0.679,0.518,1.614,0.698,2.195,0.117C23.798,11.049,23.229,9.549,22.147,9z
		 M21.25,7.231c0.239-0.238,0.842-0.573,1.062-0.353c0.141,0.141,0.071,0.636-0.354,1.062c-0.22,0.22-0.717,0.377-1.179,0.471
		C20.873,7.947,21.03,7.451,21.25,7.231z M2.068,6.878c0.145-0.144,0.63-0.076,1.061,0.353c0.22,0.22,0.377,0.715,0.471,1.177
		C3.15,8.316,2.645,8.161,2.422,7.939C1.99,7.508,1.924,7.023,2.068,6.878z M2.068,11.121c-0.145-0.145-0.078-0.629,0.354-1.061
		C2.642,9.841,3.138,9.684,3.6,9.59c-0.094,0.462-0.251,0.958-0.471,1.178C2.697,11.199,2.211,11.263,2.068,11.121z M22.312,11.121
		c-0.146,0.143-0.63,0.078-1.062-0.354c-0.219-0.22-0.377-0.716-0.471-1.178c0.462,0.094,0.959,0.251,1.179,0.471
		C22.389,10.492,22.455,10.977,22.312,11.121z"/>
</g>
<g id="invisible_shape">
	<rect fill="none" width="24" height="24"/>
</g>
</svg>
