<?xml version="1.0" encoding="utf-8"?>
<!-- Generator: Adobe Illustrator 19.2.0, SVG Export Plug-In . SVG Version: 6.00 Build 0)  -->
<svg version="1.1" xmlns="http://www.w3.org/2000/svg" xmlns:xlink="http://www.w3.org/1999/xlink" x="0px" y="0px" width="24px"
	 height="24px" viewBox="0 0 24 24" enable-background="new 0 0 24 24" xml:space="preserve">
<g id="Filled_Icons">
	<g>
		<path d="M15.39,21c0.526-0.522,1.106-0.887,1.61-1.036V21h5V2.5c0-1.371-1.88-2.066-4-2.32V7c0,1.102-0.897,2-2,2s-2-0.898-2-2
			V0.181c-2.119,0.256-3.999,0.963-3.996,2.381l1.343,10.708c0.06,0.477-0.114,0.956-0.463,1.283
			c-0.739,0.691-1.747,1.002-2.913,1.362c-2.133,0.657-4.786,1.476-7.347,5.019C0.609,20.952,0.612,20.979,0.602,21H15.39z"/>
		<path d="M17,22v1.5c0,0.276,0.224,0.5,0.5,0.5h4c0.276,0,0.5-0.224,0.5-0.5V22H17z"/>
		<path d="M0.512,22L0.5,22.488c-0.004,0.172,0.08,0.333,0.223,0.428l1.5,1C2.305,23.971,2.401,24,2.5,24h10.958
			c0.235,0,0.438-0.164,0.488-0.394c0.13-0.6,0.368-1.133,0.657-1.606H0.512z"/>
	</g>
</g>
<g id="invisible_shape">
	<rect fill="none" width="24" height="24"/>
</g>
</svg>
