<?xml version="1.0" encoding="utf-8"?>
<!-- Generator: Adobe Illustrator 19.2.0, SVG Export Plug-In . SVG Version: 6.00 Build 0)  -->
<svg version="1.1" xmlns="http://www.w3.org/2000/svg" xmlns:xlink="http://www.w3.org/1999/xlink" x="0px" y="0px" width="24px"
	 height="24px" viewBox="0 0 24 24" enable-background="new 0 0 24 24" xml:space="preserve">
<g id="Filled_Icons">
	<g>
		<path d="M10.025,7H7v0.5C7,8.01,7.045,8.508,7.109,9h3.235C10.169,8.357,10.061,7.688,10.025,7z"/>
		<rect x="7" y="4" width="3" height="2"/>
		<path d="M18,19c0.167,0.008,5.858,0,5.858,0c-0.447-1.721-1.999-3-3.858-3h-0.5c-0.512,0-1.01-0.052-1.5-0.13V19z"/>
		<path d="M11.769,12c-0.441-0.616-0.808-1.286-1.092-2H7.282c0.153,0.691,0.364,1.361,0.637,2H11.769z"/>
		<path d="M0,20.001V21.5C0,22.879,1.121,24,2.5,24H20c2.206,0,4-1.794,4-3.999H0z"/>
		<path d="M13.606,19c-2.756-1.178-4.995-3.322-6.314-6H5c-0.276,0-0.5-0.224-0.5-0.5S4.724,12,5,12h1.852
			c-0.25-0.644-0.459-1.309-0.6-2H4c-0.276,0-0.5-0.224-0.5-0.5S3.724,9,4,9h2.099C6.039,8.508,6,8.009,6,7.5V7H4
			C3.724,7,3.5,6.776,3.5,6.5S3.724,6,4,6h2V4H4C3.724,4,3.5,3.776,3.5,3.5S3.724,3,4,3h2V0H0.5C0.224,0,0,0.224,0,0.5V19H13.606z"
			/>
		<path d="M7,3h3V0.5C10,0.224,9.776,0,9.5,0H7V3z"/>
		<path d="M17,18.891v-3.235c-1.711-0.468-3.227-1.399-4.409-2.655H8.404C10.129,16.153,13.29,18.404,17,18.891z"/>
	</g>
</g>
<g id="invisible_shape">
	<rect fill="none" width="24" height="24"/>
</g>
</svg>
