<?xml version="1.0" encoding="utf-8"?>
<!-- Generator: Adobe Illustrator 19.2.0, SVG Export Plug-In . SVG Version: 6.00 Build 0)  -->
<svg version="1.1" xmlns="http://www.w3.org/2000/svg" xmlns:xlink="http://www.w3.org/1999/xlink" x="0px" y="0px" width="24px"
	 height="24px" viewBox="0 0 24 24" enable-background="new 0 0 24 24" xml:space="preserve">
<g id="Filled_Icons">
	<g>
		<path d="M23.618,4.515l-9.25-2.25c-0.257-0.061-0.514,0.083-0.594,0.333c-4.146,12.913-0.703,2.19-3.259,10.151
			c-0.308,0.806-0.905,1.447-1.642,1.838l0,0C7.822,15.144,6.941,15,4.5,15C2.019,15,0,17.02,0,19.5c0,0.528,0.108,1.028,0.276,1.5
			H24V5C24,4.769,23.842,4.569,23.618,4.515z M17.867,14.999c-0.132,0.517-0.458,0.952-0.919,1.225
			c-0.312,0.185-0.66,0.279-1.014,0.279c-0.167,0-0.335-0.02-0.5-0.063l-5.316-1.501c0.584-0.487,1.057-1.115,1.34-1.858
			l0.529-1.649l4.439,1.136c0.517,0.132,0.952,0.457,1.224,0.916C17.923,13.942,18,14.481,17.867,14.999z M19.929,8.756
			c-0.185,0.956-1.025,1.622-1.965,1.622c-0.124,0-0.251-0.011-0.378-0.036l-4.939-0.964l1.225-3.814l4.47,0.851
			c0.525,0.102,0.979,0.4,1.279,0.843C19.92,7.698,20.029,8.231,19.929,8.756z"/>
		<path d="M4.5,24h17c1.208,0,2.217-0.86,2.449-2H0.762C1.57,23.205,2.943,24,4.5,24z"/>
	</g>
</g>
<g id="invisible_shape">
	<rect fill="none" width="24" height="24"/>
</g>
</svg>
