<?xml version="1.0" encoding="utf-8"?>
<!-- Generator: Adobe Illustrator 19.2.0, SVG Export Plug-In . SVG Version: 6.00 Build 0)  -->
<svg version="1.1" xmlns="http://www.w3.org/2000/svg" xmlns:xlink="http://www.w3.org/1999/xlink" x="0px" y="0px" width="24px"
	 height="24px" viewBox="0 0 24 24" enable-background="new 0 0 24 24" xml:space="preserve">
<g id="Filled_Icons">
	<path d="M22,11.134V4.843c0-0.553-0.447-1-1-1s-1,0.447-1,1v6.761c-4.029,2.38-6.809,5.603-8,7.151
		c-1.104-1.426-3.939-4.742-8-7.15V4.843c0-0.553-0.447-1-1-1s-1,0.447-1,1v6.29c-1.253,1.177-2,3.089-2,5.189
		C0,20.004,2.996,23,6.679,23c2.085,0,4.059-0.968,5.321-2.559C13.262,22.032,15.235,23,17.32,23c3.684,0,6.68-2.996,6.68-6.678
		C24,14.224,23.253,12.311,22,11.134z"/>
</g>
<g id="invisible_shape">
	<rect fill="none" width="24" height="24"/>
</g>
</svg>
