<?xml version="1.0" encoding="utf-8"?>
<!-- Generator: Adobe Illustrator 19.2.0, SVG Export Plug-In . SVG Version: 6.00 Build 0)  -->
<svg version="1.1" xmlns="http://www.w3.org/2000/svg" xmlns:xlink="http://www.w3.org/1999/xlink" x="0px" y="0px" width="24px"
	 height="24px" viewBox="0 0 24 24" enable-background="new 0 0 24 24" xml:space="preserve">
<g id="Filled_Icons">
	<g>
		<path d="M12,5c-3.859,0-7,3.141-7,7c0,3.86,3.141,7,7,7s7-3.14,7-7C19,8.141,15.859,5,12,5z M12,6c1.102,0,2,0.898,2,2
			s-0.898,2-2,2s-2-0.898-2-2S10.898,6,12,6z M8,14c-1.102,0-2-0.898-2-2s0.898-2,2-2s2,0.898,2,2S9.102,14,8,14z M12,18
			c-1.102,0-2-0.897-2-2s0.898-2,2-2s2,0.898,2,2S13.102,18,12,18z M18,12c0,1.102-0.897,2-2,2s-2-0.898-2-2s0.898-2,2-2
			S18,10.898,18,12z"/>
		<path d="M12,0C5.383,0,0,5.384,0,12c0,6.617,5.383,12,12,12s12-5.383,12-12C24,5.384,18.617,0,12,0z M12,20c-4.411,0-8-3.589-8-8
			s3.589-8,8-8s8,3.589,8,8S16.411,20,12,20z"/>
	</g>
</g>
<g id="invisible_shape">
	<rect fill="none" width="24" height="24"/>
</g>
</svg>
