<?xml version="1.0" encoding="utf-8"?>
<!-- Generator: Adobe Illustrator 19.2.0, SVG Export Plug-In . SVG Version: 6.00 Build 0)  -->
<svg version="1.1" xmlns="http://www.w3.org/2000/svg" xmlns:xlink="http://www.w3.org/1999/xlink" x="0px" y="0px" width="24px"
	 height="24px" viewBox="0 0 24 24" enable-background="new 0 0 24 24" xml:space="preserve">
<g id="Filled_Icons">
	<g>
		<path d="M2.157,16.47C2.668,17.542,4.862,21,12,21c7.342,0,9.454-3.657,9.882-4.615C20.882,16.136,18.818,15,12,15
			C8.875,15,5.183,15.402,2.157,16.47z"/>
		<path d="M23.646,9.521c-1.79-0.544-3.284-2.055-4.703-4.754c-0.057-0.107-0.149-0.191-0.263-0.234l-6.5-2.5
			c-0.115-0.045-0.244-0.045-0.359,0l-6.5,2.5C5.207,4.577,5.114,4.66,5.058,4.768c-1.419,2.699-2.913,4.21-4.703,4.754
			c-0.307,0.093-0.447,0.449-0.289,0.727l1.636,2.862c0.932-0.71,5.642-1.339,7.026-1.46l-0.286,1.028C4.347,13.075,2,14,2,14v1.472
			C4.359,14.591,8.334,14,12,14c3.444,0,8.014,0.477,10,1.36v-1.457c0,0-1.721-0.877-6.457-1.258l-0.281-1.021
			c1.291,0.094,6.172,0.589,7.072,1.424l1.601-2.801C24.093,9.971,23.952,9.614,23.646,9.521z M13.856,9.245
			c-0.141,0.126-0.198,0.322-0.149,0.505l0.692,2.509l-2.091-1.64c-0.091-0.071-0.199-0.106-0.309-0.106
			c-0.108,0-0.216,0.035-0.307,0.104c-1.236,0.958-0.961,0.744-2.092,1.621c0.224-0.803,0.153-0.551,0.69-2.482
			c0.051-0.183-0.006-0.379-0.148-0.506L8.195,7.5h2.345c0.202,0,0.384-0.121,0.462-0.308L12,4.799l0.998,2.394
			C13.076,7.379,13.258,7.5,13.46,7.5h2.343L13.856,9.245z"/>
	</g>
</g>
<g id="invisible_shape">
	<rect fill="none" width="24" height="24"/>
</g>
</svg>
