<?xml version="1.0" encoding="utf-8"?>
<!-- Generator: Adobe Illustrator 19.2.0, SVG Export Plug-In . SVG Version: 6.00 Build 0)  -->
<svg version="1.1" xmlns="http://www.w3.org/2000/svg" xmlns:xlink="http://www.w3.org/1999/xlink" x="0px" y="0px" width="24px"
	 height="24px" viewBox="0 0 24 24" enable-background="new 0 0 24 24" xml:space="preserve">
<g id="Filled_Icons">
	<g>
		<g>
			<path d="M0.5,16c1.759,0,3.204,1.309,3.449,3h20.019c-0.077-0.545-0.435-1.019-0.964-1.208l-8.171-2.918l-1.479,1.48
				C13.256,16.451,13.128,16.5,13,16.5s-0.256-0.049-0.354-0.146c-0.195-0.195-0.195-0.512,0-0.707l1.145-1.144l-0.803-0.287
				l-1.635,1.638C11.256,15.951,11.128,16,11,16s-0.256-0.049-0.354-0.146c-0.195-0.194-0.195-0.511,0-0.706l1.301-1.304
				l-2.279-0.814c-0.151-0.055-0.322-0.03-0.456,0.063C9.079,13.186,9,13.338,9,13.5c0,0.403-0.953,1-3,1c-1.703,0-3-0.666-3-1
				C3,13.224,2.776,13,2.5,13h-1C0.673,13,0,13.673,0,14.5V16H0.5z"/>
			<path d="M0.5,17H0v2h2.949C2.717,17.86,1.708,17,0.5,17z"/>
			<path d="M0,20v1.5C0,21.776,0.224,22,0.5,22H4v0.5C4,22.776,4.224,23,4.5,23S5,22.776,5,22.5V22h8v0.5c0,0.276,0.224,0.5,0.5,0.5
				s0.5-0.224,0.5-0.5V22h2v0.5c0,0.276,0.224,0.5,0.5,0.5s0.5-0.224,0.5-0.5V22h2v0.5c0,0.276,0.224,0.5,0.5,0.5s0.5-0.224,0.5-0.5
				V22h2v0.5c0,0.276,0.224,0.5,0.5,0.5s0.5-0.224,0.5-0.5V22h0.5c0.276,0,0.5-0.224,0.5-0.5V20H0z"/>
		</g>
		<g>
			<path d="M23.5,8H24V6h-2.949C21.283,7.14,22.292,8,23.5,8z"/>
			<path d="M24,5V3.5C24,3.224,23.776,3,23.5,3H23V2.5C23,2.224,22.776,2,22.5,2S22,2.224,22,2.5V3h-2V2.5C20,2.224,19.776,2,19.5,2
				S19,2.224,19,2.5V3h-8V2.5C11,2.224,10.776,2,10.5,2S10,2.224,10,2.5V3H8V2.5C8,2.224,7.776,2,7.5,2S7,2.224,7,2.5V3H5V2.5
				C5,2.224,4.776,2,4.5,2S4,2.224,4,2.5V3H0.5C0.224,3,0,3.224,0,3.5V5H24z"/>
			<path d="M23.5,9c-1.759,0-3.204-1.309-3.449-3H0.032c0.077,0.545,0.435,1.018,0.964,1.208l8.171,2.918l1.479-1.48
				c0.195-0.195,0.512-0.195,0.707,0s0.195,0.512,0,0.707l-1.145,1.144l0.804,0.287l1.633-1.638
				c0.195-0.196,0.514-0.195,0.707-0.001c0.196,0.194,0.196,0.511,0.002,0.706l-1.3,1.305l2.277,0.814
				C14.387,11.99,14.443,12,14.5,12c0.102,0,0.202-0.031,0.288-0.091C14.921,11.814,15,11.663,15,11.5c0-0.403,0.953-1,3-1
				c1.703,0,3,0.667,3,1c0,0.276,0.224,0.5,0.5,0.5h1c0.827,0,1.5-0.673,1.5-1.5V9H23.5z"/>
		</g>
	</g>
</g>
<g id="invisible_shape">
	<rect fill="none" width="24" height="24"/>
</g>
</svg>
