<?xml version="1.0" encoding="utf-8"?>
<!-- Generator: Adobe Illustrator 19.2.0, SVG Export Plug-In . SVG Version: 6.00 Build 0)  -->
<svg version="1.1" xmlns="http://www.w3.org/2000/svg" xmlns:xlink="http://www.w3.org/1999/xlink" x="0px" y="0px" width="24px"
	 height="24px" viewBox="0 0 24 24" enable-background="new 0 0 24 24" xml:space="preserve">
<g id="Filled_Icons">
	<g>
		<path d="M7.252,12h8.521c1.067-0.816,1.823-2.021,2.102-3.201c0.46-1.947-0.242-3.63-1.862-4.58V0.5c0-0.276-0.224-0.5-0.5-0.5
			s-0.5,0.224-0.5,0.5v4c0,1.469-1.87,2.258-3.5,2.495c-1.63-0.237-3.5-1.026-3.5-2.495V0.516c0-0.276-0.224-0.5-0.5-0.5
			s-0.5,0.224-0.5,0.5v3.703c-1.62,0.95-2.322,2.633-1.862,4.58C5.429,9.979,6.185,11.184,7.252,12z"/>
		<path d="M16.05,13H6.971c-2.422,1.821-3.117,6.139-2.96,9.026c0.01,0.19,0.127,0.358,0.302,0.434C6.698,23.481,9.12,24,11.511,24
			c2.391,0,4.812-0.519,7.196-1.54c0.175-0.075,0.292-0.243,0.302-0.434C19.165,19.16,18.484,14.831,16.05,13z"/>
	</g>
</g>
<g id="invisible_shape">
	<rect fill="none" width="24" height="24"/>
</g>
</svg>
