<?xml version="1.0" encoding="utf-8"?>
<!-- Generator: Adobe Illustrator 19.2.0, SVG Export Plug-In . SVG Version: 6.00 Build 0)  -->
<svg version="1.1" xmlns="http://www.w3.org/2000/svg" xmlns:xlink="http://www.w3.org/1999/xlink" x="0px" y="0px" width="24px"
	 height="24px" viewBox="0 0 24 24" enable-background="new 0 0 24 24" xml:space="preserve">
<g id="Filled_Icons">
	<g>
		<path d="M19.5,8.994H15c-0.414,0-0.8,0.127-1.119,0.344C13.607,8.559,12.871,7.994,12,7.994s-1.607,0.565-1.881,1.344
			C9.8,9.121,9.414,8.994,9,8.994H4.5c-1.654,0-3,1.346-3,3c0,2.898,1.893,5,4.5,5c2.757,0,5-2.243,5-5v-2c0-0.552,0.448-1,1-1
			s1,0.448,1,1v2c0,2.757,2.243,5,5,5c2.607,0,4.5-2.103,4.5-5C22.5,10.34,21.154,8.994,19.5,8.994z"/>
		<path d="M2,9.494c0-0.276-0.224-0.5-0.5-0.5c-0.827,0-1.5,0.673-1.5,1.5c0,0.276,0.224,0.5,0.5,0.5s0.5-0.224,0.5-0.5
			c0-0.275,0.225-0.5,0.5-0.5C1.776,9.994,2,9.771,2,9.494z"/>
		<path d="M22.5,8.994c-0.276,0-0.5,0.224-0.5,0.5c0,0.276,0.224,0.5,0.5,0.5c0.275,0,0.5,0.225,0.5,0.5c0,0.276,0.224,0.5,0.5,0.5
			s0.5-0.224,0.5-0.5C24,9.667,23.327,8.994,22.5,8.994z"/>
	</g>
</g>
<g id="invisible_shape">
	<rect fill="none" width="24" height="24"/>
</g>
</svg>
