<?xml version="1.0" encoding="utf-8"?>
<!-- Generator: Adobe Illustrator 19.2.0, SVG Export Plug-In . SVG Version: 6.00 Build 0)  -->
<svg version="1.1" xmlns="http://www.w3.org/2000/svg" xmlns:xlink="http://www.w3.org/1999/xlink" x="0px" y="0px" width="24px"
	 height="24px" viewBox="0 0 24 24" enable-background="new 0 0 24 24" xml:space="preserve">
<g id="Filled_Icons">
	<path d="M22.83,9.617C21.616,7.688,16.392,7,11.907,7C7.423,7,2.198,7.688,0.984,9.617L0.902,9.746l0.005,0.152
		c0.03,0.972,0.261,5.86,1.88,6.67c1.69,0.846,5.277,0.855,5.43,0.855c1.047,0,1.496-1.029,1.932-2.023
		c0.532-1.219,0.948-2.017,1.852-2.017s1.319,0.798,1.852,2.017c0.436,0.994,0.885,2.023,1.932,2.023
		c0.144,0,3.554-0.01,5.244-0.855c1.619-0.81,1.85-5.698,1.88-6.67l0.005-0.152L22.83,9.617z M6.039,10.367
		c-1.057,0.239-1.481,0.514-1.646,0.672c0.017,0.308,0.062,0.96,0.171,1.597c0.046,0.273-0.137,0.531-0.409,0.577
		c-0.028,0.006-0.057,0.008-0.085,0.008c-0.238,0-0.45-0.172-0.492-0.416c-0.161-0.942-0.191-1.878-0.192-1.918l-0.005-0.152
		l0.082-0.129C3.8,10.071,4.57,9.674,5.818,9.392c0.27-0.063,0.537,0.109,0.598,0.378C6.477,10.039,6.309,10.307,6.039,10.367z
		 M20.429,10.888c-0.002,0.039-0.032,0.975-0.192,1.917c-0.042,0.243-0.253,0.416-0.492,0.416c-0.028,0-0.057-0.002-0.085-0.007
		c-0.273-0.046-0.455-0.305-0.409-0.577c0.109-0.64,0.154-1.29,0.171-1.598c-0.165-0.158-0.589-0.433-1.646-0.672
		c-0.27-0.061-0.438-0.328-0.377-0.598c0.06-0.268,0.327-0.44,0.598-0.378c1.248,0.282,2.019,0.68,2.356,1.214l0.082,0.129
		L20.429,10.888z"/>
</g>
<g id="invisible_shape">
	<rect fill="none" width="24" height="24"/>
</g>
</svg>
