<?xml version="1.0" encoding="utf-8"?>
<!-- Generator: Adobe Illustrator 19.2.0, SVG Export Plug-In . SVG Version: 6.00 Build 0)  -->
<svg version="1.1" xmlns="http://www.w3.org/2000/svg" xmlns:xlink="http://www.w3.org/1999/xlink" x="0px" y="0px" width="24px"
	 height="24px" viewBox="0 0 24 24" enable-background="new 0 0 24 24" xml:space="preserve">
<g id="Filled_Icons">
	<g>
		<path d="M17.5,8c-1.944,0-3.6,1.24-4.227,2.97C12.926,10.681,12.486,10.5,12,10.5s-0.927,0.181-1.273,0.47
			C10.099,9.24,8.443,8,6.5,8C4.019,8,2,10.018,2,12.5C2,14.981,4.019,17,6.5,17s4.5-2.019,4.5-4.5c0-0.552,0.448-1,1-1
			c0.551,0,1,0.448,1,1c0,2.481,2.019,4.5,4.5,4.5s4.5-2.019,4.5-4.5C22,10.018,19.981,8,17.5,8z"/>
		<path d="M1.251,9.547C1,9.434,0.703,9.542,0.588,9.793C0.197,10.644,0,11.554,0,12.5C0,12.775,0.224,13,0.5,13S1,12.775,1,12.5
			c0-0.801,0.167-1.571,0.497-2.29C1.612,9.959,1.502,9.662,1.251,9.547z"/>
		<path d="M23.41,9.793c-0.114-0.251-0.411-0.362-0.662-0.246c-0.252,0.114-0.361,0.411-0.247,0.662
			C22.832,10.932,23,11.702,23,12.5c0,0.275,0.224,0.5,0.5,0.5s0.5-0.225,0.5-0.5C24,11.558,23.802,10.646,23.41,9.793z"/>
	</g>
</g>
<g id="invisible_shape">
	<rect fill="none" width="24" height="24"/>
</g>
</svg>
