<?xml version="1.0" encoding="utf-8"?>
<!-- Generator: Adobe Illustrator 19.2.0, SVG Export Plug-In . SVG Version: 6.00 Build 0)  -->
<svg version="1.1" xmlns="http://www.w3.org/2000/svg" xmlns:xlink="http://www.w3.org/1999/xlink" x="0px" y="0px" width="24px"
	 height="24px" viewBox="0 0 24 24" enable-background="new 0 0 24 24" xml:space="preserve">
<g id="Filled_Icons">
	<g>
		<path d="M20.626,6.359H19.72c-0.076,0.109-0.161,0.213-0.268,0.3l-3.651,3C15.532,9.88,15.196,10,14.849,10H9.1
			c-0.351,0-0.69-0.123-0.96-0.348l-3.6-3C4.438,6.567,4.356,6.465,4.282,6.359H3.376c-1.818,0-3.332,1.455-3.374,3.244
			c-0.097,4.232,2.633,6.521,5.21,6.856c0.234,0.03,0.471,0.046,0.71,0.046c2.204,0,4.544-1.32,5.299-4.459
			c0.095-0.396,0.404-0.662,0.769-0.662c0.466,0,0.714,0.342,0.791,0.662c0.836,3.479,3.616,4.724,6.007,4.412
			c2.577-0.335,5.308-2.623,5.212-6.855C23.959,7.814,22.445,6.359,20.626,6.359z"/>
		<path d="M18.971,5.332C18.899,5.133,18.711,5,18.5,5h-13C5.289,5,5.102,5.133,5.03,5.33C4.958,5.528,5.019,5.75,5.18,5.885l3.6,3
			C8.869,8.959,8.982,9,9.1,9h5.749c0.116,0,0.228-0.04,0.317-0.113l3.651-3C18.98,5.753,19.042,5.53,18.971,5.332z"/>
	</g>
</g>
<g id="invisible_shape">
	<rect fill="none" width="24" height="24"/>
</g>
</svg>
