<?xml version="1.0" encoding="utf-8"?>
<!-- Generator: Adobe Illustrator 19.2.0, SVG Export Plug-In . SVG Version: 6.00 Build 0)  -->
<svg version="1.1" xmlns="http://www.w3.org/2000/svg" xmlns:xlink="http://www.w3.org/1999/xlink" x="0px" y="0px" width="24px"
	 height="24px" viewBox="0 0 24 24" enable-background="new 0 0 24 24" xml:space="preserve">
<g id="Filled_Icons">
	<path d="M20,3c-0.276,0-0.5,0.224-0.5,0.5S19.724,4,20,4c0.552,0,1,0.448,1,1v9.513C20.581,14.195,20.065,14,19.5,14h-4
		c-1.146,0-2.104,0.779-2.398,1.834C12.785,15.624,12.407,15.5,12,15.5s-0.785,0.124-1.102,0.334C10.604,14.779,9.646,14,8.5,14h-4
		c-0.565,0-1.081,0.195-1.5,0.513V5c0-0.552,0.448-1,1-1c0.276,0,0.5-0.224,0.5-0.5S4.276,3,4,3C2.898,3,2,3.898,2,5v14.5
		C2,20.879,3.121,22,4.5,22h4c1.379,0,2.5-1.121,2.5-2.5v-2c0-0.552,0.448-1,1-1s1,0.448,1,1v2c0,1.379,1.121,2.5,2.5,2.5h4
		c1.379,0,2.5-1.121,2.5-2.5V5C22,3.898,21.103,3,20,3z"/>
</g>
<g id="invisible_shape">
	<rect fill="none" width="24" height="24"/>
</g>
</svg>
