<?xml version="1.0" encoding="utf-8"?>
<!-- Generator: Adobe Illustrator 19.2.0, SVG Export Plug-In . SVG Version: 6.00 Build 0)  -->
<svg version="1.1" xmlns="http://www.w3.org/2000/svg" xmlns:xlink="http://www.w3.org/1999/xlink" x="0px" y="0px" width="24px"
	 height="24px" viewBox="0 0 24 24" enable-background="new 0 0 24 24" xml:space="preserve">
<g id="Filled_Icons">
	<g>
		<path d="M19.724,13.447c-0.119,0.059-0.255,0.068-0.382,0.027l-4.319-1.44l-3.325,1.426c-0.129,0.054-0.266,0.054-0.395,0
			L8,12.044L5,13.33v2.911l2.803-1.201c0.127-0.053,0.268-0.053,0.395,0l3.303,1.416l3.303-1.416c0.127-0.053,0.268-0.053,0.395,0
			l2.996,1.284l2.629-3.427L19.724,13.447z"/>
		<path d="M11.697,5.46c-0.129,0.054-0.266,0.054-0.395,0L8,4.044L5.012,5.325C5.01,5.384,5,5.441,5,5.5v2.742L7.804,7.04
			c0.125-0.054,0.269-0.054,0.394,0L11.5,8.456l3.304-1.416c0.125-0.054,0.269-0.054,0.394,0L18,8.242V6
			c0-0.233-0.021-0.464-0.052-0.691L15,4.044L11.697,5.46z"/>
		<path d="M18,8.31V9.33l-3-1.286L11.697,9.46c-0.125,0.054-0.269,0.054-0.394,0L8,8.044L5,9.33v2.911l2.803-1.201
			c0.127-0.053,0.268-0.053,0.395,0l3.303,1.416l3.303-1.416c0.114-0.048,0.239-0.052,0.356-0.015l4.304,1.435l2.661-1.33
			c0.641-1.242,0.183-2.689-1.001-3.36C20.22,7.256,18.97,7.34,18,8.31z"/>
		<path d="M7.803,3.04c0.127-0.053,0.268-0.053,0.395,0L11.5,4.456l3.303-1.416c0.127-0.053,0.268-0.053,0.395,0l2.425,1.039
			C16.711,1.761,14.242,0,11.5,0C8.707,0,6.048,1.87,5.249,4.135L7.803,3.04z"/>
		<path d="M6,22v1.5c0,0.139,0.056,0.264,0.147,0.354C6.236,23.944,6.361,24,6.5,24h10c0.276,0,0.5-0.224,0.5-0.5V22H6z"/>
		<path d="M15,16.044l-3.303,1.416c-0.129,0.054-0.266,0.054-0.395,0L8,16.044L5,17.33v1.129C5,19.867,6.156,21,7.5,21h8
			c1.326,0,2.486-1.118,2.5-2.521l0.004-1.147L15,16.044z"/>
	</g>
</g>
<g id="invisible_shape">
	<rect fill="none" width="24" height="24"/>
</g>
</svg>
