<?xml version="1.0" encoding="utf-8"?>
<!-- Generator: Adobe Illustrator 19.2.0, SVG Export Plug-In . SVG Version: 6.00 Build 0)  -->
<svg version="1.1" xmlns="http://www.w3.org/2000/svg" xmlns:xlink="http://www.w3.org/1999/xlink" x="0px" y="0px" width="24px"
	 height="24px" viewBox="0 0 24 24" enable-background="new 0 0 24 24" xml:space="preserve">
<g id="Filled_Icons">
	<g>
		<path d="M22,19H2c-1.104,0-2,0.897-2,2v1c0,1.104,0.896,2,2,2h20c1.103,0,2-0.896,2-2v-1C24,19.897,23.103,19,22,19z"/>
		<path d="M2.5,18h19c0.276,0,0.5-0.224,0.5-0.5C22,9.051,16.915,4,12,4C7.084,4,2,9.051,2,17.5C2,17.776,2.224,18,2.5,18z"/>
		<path d="M15.5,3.5C15.5,3.224,15.276,3,15,3h-1.793l1.147-1.146c0.195-0.195,0.195-0.512,0-0.707s-0.512-0.195-0.707,0L12.5,2.293
			V0.5C12.5,0.224,12.276,0,12,0s-0.5,0.224-0.5,0.5v1.793l-1.146-1.146c-0.195-0.195-0.512-0.195-0.707,0s-0.195,0.512,0,0.707
			L10.793,3H9C8.724,3,8.5,3.224,8.5,3.5S8.724,4,9,4h3h3C15.276,4,15.5,3.776,15.5,3.5z"/>
	</g>
</g>
<g id="invisible_shape">
	<rect fill="none" width="24" height="24"/>
</g>
</svg>
