<?xml version="1.0" encoding="utf-8"?>
<!-- Generator: Adobe Illustrator 19.2.0, SVG Export Plug-In . SVG Version: 6.00 Build 0)  -->
<svg version="1.1" xmlns="http://www.w3.org/2000/svg" xmlns:xlink="http://www.w3.org/1999/xlink" x="0px" y="0px" width="24px"
	 height="24px" viewBox="0 0 24 24" enable-background="new 0 0 24 24" xml:space="preserve">
<g id="Filled_Icons">
	<g>
		<polygon points="18.736,15 5.265,15 5.546,18 18.455,18 		"/>
		<path d="M18.83,14l1.168-12.453c0.013-0.141-0.033-0.279-0.128-0.384C19.775,1.06,19.641,1,19.5,1h-15
			C4.359,1,4.225,1.06,4.13,1.163C4.035,1.268,3.989,1.406,4.002,1.547L5.171,14H18.83z"/>
		<path d="M23.5,20.5c-0.245,0-0.448,0.176-0.491,0.408c-0.324,0.297-1.967,0.663-4.91,0.887L18.361,19H5.64l0.263,2.795
			c-2.944-0.224-4.587-0.59-4.911-0.887C0.948,20.676,0.745,20.5,0.5,20.5C0.224,20.5,0,20.724,0,21
			c0,0.692,0.687,1.233,4.036,1.622c0.7,0.081,1.487,0.148,2.329,0.204c0.03,0.006,0.059,0.017,0.09,0.017
			c0.016,0,0.032-0.001,0.048-0.002c0.006,0,0.01-0.004,0.015-0.005C8.168,22.943,10.039,23,12,23c5.475,0,12-0.347,12-2
			C24,20.724,23.776,20.5,23.5,20.5z"/>
	</g>
</g>
<g id="invisible_shape">
	<rect fill="none" width="24" height="24"/>
</g>
</svg>
