<?xml version="1.0" encoding="utf-8"?>
<!-- Generator: Adobe Illustrator 19.2.0, SVG Export Plug-In . SVG Version: 6.00 Build 0)  -->
<svg version="1.1" xmlns="http://www.w3.org/2000/svg" xmlns:xlink="http://www.w3.org/1999/xlink" x="0px" y="0px" width="24px"
	 height="24px" viewBox="0 0 24 24" enable-background="new 0 0 24 24" xml:space="preserve">
<g id="Filled_Icons">
	<g>
		<path d="M5,13.494c0,0.445,2.717,1.5,7,1.5c4.275,0,6.988-1.051,6.999-1.497v-0.742c-1.595,0.882-4.766,1.239-6.999,1.239
			c-2.234,0-5.406-0.357-7-1.24V13.494z"/>
		<path d="M12,15.994c-2.234,0-5.407-0.357-7-1.24v5.74c-0.001,1.727,3.516,2.5,7,2.5c3.483,0,6.999-0.773,6.999-2.5v-5.739
			C17.404,15.637,14.233,15.994,12,15.994z"/>
		<path d="M12,1.994c-5.817,0-12,1.577-12,4.5c0,1.701,2.101,2.943,4.999,3.687L5,11.494c0,0.445,2.717,1.5,7,1.5
			c4.275,0,6.988-1.051,6.999-1.497v-1.316C21.898,9.438,24,8.195,24,6.494C24,3.571,17.817,1.994,12,1.994z M12,7.994
			c-4.288,0-6.5-1.052-6.5-1.5c0-0.448,2.212-1.5,6.5-1.5s6.5,1.052,6.5,1.5C18.5,6.942,16.288,7.994,12,7.994z"/>
	</g>
</g>
<g id="invisible_shape">
	<rect fill="none" width="24" height="24"/>
</g>
</svg>
