<?xml version="1.0" encoding="utf-8"?>
<!-- Generator: Adobe Illustrator 19.2.0, SVG Export Plug-In . SVG Version: 6.00 Build 0)  -->
<svg version="1.1" xmlns="http://www.w3.org/2000/svg" xmlns:xlink="http://www.w3.org/1999/xlink" x="0px" y="0px" width="24px"
	 height="24px" viewBox="0 0 24 24" enable-background="new 0 0 24 24" xml:space="preserve">
<g id="Filled_Icons">
	<g>
		<path d="M14,20c0,0.79-0.201,1.528-0.529,2.193C13.942,22.39,14.458,22.5,15,22.5c2.206,0,4-1.794,4-4V15h-5V20z"/>
		<path d="M17,5c-2.757,0-5,2.243-5,5v3.5c0,0.276,0.224,0.5,0.5,0.5h7c1.379,0,2.5-1.121,2.5-2.5V10C22,7.243,19.757,5,17,5z"/>
		<path d="M11,13.5V12h-1v1.5c0,1.379-1.121,2.5-2.5,2.5S5,14.879,5,13.5V12H2v3c0,1.103,0.898,2,2,2c0.552,0,1,0.449,1,1v2
			c0,2.206,1.794,4,4,4s4-1.794,4-4v-5h-0.5C11.672,15,11,14.329,11,13.5z"/>
		<path d="M10,11h1v-1c0-3.309,2.691-6,6-6c0.696,0,1.362,0.125,1.984,0.345C18.9,1.936,16.928,0,14.5,0h-4C5.813,0,2,3.813,2,8.5
			V11h3H10z"/>
	</g>
</g>
<g id="invisible_shape">
	<rect fill="none" width="24" height="24"/>
</g>
</svg>
