<?xml version="1.0" encoding="utf-8"?>
<!-- Generator: Adobe Illustrator 19.2.0, SVG Export Plug-In . SVG Version: 6.00 Build 0)  -->
<svg version="1.1" xmlns="http://www.w3.org/2000/svg" xmlns:xlink="http://www.w3.org/1999/xlink" x="0px" y="0px" width="24px"
	 height="24px" viewBox="0 0 24 24" enable-background="new 0 0 24 24" xml:space="preserve">
<g id="Filled_Icons">
	<g>
		<path d="M11.5,2.969c0.801,0,1.575,0.11,2.319,0.299C13.322,2.411,12.55,1.5,11.516,1.5c-1.032,0-1.808,0.907-2.309,1.761
			C9.942,3.077,10.708,2.969,11.5,2.969z"/>
		<g>
			<path d="M10.586,22.477c0.303,0.012,0.605,0.023,0.914,0.023c5.168,0,9.432-1.695,10.924-4.1
				C18.657,18.852,14.019,20.205,10.586,22.477z"/>
			<path d="M22.877,17.35C22.949,17.071,23,16.79,23,16.5c0-1.241-0.706-2.419-2-3.405V14.5c0,0.561-0.313,1.075-0.812,1.333
				c-2.824,1.459-5.725,2.199-8.62,2.199c-2.888,0-5.828-0.737-8.738-2.19C2.321,15.588,2,15.068,2,14.5v-1.408
				C0.705,14.08,0,15.258,0,16.5c0,2.921,3.809,5.289,9.03,5.864C12.83,19.441,18.521,17.777,22.877,17.35z"/>
		</g>
		<g>
			<path d="M11,15.259V3.994C8.892,4.118,6.987,5.006,5.566,6.394L11,15.259z"/>
			<path d="M17.462,6.42C16.038,5.017,14.122,4.119,12,3.994V15.26l5.34-8.708C17.372,6.498,17.415,6.456,17.462,6.42z"/>
			<path d="M4.867,7.168C3.701,8.623,3,10.464,3,12.469V14.5c0,0.189,0.107,0.363,0.276,0.447c2.545,1.271,5.106,1.959,7.624,2.063
				L4.867,7.168z"/>
			<path d="M18.134,7.168l-6.038,9.847c2.56-0.084,5.125-0.774,7.634-2.07C19.896,14.858,20,14.686,20,14.5v-2.031
				C20,10.465,19.299,8.623,18.134,7.168z"/>
		</g>
	</g>
</g>
<g id="invisible_shape">
	<rect fill="none" width="24" height="24"/>
</g>
</svg>
