<?xml version="1.0" encoding="utf-8"?>
<!-- Generator: Adobe Illustrator 19.2.0, SVG Export Plug-In . SVG Version: 6.00 Build 0)  -->
<svg version="1.1" xmlns="http://www.w3.org/2000/svg" xmlns:xlink="http://www.w3.org/1999/xlink" x="0px" y="0px" width="24px"
	 height="24px" viewBox="0 0 24 24" enable-background="new 0 0 24 24" xml:space="preserve">
<g id="Filled_Icons">
	<g>
		<path d="M23.5,18h-6.062c-0.365-2.79-0.652-5.191-0.885-7.136C15.481,1.871,15.257,0,12,0C8.707,0,8.44,2.277,7.449,10.753
			C7.218,12.727,6.933,15.166,6.561,18H0.5C0.224,18,0,18.224,0,18.5c0,0.525,0.071,1.026,0.196,1.5h23.606
			C23.928,19.526,24,19.025,24,18.5C24,18.224,23.776,18,23.5,18z"/>
		<path d="M5.5,24h13c2.223,0,4.053-1.191,4.933-3H0.566C1.446,22.809,3.277,24,5.5,24z"/>
	</g>
</g>
<g id="invisible_shape">
	<rect fill="none" width="24" height="24"/>
</g>
</svg>
