<?xml version="1.0" encoding="utf-8"?>
<!-- Generator: Adobe Illustrator 19.2.0, SVG Export Plug-In . SVG Version: 6.00 Build 0)  -->
<svg version="1.1" xmlns="http://www.w3.org/2000/svg" xmlns:xlink="http://www.w3.org/1999/xlink" x="0px" y="0px" width="24px"
	 height="24px" viewBox="0 0 24 24" enable-background="new 0 0 24 24" xml:space="preserve">
<g id="Filled_Icons">
	<g>
		<g>
			<path d="M20,14v-3c0-0.707-0.045-0.773-0.103-1.229c-0.229-0.068-0.448-0.174-0.63-0.354L19,9.148v0.379
				c0,0.829-0.672,1.5-1.5,1.5s-1.5-0.671-1.5-1.5V9.148l-0.268,0.269c-0.293,0.292-0.677,0.438-1.061,0.438
				c-0.384,0-0.768-0.146-1.061-0.438c-0.586-0.586-0.586-1.536,0-2.122l0.268-0.267H13.5c-0.828,0-1.5-0.671-1.5-1.5
				c0-0.828,0.672-1.5,1.5-1.5h0.38l-0.269-0.269c-0.188-0.187-0.292-0.415-0.36-0.652C12.787,3.046,12.705,3,12,3
				c-4.372,0-8,3.565-8,8v3H20z"/>
			<rect x="4" y="15" width="16" height="1"/>
			<path d="M23.325,19.127l-2.474-2.121H3.148l-2.474,2.121c-0.135,0.115-0.198,0.293-0.167,0.468
				c0.031,0.174,0.153,0.319,0.319,0.381c3.711,1.367,7.474,2.062,11.183,2.062c0.001,0,0.001,0,0.001,0
				c3.708,0,7.464-0.693,11.163-2.063c0.166-0.062,0.287-0.206,0.318-0.381C23.523,19.42,23.46,19.242,23.325,19.127z"/>
		</g>
		<path d="M21.5,5h-2.794l1.976-1.976c0.195-0.195,0.195-0.512,0-0.707c-0.195-0.195-0.512-0.195-0.707,0L18,4.293V1.5
			C18,1.224,17.776,1,17.5,1S17,1.224,17,1.5v2.793l-1.975-1.976c-0.195-0.195-0.512-0.195-0.707,0
			c-0.195,0.195-0.195,0.512,0,0.707L16.294,5H13.5C13.224,5,13,5.224,13,5.5S13.224,6,13.5,6h2.793l-1.975,1.976
			c-0.195,0.194-0.195,0.511,0,0.706c0.195,0.195,0.512,0.195,0.707,0L17,6.706V9.5c0,0.276,0.224,0.5,0.5,0.5S18,9.776,18,9.5
			V6.706l1.975,1.975c0.195,0.195,0.512,0.195,0.707,0c0.195-0.195,0.195-0.512,0-0.706L18.707,6H21.5C21.776,6,22,5.776,22,5.5
			S21.776,5,21.5,5z"/>
	</g>
</g>
<g id="invisible_shape">
	<rect fill="none" width="24" height="24"/>
</g>
</svg>
