<?xml version="1.0" encoding="utf-8"?>
<!-- Generator: Adobe Illustrator 19.2.0, SVG Export Plug-In . SVG Version: 6.00 Build 0)  -->
<svg version="1.1" xmlns="http://www.w3.org/2000/svg" xmlns:xlink="http://www.w3.org/1999/xlink" x="0px" y="0px" width="24px"
	 height="24px" viewBox="0 0 24 24" enable-background="new 0 0 24 24" xml:space="preserve">
<g id="Filled_Icons">
	<g>
		<path d="M23.5,10.5c-0.276,0-0.5,0.224-0.5,0.5c0,1.86-1.278,3.423-3,3.869V13H4v1.869C2.277,14.423,1,12.86,1,11
			c0-0.276-0.224-0.5-0.5-0.5S0,10.724,0,11c0,2.757,2.243,5,5,5h14c2.757,0,5-2.243,5-5C24,10.724,23.776,10.5,23.5,10.5z"/>
		<path d="M20,8c0-4.411-3.589-8-8-8S4,3.589,4,8v4h16V8z"/>
		<polygon points="10.5,22 9.5,24 14.5,24 13.5,22 		"/>
	</g>
</g>
<g id="invisible_shape">
	<rect fill="none" width="24" height="24"/>
</g>
</svg>
