<?xml version="1.0" encoding="utf-8"?>
<!-- Generator: Adobe Illustrator 19.2.0, SVG Export Plug-In . SVG Version: 6.00 Build 0)  -->
<svg version="1.1" xmlns="http://www.w3.org/2000/svg" xmlns:xlink="http://www.w3.org/1999/xlink" x="0px" y="0px" width="24px"
	 height="24px" viewBox="0 0 24 24" enable-background="new 0 0 24 24" xml:space="preserve">
<g id="Filled_Icons">
	<path d="M18.5,14.994h-1.91c-1.377,0-2.63-0.811-3.193-2.068L7.768,0.369c-5.253,1.865-7.599,6.51-7.017,10.91
		C1.248,15.038,1.5,19.147,1.5,23.494v0.5H5v-9.066c0-0.515,0.419-0.934,0.934-0.934c0.409,0,0.776,0.274,0.91,0.712l2.675,6.5
		c0.696,1.694,2.33,2.788,4.161,2.788h4.82c2.481,0,4.5-2.019,4.5-4.5C23,17.014,20.981,14.994,18.5,14.994z"/>
</g>
<g id="invisible_shape">
	<rect fill="none" width="24" height="24"/>
</g>
</svg>
