<?xml version="1.0" encoding="utf-8"?>
<!-- Generator: Adobe Illustrator 19.2.0, SVG Export Plug-In . SVG Version: 6.00 Build 0)  -->
<svg version="1.1" xmlns="http://www.w3.org/2000/svg" xmlns:xlink="http://www.w3.org/1999/xlink" x="0px" y="0px" width="24px"
	 height="24px" viewBox="0 0 24 24" enable-background="new 0 0 24 24" xml:space="preserve">
<g id="Filled_Icons">
	<g>
		<path d="M5,14v-1.5C5,12.224,5.224,12,5.5,12h2C7.776,12,8,12.224,8,12.5V14h8v-1.5c0-0.276,0.224-0.5,0.5-0.5h2
			c0.276,0,0.5,0.224,0.5,0.5V14h4v-2.5c0-0.276-0.224-0.5-0.5-0.5C19.917,11,19,8.576,19,6.5v-3C19,2.122,17.879,1,16.5,1h-9
			C6.121,1,5,2.122,5,3.5v3C5,8.74,3.918,11,1.5,11C1.224,11,1,11.224,1,11.5V14H5z M9,2.5C9,2.224,9.224,2,9.5,2h5
			C14.776,2,15,2.224,15,2.5V8c0,1.654-1.346,3-3,3S9,9.654,9,8V2.5z"/>
		<rect x="1" y="15" width="4" height="3"/>
		<rect x="19" y="15" width="4" height="3"/>
		<rect x="8" y="15" width="8" height="3"/>
		<path d="M19,19v1.5c0,0.276-0.224,0.5-0.5,0.5h-2c-0.276,0-0.5-0.224-0.5-0.5V19H8v1.5C8,20.776,7.776,21,7.5,21h-2
			C5.224,21,5,20.776,5,20.5V19H1v3.5C1,22.776,1.224,23,1.5,23h21c0.276,0,0.5-0.224,0.5-0.5V19H19z"/>
	</g>
</g>
<g id="invisible_shape">
	<rect fill="none" width="24" height="24"/>
</g>
</svg>
