<?xml version="1.0" encoding="utf-8"?>
<!-- Generator: Adobe Illustrator 19.2.0, SVG Export Plug-In . SVG Version: 6.00 Build 0)  -->
<svg version="1.1" xmlns="http://www.w3.org/2000/svg" xmlns:xlink="http://www.w3.org/1999/xlink" x="0px" y="0px" width="24px"
	 height="24px" viewBox="0 0 24 24" enable-background="new 0 0 24 24" xml:space="preserve">
<g id="Filled_Icons">
	<g>
		<path d="M6,21.5C6,21.776,6.224,22,6.5,22h11c0.276,0,0.5-0.224,0.5-0.5V19H6V21.5z"/>
		<rect x="6" y="14" width="12" height="3"/>
		<path d="M20.988,5.894c-0.035-0.162-0.149-0.296-0.303-0.358l-5-2c-0.183-0.075-0.397-0.032-0.539,0.11C14.286,4.507,13.14,5,12,5
			S9.714,4.507,8.854,3.647c-0.142-0.143-0.355-0.186-0.539-0.11l-5,2C3.16,5.598,3.047,5.731,3.012,5.894l-2.5,11.5
			C0.443,17.711,0.687,18,1,18h3c0.219,0,0.412-0.142,0.477-0.351L6.238,12h11.488l1.797,5.651C19.59,17.859,19.782,18,20,18h3
			c0.315,0,0.557-0.29,0.488-0.606L20.988,5.894z"/>
	</g>
</g>
<g id="invisible_shape">
	<rect fill="none" width="24" height="24"/>
</g>
</svg>
