<?xml version="1.0" encoding="utf-8"?>
<!-- Generator: Adobe Illustrator 19.2.0, SVG Export Plug-In . SVG Version: 6.00 Build 0)  -->
<svg version="1.1" xmlns="http://www.w3.org/2000/svg" xmlns:xlink="http://www.w3.org/1999/xlink" x="0px" y="0px" width="24px"
	 height="24px" viewBox="0 0 24 24" enable-background="new 0 0 24 24" xml:space="preserve">
<g id="Filled_Icons">
	<g>
		<path d="M19.324,10.469c0.132,0.049,0.279,0.04,0.406-0.024c0.125-0.065,0.218-0.181,0.253-0.318l1-3.833
			c0.064-0.243-0.063-0.497-0.298-0.59L15.969,3.82c-0.165,2.716-2.319,4.148-4.469,4.148S7.196,6.536,7.031,3.82L2.315,5.703
			C2.08,5.796,1.952,6.05,2.017,6.293l1,3.833c0.035,0.138,0.128,0.253,0.253,0.318c0.127,0.064,0.275,0.073,0.406,0.024l3.545-1.33
			l0.735,1.805L4.836,17.8c-0.243,0.462-0.228,1.026,0.041,1.475C5.148,19.722,5.64,20,6.162,20H11v2H4c-0.553,0-1,0.448-1,1
			c0,0.553,0.447,1,1,1h15c0.553,0,1-0.447,1-1c0-0.552-0.447-1-1-1h-7v-2h4.838c0.522,0,1.015-0.278,1.285-0.726
			c0.271-0.448,0.286-1.014,0.055-1.449l-3.134-6.882l0.735-1.805L19.324,10.469z"/>
		<path d="M11.5,6.969c1.739,0,3.5-1.191,3.5-3.469c0-0.137-0.982-3.028-1.025-3.158C13.906,0.138,13.715,0,13.5,0h-4
			C9.285,0,9.094,0.138,9.025,0.342C8.982,0.472,8,3.363,8,3.5C8,5.777,9.761,6.969,11.5,6.969z"/>
	</g>
</g>
<g id="invisible_shape">
	<rect fill="none" width="24" height="24"/>
</g>
</svg>
