<?xml version="1.0" encoding="utf-8"?>
<!-- Generator: Adobe Illustrator 19.2.0, SVG Export Plug-In . SVG Version: 6.00 Build 0)  -->
<svg version="1.1" xmlns="http://www.w3.org/2000/svg" xmlns:xlink="http://www.w3.org/1999/xlink" x="0px" y="0px" width="24px"
	 height="24px" viewBox="0 0 24 24" enable-background="new 0 0 24 24" xml:space="preserve">
<g id="Filled_Icons">
	<g>
		<path d="M16.252,1.061c-3.032,0-5.5,2.468-5.5,5.5c0,3.033,2.468,5.5,5.5,5.5c3.033,0,5.5-2.467,5.5-5.5
			C21.752,3.528,19.285,1.061,16.252,1.061z M16.252,10.061c-0.276,0-0.5-0.224-0.5-0.5c0-0.275,0.224-0.5,0.5-0.5
			c1.379,0,2.5-1.121,2.5-2.5c0-0.275,0.224-0.5,0.5-0.5c0.276,0,0.5,0.225,0.5,0.5C19.752,8.491,18.182,10.061,16.252,10.061z"/>
		<circle cx="23.502" cy="6.061" r="0.5"/>
		<path d="M23.5,7C23.224,7,23,7.224,23,7.5v16c0,0.276,0.224,0.5,0.5,0.5c0.275,0,0.5-0.224,0.5-0.5v-16C24,7.224,23.775,7,23.5,7z
			"/>
		<path d="M19.396,19.959c-0.228-0.125-0.511-0.059-0.656,0.155c-0.386,0.564-1.021,0.902-1.702,0.902
			c-1.136,0-2.059-0.925-2.059-2.06c0-1.99-1.532-3.032-3.046-3.032c-0.719,0-1.399,0.227-1.934,0.631
			c-0.533-0.404-1.214-0.631-1.933-0.631c-1.514,0-3.045,1.042-3.045,3.032c0,1.136-0.924,2.06-2.06,2.06
			c-0.682,0-1.317-0.338-1.701-0.902c-0.145-0.214-0.431-0.28-0.656-0.155c-0.227,0.126-0.319,0.403-0.214,0.641
			c0.939,2.107,2.764,3.315,5.008,3.315c1.779,0,3.513-0.778,4.601-2.027c1.088,1.249,2.822,2.027,4.602,2.027
			c2.244,0,4.069-1.209,5.008-3.315C19.714,20.362,19.622,20.085,19.396,19.959z"/>
	</g>
</g>
<g id="invisible_shape">
	<rect fill="none" width="24" height="24"/>
</g>
</svg>
