<?xml version="1.0" encoding="utf-8"?>
<!-- Generator: Adobe Illustrator 19.2.0, SVG Export Plug-In . SVG Version: 6.00 Build 0)  -->
<svg version="1.1" xmlns="http://www.w3.org/2000/svg" xmlns:xlink="http://www.w3.org/1999/xlink" x="0px" y="0px" width="24px"
	 height="24px" viewBox="0 0 24 24" enable-background="new 0 0 24 24" xml:space="preserve">
<g id="Filled_Icons">
	<g>
		<path d="M9.535,2.68C9.611,2.87,9.795,2.994,10,2.994h4c0.204,0,0.388-0.124,0.464-0.314l1.001-1.994
			c0.062-0.152,0.043-0.328-0.05-0.466C15.321,0.084,15.167,0,15.001,0h-6C8.835,0,8.68,0.084,8.587,0.22
			C8.494,0.357,8.475,0.533,8.536,0.686L9.535,2.68z"/>
		<path d="M14.494,4.43C14.461,4.18,14.249,3.994,13.999,4h-4C9.748,3.994,9.536,4.18,9.503,4.43L7.505,19.435
			c-0.021,0.153,0.032,0.309,0.143,0.418l4,4C11.741,23.947,11.868,24,12.001,24c0.133,0,0.26-0.053,0.353-0.146l3.999-4
			c0.11-0.109,0.163-0.265,0.143-0.418L14.494,4.43z"/>
	</g>
</g>
<g id="invisible_shape">
	<rect fill="none" width="24" height="24"/>
</g>
</svg>
