<?xml version="1.0" encoding="utf-8"?>
<!-- Generator: Adobe Illustrator 19.2.0, SVG Export Plug-In . SVG Version: 6.00 Build 0)  -->
<svg version="1.1" xmlns="http://www.w3.org/2000/svg" xmlns:xlink="http://www.w3.org/1999/xlink" x="0px" y="0px" width="24px"
	 height="24px" viewBox="0 0 24 24" enable-background="new 0 0 24 24" xml:space="preserve">
<g id="Filled_Icons">
	<g>
		<g>
			<path d="M22,4c1.103,0,2-0.898,2-2s-0.897-2-2-2H2C0.897,0,0,0.897,0,2s0.897,2,2,2H22z"/>
			<path d="M22,7c-1.302,0-2.401-0.838-2.815-2h-8.072l-2.39,4.865c-0.121,0.247-0.02,0.546,0.227,0.668l1.965,0.971
				c0.191,0.096,0.422,0.058,0.573-0.092C12.42,10.491,13.667,9.984,15,9.984c1.489,0,2.896,0.669,3.856,1.834
				C18.952,11.934,19.094,12,19.242,12c0.007,0,0.015,0,0.021,0c0.156-0.007,0.301-0.087,0.391-0.216l2.758-4
				c0.105-0.153,0.117-0.352,0.03-0.517C22.356,7.102,22.185,7,22,7z"/>
			<path d="M3,5v2.438C3,7.63,3.11,7.806,3.284,7.889l2.063,0.985C5.416,8.907,5.49,8.923,5.563,8.923
				c0.184,0,0.36-0.102,0.448-0.278L7.817,5H3z"/>
		</g>
		<g>
			<path d="M21,19v-2.438c0-0.192-0.11-0.368-0.284-0.451l-2.061-0.985c-0.245-0.118-0.542-0.016-0.664,0.229L16.183,19H21z"/>
			<path d="M22,20H2c-1.102,0-2,0.897-2,2s0.897,2,2,2h20c1.103,0,2-0.897,2-2S23.103,20,22,20z"/>
			<path d="M2,17c1.302,0,2.401,0.839,2.815,2h8.072l2.39-4.864c0.121-0.247,0.02-0.547-0.227-0.669l-1.965-0.971
				c-0.191-0.094-0.421-0.056-0.573,0.093c-0.932,0.92-2.179,1.427-3.512,1.427c-1.489,0-2.896-0.668-3.857-1.834
				c-0.1-0.12-0.244-0.191-0.407-0.181c-0.157,0.007-0.301,0.087-0.391,0.216l-2.757,4c-0.106,0.152-0.117,0.352-0.03,0.516
				C1.644,16.897,1.814,17,2,17z"/>
		</g>
	</g>
</g>
<g id="invisible_shape">
	<rect fill="none" width="24" height="24"/>
</g>
</svg>
