<?xml version="1.0" encoding="utf-8"?>
<!-- Generator: Adobe Illustrator 19.2.0, SVG Export Plug-In . SVG Version: 6.00 Build 0)  -->
<svg version="1.1" xmlns="http://www.w3.org/2000/svg" xmlns:xlink="http://www.w3.org/1999/xlink" x="0px" y="0px" width="24px"
	 height="24px" viewBox="0 0 24 24" enable-background="new 0 0 24 24" xml:space="preserve">
<g id="Filled_Icons">
	<path d="M19.188,4.609l-1.926-0.554l-1.345-1.345C15.724,2.295,14.927,1,12.5,1S9.276,2.295,9.082,2.711L7.737,4.056L5.815,4.608
		C4.747,4.907,4,5.894,4,7.01V21.5C4,22.879,5.121,24,6.5,24H12V9c0-0.276,0.224-0.5,0.5-0.5S13,8.724,13,9v15h5.5
		c1.379,0,2.5-1.121,2.5-2.5V7.01C21,5.894,20.253,4.907,19.188,4.609z M11,6.793L8.707,4.5L9.5,3.707L11.793,6L11,6.793z
		 M12.5,5.293l-2.381-2.381C10.375,2.568,11.023,2,12.5,2s2.125,0.568,2.381,0.912L12.5,5.293z M13.207,6L15.5,3.707L16.293,4.5
		L14,6.793L13.207,6z M18.5,14l-2,1l-2-1v-3h4V14z"/>
</g>
<g id="invisible_shape">
	<rect fill="none" width="24" height="24"/>
</g>
</svg>
