<?xml version="1.0" encoding="utf-8"?>
<!-- Generator: Adobe Illustrator 19.2.0, SVG Export Plug-In . SVG Version: 6.00 Build 0)  -->
<svg version="1.1" xmlns="http://www.w3.org/2000/svg" xmlns:xlink="http://www.w3.org/1999/xlink" x="0px" y="0px" width="24px"
	 height="24px" viewBox="0 0 24 24" enable-background="new 0 0 24 24" xml:space="preserve">
<g id="Filled_Icons">
	<g>
		<path d="M20.806,6.5h0.473L21.14,4h-3.576C17.852,5.36,19.263,6.5,20.806,6.5z"/>
		<path d="M21.084,3l-0.085-1.527C20.984,1.207,20.766,1,20.5,1h-17C3.234,1,3.016,1.207,3.001,1.473L2.916,3H21.084z"/>
		<path d="M20.806,7.5c-2.11,0-3.961-1.587-4.246-3.5H7.444c-0.286,1.913-2.138,3.5-4.25,3.5H2.666l-0.548,9.861
			c-0.039,0.693,0.203,1.353,0.681,1.857c0.067,0.071,0.145,0.128,0.22,0.19C2.989,19.559,3,21.333,3,21.5C3,22.327,3.673,23,4.5,23
			h4c0.827,0,1.5-0.673,1.5-1.5v-2c0-0.004-0.002-0.007-0.002-0.011C10.602,19.033,11,18.315,11,17.5V12c0-0.552,0.448-1,1-1
			s1,0.448,1,1v5.5c0,0.815,0.398,1.533,1.002,1.989c0,0.004-0.002,0.007-0.002,0.011v2c0,0.827,0.673,1.5,1.5,1.5h4
			c0.827,0,1.5-0.673,1.5-1.5c0-0.167,0.011-1.941-0.019-2.092c0.074-0.063,0.152-0.119,0.22-0.19
			c0.477-0.504,0.72-1.163,0.681-1.857L21.334,7.5H20.806z M5,22H4.5C4.225,22,4,21.775,4,21.5V20h0.614H5V22z M7,22H6v-2h1V22z
			 M9,21.5C9,21.775,8.775,22,8.5,22H8v-2h0.5H9V21.5z M16,22h-0.5c-0.275,0-0.5-0.225-0.5-0.5V20h0.5H16V22z M18,22h-1v-2h1V22z
			 M20,21.5c0,0.275-0.225,0.5-0.5,0.5H19v-2h0.386H20V21.5z"/>
		<path d="M6.44,4H2.86L2.722,6.5h0.473C4.739,6.5,6.152,5.36,6.44,4z"/>
	</g>
</g>
<g id="invisible_shape">
	<rect fill="none" width="24" height="24"/>
</g>
</svg>
