<?xml version="1.0" encoding="utf-8"?>
<!-- Generator: Adobe Illustrator 19.2.0, SVG Export Plug-In . SVG Version: 6.00 Build 0)  -->
<svg version="1.1" xmlns="http://www.w3.org/2000/svg" xmlns:xlink="http://www.w3.org/1999/xlink" x="0px" y="0px" width="24px"
	 height="24px" viewBox="0 0 24 24" enable-background="new 0 0 24 24" xml:space="preserve">
<g id="Filled_Icons">
	<g>
		<path d="M19.5,5V2.5C19.5,2.224,19.276,2,19,2H6C5.724,2,5.5,2.224,5.5,2.5V5H19.5z"/>
		<path d="M9.47,6H5.391L2.51,20.402c-0.037,0.186,0.034,0.376,0.184,0.492C3.341,21.398,4.354,22,5.5,22
			c1.212,0,2.291-0.452,3.1-1.214L9.47,6z"/>
		<path d="M14.528,6h-4.057L9.591,20.972C10.376,21.624,11.385,22,12.5,22s2.124-0.376,2.909-1.028L14.528,6z"/>
		<path d="M19.609,6H15.53l0.87,14.786C17.209,21.548,18.288,22,19.5,22c1.016,0,1.94-0.366,2.824-1.119
			c0.138-0.118,0.201-0.301,0.166-0.479L19.609,6z"/>
	</g>
</g>
<g id="invisible_shape">
	<rect fill="none" width="24" height="24"/>
</g>
</svg>
