<?xml version="1.0" encoding="utf-8"?>
<!-- Generator: Adobe Illustrator 19.2.0, SVG Export Plug-In . SVG Version: 6.00 Build 0)  -->
<svg version="1.1" xmlns="http://www.w3.org/2000/svg" xmlns:xlink="http://www.w3.org/1999/xlink" x="0px" y="0px" width="24px"
	 height="24px" viewBox="0 0 24 24" enable-background="new 0 0 24 24" xml:space="preserve">
<g id="Filled_Icons">
	<g>
		<path d="M23.5,3h-23C0.224,3,0,3.224,0,3.5V5h24V3.5C24,3.224,23.776,3,23.5,3z"/>
		<path d="M20.05,6H12.5c0,1.103-0.898,2-2,2h-3C7.087,8,7.014,8.904,7.002,9.354l2.164,0.773l1.48-1.48
			c0.195-0.195,0.512-0.195,0.707,0s0.195,0.513,0,0.707l-1.146,1.144l0.841,0.301c0.024-0.054,0.055-0.105,0.099-0.148l1.498-1.503
			c0.195-0.196,0.512-0.195,0.707-0.001c0.196,0.194,0.196,0.512,0.001,0.707l-1.301,1.304l2.279,0.814
			c0.156,0.057,0.324,0.03,0.456-0.062C14.921,11.816,15,11.663,15,11.5c0-0.403,0.953-1,3-1c1.703,0,3,0.668,3,1
			c0,0.276,0.224,0.5,0.5,0.5h1c0.827,0,1.5-0.673,1.5-1.5V9C22.272,9,20.364,7.747,20.05,6z"/>
		<path d="M6.021,9.003C6.154,7.278,6.986,7,7.5,7h3c0.551,0,1-0.447,1-1H0.016c0.076,0.548,0.449,1.019,0.979,1.208L6.021,9.003z"
			/>
		<path d="M24,8V6h-2.928C21.402,7.144,22.809,8,24,8z"/>
		<path d="M13.5,17c-0.552,0-1,0.449-1,1h11.483c-0.075-0.547-0.448-1.019-0.979-1.207l-5.026-1.795
			C17.845,16.723,17.014,17,16.5,17H13.5z"/>
		<path d="M0,16v2h2.928C2.598,16.856,1.19,16,0,16z"/>
		<path d="M3.95,18h7.55c0-1.103,0.896-2,2-2h3c0.412,0,0.486-0.904,0.497-1.352l-2.164-0.773l-1.479,1.479
			C13.256,15.451,13.128,15.5,13,15.5s-0.256-0.049-0.354-0.146c-0.195-0.195-0.195-0.512,0-0.707l1.145-1.144l-0.841-0.3
			c-0.023,0.054-0.055,0.106-0.099,0.149l-1.498,1.502C11.256,14.951,11.128,15,11,15s-0.256-0.049-0.354-0.146
			c-0.195-0.195-0.195-0.512-0.001-0.707l1.301-1.304l-2.278-0.814c-0.152-0.054-0.323-0.031-0.456,0.063
			C9.079,12.186,9,12.338,9,12.5c0,0.403-0.954,1-3,1c-1.703,0-3-0.666-3-1C3,12.224,2.776,12,2.5,12h-1C0.673,12,0,12.673,0,13.5
			V15C1.727,15,3.636,16.254,3.95,18z"/>
		<path d="M0,20.5C0,20.776,0.224,21,0.5,21h23c0.276,0,0.5-0.224,0.5-0.5V19H0V20.5z"/>
	</g>
</g>
<g id="invisible_shape">
	<rect fill="none" width="24" height="24"/>
</g>
</svg>
