<?xml version="1.0" encoding="utf-8"?>
<!-- Generator: Adobe Illustrator 19.2.0, SVG Export Plug-In . SVG Version: 6.00 Build 0)  -->
<svg version="1.1" xmlns="http://www.w3.org/2000/svg" xmlns:xlink="http://www.w3.org/1999/xlink" x="0px" y="0px" width="24px"
	 height="24px" viewBox="0 0 24 24" enable-background="new 0 0 24 24" xml:space="preserve">
<g id="Filled_Icons">
	<g>
		<path d="M8,23.021c0.303-0.874,0.5-1.365,0.5-2.365c0-1.805-0.887-3.495-2.371-4.523l-0.647-0.42
			c-1.455,0.984-2.086,2.871-1.431,4.681c0.571,1.578,2.107,2.64,3.823,2.64C7.916,23.033,7.959,23.022,8,23.021z"/>
		<path d="M19.49,7C19.807,6.581,20,6.064,20,5.5v-2C20,2.122,18.879,1,17.5,1h-7C9.121,1,8,2.122,8,3.5v2
			C8,6.064,8.193,6.581,8.51,7H19.49z"/>
		<path d="M17.451,15.186c-2.15-0.267-3.951,1.392-3.951,3.471c0,0.616,0.162,1.222,0.469,1.75l0.321,0.501l1.305-0.489
			C17.101,19.873,18,18.467,18,16.656v-1.414L17.451,15.186z"/>
		<path d="M13.115,20.928c-0.406-0.7-0.615-1.479-0.615-2.271c0-2.481,2.019-4.5,4.5-4.5c0.306,0,0.656,0.045,1,0.081V8h-8v5.858
			l-3.479,1.337l0.165,0.107C8.452,16.525,9.5,18.523,9.5,20.656c0,0.813-0.137,1.48-0.376,2.174
			c0.396-0.123,3.819-1.417,4.209-1.563L13.115,20.928z"/>
	</g>
</g>
<g id="invisible_shape">
	<rect fill="none" width="24" height="24"/>
</g>
</svg>
