<?xml version="1.0" encoding="utf-8"?>
<!-- Generator: Adobe Illustrator 19.2.0, SVG Export Plug-In . SVG Version: 6.00 Build 0)  -->
<svg version="1.1" xmlns="http://www.w3.org/2000/svg" xmlns:xlink="http://www.w3.org/1999/xlink" x="0px" y="0px" width="24px"
	 height="24px" viewBox="0 0 24 24" enable-background="new 0 0 24 24" xml:space="preserve">
<g id="Filled_Icons">
	<path d="M18.854,9.646C17.485,8.278,17,6.408,17,2.5C17,2.224,16.776,2,16.5,2h-2C14.224,2,14,2.224,14,2.5v3.8
		C13.469,6.78,12.362,7,11.5,7S9.531,6.78,9,6.3V2.5C9,2.224,8.776,2,8.5,2h-2C6.224,2,6,2.224,6,2.5
		c0,3.908-0.485,5.778-1.853,7.146C4.053,9.74,4,9.867,4,10v12.5C4,22.776,4.224,23,4.5,23h14c0.276,0,0.5-0.224,0.5-0.5V10
		C19,9.867,18.947,9.74,18.854,9.646z"/>
</g>
<g id="invisible_shape">
	<rect fill="none" width="24" height="24"/>
</g>
</svg>
