<?xml version="1.0" encoding="utf-8"?>
<!-- Generator: Adobe Illustrator 19.2.0, SVG Export Plug-In . SVG Version: 6.00 Build 0)  -->
<svg version="1.1" xmlns="http://www.w3.org/2000/svg" xmlns:xlink="http://www.w3.org/1999/xlink" x="0px" y="0px" width="24px"
	 height="24px" viewBox="0 0 24 24" enable-background="new 0 0 24 24" xml:space="preserve">
<g id="Filled_Icons">
	<path d="M18.834,17.268c0-1.166,0.468-2.172,0.919-3.145C20.739,12,21.748,9.803,18,6.287V1c0-0.553-0.447-1-1-1s-1,0.447-1,1
		v7.033c-1.908,1.236-6.095,1.235-8-0.002V1c0-0.553-0.447-1-1-1S6,0.447,6,1v5.291c-3.73,3.502-2.69,5.686-1.672,7.794
		c0.472,0.976,0.959,1.985,0.959,3.159c0,1.716-0.385,3.28-1.176,4.784c-0.21,0.403-0.195,0.913,0.037,1.297
		c0.243,0.406,0.665,0.659,1.1,0.659h13.625c0.491,0,0.89-0.367,1.102-0.714c0.229-0.384,0.244-0.908,0.036-1.306
		C19.463,20.922,18.834,19.446,18.834,17.268z"/>
</g>
<g id="invisible_shape">
	<rect fill="none" width="24" height="24"/>
</g>
</svg>
