<?xml version="1.0" encoding="utf-8"?>
<!-- Generator: Adobe Illustrator 19.2.0, SVG Export Plug-In . SVG Version: 6.00 Build 0)  -->
<svg version="1.1" xmlns="http://www.w3.org/2000/svg" xmlns:xlink="http://www.w3.org/1999/xlink" x="0px" y="0px" width="24px"
	 height="24px" viewBox="0 0 24 24" enable-background="new 0 0 24 24" xml:space="preserve">
<g id="Filled_Icons">
	<g>
		<path d="M5,4.261L0.203,8.11C0.094,8.197,0.027,8.325,0.017,8.464C0.007,8.602,0.055,8.739,0.15,8.841l2.875,3.083
			c0.091,0.098,0.217,0.155,0.351,0.159c0.005,0,0.01,0,0.015,0c0.128,0,0.251-0.049,0.345-0.138L5,10.743V4.261z"/>
		<path d="M22.772,8.11L18,4.261v6.492l1.237,1.191c0.094,0.09,0.218,0.14,0.347,0.14c0.005,0,0.009,0,0.014,0
			c0.134-0.004,0.261-0.061,0.351-0.159l2.875-3.083c0.095-0.102,0.144-0.237,0.134-0.376C22.948,8.326,22.881,8.198,22.772,8.11z"
			/>
		<path d="M17.019,15.047l0.001-0.006H17V4h-1.321l-0.944-0.868C14.643,3.047,14.521,3,14.396,3H8.564
			c-0.127,0-0.25,0.049-0.343,0.136L7.302,4H6v11.041H5.974l-1.951,6.312c-0.047,0.151-0.02,0.316,0.075,0.444
			C4.191,21.925,4.341,22,4.5,22h5.531c0.217,0,0.408-0.14,0.476-0.345L11,20.144v-9.873c-1.291-2.186-2.492-4.76-2.898-5.65
			L8.762,4h5.439l0.667,0.612C14.435,5.468,13.234,7.82,12,10.078v9.887l0.59,1.699C12.66,21.865,12.85,22,13.063,22H18.5
			c0.159,0,0.309-0.075,0.402-0.203c0.095-0.128,0.122-0.294,0.075-0.445L17.019,15.047z M8.5,19C8.225,19,8,18.776,8,18.5
			S8.225,18,8.5,18S9,18.224,9,18.5S8.775,19,8.5,19z M8.5,16C8.775,16,9,16.224,9,16.5S8.775,17,8.5,17S8,16.776,8,16.5
			S8.225,16,8.5,16z M14.5,19c-0.275,0-0.5-0.224-0.5-0.5s0.225-0.5,0.5-0.5s0.5,0.224,0.5,0.5S14.775,19,14.5,19z M14.5,17
			c-0.275,0-0.5-0.224-0.5-0.5s0.225-0.5,0.5-0.5s0.5,0.224,0.5,0.5S14.775,17,14.5,17z"/>
	</g>
</g>
<g id="invisible_shape">
	<rect fill="none" width="24" height="24"/>
</g>
</svg>
