<?xml version="1.0" encoding="utf-8"?>
<!-- Generator: Adobe Illustrator 19.2.0, SVG Export Plug-In . SVG Version: 6.00 Build 0)  -->
<svg version="1.1" xmlns="http://www.w3.org/2000/svg" xmlns:xlink="http://www.w3.org/1999/xlink" x="0px" y="0px" width="24px"
	 height="24px" viewBox="0 0 24 24" enable-background="new 0 0 24 24" xml:space="preserve">
<g id="Filled_Icons">
	<g>
		<path d="M12,20c0,0.553,0.447,1,1,1c0.552,0,1-0.447,1-1V4.5C14,2.02,11.981,0,9.5,0S5,2.02,5,4.5c0,0.553,0.447,1,1,1
			c0.552,0,1-0.447,1-1C7,3.122,8.121,2,9.5,2C10.878,2,12,3.122,12,4.5V20z"/>
		<path d="M13.5,22h-1c-0.553,0-1,0.448-1,1c0,0.553,0.447,1,1,1h1c0.552,0,1-0.447,1-1C14.5,22.448,14.052,22,13.5,22z"/>
	</g>
</g>
<g id="invisible_shape">
	<rect fill="none" width="24" height="24"/>
</g>
</svg>
