<?xml version="1.0" encoding="utf-8"?>
<!-- Generator: Adobe Illustrator 19.2.0, SVG Export Plug-In . SVG Version: 6.00 Build 0)  -->
<svg version="1.1" xmlns="http://www.w3.org/2000/svg" xmlns:xlink="http://www.w3.org/1999/xlink" x="0px" y="0px" width="24px"
	 height="24px" viewBox="0 0 24 24" enable-background="new 0 0 24 24" xml:space="preserve">
<g id="Filled_Icons">
	<path d="M23.666,11.086l-11-9.834c-0.38-0.34-0.953-0.34-1.333,0l-11,9.834c-0.411,0.368-0.447,1-0.079,1.411
		c0.369,0.413,1.001,0.448,1.412,0.079l2.689-2.403L7.01,22.602c0.05,0.23,0.253,0.396,0.489,0.396h9
		c0.235,0,0.439-0.164,0.489-0.395l2.674-12.414l2.67,2.388c0.191,0.171,0.429,0.255,0.666,0.255c0.275,0,0.549-0.112,0.746-0.334
		C24.113,12.086,24.078,11.454,23.666,11.086z M12,20.281c-0.827,0-1.5-0.673-1.5-1.5c0-0.827,0.673-1.5,1.5-1.5
		c0.827,0,1.5,0.673,1.5,1.5C13.5,19.608,12.827,20.281,12,20.281z M12,15.497c-1.93,0-3.5-1.57-3.5-3.5s1.57-3.5,3.5-3.5
		s3.5,1.57,3.5,3.5S13.929,15.497,12,15.497z"/>
</g>
<g id="invisible_shape">
	<rect fill="none" width="24" height="24"/>
</g>
</svg>
