<?xml version="1.0" encoding="utf-8"?>
<!-- Generator: Adobe Illustrator 19.2.0, SVG Export Plug-In . SVG Version: 6.00 Build 0)  -->
<svg version="1.1" xmlns="http://www.w3.org/2000/svg" xmlns:xlink="http://www.w3.org/1999/xlink" x="0px" y="0px" width="24px"
	 height="24px" viewBox="0 0 24 24" enable-background="new 0 0 24 24" xml:space="preserve">
<g id="Filled_Icons">
	<path d="M22.5,21H21v-8.5c0-4.682-3.407-8.573-7.869-9.35C13.361,2.824,13.5,2.429,13.5,2c0-1.102-0.898-2-2-2
		c-1.103,0-2,0.897-2,2c0,0.429,0.139,0.824,0.369,1.15C5.406,3.927,2,7.818,2,12.5V21H0.5C0.223,21,0,21.224,0,21.5v2
		C0,23.776,0.223,24,0.5,24h22c0.276,0,0.5-0.224,0.5-0.5v-2C23,21.224,22.776,21,22.5,21z M11.5,14c0.276,0,0.5-0.224,0.5-0.5
		V4.025c1.464,0.086,2.827,0.54,4,1.277V21h-4v-4h2v-1H9v1h2v4H7V5.303c1.173-0.737,2.536-1.191,4-1.277V13.5
		C11,13.776,11.223,14,11.5,14z M20,12.5V21h-3V6.031C18.832,7.592,20,9.91,20,12.5z M3,12.5c0-2.59,1.168-4.908,3-6.469V21H3V12.5z
		"/>
</g>
<g id="invisible_shape">
	<rect fill="none" width="24" height="24"/>
</g>
</svg>
