<?xml version="1.0" encoding="utf-8"?>
<!-- Generator: Adobe Illustrator 19.2.0, SVG Export Plug-In . SVG Version: 6.00 Build 0)  -->
<svg version="1.1" xmlns="http://www.w3.org/2000/svg" xmlns:xlink="http://www.w3.org/1999/xlink" x="0px" y="0px" width="24px"
	 height="24px" viewBox="0 0 24 24" enable-background="new 0 0 24 24" xml:space="preserve">
<g id="Filled_Icons">
	<g>
		<path d="M13.479,5.562c0-0.526-0.214-1.042-0.586-1.414c-0.749-0.749-2.075-0.751-2.829,0L9.008,5.203V2.532c0-1.103-0.898-2-2-2
			c-1.103,0-2,0.898-2,2v2.672L3.983,4.179c-0.749-0.75-2.078-0.75-2.828,0c-0.378,0.378-0.586,0.88-0.586,1.414
			c0,0.526,0.213,1.042,0.586,1.414l3.853,3.854v3.672c0,1.103,0.897,2,2,2c1.102,0,2-0.897,1.991-2V10.86l3.894-3.885
			C13.265,6.603,13.479,6.088,13.479,5.562z"/>
		<path d="M23.83,13.959c-0.212-0.481-0.616-0.867-1.105-1.057c-0.493-0.191-1.048-0.18-1.531,0.031l-1.368,0.602l0.969-2.489
			c0.193-0.498,0.183-1.041-0.032-1.53c-0.215-0.488-0.608-0.865-1.106-1.059c-1.014-0.393-2.198,0.132-2.59,1.138l-0.969,2.488
			l-0.585-1.326c-0.214-0.49-0.608-0.866-1.104-1.059c-0.491-0.191-1.047-0.18-1.53,0.032c-0.483,0.213-0.869,0.615-1.059,1.105
			c-0.192,0.491-0.181,1.05,0.031,1.53l2.193,4.989l-1.332,3.421c-0.4,1.027,0.11,2.189,1.139,2.59
			c0.232,0.091,0.477,0.137,0.725,0.137c0.831,0,1.563-0.5,1.864-1.274l1.332-3.422l5.029-2.21c0.49-0.216,0.865-0.608,1.06-1.106
			C24.056,14.994,24.045,14.45,23.83,13.959z"/>
	</g>
</g>
<g id="invisible_shape">
	<rect fill="none" width="24" height="24"/>
</g>
</svg>
