<?xml version="1.0" encoding="utf-8"?>
<!-- Generator: Adobe Illustrator 19.2.0, SVG Export Plug-In . SVG Version: 6.00 Build 0)  -->
<svg version="1.1" xmlns="http://www.w3.org/2000/svg" xmlns:xlink="http://www.w3.org/1999/xlink" x="0px" y="0px" width="24px"
	 height="24px" viewBox="0 0 24 24" enable-background="new 0 0 24 24" xml:space="preserve">
<g id="Filled_Icons">
	<g>
		<path d="M12,8.621l-9,9V24h5v-5c0-2.206,1.794-4,4-4c2.206,0,4,1.794,4,4v5h5v-6.379L12,8.621z"/>
		<path d="M23.854,12.646l-11.5-11.5c-0.195-0.195-0.512-0.195-0.707,0l-11.5,11.5C0.053,12.74,0,12.867,0,13v5
			c0,0.202,0.122,0.385,0.309,0.462c0.186,0.077,0.401,0.035,0.545-0.108L12,7.207l11.146,11.147
			C23.242,18.449,23.37,18.5,23.5,18.5c0.065,0,0.129-0.013,0.191-0.038C23.878,18.385,24,18.202,24,18v-5
			C24,12.867,23.947,12.74,23.854,12.646z"/>
	</g>
</g>
<g id="invisible_shape">
	<rect fill="none" width="24" height="24"/>
</g>
</svg>
