<?xml version="1.0" encoding="utf-8"?>
<!-- Generator: Adobe Illustrator 19.2.0, SVG Export Plug-In . SVG Version: 6.00 Build 0)  -->
<svg version="1.1" xmlns="http://www.w3.org/2000/svg" xmlns:xlink="http://www.w3.org/1999/xlink" x="0px" y="0px" width="24px"
	 height="24px" viewBox="0 0 24 24" enable-background="new 0 0 24 24" xml:space="preserve">
<g id="Filled_Icons">
	<path d="M15,6.278V3.06c0.603,0.451,1.394,0.943,1.984,0.943c1.111,0,2.016-0.897,2.016-2c0-1.102-0.904-2-2.016-2
		c-0.778,0-1.901,0.851-2.484,1.339c-0.583-0.488-1.706-1.339-2.485-1.339c-1.111,0-2.015,0.897-2.015,2c0,1.103,0.904,2,2.015,2
		c0.591,0,1.381-0.492,1.985-0.943v2.861c-0.871-0.301-1.82-0.601-2.863-0.898c-0.316-0.091-0.635-0.137-0.946-0.137
		c-2.474,0-4.136,2.856-4.136,5.524c0,0.552,0.084,1.051,0.211,1.519c-1.147,0.047-3.414,0.281-4.55,1.385
		c-0.476,0.462-0.716,1.022-0.716,1.667c0,1.755,2.447,2.216,4.814,2.661C7.775,18.011,10,18.429,10,19.472
		c0,1.999-4.806,3.256-6.489,3.538c-0.272,0.046-0.456,0.304-0.41,0.576c0.04,0.244,0.253,0.417,0.493,0.417
		c0.027,0,0.055-0.002,0.083-0.007C4.425,23.87,11,22.678,11,19.472c0-1.872-2.543-2.351-5.002-2.814
		C4.123,16.306,2,15.906,2,14.981c0-0.369,0.135-0.68,0.412-0.949c0.93-0.904,3.169-1.108,4.241-1.114
		c0.715,1.309,2.031,2.086,3.757,2.08h9.814c1.558,0.006,2.716-0.791,2.882-1.977C23.233,12.116,22.915,9.223,15,6.278z
		 M16.984,1.003c0.56,0,1.016,0.448,1.016,1c0,0.552-0.456,1-1.016,1c-0.322,0-1.061-0.47-1.715-0.999
		C15.885,1.508,16.65,1.003,16.984,1.003z M12.015,3.003c-0.559,0-1.015-0.448-1.015-1c0-0.552,0.456-1,1.015-1
		c0.322,0,1.062,0.47,1.716,1C13.076,2.533,12.336,3.003,12.015,3.003z M18.5,12.503c-0.552,0-1-0.448-1-1c0-0.552,0.448-1,1-1
		c0.551,0,1,0.448,1,1C19.5,12.055,19.051,12.503,18.5,12.503z"/>
</g>
<g id="invisible_shape">
	<rect fill="none" width="24" height="24"/>
</g>
</svg>
