<?xml version="1.0" encoding="utf-8"?>
<!-- Generator: Adobe Illustrator 19.2.0, SVG Export Plug-In . SVG Version: 6.00 Build 0)  -->
<svg version="1.1" xmlns="http://www.w3.org/2000/svg" xmlns:xlink="http://www.w3.org/1999/xlink" x="0px" y="0px" width="24px"
	 height="24px" viewBox="0 0 24 24" enable-background="new 0 0 24 24" xml:space="preserve">
<g id="Filled_Icons">
	<g>
		<path d="M17.667,6.788c-0.333,0-0.657,0.048-0.97,0.144C16.032,4.94,14.143,3.55,12,3.55c-2.143,0-4.033,1.392-4.699,3.383
			c-0.313-0.096-0.64-0.145-0.967-0.145C4.371,6.788,3,8.325,3,10.526c0,0.133,0.053,0.26,0.146,0.354
			c0.094,0.094,0.221,0.146,0.354,0.146v-0.029l17-0.018c0.276,0.029,0.5-0.194,0.5-0.471C21,8.352,19.597,6.788,17.667,6.788z"/>
		<path d="M23.984,20.382l-2-8c-0.056-0.223-0.255-0.379-0.485-0.379h-19c-0.23,0-0.43,0.156-0.486,0.379l-2,8
			c-0.037,0.149-0.003,0.308,0.092,0.429c0.094,0.121,0.24,0.192,0.394,0.187h23c0.153,0.006,0.299-0.066,0.394-0.187
			C23.988,20.69,24.022,20.531,23.984,20.382z M17,17.503c0,0.276-0.224,0.5-0.5,0.5h-9c-0.277,0-0.5-0.224-0.5-0.5v-2
			c0-0.276,0.223-0.5,0.5-0.506h9c0.276,0.006,0.5,0.229,0.5,0.506V17.503z"/>
	</g>
</g>
<g id="invisible_shape">
	<rect fill="none" width="24" height="24"/>
</g>
</svg>
