<?xml version="1.0" encoding="utf-8"?>
<!-- Generator: Adobe Illustrator 19.2.0, SVG Export Plug-In . SVG Version: 6.00 Build 0)  -->
<svg version="1.1" xmlns="http://www.w3.org/2000/svg" xmlns:xlink="http://www.w3.org/1999/xlink" x="0px" y="0px" width="24px"
	 height="24px" viewBox="0 0 24 24" enable-background="new 0 0 24 24" xml:space="preserve">
<g id="Filled_Icons">
	<g>
		<path d="M15.5,7h-8C6.121,7,5,8.121,5,9.5v12C5,22.878,6.121,24,7.5,24h8c1.379,0,2.5-1.122,2.5-2.5v-12C18,8.121,16.879,7,15.5,7
			z M11.5,10.5c0.827,0,1.5,0.672,1.5,1.5c0,0.826-0.673,1.5-1.5,1.5S10,12.826,10,12C10,11.172,10.673,10.5,11.5,10.5z M7,14
			c0-0.828,0.673-1.5,1.5-1.5S10,13.172,10,14c0,0.826-0.673,1.5-1.5,1.5S7,14.826,7,14z M12.951,19h-2.928
			c-1.148,0-1.902-1.372-1.175-2.366l1.463-1.996c0.548-0.745,1.808-0.743,2.352,0.001l1.464,2.008
			C14.85,17.637,14.095,19,12.951,19z M14.5,15.5c-0.827,0-1.5-0.674-1.5-1.5c0-0.828,0.673-1.5,1.5-1.5S16,13.172,16,14
			C16,14.826,15.327,15.5,14.5,15.5z"/>
		<path d="M6.323,3.318L8.235,1H11v2.5h-0.5c-0.204,0-0.389,0.124-0.464,0.315L9.162,6h4.676l-0.874-2.185
			C12.889,3.624,12.704,3.5,12.5,3.5H12V1h3c0.276,0,0.5-0.225,0.5-0.5C15.5,0.223,15.276,0,15,0H8C7.851,0,7.709,0.066,7.614,0.182
			l-2.063,2.5C5.376,2.895,5.406,3.209,5.619,3.385C5.837,3.565,6.149,3.528,6.323,3.318z"/>
	</g>
</g>
<g id="invisible_shape">
	<rect fill="none" width="24" height="24"/>
</g>
</svg>
