<?xml version="1.0" encoding="utf-8"?>
<!-- Generator: Adobe Illustrator 19.2.0, SVG Export Plug-In . SVG Version: 6.00 Build 0)  -->
<svg version="1.1" xmlns="http://www.w3.org/2000/svg" xmlns:xlink="http://www.w3.org/1999/xlink" x="0px" y="0px" width="24px"
	 height="24px" viewBox="0 0 24 24" enable-background="new 0 0 24 24" xml:space="preserve">
<g id="Filled_Icons">
	<g>
		<path d="M12.71,7.015c0,5.354-4.356,9.711-9.71,9.711H2.607c0.768,0.845,1.671,1.564,2.686,2.107
			c0.434-0.119,0.883-0.245,1.317-0.369C11.623,16.89,15,12.287,15,7.015c0-1.857-0.413-3.638-1.227-5.292
			c-0.224-0.405-0.483-0.844-0.724-1.229c-1.057-0.34-2.129-0.504-3.314-0.466C11.451,1.594,12.71,4.179,12.71,7.015z"/>
		<path d="M15.002,12.033c-0.297,0.715-0.66,1.396-1.077,2.042c1.687,1.215,3.057,1.417,4.25,1.663
			c0.498-0.708,0.912-1.478,1.214-2.303C17.769,13.436,16.396,13.149,15.002,12.033z"/>
		<path d="M14.659,1.26c0.639,1.298,1.039,2.655,1.222,4.059c0.742-0.96,0.895-1.355,1.297-2.25
			c-0.749-0.774-1.621-1.426-2.586-1.927C14.615,1.182,14.636,1.218,14.659,1.26z"/>
		<path d="M3,12.436c0.531,0,1.043-0.08,1.528-0.223c-1.574-0.579-3.039-1.453-4.287-2.591L0.03,9.417C0.019,9.616,0,9.814,0,10.015
			c0,0.559,0.058,1.104,0.146,1.638l0.9,0.423C1.646,12.31,2.314,12.436,3,12.436z"/>
		<path d="M15.592,11.197c1.623,1.327,3.102,1.238,4.102,1.238C19.889,11.659,20,10.851,20,10.015c0-0.887-0.127-1.742-0.346-2.563
			l-0.117,0.177C18.481,9.085,17.123,10.292,15.592,11.197z"/>
		<path d="M19.257,6.245C18.911,5.4,18.45,4.616,17.898,3.904c-0.463,1.032-1.047,1.949-1.913,2.848C15.986,6.841,16,6.927,16,7.015
			c0,1.022-0.122,2.018-0.345,2.979C17.702,8.623,18.592,7.246,19.257,6.245z"/>
		<path d="M8.154,5.368C7.432,3.124,5.879,2.35,4.41,1.727C4.258,1.83,4.115,1.946,3.969,2.058C4.969,4.109,6.416,5.093,8.154,5.368
			z"/>
		<path d="M8.159,8.673c0.168-0.524,0.262-1.08,0.262-1.658c0-0.21-0.022-0.417-0.046-0.623c-2.107-0.207-4.103-1.429-5.194-3.67
			C2.566,3.296,2.024,3.944,1.57,4.657C2.371,5.657,4.156,8.29,8.159,8.673z"/>
		<path d="M23.093,21.423c-0.567-1.326-2.767-3.189-6.675-3.749c0.384-0.322,0.733-0.682,1.065-1.058
			c-1-0.206-2.413-0.49-4.13-1.724c-0.467,0.614-0.991,1.183-1.563,1.706c0.796,0.601,1.659,1.104,2.579,1.49l1.043,0.484
			c4.01,0.34,6.1,2.076,6.663,3.049c0.201,0.347,0.182,0.529,0.168,0.555c-0.035,0.032-0.315,0.112-0.969-0.135
			c-3.978-1.501-8.321-0.732-11.81-0.115c-4.288,0.757-6.743,1.065-7.341-1.45c-0.063-0.269-0.333-0.436-0.602-0.37
			c-0.268,0.064-0.435,0.333-0.37,0.603c0.509,2.14,1.995,2.764,3.993,2.764c1.32,0,2.864-0.273,4.496-0.562
			c3.544-0.627,7.561-1.338,11.284,0.066c1.176,0.443,1.76,0.185,2.042-0.109C23.293,22.526,23.339,21.999,23.093,21.423z"/>
		<path d="M6.752,19.462c1.02,0.353,2.11,0.553,3.248,0.553c1.484,0,2.886-0.34,4.151-0.925c-1-0.466-1.842-0.813-3.144-1.831
			C9.651,18.316,8.097,19.083,6.752,19.462z"/>
		<path d="M3,15.726c4.803,0,8.71-3.907,8.71-8.711c0-3.019-1.296-5.004-3.313-6.859C7.368,0.322,6.392,0.644,5.493,1.101
			l0.201,0.085c2.27,1.059,3.727,3.345,3.727,5.829c0,3.54-2.881,6.421-6.421,6.421c-0.812,0-1.602-0.149-2.351-0.442l-0.225-0.106
			c0.309,1.024,0.777,1.979,1.377,2.837L3,15.726z"/>
		<path d="M5.885,11.596c0.772-0.488,1.415-1.162,1.859-1.964c-3.015-0.39-4.992-1.887-6.703-4.033
			C0.645,6.401,0.349,7.261,0.178,8.167C1.178,9.14,2.793,10.765,5.885,11.596z"/>
	</g>
</g>
<g id="invisible_shape">
	<rect fill="none" width="24" height="24"/>
</g>
</svg>
