<?xml version="1.0" encoding="utf-8"?>
<!-- Generator: Adobe Illustrator 19.2.0, SVG Export Plug-In . SVG Version: 6.00 Build 0)  -->
<svg version="1.1" xmlns="http://www.w3.org/2000/svg" xmlns:xlink="http://www.w3.org/1999/xlink" x="0px" y="0px" width="24px"
	 height="24px" viewBox="0 0 24 24" enable-background="new 0 0 24 24" xml:space="preserve">
<g id="Filled_Icons">
	<g>
		<path d="M3.083,15.038l-3.016,5.215c-0.098,0.167-0.089,0.376,0.022,0.535c0.11,0.159,0.303,0.242,0.494,0.208l3.44-0.582
			l1.193,3.277C5.281,23.873,5.446,24,5.639,24.019c0.016,0.001,0.031,0.002,0.047,0.002c0.175,0,0.339-0.092,0.43-0.244
			l2.562-4.304C6.335,18.688,4.364,17.101,3.083,15.038z"/>
		<path d="M23.771,20.252l-2.94-5.072c-1.31,2.036-3.298,3.596-5.649,4.345l2.541,4.253c0.091,0.151,0.255,0.243,0.43,0.243
			c0.016,0,0.031-0.001,0.047-0.002c0.192-0.019,0.357-0.146,0.423-0.327l1.193-3.277l3.439,0.582
			c0.189,0.035,0.384-0.049,0.494-0.208C23.859,20.629,23.868,20.42,23.771,20.252z"/>
		<path d="M12,0.021c-5.238,0-9.5,4.262-9.5,9.5s4.262,9.5,9.5,9.5s9.5-4.262,9.5-9.5S17.238,0.021,12,0.021z M11.984,3.657
			c0.963,0,1.746,0.783,1.746,1.746s-0.783,1.746-1.746,1.746s-1.746-0.783-1.746-1.746S11.021,3.657,11.984,3.657z M6.5,7.896
			c0-0.963,0.783-1.746,1.746-1.746c0.963,0,1.746,0.783,1.746,1.746S9.209,9.642,8.246,9.642C7.283,9.642,6.5,8.858,6.5,7.896z
			 M15.332,13.048c-0.294,0.58-0.887,0.955-1.508,0.955h-3.648c-0.622,0-1.214-0.375-1.508-0.956
			c-0.291-0.575-0.235-1.28,0.144-1.797l1.822-2.486c0.644-0.871,2.102-0.863,2.731,0.002l1.824,2.499
			C15.565,11.78,15.622,12.481,15.332,13.048z M15.754,9.642c-0.963,0-1.746-0.783-1.746-1.746s0.783-1.746,1.746-1.746
			c0.963,0,1.746,0.783,1.746,1.746S16.717,9.642,15.754,9.642z"/>
	</g>
</g>
<g id="invisible_shape">
	<rect fill="none" width="24" height="24"/>
</g>
</svg>
