<?xml version="1.0" encoding="utf-8"?>
<!-- Generator: Adobe Illustrator 19.2.0, SVG Export Plug-In . SVG Version: 6.00 Build 0)  -->
<svg version="1.1" xmlns="http://www.w3.org/2000/svg" xmlns:xlink="http://www.w3.org/1999/xlink" x="0px" y="0px" width="24px"
	 height="24px" viewBox="0 0 24 24" enable-background="new 0 0 24 24" xml:space="preserve">
<g id="Filled_Icons">
	<g>
		<path d="M2.99,5.514C1.733,6.12,1,6.827,1,7.503c0,0.691,0.793,1.416,2.179,2.021c2.002-0.933,5.077-1.521,8.352-1.521
			c3.254,0,6.316,0.588,8.306,1.52C21.213,8.918,22,8.194,22,7.503c0-0.675-0.727-1.381-1.972-1.985
			c-2.098-0.928-5.124-1.515-8.497-1.515C8.144,4.003,5.102,4.589,2.99,5.514z"/>
		<path d="M23,8.503c0-0.017-0.042-0.277-0.09-0.446c-0.91,3.068-8.178,3.946-11.379,3.946c-5.272,0-10.741-1.533-11.448-3.955
			C0.032,8.222,0,8.396,0,8.575v3c0,1.936,2.999,3.563,7.717,4.181c0.562-1.689,2.164-2.753,3.783-2.753
			c1.623,0,3.228,1.071,3.786,2.765C19.977,15.166,23,13.528,23,11.575v-3c0-0.011-0.001-0.023-0.002-0.034
			C22.999,8.528,23,8.516,23,8.503z"/>
		<path d="M12,14.054v2.949c0,0.276-0.224,0.5-0.5,0.5s-0.5-0.224-0.5-0.5v-2.949c-1.416,0.239-2.5,1.466-2.5,2.949
			c0,1.654,1.346,3,3,3s3-1.346,3-3C14.5,15.519,13.416,14.293,12,14.054z"/>
	</g>
</g>
<g id="invisible_shape">
	<rect fill="none" width="24" height="24"/>
</g>
</svg>
