<?xml version="1.0" encoding="utf-8"?>
<!-- Generator: Adobe Illustrator 19.2.0, SVG Export Plug-In . SVG Version: 6.00 Build 0)  -->
<svg version="1.1" xmlns="http://www.w3.org/2000/svg" xmlns:xlink="http://www.w3.org/1999/xlink" x="0px" y="0px" width="24px"
	 height="24px" viewBox="0 0 24 24" enable-background="new 0 0 24 24" xml:space="preserve">
<g id="Filled_Icons">
	<path d="M23.045,5.304C22.966,5.12,22.785,5,22.585,5H1.415c-0.2,0-0.381,0.12-0.46,0.304C0.31,6.817,0,8.569,0,10
		c0,6.617,5.383,12,12,12s12-5.383,12-12C24,8.563,23.695,6.829,23.045,5.304z M15.426,16.176C15.398,16.25,14.71,18,11.958,18
		c-1.264,0-2.075-0.453-2.986-1.296c-0.396,0.408-0.713,0.744-1.118,1.149C7.54,18.167,7,17.945,7,17.5v-3
		c0-0.449,0.543-0.663,0.853-0.354c0.405,0.405,0.723,0.741,1.118,1.149C9.883,14.453,10.694,14,11.958,14
		c2.678,0,3.431,1.733,3.461,1.808C15.468,15.925,15.471,16.057,15.426,16.176z M1.059,9c0.092-1.049,0.324-2.055,0.692-3h20.498
		c0.368,0.946,0.6,1.951,0.692,3H1.059z"/>
</g>
<g id="invisible_shape">
	<rect fill="none" width="24" height="24"/>
</g>
</svg>
