<?xml version="1.0" encoding="utf-8"?>
<!-- Generator: Adobe Illustrator 19.2.0, SVG Export Plug-In . SVG Version: 6.00 Build 0)  -->
<svg version="1.1" xmlns="http://www.w3.org/2000/svg" xmlns:xlink="http://www.w3.org/1999/xlink" x="0px" y="0px" width="24px"
	 height="24px" viewBox="0 0 24 24" enable-background="new 0 0 24 24" xml:space="preserve">
<g id="Filled_Icons">
	<path d="M20.5,13.023h-0.887C18.584,9.675,15.564,7.253,12,7.044V5.187c2.783-0.174,5.277-1.757,6.586-4.25
		c0.128-0.244,0.034-0.547-0.21-0.675c-0.244-0.128-0.546-0.033-0.675,0.21c-1.214,2.313-3.59,3.749-6.201,3.749
		c-2.623,0-5.004-1.446-6.214-3.775C5.158,0.199,4.857,0.102,4.611,0.232c-0.245,0.127-0.34,0.429-0.213,0.674
		C5.703,3.417,8.204,5.013,11,5.187v1.857c-3.564,0.209-6.585,2.631-7.613,5.979H2.5c-0.827,0-1.5,0.673-1.5,1.5v1
		c0,0.827,0.673,1.5,1.5,1.5h0.641C3.828,20.877,7.091,23.77,11,24v-2.297l-1.551-1.86c-0.075-0.09-0.116-0.203-0.116-0.32
		c0-0.871,0.848-1.479,2.063-1.479c1.214,0,2.063,0.608,2.063,1.479c0,0.105-0.034,0.209-0.096,0.295L12,21.685V24
		c3.909-0.229,7.171-3.122,7.858-6.978H20.5c0.827,0,1.5-0.673,1.5-1.5v-1C22,13.695,21.327,13.023,20.5,13.023z M21,15.523
		c0,0.275-0.224,0.5-0.5,0.5h-18c-0.276,0-0.5-0.225-0.5-0.5v-1C2,14.247,2.224,14,2.5,14h18c0.276,0,0.5,0.247,0.5,0.523V15.523z"
		/>
</g>
<g id="invisible_shape">
	<rect fill="none" width="24" height="24"/>
</g>
</svg>
