<?xml version="1.0" encoding="utf-8"?>
<!-- Generator: Adobe Illustrator 19.2.0, SVG Export Plug-In . SVG Version: 6.00 Build 0)  -->
<svg version="1.1" xmlns="http://www.w3.org/2000/svg" xmlns:xlink="http://www.w3.org/1999/xlink" x="0px" y="0px" width="24px"
	 height="24px" viewBox="0 0 24 24" enable-background="new 0 0 24 24" xml:space="preserve">
<g id="Filled_Icons">
	<g>
		<path d="M23.911,8.069c-0.402,1.346-2.231,2.358-4.677,3.008c0.02,0.006,0.04,0.013,0.059,0.02
			c-1.879,0.544-4.371,0.906-7.261,0.906c-2.66,0-5.03-0.323-6.891-0.816c0.013-0.005,0.026-0.01,0.039-0.015
			c-2.646-0.643-4.66-1.684-5.09-3.097C0.045,8.233,0,8.494,0,8.494v0.081v6c0,2.876,6.199,4.428,12.033,4.428
			c5.801,0,11.967-1.552,11.967-4.428v-6c0-0.012-0.001-0.023-0.002-0.034C24.005,8.461,23.933,8.148,23.911,8.069z M3,15.003
			c-0.552,0-1-0.448-1-1c0-0.552,0.448-1,1-1c0.551,0,1,0.448,1,1C4,14.555,3.551,15.003,3,15.003z M5.958,16.003
			c-0.552,0-1-0.448-1-1c0-0.552,0.448-1,1-1c0.551,0,1,0.448,1,1C6.958,15.555,6.509,16.003,5.958,16.003z M16,17.503
			c0,0.257-0.195,0.473-0.451,0.498c-1.264,0.124-2.505,0.187-3.691,0.187c-1.163,0-2.311-0.06-3.411-0.18
			C8.192,17.98,8,17.766,8,17.511v-4.008c0-0.142,0.06-0.277,0.166-0.372c0.104-0.095,0.246-0.139,0.387-0.125
			c2.316,0.249,4.636,0.249,6.893,0c0.14-0.017,0.282,0.03,0.388,0.125C15.939,13.226,16,13.36,16,13.503V17.503z M18.041,16.003
			c-0.552,0-1-0.448-1-1c0-0.552,0.448-1,1-1c0.551,0,1,0.448,1,1C19.041,15.555,18.592,16.003,18.041,16.003z M21,15.003
			c-0.552,0-1-0.448-1-1c0-0.552,0.448-1,1-1c0.551,0,1,0.448,1,1C22,14.555,21.551,15.003,21,15.003z"/>
		<path d="M13.5,14.003h-3c-0.276,0-0.5,0.224-0.5,0.5v2c0,0.276,0.224,0.5,0.5,0.5h3c0.276,0,0.5-0.224,0.5-0.5v-2
			C14,14.227,13.776,14.003,13.5,14.003z"/>
		<path d="M23,7.503c0-0.779-1.011-1.6-2.708-2.258c-2.131-0.772-5.023-1.242-8.259-1.242c-3.784,0-7.153,0.67-9.357,1.711
			C1.611,6.273,1,6.899,1,7.503c0,1.157,2.421,2.409,6.106,3.03c1.164-0.303,2.669-0.53,4.927-0.53c2.33,0,3.936,0.209,5.195,0.494
			C20.78,9.865,23,8.64,23,7.503z"/>
	</g>
</g>
<g id="invisible_shape">
	<rect fill="none" width="24" height="24"/>
</g>
</svg>
