<?xml version="1.0" encoding="utf-8"?>
<!-- Generator: Adobe Illustrator 19.2.0, SVG Export Plug-In . SVG Version: 6.00 Build 0)  -->
<svg version="1.1" xmlns="http://www.w3.org/2000/svg" xmlns:xlink="http://www.w3.org/1999/xlink" x="0px" y="0px" width="24px"
	 height="24px" viewBox="0 0 24 24" enable-background="new 0 0 24 24" xml:space="preserve">
<g id="Filled_Icons">
	<path d="M23.707,22.302l-8.539-8.539C16.312,12.315,17,10.492,17,8.509c0-4.687-3.814-8.5-8.5-8.5S0,3.821,0,8.509
		c0,4.687,3.813,8.5,8.5,8.5c1.983,0,3.806-0.69,5.254-1.832l8.539,8.539c0.195,0.195,0.451,0.293,0.707,0.293
		s0.512-0.098,0.707-0.293C24.098,23.325,24.098,22.692,23.707,22.302z M8.484,3.024c0.963,0,1.746,0.783,1.746,1.746
		S9.447,6.517,8.484,6.517S6.738,5.733,6.738,4.771S7.522,3.024,8.484,3.024z M3,7.263C3,6.3,3.783,5.517,4.746,5.517
		S6.492,6.3,6.492,7.263S5.709,9.009,4.746,9.009S3,8.226,3,7.263z M11.832,13.054c-0.294,0.579-0.887,0.955-1.508,0.955H6.676
		c-0.621,0-1.214-0.376-1.509-0.957c-0.291-0.574-0.234-1.279,0.145-1.796l1.822-2.486c0.644-0.872,2.103-0.864,2.731,0.001
		l1.824,2.5C12.065,11.786,12.122,12.485,11.832,13.054z M12.254,9.009c-0.963,0-1.746-0.783-1.746-1.746s0.783-1.746,1.746-1.746
		S14,6.3,14,7.263S13.217,9.009,12.254,9.009z"/>
</g>
<g id="invisible_shape">
	<rect fill="none" width="24" height="24"/>
</g>
</svg>
