<?xml version="1.0" encoding="utf-8"?>
<!-- Generator: Adobe Illustrator 19.2.0, SVG Export Plug-In . SVG Version: 6.00 Build 0)  -->
<svg version="1.1" xmlns="http://www.w3.org/2000/svg" xmlns:xlink="http://www.w3.org/1999/xlink" x="0px" y="0px" width="24px"
	 height="24px" viewBox="0 0 24 24" enable-background="new 0 0 24 24" xml:space="preserve">
<g id="Filled_Icons">
	<g>
		<path d="M5.565,14.902l-4.632,4.632c-0.974,0.975-0.975,2.56,0,3.536c0.472,0.472,1.1,0.732,1.768,0.732
			c0.668,0,1.295-0.26,1.767-0.732L9.1,18.44C8.971,18.332,5.672,15.032,5.565,14.902z"/>
		<g>
			<path d="M16.329,0.338L9.074,12.532l2.399,2.398l12.239-7.188c-0.052-0.075-0.084-0.16-0.151-0.227l-7.07-7.071
				C16.443,0.396,16.381,0.377,16.329,0.338z M14.722,5.745l0.707,0.707l-1.414,1.415L13.308,7.16L14.722,5.745z M11.186,13.524
				l-0.707-0.707l1.414-1.414l0.707,0.707L11.186,13.524z M11.894,9.988l1.414-1.414l0.707,0.707l-1.414,1.414L11.894,9.988z
				 M14.015,12.11l-0.707-0.707l1.414-1.415l0.707,0.707L14.015,12.11z M14.722,8.574l1.415-1.414l0.707,0.707l-1.415,1.414
				L14.722,8.574z M16.844,10.695l-0.707-0.707l1.414-1.414l0.707,0.707L16.844,10.695z M20.379,7.16l-1.414,1.414l-0.707-0.707
				l1.414-1.414L20.379,7.16z M18.965,5.745L17.551,7.16l-0.707-0.707l1.414-1.415L18.965,5.745z M17.551,4.331l-1.414,1.414
				L15.43,5.038l1.414-1.414L17.551,4.331z"/>
			<path d="M11.646,15.987c-0.079,0.047-0.166,0.069-0.253,0.069c-0.13,0-0.257-0.05-0.354-0.146l-2.946-2.946
				c-0.162-0.162-0.193-0.412-0.076-0.609l7.33-12.321c-0.36,0.019-0.716,0.147-0.978,0.409L6.59,8.221
				c-1.754,1.754-1.755,4.609,0,6.364l2.829,2.828c0.85,0.851,1.98,1.318,3.182,1.318c1.202,0,2.332-0.468,3.183-1.318l7.777-7.778
				c0.246-0.246,0.365-0.562,0.404-0.883L11.646,15.987z"/>
		</g>
	</g>
</g>
<g id="invisible_shape">
	<rect fill="none" width="24" height="24"/>
</g>
</svg>
