<?xml version="1.0" encoding="utf-8"?>
<!-- Generator: Adobe Illustrator 19.2.0, SVG Export Plug-In . SVG Version: 6.00 Build 0)  -->
<svg version="1.1" xmlns="http://www.w3.org/2000/svg" xmlns:xlink="http://www.w3.org/1999/xlink" x="0px" y="0px" width="24px"
	 height="24px" viewBox="0 0 24 24" enable-background="new 0 0 24 24" xml:space="preserve">
<g id="Filled_Icons">
	<g>
		<path d="M21.839,5.297c-0.308-0.924-1.125-1.645-2.134-1.883c-0.537-0.128-1.059-0.081-1.52,0.089
			c1.21,1.89,0.347,4.992-2.214,7.553c-2.056,2.056-4.795,3.19-7.041,1.399l-7.109,7.096c-0.78,0.778-0.781,2.047-0.001,2.829
			c0.39,0.389,0.902,0.583,1.414,0.583c0.512,0,1.024-0.194,1.413-0.584l6.114-6.112c1.837,0.586,4.43-0.416,7.026-2.759
			C20.302,11.241,22.642,7.705,21.839,5.297z"/>
		<path d="M9.285,11.457c1.762,1.763,4.236,0.646,5.98-1.108c2.246-2.246,3.195-5.271,1.797-6.67l-2.031-2.029
			c-0.196-0.195-0.512-0.195-0.708,0c-0.195,0.195-0.195,0.512,0,0.707l2.032,2.029c0.34,0.342,0.431,0.958,0.288,1.703L12.91,2.355
			c-0.195-0.195-0.512-0.195-0.707,0c-0.195,0.195-0.195,0.512,0,0.707l4.098,4.1c-0.133,0.301-0.291,0.608-0.49,0.923l-4.446-4.443
			c-0.195-0.195-0.512-0.195-0.707,0c-0.195,0.195-0.195,0.512,0,0.707l4.56,4.557c-0.2,0.247-0.418,0.494-0.66,0.736
			c0,0,0,0-0.001,0.001L9.952,5.055C9.756,4.861,9.439,4.861,9.245,5.057C9.05,5.252,9.051,5.568,9.246,5.764l4.561,4.544
			c-0.291,0.231-0.577,0.416-0.857,0.569L8.667,6.6c-0.196-0.195-0.512-0.195-0.707,0c-0.195,0.195-0.195,0.512,0,0.707l3.977,3.972
			c-0.752,0.161-1.424-0.005-1.946-0.528L8.314,9.073c-0.195-0.195-0.512-0.195-0.708,0c-0.195,0.195-0.195,0.512,0,0.707
			L9.285,11.457z"/>
	</g>
</g>
<g id="invisible_shape">
	<rect fill="none" width="24" height="24"/>
</g>
</svg>
