<?xml version="1.0" encoding="utf-8"?>
<!-- Generator: Adobe Illustrator 19.2.0, SVG Export Plug-In . SVG Version: 6.00 Build 0)  -->
<svg version="1.1" xmlns="http://www.w3.org/2000/svg" xmlns:xlink="http://www.w3.org/1999/xlink" x="0px" y="0px" width="24px"
	 height="24px" viewBox="0 0 24 24" enable-background="new 0 0 24 24" xml:space="preserve">
<g id="Filled_Icons">
	<path d="M22.446,5.052c-0.664-0.664-1.52-1.046-2.489-1.019c0.009-0.925-0.351-1.821-1.017-2.487
		c-1.309-1.31-3.595-1.311-4.905-0.001c-1.336,1.336-1.305,3.691,0.205,5.107l-7.687,7.687c-0.767-0.788-1.684-1.145-2.63-1.145
		c-0.926,0-1.788,0.352-2.425,0.99c-0.655,0.655-1.021,1.519-1.029,2.435C0.46,17.54,0.816,18.407,1.47,19.062
		c0.656,0.657,1.515,1.007,2.469,1.002c-0.009,0.922,0.347,1.814,1.008,2.476c0.661,0.662,1.544,1.026,2.483,1.026
		c0.927,0,1.794-0.356,2.442-1.005c0.655-0.654,1.02-1.52,1.026-2.438c0.007-0.896-0.33-1.742-0.952-2.392l7.686-7.686
		c1.31,1.256,3.529,1.22,4.825-0.077C23.81,8.617,23.805,6.411,22.446,5.052z"/>
</g>
<g id="invisible_shape">
	<rect fill="none" width="24" height="24"/>
</g>
</svg>
