<?xml version="1.0" encoding="utf-8"?>
<!-- Generator: Adobe Illustrator 19.2.0, SVG Export Plug-In . SVG Version: 6.00 Build 0)  -->
<svg version="1.1" xmlns="http://www.w3.org/2000/svg" xmlns:xlink="http://www.w3.org/1999/xlink" x="0px" y="0px" width="24px"
	 height="24px" viewBox="0 0 24 24" enable-background="new 0 0 24 24" xml:space="preserve">
<g id="Filled_Icons">
	<g>
		<g>
			<path d="M7.193,8.128c0.672-0.372,1.398-0.653,2.16-0.845L5.949,0.284C5.865,0.112,5.691,0.003,5.5,0.003H3.328L7.193,8.128z"/>
			<path d="M6.344,8.669L2.221,0.003H0.5c-0.172,0-0.331,0.088-0.423,0.233C-0.015,0.382-0.025,0.564,0.049,0.72l4.579,9.53
				C5.127,9.651,5.706,9.122,6.344,8.669z"/>
		</g>
		<g>
			<path d="M15.824,8.089l3.848-8.086H17.5c-0.191,0-0.366,0.109-0.45,0.281l-3.394,6.979C14.42,7.449,15.149,7.723,15.824,8.089z"
				/>
			<path d="M22.923,0.236c-0.092-0.146-0.251-0.233-0.423-0.233h-1.721l-4.101,8.62c0.64,0.446,1.218,0.974,1.722,1.566l4.549-9.47
				C23.024,0.564,23.015,0.382,22.923,0.236z"/>
		</g>
		<path d="M11.542,8.003c-4.411,0-8,3.589-8,8c0,4.411,3.589,8,8,8s8-3.589,8-8C19.542,11.592,15.953,8.003,11.542,8.003z
			 M11.542,11.503c0.827,0,1.5,0.673,1.5,1.5c0,0.827-0.673,1.5-1.5,1.5c-0.827,0-1.5-0.673-1.5-1.5
			C10.042,12.176,10.715,11.503,11.542,11.503z M7.042,15.003c0-0.827,0.673-1.5,1.5-1.5c0.827,0,1.5,0.673,1.5,1.5
			c0,0.827-0.673,1.5-1.5,1.5C7.715,16.503,7.042,15.83,7.042,15.003z M14.318,19.182c-0.254,0.499-0.765,0.821-1.3,0.821h-2.928
			c-0.536,0-1.046-0.322-1.3-0.82c-0.25-0.494-0.201-1.101,0.125-1.545l1.463-1.997c0.548-0.745,1.808-0.742,2.351,0.001
			l1.463,2.008C14.517,18.091,14.565,18.692,14.318,19.182z M14.567,16.503c-0.827,0-1.5-0.673-1.5-1.5c0-0.827,0.673-1.5,1.5-1.5
			c0.827,0,1.5,0.673,1.5,1.5C16.067,15.83,15.394,16.503,14.567,16.503z"/>
	</g>
</g>
<g id="invisible_shape">
	<rect fill="none" width="24" height="24"/>
</g>
</svg>
