<?xml version="1.0" encoding="utf-8"?>
<!-- Generator: Adobe Illustrator 19.2.0, SVG Export Plug-In . SVG Version: 6.00 Build 0)  -->
<svg version="1.1" xmlns="http://www.w3.org/2000/svg" xmlns:xlink="http://www.w3.org/1999/xlink" x="0px" y="0px" width="24px"
	 height="24px" viewBox="0 0 24 24" enable-background="new 0 0 24 24" xml:space="preserve">
<g id="Filled_Icons">
	<g>
		<path d="M19.5,12h-0.928l1.875-3.777c0.122-0.248,0.022-0.548-0.226-0.671c-0.248-0.121-0.547-0.021-0.67,0.226L17.456,12h-0.758
			l1.788-7.367c0.065-0.269-0.1-0.539-0.368-0.605c-0.27-0.061-0.539,0.1-0.604,0.368L15.669,12h-0.66l0.489-6.462
			c0.021-0.275-0.186-0.516-0.461-0.537c-0.277-0.015-0.515,0.186-0.536,0.461L14.006,12H13V3.5C13,3.224,12.776,3,12.5,3
			C12.223,3,12,3.224,12,3.5V12h-0.986l-0.516-6.539c-0.021-0.274-0.253-0.486-0.538-0.459C9.686,5.023,9.48,5.264,9.502,5.539
			L10.011,12H9.346l-1.86-7.604C7.419,4.128,7.147,3.963,6.881,4.029C6.612,4.095,6.448,4.365,6.514,4.634L8.315,12H7.559
			L5.447,7.776C5.323,7.529,5.023,7.429,4.776,7.553C4.529,7.677,4.429,7.977,4.553,8.224L6.44,12H5.5C4.673,12,4,12.673,4,13.5
			S4.673,15,5.5,15h14c0.827,0,1.5-0.673,1.5-1.5S20.327,12,19.5,12z"/>
		<path d="M7.005,21.57C7.04,21.817,7.251,22,7.5,22h10c0.249,0,0.46-0.183,0.495-0.43L18.791,16H6.209L7.005,21.57z"/>
	</g>
</g>
<g id="invisible_shape">
	<rect fill="none" width="24" height="24"/>
</g>
</svg>
