<?xml version="1.0" encoding="utf-8"?>
<!-- Generator: Adobe Illustrator 19.2.0, SVG Export Plug-In . SVG Version: 6.00 Build 0)  -->
<svg version="1.1" xmlns="http://www.w3.org/2000/svg" xmlns:xlink="http://www.w3.org/1999/xlink" x="0px" y="0px" width="24px"
	 height="24px" viewBox="0 0 24 24" enable-background="new 0 0 24 24" xml:space="preserve">
<g id="Filled_Icons">
	<g>
		<path d="M19.393,19.052l-1.014,4.055c-0.001,0.003-0.002,0.005-0.003,0.008l0.145,0.217c0.912,1.373,2.807,0.415,2.249-0.86
			C20.626,22.144,19.393,19.052,19.393,19.052z"/>
		<path d="M6.829,20.602l1.255,2.767c0.502,1.109,2.159,0.639,2.047-0.543l-0.264-2.81C8.448,20.069,7.513,20.262,6.829,20.602z"/>
		<path d="M20.559,10.166c-0.271-0.163-0.577-0.347-0.922-0.563l-0.939-2.293C18.62,7.123,18.438,7.001,18.236,7h-0.001
			c-0.202,0-0.384,0.121-0.462,0.308l-1.474,3.538C15.753,12.154,14.485,13,13.068,13H5.878c-1.395-0.92-1.164-2.411-0.996-3.021
			C5.147,9.025,5.717,8.442,5.94,8.442c0.022,0,0.106,0.072,0.183,0.304C6.581,10.124,8.819,9.476,8.558,7.9
			c-0.25-1.497-1.187-2.392-2.507-2.392c-2.084,0-4.316,2.207-4.316,5.491c0,2.039,0.694,3.458,2.118,4.322
			c-0.864,2.373-2.092,5.444-2.769,7.119c-0.545,1.345,1.471,2.28,2.338,0.828C4.996,20.631,5.384,19,10.734,19
			c1.971,0,2.966,0.192,3.434,0.664c0.467,0.471,0.544,1.366,0.531,3.074C14.695,23.435,15.261,24,15.954,24
			c0.69,0,1.288-0.468,1.455-1.137l1.297-5.188L20.044,15h0.879c0.999,0,1.812-0.814,1.812-1.813
			C22.734,11.475,22.097,11.092,20.559,10.166z M19.5,13c-0.276,0-0.5-0.224-0.5-0.5s0.224-0.5,0.5-0.5s0.5,0.224,0.5,0.5
			S19.776,13,19.5,13z"/>
	</g>
</g>
<g id="invisible_shape">
	<rect fill="none" width="24" height="24"/>
</g>
</svg>
