<?xml version="1.0" encoding="utf-8"?>
<!-- Generator: Adobe Illustrator 19.2.0, SVG Export Plug-In . SVG Version: 6.00 Build 0)  -->
<svg version="1.1" xmlns="http://www.w3.org/2000/svg" xmlns:xlink="http://www.w3.org/1999/xlink" x="0px" y="0px" width="24px"
	 height="24px" viewBox="0 0 24 24" enable-background="new 0 0 24 24" xml:space="preserve">
<g id="Filled_Icons">
	<g>
		<path d="M2.826,22.863C2.993,23.533,3.592,24,4.281,24h15.438c0.689,0,1.288-0.467,1.456-1.137L22.64,17H1.36L2.826,22.863z
			 M16,18.5c0-0.276,0.223-0.5,0.5-0.5c0.276,0,0.5,0.224,0.5,0.5v3c0,0.276-0.224,0.5-0.5,0.5c-0.277,0-0.5-0.224-0.5-0.5V18.5z
			 M13,18.5c0-0.276,0.223-0.5,0.5-0.5c0.276,0,0.5,0.224,0.5,0.5v3c0,0.276-0.224,0.5-0.5,0.5c-0.277,0-0.5-0.224-0.5-0.5V18.5z
			 M10,18.5c0-0.276,0.223-0.5,0.5-0.5c0.276,0,0.5,0.224,0.5,0.5v3c0,0.276-0.224,0.5-0.5,0.5c-0.277,0-0.5-0.224-0.5-0.5V18.5z
			 M7,18.5C7,18.224,7.223,18,7.5,18C7.776,18,8,18.224,8,18.5v3C8,21.776,7.776,22,7.5,22C7.223,22,7,21.776,7,21.5V18.5z"/>
		<path d="M21.174,6.136C21.007,5.467,20.409,5,19.719,5H16c0-2.206-1.794-4-4-4S8,2.794,8,5H4.281c-0.69,0-1.288,0.467-1.455,1.136
			L1.36,12h21.281L21.174,6.136z M8,10.5C8,10.776,7.776,11,7.5,11C7.223,11,7,10.776,7,10.5v-3C7,7.224,7.223,7,7.5,7
			C7.776,7,8,7.224,8,7.5V10.5z M11,10.5c0,0.276-0.224,0.5-0.5,0.5c-0.277,0-0.5-0.224-0.5-0.5v-3C10,7.224,10.223,7,10.5,7
			C10.776,7,11,7.224,11,7.5V10.5z M14,10.5c0,0.276-0.224,0.5-0.5,0.5c-0.277,0-0.5-0.224-0.5-0.5v-3C13,7.224,13.223,7,13.5,7
			C13.776,7,14,7.224,14,7.5V10.5z M9,5c0-1.654,1.346-3,3-3s3,1.346,3,3H9z M17,10.5c0,0.276-0.224,0.5-0.5,0.5
			c-0.277,0-0.5-0.224-0.5-0.5v-3C16,7.224,16.223,7,16.5,7C16.776,7,17,7.224,17,7.5V10.5z"/>
		<path d="M22.5,13h-21C0.673,13,0,13.673,0,14.5S0.673,16,1.5,16h21c0.827,0,1.5-0.673,1.5-1.5S23.327,13,22.5,13z"/>
	</g>
</g>
<g id="invisible_shape">
	<rect fill="none" width="24" height="24"/>
</g>
</svg>
