<?xml version="1.0" encoding="utf-8"?>
<!-- Generator: Adobe Illustrator 19.2.0, SVG Export Plug-In . SVG Version: 6.00 Build 0)  -->
<svg version="1.1" xmlns="http://www.w3.org/2000/svg" xmlns:xlink="http://www.w3.org/1999/xlink" x="0px" y="0px" width="24px"
	 height="24px" viewBox="0 0 24 24" enable-background="new 0 0 24 24" xml:space="preserve">
<g id="Filled_Icons">
	<g>
		<path d="M20.537,15.315c-0.72-1.68-2.14-2.806-4.01-3.215c-0.049-0.291-0.112-0.576-0.186-0.86
			c2.414-0.896,3.489-1.22,4.624-4.055c0.103-0.256-0.022-0.547-0.279-0.649c-0.253-0.103-0.548,0.022-0.65,0.278
			c-0.963,2.408-1.716,2.622-3.995,3.471c-0.15-0.403-0.323-0.786-0.521-1.147l0.846-1.253c1.042-2.084,0.635-4.592-1.013-6.239
			c-0.195-0.195-0.512-0.195-0.707,0s-0.195,0.512,0,0.707c1.343,1.343,1.674,3.387,0.859,5.028l-0.574,0.847
			C14.875,8.154,14.826,8.069,14.768,8H9.232C9.174,8.07,9.125,8.155,9.068,8.229l-0.54-0.791C7.679,5.74,8.011,3.696,9.354,2.353
			c0.195-0.195,0.195-0.512,0-0.707s-0.512-0.195-0.707,0C6.998,3.294,6.592,5.802,7.668,7.942L8.479,9.14
			c-0.197,0.359-0.371,0.742-0.52,1.146c-2.28-0.849-3.032-1.064-3.995-3.471c-0.103-0.257-0.395-0.381-0.65-0.278
			C3.058,6.639,2.933,6.93,3.036,7.186c1.134,2.834,2.208,3.159,4.624,4.055c-0.073,0.284-0.136,0.569-0.186,0.86
			c-1.87,0.409-3.29,1.535-4.01,3.215L3.04,16.303c-0.109,0.254,0.009,0.548,0.263,0.657c0.25,0.106,0.546-0.006,0.656-0.263
			l0.423-0.987c0.554-1.293,1.574-2.169,2.97-2.56c-0.03,0.483-0.019,0.964,0.026,1.438l-1.316,2.296
			C5.7,17.517,5.471,18.205,5.38,18.93l-0.376,3.008c-0.034,0.274,0.16,0.524,0.434,0.559c0.26,0.036,0.522-0.15,0.558-0.434
			l0.376-3.008c0.074-0.594,0.262-1.156,0.558-1.674l0.727-1.27C8.327,18.296,9.868,19.5,12,19.5s3.673-1.204,4.343-3.389
			l0.727,1.269c0.296,0.518,0.484,1.081,0.558,1.675l0.376,3.008c0.036,0.283,0.298,0.47,0.558,0.434
			c0.274-0.034,0.468-0.284,0.434-0.559L18.62,18.93c-0.091-0.725-0.32-1.413-0.683-2.047l-1.308-2.282
			c0.043-0.477,0.049-0.964,0.018-1.45c1.396,0.391,2.416,1.267,2.97,2.56l0.423,0.987c0.11,0.257,0.407,0.369,0.656,0.263
			c0.254-0.109,0.372-0.403,0.263-0.657L20.537,15.315z"/>
		<path d="M12,4.5c-1.292,0-1.426,1.088-1.868,2.5h3.735C13.425,5.585,13.29,4.5,12,4.5z"/>
	</g>
</g>
<g id="invisible_shape">
	<rect fill="none" width="24" height="24"/>
</g>
</svg>
