<?xml version="1.0" encoding="utf-8"?>
<!-- Generator: Adobe Illustrator 16.0.3, SVG Export Plug-In . SVG Version: 6.00 Build 0)  -->
<!DOCTYPE svg PUBLIC "-//W3C//DTD SVG 1.1//EN" "http://www.w3.org/Graphics/SVG/1.1/DTD/svg11.dtd">
<svg version="1.1" xmlns="http://www.w3.org/2000/svg" xmlns:xlink="http://www.w3.org/1999/xlink" x="0px" y="0px" width="24px"
	 height="24px" viewBox="0 0 24 24" enable-background="new 0 0 24 24" xml:space="preserve">
<g id="Outline_Icons">
	<g>
		<g>
			<path fill="none" stroke="#000000" stroke-linejoin="round" stroke-miterlimit="10" d="M16.758,1.615
				c-0.781-0.781-2.048-0.781-2.829,0l-2.121,2.121C10.576,4.968,9.995,6.6,10.06,8.211c0.068,1.709-0.456,3.387-1.666,4.596
				L2.691,18.51c-0.705,0.705-0.877,1.839-0.294,2.647c0.741,1.03,2.188,1.116,3.046,0.257l5.779-5.778
				c1.209-1.21,2.887-1.734,4.596-1.666c1.612,0.064,3.243-0.517,4.475-1.748l2.121-2.121c0.781-0.781,0.781-2.048,0-2.829
				L16.758,1.615z"/>
			<path fill="none" stroke="#000000" stroke-linejoin="round" stroke-miterlimit="10" d="M16.051,3.736
				c-0.391-0.391-1.024-0.391-1.415,0L13.222,5.15c-1.13,1.131-1.43,2.765-0.926,4.176l1.633-0.64l1.414,1.414l-0.64,1.633
				c1.411,0.505,3.046,0.204,4.176-0.926l1.414-1.414c0.391-0.391,0.391-1.024,0-1.414L16.051,3.736z"/>
		</g>
		<g>
			<path d="M4.029,19.5c-0.128,0-0.256,0.049-0.354,0.146c-0.195,0.195-0.195,0.512,0,0.707C3.773,20.451,3.901,20.5,4.029,20.5
				s0.256-0.049,0.354-0.146c0.195-0.195,0.195-0.512,0-0.707C4.285,19.549,4.157,19.5,4.029,19.5L4.029,19.5z"/>
		</g>
	</g>
</g>
<g id="invisible_shape">
	<rect fill="none" width="24" height="24"/>
</g>
</svg>
