<?xml version="1.0" encoding="utf-8"?>
<!-- Generator: Adobe Illustrator 16.0.3, SVG Export Plug-In . SVG Version: 6.00 Build 0)  -->
<!DOCTYPE svg PUBLIC "-//W3C//DTD SVG 1.1//EN" "http://www.w3.org/Graphics/SVG/1.1/DTD/svg11.dtd">
<svg version="1.1" xmlns="http://www.w3.org/2000/svg" xmlns:xlink="http://www.w3.org/1999/xlink" x="0px" y="0px" width="24px"
	 height="24px" viewBox="0 0 24 24" enable-background="new 0 0 24 24" xml:space="preserve">
<g id="Outline_Icons">
	<g>
		<path fill="none" stroke="#000000" stroke-linecap="round" stroke-linejoin="round" stroke-miterlimit="10" d="M14.471,5.711
			c-1.055-0.365-2.206,0.194-2.571,1.25l-0.446,1.291l-0.94-2.06C9.131,3.165,6.399,1.445,3.371,2.827
			c-3.027,1.383-3.519,4.572-2.137,7.6L6.047,20.97l9.277-4.234l-1.04-2.28l1.523-6.525C15.957,6.965,15.395,6.031,14.471,5.711z"/>
		
			<rect x="6.164" y="18.727" transform="matrix(-0.9097 0.4152 -0.4152 -0.9097 29.8627 33.7425)" fill="none" stroke="#000000" stroke-linecap="round" stroke-linejoin="round" stroke-miterlimit="10" width="10.198" height="2.782"/>
		<polyline fill="none" stroke="#000000" stroke-linejoin="round" stroke-miterlimit="10" points="21.954,16.735 23.109,19.266 
			13.831,23.5 12.676,20.97 		"/>
		<path fill="none" stroke="#000000" stroke-linecap="round" stroke-linejoin="round" stroke-miterlimit="10" d="M18.231,18.435
			l3.723-1.699l-1.041-2.28l1.524-6.525c0.148-0.965-0.414-1.898-1.337-2.219c-1.056-0.365-2.206,0.194-2.571,1.25l-0.447,1.291
			l-0.94-2.06c-1.382-3.027-4.113-4.747-7.141-3.365C9.498,3.057,9.068,3.338,8.702,3.659"/>
	</g>
</g>
<g id="invisible_shape">
	<rect fill="none" width="24" height="24"/>
</g>
</svg>
