<?xml version="1.0" encoding="utf-8"?>
<!-- Generator: Adobe Illustrator 16.0.3, SVG Export Plug-In . SVG Version: 6.00 Build 0)  -->
<!DOCTYPE svg PUBLIC "-//W3C//DTD SVG 1.1//EN" "http://www.w3.org/Graphics/SVG/1.1/DTD/svg11.dtd">
<svg version="1.1" xmlns="http://www.w3.org/2000/svg" xmlns:xlink="http://www.w3.org/1999/xlink" x="0px" y="0px" width="24px"
	 height="24px" viewBox="0 0 24 24" enable-background="new 0 0 24 24" xml:space="preserve">
<g id="Outline_Icons">
	<g>
		<path fill="none" stroke="#000000" stroke-linejoin="round" stroke-miterlimit="10" d="M18.239,7.447
			c0.781,0.78,0.781,2.047,0,2.828l-9.192,9.192c-0.781,0.781-2.047,0.781-2.828,0l-1.414-1.414c-0.781-0.781-0.781-2.047,0-2.829
			l9.192-9.191c0.78-0.781,2.047-0.781,2.828,0L18.239,7.447z"/>
		<path fill="none" stroke="#000000" stroke-linejoin="round" stroke-miterlimit="10" d="M22.482,1.79
			c0.357,0.358,0.545,0.853,0.514,1.358c-0.031,0.505-0.279,0.973-0.679,1.283l-4.078,3.016l-1.414-1.414l3.015-4.079
			c0.312-0.399,0.778-0.646,1.284-0.678C21.629,1.245,22.124,1.432,22.482,1.79z"/>
		<path fill="none" stroke="#000000" stroke-linejoin="round" stroke-miterlimit="10" d="M0.971,22.968
			c0.354,0.362,0.846,0.556,1.352,0.53s1.043-0.332,1.359-0.729l2.432-3.392l-1.396-1.431l-3.483,2.314
			c-0.403,0.307-0.689,0.805-0.728,1.31C0.469,22.075,0.616,22.605,0.971,22.968z"/>
	</g>
</g>
<g id="invisible_shape">
	<rect fill="none" width="24" height="24"/>
</g>
</svg>
