<?xml version="1.0" encoding="utf-8"?>
<!-- Generator: Adobe Illustrator 16.0.3, SVG Export Plug-In . SVG Version: 6.00 Build 0)  -->
<!DOCTYPE svg PUBLIC "-//W3C//DTD SVG 1.1//EN" "http://www.w3.org/Graphics/SVG/1.1/DTD/svg11.dtd">
<svg version="1.1" xmlns="http://www.w3.org/2000/svg" xmlns:xlink="http://www.w3.org/1999/xlink" x="0px" y="0px" width="24px"
	 height="24px" viewBox="0 0 24 24" enable-background="new 0 0 24 24" xml:space="preserve">
<g id="Outline_Icons">
	<g>
		<path fill="none" stroke="#000000" stroke-linejoin="round" stroke-miterlimit="10" d="M5.322,16.557l2.121,2.121l-3.011,3.011
			c-0.585,0.586-1.535,0.586-2.121,0s-0.586-1.535,0-2.121L5.322,16.557z"/>
		
			<rect x="8.065" y="9.935" transform="matrix(0.7069 0.7073 -0.7073 0.7069 13.0129 -2.5346)" fill="none" stroke="#000000" stroke-linejoin="round" stroke-miterlimit="10" width="3" height="9"/>
		<path fill="none" stroke="#000000" stroke-linejoin="round" stroke-miterlimit="10" d="M23,8.779
			C21.351,5.302,18.757,2.709,15.222,1l-3.866,6.385c-0.618,0.796-0.548,1.93,0.165,2.642l2.453,2.454
			c0.713,0.713,1.846,0.783,2.642,0.164L23,8.779z"/>
		
			<line fill="none" stroke="#000000" stroke-linejoin="round" stroke-miterlimit="10" x1="12.747" y1="8.425" x2="15.575" y2="11.253"/>
	</g>
</g>
<g id="invisible_shape">
	<rect fill="none" width="24" height="24"/>
</g>
</svg>
