<?xml version="1.0" encoding="utf-8"?>
<!-- Generator: Adobe Illustrator 16.0.3, SVG Export Plug-In . SVG Version: 6.00 Build 0)  -->
<!DOCTYPE svg PUBLIC "-//W3C//DTD SVG 1.1//EN" "http://www.w3.org/Graphics/SVG/1.1/DTD/svg11.dtd">
<svg version="1.1" xmlns="http://www.w3.org/2000/svg" xmlns:xlink="http://www.w3.org/1999/xlink" x="0px" y="0px" width="24px"
	 height="24px" viewBox="0 0 24 24" enable-background="new 0 0 24 24" xml:space="preserve">
<g id="Outline_Icons">
	<g>
		<path fill="none" stroke="#000000" stroke-linejoin="round" stroke-miterlimit="10" d="M5.394,16.485l2.122,2.121l-3.311,3.311
			c-0.586,0.586-1.536,0.586-2.121,0c-0.586-0.586-0.586-1.535,0-2.121L5.394,16.485z"/>
		
			<rect x="7.075" y="12.424" transform="matrix(0.7069 0.7073 -0.7073 0.7069 13.4226 -1.545)" fill="none" stroke="#000000" stroke-linejoin="round" stroke-miterlimit="10" width="3" height="6.001"/>
		<circle fill="none" stroke="#000000" stroke-linejoin="round" stroke-miterlimit="10" cx="16" cy="8" r="7.5"/>
		<circle fill="none" stroke="#000000" stroke-linejoin="round" stroke-miterlimit="10" cx="16" cy="3.758" r="0.5"/>
		<circle fill="none" stroke="#000000" stroke-linejoin="round" stroke-miterlimit="10" cx="18.122" cy="5.879" r="0.5"/>
		<circle fill="none" stroke="#000000" stroke-linejoin="round" stroke-miterlimit="10" cx="20.243" cy="8" r="0.5"/>
		<circle fill="none" stroke="#000000" stroke-linejoin="round" stroke-miterlimit="10" cx="13.879" cy="5.879" r="0.5"/>
		<circle fill="none" stroke="#000000" stroke-linejoin="round" stroke-miterlimit="10" cx="16" cy="8" r="0.5"/>
		<circle fill="none" stroke="#000000" stroke-linejoin="round" stroke-miterlimit="10" cx="18.122" cy="10.121" r="0.5"/>
		<circle fill="none" stroke="#000000" stroke-linejoin="round" stroke-miterlimit="10" cx="11.758" cy="8" r="0.5"/>
		<circle fill="none" stroke="#000000" stroke-linejoin="round" stroke-miterlimit="10" cx="13.879" cy="10.121" r="0.5"/>
		<circle fill="none" stroke="#000000" stroke-linejoin="round" stroke-miterlimit="10" cx="16" cy="12.243" r="0.5"/>
	</g>
</g>
<g id="invisible_shape">
	<rect fill="none" width="24" height="24"/>
</g>
</svg>
