<?xml version="1.0" encoding="utf-8"?>
<!-- Generator: Adobe Illustrator 16.0.3, SVG Export Plug-In . SVG Version: 6.00 Build 0)  -->
<!DOCTYPE svg PUBLIC "-//W3C//DTD SVG 1.1//EN" "http://www.w3.org/Graphics/SVG/1.1/DTD/svg11.dtd">
<svg version="1.1" xmlns="http://www.w3.org/2000/svg" xmlns:xlink="http://www.w3.org/1999/xlink" x="0px" y="0px" width="24px"
	 height="24px" viewBox="0 0 24 24" enable-background="new 0 0 24 24" xml:space="preserve">
<g id="Outline_Icons">
	<g>
		<path fill="none" stroke="#000000" stroke-linejoin="round" stroke-miterlimit="10" d="M3.953,17.926l2.12,2.119l-3.012,3.016
			c-0.586,0.586-1.536,0.586-2.122-0.001c-0.586-0.586-0.586-1.535,0-2.121L3.953,17.926z"/>
		
			<rect x="5.635" y="13.865" transform="matrix(0.7071 0.7071 -0.7071 0.7071 14.0154 -0.1057)" fill="none" stroke="#000000" stroke-linejoin="round" stroke-miterlimit="10" width="3.001" height="6"/>
		
			<line fill="none" stroke="#000000" stroke-linejoin="round" stroke-miterlimit="10" x1="18.619" y1="8.915" x2="13.67" y2="13.865"/>
		
			<line fill="none" stroke="#000000" stroke-linejoin="round" stroke-miterlimit="10" x1="16.852" y1="7.146" x2="11.902" y2="12.098"/>
		
			<line fill="none" stroke="#000000" stroke-linejoin="round" stroke-miterlimit="10" x1="15.084" y1="5.378" x2="10.135" y2="10.328"/>
		<path fill="none" stroke="#000000" stroke-linejoin="round" stroke-miterlimit="10" d="M22.601,9.359l-8.134-8.133L9.165,6.531
			C8.387,7.309,7.869,8.838,8.014,9.928l0.444,3.369c0.146,1.091,1.157,2.082,2.251,2.203l3.186,0.355
			c1.094,0.122,2.624-0.414,3.402-1.192L22.601,9.359z"/>
	</g>
</g>
<g id="invisible_shape">
	<rect fill="none" width="24" height="24"/>
</g>
</svg>
