<?xml version="1.0" encoding="utf-8"?>
<!-- Generator: Adobe Illustrator 16.0.3, SVG Export Plug-In . SVG Version: 6.00 Build 0)  -->
<!DOCTYPE svg PUBLIC "-//W3C//DTD SVG 1.1//EN" "http://www.w3.org/Graphics/SVG/1.1/DTD/svg11.dtd">
<svg version="1.1" xmlns="http://www.w3.org/2000/svg" xmlns:xlink="http://www.w3.org/1999/xlink" x="0px" y="0px" width="24px"
	 height="24px" viewBox="0 0 24 24" enable-background="new 0 0 24 24" xml:space="preserve">
<g id="Outline_Icons">
	<g>
		<path fill="none" stroke="#000000" stroke-linejoin="round" stroke-miterlimit="10" d="M21.359,15.368
			c-0.781,0.781-2.047,0.781-2.828,0l-9.9-9.899c-0.78-0.781-0.78-2.047,0-2.828l0.708-0.707c0.78-0.781,2.047-0.781,2.828,0
			l9.899,9.899c0.781,0.781,0.781,2.047,0,2.828L21.359,15.368z"/>
		<path fill="none" stroke="#000000" stroke-linecap="round" stroke-linejoin="round" stroke-miterlimit="10" d="M10.753,13.247
			l-1.501,1.501c-0.158,0.158-0.401,0.192-0.597,0.083l-1.322-0.734c-0.195-0.108-0.438-0.074-0.597,0.084
			c-0.158,0.157-0.191,0.401-0.083,0.596l1.835,3.305c0.108,0.195,0.074,0.438-0.083,0.597c-0.158,0.157-0.401,0.191-0.597,0.083
			L5.03,17.218c-0.206-0.115-0.465-0.069-0.62,0.108c-0.154,0.178-0.164,0.44-0.022,0.629l1.985,2.64
			c0.129,0.172,0.134,0.406,0.013,0.583s-0.341,0.257-0.548,0.199l-2.229-0.626c-0.174-0.049-0.36,0-0.488,0.128L0.5,23.5"/>
		
			<rect x="11.167" y="9.833" transform="matrix(-0.7069 -0.7074 0.7074 -0.7069 12.3976 28.8028)" fill="none" stroke="#000000" stroke-linejoin="round" stroke-miterlimit="10" width="2" height="4"/>
	</g>
</g>
<g id="invisible_shape">
	<rect fill="none" width="24" height="24"/>
</g>
</svg>
