<?xml version="1.0" encoding="utf-8"?>
<!-- Generator: Adobe Illustrator 19.2.1, SVG Export Plug-In . SVG Version: 6.00 Build 0)  -->
<svg version="1.1" xmlns="http://www.w3.org/2000/svg" xmlns:xlink="http://www.w3.org/1999/xlink" x="0px" y="0px" width="24px"
	 height="24px" viewBox="0 0 24 24" enable-background="new 0 0 24 24" xml:space="preserve">
<g id="Filled_Icon">
	<g>
		<path d="M16.5,3C16.224,3,16,3.224,16,3.5S16.224,4,16.5,4C17.327,4,18,4.673,18,5.5v16c0,0.827-0.673,1.5-1.5,1.5h-10
			C5.673,23,5,22.327,5,21.5v-16C5,4.673,5.673,4,6.5,4C6.776,4,7,3.776,7,3.5S6.776,3,6.5,3C5.122,3,4,4.122,4,5.5v16
			C4,22.878,5.122,24,6.5,24h10c1.378,0,2.5-1.122,2.5-2.5v-16C19,4.122,17.878,3,16.5,3z"/>
		<circle cx="11.5" cy="5.516" r="1.5"/>
		<path d="M11.5,3.031c0.276,0,0.5-0.224,0.5-0.5V0.5C12,0.224,11.776,0,11.5,0S11,0.224,11,0.5v2.031
			C11,2.808,11.224,3.031,11.5,3.031z"/>
		<path d="M9.029,3.769C9.227,3.965,9.543,3.96,9.736,3.766C9.93,3.57,9.929,3.254,9.733,3.059L8.292,1.63
			C8.096,1.436,7.779,1.436,7.584,1.632C7.39,1.828,7.391,2.145,7.587,2.339L9.029,3.769z"/>
		<path d="M13.971,3.769l1.441-1.429c0.196-0.194,0.197-0.511,0.003-0.707c-0.195-0.197-0.512-0.197-0.707-0.002l-1.441,1.429
			c-0.196,0.195-0.197,0.511-0.003,0.707C13.457,3.96,13.773,3.965,13.971,3.769z"/>
		<path d="M17.016,5.516c0-0.276-0.224-0.5-0.5-0.5h-2.031c-0.276,0-0.5,0.224-0.5,0.5c0,0.276,0.224,0.5,0.5,0.484h2.031
			C16.792,6.016,17.016,5.792,17.016,5.516z"/>
		<path d="M9.016,5.516c0-0.276-0.224-0.5-0.5-0.5H6.484c-0.276,0-0.5,0.224-0.5,0.5c0,0.276,0.224,0.5,0.5,0.484h2.031
			C8.792,6.016,9.016,5.792,9.016,5.516z"/>
		<path d="M9,22h5c0.276,0,0.5-0.224,0.5-0.5S14.276,21,14,21H9c-0.276,0-0.5,0.224-0.5,0.5S8.724,22,9,22z"/>
	</g>
</g>
<g id="Invisible_Shape">
	<rect fill="none" width="24" height="24"/>
</g>
</svg>
