<?xml version="1.0" encoding="utf-8"?>
<!-- Generator: Adobe Illustrator 19.2.1, SVG Export Plug-In . SVG Version: 6.00 Build 0)  -->
<svg version="1.1" xmlns="http://www.w3.org/2000/svg" xmlns:xlink="http://www.w3.org/1999/xlink" x="0px" y="0px" width="24px"
	 height="24px" viewBox="0 0 24 24" enable-background="new 0 0 24 24" xml:space="preserve">
<g id="Filled_Icon">
	<g>
		<path d="M12,18c2.206,0,4-1.794,4-4c0-2.205-1.794-4-4-4s-4,1.795-4,4C8,16.206,9.794,18,12,18z M12,11.5
			c1.378,0,2.5,1.122,2.5,2.5c0,1.379-1.122,2.5-2.5,2.5S9.5,15.379,9.5,14C9.5,12.622,10.622,11.5,12,11.5z"/>
		<path d="M8.01,17H0v2.5C0,20.327,0.673,21,1.5,21h21c0.827,0,1.5-0.673,1.5-1.5V17h-8.009C13.979,19.668,10.018,19.665,8.01,17z"
			/>
		<path d="M7.42,12H0v4h7.42C6.867,14.736,6.852,13.296,7.42,12z"/>
		<path d="M22.5,5H22V4.5C22,3.673,21.327,3,20.5,3h-2C17.673,3,17,3.673,17,4.5V5H1.5C0.673,5,0,5.673,0,6.5V11h8.01
			c2.012-2.667,5.969-2.665,7.981,0H24V6.5C24,5.673,23.327,5,22.5,5z M7,9.5C7,9.776,6.776,10,6.5,10h-4C2.224,10,2,9.776,2,9.5v-2
			C2,7.224,2.224,7,2.5,7h4C6.776,7,7,7.224,7,7.5V9.5z M20,10c-0.551,0-1-0.448-1-1c0-0.551,0.449-1,1-1s1,0.449,1,1
			C21,9.552,20.551,10,20,10z"/>
		<path d="M16.58,16H24v-4h-7.42C17.14,13.279,17.141,14.721,16.58,16z"/>
	</g>
</g>
<g id="Invisible_Shape">
	<rect fill="none" width="24" height="24"/>
</g>
</svg>
