<?xml version="1.0" encoding="utf-8"?>
<!-- Generator: Adobe Illustrator 19.2.1, SVG Export Plug-In . SVG Version: 6.00 Build 0)  -->
<svg version="1.1" xmlns="http://www.w3.org/2000/svg" xmlns:xlink="http://www.w3.org/1999/xlink" x="0px" y="0px" width="24px"
	 height="24px" viewBox="0 0 24 24" enable-background="new 0 0 24 24" xml:space="preserve">
<g id="Filled_Icon">
	<g>
		<path d="M13.188,17.482C13.65,17.393,14,16.987,14,16.5v-4.507h1.5c0.276,0,0.5-0.224,0.5-0.5c0-0.276-0.224-0.5-0.5-0.493h-6
			C9.224,10.993,9,11.217,9,11.493c0,0.276,0.224,0.5,0.5,0.5H11V16.5c0,0.487,0.35,0.893,0.812,0.982l-5.666,5.665
			c-0.195,0.195-0.195,0.512,0,0.707c0.195,0.195,0.512,0.195,0.707,0L12,18.707V23.5c0,0.276,0.224,0.5,0.5,0.5s0.5-0.224,0.5-0.5
			v-4.793l5.146,5.146c0.195,0.195,0.512,0.195,0.707,0c0.195-0.195,0.195-0.512,0-0.707L13.188,17.482z"/>
		<circle cx="13.5" cy="5.5" r="1.5"/>
		<path d="M17.5,1h-1.191c-0.303-0.606-0.72-1-1.427-1h-2.264c-0.706,0-1.123,0.393-1.427,1H9V0H8v1H7.5C6.673,1,6,1.673,6,2.5v6
			C6,9.327,6.673,10,7.5,10h10c0.827,0,1.5-0.673,1.5-1.5v-6C19,1.673,18.327,1,17.5,1z M13.5,8C12.122,8,11,6.879,11,5.5
			C11,4.122,12.122,3,13.5,3S16,4.122,16,5.5C16,6.879,14.878,8,13.5,8z"/>
	</g>
</g>
<g id="Invisible_Shape">
	<rect fill="none" width="24" height="24"/>
</g>
</svg>
