<?xml version="1.0" encoding="utf-8"?>
<!-- Generator: Adobe Illustrator 19.2.1, SVG Export Plug-In . SVG Version: 6.00 Build 0)  -->
<svg version="1.1" xmlns="http://www.w3.org/2000/svg" xmlns:xlink="http://www.w3.org/1999/xlink" x="0px" y="0px" width="24px"
	 height="24px" viewBox="0 0 24 24" enable-background="new 0 0 24 24" xml:space="preserve">
<g id="Filled_Icon">
	<g>
		<path d="M12,8c-2.206,0-4,1.794-4,4s1.794,4,4,4s4-1.794,4-4S14.206,8,12,8z M12,13c-0.551,0-1-0.449-1-1s0.449-1,1-1s1,0.449,1,1
			S12.551,13,12,13z"/>
		<path d="M23.5,2h-23C0.224,2,0,2.224,0,2.5v19C0,21.776,0.224,22,0.5,22h23c0.276,0,0.5-0.224,0.5-0.5v-19
			C24,2.224,23.776,2,23.5,2z M2,4.5C2,4.224,2.224,4,2.5,4h3C5.776,4,6,4.224,6,4.5S5.776,5,5.5,5H3v2.5C3,7.776,2.776,8,2.5,8
			S2,7.776,2,7.5V4.5z M5.5,20h-3C2.224,20,2,19.776,2,19.5v-3C2,16.224,2.224,16,2.5,16S3,16.224,3,16.5V19h2.5
			C5.776,19,6,19.224,6,19.5S5.776,20,5.5,20z M12.5,18.5c0,0.276-0.224,0.5-0.5,0.5s-0.5-0.224-0.5-0.5v-1.551
			c-2.352-0.238-4.211-2.097-4.449-4.449H5.5C5.224,12.5,5,12.276,5,12s0.224-0.5,0.5-0.5h1.551C7.289,9.148,9.148,7.289,11.5,7.051
			V5.5C11.5,5.224,11.724,5,12,5s0.5,0.224,0.5,0.5v1.551c2.352,0.238,4.211,2.097,4.449,4.449H18.5c0.276,0,0.5,0.224,0.5,0.5
			s-0.224,0.5-0.5,0.5h-1.551c-0.238,2.352-2.097,4.211-4.449,4.449V18.5z M22,19.5c0,0.276-0.224,0.5-0.5,0.5h-3
			c-0.276,0-0.5-0.224-0.5-0.5s0.224-0.5,0.5-0.5H21v-2.5c0-0.276,0.224-0.5,0.5-0.5s0.5,0.224,0.5,0.5V19.5z M22,7.5
			C22,7.776,21.776,8,21.5,8S21,7.776,21,7.5V5h-2.5C18.224,5,18,4.776,18,4.5S18.224,4,18.5,4h3C21.776,4,22,4.224,22,4.5V7.5z"/>
	</g>
</g>
<g id="Invisible_Shape">
	<rect fill="none" width="24" height="24"/>
</g>
</svg>
