<?xml version="1.0" encoding="utf-8"?>
<!-- Generator: Adobe Illustrator 19.2.1, SVG Export Plug-In . SVG Version: 6.00 Build 0)  -->
<svg version="1.1" xmlns="http://www.w3.org/2000/svg" xmlns:xlink="http://www.w3.org/1999/xlink" x="0px" y="0px" width="24px"
	 height="24px" viewBox="0 0 24 24" enable-background="new 0 0 24 24" xml:space="preserve">
<g id="Filled_Icon">
	<g>
		<circle cx="5" cy="15" r="1"/>
		<path d="M14.5,13c-2.206,0-4,1.795-4,4c0,2.206,1.794,4,4,4s4-1.794,4-4C18.5,14.795,16.706,13,14.5,13z M14.5,20
			c-1.654,0-3-1.346-3-3s1.346-3,3-3s3,1.346,3,3S16.154,20,14.5,20z"/>
		<circle cx="14.5" cy="17" r="2"/>
		<path d="M21,11h-1.793l-1.635-1.635L18.36,7h1.14C19.776,7,20,6.776,20,6.5v-6C20,0.224,19.776,0,19.5,0h-11
			C8.224,0,8,0.224,8,0.5v6C8,6.776,8.224,7,8.5,7h1.14l0.788,2.365L8.793,11H7v-0.5C7,9.673,6.327,9,5.5,9h-1
			C3.673,9,3,9.673,3,10.5V11c-1.102,0-2,0.898-2,2v9c0,1.104,0.898,2,2,2h18c1.103,0,2-0.896,2-2v-9C23,11.898,22.103,11,21,11z
			 M5,17c-1.102,0-2-0.896-2-2c0-1.102,0.898-2,2-2c1.103,0,2,0.898,2,2C7,16.104,6.103,17,5,17z M10,4.5v-2
			C10,2.224,10.224,2,10.5,2h7C17.776,2,18,2.224,18,2.5v2C18,4.776,17.776,5,17.5,5h-7C10.224,5,10,4.776,10,4.5z M17.306,7
			L16.64,9H11.36l-0.667-2H17.306z M14.5,22c-2.757,0-5-2.243-5-5s2.243-5,5-5s5,2.243,5,5S17.257,22,14.5,22z"/>
	</g>
</g>
<g id="Invisible_Shape">
	<rect fill="none" width="24" height="24"/>
</g>
</svg>
