<?xml version="1.0" encoding="utf-8"?>
<!-- Generator: Adobe Illustrator 19.2.1, SVG Export Plug-In . SVG Version: 6.00 Build 0)  -->
<svg version="1.1" xmlns="http://www.w3.org/2000/svg" xmlns:xlink="http://www.w3.org/1999/xlink" x="0px" y="0px" width="24px"
	 height="24px" viewBox="0 0 24 24" enable-background="new 0 0 24 24" xml:space="preserve">
<g id="Filled_Icon">
	<g>
		<path d="M24,4.5C24,2.019,21.981,0,19.5,0h-15C2.019,0,0,2.019,0,4.5v15C0,21.982,2.019,24,4.5,24h15c2.481,0,4.5-2.018,4.5-4.5
			V4.5z M20,16c0,0.552-0.449,1-1,1H5c-0.551,0-1-0.448-1-1V9.182C4,8.631,4.449,8,5,8h3.182c0.132,0,0.259-0.053,0.353-0.147
			l1.892-1.723C10.519,6.046,10.639,6,10.764,6h2.472c0.125,0,0.245,0.046,0.337,0.13l1.892,1.723C15.558,7.947,15.686,8,15.818,8
			H19c0.551,0,1,0.631,1,1.182V16z"/>
		<circle cx="18" cy="10.41" r="0.545"/>
		<path d="M12,8.818c-1.78,0-3.227,1.448-3.227,3.227S10.22,15.274,12,15.274s3.227-1.449,3.227-3.228S13.78,8.818,12,8.818z
			 M12,14.274c-1.228,0-2.227-1-2.227-2.228S10.772,9.818,12,9.818s2.227,0.999,2.227,2.227S13.228,14.274,12,14.274z"/>
	</g>
</g>
<g id="Invisible_Shape">
	<rect fill="none" width="24" height="24"/>
</g>
</svg>
