<?xml version="1.0" encoding="utf-8"?>
<!-- Generator: Adobe Illustrator 19.2.1, SVG Export Plug-In . SVG Version: 6.00 Build 0)  -->
<svg version="1.1" xmlns="http://www.w3.org/2000/svg" xmlns:xlink="http://www.w3.org/1999/xlink" x="0px" y="0px" width="24px"
	 height="24px" viewBox="0 0 24 24" enable-background="new 0 0 24 24" xml:space="preserve">
<g id="Filled_Icon">
	<g>
		<path d="M12,6v12h7.5c0.276,0,0.5-0.224,0.5-0.5v-2c0-1,0.5-1.5,1.5-1.5h2c0.276,0,0.5-0.224,0.5-0.5v-7C24,6.224,23.776,6,23.5,6
			H12z M14,16h-1v-2h1V16z M14,10h-1V8h1V10z M16,16h-1v-2h1V16z M16,10h-1V8h1V10z M18,16h-1v-2h1V16z M18,10h-1V8h1V10z M20,10h-1
			V8h1V10z M22,10h-1V8h1V10z"/>
		<path d="M11,5h1V3c0-0.551-0.449-1-1-1H1C0.449,2,0,2.449,0,3v2h1v14H0v2c0,0.552,0.449,1,1,1h10c0.551,0,1-0.448,1-1v-2h-1V5z"/>
	</g>
</g>
<g id="Invisible_Shape">
	<rect fill="none" width="24" height="24"/>
</g>
</svg>
