<?xml version="1.0" encoding="utf-8"?>
<!-- Generator: Adobe Illustrator 19.2.1, SVG Export Plug-In . SVG Version: 6.00 Build 0)  -->
<svg version="1.1" xmlns="http://www.w3.org/2000/svg" xmlns:xlink="http://www.w3.org/1999/xlink" x="0px" y="0px" width="24px"
	 height="24px" viewBox="0 0 24 24" enable-background="new 0 0 24 24" xml:space="preserve">
<g id="Filled_Icon">
	<g>
		<g>
			<path d="M13.644,13.299c-0.184-0.206-0.166-0.522,0.04-0.706l1.75-1.562c0.205-0.184,0.522-0.166,0.706,0.04
				c0.184,0.206,0.166,0.523-0.04,0.706l-1.75,1.562C14.144,13.523,13.828,13.504,13.644,13.299z"/>
		</g>
		<g>
			<path d="M13.655,17.31c-0.191-0.2-0.182-0.516,0.018-0.707l3.75-3.562c0.201-0.19,0.517-0.182,0.707,0.019
				c0.19,0.2,0.182,0.516-0.018,0.706l-3.75,3.562C14.162,17.519,13.845,17.511,13.655,17.31z"/>
		</g>
		<g>
			<path d="M15.655,19.31c-0.191-0.2-0.182-0.516,0.018-0.707l3.75-3.562c0.201-0.191,0.517-0.182,0.707,0.019
				c0.19,0.2,0.182,0.516-0.018,0.706l-3.75,3.562C16.162,19.519,15.845,19.511,15.655,19.31z"/>
		</g>
		<g>
			<path d="M19.645,19.299c-0.184-0.206-0.166-0.522,0.04-0.706l1.75-1.562c0.205-0.183,0.522-0.166,0.706,0.04
				c0.184,0.206,0.166,0.523-0.04,0.706l-1.75,1.562C20.145,19.523,19.828,19.504,19.645,19.299z"/>
		</g>
		<path d="M23.5,20H13V10h1.5c0.452,0,0.673-0.558,0.34-0.866l-7-6.5c-0.192-0.179-0.488-0.179-0.681,0l-7,6.5
			C-0.173,9.442,0.048,10,0.5,10H2v10H0.5C0.224,20,0,20.224,0,20.5S0.224,21,0.5,21c1.725,0,2.819,0,4.5,0v-4.5
			C5,16.224,5.224,16,5.5,16h4c0.276,0,0.5,0.224,0.5,0.5V21c3.515,0-1.62,0,13.5,0c0.276,0,0.5-0.224,0.5-0.5S23.776,20,23.5,20z"
			/>
	</g>
</g>
<g id="Invisible_Shape">
	<rect fill="none" width="24" height="24"/>
</g>
</svg>
