<?xml version="1.0" encoding="utf-8"?>
<!-- Generator: Adobe Illustrator 19.2.1, SVG Export Plug-In . SVG Version: 6.00 Build 0)  -->
<svg version="1.1" xmlns="http://www.w3.org/2000/svg" xmlns:xlink="http://www.w3.org/1999/xlink" x="0px" y="0px" width="24px"
	 height="24px" viewBox="0 0 24 24" enable-background="new 0 0 24 24" xml:space="preserve">
<g id="Filled_Icon">
	<g>
		<path d="M7.855,8c-0.187,0.794-0.307,2.14-0.341,3h5c0.031-0.837,0.135-2.185,0.311-3H7.855z"/>
		<path d="M7.514,12c0.034,0.861,0.154,2.207,0.341,3h4.971c-0.177-0.814-0.28-2.162-0.311-3H7.514z"/>
		<path d="M8.942,4H8c-1.766,0-3.5,3.715-3.5,7.5S6.234,19,8,19h0.942c-1.5-1.543-2.442-4.633-2.442-7.5
			C6.5,8.635,7.442,5.544,8.942,4z"/>
		<path d="M8.131,16c0.662,2.031,1.758,3,2.869,3h3.942c-0.796-0.818-1.433-1.571-1.857-3H8.131z"/>
		<path d="M19.5,4C17.734,4,16,7.715,16,11.5s1.734,7.5,3.5,7.5c2.523,0,4.5-3.294,4.5-7.5C24,7.295,22.023,4,19.5,4z"/>
		<path d="M5.16,5.018C0.407,7.856,0,8.169,0,11.5c0,3.332,0.299,3.582,5.16,6.483C4.123,16.306,3.5,13.829,3.5,11.5
			C3.5,9.172,4.123,6.695,5.16,5.018z"/>
		<path d="M13.085,7c0.424-1.428,1.061-2.181,1.857-3H11C9.889,4,8.792,4.97,8.131,7H13.085z"/>
		<path d="M17.442,4H17c-1.766,0-3.5,3.715-3.5,7.5S15.234,19,17,19h0.442C15.942,17.457,15,14.367,15,11.5
			C15,8.635,15.942,5.544,17.442,4z"/>
	</g>
</g>
<g id="Invisible_Shape">
	<rect fill="none" width="24" height="24"/>
</g>
</svg>
