<?xml version="1.0" encoding="utf-8"?>
<!-- Generator: Adobe Illustrator 19.2.1, SVG Export Plug-In . SVG Version: 6.00 Build 0)  -->
<svg version="1.1" xmlns="http://www.w3.org/2000/svg" xmlns:xlink="http://www.w3.org/1999/xlink" x="0px" y="0px" width="24px"
	 height="24px" viewBox="0 0 24 24" enable-background="new 0 0 24 24" xml:space="preserve">
<g id="Filled_Icon">
	<path d="M14.733,15.44c-0.195-0.195-0.195-0.512,0-0.707c0.195-0.196,0.512-0.196,0.707,0l5.377,5.377
		C22.787,17.973,24,15.129,24,12c0-6.617-5.383-12-12-12C8.871,0,6.027,1.214,3.889,3.182l3.56,3.561
		c0.195,0.195,0.195,0.512,0,0.707c-0.195,0.195-0.512,0.195-0.707,0l-3.56-3.56C1.213,6.027,0,8.871,0,12c0,6.617,5.383,12,12,12
		c3.129,0,5.973-1.213,8.111-3.182L14.733,15.44z M7.307,20.701L10.447,13H6.722l4.889-9h4.54l-3.725,6h4.663L7.307,20.701z"/>
</g>
<g id="Invisible_Shape">
	<rect fill="none" width="24" height="24"/>
</g>
</svg>
