<?xml version="1.0" encoding="utf-8"?>
<!-- Generator: Adobe Illustrator 19.2.1, SVG Export Plug-In . SVG Version: 6.00 Build 0)  -->
<svg version="1.1" xmlns="http://www.w3.org/2000/svg" xmlns:xlink="http://www.w3.org/1999/xlink" x="0px" y="0px" width="24px"
	 height="24px" viewBox="0 0 24 24" enable-background="new 0 0 24 24" xml:space="preserve">
<g id="Filled_Icon">
	<g>
		<g>
			<path d="M12,8c-2.702,0-5.829,2.986-6.813,4c0.985,1.015,4.116,4,6.813,4c2.702,0,5.829-2.985,6.813-4
				C17.828,10.986,14.698,8,12,8z M12,15c-1.654,0-3-1.346-3-3s1.346-3,3-3s3,1.346,3,3S13.654,15,12,15z"/>
			<path d="M23.5,2h-23C0.224,2,0,2.224,0,2.5v19C0,21.776,0.224,22,0.5,22h23c0.276,0,0.5-0.224,0.5-0.5v-19
				C24,2.224,23.776,2,23.5,2z M2,4.5C2,4.224,2.224,4,2.5,4h3C5.776,4,6,4.224,6,4.5S5.776,5,5.5,5H3v2.5C3,7.776,2.776,8,2.5,8
				S2,7.776,2,7.5V4.5z M5.5,20h-3C2.224,20,2,19.776,2,19.5v-3C2,16.224,2.224,16,2.5,16S3,16.224,3,16.5V19h2.5
				C5.776,19,6,19.224,6,19.5S5.776,20,5.5,20z M4.127,12.332c-0.169-0.189-0.169-0.474,0-0.664C4.296,11.477,8.318,7,12,7
				s7.704,4.477,7.874,4.668c0.168,0.19,0.168,0.475,0,0.664C19.704,12.523,15.682,17,12,17S4.296,12.523,4.127,12.332z M22,19.5
				c0,0.276-0.224,0.5-0.5,0.5h-3c-0.276,0-0.5-0.224-0.5-0.5s0.224-0.5,0.5-0.5H21v-2.5c0-0.276,0.224-0.5,0.5-0.5
				s0.5,0.224,0.5,0.5V19.5z M22,7.5C22,7.776,21.776,8,21.5,8S21,7.776,21,7.5V5h-2.5C18.224,5,18,4.776,18,4.5S18.224,4,18.5,4h3
				C21.776,4,22,4.224,22,4.5V7.5z"/>
		</g>
		<g>
			<circle cx="12" cy="12" r="1"/>
		</g>
	</g>
</g>
<g id="Invisible_Shape">
	<rect fill="none" width="24" height="24"/>
</g>
</svg>
