<?xml version="1.0" encoding="utf-8"?>
<!-- Generator: Adobe Illustrator 19.2.1, SVG Export Plug-In . SVG Version: 6.00 Build 0)  -->
<svg version="1.1" xmlns="http://www.w3.org/2000/svg" xmlns:xlink="http://www.w3.org/1999/xlink" x="0px" y="0px" width="24px"
	 height="24px" viewBox="0 0 24 24" enable-background="new 0 0 24 24" xml:space="preserve">
<g id="Filled_Icon">
	<g>
		<path d="M22.5,5h-15V4.5C7.5,3.673,6.827,3,6,3H4C3.173,3,2.5,3.673,2.5,4.5V5h-1C0.673,5,0,5.673,0,6.5V10h8
			c0.276,0,0.5,0.224,0.5,0.5S8.276,11,8,11H0v1h8c0.276,0,0.5,0.224,0.5,0.5S8.276,13,8,13H0v1h8c0.276,0,0.5,0.224,0.5,0.5
			S8.276,15,8,15H0v3.5C0,19.327,0.673,20,1.5,20h21c0.827,0,1.5-0.673,1.5-1.5v-12C24,5.673,23.327,5,22.5,5z M16.5,18
			c-3.033,0-5.5-2.467-5.5-5.5C11,9.469,13.467,7,16.5,7S22,9.469,22,12.5C22,15.533,19.533,18,16.5,18z"/>
		<path d="M16.5,8c-2.481,0-4.5,2.019-4.5,4.5c0,2.482,2.019,4.5,4.5,4.5c2.481,0,4.5-2.018,4.5-4.5C21,10.019,18.981,8,16.5,8z
			 M18.5,14c0,0.276-0.224,0.5-0.5,0.5h-3c-0.276,0-0.5-0.224-0.5-0.5v-3c0-0.276,0.224-0.5,0.5-0.5h3c0.276,0,0.5,0.224,0.5,0.5V14
			z"/>
	</g>
</g>
<g id="Invisible_Shape">
	<rect fill="none" width="24" height="24"/>
</g>
</svg>
