<?xml version="1.0" encoding="utf-8"?>
<!-- Generator: Adobe Illustrator 19.2.1, SVG Export Plug-In . SVG Version: 6.00 Build 0)  -->
<svg version="1.1" xmlns="http://www.w3.org/2000/svg" xmlns:xlink="http://www.w3.org/1999/xlink" x="0px" y="0px" width="24px"
	 height="24px" viewBox="0 0 24 24" enable-background="new 0 0 24 24" xml:space="preserve">
<g id="Filled_Icon">
	<g>
		<circle cx="7.5" cy="11" r="1.5"/>
		<path d="M1.5,16h10c0.827,0,1.5-0.673,1.5-1.5v-6C13,7.673,12.327,7,11.5,7h-0.886c-0.179,0-0.344-0.096-0.433-0.25
			C9.911,6.28,9.425,6,8.882,6H6.618C5.915,6,5.495,6.393,5.191,7C4.328,7,3.841,7,3,7V6H2v1H1.5C0.673,7,0,7.673,0,8.5v6
			C0,15.327,0.673,16,1.5,16z M7.5,8.5C8.878,8.5,10,9.622,10,11c0,1.379-1.122,2.5-2.5,2.5S5,12.379,5,11
			C5,9.622,6.122,8.5,7.5,8.5z"/>
		<path d="M11.848,0.5c-2.852,0-5.086,2.006-6.068,4.647C6.045,5.052,6.328,5,6.618,5h2.264c0.653,0,1.27,0.261,1.73,0.701
			c0.494-0.327,1.544-1.033,1.72-1.371c0.182-0.35,0.681-0.359,0.877-0.017c1.121,1.96,2.492,2.751,4.934,1.8
			C17.354,2.875,14.832,0.5,11.848,0.5z"/>
		<path d="M21.25,19.623l-5.75-1.948v-2.961c2.161-1.706,3.155-4.637,2.837-7.451c-2.502,0.511-4.15,0.312-5.629-1.863
			c-0.23,0.209-0.514,0.425-0.818,0.641C13.083,6.228,14,7.255,14,8.5v6c0,1.379-1.122,2.5-2.5,2.5h-3v0.675l-5.758,1.951
			C1.102,20.211,0,21.768,0,23.5C0,23.776,0.224,24,0.5,24h23c0.276,0,0.5-0.224,0.5-0.5C24,21.769,22.898,20.211,21.25,19.623z"/>
	</g>
</g>
<g id="Invisible_Shape">
	<rect fill="none" width="24" height="24"/>
</g>
</svg>
