<?xml version="1.0" encoding="utf-8"?>
<!-- Generator: Adobe Illustrator 19.2.1, SVG Export Plug-In . SVG Version: 6.00 Build 0)  -->
<svg version="1.1" xmlns="http://www.w3.org/2000/svg" xmlns:xlink="http://www.w3.org/1999/xlink" x="0px" y="0px" width="24px"
	 height="24px" viewBox="0 0 24 24" enable-background="new 0 0 24 24" xml:space="preserve">
<g id="Filled_Icon">
	<path d="M23.066,11.753L20,8.793V4.606c0.106-0.276-0.117-0.5-0.394-0.5H15.42l-2.96-2.96c-0.195-0.195-0.512-0.195-0.707,0
		l-2.96,2.96H4.606c-0.276,0-0.5,0.224-0.5,0.5v4.187l-2.96,2.96c-0.195,0.195-0.195,0.512,0,0.707l2.96,2.96v4.186
		c0,0.276,0.224,0.5,0.5,0.394h4.187l2.96,3.066c0.195,0.195,0.512,0.195,0.707,0L15.42,20h4.186c0.276,0.106,0.5-0.117,0.394-0.394
		V15.42l3.066-2.96C23.262,12.265,23.262,11.948,23.066,11.753z M11.606,18.606c-0.276,0-0.5-0.224-0.606-0.5v-12
		c0.106-0.276,0.33-0.5,0.606-0.5c3.949,0,6.5,2.551,6.5,6.5C18.106,16.055,15.555,18.606,11.606,18.606z"/>
</g>
<g id="Invisible_Shape">
	<rect fill="none" width="24" height="24"/>
</g>
</svg>
