<?xml version="1.0" encoding="utf-8"?>
<!-- Generator: Adobe Illustrator 19.2.1, SVG Export Plug-In . SVG Version: 6.00 Build 0)  -->
<svg version="1.1" xmlns="http://www.w3.org/2000/svg" xmlns:xlink="http://www.w3.org/1999/xlink" x="0px" y="0px" width="24px"
	 height="24px" viewBox="0 0 24 24" enable-background="new 0 0 24 24" xml:space="preserve">
<g id="Filled_Icon">
	<g>
		<path d="M19,4.031h-2.985l-2.037-1.897C13.885,2.048,13.763,2,13.637,2h-3.273c-0.127,0-0.248,0.048-0.341,0.134L7.985,4.031H5
			c-1.065,0-2,1.005-2,2.15V13c0,1.103,0.897,2,2,2h14c1.103,0,2-0.897,2-2V6.182C21,5.036,20.065,4.031,19,4.031z M12,12.274
			c-1.78,0-3.227-1.448-3.227-3.228S10.22,5.818,12,5.818s3.227,1.448,3.227,3.228S13.78,12.274,12,12.274z M18,7.955
			c-0.302,0-0.546-0.245-0.546-0.546c0-0.302,0.244-0.545,0.546-0.545c0.301,0,0.545,0.243,0.545,0.545
			C18.545,7.71,18.301,7.955,18,7.955z"/>
		<g>
			<path d="M13.002,19.984C19.365,19.769,24,17.672,24,15c0-0.85-0.479-1.678-1.386-2.393c-0.216-0.17-0.531-0.133-0.702,0.083
				c-0.171,0.217-0.134,0.531,0.083,0.703C22.662,13.918,23,14.46,23,15c0,1.753-3.829,3.775-10.014,3.984
				c-0.276,0.009-0.492,0.241-0.482,0.517C12.512,19.771,12.734,19.984,13.002,19.984z"/>
			<path d="M9.391,19.039l-0.002-0.003c-0.002-0.003-0.004-0.006-0.007-0.009l-2.473-3.157c-0.17-0.217-0.485-0.256-0.702-0.085
				c-0.218,0.17-0.256,0.484-0.085,0.702l1.724,2.2C3.871,18.063,1,16.556,1,15c0-0.537,0.334-1.074,0.992-1.597
				c0.216-0.172,0.252-0.486,0.081-0.703C1.9,12.485,1.585,12.448,1.37,12.62C0.474,13.332,0,14.155,0,15
				c0,2.121,2.977,3.919,7.539,4.652l-2.3,1.405c-0.236,0.144-0.31,0.452-0.166,0.688c0.145,0.237,0.453,0.31,0.688,0.166
				l3.497-2.137C9.504,19.61,9.573,19.275,9.391,19.039z"/>
		</g>
	</g>
</g>
<g id="Invisible_Shape">
	<rect fill="none" width="24" height="24"/>
</g>
</svg>
