<?xml version="1.0" encoding="utf-8"?>
<!-- Generator: Adobe Illustrator 19.2.1, SVG Export Plug-In . SVG Version: 6.00 Build 0)  -->
<svg version="1.1" xmlns="http://www.w3.org/2000/svg" xmlns:xlink="http://www.w3.org/1999/xlink" x="0px" y="0px" width="24px"
	 height="24px" viewBox="0 0 24 24" enable-background="new 0 0 24 24" xml:space="preserve">
<g id="Filled_Icon">
	<g>
		<polygon points="13.881,17 16.134,17 15.013,14.004 		"/>
		<path d="M12,0C5.383,0,0,5.383,0,12s5.383,12,12,12s12-5.383,12-12S18.617,0,12,0z M7.307,20.201l3.141-7.701H6.722l4.889-9h4.54
			l-3.725,6h4.663c-1.309,1.432-0.901,0.986-1.545,1.69c-0.86-0.327-1.662,0.146-1.933,0.863l-0.805,2.132
			C11.148,15.998,12.262,14.78,7.307,20.201z M17.785,19.984c-0.243,0.095-0.543-0.024-0.644-0.293L16.508,18h-3.005l-0.629,1.666
			c-0.098,0.258-0.387,0.387-0.644,0.291c-0.258-0.098-0.389-0.386-0.291-0.645l2.608-6.906c0.164-0.434,0.775-0.429,0.936,0.001
			l2.595,6.933C18.174,19.599,18.044,19.887,17.785,19.984z"/>
	</g>
</g>
<g id="Invisible_Shape">
	<rect fill="none" width="24" height="24"/>
</g>
</svg>
