<?xml version="1.0" encoding="utf-8"?>
<!-- Generator: Adobe Illustrator 19.2.1, SVG Export Plug-In . SVG Version: 6.00 Build 0)  -->
<svg version="1.1" xmlns="http://www.w3.org/2000/svg" xmlns:xlink="http://www.w3.org/1999/xlink" x="0px" y="0px" width="24px"
	 height="24px" viewBox="0 0 24 24" enable-background="new 0 0 24 24" xml:space="preserve">
<g id="Filled_Icon">
	<g>
		<rect x="17" y="3" width="2" height="1"/>
		<circle cx="12" cy="6" r="2.5"/>
		<circle cx="5.75" cy="9.281" r="0.25"/>
		<path d="M0,15v3c0,1.104,0.898,2,2,2h2.211c-0.843,2.06-1.909,2.991-2.918,4h21.588c-1.188-0.989-2.326-1.743-3.18-4H22
			c1.104,0,2-0.896,2-2v-3H0z M20.287,23H3.615c0.264-0.329,0.494-0.664,0.703-1h15.246C19.777,22.343,20.014,22.68,20.287,23z
			 M22,17h-3.979c0.059,0.788,0.266,2.387,1.008,4H4.867c0.809-1.676,1.041-3.23,1.107-4H2v-1c10.123,0,9.914,0,20,0V17z"/>
		<polygon points="22,13 2,13 0.26,14 23.74,14 		"/>
		<path d="M11,9.337V12h2V9.337C12.279,9.555,11.721,9.555,11,9.337z"/>
		<g>
			<path d="M13,0h-2c0,0.986,0,1.734,0,2.663c0.726-0.217,1.274-0.217,2,0C13,2.094,13,0.584,13,0z"/>
			<path d="M22,3.5C22,1.57,20.43,0,18.5,0H14c0,1.833,0,0.427,0,3.135C14.904,3.769,15.5,4.814,15.5,6S14.904,8.231,14,8.865V12h8
				V3.5z M20,4.5C20,4.776,19.776,5,19.5,5h-3C16.224,5,16,4.776,16,4.5v-2C16,2.224,16.224,2,16.5,2h3C19.776,2,20,2.224,20,2.5
				V4.5z"/>
			<path d="M10,0H5.5C3.57,0,2,1.57,2,3.5V12h8V8.865C9.096,8.231,8.5,7.186,8.5,6S9.096,3.769,10,3.135C10,2.483,10,0.652,10,0z
				 M5.75,10.031C5.336,10.031,5,9.695,5,9.281c0-0.413,0.336-0.75,0.75-0.75S6.5,8.868,6.5,9.281
				C6.5,9.695,6.164,10.031,5.75,10.031z"/>
		</g>
	</g>
</g>
<g id="Invisible_Shape">
	<rect fill="none" width="24" height="24"/>
</g>
</svg>
