<?xml version="1.0" encoding="utf-8"?>
<!-- Generator: Adobe Illustrator 19.2.1, SVG Export Plug-In . SVG Version: 6.00 Build 0)  -->
<svg version="1.1" xmlns="http://www.w3.org/2000/svg" xmlns:xlink="http://www.w3.org/1999/xlink" x="0px" y="0px" width="24px"
	 height="24px" viewBox="0 0 24 24" enable-background="new 0 0 24 24" xml:space="preserve">
<g id="Filled_Icon">
	<g>
		<path d="M5,7.293V3.707L2.417,1.123C2.154,1.519,2,1.991,2,2.5v6c0,0.509,0.154,0.982,0.417,1.377L5,7.293z"/>
		<path d="M5.707,3h11.586l2.583-2.583C19.481,0.154,19.009,0,18.5,0h-14C3.991,0,3.519,0.154,3.124,0.417L5.707,3z"/>
		<path d="M9,21v2.5C9,23.776,9.224,24,9.5,24h4c0.276,0,0.5-0.224,0.5-0.5V21H9z"/>
		<path d="M17.293,8H5.707l-2.583,2.583C3.519,10.846,3.991,11,4.5,11c6.776,0,6.467,0,14,0c0.509,0,0.981-0.154,1.376-0.417
			L17.293,8z"/>
		<path d="M5.163,12l0.84,7.555C6.031,19.809,6.245,20,6.5,20c3.046,0,5.3,0,10,0c0.255,0,0.469-0.191,0.497-0.445L17.837,12H5.163z
			 M13,18c-1.103,0-2-0.897-2-2s0.897-2,2-2s2,0.897,2,2S14.103,18,13,18z"/>
		<path d="M20.583,1.123L18,3.707v3.586l2.583,2.583C20.846,9.482,21,9.009,21,8.5v-6C21,1.991,20.846,1.519,20.583,1.123z"/>
	</g>
</g>
<g id="Invisible_Shape">
	<rect fill="none" width="24" height="24"/>
</g>
</svg>
