<?xml version="1.0" encoding="utf-8"?>
<!-- Generator: Adobe Illustrator 19.2.1, SVG Export Plug-In . SVG Version: 6.00 Build 0)  -->
<svg version="1.1" xmlns="http://www.w3.org/2000/svg" xmlns:xlink="http://www.w3.org/1999/xlink" x="0px" y="0px" width="24px"
	 height="24px" viewBox="0 0 24 24" enable-background="new 0 0 24 24" xml:space="preserve">
<g id="Filled_Icon">
	<g>
		<path d="M21.5,3h-19C1.122,3,0,4.122,0,5.5v13C0,19.878,1.122,21,2.5,21h19c1.378,0,2.5-1.122,2.5-2.5v-13
			C24,4.122,22.878,3,21.5,3z M18.73,12.369L17,14.099V16.5c0,0.276-0.224,0.5-0.5,0.5h-2.417l-1.729,1.73
			c-0.195,0.195-0.512,0.195-0.707,0L9.916,17H7.5C7.224,17,7,16.776,7,16.5v-2.401l-1.731-1.73c-0.193-0.193-0.197-0.509,0-0.707
			L7,9.932V7.5C7,7.224,7.224,7,7.5,7h2.416l1.73-1.731c0.195-0.195,0.512-0.195,0.707,0L14.084,7H16.5C16.776,7,17,7.224,17,7.5
			v2.432l1.73,1.731C18.927,11.86,18.924,12.176,18.73,12.369z"/>
		<path d="M11.5,8.5C11.224,8.5,11,8.724,11,9v6c0,0.276,0.224,0.5,0.5,0.5c2.093,0,3.5-1.407,3.5-3.5S13.593,8.5,11.5,8.5z"/>
	</g>
</g>
<g id="Invisible_Shape">
	<rect fill="none" width="24" height="24"/>
</g>
</svg>
