<?xml version="1.0" encoding="utf-8"?>
<!-- Generator: Adobe Illustrator 19.2.1, SVG Export Plug-In . SVG Version: 6.00 Build 0)  -->
<svg version="1.1" xmlns="http://www.w3.org/2000/svg" xmlns:xlink="http://www.w3.org/1999/xlink" x="0px" y="0px" width="24px"
	 height="24px" viewBox="0 0 24 24" enable-background="new 0 0 24 24" xml:space="preserve">
<g id="Filled_Icon">
	<g>
		<path d="M17,21.5V19H6v2.5C6,21.776,6.224,22,6.5,22c5.061,0,4.957,0,10,0C16.776,22,17,21.776,17,21.5z"/>
		<path d="M3.86,8h15.28l1.845-7.379C21.064,0.307,20.826,0,20.5,0h-18C2.174,0,1.936,0.307,2.015,0.621L3.86,8z"/>
		<rect x="6" y="9" width="11" height="2"/>
		<path d="M6,18h11v-6H6V18z M14,13.5c0-0.276,0.224-0.5,0.5-0.5s0.5,0.224,0.5,0.5v3c0,0.276-0.224,0.5-0.5,0.5S14,16.776,14,16.5
			V13.5z M12,13.5c0-0.276,0.224-0.5,0.5-0.5s0.5,0.224,0.5,0.5v3c0,0.276-0.224,0.5-0.5,0.5S12,16.776,12,16.5V13.5z M10,13.5
			c0-0.276,0.224-0.5,0.5-0.5s0.5,0.224,0.5,0.5v3c0,0.276-0.224,0.5-0.5,0.5S10,16.776,10,16.5V13.5z M8,13.5
			C8,13.224,8.224,13,8.5,13S9,13.224,9,13.5v3C9,16.776,8.776,17,8.5,17S8,16.776,8,16.5V13.5z"/>
		<path d="M8,23v0.5C8,23.776,8.224,24,8.5,24h6c0.276,0,0.5-0.224,0.5-0.5V23H8z"/>
	</g>
</g>
<g id="Invisible_Shape">
	<rect fill="none" width="24" height="24"/>
</g>
</svg>
