<?xml version="1.0" encoding="utf-8"?>
<!-- Generator: Adobe Illustrator 19.2.1, SVG Export Plug-In . SVG Version: 6.00 Build 0)  -->
<svg version="1.1" xmlns="http://www.w3.org/2000/svg" xmlns:xlink="http://www.w3.org/1999/xlink" x="0px" y="0px" width="24px"
	 height="24px" viewBox="0 0 24 24" enable-background="new 0 0 24 24" xml:space="preserve">
<g id="Filled_Icon">
	<g>
		<path d="M17,15v7h1.5c0.276,0,0.5-0.224,0.5-0.5v-6.763C18.359,14.902,17.691,15,17,15z"/>
		<circle cx="8" cy="19" r="3"/>
		<g>
			<path d="M3,13.5C3,13.224,3.224,13,3.5,13h8.229c-1.184-1.042-2.058-2.427-2.465-4H0.5C0.224,9,0,9.224,0,9.5v14
				C0,23.776,0.224,24,0.5,24H3V13.5z M3.5,11C3.776,11,4,11.223,4,11.5C4,11.776,3.776,12,3.5,12S3,11.776,3,11.5
				C3,11.223,3.224,11,3.5,11z"/>
			<path d="M13,13.895V24h2.5c0.276,0,0.5-0.224,0.5-0.5v-8.569C14.914,14.794,13.906,14.423,13,13.895z"/>
		</g>
		<g>
			<path d="M19.069,8.402l3.562,2.738c1.849-2.507,1.802-5.84-0.001-8.282l-3.562,2.74C19.649,6.451,19.639,7.563,19.069,8.402z"/>
			<path d="M15.665,4.894c0.829-0.526,1.848-0.526,2.675,0.003l3.645-2.804c-2.735-2.777-7.186-2.793-9.94-0.031L15.665,4.894z"/>
			<path d="M11.396,2.823c-1.861,2.49-1.864,5.861,0,8.354l3.536-2.775c-0.576-0.846-0.579-1.957,0.003-2.809L11.396,2.823z"/>
			<path d="M18.341,9.103c-0.828,0.53-1.853,0.53-2.681,0l-3.615,2.837c2.752,2.759,7.203,2.747,9.941-0.035L18.341,9.103z"/>
		</g>
	</g>
</g>
<g id="Invisible_Shape">
	<rect fill="none" width="24" height="24"/>
</g>
</svg>
