<?xml version="1.0" encoding="utf-8"?>
<!-- Generator: Adobe Illustrator 19.2.1, SVG Export Plug-In . SVG Version: 6.00 Build 0)  -->
<svg version="1.1" xmlns="http://www.w3.org/2000/svg" xmlns:xlink="http://www.w3.org/1999/xlink" x="0px" y="0px" width="24px"
	 height="24px" viewBox="0 0 24 24" enable-background="new 0 0 24 24" xml:space="preserve">
<g id="Filled_Icon">
	<g>
		<path d="M23.5,17H21V3.5C21,3.224,20.776,3,20.5,3H7V0.5C7,0.224,6.776,0,6.5,0h-3C3.224,0,3,0.224,3,0.5V3H0.5
			C0.224,3,0,3.224,0,3.5v3C0,6.776,0.224,7,0.5,7H3v13.5C3,20.776,3.224,21,3.5,21H17v2.5c0,0.276,0.224,0.5,0.5,0.5h3
			c0.276,0,0.5-0.224,0.5-0.5V21h2.5c0.276,0,0.5-0.224,0.5-0.5v-3C24,17.224,23.776,17,23.5,17z M17,17H7V7h10V17z"/>
		<circle cx="12" cy="12" r="3"/>
	</g>
</g>
<g id="Invisible_Shape">
	<rect fill="none" width="24" height="24"/>
</g>
</svg>
