<?xml version="1.0" encoding="utf-8"?>
<!-- Generator: Adobe Illustrator 19.2.1, SVG Export Plug-In . SVG Version: 6.00 Build 0)  -->
<svg version="1.1" xmlns="http://www.w3.org/2000/svg" xmlns:xlink="http://www.w3.org/1999/xlink" x="0px" y="0px" width="24px"
	 height="24px" viewBox="0 0 24 24" enable-background="new 0 0 24 24" xml:space="preserve">
<g id="Filled_Icon">
	<g>
		<path d="M22.876,0.417C22.481,0.154,22.009,0,21.5,0h-19C1.122,0,0,1.122,0,2.5v19c0,0.509,0.154,0.981,0.417,1.377L22.876,0.417z
			 M4,4.5C4,4.224,4.224,4,4.499,4H10.5C10.776,4,11,4.224,11,4.5v2.001C11,6.776,10.776,7,10.5,7H4.499C4.224,7,4,6.776,4,6.501
			V4.5z"/>
		<path d="M1.124,23.584C1.519,23.846,1.991,24,2.5,24h19c1.378,0,2.5-1.122,2.5-2.5v-19c0-0.509-0.154-0.981-0.417-1.376
			L1.124,23.584z M21,18.5c0,0.276-0.224,0.5-0.5,0.5H19v1.5c0,0.276-0.224,0.5-0.5,0.5H16.5c-0.276,0-0.5-0.224-0.5-0.5V19h-1.5
			c-0.276,0-0.5-0.224-0.5-0.5v-2c0-0.276,0.224-0.5,0.5-0.5H16v-1.5c0-0.276,0.224-0.5,0.5-0.5H18.5c0.276,0,0.5,0.224,0.5,0.5V16
			h1.5c0.276,0,0.5,0.224,0.5,0.5V18.5z"/>
	</g>
</g>
<g id="Invisible_Shape">
	<rect fill="none" width="24" height="24"/>
</g>
</svg>
