<?xml version="1.0" encoding="utf-8"?>
<!-- Generator: Adobe Illustrator 19.2.1, SVG Export Plug-In . SVG Version: 6.00 Build 0)  -->
<svg version="1.1" xmlns="http://www.w3.org/2000/svg" xmlns:xlink="http://www.w3.org/1999/xlink" x="0px" y="0px" width="24px"
	 height="24px" viewBox="0 0 24 24" enable-background="new 0 0 24 24" xml:space="preserve">
<g id="Filled_Icon">
	<g>
		<g>
			<path d="M10.5,7C10.224,7,10,6.776,10,6.5v-4C10,2.224,10.224,2,10.5,2S11,2.224,11,2.5v4C11,6.776,10.776,7,10.5,7z"/>
		</g>
		<g>
			<path d="M13.225,7.289c-0.27-0.058-0.442-0.323-0.384-0.593l0.838-3.912c0.058-0.27,0.323-0.443,0.593-0.384
				c0.27,0.058,0.442,0.323,0.384,0.593l-0.838,3.912C13.759,7.18,13.487,7.347,13.225,7.289z"/>
		</g>
		<g>
			<path d="M15.827,8.142c-0.251-0.113-0.364-0.409-0.251-0.661l1.639-3.649c0.113-0.25,0.409-0.363,0.661-0.25
				c0.251,0.113,0.364,0.409,0.251,0.661l-1.639,3.648C16.377,8.139,16.083,8.256,15.827,8.142z"/>
		</g>
		<g>
			<path d="M7.182,6.905L6.344,2.993C6.286,2.723,6.458,2.457,6.728,2.4c0.268-0.06,0.535,0.114,0.593,0.384L8.16,6.696
				c0.058,0.269-0.114,0.535-0.384,0.593C7.513,7.347,7.241,7.18,7.182,6.905z"/>
		</g>
		<g>
			<path d="M4.512,7.891L2.873,4.243c-0.113-0.252,0-0.548,0.251-0.661c0.252-0.115,0.548-0.001,0.661,0.25l1.639,3.649
				c0.113,0.252,0.001,0.548-0.251,0.661C4.917,8.256,4.623,8.139,4.512,7.891z"/>
		</g>
		<g>
			<path d="M10.5,22c-0.276,0-0.5-0.224-0.5-0.5v-4c0-0.276,0.224-0.5,0.5-0.5s0.5,0.224,0.5,0.5v4C11,21.776,10.776,22,10.5,22z"/>
		</g>
		<g>
			<path d="M13.678,21.216l-0.838-3.911c-0.058-0.27,0.114-0.536,0.384-0.594c0.267-0.061,0.535,0.114,0.593,0.384l0.838,3.911
				c0.058,0.27-0.114,0.536-0.384,0.594C14.006,21.659,13.737,21.489,13.678,21.216z"/>
		</g>
		<g>
			<path d="M17.215,20.168l-1.639-3.648c-0.113-0.252,0-0.548,0.251-0.661c0.254-0.113,0.548-0.001,0.661,0.251l1.639,3.648
				c0.113,0.252,0,0.548-0.251,0.661C17.62,20.533,17.326,20.417,17.215,20.168z"/>
		</g>
		<g>
			<path d="M6.728,21.6c-0.27-0.058-0.442-0.324-0.384-0.594l0.838-3.911c0.058-0.27,0.324-0.444,0.593-0.384
				c0.27,0.058,0.442,0.324,0.384,0.594l-0.838,3.911C7.263,21.489,6.994,21.659,6.728,21.6z"/>
		</g>
		<g>
			<path d="M3.124,20.419c-0.251-0.113-0.364-0.409-0.251-0.661l1.639-3.648c0.113-0.252,0.409-0.363,0.661-0.251
				c0.251,0.113,0.364,0.409,0.251,0.661l-1.639,3.648C3.674,20.417,3.38,20.533,3.124,20.419z"/>
		</g>
		<g>
			<rect x="4" y="9" width="13" height="6"/>
			<path d="M0,12c0,1.654,1.346,3,3,3V9C1.346,9,0,10.346,0,12z"/>
			<path d="M18,9v6c1.654,0,3-1.346,3-3S19.654,9,18,9z"/>
		</g>
	</g>
</g>
<g id="Invisible_Shape">
	<rect fill="none" width="24" height="24"/>
</g>
</svg>
