<?xml version="1.0" encoding="utf-8"?>
<!-- Generator: Adobe Illustrator 19.2.1, SVG Export Plug-In . SVG Version: 6.00 Build 0)  -->
<svg version="1.1" xmlns="http://www.w3.org/2000/svg" xmlns:xlink="http://www.w3.org/1999/xlink" x="0px" y="0px" width="24px"
	 height="24px" viewBox="0 0 24 24" enable-background="new 0 0 24 24" xml:space="preserve">
<g id="Filled_Icon">
	<path d="M19.773,1.204c-0.119-0.077-0.071-0.06-0.212-0.077c-1-0.14-4.393-0.374-5.834,0.567c-0.796,0.52-1.674,1.208-1.952,1.428
		L3.881,5.057C3.657,5.111,3.5,5.312,3.5,5.543v4.408c0,0.241,0.172,0.448,0.41,0.491L9,11.376V16.5
		c0,0.487,0.351,0.893,0.812,0.982l-5.666,5.665c-0.195,0.195-0.195,0.512,0,0.707c0.195,0.195,0.512,0.195,0.707,0L10,18.707V23.5
		c0,0.276,0.224,0.5,0.5,0.5c0.276,0,0.5-0.224,0.5-0.5v-4.793l5.146,5.146c0.195,0.195,0.512,0.195,0.707,0
		c0.195-0.195,0.195-0.512,0-0.707l-5.666-5.665C11.65,17.393,12,16.987,12,16.5v-4.444c0.39,0.305,1.083,0.831,1.727,1.251
		c1.347,0.879,4.387,0.736,5.834,0.567c0.142-0.018,0.093,0,0.212-0.078C22.078,12.3,22.084,2.71,19.773,1.204z"/>
</g>
<g id="Invisible_Shape">
	<rect fill="none" width="24" height="24"/>
</g>
</svg>
