<?xml version="1.0" encoding="utf-8"?>
<!-- Generator: Adobe Illustrator 19.2.1, SVG Export Plug-In . SVG Version: 6.00 Build 0)  -->
<svg version="1.1" xmlns="http://www.w3.org/2000/svg" xmlns:xlink="http://www.w3.org/1999/xlink" x="0px" y="0px" width="24px"
	 height="24px" viewBox="0 0 24 24" enable-background="new 0 0 24 24" xml:space="preserve">
<g id="Filled_Icon">
	<path d="M23.5,2h-23C0.223,2-0.001,2.223,0,2.5v19C-0.001,21.776,0.223,22,0.5,22h23c0.276,0,0.5-0.224,0.5-0.5v-19
		C24,2.223,23.776,2,23.5,2z M4.469,21H1.5C1.224,21,1,20.776,1,20.5v-2.969c0-0.276,0.224-0.5,0.5-0.5s0.5,0.224,0.5,0.5V20h2.469
		c0.276,0,0.5,0.224,0.5,0.5S4.745,21,4.469,21z M4.469,4H2v2.469c0,0.276-0.224,0.5-0.5,0.5S1,6.745,1,6.469V3.5
		C1,3.224,1.224,3,1.5,3h2.969c0.276,0,0.5,0.224,0.5,0.5S4.745,4,4.469,4z M17,18c0,0.276-0.224,0.5-0.5,0.5S16,18.276,16,18V8.879
		l-3.544,7.827c-0.162,0.358-0.749,0.358-0.911,0L8,8.879V18c0,0.276-0.224,0.5-0.5,0.5S7,18.276,7,18V6.562
		c0-0.534,0.733-0.696,0.956-0.206L12,15.288l4.044-8.932C16.267,5.867,17,6.029,17,6.562V18z M23,20.5c0,0.276-0.224,0.5-0.5,0.5
		h-2.969c-0.276,0-0.5-0.224-0.5-0.5s0.224-0.5,0.5-0.5H22v-2.469c0-0.276,0.224-0.5,0.5-0.5s0.5,0.224,0.5,0.5V20.5z M23,6.469
		c0,0.276-0.224,0.5-0.5,0.5S22,6.745,22,6.469V4h-2.469c-0.276,0-0.5-0.224-0.5-0.5s0.224-0.5,0.5-0.5H22.5
		C22.776,3,23,3.224,23,3.5V6.469z"/>
</g>
<g id="Invisible_Shape">
	<rect fill="none" width="24" height="24"/>
</g>
</svg>
