<?xml version="1.0" encoding="utf-8"?>
<!-- Generator: Adobe Illustrator 19.2.1, SVG Export Plug-In . SVG Version: 6.00 Build 0)  -->
<svg version="1.1" xmlns="http://www.w3.org/2000/svg" xmlns:xlink="http://www.w3.org/1999/xlink" x="0px" y="0px" width="24px"
	 height="24px" viewBox="0 0 24 24" enable-background="new 0 0 24 24" xml:space="preserve">
<g id="Filled_Icon">
	<path d="M21.5,1h-19C1.122,1,0,2.122,0,3.5v17C0,21.878,1.122,23,2.5,23h19c1.378,0,2.5-1.122,2.5-2.5v-17
		C24,2.122,22.878,1,21.5,1z M6.819,17.597c0.213,0.177,0.242,0.491,0.067,0.704c-0.177,0.213-0.492,0.243-0.704,0.066
		C4.248,16.768,3,14.261,3,11.982c0-2.284,1.249-4.79,3.182-6.386C6.396,5.422,6.71,5.452,6.886,5.664
		c0.176,0.213,0.145,0.528-0.067,0.704C5.106,7.781,4,9.985,4,11.982C4,13.976,5.106,16.18,6.819,17.597z M12,15.5
		c-1.93,0-3.5-1.57-3.5-3.5s1.57-3.5,3.5-3.5s3.5,1.57,3.5,3.5S13.93,15.5,12,15.5z M17.819,18.368
		c-0.212,0.176-0.527,0.147-0.704-0.066c-0.176-0.213-0.146-0.527,0.066-0.704C18.894,16.18,20,13.976,20,11.982
		c0-1.997-1.106-4.201-2.818-5.614c-0.213-0.176-0.243-0.491-0.067-0.704c0.175-0.213,0.49-0.243,0.704-0.067
		C19.751,7.192,21,9.699,21,11.982C21,14.261,19.751,16.768,17.819,18.368z"/>
</g>
<g id="Invisible_Shape">
	<rect fill="none" width="24" height="24"/>
</g>
</svg>
