<?xml version="1.0" encoding="utf-8"?>
<!-- Generator: Adobe Illustrator 19.2.1, SVG Export Plug-In . SVG Version: 6.00 Build 0)  -->
<svg version="1.1" xmlns="http://www.w3.org/2000/svg" xmlns:xlink="http://www.w3.org/1999/xlink" x="0px" y="0px" width="24px"
	 height="24px" viewBox="0 0 24 24" enable-background="new 0 0 24 24" xml:space="preserve">
<g id="Filled_Icon">
	<g>
		<path d="M23.5,2h-23C0.224,2,0,2.224,0,2.5v19C0,21.776,0.224,22,0.5,22h23c0.276,0,0.5-0.224,0.5-0.5v-19
			C24,2.224,23.776,2,23.5,2z M4.469,21H1.5C1.224,21,1,20.777,1,20.5v-2.969c0-0.276,0.224-0.5,0.5-0.5s0.5,0.224,0.5,0.5V20h2.469
			c0.276,0,0.5,0.224,0.5,0.5S4.746,21,4.469,21z M4.469,4H2v2.469c0,0.276-0.223,0.5-0.5,0.5S1,6.746,1,6.469V3.5
			C1,3.224,1.224,3,1.5,3h2.969c0.276,0,0.5,0.224,0.5,0.5S4.746,4.001,4.469,4z M16.303,17.979
			c-0.259,0.097-0.546-0.034-0.643-0.293L14.28,14H9.732l-1.377,3.645c-0.098,0.258-0.387,0.39-0.645,0.291
			c-0.258-0.098-0.389-0.386-0.291-0.645l4.131-10.937c0.164-0.433,0.775-0.428,0.936,0.002l4.109,10.979
			C16.693,17.595,16.562,17.882,16.303,17.979z M23,20.5c0,0.276-0.224,0.5-0.5,0.5h-2.969c-0.276,0-0.5-0.224-0.5-0.5
			s0.224-0.5,0.5-0.5H22v-2.468c0-0.276,0.224-0.5,0.5-0.5s0.5,0.224,0.5,0.5V20.5z M23,6.469c0,0.276-0.224,0.5-0.5,0.5
			S22,6.746,22,6.469V4.001h-2.468c-0.276,0-0.5-0.224-0.5-0.5s0.224-0.5,0.5-0.5H22.5C22.777,3,23,3.224,23,3.5V6.469z"/>
		<polygon points="10.11,13 13.906,13 12.017,7.952 		"/>
	</g>
</g>
<g id="Invisible_Shape">
	<rect fill="none" width="24" height="24"/>
</g>
</svg>
