<?xml version="1.0" encoding="utf-8"?>
<!-- Generator: Adobe Illustrator 19.2.1, SVG Export Plug-In . SVG Version: 6.00 Build 0)  -->
<svg version="1.1" xmlns="http://www.w3.org/2000/svg" xmlns:xlink="http://www.w3.org/1999/xlink" x="0px" y="0px" width="24px"
	 height="24px" viewBox="0 0 24 24" enable-background="new 0 0 24 24" xml:space="preserve">
<g id="Filled_Icon">
	<g>
		<path d="M3.969,16H1c-0.552,0-1-0.448-1-1v-2.969c0-0.552,0.448-1,1-1s1,0.448,1,1V14h1.969c0.552,0,1,0.448,1,1
			C4.969,15.552,4.521,16,3.969,16z"/>
		<path d="M1,4.969c-0.552,0-1-0.448-1-1V1c0-0.552,0.448-1,1-1h2.969c0.552,0,1,0.448,1,1c0,0.552-0.448,1-1,1H2v1.969
			C2,4.521,1.552,4.969,1,4.969z"/>
		<path d="M23,4.969c-0.552,0-1-0.448-1-1V2h-1.969c-0.552,0-1-0.448-1-1c0-0.552,0.448-1,1-1H23c0.552,0,1,0.448,1,1v2.969
			C24,4.521,23.552,4.969,23,4.969z"/>
		<path d="M23,16h-2.969c-0.552,0-1-0.448-1-1c0-0.552,0.448-1,1-1H22v-1.969c0-0.552,0.448-1,1-1s1,0.448,1,1V15
			C24,15.552,23.552,16,23,16z"/>
		<path d="M14.639,14.38C16.626,13.402,18,11.361,18,9c0-3.309-2.691-6-6-6S6,5.691,6,9c0,2.361,1.374,4.402,3.361,5.38
			C5.404,15.528,2.5,19.178,2.5,23.5C2.5,23.776,2.724,24,3,24h18c0.276,0,0.5-0.224,0.5-0.5
			C21.5,19.178,18.596,15.528,14.639,14.38z"/>
	</g>
</g>
<g id="Invisible_Shape">
	<rect fill="none" width="24" height="24"/>
</g>
</svg>
