<?xml version="1.0" encoding="utf-8"?>
<!-- Generator: Adobe Illustrator 19.2.1, SVG Export Plug-In . SVG Version: 6.00 Build 0)  -->
<svg version="1.1" xmlns="http://www.w3.org/2000/svg" xmlns:xlink="http://www.w3.org/1999/xlink" x="0px" y="0px" width="24px"
	 height="24px" viewBox="0 0 24 24" enable-background="new 0 0 24 24" xml:space="preserve">
<g id="Filled_Icon">
	<g>
		<circle cx="11.5" cy="5.516" r="1.5"/>
		<path d="M11.5,3.031c0.276,0,0.5-0.224,0.5-0.5V0.5C12,0.224,11.776,0,11.5,0S11,0.224,11,0.5v2.031
			C11,2.808,11.224,3.031,11.5,3.031z"/>
		<path d="M9.029,3.769C9.227,3.965,9.543,3.96,9.736,3.766C9.93,3.57,9.929,3.254,9.733,3.059L8.292,1.63
			C8.096,1.436,7.78,1.436,7.584,1.632C7.39,1.828,7.391,2.145,7.587,2.339L9.029,3.769z"/>
		<path d="M13.971,3.769l1.441-1.429c0.196-0.194,0.197-0.511,0.003-0.707c-0.195-0.197-0.511-0.197-0.707-0.002l-1.441,1.429
			c-0.196,0.195-0.197,0.511-0.003,0.707C13.457,3.96,13.773,3.965,13.971,3.769z"/>
		<path d="M13.984,5.516c0,0.276,0.224,0.5,0.5,0.484h2.031c0.276,0.016,0.5-0.208,0.5-0.484c0-0.276-0.224-0.5-0.5-0.5h-2.031
			C14.208,5.016,13.984,5.239,13.984,5.516z"/>
		<path d="M6.484,6h2.031c0.276,0.016,0.5-0.208,0.5-0.484c0-0.276-0.224-0.5-0.5-0.5H6.484c-0.276,0-0.5,0.224-0.5,0.5
			C5.984,5.792,6.208,6.016,6.484,6z"/>
		<path d="M17.5,3C17.224,3,17,3.224,17,3.5S17.224,4,17.5,4C18.327,4,19,4.673,19,5.5V8H4V5.5C4,4.673,4.673,4,5.5,4
			C5.776,4,6,3.776,6,3.5S5.776,3,5.5,3C4.122,3,3,4.122,3,5.5V8v15.5C3,23.776,3.224,24,3.5,24h16c0.276,0,0.5-0.224,0.5-0.5V8V5.5
			C20,4.122,18.878,3,17.5,3z M5.761,23c-0.296,0-0.528-0.256-0.497-0.552c0.344-3.309,2.268-4.914,4.147-5.55
			c-0.988-0.671-1.639-1.804-1.639-3.086c0-2.056,1.672-3.729,3.728-3.729c2.057,0,3.729,1.673,3.729,3.729
			c0,1.282-0.651,2.415-1.639,3.086c1.877,0.635,3.802,2.241,4.145,5.549C17.768,22.748,17.53,23,17.239,23H5.761z"/>
	</g>
</g>
<g id="Invisible_Shape">
	<rect fill="none" width="24" height="24"/>
</g>
</svg>
