<?xml version="1.0" encoding="utf-8"?>
<!-- Generator: Adobe Illustrator 19.2.1, SVG Export Plug-In . SVG Version: 6.00 Build 0)  -->
<svg version="1.1" xmlns="http://www.w3.org/2000/svg" xmlns:xlink="http://www.w3.org/1999/xlink" x="0px" y="0px" width="24px"
	 height="24px" viewBox="0 0 24 24" enable-background="new 0 0 24 24" xml:space="preserve">
<g id="Filled_Icon">
	<g>
		<path d="M10.5,9H10v5h0.5c1.378,0,2.5-1.122,2.5-2.5S11.878,9,10.5,9z"/>
		<path d="M18,9h-2v2h2c0.551,0,1-0.449,1-1S18.551,9,18,9z"/>
		<path d="M18.5,4h-14C2.019,4,0,6.019,0,8.5v6C0,16.982,2.019,19,4.5,19h14c2.481,0,4.5-2.018,4.5-4.5v-6C23,6.019,20.981,4,18.5,4
			z M8,14.5C8,14.776,7.776,15,7.5,15S7,14.776,7,14.5V12H4v2.5C4,14.776,3.776,15,3.5,15S3,14.776,3,14.5v-6C3,8.224,3.224,8,3.5,8
			S4,8.224,4,8.5V11h3V8.5C7,8.224,7.224,8,7.5,8S8,8.224,8,8.5V14.5z M10.5,15h-1C9.224,15,9,14.776,9,14.5v-6
			C9,8.224,9.224,8,9.5,8h1c1.93,0,3.5,1.57,3.5,3.5S12.43,15,10.5,15z M19.883,14.179c0.178,0.211,0.15,0.526-0.061,0.704
			c-0.21,0.177-0.527,0.152-0.705-0.061L16.746,12H16v2.5c0,0.276-0.224,0.5-0.5,0.5S15,14.776,15,14.5v-3v-3
			C15,8.224,15.224,8,15.5,8H18c1.103,0,2,0.897,2,2c0,1.086-0.871,1.969-1.951,1.995L19.883,14.179z"/>
	</g>
</g>
<g id="Invisible_Shape">
	<rect fill="none" width="24" height="24"/>
</g>
</svg>
