<?xml version="1.0" encoding="utf-8"?>
<!-- Generator: Adobe Illustrator 19.2.1, SVG Export Plug-In . SVG Version: 6.00 Build 0)  -->
<svg version="1.1" xmlns="http://www.w3.org/2000/svg" xmlns:xlink="http://www.w3.org/1999/xlink" x="0px" y="0px" width="24px"
	 height="24px" viewBox="0 0 24 24" enable-background="new 0 0 24 24" xml:space="preserve">
<g id="Filled_Icon">
	<g>
		<polygon points="7,14 7,9.983 4.837,14 		"/>
		<path d="M19.5,5h-15C2.019,5,0,7.019,0,9.5v6C0,17.981,2.019,20,4.5,20h15c2.481,0,4.5-2.019,4.5-4.5v-6C24,7.019,21.981,5,19.5,5
			z M9,15H8v1.5C8,16.776,7.776,17,7.5,17S7,16.776,7,16.5V15H4c-0.377,0-0.619-0.403-0.44-0.737l3.5-6.5C7.307,7.305,8,7.485,8,8v6
			h1c0.276,0,0.5,0.224,0.5,0.5S9.276,15,9,15z M12,16.5c-0.827,0-1.5-0.673-1.5-1.5s0.673-1.5,1.5-1.5s1.5,0.673,1.5,1.5
			S12.827,16.5,12,16.5z M12,11.5c-0.827,0-1.5-0.673-1.5-1.5s0.673-1.5,1.5-1.5s1.5,0.673,1.5,1.5S12.827,11.5,12,11.5z M20,14.425
			C20,15.67,19.359,17,17.559,17c-1.454,0-2.366-0.903-2.441-2.417c-0.014-0.275,0.199-0.51,0.475-0.523
			c0.262-0.03,0.51,0.199,0.524,0.475C16.165,15.507,16.649,16,17.559,16C18.75,16,19,15.144,19,14.425C19,13.775,18.74,13,17.5,13
			c-0.661,0-0.661-1,0-1c1.483,0,1.5-1.846,1.5-1.925C19,9.356,18.75,8.5,17.559,8.5c-0.909,0-1.394,0.493-1.442,1.466
			c-0.014,0.276-0.259,0.486-0.524,0.475c-0.276-0.014-0.489-0.248-0.475-0.524C15.192,8.403,16.104,7.5,17.559,7.5
			c1.8,0,2.441,1.33,2.441,2.575c0,0.667-0.238,1.717-0.96,2.361C19.724,12.914,20,13.706,20,14.425z"/>
	</g>
</g>
<g id="Invisible_Shape">
	<rect fill="none" width="24" height="24"/>
</g>
</svg>
