<?xml version="1.0" encoding="utf-8"?>
<!-- Generator: Adobe Illustrator 19.2.1, SVG Export Plug-In . SVG Version: 6.00 Build 0)  -->
<svg version="1.1" xmlns="http://www.w3.org/2000/svg" xmlns:xlink="http://www.w3.org/1999/xlink" x="0px" y="0px" width="24px"
	 height="24px" viewBox="0 0 24 24" enable-background="new 0 0 24 24" xml:space="preserve">
<g id="Filled_Icon">
	<path d="M19,4h-2.987l-2.039-1.869C13.881,2.047,13.761,2,13.636,2h-3.271c-0.125,0-0.246,0.047-0.338,0.131L7.987,4H5
		C3.821,4,3,5.15,3,6.182V13c0,1.102,0.897,2,2,2h3.703l2.858,5.239c0.189,0.347,0.689,0.348,0.878,0L15.297,15H19
		c1.103,0,2-0.898,2-2V6.182C21,5.15,20.179,4,19,4z M12,12.5c-1.93,0-3.5-1.57-3.5-3.5s1.57-3.5,3.5-3.5s3.5,1.57,3.5,3.5
		S13.93,12.5,12,12.5z M17.5,8C17.224,8,17,7.776,17,7.5S17.224,7,17.5,7S18,7.224,18,7.5S17.776,8,17.5,8z"/>
</g>
<g id="Invisible_Shape">
	<rect fill="none" width="24" height="24"/>
</g>
</svg>
