<?xml version="1.0" encoding="utf-8"?>
<!-- Generator: Adobe Illustrator 19.2.1, SVG Export Plug-In . SVG Version: 6.00 Build 0)  -->
<svg version="1.1" xmlns="http://www.w3.org/2000/svg" xmlns:xlink="http://www.w3.org/1999/xlink" x="0px" y="0px" width="24px"
	 height="24px" viewBox="0 0 24 24" enable-background="new 0 0 24 24" xml:space="preserve">
<g id="Filled_Icon">
	<path d="M0,2v20h24V2H0z M8,5.031c1.103,0,2,0.897,2,2c0,1.103-0.897,2-2,2s-2-0.897-2-2C6,5.928,6.897,5.031,8,5.031z M1,3.5
		C1,3.224,1.224,3,1.5,3h2.969c0.276,0,0.5,0.224,0.5,0.5S4.745,4,4.469,4H2v2.469c0,0.276-0.224,0.5-0.5,0.5S1,6.745,1,6.469V3.5z
		 M4.469,21H1.5C1.224,21,1,20.776,1,20.5v-2.969c0-0.276,0.224-0.5,0.5-0.5s0.5,0.224,0.5,0.5V20h2.469c0.276,0,0.5,0.224,0.5,0.5
		S4.745,21,4.469,21z M3.5,18.031c-0.276,0-0.5-0.224-0.5-0.5c0-0.276,0.224-0.5,0.5-0.5h2.717l2.854-4.757
		c0.174-0.288,0.587-0.332,0.813-0.063l2.071,2.486l3.628-5.443c0.231-0.347,0.744-0.271,0.884,0.102l2.878,7.676H20.5
		c0.276,0,0.5,0.224,0.5,0.5c0,0.276-0.224,0.5-0.5,0.5H3.5z M23,20.5c0,0.276-0.224,0.5-0.5,0.5h-2.969c-0.276,0-0.5-0.224-0.5-0.5
		s0.224-0.5,0.5-0.5H22v-2.469c0-0.276,0.224-0.5,0.5-0.5s0.5,0.224,0.5,0.5V20.5z M23,6.469c0,0.276-0.224,0.5-0.5,0.5
		S22,6.745,22,6.469V4h-2.469c-0.276,0-0.5-0.224-0.5-0.5s0.224-0.5,0.5-0.5H22.5C22.776,3,23,3.224,23,3.5V6.469z"/>
</g>
<g id="Invisible_Shape">
	<rect fill="none" width="24" height="24"/>
</g>
</svg>
