<?xml version="1.0" encoding="utf-8"?>
<!-- Generator: Adobe Illustrator 19.2.1, SVG Export Plug-In . SVG Version: 6.00 Build 0)  -->
<svg version="1.1" xmlns="http://www.w3.org/2000/svg" xmlns:xlink="http://www.w3.org/1999/xlink" x="0px" y="0px" width="24px"
	 height="24px" viewBox="0 0 24 24" enable-background="new 0 0 24 24" xml:space="preserve">
<g id="Filled_Icon">
	<g>
		<g>
			<path d="M11,17.809l-7.296-3.265C3.372,14.396,3,14.64,3,15c0,4.624,3.507,8.442,8,8.941V17.809z"/>
			<path d="M21.294,14.544L14,17.832v6.109c4.493-0.499,8-4.317,8-8.941C22,14.639,21.627,14.394,21.294,14.544z"/>
		</g>
		<path d="M20.113,0.184L16.049,5.15L12.9,0.23c-0.197-0.308-0.648-0.308-0.843,0.002L8.948,5.147L4.887,0.184
			C4.588-0.184,4,0.036,4,0.5v5c0,4.518,3.546,8.214,8,8.475v10.026h1V13.975c4.454-0.261,8-3.957,8-8.475v-5
			C21,0.034,20.41-0.183,20.113,0.184z"/>
	</g>
</g>
<g id="Invisible_Shape">
	<rect fill="none" width="24" height="24"/>
</g>
</svg>
