<?xml version="1.0" encoding="utf-8"?>
<!-- Generator: Adobe Illustrator 19.2.1, SVG Export Plug-In . SVG Version: 6.00 Build 0)  -->
<svg version="1.1" xmlns="http://www.w3.org/2000/svg" xmlns:xlink="http://www.w3.org/1999/xlink" x="0px" y="0px" width="24px"
	 height="24px" viewBox="0 0 24 24" enable-background="new 0 0 24 24" xml:space="preserve">
<g id="Filled_Icon">
	<g>
		<path d="M18.133,0.089c-0.421-0.034-0.694,0.503-0.383,0.839c2.921,3.151,0.764,8.461-3.83,8.393
			c-0.421-0.035-0.693,0.504-0.382,0.839c2.912,3.144,8.085,2.311,9.862-1.583C25.167,4.705,22.442,0.228,18.133,0.089z"/>
		<path d="M9.781,16.358C11.102,15.572,12,14.146,12,12.5C12,10.019,9.981,8,7.5,8S3,10.019,3,12.5c0,1.646,0.898,3.072,2.219,3.858
			C2.196,17.325,0,20.16,0,23.5C0,23.776,0.224,24,0.5,24h14c0.276,0,0.5-0.224,0.5-0.5C15,20.16,12.804,17.325,9.781,16.358z"/>
	</g>
</g>
<g id="Invisible_Shape">
	<rect fill="none" width="24" height="24"/>
</g>
</svg>
