<?xml version="1.0" encoding="utf-8"?>
<!-- Generator: Adobe Illustrator 19.2.1, SVG Export Plug-In . SVG Version: 6.00 Build 0)  -->
<svg version="1.1" xmlns="http://www.w3.org/2000/svg" xmlns:xlink="http://www.w3.org/1999/xlink" x="0px" y="0px" width="24px"
	 height="24px" viewBox="0 0 24 24" enable-background="new 0 0 24 24" xml:space="preserve">
<g id="Filled_Icon">
	<g>
		<path d="M21.5,0h-19C2.224,0,2,0.224,2,0.5v23C2,23.776,2.224,24,2.5,24h19c0.276,0,0.5-0.224,0.5-0.5v-23
			C22,0.224,21.776,0,21.5,0z M20.854,22.146c0.195,0.195,0.195,0.512,0,0.707c-0.195,0.195-0.512,0.195-0.707,0L18.293,21H5.707
			l-1.853,1.854c-0.195,0.195-0.512,0.195-0.707,0c-0.195-0.195-0.195-0.512,0-0.707L5,20.293V3.707L3.147,1.854
			c-0.195-0.195-0.195-0.512,0-0.707c0.195-0.195,0.512-0.195,0.707,0L5.707,3h12.586l1.854-1.854c0.195-0.195,0.512-0.195,0.707,0
			c0.195,0.195,0.195,0.512,0,0.707L19,3.707v16.586L20.854,22.146z"/>
		<path d="M16.3,8.6C15.944,8.333,14.11,7,13,7s-2.944,1.333-3.3,1.6c-0.267,0.2-0.267,0.6,0,0.8C10.056,9.667,11.89,11,13,11
			s2.944-1.333,3.3-1.6C16.566,9.2,16.566,8.8,16.3,8.6z M13.5,9.878V9c0-0.276-0.224-0.5-0.5-0.5S12.5,8.724,12.5,9v0.878
			C12.023,9.702,11.406,9.354,10.871,9C11.623,8.502,12.55,8,13,8c0.449,0,1.376,0.503,2.129,1
			C14.594,9.354,13.977,9.702,13.5,9.878z"/>
		<g>
			<path d="M15.146,7.353c-0.195-0.195-0.195-0.512,0-0.707l1-1c0.195-0.195,0.512-0.195,0.707,0c0.195,0.195,0.195,0.512,0,0.707
				l-1,1C15.658,7.549,15.342,7.549,15.146,7.353z"/>
		</g>
		<g>
			<path d="M13.646,6.353c-0.195-0.195-0.195-0.512,0-0.707l0.5-0.5c0.195-0.195,0.512-0.195,0.707,0s0.195,0.512,0,0.707l-0.5,0.5
				C14.158,6.549,13.842,6.549,13.646,6.353z"/>
		</g>
		<g>
			<path d="M9.646,7.353l-1-1c-0.195-0.195-0.195-0.512,0-0.707s0.512-0.195,0.707,0l1,1c0.195,0.195,0.195,0.512,0,0.707
				S9.842,7.549,9.646,7.353z"/>
		</g>
		<g>
			<path d="M11.146,6.353l-0.5-0.5c-0.195-0.195-0.195-0.512,0-0.707s0.512-0.195,0.707,0l0.5,0.5c0.195,0.195,0.195,0.512,0,0.707
				S11.342,6.549,11.146,6.353z"/>
		</g>
		<g>
			<path d="M15.146,15.354c-0.195-0.195-0.195-0.512,0-0.707L15.793,14l-0.647-0.646c-0.195-0.195-0.195-0.512,0-0.707l1-1
				c0.195-0.195,0.512-0.195,0.707,0c0.195,0.195,0.195,0.512,0,0.707L16.207,13l0.646,0.646c0.195,0.195,0.195,0.512,0,0.707l-1,1
				C15.658,15.549,15.342,15.549,15.146,15.354z"/>
		</g>
		<g>
			<path d="M10.5,19c-0.276,0-0.5-0.224-0.5-0.5v-1c0-0.152,0.069-0.295,0.188-0.391L11.575,16H10.5c-0.276,0-0.5-0.224-0.5-0.5V14
				H7.5c-0.387,0-0.628-0.424-0.429-0.757l1.5-2.5c0.142-0.236,0.45-0.314,0.686-0.172c0.237,0.143,0.313,0.449,0.171,0.686
				L8.383,13H10.5c0.276,0,0.5,0.224,0.5,0.5V15h2c0.472,0,0.68,0.596,0.312,0.891L11,17.74v0.76C11,18.776,10.776,19,10.5,19z"/>
		</g>
	</g>
</g>
<g id="Invisible_Shape">
	<rect fill="none" width="24" height="24"/>
</g>
</svg>
