<?xml version="1.0" encoding="utf-8"?>
<!-- Generator: Adobe Illustrator 19.2.1, SVG Export Plug-In . SVG Version: 6.00 Build 0)  -->
<svg version="1.1" xmlns="http://www.w3.org/2000/svg" xmlns:xlink="http://www.w3.org/1999/xlink" x="0px" y="0px" width="24px"
	 height="24px" viewBox="0 0 24 24" enable-background="new 0 0 24 24" xml:space="preserve">
<g id="Filled_Icon">
	<g>
		<path d="M0,23.5C0,23.776,0.224,24,0.5,24H23.5c0.276,0,0.5-0.224,0.5-0.5V20H0V23.5z"/>
		<path d="M0.5,0C0.224,0,0,0.224,0,0.5V19h11v-3.5c0-0.276,0.224-0.5,0.5-0.5s0.5,0.224,0.5,0.5V19h12V0.5
			C24,0.224,23.776,0,23.5,0H0.5z M3.79,9.588c0.088-1.381,1.872-1.834,3.195-1.84c1.51,0,2.38,0.689,3.38,1.65
			c-0.829,0.908-1.884,1.809-3.118,1.809l-0.041-0.001C5.671,11.18,4.191,11.069,3.79,9.588z M10.732,13.976
			c-0.817,1.295-1.689,2.498-3.156,2.082c-1.128-0.798-0.603-2.54,0.084-3.686c0.814-1.355,1.988-1.721,3.164-2.034
			C11.176,11.529,11.397,12.923,10.732,13.976z M10.824,8.582c-1-0.269-2.296-0.593-3.163-2.035C6.97,5.397,6.448,3.645,7.577,2.86
			c1.447-0.421,2.335,0.78,3.156,2.081C11.4,5.999,11.173,7.4,10.824,8.582z M12.125,4.942c0.814-1.29,1.697-2.506,3.155-2.081
			c1.134,0.788,0.598,2.55-0.085,3.686c-0.838,1.395-2.074,1.743-3.163,2.035C11.682,7.39,11.46,5.994,12.125,4.942z M15.281,16.057
			c-1.462,0.415-2.325-0.766-3.155-2.08c-0.665-1.055-0.444-2.449-0.092-3.641c1,0.266,2.3,0.596,3.163,2.034
			C15.886,13.52,16.41,15.264,15.281,16.057z M15.873,11.169h-0.02c-1.485,0-2.359-0.688-3.359-1.648
			c0.829-0.91,1.887-1.811,3.118-1.811c1.541,0.028,3.054,0.125,3.457,1.619C18.98,10.703,17.212,11.163,15.873,11.169z"/>
	</g>
</g>
<g id="Invisible_Shape">
	<rect fill="none" width="24" height="24"/>
</g>
</svg>
