<?xml version="1.0" encoding="utf-8"?>
<!-- Generator: Adobe Illustrator 19.2.1, SVG Export Plug-In . SVG Version: 6.00 Build 0)  -->
<svg version="1.1" xmlns="http://www.w3.org/2000/svg" xmlns:xlink="http://www.w3.org/1999/xlink" x="0px" y="0px" width="24px"
	 height="24px" viewBox="0 0 24 24" enable-background="new 0 0 24 24" xml:space="preserve">
<g id="Filled_Icon">
	<path d="M20.5,0h-18C1.122,0,0,1.122,0,2.5v18C0,21.878,1.122,23,2.5,23h18c1.378,0,2.5-1.122,2.5-2.5v-18
		C23,1.122,21.878,0,20.5,0z M8,19.5C8,19.776,7.776,20,7.5,20h-4C3.224,20,3,19.776,3,19.5v-4C3,15.224,3.224,15,3.5,15h4
		C7.776,15,8,15.224,8,15.5V19.5z M8,13.5C8,13.776,7.776,14,7.5,14h-4C3.224,14,3,13.776,3,13.5v-4C3,9.224,3.224,9,3.5,9h4
		C7.776,9,8,9.224,8,9.5V13.5z M8,7.5C8,7.776,7.776,8,7.5,8h-4C3.224,8,3,7.776,3,7.5v-4C3,3.224,3.224,3,3.5,3h4
		C7.776,3,8,3.224,8,3.5V7.5z M14,13.5c0,0.276-0.224,0.5-0.5,0.5h-4C9.224,14,9,13.776,9,13.5v-4C9,9.224,9.224,9,9.5,9h4
		C13.776,9,14,9.224,14,9.5V13.5z M14,7.5C14,7.776,13.776,8,13.5,8h-4C9.224,8,9,7.776,9,7.5v-4C9,3.224,9.224,3,9.5,3h4
		C13.776,3,14,3.224,14,3.5V7.5z M20,13.5c0,0.276-0.224,0.5-0.5,0.5h-4c-0.276,0-0.5-0.224-0.5-0.5v-4C15,9.224,15.224,9,15.5,9h4
		C19.776,9,20,9.224,20,9.5V13.5z M20,7.5C20,7.776,19.776,8,19.5,8h-4C15.224,8,15,7.776,15,7.5v-4C15,3.224,15.224,3,15.5,3h4
		C19.776,3,20,3.224,20,3.5V7.5z"/>
</g>
<g id="Invisible_Shape">
	<rect fill="none" width="24" height="24"/>
</g>
</svg>
