<?xml version="1.0" encoding="utf-8"?>
<!-- Generator: Adobe Illustrator 19.2.1, SVG Export Plug-In . SVG Version: 6.00 Build 0)  -->
<svg version="1.1" xmlns="http://www.w3.org/2000/svg" xmlns:xlink="http://www.w3.org/1999/xlink" x="0px" y="0px" width="24px"
	 height="24px" viewBox="0 0 24 24" enable-background="new 0 0 24 24" xml:space="preserve">
<g id="Filled_Icon">
	<g>
		<path d="M19.5,4h-0.848C20.069,4.996,21,6.64,21,8.5v7c0,1.86-0.931,3.504-2.348,4.5H19.5c2.481,0,4.5-2.018,4.5-4.5v-7
			C24,6.019,21.981,4,19.5,4z"/>
		<path d="M15.5,4h-0.848C16.069,4.996,17,6.64,17,8.5v7c0,1.86-0.931,3.504-2.348,4.5H15.5c2.481,0,4.5-2.018,4.5-4.5v-7
			C20,6.019,17.981,4,15.5,4z"/>
		<path d="M11.5,4h-7C2.019,4,0,6.019,0,8.5v7C0,17.982,2.019,20,4.5,20h7c2.481,0,4.5-2.018,4.5-4.5v-7C16,6.019,13.981,4,11.5,4z
			 M12.02,17c-0.007,0-0.013,0-0.02,0H4c-0.276,0-0.5-0.224-0.5-0.5c0-1.84,1.112-3.42,2.697-4.117C5.475,11.835,5,10.975,5,10
			c0-1.654,1.346-3,3-3s3,1.346,3,3c0,0.976-0.476,1.836-1.2,2.385c1.543,0.678,2.639,2.19,2.697,3.967
			C12.598,16.672,12.358,17,12.02,17z"/>
	</g>
</g>
<g id="Invisible_Shape">
	<rect fill="none" width="24" height="24"/>
</g>
</svg>
