<?xml version="1.0" encoding="utf-8"?>
<!-- Generator: Adobe Illustrator 19.2.1, SVG Export Plug-In . SVG Version: 6.00 Build 0)  -->
<svg version="1.1" xmlns="http://www.w3.org/2000/svg" xmlns:xlink="http://www.w3.org/1999/xlink" x="0px" y="0px" width="24px"
	 height="24px" viewBox="0 0 24 24" enable-background="new 0 0 24 24" xml:space="preserve">
<g id="Filled_Icon">
	<g>
		<path d="M3.5,18H0v5.5C0,23.776,0.224,24,0.5,24h23c0.276,0,0.5-0.224,0.5-0.5V18h-2H3.5z"/>
		<path d="M0.5,0C0.224,0,0,0.224,0,0.5V17h3.168C3.689,15.802,5.535,12,8,12c2.007,0,3.668,1.664,4.445,2.602l2.638-4.522
			c0.864-1.481,3.049-1.435,3.828,0.124L22.309,17H24V0.5C24,0.224,23.776,0,23.5,0H0.5z M9.5,9h-3c-1.102,0-2-0.896-2-2
			c0-1.162,1.014-2.096,2.176-1.991C7.087,3.818,8.203,3,9.5,3c1.654,0,3,1.346,3,3S11.154,9,9.5,9z"/>
	</g>
</g>
<g id="Invisible_Shape">
	<rect fill="none" width="24" height="24"/>
</g>
</svg>
