<?xml version="1.0" encoding="utf-8"?>
<!-- Generator: Adobe Illustrator 19.2.1, SVG Export Plug-In . SVG Version: 6.00 Build 0)  -->
<svg version="1.1" xmlns="http://www.w3.org/2000/svg" xmlns:xlink="http://www.w3.org/1999/xlink" x="0px" y="0px" width="24px"
	 height="24px" viewBox="0 0 24 24" enable-background="new 0 0 24 24" xml:space="preserve">
<g id="Filled_Icon">
	<g>
		<path d="M2,13.5v-9C2,4.224,2.224,4,2.5,4h14C16.776,4,17,4.224,17,4.5V6h2V4c0-1.102-1.122-2-2.5-2h-14C1.122,2,0,3.122,0,4.5v9
			C0,14.879,0.897,16,2,16h2v-2H2.5C2.224,14,2,13.776,2,13.5z"/>
		<path d="M21.5,7h-14C6.122,7,5,8.122,5,9.5v9C5,19.879,6.122,21,7.5,21h14c1.378,0,2.5-1.121,2.5-2.5v-9C24,8.122,22.878,7,21.5,7
			z M22,18.5c0,0.276-0.224,0.5-0.5,0.5h-14C7.224,19,7,18.776,7,18.5v-9C7,9.224,7.224,9,7.5,9h14C21.776,9,22,9.224,22,9.5V18.5z"
			/>
	</g>
</g>
<g id="Invisible_Shape">
	<rect fill="none" width="24" height="24"/>
</g>
</svg>
