<?xml version="1.0" encoding="utf-8"?>
<!-- Generator: Adobe Illustrator 19.2.1, SVG Export Plug-In . SVG Version: 6.00 Build 0)  -->
<svg version="1.1" xmlns="http://www.w3.org/2000/svg" xmlns:xlink="http://www.w3.org/1999/xlink" x="0px" y="0px" width="24px"
	 height="24px" viewBox="0 0 24 24" enable-background="new 0 0 24 24" xml:space="preserve">
<g id="Filled_Icon">
	<g>
		<path d="M20,6.818V20H5.866l-0.162,1.062c-0.043,0.283,0.16,0.546,0.449,0.573l14.939,1.362c0.275,0.025,0.518-0.177,0.543-0.452
			l1.363-14.938c0.025-0.275-0.177-0.518-0.452-0.543C20.362,6.867,20.791,6.911,20,6.818z"/>
		<path d="M19,16c-3.906,0-14.104,0-18,0v2.5C1,18.776,1.224,19,1.5,19H18.5c0.276,0,0.5-0.224,0.5-0.5V16z"/>
		<path d="M7.071,10.243c0.18-0.303,0.599-0.32,0.812-0.064l1.99,2.389l2.171-4.775c0.175-0.388,0.752-0.395,0.92,0.021L15.838,15
			H19V1.5C19,1.224,18.776,1,18.5,1H1.5C1.224,1,1,1.224,1,1.5V15h3.217L7.071,10.243z M6,4c1.102,0,2,0.897,2,2
			c0,1.102-0.898,2-2,2C4.897,8,4,7.102,4,6C4,4.897,4.897,4,6,4z"/>
	</g>
</g>
<g id="Invisible_Shape">
	<rect fill="none" width="24" height="24"/>
</g>
</svg>
