<?xml version="1.0" encoding="utf-8"?>
<!-- Generator: Adobe Illustrator 19.2.1, SVG Export Plug-In . SVG Version: 6.00 Build 0)  -->
<svg version="1.1" xmlns="http://www.w3.org/2000/svg" xmlns:xlink="http://www.w3.org/1999/xlink" x="0px" y="0px" width="24px"
	 height="24px" viewBox="0 0 24 24" enable-background="new 0 0 24 24" xml:space="preserve">
<g id="Filled_Icon">
	<g>
		<path d="M4.865,14.428l-4.719,4.719C-0.167,19.46,0.055,20,0.5,20H4c0.133,0,0.26-0.053,0.353-0.146l1.182-1.182L4.865,14.428z"/>
		<path d="M20.994,2.422C20.956,2.179,20.746,2,20.5,2h-16C4.194,2,3.958,2.274,4.006,2.578l3,19C7.044,21.821,7.254,22,7.5,22h16
			c0.306,0,0.542-0.273,0.494-0.578L20.994,2.422z M20.658,20H9.394c-0.25,0-0.461-0.185-0.496-0.432l-2.053-15
			C6.805,4.268,7.039,4,7.342,4h11.264c0.25,0,0.461,0.186,0.496,0.432l2.053,15C21.194,19.73,20.963,20,20.658,20z"/>
		<g>
			<path d="M18.745,16.31l-2.258-5.483c-0.146-0.356-0.681-0.454-0.901-0.049l-1.615,2.961l-0.817-0.816
				c-0.244-0.245-0.65-0.172-0.801,0.129l-1.612,3.225C10.573,16.61,10.817,17,11.188,17h7.095C18.639,17,18.88,16.639,18.745,16.31
				z"/>
			<circle cx="12.155" cy="9.728" r="1.467"/>
		</g>
	</g>
</g>
<g id="Invisible_Shape">
	<rect fill="none" width="24" height="24"/>
</g>
</svg>
