<?xml version="1.0" encoding="utf-8"?>
<!-- Generator: Adobe Illustrator 19.2.1, SVG Export Plug-In . SVG Version: 6.00 Build 0)  -->
<svg version="1.1" xmlns="http://www.w3.org/2000/svg" xmlns:xlink="http://www.w3.org/1999/xlink" x="0px" y="0px" width="24px"
	 height="24px" viewBox="0 0 24 24" enable-background="new 0 0 24 24" xml:space="preserve">
<g id="Filled_Icon">
	<g>
		<path d="M18.184,5l-5.201-4.381c-0.188-0.16-0.463-0.158-0.65,0.004L7.312,5H0.5C0.224,5,0,5.224,0,5.499V23.5
			C0,23.776,0.224,24,0.5,24H23.5c0.276,0,0.5-0.224,0.5-0.5V5.499C24,5.224,23.776,5,23.5,5H18.184z M12.668,1.659L16.631,5H8.834
			L12.668,1.659z M23,23H1V6h22V23z"/>
		<path d="M7.523,18h2.955C9.902,16.79,9.367,14.961,9,13.607C8.633,14.961,8.098,16.79,7.523,18z"/>
		<path d="M8.5,10.213c0-0.659,1-0.662,1,0c0,4.759,3.947,10.633,4.758,11.787H16v-4.5c0-0.276,0.225-0.5,0.5-0.5H18v-2.5
			c0-0.276,0.225-0.5,0.5-0.5H22V7H2v15h1.742C4.553,20.845,8.5,14.967,8.5,10.213z"/>
		<path d="M7.029,19c-0.779,1.504-1.565,2.243-2.072,3h8.086c-0.508-0.757-1.293-1.496-2.07-3H7.029z"/>
		<rect x="17" y="18" width="1" height="4"/>
		<path d="M19,22h3v-7h-3C19,18.911,19,18.062,19,22z"/>
	</g>
</g>
<g id="Invisible_Shape">
	<rect fill="none" width="24" height="24"/>
</g>
</svg>
