<?xml version="1.0" encoding="utf-8"?>
<!-- Generator: Adobe Illustrator 19.2.1, SVG Export Plug-In . SVG Version: 6.00 Build 0)  -->
<svg version="1.1" xmlns="http://www.w3.org/2000/svg" xmlns:xlink="http://www.w3.org/1999/xlink" x="0px" y="0px" width="24px"
	 height="24px" viewBox="0 0 24 24" enable-background="new 0 0 24 24" xml:space="preserve">
<g id="Filled_Icon">
	<g>
		<path d="M1,2h22c0.552,0,1-0.448,1-1c0-0.552-0.448-1-1-1H1C0.448,0,0,0.448,0,1C0,1.552,0.448,2,1,2z"/>
		<path d="M23,22H1c-0.552,0-1,0.448-1,1c0,0.552,0.448,1,1,1h22c0.552,0,1-0.448,1-1C24,22.448,23.552,22,23,22z"/>
		<path d="M2,3C1.448,3,1,3.448,1,4v16c0,0.552,0.448,1,1,1h20c0.552,0,1-0.448,1-1V4c0-0.552-0.448-1-1-1H2z M6.358,19
			c-0.326,0-0.563-0.308-0.485-0.62c0.443-1.781,1.968-3.525,3.988-4.26c-1.178-0.724-1.973-2.013-1.973-3.495
			c0-2.267,1.844-4.11,4.111-4.11s4.111,1.844,4.111,4.11c0,1.481-0.794,2.771-1.973,3.494c2.019,0.736,3.546,2.48,3.99,4.261
			C18.207,18.691,17.97,19,17.644,19H6.358z"/>
	</g>
</g>
<g id="Invisible_Shape">
	<rect fill="none" width="24" height="24"/>
</g>
</svg>
