<?xml version="1.0" encoding="utf-8"?>
<!-- Generator: Adobe Illustrator 19.2.1, SVG Export Plug-In . SVG Version: 6.00 Build 0)  -->
<svg version="1.1" xmlns="http://www.w3.org/2000/svg" xmlns:xlink="http://www.w3.org/1999/xlink" x="0px" y="0px" width="24px"
	 height="24px" viewBox="0 0 24 24" enable-background="new 0 0 24 24" xml:space="preserve">
<g id="Filled_Icon">
	<g>
		<path d="M13.114,1.507C8.298,1.686,3.965,5.283,3.086,10.326l-1.254-1.88C1.525,7.985,0.905,7.86,0.445,8.168
			c-0.46,0.306-0.584,0.927-0.277,1.387l3,4.499c0.372,0.548,1.181,0.566,1.584,0.104l3.5-4c0.364-0.415,0.322-1.047-0.094-1.411
			C7.743,8.384,7.111,8.426,6.748,8.842L5.04,10.793c0.677-4.217,4.265-7.144,8.147-7.286c4.766-0.156,8.637,3.536,8.807,8.181
			c0.175,4.696-3.485,8.634-8.181,8.807c-0.552,0.021-0.983,0.484-0.963,1.037c0.02,0.539,0.463,0.963,0.999,0.963
			c0.012,0,0.025,0,0.037,0c5.799-0.214,10.322-5.079,10.107-10.879C23.782,5.896,18.999,1.303,13.114,1.507z"/>
		<g>
			<path d="M14,17c-1.654,0-3-1.346-3-3v-4c0-1.654,1.346-3,3-3s3,1.346,3,3v4C17,15.654,15.654,17,14,17z M14,9
				c-0.551,0-1,0.449-1,1v4c0,0.551,0.449,1,1,1s1-0.449,1-1v-4C15,9.449,14.551,9,14,9z"/>
		</g>
	</g>
</g>
<g id="Invisible_Shape">
	<rect fill="none" width="24" height="24"/>
</g>
</svg>
