<?xml version="1.0" encoding="utf-8"?>
<!-- Generator: Adobe Illustrator 19.2.1, SVG Export Plug-In . SVG Version: 6.00 Build 0)  -->
<svg version="1.1" xmlns="http://www.w3.org/2000/svg" xmlns:xlink="http://www.w3.org/1999/xlink" x="0px" y="0px" width="24px"
	 height="24px" viewBox="0 0 24 24" enable-background="new 0 0 24 24" xml:space="preserve">
<g id="Filled_Icon">
	<g>
		<path d="M11.198,13.31c0.33,0.443,0.956,0.535,1.399,0.205c0.443-0.33,0.535-0.956,0.206-1.399L5.207,1.903
			C4.877,1.46,4.251,1.367,3.808,1.698C3.364,2.027,3.273,2.654,3.602,3.097L11.198,13.31z"/>
		<path d="M15.316,2.749c-0.523-0.176-1.09,0.109-1.264,0.633c-0.174,0.524,0.109,1.09,0.633,1.264
			c3.478,1.157,5.814,4.398,5.814,8.066c0,4.687-3.813,8.5-8.5,8.5s-8.5-3.813-8.5-8.5c0-1.584,0.44-3.131,1.27-4.474
			c0.291-0.47,0.146-1.086-0.324-1.376C3.977,6.572,3.36,6.717,3.07,7.187c-1.027,1.659-1.57,3.57-1.57,5.526
			c0,5.789,4.71,10.5,10.5,10.5s10.5-4.711,10.5-10.5C22.5,8.182,19.613,4.178,15.316,2.749z"/>
		<circle cx="11.5" cy="3.213" r="1.5"/>
	</g>
</g>
<g id="Invisible_Shape">
	<rect fill="none" width="24" height="24"/>
</g>
</svg>
