<?xml version="1.0" encoding="utf-8"?>
<!-- Generator: Adobe Illustrator 16.0.3, SVG Export Plug-In . SVG Version: 6.00 Build 0)  -->
<!DOCTYPE svg PUBLIC "-//W3C//DTD SVG 1.1//EN" "http://www.w3.org/Graphics/SVG/1.1/DTD/svg11.dtd">
<svg version="1.1" xmlns="http://www.w3.org/2000/svg" xmlns:xlink="http://www.w3.org/1999/xlink" x="0px" y="0px" width="24px"
	 height="24px" viewBox="0 0 24 24" enable-background="new 0 0 24 24" xml:space="preserve">
<g id="Outline_Icons">
	<g>
		<g>
			<path fill="none" stroke="#000000" stroke-linejoin="round" stroke-miterlimit="10" d="M21.875,16.418l1.072-0.619l-1.5-2.598
				l-1.081,0.623c-0.53-0.486-1.164-0.847-1.866-1.07V11.5h-3v1.254c-0.702,0.224-1.336,0.584-1.866,1.07l-1.081-0.623l-1.5,2.598
				l1.072,0.619c-0.166,0.748-0.167,1.414,0,2.165l-1.07,0.618l1.5,2.598l1.079-0.623c0.53,0.485,1.164,0.848,1.866,1.07V23.5h3
				v-1.254c0.702-0.223,1.336-0.585,1.866-1.07l1.079,0.623l1.5-2.598l-1.07-0.618C22.042,17.832,22.041,17.166,21.875,16.418z"/>
			<circle fill="none" stroke="#000000" stroke-linejoin="round" stroke-miterlimit="10" cx="17" cy="17.5" r="2"/>
		</g>
		<path fill="none" stroke="#000000" stroke-linecap="round" stroke-linejoin="round" stroke-miterlimit="10" d="M9.5,21.5h-7
			c-1.1,0-2-0.898-2-2v-16h4"/>
		<polyline fill="none" stroke="#000000" stroke-linecap="round" stroke-linejoin="round" stroke-miterlimit="10" points="8.5,19.5 
			2.5,19.5 2.5,5.5 4.5,5.5 		"/>
		<polyline fill="none" stroke="#000000" stroke-linecap="round" stroke-linejoin="round" stroke-miterlimit="10" points="16.5,9.5 
			16.5,3.5 12.5,3.5 		"/>
		<g>
			<path fill="none" stroke="#000000" stroke-linecap="round" stroke-linejoin="round" stroke-miterlimit="10" d="M10.5,2.5
				c0-0.828-0.5-2-2-2s-2,1.172-2,2h-2v4h8v-4H10.5z"/>
		</g>
		<polyline fill="none" stroke="#000000" stroke-linecap="round" stroke-linejoin="round" stroke-miterlimit="10" points="12.5,5.5 
			14.5,5.5 14.5,9.5 		"/>
		
			<line fill="none" stroke="#000000" stroke-linecap="round" stroke-linejoin="round" stroke-miterlimit="10" x1="5.5" y1="9.5" x2="10.5" y2="9.5"/>
		
			<line fill="none" stroke="#000000" stroke-linecap="round" stroke-linejoin="round" stroke-miterlimit="10" x1="5.5" y1="11.5" x2="10.5" y2="11.5"/>
		
			<line fill="none" stroke="#000000" stroke-linecap="round" stroke-linejoin="round" stroke-miterlimit="10" x1="5.5" y1="13.5" x2="10.5" y2="13.5"/>
		
			<line fill="none" stroke="#000000" stroke-linecap="round" stroke-linejoin="round" stroke-miterlimit="10" x1="5.5" y1="15.5" x2="8.5" y2="15.5"/>
	</g>
</g>
<g id="Invisible_Shape">
	<rect fill="none" width="24" height="24"/>
</g>
</svg>
