<?xml version="1.0" encoding="utf-8"?>
<!-- Generator: Adobe Illustrator 19.2.1, SVG Export Plug-In . SVG Version: 6.00 Build 0)  -->
<svg version="1.1" xmlns="http://www.w3.org/2000/svg" xmlns:xlink="http://www.w3.org/1999/xlink" x="0px" y="0px" width="24px"
	 height="24px" viewBox="0 0 24 24" enable-background="new 0 0 24 24" xml:space="preserve">
<g id="Filled_Icons_1_">
	<g id="Filled_Icons">
		<g>
			<path d="M22.5,4h-16C6.224,4,6,4.224,6,4.5v3C6,7.776,6.224,8,6.5,8h16C22.776,8,23,7.776,23,7.5v-3C23,4.224,22.776,4,22.5,4z"
				/>
			<path d="M19.5,10h-16C3.224,10,3,10.224,3,10.5v3C3,13.776,3.224,14,3.5,14h16c0.276,0,0.5-0.224,0.5-0.5v-3
				C20,10.224,19.776,10,19.5,10z"/>
			<path d="M16.5,16h-16C0.224,16,0,16.224,0,16.5v3C0,19.776,0.224,20,0.5,20h16c0.276,0,0.5-0.224,0.5-0.5v-3
				C17,16.224,16.776,16,16.5,16z"/>
		</g>
	</g>
	<g id="New_icons">
	</g>
</g>
<g id="Invisible_Shape">
	<rect fill="none" width="24" height="24"/>
</g>
</svg>
