<?xml version="1.0" encoding="utf-8"?>
<!-- Generator: Adobe Illustrator 19.2.1, SVG Export Plug-In . SVG Version: 6.00 Build 0)  -->
<svg version="1.1" xmlns="http://www.w3.org/2000/svg" xmlns:xlink="http://www.w3.org/1999/xlink" x="0px" y="0px" width="24px"
	 height="24px" viewBox="0 0 24 24" enable-background="new 0 0 24 24" xml:space="preserve">
<g id="Filled_Icons_1_">
	<g id="Filled_Icons">
		<g>
			<path d="M3.5,22C2.672,22,2,21.329,2,20.5V4H0.5C0.224,4,0,4.224,0,4.5v19C0,23.776,0.224,24,0.5,24h19
				c0.276,0,0.5-0.224,0.5-0.5V22H3.5z"/>
			<path d="M23.5,0h-20C3.224,0,3,0.224,3,0.5v20C3,20.776,3.224,21,3.5,21h20c0.276,0,0.5-0.224,0.5-0.5v-20
				C24,0.224,23.776,0,23.5,0z M13,17H7c-0.276,0-0.5-0.224-0.5-0.5S6.724,16,7,16h6c0.276,0,0.5,0.224,0.5,0.5S13.276,17,13,17z
				 M20,15H7c-0.276,0-0.5-0.224-0.5-0.5S6.724,14,7,14h13c0.276,0,0.5,0.224,0.5,0.5S20.276,15,20,15z M20,13H7
				c-0.276,0-0.5-0.224-0.5-0.5S6.724,12,7,12h13c0.276,0,0.5,0.224,0.5,0.5S20.276,13,20,13z M20,11H7c-0.276,0-0.5-0.224-0.5-0.5
				S6.724,10,7,10h13c0.276,0,0.5,0.224,0.5,0.5S20.276,11,20,11z M20,9H7C6.724,9,6.5,8.776,6.5,8.5S6.724,8,7,8h13
				c0.276,0,0.5,0.224,0.5,0.5S20.276,9,20,9z M20,7H7C6.724,7,6.5,6.776,6.5,6.5S6.724,6,7,6h13c0.276,0,0.5,0.224,0.5,0.5
				S20.276,7,20,7z M20,5H7C6.724,5,6.5,4.776,6.5,4.5S6.724,4,7,4h13c0.276,0,0.5,0.224,0.5,0.5S20.276,5,20,5z"/>
		</g>
	</g>
	<g id="New_icons">
	</g>
</g>
<g id="Invisible_Shape">
	<rect fill="none" width="24" height="24"/>
</g>
</svg>
