<?xml version="1.0" encoding="utf-8"?>
<!-- Generator: Adobe Illustrator 19.2.1, SVG Export Plug-In . SVG Version: 6.00 Build 0)  -->
<svg version="1.1" xmlns="http://www.w3.org/2000/svg" xmlns:xlink="http://www.w3.org/1999/xlink" x="0px" y="0px" width="24px"
	 height="24px" viewBox="0 0 24 24" enable-background="new 0 0 24 24" xml:space="preserve">
<g id="Filled_Icons_1_">
	<g id="Filled_Icons">
		<g>
			<g>
				<path d="M3.5,22C2.672,22,2,21.329,2,20.5V4H0.5C0.224,4,0,4.224,0,4.5v19C0,23.776,0.224,24,0.5,24h19
					c0.276,0,0.5-0.224,0.5-0.5V22H3.5z"/>
			</g>
			<path d="M23.5,0h-20C3.224,0,3,0.224,3,0.5v20C3,20.776,3.224,21,3.5,21h20c0.276,0,0.5-0.224,0.5-0.5v-20
				C24,0.224,23.776,0,23.5,0z M15.826,15c0.276,0,0.5,0.224,0.5,0.5s-0.224,0.5-0.5,0.5h-4.68c-0.403,0-0.64-0.456-0.41-0.786
				l4.256-6.191c0.932-1.346-0.074-2.918-1.481-2.918c-0.988,0-1.795,0.772-1.836,1.756c-0.012,0.276-0.222,0.486-0.522,0.478
				c-0.275-0.011-0.49-0.245-0.478-0.52c0.065-1.522,1.311-2.714,2.836-2.714c2.207,0,3.695,2.477,2.302,4.489L12.106,15H15.826z"/>
		</g>
	</g>
	<g id="New_icons">
	</g>
</g>
<g id="Invisible_Shape">
	<rect fill="none" width="24" height="24"/>
</g>
</svg>
