<?xml version="1.0" encoding="utf-8"?>
<!-- Generator: Adobe Illustrator 19.2.1, SVG Export Plug-In . SVG Version: 6.00 Build 0)  -->
<svg version="1.1" xmlns="http://www.w3.org/2000/svg" xmlns:xlink="http://www.w3.org/1999/xlink" x="0px" y="0px" width="24px"
	 height="24px" viewBox="0 0 24 24" enable-background="new 0 0 24 24" xml:space="preserve">
<g id="Filled_Icons_1_">
	<g id="Filled_Icons">
		<g>
			<path d="M3.5,22C2.672,22,2,21.329,2,20.5V4H0.5C0.224,4,0,4.224,0,4.5v19C0,23.776,0.224,24,0.5,24h19
				c0.276,0,0.5-0.224,0.5-0.5V22H3.5z"/>
			<path d="M23.5,0h-20C3.224,0,3,0.224,3,0.5v20C3,20.776,3.224,21,3.5,21h20c0.276,0,0.5-0.224,0.5-0.5v-20
				C24,0.224,23.776,0,23.5,0z M16.757,11.667l-0.434,1.137c-0.1,0.26-0.39,0.387-0.646,0.289c-0.258-0.099-0.387-0.387-0.288-0.646
				l0.43-1.125C17.356,6.969,15.592,6.347,14,5.116v9.634c0.021,1.465-1.265,2.75-2.729,2.75c-1.517,0-2.75-1.233-2.75-2.75
				c0-1.516,1.233-2.75,2.75-2.75H13V2.5C13,2.224,13.224,2,13.5,2S14,2.224,14,2.5l0.021,0.672
				C14.021,5.341,19.179,4.818,16.757,11.667z"/>
		</g>
	</g>
	<g id="New_icons">
	</g>
</g>
<g id="Invisible_Shape">
	<rect fill="none" width="24" height="24"/>
</g>
</svg>
