<?xml version="1.0" encoding="utf-8"?>
<!-- Generator: Adobe Illustrator 19.2.1, SVG Export Plug-In . SVG Version: 6.00 Build 0)  -->
<svg version="1.1" xmlns="http://www.w3.org/2000/svg" xmlns:xlink="http://www.w3.org/1999/xlink" x="0px" y="0px" width="24px"
	 height="24px" viewBox="0 0 24 24" enable-background="new 0 0 24 24" xml:space="preserve">
<g id="Filled_Icons_1_">
	<g id="Filled_Icons">
		<g>
			<g>
				<path d="M3.5,22C2.672,22,2,21.329,2,20.5V4H0.5C0.224,4,0,4.224,0,4.5v19C0,23.776,0.224,24,0.5,24h19
					c0.276,0,0.5-0.224,0.5-0.5V22H3.5z"/>
			</g>
			<path d="M23.5,0h-20C3.224,0,3,0.224,3,0.5v20C3,20.776,3.224,21,3.5,21h20c0.276,0,0.5-0.224,0.5-0.5v-20
				C24,0.224,23.776,0,23.5,0z M16.339,12.998c0,1.451-0.746,3.002-2.84,3.002c-1.695,0-2.756-1.053-2.837-2.818
				c-0.013-0.275,0.2-0.51,0.476-0.522c0.279-0.018,0.511,0.201,0.523,0.476C11.7,13.986,12.051,15,13.499,15
				c1.601,0,1.84-1.254,1.84-2.002c0-0.747-0.239-2-1.84-2c-0.661,0-0.661-1,0-1c1.601,0,1.84-1.253,1.84-2.001
				C15.339,7.252,15.1,6,13.499,6C12.051,6,11.7,7.013,11.66,7.863c-0.012,0.276-0.24,0.491-0.523,0.477
				c-0.275-0.013-0.488-0.247-0.476-0.522C10.743,6.053,11.804,5,13.499,5c2.094,0,2.84,1.548,2.84,2.998
				c0,0.947-0.327,1.928-1.13,2.501C16.012,11.071,16.339,12.052,16.339,12.998z"/>
		</g>
	</g>
	<g id="New_icons">
	</g>
</g>
<g id="Invisible_Shape">
	<rect fill="none" width="24" height="24"/>
</g>
</svg>
