<?xml version="1.0" encoding="utf-8"?>
<!-- Generator: Adobe Illustrator 19.2.1, SVG Export Plug-In . SVG Version: 6.00 Build 0)  -->
<svg version="1.1" xmlns="http://www.w3.org/2000/svg" xmlns:xlink="http://www.w3.org/1999/xlink" x="0px" y="0px" width="24px"
	 height="24px" viewBox="0 0 24 24" enable-background="new 0 0 24 24" xml:space="preserve">
<g id="Filled_Icons_1_">
	<g id="Filled_Icons">
		<g>
			<g>
				<path d="M3.5,22C2.672,22,2,21.329,2,20.5V4H0.5C0.224,4,0,4.224,0,4.5v19C0,23.776,0.224,24,0.5,24h19
					c0.276,0,0.5-0.224,0.5-0.5V22H3.5z"/>
			</g>
			<g>
				<path d="M23.5,0h-20C3.224,0,3,0.224,3,0.5v20C3,20.776,3.224,21,3.5,21h20c0.276,0,0.5-0.224,0.5-0.5v-20
					C24,0.224,23.776,0,23.5,0z M13.5,15.841c-2.212,0-3-1.721-3-3.331V9.836c0-2.261,1.102-4.678,4.191-4.678
					c0.276,0,0.5,0.224,0.5,0.5c0,0.277-0.224,0.5-0.5,0.5c-2.881,0-3.191,2.572-3.191,3.678v0.057c0.47-0.433,1.117-0.713,2-0.713
					c2.212,0,3,1.72,3,3.33C16.5,14.12,15.712,15.841,13.5,15.841z"/>
				<path d="M13.5,10.18c-1.74,0-2,1.459-2,2.33c0,0.871,0.26,2.331,2,2.331s2-1.46,2-2.331C15.5,11.64,15.24,10.18,13.5,10.18z"/>
			</g>
		</g>
	</g>
	<g id="New_icons">
	</g>
</g>
<g id="Invisible_Shape">
	<rect fill="none" width="24" height="24"/>
</g>
</svg>
