<?xml version="1.0" encoding="utf-8"?>
<!-- Generator: Adobe Illustrator 19.2.1, SVG Export Plug-In . SVG Version: 6.00 Build 0)  -->
<svg version="1.1" xmlns="http://www.w3.org/2000/svg" xmlns:xlink="http://www.w3.org/1999/xlink" x="0px" y="0px" width="24px"
	 height="24px" viewBox="0 0 24 24" enable-background="new 0 0 24 24" xml:space="preserve">
<g id="Filled_Icons_1_">
	<g id="Filled_Icons">
		<g>
			<path d="M3.5,22C2.672,22,2,21.329,2,20.5V4H0.5C0.224,4,0,4.224,0,4.5v19C0,23.776,0.224,24,0.5,24h19
				c0.276,0,0.5-0.224,0.5-0.5V22H3.5z"/>
			<path d="M23.5,0h-20C3.224,0,3,0.224,3,0.5v20C3,20.776,3.224,21,3.5,21h20c0.276,0,0.5-0.224,0.5-0.5v-20
				C24,0.224,23.776,0,23.5,0z M20,16.5c0,0.827-0.673,1.5-1.5,1.5h-10C7.673,18,7,17.327,7,16.5v-4C7,12.224,7.224,12,7.5,12h12
				c0.276,0,0.5,0.224,0.5,0.5V16.5z M19.5,11h-12C7.224,11,7,10.776,7,10.5c0-2.018,0.925-3.825,2.374-5.018l-1.538-1.64
				C7.648,3.641,7.658,3.324,7.859,3.135c0.201-0.188,0.517-0.179,0.707,0.023l1.639,1.748C11.173,4.334,12.297,4,13.5,4
				c1.24,0,2.396,0.356,3.383,0.96l1.69-1.802c0.19-0.203,0.506-0.211,0.707-0.023c0.201,0.189,0.212,0.506,0.023,0.707
				l-1.601,1.708C19.105,6.743,20,8.518,20,10.5C20,10.776,19.776,11,19.5,11z"/>
			<g>
				<circle cx="11.5" cy="7.5" r="0.5"/>
			</g>
			<g>
				<circle cx="15.5" cy="7.5" r="0.5"/>
			</g>
		</g>
	</g>
	<g id="New_icons">
	</g>
</g>
<g id="Invisible_Shape">
	<rect fill="none" width="24" height="24"/>
</g>
</svg>
