<?xml version="1.0" encoding="utf-8"?>
<!-- Generator: Adobe Illustrator 19.2.1, SVG Export Plug-In . SVG Version: 6.00 Build 0)  -->
<svg version="1.1" xmlns="http://www.w3.org/2000/svg" xmlns:xlink="http://www.w3.org/1999/xlink" x="0px" y="0px" width="24px"
	 height="24px" viewBox="0 0 24 24" enable-background="new 0 0 24 24" xml:space="preserve">
<g id="Filled_Icons_1_">
	<g id="Filled_Icons">
		<g>
			<path d="M3.5,22C2.672,22,2,21.329,2,20.5V4H0.5C0.224,4,0,4.224,0,4.5v19C0,23.776,0.224,24,0.5,24h19
				c0.276,0,0.5-0.224,0.5-0.5V22H3.5z"/>
			<g>
				<rect x="11" y="9" width="5" height="3"/>
				<rect x="11" y="5" width="5" height="3"/>
				<path d="M23.5,0h-20C3.224,0,3,0.224,3,0.5v20C3,20.776,3.224,21,3.5,21h20c0.276,0,0.5-0.224,0.5-0.5v-20
					C24,0.224,23.776,0,23.5,0z M7,17.5C7,17.776,6.776,18,6.5,18S6,17.776,6,17.5v-14C6,3.224,6.224,3,6.5,3S7,3.224,7,3.5V17.5z
					 M9,17H8v-1h1V17z M9,15H8v-1h1V15z M9,13H8v-1h1V13z M9,11H8v-1h1V11z M9,9H8V8h1V9z M9,7H8V6h1V7z M9,5H8V4h1V5z M17,17.5
					c0,0.276-0.224,0.5-0.5,0.5S16,17.776,16,17.5V17h-5v0.5c0,0.276-0.224,0.5-0.5,0.5S10,17.776,10,17.5v-14
					C10,3.224,10.224,3,10.5,3S11,3.224,11,3.5V4h5V3.5C16,3.224,16.224,3,16.5,3S17,3.224,17,3.5V17.5z M19,17h-1v-1h1V17z M19,15
					h-1v-1h1V15z M19,13h-1v-1h1V13z M19,11h-1v-1h1V11z M19,9h-1V8h1V9z M19,7h-1V6h1V7z M19,5h-1V4h1V5z M21,17.5
					c0,0.276-0.224,0.5-0.5,0.5S20,17.776,20,17.5v-14C20,3.224,20.224,3,20.5,3S21,3.224,21,3.5V17.5z"/>
				<rect x="11" y="13" width="5" height="3"/>
			</g>
		</g>
	</g>
	<g id="New_icons">
	</g>
</g>
<g id="Invisible_Shape">
	<rect fill="none" width="24" height="24"/>
</g>
</svg>
