<?xml version="1.0" encoding="utf-8"?>
<!-- Generator: Adobe Illustrator 19.2.1, SVG Export Plug-In . SVG Version: 6.00 Build 0)  -->
<svg version="1.1" xmlns="http://www.w3.org/2000/svg" xmlns:xlink="http://www.w3.org/1999/xlink" x="0px" y="0px" width="24px"
	 height="24px" viewBox="0 0 24 24" enable-background="new 0 0 24 24" xml:space="preserve">
<g id="Filled_Icons_1_">
	<g id="Filled_Icons">
		<g>
			<g>
				<path d="M3.5,22C2.672,22,2,21.329,2,20.5V4H0.5C0.224,4,0,4.224,0,4.5v19C0,23.776,0.224,24,0.5,24h19
					c0.276,0,0.5-0.224,0.5-0.5V22H3.5z"/>
			</g>
			<g>
				<path d="M23.5,0h-20C3.224,0,3,0.224,3,0.5v20C3,20.776,3.224,21,3.5,21h20c0.276,0,0.5-0.224,0.5-0.5v-20
					C24,0.224,23.776,0,23.5,0z M16.498,11.163c0,2.262-1.1,4.678-4.189,4.678c-0.276,0-0.5-0.224-0.5-0.5s0.224-0.5,0.5-0.5
					c2.879,0,3.189-2.572,3.189-3.678v-0.056c-0.469,0.431-1.116,0.711-1.998,0.711c-2.211,0-2.998-1.72-2.998-3.33
					c0-1.61,0.787-3.331,2.998-3.331s2.998,1.721,2.998,3.331V11.163z"/>
				<path d="M13.5,6.159c-1.738,0-1.998,1.46-1.998,2.331c0,0.87,0.26,2.33,1.998,2.33s1.998-1.459,1.998-2.33
					C15.498,7.619,15.238,6.159,13.5,6.159z"/>
			</g>
		</g>
	</g>
	<g id="New_icons">
	</g>
</g>
<g id="Invisible_Shape">
	<rect fill="none" width="24" height="24"/>
</g>
</svg>
