<?xml version="1.0" encoding="utf-8"?>
<!-- Generator: Adobe Illustrator 19.2.1, SVG Export Plug-In . SVG Version: 6.00 Build 0)  -->
<svg version="1.1" xmlns="http://www.w3.org/2000/svg" xmlns:xlink="http://www.w3.org/1999/xlink" x="0px" y="0px" width="24px"
	 height="24px" viewBox="0 0 24 24" enable-background="new 0 0 24 24" xml:space="preserve">
<g id="Filled_Icons_1_">
	<g id="Filled_Icons">
		<g>
			<path d="M3.5,22C2.672,22,2,21.329,2,20.5V4H0.5C0.224,4,0,4.224,0,4.5v19C0,23.776,0.224,24,0.5,24h19
				c0.276,0,0.5-0.224,0.5-0.5V22H3.5z"/>
			<g>
				<path d="M23.5,0h-20C3.224,0,3,0.224,3,0.5v20C3,20.776,3.224,21,3.5,21h20c0.276,0,0.5-0.224,0.5-0.5v-20
					C24,0.224,23.776,0,23.5,0z M11,15.184c0,0.276-0.224,0.5-0.5,0.5s-0.5-0.224-0.5-0.5V6.772L9.698,7.059
					c-0.199,0.19-0.516,0.185-0.707-0.017c-0.19-0.2-0.183-0.517,0.018-0.707l1.147-1.091c0.144-0.139,0.358-0.177,0.542-0.097
					C10.881,5.224,11,5.405,11,5.605V15.184z M16.498,15.788c-2.998,0-2.998-3.643-2.998-5.394C13.5,8.643,13.5,5,16.498,5
					c2.998,0,2.998,3.643,2.998,5.394C19.496,12.144,19.496,15.788,16.498,15.788z"/>
				<path d="M16.498,6C15.061,6,14.5,7.232,14.5,10.394c0,3.162,0.561,4.394,1.998,4.394s1.998-1.232,1.998-4.394
					C18.496,7.232,17.935,6,16.498,6z"/>
			</g>
		</g>
	</g>
	<g id="New_icons">
	</g>
</g>
<g id="Invisible_Shape">
	<rect fill="none" width="24" height="24"/>
</g>
</svg>
