<?xml version="1.0" encoding="utf-8"?>
<!-- Generator: Adobe Illustrator 19.2.1, SVG Export Plug-In . SVG Version: 6.00 Build 0)  -->
<svg version="1.1" xmlns="http://www.w3.org/2000/svg" xmlns:xlink="http://www.w3.org/1999/xlink" x="0px" y="0px" width="24px"
	 height="24px" viewBox="0 0 24 24" enable-background="new 0 0 24 24" xml:space="preserve">
<g id="Filled_Icons_1_">
	<g id="Filled_Icons">
		<g>
			<path d="M3.414,11H11.5c1.654,0,3,1.346,3,3v2c0,0.552,0.447,1,1,1s1-0.448,1-1v-2c0-2.757-2.243-5-5-5H3.414l2.293-2.293
				c0.391-0.39,0.391-1.023,0-1.413c-0.391-0.391-1.023-0.391-1.414,0L0.294,9.292c-0.39,0.389-0.39,1.027,0,1.415l3.999,3.999
				c0.391,0.392,1.023,0.392,1.414,0c0.391-0.39,0.391-1.023,0-1.413L3.414,11z"/>
			<path d="M23,4H9C8.447,4,8,4.448,8,5v2c0,0.552,0.447,1,1,1s1-0.448,1-1V6h12v12H10v-5c0-0.552-0.447-1-1-1s-1,0.448-1,1v6
				c0,0.552,0.447,1,1,1h14c0.553,0,1-0.448,1-1V5C24,4.448,23.553,4,23,4z"/>
		</g>
	</g>
	<g id="New_icons">
	</g>
</g>
<g id="Invisible_Shape">
	<rect fill="none" width="24" height="24"/>
</g>
</svg>
