<?xml version="1.0" encoding="utf-8"?>
<!-- Generator: Adobe Illustrator 19.2.1, SVG Export Plug-In . SVG Version: 6.00 Build 0)  -->
<svg version="1.1" xmlns="http://www.w3.org/2000/svg" xmlns:xlink="http://www.w3.org/1999/xlink" x="0px" y="0px" width="24px"
	 height="24px" viewBox="0 0 24 24" enable-background="new 0 0 24 24" xml:space="preserve">
<g id="Filled_Icons_1_">
	<g id="Filled_Icons">
		<path d="M12.282,23.895L23.8,14.917c0.371-0.289,0.172-0.893-0.307-0.894l-3.501-0.007V6.486c0-0.133-0.052-0.26-0.146-0.353
			L13.874,0.15c-0.094-0.093-0.221-0.146-0.353-0.147L4.493-0.014c-0.254-0.002-0.492,0.19-0.492,0.5V14h-3.5
			c-0.473,0-0.684,0.6-0.309,0.894l11.475,9C11.847,24.035,12.101,24.035,12.282,23.895z M13.001,7V1l6,6H13.001z"/>
	</g>
	<g id="New_icons">
	</g>
</g>
<g id="Invisible_Shape">
	<rect fill="none" width="24" height="24"/>
</g>
</svg>
