<?xml version="1.0" encoding="utf-8"?>
<!-- Generator: Adobe Illustrator 19.2.1, SVG Export Plug-In . SVG Version: 6.00 Build 0)  -->
<svg version="1.1" xmlns="http://www.w3.org/2000/svg" xmlns:xlink="http://www.w3.org/1999/xlink" x="0px" y="0px" width="24px"
	 height="24px" viewBox="0 0 24 24" enable-background="new 0 0 24 24" xml:space="preserve">
<g id="Filled_Icons_1_">
	<g id="Filled_Icons">
		<g>
			<path d="M12,0.5v3.82l5.61,6.171c0.521,0.573,0.521,1.445,0,2.018L12,18.68v3.82c0,0.456,0.562,0.674,0.871,0.336l10-11
				c0.172-0.189,0.172-0.482,0-0.672l-10-11C12.562-0.175,12,0.046,12,0.5z"/>
			<path d="M6,0.5v3.82l5.61,6.171c0.521,0.573,0.521,1.445,0,2.018L6,18.68v3.82c0,0.456,0.562,0.674,0.871,0.336l10-11
				c0.172-0.189,0.172-0.482,0-0.672l-10-11C6.562-0.175,6,0.046,6,0.5z"/>
			<path d="M0.871,22.836l10-11c0.172-0.189,0.172-0.482,0-0.672l-10-11C0.562-0.175,0,0.046,0,0.5v22
				C0,22.956,0.562,23.174,0.871,22.836z"/>
		</g>
	</g>
	<g id="New_icons">
	</g>
</g>
<g id="Invisible_Shape">
	<rect fill="none" width="24" height="24"/>
</g>
</svg>
