<?xml version="1.0" encoding="utf-8"?>
<!-- Generator: Adobe Illustrator 19.2.1, SVG Export Plug-In . SVG Version: 6.00 Build 0)  -->
<svg version="1.1" xmlns="http://www.w3.org/2000/svg" xmlns:xlink="http://www.w3.org/1999/xlink" x="0px" y="0px" width="24px"
	 height="24px" viewBox="0 0 24 24" enable-background="new 0 0 24 24" xml:space="preserve">
<g id="Filled_Icons_1_">
	<g id="Filled_Icons">
		<g>
			<path d="M11.999,0C5.394,0,0.012,5.373,0,11.977C-0.014,18.61,5.345,23.986,11.977,24H12c6.604,0,11.986-5.373,12-11.977
				C24.012,5.414,18.688,0.013,11.999,0z M12,22h-0.019l0,0C6.451,21.989,1.988,17.508,2,11.981C2.01,6.477,6.496,2,12.019,2
				C17.533,2.011,22.01,6.505,22,12.019C21.989,17.522,17.503,22,12,22z"/>
			<path d="M18.708,10.304L15.716,7.3c-0.39-0.391-1.022-0.392-1.414-0.003c-0.392,0.39-0.393,1.023-0.003,1.414l1.292,1.298
				L8.502,10c-0.004,0-0.007,0-0.01,0c-2.127,0-3.385,1.394-3.39,3.567C5.1,15.11,5.916,17.989,7.488,17.991h0.001
				c1.134,0,1.387-1.595,0.314-1.951c-0.364-0.448-0.987-2.233-0.563-3.337C7.373,12.356,7.627,12,8.492,12c0.002,0,0.004,0,0.006,0
				h7.086l-1.294,1.297c-0.392,0.39-0.392,1.023-0.003,1.414c0.389,0.391,1.019,0.395,1.414,0.003l3.006-2.995h0.001
				C19.111,11.308,19.084,10.68,18.708,10.304z"/>
		</g>
	</g>
	<g id="New_icons">
	</g>
</g>
<g id="Invisible_Shape">
	<rect fill="none" width="24" height="24"/>
</g>
</svg>
