<?xml version="1.0" encoding="utf-8"?>
<!-- Generator: Adobe Illustrator 19.2.1, SVG Export Plug-In . SVG Version: 6.00 Build 0)  -->
<svg version="1.1" xmlns="http://www.w3.org/2000/svg" xmlns:xlink="http://www.w3.org/1999/xlink" x="0px" y="0px" width="24px"
	 height="24px" viewBox="0 0 24 24" enable-background="new 0 0 24 24" xml:space="preserve">
<g id="Filled_Icons_1_">
	<g id="Filled_Icons">
		<path d="M23.895,11.718L14.917,0.2c-0.289-0.37-0.893-0.171-0.894,0.307l-0.007,3.501H6.486c-0.133,0-0.26,0.052-0.353,0.145
			L0.15,10.127c-0.094,0.094-0.146,0.221-0.147,0.352l-0.017,9.027C-0.016,19.761,0.177,20,0.486,20H14v3.5
			c0,0.472,0.6,0.683,0.893,0.308l9.001-11.474C24.035,12.153,24.035,11.899,23.895,11.718z M7,11H1l6-6V11z"/>
	</g>
	<g id="New_icons">
	</g>
</g>
<g id="Invisible_Shape">
	<rect fill="none" width="24" height="24"/>
</g>
</svg>
