<?xml version="1.0" encoding="utf-8"?>
<!-- Generator: Adobe Illustrator 19.2.1, SVG Export Plug-In . SVG Version: 6.00 Build 0)  -->
<svg version="1.1" xmlns="http://www.w3.org/2000/svg" xmlns:xlink="http://www.w3.org/1999/xlink" x="0px" y="0px" width="24px"
	 height="24px" viewBox="0 0 24 24" enable-background="new 0 0 24 24" xml:space="preserve">
<g id="Filled_Icons_1_">
	<g id="Filled_Icons">
		<path d="M11.718,0.106L0.2,9.083c-0.371,0.29-0.172,0.893,0.307,0.895l3.501,0.007v7.529c0,0.133,0.052,0.26,0.145,0.354
			l5.973,5.982c0.094,0.094,0.221,0.146,0.353,0.148l9.027,0.016c0.254,0.002,0.492-0.191,0.492-0.5V10h3.5
			c0.473,0,0.684-0.6,0.309-0.893L12.333,0.106C12.153-0.035,11.899-0.035,11.718,0.106z M10.999,17v6l-6-6H10.999z"/>
	</g>
	<g id="New_icons">
	</g>
</g>
<g id="Invisible_Shape">
	<rect fill="none" width="24" height="24"/>
</g>
</svg>
