<?xml version="1.0" encoding="utf-8"?>
<!-- Generator: Adobe Illustrator 19.2.1, SVG Export Plug-In . SVG Version: 6.00 Build 0)  -->
<svg version="1.1" xmlns="http://www.w3.org/2000/svg" xmlns:xlink="http://www.w3.org/1999/xlink" x="0px" y="0px" width="24px"
	 height="24px" viewBox="0 0 24 24" enable-background="new 0 0 24 24" xml:space="preserve">
<g id="Filled_Icons_1_">
	<g id="Filled_Icons">
	</g>
	<g id="New_icons">
		<path d="M11.5,0C5.159,0,0,5.159,0,11.5S5.159,23,11.5,23S23,17.841,23,11.5S17.841,0,11.5,0z M19.207,12.207l-4.5,4.5
			c-0.391,0.392-1.023,0.392-1.414,0c-0.391-0.39-0.391-1.023,0-1.413l2.793-2.793H5.5c-0.553,0-1-0.448-1-1c0-0.552,0.447-1,1-1
			h10.586l-2.793-2.793c-0.391-0.39-0.391-1.023,0-1.413c0.391-0.391,1.023-0.391,1.414,0l4.5,4.5
			C19.598,11.184,19.598,11.816,19.207,12.207z"/>
	</g>
</g>
<g id="Invisible_Shape">
	<rect fill="none" width="24" height="24"/>
</g>
</svg>
