<?xml version="1.0" encoding="utf-8"?>
<!-- Generator: Adobe Illustrator 19.2.1, SVG Export Plug-In . SVG Version: 6.00 Build 0)  -->
<svg version="1.1" xmlns="http://www.w3.org/2000/svg" xmlns:xlink="http://www.w3.org/1999/xlink" x="0px" y="0px" width="24px"
	 height="24px" viewBox="0 0 24 24" enable-background="new 0 0 24 24" xml:space="preserve">
<g id="Filled_Icons_1_">
	<g id="Filled_Icons">
		<g>
			<path d="M12,22.5v-3.82l-5.609-6.171c-0.522-0.572-0.522-1.445,0-2.018L12,4.32V0.5c0-0.454-0.561-0.676-0.87-0.336l-10,11
				c-0.173,0.189-0.173,0.482,0,0.672l10,11C11.439,23.175,12,22.955,12,22.5z"/>
			<path d="M18,22.5v-3.82l-5.609-6.171c-0.522-0.572-0.522-1.445,0-2.018L18,4.32V0.5c0-0.454-0.56-0.676-0.87-0.336l-10,11
				c-0.173,0.189-0.173,0.482,0,0.672l10,11C17.438,23.175,18,22.955,18,22.5z"/>
			<path d="M23.13,0.164l-10,11c-0.173,0.189-0.173,0.482,0,0.672l10,11C23.438,23.175,24,22.955,24,22.5v-22
				C24,0.046,23.44-0.176,23.13,0.164z"/>
		</g>
	</g>
	<g id="New_icons">
	</g>
</g>
<g id="Invisible_Shape">
	<rect fill="none" width="24" height="24"/>
</g>
</svg>
