<?xml version="1.0" encoding="utf-8"?>
<!-- Generator: Adobe Illustrator 19.2.1, SVG Export Plug-In . SVG Version: 6.00 Build 0)  -->
<svg version="1.1" xmlns="http://www.w3.org/2000/svg" xmlns:xlink="http://www.w3.org/1999/xlink" x="0px" y="0px" width="24px"
	 height="24px" viewBox="0 0 24 24" enable-background="new 0 0 24 24" xml:space="preserve">
<g id="Filled_Icons_1_">
	<g id="Filled_Icons">
		<path d="M0.092,12.29l8.977,11.518c0.289,0.37,0.893,0.171,0.895-0.307L9.971,20H17.5c0.133,0,0.26-0.052,0.354-0.145l5.982-5.974
			c0.094-0.094,0.147-0.221,0.148-0.353L24,4.501c0.002-0.254-0.19-0.493-0.5-0.493H9.986v-3.5c0-0.472-0.6-0.683-0.893-0.309
			L0.093,11.674C-0.049,11.854-0.049,12.108,0.092,12.29z M16.986,13.008h6l-6,6V13.008z"/>
	</g>
	<g id="New_icons">
	</g>
</g>
<g id="Invisible_Shape">
	<rect fill="none" width="24" height="24"/>
</g>
</svg>
