<?xml version="1.0" encoding="utf-8"?>
<!-- Generator: Adobe Illustrator 19.2.1, SVG Export Plug-In . SVG Version: 6.00 Build 0)  -->
<svg version="1.1" xmlns="http://www.w3.org/2000/svg" xmlns:xlink="http://www.w3.org/1999/xlink" x="0px" y="0px" width="24px"
	 height="24px" viewBox="0 0 24 24" enable-background="new 0 0 24 24" xml:space="preserve">
<g id="Filled_Icons_1_">
	<g id="Filled_Icons">
		<g>
			<path d="M23.706,9.292l-3.999-3.999c-0.391-0.391-1.023-0.391-1.414,0c-0.391,0.391-0.391,1.023,0,1.413L20.586,9H12.5
				c-2.757,0-5,2.243-5,5v2c0,0.552,0.447,1,1,1s1-0.448,1-1v-2c0-1.654,1.346-3,3-3h8.086l-2.293,2.293
				c-0.391,0.391-0.391,1.023,0,1.413c0.391,0.392,1.023,0.392,1.414,0l3.999-3.999C24.096,10.319,24.096,9.681,23.706,9.292z"/>
			<path d="M15,12c-0.553,0-1,0.448-1,1v5H2V6h12v1c0,0.552,0.447,1,1,1s1-0.448,1-1V5c0-0.552-0.447-1-1-1H1C0.447,4,0,4.448,0,5
				v14c0,0.552,0.447,1,1,1h14c0.553,0,1-0.448,1-1v-6C16,12.448,15.553,12,15,12z"/>
		</g>
	</g>
	<g id="New_icons">
	</g>
</g>
<g id="Invisible_Shape">
	<rect fill="none" width="24" height="24"/>
</g>
</svg>
