<?xml version="1.0" encoding="utf-8"?>
<!-- Generator: Adobe Illustrator 19.2.1, SVG Export Plug-In . SVG Version: 6.00 Build 0)  -->
<svg version="1.1" xmlns="http://www.w3.org/2000/svg" xmlns:xlink="http://www.w3.org/1999/xlink" x="0px" y="0px" width="24px"
	 height="24px" viewBox="0 0 24 24" enable-background="new 0 0 24 24" xml:space="preserve">
<g id="Filled_Icons_1_">
	<g id="Filled_Icons">
	</g>
	<g id="New_icons">
		<path d="M11.5,0C5.159,0,0,5.159,0,11.5S5.159,23,11.5,23S23,17.841,23,11.5S17.841,0,11.5,0z M17.5,12.5H6.914l2.793,2.793
			c0.391,0.391,0.391,1.023,0,1.413c-0.391,0.392-1.023,0.392-1.414,0l-4.5-4.5c-0.391-0.39-0.391-1.023,0-1.413l4.5-4.5
			c0.391-0.391,1.023-0.391,1.414,0c0.391,0.391,0.391,1.023,0,1.413L6.914,10.5H17.5c0.553,0,1,0.448,1,1
			C18.5,12.052,18.053,12.5,17.5,12.5z"/>
	</g>
</g>
<g id="Invisible_Shape">
	<rect fill="none" width="24" height="24"/>
</g>
</svg>
