<?xml version="1.0" encoding="utf-8"?>
<!-- Generator: Adobe Illustrator 19.2.1, SVG Export Plug-In . SVG Version: 6.00 Build 0)  -->
<svg version="1.1" xmlns="http://www.w3.org/2000/svg" xmlns:xlink="http://www.w3.org/1999/xlink" x="0px" y="0px" width="24px"
	 height="24px" viewBox="0 0 24 24" enable-background="new 0 0 24 24" xml:space="preserve">
<g id="Filled_Icons_1_">
	<g id="Filled_Icons">
		<g>
			<path d="M20.5,3h-17C3.224,3,3,3.224,3,3.5v3C3,6.776,3.224,7,3.5,7h17C20.776,7,21,6.776,21,6.5v-3C21,3.224,20.776,3,20.5,3z"
				/>
			<path d="M20.5,9h-17C3.224,9,3,9.224,3,9.5v3C3,12.776,3.224,13,3.5,13h17c0.276,0,0.5-0.224,0.5-0.5v-3
				C21,9.224,20.776,9,20.5,9z"/>
			<path d="M20.5,15h-17C3.224,15,3,15.224,3,15.5v3C3,18.776,3.224,19,3.5,19h17c0.276,0,0.5-0.224,0.5-0.5v-3
				C21,15.224,20.776,15,20.5,15z"/>
		</g>
	</g>
	<g id="New_icons">
	</g>
</g>
<g id="Invisible_Shape">
	<rect fill="none" width="24" height="24"/>
</g>
</svg>
