<?xml version="1.0" encoding="utf-8"?>
<!-- Generator: Adobe Illustrator 19.2.1, SVG Export Plug-In . SVG Version: 6.00 Build 0)  -->
<svg version="1.1" xmlns="http://www.w3.org/2000/svg" xmlns:xlink="http://www.w3.org/1999/xlink" x="0px" y="0px" width="24px"
	 height="24px" viewBox="0 0 24 24" enable-background="new 0 0 24 24" xml:space="preserve">
<g id="Filled_Icons_1_">
	<g id="Filled_Icons">
		<path d="M11.936,6.886c-2.456,0-5.128,0.428-7.942,1.273l-3.148-3.02C0.527,4.832,0,5.062,0,5.5v13C0,18.775,0.224,19,0.5,19
			h13.079c0.446,0,0.667-0.536,0.355-0.85l-3.42-3.432c2.327-1.122,4.717-1.735,6.793-1.735c3.594,0,5.778,1.807,5.772,5.538
			c-0.002,0.661,0.998,0.671,1,0.002C24.094,10.823,19.351,6.886,11.936,6.886z"/>
	</g>
	<g id="New_icons">
	</g>
</g>
<g id="Invisible_Shape">
	<rect fill="none" width="24" height="24"/>
</g>
</svg>
