<?xml version="1.0" encoding="utf-8"?>
<!-- Generator: Adobe Illustrator 19.2.1, SVG Export Plug-In . SVG Version: 6.00 Build 0)  -->
<svg version="1.1" xmlns="http://www.w3.org/2000/svg" xmlns:xlink="http://www.w3.org/1999/xlink" x="0px" y="0px" width="24px"
	 height="24px" viewBox="0 0 24 24" enable-background="new 0 0 24 24" xml:space="preserve">
<g id="Filled_Icons_1_">
	<g id="Filled_Icons">
	</g>
	<g id="New_icons">
		<path d="M11.5,0C5.159,0,0,5.159,0,11.5S5.159,23,11.5,23S23,17.841,23,11.5S17.841,0,11.5,0z M16.707,9.707
			c-0.391,0.392-1.023,0.392-1.414,0L12.5,6.914V17.5c0,0.552-0.447,1-1,1s-1-0.448-1-1V6.914L7.707,9.707
			c-0.391,0.391-1.023,0.391-1.414,0c-0.391-0.39-0.391-1.023,0-1.413l4.5-4.5c0.391-0.391,1.023-0.391,1.414,0l4.5,4.5
			C17.098,8.684,17.098,9.316,16.707,9.707z"/>
	</g>
</g>
<g id="Invisible_Shape">
	<rect fill="none" width="24" height="24"/>
</g>
</svg>
