<?xml version="1.0" encoding="utf-8"?>
<!-- Generator: Adobe Illustrator 19.2.1, SVG Export Plug-In . SVG Version: 6.00 Build 0)  -->
<svg version="1.1" xmlns="http://www.w3.org/2000/svg" xmlns:xlink="http://www.w3.org/1999/xlink" x="0px" y="0px" width="24px"
	 height="24px" viewBox="0 0 24 24" enable-background="new 0 0 24 24" xml:space="preserve">
<g id="Filled_Icons_1_">
	<g id="Filled_Icons">
		<g>
			<path d="M0,12.023C0.014,18.627,5.397,24,12,24h0.023c3.205-0.007,6.217-1.261,8.479-3.531c2.263-2.27,3.505-5.286,3.498-8.491
				C23.988,5.373,18.604,0,12.001,0c-3.23,0.006-6.24,1.261-8.502,3.531C1.236,5.802-0.006,8.818,0,12.023z M2,12.019
				C1.99,6.505,6.467,2.011,11.981,2C17.504,2,21.99,6.477,22,11.981c0.006,2.671-1.029,5.184-2.914,7.077
				C17.2,20.949,14.691,21.994,12.019,22l0,0H12C6.496,22,2.011,17.522,2,12.019z"/>
			<path d="M4.873,11.214l4.379,4.948c0.275,0.312,0.713,0.419,1.102,0.273C10.743,16.288,11,15.915,11,15.5V14h5
				c0,0,0,2.446,0,2.448c-0.003,0.42,0.255,0.797,0.647,0.945c0.115,0.041,0.232,0.062,0.35,0.062c0.287,0,0.566-0.124,0.761-0.35
				c0.066-0.078,2.125-1.922,2.12-4.292C19.873,9.996,18.164,7,15.008,7H11V5.5c0-0.418-0.259-0.791-0.65-0.938
				C9.959,4.417,9.518,4.529,9.245,4.845L4.866,9.896C4.537,10.274,4.541,10.838,4.873,11.214z M6.951,10.544l2.062-2.38
				C9.092,8.639,9.504,9,10,9h5c2.154,0,2.773,2.303,2.865,3.51C17.308,12.057,16.447,12,15.533,12H10
				c-0.508,0-0.928,0.379-0.991,0.87L6.951,10.544z"/>
		</g>
	</g>
	<g id="New_icons">
	</g>
</g>
<g id="Invisible_Shape">
	<rect fill="none" width="24" height="24"/>
</g>
</svg>
