<?xml version="1.0" encoding="utf-8"?>
<!-- Generator: Adobe Illustrator 19.2.0, SVG Export Plug-In . SVG Version: 6.00 Build 0)  -->
<svg version="1.1" xmlns="http://www.w3.org/2000/svg" xmlns:xlink="http://www.w3.org/1999/xlink" x="0px" y="0px" width="24px"
	 height="24px" viewBox="0 0 24 24" enable-background="new 0 0 24 24" xml:space="preserve">
<g id="Filled_Icons">
	<g>
		<path d="M12.094,7.5c1.474,0,3.219-2.127,3.8-6.88c-0.157,1.53-2.076,2.23-3.795,2.23c-1.721,0-3.642-0.699-3.802-2.231
			C8.88,5.374,10.622,7.5,12.094,7.5z"/>
		<path d="M23.722,11.615c-4.327-1.545-3.787-4.872-2.551-9.405c0.07-0.256-0.073-0.523-0.326-0.607l-3.897-1.28l-0.061,0.416
			C16.191,6.458,13.955,8.5,12.095,8.5h-0.001c-1.86,0-4.097-2.044-4.792-7.779L7.245,0.317l-3.901,1.29
			C3.092,1.69,2.948,1.957,3.019,2.214c1.235,4.529,1.776,7.856-2.551,9.401c-0.242,0.087-0.38,0.343-0.317,0.593L2.357,21l0,0
			l0.658,2.622C3.072,23.845,3.272,24,3.501,23.994h17.188c0.229,0.006,0.429-0.149,0.485-0.372L21.832,21l0,0l2.207-8.792
			C24.102,11.958,23.964,11.702,23.722,11.615z M13.095,10.5c0-0.827,0.673-1.5,1.5-1.5h2c0.827,0,1.5,0.673,1.5,1.5v1
			c0,0.827-0.673,1.5-1.5,1.5h-2c-0.827,0-1.5-0.673-1.5-1.5V10.5z M5.095,10.5c0-0.827,0.673-1.5,1.5-1.5h2
			c0.827,0,1.5,0.673,1.5,1.5v1c0,0.827-0.673,1.5-1.5,1.5h-2c-0.827,0-1.5-0.673-1.5-1.5V10.5z M2.636,17.994h2.959
			c0.276,0.006,0.5-0.217,0.5-0.494S5.871,17,5.595,17h-3.21l-0.753-3.006h6.963c1.379,0.006,2.5,1.128,2.5,2.506v2
			c0,1.378-1.121,2.5-2.5,2.5H3.389L2.636,17.994z M15.595,21c-1.379,0-2.5-1.122-2.5-2.5v-2c0-1.378,1.121-2.5,2.5-2.506h6.963
			L21.805,17h-3.21c-0.276,0-0.5,0.224-0.5,0.5s0.224,0.5,0.5,0.494h2.959L20.801,21H15.595z"/>
	</g>
</g>
<g id="invisible_shape">
	<rect fill="none" width="24" height="24"/>
</g>
</svg>
