<?xml version="1.0" encoding="utf-8"?>
<!-- Generator: Adobe Illustrator 19.2.0, SVG Export Plug-In . SVG Version: 6.00 Build 0)  -->
<svg version="1.1" xmlns="http://www.w3.org/2000/svg" xmlns:xlink="http://www.w3.org/1999/xlink" x="0px" y="0px" width="24px"
	 height="24px" viewBox="0 0 24 24" enable-background="new 0 0 24 24" xml:space="preserve">
<g id="Filled_Icons">
	<g>
		<path d="M17,10.5c0,0.276-0.225,0.5-0.5,0.5H5.513c0.457,0.604,1.174,1,1.987,1h12c0.275,0,0.5-0.224,0.5-0.5V7.774L17,8.63V10.5z
			"/>
		<path d="M21.5,7.5C21.224,7.5,21,7.723,21,8v2c0,0.276,0.224,0.5,0.5,0.5c0.275,0,0.5-0.224,0.5-0.5V8
			C22,7.723,21.775,7.5,21.5,7.5z"/>
		<path d="M12.5,13h-4C8.224,13,8,13.223,8,13.5C8,13.776,8.224,14,8.5,14H10v4.09l-9,1.801V18.5C1,18.223,0.775,18,0.5,18
			C0.224,18,0,18.223,0,18.5v4C0,22.776,0.224,23,0.5,23C0.775,23,1,22.776,1,22.5v-1.589l9.598-1.92
			C10.831,18.944,11,18.739,11,18.5V14h1.5c0.275,0,0.5-0.224,0.5-0.5C13,13.223,12.775,13,12.5,13z"/>
		<path d="M23.905,2.207C23.812,2.077,23.66,2,23.5,2H7C5.346,2,4,3.347,4,5v4.5C4,9.776,4.224,10,4.5,10h11H16V9.5V8.254
			c0-0.224,0.147-0.42,0.362-0.48l6.274-1.794c0.159-0.044,0.285-0.165,0.337-0.321l1-3.002C24.024,2.504,23.999,2.338,23.905,2.207
			z"/>
	</g>
</g>
<g id="invisible_shape">
	<rect fill="none" width="24" height="24"/>
</g>
</svg>
