<?xml version="1.0" encoding="utf-8"?>
<!-- Generator: Adobe Illustrator 19.2.0, SVG Export Plug-In . SVG Version: 6.00 Build 0)  -->
<svg version="1.1" xmlns="http://www.w3.org/2000/svg" xmlns:xlink="http://www.w3.org/1999/xlink" x="0px" y="0px" width="24px"
	 height="24px" viewBox="0 0 24 24" enable-background="new 0 0 24 24" xml:space="preserve">
<g id="Filled_Icons">
	<g>
		<path d="M9.5,14C9.224,14,9,14.223,9,14.5v3C9,18.878,7.878,20,6.5,20H1v-1.5C1,18.223,0.775,18,0.5,18C0.224,18,0,18.223,0,18.5
			v4C0,22.776,0.224,23,0.5,23C0.775,23,1,22.776,1,22.5V21h5.5c1.93,0,3.5-1.569,3.5-3.5v-3C10,14.223,9.775,14,9.5,14z"/>
		<path d="M23.5,1h-19C2.188,1,0.279,2.754,0.029,5H4.5C4.775,5,5,5.223,5,5.5C5,5.776,4.775,6,4.5,6H0v2h5.5C5.775,8,6,8.223,6,8.5
			C6,8.776,5.775,9,5.5,9H0.029c0.25,2.246,2.158,4,4.471,4H18c0.995,0,2-0.773,2-2.5h1.5c0.275,0,0.5-0.224,0.5-0.5V5.528
			l1.765-1.103C23.91,4.332,24,4.171,24,4V1.5C24,1.223,23.775,1,23.5,1z M10,10.5c-1.104,0-2-0.899-2-2c0-1.104,0.896-2,2-2
			c1.102,0,2,0.896,2,2C12,9.601,11.102,10.5,10,10.5z M21,9.5h-1V6.777l1-0.625V9.5z"/>
		<circle cx="10" cy="8.5" r="1"/>
	</g>
</g>
<g id="invisible_shape">
	<rect fill="none" width="24" height="24"/>
</g>
</svg>
