<?xml version="1.0" encoding="utf-8"?>
<!-- Generator: Adobe Illustrator 19.2.0, SVG Export Plug-In . SVG Version: 6.00 Build 0)  -->
<svg version="1.1" xmlns="http://www.w3.org/2000/svg" xmlns:xlink="http://www.w3.org/1999/xlink" x="0px" y="0px" width="24px"
	 height="24px" viewBox="0 0 24 24" enable-background="new 0 0 24 24" xml:space="preserve">
<g id="Filled_Icons">
	<path d="M22.829,0.123c-0.108-0.094-0.253-0.139-0.396-0.118l-7.5,1C14.686,1.038,14.5,1.25,14.5,1.5V2h-3.394L6.703,0.044
		c-0.252-0.113-0.548,0.002-0.66,0.254c-0.112,0.25,0.001,0.545,0.254,0.659l2.933,1.303C6.784,3.011,5,5.29,5,7.978V20.5
		C5,20.776,5.224,21,5.5,21C5.775,21,6,20.776,6,20.5V7.978C6,5.4,7.969,3.276,10.5,3.026v1.268C9.01,4.898,8,6.372,8,8v15.5
		C8,23.776,8.224,24,8.5,24h7c0.275,0,0.5-0.224,0.5-0.5V8c0-1.628-1.012-3.102-2.5-3.706V3h1v0.5c0,0.25,0.186,0.462,0.434,0.497
		C15.003,4.006,22.43,5,22.5,5c0.12,0,0.237-0.043,0.329-0.124C22.938,4.781,23,4.643,23,4.5v-4C23,0.356,22.938,0.219,22.829,0.123
		z M15,10v10h-2V10H15z"/>
</g>
<g id="invisible_shape">
	<rect fill="none" width="24" height="24"/>
</g>
</svg>
