<?xml version="1.0" encoding="utf-8"?>
<!-- Generator: Adobe Illustrator 19.2.0, SVG Export Plug-In . SVG Version: 6.00 Build 0)  -->
<svg version="1.1" xmlns="http://www.w3.org/2000/svg" xmlns:xlink="http://www.w3.org/1999/xlink" x="0px" y="0px" width="24px"
	 height="24px" viewBox="0 0 24 24" enable-background="new 0 0 24 24" xml:space="preserve">
<g id="Filled_Icons">
	<g>
		<path d="M12.929,6.591c-1.745,0-3.941,0.873-4.876,3.326c-0.908,2.388-0.52,3.924-0.07,5.702c0.33,1.306,0.704,2.788,0.704,4.986
			c0,2.125,1.356,3.395,3.627,3.395c1.196,0,3.095-0.895,3.095-3.294c0-1.339-0.272-2.382-0.511-3.302
			c-0.483-1.862-0.833-3.207,1.245-6.013c0.749-1.013,0.912-2.064,0.46-2.962C16.04,7.312,14.598,6.591,12.929,6.591z"/>
		<path d="M11.039,5.748h0.024c1.063,0,1.914-1.173,1.935-2.671c0.011-0.682-0.156-1.333-0.469-1.833
			c-0.35-0.559-0.863-0.886-1.433-0.893c-1.064,0-1.915,1.173-1.937,2.67C9.151,3.703,9.317,4.354,9.63,4.853
			C9.981,5.414,10.494,5.739,11.039,5.748z M11.064,5.245L11.064,5.245v0.003V5.245z"/>
		<path d="M15.371,5.748h0.024c1.063,0,1.914-1.173,1.936-2.671c0.011-0.682-0.156-1.333-0.469-1.833
			c-0.35-0.559-0.863-0.886-1.433-0.893c-1.064,0-1.915,1.173-1.936,2.67c-0.01,0.683,0.156,1.334,0.469,1.833
			C14.313,5.414,14.826,5.739,15.371,5.748z M15.396,5.245L15.396,5.245v0.003V5.245z"/>
		<path d="M8.068,7.638c0.881-0.239,1.313-1.378,0.983-2.594C8.729,3.843,7.756,3.072,6.894,3.301
			C6.44,3.423,6.083,3.799,5.912,4.332C5.765,4.796,5.764,5.352,5.91,5.894C6.195,6.949,7.072,7.907,8.068,7.638z"/>
		<path d="M4.545,7.525c-0.676,0.448-0.73,1.521-0.121,2.441c0.529,0.8,1.539,1.34,2.295,0.843c0.677-0.447,0.73-1.52,0.121-2.441
			C6.248,7.476,5.206,7.091,4.545,7.525z"/>
	</g>
</g>
<g id="invisible_shape">
	<rect fill="none" width="24" height="24"/>
</g>
</svg>
