<?xml version="1.0" encoding="utf-8"?>
<!-- Generator: Adobe Illustrator 19.2.0, SVG Export Plug-In . SVG Version: 6.00 Build 0)  -->
<svg version="1.1" xmlns="http://www.w3.org/2000/svg" xmlns:xlink="http://www.w3.org/1999/xlink" x="0px" y="0px" width="24px"
	 height="24px" viewBox="0 0 24 24" enable-background="new 0 0 24 24" xml:space="preserve">
<g id="Filled_Icons">
	<path d="M21.944,14.261l-0.959-3.881C20.931,10.157,20.729,10,20.5,10H19V8c0-3.86-3.141-7-7-7S5,4.14,5,8v2H3.5
		c-0.23,0-0.43,0.157-0.485,0.379l-0.95,3.826C0.75,15.257,0,16.812,0,18.5C0,21.533,2.468,24,5.5,24s5.5-2.467,5.5-5.5
		c0-1.677-0.71-3.139-2.056-4.239l-0.959-3.881C7.931,10.157,7.729,10,7.5,10H6V8c0-3.309,2.691-6,6-6s6,2.691,6,6v2h-1.5
		c-0.229,0-0.43,0.157-0.485,0.379l-0.95,3.826C13.75,15.257,13,16.812,13,18.5c0,3.033,2.468,5.5,5.5,5.5s5.5-2.467,5.5-5.5
		C24,16.823,23.29,15.361,21.944,14.261z M8.5,18.5c0,1.655-1.346,3-3,3s-3-1.345-3-3c0-1.654,1.346-3,3-3S8.5,16.846,8.5,18.5z
		 M18.5,21.5c-1.654,0-3-1.345-3-3c0-1.654,1.346-3,3-3s3,1.346,3,3C21.5,20.155,20.154,21.5,18.5,21.5z"/>
</g>
<g id="invisible_shape">
	<rect fill="none" width="24" height="24"/>
</g>
</svg>
