<?xml version="1.0" encoding="utf-8"?>
<!-- Generator: Adobe Illustrator 19.2.0, SVG Export Plug-In . SVG Version: 6.00 Build 0)  -->
<svg version="1.1" xmlns="http://www.w3.org/2000/svg" xmlns:xlink="http://www.w3.org/1999/xlink" x="0px" y="0px" width="24px"
	 height="24px" viewBox="0 0 24 24" enable-background="new 0 0 24 24" xml:space="preserve">
<g id="Filled_Icons">
	<path d="M21.519,17.608c0.303-0.274,0.497-0.668,0.497-1.108v-1c0-0.231-0.057-0.447-0.15-0.643
		c0.002-0.003,0.006-0.003,0.009-0.006C22.126,14.601,24,12.063,24,9.515C24,6.722,16.354,0.5,12.016,0.5
		C7.776,0.5,0.047,6.832,0.047,9.531c0,2.449,1.982,5.152,2.067,5.267c0.016,0.019,0.04,0.031,0.058,0.049
		c-0.097,0.198-0.156,0.418-0.156,0.653v1c0,0.46,0.212,0.867,0.539,1.142C2.687,17.856,5.901,23,12,23
		C18.097,23,21.384,17.822,21.519,17.608z M7.662,5.547l1.6-1.601c0.152-0.152,0.385-0.19,0.577-0.094l2.177,1.088l2.177-1.088
		c0.193-0.097,0.426-0.059,0.577,0.094l1.6,1.601c0.264,0.264,0.154,0.711-0.195,0.827C16.149,6.383,15.668,6.559,15.438,7H8.594
		c-0.23-0.441-0.713-0.617-0.739-0.627C7.5,6.25,7.407,5.801,7.662,5.547z M8.644,8h6.744c0.211,0.756,0.728,1.057,0.728,1.9
		c0,1.246-2.812,2.9-4.1,2.9c-1.287,0-4.1-1.654-4.1-2.9C7.916,9.057,8.433,8.756,8.644,8z M21.016,16.5c0,0.276-0.225,0.5-0.5,0.5
		H3.5C3.225,17,3,16.776,3,16.5v-1C3,15.224,3.225,15,3.5,15h17.018c0.274,0.002,0.498,0.225,0.498,0.5V16.5z"/>
</g>
<g id="invisible_shape">
	<rect fill="none" width="24" height="24"/>
</g>
</svg>
