<?xml version="1.0" encoding="utf-8"?>
<!-- Generator: Adobe Illustrator 19.2.0, SVG Export Plug-In . SVG Version: 6.00 Build 0)  -->
<svg version="1.1" xmlns="http://www.w3.org/2000/svg" xmlns:xlink="http://www.w3.org/1999/xlink" x="0px" y="0px" width="24px"
	 height="24px" viewBox="0 0 24 24" enable-background="new 0 0 24 24" xml:space="preserve">
<g id="Filled_Icons">
	<g>
		<path d="M19,10.5c0-0.261,0.105-0.493,0.271-0.673c-0.313-1.031-0.846-1.966-1.539-2.758l-1.784,1.785
			c0.705,0.863,1.146,1.948,1.146,3.146c0,2.48-1.82,4.529-4.192,4.919C12.742,17.261,12.401,17.5,12,17.5
			c-0.41,0-0.762-0.249-0.916-0.603C8.81,16.429,7.094,14.411,7.094,12c0-2.757,2.243-5,5-5c1.198,0,2.284,0.44,3.146,1.146
			l1.784-1.784C15.704,5.207,13.982,4.5,12.094,4.5c-4.136,0-7.5,3.365-7.5,7.5c0,0.879,0.16,1.722,0.441,2.507
			C5.569,14.525,6,14.96,6,15.5c0,0.215-0.083,0.404-0.199,0.566C7.139,18.13,9.457,19.5,12.094,19.5c4.136,0,7.5-3.365,7.5-7.5
			c0-0.206-0.015-0.409-0.031-0.611C19.232,11.226,19,10.894,19,10.5z"/>
		<path d="M16.094,12c0-0.923-0.326-1.762-0.854-2.44l-2.793,2.793c-0.098,0.098-0.226,0.146-0.354,0.146
			c-0.128,0-0.256-0.049-0.354-0.146c-0.195-0.194-0.195-0.512,0-0.707l2.793-2.793C13.856,8.327,13.017,8,12.094,8
			c-2.206,0-4,1.794-4,4c0,1.906,1.342,3.498,3.129,3.898C11.405,15.662,11.679,15.5,12,15.5c0.335,0,0.617,0.177,0.798,0.429
			C14.668,15.594,16.094,13.965,16.094,12z"/>
		<path d="M12.094,0c-6.617,0-12,5.383-12,12c0,6.616,5.383,12,12,12c6.617,0,12-5.384,12-12C24.094,5.383,18.711,0,12.094,0z
			 M5,4.5c0.552,0,1,0.449,1,1c0,0.551-0.448,1-1,1s-1-0.449-1-1C4,4.949,4.448,4.5,5,4.5z M17,21.5c-0.552,0-1-0.449-1-1
			c0-0.551,0.448-1,1-1s1,0.449,1,1C18,21.051,17.552,21.5,17,21.5z M20.594,12c0,4.688-3.813,8.5-8.5,8.5
			c-3.043,0-5.711-1.613-7.213-4.024C4.388,16.415,4,16.009,4,15.5c0-0.185,0.064-0.349,0.151-0.498
			C3.797,14.067,3.594,13.058,3.594,12c0-4.688,3.813-8.5,8.5-8.5c2.164,0,4.135,0.819,5.637,2.156l0.994-0.995
			c0.195-0.195,0.512-0.195,0.707,0c0.195,0.197,0.195,0.512,0,0.707l-0.994,0.994c0.81,0.909,1.431,1.989,1.792,3.184
			C20.667,9.652,21,10.03,21,10.5c0,0.341-0.182,0.626-0.441,0.807C20.577,11.536,20.594,11.766,20.594,12z"/>
	</g>
</g>
<g id="invisible_shape">
	<rect fill="none" width="24" height="24"/>
</g>
</svg>
