<?xml version="1.0" encoding="utf-8"?>
<!-- Generator: Adobe Illustrator 19.2.0, SVG Export Plug-In . SVG Version: 6.00 Build 0)  -->
<svg version="1.1" xmlns="http://www.w3.org/2000/svg" xmlns:xlink="http://www.w3.org/1999/xlink" x="0px" y="0px" width="24px"
	 height="24px" viewBox="0 0 24 24" enable-background="new 0 0 24 24" xml:space="preserve">
<g id="Filled_Icons">
	<path d="M23.5,9h-0.92C21.542,5.343,18.657,2.457,15,1.418V0.5C15,0.223,14.776,0,14.5,0h-5C9.224,0,9,0.223,9,0.5v0.918
		C5.343,2.457,2.457,5.343,1.419,9H0.5C0.224,9,0,9.223,0,9.5v5C0,14.776,0.224,15,0.5,15h0.919C2.457,18.657,5.343,21.542,9,22.581
		V23.5C9,23.776,9.224,24,9.5,24h5c0.276,0,0.5-0.224,0.5-0.5v-0.919c3.657-1.04,6.542-3.925,7.58-7.581h0.92
		c0.276,0,0.5-0.224,0.5-0.5v-5C24,9.223,23.776,9,23.5,9z M10,1h4v5.88c-0.621-0.241-1.294-0.38-2-0.38s-1.38,0.139-2,0.38V1z
		 M6.882,14H1v-4h5.882C6.639,10.622,6.5,11.294,6.5,12C6.5,12.705,6.639,13.378,6.882,14z M14,23h-4v-5.883
		c0.62,0.244,1.294,0.383,2,0.383s1.379-0.139,2-0.383V23z M12,16.5c-2.481,0-4.5-2.02-4.5-4.5c0-2.483,2.019-4.5,4.5-4.5
		s4.5,2.017,4.5,4.5C16.5,14.48,14.481,16.5,12,16.5z M23,14h-5.882c0.243-0.622,0.382-1.295,0.382-2c0-0.706-0.139-1.378-0.382-2
		H23V14z"/>
</g>
<g id="invisible_shape">
	<rect fill="none" width="24" height="24"/>
</g>
</svg>
