<?xml version="1.0" encoding="utf-8"?>
<!-- Generator: Adobe Illustrator 19.2.0, SVG Export Plug-In . SVG Version: 6.00 Build 0)  -->
<svg version="1.1" xmlns="http://www.w3.org/2000/svg" xmlns:xlink="http://www.w3.org/1999/xlink" x="0px" y="0px" width="24px"
	 height="24px" viewBox="0 0 24 24" enable-background="new 0 0 24 24" xml:space="preserve">
<g id="Filled_Icons">
	<path d="M22,15.5c-0.104,0-0.203,0.016-0.302,0.031l-2.579-3.517L21.7,8.47C21.799,8.484,21.897,8.5,22,8.5c1.103,0,2-0.897,2-2
		s-0.897-2-2-2c-0.929,0-1.705,0.64-1.929,1.5h-3.847L13.66,3.115C13.874,2.796,14,2.412,14,2c0-1.104-0.898-2-2-2s-2,0.896-2,2
		c0,0.412,0.126,0.796,0.34,1.115L7.775,6H3.929C3.705,5.14,2.929,4.5,2,4.5c-1.102,0-2,0.897-2,2s0.897,2,2,2
		c0.111,0,0.219-0.016,0.324-0.033l2.577,3.566l-2.574,3.5C2.22,15.516,2.112,15.5,2,15.5c-1.102,0-2,0.896-2,2s0.897,2,2,2
		c0.929,0,1.705-0.64,1.929-1.5h3.847l2.565,2.886C10.126,21.204,10,21.587,10,22c0,1.104,0.898,2,2,2s2-0.896,2-2
		c0-0.413-0.126-0.796-0.341-1.115L16.225,18h3.847c0.224,0.86,1,1.5,1.929,1.5c1.103,0,2-0.896,2-2S23.103,15.5,22,15.5z M12,16.5
		c-2.485,0-4.5-2.014-4.5-4.5c0-2.485,2.015-4.5,4.5-4.5s4.5,2.015,4.5,4.5C16.5,14.486,14.485,16.5,12,16.5z"/>
</g>
<g id="invisible_shape">
	<rect fill="none" width="24" height="24"/>
</g>
</svg>
