<?xml version="1.0" encoding="utf-8"?>
<!-- Generator: Adobe Illustrator 19.2.0, SVG Export Plug-In . SVG Version: 6.00 Build 0)  -->
<svg version="1.1" xmlns="http://www.w3.org/2000/svg" xmlns:xlink="http://www.w3.org/1999/xlink" x="0px" y="0px" width="24px"
	 height="24px" viewBox="0 0 24 24" enable-background="new 0 0 24 24" xml:space="preserve">
<g id="Filled_Icons">
	<g>
		<path d="M21.63,4.538c-0.073-0.02-7.398-2.016-9.769-4.391c-0.188-0.189-0.535-0.189-0.723,0C8.769,2.52,1.443,4.518,1.37,4.538
			C1.151,4.597,1,4.795,1,5.021c0,8.57,0.761,15.404,10.326,18.948C11.383,23.989,11.441,24,11.5,24s0.117-0.011,0.174-0.031
			C21.239,20.425,22,13.59,22,5.021C22,4.795,21.849,4.597,21.63,4.538z M17,15.5c0,0.276-0.224,0.5-0.5,0.5H16v1.5
			c0,0.276-0.224,0.5-0.5,0.5H14v-2.5c0-0.276-0.224-0.5-0.5-0.5c-0.276,0-0.5,0.224-0.5,0.5V18h-1v-2.5c0-0.276-0.224-0.5-0.5-0.5
			c-0.276,0-0.5,0.224-0.5,0.5V18h-1v-2.5c0-0.276-0.224-0.5-0.5-0.5C9.224,15,9,15.224,9,15.5V18H7.5C7.224,18,7,17.776,7,17.5V16
			H6.5C6.224,16,6,15.776,6,15.5v-6C6,8.122,7.121,7,8.5,7h6C15.879,7,17,8.122,17,9.5V15.5z"/>
		<circle cx="9" cy="11.5" r="1.5"/>
		<circle cx="14" cy="11.5" r="1.5"/>
	</g>
</g>
<g id="invisible_shape">
	<rect fill="none" width="24" height="24"/>
</g>
</svg>
