<?xml version="1.0" encoding="utf-8"?>
<!-- Generator: Adobe Illustrator 19.2.0, SVG Export Plug-In . SVG Version: 6.00 Build 0)  -->
<svg version="1.1" xmlns="http://www.w3.org/2000/svg" xmlns:xlink="http://www.w3.org/1999/xlink" x="0px" y="0px" width="24px"
	 height="24px" viewBox="0 0 24 24" enable-background="new 0 0 24 24" xml:space="preserve">
<g id="Filled_Icons">
	<path d="M11.5,0C5.159,0,0,5.159,0,11.5S5.159,23,11.5,23S23,17.841,23,11.5S17.841,0,11.5,0z M2.458,12.042
		c-0.275,0-0.5-0.225-0.5-0.5c0-0.276,0.225-0.5,0.5-0.5c0.276,0,0.5,0.224,0.5,0.5C2.958,11.817,2.734,12.042,2.458,12.042z
		 M11.5,2C11.775,2,12,2.224,12,2.5C12,2.776,11.775,3,11.5,3C11.224,3,11,2.776,11,2.5C11,2.224,11.224,2,11.5,2z M4.753,4.794
		C4.948,4.6,5.265,4.6,5.46,4.794c0.195,0.197,0.195,0.513,0,0.708c-0.195,0.195-0.512,0.195-0.707,0
		C4.558,5.307,4.558,4.991,4.753,4.794z M5.46,18.288c-0.195,0.195-0.512,0.195-0.707,0c-0.195-0.194-0.195-0.512,0-0.706
		c0.195-0.196,0.512-0.196,0.707,0C5.655,17.776,5.655,18.094,5.46,18.288z M7,16.179c-1.231-1.183-2-2.841-2-4.679
		c0-1.837,0.769-3.496,2-4.679V16.179z M8,6.031c0.879-0.564,1.901-0.922,3-1.006v12.949c-1.099-0.084-2.121-0.441-3-1.006V6.031z
		 M11.5,21.084c-0.276,0-0.5-0.225-0.5-0.5c0-0.276,0.224-0.5,0.5-0.5c0.275,0,0.5,0.224,0.5,0.5
		C12,20.859,11.775,21.084,11.5,21.084z M15,16.969c-0.879,0.564-1.901,0.922-3,1.006V5.025c1.099,0.084,2.121,0.441,3,1.006V16.969
		z M16,6.821c1.23,1.184,2,2.842,2,4.679c0,1.838-0.77,3.496-2,4.679V6.821z M18.247,18.288c-0.195,0.195-0.512,0.195-0.707,0
		c-0.195-0.194-0.195-0.512,0-0.706c0.195-0.196,0.512-0.196,0.707,0C18.442,17.776,18.442,18.094,18.247,18.288z M18.247,5.502
		c-0.195,0.195-0.512,0.195-0.707,0c-0.195-0.195-0.195-0.511,0-0.708c0.195-0.194,0.512-0.194,0.707,0
		C18.442,4.991,18.442,5.307,18.247,5.502z M20.541,12.042c-0.275,0-0.5-0.225-0.5-0.5c0-0.276,0.225-0.5,0.5-0.5
		c0.276,0,0.5,0.224,0.5,0.5C21.041,11.817,20.817,12.042,20.541,12.042z"/>
</g>
<g id="invisible_shape">
	<rect fill="none" width="24" height="24"/>
</g>
</svg>
