<?xml version="1.0" encoding="utf-8"?>
<!-- Generator: Adobe Illustrator 19.2.0, SVG Export Plug-In . SVG Version: 6.00 Build 0)  -->
<svg version="1.1" xmlns="http://www.w3.org/2000/svg" xmlns:xlink="http://www.w3.org/1999/xlink" x="0px" y="0px" width="24px"
	 height="24px" viewBox="0 0 24 24" enable-background="new 0 0 24 24" xml:space="preserve">
<g id="Filled_Icons">
	<g>
		<path d="M11.865,17.931c-0.195,0-0.521,0-0.521,1.499c0,1.501,0.326,1.501,0.521,1.501c0.194,0,0.521,0,0.521-1.501
			C12.386,17.931,12.06,17.931,11.865,17.931z"/>
		<path d="M6.415,18.682c0,0.137,0.112,0.249,0.25,0.249c0.121,0,0.239,0.017,0.35,0.049c-0.063-0.083-0.1-0.187-0.1-0.298
			c0-0.139-0.112-0.251-0.25-0.251S6.415,18.542,6.415,18.682z"/>
		<path d="M6.315,19.881c0.063,0.084,0.1,0.188,0.1,0.301c0,0.274,0.5,0.274,0.5,0c0-0.139-0.112-0.251-0.25-0.251
			C6.544,19.931,6.426,19.913,6.315,19.881z"/>
		<path d="M15.219,17.931c-0.195,0-0.521,0-0.521,1.499c0,1.501,0.326,1.501,0.521,1.501c0.183,0,0.521,0,0.521-1.501
			C15.74,17.931,15.401,17.931,15.219,17.931z"/>
		<path d="M23.5-0.006h-23c-0.276,0-0.5,0.223-0.5,0.5v23c0,0.276,0.224,0.5,0.5,0.5h23c0.276,0,0.5-0.224,0.5-0.5v-23
			C24,0.217,23.776-0.006,23.5-0.006z M7.915,20.182c0,0.511-0.309,0.947-0.75,1.142v0.108c0,0.277-0.224,0.5-0.5,0.5
			c-0.276,0-0.5-0.223-0.5-0.5v-0.108c-0.44-0.194-0.75-0.631-0.75-1.142c0-0.277,0.224-0.5,0.5-0.5h0.001
			c-0.304-0.229-0.501-0.593-0.501-1c0-0.512,0.31-0.949,0.75-1.144v-0.107c0-0.276,0.224-0.5,0.5-0.5c0.276,0,0.5,0.224,0.5,0.5
			v0.107c0.441,0.194,0.75,0.632,0.75,1.144c0,0.275-0.224,0.5-0.5,0.5H7.414C7.718,19.409,7.915,19.771,7.915,20.182z
			 M9.981,21.388c0,0.276-0.224,0.5-0.5,0.5c-0.276,0-0.5-0.224-0.5-0.5V18.42c-0.121-0.008-0.239-0.06-0.329-0.154
			c-0.191-0.199-0.184-0.516,0.016-0.707l0.468-0.446c0.146-0.139,0.358-0.177,0.542-0.099c0.185,0.079,0.304,0.261,0.304,0.46
			V21.388z M11.865,21.931c-1.521,0-1.521-1.816-1.521-2.501c0-0.684,0-2.499,1.521-2.499c1.521,0,1.521,1.815,1.521,2.499
			C13.386,20.115,13.386,21.931,11.865,21.931z M15.219,21.931c-1.521,0-1.521-1.816-1.521-2.501c0-0.684,0-2.499,1.521-2.499
			c1.521,0,1.521,1.815,1.521,2.499C16.74,20.115,16.74,21.931,15.219,21.931z M21,15.494c0,0.276-0.224,0.5-0.5,0.5h-3.104v-0.486
			c0-2.271-1.415-4.208-3.406-5.003c0.947-0.641,1.571-1.725,1.571-2.951c0-1.962-1.598-3.559-3.561-3.559S8.44,5.591,8.44,7.553
			c0,1.226,0.624,2.31,1.57,2.951c-1.991,0.794-3.405,2.732-3.405,5.003v0.486H3.5c-0.276,0-0.5-0.224-0.5-0.5v-13
			c0-0.277,0.224-0.5,0.5-0.5h17c0.276,0,0.5,0.223,0.5,0.5V15.494z"/>
	</g>
</g>
<g id="invisible_shape">
	<rect fill="none" width="24" height="24"/>
</g>
</svg>
