<?xml version="1.0" encoding="utf-8"?>
<!-- Generator: Adobe Illustrator 19.2.0, SVG Export Plug-In . SVG Version: 6.00 Build 0)  -->
<svg version="1.1" xmlns="http://www.w3.org/2000/svg" xmlns:xlink="http://www.w3.org/1999/xlink" x="0px" y="0px" width="24px"
	 height="24px" viewBox="0 0 24 24" enable-background="new 0 0 24 24" xml:space="preserve">
<g id="Filled_Icons">
	<g>
		<path d="M23.5,7H15V6.5C15,5.121,13.878,4,12.5,4C11.121,4,10,5.121,10,6.5V19H9V9.5C9,9.224,8.776,9,8.5,9H5
			C4.818,9,4.65,9.099,4.563,9.257l-2.466,4.439l-1.95,1.95C0.053,15.741,0,15.867,0,16v5.5C0,21.776,0.224,22,0.5,22h1.039
			C1.516,21.836,1.5,21.67,1.5,21.5C1.5,19.57,3.07,18,5,18s3.5,1.57,3.5,3.5c0,0.17-0.017,0.336-0.04,0.5h7.079
			c-0.023-0.164-0.039-0.33-0.039-0.5c0-1.93,1.57-3.5,3.5-3.5s3.5,1.57,3.5,3.5c0,0.17-0.017,0.336-0.04,0.5h1.04
			c0.276,0,0.5-0.224,0.5-0.5v-14C24,7.224,23.776,7,23.5,7z M7.5,12H6.309l-1.361,2.724C4.859,14.898,4.683,15,4.499,15
			c-0.075,0-0.151-0.018-0.223-0.052c-0.247-0.125-0.348-0.424-0.224-0.672l1.5-3C5.638,11.106,5.811,11,6,11h1.5
			C7.776,11,8,11.224,8,11.5S7.776,12,7.5,12z M11,6.5C11,5.672,11.673,5,12.5,5S14,5.672,14,6.5V7h-3V6.5z M20,14.5
			c0,0.276-0.224,0.5-0.5,0.5H18v1.5c0,0.276-0.224,0.5-0.5,0.5h-2c-0.276,0-0.5-0.224-0.5-0.5V15h-1.5c-0.276,0-0.5-0.224-0.5-0.5
			v-2c0-0.276,0.224-0.5,0.5-0.5H15v-1.5c0-0.276,0.224-0.5,0.5-0.5h2c0.276,0,0.5,0.224,0.5,0.5V12h1.5c0.276,0,0.5,0.224,0.5,0.5
			V14.5z"/>
		<circle cx="5" cy="21.5" r="2.5"/>
		<circle cx="19" cy="21.5" r="2.5"/>
	</g>
</g>
<g id="invisible_shape">
	<rect fill="none" width="24" height="24"/>
</g>
</svg>
