<?xml version="1.0" encoding="utf-8"?>
<!-- Generator: Adobe Illustrator 19.2.0, SVG Export Plug-In . SVG Version: 6.00 Build 0)  -->
<svg version="1.1" xmlns="http://www.w3.org/2000/svg" xmlns:xlink="http://www.w3.org/1999/xlink" x="0px" y="0px" width="24px"
	 height="24px" viewBox="0 0 24 24" enable-background="new 0 0 24 24" xml:space="preserve">
<g id="Filled_Icons">
	<path d="M13.417,0.216c-0.185-0.28-0.649-0.28-0.834,0C12.273,0.685,5,11.747,5,15.992c0,4.411,3.589,8,8,8s8-3.589,8-8
		C21,11.747,13.727,0.685,13.417,0.216z M11.487,9.724C9.323,13.843,9,15.419,9,15.992c0,1.138,0.486,2.224,1.335,2.983
		c0.206,0.185,0.224,0.5,0.039,0.706c-0.099,0.11-0.235,0.167-0.372,0.167c-0.119,0-0.238-0.042-0.334-0.128
		C8.608,18.773,8,17.413,8,15.992c0-1.181,0.875-3.446,2.602-6.733c0.13-0.244,0.431-0.337,0.676-0.211
		C11.521,9.177,11.616,9.479,11.487,9.724z"/>
</g>
<g id="invisible_shape">
	<rect fill="none" width="24" height="24"/>
</g>
</svg>
