<?xml version="1.0" encoding="utf-8"?>
<!-- Generator: Adobe Illustrator 19.2.0, SVG Export Plug-In . SVG Version: 6.00 Build 0)  -->
<svg version="1.1" xmlns="http://www.w3.org/2000/svg" xmlns:xlink="http://www.w3.org/1999/xlink" x="0px" y="0px" width="24px"
	 height="24px" viewBox="0 0 24 24" enable-background="new 0 0 24 24" xml:space="preserve">
<g id="Filled_Icons">
	<g>
		<path d="M12.368,13.955l-1.853-0.606l-0.508-1.745c-0.05-0.17-0.186-0.301-0.356-0.345c-0.171-0.044-0.353,0.006-0.478,0.131
			l-2.535,2.535c-0.038-0.041-0.072-0.077-0.099-0.103c-0.662-0.663-1.585-1.043-2.53-1.043c-0.927,0-1.788,0.352-2.426,0.99
			c-0.655,0.656-1.02,1.52-1.028,2.434c-0.008,0.921,0.349,1.789,1.003,2.442c0.656,0.657,1.535,1.003,2.47,1.003
			c-0.01,0.921,0.346,1.814,1.007,2.476c0.662,0.662,1.544,1.025,2.483,1.025c0.927,0,1.794-0.357,2.441-1.005
			c0.655-0.655,1.019-1.521,1.026-2.438c0.006-0.897-0.333-1.745-0.953-2.391l2.533-2.534c0.123-0.123,0.173-0.301,0.133-0.47
			C12.659,14.144,12.533,14.008,12.368,13.955z"/>
		<path d="M23.656,5.478c-0.241-0.897-0.814-1.647-1.615-2.113c-0.802-0.466-1.779-0.592-2.667-0.349
			c-0.227-0.895-0.803-1.67-1.618-2.145c-0.53-0.309-1.132-0.472-1.742-0.472c-1.233,0-2.382,0.661-3.001,1.724
			c-0.464,0.799-0.566,1.751-0.287,2.683c0.268,0.894,0.876,1.671,1.667,2.132c0.022,0.013,0.067,0.039,0.125,0.07l-1.904,3.27
			c-0.088,0.151-0.091,0.338-0.008,0.491c0.084,0.153,0.241,0.252,0.415,0.26l1.805,0.087l1.089,1.605
			c0.094,0.137,0.249,0.219,0.414,0.219c0.006,0,0.012,0,0.018,0c0.172-0.006,0.328-0.1,0.415-0.248l1.902-3.269
			c0.508,0.281,1.078,0.43,1.653,0.43c1.223,0,2.369-0.666,2.993-1.737C23.774,7.314,23.898,6.378,23.656,5.478z"/>
		<path d="M5.5,10.006h2c0.276,0,0.5-0.224,0.5-0.5c0-0.276-0.224-0.5-0.5-0.5h-2c-0.276,0-0.5,0.224-0.5,0.5
			C5,9.782,5.224,10.006,5.5,10.006z"/>
		<path d="M10.5,7.006c0.276,0,0.5-0.224,0.5-0.5v-2c0-0.276-0.224-0.5-0.5-0.5S10,4.229,10,4.506v2
			C10,6.782,10.224,7.006,10.5,7.006z"/>
		<path d="M8.014,7.602c0.089,0.064,0.192,0.096,0.295,0.096c0.154,0,0.307-0.071,0.404-0.205c0.162-0.224,0.113-0.536-0.109-0.699
			L6.987,5.616C6.765,5.455,6.45,5.503,6.288,5.727C6.126,5.95,6.175,6.263,6.398,6.425L8.014,7.602z"/>
		<path d="M20.5,14.006h-2c-0.276,0-0.5,0.224-0.5,0.5c0,0.276,0.224,0.5,0.5,0.5h2c0.276,0,0.5-0.224,0.5-0.5
			C21,14.229,20.776,14.006,20.5,14.006z"/>
		<path d="M15.5,17.006c-0.276,0-0.5,0.224-0.5,0.5v2c0,0.276,0.224,0.5,0.5,0.5s0.5-0.224,0.5-0.5v-2
			C16,17.229,15.776,17.006,15.5,17.006z"/>
		<path d="M17.987,16.41c-0.223-0.162-0.537-0.114-0.699,0.11c-0.162,0.223-0.113,0.536,0.109,0.698l1.616,1.178
			c0.089,0.064,0.192,0.096,0.295,0.096c0.154,0,0.307-0.072,0.404-0.206c0.162-0.224,0.113-0.536-0.109-0.699L17.987,16.41z"/>
	</g>
</g>
<g id="invisible_shape">
	<rect fill="none" width="24" height="24"/>
</g>
</svg>
