<?xml version="1.0" encoding="utf-8"?>
<!-- Generator: Adobe Illustrator 19.2.0, SVG Export Plug-In . SVG Version: 6.00 Build 0)  -->
<svg version="1.1" xmlns="http://www.w3.org/2000/svg" xmlns:xlink="http://www.w3.org/1999/xlink" x="0px" y="0px" width="24px"
	 height="24px" viewBox="0 0 24 24" enable-background="new 0 0 24 24" xml:space="preserve">
<g id="Filled_Icons">
	<path d="M23.76,17.058c-0.105-0.064-2.618-1.573-5.76-1.573c-0.322,0-0.648,0.016-0.977,0.047c0.61-0.454,1.238-0.98,1.84-1.582
		c2.782-2.783,3.959-6.06,4.008-6.196c0.064-0.182,0.018-0.384-0.118-0.521c-0.137-0.137-0.339-0.183-0.519-0.118
		c-0.139,0.049-3.416,1.224-6.199,4.007c-0.531,0.531-1.005,1.083-1.424,1.628C14.843,11.604,15,10.333,15,8.985
		c0-4.761-1.974-8.572-2.058-8.732c-0.172-0.33-0.713-0.33-0.885,0C11.973,0.413,10,4.224,10,8.985c0,1.346,0.157,2.619,0.39,3.767
		c-0.419-0.545-0.893-1.098-1.426-1.629c-2.782-2.783-6.06-3.958-6.197-4.007C2.585,7.051,2.383,7.097,2.247,7.233
		C2.11,7.37,2.065,7.572,2.129,7.754c0.049,0.137,1.225,3.413,4.006,6.196c0.602,0.602,1.23,1.128,1.841,1.582
		C7.648,15.501,7.322,15.485,7,15.485c-3.143,0-5.655,1.509-5.761,1.573C1.091,17.149,1,17.31,1,17.485
		c0,0.174,0.091,0.336,0.239,0.426C1.345,17.977,3.857,19.485,7,19.485c0.49,0,0.988-0.037,1.492-0.109
		c-1.546,1.612-2.107,3.546-2.131,3.63c-0.052,0.183,0.005,0.379,0.146,0.507c0.141,0.127,0.343,0.165,0.519,0.095
		c0.145-0.058,3.111-1.231,4.975-2.584v2.462c0,0.275,0.224,0.5,0.5,0.5s0.5-0.225,0.5-0.5v-2.441
		c1.871,1.345,4.828,2.507,4.974,2.565c0.06,0.022,0.121,0.034,0.182,0.034c0.122,0,0.243-0.044,0.337-0.13
		c0.14-0.128,0.196-0.324,0.144-0.507c-0.023-0.083-0.584-2.016-2.129-3.63c0.503,0.072,1.001,0.109,1.492,0.109
		c3.142,0,5.654-1.509,5.76-1.572c0.149-0.091,0.24-0.254,0.24-0.428C24,17.31,23.909,17.149,23.76,17.058z"/>
</g>
<g id="invisible_shape">
	<rect fill="none" width="24" height="24"/>
</g>
</svg>
