<?xml version="1.0" encoding="utf-8"?>
<!-- Generator: Adobe Illustrator 19.2.0, SVG Export Plug-In . SVG Version: 6.00 Build 0)  -->
<svg version="1.1" xmlns="http://www.w3.org/2000/svg" xmlns:xlink="http://www.w3.org/1999/xlink" x="0px" y="0px" width="24px"
	 height="24px" viewBox="0 0 24 24" enable-background="new 0 0 24 24" xml:space="preserve">
<g id="Filled_Icons">
	<path d="M23.127,0.657c-0.567-0.567-1.555-0.567-2.121,0l-0.578,0.578c-0.377,0.377-0.931,0.527-1.451,0.388
		c-1.535-0.41-3.212,0.033-4.334,1.155L1.561,15.859l-0.707-0.707c-0.195-0.196-0.512-0.196-0.707,0
		c-0.195,0.195-0.195,0.512,0,0.707l7.778,7.779c0.098,0.097,0.226,0.146,0.354,0.146s0.256-0.049,0.353-0.146
		c0.195-0.196,0.195-0.512,0-0.708l-0.708-0.707L21.006,9.143c1.127-1.128,1.569-2.788,1.155-4.334
		c-0.139-0.518,0.01-1.074,0.388-1.452l0.578-0.579c0.283-0.283,0.439-0.66,0.439-1.062C23.566,1.317,23.41,0.939,23.127,0.657z
		 M18.749,4.725c-0.992-0.062-1.978,0.302-2.683,1.008l-2.43,2.43c-0.098,0.097-0.226,0.146-0.353,0.146S13.027,8.26,12.93,8.163
		c-0.195-0.196-0.195-0.512,0-0.707l2.43-2.43c0.908-0.909,2.162-1.38,3.456-1.299c0.275,0.019,0.483,0.257,0.466,0.532
		C19.263,4.534,19.046,4.738,18.749,4.725z"/>
</g>
<g id="invisible_shape">
	<rect fill="none" width="24" height="24"/>
</g>
</svg>
