<?xml version="1.0" encoding="utf-8"?>
<!-- Generator: Adobe Illustrator 19.2.0, SVG Export Plug-In . SVG Version: 6.00 Build 0)  -->
<svg version="1.1" xmlns="http://www.w3.org/2000/svg" xmlns:xlink="http://www.w3.org/1999/xlink" x="0px" y="0px" width="24px"
	 height="24px" viewBox="0 0 24 24" enable-background="new 0 0 24 24" xml:space="preserve">
<g id="Filled_Icons">
	<path d="M23.414,5.535l-4.95-4.949c-0.754-0.757-2.072-0.757-2.828,0c-0.651,0.652-0.751,1.644-0.312,2.407l-7.017,6.9
		c-0.191,0.188-0.299,0.445-0.299,0.713V14.6l-3.932,3.939c-0.152-0.152-0.383-0.19-0.576-0.093l-2.829,1.414
		c-0.144,0.072-0.244,0.209-0.27,0.367c-0.026,0.159,0.026,0.32,0.14,0.434l2.829,2.829c0.095,0.095,0.222,0.146,0.354,0.146
		c0.026,0,0.054-0.002,0.08-0.006c0.159-0.026,0.295-0.127,0.367-0.271l1.414-2.829c0.096-0.192,0.059-0.425-0.094-0.577l0,0
		L9.438,16h3.986c0.268,0,0.523-0.106,0.711-0.297l6.922-7C21.345,8.859,21.664,8.95,22,8.95c0.534,0,1.036-0.208,1.414-0.585
		C24.194,7.584,24.194,6.315,23.414,5.535z M15.803,11.173l-2.947-2.947l3.828-3.764l2.894,2.894L15.803,11.173z M13.007,14H10
		v-2.974l1.43-1.398l2.967,2.967L13.007,14z"/>
</g>
<g id="invisible_shape">
	<rect fill="none" width="24" height="24"/>
</g>
</svg>
