<?xml version="1.0" encoding="utf-8"?>
<!-- Generator: Adobe Illustrator 19.2.0, SVG Export Plug-In . SVG Version: 6.00 Build 0)  -->
<svg version="1.1" xmlns="http://www.w3.org/2000/svg" xmlns:xlink="http://www.w3.org/1999/xlink" x="0px" y="0px" width="24px"
	 height="24px" viewBox="0 0 24 24" enable-background="new 0 0 24 24" xml:space="preserve">
<g id="Filled_Icons">
	<path d="M21,6.853c0-3.476-2.242-6.199-5.104-6.199c-1.521,0-2.932,0.666-3.896,1.811C11.035,1.32,9.624,0.654,8.104,0.654
		C5.242,0.654,3,3.378,3,6.853c0,3.014,0.818,5.424,2.434,7.171c-0.666,1.692-1.018,3.613-1.018,5.579
		c0,1.11,0.11,2.206,0.329,3.258C4.883,23.521,5.471,24,6.144,24c0.751,0,1.38-0.563,1.461-1.309
		c0.358-3.292,2.248-5.774,4.394-5.774c2.154,0,4.045,2.493,4.397,5.8C16.474,23.449,17.087,24,17.823,24
		c0.693,0,1.299-0.494,1.439-1.175c0.213-1.04,0.32-2.124,0.32-3.222c0-1.968-0.351-3.889-1.017-5.579
		C20.182,12.276,21,9.865,21,6.853z M16,11.5c0,0.276-0.224,0.5-0.5,0.5H14v1.5c0,0.276-0.224,0.5-0.5,0.5h-3
		c-0.276,0-0.5-0.224-0.5-0.5V12H8.5C8.224,12,8,11.776,8,11.5v-3C8,8.224,8.224,8,8.5,8H10V6.5C10,6.224,10.224,6,10.5,6h3
		C13.776,6,14,6.224,14,6.5V8h1.5C15.776,8,16,8.224,16,8.5V11.5z"/>
</g>
<g id="invisible_shape">
	<rect fill="none" width="24" height="24"/>
</g>
</svg>
