<?xml version="1.0" encoding="utf-8"?>
<!-- Generator: Adobe Illustrator 19.2.0, SVG Export Plug-In . SVG Version: 6.00 Build 0)  -->
<svg version="1.1" xmlns="http://www.w3.org/2000/svg" xmlns:xlink="http://www.w3.org/1999/xlink" x="0px" y="0px" width="24px"
	 height="24px" viewBox="0 0 24 24" enable-background="new 0 0 24 24" xml:space="preserve">
<g id="Filled_Icons">
	<path d="M21.63,4.523c-0.073-0.019-7.398-2.016-9.769-4.391c-0.188-0.189-0.536-0.189-0.724,0C8.769,2.506,1.443,4.504,1.37,4.523
		C1.151,4.582,1,4.78,1,5.006c0,8.569,0.761,15.405,10.326,18.948c0.057,0.021,0.115,0.031,0.174,0.031s0.117-0.01,0.174-0.031
		C21.239,20.411,22,13.575,22,5.006C22,4.78,21.849,4.582,21.63,4.523z M16.167,16.266c0,0.661-0.064,1.312-0.192,1.936
		c-0.102,0.496-0.544,0.854-1.049,0.854c-0.537,0-0.986-0.402-1.044-0.938c-0.196-1.841-1.22-3.229-2.382-3.229
		c-1.157,0-2.18,1.381-2.38,3.213c-0.059,0.543-0.517,0.953-1.064,0.953c-0.493,0-0.925-0.35-1.025-0.834
		c-0.131-0.628-0.197-1.286-0.197-1.957c0-1.138,0.195-2.25,0.566-3.24C6.471,11.969,6,10.537,6,8.766
		c0-2.161,1.409-3.853,3.209-3.853c0.876,0,1.694,0.352,2.291,0.965c0.597-0.613,1.415-0.965,2.292-0.965
		C15.591,4.913,17,6.606,17,8.766c0,1.771-0.471,3.204-1.4,4.26C15.972,14.018,16.167,15.13,16.167,16.266z"/>
</g>
<g id="invisible_shape">
	<rect fill="none" width="24" height="24"/>
</g>
</svg>
