<?xml version="1.0" encoding="utf-8"?>
<!-- Generator: Adobe Illustrator 19.2.0, SVG Export Plug-In . SVG Version: 6.00 Build 0)  -->
<svg version="1.1" xmlns="http://www.w3.org/2000/svg" xmlns:xlink="http://www.w3.org/1999/xlink" x="0px" y="0px" width="24px"
	 height="24px" viewBox="0 0 24 24" enable-background="new 0 0 24 24" xml:space="preserve">
<g id="Filled_Icons">
	<g>
		<path d="M15.842,18.277c-0.257,0.513-0.771,0.83-1.342,0.83c-0.75-0.032-1.273-0.495-1.442-1.087l-0.94-3.292l-0.775,1.549
			c-0.237,0.475-0.705,0.807-1.328,0.83c-0.51,0-0.971-0.231-1.262-0.668l-0.824-1.236l-0.228,0.305
			C7.419,15.883,6.971,16.107,6.5,16H3.862c1.56,2.799,5.352,6.252,7.861,7.917C11.808,23.972,11.904,24,12,24
			c0.108,0,0.216-0.035,0.306-0.104c2.197-1.689,5.791-5.243,7.368-7.896h-2.747L15.842,18.277z"/>
		<path d="M2.123,13H5.75l1.05-1.293c0.279-0.375,0.733-0.6,1.214-0.6c0.509,0.015,0.966,0.264,1.234,0.668l0.566,0.849l1.345-2.688
			c0.256-0.511,0.769-0.829,1.342-0.829c0.753,0.033,1.274,0.499,1.442,1.087l0.966,3.384C15.188,13.28,15.578,13.107,16,13h5.532
			C22.234,11.969,23,9.646,23,7.68c0-4.315-2.813-6.573-5.593-6.573c-2.063,0-4.336,1.259-5.407,4.021
			C10.945,2.41,8.729,1.17,6.72,1.17C2.965,1.17,1,4.744,1,8.273C1,10.119,1.577,12.163,2.123,13z"/>
		<path d="M23.5,14H16c-0.191,0-0.362,0.106-0.447,0.276l-0.925,1.851l-1.647-5.765c-0.057-0.201-0.229-0.354-0.502-0.362
			c-0.17,0-0.341,0.106-0.426,0.276l-2.115,4.229l-1.521-2.282C8.325,12.086,8.173,12.005,7.999,12
			c-0.148,0-0.307,0.077-0.397,0.199L6.25,14H0.5C0.224,14,0,14.224,0,14.5S0.224,15,0.5,15h6c0.156,0,0.306-0.075,0.398-0.199
			l1.078-1.436l1.607,2.412c0.112,0.168,0.268,0.228,0.464,0.221c0.16-0.01,0.32-0.115,0.399-0.275l1.925-3.849l1.647,5.763
			c0.056,0.194,0.227,0.354,0.487,0.363c0.188-0.002,0.356-0.108,0.441-0.276L16.309,15H23.5c0.275,0,0.5-0.224,0.5-0.5
			S23.775,14,23.5,14z"/>
	</g>
</g>
<g id="invisible_shape">
	<rect fill="none" width="24" height="24"/>
</g>
</svg>
