<?xml version="1.0" encoding="utf-8"?>
<!-- Generator: Adobe Illustrator 19.2.0, SVG Export Plug-In . SVG Version: 6.00 Build 0)  -->
<svg version="1.1" xmlns="http://www.w3.org/2000/svg" xmlns:xlink="http://www.w3.org/1999/xlink" x="0px" y="0px" width="24px"
	 height="24px" viewBox="0 0 24 24" enable-background="new 0 0 24 24" xml:space="preserve">
<g id="Filled_Icons">
	<path d="M23.5,0h-23C0.224,0,0,0.224,0,0.5v23C0,23.776,0.224,24,0.5,24h23c0.276,0,0.5-0.224,0.5-0.5v-23
		C24,0.224,23.776,0,23.5,0z M20,19.5c0,0.276-0.224,0.5-0.5,0.5h-5c-0.276,0-0.5-0.224-0.5-0.5V15h-4v4.5
		c0,0.276-0.224,0.5-0.5,0.5h-5C4.224,20,4,19.776,4,19.5v-15C4,4.224,4.224,4,4.5,4h5C9.776,4,10,4.224,10,4.5V9h4V4.5
		C14,4.224,14.224,4,14.5,4h5C19.776,4,20,4.224,20,4.5V19.5z"/>
</g>
<g id="invisible_shape">
	<rect fill="none" width="24" height="24"/>
</g>
</svg>
