<?xml version="1.0" encoding="utf-8"?>
<!-- Generator: Adobe Illustrator 19.2.0, SVG Export Plug-In . SVG Version: 6.00 Build 0)  -->
<svg version="1.1" xmlns="http://www.w3.org/2000/svg" xmlns:xlink="http://www.w3.org/1999/xlink" x="0px" y="0px" width="24px"
	 height="24px" viewBox="0 0 24 24" enable-background="new 0 0 24 24" xml:space="preserve">
<g id="Filled_Icons">
	<g>
		<path d="M15,14v-2.5c0-0.828-0.673-1.5-1.5-1.5H8V8.971c2.246-0.25,4-2.159,4-4.471C12,2.018,9.981,0,7.5,0S3,2.018,3,4.5
			c0,2.312,1.753,4.221,4,4.471V10H1.5C0.673,10,0,10.672,0,11.5v12C0,23.776,0.224,24,0.5,24H8v-5H3.5C3.224,19,3,18.776,3,18.5
			S3.224,18,3.5,18H8c0,0,0.018-1.839,0.05-2H3.5C3.224,16,3,15.776,3,15.5S3.224,15,3.5,15h5.013c0.456-0.604,1.174-1,1.987-1H15z
			 M5.5,5C5.224,5,5,4.776,5,4.5S5.224,4,5.5,4H7V2.5C7,2.224,7.224,2,7.5,2S8,2.224,8,2.5V4h1.5C9.776,4,10,4.224,10,4.5
			S9.776,5,9.5,5H8v1.5C8,6.776,7.776,7,7.5,7S7,6.776,7,6.5V5H5.5z M3.5,13C3.224,13,3,12.776,3,12.5S3.224,12,3.5,12h8
			c0.276,0,0.5,0.224,0.5,0.5S11.776,13,11.5,13H3.5z"/>
		<path d="M22.5,15h-12C9.673,15,9,15.672,9,16.5V24h0.5H15v-2.5c0-0.276,0.224-0.5,0.5-0.5h3c0.276,0,0.5,0.224,0.5,0.5V24h4.5
			c0.276,0,0.5-0.224,0.5-0.5v-7C24,15.672,23.327,15,22.5,15z M12.5,20h-1c-0.276,0-0.5-0.224-0.5-0.5s0.224-0.5,0.5-0.5h1
			c0.276,0,0.5,0.224,0.5,0.5S12.776,20,12.5,20z M12.5,18h-1c-0.276,0-0.5-0.224-0.5-0.5s0.224-0.5,0.5-0.5h1
			c0.276,0,0.5,0.224,0.5,0.5S12.776,18,12.5,18z M15.5,20h-1c-0.276,0-0.5-0.224-0.5-0.5s0.224-0.5,0.5-0.5h1
			c0.276,0,0.5,0.224,0.5,0.5S15.776,20,15.5,20z M15.5,18h-1c-0.276,0-0.5-0.224-0.5-0.5s0.224-0.5,0.5-0.5h1
			c0.276,0,0.5,0.224,0.5,0.5S15.776,18,15.5,18z M18.5,20h-1c-0.276,0-0.5-0.224-0.5-0.5s0.224-0.5,0.5-0.5h1
			c0.276,0,0.5,0.224,0.5,0.5S18.776,20,18.5,20z M18.5,18h-1c-0.276,0-0.5-0.224-0.5-0.5s0.224-0.5,0.5-0.5h1
			c0.276,0,0.5,0.224,0.5,0.5S18.776,18,18.5,18z M21.5,20h-1c-0.276,0-0.5-0.224-0.5-0.5s0.224-0.5,0.5-0.5h1
			c0.276,0,0.5,0.224,0.5,0.5S21.776,20,21.5,20z M21.5,18h-1c-0.276,0-0.5-0.224-0.5-0.5s0.224-0.5,0.5-0.5h1
			c0.276,0,0.5,0.224,0.5,0.5S21.776,18,21.5,18z"/>
		<rect x="16" y="22" width="2" height="2"/>
	</g>
</g>
<g id="invisible_shape">
	<rect fill="none" width="24" height="24"/>
</g>
</svg>
