<?xml version="1.0" encoding="utf-8"?>
<!-- Generator: Adobe Illustrator 19.2.0, SVG Export Plug-In . SVG Version: 6.00 Build 0)  -->
<svg version="1.1" xmlns="http://www.w3.org/2000/svg" xmlns:xlink="http://www.w3.org/1999/xlink" x="0px" y="0px" width="24px"
	 height="24px" viewBox="0 0 24 24" enable-background="new 0 0 24 24" xml:space="preserve">
<g id="Filled_Icons">
	<g>
		<path d="M23.5,12H19v12h4.5c0.276,0,0.5-0.224,0.5-0.5v-11C24,12.224,23.776,12,23.5,12z M22.5,21h-2c-0.276,0-0.5-0.224-0.5-0.5
			s0.224-0.5,0.5-0.5h2c0.276,0,0.5,0.224,0.5,0.5S22.776,21,22.5,21z M22.5,19h-2c-0.276,0-0.5-0.224-0.5-0.5s0.224-0.5,0.5-0.5h2
			c0.276,0,0.5,0.224,0.5,0.5S22.776,19,22.5,19z M22.5,17h-2c-0.276,0-0.5-0.224-0.5-0.5s0.224-0.5,0.5-0.5h2
			c0.276,0,0.5,0.224,0.5,0.5S22.776,17,22.5,17z M22.5,15h-2c-0.276,0-0.5-0.224-0.5-0.5s0.224-0.5,0.5-0.5h2
			c0.276,0,0.5,0.224,0.5,0.5S22.776,15,22.5,15z"/>
		<path d="M12,14c-2.455,0-4.631-1.19-6-3.019V24h4v-2.5c0-0.276,0.224-0.5,0.5-0.5h3c0.276,0,0.5,0.224,0.5,0.5V24h4V10.981
			C16.631,12.81,14.454,14,12,14z M9.5,20h-1C8.224,20,8,19.776,8,19.5S8.224,19,8.5,19h1c0.276,0,0.5,0.224,0.5,0.5
			S9.776,20,9.5,20z M9.5,18h-1C8.224,18,8,17.776,8,17.5S8.224,17,8.5,17h1c0.276,0,0.5,0.224,0.5,0.5S9.776,18,9.5,18z M9.5,16h-1
			C8.224,16,8,15.776,8,15.5S8.224,15,8.5,15h1c0.276,0,0.5,0.224,0.5,0.5S9.776,16,9.5,16z M12.5,20h-1c-0.276,0-0.5-0.224-0.5-0.5
			s0.224-0.5,0.5-0.5h1c0.276,0,0.5,0.224,0.5,0.5S12.776,20,12.5,20z M12.5,18h-1c-0.276,0-0.5-0.224-0.5-0.5s0.224-0.5,0.5-0.5h1
			c0.276,0,0.5,0.224,0.5,0.5S12.776,18,12.5,18z M12.5,16h-1c-0.276,0-0.5-0.224-0.5-0.5s0.224-0.5,0.5-0.5h1
			c0.276,0,0.5,0.224,0.5,0.5S12.776,16,12.5,16z M15.5,20h-1c-0.276,0-0.5-0.224-0.5-0.5s0.224-0.5,0.5-0.5h1
			c0.276,0,0.5,0.224,0.5,0.5S15.776,20,15.5,20z M15.5,18h-1c-0.276,0-0.5-0.224-0.5-0.5s0.224-0.5,0.5-0.5h1
			c0.276,0,0.5,0.224,0.5,0.5S15.776,18,15.5,18z M15.5,16h-1c-0.276,0-0.5-0.224-0.5-0.5s0.224-0.5,0.5-0.5h1
			c0.276,0,0.5,0.224,0.5,0.5S15.776,16,15.5,16z"/>
		<path d="M0,12.5v11C0,23.776,0.224,24,0.5,24H5V12H0.5C0.224,12,0,12.224,0,12.5z M1.5,14h2C3.776,14,4,14.224,4,14.5
			S3.776,15,3.5,15h-2C1.224,15,1,14.776,1,14.5S1.224,14,1.5,14z M1.5,16h2C3.776,16,4,16.224,4,16.5S3.776,17,3.5,17h-2
			C1.224,17,1,16.776,1,16.5S1.224,16,1.5,16z M1.5,18h2C3.776,18,4,18.224,4,18.5S3.776,19,3.5,19h-2C1.224,19,1,18.776,1,18.5
			S1.224,18,1.5,18z M1.5,20h2C3.776,20,4,20.224,4,20.5S3.776,21,3.5,21h-2C1.224,21,1,20.776,1,20.5S1.224,20,1.5,20z"/>
		<path d="M12,0C8.416,0,5.5,2.916,5.5,6.5S8.416,13,12,13s6.5-2.916,6.5-6.5S15.584,0,12,0z M16,7.5C16,7.776,15.776,8,15.5,8H14
			v1.5c0,0.276-0.224,0.5-0.5,0.5h-3C10.224,10,10,9.776,10,9.5V8H8.5C8.224,8,8,7.776,8,7.5v-3C8,4.224,8.224,4,8.5,4H10l0.001-1.5
			c0-0.276,0.224-0.5,0.5-0.5h3c0.133,0,0.26,0.053,0.353,0.147c0.094,0.094,0.147,0.221,0.147,0.353L14,4h1.5
			C15.776,4,16,4.224,16,4.5V7.5z"/>
	</g>
</g>
<g id="invisible_shape">
	<rect fill="none" width="24" height="24"/>
</g>
</svg>
