<?xml version="1.0" encoding="utf-8"?>
<!-- Generator: Adobe Illustrator 19.2.0, SVG Export Plug-In . SVG Version: 6.00 Build 0)  -->
<svg version="1.1" xmlns="http://www.w3.org/2000/svg" xmlns:xlink="http://www.w3.org/1999/xlink" x="0px" y="0px" width="24px"
	 height="24px" viewBox="0 0 24 24" enable-background="new 0 0 24 24" xml:space="preserve">
<g id="Filled_Icons">
	<g>
		<path d="M15.5,16h-8C7.224,16,7,16.224,7,16.5S7.224,17,7.5,17h8c0.276,0,0.5-0.224,0.5-0.5S15.776,16,15.5,16z"/>
		<path d="M15.5,18h-8C7.224,18,7,18.224,7,18.5S7.224,19,7.5,19h8c0.276,0,0.5-0.224,0.5-0.5S15.776,18,15.5,18z"/>
		<path d="M12.5,7h-2C10.224,7,10,7.224,10,7.5V9H8.5C8.224,9,8,9.224,8,9.5v2C8,11.776,8.224,12,8.5,12H10v1.5
			c0,0.276,0.224,0.5,0.5,0.5h2c0.276,0,0.5-0.224,0.5-0.5V12h1.5c0.276,0,0.5-0.224,0.5-0.5v-2C15,9.224,14.776,9,14.5,9H13V7.5
			C13,7.224,12.776,7,12.5,7z"/>
		<path d="M20.5,2H18c0,0.153,0,0.316,0,0.5V4h0.5C18.776,4,19,4.224,19,4.5v17c0,0.276-0.224,0.5-0.5,0.5h-14
			C4.224,22,4,21.776,4,21.5v-17C4,4.224,4.224,4,4.5,4H5V2H2.5C2.224,2,2,2.224,2,2.5v21C2,23.776,2.224,24,2.5,24h18
			c0.276,0,0.5-0.224,0.5-0.5v-21C21,2.224,20.776,2,20.5,2z"/>
		<path d="M6.5,6h10C16.776,6,17,5.776,17,5.5v-3C17,2.224,16.776,2,16.5,2h-2.55c-0.232-1.14-1.243-2-2.45-2S9.282,0.86,9.05,2H6.5
			C6.224,2,6,2.224,6,2.5v3C6,5.776,6.224,6,6.5,6z"/>
	</g>
</g>
<g id="invisible_shape">
	<rect fill="none" width="24" height="24"/>
</g>
</svg>
