<?xml version="1.0" encoding="utf-8"?>
<!-- Generator: Adobe Illustrator 19.2.0, SVG Export Plug-In . SVG Version: 6.00 Build 0)  -->
<svg version="1.1" xmlns="http://www.w3.org/2000/svg" xmlns:xlink="http://www.w3.org/1999/xlink" x="0px" y="0px" width="24px"
	 height="24px" viewBox="0 0 24 24" enable-background="new 0 0 24 24" xml:space="preserve">
<g id="Filled_Icons">
	<path d="M20.854,6.147l-6-6C14.76,0.053,14.633,0,14.5,0h-11C3.224,0,3,0.224,3,0.5v23C3,23.776,3.224,24,3.5,24h17
		c0.276,0,0.5-0.224,0.5-0.5v-17C21,6.367,20.947,6.241,20.854,6.147z M8,10.5C8,10.224,8.224,10,8.5,10H10V8.5
		C10,8.224,10.224,8,10.5,8h3C13.776,8,14,8.224,14,8.5V10h1.5c0.276,0,0.5,0.224,0.5,0.5v3c0,0.276-0.224,0.5-0.5,0.5H14v1.5
		c0,0.276-0.224,0.5-0.5,0.5h-3c-0.276,0-0.5-0.224-0.5-0.5V14H8.5C8.224,14,8,13.776,8,13.5V10.5z M17.5,21h-11
		C6.224,21,6,20.776,6,20.5S6.224,20,6.5,20h11c0.276,0,0.5,0.224,0.5,0.5S17.776,21,17.5,21z M17.5,19h-11
		C6.224,19,6,18.776,6,18.5S6.224,18,6.5,18h11c0.276,0,0.5,0.224,0.5,0.5S17.776,19,17.5,19z M14.5,7C14.224,7,14,6.776,14,6.5
		V1.293L19.707,7H14.5z"/>
</g>
<g id="invisible_shape">
	<rect fill="none" width="24" height="24"/>
</g>
</svg>
