<?xml version="1.0" encoding="utf-8"?>
<!-- Generator: Adobe Illustrator 19.2.0, SVG Export Plug-In . SVG Version: 6.00 Build 0)  -->
<svg version="1.1" xmlns="http://www.w3.org/2000/svg" xmlns:xlink="http://www.w3.org/1999/xlink" x="0px" y="0px" width="24px"
	 height="24px" viewBox="0 0 24 24" enable-background="new 0 0 24 24" xml:space="preserve">
<g id="Filled_Icons">
	<path d="M21.73,0.574c-0.165-0.086-0.364-0.074-0.517,0.033c-1.768,1.234-3.226,1.785-4.727,1.785c-1.787,0-3.46-0.806-4.59-2.21
		c-0.191-0.234-0.606-0.234-0.796,0.001C9.973,1.586,8.3,2.392,6.513,2.392c-1.503,0-2.961-0.55-4.727-1.785
		C1.633,0.5,1.435,0.488,1.269,0.574C1.104,0.66,1,0.831,1,1.019l0.018,14.944c0,0,1.626,5.571,10.348,8.016
		c0.044,0.012,0.089,0.019,0.135,0.019c0.045,0,0.091-0.007,0.135-0.019c8.722-2.445,10.347-8.016,10.347-8.016L22,1.019
		C22,0.831,21.896,0.66,21.73,0.574z M16,13h-2.5c-0.276,0-0.5,0.225-0.5,0.5V16h-3v-2.5c0-0.275-0.224-0.5-0.5-0.5H7v-3h2.5
		C9.776,10,10,9.776,10,9.5V7h3v2.5c0,0.276,0.224,0.5,0.5,0.5H16V13z"/>
</g>
<g id="invisible_shape">
	<rect fill="none" width="24" height="24"/>
</g>
</svg>
