<?xml version="1.0" encoding="utf-8"?>
<!-- Generator: Adobe Illustrator 19.2.0, SVG Export Plug-In . SVG Version: 6.00 Build 0)  -->
<svg version="1.1" xmlns="http://www.w3.org/2000/svg" xmlns:xlink="http://www.w3.org/1999/xlink" x="0px" y="0px" width="24px"
	 height="24px" viewBox="0 0 24 24" enable-background="new 0 0 24 24" xml:space="preserve">
<g id="Filled_Icons">
	<g>
		<path d="M19.947,7.276C19.862,7.107,19.69,7,19.5,7h-8c-0.189,0-0.362,0.107-0.447,0.276L10.191,9h10.617L19.947,7.276z"/>
		<path d="M7.722,9C7.894,8.705,8,8.367,8,8c0-1.103-0.898-2-2-2H3C1.898,6,1,6.897,1,8c0,0.367,0.105,0.706,0.28,1H7.722z"/>
		<path d="M0.53,10C0.207,10.419,0,10.931,0,11.5C0,12.879,1.121,14,2.5,14h1.694l6.932,3.392l-6.66,3.259C4.1,20.253,3.58,20,3,20
			c-1.102,0-2,0.896-2,2c0,1.103,0.898,2,2,2s2-0.897,2-2h14c0,1.103,0.897,2,2,2s2-0.897,2-2c0-1.104-0.897-2-2-2
			c-0.491,0-0.935,0.185-1.284,0.48l-6.313-3.089L20.335,14H21.5c1.379,0,2.5-1.121,2.5-2.5c0-0.564-0.195-1.081-0.513-1.5H0.53z
			 M3,23c-0.552,0-1-0.448-1-1c0-0.551,0.448-1,1-1s1,0.449,1,1C4,22.552,3.552,23,3,23z M21,21c0.552,0,1,0.449,1,1
			c0,0.552-0.448,1-1,1s-1-0.448-1-1C20,21.449,20.448,21,21,21z M18.503,21H6.024l6.239-3.051L18.503,21z M12.264,16.835L6.471,14
			h11.588L12.264,16.835z"/>
	</g>
</g>
<g id="invisible_shape">
	<rect fill="none" width="24" height="24"/>
</g>
</svg>
