<?xml version="1.0" encoding="utf-8"?>
<!-- Generator: Adobe Illustrator 19.2.0, SVG Export Plug-In . SVG Version: 6.00 Build 0)  -->
<svg version="1.1" xmlns="http://www.w3.org/2000/svg" xmlns:xlink="http://www.w3.org/1999/xlink" x="0px" y="0px" width="24px"
	 height="24px" viewBox="0 0 24 24" enable-background="new 0 0 24 24" xml:space="preserve">
<g id="Filled_Icons">
	<g>
		<path d="M22,6H12c-1.102,0-2,0.897-2,2v0.5C10,8.776,10.224,9,10.5,9h13C23.776,9,24,8.776,24,8.5V8C24,6.897,23.103,6,22,6z"/>
		<path d="M22.5,10h-11c-0.276,0-0.5,0.224-0.5,0.5v3.667c-0.069-0.388-0.251-0.759-0.55-1.058c0-0.001,0-0.001,0-0.001
			c-0.781-0.781-2.052-0.78-2.829,0l-3.535,3.536c-0.781,0.779-0.783,2.045,0,2.828C4.361,19.747,4.698,19.919,5.052,20H3
			c-1.102,0-2,0.896-2,2c0,1.103,0.898,2,2,2h5c1.102,0,2-0.897,2-2c0-1.104-0.898-2-2-2H5.948c0.354-0.081,0.691-0.254,0.966-0.529
			l1.618-1.618c0,0,0-0.001,0.001-0.001l1.917-1.917c0.299-0.299,0.481-0.67,0.55-1.059V21.5c0,1.378,1.121,2.5,2.5,2.5h7
			c1.379,0,2.5-1.122,2.5-2.5V19h-7v-6h7v-2.5C23,10.224,22.776,10,22.5,10z M5,23H3c-0.552,0-1-0.449-1-1c0-0.551,0.448-1,1-1h2V23
			z M9.743,15.229l-1.584,1.584l-1.495-1.334l1.664-1.664c0.393-0.391,1.024-0.39,1.415,0C10.132,14.205,10.132,14.839,9.743,15.229
			z"/>
	</g>
</g>
<g id="invisible_shape">
	<rect fill="none" width="24" height="24"/>
</g>
</svg>
