<?xml version="1.0" encoding="utf-8"?>
<!-- Generator: Adobe Illustrator 19.2.0, SVG Export Plug-In . SVG Version: 6.00 Build 0)  -->
<svg version="1.1" xmlns="http://www.w3.org/2000/svg" xmlns:xlink="http://www.w3.org/1999/xlink" x="0px" y="0px" width="24px"
	 height="24px" viewBox="0 0 24 24" enable-background="new 0 0 24 24" xml:space="preserve">
<g id="Filled_Icons">
	<path d="M23.854,0.153c-0.186-0.185-0.479-0.196-0.677-0.028L6.044,14.663c0.02-0.792-0.267-1.59-0.87-2.195
		c-1.133-1.133-3.109-1.133-4.242,0c-1.17,1.17-1.17,3.073,0,4.243c0.566,0.566,1.32,0.879,2.121,0.879
		c0.787,0,1.526-0.306,2.09-0.853l0.001,0.002l6.202-5.262l1.195,1.173l-5.272,6.212l0.002,0.002
		c-0.549,0.563-0.854,1.303-0.854,2.09c0,0.802,0.313,1.556,0.879,2.122s1.319,0.878,2.121,0.878c0.801,0,1.555-0.312,2.121-0.878
		c1.17-1.17,1.17-3.074,0-4.243c-0.591-0.591-1.41-0.865-2.22-0.841L23.881,0.83C24.05,0.631,24.038,0.337,23.854,0.153z
		 M1.639,16.003c-0.779-0.779-0.779-2.048,0-2.828c0.378-0.377,0.88-0.585,1.414-0.585c0.534,0,1.036,0.208,1.414,0.585
		c0.779,0.78,0.779,2.049,0,2.828C3.711,16.759,2.395,16.759,1.639,16.003z M9.417,18.954c0.534,0,1.036,0.208,1.414,0.585
		c0.779,0.779,0.779,2.049,0,2.829c-0.756,0.754-2.072,0.754-2.828,0c-0.378-0.378-0.586-0.881-0.586-1.415
		c0-0.534,0.208-1.036,0.586-1.413C8.38,19.161,8.883,18.953,9.417,18.954z"/>
</g>
<g id="invisible_shape">
	<rect fill="none" width="24" height="24"/>
</g>
</svg>
