<?xml version="1.0" encoding="utf-8"?>
<!-- Generator: Adobe Illustrator 19.2.0, SVG Export Plug-In . SVG Version: 6.00 Build 0)  -->
<svg version="1.1" xmlns="http://www.w3.org/2000/svg" xmlns:xlink="http://www.w3.org/1999/xlink" x="0px" y="0px" width="24px"
	 height="24px" viewBox="0 0 24 24" enable-background="new 0 0 24 24" xml:space="preserve">
<g id="Filled_Icons">
	<path d="M19.5,0h-15C3.121,0,2,1.122,2,2.5v19C2,22.879,3.121,24,4.5,24h15c1.379,0,2.5-1.121,2.5-2.5v-19
		C22,1.122,20.879,0,19.5,0z M15,3h1v4h-1c-1.102,0-2-0.898-2-2C13,3.897,13.898,3,15,3z M15,10h1v4h-1c-1.102,0-2-0.898-2-2
		C13,10.896,13.898,10,15,10z M6,3h1v4H6C4.898,7,4,6.102,4,5C4,3.897,4.898,3,6,3z M6,10h1v4H6c-1.102,0-2-0.898-2-2
		C4,10.896,4.898,10,6,10z M6,21c-1.102,0-2-0.897-2-2c0-1.104,0.898-2,2-2h1v4H6z M9,21H8v-4h1c1.102,0,2,0.896,2,2
		C11,20.103,10.102,21,9,21z M9,14H8v-4h1c1.102,0,2,0.896,2,2C11,13.102,10.102,14,9,14z M9,7H8V3h1c1.102,0,2,0.897,2,2
		C11,6.102,10.102,7,9,7z M18,21h-3c-1.102,0-2-0.897-2-2c0-1.104,0.898-2,2-2h3c1.103,0,2,0.896,2,2C20,20.103,19.103,21,18,21z
		 M18,14h-1v-4h1c1.103,0,2,0.896,2,2C20,13.102,19.103,14,18,14z M18,7h-1V3h1c1.103,0,2,0.897,2,2C20,6.102,19.103,7,18,7z"/>
</g>
<g id="invisible_shape">
	<rect fill="none" width="24" height="24"/>
</g>
</svg>
