<?xml version="1.0" encoding="utf-8"?>
<!-- Generator: Adobe Illustrator 19.2.0, SVG Export Plug-In . SVG Version: 6.00 Build 0)  -->
<svg version="1.1" xmlns="http://www.w3.org/2000/svg" xmlns:xlink="http://www.w3.org/1999/xlink" x="0px" y="0px" width="24px"
	 height="24px" viewBox="0 0 24 24" enable-background="new 0 0 24 24" xml:space="preserve">
<g id="Filled_Icons">
	<path d="M21.139,2.867c-1.317-1.316-3.075-2.041-4.95-2.041s-3.633,0.725-4.949,2.041L6.936,7.171l-0.001,0L2.047,12.06
		c-2.73,2.729-2.73,7.169,0,9.899c1.365,1.365,3.157,2.047,4.95,2.047c1.792,0,3.585-0.682,4.949-2.047l4.742-4.742l0.001-0.001
		l4.449-4.449C23.868,10.037,23.868,5.597,21.139,2.867z M11.239,21.252c-2.34,2.34-6.146,2.339-8.485,0
		c-2.34-2.339-2.34-6.145,0-8.485l4.242-4.243l8.485,8.486L11.239,21.252z M19.018,5.696c-0.195,0.194-0.512,0.194-0.707,0
		c-1.364-1.366-3.585-1.366-4.95,0l-2.12,2.121c-0.098,0.098-0.226,0.146-0.354,0.146s-0.256-0.048-0.353-0.146
		c-0.195-0.195-0.195-0.511,0-0.708l2.12-2.121c1.755-1.754,4.61-1.754,6.364,0C19.213,5.184,19.213,5.5,19.018,5.696z"/>
</g>
<g id="invisible_shape">
	<rect fill="none" width="24" height="24"/>
</g>
</svg>
