<?xml version="1.0" encoding="utf-8"?>
<!-- Generator: Adobe Illustrator 19.2.0, SVG Export Plug-In . SVG Version: 6.00 Build 0)  -->
<svg version="1.1" xmlns="http://www.w3.org/2000/svg" xmlns:xlink="http://www.w3.org/1999/xlink" x="0px" y="0px" width="24px"
	 height="24px" viewBox="0 0 24 24" enable-background="new 0 0 24 24" xml:space="preserve">
<g id="Filled_Icons">
	<g>
		<g>
			<polygon points="11.152,18.875 12.86,24 14.237,24 18.87,17.267 			"/>
		</g>
		<g>
			<path d="M15.451,24h3.551c0.827,0,1.5-0.673,1.5-1.5v-5.573l-0.215,0.044L15.451,24z"/>
		</g>
		<g>
			<path d="M20.502,0.5c0-0.276-0.224-0.5-0.5-0.5h-9c-0.276,0-0.5,0.224-0.5,0.5v3.861l10-3.077V0.5z"/>
		</g>
		<g>
			<path d="M1.675,22.126C1.434,23.065,2.138,24,3.129,24h3.292l-0.824-5.799C3.708,18.701,2.179,20.167,1.675,22.126z"/>
		</g>
		<g>
			<path d="M7.002,18c-0.143,0-0.279,0.024-0.419,0.035L7.431,24h4.375l-2-6H7.002z"/>
		</g>
		<g>
			<path d="M6.321,4.75C5.004,4.338,3.734,4.644,3.487,5.436l-1.94,6.203c0.248-0.79,1.517-1.097,2.834-0.685L23,16.521v-7
				L6.321,4.75z"/>
		</g>
		<g>
			<polygon points="10.502,13.828 10.502,16.924 10.834,17.92 18.702,16.281 			"/>
		</g>
		<g>
			<polygon points="20.502,2.33 11.347,5.148 20.502,7.767 			"/>
		</g>
		<g>
			<ellipse transform="matrix(0.2985 -0.9544 0.9544 0.2985 -10.0192 13.1389)" cx="3.928" cy="13.385" rx="1.5" ry="2.5"/>
		</g>
	</g>
</g>
<g id="invisible_shape">
	<rect fill="none" width="24" height="24"/>
</g>
</svg>
