<?xml version="1.0" encoding="utf-8"?>
<!-- Generator: Adobe Illustrator 19.2.0, SVG Export Plug-In . SVG Version: 6.00 Build 0)  -->
<svg version="1.1" xmlns="http://www.w3.org/2000/svg" xmlns:xlink="http://www.w3.org/1999/xlink" x="0px" y="0px" width="24px"
	 height="24px" viewBox="0 0 24 24" enable-background="new 0 0 24 24" xml:space="preserve">
<g id="Filled_Icons">
	<g>
		<path d="M20.5,4h-17C3.224,4,3,4.224,3,4.5v16C3,22.43,4.57,24,6.5,24h11c1.93,0,3.5-1.57,3.5-3.5v-16C21,4.224,20.775,4,20.5,4z
			 M19,19.5c0,0.276-0.225,0.5-0.5,0.5h-13C5.224,20,5,19.776,5,19.5v-13C5,6.224,5.224,6,5.5,6h13C18.775,6,19,6.224,19,6.5V19.5z"
			/>
		<path d="M20,0H4C2.897,0,2,0.896,2,2v0.5C2,2.776,2.224,3,2.5,3h19C21.775,3,22,2.776,22,2.5V2C22,0.896,21.103,0,20,0z"/>
		<path d="M16.5,11H14V8.5C14,8.224,13.775,8,13.5,8h-3C10.224,8,10,8.224,10,8.5V11H7.5C7.224,11,7,11.224,7,11.5v3
			C7,14.776,7.224,15,7.5,15H10v2.5c0,0.276,0.224,0.5,0.5,0.5h3c0.275,0,0.5-0.224,0.5-0.5V15h2.5c0.275,0,0.5-0.224,0.5-0.5v-3
			C17,11.224,16.775,11,16.5,11z"/>
	</g>
</g>
<g id="invisible_shape">
	<rect fill="none" width="24" height="24"/>
</g>
</svg>
