<?xml version="1.0" encoding="utf-8"?>
<!-- Generator: Adobe Illustrator 19.2.0, SVG Export Plug-In . SVG Version: 6.00 Build 0)  -->
<svg version="1.1" xmlns="http://www.w3.org/2000/svg" xmlns:xlink="http://www.w3.org/1999/xlink" x="0px" y="0px" width="24px"
	 height="24px" viewBox="0 0 24 24" enable-background="new 0 0 24 24" xml:space="preserve">
<g id="Filled_Icons">
	<path d="M23.459,15.15L18,12l5.459-3.153c0.239-0.137,0.321-0.442,0.183-0.682l-2.5-4.331c-0.066-0.115-0.176-0.199-0.304-0.232
		c-0.128-0.035-0.265-0.018-0.379,0.049L15,6.803V0.5C15,0.224,14.775,0,14.5,0h-5C9.224,0,9,0.224,9,0.5v6.301L3.542,3.65
		C3.427,3.584,3.29,3.566,3.163,3.602C3.035,3.635,2.926,3.719,2.859,3.834l-2.5,4.331C0.221,8.404,0.303,8.71,0.542,8.847L6,12
		l-5.458,3.15c-0.239,0.14-0.321,0.444-0.183,0.684l2.5,4.331c0.066,0.113,0.176,0.197,0.304,0.231
		c0.127,0.033,0.264,0.017,0.379-0.05L9,17.196V23.5C9,23.776,9.224,24,9.5,24h5c0.275,0,0.5-0.224,0.5-0.5v-6.304l5.459,3.15
		c0.114,0.066,0.251,0.083,0.379,0.05c0.128-0.034,0.237-0.118,0.304-0.231l2.5-4.331c0.066-0.115,0.084-0.252,0.05-0.38
		C23.657,15.327,23.573,15.217,23.459,15.15z"/>
</g>
<g id="invisible_shape">
	<rect fill="none" width="24" height="24"/>
</g>
</svg>
