<?xml version="1.0" encoding="utf-8"?>
<!-- Generator: Adobe Illustrator 19.2.0, SVG Export Plug-In . SVG Version: 6.00 Build 0)  -->
<svg version="1.1" xmlns="http://www.w3.org/2000/svg" xmlns:xlink="http://www.w3.org/1999/xlink" x="0px" y="0px" width="24px"
	 height="24px" viewBox="0 0 24 24" enable-background="new 0 0 24 24" xml:space="preserve">
<g id="Filled_Icons">
	<path d="M18.435,19.044l-0.424-2.747c-0.116-0.746-0.75-1.292-1.515-1.297H7.33l0.934-7.723C8.383,4.879,10.356,3,12.759,3h0.833
		C13.799,3.582,14.349,4,15,4h4c0.827,0,1.5-0.673,1.5-1.5S19.827,1,19,1h-4c-0.651,0-1.201,0.419-1.408,1h-0.833
		C9.823,2,7.41,4.297,7.269,7.193L5.719,20H4.5c-0.215,0-0.406,0.138-0.475,0.343l-1,3C2.975,23.494,3,23.662,3.095,23.793
		C3.188,23.923,3.339,24,3.5,24h5c0.161,0,0.311-0.077,0.405-0.207c0.095-0.131,0.12-0.299,0.069-0.45l-1-3
		C7.906,20.138,7.715,20,7.5,20H6.725l0.484-4H16.5c0.263,0.002,0.483,0.192,0.523,0.451l0.404,2.622
		C16.325,19.333,15.5,20.32,15.5,21.5c0,1.379,1.121,2.5,2.5,2.5s2.5-1.121,2.5-2.5C20.5,20.271,19.606,19.252,18.435,19.044z"/>
</g>
<g id="invisible_shape">
	<rect fill="none" width="24" height="24"/>
</g>
</svg>
