<?xml version="1.0" encoding="utf-8"?>
<!-- Generator: Adobe Illustrator 19.2.0, SVG Export Plug-In . SVG Version: 6.00 Build 0)  -->
<svg version="1.1" xmlns="http://www.w3.org/2000/svg" xmlns:xlink="http://www.w3.org/1999/xlink" x="0px" y="0px" width="24px"
	 height="24px" viewBox="0 0 24 24" enable-background="new 0 0 24 24" xml:space="preserve">
<g id="Filled_Icons">
	<g>
		<path d="M22.5,9.006h-21c-0.827,0-1.5,0.672-1.5,1.5c0,0.827,0.673,1.5,1.5,1.5h0.512c0.181,3.715,2.351,7.213,5.427,8.873
			C5.842,21.527,4.5,22.515,4.5,23.506c0,0.276,0.224,0.5,0.5,0.494c0,0,14.164,0,14.167,0c0.276,0,0.343-0.218,0.343-0.494
			c0-1.177-1.859-2.184-2.95-2.626c3.077-1.661,5.248-5.159,5.428-8.873H22.5c0.827,0,1.5-0.673,1.5-1.5
			C24,9.678,23.327,9.006,22.5,9.006z M9.963,18.202c-0.107,0.253-0.398,0.375-0.653,0.268c-1.693-0.705-3.069-2.081-3.774-3.773
			c-0.107-0.255,0.014-0.547,0.268-0.654c0.255-0.107,0.548,0.014,0.654,0.269c0.604,1.451,1.784,2.631,3.236,3.236
			C9.949,17.653,10.069,17.946,9.963,18.202z"/>
		<path d="M14,8h4c0.161,0.006,0.313-0.072,0.406-0.202c4.08-5.691,4.506-6.287,3.409-7.18c-0.197-0.161-0.446-0.325-0.796-0.325
			c-0.898,0-1.864,0.9-7.387,6.873c-0.135,0.146-0.171,0.357-0.091,0.54C13.621,7.888,13.801,8.006,14,8z"/>
	</g>
</g>
<g id="invisible_shape">
	<rect fill="none" width="24" height="24"/>
</g>
</svg>
