<?xml version="1.0" encoding="utf-8"?>
<!-- Generator: Adobe Illustrator 19.2.0, SVG Export Plug-In . SVG Version: 6.00 Build 0)  -->
<svg version="1.1" xmlns="http://www.w3.org/2000/svg" xmlns:xlink="http://www.w3.org/1999/xlink" x="0px" y="0px" width="24px"
	 height="24px" viewBox="0 0 24 24" enable-background="new 0 0 24 24" xml:space="preserve">
<g id="Filled_Icons">
	<g>
		<path d="M18.559,8l-2.111-4.724C16.362,3.107,16.19,3,16,3H8C7.811,3,7.638,3.107,7.553,3.276L5.441,8H18.559z"/>
		<path d="M22.5,9h-21c-0.923,0-1.621,0.836-1.468,1.677c0.882,2.352,1.506,4.089,1.967,5.372C3.312,19.702,3.419,20,4.5,20h15
			c1.082,0,1.19-0.299,2.506-3.963c0.46-1.283,1.083-3.017,1.962-5.36C24.121,9.836,23.423,9,22.5,9z M15.5,15.5
			c0,0.276-0.224,0.5-0.5,0.5h-1.5v1.5c0,0.276-0.224,0.5-0.5,0.5h-2c-0.276,0-0.5-0.224-0.5-0.5V16H9c-0.276,0-0.5-0.224-0.5-0.5
			v-2C8.5,13.224,8.724,13,9,13h1.5v-1.5c0-0.276,0.224-0.5,0.5-0.5h2c0.276,0,0.5,0.224,0.5,0.5V13H15c0.276,0,0.5,0.224,0.5,0.5
			V15.5z"/>
		<path d="M4.322,8l0.898-1.795l-0.24-0.842c-0.104-0.366-0.571-0.488-0.84-0.211L1.383,8H4.322z"/>
		<path d="M19.678,8l-0.898-1.795l0.24-0.842c0.103-0.366,0.571-0.488,0.84-0.211L22.617,8H19.678z"/>
	</g>
</g>
<g id="invisible_shape">
	<rect fill="none" width="24" height="24"/>
</g>
</svg>
