<?xml version="1.0" encoding="utf-8"?>
<!-- Generator: Adobe Illustrator 19.2.0, SVG Export Plug-In . SVG Version: 6.00 Build 0)  -->
<svg version="1.1" xmlns="http://www.w3.org/2000/svg" xmlns:xlink="http://www.w3.org/1999/xlink" x="0px" y="0px" width="24px"
	 height="24px" viewBox="0 0 24 24" enable-background="new 0 0 24 24" xml:space="preserve">
<g id="Filled_Icons">
	<g>
		<path d="M20.5,3H17v3h1v8h-2c-0.189,0-0.362,0.106-0.447,0.276l-0.926,1.85l-1.646-5.764c-0.057-0.197-0.229-0.342-0.435-0.36
			c-0.212-0.024-0.401,0.091-0.493,0.274l-2.115,4.23l-1.521-2.283c-0.09-0.136-0.24-0.218-0.402-0.223
			c-0.172,0.004-0.316,0.069-0.414,0.201L6.25,14H5V6h1V3H2.5C2.224,3,2,3.224,2,3.5v20C2,23.776,2.224,24,2.5,24h18
			c0.275,0,0.5-0.224,0.5-0.5v-20C21,3.224,20.775,3,20.5,3z M18,20H5v-5h1.5c0.157,0,0.306-0.073,0.399-0.199l1.076-1.436
			l1.608,2.412c0.099,0.149,0.265,0.232,0.447,0.223c0.178-0.012,0.336-0.117,0.416-0.276l1.925-3.85l1.647,5.763
			c0.057,0.198,0.229,0.342,0.434,0.361c0.228,0.015,0.406-0.101,0.494-0.274L16.309,15H18V20z"/>
		<path d="M7.5,7h8C15.775,7,16,6.776,16,6.5v-4C16,2.224,15.775,2,15.5,2h-1.551C13.717,0.853,12.67,0,11.5,0
			c-1.174,0-2.218,0.854-2.45,2H7.5C7.224,2,7,2.224,7,2.5v4C7,6.776,7.224,7,7.5,7z"/>
	</g>
</g>
<g id="invisible_shape">
	<rect fill="none" width="24" height="24"/>
</g>
</svg>
