<?xml version="1.0" encoding="utf-8"?>
<!-- Generator: Adobe Illustrator 19.2.0, SVG Export Plug-In . SVG Version: 6.00 Build 0)  -->
<svg version="1.1" xmlns="http://www.w3.org/2000/svg" xmlns:xlink="http://www.w3.org/1999/xlink" x="0px" y="0px" width="24px"
	 height="24px" viewBox="0 0 24 24" enable-background="new 0 0 24 24" xml:space="preserve">
<g id="Filled_Icons">
	<g>
		<path d="M17.519,9.637l-1.442-5.051l-2.087,10.016c-0.047,0.222-0.237,0.385-0.465,0.396C13.517,15,13.508,15,13.5,15
			c-0.218,0-0.411-0.142-0.477-0.35l-2.602-8.241L8.957,9.702c-0.074,0.167-0.233,0.28-0.415,0.295
			c-0.181,0.021-0.356-0.069-0.458-0.221L6.5,7.4L4.916,9.777C4.823,9.916,4.667,10,4.5,10H0v8h2.793l0.854-0.854
			c0.188-0.188,0.519-0.188,0.707,0L6,18.794l0.647-0.647C6.74,18.053,6.867,18,7,18h2.793l0.853-0.854
			c0.188-0.188,0.52-0.188,0.707,0L13,18.794l0.646-0.647C13.74,18.053,13.867,18,14,18h2.793l0.854-0.854
			c0.188-0.188,0.52-0.188,0.707,0L20,18.794l0.646-0.647C20.74,18.053,20.867,18,21,18h3v-8h-6C17.776,10,17.58,9.852,17.519,9.637
			z"/>
		<path d="M20.354,19.854C20.26,19.948,20.133,20,20,20s-0.26-0.052-0.354-0.146L18,18.206l-0.646,0.647
			C17.26,18.948,17.133,19,17,19h-2.793l-0.853,0.854C13.26,19.948,13.133,20,13,20s-0.26-0.052-0.354-0.146L11,18.206l-0.646,0.647
			C10.26,18.948,10.133,19,10,19H7.207l-0.853,0.854C6.26,19.948,6.133,20,6,20s-0.26-0.052-0.353-0.146L4,18.206l-0.647,0.647
			C3.26,18.948,3.133,19,3,19H0v2.5C0,22.878,1.121,24,2.5,24h19c1.378,0,2.5-1.122,2.5-2.5V19h-2.793L20.354,19.854z"/>
		<path d="M21.5,0h-19C1.121,0,0,1.121,0,2.5V9h4.232l1.852-2.778c0.185-0.277,0.647-0.277,0.832,0l1.496,2.245l1.631-3.671
			c0.084-0.189,0.278-0.31,0.484-0.296c0.208,0.012,0.387,0.15,0.449,0.349l2.424,7.676L15.51,2.397
			C15.558,2.172,15.752,2.009,15.981,2c0.231-0.016,0.437,0.141,0.499,0.362L18.377,9H24V2.5C24,1.121,22.878,0,21.5,0z"/>
	</g>
</g>
<g id="invisible_shape">
	<rect fill="none" width="24" height="24"/>
</g>
</svg>
