<?xml version="1.0" encoding="utf-8"?>
<!-- Generator: Adobe Illustrator 19.2.0, SVG Export Plug-In . SVG Version: 6.00 Build 0)  -->
<svg version="1.1" xmlns="http://www.w3.org/2000/svg" xmlns:xlink="http://www.w3.org/1999/xlink" x="0px" y="0px" width="24px"
	 height="24px" viewBox="0 0 24 24" enable-background="new 0 0 24 24" xml:space="preserve">
<g id="Filled_Icons">
	<g>
		<path d="M23.707,22.294l-6.003-6.002C19.123,14.771,20,12.74,20,10.5C20,5.813,16.187,2,11.5,2C7.326,2,3.852,5.028,3.141,9h2.494
			l1.566-2.708C7.5,5.776,8.067,5.478,8.669,5.552c0.593,0.067,1.089,0.479,1.265,1.05l0.899,2.921l0.825-1.651
			c0.239-0.478,0.715-0.793,1.249-0.826c0.529-0.034,1.044,0.22,1.341,0.665l0.846,1.269l0.701-0.9
			c0.509-0.654,1.45-0.772,2.105-0.263c0.654,0.509,0.771,1.451,0.263,2.105l-1.979,2.542c-0.296,0.38-0.759,0.598-1.238,0.578
			c-0.482-0.018-0.926-0.266-1.193-0.667l-0.566-0.849l-1.344,2.688c-0.256,0.511-0.777,0.829-1.342,0.829
			c-0.041,0-0.082-0.001-0.124-0.005c-0.61-0.051-1.129-0.469-1.31-1.054l-0.989-3.216l-0.278,0.483C7.53,11.715,7.035,12,6.5,12
			H3.141c0.712,3.973,4.186,7,8.359,7c1.727,0,3.333-0.521,4.676-1.409l6.117,6.117C22.488,23.902,22.744,24,23,24
			s0.512-0.098,0.707-0.292C24.098,23.316,24.098,22.684,23.707,22.294z"/>
		<g>
			<path d="M10.5,14.043c-0.014,0-0.027-0.001-0.041-0.001c-0.204-0.018-0.377-0.157-0.436-0.352L8.359,8.285l-1.427,2.466
				C6.844,10.905,6.679,11,6.5,11h-6C0.224,11,0,10.776,0,10.5S0.224,10,0.5,10h5.712l1.855-3.208c0.1-0.171,0.283-0.27,0.489-0.246
				c0.197,0.023,0.362,0.16,0.421,0.35l1.634,5.307l1.941-3.883c0.08-0.159,0.238-0.265,0.416-0.275
				c0.181-0.004,0.349,0.073,0.447,0.222l1.615,2.422l1.553-1.994c0.17-0.219,0.484-0.258,0.701-0.087
				c0.219,0.169,0.258,0.484,0.088,0.701l-1.978,2.542c-0.098,0.128-0.226,0.209-0.413,0.192c-0.16-0.005-0.308-0.088-0.397-0.222
				l-1.523-2.283l-2.114,4.229C10.862,13.936,10.689,14.043,10.5,14.043z"/>
		</g>
	</g>
</g>
<g id="invisible_shape">
	<rect fill="none" width="24" height="24"/>
</g>
</svg>
