<?xml version="1.0" encoding="utf-8"?>
<!-- Generator: Adobe Illustrator 19.2.0, SVG Export Plug-In . SVG Version: 6.00 Build 0)  -->
<svg version="1.1" xmlns="http://www.w3.org/2000/svg" xmlns:xlink="http://www.w3.org/1999/xlink" x="0px" y="0px" width="24px"
	 height="24px" viewBox="0 0 24 24" enable-background="new 0 0 24 24" xml:space="preserve">
<g id="Filled_Icons">
	<g>
		<path d="M17.519,9.637l-1.442-5.051l-2.087,10.016c-0.047,0.222-0.237,0.385-0.465,0.396C13.517,15,13.508,15,13.5,15
			c-0.218,0-0.411-0.142-0.477-0.35l-2.602-8.241L8.957,9.702c-0.074,0.167-0.233,0.28-0.415,0.295
			c-0.176,0.021-0.357-0.069-0.458-0.221L6.5,7.4L4.916,9.777C4.823,9.916,4.667,10,4.5,10H0v11.5C0,22.878,1.121,24,2.5,24h19
			c1.378,0,2.5-1.122,2.5-2.5V10h-6C17.776,10,17.58,9.852,17.519,9.637z M5,21.5C5,21.776,4.775,22,4.5,22
			C4.224,22,4,21.776,4,21.5v-1C4,20.224,4.224,20,4.5,20C4.775,20,5,20.224,5,20.5V21.5z M8,21.5C8,21.776,7.775,22,7.5,22
			C7.224,22,7,21.776,7,21.5v-3C7,18.224,7.224,18,7.5,18C7.775,18,8,18.224,8,18.5V21.5z M11,21.5c0,0.276-0.225,0.5-0.5,0.5
			c-0.276,0-0.5-0.224-0.5-0.5v-1c0-0.276,0.224-0.5,0.5-0.5c0.275,0,0.5,0.224,0.5,0.5V21.5z M14,21.5c0,0.276-0.225,0.5-0.5,0.5
			c-0.276,0-0.5-0.224-0.5-0.5v-3c0-0.276,0.224-0.5,0.5-0.5c0.275,0,0.5,0.224,0.5,0.5V21.5z M17,21.5c0,0.276-0.225,0.5-0.5,0.5
			c-0.276,0-0.5-0.224-0.5-0.5v-1c0-0.276,0.224-0.5,0.5-0.5c0.275,0,0.5,0.224,0.5,0.5V21.5z M19,18.5c0-0.276,0.224-0.5,0.5-0.5
			c0.275,0,0.5,0.224,0.5,0.5v3c0,0.276-0.225,0.5-0.5,0.5c-0.276,0-0.5-0.224-0.5-0.5V18.5z"/>
		<path d="M21.5,0h-19C1.121,0,0,1.121,0,2.5V9h4.232l1.852-2.778c0.185-0.277,0.647-0.277,0.832,0l1.496,2.245l1.631-3.671
			c0.084-0.189,0.278-0.31,0.484-0.296c0.208,0.012,0.387,0.15,0.449,0.349l2.424,7.676L15.51,2.397
			C15.558,2.172,15.752,2.009,15.981,2c0.223-0.016,0.436,0.141,0.499,0.362L18.377,9H24V2.5C24,1.121,22.878,0,21.5,0z"/>
	</g>
</g>
<g id="invisible_shape">
	<rect fill="none" width="24" height="24"/>
</g>
</svg>
