<?xml version="1.0" encoding="utf-8"?>
<!-- Generator: Adobe Illustrator 19.2.0, SVG Export Plug-In . SVG Version: 6.00 Build 0)  -->
<svg version="1.1" xmlns="http://www.w3.org/2000/svg" xmlns:xlink="http://www.w3.org/1999/xlink" x="0px" y="0px" width="24px"
	 height="24px" viewBox="0 0 24 24" enable-background="new 0 0 24 24" xml:space="preserve">
<g id="Filled_Icons">
	<g>
		<path d="M3,18.5C3,19.879,4.121,21,5.5,21H8v3h1v-3h2.5c1.379,0,2.5-1.121,2.5-2.5V18h-4c-0.276,0-0.5-0.224-0.5-0.5
			S9.724,17,10,17h4v-1h-3c-0.276,0-0.5-0.224-0.5-0.5S10.724,15,11,15h3v-1h-4c-0.276,0-0.5-0.224-0.5-0.5S9.724,13,10,13h4v-2H3
			V18.5z"/>
		<path d="M18,0h-7c-0.553,0-1,0.448-1,1v1.5C10,3.327,9.327,4,8.5,4S7,3.327,7,2.5V2c0-0.552-0.447-1-1-1S5,1.448,5,2v0.5
			c0,1.759,1.309,3.204,3,3.449V7H5.5C4.121,7,3,8.122,3,9.5V10h11V9.5C14,8.122,12.879,7,11.5,7H9V5.949
			c1.691-0.245,3-1.69,3-3.449V2h6c1.654,0,3,1.346,3,3v18.516c0,0.553,0.447,1,1,1s1-0.447,1-1V5C23,2.243,20.757,0,18,0z"/>
	</g>
</g>
<g id="invisible_shape">
	<rect fill="none" width="24" height="24"/>
</g>
</svg>
