<?xml version="1.0" encoding="utf-8"?>
<!-- Generator: Adobe Illustrator 19.2.0, SVG Export Plug-In . SVG Version: 6.00 Build 0)  -->
<svg version="1.1" xmlns="http://www.w3.org/2000/svg" xmlns:xlink="http://www.w3.org/1999/xlink" x="0px" y="0px" width="24px"
	 height="24px" viewBox="0 0 24 24" enable-background="new 0 0 24 24" xml:space="preserve">
<g id="Filled_Icons">
	<g>
		<path d="M12,0C5.383,0,0,5.383,0,12s5.383,12,12,12c6.616,0,12-5.383,12-12S18.616,0,12,0z M12,23C5.935,23,1,18.066,1,12
			S5.935,1,12,1s11,4.934,11,11S18.065,23,12,23z"/>
		<path d="M12,3c-4.963,0-9,4.037-9,9c0,4.962,4.037,9,9,9c4.962,0,9-4.038,9-9C21,7.037,16.962,3,12,3z M17,13.5
			c0,0.276-0.224,0.5-0.5,0.5H14v2.5c0,0.276-0.224,0.5-0.5,0.5h-3c-0.276,0-0.5-0.224-0.5-0.5V14H7.5C7.224,14,7,13.776,7,13.5v-3
			C7,10.224,7.224,10,7.5,10H10V7.5C10,7.224,10.224,7,10.5,7h3C13.776,7,14,7.224,14,7.5V10h2.5c0.276,0,0.5,0.224,0.5,0.5V13.5z"
			/>
	</g>
</g>
<g id="invisible_shape">
	<rect fill="none" width="24" height="24"/>
</g>
</svg>
