<?xml version="1.0" encoding="utf-8"?>
<!-- Generator: Adobe Illustrator 19.2.0, SVG Export Plug-In . SVG Version: 6.00 Build 0)  -->
<svg version="1.1" xmlns="http://www.w3.org/2000/svg" xmlns:xlink="http://www.w3.org/1999/xlink" x="0px" y="0px" width="24px"
	 height="24px" viewBox="0 0 24 24" enable-background="new 0 0 24 24" xml:space="preserve">
<g id="Filled_Icons">
	<g>
		<path d="M19,2.006c-3.417,0-5.477,1.618-5.908,2.982c-0.949-0.086-1.426-0.468-1.965-0.904c-0.601-0.485-1.28-1.036-2.586-1.036
			c-1.449,0-2.203,1.309-2.868,2.462c-0.601,1.043-1.169,2.027-2.11,2.027c-0.965,0-1.365-0.58-1.873-1.314
			c-0.241-0.35-0.491-0.712-0.818-1.016C0.669,5.019,0.354,5.03,0.164,5.232C-0.024,5.434-0.013,5.751,0.19,5.938
			c0.248,0.23,0.457,0.532,0.678,0.852c0.537,0.778,1.206,1.746,2.695,1.746c1.519,0,2.294-1.344,2.977-2.527
			c0.703-1.221,1.189-1.962,2.002-1.962c0.951,0,1.395,0.359,1.957,0.813c0.602,0.487,1.283,1.027,2.587,1.124
			C13.488,7.357,15.55,9.006,19,9.006c2.484,0,5-1.202,5-3.5C24,3.233,21.424,2.006,19,2.006z"/>
		<path d="M18.543,17.034c-2.209,0-3.581,1.016-3.98,1.938c-0.49-0.071-0.767-0.276-1.085-0.534c-0.396-0.32-0.889-0.72-1.808-0.72
			c-1.052,0-1.573,0.906-2.033,1.704c-0.447,0.775-0.754,1.246-1.238,1.246c-0.823,0-1.026-0.903-1.652-1.485
			c-0.202-0.187-0.519-0.176-0.707,0.026c-0.189,0.202-0.177,0.519,0.025,0.707c0.917,0.851,0.843,1.752,2.334,1.752
			c1.098,0,1.656-0.969,2.104-1.747c0.432-0.748,0.726-1.203,1.167-1.203c0.566,0,0.822,0.209,1.179,0.497
			c0.375,0.304,0.853,0.655,1.678,0.75c0.356,0.942,1.749,2.012,4.017,2.012c1.718,0,3.457-0.849,3.457-2.472
			C22,17.901,20.219,17.034,18.543,17.034z"/>
		<path d="M6.67,11.719c0.566,0,0.822,0.209,1.179,0.497c0.375,0.304,0.853,0.655,1.678,0.749c0.356,0.942,1.749,2.012,4.017,2.012
			c1.718,0,3.457-0.849,3.457-2.472c0-1.605-1.781-2.472-3.457-2.472c-2.209,0-3.581,1.016-3.981,1.939
			c-0.49-0.071-0.767-0.276-1.085-0.534c-0.396-0.32-0.889-0.72-1.808-0.72c-1.052,0-1.573,0.906-2.033,1.704
			c-0.447,0.775-0.754,1.246-1.238,1.246c-0.521,0-0.731-0.27-1.091-0.789c-0.164-0.238-0.333-0.484-0.562-0.695
			c-0.202-0.187-0.518-0.177-0.707,0.026c-0.189,0.202-0.177,0.519,0.025,0.707c0.149,0.138,0.281,0.329,0.421,0.532
			c0.355,0.515,0.844,1.221,1.913,1.221c1.098,0,1.656-0.969,2.105-1.747C5.935,12.174,6.228,11.719,6.67,11.719z"/>
	</g>
</g>
<g id="invisible_shape">
	<rect fill="none" width="24" height="24"/>
</g>
</svg>
