<?xml version="1.0" encoding="utf-8"?>
<!-- Generator: Adobe Illustrator 19.2.0, SVG Export Plug-In . SVG Version: 6.00 Build 0)  -->
<svg version="1.1" xmlns="http://www.w3.org/2000/svg" xmlns:xlink="http://www.w3.org/1999/xlink" x="0px" y="0px" width="24px"
	 height="24px" viewBox="0 0 24 24" enable-background="new 0 0 24 24" xml:space="preserve">
<g id="Filled_Icons">
	<path d="M20.5,8.006c-1.379,0-2.5,1.121-2.5,2.5c0,1.208,0.859,2.217,2,2.449v6.551c0,0.827-0.674,1.5-1.5,1.5
		c-0.827,0-1.5-0.673-1.5-1.5v-2.999c0-1.655-1.346-3.001-3-3.001s-3,1.346-3,3v5c0,0.827-0.674,1.5-1.5,1.5
		c-0.827,0-1.5-0.673-1.5-1.5v-7.025c2.799-0.254,5-2.611,5-5.475v-5c0-1.208-0.86-2.217-2-2.45v-1.05c0-0.276-0.225-0.5-0.5-0.5
		c-0.804,0-2,0.533-2,2c0,1.467,1.196,2,2,2c0.275,0,0.5-0.224,0.5-0.5V2.598c0.58,0.207,1,0.756,1,1.408v5
		c0,2.482-2.019,4.5-4.5,4.5S3,11.488,3,9.006v-5c0-0.651,0.419-1.201,1-1.408v0.908c0,0.276,0.224,0.5,0.5,0.5c0.804,0,2-0.533,2-2
		c0-1.467-1.196-2-2-2c-0.276,0-0.5,0.224-0.5,0.5v1.05c-1.141,0.233-2,1.242-2,2.45v5c0,2.864,2.201,5.221,5,5.475v7.025
		c0,1.378,1.121,2.5,2.5,2.5c1.378,0,2.5-1.122,2.5-2.5v-5c0-1.104,0.896-2,2-2c1.102,0,2,0.896,2,2.001v2.999
		c0,1.378,1.121,2.5,2.5,2.5c1.378,0,2.5-1.122,2.5-2.5v-6.551c1.14-0.232,2-1.241,2-2.449C23,9.127,21.878,8.006,20.5,8.006z"/>
</g>
<g id="invisible_shape">
	<rect fill="none" width="24" height="24"/>
</g>
</svg>
