<?xml version="1.0" encoding="utf-8"?>
<!-- Generator: Adobe Illustrator 19.2.0, SVG Export Plug-In . SVG Version: 6.00 Build 0)  -->
<svg version="1.1" xmlns="http://www.w3.org/2000/svg" xmlns:xlink="http://www.w3.org/1999/xlink" x="0px" y="0px" width="24px"
	 height="24px" viewBox="0 0 24 24" enable-background="new 0 0 24 24" xml:space="preserve">
<g id="Filled_Icons">
	<path d="M18.499,5H15.5H15V1h1c0.276,0,0.5-0.224,0.5-0.5S16.276,0,16,0h-2.5h-2H9C8.724,0,8.5,0.224,8.5,0.5S8.724,1,9,1h1v4H9.5
		h-3C6.224,5,6,5.224,6,5.5S6.224,6,6.5,6H9v2h3c0.276,0,0.5,0.224,0.5,0.5S12.276,9,12,9H9v1h3c0.276,0,0.5,0.224,0.5,0.5
		S12.276,11,12,11H9v1h3c0.276,0,0.5,0.224,0.5,0.5S12.276,13,12,13H9v2.5c0,2.468,1.189,4.175,3,4.445V23.5
		c0,0.276,0.224,0.5,0.5,0.5s0.5-0.224,0.5-0.5v-3.555c1.811-0.27,3-1.977,3-4.445V6h2.499c0.276,0,0.5-0.224,0.5-0.5
		S18.775,5,18.499,5z"/>
</g>
<g id="invisible_shape">
	<rect fill="none" width="24" height="24"/>
</g>
</svg>
