<?xml version="1.0" encoding="utf-8"?>
<!-- Generator: Adobe Illustrator 19.2.0, SVG Export Plug-In . SVG Version: 6.00 Build 0)  -->
<svg version="1.1" xmlns="http://www.w3.org/2000/svg" xmlns:xlink="http://www.w3.org/1999/xlink" x="0px" y="0px" width="24px"
	 height="24px" viewBox="0 0 24 24" enable-background="new 0 0 24 24" xml:space="preserve">
<g id="Filled_Icons">
	<path d="M12,0.006c-6.627,0-12,5.373-12,12c0,6.627,5.373,12,12,12s12-5.373,12-12C24,5.379,18.627,0.006,12,0.006z M4.418,14.682
		c-0.009,0-0.018,0-0.026-0.001c-0.157-0.008-0.301-0.09-0.389-0.221l-2.418-3.6c-0.154-0.229-0.093-0.54,0.136-0.693
		c0.227-0.153,0.539-0.094,0.694,0.136l1.26,1.876c0.014-1.388,0.392-2.761,1.133-4.004c1.151-1.928,3.034-3.323,5.167-3.827
		c2.828-0.666,5.78,0.271,7.707,2.447c0.184,0.206,0.164,0.522-0.043,0.705c-0.206,0.183-0.521,0.165-0.705-0.042
		c-1.682-1.9-4.258-2.721-6.728-2.136C8.334,5.765,6.68,6.992,5.667,8.688c-0.801,1.343-1.119,2.856-0.946,4.352l2.09-2.505
		c0.178-0.212,0.493-0.239,0.704-0.063c0.212,0.177,0.24,0.493,0.064,0.704l-2.776,3.328C4.707,14.616,4.565,14.682,4.418,14.682z
		 M15.03,14.324c0,0.412-0.041,0.821-0.121,1.214c-0.085,0.394-0.434,0.676-0.83,0.676c-0.428,0-0.783-0.32-0.827-0.746
		c-0.106-0.999-0.656-1.783-1.252-1.783c-0.592,0-1.142,0.78-1.25,1.775c-0.048,0.431-0.409,0.754-0.842,0.754
		c-0.387,0-0.729-0.275-0.814-0.656c-0.083-0.408-0.125-0.82-0.125-1.234c0-0.671,0.109-1.33,0.319-1.926
		c-0.547-0.668-0.823-1.549-0.823-2.627c0-1.421,0.941-2.535,2.144-2.535c0.519,0,1.008,0.185,1.391,0.514
		c0.383-0.328,0.872-0.514,1.391-0.514c1.202,0,2.144,1.114,2.144,2.535c0,1.077-0.276,1.959-0.822,2.627
		C14.921,12.994,15.03,13.653,15.03,14.324z M21.573,14.813c-0.16,0-0.318-0.078-0.415-0.221l-1.436-2.14
		c-0.2,3.353-2.662,6.397-6.126,7.216c-0.607,0.144-1.22,0.214-1.826,0.214c-2.041,0.001-4.016-0.795-5.516-2.273
		c-0.197-0.194-0.199-0.51-0.006-0.708c0.193-0.196,0.512-0.198,0.707-0.006c1.699,1.674,4.096,2.348,6.41,1.799
		c3.108-0.735,5.354-3.65,5.369-6.694l-1.973,2.361c-0.177,0.214-0.492,0.24-0.704,0.063c-0.212-0.176-0.24-0.492-0.064-0.704
		l2.715-3.251c0.082-0.123,0.301-0.265,0.474-0.255c0.157,0.008,0.301,0.09,0.389,0.221l2.417,3.599
		c0.154,0.229,0.093,0.54-0.137,0.693C21.767,14.786,21.67,14.813,21.573,14.813z"/>
</g>
<g id="invisible_shape">
	<rect fill="none" width="24" height="24"/>
</g>
</svg>
