<?xml version="1.0" encoding="utf-8"?>
<!-- Generator: Adobe Illustrator 19.2.0, SVG Export Plug-In . SVG Version: 6.00 Build 0)  -->
<svg version="1.1" xmlns="http://www.w3.org/2000/svg" xmlns:xlink="http://www.w3.org/1999/xlink" x="0px" y="0px" width="24px"
	 height="24px" viewBox="0 0 24 24" enable-background="new 0 0 24 24" xml:space="preserve">
<g id="Filled_Icons">
	<path d="M22.825,4.121C19.684,1.425,15.768,0,11.5,0S3.316,1.425,0.175,4.121C0.05,4.227-0.015,4.39,0.003,4.552l2,19
		C2.029,23.807,2.244,24,2.5,24h18c0.256,0,0.471-0.193,0.497-0.448l2-19C23.015,4.39,22.95,4.227,22.825,4.121z M10,18.625
		c0,1.588-1.287,2.875-2.875,2.875c-1.486,0-2.728-1.134-2.862-2.614l-0.455-5.002C3.643,12.069,5.073,10.5,6.898,10.5
		C8.611,10.5,10,11.89,10,13.602V18.625z M18.737,18.886c-0.134,1.48-1.376,2.614-2.862,2.614C14.287,21.5,13,20.213,13,18.625
		v-5.023c0-1.713,1.389-3.102,3.103-3.102c1.822,0,3.255,1.567,3.09,3.384L18.737,18.886z M20.5,8.5C20.5,8.776,20.276,9,20,9
		h-6.661L11.96,5.782c-0.158-0.368-0.762-0.368-0.92,0L9.661,9H3C2.724,9,2.5,8.776,2.5,8.5V5.1c0-0.165,0.081-0.319,0.218-0.413
		c0.505-0.345,1.036-0.647,1.579-0.928l0.919,1.828C5.34,5.836,5.641,5.933,5.887,5.81c0.247-0.124,0.346-0.425,0.222-0.671
		L5.196,3.323C5.935,3,6.699,2.726,7.493,2.517c0.02-0.005,0.04-0.009,0.06-0.014l0.461,1.941C8.079,4.722,8.359,4.88,8.615,4.815
		C8.884,4.752,9.05,4.482,8.986,4.214L8.528,2.282C9.338,2.128,10.167,2.044,11,2.018v1.96c0,0.276,0.224,0.5,0.5,0.5
		s0.5-0.224,0.5-0.5v-1.96c0.833,0.026,1.662,0.11,2.472,0.264l-0.458,1.932c-0.063,0.268,0.103,0.538,0.371,0.602
		c0.256,0.064,0.536-0.094,0.602-0.371l0.461-1.942c0.021,0.005,0.041,0.009,0.061,0.014C16.302,2.726,17.066,3,17.805,3.323
		l-0.913,1.816c-0.124,0.246-0.025,0.547,0.222,0.671c0.249,0.125,0.55,0.023,0.671-0.222l0.919-1.828
		c0.543,0.282,1.074,0.584,1.579,0.928C20.419,4.781,20.5,4.936,20.5,5.1V8.5z"/>
</g>
<g id="invisible_shape">
	<rect fill="none" width="24" height="24"/>
</g>
</svg>
