<?xml version="1.0" encoding="utf-8"?>
<!-- Generator: Adobe Illustrator 19.2.0, SVG Export Plug-In . SVG Version: 6.00 Build 0)  -->
<svg version="1.1" xmlns="http://www.w3.org/2000/svg" xmlns:xlink="http://www.w3.org/1999/xlink" x="0px" y="0px" width="24px"
	 height="24px" viewBox="0 0 24 24" enable-background="new 0 0 24 24" xml:space="preserve">
<g id="Filled_Icons">
	<g>
		<path d="M18.101,7l-0.611-0.724C17.404,6.107,17.231,6,17.042,6h-3.848c0.811-0.537,1.348-1.456,1.348-2.5c0-1.653-1.346-3-3-3
			s-3,1.347-3,3c0,1.044,0.537,1.963,1.348,2.5H6.042C5.852,6,5.68,6.107,5.595,6.276L4.983,7H18.101z"/>
		<path d="M7.79,20l0.72,3.598C8.557,23.832,8.762,24,9,24h5c0.238,0,0.443-0.168,0.49-0.402L15.21,20H7.79z"/>
		<path d="M20.5,8h-18C2.224,8,2,8.224,2,8.5v10C2,18.776,2.224,19,2.5,19h18c0.276,0,0.5-0.224,0.5-0.5v-10
			C21,8.224,20.776,8,20.5,8z M16.964,11.686C16.886,11.881,16.698,12,16.5,12c-0.062,0-0.125-0.011-0.185-0.035l-1.785-0.714
			C14.115,11.084,13.679,11,13.229,11H12v2h0.252c0.559,0,1.105,0.102,1.626,0.305l2.011,0.778c0.258,0.099,0.386,0.389,0.285,0.646
			c-0.076,0.198-0.266,0.319-0.466,0.319c-0.061,0-0.121-0.011-0.181-0.033l-2.011-0.778C13.111,14.08,12.686,14,12.252,14H12v2h1.5
			c0.276,0,0.5,0.224,0.5,0.5S13.776,17,13.5,17h-4C9.224,17,9,16.776,9,16.5S9.224,16,9.5,16H11v-2h-0.252
			c-0.434,0-0.859,0.08-1.265,0.237l-2.011,0.778c-0.06,0.023-0.12,0.033-0.181,0.033c-0.2,0-0.39-0.121-0.466-0.319
			c-0.101-0.258,0.027-0.548,0.285-0.646l2.011-0.778C9.643,13.102,10.189,13,10.748,13H11v-2H9.771
			c-0.449,0-0.886,0.084-1.299,0.25l-1.786,0.715C6.625,11.989,6.562,12,6.5,12c-0.198,0-0.386-0.119-0.464-0.314
			c-0.102-0.256,0.022-0.547,0.278-0.649L8.1,10.322C8.631,10.108,9.193,10,9.771,10H11.5h1.729c0.577,0,1.14,0.108,1.672,0.323
			l1.784,0.713C16.942,11.139,17.066,11.43,16.964,11.686z"/>
	</g>
</g>
<g id="invisible_shape">
	<rect fill="none" width="24" height="24"/>
</g>
</svg>
