<?xml version="1.0" encoding="utf-8"?>
<!-- Generator: Adobe Illustrator 19.2.0, SVG Export Plug-In . SVG Version: 6.00 Build 0)  -->
<svg version="1.1" xmlns="http://www.w3.org/2000/svg" xmlns:xlink="http://www.w3.org/1999/xlink" x="0px" y="0px" width="24px"
	 height="24px" viewBox="0 0 24 24" enable-background="new 0 0 24 24" xml:space="preserve">
<g id="Filled_Icons">
	<g>
		<path d="M20.229,11.598c0.468-0.761,0.37-1.501,0.271-2.168c-0.15-1.023-0.307-2.081,1.354-3.742
			c0.975-0.975,0.974-2.56-0.001-3.535c-0.944-0.943-2.58-0.954-3.544,0.009c-1.185,1.244-2.053,1.404-2.677,1.404
			c-0.394,0-0.775-0.076-1.144-0.149c-0.359-0.07-0.732-0.144-1.105-0.144c-0.436,0-0.814,0.11-1.165,0.317L20.229,11.598z"/>
		<path d="M16.317,17.585l-2.157-2.157c-0.141,1.09-0.611,2.102-1.401,2.891c-0.944,0.944-2.199,1.464-3.534,1.464
			c-1.336,0-2.592-0.52-3.536-1.464c-0.944-0.944-1.465-2.2-1.465-3.535c-0.001-1.336,0.52-2.592,1.464-3.536
			c0.789-0.789,1.801-1.261,2.89-1.401L6.419,7.688C6.33,7.6,6.264,7.498,6.187,7.403c-0.968,0.398-1.862,0.963-2.62,1.722
			c-3.118,3.119-3.118,8.195,0,11.315c1.511,1.512,3.519,2.344,5.657,2.344c2.137,0,4.145-0.832,5.656-2.344
			c0.759-0.759,1.323-1.652,1.722-2.621C16.506,17.741,16.405,17.673,16.317,17.585z"/>
		<path d="M20.56,13.345l-9.899-9.899c-0.941-0.943-2.588-0.945-3.535,0c-0.975,0.976-0.975,2.562,0,3.535l9.899,9.898
			c0.472,0.473,1.1,0.732,1.768,0.732c0.669,0,1.297-0.26,1.767-0.731c0.473-0.471,0.732-1.097,0.733-1.765
			C21.294,14.446,21.033,13.817,20.56,13.345z"/>
	</g>
</g>
<g id="invisible_shape">
	<rect fill="none" width="24" height="24"/>
</g>
</svg>
