<?xml version="1.0" encoding="utf-8"?>
<!-- Generator: Adobe Illustrator 19.2.0, SVG Export Plug-In . SVG Version: 6.00 Build 0)  -->
<svg version="1.1" xmlns="http://www.w3.org/2000/svg" xmlns:xlink="http://www.w3.org/1999/xlink" x="0px" y="0px" width="24px"
	 height="24px" viewBox="0 0 24 24" enable-background="new 0 0 24 24" xml:space="preserve">
<g id="Filled_Icons">
	<g>
		<circle cx="10.5" cy="17.506" r="0.5"/>
		<circle cx="13.5" cy="17.506" r="0.5"/>
		<path d="M15.151,0.426c-1.203-0.382-2.468,0.432-2.6,1.603c-0.084,0.742,0.326,1.725,1.754,2.049
			c1.995,0.455,2.75,2.025,2.607,3.291C16.75,8.815,15.366,10.506,12,10.506S7.25,8.815,7.087,7.368
			C6.944,6.102,7.699,4.532,9.694,4.077c1.428-0.324,1.838-1.307,1.754-2.049c-0.107-0.958-0.96-1.708-1.94-1.708
			c-0.218,0-0.44,0.036-0.638,0.1C3.648,1.825,0,6.59,0,12.006c0,6.617,5.383,12,12,12s12-5.383,12-12
			C24,6.59,20.353,1.825,15.151,0.426z M16.5,18.006c0,1.93-2.019,3.5-4.5,3.5s-4.5-1.57-4.5-3.5c0-0.467,0.124-0.93,0.361-1.362
			C7.334,16.278,7,15.67,7,15.006c0-1.103,0.898-2,2-2c0.965,0,1.771,0.686,1.959,1.596c0.343-0.063,0.691-0.096,1.041-0.096
			s0.698,0.032,1.041,0.096c0.188-0.909,0.994-1.596,1.959-1.596c1.103,0,2,0.897,2,2c0,0.664-0.334,1.272-0.861,1.638
			C16.376,17.076,16.5,17.539,16.5,18.006z"/>
	</g>
</g>
<g id="invisible_shape">
	<rect fill="none" width="24" height="24"/>
</g>
</svg>
