<?xml version="1.0" encoding="utf-8"?>
<!-- Generator: Adobe Illustrator 19.2.0, SVG Export Plug-In . SVG Version: 6.00 Build 0)  -->
<svg version="1.1" xmlns="http://www.w3.org/2000/svg" xmlns:xlink="http://www.w3.org/1999/xlink" x="0px" y="0px" width="24px"
	 height="24px" viewBox="0 0 24 24" enable-background="new 0 0 24 24" xml:space="preserve">
<g id="Filled_Icons">
	<g>
		<path d="M16.756,7c-0.294-0.809-0.815-1.257-1.299-1.662C14.708,4.71,14,4.116,14,2c0-1.102-0.898-2-2-2s-2,0.897-2,2
			c0,2.117-0.708,2.71-1.457,3.339C8.06,5.744,7.538,6.192,7.244,7H16.756z"/>
		<path d="M14.5,14H18v-1H6v6.5c0,2.481,2.019,4.5,4.5,4.5h3c1.953,0,3.603-1.258,4.224-3H14.5c-0.276,0-0.5-0.224-0.5-0.5
			s0.224-0.5,0.5-0.5h3.449C17.968,19.834,18,19.671,18,19.5V18h-3.5c-0.276,0-0.5-0.224-0.5-0.5s0.224-0.5,0.5-0.5H18v-2h-3.5
			c-0.276,0-0.5-0.224-0.5-0.5S14.224,14,14.5,14z"/>
		<path d="M6,12h12c1.103,0,2-0.898,2-2s-0.897-2-2-2H6c-1.102,0-2,0.898-2,2S4.898,12,6,12z"/>
	</g>
</g>
<g id="invisible_shape">
	<rect fill="none" width="24" height="24"/>
</g>
</svg>
