<?xml version="1.0" encoding="utf-8"?>
<!-- Generator: Adobe Illustrator 19.2.0, SVG Export Plug-In . SVG Version: 6.00 Build 0)  -->
<svg version="1.1" xmlns="http://www.w3.org/2000/svg" xmlns:xlink="http://www.w3.org/1999/xlink" x="0px" y="0px" width="24px"
	 height="24px" viewBox="0 0 24 24" enable-background="new 0 0 24 24" xml:space="preserve">
<g id="Filled_Icons">
	<g>
		<path d="M10,8.134V0.5C10,0.224,9.776,0,9.5,0C7.938,0,6.42,0.425,5.072,1.151L10,8.134z"/>
		<path d="M0.658,5.914C0.242,6.893,0,7.934,0,9h8.618L0.658,5.914z"/>
		<path d="M23.5,3H20c-0.232,0-0.434,0.159-0.486,0.386L17.957,10H0v0.5c0,0.049,0.015,0.093,0.027,0.138
			c0.004,0.013,0,0.025,0.005,0.038l0.007,0.018c0,0,0,0,0,0.001l2.993,7.981C3.105,18.871,3.292,19,3.5,19h12.339l-0.235,1H5
			c-1.102,0-2,0.897-2,2s0.898,2,2,2s2-0.897,2-2c0-0.366-0.106-0.705-0.278-1h7.557C14.106,21.295,14,21.634,14,22
			c0,1.103,0.898,2,2,2s2-0.897,2-2c0-0.89-0.589-1.637-1.394-1.896L20.396,4H23.5C23.776,4,24,3.776,24,3.5S23.776,3,23.5,3z"/>
		<path d="M8.638,7.936L4.217,1.673c-1.29,0.868-2.37,2.024-3.115,3.342L8.638,7.936z"/>
	</g>
</g>
<g id="invisible_shape">
	<rect fill="none" width="24" height="24"/>
</g>
</svg>
