<?xml version="1.0" encoding="utf-8"?>
<!-- Generator: Adobe Illustrator 19.2.0, SVG Export Plug-In . SVG Version: 6.00 Build 0)  -->
<svg version="1.1" xmlns="http://www.w3.org/2000/svg" xmlns:xlink="http://www.w3.org/1999/xlink" x="0px" y="0px" width="24px"
	 height="24px" viewBox="0 0 24 24" enable-background="new 0 0 24 24" xml:space="preserve">
<g id="Filled_Icons">
	<g>
		<g>
			<path d="M7,17c0-0.552-0.448-1-1-1H4v2h2C6.552,18,7,17.552,7,17z"/>
			<path d="M4,21h2c0.552,0,1-0.448,1-1s-0.448-1-1-1H4V21z"/>
			<path d="M8.5,13h-6C1.121,13,0,14.121,0,15.5v6C0,22.879,1.121,24,2.5,24h6c1.379,0,2.5-1.121,2.5-2.5v-6
				C11,14.121,9.879,13,8.5,13z M8,20c0,1.103-0.898,2-2,2H3.5C3.224,22,3,21.776,3,21.5v-3v-3C3,15.224,3.224,15,3.5,15H6
				c1.102,0,2,0.898,2,2c0,0.6-0.272,1.133-0.691,1.5C7.728,18.867,8,19.4,8,20z"/>
		</g>
		<g>
			<path d="M14.5,1h-6C7.121,1,6,2.121,6,3.5v6C6,10.879,7.121,12,8.5,12h6c1.379,0,2.5-1.121,2.5-2.5v-6C17,2.121,15.879,1,14.5,1z
				 M14.189,9.947C14.126,9.973,14.063,9.984,14,9.984c-0.197,0-0.385-0.118-0.463-0.311L12.852,8h-2.659L9.459,9.683
				c-0.11,0.253-0.407,0.371-0.657,0.261C8.548,9.834,8.432,9.54,8.541,9.286l2.578-5.969c0.08-0.186,0.293-0.31,0.465-0.302
				c0.201,0.002,0.382,0.125,0.457,0.312l1.607,3.961l0.001,0.003l0.814,2.005C14.567,9.553,14.444,9.844,14.189,9.947z"/>
			<polygon points="10.624,6.984 12.446,6.984 11.564,4.81 			"/>
		</g>
		<path d="M21.5,13h-6c-1.379,0-2.5,1.121-2.5,2.5v6c0,1.379,1.121,2.5,2.5,2.5h6c1.379,0,2.5-1.121,2.5-2.5v-6
			C24,14.121,22.879,13,21.5,13z M21.414,20.975C20.753,21.636,19.874,22,18.94,22c-1.93,0-3.5-1.57-3.5-3.5s1.57-3.5,3.5-3.5
			c0.888,0,1.733,0.333,2.384,0.938c0.202,0.188,0.213,0.505,0.025,0.707c-0.188,0.202-0.504,0.215-0.707,0.025
			C20.178,16.238,19.573,16,18.94,16c-1.379,0-2.5,1.121-2.5,2.5s1.121,2.5,2.5,2.5c0.668,0,1.295-0.26,1.767-0.732
			c0.195-0.195,0.512-0.195,0.707,0C21.609,20.463,21.609,20.779,21.414,20.975z"/>
	</g>
</g>
<g id="invisible_shape">
	<rect fill="none" width="24" height="24"/>
</g>
</svg>
