<?xml version="1.0" encoding="utf-8"?>
<!-- Generator: Adobe Illustrator 19.2.0, SVG Export Plug-In . SVG Version: 6.00 Build 0)  -->
<svg version="1.1" xmlns="http://www.w3.org/2000/svg" xmlns:xlink="http://www.w3.org/1999/xlink" x="0px" y="0px" width="24px"
	 height="24px" viewBox="0 0 24 24" enable-background="new 0 0 24 24" xml:space="preserve">
<g id="Filled_Icons">
	<path d="M22.5,11h-5.496c-0.143-1.031-0.281-3.941,2.046-6.349C19.31,4.865,19.638,5,20,5c0.827,0,1.5-0.673,1.5-1.5S20.827,2,20,2
		s-1.5,0.673-1.5,1.5c0,0.09,0.012,0.177,0.026,0.263c-2.721,2.645-2.688,5.9-2.529,7.237H14V7.5C14,7.224,13.776,7,13.5,7H8
		C7.811,7,7.638,7.107,7.553,7.276L5.691,11H2c-1.102,0-2,0.898-2,2v3.5C0,16.776,0.224,17,0.5,17h2C2.776,17,3,16.776,3,16.5
		C3,15.673,3.673,15,4.5,15c0.004,0,0.008,0.001,0.012,0.001l-0.703,2.024c-1.81,0.133-3.246,1.632-3.246,3.475
		c0,1.93,1.57,3.5,3.5,3.5c1.759,0,3.204-1.309,3.449-3h6.102c0.245,1.691,1.69,3,3.449,3c1.93,0,3.5-1.57,3.5-3.5
		s-1.57-3.5-3.5-3.5c-0.095,0-0.184,0.021-0.275,0.027l-0.469-2.009C16.379,15.011,16.438,15,16.5,15c0.827,0,1.5,0.673,1.5,1.5
		c0,0.276,0.224,0.5,0.5,0.5h4c0.276,0,0.5-0.224,0.5-0.5v-5C23,11.224,22.776,11,22.5,11z M8.053,10.776l1-2
		C9.138,8.607,9.311,8.5,9.5,8.5h1C10.776,8.5,11,8.724,11,9s-0.224,0.5-0.5,0.5H9.809l-0.861,1.724
		C8.859,11.398,8.683,11.5,8.5,11.5c-0.075,0-0.151-0.017-0.224-0.053C8.029,11.323,7.93,11.023,8.053,10.776z M4.063,22
		c-0.827,0-1.5-0.673-1.5-1.5s0.673-1.5,1.5-1.5s1.5,0.673,1.5,1.5S4.89,22,4.063,22z M18.563,20.5c0,0.827-0.673,1.5-1.5,1.5
		s-1.5-0.673-1.5-1.5s0.673-1.5,1.5-1.5S18.563,19.673,18.563,20.5z M13.613,20H7.512c-0.207-1.433-1.274-2.585-2.668-2.904
		l0.607-1.747C5.783,15.624,6,16.035,6,16.5C6,16.776,6.224,17,6.5,17h8c0.276,0,0.5-0.224,0.5-0.5c0-0.392,0.154-0.745,0.4-1.012
		l0.409,1.754C14.649,17.69,13.797,18.734,13.613,20z"/>
</g>
<g id="invisible_shape">
	<rect fill="none" width="24" height="24"/>
</g>
</svg>
