<?xml version="1.0" encoding="utf-8"?>
<!-- Generator: Adobe Illustrator 19.2.0, SVG Export Plug-In . SVG Version: 6.00 Build 0)  -->
<svg version="1.1" xmlns="http://www.w3.org/2000/svg" xmlns:xlink="http://www.w3.org/1999/xlink" x="0px" y="0px" width="24px"
	 height="24px" viewBox="0 0 24 24" enable-background="new 0 0 24 24" xml:space="preserve">
<g id="Filled_Icons">
	<g>
		<path d="M21.5,2h-8C12.121,2,11,3.121,11,4.5v19c0,0.276,0.224,0.5,0.5,0.5h3c0.276,0,0.5-0.224,0.5-0.5V17h5v6.5
			c0,0.276,0.224,0.5,0.5,0.5h3c0.276,0,0.5-0.224,0.5-0.5v-19C24,3.121,22.879,2,21.5,2z M21,9.5c0,0.276-0.224,0.5-0.5,0.5h-6
			C14.224,10,14,9.776,14,9.5v-4C14,5.224,14.224,5,14.5,5h6C20.776,5,21,5.224,21,5.5V9.5z"/>
		<g>
			<path d="M10,12.091l-4.451,3.981C4.158,17.315,2.365,18,0.5,18C0.224,18,0,18.224,0,18.5v5C0,23.776,0.224,24,0.5,24
				c2.755,0,5.412-1.001,7.481-2.819L10,19.405V12.091z"/>
		</g>
	</g>
</g>
<g id="invisible_shape">
	<rect fill="none" width="24" height="24"/>
</g>
</svg>
