<?xml version="1.0" encoding="utf-8"?>
<!-- Generator: Adobe Illustrator 19.2.0, SVG Export Plug-In . SVG Version: 6.00 Build 0)  -->
<svg version="1.1" xmlns="http://www.w3.org/2000/svg" xmlns:xlink="http://www.w3.org/1999/xlink" x="0px" y="0px" width="24px"
	 height="24px" viewBox="0 0 24 24" enable-background="new 0 0 24 24" xml:space="preserve">
<g id="Filled_Icons">
	<g>
		<circle cx="18" cy="20.506" r="3.5"/>
		<circle cx="6" cy="20.506" r="3.5"/>
		<circle cx="12" cy="7.006" r="1"/>
		<path d="M23.125,9.989c-0.352-0.567-0.903-0.965-1.554-1.117c-0.648-0.156-1.32-0.044-1.862,0.293l-4.133,2.231
			c-0.119-0.106-0.253-0.213-0.386-0.318C16.875,10.015,18,8.142,18,6.006c0-0.17-0.012-0.337-0.025-0.504
			c0.009,0,0.017,0.004,0.025,0.004c1.379,0,2.5-1.121,2.5-2.5s-1.121-2.5-2.5-2.5c-0.804,0-1.549,0.397-2.013,1.028
			C14.926,0.587,13.531,0.006,12,0.006c-1.529,0-2.922,0.58-3.982,1.524C7.556,0.898,6.813,0.506,6,0.506
			c-1.379,0-2.5,1.121-2.5,2.5s1.121,2.5,2.5,2.5c0.009,0,0.017-0.004,0.025-0.004C6.012,5.669,6,5.836,6,6.006
			c0,2.134,1.123,4.006,2.806,5.07c-0.129,0.105-0.258,0.208-0.383,0.32L4.317,9.181C3.749,8.829,3.078,8.72,2.429,8.872
			c-0.65,0.152-1.202,0.55-1.554,1.117c-0.726,1.172-0.362,2.716,0.817,3.446l4.33,2.571v0.001c2.471,0.013,4.477,2.024,4.477,4.498
			c0,0.762-0.208,1.468-0.543,2.097c0.651,0.256,1.337,0.403,2.043,0.403c0.708,0,1.396-0.146,2.044-0.401
			c-0.336-0.63-0.544-1.337-0.544-2.099c0-2.475,2.007-4.486,4.479-4.498v-0.001l4.338-2.576c0.567-0.352,0.965-0.903,1.117-1.553
			C23.587,11.227,23.478,10.557,23.125,9.989z M18,1.506c0.827,0,1.5,0.673,1.5,1.5c0,0.895-0.831,1.586-1.704,1.475
			c-0.213-0.81-0.589-1.553-1.095-2.191C16.963,1.819,17.453,1.506,18,1.506z M6.204,4.478C6.137,4.488,6.07,4.506,6,4.506
			c-0.827,0-1.5-0.673-1.5-1.5c0-0.827,0.673-1.5,1.5-1.5c0.554,0,1.038,0.313,1.299,0.783C6.793,2.927,6.418,3.67,6.204,4.478z
			 M14.5,3.006c0.276,0,0.5,0.224,0.5,0.5c0,0.276-0.224,0.5-0.5,0.5S14,3.782,14,3.506C14,3.23,14.224,3.006,14.5,3.006z
			 M9.5,3.006c0.276,0,0.5,0.224,0.5,0.5c0,0.276-0.224,0.5-0.5,0.5S9,3.782,9,3.506C9,3.23,9.224,3.006,9.5,3.006z M8.25,8.256
			c0-2.067,1.683-3.75,3.75-3.75s3.75,1.683,3.75,3.75c0,2.067-1.683,3.75-3.75,3.75S8.25,10.323,8.25,8.256z M15.315,15.948
			c-0.074,0.039-0.154,0.058-0.233,0.058c-0.179,0-0.352-0.097-0.442-0.267c-0.617-1.17-1.48-1.738-2.64-1.738
			c-1.157,0-2.019,0.567-2.636,1.733c-0.13,0.245-0.435,0.337-0.676,0.209c-0.244-0.129-0.338-0.432-0.209-0.676
			c0.784-1.482,2.001-2.267,3.521-2.267c1.521,0,2.74,0.785,3.524,2.271C15.653,15.517,15.56,15.819,15.315,15.948z"/>
	</g>
</g>
<g id="invisible_shape">
	<rect fill="none" width="24" height="24"/>
</g>
</svg>
