<?xml version="1.0" encoding="utf-8"?>
<!-- Generator: Adobe Illustrator 19.2.1, SVG Export Plug-In . SVG Version: 6.00 Build 0)  -->
<svg version="1.1" xmlns="http://www.w3.org/2000/svg" xmlns:xlink="http://www.w3.org/1999/xlink" x="0px" y="0px" width="24px"
	 height="24px" viewBox="0 0 24 24" enable-background="new 0 0 24 24" xml:space="preserve">
<g id="Filled_Icons">
	<g>
		<path d="M23.963,16.329C23.892,16.131,23.704,16,23.493,16h-3.191l-1.854-3.724C18.364,12.107,18.191,12,18.002,12h-0.001
			c-0.189,0-0.362,0.106-0.447,0.275L15.685,16h-3.191c-0.211,0-0.399,0.131-0.47,0.329c-0.072,0.198-0.012,0.42,0.149,0.556
			l2.738,2.279l-1.392,4.178c-0.067,0.204,0.002,0.428,0.174,0.557c0.171,0.13,0.405,0.135,0.584,0.014l3.717-2.552l3.717,2.552
			C21.796,23.971,21.895,24,21.993,24c0.106,0,0.212-0.034,0.301-0.102c0.172-0.129,0.241-0.352,0.174-0.557l-1.393-4.178
			l2.738-2.279C23.975,16.749,24.035,16.527,23.963,16.329z"/>
		<path d="M16.854,5.147l-5-5C11.76,0.053,11.633,0,11.5,0h-11C0.225,0,0,0.224,0,0.5v21C0,21.776,0.225,22,0.5,22h12.419
			l0.834-2.503l-1.795-1.496L3.5,18C3.224,18,3,17.776,3,17.5v-10C3,7.224,3.224,7,3.5,7S4,7.224,4,7.5v4.793l1.897-1.897
			c0.195-0.195,0.512-0.195,0.707,0l1.647,1.647l2.896-2.897c0.195-0.195,0.512-0.195,0.707,0s0.195,0.512,0,0.707l-3.25,3.25
			c-0.195,0.195-0.512,0.195-0.707,0L6.25,11.457L4,13.707V17c0,0,7.073-0.008,7.109,0c-0.122-0.326-0.144-0.667-0.02-1.011
			C11.305,15.396,11.868,15,12.5,15h2.574l1.593-3.173c0.083-0.165,0.201-0.302,0.333-0.423V5.5C17,5.367,16.947,5.24,16.854,5.147z
			 M11,6V1l5,5H11z"/>
	</g>
</g>
<g id="Invisible_Shape">
	<rect fill="none" width="24" height="24"/>
</g>
</svg>
