<?xml version="1.0" encoding="utf-8"?>
<!-- Generator: Adobe Illustrator 19.2.1, SVG Export Plug-In . SVG Version: 6.00 Build 0)  -->
<svg version="1.1" xmlns="http://www.w3.org/2000/svg" xmlns:xlink="http://www.w3.org/1999/xlink" x="0px" y="0px" width="24px"
	 height="24px" viewBox="0 0 24 24" enable-background="new 0 0 24 24" xml:space="preserve">
<g id="Filled_Icons">
	<g>
		<path d="M13,18.203V23.5c0,0.276,0.224,0.5,0.5,0.5h8c0.276,0,0.5-0.224,0.5-0.5v-5.297l-4.5-3.75L13,18.203z"/>
		<path d="M23.82,17.115l-6-5c-0.185-0.153-0.455-0.153-0.641,0l-6,5c-0.212,0.178-0.24,0.492-0.064,0.705
			c0.178,0.212,0.492,0.24,0.705,0.065l5.68-4.734l5.68,4.734c0.214,0.177,0.528,0.146,0.705-0.065
			C24.06,17.607,24.032,17.293,23.82,17.115z"/>
		<path d="M10.35,18.46c-0.11-0.14-0.2-0.3-0.26-0.46H3.5C3.22,18,3,17.78,3,17.5v-10C3,7.22,3.22,7,3.5,7S4,7.22,4,7.5v4.79
			l1.9-1.89c0.19-0.2,0.51-0.2,0.7,0l1.65,1.64l2.9-2.89c0.19-0.2,0.51-0.2,0.7,0c0.2,0.19,0.2,0.51,0,0.7L8.6,13.1
			c-0.19,0.2-0.51,0.2-0.7,0l-1.65-1.64L4,13.71V17h6.1c0.08-0.25,0.23-0.47,0.44-0.65l6-5c0.14-0.12,0.29-0.2,0.46-0.26V5.5
			c0-0.13-0.05-0.26-0.15-0.35l-5-5C11.76,0.05,11.63,0,11.5,0h-11C0.22,0,0,0.22,0,0.5v21C0,21.78,0.22,22,0.5,22H12v-3.11
			C11.42,19.09,10.75,18.94,10.35,18.46z M11,1l5,5h-5V1z"/>
	</g>
</g>
<g id="Invisible_Shape">
	<rect fill="none" width="24" height="24"/>
</g>
</svg>
