<?xml version="1.0" encoding="utf-8"?>
<!-- Generator: Adobe Illustrator 19.2.1, SVG Export Plug-In . SVG Version: 6.00 Build 0)  -->
<svg version="1.1" xmlns="http://www.w3.org/2000/svg" xmlns:xlink="http://www.w3.org/1999/xlink" x="0px" y="0px" width="24px"
	 height="24px" viewBox="0 0 24 24" enable-background="new 0 0 24 24" xml:space="preserve">
<g id="Filled_Icons">
	<g>
		<path d="M23.493,16h-3.191l-1.854-3.723c-0.183-0.37-0.711-0.367-0.895-0.002L15.685,16h-3.191c-0.211,0-0.399,0.133-0.47,0.33
			c-0.072,0.198-0.012,0.42,0.149,0.555l2.738,2.28l-1.392,4.177c-0.15,0.455,0.363,0.842,0.758,0.57l3.717-2.551l3.717,2.551
			c0.396,0.271,0.907-0.117,0.758-0.57l-1.393-4.177l2.738-2.28C24.172,16.585,23.959,16,23.493,16z"/>
		<g>
			<rect x="4" y="13" width="1" height="3"/>
			<rect x="6" y="8" width="1" height="8"/>
			<path d="M13.753,19.497l-2.213-1.845c-0.485-0.404-0.665-1.069-0.45-1.663C11.305,15.396,11.868,15,12.5,15h2.574l1.593-3.173
				c0.083-0.165,0.201-0.302,0.333-0.423V5.5c0-0.133-0.053-0.26-0.146-0.353l-5-5C11.76,0.053,11.633,0,11.5,0h-11
				C0.225,0,0,0.224,0,0.5v21C0,21.776,0.225,22,0.5,22h12.419L13.753,19.497z M11,1l5,5h-5V1z M10,16.5c0,0.276-0.224,0.5-0.5,0.5
				h-7C2.224,17,2,16.776,2,16.5S2.224,16,2.5,16H3v-3.5C3,12.224,3.224,12,3.5,12H5V7.5C5,7.224,5.224,7,5.5,7h2
				C7.776,7,8,7.224,8,7.5V10h1.5c0.276,0,0.5,0.224,0.5,0.5V16.5z"/>
			<rect x="8" y="11" width="1" height="5"/>
		</g>
	</g>
</g>
<g id="Invisible_Shape">
	<rect fill="none" width="24" height="24"/>
</g>
</svg>
