<?xml version="1.0" encoding="utf-8"?>
<!-- Generator: Adobe Illustrator 19.2.1, SVG Export Plug-In . SVG Version: 6.00 Build 0)  -->
<svg version="1.1" xmlns="http://www.w3.org/2000/svg" xmlns:xlink="http://www.w3.org/1999/xlink" x="0px" y="0px" width="24px"
	 height="24px" viewBox="0 0 24 24" enable-background="new 0 0 24 24" xml:space="preserve">
<g id="Filled_Icons">
	<g>
		<path d="M17.5,11c-3.584,0-6.5,2.916-6.5,6.5s2.916,6.5,6.5,6.5s6.5-2.916,6.5-6.5S21.084,11,17.5,11z M22.05,14.405
			c0,0-0.584,2.255-0.592,2.274c-0.099,0.252-0.375,0.369-0.581,0.305l-2.218-0.564c-0.268-0.068-0.429-0.341-0.36-0.608
			c0.067-0.268,0.339-0.431,0.607-0.36l1.202,0.306c-0.896-1.436-2.539-1.953-3.985-1.53c-1.885,0.548-2.964,2.518-2.414,4.396
			c0.54,1.861,2.491,2.97,4.398,2.416c0.264-0.08,0.543,0.074,0.619,0.34c0.078,0.265-0.074,0.544-0.34,0.619
			c-2.371,0.697-4.926-0.647-5.639-3.093c-0.702-2.41,0.676-4.934,3.096-5.639c1.776-0.519,3.808,0.056,5.005,1.803l0.233-0.912
			c0.067-0.268,0.34-0.43,0.608-0.36C21.957,13.865,22.118,14.138,22.05,14.405z"/>
		<g>
			<rect x="4" y="13" width="1" height="3"/>
			<rect x="6" y="8" width="1" height="8"/>
			<rect x="8" y="11" width="1" height="5"/>
			<path d="M10.016,17.465c0-3.961,3.089-7.207,6.984-7.474V5.5c0-0.133-0.053-0.26-0.146-0.353l-5-5C11.76,0.053,11.633,0,11.5,0
				h-11C0.225,0,0,0.224,0,0.5v21C0,21.776,0.225,22,0.5,22h11.056C10.594,20.738,10.016,19.17,10.016,17.465z M11,1l5,5h-5V1z
				 M10,16.5c0,0.276-0.224,0.5-0.5,0.5h-7C2.224,17,2,16.776,2,16.5S2.224,16,2.5,16H3v-3.5C3,12.224,3.224,12,3.5,12H5V7.5
				C5,7.224,5.224,7,5.5,7h2C7.776,7,8,7.224,8,7.5V10h1.5c0.276,0,0.5,0.224,0.5,0.5V16.5z"/>
		</g>
	</g>
</g>
<g id="Invisible_Shape">
	<rect fill="none" width="24" height="24"/>
</g>
</svg>
