<?xml version="1.0" encoding="utf-8"?>
<!-- Generator: Adobe Illustrator 19.2.1, SVG Export Plug-In . SVG Version: 6.00 Build 0)  -->
<svg version="1.1" xmlns="http://www.w3.org/2000/svg" xmlns:xlink="http://www.w3.org/1999/xlink" x="0px" y="0px" width="24px"
	 height="24px" viewBox="0 0 24 24" enable-background="new 0 0 24 24" xml:space="preserve">
<g id="Filled_Icons">
	<g>
		<rect x="11" y="11" width="2" height="8"/>
		<rect x="8" y="17" width="2" height="2"/>
		<rect x="5" y="15" width="2" height="4"/>
		<path d="M17.854,6.147l-6-6C11.76,0.053,11.633,0,11.5,0h-11C0.225,0,0,0.224,0,0.5v23C0,23.776,0.225,24,0.5,24h17
			c0.276,0,0.5-0.224,0.5-0.5v-17C18,6.367,17.947,6.24,17.854,6.147z M14,19.5c0,0.276-0.224,0.5-0.5,0.5h-9
			C4.225,20,4,19.776,4,19.5V8c0-0.276,0.225-0.5,0.5-0.5C4.776,7.5,5,7.724,5,8v6h2.5C7.776,14,8,14.224,8,14.5V16h2v-5.5
			c0-0.276,0.225-0.5,0.5-0.5h3c0.276,0,0.5,0.224,0.5,0.5V19.5z M11,7V1l6,6H11z"/>
	</g>
</g>
<g id="Invisible_Shape">
	<rect fill="none" width="24" height="24"/>
</g>
</svg>
