<?xml version="1.0" encoding="utf-8"?>
<!-- Generator: Adobe Illustrator 19.2.1, SVG Export Plug-In . SVG Version: 6.00 Build 0)  -->
<svg version="1.1" xmlns="http://www.w3.org/2000/svg" xmlns:xlink="http://www.w3.org/1999/xlink" x="0px" y="0px" width="24px"
	 height="24px" viewBox="0 0 24 24" enable-background="new 0 0 24 24" xml:space="preserve">
<g id="Filled_Icons">
	<g>
		<path d="M23.212,11.74c-1.485,1.049-3.184,1.372-4.314-0.066c-0.178-0.229-0.589-0.229-0.776-0.016
			c-0.006,0.006-0.015,0.008-0.02,0.015c-0.97,1.237-2.411,1.293-4.092,0.206c-0.654-0.43-1.009-0.133-1.011,0.27l0,0v7.332
			c0,1.061,2.031,3.42,5.366,4.365c0.011,0.004,0.219,0.013,0.273-0.002C22.154,22.856,24,20.447,24,19.48v-7.332
			C24,11.771,23.531,11.518,23.212,11.74z M21,18h-2v2c0,0.276-0.224,0.5-0.5,0.5S18,20.276,18,20v-2h-2c-0.276,0-0.5-0.224-0.5-0.5
			S15.724,17,16,17h2v-2c0-0.276,0.224-0.5,0.5-0.5S19,14.724,19,15v2h2c0.276,0,0.5,0.224,0.5,0.5S21.276,18,21,18z"/>
		<rect x="4" y="13" width="1" height="3"/>
		<rect x="6" y="8" width="1" height="8"/>
		<rect x="8" y="11" width="1" height="5"/>
		<path d="M12,12.12c0.002-1,1.121-2.046,2.519-1.134c1.067,0.693,1.862,0.836,2.481,0.352V5.5c0-0.133-0.053-0.26-0.146-0.353l-5-5
			C11.76,0.053,11.633,0,11.5,0h-11C0.225,0,0,0.224,0,0.5v21C0,21.776,0.225,22,0.5,22h12.85C12.497,21.115,12,20.193,12,19.452
			V12.12z M10,16.5c0,0.276-0.224,0.5-0.5,0.5h-7C2.224,17,2,16.776,2,16.5S2.224,16,2.5,16H3v-3.5C3,12.224,3.224,12,3.5,12H5V7.5
			C5,7.224,5.224,7,5.5,7h2C7.776,7,8,7.224,8,7.5V10h1.5c0.276,0,0.5,0.224,0.5,0.5V16.5z M11,1l5,5h-5V1z"/>
	</g>
</g>
<g id="Invisible_Shape">
	<rect fill="none" width="24" height="24"/>
</g>
</svg>
