<?xml version="1.0" encoding="utf-8"?>
<!-- Generator: Adobe Illustrator 19.2.1, SVG Export Plug-In . SVG Version: 6.00 Build 0)  -->
<svg version="1.1" xmlns="http://www.w3.org/2000/svg" xmlns:xlink="http://www.w3.org/1999/xlink" x="0px" y="0px" width="24px"
	 height="24px" viewBox="0 0 24 24" enable-background="new 0 0 24 24" xml:space="preserve">
<g id="Filled_Icons">
	<g>
		<path d="M9.756,19.951C9.398,19.33,9.49,18.504,10.195,18H3.5C3.224,18,3,17.776,3,17.5v-10C3,7.224,3.224,7,3.5,7S4,7.224,4,7.5
			v4.793l1.897-1.897c0.195-0.195,0.512-0.195,0.707,0l1.647,1.647l2.896-2.897c0.195-0.195,0.512-0.195,0.707,0
			s0.195,0.512,0,0.707l-3.25,3.25c-0.195,0.195-0.512,0.195-0.707,0L6.25,11.457L4,13.707V17h6.189
			c-0.697-0.498-0.795-1.324-0.436-1.95l1.5-2.599c0.393-0.685,1.258-1.002,2.256-0.429c0.159-0.101,0.322-0.195,0.49-0.283
			C14,10.584,14.681,10,15.5,10H17V5.5c0-0.133-0.053-0.26-0.146-0.353l-5-5C11.76,0.053,11.633,0,11.5,0h-11C0.225,0,0,0.224,0,0.5
			v21C0,21.776,0.225,22,0.5,22h10.439L9.756,19.951z M11,1l5,5h-5V1z"/>
		<path d="M23.195,18.77l-0.765-0.442c0.093-0.612,0.092-1.044,0.001-1.652l0.766-0.442c0.234-0.133,0.324-0.438,0.183-0.683
			l-1.5-2.599c-0.138-0.239-0.443-0.322-0.683-0.182l-0.765,0.441c-0.43-0.345-0.912-0.624-1.433-0.828V11.5
			c0-0.276-0.224-0.5-0.5-0.5h-3c-0.276,0-0.5,0.224-0.5,0.5v0.882c-0.521,0.204-1.003,0.483-1.433,0.828l-0.765-0.441
			c-0.237-0.139-0.545-0.058-0.683,0.182l-1.5,2.599c-0.142,0.245-0.052,0.55,0.183,0.683l0.766,0.442
			c-0.091,0.608-0.092,1.04,0.001,1.652l-0.765,0.442c-0.239,0.137-0.321,0.442-0.183,0.682l1.5,2.599
			c0.137,0.241,0.446,0.32,0.683,0.183l0.765-0.441c0.429,0.344,0.911,0.623,1.431,0.828V23.5c0,0.276,0.224,0.5,0.5,0.5h3
			c0.276,0,0.5-0.224,0.5-0.5v-0.881c0.52-0.205,1.002-0.484,1.431-0.828l0.765,0.441c0.237,0.138,0.546,0.058,0.683-0.183
			l1.5-2.599C23.517,19.212,23.435,18.906,23.195,18.77z M17,20c-1.379,0-2.5-1.121-2.5-2.5S15.621,15,17,15s2.5,1.121,2.5,2.5
			S18.379,20,17,20z"/>
	</g>
</g>
<g id="Invisible_Shape">
	<rect fill="none" width="24" height="24"/>
</g>
</svg>
