<?xml version="1.0" encoding="utf-8"?>
<!-- Generator: Adobe Illustrator 19.2.1, SVG Export Plug-In . SVG Version: 6.00 Build 0)  -->
<svg version="1.1" xmlns="http://www.w3.org/2000/svg" xmlns:xlink="http://www.w3.org/1999/xlink" x="0px" y="0px" width="24px"
	 height="24px" viewBox="0 0 24 24" enable-background="new 0 0 24 24" xml:space="preserve">
<g id="Filled_Icons">
	<g>
		<path d="M17.5,11c-3.59,0-6.5,2.911-6.5,6.5c0,3.59,2.91,6.5,6.5,6.5s6.5-2.91,6.5-6.5C24,13.911,21.09,11,17.5,11z M20,17
			c-0.195,0.195-0.512,0.195-0.707,0L18,15.707V20.5c0,0.276-0.224,0.5-0.5,0.5S17,20.776,17,20.5v-4.793L15.707,17
			c-0.195,0.195-0.512,0.195-0.707,0s-0.195-0.511,0-0.707l2.146-2.146c0.195-0.195,0.512-0.195,0.707,0L20,16.293
			C20.195,16.489,20.195,16.805,20,17z"/>
		<path d="M10.025,18H3.5C3.224,18,3,17.776,3,17.5v-10C3,7.224,3.224,7,3.5,7S4,7.224,4,7.5v4.793l1.897-1.897
			c0.195-0.195,0.512-0.195,0.707,0l1.647,1.647l2.896-2.897c0.195-0.195,0.512-0.195,0.707,0s0.195,0.512,0,0.707l-3.25,3.25
			c-0.195,0.195-0.512,0.195-0.707,0L6.25,11.457L4,13.707V17h6.025c0.248-3.736,3.238-6.727,6.975-6.975V5.5
			c0-0.133-0.053-0.26-0.146-0.353l-5-5C11.76,0.053,11.633,0,11.5,0h-11C0.225,0,0,0.224,0,0.5v21C0,21.776,0.225,22,0.5,22h11.014
			C10.663,20.87,10.125,19.496,10.025,18z M11,1l5,5h-5V1z"/>
	</g>
</g>
<g id="Invisible_Shape">
	<rect fill="none" width="24" height="24"/>
</g>
</svg>
