<?xml version="1.0" encoding="utf-8"?>
<!-- Generator: Adobe Illustrator 19.2.1, SVG Export Plug-In . SVG Version: 6.00 Build 0)  -->
<svg version="1.1" xmlns="http://www.w3.org/2000/svg" xmlns:xlink="http://www.w3.org/1999/xlink" x="0px" y="0px" width="24px"
	 height="24px" viewBox="0 0 24 24" enable-background="new 0 0 24 24" xml:space="preserve">
<g id="Filled_Icons">
	<g>
		<rect x="4" y="13" width="1" height="3"/>
		<rect x="6" y="8" width="1" height="8"/>
		<rect x="8" y="11" width="1" height="5"/>
		<path d="M17,9.991V5.5c0-0.133-0.053-0.26-0.146-0.353l-5-5C11.76,0.053,11.633,0,11.5,0h-11C0.225,0,0,0.224,0,0.5v21
			C0,21.776,0.225,22,0.5,22h11.056c-0.962-1.262-1.54-2.83-1.54-4.535C10.016,13.504,13.104,10.258,17,9.991z M11,1l5,5h-5V1z
			 M10,16.5c0,0.276-0.224,0.5-0.5,0.5h-7C2.224,17,2,16.776,2,16.5S2.224,16,2.5,16H3v-3.5C3,12.224,3.224,12,3.5,12H5V7.5
			C5,7.224,5.224,7,5.5,7h2C7.776,7,8,7.224,8,7.5V10h1.5c0.276,0,0.5,0.224,0.5,0.5V16.5z"/>
		<path d="M17.5,11c-3.584,0-6.5,2.916-6.5,6.5s2.916,6.5,6.5,6.5s6.5-2.916,6.5-6.5S21.084,11,17.5,11z M18,21
			c0,0.276-0.224,0.5-0.5,0.5S17,21.276,17,21v-4c0-0.276,0.224-0.5,0.5-0.5S18,16.724,18,17V21z M17.5,15.5
			c-0.414,0-0.75-0.336-0.75-0.75S17.086,14,17.5,14s0.75,0.336,0.75,0.75S17.914,15.5,17.5,15.5z"/>
	</g>
</g>
<g id="Invisible_Shape">
	<rect fill="none" width="24" height="24"/>
</g>
</svg>
