<?xml version="1.0" encoding="utf-8"?>
<!-- Generator: Adobe Illustrator 19.2.1, SVG Export Plug-In . SVG Version: 6.00 Build 0)  -->
<svg version="1.1" xmlns="http://www.w3.org/2000/svg" xmlns:xlink="http://www.w3.org/1999/xlink" x="0px" y="0px" width="24px"
	 height="24px" viewBox="0 0 24 24" enable-background="new 0 0 24 24" xml:space="preserve">
<g id="Filled_Icons">
	<g>
		<g>
			<rect x="6" y="8" width="1" height="8"/>
			<rect x="4" y="13" width="1" height="3"/>
			<rect x="8" y="11" width="1" height="5"/>
			<path d="M11,16.538C11,13.697,13.148,12,15.223,12c0.629,0,1.227,0.168,1.777,0.451V5.5c0-0.133-0.053-0.26-0.146-0.353l-5-5
				C11.76,0.053,11.633,0,11.5,0h-11C0.225,0,0,0.224,0,0.5v21C0,21.776,0.225,22,0.5,22h13.499C12.477,20.434,11,18.432,11,16.538z
				 M11,1l5,5h-5V1z M10,16.5c0,0.276-0.224,0.5-0.5,0.5h-7C2.224,17,2,16.776,2,16.5S2.224,16,2.5,16H3v-3.5
				C3,12.224,3.224,12,3.5,12H5V7.5C5,7.224,5.224,7,5.5,7h2C7.776,7,8,7.224,8,7.5V10h1.5c0.276,0,0.5,0.224,0.5,0.5V16.5z"/>
		</g>
		<path d="M20.777,13c-0.951,0-2.071,0.492-2.777,1.785C17.294,13.492,16.174,13,15.223,13C13.639,13,12,14.323,12,16.538
			c0,3.181,5.473,7.196,5.706,7.367c0.173,0.126,0.415,0.126,0.588,0C18.527,23.734,24,19.719,24,16.538
			C24,14.323,22.361,13,20.777,13z"/>
	</g>
</g>
<g id="Invisible_Shape">
	<rect fill="none" width="24" height="24"/>
</g>
</svg>
