<?xml version="1.0" encoding="utf-8"?>
<!-- Generator: Adobe Illustrator 19.2.1, SVG Export Plug-In . SVG Version: 6.00 Build 0)  -->
<svg version="1.1" xmlns="http://www.w3.org/2000/svg" xmlns:xlink="http://www.w3.org/1999/xlink" x="0px" y="0px" width="24px"
	 height="24px" viewBox="0 0 24 24" enable-background="new 0 0 24 24" xml:space="preserve">
<g id="Filled_Icons">
	<g>
		<path d="M17.5,11c-3.584,0-6.5,2.916-6.5,6.5s2.916,6.5,6.5,6.5s6.5-2.916,6.5-6.5S21.084,11,17.5,11z M13.035,16.014
			c1.135-3.208,5.287-4.051,7.742-1.484v-0.568c0-0.277,0.224-0.5,0.5-0.5c0.276,0,0.5,0.223,0.5,0.5v2.221
			c0,0.275-0.224,0.5-0.5,0.5h-2.223c-0.275,0-0.5-0.225-0.5-0.5c0-0.276,0.225-0.5,0.5-0.5h1.379
			c-1.579-2.395-5.434-2.215-6.457,0.666c-0.089,0.252-0.366,0.4-0.638,0.305C13.078,16.56,12.942,16.274,13.035,16.014z
			 M21.965,18.986c-1.137,3.213-5.293,4.047-7.742,1.486v0.567c0,0.276-0.223,0.5-0.5,0.5c-0.275,0-0.5-0.224-0.5-0.5v-2.222
			c0-0.276,0.225-0.5,0.5-0.5h2.223c0.276,0,0.5,0.224,0.5,0.5c0,0.275-0.224,0.5-0.5,0.5h-1.379
			c1.577,2.396,5.435,2.215,6.457-0.667c0.092-0.26,0.378-0.396,0.638-0.304C21.922,18.44,22.058,18.726,21.965,18.986z"/>
		<path d="M10.025,18H3.5C3.224,18,3,17.776,3,17.5v-10C3,7.224,3.224,7,3.5,7S4,7.224,4,7.5v4.793l1.897-1.897
			c0.195-0.195,0.512-0.195,0.707,0l1.647,1.647l2.896-2.897c0.195-0.195,0.512-0.195,0.707,0s0.195,0.512,0,0.707l-3.25,3.25
			c-0.195,0.195-0.512,0.195-0.707,0L6.25,11.457L4,13.707V17h6.025c0.248-3.736,3.238-6.727,6.975-6.975V5.5
			c0-0.133-0.053-0.26-0.146-0.353l-5-5C11.76,0.053,11.633,0,11.5,0h-11C0.225,0,0,0.224,0,0.5v21C0,21.776,0.225,22,0.5,22h11.014
			C10.663,20.87,10.125,19.496,10.025,18z M11,1l5,5h-5V1z"/>
	</g>
</g>
<g id="Invisible_Shape">
	<rect fill="none" width="24" height="24"/>
</g>
</svg>
