<?xml version="1.0" encoding="utf-8"?>
<!-- Generator: Adobe Illustrator 19.2.1, SVG Export Plug-In . SVG Version: 6.00 Build 0)  -->
<svg version="1.1" xmlns="http://www.w3.org/2000/svg" xmlns:xlink="http://www.w3.org/1999/xlink" x="0px" y="0px" width="24px"
	 height="24px" viewBox="0 0 24 24" enable-background="new 0 0 24 24" xml:space="preserve">
<g id="Filled_Icons">
	<g>
		<path d="M17.481,11c-3.584,0-6.5,2.916-6.5,6.5s2.916,6.5,6.5,6.5c3.584,0,6.5-2.916,6.5-6.5S21.065,11,17.481,11z M17.481,16.928
			c1.043,0,1.891,0.848,1.891,1.891c0,0.869-0.592,1.595-1.391,1.815v0.503c0,0.276-0.224,0.5-0.5,0.5c-0.276,0-0.5-0.224-0.5-0.5
			v-0.503c-0.799-0.221-1.391-0.946-1.391-1.815c0-0.275,0.224-0.5,0.5-0.5c0.276,0,0.5,0.225,0.5,0.5
			c0,0.492,0.399,0.891,0.891,0.891c0.491,0,0.891-0.399,0.891-0.891c0-0.491-0.399-0.891-0.891-0.891
			c-1.043,0-1.891-0.849-1.891-1.891c0-0.869,0.592-1.596,1.391-1.816v-0.502c0-0.277,0.224-0.5,0.5-0.5c0.276,0,0.5,0.223,0.5,0.5
			v0.502c0.799,0.221,1.391,0.947,1.391,1.816c0,0.276-0.224,0.5-0.5,0.5c-0.276,0-0.5-0.224-0.5-0.5
			c0-0.491-0.399-0.892-0.891-0.892c-0.491,0-0.891,0.4-0.891,0.892S16.99,16.928,17.481,16.928z"/>
		<path d="M10.025,18H3.5C3.224,18,3,17.776,3,17.5v-10C3,7.224,3.224,7,3.5,7S4,7.224,4,7.5v4.793l1.897-1.897
			c0.195-0.195,0.512-0.195,0.707,0l1.647,1.647l2.896-2.897c0.195-0.195,0.512-0.195,0.707,0s0.195,0.512,0,0.707l-3.25,3.25
			c-0.195,0.195-0.512,0.195-0.707,0L6.25,11.457L4,13.707V17h6.025c0.248-3.736,3.238-6.727,6.975-6.975V5.5
			c0-0.133-0.053-0.26-0.146-0.353l-5-5C11.76,0.053,11.633,0,11.5,0h-11C0.225,0,0,0.224,0,0.5v21C0,21.776,0.225,22,0.5,22h11.014
			C10.663,20.87,10.125,19.496,10.025,18z M11,1l5,5h-5V1z"/>
	</g>
</g>
<g id="Invisible_Shape">
	<rect fill="none" width="24" height="24"/>
</g>
</svg>
