<?xml version="1.0" encoding="utf-8"?>
<!-- Generator: Adobe Illustrator 19.2.1, SVG Export Plug-In . SVG Version: 6.00 Build 0)  -->
<svg version="1.1" xmlns="http://www.w3.org/2000/svg" xmlns:xlink="http://www.w3.org/1999/xlink" x="0px" y="0px" width="24px"
	 height="24px" viewBox="0 0 24 24" enable-background="new 0 0 24 24" xml:space="preserve">
<g id="Filled_Icons">
	<g>
		<path d="M21.484,19c-0.891,0-1.668,0.471-2.11,1.173l-3.429-1.285c0.052-0.338,0.069-0.569-0.056-1.031l3.638-1.819
			C19.986,16.619,20.688,17,21.484,17c1.379,0,2.5-1.121,2.5-2.5s-1.121-2.5-2.5-2.5c-1.598,0-2.848,1.508-2.405,3.144l-3.638,1.819
			C14.982,16.381,14.28,16,13.484,16c-1.379,0-2.5,1.121-2.5,2.5s1.121,2.5,2.5,2.5c0.891,0,1.669-0.471,2.111-1.175l3.428,1.285
			C18.778,22.718,20.022,24,21.484,24c1.379,0,2.5-1.121,2.5-2.5S22.863,19,21.484,19z M21.484,13c0.827,0,1.5,0.673,1.5,1.5
			c0,0.828-0.673,1.5-1.5,1.5c-0.827,0-1.5-0.672-1.5-1.5C19.984,13.673,20.657,13,21.484,13z M13.484,20
			c-0.827,0-1.5-0.672-1.5-1.5c0-0.827,0.673-1.5,1.5-1.5c0.827,0,1.5,0.673,1.5,1.5C14.984,19.328,14.311,20,13.484,20z M21.484,23
			c-0.827,0-1.5-0.672-1.5-1.5c0-0.827,0.673-1.5,1.5-1.5c0.827,0,1.5,0.673,1.5,1.5C22.984,22.328,22.312,23,21.484,23z"/>
		<g>
			<rect x="4" y="13" width="1" height="3"/>
			<rect x="6" y="8" width="1" height="8"/>
			<path d="M10,18.5c0-1.93,1.57-3.5,3.5-3.5c0.81,0,1.547,0.288,2.141,0.752L17,15.072V5.5c0-0.133-0.053-0.26-0.146-0.353l-5-5
				C11.76,0.053,11.633,0,11.5,0h-11C0.225,0,0,0.224,0,0.5v21C0,21.776,0.225,22,0.5,22h13C11.57,22,10,20.43,10,18.5z M11,1l5,5
				h-5V1z M9.5,17h-7C2.224,17,2,16.776,2,16.5S2.224,16,2.5,16H3v-3.5C3,12.224,3.224,12,3.5,12H5V7.5C5,7.224,5.224,7,5.5,7h2
				C7.776,7,8,7.224,8,7.5V10h1.5c0.276,0,0.5,0.224,0.5,0.5v6C10,16.776,9.776,17,9.5,17z"/>
			<rect x="8" y="11" width="1" height="5"/>
		</g>
	</g>
</g>
<g id="Invisible_Shape">
	<rect fill="none" width="24" height="24"/>
</g>
</svg>
