<?xml version="1.0" encoding="utf-8"?>
<!-- Generator: Adobe Illustrator 19.2.1, SVG Export Plug-In . SVG Version: 6.00 Build 0)  -->
<svg version="1.1" xmlns="http://www.w3.org/2000/svg" xmlns:xlink="http://www.w3.org/1999/xlink" x="0px" y="0px" width="24px"
	 height="24px" viewBox="0 0 24 24" enable-background="new 0 0 24 24" xml:space="preserve">
<g id="Filled_Icons">
	<g>
		<path d="M17.5,24c3.59,0,6.5-2.91,6.5-6.5c0-3.589-2.91-6.5-6.5-6.5S11,13.911,11,17.5C11,21.09,13.91,24,17.5,24z M15,18
			c0.195-0.195,0.512-0.195,0.707,0L17,19.293V14.5c0-0.276,0.224-0.5,0.5-0.5s0.5,0.224,0.5,0.5v4.793L19.293,18
			c0.195-0.195,0.512-0.195,0.707,0s0.195,0.512,0,0.707l-2.146,2.147c-0.195,0.194-0.512,0.194-0.707,0L15,18.707
			C14.805,18.512,14.805,18.195,15,18z"/>
		<g>
			<rect x="4" y="13" width="1" height="3"/>
			<rect x="6" y="8" width="1" height="8"/>
			<rect x="8" y="11" width="1" height="5"/>
			<path d="M10.016,17.465c0-3.961,3.089-7.207,6.984-7.474V5.5c0-0.133-0.053-0.26-0.146-0.353l-5-5C11.76,0.053,11.633,0,11.5,0
				h-11C0.225,0,0,0.224,0,0.5v21C0,21.776,0.225,22,0.5,22h11.056C10.594,20.738,10.016,19.17,10.016,17.465z M11,1l5,5h-5V1z
				 M10,16.5c0,0.276-0.224,0.5-0.5,0.5h-7C2.224,17,2,16.776,2,16.5S2.224,16,2.5,16H3v-3.5C3,12.224,3.224,12,3.5,12H5V7.5
				C5,7.224,5.224,7,5.5,7h2C7.776,7,8,7.224,8,7.5V10h1.5c0.276,0,0.5,0.224,0.5,0.5V16.5z"/>
		</g>
	</g>
</g>
<g id="Invisible_Shape">
	<rect fill="none" width="24" height="24"/>
</g>
</svg>
