<?xml version="1.0" encoding="utf-8"?>
<!-- Generator: Adobe Illustrator 19.2.1, SVG Export Plug-In . SVG Version: 6.00 Build 0)  -->
<svg version="1.1" xmlns="http://www.w3.org/2000/svg" xmlns:xlink="http://www.w3.org/1999/xlink" x="0px" y="0px" width="24px"
	 height="24px" viewBox="0 0 24 24" enable-background="new 0 0 24 24" xml:space="preserve">
<g id="Filled_Icon">
	<g>
		<path d="M9.208,2.956l1.816-1.427v2.992c0,0.276,0.224,0.5,0.5,0.5c0.276,0,0.5-0.224,0.479-0.5V1.553l1.736,1.398
			c0.213,0.173,0.528,0.142,0.703-0.072c0.175-0.214,0.142-0.529-0.072-0.704L11.84,0.113c-0.008-0.006-0.019-0.004-0.026-0.01
			c-0.187-0.134-0.384-0.136-0.57-0.004c-0.008,0.005-0.02,0.003-0.027,0.009L8.591,2.17c-0.218,0.17-0.255,0.484-0.085,0.702
			C8.678,3.091,8.996,3.125,9.208,2.956z"/>
		<path d="M22.79,9.102l-1.955-2.488c-0.172-0.218-0.489-0.255-0.702-0.084c-0.218,0.17-0.255,0.485-0.085,0.703L21.438,9h-2.945
			c-0.276,0-0.5,0.224-0.5,0.5c0,0.276,0.224,0.5,0.5,0.5h2.997l-1.437,1.763c-0.175,0.215-0.143,0.529,0.072,0.704
			c0.215,0.175,0.53,0.141,0.703-0.072l2.062-2.532C23.033,9.687,23.074,9.306,22.79,9.102z"/>
		<path d="M4.556,9H1.61l1.391-1.769C3.171,7.015,3.134,6.7,2.916,6.529c-0.214-0.17-0.53-0.134-0.702,0.084L0.259,9.102
			c-0.285,0.205-0.243,0.586-0.102,0.762l2.062,2.532c0.173,0.212,0.488,0.247,0.703,0.072c0.215-0.174,0.247-0.489,0.072-0.704
			L1.56,10h2.996c0.276,0,0.5-0.224,0.5-0.5C5.056,9.224,4.832,9,4.556,9z"/>
		<path d="M13.74,20.05l-1.736,1.398V18.48c0.021-0.276-0.203-0.5-0.479-0.5c-0.276,0-0.5,0.224-0.5,0.5v2.992l-1.816-1.427
			c-0.214-0.17-0.53-0.134-0.702,0.084c-0.17,0.218-0.133,0.532,0.085,0.703l2.625,2.062c0.163,0.133,0.419,0.149,0.624-0.005
			l2.531-2.062c0.215-0.174,0.247-0.489,0.072-0.704C14.269,19.908,13.953,19.876,13.74,20.05z"/>
		<path d="M16.537,8.464l-4.791-2.37c-0.141-0.07-0.303-0.07-0.443,0l-4.78,2.364l5.002,2.483L16.537,8.464z"/>
		<path d="M11.004,11.81L6.024,9.328V14c0,0.188,0.105,0.36,0.273,0.446l4.688,2.394L11.004,11.81z"/>
		<path d="M12.006,16.858l4.745-2.412c0.168-0.085,0.273-0.258,0.253-0.446V9.339l-4.981,2.472L12.006,16.858z"/>
	</g>
</g>
<g id="Invisible_Shape">
	<rect fill="none" width="24" height="24"/>
</g>
</svg>
