<?xml version="1.0" encoding="utf-8"?>
<!-- Generator: Adobe Illustrator 19.2.1, SVG Export Plug-In . SVG Version: 6.00 Build 0)  -->
<svg version="1.1" xmlns="http://www.w3.org/2000/svg" xmlns:xlink="http://www.w3.org/1999/xlink" x="0px" y="0px" width="24px"
	 height="24px" viewBox="0 0 24 24" enable-background="new 0 0 24 24" xml:space="preserve">
<g id="Filled_Icon">
	<g>
		<g>
			<path d="M7,4.001v-4H4.5c-0.133,0-0.26,0.053-0.353,0.147L0.293,4.001H7z"/>
			<path d="M8,4.001h6.707l-3.853-3.854C10.76,0.053,10.633,0.001,10.5,0.001H8V4.001z"/>
			<path d="M0,5.001v10.5C0,15.777,0.224,16,0.5,16l8.17,0c1.219-2.41,3.222-4.56,6.33-5.494V5.001H0z"/>
		</g>
		<path d="M23.812,13.111l-5-4C18.481,8.846,18,9.086,18,9.5v1.509C8.115,11.385,8,22.882,8,23c0,0.257,0.194,0.471,0.45,0.497
			c0.239,0.029,0.486-0.136,0.54-0.399c0.058-0.284,1.473-6.812,9.01-7.089V17.5c0,0.417,0.482,0.652,0.812,0.391l5-4
			C24.062,13.69,24.062,13.311,23.812,13.111z"/>
	</g>
</g>
<g id="Invisible_Shape">
	<rect fill="none" width="24" height="24"/>
</g>
</svg>
