<?xml version="1.0" encoding="utf-8"?>
<!-- Generator: Adobe Illustrator 19.2.1, SVG Export Plug-In . SVG Version: 6.00 Build 0)  -->
<svg version="1.1" xmlns="http://www.w3.org/2000/svg" xmlns:xlink="http://www.w3.org/1999/xlink" x="0px" y="0px" width="24px"
	 height="24px" viewBox="0 0 24 24" enable-background="new 0 0 24 24" xml:space="preserve">
<g id="Filled_Icon">
	<g>
		<path d="M0,8v15.5C0,23.776,0.224,24,0.5,24h23c0.276,0,0.5-0.225,0.5-0.5V8H0z M22,21.5c0,0.275-0.224,0.5-0.5,0.5h-8
			c-0.276,0-0.5-0.225-0.5-0.5v-3c0-0.275,0.224-0.5,0.5-0.5h8c0.276,0,0.5,0.225,0.5,0.5V21.5z"/>
		<path d="M18.906,0.209c-0.094-0.131-0.245-0.209-0.406-0.209H12v7h11.757L18.906,0.209z"/>
		<path d="M11,0.001H5.5c-0.162,0-0.313,0.078-0.407,0.209L0.242,7.001H11V0.001z"/>
	</g>
</g>
<g id="Invisible_Shape">
	<rect fill="none" width="24" height="24"/>
</g>
</svg>
