<?xml version="1.0" encoding="utf-8"?>
<!-- Generator: Adobe Illustrator 19.2.1, SVG Export Plug-In . SVG Version: 6.00 Build 0)  -->
<svg version="1.1" xmlns="http://www.w3.org/2000/svg" xmlns:xlink="http://www.w3.org/1999/xlink" x="0px" y="0px" width="24px"
	 height="24px" viewBox="0 0 24 24" enable-background="new 0 0 24 24" xml:space="preserve">
<g id="Filled_Icon">
	<g>
		<g>
			<path d="M14,21v2.5c0,0.276,0.224,0.5,0.5,0.5h6c0.276,0,0.5-0.224,0.5-0.5V21H14z"/>
			<path d="M22.213,6.732c-1.113,0.78-1.688,2.819-1.712,6.06l-1.594,1.595l0.298-1.301c0.253-1.06-0.213-1.781-0.787-2.026
				c-0.532-0.226-1.294-0.095-1.808,0.702C16.003,12.706,15,15.723,15,15.993V20h5v-0.823c0.638-0.631,3.146-3.115,3.854-3.823
				C23.947,15.261,24,15.133,24,15V6.938C24,6.216,22.817,6.308,22.213,6.732z"/>
		</g>
		<g>
			<path d="M4,20h5v-4.007c0-0.271-1.003-3.288-1.61-4.232c-0.515-0.797-1.273-0.929-1.808-0.702
				c-0.574,0.246-1.04,0.967-0.788,2.022l0.299,1.305l-1.594-1.595C3.476,9.551,2.9,7.512,1.787,6.732C1.186,6.31,0,6.215,0,6.938
				V15c0,0.15,0.067,0.294,0.185,0.388C1.028,16.075,3.402,18.544,4,19.17V20z"/>
			<path d="M3,21v2.5C3,23.776,3.224,24,3.5,24h6c0.276,0,0.5-0.224,0.5-0.5V21H3z"/>
		</g>
		<g>
			<path d="M11,6.796L6,3.77V9.5c0,0.184,0.1,0.352,0.261,0.44L11,12.798V6.796z"/>
			<path d="M11.501,5.931l5.992-3.004l-5.254-2.865c-0.148-0.082-0.33-0.082-0.479,0L6.525,2.917L11.501,5.931z"/>
			<path d="M12,6.796v6.002l5.739-2.858C17.9,9.852,18,9.684,18,9.5V3.79L12,6.796z"/>
		</g>
	</g>
</g>
<g id="Invisible_Shape">
	<rect fill="none" width="24" height="24"/>
</g>
</svg>
