<?xml version="1.0" encoding="utf-8"?>
<!-- Generator: Adobe Illustrator 19.2.1, SVG Export Plug-In . SVG Version: 6.00 Build 0)  -->
<svg version="1.1" xmlns="http://www.w3.org/2000/svg" xmlns:xlink="http://www.w3.org/1999/xlink" x="0px" y="0px" width="24px"
	 height="24px" viewBox="0 0 24 24" enable-background="new 0 0 24 24" xml:space="preserve">
<g id="Filled_Icon">
	<g>
		<path d="M7.027,4v-4h-2.5C4.394,0,4.268,0.053,4.174,0.147L0.32,4H7.027z"/>
		<path d="M8.027,4h6.707l-3.853-3.853C10.787,0.053,10.66,0,10.527,0.001h-2.5V4z"/>
		<path d="M6.601,13.158c0-3.6,2.701-5.751,5.313-5.751c1.012,0,2.134,0.333,3.114,1.12V5.001h-15v10.5c0,0.276,0.224,0.5,0.5,0.5
			l6.827,0C6.891,15.051,6.601,14.09,6.601,13.158z"/>
		<path d="M19.688,8.407c-1.35,0-2.955,0.748-3.887,2.742c-0.932-1.995-2.538-2.742-3.888-2.742c-2.12,0-4.313,1.777-4.313,4.751
			c0,4.354,7.583,9.917,7.906,10.152c0.173,0.126,0.41,0.13,0.588,0C16.418,23.075,24,17.511,24,13.158
			C24,10.184,21.808,8.407,19.688,8.407z"/>
	</g>
</g>
<g id="Invisible_Shape">
	<rect fill="none" width="24" height="24"/>
</g>
</svg>
