<?xml version="1.0" encoding="utf-8"?>
<!-- Generator: Adobe Illustrator 19.2.1, SVG Export Plug-In . SVG Version: 6.00 Build 0)  -->
<svg version="1.1" xmlns="http://www.w3.org/2000/svg" xmlns:xlink="http://www.w3.org/1999/xlink" x="0px" y="0px" width="24px"
	 height="24px" viewBox="0 0 24 24" enable-background="new 0 0 24 24" xml:space="preserve">
<g id="Filled_Icon">
	<g>
		<path d="M7,4.001v-4H4.5c-0.133,0-0.26,0.053-0.353,0.147L0.293,4.001H7z"/>
		<path d="M8,4.001h6.707l-3.853-3.854C10.76,0.053,10.633,0.001,10.5,0.001H8V4.001z"/>
		<path d="M7.562,14.672c-0.75-0.6-0.75-1.743,0-2.342l5-4c0.98-0.781,2.438-0.087,2.438,1.171L15,5.001H0v10.5
			C0,15.777,0.224,16,0.5,16l8.723,0L7.562,14.672z"/>
		<path d="M13.999,11.01V9.5c0-0.416-0.484-0.653-0.812-0.39l-5,4c-0.25,0.2-0.25,0.579,0,0.78l5,4
			c0.326,0.261,0.812,0.029,0.812-0.391V16.01c7.537,0.277,8.952,6.806,9.01,7.089c0.054,0.262,0.301,0.427,0.54,0.399
			c0.256-0.026,0.45-0.24,0.45-0.497C23.999,22.882,23.884,11.385,13.999,11.01z"/>
	</g>
</g>
<g id="Invisible_Shape">
	<rect fill="none" width="24" height="24"/>
</g>
</svg>
