<?xml version="1.0" encoding="utf-8"?>
<!-- Generator: Adobe Illustrator 19.2.1, SVG Export Plug-In . SVG Version: 6.00 Build 0)  -->
<svg version="1.1" xmlns="http://www.w3.org/2000/svg" xmlns:xlink="http://www.w3.org/1999/xlink" x="0px" y="0px" width="24px"
	 height="24px" viewBox="0 0 24 24" enable-background="new 0 0 24 24" xml:space="preserve">
<g id="Filled_Icon">
	<g>
		<path d="M23.5,11h-3c-0.276,0-0.5,0.224-0.5,0.5v8c0,0.276,0.224,0.5,0.5,0.5h3c0.276,0,0.5-0.224,0.5-0.5v-8
			C24,11.224,23.776,11,23.5,11z"/>
		<path d="M6.687,13.998C7.089,13.388,7.735,13,8.5,13h3.169c1-0.72,2.611-2,4.831-2H18V1.5C18,1.224,17.776,1,17.5,1H13v8.5
			l-2.5-2.458L8,9.5V1H3.5C3.224,1,3,1.224,3,1.5v11.46C3.842,13.029,4.195,13.21,6.687,13.998z"/>
		<path d="M12,14c-1.288,0-2.179,0-3.5,0c-0.622,0-1.006,0.437-1.006,1.004C7.494,15.464,7.758,16,8.5,16H14
			c0.276,0,0.5,0.224,0.5,0.5S14.276,17,14,17H8.5c-1.316,0-2.006-1.003-2.006-1.996c0-0.006,0.002-0.012,0.002-0.018l-2.858-0.905
			c-1.303-0.373-2.316-0.046-3.491,1.128c-0.242,0.244-0.172,0.65,0.13,0.801c6.786,3.393,8.72,4.933,11.049,4.933
			c1.691,0,3.611-0.811,7.675-2.185V12h-2.5C14.899,12,13.149,12.983,12,14z"/>
	</g>
</g>
<g id="Invisible_Shape">
	<rect fill="none" width="24" height="24"/>
</g>
</svg>
