<?xml version="1.0" encoding="utf-8"?>
<!-- Generator: Adobe Illustrator 19.2.1, SVG Export Plug-In . SVG Version: 6.00 Build 0)  -->
<svg version="1.1" xmlns="http://www.w3.org/2000/svg" xmlns:xlink="http://www.w3.org/1999/xlink" x="0px" y="0px" width="24px"
	 height="24px" viewBox="0 0 24 24" enable-background="new 0 0 24 24" xml:space="preserve">
<g id="Filled_Icon">
	<g>
		<path d="M7,4.001v-4H4.5c-0.133,0-0.26,0.053-0.353,0.147L0.293,4.001H7z"/>
		<path d="M8,4.001h6.707l-3.853-3.854C10.76,0.053,10.633,0.001,10.5,0.001H8V4.001z"/>
		<path d="M15,8.04V5.001H0v10.5C0,15.777,0.224,16,0.5,16h7.635C7.412,11.768,10.724,7.952,15,8.04z"/>
		<path d="M23.854,23.147l-4.276-4.276C20.463,17.825,21,16.475,21,15c0-3.309-2.691-6-6-6s-6,2.691-6,6c0,3.309,2.691,6,6,6
			c1.475,0,2.824-0.537,3.87-1.423l4.276,4.276c0.195,0.195,0.512,0.195,0.707,0C24.049,23.659,24.049,23.342,23.854,23.147z M10,15
			c0-2.757,2.243-5,5-5s5,2.243,5,5s-2.243,5-5,5S10,17.757,10,15z"/>
	</g>
</g>
<g id="Invisible_Shape">
	<rect fill="none" width="24" height="24"/>
</g>
</svg>
