<?xml version="1.0" encoding="utf-8"?>
<!-- Generator: Adobe Illustrator 19.2.1, SVG Export Plug-In . SVG Version: 6.00 Build 0)  -->
<svg version="1.1" xmlns="http://www.w3.org/2000/svg" xmlns:xlink="http://www.w3.org/1999/xlink" x="0px" y="0px" width="24px"
	 height="24px" viewBox="0 0 24 24" enable-background="new 0 0 24 24" xml:space="preserve">
<g id="Filled_Icon">
	<g>
		<path d="M7,4.001v-4H4.5c-0.133,0-0.26,0.053-0.353,0.147L0.293,4.001H7z"/>
		<path d="M8,4.001h6.707l-3.853-3.854C10.76,0.053,10.633,0.001,10.5,0.001H8V4.001z"/>
		<path d="M8.865,15.127c0.416-0.239,0.923-0.265,1.36-0.069l1.988,0.889l0.568-0.227l-1.193-0.794
			c-0.954-0.635-0.87-2.059,0.142-2.582l1.966-1.015c0.412-0.213,0.89-0.21,1.303-0.023V5.001H0v10.5C0,15.777,0.224,16,0.5,16
			h6.847L8.865,15.127z"/>
		<g>
			<path d="M13.842,15.27l3.409-1.361l-2.668-1.671c-0.149-0.094-0.338-0.102-0.495-0.02l-1.966,1.016
				c-0.337,0.175-0.364,0.65-0.048,0.861L13.842,15.27z"/>
			<path d="M23.849,14.14c-0.371-0.822-1.381-1.236-2.226-0.9l-9.499,3.792l-2.374-1.061c-0.145-0.064-0.315-0.057-0.453,0.023
				l-1.937,1.114c-0.324,0.186-0.336,0.652-0.022,0.854l4.408,2.846c0.136,0.088,0.305,0.105,0.455,0.045l3.333-1.313l-1.453,3.77
				c-0.164,0.43,0.292,0.834,0.697,0.623l2.197-1.142c0.088-0.046,0.16-0.117,0.208-0.204l2.599-4.744l3.184-1.404
				C23.834,16.058,24.248,15.029,23.849,14.14z"/>
		</g>
	</g>
</g>
<g id="Invisible_Shape">
	<rect fill="none" width="24" height="24"/>
</g>
</svg>
