<?xml version="1.0" encoding="utf-8"?>
<!-- Generator: Adobe Illustrator 19.2.1, SVG Export Plug-In . SVG Version: 6.00 Build 0)  -->
<svg version="1.1" xmlns="http://www.w3.org/2000/svg" xmlns:xlink="http://www.w3.org/1999/xlink" x="0px" y="0px" width="24px"
	 height="24px" viewBox="0 0 24 24" enable-background="new 0 0 24 24" xml:space="preserve">
<g id="Filled_Icon">
	<g>
		<path d="M7,4v-4H4.5C4.367,0,4.24,0.053,4.147,0.147L0.293,4H7z"/>
		<path d="M8,4h6.707l-3.853-3.853C10.76,0.053,10.633,0,10.5,0.001H8V4z"/>
		<path d="M8,14.5C8,13.672,8.672,13,9.5,13H11v-0.5c0-0.829,0.672-1.5,1.5-1.5H15v-6H0v10.5C0,15.776,0.224,16,0.5,16L8,16V14.5z"
			/>
		<g>
			<polygon points="16,16.5 16,15.001 12.5,15 12.499,15 12.499,17 16,17 			"/>
			<path d="M12.499,12.001V14l0.001,0l3.5,0v-1.5c0-0.276-0.224-0.5-0.5-0.5h-3L12.499,12.001L12.499,12.001z"/>
			<path d="M20,14c0.276,0,0.5,0.224,0.5,0.5c0,0.276-0.224,0.5-0.5,0.5l-3,0.001V17h6v-4.5c0-0.276-0.224-0.5-0.5-0.5H22v-2
				c0-0.276-0.224-0.5-0.5-0.5S21,9.724,21,10v2h-3.5c-0.276,0-0.5,0.224-0.5,0.5V14L20,14z"/>
			<path d="M8.499,18c-0.355,0-0.596,0.36-0.463,0.69l1.12,2.734c1.617,1.021,3.691-0.048,4.983-1.332
				c0.557-0.553,1.539-0.565,2.106-0.019c1.518,1.449,3.693,2.498,5.38,1.141C21.731,21.015,23,18.727,23,18.5
				c0-0.276-0.224-0.5-0.5-0.5C16.475,18,15.014,18,8.499,18z"/>
			<path d="M11.499,17v-3H9.5C9.224,14,9,14.224,9,14.5v2V17H11.499z"/>
		</g>
		<g>
			<path d="M15.208,21.825c-3.536,3.069-7.034,2.33-8.663-0.182c-0.149-0.232-0.083-0.54,0.148-0.69
				c0.231-0.152,0.541-0.084,0.691,0.146c1.766,2.648,5.048,2.06,7.463-0.298c0.185-0.186,0.516-0.19,0.704-0.008
				c2.458,2.346,5.767,2.937,7.465,0.389c0.146-0.235,0.456-0.306,0.688-0.162c0.234,0.146,0.307,0.454,0.161,0.688
				C22.609,23.715,19.256,25.232,15.208,21.825z"/>
		</g>
	</g>
</g>
<g id="Invisible_Shape">
	<rect fill="none" width="24" height="24"/>
</g>
</svg>
