<?xml version="1.0" encoding="utf-8"?>
<!-- Generator: Adobe Illustrator 19.2.1, SVG Export Plug-In . SVG Version: 6.00 Build 0)  -->
<svg version="1.1" xmlns="http://www.w3.org/2000/svg" xmlns:xlink="http://www.w3.org/1999/xlink" x="0px" y="0px" width="24px"
	 height="24px" viewBox="0 0 24 24" enable-background="new 0 0 24 24" xml:space="preserve">
<g id="Filled_Icon">
	<path d="M23.646,4.522l-11.5-3.5c-0.096-0.028-0.195-0.028-0.291,0l-11.5,3.5C0.144,4.586,0,4.781,0,5.001v2.5
		C0,7.777,0.224,8,0.5,8H2v15.5C2,23.777,2.224,24,2.5,24S3,23.777,3,23.5V8h18v15.5c0,0.276,0.224,0.5,0.5,0.5s0.5-0.224,0.5-0.5V8
		h1.5c0.276,0,0.5-0.224,0.5-0.5v-2.5C24,4.781,23.856,4.586,23.646,4.522z"/>
	<path d="M15.5,9H13v2.5c0,0.276-0.224,0.5-0.5,0.5h-1c-0.276,0-0.5-0.224-0.5-0.5V9H8.5C8.224,9,8,9.224,8,9.5v6
		C8,15.777,8.224,16,8.5,16h7c0.276,0,0.5-0.224,0.5-0.5v-6C16,9.224,15.776,9,15.5,9z"/>
	<path d="M11.5,17H9v2.5C9,19.777,8.776,20,8.5,20h-1C7.224,20,7,19.777,7,19.5V17H4.5C4.224,17,4,17.224,4,17.5v6
		C4,23.777,4.224,24,4.5,24h7c0.276,0,0.5-0.224,0.5-0.5v-6C12,17.224,11.776,17,11.5,17z"/>
	<path d="M19.5,17H18v2.5c0,0.276-0.224,0.5-0.5,0.5h-2c-0.276,0-0.5-0.224-0.5-0.5V17h-1.5c-0.276,0-0.5,0.224-0.5,0.5v6
		c0,0.276,0.224,0.5,0.5,0.5h6c0.276,0,0.5-0.224,0.5-0.5v-6C20,17.224,19.776,17,19.5,17z"/>
</g>
<g id="Invisible_Shape">
	<rect fill="none" width="24" height="24"/>
</g>
</svg>
