<?xml version="1.0" encoding="utf-8"?>
<!-- Generator: Adobe Illustrator 19.2.1, SVG Export Plug-In . SVG Version: 6.00 Build 0)  -->
<svg version="1.1" xmlns="http://www.w3.org/2000/svg" xmlns:xlink="http://www.w3.org/1999/xlink" x="0px" y="0px" width="24px"
	 height="24px" viewBox="0 0 24 24" enable-background="new 0 0 24 24" xml:space="preserve">
<g id="Filled_Icon">
	<g>
		<path d="M23.647,7.952l-0.702-0.406c0.073-0.542,0.073-0.548,0-1.092l0.702-0.404c0.239-0.138,0.319-0.443,0.183-0.684
			l-1.001-1.732c-0.137-0.239-0.443-0.322-0.683-0.184l-0.702,0.406C21.156,3.63,20.844,3.437,20.5,3.298V2.5
			C20.5,2.224,20.276,2,20,2h-2c-0.276,0-0.5,0.224-0.5,0.5v0.797c-0.344,0.139-0.656,0.333-0.945,0.558l-0.701-0.404
			c-0.24-0.139-0.545-0.057-0.684,0.182l-1,1.732c-0.139,0.239-0.057,0.546,0.184,0.684l0.701,0.405c-0.073,0.54-0.074,0.548,0,1.09
			L14.352,7.95c-0.239,0.139-0.32,0.444-0.184,0.684l1.001,1.732c0.137,0.239,0.443,0.321,0.684,0.184l0.7-0.405
			c0.289,0.226,0.602,0.42,0.946,0.56V11.5c0,0.276,0.224,0.5,0.5,0.5h2c0.276,0,0.5-0.224,0.5-0.5v-0.797
			c0.345-0.14,0.657-0.334,0.946-0.559l0.701,0.404c0.239,0.138,0.544,0.056,0.683-0.184l1-1.732
			C23.969,8.395,23.887,8.088,23.647,7.952z M19,9c-1.104,0-2-0.896-2-2s0.896-2,2-2s2,0.895,2,2S20.104,9,19,9z"/>
		<path d="M10.854,10.147L8,7.294c0.616-0.77,1-1.733,1-2.793c0-2.481-2.018-4.5-4.499-4.5C2.02,0.001,0,2.02,0,4.501
			C0,6.981,2.02,9,4.501,9c1.06,0,2.022-0.385,2.792-1l2.853,2.854c0.195,0.194,0.512,0.194,0.707,0
			C11.049,10.66,11.049,10.342,10.854,10.147z M4.501,8C2.57,8,1,6.431,1,4.501C1,2.572,2.57,1,4.501,1C6.43,1,8,2.572,8,4.501
			C8,6.431,6.43,8,4.501,8z"/>
		<g>
			<g>
				<path d="M18.082,13c-0.802,0-1.5-0.587-1.5-1.668c-0.012-0.006-0.023-0.012-0.035-0.019c-1,0.558-1.827,0.255-2.232-0.446
					l-1-1.732c-0.396-0.685-0.265-1.581,0.696-2.134H9.383C9.352,7.059,9.329,7.12,9.297,7.177l2.264,2.263
					c0.586,0.586,0.586,1.535,0,2.121c-0.586,0.586-1.535,0.586-2.121,0L7.176,9.299c-1.105,0.617-2.053,0.75-3.072,0.674L3.135,13
					H18.082z"/>
				<path d="M3,14v9.5C3,23.777,3.224,24,3.5,24h17c0.276,0,0.5-0.224,0.5-0.5V14H3z M19,22h-7v-3h7V22z"/>
			</g>
		</g>
	</g>
</g>
<g id="Invisible_Shape">
	<rect fill="none" width="24" height="24"/>
</g>
</svg>
