<?xml version="1.0" encoding="utf-8"?>
<!-- Generator: Adobe Illustrator 19.2.1, SVG Export Plug-In . SVG Version: 6.00 Build 0)  -->
<svg version="1.1" xmlns="http://www.w3.org/2000/svg" xmlns:xlink="http://www.w3.org/1999/xlink" x="0px" y="0px" width="24px"
	 height="24px" viewBox="0 0 24 24" enable-background="new 0 0 24 24" xml:space="preserve">
<g id="Filled_Icon">
	<g>
		<g>
			<path d="M7,4.001v-4H4.5c-0.133,0-0.26,0.053-0.353,0.147L0.293,4.001H7z"/>
			<path d="M8,4.001h6.707l-3.853-3.854C10.76,0.053,10.633,0.001,10.5,0.001H8V4.001z"/>
			<path d="M15,8.142V5.001H0v10.5C0,15.777,0.224,16,0.5,16h7.525C8.257,12.053,11.188,8.824,15,8.142z"/>
		</g>
		<path d="M16.5,9C12.364,9,9,12.365,9,16.5c0,4.136,3.364,7.5,7.5,7.5s7.5-3.364,7.5-7.5C24,12.365,20.636,9,16.5,9z
			 M21.472,18.167c-1.179,3.337-6.1,4.689-8.972,1.564V20.5c0,0.276-0.224,0.5-0.5,0.5s-0.5-0.224-0.5-0.5V18
			c0-0.276,0.224-0.5,0.5-0.5h2.5c0.276,0,0.5,0.224,0.5,0.5s-0.224,0.5-0.5,0.5h-1.693c1.973,3.122,6.675,2.303,7.722-0.667
			c0.092-0.26,0.381-0.395,0.638-0.305C21.427,17.622,21.563,17.907,21.472,18.167z M21.5,15c0,0.276-0.224,0.5-0.5,0.5h-2.5
			c-0.276,0-0.5-0.224-0.5-0.5c0-0.276,0.224-0.5,0.5-0.5h1.692c-1.966-3.114-6.669-2.31-7.721,0.667
			c-0.093,0.262-0.376,0.397-0.639,0.305c-0.26-0.092-0.397-0.378-0.305-0.638c1.179-3.336,6.1-4.69,8.972-1.564V12.5
			c0-0.276,0.224-0.5,0.5-0.5s0.5,0.224,0.5,0.5V15z"/>
	</g>
</g>
<g id="Invisible_Shape">
	<rect fill="none" width="24" height="24"/>
</g>
</svg>
