<?xml version="1.0" encoding="utf-8"?>
<!-- Generator: Adobe Illustrator 19.2.1, SVG Export Plug-In . SVG Version: 6.00 Build 0)  -->
<svg version="1.1" xmlns="http://www.w3.org/2000/svg" xmlns:xlink="http://www.w3.org/1999/xlink" x="0px" y="0px" width="24px"
	 height="24px" viewBox="0 0 24 24" enable-background="new 0 0 24 24" xml:space="preserve">
<g id="Filled_Icon">
	<g>
		<path d="M7,4v-4H4.5C4.367,0,4.24,0.053,4.147,0.147L0.293,4H7z"/>
		<path d="M8,4h6.707l-3.853-3.853C10.76,0.053,10.633,0,10.5,0.001H8V4z"/>
		<path d="M8,14.5C8,13.672,8.672,13,9.5,13h0.019C9.717,10.389,12.284,8.002,15,8.002V5.001H0v10.5C0,15.776,0.224,16,0.5,16L8,16
			V14.5z"/>
		<path d="M20.5,14h-1v-0.68c0-2.179-2.229-4.318-4.5-4.318s-4.5,2.139-4.5,4.318V14h-1C9.224,14,9,14.224,9,14.5v9
			C9,23.777,9.224,24,9.5,24h11c0.276,0,0.5-0.224,0.5-0.5v-9C21,14.224,20.776,14,20.5,14z M15.5,18.728V21
			c0,0.276-0.224,0.5-0.5,0.5s-0.5-0.224-0.5-0.5v-2.274c-0.347-0.182-0.591-0.535-0.591-0.954c0-0.601,0.489-1.091,1.091-1.091
			s1.091,0.489,1.091,1.091C16.091,18.191,15.847,18.544,15.5,18.728z M18.5,14h-7v-0.68c0-1.644,1.767-3.318,3.5-3.318
			s3.5,1.675,3.5,3.318V14z"/>
	</g>
</g>
<g id="Invisible_Shape">
	<rect fill="none" width="24" height="24"/>
</g>
</svg>
