<?xml version="1.0" encoding="utf-8"?>
<!-- Generator: Adobe Illustrator 19.2.1, SVG Export Plug-In . SVG Version: 6.00 Build 0)  -->
<svg version="1.1" xmlns="http://www.w3.org/2000/svg" xmlns:xlink="http://www.w3.org/1999/xlink" x="0px" y="0px" width="24px"
	 height="24px" viewBox="0 0 24 24" enable-background="new 0 0 24 24" xml:space="preserve">
<g id="Filled_Icon">
	<g>
		<path d="M7,0.001H4.5c-0.133,0-0.26,0.053-0.353,0.146L0.293,4.001H7V0.001z"/>
		<path d="M15,8.141V5.001H0v10.5C0,15.776,0.224,16,0.5,16h7.525C8.256,12.052,11.188,8.824,15,8.141z"/>
		<path d="M10.854,0.147C10.76,0.053,10.633,0.001,10.5,0.001H8v4h6.707L10.854,0.147z"/>
		<path d="M16.5,9C12.364,9,9,12.365,9,16.5c0,4.136,3.364,7.5,7.5,7.5s7.5-3.364,7.5-7.5C24,12.365,20.636,9,16.5,9z
			 M19.854,17.854l-3,2.999c-0.188,0.191-0.505,0.202-0.708,0l-2.999-2.999c-0.195-0.195-0.195-0.512,0-0.708
			c0.195-0.195,0.512-0.195,0.707,0L16,19.294V13.5c0-0.275,0.224-0.5,0.5-0.5c0.275,0,0.5,0.225,0.5,0.5v5.793l2.146-2.147
			c0.195-0.195,0.512-0.195,0.707,0C20.049,17.342,20.049,17.659,19.854,17.854z"/>
	</g>
</g>
<g id="Invisible_Shape">
	<rect fill="none" width="24" height="24"/>
</g>
</svg>
