<?xml version="1.0" encoding="utf-8"?>
<!-- Generator: Adobe Illustrator 19.2.1, SVG Export Plug-In . SVG Version: 6.00 Build 0)  -->
<svg version="1.1" xmlns="http://www.w3.org/2000/svg" xmlns:xlink="http://www.w3.org/1999/xlink" x="0px" y="0px" width="24px"
	 height="24px" viewBox="0 0 24 24" enable-background="new 0 0 24 24" xml:space="preserve">
<g id="Filled_Icon">
	<g>
		<path d="M22.458,23H21v-3h1.458c0.276,0,0.5-0.224,0.5-0.5s-0.224-0.5-0.5-0.5H0.541c-0.276,0-0.5,0.224-0.5,0.5
			s0.224,0.5,0.5,0.5H2v3H0.541c-0.276,0-0.5,0.224-0.5,0.5s0.224,0.5,0.5,0.5h21.917c0.276,0,0.5-0.224,0.5-0.5
			S22.734,23,22.458,23z M10,23H5v-3h5V23z M13,20h5v3h-5V20z"/>
		<path d="M16.5,1H14v2.5c0,0.276-0.224,0.5-0.5,0.5h-3c-0.276,0-0.5-0.224-0.5-0.5V1H7.5C7.224,1,7,1.224,7,1.5v7
			C7,8.777,7.224,9,7.5,9h9C16.776,9,17,8.777,17,8.5v-7C17,1.224,16.776,1,16.5,1z"/>
		<path d="M10.5,10H8v2.5C8,12.777,7.776,13,7.5,13h-3C4.224,13,4,12.777,4,12.5V10H1.5C1.224,10,1,10.224,1,10.5v7
			C1,17.777,1.224,18,1.5,18h9c0.276,0,0.5-0.224,0.5-0.5v-7C11,10.224,10.776,10,10.5,10z"/>
		<path d="M21.5,10H19v2.5c0,0.276-0.224,0.5-0.5,0.5h-3c-0.276,0-0.5-0.224-0.5-0.5V10h-2.5c-0.276,0-0.5,0.224-0.5,0.5v7
			c0,0.276,0.224,0.5,0.5,0.5h9c0.276,0,0.5-0.224,0.5-0.5v-7C22,10.224,21.776,10,21.5,10z"/>
	</g>
</g>
<g id="Invisible_Shape">
	<rect fill="none" width="24" height="24"/>
</g>
</svg>
