<?xml version="1.0" encoding="utf-8"?>
<!-- Generator: Adobe Illustrator 19.2.1, SVG Export Plug-In . SVG Version: 6.00 Build 0)  -->
<svg version="1.1" xmlns="http://www.w3.org/2000/svg" xmlns:xlink="http://www.w3.org/1999/xlink" x="0px" y="0px" width="24px"
	 height="24px" viewBox="0 0 24 24" enable-background="new 0 0 24 24" xml:space="preserve">
<g id="Filled_Icon">
	<g>
		<path d="M7,4v-4H4.5C4.367,0,4.24,0.053,4.147,0.147L0.293,4H7z"/>
		<path d="M8,4h6.707l-3.853-3.853C10.76,0.053,10.633,0,10.5,0.001H8V4z"/>
		<path d="M7,12.5C7,11.672,7.672,11,8.5,11H15v-6H0v10.5C0,15.776,0.224,16,0.5,16H7V12.5z"/>
		<g>
			<g>
				<path d="M19,17h4.616l-1.156-2.697C22.381,14.12,22.2,14,22,14h-3V17z"/>
				<path d="M10.5,21.996c0-1.654,1.346-2.995,3-2.995s3,1.346,3,3c0,0.002,1,0,1,0c0-0.611,0.185-1.178,0.5-1.652V14h-0.001v-1.5
					c0-0.276-0.224-0.5-0.5-0.5H8.5C8.224,12,8,12.224,8,12.5v9C8,21.779,8.227,22,8.5,22l2-0.001
					C10.5,21.998,10.5,21.997,10.5,21.996z"/>
				<path d="M19,19.417c2.044-1.191,4.5,0.321,4.5,2.583C23.775,22,24,21.776,24,21.5V18h-5V19.417z"/>
			</g>
			<circle cx="20.5" cy="22" r="2"/>
			<circle cx="13.5" cy="22" r="2"/>
		</g>
	</g>
</g>
<g id="Invisible_Shape">
	<rect fill="none" width="24" height="24"/>
</g>
</svg>
