<?xml version="1.0" encoding="utf-8"?>
<!-- Generator: Adobe Illustrator 19.2.1, SVG Export Plug-In . SVG Version: 6.00 Build 0)  -->
<svg version="1.1" xmlns="http://www.w3.org/2000/svg" xmlns:xlink="http://www.w3.org/1999/xlink" x="0px" y="0px" width="24px"
	 height="24px" viewBox="0 0 24 24" enable-background="new 0 0 24 24" xml:space="preserve">
<g id="Filled_Icon">
	<g>
		<g>
			<path d="M7,4.001v-4H4.5c-0.133,0-0.26,0.053-0.353,0.147L0.293,4.001H7z"/>
			<path d="M8,4.001h6.707l-3.853-3.854C10.76,0.053,10.633,0.001,10.5,0.001H8V4.001z"/>
			<path d="M15,8.142V5.001H0v10.5C0,15.777,0.224,16,0.5,16h7.525C8.257,12.053,11.188,8.824,15,8.142z"/>
		</g>
		<path d="M16.5,9C12.364,9,9,12.365,9,16.5c0,4.136,3.364,7.5,7.5,7.5s7.5-3.364,7.5-7.5C24,12.365,20.636,9,16.5,9z
			 M20.003,19.297c0.195,0.195,0.195,0.512,0,0.707c-0.195,0.195-0.512,0.195-0.707,0L16.5,17.208l-2.797,2.796
			c-0.195,0.195-0.512,0.195-0.707,0c-0.195-0.195-0.195-0.512,0-0.707l2.797-2.796l-2.797-2.795c-0.195-0.196-0.195-0.512,0-0.708
			c0.195-0.195,0.512-0.195,0.707,0l2.797,2.796l2.796-2.796c0.195-0.195,0.512-0.195,0.707,0c0.195,0.195,0.195,0.512,0,0.708
			L17.207,16.5L20.003,19.297z"/>
	</g>
</g>
<g id="Invisible_Shape">
	<rect fill="none" width="24" height="24"/>
</g>
</svg>
