<?xml version="1.0" encoding="utf-8"?>
<!-- Generator: Adobe Illustrator 19.2.1, SVG Export Plug-In . SVG Version: 6.00 Build 0)  -->
<svg version="1.1" xmlns="http://www.w3.org/2000/svg" xmlns:xlink="http://www.w3.org/1999/xlink" x="0px" y="0px" width="24px"
	 height="24px" viewBox="0 0 24 24" enable-background="new 0 0 24 24" xml:space="preserve">
<g id="Filled_Icon">
	<g>
		<g>
			<path d="M7,4v-4H4.5C4.367,0,4.24,0.053,4.147,0.147L0.293,4H7z"/>
			<path d="M8,4h6.707l-3.853-3.853C10.76,0.053,10.633,0,10.5,0.001H8V4z"/>
			<path d="M14.158,8.865C14.334,8.512,14.642,8.259,15,8.131V5.001H0v10.5C0,15.776,0.224,16,0.5,16l10.09,0L14.158,8.865z"/>
		</g>
		<path d="M22.947,23.277l-7-14c-0.17-0.339-0.725-0.339-0.895,0l-7,14C7.886,23.612,8.131,24,8.5,24h14
			C22.869,24,23.114,23.612,22.947,23.277z M15.5,22c-0.276,0-0.5-0.224-0.5-0.5s0.224-0.5,0.5-0.5s0.5,0.224,0.5,0.5
			S15.776,22,15.5,22z M16,19.5c0,0.276-0.224,0.5-0.5,0.5S15,19.777,15,19.5V14c0-0.276,0.224-0.5,0.5-0.5S16,13.724,16,14V19.5z"
			/>
	</g>
</g>
<g id="Invisible_Shape">
	<rect fill="none" width="24" height="24"/>
</g>
</svg>
