<?xml version="1.0" encoding="utf-8"?>
<!-- Generator: Adobe Illustrator 19.2.1, SVG Export Plug-In . SVG Version: 6.00 Build 0)  -->
<svg version="1.1" xmlns="http://www.w3.org/2000/svg" xmlns:xlink="http://www.w3.org/1999/xlink" x="0px" y="0px" width="24px"
	 height="24px" viewBox="0 0 24 24" enable-background="new 0 0 24 24" xml:space="preserve">
<g id="Filled_Icon">
	<g>
		<path d="M21.932,23.14l-2.086-2C19.753,21.05,19.629,21,19.5,21h-8.551c0.068-0.458,0.068-0.542,0-1H20.5
			c0.276,0,0.5-0.223,0.5-0.5v-9c0-0.276-0.224-0.5-0.5-0.5h-10c-0.276,0-0.5,0.224-0.5,0.5v7.558c-0.286-0.293-0.627-0.528-1-0.707
			V0.501c0-0.276-0.224-0.5-0.5-0.5h-3c-0.276,0-0.5,0.224-0.5,0.5S5.224,1,5.5,1H8v16.051c-2.209-0.32-4,1.402-4,3.449
			c0,1.93,1.57,3.5,3.5,3.5c1.391,0,2.585-0.821,3.148-2h8.65l1.941,1.861c0.199,0.191,0.514,0.185,0.707-0.014
			C22.138,23.647,22.131,23.331,21.932,23.14z M16.5,17h2c0.276,0,0.5,0.224,0.5,0.5S18.776,18,18.5,18h-2
			c-0.276,0-0.5-0.224-0.5-0.5S16.224,17,16.5,17z"/>
		<path d="M10.5,9h7C17.776,9,18,8.777,18,8.5v-5C18,3.224,17.776,3,17.5,3h-7C10.224,3,10,3.224,10,3.5v5C10,8.777,10.224,9,10.5,9
			z M12.5,6.001h1c0.276,0,0.5,0.224,0.5,0.5c0,0.276-0.224,0.5-0.5,0.5h-1c-0.276,0-0.5-0.224-0.5-0.5
			C12,6.224,12.224,6.001,12.5,6.001z"/>
	</g>
</g>
<g id="Invisible_Shape">
	<rect fill="none" width="24" height="24"/>
</g>
</svg>
