<?xml version="1.0" encoding="utf-8"?>
<!-- Generator: Adobe Illustrator 19.2.1, SVG Export Plug-In . SVG Version: 6.00 Build 0)  -->
<svg version="1.1" xmlns="http://www.w3.org/2000/svg" xmlns:xlink="http://www.w3.org/1999/xlink" x="0px" y="0px" width="24px"
	 height="24px" viewBox="0 0 24 24" enable-background="new 0 0 24 24" xml:space="preserve">
<g id="Filled_Icon">
	<g>
		<path d="M21.947,23.276l-1-2C20.862,21.107,20.69,21,20.5,21h-8.55c0.24-1.656-0.671-3.059-1.987-3.669L8.344,3.422
			C8.117,1.471,6.465,0,4.5,0H3C2.724,0,2.5,0.224,2.5,0.5S2.724,1,3,1h1.5c1.457,0,2.682,1.091,2.85,2.538l1.572,13.505
			C6.732,16.775,5,18.489,5,20.5C5,22.43,6.57,24,8.5,24c1.391,0,2.585-0.822,3.149-2h8.543l0.861,1.724
			c0.122,0.243,0.418,0.348,0.671,0.224C21.971,23.824,22.07,23.523,21.947,23.276z"/>
		<path d="M19.5,11H17v3.5c0,0.276-0.224,0.5-0.5,0.5h-2c-0.276,0-0.5-0.224-0.5-0.5V11h-2.5c-0.276,0-0.5,0.224-0.5,0.5v5.26
			c1.073,0.719,1.799,1.892,1.95,3.24h6.55c0.276,0,0.5-0.224,0.5-0.5v-8C20,11.224,19.776,11,19.5,11z"/>
	</g>
</g>
<g id="Invisible_Shape">
	<rect fill="none" width="24" height="24"/>
</g>
</svg>
