<?xml version="1.0" encoding="utf-8"?>
<!-- Generator: Adobe Illustrator 19.2.1, SVG Export Plug-In . SVG Version: 6.00 Build 0)  -->
<svg version="1.1" xmlns="http://www.w3.org/2000/svg" xmlns:xlink="http://www.w3.org/1999/xlink" x="0px" y="0px" width="24px"
	 height="24px" viewBox="0 0 24 24" enable-background="new 0 0 24 24" xml:space="preserve">
<g id="Filled_Icon">
	<g>
		<circle cx="5" cy="22" r="2"/>
		<g>
			<path d="M7.5,19h-7C0.224,19,0,18.777,0,18.5S0.224,18,0.5,18h6.601L9.513,7.39C9.564,7.162,9.767,7.001,10,7.001h1.5
				c0.276,0,0.5,0.224,0.5,0.5C12,7.777,11.776,8,11.5,8h-1.101L7.987,18.611C7.936,18.839,7.733,19,7.5,19z"/>
		</g>
		<path d="M5.5,9h-5C0.224,9,0,9.224,0,9.5v7C0,16.777,0.224,17,0.5,17h5C5.776,17,6,16.777,6,16.5v-7C6,9.224,5.776,9,5.5,9z"/>
		<path d="M23.5,8h-10C13.224,8,13,8.224,13,8.5c0,3.432,1.246,6.625,3,7.784V23.5c0,0.276,0.224,0.5,0.5,0.5h4
			c0.276,0,0.5-0.224,0.5-0.5v-7.216c1.754-1.159,3-4.352,3-7.784C24,8.224,23.776,8,23.5,8z"/>
		<g>
			<path d="M13.5,3c3.546,0-2.49,0,8.449,0c-0.245-1.691-1.69-3-3.449-3c-1.391,0-2.585,0.822-3.148,2H13.5
				C13.224,2,13,2.224,13,2.5S13.224,3,13.5,3z"/>
			<path d="M15.051,4.001c0.245,1.691,1.69,3,3.449,3s3.204-1.309,3.449-3H15.051z"/>
		</g>
	</g>
</g>
<g id="Invisible_Shape">
	<rect fill="none" width="24" height="24"/>
</g>
</svg>
