<?xml version="1.0" encoding="utf-8"?>
<!-- Generator: Adobe Illustrator 19.2.1, SVG Export Plug-In . SVG Version: 6.00 Build 0)  -->
<svg version="1.1" xmlns="http://www.w3.org/2000/svg" xmlns:xlink="http://www.w3.org/1999/xlink" x="0px" y="0px" width="24px"
	 height="24px" viewBox="0 0 24 24" enable-background="new 0 0 24 24" xml:space="preserve">
<g id="Filled_Icon">
	<g>
		<path d="M5.5,3C4.673,3,4,3.673,4,4.501V16H1.5C1.224,16,1,16.224,1,16.5C1,16.776,1.224,17,1.5,17H4v4H0.5
			C0.224,21,0,21.224,0,21.5C0,21.776,0.224,22,0.5,22h6C6.776,22,7,21.776,7,21.5v-17C7,3.673,6.327,3,5.5,3z"/>
		<circle cx="20.666" cy="19.833" r="1.917"/>
		<circle cx="13.5" cy="19" r="2.75"/>
		<path d="M23.8,14.1L22,12.75v-5.25c0-1.379-1.122-2.5-2.5-2.5h-2c-5.238,0-9.5,4.261-9.5,9.5v5C8,19.776,8.224,20,8.5,20h1.924
			c-0.104-0.317-0.174-0.649-0.174-1H9v-2.793l4-4l0.146,0.146c0.195,0.195,0.512,0.195,0.707,0c0.195-0.195,0.195-0.512,0-0.708
			l-1-1c-0.195-0.195-0.512-0.195-0.707,0c-0.195,0.195-0.195,0.513,0,0.708l0.147,0.146L9,14.793c0-5.371,4.102-8.792,8.5-8.792h2
			c0.827,0,1.5,0.672,1.5,1.5v5h-2.36l0.845-3.379c0.067-0.268-0.096-0.54-0.363-0.607c-0.269-0.066-0.54,0.096-0.606,0.364
			L17.609,12.5H16c-0.133,0-0.26,0.053-0.354,0.146l-2.5,2.5c-0.08,0.08-0.131,0.186-0.144,0.298l-0.04,0.354
			c0.002,0,0.008,0.004,0.01,0.005c2.404-0.394,4.365,1.864,3.604,4.197h1.773c-0.101-1.434,1.03-2.501,2.316-2.501
			c1.289,0,2.418,1.069,2.317,2.501H23.5c0.276,0,0.5-0.225,0.5-0.5v-5C24,14.343,23.926,14.195,23.8,14.1z"/>
	</g>
</g>
<g id="Invisible_Shape">
	<rect fill="none" width="24" height="24"/>
</g>
</svg>
