<?xml version="1.0" encoding="utf-8"?>
<!-- Generator: Adobe Illustrator 19.2.1, SVG Export Plug-In . SVG Version: 6.00 Build 0)  -->
<svg version="1.1" xmlns="http://www.w3.org/2000/svg" xmlns:xlink="http://www.w3.org/1999/xlink" x="0px" y="0px" width="24px"
	 height="24px" viewBox="0 0 24 24" enable-background="new 0 0 24 24" xml:space="preserve">
<g id="Filled_Icon">
	<path d="M19.496,7.935l-1-7.5C18.463,0.186,18.251,0.001,18,0.001h-4.793l-2.5,2.5l1.647,1.646c0.195,0.195,0.195,0.512,0,0.707
		l-2,2C10.256,6.952,10.128,7.001,10,7.001S9.744,6.952,9.646,6.854c-0.195-0.195-0.195-0.512,0-0.707l1.647-1.646L9.646,2.854
		c-0.195-0.195-0.195-0.512,0-0.707l2.147-2.147H7c-0.251,0-0.463,0.186-0.496,0.434L5.5,8c0,3.691,2.874,6.716,6.5,6.975V23H9.5
		C9.224,23,9,23.224,9,23.5S9.224,24,9.5,24h6c0.276,0,0.5-0.224,0.5-0.5S15.776,23,15.5,23H13v-8.025
		C16.626,14.717,19.5,11.689,19.496,7.935z"/>
</g>
<g id="Invisible_Shape">
	<rect fill="none" width="24" height="24"/>
</g>
</svg>
