<?xml version="1.0" encoding="utf-8"?>
<!-- Generator: Adobe Illustrator 19.2.1, SVG Export Plug-In . SVG Version: 6.00 Build 0)  -->
<svg version="1.1" xmlns="http://www.w3.org/2000/svg" xmlns:xlink="http://www.w3.org/1999/xlink" x="0px" y="0px" width="24px"
	 height="24px" viewBox="0 0 24 24" enable-background="new 0 0 24 24" xml:space="preserve">
<g id="Filled_Icon">
	<g>
		<path d="M19.496,7.935l-1-7.5C18.463,0.186,18.251,0.001,18,0.001h-7.5c-0.276,0-0.5,0.224-0.5,0.5V2H8.5C8.224,2,8,2.224,8,2.5
			v2.5H6.5c-0.238,0-0.443,0.168-0.49,0.402L5.5,8c0,3.691,2.874,6.716,6.5,6.975V23H9.5C9.224,23,9,23.224,9,23.5S9.224,24,9.5,24
			h6c0.276,0,0.5-0.224,0.5-0.5S15.776,23,15.5,23H13v-8.025C16.626,14.717,19.5,11.689,19.496,7.935z"/>
		<path d="M7,2.5v-2c0-0.276-0.224-0.5-0.5-0.5H2c-0.252,0-0.465,0.188-0.496,0.438l-0.5,4C0.986,4.581,1.03,4.724,1.125,4.832
			C1.22,4.939,1.356,5.001,1.5,5.001h3c0.276,0,0.5-0.224,0.5-0.5V3h1.5C6.776,3,7,2.777,7,2.5z"/>
	</g>
</g>
<g id="Invisible_Shape">
	<rect fill="none" width="24" height="24"/>
</g>
</svg>
