<?xml version="1.0" encoding="utf-8"?>
<!-- Generator: Adobe Illustrator 19.2.1, SVG Export Plug-In . SVG Version: 6.00 Build 0)  -->
<svg version="1.1" xmlns="http://www.w3.org/2000/svg" xmlns:xlink="http://www.w3.org/1999/xlink" x="0px" y="0px" width="24px"
	 height="24px" viewBox="0 0 24 24" enable-background="new 0 0 24 24" xml:space="preserve">
<g id="Filled_Icon">
	<g>
		<circle cx="16" cy="22" r="2"/>
		<circle cx="5" cy="22" r="2"/>
		<path d="M23,0.501h-1.5c-0.508,0-0.935,0.38-0.994,0.884L18.61,17H1c-0.553,0-1,0.448-1,1c0,0.553,0.447,1,1,1h18.5
			c0.507,0,0.934-0.379,0.992-0.883L22.389,2.5H23c0.552,0,1-0.447,1-1C24,0.949,23.552,0.501,23,0.501z"/>
		<path d="M1.5,16h9c0.275,0,0.5-0.224,0.5-0.5v-3c0-0.276-0.225-0.5-0.5-0.5h-9C1.224,12,1,12.224,1,12.5v3
			C1,15.777,1.224,16,1.5,16z"/>
		<path d="M2.5,11h6C8.775,11,9,10.777,9,10.5v-3c0-0.276-0.225-0.5-0.5-0.5h-6c-0.276,0-0.5,0.224-0.5,0.5v3
			C2,10.777,2.224,11,2.5,11z"/>
		<path d="M12.5,16h5c0.275,0,0.5-0.224,0.5-0.5v-11c0-0.276-0.225-0.5-0.5-0.5h-5c-0.276,0-0.5,0.224-0.5,0.5v11
			C12,15.777,12.224,16,12.5,16z"/>
	</g>
</g>
<g id="Invisible_Shape">
	<rect fill="none" width="24" height="24"/>
</g>
</svg>
