<?xml version="1.0" encoding="utf-8"?>
<!-- Generator: Adobe Illustrator 19.2.1, SVG Export Plug-In . SVG Version: 6.00 Build 0)  -->
<svg version="1.1" xmlns="http://www.w3.org/2000/svg" xmlns:xlink="http://www.w3.org/1999/xlink" x="0px" y="0px" width="24px"
	 height="24px" viewBox="0 0 24 24" enable-background="new 0 0 24 24" xml:space="preserve">
<g id="Filled_Icon">
	<path d="M23.5,0.001h-23c-0.276,0-0.5,0.225-0.5,0.5v23C0,23.776,0.224,24,0.5,24h23c0.275,0,0.5-0.225,0.5-0.5v-23
		C24,0.225,23.775,0.001,23.5,0.001z M13.146,7.147l2.999-2.999c0.199-0.199,0.52-0.192,0.708,0l3,2.999
		c0.195,0.195,0.195,0.513,0,0.707c-0.195,0.195-0.512,0.195-0.707,0L17,5.707V17.5c0,0.275-0.225,0.5-0.5,0.5
		c-0.276,0-0.5-0.225-0.5-0.5V5.707l-2.146,2.147c-0.195,0.195-0.512,0.195-0.707,0C12.951,7.659,12.951,7.342,13.146,7.147z
		 M4.147,7.147l2.999-2.999c0.208-0.205,0.526-0.186,0.708,0l3,2.999c0.195,0.195,0.195,0.513,0,0.707
		c-0.195,0.195-0.512,0.195-0.707,0L8,5.707V17.5C8,17.776,7.775,18,7.5,18C7.224,18,7,17.776,7,17.5V5.707L4.853,7.854
		c-0.195,0.195-0.512,0.195-0.707,0C3.951,7.659,3.951,7.342,4.147,7.147z M20.5,21h-17C3.224,21,3,20.776,3,20.5S3.224,20,3.5,20
		h17c0.275,0,0.5,0.225,0.5,0.5S20.775,21,20.5,21z"/>
</g>
<g id="Invisible_Shape">
	<rect fill="none" width="24" height="24"/>
</g>
</svg>
