<?xml version="1.0" encoding="utf-8"?>
<!-- Generator: Adobe Illustrator 19.2.1, SVG Export Plug-In . SVG Version: 6.00 Build 0)  -->
<svg version="1.1" xmlns="http://www.w3.org/2000/svg" xmlns:xlink="http://www.w3.org/1999/xlink" x="0px" y="0px" width="24px"
	 height="24px" viewBox="0 0 24 24" enable-background="new 0 0 24 24" xml:space="preserve">
<g id="Filled_Icon">
	<g>
		<path d="M5.498,0c-3.033,0-5.5,2.469-5.5,5.5c0,3.033,2.467,5.5,5.5,5.5s5.5-2.467,5.5-5.5C10.998,2.469,8.531,0,5.498,0z
			 M7.498,7h-2c-0.276,0-0.5-0.224-0.5-0.5V3c0-0.276,0.224-0.5,0.5-0.5c0.276,0,0.5,0.224,0.5,0.5v3h1.5c0.276,0,0.5,0.224,0.5,0.5
			S7.774,7,7.498,7z"/>
		<path d="M3.476,15c0.276,0,0.5-0.223,0.5-0.499c0-0.275-0.224-0.5-0.5-0.501H0.5C0.224,14,0,14.223,0,14.498
			c0,0.277,0.224,0.5,0.5,0.5L3.476,15L3.476,15z"/>
		<path d="M3.5,16H2c-0.276,0-0.5,0.225-0.5,0.5C1.5,16.778,1.724,17,2,17h1.5C3.776,17,4,16.778,4,16.5C4,16.225,3.776,16,3.5,16z"
			/>
		<path d="M3.5,18H3c-0.276,0-0.5,0.225-0.5,0.5C2.5,18.778,2.724,19,3,19h0.5C3.776,19,4,18.778,4,18.5C4,18.225,3.776,18,3.5,18z"
			/>
		<path d="M15.5,9h-4.528C9.639,11.08,7.278,12.177,5,12v8.5c0,0.264,0.2,0.476,0.5,0.5H6c0-1.654,1.346-3,3-3s3,1.346,3,3h3.5
			c0.276-0.011,0.5-0.233,0.5-0.511V9.5C16,9.226,15.776,9,15.5,9z"/>
		<g>
			<circle cx="20" cy="21" r="2"/>
			<circle cx="9" cy="21" r="2"/>
		</g>
		<path d="M23.924,16.235l-2.5-4C21.333,12.09,21.173,12,21,12c-1.955,0-1.531,0-3.5,0c-0.276,0-0.5,0.225-0.5,0.5
			c0,4.312,0,6.022,0,7.989c0,0.048,0.026,0.085,0.039,0.13C17.229,19.146,18.477,18,20,18c1.654,0,3,1.346,3,3h0.5
			c0.276-0.011,0.5-0.233,0.5-0.511c0-0.8,0-3.186,0-3.989C24,16.407,23.974,16.315,23.924,16.235z M18,16v-3
			c1.015,0,1.712,0,2.723,0l1.875,3H18z"/>
	</g>
</g>
<g id="Invisible_Shape">
	<rect fill="none" width="24" height="24"/>
</g>
</svg>
