<?xml version="1.0" encoding="utf-8"?>
<!-- Generator: Adobe Illustrator 19.2.1, SVG Export Plug-In . SVG Version: 6.00 Build 0)  -->
<svg version="1.1" xmlns="http://www.w3.org/2000/svg" xmlns:xlink="http://www.w3.org/1999/xlink" x="0px" y="0px" width="24px"
	 height="24px" viewBox="0 0 24 24" enable-background="new 0 0 24 24" xml:space="preserve">
<g id="Filled_Icon">
	<g>
		<path d="M3.5,18h-3C0.224,18,0,18.224,0,18.5C0,18.776,0.224,19,0.5,19h3C3.776,19,4,18.776,4,18.5C4,18.224,3.776,18,3.5,18z"/>
		<path d="M7,14.143V7.501c0-0.276-0.224-0.5-0.5-0.5h-2c-2.481,0-4.5,2.018-4.5,4.5v5C0,16.776,0.224,17,0.5,17h3.642
			C4.506,15.602,5.601,14.507,7,14.143z M3,10.438V12c0,0.275-0.224,0.5-0.5,0.5S2,12.276,2,12v-1.562C2,9.645,2.645,9,3.438,9H5
			c0.276,0,0.5,0.224,0.5,0.5C5.5,9.776,5.276,10,5,10H3.438C3.196,10,3,10.197,3,10.438z"/>
		<path d="M23.5,3h-15C8.224,3,8,3.224,8,3.5V14c2.206,0,4,1.794,4,4h3c0-2.206,1.794-4,4-4s4,1.794,4,4h0.5
			c0.276,0,0.5-0.225,0.5-0.5v-14C24,3.224,23.776,3,23.5,3z"/>
		<g>
			<circle cx="8" cy="18" r="3"/>
			<circle cx="19" cy="18" r="3"/>
		</g>
	</g>
</g>
<g id="Invisible_Shape">
	<rect fill="none" width="24" height="24"/>
</g>
</svg>
