<?xml version="1.0" encoding="utf-8"?>
<!-- Generator: Adobe Illustrator 19.2.1, SVG Export Plug-In . SVG Version: 6.00 Build 0)  -->
<svg version="1.1" xmlns="http://www.w3.org/2000/svg" xmlns:xlink="http://www.w3.org/1999/xlink" x="0px" y="0px" width="24px"
	 height="24px" viewBox="0 0 24 24" enable-background="new 0 0 24 24" xml:space="preserve">
<g id="Filled_Icon">
	<path d="M21.5,0h-19C1.122,0,0,1.122,0,2.5v21C0,23.776,0.224,24,0.5,24H3.36l1-3h15.267l1.031,3H23.5c0.276,0,0.5-0.224,0.5-0.5
		v-21C24,1.122,22.878,0,21.5,0z M21,18h-1v-4.5c0-0.276-0.224-0.5-0.5-0.5H17v5h-1v-5h-3v5h-1v-5H9.5C9.224,13,9,13.224,9,13.5V18
		H3v-6h18V18z M21,9h-2.737c0.4-0.149,0.491-0.421,0.394-0.68l-1.646-4.428c-0.096-0.257-0.381-0.39-0.643-0.294l-1.799,0.669
		c0.033,0.041,0.064,0.084,0.083,0.134c0.058,0.154,1.672,4.435,1.674,4.6H14V4.5C14,4.224,13.776,4,13.5,4H11v5h-1V4H7v5H6V4H4.5
		C4.224,4,4,4.224,4,4.5V9H3V3h18V9z"/>
</g>
<g id="Invisible_Shape">
	<rect fill="none" width="24" height="24"/>
</g>
</svg>
