<?xml version="1.0" encoding="utf-8"?>
<!-- Generator: Adobe Illustrator 19.2.1, SVG Export Plug-In . SVG Version: 6.00 Build 0)  -->
<svg version="1.1" xmlns="http://www.w3.org/2000/svg" xmlns:xlink="http://www.w3.org/1999/xlink" x="0px" y="0px" width="24px"
	 height="24px" viewBox="0 0 24 24" enable-background="new 0 0 24 24" xml:space="preserve">
<g id="Filled_Icon">
	<g>
		<path d="M15.5,0h-12C1.57,0,0,1.57,0,3.5v13C0,16.777,0.224,17,0.5,17H3v6.5C3,23.777,3.224,24,3.5,24h12
			c0.276,0,0.5-0.223,0.5-0.5V6.96c1.693-0.245,3-1.699,3-3.46C19,1.57,17.43,0,15.5,0z M3,4.5v2V16H1V3.5C1,2.121,2.122,1,3.5,1
			c1.573,0,2.768,1.447,2.449,3H3.5C3.224,4,3,4.224,3,4.5z M4.002,5.95H4.001L4,5h1.487C5.083,5.54,4.607,5.793,4.002,5.95z
			 M8.354,12.854l-2,2c-0.195,0.195-0.512,0.195-0.707,0l-0.5-0.5c-0.195-0.195-0.195-0.512,0-0.707
			c0.195-0.196,0.512-0.196,0.707,0L6,13.793l1.647-1.646c0.195-0.196,0.512-0.196,0.707,0C8.549,12.342,8.549,12.659,8.354,12.854z
			 M8.354,8.854l-2,2c-0.195,0.195-0.512,0.195-0.707,0l-0.5-0.5c-0.195-0.195-0.195-0.512,0-0.707c0.195-0.196,0.512-0.196,0.707,0
			L6,9.793l1.647-1.646c0.195-0.196,0.512-0.196,0.707,0C8.549,8.342,8.549,8.659,8.354,8.854z M13.5,19h-4
			C9.224,19,9,18.777,9,18.5C9,18.224,9.224,18,9.5,18h4c0.276,0,0.5,0.224,0.5,0.5C14,18.777,13.776,19,13.5,19z M13.5,15h-4
			C9.224,15,9,14.777,9,14.5C9,14.224,9.224,14,9.5,14h4c0.276,0,0.5,0.224,0.5,0.5C14,14.777,13.776,15,13.5,15z M13.5,11h-4
			C9.224,11,9,10.777,9,10.5C9,10.224,9.224,10,9.5,10h4c0.276,0,0.5,0.224,0.5,0.5C14,10.777,13.776,11,13.5,11z"/>
		<rect x="20" y="15" width="4" height="6"/>
		<path d="M22,5.5c-0.737,0-1.375,0.405-1.722,1H20c-1.103,0-2,0.897-2,2V16c0,0.277,0.224,0.5,0.5,0.5S19,16.277,19,16V8.5
			c0-0.552,0.449-1,1-1V14h4V7.5C24,6.397,23.103,5.5,22,5.5z"/>
		<path d="M22,24c1.103,0,2-0.897,2-2h-4C20,23.103,20.897,24,22,24z"/>
	</g>
</g>
<g id="Invisible_Shape">
	<rect fill="none" width="24" height="24"/>
</g>
</svg>
