<?xml version="1.0" encoding="utf-8"?>
<!-- Generator: Adobe Illustrator 19.2.1, SVG Export Plug-In . SVG Version: 6.00 Build 0)  -->
<svg version="1.1" xmlns="http://www.w3.org/2000/svg" xmlns:xlink="http://www.w3.org/1999/xlink" x="0px" y="0px" width="24px"
	 height="24px" viewBox="0 0 24 24" enable-background="new 0 0 24 24" xml:space="preserve">
<g id="Filled_Icon">
	<g>
		<g>
			<path d="M21,10V7.5C21,6.122,19.878,5,18.5,5H17v3h1c0.276,0,0.5,0.224,0.5,0.5S18.276,9,18,9C13.664,9,9.335,9,5,9
				C4.724,9,4.5,8.776,4.5,8.5S4.724,8,5,8h1V5H4.5C3.122,5,2,6.122,2,7.5V10H21z"/>
			<path d="M16,11c0,2.172-0.086,4.175,1.277,5.084c0.23,0.153,0.292,0.464,0.139,0.693c-0.15,0.226-0.459,0.295-0.693,0.139
				C14.89,15.695,15,13.316,15,11h-1c0,1.22-0.125,5.478,0.821,6.367c0.221,0.165,0.255,0.471,0.089,0.691
				c-0.165,0.22-0.487,0.259-0.71,0.091C12.843,17.133,13,12.615,13,11h-1v7c0,0.276-0.224,0.5-0.5,0.5S11,18.276,11,18v-7h-1
				c0,1.516,0.171,6.123-1.2,7.15c-0.222,0.166-0.535,0.121-0.7-0.1c-0.161-0.214-0.123-0.515,0.081-0.685
				C9.127,16.399,9,12.335,9,11H8c0,2.314,0.11,4.694-1.723,5.917c-0.234,0.156-0.543,0.087-0.693-0.139
				c-0.153-0.229-0.091-0.54,0.139-0.693C7.089,15.174,7,13.162,7,11H2v11.5C2,22.776,2.224,23,2.5,23H4v0.5
				C4,23.776,4.224,24,4.5,24S5,23.776,5,23.5V23h13v0.5c0,0.276,0.224,0.5,0.5,0.5s0.5-0.224,0.5-0.5V23h1.5
				c0.276,0,0.5-0.224,0.5-0.5V11H16z"/>
		</g>
		<path d="M16,8V0.5C16,0.224,15.776,0,15.5,0h-8C7.224,0,7,0.224,7,0.5V8H16z"/>
	</g>
</g>
<g id="Invisible_Shape">
	<rect fill="none" width="24" height="24"/>
</g>
</svg>
