<?xml version="1.0" encoding="utf-8"?>
<!-- Generator: Adobe Illustrator 19.2.1, SVG Export Plug-In . SVG Version: 6.00 Build 0)  -->
<svg version="1.1" xmlns="http://www.w3.org/2000/svg" xmlns:xlink="http://www.w3.org/1999/xlink" x="0px" y="0px" width="24px"
	 height="24px" viewBox="0 0 24 24" enable-background="new 0 0 24 24" xml:space="preserve">
<g id="Filled_Icon">
	<g>
		<path d="M15.5,8H14v3h2V8.5C16,8.224,15.776,8,15.5,8z"/>
		<polyline points="12,8 12,11 13,11 13,8 		"/>
		<polyline points="10,8 10,11 11,11 11,8 		"/>
		<path d="M13.64,6.999l-1.655-6.6c-0.111-0.445-0.858-0.445-0.97,0l-1.655,6.6H13.64z"/>
		<path d="M16.982,12H6.018C5.404,11.956,5,12.679,5,13.5v8C5,22.878,6.122,24,7.5,24h8c1.378,0,2.5-1.122,2.5-2.5v-8
			C18,12.679,17.596,11.956,16.982,12z M16,20.5c0,0.276-0.224,0.5-0.5,0.5h-8C7.224,21,7,20.776,7,20.5v-6
			C7,14.224,7.224,14,7.5,14h8c0.276,0,0.5,0.224,0.5,0.5V20.5z"/>
		<path d="M9,11V8H7.5C7.224,8,7,8.224,7,8.5V11H9z"/>
	</g>
</g>
<g id="Invisible_Shape">
	<rect fill="none" width="24" height="24"/>
</g>
</svg>
