<?xml version="1.0" encoding="utf-8"?>
<!-- Generator: Adobe Illustrator 19.2.1, SVG Export Plug-In . SVG Version: 6.00 Build 0)  -->
<svg version="1.1" xmlns="http://www.w3.org/2000/svg" xmlns:xlink="http://www.w3.org/1999/xlink" x="0px" y="0px" width="24px"
	 height="24px" viewBox="0 0 24 24" enable-background="new 0 0 24 24" xml:space="preserve">
<g id="Filled_Icon">
	<g>
		<path d="M20.5,8H13v1.5c0,0.829-0.671,1.5-1.5,1.5S10,10.329,10,9.5V8H3.5C3.224,8,3,8.224,3,8.5v15C3,23.776,3.224,24,3.5,24h11
			c0.133,0,0.26-0.053,0.354-0.146l6-6C20.947,17.761,21,17.633,21,17.5v-9C21,8.224,20.776,8,20.5,8z M7,12h8
			c0.276,0,0.5,0.224,0.5,0.5S15.276,13,15,13H7c-0.276,0-0.5-0.224-0.5-0.5S6.724,12,7,12z M7,15h8c0.276,0,0.5,0.224,0.5,0.5
			S15.276,16,15,16H7c-0.276,0-0.5-0.224-0.5-0.5S6.724,15,7,15z M12,19H7c-0.276,0-0.5-0.224-0.5-0.5S6.724,18,7,18h5
			c0.276,0,0.5,0.224,0.5,0.5S12.276,19,12,19z M19.354,17.854l-4.5,4.5C14.541,22.667,14,22.446,14,22v-4.5
			c0-0.276,0.224-0.5,0.5-0.5H19C19.443,17,19.669,17.539,19.354,17.854z"/>
		<path d="M11.5,0C9.57,0,8,1.57,8,3.5c0,1.758,1.309,3.204,3,3.449V9.5c0,0.276,0.224,0.5,0.5,0.5S12,9.776,12,9.5V6.949
			c1.691-0.245,3-1.691,3-3.449C15,1.57,13.43,0,11.5,0z M12.5,4C12.224,4,12,3.776,12,3.5C12,3.224,11.776,3,11.5,3
			C11.224,3,11,2.776,11,2.5S11.224,2,11.5,2C12.327,2,13,2.673,13,3.5C13,3.776,12.776,4,12.5,4z"/>
	</g>
</g>
<g id="Invisible_Shape">
	<rect fill="none" width="24" height="24"/>
</g>
</svg>
