<?xml version="1.0" encoding="utf-8"?>
<!-- Generator: Adobe Illustrator 19.2.1, SVG Export Plug-In . SVG Version: 6.00 Build 0)  -->
<svg version="1.1" xmlns="http://www.w3.org/2000/svg" xmlns:xlink="http://www.w3.org/1999/xlink" x="0px" y="0px" width="24px"
	 height="24px" viewBox="0 0 24 24" enable-background="new 0 0 24 24" xml:space="preserve">
<g id="Filled_Icon">
	<g>
		<path d="M3.914,15.722L2.147,17.49C2.053,17.583,2,17.71,2,17.843V23.5c0,0.445,0.538,0.668,0.853,0.354l4.596-4.597L3.914,15.722
			z"/>
		<g>
			<path d="M21.577,7.93c2.059-2.353,1.712-5.02,0.227-6.52c-1.446-1.461-4.07-1.968-6.559,0.188L21.577,7.93z"/>
			<path d="M14.521,2.288L14.521,2.288L4.267,12.54c-0.587,0.588-0.585,1.537,0.001,2.121l0.858,0.858
				c0.008-0.009,0.011-0.021,0.02-0.029l8.172-8.205c0.687-0.687,1.882-0.686,2.568,0c0.708,0.707,0.708,1.858,0,2.567l-8.173,8.203
				c-0.009,0.009-0.021,0.013-0.031,0.021l0.827,0.827c0.587,0.589,1.537,0.588,2.122,0L20.885,8.651L14.521,2.288z"/>
		</g>
	</g>
</g>
<g id="Invisible_Shape">
	<rect fill="none" width="24" height="24"/>
</g>
</svg>
