<?xml version="1.0" encoding="utf-8"?>
<!-- Generator: Adobe Illustrator 19.2.1, SVG Export Plug-In . SVG Version: 6.00 Build 0)  -->
<svg version="1.1" xmlns="http://www.w3.org/2000/svg" xmlns:xlink="http://www.w3.org/1999/xlink" x="0px" y="0px" width="24px"
	 height="24px" viewBox="0 0 24 24" enable-background="new 0 0 24 24" xml:space="preserve">
<g id="Filled_Icon">
	<g>
		<path d="M16,5.5C16,5.224,15.776,5,15.5,5H2.451l7.289-3.999c0.242-0.133,0.331-0.437,0.198-0.679
			c-0.133-0.24-0.436-0.33-0.679-0.198l-9,4.938C0.114,5.144,0,5.338,0,5.5V9h16V5.5z M2.5,8C2.225,8,2,7.776,2,7.5S2.225,7,2.5,7
			S3,7.224,3,7.5S2.775,8,2.5,8z"/>
		<path d="M21.888,15.162L16,19.565V13.75l6.487-4.85c0.221-0.165,0.267-0.479,0.101-0.7c-0.166-0.221-0.479-0.268-0.7-0.101
			L16,12.502V10H0v12.5C0,22.776,0.224,23,0.5,23H1v0.5C1,23.776,1.224,24,1.5,24S2,23.776,2,23.5V23h12v0.5
			c0,0.276,0.224,0.5,0.5,0.5s0.5-0.224,0.5-0.5V23h0.5c0.276,0,0.5-0.224,0.5-0.5v-1.687l6.487-4.85
			c0.221-0.165,0.267-0.479,0.101-0.7S22.109,14.996,21.888,15.162z M14,20.5c0,0.276-0.224,0.5-0.5,0.5h-11
			C2.224,21,2,20.776,2,20.5v-3C2,17.224,2.224,17,2.5,17h11c0.276,0,0.5,0.224,0.5,0.5V20.5z M14,14.5c0,0.276-0.224,0.5-0.5,0.5
			h-11C2.224,15,2,14.776,2,14.5v-3C2,11.224,2.224,11,2.5,11h11c0.276,0,0.5,0.224,0.5,0.5V14.5z"/>
	</g>
</g>
<g id="Invisible_Shape">
	<rect fill="none" width="24" height="24"/>
</g>
</svg>
