<?xml version="1.0" encoding="utf-8"?>
<!-- Generator: Adobe Illustrator 19.2.1, SVG Export Plug-In . SVG Version: 6.00 Build 0)  -->
<svg version="1.1" xmlns="http://www.w3.org/2000/svg" xmlns:xlink="http://www.w3.org/1999/xlink" x="0px" y="0px" width="24px"
	 height="24px" viewBox="0 0 24 24" enable-background="new 0 0 24 24" xml:space="preserve">
<g id="Filled_Icon">
	<g>
		<path d="M23.5,12h-1.525c0.292,4.138-2.993,7.5-6.975,7.5c-3.984,0-7.267-3.365-6.975-7.5H0.5C0.224,12,0,12.224,0,12.5v9
			C0,21.776,0.224,22,0.5,22H2v1.5C2,23.776,2.224,24,2.5,24S3,23.776,3,23.5V22h18v1.5c0,0.276,0.224,0.5,0.5,0.5
			s0.5-0.224,0.5-0.5V22h1.5c0.276,0,0.5-0.224,0.5-0.5v-9C24,12.224,23.776,12,23.5,12z M3,18c0,0.276-0.224,0.5-0.5,0.5
			S2,18.276,2,18v-3.5C2,14.224,2.224,14,2.5,14S3,14.224,3,14.5V18z M5,18c0,0.276-0.224,0.5-0.5,0.5S4,18.276,4,18v-3.5
			C4,14.224,4.224,14,4.5,14S5,14.224,5,14.5V18z M7,18c0,0.276-0.224,0.5-0.5,0.5S6,18.276,6,18v-3.5C6,14.224,6.224,14,6.5,14
			S7,14.224,7,14.5V18z"/>
		<path d="M15,6.5c-3.309,0-6,2.691-6,6c0,3.309,2.691,6,6,6s6-2.691,6-6C21,9.191,18.309,6.5,15,6.5z M15,10.5
			c-1.103,0-2,0.897-2,2c0,0.276-0.224,0.5-0.5,0.5S12,12.776,12,12.5c0-1.654,1.346-3,3-3c0.276,0,0.5,0.224,0.5,0.5
			S15.276,10.5,15,10.5z"/>
	</g>
</g>
<g id="Invisible_Shape">
	<rect fill="none" width="24" height="24"/>
</g>
</svg>
