<?xml version="1.0" encoding="utf-8"?>
<!-- Generator: Adobe Illustrator 19.2.1, SVG Export Plug-In . SVG Version: 6.00 Build 0)  -->
<svg version="1.1" xmlns="http://www.w3.org/2000/svg" xmlns:xlink="http://www.w3.org/1999/xlink" x="0px" y="0px" width="24px"
	 height="24px" viewBox="0 0 24 24" enable-background="new 0 0 24 24" xml:space="preserve">
<g id="Filled_Icon">
	<g>
		<path d="M21.07,7.23l-1.071-1.071l-9.596,9.595l1.071,1.072c0.586,0.586,1.535,0.586,2.121,0l7.475-7.474
			C21.655,8.767,21.658,7.818,21.07,7.23z M19.227,9.499l-5.356,5.355c-0.195,0.195-0.512,0.195-0.707,0
			c-0.195-0.195-0.195-0.512,0-0.707l5.355-5.354c0.195-0.195,0.512-0.195,0.707,0C19.422,8.987,19.422,9.304,19.227,9.499z"/>
		<path d="M7.933,16.81L20.236,4.506c-2.808-2.808-6.171-2.314-8.131-0.353L3.23,13.027C5.667,12.87,7.594,14.629,7.933,16.81z"/>
		<path d="M20,18H7v-0.5C7,15.57,5.43,14,3.5,14S0,15.57,0,17.5v3C0,21.327,0.673,22,1.5,22h21c0.277,0,0.5-0.224,0.5-0.5V21
			C23,19.346,21.654,18,20,18z"/>
	</g>
</g>
<g id="Invisible_Shape">
	<rect fill="none" width="24" height="24"/>
</g>
</svg>
