<?xml version="1.0" encoding="utf-8"?>
<!-- Generator: Adobe Illustrator 19.2.1, SVG Export Plug-In . SVG Version: 6.00 Build 0)  -->
<svg version="1.1" xmlns="http://www.w3.org/2000/svg" xmlns:xlink="http://www.w3.org/1999/xlink" x="0px" y="0px" width="24px"
	 height="24px" viewBox="0 0 24 24" enable-background="new 0 0 24 24" xml:space="preserve">
<g id="Filled_Icon">
	<path d="M20.5,1h-17C2.122,1,1,2.122,1,3.5v16C1,20.878,2.122,22,3.5,22H18c0.142,0,0.277-0.06,0.372-0.166l4.5-5
		C22.954,16.743,23,16.624,23,16.5v-13C23,2.122,21.878,1,20.5,1z M15,17H8v2c0,0.276-0.224,0.5-0.5,0.5S7,19.276,7,19v-2H4
		c-0.276,0-0.5-0.224-0.5-0.5S3.724,16,4,16h3v-4H4c-0.276,0-0.5-0.224-0.5-0.5S3.724,11,4,11h3V7H4C3.724,7,3.5,6.776,3.5,6.5
		S3.724,6,4,6h3V4c0-0.276,0.224-0.5,0.5-0.5S8,3.724,8,4v2h12c0.276,0,0.5,0.224,0.5,0.5S20.276,7,20,7H8v4h12
		c0.276,0,0.5,0.224,0.5,0.5S20.276,12,20,12H8v4h7c0.276,0,0.5,0.224,0.5,0.5S15.276,17,15,17z M21.376,16.829l-3.5,4
		C17.573,21.175,17,20.962,17,20.5v-4c0-0.276,0.224-0.5,0.5-0.5H21C21.427,16,21.66,16.506,21.376,16.829z"/>
</g>
<g id="Invisible_Shape">
	<rect fill="none" width="24" height="24"/>
</g>
</svg>
