<?xml version="1.0" encoding="utf-8"?>
<!-- Generator: Adobe Illustrator 16.0.3, SVG Export Plug-In . SVG Version: 6.00 Build 0)  -->
<!DOCTYPE svg PUBLIC "-//W3C//DTD SVG 1.1//EN" "http://www.w3.org/Graphics/SVG/1.1/DTD/svg11.dtd">
<svg version="1.1" xmlns="http://www.w3.org/2000/svg" xmlns:xlink="http://www.w3.org/1999/xlink" x="0px" y="0px" width="24px"
	 height="24px" viewBox="0 0 24 24" enable-background="new 0 0 24 24" xml:space="preserve">
<g id="Outline_Icons_1_">
	<g id="Outline_Icons">
	</g>
	<g id="New_icons_1_">
		<g>
			<rect x="11.5" y="0.5" fill="none" stroke="#000000" stroke-linejoin="round" stroke-miterlimit="10" width="2" height="5"/>
			
				<rect x="5.49" y="2.99" transform="matrix(0.7069 -0.7074 0.7074 0.7069 -1.9811 6.1999)" fill="none" stroke="#000000" stroke-linejoin="round" stroke-miterlimit="10" width="2" height="5.001"/>
			<rect x="1.5" y="10.501" fill="none" stroke="#000000" stroke-linejoin="round" stroke-miterlimit="10" width="5" height="2"/>
			
				<rect x="5.49" y="15.011" transform="matrix(-0.7074 -0.7069 0.7069 -0.7074 -1.2969 34.4855)" fill="none" stroke="#000000" stroke-linejoin="round" stroke-miterlimit="10" width="2" height="5.001"/>
			
				<rect x="11.5" y="17.5" fill="none" stroke="#000000" stroke-linejoin="round" stroke-miterlimit="10" width="2.002" height="5"/>
			
				<rect x="17.509" y="15.011" transform="matrix(-0.7069 0.7074 -0.7074 -0.7069 43.9819 16.7957)" fill="none" stroke="#000000" stroke-linejoin="round" stroke-miterlimit="10" width="2.003" height="5.001"/>
			
				<rect x="18.5" y="10.5" fill="none" stroke="#000000" stroke-linejoin="round" stroke-miterlimit="10" width="5" height="2.003"/>
			
				<rect x="17.509" y="2.991" transform="matrix(0.7071 0.7071 -0.7071 0.7071 9.3042 -11.4809)" fill="none" stroke="#000000" stroke-linejoin="round" stroke-miterlimit="10" width="2.003" height="4.999"/>
		</g>
	</g>
</g>
<g id="Invisible_Shape">
	<rect fill="none" width="24" height="24"/>
</g>
</svg>
