<?xml version="1.0" encoding="utf-8"?>
<!-- Generator: Adobe Illustrator 16.0.3, SVG Export Plug-In . SVG Version: 6.00 Build 0)  -->
<!DOCTYPE svg PUBLIC "-//W3C//DTD SVG 1.1//EN" "http://www.w3.org/Graphics/SVG/1.1/DTD/svg11.dtd">
<svg version="1.1" xmlns="http://www.w3.org/2000/svg" xmlns:xlink="http://www.w3.org/1999/xlink" x="0px" y="0px" width="24px"
	 height="24px" viewBox="0 0 24 24" enable-background="new 0 0 24 24" xml:space="preserve">
<g id="Outline_Icons_1_">
	<g id="Outline_Icons">
	</g>
	<g id="New_icons_1_">
		<g>
			<path fill="none" stroke="#000000" stroke-linejoin="round" stroke-miterlimit="10" d="M12.5,8c0.234,0,0.462,0.025,0.683,0.069
				l1.464-7.356C13.951,0.575,13.234,0.5,12.5,0.5s-1.451,0.075-2.146,0.213l1.464,7.356C12.038,8.025,12.266,8,12.5,8z"/>
			<path fill="none" stroke="#000000" stroke-linejoin="round" stroke-miterlimit="10" d="M10.025,9.025
				c0.165-0.165,0.344-0.309,0.531-0.434L6.389,2.354C5.801,2.749,5.241,3.203,4.722,3.723S3.748,4.802,3.354,5.391l6.237,4.166
				C9.716,9.37,9.859,9.191,10.025,9.025z"/>
			<path fill="none" stroke="#000000" stroke-linejoin="round" stroke-miterlimit="10" d="M9,11.501
				c0-0.234,0.024-0.462,0.068-0.684L1.711,9.354C1.575,10.05,1.5,10.767,1.5,11.501s0.074,1.451,0.213,2.146l7.356-1.464
				C9.024,11.963,9,11.735,9,11.501z"/>
			<path fill="none" stroke="#000000" stroke-linejoin="round" stroke-miterlimit="10" d="M10.025,13.976
				c-0.166-0.165-0.31-0.344-0.436-0.531l-6.236,4.168c0.396,0.588,0.85,1.147,1.368,1.667c0.52,0.52,1.079,0.974,1.669,1.366
				l4.166-6.237C10.369,14.285,10.191,14.142,10.025,13.976z"/>
			<path fill="none" stroke="#000000" stroke-linejoin="round" stroke-miterlimit="10" d="M12.5,15.001
				c-0.234,0-0.462-0.024-0.684-0.068l-1.463,7.356c0.695,0.137,1.413,0.212,2.146,0.212c0.734,0,1.451-0.075,2.146-0.214
				l-1.465-7.356C12.962,14.977,12.735,15.001,12.5,15.001z"/>
			<path fill="none" stroke="#000000" stroke-linejoin="round" stroke-miterlimit="10" d="M14.975,13.976
				c-0.165,0.166-0.344,0.31-0.531,0.436l4.168,6.236c0.588-0.396,1.148-0.85,1.667-1.368c0.521-0.52,0.974-1.079,1.366-1.669
				l-6.236-4.166C15.284,13.632,15.142,13.81,14.975,13.976z"/>
			<path fill="none" stroke="#000000" stroke-linejoin="round" stroke-miterlimit="10" d="M16,11.501
				c0,0.233-0.024,0.462-0.068,0.684l7.357,1.463c0.137-0.695,0.211-1.413,0.211-2.146c0.002-0.735-0.074-1.451-0.213-2.146
				l-7.355,1.464C15.976,11.039,16,11.266,16,11.501z"/>
			<path fill="none" stroke="#000000" stroke-linejoin="round" stroke-miterlimit="10" d="M14.976,9.026
				c0.165,0.165,0.309,0.344,0.435,0.531l6.236-4.168c-0.395-0.588-0.85-1.148-1.368-1.667c-0.519-0.521-1.079-0.974-1.669-1.367
				l-4.165,6.236C14.631,8.717,14.809,8.859,14.976,9.026z"/>
		</g>
	</g>
</g>
<g id="Invisible_Shape">
	<rect fill="none" width="24" height="24"/>
</g>
</svg>
