<?xml version="1.0" encoding="utf-8"?>
<!-- Generator: Adobe Illustrator 16.0.3, SVG Export Plug-In . SVG Version: 6.00 Build 0)  -->
<!DOCTYPE svg PUBLIC "-//W3C//DTD SVG 1.1//EN" "http://www.w3.org/Graphics/SVG/1.1/DTD/svg11.dtd">
<svg version="1.1" xmlns="http://www.w3.org/2000/svg" xmlns:xlink="http://www.w3.org/1999/xlink" x="0px" y="0px" width="24px"
	 height="24px" viewBox="0 0 24 24" enable-background="new 0 0 24 24" xml:space="preserve">
<g id="Outline_Icons_1_">
	<g id="Outline_Icons">
		<g>
			<g>
				<path fill="none" stroke="#000000" stroke-linejoin="round" stroke-miterlimit="10" d="M10.001,14.461l-3.75,6.497
					C7.942,21.937,9.905,22.5,12,22.5s4.058-0.563,5.749-1.542l-3.751-6.497C13.41,14.802,12.729,15,12,15
					S10.59,14.802,10.001,14.461z"/>
				<path fill="none" stroke="#000000" stroke-linejoin="round" stroke-miterlimit="10" d="M16,11.5h7.5
					c0-4.256-2.314-8.47-5.751-10.458l-3.751,6.497C15.194,8.23,16,10.02,16,11.5z"/>
				<path fill="none" stroke="#000000" stroke-linejoin="round" stroke-miterlimit="10" d="M8,11.5c0-1.48,0.806-3.27,2.001-3.961
					l-3.75-6.497C2.813,3.03,0.5,7.244,0.5,11.5H8z"/>
			</g>
			<path fill="none" stroke="#000000" stroke-linejoin="round" stroke-miterlimit="10" d="M10,11c0-1.034,0.854-2,2-2s2,0.966,2,2
				s-0.854,2-2,2S10,12.034,10,11z"/>
		</g>
	</g>
	<g id="New_icons_1_">
	</g>
</g>
<g id="Invisible_Shape">
	<rect fill="none" width="24" height="24"/>
</g>
</svg>
