<?xml version="1.0" encoding="utf-8"?>
<!-- Generator: Adobe Illustrator 19.2.1, SVG Export Plug-In . SVG Version: 6.00 Build 0)  -->
<svg version="1.1" xmlns="http://www.w3.org/2000/svg" xmlns:xlink="http://www.w3.org/1999/xlink" x="0px" y="0px" width="24px"
	 height="24px" viewBox="0 0 24 24" enable-background="new 0 0 24 24" xml:space="preserve">
<g id="Filled_Icons_1_">
	<g id="Filled_Icons">
	</g>
	<g id="New_icons">
		<g>
			<g>
				<path d="M14.5,1c-0.95,0-1.822,0.363-2.541,0.966c0.7,0.851,1.194,1.923,1.391,3.116c0.585-0.236,1.096-0.603,1.3-0.994
					c0.085-0.163,0.251-0.266,0.434-0.27c0.191,0.017,0.352,0.093,0.444,0.252c0.656,1.148,1.314,1.495,2.421,1.282
					c0.339-0.082,0.634-0.172,0.886-0.257C18.39,2.756,16.619,1,14.5,1z"/>
				<path d="M5.621,5.344c0.981,0,2.186-0.599,2.528-1.256C8.234,3.925,8.4,3.822,8.583,3.818C8.774,3.835,8.936,3.911,9.027,4.07
					c0.656,1.148,1.314,1.495,2.421,1.282c0.339-0.082,0.634-0.172,0.886-0.257C11.89,2.756,10.119,1,8,1
					C6.001,1,4.325,2.572,3.767,4.714C4.724,5.327,5.139,5.344,5.621,5.344z"/>
				<path d="M16,16.365v-0.354c0-1.212-0.759-2.298-1.89-2.703l-3.61-1.293v-1.46c1.186-0.964,1.966-2.593,1.936-4.441
					c-0.554,0.229-1.309,0.295-1.553,0.295c-0.948,0-1.694-0.398-2.327-1.235c-0.707,0.683-1.871,1.17-2.935,1.17
					c-0.642,0-1.191-0.105-2.028-0.58C3.415,7.801,4.246,9.545,5.5,10.553v1.463l-3.61,1.293C0.76,13.714,0,14.8,0,16.012V17.5
					C0,17.776,0.224,18,0.5,18h14.568L16,16.365z"/>
				<path d="M16.833,14.904l1.396-2.449L17,12.016v-1.46c1.186-0.964,1.966-2.593,1.937-4.441c-0.554,0.229-1.309,0.295-1.553,0.295
					c-0.948,0-1.694-0.398-2.327-1.235c-0.417,0.402-0.996,0.72-1.615,0.927c0.043,1.728-0.519,3.259-1.441,4.452v0.938l2.447,0.877
					C15.617,12.786,16.487,13.745,16.833,14.904z"/>
			</g>
			<path d="M16.067,18.751C16.157,18.905,16.321,19,16.5,19H19v4.5c0,0.227,0.152,0.426,0.372,0.483
				c0.219,0.058,0.449-0.038,0.562-0.235l4-7c0.089-0.154,0.087-0.346-0.002-0.499C23.843,16.095,23.679,16,23.5,16H21v-4.5
				c0-0.227-0.152-0.426-0.372-0.483c-0.219-0.058-0.449,0.038-0.562,0.235l-4,7.018C15.987,18.416,15.977,18.596,16.067,18.751z"/>
		</g>
	</g>
</g>
<g id="Invisible_Shape">
	<rect fill="none" width="24" height="24"/>
</g>
</svg>
