<?xml version="1.0" encoding="utf-8"?>
<!-- Generator: Adobe Illustrator 19.2.1, SVG Export Plug-In . SVG Version: 6.00 Build 0)  -->
<svg version="1.1" xmlns="http://www.w3.org/2000/svg" xmlns:xlink="http://www.w3.org/1999/xlink" x="0px" y="0px" width="24px"
	 height="24px" viewBox="0 0 24 24" enable-background="new 0 0 24 24" xml:space="preserve">
<g id="Filled_Icons_1_">
	<g id="Filled_Icons">
		<g>
			<g>
				<path d="M18.5,13c-3.032,0-5.5,2.467-5.5,5.5s2.468,5.5,5.5,5.5s5.5-2.467,5.5-5.5S21.532,13,18.5,13z M15.231,17.346
					c0.494-1.394,1.819-2.33,3.299-2.33c0.93,0,1.83,0.367,2.499,0.959V15.85c0-0.277,0.224-0.5,0.5-0.5c0.276,0,0.5,0.223,0.5,0.5
					v1.665c0,0.276-0.224,0.5-0.5,0.5h-1.666c-0.276,0-0.5-0.224-0.5-0.5c0-0.276,0.224-0.5,0.5-0.5h0.795
					c-0.489-0.604-1.291-0.999-2.128-0.999c-1.057,0-2.003,0.67-2.355,1.664c-0.073,0.205-0.266,0.333-0.472,0.333
					c-0.056,0-0.111-0.009-0.167-0.028C15.276,17.892,15.14,17.605,15.231,17.346z M22.162,19.658
					c-0.494,1.393-1.82,2.33-3.299,2.33c-0.93,0-1.829-0.368-2.499-0.959v0.125c0,0.277-0.224,0.5-0.5,0.5
					c-0.276,0-0.5-0.223-0.5-0.5v-1.665c0-0.276,0.224-0.5,0.5-0.5h1.666c0.276,0,0.5,0.224,0.5,0.5c0,0.276-0.224,0.5-0.5,0.5
					h-0.795c0.489,0.604,1.292,0.999,2.128,0.999c1.057,0,2.003-0.67,2.355-1.664c0.094-0.26,0.383-0.396,0.639-0.305
					C22.118,19.112,22.254,19.398,22.162,19.658z"/>
			</g>
			<g>
				<path d="M5.621,5.344c0.981,0,2.186-0.599,2.528-1.256C8.234,3.925,8.4,3.822,8.583,3.818C8.774,3.835,8.936,3.911,9.027,4.07
					c0.656,1.148,1.314,1.495,2.421,1.282c0.339-0.082,0.634-0.172,0.886-0.257C11.89,2.756,10.119,1,8,1
					C6.001,1,4.325,2.572,3.767,4.714C4.724,5.327,5.139,5.344,5.621,5.344z"/>
				<path d="M14.419,13.447c-0.153-0.119-2.138-0.791-3.919-1.432v-1.46c1.186-0.964,1.966-2.593,1.936-4.441
					c-0.554,0.229-1.309,0.295-1.553,0.295c-0.948,0-1.694-0.398-2.327-1.235c-0.707,0.683-1.871,1.17-2.935,1.17
					c-0.642,0-1.191-0.105-2.028-0.58C3.415,7.801,4.246,9.545,5.5,10.553v1.463l-3.61,1.293C0.76,13.714,0,14.8,0,16.012V17.5
					C0,17.776,0.224,18,0.5,18h11.525C12.166,16.165,13.067,14.542,14.419,13.447z"/>
				<path d="M14.5,1c-0.95,0-1.822,0.363-2.541,0.966c0.7,0.851,1.194,1.923,1.391,3.116c0.585-0.236,1.096-0.603,1.3-0.994
					c0.085-0.163,0.251-0.266,0.434-0.27c0.191,0.017,0.352,0.093,0.444,0.252c0.656,1.148,1.314,1.495,2.421,1.282
					c0.339-0.082,0.634-0.172,0.886-0.257C18.39,2.756,16.619,1,14.5,1z"/>
				<path d="M17,10.556c1.186-0.964,1.966-2.593,1.937-4.441c-0.554,0.229-1.309,0.295-1.553,0.295
					c-0.948,0-1.694-0.398-2.327-1.235c-0.417,0.402-0.996,0.72-1.615,0.927c0.043,1.728-0.519,3.259-1.441,4.452v0.938
					c2.219,0.791,2.688,0.916,3.328,1.342c0.516-0.29,1.082-0.495,1.672-0.635V10.556z"/>
			</g>
		</g>
	</g>
	<g id="New_icons">
	</g>
</g>
<g id="Invisible_Shape">
	<rect fill="none" width="24" height="24"/>
</g>
</svg>
