<?xml version="1.0" encoding="utf-8"?>
<!-- Generator: Adobe Illustrator 19.2.1, SVG Export Plug-In . SVG Version: 6.00 Build 0)  -->
<svg version="1.1" xmlns="http://www.w3.org/2000/svg" xmlns:xlink="http://www.w3.org/1999/xlink" x="0px" y="0px" width="24px"
	 height="24px" viewBox="0 0 24 24" enable-background="new 0 0 24 24" xml:space="preserve">
<g id="Filled_Icons_1_">
	<g id="Filled_Icons">
	</g>
	<g id="New_icons">
		<g>
			<g>
				<path d="M14.5,1c-0.95,0-1.822,0.363-2.541,0.966c0.7,0.851,1.194,1.923,1.391,3.116c0.585-0.236,1.096-0.603,1.3-0.994
					c0.085-0.163,0.251-0.266,0.434-0.27c0.191,0.017,0.352,0.093,0.444,0.252c0.656,1.148,1.314,1.495,2.421,1.282
					c0.339-0.082,0.634-0.172,0.886-0.257C18.39,2.756,16.619,1,14.5,1z"/>
				<path d="M5.621,5.344c0.981,0,2.186-0.599,2.528-1.256C8.234,3.925,8.4,3.822,8.583,3.818C8.774,3.835,8.936,3.911,9.027,4.07
					c0.656,1.148,1.314,1.495,2.421,1.282c0.339-0.082,0.634-0.172,0.886-0.257C11.89,2.756,10.119,1,8,1
					C6.001,1,4.325,2.572,3.767,4.714C4.724,5.327,5.139,5.344,5.621,5.344z"/>
				<path d="M14.5,13.5c-0.719-0.359-1.297-0.5-4-1.484v-1.46c1.186-0.964,1.966-2.593,1.936-4.441
					c-0.554,0.229-1.309,0.295-1.553,0.295c-0.948,0-1.694-0.398-2.327-1.235c-0.707,0.683-1.871,1.17-2.935,1.17
					c-0.642,0-1.191-0.105-2.028-0.58C3.415,7.801,4.246,9.545,5.5,10.553v1.463l-3.61,1.293C0.76,13.714,0,14.8,0,16.012V17.5
					C0,17.776,0.224,18,0.5,18H13v-3C13,14.173,13.673,13.5,14.5,13.5z"/>
				<path d="M16.065,13.5h4.964c-0.133-0.074-0.272-0.139-0.419-0.191L17,12.016v-1.46c1.186-0.964,1.966-2.593,1.937-4.441
					c-0.554,0.229-1.309,0.295-1.553,0.295c-0.948,0-1.694-0.398-2.327-1.235c-0.417,0.402-0.996,0.72-1.615,0.927
					c0.043,1.728-0.519,3.259-1.441,4.452v0.938l2.447,0.877C15.092,12.598,15.639,12.999,16.065,13.5z"/>
			</g>
			<path d="M23.5,14.5h-9c-0.276,0-0.5,0.224-0.5,0.5v6c0,0.276,0.224,0.5,0.5,0.5H17v2c0,0.202,0.122,0.385,0.309,0.462
				c0.187,0.077,0.402,0.034,0.545-0.108l2.354-2.354H23.5c0.276,0,0.5-0.224,0.5-0.5v-6C24,14.724,23.776,14.5,23.5,14.5z
				 M20.5,19.5H16c-0.276,0-0.5-0.224-0.5-0.5s0.224-0.5,0.5-0.5h4.5c0.276,0,0.5,0.224,0.5,0.5S20.776,19.5,20.5,19.5z M22,17.5h-6
				c-0.276,0-0.5-0.224-0.5-0.5s0.224-0.5,0.5-0.5h6c0.276,0,0.5,0.224,0.5,0.5S22.276,17.5,22,17.5z"/>
		</g>
	</g>
</g>
<g id="Invisible_Shape">
	<rect fill="none" width="24" height="24"/>
</g>
</svg>
