<?xml version="1.0" encoding="utf-8"?>
<!-- Generator: Adobe Illustrator 19.2.1, SVG Export Plug-In . SVG Version: 6.00 Build 0)  -->
<svg version="1.1" xmlns="http://www.w3.org/2000/svg" xmlns:xlink="http://www.w3.org/1999/xlink" x="0px" y="0px" width="24px"
	 height="24px" viewBox="0 0 24 24" enable-background="new 0 0 24 24" xml:space="preserve">
<g id="Filled_Icons_1_">
	<g id="Filled_Icons">
		<g>
			<g>
				<path d="M14.5,1c-0.95,0-1.822,0.363-2.541,0.966c0.7,0.851,1.194,1.923,1.391,3.116c0.585-0.236,1.096-0.603,1.3-0.994
					c0.085-0.163,0.251-0.266,0.434-0.27c0.191,0.017,0.352,0.093,0.444,0.252c0.656,1.148,1.314,1.495,2.421,1.282
					c0.339-0.082,0.634-0.172,0.886-0.257C18.39,2.756,16.619,1,14.5,1z"/>
				<path d="M5.621,5.344c0.981,0,2.186-0.599,2.528-1.256C8.234,3.925,8.4,3.822,8.583,3.818C8.774,3.835,8.936,3.911,9.027,4.07
					c0.656,1.148,1.314,1.495,2.421,1.282c0.339-0.082,0.634-0.172,0.886-0.257C11.89,2.756,10.119,1,8,1
					C6.001,1,4.325,2.572,3.767,4.714C4.724,5.327,5.139,5.344,5.621,5.344z"/>
				<path d="M12.091,16.489c0.211-0.588,0.778-0.985,1.409-0.985h2.451c-0.179-0.998-0.872-1.848-1.841-2.195l-3.61-1.293v-1.46
					c1.186-0.964,1.966-2.593,1.936-4.441c-0.554,0.229-1.309,0.295-1.553,0.295c-0.948,0-1.694-0.398-2.327-1.235
					c-0.707,0.683-1.871,1.17-2.935,1.17c-0.642,0-1.191-0.105-2.028-0.58C3.415,7.801,4.246,9.545,5.5,10.553v1.463l-3.61,1.293
					C0.76,13.714,0,14.8,0,16.012V17.5C0,17.776,0.224,18,0.5,18h11.905C12.035,17.59,11.899,17.014,12.091,16.489z"/>
				<g>
					<path d="M16.559,14.225l0.562-1.314c0.119-0.274,0.311-0.498,0.547-0.655L17,12.016v-1.46c1.186-0.964,1.966-2.593,1.937-4.441
						c-0.554,0.229-1.309,0.295-1.553,0.295c-0.948,0-1.694-0.398-2.327-1.235c-0.417,0.402-0.996,0.72-1.615,0.927
						c0.043,1.728-0.519,3.259-1.441,4.452v0.938l2.447,0.877C15.378,12.701,16.119,13.378,16.559,14.225z"/>
				</g>
			</g>
			<path d="M23.97,16.832c-0.071-0.198-0.259-0.328-0.47-0.328h-3.171l-1.369-3.2C18.881,13.121,18.699,13,18.5,13
				s-0.381,0.121-0.46,0.304l-1.369,3.2H13.5c-0.211,0-0.398,0.13-0.47,0.328c-0.072,0.198-0.012,0.419,0.149,0.554l2.744,2.27
				l-1.375,3.669c-0.077,0.206-0.011,0.438,0.163,0.572c0.175,0.135,0.415,0.137,0.595,0.011l3.193-2.289l3.193,2.289
				c0.18,0.126,0.42,0.124,0.595-0.011c0.174-0.134,0.24-0.366,0.163-0.572l-1.375-3.669l2.744-2.27
				C23.981,17.251,24.042,17.03,23.97,16.832z"/>
		</g>
	</g>
	<g id="New_icons">
	</g>
</g>
<g id="Invisible_Shape">
	<rect fill="none" width="24" height="24"/>
</g>
</svg>
