<?xml version="1.0" encoding="utf-8"?>
<!-- Generator: Adobe Illustrator 19.2.1, SVG Export Plug-In . SVG Version: 6.00 Build 0)  -->
<svg version="1.1" xmlns="http://www.w3.org/2000/svg" xmlns:xlink="http://www.w3.org/1999/xlink" x="0px" y="0px" width="24px"
	 height="24px" viewBox="0 0 24 24" enable-background="new 0 0 24 24" xml:space="preserve">
<g id="Filled_Icons_1_">
	<g id="Filled_Icons">
		<g>
			<path d="M14.5,1c-0.95,0-1.822,0.363-2.541,0.966c0.7,0.851,1.194,1.923,1.391,3.116c0.585-0.236,1.096-0.603,1.3-0.994
				c0.085-0.163,0.251-0.266,0.434-0.27c0.191,0.017,0.352,0.093,0.444,0.252c0.656,1.148,1.314,1.495,2.421,1.282
				c0.339-0.082,0.634-0.172,0.886-0.257C18.39,2.756,16.619,1,14.5,1z"/>
			<path d="M5.621,5.344c0.981,0,2.186-0.599,2.528-1.256C8.234,3.925,8.4,3.822,8.583,3.818C8.774,3.835,8.936,3.911,9.027,4.07
				c0.656,1.148,1.314,1.495,2.421,1.282c0.339-0.082,0.634-0.172,0.886-0.257C11.89,2.756,10.119,1,8,1
				C6.001,1,4.325,2.572,3.767,4.714C4.724,5.327,5.139,5.344,5.621,5.344z"/>
			<path d="M15.294,14.131c-0.314-0.363-0.714-0.653-1.184-0.822l-3.61-1.293v-1.46c1.186-0.964,1.966-2.593,1.936-4.441
				c-0.554,0.229-1.309,0.295-1.553,0.295c-0.948,0-1.694-0.398-2.327-1.235c-0.707,0.683-1.871,1.17-2.935,1.17
				c-0.642,0-1.191-0.105-2.028-0.58C3.415,7.801,4.246,9.545,5.5,10.553v1.463l-3.61,1.293C0.76,13.714,0,14.8,0,16.012V17.5
				C0,17.776,0.224,18,0.5,18h12.516C12.916,16.209,13.865,14.758,15.294,14.131z"/>
			<path d="M16.341,13.857c1.036-0.117,1.926,0.191,2.659,0.807c0.701-0.588,1.531-0.89,2.504-0.822
				c-0.648-0.563-1.095-0.605-4.504-1.826v-1.46c1.186-0.964,1.966-2.593,1.937-4.441c-0.554,0.229-1.309,0.295-1.553,0.295
				c-0.948,0-1.694-0.398-2.327-1.235c-0.417,0.402-0.996,0.72-1.615,0.927c0.043,1.728-0.519,3.259-1.441,4.452v0.938
				C14.519,12.393,15.466,12.547,16.341,13.857z"/>
			<path d="M21.272,14.818c-0.771,0-1.674,0.38-2.272,1.368c-0.599-0.988-1.501-1.368-2.272-1.368c-1.341,0-2.728,1.117-2.728,2.984
				c0,2.604,4.225,5.752,4.706,6.102C18.794,23.969,18.896,24,19,24s0.206-0.031,0.294-0.096C19.775,23.555,24,20.407,24,17.803
				C24,15.936,22.613,14.818,21.272,14.818z"/>
		</g>
	</g>
	<g id="New_icons">
	</g>
</g>
<g id="Invisible_Shape">
	<rect fill="none" width="24" height="24"/>
</g>
</svg>
