<?xml version="1.0" encoding="utf-8"?>
<!-- Generator: Adobe Illustrator 19.2.1, SVG Export Plug-In . SVG Version: 6.00 Build 0)  -->
<svg version="1.1" xmlns="http://www.w3.org/2000/svg" xmlns:xlink="http://www.w3.org/1999/xlink" x="0px" y="0px" width="24px"
	 height="24px" viewBox="0 0 24 24" enable-background="new 0 0 24 24" xml:space="preserve">
<g id="Filled_Icons_1_">
	<g id="Filled_Icons">
	</g>
	<g id="New_icons">
		<g>
			<path d="M14.5,1c-0.95,0-1.822,0.363-2.541,0.966c0.7,0.851,1.194,1.923,1.391,3.116c0.585-0.236,1.096-0.603,1.3-0.994
				c0.085-0.163,0.251-0.266,0.434-0.27c0.191,0.017,0.352,0.093,0.444,0.252c0.656,1.148,1.314,1.495,2.421,1.282
				c0.339-0.082,0.634-0.172,0.886-0.257C18.39,2.756,16.619,1,14.5,1z"/>
			<path d="M5.621,5.344c0.981,0,2.186-0.599,2.528-1.256C8.234,3.925,8.4,3.822,8.583,3.818C8.774,3.835,8.936,3.911,9.027,4.07
				c0.656,1.148,1.314,1.495,2.421,1.282c0.339-0.082,0.634-0.172,0.886-0.257C11.89,2.756,10.119,1,8,1
				C6.001,1,4.325,2.572,3.767,4.714C4.724,5.327,5.139,5.344,5.621,5.344z"/>
			<path d="M16,16.682v-0.67c0-1.212-0.759-2.298-1.89-2.703l-3.61-1.293v-1.46c1.186-0.964,1.966-2.593,1.936-4.441
				c-0.554,0.229-1.309,0.295-1.553,0.295c-0.948,0-1.694-0.398-2.327-1.235c-0.707,0.683-1.871,1.17-2.935,1.17
				c-0.642,0-1.191-0.105-2.028-0.58C3.415,7.801,4.246,9.545,5.5,10.553v1.463l-3.61,1.293C0.76,13.714,0,14.8,0,16.012V17.5
				C0,17.776,0.224,18,0.5,18h11.917C13.119,16.794,14.577,16.168,16,16.682z"/>
			<path d="M17,16.012v0.81l2.011-1.005c0.061-1.043,0.669-2.002,1.635-2.492c-0.013-0.004-0.023-0.012-0.036-0.016L17,12.016v-1.46
				c1.186-0.964,1.966-2.593,1.937-4.441c-0.554,0.229-1.309,0.295-1.553,0.295c-0.948,0-1.694-0.398-2.327-1.235
				c-0.417,0.402-0.996,0.72-1.615,0.927c0.043,1.728-0.519,3.259-1.441,4.452v0.938l2.447,0.877C15.974,12.914,17,14.379,17,16.012
				z"/>
			<path d="M22.673,20.115c-0.854-0.309-1.815,0.048-2.317,0.766l-3.373-1.205c0.016-0.19,0.043-0.268-0.028-0.596l3.543-1.77
				c0.612,0.706,1.596,0.879,2.395,0.478c0.991-0.493,1.392-1.693,0.897-2.684c-0.499-0.999-1.7-1.384-2.683-0.894
				c-0.778,0.39-1.259,1.263-1.056,2.204l-3.552,1.775C16.133,17.771,15.6,17.499,15,17.499c-1.102,0-2,0.897-2,2
				c0,1.103,0.898,2,2,2c0.688,0,1.294-0.349,1.654-0.879l3.36,1.2c-0.088,0.962,0.493,1.771,1.312,2.062
				c1.045,0.374,2.188-0.18,2.557-1.21C24.256,21.627,23.711,20.485,22.673,20.115z M21.554,15.104
				c0.478-0.239,1.086-0.061,1.341,0.447c0.246,0.495,0.047,1.097-0.448,1.342c-0.482,0.243-1.099,0.032-1.339-0.446
				c-0.001-0.001-0.001-0.001-0.001-0.001c0-0.002-0.001-0.002-0.002-0.003C20.856,15.945,21.065,15.348,21.554,15.104z M15,20.499
				c-0.552,0-1-0.448-1-1c0-0.552,0.448-1,1-1s1,0.448,1,1C16,20.051,15.552,20.499,15,20.499z M22.941,22.336
				c-0.181,0.504-0.765,0.787-1.278,0.604c-0.514-0.184-0.79-0.749-0.605-1.272c0.001-0.002,0.003-0.003,0.004-0.005
				c0.001-0.003,0-0.006,0.001-0.009c0.19-0.515,0.76-0.783,1.273-0.598C22.856,21.242,23.129,21.812,22.941,22.336z"/>
			<path d="M22.673,20.115c-0.854-0.309-1.815,0.048-2.317,0.766l-3.373-1.205c0.016-0.19,0.043-0.268-0.028-0.596l3.543-1.77
				c0.612,0.706,1.596,0.879,2.395,0.478c0.991-0.493,1.392-1.693,0.897-2.684c-0.499-0.999-1.7-1.384-2.683-0.894
				c-0.778,0.39-1.259,1.263-1.056,2.204l-3.552,1.775C16.133,17.771,15.6,17.499,15,17.499c-1.102,0-2,0.897-2,2
				c0,1.103,0.898,2,2,2c0.688,0,1.294-0.349,1.654-0.879l3.36,1.2c-0.088,0.962,0.493,1.771,1.312,2.062
				c1.045,0.374,2.188-0.18,2.557-1.21C24.256,21.627,23.711,20.485,22.673,20.115z M21.554,15.104
				c0.478-0.239,1.086-0.061,1.341,0.447c0.246,0.495,0.047,1.097-0.448,1.342c-0.482,0.243-1.099,0.032-1.339-0.446
				c-0.001-0.001-0.001-0.001-0.001-0.001c0-0.002-0.001-0.002-0.002-0.003C20.856,15.945,21.065,15.348,21.554,15.104z M15,20.499
				c-0.552,0-1-0.448-1-1c0-0.552,0.448-1,1-1s1,0.448,1,1C16,20.051,15.552,20.499,15,20.499z M22.941,22.336
				c-0.181,0.504-0.765,0.787-1.278,0.604c-0.514-0.184-0.79-0.749-0.605-1.272c0.001-0.002,0.003-0.003,0.004-0.005
				c0.001-0.003,0-0.006,0.001-0.009c0.19-0.515,0.76-0.783,1.273-0.598C22.856,21.242,23.129,21.812,22.941,22.336z"/>
		</g>
	</g>
</g>
<g id="Invisible_Shape">
	<rect fill="none" width="24" height="24"/>
</g>
</svg>
