<?xml version="1.0" encoding="utf-8"?>
<!-- Generator: Adobe Illustrator 19.2.1, SVG Export Plug-In . SVG Version: 6.00 Build 0)  -->
<svg version="1.1" xmlns="http://www.w3.org/2000/svg" xmlns:xlink="http://www.w3.org/1999/xlink" x="0px" y="0px" width="24px"
	 height="24px" viewBox="0 0 24 24" enable-background="new 0 0 24 24" xml:space="preserve">
<g id="Filled_Icons_1_">
	<g id="Filled_Icons">
	</g>
	<g id="New_icons">
		<g>
			<g>
				<path d="M14.5,1c-0.95,0-1.822,0.363-2.541,0.966c0.7,0.851,1.194,1.923,1.391,3.116c0.585-0.236,1.096-0.603,1.3-0.994
					c0.085-0.163,0.251-0.266,0.434-0.27c0.191,0.017,0.352,0.093,0.444,0.252c0.656,1.148,1.314,1.495,2.421,1.282
					c0.339-0.082,0.634-0.172,0.886-0.257C18.39,2.756,16.619,1,14.5,1z"/>
				<path d="M5.621,5.344c0.981,0,2.186-0.599,2.528-1.256C8.234,3.925,8.4,3.822,8.583,3.818C8.774,3.835,8.936,3.911,9.027,4.07
					c0.656,1.148,1.314,1.495,2.421,1.282c0.339-0.082,0.634-0.172,0.886-0.257C11.89,2.756,10.119,1,8,1
					C6.001,1,4.325,2.572,3.767,4.714C4.724,5.327,5.139,5.344,5.621,5.344z"/>
				<path d="M15,15h0.809c-0.29-0.773-0.899-1.404-1.699-1.691l-3.61-1.293v-1.46c1.186-0.964,1.966-2.593,1.936-4.441
					c-0.554,0.229-1.309,0.295-1.553,0.295c-0.948,0-1.694-0.398-2.327-1.235c-0.707,0.683-1.871,1.17-2.935,1.17
					c-0.642,0-1.191-0.105-2.028-0.58C3.415,7.801,4.246,9.545,5.5,10.553v1.463l-3.61,1.293C0.76,13.714,0,14.8,0,16.012V17.5
					C0,17.776,0.224,18,0.5,18H12C12,16.346,13.346,15,15,15z"/>
				<path d="M16.856,15H22c0.11,0,0.215,0.021,0.322,0.033c-0.285-0.789-0.9-1.434-1.712-1.725L17,12.016v-1.46
					c1.186-0.964,1.966-2.593,1.937-4.441c-0.554,0.229-1.309,0.295-1.553,0.295c-0.948,0-1.694-0.398-2.327-1.235
					c-0.417,0.402-0.996,0.72-1.615,0.927c0.043,1.728-0.519,3.259-1.441,4.452v0.938l2.447,0.877
					C15.648,12.797,16.53,13.799,16.856,15z"/>
			</g>
			<path d="M22,16h-7c-1.103,0-2,0.897-2,2v4c0,1.103,0.897,2,2,2h7c1.103,0,2-0.897,2-2v-4C24,16.897,23.103,16,22,16z
				 M21.854,21.854C21.756,21.951,21.628,22,21.5,22s-0.256-0.049-0.354-0.146l-1.313-1.313l-1.013,0.844
				c-0.093,0.077-0.206,0.116-0.32,0.116s-0.228-0.039-0.32-0.116l-1.013-0.844l-1.313,1.313C15.756,21.951,15.628,22,15.5,22
				s-0.256-0.049-0.354-0.146c-0.195-0.195-0.195-0.512,0-0.707l1.249-1.249l-1.216-1.014c-0.212-0.177-0.241-0.492-0.064-0.704
				c0.176-0.211,0.491-0.24,0.705-0.064l2.68,2.233l2.68-2.233c0.213-0.177,0.528-0.147,0.705,0.064
				c0.177,0.212,0.148,0.527-0.064,0.704l-1.216,1.014l1.249,1.249C22.049,21.342,22.049,21.658,21.854,21.854z"/>
			<path d="M22,16h-7c-1.103,0-2,0.897-2,2v4c0,1.103,0.897,2,2,2h7c1.103,0,2-0.897,2-2v-4C24,16.897,23.103,16,22,16z
				 M21.854,21.854c-0.195,0.195-0.512,0.195-0.707,0l-1.313-1.313l-1.013,0.844c-0.185,0.154-0.455,0.154-0.641,0l-1.013-0.844
				l-1.313,1.313c-0.195,0.195-0.512,0.195-0.707,0c-0.195-0.195-0.195-0.512,0-0.707l1.249-1.249l-1.216-1.014
				c-0.212-0.177-0.241-0.492-0.064-0.704c0.177-0.211,0.492-0.241,0.705-0.064l2.68,2.233l2.68-2.233
				c0.212-0.178,0.528-0.147,0.705,0.064c0.177,0.212,0.148,0.527-0.064,0.704l-1.216,1.014l1.249,1.249
				C22.049,21.342,22.049,21.658,21.854,21.854z"/>
		</g>
	</g>
</g>
<g id="Invisible_Shape">
	<rect fill="none" width="24" height="24"/>
</g>
</svg>
