<?xml version="1.0" encoding="utf-8"?>
<!-- Generator: Adobe Illustrator 19.2.1, SVG Export Plug-In . SVG Version: 6.00 Build 0)  -->
<svg version="1.1" xmlns="http://www.w3.org/2000/svg" xmlns:xlink="http://www.w3.org/1999/xlink" x="0px" y="0px" width="24px"
	 height="24px" viewBox="0 0 24 24" enable-background="new 0 0 24 24" xml:space="preserve">
<g id="Filled_Icons_1_">
	<g id="Filled_Icons">
		<g>
			<g>
				<path d="M14.5,1c-0.95,0-1.822,0.363-2.541,0.966c0.7,0.851,1.194,1.923,1.391,3.116c0.585-0.236,1.096-0.603,1.3-0.994
					c0.085-0.163,0.251-0.266,0.434-0.27c0.191,0.017,0.352,0.093,0.444,0.252c0.656,1.148,1.314,1.495,2.421,1.282
					c0.339-0.082,0.634-0.172,0.886-0.257C18.39,2.756,16.619,1,14.5,1z"/>
				<path d="M5.621,5.344c0.981,0,2.186-0.599,2.528-1.256C8.234,3.925,8.4,3.822,8.583,3.818C8.774,3.835,8.936,3.911,9.027,4.07
					c0.656,1.148,1.314,1.495,2.421,1.282c0.339-0.082,0.634-0.172,0.886-0.257C11.89,2.756,10.119,1,8,1
					C6.001,1,4.325,2.572,3.767,4.714C4.724,5.327,5.139,5.344,5.621,5.344z"/>
				<path d="M19.5,12.911L17,12.016v-1.46c1.186-0.964,1.966-2.593,1.937-4.441c-0.554,0.229-1.309,0.295-1.553,0.295
					c-0.948,0-1.694-0.398-2.327-1.235c-0.417,0.402-0.996,0.72-1.615,0.927c0.043,1.728-0.519,3.259-1.441,4.452v0.938l2.447,0.877
					c0.731,0.262,1.342,0.738,1.786,1.338C16.499,13.283,16.966,13,17.5,13h2V12.911z"/>
				<path d="M12.805,16.864l0.999-1.731c0.344-0.591,1.091-0.859,1.733-0.677c-0.333-0.519-0.824-0.932-1.427-1.148l-3.61-1.293
					v-1.46c1.186-0.964,1.966-2.593,1.936-4.441c-0.554,0.229-1.309,0.295-1.553,0.295c-0.948,0-1.694-0.398-2.327-1.235
					c-0.707,0.683-1.871,1.17-2.935,1.17c-0.642,0-1.191-0.105-2.028-0.58C3.415,7.801,4.246,9.545,5.5,10.553v1.463l-3.61,1.293
					C0.76,13.714,0,14.8,0,16.012V17.5C0,17.776,0.224,18,0.5,18h12.153C12.55,17.614,12.604,17.211,12.805,16.864z"/>
			</g>
			<path d="M23.147,19.951l-0.702-0.406C22.47,19.365,22.5,19.187,22.5,19c0-0.188-0.03-0.366-0.055-0.547l0.702-0.404
				c0.239-0.139,0.319-0.443,0.183-0.684l-1.001-1.732c-0.137-0.239-0.443-0.322-0.683-0.184l-0.702,0.406
				c-0.288-0.226-0.601-0.419-0.944-0.559V14.5c0-0.276-0.224-0.5-0.5-0.5h-2c-0.276,0-0.5,0.224-0.5,0.5v0.797
				c-0.344,0.14-0.656,0.334-0.945,0.559l-0.701-0.404c-0.24-0.139-0.545-0.057-0.684,0.182l-1,1.732
				c-0.139,0.239-0.057,0.545,0.184,0.684l0.701,0.405C14.53,18.635,14.5,18.812,14.5,19c0,0.187,0.03,0.365,0.055,0.544
				l-0.702,0.405c-0.239,0.139-0.32,0.444-0.184,0.684l1.001,1.732c0.137,0.239,0.443,0.321,0.684,0.184l0.7-0.405
				c0.289,0.226,0.602,0.42,0.946,0.559V23.5c0,0.276,0.224,0.5,0.5,0.5h2c0.276,0,0.5-0.224,0.5-0.5v-0.797
				c0.345-0.14,0.657-0.334,0.946-0.559l0.701,0.404c0.239,0.138,0.544,0.056,0.683-0.184l1-1.732
				C23.469,20.395,23.387,20.088,23.147,19.951z M18.5,21c-1.104,0-2-0.896-2-2s0.896-2,2-2s2,0.896,2,2S19.604,21,18.5,21z"/>
		</g>
	</g>
	<g id="New_icons">
	</g>
</g>
<g id="Invisible_Shape">
	<rect fill="none" width="24" height="24"/>
</g>
</svg>
