<?xml version="1.0" encoding="utf-8"?>
<!-- Generator: Adobe Illustrator 19.2.1, SVG Export Plug-In . SVG Version: 6.00 Build 0)  -->
<svg version="1.1" xmlns="http://www.w3.org/2000/svg" xmlns:xlink="http://www.w3.org/1999/xlink" x="0px" y="0px" width="24px"
	 height="24px" viewBox="0 0 24 24" enable-background="new 0 0 24 24" xml:space="preserve">
<g id="Filled_Icons_1_">
	<g id="Filled_Icons">
		<g>
			<path d="M14.5,1c-0.95,0-1.822,0.363-2.541,0.966c0.7,0.851,1.194,1.923,1.391,3.116c0.585-0.236,1.096-0.603,1.3-0.994
				c0.085-0.163,0.251-0.266,0.434-0.27c0.191,0.017,0.352,0.093,0.444,0.252c0.656,1.148,1.314,1.495,2.421,1.282
				c0.339-0.082,0.634-0.172,0.886-0.257C18.39,2.756,16.619,1,14.5,1z"/>
			<path d="M5.621,5.344c0.981,0,2.186-0.599,2.528-1.256C8.234,3.925,8.4,3.822,8.583,3.818C8.774,3.835,8.936,3.911,9.027,4.07
				c0.656,1.148,1.314,1.495,2.421,1.282c0.339-0.082,0.634-0.172,0.886-0.257C11.89,2.756,10.119,1,8,1
				C6.001,1,4.325,2.572,3.767,4.714C4.724,5.327,5.139,5.344,5.621,5.344z"/>
			<path d="M15.109,13.936c-0.282-0.271-0.617-0.49-0.999-0.627l-3.61-1.293v-1.46c1.186-0.964,1.966-2.593,1.936-4.441
				c-0.554,0.229-1.309,0.295-1.553,0.295c-0.948,0-1.694-0.398-2.327-1.235c-0.707,0.683-1.871,1.17-2.935,1.17
				c-0.642,0-1.191-0.105-2.028-0.58C3.415,7.801,4.246,9.545,5.5,10.553v1.463l-3.61,1.293C0.76,13.714,0,14.8,0,16.012V17.5
				C0,17.776,0.224,18,0.5,18H13C13,16.322,13.837,14.844,15.109,13.936z"/>
			<path d="M16.002,13.423C16.615,13.154,17.289,13,18,13c1.978,0,3.676,1.164,4.486,2.834c-0.071-1.139-0.802-2.141-1.876-2.525
				L17,12.016v-1.46c1.186-0.964,1.966-2.593,1.937-4.441c-0.554,0.229-1.309,0.295-1.553,0.295c-0.948,0-1.694-0.398-2.327-1.235
				c-0.417,0.402-0.996,0.72-1.615,0.927c0.043,1.728-0.519,3.259-1.441,4.452v0.938C14.225,12.287,15.106,12.423,16.002,13.423z"/>
			<path d="M23.854,23.146l-2.707-2.706C21.673,19.763,22,18.923,22,18c0-2.205-1.794-4-4-4s-4,1.795-4,4s1.794,4,4,4
				c0.923,0,1.762-0.326,2.44-0.852l2.707,2.705c0.195,0.195,0.512,0.195,0.707,0C24.049,23.658,24.049,23.342,23.854,23.146z
				 M15,18c0-1.654,1.346-3,3-3s3,1.346,3,3s-1.346,3-3,3S15,19.654,15,18z"/>
		</g>
	</g>
	<g id="New_icons">
	</g>
</g>
<g id="Invisible_Shape">
	<rect fill="none" width="24" height="24"/>
</g>
</svg>
