<?xml version="1.0" encoding="utf-8"?>
<!-- Generator: Adobe Illustrator 19.2.1, SVG Export Plug-In . SVG Version: 6.00 Build 0)  -->
<svg version="1.1" xmlns="http://www.w3.org/2000/svg" xmlns:xlink="http://www.w3.org/1999/xlink" x="0px" y="0px" width="24px"
	 height="24px" viewBox="0 0 24 24" enable-background="new 0 0 24 24" xml:space="preserve">
<g id="Filled_Icons_1_">
	<g id="Filled_Icons">
		<g>
			<path d="M23.5,16H23v-0.5c0-1.93-1.57-3.5-3.5-3.5S16,13.57,16,15.5V16h-0.5c-0.276,0-0.5,0.224-0.5,0.5v7
				c0,0.276,0.224,0.5,0.5,0.5h8c0.276,0,0.5-0.224,0.5-0.5v-7C24,16.224,23.776,16,23.5,16z M17,15.5c0-1.379,1.121-2.5,2.5-2.5
				s2.5,1.121,2.5,2.5V16h-5V15.5z M20,19.847v1.654c0,0.276-0.225,0.5-0.501,0.5c-0.276,0-0.499-0.224-0.499-0.5v-1.654
				c-0.294-0.175-0.5-0.482-0.5-0.847c0-0.552,0.448-1,1-1s1,0.448,1,1C20.5,19.365,20.293,19.672,20,19.847z"/>
			<path d="M6.875,5.5c1.308,0,2.861-0.776,3.322-1.661c0.084-0.162,0.251-0.265,0.434-0.269c0.226,0.014,0.353,0.093,0.444,0.252
				c0.853,1.494,1.755,1.967,3.206,1.687c0.032-0.007,0.543-0.134,1.113-0.275C14.894,2.254,12.666,0,10,0
				C7.46,0,5.322,2.049,4.693,4.819C5.596,5.375,6.239,5.5,6.875,5.5z"/>
			<path d="M14,16.5c0-0.659,0.427-1.221,1.019-1.421c0.006-0.067,0.028-0.13,0.037-0.196L13,14.148v-2.206
				c1.503-1.162,2.594-3.348,2.489-5.704c-0.839,0.294-1.655,0.348-1.948,0.348c-1.194,0-2.134-0.525-2.931-1.635
				C9.756,5.847,8.249,6.5,6.875,6.5c-0.783,0-1.434-0.141-2.348-0.628C4.344,8.656,5.497,10.779,7,11.941v2.206l-4.678,1.671
				C0.933,16.315,0,17.64,0,19.114V21.5C0,21.776,0.224,22,0.5,22H14V16.5z"/>
		</g>
	</g>
	<g id="New_icons">
	</g>
</g>
<g id="Invisible_Shape">
	<rect fill="none" width="24" height="24"/>
</g>
</svg>
