<?xml version="1.0" encoding="utf-8"?>
<!-- Generator: Adobe Illustrator 19.2.1, SVG Export Plug-In . SVG Version: 6.00 Build 0)  -->
<svg version="1.1" xmlns="http://www.w3.org/2000/svg" xmlns:xlink="http://www.w3.org/1999/xlink" x="0px" y="0px" width="24px"
	 height="24px" viewBox="0 0 24 24" enable-background="new 0 0 24 24" xml:space="preserve">
<g id="Filled_Icons_1_">
	<g id="Filled_Icons">
	</g>
	<g id="New_icons">
		<g>
			<path d="M12,18c0-1.654,1.346-3,3-3h3.37c-0.55-1.06-1.934-1.381-6.37-3v-1.782c0.486-0.325,1.381-1.158,1.489-2.928
				c0.367-0.23,0.597-0.727,0.597-1.361c0-0.558-0.178-1.009-0.471-1.266c0.243-0.636,0.645-1.749,0.369-2.854
				C13.653,0.474,11.766,0,10.25,0C8.908,0,7.273,0.372,6.687,1.384c-0.7-0.04-1.088,0.26-1.277,0.511
				C4.891,2.585,5.132,3.668,5.412,4.64C5.083,4.889,4.88,5.361,4.88,5.946c0,0.643,0.244,1.117,0.63,1.344
				C5.62,9.06,6.514,9.893,7,10.218V12c-4.748,1.732-6,1.979-6.475,3.234C0.032,16.722,0,19.361,0,19.5C0,19.776,0.224,20,0.5,20H12
				V18z"/>
			<path d="M22,16h-7c-1.103,0-2,0.897-2,2v4c0,1.103,0.897,2,2,2h7c1.103,0,2-0.897,2-2v-4C24,16.897,23.103,16,22,16z
				 M21.854,21.854c-0.195,0.195-0.512,0.195-0.707,0l-1.313-1.313l-1.013,0.844c-0.185,0.154-0.455,0.154-0.641,0l-1.013-0.844
				l-1.313,1.313c-0.195,0.195-0.512,0.195-0.707,0c-0.195-0.195-0.195-0.512,0-0.707l1.249-1.249l-1.216-1.014
				c-0.212-0.177-0.241-0.492-0.064-0.704c0.177-0.211,0.492-0.241,0.705-0.064l2.68,2.233l2.68-2.233
				c0.212-0.178,0.528-0.147,0.705,0.064c0.177,0.212,0.148,0.527-0.064,0.704l-1.216,1.014l1.249,1.249
				C22.049,21.342,22.049,21.658,21.854,21.854z"/>
		</g>
	</g>
</g>
<g id="Invisible_Shape">
	<rect fill="none" width="24" height="24"/>
</g>
</svg>
