<?xml version="1.0" encoding="utf-8"?>
<!-- Generator: Adobe Illustrator 19.2.1, SVG Export Plug-In . SVG Version: 6.00 Build 0)  -->
<svg version="1.1" xmlns="http://www.w3.org/2000/svg" xmlns:xlink="http://www.w3.org/1999/xlink" x="0px" y="0px" width="24px"
	 height="24px" viewBox="0 0 24 24" enable-background="new 0 0 24 24" xml:space="preserve">
<g id="Filled_Icons_1_">
	<g id="Filled_Icons">
		<g>
			<g>
				<path d="M6.879,5.5c1.308,0,2.861-0.776,3.322-1.661c0.084-0.162,0.251-0.265,0.434-0.269c0.226,0.014,0.354,0.093,0.444,0.252
					c0.854,1.494,1.755,1.967,3.206,1.687c0.032-0.007,0.543-0.134,1.113-0.275C14.898,2.254,12.67,0,10.004,0
					c-2.54,0-4.678,2.049-5.307,4.819C5.601,5.375,6.243,5.5,6.879,5.5z"/>
				<path d="M12.004,18.5c0-1.585,0.572-3.038,1.518-4.168l-0.518-0.184v-2.206c1.503-1.162,2.594-3.348,2.489-5.704
					c-0.839,0.294-1.655,0.348-1.948,0.348c-1.194,0-2.134-0.525-2.931-1.635C9.76,5.847,8.253,6.5,6.879,6.5
					c-0.783,0-1.434-0.141-2.348-0.628c-0.183,2.784,0.97,4.907,2.473,6.069v2.206l-4.678,1.671
					c-1.389,0.496-2.322,1.821-2.322,3.296V21.5c0,0.276,0.224,0.5,0.5,0.5h12.531C12.386,20.988,12.004,19.789,12.004,18.5z"/>
			</g>
			<g>
				<path d="M18.5,13c-3.032,0-5.5,2.467-5.5,5.5s2.468,5.5,5.5,5.5s5.5-2.467,5.5-5.5S21.532,13,18.5,13z M15.231,17.346
					c0.494-1.394,1.819-2.33,3.299-2.33c0.93,0,1.83,0.367,2.499,0.959V15.85c0-0.277,0.224-0.5,0.5-0.5c0.276,0,0.5,0.223,0.5,0.5
					v1.665c0,0.276-0.224,0.5-0.5,0.5h-1.666c-0.276,0-0.5-0.224-0.5-0.5c0-0.276,0.224-0.5,0.5-0.5h0.795
					c-0.489-0.604-1.291-0.999-2.128-0.999c-1.057,0-2.003,0.67-2.355,1.664c-0.073,0.205-0.266,0.333-0.472,0.333
					c-0.056,0-0.111-0.009-0.167-0.028C15.276,17.892,15.14,17.605,15.231,17.346z M22.162,19.658
					c-0.494,1.393-1.82,2.33-3.299,2.33c-0.93,0-1.829-0.368-2.499-0.959v0.125c0,0.277-0.224,0.5-0.5,0.5
					c-0.276,0-0.5-0.223-0.5-0.5v-1.665c0-0.276,0.224-0.5,0.5-0.5h1.666c0.276,0,0.5,0.224,0.5,0.5c0,0.276-0.224,0.5-0.5,0.5
					h-0.795c0.489,0.604,1.292,0.999,2.128,0.999c1.057,0,2.003-0.67,2.355-1.664c0.094-0.26,0.383-0.396,0.639-0.305
					C22.118,19.112,22.254,19.398,22.162,19.658z"/>
			</g>
		</g>
	</g>
	<g id="New_icons">
	</g>
</g>
<g id="Invisible_Shape">
	<rect fill="none" width="24" height="24"/>
</g>
</svg>
