<?xml version="1.0" encoding="utf-8"?>
<!-- Generator: Adobe Illustrator 19.2.1, SVG Export Plug-In . SVG Version: 6.00 Build 0)  -->
<svg version="1.1" xmlns="http://www.w3.org/2000/svg" xmlns:xlink="http://www.w3.org/1999/xlink" x="0px" y="0px" width="24px"
	 height="24px" viewBox="0 0 24 24" enable-background="new 0 0 24 24" xml:space="preserve">
<g id="Filled_Icons_1_">
	<g id="Filled_Icons">
	</g>
	<g id="New_icons">
		<g>
			<g>
				<path d="M6.875,5.5c1.308,0,2.861-0.776,3.322-1.661c0.084-0.162,0.251-0.265,0.434-0.269c0.226,0.014,0.353,0.093,0.444,0.252
					c0.853,1.494,1.755,1.967,3.206,1.687c0.032-0.007,0.543-0.134,1.113-0.275C14.894,2.254,12.666,0,10,0
					C7.46,0,5.322,2.049,4.693,4.819C5.596,5.375,6.239,5.5,6.875,5.5z"/>
				<g>
					<path d="M14,14.505l-1-0.357v-2.206c1.503-1.162,2.594-3.348,2.489-5.704c-0.839,0.294-1.655,0.348-1.948,0.348
						c-1.194,0-2.134-0.525-2.931-1.635C9.756,5.847,8.249,6.5,6.875,6.5c-0.783,0-1.434-0.141-2.348-0.628
						C4.344,8.656,5.497,10.779,7,11.941v2.206l-4.678,1.671C0.933,16.315,0,17.64,0,19.114V21.5C0,21.776,0.224,22,0.5,22H14
						V14.505z"/>
				</g>
			</g>
			<path d="M23.729,14.389c-0.167-0.086-0.368-0.072-0.52,0.037c-0.345,0.246-1.396,0.884-2.102,0.884c-0.212,0-0.607,0-0.607-0.977
				c0-1.165-0.607-1.833-1.667-1.833c-1.468,0-3.524,1.359-3.611,1.417C15.083,14.01,15,14.166,15,14.333v9.152
				c0,0.276,0.224,0.5,0.5,0.5s0.5-0.224,0.5-0.5v-3.379c0.656-0.403,1.978-1.107,2.833-1.107c0.337,0,0.667,0.064,0.667,0.833
				c0,1.943,1.313,2.153,1.877,2.153h0c1.1,0,2.319-0.689,2.37-0.719C23.904,21.177,24,21.012,24,20.832v-5.999
				C24,14.646,23.896,14.475,23.729,14.389z"/>
		</g>
	</g>
</g>
<g id="Invisible_Shape">
	<rect fill="none" width="24" height="24"/>
</g>
</svg>
