<?xml version="1.0" encoding="utf-8"?>
<!-- Generator: Adobe Illustrator 19.2.1, SVG Export Plug-In . SVG Version: 6.00 Build 0)  -->
<svg version="1.1" xmlns="http://www.w3.org/2000/svg" xmlns:xlink="http://www.w3.org/1999/xlink" x="0px" y="0px" width="24px"
	 height="24px" viewBox="0 0 24 24" enable-background="new 0 0 24 24" xml:space="preserve">
<g id="Filled_Icons_1_">
	<g id="Filled_Icons">
		<g>
			<path d="M12,18.499c0-2.275,1.177-4.277,2.952-5.439c-0.793-0.286-1.763-0.627-2.952-1.061v-1.782
				c0.486-0.325,1.381-1.158,1.489-2.928c0.367-0.231,0.597-0.727,0.597-1.361c0-0.558-0.178-1.009-0.471-1.266
				c0.243-0.636,0.645-1.749,0.369-2.854c-0.332-1.335-2.219-1.809-3.735-1.809c-1.342,0-2.977,0.372-3.563,1.384
				c-0.7-0.04-1.088,0.26-1.277,0.511c-0.519,0.69-0.277,1.773,0.002,2.745C5.083,4.888,4.88,5.36,4.88,5.945
				c0,0.643,0.244,1.117,0.63,1.344C5.62,9.059,6.514,9.892,7,10.217v1.782c-4.748,1.732-6,1.979-6.475,3.234
				C0.032,16.721,0,19.36,0,19.499c0,0.276,0.224,0.5,0.5,0.5h11.682C12.067,19.517,12,19.017,12,18.499z"/>
			<path d="M18.5,13c-3.033,0-5.5,2.468-5.5,5.5c0,3.033,2.467,5.5,5.5,5.5s5.5-2.467,5.5-5.5C24,15.468,21.533,13,18.5,13z
				 M20.5,20h-2c-0.276,0-0.5-0.224-0.5-0.5V16c0-0.276,0.224-0.5,0.5-0.5S19,15.724,19,16v3h1.5c0.276,0,0.5,0.224,0.5,0.5
				S20.776,20,20.5,20z"/>
		</g>
	</g>
	<g id="New_icons">
	</g>
</g>
<g id="Invisible_Shape">
	<rect fill="none" width="24" height="24"/>
</g>
</svg>
