<?xml version="1.0" encoding="utf-8"?>
<!-- Generator: Adobe Illustrator 19.2.1, SVG Export Plug-In . SVG Version: 6.00 Build 0)  -->
<svg version="1.1" xmlns="http://www.w3.org/2000/svg" xmlns:xlink="http://www.w3.org/1999/xlink" x="0px" y="0px" width="24px"
	 height="24px" viewBox="0 0 24 24" enable-background="new 0 0 24 24" xml:space="preserve">
<g id="Filled_Icons_1_">
	<g id="Filled_Icons">
	</g>
	<g id="New_icons">
		<g>
			<path d="M15.2,19.254c-0.26-0.449-0.267-0.992-0.02-1.455l2.144-3.762C16.401,13.533,14.819,13.029,12,12v-1.782
				c0.486-0.325,1.381-1.158,1.489-2.928c0.367-0.23,0.597-0.727,0.597-1.361c0-0.558-0.178-1.009-0.471-1.266
				c0.243-0.636,0.645-1.749,0.369-2.854C13.653,0.474,11.766,0,10.25,0C8.908,0,7.273,0.372,6.687,1.384
				c-0.7-0.04-1.088,0.26-1.277,0.511C4.891,2.585,5.132,3.668,5.412,4.64C5.083,4.889,4.88,5.361,4.88,5.946
				c0,0.643,0.244,1.117,0.63,1.344C5.62,9.06,6.514,9.893,7,10.218V12c-4.748,1.732-6,1.979-6.475,3.234
				C0.032,16.722,0,19.361,0,19.5C0,19.776,0.224,20,0.5,20h15.997C15.964,20,15.468,19.714,15.2,19.254z"/>
			<path d="M16.064,18.751C16.154,18.905,16.318,19,16.497,19h2.5v4.5c0,0.227,0.152,0.426,0.372,0.483
				c0.219,0.058,0.449-0.038,0.562-0.235l4-7c0.089-0.154,0.087-0.346-0.002-0.499C23.839,16.095,23.675,16,23.497,16h-2.5v-4.5
				c0-0.227-0.152-0.426-0.372-0.483c-0.219-0.058-0.449,0.038-0.562,0.235l-4,7.018C15.984,18.416,15.974,18.596,16.064,18.751z"/>
		</g>
	</g>
</g>
<g id="Invisible_Shape">
	<rect fill="none" width="24" height="24"/>
</g>
</svg>
