<?xml version="1.0" encoding="utf-8"?>
<!-- Generator: Adobe Illustrator 19.2.1, SVG Export Plug-In . SVG Version: 6.00 Build 0)  -->
<svg version="1.1" xmlns="http://www.w3.org/2000/svg" xmlns:xlink="http://www.w3.org/1999/xlink" x="0px" y="0px" width="24px"
	 height="24px" viewBox="0 0 24 24" enable-background="new 0 0 24 24" xml:space="preserve">
<g id="Filled_Icons_1_">
	<g id="Filled_Icons">
		<g>
			<path d="M6.875,5.5c1.308,0,2.861-0.776,3.322-1.661c0.084-0.162,0.251-0.265,0.434-0.269c0.226,0.014,0.353,0.093,0.444,0.252
				c0.853,1.494,1.755,1.967,3.206,1.687c0.032-0.007,0.543-0.134,1.113-0.275C14.894,2.254,12.666,0,10,0
				C7.46,0,5.322,2.049,4.693,4.819C5.596,5.375,6.239,5.5,6.875,5.5z"/>
			<path d="M13,17.803c0-1.392,0.601-2.458,1.442-3.141L13,14.148v-2.206c1.503-1.162,2.594-3.348,2.489-5.704
				c-0.839,0.294-1.655,0.348-1.948,0.348c-1.194,0-2.134-0.525-2.931-1.635C9.756,5.847,8.249,6.5,6.875,6.5
				c-0.783,0-1.434-0.141-2.348-0.628C4.344,8.656,5.497,10.779,7,11.941v2.206l-4.678,1.671C0.933,16.315,0,17.64,0,19.114V21.5
				C0,21.776,0.224,22,0.5,22h14.572C13.958,20.76,13,19.269,13,17.803z"/>
			<path d="M21.272,14.818c-0.771,0-1.674,0.38-2.272,1.368c-0.599-0.988-1.501-1.368-2.272-1.368c-1.341,0-2.728,1.117-2.728,2.984
				c0,2.604,4.225,5.752,4.706,6.102C18.794,23.969,18.896,24,19,24s0.206-0.031,0.294-0.096C19.775,23.555,24,20.407,24,17.803
				C24,15.936,22.613,14.818,21.272,14.818z"/>
		</g>
	</g>
	<g id="New_icons">
	</g>
</g>
<g id="Invisible_Shape">
	<rect fill="none" width="24" height="24"/>
</g>
</svg>
