<?xml version="1.0" encoding="utf-8"?>
<!-- Generator: Adobe Illustrator 19.2.1, SVG Export Plug-In . SVG Version: 6.00 Build 0)  -->
<svg version="1.1" xmlns="http://www.w3.org/2000/svg" xmlns:xlink="http://www.w3.org/1999/xlink" x="0px" y="0px" width="24px"
	 height="24px" viewBox="0 0 24 24" enable-background="new 0 0 24 24" xml:space="preserve">
<g id="Filled_Icons_1_">
	<g id="Filled_Icons">
		<g>
			<g>
				<path d="M6.875,5.5c1.308,0,2.861-0.776,3.322-1.661c0.084-0.162,0.251-0.265,0.434-0.269c0.226,0.014,0.353,0.093,0.444,0.252
					c0.853,1.494,1.755,1.967,3.206,1.687c0.032-0.007,0.543-0.134,1.113-0.275C14.894,2.254,12.666,0,10,0
					C7.46,0,5.322,2.049,4.693,4.819C5.596,5.375,6.239,5.5,6.875,5.5z"/>
				<path d="M13.055,20.826c-0.034-0.123-0.053-0.258-0.053-0.394L13,11.941c1.503-1.162,2.594-3.348,2.489-5.704
					c-0.839,0.294-1.655,0.348-1.948,0.348c-1.194,0-2.134-0.525-2.931-1.635C9.756,5.847,8.249,6.5,6.875,6.5
					c-0.783,0-1.434-0.141-2.348-0.628C4.344,8.656,5.497,10.779,7,11.941v2.206l-4.678,1.671C0.933,16.315,0,17.64,0,19.114V21.5
					C0,21.776,0.224,22,0.5,22h13.128C13.229,21.406,13.086,20.941,13.055,20.826z"/>
			</g>
			<path d="M22.733,14.065c-0.165-0.087-0.364-0.074-0.518,0.034c-0.653,0.456-1.183,0.659-1.718,0.659
				c-0.634,0-1.216-0.28-1.597-0.768c-0.19-0.241-0.605-0.241-0.794,0c-0.382,0.487-0.964,0.768-1.598,0.768
				c-0.535,0-1.065-0.203-1.72-0.66c-0.153-0.106-0.353-0.12-0.518-0.033s-0.269,0.257-0.269,0.443v5.924
				c0,0.045,0.006,0.089,0.018,0.133c0.026,0.098,0.697,2.394,4.347,3.416C18.411,23.993,18.456,24,18.502,24
				c0.045,0,0.091-0.007,0.135-0.019c3.65-1.022,4.321-3.318,4.347-3.416c0.012-0.044,0.018-0.088,0.018-0.133v-5.924
				C23.002,14.322,22.898,14.151,22.733,14.065z M20.521,19h-1.518v1.466c0,0.276-0.224,0.5-0.5,0.5c-0.276,0-0.5-0.224-0.5-0.5V19
				h-1.523c-0.276,0-0.5-0.224-0.5-0.5s0.224-0.5,0.5-0.5h1.523v-1.521c0-0.276,0.224-0.5,0.5-0.5c0.276,0,0.5,0.224,0.5,0.5V18
				h1.518c0.276,0,0.5,0.224,0.5,0.5S20.797,19,20.521,19z"/>
		</g>
	</g>
	<g id="New_icons">
	</g>
</g>
<g id="Invisible_Shape">
	<rect fill="none" width="24" height="24"/>
</g>
</svg>
