<?xml version="1.0" encoding="utf-8"?>
<!-- Generator: Adobe Illustrator 19.2.1, SVG Export Plug-In . SVG Version: 6.00 Build 0)  -->
<svg version="1.1" xmlns="http://www.w3.org/2000/svg" xmlns:xlink="http://www.w3.org/1999/xlink" x="0px" y="0px" width="24px"
	 height="24px" viewBox="0 0 24 24" enable-background="new 0 0 24 24" xml:space="preserve">
<g id="Filled_Icons_1_">
	<g id="Filled_Icons">
		<g>
			<path d="M6.875,5.5c1.308,0,2.861-0.776,3.322-1.661c0.084-0.162,0.251-0.265,0.434-0.269c0.226,0.014,0.353,0.093,0.444,0.252
				c0.853,1.494,1.755,1.967,3.206,1.687c0.032-0.007,0.543-0.134,1.113-0.275C14.894,2.254,12.666,0,10,0
				C7.46,0,5.322,2.049,4.693,4.819C5.596,5.375,6.239,5.5,6.875,5.5z"/>
			<path d="M13.058,19.588c0.07-0.245,0.202-0.469,0.382-0.648l3.415-3.415L13,14.148v-2.206c1.503-1.162,2.594-3.348,2.489-5.704
				c-0.839,0.294-1.655,0.348-1.948,0.348c-1.194,0-2.134-0.525-2.931-1.635C9.756,5.847,8.249,6.5,6.875,6.5
				c-0.783,0-1.434-0.141-2.348-0.628C4.344,8.656,5.497,10.779,7,11.941v2.206l-4.678,1.671C0.933,16.315,0,17.64,0,19.114V21.5
				C0,21.776,0.224,22,0.5,22h11.868L13.058,19.588z"/>
			<g>
				<rect x="15.258" y="16.723" transform="matrix(0.7071 -0.7071 0.7071 0.7071 -8.1739 18.2473)" width="5.364" height="4.536"/>
				<path d="M23.793,15.636l-2.501-2.499c-0.195-0.195-0.512-0.195-0.707,0l-1.645,1.648l3.207,3.206l1.646-1.647
					C23.988,16.147,23.988,15.831,23.793,15.636z"/>
				<path d="M16.786,23.066L13.87,20.15l-0.911,3.225c-0.047,0.168-0.012,0.353,0.121,0.484c0.131,0.131,0.314,0.166,0.482,0.122
					L16.786,23.066z"/>
			</g>
		</g>
	</g>
	<g id="New_icons">
	</g>
</g>
<g id="Invisible_Shape">
	<rect fill="none" width="24" height="24"/>
</g>
</svg>
