<?xml version="1.0" encoding="utf-8"?>
<!-- Generator: Adobe Illustrator 19.2.1, SVG Export Plug-In . SVG Version: 6.00 Build 0)  -->
<svg version="1.1" xmlns="http://www.w3.org/2000/svg" xmlns:xlink="http://www.w3.org/1999/xlink" x="0px" y="0px" width="24px"
	 height="24px" viewBox="0 0 24 24" enable-background="new 0 0 24 24" xml:space="preserve">
<g id="Filled_Icons_1_">
	<g id="Filled_Icons">
		<g>
			<path d="M13,18c0-2.033,1.225-3.78,2.972-4.561C15.034,13.079,13.758,12.642,12,12v-1.782c0.486-0.325,1.381-1.158,1.489-2.928
				c0.367-0.23,0.597-0.727,0.597-1.361c0-0.558-0.178-1.009-0.471-1.266c0.243-0.636,0.645-1.749,0.369-2.854
				C13.653,0.474,11.766,0,10.25,0C8.908,0,7.273,0.372,6.687,1.384c-0.7-0.04-1.088,0.26-1.277,0.511
				C4.891,2.585,5.132,3.668,5.412,4.64C5.083,4.889,4.88,5.361,4.88,5.946c0,0.643,0.244,1.117,0.63,1.344
				C5.62,9.06,6.514,9.893,7,10.218V12c-4.748,1.732-6,1.979-6.475,3.234C0.032,16.722,0,19.361,0,19.5C0,19.776,0.224,20,0.5,20
				h12.924C13.154,19.387,13,18.712,13,18z"/>
			<path d="M23.854,23.146l-2.707-2.706C21.673,19.763,22,18.923,22,18c0-2.205-1.794-4-4-4s-4,1.795-4,4s1.794,4,4,4
				c0.923,0,1.762-0.326,2.44-0.852l2.707,2.705c0.195,0.195,0.512,0.195,0.707,0C24.049,23.658,24.049,23.342,23.854,23.146z
				 M15,18c0-1.654,1.346-3,3-3s3,1.346,3,3s-1.346,3-3,3S15,19.654,15,18z"/>
		</g>
	</g>
	<g id="New_icons">
	</g>
</g>
<g id="Invisible_Shape">
	<rect fill="none" width="24" height="24"/>
</g>
</svg>
