<?xml version="1.0" encoding="utf-8"?>
<!-- Generator: Adobe Illustrator 19.2.1, SVG Export Plug-In . SVG Version: 6.00 Build 0)  -->
<svg version="1.1" xmlns="http://www.w3.org/2000/svg" xmlns:xlink="http://www.w3.org/1999/xlink" x="0px" y="0px" width="24px"
	 height="24px" viewBox="0 0 24 24" enable-background="new 0 0 24 24" xml:space="preserve">
<g id="Filled_Icons_1_">
	<g id="Filled_Icons">
		<g>
			<path d="M6.875,5.5c1.308,0,2.861-0.776,3.322-1.661c0.084-0.162,0.251-0.265,0.434-0.269c0.226,0.014,0.353,0.093,0.444,0.252
				c0.853,1.494,1.755,1.967,3.206,1.687c0.032-0.007,0.543-0.134,1.113-0.275C14.894,2.254,12.666,0,10,0
				C7.46,0,5.322,2.049,4.693,4.819C5.596,5.375,6.239,5.5,6.875,5.5z"/>
			<path d="M12.803,21.133c-0.398-0.696-0.25-1.589,0.695-2.134c-0.965-0.557-1.087-1.456-0.694-2.135l0.999-1.731
				c0.127-0.218,0.312-0.387,0.524-0.511L13,14.148v-2.206c1.503-1.162,2.594-3.348,2.489-5.704
				c-0.839,0.294-1.655,0.348-1.948,0.348c-1.194,0-2.134-0.525-2.931-1.635C9.756,5.847,8.249,6.5,6.875,6.5
				c-0.783,0-1.434-0.141-2.348-0.628C4.344,8.656,5.497,10.779,7,11.941v2.206l-4.678,1.671C0.933,16.315,0,17.64,0,19.114V21.5
				C0,21.776,0.224,22,0.5,22h12.804L12.803,21.133z"/>
			<path d="M23.147,19.951l-0.702-0.406c0.073-0.541,0.073-0.547,0-1.092l0.702-0.404c0.239-0.138,0.319-0.443,0.183-0.684
				l-1.001-1.732c-0.137-0.239-0.443-0.322-0.683-0.184l-0.702,0.406c-0.288-0.226-0.601-0.419-0.944-0.559V14.5
				c0-0.276-0.224-0.5-0.5-0.5h-2c-0.276,0-0.5,0.224-0.5,0.5v0.797c-0.344,0.14-0.656,0.334-0.945,0.559l-0.701-0.404
				c-0.24-0.139-0.545-0.057-0.684,0.182l-1,1.732c-0.139,0.239-0.057,0.546,0.184,0.684l0.701,0.405
				c-0.073,0.54-0.074,0.548,0,1.09l-0.702,0.405c-0.239,0.139-0.32,0.444-0.184,0.684l1.001,1.732
				c0.137,0.239,0.443,0.321,0.684,0.184l0.7-0.405c0.289,0.226,0.602,0.42,0.946,0.559V23.5c0,0.276,0.224,0.5,0.5,0.5h2
				c0.276,0,0.5-0.224,0.5-0.5v-0.797c0.345-0.14,0.657-0.334,0.946-0.559l0.701,0.404c0.239,0.138,0.544,0.056,0.683-0.184l1-1.732
				C23.469,20.395,23.387,20.088,23.147,19.951z M18.5,21c-1.104,0-2-0.896-2-2s0.896-2,2-2s2,0.896,2,2S19.604,21,18.5,21z"/>
		</g>
	</g>
	<g id="New_icons">
	</g>
</g>
<g id="Invisible_Shape">
	<rect fill="none" width="24" height="24"/>
</g>
</svg>
