<?xml version="1.0" encoding="utf-8"?>
<!-- Generator: Adobe Illustrator 19.2.1, SVG Export Plug-In . SVG Version: 6.00 Build 0)  -->
<svg version="1.1" xmlns="http://www.w3.org/2000/svg" xmlns:xlink="http://www.w3.org/1999/xlink" x="0px" y="0px" width="24px"
	 height="24px" viewBox="0 0 24 24" enable-background="new 0 0 24 24" xml:space="preserve">
<g id="Filled_Icons_1_">
	<g id="Filled_Icons">
	</g>
	<g id="New_icons">
		<g>
			<path d="M14,15.498c0-0.827,0.673-1.5,1.5-1.5h1.753C16.32,13.508,14.748,13.002,12,12v-1.782
				c0.486-0.325,1.381-1.158,1.489-2.928c0.367-0.23,0.597-0.727,0.597-1.361c0-0.558-0.178-1.009-0.471-1.266
				c0.243-0.636,0.645-1.749,0.369-2.854C13.653,0.474,11.766,0,10.25,0C8.908,0,7.273,0.372,6.687,1.384
				c-0.7-0.04-1.088,0.26-1.277,0.511C4.891,2.585,5.132,3.668,5.412,4.64C5.083,4.889,4.88,5.361,4.88,5.946
				c0,0.643,0.244,1.117,0.63,1.344C5.62,9.06,6.514,9.893,7,10.218V12c-4.748,1.732-6,1.979-6.475,3.234
				C0.032,16.722,0,19.361,0,19.5C0,19.776,0.224,20,0.5,20H14V15.498z"/>
			<path d="M23.5,14.998h-8c-0.276,0-0.5,0.224-0.5,0.5v8c0,0.276,0.224,0.5,0.5,0.5h8c0.276,0,0.5-0.224,0.5-0.5v-8
				C24,15.222,23.776,14.998,23.5,14.998z M20.5,21.998H17c-0.276,0-0.5-0.224-0.5-0.5c0-0.276,0.224-0.5,0.5-0.5h3.5
				c0.276,0,0.5,0.224,0.5,0.5C21,21.774,20.776,21.998,20.5,21.998z M22,19.998h-5c-0.276,0-0.5-0.224-0.5-0.5
				c0-0.276,0.224-0.5,0.5-0.5h5c0.276,0,0.5,0.224,0.5,0.5C22.5,19.774,22.276,19.998,22,19.998z M22,17.998h-5
				c-0.276,0-0.5-0.224-0.5-0.5c0-0.276,0.224-0.5,0.5-0.5h5c0.276,0,0.5,0.224,0.5,0.5C22.5,17.774,22.276,17.998,22,17.998z"/>
		</g>
	</g>
</g>
<g id="Invisible_Shape">
	<rect fill="none" width="24" height="24"/>
</g>
</svg>
