<?xml version="1.0" encoding="utf-8"?>
<!-- Generator: Adobe Illustrator 19.2.1, SVG Export Plug-In . SVG Version: 6.00 Build 0)  -->
<svg version="1.1" xmlns="http://www.w3.org/2000/svg" xmlns:xlink="http://www.w3.org/1999/xlink" x="0px" y="0px" width="24px"
	 height="24px" viewBox="0 0 24 24" enable-background="new 0 0 24 24" xml:space="preserve">
<g id="Filled_Icons_1_">
	<g id="Filled_Icons">
		<g>
			<path d="M14,16.5c0-0.659,0.427-1.221,1.019-1.421c0.06-0.645,0.27-1.245,0.574-1.783C14.698,12.963,13.533,12.56,12,12v-1.782
				c0.486-0.325,1.381-1.158,1.489-2.928c0.367-0.23,0.597-0.727,0.597-1.361c0-0.558-0.178-1.009-0.471-1.266
				c0.243-0.636,0.645-1.749,0.369-2.854C13.653,0.474,11.766,0,10.25,0C8.908,0,7.273,0.372,6.687,1.384
				c-0.7-0.04-1.088,0.26-1.277,0.511C4.891,2.585,5.132,3.668,5.412,4.64C5.083,4.889,4.88,5.361,4.88,5.946
				c0,0.643,0.244,1.117,0.63,1.344C5.62,9.06,6.514,9.893,7,10.218V12c-4.748,1.732-6,1.979-6.475,3.234
				C0.032,16.722,0,19.361,0,19.5C0,19.776,0.224,20,0.5,20H14V16.5z"/>
			<path d="M23.5,16H23v-0.5c0-1.93-1.57-3.5-3.5-3.5S16,13.57,16,15.5V16h-0.5c-0.276,0-0.5,0.224-0.5,0.5v7
				c0,0.276,0.224,0.5,0.5,0.5h8c0.276,0,0.5-0.224,0.5-0.5v-7C24,16.224,23.776,16,23.5,16z M17,15.5c0-1.379,1.121-2.5,2.5-2.5
				s2.5,1.121,2.5,2.5V16h-5V15.5z M20,19.847v1.654c0,0.276-0.225,0.5-0.501,0.5c-0.276,0-0.499-0.224-0.499-0.5v-1.654
				c-0.294-0.175-0.5-0.482-0.5-0.847c0-0.552,0.448-1,1-1s1,0.448,1,1C20.5,19.365,20.293,19.672,20,19.847z"/>
		</g>
	</g>
	<g id="New_icons">
	</g>
</g>
<g id="Invisible_Shape">
	<rect fill="none" width="24" height="24"/>
</g>
</svg>
