<?xml version="1.0" encoding="utf-8"?>
<!-- Generator: Adobe Illustrator 19.2.1, SVG Export Plug-In . SVG Version: 6.00 Build 0)  -->
<svg version="1.1" xmlns="http://www.w3.org/2000/svg" xmlns:xlink="http://www.w3.org/1999/xlink" x="0px" y="0px" width="24px"
	 height="24px" viewBox="0 0 24 24" enable-background="new 0 0 24 24" xml:space="preserve">
<g id="Filled_Icons_1_">
	<g id="Filled_Icons">
	</g>
	<g id="New_icons">
		<g>
			<path d="M14.998,16.501c0.588,0,1.159,0.177,1.645,0.5l2.026-1.013c-0.056-0.269-0.119-0.526-0.195-0.754
				C18,13.979,16.748,13.732,12,12v-1.782c0.486-0.325,1.381-1.158,1.489-2.928c0.367-0.23,0.597-0.727,0.597-1.361
				c0-0.558-0.178-1.009-0.471-1.266c0.243-0.636,0.645-1.749,0.369-2.854C13.653,0.474,11.766,0,10.25,0
				C8.908,0,7.273,0.372,6.687,1.384c-0.7-0.04-1.088,0.26-1.277,0.511C4.891,2.585,5.132,3.668,5.412,4.64
				C5.083,4.889,4.88,5.361,4.88,5.946c0,0.643,0.244,1.117,0.63,1.344C5.62,9.06,6.514,9.893,7,10.218V12
				c-4.748,1.732-6,1.979-6.475,3.234C0.032,16.722,0,19.361,0,19.5C0,19.776,0.224,20,0.5,20h11.549
				C11.728,18.104,13.202,16.501,14.998,16.501z"/>
			<path d="M22.672,20.117c-0.854-0.31-1.816,0.048-2.317,0.766l-3.373-1.205c0.016-0.189,0.043-0.267-0.028-0.596l3.543-1.771
				c0.612,0.706,1.596,0.879,2.396,0.478c0.991-0.493,1.392-1.693,0.896-2.684c-0.499-0.999-1.7-1.383-2.683-0.894
				c-0.779,0.39-1.259,1.263-1.056,2.204l-3.552,1.775c-0.366-0.419-0.9-0.69-1.499-0.69c-1.102,0-2,0.897-2,2c0,1.103,0.898,2,2,2
				c0.688,0,1.294-0.349,1.654-0.879l3.361,1.201c-0.088,0.962,0.493,1.771,1.311,2.062c1.044,0.374,2.189-0.18,2.556-1.21
				C24.255,21.628,23.71,20.487,22.672,20.117z M21.552,15.106c0.478-0.239,1.087-0.062,1.341,0.447
				c0.246,0.496,0.047,1.097-0.448,1.342c-0.481,0.243-1.098,0.032-1.339-0.446c-0.001-0.001-0.001-0.001-0.001-0.001
				c0-0.002-0.001-0.002-0.002-0.003C20.855,15.947,21.064,15.35,21.552,15.106z M14.998,20.501c-0.552,0-1-0.448-1-1
				c0-0.552,0.448-1,1-1c0.552,0,1,0.448,1,1C15.998,20.053,15.551,20.501,14.998,20.501z M22.94,22.338
				c-0.18,0.504-0.764,0.787-1.278,0.604c-0.514-0.184-0.789-0.75-0.605-1.272c0.001-0.002,0.003-0.003,0.004-0.005
				c0.001-0.003,0-0.006,0.001-0.009c0.19-0.515,0.76-0.783,1.274-0.598C22.855,21.244,23.127,21.813,22.94,22.338z"/>
		</g>
	</g>
</g>
<g id="Invisible_Shape">
	<rect fill="none" width="24" height="24"/>
</g>
</svg>
