<?xml version="1.0" encoding="utf-8"?>
<!-- Generator: Adobe Illustrator 19.2.1, SVG Export Plug-In . SVG Version: 6.00 Build 0)  -->
<svg version="1.1" xmlns="http://www.w3.org/2000/svg" xmlns:xlink="http://www.w3.org/1999/xlink" x="0px" y="0px" width="24px"
	 height="24px" viewBox="0 0 24 24" enable-background="new 0 0 24 24" xml:space="preserve">
<g id="Filled_Icons_1_">
	<g id="Filled_Icons">
	</g>
	<g id="New_icons">
		<g>
			<g>
				<path d="M6.875,5.5c1.308,0,2.861-0.776,3.322-1.661c0.084-0.162,0.251-0.265,0.434-0.269c0.226,0.014,0.353,0.093,0.444,0.252
					c0.853,1.494,1.755,1.967,3.206,1.687c0.032-0.007,0.543-0.134,1.113-0.275C14.894,2.254,12.666,0,10,0
					C7.46,0,5.322,2.049,4.693,4.819C5.596,5.375,6.239,5.5,6.875,5.5z"/>
				<path d="M18.012,20h-1.5c-0.532,0-1.029-0.286-1.297-0.746c-0.268-0.463-0.269-1.037-0.005-1.499l1.337-2.34L13,14.148v-2.206
					c1.503-1.162,2.594-3.348,2.489-5.704c-0.839,0.294-1.655,0.348-1.948,0.348c-1.194,0-2.134-0.525-2.931-1.635
					C9.756,5.847,8.249,6.5,6.875,6.5c-0.783,0-1.434-0.141-2.348-0.628C4.344,8.656,5.497,10.779,7,11.941v2.206l-4.678,1.671
					C0.933,16.315,0,17.64,0,19.114V21.5C0,21.776,0.224,22,0.5,22h17.512V20z"/>
			</g>
			<path d="M16.067,18.751C16.157,18.905,16.321,19,16.5,19H19v4.5c0,0.227,0.152,0.426,0.372,0.483
				c0.219,0.058,0.449-0.038,0.562-0.235l4-7c0.089-0.154,0.087-0.346-0.002-0.499C23.843,16.095,23.679,16,23.5,16H21v-4.5
				c0-0.227-0.152-0.426-0.372-0.483c-0.219-0.058-0.449,0.038-0.562,0.235l-4,7.018C15.987,18.416,15.977,18.596,16.067,18.751z"/>
		</g>
	</g>
</g>
<g id="Invisible_Shape">
	<rect fill="none" width="24" height="24"/>
</g>
</svg>
