<?xml version="1.0" encoding="utf-8"?>
<!-- Generator: Adobe Illustrator 19.2.1, SVG Export Plug-In . SVG Version: 6.00 Build 0)  -->
<svg version="1.1" xmlns="http://www.w3.org/2000/svg" xmlns:xlink="http://www.w3.org/1999/xlink" x="0px" y="0px" width="24px"
	 height="24px" viewBox="0 0 24 24" enable-background="new 0 0 24 24" xml:space="preserve">
<g id="Filled_Icons_1_">
	<g id="Filled_Icons">
		<g>
			<path d="M18.5,13c-3.037,0-5.5,2.463-5.5,5.5s2.463,5.5,5.5,5.5s5.5-2.463,5.5-5.5S21.537,13,18.5,13z M21.354,17.354l-3,3
				c-0.195,0.195-0.512,0.195-0.707,0l-2-2c-0.195-0.195-0.195-0.512,0-0.707c0.195-0.195,0.512-0.195,0.707,0L18,19.293
				l2.646-2.646c0.195-0.195,0.512-0.195,0.707,0C21.549,16.842,21.549,17.158,21.354,17.354z"/>
			<g>
				<path d="M6.879,5.5c1.308,0,2.861-0.776,3.322-1.661c0.084-0.162,0.251-0.265,0.434-0.269c0.226,0.014,0.354,0.093,0.444,0.252
					c0.854,1.494,1.755,1.967,3.206,1.687c0.032-0.007,0.543-0.134,1.113-0.275C14.898,2.254,12.67,0,10.004,0
					c-2.54,0-4.678,2.049-5.307,4.819C5.601,5.375,6.243,5.5,6.879,5.5z"/>
				<path d="M12.004,18.5c0-1.585,0.572-3.038,1.518-4.168l-0.518-0.184v-2.206c1.503-1.162,2.594-3.348,2.489-5.704
					c-0.839,0.294-1.655,0.348-1.948,0.348c-1.194,0-2.134-0.525-2.931-1.635C9.76,5.847,8.253,6.5,6.879,6.5
					c-0.783,0-1.434-0.141-2.348-0.628c-0.183,2.784,0.97,4.907,2.473,6.069v2.206l-4.678,1.671
					c-1.389,0.496-2.322,1.821-2.322,3.296V21.5c0,0.276,0.224,0.5,0.5,0.5h12.531C12.386,20.988,12.004,19.789,12.004,18.5z"/>
			</g>
			<path d="M18.5,13c-3.033,0-5.5,2.468-5.5,5.5c0,3.033,2.467,5.5,5.5,5.5s5.5-2.467,5.5-5.5C24,15.468,21.533,13,18.5,13z
				 M21.352,17.354l-3.382,3.354l-2.326-2.362c-0.194-0.196-0.191-0.513,0.005-0.707c0.197-0.194,0.513-0.191,0.707,0.005
				l1.622,1.648l2.669-2.647c0.196-0.193,0.513-0.192,0.707,0.004C21.549,16.845,21.548,17.161,21.352,17.354z"/>
		</g>
	</g>
	<g id="New_icons">
	</g>
</g>
<g id="Invisible_Shape">
	<rect fill="none" width="24" height="24"/>
</g>
</svg>
