<?xml version="1.0" encoding="utf-8"?>
<!-- Generator: Adobe Illustrator 19.2.1, SVG Export Plug-In . SVG Version: 6.00 Build 0)  -->
<svg version="1.1" xmlns="http://www.w3.org/2000/svg" xmlns:xlink="http://www.w3.org/1999/xlink" x="0px" y="0px" width="24px"
	 height="24px" viewBox="0 0 24 24" enable-background="new 0 0 24 24" xml:space="preserve">
<g id="Filled_Icons_1_">
	<g id="Filled_Icons">
	</g>
	<g id="New_icons">
		<g>
			<path d="M14,14.348c0-0.503,0.25-0.97,0.668-1.248c0.031-0.021,0.09-0.058,0.141-0.09C14.041,12.733,13.121,12.409,12,12v-1.782
				c0.486-0.325,1.381-1.158,1.489-2.928c0.367-0.23,0.597-0.727,0.597-1.361c0-0.558-0.178-1.009-0.471-1.266
				c0.243-0.636,0.645-1.749,0.369-2.854C13.653,0.474,11.766,0,10.25,0C8.908,0,7.273,0.372,6.687,1.384
				c-0.7-0.04-1.088,0.26-1.277,0.511C4.891,2.585,5.132,3.668,5.412,4.64C5.083,4.889,4.88,5.361,4.88,5.946
				c0,0.643,0.244,1.117,0.63,1.344C5.62,9.06,6.514,9.893,7,10.218V12c-4.748,1.732-6,1.979-6.475,3.234
				C0.032,16.722,0,19.361,0,19.5C0,19.776,0.224,20,0.5,20H14V14.348z"/>
			<path d="M23.729,14.403c-0.167-0.086-0.368-0.072-0.52,0.037c-0.345,0.246-1.396,0.884-2.102,0.884c-0.212,0-0.607,0-0.607-0.976
				c0-1.165-0.607-1.833-1.667-1.833c-1.468,0-3.524,1.359-3.611,1.417C15.083,14.024,15,14.181,15,14.348V23.5
				c0,0.276,0.224,0.5,0.5,0.5s0.5-0.224,0.5-0.5v-3.379c0.656-0.403,1.978-1.107,2.833-1.107c0.337,0,0.667,0.064,0.667,0.833
				C19.5,21.79,20.813,22,21.377,22h0c1.1,0,2.319-0.69,2.37-0.719C23.904,21.191,24,21.026,24,20.847v-5.999
				C24,14.66,23.896,14.489,23.729,14.403z"/>
		</g>
	</g>
</g>
<g id="Invisible_Shape">
	<rect fill="none" width="24" height="24"/>
</g>
</svg>
