<?xml version="1.0" encoding="utf-8"?>
<!-- Generator: Adobe Illustrator 19.2.1, SVG Export Plug-In . SVG Version: 6.00 Build 0)  -->
<svg version="1.1" xmlns="http://www.w3.org/2000/svg" xmlns:xlink="http://www.w3.org/1999/xlink" x="0px" y="0px" width="24px"
	 height="24px" viewBox="0 0 24 24" enable-background="new 0 0 24 24" xml:space="preserve">
<g id="Filled_Icons_1_">
	<g id="Filled_Icons">
		<g>
			<path d="M6.875,5.5c1.308,0,2.861-0.776,3.322-1.661c0.084-0.162,0.251-0.265,0.434-0.269c0.226,0.014,0.353,0.093,0.444,0.252
				c0.853,1.494,1.755,1.967,3.206,1.687c0.032-0.007,0.543-0.134,1.113-0.275C14.894,2.254,12.666,0,10,0
				C7.46,0,5.322,2.049,4.693,4.819C5.596,5.375,6.239,5.5,6.875,5.5z"/>
			<path d="M14.737,19.472l-2.195-1.816c-1.076-0.899-0.444-2.652,0.958-2.652h1.896L13,14.148v-2.206
				c1.503-1.162,2.594-3.348,2.489-5.704c-0.839,0.294-1.655,0.348-1.948,0.348c-1.194,0-2.134-0.525-2.931-1.635
				C9.756,5.847,8.249,6.5,6.875,6.5c-0.783,0-1.434-0.141-2.348-0.628C4.344,8.656,5.497,10.779,7,11.941v2.206l-4.678,1.671
				C0.933,16.315,0,17.64,0,19.114V21.5C0,21.776,0.224,22,0.5,22h13.29L14.737,19.472z"/>
			<path d="M23.97,16.332c-0.071-0.198-0.259-0.328-0.47-0.328h-3.171l-1.369-3.2c-0.079-0.183-0.261-0.304-0.46-0.304
				s-0.381,0.121-0.46,0.304l-1.369,3.2H13.5c-0.211,0-0.398,0.13-0.47,0.328c-0.072,0.198-0.012,0.419,0.149,0.554l2.744,2.27
				l-1.375,3.669c-0.077,0.206-0.011,0.438,0.163,0.572c0.175,0.135,0.415,0.137,0.595,0.011l3.193-2.289l3.193,2.289
				c0.18,0.126,0.42,0.124,0.595-0.011c0.174-0.134,0.24-0.366,0.163-0.572l-1.375-3.669l2.744-2.27
				C23.981,16.751,24.042,16.53,23.97,16.332z"/>
		</g>
	</g>
	<g id="New_icons">
	</g>
</g>
<g id="Invisible_Shape">
	<rect fill="none" width="24" height="24"/>
</g>
</svg>
