<?xml version="1.0" encoding="utf-8"?>
<!-- Generator: Adobe Illustrator 19.2.1, SVG Export Plug-In . SVG Version: 6.00 Build 0)  -->
<svg version="1.1" xmlns="http://www.w3.org/2000/svg" xmlns:xlink="http://www.w3.org/1999/xlink" x="0px" y="0px" width="24px"
	 height="24px" viewBox="0 0 24 24" enable-background="new 0 0 24 24" xml:space="preserve">
<g id="Filled_Icons_1_">
	<g id="Filled_Icons">
	</g>
	<g id="New_icons">
		<g>
			<path d="M6.875,5.5c1.308,0,2.861-0.776,3.322-1.661c0.084-0.162,0.251-0.265,0.434-0.269c0.226,0.014,0.353,0.093,0.444,0.252
				c0.853,1.494,1.755,1.967,3.206,1.687c0.032-0.007,0.543-0.134,1.113-0.275C14.894,2.254,12.666,0,10,0
				C7.46,0,5.322,2.049,4.693,4.819C5.596,5.375,6.239,5.5,6.875,5.5z"/>
			<path d="M11.998,19.499c0-1.654,1.346-3,3-3c0.588,0,1.159,0.177,1.645,0.5l1.699-0.849c-0.547-0.343-0.519-0.279-5.342-2.003
				v-2.206c1.503-1.162,2.594-3.348,2.489-5.704c-0.839,0.294-1.655,0.348-1.948,0.348c-1.194,0-2.134-0.525-2.931-1.635
				C9.756,5.847,8.249,6.5,6.875,6.5c-0.783,0-1.434-0.141-2.348-0.628C4.344,8.656,5.497,10.779,7,11.941v2.206l-4.678,1.671
				C0.933,16.315,0,17.64,0,19.114V21.5C0,21.776,0.224,22,0.5,22h12.848C12.536,21.463,11.998,20.543,11.998,19.499z"/>
			<path d="M22.671,20.115c-0.854-0.309-1.815,0.048-2.317,0.766l-3.373-1.205c0.016-0.19,0.043-0.268-0.028-0.596l3.543-1.77
				c0.612,0.706,1.596,0.879,2.396,0.478c0.991-0.493,1.392-1.693,0.896-2.684c-0.499-0.999-1.7-1.384-2.683-0.894
				c-0.778,0.39-1.259,1.263-1.056,2.204l-3.552,1.775c-0.366-0.419-0.9-0.691-1.499-0.691c-1.102,0-2,0.897-2,2
				c0,1.103,0.898,2,2,2c0.688,0,1.294-0.349,1.654-0.879l3.36,1.2c-0.088,0.962,0.493,1.771,1.311,2.062
				c1.045,0.374,2.189-0.18,2.557-1.21C24.254,21.627,23.709,20.485,22.671,20.115z M21.552,15.104
				c0.478-0.239,1.086-0.061,1.341,0.447c0.246,0.495,0.047,1.097-0.448,1.342c-0.481,0.243-1.099,0.032-1.339-0.446
				c-0.001-0.001-0.001-0.001-0.001-0.001c0-0.002-0.001-0.002-0.002-0.003C20.855,15.945,21.064,15.348,21.552,15.104z
				 M14.998,20.499c-0.552,0-1-0.448-1-1c0-0.552,0.448-1,1-1c0.552,0,1,0.448,1,1C15.998,20.051,15.55,20.499,14.998,20.499z
				 M22.94,22.336c-0.181,0.504-0.765,0.787-1.278,0.604c-0.514-0.184-0.79-0.749-0.605-1.272c0.001-0.002,0.003-0.003,0.004-0.005
				c0.001-0.003,0-0.006,0.001-0.009c0.19-0.515,0.76-0.783,1.273-0.598C22.855,21.242,23.127,21.812,22.94,22.336z"/>
		</g>
	</g>
</g>
<g id="Invisible_Shape">
	<rect fill="none" width="24" height="24"/>
</g>
</svg>
