<?xml version="1.0" encoding="utf-8"?>
<!-- Generator: Adobe Illustrator 19.2.1, SVG Export Plug-In . SVG Version: 6.00 Build 0)  -->
<svg version="1.1" xmlns="http://www.w3.org/2000/svg" xmlns:xlink="http://www.w3.org/1999/xlink" x="0px" y="0px" width="24px"
	 height="24px" viewBox="0 0 24 24" enable-background="new 0 0 24 24" xml:space="preserve">
<g id="Filled_Icons_1_">
	<g id="Filled_Icons">
		<path d="M23.97,16.832c-0.071-0.198-0.259-0.328-0.47-0.328h-3.171l-1.369-3.2C18.881,13.121,18.699,13,18.5,13
			s-0.381,0.121-0.46,0.304l-1.369,3.2H13.5c-0.211,0-0.398,0.13-0.47,0.328c-0.072,0.198-0.012,0.419,0.149,0.554l2.744,2.27
			l-1.375,3.669c-0.077,0.206-0.011,0.438,0.163,0.572c0.175,0.135,0.415,0.137,0.595,0.011l3.193-2.289l3.193,2.289
			c0.18,0.126,0.42,0.124,0.595-0.011c0.174-0.134,0.24-0.366,0.163-0.572l-1.375-3.669l2.744-2.27
			C23.981,17.251,24.042,17.03,23.97,16.832z"/>
		<path d="M14.737,19.972l-2.195-1.816c-0.487-0.407-0.667-1.076-0.452-1.667c0.211-0.588,0.778-0.985,1.409-0.985h2.511
			l0.746-1.744C15.789,13.334,14.311,12.843,12,12v-1.782c0.486-0.325,1.381-1.158,1.489-2.928c0.367-0.23,0.597-0.727,0.597-1.361
			c0-0.558-0.178-1.009-0.471-1.266c0.243-0.636,0.645-1.749,0.369-2.854C13.653,0.474,11.766,0,10.25,0
			C8.908,0,7.273,0.372,6.687,1.384c-0.7-0.04-1.088,0.26-1.277,0.511C4.891,2.585,5.132,3.668,5.412,4.64
			C5.083,4.889,4.88,5.361,4.88,5.946c0,0.643,0.244,1.117,0.63,1.344C5.62,9.06,6.514,9.893,7,10.218V12
			c-4.748,1.732-6,1.979-6.475,3.234C0.032,16.722,0,19.361,0,19.5C0,19.776,0.224,20,0.5,20h14.227L14.737,19.972z"/>
	</g>
	<g id="New_icons">
	</g>
</g>
<g id="Invisible_Shape">
	<rect fill="none" width="24" height="24"/>
</g>
</svg>
