<?xml version="1.0" encoding="utf-8"?>
<!-- Generator: Adobe Illustrator 19.2.1, SVG Export Plug-In . SVG Version: 6.00 Build 0)  -->
<svg version="1.1" xmlns="http://www.w3.org/2000/svg" xmlns:xlink="http://www.w3.org/1999/xlink" x="0px" y="0px" width="24px"
	 height="24px" viewBox="0 0 24 24" enable-background="new 0 0 24 24" xml:space="preserve">
<g id="Filled_Icons_1_">
	<g id="Filled_Icons">
		<g>
			<path d="M11.998,9.002C10.345,9.002,9,10.347,9,11.999c-0.001,0.802,0.311,1.556,0.878,2.123C10.444,14.689,11.198,15,12,15
				c1.653,0,2.998-1.345,2.998-2.998C14.998,10.348,13.652,9.002,11.998,9.002z"/>
			<path d="M19.393,5.697C17.59,3.665,14.999,2.5,12.284,2.5c-4.992,0-9.088,3.873-9.463,8.771L1.828,9.791
				C1.521,9.333,0.898,9.208,0.44,9.519c-0.458,0.308-0.58,0.929-0.272,1.388l2.909,4.301c0.391,0.391,1.023,0.391,1.414,0
				l3.267-3.904c0.354-0.424,0.297-1.054-0.127-1.408C7.207,9.54,6.577,9.597,6.223,10.021l-1.425,1.706
				C4.943,7.719,8.24,4.5,12.284,4.5c2.144,0,4.189,0.92,5.612,2.525c0.367,0.413,0.999,0.449,1.412,0.084
				C19.722,6.743,19.759,6.111,19.393,5.697z"/>
			<path d="M23.83,13.096l-2.909-4.301c-0.391-0.391-1.023-0.391-1.414,0l-3.267,3.904c-0.354,0.424-0.297,1.054,0.127,1.408
				c0.424,0.354,1.054,0.298,1.408-0.127l1.425-1.706c-0.145,4.009-3.442,7.228-7.486,7.228c-2.144,0-4.188-0.92-5.612-2.525
				c-0.366-0.414-1-0.451-1.412-0.084c-0.413,0.366-0.45,0.998-0.084,1.412c1.803,2.032,4.393,3.197,7.108,3.197
				c4.992,0,9.088-3.873,9.463-8.771l0.993,1.48c0.307,0.458,0.93,0.583,1.388,0.273C24.016,14.176,24.138,13.555,23.83,13.096z"/>
		</g>
	</g>
	<g id="New_icons">
	</g>
</g>
<g id="Invisible_Shape">
	<rect fill="none" width="24" height="24"/>
</g>
</svg>
