<?xml version="1.0" encoding="utf-8"?>
<!-- Generator: Adobe Illustrator 19.2.1, SVG Export Plug-In . SVG Version: 6.00 Build 0)  -->
<svg version="1.1" xmlns="http://www.w3.org/2000/svg" xmlns:xlink="http://www.w3.org/1999/xlink" x="0px" y="0px" width="24px"
	 height="24px" viewBox="0 0 24 24" enable-background="new 0 0 24 24" xml:space="preserve">
<g id="Filled_Icons_1_">
	<g id="Filled_Icons">
		<g>
			<path d="M15.332,3.445l-2-3c-0.307-0.46-0.926-0.584-1.387-0.277c-0.46,0.307-0.584,0.928-0.277,1.387L12.631,3H6
				C3.794,3,2,4.795,2,7v10c0,2.205,1.794,4,4,4c0.553,0,1-0.447,1-1s-0.447-1-1-1c-1.102,0-2-0.897-2-2V7c0-1.103,0.898-2,2-2
				h6.631l-0.963,1.445c-0.307,0.459-0.183,1.08,0.277,1.387c0.461,0.307,1.08,0.183,1.387-0.277l2-3
				C15.556,4.219,15.556,3.781,15.332,3.445z"/>
			<path d="M8.668,20.555l2,3c0.307,0.46,0.926,0.584,1.387,0.277c0.46-0.307,0.584-0.928,0.277-1.387L11.369,21H18
				c2.206,0,4-1.795,4-4V7c0-2.205-1.794-4-4-4c-0.553,0-1,0.447-1,1s0.447,1,1,1c1.103,0,2,0.898,2,2v10c0,1.104-0.897,2-2,2
				h-6.631l0.963-1.445c0.307-0.459,0.183-1.08-0.277-1.387c-0.461-0.307-1.08-0.183-1.387,0.277l-2,3
				C8.444,19.781,8.444,20.219,8.668,20.555z"/>
		</g>
	</g>
	<g id="New_icons">
	</g>
</g>
<g id="Invisible_Shape">
	<rect fill="none" width="24" height="24"/>
</g>
</svg>
