<?xml version="1.0" encoding="utf-8"?>
<!-- Generator: Adobe Illustrator 19.2.1, SVG Export Plug-In . SVG Version: 6.00 Build 0)  -->
<svg version="1.1" xmlns="http://www.w3.org/2000/svg" xmlns:xlink="http://www.w3.org/1999/xlink" x="0px" y="0px" width="24px"
	 height="24px" viewBox="0 0 24 24" enable-background="new 0 0 24 24" xml:space="preserve">
<g id="Filled_Icons_1_">
	<g id="Filled_Icons">
		<g>
			<path d="M10,19H2.734l2.913-5.031l0.454,1.777c0.137,0.537,0.681,0.859,1.215,0.723c0.537-0.137,0.859-0.682,0.723-1.216
				c0,0-1.062-4.163-1.064-4.165c-0.142-0.533-0.688-0.852-1.223-0.709c-0.003,0.001-4.143,1.15-4.143,1.15
				c-0.531,0.148-0.843,0.698-0.695,1.232c0.148,0.531,0.699,0.843,1.232,0.694l1.771-0.491l-3.783,6.534
				C-0.252,20.164,0.23,21,1,21h9c0.553,0,1-0.447,1-1S10.553,19,10,19z"/>
			<path d="M18.318,4.53c-0.535-0.136-1.08,0.187-1.217,0.723l-0.455,1.784l-3.785-6.538c-0.357-0.617-1.373-0.617-1.73,0
				L6.635,8.29C6.357,8.768,6.521,9.38,6.999,9.656c0.478,0.278,1.09,0.112,1.366-0.364l3.631-6.296l2.917,5.037l-1.766-0.489
				c-0.532-0.148-1.083,0.164-1.231,0.695c-0.148,0.534,0.164,1.085,0.695,1.231c0,0,4.14,1.148,4.143,1.15
				c0.533,0.142,1.082-0.175,1.223-0.709c0.002-0.004,1.063-4.166,1.063-4.166C19.177,5.213,18.854,4.668,18.318,4.53z"/>
			<path d="M23.865,19.499l-4.437-7.666c-0.276-0.479-0.89-0.644-1.366-0.364c-0.478,0.276-0.642,0.889-0.364,1.366L21.266,19h-5.82
				l1.312-1.285c0.396-0.387,0.401-1.02,0.016-1.414c-0.388-0.396-1.02-0.401-1.414-0.016l-3.063,3c-0.391,0.391-0.391,1.039,0,1.43
				l3.063,3c0.394,0.386,1.026,0.38,1.414-0.016c0.386-0.394,0.38-1.027-0.016-1.414L15.445,21H23
				C23.77,21,24.252,20.164,23.865,19.499z"/>
		</g>
	</g>
	<g id="New_icons">
	</g>
</g>
<g id="Invisible_Shape">
	<rect fill="none" width="24" height="24"/>
</g>
</svg>
