<?xml version="1.0" encoding="utf-8"?>
<!-- Generator: Adobe Illustrator 19.2.1, SVG Export Plug-In . SVG Version: 6.00 Build 0)  -->
<svg version="1.1" xmlns="http://www.w3.org/2000/svg" xmlns:xlink="http://www.w3.org/1999/xlink" x="0px" y="0px" width="24px"
	 height="24px" viewBox="0 0 24 24" enable-background="new 0 0 24 24" xml:space="preserve">
<g id="Filled_Icons_1_">
	<g id="Filled_Icons">
		<g>
			<path d="M6.314,14.006c-0.05-0.55-0.518-0.955-1.086-0.906c-0.55,0.049-0.955,0.535-0.906,1.086l0.236,2.629
				C3.095,15.262,2.26,13.204,2.26,11c0-5.406,4.998-9.445,10.296-8.312c0.547,0.118,1.071-0.228,1.188-0.768
				c0.116-0.54-0.228-1.071-0.768-1.188C6.412-0.679,0.26,4.352,0.26,11c0,2.371,0.79,4.599,2.186,6.404l-1.252-0.246
				c-0.549-0.113-1.068,0.246-1.175,0.787c-0.106,0.542,0.246,1.068,0.788,1.174l4.766,0.938c0.583,0.117,1.246-0.371,1.189-1.071
				L6.314,14.006z"/>
			<path d="M23.723,22.42c0.39-0.391,0.388-1.024-0.004-1.414l-4.106-4.078c-0.001-0.002-0.003-0.002-0.004-0.003
				c0.962-1.586,1.526-3.439,1.526-5.425c0-2.367-0.788-4.593-2.181-6.398l1.353,0.267c0.545,0.105,1.068-0.247,1.175-0.788
				c0.107-0.543-0.246-1.068-0.788-1.175L15.835,2.45c-0.654-0.148-1.301,0.358-1.237,1.061c0,0,0.446,4.979,0.446,4.981
				c0.05,0.551,0.536,0.957,1.087,0.907c0.549-0.05,0.955-0.536,0.906-1.085l-0.24-2.674c1.489,1.56,2.338,3.637,2.338,5.859
				c0,5.385-4.977,9.457-10.316,8.306c-0.539-0.112-1.072,0.226-1.189,0.767c-0.116,0.54,0.227,1.072,0.767,1.188
				c3.672,0.794,7.453-0.409,10.004-3.218l3.908,3.883C22.7,22.815,23.334,22.812,23.723,22.42z"/>
		</g>
	</g>
	<g id="New_icons">
	</g>
</g>
<g id="Invisible_Shape">
	<rect fill="none" width="24" height="24"/>
</g>
</svg>
