<?xml version="1.0" encoding="utf-8"?>
<!-- Generator: Adobe Illustrator 19.2.1, SVG Export Plug-In . SVG Version: 6.00 Build 0)  -->
<svg version="1.1" xmlns="http://www.w3.org/2000/svg" xmlns:xlink="http://www.w3.org/1999/xlink" x="0px" y="0px" width="24px"
	 height="24px" viewBox="0 0 24 24" enable-background="new 0 0 24 24" xml:space="preserve">
<g id="Filled_Icons_1_">
	<g id="Filled_Icons">
		<g>
			<circle cx="13.5" cy="11.5" r="2.5"/>
			<path d="M13.5,1C8.253,1,3.905,4.872,3.134,9.907L1.826,7.945C1.52,7.486,0.9,7.361,0.44,7.668
				c-0.46,0.307-0.584,0.927-0.277,1.387l3.131,4.652c0.391,0.392,1.023,0.391,1.414,0l3.54-4.049
				C8.61,9.243,8.568,8.611,8.152,8.247C7.737,7.884,7.106,7.924,6.741,8.342l-1.632,1.865C5.735,6.134,9.254,3,13.5,3
				c4.687,0,8.5,3.813,8.5,8.5S18.187,20,13.5,20c-0.553,0-1,0.447-1,1s0.447,1,1,1C19.29,22,24,17.29,24,11.5S19.29,1,13.5,1z"/>
		</g>
	</g>
	<g id="New_icons">
	</g>
</g>
<g id="Invisible_Shape">
	<rect fill="none" width="24" height="24"/>
</g>
</svg>
