<?xml version="1.0" encoding="utf-8"?>
<!-- Generator: Adobe Illustrator 19.2.1, SVG Export Plug-In . SVG Version: 6.00 Build 0)  -->
<svg version="1.1" xmlns="http://www.w3.org/2000/svg" xmlns:xlink="http://www.w3.org/1999/xlink" x="0px" y="0px" width="24px"
	 height="24px" viewBox="0 0 24 24" enable-background="new 0 0 24 24" xml:space="preserve">
<g id="Filled_Icons_1_">
	<g id="Filled_Icons">
	</g>
	<g id="New_icons">
		<g>
			<path d="M23.832,11.445c-0.306-0.46-0.927-0.583-1.387-0.277L21,12.131V6c0-2.206-1.794-4-4-4H7C4.794,2,3,3.794,3,6
				c0,0.553,0.447,1,1,1s1-0.447,1-1c0-1.102,0.898-2,2-2h10c1.103,0,2,0.898,2,2v6.131l-1.445-0.963
				c-0.462-0.306-1.082-0.183-1.387,0.277c-0.307,0.46-0.183,1.08,0.277,1.387l3,2c0.336,0.225,0.773,0.225,1.109,0l3-2
				C24.015,12.525,24.139,11.905,23.832,11.445z"/>
			<path d="M20,17c-0.553,0-1,0.447-1,1c0,1.103-0.897,2-2,2H7c-1.102,0-2-0.897-2-2v-6.131l1.445,0.963
				c0.462,0.306,1.082,0.183,1.387-0.277c0.307-0.46,0.183-1.08-0.277-1.387l-3-2c-0.336-0.225-0.773-0.225-1.109,0l-3,2
				c-0.46,0.307-0.584,0.927-0.277,1.387c0.306,0.46,0.927,0.583,1.387,0.277L3,11.869V18c0,2.206,1.794,4,4,4h10
				c2.206,0,4-1.794,4-4C21,17.447,20.553,17,20,17z"/>
		</g>
	</g>
</g>
<g id="Invisible_Shape">
	<rect fill="none" width="24" height="24"/>
</g>
</svg>
