<?xml version="1.0" encoding="utf-8"?>
<!-- Generator: Adobe Illustrator 19.2.1, SVG Export Plug-In . SVG Version: 6.00 Build 0)  -->
<svg version="1.1" xmlns="http://www.w3.org/2000/svg" xmlns:xlink="http://www.w3.org/1999/xlink" x="0px" y="0px" width="24px"
	 height="24px" viewBox="0 0 24 24" enable-background="new 0 0 24 24" xml:space="preserve">
<g id="Filled_Icons_1_">
	<g id="Filled_Icons">
		<g>
			<path d="M13.5,2C8.253,2,3.905,5.872,3.134,10.907L1.826,8.945C1.52,8.486,0.9,8.361,0.44,8.668
				c-0.46,0.307-0.584,0.927-0.277,1.387l3.131,4.652c0.391,0.392,1.023,0.391,1.414,0l3.54-4.049
				c0.363-0.415,0.321-1.047-0.095-1.411C7.737,8.884,7.106,8.924,6.741,9.342l-1.632,1.865C5.735,7.134,9.254,4,13.5,4
				c4.687,0,8.5,3.813,8.5,8.5S18.187,21,13.5,21c-0.553,0-1,0.447-1,1s0.447,1,1,1C19.29,23,24,18.29,24,12.5S19.29,2,13.5,2z"/>
			<g>
				<path d="M18.5,14H13c-0.553,0-1-0.447-1-1V7.5c0-0.553,0.447-1,1-1s1,0.447,1,1V12h4.5c0.553,0,1,0.447,1,1S19.053,14,18.5,14z"
					/>
			</g>
		</g>
	</g>
	<g id="New_icons">
	</g>
</g>
<g id="Invisible_Shape">
	<rect fill="none" width="24" height="24"/>
</g>
</svg>
