<?xml version="1.0" encoding="utf-8"?>
<!-- Generator: Adobe Illustrator 19.2.1, SVG Export Plug-In . SVG Version: 6.00 Build 0)  -->
<svg version="1.1" xmlns="http://www.w3.org/2000/svg" xmlns:xlink="http://www.w3.org/1999/xlink" x="0px" y="0px" width="24px"
	 height="24px" viewBox="0 0 24 24" enable-background="new 0 0 24 24" xml:space="preserve">
<g id="Filled_Icons_1_">
	<g id="Filled_Icons">
		<g>
			<path d="M13,7.019c0-0.553-0.447-1-1-1s-1,0.447-1,1V14c0,0.553,0.447,1,1,1s1-0.447,1-1V7.019z"/>
			<circle cx="12" cy="16.5" r="1"/>
			<g>
				<path d="M19.395,5.195c-1.803-2.032-4.394-3.197-7.108-3.197c-4.992,0-9.088,3.873-9.463,8.771L1.83,9.289
					C1.523,8.831,0.9,8.706,0.442,9.017c-0.458,0.308-0.58,0.929-0.273,1.388l2.909,4.301c0.391,0.391,1.023,0.391,1.414,0
					l3.267-3.904c0.354-0.424,0.297-1.054-0.127-1.408C7.209,9.038,6.579,9.095,6.225,9.519L4.8,11.226
					c0.146-4.009,3.442-7.228,7.486-7.228c2.144,0,4.188,0.92,5.612,2.525c0.367,0.413,0.999,0.449,1.412,0.084
					C19.724,6.241,19.761,5.609,19.395,5.195z"/>
				<path d="M23.832,13.594l-2.909-4.301c-0.391-0.391-1.023-0.391-1.414,0l-3.267,3.904c-0.354,0.424-0.297,1.054,0.127,1.408
					c0.424,0.354,1.054,0.298,1.408-0.127l1.425-1.706C19.057,16.781,15.76,20,11.716,20c-2.144,0-4.189-0.92-5.612-2.525
					c-0.366-0.414-1-0.451-1.412-0.084c-0.413,0.366-0.45,0.998-0.084,1.412C6.41,20.835,9.001,22,11.716,22
					c4.992,0,9.088-3.873,9.463-8.771l0.993,1.479c0.307,0.458,0.93,0.583,1.388,0.272C24.018,14.674,24.14,14.053,23.832,13.594z"
					/>
			</g>
		</g>
	</g>
	<g id="New_icons">
	</g>
</g>
<g id="Invisible_Shape">
	<rect fill="none" width="24" height="24"/>
</g>
</svg>
