<?xml version="1.0" encoding="utf-8"?>
<!-- Generator: Adobe Illustrator 19.2.1, SVG Export Plug-In . SVG Version: 6.00 Build 0)  -->
<svg version="1.1" xmlns="http://www.w3.org/2000/svg" xmlns:xlink="http://www.w3.org/1999/xlink" x="0px" y="0px" width="24px"
	 height="24px" viewBox="0 0 24 24" enable-background="new 0 0 24 24" xml:space="preserve">
<g id="Filled_Icons_1_">
	<g id="Filled_Icons">
		<path d="M13.5,1C8.255,1,3.909,4.869,3.135,9.9L1.832,7.945c-0.306-0.46-0.926-0.584-1.387-0.277
			c-0.46,0.307-0.584,0.927-0.277,1.387l3.08,4.604c0.363,0.416,0.995,0.458,1.41,0.094l3.595-4.094
			c0.363-0.415,0.321-1.047-0.095-1.411C7.744,7.883,7.111,7.924,6.747,8.342l-1.64,1.873C5.731,6.138,9.251,3,13.5,3
			c4.687,0,8.5,3.813,8.5,8.5S18.187,20,13.5,20c-3.298,0-6.326-1.934-7.715-4.926c-0.233-0.5-0.826-0.719-1.328-0.486
			c-0.501,0.232-0.719,0.827-0.486,1.328C5.687,19.612,9.427,22,13.5,22C19.29,22,24,17.29,24,11.5S19.29,1,13.5,1z"/>
	</g>
	<g id="New_icons">
	</g>
</g>
<g id="Invisible_Shape">
	<rect fill="none" width="24" height="24"/>
</g>
</svg>
