<?xml version="1.0" encoding="utf-8"?>
<!-- Generator: Adobe Illustrator 19.2.1, SVG Export Plug-In . SVG Version: 6.00 Build 0)  -->
<svg version="1.1" xmlns="http://www.w3.org/2000/svg" xmlns:xlink="http://www.w3.org/1999/xlink" x="0px" y="0px" width="24px"
	 height="24px" viewBox="0 0 24 24" enable-background="new 0 0 24 24" xml:space="preserve">
<g id="Filled_Icons">
	<g>
		<path d="M23.854,23.146L21,20.293c0.616-0.77,1-1.733,1-2.793c0-2.481-2.018-4.5-4.499-4.5C15.019,13,13,15.019,13,17.5
			c0,2.48,2.019,4.5,4.501,4.5c1.059,0,2.022-0.385,2.792-1l2.854,2.854c0.195,0.194,0.512,0.194,0.707,0
			C24.049,23.659,24.049,23.342,23.854,23.146z M17.501,21C15.57,21,14,19.43,14,17.5c0-1.929,1.57-3.5,3.501-3.5
			C19.43,14,21,15.571,21,17.5C21,19.43,19.43,21,17.501,21z"/>
		<path d="M14.348,22c-4.195-2.949-2.42-9.514,2.652-9.974V5.5c0-0.133-0.053-0.26-0.146-0.353l-5-5C11.76,0.053,11.633,0,11.5,0
			h-11C0.225,0,0,0.224,0,0.5v21C0,21.776,0.225,22,0.5,22H14.348z M11,1l5,5h-5V1z M5.001,5c1.102,0,2,0.897,2,2
			c0,1.102-0.898,2-2,2c-1.103,0-2-0.898-2-2C3.001,5.897,3.898,5,5.001,5z M3.501,18c-0.368,0-0.615-0.387-0.447-0.724l2.5-5
			c0.155-0.307,0.561-0.369,0.801-0.13l1.527,1.528l2.681-4.913c0.212-0.389,0.793-0.329,0.918,0.098l1.601,3.889
			c-1.398,1.3-2.215,3.175-2.056,5.252H3.501z"/>
	</g>
</g>
<g id="Invisible_Shape">
	<rect fill="none" width="24" height="24"/>
</g>
</svg>
