<?xml version="1.0" encoding="utf-8"?>
<!-- Generator: Adobe Illustrator 19.2.1, SVG Export Plug-In . SVG Version: 6.00 Build 0)  -->
<svg version="1.1" xmlns="http://www.w3.org/2000/svg" xmlns:xlink="http://www.w3.org/1999/xlink" x="0px" y="0px" width="24px"
	 height="24px" viewBox="0 0 24 24" enable-background="new 0 0 24 24" xml:space="preserve">
<g id="Filled_Icons">
	<g>
		<circle cx="10.5" cy="15.5" r="2.5"/>
		<path d="M19.854,6.147l-6-6C13.76,0.053,13.633,0,13.5,0h-13C0.225,0,0,0.224,0,0.5v23C0,23.776,0.225,24,0.5,24h19
			c0.275,0,0.5-0.224,0.5-0.5v-17C20,6.367,19.947,6.24,19.854,6.147z M16,18.5c0,0.827-0.673,1.5-1.5,1.5h-9
			C4.673,20,4,19.327,4,18.5v-6C4,11.673,4.673,11,5.5,11v-0.5C5.5,10.224,5.724,10,6,10h0.5C6.776,10,7,10.224,7,10.5V11h1.19
			c0.303-0.606,0.722-1,1.427-1h2.264c0.707,0,1.12,0.39,1.428,1H14.5c0.827,0,1.5,0.673,1.5,1.5V18.5z M13,7V1l6,6H13z"/>
	</g>
</g>
<g id="Invisible_Shape">
	<rect fill="none" width="24" height="24"/>
</g>
</svg>
