<?xml version="1.0" encoding="utf-8"?>
<!-- Generator: Adobe Illustrator 19.2.1, SVG Export Plug-In . SVG Version: 6.00 Build 0)  -->
<svg version="1.1" xmlns="http://www.w3.org/2000/svg" xmlns:xlink="http://www.w3.org/1999/xlink" x="0px" y="0px" width="24px"
	 height="24px" viewBox="0 0 24 24" enable-background="new 0 0 24 24" xml:space="preserve">
<g id="Filled_Icons">
	<path d="M19.854,6.147l-6-6C13.76,0.053,13.633,0,13.5,0h-13C0.225,0,0,0.224,0,0.5v23C0,23.776,0.225,24,0.5,24h19
		c0.276,0,0.5-0.224,0.5-0.5v-17C20,6.367,19.947,6.24,19.854,6.147z M6,19c-2,0-2-2.102-2-3s0-3,2-3
		c1.061,0,1.631,0.429,1.847,1.39c0.061,0.27-0.108,0.537-0.377,0.598c-0.27,0.062-0.538-0.109-0.598-0.378
		C6.767,14.144,6.633,14,6,14c-0.547,0-1,0.15-1,2s0.453,2,1,2c0.231,0,0.731,0,0.932-1H6c-0.276,0-0.5-0.224-0.5-0.5S5.724,16,6,16
		h1.5c0.288,0,0.519,0.245,0.499,0.536C7.853,18.573,6.831,19,6,19z M11,18.5c0,0.276-0.224,0.5-0.5,0.5S10,18.776,10,18.5v-5
		c0-0.276,0.224-0.5,0.5-0.5s0.5,0.224,0.5,0.5V18.5z M15.5,14H14v1h1c0.276,0,0.5,0.224,0.5,0.5S15.276,16,15,16h-1v2.5
		c0,0.276-0.224,0.5-0.5,0.5S13,18.776,13,18.5v-5c0-0.276,0.224-0.5,0.5-0.5h2c0.276,0,0.5,0.224,0.5,0.5S15.776,14,15.5,14z M13,7
		V1l6,6H13z"/>
</g>
<g id="Invisible_Shape">
	<rect fill="none" width="24" height="24"/>
</g>
</svg>
