<?xml version="1.0" encoding="utf-8"?>
<!-- Generator: Adobe Illustrator 19.2.1, SVG Export Plug-In . SVG Version: 6.00 Build 0)  -->
<svg version="1.1" xmlns="http://www.w3.org/2000/svg" xmlns:xlink="http://www.w3.org/1999/xlink" x="0px" y="0px" width="24px"
	 height="24px" viewBox="0 0 24 24" enable-background="new 0 0 24 24" xml:space="preserve">
<g id="Filled_Icons">
	<path d="M19.854,6.147l-6-6C13.76,0.053,13.633,0,13.5,0h-13C0.225,0,0,0.224,0,0.5v23C0,23.776,0.225,24,0.5,24h19
		c0.276,0,0.5-0.224,0.5-0.5v-17C20,6.367,19.947,6.24,19.854,6.147z M5.5,19c-0.919,0-1.683-0.752-1.739-1.712
		c-0.017-0.276,0.193-0.513,0.47-0.529c0.273-0.013,0.512,0.194,0.528,0.469C4.784,17.661,5.11,18,5.5,18
		c0.408,0,0.74-0.37,0.74-0.827c0-0.586-0.351-0.547-0.879-0.692c-1.089-0.204-1.603-0.756-1.603-1.656
		C3.758,13.819,4.539,13,5.5,13c0.917,0,1.681,0.752,1.737,1.71c0.017,0.276-0.193,0.513-0.47,0.529
		c-0.275,0.008-0.512-0.193-0.528-0.469C6.214,14.338,5.889,14,5.5,14c-0.409,0-0.742,0.37-0.742,0.825
		c0,0.446,0.229,0.568,0.713,0.658c1.04,0.197,1.77,0.587,1.77,1.69C7.24,18.181,6.46,19,5.5,19z M11.979,13.644l-1.5,5
		c-0.143,0.474-0.814,0.474-0.957,0l-1.5-5c-0.08-0.264,0.07-0.543,0.335-0.623c0.264-0.078,0.543,0.07,0.622,0.335L10,16.76
		l1.021-3.404c0.079-0.265,0.36-0.412,0.622-0.335C11.908,13.101,12.059,13.379,11.979,13.644z M15,19c-2,0-2-2.102-2-3s0-3,2-3
		c1.06,0,1.631,0.429,1.847,1.39c0.061,0.27-0.108,0.537-0.377,0.598c-0.272,0.061-0.537-0.109-0.598-0.378
		C15.767,14.144,15.633,14,15,14c-0.547,0-1,0.15-1,2s0.453,2,1,2c0.231,0,0.731,0,0.932-1H15c-0.276,0-0.5-0.224-0.5-0.5
		S14.724,16,15,16h1.5c0.288,0,0.52,0.244,0.499,0.536C16.854,18.573,15.831,19,15,19z M13,7V1l6,6H13z"/>
</g>
<g id="Invisible_Shape">
	<rect fill="none" width="24" height="24"/>
</g>
</svg>
