<?xml version="1.0" encoding="utf-8"?>
<!-- Generator: Adobe Illustrator 19.2.1, SVG Export Plug-In . SVG Version: 6.00 Build 0)  -->
<svg version="1.1" xmlns="http://www.w3.org/2000/svg" xmlns:xlink="http://www.w3.org/1999/xlink" x="0px" y="0px" width="24px"
	 height="24px" viewBox="0 0 24 24" enable-background="new 0 0 24 24" xml:space="preserve">
<g id="Filled_Icons">
	<g>
		<path d="M23.5,6h-23C0.224,6,0,6.224,0,6.5v12C0,18.776,0.224,19,0.5,19h23c0.276,0,0.5-0.224,0.5-0.5v-12
			C24,6.224,23.776,6,23.5,6z M6.742,13.001H6v2.497c0,0.277-0.224,0.5-0.5,0.5S5,15.775,5,15.498V9.5C5,9.224,5.224,9,5.5,9h1.242
			C8.294,9,9,10.037,9,11.001C9,11.964,8.294,13.001,6.742,13.001z M14,15.5c0,0.529-0.713,0.693-0.947,0.224L11,11.619V15.5
			c0,0.276-0.224,0.5-0.5,0.5S10,15.776,10,15.5v-6c0-0.529,0.715-0.689,0.947-0.224L13,13.382V9.5C13,9.224,13.224,9,13.5,9
			S14,9.224,14,9.5V15.5z M17,16c-1.374,0-2-1.814-2-3.5c0-2.322,0.673-3.5,2-3.5c1.111,0,1.78,0.469,1.987,1.39
			c0.061,0.27-0.108,0.537-0.377,0.599c-0.271,0.061-0.537-0.11-0.598-0.378C17.94,10.29,17.808,10,17,10c-0.247,0-1,0-1,2.5
			c0,1.355,0.458,2.5,1,2.5c0.774,0,0.966-0.511,0.996-2H17c-0.276,0-0.5-0.224-0.5-0.5S16.724,12,17,12h1.5
			c0.276,0,0.5,0.224,0.5,0.5C19,13.977,19,16,17,16z"/>
		<path d="M6.742,10H6v2.001h0.742c1.167,0,1.258-0.766,1.258-1C8,10.766,7.909,10,6.742,10z"/>
	</g>
</g>
<g id="Invisible_Shape">
	<rect fill="none" width="24" height="24"/>
</g>
</svg>
