<?xml version="1.0" encoding="utf-8"?>
<!-- Generator: Adobe Illustrator 19.2.1, SVG Export Plug-In . SVG Version: 6.00 Build 0)  -->
<svg version="1.1" xmlns="http://www.w3.org/2000/svg" xmlns:xlink="http://www.w3.org/1999/xlink" x="0px" y="0px" width="24px"
	 height="24px" viewBox="0 0 24 24" enable-background="new 0 0 24 24" xml:space="preserve">
<g id="Filled_Icons">
	<path d="M23.5,6h-23C0.224,6,0,6.224,0,6.5v12C0,18.776,0.224,19,0.5,19h23c0.276,0,0.5-0.224,0.5-0.5v-12
		C24,6.224,23.776,6,23.5,6z M8,16c-1.374,0-2-1.814-2-3.5C6,10.178,6.673,9,8,9c1.111,0,1.78,0.469,1.987,1.39
		c0.062,0.27-0.108,0.537-0.377,0.599c-0.272,0.061-0.537-0.11-0.598-0.378C8.939,10.29,8.808,10,8,10c-0.247,0-1,0-1,2.5
		C7,13.855,7.458,15,8,15c0.774,0,0.966-0.511,0.996-2H8c-0.276,0-0.5-0.224-0.5-0.5S7.724,12,8,12h1.5c0.276,0,0.5,0.224,0.5,0.5
		C10,13.977,10,16,8,16z M13,15.5c0,0.276-0.224,0.5-0.5,0.5S12,15.776,12,15.5v-6C12,9.224,12.224,9,12.5,9S13,9.224,13,9.5V15.5z
		 M18,10.001h-2v2h1.5c0.276,0,0.5,0.224,0.5,0.5c0,0.276-0.224,0.5-0.5,0.5H16V15.5c0,0.276-0.224,0.5-0.5,0.5S15,15.776,15,15.5
		V9.501c0-0.276,0.224-0.5,0.5-0.5H18c0.276,0,0.5,0.224,0.5,0.5C18.5,9.777,18.276,10.001,18,10.001z"/>
</g>
<g id="Invisible_Shape">
	<rect fill="none" width="24" height="24"/>
</g>
</svg>
