<?xml version="1.0" encoding="utf-8"?>
<!-- Generator: Adobe Illustrator 19.2.1, SVG Export Plug-In . SVG Version: 6.00 Build 0)  -->
<svg version="1.1" xmlns="http://www.w3.org/2000/svg" xmlns:xlink="http://www.w3.org/1999/xlink" x="0px" y="0px" width="24px"
	 height="24px" viewBox="0 0 24 24" enable-background="new 0 0 24 24" xml:space="preserve">
<g id="Filled_Icons">
	<g>
		<path d="M23.212,11.74c-1.485,1.05-3.184,1.373-4.314-0.065c-0.178-0.229-0.589-0.229-0.776-0.017
			c-0.006,0.006-0.015,0.008-0.02,0.015c-0.97,1.237-2.411,1.293-4.092,0.205c-0.656-0.429-1.009-0.131-1.011,0.269l0,0v7.332
			c0,1.06,2.031,3.421,5.366,4.366c0.011,0.003,0.219,0.012,0.273-0.002C22.154,22.856,24,20.448,24,19.48v-7.332
			C24,11.771,23.531,11.517,23.212,11.74z M21,18h-2v2l0,0l0,0c0,0.276-0.224,0.5-0.5,0.5S18,20.276,18,20l0,0l0,0v-2h-2
			c-0.276,0-0.5-0.224-0.5-0.5S15.724,17,16,17h2v-2c0-0.276,0.224-0.5,0.5-0.5S19,14.724,19,15v2h2c0.276,0,0.5,0.224,0.5,0.5
			S21.276,18,21,18z"/>
		<path d="M16.854,5.147l-5-5C11.76,0.053,11.633,0,11.5,0h-11C0.225,0,0,0.224,0,0.5v21C0,21.776,0.225,22,0.5,22h12.794h0.056
			C12.497,21.115,12,20.194,12,19.452v-7.304c0.006-1.222,1.329-1.912,2.558-1.106c1.019,0.658,1.824,0.801,2.442,0.324v-0.026V5.5
			C17,5.367,16.947,5.24,16.854,5.147z M11,1l5,5h-5V1z M5,5c1.102,0,2,0.897,2,2c0,1.102-0.898,2-2,2S3,8.102,3,7
			C3,5.897,3.898,5,5,5z M11,12.148V18H3.5c-0.37,0-0.614-0.39-0.447-0.724l2.5-5c0.154-0.306,0.561-0.371,0.801-0.13l1.527,1.527
			l2.681-4.913c0.229-0.419,0.76-0.294,0.9,0.049l0.557,1.352C11.403,10.604,11.004,11.318,11,12.148z"/>
	</g>
</g>
<g id="Invisible_Shape">
	<rect fill="none" width="24" height="24"/>
</g>
</svg>
