<?xml version="1.0" encoding="utf-8"?>
<!-- Generator: Adobe Illustrator 19.2.1, SVG Export Plug-In . SVG Version: 6.00 Build 0)  -->
<svg version="1.1" xmlns="http://www.w3.org/2000/svg" xmlns:xlink="http://www.w3.org/1999/xlink" x="0px" y="0px" width="24px"
	 height="24px" viewBox="0 0 24 24" enable-background="new 0 0 24 24" xml:space="preserve">
<g id="Filled_Icons">
	<g>
		<path d="M10.75,14H10v1.5h0.75c0.413,0,0.75-0.336,0.75-0.75S11.163,14,10.75,14z"/>
		<path d="M19.854,6.147l-6-6C13.76,0.053,13.633,0,13.5,0h-13C0.225,0,0,0.224,0,0.5v23C0,23.776,0.225,24,0.5,24h19
			c0.276,0,0.5-0.224,0.5-0.5v-17C20,6.367,19.947,6.24,19.854,6.147z M7,17c0,1.103-0.898,2-2,2s-2-0.897-2-2
			c0-0.276,0.224-0.5,0.5-0.5S4,16.724,4,17c0,0.551,0.448,1,1,1s1-0.449,1-1v-3.5C6,13.224,6.224,13,6.5,13S7,13.224,7,13.5V17z
			 M10.75,16.5H10v1.999c0,0.277-0.224,0.5-0.5,0.5S9,18.775,9,18.499V13.5C9,13.224,9.224,13,9.5,13h1.25
			c0.965,0,1.75,0.785,1.75,1.75S11.715,16.5,10.75,16.5z M15,19c-2,0-2-2.102-2-3s0-3,2-3c1.06,0,1.631,0.429,1.847,1.39
			c0.061,0.27-0.108,0.537-0.377,0.598c-0.272,0.062-0.537-0.109-0.598-0.378C15.767,14.144,15.633,14,15,14c-0.547,0-1,0.15-1,2
			s0.453,2,1,2c0.231,0,0.731,0,0.932-1H15c-0.276,0-0.5-0.224-0.5-0.5S14.724,16,15,16h1.5c0.288,0,0.52,0.245,0.499,0.536
			C16.854,18.573,15.831,19,15,19z M13,7V1l6,6H13z"/>
	</g>
</g>
<g id="Invisible_Shape">
	<rect fill="none" width="24" height="24"/>
</g>
</svg>
