<?xml version="1.0" encoding="utf-8"?>
<!-- Generator: Adobe Illustrator 19.2.1, SVG Export Plug-In . SVG Version: 6.00 Build 0)  -->
<svg version="1.1" xmlns="http://www.w3.org/2000/svg" xmlns:xlink="http://www.w3.org/1999/xlink" x="0px" y="0px" width="24px"
	 height="24px" viewBox="0 0 24 24" enable-background="new 0 0 24 24" xml:space="preserve">
<g id="Filled_Icons">
	<g>
		<path d="M7.272,10H6v2.001C6.011,12,6.021,12,6.031,12h1.24c0.39,0,0.74-0.077,0.74-1C8.012,10.538,7.688,10,7.272,10z"/>
		<path d="M23.5,6h-23C0.224,6,0,6.224,0,6.5v12C0,18.776,0.224,19,0.5,19h23c0.276,0,0.5-0.224,0.5-0.5v-12
			C24,6.224,23.776,6,23.5,6z M9.012,14c0,0.966-0.699,2-1.74,2H5.5C5.224,16,5,15.776,5,15.5v-6C5,9.224,5.224,9,5.5,9h1.772
			c1.041,0,1.74,1.035,1.74,2c0,0.731-0.192,1.201-0.464,1.5C8.819,12.799,9.012,13.269,9.012,14z M15,15.5
			c0,0.276-0.224,0.5-0.5,0.5S14,15.776,14,15.5v-4.349l-1.084,1.626c-0.186,0.278-0.647,0.278-0.832,0L11,11.151V15.5
			c0,0.276-0.224,0.5-0.5,0.5S10,15.776,10,15.5v-6c0-0.488,0.64-0.692,0.916-0.277l1.584,2.376l1.584-2.376
			C14.361,8.807,15,9.014,15,9.5V15.5z M17.742,13.001H17v2.497c0,0.277-0.224,0.5-0.5,0.5s-0.5-0.223-0.5-0.5V9.5
			C16,9.224,16.224,9,16.5,9h1.242C19.294,9,20,10.037,20,11.001C20,11.964,19.294,13.001,17.742,13.001z"/>
		<path d="M7.272,13h-1.24C6.021,13,6.011,13,6,12.998V15h1.272c0.417,0,0.74-0.538,0.74-1C8.012,13.077,7.661,13,7.272,13z"/>
		<path d="M17.742,10H17v2.001h0.742c1.167,0,1.258-0.766,1.258-1C19,10.766,18.909,10,17.742,10z"/>
	</g>
</g>
<g id="Invisible_Shape">
	<rect fill="none" width="24" height="24"/>
</g>
</svg>
