<?xml version="1.0" encoding="utf-8"?>
<!-- Generator: Adobe Illustrator 19.2.1, SVG Export Plug-In . SVG Version: 6.00 Build 0)  -->
<svg version="1.1" xmlns="http://www.w3.org/2000/svg" xmlns:xlink="http://www.w3.org/1999/xlink" x="0px" y="0px" width="24px"
	 height="24px" viewBox="0 0 24 24" enable-background="new 0 0 24 24" xml:space="preserve">
<g id="Filled_Icons">
	<g>
		<g>
			<rect x="14.111" y="16.231" transform="matrix(0.7071 -0.7071 0.7071 0.7071 -7.955 17.7932)" width="6.78" height="4.535"/>
			<path d="M23.855,14.644l-2.5-2.5c-0.195-0.195-0.512-0.195-0.707,0l-1.647,1.648l3.207,3.207l1.647-1.646
				C24.051,15.157,24.051,14.839,23.855,14.644z"/>
			<path d="M15.848,23.065l-2.917-2.917l-0.911,3.226c-0.046,0.168-0.011,0.353,0.121,0.484c0.131,0.131,0.316,0.166,0.483,0.122
				L15.848,23.065z"/>
		</g>
		<path d="M11.366,22l0.689-2.413c0.07-0.245,0.202-0.468,0.382-0.648L17,14.377V5.5c0-0.133-0.053-0.26-0.146-0.353l-5-5
			C11.76,0.053,11.633,0,11.5,0h-11C0.225,0,0,0.224,0,0.5v21C0,21.776,0.225,22,0.5,22H11.366z M11,1l5,5h-5V1z M5.001,5
			c1.102,0,2,0.897,2,2c0,1.102-0.898,2-2,2c-1.103,0-2-0.898-2-2C3.001,5.897,3.898,5,5.001,5z M3.054,17.276l2.5-5
			c0.155-0.307,0.561-0.369,0.801-0.13l1.527,1.528l2.681-4.913c0.212-0.389,0.793-0.329,0.918,0.098l2.807,6.818L11.963,18H3.501
			C3.133,18,2.886,17.613,3.054,17.276z"/>
	</g>
</g>
<g id="Invisible_Shape">
	<rect fill="none" width="24" height="24"/>
</g>
</svg>
