<?xml version="1.0" encoding="utf-8"?>
<!-- Generator: Adobe Illustrator 19.2.1, SVG Export Plug-In . SVG Version: 6.00 Build 0)  -->
<svg version="1.1" xmlns="http://www.w3.org/2000/svg" xmlns:xlink="http://www.w3.org/1999/xlink" x="0px" y="0px" width="24px"
	 height="24px" viewBox="0 0 24 24" enable-background="new 0 0 24 24" xml:space="preserve">
<g id="Filled_Icons">
	<g>
		<path d="M20.777,13c-0.951,0-2.071,0.492-2.777,1.785C17.294,13.492,16.174,13,15.223,13C13.639,13,12,14.323,12,16.538
			c0,3.181,5.473,7.196,5.706,7.367c0.173,0.126,0.415,0.126,0.588,0C18.527,23.734,24,19.719,24,16.538
			C24,14.323,22.361,13,20.777,13z"/>
		<path d="M13.998,22C12.477,20.434,11,18.432,11,16.538C11,13.697,13.148,12,15.223,12c0.629,0,1.227,0.168,1.777,0.451V5.5
			c0-0.133-0.053-0.26-0.146-0.353l-5-5C11.76,0.053,11.633,0,11.5,0h-11C0.225,0,0,0.224,0,0.5v21C0,21.776,0.225,22,0.5,22H13.998
			z M11,1l5,5h-5V1z M5.001,5c1.102,0,2,0.897,2,2c0,1.102-0.898,2-2,2c-1.103,0-2-0.898-2-2C3.001,5.897,3.898,5,5.001,5z
			 M3.054,17.276l2.5-5c0.155-0.307,0.561-0.369,0.801-0.13l1.527,1.528l2.681-4.913c0.212-0.389,0.793-0.329,0.918,0.098
			l1.175,2.856C11.144,12.596,10,14.264,10,16.538c0,0.488,0.078,0.978,0.218,1.462H3.501C3.133,18,2.886,17.613,3.054,17.276z"/>
	</g>
</g>
<g id="Invisible_Shape">
	<rect fill="none" width="24" height="24"/>
</g>
</svg>
