<?xml version="1.0" encoding="utf-8"?>
<!-- Generator: Adobe Illustrator 19.2.1, SVG Export Plug-In . SVG Version: 6.00 Build 0)  -->
<svg version="1.1" xmlns="http://www.w3.org/2000/svg" xmlns:xlink="http://www.w3.org/1999/xlink" x="0px" y="0px" width="24px"
	 height="24px" viewBox="0 0 24 24" enable-background="new 0 0 24 24" xml:space="preserve">
<g id="Filled_Icons">
	<path d="M19.854,6.147l-6-6C13.76,0.053,13.633,0,13.5,0h-13C0.225,0,0,0.224,0,0.5v23C0,23.776,0.225,24,0.5,24h19
		c0.275,0,0.5-0.224,0.5-0.5v-17C20,6.367,19.947,6.24,19.854,6.147z M9.481,12l1.686-2.884c1.718,0.34,3.169,1.417,4.022,2.884
		H9.481z M12.279,14.991L11.118,17H8.879l-1.153-1.998L8.896,13h2.226L12.279,14.991z M10,9c0.025,0,0.049,0.003,0.074,0.004
		l-2.925,5.001l-1.686-2.92C6.564,9.811,8.188,9,10,9z M4.825,11.977L7.726,17H4.35C3.734,15.261,3.957,13.46,4.825,11.977z
		 M4.812,18h5.728l-1.671,2.89C7.137,20.558,5.67,19.478,4.812,18z M10,21c-0.013,0-0.025-0.002-0.038-0.002l2.898-5.011
		l1.693,2.911C13.451,20.182,11.82,21,10,21z M15.189,18l-2.909-5h3.371C16.266,14.74,16.04,16.532,15.189,18z M13,7V1l6,6H13z"/>
</g>
<g id="Invisible_Shape">
	<rect fill="none" width="24" height="24"/>
</g>
</svg>
