<?xml version="1.0" encoding="utf-8"?>
<!-- Generator: Adobe Illustrator 19.2.1, SVG Export Plug-In . SVG Version: 6.00 Build 0)  -->
<svg version="1.1" xmlns="http://www.w3.org/2000/svg" xmlns:xlink="http://www.w3.org/1999/xlink" x="0px" y="0px" width="24px"
	 height="24px" viewBox="0 0 24 24" enable-background="new 0 0 24 24" xml:space="preserve">
<g id="Filled_Icons">
	<g>
		<path d="M23.5,15H22v-0.5c0-1.929-1.57-3.5-3.5-3.5S15,12.571,15,14.5V15h-1.5c-0.276,0-0.5,0.224-0.5,0.5v8
			c0,0.276,0.224,0.5,0.5,0.5h10c0.276,0,0.5-0.224,0.5-0.5v-8C24,15.224,23.776,15,23.5,15z M19,19.348V21
			c0,0.276-0.224,0.5-0.5,0.5S18,21.276,18,21v-1.652c-0.293-0.175-0.5-0.483-0.5-0.848c0-0.551,0.448-1,1-1s1,0.449,1,1
			C19.5,18.865,19.293,19.172,19,19.348z M21,15h-5v-0.5c0-1.378,1.121-2.5,2.5-2.5s2.5,1.122,2.5,2.5V15z"/>
		<path d="M12,22v-6.5c0-0.827,0.673-1.5,1.5-1.5h0.527c0.193-1.734,1.38-3.165,2.973-3.731V5.5c0-0.133-0.053-0.26-0.146-0.353
			l-5-5C11.76,0.053,11.633,0,11.5,0h-11C0.225,0,0,0.224,0,0.5v21C0,21.776,0.225,22,0.5,22H12z M11,1l5,5h-5V1z M5.001,5
			c1.102,0,2,0.897,2,2c0,1.102-0.898,2-2,2c-1.103,0-2-0.898-2-2C3.001,5.897,3.898,5,5.001,5z M3.501,18
			c-0.368,0-0.615-0.387-0.447-0.724l2.5-5c0.155-0.307,0.561-0.369,0.801-0.13l1.527,1.528l2.681-4.913
			c0.212-0.389,0.793-0.329,0.918,0.098l1.713,4.161C11.958,13.172,11,14.226,11,15.5V18H3.501z"/>
	</g>
</g>
<g id="Invisible_Shape">
	<rect fill="none" width="24" height="24"/>
</g>
</svg>
