<?xml version="1.0" encoding="utf-8"?>
<!-- Generator: Adobe Illustrator 19.2.1, SVG Export Plug-In . SVG Version: 6.00 Build 0)  -->
<svg version="1.1" xmlns="http://www.w3.org/2000/svg" xmlns:xlink="http://www.w3.org/1999/xlink" x="0px" y="0px" width="24px"
	 height="24px" viewBox="0 0 24 24" enable-background="new 0 0 24 24" xml:space="preserve">
<g id="Filled_Icons">
	<path d="M23.5,6h-23C0.224,6,0,6.224,0,6.5v12C0,18.776,0.224,19,0.5,19h23c0.276,0,0.5-0.224,0.5-0.5v-12
		C24,6.224,23.776,6,23.5,6z M6.26,16c-0.919,0-1.683-0.752-1.739-1.712c-0.017-0.276,0.193-0.513,0.47-0.529
		c0.276-0.014,0.513,0.194,0.528,0.469C5.544,14.661,5.87,15,6.26,15C6.668,15,7,14.63,7,14.173c0-0.77-0.381-1.018-1.055-1.391
		c-0.635-0.351-1.426-0.789-1.426-1.957C4.519,9.819,5.301,9,6.262,9c0.917,0,1.681,0.752,1.737,1.711
		c0.017,0.276-0.193,0.513-0.47,0.529c-0.273,0.012-0.512-0.194-0.528-0.469C6.976,10.338,6.65,10,6.262,10
		c-0.409,0-0.742,0.37-0.742,0.825c0,0.554,0.296,0.742,0.91,1.082C7.093,12.274,8,12.776,8,14.173C8,15.181,7.22,16,6.26,16z
		 M14.475,9.659l-2,6c-0.151,0.453-0.797,0.455-0.949,0l-2-6C9.439,9.396,9.58,9.113,9.842,9.026
		c0.263-0.086,0.545,0.053,0.633,0.315L12,13.919l1.525-4.577c0.089-0.262,0.373-0.402,0.633-0.315
		C14.42,9.113,14.561,9.396,14.475,9.659z M17.5,16c-1.374,0-2-1.814-2-3.5c0-2.322,0.673-3.5,2-3.5c1.111,0,1.78,0.468,1.987,1.39
		c0.061,0.27-0.108,0.537-0.377,0.598c-0.271,0.06-0.537-0.109-0.598-0.378C18.44,10.289,18.308,10,17.5,10c-0.247,0-1,0-1,2.5
		c0,1.355,0.458,2.5,1,2.5c0.774,0,0.966-0.511,0.996-2H17.5c-0.276,0-0.5-0.224-0.5-0.5s0.224-0.5,0.5-0.5H19
		c0.276,0,0.5,0.224,0.5,0.5C19.5,13.977,19.5,16,17.5,16z"/>
</g>
<g id="Invisible_Shape">
	<rect fill="none" width="24" height="24"/>
</g>
</svg>
