<?xml version="1.0" encoding="utf-8"?>
<!-- Generator: Adobe Illustrator 19.2.1, SVG Export Plug-In . SVG Version: 6.00 Build 0)  -->
<svg version="1.1" xmlns="http://www.w3.org/2000/svg" xmlns:xlink="http://www.w3.org/1999/xlink" x="0px" y="0px" width="24px"
	 height="24px" viewBox="0 0 24 24" enable-background="new 0 0 24 24" xml:space="preserve">
<g id="Filled_Icons">
	<g>
		<path d="M17.5,24c3.59,0,6.5-2.91,6.5-6.5c0-3.589-2.91-6.5-6.5-6.5S11,13.911,11,17.5C11,21.09,13.91,24,17.5,24z M15,18
			c0.195-0.195,0.512-0.195,0.707,0L17,19.293V14.5c0-0.276,0.224-0.5,0.5-0.5s0.5,0.224,0.5,0.5v4.793L19.293,18
			c0.195-0.195,0.512-0.195,0.707,0s0.195,0.512,0,0.706l-2.146,2.148c-0.195,0.194-0.512,0.194-0.707,0L15,18.706
			C14.805,18.512,14.805,18.195,15,18z"/>
		<path d="M17,10.026V5.5c0-0.133-0.053-0.26-0.146-0.353l-5-5C11.76,0.053,11.633,0,11.5,0h-11C0.225,0,0,0.224,0,0.5v21
			C0,21.776,0.225,22,0.5,22h11.014C7.932,17.245,11.078,10.419,17,10.026z M11,1l5,5h-5V1z M5,5c1.102,0,2,0.897,2,2
			c0,1.102-0.898,2-2,2S3,8.102,3,7C3,5.897,3.898,5,5,5z M3.5,18c-0.37,0-0.614-0.39-0.447-0.724l2.5-5
			c0.154-0.306,0.561-0.371,0.801-0.13l1.527,1.527l2.681-4.913c0.229-0.419,0.76-0.294,0.9,0.049l0.824,2.001
			c-2.099,1.635-3.425,4.193-3.25,7.189H3.5z"/>
	</g>
</g>
<g id="Invisible_Shape">
	<rect fill="none" width="24" height="24"/>
</g>
</svg>
