<?xml version="1.0" encoding="utf-8"?>
<!-- Generator: Adobe Illustrator 19.2.1, SVG Export Plug-In . SVG Version: 6.00 Build 0)  -->
<svg version="1.1" xmlns="http://www.w3.org/2000/svg" xmlns:xlink="http://www.w3.org/1999/xlink" x="0px" y="0px" width="24px"
	 height="24px" viewBox="0 0 24 24" enable-background="new 0 0 24 24" xml:space="preserve">
<g id="Filled_Icons">
	<path d="M19.854,6.147l-6-6C13.76,0.053,13.633,0,13.5,0h-13C0.225,0,0,0.224,0,0.5v23C0,23.776,0.225,24,0.5,24h19
		c0.275,0,0.5-0.224,0.5-0.5v-17C20,6.367,19.947,6.24,19.854,6.147z M7,7.165c1.102,0,2,0.896,2,2c0,1.103-0.898,2-2,2
		s-2-0.897-2-2C5,8.061,5.898,7.165,7,7.165z M15.5,20.165h-10c-0.368,0-0.615-0.388-0.447-0.724l2.5-5
		c0.155-0.307,0.561-0.368,0.801-0.13l1.527,1.528l2.681-4.913c0.212-0.388,0.793-0.328,0.918,0.098l2.5,8.5
		C16.075,19.845,15.832,20.165,15.5,20.165z M13,7V1l6,6H13z"/>
</g>
<g id="Invisible_Shape">
	<rect fill="none" width="24" height="24"/>
</g>
</svg>
