<?xml version="1.0" encoding="utf-8"?>
<!-- Generator: Adobe Illustrator 19.2.1, SVG Export Plug-In . SVG Version: 6.00 Build 0)  -->
<svg version="1.1" xmlns="http://www.w3.org/2000/svg" xmlns:xlink="http://www.w3.org/1999/xlink" x="0px" y="0px" width="24px"
	 height="24px" viewBox="0 0 24 24" enable-background="new 0 0 24 24" xml:space="preserve">
<g id="Filled_Icons">
	<g>
		<path d="M4.75,14.001H4v1.5h0.75c0.413,0,0.75-0.336,0.75-0.75C5.5,14.338,5.163,14.001,4.75,14.001z"/>
		<path d="M19.854,6.147l-6-6C13.76,0.053,13.633,0,13.5,0h-13C0.225,0,0,0.224,0,0.5v23C0,23.776,0.225,24,0.5,24h19
			c0.276,0,0.5-0.224,0.5-0.5v-17C20,6.367,19.947,6.24,19.854,6.147z M4.75,16.501H4V18.5C4,18.776,3.776,19,3.5,19
			S3,18.776,3,18.5v-4.999c0-0.276,0.224-0.5,0.5-0.5h1.25c0.965,0,1.75,0.785,1.75,1.75C6.5,15.716,5.715,16.501,4.75,16.501z
			 M12,18.5c0,0.225-0.15,0.422-0.366,0.482c-0.224,0.061-0.45-0.036-0.562-0.225L9,15.305V18.5C9,18.776,8.776,19,8.5,19
			S8,18.776,8,18.5v-5c0-0.504,0.669-0.691,0.929-0.257L11,16.695V13.5c0-0.276,0.224-0.5,0.5-0.5s0.5,0.224,0.5,0.5V18.5z M15,19
			c-2,0-2-2.102-2-3s0-3,2-3c1.06,0,1.631,0.429,1.847,1.39c0.061,0.27-0.108,0.537-0.377,0.598
			c-0.271,0.062-0.538-0.109-0.598-0.378C15.767,14.144,15.633,14,15,14c-0.547,0-1,0.15-1,2s0.453,2,1,2c0.231,0,0.731,0,0.932-1
			H15c-0.276,0-0.5-0.224-0.5-0.5S14.724,16,15,16h1.5c0.288,0,0.52,0.245,0.499,0.536C16.854,18.573,15.831,19,15,19z M13,7V1l6,6
			H13z"/>
	</g>
</g>
<g id="Invisible_Shape">
	<rect fill="none" width="24" height="24"/>
</g>
</svg>
