<?xml version="1.0" encoding="utf-8"?>
<!-- Generator: Adobe Illustrator 16.0.3, SVG Export Plug-In . SVG Version: 6.00 Build 0)  -->
<!DOCTYPE svg PUBLIC "-//W3C//DTD SVG 1.1//EN" "http://www.w3.org/Graphics/SVG/1.1/DTD/svg11.dtd">
<svg version="1.1" xmlns="http://www.w3.org/2000/svg" xmlns:xlink="http://www.w3.org/1999/xlink" x="0px" y="0px" width="24px"
	 height="24px" viewBox="0 0 24 24" enable-background="new 0 0 24 24" xml:space="preserve">
<g id="Outline_Icons">
	<g>
		
			<ellipse fill="none" stroke="#000000" stroke-linecap="round" stroke-linejoin="round" stroke-miterlimit="10" cx="12.958" cy="4" rx="7.5" ry="3.5"/>
		<path fill="none" stroke="#000000" stroke-linecap="round" stroke-linejoin="round" stroke-miterlimit="10" d="M21.339,14.682
			c-0.773,1.606-4.231,2.818-8.381,2.818c-4.082,0-7.495-1.173-8.341-2.741"/>
		<path fill="none" stroke="#000000" stroke-linecap="round" stroke-linejoin="round" stroke-miterlimit="10" d="M21.449,10.596
			c-0.773,1.607-4.342,2.904-8.491,2.904c-4.082,0-7.578-1.335-8.424-2.904"/>
		<path fill="none" stroke="#000000" stroke-linecap="round" stroke-linejoin="round" stroke-miterlimit="10" d="M21.008,17.657
			c-0.832,1.553-4.183,2.843-8.05,2.843c-6.698,0-8.222-3.139-7.995-2.739"/>
		<path fill="none" stroke="#000000" stroke-linecap="round" stroke-linejoin="round" stroke-miterlimit="10" d="M21.155,7.5
			c-0.832,1.553-4.33,3-8.197,3c-3.831,0-7.281-1.469-8.15-3"/>
		<path fill="none" stroke="#000000" stroke-linecap="round" stroke-linejoin="round" stroke-miterlimit="10" d="M20.458,4
			c2.312,9,0,16,0,16s-1,3.5-7.5,3.5s-7.5-3.5-7.5-3.5s-2.156-7,0-16"/>
		<ellipse fill="none" stroke="#000000" stroke-linejoin="round" stroke-miterlimit="10" cx="9.958" cy="4" rx="1.5" ry="0.5"/>
	</g>
</g>
<g id="invisible_shape">
	<rect fill="none" width="24" height="24"/>
</g>
</svg>
