<?xml version="1.0" encoding="utf-8"?>
<!-- Generator: Adobe Illustrator 16.0.3, SVG Export Plug-In . SVG Version: 6.00 Build 0)  -->
<!DOCTYPE svg PUBLIC "-//W3C//DTD SVG 1.1//EN" "http://www.w3.org/Graphics/SVG/1.1/DTD/svg11.dtd">
<svg version="1.1" xmlns="http://www.w3.org/2000/svg" xmlns:xlink="http://www.w3.org/1999/xlink" x="0px" y="0px" width="24px"
	 height="24px" viewBox="0 0 24 24" enable-background="new 0 0 24 24" xml:space="preserve">
<g id="Outline_Icons">
	<g>
		<path fill="none" stroke="#000000" stroke-linejoin="round" stroke-miterlimit="10" d="M16.502,22.5c0-1.104-0.896-2-2-2h-4
			c-1.104,0-2,0.896-2,2v1h8V22.5z"/>
		<line fill="none" stroke="#000000" stroke-linejoin="round" stroke-miterlimit="10" x1="7.002" y1="6.5" x2="18.002" y2="6.5"/>
		<g>
			<path d="M14.502,9c-0.275,0-0.5,0.224-0.5,0.5c0,0.276,0.225,0.5,0.5,0.5c0.276,0,0.5-0.224,0.5-0.5
				C15.002,9.224,14.778,9,14.502,9L14.502,9z"/>
		</g>
		<g>
			<path d="M12.502,11c-0.275,0-0.5,0.224-0.5,0.5c0,0.276,0.225,0.5,0.5,0.5c0.276,0,0.5-0.224,0.5-0.5
				C13.002,11.224,12.778,11,12.502,11L12.502,11z"/>
		</g>
		<g>
			<path d="M10.002,8c-0.275,0-0.5,0.224-0.5,0.5c0,0.276,0.225,0.5,0.5,0.5c0.276,0,0.5-0.224,0.5-0.5
				C10.502,8.224,10.278,8,10.002,8L10.002,8z"/>
		</g>
		<g>
			<path d="M12.002,14.5c-0.275,0-0.5,0.224-0.5,0.5c0,0.276,0.225,0.5,0.5,0.5c0.276,0,0.5-0.224,0.5-0.5
				C12.502,14.724,12.278,14.5,12.002,14.5L12.002,14.5z"/>
		</g>
		<path fill="none" stroke="#000000" stroke-linejoin="round" stroke-miterlimit="10" d="M18.113,6.39
			C17.92,6.455,17.718,6.5,17.502,6.5c-1.104,0-2-0.896-2-2c0-0.366,0.105-0.705,0.277-1H7.002H6.529
			c0.129,3.071,0.865,4.903,2.167,8c0.973,2.315,1.306,7.5,0.306,9.5v0.19c0.367-0.42,0.899-0.69,1.5-0.69h4
			c0.601,0,1.134,0.271,1.5,0.69V21c-0.5-2-0.666-7.185,0.307-9.5C17.159,9.476,17.76,8.009,18.113,6.39z"/>
		<path fill="none" stroke="#000000" stroke-linejoin="round" stroke-miterlimit="10" d="M17.502,0.5H6.95c-0.017,0-0.033,0-0.05,0
			c-1.934,0.031-1.832,3,0.102,3h8.777c-0.172,0.295-0.277,0.634-0.277,1c0,1.104,0.896,2,2,2c0.366,0,0.705-0.105,1-0.277V8.5
			c0,0.553,0.448,1,1,1c0.553,0,1-0.447,1-1v-5C20.502,1.843,19.159,0.5,17.502,0.5z"/>
	</g>
</g>
<g id="invisible_shape">
	<rect fill="none" width="24" height="24"/>
</g>
</svg>
