<?xml version="1.0" encoding="utf-8"?>
<!-- Generator: Adobe Illustrator 16.0.3, SVG Export Plug-In . SVG Version: 6.00 Build 0)  -->
<!DOCTYPE svg PUBLIC "-//W3C//DTD SVG 1.1//EN" "http://www.w3.org/Graphics/SVG/1.1/DTD/svg11.dtd">
<svg version="1.1" xmlns="http://www.w3.org/2000/svg" xmlns:xlink="http://www.w3.org/1999/xlink" x="0px" y="0px" width="24px"
	 height="24px" viewBox="0 0 24 24" enable-background="new 0 0 24 24" xml:space="preserve">
<g id="Outline_Icons">
	<g>
		
			<circle fill="none" stroke="#000000" stroke-linecap="round" stroke-linejoin="round" stroke-miterlimit="10" cx="11.5" cy="12.5" r="3"/>
		
			<line fill="none" stroke="#000000" stroke-linecap="round" stroke-linejoin="round" stroke-miterlimit="10" x1="8.5" y1="12.5" x2="14.5" y2="12.5"/>
		
			<line fill="none" stroke="#000000" stroke-linecap="round" stroke-linejoin="round" stroke-miterlimit="10" x1="8.5" y1="17.5" x2="8.5" y2="21.5"/>
		
			<line fill="none" stroke="#000000" stroke-linecap="round" stroke-linejoin="round" stroke-miterlimit="10" x1="10.5" y1="20" x2="10.5" y2="21.5"/>
		<polygon fill="none" stroke="#000000" stroke-linecap="round" stroke-linejoin="round" stroke-miterlimit="10" points="16,23.5 
			7,23.5 5.5,22 5.5,8.5 8.5,5.5 14.5,5.5 17.5,8.5 17.5,22 		"/>
		
			<line fill="none" stroke="#000000" stroke-linecap="round" stroke-linejoin="round" stroke-miterlimit="10" x1="7" y1="5.5" x2="16" y2="5.5"/>
		
			<line fill="none" stroke="#000000" stroke-linecap="round" stroke-linejoin="round" stroke-miterlimit="10" x1="10" y1="5.5" x2="8" y2="3.5"/>
		<g>
			<g>
				<path d="M14,1c-0.276,0-0.5,0.225-0.5,0.5C13.5,1.776,13.724,2,14,2s0.5-0.224,0.5-0.5C14.5,1.225,14.276,1,14,1L14,1z"/>
			</g>
		</g>
		<g>
			<g>
				<path d="M13,3c-0.276,0-0.5,0.225-0.5,0.5C12.5,3.776,12.724,4,13,4s0.5-0.224,0.5-0.5C13.5,3.225,13.276,3,13,3L13,3z"/>
			</g>
		</g>
		<g>
			<g>
				<path d="M12,0c-0.276,0-0.5,0.225-0.5,0.5C11.5,0.776,11.724,1,12,1s0.5-0.224,0.5-0.5C12.5,0.225,12.276,0,12,0L12,0z"/>
			</g>
		</g>
	</g>
</g>
<g id="invisible_shape">
	<rect fill="none" width="24" height="24"/>
</g>
</svg>
