<?xml version="1.0" encoding="utf-8"?>
<!-- Generator: Adobe Illustrator 16.0.3, SVG Export Plug-In . SVG Version: 6.00 Build 0)  -->
<!DOCTYPE svg PUBLIC "-//W3C//DTD SVG 1.1//EN" "http://www.w3.org/Graphics/SVG/1.1/DTD/svg11.dtd">
<svg version="1.1" xmlns="http://www.w3.org/2000/svg" xmlns:xlink="http://www.w3.org/1999/xlink" x="0px" y="0px" width="24px"
	 height="24px" viewBox="0 0 24 24" enable-background="new 0 0 24 24" xml:space="preserve">
<g id="Outline_Icons">
	<g>
		<path fill="none" stroke="#000000" stroke-linecap="round" stroke-linejoin="round" stroke-miterlimit="10" d="M15.033,12.053
			c0.149-0.315,0.353-0.607,0.608-0.863c0.243-0.243,0.518-0.438,0.813-0.585"/>
		
			<ellipse transform="matrix(-0.7071 0.7071 -0.7071 -0.7071 31.2002 6.6272)" fill="none" stroke="#000000" stroke-linejoin="round" stroke-miterlimit="10" cx="14.228" cy="9.775" rx="4.472" ry="5.033"/>
		<path fill="none" stroke="#000000" stroke-linecap="round" stroke-linejoin="round" stroke-miterlimit="10" d="M8.669,18.417
			c0.15-0.315,0.353-0.607,0.609-0.863c0.242-0.243,0.517-0.437,0.812-0.584"/>
		
			<ellipse transform="matrix(-0.7071 0.7071 -0.7071 -0.7071 24.8373 21.9893)" fill="none" stroke="#000000" stroke-linejoin="round" stroke-miterlimit="10" cx="7.864" cy="16.139" rx="4.472" ry="5.032"/>
		
			<line fill="none" stroke="#000000" stroke-linejoin="round" stroke-miterlimit="10" x1="20.942" y1="3.061" x2="17.39" y2="6.613"/>
		
			<line fill="none" stroke="#000000" stroke-linecap="round" stroke-linejoin="round" stroke-miterlimit="10" x1="4.7" y1="19.3" x2="1.5" y2="22.5"/>
		<circle fill="none" stroke="#000000" stroke-linejoin="round" stroke-miterlimit="10" cx="22.003" cy="2" r="1.5"/>
	</g>
</g>
<g id="invisible_shape">
	<rect fill="none" width="24" height="24"/>
</g>
</svg>
