<?xml version="1.0" encoding="utf-8"?>
<!-- Generator: Adobe Illustrator 16.0.3, SVG Export Plug-In . SVG Version: 6.00 Build 0)  -->
<!DOCTYPE svg PUBLIC "-//W3C//DTD SVG 1.1//EN" "http://www.w3.org/Graphics/SVG/1.1/DTD/svg11.dtd">
<svg version="1.1" xmlns="http://www.w3.org/2000/svg" xmlns:xlink="http://www.w3.org/1999/xlink" x="0px" y="0px" width="24px"
	 height="24px" viewBox="0 0 24 24" enable-background="new 0 0 24 24" xml:space="preserve">
<g id="Outline_Icons">
	<g>
		<path fill="none" stroke="#000000" stroke-linecap="round" stroke-linejoin="round" stroke-miterlimit="10" d="M14.5,12
			c-1.364,0-2.598-0.549-3.5-1.435C10.098,11.451,8.864,12,7.5,12c-1.336,0-2.543-0.531-3.439-1.385
			C3.084,11.998,2.5,13.678,2.5,15.5c0,3.693,3.209,6.827,6.5,8h4c3.291-1.173,6.5-4.307,6.5-8c0-1.822-0.584-3.502-1.561-4.885
			C17.043,11.469,15.836,12,14.5,12z"/>
		<path fill="none" stroke="#000000" stroke-linecap="round" stroke-linejoin="round" stroke-miterlimit="10" d="M9,7.5L6.57,3.334
			C5.99,2.34,4.691,2.039,3.733,2.678L1,4.5"/>
		<polyline fill="none" stroke="#000000" stroke-linecap="round" stroke-linejoin="round" stroke-miterlimit="10" points="
			12.883,7.5 6,7.5 4.061,10.615 		"/>
		<path fill="none" stroke="#000000" stroke-linejoin="round" stroke-miterlimit="10" d="M20.287,4.237
			c-0.471-0.775-1.564-0.972-2.444-0.439c-0.11,0.068-0.212,0.143-0.305,0.225c0.054-0.184,0.09-0.377,0.09-0.582
			c0-1.028-0.735-1.862-1.642-1.862s-1.642,0.834-1.642,1.862c0,0.195,0.033,0.379,0.083,0.558c-0.084-0.072-0.173-0.141-0.271-0.2
			c-0.88-0.533-1.974-0.336-2.444,0.439c-0.47,0.776-0.137,1.836,0.742,2.37c0.308,0.186,0.64,0.277,0.963,0.293
			c-0.075,0.057-0.151,0.115-0.221,0.184C12.47,7.812,12.4,8.921,13.041,9.562c0.642,0.641,1.751,0.572,2.479-0.157
			C15.747,9.178,15.902,8.91,16,8.634c0.098,0.276,0.253,0.544,0.48,0.771c0.728,0.729,1.837,0.797,2.479,0.157
			c0.641-0.641,0.571-1.75-0.156-2.479c-0.069-0.068-0.146-0.127-0.221-0.184c0.323-0.016,0.655-0.107,0.962-0.293
			C20.424,6.073,20.757,5.013,20.287,4.237z"/>
		<circle fill="none" stroke="#000000" stroke-linejoin="round" stroke-miterlimit="10" cx="16" cy="6.021" r="1.488"/>
	</g>
</g>
<g id="invisible_shape">
	<rect fill="none" width="24" height="24"/>
</g>
</svg>
