<?xml version="1.0" encoding="utf-8"?>
<!-- Generator: Adobe Illustrator 16.0.3, SVG Export Plug-In . SVG Version: 6.00 Build 0)  -->
<!DOCTYPE svg PUBLIC "-//W3C//DTD SVG 1.1//EN" "http://www.w3.org/Graphics/SVG/1.1/DTD/svg11.dtd">
<svg version="1.1" xmlns="http://www.w3.org/2000/svg" xmlns:xlink="http://www.w3.org/1999/xlink" x="0px" y="0px" width="24px"
	 height="24px" viewBox="0 0 24 24" enable-background="new 0 0 24 24" xml:space="preserve">
<g id="Outline_Icons">
	<g>
		<path fill="none" stroke="#000000" stroke-linecap="round" stroke-linejoin="round" stroke-miterlimit="10" d="M15.815,8.5
			c2.237,1.738,3.685,4.447,3.685,7.5c0,1.628-0.412,3.159-1.134,4.5H1.632C0.91,19.159,0.5,17.628,0.5,16
			c0-2.113,0.691-4.062,1.86-5.639L1.5,8.5H15.815z"/>
		<path fill="none" stroke="#000000" stroke-linecap="round" stroke-linejoin="round" stroke-miterlimit="10" d="M3.5,6.5H19
			c1.607,1.503,2.783,3.409,3.429,5.559c0.279,0.928,0.103,1.932-0.475,2.707C21.377,15.543,20.466,16,19.5,16"/>
		
			<line fill="none" stroke="#000000" stroke-linecap="round" stroke-linejoin="round" stroke-miterlimit="10" x1="15.5" y1="6.5" x2="17.5" y2="4.5"/>
		<line fill="none" stroke="#000000" stroke-linejoin="round" stroke-miterlimit="10" x1="1.171" y1="12.5" x2="18.812" y2="12.5"/>
	</g>
</g>
<g id="invisible_shape">
	<rect fill="none" width="24" height="24"/>
</g>
</svg>
