<?xml version="1.0" encoding="utf-8"?>
<!-- Generator: Adobe Illustrator 16.0.3, SVG Export Plug-In . SVG Version: 6.00 Build 0)  -->
<!DOCTYPE svg PUBLIC "-//W3C//DTD SVG 1.1//EN" "http://www.w3.org/Graphics/SVG/1.1/DTD/svg11.dtd">
<svg version="1.1" xmlns="http://www.w3.org/2000/svg" xmlns:xlink="http://www.w3.org/1999/xlink" x="0px" y="0px" width="24px"
	 height="24px" viewBox="0 0 24 24" enable-background="new 0 0 24 24" xml:space="preserve">
<g id="Outline_Icons">
	<g>
		<path fill="none" stroke="#000000" stroke-linejoin="round" stroke-miterlimit="10" d="M18.5,8.5c0-2.761-2.238-5-5-5h-3
			c-2.762,0-5,2.239-5,5V10l1.516,1.516l-1.516,1.5V16l1.521,1.535L5.5,19.031V21.5c0,1.104,0.896,2,2,2h9c1.104,0,2-0.896,2-2
			v-2.469l-1.516-1.496l1.516-1.515v-3.004L17,11.547L18.5,10V8.5z"/>
		<line fill="none" stroke="#000000" stroke-linejoin="round" stroke-miterlimit="10" x1="7" y1="17.5" x2="17" y2="17.5"/>
		<line fill="none" stroke="#000000" stroke-linejoin="round" stroke-miterlimit="10" x1="7" y1="11.5" x2="17" y2="11.5"/>
		<path fill="none" stroke="#000000" stroke-linejoin="round" stroke-miterlimit="10" d="M14.5,1.5c0-0.552-0.447-1-1-1h-3
			c-0.553,0-1,0.448-1,1v2h5V1.5z"/>
	</g>
</g>
<g id="invisible_shape">
	<rect fill="none" width="24" height="24"/>
</g>
</svg>
