<?xml version="1.0" encoding="utf-8"?>
<!-- Generator: Adobe Illustrator 16.0.3, SVG Export Plug-In . SVG Version: 6.00 Build 0)  -->
<!DOCTYPE svg PUBLIC "-//W3C//DTD SVG 1.1//EN" "http://www.w3.org/Graphics/SVG/1.1/DTD/svg11.dtd">
<svg version="1.1" xmlns="http://www.w3.org/2000/svg" xmlns:xlink="http://www.w3.org/1999/xlink" x="0px" y="0px" width="24px"
	 height="24px" viewBox="0 0 24 24" enable-background="new 0 0 24 24" xml:space="preserve">
<g id="Outline_Icons">
	<g>
		<polyline fill="none" stroke="#000000" stroke-linejoin="round" stroke-miterlimit="10" points="20.5,12.5 20.5,19.5 2.5,19.5 
			2.5,6.5 		"/>
		<line fill="none" stroke="#000000" stroke-linejoin="round" stroke-miterlimit="10" x1="20.5" y1="6.5" x2="20.5" y2="10.5"/>
		<circle fill="none" stroke="#000000" stroke-linejoin="round" stroke-miterlimit="10" cx="11.5" cy="5.5" r="1.5"/>
		<circle fill="none" stroke="#000000" stroke-linejoin="round" stroke-miterlimit="10" cx="4.5" cy="3.5" r="1"/>
		<path fill="none" stroke="#000000" stroke-linejoin="round" stroke-miterlimit="10" d="M22.5,1.5c0-0.552-0.447-1-1-1h-20
			c-0.553,0-1,0.448-1,1v4c0,0.553,0.447,1,1,1h4.059c0.861,0,1.625,0.551,1.897,1.367l0.089,0.266C7.816,8.949,8.581,9.5,9.441,9.5
			h4.117c0.861,0,1.625-0.551,1.897-1.367l0.088-0.265C15.816,7.051,16.581,6.5,17.441,6.5H21.5c0.553,0,1-0.447,1-1V1.5z"/>
		<g>
			<path d="M17,3c-0.276,0-0.5,0.224-0.5,0.5C16.5,3.776,16.724,4,17,4s0.5-0.224,0.5-0.5C17.5,3.224,17.276,3,17,3L17,3z"/>
		</g>
		<g>
			<path d="M19,3c-0.276,0-0.5,0.224-0.5,0.5C18.5,3.776,18.724,4,19,4s0.5-0.224,0.5-0.5C19.5,3.224,19.276,3,19,3L19,3z"/>
		</g>
		<path fill="none" stroke="#000000" stroke-linejoin="round" stroke-miterlimit="10" d="M22.5,22.5c0,0.553-0.447,1-1,1h-20
			c-0.553,0-1-0.447-1-1v-2c0-0.552,0.447-1,1-1h20c0.553,0,1,0.448,1,1V22.5z"/>
		<path fill="none" stroke="#000000" stroke-linejoin="round" stroke-miterlimit="10" d="M15,16c0,1.933-1.567,3.5-3.5,3.5
			S8,17.933,8,16v-0.5h7V16z"/>
		<rect x="9.5" y="9.5" fill="none" stroke="#000000" stroke-linejoin="round" stroke-miterlimit="10" width="4" height="3"/>
		
			<line fill="none" stroke="#000000" stroke-linecap="round" stroke-linejoin="round" stroke-miterlimit="10" x1="11.5" y1="12.5" x2="11.5" y2="13.5"/>
		
			<line fill="none" stroke="#000000" stroke-linecap="round" stroke-linejoin="round" stroke-miterlimit="10" x1="13.5" y1="11.5" x2="18" y2="11.5"/>
		
			<rect x="18" y="10.5" fill="none" stroke="#000000" stroke-linecap="round" stroke-linejoin="round" stroke-miterlimit="10" width="4.5" height="2"/>
		<path fill="none" stroke="#000000" stroke-linejoin="round" stroke-miterlimit="10" d="M15,15.5h1.25c0.69,0,1.25,0.56,1.25,1.25
			S16.94,18,16.25,18H16"/>
	</g>
</g>
<g id="invisible_shape">
	<rect fill="none" width="24" height="24"/>
</g>
</svg>
