<?xml version="1.0" encoding="utf-8"?>
<!-- Generator: Adobe Illustrator 16.0.3, SVG Export Plug-In . SVG Version: 6.00 Build 0)  -->
<!DOCTYPE svg PUBLIC "-//W3C//DTD SVG 1.1//EN" "http://www.w3.org/Graphics/SVG/1.1/DTD/svg11.dtd">
<svg version="1.1" xmlns="http://www.w3.org/2000/svg" xmlns:xlink="http://www.w3.org/1999/xlink" x="0px" y="0px" width="24px"
	 height="24px" viewBox="0 0 24 24" enable-background="new 0 0 24 24" xml:space="preserve">
<g id="Outline_Icons">
	<g>
		<path fill="none" stroke="#000000" stroke-miterlimit="10" d="M19.5,21.5c0,1.104-0.896,2-2,2h-12c-1.104,0-2-0.896-2-2v-14
			c0-1.104,0.896-2,2-2h12c1.104,0,2,0.896,2,2V21.5z"/>
		<line fill="none" stroke="#000000" stroke-linecap="round" stroke-miterlimit="10" x1="16.5" y1="21" x2="16.5" y2="8"/>
		<line fill="none" stroke="#000000" stroke-linecap="round" stroke-miterlimit="10" x1="6.5" y1="8" x2="6.5" y2="21"/>
		<rect x="10.5" y="3.5" fill="none" stroke="#000000" stroke-miterlimit="10" width="2" height="2"/>
		<path fill="none" stroke="#000000" stroke-linejoin="round" stroke-miterlimit="10" d="M14.5,1.5c0-0.552-0.447-1-1-1h-4
			c-0.553,0-1,0.448-1,1v2h6V1.5z"/>
		<line fill="none" stroke="#000000" stroke-linejoin="round" stroke-miterlimit="10" x1="10.5" y1="0.5" x2="10.5" y2="3.5"/>
		<line fill="none" stroke="#000000" stroke-linejoin="round" stroke-miterlimit="10" x1="12.5" y1="0.5" x2="12.5" y2="3.5"/>
		<path fill="none" stroke="#000000" stroke-miterlimit="10" d="M8.5,3.5H8c-1.104,0-2,0.896-2,2"/>
		<line fill="none" stroke="#000000" stroke-linecap="round" stroke-miterlimit="10" x1="10" y1="11" x2="13" y2="8"/>
		<line fill="none" stroke="#000000" stroke-linecap="round" stroke-miterlimit="10" x1="10" y1="15.5" x2="13" y2="12.5"/>
		<line fill="none" stroke="#000000" stroke-linecap="round" stroke-miterlimit="10" x1="10" y1="20" x2="13" y2="17"/>
	</g>
</g>
<g id="invisible_shape">
	<rect fill="none" width="24" height="24"/>
</g>
</svg>
