<?xml version="1.0" encoding="utf-8"?>
<!-- Generator: Adobe Illustrator 16.0.3, SVG Export Plug-In . SVG Version: 6.00 Build 0)  -->
<!DOCTYPE svg PUBLIC "-//W3C//DTD SVG 1.1//EN" "http://www.w3.org/Graphics/SVG/1.1/DTD/svg11.dtd">
<svg version="1.1" xmlns="http://www.w3.org/2000/svg" xmlns:xlink="http://www.w3.org/1999/xlink" x="0px" y="0px" width="24px"
	 height="24px" viewBox="0 0 24 24" enable-background="new 0 0 24 24" xml:space="preserve">
<g id="Outline_Icons">
	<g>
		<polygon fill="none" stroke="#000000" stroke-linecap="round" stroke-linejoin="round" stroke-miterlimit="10" points="17.5,23.5 
			8.5,23.5 6.5,6.5 19.5,6.5 		"/>
		<path fill="none" stroke="#000000" stroke-linecap="round" stroke-linejoin="round" stroke-miterlimit="10" d="M10,21.5
			L8.25,3.113C8.107,1.632,6.863,0.5,5.375,0.5H3.5"/>
		
			<line fill="none" stroke="#000000" stroke-linecap="round" stroke-linejoin="round" stroke-miterlimit="10" x1="7" y1="10.5" x2="19" y2="10.5"/>
		<g>
			<g>
				<path d="M12,3c-0.276,0-0.5,0.224-0.5,0.5S11.724,4,12,4s0.5-0.224,0.5-0.5S12.276,3,12,3L12,3z"/>
			</g>
		</g>
		<g>
			<g>
				<path d="M15,4c-0.276,0-0.5,0.224-0.5,0.5S14.724,5,15,5s0.5-0.224,0.5-0.5S15.276,4,15,4L15,4z"/>
			</g>
		</g>
		<g>
			<g>
				<path d="M16,13c-0.276,0-0.5,0.224-0.5,0.5S15.724,14,16,14s0.5-0.224,0.5-0.5S16.276,13,16,13L16,13z"/>
			</g>
		</g>
		<g>
			<g>
				<path d="M13,15c-0.276,0-0.5,0.224-0.5,0.5S12.724,16,13,16s0.5-0.224,0.5-0.5S13.276,15,13,15L13,15z"/>
			</g>
		</g>
		<g>
			<g>
				<path d="M15,18c-0.276,0-0.5,0.224-0.5,0.5S14.724,19,15,19s0.5-0.224,0.5-0.5S15.276,18,15,18L15,18z"/>
			</g>
		</g>
		<g>
			<g>
				<path d="M12,20c-0.276,0-0.5,0.224-0.5,0.5S11.724,21,12,21s0.5-0.224,0.5-0.5S12.276,20,12,20L12,20z"/>
			</g>
		</g>
		<g>
			<g>
				<path d="M11,12c-0.276,0-0.5,0.224-0.5,0.5S10.724,13,11,13s0.5-0.224,0.5-0.5S11.276,12,11,12L11,12z"/>
			</g>
		</g>
		<g>
			<g>
				<path d="M17,2c-0.276,0-0.5,0.224-0.5,0.5S16.724,3,17,3s0.5-0.224,0.5-0.5S17.276,2,17,2L17,2z"/>
			</g>
		</g>
	</g>
</g>
<g id="invisible_shape">
	<rect fill="none" width="24" height="24"/>
</g>
</svg>
