<?xml version="1.0" encoding="utf-8"?>
<!-- Generator: Adobe Illustrator 16.0.3, SVG Export Plug-In . SVG Version: 6.00 Build 0)  -->
<!DOCTYPE svg PUBLIC "-//W3C//DTD SVG 1.1//EN" "http://www.w3.org/Graphics/SVG/1.1/DTD/svg11.dtd">
<svg version="1.1" xmlns="http://www.w3.org/2000/svg" xmlns:xlink="http://www.w3.org/1999/xlink" x="0px" y="0px" width="24px"
	 height="24px" viewBox="0 0 24 24" enable-background="new 0 0 24 24" xml:space="preserve">
<g id="Outline_Icons">
	<g>
		<g>
			<path d="M13,20c-0.276,0-0.5,0.224-0.5,0.5c0,0.276,0.224,0.5,0.5,0.5s0.5-0.224,0.5-0.5C13.5,20.224,13.276,20,13,20L13,20z"/>
		</g>
		<g>
			<path d="M11,17c-0.276,0-0.5,0.224-0.5,0.5c0,0.276,0.224,0.5,0.5,0.5s0.5-0.224,0.5-0.5C11.5,17.224,11.276,17,11,17L11,17z"/>
		</g>
		<g>
			<path d="M13.5,15c-0.276,0-0.5,0.224-0.5,0.5c0,0.276,0.224,0.5,0.5,0.5s0.5-0.224,0.5-0.5C14,15.224,13.776,15,13.5,15L13.5,15z
				"/>
		</g>
		<g>
			<path d="M10,13c-0.276,0-0.5,0.224-0.5,0.5c0,0.276,0.224,0.5,0.5,0.5s0.5-0.224,0.5-0.5C10.5,13.224,10.276,13,10,13L10,13z"/>
		</g>
		<g>
			<path d="M13,11c-0.276,0-0.5,0.224-0.5,0.5c0,0.276,0.224,0.5,0.5,0.5s0.5-0.224,0.5-0.5C13.5,11.224,13.276,11,13,11L13,11z"/>
		</g>
		<g>
			<path d="M10.5,10c-0.276,0-0.5,0.224-0.5,0.5c0,0.276,0.224,0.5,0.5,0.5s0.5-0.224,0.5-0.5C11,10.224,10.776,10,10.5,10L10.5,10z
				"/>
		</g>
		<path fill="none" stroke="#000000" stroke-linejoin="round" stroke-miterlimit="10" d="M13.5,2.5c0,5,3,6,3,10
			S15,17.122,15,19.561C15,22,17.195,23.5,15.264,23.5H8.736C6.805,23.5,9,22,9,19.561C9,17.122,7.5,16.5,7.5,12.5s3-5,3-10"/>
		
			<line fill="none" stroke="#000000" stroke-linecap="round" stroke-linejoin="round" stroke-miterlimit="10" x1="9" y1="8" x2="15" y2="8"/>
		<path fill="none" stroke="#000000" stroke-linecap="round" stroke-linejoin="round" stroke-miterlimit="10" d="M14.5,3L13,2.5
			L12,3l-1-0.5L9.5,3V1.5c0-0.552,0.447-1,1-1h3c0.553,0,1,0.448,1,1V3z"/>
	</g>
</g>
<g id="invisible_shape">
	<rect fill="none" width="24" height="24"/>
</g>
</svg>
