<?xml version="1.0" encoding="utf-8"?>
<!-- Generator: Adobe Illustrator 16.0.3, SVG Export Plug-In . SVG Version: 6.00 Build 0)  -->
<!DOCTYPE svg PUBLIC "-//W3C//DTD SVG 1.1//EN" "http://www.w3.org/Graphics/SVG/1.1/DTD/svg11.dtd">
<svg version="1.1" xmlns="http://www.w3.org/2000/svg" xmlns:xlink="http://www.w3.org/1999/xlink" x="0px" y="0px" width="24px"
	 height="24px" viewBox="0 0 24 24" enable-background="new 0 0 24 24" xml:space="preserve">
<g id="Outline_Icons">
	<g>
		<path fill="none" stroke="#000000" stroke-miterlimit="10" d="M6.135,11.244C5.45,11.7,5.115,12.529,5.29,13.333
			c0.161,3.495,0.672,6.741,2.039,9.379c0.1,0.459,0.507,0.788,0.977,0.788h6.389c0.47,0,0.877-0.328,0.977-0.788
			c1.367-2.638,1.878-5.884,2.039-9.379c0.175-0.804-0.16-1.633-0.845-2.089l-2.475-1.65C13.834,9.223,13.5,8.599,13.5,7.93V6.5h-4
			v1.43c0,0.669-0.334,1.293-0.891,1.664L6.135,11.244z"/>
		<rect x="9.5" y="4.5" fill="none" stroke="#000000" stroke-miterlimit="10" width="4" height="2"/>
		<polygon fill="none" stroke="#000000" stroke-linejoin="round" stroke-miterlimit="10" points="14.5,0.5 8.5,0.5 9,4.5 14,4.5 		
			"/>
		<polygon fill="none" stroke="#000000" stroke-linecap="round" stroke-linejoin="round" stroke-miterlimit="10" points="5.5,12.5 
			17.5,12.5 11.5,23.5 		"/>
		<polygon fill="none" stroke="#000000" stroke-linecap="round" stroke-linejoin="round" stroke-miterlimit="10" points="6.5,20.5 
			11.5,12.5 16.5,20.5 		"/>
	</g>
</g>
<g id="invisible_shape">
	<rect fill="none" width="24" height="24"/>
</g>
</svg>
