<?xml version="1.0" encoding="utf-8"?>
<!-- Generator: Adobe Illustrator 16.0.3, SVG Export Plug-In . SVG Version: 6.00 Build 0)  -->
<!DOCTYPE svg PUBLIC "-//W3C//DTD SVG 1.1//EN" "http://www.w3.org/Graphics/SVG/1.1/DTD/svg11.dtd">
<svg version="1.1" xmlns="http://www.w3.org/2000/svg" xmlns:xlink="http://www.w3.org/1999/xlink" x="0px" y="0px" width="24px"
	 height="24px" viewBox="0 0 24 24" enable-background="new 0 0 24 24" xml:space="preserve">
<g id="Outline_Icons">
	<g>
		<g>
			
				<line fill="none" stroke="#000000" stroke-linejoin="round" stroke-miterlimit="10" x1="6.803" y1="16.541" x2="4.25" y2="22.518"/>
			
				<line fill="none" stroke="#000000" stroke-linecap="round" stroke-linejoin="round" stroke-miterlimit="10" x1="1.95" y1="21.536" x2="6.549" y2="23.5"/>
			<line fill="none" stroke="#000000" stroke-linejoin="round" stroke-miterlimit="10" x1="7.514" y1="5.97" x2="13.95" y2="8.72"/>
			<g>
				<g>
					<path d="M6.93,10.656c-0.194,0-0.38,0.114-0.461,0.304c-0.108,0.254,0.009,0.547,0.264,0.657
						c0.064,0.027,0.131,0.04,0.196,0.04c0.194,0,0.378-0.114,0.46-0.304c0.107-0.253-0.01-0.548-0.264-0.657
						C7.062,10.67,6.995,10.656,6.93,10.656L6.93,10.656z"/>
				</g>
			</g>
			<g>
				<g>
					<path d="M9.027,8.291c-0.194,0-0.38,0.114-0.461,0.304C8.458,8.849,8.576,9.142,8.83,9.251c0.064,0.027,0.131,0.04,0.196,0.04
						c0.194,0,0.379-0.113,0.46-0.304c0.108-0.253-0.009-0.548-0.264-0.656C9.159,8.304,9.093,8.291,9.027,8.291L9.027,8.291z"/>
				</g>
			</g>
			<g>
				<g>
					<path d="M6.693,13.831c-0.193,0-0.378,0.114-0.459,0.303c-0.108,0.255,0.009,0.548,0.263,0.657
						c0.064,0.028,0.131,0.041,0.196,0.041c0.194,0,0.379-0.114,0.46-0.304c0.109-0.254-0.009-0.547-0.263-0.656
						C6.826,13.844,6.76,13.831,6.693,13.831L6.693,13.831z"/>
				</g>
			</g>
			<g>
				<g>
					<path d="M9.295,12.754c-0.194,0-0.38,0.115-0.46,0.304c-0.109,0.254,0.009,0.548,0.263,0.656
						c0.064,0.027,0.131,0.041,0.196,0.041c0.194,0,0.379-0.114,0.46-0.304c0.108-0.253-0.009-0.547-0.264-0.656
						C9.427,12.768,9.36,12.754,9.295,12.754L9.295,12.754z"/>
				</g>
			</g>
			<g>
				<g>
					<path d="M11.394,10.389c-0.194,0-0.38,0.114-0.461,0.304c-0.108,0.254,0.01,0.548,0.264,0.656
						c0.064,0.027,0.131,0.041,0.197,0.041c0.193,0,0.378-0.114,0.459-0.304c0.108-0.253-0.01-0.548-0.264-0.657
						C11.525,10.402,11.459,10.389,11.394,10.389L11.394,10.389z"/>
				</g>
			</g>
			<path fill="none" stroke="#000000" stroke-linecap="round" stroke-linejoin="round" stroke-miterlimit="10" d="M4.696,11.291
				l5.438-10.183l5.518,2.357l-3.599,10.968c-0.867,2.031-3.218,2.975-5.25,2.107C4.771,15.673,3.828,13.322,4.696,11.291z"/>
		</g>
		
			<line fill="none" stroke="#000000" stroke-linejoin="round" stroke-miterlimit="10" x1="18.963" y1="16.282" x2="20.034" y2="22.693"/>
		
			<line fill="none" stroke="#000000" stroke-linecap="round" stroke-linejoin="round" stroke-miterlimit="10" x1="22.5" y1="22.282" x2="17.568" y2="23.105"/>
		
			<line fill="none" stroke="#000000" stroke-linecap="round" stroke-linejoin="round" stroke-miterlimit="10" x1="20.768" y1="5.843" x2="16.478" y2="6.56"/>
		<g>
			<g>
				<path d="M20.113,10.521c-0.027,0-0.055,0.002-0.083,0.007c-0.273,0.045-0.457,0.304-0.411,0.575
					c0.04,0.245,0.252,0.418,0.492,0.418c0.027,0,0.055-0.002,0.083-0.007c0.272-0.046,0.457-0.303,0.411-0.576
					C20.564,10.695,20.354,10.521,20.113,10.521L20.113,10.521z"/>
			</g>
		</g>
		<g>
			<g>
				<path d="M18.632,7.728c-0.027,0-0.055,0.002-0.083,0.007c-0.272,0.045-0.456,0.304-0.41,0.575
					c0.04,0.245,0.252,0.418,0.492,0.418c0.027,0,0.055-0.003,0.083-0.008c0.272-0.045,0.456-0.303,0.411-0.575
					C19.084,7.901,18.872,7.728,18.632,7.728L18.632,7.728z"/>
			</g>
		</g>
		<g>
			<g>
				<path d="M19.593,13.661c-0.028,0-0.056,0.002-0.084,0.007c-0.272,0.046-0.456,0.303-0.411,0.575
					c0.041,0.245,0.252,0.418,0.493,0.418c0.027,0,0.055-0.002,0.083-0.007c0.272-0.046,0.456-0.304,0.41-0.576
					C20.044,13.834,19.832,13.661,19.593,13.661L19.593,13.661z"/>
			</g>
		</g>
		<g>
			<g>
				<path d="M17.318,12.002c-0.027,0-0.056,0.002-0.083,0.007c-0.272,0.046-0.456,0.304-0.411,0.576
					c0.041,0.245,0.253,0.418,0.492,0.418c0.028,0,0.056-0.002,0.084-0.007c0.272-0.045,0.456-0.303,0.411-0.575
					C17.771,12.176,17.559,12.002,17.318,12.002L17.318,12.002z"/>
			</g>
		</g>
		<g>
			<g>
				<path d="M15.838,9.208c-0.027,0-0.055,0.002-0.083,0.007c-0.272,0.045-0.456,0.304-0.411,0.575
					c0.041,0.245,0.252,0.418,0.493,0.418c0.027,0,0.055-0.002,0.083-0.007c0.272-0.046,0.456-0.303,0.41-0.576
					C16.29,9.381,16.078,9.208,15.838,9.208L15.838,9.208z"/>
			</g>
		</g>
		<path fill="none" stroke="#000000" stroke-linecap="round" stroke-linejoin="round" stroke-miterlimit="10" d="M14.359,12.996
			c0.363,2.179,2.425,3.65,4.604,3.286c2.179-0.364,3.65-2.425,3.287-4.604L19.368,0.5L15.01,1.229"/>
	</g>
</g>
<g id="invisible_shape">
	<rect fill="none" width="24" height="24"/>
</g>
</svg>
