<?xml version="1.0" encoding="utf-8"?>
<!-- Generator: Adobe Illustrator 16.0.3, SVG Export Plug-In . SVG Version: 6.00 Build 0)  -->
<!DOCTYPE svg PUBLIC "-//W3C//DTD SVG 1.1//EN" "http://www.w3.org/Graphics/SVG/1.1/DTD/svg11.dtd">
<svg version="1.1" xmlns="http://www.w3.org/2000/svg" xmlns:xlink="http://www.w3.org/1999/xlink" x="0px" y="0px" width="24px"
	 height="24px" viewBox="0 0 24 24" enable-background="new 0 0 24 24" xml:space="preserve">
<g id="Outline_Icons">
	<g>
		<line fill="none" stroke="#000000" stroke-linejoin="round" stroke-miterlimit="10" x1="12.5" y1="16.5" x2="12.5" y2="23.5"/>
		
			<line fill="none" stroke="#000000" stroke-linecap="round" stroke-linejoin="round" stroke-miterlimit="10" x1="10" y1="23.5" x2="15" y2="23.5"/>
		<line fill="none" stroke="#000000" stroke-linejoin="round" stroke-miterlimit="10" x1="9" y1="6.5" x2="16" y2="6.5"/>
		<g>
			<g>
				<path d="M10.5,11c-0.276,0-0.5,0.224-0.5,0.5c0,0.276,0.224,0.5,0.5,0.5s0.5-0.224,0.5-0.5C11,11.224,10.776,11,10.5,11L10.5,11
					z"/>
			</g>
		</g>
		<g>
			<g>
				<path d="M11.5,8C11.224,8,11,8.224,11,8.5C11,8.776,11.224,9,11.5,9S12,8.776,12,8.5C12,8.224,11.776,8,11.5,8L11.5,8z"/>
			</g>
		</g>
		<g>
			<g>
				<path d="M11.531,14.011c-0.276,0-0.5,0.224-0.5,0.5s0.224,0.5,0.5,0.5s0.5-0.224,0.5-0.5S11.808,14.011,11.531,14.011
					L11.531,14.011z"/>
			</g>
		</g>
		<g>
			<g>
				<path d="M13.5,12c-0.276,0-0.5,0.224-0.5,0.5c0,0.276,0.224,0.5,0.5,0.5s0.5-0.224,0.5-0.5C14,12.224,13.776,12,13.5,12L13.5,12
					z"/>
			</g>
		</g>
		<g>
			<g>
				<path d="M14.5,9C14.224,9,14,9.224,14,9.5c0,0.276,0.224,0.5,0.5,0.5S15,9.776,15,9.5C15,9.224,14.776,9,14.5,9L14.5,9z"/>
			</g>
		</g>
		<path fill="none" stroke="#000000" stroke-linecap="round" stroke-linejoin="round" stroke-miterlimit="10" d="M8.5,12.5l1-12h6
			l1,12c0,2.209-1.791,4-4,4S8.5,14.709,8.5,12.5z"/>
	</g>
</g>
<g id="invisible_shape">
	<rect fill="none" width="24" height="24"/>
</g>
</svg>
