<?xml version="1.0" encoding="utf-8"?>
<!-- Generator: Adobe Illustrator 19.2.1, SVG Export Plug-In . SVG Version: 6.00 Build 0)  -->
<svg version="1.1" xmlns="http://www.w3.org/2000/svg" xmlns:xlink="http://www.w3.org/1999/xlink" x="0px" y="0px" width="24px"
	 height="24px" viewBox="0 0 24 24" enable-background="new 0 0 24 24" xml:space="preserve">
<g id="Filled_Icons">
	<path d="M23.5,6h-23C0.224,6,0,6.224,0,6.5v12C0,18.776,0.224,19,0.5,19h23c0.276,0,0.5-0.224,0.5-0.5v-12
		C24,6.224,23.776,6,23.5,6z M8,10H7v5.5C7,15.776,6.776,16,6.5,16S6,15.776,6,15.5V10H5c-0.276,0-0.5-0.224-0.5-0.5S4.724,9,5,9h3
		c0.276,0,0.5,0.224,0.5,0.5S8.276,10,8,10z M13.947,15.276c0.123,0.247,0.023,0.547-0.224,0.671C13.652,15.983,13.576,16,13.5,16
		c-0.184,0-0.36-0.102-0.448-0.276L12,13.619l-1.053,2.105C10.859,15.898,10.683,16,10.5,16c-0.075,0-0.151-0.017-0.223-0.053
		c-0.247-0.124-0.347-0.424-0.224-0.671l1.388-2.776l-1.388-2.776c-0.123-0.246-0.023-0.547,0.224-0.671
		c0.247-0.125,0.547-0.022,0.671,0.224L12,11.382l1.053-2.105c0.124-0.246,0.424-0.349,0.671-0.224
		c0.247,0.124,0.347,0.425,0.224,0.671L12.559,12.5L13.947,15.276z M19,10h-1v5.5c0,0.276-0.224,0.5-0.5,0.5S17,15.776,17,15.5V10
		h-0.98c-0.276,0-0.5-0.224-0.5-0.5S15.743,9,16.02,9H19c0.276,0,0.5,0.224,0.5,0.5S19.276,10,19,10z"/>
</g>
<g id="Invisible_Shape">
	<rect fill="none" width="24" height="24"/>
</g>
</svg>
