<?xml version="1.0" encoding="utf-8"?>
<!-- Generator: Adobe Illustrator 19.2.1, SVG Export Plug-In . SVG Version: 6.00 Build 0)  -->
<svg version="1.1" xmlns="http://www.w3.org/2000/svg" xmlns:xlink="http://www.w3.org/1999/xlink" x="0px" y="0px" width="24px"
	 height="24px" viewBox="0 0 24 24" enable-background="new 0 0 24 24" xml:space="preserve">
<g id="Filled_Icons">
	<path d="M21.854,6.147l-6-6C15.76,0.053,15.632,0,15.5,0h-13C2.224,0,2,0.224,2,0.5v23C2,23.776,2.224,24,2.5,24h19
		c0.276,0,0.5-0.224,0.5-0.5v-17C22,6.367,21.947,6.24,21.854,6.147z M8.5,14H8v4.5C8,18.776,7.776,19,7.5,19S7,18.776,7,18.5V14
		H6.5C6.224,14,6,13.776,6,13.5S6.224,13,6.5,13h2C8.776,13,9,13.224,9,13.5S8.776,14,8.5,14z M13.929,18.242
		c0.142,0.237,0.065,0.545-0.171,0.686c-0.236,0.142-0.543,0.065-0.686-0.171L12,16.972l-1.071,1.786
		c-0.143,0.236-0.45,0.312-0.686,0.171c-0.237-0.142-0.313-0.449-0.171-0.686L11.417,16l-1.346-2.242
		c-0.142-0.237-0.065-0.544,0.171-0.687c0.237-0.143,0.544-0.065,0.686,0.171L12,15.028l1.071-1.786
		c0.142-0.236,0.449-0.313,0.686-0.171c0.237,0.143,0.313,0.449,0.171,0.687L12.583,16L13.929,18.242z M17.5,14H17v4.5
		c0,0.276-0.224,0.5-0.5,0.5S16,18.776,16,18.5V14h-0.5c-0.276,0-0.5-0.224-0.5-0.5s0.224-0.5,0.5-0.5h2c0.276,0,0.5,0.224,0.5,0.5
		S17.776,14,17.5,14z M15,7V1l6,6H15z"/>
</g>
<g id="Invisible_Shape">
	<rect fill="none" width="24" height="24"/>
</g>
</svg>
