<?xml version="1.0" encoding="utf-8"?>
<!-- Generator: Adobe Illustrator 19.2.1, SVG Export Plug-In . SVG Version: 6.00 Build 0)  -->
<svg version="1.1" xmlns="http://www.w3.org/2000/svg" xmlns:xlink="http://www.w3.org/1999/xlink" x="0px" y="0px" width="24px"
	 height="24px" viewBox="0 0 24 24" enable-background="new 0 0 24 24" xml:space="preserve">
<g id="Filled_Icons">
	<g>
		<path d="M23.5,6h-23C0.224,6,0,6.224,0,6.5v12C0,18.776,0.224,19,0.5,19h23c0.276,0,0.5-0.224,0.5-0.5v-12
			C24,6.224,23.776,6,23.5,6z M9.458,15.345c0.086,0.262-0.057,0.545-0.319,0.631C9.086,15.992,9.034,16,8.982,16
			c-0.21,0-0.406-0.133-0.475-0.345L7.638,13H7v2.5C7,15.776,6.776,16,6.5,16S6,15.776,6,15.5v-6C6,9.224,6.224,9,6.5,9H8
			c0.845,0,1.5,1.075,1.5,2c0,0.68-0.356,1.438-0.878,1.793L9.458,15.345z M14,10h-1v5.5c0,0.276-0.224,0.5-0.5,0.5
			S12,15.776,12,15.5V10h-1c-0.276,0-0.5-0.224-0.5-0.5S10.724,9,11,9h3c0.276,0,0.5,0.224,0.5,0.5S14.276,10,14,10z M19,10h-2
			v2.001L18.5,12c0.276,0,0.5,0.224,0.5,0.5S18.776,13,18.5,13L17,13.001V15.5c0,0.276-0.224,0.5-0.5,0.5S16,15.776,16,15.5v-6
			C16,9.224,16.224,9,16.5,9H19c0.276,0,0.5,0.224,0.5,0.5S19.276,10,19,10z"/>
		<path d="M7.999,10H7v2h1c0.14-0.014,0.5-0.47,0.5-1S8.14,10.014,7.999,10z"/>
	</g>
</g>
<g id="Invisible_Shape">
	<rect fill="none" width="24" height="24"/>
</g>
</svg>
