<?xml version="1.0" encoding="utf-8"?>
<!-- Generator: Adobe Illustrator 19.2.1, SVG Export Plug-In . SVG Version: 6.00 Build 0)  -->
<svg version="1.1" xmlns="http://www.w3.org/2000/svg" xmlns:xlink="http://www.w3.org/1999/xlink" x="0px" y="0px" width="24px"
	 height="24px" viewBox="0 0 24 24" enable-background="new 0 0 24 24" xml:space="preserve">
<g id="Filled_Icons">
	<g>
		<path d="M6.5,14H6v4h0.5C7.369,18,8,17.158,8,16S7.369,14,6.5,14z"/>
		<path d="M12,14c-0.547,0-1,0.15-1,2s0.453,2,1,2s1-0.15,1-2S12.547,14,12,14z"/>
		<path d="M21.854,6.147l-6-6C15.76,0.053,15.632,0,15.5,0h-13C2.224,0,2,0.224,2,0.5v23C2,23.776,2.224,24,2.5,24h19
			c0.276,0,0.5-0.224,0.5-0.5v-17C22,6.367,21.947,6.24,21.854,6.147z M6.5,19h-1C5.224,19,5,18.776,5,18.5v-5
			C5,13.224,5.224,13,5.5,13h1C7.925,13,9,14.289,9,16S7.925,19,6.5,19z M12,19c-2,0-2-2.102-2-3c0-0.898,0-3,2-3s2,2.102,2,3
			C14,16.898,14,19,12,19z M16.91,18c0.303,0,0.64-0.065,0.808-0.846c0.058-0.27,0.324-0.445,0.594-0.384
			c0.27,0.059,0.442,0.324,0.384,0.595C18.405,18.717,17.564,19,16.91,19C15,19,15,16.974,15,16c0-0.975,0-3.001,1.91-3.001
			c0.654,0,1.495,0.284,1.786,1.636c0.058,0.269-0.114,0.535-0.384,0.594c-0.27,0.059-0.536-0.113-0.594-0.385
			c-0.168-0.779-0.505-0.845-0.808-0.845C16.395,13.999,16,14.146,16,16C16,17.853,16.395,18,16.91,18z M15,7V1l6,6H15z"/>
	</g>
</g>
<g id="Invisible_Shape">
	<rect fill="none" width="24" height="24"/>
</g>
</svg>
