<?xml version="1.0" encoding="utf-8"?>
<!-- Generator: Adobe Illustrator 19.2.1, SVG Export Plug-In . SVG Version: 6.00 Build 0)  -->
<svg version="1.1" xmlns="http://www.w3.org/2000/svg" xmlns:xlink="http://www.w3.org/1999/xlink" x="0px" y="0px" width="24px"
	 height="24px" viewBox="0 0 24 24" enable-background="new 0 0 24 24" xml:space="preserve">
<g id="Filled_Icons">
	<g>
		<path d="M11.886,20.383c-0.184-0.581-0.007-1.136,0.364-1.507l2.572-2.571c0.125-0.127,2.031-1.516,2.178-1.623V5.5
			c0-0.133-0.053-0.26-0.146-0.353l-5-5C11.76,0.053,11.632,0,11.5,0h-11C0.224,0,0,0.224,0,0.5v21C0,21.776,0.224,22,0.5,22h9.689
			L11.886,20.383z M11,1l5,5h-5V1z"/>
		<g>
			<path d="M10.444,23.138C10.117,23.451,10.34,24,10.789,24h4.233c0.123,0,0.242-0.045,0.333-0.127l0.625-0.559l-2.791-2.79
				L10.444,23.138z"/>
			<path d="M23.545,15.321L21.423,13.2c-0.175-0.176-0.452-0.196-0.649-0.05l-5.244,3.861l-2.219,2.218l4.242,4.241l2.271-2.277
				l3.774-5.225C23.74,15.769,23.718,15.494,23.545,15.321z"/>
		</g>
	</g>
</g>
<g id="Invisible_Shape">
	<rect fill="none" width="24" height="24"/>
</g>
</svg>
