<?xml version="1.0" encoding="utf-8"?>
<!-- Generator: Adobe Illustrator 19.2.1, SVG Export Plug-In . SVG Version: 6.00 Build 0)  -->
<svg version="1.1" xmlns="http://www.w3.org/2000/svg" xmlns:xlink="http://www.w3.org/1999/xlink" x="0px" y="0px" width="24px"
	 height="24px" viewBox="0 0 24 24" enable-background="new 0 0 24 24" xml:space="preserve">
<g id="Filled_Icons">
	<g>
		<path d="M19.854,6.147l-6-6C13.76,0.053,13.632,0,13.5,0h-11C2.224,0,2,0.224,2,0.5v23C2,23.776,2.224,24,2.5,24h17
			c0.276,0,0.5-0.224,0.5-0.5v-17C20,6.367,19.947,6.24,19.854,6.147z M6,7h5c0.276,0,0.5,0.224,0.5,0.5S11.276,8,11,8H6
			C5.724,8,5.5,7.776,5.5,7.5S5.724,7,6,7z M6,10h9c0.276,0,0.5,0.224,0.5,0.5S15.276,11,15,11H6c-0.276,0-0.5-0.224-0.5-0.5
			S5.724,10,6,10z M8,20H6c-0.276,0-0.5-0.224-0.5-0.5S5.724,19,6,19h2c0.276,0,0.5,0.224,0.5,0.5S8.276,20,8,20z M8,17H6
			c-0.276,0-0.5-0.224-0.5-0.5S5.724,16,6,16h2c0.276,0,0.5,0.224,0.5,0.5S8.276,17,8,17z M8,14H6c-0.276,0-0.5-0.224-0.5-0.5
			S5.724,13,6,13h2c0.276,0,0.5,0.224,0.5,0.5S8.276,14,8,14z M13.5,20c-1.93,0-3.5-1.57-3.5-3.5s1.57-3.5,3.5-3.5s3.5,1.57,3.5,3.5
			S15.43,20,13.5,20z M13,7V1l6,6H13z"/>
		<path d="M13,14v3l-1.352,1.164C12.106,18.674,12.763,19,13.5,19c1.378,0,2.5-1.121,2.5-2.5S14.878,14,13,14z"/>
	</g>
</g>
<g id="Invisible_Shape">
	<rect fill="none" width="24" height="24"/>
</g>
</svg>
