<?xml version="1.0" encoding="utf-8"?>
<!-- Generator: Adobe Illustrator 19.2.1, SVG Export Plug-In . SVG Version: 6.00 Build 0)  -->
<svg version="1.1" xmlns="http://www.w3.org/2000/svg" xmlns:xlink="http://www.w3.org/1999/xlink" x="0px" y="0px" width="24px"
	 height="24px" viewBox="0 0 24 24" enable-background="new 0 0 24 24" xml:space="preserve">
<g id="Filled_Icons">
	<g>
		<rect x="7" y="18" width="3" height="2"/>
		<rect x="11" y="18" width="6" height="2"/>
		<rect x="11" y="12" width="6" height="2"/>
		<rect x="11" y="15" width="6" height="2"/>
		<rect x="7" y="12" width="3" height="2"/>
		<rect x="7" y="15" width="3" height="2"/>
		<rect x="11" y="9" width="6" height="2"/>
		<rect x="7" y="9" width="3" height="2"/>
		<path d="M21,6.5c0-0.133-0.053-0.26-0.146-0.353l-6-6C14.76,0.053,14.632,0,14.5,0h-11C3.224,0,3,0.224,3,0.5v23
			C3,23.776,3.224,24,3.5,24h17c0.276,0,0.5-0.224,0.5-0.5V6.5z M18,20.5c0,0.275-0.224,0.5-0.5,0.5h-11C6.224,21,6,20.775,6,20.5
			v-12C6,8.225,6.224,8,6.5,8h11C17.776,8,18,8.225,18,8.5V20.5z M14,7V1l6,6H14z"/>
	</g>
</g>
<g id="Invisible_Shape">
	<rect fill="none" width="24" height="24"/>
</g>
</svg>
