<?xml version="1.0" encoding="utf-8"?>
<!-- Generator: Adobe Illustrator 19.2.1, SVG Export Plug-In . SVG Version: 6.00 Build 0)  -->
<svg version="1.1" xmlns="http://www.w3.org/2000/svg" xmlns:xlink="http://www.w3.org/1999/xlink" x="0px" y="0px" width="24px"
	 height="24px" viewBox="0 0 24 24" enable-background="new 0 0 24 24" xml:space="preserve">
<g id="Filled_Icons">
	<g>
		<path d="M12.5,14H12v4h0.5c0.869,0,1.5-0.842,1.5-2S13.369,14,12.5,14z"/>
		<path d="M7.75,14.001H7v1.5h0.75c0.413,0,0.75-0.336,0.75-0.75C8.5,14.338,8.163,14.001,7.75,14.001z"/>
		<path d="M21.854,6.147l-6-6C15.76,0.053,15.632,0,15.5,0h-13C2.224,0,2,0.224,2,0.5v23C2,23.776,2.224,24,2.5,24h19
			c0.276,0,0.5-0.224,0.5-0.5v-17C22,6.367,21.947,6.24,21.854,6.147z M7.75,16.501H7V18.5C7,18.776,6.776,19,6.5,19
			S6,18.776,6,18.5v-4.999c0-0.276,0.224-0.5,0.5-0.5h1.25c0.965,0,1.75,0.786,1.75,1.75C9.5,15.717,8.715,16.501,7.75,16.501z
			 M12.5,19h-1c-0.276,0-0.5-0.224-0.5-0.5v-5c0-0.276,0.224-0.5,0.5-0.5h1c1.425,0,2.5,1.289,2.5,3S13.925,19,12.5,19z M19,14h-2v1
			h1c0.276,0,0.5,0.224,0.5,0.5S18.276,16,18,16h-1v2.5c0,0.276-0.224,0.5-0.5,0.5S16,18.776,16,18.5v-5c0-0.276,0.224-0.5,0.5-0.5
			H19c0.276,0,0.5,0.224,0.5,0.5S19.276,14,19,14z M15,7V1l6,6H15z"/>
	</g>
</g>
<g id="Invisible_Shape">
	<rect fill="none" width="24" height="24"/>
</g>
</svg>
