<?xml version="1.0" encoding="utf-8"?>
<!-- Generator: Adobe Illustrator 19.2.1, SVG Export Plug-In . SVG Version: 6.00 Build 0)  -->
<svg version="1.1" xmlns="http://www.w3.org/2000/svg" xmlns:xlink="http://www.w3.org/1999/xlink" x="0px" y="0px" width="24px"
	 height="24px" viewBox="0 0 24 24" enable-background="new 0 0 24 24" xml:space="preserve">
<g id="Filled_Icons">
	<g>
		<path d="M16.854,5.147l-5-5C11.76,0.053,11.632,0,11.5,0h-11C0.224,0,0,0.224,0,0.5v21C0,21.776,0.224,22,0.5,22h10.868
			l0.689-2.411c0.07-0.245,0.202-0.468,0.382-0.649L17,14.379V5.5C17,5.367,16.947,5.24,16.854,5.147z M6,7.5C6,7.224,6.224,7,6.5,7
			h3C9.776,7,10,7.224,10,7.5v3c0,0.276-0.224,0.5-0.5,0.5h-3C6.224,11,6,10.776,6,10.5V7.5z M7,15.5C7,15.776,6.776,16,6.5,16h-3
			C3.224,16,3,15.776,3,15.5v-3C3,12.224,3.224,12,3.5,12h3C6.776,12,7,12.224,7,12.5V15.5z M13,15.5c0,0.276-0.224,0.5-0.5,0.5h-3
			C9.224,16,9,15.776,9,15.5v-3C9,12.224,9.224,12,9.5,12h3c0.276,0,0.5,0.224,0.5,0.5V15.5z M11,6V1l5,5H11z"/>
		<g>
			<path d="M12.939,20.142l-0.92,3.217c-0.05,0.175-0.001,0.362,0.127,0.491c0.121,0.121,0.298,0.179,0.491,0.128l3.217-0.92
				L12.939,20.142z"/>
			<rect x="14.11" y="16.227" transform="matrix(0.707 -0.7072 0.7072 0.707 -7.9524 17.7956)" width="6.78" height="4.535"/>
			<path d="M23.854,14.641l-2.5-2.5c-0.188-0.188-0.52-0.188-0.707,0L19,13.787l3.207,3.207l1.647-1.646
				C24.05,15.152,24.05,14.836,23.854,14.641z"/>
		</g>
	</g>
</g>
<g id="Invisible_Shape">
	<rect fill="none" width="24" height="24"/>
</g>
</svg>
