<?xml version="1.0" encoding="utf-8"?>
<!-- Generator: Adobe Illustrator 19.2.1, SVG Export Plug-In . SVG Version: 6.00 Build 0)  -->
<svg version="1.1" xmlns="http://www.w3.org/2000/svg" xmlns:xlink="http://www.w3.org/1999/xlink" x="0px" y="0px" width="24px"
	 height="24px" viewBox="0 0 24 24" enable-background="new 0 0 24 24" xml:space="preserve">
<g id="Filled_Icons">
	<path d="M21.854,6.147l-6-6C15.76,0.053,15.632,0,15.5,0h-13C2.224,0,2,0.224,2,0.5v23C2,23.776,2.224,24,2.5,24h19
		c0.276,0,0.5-0.224,0.5-0.5v-17C22,6.367,21.947,6.24,21.854,6.147z M9.337,18.148c0.194,0.195,0.193,0.512-0.002,0.707
		c-0.195,0.193-0.511,0.193-0.708-0.003L7,17.214V18.5C7,18.776,6.776,19,6.5,19S6,18.776,6,18.5v-5C6,13.224,6.224,13,6.5,13
		S7,13.224,7,13.5v1.287l1.627-1.639c0.196-0.196,0.512-0.197,0.708-0.004c0.196,0.195,0.197,0.512,0.002,0.708L7.205,16
		L9.337,18.148z M13,15c0.276,0,0.5,0.224,0.5,0.5S13.276,16,13,16h-1v2h2c0.276,0,0.5,0.224,0.5,0.5S14.276,19,14,19h-2.5
		c-0.276,0-0.5-0.224-0.5-0.5v-5c0-0.276,0.224-0.5,0.5-0.5H14c0.276,0,0.5,0.224,0.5,0.5S14.276,14,14,14h-2v1H13z M19.187,13.754
		L18,16.119V18.5c0,0.276-0.224,0.5-0.5,0.5S17,18.776,17,18.5v-2.381l-1.188-2.365c-0.124-0.247-0.024-0.547,0.222-0.672
		c0.25-0.123,0.548-0.023,0.671,0.223l0.794,1.581l0.794-1.581c0.124-0.246,0.425-0.347,0.671-0.223
		C19.211,13.207,19.311,13.507,19.187,13.754z M15,7V1l6,6H15z"/>
</g>
<g id="Invisible_Shape">
	<rect fill="none" width="24" height="24"/>
</g>
</svg>
