<?xml version="1.0" encoding="utf-8"?>
<!-- Generator: Adobe Illustrator 19.2.1, SVG Export Plug-In . SVG Version: 6.00 Build 0)  -->
<svg version="1.1" xmlns="http://www.w3.org/2000/svg" xmlns:xlink="http://www.w3.org/1999/xlink" x="0px" y="0px" width="24px"
	 height="24px" viewBox="0 0 24 24" enable-background="new 0 0 24 24" xml:space="preserve">
<g id="Filled_Icons">
	<path d="M23.5,6h-23C0.224,6,0,6.224,0,6.5v12C0,18.776,0.224,19,0.5,19h23c0.276,0,0.5-0.224,0.5-0.5v-12
		C24,6.224,23.776,6,23.5,6z M9.373,15.189c0.173,0.215,0.138,0.529-0.077,0.703c-0.092,0.073-0.203,0.109-0.312,0.109
		c-0.146,0-0.292-0.065-0.391-0.188L7,13.829v1.673c0,0.276-0.224,0.5-0.5,0.5S6,15.778,6,15.502v-3.104l0,0V9.5
		C6,9.224,6.224,9,6.5,9S7,9.224,7,9.5v1.551l1.602-1.875c0.18-0.211,0.496-0.234,0.705-0.057c0.21,0.18,0.235,0.496,0.056,0.705
		l-2.214,2.592L9.373,15.189z M13.5,12c0.276,0,0.5,0.224,0.5,0.5S13.776,13,13.5,13H12v2.002h2c0.276,0,0.5,0.224,0.5,0.5
		c0,0.276-0.224,0.5-0.5,0.5h-2.5c-0.276,0-0.5-0.224-0.5-0.5V9.5C11,9.224,11.224,9,11.5,9H14c0.276,0,0.5,0.224,0.5,0.5
		S14.276,10,14,10h-2v2H13.5z M19.447,9.724L18,12.619V15.5c0,0.276-0.224,0.5-0.5,0.5S17,15.776,17,15.5v-3.057l-1.441-2.709
		c-0.13-0.243-0.037-0.546,0.206-0.676c0.243-0.131,0.547-0.037,0.676,0.207l1.092,2.051l1.02-2.04
		c0.124-0.247,0.424-0.347,0.671-0.224C19.471,9.176,19.571,9.477,19.447,9.724z"/>
</g>
<g id="Invisible_Shape">
	<rect fill="none" width="24" height="24"/>
</g>
</svg>
