<?xml version="1.0" encoding="utf-8"?>
<!-- Generator: Adobe Illustrator 19.2.1, SVG Export Plug-In . SVG Version: 6.00 Build 0)  -->
<svg version="1.1" xmlns="http://www.w3.org/2000/svg" xmlns:xlink="http://www.w3.org/1999/xlink" x="0px" y="0px" width="24px"
	 height="24px" viewBox="0 0 24 24" enable-background="new 0 0 24 24" xml:space="preserve">
<g id="Filled_Icons">
	<g>
		<path d="M12.742,10H12v2.001h0.742c1.167,0,1.258-0.766,1.258-1C14,10.766,13.909,10,12.742,10z"/>
		<path d="M7.742,10H7v2.001h0.742c1.167,0,1.258-0.766,1.258-1C9,10.766,8.909,10,7.742,10z"/>
		<path d="M23.5,6h-23C0.224,6,0,6.224,0,6.5v12C0,18.776,0.224,19,0.5,19h23c0.276,0,0.5-0.224,0.5-0.5v-12
			C24,6.224,23.776,6,23.5,6z M7.742,13.001H7v2.498c0,0.276-0.224,0.5-0.5,0.5S6,15.775,6,15.499V9.5C6,9.224,6.224,9,6.5,9h1.242
			C9.293,9,10,10.037,10,11.001C10,11.965,9.293,13.001,7.742,13.001z M12.742,13.001H12v2.498c0,0.276-0.224,0.5-0.5,0.5
			s-0.5-0.224-0.5-0.5V9.5C11,9.224,11.224,9,11.5,9h1.242C14.293,9,15,10.037,15,11.001C15,11.965,14.293,13.001,12.742,13.001z
			 M19,10.001h-1V15.5c0,0.276-0.224,0.5-0.5,0.5S17,15.776,17,15.5v-5.499h-1c-0.276,0-0.5-0.224-0.5-0.5
			c0-0.276,0.224-0.5,0.5-0.5h3c0.276,0,0.5,0.224,0.5,0.5C19.5,9.777,19.276,10.001,19,10.001z"/>
	</g>
</g>
<g id="Invisible_Shape">
	<rect fill="none" width="24" height="24"/>
</g>
</svg>
