<?xml version="1.0" encoding="utf-8"?>
<!-- Generator: Adobe Illustrator 19.2.1, SVG Export Plug-In . SVG Version: 6.00 Build 0)  -->
<svg version="1.1" xmlns="http://www.w3.org/2000/svg" xmlns:xlink="http://www.w3.org/1999/xlink" x="0px" y="0px" width="24px"
	 height="24px" viewBox="0 0 24 24" enable-background="new 0 0 24 24" xml:space="preserve">
<g id="Filled_Icons">
	<g>
		<path d="M7.75,14.001H7v1.5h0.75c0.413,0,0.75-0.336,0.75-0.75C8.5,14.338,8.163,14.001,7.75,14.001z"/>
		<path d="M12.75,14.001H12v1.5h0.75c0.413,0,0.75-0.336,0.75-0.75C13.5,14.338,13.163,14.001,12.75,14.001z"/>
		<path d="M21.854,6.147l-6-6C15.76,0.053,15.632,0,15.5,0h-13C2.224,0,2,0.224,2,0.5v23C2,23.776,2.224,24,2.5,24h19
			c0.276,0,0.5-0.224,0.5-0.5v-17C22,6.367,21.947,6.24,21.854,6.147z M7.75,16.501H7V18.5C7,18.776,6.776,19,6.5,19
			S6,18.776,6,18.5v-4.999c0-0.276,0.224-0.5,0.5-0.5h1.25c0.965,0,1.75,0.786,1.75,1.75C9.5,15.717,8.715,16.501,7.75,16.501z
			 M12.75,16.501H12V18.5c0,0.276-0.224,0.5-0.5,0.5S11,18.776,11,18.5v-4.999c0-0.276,0.224-0.5,0.5-0.5h1.25
			c0.965,0,1.75,0.786,1.75,1.75C14.5,15.717,13.715,16.501,12.75,16.501z M18.5,14H18v4.5c0,0.276-0.224,0.5-0.5,0.5
			S17,18.776,17,18.5V14h-0.5c-0.276,0-0.5-0.224-0.5-0.5s0.224-0.5,0.5-0.5h2c0.276,0,0.5,0.224,0.5,0.5S18.776,14,18.5,14z M15,7
			V1l6,6H15z"/>
	</g>
</g>
<g id="Invisible_Shape">
	<rect fill="none" width="24" height="24"/>
</g>
</svg>
