<?xml version="1.0" encoding="utf-8"?>
<!-- Generator: Adobe Illustrator 19.2.1, SVG Export Plug-In . SVG Version: 6.00 Build 0)  -->
<svg version="1.1" xmlns="http://www.w3.org/2000/svg" xmlns:xlink="http://www.w3.org/1999/xlink" x="0px" y="0px" width="24px"
	 height="24px" viewBox="0 0 24 24" enable-background="new 0 0 24 24" xml:space="preserve">
<g id="Filled_Icons">
	<path d="M21.854,6.147l-6-6C15.76,0.053,15.632,0,15.5,0h-13C2.224,0,2,0.224,2,0.5v23C2,23.776,2.224,24,2.5,24h19
		c0.276,0,0.5-0.224,0.5-0.5v-17C22,6.367,21.947,6.24,21.854,6.147z M14.968,9.293L11.737,14H6.025
		C6.386,9.656,11.157,7.109,14.968,9.293z M6.025,15h5.739l3.655,4.424C11.623,22.065,6.406,19.578,6.025,15z M16.19,18.787
		l-3.565-4.314l3.168-4.616C18.565,12.125,18.757,16.275,16.19,18.787z M15,7V1l6,6H15z"/>
</g>
<g id="Invisible_Shape">
	<rect fill="none" width="24" height="24"/>
</g>
</svg>
