<?xml version="1.0" encoding="utf-8"?>
<!-- Generator: Adobe Illustrator 19.2.1, SVG Export Plug-In . SVG Version: 6.00 Build 0)  -->
<svg version="1.1" xmlns="http://www.w3.org/2000/svg" xmlns:xlink="http://www.w3.org/1999/xlink" x="0px" y="0px" width="24px"
	 height="24px" viewBox="0 0 24 24" enable-background="new 0 0 24 24" xml:space="preserve">
<g id="Filled_Icons">
	<g>
		<path d="M23.5,6h-23C0.224,6,0,6.224,0,6.5v12C0,18.776,0.224,19,0.5,19h23c0.276,0,0.5-0.224,0.5-0.5v-12
			C24,6.224,23.776,6,23.5,6z M6.438,16H5.5C5.224,16,5,15.776,5,15.5v-6C5,9.224,5.224,9,5.5,9h0.938C8.018,9,9,10.341,9,12.5
			S8.018,16,6.438,16z M11.966,16C10,16,10,13.365,10,12.5S10,9,11.966,9C12.894,9,14,9.607,14,12.5C14,15.394,12.894,16,11.966,16z
			 M17.5,15c0.023-0.001,0.704-0.024,1.053-0.724c0.124-0.246,0.424-0.348,0.671-0.224c0.247,0.124,0.347,0.425,0.224,0.671
			C18.816,15.986,17.553,16,17.5,16c-1.544,0-2.5-1.816-2.5-3.5S15.956,9,17.5,9c0.053,0,1.316,0.015,1.947,1.276
			c0.124,0.247,0.023,0.547-0.224,0.671c-0.247,0.125-0.547,0.023-0.671-0.224C18.195,10.008,17.507,10,17.5,10
			c-0.884,0-1.5,1.318-1.5,2.5C16,13.683,16.616,15,17.5,15z"/>
		<path d="M11.966,10C11.702,10,11,10,11,12.5s0.702,2.5,0.966,2.5C12.821,15,13,13.641,13,12.5S12.821,10,11.966,10z"/>
		<path d="M6.438,10H6v5h0.438C7.848,15,8,13.252,8,12.5S7.848,10,6.438,10z"/>
	</g>
</g>
<g id="Invisible_Shape">
	<rect fill="none" width="24" height="24"/>
</g>
</svg>
