<?xml version="1.0" encoding="utf-8"?>
<!-- Generator: Adobe Illustrator 19.2.1, SVG Export Plug-In . SVG Version: 6.00 Build 0)  -->
<svg version="1.1" xmlns="http://www.w3.org/2000/svg" xmlns:xlink="http://www.w3.org/1999/xlink" x="0px" y="0px" width="24px"
	 height="24px" viewBox="0 0 24 24" enable-background="new 0 0 24 24" xml:space="preserve">
<g id="Filled_Icons">
	<g>
		<path d="M11.938,10.001H11V15h0.938C13.171,15,14,13.707,14,12.5S13.171,10.001,11.938,10.001z"/>
		<path d="M6.742,10H6v2.001h0.742c1.167,0,1.258-0.766,1.258-1C8,10.766,7.909,10,6.742,10z"/>
		<path d="M23.5,6h-23C0.224,6,0,6.224,0,6.5v12C0,18.776,0.224,19,0.5,19h23c0.276,0,0.5-0.224,0.5-0.5v-12
			C24,6.224,23.776,6,23.5,6z M6.742,13.001H6v2.498c0,0.276-0.224,0.5-0.5,0.5S5,15.775,5,15.499V9.5C5,9.224,5.224,9,5.5,9h1.242
			C8.293,9,9,10.037,9,11.001C9,11.965,8.293,13.001,6.742,13.001z M11.938,16H10.5c-0.276,0-0.5-0.224-0.5-0.5V9.501
			c0-0.276,0.224-0.5,0.5-0.5h1.438C13.829,9.001,15,10.818,15,12.5C15,14.184,13.829,16,11.938,16z M19,10.001h-2v2h1.5
			c0.276,0,0.5,0.224,0.5,0.5c0,0.276-0.224,0.5-0.5,0.5H17V15.5c0,0.276-0.224,0.5-0.5,0.5S16,15.776,16,15.5V9.501
			c0-0.276,0.224-0.5,0.5-0.5H19c0.276,0,0.5,0.224,0.5,0.5C19.5,9.777,19.276,10.001,19,10.001z"/>
	</g>
</g>
<g id="Invisible_Shape">
	<rect fill="none" width="24" height="24"/>
</g>
</svg>
