<?xml version="1.0" encoding="utf-8"?>
<!-- Generator: Adobe Illustrator 19.2.1, SVG Export Plug-In . SVG Version: 6.00 Build 0)  -->
<svg version="1.1" xmlns="http://www.w3.org/2000/svg" xmlns:xlink="http://www.w3.org/1999/xlink" x="0px" y="0px" width="24px"
	 height="24px" viewBox="0 0 24 24" enable-background="new 0 0 24 24" xml:space="preserve">
<g id="Filled_Icons">
	<path d="M21.854,6.147l-6-6C15.76,0.053,15.632,0,15.5,0h-13C2.224,0,2,0.224,2,0.5v23C2,23.776,2.224,24,2.5,24h19
		c0.276,0,0.5-0.224,0.5-0.5v-17C22,6.367,21.947,6.24,21.854,6.147z M18,20.5c0,0.276-0.224,0.5-0.5,0.5h-3
		c-0.276,0-0.5-0.224-0.5-0.5v-3c0-0.276,0.224-0.5,0.5-0.5H16v-2H8v2h1.5c0.276,0,0.5,0.224,0.5,0.5v3c0,0.276-0.224,0.5-0.5,0.5
		h-3C6.224,21,6,20.776,6,20.5v-3C6,17.224,6.224,17,6.5,17H7v-2.5C7,14.224,7.224,14,7.5,14H11v-1h-0.5c-0.276,0-0.5-0.224-0.5-0.5
		v-3C10,9.224,10.224,9,10.5,9h3C13.776,9,14,9.224,14,9.5v3c0,0.276-0.224,0.5-0.5,0.5H12v1h4.5c0.276,0,0.5,0.224,0.5,0.5V17h0.5
		c0.276,0,0.5,0.224,0.5,0.5V20.5z M15,7V1l6,6H15z"/>
</g>
<g id="Invisible_Shape">
	<rect fill="none" width="24" height="24"/>
</g>
</svg>
