<?xml version="1.0" encoding="utf-8"?>
<!-- Generator: Adobe Illustrator 19.2.1, SVG Export Plug-In . SVG Version: 6.00 Build 0)  -->
<svg version="1.1" xmlns="http://www.w3.org/2000/svg" xmlns:xlink="http://www.w3.org/1999/xlink" x="0px" y="0px" width="24px"
	 height="24px" viewBox="0 0 24 24" enable-background="new 0 0 24 24" xml:space="preserve">
<g id="Filled_Icons">
	<g>
		<path d="M7.75,14H7v1.5h0.75c0.413,0,0.75-0.336,0.75-0.75S8.163,14,7.75,14z"/>
		<path d="M21.854,6.147l-6-6C15.76,0.053,15.632,0,15.5,0h-13C2.224,0,2,0.224,2,0.5v23C2,23.776,2.224,24,2.5,24h19
			c0.276,0,0.5-0.224,0.5-0.5v-17C22,6.367,21.947,6.24,21.854,6.147z M9.446,18.275c0.124,0.246,0.025,0.547-0.222,0.672
			c-0.248,0.123-0.547,0.023-0.671-0.223L7.434,16.5H7v2C7,18.775,6.776,19,6.5,19S6,18.775,6,18.5v-5C6,13.224,6.224,13,6.5,13
			h1.25c0.965,0,1.75,0.785,1.75,1.75c0,0.707-0.423,1.315-1.028,1.59L9.446,18.275z M13.5,14H13v4.5c0,0.276-0.224,0.5-0.5,0.5
			S12,18.776,12,18.5V14h-0.5c-0.276,0-0.5-0.224-0.5-0.5s0.224-0.5,0.5-0.5h2c0.276,0,0.5,0.224,0.5,0.5S13.776,14,13.5,14z M19,14
			h-2v1h1c0.276,0,0.5,0.224,0.5,0.5S18.276,16,18,16h-1v2.5c0,0.276-0.224,0.5-0.5,0.5S16,18.776,16,18.5v-5
			c0-0.276,0.224-0.5,0.5-0.5H19c0.276,0,0.5,0.224,0.5,0.5S19.276,14,19,14z M15,7V1l6,6H15z"/>
	</g>
</g>
<g id="Invisible_Shape">
	<rect fill="none" width="24" height="24"/>
</g>
</svg>
