<?xml version="1.0" encoding="utf-8"?>
<!-- Generator: Adobe Illustrator 16.0.3, SVG Export Plug-In . SVG Version: 6.00 Build 0)  -->
<!DOCTYPE svg PUBLIC "-//W3C//DTD SVG 1.1//EN" "http://www.w3.org/Graphics/SVG/1.1/DTD/svg11.dtd">
<svg version="1.1" xmlns="http://www.w3.org/2000/svg" xmlns:xlink="http://www.w3.org/1999/xlink" x="0px" y="0px" width="24px"
	 height="24px" viewBox="0 0 24 24" enable-background="new 0 0 24 24" xml:space="preserve">
<g id="Outline_Icons">
	<g>
		<g>
			<path fill="none" stroke="#000000" stroke-linejoin="round" stroke-miterlimit="10" d="M22.397,22.117l1-1.732l-1-0.577
				c0.137-0.579,0.136-1.038,0-1.614l0.999-0.576l-1-1.732l-0.999,0.576c-0.392-0.369-0.868-0.64-1.397-0.799V14.5h-2v1.162
				c-0.529,0.159-1.006,0.43-1.397,0.799l-0.999-0.576l-1,1.732l0.999,0.576c-0.136,0.576-0.137,1.035,0,1.614l-1,0.577l1,1.732
				l1-0.578c0.392,0.369,0.869,0.64,1.397,0.799V23.5h2v-1.162c0.528-0.159,1.006-0.43,1.396-0.799L22.397,22.117z"/>
			<circle fill="none" stroke="#000000" stroke-linejoin="round" stroke-miterlimit="10" cx="19" cy="19" r="1.5"/>
		</g>
		<g>
			
				<line fill="none" stroke="#000000" stroke-linecap="round" stroke-linejoin="round" stroke-miterlimit="10" x1="1.91" y1="17.511" x2="12.026" y2="17.511"/>
			
				<line fill="none" stroke="#000000" stroke-linejoin="round" stroke-miterlimit="10" x1="2.523" y1="5.511" x2="21.508" y2="5.511"/>
			
				<line fill="none" stroke="#000000" stroke-linecap="round" stroke-linejoin="round" stroke-miterlimit="10" x1="23.512" y1="11.511" x2="0.522" y2="11.511"/>
			<path fill="none" stroke="#000000" stroke-linecap="round" stroke-linejoin="round" stroke-miterlimit="10" d="M11.39,23.495
				C5.327,23.171,0.512,18.154,0.512,12.011c0-6.352,5.148-11.5,11.5-11.5c6.185,0,11.237,4.879,11.5,11"/>
			<path fill="none" stroke="#000000" stroke-linecap="round" stroke-linejoin="round" stroke-miterlimit="10" d="M11.281,0.537
				c-6,6.5-5.892,14.958,0.108,22.958"/>
			<path fill="none" stroke="#000000" stroke-linecap="round" stroke-linejoin="round" stroke-miterlimit="10" d="M12.742,0.537
				c3.015,3.266,4.486,7.025,4.445,10.974"/>
		</g>
	</g>
</g>
<g id="Invisible_Shape">
	<rect fill="none" width="24" height="24"/>
</g>
</svg>
