<?xml version="1.0" encoding="utf-8"?>
<!-- Generator: Adobe Illustrator 16.0.3, SVG Export Plug-In . SVG Version: 6.00 Build 0)  -->
<!DOCTYPE svg PUBLIC "-//W3C//DTD SVG 1.1//EN" "http://www.w3.org/Graphics/SVG/1.1/DTD/svg11.dtd">
<svg version="1.1" xmlns="http://www.w3.org/2000/svg" xmlns:xlink="http://www.w3.org/1999/xlink" x="0px" y="0px" width="24px"
	 height="24px" viewBox="0 0 24 24" enable-background="new 0 0 24 24" xml:space="preserve">
<g id="Outline_Icons">
	<g>
		
			<rect x="14.692" y="2.257" transform="matrix(0.7069 -0.7073 0.7073 0.7069 2.1741 13.7608)" fill="none" stroke="#000000" stroke-linejoin="round" stroke-miterlimit="10" width="6.001" height="4"/>
		
			<rect x="1.257" y="15.691" transform="matrix(0.7071 -0.7071 0.7071 0.7071 -11.2628 8.1921)" fill="none" stroke="#000000" stroke-linejoin="round" stroke-miterlimit="10" width="6.001" height="4"/>
		<path fill="none" stroke="#000000" stroke-linejoin="round" stroke-miterlimit="10" d="M8.5,8.5c-1.758,1.758-1.758,4.606,0,6.364
			L14.864,8.5C13.106,6.743,10.258,6.743,8.5,8.5z"/>
		<path fill="none" stroke="#000000" stroke-linecap="round" stroke-linejoin="round" stroke-miterlimit="10" d="M13.112,10.252
			c0.781,0.781,0.826,2.125,0.046,2.906c-0.782,0.78-2.101,0.709-2.882-0.07"/>
		<path fill="none" stroke="#000000" stroke-linecap="round" stroke-linejoin="round" stroke-miterlimit="10" d="M16.689,11.008
			c0.489,3.309-2.341,6.159-5.657,5.686"/>
		<path fill="none" stroke="#000000" stroke-linecap="round" stroke-linejoin="round" stroke-miterlimit="10" d="M19.694,10.857
			c0.565,5.1-3.736,9.403-8.843,8.837"/>
		<path fill="none" stroke="#000000" stroke-linecap="round" stroke-linejoin="round" stroke-miterlimit="10" d="M22.576,9.825
			c1.318,7.485-5.157,14.02-12.655,12.768"/>
	</g>
</g>
<g id="Invisible_Shape">
	<rect fill="none" width="24" height="24"/>
</g>
</svg>
