<?xml version="1.0" encoding="utf-8"?>
<!-- Generator: Adobe Illustrator 16.0.3, SVG Export Plug-In . SVG Version: 6.00 Build 0)  -->
<!DOCTYPE svg PUBLIC "-//W3C//DTD SVG 1.1//EN" "http://www.w3.org/Graphics/SVG/1.1/DTD/svg11.dtd">
<svg version="1.1" xmlns="http://www.w3.org/2000/svg" xmlns:xlink="http://www.w3.org/1999/xlink" x="0px" y="0px" width="24px"
	 height="24px" viewBox="0 0 24 24" enable-background="new 0 0 24 24" xml:space="preserve">
<g id="Outline_Icons_1_">
	<g id="Outline_Icons">
		<g>
			<path fill="none" stroke="#000000" stroke-linejoin="round" stroke-miterlimit="10" d="M16.783,14.5H7.127
				c-0.76,1-1.217,2.127-1.217,3.319c0,2.922,2.707,5.362,6.045,5.362S18,20.704,18,17.783C18,16.591,17.543,15.5,16.783,14.5z
				 M11.955,19.022c-0.668,0-1.209-0.473-1.209-1.058c0-0.584,0.541-1.058,1.209-1.058s1.209,0.474,1.209,1.058
				C13.164,18.55,12.623,19.022,11.955,19.022z"/>
			
				<line fill="none" stroke="#000000" stroke-linecap="round" stroke-linejoin="round" stroke-miterlimit="10" x1="4.516" y1="14.5" x2="19.5" y2="14.5"/>
			<path fill="none" stroke="#000000" stroke-linecap="round" stroke-linejoin="round" stroke-miterlimit="10" d="M22.482,13.24
				L20.006,2.436C19.727,1.371,18.6,0.5,17.5,0.5h-11c-1.1,0-2.227,0.871-2.504,1.936L1.518,13.24"/>
			<path fill="none" stroke="#000000" stroke-linecap="round" stroke-linejoin="round" stroke-miterlimit="10" d="M3.5,18.5
				c-1.1,0-2-0.9-2-2v-3c0-1.1,0.9-2,2-2h17c1.1,0,2,0.9,2,2v3c0,1.1-0.9,2-2,2"/>
			<line fill="none" stroke="#000000" stroke-linejoin="round" stroke-miterlimit="10" x1="16" y1="9.5" x2="20" y2="9.5"/>
		</g>
	</g>
	<g id="New_icons_1_">
	</g>
</g>
<g id="Invisible_Shape">
	<rect fill="none" width="24" height="24"/>
</g>
</svg>
