<?xml version="1.0" encoding="utf-8"?>
<!-- Generator: Adobe Illustrator 16.0.3, SVG Export Plug-In . SVG Version: 6.00 Build 0)  -->
<!DOCTYPE svg PUBLIC "-//W3C//DTD SVG 1.1//EN" "http://www.w3.org/Graphics/SVG/1.1/DTD/svg11.dtd">
<svg version="1.1" xmlns="http://www.w3.org/2000/svg" xmlns:xlink="http://www.w3.org/1999/xlink" x="0px" y="0px" width="24px"
	 height="24px" viewBox="0 0 24 24" enable-background="new 0 0 24 24" xml:space="preserve">
<g id="Outline_Icons_1_">
	<g id="Outline_Icons">
		<g>
			<rect x="0.5" y="8.5" fill="none" stroke="#000000" stroke-linejoin="round" stroke-miterlimit="10" width="23" height="15"/>
			<polygon fill="none" stroke="#000000" stroke-linejoin="round" stroke-miterlimit="10" points="3.785,1.5 20.215,1.5 23.5,8.5 
				0.5,8.5 			"/>
			<circle fill="none" stroke="#000000" stroke-linejoin="round" stroke-miterlimit="10" cx="7.5" cy="16" r="5"/>
			<rect x="15.5" y="10.5" fill="none" stroke="#000000" stroke-linejoin="round" stroke-miterlimit="10" width="6" height="4"/>
			<rect x="15.5" y="17.5" fill="none" stroke="#000000" stroke-linejoin="round" stroke-miterlimit="10" width="6" height="4"/>
			<line fill="none" stroke="#000000" stroke-linejoin="round" stroke-miterlimit="10" x1="7.5" y1="11" x2="7.5" y2="21"/>
			
				<line fill="none" stroke="#000000" stroke-linejoin="round" stroke-miterlimit="10" x1="11.035" y1="12.465" x2="3.965" y2="19.535"/>
			<line fill="none" stroke="#000000" stroke-linejoin="round" stroke-miterlimit="10" x1="12.5" y1="16" x2="2.5" y2="16"/>
			
				<line fill="none" stroke="#000000" stroke-linejoin="round" stroke-miterlimit="10" x1="11.035" y1="19.535" x2="3.965" y2="12.465"/>
			<g>
				<g>
					<path d="M17.5,12c-0.276,0-0.5,0.224-0.5,0.5s0.224,0.5,0.5,0.5c0.275,0,0.5-0.224,0.5-0.5S17.775,12,17.5,12L17.5,12z"/>
				</g>
			</g>
			<g>
				<g>
					<path d="M19.5,12c-0.276,0-0.5,0.224-0.5,0.5s0.224,0.5,0.5,0.5c0.275,0,0.5-0.224,0.5-0.5S19.775,12,19.5,12L19.5,12z"/>
				</g>
			</g>
			<g>
				<g>
					<path d="M17.5,19c-0.276,0-0.5,0.224-0.5,0.5s0.224,0.5,0.5,0.5c0.275,0,0.5-0.224,0.5-0.5S17.775,19,17.5,19L17.5,19z"/>
				</g>
			</g>
			<g>
				<g>
					<path d="M19.5,19c-0.276,0-0.5,0.224-0.5,0.5s0.224,0.5,0.5,0.5c0.275,0,0.5-0.224,0.5-0.5S19.775,19,19.5,19L19.5,19z"/>
				</g>
			</g>
		</g>
	</g>
	<g id="New_icons_1_">
	</g>
</g>
<g id="Invisible_Shape">
	<rect fill="none" width="24" height="24"/>
</g>
</svg>
