<?xml version="1.0" encoding="utf-8"?>
<!-- Generator: Adobe Illustrator 16.0.3, SVG Export Plug-In . SVG Version: 6.00 Build 0)  -->
<!DOCTYPE svg PUBLIC "-//W3C//DTD SVG 1.1//EN" "http://www.w3.org/Graphics/SVG/1.1/DTD/svg11.dtd">
<svg version="1.1" xmlns="http://www.w3.org/2000/svg" xmlns:xlink="http://www.w3.org/1999/xlink" x="0px" y="0px" width="24px"
	 height="24px" viewBox="0 0 24 24" enable-background="new 0 0 24 24" xml:space="preserve">
<g id="Outline_Icons_1_">
	<g id="Outline_Icons">
		<g>
			<path fill="none" stroke="#000000" stroke-linecap="round" stroke-linejoin="round" stroke-miterlimit="10" d="M23.5,15.499
				c0,0.55-0.443,1.077-0.984,1.171l-9.53,1.658c-0.542,0.095-1.429,0.095-1.97,0l-9.53-1.658C0.943,16.576,0.5,16.049,0.5,15.499
				V3.5c0-0.55,0.45-1,1-1h21c0.551,0,1,0.45,1,1V15.499z"/>
			<rect x="2.5" y="4.5" fill="none" stroke="#000000" stroke-linejoin="round" stroke-miterlimit="10" width="19" height="10"/>
			<g>
				<g>
					<g>
						<path d="M12,15.999c-0.276,0-0.5,0.224-0.5,0.5s0.224,0.5,0.5,0.5s0.5-0.224,0.5-0.5S12.276,15.999,12,15.999L12,15.999z"/>
					</g>
				</g>
			</g>
			
				<line fill="none" stroke="#000000" stroke-linecap="round" stroke-linejoin="round" stroke-miterlimit="10" x1="10.5" y1="18.5" x2="10.5" y2="21"/>
			
				<line fill="none" stroke="#000000" stroke-linecap="round" stroke-linejoin="round" stroke-miterlimit="10" x1="13.5" y1="18.5" x2="13.5" y2="21"/>
			<path fill="none" stroke="#000000" stroke-linecap="round" stroke-linejoin="round" stroke-miterlimit="10" d="M19.409,22.499
				c-1.741-0.913-4.41-1.5-7.409-1.5c-2.998,0-5.668,0.587-7.409,1.5"/>
		</g>
	</g>
	<g id="New_icons_1_">
	</g>
</g>
<g id="Invisible_Shape">
	<rect fill="none" width="24" height="24"/>
</g>
</svg>
