<?xml version="1.0" encoding="utf-8"?>
<!-- Generator: Adobe Illustrator 16.0.3, SVG Export Plug-In . SVG Version: 6.00 Build 0)  -->
<!DOCTYPE svg PUBLIC "-//W3C//DTD SVG 1.1//EN" "http://www.w3.org/Graphics/SVG/1.1/DTD/svg11.dtd">
<svg version="1.1" xmlns="http://www.w3.org/2000/svg" xmlns:xlink="http://www.w3.org/1999/xlink" x="0px" y="0px" width="24px"
	 height="24px" viewBox="0 0 24 24" enable-background="new 0 0 24 24" xml:space="preserve">
<g id="Outline_Icons_1_">
	<g id="Outline_Icons">
		<g>
			<path fill="none" stroke="#000000" stroke-linejoin="round" stroke-miterlimit="10" d="M23.364,6.863L7.102,23.127l-6.364-6.363
				l7.071-7.071l0.354,0.354c0.586,0.586,1.535,0.586,2.121,0s0.586-1.536,0-2.122L9.93,7.571L17,0.5L23.364,6.863z"/>
			
				<rect x="5.308" y="15.971" transform="matrix(0.7071 -0.7071 0.7071 0.7071 -10.0667 10.6382)" fill="none" stroke="#000000" stroke-linejoin="round" stroke-miterlimit="10" width="4.999" height="3"/>
			
				<rect x="10.258" y="11.021" transform="matrix(0.7071 -0.7071 0.7071 0.7071 -5.1167 12.6883)" fill="none" stroke="#000000" stroke-linejoin="round" stroke-miterlimit="10" width="4.999" height="3"/>
			
				<rect x="15.207" y="6.071" transform="matrix(0.7071 -0.7071 0.7071 0.7071 -0.167 14.7385)" fill="none" stroke="#000000" stroke-linejoin="round" stroke-miterlimit="10" width="5.001" height="3"/>
			
				<line fill="none" stroke="#000000" stroke-linejoin="round" stroke-miterlimit="10" x1="2.168" y1="15.366" x2="3.919" y2="17.117"/>
			
				<line fill="none" stroke="#000000" stroke-linejoin="round" stroke-miterlimit="10" x1="3.582" y1="13.951" x2="5.333" y2="15.703"/>
			
				<line fill="none" stroke="#000000" stroke-linejoin="round" stroke-miterlimit="10" x1="4.996" y1="12.537" x2="6.748" y2="14.288"/>
			
				<line fill="none" stroke="#000000" stroke-linejoin="round" stroke-miterlimit="10" x1="6.411" y1="11.123" x2="8.162" y2="12.874"/>
			
				<line fill="none" stroke="#000000" stroke-linejoin="round" stroke-miterlimit="10" x1="11.344" y1="6.156" x2="13.111" y2="7.924"/>
			
				<line fill="none" stroke="#000000" stroke-linejoin="round" stroke-miterlimit="10" x1="12.758" y1="4.742" x2="14.525" y2="6.51"/>
			
				<line fill="none" stroke="#000000" stroke-linejoin="round" stroke-miterlimit="10" x1="14.172" y1="3.328" x2="15.939" y2="5.096"/>
			
				<line fill="none" stroke="#000000" stroke-linejoin="round" stroke-miterlimit="10" x1="15.586" y1="1.914" x2="17.354" y2="3.682"/>
		</g>
	</g>
	<g id="New_icons_1_">
	</g>
</g>
<g id="Invisible_Shape">
	<rect fill="none" width="24" height="24"/>
</g>
</svg>
