<?xml version="1.0" encoding="utf-8"?>
<!-- Generator: Adobe Illustrator 16.0.3, SVG Export Plug-In . SVG Version: 6.00 Build 0)  -->
<!DOCTYPE svg PUBLIC "-//W3C//DTD SVG 1.1//EN" "http://www.w3.org/Graphics/SVG/1.1/DTD/svg11.dtd">
<svg version="1.1" xmlns="http://www.w3.org/2000/svg" xmlns:xlink="http://www.w3.org/1999/xlink" x="0px" y="0px" width="24px"
	 height="24px" viewBox="0 0 24 24" enable-background="new 0 0 24 24" xml:space="preserve">
<g id="Outline_Icons_1_">
	<g id="Outline_Icons">
		<g>
			<path fill="none" stroke="#000000" stroke-linecap="round" stroke-linejoin="round" stroke-miterlimit="10" d="M20.5,20.5
				c0,1.1-0.899,2-2,2h-13c-1.1,0-2-0.9-2-2v-17c0-1.1,0.9-2,2-2h13c1.101,0,2,0.9,2,2V20.5z"/>
			
				<circle fill="none" stroke="#000000" stroke-linecap="round" stroke-linejoin="round" stroke-miterlimit="10" cx="12" cy="10" r="6.5"/>
			
				<line fill="none" stroke="#000000" stroke-linecap="round" stroke-linejoin="round" stroke-miterlimit="10" x1="9" y1="13" x2="5.5" y2="16.5"/>
			<polygon fill="none" stroke="#000000" stroke-linecap="round" stroke-linejoin="round" stroke-miterlimit="10" points="
				11.5,20.5 5.5,20.5 5.5,16.5 11.5,19.5 			"/>
			<g>
				<g>
					<g>
						<path d="M17.5,19c-0.276,0-0.5,0.224-0.5,0.5c0,0.275,0.224,0.5,0.5,0.5s0.5-0.225,0.5-0.5C18,19.224,17.776,19,17.5,19
							L17.5,19z"/>
					</g>
				</g>
			</g>
			<path fill="none" stroke="#000000" stroke-linejoin="round" stroke-miterlimit="10" d="M12.5,10c0,0.276-0.224,0.5-0.5,0.5l0,0
				c-0.276,0-0.5-0.224-0.5-0.5l0,0c0-0.276,0.224-0.5,0.5-0.5l0,0C12.276,9.5,12.5,9.724,12.5,10L12.5,10z"/>
		</g>
	</g>
	<g id="New_icons_1_">
	</g>
</g>
<g id="Invisible_Shape">
	<rect fill="none" width="24" height="24"/>
</g>
</svg>
