<?xml version="1.0" encoding="utf-8"?>
<!-- Generator: Adobe Illustrator 16.0.3, SVG Export Plug-In . SVG Version: 6.00 Build 0)  -->
<!DOCTYPE svg PUBLIC "-//W3C//DTD SVG 1.1//EN" "http://www.w3.org/Graphics/SVG/1.1/DTD/svg11.dtd">
<svg version="1.1" xmlns="http://www.w3.org/2000/svg" xmlns:xlink="http://www.w3.org/1999/xlink" x="0px" y="0px" width="24px"
	 height="24px" viewBox="0 0 24 24" enable-background="new 0 0 24 24" xml:space="preserve">
<g id="Outline_Icons_1_">
	<g id="Outline_Icons">
		<g>
			<path fill="none" stroke="#000000" stroke-linecap="round" stroke-linejoin="round" stroke-miterlimit="10" d="M14.396,9.448
				C15.075,10.087,15.5,10.994,15.5,12c0,1.933-1.567,3.5-3.5,3.5c-0.955,0-1.82-0.383-2.452-1.003"/>
			<path fill="none" stroke="#000000" stroke-linecap="round" stroke-linejoin="round" stroke-miterlimit="10" d="M14.375,0.749
				L11.426,5.5h3.663l-7.782,8.701L10.447,7.5H6.723l4.245-6.948C5.102,1.075,0.5,5.997,0.5,12c0,6.351,5.148,11.5,11.5,11.5
				c6.351,0,11.5-5.149,11.5-11.5C23.5,6.464,19.586,1.843,14.375,0.749z"/>
		</g>
	</g>
	<g id="New_icons_1_">
	</g>
</g>
<g id="Invisible_Shape">
	<rect fill="none" width="24" height="24"/>
</g>
</svg>
