<?xml version="1.0" encoding="utf-8"?>
<!-- Generator: Adobe Illustrator 16.0.3, SVG Export Plug-In . SVG Version: 6.00 Build 0)  -->
<!DOCTYPE svg PUBLIC "-//W3C//DTD SVG 1.1//EN" "http://www.w3.org/Graphics/SVG/1.1/DTD/svg11.dtd">
<svg version="1.1" xmlns="http://www.w3.org/2000/svg" xmlns:xlink="http://www.w3.org/1999/xlink" x="0px" y="0px" width="24px"
	 height="24px" viewBox="0 0 24 24" enable-background="new 0 0 24 24" xml:space="preserve">
<g id="Outline_Icons_1_">
	<g id="Outline_Icons">
	</g>
	<g id="New_icons_1_">
		<g>
			<g>
				<path fill="none" stroke="#000000" stroke-linecap="round" stroke-linejoin="round" stroke-miterlimit="10" d="M23.5,15.5
					c0-1.1-0.899-2-2-2h-19c-1.1,0-2,0.9-2,2v6c0,1.1,0.9,2,2,2h19c1.101,0,2-0.9,2-2V15.5z"/>
				<g>
					<g>
						<g>
							<polygon points="11,15 10,15 10,16 11,16 11,15 							"/>
						</g>
					</g>
				</g>
				<g>
					<g>
						<g>
							<polygon points="14,15 13,15 13,16 14,16 14,15 							"/>
						</g>
					</g>
				</g>
				<g>
					<g>
						<g>
							<polygon points="17,15 16,15 16,16 17,16 17,15 							"/>
						</g>
					</g>
				</g>
				<g>
					<g>
						<g>
							<polygon points="20,15 19,15 19,16 20,16 20,15 							"/>
						</g>
					</g>
				</g>
				<g>
					<g>
						<g>
							<polygon points="8,15 7,15 7,16 8,16 8,15 							"/>
						</g>
					</g>
				</g>
				<g>
					<g>
						<g>
							<polygon points="5,15 4,15 4,16 5,16 5,15 							"/>
						</g>
					</g>
				</g>
				<g>
					<g>
						<g>
							<polygon points="11,17 10,17 10,18 11,18 11,17 							"/>
						</g>
					</g>
				</g>
				<g>
					<g>
						<g>
							<polygon points="14,17 13,17 13,18 14,18 14,17 							"/>
						</g>
					</g>
				</g>
				<g>
					<g>
						<g>
							<polygon points="17,17 16,17 16,18 17,18 17,17 							"/>
						</g>
					</g>
				</g>
				<g>
					<g>
						<g>
							<polygon points="20,17 19,17 19,18 20,18 20,17 							"/>
						</g>
					</g>
				</g>
				<g>
					<g>
						<g>
							<polygon points="8,17 7,17 7,18 8,18 8,17 							"/>
						</g>
					</g>
				</g>
				<g>
					<g>
						<g>
							<polygon points="5,17 4,17 4,18 5,18 5,17 							"/>
						</g>
					</g>
				</g>
				<g>
					<g>
						<g>
							<polygon points="11,19 10,19 10,20 11,20 11,19 							"/>
						</g>
					</g>
				</g>
				<g>
					<g>
						<g>
							<polygon points="14,19 13,19 13,20 14,20 14,19 							"/>
						</g>
					</g>
				</g>
				<g>
					<g>
						<g>
							<polygon points="17,19 16,19 16,20 17,20 17,19 							"/>
						</g>
					</g>
				</g>
				<g>
					<g>
						<g>
							<polygon points="20,19 19,19 19,20 20,20 20,19 							"/>
						</g>
					</g>
				</g>
				<g>
					<g>
						<g>
							<polygon points="8,19 7,19 7,20 8,20 8,19 							"/>
						</g>
					</g>
				</g>
				<g>
					<g>
						<g>
							<polygon points="5,19 4,19 4,20 5,20 5,19 							"/>
						</g>
					</g>
				</g>
				<line fill="none" stroke="#000000" stroke-linejoin="round" stroke-miterlimit="10" x1="5" y1="21.5" x2="19" y2="21.5"/>
			</g>
			<path fill="none" stroke="#000000" stroke-linecap="round" stroke-linejoin="round" stroke-miterlimit="10" d="M16.714,4.928
				C15.365,4.027,13.745,3.5,12,3.5S8.635,4.027,7.286,4.928"/>
			<path fill="none" stroke="#000000" stroke-linecap="round" stroke-linejoin="round" stroke-miterlimit="10" d="M15.605,6.592
				C14.574,5.902,13.334,5.5,12,5.5c-1.334,0-2.573,0.402-3.605,1.092"/>
			<path fill="none" stroke="#000000" stroke-linecap="round" stroke-linejoin="round" stroke-miterlimit="10" d="M14.496,8.256
				C13.781,7.779,12.923,7.5,12,7.5s-1.782,0.279-2.496,0.756"/>
		</g>
	</g>
</g>
<g id="Invisible_Shape">
	<rect fill="none" width="24" height="24"/>
</g>
</svg>
