<?xml version="1.0" encoding="utf-8"?>
<!-- Generator: Adobe Illustrator 19.2.0, SVG Export Plug-In . SVG Version: 6.00 Build 0)  -->
<svg version="1.1" xmlns="http://www.w3.org/2000/svg" xmlns:xlink="http://www.w3.org/1999/xlink" x="0px" y="0px" width="24px"
	 height="24px" viewBox="0 0 24 24" enable-background="new 0 0 24 24" xml:space="preserve">
<g id="Filled_Icons">
	<g>
		<path d="M23.854,23.146l-9.01-9.01C16.181,12.635,17,10.664,17,8.5C17,3.813,13.186,0,8.5,0C3.813,0,0,3.813,0,8.5
			S3.813,17,8.5,17c2.164,0,4.135-0.819,5.637-2.155l9.01,9.009c0.195,0.195,0.512,0.195,0.707,0
			C24.049,23.659,24.049,23.342,23.854,23.146z M1,8.5C1,4.365,4.364,1,8.5,1S16,4.365,16,8.5S12.636,16,8.5,16S1,12.635,1,8.5z"/>
		<g>
			<path d="M8.527,5.474L5,8.699V12.5C5,12.776,5.224,13,5.5,13h6c0.276,0,0.5-0.224,0.5-0.5V8.677L8.527,5.474z"/>
		</g>
		<g>
			<path d="M13.14,8.367l-4.61-4.251L3.878,8.369C3.674,8.555,3.358,8.542,3.172,8.338C2.985,8.134,3,7.818,3.203,7.631l4.99-4.563
				C8.386,2.894,8.679,2.895,8.87,3.071l4.947,4.562c0.203,0.188,0.216,0.502,0.028,0.706C13.659,8.543,13.341,8.554,13.14,8.367z"
				/>
		</g>
	</g>
</g>
<g id="invisible_shape">
	<rect fill="none" width="24" height="24"/>
</g>
</svg>
