<?xml version="1.0" encoding="utf-8"?>
<!-- Generator: Adobe Illustrator 19.2.0, SVG Export Plug-In . SVG Version: 6.00 Build 0)  -->
<svg version="1.1" xmlns="http://www.w3.org/2000/svg" xmlns:xlink="http://www.w3.org/1999/xlink" x="0px" y="0px" width="24px"
	 height="24px" viewBox="0 0 24 24" enable-background="new 0 0 24 24" xml:space="preserve">
<g id="Filled_Icons">
	<g>
		<path d="M20,2.5C20,2.224,19.776,2,19.5,2h-4.727L20,6.773V2.5z"/>
		<path d="M23.837,11.631l-11.5-10.5c-0.19-0.175-0.483-0.175-0.674,0l-11.5,10.5c-0.204,0.185-0.219,0.502-0.032,0.705
			c0.187,0.206,0.503,0.219,0.706,0.033L12,2.177l11.163,10.192c0.204,0.188,0.521,0.171,0.706-0.033
			C24.056,12.133,24.041,11.816,23.837,11.631z"/>
		<path d="M10.872,16.494c-0.256,0-0.606,0-0.606,1.5c0,1.497,0.351,1.497,0.606,1.497c0.241,0,0.605,0,0.605-1.497
			C11.477,16.494,11.113,16.494,10.872,16.494z"/>
		<path d="M3,11.748V23.5C3,23.776,3.224,24,3.5,24h17c0.276,0,0.5-0.224,0.5-0.5V11.748l-9-8.216L3,11.748z M6.935,20.494
			c-0.758,0-1.388-0.618-1.434-1.408c-0.016-0.275,0.194-0.512,0.47-0.528c0.268-0.012,0.512,0.194,0.528,0.47
			c0.015,0.261,0.207,0.465,0.436,0.465c0.241,0,0.438-0.225,0.438-0.5c0-0.274-0.136-0.406-0.518-0.504
			C5.719,18.191,5.5,17.515,5.5,16.994c0-0.827,0.644-1.5,1.436-1.5c0.758,0,1.389,0.618,1.436,1.406
			c0.017,0.275-0.193,0.512-0.469,0.528c-0.268,0.018-0.513-0.193-0.529-0.469c-0.016-0.26-0.208-0.465-0.438-0.465
			c-0.24,0-0.436,0.224-0.436,0.5c0,0.272,0.135,0.405,0.517,0.504c1.19,0.306,1.355,1.067,1.355,1.496
			C8.372,19.82,7.727,20.494,6.935,20.494z M10.872,20.491c-1.606,0-1.606-1.814-1.606-2.497c0-0.684,0-2.5,1.606-2.5
			c1.605,0,1.605,1.816,1.605,2.5C12.477,18.677,12.477,20.491,10.872,20.491z M15.959,16.037c0-0.276,0.224-0.5,0.5-0.5h0.706
			c1.098,0,1.835,0.987,1.835,2.457c0,1.47-0.737,2.458-1.835,2.458h-0.706c-0.276,0-0.5-0.224-0.5-0.5V16.037z M14,15.994v3.414h1
			c0.276,0,0.5,0.224,0.5,0.5s-0.224,0.5-0.5,0.5h-1.5c-0.276,0-0.5-0.224-0.5-0.5v-3.914c0-0.276,0.224-0.5,0.5-0.5
			S14,15.717,14,15.994z M13,7.5v1C13,8.776,12.776,9,12.5,9h-1C11.224,9,11,8.776,11,8.5v-1C11,7.224,11.224,7,11.5,7h1
			C12.776,7,13,7.224,13,7.5z"/>
		<path d="M18,17.994c0-0.725-0.258-1.457-0.835-1.457h-0.206v2.914h0.206C17.742,19.451,18,18.719,18,17.994z"/>
	</g>
</g>
<g id="invisible_shape">
	<rect fill="none" width="24" height="24"/>
</g>
</svg>
