<?xml version="1.0" encoding="utf-8"?>
<!-- Generator: Adobe Illustrator 19.2.0, SVG Export Plug-In . SVG Version: 6.00 Build 0)  -->
<svg version="1.1" xmlns="http://www.w3.org/2000/svg" xmlns:xlink="http://www.w3.org/1999/xlink" x="0px" y="0px" width="24px"
	 height="24px" viewBox="0 0 24 24" enable-background="new 0 0 24 24" xml:space="preserve">
<g id="Filled_Icons">
	<g>
		<g>
			<path d="M20,6.773V2.5C20,2.224,19.776,2,19.5,2h-4.727L20,6.773z"/>
		</g>
		<g>
			<g>
				<path d="M23.163,12.369L12,2.177L0.837,12.369c-0.203,0.186-0.52,0.173-0.706-0.033c-0.187-0.204-0.172-0.52,0.032-0.705
					l11.5-10.5c0.19-0.175,0.483-0.175,0.674,0l11.5,10.5c0.204,0.185,0.219,0.502,0.032,0.705
					C23.684,12.54,23.367,12.557,23.163,12.369z"/>
			</g>
		</g>
	</g>
	<path d="M12,18.507c0-3.584,2.916-6.5,6.5-6.5c0.886,0,1.73,0.179,2.5,0.502v-0.761l-9-8.216l-9,8.216V23.5
		C3,23.776,3.224,24,3.5,24h11.55C13.222,22.85,12,20.821,12,18.507z M11,8.5v-1C11,7.224,11.224,7,11.5,7h1
		C12.776,7,13,7.224,13,7.5v1C13,8.776,12.776,9,12.5,9h-1C11.224,9,11,8.776,11,8.5z"/>
	<path d="M18.5,13.007c-3.033,0-5.5,2.467-5.5,5.5C13,21.539,15.467,24,18.5,24c3.032,0,5.5-2.461,5.5-5.493
		C24,15.474,21.532,13.007,18.5,13.007z M21,19.007h-5c-0.276,0-0.5-0.224-0.5-0.5c0-0.276,0.224-0.5,0.5-0.507h5
		c0.275,0.007,0.5,0.23,0.5,0.507C21.5,18.783,21.275,19.007,21,19.007z"/>
</g>
<g id="invisible_shape">
	<rect fill="none" width="24" height="24"/>
</g>
</svg>
