<?xml version="1.0" encoding="utf-8"?>
<!-- Generator: Adobe Illustrator 19.2.0, SVG Export Plug-In . SVG Version: 6.00 Build 0)  -->
<svg version="1.1" xmlns="http://www.w3.org/2000/svg" xmlns:xlink="http://www.w3.org/1999/xlink" x="0px" y="0px" width="24px"
	 height="24px" viewBox="0 0 24 24" enable-background="new 0 0 24 24" xml:space="preserve">
<g id="Filled_Icons">
	<g>
		<g>
			<path d="M15,9.621l-6,6V22.5C9,22.778,9.227,23,9.5,23h11c0.276,0,0.5-0.224,0.5-0.5v-6.879L15,9.621z M16,14.5
				c0,0.276-0.224,0.5-0.5,0.5h-1c-0.276,0-0.5-0.224-0.5-0.5v-1c0-0.276,0.224-0.5,0.5-0.5h1c0.276,0,0.5,0.224,0.5,0.5V14.5z"/>
		</g>
		<g>
			<path d="M22.5,0H5v5H0v17.5C0,22.776,0.224,23,0.5,23h4C4.776,23,5,22.776,5,22.5V20H2v-1h3v-3H2v-1h3v-3H2v-1h3V8H2V7h3V5h2V2h1
				v3h3V2h1v3h3V2h1v3h3V2h1v3h2.5C22.776,5,23,4.776,23,4.5v-4C23,0.224,22.776,0,22.5,0z"/>
			<path d="M4,4V0H0.5C0.224,0,0,0.224,0,0.5V4H4z"/>
		</g>
		<g>
			<path d="M21,11.378V8.5C21,8.224,20.776,8,20.5,8h-2.879L21,11.378z"/>
		</g>
		<g>
			<path d="M23.146,16.354L15,8.208l-8.146,8.146c-0.195,0.195-0.512,0.195-0.707,0c-0.195-0.194-0.195-0.512,0-0.707l8.5-8.5
				c0.195-0.195,0.512-0.195,0.707,0l8.5,8.5c0.195,0.195,0.195,0.513,0,0.707C23.658,16.549,23.342,16.549,23.146,16.354z"/>
		</g>
	</g>
</g>
<g id="invisible_shape">
	<rect fill="none" width="24" height="24"/>
</g>
</svg>
