<?xml version="1.0" encoding="utf-8"?>
<!-- Generator: Adobe Illustrator 19.2.0, SVG Export Plug-In . SVG Version: 6.00 Build 0)  -->
<svg version="1.1" xmlns="http://www.w3.org/2000/svg" xmlns:xlink="http://www.w3.org/1999/xlink" x="0px" y="0px" width="24px"
	 height="24px" viewBox="0 0 24 24" enable-background="new 0 0 24 24" xml:space="preserve">
<g id="Filled_Icons">
	<g>
		<g>
			<g>
				<path d="M20,6.773V2.5C20,2.224,19.776,2,19.5,2h-4.727L20,6.773z"/>
			</g>
			<g>
				<g>
					<path d="M23.163,12.369L12,2.177L0.837,12.369c-0.203,0.186-0.52,0.173-0.706-0.033c-0.187-0.204-0.172-0.52,0.032-0.705
						l11.5-10.5c0.19-0.175,0.483-0.175,0.674,0l11.5,10.5c0.204,0.185,0.219,0.502,0.032,0.705
						C23.684,12.54,23.367,12.557,23.163,12.369z"/>
				</g>
			</g>
		</g>
		<g>
			<polygon points="10.257,18.022 10.615,18.022 10.436,17.376 			"/>
			<path d="M12,3.531l-9,8.216V23.5C3,23.776,3.224,24,3.5,24h17c0.276,0,0.5-0.224,0.5-0.5V11.748L12,3.531z M11,7.5
				C11,7.224,11.224,7,11.5,7h1C12.776,7,13,7.224,13,7.5v1C13,8.776,12.776,9,12.5,9h-1C11.224,9,11,8.776,11,8.5V7.5z M6.969,20
				c-0.758,0-1.389-0.618-1.436-1.407c-0.017-0.276,0.194-0.513,0.469-0.529c0.267-0.014,0.513,0.193,0.529,0.47
				C6.547,18.795,6.739,19,6.969,19c0.241,0,0.437-0.225,0.437-0.5c0-0.274-0.135-0.406-0.517-0.504
				c-1.137-0.301-1.356-0.977-1.356-1.496c0-0.827,0.645-1.5,1.438-1.5c0.757,0,1.388,0.618,1.435,1.406
				c0.017,0.276-0.193,0.512-0.469,0.529c-0.275,0.01-0.512-0.193-0.529-0.469C7.391,16.205,7.199,16,6.97,16
				c-0.241,0-0.438,0.224-0.438,0.5c0,0.271,0.135,0.402,0.518,0.503c1.191,0.308,1.356,1.068,1.356,1.497
				C8.405,19.327,7.761,20,6.969,20z M11.675,19.982c-0.263,0.072-0.542-0.082-0.615-0.349l-0.169-0.611H9.981l-0.169,0.611
				C9.75,19.855,9.549,20,9.33,20c-0.045,0-0.089-0.006-0.134-0.018c-0.266-0.074-0.422-0.35-0.349-0.615l0.236-0.854
				c0.001-0.08,0.025-0.154,0.061-0.222l0.81-2.925C10.015,15.15,10.212,15,10.436,15c0.225,0,0.422,0.15,0.482,0.367l0.808,2.925
				c0.036,0.068,0.062,0.142,0.063,0.224l0.235,0.851C12.098,19.633,11.941,19.908,11.675,19.982z M15,20h-1.5
				c-0.276,0-0.5-0.224-0.5-0.5v-4c0-0.276,0.224-0.5,0.5-0.5s0.5,0.224,0.5,0.5V19h1c0.276,0,0.5,0.224,0.5,0.5S15.276,20,15,20z
				 M17.738,17c0.276,0,0.5,0.224,0.5,0.5s-0.224,0.5-0.5,0.5H17v1h1.201c0.276,0,0.5,0.224,0.5,0.5s-0.224,0.5-0.5,0.5H16.5
				c-0.276,0-0.5-0.224-0.5-0.5v-4c0-0.276,0.224-0.5,0.5-0.5h1.701c0.276,0,0.5,0.224,0.5,0.5s-0.224,0.5-0.5,0.5H17v1H17.738z"/>
		</g>
	</g>
</g>
<g id="invisible_shape">
	<rect fill="none" width="24" height="24"/>
</g>
</svg>
