<?xml version="1.0" encoding="utf-8"?>
<!-- Generator: Adobe Illustrator 19.2.0, SVG Export Plug-In . SVG Version: 6.00 Build 0)  -->
<svg version="1.1" xmlns="http://www.w3.org/2000/svg" xmlns:xlink="http://www.w3.org/1999/xlink" x="0px" y="0px" width="24px"
	 height="24px" viewBox="0 0 24 24" enable-background="new 0 0 24 24" xml:space="preserve">
<g id="Filled_Icons">
	<g>
		<g>
			<path d="M20.172,7.385L13,1.168L5.827,7.385c-0.208,0.18-0.523,0.158-0.705-0.051C4.941,7.126,4.964,6.81,5.172,6.628l7.5-6.5
				c0.188-0.163,0.466-0.163,0.655,0l7.5,6.5c0.209,0.182,0.231,0.498,0.051,0.706C20.692,7.547,20.376,7.563,20.172,7.385z"/>
		</g>
		<path d="M13,2.491L8,6.825v6.682c0,0.276,0.224,0.5,0.5,0.493H11V9.5C11,9.223,11.224,9,11.5,9h3C14.776,9,15,9.223,15,9.5V14h2.5
			c0.276,0.007,0.5-0.217,0.5-0.493V6.824L13,2.491z"/>
		<g>
			<path d="M3.5,14.007h-3c-0.276,0-0.5,0.223-0.5,0.5v8c0,0.275,0.224,0.5,0.5,0.493h3C3.775,23.007,4,22.782,4,22.507v-8
				C4,14.229,3.775,14.007,3.5,14.007z"/>
			<path d="M23.354,18.152c-1.173-1.173-2.186-1.5-3.512-1.121l-3.007,0.998c0.246,1.497-0.669,2.986-2.334,2.97h-5
				C9.224,21.007,9,20.782,9,20.507c0-0.277,0.224-0.5,0.5-0.507h5c0.889,0.014,1.375-0.677,1.375-1.493c0-0.558-0.29-1.5-1.375-1.5
				h-3c-0.132,0-0.26-0.053-0.353-0.146c-0.46-0.459-1.854-1.854-4.147-1.854H5.5c-0.276,0-0.5,0.223-0.5,0.5v5.5
				c0,0.214,0.138,0.406,0.342,0.473c1.56,0.521,2.781,0.965,3.761,1.321c1.928,0.701,3.007,1.079,3.969,1.079
				c1.147,0,2.127-0.538,4.176-1.708c1.357-0.776,3.213-1.837,5.976-3.218C23.529,18.801,23.594,18.396,23.354,18.152z"/>
		</g>
		<path d="M18,2.855V0.507c0-0.277-0.224-0.5-0.5-0.5h-2.786L18,2.855z"/>
	</g>
</g>
<g id="invisible_shape">
	<rect fill="none" width="24" height="24"/>
</g>
</svg>
