<?xml version="1.0" encoding="utf-8"?>
<!-- Generator: Adobe Illustrator 19.2.0, SVG Export Plug-In . SVG Version: 6.00 Build 0)  -->
<svg version="1.1" xmlns="http://www.w3.org/2000/svg" xmlns:xlink="http://www.w3.org/1999/xlink" x="0px" y="0px" width="24px"
	 height="24px" viewBox="0 0 24 24" enable-background="new 0 0 24 24" xml:space="preserve">
<g id="Filled_Icons">
	<g>
		<g>
			<path d="M20,6.773V2.5C20,2.224,19.776,2,19.5,2h-4.727L20,6.773z"/>
		</g>
		<g>
			<g>
				<path d="M23.163,12.369L12,2.177L0.837,12.369c-0.203,0.186-0.52,0.173-0.706-0.033c-0.187-0.204-0.172-0.52,0.032-0.705
					l11.5-10.5c0.19-0.175,0.483-0.175,0.674,0l11.5,10.5c0.204,0.185,0.219,0.502,0.032,0.705
					C23.684,12.54,23.367,12.557,23.163,12.369z"/>
			</g>
		</g>
	</g>
	<path d="M13,17.803c0-2.494,1.895-3.984,3.728-3.984c0.833,0,1.627,0.304,2.272,0.846c0.574-0.482,1.269-0.762,2-0.821v-2.095
		l-9-8.216l-9,8.216V23.5C3,23.776,3.224,24,3.5,24h13.693C15.58,22.687,13,20.208,13,17.803z M12.5,9h-1C11.224,9,11,8.776,11,8.5
		v-1C11,7.224,11.224,7,11.5,7h1C12.776,7,13,7.224,13,7.5v1C13,8.776,12.776,9,12.5,9z"/>
	<path d="M21.272,14.818c-0.771,0-1.674,0.38-2.272,1.368c-0.599-0.988-1.501-1.368-2.272-1.368c-1.341,0-2.728,1.117-2.728,2.984
		c0,2.604,4.225,5.752,4.706,6.102C18.794,23.969,18.896,24,19,24s0.206-0.031,0.294-0.096C19.775,23.555,24,20.407,24,17.803
		C24,15.936,22.613,14.818,21.272,14.818z"/>
</g>
<g id="invisible_shape">
	<rect fill="none" width="24" height="24"/>
</g>
</svg>
