<?xml version="1.0" encoding="utf-8"?>
<!-- Generator: Adobe Illustrator 19.2.0, SVG Export Plug-In . SVG Version: 6.00 Build 0)  -->
<svg version="1.1" xmlns="http://www.w3.org/2000/svg" xmlns:xlink="http://www.w3.org/1999/xlink" x="0px" y="0px" width="24px"
	 height="24px" viewBox="0 0 24 24" enable-background="new 0 0 24 24" xml:space="preserve">
<g id="Filled_Icons">
	<g>
		<g>
			<path d="M20,6.773V2.5C20,2.224,19.776,2,19.5,2h-4.727L20,6.773z"/>
		</g>
		<g>
			<g>
				<path d="M23.163,12.369L12,2.177L0.837,12.369c-0.203,0.186-0.52,0.173-0.706-0.033c-0.187-0.204-0.172-0.52,0.032-0.705
					l11.5-10.5c0.19-0.175,0.483-0.175,0.674,0l11.5,10.5c0.204,0.185,0.219,0.502,0.032,0.705
					C23.684,12.54,23.367,12.557,23.163,12.369z"/>
			</g>
		</g>
	</g>
	<path d="M12.157,22.833l5.001-10.003c0.251-0.498,0.764-0.806,1.342-0.806s1.091,0.309,1.341,0.804L21,15.146v-3.398l-9-8.216
		l-9,8.216V23.5C3,23.776,3.224,24,3.5,24h8.593C11.957,23.621,11.973,23.204,12.157,22.833z M11,8.5v-1C11,7.224,11.224,7,11.5,7h1
		C12.776,7,13,7.224,13,7.5v1C13,8.776,12.776,9,12.5,9h-1C11.224,9,11,8.776,11,8.5z"/>
	<path d="M23.947,23.276l-5-10c-0.17-0.338-0.725-0.338-0.895,0l-5,10C12.887,23.611,13.13,24,13.5,24h10
		C23.87,24,24.113,23.611,23.947,23.276z M18.5,22c-0.276,0-0.5-0.223-0.5-0.5c0-0.274,0.224-0.5,0.5-0.5c0.275,0,0.5,0.226,0.5,0.5
		C19,21.777,18.775,22,18.5,22z M19,20c0,0.276-0.224,0.5-0.5,0.5S18,20.276,18,20v-3c0-0.276,0.224-0.5,0.5-0.5S19,16.724,19,17V20
		z"/>
</g>
<g id="invisible_shape">
	<rect fill="none" width="24" height="24"/>
</g>
</svg>
