<?xml version="1.0" encoding="utf-8"?>
<!-- Generator: Adobe Illustrator 19.2.0, SVG Export Plug-In . SVG Version: 6.00 Build 0)  -->
<svg version="1.1" xmlns="http://www.w3.org/2000/svg" xmlns:xlink="http://www.w3.org/1999/xlink" x="0px" y="0px" width="24px"
	 height="24px" viewBox="0 0 24 24" enable-background="new 0 0 24 24" xml:space="preserve">
<g id="Filled_Icons">
	<g>
		<g>
			<path d="M20,6.773V2.5C20,2.224,19.776,2,19.5,2h-4.727L20,6.773z"/>
		</g>
		<g>
			<g>
				<path d="M23.163,12.369L12,2.177L0.837,12.369c-0.203,0.186-0.52,0.173-0.706-0.033c-0.187-0.204-0.172-0.52,0.032-0.705
					l11.5-10.5c0.19-0.175,0.483-0.175,0.674,0l11.5,10.5c0.204,0.185,0.219,0.502,0.032,0.705
					C23.684,12.54,23.367,12.557,23.163,12.369z"/>
			</g>
		</g>
	</g>
	<path d="M16,23.33c-0.935,0.543-1.818,0.199-2.198-0.469l-0.999-1.728c-0.398-0.696-0.25-1.589,0.695-2.134
		c-0.967-0.562-1.087-1.457-0.694-2.134l0.999-1.732c0.384-0.66,1.258-1.004,2.196-0.463c0-1.078,0.696-1.67,1.5-1.67h2
		c0.827,0,1.5,0.673,1.5,1.5v-2.752l-9-8.216l-9,8.216V23.5C3,23.776,3.224,24,3.5,24h12.592C15.994,23.725,16,23.593,16,23.33z
		 M11.5,9C11.224,9,11,8.776,11,8.5v-1C11,7.224,11.224,7,11.5,7h1C12.776,7,13,7.224,13,7.5v1C13,8.776,12.776,9,12.5,9H11.5z"/>
	<path d="M23.147,19.951l-0.702-0.406c0.073-0.541,0.073-0.547,0-1.092l0.702-0.404c0.239-0.138,0.319-0.443,0.183-0.684
		l-1.001-1.732c-0.137-0.239-0.443-0.322-0.683-0.184l-0.702,0.406c-0.288-0.226-0.601-0.419-0.944-0.559V14.5
		c0-0.276-0.224-0.5-0.5-0.5h-2c-0.276,0-0.5,0.224-0.5,0.5v0.797c-0.344,0.14-0.656,0.334-0.945,0.559l-0.701-0.404
		c-0.24-0.139-0.545-0.057-0.684,0.182l-1,1.732c-0.139,0.239-0.057,0.546,0.184,0.684l0.701,0.405c-0.073,0.54-0.074,0.548,0,1.09
		l-0.702,0.405c-0.239,0.139-0.32,0.444-0.184,0.684l1.001,1.732c0.137,0.239,0.443,0.321,0.684,0.184l0.7-0.405
		c0.289,0.226,0.602,0.42,0.946,0.559V23.5c0,0.276,0.224,0.5,0.5,0.5h2c0.276,0,0.5-0.224,0.5-0.5v-0.797
		c0.345-0.14,0.657-0.334,0.946-0.559l0.701,0.404c0.239,0.138,0.544,0.056,0.683-0.184l1-1.732
		C23.469,20.395,23.387,20.088,23.147,19.951z M18.5,21c-1.104,0-2-0.896-2-2s0.896-2,2-2s2,0.896,2,2S19.604,21,18.5,21z"/>
</g>
<g id="invisible_shape">
	<rect fill="none" width="24" height="24"/>
</g>
</svg>
