<?xml version="1.0" encoding="utf-8"?>
<!-- Generator: Adobe Illustrator 19.2.0, SVG Export Plug-In . SVG Version: 6.00 Build 0)  -->
<svg version="1.1" xmlns="http://www.w3.org/2000/svg" xmlns:xlink="http://www.w3.org/1999/xlink" x="0px" y="0px" width="24px"
	 height="24px" viewBox="0 0 24 24" enable-background="new 0 0 24 24" xml:space="preserve">
<g id="Filled_Icons">
	<g>
		<path d="M20,2.5C20,2.224,19.776,2,19.5,2h-4.727L20,6.773V2.5z"/>
		<path d="M23.837,11.631l-11.5-10.5c-0.19-0.175-0.483-0.175-0.674,0l-11.5,10.5c-0.204,0.185-0.219,0.502-0.032,0.705
			c0.187,0.206,0.503,0.219,0.706,0.033L12,2.177l11.163,10.192c0.204,0.188,0.521,0.171,0.706-0.033
			C24.056,12.133,24.041,11.816,23.837,11.631z"/>
		<path d="M3,11.748V23.5C3,23.776,3.224,24,3.5,24h17c0.276,0,0.5-0.224,0.5-0.5V11.748l-9-8.216L3,11.748z M8.323,19.784
			c0.119,0.25,0.014,0.548-0.235,0.667c-0.25,0.119-0.547,0.014-0.667-0.234l-0.8-1.674H6.5V20c0,0.276-0.224,0.5-0.5,0.5
			S5.5,20.276,5.5,20v-3.914c0-0.276,0.224-0.5,0.5-0.5h0.937c0.655,0,1.436,0.256,1.436,1.478c0,0.774-0.313,1.16-0.709,1.339
			L8.323,19.784z M11.238,17.542c0.276,0,0.5,0.224,0.5,0.5c0,0.276-0.224,0.5-0.5,0.5H10.5V19.5h1.201c0.276,0,0.5,0.224,0.5,0.5
			s-0.224,0.5-0.5,0.5H10c-0.276,0-0.5-0.224-0.5-0.5v-3.914c0-0.276,0.224-0.5,0.5-0.5h1.701c0.276,0,0.5,0.224,0.5,0.5
			c0,0.276-0.224,0.5-0.5,0.5H10.5v0.957H11.238z M17.036,15.586h1.872c0.276,0,0.5,0.224,0.5,0.5c0,0.276-0.224,0.5-0.5,0.5h-0.435
			V20c0,0.276-0.224,0.5-0.5,0.5c-0.276,0-0.5-0.224-0.5-0.5v-3.414h-0.437c-0.276,0-0.5-0.224-0.5-0.5
			C16.536,15.81,16.76,15.586,17.036,15.586z M13.883,15.6c0.225-0.054,0.457,0.053,0.563,0.259l1.055,2.064v-1.837
			c0-0.276,0.224-0.5,0.5-0.5s0.5,0.224,0.5,0.5V20c0,0.23-0.158,0.432-0.383,0.486C16.078,20.496,16.039,20.5,16,20.5
			c-0.185,0-0.358-0.102-0.445-0.272L14.5,18.163V20c0,0.276-0.224,0.5-0.5,0.5s-0.5-0.224-0.5-0.5v-3.914
			C13.5,15.854,13.658,15.653,13.883,15.6z M13,7.5v1C13,8.776,12.776,9,12.5,9h-1C11.224,9,11,8.776,11,8.5v-1
			C11,7.224,11.224,7,11.5,7h1C12.776,7,13,7.224,13,7.5z"/>
		<path d="M6.937,16.586H6.5v0.957h0.437c0.383,0,0.436-0.058,0.436-0.479C7.372,16.644,7.319,16.586,6.937,16.586z"/>
	</g>
</g>
<g id="invisible_shape">
	<rect fill="none" width="24" height="24"/>
</g>
</svg>
