<?xml version="1.0" encoding="utf-8"?>
<!-- Generator: Adobe Illustrator 19.2.0, SVG Export Plug-In . SVG Version: 6.00 Build 0)  -->
<svg version="1.1" xmlns="http://www.w3.org/2000/svg" xmlns:xlink="http://www.w3.org/1999/xlink" x="0px" y="0px" width="24px"
	 height="24px" viewBox="0 0 24 24" enable-background="new 0 0 24 24" xml:space="preserve">
<g id="Filled_Icons">
	<g>
		<g>
			<g>
				<path d="M20,6.773V2.5C20,2.224,19.776,2,19.5,2h-4.727L20,6.773z"/>
			</g>
			<g>
				<g>
					<path d="M23.163,12.369L12,2.177L0.837,12.369c-0.203,0.187-0.52,0.173-0.706-0.033c-0.187-0.204-0.172-0.52,0.032-0.705
						l11.5-10.5c0.19-0.175,0.483-0.175,0.674,0l11.5,10.5c0.204,0.185,0.219,0.502,0.032,0.705
						C23.684,12.54,23.367,12.557,23.163,12.369z"/>
				</g>
			</g>
			<path d="M12,18.5c0-3.584,2.916-6.5,6.5-6.5c0.886,0,1.73,0.179,2.5,0.502v-0.754l-9-8.216l-9,8.216V23.5
				C3,23.776,3.224,24,3.5,24h11.552C13.222,22.85,12,20.816,12,18.5z M11,8.5v-1C11,7.224,11.224,7,11.5,7h1
				C12.776,7,13,7.224,13,7.5v1C13,8.776,12.776,9,12.5,9h-1C11.224,9,11,8.776,11,8.5z"/>
		</g>
		<path d="M18.5,13c-3.033,0-5.5,2.467-5.5,5.5c0,3.033,2.467,5.5,5.5,5.5c3.032,0,5.5-2.467,5.5-5.5C24,15.467,21.532,13,18.5,13z
			 M17.137,15.727c0.525,0,0.954,0.428,0.954,0.953c0,0.527-0.429,0.954-0.954,0.954c-0.527,0-0.955-0.427-0.955-0.954
			C16.182,16.155,16.61,15.727,17.137,15.727z M19.863,21.271c-0.526,0-0.954-0.428-0.954-0.953c0-0.526,0.428-0.956,0.954-0.956
			c0.526,0,0.955,0.429,0.955,0.956C20.818,20.843,20.39,21.271,19.863,21.271z M21.164,16.504l-4.566,4.564
			c-0.193,0.194-0.511,0.197-0.707,0c-0.195-0.196-0.195-0.511,0-0.708l4.565-4.564c0.195-0.195,0.512-0.195,0.707,0
			C21.359,15.992,21.359,16.31,21.164,16.504z"/>
	</g>
</g>
<g id="invisible_shape">
	<rect fill="none" width="24" height="24"/>
</g>
</svg>
