<?xml version="1.0" encoding="utf-8"?>
<!-- Generator: Adobe Illustrator 19.2.0, SVG Export Plug-In . SVG Version: 6.00 Build 0)  -->
<svg version="1.1" xmlns="http://www.w3.org/2000/svg" xmlns:xlink="http://www.w3.org/1999/xlink" x="0px" y="0px" width="24px"
	 height="24px" viewBox="0 0 24 24" enable-background="new 0 0 24 24" xml:space="preserve">
<g id="Filled_Icons">
	<g>
		<g>
			<path d="M20,6.773V2.5C20,2.224,19.776,2,19.5,2h-4.727L20,6.773z"/>
		</g>
		<g>
			<g>
				<path d="M23.163,12.369L12,2.177L0.837,12.369c-0.203,0.186-0.52,0.173-0.706-0.033c-0.187-0.204-0.172-0.52,0.032-0.705
					l11.5-10.5c0.19-0.175,0.483-0.175,0.674,0l11.5,10.5c0.204,0.185,0.219,0.502,0.032,0.705
					C23.684,12.54,23.367,12.557,23.163,12.369z"/>
			</g>
		</g>
	</g>
	<path d="M14,20.434v-5.925c0-1.204,1.36-1.92,2.354-1.232c0.843,0.589,1.527,0.652,1.962,0.098c0.563-0.717,1.806-0.716,2.368,0
		c0.093,0.118,0.2,0.203,0.315,0.266v-1.892l-9-8.216l-9,8.216V23.5C3,23.776,3.224,24,3.5,24h13.381
		C15.097,22.962,14,21.52,14,20.434z M13,8.5C13,8.776,12.776,9,12.5,9h-1C11.224,9,11,8.776,11,8.5v-1C11,7.224,11.224,7,11.5,7h1
		C12.776,7,13,7.224,13,7.5V8.5z"/>
	<path d="M23.213,14.1c-1.449,1.013-2.639,0.756-3.315-0.108c-0.189-0.241-0.605-0.241-0.795,0c-0.681,0.867-1.868,1.12-3.317,0.107
		C15.451,13.867,15,14.11,15,14.509v5.925c0,0.802,1.463,2.735,4.365,3.549c0.096,0.024,0.174,0.024,0.27,0
		C22.537,23.169,24,21.235,24,20.434v-5.925C24,14.108,23.546,13.865,23.213,14.1z M21.519,19H20v1.466c0,0.277-0.224,0.5-0.5,0.5
		s-0.5-0.223-0.5-0.5V19h-1.522c-0.276,0-0.5-0.224-0.5-0.5s0.224-0.5,0.5-0.5H19v-1.521c0-0.276,0.224-0.5,0.5-0.5
		s0.5,0.224,0.5,0.5V18h1.519c0.276,0,0.5,0.224,0.5,0.5S21.795,19,21.519,19z"/>
</g>
<g id="invisible_shape">
	<rect fill="none" width="24" height="24"/>
</g>
</svg>
