<?xml version="1.0" encoding="utf-8"?>
<!-- Generator: Adobe Illustrator 19.2.0, SVG Export Plug-In . SVG Version: 6.00 Build 0)  -->
<svg version="1.1" xmlns="http://www.w3.org/2000/svg" xmlns:xlink="http://www.w3.org/1999/xlink" x="0px" y="0px" width="24px"
	 height="24px" viewBox="0 0 24 24" enable-background="new 0 0 24 24" xml:space="preserve">
<g id="Filled_Icons">
	<g>
		<g>
			<path d="M20,6.773V2.5C20,2.224,19.776,2,19.5,2h-4.727L20,6.773z"/>
		</g>
		<g>
			<g>
				<path d="M23.163,12.369L12,2.177L0.837,12.369c-0.203,0.187-0.52,0.173-0.706-0.033c-0.187-0.204-0.172-0.52,0.032-0.705
					l11.5-10.5c0.19-0.175,0.483-0.175,0.674,0l11.5,10.5c0.204,0.185,0.219,0.502,0.032,0.705
					C23.684,12.54,23.367,12.557,23.163,12.369z"/>
			</g>
		</g>
		<path d="M19.004,21.498c-0.001,0-0.006,0-0.006,0c-1.674,0-3.105-1.037-3.7-2.5H15v1.382c0,0.829-0.672,1.5-1.5,1.5
			c-0.197,0-0.385-0.04-0.558-0.11c-0.173,0.639-0.75,1.11-1.442,1.11c-0.829,0-1.5-0.671-1.5-1.5v-2.382c-0.829,0-1.5-0.67-1.5-1.5
			c0-0.829,0.671-1.5,1.5-1.5h5.298c0.595-1.462,2.025-2.498,3.697-2.498c0.734,0,1.413,0.211,2.005,0.558v-2.31l-9-8.216l-9,8.216
			V23.5C3,23.776,3.224,24,3.5,24h17c0.276,0,0.5-0.224,0.5-0.5v-2.555C20.397,21.295,19.719,21.498,19.004,21.498z M11,7.5
			C11,7.224,11.224,7,11.5,7h1C12.776,7,13,7.224,13,7.5v1C13,8.776,12.776,9,12.5,9h-1C11.224,9,11,8.776,11,8.5V7.5z"/>
		<path d="M18.995,14.5c-1.48,0-2.705,1.084-2.944,2.5H10c-0.276-0.002-0.5,0.221-0.5,0.498c0,0.277,0.224,0.5,0.5,0.5h1v3.382
			c0,0.277,0.224,0.5,0.5,0.5s0.5-0.223,0.5-0.5v-3.382h1v2.382c0,0.277,0.224,0.5,0.5,0.5s0.5-0.223,0.5-0.5v-2.382h2.051
			c0.239,1.417,1.466,2.5,2.948,2.5h0.005c0.801,0,1.553-0.312,2.119-0.878C21.69,19.052,22,18.299,22,17.5
			C22,15.846,20.656,14.5,18.995,14.5z M20.416,18.911c-0.377,0.379-0.879,0.587-1.412,0.587H19c-1.103,0-2-0.896-2-2
			c0-1.102,0.895-1.998,2.004-1.998c1.101,0,1.996,0.896,1.996,2C21,18.033,20.793,18.535,20.416,18.911z"/>
	</g>
</g>
<g id="invisible_shape">
	<rect fill="none" width="24" height="24"/>
</g>
</svg>
