<?xml version="1.0" encoding="utf-8"?>
<!-- Generator: Adobe Illustrator 19.2.0, SVG Export Plug-In . SVG Version: 6.00 Build 0)  -->
<svg version="1.1" xmlns="http://www.w3.org/2000/svg" xmlns:xlink="http://www.w3.org/1999/xlink" x="0px" y="0px" width="24px"
	 height="24px" viewBox="0 0 24 24" enable-background="new 0 0 24 24" xml:space="preserve">
<g id="Filled_Icons">
	<g>
		<path d="M6.5,11.5c0-0.316-0.092-0.5-0.563-0.5H5.5v1h0.437C6.408,12,6.5,11.817,6.5,11.5z"/>
		<path d="M19,8h-1.293l-5.354-5.353c-0.195-0.195-0.512-0.195-0.707,0L6.293,8H5c-1.379,0-2.5,1.122-2.5,2.5v4
			C2.5,15.878,3.621,17,5,17h14c1.379,0,2.5-1.122,2.5-2.5v-4C21.5,9.122,20.379,8,19,8z M7.323,14.284
			c0.119,0.25,0.014,0.548-0.235,0.667C7.019,14.984,6.944,15,6.872,15c-0.187,0-0.365-0.106-0.451-0.284L5.601,13H5.5v1.5
			C5.5,14.776,5.276,15,5,15s-0.5-0.224-0.5-0.5v-4C4.5,10.224,4.724,10,5,10h0.937C6.901,10,7.5,10.575,7.5,11.5
			c0,0.668-0.32,1.144-0.856,1.362L7.323,14.284z M12,3.707L16.293,8H7.707L12,3.707z M10.238,12c0.276,0,0.5,0.224,0.5,0.5
			s-0.224,0.5-0.5,0.5H9.5v1H11c0.276,0,0.5,0.224,0.5,0.5S11.276,15,11,15H9c-0.276,0-0.5-0.224-0.5-0.5v-4
			C8.5,10.224,8.724,10,9,10h2c0.276,0,0.5,0.224,0.5,0.5S11.276,11,11,11H9.5v1H10.238z M15.5,14.5
			c0,0.232-0.159,0.434-0.385,0.487C15.076,14.996,15.038,15,15,15c-0.186,0-0.361-0.104-0.447-0.276L13.5,12.619V14.5
			c0,0.276-0.224,0.5-0.5,0.5s-0.5-0.224-0.5-0.5v-4c0-0.232,0.159-0.434,0.385-0.487c0.229-0.05,0.459,0.056,0.563,0.264
			l1.053,2.105V10.5c0-0.276,0.224-0.5,0.5-0.5s0.5,0.224,0.5,0.5V14.5z M19.5,11h-1v3.5c0,0.276-0.224,0.5-0.5,0.5
			s-0.5-0.224-0.5-0.5V11h-1c-0.276,0-0.5-0.224-0.5-0.5s0.224-0.5,0.5-0.5h3c0.276,0,0.5,0.224,0.5,0.5S19.776,11,19.5,11z"/>
	</g>
</g>
<g id="invisible_shape">
	<rect fill="none" width="24" height="24"/>
</g>
</svg>
