<?xml version="1.0" encoding="utf-8"?>
<!-- Generator: Adobe Illustrator 19.2.0, SVG Export Plug-In . SVG Version: 6.00 Build 0)  -->
<svg version="1.1" xmlns="http://www.w3.org/2000/svg" xmlns:xlink="http://www.w3.org/1999/xlink" x="0px" y="0px" width="24px"
	 height="24px" viewBox="0 0 24 24" enable-background="new 0 0 24 24" xml:space="preserve">
<g id="Filled_Icons">
	<g>
		<path d="M23,0H2C1.447,0,1,0.448,1,1c0,0.552,0.447,1,1,1h3v2H2.5C2.224,4,2,4.224,2,4.5v12C2,16.776,2.224,17,2.5,17h17
			c0.276,0,0.5-0.224,0.5-0.5v-12C20,4.224,19.776,4,19.5,4H17V2h5v21c0,0.552,0.447,1,1,1s1-0.448,1-1V1C24,0.448,23.553,0,23,0z
			 M6,2h10v2H6V2z M5.935,13c-0.758,0-1.388-0.618-1.434-1.407c-0.016-0.276,0.194-0.513,0.47-0.528
			c0.269-0.015,0.512,0.194,0.528,0.471C5.515,11.795,5.705,12,5.935,12c0.241,0,0.438-0.225,0.438-0.501
			c0-0.273-0.136-0.405-0.518-0.503C4.719,10.698,4.5,10.021,4.5,9.5C4.5,8.673,5.144,8,5.936,8c0.758,0,1.389,0.618,1.436,1.406
			c0.017,0.276-0.193,0.512-0.469,0.529C6.608,9.946,6.39,9.741,6.373,9.465C6.357,9.205,6.165,9,5.936,9C5.695,9,5.5,9.224,5.5,9.5
			c0,0.271,0.136,0.404,0.517,0.504c1.19,0.306,1.355,1.067,1.355,1.495C7.372,12.327,6.727,13,5.935,13z M9.5,13
			C8,13,8,11.436,8,10.5C8,9.565,8,8,9.5,8S11,9.565,11,10.5C11,11.436,11,13,9.5,13z M14,13h-1.5c-0.276,0-0.5-0.224-0.5-0.5v-4
			C12,8.224,12.224,8,12.5,8S13,8.224,13,8.5V12h1c0.276,0,0.5,0.224,0.5,0.5S14.276,13,14,13z M18,10.5c0,1.402-0.879,2.5-2,2.5
			h-0.5c-0.276,0-0.5-0.224-0.5-0.5v-4C15,8.224,15.224,8,15.5,8H16C17.121,8,18,9.098,18,10.5z"/>
		<path d="M9.5,9C9.19,9,9,9.072,9,10.5S9.19,12,9.5,12s0.5-0.072,0.5-1.5S9.81,9,9.5,9z"/>
		<path d="M16,12c0.552,0,1-0.673,1-1.5S16.552,9,16,9V12z"/>
	</g>
</g>
<g id="invisible_shape">
	<rect fill="none" width="24" height="24"/>
</g>
</svg>
