<?xml version="1.0" encoding="utf-8"?>
<!-- Generator: Adobe Illustrator 19.2.0, SVG Export Plug-In . SVG Version: 6.00 Build 0)  -->
<svg version="1.1" xmlns="http://www.w3.org/2000/svg" xmlns:xlink="http://www.w3.org/1999/xlink" x="0px" y="0px" width="24px"
	 height="24px" viewBox="0 0 24 24" enable-background="new 0 0 24 24" xml:space="preserve">
<g id="Filled_Icons">
	<g>
		<path d="M17,23.507c0,0.276,0.224,0.5,0.5,0.493h3c0.276,0.007,0.5-0.217,0.5-0.493v-2.5h-4V23.507z"/>
		<path d="M3,23.507c0,0.276,0.224,0.5,0.5,0.493h3C6.776,24.007,7,23.783,7,23.507v-2.5H3V23.507z"/>
		<path d="M16.437,5H16v0.957h0.413c0,0,0.002,0,0.002,0h0.022c0.383,0,0.436-0.058,0.436-0.478C16.873,5.058,16.82,5,16.437,5z"/>
		<path d="M12.106,5C11.865,5,11.5,5,11.5,6.5S11.865,8,12.106,8c0.242,0,0.607,0,0.607-1.5S12.348,5,12.106,5z"/>
		<path d="M6.437,12H6v0.957h0.437c0.383,0,0.436-0.058,0.436-0.478C6.872,12.058,6.819,12,6.437,12z"/>
		<path d="M22.5,0.007h-21c-0.276,0-0.5,0.223-0.5,0.5v19c0,0.276,0.224,0.5,0.5,0.493h21c0.276,0.007,0.5-0.217,0.5-0.493v-19
			C23,0.229,22.776,0.007,22.5,0.007z M7.823,15.199c0.119,0.249,0.014,0.547-0.235,0.667c-0.07,0.033-0.143,0.049-0.215,0.049
			c-0.187,0-0.366-0.105-0.452-0.284l-0.8-1.674H6v1.458c0,0.276-0.224,0.5-0.5,0.5S5,15.691,5,15.415V11.5
			C5,11.224,5.224,11,5.5,11h0.937c0.655,0,1.436,0.257,1.436,1.479c0,0.773-0.313,1.159-0.709,1.338L7.823,15.199z M8,7v1.5
			C8,8.776,7.776,9,7.5,9S7,8.776,7,8.5v-4C7,4.224,7.224,4,7.5,4h1.701c0.276,0,0.5,0.224,0.5,0.5S9.477,5,9.201,5H8v1h0.738
			c0.276,0,0.5,0.224,0.5,0.5S9.015,7,8.738,7H8z M10.738,13c0.276,0,0.5,0.224,0.5,0.5s-0.224,0.5-0.5,0.5H10v1h1.201
			c0.276,0,0.5,0.224,0.5,0.5s-0.224,0.5-0.5,0.5H9.5C9.224,16,9,15.776,9,15.5v-4C9,11.224,9.224,11,9.5,11h1.701
			c0.276,0,0.5,0.224,0.5,0.5s-0.224,0.5-0.5,0.5H10v1H10.738z M10.5,6.5c0-0.684,0-2.5,1.606-2.5c1.607,0,1.607,1.816,1.607,2.5
			s0,2.5-1.607,2.5C10.5,9,10.5,7.184,10.5,6.5z M16,15.415c0,0.231-0.158,0.432-0.383,0.486c-0.039,0.01-0.079,0.014-0.117,0.014
			c-0.185,0-0.358-0.103-0.445-0.273L14,13.578v1.837c0,0.276-0.224,0.5-0.5,0.5s-0.5-0.224-0.5-0.5V11.5
			c0-0.231,0.158-0.432,0.383-0.486c0.225-0.054,0.457,0.053,0.563,0.259L15,13.337V11.5c0-0.276,0.224-0.5,0.5-0.5
			s0.5,0.224,0.5,0.5V15.415z M16.121,6.957H16v1.458c0,0.276-0.224,0.5-0.5,0.5S15,8.691,15,8.415V4.5C15,4.224,15.224,4,15.5,4
			h0.937c0.655,0,1.436,0.257,1.436,1.478c0,0.774-0.313,1.159-0.71,1.34l0.661,1.381c0.119,0.249,0.014,0.547-0.235,0.667
			c-0.07,0.033-0.143,0.049-0.215,0.049c-0.187,0-0.366-0.105-0.452-0.284L16.121,6.957z M19.5,12H19v3.5
			c0.004,0.276-0.22,0.5-0.496,0.5s-0.5-0.224-0.504-0.5V12h-0.5c-0.276,0-0.5-0.224-0.5-0.5s0.224-0.5,0.5-0.5h2
			c0.276,0,0.5,0.224,0.5,0.5S19.776,12,19.5,12z"/>
	</g>
</g>
<g id="invisible_shape">
	<rect fill="none" width="24" height="24"/>
</g>
</svg>
