<?xml version="1.0" encoding="utf-8"?>
<!-- Generator: Adobe Illustrator 19.2.0, SVG Export Plug-In . SVG Version: 6.00 Build 0)  -->
<svg version="1.1" xmlns="http://www.w3.org/2000/svg" xmlns:xlink="http://www.w3.org/1999/xlink" x="0px" y="0px" width="24px"
	 height="24px" viewBox="0 0 24 24" enable-background="new 0 0 24 24" xml:space="preserve">
<g id="Filled_Icons">
	<g>
		<polygon points="10.258,13.021 10.615,13.021 10.436,12.377 		"/>
		<path d="M19,8h-1.293l-5.354-5.353c-0.195-0.195-0.512-0.195-0.707,0L6.293,8H5c-1.379,0-2.5,1.122-2.5,2.5v4
			C2.5,15.878,3.621,17,5,17h14c1.379,0,2.5-1.122,2.5-2.5v-4C21.5,9.122,20.379,8,19,8z M12,3.707L16.293,8H7.707L12,3.707z
			 M6.969,15c-0.758,0-1.389-0.618-1.436-1.407c-0.017-0.276,0.193-0.513,0.47-0.529c0.273-0.011,0.513,0.194,0.528,0.47
			C6.547,13.795,6.739,14,6.969,14c0.24,0,0.437-0.225,0.437-0.5c0-0.274-0.136-0.406-0.517-0.504
			c-1.138-0.301-1.357-0.977-1.357-1.496c0-0.827,0.645-1.5,1.438-1.5c0.758,0,1.388,0.618,1.435,1.406
			c0.017,0.276-0.193,0.512-0.469,0.529c-0.297,0.015-0.513-0.193-0.529-0.469C7.391,11.205,7.199,11,6.97,11
			c-0.241,0-0.438,0.224-0.438,0.5c0,0.271,0.136,0.402,0.518,0.503c1.19,0.307,1.356,1.068,1.356,1.497
			C8.405,14.327,7.761,15,6.969,15z M11.675,14.982C11.631,14.994,11.586,15,11.542,15c-0.22,0-0.421-0.146-0.482-0.367
			l-0.169-0.612h-0.91l-0.169,0.612c-0.072,0.266-0.346,0.42-0.615,0.349c-0.266-0.074-0.422-0.35-0.348-0.615l0.233-0.845v-0.001
			c0-0.085,0.027-0.161,0.064-0.231l0.809-2.923C10.015,10.15,10.212,10,10.436,10c0.225,0,0.422,0.15,0.482,0.367l0.809,2.925
			c0.035,0.067,0.06,0.14,0.061,0.221l0.236,0.854C12.098,14.633,11.941,14.908,11.675,14.982z M14.5,15H13
			c-0.276,0-0.5-0.224-0.5-0.5v-4c0-0.276,0.224-0.5,0.5-0.5s0.5,0.224,0.5,0.5V14h1c0.276,0,0.5,0.224,0.5,0.5S14.776,15,14.5,15z
			 M17.238,12c0.276,0,0.5,0.224,0.5,0.5s-0.224,0.5-0.5,0.5H16.5v1H18c0.276,0,0.5,0.224,0.5,0.5S18.276,15,18,15h-2
			c-0.276,0-0.5-0.224-0.5-0.5v-4c0-0.276,0.224-0.5,0.5-0.5h2c0.276,0,0.5,0.224,0.5,0.5S18.276,11,18,11h-1.5v1H17.238z"/>
	</g>
</g>
<g id="invisible_shape">
	<rect fill="none" width="24" height="24"/>
</g>
</svg>
