<?xml version="1.0" encoding="utf-8"?>
<!-- Generator: Adobe Illustrator 19.2.1, SVG Export Plug-In . SVG Version: 6.00 Build 0)  -->
<svg version="1.1" xmlns="http://www.w3.org/2000/svg" xmlns:xlink="http://www.w3.org/1999/xlink" x="0px" y="0px" width="24px"
	 height="24px" viewBox="0 0 24 24" enable-background="new 0 0 24 24" xml:space="preserve">
<g id="Filled_Icons_1_">
	<g id="Filled_Icons">
		<g>
			<path d="M10,0C4.393,0,0,1.977,0,4.5C0,6.085,4.461,8,10,8c4.579,0,8.625-1.262,10-2.578V4.5C20,1.977,15.607,0,10,0z"/>
			<path d="M0,6.362V9c0,1.585,4.46,3.5,10,3.5c4.578,0,8.625-1.262,10-2.579V6.669C17.864,8.106,13.783,9,10,9
				C6.035,9,1.862,7.992,0,6.362z"/>
			<path d="M0,10.862V13.5C0,15.085,4.46,17,10,17c4.578,0,8.625-1.262,10-2.578v-3.253c-2.137,1.437-6.218,2.331-10,2.331
				C6.035,13.5,1.862,12.492,0,10.862z"/>
			<path d="M0,15.362V17.5C0,20.023,4.393,22,10,22s10-1.977,10-4.5v-1.831C17.863,17.105,13.782,18,10,18
				C6.035,18,1.862,16.992,0,15.362z"/>
		</g>
	</g>
	<g id="New_icons">
	</g>
</g>
<g id="Invisible_Shape">
	<rect fill="none" width="24" height="24"/>
</g>
</svg>
