<?xml version="1.0" encoding="utf-8"?>
<!-- Generator: Adobe Illustrator 19.2.1, SVG Export Plug-In . SVG Version: 6.00 Build 0)  -->
<svg version="1.1" xmlns="http://www.w3.org/2000/svg" xmlns:xlink="http://www.w3.org/1999/xlink" x="0px" y="0px" width="24px"
	 height="24px" viewBox="0 0 24 24" enable-background="new 0 0 24 24" xml:space="preserve">
<g id="Filled_Icons_1_">
	<g id="Filled_Icons">
		<g>
			<g>
				<path d="M21,14.707L14.707,21c0.77,0.616,1.733,1,2.793,1c2.481,0,4.5-2.018,4.5-4.5C22,16.44,21.616,15.477,21,14.707z"/>
				<path d="M20.293,14c-0.77-0.615-1.733-1-2.793-1c-2.481,0-4.5,2.019-4.5,4.5c0,1.06,0.384,2.023,1,2.793L20.293,14z"/>
				<path d="M17.5,11c-3.584,0-6.5,2.916-6.5,6.5s2.916,6.5,6.5,6.5s6.5-2.916,6.5-6.5S21.084,11,17.5,11z M17.5,23
					c-3.033,0-5.5-2.467-5.5-5.5s2.467-5.5,5.5-5.5s5.5,2.467,5.5,5.5S20.533,23,17.5,23z"/>
			</g>
			<g>
				<path d="M22,7c0,0,0-5.481,0-5.5C22,0.673,21.327,0,20.5,0h-19C0.673,0,0,0.673,0,1.5C0,1.513,0,7,0,7H22z M8,3h10
					c0.276,0,0.5,0.224,0.5,0.5S18.276,4,18,4H8C7.724,4,7.5,3.776,7.5,3.5S7.724,3,8,3z M8,5h10c0.276,0,0.5,0.224,0.5,0.5
					S18.276,6,18,6H8C7.724,6,7.5,5.776,7.5,5.5S7.724,5,8,5z M4,2.5c0.827,0,1.5,0.673,1.5,1.5S4.827,5.5,4,5.5S2.5,4.827,2.5,4
					S3.173,2.5,4,2.5z"/>
				<path d="M10.438,20H8c-0.276,0-0.5-0.224-0.5-0.5S7.724,19,8,19h2.151c-0.066-0.325-0.103-0.66-0.126-1H8
					c-0.276,0-0.5-0.224-0.5-0.5S7.724,17,8,17h2.025c0.046-0.697,0.188-1.367,0.412-2H0c0,5.48,0,5.48,0,5.5
					C0,21.327,0.673,22,1.5,22h10.014C11.06,21.396,10.695,20.725,10.438,20z M4,19.5c-0.827,0-1.5-0.673-1.5-1.5s0.673-1.5,1.5-1.5
					s1.5,0.673,1.5,1.5S4.827,19.5,4,19.5z"/>
				<path d="M11.514,13H8c-0.276,0-0.5-0.224-0.5-0.5S7.724,12,8,12h4.418c0.413-0.382,0.866-0.718,1.356-1H8
					c-0.276,0-0.5-0.224-0.5-0.5S7.724,10,8,10h10c1.132,0,2.912,0.694,4,1.514C22,11.506,22,8,22,8H0c0,0.001,0,5.999,0,5.999
					L10.872,14C11.059,13.648,11.276,13.316,11.514,13z M4,12.5c-0.827,0-1.5-0.673-1.5-1.5S3.173,9.5,4,9.5s1.5,0.673,1.5,1.5
					S4.827,12.5,4,12.5z"/>
				<circle cx="4" cy="4" r="0.5"/>
				<circle cx="4" cy="18" r="0.5"/>
				<circle cx="4" cy="11" r="0.5"/>
			</g>
		</g>
	</g>
	<g id="New_icons">
	</g>
</g>
<g id="Invisible_Shape">
	<rect fill="none" width="24" height="24"/>
</g>
</svg>
