<?xml version="1.0" encoding="utf-8"?>
<!-- Generator: Adobe Illustrator 19.2.1, SVG Export Plug-In . SVG Version: 6.00 Build 0)  -->
<svg version="1.1" xmlns="http://www.w3.org/2000/svg" xmlns:xlink="http://www.w3.org/1999/xlink" x="0px" y="0px" width="24px"
	 height="24px" viewBox="0 0 24 24" enable-background="new 0 0 24 24" xml:space="preserve">
<g id="Filled_Icons_1_">
	<g id="Filled_Icons">
		<g>
			<path d="M10,0C4.393,0,0,1.977,0,4.5C0,6.085,4.461,8,10,8c4.579,0,8.625-1.262,10-2.578V4.5C20,1.977,15.607,0,10,0z"/>
			<path d="M0,6.362V9c0,1.585,4.46,3.5,10,3.5c4.578,0,8.625-1.262,10-2.579V6.669C17.864,8.106,13.783,9,10,9
				C6.035,9,1.862,7.992,0,6.362z"/>
			<g>
				<path d="M20,12.607v-1.439c-0.486,0.327-1.084,0.622-1.746,0.889C18.875,12.144,19.463,12.331,20,12.607z"/>
				<path d="M14.136,13.159C12.789,13.379,11.376,13.5,10,13.5c-3.965,0-8.138-1.008-10-2.638V13.5C0,15.085,4.46,17,10,17
					c0.692,0,1.371-0.032,2.032-0.086C12.194,15.39,12.984,14.053,14.136,13.159z"/>
			</g>
			<g>
				<path d="M12.021,17.908C11.346,17.963,10.669,18,10,18c-3.965,0-8.138-1.008-10-2.638V17.5C0,20.023,4.393,22,10,22
					c1.394,0,2.713-0.123,3.908-0.345C12.839,20.729,12.131,19.402,12.021,17.908z"/>
			</g>
			<path d="M23.854,23.146L21,20.293c0.616-0.77,1-1.733,1-2.793c0-2.481-2.018-4.5-4.499-4.5C15.019,13,13,15.019,13,17.5
				c0,2.48,2.019,4.5,4.501,4.5c1.059,0,2.022-0.385,2.792-1l2.854,2.854c0.195,0.194,0.512,0.194,0.707,0
				C24.049,23.659,24.049,23.342,23.854,23.146z M17.501,21C15.57,21,14,19.43,14,17.5c0-1.929,1.57-3.5,3.501-3.5
				C19.43,14,21,15.571,21,17.5C21,19.43,19.43,21,17.501,21z"/>
		</g>
	</g>
	<g id="New_icons">
	</g>
</g>
<g id="Invisible_Shape">
	<rect fill="none" width="24" height="24"/>
</g>
</svg>
