<?xml version="1.0" encoding="utf-8"?>
<!-- Generator: Adobe Illustrator 19.2.1, SVG Export Plug-In . SVG Version: 6.00 Build 0)  -->
<svg version="1.1" xmlns="http://www.w3.org/2000/svg" xmlns:xlink="http://www.w3.org/1999/xlink" x="0px" y="0px" width="24px"
	 height="24px" viewBox="0 0 24 24" enable-background="new 0 0 24 24" xml:space="preserve">
<g id="Filled_Icons_1_">
	<g id="Filled_Icons">
		<g>
			<path d="M3,5.058V7.5C3,8.483,6.864,10,12,10c5.135,0,9-1.517,9-2.5V5.058C19.13,6.375,15.021,7,12,7
				C8.977,7,4.869,6.375,3,5.058z"/>
			<path d="M12,0C7.637,0,3,1.227,3,3.5C3,4.483,6.864,6,12,6c5.135,0,9-1.517,9-2.5C21,1.227,16.362,0,12,0z"/>
			<path d="M3,9.058V11.5c0,0.983,3.864,2.5,9,2.5c5.135,0,9-1.517,9-2.5V9.058C19.13,10.375,15.021,11,12,11
				C8.977,11,4.869,10.375,3,9.058z"/>
			<path d="M3,13.058V15.5c0,2.1,3.957,3.301,8,3.473V23H5.5C5.224,23,5,23.224,5,23.5S5.224,24,5.5,24h13
				c0.276,0,0.5-0.224,0.5-0.5S18.776,23,18.5,23H12v-4.009h0.5c4.209-0.09,8.5-1.305,8.5-3.491v-2.442
				C19.13,14.375,15.021,15,12,15C8.977,15,4.869,14.375,3,13.058z"/>
			<circle cx="1.5" cy="23.5" r="0.5"/>
			<circle cx="3.5" cy="23.5" r="0.5"/>
			<circle cx="20.5" cy="23.5" r="0.5"/>
			<circle cx="22.5" cy="23.5" r="0.5"/>
		</g>
	</g>
	<g id="New_icons">
	</g>
</g>
<g id="Invisible_Shape">
	<rect fill="none" width="24" height="24"/>
</g>
</svg>
