<?xml version="1.0" encoding="utf-8"?>
<!-- Generator: Adobe Illustrator 19.2.1, SVG Export Plug-In . SVG Version: 6.00 Build 0)  -->
<svg version="1.1" xmlns="http://www.w3.org/2000/svg" xmlns:xlink="http://www.w3.org/1999/xlink" x="0px" y="0px" width="24px"
	 height="24px" viewBox="0 0 24 24" enable-background="new 0 0 24 24" xml:space="preserve">
<g id="Filled_Icons_1_">
	<g id="Filled_Icons">
	</g>
	<g id="New_icons">
		<g>
			<path d="M10,0C4.393,0,0,1.977,0,4.5C0,6.085,4.461,8,10,8c4.579,0,8.625-1.262,10-2.578V4.5C20,1.977,15.607,0,10,0z"/>
			<path d="M15.5,19.5h-2c-0.713,0-1.318-0.704-0.78-1.65C11.816,17.946,10.9,18,10,18c-3.965,0-8.138-1.008-10-2.638V17.5
				C0,20.023,4.393,22,10,22c2.048,0,3.931-0.266,5.5-0.724V19.5z"/>
			<g>
				<path d="M18.5,15.381c0.645-0.304,1.156-0.63,1.5-0.959v-3.253c-0.424,0.285-0.941,0.542-1.5,0.781V15.381z"/>
				<path d="M15.557,12.885C13.811,13.279,11.87,13.5,10,13.5c-3.965,0-8.138-1.008-10-2.638V13.5C0,15.085,4.46,17,10,17
					c1.156,0,2.278-0.081,3.333-0.223L15.557,12.885z"/>
			</g>
			<path d="M16.632,11.004c0.356-0.626,1.267-0.703,1.696-0.048c0.724-0.325,1.299-0.678,1.672-1.035V6.669
				C17.864,8.106,13.783,9,10,9C6.035,9,1.862,7.992,0,6.362V9c0,1.585,4.46,3.5,10,3.5c2.306,0,4.475-0.32,6.237-0.807
				L16.632,11.004z"/>
			<polygon points="17.5,11.5 13.5,18.5 16.5,18.5 16.5,23.5 20.5,16.5 17.5,16.5 			"/>
		</g>
	</g>
</g>
<g id="Invisible_Shape">
	<rect fill="none" width="24" height="24"/>
</g>
</svg>
