<?xml version="1.0" encoding="utf-8"?>
<!-- Generator: Adobe Illustrator 19.2.1, SVG Export Plug-In . SVG Version: 6.00 Build 0)  -->
<svg version="1.1" xmlns="http://www.w3.org/2000/svg" xmlns:xlink="http://www.w3.org/1999/xlink" x="0px" y="0px" width="24px"
	 height="24px" viewBox="0 0 24 24" enable-background="new 0 0 24 24" xml:space="preserve">
<g id="Filled_Icons_1_">
	<g id="Filled_Icons">
		<g>
			<path d="M10,0C4.393,0,0,1.977,0,4.5C0,6.085,4.461,8,10,8c4.579,0,8.625-1.262,10-2.578V4.5C20,1.977,15.607,0,10,0z"/>
			<path d="M10.2,19.813c-0.352-0.61-0.222-1.366,0.268-1.833C10.312,17.984,10.155,18,10,18c-3.965,0-8.138-1.008-10-2.638V17.5
				c0,2.722,5.11,4.826,11.424,4.433L10.2,19.813z"/>
			<path d="M10.052,16.286c-0.103-0.37-0.048-0.788,0.152-1.133l0.975-1.687C10.784,13.486,10.391,13.5,10,13.5
				c-3.965,0-8.138-1.008-10-2.638V13.5c0,1.668,4.877,3.628,10.472,3.489C10.271,16.798,10.121,16.556,10.052,16.286z"/>
			<path d="M13.885,11.779l0.365,0.211c0.044-0.025,0.087-0.05,0.131-0.074V11.5c0-0.827,0.673-1.5,1.5-1.5h3.265
				c0.216,0,0.42,0.048,0.605,0.13c0.088-0.069,0.176-0.139,0.249-0.209V6.669C17.864,8.106,13.783,9,10,9
				C6.035,9,1.862,7.992,0,6.362V9c0,1.585,4.46,3.5,10,3.5c0.606,0,1.197-0.029,1.778-0.071
				C12.284,11.56,13.227,11.401,13.885,11.779z"/>
			<path d="M23.75,18.631l-0.893-0.516c0.055-0.439,0.05-0.846,0-1.262l0.891-0.515c0.239-0.138,0.321-0.444,0.184-0.683
				l-1.633-2.828c-0.129-0.225-0.431-0.33-0.684-0.183l-0.887,0.516c-0.327-0.241-0.693-0.453-1.083-0.624V11.5
				c0-0.276-0.224-0.5-0.5-0.5h-3.265c-0.276,0-0.5,0.224-0.5,0.5v1.036c-0.33,0.144-0.719,0.349-1.098,0.627l-0.898-0.518
				c-0.24-0.139-0.543-0.055-0.682,0.183l-1.635,2.828c-0.136,0.234-0.058,0.543,0.184,0.683l0.891,0.515
				c-0.053,0.418-0.054,0.838-0.001,1.262l-0.892,0.516c-0.239,0.139-0.321,0.444-0.184,0.683l1.633,2.828
				c0.138,0.238,0.443,0.319,0.682,0.184l0.902-0.518c0.377,0.276,0.767,0.482,1.098,0.626v1.035c0,0.277,0.224,0.5,0.5,0.5h3.265
				c0.276,0,0.5-0.223,0.5-0.5v-1.035c0.39-0.173,0.757-0.385,1.083-0.625l0.891,0.515c0.24,0.141,0.546,0.055,0.684-0.182
				l1.631-2.828C24.066,19.085,23.998,18.773,23.75,18.631z M17.499,19.661c-1.202,0-2.177-0.974-2.177-2.177
				c0-1.201,0.975-2.176,2.177-2.176c1.202,0,2.176,0.975,2.176,2.176C19.675,18.688,18.701,19.661,17.499,19.661z"/>
		</g>
	</g>
	<g id="New_icons">
	</g>
</g>
<g id="Invisible_Shape">
	<rect fill="none" width="24" height="24"/>
</g>
</svg>
