<?xml version="1.0" encoding="utf-8"?>
<!-- Generator: Adobe Illustrator 19.2.1, SVG Export Plug-In . SVG Version: 6.00 Build 0)  -->
<svg version="1.1" xmlns="http://www.w3.org/2000/svg" xmlns:xlink="http://www.w3.org/1999/xlink" x="0px" y="0px" width="24px"
	 height="24px" viewBox="0 0 24 24" enable-background="new 0 0 24 24" xml:space="preserve">
<g id="Filled_Icons_1_">
	<g id="Filled_Icons">
		<g>
			<circle cx="3.5" cy="14.5" r="0.5"/>
			<circle cx="3.5" cy="8.5" r="0.5"/>
			<path d="M0,12v3.5C0,16.879,1.121,18,2.5,18H12v5H5.5C5.224,23,5,23.225,5,23.5C5,23.776,5.224,24,5.5,24h13
				c0.276,0,0.5-0.224,0.5-0.5c0-0.275-0.224-0.5-0.5-0.5H13v-5h8.5c1.379,0,2.5-1.121,2.5-2.5V12H0z M3.5,16
				C2.673,16,2,15.327,2,14.5S2.673,13,3.5,13S5,13.673,5,14.5S4.327,16,3.5,16z M14,15.5c-0.552,0-1-0.448-1-1s0.448-1,1-1
				c0.551,0,1,0.448,1,1S14.551,15.5,14,15.5z M17,15.5c-0.552,0-1-0.448-1-1s0.448-1,1-1c0.551,0,1,0.448,1,1S17.551,15.5,17,15.5z
				 M20,15.5c-0.551,0-1-0.448-1-1s0.449-1,1-1c0.552,0,1,0.448,1,1S20.552,15.5,20,15.5z"/>
			<path d="M17.82,0.116C17.729,0.041,17.617,0,17.5,0h-11C6.383,0,6.269,0.041,6.18,0.116L0.318,5h23.363L17.82,0.116z"/>
			<path d="M24,6H0v5h24V6z M3.5,10C2.673,10,2,9.327,2,8.5S2.673,7,3.5,7S5,7.673,5,8.5S4.327,10,3.5,10z M14,9.5
				c-0.552,0-1-0.448-1-1s0.448-1,1-1c0.551,0,1,0.448,1,1S14.551,9.5,14,9.5z M17,9.5c-0.552,0-1-0.448-1-1s0.448-1,1-1
				c0.551,0,1,0.448,1,1S17.551,9.5,17,9.5z M20,9.5c-0.551,0-1-0.448-1-1s0.449-1,1-1c0.552,0,1,0.448,1,1S20.552,9.5,20,9.5z"/>
			<circle cx="1.5" cy="23.5" r="0.5"/>
			<circle cx="3.5" cy="23.5" r="0.5"/>
			<circle cx="20.5" cy="23.5" r="0.5"/>
			<circle cx="22.5" cy="23.5" r="0.5"/>
		</g>
	</g>
	<g id="New_icons">
	</g>
</g>
<g id="Invisible_Shape">
	<rect fill="none" width="24" height="24"/>
</g>
</svg>
