<?xml version="1.0" encoding="utf-8"?>
<!-- Generator: Adobe Illustrator 19.2.1, SVG Export Plug-In . SVG Version: 6.00 Build 0)  -->
<svg version="1.1" xmlns="http://www.w3.org/2000/svg" xmlns:xlink="http://www.w3.org/1999/xlink" x="0px" y="0px" width="24px"
	 height="24px" viewBox="0 0 24 24" enable-background="new 0 0 24 24" xml:space="preserve">
<g id="Filled_Icons_1_">
	<g id="Filled_Icons">
		<g>
			<path d="M17.5,11.035c-3.584,0-6.5,2.916-6.5,6.5c0,3.584,2.916,6.5,6.5,6.5s6.5-2.916,6.5-6.5
				C24,13.951,21.084,11.035,17.5,11.035z M17.5,16.963c1.043,0,1.891,0.849,1.891,1.893c0,0.869-0.592,1.594-1.391,1.814v0.502
				c0,0.276-0.224,0.5-0.5,0.5s-0.5-0.224-0.5-0.5V20.67c-0.799-0.221-1.391-0.945-1.391-1.814c0-0.276,0.224-0.5,0.5-0.5
				c0.276,0,0.5,0.224,0.5,0.5c0,0.491,0.399,0.891,0.891,0.891s0.891-0.399,0.891-0.891c0-0.492-0.399-0.893-0.891-0.893
				c-1.043,0-1.891-0.848-1.891-1.891c0-0.869,0.592-1.594,1.391-1.814v-0.504c0-0.276,0.224-0.5,0.5-0.5s0.5,0.224,0.5,0.5v0.504
				c0.799,0.221,1.391,0.945,1.391,1.814c0,0.276-0.224,0.5-0.5,0.5c-0.276,0-0.5-0.224-0.5-0.5c0-0.491-0.399-0.891-0.891-0.891
				s-0.891,0.4-0.891,0.891S17.009,16.963,17.5,16.963z"/>
			<g>
				<path d="M10,17c0.008,0,0.017,0,0.025,0c0.086-1.294,0.498-2.497,1.159-3.529C6.647,13.684,1.98,12.595,0,10.862V13.5
					C0,15.085,4.46,17,10,17z"/>
				<path d="M11.998,12.42c1.883-2.039,4.742-2.922,7.544-2.131c0.175-0.121,0.329-0.244,0.458-0.368V6.669
					C17.864,8.106,13.783,9,10,9C6.035,9,1.862,7.992,0,6.362V9C0,10.751,5.462,12.941,11.998,12.42z"/>
				<path d="M10,8c4.579,0,8.625-1.262,10-2.578V4.5C20,1.977,15.607,0,10,0S0,1.977,0,4.5C0,6.085,4.461,8,10,8z"/>
				<path d="M10,18c-3.965,0-8.138-1.008-10-2.638V17.5c0,2.775,5.295,4.849,11.475,4.447c-0.829-1.119-1.352-2.475-1.449-3.947
					C10.017,18,10.008,18,10,18z"/>
			</g>
		</g>
	</g>
	<g id="New_icons">
	</g>
</g>
<g id="Invisible_Shape">
	<rect fill="none" width="24" height="24"/>
</g>
</svg>
