<?xml version="1.0" encoding="utf-8"?>
<!-- Generator: Adobe Illustrator 19.2.1, SVG Export Plug-In . SVG Version: 6.00 Build 0)  -->
<svg version="1.1" xmlns="http://www.w3.org/2000/svg" xmlns:xlink="http://www.w3.org/1999/xlink" x="0px" y="0px" width="24px"
	 height="24px" viewBox="0 0 24 24" enable-background="new 0 0 24 24" xml:space="preserve">
<g id="Filled_Icons_1_">
	<g id="Filled_Icons">
	</g>
	<g id="New_icons">
		<g>
			<g>
				<rect x="19" y="13" width="5" height="2"/>
				<rect y="13" width="5" height="2"/>
				<rect x="19" y="10" width="5" height="2"/>
				<rect y="10" width="5" height="2"/>
				<path d="M19,9h5V6.5C24,6.224,23.776,6,23.5,6H19V9z"/>
				<path d="M19,16v3h4.5c0.276,0,0.5-0.224,0.5-0.5V16H19z"/>
				<path d="M5,9V6H0.5C0.224,6,0,6.224,0,6.5V9H5z"/>
				<path d="M5,16H0v2.5C0,18.776,0.224,19,0.5,19H5V16z"/>
			</g>
			<g>
				<path d="M18,13H6v3h12V13z M9.5,15h-1C8.224,15,8,14.776,8,14.5S8.224,14,8.5,14h1c0.276,0,0.5,0.224,0.5,0.5S9.776,15,9.5,15z
					 M12.5,15h-1c-0.276,0-0.5-0.224-0.5-0.5s0.224-0.5,0.5-0.5h1c0.276,0,0.5,0.224,0.5,0.5S12.776,15,12.5,15z"/>
				<path d="M6,12h12V9H6V12z M11.5,10h1c0.276,0,0.5,0.224,0.5,0.5S12.776,11,12.5,11h-1c-0.276,0-0.5-0.224-0.5-0.5
					S11.224,10,11.5,10z M8.5,10h1c0.276,0,0.5,0.224,0.5,0.5S9.776,11,9.5,11h-1C8.224,11,8,10.776,8,10.5S8.224,10,8.5,10z"/>
				<path d="M18,8V4.5C18,4.224,17.776,4,17.5,4h-11C6.224,4,6,4.224,6,4.5V8H18z M11.5,6h1C12.776,6,13,6.224,13,6.5
					S12.776,7,12.5,7h-1C11.224,7,11,6.776,11,6.5S11.224,6,11.5,6z M8.5,6h1C9.776,6,10,6.224,10,6.5S9.776,7,9.5,7h-1
					C8.224,7,8,6.776,8,6.5S8.224,6,8.5,6z"/>
				<path d="M6,17v3.5C6,20.776,6.224,21,6.5,21h11c0.276,0,0.5-0.224,0.5-0.5V17H6z M9.5,19h-1C8.224,19,8,18.776,8,18.5
					S8.224,18,8.5,18h1c0.276,0,0.5,0.224,0.5,0.5S9.776,19,9.5,19z M12.5,19h-1c-0.276,0-0.5-0.224-0.5-0.5s0.224-0.5,0.5-0.5h1
					c0.276,0,0.5,0.224,0.5,0.5S12.776,19,12.5,19z"/>
			</g>
		</g>
	</g>
</g>
<g id="Invisible_Shape">
	<rect fill="none" width="24" height="24"/>
</g>
</svg>
