<?xml version="1.0" encoding="utf-8"?>
<!-- Generator: Adobe Illustrator 19.2.1, SVG Export Plug-In . SVG Version: 6.00 Build 0)  -->
<svg version="1.1" xmlns="http://www.w3.org/2000/svg" xmlns:xlink="http://www.w3.org/1999/xlink" x="0px" y="0px" width="24px"
	 height="24px" viewBox="0 0 24 24" enable-background="new 0 0 24 24" xml:space="preserve">
<g id="Filled_Icons_1_">
	<g id="Filled_Icons">
	</g>
	<g id="New_icons">
		<g>
			<path d="M11.854,3.647l-1.5-1.5c-0.195-0.195-0.512-0.195-0.707,0c-0.195,0.195-0.195,0.512,0,0.707L10.293,3.5H9.75
				C7.406,3.5,5.5,5.406,5.5,7.75v1.043L4.353,7.647c-0.195-0.195-0.512-0.195-0.707,0c-0.195,0.195-0.195,0.512,0,0.707l2,2
				c0.195,0.195,0.512,0.195,0.707,0l2-2c0.195-0.195,0.195-0.512,0-0.707s-0.512-0.195-0.707,0L6.5,8.793V7.75
				c0-1.792,1.458-3.25,3.25-3.25h0.543L9.646,5.147c-0.195,0.195-0.195,0.512,0,0.707s0.512,0.195,0.707,0l1.5-1.5
				C12.049,4.158,12.049,3.842,11.854,3.647z"/>
			<g>
				<path d="M0,19v0.912C0,21.063,0.897,22,2,22h4v1H3c-0.276,0-0.5,0.224-0.5,0.5S2.724,24,3,24h7c0.276,0,0.5-0.224,0.5-0.5
					S10.276,23,10,23H7v-1h4c1.102,0,2-0.937,2-2.088V19H0z"/>
				<path d="M13,18v-3c0-1.102-0.898-2-2-2H2c-1.102,0-2,0.898-2,2v3H13z"/>
			</g>
			<g>
				<path d="M19.5,6.5c1.56,0,3.409-0.328,4.5-1.182V3.524C22.393,4.41,20.271,4.5,19.5,4.5S16.607,4.41,15,3.524v1.794
					C16.091,6.172,17.94,6.5,19.5,6.5z"/>
				<path d="M24,8.318V6.524C22.393,7.41,20.271,7.5,19.5,7.5S16.607,7.41,15,6.524v1.794C16.091,9.172,17.94,9.5,19.5,9.5
					S22.909,9.172,24,8.318z"/>
				<path d="M19.5,10.5c-0.771,0-2.893-0.09-4.5-0.976V10c0,1.425,1.935,2.5,4.5,2.5S24,11.425,24,10V9.524
					C22.393,10.41,20.271,10.5,19.5,10.5z"/>
				<path d="M19.5,3.5c1.547,0,3.378-0.323,4.473-1.161C23.83,0.997,21.966,0,19.5,0s-4.33,0.997-4.473,2.339
					C16.122,3.177,17.953,3.5,19.5,3.5z"/>
			</g>
		</g>
	</g>
</g>
<g id="Invisible_Shape">
	<rect fill="none" width="24" height="24"/>
</g>
</svg>
