<?xml version="1.0" encoding="utf-8"?>
<!-- Generator: Adobe Illustrator 19.2.1, SVG Export Plug-In . SVG Version: 6.00 Build 0)  -->
<svg version="1.1" xmlns="http://www.w3.org/2000/svg" xmlns:xlink="http://www.w3.org/1999/xlink" x="0px" y="0px" width="24px"
	 height="24px" viewBox="0 0 24 24" enable-background="new 0 0 24 24" xml:space="preserve">
<g id="Filled_Icons_1_">
	<g id="Filled_Icons">
		<g>
			<path d="M10,8c4.579,0,8.625-1.262,10-2.578V4.5C20,1.977,15.607,0,10,0S0,1.977,0,4.5C0,6.085,4.461,8,10,8z"/>
			<path d="M12,17.909C11.332,17.963,10.662,18,10,18c-3.965,0-8.138-1.008-10-2.638V17.5C0,20.023,4.393,22,10,22
				c0.69,0,1.352-0.041,2-0.099V17.909z"/>
			<path d="M12,15.5c0-0.827,0.673-1.5,1.5-1.5h0.527c0.033-0.295,0.098-0.579,0.185-0.854C12.842,13.374,11.401,13.5,10,13.5
				c-3.965,0-8.138-1.008-10-2.638V13.5C0,15.085,4.46,17,10,17c0.684,0,1.348-0.037,2-0.09V15.5z"/>
			<path d="M18.5,10c0.415,0,0.81,0.074,1.192,0.18c0.113-0.086,0.217-0.172,0.308-0.259V6.669C17.864,8.106,13.783,9,10,9
				C6.035,9,1.862,7.992,0,6.362V9c0,1.585,4.46,3.5,10,3.5c1.693,0,3.314-0.174,4.753-0.457C15.559,10.819,16.929,10,18.5,10z"/>
			<path d="M23.5,15H22v-0.5c0-1.929-1.57-3.5-3.5-3.5S15,12.571,15,14.5V15h-1.5c-0.276,0-0.5,0.224-0.5,0.5v8
				c0,0.276,0.224,0.5,0.5,0.5h10c0.276,0,0.5-0.224,0.5-0.5v-8C24,15.224,23.776,15,23.5,15z M19,19.348V21
				c0,0.276-0.224,0.5-0.5,0.5S18,21.276,18,21v-1.652c-0.293-0.176-0.5-0.483-0.5-0.848c0-0.551,0.448-1,1-1s1,0.449,1,1
				C19.5,18.865,19.293,19.172,19,19.348z M21,15h-5v-0.5c0-1.378,1.121-2.5,2.5-2.5s2.5,1.122,2.5,2.5V15z"/>
		</g>
	</g>
	<g id="New_icons">
	</g>
</g>
<g id="Invisible_Shape">
	<rect fill="none" width="24" height="24"/>
</g>
</svg>
