<?xml version="1.0" encoding="utf-8"?>
<!-- Generator: Adobe Illustrator 19.2.1, SVG Export Plug-In . SVG Version: 6.00 Build 0)  -->
<svg version="1.1" xmlns="http://www.w3.org/2000/svg" xmlns:xlink="http://www.w3.org/1999/xlink" x="0px" y="0px" width="24px"
	 height="24px" viewBox="0 0 24 24" enable-background="new 0 0 24 24" xml:space="preserve">
<g id="Filled_Icons_1_">
	<g id="Filled_Icons">
		<g>
			<circle cx="4" cy="4" r="0.5"/>
			<circle cx="4" cy="18" r="0.5"/>
			<circle cx="4" cy="11" r="0.5"/>
			<path d="M22,7c0,0,0-5.481,0-5.5C22,0.673,21.327,0,20.5,0h-19C0.673,0,0,0.673,0,1.5C0,1.513,0,7,0,7H22z M8,3h10
				c0.276,0,0.5,0.224,0.5,0.5S18.276,4,18,4H8C7.724,4,7.5,3.776,7.5,3.5S7.724,3,8,3z M8,5h10c0.276,0,0.5,0.224,0.5,0.5
				S18.276,6,18,6H8C7.724,6,7.5,5.776,7.5,5.5S7.724,5,8,5z M4,2.5c0.827,0,1.5,0.673,1.5,1.5S4.827,5.5,4,5.5S2.5,4.827,2.5,4
				S3.173,2.5,4,2.5z"/>
			<g>
				<path d="M10.352,20H8c-0.276,0-0.5-0.224-0.5-0.5S7.724,19,8,19h2.051c-0.068-0.459-0.068-0.541,0-1H8
					c-0.276,0-0.5-0.224-0.5-0.5S7.724,17,8,17h2.352c0.563-1.178,1.758-2,3.148-2H0c0,0,0,5.481,0,5.5C0,21.327,0.673,22,1.5,22h12
					C12.109,22,10.915,21.178,10.352,20z M4,19.5c-0.827,0-1.5-0.673-1.5-1.5s0.673-1.5,1.5-1.5s1.5,0.673,1.5,1.5
					S4.827,19.5,4,19.5z"/>
			</g>
			<path d="M22,11.051C22,11.045,22,8,22,8H0c0,0.001,0,5.999,0,5.999L18.051,14C18.313,12.188,19.979,10.752,22,11.051z M8,10h10
				c0.276,0,0.5,0.224,0.5,0.5S18.276,11,18,11H8c-0.276,0-0.5-0.224-0.5-0.5S7.724,10,8,10z M4,12.5c-0.827,0-1.5-0.673-1.5-1.5
				S3.173,9.5,4,9.5s1.5,0.673,1.5,1.5S4.827,12.5,4,12.5z M7.5,12.5C7.5,12.224,7.724,12,8,12h10c0.276,0,0.5,0.224,0.5,0.5
				S18.276,13,18,13H8C7.724,13,7.5,12.776,7.5,12.5z"/>
			<path d="M21.5,19c-0.891,0-1.668,0.471-2.111,1.174l-3.428-1.285c0.052-0.338,0.069-0.568-0.056-1.033l3.638-1.818
				C20.001,16.619,20.703,17,21.5,17c1.379,0,2.5-1.121,2.5-2.5S22.879,12,21.5,12c-1.579,0-2.847,1.483-2.406,3.143l-3.638,1.819
				C14.998,16.381,14.296,16,13.5,16c-1.379,0-2.5,1.121-2.5,2.5s1.121,2.5,2.5,2.5c0.891,0,1.669-0.472,2.111-1.175l3.428,1.284
				C18.795,22.72,20.038,24,21.5,24c1.379,0,2.5-1.121,2.5-2.5S22.879,19,21.5,19z M21.5,13c0.827,0,1.5,0.673,1.5,1.5
				S22.327,16,21.5,16S20,15.327,20,14.5S20.673,13,21.5,13z M13.5,20c-0.827,0-1.5-0.673-1.5-1.5s0.673-1.5,1.5-1.5
				s1.5,0.673,1.5,1.5S14.327,20,13.5,20z M21.5,23c-0.827,0-1.5-0.673-1.5-1.5s0.673-1.5,1.5-1.5s1.5,0.673,1.5,1.5
				S22.327,23,21.5,23z"/>
		</g>
	</g>
	<g id="New_icons">
	</g>
</g>
<g id="Invisible_Shape">
	<rect fill="none" width="24" height="24"/>
</g>
</svg>
