<?xml version="1.0" encoding="utf-8"?>
<!-- Generator: Adobe Illustrator 19.2.1, SVG Export Plug-In . SVG Version: 6.00 Build 0)  -->
<svg version="1.1" xmlns="http://www.w3.org/2000/svg" xmlns:xlink="http://www.w3.org/1999/xlink" x="0px" y="0px" width="24px"
	 height="24px" viewBox="0 0 24 24" enable-background="new 0 0 24 24" xml:space="preserve">
<g id="Filled_Icons_1_">
	<g id="Filled_Icons">
	</g>
	<g id="New_icons">
		<g>
			<path d="M10.354,2.647l-1.5-1.5c-0.195-0.195-0.512-0.195-0.707,0c-0.195,0.195-0.195,0.512,0,0.707L8.793,2.5H8.25
				C5.906,2.5,4,4.406,4,6.75v1.043L2.853,6.647c-0.195-0.195-0.512-0.195-0.707,0c-0.195,0.195-0.195,0.512,0,0.707l2,2
				c0.195,0.195,0.512,0.195,0.707,0l2-2c0.195-0.195,0.195-0.512,0-0.707s-0.512-0.195-0.707,0L5,7.793V6.75
				C5,4.958,6.458,3.5,8.25,3.5h0.543L8.146,4.147c-0.195,0.195-0.195,0.512,0,0.707c0.195,0.195,0.512,0.195,0.707,0l1.5-1.5
				C10.549,3.158,10.549,2.842,10.354,2.647z"/>
			<g>
				<path d="M14,9v3.5c0,0.276,0.224,0.5,0.5,0.5h9c0.276,0,0.5-0.224,0.5-0.5V9H14z M17.5,11h-1c-0.276,0-0.5-0.224-0.5-0.5
					s0.224-0.5,0.5-0.5h1c0.276,0,0.5,0.224,0.5,0.5S17.776,11,17.5,11z M20.5,11h-1c-0.276,0-0.5-0.224-0.5-0.5s0.224-0.5,0.5-0.5
					h1c0.276,0,0.5,0.224,0.5,0.5S20.776,11,20.5,11z"/>
				<path d="M14,5v3h10V5H14z M17.5,7h-1C16.224,7,16,6.776,16,6.5S16.224,6,16.5,6h1C17.776,6,18,6.224,18,6.5S17.776,7,17.5,7z
					 M20.5,7h-1C19.224,7,19,6.776,19,6.5S19.224,6,19.5,6h1C20.776,6,21,6.224,21,6.5S20.776,7,20.5,7z"/>
				<path d="M24,4V0.5C24,0.224,23.776,0,23.5,0h-9C14.224,0,14,0.224,14,0.5V4H24z M19.5,2h1C20.776,2,21,2.224,21,2.5
					S20.776,3,20.5,3h-1C19.224,3,19,2.776,19,2.5S19.224,2,19.5,2z M16.5,2h1C17.776,2,18,2.224,18,2.5S17.776,3,17.5,3h-1
					C16.224,3,16,2.776,16,2.5S16.224,2,16.5,2z"/>
			</g>
			<g>
				<path d="M0,20v3.5C0,23.776,0.224,24,0.5,24h9c0.276,0,0.5-0.224,0.5-0.5V20H0z M3.5,22h-1C2.224,22,2,21.776,2,21.5
					S2.224,21,2.5,21h1C3.776,21,4,21.224,4,21.5S3.776,22,3.5,22z M6.5,22h-1C5.224,22,5,21.776,5,21.5S5.224,21,5.5,21h1
					C6.776,21,7,21.224,7,21.5S6.776,22,6.5,22z"/>
				<path d="M0,16v3h10v-3H0z M3.5,18h-1C2.224,18,2,17.776,2,17.5S2.224,17,2.5,17h1C3.776,17,4,17.224,4,17.5S3.776,18,3.5,18z
					 M6.5,18h-1C5.224,18,5,17.776,5,17.5S5.224,17,5.5,17h1C6.776,17,7,17.224,7,17.5S6.776,18,6.5,18z"/>
				<path d="M10,15v-3.5c0-0.276-0.224-0.5-0.5-0.5h-9C0.224,11,0,11.224,0,11.5V15H10z M5.5,13h1C6.776,13,7,13.224,7,13.5
					S6.776,14,6.5,14h-1C5.224,14,5,13.776,5,13.5S5.224,13,5.5,13z M2.5,13h1C3.776,13,4,13.224,4,13.5S3.776,14,3.5,14h-1
					C2.224,14,2,13.776,2,13.5S2.224,13,2.5,13z"/>
			</g>
		</g>
	</g>
</g>
<g id="Invisible_Shape">
	<rect fill="none" width="24" height="24"/>
</g>
</svg>
