<?xml version="1.0" encoding="utf-8"?>
<!-- Generator: Adobe Illustrator 19.2.1, SVG Export Plug-In . SVG Version: 6.00 Build 0)  -->
<svg version="1.1" xmlns="http://www.w3.org/2000/svg" xmlns:xlink="http://www.w3.org/1999/xlink" x="0px" y="0px" width="24px"
	 height="24px" viewBox="0 0 24 24" enable-background="new 0 0 24 24" xml:space="preserve">
<g id="Filled_Icons_1_">
	<g id="Filled_Icons">
		<g>
			<path d="M22,7c0,0,0-5.481,0-5.5C22,0.673,21.327,0,20.5,0h-19C0.673,0,0,0.673,0,1.5C0,1.513,0,7,0,7H22z M8,3h10
				c0.276,0,0.5,0.224,0.5,0.5S18.276,4,18,4H8C7.724,4,7.5,3.776,7.5,3.5S7.724,3,8,3z M8,5h10c0.276,0,0.5,0.224,0.5,0.5
				S18.276,6,18,6H8C7.724,6,7.5,5.776,7.5,5.5S7.724,5,8,5z M4,2.5c0.827,0,1.5,0.673,1.5,1.5S4.827,5.5,4,5.5S2.5,4.827,2.5,4
				S3.173,2.5,4,2.5z"/>
			<circle cx="4" cy="4" r="0.5"/>
			<circle cx="4" cy="18" r="0.5"/>
			<circle cx="4" cy="11" r="0.5"/>
			<path d="M9.784,20H8c-0.276,0-0.5-0.224-0.5-0.5S7.724,19,8,19h1.574c0.055-0.393,0.231-0.722,0.618-1H8
				c-0.276,0-0.5-0.224-0.5-0.5S7.724,17,8,17h2.189c-0.695-0.496-0.796-1.323-0.436-1.95L9.783,15H0c0,5.48,0,5.48,0,5.5
				C0,21.327,0.673,22,1.5,22h9.439L9.784,20z M4,19.5c-0.827,0-1.5-0.673-1.5-1.5s0.673-1.5,1.5-1.5s1.5,0.673,1.5,1.5
				S4.827,19.5,4,19.5z"/>
			<path d="M10.938,13H8c-0.276,0-0.5-0.224-0.5-0.5S7.724,12,8,12h3.661c0.63-0.466,1.215-0.345,1.811,0h0.078
				c0.146-0.093,0.297-0.18,0.45-0.261c0-0.301-0.012-0.447,0.092-0.739H8c-0.276,0-0.5-0.224-0.5-0.5S7.724,10,8,10
				c4.58,0,2.741,0,10.5,0c0.819,0,1.5,0.584,1.5,1.739c0.167,0.088,0.331,0.182,0.489,0.283c0.581-0.335,0.892-0.441,1.511-0.189
				C22,10.039,22,8,22,8H0c0,0.001,0,6,0,6h10.36L10.938,13z M4,12.5c-0.827,0-1.5-0.673-1.5-1.5S3.173,9.5,4,9.5s1.5,0.673,1.5,1.5
				S4.827,12.5,4,12.5z"/>
			<path d="M23.195,18.769l-0.765-0.441c0.093-0.613,0.092-1.044,0.001-1.652l0.766-0.442c0.234-0.133,0.324-0.438,0.183-0.683
				l-1.5-2.599c-0.138-0.239-0.443-0.322-0.683-0.183l-0.765,0.441c-0.43-0.345-0.912-0.624-1.433-0.828V11.5
				c0-0.276-0.224-0.5-0.5-0.5h-3c-0.276,0-0.5,0.224-0.5,0.5v0.882c-0.521,0.204-1.003,0.483-1.433,0.828l-0.765-0.441
				c-0.237-0.138-0.545-0.057-0.683,0.183l-1.5,2.599c-0.142,0.245-0.052,0.55,0.183,0.683l0.766,0.442
				c-0.091,0.608-0.092,1.039,0.001,1.652l-0.765,0.441c-0.239,0.138-0.321,0.443-0.183,0.683l1.5,2.599
				c0.137,0.241,0.446,0.32,0.683,0.183l0.765-0.441c0.429,0.344,0.911,0.623,1.431,0.827V23.5c0,0.276,0.224,0.5,0.5,0.5h3
				c0.276,0,0.5-0.224,0.5-0.5v-0.882c0.52-0.204,1.002-0.483,1.431-0.827l0.765,0.441c0.237,0.138,0.546,0.058,0.683-0.183
				l1.5-2.599C23.517,19.212,23.435,18.906,23.195,18.769z M17,20c-1.379,0-2.5-1.121-2.5-2.5S15.621,15,17,15s2.5,1.121,2.5,2.5
				S18.379,20,17,20z"/>
		</g>
	</g>
	<g id="New_icons">
	</g>
</g>
<g id="Invisible_Shape">
	<rect fill="none" width="24" height="24"/>
</g>
</svg>
