<?xml version="1.0" encoding="utf-8"?>
<!-- Generator: Adobe Illustrator 19.2.1, SVG Export Plug-In . SVG Version: 6.00 Build 0)  -->
<svg version="1.1" xmlns="http://www.w3.org/2000/svg" xmlns:xlink="http://www.w3.org/1999/xlink" x="0px" y="0px" width="24px"
	 height="24px" viewBox="0 0 24 24" enable-background="new 0 0 24 24" xml:space="preserve">
<g id="Filled_Icons_1_">
	<g id="Filled_Icons">
		<g>
			<g>
				<rect x="13.111" y="16.234" transform="matrix(0.7071 -0.7071 0.7071 0.7071 -8.2496 17.0866)" width="6.78" height="4.535"/>
				<path d="M22.855,14.646l-2.5-2.5c-0.195-0.195-0.512-0.195-0.707,0l-1.647,1.647l3.207,3.207l1.647-1.646
					C23.051,15.159,23.051,14.842,22.855,14.646z"/>
				<path d="M14.848,23.067l-2.917-2.917l-0.911,3.226c-0.046,0.168-0.011,0.353,0.121,0.484c0.131,0.131,0.316,0.166,0.483,0.122
					L14.848,23.067z"/>
			</g>
			<g>
				<circle cx="4" cy="4" r="0.5"/>
				<circle cx="4" cy="18" r="0.5"/>
				<circle cx="4" cy="11" r="0.5"/>
				<path d="M22,7c0,0,0-5.481,0-5.5C22,0.673,21.327,0,20.5,0h-19C0.673,0,0,0.673,0,1.5C0,1.513,0,7,0,7H22z M8,3h10
					c0.276,0,0.5,0.224,0.5,0.5S18.276,4,18,4H8C7.724,4,7.5,3.776,7.5,3.5S7.724,3,8,3z M8,5h10c0.276,0,0.5,0.224,0.5,0.5
					S18.276,6,18,6H8C7.724,6,7.5,5.776,7.5,5.5S7.724,5,8,5z M4,2.5c0.827,0,1.5,0.673,1.5,1.5S4.827,5.5,4,5.5S2.5,4.827,2.5,4
					S3.173,2.5,4,2.5z"/>
				<g>
					<path d="M17.652,22H20.5c0.827,0,1.5-0.673,1.5-1.5v-2.848L17.652,22z"/>
					<path d="M10.947,20H8c-0.276,0-0.5-0.224-0.5-0.5S7.724,19,8,19h3.419c0.008-0.008,0.011-0.02,0.019-0.027L12.41,18H8
						c-0.276,0-0.5-0.224-0.5-0.5S7.724,17,8,17h5.41l2-2H0c0,0,0,5.481,0,5.5C0,21.327,0.673,22,1.5,22h8.876L10.947,20z M4,19.5
						c-0.827,0-1.5-0.673-1.5-1.5s0.673-1.5,1.5-1.5s1.5,0.673,1.5,1.5S4.827,19.5,4,19.5z"/>
				</g>
				<path d="M17.41,13H8c-0.276,0-0.5-0.224-0.5-0.5S7.724,12,8,12h10c0.115,0,0.216,0.045,0.3,0.11l0.64-0.64
					c0.586-0.586,1.535-0.586,2.121,0L22,12.41C22,12.4,22,8,22,8H0c0,0.001,0,5.999,0,5.999L16.41,14L17.41,13z M8,10h10
					c0.276,0,0.5,0.224,0.5,0.5S18.276,11,18,11H8c-0.276,0-0.5-0.224-0.5-0.5S7.724,10,8,10z M4,12.5c-0.827,0-1.5-0.673-1.5-1.5
					S3.173,9.5,4,9.5s1.5,0.673,1.5,1.5S4.827,12.5,4,12.5z"/>
			</g>
		</g>
	</g>
	<g id="New_icons">
	</g>
</g>
<g id="Invisible_Shape">
	<rect fill="none" width="24" height="24"/>
</g>
</svg>
