<?xml version="1.0" encoding="utf-8"?>
<!-- Generator: Adobe Illustrator 19.2.1, SVG Export Plug-In . SVG Version: 6.00 Build 0)  -->
<svg version="1.1" xmlns="http://www.w3.org/2000/svg" xmlns:xlink="http://www.w3.org/1999/xlink" x="0px" y="0px" width="24px"
	 height="24px" viewBox="0 0 24 24" enable-background="new 0 0 24 24" xml:space="preserve">
<g id="Filled_Icons_1_">
	<g id="Filled_Icons">
	</g>
	<g id="New_icons">
		<g>
			<path d="M17.5,11c-3.584,0-6.5,2.916-6.5,6.5s2.916,6.5,6.5,6.5s6.5-2.916,6.5-6.5S21.084,11,17.5,11z M20,19h-2.5
				c-0.276,0-0.5-0.224-0.5-0.5V15c0-0.276,0.224-0.5,0.5-0.5S18,14.724,18,15v3h2c0.276,0,0.5,0.224,0.5,0.5S20.276,19,20,19z"/>
			<g>
				<g>
					<path d="M1.5,19C1.224,19,1,19.223,1,19.5C1,19.775,1.224,20,1.5,20S2,19.775,2,19.5C2,19.223,1.776,19,1.5,19L1.5,19z"/>
				</g>
				<g>
					<path d="M3.5,19C3.224,19,3,19.223,3,19.5C3,19.775,3.224,20,3.5,20S4,19.775,4,19.5C4,19.223,3.776,19,3.5,19L3.5,19z"/>
				</g>
				<g>
					<path d="M18.5,0h-18C0.224,0,0,0.224,0,0.5V5h19V0.5C19,0.224,18.776,0,18.5,0z M3.5,4.5C2.673,4.5,2,3.827,2,3
						s0.673-1.5,1.5-1.5S5,2.173,5,3S4.327,4.5,3.5,4.5z M9.5,4c-0.552,0-1-0.448-1-1s0.448-1,1-1s1,0.448,1,1S10.052,4,9.5,4z
						 M12.5,4c-0.552,0-1-0.448-1-1s0.448-1,1-1s1,0.448,1,1S13.052,4,12.5,4z M15.5,4c-0.552,0-1-0.448-1-1s0.448-1,1-1
						s1,0.448,1,1S16.052,4,15.5,4z"/>
					<circle cx="3.5" cy="3" r="0.5"/>
					<circle cx="3.5" cy="8" r="0.5"/>
					<path d="M0,10h19V6H0V10z M15.5,7c0.552,0,1,0.448,1,1s-0.448,1-1,1s-1-0.448-1-1S14.948,7,15.5,7z M12.5,7
						c0.552,0,1,0.448,1,1s-0.448,1-1,1s-1-0.448-1-1S11.948,7,12.5,7z M9.5,7c0.552,0,1,0.448,1,1s-0.448,1-1,1s-1-0.448-1-1
						S8.948,7,9.5,7z M3.5,6.5C4.327,6.5,5,7.173,5,8S4.327,9.5,3.5,9.5S2,8.827,2,8S2.673,6.5,3.5,6.5z"/>
					<circle cx="3.5" cy="13" r="0.5"/>
					<path d="M0,15.5C0,15.776,0.224,16,0.5,16H9v3H5.5C5.224,19,5,19.224,5,19.5S5.224,20,5.5,20h4c0.276,0,0.5-0.224,0.5-0.5V16
						c0.436-2.139,1.939-3.943,3.774-5H0V15.5z M9.5,12c0.552,0,1,0.448,1,1s-0.448,1-1,1s-1-0.448-1-1S8.948,12,9.5,12z M3.5,11.5
						C4.327,11.5,5,12.173,5,13s-0.673,1.5-1.5,1.5S2,13.827,2,13S2.673,11.5,3.5,11.5z"/>
				</g>
			</g>
		</g>
	</g>
</g>
<g id="Invisible_Shape">
	<rect fill="none" width="24" height="24"/>
</g>
</svg>
