<?xml version="1.0" encoding="utf-8"?>
<!-- Generator: Adobe Illustrator 19.2.1, SVG Export Plug-In . SVG Version: 6.00 Build 0)  -->
<svg version="1.1" xmlns="http://www.w3.org/2000/svg" xmlns:xlink="http://www.w3.org/1999/xlink" x="0px" y="0px" width="24px"
	 height="24px" viewBox="0 0 24 24" enable-background="new 0 0 24 24" xml:space="preserve">
<g id="Filled_Icons_1_">
	<g id="Filled_Icons">
	</g>
	<g id="New_icons">
		<g>
			<g>
				<path d="M1.5,19C1.224,19,1,19.223,1,19.5C1,19.775,1.224,20,1.5,20S2,19.775,2,19.5C2,19.223,1.776,19,1.5,19L1.5,19z"/>
			</g>
			<g>
				<path d="M3.5,19C3.224,19,3,19.223,3,19.5C3,19.775,3.224,20,3.5,20S4,19.775,4,19.5C4,19.223,3.776,19,3.5,19L3.5,19z"/>
			</g>
			<g>
				<circle cx="3.5" cy="13" r="0.5"/>
				<path d="M19,5V0.5C19,0.224,18.776,0,18.5,0h-18C0.224,0,0,0.224,0,0.5V5H19z M15.5,2c0.552,0,1,0.448,1,1s-0.448,1-1,1
					s-1-0.448-1-1S14.948,2,15.5,2z M12.5,2c0.552,0,1,0.448,1,1s-0.448,1-1,1s-1-0.448-1-1S11.948,2,12.5,2z M9.5,2
					c0.552,0,1,0.448,1,1s-0.448,1-1,1s-1-0.448-1-1S8.948,2,9.5,2z M3.5,1.5C4.327,1.5,5,2.173,5,3S4.327,4.5,3.5,4.5S2,3.827,2,3
					S2.673,1.5,3.5,1.5z"/>
				<circle cx="3.5" cy="3" r="0.5"/>
				<path d="M19,10V6H0v4H19z M3.5,9.5C2.673,9.5,2,8.827,2,8s0.673-1.5,1.5-1.5S5,7.173,5,8S4.327,9.5,3.5,9.5z M9.5,9
					c-0.552,0-1-0.448-1-1s0.448-1,1-1s1,0.448,1,1S10.052,9,9.5,9z M12.5,9c-0.552,0-1-0.448-1-1s0.448-1,1-1s1,0.448,1,1
					S13.052,9,12.5,9z M15.5,9c-0.552,0-1-0.448-1-1s0.448-1,1-1s1,0.448,1,1S16.052,9,15.5,9z"/>
				<path d="M11.5,19H10v-3h2v-0.5c0-0.827,0.673-1.5,1.5-1.5h0.527c0.135-1.215,0.766-2.273,1.672-3H0v4.5
					C0,15.776,0.224,16,0.5,16H9v3H5.5C5.224,19,5,19.224,5,19.5S5.224,20,5.5,20h6c0.276,0,0.5-0.224,0.5-0.5S11.776,19,11.5,19z
					 M12.5,12c0.552,0,1,0.448,1,1s-0.448,1-1,1s-1-0.448-1-1S11.948,12,12.5,12z M3.5,14.5C2.673,14.5,2,13.827,2,13
					s0.673-1.5,1.5-1.5S5,12.173,5,13S4.327,14.5,3.5,14.5z M8.5,13c0-0.552,0.448-1,1-1s1,0.448,1,1s-0.448,1-1,1
					S8.5,13.552,8.5,13z"/>
				<circle cx="3.5" cy="8" r="0.5"/>
			</g>
			<path d="M23.5,15H22v-0.5c0-1.93-1.57-3.5-3.5-3.5S15,12.57,15,14.5V15h-1.5c-0.276,0-0.5,0.224-0.5,0.5v8
				c0,0.276,0.224,0.5,0.5,0.5h10c0.276,0,0.5-0.224,0.5-0.5v-8C24,15.224,23.776,15,23.5,15z M19,19.347V21
				c0,0.276-0.224,0.5-0.5,0.5S18,21.276,18,21v-1.653c-0.293-0.175-0.5-0.482-0.5-0.847c0-0.552,0.448-1,1-1s1,0.448,1,1
				C19.5,18.865,19.293,19.172,19,19.347z M21,15h-5v-0.5c0-1.379,1.121-2.5,2.5-2.5s2.5,1.121,2.5,2.5V15z"/>
		</g>
	</g>
</g>
<g id="Invisible_Shape">
	<rect fill="none" width="24" height="24"/>
</g>
</svg>
