<?xml version="1.0" encoding="utf-8"?>
<!-- Generator: Adobe Illustrator 19.2.1, SVG Export Plug-In . SVG Version: 6.00 Build 0)  -->
<svg version="1.1" xmlns="http://www.w3.org/2000/svg" xmlns:xlink="http://www.w3.org/1999/xlink" x="0px" y="0px" width="24px"
	 height="24px" viewBox="0 0 24 24" enable-background="new 0 0 24 24" xml:space="preserve">
<g id="Filled_Icons_1_">
	<g id="Filled_Icons">
	</g>
	<g id="New_icons">
		<g>
			<path d="M10,0C4.393,0,0,1.977,0,4.5C0,6.085,4.461,8,10,8c4.579,0,8.625-1.262,10-2.578V4.5C20,1.977,15.607,0,10,0z"/>
			<path d="M0,6.362V9c0,1.585,4.46,3.5,10,3.5c4.578,0,8.625-1.262,10-2.579V6.669C17.864,8.106,13.783,9,10,9
				C6.035,9,1.862,7.992,0,6.362z"/>
			<path d="M10.939,17.973C10.625,17.984,10.311,18,10,18c-3.965,0-8.138-1.008-10-2.638V17.5C0,20.023,4.393,22,10,22
				c0.309,0,0.611-0.008,0.912-0.02C10.361,20.699,10.354,19.288,10.939,17.973z"/>
			<path d="M16.214,15.062l3.242-3.14c0.156-0.151,0.344-0.254,0.544-0.325v-0.429c-2.137,1.437-6.218,2.331-10,2.331
				c-3.965,0-8.138-1.008-10-2.638V13.5C0,15.085,4.46,17,10,17c0.531,0,1.054-0.019,1.566-0.051
				C12.765,15.412,14.542,14.819,16.214,15.062z"/>
			<path d="M22.5,12.5h-2c-0.13,0-0.255,0.051-0.348,0.141l-3.621,3.506l0.009,0.009c-1.337-0.36-2.819-0.032-3.868,1.017
				c-1.562,1.562-1.562,4.094,0,5.656s4.094,1.562,5.656,0c1.049-1.049,1.377-2.53,1.018-3.866l0.008,0.008l3.506-3.622
				C22.949,15.255,23,15.13,23,15v-2C23,12.724,22.776,12.5,22.5,12.5z M16.207,20.707c-0.391,0.391-1.023,0.391-1.414,0
				c-0.391-0.391-0.391-1.023,0-1.414c0.391-0.391,1.023-0.391,1.414,0C16.598,19.684,16.598,20.316,16.207,20.707z"/>
		</g>
	</g>
</g>
<g id="Invisible_Shape">
	<rect fill="none" width="24" height="24"/>
</g>
</svg>
