<?xml version="1.0" encoding="utf-8"?>
<!-- Generator: Adobe Illustrator 19.2.1, SVG Export Plug-In . SVG Version: 6.00 Build 0)  -->
<svg version="1.1" xmlns="http://www.w3.org/2000/svg" xmlns:xlink="http://www.w3.org/1999/xlink" x="0px" y="0px" width="24px"
	 height="24px" viewBox="0 0 24 24" enable-background="new 0 0 24 24" xml:space="preserve">
<g id="Filled_Icons_1_">
	<g id="Filled_Icons">
		<g>
			<path d="M17.5,11c-3.584,0-6.5,2.916-6.5,6.5s2.916,6.5,6.5,6.5s6.5-2.916,6.5-6.5S21.084,11,17.5,11z M19.5,19H17
				c-0.276,0-0.5-0.224-0.5-0.5V15c0-0.276,0.224-0.5,0.5-0.5s0.5,0.224,0.5,0.5v3h2c0.276,0,0.5,0.224,0.5,0.5S19.776,19,19.5,19z"
				/>
			<path d="M10,17c0.008,0,0.017,0,0.025,0c0.086-1.294,0.498-2.497,1.159-3.529C6.647,13.684,1.98,12.595,0,10.862V13.5
				C0,15.085,4.46,17,10,17z"/>
			<path d="M11.998,12.42c1.883-2.039,4.742-2.922,7.544-2.131c0.175-0.121,0.329-0.244,0.458-0.368V6.669
				C17.864,8.106,13.783,9,10,9C6.035,9,1.862,7.992,0,6.362V9C0,10.751,5.462,12.941,11.998,12.42z"/>
			<path d="M10,8c4.579,0,8.625-1.262,10-2.578V4.5C20,1.977,15.607,0,10,0S0,1.977,0,4.5C0,6.085,4.461,8,10,8z"/>
			<path d="M10,18c-3.965,0-8.138-1.008-10-2.638V17.5c0,2.775,5.295,4.849,11.475,4.447c-0.829-1.119-1.352-2.475-1.449-3.947
				C10.017,18,10.008,18,10,18z"/>
		</g>
	</g>
	<g id="New_icons">
	</g>
</g>
<g id="Invisible_Shape">
	<rect fill="none" width="24" height="24"/>
</g>
</svg>
