<?xml version="1.0" encoding="utf-8"?>
<!-- Generator: Adobe Illustrator 19.2.1, SVG Export Plug-In . SVG Version: 6.00 Build 0)  -->
<svg version="1.1" xmlns="http://www.w3.org/2000/svg" xmlns:xlink="http://www.w3.org/1999/xlink" x="0px" y="0px" width="24px"
	 height="24px" viewBox="0 0 24 24" enable-background="new 0 0 24 24" xml:space="preserve">
<g id="Filled_Icons_1_">
	<g id="Filled_Icons">
		<g>
			<path d="M0,7v5.5C0,12.776,0.224,13,0.5,13H12v5H5.5C5.224,18,5,18.225,5,18.5C5,18.776,5.224,19,5.5,19h13
				c0.276,0,0.5-0.224,0.5-0.5c0-0.275-0.224-0.5-0.5-0.5H13v-5h10.5c0.276,0,0.5-0.224,0.5-0.5V7H0z M20,8.5c0.551,0,1,0.448,1,1
				s-0.449,1-1,1c-0.552,0-1-0.448-1-1S19.448,8.5,20,8.5z M17,8.5c0.551,0,1,0.448,1,1s-0.449,1-1,1c-0.552,0-1-0.448-1-1
				S16.448,8.5,17,8.5z M14,8.5c0.551,0,1,0.448,1,1s-0.449,1-1,1c-0.552,0-1-0.448-1-1S13.448,8.5,14,8.5z M3.5,8
				C4.327,8,5,8.673,5,9.5S4.327,11,3.5,11S2,10.327,2,9.5S2.673,8,3.5,8z"/>
			<circle cx="3.5" cy="9.5" r="0.5"/>
			<circle cx="3.5" cy="3.5" r="0.5"/>
			<path d="M23.5,0h-23C0.224,0,0,0.225,0,0.5V6h24V0.5C24,0.225,23.776,0,23.5,0z M3.5,5C2.673,5,2,4.327,2,3.5S2.673,2,3.5,2
				S5,2.673,5,3.5S4.327,5,3.5,5z M14,4.5c-0.552,0-1-0.448-1-1s0.448-1,1-1c0.551,0,1,0.448,1,1S14.551,4.5,14,4.5z M17,4.5
				c-0.552,0-1-0.448-1-1s0.448-1,1-1c0.551,0,1,0.448,1,1S17.551,4.5,17,4.5z M20,4.5c-0.552,0-1-0.448-1-1s0.448-1,1-1
				c0.551,0,1,0.448,1,1S20.551,4.5,20,4.5z"/>
			<circle cx="1.5" cy="18.5" r="0.5"/>
			<circle cx="3.5" cy="18.5" r="0.5"/>
			<circle cx="20.5" cy="18.5" r="0.5"/>
			<circle cx="22.5" cy="18.5" r="0.5"/>
		</g>
	</g>
	<g id="New_icons">
	</g>
</g>
<g id="Invisible_Shape">
	<rect fill="none" width="24" height="24"/>
</g>
</svg>
