<?xml version="1.0" encoding="utf-8"?>
<!-- Generator: Adobe Illustrator 19.2.1, SVG Export Plug-In . SVG Version: 6.00 Build 0)  -->
<svg version="1.1" xmlns="http://www.w3.org/2000/svg" xmlns:xlink="http://www.w3.org/1999/xlink" x="0px" y="0px" width="24px"
	 height="24px" viewBox="0 0 24 24" enable-background="new 0 0 24 24" xml:space="preserve">
<g id="Filled_Icons_1_">
	<g id="Filled_Icons">
		<g>
			<path d="M21,0c-1.683,0-3,0.879-3,2v3c0,0.867,0.791,1.583,1.925,1.866L18,8.787V8c0-1.711-2.579-3-6-3S6,6.289,6,8v0.787
				L4.075,6.866C5.209,6.583,6,5.867,6,5V2c0-1.121-1.317-2-3-2S0,0.879,0,2v3c0,1.07,1.205,1.911,2.778,1.985L6,10.2v1.792
				C6.842,12.72,8.776,14,12,14s5.158-1.28,6-2.008V10.2l3.222-3.215C22.795,6.911,24,6.07,24,5V2C24,0.879,22.683,0,21,0z M1,2
				c0-0.473,0.855-1,2-1s2,0.527,2,1S4.144,3,3,3S1,2.473,1,2z M12,10c-2.861,0-5-1.056-5-2s2.139-2,5-2s5,1.056,5,2
				S14.861,10,12,10z M21,3c-1.145,0-2-0.527-2-1s0.855-1,2-1s2,0.527,2,1S22.145,3,21,3z"/>
			<path d="M21.222,17.015L18,13.8v-0.873C17,14,14.953,15,12,15s-5-1-6-2.073V13.8l-3.222,3.215C1.205,17.089,0,17.93,0,19v3
				c0,1.121,1.317,2,3,2s3-0.879,3-2v-3c0-0.867-0.791-1.583-1.925-1.866L6,15.213V16c0,1.711,2.579,3,6,3s6-1.289,6-3v-0.787
				l1.925,1.921C18.791,17.417,18,18.133,18,19v3c0,1.121,1.317,2,3,2s3-0.879,3-2v-3C24,17.93,22.795,17.089,21.222,17.015z M5,19
				c0,0.473-0.856,1-2,1s-2-0.527-2-1s0.855-1,2-1S5,18.527,5,19z M21,20c-1.145,0-2-0.527-2-1s0.855-1,2-1s2,0.527,2,1
				S22.145,20,21,20z"/>
		</g>
	</g>
	<g id="New_icons">
	</g>
</g>
<g id="Invisible_Shape">
	<rect fill="none" width="24" height="24"/>
</g>
</svg>
