<?xml version="1.0" encoding="utf-8"?>
<!-- Generator: Adobe Illustrator 19.2.1, SVG Export Plug-In . SVG Version: 6.00 Build 0)  -->
<svg version="1.1" xmlns="http://www.w3.org/2000/svg" xmlns:xlink="http://www.w3.org/1999/xlink" x="0px" y="0px" width="24px"
	 height="24px" viewBox="0 0 24 24" enable-background="new 0 0 24 24" xml:space="preserve">
<g id="Filled_Icons_1_">
	<g id="Filled_Icons">
		<g>
			<path d="M10,0C4.393,0,0,1.977,0,4.5C0,6.085,4.461,8,10,8c4.579,0,8.625-1.262,10-2.578V4.5C20,1.977,15.607,0,10,0z"/>
			<path d="M0,6.362V9c0,1.585,4.46,3.5,10,3.5c4.578,0,8.625-1.262,10-2.579V6.669C17.864,8.106,13.783,9,10,9
				C6.035,9,1.862,7.992,0,6.362z"/>
			<g>
				<path d="M10.051,17.998C10.034,17.998,10.017,18,10,18c-3.965,0-8.138-1.008-10-2.638V17.5C0,20.023,4.393,22,10,22
					c0.887,0,1.737-0.055,2.55-0.147C10.982,21.406,9.774,19.874,10.051,17.998z"/>
			</g>
			<path d="M10.354,16.994C10.92,15.819,12.111,15,13.5,15c0.81,0,1.547,0.288,2.141,0.752l2.366-1.184
				c0-1.515,0.833-2.662,1.993-3.217v-0.183c-2.137,1.437-6.218,2.331-10,2.331c-3.965,0-8.138-1.008-10-2.638V13.5
				C0,15.127,4.689,17.088,10.354,16.994z"/>
			<path d="M21.5,19c-0.891,0-1.668,0.471-2.111,1.174l-3.428-1.285c0.052-0.338,0.069-0.568-0.056-1.033l3.638-1.818
				C20.001,16.619,20.703,17,21.5,17c1.379,0,2.5-1.121,2.5-2.5S22.879,12,21.5,12c-1.579,0-2.847,1.483-2.406,3.143l-3.638,1.819
				C14.998,16.381,14.296,16,13.5,16c-1.379,0-2.5,1.121-2.5,2.5s1.121,2.5,2.5,2.5c0.891,0,1.669-0.472,2.111-1.175l3.428,1.284
				C18.795,22.72,20.038,24,21.5,24c1.379,0,2.5-1.121,2.5-2.5S22.879,19,21.5,19z M21.5,13c0.827,0,1.5,0.673,1.5,1.5
				S22.327,16,21.5,16S20,15.327,20,14.5S20.673,13,21.5,13z M13.5,20c-0.827,0-1.5-0.673-1.5-1.5s0.673-1.5,1.5-1.5
				s1.5,0.673,1.5,1.5S14.327,20,13.5,20z M21.5,23c-0.827,0-1.5-0.673-1.5-1.5s0.673-1.5,1.5-1.5s1.5,0.673,1.5,1.5
				S22.327,23,21.5,23z"/>
		</g>
	</g>
	<g id="New_icons">
	</g>
</g>
<g id="Invisible_Shape">
	<rect fill="none" width="24" height="24"/>
</g>
</svg>
