<?xml version="1.0" encoding="utf-8"?>
<!-- Generator: Adobe Illustrator 19.2.1, SVG Export Plug-In . SVG Version: 6.00 Build 0)  -->
<svg version="1.1" xmlns="http://www.w3.org/2000/svg" xmlns:xlink="http://www.w3.org/1999/xlink" x="0px" y="0px" width="24px"
	 height="24px" viewBox="0 0 24 24" enable-background="new 0 0 24 24" xml:space="preserve">
<g id="Filled_Icons_1_">
	<g id="Filled_Icons">
		<g>
			<g>
				<rect x="14.111" y="16.234" transform="matrix(0.7071 -0.7071 0.7071 0.7071 -7.9567 17.7937)" width="6.78" height="4.535"/>
				<path d="M23.855,14.646l-2.5-2.5c-0.195-0.195-0.512-0.195-0.707,0l-1.647,1.647l3.207,3.207l1.647-1.646
					C24.051,15.159,24.051,14.842,23.855,14.646z"/>
				<path d="M15.848,23.067l-2.917-2.917l-0.911,3.226c-0.046,0.168-0.011,0.353,0.121,0.484c0.131,0.131,0.316,0.166,0.483,0.122
					L15.848,23.067z"/>
			</g>
			<path d="M10,12.5c4.579,0,8.625-1.262,10-2.579V6.669C17.864,8.106,13.783,9,10,9C6.035,9,1.862,7.992,0,6.362V9
				C0,10.585,4.46,12.5,10,12.5z"/>
			<path d="M10,8c4.579,0,8.625-1.262,10-2.578V4.5C20,1.977,15.607,0,10,0S0,1.977,0,4.5C0,6.085,4.461,8,10,8z"/>
			<path d="M10,17c1.734,0,3.392-0.182,4.857-0.479L20,11.379v-0.21c-2.136,1.437-6.217,2.331-10,2.331
				c-3.965,0-8.138-1.008-10-2.638V13.5C0,15.085,4.46,17,10,17z"/>
			<path d="M12.256,19.123l1.386-1.386C12.445,17.908,11.207,18,10,18c-3.965,0-8.138-1.008-10-2.638V17.5C0,20.023,4.393,22,10,22
				c0.471,0,0.929-0.019,1.381-0.046l0.748-2.615C12.152,19.258,12.196,19.184,12.256,19.123z"/>
		</g>
	</g>
	<g id="New_icons">
	</g>
</g>
<g id="Invisible_Shape">
	<rect fill="none" width="24" height="24"/>
</g>
</svg>
