<?xml version="1.0" encoding="utf-8"?>
<!-- Generator: Adobe Illustrator 19.2.1, SVG Export Plug-In . SVG Version: 6.00 Build 0)  -->
<svg version="1.1" xmlns="http://www.w3.org/2000/svg" xmlns:xlink="http://www.w3.org/1999/xlink" x="0px" y="0px" width="24px"
	 height="24px" viewBox="0 0 24 24" enable-background="new 0 0 24 24" xml:space="preserve">
<g id="Filled_Icons_1_">
	<g id="Filled_Icons">
		<g>
			<path d="M10,17c1.099,0,2.166-0.073,3.174-0.202l1.903-3.808C13.46,13.319,11.699,13.5,10,13.5c-3.965,0-8.138-1.008-10-2.638
				V13.5C0,15.085,4.46,17,10,17z"/>
			<path d="M10,8c4.579,0,8.625-1.262,10-2.578V4.5C20,1.977,15.607,0,10,0S0,1.977,0,4.5C0,6.085,4.461,8,10,8z"/>
			<path d="M10,18c-3.965,0-8.138-1.008-10-2.638V17.5c0,2.625,4.732,4.635,10.579,4.487l2.064-4.127C11.764,17.951,10.874,18,10,18
				z"/>
			<path d="M16.158,10.806c0.518-1.028,2.037-1.094,2.633-0.073c0.507-0.261,0.92-0.533,1.209-0.811V6.669
				C17.864,8.106,13.783,9,10,9C6.035,9,1.862,7.992,0,6.362V9c0,1.585,4.46,3.5,10,3.5c2.05,0,3.992-0.254,5.637-0.651
				L16.158,10.806z"/>
			<path d="M23.947,23.253l-6-12c-0.17-0.338-0.725-0.338-0.895,0l-6,12c-0.166,0.333,0.075,0.724,0.447,0.724h12
				C23.872,23.977,24.113,23.586,23.947,23.253z M17.5,21.977c-0.276,0-0.5-0.224-0.5-0.5c0-0.276,0.224-0.5,0.5-0.5
				s0.5,0.224,0.5,0.5C18,21.753,17.776,21.977,17.5,21.977z M18,19.977c0,0.276-0.224,0.5-0.5,0.5s-0.5-0.224-0.5-0.5v-3.5
				c0-0.276,0.224-0.5,0.5-0.5s0.5,0.224,0.5,0.5V19.977z"/>
		</g>
	</g>
	<g id="New_icons">
	</g>
</g>
<g id="Invisible_Shape">
	<rect fill="none" width="24" height="24"/>
</g>
</svg>
