<?xml version="1.0" encoding="utf-8"?>
<!-- Generator: Adobe Illustrator 19.2.1, SVG Export Plug-In . SVG Version: 6.00 Build 0)  -->
<svg version="1.1" xmlns="http://www.w3.org/2000/svg" xmlns:xlink="http://www.w3.org/1999/xlink" x="0px" y="0px" width="24px"
	 height="24px" viewBox="0 0 24 24" enable-background="new 0 0 24 24" xml:space="preserve">
<g id="Filled_Icons_1_">
	<g id="Filled_Icons">
		<g>
			<path d="M10,0C4.393,0,0,1.977,0,4.5C0,6.085,4.461,8,10,8c4.579,0,8.625-1.262,10-2.578V4.5C20,1.977,15.607,0,10,0z"/>
			<path d="M10.7,17.979c-3.971,0.116-8.624-0.8-10.7-2.617V17.5C0,20.023,4.393,22,10,22c1.223,0,2.381-0.099,3.455-0.271
				C12.375,20.65,11.29,19.336,10.7,17.979z"/>
			<g>
				<path d="M10.977,13.472C10.65,13.484,10.323,13.5,10,13.5c-3.965,0-8.138-1.008-10-2.638V13.5c0,1.612,4.628,3.583,10.377,3.494
					C10.078,15.708,10.356,14.442,10.977,13.472z"/>
			</g>
			<path d="M15.908,11.779c1.895-0.487,3.367-1.164,4.092-1.858V6.669C17.864,8.106,13.783,9,10,9C6.035,9,1.862,7.992,0,6.362V9
				c0,1.585,4.46,3.5,10,3.5c0.66,0,1.307-0.029,1.938-0.078C13.079,11.524,14.523,11.238,15.908,11.779z"/>
			<path d="M20.027,12.505c-0.951,0-2.071,0.491-2.777,1.784c-0.706-1.293-1.826-1.784-2.777-1.784
				c-1.584,0-3.223,1.322-3.223,3.536c0,3.181,5.473,7.198,5.706,7.367c0.175,0.126,0.409,0.129,0.588,0
				c0.233-0.169,5.706-4.186,5.706-7.367C23.25,13.827,21.611,12.505,20.027,12.505z"/>
		</g>
	</g>
	<g id="New_icons">
	</g>
</g>
<g id="Invisible_Shape">
	<rect fill="none" width="24" height="24"/>
</g>
</svg>
