<?xml version="1.0" encoding="utf-8"?>
<!-- Generator: Adobe Illustrator 19.2.1, SVG Export Plug-In . SVG Version: 6.00 Build 0)  -->
<svg version="1.1" xmlns="http://www.w3.org/2000/svg" xmlns:xlink="http://www.w3.org/1999/xlink" x="0px" y="0px" width="24px"
	 height="24px" viewBox="0 0 24 24" enable-background="new 0 0 24 24" xml:space="preserve">
<g id="Filled_Icons_1_">
	<g id="Filled_Icons">
	</g>
	<g id="New_icons">
		<g>
			<path d="M10,0C4.393,0,0,1.977,0,4.5C0,6.085,4.461,8,10,8c4.579,0,8.625-1.262,10-2.578V4.5C20,1.977,15.607,0,10,0z"/>
			<path d="M0,6.362V9c0,1.585,4.46,3.5,10,3.5c4.578,0,8.625-1.262,10-2.579V6.669C17.864,8.106,13.783,9,10,9
				C6.035,9,1.862,7.992,0,6.362z"/>
			<path d="M13.383,20.5c-0.606-0.676-0.479-1.738,0.288-2.25c-0.184-0.121-0.328-0.283-0.44-0.465C12.163,17.921,11.071,18,10,18
				c-3.965,0-8.138-1.008-10-2.638V17.5C0,20.023,4.393,22,10,22c1.061,0,2.078-0.071,3.03-0.203
				C12.936,21.331,13.066,20.853,13.383,20.5z"/>
			<path d="M13,16c0-0.827,0.673-1.5,1.5-1.5S16,15.173,16,16c0-2.009,1.983-3.536,4-2.815v-2.016
				c-2.137,1.437-6.218,2.331-10,2.331c-3.965,0-8.138-1.008-10-2.638V13.5C0,15.085,4.46,17,10,17c1.036,0,2.043-0.067,3-0.183V16z
				"/>
			<g>
				<path d="M23.724,17.447C23.893,17.362,24,17.19,24,17v-1c0-0.276-0.224-0.5-0.5-0.5S23,15.724,23,16v0.691l-1.087,0.543
					C21.824,17.097,21.677,17,21.5,17h-5c-0.177,0-0.324,0.097-0.413,0.234L15,16.691V16c0-0.276-0.224-0.5-0.5-0.5S14,15.724,14,16
					v1c0,0.19,0.107,0.362,0.276,0.447L16,18.309V19h-1.5c-0.276,0-0.5,0.224-0.5,0.5s0.224,0.5,0.5,0.5H16v1h-1.5
					c-0.276,0-0.5,0.224-0.5,0.5s0.224,0.5,0.5,0.5h1.685c0.414,1.161,1.514,2,2.815,2s2.401-0.839,2.815-2H23.5
					c0.276,0,0.5-0.224,0.5-0.5S23.776,21,23.5,21H22v-1h1.5c0.276,0,0.5-0.224,0.5-0.5S23.776,19,23.5,19H22v-0.691L23.724,17.447z
					"/>
				<g>
					<path d="M19,14c-1.103,0-2,0.898-2,2h4C21,14.898,20.103,14,19,14z"/>
				</g>
			</g>
		</g>
	</g>
</g>
<g id="Invisible_Shape">
	<rect fill="none" width="24" height="24"/>
</g>
</svg>
