<?xml version="1.0" encoding="utf-8"?>
<!-- Generator: Adobe Illustrator 19.2.1, SVG Export Plug-In . SVG Version: 6.00 Build 0)  -->
<svg version="1.1" xmlns="http://www.w3.org/2000/svg" xmlns:xlink="http://www.w3.org/1999/xlink" x="0px" y="0px" width="24px"
	 height="24px" viewBox="0 0 24 24" enable-background="new 0 0 24 24" xml:space="preserve">
<g id="Filled_Icons_1_">
	<g id="Filled_Icons">
	</g>
	<g id="New_icons">
		<g>
			<g>
				<path d="M17.942,20H9.5C9.224,20,9,19.776,9,19.5S9.224,19,9.5,19h2c0.938,0.047,0.186-0.557-0.016-0.703
					C11.283,18.15,9.703,17,8.188,17H6.5C6.224,17,6,17.224,6,17.5v5C6,22.776,6.224,23,6.5,23h15c0.275,0,0.5-0.224,0.5-0.5
					C22,21.162,20.222,20.59,17.942,20z"/>
				<path d="M4.5,16h-4C0.224,16,0,16.224,0,16.5v7C0,23.776,0.224,24,0.5,24h4C4.775,24,5,23.776,5,23.5v-7
					C5,16.224,4.775,16,4.5,16z"/>
			</g>
			<g>
				<path d="M12,9v3.5c0,0.276,0.224,0.5,0.5,0.5h11c0.276,0,0.5-0.224,0.5-0.5V9H12z M15.5,11h-1c-0.276,0-0.5-0.224-0.5-0.5
					s0.224-0.5,0.5-0.5h1c0.276,0,0.5,0.224,0.5,0.5S15.776,11,15.5,11z M18.5,11h-1c-0.276,0-0.5-0.224-0.5-0.5s0.224-0.5,0.5-0.5
					h1c0.276,0,0.5,0.224,0.5,0.5S18.776,11,18.5,11z"/>
				<path d="M12,5v3h12V5H12z M15.5,7h-1C14.224,7,14,6.776,14,6.5S14.224,6,14.5,6h1C15.776,6,16,6.224,16,6.5S15.776,7,15.5,7z
					 M18.5,7h-1C17.224,7,17,6.776,17,6.5S17.224,6,17.5,6h1C18.776,6,19,6.224,19,6.5S18.776,7,18.5,7z"/>
				<path d="M24,4V0.5C24,0.224,23.776,0,23.5,0h-11C12.224,0,12,0.224,12,0.5V4H24z M17.5,2h1C18.776,2,19,2.224,19,2.5
					S18.776,3,18.5,3h-1C17.224,3,17,2.776,17,2.5S17.224,2,17.5,2z M14.5,2h1C15.776,2,16,2.224,16,2.5S15.776,3,15.5,3h-1
					C14.224,3,14,2.776,14,2.5S14.224,2,14.5,2z"/>
			</g>
		</g>
	</g>
</g>
<g id="Invisible_Shape">
	<rect fill="none" width="24" height="24"/>
</g>
</svg>
