<?xml version="1.0" encoding="utf-8"?>
<!-- Generator: Adobe Illustrator 19.2.1, SVG Export Plug-In . SVG Version: 6.00 Build 0)  -->
<svg version="1.1" xmlns="http://www.w3.org/2000/svg" xmlns:xlink="http://www.w3.org/1999/xlink" x="0px" y="0px" width="24px"
	 height="24px" viewBox="0 0 24 24" enable-background="new 0 0 24 24" xml:space="preserve">
<g id="Filled_Icons_1_">
	<g id="Filled_Icons">
		<g>
			<path d="M23.963,16.33c-0.072-0.196-0.26-0.329-0.471-0.329h-3.191l-1.854-3.724c-0.177-0.356-0.715-0.376-0.902,0.003
				l-1.854,3.723H12.5c-0.211,0-0.398,0.133-0.471,0.33c-0.07,0.199-0.012,0.42,0.15,0.555l2.738,2.281l-1.391,4.17
				c-0.07,0.202-0.014,0.434,0.17,0.566c0.178,0.131,0.408,0.121,0.578,0.003l3.723-2.545l3.719,2.542
				c0.17,0.118,0.4,0.128,0.578-0.003c0.184-0.133,0.241-0.364,0.17-0.566l-1.391-4.17l2.738-2.281
				C23.975,16.751,24.033,16.529,23.963,16.33z"/>
			<path d="M10,0C4.393,0,0,1.977,0,4.5C0,6.085,4.461,8,10,8c4.579,0,8.625-1.262,10-2.578V4.5C20,1.977,15.607,0,10,0z"/>
			<path d="M0,6.362V9c0,1.585,4.46,3.5,10,3.5c4.578,0,8.625-1.262,10-2.579V6.669C17.864,8.106,13.783,9,10,9
				C6.035,9,1.862,7.992,0,6.362z"/>
			<path d="M13.753,19.53l-1.926-1.605C11.217,17.969,10.604,18,10,18c-3.965,0-8.138-1.008-10-2.638V17.5C0,20.023,4.393,22,10,22
				c1.048,0,2.054-0.069,2.996-0.198L13.753,19.53z"/>
			<g>
				<path d="M12.5,15.033h2.574l1.167-2.324C14.327,13.21,12.122,13.5,10,13.5c-3.965,0-8.138-1.008-10-2.638V13.5
					C0,15.085,4.46,17,10,17c0.362,0,0.72-0.011,1.074-0.025C10.764,15.974,11.519,15.033,12.5,15.033z"/>
			</g>
		</g>
	</g>
	<g id="New_icons">
	</g>
</g>
<g id="Invisible_Shape">
	<rect fill="none" width="24" height="24"/>
</g>
</svg>
