<?xml version="1.0" encoding="utf-8"?>
<!-- Generator: Adobe Illustrator 19.2.1, SVG Export Plug-In . SVG Version: 6.00 Build 0)  -->
<svg version="1.1" xmlns="http://www.w3.org/2000/svg" xmlns:xlink="http://www.w3.org/1999/xlink" x="0px" y="0px" width="24px"
	 height="24px" viewBox="0 0 24 24" enable-background="new 0 0 24 24" xml:space="preserve">
<g id="Filled_Icons_1_">
	<g id="Filled_Icons">
	</g>
	<g id="New_icons">
		<g>
			<g>
				<path d="M1.5,19C1.224,19,1,19.223,1,19.5C1,19.775,1.224,20,1.5,20S2,19.775,2,19.5C2,19.223,1.776,19,1.5,19L1.5,19z"/>
			</g>
			<g>
				<path d="M3.5,19C3.224,19,3,19.223,3,19.5C3,19.775,3.224,20,3.5,20S4,19.775,4,19.5C4,19.223,3.776,19,3.5,19L3.5,19z"/>
			</g>
			<g>
				<circle cx="3.5" cy="3" r="0.5"/>
				<circle cx="3.5" cy="8" r="0.5"/>
				<path d="M19,6H0v4h19V6z M3.5,9.5C2.673,9.5,2,8.827,2,8s0.673-1.5,1.5-1.5S5,7.173,5,8S4.327,9.5,3.5,9.5z M9.5,9
					c-0.552,0-1-0.448-1-1s0.448-1,1-1s1,0.448,1,1S10.052,9,9.5,9z M12.5,9c-0.552,0-1-0.448-1-1s0.448-1,1-1s1,0.448,1,1
					S13.052,9,12.5,9z M15.5,9c-0.552,0-1-0.448-1-1s0.448-1,1-1s1,0.448,1,1S16.052,9,15.5,9z"/>
				<path d="M19,5V0.5C19,0.224,18.776,0,18.5,0h-18C0.224,0,0,0.224,0,0.5V5H19z M15.5,2c0.552,0,1,0.448,1,1s-0.448,1-1,1
					s-1-0.448-1-1S14.948,2,15.5,2z M12.5,2c0.552,0,1,0.448,1,1s-0.448,1-1,1s-1-0.448-1-1S11.948,2,12.5,2z M9.5,2
					c0.552,0,1,0.448,1,1s-0.448,1-1,1s-1-0.448-1-1S8.948,2,9.5,2z M3.5,1.5C4.327,1.5,5,2.173,5,3S4.327,4.5,3.5,4.5S2,3.827,2,3
					S2.673,1.5,3.5,1.5z"/>
				<path d="M11.059,16c0.631-0.617,1.491-1,2.441-1c0.788,0,1.539,0.266,2.148,0.748l2.353-1.177C18,14.548,18,14.523,18,14.5
					c0-0.95,0.384-1.811,1-2.441V11H0v4.5C0,15.776,0.224,16,0.5,16H9v3H5.5C5.224,19,5,19.224,5,19.5S5.224,20,5.5,20h4
					c0.276,0,0.5-0.224,0.5-0.5V16H11.059z M15.5,12c0.552,0,1,0.448,1,1s-0.448,1-1,1s-1-0.448-1-1S14.948,12,15.5,12z M12.5,12
					c0.552,0,1,0.448,1,1s-0.448,1-1,1s-1-0.448-1-1S11.948,12,12.5,12z M3.5,14.5C2.673,14.5,2,13.827,2,13s0.673-1.5,1.5-1.5
					S5,12.173,5,13S4.327,14.5,3.5,14.5z M9.5,14c-0.552,0-1-0.448-1-1s0.448-1,1-1s1,0.448,1,1S10.052,14,9.5,14z"/>
				<circle cx="3.5" cy="13" r="0.5"/>
			</g>
			<path d="M21.5,19c-0.891,0-1.668,0.471-2.111,1.174l-3.428-1.285c0.052-0.338,0.069-0.568-0.056-1.033l3.638-1.818
				C20.001,16.619,20.703,17,21.5,17c1.379,0,2.5-1.121,2.5-2.5S22.879,12,21.5,12c-1.579,0-2.847,1.483-2.406,3.143l-3.638,1.819
				C14.998,16.381,14.296,16,13.5,16c-1.379,0-2.5,1.121-2.5,2.5s1.121,2.5,2.5,2.5c0.891,0,1.669-0.472,2.111-1.175l3.428,1.284
				C18.795,22.72,20.038,24,21.5,24c1.379,0,2.5-1.121,2.5-2.5S22.879,19,21.5,19z M21.5,13c0.827,0,1.5,0.673,1.5,1.5
				S22.327,16,21.5,16S20,15.327,20,14.5S20.673,13,21.5,13z M13.5,20c-0.827,0-1.5-0.673-1.5-1.5s0.673-1.5,1.5-1.5
				s1.5,0.673,1.5,1.5S14.327,20,13.5,20z M21.5,23c-0.827,0-1.5-0.673-1.5-1.5s0.673-1.5,1.5-1.5s1.5,0.673,1.5,1.5
				S22.327,23,21.5,23z"/>
		</g>
	</g>
</g>
<g id="Invisible_Shape">
	<rect fill="none" width="24" height="24"/>
</g>
</svg>
