<?xml version="1.0" encoding="utf-8"?>
<!-- Generator: Adobe Illustrator 19.2.1, SVG Export Plug-In . SVG Version: 6.00 Build 0)  -->
<svg version="1.1" xmlns="http://www.w3.org/2000/svg" xmlns:xlink="http://www.w3.org/1999/xlink" x="0px" y="0px" width="24px"
	 height="24px" viewBox="0 0 24 24" enable-background="new 0 0 24 24" xml:space="preserve">
<g id="Filled_Icons_1_">
	<g id="Filled_Icons">
		<g>
			<g>
				<path d="M10,17c0.008,0,0.017,0,0.025,0c0.086-1.294,0.498-2.497,1.159-3.529C6.647,13.684,1.98,12.595,0,10.862V13.5
					C0,15.085,4.46,17,10,17z"/>
				<path d="M11.998,12.42c1.883-2.039,4.742-2.922,7.544-2.131c0.175-0.121,0.329-0.244,0.458-0.368V6.669
					C17.864,8.106,13.783,9,10,9C6.035,9,1.862,7.992,0,6.362V9C0,10.751,5.462,12.941,11.998,12.42z"/>
				<path d="M10,8c4.579,0,8.625-1.262,10-2.578V4.5C20,1.977,15.607,0,10,0S0,1.977,0,4.5C0,6.085,4.461,8,10,8z"/>
				<path d="M10,18c-3.965,0-8.138-1.008-10-2.638V17.5c0,2.775,5.295,4.849,11.475,4.447c-0.829-1.119-1.352-2.475-1.449-3.947
					C10.017,18,10.008,18,10,18z"/>
			</g>
			<path d="M17.5,11c-3.584,0-6.5,2.916-6.5,6.5s2.916,6.5,6.5,6.5s6.5-2.916,6.5-6.5S21.084,11,17.5,11z M13.035,16.014
				c0.635-1.794,2.34-2.998,4.242-2.998c1.337,0,2.619,0.593,3.5,1.514v-0.568c0-0.277,0.224-0.5,0.5-0.5c0.276,0,0.5,0.223,0.5,0.5
				v2.221c0,0.276-0.224,0.5-0.5,0.5h-2.223c-0.275,0-0.5-0.224-0.5-0.5c0-0.276,0.225-0.5,0.5-0.5h1.379
				c-0.653-0.991-1.873-1.666-3.156-1.666c-1.479,0-2.806,0.938-3.301,2.332c-0.089,0.252-0.366,0.399-0.638,0.305
				C13.078,16.56,12.942,16.274,13.035,16.014z M21.965,18.986c-0.635,1.793-2.34,2.998-4.242,2.998c-1.336,0-2.619-0.591-3.5-1.512
				v0.567c0,0.276-0.223,0.5-0.5,0.5c-0.275,0-0.5-0.224-0.5-0.5v-2.222c0-0.276,0.225-0.5,0.5-0.5h2.223c0.276,0,0.5,0.224,0.5,0.5
				c0,0.275-0.224,0.5-0.5,0.5h-1.379c0.653,0.992,1.873,1.666,3.156,1.666c1.479,0,2.806-0.938,3.301-2.333
				c0.092-0.26,0.378-0.396,0.638-0.304C21.922,18.44,22.058,18.726,21.965,18.986z"/>
		</g>
	</g>
	<g id="New_icons">
	</g>
</g>
<g id="Invisible_Shape">
	<rect fill="none" width="24" height="24"/>
</g>
</svg>
