<?xml version="1.0" encoding="utf-8"?>
<!-- Generator: Adobe Illustrator 19.2.1, SVG Export Plug-In . SVG Version: 6.00 Build 0)  -->
<svg version="1.1" xmlns="http://www.w3.org/2000/svg" xmlns:xlink="http://www.w3.org/1999/xlink" x="0px" y="0px" width="24px"
	 height="24px" viewBox="0 0 24 24" enable-background="new 0 0 24 24" xml:space="preserve">
<g id="Filled_Icons_1_">
	<g id="Filled_Icons">
	</g>
	<g id="New_icons">
		<g>
			<path d="M23.971,16.33c-0.072-0.196-0.26-0.329-0.471-0.329h-3.191l-1.854-3.724c-0.084-0.17-0.268-0.274-0.455-0.274
				c-0.19,0-0.363,0.108-0.447,0.277l-1.854,3.723h-3.191c-0.211,0-0.398,0.133-0.471,0.33c-0.07,0.199-0.012,0.42,0.15,0.555
				l2.738,2.281l-1.391,4.17c-0.07,0.202-0.014,0.434,0.17,0.566c0.178,0.131,0.408,0.121,0.578,0.003l3.723-2.545l3.719,2.542
				c0.17,0.118,0.4,0.128,0.578-0.003c0.184-0.133,0.241-0.364,0.17-0.566l-1.391-4.17l2.738-2.281
				C23.982,16.751,24.041,16.529,23.971,16.33z"/>
			<g>
				<path d="M1.5,19C1.224,19,1,19.223,1,19.5C1,19.775,1.224,20,1.5,20S2,19.775,2,19.5C2,19.223,1.776,19,1.5,19L1.5,19z"/>
			</g>
			<g>
				<path d="M3.5,19C3.224,19,3,19.223,3,19.5C3,19.775,3.224,20,3.5,20S4,19.775,4,19.5C4,19.223,3.776,19,3.5,19L3.5,19z"/>
			</g>
			<circle cx="3.5" cy="3" r="0.5"/>
			<circle cx="3.5" cy="8" r="0.5"/>
			<path d="M19,5V0.5C19,0.224,18.776,0,18.5,0h-18C0.224,0,0,0.224,0,0.5V5H19z M15.5,2c0.552,0,1,0.448,1,1s-0.448,1-1,1
				s-1-0.448-1-1S14.948,2,15.5,2z M12.5,2c0.552,0,1,0.448,1,1s-0.448,1-1,1s-1-0.448-1-1S11.948,2,12.5,2z M9.5,2
				c0.552,0,1,0.448,1,1s-0.448,1-1,1s-1-0.448-1-1S8.948,2,9.5,2z M3.5,1.5C4.327,1.5,5,2.173,5,3S4.327,4.5,3.5,4.5S2,3.827,2,3
				S2.673,1.5,3.5,1.5z"/>
			<path d="M19,6H0v4h19V6z M3.5,9.5C2.673,9.5,2,8.827,2,8s0.673-1.5,1.5-1.5S5,7.173,5,8S4.327,9.5,3.5,9.5z M9.5,9
				c-0.552,0-1-0.448-1-1s0.448-1,1-1s1,0.448,1,1S10.052,9,9.5,9z M12.5,9c-0.552,0-1-0.448-1-1s0.448-1,1-1s1,0.448,1,1
				S13.052,9,12.5,9z M15.5,9c-0.552,0-1-0.448-1-1s0.448-1,1-1s1,0.448,1,1S16.052,9,15.5,9z"/>
			<circle cx="3.5" cy="13" r="0.5"/>
			<path d="M12,19h-2v-3h1.088c0.002-0.004,0.001-0.01,0.003-0.014C11.303,15.398,11.869,15,12.5,15h2.574l1.593-3.173
				c0.256-0.509,0.766-0.823,1.333-0.826V11H0v4.5C0,15.776,0.224,16,0.5,16H9v3H5.5C5.224,19,5,19.224,5,19.5S5.224,20,5.5,20
				c8.077,0,0.838,0,6.5,0c0.276,0,0.5-0.224,0.5-0.5S12.276,19,12,19z M12.5,12c0.552,0,1,0.448,1,1s-0.448,1-1,1s-1-0.448-1-1
				S11.948,12,12.5,12z M3.5,14.5C2.673,14.5,2,13.827,2,13s0.673-1.5,1.5-1.5S5,12.173,5,13S4.327,14.5,3.5,14.5z M8.5,13
				c0-0.552,0.448-1,1-1s1,0.448,1,1s-0.448,1-1,1S8.5,13.552,8.5,13z"/>
		</g>
	</g>
</g>
<g id="Invisible_Shape">
	<rect fill="none" width="24" height="24"/>
</g>
</svg>
