<?xml version="1.0" encoding="utf-8"?>
<!-- Generator: Adobe Illustrator 19.2.1, SVG Export Plug-In . SVG Version: 6.00 Build 0)  -->
<svg version="1.1" xmlns="http://www.w3.org/2000/svg" xmlns:xlink="http://www.w3.org/1999/xlink" x="0px" y="0px" width="24px"
	 height="24px" viewBox="0 0 24 24" enable-background="new 0 0 24 24" xml:space="preserve">
<g id="Filled_Icons_1_">
	<g id="Filled_Icons">
		<g>
			<circle cx="4" cy="4" r="0.5"/>
			<circle cx="4" cy="18" r="0.5"/>
			<circle cx="4" cy="11" r="0.5"/>
			<path d="M22,7c0,0,0-5.481,0-5.5C22,0.673,21.327,0,20.5,0h-19C0.673,0,0,0.673,0,1.5C0,1.513,0,7,0,7H22z M8,3h10
				c0.276,0,0.5,0.224,0.5,0.5S18.276,4,18,4H8C7.724,4,7.5,3.776,7.5,3.5S7.724,3,8,3z M8,5h10c0.276,0,0.5,0.224,0.5,0.5
				S18.276,6,18,6H8C7.724,6,7.5,5.776,7.5,5.5S7.724,5,8,5z M4,2.5c0.827,0,1.5,0.673,1.5,1.5S4.827,5.5,4,5.5S2.5,4.827,2.5,4
				S3.173,2.5,4,2.5z"/>
			<path d="M11,20H8c-0.276,0-0.5-0.224-0.5-0.5S7.724,19,8,19h3v-1H8c-0.276,0-0.5-0.224-0.5-0.5S7.724,17,8,17h3v-1.5
				c0-0.176,0.036-0.343,0.092-0.5H0c0,0,0,5.481,0,5.5C0,21.327,0.673,22,1.5,22H11V20z M4,19.5c-0.827,0-1.5-0.673-1.5-1.5
				s0.673-1.5,1.5-1.5s1.5,0.673,1.5,1.5S4.827,19.5,4,19.5z"/>
			<path d="M13.051,14c0.039-0.349,0.13-0.68,0.244-1H8c-0.276,0-0.5-0.224-0.5-0.5S7.724,12,8,12h5.8
				c0.254-0.379,0.56-0.715,0.913-1H8c-0.276,0-0.5-0.224-0.5-0.5S7.724,10,8,10h10c2,0,3.669,1.953,3.93,3.907
				C21.971,13.778,22,13.644,22,13.5c0-0.013,0-5.5,0-5.5H0c0,0.001,0,5.999,0,5.999L13.051,14z M4,12.5c-0.827,0-1.5-0.673-1.5-1.5
				S3.173,9.5,4,9.5s1.5,0.673,1.5,1.5S4.827,12.5,4,12.5z"/>
			<path d="M22.5,15H21v-0.5c0-1.93-1.57-3.5-3.5-3.5S14,12.57,14,14.5V15h-1.5c-0.276,0-0.5,0.224-0.5,0.5v8
				c0,0.276,0.224,0.5,0.5,0.5h10c0.276,0,0.5-0.224,0.5-0.5v-8C23,15.224,22.776,15,22.5,15z M18,19.347V21
				c0,0.276-0.224,0.5-0.5,0.5S17,21.276,17,21v-1.653c-0.293-0.175-0.5-0.482-0.5-0.847c0-0.552,0.448-1,1-1s1,0.448,1,1
				C18.5,18.865,18.293,19.172,18,19.347z M20,15h-5v-0.5c0-1.379,1.121-2.5,2.5-2.5s2.5,1.121,2.5,2.5V15z"/>
		</g>
	</g>
	<g id="New_icons">
	</g>
</g>
<g id="Invisible_Shape">
	<rect fill="none" width="24" height="24"/>
</g>
</svg>
