<?xml version="1.0" encoding="utf-8"?>
<!-- Generator: Adobe Illustrator 19.2.1, SVG Export Plug-In . SVG Version: 6.00 Build 0)  -->
<svg version="1.1" xmlns="http://www.w3.org/2000/svg" xmlns:xlink="http://www.w3.org/1999/xlink" x="0px" y="0px" width="24px"
	 height="24px" viewBox="0 0 24 24" enable-background="new 0 0 24 24" xml:space="preserve">
<g id="Filled_Icons_1_">
	<g id="Filled_Icons">
		<g>
			<path d="M17.5,11c-3.584,0-6.5,2.916-6.5,6.5s2.916,6.5,6.5,6.5s6.5-2.916,6.5-6.5S21.084,11,17.5,11z M13.035,16.014
				c0.635-1.794,2.34-2.998,4.242-2.998c1.337,0,2.619,0.593,3.5,1.514v-0.568c0-0.277,0.224-0.5,0.5-0.5c0.276,0,0.5,0.223,0.5,0.5
				v2.221c0,0.276-0.224,0.5-0.5,0.5h-2.223c-0.275,0-0.5-0.224-0.5-0.5c0-0.276,0.225-0.5,0.5-0.5h1.379
				c-0.653-0.991-1.873-1.666-3.156-1.666c-1.479,0-2.806,0.938-3.301,2.332c-0.089,0.252-0.366,0.399-0.638,0.305
				C13.078,16.56,12.942,16.274,13.035,16.014z M21.965,18.986c-0.635,1.793-2.34,2.998-4.242,2.998c-1.336,0-2.619-0.591-3.5-1.512
				v0.567c0,0.276-0.223,0.5-0.5,0.5c-0.275,0-0.5-0.224-0.5-0.5v-2.222c0-0.276,0.225-0.5,0.5-0.5h2.223c0.276,0,0.5,0.224,0.5,0.5
				c0,0.275-0.224,0.5-0.5,0.5h-1.379c0.653,0.992,1.873,1.666,3.156,1.666c1.479,0,2.806-0.938,3.301-2.333
				c0.092-0.26,0.378-0.396,0.638-0.304C21.922,18.44,22.058,18.726,21.965,18.986z"/>
			<g>
				<path d="M22,7c0,0,0-5.481,0-5.5C22,0.673,21.327,0,20.5,0h-19C0.673,0,0,0.673,0,1.5C0,1.513,0,7,0,7H22z M8,3h10
					c0.276,0,0.5,0.224,0.5,0.5S18.276,4,18,4H8C7.724,4,7.5,3.776,7.5,3.5S7.724,3,8,3z M8,5h10c0.276,0,0.5,0.224,0.5,0.5
					S18.276,6,18,6H8C7.724,6,7.5,5.776,7.5,5.5S7.724,5,8,5z M4,2.5c0.827,0,1.5,0.673,1.5,1.5S4.827,5.5,4,5.5S2.5,4.827,2.5,4
					S3.173,2.5,4,2.5z"/>
				<path d="M10.438,20H8c-0.276,0-0.5-0.224-0.5-0.5S7.724,19,8,19h2.151c-0.066-0.325-0.103-0.66-0.126-1H8
					c-0.276,0-0.5-0.224-0.5-0.5S7.724,17,8,17h2.025c0.046-0.697,0.188-1.367,0.412-2H0c0,5.48,0,5.48,0,5.5
					C0,21.327,0.673,22,1.5,22h10.014C11.06,21.396,10.695,20.725,10.438,20z M4,19.5c-0.827,0-1.5-0.673-1.5-1.5s0.673-1.5,1.5-1.5
					s1.5,0.673,1.5,1.5S4.827,19.5,4,19.5z"/>
				<path d="M11.514,13H8c-0.276,0-0.5-0.224-0.5-0.5S7.724,12,8,12h4.418c0.413-0.382,0.866-0.718,1.356-1H8
					c-0.276,0-0.5-0.224-0.5-0.5S7.724,10,8,10h10c1.132,0,2.912,0.694,4,1.514C22,11.506,22,8,22,8H0c0,0.001,0,5.999,0,5.999
					L10.872,14C11.059,13.648,11.276,13.316,11.514,13z M4,12.5c-0.827,0-1.5-0.673-1.5-1.5S3.173,9.5,4,9.5s1.5,0.673,1.5,1.5
					S4.827,12.5,4,12.5z"/>
				<circle cx="4" cy="4" r="0.5"/>
				<circle cx="4" cy="18" r="0.5"/>
				<circle cx="4" cy="11" r="0.5"/>
			</g>
		</g>
	</g>
	<g id="New_icons">
	</g>
</g>
<g id="Invisible_Shape">
	<rect fill="none" width="24" height="24"/>
</g>
</svg>
