<?xml version="1.0" encoding="utf-8"?>
<!-- Generator: Adobe Illustrator 19.2.1, SVG Export Plug-In . SVG Version: 6.00 Build 0)  -->
<svg version="1.1" xmlns="http://www.w3.org/2000/svg" xmlns:xlink="http://www.w3.org/1999/xlink" x="0px" y="0px" width="24px"
	 height="24px" viewBox="0 0 24 24" enable-background="new 0 0 24 24" xml:space="preserve">
<g id="Filled_Icons_1_">
	<g id="Filled_Icons">
	</g>
	<g id="New_icons">
		<g>
			<path d="M8,6.089V4.301C7.014,4.759,5.779,5,4.5,5C3.231,5,1.988,4.738,1,4.251v1.842C1.887,6.647,3.199,7,4.449,7
				C5.767,7,7.106,6.644,8,6.089z"/>
			<path d="M8,3.125C8,1.57,6.048,1,4.5,1C2.987,1,1,1.585,1,3.057C1.887,3.631,3.225,4,4.5,4C5.79,4,7.106,3.661,8,3.125z"/>
			<path d="M16,4.251v1.842C16.887,6.647,18.199,7,19.449,7C20.767,7,22.105,6.644,23,6.089V4.301C22.014,4.759,20.779,5,19.5,5
				C18.231,5,16.988,4.738,16,4.251z"/>
			<path d="M16,7.279V8c0,0.078,0.023,0.15,0.037,0.226l-4.035,3.136L7.963,8.223C7.977,8.148,8,8.076,8,8V7.273
				C7.006,7.747,5.753,8,4.449,8C3.203,8,1.98,7.75,1,7.279V8c0,1.141,1.505,2,3.5,2c1.276,0,2.347-0.354,2.956-0.906l3.732,2.9
				l-3.739,2.905C6.839,14.352,5.772,14,4.5,14C2.987,14,1,14.585,1,16.057C1.887,16.631,3.225,17,4.5,17
				c1.29,0,2.606-0.339,3.5-0.875c0-0.245,0.002-0.143-0.039-0.357l4.041-3.141l4.037,3.137C16.01,15.922,16,15.894,16,16.057
				C16.887,16.631,18.225,17,19.5,17c1.29,0,2.605-0.339,3.5-0.875C23,14.57,21.048,14,19.5,14c-1.27,0-2.337,0.35-2.947,0.898
				l-3.736-2.903l3.73-2.898C17.156,9.646,18.225,10,19.5,10c1.995,0,3.5-0.859,3.5-2V7.273C22.006,7.747,20.753,8,19.449,8
				C18.203,8,16.98,7.75,16,7.279z"/>
			<path d="M19.5,1C17.987,1,16,1.585,16,3.057C16.887,3.631,18.225,4,19.5,4c1.29,0,2.605-0.339,3.5-0.875C23,1.57,21.048,1,19.5,1
				z"/>
			<path d="M16,17.251v1.842C16.887,19.646,18.199,20,19.449,20c1.317,0,2.656-0.355,3.551-0.911v-1.788
				C22.014,17.759,20.779,18,19.5,18C18.231,18,16.988,17.738,16,17.251z"/>
			<path d="M16,20.279V21c0,1.141,1.505,2,3.5,2s3.5-0.859,3.5-2v-0.728C22.006,20.747,20.753,21,19.449,21
				C18.203,21,16.98,20.75,16,20.279z"/>
			<path d="M1,17.251v1.842C1.887,19.646,3.199,20,4.449,20C5.767,20,7.106,19.645,8,19.089v-1.788C7.014,17.759,5.779,18,4.5,18
				C3.231,18,1.988,17.738,1,17.251z"/>
			<path d="M1,20.279V21c0,1.141,1.505,2,3.5,2S8,22.141,8,21v-0.728C7.006,20.747,5.753,21,4.449,21C3.203,21,1.98,20.75,1,20.279z
				"/>
		</g>
	</g>
</g>
<g id="Invisible_Shape">
	<rect fill="none" width="24" height="24"/>
</g>
</svg>
