<?xml version="1.0" encoding="utf-8"?>
<!-- Generator: Adobe Illustrator 19.2.1, SVG Export Plug-In . SVG Version: 6.00 Build 0)  -->
<svg version="1.1" xmlns="http://www.w3.org/2000/svg" xmlns:xlink="http://www.w3.org/1999/xlink" x="0px" y="0px" width="24px"
	 height="24px" viewBox="0 0 24 24" enable-background="new 0 0 24 24" xml:space="preserve">
<g id="Filled_Icons_1_">
	<g id="Filled_Icons">
		<g>
			<g>
				<circle cx="4" cy="4" r="0.5"/>
				<circle cx="4" cy="18" r="0.5"/>
				<circle cx="4" cy="11" r="0.5"/>
				<path d="M22,7c0,0,0-5.481,0-5.5C22,0.673,21.327,0,20.5,0h-19C0.673,0,0,0.673,0,1.5C0,1.513,0,7,0,7H22z M8,3h10
					c0.276,0,0.5,0.224,0.5,0.5S18.276,4,18,4H8C7.724,4,7.5,3.776,7.5,3.5S7.724,3,8,3z M8,5h10c0.276,0,0.5,0.224,0.5,0.5
					S18.276,6,18,6H8C7.724,6,7.5,5.776,7.5,5.5S7.724,5,8,5z M4,2.5c0.827,0,1.5,0.673,1.5,1.5S4.827,5.5,4,5.5S2.5,4.827,2.5,4
					S3.173,2.5,4,2.5z"/>
				<path d="M12.607,20H8c-0.276,0-0.5-0.224-0.5-0.5S7.724,19,8,19h4.213c-0.092-0.322-0.156-0.656-0.188-1H8
					c-0.276,0-0.5-0.224-0.5-0.5S7.724,17,8,17h4.025c0.064-0.715,0.268-1.39,0.582-2H0c0,0,0,5.481,0,5.5C0,21.327,0.673,22,1.5,22
					h12.849C13.617,21.486,13.018,20.8,12.607,20z M4,19.5c-0.827,0-1.5-0.673-1.5-1.5s0.673-1.5,1.5-1.5s1.5,0.673,1.5,1.5
					S4.827,19.5,4,19.5z"/>
				<path d="M14.349,13H8c-0.276,0-0.5-0.224-0.5-0.5S7.724,12,8,12c0,0,9,0,10,0c1.5,0,3.101,1.068,4,2.348C22,12.61,22,8.001,22,8
					H0c0,0.001,0,5.999,0,5.999L13.262,14C13.576,13.619,13.943,13.284,14.349,13z M8,10h10c0.276,0,0.5,0.224,0.5,0.5
					S18.276,11,18,11H8c-0.276,0-0.5-0.224-0.5-0.5S7.724,10,8,10z M4,12.5c-0.827,0-1.5-0.673-1.5-1.5S3.173,9.5,4,9.5
					s1.5,0.673,1.5,1.5S4.827,12.5,4,12.5z"/>
			</g>
			<path d="M23.854,23.146L21,20.293c0.616-0.77,1-1.733,1-2.793c0-2.481-2.018-4.5-4.499-4.5C15.019,13,13,15.019,13,17.5
				c0,2.48,2.019,4.5,4.501,4.5c1.059,0,2.022-0.385,2.792-1l2.854,2.854c0.195,0.194,0.512,0.194,0.707,0
				C24.049,23.659,24.049,23.342,23.854,23.146z M17.501,21C15.57,21,14,19.43,14,17.5c0-1.929,1.57-3.5,3.501-3.5
				C19.43,14,21,15.571,21,17.5C21,19.43,19.43,21,17.501,21z"/>
		</g>
	</g>
	<g id="New_icons">
	</g>
</g>
<g id="Invisible_Shape">
	<rect fill="none" width="24" height="24"/>
</g>
</svg>
