<?xml version="1.0" encoding="utf-8"?>
<!-- Generator: Adobe Illustrator 19.2.1, SVG Export Plug-In . SVG Version: 6.00 Build 0)  -->
<svg version="1.1" xmlns="http://www.w3.org/2000/svg" xmlns:xlink="http://www.w3.org/1999/xlink" x="0px" y="0px" width="24px"
	 height="24px" viewBox="0 0 24 24" enable-background="new 0 0 24 24" xml:space="preserve">
<g id="Filled_Icons_1_">
	<g id="Filled_Icons">
		<g>
			<path d="M23.971,16.33c-0.072-0.196-0.26-0.329-0.471-0.329h-3.191l-1.854-3.724c-0.084-0.17-0.268-0.274-0.455-0.274
				c-0.19,0-0.363,0.108-0.447,0.277l-1.854,3.723h-3.191c-0.211,0-0.398,0.133-0.471,0.33c-0.07,0.199-0.012,0.42,0.15,0.555
				l2.738,2.281l-1.391,4.17c-0.07,0.202-0.014,0.434,0.17,0.566c0.178,0.131,0.408,0.121,0.578,0.003l3.723-2.545l3.719,2.542
				c0.17,0.118,0.4,0.128,0.578-0.003c0.184-0.133,0.241-0.364,0.17-0.566l-1.391-4.17l2.738-2.281
				C23.982,16.751,24.041,16.529,23.971,16.33z"/>
			<circle cx="4" cy="4" r="0.5"/>
			<circle cx="4" cy="18" r="0.5"/>
			<circle cx="4" cy="11" r="0.5"/>
			<path d="M22,7c0,0,0-5.481,0-5.5C22,0.673,21.327,0,20.5,0h-19C0.673,0,0,0.673,0,1.5C0,1.513,0,7,0,7H22z M8,3h10
				c0.276,0,0.5,0.224,0.5,0.5S18.276,4,18,4H8C7.724,4,7.5,3.776,7.5,3.5S7.724,3,8,3z M8,5h10c0.276,0,0.5,0.224,0.5,0.5
				S18.276,6,18,6H8C7.724,6,7.5,5.776,7.5,5.5S7.724,5,8,5z M4,2.5c0.827,0,1.5,0.673,1.5,1.5S4.827,5.5,4,5.5S2.5,4.827,2.5,4
				S3.173,2.5,4,2.5z"/>
			<path d="M13.585,20H8c-0.276,0-0.5-0.224-0.5-0.5S7.724,19,8,19h5.156l-1.199-1H8c-0.276,0-0.5-0.224-0.5-0.5S7.724,17,8,17h3.1
				c-0.368-1.034,0.41-2,1.4-2H0c0,0,0,5.481,0,5.5C0,21.327,0.673,22,1.5,22h11.419L13.585,20z M4,19.5c-0.827,0-1.5-0.673-1.5-1.5
				s0.673-1.5,1.5-1.5s1.5,0.673,1.5,1.5S4.827,19.5,4,19.5z"/>
			<path d="M16.078,13H8c-0.276,0-0.5-0.224-0.5-0.5S7.724,12,8,12h8.58c0.307-0.609,0.729-1,1.428-1c0.001,0,0.002,0,0.002,0
				c0.568,0.001,1.088,0.322,1.341,0.831L20.431,14H22c0,0,0-5.999,0-6H0c0,0.001,0,5.999,0,5.999L15.576,14L16.078,13z M8,10h10
				c0.276,0,0.5,0.224,0.5,0.5S18.276,11,18,11H8c-0.276,0-0.5-0.224-0.5-0.5S7.724,10,8,10z M4,12.5c-0.827,0-1.5-0.673-1.5-1.5
				S3.173,9.5,4,9.5s1.5,0.673,1.5,1.5S4.827,12.5,4,12.5z"/>
		</g>
	</g>
	<g id="New_icons">
	</g>
</g>
<g id="Invisible_Shape">
	<rect fill="none" width="24" height="24"/>
</g>
</svg>
