<?xml version="1.0" encoding="utf-8"?>
<!-- Generator: Adobe Illustrator 19.2.1, SVG Export Plug-In . SVG Version: 6.00 Build 0)  -->
<svg version="1.1" xmlns="http://www.w3.org/2000/svg" xmlns:xlink="http://www.w3.org/1999/xlink" x="0px" y="0px" width="24px"
	 height="24px" viewBox="0 0 24 24" enable-background="new 0 0 24 24" xml:space="preserve">
<g id="Filled_Icons_1_">
	<g id="Filled_Icons">
	</g>
	<g id="New_icons">
		<g>
			<g>
				<path d="M17.942,20H9.5C9.224,20,9,19.776,9,19.5S9.224,19,9.5,19h2c0.938,0.047,0.186-0.557-0.016-0.703
					C11.283,18.15,9.703,17,8.188,17H6.5C6.224,17,6,17.224,6,17.5v5C6,22.776,6.224,23,6.5,23h15c0.275,0,0.5-0.224,0.5-0.5
					C22,21.162,20.222,20.59,17.942,20z"/>
				<path d="M4.5,16h-4C0.224,16,0,16.224,0,16.5v7C0,23.776,0.224,24,0.5,24h4C4.775,24,5,23.776,5,23.5v-7
					C5,16.224,4.775,16,4.5,16z"/>
			</g>
			<g>
				<path d="M18.5,7.5c3.108,0,4.759-1.014,5.5-1.915v-1.61C22.912,4.818,21.159,5.5,18.5,5.5S14.088,4.818,13,3.975v1.61
					C13.741,6.486,15.392,7.5,18.5,7.5z"/>
				<path d="M18.5,10.5c3.108,0,4.759-1.014,5.5-1.915v-1.61C22.912,7.818,21.159,8.5,18.5,8.5S14.088,7.818,13,6.975v1.61
					C13.741,9.486,15.392,10.5,18.5,10.5z"/>
				<path d="M18.5,11.5c-2.659,0-4.412-0.682-5.5-1.525V11.5c0,1.624,2.834,2.5,5.5,2.5s5.5-0.876,5.5-2.5V9.975
					C22.912,10.818,21.159,11.5,18.5,11.5z"/>
				<path d="M18.5,4.5c3.108,0,4.759-1.014,5.5-1.915C24,0.592,20.513,0,18.5,0C16.491,0,13,0.592,13,2.585
					C13.741,3.486,15.392,4.5,18.5,4.5z"/>
			</g>
		</g>
	</g>
</g>
<g id="Invisible_Shape">
	<rect fill="none" width="24" height="24"/>
</g>
</svg>
