<?xml version="1.0" encoding="utf-8"?>
<!-- Generator: Adobe Illustrator 19.2.1, SVG Export Plug-In . SVG Version: 6.00 Build 0)  -->
<svg version="1.1" xmlns="http://www.w3.org/2000/svg" xmlns:xlink="http://www.w3.org/1999/xlink" x="0px" y="0px" width="24px"
	 height="24px" viewBox="0 0 24 24" enable-background="new 0 0 24 24" xml:space="preserve">
<g id="Filled_Icons_1_">
	<g id="Filled_Icons">
		<g>
			<circle cx="3.5" cy="14.5" r="0.5"/>
			<circle cx="3.5" cy="8.5" r="0.5"/>
			<circle cx="3.5" cy="20.5" r="0.5"/>
			<path d="M0,17h24v-5H0V17z M20,13.5c0.551,0,1,0.448,1,1s-0.449,1-1,1c-0.552,0-1-0.448-1-1S19.448,13.5,20,13.5z M17,13.5
				c0.551,0,1,0.448,1,1s-0.449,1-1,1c-0.552,0-1-0.448-1-1S16.448,13.5,17,13.5z M14,13.5c0.551,0,1,0.448,1,1s-0.449,1-1,1
				c-0.552,0-1-0.448-1-1S13.448,13.5,14,13.5z M3.5,13C4.327,13,5,13.673,5,14.5S4.327,16,3.5,16S2,15.327,2,14.5S2.673,13,3.5,13z
				"/>
			<path d="M0,21.5C0,22.879,1.121,24,2.5,24h19c1.378,0,2.5-1.121,2.5-2.5V18H0V21.5z M20,19.5c0.551,0,1,0.448,1,1s-0.449,1-1,1
				c-0.552,0-1-0.448-1-1S19.448,19.5,20,19.5z M17,19.5c0.551,0,1,0.448,1,1s-0.449,1-1,1c-0.552,0-1-0.448-1-1
				S16.448,19.5,17,19.5z M14,19.5c0.551,0,1,0.448,1,1s-0.449,1-1,1c-0.552,0-1-0.448-1-1S13.448,19.5,14,19.5z M3.5,19
				C4.327,19,5,19.673,5,20.5S4.327,22,3.5,22S2,21.327,2,20.5S2.673,19,3.5,19z"/>
			<path d="M0,6v5h24V6H0z M3.5,10C2.673,10,2,9.327,2,8.5S2.673,7,3.5,7S5,7.673,5,8.5S4.327,10,3.5,10z M14,9.5
				c-0.552,0-1-0.448-1-1s0.448-1,1-1c0.551,0,1,0.448,1,1S14.551,9.5,14,9.5z M17,9.5c-0.552,0-1-0.448-1-1s0.448-1,1-1
				c0.551,0,1,0.448,1,1S17.551,9.5,17,9.5z M20,9.5c-0.552,0-1-0.448-1-1s0.448-1,1-1c0.551,0,1,0.448,1,1S20.551,9.5,20,9.5z"/>
			<path d="M17.82,0.116C17.73,0.041,17.617,0,17.5,0h-11C6.383,0,6.269,0.041,6.18,0.116L0.318,5h23.362L17.82,0.116z"/>
		</g>
	</g>
	<g id="New_icons">
	</g>
</g>
<g id="Invisible_Shape">
	<rect fill="none" width="24" height="24"/>
</g>
</svg>
