<?xml version="1.0" encoding="utf-8"?>
<!-- Generator: Adobe Illustrator 19.2.1, SVG Export Plug-In . SVG Version: 6.00 Build 0)  -->
<svg version="1.1" xmlns="http://www.w3.org/2000/svg" xmlns:xlink="http://www.w3.org/1999/xlink" x="0px" y="0px" width="24px"
	 height="24px" viewBox="0 0 24 24" enable-background="new 0 0 24 24" xml:space="preserve">
<g id="Filled_Icons_1_">
	<g id="Filled_Icons">
		<g>
			<circle cx="4" cy="4" r="0.5"/>
			<circle cx="4" cy="18" r="0.5"/>
			<circle cx="4" cy="11" r="0.5"/>
			<path d="M22,7c0,0,0-5.481,0-5.5C22,0.673,21.327,0,20.5,0h-19C0.673,0,0,0.673,0,1.5C0,1.513,0,7,0,7H22z M8,3h10
				c0.276,0,0.5,0.224,0.5,0.5S18.276,4,18,4H8C7.724,4,7.5,3.776,7.5,3.5S7.724,3,8,3z M8,5h10c0.276,0,0.5,0.224,0.5,0.5
				S18.276,6,18,6H8C7.724,6,7.5,5.776,7.5,5.5S7.724,5,8,5z M4,2.5c0.827,0,1.5,0.673,1.5,1.5S4.827,5.5,4,5.5S2.5,4.827,2.5,4
				S3.173,2.5,4,2.5z"/>
			<path d="M12.173,20H8c-0.276,0-0.5-0.224-0.5-0.5S7.724,19,8,19h3.489c-0.201-0.329-0.386-0.662-0.533-1H8
				c-0.276,0-0.5-0.224-0.5-0.5S7.724,17,8,17h2.625c-0.144-0.619-0.192-1.173-0.024-2H0c0,0,0,5.481,0,5.5
				C0,21.327,0.673,22,1.5,22h12.486C13.367,21.403,12.731,20.728,12.173,20z M4,19.5c-0.827,0-1.5-0.673-1.5-1.5s0.673-1.5,1.5-1.5
				s1.5,0.673,1.5,1.5S4.827,19.5,4,19.5z"/>
			<path d="M20.273,12.5c-0.951,0-2.071,0.491-2.777,1.784C16.79,12.991,15.67,12.5,14.719,12.5c-1.584,0-3.223,1.323-3.223,3.537
				c0,3.181,5.473,7.198,5.706,7.367c0.175,0.126,0.409,0.129,0.588,0c0.233-0.169,5.706-4.187,5.706-7.367
				C23.496,13.823,21.857,12.5,20.273,12.5z"/>
			<path d="M0,8c0,0.001,0,5.999,0,5.999L10.935,14c0.172-0.375,0.394-0.704,0.647-1H8c-0.276,0-0.5-0.224-0.5-0.5S7.724,12,8,12
				h4.823c1.263-0.668,2.562-0.662,3.782,0h1.78c1.132-0.616,2.366-0.681,3.614-0.089C22,11.902,22,8,22,8H0z M4,12.5
				c-0.827,0-1.5-0.673-1.5-1.5S3.173,9.5,4,9.5s1.5,0.673,1.5,1.5S4.827,12.5,4,12.5z M18,11H8c-0.276,0-0.5-0.224-0.5-0.5
				S7.724,10,8,10h10c0.276,0,0.5,0.224,0.5,0.5S18.276,11,18,11z"/>
		</g>
	</g>
	<g id="New_icons">
	</g>
</g>
<g id="Invisible_Shape">
	<rect fill="none" width="24" height="24"/>
</g>
</svg>
