<?xml version="1.0" encoding="utf-8"?>
<!-- Generator: Adobe Illustrator 19.2.1, SVG Export Plug-In . SVG Version: 6.00 Build 0)  -->
<svg version="1.1" xmlns="http://www.w3.org/2000/svg" xmlns:xlink="http://www.w3.org/1999/xlink" x="0px" y="0px" width="24px"
	 height="24px" viewBox="0 0 24 24" enable-background="new 0 0 24 24" xml:space="preserve">
<g id="Filled_Icons_1_">
	<g id="Filled_Icons">
	</g>
	<g id="New_icons">
		<g>
			<path d="M17.5,11c-3.584,0-6.5,2.916-6.5,6.5s2.916,6.5,6.5,6.5s6.5-2.916,6.5-6.5S21.084,11,17.5,11z M13.035,16.014
				c0.635-1.794,2.34-2.998,4.242-2.998c1.337,0,2.619,0.593,3.5,1.514v-0.568c0-0.277,0.224-0.5,0.5-0.5c0.276,0,0.5,0.223,0.5,0.5
				v2.221c0,0.276-0.224,0.5-0.5,0.5h-2.223c-0.275,0-0.5-0.224-0.5-0.5c0-0.276,0.225-0.5,0.5-0.5h1.379
				c-0.653-0.991-1.873-1.666-3.156-1.666c-1.479,0-2.806,0.938-3.301,2.332c-0.089,0.252-0.366,0.399-0.638,0.305
				C13.078,16.56,12.942,16.274,13.035,16.014z M21.965,18.986c-0.635,1.793-2.34,2.998-4.242,2.998c-1.336,0-2.619-0.591-3.5-1.512
				v0.567c0,0.276-0.223,0.5-0.5,0.5c-0.275,0-0.5-0.224-0.5-0.5v-2.222c0-0.276,0.225-0.5,0.5-0.5h2.223c0.276,0,0.5,0.224,0.5,0.5
				c0,0.275-0.224,0.5-0.5,0.5h-1.379c0.653,0.992,1.873,1.666,3.156,1.666c1.479,0,2.806-0.938,3.301-2.333
				c0.092-0.26,0.378-0.396,0.638-0.304C21.922,18.44,22.058,18.726,21.965,18.986z"/>
			<g>
				<g>
					<path d="M1.5,19C1.224,19,1,19.223,1,19.5C1,19.775,1.224,20,1.5,20S2,19.775,2,19.5C2,19.223,1.776,19,1.5,19L1.5,19z"/>
				</g>
				<g>
					<path d="M3.5,19C3.224,19,3,19.223,3,19.5C3,19.775,3.224,20,3.5,20S4,19.775,4,19.5C4,19.223,3.776,19,3.5,19L3.5,19z"/>
				</g>
				<g>
					<path d="M18.5,0h-18C0.224,0,0,0.224,0,0.5V5h19V0.5C19,0.224,18.776,0,18.5,0z M3.5,4.5C2.673,4.5,2,3.827,2,3
						s0.673-1.5,1.5-1.5S5,2.173,5,3S4.327,4.5,3.5,4.5z M9.5,4c-0.552,0-1-0.448-1-1s0.448-1,1-1s1,0.448,1,1S10.052,4,9.5,4z
						 M12.5,4c-0.552,0-1-0.448-1-1s0.448-1,1-1s1,0.448,1,1S13.052,4,12.5,4z M15.5,4c-0.552,0-1-0.448-1-1s0.448-1,1-1
						s1,0.448,1,1S16.052,4,15.5,4z"/>
					<circle cx="3.5" cy="3" r="0.5"/>
					<circle cx="3.5" cy="8" r="0.5"/>
					<path d="M0,10h19V6H0V10z M15.5,7c0.552,0,1,0.448,1,1s-0.448,1-1,1s-1-0.448-1-1S14.948,7,15.5,7z M12.5,7
						c0.552,0,1,0.448,1,1s-0.448,1-1,1s-1-0.448-1-1S11.948,7,12.5,7z M9.5,7c0.552,0,1,0.448,1,1s-0.448,1-1,1s-1-0.448-1-1
						S8.948,7,9.5,7z M3.5,6.5C4.327,6.5,5,7.173,5,8S4.327,9.5,3.5,9.5S2,8.827,2,8S2.673,6.5,3.5,6.5z"/>
					<circle cx="3.5" cy="13" r="0.5"/>
					<path d="M0,15.5C0,15.776,0.224,16,0.5,16H9v3H5.5C5.224,19,5,19.224,5,19.5S5.224,20,5.5,20h4c0.276,0,0.5-0.224,0.5-0.5V16
						c0.436-2.139,1.939-3.943,3.774-5H0V15.5z M9.5,12c0.552,0,1,0.448,1,1s-0.448,1-1,1s-1-0.448-1-1S8.948,12,9.5,12z M3.5,11.5
						C4.327,11.5,5,12.173,5,13s-0.673,1.5-1.5,1.5S2,13.827,2,13S2.673,11.5,3.5,11.5z"/>
				</g>
			</g>
		</g>
	</g>
</g>
<g id="Invisible_Shape">
	<rect fill="none" width="24" height="24"/>
</g>
</svg>
