<?xml version="1.0" encoding="utf-8"?>
<!-- Generator: Adobe Illustrator 19.2.1, SVG Export Plug-In . SVG Version: 6.00 Build 0)  -->
<svg version="1.1" xmlns="http://www.w3.org/2000/svg" xmlns:xlink="http://www.w3.org/1999/xlink" x="0px" y="0px" width="24px"
	 height="24px" viewBox="0 0 24 24" enable-background="new 0 0 24 24" xml:space="preserve">
<g id="Filled_Icons_1_">
	<g id="Filled_Icons">
		<g>
			<path d="M10,0C4.393,0,0,1.977,0,4.5C0,6.085,4.461,8,10,8c4.579,0,8.625-1.262,10-2.578V4.5C20,1.977,15.607,0,10,0z"/>
			<path d="M11.421,20.488c-0.52-0.576-0.52-1.424,0-2c-0.134-0.149-0.23-0.328-0.297-0.521C10.748,17.984,10.372,18,10,18
				c-3.965,0-8.138-1.008-10-2.638V17.5c0,3.572,7.221,4.658,11.118,4.472C10.928,21.42,11.067,20.881,11.421,20.488z"/>
			<path d="M12.531,15.988h1.561c0.066-0.187,0.168-0.356,0.298-0.5c-0.554-0.615-0.419-1.515-0.225-2.334
				C12.81,13.378,11.386,13.5,10,13.5c-3.965,0-8.138-1.008-10-2.638V13.5C0,15.085,4.46,17,10,17c0.381,0,0.756-0.012,1.128-0.028
				C11.34,16.398,11.886,15.988,12.531,15.988z"/>
			<path d="M19.507,10.31c0.188-0.128,0.357-0.258,0.493-0.389V6.669C17.864,8.106,13.783,9,10,9C6.035,9,1.862,7.992,0,6.362V9
				c0,1.585,4.46,3.5,10,3.5c1.623,0,3.176-0.16,4.569-0.424C15.519,10.294,17.605,9.531,19.507,10.31z"/>
			<g>
				<path d="M18,11.004c-1.822,0-3,1.367-3,3.484c0,0.276,0.224,0.5,0.5,0.5h5c0.276,0,0.5-0.224,0.5-0.5
					C21,12.371,19.822,11.004,18,11.004z"/>
				<path d="M23.5,19.988c0.276,0,0.5-0.224,0.5-0.5c0-0.276-0.224-0.5-0.5-0.488H21v-1.012h2.5c0.276,0,0.5-0.224,0.5-0.5
					c0-0.276-0.224-0.5-0.5-0.488H21v-0.512c0-0.276-0.224-0.5-0.5-0.488h-5c-0.276-0.012-0.5,0.212-0.5,0.488V17h-2.469
					c-0.276-0.012-0.5,0.212-0.5,0.488c0,0.276,0.224,0.5,0.5,0.5H15V19h-2.469c-0.276-0.012-0.5,0.212-0.5,0.488
					c0,0.276,0.224,0.5,0.5,0.5H15V21h-2.469c-0.276-0.012-0.5,0.212-0.5,0.488c0,0.276,0.224,0.5,0.5,0.5h2.653
					c0.414,1.162,1.514,2,2.815,2s2.401-0.838,2.815-2H23.5c0.276,0,0.5-0.224,0.5-0.5c0-0.276-0.224-0.5-0.5-0.488H21v-1.012H23.5z
					"/>
			</g>
		</g>
	</g>
	<g id="New_icons">
	</g>
</g>
<g id="Invisible_Shape">
	<rect fill="none" width="24" height="24"/>
</g>
</svg>
