<?xml version="1.0" encoding="utf-8"?>
<!-- Generator: Adobe Illustrator 19.2.1, SVG Export Plug-In . SVG Version: 6.00 Build 0)  -->
<svg version="1.1" xmlns="http://www.w3.org/2000/svg" xmlns:xlink="http://www.w3.org/1999/xlink" x="0px" y="0px" width="24px"
	 height="24px" viewBox="0 0 24 24" enable-background="new 0 0 24 24" xml:space="preserve">
<g id="Filled_Icons_1_">
	<g id="Filled_Icons">
		<g>
			<circle cx="4" cy="4" r="0.5"/>
			<circle cx="4" cy="18" r="0.5"/>
			<circle cx="4" cy="11" r="0.5"/>
			<path d="M22,7c0,0,0-5.481,0-5.5C22,0.673,21.327,0,20.5,0h-19C0.673,0,0,0.673,0,1.5C0,1.513,0,7,0,7H22z M8,3h10
				c0.276,0,0.5,0.224,0.5,0.5S18.276,4,18,4H8C7.724,4,7.5,3.776,7.5,3.5S7.724,3,8,3z M8,5h10c0.276,0,0.5,0.224,0.5,0.5
				S18.276,6,18,6H8C7.724,6,7.5,5.776,7.5,5.5S7.724,5,8,5z M4,2.5c0.827,0,1.5,0.673,1.5,1.5S4.827,5.5,4,5.5S2.5,4.827,2.5,4
				S3.173,2.5,4,2.5z"/>
			<path d="M15.072,13H8c-0.276,0-0.5-0.224-0.5-0.5S7.724,12,8,12h7.572l0.5-1H8c-0.276,0-0.5-0.224-0.5-0.5S7.724,10,8,10h10
				c0.5,0,0.753,0.652,0.841,0.827L20.428,14H22c0,0,0-5.999,0-6H0c0,0.001,0,5.999,0,5.999L14.572,14L15.072,13z M4,12.5
				c-0.827,0-1.5-0.673-1.5-1.5S3.173,9.5,4,9.5s1.5,0.673,1.5,1.5S4.827,12.5,4,12.5z"/>
			<path d="M11.572,20H8c-0.276,0-0.5-0.224-0.5-0.5S7.724,19,8,19h4.072l0.5-1H8c-0.276,0-0.5-0.224-0.5-0.5S7.724,17,8,17h5.072
				l1-2H0c0,0,0,5.481,0,5.5C0,21.327,0.673,22,1.5,22h9.072L11.572,20z M4,19.5c-0.827,0-1.5-0.673-1.5-1.5s0.673-1.5,1.5-1.5
				s1.5,0.673,1.5,1.5S4.827,19.5,4,19.5z"/>
			<path d="M23.947,23.276l-6-12c-0.17-0.338-0.725-0.338-0.895,0l-6,12C10.887,23.609,11.128,24,11.5,24h12
				C23.872,24,24.113,23.609,23.947,23.276z M17.5,22c-0.276,0-0.5-0.224-0.5-0.5s0.224-0.5,0.5-0.5s0.5,0.224,0.5,0.5
				S17.776,22,17.5,22z M18,20c0,0.276-0.224,0.5-0.5,0.5S17,20.276,17,20v-3.5c0-0.276,0.224-0.5,0.5-0.5s0.5,0.224,0.5,0.5V20z"/>
		</g>
	</g>
	<g id="New_icons">
	</g>
</g>
<g id="Invisible_Shape">
	<rect fill="none" width="24" height="24"/>
</g>
</svg>
