<?xml version="1.0" encoding="utf-8"?>
<!-- Generator: Adobe Illustrator 16.0.3, SVG Export Plug-In . SVG Version: 6.00 Build 0)  -->
<!DOCTYPE svg PUBLIC "-//W3C//DTD SVG 1.1//EN" "http://www.w3.org/Graphics/SVG/1.1/DTD/svg11.dtd">
<svg version="1.1" xmlns="http://www.w3.org/2000/svg" xmlns:xlink="http://www.w3.org/1999/xlink" x="0px" y="0px" width="24px"
	 height="24px" viewBox="0 0 24 24" enable-background="new 0 0 24 24" xml:space="preserve">
<g id="Outline_Icons">
	<g>
		<circle fill="none" stroke="#000000" stroke-linejoin="round" stroke-miterlimit="10" cx="12" cy="9.042" r="3.479"/>
		<path fill="none" stroke="#000000" stroke-linejoin="round" stroke-miterlimit="10" d="M13.969,11.91l3.734,9.022
			c0.188,0.606,0.074,1.266-0.303,1.776s-0.974,0.812-1.608,0.812H8.208c-0.635,0-1.231-0.301-1.608-0.812
			c-0.378-0.511-0.49-1.17-0.303-1.776l3.76-9.005"/>
		<ellipse fill="none" stroke="#000000" stroke-linejoin="round" stroke-miterlimit="10" cx="12" cy="2.021" rx="4.5" ry="1.5"/>
		<path fill="none" stroke="#000000" stroke-linejoin="round" stroke-miterlimit="10" d="M9.844,12.437c0,0-8.011-4.291-9.303-5.457
			C0,17.021,5.5,16.521,8.5,15.521"/>
		<path fill="none" stroke="#000000" stroke-linejoin="round" stroke-miterlimit="10" d="M14.182,12.424
			c0,0,7.985-4.278,9.277-5.444C24,17.021,18.5,16.521,15.5,15.521"/>
	</g>
</g>
<g id="invisible_shape">
	<rect fill="none" width="24" height="24"/>
</g>
</svg>
