<?xml version="1.0" encoding="utf-8"?>
<!-- Generator: Adobe Illustrator 16.0.3, SVG Export Plug-In . SVG Version: 6.00 Build 0)  -->
<!DOCTYPE svg PUBLIC "-//W3C//DTD SVG 1.1//EN" "http://www.w3.org/Graphics/SVG/1.1/DTD/svg11.dtd">
<svg version="1.1" xmlns="http://www.w3.org/2000/svg" xmlns:xlink="http://www.w3.org/1999/xlink" x="0px" y="0px" width="24px"
	 height="24px" viewBox="0 0 24 24" enable-background="new 0 0 24 24" xml:space="preserve">
<g id="Outline_Icons">
	<g>
		<path fill="none" stroke="#000000" stroke-linecap="round" stroke-linejoin="round" stroke-miterlimit="10" d="M16.487,2.895
			c-2.011,0-3.804-0.934-4.979-2.395h-0.017c-1.175,1.461-2.968,2.395-4.979,2.395c-1.759,0-3.354-0.715-5.013-1.874v14.812
			c0,0,1.45,5.271,10,7.668c8.549-2.396,10-7.668,10-7.668V1.021C19.841,2.18,18.247,2.895,16.487,2.895z"/>
		<path fill="none" stroke="#000000" stroke-linecap="round" stroke-linejoin="round" stroke-miterlimit="10" d="M11.505,4.481
			h-0.011C9.142,7.562,5.508,5.242,4.5,4.863v10.628c0,0,1.442,3.426,7,4.983c5.558-1.558,7-4.983,7-4.983V4.863
			C17.5,5.616,13.668,7.312,11.505,4.481z"/>
		<polygon fill="none" stroke="#000000" stroke-linejoin="round" stroke-miterlimit="10" points="14.5,10.5 12.5,10.5 12.5,8.5 
			10.5,8.5 10.5,10.5 8.5,10.5 8.5,12.5 10.5,12.5 10.5,17.5 12.5,17.5 12.5,12.5 14.5,12.5 		"/>
	</g>
</g>
<g id="invisible_shape">
	<rect fill="none" width="24" height="24"/>
</g>
</svg>
