<?xml version="1.0" encoding="utf-8"?>
<!-- Generator: Adobe Illustrator 16.0.3, SVG Export Plug-In . SVG Version: 6.00 Build 0)  -->
<!DOCTYPE svg PUBLIC "-//W3C//DTD SVG 1.1//EN" "http://www.w3.org/Graphics/SVG/1.1/DTD/svg11.dtd">
<svg version="1.1" xmlns="http://www.w3.org/2000/svg" xmlns:xlink="http://www.w3.org/1999/xlink" x="0px" y="0px" width="24px"
	 height="24px" viewBox="0 0 24 24" enable-background="new 0 0 24 24" xml:space="preserve">
<g id="Outline_Icons">
	<g>
		<path fill="none" stroke="#000000" stroke-linecap="round" stroke-linejoin="round" stroke-miterlimit="10" d="M16.487,2.915
			c-2.011,0-3.804-0.934-4.979-2.395h-0.017c-1.175,1.461-2.968,2.395-4.979,2.395c-1.76,0-3.354-0.715-5.013-1.874v14.812
			c0,0,1.45,5.271,10,7.668c8.55-2.396,10-7.668,10-7.668V1.041C19.841,2.2,18.247,2.915,16.487,2.915z"/>
		<path fill="none" stroke="#000000" stroke-linecap="round" stroke-linejoin="round" stroke-miterlimit="10" d="M18.5,10.502
			c-1.711,0.568-3.796,0.881-5.933,0.964c0.081-2.137,0.385-4.232,0.933-5.964h-4c0.571,1.72,0.885,3.817,0.965,5.966
			C8.322,11.39,6.226,11.079,4.5,10.502v4c1.713-0.564,3.812-0.865,5.965-0.938c-0.08,2.133-0.391,4.219-0.965,5.938h4
			c-0.562-1.704-0.861-3.79-0.937-5.932c2.128,0.083,4.212,0.386,5.937,0.932V10.502z"/>
	</g>
</g>
<g id="invisible_shape">
	<rect fill="none" width="24" height="24"/>
</g>
</svg>
