<?xml version="1.0" encoding="utf-8"?>
<!-- Generator: Adobe Illustrator 16.0.3, SVG Export Plug-In . SVG Version: 6.00 Build 0)  -->
<!DOCTYPE svg PUBLIC "-//W3C//DTD SVG 1.1//EN" "http://www.w3.org/Graphics/SVG/1.1/DTD/svg11.dtd">
<svg version="1.1" xmlns="http://www.w3.org/2000/svg" xmlns:xlink="http://www.w3.org/1999/xlink" x="0px" y="0px" width="24px"
	 height="24px" viewBox="0 0 24 24" enable-background="new 0 0 24 24" xml:space="preserve">
<g id="Outline_Icons">
	<g>
		<g>
			<path fill="none" stroke="#000000" stroke-linecap="round" stroke-linejoin="round" stroke-miterlimit="10" d="M12.189,18.5h-1.5
				c-1.408-3.808-3.67-7.082-6.5-10c0,0,3,1,8,1s8-1,8-1c-2.83,2.918-5.092,6.192-6.5,10H12.189z"/>
			<path fill="none" stroke="#000000" stroke-linecap="round" stroke-linejoin="round" stroke-miterlimit="10" d="M22.311,7.793
				C21.725,8.379,20.189,8.5,20.189,8.5s0.121-1.535,0.707-2.121s1.377-0.744,1.768-0.354S22.896,7.207,22.311,7.793z"/>
			<path fill="none" stroke="#000000" stroke-linecap="round" stroke-linejoin="round" stroke-miterlimit="10" d="M22.311,9.207
				C21.725,8.621,20.189,8.5,20.189,8.5s0.121,1.535,0.707,2.121s1.377,0.744,1.768,0.354S22.896,9.793,22.311,9.207z"/>
			<path fill="none" stroke="#000000" stroke-linecap="round" stroke-linejoin="round" stroke-miterlimit="10" d="M2.067,7.793
				C2.653,8.379,4.189,8.5,4.189,8.5S4.067,6.965,3.482,6.379C2.896,5.793,2.104,5.635,1.714,6.025
				C1.324,6.416,1.482,7.207,2.067,7.793z"/>
			<path fill="none" stroke="#000000" stroke-linecap="round" stroke-linejoin="round" stroke-miterlimit="10" d="M2.067,9.207
				C2.653,8.621,4.189,8.5,4.189,8.5s-0.122,1.535-0.707,2.121c-0.586,0.586-1.378,0.744-1.769,0.354
				C1.324,10.584,1.482,9.793,2.067,9.207z"/>
		</g>
		
			<line fill="none" stroke="#000000" stroke-linecap="round" stroke-linejoin="round" stroke-miterlimit="10" x1="4.5" y1="8.811" x2="3.5" y2="14.311"/>
		
			<line fill="none" stroke="#000000" stroke-linecap="round" stroke-linejoin="round" stroke-miterlimit="10" x1="19.878" y1="8.811" x2="20.878" y2="14.311"/>
	</g>
</g>
<g id="invisible_shape">
	<rect fill="none" width="24" height="24"/>
</g>
</svg>
