<?xml version="1.0" encoding="utf-8"?>
<!-- Generator: Adobe Illustrator 16.0.3, SVG Export Plug-In . SVG Version: 6.00 Build 0)  -->
<!DOCTYPE svg PUBLIC "-//W3C//DTD SVG 1.1//EN" "http://www.w3.org/Graphics/SVG/1.1/DTD/svg11.dtd">
<svg version="1.1" xmlns="http://www.w3.org/2000/svg" xmlns:xlink="http://www.w3.org/1999/xlink" x="0px" y="0px" width="24px"
	 height="24px" viewBox="0 0 24 24" enable-background="new 0 0 24 24" xml:space="preserve">
<g id="Outline_Icons">
	<g>
		<path fill="none" stroke="#000000" stroke-linejoin="round" stroke-miterlimit="10" d="M23.5,5.001v16.5c0,1.104-0.896,2-2,2h-17
			c-2.209,0-4-1.791-4-4s1.791-4,4-4h2.746c1.658,0,3.145-1.023,3.736-2.573L14.25,2.751L23.5,5.001z"/>
		<path fill="none" stroke="#000000" stroke-linejoin="round" stroke-miterlimit="10" d="M12.279,8.812l5.401,1.039
			c0.813,0.156,1.6-0.376,1.757-1.189c0.156-0.813-0.377-1.6-1.19-1.756l-5.021-0.967"/>
		<path fill="none" stroke="#000000" stroke-linejoin="round" stroke-miterlimit="10" d="M10.038,14.4l5.521,1.556
			c0.802,0.206,1.619-0.278,1.824-1.081c0.206-0.803-0.278-1.619-1.08-1.824l-4.953-1.269"/>
		<line fill="none" stroke="#000000" stroke-linejoin="round" stroke-miterlimit="10" x1="1" y1="21.501" x2="23.5" y2="21.501"/>
	</g>
</g>
<g id="invisible_shape">
	<rect fill="none" width="24" height="24"/>
</g>
</svg>
