<?xml version="1.0" encoding="utf-8"?>
<!-- Generator: Adobe Illustrator 16.0.3, SVG Export Plug-In . SVG Version: 6.00 Build 0)  -->
<!DOCTYPE svg PUBLIC "-//W3C//DTD SVG 1.1//EN" "http://www.w3.org/Graphics/SVG/1.1/DTD/svg11.dtd">
<svg version="1.1" xmlns="http://www.w3.org/2000/svg" xmlns:xlink="http://www.w3.org/1999/xlink" x="0px" y="0px" width="24px"
	 height="24px" viewBox="0 0 24 24" enable-background="new 0 0 24 24" xml:space="preserve">
<g id="Outline_Icons">
	<g>
		<path fill="none" stroke="#000000" stroke-linejoin="round" stroke-miterlimit="10" d="M1.5,18v-3.999
			c0-5.799,4.698-10.5,10.498-10.5c5.797,0,10.502,4.701,10.502,10.5V18"/>
		<path fill="none" stroke="#000000" stroke-linejoin="round" stroke-miterlimit="10" d="M17.498,12.47c-3.5-1.292-7.5-1.292-11,0
			v-4c3.5-1.292,7.5-1.292,11,0V12.47z"/>
		<g>
			<g>
				<path d="M12,1.001c-0.829,0-1.5,0.672-1.5,1.5h3C13.5,1.673,12.827,1.001,12,1.001L12,1.001z"/>
			</g>
		</g>
		<path fill="none" stroke="#000000" stroke-linecap="round" stroke-linejoin="round" stroke-miterlimit="10" d="M23.5,23.501
			c-3.105-2.209-7.4-3-11.5-3c-4.101,0-8.396,0.792-11.5,3l1-5.529c3.159-1.581,6.725-2.471,10.5-2.471
			c3.772,0,7.339,0.89,10.5,2.471L23.5,23.501z"/>
	</g>
</g>
<g id="invisible_shape">
	<rect fill="none" width="24" height="24"/>
</g>
</svg>
