<?xml version="1.0" encoding="utf-8"?>
<!-- Generator: Adobe Illustrator 16.0.3, SVG Export Plug-In . SVG Version: 6.00 Build 0)  -->
<!DOCTYPE svg PUBLIC "-//W3C//DTD SVG 1.1//EN" "http://www.w3.org/Graphics/SVG/1.1/DTD/svg11.dtd">
<svg version="1.1" xmlns="http://www.w3.org/2000/svg" xmlns:xlink="http://www.w3.org/1999/xlink" x="0px" y="0px" width="24px"
	 height="24px" viewBox="0 0 24 24" enable-background="new 0 0 24 24" xml:space="preserve">
<g id="Outline_Icons">
	<g>
		<g>
			<path fill="none" stroke="#000000" stroke-linejoin="round" stroke-miterlimit="10" d="M1.407,9.884c0,0,0.169,5.521,1.604,6.238
				c1.604,0.803,5.206,0.803,5.206,0.803c1.596,0,1.419-4.041,3.783-4.041s2.188,4.041,3.783,4.041c0,0,3.416,0,5.021-0.803
				c1.435-0.717,1.604-6.238,1.604-6.238C20.407,6.706,3.407,6.706,1.407,9.884z"/>
		</g>
		<path fill="none" stroke="#000000" stroke-linecap="round" stroke-linejoin="round" stroke-miterlimit="10" d="M5.929,9.88
			c-1.013,0.229-1.77,0.559-2.043,0.992c0,0,0.028,0.93,0.186,1.85"/>
		<path fill="none" stroke="#000000" stroke-linecap="round" stroke-linejoin="round" stroke-miterlimit="10" d="M17.886,9.88
			c1.013,0.229,1.77,0.559,2.043,0.992c0,0-0.029,0.93-0.186,1.85"/>
	</g>
</g>
<g id="invisible_shape">
	<rect fill="none" width="24" height="24"/>
</g>
</svg>
