<?xml version="1.0" encoding="utf-8"?>
<!-- Generator: Adobe Illustrator 16.0.3, SVG Export Plug-In . SVG Version: 6.00 Build 0)  -->
<!DOCTYPE svg PUBLIC "-//W3C//DTD SVG 1.1//EN" "http://www.w3.org/Graphics/SVG/1.1/DTD/svg11.dtd">
<svg version="1.1" xmlns="http://www.w3.org/2000/svg" xmlns:xlink="http://www.w3.org/1999/xlink" x="0px" y="0px" width="24px"
	 height="24px" viewBox="0 0 24 24" enable-background="new 0 0 24 24" xml:space="preserve">
<g id="Outline_Icons">
	<g>
		<polyline fill="none" stroke="#000000" stroke-linejoin="round" stroke-miterlimit="10" points="15.5,20.221 15.5,23.5 5.5,23.5 
			5.5,20.221 		"/>
		<polyline fill="none" stroke="#000000" stroke-linejoin="round" stroke-miterlimit="10" points="4.5,5 8,3.5 10.5,5 13,3.5 
			16.5,5 		"/>
		<polyline fill="none" stroke="#000000" stroke-linecap="round" stroke-linejoin="round" stroke-miterlimit="10" points="4.5,9 
			8,7.5 10.5,9 13,7.5 16.5,9 		"/>
		<polyline fill="none" stroke="#000000" stroke-linejoin="round" stroke-miterlimit="10" points="4.5,13 8,11.5 10.5,13 13,11.5 
			16.5,13 19,11.5 20,12 		"/>
		<polyline fill="none" stroke="#000000" stroke-linejoin="round" stroke-miterlimit="10" points="4.5,17 8,15.5 10.5,17 13,15.5 
			16.5,17 		"/>
		<path fill="none" stroke="#000000" stroke-linecap="round" stroke-linejoin="round" stroke-miterlimit="10" d="M4.5,18.459
			c0,1.104,0.896,2.041,2,2.041h8c1.098,0,1.99-0.925,2-2.022l0.008-2.081l4.08-5.315c0.625-0.956,0.345-2.275-0.713-2.877
			c-0.816-0.464-1.857-0.241-2.503,0.44L16.5,9.5V6c0-3.037-2.963-5.5-6-5.5s-6,2.463-6,5V18.459z"/>
	</g>
</g>
<g id="invisible_shape">
	<rect fill="none" width="24" height="24"/>
</g>
</svg>
