<?xml version="1.0" encoding="utf-8"?>
<!-- Generator: Adobe Illustrator 16.0.3, SVG Export Plug-In . SVG Version: 6.00 Build 0)  -->
<!DOCTYPE svg PUBLIC "-//W3C//DTD SVG 1.1//EN" "http://www.w3.org/Graphics/SVG/1.1/DTD/svg11.dtd">
<svg version="1.1" xmlns="http://www.w3.org/2000/svg" xmlns:xlink="http://www.w3.org/1999/xlink" x="0px" y="0px" width="24px"
	 height="24px" viewBox="0 0 24 24" enable-background="new 0 0 24 24" xml:space="preserve">
<g id="Outline_Icons">
	<g>
		<path fill="none" stroke="#000000" stroke-linejoin="round" stroke-miterlimit="10" d="M7.5,1.001
			c-4.236,1.503-6.843,5.764-6.253,10.22C1.661,14.354,2,18.457,2,23.501h2.5v-8.566c0-0.792,0.642-1.434,1.434-1.434
			c0.633,0,1.191,0.415,1.373,1.021l2.674,6.5c0.617,1.5,2.078,2.479,3.699,2.479h4.82c2.209,0,4-1.791,4-4s-1.791-4-4-4h-1.91
			c-1.575,0-3.005-0.926-3.649-2.364L7.5,1.001z"/>
	</g>
</g>
<g id="invisible_shape">
	<rect fill="none" width="24" height="24"/>
</g>
</svg>
