<?xml version="1.0" encoding="utf-8"?>
<!-- Generator: Adobe Illustrator 16.0.3, SVG Export Plug-In . SVG Version: 6.00 Build 0)  -->
<!DOCTYPE svg PUBLIC "-//W3C//DTD SVG 1.1//EN" "http://www.w3.org/Graphics/SVG/1.1/DTD/svg11.dtd">
<svg version="1.1" xmlns="http://www.w3.org/2000/svg" xmlns:xlink="http://www.w3.org/1999/xlink" x="0px" y="0px" width="24px"
	 height="24px" viewBox="0 0 24 24" enable-background="new 0 0 24 24" xml:space="preserve">
<g id="Outline_Icons">
	<g>
		
			<circle fill="none" stroke="#000000" stroke-linecap="round" stroke-linejoin="round" stroke-miterlimit="10" cx="16.5" cy="6.562" r="5"/>
		<g>
			<g>
				<path d="M23.5,5.562c-0.278,0-0.5,0.225-0.5,0.5c0,0.276,0.222,0.5,0.5,0.5c0.275,0,0.5-0.224,0.5-0.5
					C24,5.786,23.775,5.562,23.5,5.562L23.5,5.562z"/>
			</g>
		</g>
		
			<line fill="none" stroke="#000000" stroke-linecap="round" stroke-linejoin="round" stroke-miterlimit="10" x1="23.5" y1="23.501" x2="23.5" y2="7.501"/>
		<path fill="none" stroke="#000000" stroke-linecap="round" stroke-linejoin="round" stroke-miterlimit="10" d="M16.688,21.517
			c-1.412,0-2.559-1.146-2.559-2.56c0-2.644-3.108-3.212-4.479-1.729c-1.368-1.482-4.479-0.914-4.479,1.729
			c0,1.414-1.146,2.56-2.559,2.56c-0.881,0-1.654-0.443-2.114-1.12c1.921,4.314,7.298,3.515,9.151,0.665
			c1.853,2.85,7.23,3.649,9.153-0.665C18.343,21.073,17.569,21.517,16.688,21.517z"/>
		<path fill="none" stroke="#000000" stroke-linecap="round" stroke-linejoin="round" stroke-miterlimit="10" d="M19.5,6.562
			c0,1.658-1.345,3-3,3"/>
	</g>
</g>
<g id="invisible_shape">
	<rect fill="none" width="24" height="24"/>
</g>
</svg>
