<?xml version="1.0" encoding="utf-8"?>
<!-- Generator: Adobe Illustrator 16.0.3, SVG Export Plug-In . SVG Version: 6.00 Build 0)  -->
<!DOCTYPE svg PUBLIC "-//W3C//DTD SVG 1.1//EN" "http://www.w3.org/Graphics/SVG/1.1/DTD/svg11.dtd">
<svg version="1.1" xmlns="http://www.w3.org/2000/svg" xmlns:xlink="http://www.w3.org/1999/xlink" x="0px" y="0px" width="24px"
	 height="24px" viewBox="0 0 24 24" enable-background="new 0 0 24 24" xml:space="preserve">
<g id="Outline_Icons">
	<g>
		<path fill="none" stroke="#000000" stroke-linejoin="round" stroke-miterlimit="10" d="M0.5,22.001c0,0.828,0.672,1.5,1.5,1.5h20
			c0.828,0,1.5-0.672,1.5-1.5s-0.672-1.5-1.5-1.5H2C1.172,20.501,0.5,21.173,0.5,22.001z"/>
		<polygon fill="none" stroke="#000000" stroke-linecap="round" stroke-linejoin="round" stroke-miterlimit="10" points="
			18.438,15.578 15.997,20.501 20.5,20.501 20.5,16.563 		"/>
		<path fill="none" stroke="#000000" stroke-linecap="round" stroke-linejoin="round" stroke-miterlimit="10" d="M11.594,20.501
			l3.234-6.585l-1.965-0.971c-0.993,0.98-2.357,1.571-3.863,1.571c-1.708,0-3.234-0.794-4.243-2.016l-2.757,4
			c1.934,0,3.5,1.567,3.5,3.5v0.5"/>
		<path fill="none" stroke="#000000" stroke-linejoin="round" stroke-miterlimit="10" d="M23.5,2.001c0-0.828-0.672-1.5-1.5-1.5H2
			c-0.828,0-1.5,0.672-1.5,1.5s0.672,1.5,1.5,1.5h20C22.828,3.501,23.5,2.829,23.5,2.001z"/>
		<polygon fill="none" stroke="#000000" stroke-linecap="round" stroke-linejoin="round" stroke-miterlimit="10" points="
			5.562,8.424 8.003,3.501 3.5,3.501 3.5,7.438 		"/>
		<path fill="none" stroke="#000000" stroke-linecap="round" stroke-linejoin="round" stroke-miterlimit="10" d="M12.406,3.501
			l-3.234,6.585l1.965,0.971c0.993-0.98,2.357-1.571,3.863-1.571c1.708,0,3.234,0.794,4.242,2.016l2.758-4
			c-1.933,0-3.5-1.567-3.5-3.5v-0.5"/>
	</g>
</g>
<g id="invisible_shape">
	<rect fill="none" width="24" height="24"/>
</g>
</svg>
