<?xml version="1.0" encoding="utf-8"?>
<!-- Generator: Adobe Illustrator 16.0.3, SVG Export Plug-In . SVG Version: 6.00 Build 0)  -->
<!DOCTYPE svg PUBLIC "-//W3C//DTD SVG 1.1//EN" "http://www.w3.org/Graphics/SVG/1.1/DTD/svg11.dtd">
<svg version="1.1" xmlns="http://www.w3.org/2000/svg" xmlns:xlink="http://www.w3.org/1999/xlink" x="0px" y="0px" width="24px"
	 height="24px" viewBox="0 0 24 24" enable-background="new 0 0 24 24" xml:space="preserve">
<g id="Outline_Icons">
	<g>
		<polyline fill="none" stroke="#000000" stroke-linecap="round" stroke-linejoin="round" stroke-miterlimit="10" points="
			6.999,4.001 5.5,4.001 0.5,9.501 3,12.501 5.5,10.001 5.5,22.501 11.499,22.501 17.5,22.501 17.5,10.001 19.999,12.501 
			22.5,9.501 17.499,4.001 15.999,4.001 		"/>
		<polygon fill="none" stroke="#000000" stroke-linecap="round" stroke-linejoin="round" stroke-miterlimit="10" points="
			11.499,5.501 8.499,2.501 14.499,2.501 		"/>
		
			<rect x="11.628" y="3.69" transform="matrix(0.7071 -0.7071 0.7071 0.7071 0.6675 11.1136)" fill="none" stroke="#000000" stroke-linecap="round" stroke-linejoin="round" stroke-miterlimit="10" width="4.243" height="2.121"/>
		
			<rect x="7.128" y="3.69" transform="matrix(-0.7071 -0.7071 0.7071 -0.7071 12.4296 14.6505)" fill="none" stroke="#000000" stroke-linecap="round" stroke-linejoin="round" stroke-miterlimit="10" width="4.243" height="2.121"/>
		
			<line fill="none" stroke="#000000" stroke-linecap="round" stroke-linejoin="round" stroke-miterlimit="10" x1="11.499" y1="22.501" x2="11.499" y2="5.501"/>
		<g>
			<g>
				<path d="M12.999,10.001c-0.277,0-0.5,0.223-0.5,0.5c0,0.276,0.223,0.5,0.5,0.5c0.275,0,0.5-0.224,0.5-0.5
					C13.499,10.224,13.274,10.001,12.999,10.001L12.999,10.001z"/>
			</g>
		</g>
		<g>
			<g>
				<path d="M12.999,12.001c-0.277,0-0.5,0.223-0.5,0.5c0,0.276,0.223,0.5,0.5,0.5c0.275,0,0.5-0.224,0.5-0.5
					C13.499,12.224,13.274,12.001,12.999,12.001L12.999,12.001z"/>
			</g>
		</g>
		<g>
			<g>
				<path d="M12.999,14.001c-0.277,0-0.5,0.223-0.5,0.5c0,0.276,0.223,0.5,0.5,0.5c0.275,0,0.5-0.224,0.5-0.5
					C13.499,14.224,13.274,14.001,12.999,14.001L12.999,14.001z"/>
			</g>
		</g>
		<g>
			<g>
				<path d="M12.999,16.001c-0.277,0-0.5,0.223-0.5,0.5c0,0.276,0.223,0.5,0.5,0.5c0.275,0,0.5-0.224,0.5-0.5
					C13.499,16.224,13.274,16.001,12.999,16.001L12.999,16.001z"/>
			</g>
		</g>
		<g>
			<g>
				<path d="M12.999,18.001c-0.277,0-0.5,0.223-0.5,0.5c0,0.276,0.223,0.5,0.5,0.5c0.275,0,0.5-0.224,0.5-0.5
					C13.499,18.224,13.274,18.001,12.999,18.001L12.999,18.001z"/>
			</g>
		</g>
	</g>
</g>
<g id="invisible_shape">
	<rect fill="none" width="24" height="24"/>
</g>
</svg>
