<?xml version="1.0" encoding="utf-8"?>
<!-- Generator: Adobe Illustrator 16.0.3, SVG Export Plug-In . SVG Version: 6.00 Build 0)  -->
<!DOCTYPE svg PUBLIC "-//W3C//DTD SVG 1.1//EN" "http://www.w3.org/Graphics/SVG/1.1/DTD/svg11.dtd">
<svg version="1.1" xmlns="http://www.w3.org/2000/svg" xmlns:xlink="http://www.w3.org/1999/xlink" x="0px" y="0px" width="24px"
	 height="24px" viewBox="0 0 24 24" enable-background="new 0 0 24 24" xml:space="preserve">
<g id="Outline_Icons">
	<g>
		<g>
			<path fill="none" stroke="#000000" stroke-linecap="round" stroke-linejoin="round" stroke-miterlimit="10" d="M7.999,3.5
				L5.95,4.086C5.092,4.331,4.5,5.115,4.5,6.009V20.5c0,1.104,0.896,2,2,2h6h6c1.104,0,2-0.896,2-2V6.009
				c0-0.894-0.592-1.678-1.451-1.923L16.999,3.5"/>
			<path fill="none" stroke="#000000" stroke-linecap="round" stroke-linejoin="round" stroke-miterlimit="10" d="M12.499,5l-3-3
				c0,0,0.501-1.5,3.001-1.5S15.499,2,15.499,2L12.499,5z"/>
			
				<rect x="12.628" y="3.189" transform="matrix(0.7071 -0.7071 0.7071 0.7071 1.3147 11.6739)" fill="none" stroke="#000000" stroke-linecap="round" stroke-linejoin="round" stroke-miterlimit="10" width="4.243" height="2.121"/>
			
				<rect x="8.128" y="3.189" transform="matrix(-0.7071 -0.7071 0.7071 -0.7071 14.491 14.5024)" fill="none" stroke="#000000" stroke-linecap="round" stroke-linejoin="round" stroke-miterlimit="10" width="4.243" height="2.121"/>
			
				<line fill="none" stroke="#000000" stroke-linecap="round" stroke-linejoin="round" stroke-miterlimit="10" x1="12.5" y1="22.5" x2="12.5" y2="5"/>
		</g>
		<polygon fill="none" stroke="#000000" stroke-linecap="round" stroke-linejoin="round" stroke-miterlimit="10" points="14.5,10 
			18.5,10 18.5,13 16.5,14 14.5,13 		"/>
	</g>
</g>
<g id="invisible_shape">
	<rect fill="none" width="24" height="24"/>
</g>
</svg>
