<?xml version="1.0" encoding="utf-8"?>
<!-- Generator: Adobe Illustrator 16.0.3, SVG Export Plug-In . SVG Version: 6.00 Build 0)  -->
<!DOCTYPE svg PUBLIC "-//W3C//DTD SVG 1.1//EN" "http://www.w3.org/Graphics/SVG/1.1/DTD/svg11.dtd">
<svg version="1.1" xmlns="http://www.w3.org/2000/svg" xmlns:xlink="http://www.w3.org/1999/xlink" x="0px" y="0px" width="24px"
	 height="24px" viewBox="0 0 24 24" enable-background="new 0 0 24 24" xml:space="preserve">
<g id="Outline_Icons">
	<g>
		<path fill="none" stroke="#000000" stroke-linejoin="round" stroke-miterlimit="10" d="M13.5,6.284
			c0-2.642,2.142-4.783,4.783-4.783h0.221c1.305,0,2.553,0.533,3.455,1.476c0.902,0.941,1.381,2.212,1.324,3.516l-0.592,12.61
			c-0.107,2.46-2.132,4.398-4.594,4.398c-2.539,0-4.598-2.059-4.598-4.598V6.284z"/>
		<line fill="none" stroke="#000000" stroke-linejoin="round" stroke-miterlimit="10" x1="19.362" y1="7.625" x2="23" y2="12.001"/>
		
			<line fill="none" stroke="#000000" stroke-linejoin="round" stroke-miterlimit="10" x1="13.5" y1="12.104" x2="16.707" y2="7.758"/>
		<circle fill="none" stroke="#000000" stroke-linejoin="round" stroke-miterlimit="10" cx="18" cy="7.001" r="1.5"/>
		<path fill="none" stroke="#000000" stroke-linejoin="round" stroke-miterlimit="10" d="M10.5,6.284
			c0-2.642-2.225-4.783-4.866-4.783H5.412c-1.305,0-2.553,0.533-3.455,1.476c-0.902,0.941-1.38,2.212-1.323,3.516l0.592,12.61
			c0.106,2.46,2.173,4.398,4.635,4.398c2.539,0,4.64-2.059,4.64-4.598V6.284z"/>
		
			<line fill="none" stroke="#000000" stroke-linejoin="round" stroke-miterlimit="10" x1="4.555" y1="7.628" x2="0.917" y2="12.001"/>
		<line fill="none" stroke="#000000" stroke-linejoin="round" stroke-miterlimit="10" x1="10.5" y1="12.204" x2="7.22" y2="7.742"/>
		<circle fill="none" stroke="#000000" stroke-linejoin="round" stroke-miterlimit="10" cx="5.917" cy="7.001" r="1.5"/>
	</g>
</g>
<g id="invisible_shape">
	<rect fill="none" width="24" height="24"/>
</g>
</svg>
