<?xml version="1.0" encoding="utf-8"?>
<!-- Generator: Adobe Illustrator 16.0.3, SVG Export Plug-In . SVG Version: 6.00 Build 0)  -->
<!DOCTYPE svg PUBLIC "-//W3C//DTD SVG 1.1//EN" "http://www.w3.org/Graphics/SVG/1.1/DTD/svg11.dtd">
<svg version="1.1" xmlns="http://www.w3.org/2000/svg" xmlns:xlink="http://www.w3.org/1999/xlink" x="0px" y="0px" width="24px"
	 height="24px" viewBox="0 0 24 24" enable-background="new 0 0 24 24" xml:space="preserve">
<g id="Outline_Icons">
	<g>
		<path fill="none" stroke="#000000" stroke-linecap="round" stroke-linejoin="round" stroke-miterlimit="10" d="M9.5,12.501
			l13.336,4.764c0.397,0.142,0.664,0.519,0.664,0.941v2.295h-23v-7c0-0.552,0.447-1,1-1h1c0,0.829,1.756,1.5,3.5,1.5
			C8.209,14.001,9.5,13.33,9.5,12.501z"/>
		<line fill="none" stroke="#000000" stroke-linejoin="round" stroke-miterlimit="10" x1="0.5" y1="18.501" x2="23.5" y2="18.501"/>
		
			<line fill="none" stroke="#000000" stroke-linecap="round" stroke-linejoin="round" stroke-miterlimit="10" x1="12.075" y1="13.421" x2="11" y2="14.501"/>
		
			<line fill="none" stroke="#000000" stroke-linecap="round" stroke-linejoin="round" stroke-miterlimit="10" x1="13.92" y1="14.08" x2="13" y2="15.001"/>
		<path fill="none" stroke="#000000" stroke-linejoin="round" stroke-miterlimit="10" d="M17.5,15.358c0,0.553-0.448,1.143-1,1.143
			h-3c-0.829,0-1.5,0.672-1.5,1.5v0.5"/>
		<path fill="none" stroke="#000000" stroke-linecap="round" stroke-linejoin="round" stroke-miterlimit="10" d="M3.5,18.501
			c0-1.656-1.344-3-3-3"/>
		<path fill="none" stroke="#000000" stroke-linecap="round" stroke-linejoin="round" stroke-miterlimit="10" d="M14.5,11.501
			L1.163,6.737C0.765,6.596,0.5,6.219,0.5,5.797V3.501h23v7c0,0.553-0.448,1-1,1h-1c0-0.828-1.758-1.5-3.5-1.5
			C15.79,10.001,14.5,10.673,14.5,11.501z"/>
		<line fill="none" stroke="#000000" stroke-linejoin="round" stroke-miterlimit="10" x1="23.5" y1="5.501" x2="0.5" y2="5.501"/>
		
			<line fill="none" stroke="#000000" stroke-linecap="round" stroke-linejoin="round" stroke-miterlimit="10" x1="11.924" y1="10.581" x2="13" y2="9.501"/>
		
			<line fill="none" stroke="#000000" stroke-linecap="round" stroke-linejoin="round" stroke-miterlimit="10" x1="10.078" y1="9.922" x2="11" y2="9.001"/>
		<path fill="none" stroke="#000000" stroke-linejoin="round" stroke-miterlimit="10" d="M6.5,8.644c0-0.552,0.447-1.143,1-1.143h3
			c0.827,0,1.5-0.671,1.5-1.5v-0.5"/>
		<path fill="none" stroke="#000000" stroke-linecap="round" stroke-linejoin="round" stroke-miterlimit="10" d="M20.5,5.501
			c0,1.657,1.342,3,3,3"/>
	</g>
</g>
<g id="invisible_shape">
	<rect fill="none" width="24" height="24"/>
</g>
</svg>
