<?xml version="1.0" encoding="utf-8"?>
<!-- Generator: Adobe Illustrator 16.0.3, SVG Export Plug-In . SVG Version: 6.00 Build 0)  -->
<!DOCTYPE svg PUBLIC "-//W3C//DTD SVG 1.1//EN" "http://www.w3.org/Graphics/SVG/1.1/DTD/svg11.dtd">
<svg version="1.1" xmlns="http://www.w3.org/2000/svg" xmlns:xlink="http://www.w3.org/1999/xlink" x="0px" y="0px" width="24px"
	 height="24px" viewBox="0 0 24 24" enable-background="new 0 0 24 24" xml:space="preserve">
<g id="Outline_Icons">
	<g>
		<path fill="none" stroke="#000000" stroke-linejoin="round" stroke-miterlimit="10" d="M19.5,5.501c0,1.104-0.896,2-2,2h-7
			c-1.104,0-2-0.896-2-2v-2c0-1.104,0.896-2,2-2h7c1.104,0,2,0.896,2,2V5.501z"/>
		<path fill="none" stroke="#000000" stroke-linejoin="round" stroke-miterlimit="10" d="M10.5,14.202l-4.004,1.539
			c-1.817,0.658-2.633,2.664-1.975,4.482c0.516,1.424,1.922,2.31,3.354,2.31c0.396,0,0.829-0.067,1.223-0.21l6.327-2.375
			c1.386-0.501,2.075-1.817,2.075-3.291V7.501h-7V14.202z"/>
		<path fill="none" stroke="#000000" stroke-linejoin="round" stroke-miterlimit="10" d="M13.536,20.658
			C13.195,20.07,13,19.387,13,18.657c0-2.209,1.791-4,4-4c0.17,0,0.338,0.011,0.503,0.031"/>
		<path fill="none" stroke="#000000" stroke-linejoin="round" stroke-miterlimit="10" d="M6.413,15.723
			C7.977,16.805,9,18.611,9,20.657c0,0.618-0.094,1.214-0.267,1.774"/>
	</g>
</g>
<g id="invisible_shape">
	<rect fill="none" width="24" height="24"/>
</g>
</svg>
