<?xml version="1.0" encoding="utf-8"?>
<!-- Generator: Adobe Illustrator 16.0.3, SVG Export Plug-In . SVG Version: 6.00 Build 0)  -->
<!DOCTYPE svg PUBLIC "-//W3C//DTD SVG 1.1//EN" "http://www.w3.org/Graphics/SVG/1.1/DTD/svg11.dtd">
<svg version="1.1" xmlns="http://www.w3.org/2000/svg" xmlns:xlink="http://www.w3.org/1999/xlink" x="0px" y="0px" width="24px"
	 height="24px" viewBox="0 0 24 24" enable-background="new 0 0 24 24" xml:space="preserve">
<g id="Outline_Icons">
	<g>
		<path fill="none" stroke="#000000" stroke-linecap="round" stroke-linejoin="round" stroke-miterlimit="10" d="M11.5,11.001
			c-1.938-2.824-4-6.5-4-6.5l1.063-1h5.833l1.088,1C15.484,4.501,13.332,7.796,11.5,11.001z"/>
		<g>
			<path d="M13.5,15.001c-0.276,0-0.5,0.224-0.5,0.5s0.224,0.5,0.5,0.5c0.275,0,0.5-0.224,0.5-0.5S13.775,15.001,13.5,15.001
				L13.5,15.001z"/>
		</g>
		<g>
			<path d="M13.5,17.001c-0.276,0-0.5,0.224-0.5,0.5s0.224,0.5,0.5,0.5c0.275,0,0.5-0.224,0.5-0.5S13.775,17.001,13.5,17.001
				L13.5,17.001z"/>
		</g>
		<g>
			<path d="M9.5,15.001c-0.276,0-0.5,0.224-0.5,0.5s0.224,0.5,0.5,0.5c0.275,0,0.5-0.224,0.5-0.5S9.775,15.001,9.5,15.001
				L9.5,15.001z"/>
		</g>
		<g>
			<path d="M9.5,17.001c-0.276,0-0.5,0.224-0.5,0.5s0.224,0.5,0.5,0.5c0.275,0,0.5-0.224,0.5-0.5S9.775,17.001,9.5,17.001
				L9.5,17.001z"/>
		</g>
		
			<line fill="none" stroke="#000000" stroke-linecap="round" stroke-linejoin="round" stroke-miterlimit="10" x1="11.5" y1="17.501" x2="11.5" y2="11.001"/>
		<path fill="none" stroke="#000000" stroke-linecap="round" stroke-linejoin="round" stroke-miterlimit="10" d="M7.532,4.501
			C6.311,4.501,3,6.001,3,6.001l-2.5,11.5h3l2.334-7.458c0.033-0.297,0.283-0.521,0.581-0.521C6.738,9.521,7,9.784,7,10.107
			L5.5,21.501h4.562c0.012-0.03,1.438-4,1.438-4l1.521,4H17.5l-1.447-11.448c0-0.293,0.237-0.531,0.531-0.531
			c0.268,0,0.493,0.2,0.527,0.466l2.389,7.514h3L20,6.001c0,0-3.535-1.5-4.578-1.5"/>
	</g>
</g>
<g id="invisible_shape">
	<rect fill="none" width="24" height="24"/>
</g>
</svg>
