<?xml version="1.0" encoding="utf-8"?>
<!-- Generator: Adobe Illustrator 16.0.3, SVG Export Plug-In . SVG Version: 6.00 Build 0)  -->
<!DOCTYPE svg PUBLIC "-//W3C//DTD SVG 1.1//EN" "http://www.w3.org/Graphics/SVG/1.1/DTD/svg11.dtd">
<svg version="1.1" xmlns="http://www.w3.org/2000/svg" xmlns:xlink="http://www.w3.org/1999/xlink" x="0px" y="0px" width="24px"
	 height="24px" viewBox="0 0 24 24" enable-background="new 0 0 24 24" xml:space="preserve">
<g id="Outline_Icons">
	<g>
		<path fill="none" stroke="#000000" stroke-linejoin="round" stroke-miterlimit="10" d="M17.484,6.485
			c0,4.021-10.965,4.021-10.965,0l0,0c-5.488,5-0.732,6.839-0.732,10.76c0,2.302-0.674,3.954-1.232,5.016
			c-0.127,0.243-0.119,0.573,0.023,0.809c0.141,0.235,0.396,0.416,0.67,0.416h13.625c0.275,0,0.529-0.236,0.672-0.471
			c0.141-0.235,0.15-0.573,0.023-0.816c-0.559-1.062-1.234-2.628-1.234-4.93C18.334,13.348,22.973,11.485,17.484,6.485L17.484,6.485
			z"/>
		
			<line fill="none" stroke="#000000" stroke-linecap="round" stroke-linejoin="round" stroke-miterlimit="10" x1="6.5" y1="6.485" x2="6.5" y2="0.501"/>
		
			<line fill="none" stroke="#000000" stroke-linecap="round" stroke-linejoin="round" stroke-miterlimit="10" x1="17.5" y1="6.485" x2="17.5" y2="0.501"/>
	</g>
</g>
<g id="invisible_shape">
	<rect fill="none" width="24" height="24"/>
</g>
</svg>
