<?xml version="1.0" encoding="utf-8"?>
<!-- Generator: Adobe Illustrator 19.2.1, SVG Export Plug-In . SVG Version: 6.00 Build 0)  -->
<svg version="1.1" xmlns="http://www.w3.org/2000/svg" xmlns:xlink="http://www.w3.org/1999/xlink" x="0px" y="0px" width="24px"
	 height="24px" viewBox="0 0 24 24" enable-background="new 0 0 24 24" xml:space="preserve">
<g id="Filled_Icons_1_">
	<g id="Filled_Icons">
		<path d="M23.5-0.002h-23c-0.276,0-0.5,0.225-0.5,0.5v23c0,0.277,0.224,0.5,0.5,0.5h23c0.276,0,0.5-0.223,0.5-0.5v-23
			C24,0.223,23.776-0.002,23.5-0.002z M3.145,6.647c0.195-0.195,0.512-0.196,0.707-0.001L5.5,8.293l4.646-4.647
			c0.196-0.196,0.512-0.196,0.708-0.001c0.195,0.195,0.195,0.512,0,0.708l-5,5c-0.195,0.195-0.512,0.195-0.707,0l-2.001-2
			C2.95,7.159,2.95,6.842,3.145,6.647z M10.854,13.854l-5,5c-0.195,0.194-0.512,0.195-0.707,0l-2.001-2
			c-0.195-0.195-0.195-0.512,0-0.707c0.195-0.196,0.512-0.197,0.707-0.001l1.647,1.647l4.647-4.646
			c0.196-0.197,0.512-0.197,0.707-0.001C11.05,13.342,11.05,13.659,10.854,13.854z M20.5,17.999h-8c-0.276,0-0.5-0.223-0.5-0.5
			c0-0.275,0.224-0.5,0.5-0.5h8c0.276,0,0.5,0.225,0.5,0.5C21,17.775,20.776,17.999,20.5,17.999z M20.5,8.998h-8
			c-0.276,0-0.5-0.223-0.5-0.5c0-0.275,0.224-0.5,0.5-0.5h8c0.276,0,0.5,0.225,0.5,0.5C21,8.775,20.776,8.998,20.5,8.998z"/>
	</g>
	<g id="New_icons">
	</g>
</g>
<g id="Invisible_Shape">
	<rect fill="none" width="24" height="24"/>
</g>
</svg>
