<?xml version="1.0" encoding="utf-8"?>
<!-- Generator: Adobe Illustrator 19.2.1, SVG Export Plug-In . SVG Version: 6.00 Build 0)  -->
<svg version="1.1" xmlns="http://www.w3.org/2000/svg" xmlns:xlink="http://www.w3.org/1999/xlink" x="0px" y="0px" width="24px"
	 height="24px" viewBox="0 0 24 24" enable-background="new 0 0 24 24" xml:space="preserve">
<g id="Filled_Icons_1_">
	<g id="Filled_Icons">
		<path d="M23.5,0h-23C0.224,0,0,0.224,0,0.5v23C0,23.776,0.224,24,0.5,24h23c0.276,0,0.5-0.224,0.5-0.5v-23
			C24,0.224,23.776,0,23.5,0z M17.341,8.866L9.84,15.867c-0.197,0.182-0.503,0.182-0.695-0.013l-2.498-2.5
			c-0.195-0.195-0.195-0.512,0-0.707c0.195-0.196,0.512-0.196,0.707,0l2.158,2.158l7.147-6.67c0.201-0.188,0.518-0.178,0.706,0.024
			C17.554,8.36,17.544,8.677,17.341,8.866z"/>
	</g>
	<g id="New_icons">
	</g>
</g>
<g id="Invisible_Shape">
	<rect fill="none" width="24" height="24"/>
</g>
</svg>
