<?xml version="1.0" encoding="utf-8"?>
<!-- Generator: Adobe Illustrator 19.2.1, SVG Export Plug-In . SVG Version: 6.00 Build 0)  -->
<svg version="1.1" xmlns="http://www.w3.org/2000/svg" xmlns:xlink="http://www.w3.org/1999/xlink" x="0px" y="0px" width="24px"
	 height="24px" viewBox="0 0 24 24" enable-background="new 0 0 24 24" xml:space="preserve">
<g id="Filled_Icons_1_">
	<g id="Filled_Icons">
		<path d="M21.5,0h-19C2.224,0,2,0.224,2,0.5v7.265c0,6.81,3.743,13.009,9.768,16.177C11.84,23.981,11.92,24,12,24
			s0.16-0.019,0.233-0.058C18.257,20.771,22,14.573,22,7.765V0.5C22,0.224,21.776,0,21.5,0z M17.841,7.365l-7.501,7
			c-0.197,0.182-0.503,0.182-0.695-0.013l-2.498-2.5c-0.195-0.195-0.195-0.511,0-0.707c0.195-0.195,0.512-0.195,0.707,0l2.158,2.158
			l7.147-6.67c0.201-0.188,0.518-0.178,0.706,0.024C18.054,6.858,18.043,7.175,17.841,7.365z"/>
	</g>
	<g id="New_icons">
	</g>
</g>
<g id="Invisible_Shape">
	<rect fill="none" width="24" height="24"/>
</g>
</svg>
