<?xml version="1.0" encoding="utf-8"?>
<!-- Generator: Adobe Illustrator 19.2.1, SVG Export Plug-In . SVG Version: 6.00 Build 0)  -->
<svg version="1.1" xmlns="http://www.w3.org/2000/svg" xmlns:xlink="http://www.w3.org/1999/xlink" x="0px" y="0px" width="24px"
	 height="24px" viewBox="0 0 24 24" enable-background="new 0 0 24 24" xml:space="preserve">
<g id="Filled_Icons_1_">
	<g id="Filled_Icons">
		<g>
			<path d="M0.153,14.518c-0.194-0.197-0.196-0.513,0-0.708l2.749-2.752c0.195-0.195,0.511-0.194,0.707,0.001l1.168,1.164
				c0.192,0.194,0.195,0.511-0.001,0.706c-0.196,0.193-0.513,0.194-0.707-0.001l-0.813-0.811l-2.042,2.044l4.795,4.794l0.743-0.748
				c0.197-0.193,0.513-0.195,0.709,0.002c0.194,0.195,0.194,0.513-0.003,0.705l-1.096,1.101c-0.195,0.197-0.512,0.196-0.706,0
				L0.153,14.518z"/>
			<path d="M23.845,6.735l-2.75-2.751c-0.188-0.187-0.52-0.187-0.707,0l-9.468,9.468l-2.396-2.397c-0.188-0.187-0.52-0.187-0.707,0
				l-2.75,2.75c-0.195,0.195-0.195,0.512,0,0.707l5.5,5.5c0.194,0.195,0.512,0.197,0.707,0L23.845,7.442
				C24.04,7.247,24.04,6.931,23.845,6.735z"/>
			<path d="M17.353,5.154l-1.168-1.168c-0.196-0.195-0.512-0.195-0.707,0L9.394,10.07c-0.195,0.195-0.196,0.512,0,0.707
				c0.195,0.195,0.512,0.195,0.707,0l5.731-5.731l0.814,0.814c0.195,0.195,0.512,0.195,0.708,0
				C17.548,5.667,17.548,5.349,17.353,5.154z"/>
		</g>
	</g>
	<g id="New_icons">
	</g>
</g>
<g id="Invisible_Shape">
	<rect fill="none" width="24" height="24"/>
</g>
</svg>
