<?xml version="1.0" encoding="utf-8"?>
<!-- Generator: Adobe Illustrator 19.2.1, SVG Export Plug-In . SVG Version: 6.00 Build 0)  -->
<svg version="1.1" xmlns="http://www.w3.org/2000/svg" xmlns:xlink="http://www.w3.org/1999/xlink" x="0px" y="0px" width="24px"
	 height="24px" viewBox="0 0 24 24" enable-background="new 0 0 24 24" xml:space="preserve">
<g id="Filled_Icons_1_">
	<g id="Filled_Icons">
		<g>
			<path d="M23.623,0.217c-0.433-0.344-1.061-0.271-1.405,0.161L9.415,16.5l-4.207-4.207c-0.391-0.391-1.024-0.391-1.414,0
				c-0.391,0.392-0.391,1.025,0,1.413l5,5c0.202,0.202,0.477,0.308,0.762,0.292c0.284-0.016,0.552-0.155,0.728-0.377l13.5-17
				C24.127,1.19,24.056,0.561,23.623,0.217z"/>
			<path d="M18.551,11.019c-0.538,0.123-0.875,0.659-0.752,1.197c0.134,0.585,0.202,1.186,0.202,1.783c0,4.411-3.589,8-8,8
				c-4.411,0-8-3.589-8-8s3.589-8,8-8c1.247,0,2.444,0.281,3.555,0.832c0.494,0.247,1.095,0.044,1.341-0.451
				c0.246-0.494,0.044-1.095-0.451-1.34C13.056,4.35,11.561,4,10.002,4c-5.514,0-10,4.486-10,10c0,5.514,4.486,10,10,10
				c5.514,0,10-4.486,10-10c0-0.748-0.085-1.498-0.252-2.229C19.626,11.233,19.091,10.894,18.551,11.019z"/>
		</g>
	</g>
	<g id="New_icons">
	</g>
</g>
<g id="Invisible_Shape">
	<rect fill="none" width="24" height="24"/>
</g>
</svg>
