<?xml version="1.0" encoding="utf-8"?>
<!-- Generator: Adobe Illustrator 19.2.1, SVG Export Plug-In . SVG Version: 6.00 Build 0)  -->
<svg version="1.1" xmlns="http://www.w3.org/2000/svg" xmlns:xlink="http://www.w3.org/1999/xlink" x="0px" y="0px" width="24px"
	 height="24px" viewBox="0 0 24 24" enable-background="new 0 0 24 24" xml:space="preserve">
<g id="Filled_Icons_1_">
	<g id="Filled_Icons">
		<path d="M21.5-0.002h-19c-0.276,0-0.5,0.225-0.5,0.5v7.266c0,6.809,3.743,13.007,9.767,16.178
			c0.073,0.038,0.153,0.057,0.233,0.057s0.16-0.019,0.233-0.057C18.257,20.771,22,14.573,22,7.764V0.498
			C22,0.223,21.776-0.002,21.5-0.002z M16.854,13.646c0.195,0.195,0.195,0.512,0,0.707c-0.195,0.196-0.512,0.196-0.707,0L12,10.206
			l-4.147,4.147c-0.195,0.196-0.512,0.196-0.707,0c-0.195-0.195-0.195-0.512,0-0.707l4.147-4.147L7.147,5.352
			c-0.195-0.195-0.195-0.512,0-0.707c0.195-0.195,0.512-0.195,0.707,0L12,8.792l4.146-4.146c0.195-0.195,0.512-0.195,0.707,0
			c0.195,0.195,0.195,0.512,0,0.707l-4.147,4.146L16.854,13.646z"/>
	</g>
	<g id="New_icons">
	</g>
</g>
<g id="Invisible_Shape">
	<rect fill="none" width="24" height="24"/>
</g>
</svg>
