<?xml version="1.0" encoding="utf-8"?>
<!-- Generator: Adobe Illustrator 16.0.3, SVG Export Plug-In . SVG Version: 6.00 Build 0)  -->
<!DOCTYPE svg PUBLIC "-//W3C//DTD SVG 1.1//EN" "http://www.w3.org/Graphics/SVG/1.1/DTD/svg11.dtd">
<svg version="1.1" xmlns="http://www.w3.org/2000/svg" xmlns:xlink="http://www.w3.org/1999/xlink" x="0px" y="0px" width="24px"
	 height="24px" viewBox="0 0 24 24" enable-background="new 0 0 24 24" xml:space="preserve">
<g id="Outline_Icons">
	<g>
		<path fill="none" stroke="#000000" stroke-linejoin="round" stroke-miterlimit="10" d="M0.5,2.5c0-1.104,0.896-2,2-2h19
			c1.104,0,2,0.896,2,2v21h-2.484l-1.031-3H4l-1,3H0.5V2.5z"/>
		<rect x="2.5" y="2.5" fill="none" stroke="#000000" stroke-linejoin="round" stroke-miterlimit="10" width="19" height="7"/>
		<rect x="2.5" y="11.5" fill="none" stroke="#000000" stroke-linejoin="round" stroke-miterlimit="10" width="19" height="7"/>
		<rect x="4.5" y="4.5" fill="none" stroke="#000000" stroke-linejoin="round" stroke-miterlimit="10" width="3" height="5"/>
		<rect x="7.5" y="4.5" fill="none" stroke="#000000" stroke-linejoin="round" stroke-miterlimit="10" width="3" height="5"/>
		<rect x="10.5" y="4.5" fill="none" stroke="#000000" stroke-linejoin="round" stroke-miterlimit="10" width="3" height="5"/>
		<rect x="10.5" y="13.5" fill="none" stroke="#000000" stroke-linejoin="round" stroke-miterlimit="10" width="3" height="5"/>
		<rect x="13.5" y="13.5" fill="none" stroke="#000000" stroke-linejoin="round" stroke-miterlimit="10" width="3" height="5"/>
		<rect x="16.5" y="13.5" fill="none" stroke="#000000" stroke-linejoin="round" stroke-miterlimit="10" width="3" height="5"/>
		
			<rect x="14.593" y="4.417" transform="matrix(0.9373 -0.3485 0.3485 0.9373 -1.358 6.0103)" fill="none" stroke="#000000" stroke-linejoin="round" stroke-miterlimit="10" width="2.862" height="4.724"/>
	</g>
</g>
<g id="Invisible_Shape">
	<rect fill="none" width="24" height="24"/>
</g>
</svg>
