<?xml version="1.0" encoding="utf-8"?>
<!-- Generator: Adobe Illustrator 16.0.3, SVG Export Plug-In . SVG Version: 6.00 Build 0)  -->
<!DOCTYPE svg PUBLIC "-//W3C//DTD SVG 1.1//EN" "http://www.w3.org/Graphics/SVG/1.1/DTD/svg11.dtd">
<svg version="1.1" xmlns="http://www.w3.org/2000/svg" xmlns:xlink="http://www.w3.org/1999/xlink" x="0px" y="0px" width="24px"
	 height="24px" viewBox="0 0 24 24" enable-background="new 0 0 24 24" xml:space="preserve">
<g id="Outline_Icons">
	<g>
		<path fill="none" stroke="#000000" stroke-linejoin="round" stroke-miterlimit="10" d="M23.5,23.5l-3.5-12H4l-3.5,12h6V22
			c0-0.829,0.672-1.5,1.5-1.5s1.5,0.671,1.5,1.5v1.5h5V22c0-0.829,0.672-1.5,1.5-1.5s1.5,0.671,1.5,1.5v1.5H23.5z"/>
		<path fill="none" stroke="#000000" stroke-linejoin="round" stroke-miterlimit="10" d="M16.5,20.578l-1.93-13.59
			C16.021,6.375,17,5.272,17,4c0-1.933-2.238-3.5-5-3.5S7,2.067,7,4c0,1.272,0.979,2.375,2.43,2.988L7.5,20.578"/>
	</g>
</g>
<g id="Invisible_Shape">
	<rect fill="none" width="24" height="24"/>
</g>
</svg>
