<?xml version="1.0" encoding="utf-8"?>
<!-- Generator: Adobe Illustrator 16.0.3, SVG Export Plug-In . SVG Version: 6.00 Build 0)  -->
<!DOCTYPE svg PUBLIC "-//W3C//DTD SVG 1.1//EN" "http://www.w3.org/Graphics/SVG/1.1/DTD/svg11.dtd">
<svg version="1.1" xmlns="http://www.w3.org/2000/svg" xmlns:xlink="http://www.w3.org/1999/xlink" x="0px" y="0px" width="24px"
	 height="24px" viewBox="0 0 24 24" enable-background="new 0 0 24 24" xml:space="preserve">
<g id="Outline_Icons_1_">
	<g id="Outline_Icons">
	</g>
	<g id="New_icons_1_">
		<g>
			<path fill="none" stroke="#000000" stroke-linejoin="round" stroke-miterlimit="10" d="M20.064,8.406
				c0-5.031-4.751-7.906-9.063-7.906c-5.359,0-9.5,4.203-9.5,9.562c0,3.043,1,5.898,4,7.678v5.76h10v-3.477
				c2,0.011,3.018-0.134,3.719-0.836c0.898-0.898,0.812-4.688,0.812-4.688s0.854,0.032,1.498,0.006
				c0.225-0.01,0.447-0.123,0.575-0.307c0.129-0.184,0.088-0.406,0.104-0.63C22.325,11.963,20.064,9.207,20.064,8.406z"/>
			<polygon fill="none" stroke="#000000" stroke-linejoin="round" stroke-miterlimit="10" points="11.007,4 12.5,7.498 16,7.498 
				13,9.996 14.5,13.998 11,11.501 7.5,13.998 9,9.996 6,7.498 9.5,7.498 			"/>
		</g>
	</g>
</g>
<g id="Invisible_Shape">
	<rect fill="none" width="24" height="24"/>
</g>
</svg>
