<?xml version="1.0" encoding="utf-8"?>
<!-- Generator: Adobe Illustrator 16.0.3, SVG Export Plug-In . SVG Version: 6.00 Build 0)  -->
<!DOCTYPE svg PUBLIC "-//W3C//DTD SVG 1.1//EN" "http://www.w3.org/Graphics/SVG/1.1/DTD/svg11.dtd">
<svg version="1.1" xmlns="http://www.w3.org/2000/svg" xmlns:xlink="http://www.w3.org/1999/xlink" x="0px" y="0px" width="24px"
	 height="24px" viewBox="0 0 24 24" enable-background="new 0 0 24 24" xml:space="preserve">
<g id="Outline_Icons_1_">
	<g id="Outline_Icons">
	</g>
	<g id="New_icons_1_">
		<g>
			<path fill="none" stroke="#000000" stroke-linejoin="round" stroke-miterlimit="10" d="M2.5,15.987c0,0,0,2.5,0,3.5
				S3.5,21.5,8,21.5h3c4.5,0,5.5-1.013,5.5-2.013s0-3.5,0-3.5s0-3.5,0-4.5S15.5,9.5,11,9.5H8c-4.5,0-5.5,0.987-5.5,1.987
				S2.5,15.987,2.5,15.987z"/>
			<path fill="none" stroke="#000000" stroke-linecap="round" stroke-linejoin="round" stroke-miterlimit="10" d="M16,7.5V7
				c-0.736-1.481-2.234-2.5-4-2.5c-1.768,0-3.264,1.019-4,2.5v0.5"/>
			
				<line fill="none" stroke="#000000" stroke-linecap="round" stroke-linejoin="round" stroke-miterlimit="10" x1="9.993" y1="4.981" x2="6.5" y2="1.487"/>
			
				<line fill="none" stroke="#000000" stroke-linecap="round" stroke-linejoin="round" stroke-miterlimit="10" x1="14.007" y1="4.981" x2="17.5" y2="1.487"/>
			<path fill="none" stroke="#000000" stroke-linejoin="round" stroke-miterlimit="10" d="M23.5,20.5c0,1.65-1.35,3-3,3h-17
				c-1.65,0-3-1.35-3-3V10.49c0-1.65,1.35-3,3-3h17c1.65,0,3,1.35,3,3V20.5z"/>
			<path fill="none" stroke="#000000" stroke-linejoin="round" stroke-miterlimit="10" d="M21.5,11.987c0,0.829-0.671,1.5-1.5,1.5
				l0,0c-0.829,0-1.5-0.671-1.5-1.5l0,0c0-0.828,0.671-1.5,1.5-1.5l0,0C20.829,10.487,21.5,11.159,21.5,11.987L21.5,11.987z"/>
			<path fill="none" stroke="#000000" stroke-linejoin="round" stroke-miterlimit="10" d="M21.5,16.987c0,0.829-0.671,1.5-1.5,1.5
				l0,0c-0.829,0-1.5-0.671-1.5-1.5l0,0c0-0.828,0.671-1.5,1.5-1.5l0,0C20.829,15.487,21.5,16.159,21.5,16.987L21.5,16.987z"/>
			<path fill="none" stroke="#000000" stroke-linecap="round" stroke-linejoin="round" stroke-miterlimit="10" d="M13.5,19.5h-8
				c0-2.209,1.79-4,4-4S13.5,17.291,13.5,19.5z"/>
			
				<circle fill="none" stroke="#000000" stroke-linecap="round" stroke-linejoin="round" stroke-miterlimit="10" cx="9.5" cy="13.5" r="2"/>
		</g>
	</g>
</g>
<g id="Invisible_Shape">
	<rect fill="none" width="24" height="24"/>
</g>
</svg>
