<?xml version="1.0" encoding="utf-8"?>
<!-- Generator: Adobe Illustrator 16.0.3, SVG Export Plug-In . SVG Version: 6.00 Build 0)  -->
<!DOCTYPE svg PUBLIC "-//W3C//DTD SVG 1.1//EN" "http://www.w3.org/Graphics/SVG/1.1/DTD/svg11.dtd">
<svg version="1.1" xmlns="http://www.w3.org/2000/svg" xmlns:xlink="http://www.w3.org/1999/xlink" x="0px" y="0px" width="24px"
	 height="24px" viewBox="0 0 24 24" enable-background="new 0 0 24 24" xml:space="preserve">
<g id="Outline_Icons_1_">
	<g id="Outline_Icons">
		<g>
			<circle fill="none" stroke="#000000" stroke-linejoin="round" stroke-miterlimit="10" cx="6.5" cy="6" r="3.5"/>
			<path fill="none" stroke="#000000" stroke-linejoin="round" stroke-miterlimit="10" d="M12,11.5H1c0,4.069,1.64,6.442,3.5,7.5
				v4.5h4V19C10.358,17.942,12,15.569,12,11.5z"/>
			<polygon fill="none" stroke="#000000" stroke-linejoin="round" stroke-miterlimit="10" points="7,11.5 6,11.5 5.5,17.5 6.5,18.5 
				7.5,17.5 7,11.5 			"/>
			<polyline fill="none" stroke="#000000" stroke-linecap="round" stroke-linejoin="round" stroke-miterlimit="10" points="
				14.518,5.003 14.518,10.503 19.518,10.503 			"/>
			<path fill="none" stroke="#000000" stroke-linecap="round" stroke-linejoin="round" stroke-miterlimit="10" d="M11.057,0.966
				C11.983,0.663,12.973,0.5,14,0.5c5.235,0,9.479,4.244,9.479,9.479c0,5.234-4.244,9.479-9.479,9.479"/>
		</g>
	</g>
	<g id="New_icons_1_">
	</g>
</g>
<g id="Invisible_Shape">
	<rect fill="none" width="24" height="24"/>
</g>
</svg>
