<?xml version="1.0" encoding="utf-8"?>
<!-- Generator: Adobe Illustrator 16.0.3, SVG Export Plug-In . SVG Version: 6.00 Build 0)  -->
<!DOCTYPE svg PUBLIC "-//W3C//DTD SVG 1.1//EN" "http://www.w3.org/Graphics/SVG/1.1/DTD/svg11.dtd">
<svg version="1.1" xmlns="http://www.w3.org/2000/svg" xmlns:xlink="http://www.w3.org/1999/xlink" x="0px" y="0px" width="24px"
	 height="24px" viewBox="0 0 24 24" enable-background="new 0 0 24 24" xml:space="preserve">
<g id="Outline_Icons_1_">
	<g id="Outline_Icons">
	</g>
	<g id="New_icons_1_">
		<g>
			<path fill="none" stroke="#000000" stroke-linecap="round" stroke-linejoin="round" stroke-miterlimit="10" d="M19.001,9.5
				C20.672,8.286,23.5,5.721,23.5,3.803c0-1.555-1.133-2.484-2.228-2.484c-1.218,0-1.671,0.84-2.272,1.833
				c-0.602-0.993-1.055-1.833-2.272-1.833c-1.095,0-2.228,0.93-2.228,2.484C14.5,5.721,17.328,8.286,19.001,9.5L19.001,9.5z"/>
			<g>
				<circle fill="none" stroke="#000000" stroke-linejoin="round" stroke-miterlimit="10" cx="6.5" cy="4" r="3.5"/>
				<path fill="none" stroke="#000000" stroke-linejoin="round" stroke-miterlimit="10" d="M12,9.5H1c0,4.069,1.64,6.442,3.5,7.5
					v6.5h4V17C10.358,15.942,12,13.569,12,9.5z"/>
				<g>
					<polygon fill="none" stroke="#000000" stroke-linejoin="round" stroke-miterlimit="10" points="7,9.5 6,9.5 5.5,15.5 6.5,16.5 
						7.5,15.5 7,9.5 					"/>
				</g>
			</g>
		</g>
	</g>
</g>
<g id="Invisible_Shape">
	<rect fill="none" width="24" height="24"/>
</g>
</svg>
