<?xml version="1.0" encoding="utf-8"?>
<!-- Generator: Adobe Illustrator 16.0.3, SVG Export Plug-In . SVG Version: 6.00 Build 0)  -->
<!DOCTYPE svg PUBLIC "-//W3C//DTD SVG 1.1//EN" "http://www.w3.org/Graphics/SVG/1.1/DTD/svg11.dtd">
<svg version="1.1" xmlns="http://www.w3.org/2000/svg" xmlns:xlink="http://www.w3.org/1999/xlink" x="0px" y="0px" width="24px"
	 height="24px" viewBox="0 0 24 24" enable-background="new 0 0 24 24" xml:space="preserve">
<g id="Outline_Icons_1_">
	<g id="Outline_Icons">
	</g>
	<g id="New_icons_1_">
		<g>
			<polyline fill="none" stroke="#000000" stroke-linecap="round" stroke-linejoin="round" stroke-miterlimit="10" points="
				15,6.501 16.5,6.501 16.5,9.001 19,6.501 23.5,6.501 23.5,0.501 13.5,0.501 13.5,4.501 			"/>
			<g>
				<g>
					<g>
						<polygon points="21,3.001 20,3.001 20,4.001 21,4.001 21,3.001 						"/>
					</g>
				</g>
			</g>
			<g>
				<g>
					<g>
						<polygon points="19,3.001 18,3.001 18,4.001 19,4.001 19,3.001 						"/>
					</g>
				</g>
			</g>
			<g>
				<g>
					<g>
						<polygon points="17,3.001 16,3.001 16,4.001 17,4.001 17,3.001 						"/>
					</g>
				</g>
			</g>
			<g>
				<circle fill="none" stroke="#000000" stroke-linejoin="round" stroke-miterlimit="10" cx="6.5" cy="4" r="3.5"/>
				<path fill="none" stroke="#000000" stroke-linejoin="round" stroke-miterlimit="10" d="M6.5,9C3.462,9,1,13.5,1,18.5h3.5v5h4v-5
					H12C12,13.5,9.537,9,6.5,9z"/>
				<line fill="none" stroke="#000000" stroke-linejoin="round" stroke-miterlimit="10" x1="4.5" y1="18.5" x2="8.5" y2="18.5"/>
				<polyline fill="none" stroke="#000000" stroke-linejoin="round" stroke-miterlimit="10" points="8.974,10.057 6.5,13.5 
					4.027,10.057 				"/>
			</g>
		</g>
	</g>
</g>
<g id="Invisible_Shape">
	<rect fill="none" width="24" height="24"/>
</g>
</svg>
