<?xml version="1.0" encoding="utf-8"?>
<!-- Generator: Adobe Illustrator 16.0.3, SVG Export Plug-In . SVG Version: 6.00 Build 0)  -->
<!DOCTYPE svg PUBLIC "-//W3C//DTD SVG 1.1//EN" "http://www.w3.org/Graphics/SVG/1.1/DTD/svg11.dtd">
<svg version="1.1" xmlns="http://www.w3.org/2000/svg" xmlns:xlink="http://www.w3.org/1999/xlink" x="0px" y="0px" width="24px"
	 height="24px" viewBox="0 0 24 24" enable-background="new 0 0 24 24" xml:space="preserve">
<g id="Outline_Icons_1_">
	<g id="Outline_Icons">
	</g>
	<g id="New_icons_1_">
		<g>
			<g>
				<path fill="none" stroke="#000000" stroke-linecap="round" stroke-linejoin="round" stroke-miterlimit="10" d="M19.503,0.501
					h-0.006c-0.645,0.822-2.3,1.196-3.997,0.009v5.925c0,0,0.58,2.108,4,3.066c3.42-0.958,4-3.066,4-3.066V0.51
					C21.803,1.697,20.148,1.323,19.503,0.501z"/>
				
					<line fill="none" stroke="#000000" stroke-linecap="round" stroke-linejoin="round" stroke-miterlimit="10" x1="19.5" y1="6.501" x2="19.5" y2="2.532"/>
				
					<line fill="none" stroke="#000000" stroke-linecap="round" stroke-linejoin="round" stroke-miterlimit="10" x1="17.52" y1="4.501" x2="21.52" y2="4.501"/>
			</g>
			<g>
				<circle fill="none" stroke="#000000" stroke-linejoin="round" stroke-miterlimit="10" cx="6" cy="4" r="3.5"/>
				<path fill="none" stroke="#000000" stroke-linejoin="round" stroke-miterlimit="10" d="M6,9c-3.038,0-5.5,4.5-5.5,9.5H4v5h4v-5
					h3.5C11.5,13.5,9.037,9,6,9z"/>
				<line fill="none" stroke="#000000" stroke-linejoin="round" stroke-miterlimit="10" x1="4" y1="18.5" x2="8" y2="18.5"/>
				<polyline fill="none" stroke="#000000" stroke-linejoin="round" stroke-miterlimit="10" points="8.474,10.057 6,13.5 
					3.527,10.057 				"/>
			</g>
		</g>
	</g>
</g>
<g id="Invisible_Shape">
	<rect fill="none" width="24" height="24"/>
</g>
</svg>
