<?xml version="1.0" encoding="utf-8"?>
<!-- Generator: Adobe Illustrator 16.0.3, SVG Export Plug-In . SVG Version: 6.00 Build 0)  -->
<!DOCTYPE svg PUBLIC "-//W3C//DTD SVG 1.1//EN" "http://www.w3.org/Graphics/SVG/1.1/DTD/svg11.dtd">
<svg version="1.1" xmlns="http://www.w3.org/2000/svg" xmlns:xlink="http://www.w3.org/1999/xlink" x="0px" y="0px" width="24px"
	 height="24px" viewBox="0 0 24 24" enable-background="new 0 0 24 24" xml:space="preserve">
<g id="Outline_Icons_1_">
	<g id="Outline_Icons">
		<g>
			<path fill="none" stroke="#000000" stroke-linejoin="round" stroke-miterlimit="10" d="M0.5,3.5v17h4V19
				c0-0.962,0.787-1.75,1.75-1.75C7.212,17.25,8,18.038,8,19v1.5h8V19c0-0.962,0.787-1.75,1.75-1.75c0.962,0,1.75,0.788,1.75,1.75
				v1.5h4v-17H0.5z"/>
			<line fill="none" stroke="#000000" stroke-linejoin="round" stroke-miterlimit="10" x1="13" y1="13.5" x2="21" y2="13.5"/>
			<line fill="none" stroke="#000000" stroke-linejoin="round" stroke-miterlimit="10" x1="13" y1="11.5" x2="21" y2="11.5"/>
			<line fill="none" stroke="#000000" stroke-linejoin="round" stroke-miterlimit="10" x1="13" y1="9.5" x2="21" y2="9.5"/>
			<line fill="none" stroke="#000000" stroke-linejoin="round" stroke-miterlimit="10" x1="13" y1="7.5" x2="17" y2="7.5"/>
			<path fill="none" stroke="#000000" stroke-linecap="round" stroke-linejoin="round" stroke-miterlimit="10" d="M7,14.5H2.5v-2
				C2.5,12.5,4,11,6,11c0-0.5,0-1,0-1S5,9.5,5,8c0-1,0-2,2-2s2,1,2,2c0,1.5-1,2-1,2s0,0,0,1c2,0,3.5,1.5,3.5,1.5v2H7z"/>
		</g>
	</g>
	<g id="New_icons_1_">
	</g>
</g>
<g id="Invisible_Shape">
	<rect fill="none" width="24" height="24"/>
</g>
</svg>
