<?xml version="1.0" encoding="utf-8"?>
<!-- Generator: Adobe Illustrator 16.0.3, SVG Export Plug-In . SVG Version: 6.00 Build 0)  -->
<!DOCTYPE svg PUBLIC "-//W3C//DTD SVG 1.1//EN" "http://www.w3.org/Graphics/SVG/1.1/DTD/svg11.dtd">
<svg version="1.1" xmlns="http://www.w3.org/2000/svg" xmlns:xlink="http://www.w3.org/1999/xlink" x="0px" y="0px" width="24px"
	 height="24px" viewBox="0 0 24 24" enable-background="new 0 0 24 24" xml:space="preserve">
<g id="Outline_Icons_1_">
	<g id="Outline_Icons">
		<g>
			<path fill="none" stroke="#000000" stroke-linejoin="round" stroke-miterlimit="10" d="M3.5,18.5l6-2v-2c0,0-1-0.35-1-2.5
				c-0.697,0-1-2,0-2c0-0.288-1.605-2.93,0.5-2.5c0.5-2,5.5-2,6,0c0.298,1.192-0.468,2.289-0.468,2.5c0.968,0,0.663,2-0.032,2
				c0,2.15-1,2.5-1,2.5v2l6,2"/>
			<rect x="1.5" y="0.5" fill="none" stroke="#000000" stroke-linejoin="round" stroke-miterlimit="10" width="20" height="23"/>
			<rect x="3.5" y="2.5" fill="none" stroke="#000000" stroke-linejoin="round" stroke-miterlimit="10" width="16" height="19"/>
		</g>
	</g>
	<g id="New_icons_1_">
	</g>
</g>
<g id="Invisible_Shape">
	<rect fill="none" width="24" height="24"/>
</g>
</svg>
