<?xml version="1.0" encoding="utf-8"?>
<!-- Generator: Adobe Illustrator 16.0.3, SVG Export Plug-In . SVG Version: 6.00 Build 0)  -->
<!DOCTYPE svg PUBLIC "-//W3C//DTD SVG 1.1//EN" "http://www.w3.org/Graphics/SVG/1.1/DTD/svg11.dtd">
<svg version="1.1" xmlns="http://www.w3.org/2000/svg" xmlns:xlink="http://www.w3.org/1999/xlink" x="0px" y="0px" width="24px"
	 height="24px" viewBox="0 0 24 24" enable-background="new 0 0 24 24" xml:space="preserve">
<g id="Outline_Icons">
	<g>
		<path fill="none" stroke="#000000" stroke-linecap="round" stroke-linejoin="round" stroke-miterlimit="10" d="M22.5,1.5
			c-0.976-0.977-2.525-0.976-3.5,0l-3,3C4,4.5,0.5,4,0.5,7c0,2.772,3.702,1.529,10.5,2.5l-6,6H2.5c-1.104,0-2,0.896-2,2
			c0,1.834,1.571,1.857,3.5,2.5c0.614,1.843,0.666,3.5,2.5,3.5c1.104,0,2-0.896,2-2V19l6-6c0.973,6.818-0.271,10.5,2.5,10.5
			c3.362,0,2.5-3.087,2.5-15.5l3-3C23.475,4.023,23.476,2.477,22.5,1.5z"/>
	</g>
</g>
<g id="invisible_shape">
	<rect fill="none" width="24" height="24"/>
</g>
</svg>
