<?xml version="1.0" encoding="utf-8"?>
<!-- Generator: Adobe Illustrator 16.0.3, SVG Export Plug-In . SVG Version: 6.00 Build 0)  -->
<!DOCTYPE svg PUBLIC "-//W3C//DTD SVG 1.1//EN" "http://www.w3.org/Graphics/SVG/1.1/DTD/svg11.dtd">
<svg version="1.1" xmlns="http://www.w3.org/2000/svg" xmlns:xlink="http://www.w3.org/1999/xlink" x="0px" y="0px" width="24px"
	 height="24px" viewBox="0 0 24 24" enable-background="new 0 0 24 24" xml:space="preserve">
<g id="Outline_Icons">
	<g>
		<path fill="none" stroke="#000000" stroke-linecap="round" stroke-linejoin="round" stroke-miterlimit="10" d="M23.5,19.5
			c0,2.2-1.8,4-4,4h-15c-2.2,0-4-1.8-4-4v-15c0-2.199,1.8-4,4-4h15c2.2,0,4,1.801,4,4V19.5z"/>
		<g>
			<path fill="none" stroke="#000000" stroke-linecap="round" stroke-linejoin="round" stroke-miterlimit="10" d="M8.219,12.084
				l-2.655-1.188L3.56,12.049l4.561,2.944l4.543-1.791l-1.926,5l2.273-1.182l2.771-5.062l3.456-1.522
				c0.656-0.29,0.939-1.055,0.65-1.694c-0.281-0.624-1.004-0.916-1.64-0.662L8.219,12.084z"/>
			<polyline fill="none" stroke="#000000" stroke-linecap="round" stroke-linejoin="round" stroke-miterlimit="10" points="
				14.569,9.549 10.5,7 8.466,8.051 12.162,10.51 			"/>
		</g>
	</g>
</g>
<g id="invisible_shape">
	<rect fill="none" width="24" height="24"/>
</g>
</svg>
