<?xml version="1.0" encoding="utf-8"?>
<!-- Generator: Adobe Illustrator 16.0.3, SVG Export Plug-In . SVG Version: 6.00 Build 0)  -->
<!DOCTYPE svg PUBLIC "-//W3C//DTD SVG 1.1//EN" "http://www.w3.org/Graphics/SVG/1.1/DTD/svg11.dtd">
<svg version="1.1" xmlns="http://www.w3.org/2000/svg" xmlns:xlink="http://www.w3.org/1999/xlink" x="0px" y="0px" width="24px"
	 height="24px" viewBox="0 0 24 24" enable-background="new 0 0 24 24" xml:space="preserve">
<g id="Outline_Icons">
	<g>
		<path fill="none" stroke="#000000" stroke-linecap="round" stroke-linejoin="round" stroke-miterlimit="10" d="M23.5,17.484h-6
			c-2.451,0-4.621,0.787-5.99,2"/>
		
			<line fill="none" stroke="#000000" stroke-linecap="round" stroke-linejoin="round" stroke-miterlimit="10" x1="17.5" y1="17.5" x2="14.184" y2="9.133"/>
		
			<line fill="none" stroke="#000000" stroke-linecap="round" stroke-linejoin="round" stroke-miterlimit="10" x1="11.605" y1="2.625" x2="11.236" y2="1.695"/>
		<path fill="none" stroke="#000000" stroke-linecap="round" stroke-linejoin="round" stroke-miterlimit="10" d="M11.605,2.625
			C6.728,4.558,3.56,8.11,4.984,11.703l0.368,0.931l2.324-0.922l0.561-1.299l1.298,0.562l9.296-3.686l0.561-1.297l1.298,0.561
			l2.324-0.922l-0.368-0.93C21.223,1.108,16.482,0.691,11.605,2.625z"/>
		<path fill="none" stroke="#000000" stroke-linecap="round" stroke-linejoin="round" stroke-miterlimit="10" d="M23.5,23.5
			c-1,0-2-0.896-2-2c0,1.104-1,2-2,2s-2-0.896-2-2c0,1.104-1,2-2,2s-2-0.896-2-2c0,1.104-1,2-2,2s-2-0.896-2-2c0,1.104-1,2-2,2
			s-2-0.896-2-2c0,1.104-1,2-2,2s-2-0.896-2-2c0,0.69-0.463,1.299-1,1.658"/>
	</g>
</g>
<g id="invisible_shape">
	<rect fill="none" width="24" height="24"/>
</g>
</svg>
