<?xml version="1.0" encoding="utf-8"?>
<!-- Generator: Adobe Illustrator 16.0.3, SVG Export Plug-In . SVG Version: 6.00 Build 0)  -->
<!DOCTYPE svg PUBLIC "-//W3C//DTD SVG 1.1//EN" "http://www.w3.org/Graphics/SVG/1.1/DTD/svg11.dtd">
<svg version="1.1" xmlns="http://www.w3.org/2000/svg" xmlns:xlink="http://www.w3.org/1999/xlink" x="0px" y="0px" width="24px"
	 height="24px" viewBox="0 0 24 24" enable-background="new 0 0 24 24" xml:space="preserve">
<g id="Outline_Icons">
	<g>
		<path fill="none" stroke="#000000" stroke-linecap="round" stroke-linejoin="round" stroke-miterlimit="10" d="M21.5,23.5
			c-1,0-2-0.895-2-2c0,1.105-1,2-2,2s-2-0.895-2-2c0,1.105-1,2-2,2s-2-0.895-2-2c0,1.105-1,2-2,2s-2-0.895-2-2c0,1.105-1,2-2,2
			s-2-0.895-2-2c0,1.105-1,2-2,2"/>
		<path fill="none" stroke="#000000" stroke-linecap="round" stroke-linejoin="round" stroke-miterlimit="10" d="M21.5,19.5
			c-1,0-2-0.895-2-2c0,1.105-1,2-2,2s-2-0.895-2-2c0,1.105-1,2-2,2s-2-0.895-2-2c0,1.105-1,2-2,2s-2-0.895-2-2c0,1.105-1,2-2,2
			s-2-0.895-2-2c0,1.105-1,2-2,2"/>
		<path fill="none" stroke="#000000" stroke-linecap="round" stroke-linejoin="round" stroke-miterlimit="10" d="M17.5,15.5
			c1-0.5,1.5-2,1.5-3H3c0,1.075,0.5,2.5,1.683,3"/>
		
			<line fill="none" stroke="#000000" stroke-linecap="round" stroke-linejoin="round" stroke-miterlimit="10" x1="10.5" y1="12.5" x2="10.5" y2="0.5"/>
		<polygon fill="none" stroke="#000000" stroke-linecap="round" stroke-linejoin="round" stroke-miterlimit="10" points="17.5,9.5 
			10.5,9.5 10.5,1 		"/>
		
			<line fill="none" stroke="#000000" stroke-linecap="round" stroke-linejoin="round" stroke-miterlimit="10" x1="10.5" y1="9.5" x2="18.5" y2="9.5"/>
	</g>
</g>
<g id="invisible_shape">
	<rect fill="none" width="24" height="24"/>
</g>
</svg>
