<?xml version="1.0" encoding="utf-8"?>
<!-- Generator: Adobe Illustrator 16.0.3, SVG Export Plug-In . SVG Version: 6.00 Build 0)  -->
<!DOCTYPE svg PUBLIC "-//W3C//DTD SVG 1.1//EN" "http://www.w3.org/Graphics/SVG/1.1/DTD/svg11.dtd">
<svg version="1.1" xmlns="http://www.w3.org/2000/svg" xmlns:xlink="http://www.w3.org/1999/xlink" x="0px" y="0px" width="24px"
	 height="24px" viewBox="0 0 24 24" enable-background="new 0 0 24 24" xml:space="preserve">
<g id="Outline_Icons">
	<g>
		
			<rect x="0.5" y="4.5" fill="none" stroke="#000000" stroke-linecap="round" stroke-linejoin="round" stroke-miterlimit="10" width="23" height="15"/>
		<g>
			<g>
				<polygon points="4,6 3,6 3,7 4,7 4,6 				"/>
			</g>
		</g>
		<g>
			<g>
				<polygon points="4,8 3,8 3,9 4,9 4,8 				"/>
			</g>
		</g>
		<g>
			<g>
				<polygon points="4,10 3,10 3,11 4,11 4,10 				"/>
			</g>
		</g>
		<g>
			<g>
				<polygon points="4,12 3,12 3,13 4,13 4,12 				"/>
			</g>
		</g>
		<g>
			<g>
				<polygon points="4,14 3,14 3,15 4,15 4,14 				"/>
			</g>
		</g>
		<g>
			<g>
				<polygon points="4,16 3,16 3,17 4,17 4,16 				"/>
			</g>
		</g>
		<g>
			<g>
				<polygon points="4,18 3,18 3,19 4,19 4,18 				"/>
			</g>
		</g>
		<g>
			<path fill="none" stroke="#000000" stroke-linecap="round" stroke-linejoin="round" stroke-miterlimit="10" d="M10.219,11.531
				l-2.655-1.188L5.56,11.497l4.561,2.944l4.543-1.791l-1.937,4.531L15,16l2.781-4.593l2.956-1.459
				c0.656-0.291,0.939-1.056,0.65-1.694c-0.281-0.624-1.004-0.916-1.64-0.663L10.219,11.531z"/>
			<polyline fill="none" stroke="#000000" stroke-linecap="round" stroke-linejoin="round" stroke-miterlimit="10" points="
				16.43,8.963 12.5,6.5 10.466,7.551 13.994,9.971 			"/>
		</g>
	</g>
</g>
<g id="invisible_shape">
	<rect fill="none" width="24" height="24"/>
</g>
</svg>
