<?xml version="1.0" encoding="utf-8"?>
<!-- Generator: Adobe Illustrator 16.0.3, SVG Export Plug-In . SVG Version: 6.00 Build 0)  -->
<!DOCTYPE svg PUBLIC "-//W3C//DTD SVG 1.1//EN" "http://www.w3.org/Graphics/SVG/1.1/DTD/svg11.dtd">
<svg version="1.1" xmlns="http://www.w3.org/2000/svg" xmlns:xlink="http://www.w3.org/1999/xlink" x="0px" y="0px" width="24px"
	 height="24px" viewBox="0 0 24 24" enable-background="new 0 0 24 24" xml:space="preserve">
<g id="Outline_Icons">
	<g>
		<path fill="none" stroke="#000000" stroke-linecap="round" stroke-linejoin="round" stroke-miterlimit="10" d="M4.984,16.754
			C3.929,14.768,3.083,13,3.083,13c-0.337-0.477-0.281-1.127,0.131-1.54c0.443-0.442,1.153-0.469,1.63-0.062L7.5,14.5v-10
			C7.5,3.673,8.172,3,9,3c0.829,0,1.5,0.673,1.5,1.5v3.719"/>
		<path fill="none" stroke="#000000" stroke-linecap="round" stroke-linejoin="round" stroke-miterlimit="10" d="M19.5,7.5v10
			c0,2.763-2.238,5-5,5h-3.335c-1.574,0-3.049-0.743-3.989-1.985"/>
		<path fill="none" stroke="#000000" stroke-linecap="round" stroke-linejoin="round" stroke-miterlimit="10" d="M10.5,10V2.5
			C10.5,1.673,11.172,1,12,1c0.829,0,1.5,0.673,1.5,1.5V8"/>
		<path fill="none" stroke="#000000" stroke-linecap="round" stroke-linejoin="round" stroke-miterlimit="10" d="M13.5,8V4.5
			C13.5,3.673,14.172,3,15,3c0.829,0,1.5,0.673,1.5,1.5V5"/>
		
			<line fill="none" stroke="#000000" stroke-linecap="round" stroke-linejoin="round" stroke-miterlimit="10" x1="22.5" y1="2" x2="3" y2="21.5"/>
	</g>
</g>
<g id="invisible_shape">
	<rect fill="none" width="24" height="24"/>
</g>
</svg>
