<?xml version="1.0" encoding="utf-8"?>
<!-- Generator: Adobe Illustrator 16.0.3, SVG Export Plug-In . SVG Version: 6.00 Build 0)  -->
<!DOCTYPE svg PUBLIC "-//W3C//DTD SVG 1.1//EN" "http://www.w3.org/Graphics/SVG/1.1/DTD/svg11.dtd">
<svg version="1.1" xmlns="http://www.w3.org/2000/svg" xmlns:xlink="http://www.w3.org/1999/xlink" x="0px" y="0px" width="24px"
	 height="24px" viewBox="0 0 24 24" enable-background="new 0 0 24 24" xml:space="preserve">
<g id="Outline_Icons">
	<g>
		<path fill="none" stroke="#000000" stroke-linecap="round" stroke-linejoin="round" stroke-miterlimit="10" d="M23.334,13.962
			C22.402,19.379,17.682,23.5,12,23.5C5.648,23.5,0.5,18.352,0.5,12C0.5,5.65,5.648,0.5,12,0.5c3.929,0,7.398,1.971,9.473,4.978"/>
		<polyline fill="none" stroke="#000000" stroke-linecap="round" stroke-linejoin="round" stroke-miterlimit="10" points="
			14.794,0.843 10.095,3.5 11.012,5.125 9.012,8.5 4.012,10 6.012,16.5 11.512,18.5 11.512,21 		"/>
		
			<line fill="none" stroke="#000000" stroke-linecap="round" stroke-linejoin="round" stroke-miterlimit="10" x1="20.5" y1="4.255" x2="18.512" y2="6.5"/>
		<g>
			<path fill="none" stroke="#000000" stroke-linecap="round" stroke-linejoin="round" stroke-miterlimit="10" d="M11.719,12.381
				l-2.655-1.188L7.06,12.347l4.561,2.944l4.543-1.791l-1.926,5l2.273-1.182l2.771-5.062l3.456-1.522
				c0.656-0.29,0.939-1.055,0.65-1.694c-0.281-0.624-1.004-0.916-1.64-0.662L11.719,12.381z"/>
			<polyline fill="none" stroke="#000000" stroke-linecap="round" stroke-linejoin="round" stroke-miterlimit="10" points="
				18.069,9.847 14,7.298 11.966,8.349 15.662,10.808 			"/>
		</g>
	</g>
</g>
<g id="invisible_shape">
	<rect fill="none" width="24" height="24"/>
</g>
</svg>
