<?xml version="1.0" encoding="utf-8"?>
<!-- Generator: Adobe Illustrator 19.2.0, SVG Export Plug-In . SVG Version: 6.00 Build 0)  -->
<svg version="1.1" xmlns="http://www.w3.org/2000/svg" xmlns:xlink="http://www.w3.org/1999/xlink" x="0px" y="0px" width="24px"
	 height="24px" viewBox="0 0 24 24" enable-background="new 0 0 24 24" xml:space="preserve">
<g id="Filled_Icons">
	<path d="M22.448,20.19c-0.174-0.524-0.739-0.807-1.265-0.632c-0.375,0.125-0.778,0.244-1.102,0.328
		c-0.087-0.343-0.184-0.782-0.263-1.143c-0.519-2.366-0.93-4.236-2.319-4.236c-0.869,0-5.415,0.873-7.659,1.313l-0.448-3.131
		l4.85-1.212c0.536-0.134,0.861-0.677,0.727-1.212c-0.134-0.537-0.677-0.86-1.213-0.728l-4.648,1.162L8.607,7.193
		c1.374-0.55,2.348-1.892,2.348-3.46c0-2.055-1.672-3.728-3.728-3.728C5.172,0.006,3.5,1.679,3.5,3.733
		c0,1.849,1.352,3.382,3.119,3.674l0.538,3.771C4.535,11.959,2.5,14.651,2.5,17.506c0,3.585,2.871,6.5,6.4,6.5
		c3.577,0,6.6-2.976,6.6-6.5v-0.708c0.721-0.125,1.301-0.217,1.659-0.262c0.252,0.564,0.541,1.88,0.707,2.636
		c0.414,1.887,0.622,2.834,1.634,2.834c0.598,0,1.818-0.385,2.316-0.551C22.34,21.28,22.623,20.714,22.448,20.19z M5.5,3.733
		c0-0.952,0.774-1.728,1.727-1.728c0.953,0,1.728,0.776,1.728,1.728c0,0.953-0.775,1.729-1.728,1.729
		C6.274,5.462,5.5,4.687,5.5,3.733z M13.5,17.506c0,2.398-2.149,4.5-4.6,4.5c-2.386,0-4.4-2.06-4.4-4.5
		c0-2.028,1.418-3.71,2.945-4.312l0.564,3.954c0.081,0.566,0.623,0.953,1.186,0.839c1.445-0.288,2.963-0.581,4.304-0.83V17.506z"/>
</g>
<g id="invisible_shape">
	<rect fill="none" width="24" height="24"/>
</g>
</svg>
