<?xml version="1.0" encoding="utf-8"?>
<!-- Generator: Adobe Illustrator 19.2.0, SVG Export Plug-In . SVG Version: 6.00 Build 0)  -->
<svg version="1.1" xmlns="http://www.w3.org/2000/svg" xmlns:xlink="http://www.w3.org/1999/xlink" x="0px" y="0px" width="24px"
	 height="24px" viewBox="0 0 24 24" enable-background="new 0 0 24 24" xml:space="preserve">
<g id="Filled_Icons">
	<g>
		<path d="M21.5,6h-18C3.224,6,3,6.224,3,6.5v17C3,23.776,3.224,24,3.5,24h18c0.276,0,0.5-0.224,0.5-0.5v-17
			C22,6.224,21.776,6,21.5,6z M16,7c1.103,0,2,0.897,2,2c0,1.102-0.897,2-2,2s-2-0.898-2-2C14,7.897,14.897,7,16,7z M9,7
			c1.103,0,2,0.897,2,2c0,1.102-0.897,2-2,2s-2-0.898-2-2C7,7.897,7.897,7,9,7z M12,15c-0.002,1.083-0.337,1.729-1,1.932V21.5
			c0,0.276-0.224,0.5-0.5,0.5h-3C7.224,22,7,21.776,7,21.5v-4.568C6.336,16.73,6,16.083,6,15v-2.5C6,12.224,6.224,12,6.5,12h5
			c0.276,0,0.5,0.224,0.5,0.5V15z M19,15c-0.001,1.083-0.337,1.729-1,1.932V21.5c0,0.276-0.224,0.5-0.5,0.5h-3
			c-0.276,0-0.5-0.224-0.5-0.5v-4.568c-0.664-0.202-1-0.849-1-1.932v-2.5c0-0.276,0.224-0.5,0.5-0.5h5c0.276,0,0.5,0.224,0.5,0.5V15
			z"/>
		<g>
			<path d="M7.853,0.147c-0.195-0.195-0.512-0.195-0.707,0l-2,2c-0.195,0.195-0.195,0.512,0,0.707c0.195,0.195,0.512,0.195,0.707,0
				L7,1.707V4.5C7,4.776,7.224,5,7.5,5S8,4.776,8,4.5V1.707l1.146,1.146c0.195,0.195,0.512,0.195,0.707,0
				c0.195-0.195,0.195-0.512,0-0.707L7.853,0.147z"/>
			<path d="M19.854,2.147c-0.195-0.195-0.512-0.195-0.707,0L18,3.293V0.5C18,0.224,17.776,0,17.5,0S17,0.224,17,0.5v2.793
				l-1.146-1.146c-0.195-0.195-0.512-0.195-0.707,0c-0.195,0.195-0.195,0.512,0,0.707l2,2c0.195,0.195,0.512,0.195,0.707,0l2-2
				C20.049,2.658,20.049,2.342,19.854,2.147z"/>
		</g>
	</g>
</g>
<g id="invisible_shape">
	<rect fill="none" width="24" height="24"/>
</g>
</svg>
