<?xml version="1.0" encoding="utf-8"?>
<!-- Generator: Adobe Illustrator 19.2.0, SVG Export Plug-In . SVG Version: 6.00 Build 0)  -->
<svg version="1.1" xmlns="http://www.w3.org/2000/svg" xmlns:xlink="http://www.w3.org/1999/xlink" x="0px" y="0px" width="24px"
	 height="24px" viewBox="0 0 24 24" enable-background="new 0 0 24 24" xml:space="preserve">
<g id="Filled_Icons">
	<g>
		<path d="M20.5,17h-3.588L9.56,9.159C9.465,9.058,9.333,9,9.195,9H3.5C1.57,9,0,10.57,0,12.5S1.57,16,3.5,16h3.088l7.352,7.843
			C14.035,23.943,14.166,24,14.305,24H20.5c1.93,0,3.5-1.57,3.5-3.5S22.43,17,20.5,17z"/>
		<path d="M23,7c0-0.551-0.448-1-1-1c-0.552,0-1,0.449-1,1v2.586l-6.293-6.292c-0.391-0.392-1.023-0.392-1.414,0
			c-0.391,0.39-0.391,1.023,0,1.414L19.586,11H17c-0.552,0-1,0.449-1,1c0,0.552,0.448,1,1,1h5c0.547,0,1-0.451,1-1V7z"/>
	</g>
</g>
<g id="invisible_shape">
	<rect fill="none" width="24" height="24"/>
</g>
</svg>
