<?xml version="1.0" encoding="utf-8"?>
<!-- Generator: Adobe Illustrator 19.2.0, SVG Export Plug-In . SVG Version: 6.00 Build 0)  -->
<svg version="1.1" xmlns="http://www.w3.org/2000/svg" xmlns:xlink="http://www.w3.org/1999/xlink" x="0px" y="0px" width="24px"
	 height="24px" viewBox="0 0 24 24" enable-background="new 0 0 24 24" xml:space="preserve">
<g id="Filled_Icons">
	<g>
		<path d="M20.5,9h-5.695c-0.139,0-0.27,0.058-0.365,0.159L7.088,17H3.5C1.57,17,0,18.57,0,20.5S1.57,24,3.5,24h6.195
			c0.138,0,0.269-0.057,0.365-0.157L17.412,16H20.5c1.93,0,3.5-1.57,3.5-3.5S22.43,9,20.5,9z"/>
		<path d="M3.707,11.708L10,5.414V8c0,0.552,0.448,1,1,1c0.552,0,1-0.448,1-1V3c0-0.547-0.451-1-1-1H6C5.448,2,5,2.449,5,3
			c0,0.552,0.448,1,1,1h2.586l-6.293,6.294c-0.391,0.39-0.391,1.023,0,1.414C2.684,12.098,3.316,12.098,3.707,11.708z"/>
	</g>
</g>
<g id="invisible_shape">
	<rect fill="none" width="24" height="24"/>
</g>
</svg>
