<?xml version="1.0" encoding="utf-8"?>
<!-- Generator: Adobe Illustrator 19.2.0, SVG Export Plug-In . SVG Version: 6.00 Build 0)  -->
<svg version="1.1" xmlns="http://www.w3.org/2000/svg" xmlns:xlink="http://www.w3.org/1999/xlink" x="0px" y="0px" width="24px"
	 height="24px" viewBox="0 0 24 24" enable-background="new 0 0 24 24" xml:space="preserve">
<g id="Filled_Icons">
	<g>
		<g>
			<path d="M22.999,12c-0.24,0-0.48-0.086-0.672-0.26L12,2.352L1.672,11.74c-0.41,0.373-1.041,0.342-1.413-0.067
				c-0.372-0.408-0.342-1.041,0.067-1.412l11-10c0.382-0.348,0.964-0.347,1.346,0l10.999,10c0.409,0.371,0.438,1.004,0.067,1.412
				C23.542,11.89,23.271,12,22.999,12z"/>
		</g>
		<g>
			<path d="M19.839,15l-1.875-4.685C17.888,10.125,17.704,10,17.5,10h-11c-0.205,0-0.389,0.125-0.465,0.315L4.161,15H19.839z"/>
			<path d="M17,20c-0.276,0-0.5-0.224-0.5-0.5S16.724,19,17,19h5v-1.5c0-0.133-0.053-0.259-0.146-0.354L20.707,16H3.293
				l-1.146,1.146C2.053,17.241,2,17.367,2,17.5V19h5c0.276,0,0.5,0.224,0.5,0.5S7.276,20,7,20H2v1.5C2,21.776,2.224,22,2.5,22H3v1.5
				C3,23.776,3.224,24,3.5,24h3C6.776,24,7,23.776,7,23.5V22h10v1.5c0,0.276,0.224,0.5,0.5,0.5h3c0.276,0,0.5-0.224,0.5-0.5V22h0.5
				c0.276,0,0.5-0.224,0.5-0.5V20H17z"/>
		</g>
	</g>
</g>
<g id="invisible_shape">
	<rect fill="none" width="24" height="24"/>
</g>
</svg>
