<?xml version="1.0" encoding="utf-8"?>
<!-- Generator: Adobe Illustrator 19.2.0, SVG Export Plug-In . SVG Version: 6.00 Build 0)  -->
<svg version="1.1" xmlns="http://www.w3.org/2000/svg" xmlns:xlink="http://www.w3.org/1999/xlink" x="0px" y="0px" width="24px"
	 height="24px" viewBox="0 0 24 24" enable-background="new 0 0 24 24" xml:space="preserve">
<g id="Filled_Icons">
	<path d="M15.615,16.323c-0.195-0.195-0.195-0.512,0-0.708c0.195-0.195,0.512-0.195,0.707,0l4.496,4.496
		C22.786,17.973,24,15.129,24,12c0-6.616-5.384-12-12-12C8.871,0,6.027,1.214,3.889,3.182l2.9,2.9c0.195,0.195,0.195,0.513,0,0.708
		C6.69,6.887,6.563,6.936,6.435,6.936c-0.128,0-0.256-0.049-0.354-0.146l-2.899-2.9C1.213,6.028,0,8.871,0,12
		c0,6.617,5.383,12,12,12c3.129,0,5.973-1.214,8.11-3.182L15.615,16.323z M6.556,9.5c0-1.28,0.793-2.389,1.97-2.814
		C8.708,4.871,10.197,3.5,12,3.5c1.825,0,3.328,1.404,3.486,3.19c1.17,0.429,1.957,1.533,1.957,2.81c0,1.654-1.346,3-3,3
		c-0.989,0-1.894-0.494-2.443-1.266c-0.552,0.772-1.455,1.266-2.444,1.266C7.901,12.5,6.556,11.154,6.556,9.5z M12.49,21.144
		c-0.069,0.201-0.259,0.336-0.472,0.336h-0.001c-0.213,0-0.403-0.136-0.472-0.336l-2.667-7.712C9.1,13.471,9.324,13.5,9.556,13.5
		c0.907,0,1.761-0.311,2.443-0.841c0.684,0.529,1.537,0.841,2.444,0.841c0.25,0,0.493-0.029,0.73-0.073L12.49,21.144z"/>
</g>
<g id="invisible_shape">
	<rect fill="none" width="24" height="24"/>
</g>
</svg>
