<?xml version="1.0" encoding="utf-8"?>
<!-- Generator: Adobe Illustrator 19.2.0, SVG Export Plug-In . SVG Version: 6.00 Build 0)  -->
<svg version="1.1" xmlns="http://www.w3.org/2000/svg" xmlns:xlink="http://www.w3.org/1999/xlink" x="0px" y="0px" width="24px"
	 height="24px" viewBox="0 0 24 24" enable-background="new 0 0 24 24" xml:space="preserve">
<g id="Filled_Icons">
	<path d="M21.218,4.33l-2.825,2.815c-0.098,0.098-0.225,0.146-0.353,0.146c-0.129,0-0.256-0.049-0.354-0.148
		c-0.194-0.194-0.194-0.512,0.001-0.707l2.857-2.849C18.367,1.377,15.342,0,12,0C5.383,0,0,5.384,0,12
		c0,3.329,1.364,6.344,3.56,8.52l3.859-3.85c0.196-0.195,0.513-0.195,0.707,0.001c0.195,0.195,0.195,0.512,0,0.707l-3.825,3.815
		C6.387,22.942,9.071,24,12,24c6.616,0,12-5.383,12-12C24,9.086,22.953,6.411,21.218,4.33z M12,10.5c0,1.208-0.86,2.217-2,2.449V19
		c0,0.276-0.224,0.5-0.5,0.5S9,19.276,9,19v-6.051c-1.14-0.232-2-1.241-2-2.449v-5C7,5.224,7.224,5,7.5,5S8,5.224,8,5.5v5
		c0,0.651,0.419,1.201,1,1.409V5.5C9,5.224,9.224,5,9.5,5S10,5.224,10,5.5v6.409c0.581-0.208,1-0.758,1-1.409v-5
		C11,5.224,11.224,5,11.5,5S12,5.224,12,5.5V10.5z M17.5,14H15v5c0,0.276-0.224,0.5-0.5,0.5S14,19.276,14,19V5.5
		C14,5.224,14.224,5,14.5,5c2.036,0,3.5,7.479,3.5,8.5C18,13.776,17.776,14,17.5,14z"/>
</g>
<g id="invisible_shape">
	<rect fill="none" width="24" height="24"/>
</g>
</svg>
