<?xml version="1.0" encoding="utf-8"?>
<!-- Generator: Adobe Illustrator 19.2.0, SVG Export Plug-In . SVG Version: 6.00 Build 0)  -->
<svg version="1.1" xmlns="http://www.w3.org/2000/svg" xmlns:xlink="http://www.w3.org/1999/xlink" x="0px" y="0px" width="24px"
	 height="24px" viewBox="0 0 24 24" enable-background="new 0 0 24 24" xml:space="preserve">
<g id="Filled_Icons">
	<g>
		<circle cx="12.5" cy="12.5" r="2.5"/>
		<path d="M17.602,18.31c-0.196-0.194-0.196-0.512,0-0.706c0.195-0.196,0.512-0.196,0.707,0l2.509,2.509
			C22.786,17.973,24,15.129,24,12c0-6.616-5.384-12-12-12C8.871,0,6.027,1.214,3.889,3.182l2.9,2.9c0.195,0.195,0.195,0.513,0,0.708
			C6.69,6.887,6.563,6.936,6.435,6.936c-0.128,0-0.256-0.049-0.354-0.146L3.182,3.889C1.214,6.028,0,8.871,0,12
			c0,6.617,5.383,12,12,12c3.129,0,5.973-1.214,8.11-3.182L17.602,18.31z M6.5,17C5.673,17,5,16.327,5,15.5v-6
			C5,8.673,5.673,8,6.5,8h1V7H9v1h1.19l0.085-0.17C10.531,7.318,11.046,7,11.618,7h2.263c0.573,0,1.087,0.318,1.342,0.83L15.309,8
			H16.5C17.327,8,18,8.673,18,9.5v6c0,0.827-0.673,1.5-1.5,1.5H6.5z"/>
	</g>
</g>
<g id="invisible_shape">
	<rect fill="none" width="24" height="24"/>
</g>
</svg>
