<?xml version="1.0" encoding="utf-8"?>
<!-- Generator: Adobe Illustrator 19.2.0, SVG Export Plug-In . SVG Version: 6.00 Build 0)  -->
<svg version="1.1" xmlns="http://www.w3.org/2000/svg" xmlns:xlink="http://www.w3.org/1999/xlink" x="0px" y="0px" width="24px"
	 height="24px" viewBox="0 0 24 24" enable-background="new 0 0 24 24" xml:space="preserve">
<g id="Filled_Icons">
	<g>
		<circle cx="6.5" cy="4" r="4"/>
		<path d="M23.5,13h-0.551C22.694,10.481,20.586,8.5,18,8.5s-4.694,1.981-4.949,4.5h-1.032c0.311-1.054,0.481-2.227,0.481-3.5
			C12.5,9.224,12.276,9,12,9H1C0.724,9,0.5,9.224,0.5,9.5c0,3.554,1.271,6.37,3.5,7.782V23.5C4,23.776,4.224,24,4.5,24h4
			C8.776,24,9,23.776,9,23.5v-6.218c1.166-0.739,2.061-1.87,2.659-3.282H23.5c0.276,0,0.5-0.224,0.5-0.5S23.776,13,23.5,13z"/>
		<circle cx="18" cy="4.5" r="3"/>
	</g>
</g>
<g id="invisible_shape">
	<rect fill="none" width="24" height="24"/>
</g>
</svg>
