<?xml version="1.0" encoding="utf-8"?>
<!-- Generator: Adobe Illustrator 19.2.0, SVG Export Plug-In . SVG Version: 6.00 Build 0)  -->
<svg version="1.1" xmlns="http://www.w3.org/2000/svg" xmlns:xlink="http://www.w3.org/1999/xlink" x="0px" y="0px" width="24px"
	 height="24px" viewBox="0 0 24 24" enable-background="new 0 0 24 24" xml:space="preserve">
<g id="Filled_Icons">
	<g>
		<g>
			<path d="M16.5,14h-8C8.224,14,8,14.224,8,14.5v4c0,0.736,0,2.604,2,2.868V24h0.5l0,0h4l0,0H15v-2.632
				c1.997-0.265,1.999-2.132,2-2.868v-4C17,14.224,16.776,14,16.5,14z"/>
			<circle cx="12.5" cy="10.5" r="2.5"/>
		</g>
		<g>
			<path d="M12.5,2.5C12.224,2.5,12,2.276,12,2V0.5C12,0.224,12.224,0,12.5,0S13,0.224,13,0.5V2C13,2.276,12.776,2.5,12.5,2.5z"/>
		</g>
		<g>
			<path d="M12.5,6C12.224,6,12,5.776,12,5.5V4c0-0.276,0.224-0.5,0.5-0.5S13,3.724,13,4v1.5C13,5.776,12.776,6,12.5,6z"/>
		</g>
		<g>
			<path d="M16.681,2.07l-0.634-1.359c-0.117-0.251-0.008-0.548,0.242-0.664s0.548-0.009,0.664,0.242l0.634,1.359
				c0.117,0.251,0.008,0.548-0.242,0.664C17.092,2.43,16.796,2.317,16.681,2.07z"/>
		</g>
		<g>
			<path d="M18.16,5.243l-0.634-1.36c-0.117-0.25-0.008-0.548,0.242-0.665c0.25-0.117,0.548-0.008,0.665,0.242l0.634,1.36
				c0.117,0.25,0.008,0.547-0.242,0.664C18.572,5.602,18.276,5.49,18.16,5.243z"/>
		</g>
		<g>
			<path d="M7.655,2.312c-0.25-0.116-0.358-0.413-0.242-0.664l0.634-1.359c0.118-0.25,0.416-0.357,0.665-0.242
				C8.961,0.163,9.07,0.46,8.953,0.711L8.319,2.07C8.204,2.317,7.908,2.43,7.655,2.312z"/>
		</g>
		<g>
			<path d="M6.175,5.484C5.925,5.368,5.817,5.07,5.934,4.82l0.634-1.36c0.118-0.25,0.415-0.358,0.664-0.242
				c0.25,0.116,0.358,0.414,0.242,0.665L6.84,5.243C6.724,5.49,6.428,5.602,6.175,5.484z"/>
		</g>
		<g>
			<path d="M14.12,2.096l-0.325-1.464c-0.06-0.269,0.11-0.537,0.38-0.597c0.271-0.06,0.537,0.11,0.597,0.38l0.325,1.464
				c0.06,0.27-0.11,0.537-0.38,0.597C14.438,2.536,14.179,2.359,14.12,2.096z"/>
		</g>
		<g>
			<path d="M14.877,5.513l-0.325-1.464c-0.059-0.27,0.11-0.537,0.38-0.597c0.269-0.059,0.537,0.11,0.597,0.38l0.325,1.464
				c0.06,0.27-0.11,0.537-0.38,0.597C15.195,5.952,14.936,5.777,14.877,5.513z"/>
		</g>
		<g>
			<path d="M10.283,2.476c-0.27-0.06-0.439-0.327-0.38-0.597l0.325-1.464c0.06-0.269,0.322-0.439,0.597-0.38
				c0.269,0.06,0.439,0.327,0.38,0.597L10.88,2.096C10.821,2.359,10.562,2.536,10.283,2.476z"/>
		</g>
		<g>
			<path d="M9.526,5.894c-0.27-0.061-0.439-0.327-0.38-0.597l0.325-1.464c0.06-0.27,0.324-0.438,0.597-0.38
				c0.269,0.06,0.439,0.327,0.38,0.597l-0.325,1.464C10.064,5.777,9.805,5.952,9.526,5.894z"/>
		</g>
	</g>
</g>
<g id="invisible_shape">
	<rect fill="none" width="24" height="24"/>
</g>
</svg>
