<?xml version="1.0" encoding="utf-8"?>
<!-- Generator: Adobe Illustrator 19.2.0, SVG Export Plug-In . SVG Version: 6.00 Build 0)  -->
<svg version="1.1" xmlns="http://www.w3.org/2000/svg" xmlns:xlink="http://www.w3.org/1999/xlink" x="0px" y="0px" width="24px"
	 height="24px" viewBox="0 0 24 24" enable-background="new 0 0 24 24" xml:space="preserve">
<g id="Filled_Icons">
	<g>
		<g>
			<path d="M12.5,15.5c-0.276,0-0.5-0.224-0.5-0.5v-1.5c0-0.276,0.224-0.5,0.5-0.5s0.5,0.224,0.5,0.5V15
				C13,15.276,12.776,15.5,12.5,15.5z"/>
		</g>
		<g>
			<path d="M12.5,19c-0.276,0-0.5-0.224-0.5-0.5V17c0-0.276,0.224-0.5,0.5-0.5S13,16.724,13,17v1.5C13,18.776,12.776,19,12.5,19z"/>
		</g>
		<g>
			<path d="M12.5,22.5c-0.276,0-0.5-0.224-0.5-0.5v-1.5c0-0.276,0.224-0.5,0.5-0.5s0.5,0.224,0.5,0.5V22
				C13,22.276,12.776,22.5,12.5,22.5z"/>
		</g>
		<g>
			<path d="M16.681,15.071l-0.634-1.36c-0.117-0.25-0.008-0.547,0.242-0.664c0.251-0.115,0.548-0.008,0.664,0.242l0.634,1.359
				c0.117,0.25,0.008,0.548-0.242,0.664C17.092,15.431,16.796,15.318,16.681,15.071z"/>
		</g>
		<g>
			<path d="M18.16,18.243l-0.634-1.36c-0.117-0.251-0.008-0.548,0.242-0.665c0.251-0.117,0.548-0.008,0.665,0.242l0.634,1.36
				c0.117,0.251,0.008,0.548-0.242,0.665C18.572,18.603,18.276,18.49,18.16,18.243z"/>
		</g>
		<g>
			<path d="M19.639,21.415l-0.634-1.359c-0.117-0.25-0.008-0.548,0.242-0.664c0.25-0.115,0.547-0.009,0.664,0.241l0.634,1.359
				c0.117,0.251,0.008,0.548-0.242,0.665C20.051,21.774,19.755,21.663,19.639,21.415z"/>
		</g>
		<g>
			<path d="M7.655,15.313c-0.25-0.116-0.358-0.414-0.242-0.664l0.634-1.359c0.117-0.25,0.415-0.357,0.665-0.242
				c0.25,0.117,0.358,0.414,0.242,0.664l-0.634,1.36C8.204,15.318,7.908,15.431,7.655,15.313z"/>
		</g>
		<g>
			<path d="M6.175,18.485c-0.25-0.117-0.358-0.414-0.242-0.665l0.634-1.36c0.117-0.25,0.415-0.358,0.664-0.242
				c0.25,0.116,0.358,0.414,0.242,0.665l-0.634,1.36C6.724,18.49,6.428,18.603,6.175,18.485z"/>
		</g>
		<g>
			<path d="M4.696,21.657c-0.25-0.117-0.358-0.414-0.242-0.665l0.634-1.359c0.117-0.249,0.416-0.356,0.665-0.241
				c0.25,0.116,0.358,0.414,0.242,0.664l-0.634,1.359C5.245,21.663,4.949,21.774,4.696,21.657z"/>
		</g>
		<g>
			<path d="M14.12,15.097l-0.325-1.464c-0.06-0.27,0.11-0.537,0.38-0.597c0.27-0.06,0.537,0.111,0.597,0.38l0.325,1.464
				c0.06,0.269-0.11,0.537-0.38,0.597C14.438,15.536,14.179,15.36,14.12,15.097z"/>
		</g>
		<g>
			<path d="M14.877,18.514l-0.325-1.464c-0.059-0.269,0.11-0.537,0.38-0.596c0.271-0.061,0.537,0.109,0.597,0.379l0.325,1.464
				c0.06,0.27-0.11,0.537-0.38,0.597C15.195,18.953,14.936,18.777,14.877,18.514z"/>
		</g>
		<g>
			<path d="M15.635,21.931l-0.325-1.464c-0.059-0.27,0.11-0.537,0.38-0.597c0.269-0.059,0.537,0.11,0.597,0.38l0.325,1.464
				c0.06,0.27-0.11,0.537-0.38,0.597C15.953,22.37,15.694,22.194,15.635,21.931z"/>
		</g>
		<g>
			<path d="M10.283,15.477c-0.27-0.06-0.439-0.327-0.38-0.597l0.325-1.464c0.06-0.27,0.324-0.44,0.597-0.38
				c0.269,0.06,0.439,0.327,0.38,0.597l-0.325,1.464C10.821,15.36,10.562,15.536,10.283,15.477z"/>
		</g>
		<g>
			<path d="M9.526,18.894c-0.27-0.06-0.439-0.327-0.38-0.597l0.325-1.464c0.06-0.27,0.323-0.439,0.597-0.379
				c0.269,0.06,0.439,0.327,0.38,0.596l-0.325,1.464C10.064,18.777,9.805,18.953,9.526,18.894z"/>
		</g>
		<g>
			<path d="M8.768,22.31c-0.27-0.06-0.439-0.327-0.38-0.597l0.325-1.464c0.06-0.27,0.325-0.438,0.597-0.38
				c0.269,0.06,0.439,0.327,0.38,0.597l-0.325,1.464C9.306,22.194,9.047,22.37,8.768,22.31z"/>
		</g>
		<path d="M12.5,4c0.799,0,1.583,0.092,2.349,0.245l-0.894-1.953C13.873,2.114,13.696,2,13.5,2H13V0.5C13,0.224,12.776,0,12.5,0
			S12,0.224,12,0.5V2h-0.5c-0.196,0-0.373,0.114-0.455,0.292l-0.894,1.953C10.917,4.092,11.701,4,12.5,4z"/>
		<path d="M21.821,10.101C19.438,7.12,16.889,5,12.5,5c-4.416,0-6.97,2.162-9.391,5.188C2.848,10.515,3.082,11,3.5,11h18
			c0.007,0,0.013,0,0.02,0C21.998,11,22.203,10.389,21.821,10.101z"/>
	</g>
</g>
<g id="invisible_shape">
	<rect fill="none" width="24" height="24"/>
</g>
</svg>
