<?xml version="1.0" encoding="utf-8"?>
<!-- Generator: Adobe Illustrator 19.2.0, SVG Export Plug-In . SVG Version: 6.00 Build 0)  -->
<svg version="1.1" xmlns="http://www.w3.org/2000/svg" xmlns:xlink="http://www.w3.org/1999/xlink" x="0px" y="0px" width="24px"
	 height="24px" viewBox="0 0 24 24" enable-background="new 0 0 24 24" xml:space="preserve">
<g id="Filled_Icons">
	<g>
		<path d="M23.5,11H19v5h4.5c0.276,0,0.5-0.224,0.5-0.5v-4C24,11.224,23.776,11,23.5,11z"/>
		<path d="M3,11.5v4C3,15.776,3.224,16,3.5,16H18v-5H3.5C3.224,11,3,11.224,3,11.5z"/>
		<path d="M1.5,11C1.224,11,1,11.224,1,11.5v4C1,15.776,1.224,16,1.5,16S2,15.776,2,15.5v-4C2,11.224,1.776,11,1.5,11z"/>
		<path d="M1,6.5C1,5.122,2.121,4,3.5,4C5.43,4,7,2.431,7,0.5C7,0.224,6.776,0,6.5,0S6,0.224,6,0.5C6,1.879,4.878,3,3.5,3
			C1.57,3,0,4.571,0,6.5v2C0,8.776,0.224,9,0.5,9S1,8.776,1,8.5V6.5z"/>
		<path d="M5.5,6C7.43,6,9,4.431,9,2.5C9,2.224,8.776,2,8.5,2S8,2.224,8,2.5C8,3.879,6.878,5,5.5,5C3.57,5,2,6.571,2,8.5
			C2,8.776,2.224,9,2.5,9S3,8.776,3,8.5C3,7.122,4.121,6,5.5,6z"/>
	</g>
</g>
<g id="invisible_shape">
	<rect fill="none" width="24" height="24"/>
</g>
</svg>
