<?xml version="1.0" encoding="utf-8"?>
<!-- Generator: Adobe Illustrator 19.2.0, SVG Export Plug-In . SVG Version: 6.00 Build 0)  -->
<svg version="1.1" xmlns="http://www.w3.org/2000/svg" xmlns:xlink="http://www.w3.org/1999/xlink" x="0px" y="0px" width="24px"
	 height="24px" viewBox="0 0 24 24" enable-background="new 0 0 24 24" xml:space="preserve">
<g id="Filled_Icons">
	<g>
		<polygon points="10.121,16 18,16 18,11.01 15.121,11.01 		"/>
		<path d="M23.854,0.864c0.049-0.049,0.085-0.105,0.109-0.166C23.986,0.64,24,0.577,24,0.51c0-0.066-0.014-0.129-0.037-0.188
			c-0.024-0.061-0.061-0.117-0.109-0.165c-0.049-0.049-0.106-0.085-0.166-0.11C23.629,0.023,23.566,0.01,23.5,0.01
			s-0.13,0.014-0.188,0.038c-0.061,0.025-0.116,0.061-0.165,0.11l-23,23c-0.457,0.452,0.22,1.178,0.701,0.71
			c0.002-0.001,0.004-0.002,0.006-0.003L23.854,0.864z"/>
		<path d="M3,11.51v3.99C3,15.776,3.224,16,3.5,16h2.379l5-4.99H3.5C3.224,11.01,3,11.233,3,11.51z"/>
		<path d="M23.5,11.01H19V16h4.5c0.276,0.01,0.5-0.214,0.5-0.49v-4C24,11.233,23.776,11.01,23.5,11.01z"/>
		<path d="M1,11.51v3.99C1,15.776,1.224,16,1.5,16S2,15.776,2,15.5v-3.99c0-0.276-0.224-0.5-0.5-0.5S1,11.233,1,11.51z"/>
		<path d="M0.5,9.01c0.276,0,0.5-0.224,0.5-0.5v-2c0-1.378,1.121-2.5,2.5-2.5C5.43,4.01,7,2.44,7,0.51c0-0.276-0.224-0.5-0.5-0.5
			S6,0.233,6,0.51c0,1.379-1.122,2.5-2.5,2.5C1.57,3.01,0,4.581,0,6.51v2C0,8.786,0.224,9.01,0.5,9.01z"/>
		<path d="M2,8.51c0,0.276,0.224,0.5,0.5,0.5S3,8.786,3,8.51c0-1.378,1.121-2.5,2.5-2.5C7.43,6.01,9,4.44,9,2.51
			c0-0.276-0.224-0.5-0.5-0.5S8,2.233,8,2.51c0,1.379-1.122,2.5-2.5,2.5C3.57,5.01,2,6.581,2,8.51z"/>
	</g>
</g>
<g id="invisible_shape">
	<rect fill="none" width="24" height="24"/>
</g>
</svg>
