<?xml version="1.0" encoding="utf-8"?>
<!-- Generator: Adobe Illustrator 19.2.0, SVG Export Plug-In . SVG Version: 6.00 Build 0)  -->
<svg version="1.1" xmlns="http://www.w3.org/2000/svg" xmlns:xlink="http://www.w3.org/1999/xlink" x="0px" y="0px" width="24px"
	 height="24px" viewBox="0 0 24 24" enable-background="new 0 0 24 24" xml:space="preserve">
<g id="Filled_Icons">
	<g>
		<path d="M23.5,7h-7C16.224,7,16,7.224,16,7.5V11h-3.5c-0.276,0-0.5,0.224-0.5,0.5V15H8.5C8.224,15,8,15.224,8,15.5V19H4.5
			C4.224,19,4,19.224,4,19.5V23H0.5C0.224,23,0,23.224,0,23.5S0.224,24,0.5,24h23c0.276,0,0.5-0.224,0.5-0.5v-16
			C24,7.224,23.776,7,23.5,7z"/>
		<path d="M0.5,12c0.128,0,0.256-0.049,0.354-0.146L11,1.707V5.5C11,5.776,11.224,6,11.5,6S12,5.776,12,5.5v-5
			c0-0.065-0.014-0.13-0.038-0.19c-0.051-0.123-0.148-0.221-0.271-0.271C11.63,0.013,11.565,0,11.5,0h-5C6.224,0,6,0.224,6,0.5
			S6.224,1,6.5,1h3.793L0.147,11.146c-0.195,0.195-0.195,0.512,0,0.707C0.244,11.951,0.372,12,0.5,12z"/>
	</g>
</g>
<g id="invisible_shape">
	<rect fill="none" width="24" height="24"/>
</g>
</svg>
