<?xml version="1.0" encoding="utf-8"?>
<!-- Generator: Adobe Illustrator 19.2.0, SVG Export Plug-In . SVG Version: 6.00 Build 0)  -->
<svg version="1.1" xmlns="http://www.w3.org/2000/svg" xmlns:xlink="http://www.w3.org/1999/xlink" x="0px" y="0px" width="24px"
	 height="24px" viewBox="0 0 24 24" enable-background="new 0 0 24 24" xml:space="preserve">
<g id="Filled_Icons">
	<g>
		<path d="M23.5,23H20v-3.5c0-0.276-0.224-0.5-0.5-0.5H16v-3.5c0-0.276-0.224-0.5-0.5-0.5H12v-3.5c0-0.276-0.224-0.5-0.5-0.5H8V7.5
			C8,7.224,7.776,7,7.5,7h-7C0.224,7,0,7.224,0,7.5v16C0,23.776,0.224,24,0.5,24h23c0.276,0,0.5-0.224,0.5-0.5S23.776,23,23.5,23z"
			/>
		<path d="M23.5,6C23.224,6,23,6.224,23,6.5v3.793L12.854,0.147c-0.195-0.195-0.512-0.195-0.707,0s-0.195,0.512,0,0.707L22.293,11
			H18.5c-0.276,0-0.5,0.224-0.5,0.5s0.224,0.5,0.5,0.5h5c0.065,0,0.13-0.013,0.191-0.038c0.122-0.051,0.22-0.148,0.271-0.271
			C23.986,11.63,24,11.565,24,11.5v-5C24,6.224,23.776,6,23.5,6z"/>
	</g>
</g>
<g id="invisible_shape">
	<rect fill="none" width="24" height="24"/>
</g>
</svg>
