<?xml version="1.0" encoding="utf-8"?>
<!-- Generator: Adobe Illustrator 19.2.0, SVG Export Plug-In . SVG Version: 6.00 Build 0)  -->
<svg version="1.1" xmlns="http://www.w3.org/2000/svg" xmlns:xlink="http://www.w3.org/1999/xlink" x="0px" y="0px" width="24px"
	 height="24px" viewBox="0 0 24 24" enable-background="new 0 0 24 24" xml:space="preserve">
<g id="Filled_Icons">
	<g>
		<g>
			<g>
				<circle cx="8.5" cy="2.5" r="2.5"/>
				<path d="M12,13.882v-0.707l1.18-1.475c0.548-0.685,0.697-1.619,0.389-2.439l-0.614-1.639C12.591,6.652,11.65,6,10.614,6H6.149
					C5.263,6,4.436,6.476,3.99,7.24L2.639,9.555l-1.343,0.72C0.805,10.537,0.5,11.046,0.5,11.602c0,1.031,1.014,1.754,1.983,1.43
					l1.675-0.558c0.074-0.024,0.141-0.065,0.195-0.121L6,10.707v4.207l-2.471,6.918C3.413,22.158,3.656,22.5,4,22.5h2
					c0.189,0,0.362-0.106,0.447-0.276l2.638-5.276L10.1,18.3c0.136,0.181,0.378,0.247,0.585,0.165l2.5-1
					c0.271-0.109,0.393-0.426,0.262-0.688L12,13.882z"/>
			</g>
		</g>
		<path d="M23.5,11h-4c-0.276,0-0.5,0.224-0.5,0.5V15h-3.5c-0.276,0-0.5,0.224-0.5,0.5V19h-3.5c-0.276,0-0.5,0.224-0.5,0.5v4
			c0,0.276,0.224,0.5,0.5,0.5h12c0.276,0,0.5-0.224,0.5-0.5v-12C24,11.224,23.776,11,23.5,11z M22.854,16.854L17.707,22H19.5
			c0.276,0,0.5,0.224,0.5,0.5S19.776,23,19.5,23h-3c-0.276,0-0.5-0.224-0.5-0.5v-3c0-0.276,0.224-0.5,0.5-0.5s0.5,0.224,0.5,0.5
			v1.793l5.146-5.146c0.195-0.195,0.512-0.195,0.707,0C23.049,16.342,23.049,16.658,22.854,16.854z"/>
	</g>
</g>
<g id="invisible_shape">
	<rect fill="none" width="24" height="24"/>
</g>
</svg>
