<?xml version="1.0" encoding="utf-8"?>
<!-- Generator: Adobe Illustrator 19.2.0, SVG Export Plug-In . SVG Version: 6.00 Build 0)  -->
<svg version="1.1" xmlns="http://www.w3.org/2000/svg" xmlns:xlink="http://www.w3.org/1999/xlink" x="0px" y="0px" width="24px"
	 height="24px" viewBox="0 0 24 24" enable-background="new 0 0 24 24" xml:space="preserve">
<g id="Filled_Icons">
	<g>
		<path d="M23.5,23c-1.021,0-2.267-1.364-2.661-1.89c-0.201-0.269-0.666-0.24-0.837,0.047c-0.043,0.074-1.084,1.808-3.189,1.808
			c-2.018,0-3.181-1.804-3.191-1.821c-0.186-0.295-0.684-0.286-0.86,0.015c-0.04,0.068-0.95,1.548-2.762,1.764V16
			c0-4.359,5.566-5.874,6.063-6H22c0.276,0,0.5-0.224,0.5-0.5S22.276,9,22,9H0.5C0.224,9,0,9.224,0,9.5v14C0,23.776,0.224,24,0.5,24
			S1,23.776,1,23.5V22h3v1.5C4,23.776,4.224,24,4.5,24h5c0.072,0,0.14-0.017,0.202-0.044c1.777-0.049,2.934-1.054,3.504-1.721
			c0.602,0.679,1.822,1.729,3.607,1.729c1.867,0,3.068-1.063,3.647-1.747C21.075,22.901,22.257,24,23.5,24
			c0.276,0,0.5-0.224,0.5-0.5S23.776,23,23.5,23z M4,15H1v-2h3V15z M1,16h3v2H1V16z M4,10v2H1v-2H4z M1,21v-2h3v2H1z"/>
		<path d="M4.5,8h7C11.776,8,12,7.776,12,7.5v-2C12,5.224,11.776,5,11.5,5h-7C4.224,5,4,5.224,4,5.5v2C4,7.776,4.224,8,4.5,8z"/>
	</g>
</g>
<g id="invisible_shape">
	<rect fill="none" width="24" height="24"/>
</g>
</svg>
