<?xml version="1.0" encoding="utf-8"?>
<!-- Generator: Adobe Illustrator 19.2.0, SVG Export Plug-In . SVG Version: 6.00 Build 0)  -->
<svg version="1.1" xmlns="http://www.w3.org/2000/svg" xmlns:xlink="http://www.w3.org/1999/xlink" x="0px" y="0px" width="24px"
	 height="24px" viewBox="0 0 24 24" enable-background="new 0 0 24 24" xml:space="preserve">
<g id="Filled_Icons">
	<g>
		<path d="M9.958,5.006c0.967,0,2-0.263,2-1s-1.033-1-2-1s-2,0.263-2,1S8.991,5.006,9.958,5.006z"/>
		<path d="M21.986,12.335c0.011-2.101-0.18-4.521-0.745-7.153c-0.209-1-0.141-0.602-0.293-1.276c-0.103-2.194-3.571-3.9-7.99-3.9
			c-4.418,0-7.885,1.705-7.989,3.899C4.951,3.97,4.813,4.58,4.696,5.174C4.16,7.845,3.984,10.299,3.999,12.42
			c0,0.004,0,0.008,0,0.012c0.033,4.536,0.922,7.529,0.978,7.712c0.045,0.157,1.182,3.862,7.981,3.862s7.936-3.705,7.975-3.843
			c0.005-0.016,0.017-0.051,0.032-0.103c0.175-0.562,0.998-3.46,1.021-7.699C21.986,12.352,21.986,12.344,21.986,12.335z
			 M5.331,7.387c0.916,1.303,4.081,2.619,7.627,2.619c3.641,0,6.828-1.324,7.673-2.607c0.239,1.62,0.335,3.138,0.344,4.526
			c-1.55,1.237-4.613,2.081-8.017,2.081c-3.314,0-6.355-0.851-7.949-2.129C5.019,10.5,5.109,8.994,5.331,7.387z M12.958,17.006
			c2.768,0,6.088-0.507,7.876-1.835c-0.241,2.538-0.712,4.218-0.828,4.605c-1.985,0.869-4.606,1.23-7.006,1.23
			c-2.438,0-5.103-0.373-7.1-1.271c-0.121-0.437-0.539-2.075-0.76-4.528C6.939,16.506,10.218,17.006,12.958,17.006z M12.958,1.006
			c4.125,0,7,1.581,7,3c0,1.419-2.875,3-7,3s-7-1.581-7-3C5.958,2.587,8.833,1.006,12.958,1.006z"/>
	</g>
</g>
<g id="invisible_shape">
	<rect fill="none" width="24" height="24"/>
</g>
</svg>
