<?xml version="1.0" encoding="utf-8"?>
<!-- Generator: Adobe Illustrator 19.2.0, SVG Export Plug-In . SVG Version: 6.00 Build 0)  -->
<svg version="1.1" xmlns="http://www.w3.org/2000/svg" xmlns:xlink="http://www.w3.org/1999/xlink" x="0px" y="0px" width="24px"
	 height="24px" viewBox="0 0 24 24" enable-background="new 0 0 24 24" xml:space="preserve">
<g id="Filled_Icons">
	<path d="M8.229,11.695c0.921,2.178,1.244,7.243,0.324,9.082C8.519,20.846,8.5,20.923,8.5,21c0,0-0.5,0.628-0.5,1.5v1
		C8,23.776,8.224,24,8.5,24h8c0.276,0,0.5-0.224,0.5-0.5v-1c0-0.872-0.5-1.5-0.5-1.5c0-0.041-0.005-0.081-0.015-0.121
		c-0.458-1.83-0.651-6.966,0.286-9.186c0.506-1.2,0.906-2.193,1.233-3.145C18.031,9.352,18.69,10,19.5,10c0.827,0,1.5-0.673,1.5-1.5
		v-5C21,1.57,19.43,0,17.5,0L6.891,0.001c-1.253,0.02-1.9,1.007-1.893,1.971C5.004,2.693,5.365,3.416,6.046,3.77
		C6.22,6.875,7.023,8.81,8.229,11.695z M7.06,4h7.992C15.018,4.164,15,4.331,15,4.5c0,0.547,0.208,1.108,0.501,1.5H7.323
		C7.195,5.365,7.109,4.713,7.06,4z M15,9.5c0,0.276-0.224,0.5-0.5,0.5S14,9.776,14,9.5C14,9.224,14.224,9,14.5,9S15,9.224,15,9.5z
		 M12,11.5c0-0.276,0.224-0.5,0.5-0.5s0.5,0.224,0.5,0.5c0,0.276-0.224,0.5-0.5,0.5S12,11.776,12,11.5z M12.5,15
		c0,0.276-0.224,0.5-0.5,0.5s-0.5-0.224-0.5-0.5c0-0.276,0.224-0.5,0.5-0.5S12.5,14.724,12.5,15z M10.5,8.5
		C10.5,8.776,10.276,9,10,9S9.5,8.776,9.5,8.5C9.5,8.224,9.724,8,10,8S10.5,8.224,10.5,8.5z M16,23H9v-0.5
		c0-0.827,0.701-1.5,1.5-1.5h4c0.796,0,1.5,0.67,1.5,1.5V23z M20,8.5C20,8.776,19.775,9,19.5,9S19,8.776,19,8.5V6.223
		c0-0.385-0.42-0.625-0.752-0.432C18.049,5.907,17.699,6,17.5,6C16.673,6,16,5.327,16,4.5c0-0.252,0.07-0.498,0.215-0.753
		C16.403,3.415,16.164,3,15.78,3h-0.003H7C6.216,3,6.001,2.349,5.998,1.963C5.994,1.526,6.231,1.011,6.948,1H17.5
		C18.879,1,20,2.122,20,3.5V8.5z"/>
</g>
<g id="invisible_shape">
	<rect fill="none" width="24" height="24"/>
</g>
</svg>
