<?xml version="1.0" encoding="utf-8"?>
<!-- Generator: Adobe Illustrator 19.2.0, SVG Export Plug-In . SVG Version: 6.00 Build 0)  -->
<svg version="1.1" xmlns="http://www.w3.org/2000/svg" xmlns:xlink="http://www.w3.org/1999/xlink" x="0px" y="0px" width="24px"
	 height="24px" viewBox="0 0 24 24" enable-background="new 0 0 24 24" xml:space="preserve">
<g id="Filled_Icons">
	<g>
		<path d="M19,21H4c-1.122,0-2,0.659-2,1.5C2,23.343,2.878,24,4,24h15c1.121,0,2-0.657,2-1.5C21,21.659,20.121,21,19,21z"/>
		<path d="M20.532,11.003C21.992,10.259,23,8.749,23,7c0-2.481-2.019-4.5-4.5-4.5c-0.645,0-1.279,0.14-1.864,0.409
			C15.553,1.102,13.629,0,11.5,0C9.37,0,7.445,1.102,6.363,2.909C5.779,2.64,5.144,2.5,4.5,2.5C2.019,2.5,0,4.519,0,7
			c0,2.482,2.019,4.5,4.5,4.5c0,0.573,0.164,1.108,0.443,1.564L4.004,19.5c-0.02,0.143,0.024,0.287,0.119,0.396
			C4.218,20.005,4.356,20.067,4.5,20h14c0.142,0.067,0.277,0.007,0.372-0.099c0.095-0.106,0.141-0.247,0.125-0.389L18.893,19h1.752
			C21.943,19,23,17.878,23,16.5v-3C23,12.133,21.896,11.021,20.532,11.003z M8.497,18.556C8.469,18.812,8.252,19,8,19
			c-0.019,0-0.037,0-0.056-0.003c-0.274-0.03-0.472-0.277-0.441-0.552l0.442-3.985c0.377-0.058,0.729-0.18,1.047-0.364L8.497,18.556
			z M12,18.5c0,0.276-0.224,0.5-0.5,0.5S11,18.776,11,18.5v-5c0-0.276,0.224-0.5,0.5-0.5s0.5,0.224,0.5,0.5V18.5z M15.05,18.998
			C15.032,19,15.016,19,14.999,19c-0.254,0-0.471-0.192-0.497-0.449l-0.5-5c-0.027-0.274,0.173-0.521,0.448-0.548
			c0.277-0.025,0.519,0.174,0.547,0.448l0.5,5C15.524,18.726,15.324,18.971,15.05,18.998z M15.558,9.203h-0.001
			c-0.141,0-0.274,0.06-0.368,0.164c-1.261,1.379-3.218,1.967-5.072,1.436c-0.158-0.047-0.328-0.011-0.455,0.093
			C9.534,11,9.467,11.159,9.479,11.323C9.584,12.633,8.559,13.5,7.5,13.5c-1.103,0-2-0.896-2-2c0-0.139,0.017-0.28,0.052-0.432
			c0.036-0.159-0.008-0.327-0.118-0.449c-0.096-0.104-0.23-0.163-0.369-0.163c-0.006,0-0.352,0.043-0.564,0.043
			C2.57,10.5,1,8.93,1,7s1.57-3.5,3.5-3.5c0.635,0,1.26,0.177,1.807,0.509C6.427,4.082,6.572,4.1,6.706,4.061
			c0.135-0.04,0.247-0.134,0.308-0.26C7.863,2.073,9.582,1,11.5,1c1.917,0,3.635,1.073,4.484,2.801
			c0.063,0.126,0.174,0.22,0.309,0.26c0.135,0.038,0.279,0.021,0.399-0.052C17.24,3.677,17.865,3.5,18.5,3.5C20.43,3.5,22,5.07,22,7
			s-1.57,3.5-3.5,3.5c-0.987,0-1.901-0.403-2.574-1.135C15.831,9.263,15.697,9.203,15.558,9.203z M22,16.5
			c0,0.827-0.608,1.5-1.355,1.5h-1.863l-0.664-6H19.5h1c0.827,0,1.5,0.673,1.5,1.5V16.5z"/>
	</g>
</g>
<g id="invisible_shape">
	<rect fill="none" width="24" height="24"/>
</g>
</svg>
