<?xml version="1.0" encoding="utf-8"?>
<!-- Generator: Adobe Illustrator 19.2.0, SVG Export Plug-In . SVG Version: 6.00 Build 0)  -->
<svg version="1.1" xmlns="http://www.w3.org/2000/svg" xmlns:xlink="http://www.w3.org/1999/xlink" x="0px" y="0px" width="24px"
	 height="24px" viewBox="0 0 24 24" enable-background="new 0 0 24 24" xml:space="preserve">
<g id="Filled_Icons">
	<g>
		<path d="M5.515,17c0.027,1.066,0.137,2.106,0.266,3h12.454c0.129-0.894,0.238-1.934,0.266-3H5.515z"/>
		<path d="M14,0.5C14.008,0.225,13.783,0,13.508,0h-3c-0.276,0-0.5,0.225-0.5,0.5V3H14V0.5z"/>
		<path d="M15.788,11.665C14.872,10.657,14.008,9.706,14,9V4h-3.992v5c0,0.706-0.865,1.657-1.78,2.665
			C7.069,12.938,5.774,14.367,5.547,16h12.922C18.24,14.367,16.945,12.938,15.788,11.665z"/>
		<path d="M6.28,22.652C6.469,23.409,7.227,24,8.008,24h8c0.779,0,1.539-0.591,1.727-1.348c0.015-0.058,0.172-0.694,0.341-1.652
			H5.939C6.108,21.958,6.266,22.595,6.28,22.652z"/>
	</g>
</g>
<g id="invisible_shape">
	<rect fill="none" width="24" height="24"/>
</g>
</svg>
