<?xml version="1.0" encoding="utf-8"?>
<!-- Generator: Adobe Illustrator 19.2.0, SVG Export Plug-In . SVG Version: 6.00 Build 0)  -->
<svg version="1.1" xmlns="http://www.w3.org/2000/svg" xmlns:xlink="http://www.w3.org/1999/xlink" x="0px" y="0px" width="24px"
	 height="24px" viewBox="0 0 24 24" enable-background="new 0 0 24 24" xml:space="preserve">
<g id="Filled_Icons">
	<g>
		<path d="M8.5,4h6C14.776,4,15,3.777,15,3.5v-3C15,0.225,14.776,0,14.5,0h-6C8.224,0,8,0.225,8,0.5v3C8,3.777,8.224,4,8.5,4z"/>
		<path d="M14,7.65V5.5C14,5.225,13.776,5,13.5,5h-4C9.224,5,9,5.225,9,5.5v2.15c-2.655,1.028-4,3.332-4,6.85v8
			C5,23.329,5.673,24,6.5,24h10c0.827,0,1.5-0.671,1.5-1.5v-8C18,10.982,16.654,8.679,14,7.65z M15,15.5c0,0.277-0.224,0.5-0.5,0.5
			h-6C8.224,16,8,15.777,8,15.5v-3C8,12.225,8.224,12,8.5,12h6c0.276,0,0.5,0.225,0.5,0.5V15.5z"/>
	</g>
</g>
<g id="invisible_shape">
	<rect fill="none" width="24" height="24"/>
</g>
</svg>
