<?xml version="1.0" encoding="utf-8"?>
<!-- Generator: Adobe Illustrator 19.2.0, SVG Export Plug-In . SVG Version: 6.00 Build 0)  -->
<svg version="1.1" xmlns="http://www.w3.org/2000/svg" xmlns:xlink="http://www.w3.org/1999/xlink" x="0px" y="0px" width="24px"
	 height="24px" viewBox="0 0 24 24" enable-background="new 0 0 24 24" xml:space="preserve">
<g id="Filled_Icons">
	<g>
		<path d="M8.5,4h6C14.776,4,15,3.776,15,3.5v-3C15,0.224,14.776,0,14.5,0h-6C8.224,0,8,0.224,8,0.5v3C8,3.776,8.224,4,8.5,4z"/>
		<path d="M14,7.649V5H9v2.649c-2.655,1.03-4,3.332-4,6.851v8C5,23.327,5.673,24,6.5,24h10c0.827,0,1.5-0.673,1.5-1.5v-8
			C18,10.981,16.655,8.679,14,7.649z M11.792,20.057c-0.087,0.063-0.189,0.094-0.292,0.094s-0.205-0.031-0.292-0.094
			c-0.38-0.273-3.708-2.729-3.708-4.793c0-1.511,1.136-2.414,2.233-2.414c0.593,0,1.281,0.271,1.767,0.962
			c0.485-0.691,1.174-0.962,1.767-0.962c1.098,0,2.233,0.903,2.233,2.414C15.5,17.327,12.172,19.783,11.792,20.057z"/>
	</g>
</g>
<g id="invisible_shape">
	<rect fill="none" width="24" height="24"/>
</g>
</svg>
