<?xml version="1.0" encoding="utf-8"?>
<!-- Generator: Adobe Illustrator 19.2.0, SVG Export Plug-In . SVG Version: 6.00 Build 0)  -->
<svg version="1.1" xmlns="http://www.w3.org/2000/svg" xmlns:xlink="http://www.w3.org/1999/xlink" x="0px" y="0px" width="24px"
	 height="24px" viewBox="0 0 24 24" enable-background="new 0 0 24 24" xml:space="preserve">
<g id="Filled_Icons">
	<g>
		<path d="M17.854,8.146L15.707,6H16c0.276,0,0.5-0.224,0.5-0.5S16.276,5,16,5h-5.793L8.354,3.145c-0.195-0.194-0.512-0.194-0.707,0
			c-0.195,0.195-0.195,0.512,0,0.707L8.793,5H7C6.724,5,6.5,5.224,6.5,5.5S6.724,6,7,6h0.293L5.147,8.146C5.053,8.241,5,8.367,5,8.5
			V22c0,0.133,0.053,0.261,0.147,0.354l1.5,1.5C6.74,23.948,6.867,24,7,24h9c0.133,0,0.26-0.052,0.354-0.146l1.5-1.5
			C17.947,22.261,18,22.133,18,22V8.5C18,8.367,17.947,8.241,17.854,8.146z M14.44,13.736l-3.5,6.5
			c-0.113,0.21-0.354,0.304-0.563,0.248C10.155,20.429,10,20.229,10,20v-4H8c-0.183,0-0.351-0.1-0.438-0.259
			c-0.088-0.16-0.082-0.355,0.017-0.509l3.5-5.5c0.119-0.189,0.348-0.276,0.561-0.213C11.852,9.582,12,9.777,12,10v3h2
			c0.176,0,0.339,0.093,0.429,0.243C14.519,13.394,14.523,13.582,14.44,13.736z"/>
		<circle cx="14" cy="1.5" r="0.5"/>
		<circle cx="13" cy="3.5" r="0.5"/>
		<circle cx="12" cy="0.5" r="0.5"/>
	</g>
</g>
<g id="invisible_shape">
	<rect fill="none" width="24" height="24"/>
</g>
</svg>
