<?xml version="1.0" encoding="utf-8"?>
<!-- Generator: Adobe Illustrator 19.2.0, SVG Export Plug-In . SVG Version: 6.00 Build 0)  -->
<svg version="1.1" xmlns="http://www.w3.org/2000/svg" xmlns:xlink="http://www.w3.org/1999/xlink" x="0px" y="0px" width="24px"
	 height="24px" viewBox="0 0 24 24" enable-background="new 0 0 24 24" xml:space="preserve">
<g id="Filled_Icons">
	<g>
		<path d="M17.854,8.146L15.707,6H16c0.276,0,0.5-0.224,0.5-0.5S16.276,5,16,5h-5.793L8.354,3.145c-0.195-0.194-0.512-0.194-0.707,0
			c-0.195,0.195-0.195,0.512,0,0.707L8.793,5H7C6.724,5,6.5,5.224,6.5,5.5S6.724,6,7,6h0.293L5.147,8.146C5.053,8.241,5,8.367,5,8.5
			V22c0,0.133,0.053,0.261,0.147,0.354l1.5,1.5C6.74,23.948,6.867,24,7,24h9c0.133,0,0.26-0.052,0.354-0.146l1.5-1.5
			C17.947,22.261,18,22.133,18,22V8.5C18,8.367,17.947,8.241,17.854,8.146z M9,21.5C9,21.776,8.776,22,8.5,22S8,21.776,8,21.5v-4
			C8,17.224,8.224,17,8.5,17S9,17.224,9,17.5V21.5z M11,21.5c0,0.276-0.224,0.5-0.5,0.5S10,21.776,10,21.5V20
			c0-0.276,0.224-0.5,0.5-0.5S11,19.724,11,20V21.5z M11.5,16c-1.76,0-3.217-1.308-3.461-3h6.921C14.716,14.692,13.259,16,11.5,16z
			 M8.039,12C8.283,10.307,9.74,9,11.5,9c1.759,0,3.216,1.307,3.46,3H8.039z"/>
		<circle cx="14" cy="1.5" r="0.5"/>
		<circle cx="13" cy="3.5" r="0.5"/>
		<circle cx="12" cy="0.5" r="0.5"/>
	</g>
</g>
<g id="invisible_shape">
	<rect fill="none" width="24" height="24"/>
</g>
</svg>
