<?xml version="1.0" encoding="utf-8"?>
<!-- Generator: Adobe Illustrator 19.2.0, SVG Export Plug-In . SVG Version: 6.00 Build 0)  -->
<svg version="1.1" xmlns="http://www.w3.org/2000/svg" xmlns:xlink="http://www.w3.org/1999/xlink" x="0px" y="0px" width="24px"
	 height="24px" viewBox="0 0 24 24" enable-background="new 0 0 24 24" xml:space="preserve">
<g id="Filled_Icons">
	<path d="M20.5,2C18.57,2,17,3.57,17,5.5c0,0.17,0.018,0.336,0.041,0.5H7.727l-3.5-4H0v1h3.773l2.625,3H4.5
		C4.298,6,4.115,6.122,4.038,6.31C3.96,6.497,4.003,6.711,4.147,6.853L12,14.708V23H8.5C8.224,23,8,23.225,8,23.5
		C8,23.776,8.224,24,8.5,24h8c0.276,0,0.5-0.224,0.5-0.5c0-0.275-0.224-0.5-0.5-0.5H13v-8.292l6.032-6.033
		C19.49,8.887,19.99,9,20.5,9C22.43,9,24,7.431,24,5.5C24,3.57,22.43,2,20.5,2z M20.5,8c-0.237,0-0.471-0.033-0.695-0.098
		l1.049-1.049c0.143-0.143,0.186-0.356,0.108-0.544C20.885,6.122,20.702,6,20.5,6h-2.445C18.021,5.838,18,5.671,18,5.5
		C18,4.122,19.121,3,20.5,3C21.878,3,23,4.122,23,5.5C23,6.879,21.878,8,20.5,8z"/>
</g>
<g id="invisible_shape">
	<rect fill="none" width="24" height="24"/>
</g>
</svg>
