<?xml version="1.0" encoding="utf-8"?>
<!-- Generator: Adobe Illustrator 19.2.0, SVG Export Plug-In . SVG Version: 6.00 Build 0)  -->
<svg version="1.1" xmlns="http://www.w3.org/2000/svg" xmlns:xlink="http://www.w3.org/1999/xlink" x="0px" y="0px" width="24px"
	 height="24px" viewBox="0 0 24 24" enable-background="new 0 0 24 24" xml:space="preserve">
<g id="Filled_Icons">
	<g>
		<path d="M10.315,5.863c-1.411,1.411-1.688,3.559-0.908,5.455c-1.897-0.778-4.044-0.503-5.455,0.909
			c-1.938,1.939-1.761,5.27,0.396,7.427c2.158,2.159,5.49,2.333,7.428,0.396c1.411-1.411,1.687-3.558,0.907-5.456
			c2.094,0.864,4.148,0.4,5.456-0.909c1.917-1.915,1.794-5.236-0.396-7.427C15.587,4.102,12.253,3.925,10.315,5.863z M10.314,17.417
			c-0.518,0.257-0.936,0.676-1.193,1.215c-0.118,0.248-0.414,0.355-0.667,0.236c-0.249-0.119-0.354-0.418-0.235-0.667
			c0.352-0.74,0.934-1.324,1.65-1.68c0.245-0.123,0.547-0.022,0.671,0.225C10.661,16.994,10.561,17.294,10.314,17.417z
			 M16.678,11.053c-0.514,0.256-0.939,0.68-1.192,1.214c-0.117,0.247-0.413,0.357-0.666,0.238c-0.25-0.118-0.356-0.416-0.238-0.666
			c0.336-0.709,0.906-1.311,1.651-1.681c0.245-0.124,0.548-0.023,0.67,0.224C17.025,10.629,16.925,10.929,16.678,11.053z"/>
		<path d="M23.414,0.586c-0.756-0.756-2.072-0.756-2.828,0c-0.656,0.657-0.753,1.658-0.303,2.425l-1.637,1.636
			c-0.195,0.195-0.195,0.512,0,0.707c0.195,0.195,0.512,0.195,0.707,0l1.636-1.636C21.294,3.898,21.638,4,22,4
			c0.534,0,1.036-0.208,1.414-0.586C24.193,2.635,24.193,1.366,23.414,0.586z M22.707,2.707c-0.379,0.378-1.035,0.378-1.414,0
			c-0.39-0.39-0.39-1.024,0-1.414c0.392-0.391,1.022-0.391,1.414,0C23.097,1.683,23.097,2.317,22.707,2.707z"/>
		<g>
			<path d="M1.146,22.854c-0.195-0.195-0.195-0.512,0-0.707l2-2c0.195-0.195,0.512-0.195,0.707,0c0.195,0.195,0.195,0.512,0,0.707
				l-2,2C1.658,23.049,1.342,23.049,1.146,22.854z"/>
		</g>
	</g>
</g>
<g id="invisible_shape">
	<rect fill="none" width="24" height="24"/>
</g>
</svg>
