<?xml version="1.0" encoding="utf-8"?>
<!-- Generator: Adobe Illustrator 19.2.0, SVG Export Plug-In . SVG Version: 6.00 Build 0)  -->
<svg version="1.1" xmlns="http://www.w3.org/2000/svg" xmlns:xlink="http://www.w3.org/1999/xlink" x="0px" y="0px" width="24px"
	 height="24px" viewBox="0 0 24 24" enable-background="new 0 0 24 24" xml:space="preserve">
<g id="Filled_Icons">
	<g>
		<path d="M17,23h-2v-2H9v2H7c-0.276,0-0.5,0.224-0.5,0.5S6.724,24,7,24h10c0.276,0,0.5-0.224,0.5-0.5S17.276,23,17,23z"/>
		<path d="M6.606,4.575L8.92,20h6.16l2.314-15.425V4.573l0.6-3.998c0.021-0.145-0.021-0.29-0.115-0.4C17.784,0.064,17.646,0,17.5,0
			h-11C6.354,0,6.216,0.064,6.121,0.175c-0.095,0.11-0.137,0.256-0.115,0.4l0.6,3.998V4.575z M12,12c-1.654,0-3-1.346-3-3
			c0-1.653,1.346-3,3-3s3,1.347,3,3C15,10.654,13.654,12,12,12z M16.919,1l-0.45,3H7.531l-0.45-3H16.919z"/>
	</g>
</g>
<g id="invisible_shape">
	<rect fill="none" width="24" height="24"/>
</g>
</svg>
