<?xml version="1.0" encoding="utf-8"?>
<!-- Generator: Adobe Illustrator 19.2.0, SVG Export Plug-In . SVG Version: 6.00 Build 0)  -->
<svg version="1.1" xmlns="http://www.w3.org/2000/svg" xmlns:xlink="http://www.w3.org/1999/xlink" x="0px" y="0px" width="24px"
	 height="24px" viewBox="0 0 24 24" enable-background="new 0 0 24 24" xml:space="preserve">
<g id="Filled_Icons">
	<path d="M20.5,1C18.57,1,17,2.57,17,4.5c0,0.17,0.02,0.336,0.043,0.5H6.89L6.458,3.273C6.124,1.936,4.926,1,3.548,1H0v1h3.548
		c0.919,0,1.718,0.624,1.94,1.516L5.859,5H3.698l0.198,0.648C4.948,9.066,8.109,12.681,12,12.972V23H8.5C8.224,23,8,23.225,8,23.5
		C8,23.776,8.224,24,8.5,24h8c0.275,0,0.5-0.224,0.5-0.5c0-0.275-0.225-0.5-0.5-0.5H13V12.972c3.005-0.225,5.569-2.43,7.067-5
		C20.211,7.991,20.355,8,20.5,8C22.43,8,24,6.431,24,4.5C24,2.57,22.43,1,20.5,1z M20.585,6.993C20.938,6.226,21.059,5.79,21.302,5
		h-3.247C18.021,4.837,18,4.671,18,4.5C18,3.122,19.121,2,20.5,2C21.878,2,23,3.122,23,4.5C23,5.85,21.924,6.945,20.585,6.993z"/>
</g>
<g id="invisible_shape">
	<rect fill="none" width="24" height="24"/>
</g>
</svg>
