<?xml version="1.0" encoding="utf-8"?>
<!-- Generator: Adobe Illustrator 19.2.0, SVG Export Plug-In . SVG Version: 6.00 Build 0)  -->
<svg version="1.1" xmlns="http://www.w3.org/2000/svg" xmlns:xlink="http://www.w3.org/1999/xlink" x="0px" y="0px" width="24px"
	 height="24px" viewBox="0 0 24 24" enable-background="new 0 0 24 24" xml:space="preserve">
<g id="Filled_Icons">
	<path d="M21.302,7.036c1.115-0.684,1.526-2.056,0.917-3.054c-0.51-0.848-1.582-1.197-2.607-0.856
		c-0.14-1.153-1.038-2.046-2.121-2.046c-1.086,0-1.985,0.887-2.13,2.036c-1.019-0.325-2.076,0.031-2.577,0.864
		C12.182,4.964,12.573,6.303,13.65,7h-2.863L8.502,3.082c-0.728-1.246-2.346-1.621-3.546-0.82L2.223,4.084
		c-0.23,0.153-0.292,0.463-0.139,0.693c0.153,0.23,0.465,0.29,0.693,0.139l2.733-1.821c0.718-0.481,1.691-0.254,2.128,0.492L9.63,7
		H7.5C7.327,7,7.167,7.089,7.076,7.235l-1.939,3.11c-0.002,0.003-0.002,0.006-0.004,0.008C4.066,11.879,3.5,13.657,3.5,15.5
		c0,5.216,5.877,8.5,7,8.5h4c1,0,7-3.162,7-8.5c0-1.816-0.555-3.568-1.593-5.078c0.342-0.089,0.654-0.256,0.906-0.508
		c0.724-0.723,0.757-1.859,0.205-2.73c0.096-0.043,0.189-0.091,0.279-0.145C21.299,7.038,21.3,7.037,21.302,7.036z M17.5,4.532
		c0.822,0,1.488,0.667,1.488,1.489c0,0.821-0.666,1.488-1.488,1.488s-1.488-0.667-1.488-1.488C16.012,5.198,16.678,4.532,17.5,4.532
		z M12.852,10.205c-0.195-0.193-0.508-0.193-0.703,0C11.305,11.04,10.186,11.5,9,11.5c-0.939,0-1.928-0.317-2.78-1.003L7.777,8
		h5.875c-0.139,0.675,0.036,1.417,0.534,1.914c0.867,0.869,2.257,0.712,3.094-0.072l1.297,0.816
		C16.793,11.933,14.315,11.653,12.852,10.205z"/>
</g>
<g id="invisible_shape">
	<rect fill="none" width="24" height="24"/>
</g>
</svg>
