<?xml version="1.0" encoding="utf-8"?>
<!-- Generator: Adobe Illustrator 19.2.0, SVG Export Plug-In . SVG Version: 6.00 Build 0)  -->
<svg version="1.1" xmlns="http://www.w3.org/2000/svg" xmlns:xlink="http://www.w3.org/1999/xlink" x="0px" y="0px" width="24px"
	 height="24px" viewBox="0 0 24 24" enable-background="new 0 0 24 24" xml:space="preserve">
<g id="Filled_Icons">
	<g>
		<path d="M18.5,8h-14C4.361,8,4.229,8.058,4.135,8.159C4.04,8.261,3.991,8.396,4.001,8.533L4.165,11h14.669l0.165-2.467
			c0.009-0.138-0.04-0.273-0.134-0.374C18.771,8.058,18.638,8,18.5,8z"/>
		<path d="M5.001,23.533C5.019,23.796,5.236,24,5.5,24h12c0.263,0,0.481-0.204,0.499-0.467L18.367,18H4.632L5.001,23.533z"/>
		<path d="M4.565,17h13.869l0.333-5H4.231L4.565,17z M9,14h5c0.276,0,0.5,0.225,0.5,0.5c0,0.276-0.224,0.5-0.5,0.5H9
			c-0.276,0-0.5-0.224-0.5-0.5C8.5,14.225,8.724,14,9,14z"/>
		<path d="M19.5,4h-16C3.224,4,3,4.225,3,4.5v1.993c0,0.276,0.224,0.5,0.5,0.5h16c0.276,0,0.5-0.224,0.5-0.5V4.5
			C20,4.225,19.776,4,19.5,4z"/>
		<path d="M4.5,2.993h14c0.004,0.001,0.008,0.001,0.01,0c0.276,0,0.5-0.224,0.5-0.5c0-0.1-0.029-0.192-0.08-0.272l-0.966-1.905
			C17.888,0.126,17.704,0,17.5,0h-12C5.295,0,5.111,0.126,5.035,0.316l-1,1.991C3.974,2.462,3.993,2.637,4.086,2.774
			C4.179,2.911,4.334,2.993,4.5,2.993z"/>
	</g>
</g>
<g id="invisible_shape">
	<rect fill="none" width="24" height="24"/>
</g>
</svg>
