<?xml version="1.0" encoding="utf-8"?>
<!-- Generator: Adobe Illustrator 19.2.0, SVG Export Plug-In . SVG Version: 6.00 Build 0)  -->
<svg version="1.1" xmlns="http://www.w3.org/2000/svg" xmlns:xlink="http://www.w3.org/1999/xlink" x="0px" y="0px" width="24px"
	 height="24px" viewBox="0 0 24 24" enable-background="new 0 0 24 24" xml:space="preserve">
<g id="Filled_Icons">
	<path d="M22.908,11.916c-0.669-2.226-1.902-4.224-3.567-5.78C19.249,6.049,19.127,6,19,6h-2.293l1.146-1.147
		c0.195-0.194,0.195-0.511,0-0.707c-0.195-0.193-0.512-0.193-0.707,0L15.293,6H3.5C3.224,6,3,6.225,3,6.5C3,6.776,3.224,7,3.5,7
		h15.3c1.465,1.416,2.552,3.211,3.15,5.205c0.232,0.769,0.084,1.616-0.397,2.264c-0.38,0.512-0.941,0.856-1.558,0.979
		c-0.051-3.041-1.667-5.629-3.873-7.343C16.035,8.037,15.927,8,15.815,8H1.5C1.329,8,1.17,8.087,1.078,8.232
		C0.986,8.376,0.975,8.556,1.046,8.711l0.739,1.599C0.757,11.814,0,13.798,0,16c0,1.65,0.412,3.289,1.191,4.737
		C1.279,20.9,1.448,21,1.632,21h16.734c0.185,0,0.354-0.1,0.44-0.263c0.707-1.313,1.109-2.783,1.179-4.274
		c0.938-0.129,1.8-0.631,2.37-1.398C23.024,14.166,23.231,12.988,22.908,11.916z M1.959,12c0.248-0.496,0.525-0.965,0.803-1.341
		c0.109-0.146,0.129-0.341,0.053-0.507L2.281,9h13.36c1.035,0.834,1.893,1.88,2.472,3H1.959z"/>
</g>
<g id="invisible_shape">
	<rect fill="none" width="24" height="24"/>
</g>
</svg>
