<?xml version="1.0" encoding="utf-8"?>
<!-- Generator: Adobe Illustrator 19.2.0, SVG Export Plug-In . SVG Version: 6.00 Build 0)  -->
<svg version="1.1" xmlns="http://www.w3.org/2000/svg" xmlns:xlink="http://www.w3.org/1999/xlink" x="0px" y="0px" width="24px"
	 height="24px" viewBox="0 0 24 24" enable-background="new 0 0 24 24" xml:space="preserve">
<g id="Filled_Icons">
	<path d="M18,4.526V2.5C18,2.224,17.776,2,17.5,2h-17C0.224,2,0,2.224,0,2.5v15C0,19.982,2.019,22,4.5,22h9
		c2.481,0,4.5-2.018,4.5-4.5v-0.025c3.35-0.256,6-3.059,6-6.475C24,7.586,21.35,4.783,18,4.526z M4,17c0,0.276-0.224,0.5-0.5,0.5
		S3,17.276,3,17V6c0-0.276,0.224-0.5,0.5-0.5S4,5.724,4,6V17z M18,13.955V8.046c1.416,0.239,2.5,1.472,2.5,2.954
		C20.5,12.484,19.416,13.717,18,13.955z"/>
</g>
<g id="invisible_shape">
	<rect fill="none" width="24" height="24"/>
</g>
</svg>
