<?xml version="1.0" encoding="utf-8"?>
<!-- Generator: Adobe Illustrator 19.2.0, SVG Export Plug-In . SVG Version: 6.00 Build 0)  -->
<svg version="1.1" xmlns="http://www.w3.org/2000/svg" xmlns:xlink="http://www.w3.org/1999/xlink" x="0px" y="0px" width="24px"
	 height="24px" viewBox="0 0 24 24" enable-background="new 0 0 24 24" xml:space="preserve">
<g id="Filled_Icons">
	<g>
		<path d="M5.205,3h13.77l0.94-1.223c0.103-0.153,0.112-0.35,0.024-0.513C19.854,1.102,19.685,1,19.5,1h-15
			C4.306,1,4.13,1.112,4.047,1.288C3.965,1.463,3.991,1.671,4.116,1.82L5.205,3z"/>
		<path d="M18.207,4H6.129C4.32,4.584,3,6.5,3,8.5v13C3,22.878,4.121,24,5.5,24h13c1.379,0,2.5-1.122,2.5-2.5v-13
			C21,6.623,19.844,4.674,18.207,4z M8.941,18.721c-1.666-1.456-2.008-4.399-0.681-7.058c1.131-2.265,3.239-3.787,5.245-3.787
			c0.553,0,1.073,0.124,1.559,0.347c-2.65,1.465-3.121,2.888-3.255,5.819c-0.082,1.766-0.152,3.29-2.108,4.299L8.941,18.721z
			 M16.619,15.836c-1.131,2.266-3.238,3.787-5.245,3.787c-0.499,0-0.968-0.112-1.413-0.294c2.395-1.185,2.733-2.787,2.848-5.24
			c0.083-1.801,0.161-3.502,2.289-4.741l0.911-0.505c0.683,0.622,1.152,1.504,1.341,2.575
			C17.599,12.826,17.339,14.394,16.619,15.836z"/>
	</g>
</g>
<g id="invisible_shape">
	<rect fill="none" width="24" height="24"/>
</g>
</svg>
