<?xml version="1.0" encoding="utf-8"?>
<!-- Generator: Adobe Illustrator 19.2.0, SVG Export Plug-In . SVG Version: 6.00 Build 0)  -->
<svg version="1.1" xmlns="http://www.w3.org/2000/svg" xmlns:xlink="http://www.w3.org/1999/xlink" x="0px" y="0px" width="24px"
	 height="24px" viewBox="0 0 24 24" enable-background="new 0 0 24 24" xml:space="preserve">
<g id="Filled_Icons">
	<path d="M23.5,23h-9.636C16.327,21.636,18,19.011,18,16h2c1.995,0,3.5-1.72,3.5-4c0-2.279-1.505-4-3.5-4h-2V7.5
		C18,7.225,17.776,7,17.5,7h-15C2.224,7,2,7.225,2,7.5V16c0,3.011,1.672,5.636,4.135,7H0.5C0.224,23,0,23.225,0,23.5
		C0,23.776,0.224,24,0.5,24h23c0.276,0,0.5-0.224,0.5-0.5C24,23.225,23.776,23,23.5,23z M18,9h2c1.624,0,2.5,1.546,2.5,3
		s-0.876,3-2.5,3h-2V9z"/>
</g>
<g id="invisible_shape">
	<rect fill="none" width="24" height="24"/>
</g>
</svg>
