<?xml version="1.0" encoding="utf-8"?>
<!-- Generator: Adobe Illustrator 19.2.0, SVG Export Plug-In . SVG Version: 6.00 Build 0)  -->
<svg version="1.1" xmlns="http://www.w3.org/2000/svg" xmlns:xlink="http://www.w3.org/1999/xlink" x="0px" y="0px" width="24px"
	 height="24px" viewBox="0 0 24 24" enable-background="new 0 0 24 24" xml:space="preserve">
<g id="Filled_Icons">
	<g>
		<path d="M5.793,11h12.434l0.633-0.651C18.949,10.255,19,10.13,19,10V8.5c0-1.862-0.935-3.506-2.356-4.5H7.356
			C5.935,4.994,5,6.638,5,8.5V10c0,0.133,0.053,0.261,0.147,0.354L5.793,11z"/>
		<path d="M15,3V1.5C15,0.673,14.327,0,13.5,0h-3C9.673,0,9,0.673,9,1.5V3H15z"/>
		<path d="M18.167,18H5.836l-0.686,0.675C5.054,18.769,5,18.898,5,19.031V21.5C5,22.879,6.121,24,7.5,24h9
			c1.379,0,2.5-1.121,2.5-2.5v-2.469c0-0.133-0.054-0.262-0.148-0.355L18.167,18z"/>
		<path d="M5.148,12.661C5.054,12.755,5,12.883,5,13.017v2.984c0,0.132,0.052,0.258,0.144,0.352L5.786,17h12.441l0.626-0.626
			C18.947,16.28,19,16.153,19,16.021v-3.004c0-0.134-0.054-0.264-0.15-0.357L18.177,12H5.815L5.148,12.661z"/>
	</g>
</g>
<g id="invisible_shape">
	<rect fill="none" width="24" height="24"/>
</g>
</svg>
