<?xml version="1.0" encoding="utf-8"?>
<!-- Generator: Adobe Illustrator 19.2.0, SVG Export Plug-In . SVG Version: 6.00 Build 0)  -->
<svg version="1.1" xmlns="http://www.w3.org/2000/svg" xmlns:xlink="http://www.w3.org/1999/xlink" x="0px" y="0px" width="24px"
	 height="24px" viewBox="0 0 24 24" enable-background="new 0 0 24 24" xml:space="preserve">
<g id="Filled_Icons">
	<g>
		<path d="M17.5,5H24V2c0-1.102-0.897-2-2-2H3.5C3.224,0,3,0.225,3,0.5v10C3,10.776,3.224,11,3.5,11H5v2H4.5
			C4.224,13,4,13.224,4,13.5V14H0.5C0.224,14,0,14.225,0,14.5C0,14.776,0.224,15,0.5,15H4v0.5C4,15.776,4.224,16,4.5,16H6v0.5
			C6,16.776,6.224,17,6.5,17S7,16.776,7,16.5V16h1.5C8.776,16,9,15.776,9,15.5v-2C9,13.224,8.776,13,8.5,13H8v-2h2v9H0.5
			C0.224,20,0,20.225,0,20.5v3C0,23.776,0.224,24,0.5,24H18V12.5c0-0.275,0.224-0.5,0.5-0.5H24v-2h-6.5C17.224,10,17,9.776,17,9.5
			C17,9.225,17.224,9,17.5,9H24V8h-6.5C17.224,8,17,7.776,17,7.5C17,7.225,17.224,7,17.5,7H24V6h-6.5C17.224,6,17,5.776,17,5.5
			C17,5.225,17.224,5,17.5,5z M7,13H6v-2h1V13z M7,6C5.897,6,5,5.103,5,4c0-1.102,0.897-2,2-2c1.102,0,2,0.898,2,2
			C9,5.103,8.102,6,7,6z"/>
		<path d="M19,24h4.5c0.276,0,0.5-0.224,0.5-0.5V13h-5V24z"/>
	</g>
</g>
<g id="invisible_shape">
	<rect fill="none" width="24" height="24"/>
</g>
</svg>
