<?xml version="1.0" encoding="utf-8"?>
<!-- Generator: Adobe Illustrator 19.2.0, SVG Export Plug-In . SVG Version: 6.00 Build 0)  -->
<svg version="1.1" xmlns="http://www.w3.org/2000/svg" xmlns:xlink="http://www.w3.org/1999/xlink" x="0px" y="0px" width="24px"
	 height="24px" viewBox="0 0 24 24" enable-background="new 0 0 24 24" xml:space="preserve">
<g id="Filled_Icons">
	<path d="M21.5,9C21.776,9,22,8.776,22,8.5V7h0.5C23.327,7,24,6.327,24,5.5v-4C24,0.673,23.327,0,22.5,0h-20C1.673,0,1,0.673,1,1.5
		v4C1,6.327,1.673,7,2.5,7H3v12H2.5C1.673,19,1,19.673,1,20.5v2C1,23.327,1.673,24,2.5,24h20c0.827,0,1.5-0.673,1.5-1.5v-2
		c0-0.827-0.673-1.5-1.5-1.5H22v-4.5c0-0.276-0.224-0.5-0.5-0.5S21,14.224,21,14.5V19h-5.882c0.84-0.734,1.382-1.8,1.382-3h0.75
		c0.413,0,0.75,0.336,0.75,0.75s-0.337,0.75-0.75,0.75H17v1h0.25c0.965,0,1.75-0.785,1.75-1.75S18.215,15,17.25,15H9
		c-0.276,0-0.5,0.224-0.5,0.5V16c0,1.2,0.542,2.266,1.382,3H4V7h2.559c0.647,0,1.219,0.412,1.423,1.024l0.088,0.267
		C8.363,9.171,9.111,9.799,10,9.958V12.5c0,0.276,0.224,0.5,0.5,0.5H12v0.5c0,0.276,0.224,0.5,0.5,0.5s0.5-0.224,0.5-0.5V13h1.5
		c0.276,0,0.5-0.224,0.5-0.5V12h3.5v0.5c0,0.276,0.224,0.5,0.5,0.5h4.5c0.276,0,0.5-0.224,0.5-0.5v-2c0-0.276-0.224-0.5-0.5-0.5H19
		c-0.276,0-0.5,0.224-0.5,0.5V11H15V9.958c0.889-0.159,1.637-0.788,1.931-1.668l0.088-0.264C17.223,7.412,17.795,7,18.441,7H21v1.5
		C21,8.776,21.224,9,21.5,9z M5.5,4.5c-0.553,0-1-0.448-1-1s0.447-1,1-1s1,0.448,1,1S6.053,4.5,5.5,4.5z M12.5,4
		C13.328,4,14,4.672,14,5.5S13.328,7,12.5,7S11,6.328,11,5.5S11.672,4,12.5,4z M14,12h-3v-2h3V12z M18,4c-0.276,0-0.5-0.224-0.5-0.5
		C17.5,3.224,17.724,3,18,3s0.5,0.224,0.5,0.5C18.5,3.776,18.276,4,18,4z M20,4c-0.276,0-0.5-0.224-0.5-0.5
		C19.5,3.224,19.724,3,20,3s0.5,0.224,0.5,0.5C20.5,3.776,20.276,4,20,4z"/>
</g>
<g id="invisible_shape">
	<rect fill="none" width="24" height="24"/>
</g>
</svg>
