<?xml version="1.0" encoding="utf-8"?>
<!-- Generator: Adobe Illustrator 19.2.0, SVG Export Plug-In . SVG Version: 6.00 Build 0)  -->
<svg version="1.1" xmlns="http://www.w3.org/2000/svg" xmlns:xlink="http://www.w3.org/1999/xlink" x="0px" y="0px" width="24px"
	 height="24px" viewBox="0 0 24 24" enable-background="new 0 0 24 24" xml:space="preserve">
<g id="Filled_Icons">
	<path d="M18.5,5H14V4h1.5C15.776,4,16,3.776,16,3.5v-2C16,0.673,15.327,0,14.5,0h-4C9.673,0,9,0.673,9,1.5V3
		C7.792,3,6.783,3.86,6.551,5H6.5C5.121,5,4,6.122,4,7.5v14C4,22.878,5.121,24,6.5,24h12c1.379,0,2.5-1.122,2.5-2.5v-14
		C21,6.122,19.879,5,18.5,5z M13,5h-1V4h1V5z M13,1h1v2h-1V1z M11,1h1v2h-1V1z M9,4h2v1H7.592C7.799,4.419,8.349,4,9,4z M8,21
		c0,0.276-0.224,0.5-0.5,0.5S7,21.276,7,21V8c0-0.276,0.224-0.5,0.5-0.5S8,7.724,8,8V21z M14.354,17.354l-3,3
		c-0.195,0.195-0.512,0.195-0.707,0c-0.195-0.195-0.195-0.512,0-0.707l3-3c0.195-0.195,0.512-0.195,0.707,0
		C14.549,16.842,14.549,17.158,14.354,17.354z M14.354,12.854l-3,3c-0.195,0.195-0.512,0.195-0.707,0
		c-0.195-0.195-0.195-0.512,0-0.707l3-3c0.195-0.195,0.512-0.195,0.707,0S14.549,12.658,14.354,12.854z M14.354,8.354l-3,3
		c-0.195,0.195-0.512,0.195-0.707,0s-0.195-0.512,0-0.707l3-3c0.195-0.195,0.512-0.195,0.707,0S14.549,8.158,14.354,8.354z M18,21
		c0,0.276-0.224,0.5-0.5,0.5S17,21.276,17,21V8c0-0.276,0.224-0.5,0.5-0.5S18,7.724,18,8V21z"/>
</g>
<g id="invisible_shape">
	<rect fill="none" width="24" height="24"/>
</g>
</svg>
