<?xml version="1.0" encoding="utf-8"?>
<!-- Generator: Adobe Illustrator 19.2.0, SVG Export Plug-In . SVG Version: 6.00 Build 0)  -->
<svg version="1.1" xmlns="http://www.w3.org/2000/svg" xmlns:xlink="http://www.w3.org/1999/xlink" x="0px" y="0px" width="24px"
	 height="24px" viewBox="0 0 24 24" enable-background="new 0 0 24 24" xml:space="preserve">
<g id="Filled_Icons">
	<g>
		<path d="M13,1.5C13,0.673,12.327,0,11.5,0S10,0.673,10,1.5S10.673,3,11.5,3S13,2.327,13,1.5z M11.5,2C11.225,2,11,1.776,11,1.5
			C11,1.224,11.225,1,11.5,1S12,1.224,12,1.5C12,1.776,11.775,2,11.5,2z"/>
		<path d="M17.5,8H17V6.5C17,4.57,15.43,3,13.5,3h-4C7.741,3,6.296,4.309,6.051,6H4C3.555,6,3.332,6.539,3.647,6.853L6,9.207V21.5
			C6,21.776,6.224,22,6.5,22h1l-0.9,1.2c-0.165,0.221-0.12,0.534,0.101,0.7c0.221,0.165,0.534,0.121,0.7-0.101L8.75,22h5.5l1.35,1.8
			c0.166,0.222,0.479,0.266,0.7,0.101c0.221-0.166,0.266-0.479,0.101-0.7L15.5,22h1c0.276,0,0.5-0.224,0.5-0.5V19h0.5
			c3.032,0,5.5-2.467,5.5-5.5C23,10.467,20.532,8,17.5,8z M5.207,7H16v12H7V9c0-0.133-0.053-0.26-0.147-0.354L5.207,7z M17.5,18H17
			V9h0.5c2.481,0,4.5,2.019,4.5,4.5S19.981,18,17.5,18z"/>
		<path d="M8,18h7c0.276,0,0.5-0.224,0.5-0.5S15.276,17,15,17h-3v-7h2.5c0.276,0,0.5-0.224,0.5-0.5v-1C15,8.224,14.776,8,14.5,8h-6
			C8.224,8,8,8.224,8,8.5v1C8,9.776,8.224,10,8.5,10H11v7H8c-0.276,0-0.5,0.224-0.5,0.5S7.724,18,8,18z"/>
	</g>
</g>
<g id="invisible_shape">
	<rect fill="none" width="24" height="24"/>
</g>
</svg>
