<?xml version="1.0" encoding="utf-8"?>
<!-- Generator: Adobe Illustrator 19.2.0, SVG Export Plug-In . SVG Version: 6.00 Build 0)  -->
<svg version="1.1" xmlns="http://www.w3.org/2000/svg" xmlns:xlink="http://www.w3.org/1999/xlink" x="0px" y="0px" width="24px"
	 height="24px" viewBox="0 0 24 24" enable-background="new 0 0 24 24" xml:space="preserve">
<g id="Filled_Icons">
	<g>
		<path d="M19.873,6.169C19.778,6.062,19.643,6,19.5,6H9.529l0.095,1h9.314l-0.354,3H9.91l1.085,11.405
			c0.025,0.266-0.055,0.526-0.225,0.731c-0.171,0.207-0.411,0.334-0.676,0.36l-0.09,0.003H9.999c-0.518,0-0.946-0.388-0.995-0.905
			L7.9,10H7.415L7.063,7h0.553L7.519,6H6.5C6.357,6,6.221,6.062,6.126,6.169C6.031,6.274,5.986,6.418,6.003,6.56l2,17
			C8.033,23.81,8.246,24,8.5,24h9c0.253,0,0.467-0.19,0.496-0.44l2-17C20.013,6.418,19.969,6.274,19.873,6.169z M11.5,13
			c-0.276,0-0.5-0.223-0.5-0.5c0-0.275,0.224-0.5,0.5-0.5c0.275,0,0.5,0.225,0.5,0.5C12,12.777,11.775,13,11.5,13z M12.5,21
			c-0.276,0-0.5-0.223-0.5-0.5c0-0.275,0.224-0.5,0.5-0.5c0.275,0,0.5,0.225,0.5,0.5C13,20.777,12.775,21,12.5,21z M13,16
			c-0.276,0-0.5-0.223-0.5-0.5c0-0.275,0.224-0.5,0.5-0.5c0.275,0,0.5,0.225,0.5,0.5C13.5,15.777,13.275,16,13,16z M15,18.5
			c-0.276,0-0.5-0.223-0.5-0.5c0-0.275,0.224-0.5,0.5-0.5c0.275,0,0.5,0.225,0.5,0.5C15.5,18.277,15.275,18.5,15,18.5z M16,14
			c-0.276,0-0.5-0.223-0.5-0.5c0-0.275,0.224-0.5,0.5-0.5c0.275,0,0.5,0.225,0.5,0.5C16.5,13.777,16.275,14,16,14z"/>
		<circle cx="12" cy="3" r="0.5"/>
		<circle cx="15" cy="4.5" r="0.5"/>
		<circle cx="16.5" cy="2" r="0.5"/>
		<path d="M7.752,3.161l1.75,18.387C9.525,21.804,9.737,21.997,9.994,22c0.151-0.007,0.277-0.044,0.392-0.18
			c0.084-0.103,0.124-0.234,0.111-0.367L8.747,3.066C8.678,2.332,8.374,1.64,7.872,1.095C7.252,0.418,6.361,0,5.375,0H3.5
			C3.224,0,3,0.225,3,0.5C3,0.776,3.224,1,3.5,1h1.875C6.611,1,7.634,1.929,7.752,3.161z"/>
	</g>
</g>
<g id="invisible_shape">
	<rect fill="none" width="24" height="24"/>
</g>
</svg>
