<?xml version="1.0" encoding="utf-8"?>
<!-- Generator: Adobe Illustrator 19.2.0, SVG Export Plug-In . SVG Version: 6.00 Build 0)  -->
<svg version="1.1" xmlns="http://www.w3.org/2000/svg" xmlns:xlink="http://www.w3.org/1999/xlink" x="0px" y="0px" width="24px"
	 height="24px" viewBox="0 0 24 24" enable-background="new 0 0 24 24" xml:space="preserve">
<g id="Filled_Icons">
	<path d="M19.5,9h-1.178c-0.526-2.219-2.192-3.998-4.344-4.688l0.51-2.274c0.048-0.221-0.024-0.343,0.226-0.519
		c0.132-0.094,0.303-0.115,0.457-0.061l4.158,1.513c0.262,0.093,0.547-0.04,0.641-0.3c0.095-0.26-0.039-0.546-0.299-0.641
		l-4.158-1.512c-0.46-0.165-0.972-0.099-1.373,0.181c-0.384,0.27-0.619,0.702-0.639,1.168l-0.497,2.219C12.676,4.035,12.342,4,12,4
		C8.933,4,6.361,6.138,5.682,9H4.5C3.672,9,3,9.672,3,10.5C3,11.329,3.672,12,4.5,12h1.225l0.551,3.577l1.23,8
		C7.543,23.82,7.753,24,8,24h8c0.247,0,0.457-0.18,0.494-0.423l1.23-8L18.275,12H19.5c0.828,0,1.5-0.671,1.5-1.5
		C21,9.672,20.328,9,19.5,9z M13.755,5.308C15.459,5.886,16.797,7.261,17.291,9h-4.363L13.755,5.308z M12,5
		c0.268,0,0.524,0.038,0.781,0.075L11.901,9H6.709C7.364,6.694,9.487,5,12,5z M10.557,15H7.198l-0.462-3h4.493L10.557,15z
		 M16.802,15h-5.22l0.673-3h5.009L16.802,15z M19.5,11h-15C4.224,11,4,10.776,4,10.5S4.224,10,4.5,10h15c0.276,0,0.5,0.224,0.5,0.5
		S19.776,11,19.5,11z"/>
</g>
<g id="invisible_shape">
	<rect fill="none" width="24" height="24"/>
</g>
</svg>
