<?xml version="1.0" encoding="utf-8"?>
<!-- Generator: Adobe Illustrator 19.2.0, SVG Export Plug-In . SVG Version: 6.00 Build 0)  -->
<svg version="1.1" xmlns="http://www.w3.org/2000/svg" xmlns:xlink="http://www.w3.org/1999/xlink" x="0px" y="0px" width="24px"
	 height="24px" viewBox="0 0 24 24" enable-background="new 0 0 24 24" xml:space="preserve">
<g id="Filled_Icons">
	<g>
		<path d="M23.707,10l-4.27-4.268C19.432,5.745,14.793,10,14.793,10H23.707z"/>
		<path d="M19,3c0-1.653-1.57-3-3.5-3h-7C6.57,0,5,1.347,5,3v2h14V3z"/>
		<path d="M0,23.5C0,23.776,0.224,24,0.5,24H13V11H0V23.5z M2,13.5C2,13.224,2.224,13,2.5,13h8c0.276,0,0.5,0.224,0.5,0.5v4
			c0,0.276-0.224,0.5-0.5,0.5h-8C2.224,18,2,17.776,2,17.5V13.5z"/>
		<path d="M4.327,6l-4.034,4h13.014l4.4-4C17.706,6,4.382,6.019,4.327,6z"/>
		<path d="M14,11v13h9.5c0.276,0,0.5-0.224,0.5-0.5V11H14z"/>
	</g>
</g>
<g id="invisible_shape">
	<rect fill="none" width="24" height="24"/>
</g>
</svg>
