<?xml version="1.0" encoding="utf-8"?>
<!-- Generator: Adobe Illustrator 19.2.0, SVG Export Plug-In . SVG Version: 6.00 Build 0)  -->
<svg version="1.1" xmlns="http://www.w3.org/2000/svg" xmlns:xlink="http://www.w3.org/1999/xlink" x="0px" y="0px" width="24px"
	 height="24px" viewBox="0 0 24 24" enable-background="new 0 0 24 24" xml:space="preserve">
<g id="Filled_Icons">
	<g>
		<path d="M20.479,6.144c0.078-0.266-0.072-0.544-0.337-0.623c-0.267-0.076-0.542,0.073-0.622,0.338L18.286,10H5.714L4.479,5.858
			c-0.08-0.265-0.352-0.415-0.622-0.338C3.593,5.6,3.442,5.878,3.52,6.144C3.618,6.471,5,10.985,5,11.329V21.5
			C5,22.879,6.121,24,7.5,24h9c1.379,0,2.5-1.121,2.5-2.5V11.329C19,10.985,20.382,6.471,20.479,6.144z"/>
		<polygon points="6.293,9 17.707,9 16.207,7 7.793,7 		"/>
		<rect x="8" y="5" width="8" height="1"/>
		<path d="M6.5,4h11C17.776,4,18,3.776,18,3.5C18,1.57,16.43,0,14.5,0h-5C7.57,0,6,1.57,6,3.5C6,3.776,6.224,4,6.5,4z"/>
	</g>
</g>
<g id="invisible_shape">
	<rect fill="none" width="24" height="24"/>
</g>
</svg>
