<?xml version="1.0" encoding="utf-8"?>
<!-- Generator: Adobe Illustrator 19.2.0, SVG Export Plug-In . SVG Version: 6.00 Build 0)  -->
<svg version="1.1" xmlns="http://www.w3.org/2000/svg" xmlns:xlink="http://www.w3.org/1999/xlink" x="0px" y="0px" width="24px"
	 height="24px" viewBox="0 0 24 24" enable-background="new 0 0 24 24" xml:space="preserve">
<g id="Filled_Icons">
	<g>
		<g>
			<path d="M23.5,23h-8.371l-1,1H23.5c0.276,0,0.5-0.224,0.5-0.5C24,23.225,23.776,23,23.5,23z"/>
		</g>
		<path d="M23.5,15h-1.785l1.083-1.082c0.195-0.196,0.195-0.513,0-0.708c-0.195-0.195-0.512-0.195-0.707,0L21,14.301V12.5
			c0-0.276-0.224-0.5-0.5-0.5S20,12.224,20,12.5v2.801l-1,1V14.5c0-0.276-0.224-0.5-0.5-0.5S18,14.224,18,14.5v2.801l-1,1V16.5
			c0-0.276-0.224-0.5-0.5-0.5S16,16.224,16,16.5v2.801l-1,1V18.5c0-0.276-0.224-0.5-0.5-0.5S14,18.224,14,18.5v2.801l-1.798,1.798
			c-0.195,0.195-0.195,0.512,0,0.707c0.098,0.099,0.226,0.147,0.354,0.147c0.128,0,0.256-0.049,0.353-0.147L14.715,22H17.5
			c0.276,0,0.5-0.224,0.5-0.5S17.776,21,17.5,21h-1.785l1-1H19.5c0.276,0,0.5-0.224,0.5-0.5S19.776,19,19.5,19h-1.785l1-1H21.5
			c0.276,0,0.5-0.224,0.5-0.5S21.776,17,21.5,17h-1.785l1-1H23.5c0.276,0,0.5-0.224,0.5-0.5S23.776,15,23.5,15z"/>
		<path d="M20,8h-2V7.5C18,7.225,17.776,7,17.5,7H11v3h1.5c0.276,0,0.5,0.224,0.5,0.5v6c0,0.276-0.224,0.5-0.5,0.5h-4
			C8.224,17,8,16.776,8,16.5v-6C8,10.224,8.224,10,8.5,10H10V7H2.5C2.224,7,2,7.225,2,7.5V16c0,3.011,1.672,5.636,4.135,7H0.5
			C0.224,23,0,23.225,0,23.5C0,23.776,0.224,24,0.5,24h10.662c-0.211-0.538-0.102-1.173,0.333-1.608L13,20.887V18.5
			c0-0.828,0.672-1.5,1.5-1.5c0.176,0,0.343,0.037,0.5,0.093V16.5c0-0.828,0.672-1.5,1.5-1.5c0.176,0,0.343,0.037,0.5,0.093V14.5
			c0-0.652,0.419-1.201,1-1.407V9h2c1.591,0,2.543,1.527,2.493,3.086c0.35,0.009,0.693,0.131,0.968,0.385
			C23.476,12.315,23.5,12.162,23.5,12C23.5,9.721,21.995,8,20,8z"/>
	</g>
</g>
<g id="invisible_shape">
	<rect fill="none" width="24" height="24"/>
</g>
</svg>
