<?xml version="1.0" encoding="utf-8"?>
<!-- Generator: Adobe Illustrator 19.2.0, SVG Export Plug-In . SVG Version: 6.00 Build 0)  -->
<svg version="1.1" xmlns="http://www.w3.org/2000/svg" xmlns:xlink="http://www.w3.org/1999/xlink" x="0px" y="0px" width="24px"
	 height="24px" viewBox="0 0 24 24" enable-background="new 0 0 24 24" xml:space="preserve">
<g id="Filled_Icons">
	<g>
		<path d="M19.5,5H6.76L3.409,0.214L2.59,0.787L5.539,5H4.5C4.224,5,4,5.225,4,5.5v3C4,8.776,4.224,9,4.5,9h15
			C19.776,9,20,8.776,20,8.5v-3C20,5.225,19.776,5,19.5,5z"/>
		<g>
			<path d="M11.495,22.392L13,20.887V18.5c0-0.828,0.672-1.5,1.5-1.5c0.176,0,0.343,0.037,0.5,0.093V16.5c0-0.828,0.672-1.5,1.5-1.5
				c0.176,0,0.343,0.037,0.5,0.093V14.5c0-0.726,0.515-1.33,1.198-1.47L18.4,10H5.599l0.902,13.533C6.519,23.796,6.736,24,7,24
				h4.162C10.951,23.462,11.06,22.827,11.495,22.392z M7.333,18c-0.264,0-0.481-0.204-0.499-0.467l-0.333-5
				c-0.01-0.138,0.039-0.273,0.134-0.374C6.729,12.058,6.861,12,7,12c1.723,0,3.233,1.402,3.233,3C10.233,16.683,8.959,18,7.333,18z
				"/>
		</g>
		<path d="M23.5,15h-1.785l1.083-1.082c0.195-0.196,0.195-0.513,0-0.708c-0.195-0.195-0.512-0.195-0.707,0L21,14.301V12.5
			c0-0.276-0.224-0.5-0.5-0.5S20,12.224,20,12.5v2.801l-1,1V14.5c0-0.276-0.224-0.5-0.5-0.5S18,14.224,18,14.5v2.801l-1,1V16.5
			c0-0.276-0.224-0.5-0.5-0.5S16,16.224,16,16.5v2.801l-1,1V18.5c0-0.276-0.224-0.5-0.5-0.5S14,18.224,14,18.5v2.801l-1.798,1.798
			c-0.195,0.195-0.195,0.512,0,0.707c0.098,0.099,0.226,0.147,0.354,0.147c0.128,0,0.256-0.049,0.353-0.147L14.715,22H17.5
			c0.276,0,0.5-0.224,0.5-0.5S17.776,21,17.5,21h-1.785l1-1H19.5c0.276,0,0.5-0.224,0.5-0.5S19.776,19,19.5,19h-1.785l1-1H21.5
			c0.276,0,0.5-0.224,0.5-0.5S21.776,17,21.5,17h-1.785l1-1H23.5c0.276,0,0.5-0.224,0.5-0.5S23.776,15,23.5,15z"/>
	</g>
</g>
<g id="invisible_shape">
	<rect fill="none" width="24" height="24"/>
</g>
</svg>
