<?xml version="1.0" encoding="utf-8"?>
<!-- Generator: Adobe Illustrator 19.2.0, SVG Export Plug-In . SVG Version: 6.00 Build 0)  -->
<svg version="1.1" xmlns="http://www.w3.org/2000/svg" xmlns:xlink="http://www.w3.org/1999/xlink" x="0px" y="0px" width="24px"
	 height="24px" viewBox="0 0 24 24" enable-background="new 0 0 24 24" xml:space="preserve">
<g id="Filled_Icons">
	<g>
		<g>
			<path d="M6.5,3h6C12.776,3,13,2.776,13,2.5v-2C13,0.224,12.776,0,12.5,0h-6C6.224,0,6,0.224,6,0.5v2C6,2.776,6.224,3,6.5,3z"/>
			<path d="M11.495,22.392L13,20.887V18.5c0-0.828,0.672-1.5,1.5-1.5c0.176,0,0.343,0.037,0.5,0.093V16.5
				c0-0.652,0.419-1.201,1-1.407V14.5c0-3.519-1.345-5.821-4-6.851V4H7v3.649c-2.655,1.03-4,3.332-4,6.851v8
				C3,23.327,3.673,24,4.5,24h6.662C10.951,23.462,11.06,22.827,11.495,22.392z M7.125,14.626c0-1.168,1.668-3.086,2.003-3.46
				c0.189-0.211,0.555-0.211,0.744,0c0.335,0.374,2.003,2.292,2.003,3.46C11.875,15.936,10.81,17,9.5,17S7.125,15.936,7.125,14.626z
				"/>
		</g>
		<path d="M23.5,15h-1.785l1.083-1.082c0.195-0.196,0.195-0.513,0-0.708c-0.195-0.195-0.512-0.195-0.707,0L21,14.301V12.5
			c0-0.276-0.224-0.5-0.5-0.5S20,12.224,20,12.5v2.801l-1,1V14.5c0-0.276-0.224-0.5-0.5-0.5S18,14.224,18,14.5v2.801l-1,1V16.5
			c0-0.276-0.224-0.5-0.5-0.5S16,16.224,16,16.5v2.801l-1,1V18.5c0-0.276-0.224-0.5-0.5-0.5S14,18.224,14,18.5v2.801l-1.798,1.798
			c-0.195,0.195-0.195,0.512,0,0.707c0.098,0.099,0.226,0.147,0.354,0.147c0.128,0,0.256-0.049,0.353-0.147L14.715,22H17.5
			c0.276,0,0.5-0.224,0.5-0.5S17.776,21,17.5,21h-1.785l1-1H19.5c0.276,0,0.5-0.224,0.5-0.5S19.776,19,19.5,19h-1.785l1-1H21.5
			c0.276,0,0.5-0.224,0.5-0.5S21.776,17,21.5,17h-1.785l1-1H23.5c0.276,0,0.5-0.224,0.5-0.5S23.776,15,23.5,15z"/>
	</g>
</g>
<g id="invisible_shape">
	<rect fill="none" width="24" height="24"/>
</g>
</svg>
