<?xml version="1.0" encoding="utf-8"?>
<!-- Generator: Adobe Illustrator 19.2.0, SVG Export Plug-In . SVG Version: 6.00 Build 0)  -->
<svg version="1.1" xmlns="http://www.w3.org/2000/svg" xmlns:xlink="http://www.w3.org/1999/xlink" x="0px" y="0px" width="24px"
	 height="24px" viewBox="0 0 24 24" enable-background="new 0 0 24 24" xml:space="preserve">
<g id="Filled_Icons">
	<g>
		<g>
			<path d="M11.495,22.392L13,20.887V18.5c0-0.828,0.672-1.5,1.5-1.5c0.176,0,0.343,0.037,0.5,0.093V16.5c0-0.828,0.672-1.5,1.5-1.5
				c0.176,0,0.343,0.037,0.5,0.093V14.5c0-0.615,0.373-1.144,0.904-1.375l1.094-12.581c0.012-0.14-0.035-0.278-0.13-0.382
				C18.773,0.06,18.64,0,18.5,0h-15C3.359,0,3.226,0.06,3.131,0.162C3.036,0.266,2.989,0.404,3.002,0.544l2,23
				C5.024,23.803,5.24,24,5.5,24h5.662C10.951,23.462,11.06,22.827,11.495,22.392z M4.653,8L4.045,1h13.909l-0.608,7H4.653z"/>
		</g>
		<path d="M23.5,15h-1.785l1.083-1.082c0.195-0.196,0.195-0.513,0-0.708c-0.195-0.195-0.512-0.195-0.707,0L21,14.301V12.5
			c0-0.276-0.224-0.5-0.5-0.5S20,12.224,20,12.5v2.801l-1,1V14.5c0-0.276-0.224-0.5-0.5-0.5S18,14.224,18,14.5v2.801l-1,1V16.5
			c0-0.276-0.224-0.5-0.5-0.5S16,16.224,16,16.5v2.801l-1,1V18.5c0-0.276-0.224-0.5-0.5-0.5S14,18.224,14,18.5v2.801l-1.798,1.798
			c-0.195,0.195-0.195,0.512,0,0.707c0.098,0.099,0.226,0.147,0.354,0.147c0.128,0,0.256-0.049,0.353-0.147L14.715,22H17.5
			c0.276,0,0.5-0.224,0.5-0.5S17.776,21,17.5,21h-1.785l1-1H19.5c0.276,0,0.5-0.224,0.5-0.5S19.776,19,19.5,19h-1.785l1-1H21.5
			c0.276,0,0.5-0.224,0.5-0.5S21.776,17,21.5,17h-1.785l1-1H23.5c0.276,0,0.5-0.224,0.5-0.5S23.776,15,23.5,15z"/>
	</g>
</g>
<g id="invisible_shape">
	<rect fill="none" width="24" height="24"/>
</g>
</svg>
