<?xml version="1.0" encoding="utf-8"?>
<!-- Generator: Adobe Illustrator 19.2.0, SVG Export Plug-In . SVG Version: 6.00 Build 0)  -->
<svg version="1.1" xmlns="http://www.w3.org/2000/svg" xmlns:xlink="http://www.w3.org/1999/xlink" x="0px" y="0px" width="24px"
	 height="24px" viewBox="0 0 24 24" enable-background="new 0 0 24 24" xml:space="preserve">
<g id="Filled_Icons">
	<path d="M17,12.5c0-3.889-2.64-5.061-2.965-9.128l0.307,0.102C14.66,3.583,15,3.344,15,3V1.5C15,0.673,14.327,0,13.5,0h-3
		C9.673,0,9,0.673,9,1.5V3c0,0.341,0.335,0.582,0.658,0.474l0.307-0.102C9.64,7.438,7,8.612,7,12.5c0,4.086,1.5,4.787,1.5,7.06
		c0,0.95-0.376,1.75-0.679,2.393c-0.302,0.641-0.54,1.146-0.254,1.598C7.82,23.949,8.325,24,8.736,24h6.527
		c0.411,0,0.916-0.051,1.169-0.449c0.286-0.451,0.048-0.957-0.254-1.598C15.876,21.31,15.5,20.511,15.5,19.56
		C15.5,17.29,17,16.584,17,12.5z M10,14c-0.276,0-0.5-0.224-0.5-0.5c0-0.276,0.224-0.5,0.5-0.5s0.5,0.224,0.5,0.5
		C10.5,13.776,10.276,14,10,14z M10,10.5c0-0.276,0.224-0.5,0.5-0.5s0.5,0.224,0.5,0.5c0,0.276-0.224,0.5-0.5,0.5S10,10.776,10,10.5
		z M11,18c-0.276,0-0.5-0.224-0.5-0.5c0-0.276,0.224-0.5,0.5-0.5s0.5,0.224,0.5,0.5C11.5,17.776,11.276,18,11,18z M13,21
		c-0.276,0-0.5-0.224-0.5-0.5c0-0.276,0.224-0.5,0.5-0.5s0.5,0.224,0.5,0.5C13.5,20.776,13.276,21,13,21z M12.5,11.5
		c0-0.276,0.224-0.5,0.5-0.5s0.5,0.224,0.5,0.5c0,0.276-0.224,0.5-0.5,0.5S12.5,11.776,12.5,11.5z M13.5,16
		c-0.276,0-0.5-0.224-0.5-0.5c0-0.276,0.224-0.5,0.5-0.5s0.5,0.224,0.5,0.5C14,15.776,13.776,16,13.5,16z M9.763,7.5
		c0.59-1.149,1.126-2.51,1.215-4.452l0.799,0.399c0.141,0.07,0.307,0.07,0.447,0l0.799-0.399c0.089,1.942,0.625,3.303,1.215,4.452
		H9.763z"/>
</g>
<g id="invisible_shape">
	<rect fill="none" width="24" height="24"/>
</g>
</svg>
