<?xml version="1.0" encoding="utf-8"?>
<!-- Generator: Adobe Illustrator 19.2.0, SVG Export Plug-In . SVG Version: 6.00 Build 0)  -->
<svg version="1.1" xmlns="http://www.w3.org/2000/svg" xmlns:xlink="http://www.w3.org/1999/xlink" x="0px" y="0px" width="24px"
	 height="24px" viewBox="0 0 24 24" enable-background="new 0 0 24 24" xml:space="preserve">
<g id="Filled_Icons">
	<g>
		<path d="M13.618,7.166C13.856,6.837,14,6.437,14,6c0-1.102-0.898-2-2-2c-1.104,0-2,0.898-2,2c0,0.437,0.144,0.837,0.381,1.166
			C8.527,7.548,6.909,8.577,5.765,10h12.47C17.09,8.577,15.472,7.548,13.618,7.166z M12,7c-0.552,0-1-0.448-1-1c0-0.551,0.448-1,1-1
			c0.551,0,1,0.449,1,1C13,6.552,12.551,7,12,7z"/>
		<path d="M20.5,10.5c-0.752,0-2,0.5-2,0.5H5.082c-0.598,1.029-0.969,2.201-1.055,3.453C2.874,14.232,2,13.217,2,12v-1.5
			C2,9.675,1.327,9,0.5,9C0.224,9,0,9.225,0,9.5C0,9.776,0.224,10,0.5,10C0.775,10,1,10.225,1,10.5V12
			c0,1.768,1.316,3.227,3.019,3.463c0.09,1.572,0.633,3.063,1.593,4.338C5.706,19.927,5.853,20,6.011,20H17.99
			c0.157,0,0.306-0.073,0.399-0.199c0.558-0.741,0.971-1.556,1.241-2.414C19.914,17.46,20.204,17.5,20.5,17.5
			c1.93,0,3.5-1.569,3.5-3.5C24,12.07,22.43,10.5,20.5,10.5z M20.5,16.5c-0.215,0-0.424-0.036-0.629-0.09
			C19.954,15.949,20,15.477,20,15c0-1.139-0.244-2.222-0.675-3.203c0.359-0.194,0.759-0.297,1.175-0.297c1.378,0,2.5,1.122,2.5,2.5
			C23,15.379,21.878,16.5,20.5,16.5z"/>
	</g>
</g>
<g id="invisible_shape">
	<rect fill="none" width="24" height="24"/>
</g>
</svg>
