<?xml version="1.0" encoding="utf-8"?>
<!-- Generator: Adobe Illustrator 19.2.0, SVG Export Plug-In . SVG Version: 6.00 Build 0)  -->
<svg version="1.1" xmlns="http://www.w3.org/2000/svg" xmlns:xlink="http://www.w3.org/1999/xlink" x="0px" y="0px" width="24px"
	 height="24px" viewBox="0 0 24 24" enable-background="new 0 0 24 24" xml:space="preserve">
<g id="Filled_Icons">
	<g>
		<path d="M7.2,12C7.074,11.513,7,11.013,7,10.5c0-3.309,2.691-6,6-6s6,2.691,6,6c0,0.513-0.074,1.013-0.2,1.5h1.014
			C19.924,11.51,20,11.012,20,10.5c0-3.86-3.141-7-7-7s-7,3.14-7,7c0,0.512,0.076,1.01,0.187,1.5H7.2z"/>
		<path d="M18.628,12c-1.286-1.035-2.853-1.731-4.576-1.933C14.328,9.795,14.5,9.418,14.5,9c0-0.827-0.673-1.5-1.5-1.5
			S11.5,8.173,11.5,9c0,0.418,0.173,0.796,0.45,1.069C10.245,10.266,8.681,10.951,7.383,12H18.628z"/>
		<path d="M19.682,13H6.324c-0.409,0.455-0.787,0.943-1.102,1.487L3.85,13.144C3.757,13.051,3.631,13,3.5,13h-2
			c-0.369,0-0.614,0.389-0.447,0.724L4,19.618V21.5C4,22.878,5.121,24,6.5,24h13c1.379,0,2.5-1.122,2.5-2.5V19
			C22,16.692,21.116,14.595,19.682,13z"/>
	</g>
</g>
<g id="invisible_shape">
	<rect fill="none" width="24" height="24"/>
</g>
</svg>
