<?xml version="1.0" encoding="utf-8"?>
<!-- Generator: Adobe Illustrator 19.2.0, SVG Export Plug-In . SVG Version: 6.00 Build 0)  -->
<svg version="1.1" xmlns="http://www.w3.org/2000/svg" xmlns:xlink="http://www.w3.org/1999/xlink" x="0px" y="0px" width="24px"
	 height="24px" viewBox="0 0 24 24" enable-background="new 0 0 24 24" xml:space="preserve">
<g id="Filled_Icons">
	<path d="M21.333,19.984c0.003-0.024,0.005-0.049,0.007-0.072c0.359-3.639-2.315-8.964-2.34-14.337l0.729-2.379
		c0.081-0.406-0.1-0.826-0.451-1.044c-0.346-0.216-0.841-0.175-1.107,0.031L13.852,5H7.5C7.224,5,7,5.224,7,5.5
		C7,6.337,6.926,7.172,6.812,8H4.5C3.121,8,2,9.122,2,10.5V15c0,0.276,0.224,0.5,0.5,0.5S3,15.276,3,15v-4.5C3,9.673,3.673,9,4.5,9
		h2.154c-0.739,4.11-2.514,8.33-2.186,10.933c0.081,0.886,0.362,1.726,0.931,2.42C6.258,23.4,7.526,24,8.879,24h8.048
		c1.332,0,2.588-0.584,3.445-1.605C20.947,21.712,21.238,20.857,21.333,19.984z M7.992,6H14c0.097,0,0.191-0.028,0.273-0.081
		l4.487-2.968C18.725,3.069,18,5.378,18,5.5c0,2.876,0.729,5.727,1.371,8.245c0.294,1.15,0.567,2.241,0.757,3.255H5.723
		c0.201-0.977,0.483-2.025,0.787-3.13C7.169,11.472,7.91,8.771,7.992,6z"/>
</g>
<g id="invisible_shape">
	<rect fill="none" width="24" height="24"/>
</g>
</svg>
