<?xml version="1.0" encoding="utf-8"?>
<!-- Generator: Adobe Illustrator 19.2.0, SVG Export Plug-In . SVG Version: 6.00 Build 0)  -->
<svg version="1.1" xmlns="http://www.w3.org/2000/svg" xmlns:xlink="http://www.w3.org/1999/xlink" x="0px" y="0px" width="24px"
	 height="24px" viewBox="0 0 24 24" enable-background="new 0 0 24 24" xml:space="preserve">
<g id="Filled_Icons">
	<g>
		<path d="M9,2.5C9,2.224,8.776,2,8.5,2h-4C4.224,2,4,2.224,4,2.5V5h5V2.5z"/>
		<path d="M11,12.5c0-0.374,0.143-0.713,0.37-0.976c-0.292-0.252-0.59-0.481-0.87-0.695C9.57,10.12,9,9.652,9,9V6H4v3
			c0,0.646-0.692,1.157-1.495,1.748C1.389,11.572,0,12.596,0,14.5c0,3.003,0.732,7.897,0.772,8.15C0.961,23.407,1.72,24,2.5,24h8
			c0.416,0,0.818-0.177,1.141-0.456C11.251,23.06,11,22.484,11,21.847V12.5z M9.495,21.571C9.46,21.817,9.249,22,9,22H4
			c-0.249,0-0.46-0.183-0.495-0.429l-1-7c-0.02-0.144,0.022-0.289,0.117-0.398C2.717,14.063,2.855,14,3,14h7
			c0.144,0,0.283,0.063,0.378,0.173c0.095,0.109,0.138,0.254,0.117,0.398L9.495,21.571z"/>
		<path d="M23.5,12h-11c-0.276,0-0.5,0.224-0.5,0.5v9.347C12,23.04,13.466,24,14.68,24h6.691C22.562,24,24,23.04,24,21.847V12.5
			C24,12.224,23.776,12,23.5,12z M14.5,19c-0.276,0-0.5-0.224-0.5-0.5s0.224-0.5,0.5-0.5s0.5,0.224,0.5,0.5S14.776,19,14.5,19z
			 M15.5,21c-0.276,0-0.5-0.224-0.5-0.5s0.224-0.5,0.5-0.5s0.5,0.224,0.5,0.5S15.776,21,15.5,21z M17.5,22
			c-0.276,0-0.5-0.224-0.5-0.5s0.224-0.5,0.5-0.5s0.5,0.224,0.5,0.5S17.776,22,17.5,22z M17.5,20c-0.276,0-0.5-0.224-0.5-0.5
			s0.224-0.5,0.5-0.5s0.5,0.224,0.5,0.5S17.776,20,17.5,20z M19.5,20c-0.276,0-0.5-0.224-0.5-0.5s0.224-0.5,0.5-0.5
			s0.5,0.224,0.5,0.5S19.776,20,19.5,20z M20.5,22c-0.276,0-0.5-0.224-0.5-0.5s0.224-0.5,0.5-0.5s0.5,0.224,0.5,0.5
			S20.776,22,20.5,22z M21.5,19c-0.276,0-0.5-0.224-0.5-0.5s0.224-0.5,0.5-0.5s0.5,0.224,0.5,0.5S21.776,19,21.5,19z M23,16H13v-3
			h10V16z"/>
	</g>
</g>
<g id="invisible_shape">
	<rect fill="none" width="24" height="24"/>
</g>
</svg>
