<?xml version="1.0" encoding="utf-8"?>
<!-- Generator: Adobe Illustrator 19.2.0, SVG Export Plug-In . SVG Version: 6.00 Build 0)  -->
<svg version="1.1" xmlns="http://www.w3.org/2000/svg" xmlns:xlink="http://www.w3.org/1999/xlink" x="0px" y="0px" width="24px"
	 height="24px" viewBox="0 0 24 24" enable-background="new 0 0 24 24" xml:space="preserve">
<g id="Filled_Icons">
	<g>
		<polygon points="6.124,13 8.329,16.754 11.029,13 		"/>
		<path d="M5.312,13.591c0.122,2.391,0.405,4.412,0.869,6.148l1.51-2.098L5.312,13.591z"/>
		<polygon points="13.186,21 10.824,21 12.006,23.012 		"/>
		<path d="M16.315,17.643l1.514,2.109c0.471-1.752,0.754-3.783,0.867-6.17L16.315,17.643z"/>
		<polygon points="12.006,13.357 8.883,17.696 10.236,20 13.773,20 15.122,17.698 		"/>
		<polygon points="15.761,18.586 14.932,20 16.775,20 		"/>
		<path d="M14.346,21l-1.76,3H15.2c0.677,0,1.274-0.463,1.448-1.111c0.301-0.588,0.567-1.216,0.802-1.889H14.346z"/>
		<path d="M9.664,21H6.563c0.233,0.673,0.5,1.301,0.801,1.889C7.537,23.537,8.135,24,8.811,24h2.615L9.664,21z"/>
		<polygon points="12.981,13 15.676,16.754 17.877,13 		"/>
		<path d="M18.592,12c-0.182-0.467-0.503-0.879-0.943-1.172l-2.475-1.65c-0.418-0.279-0.668-0.746-0.668-1.248V5
			c0.252,0,0.465-0.188,0.496-0.438l0.5-4C15.539,0.264,15.308,0,15.006,0h-6C8.704,0,8.473,0.264,8.51,0.562l0.5,4
			C9.041,4.812,9.254,5,9.506,5v2.93c0,0.502-0.25,0.969-0.668,1.248l-2.475,1.65C5.92,11.124,5.597,11.54,5.415,12H18.592z
			 M10.506,5h3v1h-3V5z"/>
		<polygon points="8.244,18.584 7.226,20 9.076,20 		"/>
	</g>
</g>
<g id="invisible_shape">
	<rect fill="none" width="24" height="24"/>
</g>
</svg>
