<?xml version="1.0" encoding="utf-8"?>
<!-- Generator: Adobe Illustrator 19.2.0, SVG Export Plug-In . SVG Version: 6.00 Build 0)  -->
<svg version="1.1" xmlns="http://www.w3.org/2000/svg" xmlns:xlink="http://www.w3.org/1999/xlink" x="0px" y="0px" width="24px"
	 height="24px" viewBox="0 0 24 24" enable-background="new 0 0 24 24" xml:space="preserve">
<g id="Filled_Icons">
	<circle cx="9" cy="9" r="1"/>
	<g>
		<path d="M12.449,9.53C11.487,7.762,11,5.742,11,4V0.5C11,0.224,10.776,0,10.5,0h-3C7.224,0,7,0.224,7,0.5V4
			c0,1.96-0.494,3.775-1.43,5.492C4.409,11.627,4,13.5,4,15.5v6C4,22.878,5.121,24,6.5,24h5c1.379,0,2.5-1.122,2.5-2.5v-1.262
			c-0.384-0.258-0.712-0.585-1-0.944V20H5v-4h7.056l0.799-5.59C12.724,10.115,12.604,9.813,12.449,9.53z M8,4V3h2v1
			c0,1.819,0.479,3.905,1.423,5.731l-0.37,0.52c-0.477,0.671-1.208,1.052-2.043,1.051c-0.823-0.002-1.566-0.392-2.039-1.067
			l-0.376-0.54C7.515,7.899,8,6.023,8,4z"/>
	</g>
	<path d="M19,23h-2v-3.05c1.691-0.246,3-1.691,3-3.45c0-0.024-0.002-0.047-0.005-0.071l-1-7C18.96,9.184,18.749,9,18.5,9h-4
		c-0.249,0-0.46,0.184-0.495,0.429L13,16.5c0,1.759,1.309,3.204,3,3.45V23h-2c-0.276,0-0.5,0.224-0.5,0.5S13.724,24,14,24h5
		c0.276,0,0.5-0.224,0.5-0.5S19.276,23,19,23z M17.5,16c-0.276,0-0.5-0.224-0.5-0.5c0-0.275,0.224-0.5,0.5-0.5s0.5,0.225,0.5,0.5
		C18,15.776,17.776,16,17.5,16z M14.934,10h3.133l0.428,3h-3.988L14.934,10z M15.5,17c0-0.276,0.224-0.5,0.5-0.5s0.5,0.224,0.5,0.5
		s-0.224,0.5-0.5,0.5S15.5,17.276,15.5,17z"/>
</g>
<g id="invisible_shape">
	<rect fill="none" width="24" height="24"/>
</g>
</svg>
