<?xml version="1.0" encoding="utf-8"?>
<!-- Generator: Adobe Illustrator 19.2.0, SVG Export Plug-In . SVG Version: 6.00 Build 0)  -->
<svg version="1.1" xmlns="http://www.w3.org/2000/svg" xmlns:xlink="http://www.w3.org/1999/xlink" x="0px" y="0px" width="24px"
	 height="24px" viewBox="0 0 24 24" enable-background="new 0 0 24 24" xml:space="preserve">
<g id="Filled_Icons">
	<path d="M19.5,8c0-0.223-0.975-7.347-1.005-7.567C18.462,0.185,18.25,0,18,0H7C6.749,0,6.537,0.185,6.504,0.434
		C6.485,0.573,5.5,7.86,5.5,8c0,3.692,2.873,6.717,6.5,6.975V23H9.5C9.224,23,9,23.224,9,23.5S9.224,24,9.5,24h6
		c0.276,0,0.5-0.224,0.5-0.5S15.776,23,15.5,23H13v-8.025C16.626,14.717,19.5,11.692,19.5,8z M6.767,6l0.671-5h10.126l0.679,5H6.767
		z"/>
</g>
<g id="invisible_shape">
	<rect fill="none" width="24" height="24"/>
</g>
</svg>
