<?xml version="1.0" encoding="utf-8"?>
<!-- Generator: Adobe Illustrator 19.2.0, SVG Export Plug-In . SVG Version: 6.00 Build 0)  -->
<svg version="1.1" xmlns="http://www.w3.org/2000/svg" xmlns:xlink="http://www.w3.org/1999/xlink" x="0px" y="0px" width="24px"
	 height="24px" viewBox="0 0 24 24" enable-background="new 0 0 24 24" xml:space="preserve">
<g id="Filled_Icons">
	<path d="M16.998,12.46l-0.5-6l-0.5-6C15.977,0.199,15.76,0,15.5,0h-6C9.239,0,9.023,0.199,9.002,0.46l-0.5,6L8,12.5
		c0,2.313,1.753,4.222,4,4.471V23h-2c-0.276,0-0.5,0.224-0.5,0.5S9.724,24,10,24h5c0.276,0,0.5-0.224,0.5-0.5S15.276,23,15,23h-2
		v-6.029C15.246,16.721,17,14.81,16.998,12.46z M13.5,12.5c-0.276,0-0.5-0.224-0.5-0.5s0.224-0.5,0.5-0.5c0.275,0,0.5,0.224,0.5,0.5
		S13.775,12.5,13.5,12.5z M14.5,10C14.224,10,14,9.776,14,9.5S14.224,9,14.5,9C14.775,9,15,9.224,15,9.5S14.775,10,14.5,10z M9.96,1
		h5.08l0.416,5H9.543L9.96,1z M10.5,12c-0.276,0-0.5-0.224-0.5-0.5s0.224-0.5,0.5-0.5c0.275,0,0.5,0.224,0.5,0.5S10.775,12,10.5,12z
		 M11.5,9C11.224,9,11,8.776,11,8.5S11.224,8,11.5,8C11.775,8,12,8.224,12,8.5S11.775,9,11.5,9z M12.5,14.5
		c-0.276,0-0.5-0.224-0.5-0.5s0.224-0.5,0.5-0.5c0.275,0,0.5,0.224,0.5,0.5S12.775,14.5,12.5,14.5z"/>
</g>
<g id="invisible_shape">
	<rect fill="none" width="24" height="24"/>
</g>
</svg>
