<?xml version="1.0" encoding="utf-8"?>
<!-- Generator: Adobe Illustrator 19.2.1, SVG Export Plug-In . SVG Version: 6.00 Build 0)  -->
<svg version="1.1" xmlns="http://www.w3.org/2000/svg" xmlns:xlink="http://www.w3.org/1999/xlink" x="0px" y="0px" width="24px"
	 height="24px" viewBox="0 0 24 24" enable-background="new 0 0 24 24" xml:space="preserve">
<g id="Filled_Icon">
	<g>
		<path d="M19,12.002c0-2.207-1.795-4-4-4H5.5c-0.276,0-0.5,0.223-0.5,0.5v7c0,0.275,0.224,0.5,0.5,0.498H15
			C17.205,16.002,19,14.207,19,12.002z M13,13.502v-3c0-0.277,0.224-0.5,0.5-0.5H15c1.103,0,2,0.896,2,2c0,1.102-0.897,2-2,2h-1.5
			C13.224,14.002,13,13.777,13,13.502z"/>
		<path d="M16.344,22.043l-2.527,0.828l-0.843-2.512c-0.088-0.262-0.371-0.4-0.633-0.314c-0.262,0.088-0.403,0.371-0.315,0.633
			l1,2.983c0.089,0.266,0.377,0.402,0.63,0.315l3-0.981c0.263-0.086,0.405-0.369,0.319-0.631
			C16.89,22.102,16.609,21.957,16.344,22.043z"/>
		<path d="M15.423,6.592c0.062,0.275,0.337,0.439,0.599,0.377c0.27-0.061,0.438-0.328,0.377-0.599
			c-0.631-2.778-1.709-4.991-3.036-6.234c-0.202-0.188-0.519-0.179-0.707,0.024c-0.189,0.201-0.179,0.517,0.023,0.707
			C13.861,1.973,14.836,4.006,15.423,6.592z"/>
		<path d="M17.342,20.045l-1.899,0.633c0.376-0.892,0.698-1.908,0.955-3.042c0.062-0.268-0.107-0.538-0.377-0.599
			c-0.272-0.06-0.537,0.107-0.599,0.377c-0.232,1.023-0.519,1.935-0.849,2.744l-0.6-1.797c-0.087-0.263-0.367-0.404-0.632-0.316
			c-0.262,0.086-0.403,0.369-0.316,0.633l1,3c0.087,0.257,0.366,0.404,0.633,0.315l3-1c0.262-0.086,0.403-0.369,0.315-0.631
			C17.887,20.099,17.605,19.957,17.342,20.045z"/>
	</g>
</g>
<g id="Invisible_Shape">
	<rect fill="none" width="24" height="24"/>
</g>
</svg>
