<?xml version="1.0" encoding="utf-8"?>
<!-- Generator: Adobe Illustrator 19.2.1, SVG Export Plug-In . SVG Version: 6.00 Build 0)  -->
<svg version="1.1" xmlns="http://www.w3.org/2000/svg" xmlns:xlink="http://www.w3.org/1999/xlink" x="0px" y="0px" width="24px"
	 height="24px" viewBox="0 0 24 24" enable-background="new 0 0 24 24" xml:space="preserve">
<g id="Filled_Icon">
	<g>
		<path d="M12.341,3.957c0.267,0.09,0.546-0.057,0.633-0.314l0.843-2.512l2.527,0.828c0.264,0.086,0.545-0.059,0.631-0.32
			s-0.057-0.545-0.319-0.631l-3-0.982c-0.263-0.086-0.542,0.057-0.63,0.316l-1,2.982C11.938,3.586,12.079,3.869,12.341,3.957z"/>
		<path d="M16.021,17.033c-0.271-0.06-0.537,0.107-0.599,0.377c-0.587,2.586-1.562,4.619-2.744,5.726
			c-0.202,0.188-0.212,0.505-0.023,0.708c0.19,0.201,0.504,0.211,0.707,0.024c1.327-1.242,2.405-3.457,3.036-6.236
			C16.46,17.361,16.291,17.094,16.021,17.033z"/>
		<path d="M14.025,2.326l-1,3c-0.087,0.261,0.055,0.544,0.316,0.631c0.271,0.09,0.548-0.06,0.632-0.315l0.594-1.78
			c0.339,0.818,0.628,1.725,0.854,2.727c0.059,0.26,0.317,0.438,0.599,0.377c0.27-0.062,0.438-0.329,0.377-0.598
			c-0.254-1.119-0.581-2.137-0.97-3.048l1.914,0.638c0.264,0.09,0.545-0.054,0.632-0.315c0.088-0.263-0.054-0.546-0.315-0.632l-3-1
			C14.394,1.92,14.113,2.065,14.025,2.326z"/>
		<path d="M15,8.002H5.5c-0.276,0-0.5,0.223-0.5,0.5v7c0,0.275,0.224,0.5,0.5,0.498H15c2.205,0.002,4-1.793,4-3.998
			C19,9.795,17.205,8.002,15,8.002z M15,14.002h-1.5c-0.276,0-0.5-0.225-0.5-0.5v-3c0-0.277,0.224-0.5,0.5-0.5H15
			c1.103,0,2,0.896,2,2C17,13.104,16.103,14.002,15,14.002z"/>
	</g>
</g>
<g id="Invisible_Shape">
	<rect fill="none" width="24" height="24"/>
</g>
</svg>
