<?xml version="1.0" encoding="utf-8"?>
<!-- Generator: Adobe Illustrator 19.2.1, SVG Export Plug-In . SVG Version: 6.00 Build 0)  -->
<svg version="1.1" xmlns="http://www.w3.org/2000/svg" xmlns:xlink="http://www.w3.org/1999/xlink" x="0px" y="0px" width="24px"
	 height="24px" viewBox="0 0 24 24" enable-background="new 0 0 24 24" xml:space="preserve">
<g id="Filled_Icon">
	<g>
		<path d="M12,5C9.794,5,8,6.795,8,9v9.5C8,18.777,8.224,19,8.5,19h7c0.276,0,0.5-0.223,0.5-0.5V9C16,6.795,14.206,5,12,5z M14,10.5
			c0,0.277-0.224,0.5-0.5,0.5h-3c-0.276,0-0.5-0.223-0.5-0.5V9c0-1.103,0.897-2,2-2c1.102,0,2,0.897,2,2V10.5z"/>
		<path d="M23.974,10.342l-1-3c-0.087-0.262-0.368-0.404-0.632-0.316c-0.262,0.088-0.403,0.371-0.316,0.633l0.842,2.525
			l-2.525,0.842c-0.262,0.088-0.403,0.371-0.316,0.633c0.086,0.258,0.365,0.404,0.633,0.315l3-1
			C23.92,10.887,24.062,10.604,23.974,10.342z"/>
		<path d="M6.352,7.601C3.588,8.229,1.38,9.307,0.135,10.638c-0.188,0.202-0.179,0.519,0.023,0.708
			c0.204,0.188,0.517,0.178,0.707-0.023c1.109-1.188,3.137-2.162,5.708-2.746c0.27-0.062,0.438-0.328,0.377-0.598
			C6.89,7.709,6.626,7.539,6.352,7.601z"/>
		<path d="M21.746,9.924c0.2-0.116,0.305-0.354,0.229-0.582l-1-3c-0.087-0.262-0.368-0.404-0.632-0.316
			c-0.262,0.088-0.403,0.371-0.316,0.633l0.638,1.914c-0.911-0.39-1.928-0.717-3.046-0.971c-0.273-0.059-0.538,0.107-0.599,0.377
			c-0.061,0.27,0.108,0.538,0.377,0.6c1.001,0.227,1.908,0.516,2.728,0.853l-1.781,0.594c-0.262,0.088-0.403,0.371-0.316,0.633
			C18.096,10.867,18.291,11,18.5,11C18.662,11,21.67,9.975,21.746,9.924z"/>
	</g>
</g>
<g id="Invisible_Shape">
	<rect fill="none" width="24" height="24"/>
</g>
</svg>
