<?xml version="1.0" encoding="utf-8"?>
<!-- Generator: Adobe Illustrator 19.2.1, SVG Export Plug-In . SVG Version: 6.00 Build 0)  -->
<svg version="1.1" xmlns="http://www.w3.org/2000/svg" xmlns:xlink="http://www.w3.org/1999/xlink" x="0px" y="0px" width="24px"
	 height="24px" viewBox="0 0 24 24" enable-background="new 0 0 24 24" xml:space="preserve">
<g id="Filled_Icon">
	<g>
		<path d="M6.501,8h-2.46l1.351-1.688c0.172-0.215,0.137-0.529-0.078-0.703C5.097,5.437,4.783,5.474,4.61,5.688l-2,2.5
			c-0.145,0.182-0.138,0.451,0,0.625l2,2.5c0.17,0.213,0.482,0.252,0.703,0.078c0.215-0.172,0.25-0.487,0.078-0.703L4.041,9h2.46
			c0.276,0,0.5-0.223,0.5-0.5C7.001,8.224,6.777,8,6.501,8z"/>
		<path d="M21.391,8.188l-2-2.5c-0.173-0.215-0.487-0.251-0.703-0.078c-0.216,0.174-0.251,0.488-0.078,0.703L19.959,8H17.5
			C17.224,8,17,8.224,17,8.5C17,8.777,17.224,9,17.5,9h2.459l-1.35,1.688c-0.173,0.216-0.138,0.531,0.078,0.703
			c0.214,0.172,0.527,0.139,0.703-0.078l2-2.5C21.541,8.613,21.522,8.354,21.391,8.188z"/>
		<path d="M23.891,8.188l-2-2.5c-0.173-0.215-0.487-0.251-0.703-0.078c-0.216,0.174-0.251,0.488-0.078,0.703L22.86,8.5l-1.75,2.188
			c-0.173,0.216-0.138,0.531,0.078,0.703c0.214,0.172,0.527,0.139,0.703-0.078l2-2.5C24.037,8.631,24.037,8.37,23.891,8.188z"/>
		<path d="M1.14,8.5l1.751-2.188c0.172-0.215,0.137-0.529-0.078-0.703C2.596,5.437,2.283,5.474,2.11,5.688l-2,2.5
			c-0.146,0.183-0.146,0.443,0,0.625l2,2.5c0.17,0.213,0.482,0.252,0.703,0.078c0.215-0.172,0.25-0.487,0.078-0.703L1.14,8.5z"/>
		<path d="M12,5C9.794,5,8,6.795,8,9v9.5C8,18.777,8.224,19,8.5,19h7c0.276,0,0.5-0.223,0.5-0.5V9C16,6.795,14.206,5,12,5z M14,10.5
			c0,0.277-0.224,0.5-0.5,0.5h-3c-0.276,0-0.5-0.223-0.5-0.5V9c0-1.103,0.897-2,2-2c1.102,0,2,0.897,2,2V10.5z"/>
	</g>
</g>
<g id="Invisible_Shape">
	<rect fill="none" width="24" height="24"/>
</g>
</svg>
