<?xml version="1.0" encoding="utf-8"?>
<!-- Generator: Adobe Illustrator 19.2.1, SVG Export Plug-In . SVG Version: 6.00 Build 0)  -->
<svg version="1.1" xmlns="http://www.w3.org/2000/svg" xmlns:xlink="http://www.w3.org/1999/xlink" x="0px" y="0px" width="24px"
	 height="24px" viewBox="0 0 24 24" enable-background="new 0 0 24 24" xml:space="preserve">
<g id="Filled_Icon">
	<g>
		<g>
			<path d="M3.974,12.158c0.087-0.262-0.054-0.545-0.316-0.633l-2.526-0.842l0.842-2.525C2.062,7.897,1.92,7.613,1.658,7.525
				C1.394,7.438,1.113,7.58,1.026,7.842l-1,3c-0.087,0.262,0.054,0.545,0.316,0.633l3,1C3.6,12.561,3.886,12.424,3.974,12.158z"/>
		</g>
		<g>
			<path d="M23.842,11.344c0.202-0.189,0.212-0.506,0.023-0.707c-1.245-1.329-3.453-2.408-6.217-3.036
				c-0.265-0.067-0.538,0.108-0.599,0.376c-0.061,0.27,0.108,0.538,0.377,0.6c2.571,0.584,4.599,1.559,5.709,2.744
				C23.322,11.521,23.638,11.533,23.842,11.344z"/>
		</g>
		<path d="M2.026,9.342l1-3c0.087-0.26,0.368-0.404,0.632-0.316C3.92,6.113,4.062,6.397,3.974,6.658L3.342,8.557
			c0.895-0.375,1.907-0.697,3.04-0.954C6.656,7.535,6.92,7.711,6.981,7.981c0.061,0.267-0.108,0.536-0.377,0.598
			c-1.008,0.228-1.93,0.52-2.743,0.848l1.797,0.6c0.262,0.088,0.403,0.371,0.316,0.633c-0.088,0.266-0.375,0.402-0.632,0.316l-3-1
			C2.08,9.887,1.939,9.604,2.026,9.342z"/>
		<path d="M11,6.981c0-0.553,0.447-1,1-1s1,0.447,1,1v4.754l3.92,1.17c0.654,0.189,1.047,0.856,0.894,1.52
			c-0.13,0.563-0.745,4.002-0.85,4.576h-6.12l-3.061-4.59C6.568,12.553,9.619,11.908,11,15V6.981z"/>
	</g>
</g>
<g id="Invisible_Shape">
	<rect fill="none" width="24" height="24"/>
</g>
</svg>
