<?xml version="1.0" encoding="utf-8"?>
<!-- Generator: Adobe Illustrator 19.2.1, SVG Export Plug-In . SVG Version: 6.00 Build 0)  -->
<svg version="1.1" xmlns="http://www.w3.org/2000/svg" xmlns:xlink="http://www.w3.org/1999/xlink" x="0px" y="0px" width="24px"
	 height="24px" viewBox="0 0 24 24" enable-background="new 0 0 24 24" xml:space="preserve">
<g id="Filled_Icon">
	<g>
		<g>
			<path d="M12.676,23.852c-0.189-0.201-0.178-0.518,0.023-0.707c1.187-1.109,2.161-3.137,2.745-5.708
				c0.061-0.269,0.327-0.442,0.599-0.376c0.269,0.06,0.438,0.328,0.377,0.598c-0.627,2.764-1.706,4.973-3.037,6.217
				C13.178,24.065,12.862,24.051,12.676,23.852z"/>
		</g>
		<path d="M14.295,1.234l1.64,0.285c0.268,0.052,0.531-0.134,0.579-0.406c0.047-0.271-0.135-0.531-0.407-0.578l-3.02-0.527
			c-0.272-0.049-0.536,0.137-0.58,0.414l-0.479,3.016c-0.043,0.273,0.142,0.529,0.415,0.572c0.288,0.043,0.531-0.154,0.572-0.416
			l0.313-1.971c0.895,1.176,1.647,2.928,2.115,4.992c0.062,0.272,0.333,0.438,0.599,0.377c0.269-0.061,0.438-0.33,0.377-0.599
			C15.941,4.293,15.205,2.515,14.295,1.234z"/>
		<path d="M17.021,10.5c0.552,0,1,0.447,1,1s-0.448,1-1,1h-4.755l-1.169,3.92c-0.189,0.654-0.856,1.047-1.521,0.895
			C8.98,17.178,9.874,17.35,5,16.465v-6.121l4.591-3.061C11.447,6.068,12.092,9.119,9,10.5H17.021z"/>
	</g>
</g>
<g id="Invisible_Shape">
	<rect fill="none" width="24" height="24"/>
</g>
</svg>
