<?xml version="1.0" encoding="utf-8"?>
<!-- Generator: Adobe Illustrator 19.2.1, SVG Export Plug-In . SVG Version: 6.00 Build 0)  -->
<svg version="1.1" xmlns="http://www.w3.org/2000/svg" xmlns:xlink="http://www.w3.org/1999/xlink" x="0px" y="0px" width="24px"
	 height="24px" viewBox="0 0 24 24" enable-background="new 0 0 24 24" xml:space="preserve">
<g id="Filled_Icon">
	<g>
		<g>
			<path d="M17.237,15.883c-0.233-0.148-0.304-0.457-0.156-0.689C19.584,11.219,16.728,6,12,6c-4.717,0-7.579,5.197-5.089,9.182
				c0.147,0.233,0.075,0.541-0.159,0.688c-0.235,0.147-0.543,0.076-0.689-0.158C3.157,11.061,6.497,5,12,5
				c5.522,0,8.848,6.092,5.926,10.726C17.779,15.961,17.468,16.029,17.237,15.883z"/>
		</g>
		<g>
			<path d="M4.635,18.764C-1.219,12.393,3.287,2,12,2c8.688,0,13.216,10.346,7.393,16.734c-0.186,0.203-0.503,0.218-0.707,0.031
				c-0.204-0.186-0.219-0.502-0.033-0.705C23.887,12.32,19.825,3,12,3C4.15,3,0.112,12.363,5.371,18.088
				c0.187,0.203,0.173,0.52-0.03,0.707C5.137,18.98,4.822,18.969,4.635,18.764z"/>
		</g>
		<path d="M11,10.981c0-0.553,0.447-1,1-1s1,0.447,1,1v4.754l3.92,1.17c0.654,0.189,1.047,0.855,0.894,1.519
			c-0.13,0.564-0.746,4.002-0.85,4.576h-6.12l-3.061-4.59C6.568,16.553,9.619,15.908,11,19V10.981z"/>
	</g>
</g>
<g id="Invisible_Shape">
	<rect fill="none" width="24" height="24"/>
</g>
</svg>
