<?xml version="1.0" encoding="utf-8"?>
<!-- Generator: Adobe Illustrator 19.2.1, SVG Export Plug-In . SVG Version: 6.00 Build 0)  -->
<svg version="1.1" xmlns="http://www.w3.org/2000/svg" xmlns:xlink="http://www.w3.org/1999/xlink" x="0px" y="0px" width="24px"
	 height="24px" viewBox="0 0 24 24" enable-background="new 0 0 24 24" xml:space="preserve">
<g id="Filled_Icon">
	<g>
		<path d="M23.506,3.92c-0.045-0.271-0.3-0.468-0.574-0.413c-0.272,0.044-0.458,0.301-0.414,0.573l0.314,1.934
			C16.376,2.379,5.741,2.803,0.221,6.525C-0.008,6.68-0.069,6.99,0.085,7.219c0.154,0.23,0.465,0.289,0.694,0.136
			C6.008,3.828,16.28,3.438,22.385,6.91l-1.559,0.626c-0.256,0.103-0.38,0.396-0.277,0.65c0.103,0.257,0.393,0.38,0.65,0.278
			l2.487-1c0.217-0.088,0.345-0.314,0.307-0.545L23.506,3.92z"/>
		<path d="M10,8.981c0-1.323,2-1.32,2,0v4.754l1.003,0.246l1.5-4.816c0.313-1.148,2.075-0.73,1.802,0.455l-1.302,4.861
			c1.019,0.472,2.08,0.776,1.81,1.943c-0.13,0.564-0.746,4.002-0.85,4.576h-6.12l-3.061-4.59C5.568,14.553,8.619,13.908,10,17V8.981
			z"/>
	</g>
</g>
<g id="Invisible_Shape">
	<rect fill="none" width="24" height="24"/>
</g>
</svg>
