<?xml version="1.0" encoding="utf-8"?>
<!-- Generator: Adobe Illustrator 19.2.1, SVG Export Plug-In . SVG Version: 6.00 Build 0)  -->
<svg version="1.1" xmlns="http://www.w3.org/2000/svg" xmlns:xlink="http://www.w3.org/1999/xlink" x="0px" y="0px" width="24px"
	 height="24px" viewBox="0 0 24 24" enable-background="new 0 0 24 24" xml:space="preserve">
<g id="Filled_Icon">
	<g>
		<path d="M17.02,11c0.553,0,1,0.447,1,1s-0.447,1-1,1h-4.754l-1.17,3.92c-0.189,0.654-0.856,1.047-1.52,0.895
			C9.013,17.684,5.574,17.068,5,16.965v-6.121l4.59-3.061C11.447,6.568,12.092,9.619,9,11H17.02z"/>
		<g>
			<path d="M16,6.5V4.041l1.688,1.35c0.216,0.172,0.53,0.137,0.703-0.078c0.171-0.215,0.136-0.529-0.078-0.703l-2.5-2
				c-0.183-0.147-0.442-0.147-0.625,0l-2.5,2c-0.215,0.174-0.251,0.486-0.078,0.703c0.173,0.215,0.487,0.25,0.703,0.078L15,4.041
				V6.5C15,6.777,15.224,7,15.5,7S16,6.777,16,6.5z"/>
			<path d="M15.5,1.141l2.188,1.75c0.216,0.172,0.53,0.137,0.703-0.078c0.171-0.215,0.136-0.529-0.078-0.703l-2.5-2
				c-0.183-0.146-0.442-0.146-0.625,0l-2.5,2c-0.215,0.174-0.251,0.486-0.078,0.703c0.173,0.215,0.487,0.25,0.703,0.078L15.5,1.141z
				"/>
		</g>
		<g>
			<path d="M16,17.5v2.461l1.688-1.351c0.216-0.171,0.53-0.136,0.703,0.079c0.171,0.214,0.136,0.528-0.078,0.702l-2.5,2
				c-0.183,0.146-0.442,0.146-0.625,0l-2.5-2c-0.215-0.172-0.251-0.485-0.078-0.702c0.173-0.215,0.487-0.25,0.703-0.079L15,19.961
				V17.5c0-0.276,0.224-0.5,0.5-0.5S16,17.224,16,17.5z"/>
			<path d="M15.5,22.859l2.188-1.75c0.216-0.171,0.53-0.136,0.703,0.079c0.171,0.215,0.136,0.528-0.078,0.702l-2.5,2
				c-0.183,0.146-0.442,0.146-0.625,0l-2.5-2c-0.215-0.172-0.251-0.485-0.078-0.702c0.173-0.215,0.487-0.25,0.703-0.079L15.5,22.859
				z"/>
		</g>
	</g>
</g>
<g id="Invisible_Shape">
	<rect fill="none" width="24" height="24"/>
</g>
</svg>
