<?xml version="1.0" encoding="utf-8"?>
<!-- Generator: Adobe Illustrator 19.2.1, SVG Export Plug-In . SVG Version: 6.00 Build 0)  -->
<svg version="1.1" xmlns="http://www.w3.org/2000/svg" xmlns:xlink="http://www.w3.org/1999/xlink" x="0px" y="0px" width="24px"
	 height="24px" viewBox="0 0 24 24" enable-background="new 0 0 24 24" xml:space="preserve">
<g id="Filled_Icon">
	<g>
		<path d="M14.312,2.109l-2.5-2c-0.183-0.146-0.442-0.146-0.625,0l-2.5,2c-0.215,0.174-0.25,0.488-0.078,0.703
			c0.172,0.215,0.487,0.25,0.703,0.078L11,1.541V4.5C11,4.777,11.224,5,11.5,5S12,4.777,12,4.5V1.541l1.688,1.35
			c0.218,0.174,0.53,0.137,0.703-0.078C14.563,2.598,14.528,2.283,14.312,2.109z"/>
		<path d="M14.312,21.891l-2.5,2c-0.183,0.146-0.442,0.146-0.625,0l-2.5-2c-0.215-0.172-0.25-0.487-0.078-0.703
			c0.172-0.214,0.487-0.25,0.703-0.078L11,22.459V19.5c0-0.276,0.224-0.5,0.5-0.5s0.5,0.224,0.5,0.5v2.959l1.688-1.35
			c0.218-0.173,0.53-0.137,0.703,0.078C14.563,21.403,14.528,21.719,14.312,21.891z"/>
		<path d="M3.5,11H1.54l1.351-1.688c0.172-0.215,0.137-0.529-0.078-0.703c-0.216-0.17-0.53-0.137-0.703,0.078l-2,2.5
			c-0.146,0.183-0.146,0.443,0,0.625l2,2.5c0.173,0.215,0.485,0.252,0.703,0.078c0.215-0.172,0.25-0.487,0.078-0.703L1.54,12H3.5
			C3.776,12,4,11.777,4,11.5C4,11.224,3.776,11,3.5,11z"/>
		<path d="M20.499,11h1.96l-1.351-1.688c-0.172-0.215-0.137-0.529,0.078-0.703c0.216-0.17,0.53-0.137,0.703,0.078l2,2.5
			c0.146,0.183,0.146,0.443,0,0.625l-2,2.5c-0.173,0.215-0.485,0.252-0.703,0.078c-0.215-0.172-0.25-0.487-0.078-0.703L22.459,12
			h-1.96c-0.276,0-0.5-0.223-0.5-0.5C19.999,11.224,20.223,11,20.499,11z"/>
		<g>
			<path d="M17.237,16.883c-0.233-0.148-0.304-0.457-0.156-0.689C19.584,12.219,16.728,7,12,7c-4.717,0-7.579,5.197-5.089,9.182
				c0.147,0.233,0.075,0.541-0.159,0.688c-0.234,0.146-0.543,0.076-0.689-0.158C3.157,12.061,6.497,6,12,6
				c5.522,0,8.848,6.092,5.926,10.726C17.779,16.961,17.468,17.029,17.237,16.883z"/>
		</g>
		<path d="M11.003,10c0-0.553,0.444-1,0.997-1s1.003,0.447,1.003,1v2c2.607,1.184,3.76,1.421,3.467,2.689
			c-0.131,0.566-0.8,2.754-0.967,3.311h-4l-2.5-3c-1-1.5,1.003-2,2-0.481V10z"/>
	</g>
</g>
<g id="Invisible_Shape">
	<rect fill="none" width="24" height="24"/>
</g>
</svg>
