<?xml version="1.0" encoding="utf-8"?>
<!-- Generator: Adobe Illustrator 19.2.1, SVG Export Plug-In . SVG Version: 6.00 Build 0)  -->
<svg version="1.1" xmlns="http://www.w3.org/2000/svg" xmlns:xlink="http://www.w3.org/1999/xlink" x="0px" y="0px" width="24px"
	 height="24px" viewBox="0 0 24 24" enable-background="new 0 0 24 24" xml:space="preserve">
<g id="Filled_Icon">
	<g>
		<g>
			<path d="M11.073,14.726C8.154,10.09,11.477,4,17,4c5.503,0,8.844,6.061,5.937,10.711c-0.146,0.234-0.455,0.305-0.689,0.158
				c-0.234-0.146-0.305-0.455-0.159-0.688C24.579,10.197,21.717,5,17,5c-4.733,0-7.581,5.223-5.081,9.193
				c0.147,0.232,0.077,0.543-0.157,0.689C11.532,15.029,11.222,14.961,11.073,14.726z"/>
		</g>
		<path d="M8.5,9H1.54l1.351-1.688c0.172-0.215,0.137-0.529-0.078-0.703c-0.216-0.172-0.53-0.136-0.703,0.078l-2,2.5
			c-0.146,0.183-0.146,0.443,0,0.625l2,2.5c0.173,0.215,0.485,0.252,0.703,0.078c0.215-0.172,0.25-0.487,0.078-0.703L1.54,10H8.5
			C8.776,10,9,9.777,9,9.5C9,9.224,8.776,9,8.5,9z"/>
		<path d="M16,10.981c0-0.553,0.447-1,1-1s1,0.447,1,1v4.754l3.92,1.17c0.654,0.189,1.047,0.855,0.894,1.519
			c-0.13,0.564-0.746,4.002-0.85,4.576h-6.12l-3.061-4.59C11.568,16.553,14.619,15.908,16,19V10.981z"/>
	</g>
</g>
<g id="Invisible_Shape">
	<rect fill="none" width="24" height="24"/>
</g>
</svg>
