<?xml version="1.0" encoding="utf-8"?>
<!-- Generator: Adobe Illustrator 19.2.1, SVG Export Plug-In . SVG Version: 6.00 Build 0)  -->
<svg version="1.1" xmlns="http://www.w3.org/2000/svg" xmlns:xlink="http://www.w3.org/1999/xlink" x="0px" y="0px" width="24px"
	 height="24px" viewBox="0 0 24 24" enable-background="new 0 0 24 24" xml:space="preserve">
<g id="Filled_Icon">
	<g>
		<g>
			<path d="M11.29,22.935c-0.234-0.146-0.305-0.455-0.159-0.689c0.146-0.232,0.455-0.305,0.689-0.158C15.802,24.58,21,21.719,21,17
				c0-4.729-5.221-7.582-9.193-5.081c-0.234,0.15-0.542,0.077-0.69-0.155c-0.147-0.234-0.077-0.544,0.157-0.689
				C15.905,8.154,22,11.475,22,17C22,22.506,15.933,25.842,11.29,22.935z"/>
		</g>
		<path d="M19.312,2.109l-2.5-2c-0.183-0.146-0.442-0.146-0.625,0l-2.5,2c-0.215,0.174-0.25,0.488-0.078,0.703
			c0.172,0.215,0.487,0.25,0.703,0.078L16,1.541V8.5C16,8.777,16.224,9,16.5,9S17,8.777,17,8.5V1.541l1.688,1.35
			c0.218,0.174,0.53,0.137,0.703-0.078C19.563,2.598,19.528,2.283,19.312,2.109z"/>
		<path d="M15.021,16c0.552,0,1,0.447,1,1s-0.448,1-1,1h-4.755l-1.169,3.92c-0.189,0.654-0.856,1.047-1.52,0.895
			C7.008,22.683,3.581,22.069,3,21.965v-6.121l4.591-3.061C9.447,11.568,10.092,14.619,7,16H15.021z"/>
	</g>
</g>
<g id="Invisible_Shape">
	<rect fill="none" width="24" height="24"/>
</g>
</svg>
