<?xml version="1.0" encoding="utf-8"?>
<!-- Generator: Adobe Illustrator 19.2.1, SVG Export Plug-In . SVG Version: 6.00 Build 0)  -->
<svg version="1.1" xmlns="http://www.w3.org/2000/svg" xmlns:xlink="http://www.w3.org/1999/xlink" x="0px" y="0px" width="24px"
	 height="24px" viewBox="0 0 24 24" enable-background="new 0 0 24 24" xml:space="preserve">
<g id="Filled_Icon">
	<g>
		<path d="M20.08,23.507c0.272-0.044,0.468-0.301,0.413-0.574c-0.044-0.272-0.301-0.457-0.573-0.414l-1.933,0.315
			c3.634-6.457,3.21-17.092-0.512-22.613c-0.155-0.228-0.466-0.289-0.694-0.135c-0.229,0.153-0.289,0.465-0.136,0.693
			c3.527,5.231,3.916,15.502,0.444,21.605l-0.626-1.559c-0.103-0.257-0.395-0.379-0.65-0.277c-0.256,0.104-0.38,0.395-0.277,0.65
			l1,2.487c0.087,0.217,0.313,0.345,0.544,0.308L20.08,23.507z"/>
		<path d="M15.019,10c1.323,0,1.321,2,0,2h-4.754l-0.246,1.003l4.816,1.5c1.148,0.313,0.73,2.077-0.454,1.803l-4.862-1.303
			c-0.472,1.02-0.775,2.081-1.943,1.812C7.013,16.684,3.574,16.068,3,15.965V9.844l4.59-3.061C9.447,5.568,10.092,8.619,7,10H15.019
			z"/>
	</g>
</g>
<g id="Invisible_Shape">
	<rect fill="none" width="24" height="24"/>
</g>
</svg>
