<?xml version="1.0" encoding="utf-8"?>
<!-- Generator: Adobe Illustrator 19.2.1, SVG Export Plug-In . SVG Version: 6.00 Build 0)  -->
<svg version="1.1" xmlns="http://www.w3.org/2000/svg" xmlns:xlink="http://www.w3.org/1999/xlink" x="0px" y="0px" width="24px"
	 height="24px" viewBox="0 0 24 24" enable-background="new 0 0 24 24" xml:space="preserve">
<g id="Filled_Icon">
	<g>
		<path d="M10.283,22.316l-0.985-2.5c-0.101-0.256-0.392-0.385-0.649-0.281c-0.257,0.101-0.383,0.392-0.282,0.648l0.657,1.667
			c-1.272-0.43-2.445-1.856-3.237-4.022c-0.095-0.259-0.383-0.391-0.642-0.297c-0.259,0.094-0.393,0.381-0.298,0.641
			c0.795,2.174,1.939,3.674,3.261,4.373l-1.436,0.482c-0.262,0.086-0.403,0.369-0.315,0.633c0.091,0.27,0.384,0.402,0.633,0.313
			l2.985-1C10.239,22.879,10.394,22.598,10.283,22.316z"/>
		<path d="M22.476,6.336c-0.783-2.418-2.013-4.117-3.445-4.879l1.445-0.482c0.262-0.088,0.403-0.371,0.316-0.633
			c-0.087-0.26-0.367-0.402-0.632-0.316c-3.165,1.055-3.017,1.01-3.017,1.01c-0.258,0.1-0.394,0.381-0.286,0.66l0.997,2.49
			c0.102,0.256,0.394,0.383,0.65,0.279c0.256-0.103,0.381-0.394,0.279-0.65l-0.665-1.662c1.37,0.467,2.63,2.09,3.408,4.492
			c0.084,0.262,0.366,0.406,0.629,0.322C22.417,6.881,22.56,6.599,22.476,6.336z"/>
		<path d="M11,6.992c0-1.323,2-1.321,2,0v4.754l1.003,0.246l1.5-4.816c0.313-1.148,2.075-0.73,1.802,0.455l-1.302,4.861
			c1.019,0.473,2.08,0.775,1.81,1.943c-0.13,0.564-0.746,4.002-0.85,4.576h-6.12l-3.061-4.59C6.568,12.564,9.619,11.92,11,15.012
			V6.992z"/>
	</g>
</g>
<g id="Invisible_Shape">
	<rect fill="none" width="24" height="24"/>
</g>
</svg>
