<?xml version="1.0" encoding="utf-8"?>
<!-- Generator: Adobe Illustrator 19.2.1, SVG Export Plug-In . SVG Version: 6.00 Build 0)  -->
<svg version="1.1" xmlns="http://www.w3.org/2000/svg" xmlns:xlink="http://www.w3.org/1999/xlink" x="0px" y="0px" width="24px"
	 height="24px" viewBox="0 0 24 24" enable-background="new 0 0 24 24" xml:space="preserve">
<g id="Filled_Icon">
	<g>
		<path d="M17.5,0C15.57,0,14,1.57,14,3.5S15.57,7,17.5,7S21,5.43,21,3.5S19.43,0,17.5,0z M19,4h-1.5C17.224,4,17,3.777,17,3.5v-2
			C17,1.224,17.224,1,17.5,1S18,1.224,18,1.5V3h1c0.276,0,0.5,0.224,0.5,0.5C19.5,3.777,19.276,4,19,4z"/>
		<path d="M7,10.981c0-1.322,2-1.32,2,0v4.754l1.003,0.246l1.5-4.816c0.313-1.148,2.075-0.73,1.802,0.455l-1.302,4.861
			c1.019,0.472,2.08,0.775,1.81,1.943c-0.13,0.564-0.746,4.002-0.85,4.576h-6.12l-3.06-4.59C2.568,16.553,5.619,15.908,7,19V10.981z
			"/>
		<g>
			<path d="M4.5,11C4.224,11,4,10.777,4,10.5c0-3.869,4.962-5.465,7.232-2.357c0.163,0.223,0.114,0.537-0.109,0.699
				c-0.224,0.164-0.536,0.113-0.699-0.109C8.725,6.406,5,7.598,5,10.5C5,10.777,4.776,11,4.5,11z"/>
		</g>
		<g>
			<path d="M14.657,14.303c-0.198-0.193-0.202-0.51-0.009-0.707C16.49,11.704,15.155,8.5,12.5,8.5C12.224,8.5,12,8.277,12,8
				c0-0.276,0.224-0.5,0.5-0.5c3.542,0,5.322,4.269,2.864,6.793C15.172,14.49,14.855,14.494,14.657,14.303z"/>
		</g>
	</g>
</g>
<g id="Invisible_Shape">
	<rect fill="none" width="24" height="24"/>
</g>
</svg>
