<?xml version="1.0" encoding="utf-8"?>
<!-- Generator: Adobe Illustrator 19.2.1, SVG Export Plug-In . SVG Version: 6.00 Build 0)  -->
<svg version="1.1" xmlns="http://www.w3.org/2000/svg" xmlns:xlink="http://www.w3.org/1999/xlink" x="0px" y="0px" width="24px"
	 height="24px" viewBox="0 0 24 24" enable-background="new 0 0 24 24" xml:space="preserve">
<g id="Filled_Icon">
	<g>
		<path d="M5.5,11H1.541l1.35-1.688c0.172-0.215,0.137-0.529-0.078-0.703c-0.216-0.17-0.53-0.137-0.703,0.078l-2,2.5
			c-0.146,0.183-0.146,0.443,0,0.625l2,2.5c0.173,0.215,0.485,0.252,0.703,0.078c0.215-0.172,0.25-0.487,0.078-0.703L1.54,12H5.5
			C5.776,12,6,11.777,6,11.5C6,11.224,5.776,11,5.5,11z"/>
		<path d="M18.5,11h3.959l-1.35-1.688c-0.172-0.215-0.137-0.529,0.078-0.703c0.216-0.17,0.53-0.137,0.703,0.078l2,2.5
			c0.146,0.183,0.146,0.443,0,0.625l-2,2.5c-0.173,0.215-0.485,0.252-0.703,0.078c-0.215-0.172-0.25-0.487-0.078-0.703L22.46,12
			H18.5c-0.276,0-0.5-0.223-0.5-0.5C18,11.224,18.224,11,18.5,11z"/>
		<path id="XMLID_3_" d="M11,9.979c0-0.551,0.447-1,1-1s1,0.449,1,1v4.756l3.92,1.168c0.654,0.19,1.047,0.858,0.894,1.521
			c-0.132,0.574-0.743,3.99-0.85,4.576h-6.12l-3.061-4.592C6.568,15.553,9.619,14.908,11,18V9.979z"/>
	</g>
</g>
<g id="Invisible_Shape">
	<rect fill="none" width="24" height="24"/>
</g>
</svg>
