<?xml version="1.0" encoding="utf-8"?>
<!-- Generator: Adobe Illustrator 19.2.1, SVG Export Plug-In . SVG Version: 6.00 Build 0)  -->
<svg version="1.1" xmlns="http://www.w3.org/2000/svg" xmlns:xlink="http://www.w3.org/1999/xlink" x="0px" y="0px" width="24px"
	 height="24px" viewBox="0 0 24 24" enable-background="new 0 0 24 24" xml:space="preserve">
<g id="Filled_Icon">
	<g>
		<g>
			<path d="M23.135,11.32c-1.11-1.186-3.138-2.16-5.709-2.744c-0.269-0.062-0.438-0.33-0.377-0.6c0.061-0.268,0.33-0.44,0.599-0.376
				c2.764,0.628,4.972,1.707,6.217,3.036c0.189,0.201,0.179,0.518-0.023,0.707C23.638,11.533,23.322,11.521,23.135,11.32z"/>
		</g>
		<path d="M6.982,7.981c-0.061-0.272-0.33-0.445-0.599-0.378C4.279,8.08,2.504,8.812,1.23,9.713L1.51,8.086
			c0.047-0.273-0.136-0.531-0.408-0.578C0.83,7.463,0.572,7.644,0.525,7.916l-0.518,3c-0.047,0.273,0.138,0.533,0.411,0.578
			l3.006,0.5c0.263,0.045,0.529-0.133,0.575-0.412c0.045-0.271-0.139-0.529-0.411-0.574l-1.975-0.33
			c1.165-0.889,2.888-1.623,4.992-2.1C6.874,8.517,7.043,8.248,6.982,7.981z"/>
		<path d="M10,6.981c0-0.553,0.447-1,1-1s1,0.447,1,1v4.754l3.92,1.17c0.654,0.189,1.047,0.856,0.894,1.52
			c-0.13,0.563-0.746,4.002-0.85,4.576h-6.12l-3.061-4.59C5.568,12.553,8.619,11.908,10,15V6.981z"/>
	</g>
</g>
<g id="Invisible_Shape">
	<rect fill="none" width="24" height="24"/>
</g>
</svg>
