<?xml version="1.0" encoding="utf-8"?>
<!-- Generator: Adobe Illustrator 19.2.1, SVG Export Plug-In . SVG Version: 6.00 Build 0)  -->
<svg version="1.1" xmlns="http://www.w3.org/2000/svg" xmlns:xlink="http://www.w3.org/1999/xlink" x="0px" y="0px" width="24px"
	 height="24px" viewBox="0 0 24 24" enable-background="new 0 0 24 24" xml:space="preserve">
<g id="Filled_Icon">
	<g>
		<g>
			<path d="M10.273,12.928c-0.233-0.146-0.304-0.455-0.157-0.69c0.148-0.231,0.456-0.305,0.69-0.155C14.776,14.58,20,11.734,20,7
				c0-4.719-5.106-7.553-9.186-5.086c-0.238,0.143-0.545,0.066-0.687-0.168C9.984,1.51,10.06,1.201,10.296,1.059
				C15.052-1.812,21,1.506,21,7C21,12.525,14.905,15.844,10.273,12.928z"/>
		</g>
		<path d="M18.391,21.188c-0.173-0.215-0.487-0.25-0.703-0.079L16,22.459V15.5c0-0.276-0.224-0.5-0.5-0.5S15,15.224,15,15.5v6.959
			l-1.688-1.35c-0.216-0.171-0.53-0.136-0.703,0.079c-0.172,0.215-0.137,0.53,0.078,0.702l2.5,2c0.181,0.146,0.442,0.146,0.625,0
			l2.5-2C18.528,21.719,18.563,21.403,18.391,21.188z"/>
		<path id="XMLID_1_" d="M14.021,6c0.552,0,1,0.447,1,1s-0.448,1-1,1H9.266l-1.169,3.92c-0.189,0.654-0.856,1.047-1.52,0.895
			C6.008,12.683,2.581,12.069,2,11.965V5.844l4.591-3.06C8.447,1.568,9.092,4.619,6,6H14.021z"/>
	</g>
</g>
<g id="Invisible_Shape">
	<rect fill="none" width="24" height="24"/>
</g>
</svg>
