<?xml version="1.0" encoding="utf-8"?>
<!-- Generator: Adobe Illustrator 19.2.1, SVG Export Plug-In . SVG Version: 6.00 Build 0)  -->
<svg version="1.1" xmlns="http://www.w3.org/2000/svg" xmlns:xlink="http://www.w3.org/1999/xlink" x="0px" y="0px" width="24px"
	 height="24px" viewBox="0 0 24 24" enable-background="new 0 0 24 24" xml:space="preserve">
<g id="Filled_Icon">
	<g>
		<g>
			<path d="M12.237,14.883c-0.233-0.146-0.304-0.457-0.157-0.689C14.584,10.219,11.727,5,7,5c-4.717,0-7.579,5.197-5.089,9.182
				c0.146,0.233,0.075,0.541-0.159,0.688c-0.235,0.147-0.543,0.076-0.689-0.158C-1.843,10.061,1.497,4,7,4
				c5.519,0,8.848,6.086,5.927,10.726C12.778,14.961,12.468,15.029,12.237,14.883z"/>
		</g>
		<path d="M23.891,9.188l-2-2.5c-0.173-0.215-0.487-0.25-0.703-0.078c-0.215,0.174-0.25,0.488-0.078,0.703L22.46,9H15.5
			C15.224,9,15,9.224,15,9.5c0,0.277,0.224,0.5,0.5,0.5h6.96l-1.351,1.688c-0.172,0.216-0.137,0.531,0.078,0.703
			C21.28,12.465,21.39,12.5,21.5,12.5c0.147,0,0.292-0.064,0.391-0.188l2-2.5C24.037,9.631,24.037,9.37,23.891,9.188z"/>
		<path d="M6,10.979c0-0.551,0.447-1,1-1s1,0.449,1,1v4.756l3.92,1.168c0.654,0.19,1.047,0.858,0.894,1.521
			c-0.132,0.574-0.743,3.99-0.85,4.576h-6.12l-3.06-4.592C1.568,16.553,4.619,15.908,6,19V10.979z"/>
	</g>
</g>
<g id="Invisible_Shape">
	<rect fill="none" width="24" height="24"/>
</g>
</svg>
