<?xml version="1.0" encoding="utf-8"?>
<!-- Generator: Adobe Illustrator 19.2.1, SVG Export Plug-In . SVG Version: 6.00 Build 0)  -->
<svg version="1.1" xmlns="http://www.w3.org/2000/svg" xmlns:xlink="http://www.w3.org/1999/xlink" x="0px" y="0px" width="24px"
	 height="24px" viewBox="0 0 24 24" enable-background="new 0 0 24 24" xml:space="preserve">
<g id="Filled_Icon">
	<g>
		<g>
			<g>
				<path d="M16.237,15.883c-0.233-0.148-0.304-0.457-0.156-0.689c0.956-1.518,1.182-3.365,0.621-5.07
					c-0.087-0.262,0.056-0.545,0.319-0.631c0.262-0.089,0.545,0.057,0.631,0.318c0.655,1.988,0.391,4.145-0.725,5.915
					C16.779,15.961,16.468,16.029,16.237,15.883z"/>
			</g>
			<g>
				<path d="M5.063,15.711C2.157,11.061,5.497,5,11,5c0.276,0,0.5,0.224,0.5,0.5C11.5,5.777,11.276,6,11,6
					c-4.717,0-7.579,5.197-5.089,9.182c0.147,0.233,0.075,0.541-0.159,0.688C5.519,16.016,5.209,15.945,5.063,15.711z"/>
			</g>
			<path d="M10,10.981c0-0.553,0.447-1,1-1s1,0.447,1,1v4.754l3.92,1.17c0.654,0.189,1.047,0.855,0.894,1.519
				c-0.13,0.564-0.746,4.002-0.85,4.576h-6.12l-3.061-4.59C5.568,16.553,8.619,15.908,10,19V10.981z"/>
		</g>
		<path d="M16.5,1C14.57,1,13,2.57,13,4.5S14.57,8,16.5,8S20,6.43,20,4.5S18.43,1,16.5,1z M18,5h-1.5C16.224,5,16,4.777,16,4.5v-2
			C16,2.224,16.224,2,16.5,2S17,2.224,17,2.5V4h1c0.276,0,0.5,0.224,0.5,0.5C18.5,4.777,18.276,5,18,5z"/>
	</g>
</g>
<g id="Invisible_Shape">
	<rect fill="none" width="24" height="24"/>
</g>
</svg>
