<?xml version="1.0" encoding="utf-8"?>
<!-- Generator: Adobe Illustrator 19.2.1, SVG Export Plug-In . SVG Version: 6.00 Build 0)  -->
<svg version="1.1" xmlns="http://www.w3.org/2000/svg" xmlns:xlink="http://www.w3.org/1999/xlink" x="0px" y="0px" width="24px"
	 height="24px" viewBox="0 0 24 24" enable-background="new 0 0 24 24" xml:space="preserve">
<g id="Filled_Icon">
	<g>
		<g>
			<path d="M15.444,6.584c-0.583-2.572-1.558-4.6-2.745-5.709c-0.202-0.188-0.212-0.505-0.023-0.707
				c0.189-0.203,0.505-0.211,0.707-0.023c1.331,1.246,2.409,3.453,3.037,6.219c0.061,0.268-0.108,0.537-0.377,0.598
				C15.776,7.023,15.506,6.856,15.444,6.584z"/>
		</g>
		<path d="M15.936,22.5l-1.637,0.281c0.907-1.278,1.643-3.053,2.12-5.154c0.061-0.268-0.108-0.537-0.377-0.598
			c-0.274-0.065-0.538,0.107-0.599,0.377c-0.476,2.097-1.213,3.818-2.108,4.987l-0.321-1.982C12.97,20.141,12.717,19.951,12.44,20
			c-0.272,0.043-0.458,0.301-0.413,0.572l0.488,3.017c0.045,0.277,0.309,0.461,0.578,0.413l3.012-0.517
			c0.272-0.047,0.455-0.307,0.408-0.578C16.467,22.637,16.21,22.454,15.936,22.5z"/>
		<path d="M17.021,11c0.552,0,1,0.447,1,1s-0.448,1-1,1h-4.755l-1.169,3.92c-0.189,0.654-0.856,1.047-1.521,0.895
			C8.98,17.678,9.874,17.85,5,16.965v-6.121l4.591-3.061C11.447,6.568,12.092,9.619,9,11H17.021z"/>
	</g>
</g>
<g id="Invisible_Shape">
	<rect fill="none" width="24" height="24"/>
</g>
</svg>
