<?xml version="1.0" encoding="utf-8"?>
<!-- Generator: Adobe Illustrator 19.2.1, SVG Export Plug-In . SVG Version: 6.00 Build 0)  -->
<svg version="1.1" xmlns="http://www.w3.org/2000/svg" xmlns:xlink="http://www.w3.org/1999/xlink" x="0px" y="0px" width="24px"
	 height="24px" viewBox="0 0 24 24" enable-background="new 0 0 24 24" xml:space="preserve">
<g id="Filled_Icon">
	<g>
		<path d="M11,6.981c0-0.553,0.447-1,1-1s1,0.447,1,1v4.754l3.92,1.17c0.654,0.189,1.047,0.856,0.894,1.52
			c-0.13,0.563-0.745,4.002-0.85,4.576h-6.12l-3.061-4.59C6.568,12.553,9.619,11.908,11,15V6.981z"/>
		<g>
			<path d="M6.5,8H4.04l1.351-1.688c0.172-0.215,0.137-0.529-0.078-0.703c-0.215-0.17-0.529-0.136-0.703,0.078l-2,2.5
				c-0.146,0.183-0.146,0.443,0,0.625l2,2.5c0.173,0.215,0.485,0.252,0.703,0.078c0.215-0.172,0.251-0.487,0.078-0.703L4.04,9H6.5
				C6.776,9,7,8.777,7,8.5C7,8.224,6.776,8,6.5,8z"/>
			<path d="M1.14,8.5l1.75-2.188c0.172-0.215,0.137-0.529-0.078-0.703c-0.216-0.17-0.53-0.136-0.703,0.078l-2,2.5
				c-0.146,0.183-0.146,0.443,0,0.625l2,2.5c0.173,0.215,0.485,0.252,0.703,0.078c0.215-0.172,0.25-0.487,0.078-0.703L1.14,8.5z"/>
		</g>
		<g>
			<path d="M17.5,8h2.46l-1.351-1.688c-0.172-0.215-0.137-0.529,0.078-0.703c0.215-0.17,0.529-0.136,0.703,0.078l2,2.5
				c0.146,0.183,0.146,0.443,0,0.625l-2,2.5c-0.173,0.215-0.485,0.252-0.703,0.078c-0.215-0.172-0.25-0.487-0.078-0.703L19.96,9
				H17.5C17.224,9,17,8.777,17,8.5C17,8.224,17.224,8,17.5,8z"/>
			<path d="M22.86,8.5l-1.75-2.188c-0.172-0.215-0.137-0.529,0.078-0.703c0.216-0.17,0.53-0.136,0.703,0.078l2,2.5
				c0.146,0.183,0.146,0.443,0,0.625l-2,2.5c-0.173,0.215-0.485,0.252-0.703,0.078c-0.215-0.172-0.25-0.487-0.078-0.703L22.86,8.5z"
				/>
		</g>
	</g>
</g>
<g id="Invisible_Shape">
	<rect fill="none" width="24" height="24"/>
</g>
</svg>
