<?xml version="1.0" encoding="utf-8"?>
<!-- Generator: Adobe Illustrator 19.2.1, SVG Export Plug-In . SVG Version: 6.00 Build 0)  -->
<svg version="1.1" xmlns="http://www.w3.org/2000/svg" xmlns:xlink="http://www.w3.org/1999/xlink" x="0px" y="0px" width="24px"
	 height="24px" viewBox="0 0 24 24" enable-background="new 0 0 24 24" xml:space="preserve">
<g id="Filled_Icon">
	<g>
		<g>
			<path d="M6.5,11H4.04l1.351-1.688c0.172-0.215,0.137-0.529-0.078-0.703c-0.215-0.17-0.529-0.136-0.703,0.078l-2,2.5
				c-0.146,0.183-0.146,0.443,0,0.625l2,2.5c0.173,0.215,0.485,0.252,0.703,0.078c0.215-0.172,0.251-0.487,0.078-0.703L4.04,12H6.5
				C6.776,12,7,11.777,7,11.5C7,11.224,6.776,11,6.5,11z"/>
			<path d="M1.14,11.5l1.75-2.188c0.172-0.215,0.137-0.529-0.078-0.703c-0.216-0.17-0.53-0.136-0.703,0.078l-2,2.5
				c-0.146,0.183-0.146,0.443,0,0.625l2,2.5c0.173,0.215,0.485,0.252,0.703,0.078c0.215-0.172,0.25-0.487,0.078-0.703L1.14,11.5z"/>
		</g>
		<g>
			<path d="M17.5,11h2.46l-1.351-1.688c-0.172-0.215-0.137-0.529,0.078-0.703c0.215-0.17,0.529-0.136,0.703,0.078l2,2.5
				c0.146,0.183,0.146,0.443,0,0.625l-2,2.5c-0.173,0.215-0.485,0.252-0.703,0.078c-0.215-0.172-0.25-0.487-0.078-0.703L19.96,12
				H17.5c-0.276,0-0.5-0.223-0.5-0.5C17,11.224,17.224,11,17.5,11z"/>
			<path d="M22.86,11.5l-1.75-2.188c-0.172-0.215-0.137-0.529,0.078-0.703c0.216-0.17,0.53-0.136,0.703,0.078l2,2.5
				c0.146,0.183,0.146,0.443,0,0.625l-2,2.5c-0.173,0.215-0.485,0.252-0.703,0.078c-0.215-0.172-0.25-0.487-0.078-0.703L22.86,11.5z
				"/>
		</g>
		<g>
			<path d="M11,17.5v2.461l-1.688-1.351c-0.216-0.171-0.53-0.136-0.703,0.079c-0.171,0.214-0.136,0.528,0.078,0.702l2.5,2
				c0.183,0.146,0.442,0.146,0.625,0l2.5-2c0.215-0.172,0.251-0.485,0.078-0.702c-0.173-0.215-0.487-0.25-0.703-0.079L12,19.961
				V17.5c0-0.276-0.224-0.5-0.5-0.5S11,17.224,11,17.5z"/>
			<path d="M11.5,22.859l-2.188-1.75c-0.216-0.171-0.53-0.136-0.703,0.079c-0.171,0.215-0.136,0.528,0.078,0.702l2.5,2
				c0.183,0.146,0.442,0.146,0.625,0l2.5-2c0.215-0.172,0.251-0.485,0.078-0.702c-0.173-0.215-0.487-0.25-0.703-0.079L11.5,22.859z"
				/>
		</g>
		<g>
			<path d="M11,6.5V4.041l-1.688,1.35c-0.216,0.172-0.53,0.137-0.703-0.078C8.439,5.098,8.474,4.783,8.688,4.609l2.5-2
				c0.183-0.147,0.442-0.147,0.625,0l2.5,2c0.215,0.174,0.251,0.486,0.078,0.703c-0.173,0.215-0.487,0.25-0.703,0.078L12,4.041V6.5
				C12,6.777,11.776,7,11.5,7S11,6.777,11,6.5z"/>
			<path d="M11.5,1.141l-2.188,1.75c-0.216,0.172-0.53,0.137-0.703-0.078C8.439,2.598,8.474,2.283,8.688,2.109l2.5-2
				c0.183-0.146,0.442-0.146,0.625,0l2.5,2c0.215,0.174,0.251,0.486,0.078,0.703c-0.173,0.215-0.487,0.25-0.703,0.078L11.5,1.141z"
				/>
		</g>
		<path d="M11.003,9.5c0-0.553,0.444-1,0.997-1s1.003,0.447,1.003,1V11c1.498,0.375,3.242,0.51,2.894,2.019
			c-0.128,0.555-0.71,2.387-0.894,2.981h-3.5l-2.5-2.5c-1-1.5,1.003-2.021,2-0.5V9.5z"/>
	</g>
</g>
<g id="Invisible_Shape">
	<rect fill="none" width="24" height="24"/>
</g>
</svg>
