<?xml version="1.0" encoding="utf-8"?>
<!-- Generator: Adobe Illustrator 19.2.1, SVG Export Plug-In . SVG Version: 6.00 Build 0)  -->
<svg version="1.1" xmlns="http://www.w3.org/2000/svg" xmlns:xlink="http://www.w3.org/1999/xlink" x="0px" y="0px" width="24px"
	 height="24px" viewBox="0 0 24 24" enable-background="new 0 0 24 24" xml:space="preserve">
<g id="Filled_Icon">
	<g>
		<g>
			<path d="M20.026,12.158c-0.087-0.262,0.054-0.545,0.316-0.633l2.526-0.842l-0.842-2.525c-0.087-0.262,0.054-0.545,0.316-0.633
				c0.265-0.088,0.545,0.055,0.632,0.316l1,3c0.087,0.262-0.054,0.545-0.316,0.633l-3,1C20.4,12.561,20.114,12.424,20.026,12.158z"
				/>
		</g>
		<g>
			<path d="M0.158,11.344c-0.202-0.189-0.212-0.506-0.023-0.707C1.38,9.308,3.588,8.229,6.352,7.601
				C6.617,7.533,6.89,7.709,6.951,7.977c0.061,0.27-0.108,0.538-0.377,0.6C4.002,9.16,1.975,10.135,0.865,11.32
				C0.678,11.521,0.362,11.533,0.158,11.344z"/>
		</g>
		<path d="M21.974,9.342l-1-3c-0.087-0.26-0.368-0.404-0.632-0.316c-0.262,0.088-0.403,0.371-0.316,0.633l0.632,1.898
			c-0.894-0.375-1.907-0.697-3.04-0.954c-0.274-0.067-0.538,0.108-0.599,0.378c-0.061,0.267,0.108,0.536,0.377,0.598
			c1.008,0.228,1.93,0.52,2.743,0.848l-1.797,0.6c-0.262,0.088-0.403,0.371-0.316,0.633c0.088,0.266,0.375,0.402,0.632,0.316l3-1
			C21.92,9.887,22.062,9.604,21.974,9.342z"/>
		<path d="M11,6.981c0-0.553,0.447-1,1-1s1,0.447,1,1v4.754l3.92,1.17c0.654,0.189,1.047,0.856,0.894,1.52
			c-0.13,0.563-0.745,4.002-0.85,4.576h-6.12l-3.061-4.59C6.568,12.553,9.619,11.908,11,15V6.981z"/>
	</g>
</g>
<g id="Invisible_Shape">
	<rect fill="none" width="24" height="24"/>
</g>
</svg>
