<?xml version="1.0" encoding="utf-8"?>
<!-- Generator: Adobe Illustrator 19.2.1, SVG Export Plug-In . SVG Version: 6.00 Build 0)  -->
<svg version="1.1" xmlns="http://www.w3.org/2000/svg" xmlns:xlink="http://www.w3.org/1999/xlink" x="0px" y="0px" width="24px"
	 height="24px" viewBox="0 0 24 24" enable-background="new 0 0 24 24" xml:space="preserve">
<g id="Filled_Icon">
	<g>
		<g>
			<path d="M17.237,13.883c-0.233-0.148-0.304-0.457-0.156-0.689C19.587,9.213,16.711,4,12,4c-4.701,0-7.58,5.193-5.089,9.182
				c0.147,0.233,0.075,0.541-0.159,0.688c-0.234,0.148-0.543,0.076-0.689-0.158C3.155,9.062,6.516,3,12,3
				c5.516,0,8.84,6.106,5.926,10.726C17.779,13.961,17.468,14.029,17.237,13.883z"/>
		</g>
		<path d="M11,9.981c0-0.553,0.447-1,1-1s1,0.447,1,1v4.754l3.92,1.17c0.654,0.189,1.047,0.856,0.894,1.519
			c0,0-0.746,4.002-0.85,4.576h-6.12l-3.061-4.59C6.568,15.553,9.619,14.908,11,18V9.981z"/>
	</g>
</g>
<g id="Invisible_Shape">
	<rect fill="none" width="24" height="24"/>
</g>
</svg>
