<?xml version="1.0" encoding="utf-8"?>
<!-- Generator: Adobe Illustrator 19.2.1, SVG Export Plug-In . SVG Version: 6.00 Build 0)  -->
<svg version="1.1" xmlns="http://www.w3.org/2000/svg" xmlns:xlink="http://www.w3.org/1999/xlink" x="0px" y="0px" width="24px"
	 height="24px" viewBox="0 0 24 24" enable-background="new 0 0 24 24" xml:space="preserve">
<g id="Filled_Icon">
	<g>
		<path d="M3.5,11H1.54l1.351-1.688c0.172-0.215,0.137-0.529-0.078-0.703c-0.216-0.17-0.53-0.137-0.703,0.078l-2,2.5
			c-0.131,0.149-0.163,0.439,0,0.625l2,2.5c0.173,0.215,0.485,0.252,0.703,0.078c0.215-0.172,0.25-0.487,0.078-0.703L1.54,12H3.5
			C3.776,12,4,11.777,4,11.5C4,11.224,3.776,11,3.5,11z"/>
		<path d="M23.891,11.188l-2-2.5c-0.173-0.215-0.487-0.25-0.703-0.078c-0.215,0.174-0.25,0.488-0.078,0.703L22.46,11H20.5
			c-0.276,0-0.5,0.224-0.5,0.5c0,0.277,0.224,0.5,0.5,0.5h1.96l-1.351,1.688c-0.172,0.216-0.137,0.531,0.078,0.703
			c0.218,0.174,0.53,0.137,0.703-0.078c0.118-0.146,1.914-2.385,2.01-2.527C24.05,11.576,24.019,11.334,23.891,11.188z"/>
		<g>
			<path d="M17.237,15.883c-0.233-0.148-0.304-0.457-0.156-0.689C19.583,11.223,16.73,6,12,6c-4.717,0-7.579,5.197-5.089,9.182
				c0.147,0.233,0.075,0.541-0.159,0.688c-0.235,0.148-0.543,0.076-0.689-0.158C3.157,11.061,6.497,5,12,5
				c5.523,0,8.847,6.09,5.926,10.726C17.779,15.961,17.468,16.029,17.237,15.883z"/>
		</g>
		<path d="M11,10.981c0-0.553,0.447-1,1-1s1,0.447,1,1v4.754l3.92,1.17c0.654,0.189,1.047,0.855,0.894,1.519
			c-0.13,0.564-0.745,4.002-0.85,4.576h-6.12l-3.061-4.59C6.568,16.553,9.619,15.908,11,19V10.981z"/>
	</g>
</g>
<g id="Invisible_Shape">
	<rect fill="none" width="24" height="24"/>
</g>
</svg>
