<?xml version="1.0" encoding="utf-8"?>
<!-- Generator: Adobe Illustrator 19.2.1, SVG Export Plug-In . SVG Version: 6.00 Build 0)  -->
<svg version="1.1" xmlns="http://www.w3.org/2000/svg" xmlns:xlink="http://www.w3.org/1999/xlink" x="0px" y="0px" width="24px"
	 height="24px" viewBox="0 0 24 24" enable-background="new 0 0 24 24" xml:space="preserve">
<g id="Filled_Icon">
	<g>
		<g>
			<path d="M2.11,8.688l-2,2.5c-0.146,0.183-0.146,0.443,0,0.625l2,2.5c0.173,0.215,0.487,0.25,0.703,0.078
				c0.215-0.172,0.25-0.487,0.078-0.703L1.541,12h3.459c0.276,0,0.5-0.223,0.5-0.5c0-0.276-0.224-0.5-0.5-0.5H1.541l1.35-1.688
				c0.173-0.217,0.137-0.529-0.078-0.703C2.597,8.438,2.283,8.473,2.11,8.688z"/>
			<path d="M21.188,8.609c-0.215,0.174-0.249,0.486-0.078,0.703L22.459,11H19c-0.276,0-0.5,0.224-0.5,0.5c0,0.277,0.224,0.5,0.5,0.5
				h3.459l-1.35,1.688c-0.171,0.215-0.136,0.531,0.078,0.703c0.216,0.172,0.53,0.137,0.703-0.078l2-2.5
				c0.146-0.182,0.146-0.442,0-0.625l-2-2.5C21.718,8.473,21.403,8.438,21.188,8.609z"/>
		</g>
		<path d="M10,6.981c0-1.322,2-1.32,2,0v4.754l1.003,0.246l1.5-4.816c0.313-1.148,2.075-0.731,1.802,0.455l-1.302,4.861
			c1.019,0.472,2.08,0.775,1.81,1.943c-0.13,0.563-0.746,4.002-0.85,4.576h-6.12l-3.061-4.59C5.568,12.553,8.619,11.908,10,15V6.981
			z"/>
	</g>
</g>
<g id="Invisible_Shape">
	<rect fill="none" width="24" height="24"/>
</g>
</svg>
