<?xml version="1.0" encoding="utf-8"?>
<!-- Generator: Adobe Illustrator 19.2.1, SVG Export Plug-In . SVG Version: 6.00 Build 0)  -->
<svg version="1.1" xmlns="http://www.w3.org/2000/svg" xmlns:xlink="http://www.w3.org/1999/xlink" x="0px" y="0px" width="24px"
	 height="24px" viewBox="0 0 24 24" enable-background="new 0 0 24 24" xml:space="preserve">
<g id="Filled_Icon">
	<g>
		<path d="M14.312,2.109l-2.5-2c-0.183-0.146-0.442-0.146-0.625,0l-2.5,2c-0.215,0.174-0.25,0.488-0.078,0.703
			c0.173,0.215,0.487,0.25,0.703,0.078L11,1.541V5.5C11,5.777,11.224,6,11.5,6S12,5.777,12,5.5V1.541l1.688,1.35
			c0.218,0.174,0.53,0.137,0.703-0.078C14.563,2.598,14.528,2.283,14.312,2.109z"/>
		<path d="M14.312,21.891l-2.5,2c-0.183,0.146-0.442,0.146-0.625,0l-2.5-2c-0.215-0.172-0.25-0.487-0.078-0.703
			c0.173-0.214,0.487-0.25,0.703-0.078L11,22.459V18.5c0-0.276,0.224-0.5,0.5-0.5s0.5,0.224,0.5,0.5v3.959l1.688-1.35
			c0.218-0.173,0.53-0.137,0.703,0.078C14.563,21.403,14.528,21.719,14.312,21.891z"/>
		<path d="M5.5,11H1.54l1.351-1.688c0.172-0.215,0.137-0.529-0.078-0.703c-0.215-0.17-0.53-0.137-0.703,0.078l-2,2.5
			c-0.146,0.183-0.146,0.443,0,0.625l2,2.5c0.173,0.215,0.485,0.252,0.703,0.078c0.215-0.172,0.25-0.487,0.078-0.703L1.54,12H5.5
			C5.776,12,6,11.777,6,11.5C6,11.224,5.776,11,5.5,11z"/>
		<path d="M18.5,11h3.96l-1.351-1.688c-0.172-0.215-0.137-0.529,0.078-0.703c0.215-0.17,0.53-0.137,0.703,0.078l2,2.5
			c0.146,0.183,0.146,0.443,0,0.625l-2,2.5c-0.173,0.215-0.485,0.252-0.703,0.078c-0.215-0.172-0.25-0.487-0.078-0.703L22.46,12
			H18.5c-0.276,0-0.5-0.223-0.5-0.5C18,11.224,18.224,11,18.5,11z"/>
		<path d="M11.003,8.981c0-0.553,0.444-1,0.997-1s1.003,0.447,1.003,1v2c2.909,1.105,4.287,1.305,3.967,2.689
			c-0.129,0.561-0.706,2.773-0.85,3.33h-5.277l-1.84-3.019c-1.215-1.858,1.003-2.5,2-0.981V8.981z"/>
	</g>
</g>
<g id="Invisible_Shape">
	<rect fill="none" width="24" height="24"/>
</g>
</svg>
