<?xml version="1.0" encoding="utf-8"?>
<!-- Generator: Adobe Illustrator 19.2.1, SVG Export Plug-In . SVG Version: 6.00 Build 0)  -->
<svg version="1.1" xmlns="http://www.w3.org/2000/svg" xmlns:xlink="http://www.w3.org/1999/xlink" x="0px" y="0px" width="24px"
	 height="24px" viewBox="0 0 24 24" enable-background="new 0 0 24 24" xml:space="preserve">
<g id="Filled_Icon">
	<g>
		<path d="M14.312,2.109l-2.5-2c-0.183-0.146-0.442-0.146-0.625,0l-2.5,2c-0.215,0.173-0.25,0.488-0.078,0.703
			c0.172,0.215,0.487,0.25,0.703,0.078L11,1.541V5c0,0.277,0.224,0.5,0.5,0.5S12,5.277,12,5V1.541l1.688,1.35
			c0.218,0.174,0.53,0.137,0.703-0.078C14.563,2.598,14.528,2.282,14.312,2.109z"/>
		<path d="M14.391,21.188c-0.173-0.215-0.486-0.25-0.703-0.079L12,22.459V19.5c0-0.276-0.224-0.5-0.5-0.5S11,19.224,11,19.5v2.959
			l-1.688-1.35c-0.215-0.171-0.53-0.136-0.703,0.079c-0.172,0.215-0.137,0.53,0.078,0.702l2.5,2c0.181,0.146,0.442,0.146,0.625,0
			l2.5-2C14.528,21.719,14.563,21.403,14.391,21.188z"/>
		<path d="M9,7.481c0-1.323,2-1.32,2,0v4.234l1.003,0.244l1.5-4.295c0.313-1.148,2.075-0.731,1.802,0.455l-1.302,4.34
			c1.021,0.473,2.08,0.777,1.81,1.946c-0.131,0.568-1.102,3.049-1.31,3.595h-5.66l-3.061-3.61C4.568,12.533,7.619,11.89,9,14.981
			V7.481z"/>
	</g>
</g>
<g id="Invisible_Shape">
	<rect fill="none" width="24" height="24"/>
</g>
</svg>
