<?xml version="1.0" encoding="utf-8"?>
<!-- Generator: Adobe Illustrator 19.2.1, SVG Export Plug-In . SVG Version: 6.00 Build 0)  -->
<svg version="1.1" xmlns="http://www.w3.org/2000/svg" xmlns:xlink="http://www.w3.org/1999/xlink" x="0px" y="0px" width="24px"
	 height="24px" viewBox="0 0 24 24" enable-background="new 0 0 24 24" xml:space="preserve">
<g id="Filled_Icon">
	<g>
		<path d="M11,12c0-2.205-1.795-4-4-4c-2.206,0-4,1.795-4,4v4.5C3,16.777,3.224,17,3.5,17h7c0.275,0,0.5-0.223,0.5-0.5V12z M9,13.5
			C9,13.777,8.775,14,8.5,14h-3C5.224,14,5,13.777,5,13.5V12c0-1.104,0.897-2,2-2c1.102,0,2,0.896,2,2V13.5z"/>
		<path d="M16,8c-2.206,0-4,1.795-4,4v4.5c0,0.277,0.224,0.5,0.5,0.5h7c0.275,0,0.5-0.223,0.5-0.5V12C20,9.795,18.205,8,16,8z
			 M18,13.5c0,0.277-0.225,0.5-0.5,0.5h-3c-0.276,0-0.5-0.223-0.5-0.5V12c0-1.104,0.896-2,2-2c1.103,0,2,0.896,2,2V13.5z"/>
		<path d="M16.185,17.531c-0.26-0.096-0.546,0.037-0.642,0.297c-0.792,2.17-1.971,3.611-3.252,4.037l0.672-1.68
			c0.102-0.256-0.023-0.548-0.278-0.65c-0.255-0.103-0.548,0.022-0.65,0.279l-0.996,2.49v0.002l-0.004,0.008
			c-0.092,0.219,0.003,0.541,0.29,0.65c0.006,0.002,0.011,0.008,0.017,0.009l3,1c0.271,0.091,0.548-0.062,0.632-0.315
			c0.088-0.262-0.054-0.545-0.315-0.633l-1.441-0.48c1.325-0.711,2.486-2.236,3.267-4.374
			C16.578,17.912,16.445,17.625,16.185,17.531z"/>
		<path d="M6.663,6.967C6.922,7.051,7.206,6.91,7.292,6.644c0.778-2.406,2.041-4.042,3.413-4.506l-0.67,1.676
			c-0.103,0.256,0.022,0.547,0.279,0.65c0.255,0.102,0.546-0.021,0.649-0.279l0.996-2.49c0.001-0.002,0.003-0.008,0.004-0.01
			c0.105-0.266-0.045-0.576-0.306-0.66l-3-1C8.394-0.06,8.112,0.08,8.025,0.342C7.938,0.604,8.08,0.887,8.342,0.974l1.434,0.479
			c-1.429,0.765-2.653,2.47-3.435,4.885C6.256,6.6,6.4,6.883,6.663,6.967z"/>
	</g>
</g>
<g id="Invisible_Shape">
	<rect fill="none" width="24" height="24"/>
</g>
</svg>
