<?xml version="1.0" encoding="utf-8"?>
<!-- Generator: Adobe Illustrator 19.2.1, SVG Export Plug-In . SVG Version: 6.00 Build 0)  -->
<svg version="1.1" xmlns="http://www.w3.org/2000/svg" xmlns:xlink="http://www.w3.org/1999/xlink" x="0px" y="0px" width="24px"
	 height="24px" viewBox="0 0 24 24" enable-background="new 0 0 24 24" xml:space="preserve">
<g id="Filled_Icon">
	<g>
		<path d="M11,16.5V12c0-2.205-1.795-4-4-4c-2.206,0-4,1.795-4,4v4.5C3,16.777,3.224,17,3.5,17h7C10.775,17,11,16.777,11,16.5z
			 M9,13.5C9,13.777,8.775,14,8.5,14h-3C5.224,14,5,13.777,5,13.5V12c0-1.104,0.897-2,2-2c1.102,0,2,0.896,2,2V13.5z"/>
		<path d="M16,8c-2.206,0-4,1.795-4,4v4.5c0,0.277,0.224,0.5,0.5,0.5h7c0.275,0,0.5-0.223,0.5-0.5V12C20,9.795,18.205,8,16,8z
			 M18,13.5c0,0.277-0.225,0.5-0.5,0.5h-3c-0.276,0-0.5-0.223-0.5-0.5V12c0-1.104,0.896-2,2-2c1.103,0,2,0.896,2,2V13.5z"/>
		<path d="M11.961,22.307l-0.001-0.002l-0.996-2.49c-0.103-0.257-0.395-0.382-0.649-0.279c-0.257,0.102-0.382,0.395-0.279,0.65
			l0.672,1.68c-1.28-0.426-2.459-1.867-3.252-4.037c-0.095-0.26-0.383-0.393-0.642-0.297c-0.259,0.094-0.393,0.381-0.298,0.641
			c0.781,2.137,1.942,3.662,3.268,4.373l-1.441,0.48c-0.262,0.088-0.403,0.371-0.316,0.633c0.087,0.258,0.366,0.404,0.633,0.315l3-1
			C11.897,22.896,12.069,22.625,11.961,22.307z"/>
		<path d="M11.035,1.686l0.004,0.01l0,0l0.996,2.49c0.102,0.256,0.396,0.381,0.65,0.279c0.256-0.103,0.381-0.394,0.278-0.65
			l-0.67-1.676c1.372,0.464,2.635,2.1,3.413,4.506c0.084,0.26,0.363,0.408,0.63,0.322c0.263-0.084,0.406-0.367,0.321-0.63
			c-0.78-2.415-2.005-4.12-3.435-4.885l1.435-0.479c0.262-0.087,0.403-0.37,0.315-0.632c-0.087-0.262-0.367-0.402-0.632-0.316l-3,1
			c-0.006,0.002-0.01,0.008-0.017,0.01C11.081,1.123,10.929,1.421,11.035,1.686z"/>
	</g>
</g>
<g id="Invisible_Shape">
	<rect fill="none" width="24" height="24"/>
</g>
</svg>
