<?xml version="1.0" encoding="utf-8"?>
<!-- Generator: Adobe Illustrator 19.2.1, SVG Export Plug-In . SVG Version: 6.00 Build 0)  -->
<svg version="1.1" xmlns="http://www.w3.org/2000/svg" xmlns:xlink="http://www.w3.org/1999/xlink" x="0px" y="0px" width="24px"
	 height="24px" viewBox="0 0 24 24" enable-background="new 0 0 24 24" xml:space="preserve">
<g id="Filled_Icon">
	<g>
		<path d="M18,12c0-2.205-1.795-4-4-4H4.5C4.224,8,4,8.224,4,8.5v7C4,15.777,4.224,16,4.5,16H14C16.205,16,18,14.205,18,12z
			 M12,13.5v-3c0-0.276,0.224-0.5,0.5-0.5H14c1.102,0,2,0.896,2,2c0,1.102-0.898,2-2,2h-1.5C12.224,14,12,13.777,12,13.5z"/>
		<path d="M11.312,2.891L13,1.541V5.5C13,5.777,13.224,6,13.5,6S14,5.777,14,5.5V1.541l1.688,1.35
			c0.214,0.172,0.527,0.139,0.703-0.078c0.172-0.215,0.137-0.529-0.078-0.703l-2.5-2c-0.187-0.148-0.455-0.141-0.625,0l-2.5,2
			c-0.216,0.174-0.251,0.488-0.078,0.703C10.782,3.027,11.096,3.065,11.312,2.891z"/>
		<path d="M15.688,21.109L14,22.459V18.5c0-0.276-0.224-0.5-0.5-0.5S13,18.224,13,18.5v3.959l-1.688-1.35
			c-0.216-0.173-0.53-0.137-0.703,0.078c-0.173,0.216-0.138,0.531,0.078,0.703l2.5,2c0.168,0.131,0.414,0.158,0.625,0l2.5-2
			c0.215-0.172,0.25-0.487,0.078-0.703C16.218,20.973,15.903,20.937,15.688,21.109z"/>
	</g>
</g>
<g id="Invisible_Shape">
	<rect fill="none" width="24" height="24"/>
</g>
</svg>
