<?xml version="1.0" encoding="utf-8"?>
<!-- Generator: Adobe Illustrator 19.2.1, SVG Export Plug-In . SVG Version: 6.00 Build 0)  -->
<svg version="1.1" xmlns="http://www.w3.org/2000/svg" xmlns:xlink="http://www.w3.org/1999/xlink" x="0px" y="0px" width="24px"
	 height="24px" viewBox="0 0 24 24" enable-background="new 0 0 24 24" xml:space="preserve">
<g id="Filled_Icon">
	<g>
		<path d="M12,5C9.794,5,8,6.795,8,9v9.5C8,18.777,8.224,19,8.5,19h7c0.276,0,0.5-0.223,0.5-0.5V9C16,6.795,14.205,5,12,5z M14,10.5
			c0,0.277-0.224,0.5-0.5,0.5h-3c-0.276,0-0.5-0.223-0.5-0.5V9c0-1.103,0.896-2,2-2c1.102,0,2,0.897,2,2V10.5z"/>
		<path d="M23.865,10.638c-1.245-1.331-3.453-2.409-6.218-3.037c-0.272-0.061-0.537,0.108-0.599,0.378
			c-0.06,0.27,0.108,0.536,0.377,0.598c2.571,0.584,4.599,1.559,5.709,2.746c0.19,0.201,0.504,0.211,0.707,0.023
			C24.043,11.156,24.054,10.84,23.865,10.638z"/>
		<path d="M6.383,7.602C4.288,8.078,2.516,8.811,1.238,9.715l0.272-1.633C1.556,7.811,1.372,7.553,1.1,7.508
			c-0.273-0.049-0.53,0.139-0.575,0.41l-0.485,2.908c-0.134,0.334,0.11,0.686,0.461,0.686c0.007,0,0.014-0.004,0.021-0.004
			C0.589,11.519,3.437,12,3.506,12c0.24,0,0.452-0.172,0.493-0.418c0.045-0.271-0.139-0.529-0.411-0.574L1.625,10.68
			c1.169-0.894,2.888-1.627,4.979-2.102c0.27-0.062,0.439-0.33,0.377-0.6C6.921,7.709,6.655,7.543,6.383,7.602z"/>
	</g>
</g>
<g id="Invisible_Shape">
	<rect fill="none" width="24" height="24"/>
</g>
</svg>
