<?xml version="1.0" encoding="utf-8"?>
<!-- Generator: Adobe Illustrator 19.2.1, SVG Export Plug-In . SVG Version: 6.00 Build 0)  -->
<svg version="1.1" xmlns="http://www.w3.org/2000/svg" xmlns:xlink="http://www.w3.org/1999/xlink" x="0px" y="0px" width="24px"
	 height="24px" viewBox="0 0 24 24" enable-background="new 0 0 24 24" xml:space="preserve">
<g id="Filled_Icon">
	<g>
		<path d="M17,7c-2.206,0-4,1.795-4,4v9.5c0,0.277,0.224,0.5,0.5,0.5h7c0.276,0,0.5-0.223,0.5-0.5V11C21,8.795,19.205,7,17,7z
			 M19,12.5c0,0.277-0.224,0.5-0.5,0.5h-3c-0.276,0-0.5-0.223-0.5-0.5V11c0-1.104,0.896-2,2-2c1.103,0,2,0.896,2,2V12.5z"/>
		<path d="M8.5,9H1.54l1.351-1.688c0.172-0.215,0.137-0.529-0.078-0.703c-0.216-0.173-0.53-0.137-0.703,0.078l-2,2.5
			c-0.128,0.156-0.154,0.432,0,0.625l2,2.5c0.17,0.213,0.482,0.252,0.703,0.078c0.215-0.172,0.25-0.487,0.078-0.703L1.54,10H8.5
			C8.776,10,9,9.777,9,9.5C9,9.224,8.776,9,8.5,9z"/>
		<path d="M17,4c-5.5,0-8.849,6.086-5.927,10.727c0.143,0.227,0.448,0.307,0.689,0.156c0.233-0.146,0.304-0.455,0.156-0.689
			C9.419,10.225,12.279,5,17,5c4.7,0,7.583,5.195,5.089,9.18c-0.146,0.234-0.076,0.543,0.158,0.689
			c0.234,0.147,0.543,0.076,0.689-0.158C25.847,10.062,22.484,4,17,4z"/>
	</g>
</g>
<g id="Invisible_Shape">
	<rect fill="none" width="24" height="24"/>
</g>
</svg>
