<?xml version="1.0" encoding="utf-8"?>
<!-- Generator: Adobe Illustrator 19.2.1, SVG Export Plug-In . SVG Version: 6.00 Build 0)  -->
<svg version="1.1" xmlns="http://www.w3.org/2000/svg" xmlns:xlink="http://www.w3.org/1999/xlink" x="0px" y="0px" width="24px"
	 height="24px" viewBox="0 0 24 24" enable-background="new 0 0 24 24" xml:space="preserve">
<g id="Filled_Icon">
	<g>
		<path d="M3.498,11h-1.96l1.351-1.688C3.06,9.098,3.025,8.783,2.81,8.609C2.593,8.436,2.28,8.473,2.107,8.688l-2,2.5
			c-0.131,0.16-0.151,0.436,0,0.625l2,2.5c0.17,0.213,0.483,0.252,0.703,0.078c0.215-0.172,0.25-0.487,0.078-0.703L1.538,12h1.96
			c0.276,0,0.5-0.223,0.5-0.5C3.998,11.224,3.774,11,3.498,11z"/>
		<path d="M23.888,11.188l-2-2.5c-0.173-0.215-0.487-0.251-0.703-0.078c-0.216,0.174-0.251,0.488-0.078,0.703L22.456,11h-1.959
			c-0.276,0-0.5,0.224-0.5,0.5c0,0.277,0.224,0.5,0.5,0.5h1.959l-1.35,1.688c-0.173,0.216-0.138,0.531,0.078,0.703
			c0.214,0.172,0.527,0.139,0.703-0.078l2-2.5C24.042,11.607,24.016,11.351,23.888,11.188z"/>
		<path d="M11.998,5c-5.501,0-8.839,6.082-5.937,10.711c0.146,0.234,0.455,0.304,0.688,0.158c0.234-0.146,0.306-0.455,0.159-0.689
			C4.426,11.219,7.277,6,11.998,6c4.714,0,7.585,5.217,5.08,9.193c-0.147,0.234-0.078,0.543,0.156,0.689
			c0.233,0.148,0.541,0.078,0.689-0.156C20.843,11.094,17.504,5,11.998,5z"/>
		<path d="M11.998,8c-2.206,0-4,1.795-3.998,4v9.5C7.998,21.777,8.221,22,8.498,22h7c0.276,0,0.5-0.223,0.5-0.5V12
			C15.998,9.795,14.203,8,11.998,8z M13.998,13.5c0,0.277-0.224,0.5-0.5,0.5h-3c-0.276,0-0.5-0.223-0.5-0.5V12c0-1.104,0.896-2,2-2
			c1.102,0,2,0.896,2,2V13.5z"/>
	</g>
</g>
<g id="Invisible_Shape">
	<rect fill="none" width="24" height="24"/>
</g>
</svg>
