<?xml version="1.0" encoding="utf-8"?>
<!-- Generator: Adobe Illustrator 19.2.1, SVG Export Plug-In . SVG Version: 6.00 Build 0)  -->
<svg version="1.1" xmlns="http://www.w3.org/2000/svg" xmlns:xlink="http://www.w3.org/1999/xlink" x="0px" y="0px" width="24px"
	 height="24px" viewBox="0 0 24 24" enable-background="new 0 0 24 24" xml:space="preserve">
<g id="Filled_Icon">
	<g>
		<path d="M17.02,9.494c-0.263,0.086-0.405,0.369-0.319,0.631C16.899,10.726,17,11.357,17,12c0,1.135-0.318,2.238-0.919,3.193
			c-0.148,0.234-0.077,0.543,0.156,0.689c0.232,0.148,0.542,0.078,0.69-0.156C17.629,14.613,18,13.324,18,12
			c0-0.75-0.117-1.486-0.349-2.188C17.565,9.549,17.282,9.403,17.02,9.494z"/>
		<path d="M11,6c0.276,0,0.5-0.223,0.5-0.5C11.5,5.224,11.276,5,11,5c-5.484,0-8.845,6.062-5.937,10.711
			c0.147,0.234,0.457,0.304,0.689,0.158c0.234-0.146,0.305-0.455,0.159-0.689C3.424,11.207,6.289,6,11,6z"/>
		<path d="M16.5,1C14.57,1,13,2.57,13,4.5S14.57,8,16.5,8S20,6.43,20,4.5S18.43,1,16.5,1z M17.5,5h-1C16.224,5,16,4.777,16,4.5V3
			c0-0.276,0.224-0.5,0.5-0.5S17,2.724,17,3v1h0.5C17.776,4,18,4.224,18,4.5C18,4.777,17.776,5,17.5,5z"/>
		<path d="M11,8c-2.206,0-4,1.795-4,4v9.5C7,21.777,7.224,22,7.5,22h7c0.276,0,0.5-0.223,0.5-0.5V12C15,9.795,13.206,8,11,8z
			 M13,13.5c0,0.277-0.224,0.5-0.5,0.5h-3C9.224,14,9,13.777,9,13.5V12c0-1.102,0.897-2,2-2s2,0.898,2,2V13.5z"/>
	</g>
</g>
<g id="Invisible_Shape">
	<rect fill="none" width="24" height="24"/>
</g>
</svg>
