<?xml version="1.0" encoding="utf-8"?>
<!-- Generator: Adobe Illustrator 19.2.1, SVG Export Plug-In . SVG Version: 6.00 Build 0)  -->
<svg version="1.1" xmlns="http://www.w3.org/2000/svg" xmlns:xlink="http://www.w3.org/1999/xlink" x="0px" y="0px" width="24px"
	 height="24px" viewBox="0 0 24 24" enable-background="new 0 0 24 24" xml:space="preserve">
<g id="Filled_Icon">
	<g>
		<path d="M16.688,21.109L15,22.459V15.5c0-0.276-0.225-0.5-0.5-0.5c-0.276,0-0.5,0.224-0.5,0.5v6.959l-1.688-1.35
			c-0.217-0.173-0.53-0.136-0.703,0.078c-0.173,0.216-0.138,0.531,0.078,0.703l2.5,2c0.177,0.139,0.426,0.15,0.625,0l2.5-2
			c0.215-0.172,0.25-0.487,0.078-0.703C17.218,20.973,16.903,20.937,16.688,21.109z"/>
		<path d="M9.289,1.064C9.055,1.211,8.984,1.519,9.131,1.753C9.277,1.987,9.586,2.058,9.82,1.912C13.768-0.568,19,2.27,19,7
			c0,3.309-2.691,6-6,6c-1.135,0-2.24-0.318-3.194-0.92c-0.232-0.146-0.541-0.077-0.689,0.156c-0.148,0.233-0.077,0.543,0.156,0.689
			C13.905,15.846,20,12.506,20,7C20,1.5,13.916-1.84,9.289,1.064z"/>
		<path d="M17,7c0-2.205-1.795-4-4-4H3.5C3.224,3,3,3.224,3,3.5v7C3,10.777,3.224,11,3.5,11H13C15.205,11,17,9.205,17,7z M11,8.5v-3
			C11,5.224,11.224,5,11.5,5H13c1.102,0,2,0.897,2,2c0,1.102-0.898,2-2,2h-1.5C11.224,9,11,8.777,11,8.5z"/>
	</g>
</g>
<g id="Invisible_Shape">
	<rect fill="none" width="24" height="24"/>
</g>
</svg>
