<?xml version="1.0" encoding="utf-8"?>
<!-- Generator: Adobe Illustrator 19.2.1, SVG Export Plug-In . SVG Version: 6.00 Build 0)  -->
<svg version="1.1" xmlns="http://www.w3.org/2000/svg" xmlns:xlink="http://www.w3.org/1999/xlink" x="0px" y="0px" width="24px"
	 height="24px" viewBox="0 0 24 24" enable-background="new 0 0 24 24" xml:space="preserve">
<g id="Filled_Icon">
	<g>
		<path d="M12.312,2.891L14,1.541V3.5C14,3.777,14.224,4,14.5,4S15,3.777,15,3.5V1.541l1.688,1.35
			c0.214,0.172,0.527,0.139,0.703-0.078c0.172-0.215,0.137-0.529-0.078-0.703l-2.5-2c-0.187-0.148-0.455-0.141-0.625,0l-2.5,2
			c-0.216,0.174-0.251,0.488-0.078,0.703C11.782,3.027,12.096,3.065,12.312,2.891z"/>
		<path d="M16.688,21.109L15,22.459V20.5c0-0.276-0.224-0.5-0.5-0.5S14,20.224,14,20.5v1.959l-1.688-1.35
			c-0.216-0.173-0.53-0.136-0.703,0.078c-0.173,0.216-0.138,0.531,0.078,0.703l2.5,2c0.171,0.133,0.419,0.156,0.625,0l2.5-2
			c0.215-0.172,0.25-0.487,0.078-0.703C17.218,20.973,16.903,20.937,16.688,21.109z"/>
		<path d="M10.289,6.064c-0.234,0.146-0.305,0.454-0.158,0.688c0.146,0.233,0.455,0.305,0.689,0.159C14.768,4.432,20,7.269,20,12
			c0,4.715-5.216,7.586-9.194,5.08c-0.232-0.147-0.541-0.077-0.689,0.156c-0.148,0.233-0.077,0.543,0.156,0.69
			C14.905,20.846,21,17.506,21,12C21,6.5,14.916,3.16,10.289,6.064z"/>
		<path d="M18,12c0-2.205-1.795-4-4-4H4.5C4.224,8,4,8.224,4,8.5v7C4,15.777,4.224,16,4.5,16H14C16.205,16,18,14.205,18,12z
			 M12,13.5v-3c0-0.276,0.224-0.5,0.5-0.5H14c1.102,0,2,0.896,2,2c0,1.102-0.898,2-2,2h-1.5C12.224,14,12,13.777,12,13.5z"/>
	</g>
</g>
<g id="Invisible_Shape">
	<rect fill="none" width="24" height="24"/>
</g>
</svg>
