<?xml version="1.0" encoding="utf-8"?>
<!-- Generator: Adobe Illustrator 19.2.1, SVG Export Plug-In . SVG Version: 6.00 Build 0)  -->
<svg version="1.1" xmlns="http://www.w3.org/2000/svg" xmlns:xlink="http://www.w3.org/1999/xlink" x="0px" y="0px" width="24px"
	 height="24px" viewBox="0 0 24 24" enable-background="new 0 0 24 24" xml:space="preserve">
<g id="Filled_Icon">
	<g>
		<path d="M12,6c-5.483,0-8.845,6.061-5.937,10.711c0.146,0.234,0.455,0.305,0.689,0.158c0.234-0.146,0.305-0.455,0.159-0.688
			C4.42,12.193,7.299,7,12,7c4.712,0,7.586,5.215,5.081,9.193c-0.148,0.234-0.077,0.543,0.156,0.689
			c0.232,0.148,0.542,0.078,0.69-0.156C20.846,12.098,17.507,6,12,6z"/>
		<path d="M12,9c-2.206,0-4,1.795-4,4v4.5C8,17.777,8.224,18,8.5,18h7c0.276,0,0.5-0.223,0.5-0.5V13C16,10.795,14.206,9,12,9z
			 M14,14.5c0,0.277-0.224,0.5-0.5,0.5h-3c-0.276,0-0.5-0.223-0.5-0.5V13c0-1.102,0.897-2,2-2s2,0.898,2,2V14.5z"/>
		<path d="M3.5,11H1.54l1.351-1.688c0.172-0.215,0.137-0.529-0.078-0.703c-0.216-0.17-0.53-0.136-0.703,0.078l-2,2.5
			c-0.146,0.183-0.146,0.443,0,0.625l2,2.5c0.173,0.215,0.485,0.252,0.703,0.078c0.215-0.172,0.25-0.487,0.078-0.703L1.54,12H3.5
			C3.776,12,4,11.777,4,11.5C4,11.224,3.776,11,3.5,11z"/>
		<path d="M20.5,11h1.96l-1.351-1.688c-0.172-0.215-0.137-0.529,0.078-0.703c0.216-0.17,0.53-0.136,0.703,0.078l2,2.5
			c0.146,0.183,0.146,0.443,0,0.625l-2,2.5c-0.173,0.215-0.485,0.252-0.703,0.078c-0.215-0.172-0.25-0.487-0.078-0.703L22.46,12
			H20.5c-0.276,0-0.5-0.223-0.5-0.5C20,11.224,20.224,11,20.5,11z"/>
		<path d="M12,4.5V1.541l1.688,1.35c0.216,0.172,0.53,0.137,0.703-0.078c0.171-0.215,0.136-0.529-0.078-0.703l-2.5-2
			c-0.183-0.146-0.442-0.146-0.625,0l-2.5,2C8.473,2.283,8.436,2.596,8.609,2.812c0.173,0.215,0.487,0.25,0.703,0.078L11,1.541V4.5
			C11,4.777,11.224,5,11.5,5S12,4.777,12,4.5z"/>
		<path d="M12,19.5v2.961l1.688-1.351c0.216-0.172,0.53-0.137,0.703,0.078c0.171,0.216,0.136,0.529-0.078,0.703l-2.5,2
			c-0.183,0.146-0.442,0.146-0.625,0l-2.5-2c-0.215-0.172-0.251-0.484-0.078-0.703c0.173-0.215,0.487-0.25,0.703-0.078L11,22.461
			V19.5c0-0.276,0.224-0.5,0.5-0.5S12,19.224,12,19.5z"/>
	</g>
</g>
<g id="Invisible_Shape">
	<rect fill="none" width="24" height="24"/>
</g>
</svg>
