<?xml version="1.0" encoding="utf-8"?>
<!-- Generator: Adobe Illustrator 19.2.1, SVG Export Plug-In . SVG Version: 6.00 Build 0)  -->
<svg version="1.1" xmlns="http://www.w3.org/2000/svg" xmlns:xlink="http://www.w3.org/1999/xlink" x="0px" y="0px" width="24px"
	 height="24px" viewBox="0 0 24 24" enable-background="new 0 0 24 24" xml:space="preserve">
<g id="Filled_Icon">
	<g>
		<path d="M9.273,11.072c-0.233,0.147-0.304,0.457-0.156,0.691c0.147,0.232,0.455,0.303,0.689,0.155C13.775,9.418,19,12.279,19,17
			c0,4.701-5.194,7.58-9.181,5.09c-0.233-0.146-0.542-0.076-0.688,0.158c-0.147,0.234-0.076,0.543,0.158,0.689
			C13.939,25.846,20,22.484,20,17C20,11.502,13.916,8.152,9.273,11.072z"/>
		<path d="M17,17c0-2.205-1.795-4-4-4H3.5C3.224,13,3,13.224,3,13.5v7C3,20.777,3.224,21,3.5,21H13C15.205,21,17,19.205,17,17z
			 M11,18.5v-3c0-0.276,0.224-0.5,0.5-0.5H13c1.102,0,2,0.896,2,2c0,1.103-0.898,2-2,2h-1.5C11.224,19,11,18.777,11,18.5z"/>
		<path d="M12.312,2.891L14,1.541V8.5C14,8.777,14.224,9,14.5,9S15,8.777,15,8.5V1.541l1.688,1.35
			c0.214,0.172,0.527,0.139,0.703-0.078c0.172-0.215,0.137-0.529-0.078-0.703l-2.5-2c-0.184-0.146-0.46-0.137-0.625,0l-2.5,2
			c-0.216,0.174-0.251,0.488-0.078,0.703C11.782,3.027,12.096,3.065,12.312,2.891z"/>
	</g>
</g>
<g id="Invisible_Shape">
	<rect fill="none" width="24" height="24"/>
</g>
</svg>
