<?xml version="1.0" encoding="utf-8"?>
<!-- Generator: Adobe Illustrator 19.2.1, SVG Export Plug-In . SVG Version: 6.00 Build 0)  -->
<svg version="1.1" xmlns="http://www.w3.org/2000/svg" xmlns:xlink="http://www.w3.org/1999/xlink" x="0px" y="0px" width="24px"
	 height="24px" viewBox="0 0 24 24" enable-background="new 0 0 24 24" xml:space="preserve">
<g id="Filled_Icon">
	<g>
		<path d="M12,8c-2.206,0-4,1.795-4,4v9.5C8,21.777,8.224,22,8.5,22h7c0.276,0,0.5-0.223,0.5-0.5V12C16,9.795,14.206,8,12,8z
			 M14,13.5c0,0.277-0.224,0.5-0.5,0.5h-3c-0.276,0-0.5-0.223-0.5-0.5V12c0-1.104,0.897-2,2-2c1.102,0,2,0.896,2,2V13.5z"/>
		<path d="M12,5c-5.501,0-8.839,6.082-5.936,10.711c0.145,0.234,0.455,0.304,0.688,0.158c0.234-0.146,0.306-0.455,0.159-0.689
			C4.429,11.219,7.28,6,12,6c4.714,0,7.585,5.217,5.08,9.193c-0.148,0.234-0.078,0.543,0.156,0.689
			c0.233,0.148,0.541,0.078,0.69-0.156C20.846,11.094,17.507,5,12,5z"/>
		<path d="M12,2C3.273,2-1.2,12.416,4.635,18.764c0.187,0.203,0.502,0.217,0.706,0.031c0.203-0.188,0.217-0.504,0.03-0.708
			C0.121,12.373,4.147,3,12,3c7.825,0,11.879,9.328,6.652,15.06c-0.185,0.204-0.171,0.522,0.033,0.706
			c0.204,0.186,0.52,0.171,0.706-0.032C25.201,12.359,20.691,2,12,2z"/>
	</g>
</g>
<g id="Invisible_Shape">
	<rect fill="none" width="24" height="24"/>
</g>
</svg>
