<?xml version="1.0" encoding="utf-8"?>
<!-- Generator: Adobe Illustrator 19.2.1, SVG Export Plug-In . SVG Version: 6.00 Build 0)  -->
<svg version="1.1" xmlns="http://www.w3.org/2000/svg" xmlns:xlink="http://www.w3.org/1999/xlink" x="0px" y="0px" width="24px"
	 height="24px" viewBox="0 0 24 24" enable-background="new 0 0 24 24" xml:space="preserve">
<g id="Filled_Icon">
	<g>
		<path d="M15,8c-1.739,0-3.208,1.123-3.757,2.676C10.516,9.666,9.337,9,8,9c-2.206,0-4,1.795-4,4v8.5C4,21.777,4.224,22,4.5,22h14
			c0.276,0,0.5-0.223,0.5-0.5V12C19,9.795,17.206,8,15,8z M10,14.5c0,0.277-0.224,0.5-0.5,0.5h-3C6.224,15,6,14.777,6,14.5V13
			c0-1.102,0.897-2,2-2s2,0.898,2,2V14.5z M17,13.5c0,0.277-0.224,0.5-0.5,0.5h-3c-0.276,0-0.5-0.223-0.5-0.5V12
			c0-1.102,0.897-2,2-2s2,0.898,2,2V13.5z"/>
		<path d="M9.784,7.976c0.252,0.118,0.548,0.012,0.666-0.238s0.011-0.548-0.238-0.665c-3.54-1.674-7.633,0.619-8.157,4.4
			c-0.038,0.273,0.153,0.525,0.426,0.563c0.291,0.036,0.528-0.163,0.564-0.427C3.478,8.486,6.863,6.594,9.784,7.976z"/>
		<path d="M18.926,7.635c-0.213,0.176-0.243,0.492-0.067,0.705c1.037,1.256,1.397,2.953,0.958,4.525
			c-0.074,0.268,0.081,0.543,0.347,0.617s0.542-0.08,0.616-0.348c0.528-1.885,0.096-3.924-1.149-5.433
			C19.454,7.49,19.139,7.459,18.926,7.635z"/>
		<path d="M12.284,7.32c0.422-0.273,0.881-0.481,1.364-0.617c0.266-0.074,0.421-0.351,0.346-0.617
			c-0.074-0.264-0.352-0.42-0.617-0.346c-0.581,0.163-1.132,0.412-1.638,0.74c-0.232,0.15-0.298,0.461-0.147,0.691
			C11.741,7.402,12.048,7.471,12.284,7.32z"/>
		<path d="M17.5,7.5C19.43,7.5,21,5.93,21,4s-1.57-3.5-3.5-3.5S14,2.07,14,4S15.57,7.5,17.5,7.5z M17,2.5C17,2.224,17.224,2,17.5,2
			S18,2.224,18,2.5V4h0.5C18.776,4,19,4.224,19,4.5C19,4.777,18.776,5,18.5,5h-1C17.224,5,17,4.777,17,4.5V2.5z"/>
	</g>
</g>
<g id="Invisible_Shape">
	<rect fill="none" width="24" height="24"/>
</g>
</svg>
