<?xml version="1.0" encoding="utf-8"?>
<!-- Generator: Adobe Illustrator 19.2.1, SVG Export Plug-In . SVG Version: 6.00 Build 0)  -->
<svg version="1.1" xmlns="http://www.w3.org/2000/svg" xmlns:xlink="http://www.w3.org/1999/xlink" x="0px" y="0px" width="24px"
	 height="24px" viewBox="0 0 24 24" enable-background="new 0 0 24 24" xml:space="preserve">
<g id="Filled_Icon">
	<g>
		<path d="M16,7c-1.734,0-3.211,1.111-3.764,2.658C11.509,8.656,10.33,8,9,8c-2.206,0-4,1.795-4,4v9.5C5,21.777,5.224,22,5.5,22
			c5.066,0,8.934,0,14,0c0.276,0,0.5-0.223,0.5-0.5V11C20,8.795,18.205,7,16,7z M11,13.5c0,0.277-0.224,0.5-0.5,0.5h-3
			C7.224,14,7,13.777,7,13.5V12c0-1.104,0.897-2,2-2c1.102,0,2,0.896,2,2V13.5z M18,12.5c0,0.277-0.224,0.5-0.5,0.5h-3
			c-0.276,0-0.5-0.223-0.5-0.5V11c0-1.104,0.896-2,2-2c1.103,0,2,0.896,2,2V12.5z"/>
		<path d="M10.783,6.955c0.25,0.119,0.548,0.012,0.666-0.236c0.119-0.25,0.013-0.549-0.237-0.666
			c-4.009-1.904-8.638,1.314-8.183,5.784c0.027,0.259,0.244,0.449,0.497,0.449c0.296,0,0.528-0.255,0.498-0.552
			C3.64,8.055,7.464,5.383,10.783,6.955z"/>
		<path d="M12.739,5.463c-0.231,0.15-0.298,0.459-0.148,0.69c0.15,0.232,0.46,0.298,0.691,0.148
			c3.823-2.471,8.781,1.093,7.533,5.545c-0.074,0.266,0.081,0.542,0.348,0.617c0.262,0.073,0.54-0.078,0.615-0.348
			C23.28,6.762,17.315,2.496,12.739,5.463z"/>
	</g>
</g>
<g id="Invisible_Shape">
	<rect fill="none" width="24" height="24"/>
</g>
</svg>
