<?xml version="1.0" encoding="utf-8"?>
<!-- Generator: Adobe Illustrator 19.2.1, SVG Export Plug-In . SVG Version: 6.00 Build 0)  -->
<svg version="1.1" xmlns="http://www.w3.org/2000/svg" xmlns:xlink="http://www.w3.org/1999/xlink" x="0px" y="0px" width="24px"
	 height="24px" viewBox="0 0 24 24" enable-background="new 0 0 24 24" xml:space="preserve">
<g id="Filled_Icon">
	<g>
		<path d="M23.994,6.92l-0.487-3c-0.045-0.271-0.3-0.468-0.574-0.412c-0.272,0.043-0.458,0.3-0.414,0.572l0.314,1.934
			C16.376,2.379,5.741,2.803,0.221,6.525C-0.008,6.68-0.069,6.99,0.085,7.219C0.24,7.449,0.551,7.51,0.779,7.354
			C6.008,3.828,16.28,3.438,22.385,6.91l-1.559,0.626c-0.256,0.103-0.38,0.396-0.277,0.65c0.103,0.257,0.393,0.38,0.65,0.278
			c0,0,2.504-1.012,2.513-1.016C23.898,7.359,24.031,7.144,23.994,6.92z"/>
		<path d="M15,7c-1.516,0-2.822,0.857-3.5,2.104C10.822,7.857,9.516,7,8,7c-2.206,0-4,1.795-4,4v9.5C4,20.777,4.224,21,4.5,21h14
			c0.276,0,0.5-0.223,0.5-0.5V11C19,8.795,17.206,7,15,7z M10,12.5c0,0.277-0.224,0.5-0.5,0.5h-3C6.224,13,6,12.777,6,12.5V11
			c0-1.102,0.897-2,2-2s2,0.898,2,2V12.5z M17,12.5c0,0.277-0.224,0.5-0.5,0.5h-3c-0.276,0-0.5-0.223-0.5-0.5V11
			c0-1.102,0.897-2,2-2s2,0.898,2,2V12.5z"/>
	</g>
</g>
<g id="Invisible_Shape">
	<rect fill="none" width="24" height="24"/>
</g>
</svg>
