<?xml version="1.0" encoding="utf-8"?>
<!-- Generator: Adobe Illustrator 19.2.1, SVG Export Plug-In . SVG Version: 6.00 Build 0)  -->
<svg version="1.1" xmlns="http://www.w3.org/2000/svg" xmlns:xlink="http://www.w3.org/1999/xlink" x="0px" y="0px" width="24px"
	 height="24px" viewBox="0 0 24 24" enable-background="new 0 0 24 24" xml:space="preserve">
<g id="Filled_Icon">
	<g>
		<path d="M17.438,8.025c-2.214-0.239-4.175,1.359-4.415,3.537l-0.938,8.494l-0.139-0.002l-0.959-8.504
			c-0.246-2.172-2.193-3.774-4.424-3.525c-2.191,0.248-3.773,2.232-3.526,4.42l0.965,9.107C4.029,21.807,4.244,22,4.5,22h15
			c0.255,0,0.47-0.191,0.497-0.447l0.978-9.113C21.216,10.244,19.642,8.269,17.438,8.025z M8.727,13.819l-2.981,0.337
			c-0.282,0.03-0.523-0.174-0.553-0.441l-0.168-1.49c-0.123-1.096,0.667-2.089,1.763-2.211C7.903,9.891,8.878,10.689,9,11.775
			l0.169,1.49C9.199,13.541,9.002,13.789,8.727,13.819z M18.987,12.22l-0.164,1.491c-0.028,0.256-0.245,0.445-0.497,0.445
			c-0.045,0-2.992-0.328-3.037-0.332c-0.277-0.033-0.473-0.281-0.442-0.553l0.165-1.49c0.119-1.088,1.102-1.896,2.207-1.77
			C18.315,10.133,19.108,11.123,18.987,12.22z"/>
		<path d="M23.5,3.5C23.224,3.5,23,3.725,23,4v1.234c-1.637-1.471-4.135-2.468-6.953-2.732c-0.281-0.025-0.52,0.178-0.545,0.451
			c-0.025,0.275,0.176,0.52,0.451,0.545C18.536,3.74,20.878,4.672,22.352,6H21c-0.276,0-0.5,0.225-0.5,0.5C20.5,6.777,20.724,7,21,7
			h2.5l0,0l0,0C23.778,7,24,6.752,24,6.5V4C24,3.725,23.775,3.5,23.5,3.5z"/>
		<path d="M3.5,6.5C3.5,6.225,3.275,6,3,6H1.649c1.48-1.352,3.782-2.266,6.396-2.502C8.319,3.473,8.523,3.23,8.498,2.955
			C8.473,2.68,8.229,2.477,7.955,2.502C5.144,2.756,2.645,3.756,1,5.24V4c0-0.275-0.225-0.5-0.5-0.5C0.224,3.5,0,3.725,0,4v2.5
			C0,6.766,0.225,7.027,0.533,7H3C3.275,7,3.5,6.777,3.5,6.5z"/>
	</g>
</g>
<g id="Invisible_Shape">
	<rect fill="none" width="24" height="24"/>
</g>
</svg>
