<?xml version="1.0" encoding="utf-8"?>
<!-- Generator: Adobe Illustrator 16.0.3, SVG Export Plug-In . SVG Version: 6.00 Build 0)  -->
<!DOCTYPE svg PUBLIC "-//W3C//DTD SVG 1.1//EN" "http://www.w3.org/Graphics/SVG/1.1/DTD/svg11.dtd">
<svg version="1.1" xmlns="http://www.w3.org/2000/svg" xmlns:xlink="http://www.w3.org/1999/xlink" x="0px" y="0px" width="24px"
	 height="24px" viewBox="0 0 24 24" enable-background="new 0 0 24 24" xml:space="preserve">
<g id="Outline_Icons">
	<g>
		<rect x="3.5" y="19.5" fill="none" stroke="#000000" stroke-linejoin="round" stroke-miterlimit="10" width="8" height="4"/>
		<path fill="none" stroke="#000000" stroke-linecap="round" stroke-linejoin="round" stroke-miterlimit="10" d="M4.972,19.5
			C0.469,10.312,0,14.188,5.5,2.417"/>
		<path fill="none" stroke="#000000" stroke-linecap="round" stroke-linejoin="round" stroke-miterlimit="10" d="M10.188,14.5H14.5
			c0.553,0,1-0.447,1-1v-12c0-0.551-0.447-1-1-1h-8c-0.552,0-1,0.449-1,1v12c0,0.392,0.211,0.915,0.632,0.665l1.962-4.884
			c0.572-1.487,2.86-0.456,2.288,1.031c-0.538,1.4-0.694,2.801-0.694,2.801C9.975,13.759,10.5,15.148,10.5,17.5v2"/>
		<path fill="none" stroke="#000000" stroke-linecap="round" stroke-linejoin="round" stroke-miterlimit="10" d="M10.454,15.733
			l6.319,1.502c0.537,0.128,1.076-0.204,1.203-0.741l2.775-11.675c0.128-0.538-0.203-1.077-0.742-1.204l-4.437-1.055"/>
	</g>
</g>
<g id="invisble_shape">
	<rect fill="none" width="24" height="24"/>
</g>
</svg>
