<?xml version="1.0" encoding="utf-8"?>
<!-- Generator: Adobe Illustrator 16.0.3, SVG Export Plug-In . SVG Version: 6.00 Build 0)  -->
<!DOCTYPE svg PUBLIC "-//W3C//DTD SVG 1.1//EN" "http://www.w3.org/Graphics/SVG/1.1/DTD/svg11.dtd">
<svg version="1.1" xmlns="http://www.w3.org/2000/svg" xmlns:xlink="http://www.w3.org/1999/xlink" x="0px" y="0px" width="24px"
	 height="24px" viewBox="0 0 24 24" enable-background="new 0 0 24 24" xml:space="preserve">
<g id="Outline_Icons">
	<g>
		<path fill="none" stroke="#000000" stroke-linejoin="round" stroke-miterlimit="10" d="M21.5,4.5c0-1.104-0.896-2-2-2h-16
			c-1.104,0-2,0.896-2,2v16c0,1.104,0.896,2,2,2h16c1.104,0,2-0.896,2-2V4.5z"/>
		<line fill="none" stroke="#000000" stroke-linejoin="round" stroke-miterlimit="10" x1="6.5" y1="22.5" x2="6.5" y2="2.5"/>
		<line fill="none" stroke="#000000" stroke-linejoin="round" stroke-miterlimit="10" x1="11.5" y1="22.5" x2="11.5" y2="2.5"/>
		<line fill="none" stroke="#000000" stroke-linejoin="round" stroke-miterlimit="10" x1="16.5" y1="22.5" x2="16.5" y2="2.5"/>
		<line fill="none" stroke="#000000" stroke-linejoin="round" stroke-miterlimit="10" x1="1.5" y1="7.5" x2="21.5" y2="7.5"/>
		<line fill="none" stroke="#000000" stroke-linejoin="round" stroke-miterlimit="10" x1="1.5" y1="12.5" x2="21.5" y2="12.5"/>
		<line fill="none" stroke="#000000" stroke-linejoin="round" stroke-miterlimit="10" x1="1.5" y1="17.5" x2="21.5" y2="17.5"/>
		<g>
			<path d="M4,19c-0.553,0-1,0.448-1,1c0,0.553,0.447,1,1,1s1-0.447,1-1C5,19.448,4.553,19,4,19L4,19z"/>
		</g>
		<g>
			<path d="M9,14c-0.553,0-1,0.448-1,1c0,0.553,0.447,1,1,1s1-0.447,1-1C10,14.448,9.553,14,9,14L9,14z"/>
		</g>
		<g>
			<path d="M4,9c-0.553,0-1,0.448-1,1c0,0.553,0.447,1,1,1s1-0.447,1-1C5,9.448,4.553,9,4,9L4,9z"/>
		</g>
		<g>
			<path d="M9,4C8.447,4,8,4.448,8,5c0,0.553,0.447,1,1,1s1-0.447,1-1C10,4.448,9.553,4,9,4L9,4z"/>
		</g>
		<g>
			<path d="M19,4c-0.553,0-1,0.448-1,1c0,0.553,0.447,1,1,1s1-0.447,1-1C20,4.448,19.553,4,19,4L19,4z"/>
		</g>
		<g>
			<path d="M14,9c-0.553,0-1,0.448-1,1c0,0.553,0.447,1,1,1s1-0.447,1-1C15,9.448,14.553,9,14,9L14,9z"/>
		</g>
		<g>
			<path d="M14,19c-0.553,0-1,0.448-1,1c0,0.553,0.447,1,1,1s1-0.447,1-1C15,19.448,14.553,19,14,19L14,19z"/>
		</g>
		<g>
			<path d="M19,14c-0.553,0-1,0.448-1,1c0,0.553,0.447,1,1,1s1-0.447,1-1C20,14.448,19.553,14,19,14L19,14z"/>
		</g>
	</g>
</g>
<g id="invisble_shape">
	<rect fill="none" width="24" height="24"/>
</g>
</svg>
