<?xml version="1.0" encoding="utf-8"?>
<!-- Generator: Adobe Illustrator 16.0.3, SVG Export Plug-In . SVG Version: 6.00 Build 0)  -->
<!DOCTYPE svg PUBLIC "-//W3C//DTD SVG 1.1//EN" "http://www.w3.org/Graphics/SVG/1.1/DTD/svg11.dtd">
<svg version="1.1" xmlns="http://www.w3.org/2000/svg" xmlns:xlink="http://www.w3.org/1999/xlink" x="0px" y="0px" width="24px"
	 height="24px" viewBox="0 0 24 24" enable-background="new 0 0 24 24" xml:space="preserve">
<g id="Outline_Icons">
	<g>
		<path fill="none" stroke="#000000" stroke-linecap="round" stroke-linejoin="round" stroke-miterlimit="10" d="M14.5,9.5
			c0-0.55-0.45-1-1-1h-12c-0.55,0-1,0.45-1,1v12c0,0.55,0.45,1,1,1h12c0.55,0,1-0.45,1-1V9.5z"/>
		<path fill="none" stroke="#000000" stroke-linecap="round" stroke-linejoin="round" stroke-miterlimit="10" d="M14.5,15.5h8
			c0.55,0,1-0.45,1-1v-12c0-0.55-0.45-1-1-1h-12c-0.55,0-1,0.45-1,1v6"/>
		<path fill="none" stroke="#000000" stroke-linejoin="round" stroke-miterlimit="10" d="M14.5,5c0,0.276-0.224,0.5-0.5,0.5l0,0
			c-0.276,0-0.5-0.224-0.5-0.5l0,0c0-0.276,0.224-0.5,0.5-0.5l0,0C14.276,4.5,14.5,4.724,14.5,5L14.5,5z"/>
		<path fill="none" stroke="#000000" stroke-linejoin="round" stroke-miterlimit="10" d="M19.5,5c0,0.276-0.224,0.5-0.5,0.5l0,0
			c-0.276,0-0.5-0.224-0.5-0.5l0,0c0-0.276,0.224-0.5,0.5-0.5l0,0C19.276,4.5,19.5,4.724,19.5,5L19.5,5z"/>
		<path fill="none" stroke="#000000" stroke-linejoin="round" stroke-miterlimit="10" d="M19.5,12c0,0.276-0.224,0.5-0.5,0.5l0,0
			c-0.276,0-0.5-0.224-0.5-0.5l0,0c0-0.276,0.224-0.5,0.5-0.5l0,0C19.276,11.5,19.5,11.724,19.5,12L19.5,12z"/>
		<path fill="none" stroke="#000000" stroke-linejoin="round" stroke-miterlimit="10" d="M11.5,13c0,0.276-0.224,0.5-0.5,0.5l0,0
			c-0.276,0-0.5-0.224-0.5-0.5l0,0c0-0.276,0.224-0.5,0.5-0.5l0,0C11.276,12.5,11.5,12.724,11.5,13L11.5,13z"/>
		<path fill="none" stroke="#000000" stroke-linejoin="round" stroke-miterlimit="10" d="M11.5,18c0,0.276-0.224,0.5-0.5,0.5l0,0
			c-0.276,0-0.5-0.224-0.5-0.5l0,0c0-0.276,0.224-0.5,0.5-0.5l0,0C11.276,17.5,11.5,17.724,11.5,18L11.5,18z"/>
		<path fill="none" stroke="#000000" stroke-linejoin="round" stroke-miterlimit="10" d="M8,18c0,0.276-0.224,0.5-0.5,0.5l0,0
			C7.224,18.5,7,18.276,7,18l0,0c0-0.276,0.224-0.5,0.5-0.5l0,0C7.776,17.5,8,17.724,8,18L8,18z"/>
		<path fill="none" stroke="#000000" stroke-linejoin="round" stroke-miterlimit="10" d="M8,13c0,0.276-0.224,0.5-0.5,0.5l0,0
			C7.224,13.5,7,13.276,7,13l0,0c0-0.276,0.224-0.5,0.5-0.5l0,0C7.776,12.5,8,12.724,8,13L8,13z"/>
		<path fill="none" stroke="#000000" stroke-linejoin="round" stroke-miterlimit="10" d="M4.5,13c0,0.276-0.224,0.5-0.5,0.5l0,0
			c-0.276,0-0.5-0.224-0.5-0.5l0,0c0-0.276,0.224-0.5,0.5-0.5l0,0C4.276,12.5,4.5,12.724,4.5,13L4.5,13z"/>
		<path fill="none" stroke="#000000" stroke-linejoin="round" stroke-miterlimit="10" d="M4.5,18c0,0.276-0.224,0.5-0.5,0.5l0,0
			c-0.276,0-0.5-0.224-0.5-0.5l0,0c0-0.276,0.224-0.5,0.5-0.5l0,0C4.276,17.5,4.5,17.724,4.5,18L4.5,18z"/>
	</g>
</g>
<g id="invisble_shape">
	<rect fill="none" width="24" height="24"/>
</g>
</svg>
