<?xml version="1.0" encoding="utf-8"?>
<!-- Generator: Adobe Illustrator 16.0.3, SVG Export Plug-In . SVG Version: 6.00 Build 0)  -->
<!DOCTYPE svg PUBLIC "-//W3C//DTD SVG 1.1//EN" "http://www.w3.org/Graphics/SVG/1.1/DTD/svg11.dtd">
<svg version="1.1" xmlns="http://www.w3.org/2000/svg" xmlns:xlink="http://www.w3.org/1999/xlink" x="0px" y="0px" width="24px"
	 height="24px" viewBox="0 0 24 24" enable-background="new 0 0 24 24" xml:space="preserve">
<g id="Outline_Icons">
	<g>
		<path fill="none" stroke="#000000" stroke-linejoin="round" stroke-miterlimit="10" d="M9.416,22.926
			c-0.768,0.768-2.012,0.768-2.779,0l-5.561-5.561c-0.768-0.768-0.768-2.013,0-2.779l12.51-12.51c0.768-0.768,2.012-0.768,2.779,0
			l5.559,5.559c0.768,0.768,0.768,2.014,0,2.781L9.416,22.926z"/>
		
			<line fill="none" stroke="#000000" stroke-linejoin="round" stroke-miterlimit="10" x1="7.258" y1="8.258" x2="15.744" y2="16.744"/>
		<g>
			<path d="M6.904,11.854c-0.256,0-0.512,0.098-0.707,0.293c-0.391,0.391-0.391,1.023,0,1.414c0.195,0.195,0.451,0.293,0.707,0.293
				s0.512-0.098,0.707-0.293c0.391-0.391,0.391-1.023,0-1.414C7.416,11.951,7.16,11.854,6.904,11.854L6.904,11.854z"/>
		</g>
		<g>
			<path d="M11.854,6.904c-0.256,0-0.512,0.098-0.707,0.293c-0.391,0.391-0.391,1.023,0,1.414c0.195,0.195,0.451,0.293,0.707,0.293
				s0.512-0.098,0.707-0.293c0.391-0.391,0.391-1.023,0-1.414C12.365,7.002,12.109,6.904,11.854,6.904L11.854,6.904z"/>
		</g>
		<g>
			<path d="M18.926,8.318c-0.256,0-0.512,0.098-0.707,0.293c-0.391,0.391-0.391,1.023,0,1.414c0.195,0.195,0.451,0.293,0.707,0.293
				s0.512-0.098,0.707-0.293c0.391-0.391,0.391-1.023,0-1.414C19.438,8.416,19.182,8.318,18.926,8.318L18.926,8.318z"/>
		</g>
		<g>
			<path d="M11.146,16.096c-0.256,0-0.512,0.098-0.707,0.293c-0.391,0.391-0.391,1.023,0,1.414c0.195,0.195,0.451,0.293,0.707,0.293
				s0.512-0.098,0.707-0.293c0.391-0.391,0.391-1.023,0-1.414C11.658,16.193,11.402,16.096,11.146,16.096L11.146,16.096z"/>
		</g>
		<g>
			<path d="M4.076,14.682c-0.256,0-0.512,0.099-0.707,0.295c-0.391,0.389-0.391,1.021,0,1.412c0.195,0.195,0.451,0.293,0.707,0.293
				s0.512-0.098,0.707-0.293c0.391-0.391,0.391-1.023,0-1.412C4.588,14.78,4.332,14.682,4.076,14.682L4.076,14.682z"/>
		</g>
		<g>
			<path d="M8.318,18.926c-0.256,0-0.512,0.097-0.707,0.291c-0.391,0.393-0.391,1.025,0,1.416c0.195,0.195,0.451,0.293,0.707,0.293
				s0.512-0.098,0.707-0.293c0.391-0.391,0.391-1.023,0-1.416C8.83,19.022,8.574,18.926,8.318,18.926L8.318,18.926z"/>
		</g>
	</g>
</g>
<g id="invisble_shape">
	<rect fill="none" width="24" height="24"/>
</g>
</svg>
