<?xml version="1.0" encoding="utf-8"?>
<!-- Generator: Adobe Illustrator 16.0.3, SVG Export Plug-In . SVG Version: 6.00 Build 0)  -->
<!DOCTYPE svg PUBLIC "-//W3C//DTD SVG 1.1//EN" "http://www.w3.org/Graphics/SVG/1.1/DTD/svg11.dtd">
<svg version="1.1" xmlns="http://www.w3.org/2000/svg" xmlns:xlink="http://www.w3.org/1999/xlink" x="0px" y="0px" width="24px"
	 height="24px" viewBox="0 0 24 24" enable-background="new 0 0 24 24" xml:space="preserve">
<g id="Outline_Icons">
	<g>
		<circle fill="none" stroke="#000000" stroke-linejoin="round" stroke-miterlimit="10" cx="12" cy="10.979" r="2"/>
		<path fill="none" stroke="#000000" stroke-linejoin="round" stroke-miterlimit="10" d="M14.5,2.5c0-1.104-0.896-2-2-2h-1
			c-1.104,0-2,0.896-2,2v3h5V2.5z"/>
		<path fill="none" stroke="#000000" stroke-linejoin="round" stroke-miterlimit="10" d="M22.5,6.5c0-1.104-0.896-2-2-2h-1
			c-1.104,0-2,0.896-2,2v3h5V6.5z"/>
		<path fill="none" stroke="#000000" stroke-linejoin="round" stroke-miterlimit="10" d="M6.5,6.5c0-1.104-0.896-2-2-2h-1
			c-1.104,0-2,0.896-2,2v3h5V6.5z"/>
		<path fill="none" stroke="#000000" stroke-linejoin="round" stroke-miterlimit="10" d="M22.5,14.5c0-1.104-0.896-2-2-2h-1
			c-1.104,0-2,0.896-2,2v3h5V14.5z"/>
		<path fill="none" stroke="#000000" stroke-linejoin="round" stroke-miterlimit="10" d="M6.5,14.5c0-1.104-0.896-2-2-2h-1
			c-1.104,0-2,0.896-2,2v3h5V14.5z"/>
		<polyline fill="none" stroke="#000000" stroke-linecap="round" stroke-linejoin="round" stroke-miterlimit="10" points="
			12,12.979 7,23.5 17,23.5 12,12.979 		"/>
		<path fill="none" stroke="#000000" stroke-linecap="round" stroke-linejoin="round" stroke-miterlimit="10" d="M18.106,5.065
			c-0.989-1.021-2.211-1.843-3.606-2.268"/>
		<path fill="none" stroke="#000000" stroke-linecap="round" stroke-linejoin="round" stroke-miterlimit="10" d="M20.376,12.5
			c0.094-0.506,0.124-0.988,0.124-1.521c0-0.497-0.042-0.983-0.124-1.457"/>
		<path fill="none" stroke="#000000" stroke-linecap="round" stroke-linejoin="round" stroke-miterlimit="10" d="M3.63,9.493
			C3.545,9.977,3.5,10.473,3.5,10.979c0,0.519,0.046,1.025,0.135,1.519"/>
		<path fill="none" stroke="#000000" stroke-linecap="round" stroke-linejoin="round" stroke-miterlimit="10" d="M9.473,2.861
			C8.099,3.288,6.875,4.055,5.897,5.062"/>
		<path fill="none" stroke="#000000" stroke-linejoin="round" stroke-miterlimit="10" d="M7.996,18.521
			c-0.597-0.319-1.15-0.707-1.65-1.153"/>
		<path fill="none" stroke="#000000" stroke-linejoin="round" stroke-miterlimit="10" d="M17.533,17.473
			c-0.427,0.367-0.892,0.692-1.387,0.971"/>
	</g>
</g>
<g id="invisble_shape">
	<rect fill="none" width="24" height="24"/>
</g>
</svg>
