<?xml version="1.0" encoding="utf-8"?>
<!-- Generator: Adobe Illustrator 16.0.3, SVG Export Plug-In . SVG Version: 6.00 Build 0)  -->
<!DOCTYPE svg PUBLIC "-//W3C//DTD SVG 1.1//EN" "http://www.w3.org/Graphics/SVG/1.1/DTD/svg11.dtd">
<svg version="1.1" xmlns="http://www.w3.org/2000/svg" xmlns:xlink="http://www.w3.org/1999/xlink" x="0px" y="0px" width="24px"
	 height="24px" viewBox="0 0 24 24" enable-background="new 0 0 24 24" xml:space="preserve">
<g id="Outline_Icons">
	<g>
		<path fill="none" stroke="#000000" stroke-linecap="round" stroke-linejoin="round" stroke-miterlimit="10" d="M16.5,21.5
			c0,1.104-0.896,2-2,2h-6c-1.105,0-2-0.896-2-2v-7h10V21.5z"/>
		
			<line fill="none" stroke="#000000" stroke-linecap="round" stroke-linejoin="round" stroke-miterlimit="10" x1="3" y1="14.5" x2="20" y2="14.5"/>
		
			<line fill="none" stroke="#000000" stroke-linecap="round" stroke-linejoin="round" stroke-miterlimit="10" x1="6.5" y1="17.5" x2="16.5" y2="17.5"/>
		<path fill="none" stroke="#000000" stroke-linecap="round" stroke-linejoin="round" stroke-miterlimit="10" d="M17.717,2.092
			C17.4,1.414,16.804,0.91,16.084,0.713c-0.722-0.197-1.492-0.067-2.108,0.355c-0.616,0.422-1.016,1.094-1.091,1.837L12,11.549
			c0.734,0.102,1.404,0.396,1.954,0.842l3.766-8.161C18.033,3.551,18.031,2.769,17.717,2.092z"/>
		<path fill="none" stroke="#000000" stroke-linecap="round" stroke-linejoin="round" stroke-miterlimit="10" d="M10.73,11.573
			l-0.433-8.579c-0.037-0.746-0.401-1.438-0.995-1.892C8.709,0.648,7.946,0.479,7.217,0.639c-0.73,0.16-1.353,0.633-1.702,1.293
			C5.164,2.592,5.123,3.371,5.4,4.065l3.394,8.481C9.329,12.06,9.988,11.711,10.73,11.573z"/>
		<path fill="none" stroke="#000000" stroke-linecap="round" stroke-linejoin="round" stroke-miterlimit="10" d="M15.315,14.5
			c-0.447-1.721-1.997-2.997-3.858-2.997c-1.859,0-3.41,1.276-3.857,2.997H15.315z"/>
	</g>
</g>
<g id="invisble_shape">
	<rect fill="none" width="24" height="24"/>
</g>
</svg>
