<?xml version="1.0" encoding="utf-8"?>
<!-- Generator: Adobe Illustrator 16.0.3, SVG Export Plug-In . SVG Version: 6.00 Build 0)  -->
<!DOCTYPE svg PUBLIC "-//W3C//DTD SVG 1.1//EN" "http://www.w3.org/Graphics/SVG/1.1/DTD/svg11.dtd">
<svg version="1.1" xmlns="http://www.w3.org/2000/svg" xmlns:xlink="http://www.w3.org/1999/xlink" x="0px" y="0px" width="24px"
	 height="24px" viewBox="0 0 24 24" enable-background="new 0 0 24 24" xml:space="preserve">
<g id="Outline_Icons">
	<g>
		<rect x="0.5" y="7.5" fill="none" stroke="#000000" stroke-linejoin="round" stroke-miterlimit="10" width="18" height="16"/>
		<line fill="none" stroke="#000000" stroke-linejoin="round" stroke-miterlimit="10" x1="6.5" y1="7.5" x2="6.5" y2="16.5"/>
		<line fill="none" stroke="#000000" stroke-linejoin="round" stroke-miterlimit="10" x1="12.5" y1="7.5" x2="12.5" y2="16.5"/>
		<line fill="none" stroke="#000000" stroke-linejoin="round" stroke-miterlimit="10" x1="0.5" y1="16.5" x2="18.5" y2="16.5"/>
		<rect x="2.5" y="19.5" fill="none" stroke="#000000" stroke-linejoin="round" stroke-miterlimit="10" width="5" height="2"/>
		<rect x="0.5" y="4.5" fill="none" stroke="#000000" stroke-linejoin="round" stroke-miterlimit="10" width="18" height="3"/>
		<path fill="none" stroke="#000000" stroke-linejoin="round" stroke-miterlimit="10" d="M2.5,4.5
			c1.502-2.401,4.171-3.999,7.213-3.999c3.04,0,5.708,1.597,7.21,3.997"/>
		<polyline fill="none" stroke="#000000" stroke-linecap="round" stroke-linejoin="round" stroke-miterlimit="10" points="
			18.5,20.5 21.5,20.5 21.5,9.5 		"/>
		
			<circle fill="none" stroke="#000000" stroke-linecap="round" stroke-linejoin="round" stroke-miterlimit="10" cx="21.5" cy="8" r="1.5"/>
		<polyline fill="none" stroke="#000000" stroke-linecap="round" stroke-linejoin="round" stroke-miterlimit="10" points="
			2.718,10.5 4.239,10.5 2.718,13.925 		"/>
		<polyline fill="none" stroke="#000000" stroke-linecap="round" stroke-linejoin="round" stroke-miterlimit="10" points="
			8.739,10.5 10.261,10.5 8.739,13.925 		"/>
		<polyline fill="none" stroke="#000000" stroke-linecap="round" stroke-linejoin="round" stroke-miterlimit="10" points="
			14.728,10.5 16.249,10.5 14.728,13.925 		"/>
	</g>
</g>
<g id="invisble_shape">
	<rect fill="none" width="24" height="24"/>
</g>
</svg>
