<?xml version="1.0" encoding="utf-8"?>
<!-- Generator: Adobe Illustrator 16.0.3, SVG Export Plug-In . SVG Version: 6.00 Build 0)  -->
<!DOCTYPE svg PUBLIC "-//W3C//DTD SVG 1.1//EN" "http://www.w3.org/Graphics/SVG/1.1/DTD/svg11.dtd">
<svg version="1.1" xmlns="http://www.w3.org/2000/svg" xmlns:xlink="http://www.w3.org/1999/xlink" x="0px" y="0px" width="24px"
	 height="24px" viewBox="0 0 24 24" enable-background="new 0 0 24 24" xml:space="preserve">
<g id="Outline_Icons">
	<path fill="none" stroke="#000000" stroke-linecap="round" stroke-linejoin="round" stroke-miterlimit="10" d="M2.357,9.5
		C1.961,9.5,1.5,8.826,1.5,8.43V1.254C1.5,0.857,1.961,0.5,2.357,0.5h1.436C4.189,0.5,4.5,0.857,4.5,1.254v0.718
		c0,0,1.44-1.436,4.311-1.436c2.871,0,3.591,1.436,6.461,1.436c2.871,0,5.024-1.436,5.024-1.436l1.795,2.153
		c0,0-5.616,14.537-6.07,20.151c-0.03,0.372-0.341,0.659-0.714,0.659c-1.655,0-4.998,0-6.477,0c-0.197,0-0.385-0.081-0.521-0.224
		c-0.136-0.144-0.206-0.335-0.196-0.532c0.125-2.42,1.124-10.19,8.597-16.467c-0.718,0.719-1.794,1.436-3.588,1.436
		S9.175,6.277,7.739,6.277c-1.294,0-2.88,0.76-3.179,2.453C4.5,9.073,4.202,9.5,3.854,9.5C3.38,9.5,2.804,9.5,2.357,9.5z"/>
</g>
<g id="invisble_shape">
	<rect fill="none" width="24" height="24"/>
</g>
</svg>
