<?xml version="1.0" encoding="utf-8"?>
<!-- Generator: Adobe Illustrator 16.0.3, SVG Export Plug-In . SVG Version: 6.00 Build 0)  -->
<!DOCTYPE svg PUBLIC "-//W3C//DTD SVG 1.1//EN" "http://www.w3.org/Graphics/SVG/1.1/DTD/svg11.dtd">
<svg version="1.1" xmlns="http://www.w3.org/2000/svg" xmlns:xlink="http://www.w3.org/1999/xlink" x="0px" y="0px" width="24px"
	 height="24px" viewBox="0 0 24 24" enable-background="new 0 0 24 24" xml:space="preserve">
<g id="Outline_Icons">
	<g>
		<path fill="none" stroke="#000000" stroke-linecap="round" stroke-linejoin="round" stroke-miterlimit="10" d="M11.106,23.5
			l12.021-12.021c-1.172-1.171-1.172-3.069,0-4.242l-6.363-6.364c-1.172,1.173-3.071,1.173-4.243,0L0.5,12.893
			c1.172,1.172,1.172,3.072,0,4.244L6.864,23.5C8.036,22.328,9.935,22.328,11.106,23.5z"/>
		<path fill="none" stroke="#000000" stroke-linecap="round" stroke-linejoin="round" stroke-miterlimit="10" d="M11.106,19.257
			c-0.778,0.778-2.051,0.778-2.828,0l-3.536-3.536c-0.778-0.777-0.778-2.05,0-2.828l7.777-7.777c0.778-0.778,2.051-0.778,2.829,0
			l3.536,3.535c0.777,0.778,0.777,2.051,0,2.829L11.106,19.257z"/>
		
			<line fill="none" stroke="#000000" stroke-linecap="round" stroke-linejoin="round" stroke-miterlimit="10" x1="13.935" y1="7.943" x2="7.571" y2="14.308"/>
		
			<line fill="none" stroke="#000000" stroke-linecap="round" stroke-linejoin="round" stroke-miterlimit="10" x1="14.288" y1="11.832" x2="11.46" y2="14.66"/>
	</g>
</g>
<g id="invisble_shape">
	<rect fill="none" width="24" height="24"/>
</g>
</svg>
