<?xml version="1.0" encoding="utf-8"?>
<!-- Generator: Adobe Illustrator 16.0.3, SVG Export Plug-In . SVG Version: 6.00 Build 0)  -->
<!DOCTYPE svg PUBLIC "-//W3C//DTD SVG 1.1//EN" "http://www.w3.org/Graphics/SVG/1.1/DTD/svg11.dtd">
<svg version="1.1" xmlns="http://www.w3.org/2000/svg" xmlns:xlink="http://www.w3.org/1999/xlink" x="0px" y="0px" width="24px"
	 height="24px" viewBox="0 0 24 24" enable-background="new 0 0 24 24" xml:space="preserve">
<g id="Outline_Icons">
	<g>
		<path fill="none" stroke="#000000" stroke-linejoin="round" stroke-miterlimit="10" d="M23.5,8.5v-3c0-1.104-0.896-2-2-2h-19
			c-1.104,0-2,0.896-2,2v3H1c1.933,0,3.5,1.567,3.5,3.5c0,1.934-1.567,3.5-3.5,3.5H0.5v3c0,1.104,0.896,2,2,2h19
			c1.104,0,2-0.896,2-2v-3H23c-1.934,0-3.5-1.566-3.5-3.5c0-1.933,1.566-3.5,3.5-3.5H23.5z"/>
		<polygon fill="none" stroke="#000000" stroke-linejoin="round" stroke-miterlimit="10" points="12,8 13.045,10.5 15.495,10.5 
			13.395,12.196 14.445,14.997 11.995,13.248 9.546,14.996 10.596,12.196 8.495,10.5 10.945,10.5 		"/>
		<line fill="none" stroke="#000000" stroke-linejoin="round" stroke-miterlimit="10" x1="2" y1="6.501" x2="3" y2="6.501"/>
		<line fill="none" stroke="#000000" stroke-linejoin="round" stroke-miterlimit="10" x1="4" y1="6.501" x2="5" y2="6.501"/>
		<line fill="none" stroke="#000000" stroke-linejoin="round" stroke-miterlimit="10" x1="6" y1="6.501" x2="7" y2="6.501"/>
		<line fill="none" stroke="#000000" stroke-linejoin="round" stroke-miterlimit="10" x1="8" y1="6.501" x2="9" y2="6.501"/>
		<line fill="none" stroke="#000000" stroke-linejoin="round" stroke-miterlimit="10" x1="10" y1="6.501" x2="11" y2="6.501"/>
		<line fill="none" stroke="#000000" stroke-linejoin="round" stroke-miterlimit="10" x1="12" y1="6.501" x2="13" y2="6.501"/>
		<line fill="none" stroke="#000000" stroke-linejoin="round" stroke-miterlimit="10" x1="14" y1="6.501" x2="15" y2="6.501"/>
		<line fill="none" stroke="#000000" stroke-linejoin="round" stroke-miterlimit="10" x1="16" y1="6.501" x2="17" y2="6.501"/>
		<line fill="none" stroke="#000000" stroke-linejoin="round" stroke-miterlimit="10" x1="18" y1="6.501" x2="19" y2="6.501"/>
		<line fill="none" stroke="#000000" stroke-linejoin="round" stroke-miterlimit="10" x1="20" y1="6.501" x2="21" y2="6.501"/>
		<line fill="none" stroke="#000000" stroke-linejoin="round" stroke-miterlimit="10" x1="3" y1="17.5" x2="4" y2="17.5"/>
		<line fill="none" stroke="#000000" stroke-linejoin="round" stroke-miterlimit="10" x1="5" y1="17.5" x2="6" y2="17.5"/>
		<line fill="none" stroke="#000000" stroke-linejoin="round" stroke-miterlimit="10" x1="7" y1="17.5" x2="8" y2="17.5"/>
		<line fill="none" stroke="#000000" stroke-linejoin="round" stroke-miterlimit="10" x1="9" y1="17.5" x2="10" y2="17.5"/>
		<line fill="none" stroke="#000000" stroke-linejoin="round" stroke-miterlimit="10" x1="11" y1="17.5" x2="12" y2="17.5"/>
		<line fill="none" stroke="#000000" stroke-linejoin="round" stroke-miterlimit="10" x1="13" y1="17.5" x2="14" y2="17.5"/>
		<line fill="none" stroke="#000000" stroke-linejoin="round" stroke-miterlimit="10" x1="15" y1="17.5" x2="16" y2="17.5"/>
		<line fill="none" stroke="#000000" stroke-linejoin="round" stroke-miterlimit="10" x1="17" y1="17.5" x2="18" y2="17.5"/>
		<line fill="none" stroke="#000000" stroke-linejoin="round" stroke-miterlimit="10" x1="19" y1="17.5" x2="20" y2="17.5"/>
		<line fill="none" stroke="#000000" stroke-linejoin="round" stroke-miterlimit="10" x1="21" y1="17.5" x2="22" y2="17.5"/>
	</g>
</g>
<g id="invisble_shape">
	<rect fill="none" width="24" height="24"/>
</g>
</svg>
