<?xml version="1.0" encoding="utf-8"?>
<!-- Generator: Adobe Illustrator 19.2.0, SVG Export Plug-In . SVG Version: 6.00 Build 0)  -->
<svg version="1.1" xmlns="http://www.w3.org/2000/svg" xmlns:xlink="http://www.w3.org/1999/xlink" x="0px" y="0px" width="24px"
	 height="24px" viewBox="0 0 24 24" enable-background="new 0 0 24 24" xml:space="preserve">
<g id="Filled_Icons">
	<path d="M23.5,22h-20C2.673,22,2,21.327,2,20.5C2,19.672,2.673,19,3.5,19H21c1.654,0,3-1.345,3-3c0-1.653-1.346-3-3-3h-5V8
		c0-4.412-3.589-8-8-8H4C1.794,0,0,1.795,0,4v11.5C0,15.776,0.224,16,0.5,16h15c0.275,0,0.5-0.224,0.5-0.5V14h5c1.103,0,2,0.897,2,2
		c0,1.102-0.897,2-2,2H3.5C2.121,18,1,19.122,1,20.5S2.121,23,3.5,23H23v0.5c0,0.276,0.224,0.5,0.5,0.5c0.275,0,0.5-0.224,0.5-0.5
		v-1C24,22.224,23.775,22,23.5,22z M8,4c2.205,0,4,1.795,4,4c0,2.206-1.795,4-4,4c-2.206,0-4-1.794-4-4C4,5.795,5.794,4,8,4z
		 M12.5,14h-9C3.224,14,3,13.776,3,13.5C3,13.224,3.224,13,3.5,13h9c0.275,0,0.5,0.224,0.5,0.5C13,13.776,12.775,14,12.5,14z"/>
</g>
<g id="invisible_shape">
	<rect fill="none" width="24" height="24"/>
</g>
</svg>
