<?xml version="1.0" encoding="utf-8"?>
<!-- Generator: Adobe Illustrator 19.2.0, SVG Export Plug-In . SVG Version: 6.00 Build 0)  -->
<svg version="1.1" xmlns="http://www.w3.org/2000/svg" xmlns:xlink="http://www.w3.org/1999/xlink" x="0px" y="0px" width="24px"
	 height="24px" viewBox="0 0 24 24" enable-background="new 0 0 24 24" xml:space="preserve">
<g id="Filled_Icons">
	<g>
		<path d="M12,3.5c2.284,0,3.5-1.742,3.5-3C15.5,0.223,15.276,0,15,0H9C8.724,0,8.5,0.223,8.5,0.5C8.5,1.758,9.716,3.5,12,3.5z"/>
		<path d="M23.5,8.5c-1.258,0-3,1.217-3,3.5s1.742,3.5,3,3.5c0.276,0,0.5-0.224,0.5-0.5V9C24,8.723,23.776,8.5,23.5,8.5z"/>
		<path d="M12,20.5c-2.284,0-3.5,1.743-3.5,3C8.5,23.776,8.724,24,9,24h6c0.276,0,0.5-0.224,0.5-0.5
			C15.5,22.243,14.284,20.5,12,20.5z"/>
		<path d="M0.5,8.5C0.224,8.5,0,8.723,0,9v6c0,0.276,0.224,0.5,0.5,0.5c1.258,0,3-1.217,3-3.5S1.758,8.5,0.5,8.5z"/>
		<path d="M8.557,14C8.212,13.409,8,12.731,8,12c0-0.732,0.212-1.409,0.557-2H4.063C4.331,10.59,4.5,11.256,4.5,12
			c0,0.743-0.169,1.411-0.438,2H8.557z"/>
		<path d="M10,15.445v4.493c0.589-0.269,1.257-0.438,2-0.438s1.411,0.169,2,0.438v-4.493C13.409,15.788,12.731,16,12,16
			S10.591,15.788,10,15.445z"/>
		<path d="M15.443,10C15.788,10.591,16,11.268,16,12c0,0.731-0.212,1.409-0.557,2h4.494c-0.269-0.589-0.438-1.257-0.438-2
			c0-0.744,0.169-1.41,0.438-2H15.443z"/>
		<path d="M14,8.556V4.062C13.411,4.332,12.743,4.5,12,4.5s-1.411-0.168-2-0.438v4.495C10.591,8.211,11.269,8,12,8
			S13.409,8.211,14,8.556z"/>
		<circle cx="12" cy="12" r="3"/>
	</g>
</g>
<g id="invisible_shape">
	<rect fill="none" width="24" height="24"/>
</g>
</svg>
