<?xml version="1.0" encoding="utf-8"?>
<!-- Generator: Adobe Illustrator 19.2.0, SVG Export Plug-In . SVG Version: 6.00 Build 0)  -->
<svg version="1.1" xmlns="http://www.w3.org/2000/svg" xmlns:xlink="http://www.w3.org/1999/xlink" x="0px" y="0px" width="24px"
	 height="24px" viewBox="0 0 24 24" enable-background="new 0 0 24 24" xml:space="preserve">
<g id="Filled_Icons">
	<g>
		<path d="M19.032,4.969C15.982,1.919,11.916,0.154,7.582,0C7.08,0.002,6.885,0.711,7.38,0.948c2.542,1.213,4.936,2.764,7.116,4.609
			c0.228,0.193,0.232,0.534,0.03,0.735l-0.924,0.924l3.183,3.182l0.924-0.923c0.206-0.207,0.547-0.192,0.735,0.032
			c1.845,2.179,3.396,4.573,4.608,7.115c0.227,0.468,0.967,0.324,0.947-0.242C23.846,12.07,22.081,8.018,19.032,4.969z"/>
		<path d="M0.875,20.651c-0.195,0.196-0.195,0.512,0,0.707l1.768,1.768c0.195,0.195,0.512,0.195,0.707,0l12.375-12.374l-2.476-2.475
			L0.875,20.651z"/>
		<path d="M20.915,5.56l0.819-0.819c0.195-0.195,0.195-0.512,0-0.707l-1.768-1.768c-0.195-0.195-0.512-0.195-0.707,0l-0.82,0.82
			c0.449,0.37,0.884,0.761,1.3,1.176C20.154,4.677,20.545,5.111,20.915,5.56z"/>
	</g>
</g>
<g id="invisible_shape">
	<rect fill="none" width="24" height="24"/>
</g>
</svg>
