<?xml version="1.0" encoding="utf-8"?>
<!-- Generator: Adobe Illustrator 19.2.0, SVG Export Plug-In . SVG Version: 6.00 Build 0)  -->
<svg version="1.1" xmlns="http://www.w3.org/2000/svg" xmlns:xlink="http://www.w3.org/1999/xlink" x="0px" y="0px" width="24px"
	 height="24px" viewBox="0 0 24 24" enable-background="new 0 0 24 24" xml:space="preserve">
<g id="Filled_Icons">
	<g>
		<g>
			<path d="M5.899,8.796l3.599,3.591l2.833-2.832L8.727,5.95c0.547-1.618,0.139-3.397-1.082-4.618
				C6.362,0.05,4.434-0.327,2.782,0.371c-0.148,0.062-0.258,0.193-0.293,0.35C2.453,0.878,2.495,1.043,2.602,1.163L4.346,3.13V4.44
				H3.042L1.121,2.659c-0.12-0.11-0.284-0.154-0.445-0.122C0.517,2.573,0.384,2.682,0.32,2.832c-0.711,1.682-0.334,3.606,0.961,4.9
				C2.472,8.924,4.305,9.335,5.899,8.796z"/>
			<path d="M17.883,15.106l-3.431-3.431l-2.831,2.832l3.434,3.427c-0.546,1.617-0.139,3.398,1.082,4.619
				c0.849,0.848,1.978,1.314,3.179,1.314c0.608,0,1.2-0.119,1.759-0.356c0.152-0.064,0.263-0.198,0.296-0.36
				c0.032-0.161-0.016-0.329-0.13-0.447l-1.895-1.964V19.44h1.305l2.011,1.856c0.119,0.111,0.283,0.155,0.444,0.122
				c0.159-0.033,0.292-0.144,0.355-0.294c0.718-1.697,0.341-3.635-0.961-4.936C21.303,14.99,19.474,14.57,17.883,15.106z"/>
		</g>
		<path d="M23.854,1.653l-1.5-1.5c-0.172-0.171-0.442-0.195-0.639-0.057l-3.541,2.459c-0.122,0.085-0.199,0.219-0.213,0.367
			c-0.013,0.147,0.04,0.293,0.145,0.398l0.938,0.936l-9.971,9.971L7.305,12.46c-0.195-0.196-0.512-0.196-0.707,0
			c-0.195,0.194-0.195,0.511,0,0.707l0.706,0.706l-6.218,6.22C0.708,20.471,0.5,20.973,0.5,21.506c0,0.535,0.208,1.038,0.585,1.413
			c0.377,0.379,0.879,0.587,1.414,0.587c0.535,0,1.037-0.208,1.415-0.586l6.217-6.218l0.707,0.707
			c0.098,0.098,0.226,0.146,0.353,0.146c0.128,0,0.256-0.048,0.354-0.146c0.195-0.196,0.195-0.512,0-0.707l-1.767-1.767l9.972-9.972
			l0.83,0.831c0.094,0.094,0.222,0.147,0.354,0.147c0.012,0,0.023,0,0.036-0.002c0.145-0.009,0.277-0.082,0.364-0.199L23.9,2.306
			C24.049,2.106,24.029,1.829,23.854,1.653z"/>
	</g>
</g>
<g id="invisible_shape">
	<rect fill="none" width="24" height="24"/>
</g>
</svg>
