<?xml version="1.0" encoding="utf-8"?>
<!-- Generator: Adobe Illustrator 19.2.0, SVG Export Plug-In . SVG Version: 6.00 Build 0)  -->
<svg version="1.1" xmlns="http://www.w3.org/2000/svg" xmlns:xlink="http://www.w3.org/1999/xlink" x="0px" y="0px" width="24px"
	 height="24px" viewBox="0 0 24 24" enable-background="new 0 0 24 24" xml:space="preserve">
<g id="Filled_Icons">
	<g>
		<path d="M17,4.006c-1.654,0-3,1.346-3,3c0,1.655,1.346,3,3,3s3-1.345,3-3C20,5.352,18.654,4.006,17,4.006z M17,8.006
			c-0.553,0-1-0.449-1-1c0-0.553,0.447-1,1-1s1,0.447,1,1C18,7.558,17.553,8.006,17,8.006z"/>
		<circle cx="5" cy="19.006" r="1"/>
		<path d="M21.864,2.142c-1.463-1.463-3.468-2.222-5.516-2.124c-2.052,0.102-3.976,1.072-5.296,2.686L0.89,16.694
			c-1.338,1.841-1.142,4.344,0.468,5.954c0.868,0.868,2.023,1.347,3.252,1.347H4.61c0.975,0,1.91-0.303,2.701-0.878l14.014-10.181
			c1.591-1.302,2.562-3.226,2.664-5.279C24.091,5.605,23.316,3.595,21.864,2.142z M5,22.006c-1.654,0-3-1.345-3-3
			c0-1.654,1.346-3,3-3s3,1.346,3,3C8,20.661,6.654,22.006,5,22.006z M17,12.006c-2.757,0-5-2.244-5-5c0-2.757,2.243-5,5-5
			s5,2.243,5,5C22,9.763,19.757,12.006,17,12.006z"/>
	</g>
</g>
<g id="invisible_shape">
	<rect fill="none" width="24" height="24"/>
</g>
</svg>
