<?xml version="1.0" encoding="utf-8"?>
<!-- Generator: Adobe Illustrator 19.2.0, SVG Export Plug-In . SVG Version: 6.00 Build 0)  -->
<svg version="1.1" xmlns="http://www.w3.org/2000/svg" xmlns:xlink="http://www.w3.org/1999/xlink" x="0px" y="0px" width="24px"
	 height="24px" viewBox="0 0 24 24" enable-background="new 0 0 24 24" xml:space="preserve">
<g id="Filled_Icons">
	<path d="M23.437,19.55c-0.203-3.5-4.926-7.276-5.127-7.437c-0.198-0.156-0.483-0.14-0.663,0.04L15.25,14.55L5,4.3V0.506
		c0-0.202-0.122-0.385-0.309-0.462C4.505-0.031,4.289,0.01,4.147,0.153l-4,4C0.003,4.296-0.04,4.511,0.038,4.698
		C0.115,4.885,0.298,5.006,0.5,5h3.793l10.25,10.257l-2.397,2.396c-0.18,0.18-0.196,0.466-0.039,0.664
		c0.166,0.209,4.1,5.135,7.668,5.135c0.985,0,1.854-0.367,2.578-1.092C23.135,21.579,23.5,20.633,23.437,19.55z"/>
</g>
<g id="invisible_shape">
	<rect fill="none" width="24" height="24"/>
</g>
</svg>
