<?xml version="1.0" encoding="utf-8"?>
<!-- Generator: Adobe Illustrator 19.2.0, SVG Export Plug-In . SVG Version: 6.00 Build 0)  -->
<svg version="1.1" xmlns="http://www.w3.org/2000/svg" xmlns:xlink="http://www.w3.org/1999/xlink" x="0px" y="0px" width="24px"
	 height="24px" viewBox="0 0 24 24" enable-background="new 0 0 24 24" xml:space="preserve">
<g id="Filled_Icons">
	<g>
		<path d="M23.332,3.048L21,5.5L18.5,3l2.45-2.33C20.166,0.248,19.315,0,18.434,0c-1.418,0-2.795,0.595-3.875,1.675
			c-0.094,0.094-0.147,0.221-0.147,0.354c0,0.133,0.053,0.26,0.147,0.353l7.071,7.071C21.728,9.551,21.855,9.6,21.983,9.6
			c0.128,0,0.256-0.049,0.354-0.146C24.134,7.656,24.448,5.127,23.332,3.048z"/>
		<polygon points="4.184,17 9.841,17 10.841,16 5.184,16 		"/>
		<polygon points="6.184,15 11.841,15 12.841,14 7.184,14 		"/>
		<path d="M11.686,8.084c-0.056,0.056-0.098,0.124-0.122,0.199l-0.647,1.984L8.184,13H14l1.731-0.551
			c0.074-0.024,0.142-0.066,0.198-0.122l3.58-3.581l-4.242-4.242L11.686,8.084z"/>
		<path d="M2.892,18.292c-0.043,0.043-0.078,0.094-0.103,0.15l-1.745,3.911c-0.085,0.19-0.042,0.413,0.105,0.56
			c0.096,0.094,0.223,0.144,0.352,0.144c0.071,0,0.143-0.015,0.21-0.046l3.866-1.789c0.054-0.024,0.102-0.059,0.143-0.1L8.841,18
			H3.184L2.892,18.292z"/>
	</g>
</g>
<g id="invisible_shape">
	<rect fill="none" width="24" height="24"/>
</g>
</svg>
