<?xml version="1.0" encoding="utf-8"?>
<!-- Generator: Adobe Illustrator 19.2.0, SVG Export Plug-In . SVG Version: 6.00 Build 0)  -->
<svg version="1.1" xmlns="http://www.w3.org/2000/svg" xmlns:xlink="http://www.w3.org/1999/xlink" x="0px" y="0px" width="24px"
	 height="24px" viewBox="0 0 24 24" enable-background="new 0 0 24 24" xml:space="preserve">
<g id="Filled_Icons">
	<path d="M17.5,0h-12C4.121,0,3,1.122,3,2.5v19C3,22.878,4.121,24,5.5,24h12c1.379,0,2.5-1.122,2.5-2.5v-19
		C20,1.122,18.879,0,17.5,0z M8,20.648c-1.178-0.563-2-1.758-2-3.148c0-1.39,0.822-2.585,2-3.148V20.648z M10,21.5
		c0,0.276-0.224,0.5-0.5,0.5S9,21.776,9,21.5v-7.954c0-0.276,0.224-0.5,0.5-0.5s0.5,0.224,0.5,0.5V21.5z M11,20.648v-6.297
		c1.178,0.563,2,1.759,2,3.148C13,18.891,12.178,20.085,11,20.648z M11.681,9.019l-2.084-4.66c-0.113-0.252-0.41-0.365-0.66-0.252
		C8.685,4.219,8.571,4.515,8.685,4.767l1.965,4.393C9.69,9.509,9,10.5,9,11H6.5C6.224,11,6,10.776,6,10.5v-8C6,2.223,6.224,2,6.5,2
		h10C16.776,2,17,2.223,17,2.5v8c0,0.276-0.224,0.5-0.5,0.5H14C14,10,12.975,9.113,11.681,9.019z M16,21.5
		c-0.827,0-1.5-0.673-1.5-1.5c0-0.828,0.673-1.5,1.5-1.5c0.827,0,1.5,0.672,1.5,1.5C17.5,20.827,16.827,21.5,16,21.5z M16,17.5
		c-0.827,0-1.5-0.673-1.5-1.5c0-0.828,0.673-1.5,1.5-1.5c0.827,0,1.5,0.672,1.5,1.5C17.5,16.827,16.827,17.5,16,17.5z"/>
</g>
<g id="invisible_shape">
	<rect fill="none" width="24" height="24"/>
</g>
</svg>
