<?xml version="1.0" encoding="utf-8"?>
<!-- Generator: Adobe Illustrator 19.2.0, SVG Export Plug-In . SVG Version: 6.00 Build 0)  -->
<svg version="1.1" xmlns="http://www.w3.org/2000/svg" xmlns:xlink="http://www.w3.org/1999/xlink" x="0px" y="0px" width="24px"
	 height="24px" viewBox="0 0 24 24" enable-background="new 0 0 24 24" xml:space="preserve">
<g id="Filled_Icons">
	<path d="M20.5,5.006H17V4c0-1.654-1.346-3-3-3h-4C8.346,1,7,2.346,7,4v1.006H3.5c-1.93,0-3.5,1.571-3.5,3.5v10
		c0,1.929,1.57,3.5,3.5,3.494h17c1.93,0.006,3.5-1.565,3.5-3.494v-10C24,6.577,22.43,5.006,20.5,5.006z M9,4c0-0.551,0.448-1,1-1h4
		c0.552,0,1,0.449,1,1v1.006H9V4z M17.5,14h2.316c-0.413,1.163-1.512,2-2.816,2s-2.403-0.837-2.816-2H9.816
		C9.403,15.163,8.305,16,7,16s-2.403-1-2.816-2H6.5l1.203-0.969L6.5,12H4.184C4.597,11,5.695,10,7,10s2.403,0.836,2.816,2h4.367
		c0.413-1.164,1.512-2,2.816-2s2.403,0.836,2.816,2H17.5l-1.203,1.031L17.5,14z"/>
</g>
<g id="invisible_shape">
	<rect fill="none" width="24" height="24"/>
</g>
</svg>
