<?xml version="1.0" encoding="utf-8"?>
<!-- Generator: Adobe Illustrator 19.2.0, SVG Export Plug-In . SVG Version: 6.00 Build 0)  -->
<svg version="1.1" xmlns="http://www.w3.org/2000/svg" xmlns:xlink="http://www.w3.org/1999/xlink" x="0px" y="0px" width="24px"
	 height="24px" viewBox="0 0 24 24" enable-background="new 0 0 24 24" xml:space="preserve">
<g id="Filled_Icons">
	<path d="M18.922,23.239l-3.455-8.887c-0.222-0.821-0.921-1.35-1.79-1.35c-0.565,0-1.127,0.236-1.54,0.65l-1.396,1.397l-1.578-1.581
		l4.596-4.595c0.094-0.093,0.146-0.221,0.146-0.353c0-0.133-0.053-0.259-0.146-0.354l-1.818-1.818
		c0.179-0.304,0.284-0.654,0.284-1.01c0-0.525-0.214-1.041-0.586-1.414l-2.829-2.83C8.053,0.34,6.736,0.34,5.981,1.096
		C5.608,1.467,5.394,1.984,5.394,2.509c0,0.535,0.208,1.037,0.586,1.415L8.81,6.752c0.378,0.378,0.88,0.586,1.414,0.586
		c0.362,0,0.706-0.101,1.01-0.281l1.464,1.463l-4.596,4.597c-0.195,0.194-0.195,0.511,0,0.706l1.932,1.934l-1.398,1.396
		c-0.548,0.549-0.77,1.336-0.576,2.05c0.172,0.635,0.635,1.1,1.273,1.278l8.976,3.492c0.059,0.022,0.12,0.033,0.182,0.033
		c0.003,0,0.006,0,0.01,0c0.276,0,0.5-0.225,0.5-0.5C19,23.409,18.972,23.316,18.922,23.239z"/>
</g>
<g id="invisible_shape">
	<rect fill="none" width="24" height="24"/>
</g>
</svg>
