<?xml version="1.0" encoding="utf-8"?>
<!-- Generator: Adobe Illustrator 19.2.0, SVG Export Plug-In . SVG Version: 6.00 Build 0)  -->
<svg version="1.1" xmlns="http://www.w3.org/2000/svg" xmlns:xlink="http://www.w3.org/1999/xlink" x="0px" y="0px" width="24px"
	 height="24px" viewBox="0 0 24 24" enable-background="new 0 0 24 24" xml:space="preserve">
<g id="Filled_Icons">
	<g>
		<g>
			<path d="M11.969,5.126c1.377,0,2.697,0.412,3.827,1.175c0.072-0.201,0.18-0.391,0.34-0.551c0.111-0.112,0.409-0.332,1.155-0.564
				c0.084-0.027,0.179-0.082,0.252-0.148l0.007,0.007l3.396-3.398c0.109-0.108,0.162-0.263,0.143-0.416
				c-0.02-0.153-0.108-0.29-0.242-0.367c-2.512-1.483-5.886-1.009-8.023,1.128c-0.893,0.892-1.547,2.06-1.847,3.212
				C11.305,5.158,11.635,5.126,11.969,5.126z"/>
			<path d="M23.145,3.16c-0.078-0.134-0.214-0.223-0.368-0.242C22.625,2.9,22.47,2.952,22.36,3.06l-3.396,3.397
				c-0.062,0.06-0.105,0.136-0.129,0.22c-0.061,0.22-0.297,0.913-0.578,1.193c-0.16,0.162-0.351,0.268-0.552,0.341
				c0.803,1.184,1.216,2.575,1.174,4.028c-0.008,0.265-0.034,0.528-0.071,0.789c1.15-0.299,2.318-0.955,3.209-1.846
				C24.153,9.046,24.627,5.673,23.145,3.16z"/>
		</g>
		<g>
			<path d="M12.521,10.778l3.244-3.243c-1.071-0.91-2.4-1.41-3.797-1.41c-1.659,0-3.252,0.679-4.484,1.912l-6.551,6.551
				c-0.195,0.195-0.195,0.512,0,0.708c0.433,0.432,0.956,0.65,1.556,0.65c1.47,0,3.128-1.313,4.884-2.703
				c1.617-1.282,3.29-2.607,4.532-2.607C12.133,10.637,12.334,10.686,12.521,10.778z"/>
			<path d="M16.472,8.243l-3.247,3.246c0.553,1.166-0.685,2.896-2.459,5.137c-1.847,2.334-3.756,4.747-2.054,6.449
				c0.094,0.093,0.221,0.146,0.354,0.146s0.26-0.053,0.353-0.146l6.551-6.551c1.185-1.185,1.863-2.717,1.909-4.311
				C17.922,10.75,17.423,9.358,16.472,8.243z"/>
		</g>
	</g>
</g>
<g id="invisible_shape">
	<rect fill="none" width="24" height="24"/>
</g>
</svg>
