<?xml version="1.0" encoding="utf-8"?>
<!-- Generator: Adobe Illustrator 19.2.0, SVG Export Plug-In . SVG Version: 6.00 Build 0)  -->
<svg version="1.1" xmlns="http://www.w3.org/2000/svg" xmlns:xlink="http://www.w3.org/1999/xlink" x="0px" y="0px" width="24px"
	 height="24px" viewBox="0 0 24 24" enable-background="new 0 0 24 24" xml:space="preserve">
<g id="Filled_Icons">
	<g>
		<path d="M4.842,13.411l-3.394,3.395c-0.979,0.976-0.977,2.559,0,3.535l2.927,2.927c1.088,1.09,2.902,0.944,3.802-0.314
			l2.163-3.029c0.173-0.242,0.035-0.728-0.007-1.022L4.842,13.411z M7.533,19.891l-1.06,1.768c-0.141,0.235-0.447,0.314-0.686,0.171
			c-0.237-0.142-0.314-0.449-0.172-0.686l0.859-1.433L4.63,17.867l-1.061,1.06c-0.195,0.195-0.512,0.195-0.707,0
			c-0.195-0.195-0.195-0.512,0-0.707l1.414-1.414c0.195-0.195,0.512-0.195,0.707,0l2.475,2.475
			C7.62,19.442,7.651,19.694,7.533,19.891z"/>
		<path d="M22.157,5.394l-0.786-2.524c-0.024-0.079-0.066-0.148-0.124-0.206l-2.476-2.475c-0.195-0.195-0.512-0.195-0.707,0
			L5.549,12.704l4.955,4.955h1.904c0.276,0,0.5-0.224,0.5-0.5v-3.088l2.737-0.304c0.274-0.031,0.472-0.278,0.441-0.552l-0.299-2.685
			l2.686-0.298c0.253-0.028,0.444-0.242,0.444-0.497V6.608l2.86-0.576C22.069,5.974,22.244,5.674,22.157,5.394z"/>
	</g>
</g>
<g id="invisible_shape">
	<rect fill="none" width="24" height="24"/>
</g>
</svg>
