<?xml version="1.0" encoding="utf-8"?>
<!-- Generator: Adobe Illustrator 19.2.0, SVG Export Plug-In . SVG Version: 6.00 Build 0)  -->
<svg version="1.1" xmlns="http://www.w3.org/2000/svg" xmlns:xlink="http://www.w3.org/1999/xlink" x="0px" y="0px" width="24px"
	 height="24px" viewBox="0 0 24 24" enable-background="new 0 0 24 24" xml:space="preserve">
<g id="Filled_Icons">
	<g>
		<path d="M7.5,5.006h-3c-0.276,0-0.5,0.223-0.5,0.5V8H0.5C0.224,7.998,0,8.223,0,8.498c0,0.278,0.224,0.5,0.5,0.5H4v1.508
			c0,0.275,0.224,0.5,0.5,0.494h3C7.775,11.006,8,10.782,8,10.506v-5C8,5.229,7.775,5.006,7.5,5.006z"/>
		<path d="M24,8c0-2.757-2.243-5-5-5h-8C9.898,3,9,3.897,9,5l0.046,6c0.212,1.136,1.207,2,2.403,2H13v1.5c0,0.276,0.224,0.5,0.5,0.5
			h2.043l1.334,6H14.5c-0.276,0-0.5,0.224-0.5,0.5s0.224,0.5,0.5,0.5h3h1h2c0.007,0,0.015,0,0.02,0c0.276,0,0.5-0.224,0.5-0.5
			c0-0.087-0.022-0.169-0.061-0.239l-1.838-8.272C21.82,12.922,24,10.715,24,8z M14,14v-1h1.099l0.223,1H14z"/>
	</g>
</g>
<g id="invisible_shape">
	<rect fill="none" width="24" height="24"/>
</g>
</svg>
