<?xml version="1.0" encoding="utf-8"?>
<!-- Generator: Adobe Illustrator 19.2.0, SVG Export Plug-In . SVG Version: 6.00 Build 0)  -->
<svg version="1.1" xmlns="http://www.w3.org/2000/svg" xmlns:xlink="http://www.w3.org/1999/xlink" x="0px" y="0px" width="24px"
	 height="24px" viewBox="0 0 24 24" enable-background="new 0 0 24 24" xml:space="preserve">
<g id="Filled_Icons">
	<g>
		<path d="M21.5,4.006H13V3h0.5C14.327,3,15,2.333,15,1.506c0-0.828-0.673-1.5-1.5-1.5h-6c-0.827,0-1.5,0.672-1.5,1.5
			C6,2.333,6.673,3,7.5,3H8v1.006H5.531c-0.276,0-0.5,0.223-0.5,0.5c0,0.276,0.224,0.5,0.5,0.494H21v12.006H5.531
			c-0.276,0-0.5,0.223-0.5,0.5c0,0.276,0.224,0.5,0.5,0.494H8v1.006H7.5c-0.827,0-1.5,0.672-1.5,1.5c0,0.827,0.673,1.5,1.5,1.494h6
			c0.827,0.006,1.5-0.667,1.5-1.494c0-0.828-0.673-1.5-1.5-1.5H13V18h8v5.537C21,23.814,21.224,24,21.5,24s0.5-0.186,0.5-0.463
			V4.506C22,4.229,21.776,4.006,21.5,4.006z M9,3h3v1.006H9V3z M12,19.006H9V18h3V19.006z"/>
		<path d="M3.5,10h13c0.276,0.006,0.5-0.217,0.5-0.494v-3c0-0.277-0.224-0.5-0.5-0.5h-13c-0.276,0-0.5,0.223-0.5,0.5v3
			C3,9.783,3.224,10.006,3.5,10z"/>
		<path d="M17,15.506v-3c0-0.277-0.224-0.5-0.5-0.5h-13c-0.276,0-0.5,0.223-0.5,0.5v3c0,0.276,0.224,0.5,0.5,0.494h13
			C16.776,16.006,17,15.783,17,15.506z"/>
	</g>
</g>
<g id="invisible_shape">
	<rect fill="none" width="24" height="24"/>
</g>
</svg>
