<?xml version="1.0" encoding="utf-8"?>
<!-- Generator: Adobe Illustrator 19.2.0, SVG Export Plug-In . SVG Version: 6.00 Build 0)  -->
<svg version="1.1" xmlns="http://www.w3.org/2000/svg" xmlns:xlink="http://www.w3.org/1999/xlink" x="0px" y="0px" width="24px"
	 height="24px" viewBox="0 0 24 24" enable-background="new 0 0 24 24" xml:space="preserve">
<g id="Filled_Icons">
	<g>
		<path d="M7.236,8.278c0.535,0.535,1.284,0.819,2.132,0.696c0.077-0.529,0.313-1.019,0.697-1.403l3.182-3.182
			c0.309-0.31,0.684-0.51,1.078-0.623c0.026-0.74-0.248-1.375-0.725-1.852l-1.768-1.768c-0.195-0.195-0.512-0.195-0.707,0
			L5.469,5.803c-0.195,0.195-0.195,0.512,0,0.708L7.236,8.278z"/>
		<path d="M18.555,10.396l0.35-0.35c0.584-0.585,0.584-1.536,0-2.121l-2.829-2.829c-0.584-0.585-1.537-0.585-2.121,0l-3.182,3.182
			c-0.586,0.586-0.586,1.536,0,2.121l2.828,2.828c0.584,0.585,1.537,0.585,2.121,0L18.555,10.396z"/>
		<path d="M23.854,12.168l-1.768-1.769c-0.509-0.509-1.184-0.746-1.852-0.723c-0.112,0.393-0.313,0.767-0.622,1.076l-3.183,3.183
			c-0.394,0.394-0.89,0.621-1.404,0.696c-0.017,0.121-0.035,0.241-0.035,0.364c0,0.668,0.26,1.296,0.732,1.768l1.768,1.768
			c0.195,0.195,0.512,0.195,0.707,0l5.657-5.657C24.049,12.679,24.049,12.363,23.854,12.168z"/>
		<path d="M19.929,7.607l1.097-1.096c0.195-0.196,0.195-0.512,0-0.708L18.55,3.329c-0.195-0.196-0.512-0.196-0.707,0l-1.061,1.06
			l2.829,2.829C19.732,7.339,19.838,7.469,19.929,7.607z"/>
		<path d="M10.065,11.106L0.52,20.652c-0.195,0.195-0.195,0.512,0,0.707l2.475,2.475c0.195,0.195,0.512,0.196,0.707,0l9.547-9.545
			L10.065,11.106z"/>
	</g>
</g>
<g id="invisible_shape">
	<rect fill="none" width="24" height="24"/>
</g>
</svg>
