<?xml version="1.0" encoding="utf-8"?>
<!-- Generator: Adobe Illustrator 19.2.0, SVG Export Plug-In . SVG Version: 6.00 Build 0)  -->
<svg version="1.1" xmlns="http://www.w3.org/2000/svg" xmlns:xlink="http://www.w3.org/1999/xlink" x="0px" y="0px" width="24px"
	 height="24px" viewBox="0 0 24 24" enable-background="new 0 0 24 24" xml:space="preserve">
<g id="Filled_Icons">
	<path d="M23.5,23h-3.622l-6.42-22.637C13.396,0.148,13.2,0,12.977,0H11c-0.224,0-0.421,0.148-0.481,0.363L4.121,23H0.5
		C0.224,23,0,23.223,0,23.5C0,23.775,0.224,24,0.5,24h23c0.276,0,0.5-0.225,0.5-0.5C24,23.223,23.776,23,23.5,23z M9.961,6h4.063
		l0.82,3H9.152L9.961,6z M6.582,18l0.844-3h9.12l0.867,3H6.582z"/>
</g>
<g id="invisible_shape">
	<rect fill="none" width="24" height="24"/>
</g>
</svg>
