<?xml version="1.0" encoding="utf-8"?>
<!-- Generator: Adobe Illustrator 19.2.1, SVG Export Plug-In . SVG Version: 6.00 Build 0)  -->
<svg version="1.1" xmlns="http://www.w3.org/2000/svg" xmlns:xlink="http://www.w3.org/1999/xlink" x="0px" y="0px" width="24px"
	 height="24px" viewBox="0 0 24 24" enable-background="new 0 0 24 24" xml:space="preserve">
<g id="Filled_Icons_1_">
	<g id="Filled_Icons">
	</g>
	<g id="New_icons">
		<g>
			<g>
				<path d="M10,8.5C9.149,8.491,8.5,8.621,8.5,9.502c0,0.275,0.224,0.5,0.5,0.5c0.273,0,0.495-0.22,0.5-0.491
					c0.095-0.012,0.906-0.012,1,0c0.004,0.271,0.227,0.491,0.5,0.491c0.276,0,0.5-0.225,0.5-0.5C11.5,8.616,10.849,8.496,10,8.5z"/>
				<path d="M14,8.5c-0.851-0.009-1.5,0.121-1.5,1.002c0,0.275,0.224,0.5,0.5,0.5c0.273,0,0.495-0.22,0.5-0.491
					c0.095-0.012,0.906-0.012,1,0c0.004,0.271,0.227,0.491,0.5,0.491c0.276,0,0.5-0.225,0.5-0.5C15.5,8.616,14.849,8.496,14,8.5z"/>
			</g>
			<path d="M22.528,17.004l-0.425,0.956C22.679,18.494,23,19.211,23,20.244V23h-3.136l-0.445,1H23.5c0.276,0,0.5-0.224,0.5-0.5
				v-3.256C24,18.709,23.431,17.699,22.528,17.004z"/>
			<path d="M19.519,16.355c-0.519-0.326-0.903-0.68-1.188-1.045l-4.759,7.933C13.371,23.576,13.613,24,14,24h4
				c0.198,0,0.376-0.116,0.457-0.297l2.966-6.672C20.809,16.983,20.17,16.764,19.519,16.355z"/>
			<path d="M23.153,9.64c-0.699,0.673-1.543,1.108-2.288,1.491c-0.81,0.417-1.51,0.777-1.872,1.355
				c-0.664,1.061-0.269,2.19,1.057,3.022c1.185,0.741,2.44,0.813,3.181-0.368c0.362-0.579,0.381-1.365,0.402-2.276
				c0.019-0.838,0.042-1.787,0.342-2.71C24.137,9.658,23.523,9.281,23.153,9.64z"/>
			<path d="M20.461,5.031c-0.479-0.959-2.091-3.05-6.766-2.61C13.939,1.773,14.375,1,15,1c0.276,0,0.5-0.224,0.5-0.5S15.276,0,15,0
				c-1.25,0-1.924,1.217-2.245,2.076C11.804,1.282,9.738,0,6.25,0C4.068,0,2.46,2.172,3.257,4.636
				c0.3,0.929,0.982,1.651,1.845,2.042l0.401,2.506C5.421,9.43,5.375,9.704,5.375,10c0,0.951,0.46,1.688,1.146,1.922
				c0.127,1.308,0.838,2.407,1.732,3.248C4.148,15.749,0,16.059,0,20.244V23.5C0,23.776,0.224,24,0.5,24h12.099
				c-0.149-0.418-0.118-0.884,0.115-1.271L13.751,21H9.5C8.673,21,8,20.327,8,19.5v-3.282c0.448-0.062,0.897-0.124,1.345-0.197
				C10.327,16.651,11.344,17,12,17c0.656,0,1.673-0.349,2.655-0.979c0.448,0.073,0.896,0.136,1.345,0.197v1.034l1.128-1.88
				c-0.158-0.023-1.077-0.159-1.381-0.202c0.894-0.841,1.605-1.94,1.732-3.248c0.686-0.234,1.146-0.971,1.146-1.922
				c0-0.463-0.115-0.87-0.306-1.198C20.431,8.523,21.452,7.012,20.461,5.031z M5,23H1v-2.756c0-2.262,1.477-3.062,4-3.559V23z
				 M17,11c-0.276,0-0.5,0.224-0.5,0.5c0,2.6-3.158,4.5-4.5,4.5s-4.5-1.9-4.5-4.5C7.5,11.224,7.276,11,7,11
				c-0.494,0-0.625-0.654-0.625-1S6.506,9,7,9c0.276,0,0.5-0.224,0.5-0.5S7.276,8,7,8C6.765,8,6.546,8.053,6.35,8.149L6.161,6.968
				C6.297,6.983,6.433,7,6.572,7h4.32c-1.23-1.086-2.315-2.484-2.808-3.223c-0.153-0.229-0.091-0.54,0.139-0.693
				c0.228-0.153,0.54-0.092,0.693,0.139c0.702,1.053,2.26,2.939,3.677,3.822c0.001,0,0.001,0.002,0.002,0.002
				c1.254,0.811,2.641,1.421,3.958,1.669C16.634,8.883,16.802,9,17,9c0.494,0,0.625,0.654,0.625,1C17.625,10.444,17.446,11,17,11z"
				/>
		</g>
	</g>
</g>
<g id="Invisible_Shape">
	<rect fill="none" width="24" height="24"/>
</g>
</svg>
