<?xml version="1.0" encoding="utf-8"?>
<!-- Generator: Adobe Illustrator 19.2.1, SVG Export Plug-In . SVG Version: 6.00 Build 0)  -->
<svg version="1.1" xmlns="http://www.w3.org/2000/svg" xmlns:xlink="http://www.w3.org/1999/xlink" x="0px" y="0px" width="24px"
	 height="24px" viewBox="0 0 24 24" enable-background="new 0 0 24 24" xml:space="preserve">
<g id="Filled_Icons_1_">
	<g id="Filled_Icons">
		<g>
			<path d="M10,8.501C9.149,8.492,8.5,8.622,8.5,9.503c0,0.275,0.224,0.5,0.5,0.5c0.273,0,0.495-0.22,0.5-0.491
				c0.095-0.012,0.906-0.012,1,0c0.004,0.272,0.227,0.491,0.5,0.491c0.276,0,0.5-0.225,0.5-0.5C11.5,8.617,10.849,8.497,10,8.501z"
				/>
			<path d="M14,8.501c-0.851-0.009-1.5,0.121-1.5,1.002c0,0.275,0.224,0.5,0.5,0.5c0.273,0,0.495-0.22,0.5-0.491
				c0.095-0.012,0.906-0.012,1,0c0.004,0.272,0.227,0.491,0.5,0.491c0.276,0,0.5-0.225,0.5-0.5C15.5,8.617,14.849,8.497,14,8.501z"
				/>
			<path d="M6,16v-0.078l-3.08,0.865C1.173,17.441,0,19.135,0,21l0.001,2.5c0,0.275,0.223,0.499,0.499,0.5h11v-3.52
				C7.482,20.282,6,17.738,6,16z"/>
			<path d="M17,16v-2.463c0.166-0.326,0.328-0.693,0.478-1.602c0.704-0.196,1.257-0.825,1.467-1.713
				c0.193-0.82,0.015-1.57-0.445-1.981c0-2.22-0.015-5.862-0.015-5.862C18.424,2.136,17.725,0,12,0S5.576,2.136,5.515,2.379
				c0,0-0.015,3.643-0.015,5.862c-0.459,0.411-0.638,1.161-0.445,1.981c0.21,0.888,0.763,1.517,1.467,1.713
				c0.15,0.908,0.312,1.275,0.478,1.602V16c0,1.407,1.332,3.5,5,3.5S17,17.407,17,16z M6.5,5.332C7.163,5.08,9.007,4.5,12,4.5
				s4.837,0.58,5.5,0.832v1.399C16.615,6.415,14.904,6,12,6S7.385,6.415,6.5,6.731V5.332z M12,16c-1.342,0-4.5-1.9-4.5-4.5
				C7.5,11.224,7.276,11,7,11c-0.541,0-0.861-0.542-0.971-1.007C5.917,9.518,5.969,8.938,6.5,8.81V7.806C7.055,7.56,8.682,7,12,7
				s4.945,0.56,5.5,0.806V8.81c0.531,0.128,0.583,0.708,0.471,1.184C17.861,10.458,17.541,11,17,11c-0.276,0-0.5,0.224-0.5,0.5
				C16.5,14.1,13.342,16,12,16z"/>
			<path d="M24,21c0-1.865-1.173-3.559-2.958-4.226L18,15.908V16c0,1.738-1.482,4.282-5.5,4.48V24c0,0,11,0,11,0
				c0.276,0,0.5-0.224,0.5-0.5C24.001,23.498,24,21,24,21z M14.5,22.5c-0.551,0-1-0.448-1-1c0-0.551,0.449-1,1-1s1,0.449,1,1
				C15.5,22.052,15.051,22.5,14.5,22.5z"/>
		</g>
	</g>
	<g id="New_icons">
	</g>
</g>
<g id="Invisible_Shape">
	<rect fill="none" width="24" height="24"/>
</g>
</svg>
