<?xml version="1.0" encoding="utf-8"?>
<!-- Generator: Adobe Illustrator 19.2.1, SVG Export Plug-In . SVG Version: 6.00 Build 0)  -->
<svg version="1.1" xmlns="http://www.w3.org/2000/svg" xmlns:xlink="http://www.w3.org/1999/xlink" x="0px" y="0px" width="24px"
	 height="24px" viewBox="0 0 24 24" enable-background="new 0 0 24 24" xml:space="preserve">
<g id="Filled_Icons_1_">
	<g id="Filled_Icons">
		<g>
			<path d="M21.038,16.773l-5.402-1.495c0.948-0.852,1.712-1.993,1.844-3.356c0.686-0.234,1.146-0.971,1.146-1.922
				c0-0.318-0.056-0.608-0.15-0.868l0.523-3.582C19.102,0.833,14.616,0,12,0S4.901,0.854,5.005,5.571l0.52,3.559
				C5.431,9.39,5.375,9.682,5.375,10c0,0.951,0.46,1.688,1.146,1.922c0.134,1.376,0.911,2.524,1.872,3.381L2.92,16.787
				C1.173,17.441,0,19.135,0,21v2.5C0,23.776,0.224,24,0.5,24h8.135l2.551-4.677C10.489,19.011,10,18.312,10,17.5v-1.102
				C10.761,16.788,11.49,17,12,17s1.24-0.212,2-0.602V17.5c0,0.812-0.489,1.511-1.186,1.823L15.365,24H23.5
				c0.276,0,0.5-0.224,0.5-0.5V21C24,19.135,22.827,17.441,21.038,16.773z M12,16c-1.342,0-4.5-1.9-4.5-4.5
				C7.5,11.225,7.276,11,7,11c-0.494,0-0.625-0.654-0.625-1S6.505,9,7,9c0.238,0,0.444-0.168,0.49-0.401l0.42-2.104
				C10.54,6.425,11.461,5.676,12,4.894c0.539,0.781,1.46,1.53,4.089,1.601l0.42,2.104C16.556,8.832,16.762,9,17,9
				c0.495,0,0.625,0.654,0.625,1s-0.13,1-0.625,1c-0.276,0-0.5,0.225-0.5,0.5C16.5,14.1,13.342,16,12,16z M21,21h-3.5v-1H21V21z"/>
			<path d="M10,8.5C9.149,8.492,8.5,8.621,8.5,9.502c0,0.275,0.224,0.5,0.5,0.5c0.273,0,0.495-0.22,0.5-0.491
				c0.095-0.012,0.906-0.012,1,0c0.004,0.271,0.227,0.491,0.5,0.491c0.276,0,0.5-0.225,0.5-0.5C11.5,8.615,10.849,8.496,10,8.5z"/>
			<path d="M14,8.5c-0.851-0.008-1.5,0.121-1.5,1.002c0,0.275,0.224,0.5,0.5,0.5c0.273,0,0.495-0.22,0.5-0.491
				c0.095-0.012,0.906-0.012,1,0c0.004,0.271,0.227,0.491,0.5,0.491c0.276,0,0.5-0.225,0.5-0.5C15.5,8.615,14.849,8.496,14,8.5z"/>
		</g>
	</g>
	<g id="New_icons">
	</g>
</g>
<g id="Invisible_Shape">
	<rect fill="none" width="24" height="24"/>
</g>
</svg>
