<?xml version="1.0" encoding="utf-8"?>
<!-- Generator: Adobe Illustrator 19.2.1, SVG Export Plug-In . SVG Version: 6.00 Build 0)  -->
<svg version="1.1" xmlns="http://www.w3.org/2000/svg" xmlns:xlink="http://www.w3.org/1999/xlink" x="0px" y="0px" width="24px"
	 height="24px" viewBox="0 0 24 24" enable-background="new 0 0 24 24" xml:space="preserve">
<g id="Filled_Icons_1_">
	<g id="Filled_Icons">
		<path d="M22.855,18.666c-0.722-1.084-2.699-1.854-6.134-3.15c-0.737-0.938-1.721-1.366-1.721-1.366v-1.461
			c0.44-0.374,1.376-1.353,1.487-2.939c0.808-0.764,0.748-2.433,0.094-3c0.521-1.385,1.189-2.997,0.907-4.409
			c-0.347-1.73-2.804-2.345-4.804-2.345c-1.551,0-3.436,0.391-4.029,1.461C8.059,1.523,7.598,1.77,7.283,2.194
			C6.415,3.366,7.008,5.165,7.435,6.731C6.78,7.299,6.702,8.986,7.51,9.75c0.111,1.588,1.05,2.561,1.489,2.934H9v1.466
			c0,0-0.983,0.429-1.721,1.366c-3.435,1.297-5.412,2.066-6.134,3.15C0.077,20.269,0.003,23.38,0,23.511C0,23.787,0.224,24,0.5,24
			h23c0.276,0,0.5-0.224,0.5-0.5C23.997,23.369,23.924,20.269,22.855,18.666z M13,17.5V18c0,0.551-0.449,1-1,1s-1-0.449-1-1v-0.5
			l1-0.5L13,17.5z M8.999,15.291c-0.036,0.659,1.094,1.156,1.716,1.371l-3.782,2.186C7.436,17.349,7.672,16.057,8.999,15.291z
			 M10,23.5c0.347-1.502,1.302-3.5,2-3.5s1.653,1.998,2,3.5H10z M13.285,16.662c0.622-0.215,1.751-0.712,1.716-1.371
			c1.326,0.766,1.562,2.056,2.066,3.557L13.285,16.662z"/>
	</g>
	<g id="New_icons">
	</g>
</g>
<g id="Invisible_Shape">
	<rect fill="none" width="24" height="24"/>
</g>
</svg>
