<?xml version="1.0" encoding="utf-8"?>
<!-- Generator: Adobe Illustrator 19.2.1, SVG Export Plug-In . SVG Version: 6.00 Build 0)  -->
<svg version="1.1" xmlns="http://www.w3.org/2000/svg" xmlns:xlink="http://www.w3.org/1999/xlink" x="0px" y="0px" width="24px"
	 height="24px" viewBox="0 0 24 24" enable-background="new 0 0 24 24" xml:space="preserve">
<g id="Filled_Icons_1_">
	<g id="Filled_Icons">
		<g>
			<path d="M11.5,16h1c0.276,0,0.5-0.224,0.5-0.5c0-0.275-0.224-0.5-0.5-0.5h-1c-0.276,0-0.5,0.225-0.5,0.5
				C11,15.776,11.224,16,11.5,16z"/>
			<path d="M17.786,4.955l-2.339-4.679c-0.134-0.268-0.474-0.358-0.725-0.192L12,1.899L9.277,0.084
				C9.031-0.08,8.689,0.006,8.553,0.276l-2.31,4.62C10.682,6.353,13.336,6.32,17.786,4.955z"/>
			<path d="M18.083,20.007L20.44,20.4c-0.125-1.328-0.392-4.376-0.434-6.4h-0.528c-0.302,3.252-3.487,6.073-6.466,7.883
				C14.386,22.592,15.536,23,16,23h0.005h0.005h2.681l-1.138-2.276C17.372,20.361,17.676,19.941,18.083,20.007z"/>
			<path d="M4.523,14H3.995c-0.042,2.024-0.31,5.072-0.434,6.4l2.357-0.394c0.403-0.067,0.711,0.353,0.53,0.717L5.309,23h7.738
				C9.697,21.399,4.898,18.028,4.523,14z"/>
			<path d="M22.243,7.563l-3.504-1.947c-4.899,1.813-8.57,1.816-13.478,0L1.757,7.563C1.358,7.784,1.442,8.389,1.892,8.488
				C1.916,8.494,3.324,8.801,5.5,9.076v0.665c-0.459,0.411-0.638,1.161-0.445,1.981c0.21,0.888,0.763,1.517,1.467,1.713
				c0.067,0.666,0.291,1.275,0.607,1.828C6.709,15.3,6.3,15.356,5.915,15.424C6.926,17.826,9.619,19.947,12,21.33
				c2.381-1.383,5.074-3.504,6.085-5.906c-0.385-0.068-0.795-0.124-1.214-0.16c0.316-0.553,0.54-1.162,0.607-1.828
				c0.704-0.196,1.257-0.825,1.467-1.713c0.193-0.82,0.015-1.57-0.445-1.981V9.076c2.176-0.275,3.583-0.582,3.608-0.588
				C22.558,8.389,22.642,7.784,22.243,7.563z M17.971,11.493C17.861,11.958,17.541,12.5,17,12.5c-0.276,0-0.5,0.224-0.5,0.5
				c0,2.6-3.158,4.5-4.5,4.5S7.5,15.6,7.5,13c0-0.276-0.224-0.5-0.5-0.5c-0.541,0-0.861-0.542-0.971-1.007
				c-0.112-0.476-0.06-1.056,0.471-1.184V9.193C6.975,9.244,7.476,9.292,8,9.334V10c0,0.553,0.448,1,1,1h1c0.552,0,1-0.447,1-1
				V9.489c0.165,0.003,1.835,0.003,2,0V10c0,0.553,0.448,1,1,1h1c0.552,0,1-0.447,1-1V9.334c0.524-0.042,1.025-0.09,1.5-0.141v1.116
				C18.031,10.438,18.083,11.018,17.971,11.493z"/>
			<path d="M4.053,23.276l1.061-2.122l-2.031,0.339c-0.322,0.055-0.613-0.214-0.58-0.543c0.003-0.034,0.238-2.391,0.384-4.654
				C1.81,16.83,0,17.815,0,20.246V23.5C0,23.776,0.224,24,0.5,24h4C4.126,24,3.888,23.607,4.053,23.276z"/>
			<path d="M21.114,16.296c0.129,2.007,0.396,4.653,0.396,4.704c0,0.278-0.227,0.491-0.505,0.5
				c-0.028,0.002-2.119-0.346-2.119-0.346l1.061,2.122C20.112,23.606,19.874,24,19.5,24h4c0.276,0,0.5-0.224,0.5-0.5v-3.254
				C24,17.815,22.19,16.83,21.114,16.296z"/>
		</g>
	</g>
	<g id="New_icons">
	</g>
</g>
<g id="Invisible_Shape">
	<rect fill="none" width="24" height="24"/>
</g>
</svg>
