<?xml version="1.0" encoding="utf-8"?>
<!-- Generator: Adobe Illustrator 19.2.1, SVG Export Plug-In . SVG Version: 6.00 Build 0)  -->
<svg version="1.1" xmlns="http://www.w3.org/2000/svg" xmlns:xlink="http://www.w3.org/1999/xlink" x="0px" y="0px" width="24px"
	 height="24px" viewBox="0 0 24 24" enable-background="new 0 0 24 24" xml:space="preserve">
<g id="Filled_Icons_1_">
	<g id="Filled_Icons">
		<g>
			<g>
				<path d="M10,8.501C9.149,8.492,8.5,8.622,8.5,9.503c0,0.275,0.224,0.5,0.5,0.5c0.273,0,0.495-0.22,0.5-0.491
					c0.095-0.012,0.906-0.012,1,0c0.004,0.272,0.227,0.491,0.5,0.491c0.276,0,0.5-0.225,0.5-0.5C11.5,8.617,10.849,8.497,10,8.501z"
					/>
				<path d="M14,8.501c-0.851-0.009-1.5,0.121-1.5,1.002c0,0.275,0.224,0.5,0.5,0.5c0.273,0,0.495-0.22,0.5-0.491
					c0.095-0.012,0.906-0.012,1,0c0.004,0.272,0.227,0.491,0.5,0.491c0.276,0,0.5-0.225,0.5-0.5C15.5,8.617,14.849,8.497,14,8.501z"
					/>
			</g>
			<g>
				<circle cx="7.501" cy="20" r="1"/>
				<path d="M17.513,15.421l-0.009,1.591C18.855,17.071,20,17.428,20,18.971v1.601C20,21.293,19.257,22,18.5,22
					c-0.276,0-0.5-0.224-0.5-0.5s0.224-0.5,0.5-0.5c0.23,0,0.5-0.283,0.5-0.429v-1.601C19,18.494,19,18,17,18s-2,0.494-2,0.971
					v1.601C15,20.717,15.271,21,15.5,21c0.276,0,0.5,0.224,0.5,0.5S15.777,22,15.5,22c-0.757,0-1.5-0.707-1.5-1.429v-1.601
					c0-1.545,1.149-1.9,2.503-1.959l0.01-1.731c-0.254-0.036-0.51-0.075-0.765-0.112c0.894-0.84,1.604-1.939,1.731-3.246
					c0.686-0.234,1.145-0.971,1.145-1.922c0-0.318-0.056-0.608-0.15-0.868l0.523-3.582C19.102,0.833,14.616,0,12,0
					S4.901,0.854,5.005,5.571l0.52,3.559C5.431,9.39,5.375,9.682,5.375,10c0,0.951,0.46,1.688,1.146,1.922
					c0.127,1.304,0.834,2.4,1.725,3.24C8.164,15.174,8.083,15.186,8,15.198v2.873C8.861,18.295,9.5,19.07,9.5,20
					c0,1.103-0.897,2-2,2s-2-0.897-2-2c0-0.93,0.64-1.705,1.499-1.929v-2.729c-3.492,0.477-6.999,1.059-6.999,4.902V23.5
					c0,0.276,0.224,0.5,0.5,0.5H11v-6.5c0-0.276,0.224-0.5,0.5-0.5c0.276,0,0.5,0.224,0.5,0.5V24h11.5c0.276,0,0.5-0.224,0.5-0.5
					v-3.255C24,16.575,20.945,15.905,17.513,15.421z M7.501,11.5c0-0.276-0.224-0.5-0.5-0.5c-0.494,0-0.626-0.654-0.626-1
					S6.505,9,7,9c0.238,0,0.444-0.168,0.49-0.401l0.42-2.104C10.54,6.425,11.461,5.676,12,4.894c0.539,0.781,1.46,1.53,4.089,1.601
					l0.42,2.104C16.556,8.832,16.762,9,17,9c0.495,0,0.625,0.654,0.625,1s-0.13,1-0.625,1c-0.276,0-0.5,0.224-0.5,0.5
					c0,2.6-3.158,4.5-4.5,4.5S7.501,14.1,7.501,11.5z"/>
			</g>
		</g>
	</g>
	<g id="New_icons">
	</g>
</g>
<g id="Invisible_Shape">
	<rect fill="none" width="24" height="24"/>
</g>
</svg>
