<?xml version="1.0" encoding="utf-8"?>
<!-- Generator: Adobe Illustrator 19.2.1, SVG Export Plug-In . SVG Version: 6.00 Build 0)  -->
<svg version="1.1" xmlns="http://www.w3.org/2000/svg" xmlns:xlink="http://www.w3.org/1999/xlink" x="0px" y="0px" width="24px"
	 height="24px" viewBox="0 0 24 24" enable-background="new 0 0 24 24" xml:space="preserve">
<g id="Filled_Icons_1_">
	<g id="Filled_Icons">
	</g>
	<g id="New_icons">
		<g>
			<g>
				<path d="M10,8.5C9.149,8.492,8.5,8.621,8.5,9.502c0,0.275,0.224,0.5,0.5,0.5c0.273,0,0.495-0.22,0.5-0.491
					c0.095-0.012,0.906-0.012,1,0c0.004,0.271,0.227,0.491,0.5,0.491c0.276,0,0.5-0.225,0.5-0.5C11.5,8.615,10.849,8.496,10,8.5z"/>
				<path d="M14,8.5c-0.851-0.008-1.5,0.121-1.5,1.002c0,0.275,0.224,0.5,0.5,0.5c0.273,0,0.495-0.22,0.5-0.491
					c0.095-0.012,0.906-0.012,1,0c0.004,0.271,0.227,0.491,0.5,0.491c0.276,0,0.5-0.225,0.5-0.5C15.5,8.615,14.849,8.496,14,8.5z"/>
			</g>
			<path d="M21.038,16.772l-5.384-1.495c0.939-0.855,1.694-1.994,1.826-3.355c0.471-0.161,0.823-0.571,1.005-1.114
				C20.809,10.24,22,9.467,22,8.5c0-3.991-20-3.991-20,0c0,0.967,1.191,1.74,3.515,2.308c0.182,0.543,0.534,0.953,1.005,1.114
				c0.131,1.361,0.886,2.5,1.826,3.355l-5.384,1.495C-0.51,18.071,0,21.502,0,23.5C0,23.776,0.224,24,0.5,24c8.323,0,14.677,0,23,0
				c0.276,0,0.5-0.224,0.5-0.5C24,21.502,24.51,18.071,21.038,16.772z M4.64,23H1v-2c0-3.031,2.901-3.453,4.086-3.781L5.49,20.45
				L4.64,23z M7.5,11.5C7.5,11.224,7.276,11,7,11c-0.494,0-0.625-0.654-0.625-1S6.506,9,7,9c0.276,0,0.5-0.224,0.5-0.5V6.787
				c2.331-0.384,6.665-0.385,9,0V8.5C16.5,8.776,16.724,9,17,9c0.494,0,0.625,0.654,0.625,1S17.494,11,17,11
				c-0.276,0-0.5,0.224-0.5,0.5c0,2.615-3.158,4.527-4.5,4.527S7.5,14.115,7.5,11.5z M15.053,20c-2.209,0-3.896,0-6.105,0
				l-0.416-3.736l0.808-0.225c1.985,1.285,3.316,1.299,5.321,0l0.808,0.225L15.053,20z M23,23h-3.64l-0.85-2.55l0.404-3.231
				C20.099,17.547,23,17.969,23,21V23z"/>
			<path d="M18.427,5.128c-0.95-1.026-1.676-2.203-2.108-3.448C15.97,0.675,15.021,0,13.958,0h-3.915C8.979,0,8.03,0.675,7.681,1.68
				C7.249,2.925,6.523,4.102,5.573,5.128C9.322,4.298,14.681,4.299,18.427,5.128z"/>
		</g>
	</g>
</g>
<g id="Invisible_Shape">
	<rect fill="none" width="24" height="24"/>
</g>
</svg>
