<?xml version="1.0" encoding="utf-8"?>
<!-- Generator: Adobe Illustrator 19.2.1, SVG Export Plug-In . SVG Version: 6.00 Build 0)  -->
<svg version="1.1" xmlns="http://www.w3.org/2000/svg" xmlns:xlink="http://www.w3.org/1999/xlink" x="0px" y="0px" width="24px"
	 height="24px" viewBox="0 0 24 24" enable-background="new 0 0 24 24" xml:space="preserve">
<g id="Filled_Icons_1_">
	<g id="Filled_Icons">
	</g>
	<g id="New_icons">
		<g>
			<g>
				<path d="M10,10c-0.851-0.009-1.5,0.121-1.5,1.002c0,0.275,0.224,0.5,0.5,0.5c0.273,0,0.495-0.22,0.5-0.491
					c0.095-0.012,0.906-0.012,1,0c0.004,0.271,0.227,0.491,0.5,0.491c0.276,0,0.5-0.225,0.5-0.5C11.5,10.116,10.849,9.996,10,10z"/>
				<path d="M14,10c-0.851-0.009-1.5,0.121-1.5,1.002c0,0.275,0.224,0.5,0.5,0.5c0.273,0,0.495-0.22,0.5-0.491
					c0.095-0.012,0.906-0.012,1,0c0.004,0.271,0.227,0.491,0.5,0.491c0.276,0,0.5-0.225,0.5-0.5C15.5,10.116,14.849,9.996,14,10z"/>
			</g>
			<path d="M18.5,17.432V18l-1.108,6H23.5c0.276,0,0.5-0.224,0.5-0.5V23C24,20.17,21.581,18.771,18.5,17.432z"/>
			<path d="M5.5,18v-0.568C2.419,18.771,0,20.17,0,23v0.5C0,23.776,0.224,24,0.5,24h6.108L5.5,18z"/>
			<path d="M15.21,0.093L12,2.386L8.79,0.093C8.458-0.144,8,0.097,8,0.5v5c0,0.404,0.457,0.642,0.79,0.407L12,3.614l3.21,2.293
				C15.539,6.142,16,5.907,16,5.5v-5C16,0.094,15.538-0.142,15.21,0.093z"/>
			<path d="M22.3,14.602c-0.325-0.244-0.567-1.453-0.801-2.622C20.972,9.35,20.031,5.062,17,3.399V5.5
				c0,0.508-0.266,0.968-0.685,1.244c-0.012,0.342,0.088,1.657,2.123,3.046c0.228,0.155,0.287,0.467,0.131,0.695
				c-0.155,0.227-0.467,0.286-0.695,0.131c-2.085-1.423-2.489-2.891-2.547-3.634C14.766,6.938,14.068,6.32,12,4.844
				C9.932,6.32,9.234,6.938,8.673,6.982C8.615,7.726,8.21,9.193,6.126,10.616c-0.228,0.155-0.54,0.097-0.695-0.131
				c-0.156-0.229-0.097-0.54,0.131-0.695c2.036-1.389,2.135-2.704,2.124-3.046C7.266,6.468,7,6.008,7,5.5V3.399
				c-3.031,1.663-3.972,5.95-4.499,8.581c-0.234,1.169-0.477,2.378-0.801,2.622c-0.338,0.253-0.226,0.794,0.191,0.888
				c0.416,0.093,3.807,0.798,5.665-0.298c0.241,0.401,0.508,0.743,0.794,1.028c-0.284,0.122-0.57,0.246-0.851,0.363v0.918
				c0,1.656,2.015,3,4.5,3s4.5-1.344,4.5-3v-0.918c-0.281-0.117-0.566-0.241-0.851-0.363c0.286-0.285,0.554-0.627,0.794-1.028
				c1.858,1.096,5.249,0.391,5.665,0.298C22.526,15.396,22.639,14.856,22.3,14.602z M12.287,16.889
				c-0.101,0.029-0.197,0.059-0.287,0.086c-0.09-0.027-0.186-0.057-0.287-0.086c-1.549-0.461-4.123-1.227-4.211-6.103
				C8.49,10.055,9.216,8.888,9.433,8h5.134c0.217,0.888,0.943,2.055,1.931,2.786C16.41,15.662,13.836,16.428,12.287,16.889z"/>
		</g>
	</g>
</g>
<g id="Invisible_Shape">
	<rect fill="none" width="24" height="24"/>
</g>
</svg>
