<?xml version="1.0" encoding="utf-8"?>
<!-- Generator: Adobe Illustrator 19.2.1, SVG Export Plug-In . SVG Version: 6.00 Build 0)  -->
<svg version="1.1" xmlns="http://www.w3.org/2000/svg" xmlns:xlink="http://www.w3.org/1999/xlink" x="0px" y="0px" width="24px"
	 height="24px" viewBox="0 0 24 24" enable-background="new 0 0 24 24" xml:space="preserve">
<g id="Filled_Icons_1_">
	<g id="Filled_Icons">
		<g>
			<polygon points="13.611,19.097 12.582,20.126 13.835,23.467 14.967,20.259 			"/>
			<path d="M22.97,19.822c-0.414-1.461-2.591-2.27-5.613-3.33L14.707,24H23.5c0.276,0,0.5-0.224,0.5-0.5
				C24,23.435,23.988,21.881,22.97,19.822z M20.5,21.5H18c-0.276,0-0.5-0.224-0.5-0.5c0-0.275,0.224-0.5,0.5-0.5h2.5
				c0.276,0,0.5,0.225,0.5,0.5C21,21.276,20.776,21.5,20.5,21.5z"/>
			<path d="M15.324,19.248l1.09-3.088c-0.31-0.109-0.623-0.222-0.942-0.337l-2.617,1.309L15.324,19.248z"/>
			<polygon points="10.389,19.097 11.418,20.126 10.165,23.467 9.033,20.259 			"/>
			<path d="M0,23.5C0,23.776,0.224,24,0.5,24h8.793l-2.65-7.508c-3.022,1.06-5.199,1.869-5.613,3.33C0.012,21.881,0,23.435,0,23.5z"
				/>
			<path d="M8.676,19.248l-1.09-3.088c0.31-0.109,0.623-0.222,0.942-0.337l2.617,1.309L8.676,19.248z"/>
			<path d="M15,13.244c0.439-0.372,1.378-1.345,1.489-2.933c0.386-0.325,0.588-1.009,0.588-1.542c0-0.47-0.163-0.933-0.578-1.15
				C16.5,7.178,16.279,7,16,7H8C7.721,7,7.5,7.178,7.5,7.619c-0.414,0.218-0.578,0.679-0.578,1.15c0,0.533,0.202,1.217,0.588,1.542
				c0.111,1.588,1.05,2.561,1.489,2.933v1.697l3,1.5l3-1.5V13.244z"/>
			<path d="M16.5,7.619C16.5,7.219,16.276,7,16,7H8C7.724,7,7.5,7.219,7.5,7.619C7.353,7.696,6.922,8,6.922,8.769
				c0,0.533,0.202,1.217,0.588,1.542c0.111,1.588,1.05,2.561,1.489,2.933v1.697l3,1.5l3-1.5v-1.697
				c0.439-0.372,1.378-1.345,1.489-2.933c0.386-0.325,0.588-1.009,0.588-1.542C17.078,8,16.646,7.696,16.5,7.619z"/>
			<path d="M5.5,6h13C18.776,6,19,5.776,19,5.5C19,5.225,18.776,5,18.5,5h-1.65l-1.88-4.671c-0.107-0.295-0.456-0.419-0.727-0.258
				l-1.214,0.727c-0.548,0.33-1.509,0.33-2.058,0L9.757,0.071C9.485-0.09,9.138,0.035,9.03,0.329L7.15,5H5.5C5.224,5,5,5.225,5,5.5
				C5,5.776,5.224,6,5.5,6z"/>
		</g>
	</g>
	<g id="New_icons">
	</g>
</g>
<g id="Invisible_Shape">
	<rect fill="none" width="24" height="24"/>
</g>
</svg>
