<?xml version="1.0" encoding="utf-8"?>
<!-- Generator: Adobe Illustrator 19.2.1, SVG Export Plug-In . SVG Version: 6.00 Build 0)  -->
<svg version="1.1" xmlns="http://www.w3.org/2000/svg" xmlns:xlink="http://www.w3.org/1999/xlink" x="0px" y="0px" width="24px"
	 height="24px" viewBox="0 0 24 24" enable-background="new 0 0 24 24" xml:space="preserve">
<g id="Filled_Icons_1_">
	<g id="Filled_Icons">
		<g>
			<path d="M0.419,2.994L2.5,3.355l0,0v3.092l-1.489,6.948C0.944,13.707,1.182,14,1.5,14h3c0.316,0,0.556-0.291,0.489-0.604
				L3.5,6.447V3.529l0,0C7.596,4.24,3.56,3.54,11.954,5h0.093l11.5-2.003c0.252-0.026,0.447-0.237,0.45-0.491V2.494
				c-0.002-0.24-0.178-0.446-0.415-0.487C12.4,0.062,15.243,0.557,12.09,0.009c-0.056-0.011-0.122-0.01-0.178,0L0.454,2.004
				c-0.252,0.025-0.447,0.237-0.45,0.491v0.011C0.006,2.746,0.182,2.952,0.419,2.994z"/>
			<g>
				<path d="M10,8.501C9.149,8.492,8.5,8.622,8.5,9.503c0,0.275,0.224,0.5,0.5,0.5c0.273,0,0.495-0.22,0.5-0.491
					c0.095-0.012,0.906-0.012,1,0c0.004,0.272,0.227,0.491,0.5,0.491c0.276,0,0.5-0.225,0.5-0.5C11.5,8.617,10.849,8.497,10,8.501z"
					/>
				<path d="M14,8.501c-0.851-0.009-1.5,0.121-1.5,1.002c0,0.275,0.224,0.5,0.5,0.5c0.273,0,0.495-0.22,0.5-0.491
					c0.095-0.012,0.906-0.012,1,0c0.004,0.272,0.227,0.491,0.5,0.491c0.276,0,0.5-0.225,0.5-0.5C15.5,8.617,14.849,8.497,14,8.501z"
					/>
			</g>
			<path d="M12,6c-0.086,0-5.501-0.935-5.501-0.935c0,0.304-0.049,0.593,0.147,0.788C6.713,5.921,8.335,7.5,12,7.5
				c3.665,0,5.286-1.579,5.354-1.647C17.548,5.658,17.5,5.369,17.5,5.065C17.5,5.065,12.086,6,12,6z"/>
			<path d="M21.037,16.773c-6.449-1.78,1.022,0.279-5.405-1.492c0.95-0.854,1.714-1.995,1.847-3.359
				c0.685-0.234,1.146-0.971,1.146-1.922c0-0.941-0.451-1.673-1.125-1.914V7.004c-0.249,0.171-0.579,0.37-1,0.568V8.5
				C16.5,8.776,16.724,9,17,9c0.495,0,0.625,0.654,0.625,1s-0.13,1-0.625,1c-0.276,0-0.5,0.225-0.5,0.5c0,2.6-3.158,4.5-4.5,4.5
				s-4.5-1.9-4.5-4.5C7.5,11.225,7.276,11,7,11c-0.495,0-0.625-0.654-0.625-1S6.505,9,7,9c0.276,0,0.5-0.224,0.5-0.5V7.572
				c-0.421-0.198-0.752-0.398-1-0.568v1.08C5.826,8.325,5.375,9.059,5.375,10c0,0.951,0.46,1.688,1.146,1.922
				c0.133,1.363,0.896,2.504,1.844,3.356c-2.588,0.717-2.856,0.791-5.445,1.509C1.174,17.441,0,19.135,0,21v2.5
				C0,23.776,0.224,24,0.5,24h23c0.276,0,0.5-0.224,0.5-0.5V21C24,19.135,22.827,17.441,21.037,16.773z M12,20.793l-4.288-4.287
				c0.46-0.11,1.1-0.241,1.863-0.342C10.483,16.704,11.395,17,12,17c0.606,0,1.518-0.297,2.427-0.838
				c0.763,0.101,1.404,0.229,1.866,0.338L12,20.793z"/>
		</g>
	</g>
	<g id="New_icons">
	</g>
</g>
<g id="Invisible_Shape">
	<rect fill="none" width="24" height="24"/>
</g>
</svg>
