<?xml version="1.0" encoding="utf-8"?>
<!-- Generator: Adobe Illustrator 19.2.1, SVG Export Plug-In . SVG Version: 6.00 Build 0)  -->
<svg version="1.1" xmlns="http://www.w3.org/2000/svg" xmlns:xlink="http://www.w3.org/1999/xlink" x="0px" y="0px" width="24px"
	 height="24px" viewBox="0 0 24 24" enable-background="new 0 0 24 24" xml:space="preserve">
<g id="Filled_Icons_1_">
	<g id="Filled_Icons">
		<g>
			<g>
				<path d="M10,9.5c-0.851-0.008-1.5,0.121-1.5,1.002c0,0.275,0.224,0.5,0.5,0.5c0.273,0,0.495-0.22,0.5-0.491
					c0.095-0.012,0.906-0.012,1,0c0.004,0.271,0.227,0.491,0.5,0.491c0.276,0,0.5-0.225,0.5-0.5C11.5,9.615,10.849,9.496,10,9.5z"/>
				<path d="M14,9.5c-0.851-0.008-1.5,0.121-1.5,1.002c0,0.275,0.224,0.5,0.5,0.5c0.273,0,0.495-0.22,0.5-0.491
					c0.095-0.012,0.906-0.012,1,0c0.004,0.271,0.227,0.491,0.5,0.491c0.276,0,0.5-0.225,0.5-0.5C15.5,9.615,14.849,9.496,14,9.5z"/>
			</g>
			<circle cx="12" cy="21" r="1"/>
			<path d="M21.08,18.032l-2.875-0.846c-0.006,0.009-4.214,3.631-4.223,3.638C14.078,22.078,13.131,23,12,23
				s-2.078-0.922-1.982-2.176c-0.008-0.007-4.216-3.629-4.223-3.638L2.92,18.032C1.513,18.56,0,20.49,0,23.5
				C0,23.776,0.224,24,0.5,24h23c0.276,0,0.5-0.224,0.5-0.5C24,20.505,22.494,18.562,21.08,18.032z"/>
			<path d="M18.5,9.741V1.5c0-0.396-0.445-0.639-0.777-0.416l-2.659,1.772l-2.71-2.71c-0.195-0.195-0.512-0.195-0.707,0l-2.71,2.71
				L6.277,1.084C5.945,0.861,5.5,1.104,5.5,1.5v8.241c-0.46,0.41-0.638,1.161-0.444,1.981c0.209,0.887,0.762,1.517,1.466,1.713
				c0.124,1.231,0.765,2.275,1.588,3.095l-1.173,0.321l3.453,2.974C10.754,19.327,11.338,19,12,19s1.246,0.327,1.61,0.825
				l3.453-2.974L15.89,16.53c0.823-0.819,1.464-1.864,1.588-3.095c0.705-0.196,1.257-0.826,1.466-1.713
				C19.138,10.902,18.96,10.151,18.5,9.741z M17.971,11.492C17.861,11.957,17.542,12.5,17,12.5c-0.276,0-0.5,0.224-0.5,0.5
				c0,2.6-3.158,4.5-4.5,4.5S7.5,15.6,7.5,13c0-0.276-0.224-0.5-0.5-0.5c-0.542,0-0.861-0.543-0.971-1.008
				c-0.112-0.475-0.027-0.935,0.195-1.045C6.393,10.362,6.5,10.189,6.5,10V9.334c2.889-1.111,8.107-1.113,11,0V10
				c0,0.189,0.107,0.362,0.276,0.447C17.998,10.558,18.083,11.018,17.971,11.492z"/>
		</g>
	</g>
	<g id="New_icons">
	</g>
</g>
<g id="Invisible_Shape">
	<rect fill="none" width="24" height="24"/>
</g>
</svg>
