<?xml version="1.0" encoding="utf-8"?>
<!-- Generator: Adobe Illustrator 19.2.1, SVG Export Plug-In . SVG Version: 6.00 Build 0)  -->
<svg version="1.1" xmlns="http://www.w3.org/2000/svg" xmlns:xlink="http://www.w3.org/1999/xlink" x="0px" y="0px" width="24px"
	 height="24px" viewBox="0 0 24 24" enable-background="new 0 0 24 24" xml:space="preserve">
<g id="Filled_Icons_1_">
	<g id="Filled_Icons">
		<g>
			<path d="M21.3,17.62c-0.476-0.356-1.054-0.555-1.666-0.691L14.762,24H23.5c0.303,0,0.534-0.265,0.496-0.562
				C23.975,23.267,23.445,19.229,21.3,17.62z"/>
			<path d="M4.366,16.929c-0.612,0.137-1.19,0.335-1.666,0.691c-2.145,1.609-2.675,5.646-2.696,5.817C-0.034,23.735,0.197,24,0.5,24
				h8.738L4.366,16.929z"/>
			<path d="M20,11.521c-0.675,0-0.983-2.193-1.231-3.956C18.326,4.417,17.775,0.5,14.805,0.5c-0.818,0-1.738,0.307-2.805,0.936
				C10.933,0.807,10.014,0.5,9.195,0.5c-2.971,0-3.522,3.917-3.964,7.064C4.983,9.327,4.675,11.521,4,11.521
				c-0.418,0-0.652,0.485-0.391,0.812C5.236,14.365,7.584,14.387,9,13.396v1.124c0,1.673-1.125,1.933-3.551,2.219L10.451,24h3.098
				l5.002-7.261C16.125,16.453,15,16.193,15,14.521v-1.124c1.409,0.986,3.759,0.976,5.391-1.063
				C20.652,12.006,20.419,11.521,20,11.521z M7.907,8.954C7.778,8.991,7.646,9.021,7.5,9.021c-0.276,0-0.5-0.224-0.5-0.5
				c0-0.276,0.224-0.5,0.5-0.5c0.585,0,1-1.138,1-1.5c0-0.276,0.224-0.5,0.5-0.5s0.5,0.224,0.5,0.5c0,0.354-0.167,1.006-0.515,1.555
				c-0.386,2.93,0.69,3.456,0.701,3.461c0.245,0.109,0.369,0.398,0.269,0.646c-0.1,0.249-0.371,0.379-0.623,0.288
				C9.16,12.408,7.807,11.824,7.907,8.954z M10,18.021c-0.276,0-0.5-0.224-0.5-0.5s0.224-0.5,0.5-0.5c0.276,0,0.5,0.224,0.5,0.5
				S10.276,18.021,10,18.021z M12,18.521c-0.276,0-0.5-0.224-0.5-0.5s0.224-0.5,0.5-0.5c0.276,0,0.5,0.224,0.5,0.5
				S12.276,18.521,12,18.521z M14,18.021c-0.276,0-0.5-0.224-0.5-0.5s0.224-0.5,0.5-0.5c0.276,0,0.5,0.224,0.5,0.5
				S14.276,18.021,14,18.021z M16.5,9.021c-0.146,0-0.278-0.029-0.407-0.066c0.1,2.87-1.253,3.454-1.425,3.517
				c-0.252,0.091-0.524-0.039-0.623-0.288c-0.101-0.249,0.024-0.537,0.269-0.646c0.011-0.005,1.087-0.531,0.701-3.461
				c-0.348-0.549-0.515-1.2-0.515-1.555c0-0.276,0.224-0.5,0.5-0.5s0.5,0.224,0.5,0.5c0,0.362,0.415,1.5,1,1.5
				c0.276,0,0.5,0.224,0.5,0.5C17,8.797,16.776,9.021,16.5,9.021z"/>
		</g>
	</g>
	<g id="New_icons">
	</g>
</g>
<g id="Invisible_Shape">
	<rect fill="none" width="24" height="24"/>
</g>
</svg>
