<?xml version="1.0" encoding="utf-8"?>
<!-- Generator: Adobe Illustrator 19.2.1, SVG Export Plug-In . SVG Version: 6.00 Build 0)  -->
<svg version="1.1" xmlns="http://www.w3.org/2000/svg" xmlns:xlink="http://www.w3.org/1999/xlink" x="0px" y="0px" width="24px"
	 height="24px" viewBox="0 0 24 24" enable-background="new 0 0 24 24" xml:space="preserve">
<g id="Filled_Icons_1_">
	<g id="Filled_Icons">
		<g>
			<path d="M23.5,24c0.276,0,0.5-0.224,0.5-0.5v-1.506c0-2.627-2.248-4.097-5.052-5.377c-0.314,2.024-2.147,3.146-3.787,4.145
				c-1.428,0.869-2.661,1.62-2.661,2.731c0,0.275-0.224,0.5-0.5,0.5s-0.5-0.225-0.5-0.5c0-1.111-1.233-1.862-2.661-2.731
				c-1.64-0.999-3.473-2.121-3.787-4.145C2.248,17.897,0,19.367,0,21.994V23.5C0,23.776,0.224,24,0.5,24H23.5z"/>
			<path d="M9,9.503c0.273,0,0.495-0.22,0.5-0.491c0.095-0.012,0.906-0.012,1,0c0.004,0.272,0.227,0.491,0.5,0.491
				c0.276,0,0.5-0.225,0.5-0.5c0-0.299-0.089-0.538-0.266-0.713C10.938,7.995,10.399,7.999,10,8.001
				C9.602,7.997,9.062,7.995,8.766,8.29C8.589,8.465,8.5,8.704,8.5,9.003C8.5,9.278,8.724,9.503,9,9.503z"/>
			<path d="M13,9.503c0.273,0,0.495-0.22,0.5-0.491c0.095-0.012,0.906-0.012,1,0c0.004,0.272,0.227,0.491,0.5,0.491
				c0.276,0,0.5-0.225,0.5-0.5c0-0.299-0.089-0.538-0.266-0.713C14.938,7.995,14.399,7.999,14,8.001
				c-0.398-0.004-0.938-0.006-1.234,0.289C12.589,8.465,12.5,8.704,12.5,9.003C12.5,9.278,12.724,9.503,13,9.503z"/>
			<path d="M23,11.994c-2.856,0-1.76-9.204-5.862-11.134C15.802,0.231,14.12,0.42,12,1.436C9.88,0.42,8.198,0.231,6.862,0.86
				C2.76,2.79,3.856,11.994,1,11.994c-0.358,0-0.602,0.366-0.46,0.696c0.916,2.137,2.853,2.566,4.235,2.28
				c1.046-0.214,1.905-0.806,2.391-1.565c0.368,0.644,0.851,1.211,1.401,1.7c-0.437,0.188-2.145,0.909-2.557,1.087
				c0.114,1.741,1.755,2.745,3.348,3.716c1.008,0.613,2.047,1.242,2.641,2.069c0.594-0.827,1.632-1.456,2.641-2.069
				c1.593-0.971,3.234-1.975,3.348-3.716c-0.412-0.178-2.12-0.899-2.557-1.087c0.551-0.489,1.034-1.057,1.401-1.7
				c0.486,0.76,1.345,1.351,2.391,1.565c1.382,0.285,3.32-0.144,4.235-2.28C23.602,12.36,23.358,11.994,23,11.994z M17,10.994
				c-0.245,0-0.453,0.176-0.493,0.417c-0.481,2.887-3.559,4.211-4.507,4.554c-0.948-0.343-4.026-1.667-4.507-4.554
				C7.453,11.17,7.245,10.994,7,10.994c-0.495,0-0.625-0.654-0.625-1c0-0.347,0.13-1,0.625-1c0.229,0,0.43-0.156,0.485-0.379
				l0.407-1.627C10.534,6.922,11.46,6.17,12,5.388c0.54,0.782,1.466,1.534,4.108,1.601l0.407,1.627
				C16.57,8.838,16.771,8.994,17,8.994c0.495,0,0.625,0.653,0.625,1C17.625,10.34,17.495,10.994,17,10.994z"/>
		</g>
	</g>
	<g id="New_icons">
	</g>
</g>
<g id="Invisible_Shape">
	<rect fill="none" width="24" height="24"/>
</g>
</svg>
