<?xml version="1.0" encoding="utf-8"?>
<!-- Generator: Adobe Illustrator 19.2.1, SVG Export Plug-In . SVG Version: 6.00 Build 0)  -->
<svg version="1.1" xmlns="http://www.w3.org/2000/svg" xmlns:xlink="http://www.w3.org/1999/xlink" x="0px" y="0px" width="24px"
	 height="24px" viewBox="0 0 24 24" enable-background="new 0 0 24 24" xml:space="preserve">
<g id="Filled_Icons_1_">
	<g id="Filled_Icons">
	</g>
	<g id="New_icons">
		<g>
			<g>
				<path d="M10,10.5c-0.851-0.008-1.5,0.121-1.5,1.002c0,0.275,0.224,0.5,0.5,0.5c0.273,0,0.495-0.22,0.5-0.491
					c0.095-0.012,0.906-0.012,1,0c0.004,0.271,0.227,0.491,0.5,0.491c0.276,0,0.5-0.225,0.5-0.5C11.5,10.615,10.849,10.496,10,10.5z
					"/>
				<path d="M14,10.5c-0.851-0.008-1.5,0.121-1.5,1.002c0,0.275,0.224,0.5,0.5,0.5c0.273,0,0.495-0.22,0.5-0.491
					c0.095-0.012,0.906-0.012,1,0c0.004,0.271,0.227,0.491,0.5,0.491c0.276,0,0.5-0.225,0.5-0.5C15.5,10.615,14.849,10.496,14,10.5z
					"/>
			</g>
			<path d="M14.928,1.35l-0.415,4.443c1.439-0.239,2.028-0.508,2.915-0.927C17.204,3.387,16.319,2.152,14.928,1.35z"/>
			<path d="M9.072,1.35C7.681,2.152,6.796,3.387,6.571,4.866c0.894,0.422,1.475,0.688,2.916,0.928L9.072,1.35z"/>
			<path d="M13.497,5.924l0.501-5.377C14.025,0.251,13.792,0,13.5,0h-3c-0.292,0-0.525,0.251-0.498,0.547l0.501,5.377
				C11.56,6.025,12.438,6.025,13.497,5.924z"/>
			<path d="M21.038,17.772l-5.384-1.494c0.939-0.855,1.694-1.995,1.826-3.356c0.685-0.234,1.145-0.971,1.145-1.922
				c0-0.941-0.451-1.673-1.125-1.915V8.336c1.272-0.778,1.477-1.672,1.49-1.738c0.042-0.209-0.054-0.421-0.237-0.529l-0.682-0.399
				C17.071,6.141,15.393,7,12,7S6.929,6.141,5.929,5.669L5.247,6.068C5.063,6.177,4.968,6.389,5.01,6.598
				c0.013,0.066,0.218,0.96,1.49,1.738v0.749C5.826,9.327,5.375,10.059,5.375,11c0,0.951,0.46,1.688,1.145,1.922
				c0.131,1.361,0.886,2.501,1.826,3.356l-5.384,1.494C1.173,18.441,0,20.135,0,22v1.5C0,23.776,0.224,24,0.5,24h23
				c0.276,0,0.5-0.224,0.5-0.5V22C24,20.135,22.827,18.441,21.038,17.772z M7.5,12.5C7.5,12.224,7.276,12,7,12
				c-0.494,0-0.625-0.654-0.625-1c0-0.444,0.179-1,0.625-1c0.276,0,0.5-0.224,0.5-0.5V8.819C8.526,9.212,9.967,9.5,12,9.5
				s3.474-0.288,4.5-0.681V9.5c0,0.276,0.224,0.5,0.5,0.5c0.446,0,0.625,0.556,0.625,1c0,0.346-0.131,1-0.625,1
				c-0.276,0-0.5,0.224-0.5,0.5c0,2.615-3.158,4.527-4.5,4.527S7.5,15.115,7.5,12.5z M4,23H1v-1c0-1.451,0.969-3.078,3-3.48V23z
				 M16,18.5c0,0.827-0.673,1.5-1.5,1.5h-5C8.673,20,8,19.327,8,18.5v-1.084l1.346-0.373c0.982,0.634,1.998,0.984,2.654,0.984
				c0.657,0,1.676-0.351,2.66-0.988L16,17.411V18.5z M23,23h-3v-4.48c2.031,0.402,3,2.029,3,3.48V23z"/>
		</g>
	</g>
</g>
<g id="Invisible_Shape">
	<rect fill="none" width="24" height="24"/>
</g>
</svg>
