<?xml version="1.0" encoding="utf-8"?>
<!-- Generator: Adobe Illustrator 19.2.1, SVG Export Plug-In . SVG Version: 6.00 Build 0)  -->
<svg version="1.1" xmlns="http://www.w3.org/2000/svg" xmlns:xlink="http://www.w3.org/1999/xlink" x="0px" y="0px" width="24px"
	 height="24px" viewBox="0 0 24 24" enable-background="new 0 0 24 24" xml:space="preserve">
<g id="Filled_Icons_1_">
	<g id="Filled_Icons">
		<g>
			<path d="M17.829,17.145l-1.473,4.912l-3.707-0.53L12.5,21.692V24h11c0.276,0,0.5-0.224,0.5-0.5V23
				C24,19.968,21.222,18.578,17.829,17.145z"/>
			<path d="M7.644,22.057l-1.473-4.912C2.778,18.578,0,19.968,0,23v0.5C0,23.776,0.224,24,0.5,24h11v-2.308l-0.149-0.166
				L7.644,22.057z"/>
			<path d="M15.633,16.219c0.287-0.285,0.556-0.625,0.797-1.026c1.447,0.87,4.07,0.657,5.681,0.296
				c0.413-0.094,0.53-0.634,0.189-0.888c-1.633-1.227,0.107-9.069-5.183-11.383l-0.622,4.354C16.459,7.817,16.249,8,16,8h-1.433
				c0.217,0.888,0.942,2.055,1.93,2.786c-0.097,4.869-2.674,5.642-4.224,6.106c-0.096,0.028-0.186,0.056-0.273,0.083
				c-0.086-0.027-0.177-0.055-0.273-0.083c-1.55-0.465-4.128-1.237-4.224-6.106C8.491,10.055,9.216,8.888,9.433,8H8
				C7.752,8,7.541,7.817,7.505,7.571L6.88,3.193C1.592,5.514,3.337,13.371,1.7,14.601c-0.338,0.252-0.227,0.793,0.191,0.888
				c1.559,0.352,4.22,0.568,5.678-0.299c0.242,0.402,0.511,0.743,0.799,1.029c-0.107,0.046-0.215,0.094-0.322,0.14L12,20.753
				l3.955-4.394C15.848,16.312,15.74,16.265,15.633,16.219z"/>
			<path d="M8.434,7h7.133l0.612-4.287C16.309,1.809,15.604,1,14.694,1H9.306c-0.91,0-1.614,0.809-1.485,1.713L8.434,7z M10.5,3.5h1
				v-1C11.5,2.225,11.724,2,12,2s0.5,0.225,0.5,0.5v1h1C13.776,3.5,14,3.725,14,4c0,0.276-0.224,0.5-0.5,0.5h-1v1
				C12.5,5.776,12.276,6,12,6s-0.5-0.224-0.5-0.5v-1h-1C10.224,4.5,10,4.276,10,4C10,3.725,10.224,3.5,10.5,3.5z"/>
			<path d="M8.766,10.289C8.589,10.464,8.5,10.703,8.5,11.002c0,0.275,0.224,0.5,0.5,0.5c0.273,0,0.495-0.22,0.5-0.491
				c0.095-0.012,0.906-0.012,1,0c0.004,0.271,0.227,0.491,0.5,0.491c0.276,0,0.5-0.225,0.5-0.5c0-0.299-0.089-0.538-0.266-0.713
				C10.938,9.994,10.399,9.998,10,10C9.602,9.996,9.062,9.994,8.766,10.289z"/>
			<path d="M13,11.502c0.273,0,0.495-0.22,0.5-0.491c0.095-0.012,0.906-0.012,1,0c0.004,0.271,0.227,0.491,0.5,0.491
				c0.276,0,0.5-0.225,0.5-0.5c0-0.299-0.089-0.538-0.266-0.713C14.938,9.994,14.399,9.998,14,10
				c-0.398-0.004-0.938-0.006-1.234,0.289c-0.176,0.175-0.266,0.414-0.266,0.713C12.5,11.277,12.724,11.502,13,11.502z"/>
		</g>
	</g>
	<g id="New_icons">
	</g>
</g>
<g id="Invisible_Shape">
	<rect fill="none" width="24" height="24"/>
</g>
</svg>
