<?xml version="1.0" encoding="utf-8"?>
<!-- Generator: Adobe Illustrator 19.2.1, SVG Export Plug-In . SVG Version: 6.00 Build 0)  -->
<svg version="1.1" xmlns="http://www.w3.org/2000/svg" xmlns:xlink="http://www.w3.org/1999/xlink" x="0px" y="0px" width="24px"
	 height="24px" viewBox="0 0 24 24" enable-background="new 0 0 24 24" xml:space="preserve">
<g id="Filled_Icons_1_">
	<g id="Filled_Icons">
	</g>
	<g id="New_icons">
		<g>
			<g>
				<path d="M10,8C9.149,7.991,8.5,8.121,8.5,9.002c0,0.275,0.224,0.5,0.5,0.5c0.273,0,0.495-0.22,0.5-0.491
					c0.095-0.012,0.906-0.012,1,0c0.004,0.271,0.227,0.491,0.5,0.491c0.276,0,0.5-0.225,0.5-0.5C11.5,8.116,10.849,7.996,10,8z"/>
				<path d="M14,8c-0.851-0.009-1.5,0.121-1.5,1.002c0,0.275,0.224,0.5,0.5,0.5c0.273,0,0.495-0.22,0.5-0.491
					c0.095-0.012,0.906-0.012,1,0c0.004,0.271,0.227,0.491,0.5,0.491c0.276,0,0.5-0.225,0.5-0.5C15.5,8.116,14.849,7.996,14,8z"/>
			</g>
			<path d="M16.5,15.561c0.125,3.398-3.955,8.067-4.123,8.26c-0.189,0.23-0.565,0.23-0.754,0c-0.168-0.193-4.248-4.862-4.123-8.26
				C3.68,17.164,0,18.631,0,21.992V23.5C0,23.776,0.224,24,0.5,24h23c0.276,0,0.5-0.224,0.5-0.5v-1.508
				C24,18.631,20.32,17.164,16.5,15.561z"/>
			<g>
				<path d="M13.919,15c-0.781,0.512-1.53,0.822-1.919,0.963c-0.947-0.343-4.026-1.666-4.507-4.553
					C7.453,11.169,7.245,10.992,7,10.992c-0.494,0-0.625-0.654-0.625-1s0.131-1,0.625-1c0.229,0,0.429-0.156,0.485-0.379
					l0.407-1.626C10.535,6.92,11.46,6.169,12,5.386c0.539,0.782,1.463,1.531,4.096,1.601C16.306,6.412,16.853,6,17.5,6
					c1.159,0,1.972-0.09,2.927,0.721c-0.574-2.414-1.322-4.935-3.289-5.861C15.8,0.228,14.118,0.418,12,1.436
					C9.881,0.418,8.199,0.228,6.862,0.859C2.761,2.789,3.857,11.992,1,11.992c-0.36,0-0.601,0.367-0.46,0.697
					c1.357,3.166,5.258,2.881,6.634,0.695C7.543,14.034,7.948,14.507,8.5,15v0.896c0,2.255,2.525,5.604,3.5,6.813
					c0.974-1.209,3.5-4.56,3.5-6.812c0,0,0.011-0.891,0.017-0.896H13.919z"/>
			</g>
			<g>
				<path d="M23,11.992c-0.809,0-1.312-0.795-1.704-1.926c-0.25,0.643-0.712,1.179-1.305,1.522
					c-0.052,0.928-0.807,2.264-1.916,2.939c1.919,1.083,4.385,0.492,5.384-1.838C23.601,12.359,23.36,11.992,23,11.992z"/>
			</g>
			<path d="M20.5,9c0-1.102-0.897-2-2-2h-1C17.224,7,17,7.224,17,7.5v3c0,0.276,0.224,0.5,0.5,0.5h0.505
				c0.013,1.155-0.875,2-1.505,2h-2.153c-0.174-0.294-0.48-0.5-0.847-0.5h-2c-0.552,0-1,0.447-1,1s0.448,1,1,1h2
				c0.366,0,0.673-0.207,0.847-0.5H16.5c1.136,0,2.5-1.226,2.5-3.071C19.86,10.705,20.5,9.929,20.5,9z"/>
		</g>
	</g>
</g>
<g id="Invisible_Shape">
	<rect fill="none" width="24" height="24"/>
</g>
</svg>
