<?xml version="1.0" encoding="utf-8"?>
<!-- Generator: Adobe Illustrator 19.2.1, SVG Export Plug-In . SVG Version: 6.00 Build 0)  -->
<svg version="1.1" xmlns="http://www.w3.org/2000/svg" xmlns:xlink="http://www.w3.org/1999/xlink" x="0px" y="0px" width="24px"
	 height="24px" viewBox="0 0 24 24" enable-background="new 0 0 24 24" xml:space="preserve">
<g id="Filled_Icons_1_">
	<g id="Filled_Icons">
		<g>
			<g>
				<path d="M10,8.5C9.149,8.492,8.5,8.621,8.5,9.502c0,0.275,0.224,0.5,0.5,0.5c0.273,0,0.495-0.22,0.5-0.491
					c0.095-0.012,0.906-0.012,1,0c0.004,0.271,0.227,0.491,0.5,0.491c0.276,0,0.5-0.225,0.5-0.5C11.5,8.615,10.849,8.496,10,8.5z"/>
				<path d="M14,8.5c-0.851-0.008-1.5,0.121-1.5,1.002c0,0.275,0.224,0.5,0.5,0.5c0.273,0,0.495-0.22,0.5-0.491
					c0.095-0.012,0.906-0.012,1,0c0.004,0.271,0.227,0.491,0.5,0.491c0.276,0,0.5-0.225,0.5-0.5C15.5,8.615,14.849,8.496,14,8.5z"/>
			</g>
			<path d="M21.038,16.773l-5.384-1.495c0.939-0.855,1.695-1.995,1.826-3.356c0.685-0.234,1.145-0.971,1.145-1.922
				c0-0.941-0.451-1.673-1.125-1.914V6.932c0.009-0.005,0.02-0.01,0.028-0.016c0.478-0.318,0.719-0.65,0.843-0.916H5.628
				C5.754,6.268,6.008,6.603,6.5,6.924v1.16C5.826,8.325,5.375,9.059,5.375,10c0,0.951,0.46,1.688,1.145,1.922
				c0.132,1.363,0.889,2.505,1.83,3.36l-5.43,1.505C1.174,17.441,0,19.135,0,21v3h11v-7.173c0.834,0.264,1.166,0.264,2,0V24h11v-3
				C24,19.135,22.827,17.441,21.038,16.773z M12,16.027c-1.342,0-4.5-1.912-4.5-4.527C7.5,11.225,7.276,11,7,11
				c-0.495,0-0.625-0.654-0.625-1S6.505,9,7,9c0.276,0,0.5-0.224,0.5-0.5V7.404c2.214,0.791,6.783,0.795,9,0.008V8.5
				C16.5,8.776,16.724,9,17,9c0.495,0,0.625,0.654,0.625,1s-0.13,1-0.625,1c-0.276,0-0.5,0.225-0.5,0.5
				C16.5,14.115,13.342,16.027,12,16.027z M19.5,20.5c0,0.168-0.083,0.323-0.223,0.416l-1.5,1c-0.166,0.111-0.388,0.112-0.555,0
				l-1.5-1C15.583,20.823,15.5,20.668,15.5,20.5v-2c0-0.275,0.224-0.5,0.5-0.5h3c0.276,0,0.5,0.225,0.5,0.5V20.5z"/>
			<path d="M5,5h14c0.276,0,0.5-0.224,0.5-0.5V3c0-0.275-0.224-0.5-0.5-0.5c-2.782,0-3.329-2.5-7-2.5C8.314,0,8.28,2.5,5,2.5
				C4.724,2.5,4.5,2.725,4.5,3v1.5C4.5,4.776,4.724,5,5,5z M11,2c0-0.275,0.224-0.5,0.5-0.5h1C12.776,1.5,13,1.725,13,2v1
				c0,0.133-0.053,0.26-0.146,0.353l-0.5,0.5c-0.195,0.195-0.512,0.195-0.707,0l-0.5-0.5C11.053,3.26,11,3.133,11,3V2z"/>
		</g>
	</g>
	<g id="New_icons">
	</g>
</g>
<g id="Invisible_Shape">
	<rect fill="none" width="24" height="24"/>
</g>
</svg>
