<?xml version="1.0" encoding="utf-8"?>
<!-- Generator: Adobe Illustrator 19.2.1, SVG Export Plug-In . SVG Version: 6.00 Build 0)  -->
<svg version="1.1" xmlns="http://www.w3.org/2000/svg" xmlns:xlink="http://www.w3.org/1999/xlink" x="0px" y="0px" width="24px"
	 height="24px" viewBox="0 0 24 24" enable-background="new 0 0 24 24" xml:space="preserve">
<g id="Filled_Icons_1_">
	<g id="Filled_Icons">
		<g>
			<path d="M23.853,19H0.127C0.052,19.326,0,19.658,0,20v1h24v-0.906C24,19.721,23.941,19.355,23.853,19z"/>
			<rect y="22" width="24" height="2"/>
			<path d="M21.046,15.775l-4.243-1.254c-0.725,0.689-2.649,2.447-4.772,2.447c-1.06,0-2.75-0.432-4.813-2.453L2.92,15.787
				C1.836,16.193,0.974,17.001,0.475,18h23.012C22.977,16.994,22.116,16.176,21.046,15.775z"/>
			<path d="M17.5,5.147V3.699C16.507,4.004,14.514,4.5,12,4.5S7.493,4.004,6.5,3.699v1.447C7.259,5.4,9.339,6,12,6
				S16.741,5.4,17.5,5.147z"/>
			<path d="M12,0C9.463,0,6.5,0.656,6.5,2.647C7.259,2.9,9.339,3.5,12,3.5s4.741-0.6,5.5-0.853C17.5,0.656,14.537,0,12,0z"/>
			<circle cx="10" cy="9" r="0.5"/>
			<circle cx="14" cy="9" r="0.5"/>
			<path d="M17.5,7.096V6.199C16.507,6.504,14.514,7,12,7S7.493,6.504,6.5,6.199v0.896C5.828,7.338,5.375,8.061,5.375,9
				c0,0.951,0.46,1.688,1.146,1.922C6.824,14.043,10.436,16,12,16s5.176-1.957,5.479-5.078c0.686-0.234,1.146-0.971,1.146-1.922
				C18.625,8.061,18.172,7.338,17.5,7.096z M12.5,15.5h-1v-2h1V15.5z M17,10c-0.276,0-0.5,0.224-0.5,0.5
				c0,1.186-0.658,2.223-1.5,3.003V13.5c0-1.379-1.122-2.5-2.5-2.5h-1C10.122,11,9,12.121,9,13.5v0.003
				c-0.842-0.78-1.5-1.817-1.5-3.003C7.5,10.224,7.276,10,7,10c-0.494,0-0.625-0.654-0.625-1S6.506,8,7,8h10
				c0.494,0,0.625,0.654,0.625,1S17.494,10,17,10z"/>
		</g>
	</g>
	<g id="New_icons">
	</g>
</g>
<g id="Invisible_Shape">
	<rect fill="none" width="24" height="24"/>
</g>
</svg>
