<?xml version="1.0" encoding="utf-8"?>
<!-- Generator: Adobe Illustrator 19.2.1, SVG Export Plug-In . SVG Version: 6.00 Build 0)  -->
<svg version="1.1" xmlns="http://www.w3.org/2000/svg" xmlns:xlink="http://www.w3.org/1999/xlink" x="0px" y="0px" width="24px"
	 height="24px" viewBox="0 0 24 24" enable-background="new 0 0 24 24" xml:space="preserve">
<g id="Filled_Icons_1_">
	<g id="Filled_Icons">
	</g>
	<g id="New_icons">
		<g>
			<g>
				<path d="M9,6.998C8.149,6.99,7.5,7.119,7.5,8c0,0.275,0.224,0.5,0.5,0.5c0.273,0,0.495-0.22,0.5-0.491
					c0.095-0.012,0.906-0.012,1,0C9.504,8.28,9.727,8.5,10,8.5c0.276,0,0.5-0.225,0.5-0.5C10.5,7.113,9.849,6.994,9,6.998z"/>
				<path d="M15,6.998C14.149,6.99,13.5,7.119,13.5,8c0,0.275,0.224,0.5,0.5,0.5c0.273,0,0.495-0.22,0.5-0.491
					c0.095-0.012,0.906-0.012,1,0C15.504,8.28,15.727,8.5,16,8.5c0.276,0,0.5-0.225,0.5-0.5C16.5,7.113,15.849,6.994,15,6.998z"/>
			</g>
			<g>
				<path d="M21.046,15.712l-5.333-1.575c0.627-0.586,1.279-1.402,1.593-2.449C18.24,11.252,19,10.385,19,9.274V7.5
					c0-1.03-0.626-1.916-1.518-2.298C17.296,2.303,14.912,0,12,0C9.091,0,6.708,2.299,6.519,5.201C5.627,5.584,5,6.47,5,7.5V8
					c-1.036,0-4-0.18-4,2.5c0,2.266,3.286,3.457,5.896,4.048L2.92,15.724C1.173,16.379,0,18.072,0,19.938V23.5
					C0,23.776,0.224,24,0.5,24h23c0.276,0,0.5-0.224,0.5-0.5v-3.469C24,18.14,22.799,16.368,21.046,15.712z M12,12.5
					c1.103,0,2,0.898,2,2s-0.897,2-2,2s-2-0.898-2-2S10.897,12.5,12,12.5z M9.046,14.955C9.267,16.393,10.502,17.5,12,17.5
					s2.733-1.107,2.954-2.545l1.977,0.583C16.6,17.505,14.533,19,12,19c-2.532,0-4.599-1.495-4.931-3.461L9.046,14.955z M6,7.5
					C6,6.673,6.673,6,7.5,6h9C17.327,6,18,6.673,18,7.5v1.774C18,10.246,16.925,11,16,11c-1.333,0-3.052-0.811-3.51-3.098
					c-0.106-0.532-0.873-0.535-0.98,0C11.053,10.186,9.397,11,8,11c-0.925,0-2-0.754-2-1.726V7.5z M2,10.5C2,8.999,3.455,9,5,9
					c0,1.222,0.496,2.129,1.694,2.688c0.247,0.825,0.705,1.508,1.195,2.047C4.95,13.163,2,12.056,2,10.5z"/>
				<circle cx="19.5" cy="12.5" r="1.5"/>
				<g>
					<circle cx="21" cy="8.5" r="1"/>
				</g>
				<g>
					<circle cx="22" cy="4.5" r="1"/>
				</g>
				<g>
					<circle cx="12" cy="14.5" r="1"/>
				</g>
			</g>
		</g>
	</g>
</g>
<g id="Invisible_Shape">
	<rect fill="none" width="24" height="24"/>
</g>
</svg>
