<?xml version="1.0" encoding="utf-8"?>
<!-- Generator: Adobe Illustrator 19.2.1, SVG Export Plug-In . SVG Version: 6.00 Build 0)  -->
<svg version="1.1" xmlns="http://www.w3.org/2000/svg" xmlns:xlink="http://www.w3.org/1999/xlink" x="0px" y="0px" width="24px"
	 height="24px" viewBox="0 0 24 24" enable-background="new 0 0 24 24" xml:space="preserve">
<g id="Filled_Icons_1_">
	<g id="Filled_Icons">
		<g>
			<g>
				<path d="M10,8.498C9.149,8.49,8.5,8.619,8.5,9.5C8.5,9.775,8.724,10,9,10c0.273,0,0.495-0.22,0.5-0.491
					c0.095-0.012,0.906-0.012,1,0C10.504,9.78,10.727,10,11,10c0.276,0,0.5-0.225,0.5-0.5C11.5,8.613,10.849,8.494,10,8.498z"/>
				<path d="M14,8.498C13.149,8.49,12.5,8.619,12.5,9.5c0,0.275,0.224,0.5,0.5,0.5c0.273,0,0.495-0.22,0.5-0.491
					c0.095-0.012,0.906-0.012,1,0C14.504,9.78,14.727,10,15,10c0.276,0,0.5-0.225,0.5-0.5C15.5,8.613,14.849,8.494,14,8.498z"/>
			</g>
			<circle cx="12" cy="4" r="2"/>
			<path d="M7.018,15.348c-3.505,0.477-7.018,1.067-7.018,4.897V23.5c0,0.276,0.224,0.5,0.5,0.5H11v-6.135
				C9.682,17.546,8.136,16.656,7.018,15.348z M8,20H7v1c0,0.276-0.224,0.5-0.5,0.5S6,21.276,6,21v-1H5c-0.276,0-0.5-0.224-0.5-0.5
				S4.724,19,5,19h1v-1c0-0.276,0.224-0.5,0.5-0.5S7,17.724,7,18v1h1c0.276,0,0.5,0.224,0.5,0.5S8.276,20,8,20z"/>
			<path d="M16.982,15.347C15.564,17.007,13.455,18,12,18v6h11.5c0.276,0,0.5-0.224,0.5-0.5v-3.255
				C24,16.387,20.625,15.844,16.982,15.347z M14.5,22c-0.276,0-0.5-0.224-0.5-0.5c0-0.275,0.224-0.5,0.5-0.5
				c0.276,0,0.5,0.225,0.5,0.5C15,21.776,14.777,22,14.5,22z M14.5,20c-0.276,0-0.5-0.224-0.5-0.5c0-0.275,0.224-0.5,0.5-0.5
				c0.276,0,0.5,0.225,0.5,0.5C15,19.776,14.777,20,14.5,20z"/>
			<path d="M14.643,1.02C13.936,0.394,13.017,0,12,0s-1.936,0.394-2.643,1.02C4.49,2.121,5.009,5.549,5.012,5.567l0.497,3.64
				C5.428,9.455,5.375,9.719,5.375,10c0,0.951,0.46,1.688,1.146,1.922h0.014C6.84,15.041,10.441,17,12.004,17
				s5.164-1.959,5.47-5.078h0.006c0.686-0.234,1.146-0.971,1.146-1.922c0-0.285-0.043-0.551-0.12-0.789l0.48-3.627
				C18.991,5.549,19.51,2.121,14.643,1.02z M12,1c1.654,0,3,1.346,3,3s-1.346,3-3,3S9,5.654,9,4S10.346,1,12,1z M17.004,11
				c-0.471,0-0.484,0.361-0.521,0.781C15.61,11.492,13.859,11,12.004,11s-3.606,0.492-4.479,0.781C7.488,11.361,7.475,11,7.004,11
				c-0.494,0-0.625-0.654-0.625-1c0-0.984,0.578-1.031,0.848-1.053l2.894-1.44C10.684,7.812,11.319,8,12.004,8
				c0.685,0,1.32-0.188,1.883-0.493l2.894,1.44c0.27,0.021,0.848,0.068,0.848,1.053C17.629,10.346,17.498,11,17.004,11z"/>
		</g>
	</g>
	<g id="New_icons">
	</g>
</g>
<g id="Invisible_Shape">
	<rect fill="none" width="24" height="24"/>
</g>
</svg>
