<?xml version="1.0" encoding="utf-8"?>
<!-- Generator: Adobe Illustrator 19.2.1, SVG Export Plug-In . SVG Version: 6.00 Build 0)  -->
<svg version="1.1" xmlns="http://www.w3.org/2000/svg" xmlns:xlink="http://www.w3.org/1999/xlink" x="0px" y="0px" width="24px"
	 height="24px" viewBox="0 0 24 24" enable-background="new 0 0 24 24" xml:space="preserve">
<g id="Filled_Icons_1_">
	<g id="Filled_Icons">
		<g>
			<path d="M11.267,9.501c0-0.886-0.651-1.006-1.5-1.002c-0.851-0.009-1.5,0.121-1.5,1.002c0,0.275,0.224,0.5,0.5,0.5
				c0.273,0,0.495-0.22,0.5-0.491c0.095-0.012,0.906-0.012,1,0c0.004,0.271,0.227,0.491,0.5,0.491
				C11.042,10.001,11.267,9.776,11.267,9.501z"/>
			<path d="M13.267,9.51c0.095-0.012,0.906-0.012,1,0c0.004,0.271,0.227,0.491,0.5,0.491c0.276,0,0.5-0.225,0.5-0.5
				c0-0.886-0.651-1.006-1.5-1.002c-0.851-0.009-1.5,0.121-1.5,1.002c0,0.275,0.224,0.5,0.5,0.5
				C13.04,10.001,13.262,9.781,13.267,9.51z"/>
			<path d="M21.041,16.774l-5.555-1.577c0.232-0.217,0.454-0.447,0.654-0.697h-1.232C14.12,15.095,12.75,16,11.767,16
				c-1.342,0-4.5-1.9-4.5-4.5c0-0.275-0.224-0.5-0.5-0.5c-0.494,0-0.625-0.654-0.625-1s0.131-1,0.625-1
				c0.239,0,0.444-0.168,0.49-0.401l0.421-2.104c2.629-0.07,3.551-0.819,4.089-1.601c0.539,0.781,1.461,1.53,4.089,1.601l0.42,2.103
				C16.323,8.832,16.528,9,16.766,9c0.495,0,0.625,0.654,0.625,1s-0.13,1-0.625,1c-0.276,0-0.5,0.225-0.5,0.5
				c0,0.1-0.013,0.196-0.021,0.294c0,0,1.254-0.005,1.281-0.007c0.192-0.116,0.357-0.278,0.492-0.477c0.351,0,0.83,0.019,1.12-0.043
				c0,0-0.015,0.525-0.037,0.609c-0.192,0.677-0.95,0.896-1.653,0.917h-2.964c-0.139-0.241-0.624-0.397-0.896-0.397h-0.002h-1.983
				c-0.439,0-0.793,0.356-0.793,0.794c0,0.421,0.346,0.792,0.793,0.792h1.983c0.263,0,0.769-0.232,0.914-0.482h3
				c1.001,0,2.26-0.461,2.415-1.648c0.008-0.061,0.016-0.943,0.016-0.943c0.533-0.386,0.896-1.009,0.896-1.685
				c0-1.131-1-2.131-2.291-2.086l0.227-1.589C18.869,0.833,14.383,0,11.767,0s-7.1,0.854-6.995,5.571l0.512,3.583
				C5.195,9.409,5.141,9.691,5.141,10c0,0.951,0.461,1.688,1.146,1.922c0.134,1.377,0.914,2.527,1.876,3.383L2.92,16.787
				C1.173,17.441,0,19.135,0,21v2.5C0,23.776,0.224,24,0.5,24h23c0.276,0,0.5-0.224,0.5-0.5V21
				C24,19.135,22.827,17.441,21.041,16.774z"/>
		</g>
	</g>
	<g id="New_icons">
	</g>
</g>
<g id="Invisible_Shape">
	<rect fill="none" width="24" height="24"/>
</g>
</svg>
