<?xml version="1.0" encoding="utf-8"?>
<!-- Generator: Adobe Illustrator 16.0.3, SVG Export Plug-In . SVG Version: 6.00 Build 0)  -->
<!DOCTYPE svg PUBLIC "-//W3C//DTD SVG 1.1//EN" "http://www.w3.org/Graphics/SVG/1.1/DTD/svg11.dtd">
<svg version="1.1" xmlns="http://www.w3.org/2000/svg" xmlns:xlink="http://www.w3.org/1999/xlink" x="0px" y="0px" width="24px"
	 height="24px" viewBox="0 0 24 24" enable-background="new 0 0 24 24" xml:space="preserve">
<g id="Outline_Icons_1_">
	<g id="Outline_Icons">
		<g>
			<g>
				<path fill="none" stroke="#000000" stroke-linejoin="round" stroke-miterlimit="10" d="M22.397,22.118l1-1.732l-1-0.577
					c0.137-0.58,0.136-1.039,0-1.614l0.999-0.576l-1-1.732l-0.999,0.575c-0.392-0.369-0.868-0.639-1.397-0.799V14.5h-2v1.162
					c-0.529,0.16-1.006,0.43-1.397,0.799l-0.999-0.575l-1,1.732l0.999,0.576c-0.136,0.575-0.137,1.034,0,1.614l-1,0.577l1,1.732
					l1-0.578c0.392,0.368,0.869,0.64,1.397,0.799V23.5h2v-1.161c0.528-0.159,1.006-0.431,1.396-0.799L22.397,22.118z"/>
				<circle fill="none" stroke="#000000" stroke-linejoin="round" stroke-miterlimit="10" cx="19" cy="19" r="1.5"/>
			</g>
			<g>
				<polygon fill="none" stroke="#000000" stroke-linejoin="round" stroke-miterlimit="10" points="7.25,19.07 19.517,6.57 
					19.517,0.5 13.242,0.5 1,12.786 				"/>
				<circle fill="none" stroke="#000000" stroke-linejoin="round" stroke-miterlimit="10" cx="15.983" cy="4.07" r="1.5"/>
			</g>
		</g>
	</g>
	<g id="New_icons_1_">
	</g>
</g>
<g id="Invisible_Shape">
	<rect fill="none" width="24" height="24"/>
</g>
</svg>
