<?xml version="1.0" encoding="utf-8"?>
<!-- Generator: Adobe Illustrator 16.0.3, SVG Export Plug-In . SVG Version: 6.00 Build 0)  -->
<!DOCTYPE svg PUBLIC "-//W3C//DTD SVG 1.1//EN" "http://www.w3.org/Graphics/SVG/1.1/DTD/svg11.dtd">
<svg version="1.1" xmlns="http://www.w3.org/2000/svg" xmlns:xlink="http://www.w3.org/1999/xlink" x="0px" y="0px" width="24px"
	 height="24px" viewBox="0 0 24 24" enable-background="new 0 0 24 24" xml:space="preserve">
<g id="Outline_Icons">
	<g>
		<rect x="1.5" y="4.5" fill="none" stroke="#000000" stroke-linejoin="round" stroke-miterlimit="10" width="9" height="15"/>
		<path fill="none" stroke="#000000" stroke-linejoin="round" stroke-miterlimit="10" d="M21.5,13.5c-1.381,0-2,0.619-2,2v2h-9v-11
			h13v7H21.5z"/>
		
			<line fill="none" stroke="#000000" stroke-linecap="square" stroke-linejoin="round" stroke-miterlimit="10" x1="12.5" y1="8.5" x2="12.5" y2="9.5"/>
		
			<line fill="none" stroke="#000000" stroke-linecap="square" stroke-linejoin="round" stroke-miterlimit="10" x1="14.5" y1="8.5" x2="14.5" y2="9.5"/>
		
			<line fill="none" stroke="#000000" stroke-linecap="square" stroke-linejoin="round" stroke-miterlimit="10" x1="16.5" y1="8.5" x2="16.5" y2="9.5"/>
		
			<line fill="none" stroke="#000000" stroke-linecap="square" stroke-linejoin="round" stroke-miterlimit="10" x1="12.5" y1="14.5" x2="12.5" y2="15.5"/>
		
			<line fill="none" stroke="#000000" stroke-linecap="square" stroke-linejoin="round" stroke-miterlimit="10" x1="14.5" y1="14.5" x2="14.5" y2="15.5"/>
		
			<line fill="none" stroke="#000000" stroke-linecap="square" stroke-linejoin="round" stroke-miterlimit="10" x1="16.5" y1="14.5" x2="16.5" y2="15.5"/>
		
			<line fill="none" stroke="#000000" stroke-linecap="square" stroke-linejoin="round" stroke-miterlimit="10" x1="18.5" y1="8.5" x2="18.5" y2="9.5"/>
		
			<line fill="none" stroke="#000000" stroke-linecap="square" stroke-linejoin="round" stroke-miterlimit="10" x1="20.5" y1="8.5" x2="20.5" y2="9.5"/>
		<path fill="none" stroke="#000000" stroke-linecap="square" stroke-linejoin="round" stroke-miterlimit="10" d="M11.5,4.5h-11V3
			c0-0.276,0.224-0.5,0.5-0.5h10c0.275,0,0.5,0.224,0.5,0.5V4.5z"/>
		<path fill="none" stroke="#000000" stroke-linecap="square" stroke-linejoin="round" stroke-miterlimit="10" d="M11.5,21
			c0,0.276-0.225,0.5-0.5,0.5H1c-0.276,0-0.5-0.224-0.5-0.5v-1.5h11V21z"/>
	</g>
</g>
<g id="Invisible_Shape">
	<rect fill="none" width="24" height="24"/>
</g>
</svg>
