<?xml version="1.0" encoding="utf-8"?>
<!-- Generator: Adobe Illustrator 16.0.3, SVG Export Plug-In . SVG Version: 6.00 Build 0)  -->
<!DOCTYPE svg PUBLIC "-//W3C//DTD SVG 1.1//EN" "http://www.w3.org/Graphics/SVG/1.1/DTD/svg11.dtd">
<svg version="1.1" xmlns="http://www.w3.org/2000/svg" xmlns:xlink="http://www.w3.org/1999/xlink" x="0px" y="0px" width="24px"
	 height="24px" viewBox="0 0 24 24" enable-background="new 0 0 24 24" xml:space="preserve">
<g id="Outline_Icons">
	<g>
		<path fill="none" stroke="#000000" stroke-linecap="round" stroke-linejoin="round" stroke-miterlimit="10" d="M8.5,17.5v0.533
			l-5.591,2.063C1.464,20.612,0.5,22,0.5,23.5h23c0-1.5-0.966-2.888-2.411-3.403L15.5,18.033v-3.978"/>
		<path fill="none" stroke="#000000" stroke-linecap="round" stroke-linejoin="round" stroke-miterlimit="10" d="M6.64,4.562
			C7.694,2.43,9.632,1,11.849,1c3.342,0,6.053,3.252,6.053,7.263c0,3.087-1.605,5.724-3.867,6.775"/>
		<path fill="none" stroke="#000000" stroke-linecap="round" stroke-linejoin="round" stroke-miterlimit="10" d="M17.789,6.86
			c-1.657,0.195-3.374,0.574-5.015-2.299c-0.254,0.487-0.711,0.938-1.275,1.31"/>
		<path fill="none" stroke="#000000" stroke-linejoin="round" stroke-miterlimit="10" d="M12.5,14.5c0,0.553-0.448,1-1,1h-10
			c-0.552,0-1-0.447-1-1v-6c0-0.553,0.448-1,1-1h4c0.28-0.56,0.451-1,1.118-1h2.264c0.667,0,0.838,0.44,1.118,1h1.5
			c0.552,0,1,0.447,1,1V14.5z"/>
		<circle fill="none" stroke="#000000" stroke-linejoin="round" stroke-miterlimit="10" cx="7.5" cy="11" r="2"/>
		<rect x="2" y="6.5" fill="none" stroke="#000000" stroke-linejoin="round" stroke-miterlimit="10" width="0.5" height="1"/>
	</g>
</g>
<g id="Invisible_Shape">
	<rect fill="none" width="24" height="24"/>
</g>
</svg>
