<?xml version="1.0" encoding="utf-8"?>
<!-- Generator: Adobe Illustrator 16.0.3, SVG Export Plug-In . SVG Version: 6.00 Build 0)  -->
<!DOCTYPE svg PUBLIC "-//W3C//DTD SVG 1.1//EN" "http://www.w3.org/Graphics/SVG/1.1/DTD/svg11.dtd">
<svg version="1.1" xmlns="http://www.w3.org/2000/svg" xmlns:xlink="http://www.w3.org/1999/xlink" x="0px" y="0px" width="24px"
	 height="24px" viewBox="0 0 24 24" enable-background="new 0 0 24 24" xml:space="preserve">
<g id="Outline_Icons">
	<g>
		<path fill="none" stroke="#000000" stroke-linejoin="round" stroke-miterlimit="10" d="M2.5,6.5l0.028-1c0-0.522,0.449-1,0.972-1
			h0.944C5,4.5,5.5,4.978,5.5,5.5v1"/>
		<path fill="none" stroke="#000000" stroke-linejoin="round" stroke-miterlimit="10" d="M19.5,6.5c-0.636-1.272-1.21-3-2.5-3h-5
			c-1,0-1.473,0.963-3,3H2.5c-1.5,0-2,0.679-2,1.723v10.388C0.5,19.654,1,20.5,2.556,20.5h18.889c1.556,0,2.056-0.846,2.056-1.889
			V8.223C23.5,7.179,23,6.5,21.444,6.5H19.5z"/>
		<circle fill="none" stroke="#000000" stroke-linejoin="round" stroke-miterlimit="10" cx="14.5" cy="13" r="5.5"/>
		<circle fill="none" stroke="#000000" stroke-linejoin="round" stroke-miterlimit="10" cx="14.5" cy="13" r="3"/>
		<circle fill="none" stroke="#000000" stroke-linejoin="round" stroke-miterlimit="10" cx="4" cy="10" r="1.5"/>
	</g>
</g>
<g id="Invisible_Shape">
	<rect fill="none" width="24" height="24"/>
</g>
</svg>
