<?xml version="1.0" encoding="utf-8"?>
<!-- Generator: Adobe Illustrator 16.0.3, SVG Export Plug-In . SVG Version: 6.00 Build 0)  -->
<!DOCTYPE svg PUBLIC "-//W3C//DTD SVG 1.1//EN" "http://www.w3.org/Graphics/SVG/1.1/DTD/svg11.dtd">
<svg version="1.1" xmlns="http://www.w3.org/2000/svg" xmlns:xlink="http://www.w3.org/1999/xlink" x="0px" y="0px" width="24px"
	 height="24px" viewBox="0 0 24 24" enable-background="new 0 0 24 24" xml:space="preserve">
<g id="Outline_Icons">
	<g>
		<path fill="none" stroke="#000000" stroke-linejoin="round" stroke-miterlimit="10" d="M19.5,6.5c-0.711-1.422-1.242-3-2.5-3h-5
			c-1,0-1.474,0.966-3,3H2.5c-1.5,0-2,0.679-2,1.723v10.388C0.5,19.654,1,20.5,2.556,20.5h18.889c1.556,0,2.056-0.846,2.056-1.889
			V8.223C23.5,7.179,23,6.5,21.444,6.5H19.5z"/>
		<path fill="none" stroke="#000000" stroke-linejoin="round" stroke-miterlimit="10" d="M2.5,6.484V5.5c0-0.552,0.447-1,1-1h1
			c0.552,0,1,0.448,1,1v1"/>
		<g>
			<g>
				<path d="M4,8C3.723,8,3.5,8.223,3.5,8.5C3.5,8.776,3.723,9,4,9c0.275,0,0.5-0.224,0.5-0.5C4.5,8.223,4.275,8,4,8L4,8z"/>
			</g>
		</g>
		<g>
			<g>
				<path d="M6,8C5.723,8,5.5,8.223,5.5,8.5C5.5,8.776,5.723,9,6,9c0.275,0,0.5-0.224,0.5-0.5C6.5,8.223,6.275,8,6,8L6,8z"/>
			</g>
		</g>
		<g>
			<g>
				<path d="M8,8C7.723,8,7.5,8.223,7.5,8.5C7.5,8.776,7.723,9,8,9c0.275,0,0.5-0.224,0.5-0.5C8.5,8.223,8.275,8,8,8L8,8z"/>
			</g>
		</g>
		<circle fill="none" stroke="#000000" stroke-linejoin="round" stroke-miterlimit="10" cx="17.5" cy="14.5" r="4"/>
		<path fill="none" stroke="#000000" stroke-linejoin="round" stroke-miterlimit="10" d="M11.5,17.5c0,0.549-0.45,1-1,1h-7
			c-0.55,0-1-0.451-1-1v-6c0-0.55,0.45-1,1-1h7c0.55,0,1,0.45,1,1V17.5z"/>
		
			<line fill="none" stroke="#000000" stroke-linecap="round" stroke-linejoin="round" stroke-miterlimit="10" x1="17.5" y1="12.5" x2="17.5" y2="13.5"/>
		
			<line fill="none" stroke="#000000" stroke-linecap="round" stroke-linejoin="round" stroke-miterlimit="10" x1="17.5" y1="15.5" x2="17.5" y2="16.5"/>
		
			<line fill="none" stroke="#000000" stroke-linecap="round" stroke-linejoin="round" stroke-miterlimit="10" x1="19.5" y1="14.5" x2="18.5" y2="14.5"/>
		
			<line fill="none" stroke="#000000" stroke-linecap="round" stroke-linejoin="round" stroke-miterlimit="10" x1="16.5" y1="14.5" x2="15.5" y2="14.5"/>
	</g>
</g>
<g id="Invisible_Shape">
	<rect fill="none" width="24" height="24"/>
</g>
</svg>
