<?xml version="1.0" encoding="utf-8"?>
<!-- Generator: Adobe Illustrator 16.0.3, SVG Export Plug-In . SVG Version: 6.00 Build 0)  -->
<!DOCTYPE svg PUBLIC "-//W3C//DTD SVG 1.1//EN" "http://www.w3.org/Graphics/SVG/1.1/DTD/svg11.dtd">
<svg version="1.1" xmlns="http://www.w3.org/2000/svg" xmlns:xlink="http://www.w3.org/1999/xlink" x="0px" y="0px" width="24px"
	 height="24px" viewBox="0 0 24 24" enable-background="new 0 0 24 24" xml:space="preserve">
<g id="Outline_Icons">
	<g>
		<polyline fill="none" stroke="#000000" stroke-linecap="round" stroke-linejoin="round" stroke-miterlimit="10" points="
			6.516,16.179 8.997,19.347 5.5,21.484 		"/>
		<path fill="none" stroke="#000000" stroke-linecap="round" stroke-linejoin="round" stroke-miterlimit="10" d="M15.818,4.5H19
			c0.825,0,1.5,0.858,1.5,1.682V13c0,0.825-0.675,1.5-1.5,1.5H5c-0.825,0-1.5-0.675-1.5-1.5V6.182C3.5,5.358,4.175,4.5,5,4.5h3.182"
			/>
		<polyline fill="none" stroke="#000000" stroke-linecap="round" stroke-linejoin="round" stroke-miterlimit="10" points="
			8.182,4.5 10.363,2.5 13.637,2.5 15.818,4.5 		"/>
		<path fill="none" stroke="#000000" stroke-linecap="round" stroke-linejoin="round" stroke-miterlimit="10" d="M22.305,13
			c0.765,0.603,1.195,1.282,1.195,2c0,2.353-4.618,4.301-10.5,4.5"/>
		<path fill="none" stroke="#000000" stroke-linecap="round" stroke-linejoin="round" stroke-miterlimit="10" d="M8.997,19.345
			C4.102,18.829,0.5,17.079,0.5,15c0-0.714,0.425-1.388,1.181-1.988"/>
		<circle fill="none" stroke="#000000" stroke-linejoin="round" stroke-miterlimit="10" cx="12" cy="9" r="2.5"/>
		<g>
			<path d="M17.5,7C17.224,7,17,7.224,17,7.5S17.224,8,17.5,8S18,7.776,18,7.5S17.776,7,17.5,7L17.5,7z"/>
		</g>
	</g>
</g>
<g id="Invisible_Shape">
	<rect fill="none" width="24" height="24"/>
</g>
</svg>
