<?xml version="1.0" encoding="utf-8"?>
<!-- Generator: Adobe Illustrator 16.0.3, SVG Export Plug-In . SVG Version: 6.00 Build 0)  -->
<!DOCTYPE svg PUBLIC "-//W3C//DTD SVG 1.1//EN" "http://www.w3.org/Graphics/SVG/1.1/DTD/svg11.dtd">
<svg version="1.1" xmlns="http://www.w3.org/2000/svg" xmlns:xlink="http://www.w3.org/1999/xlink" x="0px" y="0px" width="24px"
	 height="24px" viewBox="0 0 24 24" enable-background="new 0 0 24 24" xml:space="preserve">
<g id="Outline_Icons">
	<g>
		<polyline fill="none" stroke="#000000" stroke-linecap="round" stroke-linejoin="round" stroke-miterlimit="10" points="
			18.579,1.476 19.01,5.407 15.177,5.743 		"/>
		<path fill="none" stroke="#000000" stroke-linejoin="round" stroke-miterlimit="10" d="M17.5,15.511c0,0.552-0.447,1-1,1h-10
			c-0.553,0-1-0.448-1-1v-6c0-0.552,0.447-1,1-1h4l0.224-0.448c0.169-0.339,0.516-0.552,0.895-0.552h2.264
			c0.379,0,0.726,0.213,0.895,0.552L15,8.511h1.5c0.553,0,1,0.448,1,1V15.511z"/>
		<circle fill="none" stroke="#000000" stroke-linejoin="round" stroke-miterlimit="10" cx="12.5" cy="12.511" r="2"/>
		<rect x="7" y="7.511" fill="none" stroke="#000000" stroke-linejoin="round" stroke-miterlimit="10" width="0.5" height="0.992"/>
		<polyline fill="none" stroke="#000000" stroke-linecap="round" stroke-linejoin="round" stroke-miterlimit="10" points="
			4.956,22.872 4.318,18.97 8.127,18.429 		"/>
		<path fill="none" stroke="#000000" stroke-linecap="round" stroke-linejoin="round" stroke-miterlimit="10" d="M1.5,12.011
			c0-5.523,4.477-10,10-10c2.992,0,5.678,1.313,7.51,3.396"/>
		<path fill="none" stroke="#000000" stroke-linecap="round" stroke-linejoin="round" stroke-miterlimit="10" d="M21.5,12.011
			c0,5.523-4.478,10-10,10c-2.818,0-5.364-1.166-7.182-3.041"/>
	</g>
</g>
<g id="Invisible_Shape">
	<rect fill="none" width="24" height="24"/>
</g>
</svg>
