<?xml version="1.0" encoding="utf-8"?>
<!-- Generator: Adobe Illustrator 16.0.3, SVG Export Plug-In . SVG Version: 6.00 Build 0)  -->
<!DOCTYPE svg PUBLIC "-//W3C//DTD SVG 1.1//EN" "http://www.w3.org/Graphics/SVG/1.1/DTD/svg11.dtd">
<svg version="1.1" xmlns="http://www.w3.org/2000/svg" xmlns:xlink="http://www.w3.org/1999/xlink" x="0px" y="0px" width="24px"
	 height="24px" viewBox="0 0 24 24" enable-background="new 0 0 24 24" xml:space="preserve">
<g id="Outline_Icons">
	<g>
		
			<line fill="none" stroke="#000000" stroke-linecap="round" stroke-linejoin="round" stroke-miterlimit="10" x1="10.5" y1="17" x2="10.5" y2="23.5"/>
		
			<line fill="none" stroke="#000000" stroke-linecap="round" stroke-linejoin="round" stroke-miterlimit="10" x1="4.5" y1="23.5" x2="10.5" y2="17.5"/>
		
			<line fill="none" stroke="#000000" stroke-linecap="round" stroke-linejoin="round" stroke-miterlimit="10" x1="16.5" y1="23.5" x2="10.5" y2="17.5"/>
		<path fill="none" stroke="#000000" stroke-linecap="round" stroke-linejoin="round" stroke-miterlimit="10" d="M11.5,13.5v3
			c0,0.275-0.225,0.5-0.5,0.5h-1c-0.275,0-0.5-0.225-0.5-0.5v-3.502"/>
		<path fill="none" stroke="#000000" stroke-linecap="round" stroke-linejoin="round" stroke-miterlimit="10" d="M3.5,5.54v4.408
			l8.5,1.469c0,0,1.07,0.862,2,1.47c1.5,0.98,5.5,0.49,5.5,0.49S21,12.398,21,7.5s-1.5-5.878-1.5-5.878s-4-0.489-5.5,0.49
			c-0.93,0.607-2,1.47-2,1.47L3.5,5.54z"/>
	</g>
</g>
<g id="Invisible_Shape">
	<rect fill="none" width="24" height="24"/>
</g>
</svg>
