<?xml version="1.0" encoding="utf-8"?>
<!-- Generator: Adobe Illustrator 16.0.3, SVG Export Plug-In . SVG Version: 6.00 Build 0)  -->
<!DOCTYPE svg PUBLIC "-//W3C//DTD SVG 1.1//EN" "http://www.w3.org/Graphics/SVG/1.1/DTD/svg11.dtd">
<svg version="1.1" xmlns="http://www.w3.org/2000/svg" xmlns:xlink="http://www.w3.org/1999/xlink" x="0px" y="0px" width="24px"
	 height="24px" viewBox="0 0 24 24" enable-background="new 0 0 24 24" xml:space="preserve">
<g id="Outline_Icons">
	<g>
		<polyline fill="none" stroke="#000000" stroke-linecap="round" stroke-linejoin="round" stroke-miterlimit="10" points="3.5,18 
			0.5,16 3.5,14 0.5,12 3.5,10 0.5,8 3.5,6 		"/>
		<polyline fill="none" stroke="#000000" stroke-linecap="round" stroke-linejoin="round" stroke-miterlimit="10" points="20.5,18 
			23.5,16 20.5,14 23.5,12 20.5,10 23.5,8 20.5,6 		"/>
		<path fill="none" stroke="#000000" stroke-linecap="round" stroke-linejoin="round" stroke-miterlimit="10" d="M9,7.5l1.364-2
			h3.271L15,7.5h2c0.825,0,1.5,0.856,1.5,1.682V15c0,0.825-0.675,1.5-1.5,1.5H7c-0.825,0-1.5-0.675-1.5-1.5V9.182
			C5.5,8.356,6.175,7.5,7,7.5H9"/>
		<circle fill="none" stroke="#000000" stroke-linejoin="round" stroke-miterlimit="10" cx="12" cy="12" r="2.5"/>
		<g>
			<path d="M16.5,9C16.224,9,16,9.224,16,9.5s0.224,0.5,0.5,0.5S17,9.776,17,9.5S16.776,9,16.5,9L16.5,9z"/>
		</g>
	</g>
</g>
<g id="Invisible_Shape">
	<rect fill="none" width="24" height="24"/>
</g>
</svg>
