<?xml version="1.0" encoding="utf-8"?>
<!-- Generator: Adobe Illustrator 16.0.3, SVG Export Plug-In . SVG Version: 6.00 Build 0)  -->
<!DOCTYPE svg PUBLIC "-//W3C//DTD SVG 1.1//EN" "http://www.w3.org/Graphics/SVG/1.1/DTD/svg11.dtd">
<svg version="1.1" xmlns="http://www.w3.org/2000/svg" xmlns:xlink="http://www.w3.org/1999/xlink" x="0px" y="0px" width="24px"
	 height="24px" viewBox="0 0 24 24" enable-background="new 0 0 24 24" xml:space="preserve">
<g id="Outline_Icons">
	<g>
		<rect x="0.5" y="0.5" fill="none" stroke="#000000" stroke-linejoin="round" stroke-miterlimit="10" width="23" height="23"/>
		
			<line fill="none" stroke="#000000" stroke-linecap="round" stroke-linejoin="round" stroke-miterlimit="10" x1="11.5" y1="15.5" x2="11.5" y2="19.484"/>
		<line fill="none" stroke="#000000" stroke-linejoin="round" stroke-miterlimit="10" x1="0.5" y1="19.5" x2="23.5" y2="19.5"/>
		<path fill="none" stroke="#000000" stroke-linejoin="round" stroke-miterlimit="10" d="M12.953,9.52c0,0,1.066-1.082,2.422-1.075
			c1.354,0.007,2.746,0.224,2.906,1.077c-0.125,0.921-1.54,1.14-2.781,1.089C14.259,10.558,13.458,10.047,12.953,9.52z"/>
		<path fill="none" stroke="#000000" stroke-linejoin="round" stroke-miterlimit="10" d="M9.984,9.52c0,0-1.066-1.082-2.422-1.075
			C6.208,8.452,4.816,8.669,4.656,9.521c0.125,0.921,1.54,1.14,2.781,1.089C8.679,10.558,9.479,10.047,9.984,9.52z"/>
		<path fill="none" stroke="#000000" stroke-linejoin="round" stroke-miterlimit="10" d="M10.611,7.982c0,0,0.429-1.458-0.236-2.639
			s-1.53-2.291-2.354-2.017c-0.744,0.557-0.248,1.899,0.4,2.959C9.07,7.346,9.906,7.798,10.611,7.982z"/>
		<path fill="none" stroke="#000000" stroke-linejoin="round" stroke-miterlimit="10" d="M12.224,7.982c0,0-0.428-1.458,0.237-2.639
			c0.664-1.181,1.529-2.291,2.353-2.017c0.745,0.557,0.248,1.899-0.399,2.959C13.766,7.346,12.93,7.798,12.224,7.982z"/>
		<path fill="none" stroke="#000000" stroke-linejoin="round" stroke-miterlimit="10" d="M10.604,10.986
			c0,0,0.428,1.458-0.237,2.639c-0.664,1.181-1.529,2.291-2.353,2.017c-0.745-0.555-0.248-1.899,0.399-2.959
			C9.062,11.623,9.898,11.171,10.604,10.986z"/>
		<path fill="none" stroke="#000000" stroke-linejoin="round" stroke-miterlimit="10" d="M12.217,10.986
			c0,0-0.428,1.458,0.236,2.639c0.665,1.181,1.53,2.291,2.354,2.017c0.744-0.555,0.248-1.899-0.4-2.959
			C13.758,11.623,12.922,11.171,12.217,10.986z"/>
	</g>
</g>
<g id="Invisible_Shape">
	<rect fill="none" width="24" height="24"/>
</g>
</svg>
