<?xml version="1.0" encoding="utf-8"?>
<!-- Generator: Adobe Illustrator 16.0.3, SVG Export Plug-In . SVG Version: 6.00 Build 0)  -->
<!DOCTYPE svg PUBLIC "-//W3C//DTD SVG 1.1//EN" "http://www.w3.org/Graphics/SVG/1.1/DTD/svg11.dtd">
<svg version="1.1" xmlns="http://www.w3.org/2000/svg" xmlns:xlink="http://www.w3.org/1999/xlink" x="0px" y="0px" width="24px"
	 height="24px" viewBox="0 0 24 24" enable-background="new 0 0 24 24" xml:space="preserve">
<g id="Outline_Icons_1_">
	<g id="Outline_Icons">
		<g>
			
				<circle fill="none" stroke="#000000" stroke-linecap="round" stroke-linejoin="round" stroke-miterlimit="10" cx="12" cy="12" r="3.5"/>
			<path fill="none" stroke="#000000" stroke-linecap="round" stroke-linejoin="round" stroke-miterlimit="10" d="M15.396,18.063
				C14.367,18.659,13.119,19,11.845,19c-3.866,0-7.026-3.133-7.026-7c0-3.866,3.121-7,6.987-7c9.5,0,9.097,10.5,5.097,10.5
				c-1.5,0-1.387-1.016-1.387-1.5V9"/>
			<path fill="none" stroke="#000000" stroke-linejoin="round" stroke-miterlimit="10" d="M0.5,4.5H1c0.828,0,1.5,0.672,1.5,1.5
				c0,0.829-0.672,1.5-1.5,1.5H0.5v3H1c0.828,0,1.5,0.672,1.5,1.5c0,0.829-0.672,1.5-1.5,1.5H0.5v3H1c0.828,0,1.5,0.672,1.5,1.5
				c0,0.829-0.672,1.5-1.5,1.5H0.5v3c0,0.553,0.447,1,1,1c1.185,0,3,0,3,0V23c0-0.828,0.672-1.5,1.5-1.5s1.5,0.672,1.5,1.5v0.5h3V23
				c0-0.828,0.672-1.5,1.5-1.5s1.5,0.672,1.5,1.5v0.5h3V23c0-0.828,0.672-1.5,1.5-1.5s1.5,0.672,1.5,1.5v0.5h3c0.553,0,1-0.448,1-1
				c0-1.185,0-3,0-3H23c-0.828,0-1.5-0.671-1.5-1.5c0-0.828,0.672-1.5,1.5-1.5h0.5v-3H23c-0.828,0-1.5-0.671-1.5-1.5
				c0-0.828,0.672-1.5,1.5-1.5h0.5v-3H23c-0.828,0-1.5-0.671-1.5-1.5c0-0.828,0.672-1.5,1.5-1.5h0.5c0,0,0-1.814,0-3
				c0-0.552-0.447-1-1-1h-3V1c0,0.829-0.672,1.5-1.5,1.5S16.5,1.829,16.5,1V0.5h-3V1c0,0.829-0.672,1.5-1.5,1.5S10.5,1.829,10.5,1
				V0.5h-3V1c0,0.829-0.672,1.5-1.5,1.5S4.5,1.829,4.5,1V0.5h-3c-0.553,0-1,0.448-1,1C0.5,2.686,0.5,4.5,0.5,4.5z"/>
		</g>
	</g>
	<g id="New_icons_1_">
	</g>
</g>
<g id="Invisible_Shape">
	<rect fill="none" width="24" height="24"/>
</g>
</svg>
