<?xml version="1.0" encoding="utf-8"?>
<!-- Generator: Adobe Illustrator 16.0.3, SVG Export Plug-In . SVG Version: 6.00 Build 0)  -->
<!DOCTYPE svg PUBLIC "-//W3C//DTD SVG 1.1//EN" "http://www.w3.org/Graphics/SVG/1.1/DTD/svg11.dtd">
<svg version="1.1" xmlns="http://www.w3.org/2000/svg" xmlns:xlink="http://www.w3.org/1999/xlink" x="0px" y="0px" width="24px"
	 height="24px" viewBox="0 0 24 24" enable-background="new 0 0 24 24" xml:space="preserve">
<g id="Outline_Icons_1_">
	<g id="Outline_Icons">
	</g>
	<g id="New_icons_1_">
		<g>
			<g>
				<path fill="none" stroke="#000000" stroke-linecap="round" stroke-linejoin="round" stroke-miterlimit="10" d="M23.5,19.912
					c0,0.877-0.671,1.588-1.5,1.588H2c-0.828,0-1.5-0.711-1.5-1.588V5.088C0.5,4.211,1.172,3.5,2,3.5h20
					c0.829,0,1.5,0.711,1.5,1.588V19.912z"/>
				
					<line fill="none" stroke="#000000" stroke-linecap="round" stroke-linejoin="round" stroke-miterlimit="10" x1="5" y1="23.5" x2="19" y2="23.5"/>
				
					<line fill="none" stroke="#000000" stroke-linecap="round" stroke-linejoin="round" stroke-miterlimit="10" x1="12" y1="21.5" x2="12" y2="23.5"/>
				<circle fill="none" stroke="#000000" stroke-linejoin="round" stroke-miterlimit="10" cx="12" cy="19.5" r="0.5"/>
				<line fill="none" stroke="#000000" stroke-linejoin="round" stroke-miterlimit="10" x1="0.5" y1="17.5" x2="23.5" y2="17.5"/>
			</g>
			<g>
				<path fill="none" stroke="#000000" stroke-linecap="round" stroke-linejoin="round" stroke-miterlimit="10" d="M17.5,13
					c0,0.828-0.672,1.5-1.5,1.5H8c-0.828,0-1.5-0.672-1.5-1.5V9c0-0.828,0.672-1.5,1.5-1.5h8c0.828,0,1.5,0.672,1.5,1.5V13z"/>
				<polyline fill="none" stroke="#000000" stroke-linecap="round" stroke-linejoin="round" stroke-miterlimit="10" points="15,9.5 
					12,12 9,9.5 				"/>
				
					<line fill="none" stroke="#000000" stroke-linecap="round" stroke-linejoin="round" stroke-miterlimit="10" x1="9" y1="12.5" x2="10.636" y2="10.864"/>
				
					<line fill="none" stroke="#000000" stroke-linecap="round" stroke-linejoin="round" stroke-miterlimit="10" x1="15" y1="12.5" x2="13.364" y2="10.864"/>
			</g>
		</g>
	</g>
</g>
<g id="Invisible_Shape">
	<rect fill="none" width="24" height="24"/>
</g>
</svg>
