<?xml version="1.0" encoding="utf-8"?>
<!-- Generator: Adobe Illustrator 16.0.3, SVG Export Plug-In . SVG Version: 6.00 Build 0)  -->
<!DOCTYPE svg PUBLIC "-//W3C//DTD SVG 1.1//EN" "http://www.w3.org/Graphics/SVG/1.1/DTD/svg11.dtd">
<svg version="1.1" xmlns="http://www.w3.org/2000/svg" xmlns:xlink="http://www.w3.org/1999/xlink" x="0px" y="0px" width="24px"
	 height="24px" viewBox="0 0 24 24" enable-background="new 0 0 24 24" xml:space="preserve">
<g id="Outline_Icons_1_">
	<g id="Outline_Icons">
	</g>
	<g id="New_icons_1_">
		<g>
			<path fill="none" stroke="#000000" stroke-linecap="round" stroke-linejoin="round" stroke-miterlimit="10" d="M19.5,8.75l4,2.75
				V22c0,0.828-0.672,1.5-1.5,1.5H2c-0.828,0-1.5-0.672-1.5-1.5V11.5l4-2.75"/>
			<polyline fill="none" stroke="#000000" stroke-linecap="round" stroke-linejoin="round" stroke-miterlimit="10" points="
				3.5,20.5 8.5,16.5 15.5,16.5 20.5,20.5 			"/>
			
				<line fill="none" stroke="#000000" stroke-linecap="round" stroke-linejoin="round" stroke-miterlimit="10" x1="23.5" y1="11.5" x2="17.5" y2="15.5"/>
			
				<line fill="none" stroke="#000000" stroke-linecap="round" stroke-linejoin="round" stroke-miterlimit="10" x1="0.5" y1="11.5" x2="6.5" y2="15.5"/>
			<polyline fill="none" stroke="#000000" stroke-linecap="round" stroke-linejoin="round" stroke-miterlimit="10" points="
				19.5,14.167 19.5,0.5 4.5,0.5 4.5,14.167 			"/>
			<path fill="none" stroke="#000000" stroke-linecap="round" stroke-linejoin="round" stroke-miterlimit="10" d="M10.5,12.732
				C10.5,13.5,9.769,13.5,9,13.5S7.481,13.153,7.481,12c0-1.152,0.787-1.5,1.556-1.5c0.77,0,1.463,0,1.463,0
				C10.5,11.5,10.5,11.963,10.5,12.732z"/>
			<polyline fill="none" stroke="#000000" stroke-linecap="round" stroke-linejoin="round" stroke-miterlimit="10" points="
				10.5,10.5 10.5,6.5 15.5,3.5 15.5,8.5 			"/>
			<path fill="none" stroke="#000000" stroke-linecap="round" stroke-linejoin="round" stroke-miterlimit="10" d="M15.5,11.193
				c0,0.77-0.925,0.77-1.693,0.77c-0.77,0-1.616-0.578-1.616-1.73c0-1.154,0.69-1.732,1.46-1.732c0.769,0,0.85,0,1.85,0
				C15.5,9.5,15.5,10.425,15.5,11.193z"/>
		</g>
	</g>
</g>
<g id="Invisible_Shape">
	<rect fill="none" width="24" height="24"/>
</g>
</svg>
