<?xml version="1.0" encoding="utf-8"?>
<!-- Generator: Adobe Illustrator 16.0.3, SVG Export Plug-In . SVG Version: 6.00 Build 0)  -->
<!DOCTYPE svg PUBLIC "-//W3C//DTD SVG 1.1//EN" "http://www.w3.org/Graphics/SVG/1.1/DTD/svg11.dtd">
<svg version="1.1" xmlns="http://www.w3.org/2000/svg" xmlns:xlink="http://www.w3.org/1999/xlink" x="0px" y="0px" width="24px"
	 height="24px" viewBox="0 0 24 24" enable-background="new 0 0 24 24" xml:space="preserve">
<g id="Outline_Icons_1_">
	<g id="Outline_Icons">
		<g>
			<g>
				<path fill="none" stroke="#000000" stroke-linejoin="round" stroke-miterlimit="10" d="M22.375,13.918l1.072-0.619l-1.5-2.598
					l-1.081,0.624c-0.53-0.486-1.164-0.849-1.866-1.071V9h-3v1.254c-0.702,0.222-1.336,0.584-1.866,1.071l-1.081-0.624l-1.5,2.598
					l1.072,0.619c-0.166,0.748-0.167,1.413,0,2.165l-1.07,0.618l1.5,2.598l1.079-0.623c0.53,0.485,1.164,0.848,1.866,1.07V21h3
					v-1.254c0.702-0.222,1.336-0.584,1.866-1.07l1.079,0.623l1.5-2.598l-1.07-0.618C22.542,15.331,22.541,14.666,22.375,13.918z"/>
				<circle fill="none" stroke="#000000" stroke-linejoin="round" stroke-miterlimit="10" cx="17.5" cy="15" r="2"/>
			</g>
			<g>
				<path fill="none" stroke="#000000" stroke-linecap="round" stroke-linejoin="round" stroke-miterlimit="10" d="M9.5,15.5H1.974
					C1.146,15.5,0.5,14.828,0.5,14V3c0-0.829,0.646-1.5,1.474-1.5h18C20.802,1.5,21.5,2.171,21.5,3v4.5"/>
				<polyline fill="none" stroke="#000000" stroke-linecap="round" stroke-linejoin="round" stroke-miterlimit="10" points="
					21.031,1.958 10.974,10 0.914,1.953 				"/>
			</g>
		</g>
	</g>
	<g id="New_icons_1_">
	</g>
</g>
<g id="Invisible_Shape">
	<rect fill="none" width="24" height="24"/>
</g>
</svg>
