<?xml version="1.0" encoding="utf-8"?>
<!-- Generator: Adobe Illustrator 16.0.3, SVG Export Plug-In . SVG Version: 6.00 Build 0)  -->
<!DOCTYPE svg PUBLIC "-//W3C//DTD SVG 1.1//EN" "http://www.w3.org/Graphics/SVG/1.1/DTD/svg11.dtd">
<svg version="1.1" xmlns="http://www.w3.org/2000/svg" xmlns:xlink="http://www.w3.org/1999/xlink" x="0px" y="0px" width="24px"
	 height="24px" viewBox="0 0 24 24" enable-background="new 0 0 24 24" xml:space="preserve">
<g id="Outline_Icons_1_">
	<g id="Outline_Icons">
		<g>
			<polygon fill="none" stroke="#000000" stroke-linejoin="round" stroke-miterlimit="10" points="17.5,17.5 15.357,9.5 
				13.042,15.259 10.604,13.255 8.667,17.5 			"/>
			<g>
				<polygon fill="none" stroke="#000000" stroke-linejoin="round" stroke-miterlimit="10" points="22.946,22.944 20.752,21.87 
					19.003,23.13 17.254,21.87 15.51,23.13 13.761,21.87 12.014,23.13 10.264,21.87 8.513,23.13 6.764,21.87 5.011,23.13 
					3.256,21.87 1.056,22.946 2.13,20.752 0.87,19.003 2.13,17.254 0.87,15.511 2.13,13.761 0.87,12.014 2.13,10.266 0.87,8.513 
					2.13,6.766 0.87,5.011 2.13,3.257 1.054,1.056 3.248,2.13 4.997,0.87 6.746,2.13 8.49,0.87 10.239,2.13 11.986,0.87 
					13.736,2.13 15.487,0.87 17.236,2.13 18.989,0.87 20.744,2.13 22.944,1.054 21.87,3.248 23.13,4.997 21.87,6.746 23.13,8.49 
					21.87,10.239 23.13,11.986 21.87,13.736 23.13,15.487 21.87,17.236 23.13,18.989 21.874,20.815 				"/>
			</g>
			<rect x="4.5" y="4.5" fill="none" stroke="#000000" stroke-linejoin="round" stroke-miterlimit="10" width="15" height="15"/>
			<circle fill="none" stroke="#000000" stroke-linejoin="round" stroke-miterlimit="10" cx="9" cy="9" r="2"/>
		</g>
	</g>
	<g id="New_icons_1_">
	</g>
</g>
<g id="Invisible_Shape">
	<rect fill="none" width="24" height="24"/>
</g>
</svg>
