<?xml version="1.0" encoding="utf-8"?>
<!-- Generator: Adobe Illustrator 16.0.3, SVG Export Plug-In . SVG Version: 6.00 Build 0)  -->
<!DOCTYPE svg PUBLIC "-//W3C//DTD SVG 1.1//EN" "http://www.w3.org/Graphics/SVG/1.1/DTD/svg11.dtd">
<svg version="1.1" xmlns="http://www.w3.org/2000/svg" xmlns:xlink="http://www.w3.org/1999/xlink" x="0px" y="0px" width="24px"
	 height="24px" viewBox="0 0 24 24" enable-background="new 0 0 24 24" xml:space="preserve">
<g id="Outline_Icons_1_">
	<g id="Outline_Icons">
		<g>
			<path fill="none" stroke="#000000" stroke-linecap="round" stroke-linejoin="round" stroke-miterlimit="10" d="M9.004,4.104
				c-2.17-1.047-5.162-0.111-5.477,1.688c0.43,0.26,0.749,0.672,0.889,1.165"/>
			<path fill="none" stroke="#000000" stroke-linecap="round" stroke-linejoin="round" stroke-miterlimit="10" d="M3.527,5.792
				C2.18,4.98,0.5,5.96,0.5,7.5c0,1.605,1.791,2.541,3.106,1.665C4.348,11.232,8.104,11.371,9.5,10.5"/>
			<path fill="none" stroke="#000000" stroke-linecap="round" stroke-linejoin="round" stroke-miterlimit="10" d="M11.027,17.708
				C9.68,18.522,8,17.54,8,16c0-1.604,1.791-2.54,3.106-1.665"/>
			<path fill="none" stroke="#000000" stroke-linecap="round" stroke-linejoin="round" stroke-miterlimit="10" d="M9.5,10.5
				c1,1,1,1.5,1,3.5"/>
			<path fill="none" stroke="#000000" stroke-linecap="round" stroke-linejoin="round" stroke-miterlimit="10" d="M16.865,3.672
				C15.943,2.084,14.112,1,12,1S8.057,2.084,7.135,3.672"/>
			<path fill="none" stroke="#000000" stroke-linecap="round" stroke-linejoin="round" stroke-miterlimit="10" d="M14.5,10.5
				c-0.676,0.341-1.588,0.511-2.5,0.511c-0.912,0-1.824-0.17-2.5-0.511"/>
			<path fill="none" stroke="#000000" stroke-linecap="round" stroke-linejoin="round" stroke-miterlimit="10" d="M14.996,4.104
				c2.17-1.047,5.162-0.111,5.477,1.688c-0.43,0.26-0.749,0.672-0.889,1.165"/>
			<path fill="none" stroke="#000000" stroke-linecap="round" stroke-linejoin="round" stroke-miterlimit="10" d="M20.473,5.792
				C21.82,4.98,23.5,5.96,23.5,7.5c0,1.605-1.791,2.541-3.106,1.665c-0.741,2.067-4.497,2.206-5.894,1.335"/>
			<path fill="none" stroke="#000000" stroke-linecap="round" stroke-linejoin="round" stroke-miterlimit="10" d="M12.973,17.708
				C14.32,18.522,16,17.54,16,16c0-1.604-1.791-2.54-3.106-1.665"/>
			<path fill="none" stroke="#000000" stroke-linecap="round" stroke-linejoin="round" stroke-miterlimit="10" d="M14.5,10.5
				c-1,1-1,1.5-1,3.5"/>
			<path fill="none" stroke="#000000" stroke-linecap="round" stroke-linejoin="round" stroke-miterlimit="10" d="M13.5,18
				c0,5.5,8,2.195,8,5.5h-19c0-3.305,8,0,8-5.5"/>
		</g>
	</g>
	<g id="New_icons_1_">
	</g>
</g>
<g id="Frames-24px">
	<rect fill="none" width="24" height="24"/>
</g>
</svg>
