<?xml version="1.0" encoding="utf-8"?>
<!-- Generator: Adobe Illustrator 16.0.3, SVG Export Plug-In . SVG Version: 6.00 Build 0)  -->
<!DOCTYPE svg PUBLIC "-//W3C//DTD SVG 1.1//EN" "http://www.w3.org/Graphics/SVG/1.1/DTD/svg11.dtd">
<svg version="1.1" xmlns="http://www.w3.org/2000/svg" xmlns:xlink="http://www.w3.org/1999/xlink" x="0px" y="0px" width="24px"
	 height="24px" viewBox="0 0 24 24" enable-background="new 0 0 24 24" xml:space="preserve">
<g id="Outline_Icons_1_">
	<g id="Outline_Icons">
	</g>
	<g id="New_icons_1_">
		<g>
			
				<rect x="8.128" y="4.912" transform="matrix(-0.7072 -0.707 0.707 -0.7072 7.7779 30.721)" fill="none" stroke="#000000" stroke-linecap="round" stroke-linejoin="round" stroke-miterlimit="10" width="4.243" height="17.676"/>
			<path fill="none" stroke="#000000" stroke-linecap="round" stroke-linejoin="round" stroke-miterlimit="10" d="M11.918,15.082
				L21,23.5c1.699,0,2.5,0.195,2.5-2.5l-9.76-7.739"/>
			<path fill="none" stroke="#000000" stroke-linecap="round" stroke-linejoin="round" stroke-miterlimit="10" d="M22.5,4.5
				c0.781,0.781,0.781,2.22,0,3l-5,5"/>
			
				<line fill="none" stroke="#000000" stroke-linecap="round" stroke-linejoin="round" stroke-miterlimit="10" x1="2.25" y1="21.75" x2="0.5" y2="23.5"/>
			
				<rect x="17.129" y="0.861" transform="matrix(0.7071 0.7071 -0.7071 0.7071 8.997 -12.2206)" fill="none" stroke="#000000" stroke-linecap="round" stroke-linejoin="round" stroke-miterlimit="10" width="4.243" height="7.778"/>
			<polyline fill="none" stroke="#000000" stroke-linecap="round" stroke-linejoin="round" stroke-miterlimit="10" points="
				3.249,19.25 1.5,20.999 3,22.5 4.75,20.75 			"/>
			<path fill="none" stroke="#000000" stroke-linecap="round" stroke-linejoin="round" stroke-miterlimit="10" d="M3,0.5
				C2.816,4.241,6.217,3.781,7.68,4.871C9.229,6.026,9.556,8.27,8.398,9.818C4.652,14.842-2.588,5.902,3,0.5z"/>
			<path fill="none" stroke="#000000" stroke-linecap="round" stroke-linejoin="round" stroke-miterlimit="10" d="M10.393,10.606
				L8.727,9.285L8.7,9.315C8.611,9.489,8.518,9.659,8.398,9.818c-0.332,0.444-0.691,0.774-1.066,1.013l1.472,1.363"/>
		</g>
	</g>
</g>
<g id="Frames-24px">
	<rect fill="none" width="24" height="24"/>
</g>
</svg>
