<?xml version="1.0" encoding="utf-8"?>
<!-- Generator: Adobe Illustrator 16.0.3, SVG Export Plug-In . SVG Version: 6.00 Build 0)  -->
<!DOCTYPE svg PUBLIC "-//W3C//DTD SVG 1.1//EN" "http://www.w3.org/Graphics/SVG/1.1/DTD/svg11.dtd">
<svg version="1.1" xmlns="http://www.w3.org/2000/svg" xmlns:xlink="http://www.w3.org/1999/xlink" x="0px" y="0px" width="24px"
	 height="24px" viewBox="0 0 24 24" enable-background="new 0 0 24 24" xml:space="preserve">
<g id="Outline_Icons_1_">
	<g id="Outline_Icons">
		<g>
			<path fill="none" stroke="#000000" stroke-linecap="round" stroke-linejoin="round" stroke-miterlimit="10" d="M16.5,23v-5
				c2.762,0,5-2.239,5-5v-2.5C21.5,5.254,17.247,1,12,1c-5.246,0-9.5,4.254-9.5,9.5V13c0,2.761,2.238,5,5,5v5"/>
			
				<line fill="none" stroke="#000000" stroke-linecap="round" stroke-linejoin="round" stroke-miterlimit="10" x1="10.5" y1="18" x2="10.5" y2="23"/>
			
				<line fill="none" stroke="#000000" stroke-linecap="round" stroke-linejoin="round" stroke-miterlimit="10" x1="13.5" y1="18" x2="13.5" y2="23"/>
			
				<circle fill="none" stroke="#000000" stroke-linecap="round" stroke-linejoin="round" stroke-miterlimit="10" cx="16.5" cy="13" r="3"/>
			
				<circle fill="none" stroke="#000000" stroke-linecap="round" stroke-linejoin="round" stroke-miterlimit="10" cx="7.5" cy="13" r="3"/>
			<path fill="none" stroke="#000000" stroke-linecap="round" stroke-linejoin="round" stroke-miterlimit="10" d="M6.441,5
				c0,2.734-1.637,4-3.441,4H2.625"/>
			<path fill="none" stroke="#000000" stroke-linecap="round" stroke-linejoin="round" stroke-miterlimit="10" d="M17.559,5
				c0,2.734,1.637,4,3.441,4h0.359"/>
			<polygon fill="none" stroke="#000000" stroke-linecap="round" stroke-linejoin="round" stroke-miterlimit="10" points="11.5,16 
				12,15 12.5,16 			"/>
		</g>
	</g>
	<g id="New_icons_1_">
	</g>
</g>
<g id="Frames-24px">
	<rect fill="none" width="24" height="24"/>
</g>
</svg>
