<?xml version="1.0" encoding="utf-8"?>
<!-- Generator: Adobe Illustrator 16.0.3, SVG Export Plug-In . SVG Version: 6.00 Build 0)  -->
<!DOCTYPE svg PUBLIC "-//W3C//DTD SVG 1.1//EN" "http://www.w3.org/Graphics/SVG/1.1/DTD/svg11.dtd">
<svg version="1.1" xmlns="http://www.w3.org/2000/svg" xmlns:xlink="http://www.w3.org/1999/xlink" x="0px" y="0px" width="24px"
	 height="24px" viewBox="0 0 24 24" enable-background="new 0 0 24 24" xml:space="preserve">
<g id="Outline_Icons_1_">
	<g id="Outline_Icons">
		<g>
			<path fill="none" stroke="#000000" stroke-linecap="round" stroke-linejoin="round" stroke-miterlimit="10" d="M19.5,13.5v8
				c0,1.1-0.899,2-2,2h-11c-1.1,0-2-0.9-2-2v-8"/>
			<g>
				<g>
					<g>
						<polygon points="7,19 6,19 6,20 7,20 7,19 						"/>
					</g>
				</g>
			</g>
			<g>
				<g>
					<g>
						<polygon points="9,19 8,19 8,20 9,20 9,19 						"/>
					</g>
				</g>
			</g>
			<g>
				<g>
					<g>
						<polygon points="11,19 10,19 10,20 11,20 11,19 						"/>
					</g>
				</g>
			</g>
			<g>
				<g>
					<g>
						<polygon points="13,19 12,19 12,20 13,20 13,19 						"/>
					</g>
				</g>
			</g>
			<g>
				<g>
					<g>
						<polygon points="15,19 14,19 14,20 15,20 15,19 						"/>
					</g>
				</g>
			</g>
			<g>
				<g>
					<g>
						<polygon points="17,19 16,19 16,20 17,20 17,19 						"/>
					</g>
				</g>
			</g>
			<g>
				<g>
					<g>
						<polygon points="8,21 7,21 7,22 8,22 8,21 						"/>
					</g>
				</g>
			</g>
			<g>
				<g>
					<g>
						<polygon points="10,21 9,21 9,22 10,22 10,21 						"/>
					</g>
				</g>
			</g>
			<g>
				<g>
					<g>
						<polygon points="12,21 11,21 11,22 12,22 12,21 						"/>
					</g>
				</g>
			</g>
			<g>
				<g>
					<g>
						<polygon points="14,21 13,21 13,22 14,22 14,21 						"/>
					</g>
				</g>
			</g>
			<g>
				<g>
					<g>
						<polygon points="16,21 15,21 15,22 16,22 16,21 						"/>
					</g>
				</g>
			</g>
			<g>
				<g>
					<g>
						<polygon points="18,21 17,21 17,22 18,22 18,21 						"/>
					</g>
				</g>
			</g>
			
				<line fill="none" stroke="#000000" stroke-linecap="round" stroke-linejoin="round" stroke-miterlimit="10" x1="4.5" y1="17.5" x2="19.5" y2="17.5"/>
			
				<circle fill="none" stroke="#000000" stroke-linecap="round" stroke-linejoin="round" stroke-miterlimit="10" cx="4.5" cy="11.5" r="2"/>
			
				<circle fill="none" stroke="#000000" stroke-linecap="round" stroke-linejoin="round" stroke-miterlimit="10" cx="19.5" cy="11.5" r="2"/>
			
				<rect x="1.5" y="3.5" fill="none" stroke="#000000" stroke-linecap="round" stroke-linejoin="round" stroke-miterlimit="10" width="21" height="5"/>
			
				<line fill="none" stroke="#000000" stroke-linecap="round" stroke-linejoin="round" stroke-miterlimit="10" x1="22.5" y1="2.5" x2="22.5" y2="9.5"/>
			
				<line fill="none" stroke="#000000" stroke-linecap="round" stroke-linejoin="round" stroke-miterlimit="10" x1="1.5" y1="2.5" x2="1.5" y2="9.5"/>
			
				<line fill="none" stroke="#000000" stroke-linecap="round" stroke-linejoin="round" stroke-miterlimit="10" x1="0.5" y1="5.5" x2="1.5" y2="5.5"/>
			
				<line fill="none" stroke="#000000" stroke-linecap="round" stroke-linejoin="round" stroke-miterlimit="10" x1="22.5" y1="5.5" x2="23.5" y2="5.5"/>
			<path fill="none" stroke="#000000" stroke-linecap="round" stroke-linejoin="round" stroke-miterlimit="10" d="M19.5,3.5
				c0,0,0-0.675,0-1.5s-0.899-1.5-2-1.5h-11c-1.1,0-2,0.675-2,1.5s0,1.5,0,1.5"/>
			<path fill="none" stroke="#000000" stroke-linecap="round" stroke-linejoin="round" stroke-miterlimit="10" d="M18.322,13.116
				C16.989,13.948,15,15.5,12,15.5s-4.992-1.552-6.325-2.387"/>
		</g>
	</g>
	<g id="New_icons_1_">
	</g>
</g>
<g id="Frames-24px">
	<rect fill="none" width="24" height="24"/>
</g>
</svg>
