<?xml version="1.0" encoding="utf-8"?>
<!-- Generator: Adobe Illustrator 16.0.3, SVG Export Plug-In . SVG Version: 6.00 Build 0)  -->
<!DOCTYPE svg PUBLIC "-//W3C//DTD SVG 1.1//EN" "http://www.w3.org/Graphics/SVG/1.1/DTD/svg11.dtd">
<svg version="1.1" xmlns="http://www.w3.org/2000/svg" xmlns:xlink="http://www.w3.org/1999/xlink" x="0px" y="0px" width="24px"
	 height="24px" viewBox="0 0 24 24" enable-background="new 0 0 24 24" xml:space="preserve">
<g id="Outline_Icons_1_">
	<g id="Outline_Icons">
		<g>
			<path fill="none" stroke="#000000" stroke-linecap="round" stroke-linejoin="round" stroke-miterlimit="10" d="M7.5,17.5h-5
				c-1.104,0-2-0.896-2-2v-13c0-1.104,0.896-2,2-2h19c1.105,0,2,0.896,2,2v9"/>
			<polyline fill="none" stroke="#000000" stroke-linecap="round" stroke-linejoin="round" stroke-miterlimit="10" points="
				7.5,15.5 4.5,15.5 4.5,2.5 20.5,2.5 20.5,11.5 			"/>
			<g>
				<g>
					<g>
						<g>
							<path d="M22,8.5c-0.275,0-0.5,0.224-0.5,0.5s0.225,0.5,0.5,0.5c0.276,0,0.5-0.224,0.5-0.5S22.276,8.5,22,8.5L22,8.5z"/>
						</g>
					</g>
				</g>
			</g>
			<path fill="none" stroke="#000000" stroke-linejoin="round" stroke-miterlimit="10" d="M17.5,13.309V7.97
				C17.5,7.435,17.282,7,16.75,7h-1.448C14.77,7,14.5,7.435,14.5,7.97v9.221l-1.72-2.058c-0.183-0.233-0.501-0.368-0.797-0.368
				l-0.999,0.019c-0.341,0-0.666,0.181-0.84,0.476c-0.174,0.296-0.185,0.661-0.021,0.961l3.736,6.775
				c0.17,0.312,0.49,0.505,0.844,0.505h6.386c0.391,0,0.742-0.237,0.892-0.6l1.52-6.681c0-0.426-0.185-0.845-0.59-0.97L17.5,13.309z
				"/>
			<path fill="none" stroke="#000000" stroke-linejoin="round" stroke-miterlimit="10" d="M3,9c0,0.276-0.224,0.5-0.5,0.5l0,0
				C2.224,9.5,2,9.276,2,9l0,0c0-0.276,0.224-0.5,0.5-0.5l0,0C2.776,8.5,3,8.724,3,9L3,9z"/>
		</g>
	</g>
	<g id="New_icons_1_">
	</g>
</g>
<g id="Invisible_Shape">
	<rect fill="none" width="24" height="24"/>
</g>
</svg>
