<?xml version="1.0" encoding="utf-8"?>
<!-- Generator: Adobe Illustrator 16.0.3, SVG Export Plug-In . SVG Version: 6.00 Build 0)  -->
<!DOCTYPE svg PUBLIC "-//W3C//DTD SVG 1.1//EN" "http://www.w3.org/Graphics/SVG/1.1/DTD/svg11.dtd">
<svg version="1.1" xmlns="http://www.w3.org/2000/svg" xmlns:xlink="http://www.w3.org/1999/xlink" x="0px" y="0px" width="24px"
	 height="24px" viewBox="0 0 24 24" enable-background="new 0 0 24 24" xml:space="preserve">
<g id="Outline_Icons_1_">
	<g id="Outline_Icons">
		<g>
			<path fill="none" stroke="#000000" stroke-linecap="round" stroke-linejoin="round" stroke-miterlimit="10" d="M22,23.482
				l-2.5-3.5v-4.559c0-1.694-2.081-2.539-4-4.176"/>
			<path fill="none" stroke="#000000" stroke-linecap="round" stroke-linejoin="round" stroke-miterlimit="10" d="M17,17.482
				l-2.75-2.75c-0.414-0.414-1.086-0.414-1.5,0s-0.414,1.086,0,1.5l2.75,3.25v1.539c0,0.961,1.5,2.479,1.5,2.479"/>
			<path fill="none" stroke="#000000" stroke-linecap="round" stroke-linejoin="round" stroke-miterlimit="10" d="M12.5,21.482H7
				c-0.824,0-1.5-0.675-1.5-1.5v-11c0-0.825,0.676-1.5,1.5-1.5h7c0.825,0,1.5,0.675,1.5,1.5v4.998"/>
			<g>
				<g>
					<g>
						<path d="M8.5,9.982c-0.276,0-0.5,0.225-0.5,0.5s0.224,0.5,0.5,0.5s0.5-0.225,0.5-0.5S8.776,9.982,8.5,9.982L8.5,9.982z"/>
					</g>
				</g>
			</g>
			<g>
				<g>
					<g>
						<path d="M10.5,9.982c-0.276,0-0.5,0.225-0.5,0.5s0.224,0.5,0.5,0.5s0.5-0.225,0.5-0.5S10.776,9.982,10.5,9.982L10.5,9.982z"/>
					</g>
				</g>
			</g>
			<g>
				<g>
					<g>
						<path d="M12.5,9.982c-0.276,0-0.5,0.225-0.5,0.5s0.224,0.5,0.5,0.5s0.5-0.225,0.5-0.5S12.776,9.982,12.5,9.982L12.5,9.982z"/>
					</g>
				</g>
			</g>
			<g>
				<g>
					<g>
						<path d="M8.5,11.982c-0.276,0-0.5,0.225-0.5,0.5s0.224,0.5,0.5,0.5s0.5-0.225,0.5-0.5S8.776,11.982,8.5,11.982L8.5,11.982z"/>
					</g>
				</g>
			</g>
			<g>
				<g>
					<g>
						<path d="M8.5,13.982c-0.276,0-0.5,0.225-0.5,0.5s0.224,0.5,0.5,0.5s0.5-0.225,0.5-0.5S8.776,13.982,8.5,13.982L8.5,13.982z"/>
					</g>
				</g>
			</g>
			<g>
				<g>
					<g>
						<path d="M8.5,15.982c-0.276,0-0.5,0.225-0.5,0.5s0.224,0.5,0.5,0.5s0.5-0.225,0.5-0.5S8.776,15.982,8.5,15.982L8.5,15.982z"/>
					</g>
				</g>
			</g>
			<g>
				<g>
					<g>
						<path d="M8.5,17.982c-0.276,0-0.5,0.225-0.5,0.5s0.224,0.5,0.5,0.5s0.5-0.225,0.5-0.5S8.776,17.982,8.5,17.982L8.5,17.982z"/>
					</g>
				</g>
			</g>
			<g>
				<g>
					<g>
						<path d="M10.5,11.982c-0.276,0-0.5,0.225-0.5,0.5s0.224,0.5,0.5,0.5s0.5-0.225,0.5-0.5S10.776,11.982,10.5,11.982L10.5,11.982
							z"/>
					</g>
				</g>
			</g>
			<g>
				<g>
					<g>
						<path d="M10.5,13.982c-0.276,0-0.5,0.225-0.5,0.5s0.224,0.5,0.5,0.5s0.5-0.225,0.5-0.5S10.776,13.982,10.5,13.982L10.5,13.982
							z"/>
					</g>
				</g>
			</g>
			<g>
				<g>
					<g>
						<path d="M10.5,15.982c-0.276,0-0.5,0.225-0.5,0.5s0.224,0.5,0.5,0.5s0.5-0.225,0.5-0.5S10.776,15.982,10.5,15.982L10.5,15.982
							z"/>
					</g>
				</g>
			</g>
			<g>
				<g>
					<g>
						<path d="M10.5,17.982c-0.276,0-0.5,0.225-0.5,0.5s0.224,0.5,0.5,0.5s0.5-0.225,0.5-0.5S10.776,17.982,10.5,17.982L10.5,17.982
							z"/>
					</g>
				</g>
			</g>
			<g>
				<g>
					<g>
						<path d="M12.5,11.982c-0.276,0-0.5,0.225-0.5,0.5s0.224,0.5,0.5,0.5s0.5-0.225,0.5-0.5S12.776,11.982,12.5,11.982L12.5,11.982
							z"/>
					</g>
				</g>
			</g>
			<path fill="none" stroke="#000000" stroke-linecap="round" stroke-linejoin="round" stroke-miterlimit="10" d="M15.276,1.91
				c-1.35-0.901-2.97-1.429-4.714-1.429c-1.745,0-3.365,0.527-4.715,1.429"/>
			<path fill="none" stroke="#000000" stroke-linecap="round" stroke-linejoin="round" stroke-miterlimit="10" d="M14.167,3.574
				c-1.031-0.689-2.271-1.093-3.604-1.093S7.989,2.885,6.957,3.574"/>
			<path fill="none" stroke="#000000" stroke-linecap="round" stroke-linejoin="round" stroke-miterlimit="10" d="M13.059,5.238
				c-0.715-0.478-1.573-0.757-2.496-0.757c-0.924,0-1.782,0.279-2.496,0.757"/>
		</g>
	</g>
	<g id="New_icons_1_">
	</g>
</g>
<g id="Invisible_Shape">
	<rect fill="none" width="24" height="24"/>
</g>
</svg>
