<?xml version="1.0" encoding="utf-8"?>
<!-- Generator: Adobe Illustrator 16.0.3, SVG Export Plug-In . SVG Version: 6.00 Build 0)  -->
<!DOCTYPE svg PUBLIC "-//W3C//DTD SVG 1.1//EN" "http://www.w3.org/Graphics/SVG/1.1/DTD/svg11.dtd">
<svg version="1.1" xmlns="http://www.w3.org/2000/svg" xmlns:xlink="http://www.w3.org/1999/xlink" x="0px" y="0px" width="24px"
	 height="24px" viewBox="0 0 24 24" enable-background="new 0 0 24 24" xml:space="preserve">
<g id="Outline_Icons_1_">
	<g id="Outline_Icons">
		<g>
			<rect x="5.5" y="2.5" fill="none" stroke="#000000" stroke-linejoin="round" stroke-miterlimit="10" width="13" height="15"/>
			<g>
				<g>
					<g>
						<path d="M8.5,20C8.224,20,8,20.225,8,20.5S8.224,21,8.5,21S9,20.775,9,20.5S8.776,20,8.5,20L8.5,20z"/>
					</g>
				</g>
			</g>
			<g>
				<g>
					<g>
						<path d="M6.5,20C6.224,20,6,20.225,6,20.5S6.224,21,6.5,21S7,20.775,7,20.5S6.776,20,6.5,20L6.5,20z"/>
					</g>
				</g>
			</g>
			<g>
				<g>
					<g>
						<path d="M17.5,20c-0.276,0-0.5,0.225-0.5,0.5s0.224,0.5,0.5,0.5s0.5-0.225,0.5-0.5S17.776,20,17.5,20L17.5,20z"/>
					</g>
				</g>
			</g>
			<g>
				<g>
					<g>
						<path d="M15.5,20c-0.276,0-0.5,0.225-0.5,0.5s0.224,0.5,0.5,0.5s0.5-0.225,0.5-0.5S15.776,20,15.5,20L15.5,20z"/>
					</g>
				</g>
			</g>
			<line fill="none" stroke="#000000" stroke-linejoin="round" stroke-miterlimit="10" x1="8" y1="13.5" x2="16" y2="13.5"/>
			<line fill="none" stroke="#000000" stroke-linejoin="round" stroke-miterlimit="10" x1="8" y1="11.5" x2="16" y2="11.5"/>
			<line fill="none" stroke="#000000" stroke-linejoin="round" stroke-miterlimit="10" x1="8" y1="9.5" x2="16" y2="9.5"/>
			<line fill="none" stroke="#000000" stroke-linejoin="round" stroke-miterlimit="10" x1="8" y1="7.5" x2="16" y2="7.5"/>
			<line fill="none" stroke="#000000" stroke-linejoin="round" stroke-miterlimit="10" x1="8" y1="5.5" x2="13" y2="5.5"/>
			<line fill="none" stroke="#000000" stroke-linejoin="round" stroke-miterlimit="10" x1="2.5" y1="9.5" x2="5.5" y2="9.5"/>
			<line fill="none" stroke="#000000" stroke-linejoin="round" stroke-miterlimit="10" x1="2.5" y1="12.5" x2="5.5" y2="12.5"/>
			<line fill="none" stroke="#000000" stroke-linejoin="round" stroke-miterlimit="10" x1="2.5" y1="15.5" x2="5.5" y2="15.5"/>
			<line fill="none" stroke="#000000" stroke-linejoin="round" stroke-miterlimit="10" x1="18.5" y1="9.5" x2="21.5" y2="9.5"/>
			<line fill="none" stroke="#000000" stroke-linejoin="round" stroke-miterlimit="10" x1="18.5" y1="12.5" x2="21.5" y2="12.5"/>
			<line fill="none" stroke="#000000" stroke-linejoin="round" stroke-miterlimit="10" x1="18.5" y1="15.5" x2="21.5" y2="15.5"/>
			<path fill="none" stroke="#000000" stroke-linejoin="round" stroke-miterlimit="10" d="M21.5,21.5c0,1.1-0.899,2-2,2h-15
				c-1.1,0-2-0.9-2-2v-19c0-1.1,0.9-2,2-2h15c1.101,0,2,0.9,2,2V21.5z"/>
			<path fill="none" stroke="#000000" stroke-linejoin="round" stroke-miterlimit="10" d="M13.5,21c0,0.275-0.226,0.5-0.5,0.5h-2
				c-0.274,0-0.5-0.225-0.5-0.5v-1c0-0.275,0.226-0.5,0.5-0.5h2c0.274,0,0.5,0.225,0.5,0.5V21z"/>
		</g>
	</g>
	<g id="New_icons_1_">
	</g>
</g>
<g id="Invisible_Shape">
	<rect fill="none" width="24" height="24"/>
</g>
</svg>
