<?xml version="1.0" encoding="utf-8"?>
<!-- Generator: Adobe Illustrator 16.0.3, SVG Export Plug-In . SVG Version: 6.00 Build 0)  -->
<!DOCTYPE svg PUBLIC "-//W3C//DTD SVG 1.1//EN" "http://www.w3.org/Graphics/SVG/1.1/DTD/svg11.dtd">
<svg version="1.1" xmlns="http://www.w3.org/2000/svg" xmlns:xlink="http://www.w3.org/1999/xlink" x="0px" y="0px" width="24px"
	 height="24px" viewBox="0 0 24 24" enable-background="new 0 0 24 24" xml:space="preserve">
<g id="Outline_Icons_1_">
	<g id="Outline_Icons">
	</g>
	<g id="New_icons_1_">
		<g>
			<g>
				<path fill="none" stroke="#000000" stroke-linejoin="round" stroke-miterlimit="10" d="M19.5,16.5c0,1.104-0.896,2-2,2h-11
					c-1.104,0-2-0.896-2-2v-9c0-1.105,0.896-2,2-2h11c1.104,0,2,0.895,2,2V16.5z"/>
				<polygon fill="none" stroke="#000000" stroke-linejoin="round" stroke-miterlimit="10" points="16.5,3.5 7.5,3.5 6.5,5.5 
					17.5,5.5 				"/>
				<rect x="7.5" y="0.5" fill="none" stroke="#000000" stroke-linejoin="round" stroke-miterlimit="10" width="9" height="3"/>
				<polygon fill="none" stroke="#000000" stroke-linejoin="round" stroke-miterlimit="10" points="7.5,20.5 16.5,20.5 17.5,18.5 
					6.5,18.5 				"/>
				<rect x="7.5" y="20.5" fill="none" stroke="#000000" stroke-linejoin="round" stroke-miterlimit="10" width="9" height="3"/>
			</g>
			<path fill="none" stroke="#000000" stroke-linecap="round" stroke-linejoin="round" stroke-miterlimit="10" d="M8.777,12.678
				l1.461-1.46c0.306-0.306,0.307-0.802,0-1.106L9.408,9.279c-0.306-0.306-0.803-0.306-1.108,0L7.843,9.735
				c-0.395,0.396-0.456,1.011-0.147,1.478c1.323,2.002,3.089,3.769,5.091,5.091c0.465,0.308,1.084,0.247,1.479-0.147l0.455-0.455
				c0.307-0.307,0.307-0.803,0-1.107l-0.831-0.831c-0.306-0.306-0.802-0.306-1.108,0l-1.46,1.46"/>
			
				<line fill="none" stroke="#000000" stroke-linecap="round" stroke-linejoin="round" stroke-miterlimit="10" x1="12.5" y1="11.5" x2="15.5" y2="8.5"/>
			<polyline fill="none" stroke="#000000" stroke-linecap="round" stroke-linejoin="round" stroke-miterlimit="10" points="
				14.5,11.5 12.5,11.5 12.5,9.5 			"/>
		</g>
	</g>
</g>
<g id="Invisible_Shape">
	<rect fill="none" width="24" height="24"/>
</g>
</svg>
