<?xml version="1.0" encoding="utf-8"?>
<!-- Generator: Adobe Illustrator 16.0.3, SVG Export Plug-In . SVG Version: 6.00 Build 0)  -->
<!DOCTYPE svg PUBLIC "-//W3C//DTD SVG 1.1//EN" "http://www.w3.org/Graphics/SVG/1.1/DTD/svg11.dtd">
<svg version="1.1" xmlns="http://www.w3.org/2000/svg" xmlns:xlink="http://www.w3.org/1999/xlink" x="0px" y="0px" width="24px"
	 height="24px" viewBox="0 0 24 24" enable-background="new 0 0 24 24" xml:space="preserve">
<g id="Outline_Icons_1_">
	<g id="Outline_Icons">
	</g>
	<g id="New_icons_1_">
		<g>
			<g>
				<polyline fill="none" stroke="#000000" stroke-linejoin="round" stroke-miterlimit="10" points="8.5,5.953 8.5,0.5 15.5,0.5 
					15.5,5.938 				"/>
				<polyline fill="none" stroke="#000000" stroke-linejoin="round" stroke-miterlimit="10" points="8.5,18.062 8.5,23.5 15.5,23.5 
					15.5,18.031 				"/>
				
					<circle fill="none" stroke="#000000" stroke-linecap="round" stroke-linejoin="round" stroke-miterlimit="10" cx="12" cy="12" r="7"/>
			</g>
			<path fill="none" stroke="#000000" stroke-linecap="round" stroke-linejoin="round" stroke-miterlimit="10" d="M13.5,11.084V13.5
				c0,0.5,0.567,1,1,1h1c0.5,0,1-0.5,1-1v-1c0-1.998-9-1.998-9,0v1c0,0.5,0.5,1,1,1h1c0.5,0,1-0.5,1-1v-2.423"/>
			
				<line fill="none" stroke="#000000" stroke-linecap="round" stroke-linejoin="round" stroke-miterlimit="10" x1="12" y1="7.5" x2="12" y2="9"/>
			
				<line fill="none" stroke="#000000" stroke-linecap="round" stroke-linejoin="round" stroke-miterlimit="10" x1="15.125" y1="8.182" x2="14.5" y2="9.545"/>
			
				<line fill="none" stroke="#000000" stroke-linecap="round" stroke-linejoin="round" stroke-miterlimit="10" x1="8.875" y1="8.182" x2="9.5" y2="9.545"/>
		</g>
	</g>
</g>
<g id="Invisible_Shape">
	<rect fill="none" width="24" height="24"/>
</g>
</svg>
