<?xml version="1.0" encoding="utf-8"?>
<!-- Generator: Adobe Illustrator 16.0.3, SVG Export Plug-In . SVG Version: 6.00 Build 0)  -->
<!DOCTYPE svg PUBLIC "-//W3C//DTD SVG 1.1//EN" "http://www.w3.org/Graphics/SVG/1.1/DTD/svg11.dtd">
<svg version="1.1" xmlns="http://www.w3.org/2000/svg" xmlns:xlink="http://www.w3.org/1999/xlink" x="0px" y="0px" width="24px"
	 height="24px" viewBox="0 0 24 24" enable-background="new 0 0 24 24" xml:space="preserve">
<g id="Outline_Icons_1_">
	<g id="Outline_Icons">
	</g>
	<g id="New_icons_1_">
		<g>
			<g>
				<path fill="none" stroke="#000000" stroke-linejoin="round" stroke-miterlimit="10" d="M15.397,15.117l1-1.732l-1-0.577
					c0.137-0.579,0.136-1.038,0-1.614l0.999-0.576l-1-1.732l-0.999,0.576C14.006,9.092,13.529,8.821,13,8.662V7.5h-2v1.162
					c-0.529,0.159-1.006,0.43-1.397,0.799L8.604,8.885l-1,1.732l0.999,0.576c-0.136,0.576-0.137,1.035,0,1.614l-1,0.577l1,1.732
					l1-0.578c0.392,0.369,0.869,0.64,1.397,0.799V16.5h2v-1.162c0.528-0.159,1.006-0.43,1.397-0.799L15.397,15.117z"/>
				<circle fill="none" stroke="#000000" stroke-linejoin="round" stroke-miterlimit="10" cx="12" cy="12" r="1.5"/>
			</g>
			<g>
				<g>
					<g>
						<path fill="none" stroke="#000000" stroke-linejoin="round" stroke-miterlimit="10" d="M19.5,16.5c0,1.104-0.896,2-2,2h-11
							c-1.104,0-2-0.896-2-2v-9c0-1.104,0.896-2,2-2h11c1.104,0,2,0.896,2,2V16.5z"/>
						<polygon fill="none" stroke="#000000" stroke-linejoin="round" stroke-miterlimit="10" points="16.5,3.5 7.5,3.5 6.5,5.5 
							17.5,5.5 						"/>
						<rect x="7.5" y="0.5" fill="none" stroke="#000000" stroke-linejoin="round" stroke-miterlimit="10" width="9" height="3"/>
						<polygon fill="none" stroke="#000000" stroke-linejoin="round" stroke-miterlimit="10" points="7.5,20.5 16.5,20.5 17.5,18.5 
							6.5,18.5 						"/>
						<rect x="7.5" y="20.5" fill="none" stroke="#000000" stroke-linejoin="round" stroke-miterlimit="10" width="9" height="3"/>
					</g>
				</g>
			</g>
		</g>
	</g>
</g>
<g id="Invisible_Shape">
	<rect fill="none" width="24" height="24"/>
</g>
</svg>
