<?xml version="1.0" encoding="utf-8"?>
<!-- Generator: Adobe Illustrator 16.0.3, SVG Export Plug-In . SVG Version: 6.00 Build 0)  -->
<!DOCTYPE svg PUBLIC "-//W3C//DTD SVG 1.1//EN" "http://www.w3.org/Graphics/SVG/1.1/DTD/svg11.dtd">
<svg version="1.1" xmlns="http://www.w3.org/2000/svg" xmlns:xlink="http://www.w3.org/1999/xlink" x="0px" y="0px" width="24px"
	 height="24px" viewBox="0 0 24 24" enable-background="new 0 0 24 24" xml:space="preserve">
<g id="Outline_Icons_1_">
	<g id="Outline_Icons">
		<g>
			<path fill="none" stroke="#000000" stroke-linecap="round" stroke-linejoin="round" stroke-miterlimit="10" d="M22.5,15V7.234
				c0-0.912-0.739-1.734-1.65-1.734H7.173C6.262,5.5,5.5,6.322,5.5,7.234v12.614c0,0.912,0.762,1.651,1.673,1.651H11"/>
			<path fill="none" stroke="#000000" stroke-linejoin="round" stroke-miterlimit="10" d="M15.5,11.5c0-0.552,0.447-1,1-1
				s1,0.448,1,1v4.755l3.967,1.148c0.654,0.189,1.047,0.856,0.894,1.521l-0.085,0.368L21.511,23.5h-6.12l-3.061-4.591
				c-1.215-1.856,1.789-2.48,3.17,0.611V11.5z"/>
			<line fill="none" stroke="#000000" stroke-linejoin="round" stroke-miterlimit="10" x1="5.5" y1="8.5" x2="22.5" y2="8.5"/>
			<path fill="none" stroke="#000000" stroke-linecap="round" stroke-linejoin="round" stroke-miterlimit="10" d="M3,6
				c0-1.657,1.343-3,3-3"/>
			<path fill="none" stroke="#000000" stroke-linecap="round" stroke-linejoin="round" stroke-miterlimit="10" d="M0.5,6
				c0-3.038,2.463-5.5,5.5-5.5"/>
		</g>
	</g>
	<g id="New_icons_1_">
	</g>
</g>
<g id="Invisible_Shape">
	<rect fill="none" width="24" height="24"/>
</g>
</svg>
