<?xml version="1.0" encoding="utf-8"?>
<!-- Generator: Adobe Illustrator 16.0.3, SVG Export Plug-In . SVG Version: 6.00 Build 0)  -->
<!DOCTYPE svg PUBLIC "-//W3C//DTD SVG 1.1//EN" "http://www.w3.org/Graphics/SVG/1.1/DTD/svg11.dtd">
<svg version="1.1" xmlns="http://www.w3.org/2000/svg" xmlns:xlink="http://www.w3.org/1999/xlink" x="0px" y="0px" width="24px"
	 height="24px" viewBox="0 0 24 24" enable-background="new 0 0 24 24" xml:space="preserve">
<g id="Outline_Icons">
	
		<line fill="none" stroke="#000000" stroke-linecap="round" stroke-linejoin="round" stroke-miterlimit="10" x1="1.866" y1="22" x2="17.069" y2="6.798"/>
	<polygon fill="none" stroke="#000000" stroke-linejoin="round" stroke-miterlimit="10" points="16.716,4.323 17.069,6.798 
		19.544,7.151 21.665,2.201 	"/>
	<polyline fill="none" stroke="#000000" stroke-linecap="round" stroke-linejoin="round" stroke-miterlimit="10" points="
		7.475,16.409 4.98,16.036 0.384,19.218 3.232,20.652 	"/>
	<polyline fill="none" stroke="#000000" stroke-linecap="round" stroke-linejoin="round" stroke-miterlimit="10" points="
		7.475,16.409 7.849,18.904 4.666,23.5 3.232,20.652 	"/>
	
		<line fill="none" stroke="#000000" stroke-linecap="round" stroke-linejoin="round" stroke-miterlimit="10" x1="21.866" y1="22" x2="6.663" y2="6.798"/>
	<polygon fill="none" stroke="#000000" stroke-linejoin="round" stroke-miterlimit="10" points="7.017,4.323 6.663,6.798 
		4.188,7.151 2.067,2.201 	"/>
	<polyline fill="none" stroke="#000000" stroke-linecap="round" stroke-linejoin="round" stroke-miterlimit="10" points="
		16.258,16.409 15.884,18.904 19.066,23.5 20.5,20.652 	"/>
	<polyline fill="none" stroke="#000000" stroke-linecap="round" stroke-linejoin="round" stroke-miterlimit="10" points="
		16.258,16.409 18.752,16.036 23.349,19.218 20.5,20.652 	"/>
</g>
<g id="invisible_shape">
	<rect fill="none" width="24" height="24"/>
</g>
</svg>
