<?xml version="1.0" encoding="utf-8"?>
<!-- Generator: Adobe Illustrator 16.0.3, SVG Export Plug-In . SVG Version: 6.00 Build 0)  -->
<!DOCTYPE svg PUBLIC "-//W3C//DTD SVG 1.1//EN" "http://www.w3.org/Graphics/SVG/1.1/DTD/svg11.dtd">
<svg version="1.1" xmlns="http://www.w3.org/2000/svg" xmlns:xlink="http://www.w3.org/1999/xlink" x="0px" y="0px" width="24px"
	 height="24px" viewBox="0 0 24 24" enable-background="new 0 0 24 24" xml:space="preserve">
<g id="Outline_Icons">
	<g>
		<g>
			<path fill="none" stroke="#000000" stroke-linejoin="round" stroke-miterlimit="10" d="M3.509,21.983
				c-0.263,0.81-1.133,1.252-1.942,0.989c-0.811-0.263-1.254-1.133-0.99-1.942l6.91-19.405C7.75,0.814,8.62,0.371,9.43,0.634
				c0.81,0.264,1.253,1.134,0.989,1.944L3.509,21.983z"/>
		</g>
		<g>
			<path fill="none" stroke="#000000" stroke-linejoin="round" stroke-miterlimit="10" d="M15.486,22.434
				c-0.263,0.81-1.133,1.254-1.942,0.991c-0.811-0.264-1.253-1.134-0.99-1.944l6.91-19.405c0.264-0.81,1.134-1.252,1.943-0.989
				c0.81,0.263,1.253,1.132,0.989,1.942L15.486,22.434z"/>
		</g>
		
			<line fill="none" stroke="#000000" stroke-linejoin="round" stroke-miterlimit="10" x1="4.558" y1="19.039" x2="13.086" y2="19.986"/>
		
			<line fill="none" stroke="#000000" stroke-linejoin="round" stroke-miterlimit="10" x1="5.973" y1="15.029" x2="14.473" y2="16.029"/>
		
			<line fill="none" stroke="#000000" stroke-linejoin="round" stroke-miterlimit="10" x1="7.473" y1="11.029" x2="15.973" y2="12.029"/>
		
			<line fill="none" stroke="#000000" stroke-linejoin="round" stroke-miterlimit="10" x1="8.82" y1="7.067" x2="17.349" y2="8.016"/>
		
			<line fill="none" stroke="#000000" stroke-linejoin="round" stroke-miterlimit="10" x1="10.223" y1="3.029" x2="18.769" y2="4.029"/>
	</g>
</g>
<g id="invisible_shape">
	<rect fill="none" width="24" height="24"/>
</g>
</svg>
