<?xml version="1.0" encoding="utf-8"?>
<!-- Generator: Adobe Illustrator 16.0.3, SVG Export Plug-In . SVG Version: 6.00 Build 0)  -->
<!DOCTYPE svg PUBLIC "-//W3C//DTD SVG 1.1//EN" "http://www.w3.org/Graphics/SVG/1.1/DTD/svg11.dtd">
<svg version="1.1" xmlns="http://www.w3.org/2000/svg" xmlns:xlink="http://www.w3.org/1999/xlink" x="0px" y="0px" width="24px"
	 height="24px" viewBox="0 0 24 24" enable-background="new 0 0 24 24" xml:space="preserve">
<g id="Outline_Icons">
	<g>
		<g>
			<path fill="none" stroke="#000000" stroke-linecap="round" stroke-linejoin="round" stroke-miterlimit="10" d="M5.917,16.379
				c0.876-1.866,2.383-4.863,2.826-5.809c1.559-3.323,5.622-2.566,6.382-4.186C15.763,5.027,17.886,0.5,17.886,0.5"/>
			<path fill="none" stroke="#000000" stroke-linecap="round" stroke-linejoin="round" stroke-miterlimit="10" d="M20.603,1.774
				c0,0-2.125,4.526-2.762,5.885c-0.868,1.852,2.514,4.06,0.861,7.584l-0.728,1.531"/>
			
				<rect x="17.107" y="0.995" transform="matrix(0.9052 0.4249 -0.4249 0.9052 2.8237 -7.67)" fill="none" stroke="#000000" stroke-linecap="round" stroke-linejoin="round" stroke-miterlimit="10" width="2.999" height="3"/>
		</g>
		
			<ellipse transform="matrix(0.9054 0.4246 -0.4246 0.9054 6.2393 -5.2706)" fill="none" stroke="#000000" stroke-linecap="round" stroke-linejoin="round" stroke-miterlimit="10" cx="14.945" cy="11.364" rx="2" ry="1"/>
		
			<line fill="none" stroke="#000000" stroke-linecap="round" stroke-linejoin="round" stroke-miterlimit="10" x1="10.101" y1="17.095" x2="13.135" y2="10.515"/>
		
			<line fill="none" stroke="#000000" stroke-linecap="round" stroke-linejoin="round" stroke-miterlimit="10" x1="16.756" y1="12.213" x2="14.507" y2="17.122"/>
		<path fill="none" stroke="#000000" stroke-linecap="round" stroke-linejoin="round" stroke-miterlimit="10" d="M23.5,21.312
			c-2.505,0.521-4.06-1.979-4.06-1.979h-0.004c0,0-1.186,2.056-3.621,2.056c-2.334,0-3.615-2.056-3.615-2.056h-0.004
			c0,0-1.185,2.056-3.62,2.056c-2.335,0-3.615-2.056-3.615-2.056H4.957c0,0-2.004,2.542-4.455,2.02"/>
		<path fill="none" stroke="#000000" stroke-linecap="round" stroke-linejoin="round" stroke-miterlimit="10" d="M23.5,17.312
			c-2.505,0.521-4.06-1.979-4.06-1.979h-0.004c0,0-1.186,2.056-3.621,2.056c-2.334,0-3.615-2.056-3.615-2.056h-0.004
			c0,0-1.185,2.056-3.62,2.056c-2.335,0-3.615-2.056-3.615-2.056H4.957c0,0-2.004,2.542-4.455,2.02"/>
	</g>
</g>
<g id="invisible_shape">
	<rect fill="none" width="24" height="24"/>
</g>
</svg>
