<?xml version="1.0" encoding="utf-8"?>
<!-- Generator: Adobe Illustrator 16.0.3, SVG Export Plug-In . SVG Version: 6.00 Build 0)  -->
<!DOCTYPE svg PUBLIC "-//W3C//DTD SVG 1.1//EN" "http://www.w3.org/Graphics/SVG/1.1/DTD/svg11.dtd">
<svg version="1.1" xmlns="http://www.w3.org/2000/svg" xmlns:xlink="http://www.w3.org/1999/xlink" x="0px" y="0px" width="24px"
	 height="24px" viewBox="0 0 24 24" enable-background="new 0 0 24 24" xml:space="preserve">
<g id="Outline_Icons">
	<g>
		<path fill="none" stroke="#000000" stroke-linejoin="round" stroke-miterlimit="10" d="M18.743,2.515
			c0.757-0.757,1.985-0.757,2.742,0c0.758,0.757,0.758,1.985,0,2.743C20.979,5.763,8.22,17.301,1.684,23.022
			C1.485,23.197,1.187,23.186,1,23c-0.186-0.186-0.195-0.485-0.021-0.683C6.701,15.781,18.237,3.021,18.743,2.515z"/>
		
			<line fill="none" stroke="#000000" stroke-linecap="round" stroke-linejoin="round" stroke-miterlimit="10" x1="20.071" y1="3.929" x2="17.95" y2="6.051"/>
		<path fill="none" stroke="#000000" stroke-linecap="round" stroke-linejoin="round" stroke-miterlimit="10" d="M1.462,5.743
			c0.5-3.5,4.031-6.407,7.281-3.376c5.021,4.684,6.945,0.865,8.891,1.33"/>
		<path fill="none" stroke="#000000" stroke-linecap="round" stroke-linejoin="round" stroke-miterlimit="10" d="M19.691,4.31
			c0,0,2.052,0.934,2.052,3.934s-4,6-2,10"/>
	</g>
</g>
<g id="invisible_shape">
	<rect fill="none" width="24" height="24"/>
</g>
</svg>
