<?xml version="1.0" encoding="utf-8"?>
<!-- Generator: Adobe Illustrator 16.0.3, SVG Export Plug-In . SVG Version: 6.00 Build 0)  -->
<!DOCTYPE svg PUBLIC "-//W3C//DTD SVG 1.1//EN" "http://www.w3.org/Graphics/SVG/1.1/DTD/svg11.dtd">
<svg version="1.1" xmlns="http://www.w3.org/2000/svg" xmlns:xlink="http://www.w3.org/1999/xlink" x="0px" y="0px" width="24px"
	 height="24px" viewBox="0 0 24 24" enable-background="new 0 0 24 24" xml:space="preserve">
<g id="Outline_Icons">
	<g>
		<path fill="none" stroke="#000000" stroke-linejoin="round" stroke-miterlimit="10" d="M3.5,14.5c0-0.551,0.447-1,1-1h10V18
			c0,3.038-2.463,5.5-5.5,5.5S3.5,21.038,3.5,18V14.5z"/>
		<path fill="none" stroke="#000000" stroke-linecap="round" stroke-linejoin="round" stroke-miterlimit="10" d="M14.5,13.5
			c0,0,0.292-13,9-13"/>
		
			<circle fill="none" stroke="#000000" stroke-linecap="round" stroke-linejoin="round" stroke-miterlimit="10" cx="8.917" cy="10.458" r="1"/>
		<path fill="none" stroke="#000000" stroke-linecap="round" stroke-linejoin="round" stroke-miterlimit="10" d="M7.493,4.069
			C7.494,4.046,7.5,4.023,7.5,4c0-1.933-1.566-3.5-3.5-3.5S0.5,2.067,0.5,4c0,1.934,1.566,3.5,3.5,3.5
			c0.502,0,0.977-0.109,1.408-0.3C5.773,7.684,6.348,8,7,8c1.104,0,2-0.895,2-2C9,5.066,8.357,4.29,7.493,4.069z"/>
	</g>
</g>
<g id="invisible_shape">
	<rect fill="none" width="24" height="24"/>
</g>
</svg>
