<?xml version="1.0" encoding="utf-8"?>
<!-- Generator: Adobe Illustrator 16.0.3, SVG Export Plug-In . SVG Version: 6.00 Build 0)  -->
<!DOCTYPE svg PUBLIC "-//W3C//DTD SVG 1.1//EN" "http://www.w3.org/Graphics/SVG/1.1/DTD/svg11.dtd">
<svg version="1.1" xmlns="http://www.w3.org/2000/svg" xmlns:xlink="http://www.w3.org/1999/xlink" x="0px" y="0px" width="24px"
	 height="24px" viewBox="0 0 24 24" enable-background="new 0 0 24 24" xml:space="preserve">
<g id="Outline_Icons">
	<path fill="none" stroke="#000000" stroke-linejoin="round" stroke-miterlimit="10" d="M20.366,3.5h-17v-1c0-1.104,0.896-2,2-2h13
		c1.104,0,2,0.896,2,2V3.5z"/>
	<path fill="none" stroke="#000000" stroke-linejoin="round" stroke-miterlimit="10" d="M19.366,13.5h-15v-1c0-1.104,0.896-2,2-2h11
		c1.104,0,2,0.896,2,2V13.5z"/>
	<line fill="none" stroke="#000000" stroke-linejoin="round" stroke-miterlimit="10" x1="4.866" y1="3.5" x2="5.366" y2="10.5"/>
	<line fill="none" stroke="#000000" stroke-linejoin="round" stroke-miterlimit="10" x1="18.866" y1="3.5" x2="18.366" y2="10.5"/>
	<path fill="none" stroke="#000000" stroke-linejoin="round" stroke-miterlimit="10" d="M18.866,13.5h-14
		c0,2.394,1.685,4.389,3.932,4.879L7.866,23.5h8l-0.932-5.121C17.182,17.889,18.866,15.894,18.866,13.5z"/>
</g>
<g id="invisible_shape">
	<rect fill="none" width="24" height="24"/>
</g>
</svg>
