<?xml version="1.0" encoding="utf-8"?>
<!-- Generator: Adobe Illustrator 16.0.3, SVG Export Plug-In . SVG Version: 6.00 Build 0)  -->
<!DOCTYPE svg PUBLIC "-//W3C//DTD SVG 1.1//EN" "http://www.w3.org/Graphics/SVG/1.1/DTD/svg11.dtd">
<svg version="1.1" xmlns="http://www.w3.org/2000/svg" xmlns:xlink="http://www.w3.org/1999/xlink" x="0px" y="0px" width="24px"
	 height="24px" viewBox="0 0 24 24" enable-background="new 0 0 24 24" xml:space="preserve">
<g id="Outline_Icons">
	<g>
		<path fill="none" stroke="#000000" stroke-linejoin="round" stroke-miterlimit="10" d="M21.5,21.5c0,1.105-0.896,2-2,2h-15
			c-1.104,0-2-0.895-2-2v-19c0-1.104,0.896-2,2-2h15c1.104,0,2,0.896,2,2V21.5z"/>
		<line fill="none" stroke="#000000" stroke-linejoin="round" stroke-miterlimit="10" x1="2.5" y1="6.5" x2="21.5" y2="6.5"/>
		<circle fill="none" stroke="#000000" stroke-linejoin="round" stroke-miterlimit="10" cx="12" cy="15" r="5.5"/>
		<g>
			<path d="M18.5,2C18.224,2,18,2.224,18,2.5C18,2.776,18.224,3,18.5,3C18.775,3,19,2.776,19,2.5C19,2.224,18.775,2,18.5,2L18.5,2z"
				/>
		</g>
		<g>
			<path d="M16.5,2C16.224,2,16,2.224,16,2.5C16,2.776,16.224,3,16.5,3C16.775,3,17,2.776,17,2.5C17,2.224,16.775,2,16.5,2L16.5,2z"
				/>
		</g>
		<g>
			<path d="M14.5,2C14.224,2,14,2.224,14,2.5C14,2.776,14.224,3,14.5,3C14.775,3,15,2.776,15,2.5C15,2.224,14.775,2,14.5,2L14.5,2z"
				/>
		</g>
		<g>
			<path d="M14.5,4C14.224,4,14,4.224,14,4.5C14,4.776,14.224,5,14.5,5C14.775,5,15,4.776,15,4.5C15,4.224,14.775,4,14.5,4L14.5,4z"
				/>
		</g>
		<g>
			<path d="M16.5,4C16.224,4,16,4.224,16,4.5C16,4.776,16.224,5,16.5,5C16.775,5,17,4.776,17,4.5C17,4.224,16.775,4,16.5,4L16.5,4z"
				/>
		</g>
		<g>
			<path d="M18.5,4C18.224,4,18,4.224,18,4.5C18,4.776,18.224,5,18.5,5C18.775,5,19,4.776,19,4.5C19,4.224,18.775,4,18.5,4L18.5,4z"
				/>
		</g>
		<line fill="none" stroke="#000000" stroke-linejoin="round" stroke-miterlimit="10" x1="11.5" y1="13.065" x2="11.5" y2="9.5"/>
		
			<line fill="none" stroke="#000000" stroke-linejoin="round" stroke-miterlimit="10" x1="13.612" y1="16.181" x2="16.408" y2="18.286"/>
		
			<line fill="none" stroke="#000000" stroke-linejoin="round" stroke-miterlimit="10" x1="10.388" y1="16.181" x2="7.59" y2="18.286"/>
		<circle fill="none" stroke="#000000" stroke-linejoin="round" stroke-miterlimit="10" cx="12" cy="15" r="2"/>
		<polygon fill="none" stroke="#000000" stroke-linejoin="round" stroke-miterlimit="10" points="5,2.5 11,2.5 10,4.5 6,4.5 		"/>
	</g>
</g>
<g id="invisible_shape">
	<rect fill="none" width="24" height="24"/>
</g>
</svg>
