<?xml version="1.0" encoding="utf-8"?>
<!-- Generator: Adobe Illustrator 16.0.3, SVG Export Plug-In . SVG Version: 6.00 Build 0)  -->
<!DOCTYPE svg PUBLIC "-//W3C//DTD SVG 1.1//EN" "http://www.w3.org/Graphics/SVG/1.1/DTD/svg11.dtd">
<svg version="1.1" xmlns="http://www.w3.org/2000/svg" xmlns:xlink="http://www.w3.org/1999/xlink" x="0px" y="0px" width="24px"
	 height="24px" viewBox="0 0 24 24" enable-background="new 0 0 24 24" xml:space="preserve">
<g id="Outline_Icons">
	<g>
		<path fill="none" stroke="#000000" stroke-linejoin="round" stroke-miterlimit="10" d="M2.366,17.5V9c0-4.694,3.806-8.5,8.5-8.5
			s8.5,3.806,8.5,8.5v0.5h-3V9.236c0-2.872-2.1-5.438-4.96-5.71C8.126,3.213,5.366,5.784,5.366,9v8.5"/>
		
			<line fill="none" stroke="#000000" stroke-linecap="round" stroke-linejoin="round" stroke-miterlimit="10" x1="18.366" y1="12.175" x2="18.366" y2="13.675"/>
		
			<line fill="none" stroke="#000000" stroke-linecap="round" stroke-linejoin="round" stroke-miterlimit="10" x1="18.366" y1="15.675" x2="18.366" y2="17.175"/>
		
			<line fill="none" stroke="#000000" stroke-linecap="round" stroke-linejoin="round" stroke-miterlimit="10" x1="20.366" y1="12" x2="21.009" y2="13.356"/>
		
			<line fill="none" stroke="#000000" stroke-linecap="round" stroke-linejoin="round" stroke-miterlimit="10" x1="21.866" y1="15.163" x2="22.509" y2="16.518"/>
		
			<line fill="none" stroke="#000000" stroke-linecap="round" stroke-linejoin="round" stroke-miterlimit="10" x1="16.224" y1="12" x2="15.58" y2="13.356"/>
		
			<line fill="none" stroke="#000000" stroke-linecap="round" stroke-linejoin="round" stroke-miterlimit="10" x1="14.724" y1="15.163" x2="14.08" y2="16.518"/>
		<path fill="none" stroke="#000000" stroke-linejoin="round" stroke-miterlimit="10" d="M3.906,19.783
			c-0.514,0.204-0.765,0.786-0.561,1.299s0.785,0.764,1.299,0.56l4.182-1.661c0.514-0.204,0.765-0.786,0.561-1.299
			s-0.785-0.764-1.299-0.561L3.906,19.783z"/>
		<polyline fill="none" stroke="#000000" stroke-linejoin="round" stroke-miterlimit="10" points="6.366,21 6.366,23.5 1.366,23.5 
			1.366,17.5 6.366,17.5 6.366,18.5 		"/>
	</g>
</g>
<g id="invisible_shape">
	<rect fill="none" width="24" height="24"/>
</g>
</svg>
