<?xml version="1.0" encoding="utf-8"?>
<!-- Generator: Adobe Illustrator 16.0.3, SVG Export Plug-In . SVG Version: 6.00 Build 0)  -->
<!DOCTYPE svg PUBLIC "-//W3C//DTD SVG 1.1//EN" "http://www.w3.org/Graphics/SVG/1.1/DTD/svg11.dtd">
<svg version="1.1" xmlns="http://www.w3.org/2000/svg" xmlns:xlink="http://www.w3.org/1999/xlink" x="0px" y="0px" width="24px"
	 height="24px" viewBox="0 0 24 24" enable-background="new 0 0 24 24" xml:space="preserve">
<g id="Outline_Icons">
	<g>
		<g>
			
				<rect x="14.5" y="20.5" fill="none" stroke="#000000" stroke-linecap="round" stroke-linejoin="round" stroke-miterlimit="10" width="6" height="3"/>
			<path fill="none" stroke="#000000" stroke-linecap="round" stroke-linejoin="round" stroke-miterlimit="10" d="M19.5,20.5v-1.531
				c0,0,3.187-3.156,4-3.969c0-1.375,0-8.062,0-8.062S21,6.031,21,13l-2.969,2.969l0.688-3c0.344-1.438-0.971-2.053-1.688-0.938
				c-0.66,1.025-1.531,3.961-1.531,3.961V20.5"/>
			
				<rect x="3.5" y="20.5" fill="none" stroke="#000000" stroke-linecap="round" stroke-linejoin="round" stroke-miterlimit="10" width="6" height="3"/>
			<path fill="none" stroke="#000000" stroke-linecap="round" stroke-linejoin="round" stroke-miterlimit="10" d="M4.5,20.5v-1.531
				c0,0-3-3.156-4-3.969c0-1.375,0-8.062,0-8.062S3,6.031,3,13l2.969,2.969l-0.688-3c-0.344-1.438,0.971-2.053,1.688-0.938
				c0.66,1.025,1.531,3.961,1.531,3.961V20.5"/>
		</g>
		<g>
			
				<circle fill="none" stroke="#000000" stroke-linecap="round" stroke-linejoin="round" stroke-miterlimit="10" cx="10" cy="5" r="0.5"/>
			
				<circle fill="none" stroke="#000000" stroke-linecap="round" stroke-linejoin="round" stroke-miterlimit="10" cx="13" cy="5" r="0.5"/>
			<path fill="none" stroke="#000000" stroke-linecap="round" stroke-linejoin="round" stroke-miterlimit="10" d="M11.5,10.5
				c2.945,0,5.334-1.789,5.334-4c0-0.766-0.303-1.475-0.799-2.081c0.842-0.234,1.465-1,1.465-1.919c0-1.104-0.896-2-2-2
				c-1.19,0-2.167,1.052-1.969,2.305c-1.297-0.4-2.726-0.412-4.062,0C9.665,1.547,8.687,0.5,7.5,0.5c-1.104,0-2,0.896-2,2
				c0,0.919,0.623,1.685,1.465,1.919C6.468,5.025,6.166,5.734,6.166,6.5C6.166,8.711,8.554,10.5,11.5,10.5z"/>
			<path fill="none" stroke="#000000" stroke-linecap="round" stroke-linejoin="round" stroke-miterlimit="10" d="M14,7.5
				c0,0-0.5,1-1.5,1s-1-1.5-1-1.5s0,1.5-1,1.5S9,7.5,9,7.5"/>
		</g>
	</g>
</g>
<g id="invisible_shape">
	<rect fill="none" width="24" height="24"/>
</g>
</svg>
