<?xml version="1.0" encoding="utf-8"?>
<!-- Generator: Adobe Illustrator 16.0.3, SVG Export Plug-In . SVG Version: 6.00 Build 0)  -->
<!DOCTYPE svg PUBLIC "-//W3C//DTD SVG 1.1//EN" "http://www.w3.org/Graphics/SVG/1.1/DTD/svg11.dtd">
<svg version="1.1" xmlns="http://www.w3.org/2000/svg" xmlns:xlink="http://www.w3.org/1999/xlink" x="0px" y="0px" width="24px"
	 height="24px" viewBox="0 0 24 24" enable-background="new 0 0 24 24" xml:space="preserve">
<g id="Outline_Icons">
	<g>
		<path fill="none" stroke="#000000" stroke-linecap="round" stroke-linejoin="round" stroke-miterlimit="10" d="M12.009,0.5h-0.018
			C9.977,3,6.368,4.07,2,1.02v14.812c0,0,1.451,5.271,10,7.668c8.551-2.396,10-7.668,10-7.668V1.02
			C17.693,4.027,14.054,3.041,12.009,0.5z"/>
		
			<circle fill="none" stroke="#000000" stroke-linecap="round" stroke-linejoin="round" stroke-miterlimit="10" cx="10.5" cy="11" r="0.5"/>
		
			<circle fill="none" stroke="#000000" stroke-linecap="round" stroke-linejoin="round" stroke-miterlimit="10" cx="13.5" cy="11" r="0.5"/>
		<path fill="none" stroke="#000000" stroke-linecap="round" stroke-linejoin="round" stroke-miterlimit="10" d="M12,16.5
			c2.945,0,5.334-1.789,5.334-4c0-0.766-0.303-1.475-0.799-2.081C17.376,10.185,18,9.419,18,8.5c0-1.104-0.896-2-2-2
			c-1.19,0-2.167,1.052-1.969,2.305c-1.297-0.4-2.726-0.412-4.062,0C10.165,7.547,9.187,6.5,8,6.5c-1.104,0-2,0.896-2,2
			c0,0.919,0.623,1.685,1.465,1.919c-0.496,0.606-0.799,1.315-0.799,2.081C6.666,14.711,9.054,16.5,12,16.5z"/>
		<path fill="none" stroke="#000000" stroke-linecap="round" stroke-linejoin="round" stroke-miterlimit="10" d="M14.5,13.5
			c0,0-0.5,1-1.5,1S12,13,12,13s0,1.5-1,1.5s-1.5-1-1.5-1"/>
	</g>
</g>
<g id="invisible_shape">
	<rect fill="none" width="24" height="24"/>
</g>
</svg>
