<?xml version="1.0" encoding="utf-8"?>
<!-- Generator: Adobe Illustrator 16.0.3, SVG Export Plug-In . SVG Version: 6.00 Build 0)  -->
<!DOCTYPE svg PUBLIC "-//W3C//DTD SVG 1.1//EN" "http://www.w3.org/Graphics/SVG/1.1/DTD/svg11.dtd">
<svg version="1.1" xmlns="http://www.w3.org/2000/svg" xmlns:xlink="http://www.w3.org/1999/xlink" x="0px" y="0px" width="24px"
	 height="24px" viewBox="0 0 24 24" enable-background="new 0 0 24 24" xml:space="preserve">
<g id="Outline_Icons">
	<g>
		<path fill="none" stroke="#000000" stroke-linecap="round" stroke-linejoin="round" stroke-miterlimit="10" d="M21.156,11.5
			c0.81-0.538,1.344-1.457,1.344-2.5c0-1.657-2-3-4-3c-1,0-2.75,1.375-4.25,2.75C15.625,7.25,17,5.5,17,4.5c0-2-1.344-4-3-4
			c-1.044,0-1.963,0.534-2.5,1.343C10.962,1.034,10.043,0.5,9,0.5c-1.657,0-3,2-3,4c0,1,1.375,2.75,2.75,4.25
			C7.25,7.375,5.5,6,4.5,6c-2,0-4,1.343-4,3c0,1.043,0.534,1.962,1.343,2.5C1.034,12.037,0.5,12.956,0.5,14c0,1.656,2,3,4,3
			s7-2.5,7-2.5s5,2.5,7,2.5s4-1.344,4-3C22.5,12.956,21.965,12.037,21.156,11.5z"/>
		<path fill="none" stroke="#000000" stroke-linecap="round" stroke-linejoin="round" stroke-miterlimit="10" d="M11.5,14.5v7
			c0,1.1,0.675,2,1.5,2s1.5,0,1.5,0"/>
	</g>
</g>
<g id="invisible_shape">
	<rect fill="none" width="24" height="24"/>
</g>
</svg>
