<?xml version="1.0" encoding="utf-8"?>
<!-- Generator: Adobe Illustrator 16.0.3, SVG Export Plug-In . SVG Version: 6.00 Build 0)  -->
<!DOCTYPE svg PUBLIC "-//W3C//DTD SVG 1.1//EN" "http://www.w3.org/Graphics/SVG/1.1/DTD/svg11.dtd">
<svg version="1.1" xmlns="http://www.w3.org/2000/svg" xmlns:xlink="http://www.w3.org/1999/xlink" x="0px" y="0px" width="24px"
	 height="24px" viewBox="0 0 24 24" enable-background="new 0 0 24 24" xml:space="preserve">
<g id="Outline_Icons">
	<g>
		<path fill="none" stroke="#000000" stroke-linejoin="round" stroke-miterlimit="10" d="M23.5,23.5l0-3c-0.5,0.5-1.972,2.365-4.5-1
			c0,0-1.169,2-3.5,2c-2.429,0-3.5-2-3.5-2s-1.071,2-3.5,2c-2.331,0-3.5-2-3.5-2c-2.528,3.365-4,1.5-4.5,1l0,3H23.5z"/>
		<g>
			<path d="M6.5,6C6.223,6,6,6.224,6,6.5S6.223,7,6.5,7S7,6.776,7,6.5S6.776,6,6.5,6L6.5,6z"/>
		</g>
		<path fill="none" stroke="#000000" stroke-linejoin="round" stroke-miterlimit="10" d="M20.712,13.619
			c0-6.147-3.552-9.452-6.826-10.684c0.121-0.761,0.463-1.776,1.034-2.348c-5.146,0-6.575,0.858-7.338,2.065
			C3.666,3.62,1.746,6.602,2.613,8.914l-1.697,2.228c-0.502,0.705,0.591,1.359,1.309,0.856c1.08-0.754,2.203-1.395,3.34-1.895
			c0.286,0.508,1.713,2.791,4.288,2.791c-0.901-1.199-1.054-3.143-1.081-3.772c3.577-0.591,7.086,0.614,9.768,4.859
			c-1.002,0.802-1.671,1.936-2.007,3.401c-0.076,0.332,0.309,0.574,0.575,0.367l2.518-1.958c0,0,1.432,0.858,3.021,1.812
			c0.261,0.157,0.589-0.062,0.544-0.365C22.824,14.826,20.712,13.619,20.712,13.619z"/>
	</g>
</g>
<g id="invisible_shape">
	<rect fill="none" width="24" height="24"/>
</g>
</svg>
