<?xml version="1.0" encoding="utf-8"?>
<!-- Generator: Adobe Illustrator 16.0.3, SVG Export Plug-In . SVG Version: 6.00 Build 0)  -->
<!DOCTYPE svg PUBLIC "-//W3C//DTD SVG 1.1//EN" "http://www.w3.org/Graphics/SVG/1.1/DTD/svg11.dtd">
<svg version="1.1" xmlns="http://www.w3.org/2000/svg" xmlns:xlink="http://www.w3.org/1999/xlink" x="0px" y="0px" width="24px"
	 height="24px" viewBox="0 0 24 24" enable-background="new 0 0 24 24" xml:space="preserve">
<g id="Outline_Icons">
	<g>
		<path fill="none" stroke="#000000" stroke-linecap="round" stroke-linejoin="round" stroke-miterlimit="10" d="M6.5,7.5
			c1.933,0,3.5-1.066,3.5-3s-1.567-3-3.5-3h-3v6H6.5z"/>
		<path fill="none" stroke="#000000" stroke-linecap="round" stroke-miterlimit="10" d="M17.5,19.5H7c-2.486,0-4.5-2.015-4.5-4.5
			c0-2.484,2.014-4.5,4.5-4.5h13c1.657,0,3-1.344,3-3s-1.343-3-3-3H10"/>
		
			<line fill="none" stroke="#000000" stroke-linecap="round" stroke-linejoin="round" stroke-miterlimit="10" x1="3.5" y1="3.5" x2="1.5" y2="3.5"/>
		
			<line fill="none" stroke="#000000" stroke-linecap="round" stroke-linejoin="round" stroke-miterlimit="10" x1="3.5" y1="5.5" x2="1.5" y2="5.5"/>
		<path fill="none" stroke="#000000" stroke-linecap="round" stroke-linejoin="round" stroke-miterlimit="10" d="M18.027,23.15
			c-0.462,0.224-0.98,0.35-1.527,0.35H14c-1.933,0-3.5-2.066-3.5-4s1.567-4,3.5-4h2.5c0.536,0,1.044,0.121,1.498,0.336L23.5,19.5
			L18.027,23.15z"/>
		<path fill="none" stroke="#000000" stroke-linecap="round" stroke-linejoin="round" stroke-miterlimit="10" d="M13.667,21.002
			c-0.412-0.367-0.672-0.9-0.672-1.496c0-0.601,0.264-1.139,0.684-1.506"/>
		<path fill="none" stroke="#000000" stroke-linecap="round" stroke-linejoin="round" stroke-miterlimit="10" d="M16.004,20.827
			c-0.312-0.354-0.502-0.818-0.502-1.327c0-0.508,0.189-0.972,0.502-1.324"/>
		
			<line fill="none" stroke="#000000" stroke-linecap="round" stroke-linejoin="round" stroke-miterlimit="10" x1="5.5" y1="1.5" x2="5.5" y2="7.5"/>
	</g>
</g>
<g id="invisible_shape">
	<rect fill="none" width="24" height="24"/>
</g>
</svg>
