<?xml version="1.0" encoding="utf-8"?>
<!-- Generator: Adobe Illustrator 16.0.3, SVG Export Plug-In . SVG Version: 6.00 Build 0)  -->
<!DOCTYPE svg PUBLIC "-//W3C//DTD SVG 1.1//EN" "http://www.w3.org/Graphics/SVG/1.1/DTD/svg11.dtd">
<svg version="1.1" xmlns="http://www.w3.org/2000/svg" xmlns:xlink="http://www.w3.org/1999/xlink" x="0px" y="0px" width="24px"
	 height="24px" viewBox="0 0 24 24" enable-background="new 0 0 24 24" xml:space="preserve">
<g id="Outline_Icons">
	<g>
		<path fill="none" stroke="#000000" stroke-linejoin="round" stroke-miterlimit="10" d="M20.255,8.406
			c0-5.031-4.751-7.906-9.063-7.906c-5.359,0-9.596,4.203-9.596,9.562c0,3.043,0.904,5.898,3.904,7.678v5.76h10v-3.476
			c2,0.01,3.113-0.135,3.815-0.837c0.898-0.898,0.86-4.688,0.86-4.688s0.877,0.032,1.522,0.006c0.647-0.028,0.661-0.428,0.697-0.937
			C22.509,11.963,20.255,9.208,20.255,8.406z"/>
		<path fill="none" stroke="#000000" stroke-linecap="round" stroke-linejoin="round" stroke-miterlimit="10" d="M8.812,7.234
			C7.73,8.509,7.158,10.184,9.738,11.31c1.181,2.637,2.978,1.661,4.172,0.253c1.195-1.408,1.652-5.177,0.6-7.167
			C12.57,6.038,10.165,5.641,8.812,7.234z"/>
		<path fill="none" stroke="#000000" stroke-linecap="round" stroke-linejoin="round" stroke-miterlimit="10" d="M7.576,16.036
			c0,0,1.057-4.899,5.236-8.661"/>
	</g>
</g>
<g id="invisible_shape">
	<rect fill="none" width="24" height="24"/>
</g>
</svg>
