<?xml version="1.0" encoding="utf-8"?>
<!-- Generator: Adobe Illustrator 16.0.3, SVG Export Plug-In . SVG Version: 6.00 Build 0)  -->
<!DOCTYPE svg PUBLIC "-//W3C//DTD SVG 1.1//EN" "http://www.w3.org/Graphics/SVG/1.1/DTD/svg11.dtd">
<svg version="1.1" xmlns="http://www.w3.org/2000/svg" xmlns:xlink="http://www.w3.org/1999/xlink" x="0px" y="0px" width="24px"
	 height="24px" viewBox="0 0 24 24" enable-background="new 0 0 24 24" xml:space="preserve">
<g id="Outline_Icons">
	<g>
		<path fill="none" stroke="#000000" stroke-linecap="round" stroke-linejoin="round" stroke-miterlimit="10" d="M15.5,7.425
			c-1.204,0.803-1.824,2.269,0,3.5c1,2.5,2.86,1.827,3.961,0.667c1.101-1.16,1.677-4.396,0.863-6.167
			C18.566,6.75,17,6.425,15.5,7.425z"/>
		<path fill="none" stroke="#000000" stroke-linecap="round" stroke-linejoin="round" stroke-miterlimit="10" d="M12.02,3.896
			C13.315,5.42,14,7.425,10.913,8.771C9.5,11.925,7.351,10.757,5.921,9.073C4.491,7.388,3.945,2.881,5.204,0.5
			C7.525,2.465,10.403,1.989,12.02,3.896z"/>
		<path fill="none" stroke="#000000" stroke-linecap="round" stroke-linejoin="round" stroke-miterlimit="10" d="M18,8.925
			c-3,1.5-4.5,5.5-4.5,5.5s-1.264-5.86-6.264-10.36"/>
		<rect x="0.5" y="14.5" fill="none" stroke="#000000" stroke-linejoin="round" stroke-miterlimit="10" width="4" height="8"/>
		<path fill="none" stroke="#000000" stroke-linecap="round" stroke-linejoin="round" stroke-miterlimit="10" d="M4.5,21
			c10.729,3.577,6.771,3.613,19-2.5c-1.062-1.062-1.903-1.313-3-1l-4.434,1.471"/>
		<path fill="none" stroke="#000000" stroke-linecap="round" stroke-linejoin="round" stroke-miterlimit="10" d="M4.5,15.5h3
			c2.353,0,4,1.5,4.5,2c0,0,1.5,0,3,0c1.593,0,1.593,2,0,2H9.5"/>
	</g>
</g>
<g id="invisible_shape">
	<rect fill="none" width="24" height="24"/>
</g>
</svg>
