<?xml version="1.0" encoding="utf-8"?>
<!-- Generator: Adobe Illustrator 16.0.3, SVG Export Plug-In . SVG Version: 6.00 Build 0)  -->
<!DOCTYPE svg PUBLIC "-//W3C//DTD SVG 1.1//EN" "http://www.w3.org/Graphics/SVG/1.1/DTD/svg11.dtd">
<svg version="1.1" xmlns="http://www.w3.org/2000/svg" xmlns:xlink="http://www.w3.org/1999/xlink" x="0px" y="0px" width="24px"
	 height="24px" viewBox="0 0 24 24" enable-background="new 0 0 24 24" xml:space="preserve">
<g id="Outline_Icons">
	<g>
		
			<circle fill="none" stroke="#000000" stroke-linecap="round" stroke-linejoin="round" stroke-miterlimit="10" cx="12.101" cy="12.053" r="3.5"/>
		<path fill="none" stroke="#000000" stroke-linecap="round" stroke-linejoin="round" stroke-miterlimit="10" d="M23.04,8.5
			C22.156,5.786,18.988,4.554,16.5,6c0.605-2.83-1.557-5.447-4.398-5.447c-2.858,0-5.003,2.638-4.398,5.445
			C5.166,4.543,2.035,5.82,1.165,8.5c-0.881,2.711,0.952,5.568,3.819,5.866c-2.157,1.939-1.936,5.325,0.357,6.991
			c2.297,1.669,5.582,0.826,6.76-1.82c1.174,2.639,4.457,3.493,6.76,1.82c2.297-1.668,2.513-5.053,0.357-6.991
			C22.088,14.068,23.918,11.209,23.04,8.5z"/>
	</g>
</g>
<g id="invisible_shape">
	<rect fill="none" width="24" height="24"/>
</g>
</svg>
