<?xml version="1.0" encoding="utf-8"?>
<!-- Generator: Adobe Illustrator 16.0.3, SVG Export Plug-In . SVG Version: 6.00 Build 0)  -->
<!DOCTYPE svg PUBLIC "-//W3C//DTD SVG 1.1//EN" "http://www.w3.org/Graphics/SVG/1.1/DTD/svg11.dtd">
<svg version="1.1" xmlns="http://www.w3.org/2000/svg" xmlns:xlink="http://www.w3.org/1999/xlink" x="0px" y="0px" width="24px"
	 height="24px" viewBox="0 0 24 24" enable-background="new 0 0 24 24" xml:space="preserve">
<g id="Outline_Icons">
	<g>
		<path fill="none" stroke="#000000" stroke-linecap="round" stroke-linejoin="round" stroke-miterlimit="10" d="M13.909,11.785
			c0.931,0.91,2.267-0.589,1.249-1.408L12,6.888l-3.153,3.5c-1.012,0.818,0.333,2.322,1.263,1.397l-2.66,3.207
			c-0.888,0.891,0.471,2.225,1.348,1.315l-2.019,2.581c-0.59,0.584-0.184,1.609,0.664,1.609l9.116,0.002
			c0.852,0,1.251-1.035,0.663-1.612l-2.056-2.563c0.884,0.884,2.223-0.463,1.325-1.34L13.909,11.785z"/>
		
			<line fill="none" stroke="#000000" stroke-linecap="round" stroke-linejoin="round" stroke-miterlimit="10" x1="13.5" y1="20.5" x2="13.5" y2="23.5"/>
		
			<line fill="none" stroke="#000000" stroke-linecap="round" stroke-linejoin="round" stroke-miterlimit="10" x1="10.5" y1="20.5" x2="10.5" y2="23.5"/>
		<path fill="none" stroke="#000000" stroke-linecap="round" stroke-linejoin="round" stroke-miterlimit="10" d="M5.787,3.748
			c0.616,0.6,1.495-0.391,0.825-0.932L4.5,0.514L2.368,2.819C1.7,3.363,2.588,4.353,3.201,3.742L1.522,5.865
			C0.933,6.449,1.836,7.336,2.411,6.733L1.078,8.438C0.688,8.826,0.96,9.5,1.518,9.5h5.965c0.56,0,0.828-0.677,0.438-1.064
			L6.617,6.744c0.58,0.582,1.467-0.306,0.875-0.885L5.787,3.748z"/>
		
			<line fill="none" stroke="#000000" stroke-linecap="round" stroke-linejoin="round" stroke-miterlimit="10" x1="4.5" y1="9.5" x2="4.5" y2="11.014"/>
		<path fill="none" stroke="#000000" stroke-linecap="round" stroke-linejoin="round" stroke-miterlimit="10" d="M20.787,3.748
			c0.616,0.6,1.495-0.391,0.825-0.932L19.5,0.514l-2.132,2.306c-0.668,0.544,0.22,1.533,0.833,0.923l-1.679,2.123
			c-0.589,0.584,0.313,1.471,0.889,0.868l-1.333,1.704C15.688,8.826,15.96,9.5,16.518,9.5h5.965c0.56,0,0.828-0.677,0.438-1.064
			l-1.303-1.691c0.58,0.582,1.467-0.306,0.875-0.885L20.787,3.748z"/>
		
			<line fill="none" stroke="#000000" stroke-linecap="round" stroke-linejoin="round" stroke-miterlimit="10" x1="19.5" y1="9.5" x2="19.5" y2="11.014"/>
	</g>
</g>
<g id="invisible_shape">
	<rect fill="none" width="24" height="24"/>
</g>
</svg>
