<?xml version="1.0" encoding="utf-8"?>
<!-- Generator: Adobe Illustrator 16.0.3, SVG Export Plug-In . SVG Version: 6.00 Build 0)  -->
<!DOCTYPE svg PUBLIC "-//W3C//DTD SVG 1.1//EN" "http://www.w3.org/Graphics/SVG/1.1/DTD/svg11.dtd">
<svg version="1.1" xmlns="http://www.w3.org/2000/svg" xmlns:xlink="http://www.w3.org/1999/xlink" x="0px" y="0px" width="24px"
	 height="24px" viewBox="0 0 24 24" enable-background="new 0 0 24 24" xml:space="preserve">
<g id="Outline_Icons">
	<g>
		<g>
			<polyline fill="none" stroke="#000000" stroke-linecap="round" stroke-linejoin="round" stroke-miterlimit="10" points="
				8.583,18.5 19,18.5 14.5,12.5 17.5,12.5 13.5,6.5 15.5,6.5 11.5,0.5 7.5,6.5 9.5,6.5 5.5,12.5 8.5,12.5 6.93,14.594 			"/>
			
				<line fill="none" stroke="#000000" stroke-linecap="round" stroke-linejoin="round" stroke-miterlimit="10" x1="11.5" y1="18.5" x2="11.5" y2="23.5"/>
		</g>
		<g>
			<polyline fill="none" stroke="#000000" stroke-linecap="round" stroke-linejoin="round" stroke-miterlimit="10" points="
				21.021,18.5 23.5,18.5 19.5,12.5 22.5,12.5 18.5,6.5 20.5,6.5 16.5,0.5 15.157,2.515 			"/>
			
				<line fill="none" stroke="#000000" stroke-linecap="round" stroke-linejoin="round" stroke-miterlimit="10" x1="16.5" y1="18.5" x2="16.5" y2="23.5"/>
		</g>
		<path fill="none" stroke="#000000" stroke-linecap="round" stroke-linejoin="round" stroke-miterlimit="10" d="M2.576,14.5
			c0.348,1.133,1.022,3.209,0,4.847c-0.22-0.242-1.038-1.385-1.038-1.385S0.5,19.421,0.5,20.385c0,1.713,1.39,3.115,3.115,3.115
			c1.734,0,3.115-1.409,3.115-3.115C6.73,17.874,4.981,15.304,2.576,14.5z"/>
		<path fill="none" stroke="#000000" stroke-linecap="round" stroke-linejoin="round" stroke-miterlimit="10" d="M1.01,1.5
			c1.742,1.743-1.73,2.336-0.024,4.042"/>
		<path fill="none" stroke="#000000" stroke-linecap="round" stroke-linejoin="round" stroke-miterlimit="10" d="M3.996,5.458
			C5.738,7.201,2.266,7.794,3.972,9.5"/>
		<path fill="none" stroke="#000000" stroke-linecap="round" stroke-linejoin="round" stroke-miterlimit="10" d="M22.996,0.5
			c1.742,1.743-1.73,2.336-0.024,4.042"/>
	</g>
</g>
<g id="invisible_shape">
	<rect fill="none" width="24" height="24"/>
</g>
</svg>
