<?xml version="1.0" encoding="utf-8"?>
<!-- Generator: Adobe Illustrator 16.0.3, SVG Export Plug-In . SVG Version: 6.00 Build 0)  -->
<!DOCTYPE svg PUBLIC "-//W3C//DTD SVG 1.1//EN" "http://www.w3.org/Graphics/SVG/1.1/DTD/svg11.dtd">
<svg version="1.1" xmlns="http://www.w3.org/2000/svg" xmlns:xlink="http://www.w3.org/1999/xlink" x="0px" y="0px" width="24px"
	 height="24px" viewBox="0 0 24 24" enable-background="new 0 0 24 24" xml:space="preserve">
<g id="Outline_Icons">
	<g>
		<path fill="none" stroke="#000000" stroke-linejoin="round" stroke-miterlimit="10" d="M9.5,19.5c0,0.553-0.447,1-1,1h-2
			c-0.553,0-1-0.447-1-1v-10h4V19.5z"/>
		<line fill="none" stroke="#000000" stroke-linejoin="round" stroke-miterlimit="10" x1="7.5" y1="20.5" x2="7.5" y2="24"/>
		<path fill="none" stroke="#000000" stroke-linejoin="round" stroke-miterlimit="10" d="M10.5,7.5c0,2.209,1.791,4,4,4h3
			c0.553,0,1-0.447,1-1v-8c0-0.552-0.447-1-1-1h-3c-2.209,0-4,1.791-4,4V7.5z"/>
		<path fill="none" stroke="#000000" stroke-linejoin="round" stroke-miterlimit="10" d="M10.5,7.5v-2
			c0-0.75,0.22-1.444,0.579-2.044V3.427L3.5,4.5v5h7.536l0-0.035C10.704,8.883,10.5,8.218,10.5,7.5z"/>
		<line fill="none" stroke="#000000" stroke-linejoin="round" stroke-miterlimit="10" x1="15.5" y1="1.5" x2="15.5" y2="11.5"/>
		
			<line fill="none" stroke="#000000" stroke-linecap="round" stroke-linejoin="round" stroke-miterlimit="10" x1="20.5" y1="6.5" x2="22.484" y2="6.5"/>
		
			<line fill="none" stroke="#000000" stroke-linecap="round" stroke-linejoin="round" stroke-miterlimit="10" x1="20.619" y1="3.972" x2="22.365" y2="3.029"/>
		
			<line fill="none" stroke="#000000" stroke-linecap="round" stroke-linejoin="round" stroke-miterlimit="10" x1="20.619" y1="9.029" x2="22.365" y2="9.972"/>
		<path fill="none" stroke="#000000" stroke-linejoin="round" stroke-miterlimit="10" d="M0.5,7.5c0-1.656,1.343-3,3-3v10
			c0,1.657-1.343,3-3,3V7.5z"/>
	</g>
</g>
<g id="invisible_shape">
	<rect fill="none" width="24" height="24"/>
</g>
</svg>
