<?xml version="1.0" encoding="utf-8"?>
<!-- Generator: Adobe Illustrator 16.0.3, SVG Export Plug-In . SVG Version: 6.00 Build 0)  -->
<!DOCTYPE svg PUBLIC "-//W3C//DTD SVG 1.1//EN" "http://www.w3.org/Graphics/SVG/1.1/DTD/svg11.dtd">
<svg version="1.1" xmlns="http://www.w3.org/2000/svg" xmlns:xlink="http://www.w3.org/1999/xlink" x="0px" y="0px" width="24px"
	 height="24px" viewBox="0 0 24 24" enable-background="new 0 0 24 24" xml:space="preserve">
<g id="Outline_Icons">
	<g>
		<path fill="none" stroke="#000000" stroke-linecap="round" stroke-linejoin="round" stroke-miterlimit="10" d="M18.736,4.854
			c-1.758-1.758-4.607-1.758-6.364,0"/>
		<path fill="none" stroke="#000000" stroke-linecap="round" stroke-linejoin="round" stroke-miterlimit="10" d="M20.15,12.632
			c2.538-2.538,2.538-6.654,0-9.192c-2.539-2.539-6.654-2.539-9.192,0L7.382,7.014c-0.564,0.564-0.564,1.479,0,2.043l7.149,7.15
			c0.564,0.563,1.479,0.563,2.044,0L20.15,12.632z"/>
		<path fill="none" stroke="#000000" stroke-linecap="round" stroke-linejoin="round" stroke-miterlimit="10" d="M10.663,12.337
			c0,0-1.104,2.401-2.519,3.815s-2.799,1.503-4.523,3.227"/>
		<path fill="none" stroke="#000000" stroke-linecap="round" stroke-linejoin="round" stroke-miterlimit="10" d="M12.784,14.46
			c0,0-1.104,2.4-2.519,3.813c-1.414,1.414-2.799,1.503-4.523,3.227"/>
		<path fill="none" stroke="#000000" stroke-linecap="round" stroke-linejoin="round" stroke-miterlimit="10" d="M8.542,10.215
			c0,0-1.104,2.402-2.519,3.816s-2.8,1.502-4.523,3.227"/>
	</g>
</g>
<g id="invisible_shape">
	<rect fill="none" width="24" height="24"/>
</g>
</svg>
