<?xml version="1.0" encoding="utf-8"?>
<!-- Generator: Adobe Illustrator 16.0.3, SVG Export Plug-In . SVG Version: 6.00 Build 0)  -->
<!DOCTYPE svg PUBLIC "-//W3C//DTD SVG 1.1//EN" "http://www.w3.org/Graphics/SVG/1.1/DTD/svg11.dtd">
<svg version="1.1" xmlns="http://www.w3.org/2000/svg" xmlns:xlink="http://www.w3.org/1999/xlink" x="0px" y="0px" width="24px"
	 height="24px" viewBox="0 0 24 24" enable-background="new 0 0 24 24" xml:space="preserve">
<g id="Outline_Icons">
	<g>
		<path fill="none" stroke="#000000" stroke-linecap="round" stroke-linejoin="round" stroke-miterlimit="10" d="M7.497,20.967
			C6.861,20.318,5.979,20,5,20c-1.933,0-3.5,1.566-3.5,3.5h21c0-1.934-1.567-3.5-3.5-3.5c-0.979,0-1.865,0.337-2.501,0.984"/>
		<path fill="none" stroke="#000000" stroke-linecap="round" stroke-linejoin="round" stroke-miterlimit="10" d="M7,22
			c0,0,1.062-3.5,5-3.5c3.875,0,5,3.5,5,3.5"/>
		<path fill="none" stroke="#000000" stroke-linecap="round" stroke-linejoin="round" stroke-miterlimit="10" d="M15,11h1.675
			c2.583,0,4.875-1.652,5.692-4.103L23,5h-1.675c-2.583,0-4.875,1.652-5.692,4.103L15,11z"/>
		<path fill="none" stroke="#000000" stroke-linecap="round" stroke-linejoin="round" stroke-miterlimit="10" d="M13.5,18.695
			L12.537,5.499C12.516,5.218,12.282,5,12,5s-0.516,0.218-0.537,0.499L10.5,18.689"/>
		
			<line fill="none" stroke="#000000" stroke-linecap="round" stroke-linejoin="round" stroke-miterlimit="10" x1="15" y1="11" x2="19" y2="8"/>
		<path fill="none" stroke="#000000" stroke-linecap="round" stroke-linejoin="round" stroke-miterlimit="10" d="M9,11H7.325
			c-2.583,0-4.875-1.652-5.692-4.103L1,5h1.675c2.583,0,4.875,1.652,5.692,4.103L9,11z"/>
		
			<line fill="none" stroke="#000000" stroke-linecap="round" stroke-linejoin="round" stroke-miterlimit="10" x1="9" y1="11" x2="5" y2="8"/>
	</g>
</g>
<g id="invisible_shape">
	<rect fill="none" width="24" height="24"/>
</g>
</svg>
