<?xml version="1.0" encoding="utf-8"?>
<!-- Generator: Adobe Illustrator 16.0.3, SVG Export Plug-In . SVG Version: 6.00 Build 0)  -->
<!DOCTYPE svg PUBLIC "-//W3C//DTD SVG 1.1//EN" "http://www.w3.org/Graphics/SVG/1.1/DTD/svg11.dtd">
<svg version="1.1" xmlns="http://www.w3.org/2000/svg" xmlns:xlink="http://www.w3.org/1999/xlink" x="0px" y="0px" width="24px"
	 height="24px" viewBox="0 0 24 24" enable-background="new 0 0 24 24" xml:space="preserve">
<g id="Outline_Icons">
	<g>
		<polygon fill="none" stroke="#000000" stroke-linejoin="round" stroke-miterlimit="10" points="15.525,23.5 10.525,23.5 
			8.525,17.5 17.525,17.5 		"/>
		<path fill="none" stroke="#000000" stroke-linecap="round" stroke-linejoin="round" stroke-miterlimit="10" d="M15.045,9.494
			c-1.377,0.919-2.086,2.595,0,4.003c1.144,2.859,3.271,2.091,4.53,0.764s1.917-5.028,0.987-7.055
			C18.552,8.724,16.76,8.351,15.045,9.494z"/>
		<path fill="none" stroke="#000000" stroke-linecap="round" stroke-linejoin="round" stroke-miterlimit="10" d="M11.065,5.459
			c1.481,1.743,2.264,4.035-1.267,5.575c-1.616,3.606-4.073,2.271-5.708,0.345C2.456,9.453,1.831,4.297,3.27,1.576
			C5.926,3.822,9.216,3.279,11.065,5.459z"/>
		<path fill="none" stroke="#000000" stroke-linecap="round" stroke-linejoin="round" stroke-miterlimit="10" d="M17.904,11.21
			c-3.431,1.715-5.146,6.29-5.146,6.29s-1.445-6.703-7.164-11.85"/>
	</g>
</g>
<g id="invisible_shape">
	<rect fill="none" width="24" height="24"/>
</g>
</svg>
