<?xml version="1.0" encoding="utf-8"?>
<!-- Generator: Adobe Illustrator 16.0.3, SVG Export Plug-In . SVG Version: 6.00 Build 0)  -->
<!DOCTYPE svg PUBLIC "-//W3C//DTD SVG 1.1//EN" "http://www.w3.org/Graphics/SVG/1.1/DTD/svg11.dtd">
<svg version="1.1" xmlns="http://www.w3.org/2000/svg" xmlns:xlink="http://www.w3.org/1999/xlink" x="0px" y="0px" width="24px"
	 height="24px" viewBox="0 0 24 24" enable-background="new 0 0 24 24" xml:space="preserve">
<g id="Outline_Icons">
	<g>
		<path fill="none" stroke="#000000" stroke-linejoin="round" stroke-miterlimit="10" d="M5.093,16.5H11.5v5H6
			c-0.486,0-1.287-0.483-1.547-0.894"/>
		<path fill="none" stroke="#000000" stroke-linejoin="round" stroke-miterlimit="10" d="M4.453,20.606c0,0-1.843-1.685,2.547-6.606
			c1.5,0,2,0,2,0L6,9.5H0.5L2,11c0,0-1,0.612-1,2C1,14.178,2.89,18.21,4.453,20.606z"/>
		<path fill="none" stroke="#000000" stroke-linejoin="round" stroke-miterlimit="10" d="M19.312,15.638l-3.449-4.984l4.338-3
			l3.087,4.607c0.277,0.4,0.265,1.125,0.074,1.572"/>
		<path fill="none" stroke="#000000" stroke-linejoin="round" stroke-miterlimit="10" d="M23.362,13.833c0,0-0.69,2.542-6.862,1.667
			c0-1.153,0-1.5,0-1.5l-3,4.5l2.814,5l0.186-2.347c0,0,1.096,0.785,2.236-0.004C19.705,20.479,22.008,16.302,23.362,13.833z"/>
		<g>
			<path fill="none" stroke="#000000" stroke-linejoin="round" stroke-miterlimit="10" d="M11.507,3.452L9.021,8.723l-4.768-2.25
				l2.391-5.066C6.851,0.967,7.5,0.5,8,0.5"/>
			<path fill="none" stroke="#000000" stroke-linejoin="round" stroke-miterlimit="10" d="M8,0.5c0,0,2.5,0,4.937,5.697L11.5,7.5H17
				l3-5.545L17.97,2.703c0,0-0.051-1.154-1.305-1.747C16.03,0.657,14.073,0.541,12,0.5H8z"/>
		</g>
	</g>
</g>
<g id="invisible_shape">
	<rect fill="none" width="24" height="24"/>
</g>
</svg>
