<?xml version="1.0" encoding="utf-8"?>
<!-- Generator: Adobe Illustrator 16.0.3, SVG Export Plug-In . SVG Version: 6.00 Build 0)  -->
<!DOCTYPE svg PUBLIC "-//W3C//DTD SVG 1.1//EN" "http://www.w3.org/Graphics/SVG/1.1/DTD/svg11.dtd">
<svg version="1.1" xmlns="http://www.w3.org/2000/svg" xmlns:xlink="http://www.w3.org/1999/xlink" x="0px" y="0px" width="24px"
	 height="24px" viewBox="0 0 24 24" enable-background="new 0 0 24 24" xml:space="preserve">
<g id="Outline_Icons">
	<g>
		<path fill="none" stroke="#000000" stroke-linejoin="round" stroke-miterlimit="10" d="M23.492,23.479l0.005-3.02
			c-2.505,0.52-4.06-1.98-4.06-1.98h-0.003c0,0-1.186,2.057-3.621,2.057c-2.334,0-3.615-2.057-3.615-2.057h-0.003
			c0,0-1.186,2.057-3.621,2.057c-2.334,0-3.615-2.057-3.615-2.057H4.954c0,0-2.004,2.542-4.455,2.021l-0.007,2.979H23.492z"/>
		<path fill="none" stroke="#000000" stroke-linejoin="round" stroke-miterlimit="10" d="M23.492,20.479l0.005-4.02
			c-2.505,0.52-4.06-1.98-4.06-1.98h-0.003c0,0-1.186,2.057-3.621,2.057c-2.334,0-3.615-2.057-3.615-2.057h-0.003
			c0,0-1.186,2.057-3.621,2.057c-2.334,0-3.615-2.057-3.615-2.057H4.954c0,0-2.004,2.542-4.455,2.021l-0.007,3.979"/>
		<path fill="none" stroke="#000000" stroke-linejoin="round" stroke-miterlimit="10" d="M23.492,16.479l0.005-4.02
			c-2.505,0.52-4.06-1.98-4.06-1.98h-0.003c0,0-1.186,2.057-3.621,2.057c-2.334,0-3.615-2.057-3.615-2.057h-0.003
			c0,0-1.186,2.057-3.621,2.057c-2.334,0-3.615-2.057-3.615-2.057H4.954c0,0-2.004,2.542-4.455,2.021l-0.007,3.979"/>
		
			<line fill="none" stroke="#000000" stroke-linecap="round" stroke-linejoin="round" stroke-miterlimit="10" x1="19.101" y1="7.498" x2="20.492" y2="7.498"/>
		
			<line fill="none" stroke="#000000" stroke-linecap="round" stroke-linejoin="round" stroke-miterlimit="10" x1="17.362" y1="3.608" x2="18.405" y2="2.564"/>
		
			<line fill="none" stroke="#000000" stroke-linecap="round" stroke-linejoin="round" stroke-miterlimit="10" x1="12.492" y1="1.89" x2="12.492" y2="0.498"/>
		
			<line fill="none" stroke="#000000" stroke-linecap="round" stroke-linejoin="round" stroke-miterlimit="10" x1="7.623" y1="3.608" x2="6.58" y2="2.564"/>
		
			<line fill="none" stroke="#000000" stroke-linecap="round" stroke-linejoin="round" stroke-miterlimit="10" x1="5.883" y1="7.498" x2="4.492" y2="7.498"/>
		<path fill="none" stroke="#000000" stroke-linecap="round" stroke-linejoin="round" stroke-miterlimit="10" d="M9.429,12.419
			C8.274,11.503,7.534,10.088,7.534,8.5c0-2.762,2.239-5,5-5c2.762,0,5,2.238,5,5c0,1.613-0.763,3.047-1.949,3.961"/>
	</g>
</g>
<g id="invisible_shape">
	<rect fill="none" width="24" height="24"/>
</g>
</svg>
