<?xml version="1.0" encoding="utf-8"?>
<!-- Generator: Adobe Illustrator 16.0.3, SVG Export Plug-In . SVG Version: 6.00 Build 0)  -->
<!DOCTYPE svg PUBLIC "-//W3C//DTD SVG 1.1//EN" "http://www.w3.org/Graphics/SVG/1.1/DTD/svg11.dtd">
<svg version="1.1" xmlns="http://www.w3.org/2000/svg" xmlns:xlink="http://www.w3.org/1999/xlink" x="0px" y="0px" width="24px"
	 height="24px" viewBox="0 0 24 24" enable-background="new 0 0 24 24" xml:space="preserve">
<g id="Outline_Icons">
	<g>
		<path fill="none" stroke="#000000" stroke-linejoin="round" stroke-miterlimit="10" d="M11.26,16.672
			C10.65,17.188,9.861,17.5,9,17.5c-1.747,0-3.196-1.281-3.458-2.955l-0.039-0.293C4.326,13.764,3.5,12.604,3.5,11.25
			c0-1.334,0.803-2.48,1.952-2.98L5.5,8c0-1.381,1.119-2.5,2.5-2.5l0.25-0.25C8.25,3.455,9.704,2,11.5,2s3.25,1.455,3.25,3.25
			L15,5.5c1.381,0,2.5,1.119,2.5,2.5l0.299,0.393c1.014,0.55,1.701,1.623,1.701,2.857c0,1.346-0.817,2.501-1.984,2.995l-0.058,0.301
			C17.196,16.219,15.746,17.5,14,17.5c-0.854,0-1.635-0.306-2.242-0.812L11.26,16.672z"/>
		
			<line fill="none" stroke="#000000" stroke-linecap="round" stroke-linejoin="round" stroke-miterlimit="10" x1="11.5" y1="8.5" x2="11.5" y2="23.5"/>
		<path fill="none" stroke="#000000" stroke-linecap="round" stroke-linejoin="round" stroke-miterlimit="10" d="M11.5,14
			c2.209,0,4-1.791,4-4"/>
		<path fill="none" stroke="#000000" stroke-linecap="round" stroke-linejoin="round" stroke-miterlimit="10" d="M11.5,12
			c-1.657,0-3-1.343-3-3"/>
	</g>
</g>
<g id="invisible_shape">
	<rect fill="none" width="24" height="24"/>
</g>
</svg>
