<?xml version="1.0" encoding="utf-8"?>
<!-- Generator: Adobe Illustrator 16.0.3, SVG Export Plug-In . SVG Version: 6.00 Build 0)  -->
<!DOCTYPE svg PUBLIC "-//W3C//DTD SVG 1.1//EN" "http://www.w3.org/Graphics/SVG/1.1/DTD/svg11.dtd">
<svg version="1.1" xmlns="http://www.w3.org/2000/svg" xmlns:xlink="http://www.w3.org/1999/xlink" x="0px" y="0px" width="24px"
	 height="24px" viewBox="0 0 24 24" enable-background="new 0 0 24 24" xml:space="preserve">
<g id="Outline_Icons">
	<g>
		<path fill="none" stroke="#000000" stroke-linejoin="round" stroke-miterlimit="10" d="M15.989,9.312
			c0,2.206-1.789,3.688-3.995,3.688C9.788,13,8,11.519,8,9.312c0-2.207,3.995-8.604,3.995-8.604S15.989,7.105,15.989,9.312z"/>
		<path fill="none" stroke="#000000" stroke-linecap="round" stroke-linejoin="round" stroke-miterlimit="10" d="M11.995,11
			c-1.077,0-1.95-0.723-1.95-1.8"/>
		<rect x="14.5" y="20.5" fill="none" stroke="#000000" stroke-linejoin="round" stroke-miterlimit="10" width="6" height="3"/>
		<path fill="none" stroke="#000000" stroke-linecap="round" stroke-linejoin="round" stroke-miterlimit="10" d="M19.5,20.5v-1.531
			c0,0,3.187-3.155,4-3.969c0-1.375,0-8.062,0-8.062S21,6.031,21,13l-2.969,2.969l0.688-3c0.344-1.438-0.971-2.053-1.688-0.938
			c-0.66,1.026-1.531,3.961-1.531,3.961V20.5"/>
		<rect x="3.5" y="20.5" fill="none" stroke="#000000" stroke-linejoin="round" stroke-miterlimit="10" width="6" height="3"/>
		<path fill="none" stroke="#000000" stroke-linecap="round" stroke-linejoin="round" stroke-miterlimit="10" d="M4.5,20.5v-1.531
			c0,0-3-3.155-4-3.969c0-1.375,0-8.062,0-8.062S3,6.031,3,13l2.969,2.969l-0.688-3c-0.344-1.438,0.971-2.053,1.688-0.938
			c0.66,1.026,1.531,3.961,1.531,3.961V20.5"/>
	</g>
</g>
<g id="invisible_shape">
	<rect fill="none" width="24" height="24"/>
</g>
</svg>
