<?xml version="1.0" encoding="utf-8"?>
<!-- Generator: Adobe Illustrator 16.0.3, SVG Export Plug-In . SVG Version: 6.00 Build 0)  -->
<!DOCTYPE svg PUBLIC "-//W3C//DTD SVG 1.1//EN" "http://www.w3.org/Graphics/SVG/1.1/DTD/svg11.dtd">
<svg version="1.1" xmlns="http://www.w3.org/2000/svg" xmlns:xlink="http://www.w3.org/1999/xlink" x="0px" y="0px" width="24px"
	 height="24px" viewBox="0 0 24 24" enable-background="new 0 0 24 24" xml:space="preserve">
<g id="Outline_Icons">
	<g>
		<path fill="none" stroke="#000000" stroke-linecap="round" stroke-linejoin="round" stroke-miterlimit="10" d="M5.734,13.5h7.333
			c1.615,0,3.071-0.971,3.692-2.462L18.234,7.5l1,2.441c2.403,1.516,3,1.526,3,3.246c0,0.725-0.587,1.312-1.312,1.312h-1.188l-1.5,3
			l-1.311,5.242c-0.111,0.445-0.512,0.758-0.971,0.758c-0.418,0-0.756-0.343-0.753-0.758c0.024-3.372-0.226-4.242-4.466-4.242
			c-5.663,0-6.187,1.909-7.742,4.512c-0.544,0.911-1.771,0.422-1.446-0.383c0.646-1.597,2.032-5.057,2.922-7.539
			C2.952,14.342,2.234,13,2.234,11c0-4.828,5.203-6.778,5.831-3.018c0.16,0.966-1.197,1.419-1.468,0.605
			C5.766,6.102,2.323,11.453,5.734,13.5z"/>
		<path fill="none" stroke="#000000" stroke-linecap="round" stroke-linejoin="round" stroke-miterlimit="10" d="M9.234,18.621
			l0.399,4.252c0.06,0.641-0.828,0.877-1.094,0.29L6.667,19.05"/>
		<path fill="none" stroke="#000000" stroke-linecap="round" stroke-linejoin="round" stroke-miterlimit="10" d="M17.416,20.772
			l1.521,2.282c0.57,0.855,1.7,0.359,1.374-0.384c-0.207-0.472-0.495-1.215-2.077-5.171"/>
		<g>
			<path d="M19.5,12c-0.276,0-0.5,0.224-0.5,0.5s0.224,0.5,0.5,0.5s0.5-0.224,0.5-0.5S19.776,12,19.5,12L19.5,12z"/>
		</g>
	</g>
</g>
<g id="invisible_shape">
	<rect fill="none" width="24" height="24"/>
</g>
</svg>
