<?xml version="1.0" encoding="utf-8"?>
<!-- Generator: Adobe Illustrator 16.0.3, SVG Export Plug-In . SVG Version: 6.00 Build 0)  -->
<!DOCTYPE svg PUBLIC "-//W3C//DTD SVG 1.1//EN" "http://www.w3.org/Graphics/SVG/1.1/DTD/svg11.dtd">
<svg version="1.1" xmlns="http://www.w3.org/2000/svg" xmlns:xlink="http://www.w3.org/1999/xlink" x="0px" y="0px" width="24px"
	 height="24px" viewBox="0 0 24 24" enable-background="new 0 0 24 24" xml:space="preserve">
<g id="Outline_Icons">
	<g>
		<path fill="none" stroke="#000000" stroke-linejoin="round" stroke-miterlimit="10" d="M9.54,18.028
			c-0.122-0.12-0.327-0.275-0.346-0.256l8.482-8.481c-0.02,0.02,0.135,0.224,0.255,0.345c1.159,1.159,3.014,1.135,4.172-0.024
			c1.159-1.158,1.146-3.05-0.012-4.209c-0.73-0.73-1.754-1.004-2.695-0.813c0.19-0.941-0.081-1.962-0.812-2.692
			c-1.158-1.159-3.039-1.16-4.198-0.001c-1.158,1.158-1.054,3.142,0.104,4.301c0.121,0.121,0.479,0.428,0.499,0.408l-8.482,8.482
			c0.02-0.02-0.289-0.378-0.41-0.499c-1.158-1.159-3.09-1.212-4.249-0.053c-1.159,1.158-1.185,3.012-0.026,4.17
			C2.554,19.437,3.557,19.69,4.5,19.5c-0.19,0.942,0.07,1.952,0.801,2.683c1.159,1.159,3.06,1.18,4.218,0.021
			C10.678,21.046,10.699,19.188,9.54,18.028z"/>
	</g>
</g>
<g id="invisible_shape">
	<rect fill="none" width="24" height="24"/>
</g>
</svg>
