<?xml version="1.0" encoding="utf-8"?>
<!-- Generator: Adobe Illustrator 16.0.3, SVG Export Plug-In . SVG Version: 6.00 Build 0)  -->
<!DOCTYPE svg PUBLIC "-//W3C//DTD SVG 1.1//EN" "http://www.w3.org/Graphics/SVG/1.1/DTD/svg11.dtd">
<svg version="1.1" xmlns="http://www.w3.org/2000/svg" xmlns:xlink="http://www.w3.org/1999/xlink" x="0px" y="0px" width="24px"
	 height="24px" viewBox="0 0 24 24" enable-background="new 0 0 24 24" xml:space="preserve">
<g id="Outline_Icons">
	<g>
		<path fill="none" stroke="#000000" stroke-linejoin="round" stroke-miterlimit="10" d="M21.284,13.848L23.5,12l-2.216-1.846
			l1.34-2.555l-2.753-0.857l0.261-2.873l-2.873,0.262L16.4,1.377l-2.554,1.34L12,0.5l-1.847,2.217l-2.554-1.34L6.741,4.131
			L3.868,3.869l0.261,2.873L1.375,7.6l1.341,2.555L0.5,12l2.216,1.848l-1.341,2.555l2.754,0.857l-0.261,2.873l2.873-0.262
			l0.858,2.754l2.554-1.34L12,23.5l1.847-2.215l2.554,1.34l0.858-2.754l2.873,0.262l-0.261-2.873l2.753-0.857L21.284,13.848z"/>
		<g>
			<path fill="none" stroke="#000000" stroke-linejoin="round" stroke-miterlimit="10" d="M12.96,12.057
				c-0.224-0.307-0.581-0.488-0.961-0.488s-0.737,0.182-0.963,0.488l-1.822,2.486c-0.266,0.363-0.306,0.873-0.103,1.273
				c0.203,0.402,0.614,0.684,1.063,0.684h3.648c0.449,0,0.86-0.281,1.063-0.684c0.203-0.4,0.163-0.896-0.103-1.259L12.96,12.057z"/>
			<circle fill="none" stroke="#000000" stroke-linejoin="round" stroke-miterlimit="10" cx="8.246" cy="10.893" r="1.246"/>
			<circle fill="none" stroke="#000000" stroke-linejoin="round" stroke-miterlimit="10" cx="11.984" cy="8.4" r="1.246"/>
			<circle fill="none" stroke="#000000" stroke-linejoin="round" stroke-miterlimit="10" cx="15.753" cy="10.893" r="1.246"/>
		</g>
	</g>
</g>
<g id="invisible_shape">
	<rect fill="none" width="24" height="24"/>
</g>
</svg>
