<?xml version="1.0" encoding="utf-8"?>
<!-- Generator: Adobe Illustrator 16.0.3, SVG Export Plug-In . SVG Version: 6.00 Build 0)  -->
<!DOCTYPE svg PUBLIC "-//W3C//DTD SVG 1.1//EN" "http://www.w3.org/Graphics/SVG/1.1/DTD/svg11.dtd">
<svg version="1.1" xmlns="http://www.w3.org/2000/svg" xmlns:xlink="http://www.w3.org/1999/xlink" x="0px" y="0px" width="24px"
	 height="24px" viewBox="0 0 24 24" enable-background="new 0 0 24 24" xml:space="preserve">
<g id="Outline_Icons">
	<g>
		<path fill="none" stroke="#000000" stroke-linecap="round" stroke-linejoin="round" stroke-miterlimit="10" d="M3.168,0.565
			c-0.322-0.112-0.739-0.09-0.98,0.151C1.559,1.346-2.225,3.85,4.141,10.214c2.828,2.829,9.744-4.087,6.914-6.915L3.168,0.565z"/>
		
			<circle fill="none" stroke="#000000" stroke-linecap="round" stroke-linejoin="round" stroke-miterlimit="10" cx="7.232" cy="5.186" r="0.444"/>
		
			<line fill="none" stroke="#000000" stroke-linecap="round" stroke-linejoin="round" stroke-miterlimit="10" x1="9.355" y1="9.221" x2="16.436" y2="16.303"/>
		
			<line fill="none" stroke="#000000" stroke-linecap="round" stroke-linejoin="round" stroke-miterlimit="10" x1="12.208" y1="9.217" x2="9.026" y2="12.398"/>
		
			<line fill="none" stroke="#000000" stroke-linecap="round" stroke-linejoin="round" stroke-miterlimit="10" x1="15.375" y1="10.291" x2="10.426" y2="15.241"/>
		
			<line fill="none" stroke="#000000" stroke-linecap="round" stroke-linejoin="round" stroke-miterlimit="10" x1="16.451" y1="13.46" x2="13.27" y2="16.641"/>
		
			<line fill="none" stroke="#000000" stroke-linecap="round" stroke-linejoin="round" stroke-miterlimit="10" x1="2.278" y1="0.645" x2="3.434" y2="4.479"/>
		<path fill="none" stroke="#000000" stroke-linecap="round" stroke-linejoin="round" stroke-miterlimit="10" d="M17.781,17.648
			c0,0,3.705-0.909,5.471,0.1c-0.199-0.35-0.443-0.68-0.742-0.979c-1.807-1.807-4.268-2.273-6.074-0.467
			c-1.805,1.805-1.339,4.267,0.469,6.073c0.297,0.298,0.629,0.542,0.979,0.742C16.873,21.353,17.781,17.648,17.781,17.648z"/>
	</g>
</g>
<g id="invisible_shape">
	<rect fill="none" width="24" height="24"/>
</g>
</svg>
