<?xml version="1.0" encoding="utf-8"?>
<!-- Generator: Adobe Illustrator 16.0.3, SVG Export Plug-In . SVG Version: 6.00 Build 0)  -->
<!DOCTYPE svg PUBLIC "-//W3C//DTD SVG 1.1//EN" "http://www.w3.org/Graphics/SVG/1.1/DTD/svg11.dtd">
<svg version="1.1" xmlns="http://www.w3.org/2000/svg" xmlns:xlink="http://www.w3.org/1999/xlink" x="0px" y="0px" width="24px"
	 height="24px" viewBox="0 0 24 24" enable-background="new 0 0 24 24" xml:space="preserve">
<g id="Outline_Icons">
	<g>
		<path fill="none" stroke="#000000" stroke-linecap="round" stroke-linejoin="round" stroke-miterlimit="10" d="M19,15l1.5-2h2
			c0.552,0,1,0.447,1,1c0,0.552-0.448,1-1,1H22l-2.026,5.672C19.689,21.469,18.935,22,18.09,22H5.909
			c-0.845,0-1.599-0.531-1.883-1.328L2,15H1.5c-0.552,0-1-0.448-1-1c0-0.553,0.448-1,1-1h2L5,15H19z"/>
		
			<line fill="none" stroke="#000000" stroke-linecap="round" stroke-linejoin="round" stroke-miterlimit="10" x1="11" y1="15" x2="13" y2="11.5"/>
		
			<line fill="none" stroke="#000000" stroke-linecap="round" stroke-linejoin="round" stroke-miterlimit="10" x1="13.5" y1="15" x2="15" y2="12.5"/>
		<path fill="none" stroke="#000000" stroke-linecap="round" stroke-linejoin="round" stroke-miterlimit="10" d="M16.366,15
			l0.721-1.354c0.745-1.396,0.434-3.061-0.635-4.121l2.429-4.555c0.26-0.488,0.076-1.094-0.411-1.354s-1.093-0.076-1.354,0.412
			l-2.429,4.555c-1.476-0.297-3.032,0.371-3.776,1.769L8.5,15H16.366z"/>
	</g>
</g>
<g id="invisible_shape">
	<rect fill="none" width="24" height="24"/>
</g>
</svg>
