<?xml version="1.0" encoding="utf-8"?>
<!-- Generator: Adobe Illustrator 16.0.3, SVG Export Plug-In . SVG Version: 6.00 Build 0)  -->
<!DOCTYPE svg PUBLIC "-//W3C//DTD SVG 1.1//EN" "http://www.w3.org/Graphics/SVG/1.1/DTD/svg11.dtd">
<svg version="1.1" xmlns="http://www.w3.org/2000/svg" xmlns:xlink="http://www.w3.org/1999/xlink" x="0px" y="0px" width="24px"
	 height="24px" viewBox="0 0 24 24" enable-background="new 0 0 24 24" xml:space="preserve">
<g id="Outline_Icons">
	<g>
		<path fill="none" stroke="#000000" stroke-linejoin="round" stroke-miterlimit="10" d="M15.429,17.057
			c-1.562,1.562-4.096,1.562-5.657,0l-2.829-2.828c-1.562-1.562-1.562-4.096,0-5.657l7.778-7.778c0.391-0.391,1.024-0.391,1.415,0
			l7.07,7.071c0.391,0.391,0.391,1.023,0,1.414L15.429,17.057z"/>
		<polyline fill="none" stroke="#000000" stroke-linejoin="round" stroke-miterlimit="10" points="15.594,0.516 8.446,12.607 
			11.392,15.554 23.49,8.447 		"/>
		<path fill="none" stroke="#000000" stroke-linejoin="round" stroke-miterlimit="10" d="M9.772,17.057l-2.829-2.828l-5.656,5.656
			c-0.781,0.781-0.781,2.047,0,2.829c0.781,0.78,2.047,0.78,2.828,0L9.772,17.057z"/>
		
			<line fill="none" stroke="#000000" stroke-linejoin="round" stroke-miterlimit="10" x1="17.197" y1="3.975" x2="15.783" y2="5.389"/>
		
			<line fill="none" stroke="#000000" stroke-linejoin="round" stroke-miterlimit="10" x1="18.611" y1="5.389" x2="17.197" y2="6.804"/>
		
			<line fill="none" stroke="#000000" stroke-linejoin="round" stroke-miterlimit="10" x1="20.025" y1="6.804" x2="18.611" y2="8.218"/>
		
			<line fill="none" stroke="#000000" stroke-linejoin="round" stroke-miterlimit="10" x1="15.075" y1="6.096" x2="13.661" y2="7.511"/>
		
			<line fill="none" stroke="#000000" stroke-linejoin="round" stroke-miterlimit="10" x1="13.661" y1="8.925" x2="12.247" y2="10.339"/>
		
			<line fill="none" stroke="#000000" stroke-linejoin="round" stroke-miterlimit="10" x1="15.075" y1="10.339" x2="13.661" y2="11.754"/>
		
			<line fill="none" stroke="#000000" stroke-linejoin="round" stroke-miterlimit="10" x1="12.247" y1="11.754" x2="10.833" y2="13.168"/>
		
			<line fill="none" stroke="#000000" stroke-linejoin="round" stroke-miterlimit="10" x1="16.49" y1="7.511" x2="15.075" y2="8.925"/>
		
			<line fill="none" stroke="#000000" stroke-linejoin="round" stroke-miterlimit="10" x1="17.904" y1="8.925" x2="16.49" y2="10.339"/>
	</g>
</g>
<g id="invisible_shape">
	<rect fill="none" width="24" height="24"/>
</g>
</svg>
