<?xml version="1.0" encoding="utf-8"?>
<!-- Generator: Adobe Illustrator 16.0.3, SVG Export Plug-In . SVG Version: 6.00 Build 0)  -->
<!DOCTYPE svg PUBLIC "-//W3C//DTD SVG 1.1//EN" "http://www.w3.org/Graphics/SVG/1.1/DTD/svg11.dtd">
<svg version="1.1" xmlns="http://www.w3.org/2000/svg" xmlns:xlink="http://www.w3.org/1999/xlink" x="0px" y="0px" width="24px"
	 height="24px" viewBox="0 0 24 24" enable-background="new 0 0 24 24" xml:space="preserve">
<g id="Outline_Icons">
	<g>
		<polyline fill="none" stroke="#000000" stroke-linejoin="round" stroke-miterlimit="10" points="4.208,14.086 0.5,20.5 
			4.349,19.849 5.685,23.518 8.968,18.002 		"/>
		<polyline fill="none" stroke="#000000" stroke-linejoin="round" stroke-miterlimit="10" points="19.671,14.175 23.337,20.5 
			19.488,19.849 18.152,23.518 14.875,18.033 		"/>
		<circle fill="none" stroke="#000000" stroke-linejoin="round" stroke-miterlimit="10" cx="12" cy="9.518" r="9"/>
		<g>
			<path fill="none" stroke="#000000" stroke-linejoin="round" stroke-miterlimit="10" d="M12.96,9.057
				C12.738,8.75,12.378,8.568,12,8.568s-0.736,0.182-0.963,0.488l-1.822,2.486c-0.266,0.362-0.305,0.873-0.102,1.274
				c0.203,0.4,0.613,0.683,1.062,0.683h3.648c0.449,0,0.859-0.282,1.062-0.683c0.205-0.401,0.164-0.897-0.102-1.261L12.96,9.057z"/>
			<circle fill="none" stroke="#000000" stroke-linejoin="round" stroke-miterlimit="10" cx="8.246" cy="7.893" r="1.246"/>
			<circle fill="none" stroke="#000000" stroke-linejoin="round" stroke-miterlimit="10" cx="11.984" cy="5.4" r="1.246"/>
			<circle fill="none" stroke="#000000" stroke-linejoin="round" stroke-miterlimit="10" cx="15.753" cy="7.893" r="1.246"/>
		</g>
	</g>
</g>
<g id="invisible_shape">
	<rect fill="none" width="24" height="24"/>
</g>
</svg>
