<?xml version="1.0" encoding="utf-8"?>
<!-- Generator: Adobe Illustrator 16.0.3, SVG Export Plug-In . SVG Version: 6.00 Build 0)  -->
<!DOCTYPE svg PUBLIC "-//W3C//DTD SVG 1.1//EN" "http://www.w3.org/Graphics/SVG/1.1/DTD/svg11.dtd">
<svg version="1.1" xmlns="http://www.w3.org/2000/svg" xmlns:xlink="http://www.w3.org/1999/xlink" x="0px" y="0px" width="24px"
	 height="24px" viewBox="0 0 24 24" enable-background="new 0 0 24 24" xml:space="preserve">
<g id="Outline_Icons">
	<g>
		<path fill="none" stroke="#000000" stroke-linejoin="round" stroke-miterlimit="10" d="M20.224,14.5H10.41
			c-6.256,0-4.045-10.323,0.59-9C25,9.5,23.933,14.5,20.224,14.5z"/>
		<line fill="none" stroke="#000000" stroke-linejoin="round" stroke-miterlimit="10" x1="14.5" y1="2" x2="14.5" y2="6.628"/>
		<path fill="none" stroke="#000000" stroke-linejoin="round" stroke-miterlimit="10" d="M18.5,2c0,0.828-0.68,1.5-1.516,1.5
			C16.148,3.5,14.5,2,14.5,2s1.648-1.5,2.484-1.5C17.819,0.5,18.5,1.171,18.5,2z"/>
		<path fill="none" stroke="#000000" stroke-linejoin="round" stroke-miterlimit="10" d="M10.5,2c0,0.828,0.678,1.5,1.516,1.5
			C12.851,3.5,14.5,2,14.5,2s-1.648-1.5-2.484-1.5C11.177,0.5,10.5,1.171,10.5,2z"/>
		<circle fill="none" stroke="#000000" stroke-linejoin="round" stroke-miterlimit="10" cx="18.5" cy="11.5" r="0.5"/>
		<path fill="none" stroke="#000000" stroke-linecap="round" stroke-linejoin="round" stroke-miterlimit="10" d="M6.949,12.415
			c0,0-5.449-0.156-5.449,2.562s9,1.616,9,4.491S3.593,23.5,3.593,23.5"/>
	</g>
</g>
<g id="invisible_shape">
	<rect fill="none" width="24" height="24"/>
</g>
</svg>
