<?xml version="1.0" encoding="utf-8"?>
<!-- Generator: Adobe Illustrator 16.0.3, SVG Export Plug-In . SVG Version: 6.00 Build 0)  -->
<!DOCTYPE svg PUBLIC "-//W3C//DTD SVG 1.1//EN" "http://www.w3.org/Graphics/SVG/1.1/DTD/svg11.dtd">
<svg version="1.1" xmlns="http://www.w3.org/2000/svg" xmlns:xlink="http://www.w3.org/1999/xlink" x="0px" y="0px" width="24px"
	 height="24px" viewBox="0 0 24 24" enable-background="new 0 0 24 24" xml:space="preserve">
<g id="Outline_Icons">
	<g>
		<circle fill="none" stroke="#000000" stroke-linejoin="round" stroke-miterlimit="10" cx="10" cy="10.012" r="9.5"/>
		<path fill="none" stroke="#000000" stroke-linejoin="round" stroke-miterlimit="10" d="M14.221,1.499
			C15.04,3.162,15.5,5.033,15.5,7.012c0,5.599-3.68,10.337-8.752,11.93"/>
		<path fill="none" stroke="#000000" stroke-linejoin="round" stroke-miterlimit="10" d="M9.512,0.5
			c1.667,1.666,2.697,3.969,2.697,6.512c0,5.088-4.123,9.211-9.21,9.211c-0.064,0-0.129,0-0.193-0.002"/>
		<path fill="none" stroke="#000000" stroke-linejoin="round" stroke-miterlimit="10" d="M5.5,1.643
			C7.52,2.586,8.92,4.635,8.92,7.012c0,3.271-2.651,5.921-5.921,5.921c-0.765,0-1.496-0.145-2.167-0.408"/>
		<path fill="none" stroke="#000000" stroke-linejoin="round" stroke-miterlimit="10" d="M19.121,7.35
			c-1.123,1.547-2.594,2.827-4.297,3.726"/>
		<path fill="none" stroke="#000000" stroke-linejoin="round" stroke-miterlimit="10" d="M5.959,12.141
			c-2.038-0.51-3.878-1.52-5.382-2.891"/>
		<path fill="none" stroke="#000000" stroke-linejoin="round" stroke-miterlimit="10" d="M17.323,3.962
			c-0.455,0.956-1.069,1.822-1.811,2.563"/>
		<path fill="none" stroke="#000000" stroke-linejoin="round" stroke-miterlimit="10" d="M8.496,9.209
			C5.683,9.058,3.207,7.645,1.621,5.525"/>
		<path fill="none" stroke="#000000" stroke-linejoin="round" stroke-miterlimit="10" d="M8.818,5.931
			C6.643,5.865,4.763,4.627,3.789,2.826"/>
		<path fill="none" stroke="#000000" stroke-linejoin="round" stroke-miterlimit="10" d="M14.175,18.547
			c-1.138-0.477-2.189-1.115-3.127-1.889"/>
		<path fill="none" stroke="#000000" stroke-linejoin="round" stroke-miterlimit="10" d="M17.314,16.068
			c-1.525-0.281-2.92-0.939-4.082-1.875"/>
		<path fill="none" stroke="#000000" stroke-linejoin="round" stroke-miterlimit="10" d="M19,12.933
			c-1.664,0-3.167-0.686-4.243-1.791"/>
		<path fill="none" stroke="#000000" stroke-linecap="round" stroke-linejoin="round" stroke-miterlimit="10" d="M13.984,18.464
			c8.391-0.011,10.725,5.874,7.099,4.507C12.813,19.853,3,26.846,1.621,21.054"/>
	</g>
</g>
<g id="invisible_shape">
	<rect fill="none" width="24" height="24"/>
</g>
</svg>
