<?xml version="1.0" encoding="utf-8"?>
<!-- Generator: Adobe Illustrator 16.0.3, SVG Export Plug-In . SVG Version: 6.00 Build 0)  -->
<!DOCTYPE svg PUBLIC "-//W3C//DTD SVG 1.1//EN" "http://www.w3.org/Graphics/SVG/1.1/DTD/svg11.dtd">
<svg version="1.1" xmlns="http://www.w3.org/2000/svg" xmlns:xlink="http://www.w3.org/1999/xlink" x="0px" y="0px" width="24px"
	 height="24px" viewBox="0 0 24 24" enable-background="new 0 0 24 24" xml:space="preserve">
<g id="Outline_Icons">
	<g>
		<g>
			<path fill="none" stroke="#000000" stroke-linecap="round" stroke-linejoin="round" stroke-miterlimit="10" d="M21.955,8.5
				c-0.585,0-1.12-0.331-1.381-0.854C20.222,6.943,19.504,6.5,18.719,6.5c-1.385,0-2.506,0.717-3.213,2.484
				c-0.607,1.52-2.078,2.516-3.714,2.516H6.5c-4.045,0-4.562-2.938-1.5-6c-2.209,0-4,1.791-4,4c0,1.574,0.91,2.937,2.233,3.59
				C2.792,13.865,1.5,19.335,1.5,22c0,0.828,0.671,1.5,1.5,1.5s1.5-0.672,1.5-1.5v-0.63c0-1.979,1.464-3.948,4-3.87
				c0.142,0.004,1.5,0,1.5,0c2.573,0,4.5,1.344,4.5,3.923V22c0,0.828,0.671,1.5,1.5,1.5s1.5-0.672,1.5-1.5
				c0-3.821-0.134-2.13,0.613-6.984c0.223-1.447,1.468-2.516,2.933-2.516c1.355,0,2.455-1.1,2.455-2.455
				C23.5,9.191,22.808,8.5,21.955,8.5z"/>
			
				<line fill="none" stroke="#000000" stroke-linecap="round" stroke-linejoin="round" stroke-miterlimit="10" x1="14.198" y1="10.697" x2="6" y2="0.5"/>
			
				<line fill="none" stroke="#000000" stroke-linecap="round" stroke-linejoin="round" stroke-miterlimit="10" x1="14.705" y1="10.243" x2="18.458" y2="13.996"/>
			
				<line fill="none" stroke="#000000" stroke-linecap="round" stroke-linejoin="round" stroke-miterlimit="10" x1="17.883" y1="16.359" x2="12.867" y2="11.343"/>
		</g>
		<g>
			<path d="M18.5,9C18.224,9,18,9.224,18,9.5s0.224,0.5,0.5,0.5S19,9.776,19,9.5S18.776,9,18.5,9L18.5,9z"/>
		</g>
	</g>
</g>
<g id="invisible_shape">
	<rect fill="none" width="24" height="24"/>
</g>
</svg>
